<?xml version="1.0" encoding="UTF-8" standalone="no"?>
<!-- Generator: Adobe Illustrator 21.1.0, SVG Export Plug-In . SVG Version: 6.00 Build 0)  -->

<svg
   xmlns:dc="http://purl.org/dc/elements/1.1/"
   xmlns:cc="http://creativecommons.org/ns#"
   xmlns:rdf="http://www.w3.org/1999/02/22-rdf-syntax-ns#"
   xmlns:svg="http://www.w3.org/2000/svg"
   xmlns="http://www.w3.org/2000/svg"
   xmlns:sodipodi="http://sodipodi.sourceforge.net/DTD/sodipodi-0.dtd"
   xmlns:inkscape="http://www.inkscape.org/namespaces/inkscape"
   version="1.1"
   id="Layer_1"
   x="0px"
   y="0px"
   viewBox="0 0 120 59.999997"
   xml:space="preserve"
   sodipodi:docname="ayden-ar21.svg"
   width="120"
   height="60"
   inkscape:version="0.92.3 (2405546, 2018-03-11)"><metadata
   id="metadata31"><rdf:RDF><cc:Work
       rdf:about=""><dc:format>image/svg+xml</dc:format><dc:type
         rdf:resource="http://purl.org/dc/dcmitype/StillImage" /><dc:title></dc:title></cc:Work></rdf:RDF></metadata><defs
   id="defs29" /><sodipodi:namedview
   pagecolor="#ffffff"
   bordercolor="#666666"
   borderopacity="1"
   objecttolerance="10"
   gridtolerance="10"
   guidetolerance="10"
   inkscape:pageopacity="0"
   inkscape:pageshadow="2"
   inkscape:window-width="1920"
   inkscape:window-height="1001"
   id="namedview27"
   showgrid="false"
   inkscape:zoom="3.3366142"
   inkscape:cx="14.235988"
   inkscape:cy="16.450001"
   inkscape:window-x="-9"
   inkscape:window-y="-9"
   inkscape:window-maximized="1"
   inkscape:current-layer="Layer_1" />
<style
   type="text/css"
   id="style2">
	.st0{fill:#35B454;}
</style>
<g
   id="g24"
   transform="matrix(0.8370866,0,0,0.8370866,17.434146,16.27178)">
	<g
   id="g6">
		<path
   class="st0"
   d="M 14.3,7.5 H 0.3 V 12 h 9.2 c 0.6,0 1,0.5 1,1 v 7.9 h -2 c -0.6,0 -1,-0.5 -1,-1 V 14.2 H 3.6 c -2,0 -3.6,1.6 -3.6,3.6 v 4 c 0,2 1.6,3.6 3.6,3.6 H 17.9 V 11.1 c 0,-2 -1.6,-3.6 -3.6,-3.6 z"
   id="path4"
   inkscape:connector-curvature="0"
   style="fill:#35b454" />
	</g>
	<g
   id="g10">
		<path
   class="st0"
   d="m 31.4,20.9 h -2 c -0.6,0 -1,-0.5 -1,-1 V 7.5 h -3.9 c -2,0 -3.6,1.6 -3.6,3.6 v 10.7 c 0,2 1.6,3.6 3.6,3.6 H 38.8 V 0 h -7.5 z"
   id="path8"
   inkscape:connector-curvature="0"
   style="fill:#35b454" />
	</g>
	<g
   id="g14">
		<path
   class="st0"
   d="m 52.3,20.9 h -2 c -0.6,0 -1,-0.5 -1,-1 V 7.5 h -7.5 v 14.3 c 0,2 1.6,3.6 3.6,3.6 h 6.9 v 2.2 H 42.1 v 5.2 h 14.1 c 2,0 3.6,-1.6 3.6,-3.6 V 7.5 h -7.5 z"
   id="path12"
   inkscape:connector-curvature="0"
   style="fill:#35b454" />
	</g>
	<g
   id="g18">
		<path
   class="st0"
   d="M 77.1,7.5 H 62.7 v 14.3 c 0,2 1.6,3.6 3.6,3.6 h 14.1 v -4.5 h -9.2 c -0.6,0 -1,-0.5 -1,-1 V 12 h 2 c 0.6,0 1,0.5 1,1 v 5.7 h 3.9 c 2,0 3.6,-1.6 3.6,-3.6 v -4 c 0,-2 -1.6,-3.6 -3.6,-3.6 z"
   id="path16"
   inkscape:connector-curvature="0"
   style="fill:#35b454" />
	</g>
	<g
   id="g22">
		<path
   class="st0"
   d="M 98,7.5 H 83.7 v 17.9 h 7.5 V 12 h 2 c 0.6,0 1,0.5 1,1 v 12.4 h 7.5 V 11.1 C 101.6,9.1 100,7.5 98,7.5 Z"
   id="path20"
   inkscape:connector-curvature="0"
   style="fill:#35b454" />
	</g>
</g>
</svg>