<?xml version="1.0" encoding="UTF-8" standalone="no"?>
<svg
   xmlns:dc="http://purl.org/dc/elements/1.1/"
   xmlns:cc="http://creativecommons.org/ns#"
   xmlns:rdf="http://www.w3.org/1999/02/22-rdf-syntax-ns#"
   xmlns:svg="http://www.w3.org/2000/svg"
   xmlns="http://www.w3.org/2000/svg"
   xmlns:sodipodi="http://sodipodi.sourceforge.net/DTD/sodipodi-0.dtd"
   xmlns:inkscape="http://www.inkscape.org/namespaces/inkscape"
   height="60"
   viewBox="0 0 56780.4 4800"
   version="1.1"
   width="120"
   id="svg26"
   sodipodi:docname="crossbar-io-ar21.svg"
   inkscape:version="0.92.4 (5da689c313, 2019-01-14)">
  <metadata
     id="metadata32">
    <rdf:RDF>
      <cc:Work
         rdf:about="">
        <dc:format>image/svg+xml</dc:format>
        <dc:type
           rdf:resource="http://purl.org/dc/dcmitype/StillImage" />
        <dc:title></dc:title>
      </cc:Work>
    </rdf:RDF>
  </metadata>
  <defs
     id="defs30" />
  <sodipodi:namedview
     pagecolor="#ffffff"
     bordercolor="#666666"
     borderopacity="1"
     objecttolerance="10"
     gridtolerance="10"
     guidetolerance="10"
     inkscape:pageopacity="0"
     inkscape:pageshadow="2"
     inkscape:window-width="1920"
     inkscape:window-height="1001"
     id="namedview28"
     showgrid="false"
     units="px"
     inkscape:zoom="5.7315552"
     inkscape:cx="90.02792"
     inkscape:cy="40"
     inkscape:window-x="-9"
     inkscape:window-y="-9"
     inkscape:window-maximized="1"
     inkscape:current-layer="svg26" />
  <g
     id="g909"
     transform="translate(-1171.0007)">
    <g
       transform="translate(8503.1912,-21241.43)"
       id="g882">
      <path
         d="m 13754,26046.03 c -529.47,105.9 -1034.9,158.9 -1516.3,158.9 -192.6,0 -374.33,-8 -545.18,-25.4 -170.859,-16.9 -360.999,-53 -570.409,-108.3 -209.42,-55.3 -387.55,-129.9 -534.38,-223.8 -146.84,-93.8 -270.79,-226.2 -371.87,-397.2 -101.07,-170.9 -151.61,-371.9 -151.61,-603 v -2058 c 0,-943.4 724.48,-1415.2 2173.499,-1415.2 356.25,0 852.07,53 1487.5,158.9 v 844.9 c -572.8,-134.9 -1063.8,-202.3 -1472.9,-202.3 -163.66,0 -297.24,5 -400.73,14.4 -103.5,10 -211.85,33.7 -325.039,72.2 -113.2,38.5 -197.45,99.8 -252.76,184.1 -55.314,84.2 -82.969,193.8 -82.968,328.7 v 1993 c -10e-4,423.5 387.47,635.3 1162.399,635.3 341.86,0 808.81,-69.8 1400.9,-209.4 z"
         id="path4"
         style="fill:#333333;stroke-width:100"
         inkscape:connector-curvature="0" />
      <path
         d="m 16727,23439.33 h -361.18 c -288.83,0 -506.66,44.5 -653.49,133.5 -146.84,89.1 -220.26,241.9 -220.26,458.6 v 2101.2 h -1054.2 v -3495 h 1003.8 v 614 c 4.85,-173.4 104.75,-331.1 299.7,-473 194.95,-142 398.34,-213 610.19,-213 h 375.5 z"
         id="path6"
         style="fill:#333333;stroke-width:100"
         inkscape:connector-curvature="0" />
      <path
         d="m 20753,23901.43 v 1032.6 c 0,226.2 -36.107,420 -108.31,581.2 -72.21,161.2 -161.27,286.4 -267.19,375.4 -105.92,89 -244.31,157.6 -415.17,205.8 -170.86,48.2 -327.28,78.3 -469.27,90.4 -141.99,12 -314.1,18 -516.31,18 -202.22,0 -374.33,-6 -516.32,-18 -141.99,-12.1 -298.45,-42.2 -469.38,-90.4 -170.93,-48.2 -309.36,-116.8 -415.28,-205.8 -105.92,-89 -194.99,-214.2 -267.19,-375.4 -72.206,-161.2 -108.31,-355 -108.31,-581.2 v -1032.6 c 0,-240.8 37.315,-446.6 111.94,-617.5 74.63,-170.8 166.12,-302 274.46,-393.4 108.34,-91.5 249.16,-162.5 422.44,-213.1 173.28,-50.6 328.53,-81.9 465.74,-93.9 137.21,-12 304.5,-17.9 501.88,-17.9 197.37,0 364.66,6 501.88,17.9 137.21,12 292.46,43.3 465.74,93.9 173.28,50.6 314.05,121.6 422.33,213.1 108.27,91.4 199.72,222.6 274.35,393.4 74.626,170.9 111.94,376.7 111.94,617.5 z m -1054.2,1155.4 v -1321.5 c 0,-187.7 -48.153,-321.3 -144.45,-400.7 -96.302,-79.4 -288.86,-119.1 -577.69,-119.1 -288.83,0 -481.35,39.7 -577.58,119.1 -96.228,79.4 -144.34,213 -144.34,400.7 v 1321.5 c 0,182.9 46.899,310.5 140.7,382.7 93.8,72.2 287.54,108.3 581.21,108.3 293.67,0 487.44,-36.1 581.32,-108.3 93.872,-72.2 140.81,-199.8 140.81,-382.7 z"
         id="path8"
         style="fill:#333333;stroke-width:100"
         inkscape:connector-curvature="0" />
      <path
         d="m 24585,24767.93 v 440.5 c 0,173.2 -32.471,322.4 -97.401,447.6 -64.938,125.1 -146.77,222.7 -245.49,292.5 -98.726,69.9 -227.53,124 -386.41,162.5 -158.89,38.5 -311.71,63.8 -458.47,75.8 -146.76,12.1 -318.87,18.1 -516.32,18.1 -380.35,0 -840.1,-36.1 -1379.3,-108.4 v -700.3 c 669.17,101 1133.8,151.6 1393.8,151.6 206.99,0 367.05,-20.5 480.18,-61.4 113.12,-40.9 169.68,-121.5 169.68,-241.9 v -216.8 c 0,-110.6 -31.294,-193.6 -93.876,-249 -62.585,-55.4 -197.38,-83.1 -404.37,-83.1 h -455.05 c -365.81,0 -651,-73.4 -855.57,-220.2 -204.57,-146.9 -306.86,-362.3 -306.86,-646.3 v -425.9 c 0,-317.8 151.65,-536.8 454.94,-657.2 303.29,-120.3 731.72,-180.4 1285.3,-180.4 231.09,0 645.08,21.6 1242,65 v 671.4 c -751.01,-57.7 -1174.6,-86.6 -1270.8,-86.6 -293.67,0 -479.04,20.5 -556.09,61.4 -77.056,40.9 -115.58,119.1 -115.58,234.6 v 187.7 c 0,57.8 30.115,110.7 90.349,158.9 60.232,48.2 152.93,72.3 278.1,72.3 h 462.1 c 856.78,0 1285.2,279.2 1285.2,837.6 z"
         id="path10"
         style="fill:#333333;stroke-width:100"
         inkscape:connector-curvature="0" />
      <path
         d="m 28379,24767.93 v 440.5 c 0,173.2 -32.47,322.4 -97.401,447.6 -64.938,125.1 -146.77,222.7 -245.49,292.5 -98.727,69.9 -227.53,124 -386.41,162.5 -158.89,38.5 -311.71,63.8 -458.47,75.8 -146.76,12.1 -318.87,18.1 -516.32,18.1 -380.35,0 -840.1,-36.1 -1379.3,-108.4 v -700.3 c 669.17,101 1133.8,151.6 1393.8,151.6 206.99,0 367.05,-20.5 480.18,-61.4 113.12,-40.9 169.68,-121.5 169.68,-241.9 v -216.8 c 0,-110.6 -31.294,-193.6 -93.875,-249 -62.586,-55.4 -197.38,-83.1 -404.37,-83.1 h -455.05 c -365.81,0 -651,-73.4 -855.57,-220.2 -204.57,-146.9 -306.86,-362.3 -306.86,-646.3 v -425.9 c 0,-317.8 151.65,-536.8 454.94,-657.2 303.29,-120.3 731.72,-180.4 1285.3,-180.4 231.09,0 645.08,21.6 1242,65 v 671.4 c -751,-57.7 -1174.6,-86.6 -1270.8,-86.6 -293.68,0 -479.04,20.5 -556.09,61.4 -77.055,40.9 -115.58,119.1 -115.58,234.6 v 187.7 c 0,57.8 30.115,110.7 90.35,158.9 60.231,48.2 152.93,72.3 278.1,72.3 h 462.1 c 856.78,0 1285.2,279.2 1285.2,837.6 z"
         id="path12"
         style="fill:#333333;stroke-width:100"
         inkscape:connector-curvature="0" />
      <path
         d="m 32744,23742.53 v 1148.1 c 0,476.6 -143.2,814.8 -429.6,1014.6 -286.4,199.8 -747.37,299.7 -1382.9,299.7 -669.03,0 -1131.1,-104.7 -1386.3,-314.1 -255.18,-209.5 -382.77,-542.8 -382.77,-1000.1 v -3812.8 h 1054.2 v 1906.4 c 62.582,-158.8 179.34,-268.3 350.27,-328.5 170.93,-60.1 432.1,-90.2 783.51,-90.2 298.37,0 541.43,24 729.19,72.2 187.75,48.1 329.77,126.3 426.08,234.6 96.296,108.4 160.09,227.5 191.39,357.5 31.288,129.9 46.934,300.8 46.938,512.7 z m -1054.2,1285.2 v -1292.4 c 0,-226.2 -42.13,-369.4 -126.38,-429.6 -84.256,-60.2 -292.46,-90.2 -624.62,-90.2 -298.52,0 -493.51,38.5 -584.96,115.4 -91.453,77 -137.18,211.8 -137.18,404.4 v 1292.4 c 0,207.1 44.549,345.6 133.65,415.4 89.099,69.8 287.68,104.7 595.76,104.7 308.07,0 509.04,-34.9 602.92,-104.7 93.872,-69.8 140.81,-208.2 140.81,-415.4 z"
         id="path14"
         style="fill:#333333;stroke-width:100"
         inkscape:connector-curvature="0" />
      <path
         d="m 36711,26132.63 h -1032.6 v -317.8 c -76.983,139.6 -187.68,239.5 -332.09,299.7 -144.41,60.3 -409.22,90.4 -794.42,90.4 -471.73,0 -784.61,-72.2 -938.64,-216.6 -154.04,-144.5 -231.05,-445.3 -231.05,-902.6 0,-414 79.441,-701.7 238.32,-863 158.88,-161.3 442.9,-242 852.04,-242 h 1184.2 v -238.2 c 0,-211.8 -49.364,-352.6 -148.08,-422.4 -98.726,-69.8 -306.9,-104.7 -624.51,-104.7 -298.52,0 -707.74,28.9 -1227.7,86.6 v -664.4 c 399.59,-48 844.88,-72 1335.9,-72 645.08,0 1092.8,78.2 1343.1,234.7 250.33,156.4 375.5,465.7 375.5,927.7 z m -1054.2,-895.3 v -678.8 h -722.14 c -231.09,0 -375.5,26.5 -433.24,79.4 -57.737,52.9 -86.605,194.9 -86.604,425.9 -10e-4,226.3 30.079,363.5 90.24,411.7 60.158,48.2 212.98,72.3 458.47,72.3 120.32,0 209.38,-1 267.19,-4 57.807,-2 120.39,-8 187.75,-18 67.356,-10 114.29,-25.3 140.81,-47 26.515,-21.7 49.396,-51.7 68.644,-90.2 19.242,-38.5 28.865,-89 28.867,-151.6 z"
         id="path16"
         style="fill:#333333;stroke-width:100"
         inkscape:connector-curvature="0" />
      <path
         d="m 39927,23439.33 h -361.18 c -288.83,0 -506.66,44.5 -653.49,133.5 -146.84,89.1 -220.26,241.9 -220.26,458.6 v 2101.2 h -1054.2 v -3495 h 1003.8 v 614 c 4.85,-173.4 104.74,-331.1 299.7,-473 194.95,-142 398.34,-213 610.19,-213 h 375.5 z"
         id="path18"
         style="fill:#333333;stroke-width:100"
         inkscape:connector-curvature="0" />
      <path
         d="m 41382,26132.63 h -837.61 v -779.9 H 41382 Z"
         id="path20"
         style="fill:#333333;stroke-width:100"
         inkscape:connector-curvature="0" />
      <path
         d="m 43100,22052.83 h -649.86 v -678.7 H 43100 Z m 0,4079.8 h -649.86 v -3495 H 43100 Z"
         id="path22"
         style="fill:#333333;stroke-width:100"
         inkscape:connector-curvature="0" />
      <path
         d="m 47317,23814.63 v 1213.1 c 0,216.7 -26.484,399.7 -79.441,548.9 -52.965,149.3 -120.36,264.8 -202.18,346.7 -81.832,81.8 -198.59,144.4 -350.27,187.7 -151.69,43.3 -296.14,69.8 -433.35,79.5 -137.22,10 -318.94,14.4 -545.18,14.4 -288.83,0 -513.86,-10 -675.09,-28.9 -161.24,-19.2 -322.5,-66.2 -483.81,-140.8 -161.31,-74.6 -276.85,-193.8 -346.63,-357.4 -69.782,-163.7 -104.67,-380.4 -104.67,-650.1 v -1213.1 c 0,-230.9 27.692,-425.9 83.077,-584.7 55.385,-158.9 122.78,-281.7 202.18,-368.4 79.404,-86.7 196.12,-152.8 350.16,-198.5 154.03,-45.7 297.23,-73.4 429.6,-83 132.36,-10 314.09,-14.4 545.18,-14.4 231.09,0 412.82,5 545.18,14.4 132.36,10 275.6,37.3 429.71,83 154.1,45.7 270.86,111.8 350.27,198.5 79.401,86.7 146.8,209.5 202.18,368.4 55.381,158.8 83.073,353.8 83.077,584.7 z m -664.4,1307 v -1415.2 c 0,-322.6 -65.01,-522.4 -195.02,-599.4 -130.02,-77 -380.35,-115.5 -751,-115.5 -370.66,0 -620.95,38.5 -750.89,115.5 -129.94,77 -194.91,276.8 -194.91,599.4 v 1415.2 c -10e-4,154.1 16.82,276.9 50.463,368.3 33.641,91.5 96.225,157.7 187.75,198.6 91.523,40.9 185.4,66.2 281.63,75.8 96.224,10 238.21,14.4 425.96,14.4 187.75,0 329.77,-5 426.08,-14.4 96.296,-10 190.17,-34.9 281.63,-75.8 91.448,-40.9 154.03,-107.1 187.75,-198.6 33.712,-91.4 50.57,-214.2 50.573,-368.3 z"
         id="path24"
         style="fill:#333333;stroke-width:100"
         inkscape:connector-curvature="0" />
    </g>
    <g
       transform="matrix(1.6501226,0,0,1.6501226,3302.2102,-37198.041)"
       id="g889">
      <g
         id="g849"
         transform="matrix(99.999999,0,0,99.999999,6.6467609e-4,19997.03)">
        <path
           id="path2"
           d="M 0,0 V 16.938 L 22.344,16.812 37.188,31.656 31.406,37.438 18.844,24.906 0,24.938 v 30.25 H 19.5 L 57.656,16.844 H 80 V 0 Z M 61.156,24.938 22.844,63.188 H 0 V 80 H 80 V 63.125 H 57.094 L 42.75,48.781 48.531,43 60.625,55.094 H 80 V 24.938 Z"
           transform="translate(-6.7139e-6)"
           inkscape:connector-curvature="0"
           style="fill:#ffff00" />
        <path
           inkscape:connector-curvature="0"
           id="path839"
           d="m -6.7139e-6,24.938 v -8 L 22.343993,16.812 l 14.844,14.844 -5.782,5.782 -12.562,-12.532 z"
           style="fill:#333333;fill-opacity:1;stroke:none;stroke-width:1px;stroke-linecap:butt;stroke-linejoin:miter;stroke-opacity:1" />
        <path
           inkscape:connector-curvature="0"
           id="path841"
           d="m 57.655993,16.844 h 22.344 v 8.094 h -18.844 l -38.312,38.25 H -6.7139e-6 v -8 H 19.499993 l 38.156,-38.344"
           style="fill:#333333;fill-opacity:1;stroke:none;stroke-width:1px;stroke-linecap:butt;stroke-linejoin:miter;stroke-opacity:1" />
        <path
           inkscape:connector-curvature="0"
           id="path843"
           d="m 48.530993,43 -5.781,5.781 14.344,14.344 h 22.906 v -8.031 h -19.375 L 48.530993,43"
           style="fill:#333333;fill-opacity:1;stroke:none;stroke-width:1px;stroke-linecap:butt;stroke-linejoin:miter;stroke-opacity:1" />
      </g>
    </g>
  </g>
</svg>
