<?xml version="1.0" encoding="UTF-8" standalone="no"?>
<!-- Generator: Adobe Illustrator 23.0.3, SVG Export Plug-In . SVG Version: 6.00 Build 0)  -->

<svg
   xmlns:dc="http://purl.org/dc/elements/1.1/"
   xmlns:cc="http://creativecommons.org/ns#"
   xmlns:rdf="http://www.w3.org/1999/02/22-rdf-syntax-ns#"
   xmlns:svg="http://www.w3.org/2000/svg"
   xmlns="http://www.w3.org/2000/svg"
   xmlns:sodipodi="http://sodipodi.sourceforge.net/DTD/sodipodi-0.dtd"
   xmlns:inkscape="http://www.inkscape.org/namespaces/inkscape"
   version="1.1"
   id="svg2"
   x="0px"
   y="0px"
   viewBox="0 0 64 64"
   style="enable-background:new 0 0 64 64;"
   xml:space="preserve"
   sodipodi:docname="crossbario-icon.svg"
   inkscape:version="0.92.2 5c3e80d, 2017-08-06"><metadata
     id="metadata20"><rdf:RDF><cc:Work
         rdf:about=""><dc:format>image/svg+xml</dc:format><dc:type
           rdf:resource="http://purl.org/dc/dcmitype/StillImage" /></cc:Work></rdf:RDF></metadata><defs
     id="defs18" /><sodipodi:namedview
     pagecolor="#ffffff"
     bordercolor="#666666"
     borderopacity="1"
     objecttolerance="10"
     gridtolerance="10"
     guidetolerance="10"
     inkscape:pageopacity="0"
     inkscape:pageshadow="2"
     inkscape:window-width="654"
     inkscape:window-height="480"
     id="namedview16"
     showgrid="false"
     inkscape:zoom="3.6875"
     inkscape:cx="32"
     inkscape:cy="32"
     inkscape:window-x="0"
     inkscape:window-y="0"
     inkscape:window-maximized="0"
     inkscape:current-layer="svg2" /><style
     type="text/css"
     id="style2">
	.st0{fill:#FFFF00;}
	.st1{fill:#333333;}
</style><g
     id="g13"><g
       id="Clip-11" /><path
       class="st0"
       d="M0,0v13.55l17.88-0.1l11.88,11.88l-4.63,4.63L15.08,19.92L0,19.95v24.2h15.6l30.52-30.68H64V0C64,0,0,0,0,0z    M48.92,19.95l-30.65,30.6H0V64h64V50.5H45.68L34.2,39.02l4.62-4.62l9.68,9.68H64V19.95C64,19.95,48.92,19.95,48.92,19.95z"
       id="path5" /><polygon
       class="st1"
       points="0,19.95 15.08,19.92 25.12,29.95 29.75,25.32 17.88,13.45 0,13.55  "
       id="polygon7" /><polygon
       class="st1"
       points="0,44.15 15.6,44.15 46.12,13.48 64,13.48 64,19.95 48.92,19.95 18.28,50.55 0,50.55  "
       id="polygon9" /><polygon
       class="st1"
       points="34.2,39.02 38.82,34.4 48.5,44.08 64,44.08 64,50.5 45.68,50.5  "
       id="polygon11" /></g></svg>