<svg xmlns="http://www.w3.org/2000/svg" width="120" height="60"><g transform="matrix(.918418 0 0 .918418 3.800969 2.447472)"><g transform="matrix(2.051626 0 0 2.051626 -18.029941 -31.126435)"><path d="M13.513 35.76a2.433 2.433 0 0 1-2.059-3.723l4.377-6.99a2.432 2.432 0 1 1 4.123 2.582l-4.378 6.99a2.43 2.43 0 0 1-2.063 1.141z" fill="#ff3d57"/><path d="M21.056 35.76a2.433 2.433 0 0 1-2.063-3.723l4.38-6.99a2.432 2.432 0 1 1 4.117 2.582l-4.372 6.99a2.43 2.43 0 0 1-2.063 1.141z" fill="#ffcb00"/><ellipse cx="28.597" cy="33.384" rx="2.436" ry="2.375" fill="#00d647"/></g><path d="M117.673 25.675h-2.896l-2.03 5.2-2.016-5.2h-2.902l3.523 8.2-2.19 5.422h2.877zm-17.394 4.56c0 1.31 1.155 2.173 2.3 2.173 1.116 0 2.21-.802 2.21-2.173s-1.095-2.173-2.21-2.173c-1.136 0-2.3.862-2.3 2.173zm4.5 4.58v-1.037c-.587.88-1.957 1.214-2.66 1.214a4.66 4.66 0 0 1-4.658-4.756 4.66 4.66 0 0 1 4.658-4.756c.587 0 1.957.195 2.66 1.214v-1.015h2.7v9.138zm-8.088 0h-2.7V33.68c-.45.842-1.546 1.33-2.682 1.33-2.35 0-4.424-1.86-4.424-4.738 0-2.933 2.075-4.795 4.424-4.795 1.135 0 2.232.47 2.682 1.31v-6.085h2.7zm-2.76-4.598c0-1.37-.998-2.173-2.114-2.173-1.155 0-2.114.86-2.114 2.173 0 1.354.96 2.21 2.114 2.21 1.135 0 2.114-.9 2.114-2.21zm-13.724-.236c0-1.4.724-1.86 1.683-1.86.92 0 1.585.607 1.585 1.82v4.874h2.72v-5.46c0-2.603-1.292-3.875-3.347-3.875-1.076 0-2.153.607-2.642 1.526v-1.33h-2.72v9.138h2.72zm-8.245 4.99c-2.584 0-4.738-1.878-4.738-4.756s2.153-4.738 4.738-4.738 4.756 1.86 4.756 4.738-2.173 4.756-4.756 4.756zm0-2.66c1.135 0 2.075-.822 2.075-2.094 0-1.233-.94-2.075-2.075-2.075a2.023 2.023 0 0 0-2.056 2.075c0 1.27.94 2.094 2.056 2.094zm-9.62-4.19c.802 0 1.507.626 1.507 1.82v4.874h2.7v-5.2c0-2.76-1.354-4.15-3.523-4.15-.645 0-1.86.195-2.74 1.625-.51-1.057-1.487-1.605-2.933-1.605a2.615 2.615 0 0 0-2.387 1.507v-1.327H52.25v9.138h2.72V29.98c0-1.4.764-1.86 1.585-1.86.783 0 1.487.607 1.507 1.76v4.932h2.72V29.98c.001-1.33.705-1.86 1.56-1.86z" fill="#333" fill-rule="evenodd"/></g></svg>