<svg xmlns="http://www.w3.org/2000/svg" width="64" height="64" viewBox="0 0 64 64.005"><path d="M49.922 54.154c-7.96 2.43-15.473 1.304-19.566.225-.112 1.664-.292 2.36-.562 2.63-.315.36-2.924 1.844-4.363-.27-.63-1.012-.945-2.834-1.124-4.498-9.22-4.183-13.493-10.345-13.628-10.57-.225-.225-2.316-2.406-.225-5.105 1.957-2.43 8.433-4.88 14.236-5.847.225-4.948.765-8.77 1.462-10.457.832-2.024 1.9-.225 2.834 1.124.765 1.012 1.237 5.352 1.282 8.816 3.778-.18 6.072.1 10.278.9 5.532.945 9.22 3.778 8.928 6.972-.27 3.148-3.148 4.453-4.273 4.543s-2.924-.742-2.924-.742c-1.26-.585-.112-1.124 1.35-1.754 1.62-.787 1.26-1.574 1.26-1.574-.585-1.8-7.76-3-14.888-3 0 3.936.157 10.457.27 14.258 4.993.945 8.726.742 8.726.742s18.216-.517 18.733-12.144C58.3 26.763 39.512 15.61 25.68 12.1c-13.808-3.62-21.635-1.057-22.3-.72-.742.36-.067.495-.067.495s.742.112 2.1.562.27 1.124.27 1.124c-2.36.8-4.993.337-5.5-.742-.517-1.057.337-2.024 1.35-3.44.945-1.462 2.024-1.417 2.024-1.417 17.08-5.963 37.95 4.72 37.95 4.72 19.52 9.85 22.85 21.432 22.5 25.93-.315 4.43-2.024 11.92-14.056 15.563M12.365 38.074c-1.934.9-.585 2.34-.585 2.34 3.643 3.9 8.096 6.342 12.37 7.87.495-6.747.45-9.153.45-12.55-6.612.45-10.435 1.53-12.234 2.34"/></svg>