<?xml version="1.0" encoding="utf-8"?>
<!-- Generator: Adobe Illustrator 24.0.0, SVG Export Plug-In . SVG Version: 6.00 Build 0)  -->
<svg version="1.1" id="Layer_1" xmlns="http://www.w3.org/2000/svg" xmlns:xlink="http://www.w3.org/1999/xlink" x="0px" y="0px"
	 viewBox="0 0 120 60" width="120" height="60" style="enable-background:new 0 0 120 60;" xml:space="preserve">
<style type="text/css">
	.st0{fill:#2C3A44;}
	.st1{fill:#D9272D;}
</style>
<g>
	<g id="Axway-Logo_2_" transform="translate(380 13)">
		<path id="Fill-1_1_" class="st0" d="M-363.6,21.1l2.9-0.5c0.7-0.1,0.9-0.5,0.9-0.9c0-0.9-0.6-1.6-2.1-1.6s-2.2,0.9-2.3,1.9
			l-2.9-0.6c0.2-1.9,1.9-4,5.2-4c3.8,0,5.2,2.2,5.2,4.6v6c0,0.6,0.1,1.5,0.1,1.9h-2.9c-0.1-0.4-0.1-1-0.1-1.5
			c-0.6,1-1.8,1.8-3.5,1.8c-2.6,0-4.1-1.7-4.1-3.6C-367.3,22.6-365.7,21.4-363.6,21.1 M-359.7,23.2v-0.5l-2.7,0.4
			c-0.9,0.1-1.5,0.6-1.5,1.6c0,0.7,0.5,1.5,1.6,1.5C-361.1,26-359.7,25.3-359.7,23.2"/>
		<path id="Fill-3_1_" class="st0" d="M-351.8,22l-4.3-6.1h3.9c0.4,0.6,1.9,2.9,2.4,3.6l2.4-3.6h3.6l-4.3,6l4.4,6.2h-3.8l-2.6-3.8
			c-0.5,0.6-2.1,3-2.4,3.8h-3.6C-356,28.1-351.8,22-351.8,22z"/>
		<path id="Fill-5_1_" class="st0" d="M-332.5,15.9l2.7,7.8l2.2-7.8h3.3l-3.8,12.2h-3.3l-2.8-8.3l-2.8,8.3h-3.3l-3.9-12.2h3.4
			l2.3,7.8l2.6-7.8L-332.5,15.9z"/>
		<path id="Fill-7_1_" class="st0" d="M-321,21.1l2.9-0.5c0.7-0.1,0.9-0.5,0.9-0.9c0-0.9-0.6-1.6-2.1-1.6s-2.2,0.9-2.3,1.9l-2.9-0.6
			c0.2-1.9,1.9-4,5.2-4c3.8,0,5.2,2.2,5.2,4.6v6c0,0.6,0.1,1.5,0.1,1.9h-3c-0.1-0.4-0.1-1-0.1-1.5c-0.6,1-1.8,1.8-3.5,1.8
			c-2.6,0-4.1-1.7-4.1-3.6C-324.7,22.6-323.1,21.4-321,21.1 M-317.2,23.2v-0.5l-2.7,0.4c-0.9,0.1-1.5,0.6-1.5,1.6
			c0,0.7,0.5,1.5,1.6,1.5C-318.5,26-317.2,25.3-317.2,23.2"/>
		<path id="Fill-9_1_" class="st0" d="M-311.9,32.8l2.8-6.3l-5.1-10.6h3.6l3.3,7.2l2.9-7.2h3.5l-7.7,16.9H-311.9z"/>
	</g>
	<g id="Axway-Logo_3_" transform="translate(380 13)">
		<g id="Group-13_3_" transform="translate(56.41 .062)">
			<path id="Fill-11_3_" class="st1" d="M-325.1,11.4V7.3l-6.2-3v6.2l-23.7-11.3v4.1l27.1,12.9v-6.1L-325.1,11.4z"/>
		</g>
		<path id="Fill-14_3_" class="st1" d="M-292.6,14.4v4.1l4.4,2.1l-7.1,7.4h4.6l8.3-8.8L-292.6,14.4z"/>
		<path id="Fill-16_3_" class="st1" d="M-271.5,18.3l-23.8-11.4V11l19,9.1L-271.5,18.3z"/>
	</g>
</g>
</svg>
