<svg xmlns="http://www.w3.org/2000/svg" viewBox="-64.9 417 256 61.369" width="256" height="62"><path d="M-33.33 422.558h-13.125v40.558h-5.32v-40.558H-64.9V417.7h31.453v4.848h.118zm25.188 8.158l-14.9 37.602c-2.72 6.74-6.385 10.05-11.233 10.05-1.3 0-2.483-.118-3.43-.355V473.4c1.064.355 2.128.6 3.074.6 2.6 0 4.612-1.537 5.912-4.73l2.6-6.15-12.652-32.4h5.794l8.75 24.95c.118.355.355 1.182.7 2.483h.236c.118-.473.355-1.3.6-2.365l9.223-25.068h5.32zm8.75 27.788H.5v19.63h-5.203v-47.298H.5v5.676h.118c2.6-4.257 6.267-6.503 11.233-6.503 4.14 0 7.45 1.42 9.814 4.375s3.547 6.74 3.547 11.706c0 5.44-1.3 9.814-3.902 13.007s-6.267 4.848-10.88 4.848c-4.257 0-7.45-1.774-9.814-5.44zM.5 445.38v4.493c0 2.72.828 4.966 2.6 6.858s3.902 2.838 6.622 2.838c3.193 0 5.558-1.182 7.45-3.666s2.72-5.794 2.72-10.05c0-3.666-.828-6.385-2.483-8.514-1.655-2-3.902-3.074-6.74-3.074-3.074 0-5.44 1.064-7.33 3.193S.5 442.186.5 445.38zm56.758 2.838h-22.94c.118 3.666 1.064 6.385 2.956 8.395s4.375 2.956 7.686 2.956c3.666 0 6.976-1.182 10.05-3.666v4.848c-2.838 2.128-6.622 3.074-11.352 3.074-4.612 0-8.16-1.42-10.76-4.375s-3.902-7.095-3.902-12.416c0-5.085 1.42-9.105 4.257-12.297s6.385-4.73 10.642-4.73 7.568 1.42 9.814 4.14c2.365 2.72 3.43 6.503 3.43 11.47v2.6h.118zm-5.32-4.375c0-2.956-.7-5.32-2.128-6.976s-3.43-2.483-5.912-2.483-4.493.828-6.267 2.6c-1.655 1.774-2.72 4.02-3.193 6.858h17.5zm8.16 17.737v-3.547c3.3 2.128 6.503 3.074 9.933 3.074 3.547 0 6.267-.7 8.04-2.247 1.892-1.42 2.72-3.547 2.72-6.15 0-2.365-.6-4.14-1.892-5.558-1.182-1.42-3.902-3.3-8.04-5.676-4.612-2.72-7.568-4.966-8.75-6.74a11.2 11.2 0 0 1-1.892-6.267c0-3.193 1.3-5.912 3.784-8.16s5.79-3.31 9.93-3.31c2.72 0 5.44.473 8.16 1.42v3.3a21.13 21.13 0 0 0-8.514-1.774c-3.074 0-5.558.828-7.33 2.365s-2.72 3.547-2.72 5.912.6 4.14 1.892 5.558c1.182 1.42 3.902 3.193 8.04 5.558 4.257 2.365 7.095 4.493 8.514 6.385s2.128 4.02 2.128 6.503c0 3.43-1.182 6.267-3.666 8.514-2.365 2.247-5.794 3.3-10.287 3.3-1.537 0-3.3-.236-5.44-.7-1.892-.6-3.43-1.182-4.612-1.774zm51.436.118c-2.365 1.42-5.32 2.247-8.632 2.247-4.375 0-7.922-1.537-10.642-4.493-2.72-3.074-4.02-6.976-4.02-11.943 0-5.203 1.537-9.34 4.612-12.652s6.976-4.966 11.706-4.966c2.483 0 4.848.473 7.213 1.537v3.3a14.47 14.47 0 0 0-7.686-2.128c-3.784 0-6.858 1.42-9.223 4.14S91.3 443.014 91.3 447.4c0 4.257 1.064 7.568 3.193 10.17s4.966 3.784 8.514 3.784c3.193 0 6.03-.828 8.514-2.6v2.956zm19.63-27.906c-.946-.7-2.128-1.064-3.43-1.064-2.6 0-4.73 1.3-6.385 3.902-1.774 2.6-2.6 6.385-2.6 11.233v15.254H115.9v-32.4h2.838v7.213h.118c.7-2.483 1.892-4.375 3.547-5.794s3.43-2 5.557-2c1.182 0 2.247.236 3.193.6v3.074zm4.966-11.233c-.6 0-1.182-.236-1.655-.7s-.7-1.064-.7-1.774.236-1.3.7-1.655c.473-.473 1.064-.6 1.655-.6.7 0 1.182.236 1.774.6.473.473.7.946.7 1.655s-.236 1.3-.7 1.774c-.6.473-1.064.7-1.774.7zm-1.42 40.676v-32.4h2.956v32.4H134.7zm13.125-5.794h-.118v20.693h-2.956v-47.298h2.956v6.74h.118c1.182-2.365 2.838-4.257 4.966-5.558s4.493-1.892 7.095-1.892c4.14 0 7.33 1.42 9.696 4.257s3.43 6.74 3.43 11.588c0 5.44-1.3 9.814-4.02 13.125-2.6 3.3-6.15 4.966-10.524 4.966-4.73-.118-8.277-2.247-10.642-6.622zm-.118-12.06v4.14c0 3.3 1.064 6.03 3.074 8.395s4.73 3.547 8.04 3.547 6.03-1.42 8.04-4.257 3.074-6.622 3.074-11.233c0-4.02-.946-7.33-2.838-9.696s-4.493-3.547-7.568-3.547c-3.784 0-6.74 1.3-8.75 3.784s-3.074 5.44-3.074 8.868zm43.393 17.38c-1.537.7-2.956 1.064-4.257 1.064-4.848 0-7.213-2.838-7.213-8.632v-21.757h-5.794v-2.72h5.794v-8.395c.473-.118.946-.355 1.42-.473s.946-.355 1.42-.473v9.46h8.514v2.72h-8.514v21.402c0 2.247.355 3.902 1.064 4.848s1.892 1.537 3.547 1.537c1.182 0 2.483-.355 3.902-1.182v2.6h.118z"/></svg>