<?xml version="1.0" encoding="UTF-8" standalone="no"?>
<svg
   xmlns:dc="http://purl.org/dc/elements/1.1/"
   xmlns:cc="http://creativecommons.org/ns#"
   xmlns:rdf="http://www.w3.org/1999/02/22-rdf-syntax-ns#"
   xmlns:svg="http://www.w3.org/2000/svg"
   xmlns="http://www.w3.org/2000/svg"
   xmlns:sodipodi="http://sodipodi.sourceforge.net/DTD/sodipodi-0.dtd"
   xmlns:inkscape="http://www.inkscape.org/namespaces/inkscape"
   preserveAspectRatio="xMidYMid"
   width="256"
   height="197.41096"
   viewBox="0 0 256 197.41096"
   id="svg3968"
   version="1.1"
   inkscape:version="0.91 r13725"
   sodipodi:docname="r-project-official.svg">
  <metadata
     id="metadata3988">
    <rdf:RDF>
      <cc:Work
         rdf:about="">
        <dc:format>image/svg+xml</dc:format>
        <dc:type
           rdf:resource="http://purl.org/dc/dcmitype/StillImage" />
        <dc:title></dc:title>
      </cc:Work>
    </rdf:RDF>
  </metadata>
  <sodipodi:namedview
     pagecolor="#ffffff"
     bordercolor="#666666"
     borderopacity="1"
     objecttolerance="10"
     gridtolerance="10"
     guidetolerance="10"
     inkscape:pageopacity="0"
     inkscape:pageshadow="2"
     inkscape:window-width="1332"
     inkscape:window-height="782"
     id="namedview3986"
     showgrid="false"
     fit-margin-top="0"
     fit-margin-left="0"
     fit-margin-right="0"
     fit-margin-bottom="0"
     inkscape:zoom="1.0692011"
     inkscape:cx="361.094"
     inkscape:cy="278.56199"
     inkscape:window-x="65"
     inkscape:window-y="24"
     inkscape:window-maximized="0"
     inkscape:current-layer="svg3968" />
  <defs
     id="defs3970">
    <linearGradient
       id="gradientFill-1"
       x1="0.7414425"
       x2="590.86261"
       y1="3.6658268"
       y2="593.78699"
       gradientUnits="userSpaceOnUse"
       spreadMethod="pad"
       gradientTransform="matrix(0.43380922,0,0,0.29053428,-0.32164461,-1.06505)">
      <stop
         offset="0"
         stop-color="rgb(203,206,208)"
         stop-opacity="1"
         id="stop3973" />
      <stop
         offset="1"
         stop-color="rgb(132,131,139)"
         stop-opacity="1"
         id="stop3975" />
    </linearGradient>
    <linearGradient
       id="gradientFill-2"
       x1="301.02603"
       x2="703.0675"
       y1="151.4006"
       y2="553.44208"
       gradientUnits="userSpaceOnUse"
       spreadMethod="pad"
       gradientTransform="matrix(0.35144736,0,0,0.35862114,-0.32164461,-1.06505)">
      <stop
         offset="0"
         stop-color="rgb(39,109,195)"
         stop-opacity="1"
         id="stop3978" />
      <stop
         offset="1"
         stop-color="rgb(22,92,170)"
         stop-opacity="1"
         id="stop3980" />
    </linearGradient>
  </defs>
  <path
     d="M 128,171.45043 C 57.307768,171.45043 0,133.06999 0,85.72539 0,38.38044 57.307768,0 128,0 c 70.69259,0 128,38.38044 128,85.72539 0,47.3446 -57.30741,85.72504 -128,85.72504 z M 147.59263,33.51565 c -53.732401,0 -97.291105,26.23854 -97.291105,58.60536 0,32.36682 43.558704,58.60535 97.291105,58.60535 53.73205,0 93.38557,-17.93861 93.38557,-58.60535 0,-40.65397 -39.65352,-58.60536 -93.38557,-58.60536 z"
     id="path3982"
     style="fill:url(#gradientFill-1);fill-rule:evenodd"
     inkscape:connector-curvature="0" />
  <path
     d="m 194.93723,132.77603 c 0,0 7.74716,2.33778 12.24805,4.61521 1.56172,0.79027 4.26375,2.36725 6.21278,4.4377 1.90928,2.02786 2.84013,4.08269 2.84013,4.08269 l 30.53139,51.47734 -49.34724,0.022 -23.07605,-43.33398 c 0,0 -4.72526,-8.11886 -7.63285,-10.47297 -2.42547,-1.9636 -3.45963,-2.66263 -5.85776,-2.66263 -1.66929,0 -11.72477,0 -11.72477,0 l 0.009,56.43834 -43.66699,0.0185 0,-144.16779 87.68899,0 c 0,0 39.93931,0.72033 39.93931,38.71877 0,37.99844 -38.16423,40.82685 -38.16423,40.82685 z m -18.99337,-48.27367 -26.43556,-0.017 -0.0131,24.51386 26.4487,-0.009 c 0,0 12.24806,-0.038 12.24806,-12.46994 0,-12.68188 -12.24806,-12.01836 -12.24806,-12.01836 z"
     id="path3984"
     style="fill:url(#gradientFill-2);fill-rule:evenodd"
     inkscape:connector-curvature="0" />
</svg>
