<?xml version="1.0" encoding="UTF-8" standalone="no"?>
<svg
   xmlns:dc="http://purl.org/dc/elements/1.1/"
   xmlns:cc="http://creativecommons.org/ns#"
   xmlns:rdf="http://www.w3.org/1999/02/22-rdf-syntax-ns#"
   xmlns:svg="http://www.w3.org/2000/svg"
   xmlns="http://www.w3.org/2000/svg"
   xmlns:sodipodi="http://sodipodi.sourceforge.net/DTD/sodipodi-0.dtd"
   xmlns:inkscape="http://www.inkscape.org/namespaces/inkscape"
   viewBox="-19.14664 -2.80666 124.75939 61.966383"
   height="60"
   width="120"
   xml:space="preserve"
   id="svg2"
   version="1.1"
   sodipodi:docname="cablelabs-ar21.svg"
   inkscape:version="0.92.3 (2405546, 2018-03-11)"><sodipodi:namedview
     pagecolor="#ffffff"
     bordercolor="#666666"
     borderopacity="1"
     objecttolerance="10"
     gridtolerance="10"
     guidetolerance="10"
     inkscape:pageopacity="0"
     inkscape:pageshadow="2"
     inkscape:window-width="1920"
     inkscape:window-height="1001"
     id="namedview17"
     showgrid="false"
     inkscape:zoom="1.0175422"
     inkscape:cx="577.50378"
     inkscape:cy="92.673985"
     inkscape:window-x="-9"
     inkscape:window-y="-9"
     inkscape:window-maximized="1"
     inkscape:current-layer="svg2" /><metadata
     id="metadata8"><rdf:RDF><cc:Work
         rdf:about=""><dc:format>image/svg+xml</dc:format><dc:type
           rdf:resource="http://purl.org/dc/dcmitype/StillImage" /><dc:title></dc:title></cc:Work></rdf:RDF></metadata><defs
     id="defs6" /><g
     id="g854"
     transform="matrix(0.11428889,0,0,0.11428889,-8.750026,20.063163)"><path
       inkscape:connector-curvature="0"
       d="M 133.73733,101.5564 C 123.42026,126.22574 96.895864,141.92938 70.554132,141.92938 31.501599,141.92938 0,109.2752 0,70.501738 0,32.095473 31.868799,-0.00665978 69.815598,-0.00665978 c 27.264133,0 54.157332,15.88493278 64.656402,41.47613278 H 105.7364 C 97.263064,31.176273 83.632798,24.55854 69.999998,24.55854 c -24.868799,0 -44.761999,21.502132 -44.761999,46.864132 0,24.068666 20.6308,45.938528 44.946399,45.938528 13.4484,0 25.052,-6.06626 34.262932,-15.8048 h 29.29"
       style="fill:#ed1d24;fill-opacity:1;fill-rule:nonzero;stroke:none;stroke-width:0.13333333"
       id="path14" /><path
       inkscape:connector-curvature="0"
       d="m 247.75866,36.770006 h -22.388 c 0,14.433333 0,14.433333 0,14.433333 -8.108,-11.4708 -20.264,-17.693733 -34.26533,-17.693733 -14.92133,0 -27.636,5.6656 -37.97867,17.693733 -9.41866,10.696933 -13.112,22.428666 -13.112,36.545866 0,14.118665 4.616,27.317735 12.74267,37.098935 8.86667,10.5479 21.76933,17.13853 37.61067,17.13853 12.89599,0 27.26533,-6.59063 35.00266,-17.13853 v 13.87708 h 22.388 z m -23.12533,50.794265 c 0,17.418269 -12.15734,30.619729 -29.84133,30.437469 -16.58134,0.18226 -30.21467,-12.64947 -30.21467,-29.333335 0,-17.7864 12.528,-31.3552 30.58267,-31.171866 17.31599,-0.183334 29.47333,13.015599 29.47333,30.067732"
       style="fill:#ed1d24;fill-opacity:1;fill-rule:nonzero;stroke:none;stroke-width:0.13333333"
       id="path16" /><path
       inkscape:connector-curvature="0"
       d="m 266.06666,138.72522 h 22.53333 v -13.87708 c 8.10934,12.03176 20.63734,17.13853 34.63734,17.13853 14.18399,0 28.37866,-6.03593 37.42799,-17.13853 8.128,-9.59747 13.3,-24.81254 13.116,-37.092135 0,-28.598 -21.424,-54.195332 -51.27999,-54.195332 -11.60534,0 -24.68534,4.053066 -31.86934,13.999999 V 2.5213402 h -24.56666 z m 53.85733,-81.216681 c 17.5,0 29.292,13.566133 29.292,30.430799 0,17.043202 -11.97467,30.062402 -29.292,30.062402 -18.42266,0 -30.77066,-13.75 -30.77066,-31.529602 0,-16.8636 14.37333,-28.963599 30.77066,-28.963599"
       style="fill:#ed1d24;fill-opacity:1;fill-rule:nonzero;stroke:none;stroke-width:0.13333333"
       id="path18" /><path
       inkscape:connector-curvature="0"
       d="m 387.64132,2.5213402 h 24.56667 V 138.75855 H 387.64132 V 2.5213402"
       style="fill:#ed1d24;fill-opacity:1;fill-rule:nonzero;stroke:none;stroke-width:0.13333333"
       id="path20" /><path
       inkscape:connector-curvature="0"
       d="m 532.52399,98.456404 c 0.552,-3.866133 1.284,-7.733333 1.284,-11.605733 0,-28.253599 -23.09467,-53.289998 -52.26134,-53.289998 -30.64533,0 -54.20133,24.855199 -54.20133,54.763998 0,29.663069 24.10934,53.611479 53.832,53.611479 21.604,0 42.73467,-14.54895 48.96667,-32.79215 h -26.99334 c -4.80266,5.3448 -13.66666,8.84374 -22.896,8.84374 -12.37066,0 -23.26266,-7.7396 -26.95866,-19.531336 z m -79.596,-21.734266 c 3.69067,-11.602133 16.24666,-19.213599 28.43333,-19.213599 12.56,0 23.81867,7.247466 27.87867,19.213599 h -56.312"
       style="fill:#ed1d24;fill-opacity:1;fill-rule:nonzero;stroke:none;stroke-width:0.13333333"
       id="path22" /><path
       inkscape:connector-curvature="0"
       d="m 546.53599,2.5213402 h 13.692 V 126.31587 h 56.31466 v 12.40935 H 546.53599 V 2.5213402"
       style="fill:#ed1d24;fill-opacity:1;fill-rule:nonzero;stroke:none;stroke-width:0.13333333"
       id="path24" /><path
       inkscape:connector-curvature="0"
       d="m 716.95198,38.020006 h -13.076 v 19.173466 c -7.548,-14.381866 -23.55866,-21.418266 -39.384,-21.418266 -13.98266,0 -28.152,5.0104 -43.444,21.418266 -3.7,3.321333 -10.54533,17.152 -10.54533,30.614533 0,15.315065 6.29067,28.037465 9.992,32.094795 12.90267,14.66668 29.276,21.09429 44.36667,21.09429 15.824,0 31.28266,-6.97031 39.01466,-21.09015 v 18.85161 h 13.07734 z m -52.46,10.8688 c 22.456,0 39.384,17.895733 39.384,40.211865 0,21.030269 -18.03733,39.101599 -39.01466,39.101599 -21.528,0 -40.66934,-17.152 -40.66934,-39.282265 0,-22.320266 18.22134,-40.031199 40.3,-40.031199"
       style="fill:#ed1d24;fill-opacity:1;fill-rule:nonzero;stroke:none;stroke-width:0.13333333"
       id="path26" /><path
       inkscape:connector-curvature="0"
       d="m 732.79198,138.75855 h 12.94667 V 121.5616 c 7.928,13.00788 25.61866,19.43549 40.176,19.43549 14.74,0 27.272,-3.69323 41.28,-19.43549 5.55466,-6.08693 12.03066,-19.00253 12.03066,-33.571329 0,-29.886932 -25.30133,-52.194265 -54.6,-52.194265 -14.92266,0 -31.50933,7.0016 -38.144,21.015599 V 2.5213402 h -13.68933 z m 52.2,-89.884411 c 22.484,0 40.54133,16.6068 40.54133,39.484399 0,21.952132 -17.69066,39.843732 -39.61866,39.843732 -22.116,0 -40.35867,-16.41667 -40.35867,-38.920265 0,-11.072933 2.76533,-20.294267 10.69333,-28.2256 7.54934,-7.750933 17.87334,-12.182266 28.74267,-12.182266"
       style="fill:#ed1d24;fill-opacity:1;fill-rule:nonzero;stroke:none;stroke-width:0.13333333"
       id="path28" /><path
       inkscape:connector-curvature="0"
       d="m 860.24665,108.97054 c -0.36934,10.2932 7.91199,18.92866 18.16399,18.92866 9.70534,0 17.57467,-6.79853 17.57467,-16.7204 0,-12.131196 -9.52,-16.542662 -19.404,-19.297862 -6.412,-2.023467 -13.19066,-4.0432 -18.184,-8.821867 -5.36533,-4.777066 -8.14133,-11.943733 -8.14133,-19.110399 0,-16.3636 13.32133,-28.152666 29.07066,-28.152666 15.01334,0 27.764,12.528666 27.764,27.229199 h -13.66666 c 0,-8.818799 -6.772,-14.151066 -15.56534,-14.151066 -7.68933,0 -13.91333,6.252667 -13.91333,13.971333 0,11.026133 8.792,13.9652 17.57733,16.724 15.01734,4.778666 28.156,11.208399 28.156,29.401068 0,18.92866 -13.87333,32.00936 -32.548,32.00936 -17.06933,0 -31.47599,-14.9183 -30.55999,-32.00936 h 13.676"
       style="fill:#ed1d24;fill-opacity:1;fill-rule:nonzero;stroke:none;stroke-width:0.13333333"
       id="path30" /></g></svg>