<svg xmlns="http://www.w3.org/2000/svg" width="160" height="60" viewBox="0 0 23.169 8.689"><path d="M16.882 4.668l-.023-.04-.013-.023.944-1.6h-.57l-.033.055.013-.02-.013.02-.804 1.332-.036.064-.014.026-.01.02-.01.026-.007.02-.006.027-.002.03.003.024.005.018c.008.025.02.052.04.085l.02.034.95 1.656h.55zm-1.14-3.126v4.88h.5v-4.88zm6.3 1.488L21.944 3l-.03-.01h-.002l-.028-.007-.003-.001-.025-.006a1.17 1.17 0 0 0-.218-.022h-.002l-.053.002-.05.004-.05.006-.05.01-.053.012-.06.017-.068.025-.068.03-.054.03-.006.004-.04.024-.043.03-.05.038-.006.005-.034.03-.037.036-.012.012-.03.033-.006.006-.028.035-.01.014-.015.02-.014.02-.025.038-.018.03-.01.018-.022.043-.018.04v.02l-.02.048-.016.05-.004.015-.013.048-.015.075-.005.03-.002.016-.005.058-.002.05V6.42h.5V3.985a.59.59 0 0 1 .164-.392l.026-.026.025-.02a.43.43 0 0 1 .199-.093c.02-.003.04-.005.06-.005l.543.013.017-.337V3.12l.002-.044-.093-.042zm-2.038.86L20 3.843l-.004-.03-.002-.015-.008-.046-.01-.04-.01-.037-.008-.025-.014-.042-.016-.04-.014-.032-.03-.06-.03-.054-.037-.054-.045-.06-.047-.052-.05-.048-.012-.01-.04-.033-.06-.042-.056-.035-.065-.035-.005-.002-.043-.02-.025-.01-.058-.02-.062-.017-.078-.015-.064-.007h-.017.01l-.058-.002h-.004l-.04.001h-.028l-.032.002-.04.005-.01.001-.02.003-.02.004-.008.001-.02.005-.026.006-.02.006L18.75 3l-.02.007-.045.018-.024.01-.02.01-.017.008-.025.012-.023.012-.02.01-.022.013-.018.01-.02.014-.018.012-.002.002-.018.013-.017.013-.02.016-.016.013-.02.017-.015.014-.02.018-.015.014-.004.004-.028.03-.017.02-.013.016-.007.01-.022.028-.015.022-.01.017-.006.01-.01.015-.018.03-.015.026-.012.024-.01.018-.01.024-.01.02-.01.027-.017.047-.02.067-.01.04-.004.02-.005.028-.003.022-.003.026-.002.024c-.001.007-.002.014-.002.022v.058 1.55l.003.076.005.05.01.067.003.016.01.047.02.07.026.072.027.062.023.045.007.014.02.035.035.055.04.056.024.03.01.012.033.035.04.038.04.034.046.033.055.035.058.03.038.016.012.005.047.016h.004l.062.016.06.01.046.005.01.001.06.002c.05 0 .102-.004.156-.014l.6-.094-.004-.038v-.023l-.008-.095v-.03l-.007-.135-.002-.05V5.98h-.63a.49.49 0 0 1-.054-.003l-.044-.007-.042-.01-.048-.017-.04-.02c-.02-.01-.033-.02-.046-.028l-.035-.028-.03-.03-.03-.033-.03-.038-.013-.02-.032-.063-.015-.04-.013-.05-.007-.044c-.002-.02-.004-.037-.003-.056v-.53h1.206a.25.25 0 0 0 .25-.251v-.768L20 3.894zm-.492.05v.525h-.962V3.94c0-.218.14-.404.337-.466.06-.02.125-.026.188-.02l.044.006.05.012c.03.01.057.02.082.035l.012.006.03.02.04.03.032.03.032.034a.37.37 0 0 1 .037.05l.016.027.02.04.006.013.014.04.007.026.005.02.005.03.004.065zm-4.803.067h.012l.024-.001.032-.001.02-.001L15.05 4h.06l.07-.002v-.062l-.001-.036v-.007l-.002-.025-.004-.048-.003-.025-.003-.023-.005-.025-.005-.023-.005-.024-.006-.023-.007-.024-.007-.022-.007-.02-.001-.002-.008-.022-.008-.02-.001-.002-.01-.022-.036-.073-.032-.054-.008-.012-.032-.046-.004-.006-.04-.05-.046-.05-.052-.05-.05-.042-.07-.05-.046-.028-.067-.035-.007-.003-.04-.017-.025-.01-.06-.02h-.002l-.06-.016-.075-.015-.022-.003-.045-.005-.017-.001-.065-.002-.027.001h-.024l-.026.002-.024.002-.048.006-.025.004h-.003l-.02.004-.047.01-.02.006-.025.007h-.004l-.017.006-.025.008-.044.017-.026.012-.017.008-.03.016-.012.006-.022.013-.017.01-.036.023-.02.013-.024.017-.014.01-.023.018-.036.03-.034.033-.01.01-.023.025-.034.04-.033.044-.012.018-.025.038-.022.038-.01.018-.024.05-.022.052-.02.056-.02.065v.004a.99.99 0 0 0-.029.237v1.57l.002.05c0 .007.001.014.002.02l.003.037.003.022.006.038.015.072.035.108.024.057.03.06.03.05.036.053.05.065.03.032.053.053.043.037.047.036.07.046.042.024.056.027.067.027.056.018.065.016.01.002.058.01.08.008.06.002.047-.001h.015l.032-.002.046-.006.046-.008.02-.004.026-.006.02-.005.025-.007.02-.006.024-.008.02-.007.023-.01.02-.008.023-.01.018-.008.023-.01.04-.022.017-.01.022-.013.038-.025.036-.027.035-.028.034-.03.033-.032.03-.033.03-.035.03-.037.028-.04.03-.047a.94.94 0 0 0 .046-.088l.015-.035.016-.042.005-.014.01-.03.005-.016.008-.03.01-.045.008-.046v-.01l.003-.027.004-.042c-.01-.015-.1-.02-.224-.028l-.268-.02-.002.032a.47.47 0 0 1-.024.111c-.066.188-.25.32-.46.32-.015 0-.03-.001-.043-.002l-.01-.001-.042-.006H14.1l-.038-.01-.008-.002-.04-.014H14l-.034-.016-.042-.025-.04-.03c-.01-.008-.02-.018-.03-.027l-.03-.032-.03-.038-.013-.02-.014-.024-.018-.038-.018-.05-.01-.042-.007-.045-.003-.056v-1.56a.48.48 0 0 1 .173-.37c.096-.082.22-.12.347-.1l.045.006.05.012c.05.015.1.034.127.06l.042.03.063.06.007.008.025.034.023.036.02.04.008.02.013.036.007.026.01.048a.44.44 0 0 1 .005.064v.075h.033zm-2.164-.036v-.028l-.003-.04v-.01l-.002-.022-.003-.026-.003-.02-.004-.027-.004-.02-.006-.027-.005-.02-.004-.014-.008-.03v-.03l-.006-.02-.01-.026-.007-.02-.01-.02-.01-.025-.007-.014-.023-.045-.005-.01-.033-.058-.035-.052-.01-.014-.034-.044-.045-.05-.045-.045-.058-.05-.008-.006-.042-.03-.063-.04-.005-.003a.93.93 0 0 0-.117-.057L11.865 3l-.015-.004-.05-.014-.035-.008-.05-.01-.08-.01-.028-.002-.04-.002h-.04a1.45 1.45 0 0 0-.166.015l-.004.001-.085.015-.07.015L11.19 3h-.004l-.112.03-.05.015-.005.001-.05.016-.023.008-.008.003-.03.01.001.03v.037l.006.112.001.024v.04l.001.027.001.025v.026.03l.002.042.03-.002h.026l.04-.003.05-.004.028-.002.174-.013h.024l.058-.004.132-.008.03-.002.076-.003h-.006a.72.72 0 0 1 .075-.004l.048.002.056.008.04.01.046.017a.32.32 0 0 1 .034.018l.008.005a.31.31 0 0 1 .029.02l.002.001c.01.007.018.015.026.024l.03.035.02.03.02.038.013.03a.57.57 0 0 1 .029.107l.007.057.004.074v.394l-.036-.012h-.008l-.037-.01-.022-.005-.013-.003-.024-.005-.025-.005-.015-.002-.017-.003-.02-.003h-.003l-.025-.003h-.008l-.02-.002-.028-.002-.04-.002h-.016-.027-.15-.023l-.028.002-.024.002-.026.003-.017.002h-.007l-.026.004-.023.004-.026.005-.02.005-.03.008h-.001l-.024.007-.034.01-.043.015-.02.008-.023.01-.018.008-.01.005-.013.006-.018.01-.02.012-.016.01-.02.012-.017.01-.035.024-.034.026-.013.01-.02.016-.042.042-.016.017-.003.004-.01.01-.052.065-.005.007h-.002l-.017.026-.022.036-.02.038-.008.016-.01.023-.02.045v.002l-.002.005-.015.042-.002.008-.01.034-.008.03-.003.012-.003.015-.005.026-.005.028-.003.022-.004.03-.002.02-.003.035-.002.07v.307l.002.057.005.057.002.02.006.04.015.07.001.003.014.05.02.052.022.053.032.064.03.05.034.05.045.058.04.043.046.046.066.056.034.026.062.042.05.03.056.027.068.028.057.02.066.017.068.013.063.007a.96.96 0 0 0 .633-.175.99.99 0 0 0 .413-.803V4zm-1.38 1.76l-.014-.025-.018-.037-.015-.04-.014-.05-.007-.043-.001-.013-.002-.044v-.363a.48.48 0 0 1 .481-.481h.48v.844c0 .056-.01.1-.027.16a.48.48 0 0 1-.405.325.42.42 0 0 1-.05.003.49.49 0 0 1-.055-.003l-.042-.006-.003-.001-.038-.01-.01-.003-.044-.016-.033-.016-.043-.026-.034-.026-.037-.033-.03-.032-.03-.04-.013-.02zM10 3.972v-.047l-.002-.02-.003-.034-.003-.022-.005-.036-.003-.02-.006-.03-.005-.022-.008-.033v-.002l-.02-.065-.003-.008-.014-.037-.003-.008-.02-.05-.005-.01-.028-.057-.033-.057-.018-.028-.005-.007-.02-.03-.046-.05-.04-.044-.047-.047-.053-.047-.05-.038-.062-.04-.052-.03-.065-.03L9.322 3l-.062-.02h-.006l-.006-.002-.06-.012-.01-.001-.068-.008h-.004l-.044-.002H9.04l-.047.001h-.01l-.047.002h-.007l-.058.004-.03.003.03-.003-.053.005h-.003l-.007.001-.04.005-.02.002-.024.004-.037.005-.027.005-.03.006-.056.013-.03.01V1.53h-.5v4.893h.5V3.498h.48l.04.002.045.006.05.01.048.016.04.018.04.023.042.03.01.007.023.02.01.01a.22.22 0 0 1 .02.023l.033.042.005.008.017.028.007.012.013.027.014.036.007.02.007.028.01.052.004.06V6.42h.487V3.98zm-2.537-.055l-.001-.04v-.003L7.45 3.85l-.003-.034-.003-.024-.004-.03-.004-.02V3.74l-.006-.03-.006-.024-.004-.014-.007-.027-.012-.04-.018-.052-.01-.023-.012-.027-.01-.025-.023-.047-.003-.007L7.3 3.38l-.024-.036-.018-.026-.044-.058-.03-.037-.008-.01-.032-.034-.001-.001-.032-.03-.01-.01-.036-.03-.025-.02-.02-.015-.03-.02-.01-.007-.037-.024-.002-.001L6.914 3l-.01-.007-.043-.023-.045-.02-.01-.004-.002-.001-.001-.001-.04-.015-.012-.005-.036-.012-.05-.015-.015-.004-.037-.01L6.6 2.88l-.077-.012-.068-.006h-.013l-.05-.001h-.036l-.02.001-.03.002h-.001l-.024.002-.03.004-.022.003-.032.006h-.013-.008l-.022.005-.007.002-.023.005-.03.01-.02.006-.026.01h-.005l-.032.012-.01.004-.007.003-.017.007-.026.012-.02.01-.024.013L5.88 3l-.032.02-.013.007-.02.012-.014.01-.01.007-.017.012-.024.018-.033.026-.008.006-.001.001-.006.005-.025.022-.006.005H5.67l-.035.034-.015.016-.017.018-.03.036-.014.016-.022.03-.017.023-.032.05-.004.005-.035.063-.022.043-.015.033-.028.072h-.007l-.02.07a1.07 1.07 0 0 0-.032.258v1.477l.002.06.001.02.005.05.01.075.004.017.01.048.026.1.017.047.007.018.027.063.028.056.026.046v.017l.03.047.034.046.012.015.026.03.043.046h.01l.04.038.045.036.016.012.032.023.063.04.052.027.018.008.036.015.02.008.04.014.072.02.06.01.023.003.04.005h.022l.056.002h.006l.083-.004.084-.01.7-.106-.025-.657h-.75l-.03-.002c-.023-.003-.034-.006-.045-.01L6.28 5.68l-.04-.017-.028-.018-.026-.02-.024-.024-.025-.032-.014-.022-.012-.024v-.03l-.007-.027-.002-.01.01-.027v-.364h.97c.103.001.202-.04.275-.113s.113-.172.113-.275v-.75zm-1.356.375V3.93c0-.162.13-.294.294-.294l.026.001.026.004.01.002.025.007.046.02.03.02.02.016a.14.14 0 0 1 .018.017l.005.005.018.02.015.02.012.02.013.026.007.018.01.042.005.055v.363H6.13zM5 1.58v.008-.058l-.037-.022-.03-.01-.025-.008-.006-.002H4.9l-.023-.006-.01-.002-.018-.004-.007-.001-.022-.005h-.005l-.006-.001-.02-.003-.036-.006H4.75l-.022-.003-.034-.003h.001l-.023-.001h-.038l-.05.001h-.007l-.043.004-.068.01-.03.006-.052.013-.06.018-.045.017-.045.02-.017.008-.04.02-.058.033-.014.01-.035.023-.057.042-.026.022-.017.014-.014.012-.04.038-.02.02-.017.018-.01.013-.027.03-.03.038-.014.018-.014.02-.02.027-.005.008-.005.007L3.718 2l-.004.007-.026.05-.008.015-.02.04-.01.027-.016.038-.005.013-.014.042-.017.06h-.003l-.001.004.001-.004-.014.063v.005l-.01.056-.006.062-.003.08V7.24h.033l.742-.042V4.4h.58v-.775h-.58v-1.05c0-.162.13-.294.287-.294h.356L5 1.527zm-3.2.034v.002l-.775-.05v4.858H1.8v-4.81z"/><path d="M3.122 2.243v-.002l-.002-.013-.005-.03-.007-.027-.01-.03-.008-.023-.005-.01-.012-.025-.006-.01-.017-.027-.004-.006-.023-.03-.007-.01-.02-.02-.01-.01-.022-.02-.022-.017-.023-.016-.02-.012c-.006-.004-.012-.007-.018-.01L2.86 1.88l-.037-.014-.048-.014-.028-.005-.025-.004H2.72l-.04-.002-.044.002-.043.007-.04.01h-.002l-.04.014-.028.013c-.01.004-.018.01-.027.015l-.018.01-.001.001-.033.024-.02.017-.026.025-.015.017-.012.015-.013.018-.02.032-.002.003-.01.017-.01.02-.008.018-.008.022-.006.02-.006.023-.004.02-.004.024v.02l-.002.04c0 .014.001.027.002.04l.006.045.001.004a.44.44 0 0 0 .01.038l.003.01.01.03c.01.022.016.036.024.05l.016.027c.013.02.022.03.032.043l.022.024c.016.016.027.026.04.035l.027.02.004.003c.023.015.047.028.072.04l.003.001.037.014.046.012c.013.003.027.005.04.006.036.004.065.004.093.001l.043-.007.04-.01.04-.015.038-.018.036-.022.034-.025.03-.028.04-.045c.013-.017.026-.035.036-.053l.027-.055.008-.02.006-.02.006-.022.005-.02.003-.023.002-.02.002-.04c0-.014-.001-.028-.002-.042zm-.83.667v3.512h.775V2.954z"/></svg>