<?xml version="1.0" encoding="UTF-8" standalone="no"?>
<svg
   xmlns:dc="http://purl.org/dc/elements/1.1/"
   xmlns:cc="http://creativecommons.org/ns#"
   xmlns:rdf="http://www.w3.org/1999/02/22-rdf-syntax-ns#"
   xmlns:svg="http://www.w3.org/2000/svg"
   xmlns="http://www.w3.org/2000/svg"
   xmlns:sodipodi="http://sodipodi.sourceforge.net/DTD/sodipodi-0.dtd"
   xmlns:inkscape="http://www.inkscape.org/namespaces/inkscape"
   viewBox="0 0 6.4 6.3999997"
   height="64"
   width="64"
   xml:space="preserve"
   version="1.1"
   id="svg4101"
   sodipodi:docname="arstechnica-icon.svg"
   inkscape:version="0.92.3 (2405546, 2018-03-11)"><metadata
     id="metadata34"><rdf:RDF><cc:Work
         rdf:about=""><dc:format>image/svg+xml</dc:format><dc:type
           rdf:resource="http://purl.org/dc/dcmitype/StillImage" /><dc:title></dc:title></cc:Work></rdf:RDF></metadata><sodipodi:namedview
     pagecolor="#ffffff"
     bordercolor="#666666"
     borderopacity="1"
     objecttolerance="10"
     gridtolerance="10"
     guidetolerance="10"
     inkscape:pageopacity="0"
     inkscape:pageshadow="2"
     inkscape:window-width="1920"
     inkscape:window-height="1001"
     id="namedview32"
     showgrid="false"
     inkscape:zoom="5.8221205"
     inkscape:cx="96.079054"
     inkscape:cy="34.225585"
     inkscape:window-x="-9"
     inkscape:window-y="-9"
     inkscape:window-maximized="1"
     inkscape:current-layer="svg4101" /><defs
     id="defs4105"><clipPath
       id="clipPath4703"
       clipPathUnits="userSpaceOnUse"><path
         id="path4705"
         d="m 36.609,536.081 h 149.06 v 48.311 H 36.609 Z"
         inkscape:connector-curvature="0" /></clipPath></defs><g
     id="g980"
     transform="matrix(1.8620282,0,0,1.8620282,-1.2988667,-2.3860772)"><path
       inkscape:connector-curvature="0"
       d="m 4.134667,2.999996 c 0,0.9491526 -0.769439,1.7185205 -1.7185205,1.7185205 -0.9491527,0 -1.71859168,-0.7693679 -1.71859168,-1.7185205 0,-0.9491526 0.76943898,-1.7185205 1.71859168,-1.7185205 0.9490815,0 1.7185205,0.7693679 1.7185205,1.7185205"
       style="fill:#f03f1e;fill-opacity:1;fill-rule:nonzero;stroke:none;stroke-width:0.07114554"
       id="path4709" /><path
       inkscape:connector-curvature="0"
       d="M 1.7702588,2.960375 C 1.382231,2.9977976 1.3006982,3.1036621 1.3006982,3.211661 c 0,0.086015 0.057272,0.1411528 0.1565202,0.1411528 0.1146866,0 0.2248911,-0.057343 0.3130404,-0.1478404 z m 0.037423,0.533307 -0.021984,-0.1408682 c -0.083738,0.085873 -0.1983538,0.1630656 -0.3703837,0.1630656 -0.1896029,0 -0.3085582,-0.1146866 -0.3085582,-0.2932619 0,-0.2622425 0.2247488,-0.3658304 0.6635033,-0.412075 v -0.04411 c 0,-0.1322596 -0.079398,-0.1785042 -0.2005593,-0.1785042 -0.1279197,0 -0.2492228,0.039699 -0.3637671,0.090355 L 1.1794662,2.5086008 c 0.1255719,-0.050656 0.2446695,-0.088149 0.4078774,-0.088149 0.2556259,0 0.3791346,0.1035168 0.3791346,0.3371587 V 3.493682 Z"
       style="fill:#ffffff;fill-opacity:1;fill-rule:nonzero;stroke:none;stroke-width:0.07114554"
       id="path4713" /><path
       inkscape:connector-curvature="0"
       d="M 2.4232397,2.8722186 V 3.4936749 H 2.2269492 V 2.4424995 h 0.1565913 l 0.033083,0.2137924 C 2.4916106,2.5371943 2.6128426,2.4292665 2.7848013,2.4204444 l 0.030806,0.1873262 c -0.1740932,0.00882 -0.3218625,0.1256431 -0.3923677,0.264448"
       style="fill:#ffffff;fill-opacity:1;fill-rule:nonzero;stroke:none;stroke-width:0.07114554"
       id="path4717" /><path
       inkscape:connector-curvature="0"
       d="m 3.3109582,3.515851 c -0.1388761,0 -0.2931908,-0.048592 -0.3836168,-0.099248 l 0.028672,-0.1851207 c 0.099177,0.0683 0.2270966,0.1213031 0.3703837,0.1213031 0.1344651,0 0.2138635,-0.050727 0.2138635,-0.1388049 0,-0.097042 -0.059549,-0.1324019 -0.2491517,-0.1785753 -0.2469462,-0.061754 -0.3461231,-0.1366706 -0.3461231,-0.324068 0,-0.1674766 0.1410816,-0.2909141 0.3703837,-0.2909141 0.1300541,0 0.246875,0.026537 0.3460519,0.070505 L 3.6306151,2.676049 C 3.5380551,2.623188 3.4211626,2.585765 3.3109582,2.585765 c -0.1190976,0 -0.1807097,0.046173 -0.1807097,0.121232 0,0.070434 0.052861,0.1101333 0.2181323,0.152038 0.260108,0.066094 0.3770713,0.1410816 0.3770713,0.3415697 0,0.1918084 -0.1434294,0.3152459 -0.4144939,0.3152459"
       style="fill:#ffffff;fill-opacity:1;fill-rule:nonzero;stroke:none;stroke-width:0.07114554"
       id="path4721" /></g></svg>