<svg xmlns="http://www.w3.org/2000/svg" xmlns:xlink="http://www.w3.org/1999/xlink" width="120" height="60"><path d="M94.89 23.195l7.997-7.436-8.628 3.928zm-5.12-6.033l-1.193-6.454-4.35 8.067zM77.28 28.737l2.946-5.822-8.488 1.824zM76.5 30.14s-2.806-1.403-7.085-3.087l-9.47-3.718 11.014-1.824c5.19-.912 11.084-2.245 11.084-2.245l7.576-15.363s1.263 2.034 1.894 4.5l2.104 7.646 24.202-7.716-6.805 5.612c-2.525 2.104-15.573 14.03-15.573 14.03s.49 2.455 1.824 7.997S99.45 46.975 99.66 49.08s-.63 3.016-.63 3.016l-2.876-1.473-3.928-20.063s-2.385 1.824-5.752 4.07c-3.437 2.245-12.066 7.155-12.066 7.155L91.522 26.28 90.4 20.53l-7.927 1.824-4 7.436 4.14 3.507-4.77-2.315-8.418 15.714z" fill="#f7bf5b"/><g fill="#006c96"><path d="M13.094 32.244l-.07 2.525c0 .35.14.5.5.5.7 0 1.403-.07 2.104-.14 1.052-.14 1.964-.63 2.455-1.613.5-.912.5-1.894.07-2.876-.35-.772-1.122-1.052-1.894-1.122-.842-.14-1.754-.14-2.666-.2-.35 0-.5.14-.5.5.07.772 0 1.613 0 2.455m10.733 10.943l-3.016-.2c-.772-.14-1.193-.912-1.684-1.473l-3.718-4.42a3.02 3.02 0 0 0-1.824-1.052c-.28-.07-.42 0-.42.35l.07 4.7c0 .63.28 1.333.42 1.964H9.797c.912-.982.842-2.175.842-3.367v-8.77c0-.7-.07-1.403-.42-2.104 0-.07-.07-.07-.07-.14 0 0 0-.07.07-.14h1.754l5.12-.14c1.122 0 2.175.2 3.087 1.052 1.052.912.912 2.736.35 3.648-.7 1.122-2.104 2.034-3.578 2.455l3.368 3.84c1.122 1.263 2.175 2.596 3.578 3.578-.07.07-.07.14-.07.2M34.35 35.84c-.07-.63-.14-1.122-.5-1.684-.63-1.052-2.315-1.263-3.157-.35-.912.982-.7 3.087.5 3.788.982.63 2.315.5 2.806-.7.2-.28.28-.7.35-1.052M32.104 48.3c.28-.07.63-.07.982-.14.842-.14 1.684-.42 2.315-1.052 1.122-1.052.982-2.736-.56-3.507-.982-.5-2.034-.63-3.087-.842-.2-.07-.5 0-.63.07-.772.42-1.543.772-2.175 1.263-1.333 1.122-1.193 2.385.07 3.297.912.7 1.964.842 3.087.912m3.578-14.66c.63.7.63 1.473.56 2.245-.07.982-.63 1.613-1.473 2.034-.912.42-1.894.63-2.806 1.052-.7.28-1.333.63-1.894 1.052-.42.28-.35.7.07.982.842.5 1.824.63 2.736.772 1.263.28 2.525.5 3.718 1.052.5.28 1.052.63 1.403 1.052.63.772.35 2.034-.35 2.806-1.263 1.333-2.876 2.104-4.63 2.736-1.684.56-3.297.63-4.98.14-1.543-.42-2.385-1.684-2.104-3.157.14-.63.42-1.193.982-1.613.7-.56 1.473-.982 2.175-1.543.2-.14.42-.35.63-.56l-.7-.28-.982-.35c-.42-.2-.63-.56-.63-1.052s.35-.772.772-.982c.56-.28 1.122-.42 1.684-.63.14-.07.2-.14.35-.28-.14-.07-.2-.2-.35-.28-.56-.35-1.122-.63-1.543-1.193-1.052-1.403-.7-3.788 1.543-4.5 1.122-.35 2.245-.5 3.437-.35.28.07.56.14.842.14l2.104.14c.2 0 .42-.07.56 0 .14 0 .2.14.35.2-.07.14-.2.35-.28.35-.28-.07-.63-.07-1.193 0m4.908 9.483h-2.806c.14-.42.28-.842.35-1.263.07-.2.07-.35.07-.56V29.298c0-.56-.14-1.052-.5-1.473-.07-.07 0-.28.07-.28l2.315-.35c.07 0 .07 0 .14.07v6.805c.35-.2.63-.42.912-.63 1.263-.842 2.596-.982 4.07-.7s2.104 1.403 2.104 2.806v6.033c0 .42.2.842.28 1.263 0 .07 0 .2.07.35h-2.104c-.07 0-.2-.2-.2-.35V36.8c0-.56-.14-1.122-.28-1.684-.2-.7-.842-1.052-1.543-1.193-1.052-.2-2.245.07-2.736 1.122-.2.5-.35 1.052-.35 1.543v4.9c-.14.5 0 1.052.14 1.613m14.3-2.73c.14.14.28.14.35.28 1.543 1.894 4.5 2.455 6.664 1.473 1.684-.772 2.245-2.876.7-4.2-.7-.63-1.543-1.052-2.385-1.473-1.193-.63-2.455-1.052-3.507-1.964-1.473-1.263-1.333-3.578-.07-4.77.772-.772 1.754-1.193 2.806-1.333 1.403-.14 2.806-.07 4.2-.14.42 0 .912.07 1.333.07.14 0 .35.14.35.2v1.824c-.14-.07-.2-.07-.28-.07-1.122-1.052-2.525-1.263-3.928-1.122a10.74 10.74 0 0 0-1.543.35c-1.473.56-2.104 2.666-.35 3.928.842.56 1.824 1.052 2.736 1.473 1.193.56 2.385 1.052 3.367 2.034.912.982.982 2.666.35 3.718-.63 1.122-1.613 1.754-2.806 2.175a8.18 8.18 0 0 1-4.49.421l-3.087-.63a.44.44 0 0 1-.35-.35c-.14-.5-.07-1.122-.07-1.894m24.57-2.936c-.42.14-.842.28-1.193.5l-2.666 1.333c-.63.35-.772 1.122-.63 1.824.14.56.7 1.052 1.403 1.122.42.07.772.07 1.193 0 .772-.07 1.613-.772 1.754-1.543.14-.982.14-1.964.2-2.876 0-.14-.07-.28-.07-.35m2.876 5.682l-2.455.14-.35-1.403c-.07 0-.14-.07-.2-.07l-.842.982c-.5.5-1.122.63-1.754.7-.842.07-1.684 0-2.525-.28-1.613-.63-2.245-2.525-.842-3.718.56-.42 1.122-.842 1.754-1.122l3.578-1.403c.5-.2.772-.56.772-1.122 0-.42 0-.912-.07-1.333-.14-.7-.63-.982-1.263-1.122s-1.333-.14-1.894.14c-.28.14-.56.5-.772.772l-.42.7c-.28.42-1.052.63-1.543.35-.5-.2-.63-.912-.28-1.403.42-.5.982-.772 1.543-.982 1.403-.42 2.806-.56 4.28-.35.63.07 1.263.28 1.894.56.42.2.63.7.63 1.193v6.103c0 .982.07 1.894.772 2.666"/><use xlink:href="#B"/><use xlink:href="#B" x="17.538"/><path d="M86.4 43.117h-2.876v-.2c.42-.63.35-1.403.35-2.104V35.2c0-.35 0-.772-.07-1.122s-.28-.7-.42-1.122h1.052c.28 0 .56-.07.842-.07s.5.07.5.42v.28c.07.14.14.28.14.35.07-.07.2-.14.28-.2.842-.842 2.245-1.473 3.437-.912.35.14.5.5.28 1.052a.79.79 0 0 1-.56.35H87.6c-.7 0-1.333.14-1.613.842a2.52 2.52 0 0 0-.14.772l.07 5.893.5 1.403m-63.062-10.2c.2 0 .42-.07.56-.07l1.473-.2c.28-.07.42 0 .42.35V39.6c0 1.193-.14 2.385.42 3.507h-2.946c.56-1.052.5-2.175.5-3.227V34.7c0-.842 0-1.052-.42-1.754m3.07-2.596c-.07.07-.2.07-.28.14l-1.473.772c-.07.07-.28 0-.35-.07-.35-.35-.7-.772-.982-1.122-.07-.07.07-.28.14-.35l1.473-.842a.45.45 0 0 1 .421 0 8.17 8.17 0 0 1 .982 1.193s0 .07.07.14c-.07.14-.07.14 0 .14"/></g><defs ><path id="B" d="M54.132 33.016c.07.49-.28.56-.49.63-.49.07-.982.14-1.543.14-.28 0-.42.07-.42.42v6.805c0 .63.35 1.333 1.263 1.193.49-.07 1.052-.2 1.543-.35.14.56 0 .982-.7 1.263-.842.35-1.684.49-2.596.28-.982-.28-1.473-1.052-1.473-1.964v-7.225c0-.35-.14-.49-.49-.49h-.35c-.28 0-.35-.07-.35-.35s.07-.42.35-.42c.842-.07.842-.07.842-.912l.07-1.613c0-.14.2-.35.35-.42.42-.14.842-.2 1.263-.35.35-.07.28.14.28.35v2.385c0 .49 0 .49.49.49.7.14 1.333.14 1.964.14"/></defs></svg>