<svg xmlns="http://www.w3.org/2000/svg" width="120" height="60"><defs><linearGradient id="A" x2="116.626" x1="116.626" y2="60" y1="-173" gradientUnits="userSpaceOnUse"><stop stop-color="#111d2e" offset="0"/><stop stop-color="#051839" offset=".212"/><stop stop-color="#0a1b48" offset=".407"/><stop stop-color="#132e62" offset=".581"/><stop stop-color="#144b7e" offset=".738"/><stop stop-color="#136497" offset=".873"/><stop stop-color="#1387b8" offset="1"/></linearGradient></defs><g transform="translate(.934)"><path d="M4.89-23c14.393 48 58.916 83 111.6 83C180.84 60 233 7.84 233-56.5S180.84-173 116.5-173C54.76-173 4.24-124.97.25-64.24 7.8-51.58 10.732-43.75 4.892-23z" fill="url(#A)" transform="matrix(.154455 0 0 .154455 4.485502 38.726725)"/><path d="M21.553 25.493l.002.09-4.403 6.396c-.713-.032-1.43.093-2.108.372-.3.122-.58.272-.843.445l-9.67-3.98c0 0-.224 3.68.71 6.424l6.835 2.82c.343 1.534 1.395 2.88 2.948 3.526 2.54 1.06 5.468-.148 6.524-2.69a5.01 5.01 0 0 0 .385-2.056l6.3-4.502.154.003c3.77 0 6.835-3.074 6.835-6.848a6.85 6.85 0 0 0-6.835-6.846 6.85 6.85 0 0 0-6.835 6.846zm-1.056 12.962c-.818 1.963-3.074 2.894-5.035 2.077-.905-.377-1.588-1.067-1.982-1.89l2.225.922c1.446.602 3.105-.083 3.706-1.53a2.84 2.84 0 0 0-1.526-3.712l-2.3-.953c.887-.337 1.896-.35 2.84.043a3.82 3.82 0 0 1 2.079 2.091c.39.95.39 2.002-.006 2.95m7.89-8.4c-2.5 0-4.553-2.047-4.553-4.562s2.043-4.56 4.553-4.56 4.555 2.047 4.555 4.56-2.043 4.562-4.555 4.562m-3.412-4.57c0-1.893 1.532-3.428 3.42-3.428s3.42 1.535 3.42 3.428-1.532 3.426-3.42 3.426-3.42-1.534-3.42-3.426z" fill="#fff"/><path d="M113.623 36.72h-2.444V28.9l-2.85 5.09h-1.63l-2.444-5.09v7.82h-2.85V23.28h2.85l3.258 7.25 3.666-7.25h2.444zm-15.884 0h-2.85l-.815-2.362h-4.48l-.815 2.362h-2.85l4.887-13.44h2.036zm-4.073-4.602l-1.63-4.887-1.63 4.887zm-11.81 4.602h-8.96V23.28h8.96V25.6h-6.11v3.177h5.295V31.1h-5.295v3.3h6.11zM68.82 25.6h-3.258v11.12h-2.85V25.6h-3.666V23.28h9.775zM55.787 32.77c0 2.77-2.444 4.032-4.887 4.073-2.444 0-4.073-.57-4.887-1.792l1.63-1.67c.815.733 1.63 1.14 3.258 1.14s2.444-.57 2.444-1.67c0-1.018-.815-1.466-1.63-1.63l-1.63-.204c-2.444-.326-3.666-1.588-3.666-3.788 0-1.222.407-2.2 1.222-2.973.815-.733 2.036-1.1 3.258-1.1 2.036 0 3.258.53 4.48 1.548l-1.63 1.67c-.815-.61-1.63-.937-2.85-.937-1.222.08-2.036.53-2.036 1.71 0 .937.815 1.385 1.63 1.466l1.63.244c2.036.244 3.666 1.63 3.666 3.9z"/></g></svg>