<svg xmlns="http://www.w3.org/2000/svg" width="256" height="159"><defs><clipPath id="A"><path d="M0 2744.02V0h4430.07v2744.02"/></clipPath></defs><g clip-path="url(#A)" transform="matrix(.057787 0 0 -.057787 0 158.5684)"><path d="M4405.4 1104.5s-56.96 57.66-106.4 79.9c-49.5 22.3-47.05 44.57-76.7 47-29.7 2.5-84.08 12.4-128.6 32.17-44.53 19.84-170.63 71.72-225.06 101.4-54.44 29.7-89.12 51.97-103.95 64.36-14.82 12.37-39.6 10.73-86.54 3.28 0 0-133.6-30.52-180.6-52.73-47-22.32-153.4-81.68-170.74-96.47 0 0-19.57 0-26.9-9.36-.94.63-1.82 1.33-2.76 1.88-12.36 7.48-91.52 84.12-91.52 84.12-39.6 34.62-106.4 106.34-148.42 141.03-42.07 34.6-211.52 88.33-281.95 81.56-65.98-6.24-97.03-49.4-114.08-91.43-13.83 24.5-29.3 49.22-44.24 66.68l-54.43 64.36s-44.54 0-89.07-29.68c-26.95-17.98-64.8-58.68-90.47-87.97-21.44-.4-38.67-5.57-48.04-13.45-32.1-27.2-215.16-155.86-222.54-187.97-4.7-20.06-12.2-33.34-21.97-40.55-14.65 14.7-44.13 27.7-77 13.3l-6.68-2.83-23.03 346.66c-7.44 29.68-22.26 51.95-47.05 39.58-24.73-12.33-46.93-47.02-46.93-84.1 0-37.06 14.85-56.83 19.77-71.72 4.13-12.42 8.3-195.88 16.85-267.5-32.64-18-62.55-40.35-71.25-66.43-17.32-51.95-14.88-71.7-29.7-86.58-1.93-1.93-4.86-4.04-8.2-6.2-10.6 10.14-23 20.2-32.7 30.12-5.2 22.5-6.62 47.98 13.68 60.17 24.76 14.87 24.76 111.35 0 121.25l-24.75 9.87s44.56 165.76 34.7 259.7c-9.94 94.1-19.8 193-39.6 207.86-19.78 14.8-61.82 7.4-61.82 7.4l-128.6-74.2c-71.75-42.04-200.4-131.1-220.2-160.78-19.74-29.68-101.37-116.25-101.37-116.25l-5.7-7.27c-63.3 8.53-130.63 10.87-169.95-2.66-79.16-27.2-249.812-128.58-277.03-190.46-22.383-50.85-46.406-95.05-48.7-150.42-31.055-66.27-47.93-179.998 26.425-339.38 0 0 44.532-27.13 113.8-19.75 15.234 1.6 37.324 2.293 61.8 4.812C896.484 637.8 822.22 539.88 793.887 511.64c-42.04-42.07-311.66-279.55-356.192-291.9-44.53-12.42-59.355-7.44-22.265-27.2 37.1-19.797 103.066-4.98 126.972 29.7 23.907 34.57 56.075 91.46 83.32 118.648 27.187 27.25 170.625 116.313 182.988 133.6 12.22 17.05 218.8 223.774 241.4 265.32 14.97 7.26 28.5 16.703 39.43 29.062 12 .938 23.26 3.277 33.34 7.438 66.8 27.2 173.15 111.273 225.06 185.453 29.94 42.768 56.6 88.828 70.96 126.848 27.7 21.8 49.8 37.33 57.7 38.9 24.73 4.98 64.3 17.34 64.3-24.67 0-42.07 42.04-133.588 79.13-188.022 37.15-54.437 86.6-98.97 86.6-98.97s-2.5-22.257 22.27-24.73c24.72-2.457 46.96 4.93 51.9-7.438 11.95-29.82 64.34-7.382 89.03 14.83 24.76 22.32 34.7-14.83 69.3 7.44 34.7 22.2 49.48 51.97 49.48 91.578 0 16.883-8.17 31.4-20.7 41.313l3.4 3.16s29.5-2.114 58.88 7.386c-2.2-13.066-2.2-29.648.47-51.86 7.4-61.867 49.53-101.48 74.2-101.48 24.78 0 42.07-27.188 42.07-27.188s-2.46-46.992 32.22-56.902c34.58-9.9 128.56 34.633 150.83 54.383 22.26 19.796 66.8-29.653 86.54-71.723 19.8-42.008 123.7-217.68 160.84-259.75 37.1-42.008 86.54-111.27 133.53-170.617 47.05-59.364 20.1-65.4 34.98-65.4 14.83 0 4.93-9.902 17.3-22.27 12.36-12.422 79.16-51.9 96.5-64.27 17.3-12.37 89.07-37.152 98.9-29.7 9.9 7.38 14.82 32.1 14.82 32.1s-12.36-4.92-61.8 12.418c-49.52 17.293-113.8 59.3-121.23 71.723-7.45 12.36-29.65 22.258-29.65 22.258s-66.27 77.762-105.88 154.402l-67.62 155.86c-34.57 76.7-148.36 301.757-197.87 314.12-49.5 12.418-111.33-2.403-145.96-32.114-34.57-29.707-49.45-19.796-66.73-7.437-17.35 12.36 2.5 42.07-7.45 84.078-3.5 14.94-10.72 38.262-21.27 60.23 11.55 1.53 21.45 8.27 26.25 21.4 9.9 27.25 7.4 39.6 42.02 34.7 5.15-.76 12.77-1.4 22.32-1.52-4.98-8.85-8.03-16.35-8.2-21.1-.94-27.652 21.1-77.992 53.84-90.17 32.76-12.188 171.5-72.66 200.63-43.598 29.12 29.117 158.38 99.73 181.35 112.5 23.02 12.66 65.33 21.27 79.86 18.05 14.53-3.114 44.3-110.864 95.16-202.9 50.9-91.993 42.48-130.66 75.7-117.66 33.22 13.008 32.58-24.84 63.16-23.84 30.6.988 36.1-20.512 53.97-54.73 17.87-34.28 36.56-76.35 80.57-83.383 44.06-7.027 218.96-52.558 238.94-41.777 20.16 10.84 21.1 38.5-29.7 49.508-50.74 11.02-169.57 11.55-196 29.953-26.43 18.34-33.05 116.008-61 127.137-27.9 11.14-70.37 25.43-75.53 36.68-4.4 9.614-103.94 186.043-142.32 280.203 50.57-21.562 128.5-52.1 176.07-67.382 69.26-22.27 188.03-59.36 237.48-59.36 31.35 0 43.77 10.96 48.7 18.992 3.34-8.62 6.2-15.42 8.26-18.992 9.84-17.277 24.67-29.7 24.67-29.7s-4.93-9.84 9.9-17.277c14.82-7.44 116.3-22.27 153.4-56.902 37.1-34.618 89.06-101.418 93.98-163.24 4.98-61.808 44.47-128.6 64.28-131.13 19.8-2.46 42.07 0 22.26 84.08-19.74 84.14-49.45 150.878-96.44 188.03-47 37.148-168.22 96.437-183.05 103.937-14.88 7.4-34.57 27.192-42.07 27.192-7.44 0-4.92 7.38-17.28 49.45-2.17 7.45-4.34 15.7-6.57 24.5 3.23 8.262 14.65 39.6 18.93 81.9 4.92 49.4-17.34 158.22-37.1 185.5 0 0-2 17.4-2.4 31.64 6.15-3.07 12.36-3.54 17.22.47 14.83 12.4 54.38 64.37 116.25 91.53 61.88 27.27 121.18 51.97 190.43 56.95 69.26 4.92 79.16 9.84 79.16 9.84s32.17 4.95 69.32-14.82c37.1-19.78 257.23-131.1 289.4-143.5 32.17-12.37 81.63-34.63 116.3-61.82 34.57-27.22 61.76-24.7 61.76-24.7s24.73-27.24 61.88-51.97c37.1-24.72 49.45-37.1 71.7-42.07 22.27-4.92 66.8-28 9.97 53.67zm-2975.6 26.14c.88 9.5.12 17.63-2.7 24.08-4.57 10.72-5.33 27.7-4.28 46.1 12.25-7.56 37.06-22.87 59.42-34.43-17.46-8.6-34.1-22.03-52.45-35.74zm205.08 236.85c-37.1 24.75-106.34-2.52-131.07-14.86-20-10.02-57.9-16.78-71.54-19.04-5.04 17.73-15.06 36.4-34.8 46.3-18.16 9.02-61.1 20.62-110.9 29.24l78.72 84.52s59.36 4.92 101.43 34.6c42.04 29.65 202.85 190.5 225.06 202.85 22.26 12.4 42.07 7.4 37.15-29.65-4.93-37.15-29.68-188.03-32.17-244.92-2.46-56.87 2.5-173.1 2.5-173.1s-30.9-21.48-27.4-45.63c-9.1 1.82-16.23 2.74-19.63 3.58-9.9 2.44 19.8 101.37-17.35 126.13zm141.04-499.7c-14.88-19.74-32.17-9.84-32.17-9.84s-59.36 98.9-84.1 190.5c-3.05 11.25-6.33 21.4-9.76 30.6 19.57-3.93 37.68-4.16 51.8-18.23 16.58-16.58 30.47-57.95 44.65-77.928-10.3-32.692-13.33-47.93 17.22-58.18 37.1-12.363 69.26 4.976 69.26 4.976s4.48-5.386 11.9-11.777c-30.82-17.93-59.83-38.082-68.8-50.1zm737.12 677.8c24.73 34.63 49.46 34.63 56.9 7.4 4.5-16.3 17.87-76.5 27.83-121.9-23.6-4.6-40.9-8.44-51.62-13.8-20.4 27.72-43.95 47.7-67.9 61.47 8.96 19.83 18.75 44.38 34.8 66.85zm145.6-489.53s-201.2-40.67-238.42-60.4c-37.2-19.8-68.2-45.938-91.88-38.32-23.6 7.73 39.38 29.53 93.93 70.78 21.4 16.23 37.56 41.07 40.5 62.8 3.7 4.63 7.32 9.32 10.66 14.36 36.5 54.78 78.52 97.83 99.9 144.06 7.68-2.07 15.7-3.52 23.5-3.95 2-46.5 23.56-83.22 39.9-112.87 11.3-20.68 38.56-44.7 67.9-66.68-17.4-2.58-33.45-6.33-46-9.78zm371.6-4.4c-18.58-18.57-40.25-24.72-92.8 46.35-52.5 71.17-1.06 109.14 30.93 105.1 24.73-3.1 24.73-9.2 49.52-46.33 24.72-37.1 30.87-86.54 12.36-105.12" fill="#a81c7d"/><path d="M182.898 20L15.1 89.762v44.058l167.808 69.62v-52.46L80.914 111.72l101.984-39.547V20m276.786 19.38h-75.606L373.246 3.75h-68.308L386.07 220.3h73.3L540.563 3.75h-70.06l-10.82 35.63zm-14.16 46.87l-23.554 77.9-23.653-77.9h47.207m222.03 134.05h111.218c24.223 0 42.372-5.758 54.434-17.278 12.063-11.53 18.098-27.93 18.098-49.222 0-21.868-6.578-38.957-19.723-51.27-13.148-12.32-33.22-18.48-60.203-18.48H734.74V3.75h-67.187V220.3zm67.187-92.5h16.446c12.937 0 22.027 2.25 27.257 6.742 5.24 4.488 7.86 10.25 7.86 17.258 0 6.812-2.278 12.6-6.817 17.332-4.547 4.738-13.093 7.1-25.636 7.1h-19.1v-48.44m364.52-88.412h-75.6l-10.82-35.63h-68.32l81.13 216.56h73.3l81.2-216.56h-70.06l-10.82 35.63zm-14.16 46.87l-23.56 77.9-23.65-77.9h47.2m360.95 5.95l58.75-17.64c-3.94-16.422-10.14-30.152-18.6-41.2-8.47-11.008-18.98-19.34-31.53-24.938C1442.1 2.8 1426.12 0 1406.73 0c-23.54 0-42.77 3.422-57.68 10.27-14.92 6.84-27.8 18.87-38.63 36.102s-16.24 39.3-16.24 66.168c0 35.84 9.52 63.402 28.56 82.652s45.98 28.868 80.82 28.868c27.26 0 48.7-5.508 64.3-16.547 15.6-11.032 27.2-27.98 34.77-50.84l-59.07-13.23c-2.06 6.637-4.22 11.5-6.47 14.57-3.74 5.16-8.3 9.117-13.7 11.886-5.4 2.782-11.44 4.16-18.1 4.16-15.12 0-26.7-6.098-34.76-18.3-6.1-9.06-9.13-23.3-9.13-42.68 0-24.03 3.63-40.492 10.9-49.398 7.26-8.902 17.47-13.363 30.63-13.363 12.76 0 22.4 3.582 28.94 10.73s11.27 17.543 14.2 31.152m197.3 128.12h66.87V144.4h73.13v75.93h67.2V3.75h-67.2v87.5h-73.13V3.75h-66.87V220.3m357.1 0h179.7v-46.25h-112.5V139.7h104.38V95.63h-104.38V52.8h115.63V3.75h-182.82V220.3m664.1-180.93h-75.6l-10.83-35.63h-68.3l81.13 216.56h73.3l81.2-216.56h-70.05l-10.82 35.63zm-14.16 46.87l-23.56 77.9-23.65-77.9h47.2m222.66 134.06h62.36l81.7-119.95V220.3h63.13V3.75h-63.13l-81.25 119.3V3.75h-62.8V220.3m342.42 0h203.13v-53.43h-68.13V3.75h-66.87v163.13h-68.13v53.43m332.97-148.138l102 39.547-102 39.26v52.46l167.8-69.62V89.762L3548.47 20v52.172" fill="#231f20"/><path d="M0 423.22l2768.16 2320.8h15.82l990.76-2320.8H0" fill="#fff"/><path d="M2462.77 1090.9c-2.93-21.74-19.1-46.58-40.5-62.8-54.55-41.25-117.54-63.05-93.93-70.78 23.68-7.618 54.67 18.5 91.88 38.32 37.2 19.74 238.42 60.4 238.42 60.4 12.54 3.45 28.6 7.2 46 9.78-29.35 21.97-56.6 46-67.9 66.68-16.34 29.65-37.9 66.37-39.9 112.87-7.8.43-15.82 1.88-23.5 3.95-21.38-46.23-63.4-89.28-99.9-144.06-3.34-5.04-6.97-9.73-10.66-14.36m135 340.14l-27.83 121.9c-7.44 27.24-32.17 27.24-56.9-7.4-16.05-22.47-25.84-47.02-34.8-66.85 23.96-13.77 47.52-33.75 67.9-61.47 10.72 5.36 28 9.2 51.62 13.8m370.6-227.92c-32 4.04-83.43-33.93-30.93-105.1 52.56-71.07 74.23-64.92 92.8-46.35 18.5 18.58 12.36 68.03-12.36 105.12-24.8 37.13-24.8 43.22-49.52 46.33m-1390.3 495.84l128.6 74.2s42.04 7.4 61.82-7.4c19.8-14.85 29.67-113.76 39.6-207.86 9.87-93.93-34.7-259.7-34.7-259.7l24.75-9.87c24.76-9.9 24.76-106.38 0-121.25-20.3-12.2-18.9-37.67-13.68-60.17 9.7-9.9 22.1-19.98 32.7-30.12 3.34 2.17 6.27 4.28 8.2 6.2 14.83 14.88 12.4 34.63 29.7 86.58 8.7 26.08 38.6 48.44 71.25 66.43-8.56 71.62-12.72 255.08-16.85 267.5-4.92 14.9-19.77 34.66-19.77 71.72 0 37.1 22.2 71.78 46.93 84.1 24.8 12.37 39.6-9.9 47.05-39.58 6.04-23.93 18.46-257.6 23.03-346.66l6.68 2.83c32.88 14.4 62.36 1.4 77-13.3 9.78 7.2 17.28 20.5 21.97 40.55 7.38 32.1 190.43 160.78 222.54 187.97 9.37 7.88 26.6 13.04 48.04 13.45 25.67 29.3 63.52 70 90.47 87.97 44.53 29.68 89.07 29.68 89.07 29.68l54.43-64.36c14.94-17.46 30.4-42.2 44.24-66.68 17.05 42.04 48.1 85.2 114.08 91.43 70.43 6.77 239.88-46.96 281.95-81.56 42-34.7 108.8-106.4 148.42-141.03 0 0 79.16-76.64 91.52-84.12.94-.55 1.82-1.25 2.76-1.88 7.32 9.36 26.9 9.36 26.9 9.36 7.1 6.04 29.06 19.47 55.67 34.83L2783.94 2720h-15.82L1450.8 1615.5c43.04 30.77 91.93 62.73 127.2 83.4m526.88-902.84c-24.67 0-66.8 39.613-74.2 101.48-2.66 22.2-2.66 38.793-.47 51.86-29.38-9.5-58.88-7.386-58.88-7.386l-3.4-3.16c12.54-9.903 20.7-24.43 20.7-41.313 0-39.6-14.8-69.367-49.48-91.578-34.6-22.27-44.53 14.88-69.3-7.44-24.7-22.2-77.08-44.65-89.03-14.83-4.95 12.368-27.2 4.98-51.9 7.438-24.76 2.473-22.27 24.73-22.27 24.73s-49.45 44.532-86.6 98.97c-37.1 54.434-79.13 145.952-79.13 188.022 0 42-39.58 29.65-64.3 24.67-7.9-1.58-30-17.1-57.7-38.9-14.36-38.02-41.02-84.08-70.96-126.848-51.9-74.18-158.26-158.262-225.06-185.453-10.08-4.16-21.33-6.5-33.34-7.438-10.93-12.36-24.46-21.8-39.43-29.062-22.62-41.547-229.2-248.27-241.4-265.32-7.1-9.898-57.188-43.36-103.828-75.226H2606.97c-10.5 13.117-20.45 25.25-29.6 35.617-37.15 42.07-141.04 217.742-160.84 259.75-19.75 42.07-64.28 91.52-86.54 71.723-22.27-19.75-116.25-64.282-150.83-54.383-34.68 9.9-32.22 56.902-32.22 56.902s-17.3 27.188-42.07 27.188M793.887 511.64c28.333 28.24 102.597 126.15 163.215 205.14-24.465-2.52-46.555-3.222-61.8-4.812-69.258-7.38-113.8 19.75-113.8 19.75-57 122.23-60.293 217.44-44.793 285.12L0 399.262h668.88c58.238 50.386 108.72 96.1 125.008 112.38M3339.2 1231.4c-4.86-4-11.07-3.54-17.22-.47.4-14.24 2.4-31.64 2.4-31.64 19.75-27.27 42-136.1 37.1-185.5-4.28-42.302-15.7-73.65-18.93-81.9l6.57-24.5c12.36-42.07 9.84-49.45 17.28-49.45 7.5 0 27.2-19.8 42.07-27.192 14.83-7.5 136.06-66.8 183.05-103.937 47-37.153 76.7-103.9 96.44-188.03 19.8-84.08-2.46-86.54-22.26-84.08-19.8 2.52-59.3 69.32-64.28 131.13-4.92 61.82-56.9 128.62-93.98 163.24-37.1 34.632-138.58 49.46-153.4 56.902-14.83 7.437-9.9 17.277-9.9 17.277s-14.83 12.434-24.67 29.7c-2.05 3.57-4.92 10.37-8.26 18.992-4.93-8.03-17.35-18.992-48.7-18.992-49.45 0-168.22 37.1-237.48 59.36-47.57 15.293-125.5 45.82-176.07 67.382 38.38-94.16 137.93-270.6 142.32-280.203 5.16-11.25 47.64-25.54 75.53-36.68 27.95-11.13 34.57-108.797 61-127.137 26.42-18.402 145.25-18.934 196-29.953 50.8-11.008 49.87-38.668 29.7-49.508-19.98-10.78-194.88 34.75-238.94 41.777-44 7.032-62.7 49.102-80.57 83.383-17.87 34.22-23.38 55.72-53.97 54.73-30.58-1-29.94 36.847-63.16 23.84-33.22-13-24.8 25.668-75.7 117.66-50.86 92.046-80.63 199.796-95.16 202.9-14.53 3.218-56.84-5.4-79.86-18.05-22.97-12.77-152.23-83.383-181.35-112.5-29.12-29.063-167.87 31.4-200.63 43.598-32.75 12.18-54.78 62.52-53.84 90.17.17 4.75 3.22 12.25 8.2 21.1-9.55.1-17.17.76-22.32 1.52-34.63 4.92-32.1-7.44-42.02-34.7-4.8-13.12-14.7-19.86-26.25-21.4 10.55-21.97 17.76-45.3 21.27-60.23 9.96-42.008-9.9-71.72 7.45-84.078 17.28-12.36 32.16-22.27 66.73 7.437 34.63 29.7 96.45 44.532 145.96 32.114 49.5-12.364 163.3-237.422 197.87-314.12l57.66-132.13h1129.86l-378.5 886.658c-28.42-23.15-47.64-46.74-57.02-54.53m-2088.45 183.28l5.7 7.27s79.43 84.3 100.5 115l-141.15-118.36c11.66-1.08 23.38-2.34 34.95-3.9m450.9-353.87c-14.12 14.07-32.23 14.3-51.8 18.23 3.43-9.2 6.7-19.34 9.76-30.6 24.75-91.58 84.1-190.5 84.1-190.5s17.3-9.9 32.17 9.84c8.96 12.02 37.97 32.17 68.8 50.1-7.42 6.4-11.9 11.777-11.9 11.777s-32.17-17.34-69.26-4.976c-30.55 10.25-27.53 25.488-17.22 58.18-14.18 19.978-28.07 61.348-44.65 77.928m-9.9 670.32c-22.2-12.36-183.02-173.2-225.06-202.85-42.07-29.68-101.43-34.6-101.43-34.6l-78.72-84.52c49.78-8.62 92.73-20.22 110.9-29.24 19.75-9.9 29.77-28.56 34.8-46.3 13.65 2.26 51.53 9.02 71.54 19.04 24.73 12.34 93.98 39.6 131.07 14.86 37.15-24.76 7.44-123.7 17.35-126.13 3.4-.84 10.54-1.76 19.63-3.58-3.52 24.15 27.4 45.63 27.4 45.63s-4.95 116.24-2.5 173.1c2.5 56.9 27.24 207.77 32.17 244.92 4.92 37.06-14.9 42.04-37.15 29.65m-209.53-564.7c-22.36 11.56-47.17 26.87-59.42 34.43-1.05-18.4-.3-35.37 4.28-46.1 2.8-6.45 3.57-14.6 2.7-24.08 18.34 13.7 35 27.13 52.45 35.74" fill="#a81c7d"/></g></svg>