<?xml version="1.0" encoding="UTF-8" standalone="no"?>
<!-- Generator: Adobe Illustrator 22.1.0, SVG Export Plug-In . SVG Version: 6.00 Build 0)  -->

<svg
   xmlns:dc="http://purl.org/dc/elements/1.1/"
   xmlns:cc="http://creativecommons.org/ns#"
   xmlns:rdf="http://www.w3.org/1999/02/22-rdf-syntax-ns#"
   xmlns:svg="http://www.w3.org/2000/svg"
   xmlns="http://www.w3.org/2000/svg"
   xmlns:sodipodi="http://sodipodi.sourceforge.net/DTD/sodipodi-0.dtd"
   xmlns:inkscape="http://www.inkscape.org/namespaces/inkscape"
   version="1.1"
   id="Layer_1"
   x="0px"
   y="0px"
   viewBox="0 0 64 63.999997"
   xml:space="preserve"
   sodipodi:docname="rouguewave-icon.svg"
   width="64"
   height="64"
   inkscape:version="0.92.3 (2405546, 2018-03-11)"><metadata
   id="metadata163"><rdf:RDF><cc:Work
       rdf:about=""><dc:format>image/svg+xml</dc:format><dc:type
         rdf:resource="http://purl.org/dc/dcmitype/StillImage" /><dc:title></dc:title></cc:Work></rdf:RDF></metadata><defs
   id="defs161">
	
	
	
	
	
	
	
	
	
	
	
	
</defs><sodipodi:namedview
   pagecolor="#ffffff"
   bordercolor="#666666"
   borderopacity="1"
   objecttolerance="10"
   gridtolerance="10"
   guidetolerance="10"
   inkscape:pageopacity="0"
   inkscape:pageshadow="2"
   inkscape:window-width="1920"
   inkscape:window-height="1001"
   id="namedview159"
   showgrid="false"
   inkscape:zoom="3.4242424"
   inkscape:cx="81.249199"
   inkscape:cy="14.019625"
   inkscape:window-x="-9"
   inkscape:window-y="-9"
   inkscape:window-maximized="1"
   inkscape:current-layer="Layer_1" />
<style
   type="text/css"
   id="style2">
	.st0{fill:#238DC1;}
	.st1{fill:#002B49;}
	.st2{fill:#236092;}
</style>

<g
   id="g1118"
   transform="matrix(4.0160692,0,0,4.0160692,-20.080346,-82.246895)"><g
     transform="matrix(0.14050301,0,0,0.14050301,4.3621808,21.035908)"
     id="g142">
		<path
   class="st2"
   d="M 42.2,26 C 26.9,26 4.8,32.8 4.8,32.8 3.4,39.3 8.1,42.5 8.1,42.5 25,36.2 43.9,36.2 43.9,36.2 h 37.5 c 3.2,-5.4 0,-10.3 0,-10.3 H 42.2 Z"
   id="path136"
   inkscape:connector-curvature="0"
   style="fill:#236092" />
		<path
   class="st2"
   d="m 42.2,54.6 c -15.3,0 -37.4,6.8 -37.4,6.8 -1.4,6.5 3.3,9.7 3.3,9.7 16.9,-6.3 35.8,-6.3 35.8,-6.3 h 37.5 c 3.2,-5.4 0,-10.3 0,-10.3 H 42.2 Z"
   id="path138"
   inkscape:connector-curvature="0"
   style="fill:#236092" />
		<path
   class="st2"
   d="M 42.2,83.1 C 26.9,83.1 4.8,90 4.8,90 3.4,96.5 8.1,99.7 8.1,99.7 25,93.4 43.9,93.4 43.9,93.4 h 37.5 c 3.2,-5.4 0,-10.3 0,-10.3 H 42.2 Z"
   id="path140"
   inkscape:connector-curvature="0"
   style="fill:#236092" />
	</g><g
     transform="matrix(0.14050301,0,0,0.14050301,4.3621808,21.035908)"
     id="g150">
		<path
   class="st0"
   d="m 80.3,79.4 c 15.3,0 37.4,-6.8 37.4,-6.8 1.4,-6.5 -3.3,-9.7 -3.3,-9.7 -16.9,6.3 -35.8,6.3 -35.8,6.3 H 41.1 c -3.2,5.4 0,10.3 0,10.3 h 39.2 z"
   id="path144"
   inkscape:connector-curvature="0"
   style="fill:#238dc1" />
		<path
   class="st0"
   d="m 80.3,50.9 c 15.3,0 37.4,-6.8 37.4,-6.8 1.4,-6.5 -3.3,-9.7 -3.3,-9.7 -16.9,6.3 -35.8,6.3 -35.8,6.3 H 41.1 c -3.2,5.4 0,10.3 0,10.3 h 39.2 z"
   id="path146"
   inkscape:connector-curvature="0"
   style="fill:#238dc1" />
		<path
   class="st0"
   d="m 80.3,22.3 c 15.3,0 37.4,-6.8 37.4,-6.8 C 119.1,9 114.4,5.8 114.4,5.8 97.5,12 78.6,12 78.6,12 H 41.1 c -3.2,5.4 0,10.3 0,10.3 z"
   id="path148"
   inkscape:connector-curvature="0"
   style="fill:#238dc1" />
	</g></g>

</svg>