<?xml version="1.0" encoding="UTF-8" standalone="no"?>
<!-- Generator: Adobe Illustrator 22.1.0, SVG Export Plug-In . SVG Version: 6.00 Build 0)  -->

<svg
   xmlns:dc="http://purl.org/dc/elements/1.1/"
   xmlns:cc="http://creativecommons.org/ns#"
   xmlns:rdf="http://www.w3.org/1999/02/22-rdf-syntax-ns#"
   xmlns:svg="http://www.w3.org/2000/svg"
   xmlns="http://www.w3.org/2000/svg"
   xmlns:sodipodi="http://sodipodi.sourceforge.net/DTD/sodipodi-0.dtd"
   xmlns:inkscape="http://www.inkscape.org/namespaces/inkscape"
   version="1.1"
   id="Layer_1"
   x="0px"
   y="0px"
   viewBox="0 0 120 59.999997"
   xml:space="preserve"
   sodipodi:docname="rouguewave-ar21.svg"
   width="120"
   height="60"
   inkscape:version="0.92.3 (2405546, 2018-03-11)"><metadata
   id="metadata163"><rdf:RDF><cc:Work
       rdf:about=""><dc:format>image/svg+xml</dc:format><dc:type
         rdf:resource="http://purl.org/dc/dcmitype/StillImage" /><dc:title></dc:title></cc:Work></rdf:RDF></metadata><defs
   id="defs161">
	
	
	
	
	
	
	
	
	
	
	
	
</defs><sodipodi:namedview
   pagecolor="#ffffff"
   bordercolor="#666666"
   borderopacity="1"
   objecttolerance="10"
   gridtolerance="10"
   guidetolerance="10"
   inkscape:pageopacity="0"
   inkscape:pageshadow="2"
   inkscape:window-width="1920"
   inkscape:window-height="1001"
   id="namedview159"
   showgrid="false"
   inkscape:zoom="3.4242424"
   inkscape:cx="81.249199"
   inkscape:cy="14.019625"
   inkscape:window-x="-9"
   inkscape:window-y="-9"
   inkscape:window-maximized="1"
   inkscape:current-layer="Layer_1" />
<style
   type="text/css"
   id="style2">
	.st0{fill:#238DC1;}
	.st1{fill:#002B49;}
	.st2{fill:#236092;}
</style>

<g
   id="g1262"
   transform="translate(1.4699599)"><g
     transform="matrix(0.88604338,0,0,0.88604338,11.781069,3.4186986)"
     id="g1147"><g
       id="g20"
       transform="matrix(0.14050301,0,0,0.14050301,4.3621808,21.035908)">
		<g
   id="g18">
			<path
   style="fill:#002b49"
   inkscape:connector-curvature="0"
   id="path16"
   d="M 211.5,86.4 H 193.4 L 170,59.4 H 155.4 V 86.3 H 140.2 V 5.7 c 12.8,0 25.6,0.1 38.3,0.1 19,0.1 29,12.8 29,26.7 0,11 -5.1,22.2 -20.4,25.3 l 24.4,27.5 z M 155.3,20 v 25.8 h 23.1 c 9.7,0 13.8,-6.5 13.8,-12.9 0,-6.4 -4.3,-12.9 -13.8,-12.9 z"
   class="st1" />
		</g>
	</g><g
       id="g26"
       transform="matrix(0.14050301,0,0,0.14050301,4.3621808,21.035908)">
		<g
   id="g24">
			<path
   style="fill:#002b49"
   inkscape:connector-curvature="0"
   id="path22"
   d="m 273.1,58.1 c 0,16.3 -11.2,29.6 -29.6,29.6 -18.4,0 -29.5,-13.2 -29.5,-29.6 0,-16.2 11.3,-29.6 29.4,-29.6 18.1,0 29.7,13.3 29.7,29.6 z m -45,0 c 0,8.6 5.2,16.7 15.4,16.7 10.2,0 15.4,-8.1 15.4,-16.7 0,-8.5 -6,-16.8 -15.4,-16.8 -10.1,0 -15.4,8.2 -15.4,16.8 z"
   class="st1" />
		</g>
	</g><g
       id="g32"
       transform="matrix(0.14050301,0,0,0.14050301,4.3621808,21.035908)">
		<g
   id="g30">
			<path
   style="fill:#002b49"
   inkscape:connector-curvature="0"
   id="path28"
   d="m 327.4,23.9 10.4,7.8 -6.3,8.1 c 4.4,4.9 6,10.6 6,16.8 0,7 -2.7,16.9 -12,21.2 9.4,4.7 11.7,11.5 11.7,18.8 0,15.7 -12,25.3 -28.4,25.3 -16.5,0 -28.8,-10 -28.8,-25.3 h 13.9 c 0,7.4 6.8,12.2 14.9,12.2 8.1,0 14.4,-4.4 14.4,-12.2 0,-7.8 -7.4,-11.4 -14.4,-11.4 C 291,85.1 280,74.3 280,56.6 c 0,-17.7 12.9,-28.8 28.8,-28.8 4.5,0 9.1,0.6 13,3.2 z m -33.5,32.7 c 0,9.9 6.7,15.8 14.9,15.8 8.1,0 14.7,-6 14.7,-15.8 0,-9.8 -6.7,-16 -14.7,-16 -8.2,0 -14.9,6.1 -14.9,16 z"
   class="st1" />
		</g>
	</g><g
       id="g38"
       transform="matrix(0.14050301,0,0,0.14050301,4.3621808,21.035908)">
		<g
   id="g36">
			<path
   style="fill:#002b49"
   inkscape:connector-curvature="0"
   id="path34"
   d="m 360.8,29.6 v 29.7 c 0,8.6 4.7,15.2 13.7,15.2 8.6,0 14.5,-7.3 14.5,-15.9 v -29 h 13.9 v 56.9 h -12.5 l -0.9,-7.7 c -5.9,5.8 -11.3,8.5 -19.2,8.5 -13.6,0 -23.5,-10.2 -23.5,-27.9 V 29.6 Z"
   class="st1" />
		</g>
	</g><g
       id="g44"
       transform="matrix(0.14050301,0,0,0.14050301,4.3621808,21.035908)">
		<g
   id="g42">
			<path
   style="fill:#002b49"
   inkscape:connector-curvature="0"
   id="path40"
   d="m 427.4,63 c 0.9,7 7,12.1 16.9,12.1 5.2,0 12,-1.9 15.2,-5.3 l 9,8.9 c -6,6.2 -15.8,9.2 -24.4,9.2 -19.6,0 -31.2,-12.1 -31.2,-30.3 0,-17.3 11.7,-29.7 30.2,-29.7 19,0 30.8,11.7 28.7,35.1 z m 30.8,-11.6 c -0.9,-7.4 -6.7,-11 -14.7,-11 -7.6,0 -13.8,3.7 -15.9,11 z"
   class="st1" />
		</g>
	</g><g
       id="g50"
       transform="matrix(0.14050301,0,0,0.14050301,4.3621808,21.035908)">
		<g
   id="g48">
			<path
   style="fill:#002b49"
   inkscape:connector-curvature="0"
   id="path46"
   d="m 570.6,86.4 h -12.9 l -10,-25.3 -8.5,-25.4 -8.4,25.7 -9.8,25 H 508.1 L 478.5,5.8 h 17 l 19,58.1 19.6,-58.1 h 9.9 l 20.1,58.1 18.4,-58.1 h 17 z"
   class="st1" />
		</g>
	</g><g
       id="g56"
       transform="matrix(0.14050301,0,0,0.14050301,4.3621808,21.035908)">
		<g
   id="g54">
			<path
   style="fill:#002b49"
   inkscape:connector-curvature="0"
   id="path52"
   d="m 643.4,29.6 h 13.5 V 86.3 H 643.7 L 643,78 c -3.2,6.7 -12.1,9.9 -18.4,10 -16.8,0.1 -29.2,-10.2 -29.2,-30.2 0,-19.6 13,-29.8 29.6,-29.7 7.6,0 14.9,3.6 18.1,9.2 z M 609.3,58 c 0,10.8 7.5,17.3 16.8,17.3 22.1,0 22.1,-34.4 0,-34.4 -9.3,-0.1 -16.8,6.2 -16.8,17.1 z"
   class="st1" />
		</g>
	</g><g
       id="g62"
       transform="matrix(0.14050301,0,0,0.14050301,4.3621808,21.035908)">
		<g
   id="g60">
			<path
   style="fill:#002b49"
   inkscape:connector-curvature="0"
   id="path58"
   d="M 724,29.5 699.8,86.6 H 684.6 L 660.3,29.5 h 15.3 l 7.8,18.8 8.7,23.9 8.6,-23.7 7.8,-19 H 724 Z"
   class="st1" />
		</g>
	</g><g
       id="g68"
       transform="matrix(0.14050301,0,0,0.14050301,4.3621808,21.035908)">
		<g
   id="g66">
			<path
   style="fill:#002b49"
   inkscape:connector-curvature="0"
   id="path64"
   d="m 742.8,63 c 0.9,7 7,12.1 16.9,12.1 5.2,0 12,-1.9 15.2,-5.3 l 9,8.9 c -6,6.2 -15.8,9.2 -24.4,9.2 -19.6,0 -31.2,-12.1 -31.2,-30.3 0,-17.3 11.7,-29.7 30.2,-29.7 19,0 30.8,11.7 28.7,35.1 z m 30.9,-11.6 c -0.9,-7.4 -6.7,-11 -14.7,-11 -7.6,0 -13.8,3.7 -15.9,11 z"
   class="st1" />
		</g>
	</g></g><g
     transform="matrix(1.6366862,0,0,1.6366862,-4.7994085,-16.559535)"
     id="g1118"><g
       id="g142"
       transform="matrix(0.14050301,0,0,0.14050301,4.3621808,21.035908)">
		<path
   style="fill:#236092"
   inkscape:connector-curvature="0"
   id="path136"
   d="M 42.2,26 C 26.9,26 4.8,32.8 4.8,32.8 3.4,39.3 8.1,42.5 8.1,42.5 25,36.2 43.9,36.2 43.9,36.2 h 37.5 c 3.2,-5.4 0,-10.3 0,-10.3 H 42.2 Z"
   class="st2" />
		<path
   style="fill:#236092"
   inkscape:connector-curvature="0"
   id="path138"
   d="m 42.2,54.6 c -15.3,0 -37.4,6.8 -37.4,6.8 -1.4,6.5 3.3,9.7 3.3,9.7 16.9,-6.3 35.8,-6.3 35.8,-6.3 h 37.5 c 3.2,-5.4 0,-10.3 0,-10.3 H 42.2 Z"
   class="st2" />
		<path
   style="fill:#236092"
   inkscape:connector-curvature="0"
   id="path140"
   d="M 42.2,83.1 C 26.9,83.1 4.8,90 4.8,90 3.4,96.5 8.1,99.7 8.1,99.7 25,93.4 43.9,93.4 43.9,93.4 h 37.5 c 3.2,-5.4 0,-10.3 0,-10.3 H 42.2 Z"
   class="st2" />
	</g><g
       id="g150"
       transform="matrix(0.14050301,0,0,0.14050301,4.3621808,21.035908)">
		<path
   style="fill:#238dc1"
   inkscape:connector-curvature="0"
   id="path144"
   d="m 80.3,79.4 c 15.3,0 37.4,-6.8 37.4,-6.8 1.4,-6.5 -3.3,-9.7 -3.3,-9.7 -16.9,6.3 -35.8,6.3 -35.8,6.3 H 41.1 c -3.2,5.4 0,10.3 0,10.3 h 39.2 z"
   class="st0" />
		<path
   style="fill:#238dc1"
   inkscape:connector-curvature="0"
   id="path146"
   d="m 80.3,50.9 c 15.3,0 37.4,-6.8 37.4,-6.8 1.4,-6.5 -3.3,-9.7 -3.3,-9.7 -16.9,6.3 -35.8,6.3 -35.8,6.3 H 41.1 c -3.2,5.4 0,10.3 0,10.3 h 39.2 z"
   class="st0" />
		<path
   style="fill:#238dc1"
   inkscape:connector-curvature="0"
   id="path148"
   d="m 80.3,22.3 c 15.3,0 37.4,-6.8 37.4,-6.8 C 119.1,9 114.4,5.8 114.4,5.8 97.5,12 78.6,12 78.6,12 H 41.1 c -3.2,5.4 0,10.3 0,10.3 z"
   class="st0" />
	</g></g></g>

</svg>