<svg xmlns="http://www.w3.org/2000/svg" width="64" height="64"><defs><linearGradient id="A" gradientUnits="userSpaceOnUse" x1="68.817" y1="53.417" x2="68.817" y2="15.236"><stop offset="0" stop-color="#482957"/><stop offset="1" stop-color="#c19ed3"/></linearGradient></defs><path d="M27.25 17.652l5.582 2.316c0 1.42-.115 5.748.772 7.025 9.282 11.955 7.72 35.92-1.88 36.534-14.62 0-20.197-9.932-20.197-19.06 0-8.325 9.98-13.86 15.94-18.778 1.514-1.325 1.25-4.252-.216-8.036z" fill="#fffcdb"/><path d="M62.826 26.5l1.247.636c-.117.82.06 2.64.88 3.108 3.636 2.258 7.066 4.72 8.415 7.183 4.808 8.68-3.372 16.712-10.438 15.95 3.84-2.844 4.955-8.68 3.52-15.04-.587-2.492-1.496-4.75-3.108-7.3-.7-1.252-.455-2.805-.514-4.535z" fill="url(#A)" transform="matrix(1.613209 0 0 1.613209 -68.516611 -22.849117)"/><path d="M35.082 4.78l-1.703 6.763c2.412-4.777 6.243-8.37 10.642-11.54-3.216 3.737-6.15 7.474-7.946 11.2 3.027-4.257 7.094-6.622 11.682-8.183-6.1 5.44-10.945 11.276-14.635 17.142l-2.932-1.277c.52-4.683 2.29-9.48 4.89-14.114z" fill="#abcd03"/><path d="M44.03 0c-2.187 2.335-5.973 6.432-8.003 10.012-1.73 3.054-2.918 5.77-3.578 7.597-.422 1.17-2.133 1.157-1.64-.776.005-.02.012-.033.017-.053.66-1.556 1.658-3.73 2.662-5.64l1.586-6.363c-.782 2.686-1.902 5.132-2.59 7.914.001 0-1.21 2.783-1.534 3.5-.1.24-.2.472-.282.688-.006.014-.013.022-.017.036-.137.305-.23.64-.3.934-.01.048-.008.077-.017.124-.09.418-.142.74-.142.74.493.425 2.926 1.48 2.926 1.48 3.69-5.865 8.545-11.71 14.647-17.15-4.588 1.56-8.66 3.92-11.686 8.18 1.798-3.737 4.733-7.474 7.95-11.2z" fill="#437202"/><path d="M32.59 19.782l.53.4c3.69-5.865 8.545-11.71 14.647-17.15-3.5 2.863-8.2 6.807-10.188 9.413-2.515 3.295-1.035.2-1.035.2s1.332-3.446 3.678-5.608c-1.363.65-3.725 3.6-4.14 4.174 0 0-1.774 3.443-2.763 6.558-.266.835-.73 2.015-.73 2.015z" fill="#153902"/><path d="M31.234 19.3v44.224h.493c9.602-.615 11.17-24.584 1.886-36.54-.887-1.277-.776-5.596-.776-7.015z" fill="#f3ecaa"/><path d="M31.866 19.538l4.162.568c-1.23 4.068 2.413 6.906 3.595 7.568 2.648 1.466 5.203 2.98 7.237 4.824 3.83 3.5 6.007 8.42 6.007 13.622 0 5.156-2.365 10.122-6.338 13.433C42.793 62.676 37.637 64 32.623 64c-3.122 0-5.913-.142-8.94-1.135-6.906-2.318-12.06-8.23-12.487-15.325-.38-5.534.85-9.744 5.156-14.143 2.223-2.318 6.716-4.966 9.79-7.095 1.514-1.04 3.122-3.973.047-9.507l.615-.473 4.556 3.052-3.847-1.586c.33.473 1.23 2.602 1.42 3.216.426 1.75.237 3.453-.142 4.2-1.94 3.5-5.25 4.446-7.662 6.433-4.257 3.5-8.892 6.29-8.372 15.893.237 4.73 3.926 10.5 9.46 13.197 3.122 1.514 6.717 2.13 10.36 2.317 3.263.142 9.507-1.797 12.913-4.635 3.642-3.027 5.676-7.615 5.676-12.298 0-4.73-1.892-9.224-5.44-12.393-2.034-1.845-5.392-4.068-7.473-5.25s-4.683-4.493-3.83-7.662z"/><path d="M30.59 26.54c-.426 2.176-.9 6.102-2.79 7.568L25.34 35.8c-3.405 2.318-6.81 4.493-8.372 10.075-.33 1.182-.047 2.46.237 3.642.85 3.405 3.263 7.095 5.156 9.27 0 .094.38.33.38.426 1.56 1.845 2.034 2.365 7.946 3.69l-.142.662c-3.547-.945-6.48-1.797-8.325-3.926 0-.047-.33-.38-.33-.38-1.987-2.27-4.4-6.054-5.298-9.602-.33-1.42-.615-2.507-.237-3.973 1.608-5.77 5.108-8.04 8.656-10.453.804-.52 1.75-.994 2.507-1.608 1.466-1.087 2.27-4.398 3.074-7.094z"/><path d="M32.102 35.526c.047 2.46-.193 3.694.422 5.444.378 1.04 1.656 2.46 2.035 3.83.52 1.845 1.087 3.88 1.04 5.108 0 1.42-.1 4.067-.703 6.905-.47 2.345-1.55 4.357-3.366 5.498-1.86-.383-4.046-1.038-5.336-2.143-2.507-2.176-4.727-5.814-5-8.983-.236-2.602 2.172-6.438 5.53-8.377 2.838-1.655 3.498-3.542 4.113-6.57-.85 2.65-1.65 4.87-4.394 6.288-3.973 2.08-6.012 5.575-5.823 8.886.284 4.257 1.988 7.14 5.347 9.46 1.42.993 4.07 2.043 5.725 2.327v-.216c1.255-.236 2.88-2.297 3.7-5.087.7-2.507 1-5.715.942-7.75-.047-1.182-.57-3.744-1.515-6.06-.52-1.277-1.32-2.554-1.84-3.453-.568-.9-.572-2.838-.856-5.108zM31.82 44.8c.047 1.655.712 3.776.996 5.953.237 1.608.134 3.224.087 4.643-.047 1.642-.594 4.586-1.342 6.018-.705-.324-.98-.693-1.44-1.288-.567-.804-.952-1.6-1.33-2.554-.284-.7-.615-1.522-.758-2.468a8.14 8.14 0 0 1 1.472-5.91c1.23-1.797 1.512-1.935 1.937-4.015-.568 1.845-1 2.033-2.316 3.593-1.466 1.703-1.7 4.2-1.7 6.245 0 .852.34 1.796.67 2.695.378.946.703 1.888 1.223 2.597.782 1.15 1.783 1.804 2.273 1.926.022.002.033.01.043.01v-.054c.918-1.023 1.47-2.04 1.656-3.063.237-1.23.3-2.462.433-3.93.142-1.23.04-2.886-.292-4.6-.472-2.128-1.27-4.298-1.6-5.8z"/><path d="M31.96 24.552c.047 2.46.236 7.048.898 8.845.19.615 1.94 3.31 3.17 6.574.852 2.27 1.04 4.35 1.183 4.966.568 2.696-.142 7.237-1.09 11.54-.472 2.317-2.08 5.203-3.925 6.338l-.378.662c1.04-.047 3.595-2.554 4.493-5.676 1.513-5.298 2.13-7.757 1.42-13.623-.094-.568-.33-2.506-1.23-4.588-1.324-3.17-3.216-6.196-3.453-6.81-.425-.993-.993-5.297-1.087-8.23z"/><path d="M32.848 21.19c-.14 2.528-.178 3.458.295 5.303.52 2.034 3.17 4.966 4.257 8.325 2.08 6.433 1.56 14.852.047 21.427-.568 2.317-3.264 5.676-5.96 6.764l1.987.473c1.088-.048 3.878-2.648 4.966-5.63 1.75-4.683 2.08-10.264 1.372-16.13-.048-.568-.994-5.63-1.892-7.757-1.277-3.17-3.547-6.007-3.784-6.622-.425-1.04-1.36-3.202-1.288-6.155z"/><path d="M31.344 19.4c.02-.002.04 1.13.058 3.312l.037 9.438.006 14.13-.022 16.686h.033l.044-39.12.028-4.44c-.12.002-.184-.003-.184-.008s.063-.01.198-.007l.028 4.397.023 9.717.02 29.617h-.348l-.022-16.754.006-14.187.037-9.466.058-3.317z"/></svg>