<?xml version="1.0" encoding="utf-8"?>
<!-- Generator: Adobe Illustrator 24.0.0, SVG Export Plug-In . SVG Version: 6.00 Build 0)  -->
<svg version="1.1" id="Layer_1" xmlns="http://www.w3.org/2000/svg" xmlns:xlink="http://www.w3.org/1999/xlink" x="0px" y="0px"
	 viewBox="0 0 120 60" width="120" height="60" style="enable-background:new 0 0 120 60;" xml:space="preserve">
<style type="text/css">
	.st0{fill:none;}
</style>
<rect x="-291" y="-212.2" class="st0" width="702.5" height="485.7"/>
<path d="M17.2,33.2c-2.2,0-3.6-1.1-3.6-3.2c0-2.1,1.4-3.2,3.6-3.2c1.8,0,3.2,0.7,3.5,2.1h3.4c-0.2-3-2.9-4.9-6.9-4.9
	c-4.1,0-6.9,2.4-6.9,6.1c0,3.7,2.8,6.1,6.9,6.1c4,0,6.7-2,6.9-4.9h-3.4C20.4,32.6,19.1,33.2,17.2,33.2z M78.4,31
	c0-2.3-2-3.8-5.1-3.8c-3,0-5.1,1.8-5.1,4.5s2,4.5,5.1,4.5c2.2,0,3.2-0.3,4.4-0.7v-2.5c-1.6,0.5-1.7,0.5-3.6,0.6
	c-1.4,0-2.2-0.4-2.5-1.1h6.7V31z M71.6,31.1c0.2-0.9,0.9-1.3,1.8-1.3c0.9,0,1.7,0.4,1.8,1.3H71.6z M57.1,23.9v4.3c0,0-0.7-1-2.6-1.1
	c-0.1,0-0.2,0-0.3,0c-1.5,0-2.3,0.7-2.3,0.7c-0.2,0.1-0.4,0.3-0.6,0.5c-0.8,0.8-1.1,1.9-1.1,3.3c0,1.4,0.4,2.5,1.1,3.3
	c0.7,0.7,1.4,1.1,2.3,1.2c0,0,0.1,0,0.1,0c0,0,0.1,0,0.1,0c0,0,0,0,0,0c0.1,0,0.1,0,0.2,0h0.1c1.1,0,1.8-0.4,2.3-0.7
	c0.4-0.3,0.7-0.8,0.7-1.3v1.9h3v-12H57.1z M56.7,33c-0.4,0.3-0.9,0.5-1.5,0.5c-0.6,0-1.1-0.2-1.5-0.5c-0.2-0.2-0.3-0.3-0.4-0.5
	c0,0,0,0,0,0c0,0,0-0.1,0-0.1c0,0,0,0,0-0.1c0,0,0-0.1,0-0.1c0,0,0-0.1,0-0.1c0,0,0-0.1,0-0.1c0,0,0-0.1,0-0.1c0,0,0,0,0-0.1
	c0-0.1,0-0.1,0-0.2c0-0.5,0.2-1,0.5-1.3c0.3-0.3,0.7-0.5,1.2-0.5c0.1,0,0.1,0,0.2,0c0.1,0,0.1,0,0.2,0c0,0,0,0,0.1,0
	c0,0,0.1,0,0.1,0c0,0,0,0,0.1,0c0,0,0.1,0,0.1,0c0,0,0,0,0.1,0c0.1,0,0.1,0,0.2,0c0,0,0,0,0.1,0c0,0,0.1,0,0.1,0c0,0,0.1,0,0.1,0
	c0,0,0,0,0.1,0c0,0,0.1,0,0.1,0c0,0,0,0,0,0c0.1,0,0.1,0.1,0.2,0.1l0,0c0,0,0.1,0.1,0.1,0.1c0,0,0,0,0,0c0,0,0.1,0.1,0.1,0.1l0,0
	c0.1,0.1,0.2,0.3,0.3,0.5c0.1,0.2,0.1,0.4,0.1,0.7C57.3,32.2,57.1,32.6,56.7,33z M108.7,28.1c-0.6-0.6-1.5-0.9-2.6-0.9
	c-0.3,0-0.6,0-0.8,0.1c-0.9,0.2-1.7,0.7-2.1,1.6c-0.1,0.3-0.2,0.5-0.2,0.5v-5.4h-3v12h3v-4.2c0-1.2,0.5-1.9,1.7-1.9
	c1.2,0,1.9,0.7,1.9,1.9v4.2h3v-5.1C109.7,29.6,109.4,28.7,108.7,28.1z M46.4,27.3v4.2c0,1.2-0.5,1.9-1.7,1.9c-1.2,0-1.9-0.7-1.9-1.9
	v-4.2h-3v5.1c0,1.2,0.3,2.1,0.9,2.8c0.6,0.6,1.5,0.9,2.6,0.9c0.1,0,0.1,0,0.2,0c0.1,0,0.1,0,0.2,0c1.9,0,2.5-1,2.6-1.7
	c0-0.1,0.1-0.2,0.1-0.3v1.8h0v0h3v-8.6H46.4z M85.9,27.3v1.5c0,0-0.5-1.6-2.9-1.6c-1.1,0-2.1,0.4-2.9,1.2c-0.8,0.8-1.1,1.9-1.1,3.3
	c0,0.5,0,0.9,0.1,1.3c0,0,0,0,0,0.1c0.1,0.6,0.4,1.1,0.7,1.5c0.4,0.6,1,1.1,2,1.4c0.4,0.1,0.9,0.1,1.3,0.1c2.4-0.1,2.7-1.5,2.8-2
	v1.8h3v-8.6H85.9z M84,33.5c-0.6,0-1.1-0.2-1.5-0.5c-0.4-0.3-0.5-0.8-0.5-1.3c0-0.5,0.2-1,0.5-1.3c0.4-0.3,0.8-0.5,1.5-0.5
	c0.6,0,1.1,0.2,1.5,0.5c0.4,0.3,0.5,0.8,0.5,1.3C86,32.8,85.2,33.5,84,33.5z M64.8,27.9c-0.4,0.4-0.7,0.8-0.8,1.4v-1.9h-3v8.6h3
	v-3.6c0-1.3,0.6-2.1,2.1-2.1c0.7,0,1.2,0.1,1.6,0.3v-3.4C66.3,27,65.4,27.4,64.8,27.9z M37.7,28.3c-0.9-0.8-2.1-1.2-3.7-1.2
	c-1.5,0-2.8,0.4-3.7,1.2c-0.9,0.8-1.4,1.9-1.4,3.3c0,1.4,0.5,2.5,1.4,3.3c0.9,0.8,2.1,1.2,3.7,1.2c1.5,0,2.7-0.4,3.7-1.2
	c0.9-0.8,1.4-1.9,1.4-3.3C39.1,30.2,38.6,29.1,37.7,28.3z M35.5,33c-0.4,0.3-0.8,0.5-1.4,0.5c-0.6,0-1.1-0.2-1.4-0.5
	c-0.4-0.3-0.5-0.8-0.5-1.4c0-0.6,0.2-1,0.5-1.4c0.4-0.3,0.8-0.5,1.4-0.5c0.6,0,1.1,0.2,1.4,0.5c0.4,0.3,0.5,0.8,0.5,1.4
	C36,32.2,35.8,32.7,35.5,33z M25.1,23.9v12h3v-12H25.1z M94.4,33.5c-0.8,0-2.1-0.2-2.1-1.8c0-1.6,1.3-1.8,2.1-1.8
	c0.7,0,1.8,0.1,2,1.1h3c-0.1-2.2-2.1-3.7-5-3.7c-3,0-5,1.8-5,4.5c0,2.7,2,4.5,5,4.5c2.9,0,4.8-1.5,5-3.7h-3
	C96.2,33.3,95,33.5,94.4,33.5z"/>
</svg>
