<?xml version="1.0" encoding="UTF-8" standalone="no"?>
<svg
   xmlns:dc="http://purl.org/dc/elements/1.1/"
   xmlns:cc="http://creativecommons.org/ns#"
   xmlns:rdf="http://www.w3.org/1999/02/22-rdf-syntax-ns#"
   xmlns:svg="http://www.w3.org/2000/svg"
   xmlns="http://www.w3.org/2000/svg"
   xmlns:sodipodi="http://sodipodi.sourceforge.net/DTD/sodipodi-0.dtd"
   xmlns:inkscape="http://www.inkscape.org/namespaces/inkscape"
   version="1.1"
   id="logo-typescript"
   viewBox="0 0 120 60"
   sodipodi:docname="typescript-ar21.svg"
   width="120"
   height="60"
   inkscape:version="0.92.3 (2405546, 2018-03-11)">
  <metadata
     id="metadata9">
    <rdf:RDF>
      <cc:Work
         rdf:about="">
        <dc:format>image/svg+xml</dc:format>
        <dc:type
           rdf:resource="http://purl.org/dc/dcmitype/StillImage" />
        <dc:title></dc:title>
      </cc:Work>
    </rdf:RDF>
  </metadata>
  <defs
     id="defs7" />
  <sodipodi:namedview
     pagecolor="#ffffff"
     bordercolor="#666666"
     borderopacity="1"
     objecttolerance="10"
     gridtolerance="10"
     guidetolerance="10"
     inkscape:pageopacity="0"
     inkscape:pageshadow="2"
     inkscape:window-width="1920"
     inkscape:window-height="1001"
     id="namedview5"
     showgrid="false"
     inkscape:zoom="1.197499"
     inkscape:cx="39.666002"
     inkscape:cy="34.785"
     inkscape:window-x="-9"
     inkscape:window-y="-9"
     inkscape:window-maximized="1"
     inkscape:current-layer="logo-typescript" />
  <path
     d="M 18.702339,19.447423 H 13.063706 V 36.913624 H 10.773374 V 19.447423 H 5.1463662 V 17.374111 H 18.702339 Z m 8.897803,3.514942 -6.417579,16.18346 c -1.143228,2.887135 -2.751498,4.332641 -4.82481,4.332641 -0.581303,0 -1.065721,-0.05813 -1.457132,-0.178266 v -2.003556 c 0.480544,0.162765 0.922334,0.244147 1.321494,0.244147 1.127727,0 1.972553,-0.670435 2.534479,-2.015182 l 1.116101,-2.642988 -5.448741,-13.920256 h 2.480223 l 3.77459,10.734718 c 0.04651,0.135638 0.139513,0.49217 0.286777,1.061846 h 0.08138 c 0.04651,-0.217019 0.135636,-0.561926 0.271274,-1.034718 l 3.964487,-10.761846 z m 3.654455,11.936077 h -0.05425 v 8.43276 H 28.964266 V 22.962365 h 2.236076 v 2.453097 h 0.05425 c 1.100599,-1.852418 2.704994,-2.778626 4.82481,-2.778626 1.798162,0 3.201039,0.623931 4.20863,1.871793 1.007591,1.247863 1.511386,2.922013 1.511386,5.022453 0,2.332961 -0.565801,4.204755 -1.701278,5.607632 -1.135478,1.402876 -2.689493,2.104314 -4.65817,2.104314 -1.809788,-0.0039 -3.204914,-0.78282 -4.185378,-2.344586 z m -0.05425,-5.627008 v 1.949301 c 0,1.154854 0.375909,2.131442 1.123852,2.937515 0.747942,0.806073 1.701278,1.205233 2.856132,1.205233 1.352497,0 2.414343,-0.519296 3.181663,-1.554014 0.767318,-1.034719 1.150978,-2.476348 1.150978,-4.31714 0,-1.554015 -0.360408,-2.770876 -1.077347,-3.650579 -0.716939,-0.879705 -1.689652,-1.321495 -2.914263,-1.321495 -1.298242,0 -2.344587,0.453416 -3.135157,1.356373 -0.790572,0.89908 -1.185858,2.030683 -1.185858,3.394806 z m 24.155055,1.224611 h -9.851139 c 0.03488,1.554014 0.453416,2.751498 1.251738,3.596324 0.798322,0.844826 1.898921,1.267239 3.297923,1.267239 1.569516,0 3.015021,-0.519297 4.33264,-1.554015 v 2.096565 c -1.22461,0.89133 -2.848382,1.336994 -4.863563,1.336994 -1.972553,0 -3.518818,-0.631681 -4.646544,-1.898921 -1.127728,-1.267239 -1.689653,-3.0499 -1.689653,-5.347981 0,-2.170197 0.61618,-3.941231 1.844666,-5.305354 1.232361,-1.367999 2.759249,-2.05006 4.584539,-2.05006 1.82529,0 3.235916,0.589053 4.235757,1.771034 0.99984,1.181982 1.499761,2.821255 1.499761,4.917819 v 1.170356 z M 53.06507,28.600999 c -0.0077,-1.290492 -0.321653,-2.294208 -0.933959,-3.011147 -0.612306,-0.71694 -1.464882,-1.077347 -2.553856,-1.077347 -1.054095,0 -1.949301,0.375908 -2.685616,1.131602 -0.736317,0.755693 -1.189734,1.740031 -1.364124,2.956892 z m 4.243508,7.522053 v -2.697243 c 0.2829,0.271274 0.620056,0.519297 1.015342,0.736316 0.395286,0.21702 0.809948,0.403037 1.247862,0.5503 0.437915,0.147263 0.875829,0.267399 1.313744,0.348782 0.44179,0.08138 0.848701,0.124011 1.220735,0.124011 1.286616,0 2.251578,-0.259649 2.887136,-0.782821 0.635557,-0.523172 0.953336,-1.27499 0.953336,-2.255454 0,-0.527047 -0.104635,-0.984338 -0.317779,-1.375749 -0.213145,-0.39141 -0.503795,-0.747943 -0.879705,-1.069596 -0.375908,-0.321655 -0.817698,-0.631682 -1.329245,-0.926209 -0.511546,-0.294526 -1.061845,-0.604555 -1.650898,-0.933959 -0.623932,-0.344907 -1.205234,-0.693688 -1.743907,-1.05022 -0.538675,-0.352657 -1.011467,-0.744066 -1.406752,-1.170356 -0.399162,-0.426288 -0.713065,-0.910706 -0.941711,-1.449381 -0.228646,-0.538673 -0.34103,-1.17423 -0.34103,-1.898921 0,-0.89133 0.178265,-1.662524 0.534798,-2.321334 0.356532,-0.658809 0.82545,-1.201358 1.410627,-1.627647 0.581303,-0.426288 1.243988,-0.744067 1.988055,-0.953336 0.744067,-0.209269 1.503635,-0.313903 2.27483,-0.313903 1.763283,0 3.046025,0.232521 3.852097,0.693687 v 2.573232 c -1.054095,-0.798322 -2.410467,-1.197482 -4.065241,-1.197482 -0.457292,0 -0.914583,0.05425 -1.371874,0.155014 -0.457292,0.104634 -0.864203,0.275149 -1.220736,0.511546 -0.356532,0.236396 -0.647183,0.538673 -0.871953,0.914583 -0.224771,0.372033 -0.337156,0.825448 -0.337156,1.364123 0,0.49992 0.08526,0.930083 0.255774,1.294367 0.170515,0.364282 0.422412,0.693687 0.755693,0.995964 0.33328,0.298402 0.736317,0.589053 1.21686,0.871954 0.476667,0.2829 1.026967,0.589053 1.650898,0.926208 0.639433,0.344906 1.247864,0.709189 1.821415,1.088974 0.573552,0.379784 1.077347,0.802196 1.507511,1.267239 0.430164,0.465042 0.77507,0.976588 1.026968,1.538513 0.251897,0.561927 0.379784,1.20911 0.379784,1.933801 0,0.961086 -0.174391,1.778785 -0.515422,2.445345 -0.344905,0.66656 -0.809948,1.209109 -1.395126,1.627646 -0.585177,0.418539 -1.259488,0.720816 -2.026808,0.906833 -0.763444,0.186017 -1.569516,0.279024 -2.418218,0.279024 -0.2829,0 -0.631681,-0.02325 -1.046345,-0.07363 -0.414662,-0.05038 -0.84095,-0.124011 -1.271114,-0.217019 -0.434039,-0.09688 -0.84095,-0.213145 -1.228486,-0.352658 -0.39141,-0.151138 -0.697563,-0.310027 -0.933959,-0.480544 z m 22.728926,0.151139 c -1.073471,0.643308 -2.344586,0.968837 -3.813344,0.968837 -1.988054,0 -3.596325,-0.647184 -4.81706,-1.94155 -1.220735,-1.294367 -1.83304,-2.972393 -1.83304,-5.034079 0,-2.298082 0.658809,-4.142749 1.976428,-5.537874 1.317619,-1.395126 3.073152,-2.092689 5.274351,-2.092689 1.224611,0 2.305833,0.228645 3.243668,0.682061 v 2.290331 c -1.034718,-0.728566 -2.143069,-1.088973 -3.32505,-1.088973 -1.426129,0 -2.596485,0.511546 -3.507192,1.534639 -0.910707,1.023092 -1.367998,2.363963 -1.367998,4.026488 0,1.635398 0.430164,2.925889 1.286616,3.8676 0.856452,0.941709 2.011307,1.418377 3.452936,1.418377 1.21686,0 2.360089,-0.403036 3.43356,-1.212985 v 2.119817 z m 8.645905,-11.052497 c -0.39141,-0.298403 -0.953336,-0.449541 -1.689653,-0.449541 -0.953335,0 -1.751657,0.449541 -2.39109,1.348621 -0.639433,0.899082 -0.961086,2.123692 -0.961086,3.677708 v 7.111266 H 81.405501 V 22.958489 h 2.236077 v 2.87551 h 0.05425 c 0.317779,-0.980464 0.802197,-1.747782 1.457131,-2.294207 0.654934,-0.5503 1.3835,-0.825449 2.193449,-0.825449 0.581302,0 1.026967,0.06201 1.336995,0.189891 z m 2.565482,-5.801398 c -0.399161,0 -0.740192,-0.135638 -1.023092,-0.406913 -0.282901,-0.271274 -0.422414,-0.61618 -0.422414,-1.034718 0,-0.418538 0.139513,-0.763444 0.422414,-1.042469 0.2829,-0.27515 0.623931,-0.414662 1.023092,-0.414662 0.406911,0 0.755693,0.139512 1.042468,0.414662 0.286777,0.279025 0.430165,0.623931 0.430165,1.042469 0,0.399161 -0.143388,0.740192 -0.430165,1.023092 -0.286775,0.27515 -0.635557,0.418539 -1.042468,0.418539 z m 1.08897,17.493328 H 90.101783 V 22.962365 h 2.236076 z m 3.604075,-2.015182 h -0.05425 v 8.43276 h -2.23608 V 22.962365 h 2.236077 v 2.453097 h 0.05425 c 1.100599,-1.852418 2.704995,-2.778626 4.824807,-2.778626 1.79816,0 3.20104,0.623931 4.20863,1.871793 1.00759,1.247863 1.51139,2.922013 1.51139,5.022453 0,2.332961 -0.56581,4.204755 -1.70128,5.607632 -1.13549,1.402876 -2.6895,2.104314 -4.65817,2.104314 -1.809788,-0.0039 -3.204914,-0.78282 -4.185377,-2.344586 z m -0.05425,-5.627008 v 1.949301 c 0,1.154854 0.375909,2.131442 1.123852,2.937515 0.747942,0.806073 1.701279,1.205233 2.856133,1.205233 1.352489,0 2.414339,-0.519296 3.181659,-1.554014 0.76732,-1.034719 1.15097,-2.476348 1.15097,-4.31714 0,-1.554015 -0.3604,-2.770876 -1.07734,-3.650579 -0.71694,-0.879705 -1.68966,-1.321495 -2.91427,-1.321495 -1.298231,0 -2.344575,0.453416 -3.135147,1.356373 -0.790571,0.89908 -1.185857,2.030683 -1.185857,3.394806 z m 18.965944,7.506552 c -0.52704,0.290652 -1.22073,0.43404 -2.08494,0.43404 -2.44146,0 -3.66608,-1.364123 -3.66608,-4.088494 v -8.254496 h -2.39884 v -1.906671 h 2.39884 v -3.406433 l 2.23608,-0.720814 v 4.127247 h 3.51494 v 1.906671 h -3.51494 v 7.85921 c 0,0.933959 0.15889,1.604395 0.47667,2.003555 0.31778,0.399162 0.84483,0.60068 1.58114,0.60068 0.56193,0 1.05023,-0.155014 1.45713,-0.465042 z"
     id="path2"
     inkscape:connector-curvature="0"
     style="fill:#007acc;stroke-width:0.38753495" />
</svg>
