<?xml version="1.0" encoding="UTF-8" standalone="no"?>
<svg
   xmlns:dc="http://purl.org/dc/elements/1.1/"
   xmlns:cc="http://creativecommons.org/ns#"
   xmlns:rdf="http://www.w3.org/1999/02/22-rdf-syntax-ns#"
   xmlns:svg="http://www.w3.org/2000/svg"
   xmlns="http://www.w3.org/2000/svg"
   xmlns:sodipodi="http://sodipodi.sourceforge.net/DTD/sodipodi-0.dtd"
   xmlns:inkscape="http://www.inkscape.org/namespaces/inkscape"
   role="img"
   viewBox="-20.5 -20.5 64 64"
   version="1.1"
   id="svg10"
   sodipodi:docname="druid-iocn.svg"
   width="64"
   height="64"
   inkscape:version="0.92.4 (5da689c313, 2019-01-14)">
  <metadata
     id="metadata16">
    <rdf:RDF>
      <cc:Work
         rdf:about="">
        <dc:format>image/svg+xml</dc:format>
        <dc:type
           rdf:resource="http://purl.org/dc/dcmitype/StillImage" />
        <dc:title>Druid logo</dc:title>
      </cc:Work>
    </rdf:RDF>
  </metadata>
  <defs
     id="defs14" />
  <sodipodi:namedview
     pagecolor="#ffffff"
     bordercolor="#666666"
     borderopacity="1"
     objecttolerance="10"
     gridtolerance="10"
     guidetolerance="10"
     inkscape:pageopacity="0"
     inkscape:pageshadow="2"
     inkscape:window-width="1920"
     inkscape:window-height="1001"
     id="namedview12"
     showgrid="false"
     inkscape:zoom="1.7989433"
     inkscape:cx="161.6709"
     inkscape:cy="43.823624"
     inkscape:window-x="-9"
     inkscape:window-y="-9"
     inkscape:window-maximized="1"
     inkscape:current-layer="svg10" />
  <title
     id="title2">Druid logo</title>
  <g
     id="g28"
     transform="matrix(1.7842624,0,0,1.7842624,-1.7652416,-5.4504992)">
    <path
       style="fill:#29f1fb;stroke-width:0.09749035"
       inkscape:connector-curvature="0"
       id="path4"
       d="m 7.8615815,-3.6607951 c 2.2910235,0 4.5820465,-0.011699 6.8720945,0 4.387066,0.027297 8.412443,2.82722017 9.944016,6.9140156 0.66001,1.7645754 0.80332,3.5905696 0.615164,5.4653091 -0.275898,2.7531274 -1.097741,5.3083494 -2.654662,7.5983974 -2.402162,3.535001 -5.788002,5.499431 -9.981062,6.153591 -1.421409,0.221303 -2.8476933,0.194981 -4.2759269,0.194981 -0.5927413,0 -0.909585,-0.271023 -0.9446815,-0.7614 -0.038021,-0.525473 0.292471,-0.929083 0.8774131,-0.964179 0.647336,-0.03997 1.2995464,-0.0068 1.9498073,-0.02437 3.947384,-0.107239 7.365396,-1.46723 10.072703,-4.387065 1.897162,-2.047298 2.858417,-4.541101 3.184035,-7.289354 0.226177,-1.9069112 0.201805,-3.8021236 -0.551796,-5.6086198 -1.156235,-2.76385142 -3.227905,-4.45823371 -6.080473,-5.2440059 -1.10749,-0.3051448 -2.242278,-0.3626641 -3.378041,-0.3694885 -4.2398549,-0.025347 -8.4816601,-0.00975 -12.72054047,-0.010724 -0.17840734,0 -0.35876449,0.00682 -0.53619693,-0.00877 a 0.85304056,0.85304056 0 0 1 -0.77309847,-0.8013707 0.83256759,0.83256759 0 0 1 0.68243245,-0.8315927 3.2863997,3.2863997 0 0 1 0.5849421,-0.028272 H 7.8645062 Z" />
    <path
       style="fill:#29f1fb;stroke-width:0.09749035"
       inkscape:connector-curvature="0"
       id="path6"
       d="M 3.5193613,16.617198 H -4.084886 a 3.6822105,3.6822105 0 0 1 -0.4874517,-0.01072 c -0.4396815,-0.05947 -0.7165541,-0.311969 -0.7594498,-0.756525 -0.042896,-0.444556 0.1657335,-0.748726 0.5849421,-0.904711 0.2661486,-0.09749 0.544971,-0.07702 0.8198938,-0.07702 5.0022299,0 10.0054346,0.0078 15.0076646,-0.0088 1.754826,-0.0058 3.269826,-0.65611 4.473832,-1.942983 1.032423,-1.103591 1.573494,-2.437259 1.734353,-3.9386101 0.126738,-1.1776834 -0.04095,-2.2608012 -0.772123,-3.2220561 -0.81307,-1.0723938 -1.911786,-1.6105406 -3.23278,-1.61639 -4.7263324,-0.020473 -9.4565642,-0.0078 -14.17899672,-0.014623 -0.50207528,0 -1.00512548,-0.040946 -1.50525098,-0.087741 C -2.832135,3.9970719 -3.0709863,3.7367727 -3.1002334,3.3019657 -3.1324053,2.8281626 -2.8896543,2.4869464 -2.4597218,2.4040796 a 2.3163707,2.3163707 0 0 1 0.4348069,-0.020473 H 13.18358 c 2.555222,0.00487 4.764353,1.5500966 5.569623,3.9659075 0.571294,1.7148552 0.367539,3.4433591 -0.272973,5.1055699 -1.230328,3.190859 -4.126766,5.15334 -7.554527,5.162114 -2.4684554,0.0068 -4.937886,0 -7.4063417,0 z M -7.8207162,4.0409426 c -0.5849421,0 -1.1698842,0.0078 -1.7548263,0 -0.4874515,-0.00877 -0.8618145,-0.3295174 -0.9173845,-0.7662742 -0.05557,-0.4367567 0.218379,-0.8120946 0.7458015,-0.919334 a 4.6093437,4.6093437 0 0 1 0.8715637,-0.057519 c 0.7955213,-0.00682 1.5920174,-0.00877 2.3875387,0 a 3.1060426,3.1060426 0 0 1 0.7214286,0.083842 c 0.4299324,0.1091892 0.6648842,0.4757529 0.6141892,0.9212838 -0.050695,0.4455309 -0.3197684,0.7136294 -0.7701738,0.7282529 -0.6327123,0.021448 -1.2673745,0.00585 -1.9000869,0.00585 z M 2.8496026,22.661599 c -0.5517954,0 -1.1035907,0.0097 -1.6573359,0 -0.52449811,-0.0117 -0.87741317,-0.309044 -0.93103287,-0.747751 a 0.87741315,0.87741315 0 0 1 0.79064677,-0.95053 23.03307,23.03307 0 0 1 3.5466989,-0.0049 0.81891894,0.81891894 0 0 1 0.7799228,0.899836 c -0.036071,0.487452 -0.3792375,0.785772 -0.9212838,0.80722 H 2.8496026 Z" />
  </g>
</svg>
