<?xml version="1.0" encoding="utf-8"?>
<!-- Generator: Adobe Illustrator 23.0.3, SVG Export Plug-In . SVG Version: 6.00 Build 0)  -->
<svg version="1.1"
	 id="svg2" xmlns:cc="http://creativecommons.org/ns#" xmlns:dc="http://purl.org/dc/elements/1.1/" xmlns:rdf="http://www.w3.org/1999/02/22-rdf-syntax-ns#" xmlns:svg="http://www.w3.org/2000/svg"
	 xmlns="http://www.w3.org/2000/svg" xmlns:xlink="http://www.w3.org/1999/xlink" x="0px" y="0px" viewBox="0 0 64 64"
	 style="enable-background:new 0 0 64 64;" xml:space="preserve">
<style type="text/css">
	.st0{fill:#5C3DCC;}
	.st1{fill:#8B8B89;}
</style>
<g>
	<path class="st0" d="M49.82,41.04c-5.04,0-9.12-4.09-9.12-9.12s4.09-9.12,9.12-9.12s9.12,4.09,9.12,9.12
		C58.96,36.97,54.88,41.04,49.82,41.04 M49.82,17.73c-7.83,0-14.18,6.35-14.18,14.18S41.99,46.1,49.82,46.1S64,39.75,64,31.91
		C64.02,24.08,57.65,17.73,49.82,17.73"/>
	<polygon class="st0" points="27.41,24.64 23.84,28.24 27.83,32.01 23.86,35.73 27.44,39.31 34.76,32.01 	"/>
	<path class="st1" d="M14.23,46.27c-3.53,0-6.74-1.22-9.54-3.65C1.58,39.87,0,36.27,0,31.91c0-3.89,1.44-7.25,4.26-10.02
		c2.8-2.75,6.23-4.16,10.17-4.16c3.92,0,7.3,1.41,10.1,4.21l-3.72,3.7c-1.8-1.8-3.89-2.68-6.37-2.68c-2.55,0-4.67,0.88-6.49,2.65
		c-1.82,1.78-2.7,3.84-2.7,6.3c0,2.82,0.95,5.04,2.92,6.76c1.82,1.58,3.82,2.36,6.11,2.36c2.6,0,4.74-0.88,6.57-2.65l3.65,3.75
		C21.65,44.88,18.22,46.27,14.23,46.27"/>
</g>
</svg>
