<svg xmlns="http://www.w3.org/2000/svg" width="64" height="64"><g transform="matrix(2.904841 0 0 2.904841 -46.843995 -59.022684)"><circle r="11.016" cy="31.335" cx="27.142" fill="#de6c2d"/><path d="M34.63 31.576v-.692H36.1a8.89 8.89 0 0 0-1.648-4.828c1.08-1.353 3.864-5.17 3.607-5.605-.225-.38-4.206 1.95-5.893 3.366a8.9 8.9 0 0 0-4.766-1.532v1.376H26.7v-1.376c-4.618.225-8.326 3.965-8.497 8.598h1.275v.692h-1.275c.18 4.64 3.88 8.373 8.505 8.598v-1.368h.692v1.368c4.71-.132 8.513-3.903 8.692-8.598z" fill="#fff"/><path d="M26.48 30.565l-3.265-2.59-1.135 1.135 5.14 5.753c2.3-4.354 6.336-9.67 9.516-13.193-1.85.878-7.5 5.854-10.254 8.894z" fill="#384158" fill-rule="evenodd"/></g></svg>