<?xml version="1.0" encoding="UTF-8" standalone="no"?>
<svg
   xmlns:dc="http://purl.org/dc/elements/1.1/"
   xmlns:cc="http://creativecommons.org/ns#"
   xmlns:rdf="http://www.w3.org/1999/02/22-rdf-syntax-ns#"
   xmlns:svg="http://www.w3.org/2000/svg"
   xmlns="http://www.w3.org/2000/svg"
   xmlns:sodipodi="http://sodipodi.sourceforge.net/DTD/sodipodi-0.dtd"
   xmlns:inkscape="http://www.inkscape.org/namespaces/inkscape"
   width="256"
   height="51.199409"
   id="svg3441"
   version="1.1"
   inkscape:version="0.91 r13725"
   sodipodi:docname="addtoany-official.svg">
  <metadata
     id="metadata3487">
    <rdf:RDF>
      <cc:Work
         rdf:about="">
        <dc:format>image/svg+xml</dc:format>
        <dc:type
           rdf:resource="http://purl.org/dc/dcmitype/StillImage" />
        <dc:title />
      </cc:Work>
    </rdf:RDF>
  </metadata>
  <defs
     id="defs3485" />
  <sodipodi:namedview
     pagecolor="#ffffff"
     bordercolor="#666666"
     borderopacity="1"
     objecttolerance="10"
     gridtolerance="10"
     guidetolerance="10"
     inkscape:pageopacity="0"
     inkscape:pageshadow="2"
     inkscape:window-width="1855"
     inkscape:window-height="1056"
     id="namedview3483"
     showgrid="false"
     fit-margin-top="0"
     fit-margin-left="0"
     fit-margin-right="0"
     fit-margin-bottom="0"
     inkscape:zoom="6.3157895"
     inkscape:cx="159.3135"
     inkscape:cy="18.35"
     inkscape:window-x="65"
     inkscape:window-y="24"
     inkscape:window-maximized="1"
     inkscape:current-layer="svg3441" />
  <path
     d="m 83.069936,39.985706 -6.787242,0 -2.36078,-8.11518 -10.033313,0 -2.36078,8.11518 -6.492144,0 9.885765,-33.0509156 8.11518,0 10.033314,33.0509156 z m -10.47596,-13.426934 -3.688718,-13.575959 -3.688719,13.575959 7.377437,0 z"
     id="path3459"
     inkscape:connector-curvature="0"
     style="fill:#2a2a2a" />
  <path
     d="m 104.4645,39.985706 -4.57401,0 -0.88529,-2.657352 c -2.65588,1.919609 -5.01666,2.950974 -7.22989,2.950974 -2.21323,0 -3.983815,-1.031365 -5.311753,-3.098523 -1.327939,-2.067158 -2.065683,-5.016657 -2.065683,-9.000473 0,-3.983815 0.737744,-7.083814 2.36078,-9.148021 1.623036,-2.065682 3.688718,-3.101474 6.197046,-3.101474 1.77059,0 3.54117,0.737743 5.4593,2.36373 l 0,-11.3612521 6.0495,0 0,33.0523911 z m -6.19704,-7.229887 0,-9.443119 c -1.62304,-1.326463 -3.09853,-2.064207 -4.13137,-2.064207 -1.18039,0 -2.06568,0.588719 -2.65588,1.769109 -0.73774,1.181866 -1.032838,2.950975 -1.032838,5.164206 0,4.426462 1.180388,6.639693 3.541168,6.639693 1.18039,0 2.65588,-0.590195 4.27892,-2.065682 z"
     id="path3461"
     inkscape:connector-curvature="0"
     style="fill:#2a2a2a" />
  <path
     d="m 129.99043,39.985706 -4.57401,0 -0.88529,-2.657352 c -2.65735,1.919609 -5.01666,2.950974 -7.22989,2.950974 -2.21323,0 -3.98381,-1.031365 -5.31175,-3.098523 -1.32794,-2.067158 -2.06569,-5.016657 -2.06569,-9.000473 0,-3.983815 0.73775,-7.083814 2.36078,-9.148021 1.62304,-2.065682 3.68872,-3.101474 6.19705,-3.101474 1.77059,0 3.54117,0.737743 5.4593,2.36373 l 0,-11.3612521 6.0495,0 0,33.0523911 z m -6.0495,-7.229887 0,-9.443119 c -1.62303,-1.326463 -3.09852,-2.064207 -4.13136,-2.064207 -1.18039,0 -2.06568,0.588719 -2.65588,1.769109 -0.73774,1.181866 -1.03284,2.950975 -1.03284,5.164206 0,4.426462 1.18039,6.639693 3.54117,6.639693 1.03284,0 2.50833,-0.590195 4.27891,-2.065682 z"
     id="path3463"
     inkscape:connector-curvature="0"
     style="fill:#2a2a2a" />
  <path
     d="m 142.38453,39.985706 0,-27.444064 -7.67254,0 0,-5.4593029 21.83721,0 0,5.4593029 -7.52498,0 0,27.591613 -6.63969,0 0,-0.147549 z"
     id="path3465"
     inkscape:connector-curvature="0"
     style="fill:#2a2a2a" />
  <path
     d="m 177.94377,28.329357 c 0,3.836267 -0.88529,6.787241 -2.95097,8.852924 -1.91814,2.21323 -4.57402,3.247547 -8.11518,3.247547 -3.53822,0 -6.19558,-1.034317 -7.96469,-3.247547 -1.77058,-2.065683 -2.80342,-5.164206 -2.80342,-8.852924 0,-3.688719 0.88824,-6.787242 2.80342,-9.000473 1.76911,-2.213231 4.42647,-3.244597 7.82009,-3.244597 3.39362,0 6.19704,1.18039 8.11518,3.393621 1.91813,2.213231 3.09557,5.015182 3.09557,8.851449 z m -6.3446,-0.147549 c 0,-4.869108 -1.47548,-7.228412 -4.57401,-7.228412 -3.09999,0 -4.72156,2.360779 -4.72156,7.228412 0,4.720084 1.62304,7.229888 4.72156,7.229888 1.77059,0 2.95098,-0.590195 3.5397,-1.772061 0.73922,-1.324987 1.03431,-3.097047 1.03431,-5.457827 z"
     id="path3467"
     inkscape:connector-curvature="0"
     style="fill:#2a2a2a" />
  <path
     d="m 207.15842,39.985706 -6.78724,0 -2.36078,-8.11518 -10.03332,0 -2.36373,8.11518 -6.48919,0 9.88429,-33.0509156 8.11518,0 10.03479,33.0509156 z m -10.47596,-13.426934 -3.68872,-13.575959 -3.68872,13.575959 7.37744,0 z"
     id="path3469"
     inkscape:connector-curvature="0"
     style="fill:#2a2a2a" />
  <path
     d="m 230.61867,39.985706 -6.19705,0 0,-14.164678 c 0,-1.329414 -0.29362,-2.36078 -0.73774,-3.098523 -0.44265,-0.737744 -1.32499,-1.181866 -2.50686,-1.181866 -1.18186,0 -2.65735,0.737744 -4.27743,2.213231 l 0,16.230361 -6.19705,0 0,-23.607797 5.16421,0 1.03284,2.064207 c 1.32646,-1.032842 2.50832,-1.624512 3.53969,-2.064207 1.03137,-0.293622 2.21323,-0.58872 3.53969,-0.58872 2.06569,0 3.83775,0.737744 5.01666,2.064207 1.18039,1.475488 1.77059,3.539694 1.77059,6.195571 l 0,15.938214 -0.14755,0 z"
     id="path3471"
     inkscape:connector-curvature="0"
     style="fill:#2a2a2a" />
  <path
     d="m 242.27502,40.575901 -7.67254,-24.050443 6.19705,0 4.57401,16.230361 4.57549,-16.230361 6.05097,0 -7.82008,23.607797 c -1.03284,2.950975 -2.21323,5.164206 -3.68872,6.936266 -1.47549,1.769109 -3.3951,3.098523 -5.60833,4.129889 l -2.21323,-4.278913 c 1.32646,-0.587244 2.50685,-1.324988 3.53969,-2.36078 1.03285,-1.178914 1.77059,-2.508328 2.06569,-3.983816 z"
     id="path3473"
     inkscape:connector-curvature="0"
     style="fill:#2a2a2a" />
  <path
     d="m 47.215594,38.954341 c 0,4.57401 -3.688718,8.262729 -8.262729,8.262729 l -30.690136,0 C 3.688718,47.21707 0,43.528351 0,38.954341 L 0,8.262729 C 0,3.6887183 3.688718,0 8.262729,0 l 30.690136,0 c 4.574011,0 8.262729,3.6887183 8.262729,8.262729 l 0,30.691612 z"
     id="path3477"
     inkscape:connector-curvature="0"
     style="fill:#0166ff" />
  <rect
     x="20.656822"
     y="11.803898"
     width="5.9019494"
     height="23.607798"
     id="rect3479"
     style="fill:#ffffff" />
  <rect
     x="11.803898"
     y="20.656822"
     width="23.607798"
     height="5.9019494"
     id="rect3481"
     style="fill:#ffffff" />
</svg>
