<?xml version="1.0" encoding="UTF-8" standalone="no"?>
<svg
   xmlns:dc="http://purl.org/dc/elements/1.1/"
   xmlns:cc="http://creativecommons.org/ns#"
   xmlns:rdf="http://www.w3.org/1999/02/22-rdf-syntax-ns#"
   xmlns:svg="http://www.w3.org/2000/svg"
   xmlns="http://www.w3.org/2000/svg"
   xmlns:sodipodi="http://sodipodi.sourceforge.net/DTD/sodipodi-0.dtd"
   xmlns:inkscape="http://www.inkscape.org/namespaces/inkscape"
   width="120"
   height="60"
   viewBox="0 0 120 60"
   version="1.1"
   id="svg11"
   sodipodi:docname="diffuse-ar21.svg"
   inkscape:version="0.92.4 (5da689c313, 2019-01-14)">
  <metadata
     id="metadata15">
    <rdf:RDF>
      <cc:Work
         rdf:about="">
        <dc:format>image/svg+xml</dc:format>
        <dc:type
           rdf:resource="http://purl.org/dc/dcmitype/StillImage" />
        <dc:title>DIFFUSE-LOGO-BLK</dc:title>
      </cc:Work>
    </rdf:RDF>
  </metadata>
  <sodipodi:namedview
     pagecolor="#ffffff"
     bordercolor="#666666"
     borderopacity="1"
     objecttolerance="10"
     gridtolerance="10"
     guidetolerance="10"
     inkscape:pageopacity="0"
     inkscape:pageshadow="2"
     inkscape:window-width="1920"
     inkscape:window-height="1001"
     id="namedview13"
     showgrid="false"
     inkscape:zoom="0.37583149"
     inkscape:cx="451"
     inkscape:cy="67"
     inkscape:window-x="-9"
     inkscape:window-y="-9"
     inkscape:window-maximized="1"
     inkscape:current-layer="svg11" />
  <!-- Generator: Sketch 49 (51002) - http://www.bohemiancoding.com/sketch -->
  <title
     id="title2">DIFFUSE-LOGO-BLK</title>
  <desc
     id="desc4">Created with Sketch.</desc>
  <defs
     id="defs6" />
  <g
     id="Page-1"
     style="fill:none;fill-rule:evenodd;stroke:none;stroke-width:1"
     transform="matrix(0.11093655,0,0,0.11093655,10.001796,22.572798)">
    <g
       id="DIFFUSE-LOGO-BLK"
       transform="translate(-1)"
       style="fill:#231f20;fill-rule:nonzero">
      <path
         d="m 119.9,80.9 c 0,5.1 -1.3,8.9 -3.9,11.4 -2.8,2.7 -6.5,4.1 -10.3,3.9 H 93.4 V 37.6 h 12.3 c 9.4,0 14.2,5 14.2,15.1 z M 367.2,2.3 c 1,0.9 1.5,2.2 1.5,3.6 v 28.7 c 0,2.8 -2.3,5.1 -5.1,5.1 h -54.1 v 14 h 50.3 c 2.8,0 5.1,2.3 5.1,5.1 v 28.6 c 0,2.8 -2.3,5.1 -5.1,5.1 H 309.5 V 128 c 0,2.8 -2.3,5.1 -5.1,5.1 h -36.1 c -2.8,0 -5.1,-2.3 -5.1,-5.1 v -11.3 c 0,-1.4 -1.1,-2.5 -2.5,-2.5 H 259 c -4.7,0.1 -8.8,-3.3 -9.6,-8 -0.8,-5.2 2.8,-10 7.9,-10.7 0.5,-0.1 0.9,-0.1 1.4,-0.1 h 9.1 c 0.4,0 0.8,0 1.2,-0.1 5.1,-0.7 8.7,-5.2 8.1,-10.3 -0.6,-4.9 -4.8,-8.5 -9.7,-8.4 h -2.3 c -0.7,0 -2,0 -2,0 -5.2,0 -9.4,-4.2 -9.5,-9.4 0,-4.5 3.1,-8.3 7.5,-9.3 1.2,-0.2 2,-1.2 2,-2.4 V 5.9 c 0,-2.8 2.3,-5.1 5.1,-5.1 h 95.3 c 1.5,0 2.8,0.5 3.7,1.5 z m 123.1,85.1 c 0,2.8 -2.3,5.1 -5.1,5.1 H 434.9 V 128 c 0,2.8 -2.3,5.1 -5.1,5.1 h -36.1 c -2.8,0 -5.1,-2.3 -5.1,-5.1 V 60.8 c 0.2,-1.7 -1,-3.2 -2.7,-3.4 -0.2,0 -0.5,0 -0.7,0 -4.8,0.1 -8.9,-3.4 -9.7,-8.1 -0.8,-5.2 2.8,-10 8,-10.7 0.5,-0.1 0.9,-0.1 1.4,-0.1 h 10.4 c 4.7,0.1 8.8,-3.3 9.6,-8 0.8,-5.2 -2.8,-10 -7.9,-10.7 -0.5,-0.1 -0.9,-0.1 -1.4,-0.1 h -5.9 c -5.4,0 -8.9,-5.8 -8.2,-10.8 0.8,-4.7 4.9,-8.1 9.6,-8.1 H 489 c 2.8,0 5.1,2.3 5.1,5.1 v 28.7 c 0,2.8 -2.3,5.1 -5.1,5.1 h -54.1 v 14 h 50.3 c 2.8,0 5.1,2.3 5.1,5.1 z M 775.7,91 c 0,12.5 -5.9,22.6 -17.7,30.5 -11.8,7.9 -27.2,11.8 -46.2,11.8 -19,0 -34,-3.9 -44.8,-11.6 -10.8,-7.7 -16.3,-17.2 -16.3,-28.2 0,-1.2 0.5,-2.4 1.5,-3.1 0.8,-0.7 1.8,-1 2.8,-1 h 35.8 c 2.7,0 5.6,1.2 8.8,3.6 3.2,2.4 7.6,3.6 13.3,3.6 9.5,0 14.2,-1.7 14.2,-5.1 0,-2.2 -1.7,-3.9 -5.1,-5 -3.4,-1.1 -9.8,-2.3 -19.3,-3.6 -5.2,-0.6 -10.4,-1.6 -15.5,-3 -3.4,-0.9 -10.3,-4 -16.4,-4 h -4.5 c -4.9,0 -9.7,-3.7 -10.1,-8.6 -0.5,-5.4 3.1,-9.7 7.3,-10.2 5.8,-0.7 10.6,-5.1 9.2,-11.3 -1.1,-4.3 -5,-7.3 -9.5,-7.2 H 656 c -0.6,0 -1.3,-0.1 -1.9,-0.2 -4.9,-1 -8.1,-5.6 -7.5,-10.5 0.7,-4.7 4.8,-8.2 9.6,-8.2 h 3.1 c 1.6,0 3.2,-0.7 4.3,-1.9 1.9,-2 4,-3.9 6.2,-5.5 10.7,-7.8 24.7,-11.7 42,-11.7 17.3,0 31.5,4.2 42.5,12.6 11.1,8.4 16.6,17.2 16.6,26.3 0,1.1 -0.4,2.1 -1.2,2.9 -0.7,0.8 -1.7,1.2 -2.7,1.2 h -37.9 c -2.9,0 -5.7,-1.1 -7.9,-3 -2.4,-2 -5.6,-3 -9.6,-3 -6.1,0 -9.1,1.7 -9.1,5.1 0,1.8 1.5,3.4 4.5,4.6 3,1.2 8.5,2.3 16.5,3.3 18.8,2.3 32.2,6.5 40.2,12.7 8,6.2 12,15.3 12,27.7 z m 126.7,10.3 V 128 c 0,2.8 -2.3,5.1 -5.1,5.1 h -98.5 c -2.8,0 -5.1,-2.3 -5.1,-5.1 V 59.9 c 0,-1.3 -1,-2.4 -2.3,-2.6 -4.2,-0.5 -7.5,-3.8 -8.2,-7.9 -0.8,-5.2 2.8,-10 7.9,-10.7 0.5,-0.1 0.9,-0.1 1.4,-0.1 h 2.3 c 4.7,0.1 8.8,-3.3 9.6,-8 0.8,-5.2 -2.7,-10 -7.9,-10.8 -0.5,-0.1 -1,-0.1 -1.5,-0.1 h -13.8 c -4.7,0.1 -8.8,-3.3 -9.6,-8 -0.8,-5.2 2.8,-10 7.9,-10.7 0.5,-0.1 0.9,-0.1 1.4,-0.1 h 114.9 c 2.8,0 5.1,2.3 5.1,5.1 v 26.7 c 0,2.8 -2.3,5.1 -5.1,5.1 H 839 v 11.9 h 52.6 c 1.4,0 2.7,0.5 3.6,1.5 1,0.9 1.5,2.2 1.5,3.6 v 24.6 c 0,1.4 -0.5,2.7 -1.5,3.6 -0.9,1 -2.2,1.5 -3.6,1.5 H 839 v 11.9 h 58.2 c 1.4,0 2.7,0.5 3.6,1.5 1,0.8 1.6,2.1 1.6,3.4 z M 250.7,125 c -0.9,4.7 -5,8.1 -9.9,8.1 H 195 c -2.8,0 -5.1,-2.3 -5.1,-5.1 V 58.8 c 0,-0.9 -0.5,-1.7 -1.4,-2.1 -3.6,-1.4 -6,-4.9 -6,-8.8 0,-4.5 3.1,-8.8 7.4,-9.2 0.6,-0.1 1.8,-0.1 2.3,-0.1 4.8,0 8.9,-3.4 9.6,-8.2 0.8,-5.2 -2.8,-10 -7.9,-10.7 -0.5,-0.1 -0.9,-0.1 -1.4,-0.1 h -13.7 c -4.7,0.1 -8.8,-3.3 -9.6,-8 -0.8,-5.2 2.8,-10 7.9,-10.7 0.5,-0.1 0.9,-0.1 1.4,-0.1 h 55 c 2.8,0 5.1,2.3 5.1,5.1 v 68.7 c 0,0.9 0.6,1.8 1.5,2 5.1,1.2 8.2,6.3 7,11.3 -1,4 -4.4,7 -8.6,7.2 0,0 -0.4,0 -0.6,0 h -8.8 c -4.7,-0.1 -8.8,3.3 -9.6,8 -0.8,5.2 2.7,10 7.9,10.8 0.5,0.1 1,0.1 1.4,0.1 h 12.5 c 5.2,0 9.4,4.2 9.4,9.5 0.1,0.5 0.1,1 0,1.5 z M 645.2,43 c 1.9,3 1.9,6.8 0,9.8 -1.7,2.8 -4.7,4.5 -8,4.5 -1.4,-0.1 -2.5,1 -2.5,2.4 0,0.1 0,0.2 0,0.4 v 20.8 c 0,17.4 -5.5,30.5 -16.5,39.3 -11,8.8 -24.5,12.8 -44.7,12.8 -3.2,0 -9.4,-0.1 -9.5,-0.1 h -64.2 c -4.7,0.1 -8.8,-3.3 -9.6,-8 -0.8,-5.2 2.8,-10 8,-10.7 0.5,-0.1 0.9,-0.1 1.4,-0.1 h 24.5 c 4.7,0.1 8.8,-3.3 9.6,-8 0.8,-5.2 -2.8,-10 -7.9,-10.7 -0.5,-0.1 -0.9,-0.1 -1.4,-0.1 h -9.1 c -0.5,0 -1,0.1 -1.5,0.1 0,-0.1 0,-0.1 0,-0.1 h -0.3 c -4.4,0 -8.8,-3.5 -9.5,-7.8 -0.9,-4.9 2.3,-9.7 7.2,-10.8 0.7,-0.1 1.2,-0.8 1.2,-1.5 V 5.9 c 0,-1.3 0.5,-2.6 1.5,-3.6 0.9,-1 2.2,-1.5 3.6,-1.5 h 37.1 c 1.4,0 2.7,0.5 3.6,1.5 1,0.9 1.5,2.2 1.5,3.5 V 81 c 0,9.5 4.7,14.3 14,14.3 9.3,0 14,-4.8 14,-14.3 V 5.8 c 0,-1.3 0.5,-2.6 1.5,-3.5 0.9,-1 2.2,-1.5 3.6,-1.5 H 633 c 4.8,-0.1 9,3.5 9.7,8.2 0.6,5.2 -2.8,10.6 -8.9,10.6 h -13.6 c -4.7,-0.1 -8.8,3.3 -9.6,8 -0.8,5.2 2.8,10 8,10.7 0.5,0.1 0.9,0.1 1.4,0.1 h 14.8 0.3 2.5 c 2.9,0.1 5.9,1.8 7.6,4.6 z M 151.1,14.4 C 139.2,5.3 124,0.7 105.6,0.7 H 25.5 c -5.1,-0.1 -9.3,3.8 -9.7,8.8 -0.3,5.2 3.6,9.7 8.8,10 0.2,0 0.4,0 0.6,0 h 20.2 c 5.1,-0.1 9.3,3.8 9.7,8.8 0.4,5.2 -3.6,9.7 -8.8,10 -0.2,0 -0.4,0 -0.6,0 h -35 C 5.6,38.2 1.4,42.1 1,47.1 c -0.3,5.2 3.6,9.7 8.8,10 0.2,0 0.4,0 0.6,0 h 16 c 5.1,-0.1 9.3,3.8 9.8,8.8 0.4,5.2 -3.6,9.7 -8.8,10.1 -0.2,0 -0.4,0 -0.6,0 h -1.3 c -5.1,-0.1 -9.3,3.8 -9.7,8.8 -0.3,5.2 3.6,9.7 8.8,10 0.2,0 0.4,0 0.6,0 h 8.5 c 1.4,0 2.5,1.1 2.5,2.5 V 128 c 0,2.8 2.3,5.1 5.1,5.1 h 64.5 c 18.9,0 34.2,-4.4 45.8,-13.2 11.6,-8.8 17.4,-21.8 17.4,-39 V 52.8 c 0,-16.4 -6,-29.2 -17.9,-38.4 z"
         id="Shape"
         inkscape:connector-curvature="0" />
    </g>
  </g>
</svg>
