<svg xmlns="http://www.w3.org/2000/svg" width="120" height="60"><path d="M43.826 34.263V27.69h-.028l-2.01 6.572h-2.082l-2.01-6.572h-.028v6.572h-2.1V25.71h3.512l1.67 5.835h.028l1.657-5.85h3.512v8.555h-2.1zm9.744-3.357l-.014.61h-4.532c.042.666.58 1.12 1.445 1.12.878 0 1.473-.34 1.884-.666h.1l.652 1.685c-.41.326-1.345.75-2.592.75-2.01 0-3.456-1.29-3.456-3.527 0-2.21 1.445-3.612 3.328-3.612 1.912 0 3.187 1.473 3.187 3.64zm-4.476-.85h2.62c-.057-.538-.538-1.062-1.303-1.062-.78 0-1.232.5-1.317 1.062zm10.89-1.728l-.722 1.6h-.1c-.58-.637-1.388-.963-2.01-.963-.524 0-.722.227-.722.453 0 .297.113.34 1.572.694 1.36.326 2.252.85 2.252 2.167 0 1.374-.963 2.124-2.634 2.124-1.657 0-2.847-.623-3.314-1.12l.765-1.714h.1c.595.496 1.33.977 2.38.977.623 0 .736-.17.736-.397s-.127-.354-1.6-.722c-1.586-.397-2.195-1.034-2.195-2.068 0-1.29 1.034-2.1 2.578-2.1 1.473.014 2.606.708 2.918 1.076zm6.558 0l-.722 1.6h-.1c-.58-.637-1.388-.963-2.01-.963-.524 0-.722.227-.722.453 0 .297.113.34 1.572.694 1.36.326 2.252.85 2.252 2.167 0 1.374-.963 2.124-2.634 2.124-1.657 0-2.847-.623-3.314-1.12l.765-1.714h.1c.595.496 1.33.977 2.38.977.623 0 .736-.17.736-.397s-.127-.354-1.6-.722c-1.586-.397-2.195-1.034-2.195-2.068 0-1.29 1.034-2.1 2.578-2.1 1.487.014 2.62.708 2.918 1.076zm6.6 1.572v4.362h-1.6l-.17-.906h-.042c-.326.58-1.006 1.048-1.97 1.048-1.317 0-1.997-.85-1.997-1.97s.5-1.827 2.1-2.14 1.714-.425 1.714-.765c0-.326-.312-.5-.95-.5-.694 0-1.473.496-1.898 1.133h-.1l-.807-1.657c.75-.736 1.714-1.232 2.932-1.232 1.544 0 2.776 1.006 2.776 2.634zm-1.955 1.33c-.113.184-.326.312-1.048.482-.694.17-.793.368-.793.637s.227.397.58.397c.567 0 1.29-.368 1.29-.92v-.595zm7.662-2.918h.042l.113-.906h1.586v5.977c0 2.1-1.2 3.272-3.357 3.272-1.232 0-2.18-.41-2.762-.836l.61-1.742h.1c.58.467 1.204.75 1.983.75 1.034 0 1.402-.41 1.402-1.33v-.623h-.042c-.297.44-.878.807-1.756.807-1.63 0-2.762-1.275-2.762-3.088 0-1.983 1.345-3.342 2.932-3.342.963.014 1.63.58 1.912 1.062zm-2.762 2.224c0 .836.524 1.36 1.317 1.36.765 0 1.29-.482 1.29-1.374 0-.85-.453-1.46-1.29-1.46-.864 0-1.317.637-1.317 1.473zm12 .368l-.014.61h-4.532c.042.666.58 1.12 1.445 1.12.878 0 1.473-.34 1.884-.666h.1l.637 1.7c-.41.326-1.345.75-2.592.75-2.01 0-3.456-1.29-3.456-3.527 0-2.21 1.445-3.612 3.328-3.612 1.926-.014 3.2 1.46 3.2 3.626zm-4.476-.85h2.62c-.057-.538-.538-1.062-1.303-1.062s-1.232.5-1.317 1.062zM93.78 25.71c1.685 0 2.592.82 2.592 2.195 0 .977-.453 1.586-1.345 1.97v.028c.807.312 1.345.977 1.345 2.082s-.623 2.28-2.903 2.28H89.2V25.71zm-2.422 3.484h2.04c.5 0 .793-.297.793-.736 0-.425-.227-.765-.864-.765h-1.97zm0 3.088h2.04c.5 0 .793-.297.793-.75s-.227-.793-.864-.793h-1.97zm8.356-6.954c0 .736-.453 1.275-1.275 1.275s-1.275-.538-1.275-1.275c0-.75.453-1.246 1.275-1.246s1.275.496 1.275 1.246zm-2.294 8.937v-6.855h2.01v6.84h-2.01zm7.96-6.43l-.297 1.84h-.1c-.198-.212-.496-.41-.935-.41-.807 0-1.275.736-1.275 1.97v3.03h-2.01v-6.855h1.657l.113.906h.043c.368-.736.935-1.048 1.558-1.048.482 0 .99.184 1.246.567zm5.424 6.43l-.17-.906h-.043c-.397.623-.99 1.048-2.082 1.048-1.84 0-3.003-1.473-3.003-3.47 0-2.054 1.218-3.668 3.06-3.668.807 0 1.473.312 1.855.85h.028v-2.932h1.954v9.08zm-3.286-3.413c0 1.034.595 1.685 1.487 1.685s1.5-.58 1.5-1.7c0-1.034-.595-1.77-1.473-1.77s-1.515.75-1.515 1.785zM28.5 23.712c-.935 0-1.77.467-2.28 1.176l-3.442 4.815a.69.69 0 0 1-.567.297c-.382 0-.694-.312-.694-.694 0-.142.042-.283.113-.382l2.903-4.348c.297-.44.467-.977.467-1.558 0-1.544-1.246-2.8-2.8-2.8H7.597v2.8h12.52c0 .765-.623 1.402-1.402 1.402H7.597c0 .99.212 1.94.58 2.8h9.135c0 .765-.623 1.402-1.402 1.402H9a6.96 6.96 0 0 0 5.594 2.79h3.442c.382 0 .694.312.694.694s-.312.694-.694.694H14.58l-4.674 6.982h8.455c3.867 0 7.152-2.52 8.3-6.005l1.572-4.773c.5-1.544 1.445-2.903 2.663-3.937-.482-.807-1.374-1.345-2.394-1.345zm0 1.912c-.283 0-.524-.24-.524-.524s.24-.524.524-.524.524.24.524.524c0 .297-.24.524-.524.524z" fill="#2481d7"/></svg>