<svg xmlns="http://www.w3.org/2000/svg" width="64" height="64" viewBox="0 0 2.467 2.467"><g fill-rule="evenodd"><path d="M.133 1.41c0-.452.6-.82 1.34-.82.396 0 .752.104.996.27C2.223.644 1.815.5 1.353.5.604.5 0 .87 0 1.33c0 .254.188.483.486.636-.22-.147-.353-.34-.353-.556z" fill="#1c74bb"/><path d="M.79 1.154h.002l-.03.302H.686zm-.39.53h.205l.036-.1h.11l-.007.1h.203l.005-.648H.68zm.708-.648h.26l.027.39h.002l.085-.39h.17l-.14.648h-.256l-.03-.382-.082.382H.97zm.834.18c.005-.022.007-.04.005-.05s-.015-.017-.036-.017-.04.024-.046.048c-.024.12.268.048.217.283a.26.26 0 0 1-.278.227c-.128 0-.254-.022-.205-.208h.196c-.005.024-.007.046-.005.063s.01.022.027.022c.027 0 .05-.024.058-.056.03-.143-.266-.05-.215-.288a.25.25 0 0 1 .278-.222c.188 0 .213.092.188.198zm.292-.18h.198l-.138.648h-.2z" fill="#fff"/></g><path d="M.978 1.667a14.59 14.59 0 0 0 .07-.319l.065-.306h.25l.006.08.013.195c.004.063.01.113.014.11a1.8 1.8 0 0 0 .047-.195l.04-.19h.08c.044 0 .08.002.08.004a29.68 29.68 0 0 1-.067.311l-.067.315c0 .004-.057.007-.126.005l-.126-.003-.016-.19-.023-.175a3.66 3.66 0 0 0-.045.193l-.038.177h-.082c-.06 0-.08-.003-.077-.013z"/><path d="M.412 1.67l.136-.32.133-.31h.264v.637h-.2l.012-.103h-.12l-.034.103H.506c-.054 0-.096-.004-.094-.01zm.367-.338l.017-.154c.003-.013.001-.023-.003-.023a2.11 2.11 0 0 0-.106.295c0 .008.015.013.04.013h.04zm.918.358c-.076-.02-.115-.077-.1-.15l.007-.035h.183l.003.038c.002.028.008.04.022.042.03.006.068-.038.068-.076s-.03-.067-.103-.092c-.028-.01-.064-.03-.082-.046-.028-.026-.03-.035-.03-.09 0-.05.007-.074.034-.127.047-.09.1-.124.21-.13.15-.01.218.033.218.132v.05h-.173L1.95 1.18c-.003-.024-.008-.028-.034-.028s-.035.007-.046.027c-.025.044-.004.074.07.103.09.034.133.075.14.13.012.094-.055.216-.144.262a.49.49 0 0 1-.24.02z"/><path d="M2.105 1.668c0-.012.12-.573.13-.607.005-.015.018-.018.097-.018.05 0 .092.004.092.008a29.23 29.23 0 0 1-.129.611c-.005.015-.02.018-.097.018-.064 0-.092-.004-.092-.012z"/></svg>