<?xml version="1.0" encoding="UTF-8" standalone="no"?>
<!-- Generator: Adobe Illustrator 19.1.0, SVG Export Plug-In . SVG Version: 6.00 Build 0)  -->

<svg
   xmlns:dc="http://purl.org/dc/elements/1.1/"
   xmlns:cc="http://creativecommons.org/ns#"
   xmlns:rdf="http://www.w3.org/1999/02/22-rdf-syntax-ns#"
   xmlns:svg="http://www.w3.org/2000/svg"
   xmlns="http://www.w3.org/2000/svg"
   xmlns:xlink="http://www.w3.org/1999/xlink"
   xmlns:sodipodi="http://sodipodi.sourceforge.net/DTD/sodipodi-0.dtd"
   xmlns:inkscape="http://www.inkscape.org/namespaces/inkscape"
   version="1.1"
   id="Logo"
   x="0px"
   y="0px"
   viewBox="0 0 120 59.999999"
   xml:space="preserve"
   sodipodi:docname="hiptest-ar21.svg"
   width="120"
   height="60"
   inkscape:version="0.92.3 (2405546, 2018-03-11)"><metadata
   id="metadata66"><rdf:RDF><cc:Work
       rdf:about=""><dc:format>image/svg+xml</dc:format><dc:type
         rdf:resource="http://purl.org/dc/dcmitype/StillImage" /><dc:title></dc:title></cc:Work></rdf:RDF></metadata><defs
   id="defs64">
	

		
		
	
			
			
			
			
			
			
			
		
			
			
			
		</defs><sodipodi:namedview
   pagecolor="#ffffff"
   bordercolor="#666666"
   borderopacity="1"
   objecttolerance="10"
   gridtolerance="10"
   guidetolerance="10"
   inkscape:pageopacity="0"
   inkscape:pageshadow="2"
   inkscape:window-width="1920"
   inkscape:window-height="1001"
   id="namedview62"
   showgrid="false"
   inkscape:zoom="2.2450331"
   inkscape:cx="21.157817"
   inkscape:cy="19.85"
   inkscape:window-x="-9"
   inkscape:window-y="-9"
   inkscape:window-maximized="1"
   inkscape:current-layer="Logo" />
<style
   type="text/css"
   id="style2">
	.st0{fill:#F3554C;}
	.st1{opacity:0.3;clip-path:url(#Fond_2_);}
	.st2{fill:url(#SVGID_1_);}
	.st3{fill:#FFFFFF;}
	.st4{fill:#282828;}
</style>
<g
   id="g1024"
   transform="translate(1.9403709)"><g
     transform="matrix(1.1251891,0,0,1.1251891,-3.5647698,-1.8385348)"
     id="g983"><circle
       style="fill:#f3554c;stroke-width:0.7187956"
       r="14.232153"
       cy="28.296164"
       cx="21.358997"
       class="st0"
       id="Fond" /><g
       id="g37"
       transform="matrix(0.71879562,0,0,0.71879562,7.1268437,14.064011)">
				<defs
   id="defs6">
					<circle
   r="19.799999"
   cy="19.799999"
   cx="19.799999"
   id="Fond_1_" />
				</defs>
				<clipPath
   id="Fond_2_">
					<use
   height="100%"
   width="100%"
   y="0"
   x="0"
   id="use8"
   style="overflow:visible"
   xlink:href="#Fond_1_" />
				</clipPath>
				<g
   style="opacity:0.3"
   clip-path="url(#Fond_2_)"
   class="st1"
   id="Flèche_ombre">
					<linearGradient
   y2="19.1343"
   x2="21.7363"
   y1="56.254299"
   x1="55.348801"
   gradientUnits="userSpaceOnUse"
   id="SVGID_1_">
						<stop
   id="stop11"
   style="stop-color:#FFFFFF"
   offset="0" />
						<stop
   id="stop13"
   style="stop-color:#FDFDFD"
   offset="0.3227" />
						<stop
   id="stop15"
   style="stop-color:#F6F6F6"
   offset="0.4658" />
						<stop
   id="stop17"
   style="stop-color:#E9E9E9"
   offset="0.5735" />
						<stop
   id="stop19"
   style="stop-color:#D7D7D7"
   offset="0.6635" />
						<stop
   id="stop21"
   style="stop-color:#C0C0C0"
   offset="0.7423" />
						<stop
   id="stop23"
   style="stop-color:#A3A3A3"
   offset="0.8134" />
						<stop
   id="stop25"
   style="stop-color:#808080"
   offset="0.8788" />
						<stop
   id="stop27"
   style="stop-color:#595959"
   offset="0.9393" />
						<stop
   id="stop29"
   style="stop-color:#2D2D2D"
   offset="0.9943" />
						<stop
   id="stop31"
   style="stop-color:#282828"
   offset="1" />
					</linearGradient>
					<path
   style="fill:url(#SVGID_1_)"
   inkscape:connector-curvature="0"
   id="path34"
   d="M 64.9,44.6 27.8,7.5 20.5,11.8 v -2 c -5.3,0.1 -9.5,4.4 -9.5,9.7 0,2.6 1,5 2.9,6.8 1.8,1.8 4.3,2.8 6.8,2.8 5.3,0 9.7,-4.4 9.6,-9.7 h 4.3 c 0,5 -2.6,9.5 -6.6,11.9 -2.1,1.3 -4.6,2.1 -7.3,2.1 -3.4,0 -6.5,-1.1 -9.1,-3.3 L 45.5,64 Z"
   class="st2" />
				</g>
			</g><path
       style="fill:#ffffff;stroke-width:0.7187956"
       inkscape:connector-curvature="0"
       d="m 21.934033,34.980964 c -1.868868,0 -3.593978,-0.718796 -4.88781,-2.012628 -1.293832,-1.293832 -2.012627,-3.018942 -2.084507,-4.88781 0,-3.809617 3.018942,-6.900438 6.828558,-6.972318 v 1.437591 l 5.319088,-3.1627 -5.390967,-3.018942 v 1.58135 c -5.462847,0.07188 -9.91938,4.600292 -9.91938,10.063139 0,2.659544 1.078194,5.175328 2.947062,7.116077 1.868869,1.868868 4.456533,2.947062 7.116077,2.875182 1.940748,0 3.665858,-0.575036 5.247208,-1.509471 2.875182,-1.796989 4.815931,-4.959689 4.744051,-8.553668 h -3.090821 c 0.143759,3.881497 -2.947062,7.044198 -6.828559,7.044198 z"
       class="st3"
       id="Flèche_1_" /></g><g
     transform="matrix(0.93833968,0,0,0.93833968,3.13194,3.48231)"
     id="g992"><path
       style="fill:#f3554c;stroke-width:0.7187956"
       inkscape:connector-curvature="0"
       id="path42"
       d="m 40.191442,21.323847 h 1.365712 v 6.397281 h 8.12239 v -6.397281 h 1.365712 v 13.944635 h -1.365712 v -6.397281 h -8.12239 v 6.397281 h -1.365712 z"
       class="st0" /><path
       style="fill:#f3554c;stroke-width:0.7187956"
       inkscape:connector-curvature="0"
       id="path44"
       d="m 55.070512,21.323847 h 1.365711 v 13.944635 h -1.365711 z"
       class="st0" /><path
       style="fill:#f3554c;stroke-width:0.7187956"
       inkscape:connector-curvature="0"
       id="path46"
       d="m 60.533358,21.323847 h 4.815931 c 2.515785,0 4.312774,1.65323 4.312774,4.240894 0,2.587664 -1.796989,4.240894 -4.312774,4.240894 H 61.89907 v 5.462847 h -1.365712 z m 4.600292,7.259836 c 1.868869,0 3.090821,-1.150073 3.090821,-3.018942 0,-1.868869 -1.221952,-2.947062 -3.090821,-2.947062 h -3.30646 v 6.037883 h 3.30646 z"
       class="st0" /><path
       style="fill:#282828;stroke-width:0.7187956"
       inkscape:connector-curvature="0"
       id="path48"
       d="m 75.556187,22.545799 h -5.03157 v -1.221952 h 11.428851 v 1.221952 h -5.03157 v 12.722683 h -1.365711 z"
       class="st4" /><path
       style="fill:#282828;stroke-width:0.7187956"
       inkscape:connector-curvature="0"
       id="path50"
       d="m 84.109855,21.323847 h 7.906751 v 1.221952 h -6.46916 v 5.103449 h 5.319087 v 1.221953 h -5.390967 v 5.175328 h 6.828559 v 1.221953 h -8.26615 z"
       class="st4" /><path
       style="fill:#282828;stroke-width:0.7187956"
       inkscape:connector-curvature="0"
       id="path52"
       d="m 95.251187,32.680818 c 0,0 1.437591,1.50947 3.665857,1.50947 1.509476,0 2.803306,-0.934434 2.803306,-2.443905 0,-3.522098 -6.97232,-2.659544 -6.97232,-6.972317 0,-2.012628 1.796989,-3.737737 4.384653,-3.737737 2.443907,0 3.737737,1.365711 3.737737,1.365711 l -0.64692,1.150073 c 0,0 -1.22195,-1.221952 -3.090817,-1.221952 -1.796989,0 -2.947062,1.150073 -2.947062,2.372025 0,3.30646 6.972319,2.372026 6.972319,6.972318 0,2.084507 -1.58135,3.809616 -4.240896,3.809616 -2.875182,0 -4.456532,-1.796989 -4.456532,-1.796989 z"
       class="st4" /><path
       style="fill:#282828;stroke-width:0.7187956"
       inkscape:connector-curvature="0"
       id="path54"
       d="m 109.2677,22.545799 h -5.03157 v -1.221952 h 11.42885 v 1.221952 h -5.03157 v 12.722683 h -1.36571 z"
       class="st4" /></g></g>
</svg>