<svg xmlns="http://www.w3.org/2000/svg" xmlns:xlink="http://www.w3.org/1999/xlink" viewBox="0 10 120 60" width="120" height="60"><defs><linearGradient id="A" x1="97.155" x2="234.863" y1="80.177" y2=".671" gradientUnits="userSpaceOnUse"><stop offset="0" stop-color="#e43a2c"/><stop offset=".5" stop-color="#ed8037"/><stop offset=".606" stop-color="#ec7a36"/><stop offset=".745" stop-color="#ea6a34"/><stop offset=".901" stop-color="#e74f2f"/><stop offset="1" stop-color="#e43a2c"/></linearGradient><path id="B" d="M70.147 33.218c0 22.136-17.944 40.08-40.08 40.08S-10.01 55.354-10.01 33.218 7.93-6.862 30.06-6.862s40.08 17.94 40.08 40.08z"/></defs><g transform="matrix(.430557 0 0 .430557 4.639996 23.683033)"><path d="M228.32 38.288c0-7.244 5.873-13.12 13.112-13.12 5.03 0 9.396 2.833 11.6 7l-4.82 1.566a8.17 8.17 0 0 0-6.78-3.606c-4.5 0-8.164 3.655-8.164 8.17a8.17 8.17 0 0 0 8.165 8.168c2.508 0 4.75-1.127 6.246-2.906l-2.87.472-3.48-3.482 15-2.453-2.46 14.986-3.5-3.48.34-2.06a13.12 13.12 0 0 1-9.3 3.86 13.13 13.13 0 0 1-13.12-13.12zM76.732 42.194c-.024 1.578.262 2.937.86 4.084s1.4 2.1 2.403 2.833c1.028.74 2.197 1.275 3.5 1.6 1.34.36 2.713.54 4.123.54 1.743 0 3.272-.202 4.585-.607 1.34-.4 2.45-.97 3.334-1.688.906-.74 1.587-1.6 2.04-2.615s.68-2.093.684-3.26c0-1.436-.3-2.604-.93-3.517-.6-.93-1.3-1.67-2.15-2.218-.83-.552-1.68-.946-2.54-1.186-.83-.265-1.5-.443-1.97-.538l-3.9-1.003c-.98-.263-1.75-.528-2.33-.8-.55-.263-.92-.55-1.1-.86s-.28-.717-.28-1.22c0-.548.12-1.003.36-1.362s.54-.655.9-.896c.4-.238.8-.408 1.26-.503.45-.095.9-.144 1.36-.144.7 0 1.33.062 1.9.183a4.51 4.51 0 0 1 1.58.608c.46.3.82.68 1.08 1.2.3.5.46 1.14.5 1.9h5.45c0-1.48-.28-2.73-.86-3.76a7.12 7.12 0 0 0-2.26-2.58c-.95-.67-2.05-1.15-3.3-1.43-1.2-.3-2.5-.46-3.83-.46-1.15 0-2.3.16-3.44.47a9.48 9.48 0 0 0-3.08 1.44 7.75 7.75 0 0 0-2.22 2.44c-.55.96-.82 2.1-.82 3.4 0 1.18.2 2.18.65 3a6.46 6.46 0 0 0 1.76 2.05 9.78 9.78 0 0 0 2.44 1.36c.908.34 1.84.62 2.8.86a53.19 53.19 0 0 0 2.76.72c.9.22 1.72.47 2.44.76s1.3.65 1.72 1.08c.457.43.68 1 .68 1.7 0 .65-.164 1.2-.5 1.62-.333.4-.752.73-1.252.97a5.84 5.84 0 0 1-1.615.5c-.575.07-1.1.1-1.6.1a9.51 9.51 0 0 1-2.15-.25c-.7-.2-1.3-.47-1.83-.83-.5-.38-.9-.87-1.22-1.47s-.47-1.32-.47-2.18h-5.45zM139.217 31.4l3.223 9.394h-6.63l3.408-9.394zM126.8 50.374V25.092h-7.92l-5.735 17.603-5.985-17.6h-7.92v25.6h5.268l.072-17.95 6.272 17.96h4.338l6.342-18.13v18.13h10.813l2.008-5.7h9.57l1.934 5.7h5.843l-9.57-25.6h-5.77l-9.56 25.3zm23.133-8.18c-.023 1.578.264 2.937.86 4.084s1.398 2.1 2.4 2.833c1.03.74 2.2 1.275 3.515 1.6a15.79 15.79 0 0 0 4.12.54c1.745 0 3.276-.202 4.6-.607 1.338-.4 2.448-.97 3.332-1.688.9-.74 1.6-1.6 2.044-2.615s.68-2.093.68-3.26c0-1.436-.3-2.604-.93-3.517-.598-.93-1.315-1.67-2.152-2.218s-1.685-.946-2.545-1.186c-.836-.265-1.492-.443-1.97-.538l-3.907-1.003c-.98-.263-1.756-.528-2.33-.8-.55-.263-.92-.55-1.1-.86s-.287-.717-.287-1.22c0-.548.12-1.003.36-1.362s.536-.655.895-.896c.383-.238.8-.408 1.254-.503a6.63 6.63 0 0 1 1.362-.144c.694 0 1.327.062 1.9.183.597.117 1.123.32 1.578.608s.812.68 1.074 1.2c.287.5.455 1.14.504 1.9h5.448c0-1.48-.3-2.73-.86-3.76-.55-1.05-1.302-1.9-2.258-2.58s-2.055-1.15-3.3-1.43c-1.217-.3-2.496-.46-3.834-.46-1.147 0-2.292.16-3.44.47s-2.176.8-3.083 1.44a7.8 7.8 0 0 0-2.222 2.44c-.55.96-.82 2.1-.82 3.4 0 1.18.22 2.18.65 3a6.59 6.59 0 0 0 1.76 2.05 9.78 9.78 0 0 0 2.44 1.36c.9.34 1.84.62 2.8.86.93.27 1.85.5 2.76.72.9.22 1.72.47 2.44.76s1.3.65 1.72 1.08c.45.43.68 1 .68 1.7 0 .65-.17 1.2-.5 1.62-.33.4-.75.73-1.25.97s-1.04.4-1.6.5c-.57.07-1.1.1-1.6.1a9.51 9.51 0 0 1-2.15-.25c-.7-.2-1.3-.47-1.83-.83-.5-.38-.9-.87-1.22-1.47s-.46-1.32-.46-2.18h-5.45zm22.497 8.5h5.625v-11.04h10.36v11.04h5.625V25.092h-5.626v9.823h-10.36v-9.82h-5.624v25.6zm24.18 0h5.627V25.092H196.6zm8.197 0h5.268l.07-17.132 10.647 17.133h5.627v-25.59h-5.28l-.07 17.174-10.67-17.174h-5.6v25.6z" fill="url(#A)"/><g transform="translate(0 -8)"><path d="M67 61.073L57 17.8a6.54 6.54 0 0 0-7.833-4.89L41.88 14.6l2.5.47 4.08-.94c3.5-.8 7 1.38 7.83 4.9l3.7 15.985c-1.5 3.032-4.5 8.132-9 11.2 1.08.877 2 1.8 2.78 2.77 2.4 3.062 3.6 6.766 3.6 11.1 0 4.23-1.16 7.803-3.46 10.723l8.25-1.905c3.53-.8 5.72-4.318 4.9-7.83zm-53.2 12.442l5.176-11.568c4.345 3.45 9.253 5.172 14.717 5.172 5.67 0 8.485-2.02 8.497-6.05 0-2.37-.858-4.3-2.557-5.82-1.708-1.52-5.024-3.3-9.958-5.36-2.933-1.22-5.452-2.58-7.585-4.06-5.9 1.63-10.93 5.66-14.196 9.56L2.382 31.45c-.804-3.5 1.375-7.02 4.9-7.824l9.494-2.193a14.14 14.14 0 0 1 1.218-1.335l-12.1 2.788a6.53 6.53 0 0 0-4.9 7.83l10 43.274a6.54 6.54 0 0 0 7.83 4.896l4.96-1.146-.387-.094c-2.48-.66-5.675-2.03-9.597-4.13z" fill="#e43a2c"/><path d="M13.598 31.18c0-3.87 1.06-7.116 3.178-9.747L7.28 23.626c-4.44 1.012-5.75 4.1-4.898 7.824l5.533 23.956c3.266-3.9 8.305-7.926 14.196-9.56C16.45 41.9 13.6 37.02 13.6 31.18zM49.6 29.73c-3.172-2.715-7.602-4.075-13.262-4.075-5.076 0-7.62 2.018-7.62 6.05 0 1.6.845 3.02 2.506 4.304 1.667 1.27 5.228 3 10.7 5.17 3.734 1.46 6.734 3.13 9.04 5.02 4.523-3.08 7.53-8.18 9.016-11.2L56.27 19c-.763-3.293-3.398-5.9-7.824-4.9l-4.073.94c3.242.724 6.38 1.844 9.4 3.384z" fill="#e85c32"/><defs><path id="C" d="M1.7 31.08c-.8-3.45 1.35-6.888 4.794-7.68l42.464-9.8a6.41 6.41 0 0 1 7.682 4.8l9.818 42.473c.793 3.446-1.354 6.885-4.8 7.678l-42.464 9.8a6.4 6.4 0 0 1-7.68-4.8z"/></defs><clipPath id="D"><use xlink:href="#C"/></clipPath><radialGradient id="E" cx="22.3" cy="119.199" r="34.25" gradientTransform="matrix(1.1702,0,0,1.1702,3.972,-106.27)" gradientUnits="userSpaceOnUse"><stop offset="0" stop-color="#fff"/><stop offset=".106" stop-color="#fefaf9" stop-opacity=".894"/><stop offset=".245" stop-color="#fdece9" stop-opacity=".755"/><stop offset=".402" stop-color="#f9d5ce" stop-opacity=".598"/><stop offset=".572" stop-color="#f5b6a8" stop-opacity=".428"/><stop offset=".754" stop-color="#f08d77" stop-opacity=".246"/><stop offset=".941" stop-color="#e95c3d" stop-opacity=".06"/><stop offset="1" stop-color="#e74b29" stop-opacity="0"/></radialGradient><use xlink:href="#B" clip-path="url(#D)" opacity=".65" fill="url(#E)"/><radialGradient id="F" cx="22.3" cy="119.199" r="34.25" gradientTransform="matrix(1.1702,0,0,1.1702,3.972,-106.27)" gradientUnits="userSpaceOnUse"><stop offset="0" stop-color="#f9bc3a"/><stop offset=".158" stop-color="#f8b639" stop-opacity=".843"/><stop offset=".364" stop-color="#f5a637" stop-opacity=".636"/><stop offset=".597" stop-color="#f18b33" stop-opacity=".403"/><stop offset=".848" stop-color="#eb652d" stop-opacity=".152"/><stop offset="1" stop-color="#e74b29" stop-opacity="0"/></radialGradient><use xlink:href="#B" clip-path="url(#D)" opacity=".3" fill="url(#F)"/><g fill="#fff"><path d="M16.776 21.433l27.597-6.374-2.5-.47-23.9 5.5c-.437.42-.845.87-1.217 1.33zM53.72 48.976c-.765-.972-1.7-1.894-2.775-2.77-3.88 2.64-8.875 3.8-15 .85-4.832-2.316-9.563-2.393-13.845-1.2 2.133 1.485 4.65 2.844 7.585 4.06 4.935 2.055 8.25 3.838 9.958 5.353 1.7 1.5 2.557 3.44 2.557 5.8-.013 4.03-2.828 6.04-8.497 6.04-5.464 0-10.372-1.73-14.717-5.18L13.82 73.5c3.922 2.1 7.118 3.47 9.597 4.134.124.033.258.062.387.094l30.055-6.934c2.3-2.92 3.46-6.493 3.46-10.724-.01-4.343-1.2-8.047-3.6-11.108z"/><path d="M13.598 31.18c0 5.838 2.848 10.72 8.512 14.666 4.282-1.183 9.013-1.107 13.844 1.2 6.116 2.94 11.1 1.8 15-.85-2.306-1.9-5.307-3.566-9.04-5.026-5.46-2.165-9.022-3.892-10.7-5.17-1.66-1.285-2.507-2.714-2.507-4.305 0-4.03 2.545-6.05 7.62-6.05 5.66 0 10.1 1.36 13.262 4.077l4.2-11.288a39.84 39.84 0 0 0-9.41-3.383l-27.6 6.38c-2.12 2.63-3.18 5.88-3.18 9.75z"/></g></g></g></svg>