<svg xmlns="http://www.w3.org/2000/svg" xmlns:xlink="http://www.w3.org/1999/xlink" width="120" height="60"><path d="M36.026 33.2c-.455-.455-1.214-.455-1.69 0s-.455 1.214 0 1.69l8.023 8.023c.455.455 1.214.455 1.69 0 .455-.455.455-1.214 0-1.69L36.026 33.2zM23.08 14.857a10.15 10.15 0 0 0-10.148 10.148c0 5.616 4.553 10.126 10.148 10.126a10.15 10.15 0 0 0 10.148-10.148c0-5.616-4.532-10.126-10.148-10.126zm.13 17.89c-4.293 0-7.763-3.47-7.763-7.763s3.47-7.763 7.763-7.763a7.77 7.77 0 0 1 7.763 7.763 7.77 7.77 0 0 1-7.763 7.763zm22.14 15.2l-10.3-10.3c-.477-.477-1.214-.477-1.69 0s-.477 1.214 0 1.69l10.3 10.3c.477.477 1.214.477 1.69 0 .455-.477.455-1.236 0-1.69zm-16.76-10.95a1.07 1.07 0 0 0-.325-.217l-.325-.325a12.45 12.45 0 0 1-4.857.976A12.64 12.64 0 0 1 10.44 24.81c0-6.96 5.68-12.663 12.663-12.663a12.64 12.64 0 0 1 12.641 12.62 12.53 12.53 0 0 1-.976 4.857l7.546 7.546c.455.455 1.214.455 1.69 0s.455-1.214 0-1.69l-6.743-6.743c.37-1.28.542-2.624.542-4C37.804 16.592 31.212 10 23.06 10S8.293 16.57 8.293 24.723s6.592 14.745 14.745 14.745c1.41 0 2.775-.195 4.076-.564L37.87 49.66c.455.455 1.214.455 1.69 0s.455-1.214 0-1.69L28.588 36.996z" fill-rule="evenodd"/><path d="M55.378 19.693h-1.87V5.887h1.87v13.805z"/><use xlink:href="#B"/><path d="M74.782 11.542q-.116.212-.356.212-.145 0-.328-.106-.183-.106-.453-.23-.26-.135-.626-.24-.366-.116-.867-.116-.434 0-.78.116-.347.106-.597.3-.24.193-.376.453-.125.25-.125.55 0 .376.212.626.222.25.578.434.356.183.81.328.453.135.925.3.482.154.934.347.453.193.81.482.356.29.568.713.222.414.222 1.002 0 .674-.24 1.252-.24.568-.713.992-.472.414-1.156.655-.684.24-1.58.24-1.02 0-1.85-.328-.83-.337-1.407-.857l.405-.655q.077-.125.183-.193.106-.067.27-.067.173 0 .366.135.193.135.462.3.28.164.674.3.395.135.983.135.5 0 .877-.125.376-.135.626-.356.25-.222.366-.51.125-.29.125-.617 0-.405-.222-.665-.212-.27-.568-.453-.356-.193-.82-.328-.453-.145-.934-.3-.472-.154-.934-.347-.453-.202-.81-.5-.356-.3-.578-.732-.212-.443-.212-1.07 0-.56.23-1.07.23-.52.674-.906.443-.395 1.09-.626.645-.23 1.474-.23.963 0 1.724.308.77.3 1.33.83l-.385.626z"/><use xlink:href="#C"/><path d="M90.58 19.693q-.25 0-.385-.077-.135-.087-.212-.328l-.193-.915q-.385.347-.76.626-.366.27-.77.462-.395.183-.857.28-.453.106-1.012.106-.568 0-1.07-.154-.5-.164-.877-.482-.366-.318-.588-.8-.212-.49-.212-1.156 0-.578.318-1.108.318-.54 1.03-.954.713-.414 1.86-.674 1.146-.27 2.813-.308v-.76q0-1.137-.49-1.715-.49-.588-1.435-.588-.636 0-1.07.164-.424.154-.742.356-.308.193-.54.356-.222.154-.443.154-.173 0-.3-.087-.125-.096-.212-.23l-.308-.55q.81-.78 1.744-1.166.934-.385 2.07-.385.82 0 1.455.27.636.27 1.07.75.434.482.655 1.166.222.684.222 1.503v6.243h-.76zm-3.68-1.05q.453 0 .83-.087.376-.096.703-.26.337-.173.636-.414.308-.25.597-.56V15.3q-1.185.04-2.023.193-.83.145-1.358.385-.52.24-.76.568-.23.328-.23.732 0 .385.125.665.125.28.337.462.222.173.51.26.3.077.636.077z"/><use xlink:href="#B" x="35.601"/><use xlink:href="#C" x="27.094"/><path d="M64.118 35.464h5.973v1.57h-7.832V23.228h1.86v12.235z"/><use xlink:href="#D"/><path d="M85.35 27.11q.636 0 1.185.145.55.135 1.002.405h2.65v.636q0 .318-.405.405l-1.108.154q.328.626.328 1.397 0 .713-.28 1.3-.27.578-.75.992-.482.414-1.156.636-.674.222-1.464.222-.694 0-1.3-.164-.308.193-.472.414-.154.222-.154.434 0 .347.28.53.29.173.75.25.462.077 1.05.096.597.02 1.214.067.626.04 1.214.145.597.106 1.06.347.462.24.742.665.29.424.29 1.098 0 .626-.318 1.214-.308.588-.896 1.04-.588.462-1.445.732-.848.28-1.917.28-1.07 0-1.87-.212-.8-.212-1.33-.568-.53-.356-.8-.83-.26-.462-.26-.973 0-.723.453-1.224.453-.5 1.233-.8-.434-.193-.684-.51-.25-.328-.25-.877 0-.212.077-.434.077-.23.23-.453.164-.222.395-.424.23-.202.54-.356-.723-.405-1.127-1.08-.405-.674-.405-1.56 0-.713.27-1.29.28-.588.77-.992.49-.414 1.166-.636.684-.222 1.493-.222zm3.092 10.453q0-.356-.202-.578-.202-.222-.55-.347-.337-.125-.8-.173-.453-.058-.963-.087-.5-.03-1.02-.058-.52-.03-1.002-.096-.54.25-.886.626-.337.376-.337.896 0 .328.164.607.173.29.52.49.347.212.867.328.53.125 1.243.125.694 0 1.243-.125.55-.125.925-.356.385-.23.588-.55.202-.318.202-.703zm-3.092-5.3q.52 0 .915-.145.395-.145.665-.405.27-.26.405-.617.135-.366.135-.8 0-.896-.55-1.426-.54-.53-1.57-.53-1.04 0-1.6.53-.54.53-.54 1.426 0 .434.135.8.145.356.414.617.27.26.665.405.395.145.915.145z"/><use xlink:href="#D" x="20.773"/><path d="M61.436 42.727q-.087.145-.193.222-.096.067-.24.067-.164 0-.385-.164-.222-.164-.56-.356-.328-.202-.8-.366-.462-.164-1.127-.164-.626 0-1.108.173-.472.164-.8.453-.318.3-.482.684-.164.385-.164.838 0 .578.28.963.3.376.75.645.472.27 1.06.472.597.193 1.214.405.626.212 1.214.482.597.26 1.06.665.472.405.75.992.3.588.3 1.445 0 .906-.308 1.705-.308.8-.906 1.378-.588.588-1.455.925-.857.337-1.956.337-1.35 0-2.447-.482-1.098-.5-1.88-1.32l.54-.886q.077-.106.183-.173.116-.077.25-.077.125 0 .28.106.164.096.366.25.202.154.462.337.26.183.588.337.337.154.76.26.424.096.954.096.665 0 1.185-.183.52-.183.877-.5.366-.337.56-.8.193-.462.193-1.03 0-.626-.3-1.02-.28-.405-.742-.674-.462-.27-1.06-.453-.597-.193-1.214-.385-.617-.202-1.214-.462-.597-.26-1.06-.674-.462-.414-.75-1.03-.28-.626-.28-1.54 0-.732.28-1.416.3-.684.83-1.214.55-.53 1.34-.848.8-.318 1.83-.318 1.156 0 2.1.366.954.366 1.676 1.06l-.453.886zm6.88 1.735q.877 0 1.618.3.75.3 1.3.848.55.55.857 1.368.308.8.308 1.85 0 .405-.087.54-.087.135-.328.135h-6.522q.02.925.25 1.6.23.684.636 1.146.405.453.963.684.56.222 1.252.222.645 0 1.108-.145.472-.154.8-.328.337-.173.56-.318.23-.154.395-.154.212 0 .328.164l.482.626q-.318.385-.76.674-.443.28-.954.462-.5.183-1.04.27-.54.096-1.07.096-1.012 0-1.87-.337-.848-.347-1.474-1.002-.617-.665-.963-1.638-.347-.973-.347-2.235 0-1.02.308-1.908.318-.886.906-1.532.588-.655 1.435-1.02.848-.376 1.908-.376zm.04 1.262q-1.243 0-1.956.723-.713.713-.886 1.985h5.337q0-.597-.173-1.1-.164-.5-.5-.857-.318-.366-.78-.56-.462-.202-1.05-.202zm12.328 8.65q-.25 0-.385-.077-.135-.087-.212-.328l-.193-.915q-.385.347-.76.626-.366.27-.77.462-.395.183-.857.28-.453.106-1.012.106-.568 0-1.07-.154-.5-.164-.877-.482-.366-.318-.588-.8-.212-.5-.212-1.156 0-.578.318-1.108.318-.54 1.03-.954.713-.414 1.86-.674 1.146-.27 2.813-.308v-.76q0-1.137-.5-1.715-.5-.588-1.435-.588-.636 0-1.07.164-.424.154-.742.356-.308.193-.54.356-.222.154-.443.154-.173 0-.3-.087-.125-.096-.212-.23l-.308-.55q.8-.78 1.744-1.166.934-.385 2.07-.385.82 0 1.455.27.636.27 1.07.75.434.482.655 1.166.222.684.222 1.503v6.243h-.76zm-3.68-1.05q.453 0 .83-.087.376-.096.703-.26.337-.173.636-.414.308-.25.597-.56V49.98q-1.185.04-2.023.193-.83.145-1.358.385-.52.24-.76.568-.23.328-.23.732 0 .385.125.665.125.28.337.462.222.173.5.26.3.077.636.077zm7.034 1.05v-9.76h.983q.28 0 .385.106.106.106.145.366l.106 1.484q.462-1.002 1.137-1.56.684-.568 1.657-.568.308 0 .588.067.3.067.5.212L89.414 46q-.058.24-.3.24-.135 0-.395-.058-.26-.058-.588-.058-.462 0-.83.145-.366.135-.655.405-.28.26-.5.645-.222.385-.405.886v6.166h-1.724zm13.415-8.024q-.077.106-.154.164-.077.058-.212.058-.145 0-.318-.116-.173-.125-.434-.27-.25-.145-.626-.26-.366-.125-.906-.125-.723 0-1.272.26-.55.25-.925.732-.366.482-.56 1.166-.183.684-.183 1.532 0 .886.202 1.58.202.684.568 1.156.376.462.896.713.53.24 1.185.24.626 0 1.03-.145.405-.154.665-.337.27-.183.443-.328.183-.154.356-.154.212 0 .328.164l.482.626q-.318.395-.723.674-.405.28-.877.472-.462.183-.973.27-.5.087-1.04.087-.915 0-1.705-.337-.78-.337-1.358-.973-.578-.645-.906-1.58-.328-.934-.328-2.13 0-1.1.3-2.013.308-.925.886-1.6.588-.674 1.435-1.05.857-.376 1.965-.376 1.03 0 1.8.337.8.328 1.397.934l-.453.617zm2.4 8.025v-14.2h1.724v5.742q.626-.665 1.387-1.06.76-.405 1.753-.405.8 0 1.407.27.617.26 1.02.75.414.482.626 1.166.212.684.212 1.513v6.214h-1.724V48.16q0-1.108-.5-1.715-.5-.617-1.532-.617-.77 0-1.435.366-.655.366-1.204.992v7.187h-1.724z"/><defs ><path id="B" d="M58.335 19.693v-9.76h1.03q.366 0 .453.356l.135 1.06q.636-.703 1.426-1.137.8-.434 1.82-.434.8 0 1.407.27.617.26 1.02.75.414.482.626 1.166.212.684.212 1.513v6.214h-1.724V13.48q0-1.108-.51-1.715-.5-.617-1.532-.617-.77 0-1.435.366-.655.366-1.204.992v7.187h-1.724z"/><path id="C" d="M80.45 19.847q-1.156 0-1.782-.645-.617-.645-.617-1.86V11.37h-1.175q-.154 0-.26-.087-.106-.096-.106-.29v-.684l1.6-.202.395-3.015q.03-.145.125-.23.106-.096.27-.096h.867v3.362h2.823v1.243h-2.823v5.857q0 .617.3.915.3.3.77.3.27 0 .462-.067.202-.077.347-.164.145-.087.24-.154.106-.077.183-.077.135 0 .24.164l.5.82q-.443.414-1.07.655-.626.23-1.29.23z"/><path id="D" d="M75.15 27.12q1.07 0 1.927.356.857.356 1.464 1.012.607.655.925 1.6.328.925.328 2.07 0 1.156-.328 2.08-.318.925-.925 1.58-.607.655-1.464 1.012-.857.347-1.927.347-1.08 0-1.946-.347-.857-.356-1.464-1.012-.607-.655-.934-1.58-.318-.925-.318-2.08 0-1.146.318-2.07.328-.934.934-1.6.607-.655 1.464-1.012.867-.356 1.946-.356zm0 8.71q1.445 0 2.158-.963.713-.973.713-2.707 0-1.744-.713-2.717-.713-.973-2.158-.973-.732 0-1.28.25-.54.25-.906.723-.356.472-.54 1.166-.173.684-.173 1.55 0 1.734.713 2.707.723.963 2.187.963z"/></defs></svg>