<svg xmlns="http://www.w3.org/2000/svg" width="64" height="64"><path d="M46.372 37.122c-.73-.73-1.943-.73-2.706 0s-.73 1.943 0 2.706l12.836 12.836c.73.73 1.943.73 2.706 0 .73-.73.73-1.943 0-2.706L46.372 37.122zM25.66 7.77c-8.95 0-16.236 7.25-16.236 16.236S16.7 40.21 25.66 40.21s16.236-7.25 16.236-16.236S34.646 7.77 25.66 7.77zm.208 28.622a12.41 12.41 0 0 1-12.42-12.42 12.41 12.41 0 0 1 12.42-12.42c6.835 0 12.42 5.55 12.42 12.42s-5.586 12.42-12.42 12.42zM61.3 60.713l-16.48-16.48c-.763-.763-1.943-.763-2.706 0s-.763 1.943 0 2.706l16.48 16.48c.763.763 1.943.763 2.706 0 .73-.763.73-1.978 0-2.706zm-26.818-17.52a1.71 1.71 0 0 0-.52-.347l-.52-.52a19.92 19.92 0 0 1-7.771 1.561c-11.17 0-20.226-9.055-20.226-20.19s9.1-20.26 20.26-20.26S45.92 12.49 45.92 23.626a20.05 20.05 0 0 1-1.561 7.771L56.433 43.47c.73.73 1.943.73 2.706 0s.73-1.943 0-2.706l-10.8-10.8c.6-2.047.867-4.198.867-6.384C49.217 10.547 38.67 0 25.626 0S2 10.512 2 23.557s10.547 23.59 23.59 23.59a23.88 23.88 0 0 0 6.522-.902L49.32 63.453c.73.73 1.943.73 2.706 0s.73-1.943 0-2.706L34.473 43.193z" fill-rule="evenodd"/></svg>