<?xml version="1.0" encoding="UTF-8" standalone="no"?>
<!-- Generator: Adobe Illustrator 17.0.0, SVG Export Plug-In . SVG Version: 6.00 Build 0)  -->

<svg
   xmlns:dc="http://purl.org/dc/elements/1.1/"
   xmlns:cc="http://creativecommons.org/ns#"
   xmlns:rdf="http://www.w3.org/1999/02/22-rdf-syntax-ns#"
   xmlns:svg="http://www.w3.org/2000/svg"
   xmlns="http://www.w3.org/2000/svg"
   xmlns:sodipodi="http://sodipodi.sourceforge.net/DTD/sodipodi-0.dtd"
   xmlns:inkscape="http://www.inkscape.org/namespaces/inkscape"
   version="1.1"
   id="Camada_1"
   x="0px"
   y="0px"
   viewBox="177.273 0 120 60"
   enable-background="new 177.273 0 72.727 50"
   xml:space="preserve"
   sodipodi:docname="cartaoelocombr-ar21.svg"
   width="120"
   height="60"
   inkscape:version="0.92.3 (2405546, 2018-03-11)"><metadata
   id="metadata29"><rdf:RDF><cc:Work
       rdf:about=""><dc:format>image/svg+xml</dc:format><dc:type
         rdf:resource="http://purl.org/dc/dcmitype/StillImage" /><dc:title></dc:title></cc:Work></rdf:RDF></metadata><defs
   id="defs27" /><sodipodi:namedview
   pagecolor="#ffffff"
   bordercolor="#666666"
   borderopacity="1"
   objecttolerance="10"
   gridtolerance="10"
   guidetolerance="10"
   inkscape:pageopacity="0"
   inkscape:pageshadow="2"
   inkscape:window-width="1920"
   inkscape:window-height="1001"
   id="namedview25"
   showgrid="false"
   inkscape:zoom="4.6612676"
   inkscape:cx="10.190361"
   inkscape:cy="26.144658"
   inkscape:window-x="-9"
   inkscape:window-y="-9"
   inkscape:window-maximized="1"
   inkscape:current-layer="Camada_1" />




<g
   id="g850"
   transform="matrix(1.5334077,0,0,1.5334077,-89.211069,-8.9713931)"><line
     y2="29.009001"
     x2="208.383"
     y1="31.856001"
     x1="206.603"
     id="line2997"
     style="fill:none" /><g
     style="fill:#333333;fill-opacity:1"
     id="g17">
	<path
   style="fill:#333333;fill-opacity:1"
   d="m 217.042,28.958 c -1.501,1.449 -3.27,1.636 -5.309,0.562 l -1.561,2.498 c 3.51,1.747 5.831,1.57 9.025,-0.906 z"
   id="path3019"
   inkscape:connector-curvature="0" />
	<g
   style="fill:#333333;fill-opacity:1"
   id="g15">
		<path
   style="fill:#333333;fill-opacity:1"
   d="m 210.939,19.246 c -3.55,1.582 -5.636,6.377 -2.953,10.586 l 13.21,-5.621 c -1.396,-5.095 -6.49,-6.644 -10.257,-4.965 z m -1.22,7.135 c -0.05,-4.959 5.186,-6.26 7.557,-3.248 z"
   id="path3017"
   inkscape:connector-curvature="0" />
		<path
   style="fill:#333333;fill-opacity:1"
   d="m 222.569,15.28 0.031,14.271 c -0.008,2.645 2.725,3.005 4.06,3.623 l 1.093,-2.717 -2.373,-1.062 -0.062,-14.115 z"
   id="path3021"
   inkscape:connector-curvature="0" />
		<g
   style="fill:#333333;fill-opacity:1"
   id="g13">
			<path
   style="fill:#333333;fill-opacity:1"
   d="m 235.393,21.825 c 2.08,-0.16 3.608,1.199 4.494,3.326 l 2.906,-0.729 c -0.837,-3.682 -4.477,-6.01 -8.054,-5.512 z"
   id="path3019_2_"
   inkscape:connector-curvature="0" />
			<path
   style="fill:#333333;fill-opacity:1"
   d="m 239.587,28.005 c -0.9,1.882 -2.841,2.527 -5.126,2.233 l -0.82,2.881 c 3.608,1.114 7.443,-0.877 8.798,-4.224 z"
   id="path3019_4_"
   inkscape:connector-curvature="0" />
			<path
   style="fill:#333333;fill-opacity:1"
   d="m 232.19,28.661 c -1.249,-1.671 -0.921,-3.689 0.4,-5.577 l -2.172,-2.063 c -2.661,2.679 -2.676,7.001 -0.339,9.754 z"
   id="path3019_1_"
   inkscape:connector-curvature="0" />
		</g>
	</g>
</g><g
     id="g22">
	<path
   d="m 192.675,19.614 c 2.856,-0.219 4.955,1.647 6.172,4.567 l 3.99,-1.001 c -1.149,-5.056 -6.148,-8.253 -11.059,-7.569 z"
   id="path3019_6_"
   inkscape:connector-curvature="0"
   style="fill:#ffde00" />
	<path
   d="m 198.435,28.1 c -1.236,2.584 -3.901,3.47 -7.039,3.066 l -1.126,3.957 c 4.954,1.53 10.221,-1.204 12.081,-5.8 z"
   id="path3019_5_"
   inkscape:connector-curvature="0"
   style="fill:#ef4023" />
	<path
   d="m 188.278,29.001 c -1.716,-2.294 -1.265,-5.066 0.55,-7.658 l -2.983,-2.833 c -3.654,3.679 -3.675,9.613 -0.466,13.393 z"
   id="path3019_3_"
   inkscape:connector-curvature="0"
   style="fill:#1d9ad6" />
</g></g>
</svg>