<?xml version="1.0" encoding="UTF-8" standalone="no"?>
<svg
   xmlns:dc="http://purl.org/dc/elements/1.1/"
   xmlns:cc="http://creativecommons.org/ns#"
   xmlns:rdf="http://www.w3.org/1999/02/22-rdf-syntax-ns#"
   xmlns:svg="http://www.w3.org/2000/svg"
   xmlns="http://www.w3.org/2000/svg"
   xmlns:sodipodi="http://sodipodi.sourceforge.net/DTD/sodipodi-0.dtd"
   xmlns:inkscape="http://www.inkscape.org/namespaces/inkscape"
   width="64"
   height="64"
   viewBox="0 0 64 64"
   version="1.1"
   id="svg20"
   sodipodi:docname="envoy-icon.svg"
   inkscape:version="0.92.3 (2405546, 2018-03-11)">
  <metadata
     id="metadata24">
    <rdf:RDF>
      <cc:Work
         rdf:about="">
        <dc:format>image/svg+xml</dc:format>
        <dc:type
           rdf:resource="http://purl.org/dc/dcmitype/StillImage" />
        <dc:title>envoy-logo-transparent-vector</dc:title>
      </cc:Work>
    </rdf:RDF>
  </metadata>
  <sodipodi:namedview
     pagecolor="#ffffff"
     bordercolor="#666666"
     borderopacity="1"
     objecttolerance="10"
     gridtolerance="10"
     guidetolerance="10"
     inkscape:pageopacity="0"
     inkscape:pageshadow="2"
     inkscape:window-width="1334"
     inkscape:window-height="850"
     id="namedview22"
     showgrid="false"
     inkscape:zoom="4.1508086"
     inkscape:cx="37.987973"
     inkscape:cy="16.008234"
     inkscape:window-x="0"
     inkscape:window-y="0"
     inkscape:window-maximized="0"
     inkscape:current-layer="svg20" />
  <!-- Generator: Sketch 3.8.3 (29802) - http://www.bohemiancoding.com/sketch -->
  <title
     id="title2">envoy-logo-transparent-vector</title>
  <desc
     id="desc4">Created with Sketch.</desc>
  <defs
     id="defs6" />
  <g
     id="g881"
     transform="matrix(1.9638144,0,0,1.9638144,4.3835615,-53.828862)">
    <path
       inkscape:connector-curvature="0"
       id="border"
       d="m 25.316494,29.196095 c 0.564398,0 1.023077,0.461062 1.023077,1.028391 v 26.961388 c 0,0.56733 -0.458679,1.028392 -1.023077,1.028392 H 2.8088102 c -0.5643973,0 -1.0230766,-0.461062 -1.0230766,-1.028392 V 30.224486 c 0,-0.567329 0.4586793,-1.028391 1.0230766,-1.028391 z M 2.795921,27.410361 C 1.2508779,27.410361 0,28.667366 0,30.213128 v 26.984104 c 0,1.545763 1.2508779,2.802767 2.795921,2.802767 h 22.533462 c 1.545043,0 2.795921,-1.257004 2.795921,-2.802767 V 30.213128 c 0,-1.545762 -1.250878,-2.802767 -2.795921,-2.802767 z"
       style="fill:#ef3934;fill-rule:evenodd;stroke:none;stroke-width:0.11160835" />
    <g
       transform="matrix(0.11160835,0,0,0.11160835,9.0789438,34.177191)"
       id="Ē"
       style="fill:#ef3934;fill-rule:evenodd;stroke:none;stroke-width:1">
      <path
         inkscape:connector-curvature="0"
         id="Rectangle-72"
         d="M 8.6571633,16.369863 H 80.649923 c 4.417438,0 8.00362,-3.581722 8.00362,-8 0,-4.4092877 -3.583342,-7.99999999 -8.00362,-7.99999999 H 8.6571633 c -4.4174375,0 -8.00361999,3.58172199 -8.00361999,7.99999999 0,4.409288 3.58334269,8 8.00361999,8 z" />
      <path
         inkscape:connector-curvature="0"
         id="Rectangle-73"
         d="M 8.6571633,66.369863 H 80.649923 c 4.417438,0 8.00362,-3.581722 8.00362,-8 0,-4.409288 -3.583342,-8 -8.00362,-8 H 8.6571633 c -4.4174375,0 -8.00361999,3.581722 -8.00361999,8 0,4.409288 3.58334269,8 8.00361999,8 z" />
      <path
         inkscape:connector-curvature="0"
         id="Rectangle-75"
         d="M 9.6620587,118.36986 H 57.645028 c 4.43046,0 8.008515,-3.58172 8.008515,-8 0,-4.40928 -3.585534,-8 -8.008515,-8 H 9.6620587 c -4.4304604,0 -8.0085154,3.58172 -8.0085154,8 0,4.40929 3.5855345,8 8.0085154,8 z" />
      <path
         inkscape:connector-curvature="0"
         id="Rectangle-76"
         d="M 8.6571633,170.36986 H 80.649923 c 4.417438,0 8.00362,-3.58172 8.00362,-8 0,-4.40929 -3.583342,-8 -8.00362,-8 H 8.6571633 c -4.4174375,0 -8.00361999,3.58172 -8.00361999,8 0,4.40929 3.58334269,8 8.00361999,8 z" />
      <path
         inkscape:connector-curvature="0"
         id="Rectangle-74"
         d="m 0.65354331,162.36842 c 0,4.41008 3.58172199,8.00144 7.99999999,8.00144 4.4092877,0 7.9999997,-3.58236 7.9999997,-8.00144 V 58.371302 c 0,-4.410077 -3.581722,-8.001439 -7.9999997,-8.001439 -4.4092877,0 -7.99999999,3.582367 -7.99999999,8.001439 z" />
    </g>
  </g>
</svg>
