<?xml version="1.0" encoding="UTF-8" standalone="no"?>
<svg
   xmlns:dc="http://purl.org/dc/elements/1.1/"
   xmlns:cc="http://creativecommons.org/ns#"
   xmlns:rdf="http://www.w3.org/1999/02/22-rdf-syntax-ns#"
   xmlns:svg="http://www.w3.org/2000/svg"
   xmlns="http://www.w3.org/2000/svg"
   xmlns:sodipodi="http://sodipodi.sourceforge.net/DTD/sodipodi-0.dtd"
   xmlns:inkscape="http://www.inkscape.org/namespaces/inkscape"
   id="图层_1"
   data-name="图层 1"
   viewBox="0 0 64 64"
   version="1.1"
   sodipodi:docname="baidu-icon.svg"
   width="64"
   height="64"
   inkscape:version="0.92.3 (2405546, 2018-03-11)">
  <metadata
     id="metadata17">
    <rdf:RDF>
      <cc:Work
         rdf:about="">
        <dc:format>image/svg+xml</dc:format>
        <dc:type
           rdf:resource="http://purl.org/dc/dcmitype/StillImage" />
        <dc:title>baidu</dc:title>
      </cc:Work>
    </rdf:RDF>
  </metadata>
  <sodipodi:namedview
     pagecolor="#ffffff"
     bordercolor="#666666"
     borderopacity="1"
     objecttolerance="10"
     gridtolerance="10"
     guidetolerance="10"
     inkscape:pageopacity="0"
     inkscape:pageshadow="2"
     inkscape:window-width="1920"
     inkscape:window-height="1001"
     id="namedview15"
     showgrid="false"
     inkscape:zoom="4.794184"
     inkscape:cx="47.318683"
     inkscape:cy="50.339673"
     inkscape:window-x="-9"
     inkscape:window-y="-9"
     inkscape:window-maximized="1"
     inkscape:current-layer="图层_1" />
  <defs
     id="defs4">
    <style
       id="style2">.cls-1{fill:#2319dc}.cls-2{fill:#e11408}</style>
  </defs>
  <title
     id="title6">baidu</title>
  <g
     id="g834"
     transform="matrix(1.8774094,0,0,1.8774094,-79.168144,-20.567462)">
    <path
       style="fill:#2319dc;stroke-width:0.27618363"
       inkscape:connector-curvature="0"
       id="path8"
       d="m 48.303899,28.918497 c 3.705832,-0.796238 3.202073,-5.225947 3.090495,-6.1948 -0.182281,-1.492772 -1.937704,-4.100774 -4.321445,-3.895017 -2.999355,0.268726 -3.437658,4.601771 -3.437658,4.601771 -0.406543,2.004265 0.971061,6.284283 4.668608,5.488046 z m 6.880011,-7.428788 c 2.04652,0 3.70086,-2.355846 3.70086,-5.269032 0,-2.910147 -1.65434,-5.265441 -3.70086,-5.265441 -2.044312,0 -3.703071,2.355294 -3.703071,5.265441 0,2.913186 1.658759,5.269032 3.703071,5.269032 z m 8.815781,0.347991 c 2.73698,0.355449 4.495718,-2.564641 4.845642,-4.7777 0.357106,-2.209746 -1.408536,-4.777977 -3.345688,-5.219043 -1.941571,-0.444655 -4.365083,2.664068 -4.585477,4.691808 -0.264032,2.478196 0.354896,4.95363 3.085523,5.304935 z m 10.846561,3.716327 c 0,-1.058335 -0.879093,-4.247152 -4.141098,-4.247152 -3.268633,0 -3.704175,3.009574 -3.704175,5.136464 0,2.030502 0.170405,4.864146 4.230029,4.774386 4.059623,-0.08948 3.615244,-4.598457 3.615244,-5.663698 z M 52.23924,36.622915 c -0.107988,0.311535 -0.350754,1.108049 -0.14113,1.801546 a 2.0479017,2.0479017 0 0 0 1.765366,1.625893 h 1.940742 V 35.305519 H 53.72566 a 2.2787912,2.2787912 0 0 0 -1.48642,1.317396 z"
       class="cls-1" />
    <path
       style="fill:#2319dc;stroke-width:0.27618363"
       inkscape:connector-curvature="0"
       id="path10"
       d="m 70.704878,34.847883 c 0,0 -4.233619,-3.274986 -6.705187,-6.815384 -3.349555,-5.219318 -8.109027,-3.095466 -9.700398,-0.441065 -1.584465,2.654401 -4.054375,4.333321 -4.406233,4.777977 -0.354896,0.437751 -5.112712,3.005707 -4.056309,7.697791 1.055021,4.688493 4.76472,4.598457 4.76472,4.598457 a 20.791104,20.791104 0 0 0 5.905911,-0.441065 12.45892,12.45892 0 0 1 5.90453,0.175929 c 0,0 7.410835,2.481786 9.437747,-2.296743 2.025807,-4.777425 -1.144505,-7.255897 -1.144505,-7.255897 z m -12.680972,7.110072 h -4.817747 c -2.080216,-0.414276 -2.909595,-1.834688 -3.014545,-2.076901 -0.102464,-0.245251 -0.691564,-1.386718 -0.379752,-3.328013 0.899254,-2.909871 3.464171,-3.118666 3.464171,-3.118666 h 2.564365 v -3.152084 l 2.183508,0.03314 z m 8.973206,-0.03287 h -5.54411 C 59.304846,41.37106 59.203486,39.844593 59.203486,39.844593 v -6.131552 l 2.249516,-0.03646 v 5.511245 c 0.137263,0.587442 0.867493,0.693221 0.867493,0.693221 h 2.284591 v -6.168009 h 2.392303 z"
       class="cls-1" />
  </g>
</svg>
