<?xml version="1.0" encoding="UTF-8" standalone="no"?>
<!-- Generator: Adobe Illustrator 15.0.2, SVG Export Plug-In . SVG Version: 6.00 Build 0)  -->

<svg
   xmlns:dc="http://purl.org/dc/elements/1.1/"
   xmlns:cc="http://creativecommons.org/ns#"
   xmlns:rdf="http://www.w3.org/1999/02/22-rdf-syntax-ns#"
   xmlns:svg="http://www.w3.org/2000/svg"
   xmlns="http://www.w3.org/2000/svg"
   xmlns:sodipodi="http://sodipodi.sourceforge.net/DTD/sodipodi-0.dtd"
   xmlns:inkscape="http://www.inkscape.org/namespaces/inkscape"
   version="1.1"
   id="Layer_1"
   sodipodi:docname="baidu-ar21.svg"
   inkscape:version="0.91 r13725"
   sodipodi:version="0.32"
   inkscape:output_extension="org.inkscape.output.svg.inkscape"
   x="0px"
   y="0px"
   width="120"
   height="60"
   viewBox="0 0 120 60"
   enable-background="new 0 0 231 79"
   xml:space="preserve"><metadata
     id="metadata4220"><rdf:RDF><cc:Work
         rdf:about=""><dc:format>image/svg+xml</dc:format><dc:type
           rdf:resource="http://purl.org/dc/dcmitype/StillImage" /><dc:title></dc:title></cc:Work></rdf:RDF></metadata><defs
     id="defs4218" /><sodipodi:namedview
     id="base"
     inkscape:current-layer="Layer_1"
     inkscape:window-y="138"
     inkscape:window-x="138"
     inkscape:window-width="1563"
     inkscape:window-height="852"
     inkscape:pageshadow="2"
     inkscape:pageopacity="0.0"
     inkscape:cy="30"
     inkscape:cx="60"
     inkscape:zoom="8.85"
     pagecolor="#ffffff"
     bordercolor="#666666"
     borderopacity="1.0"
     objecttolerance="10.0"
     gridtolerance="10.0"
     guidetolerance="10.0"
     showgrid="false"
     inkscape:window-maximized="0" /><rect
     id="rect2223"
     x="5"
     y="6.6955719"
     width="110"
     height="37.304428"
     style="fill:#ffffff;fill-opacity:0" /><g
     id="g2225"
     transform="matrix(0.4796393,0,0,0.4796393,5.3739652,3.7122674)"><path
       id="path2227"
       d="m 89.241,47.789 c 7.75,-1.665 6.692,-10.937 6.465,-12.963 -0.382,-3.125 -4.055,-8.582 -9.039,-8.146 -6.275,0.559 -7.191,9.623 -7.191,9.623 -0.85,4.197 2.028,13.155 9.765,11.486 m 14.392,-15.543 c 4.278,0 7.736,-4.93 7.736,-11.02 0,-6.091 -3.458,-11.013 -7.736,-11.013 -4.28,0 -7.747,4.922 -7.747,11.013 0,6.09 3.466,11.02 7.747,11.02 m 18.444,0.725 c 5.727,0.75 9.396,-5.359 10.13,-9.988 0.75,-4.623 -2.95,-10 -6.995,-10.923 -4.063,-0.934 -9.135,5.57 -9.592,9.813 -0.557,5.19 0.736,10.365 6.457,11.098 m 22.679,7.777 c 0,-2.214 -1.833,-8.888 -8.659,-8.888 -6.84,0 -7.744,6.298 -7.744,10.748 0,4.247 0.354,10.171 8.848,9.987 8.485,-0.188 7.555,-9.618 7.555,-11.847 m -8.659,19.436 c 0,0 -8.853,-6.848 -14.02,-14.252 -7.016,-10.917 -16.97,-6.471 -20.298,-0.927 -3.318,5.558 -8.476,9.068 -9.214,10 -0.745,0.913 -10.692,6.288 -8.485,16.103 2.212,9.807 9.969,9.621 9.969,9.621 0,0 5.717,0.559 12.347,-0.924 6.644,-1.479 12.36,0.363 12.36,0.363 0,0 15.498,5.197 19.733,-4.803 4.24,-9.992 -2.392,-15.181 -2.392,-15.181"
       inkscape:connector-curvature="0"
       style="fill:#2319dc" /><path
       id="path2229"
       d="m 105.008,50.637 0,6.588 -5.368,0 c 0,0 -5.365,0.445 -7.243,6.526 -0.655,4.06 0.578,6.451 0.793,6.962 0.217,0.51 1.951,3.48 6.305,4.352 l 10.073,0 0,-24.356 -4.56,-0.072 z m -0.081,20.43 -4.058,0 c 0,0 -2.827,-0.147 -3.688,-3.402 -0.444,-1.442 0.066,-3.108 0.29,-3.763 0.205,-0.656 1.154,-2.172 3.111,-2.756 l 4.344,0 0.001,9.921 0,0 z"
       inkscape:connector-curvature="0"
       style="fill:#ffffff" /><path
       id="path2231"
       d="m 112.037,57.816 0,12.824 c 0,0 0.21,3.191 4.71,4.354 l 11.592,0 0,-17.18 -5.003,0 0,12.897 -4.774,0 c 0,0 -1.526,-0.222 -1.813,-1.448 l 0,-11.523 -4.712,0.076 z"
       inkscape:connector-curvature="0"
       style="fill:#ffffff" /><path
       id="path2233"
       d="m 183.57,49.396 0,-5.406 -35.612,0 -0.046,5.486 15.31,0 -1.436,3.281 -13.02,0 0,27.129 30.929,0 c 3.233,0 2.946,-3.266 2.946,-3.266 l 0,-23.862 -13.039,0 1.146,-3.359 12.821,0 0,-0.003 z m -6.916,24.698 c 0,0 -0.375,0.901 -0.905,0.901 l -20.523,0 0,-6.328 21.431,0 -0.003,5.427 0,0 z m -0.035,-10.653 -21.396,0 0,-5.934 21.396,0 0,5.934 0,0 z"
       inkscape:connector-curvature="0"
       style="fill:#e10601" /><path
       id="path2235"
       d="m 224.263,44.135 -13.973,0 0,-2.737 -6.553,0 0,2.602 -16.028,0 0,35.831 5.767,0 0,-31.209 30.787,0 0,-4.487 z m -3.769,7.416 0,-2.074 -5.633,0 0,2.074 -11.589,0 0,-2 -5.336,0 0,2 -3.605,0 0.071,4.059 3.534,0 0,7.623 19.492,0 c 2.705,0 3.063,-2.854 3.063,-2.854 l 0,-4.771 4.125,0 0,-4.06 -4.124,0 0.002,0.003 0,0 z m -5.633,6.83 c 0,0 -0.503,0.924 -1.146,0.924 l -10.505,0 0,-3.775 11.648,0 0,2.853 0.003,0 0,-0.002 z m -19.743,10.407 8.973,5.204 c -0.711,0.781 -3.775,1.773 -3.775,1.773 l -5.982,0 0,4 8.122,0 c 2.424,-0.496 6.91,-2.776 6.91,-2.776 1.856,1.705 5.425,2.415 5.425,2.415 l 9.258,0 0,-3.99 -6.979,0 C 215.189,75.133 213.5,74.06 213.5,74.06 l 10.551,-6.058 0,-3.28 -28.93,0 0,4.064 -0.003,0.002 0,0 z m 18.67,-0.067 -5.132,2.707 -4.704,-2.707 9.836,0 z"
       inkscape:connector-curvature="0"
       style="fill:#e10601" /><path
       id="path2237"
       d="m 68.72,49.84 7.773,0 0,-6.848 -7.773,0 0,6.848 z m 0,29.845 7.773,0 0,-26.862 -7.773,0 0,26.862 z"
       inkscape:connector-curvature="0"
       style="fill:#e10601" /><path
       id="path2239"
       d="m 56.081,52.846 -16.584,-0.043 0,5.647 14.542,0 c 0,0 3.461,0.854 3.461,3.05 l 0,1.989 -13.159,0 c 0,0 -5.175,0.478 -6.837,6.659 -0.286,2.896 0.095,4.318 0.29,4.846 0.187,0.523 1.703,3.938 6.216,4.791 l 20.953,0 0,-19.243 c 0,10e-4 -0.998,-6.603 -8.882,-7.696 m 1.419,21.623 -10.59,0 c -1.423,-0.574 -1.897,-1.521 -1.997,-1.761 -0.098,-0.233 -0.428,-1.084 -0.044,-1.944 0.857,-1.658 2.277,-2.041 2.277,-2.041 l 10.354,0 0,5.746 z"
       inkscape:connector-curvature="0"
       style="fill:#e10601" /><path
       id="path2241"
       d="m 35.795,70.264 c 0.229,-6.541 -5.639,-8.803 -5.639,-8.803 4.967,-2.598 4.336,-9.146 4.336,-9.146 C 33.954,42.294 21.71,42.762 21.71,42.762 l -18.919,0 0,37.347 21.362,0 c 12.545,-0.05 11.642,-9.845 11.642,-9.845 m -12.071,2.903 0,0.017 -12.797,0 0,-8.058 12.734,0 0.431,0.087 c 0,0 2.423,0.443 3.301,2.622 0,0 0.508,2.048 -0.589,3.569 0,0 -0.807,1.406 -3.08,1.763 m 2.713,-17.316 c 0,0 -0.86,1.58 -3.142,1.922 l -12.368,0 0,-7.729 12.315,0 c 0,0 2.676,-0.123 3.562,2.002 0,10e-4 0.532,2.259 -0.367,3.805"
       inkscape:connector-curvature="0"
       style="fill:#e10601" /></g></svg>