<?xml version="1.0" encoding="UTF-8" standalone="no"?>
<!-- Generator: Adobe Illustrator 16.0.3, SVG Export Plug-In . SVG Version: 6.00 Build 0)  -->

<svg
   xmlns:dc="http://purl.org/dc/elements/1.1/"
   xmlns:cc="http://creativecommons.org/ns#"
   xmlns:rdf="http://www.w3.org/1999/02/22-rdf-syntax-ns#"
   xmlns:svg="http://www.w3.org/2000/svg"
   xmlns="http://www.w3.org/2000/svg"
   xmlns:xlink="http://www.w3.org/1999/xlink"
   xmlns:sodipodi="http://sodipodi.sourceforge.net/DTD/sodipodi-0.dtd"
   xmlns:inkscape="http://www.inkscape.org/namespaces/inkscape"
   version="1.1"
   id="Candidate_1_"
   x="0px"
   y="0px"
   width="120"
   height="60"
   viewBox="232.7 240.764 120 59.999999"
   enable-background="new 232.7 240.764 612 218.05"
   xml:space="preserve"
   sodipodi:docname="mlab-ar21.svg"
   inkscape:version="0.92.3 (2405546, 2018-03-11)"><metadata
   id="metadata59"><rdf:RDF><cc:Work
       rdf:about=""><dc:format>image/svg+xml</dc:format><dc:type
         rdf:resource="http://purl.org/dc/dcmitype/StillImage" /><dc:title></dc:title></cc:Work></rdf:RDF></metadata><defs
   id="defs57">
	
	
</defs><sodipodi:namedview
   pagecolor="#ffffff"
   bordercolor="#666666"
   borderopacity="1"
   objecttolerance="10"
   gridtolerance="10"
   guidetolerance="10"
   inkscape:pageopacity="0"
   inkscape:pageshadow="2"
   inkscape:window-width="1920"
   inkscape:window-height="1001"
   id="namedview55"
   showgrid="false"
   inkscape:zoom="4.4313725"
   inkscape:cx="89.984107"
   inkscape:cy="6.2437604"
   inkscape:window-x="-9"
   inkscape:window-y="-9"
   inkscape:window-maximized="1"
   inkscape:current-layer="Candidate_1_" />

<g
   id="g992"
   transform="translate(-0.94988754,0.31405735)"><g
     transform="matrix(0.85758832,0,0,0.85758832,44.322074,37.944755)"
     id="g960"><g
       id="m:_Stroked_in_Illustrator_1.2_center"
       style="fill:#162331;fill-opacity:1"
       transform="matrix(0.17973856,0,0,0.17973856,197.41909,208.14338)">
		<g
   id="g4"
   style="fill:#162331;fill-opacity:1">
			<path
   style="fill:#162331;fill-opacity:1"
   inkscape:connector-curvature="0"
   id="path2"
   d="m 512.56,317.509 c -13.111,0 -23.794,5.341 -32.373,16.186 -5.827,-10.521 -16.024,-16.186 -28.973,-16.186 -14.244,0 -22.661,7.445 -28.488,14.729 v -12.625 h -23.955 v 96.469 h 23.955 v -53.576 c 0,-13.92 7.77,-22.984 19.747,-22.984 11.816,0 18.614,8.093 18.614,22.337 v 54.062 h 23.956 v -53.577 c 0,-14.082 7.607,-22.984 19.747,-22.984 11.978,0 18.614,8.093 18.614,22.661 v 53.9 h 23.955 v -60.699 c 0,-23.632 -13.11,-37.713 -34.799,-37.713 z" />
		</g>
	</g><g
       id="Lab"
       transform="matrix(0.17973856,0,0,0.17973856,197.41909,208.14338)">
		<g
   id="g9">
			<path
   style="fill:#f8b71d"
   inkscape:connector-curvature="0"
   id="path7"
   d="m 595.109,286.269 h -23.794 v 129.652 h 69.763 v -23.47 h -45.969 z m 236.319,45.645 c -8.741,-9.388 -19.424,-14.244 -31.888,-14.244 -5.826,0 -11.168,1.133 -16.186,3.237 -5.018,2.104 -9.712,5.503 -14.082,9.711 v -42.246 h -23.794 v 127.547 h 23.794 v -10.197 c 4.694,4.532 9.388,7.607 14.243,9.711 4.694,1.942 9.874,2.914 15.377,2.914 12.464,0 23.146,-4.856 32.211,-14.406 9.064,-9.549 13.597,-21.527 13.597,-35.771 -0.162,-14.728 -4.532,-26.868 -13.272,-36.256 z m -18.291,56.49 c -5.018,5.341 -11.168,7.931 -18.614,7.931 -7.607,0 -13.92,-2.589 -18.775,-7.931 -5.018,-5.18 -7.446,-12.14 -7.446,-20.719 0,-8.255 2.429,-15.053 7.446,-20.232 5.017,-5.179 11.33,-7.77 18.775,-7.77 7.446,0 13.759,2.59 18.614,7.931 4.856,5.18 7.445,11.978 7.445,20.233 10e-4,8.418 -2.428,15.216 -7.445,20.557 z M 692.064,317.347 c -15.701,0 -26.384,3.237 -37.229,8.093 l 5.827,17.643 c 8.902,-3.723 17.319,-5.827 28.325,-5.827 15.863,0 24.441,6.636 24.441,20.718 v 0.809 c -7.607,-2.428 -15.538,-3.885 -26.545,-3.885 -24.117,0 -40.951,10.521 -40.951,31.725 v 1.133 c 0,19.747 16.672,30.754 35.124,30.754 15.053,0 25.412,-4.532 32.049,-12.626 v 10.197 h 23.793 v -57.299 c 0,-15.377 -4.37,-23.308 -11.653,-30.43 -6.636,-6.959 -18.451,-11.005 -33.181,-11.005 z m 21.852,61.345 c 0,10.359 -11.007,22.175 -25.574,22.175 -10.521,0 -18.291,-5.179 -18.291,-14.567 v -0.324 c 0,-10.035 7.932,-16.024 22.014,-16.024 8.74,0 16.186,1.619 21.689,3.885 z" />
		</g>
	</g></g><g
     transform="matrix(1.1554632,0,0,1.1554632,-32.96802,-42.696888)"
     id="g952"><g
       id="g52"
       transform="matrix(0.17973856,0,0,0.17973856,197.41909,208.14338)">
	<g
   id="g19">
		<path
   style="fill:#407db8"
   inkscape:connector-curvature="0"
   d="m 314.926,453.473 v -6.15 h 10.521 v 6.15 c 0,2.913 -2.429,5.342 -5.342,5.342 -2.913,0 -5.179,-2.429 -5.179,-5.342 z"
   id="path13" />
		<path
   style="fill:#407db8"
   inkscape:connector-curvature="0"
   d="m 285.467,453.473 v -6.15 h 10.683 v 6.15 c 0,2.913 -2.428,5.342 -5.341,5.342 -2.914,-10e-4 -5.342,-2.429 -5.342,-5.342 z"
   id="path15" />
		<path
   style="fill:#407db8"
   inkscape:connector-curvature="0"
   d="m 256.008,453.473 v -6.15 h 10.683 v 6.15 c 0,2.913 -2.428,5.342 -5.341,5.342 -2.913,0 -5.342,-2.429 -5.342,-5.342 z"
   id="path17" />
	</g>
	<path
   style="fill:#407db8"
   inkscape:connector-curvature="0"
   d="m 335.645,440.686 -4.856,8.093 h -80.445 l -4.532,-8.093 z"
   id="path21" />
	
		<linearGradient
   id="SVGID_1_"
   gradientUnits="userSpaceOnUse"
   x1="235.59129"
   y1="745.08588"
   x2="301.8754"
   y2="745.08588"
   gradientTransform="matrix(1.6186,0,0,1.6186,-144.2615,-889.9678)">
		<stop
   offset="0"
   style="stop-color:#F9AC1A"
   id="stop23" />
		<stop
   offset="1"
   style="stop-color:#F9C51A"
   id="stop25" />
	</linearGradient>
	<path
   style="fill:url(#SVGID_1_)"
   inkscape:connector-curvature="0"
   d="m 237.07,391.317 v -93.717 0 c 0.162,-25.736 20.88,-46.94 47.587,-49.692 1.457,-0.324 2.428,-1.295 2.751,-1.942 0.81,-1.457 1.619,-3.076 2.104,-4.532 0.324,-0.81 1.78,-0.971 2.266,0 0.485,1.295 1.457,3.075 2.104,4.532 0.324,0.647 1.295,1.618 2.751,1.942 26.708,2.752 47.425,23.956 47.587,49.692 v 0 93.718 H 237.07 Z"
   id="path28" />
	<g
   id="g44">
		<g
   id="g42">
			<g
   id="g40">
				<defs
   id="defs31">
					<path
   inkscape:connector-curvature="0"
   id="SVGID_2_"
   d="m 237.07,391.317 v -93.717 0 c 0.162,-25.736 20.88,-46.94 47.587,-49.692 1.457,-0.324 2.428,-1.295 2.751,-1.942 0.81,-1.457 1.619,-3.076 2.104,-4.532 0.324,-0.81 1.78,-0.971 2.266,0 0.485,1.295 1.457,3.075 2.104,4.532 0.324,0.647 1.295,1.618 2.751,1.942 26.708,2.752 47.425,23.956 47.587,49.692 v 0 93.718 H 237.07 Z" />
				</defs>
				<clipPath
   id="SVGID_3_">
					<use
   height="100%"
   width="100%"
   y="0"
   x="0"
   style="overflow:visible"
   xlink:href="#SVGID_2_"
   overflow="visible"
   id="use33" />
				</clipPath>
				<g
   clip-path="url(#SVGID_3_)"
   id="g38">
					<path
   style="fill:#162331"
   inkscape:connector-curvature="0"
   d="m 323.505,357.165 c -6.475,0 -8.417,2.59 -8.417,7.284 0,8.093 9.873,17.481 9.873,32.211 0,10.683 -6.313,19.747 -20.232,19.747 h -6.475 v -13.111 h 2.914 c 5.018,0 6.798,-2.913 6.798,-7.769 0,-10.845 -5.989,-20.718 -5.989,-28.973 0,-8.255 2.751,-12.14 12.625,-14.244 -9.873,-2.104 -12.625,-8.579 -12.625,-16.833 0,-8.093 5.989,-14.729 5.989,-25.736 0,-4.856 -2.428,-8.579 -8.417,-8.579 -2.266,0 -4.046,0 -5.665,0 v -10.036 c 14.892,-7.607 27.354,5.989 27.354,16.024 0,14.567 -6.15,25.898 -6.15,33.829 0,4.532 1.942,6.636 8.417,6.636 h 4.37 v 9.712 z m -35.772,-56.166 c -1.457,0 -3.237,0 -5.179,0 -5.989,0 -8.417,3.885 -8.417,8.579 0,11.007 5.989,17.643 5.989,25.736 0,8.255 -3.237,14.729 -13.272,16.833 9.874,2.104 13.272,5.989 13.272,14.244 0,8.093 -5.989,18.129 -5.989,28.974 0,4.855 1.78,7.77 6.798,7.77 h 2.913 v 13.11 h -6.474 c -13.92,0 -20.233,-8.902 -20.233,-19.747 0,-14.729 9.874,-24.279 9.874,-32.21 0,-4.694 -1.619,-7.284 -8.093,-7.284 h -5.342 v -9.712 h 5.342 c 6.474,0 8.093,-2.104 8.093,-6.636 0,-8.093 -6.151,-19.262 -6.151,-33.829 0,-10.036 12.14,-23.47 26.869,-16.186 z"
   id="path36" />
				</g>
			</g>
		</g>
	</g>
	<path
   style="fill:#5592c8"
   inkscape:connector-curvature="0"
   d="m 342.928,397.469 c -0.647,1.618 -0.809,3.561 -0.971,5.179 0,0 0,0 0,0.162 v 33.667 c 0,2.914 -2.428,5.342 -5.342,5.342 h -91.938 c -2.914,0 -5.341,-2.428 -5.341,-5.342 V 402.81 c 0,0 0,0 0,-0.162 -0.162,-1.618 -0.324,-3.561 -0.971,-5.179 -1.295,-3.723 -5.665,-5.342 -5.665,-5.342 l 0.324,-2.104 H 348.27 l 0.323,2.104 c 0,0 -4.37,1.456 -5.665,5.342 z"
   id="path46" />
	<path
   style="fill:#88bce8"
   inkscape:connector-curvature="0"
   d="m 342.119,416.244 h -35.934 c -2.266,0 -4.047,-1.78 -4.047,-4.046 0,-2.267 1.781,-4.047 4.047,-4.047 h 35.771 v 8.093 z"
   id="path48" />
	<path
   style="fill:#88bce8"
   inkscape:connector-curvature="0"
   d="m 239.498,408.151 h 35.771 c 2.266,0 4.047,1.78 4.047,4.047 0,2.266 -1.781,4.046 -4.047,4.046 h -35.771 z"
   id="path50" />
</g></g></g>
</svg>