<?xml version="1.0" encoding="UTF-8" standalone="no"?>
<!-- Generator: Adobe Illustrator 18.0.0, SVG Export Plug-In . SVG Version: 6.00 Build 0)  -->

<svg
   xmlns:dc="http://purl.org/dc/elements/1.1/"
   xmlns:cc="http://creativecommons.org/ns#"
   xmlns:rdf="http://www.w3.org/1999/02/22-rdf-syntax-ns#"
   xmlns:svg="http://www.w3.org/2000/svg"
   xmlns="http://www.w3.org/2000/svg"
   xmlns:sodipodi="http://sodipodi.sourceforge.net/DTD/sodipodi-0.dtd"
   xmlns:inkscape="http://www.inkscape.org/namespaces/inkscape"
   version="1.1"
   id="Layer_1"
   x="0px"
   y="0px"
   viewBox="0 0 120 60.000001"
   enable-background="new 0 0 841.9 595.3"
   xml:space="preserve"
   sodipodi:docname="afrinic-ar21.svg"
   width="120"
   height="60"
   inkscape:version="0.92.3 (2405546, 2018-03-11)"><metadata
   id="metadata73"><rdf:RDF><cc:Work
       rdf:about=""><dc:format>image/svg+xml</dc:format><dc:type
         rdf:resource="http://purl.org/dc/dcmitype/StillImage" /><dc:title></dc:title></cc:Work></rdf:RDF></metadata><defs
   id="defs71" /><sodipodi:namedview
   pagecolor="#ffffff"
   bordercolor="#666666"
   borderopacity="1"
   objecttolerance="10"
   gridtolerance="10"
   guidetolerance="10"
   inkscape:pageopacity="0"
   inkscape:pageshadow="2"
   inkscape:window-width="1920"
   inkscape:window-height="1001"
   id="namedview69"
   showgrid="false"
   inkscape:zoom="4.4851928"
   inkscape:cx="118.84294"
   inkscape:cy="37.390952"
   inkscape:window-x="-9"
   inkscape:window-y="-9"
   inkscape:window-maximized="1"
   inkscape:current-layer="Layer_1" />

<g
   id="g163"
   transform="matrix(1.3737443,0,0,1.3737443,-22.424658,-11.21233)"><g
     transform="matrix(0.09294237,0,0,0.09294237,22.422758,51.390115)"
     id="g132"><g
       id="g102"
       transform="translate(0,-535.29999)"><g
         id="g38">
	<path
   id="path2"
   d="m 666.4,166.9 c -5.4,1.3 -11.6,-3.6 -13.9,-11.1 -2.3,-7.5 0.2,-14.6 5.5,-15.9 5.4,-1.3 11.6,3.6 14,11.1 2.3,7.4 -0.2,14.6 -5.6,15.9 z"
   inkscape:connector-curvature="0"
   style="fill:#e36f1e" />
	<path
   id="path4"
   d="m 658.6,470.5 c -5.4,-1 -8.1,-8 -6,-15.6 2.1,-7.6 8.2,-13 13.6,-12 5.4,1 8.1,8 6,15.6 -2,7.7 -8.2,13 -13.6,12 z"
   inkscape:connector-curvature="0"
   style="fill:#e36f1e" />
	<path
   id="path6"
   d="m 685.8,224.9 c -8,2 -17.2,-5.3 -20.6,-16.4 -3.4,-11 0.3,-21.5 8.2,-23.5 7.9,-2 17.2,5.3 20.6,16.4 3.5,11 -0.2,21.5 -8.2,23.5 z"
   inkscape:connector-curvature="0"
   style="fill:#e36f1e" />
	<path
   id="path8"
   d="m 676.4,428.4 c -7.5,-1.3 -11.1,-11.5 -8.1,-22.8 3,-11.2 11.6,-19.3 19.1,-18 7.5,1.3 11.1,11.5 8.1,22.8 -3,11.2 -11.6,19.3 -19.1,18 z"
   inkscape:connector-curvature="0"
   style="fill:#e36f1e" />
	<path
   id="path10"
   d="m 697.7,295.8 c -10.1,1.1 -19.7,-9.4 -21.4,-23.5 -1.7,-14.1 5.2,-26.4 15.3,-27.6 10.1,-1.1 19.7,9.4 21.4,23.5 1.7,14.1 -5.2,26.5 -15.3,27.6 z"
   inkscape:connector-curvature="0" />
	<path
   id="path12"
   d="m 691.3,365.3 c -10.2,0 -18.1,-11.5 -17.7,-25.7 0.4,-14.2 9,-25.8 19.2,-25.8 10.2,0 18.1,11.5 17.7,25.7 -0.5,14.2 -9.1,25.8 -19.2,25.8 z"
   inkscape:connector-curvature="0" />
	<path
   id="path14"
   d="m 726.3,195.8 c -4.1,1 -8.8,-2.7 -10.5,-8.4 -1.7,-5.6 0.1,-11 4.2,-12 4.1,-1 8.8,2.7 10.5,8.4 1.7,5.6 -0.1,11 -4.2,12 z"
   inkscape:connector-curvature="0"
   style="fill:#e36f1e" />
	<path
   id="path16"
   d="m 720.4,424.4 c -4.1,-0.7 -6.1,-6 -4.5,-11.7 1.6,-5.7 6.2,-9.8 10.3,-9 4.1,0.7 6.1,6 4.5,11.7 -1.6,5.7 -6.2,9.7 -10.3,9 z"
   inkscape:connector-curvature="0"
   style="fill:#e36f1e" />
	<path
   id="path18"
   d="m 740.9,239.4 c -6,1.5 -12.9,-4 -15.5,-12.3 -2.6,-8.3 0.2,-16.2 6.2,-17.7 6,-1.5 12.9,4 15.5,12.3 2.6,8.3 -0.2,16.2 -6.2,17.7 z"
   inkscape:connector-curvature="0"
   style="fill:#e36f1e" />
	<path
   id="path20"
   d="m 733.8,392.6 c -5.7,-1 -8.4,-8.7 -6.1,-17.2 2.3,-8.5 8.7,-14.5 14.4,-13.5 5.7,1 8.4,8.7 6.1,17.1 -2.3,8.5 -8.7,14.6 -14.4,13.6 z"
   inkscape:connector-curvature="0"
   style="fill:#e36f1e" />
	<path
   id="path22"
   d="m 749.8,292.8 c -7.6,0.8 -14.8,-7.1 -16.1,-17.7 -1.3,-10.6 3.9,-19.9 11.5,-20.8 7.6,-0.8 14.9,7.1 16.1,17.7 1.3,10.7 -3.8,20 -11.5,20.8 z"
   inkscape:connector-curvature="0" />
	<path
   id="path24"
   d="m 745,345.1 c -7.7,0 -13.6,-8.7 -13.3,-19.4 0.3,-10.7 6.8,-19.4 14.4,-19.4 7.7,0 13.7,8.6 13.3,19.4 -0.3,10.7 -6.7,19.4 -14.4,19.4 z"
   inkscape:connector-curvature="0" />
	<path
   id="path26"
   d="m 771.8,224.7 c -2.8,0.7 -6,-1.9 -7.2,-5.7 -1.2,-3.8 0.1,-7.5 2.9,-8.2 2.8,-0.7 6,1.9 7.2,5.7 1.1,3.8 -0.1,7.5 -2.9,8.2 z"
   inkscape:connector-curvature="0"
   style="fill:#e36f1e" />
	<path
   id="path28"
   d="m 767.8,380.9 c -2.8,-0.5 -4.2,-4.1 -3.1,-8 1.1,-3.9 4.2,-6.7 7,-6.2 2.8,0.5 4.2,4.1 3.1,8 -1.1,3.9 -4.2,6.7 -7,6.2 z"
   inkscape:connector-curvature="0"
   style="fill:#e36f1e" />
	<path
   id="path30"
   d="m 781.8,254.5 c -4.1,1 -8.8,-2.7 -10.6,-8.4 -1.8,-5.7 0.1,-11.1 4.2,-12.1 4.1,-1 8.8,2.8 10.6,8.4 1.7,5.7 -0.1,11.1 -4.2,12.1 z"
   inkscape:connector-curvature="0"
   style="fill:#e36f1e" />
	<path
   id="path32"
   d="m 776.9,359.2 c -3.9,-0.7 -5.7,-5.9 -4.2,-11.7 1.6,-5.8 6,-9.9 9.8,-9.2 3.9,0.7 5.7,5.9 4.2,11.7 -1.5,5.7 -5.9,9.9 -9.8,9.2 z"
   inkscape:connector-curvature="0"
   style="fill:#e36f1e" />
	<path
   id="path34"
   d="m 787.9,291 c -5.2,0.6 -10.2,-4.8 -11,-12.1 -0.9,-7.3 2.7,-13.6 7.9,-14.2 5.2,-0.6 10.2,4.8 11,12.1 0.8,7.3 -2.7,13.6 -7.9,14.2 z"
   inkscape:connector-curvature="0" />
	<path
   id="path36"
   d="m 784.6,326.7 c -5.2,0 -9.3,-5.9 -9.1,-13.2 0.2,-7.3 4.6,-13.3 9.9,-13.3 5.2,0 9.3,5.9 9.1,13.2 -0.3,7.4 -4.7,13.3 -9.9,13.3 z"
   inkscape:connector-curvature="0" />
</g><g
         id="g54">
	<path
   id="path40"
   d="M 127.3,347.4 108.2,347.3 94,323.5 H 53.5 l 9,-14.7 H 85.1 L 70.3,284.2 31.9,347.4 H 12.7 l 46.3,-77 c 1.2,-2 2.8,-3.8 4.9,-5.5 2.5,-1.9 4.7,-2.9 6.7,-2.9 2.2,0 4.4,0.9 6.7,2.7 2,1.6 3.6,3.5 4.9,5.6 z"
   inkscape:connector-curvature="0" />
	<path
   id="path42"
   d="m 211.1,277.1 h -58.8 v 70.3 h -14.8 v -85.2 h 73.6 z m -3.8,34.5 h -48.6 v -14.8 h 48.6 z"
   inkscape:connector-curvature="0" />
	<path
   id="path44"
   d="m 327.2,347.4 h -21.9 l -23.8,-24 h -32 v -14.7 h 39.9 c 5.5,0 10.1,-1.2 13.8,-3.6 4.2,-2.8 6.4,-6.9 6.4,-12.1 0,-10.6 -6.7,-16 -20.2,-16 h -48.6 v 70.3 H 226 v -85.2 h 61.1 c 11,0 19.8,2.4 26.6,7.1 7.7,5.4 11.6,13.3 11.6,23.8 0,7.2 -2.2,13.3 -6.7,18.5 -4.2,4.8 -9.8,8.2 -17,10.1 z"
   inkscape:connector-curvature="0" />
	<path
   id="path46"
   d="m 361.3,347.4 h -14.8 v -85.2 h 14.8 z"
   inkscape:connector-curvature="0" />
	<path
   id="path48"
   d="m 469.6,340.1 c 0,5.5 -1.9,8.2 -5.6,8.2 -2.7,0 -5.8,-1.7 -9.2,-5.1 l -54.6,-54.9 v 59.1 h -14.7 v -77.8 c 0,-2 0.5,-3.7 1.6,-5.2 1.1,-1.5 2.6,-2.2 4.6,-2.2 2.7,0 5.6,1.5 8.5,4.4 l 54.6,54.7 v -59.1 h 14.8 z"
   inkscape:connector-curvature="0"
   style="fill:#e36f1e" />
	<path
   id="path50"
   d="m 509.9,347.4 h -14.8 v -85.2 h 14.8 z"
   inkscape:connector-curvature="0"
   style="fill:#e36f1e" />
	<path
   id="path52"
   d="m 622.2,347.4 h -48.1 c -12.4,0 -22.6,-4.1 -30.7,-12.3 -8.1,-8.2 -12.2,-18.6 -12.2,-31.2 0,-12.5 4,-22.5 12,-30.2 8,-7.6 18.3,-11.5 30.9,-11.5 h 48.1 V 277 H 574 c -8.2,0 -14.9,2.6 -20.1,7.9 -5.3,5.2 -7.9,12 -7.9,20.2 0,8.2 2.6,14.8 7.9,19.8 5.3,5.1 12,7.6 20.1,7.6 h 48.1 v 14.9 z"
   inkscape:connector-curvature="0"
   style="fill:#e36f1e" />
</g></g></g></g>
<g
   id="g56"
   transform="translate(0,-535.29999)">
</g>
<g
   id="g58"
   transform="translate(0,-535.29999)">
</g>
<g
   id="g60"
   transform="translate(0,-535.29999)">
</g>
<g
   id="g62"
   transform="translate(0,-535.29999)">
</g>
<g
   id="g64"
   transform="translate(0,-535.29999)">
</g>
<g
   id="g66"
   transform="translate(0,-535.29999)">
</g>
</svg>