<?xml version="1.0" encoding="UTF-8" standalone="no"?>
<!-- Generator: Adobe Illustrator 19.1.0, SVG Export Plug-In . SVG Version: 6.00 Build 0)  -->

<svg
   xmlns:dc="http://purl.org/dc/elements/1.1/"
   xmlns:cc="http://creativecommons.org/ns#"
   xmlns:rdf="http://www.w3.org/1999/02/22-rdf-syntax-ns#"
   xmlns:svg="http://www.w3.org/2000/svg"
   xmlns="http://www.w3.org/2000/svg"
   xmlns:sodipodi="http://sodipodi.sourceforge.net/DTD/sodipodi-0.dtd"
   xmlns:inkscape="http://www.inkscape.org/namespaces/inkscape"
   version="1.1"
   id="Layer_1"
   x="0px"
   y="0px"
   viewBox="0 0 120 60.000001"
   enable-background="new 0 0 90.828 141.183"
   xml:space="preserve"
   sodipodi:docname="bcorporationnet-ar21.svg"
   width="120"
   height="60"
   inkscape:version="0.92.2 5c3e80d, 2017-08-06"><metadata
     id="metadata59"><rdf:RDF><cc:Work
         rdf:about=""><dc:format>image/svg+xml</dc:format><dc:type
           rdf:resource="http://purl.org/dc/dcmitype/StillImage" /><dc:title></dc:title></cc:Work></rdf:RDF></metadata><defs
     id="defs57" /><sodipodi:namedview
     pagecolor="#ffffff"
     bordercolor="#666666"
     borderopacity="1"
     objecttolerance="10"
     gridtolerance="10"
     guidetolerance="10"
     inkscape:pageopacity="0"
     inkscape:pageshadow="2"
     inkscape:window-width="1440"
     inkscape:window-height="799"
     id="namedview55"
     showgrid="false"
     inkscape:zoom="4.7279687"
     inkscape:cx="45.414001"
     inkscape:cy="19.829742"
     inkscape:window-x="0"
     inkscape:window-y="1"
     inkscape:window-maximized="1"
     inkscape:current-layer="Layer_1" /><g
     id="g121"
     transform="translate(-0.43029389)"><g
       transform="matrix(0.38853709,0,0,0.38853709,6.5805681,3.8644698)"
       id="g89"><path
         style="fill:#000000"
         inkscape:connector-curvature="0"
         id="path20"
         d="m 25.784,41.965 h 18.357 c 4.466,0 10.35,0 13.396,1.843 3.331,1.984 5.952,5.598 5.952,10.561 0,5.385 -2.833,9.426 -7.511,11.338 v 0.142 c 6.24,1.276 9.638,5.955 9.638,12.192 0,7.439 -5.317,14.528 -15.379,14.528 H 25.784 Z m 6.729,21.758 h 13.473 c 7.653,0 10.773,-2.763 10.773,-8.079 0,-7.019 -4.96,-8.008 -10.773,-8.008 H 32.513 Z m 0,23.176 h 16.875 c 5.81,0 9.496,-3.544 9.496,-9.073 0,-6.591 -5.315,-8.433 -10.988,-8.433 H 32.513 Z" /><path
         style="fill:#000000"
         inkscape:connector-curvature="0"
         id="path22"
         d="m 82.832,67.289 c 0,21.259 -17.232,38.492 -38.494,38.492 C 23.08,105.781 5.847,88.548 5.847,67.289 5.847,46.032 23.08,28.8 44.338,28.8 65.6,28.8 82.832,46.032 82.832,67.289 Z M 44.338,22.929 C 19.852,22.929 0,42.78 0,67.267 c 0,24.486 19.852,44.337 44.338,44.337 24.49,0 44.341,-19.851 44.341,-44.337 0,-24.487 -19.851,-44.338 -44.341,-44.338 z" /></g><g
       transform="matrix(0.74643931,0,0,0.74643931,48.178341,-64.413834)"
       id="g103"><path
         style="fill:#000000"
         inkscape:connector-curvature="0"
         id="path24"
         d="m 8.185,121.182 c -0.159,-1.114 -1.226,-1.963 -2.451,-1.963 -2.213,0 -3.046,1.885 -3.046,3.848 0,1.866 0.833,3.75 3.046,3.75 1.505,0 2.358,-1.036 2.542,-2.512 h 2.39 c -0.253,2.795 -2.184,4.584 -4.932,4.584 -3.468,0 -5.508,-2.59 -5.508,-5.822 0,-3.33 2.04,-5.92 5.508,-5.92 2.465,0 4.536,1.445 4.836,4.035 z" /><path
         style="fill:#000000"
         inkscape:connector-curvature="0"
         id="path26"
         d="m 15.811,120.289 c 2.559,0 4.208,1.693 4.208,4.284 0,2.574 -1.648,4.27 -4.208,4.27 -2.543,0 -4.19,-1.695 -4.19,-4.27 0,-2.591 1.647,-4.284 4.19,-4.284 z m 0,6.874 c 1.523,0 1.977,-1.303 1.977,-2.589 0,-1.302 -0.455,-2.605 -1.977,-2.605 -1.506,0 -1.964,1.303 -1.964,2.605 0,1.286 0.458,2.589 1.964,2.589 z" /><path
         style="fill:#000000"
         inkscape:connector-curvature="0"
         id="path28"
         d="m 21.305,120.508 h 2.117 v 1.506 h 0.032 c 0.407,-1.019 1.507,-1.725 2.592,-1.725 0.156,0 0.343,0.03 0.487,0.077 v 2.072 c -0.208,-0.047 -0.535,-0.076 -0.801,-0.076 -1.635,0 -2.201,1.177 -2.201,2.604 v 3.658 h -2.226 z" /><path
         style="fill:#000000"
         inkscape:connector-curvature="0"
         id="path30"
         d="m 27.724,120.508 h 2.121 v 1.035 h 0.03 c 0.533,-0.863 1.411,-1.254 2.415,-1.254 2.546,0 3.689,2.055 3.689,4.362 0,2.167 -1.191,4.193 -3.563,4.193 -0.973,0 -1.898,-0.424 -2.431,-1.225 h -0.033 v 3.862 h -2.228 z m 6.027,4.082 c 0,-1.29 -0.518,-2.622 -1.946,-2.622 -1.46,0 -1.93,1.303 -1.93,2.622 0,1.317 0.502,2.572 1.946,2.572 1.461,10e-4 1.93,-1.255 1.93,-2.572 z" /><path
         style="fill:#000000"
         inkscape:connector-curvature="0"
         id="path32"
         d="m 41.252,120.289 c 2.56,0 4.211,1.693 4.211,4.284 0,2.574 -1.651,4.27 -4.211,4.27 -2.542,0 -4.189,-1.695 -4.189,-4.27 0,-2.591 1.647,-4.284 4.189,-4.284 z m 0,6.874 c 1.523,0 1.979,-1.303 1.979,-2.589 0,-1.302 -0.456,-2.605 -1.979,-2.605 -1.505,0 -1.962,1.303 -1.962,2.605 0,1.286 0.457,2.589 1.962,2.589 z" /><path
         style="fill:#000000"
         inkscape:connector-curvature="0"
         id="path34"
         d="m 46.906,120.508 h 2.119 v 1.506 h 0.034 c 0.406,-1.019 1.505,-1.725 2.588,-1.725 0.156,0 0.346,0.03 0.487,0.077 v 2.072 c -0.204,-0.047 -0.534,-0.076 -0.801,-0.076 -1.632,0 -2.198,1.177 -2.198,2.604 v 3.658 h -2.229 z" /><path
         style="fill:#000000"
         inkscape:connector-curvature="0"
         id="path36"
         d="m 52.916,123.004 c 0.127,-2.089 1.994,-2.715 3.816,-2.715 1.615,0 3.564,0.36 3.564,2.304 v 4.224 c 0,0.739 0.077,1.475 0.284,1.806 h -2.263 c -0.076,-0.253 -0.142,-0.519 -0.159,-0.786 -0.704,0.74 -1.739,1.006 -2.729,1.006 -1.539,0 -2.762,-0.769 -2.762,-2.435 0,-1.835 1.383,-2.274 2.762,-2.463 1.366,-0.205 2.639,-0.157 2.639,-1.069 0,-0.955 -0.663,-1.097 -1.445,-1.097 -0.848,0 -1.396,0.345 -1.477,1.225 z m 5.151,1.647 c -0.38,0.332 -1.163,0.345 -1.854,0.472 -0.691,0.139 -1.319,0.378 -1.319,1.193 0,0.832 0.644,1.035 1.367,1.035 1.74,0 1.806,-1.379 1.806,-1.867 z" /><path
         style="fill:#000000"
         inkscape:connector-curvature="0"
         id="path38"
         d="m 64.845,120.508 h 1.633 v 1.491 h -1.633 v 4.016 c 0,0.756 0.189,0.944 0.941,0.944 0.236,0 0.457,-0.016 0.692,-0.061 v 1.742 c -0.379,0.063 -0.866,0.078 -1.305,0.078 -1.362,0 -2.555,-0.316 -2.555,-1.932 v -4.787 h -1.352 v -1.491 h 1.352 v -2.435 h 2.227 z" /><path
         style="fill:#000000"
         inkscape:connector-curvature="0"
         id="path40"
         d="m 69.837,119.252 h -2.229 v -1.838 h 2.229 z m -2.229,1.256 h 2.229 v 8.116 h -2.229 z" /><path
         style="fill:#000000"
         inkscape:connector-curvature="0"
         id="path42"
         d="m 75.218,120.289 c 2.561,0 4.212,1.693 4.212,4.284 0,2.574 -1.651,4.27 -4.212,4.27 -2.54,0 -4.187,-1.695 -4.187,-4.27 0,-2.591 1.646,-4.284 4.187,-4.284 z m 0,6.874 c 1.526,0 1.98,-1.303 1.98,-2.589 0,-1.302 -0.454,-2.605 -1.98,-2.605 -1.506,0 -1.962,1.303 -1.962,2.605 0,1.286 0.456,2.589 1.962,2.589 z" /><path
         style="fill:#000000"
         inkscape:connector-curvature="0"
         id="path44"
         d="m 80.869,120.508 h 2.12 v 1.131 h 0.047 c 0.565,-0.911 1.539,-1.35 2.481,-1.35 2.37,0 2.966,1.333 2.966,3.343 v 4.992 h -2.229 v -4.585 c 0,-1.333 -0.393,-1.995 -1.427,-1.995 -1.211,0 -1.728,0.677 -1.728,2.325 v 4.254 H 80.87 v -8.115 z" /><rect
         style="fill:#000000"
         id="rect46"
         height="5.6550002"
         width="88.390999"
         y="135.528"
         x="0.16500001" /></g></g></svg>