<svg xmlns="http://www.w3.org/2000/svg" width="256" height="76"><path d="M77.317 40.612c-3.732 0-4.455-2.707-4.455-7.04 0-5.297 2.046-7.343 4.635-7.343 2.89 0 4.393 1.867 4.393 6.26 0 5.236-1.384 8.124-4.573 8.124zm-2.41 11.736c.36.06.723.12 1.144.12 5.297.36 6.86 1.143 6.86 3.853 0 2.105-1.866 4.632-6.14 4.632-4.092 0-5.055-1.504-5.055-3.43s1.445-3.913 3.19-5.176zm5.778-29.25c-1.024-.3-2.227-.48-3.01-.48-5.897 0-9.99 3.31-9.99 11.314 0 3.85.904 7.162 3.67 8.967-1.745 1.444-3.732 3.912-3.792 5.476s1.324 2.648 3.61 3.31c-2.528 1.684-4.513 4.092-4.513 6.98 0 3.13 1.565 6.862 9.69 6.862 8.004 0 11.495-4.695 11.495-9.87 0-4.753-3.61-6.5-7.462-7.04-4.513-.603-7.584-.783-7.584-1.806 0-.843.783-1.866 1.564-2.71.783.18 1.686.24 2.7.24 6.98 0 9.75-4.153 9.75-10.53 0-3-.903-5.297-2.348-6.8.843.182 1.565.3 2.227.3 1.024 0 1.685-.603 1.685-1.926 0-1.084-.24-1.866-.48-2.287h-7.222zm-35.67-5.552a4.73 4.73 0 0 0-6.592 1.127c-1.852 2.62-3.903 4.56-6.236 5.9-.215.124-.434.242-.654.356-.203.105-.41.206-.616.302-2.178 1-4.605 1.54-7.4 1.624-2.805-.084-5.233-.615-7.412-1.624-2.87-1.33-5.325-3.475-7.507-6.558a4.73 4.73 0 0 0-6.591-1.127 4.73 4.73 0 0 0-1.128 6.591c3.117 4.405 6.903 7.66 11.25 9.675.854.396 1.725.744 2.62 1.045-3.694 2.667-7.687 6.405-9.6 11.53-1.986 5.32-1.96 11.077.07 16.215 1.948 4.93 5.553 8.938 10.152 11.3 5.124 2.62 11.646 2.625 17.447.013 6.087-2.74 10.058-7.757 10.622-13.422.592-5.963-2.267-11.273-7.285-13.527-5.198-2.335-11.062-.668-14.938 4.244a4.73 4.73 0 0 0 .782 6.641 4.73 4.73 0 0 0 6.641-.782c1.152-1.46 2.48-1.997 3.642-1.475.99.445 1.97 1.72 1.747 3.965-.222 2.22-2.173 4.42-5.093 5.734-3.16 1.42-6.708 1.494-9.262.19s-4.56-3.556-5.66-6.344c-.827-2.092-1.5-5.43-.005-9.432 1.12-3.002 3.947-5.835 8.893-8.913 2.1-1.307 4.352-2.526 6.53-3.704 2.51-1.36 4.9-2.647 6.98-4.026 3.72-2.034 7-5.026 9.742-8.914a4.73 4.73 0 0 0-1.128-6.591zm60.1 31.912c-.54.6-2.046.963-3.25.963-2.347 0-3.85-.242-3.85-5.418 0-5.296 2.045-6.137 4.454-6.137.842 0 2.046.12 2.828.542 0 4.332-.182 10.05-.182 10.05zm-1.082-26.842c-5.597 0-9.63.782-10.532 1.445-.42.302-.54.902-.54 1.565 0 .42.06 2.106.662 3.13 1.867-.843 5.777-1.385 8.486-1.385 1.865 0 3.2.723 3.2 3.55v5.054c-1.204-.6-3.07-.782-4.574-.782-3.85 0-7.823 1.504-7.823 9.87 0 9.147 4.212 9.51 8.605 9.448 3.912 0 6.74-.964 8.366-1.986 0 0 .36-8.546.36-19.08v-3.5c0-5.416-2.287-7.34-6.2-7.34zM20.977 8.646c.605-.606 1.41-.94 2.267-.94s1.662.334 2.268.94.94 1.41.94 2.268-.334 1.662-.94 2.267-1.41.94-2.268.94-1.66-.333-2.267-.94-.94-1.41-.94-2.268.334-1.66.94-2.267zm2.267 13.18a10.84 10.84 0 0 0 7.718-3.197 10.84 10.84 0 0 0 3.196-7.717 10.84 10.84 0 0 0-3.197-7.717A10.84 10.84 0 0 0 23.244 0a10.84 10.84 0 0 0-7.717 3.197 10.84 10.84 0 0 0-3.196 7.716 10.84 10.84 0 0 0 3.197 7.717 10.84 10.84 0 0 0 7.716 3.197zm160.158 25.406c-2.166 0-3.37 1.625-3.37 3.49 0 2.106.843 3.43 3.37 3.43 2.105 0 3.372-1.564 3.372-3.43 0-2.105-.903-3.49-3.372-3.49zM203.6 22.618c-3.25 0-7.582.902-9.93 1.986v29.007c4.997 0 4.877 0 4.877-1.02V28.035c1.323-.842 3.188-1.143 4.513-1.143 3.19 0 3.55 1.805 3.55 6.56v20.16c5.115 0 5.055 0 5.055-1.02V33.692c0-8.305-.784-11.073-8.064-11.073zM170.6 9.56c-1.925 0-2.768 1.445-2.768 3.61-.06 2.828.904 3.73 2.467 3.792 1.805 0 2.71-1.444 2.768-3.912 0-2.528-.602-3.49-2.467-3.49zM135.3 33.692c0-8.305-.783-11.073-8.064-11.073-3.25 0-7.584.902-9.93 1.986v29.007c4.996 0 4.875 0 4.875-1.02V28.035c1.323-.842 3.19-1.143 4.514-1.143 3.2 0 3.55 1.805 3.55 6.56v20.16c5.115 0 5.054 0 5.054-1.02V33.692zm95.917 3.07c-2.105.602-5.838.722-8.184.662.36-8.365 2.587-10.53 5.055-10.53 2.587 0 3.37 1.805 3.43 6.138 0 1.144-.06 2.648-.3 3.73zm5.056-4.273c0-6.44-2.588-9.87-7.645-9.87-5.355 0-10.65 1.866-10.65 17.513 0 12.277 4.033 14.383 9.63 14.383 4.513 0 8.303-1.445 8.303-2.286 0-1.324-.118-3.43-.42-4.333-2.047 1.143-4.455 1.866-7.343 1.866-3.25 0-4.934-1.084-5.114-8.365 2.887 0 8.425-.12 12.578-.964.482-2.166.662-5.235.662-7.944zm-81.066 16.73c-.964.66-2.228.902-3.552.902-2.828 0-4.51-1.324-4.51-11.012 0-9.87 2.647-12.217 5.295-12.217 1.262 0 1.986.18 2.77.782V49.22zm0-37.613v12.217c-1.024-.723-2.408-1.204-4.274-1.204-5.174 0-9.27 5.116-9.27 17.032 0 13.06 4.094 14.864 9.8 14.864 3.733 0 6.56-.602 8.607-1.805V9.378c-3.973 0-4.873 0-4.873 2.228zm12.683 14.142v27.864c4.935 0 4.995 0 4.995-1.02V23.52c-3.972 0-4.995 0-4.995 2.227zm84.134 24.614c-2.165 0-2.165-2.166-2.165-4.754V27.734h5.175c.964 0 .964-.422.964-4.213h-6.14V12.69c-3.972 0-4.873 0-4.873 1.686v9.146h-3.07c-1.023 0-1.082.482-1.082 4.213h4.153v17.333c0 5.416 0 9.51 5.715 9.51 2.347 0 5.176-.483 5.176-1.927 0-1.203-.18-2.527-.363-3.188-1.263.54-1.805.902-3.49.902" fill="#231f20"/></svg>