<svg xmlns="http://www.w3.org/2000/svg" width="64" height="64"><path d="M.52 0v64H63.48V0zm37.733 56.704c.625-.625 1.25-1.25 1.668-1.876 1.042-2.502 2.7-3.96 2.92-7.505 0-.208-.208-.208-.208-.417-.208 0-.208.208-.417.208-.834 1.668-4.17 5.63-6.88 4.378 4.378-1.876 5.42-8.756 4.17-14.593h-.208c-.208 7.713-8.13 13.76-14.176 16.052-3.752 1.46-9.38 1.25-11.257-1.25-8.13-10.632 6.463-22.723 9.798-28.143 1.042-1.876 1.042-3.752 1.876-6.046.208 0 .208.208.417.208 3.96 9.173-.834 6.254-1.668 12.3l.417.417c11.883-.208 8.13-15 6.88-23.14 9.6 2.293 14.593 19.18 12.717 31.896 6.046-3.752 2.085-8.964 3.544-14.593h.208c1.042 3.127 2.502 6.254 3.127 9.798 1.668 11.05-6.046 20.013-12.925 22.306z" fill="#f04b39"/></svg>