<svg xmlns="http://www.w3.org/2000/svg" width="120" height="60" viewBox="0 0 18.144 9.063"><path d="M-26.332-12.703h2.715c-1.357.18-2.574 1.23-2.715 2.633z" fill="#fff"/><path d="M8.052.815h3.217v3.17c-.002.607-.507 1.12-1.093 1.208H6.87V1.962C6.93 1.35 7.46.894 8.052.815z" fill="#db2331"/><path d="M7.57 2.1c.143-.347.596-.2.89-.24.357-.038.684.124.95.345l.075-.4c.15.157.267.344.44.48.128.116.298-.156.39-.006.19.393.186.846.245 1.272l-.36-.17c-.193-.667-1-1.176-1.67-.887-.59.27-.526 1.207.027 1.48.616.32 1.344.232 2.005.133-.032.192-.155.396-.38.37l-2.253.001c-.228.025-.403-.188-.38-.406L7.57 2.1z" fill="#fff"/><g fill="#040707"><path d="M5.97 5.783h.23a1.26 1.26 0 0 1 .982.65c.246.438.176 1.02-.16 1.395-.198.235-.5.372-.8.42H5.97c-.488-.048-.924-.403-1.062-.874-.125-.396-.027-.85.246-1.162.203-.243.505-.386.816-.43zm8.37 0h.227c.435.045.823.325 1.014.716h-.5c-.14-.143-.32-.26-.523-.28-.294-.043-.595.104-.76.346a.79.79 0 0 0 .038.95.8.8 0 0 0 .876.261c.26-.082.45-.306.534-.56l-.913-.001-.001-.43h1.35l.016.124v.222c-.054.576-.54 1.066-1.12 1.118h-.265c-.3-.05-.6-.197-.807-.446a1.23 1.23 0 0 1-.137-1.368c.2-.366.574-.608.98-.65z"/><path d="M2.456 5.823l.345.002.74 1.07.73-1.067.345-.008V8.21a8.88 8.88 0 0 1-.427-.006v-1.49l-.53.77-.243-.001-.526-.768-.003 1.5-.428.002V5.823zm4.95.005h1.318v1.357c-.002.24-.048.498-.21.687-.275.307-.724.332-1.108.335l.001-.404c.24-.005.51-.005.712-.156.14-.108.177-.296.177-.463l-.003-.964h-.887zm2.324.017c.09-.06.228-.018.337-.024l.954 2.385c-.154.005-.31.004-.463-.003l-.215-.572h-.876c-.082.19-.136.394-.234.573-.15.013-.303.006-.454.006l.95-2.363zm1.446-.02l.336.004 1.046 1.49.001-1.49.426-.004V8.2l-.343-.007-1.035-1.483-.003 1.486-.428.001z"/></g><path d="M5.892 6.238a.81.81 0 0 1 .782.227c.173.178.253.44.2.684-.045.3-.264.54-.54.628a.79.79 0 0 1-.797-.178.79.79 0 0 1-.252-.67c.03-.325.285-.6.6-.692zm4.008.27l.28.717h-.554l.273-.717z" fill="#fff"/></svg>