<svg xmlns="http://www.w3.org/2000/svg" width="120" height="60" fill="#4aa0d8"><path d="M18.674 22.508h-8.562V9.854h10v3.903h1.574V9.854h10.2v3.903h1.385V9.854h10.262v12.654h-8.75v-2.896h5.855v-6.8h-4.47v3.84H29v-3.84h-4.407v3.84h-7.366v-3.84H13v6.8h5.666zm21.9 5.477v16.117a3.09 3.09 0 0 1-3.085 3.085H16.22a3.09 3.09 0 0 1-3.085-3.085V27.985h27.45m2.896-2.896H10.175v19.013c0 3.337 2.707 6.044 6.044 6.044h21.216c3.337 0 6.044-2.707 6.044-6.044V27.985zm-16.623 8.814c1.763 0 3.148 1.448 3.148 3.148v3.337h-6.36V37.05c0-1.763 1.448-3.148 3.2-3.148m0-2.96c-3.337 0-6.107 2.707-6.107 6.107v6.233H32.9V37.05c0-3.337-2.707-6.107-6.044-6.107zm25.824 6.184h-1.6V22.874h6.8c2.93 0 4.798 1.753 4.798 4.454 0 2.758-1.84 3.678-3.448 4.05l3.735 5.747H61.03l-3.448-5.46H52.68zm0-7h4.913c1.523 0 3.477-.575 3.477-2.787 0-1.8-1.35-2.93-3.4-2.93h-5zM79.086 30c0 4.05-2.902 7.298-7.24 7.298-4.3 0-7.24-3.247-7.24-7.298s2.902-7.298 7.24-7.298 7.24 3.247 7.24 7.298zm-1.6 0c0-3.218-2.155-5.718-5.603-5.718-3.477 0-5.603 2.53-5.603 5.718 0 3.218 2.155 5.718 5.603 5.718s5.603-2.5 5.603-5.718zm17.902 0c0 4.05-2.902 7.298-7.24 7.298s-7.24-3.247-7.24-7.298 2.902-7.298 7.24-7.298 7.24 3.247 7.24 7.298zm-1.638 0c0-3.218-2.155-5.718-5.603-5.718-3.477 0-5.603 2.53-5.603 5.718 0 3.218 2.155 5.718 5.603 5.718 3.477 0 5.603-2.5 5.603-5.718zm9.73-1.408l6.407 8.534h-2l-5.574-7.413-2.96 2.758v4.655h-1.6V22.874h1.6v7.413l7.93-7.413h2.27z"/></svg>