<svg xmlns="http://www.w3.org/2000/svg" width="64" height="64"><path d="M39.17 7.238a2.95 2.95 0 0 1-2.949 2.953 2.95 2.95 0 1 1 0-5.906 2.95 2.95 0 0 1 2.949 2.953zm22 0a2.95 2.95 0 0 1-2.949 2.953 2.95 2.95 0 1 1 0-5.906 2.95 2.95 0 0 1 2.949 2.953zm0 24.76a2.95 2.95 0 0 1-2.949 2.953 2.95 2.95 0 0 1 0-5.906 2.95 2.95 0 0 1 2.949 2.953zm0 24.762a2.95 2.95 0 0 1-2.949 2.953 2.95 2.95 0 0 1 0-5.906 2.95 2.95 0 0 1 2.949 2.953zM39.17 32a2.95 2.95 0 0 1-2.949 2.953 2.95 2.95 0 0 1 0-5.906 2.95 2.95 0 0 1 2.949 2.953zM2.858 56.844c0-3.994 3.158-7.323 7.148-7.323s7.23 3.33 7.23 7.323c0 3.9-3.242 7.156-7.23 7.156s-7.148-3.246-7.148-7.156zm0-24.762c0-3.994 3.158-7.323 7.148-7.323s7.23 3.33 7.23 7.323c0 3.9-3.242 7.156-7.23 7.156s-7.148-3.246-7.148-7.156zm.137-26.24c.822-3.91 4.597-6.515 8.5-5.69s6.4 4.75 5.568 8.657c-.804 3.827-4.645 6.334-8.547 5.51S2.19 9.67 2.995 5.843zm26.036 51c0-3.994 3.158-7.323 7.148-7.323s7.23 3.33 7.23 7.323c0 3.9-3.242 7.156-7.23 7.156s-7.148-3.246-7.148-7.156z" fill="#ff6161" fill-rule="evenodd"/></svg>