<?xml version="1.0" encoding="UTF-8" standalone="no"?>
<svg
   xmlns:dc="http://purl.org/dc/elements/1.1/"
   xmlns:cc="http://creativecommons.org/ns#"
   xmlns:rdf="http://www.w3.org/1999/02/22-rdf-syntax-ns#"
   xmlns:svg="http://www.w3.org/2000/svg"
   xmlns="http://www.w3.org/2000/svg"
   xmlns:sodipodi="http://sodipodi.sourceforge.net/DTD/sodipodi-0.dtd"
   xmlns:inkscape="http://www.inkscape.org/namespaces/inkscape"
   id="Layer_1"
   data-name="Layer 1"
   viewBox="0 0 64 64"
   version="1.1"
   sodipodi:docname="parseley-icon.svg"
   width="64"
   height="64"
   inkscape:version="1.0.1 (c497b03c, 2020-09-10)">
  <metadata
     id="metadata27">
    <rdf:RDF>
      <cc:Work
         rdf:about="">
        <dc:format>image/svg+xml</dc:format>
        <dc:type
           rdf:resource="http://purl.org/dc/dcmitype/StillImage" />
        <dc:title>Parsely-Logo-sRGB-Leaf-Green</dc:title>
      </cc:Work>
    </rdf:RDF>
  </metadata>
  <sodipodi:namedview
     pagecolor="#ffffff"
     bordercolor="#666666"
     borderopacity="1"
     objecttolerance="10"
     gridtolerance="10"
     guidetolerance="10"
     inkscape:pageopacity="0"
     inkscape:pageshadow="2"
     inkscape:window-width="1644"
     inkscape:window-height="927"
     id="namedview25"
     showgrid="false"
     inkscape:zoom="6.1923077"
     inkscape:cx="6.2204969"
     inkscape:cy="32.5"
     inkscape:window-x="0"
     inkscape:window-y="25"
     inkscape:window-maximized="0"
     inkscape:current-layer="Layer_1" />
  <defs
     id="defs12">
    <style
       id="style10">.cls-1{fill:#5ba745;}</style>
  </defs>
  <title
     id="title14">Parsely-Logo-sRGB-Leaf-Green</title>
  <path
     class="cls-1"
     d="m 25.874714,50.995402 c 0,-0.179649 0,-0.339337 -0.05988,-0.518986 a 13.084501,13.084442 0 0 0 -2.095915,-5.51922 14.71133,14.711264 0 0 0 -2.435254,-2.475165 c -0.269476,-0.20959 -0.499028,-0.109785 -0.509009,0.219571 l -0.239533,3.413333 c 0,0.329357 -0.37926,0.349318 -0.489047,0 l -1.497083,-4.790642 a 1.397277,1.3972707 0 0 0 -0.768501,-0.77848 23.863495,23.863387 0 0 0 -3.093971,-0.838362 c -1.377316,-0.239532 -3.383406,-0.38924 -3.383406,-0.38924 -0.339339,0 -0.449125,0.209591 -0.249514,0.489045 l 2.055993,3.75267 c 0.199611,0.269473 0,0.538947 -0.289435,0.329356 L 8.3189267,40.296301 a 3.6728424,3.6728258 0 0 0 -2.854437,-0.479065 c -0.998055,0.159689 -2.435254,0.459104 -2.435254,0.459104 a 0.6786774,0.67867434 0 0 0 -0.389242,0.249512 0.72858014,0.72857686 0 0 0 -0.139727,0.449123 c 0,0 0.109786,1.507056 0.239533,2.505107 a 3.6229396,3.6229233 0 0 0 1.247569,2.614892 l 4.680877,3.373411 c 0.279456,0.19961 0.08983,0.489044 -0.229552,0.369278 l -4.17187,-0.938167 c -0.319378,-0.119766 -0.499028,0 -0.399222,0.369279 0,0 0.688658,1.886315 1.307452,3.153839 a 23.95332,23.953212 0 0 0 1.656771,2.734659 1.3373937,1.3373877 0 0 0 0.998055,0.518986 l 4.9902763,0.129746 c 0.329357,0 0.409201,0.37926 0.0998,0.479065 l -3.2237183,1.167719 c -0.309397,0.09981 -0.339339,0.349317 -0.06986,0.548927 a 14.262206,14.262142 0 0 0 3.0440673,1.656764 13.06454,13.064481 0 0 0 5.888524,0.499026 25.081122,25.081009 0 0 0 4.331559,-0.998051 9.5314252,9.5313822 0 0 1 -0.07984,-1.197661 9.3018725,9.3018306 0 0 1 3.064028,-6.896528"
     id="path16"
     style="stroke-width:0.998053" />
  <path
     class="cls-1"
     d="m 61.784733,41.014897 a 0.72858014,0.72857686 0 0 0 -0.139727,-0.449123 0.6786774,0.67867434 0 0 0 -0.389242,-0.249512 c 0,0 -1.427219,-0.299415 -2.435254,-0.459104 a 3.6329202,3.6329038 0 0 0 -2.854438,0.479065 l -4.501227,3.592981 c -0.259494,0.209591 -0.489047,-0.05988 -0.289437,-0.329356 l 2.055994,-3.75267 c 0.199611,-0.279454 0.08982,-0.489045 -0.249514,-0.489045 0,0 -1.99611,0.149708 -3.383407,0.38924 a 23.863495,23.863387 0 0 0 -3.09397,0.838362 1.397277,1.3972707 0 0 0 -0.768502,0.77848 l -1.497083,4.790642 c -0.109785,0.319376 -0.479066,0.299415 -0.489047,0 l -0.239533,-3.413333 c 0,-0.329356 -0.239533,-0.429161 -0.509007,-0.219571 a 14.71133,14.711264 0 0 0 -2.435255,2.465185 13.084501,13.084442 0 0 0 -2.095916,5.479297 c 0,0.179649 0,0.339337 -0.05988,0.518986 a 9.2419893,9.2419476 0 0 1 2.994165,8.084209 24.053125,24.053017 0 0 0 4.331559,0.998051 13.06454,13.064481 0 0 0 5.888524,-0.499025 14.262206,14.262142 0 0 0 3.044068,-1.656764 c 0.269474,-0.19961 0.239533,-0.449123 -0.06986,-0.548928 l -3.213737,-1.167719 c -0.309397,-0.0998 -0.229553,-0.469084 0.0998,-0.479064 l 4.990274,-0.129747 a 1.3773159,1.3773097 0 0 0 0.998056,-0.518986 24.552153,24.552042 0 0 0 1.616849,-2.684756 c 0.608813,-1.267524 1.307452,-3.153839 1.307452,-3.153839 0.09981,-0.329357 -0.07984,-0.489045 -0.399223,-0.369279 l -4.17187,0.938167 c -0.319377,0.119766 -0.509007,-0.169668 -0.229552,-0.369278 l 4.680879,-3.333489 a 3.6229396,3.6229233 0 0 0 1.267529,-2.614892 c 0.129747,-0.998051 0.239533,-2.465185 0.239533,-2.465185"
     id="path18"
     style="stroke-width:0.998053" />
  <path
     class="cls-1"
     d="m 48.610407,25.125933 c 0,-0.528967 -0.349319,-0.718596 -0.798444,-0.429162 l -4.850547,2.654815 c -0.449125,0.279454 -0.558911,-0.269474 -0.229553,-0.688655 l 4.650936,-6.217855 A 1.99611,1.996101 0 0 0 47.662255,18.768352 36.438988,36.438824 0 0 0 45.476515,13.887885 33.93387,33.933717 0 0 0 42.67198,9.955566 C 42.342622,9.546365 41.93342,9.606248 41.76375,10.115254 l -2.275565,5.668927 c -0.159689,0.499025 -0.598833,0.479064 -0.588853,-0.0499 L 39.178787,6.8216873 A 2.5350597,2.5350483 0 0 0 38.520071,5.1848845 c 0,0 -1.387296,-1.3573487 -2.505118,-2.3553992 -1.117821,-0.9980505 -3.09397,-2.57497024 -3.09397,-2.57497024 a 1.2874909,1.2874851 0 0 0 -1.537005,0 c 0,0 -1.876343,1.48709524 -3.113932,2.58495074 -1.237587,1.0978556 -2.475176,2.3454187 -2.475176,2.3454187 a 2.4951374,2.4951262 0 0 0 -0.638755,1.6368028 l 0.269474,8.9125907 c 0,0.528967 -0.409201,0.548928 -0.578871,0.0499 L 22.561171,10.105273 C 22.391503,9.606248 21.992281,9.546365 21.652941,9.965546 a 35.700427,35.700266 0 0 0 -2.994164,4.191812 35.480855,35.480695 0 0 0 -1.99611,4.610994 1.99611,1.996101 0 0 0 0.269475,1.666744 l 4.660916,6.227835 c 0.329359,0.419181 0.229553,0.99805 -0.219572,0.688655 l -4.860528,-2.654815 c -0.449124,-0.289434 -0.818405,-0.0998 -0.818405,0.429162 a 18.563823,18.563739 0 0 0 0.828386,5.060116 20.120789,20.120698 0 0 0 5.359555,7.754853 c 3.183796,2.994151 5.918467,7.784793 7.43551,11.058399 a 9.5813279,9.5812847 0 0 1 2.824496,-0.439142 9.291892,9.2918501 0 0 1 2.854438,0.449122 c 1.517042,-3.273605 4.251714,-8.094189 7.425528,-11.068379 a 20.420205,20.420113 0 0 0 5.0801,-6.986354 18.963044,18.962959 0 0 0 1.107841,-5.808654"
     id="path20"
     style="stroke-width:0.998053" />
  <path
     class="cls-1"
     d="M 38.250596,57.891931 A 6.1080965,6.108069 0 1 1 32.1425,51.783862 6.098116,6.0980885 0 0 1 38.250596,57.891931"
     id="path22"
     style="stroke-width:0.998053" />
</svg>
