<svg xmlns="http://www.w3.org/2000/svg" width="120" height="60" viewBox="0 0 90 45" preserveAspectRatio="xMidYMid meet"><path d="M17.33 14.287a6.22 6.22 0 0 0-1.307.514l-1.204.7c-.822.47-2.218.602-2.57.25-.323-.323-.308-.47.06-.676.206-.103.632-.132 1.175-.073.705.088.867.06.867-.117 0-.264-.75-.53-1.278-.44-1.175.176-1.35.235-1.498.4-.352.426-.308.852.132 1.263.97.9 2.658.896 4.612-.06 1.63-.793 2.4-1.013 3.48-1 .955 0 1.454.206 1.454.602 0 .617-1.88.852-2.482.294-.308-.28-.338-.294-.676-.073-.44.28-.455.4-.103.705.352.323.778.426 1.704.44 1.57.03 2.732-.53 2.732-1.336 0-1.292-2.644-2.027-5.096-1.395zm-9.665 1.337c-1.072.558-1.234 1.102-.514 1.704.587.5 1.7.896 3.525 1.263 2.174.426 3.334.514 6.682.5 4.17-.015 7.182-.485 9.018-1.395 1.13-.573 1.248-1.38.28-1.953-.426-.25-.44-.25-.352.03.132.426-.03.734-.573 1.072-.53.323-2.306.822-3.407.955l-1.072.162c-.778.2-6.976.162-8.445-.03-2.453-.323-4.142-.867-4.626-1.498-.28-.338-.28-.397-.073-.72.264-.397.162-.4-.44-.088zm-.75 3.23c.044.338.22 1.116.397 1.718l.323 1.102-.75.808c-1.616 1.777-1.616 4.054 0 5.45.955.808 2.555.984 3.584.397.25-.147.235-.162-.132-.176-.793 0-2.027-.852-2.614-1.762-.308-.47-.543-1.557-.47-2.115.073-.485.587-1.557.75-1.557.06 0 .25.323.426.705.2.397.837 1.44 1.47 2.32 1.013 1.425 1.792 2.893 1.806 3.393 0 .367 1.146 1.087 2.247 1.44.97.308 1.425.367 3.07.367 3.554 0 5.214-.764 5.742-2.644.132-.44.53-1.204.88-1.7 1.806-2.497 2.16-3.1 2.8-4.847.206-.573.47-1.498.617-2.056l.294-1.204c.044-.103-.176-.03-.485.176-.793.53-2.056.94-3.642 1.2l-.852.147c-1.4.28-7.226.397-9.267.162-2.923-.323-5.126-.925-5.933-1.63l-.338-.308zm26.864-.452c-1.656.78-2.732 3.07-2.732 5.8 0 1.012.032 1.297.22 1.698.306.675.812 1.034 1.666 1.18 1.128.2 2.267-.137 3.196-.928.422-.37.432-.37.496-.137.105.327.36.6.738.802.432.22 1.477.2 1.983-.02.896-.432 1.57-1.53 1.814-2.932.053-.348.105-.4.453-.506l.453-.105c.074 0 .032.253-.38 2.183l-.295 1.382-.643.243c-.717.253-1.318.78-1.34 1.17-.053.833.074 1.16.57 1.455.57.348 1.656.2 2.194-.274.148-.137.2-.137.306.01.38.464 1.35.622 2.035.327.686-.285 1.18-1.118 1.403-2.352l.158-.77.58-2.72.517-2.33c.02-.053.274-.074.548-.063.285.01.538-.032.58-.095.2-.274.074-.37-.485-.4l-.57-.032.2-.728c.18-.717.464-1.118.8-1.118.232 0 .496.327.443.538-.042.158.01.2.253.2.306 0 .327-.02.337-.453.01-.707-.654-1.34-1.403-1.34-.453.01-1.107.232-1.37.475-.2.18-.22.17-.527-.084-.875-.738-2.267-.348-2.858.8-.105.2-.327 1.034-.485 1.835-.295 1.424-.295 1.445-.633 1.593-.37.148-.78.18-.75.053.063-.2-.158-1.034-.337-1.287-.295-.4-.738-.57-1.466-.496-.738.063-1.16.264-1.698.823-.56.58-.928 1.36-1.15 2.447-.137.707-.232.95-.432 1.107-.496.38-.97.57-1.582.6-.506.032-.675 0-.97-.2-.506-.348-.643-.854-.58-2.078.137-2.426 1.202-4.735 2.3-4.988.348-.084.696.158.78.538.063.306-.17 1.002-.37 1.128-.22.137.127.37.527.37.612 0 .875-.4.823-1.192-.032-.475-.105-.664-.337-.907-.6-.622-1.93-.728-2.964-.232zm11.8.812c.2.074.2.422.053 1.234l-.127.6h-1.15l.074-.295c.116-.432.137-.58.148-.8s.56-.812.728-.812c.063 0 .18.032.274.063zm-.285 2.436c.02.063-.032.496-.127.95l-.22 1.044-.58 2.616c-.02.032-.253.074-.517.116-.253.042-.506.095-.56.127-.042.02-.063-.063-.032-.2l.327-1.56.432-1.972.148-.865a.38.38 0 0 1 .169-.306c.232-.127.918-.084.96.053zm-5.126.306c.074.2.063.327-.053.453-.274.295-.316.738-.105.97.17.2.17.253.042.76-.158.654-.422 1.192-.738 1.52-.264.295-.8.327-.928.053-.264-.527-.032-1.993.485-3.058.443-.918 1.076-1.255 1.297-.696zm4.103 4.8l-.148.812c-.232 1.044-.664 1.466-1.213 1.18-.2-.116-.2-.148-.063-.538l.148-.475c-.01-.032.02-.243.063-.475.053-.316.127-.432.295-.475l.443-.084c.4-.084.475-.074.475.053zm15.77-8.5c-.538.2-1.16.696-1.382 1.118-.232.443-.2 1.234.042 1.73.116.22.56.8.98 1.255.4.464.854 1.055.97 1.318.285.643.285 1.445-.02 1.93-.475.77-1.687.802-2.078.063-.37-.728.063-1.487.94-1.614.264-.032.316-.137.18-.38-.18-.337-.675-.506-1.18-.422-1.107.2-1.7 1.276-1.403 2.468.253.97 1.118 1.466 2.5 1.445 2.088-.032 3.364-1.287 3.227-3.185-.074-.918-.337-1.37-1.455-2.468-.475-.464-.928-.97-1.012-1.128-.285-.548-.137-1.34.285-1.57.36-.2 1.012-.158 1.255.063.306.274.285.907-.053 1.308-.264.306-.264.316-.063.422.654.36 1.382-.243 1.382-1.118 0-.496-.306-.95-.802-1.18-.548-.264-1.656-.285-2.3-.053zm13.9.358c-.116.042-.295.253-.4.464-.158.327-.158.4-.02.738.264.622.98.8 1.476.348.823-.717-.032-1.962-1.055-1.55zm9.018.676c-.696.095-.696.095-.78.485l-.095.432c0 .032-.042.232-.084.443-.063.295-.137.4-.274.4-.127 0-.2.095-.253.274-.032.2-.01.253.095.2.074-.032.158-.02.2.02.02.042-.148.907-.37 1.92-.443 2.035-.475 2.373-.274 2.88.2.432.4.6.844.675.506.074 1.065-.2 1.276-.654.22-.453.22-.453-.116-.496-.232-.02-.306-.095-.327-.316-.032-.253.654-3.797.77-3.987.02-.042.2-.063.37-.053s.316-.02.316-.063.032-.148.063-.243c.053-.137-.01-.17-.306-.17h-.37l.2-.875.2-.94c0-.074-.063-.074-1.076.053zm-5.76 1.317c-.6.02-.77.063-.812.2s-.4 1.835-.854 3.944c-.148.717-.823 1.255-1.287 1.044-.316-.148-.316-.2.274-2.942l.4-1.814H73.2l-.285 1.287c-.738 3.45-.76 3.607-.337 4.25.327.506 1.34.548 2.15.105.243-.137.443-.22.443-.18s-.17.812-.36 1.7l-.327 1.666c.02.032.78-.127 1.434-.295.337-.095.4-.158.453-.517a18.06 18.06 0 0 1 .285-1.36l.2-.95.36.148c.78.327 1.92 0 2.52-.707 1.118-1.318 1.382-4.366.443-4.978-.4-.253-1.012-.285-1.624-.084l-.548.2.063-.337c.032-.2.02-.36-.032-.38-.042-.02-.422-.032-.844-.01zm1.856 1.635c.127.327.053 1.476-.148 2.14-.232.8-.527 1.266-.94 1.455-.823.4-.95.2-.675-1.097l.253-1.318c.158-.94.422-1.403.886-1.55.22-.074.527.105.622.37zm-29.12-1.15c-.865.316-1.498 1.044-1.93 2.236-.496 1.36-.443 2.605.148 3.238.75.802 2.5.58 3.617-.464l.485-.4c.01 0 .032.095.032.2s.18.4.4.622c.327.348.475.422.98.485 1.055.127 1.846-.243 2.215-1.044.295-.643.253-.738-.2-.443-1.002.654-1.72.4-1.72-.57 0-.274.053-.316.453-.422 1.33-.327 2.13-1.128 2.267-2.246.095-.854-.4-1.34-1.318-1.34-1.624.02-2.816 1.382-3.143 3.607-.116.78-1.012 1.455-1.93 1.455-.6 0-.865-.274-.865-.896 0-.432.02-.475.295-.538 1.086-.243 1.825-.76 2.194-1.56.4-.865.295-1.614-.285-1.92-.37-.18-1.18-.18-1.7 0zm1.128.548c.4.148.053 1.413-.496 1.867-.295.232-.907.538-.97.475-.17-.17.6-1.898.98-2.194.295-.243.264-.232.485-.148zm4.65.538a1.83 1.83 0 0 1-1.044 1.614c-.57.264-.6.264-.527-.063.127-.686.812-1.95 1.118-2.078.348-.148.453-.02.453.527zm9.915-1.138c-1.055.337-1.877 1.424-2.225 2.92-.316 1.403-.053 2.552.686 2.9.98.443 2.468.084 3.333-.812l.285-.295-.063.422-.127.6c-.053.17.032.2.833.2h.886l.4-1.93c.506-2.468.548-2.584.95-2.826.18-.105.36-.2.4-.2.032 0 .158.18.264.4.17.36.232.4.56.38 1.012-.042.97-1.72-.032-1.72-.306 0-.833.2-1.192.475-.2.158-.2.148-.17-.158l.042-.316h-.844c-.717 0-.854.032-.907.18-.032.105-.2.95-.4 1.877-.306 1.508-.38 1.73-.675 2.057-.696.77-1.9 1.086-2.362.633-.548-.548.053-3.217.886-4.008.422-.4.654-.2.622.517-.01.295.01.538.053.548a1.64 1.64 0 0 1 .253.042c.327.063.643-.295.664-.738.032-.548-.116-.854-.527-1.055-.348-.158-1.192-.2-1.582-.063z"/></svg>