<svg xmlns="http://www.w3.org/2000/svg" width="120" height="60" fill="#10245e"><path d="M31.7 78.3c9.8 0 16.3-7.6 16.3-18.9 0-11.1-6.6-18.7-16.3-18.7-5.6 0-11.8 3.2-14.7 7.5v22.9c3 4.2 9.1 7.2 14.7 7.2M0 91.9V2.5h17v32.9c5.1-6.7 12.3-9.9 20-9.9 16.5 0 28.7 12.9 28.7 33.9 0 21.7-12.3 34-28.7 34-7.8 0-14.9-3.5-20-9.9v8.3H0zM72.8 2.5h17v89.3h-17zm69.9 89.4v-8.2c-4.4 4.8-12.2 9.8-22.8 9.8-14.2 0-20.9-7.8-20.9-20.4V27.2h17v39.2c0 9 4.7 11.9 11.9 11.9 6.6 0 11.8-3.6 14.7-7.4V27.2h17v64.7zm57.4-52.4c-10.6 0-15.1 7.4-15.8 13.8h31.9c-.6-6.2-4.9-13.8-16.1-13.8m-33.5 20c0-18.7 13.9-33.9 33.5-33.9 19.4 0 32.4 14.5 32.4 35.5v4h-48.1c1.2 7.9 7.6 14.5 18.6 14.5 5.5 0 13-2.3 17.2-6.3l7.6 11.3c-6.4 5.9-16.6 9-26.7 9-19.6-.1-34.5-13.4-34.5-34.1m120.9 0c0-11.1-6.7-18.7-16.5-18.7-5.5 0-11.7 3.1-14.6 7.4V71c2.8 4.2 9.1 7.5 14.6 7.5 9.8-.2 16.5-7.8 16.5-19m-31.1 24.1v32.9h-17V27.2h17v8.2c5-6.3 12.1-9.8 19.9-9.8 16.6 0 28.7 12.3 28.7 33.9s-12.1 34-28.7 34c-7.6 0-14.6-3.2-19.9-9.9m55.6 8.3V27.2h17v8.7c4.7-5.6 12.6-10.3 20.6-10.3v16.6c-1.2-.3-2.7-.4-4.7-.4-5.6 0-13.1 3.2-15.9 7.4v42.7zm44.6-64.7h17v64.7h-17zM355 10c0-5.6 4.5-10 10-10 5.6 0 10.2 4.4 10.2 10s-4.6 10.2-10.2 10.2c-5.5 0-10-4.5-10-10.2m72 81.9V52.8c0-9-4.7-12.1-11.9-12.1-6.7 0-11.8 3.7-14.7 7.5v43.7h-17V27.2h17v8.3c4.2-4.8 12.2-9.9 22.6-9.9 14.3 0 21.2 8 21.2 20.6v45.7zm32.1-16.2V42.1h-10.7V27.2h10.7V9.5h17v17.7h13.1v14.9h-13.1v29.1c0 4.2 2.1 7.2 5.9 7.2 2.5 0 5-.9 5.9-2l3.6 13c-2.5 2.3-7.1 4.1-14.2 4.1-11.9 0-18.2-6.2-18.2-17.8"/></svg>