<?xml version="1.0" encoding="UTF-8" standalone="no"?>
<svg
   xmlns:dc="http://purl.org/dc/elements/1.1/"
   xmlns:cc="http://creativecommons.org/ns#"
   xmlns:rdf="http://www.w3.org/1999/02/22-rdf-syntax-ns#"
   xmlns:svg="http://www.w3.org/2000/svg"
   xmlns="http://www.w3.org/2000/svg"
   xmlns:sodipodi="http://sodipodi.sourceforge.net/DTD/sodipodi-0.dtd"
   xmlns:inkscape="http://www.inkscape.org/namespaces/inkscape"
   width="64"
   height="64"
   version="1.1"
   id="svg55"
   sodipodi:docname="mullvad-icon.svg"
   inkscape:version="0.92.3 (2405546, 2018-03-11)">
  <metadata
     id="metadata59">
    <rdf:RDF>
      <cc:Work
         rdf:about="">
        <dc:format>image/svg+xml</dc:format>
        <dc:type
           rdf:resource="http://purl.org/dc/dcmitype/StillImage" />
        <dc:title></dc:title>
      </cc:Work>
    </rdf:RDF>
  </metadata>
  <sodipodi:namedview
     pagecolor="#ffffff"
     bordercolor="#666666"
     borderopacity="1"
     objecttolerance="10"
     gridtolerance="10"
     guidetolerance="10"
     inkscape:pageopacity="0"
     inkscape:pageshadow="2"
     inkscape:window-width="1920"
     inkscape:window-height="1001"
     id="namedview57"
     showgrid="false"
     showguides="false"
     inkscape:zoom="5.6257973"
     inkscape:cx="95.117778"
     inkscape:cy="7.6704376"
     inkscape:window-x="-9"
     inkscape:window-y="-9"
     inkscape:window-maximized="1"
     inkscape:current-layer="svg55" />
  <defs
     id="defs27">
    <clipPath
       id="b">
      <path
         d="m 706.28,739.74 c 0,0 -5.32,-9.382 0.12,-17.47 5.45,-8.09 12.26,-8.1 12.26,-8.1 l 115.87,37.48 c 0,0 4.63,20.07 -4.13,36.7 -8.75,16.64 -27.9,25.09 -27.9,25.09 z"
         id="path2"
         inkscape:connector-curvature="0" />
    </clipPath>
    <mask
       id="c"
       x="0"
       y="0"
       width="1"
       height="1"
       maskUnits="userSpaceOnUse">
      <path
         d="M -32768,32767 H 32767 V -32768 H -32768 Z"
         id="path5"
         inkscape:connector-curvature="0"
         style="fill:url(#a)" />
    </mask>
    <radialGradient
       id="a"
       cx="0"
       cy="0"
       r="1"
       gradientTransform="matrix(115.22,0,0,-115.22,715.91,728.19)"
       gradientUnits="userSpaceOnUse">
      <stop
         stop-color="#fff"
         offset="0"
         id="stop8" />
      <stop
         stop-color="#fff"
         stop-opacity=".3"
         offset=".234"
         id="stop10" />
      <stop
         stop-color="#fff"
         stop-opacity="0"
         offset=".911"
         id="stop12" />
      <stop
         stop-color="#fff"
         stop-opacity="0"
         offset="1"
         id="stop14" />
    </radialGradient>
    <radialGradient
       id="d"
       cx="0"
       cy="0"
       r="1"
       gradientTransform="matrix(115.22,0,0,-115.22,715.91,728.19)"
       gradientUnits="userSpaceOnUse">
      <stop
         stop-color="#fff"
         offset="0"
         id="stop17" />
      <stop
         stop-color="#fff"
         offset=".911"
         id="stop19" />
      <stop
         stop-color="#fff"
         offset="1"
         id="stop21" />
    </radialGradient>
    <clipPath
       id="e">
      <path
         d="M 0,911 H 960 V 0 H 0 Z"
         id="path24"
         inkscape:connector-curvature="0" />
    </clipPath>
  </defs>
  <g
     id="g986"
     transform="matrix(1.0052261,0,0,1.0052261,-0.03422961,-0.3344681)">
    <g
       transform="matrix(2.5593491,0,0,2.5593491,-130.59995,-75.432952)"
       id="g942">
      <g
         transform="matrix(0.0615945,0,0,-0.0615945,20.084913,95.82046)"
         id="g35">
        <circle
           transform="matrix(0.9378,0,0,-0.9378,-579.6,1622.6)"
           cx="1369.3"
           cy="799.20001"
           r="215.33"
           id="circle29"
           style="fill:#1e2b3b" />
        <circle
           transform="matrix(0.90879,0,0,-0.90879,-539.88,1599.4)"
           cx="1369.3"
           cy="799.20001"
           r="215.33"
           id="circle31"
           style="fill:#ffffff" />
        <circle
           transform="matrix(0.82176,0,0,-0.82176,-420.71,1529.8)"
           cx="1369.3"
           cy="799.20001"
           r="215.33"
           id="circle33"
           style="fill:#1e2b3b" />
      </g>
      <path
         d="m 72.364208,39.825932 0.618911,1.251618 -0.827497,-1.156712 c -0.0024,0.0057 -0.0047,0.01162 -0.0068,0.01743 l 0.05912,1.647941 -0.232856,-1.254004 c -0.690792,1.397971 -2.377317,3.332289 -3.923403,4.361526 -0.166993,0.111295 -0.297891,0.229434 -0.398813,0.353694 -0.19479,0.07509 -0.396427,0.11928 -0.596922,0.152783 -0.105486,0.01867 -0.213357,0.02676 -0.318739,0.03599 -0.105486,0.0068 -0.212112,0.01037 -0.317598,0.0083 -0.105382,-0.0026 -0.209727,-0.0073 -0.314071,-0.01763 -0.105486,-0.0091 -0.208482,-0.02541 -0.311686,-0.04294 -0.103204,-0.01846 -0.20537,-0.03817 -0.305981,-0.06472 -0.100818,-0.02676 -0.20174,-0.05466 -0.300276,-0.08941 -0.09854,-0.03008 -0.197073,-0.06721 -0.29312,-0.105486 -0.0975,-0.03941 -0.192301,-0.0809 -0.286274,-0.126334 -0.09387,-0.0475 -0.187737,-0.09148 -0.279324,-0.14241 -0.09397,-0.04636 -0.183174,-0.100819 -0.275901,-0.151954 -0.09387,-0.0475 -0.179648,-0.108908 -0.272479,-0.15994 -0.09128,-0.05217 -0.178403,-0.113472 -0.271027,-0.165644 -0.0892,-0.05808 -0.178402,-0.115858 -0.271234,-0.171557 -0.0892,-0.05912 -0.182136,-0.115858 -0.276938,-0.170312 l -0.08588,-0.05103 -0.04522,0.03008 -0.623579,0.412608 0.629388,-0.163363 c 0.05912,0.07074 0.12177,0.140025 0.1867,0.207445 0.07883,0.07987 0.162326,0.156413 0.245615,0.230678 0.08692,0.07292 0.175083,0.142515 0.265529,0.210971 0.09252,0.06483 0.185352,0.131002 0.282747,0.188983 0.192405,0.120525 0.39622,0.223625 0.608436,0.309507 0.105485,0.04284 0.213253,0.08225 0.321124,0.118036 0.108909,0.0361 0.217817,0.0697 0.330252,0.09625 0.110153,0.02801 0.223833,0.0475 0.336061,0.06617 0.11368,0.01732 0.227152,0.02904 0.340832,0.03942 0.228189,0.01141 0.45783,0.0056 0.6827,-0.02334 0.113576,-0.01504 0.224767,-0.03692 0.335024,-0.06254 0.108908,-0.02655 0.217817,-0.05808 0.323302,-0.0975 0.185248,-0.06586 0.365103,-0.151642 0.527221,-0.261692 -0.0033,0.0033 -0.0058,0.0067 -0.0081,0.01017 0.0059,-0.0046 0.0093,-0.0081 0.0093,-0.0081 0,0 0.596818,0.08111 0.355767,0.52971 -0.241154,0.446317 -0.60522,0.406799 -0.433559,0.932983 0.0012,0.0012 0.0012,0.0012 0.0012,0.0024 0.11928,0.277976 0.290733,0.555226 0.48096,0.814843 0.393108,0.537905 1.015442,1.007145 0.953935,1.290099 -2.823738,3.475426 -9.178705,2.991976 -11.592428,-0.107871 0.03703,-0.448599 0.740578,-0.662786 1.234296,-1.757057 -0.135565,0.0417 -0.341869,0.104345 -0.341869,0.09615 0,-0.008 0.588832,-0.957358 0.608539,-1.052368 l -0.376719,0.02552 c 0,0 0.504091,-0.621297 0.513426,-0.679382 l -0.506373,-0.06472 c 0,0 0.637478,-0.733732 0.647954,-0.79161 l -0.647954,0.102997 0.709254,-0.855191 h -0.333675 l 0.398709,-0.579601 c 0.06846,-0.02199 0.135565,-0.04294 0.202777,-0.06368 0.08692,-0.0278 0.173838,-0.05446 0.259721,-0.08111 0.0034,-0.0012 0.0057,-0.0024 0.0093,-0.0024 0.960676,-0.297683 1.868247,-0.579393 2.749058,-1.129952 1.233259,-0.771902 2.338939,-1.708307 3.168718,-2.44318 l 1.666819,-0.809035 c 1.595872,-0.119281 3.099225,-0.07987 4.011256,0.100922 l -0.586447,-1.004862 0.896991,1.07892 c 0.01504,0.0036 0.02904,0.0073 0.04294,0.01162 0.02074,-0.02541 0.03589,-0.06607 0.03589,-0.06607 l -0.0614,-1.328165 0.282747,1.200586 c 0.08941,-0.03941 0.187737,-0.06244 0.290941,-0.06244 0.397672,0 0.719833,0.322162 0.719833,0.718589 0,0.36168 -0.268952,0.661749 -0.619015,0.710498"
         id="path37"
         inkscape:connector-curvature="0"
         style="fill:#d2943b;stroke-width:0.10372238" />
      <path
         d="m 65.572363,37.513546 c -0.07779,0.197073 -0.207445,0.339587 -0.374231,0.411466 -0.07675,0.03475 -0.163674,0.05217 -0.255157,0.05217 -0.418519,0 -0.873964,-0.377964 -1.107962,-0.919291 -0.143759,-0.327971 -0.191368,-0.674403 -0.134528,-0.97468 0.0557,-0.301209 0.208689,-0.51913 0.430137,-0.615385 0.08111,-0.03475 0.16803,-0.05228 0.256194,-0.05228 0.416964,0 0.87272,0.377757 1.109103,0.918981 0.177366,0.409288 0.2062,0.849486 0.07644,1.178908 m 0.118243,0.01618 c 0.128616,-0.353486 0.09729,-0.814739 -0.08816,-1.241246 -0.257231,-0.592255 -0.746386,-0.989822 -1.215626,-0.989822 -0.09522,0 -0.185456,0.01742 -0.271234,0.04979 -0.271234,-0.243332 -0.57846,-0.442687 -0.921573,-0.5796 -1.904136,-0.756655 -4.689289,0.595885 -5.405596,2.467555 -0.344358,0.902903 -0.238769,1.90092 0.0557,2.800504 0.244785,0.743897 1.121861,1.816179 0.797418,2.625006 0.133387,-0.03143 2.853402,-0.884337 3.615036,-1.359489 1.213552,-0.760285 2.30886,-1.69109 3.128267,-2.416732 l 0.02427,-0.02303 2.757355,-1.3375 0.01037,0.02199 c 0.03236,-0.01628 0.06483,-0.03112 0.0975,-0.04751 -0.397672,0 -1.909011,0.176017 -2.583517,0.03008"
         id="path39"
         inkscape:connector-curvature="0"
         style="fill:#ffd524;stroke-width:0.10372238" />
      <g
         clip-path="url(#b)"
         transform="matrix(0.11590236,0,0,-0.11590236,-18.207687,121.11392)"
         id="g43">
        <path
           sodipodi:nodetypes="ccccccc"
           d="m 706.28,739.74 c 0,0 -5.32,-9.382 0.12,-17.47 5.45,-8.09 12.26,-8.1 12.26,-8.1 l 65.53461,21.30077 c 0,0 -0.16384,2.09308 -8.92384,18.72308 -8.75,16.64 -21.90769,14.90307 -21.90769,14.90307 z"
           mask="url(#c)"
           id="path41"
           inkscape:connector-curvature="0"
           style="fill:url(#d)" />
      </g>
      <g
         clip-path="url(#e)"
         transform="matrix(0.11590236,0,0,-0.11590236,-18.207687,121.11392)"
         id="g49">
        <path
           d="m 717.38,719.3 c -2.787,0 -6.034,2.83 -7.722,6.728 -1.08,2.468 -1.448,5.043 -1.035,7.248 0.36,1.92 1.26,3.283 2.543,3.836 0.445,0.19 0.922,0.29 1.414,0.29 2.78,0 6.032,-2.832 7.734,-6.732 1.326,-3.05 1.563,-6.28 0.635,-8.633 -0.472,-1.2 -1.216,-2.047 -2.154,-2.448 -0.435,-0.195 -0.906,-0.29 -1.416,-0.29"
           id="path45"
           inkscape:connector-curvature="0"
           style="fill:#ffffff" />
        <path
           d="m 774.36,707.52 c 0,3.425 2.775,6.203 6.2,6.203 3.425,0 6.2,-2.778 6.2,-6.203 0,-3.424 -2.777,-6.2 -6.2,-6.2 -3.423,0 -6.2,2.776 -6.2,6.2"
           id="path47"
           inkscape:connector-curvature="0"
           style="fill:#efc286" />
      </g>
    </g>
  </g>
</svg>
