<svg xmlns="http://www.w3.org/2000/svg" xmlns:xlink="http://www.w3.org/1999/xlink" width="120" height="60"><style><![CDATA[.F{clip-path:url(#A)}]]></style><defs><clipPath id="A"><use xlink:href="#B"/></clipPath><path id="B" d="M0 0h250.9v312.8H0z"/></defs><g transform="matrix(.176308 0 0 .176308 7.367521 8.916185)" class="F"><path d="M85.9 28.6c2.4-6.3 5.7-12.1 10.6-16.8 19.6-19.1 52-14.3 65.3 9.7 10 18.2 20.6 36 30.9 54l51.6 89.8c14.3 25.1-1.2 56.8-29.6 61.1-17.4 2.6-33.7-5.4-42.7-21l-45.4-78.8c-.3-.6-.7-1.1-1.1-1.6-1.6-1.3-2.3-3.2-3.3-4.9L88.8 62.2c-3.9-6.8-5.7-14.2-5.5-22 .3-4 .8-8 2.6-11.6" fill="#3c8bd9"/><path d="M85.9 28.6c-.9 3.6-1.7 7.2-1.9 11-.3 8.4 1.8 16.2 6 23.5l32.9 56.9c1 1.7 1.8 3.4 2.8 5l-18.1 31.1-25.3 43.6c-.4 0-.5-.2-.6-.5-.1-.8.2-1.5.4-2.3 4.1-15 .7-28.3-9.6-39.7-6.3-6.9-14.3-10.8-23.5-12.1-12-1.7-22.6 1.4-32.1 8.9-1.7 1.3-2.8 3.2-4.8 4.2-.4 0-.6-.2-.7-.5l14.3-24.9L85.2 29.7c.2-.4.5-.7.7-1.1" fill="#fabc04"/><path d="M11.8 158l5.7-5.1c24.3-19.2 60.8-5.3 66.1 25.1 1.3 7.3.6 14.3-1.6 21.3-.1.6-.2 1.1-.4 1.7-.9 1.6-1.7 3.3-2.7 4.9-8.9 14.7-22 22-39.2 20.9C20 225.4 4.5 210.6 1.8 191c-1.3-9.5.6-18.4 5.5-26.6 1-1.8 2.2-3.4 3.3-5.2.5-.4.3-1.2 1.2-1.2" fill="#34a852"/><path d="M11.8 158c-.4.4-.4 1.1-1.1 1.2-.1-.7.3-1.1.7-1.6l.4.4" fill="#fabc04"/><path d="M81.6 201c-.4-.7 0-1.2.4-1.7l.4.4-.8 1.3" fill="#e1c025"/></g><path d="M20.7 260.4C9.4 260.4 0 269.5 0 280.7s9.4 20.2 20.7 20.2c6.1 0 10.6-2 14.2-5.7 3.7-3.7 4.8-8.8 4.8-12.9 0-1.3-.1-2.5-.3-3.5H20.7v5.5H34c-.4 3.1-1.4 5.4-3 7-1.9 1.9-5 4.1-10.3 4.1-8.2 0-14.6-6.6-14.6-14.7S12.5 266 20.7 266c4.4 0 7.7 1.7 10 4l3.9-3.9c-3.3-3.2-7.7-5.7-13.9-5.7zm33.9 14.5c-7.1 0-13 5.5-13 13.2 0 7.6 5.8 13.2 13 13.2s13-5.6 13-13.2-5.9-13.2-13-13.2m0 21.2c-3.9 0-7.3-3.3-7.3-8s3.4-8 7.3-8 7.3 3.2 7.3 8c0 4.7-3.4 8-7.3 8m28.2-21.2c-7.2 0-13 5.5-13 13.2 0 7.6 5.8 13.2 13 13.2 7.1 0 13-5.6 13-13.2s-5.8-13.2-13-13.2m0 21.2c-3.9 0-7.3-3.3-7.3-8s3.4-8 7.3-8 7.3 3.2 7.3 8c0 4.7-3.3 8-7.3 8m28.1-21.2c-6.5 0-12.4 5.7-12.4 13.1 0 7.3 5.9 13 12.4 13 3.1 0 5.5-1.4 6.8-3h.2v1.9c0 5-2.6 7.7-6.9 7.7-3.5 0-5.6-2.5-6.5-4.6l-5 2.1c1.4 3.5 5.2 7.7 11.5 7.7 6.7 0 12.3-4 12.3-13.6v-23.4h-5.4v2.1h-.2c-1.3-1.6-3.7-3-6.8-3m.5 21c-3.9 0-7.2-3.3-7.2-7.9s3.3-8 7.2-8 6.9 3.4 6.9 8-3 7.9-6.9 7.9m16.1-33.9h5.7v38.6h-5.7V262zm21 12.9c-6.8 0-12.5 5.3-12.5 13.2 0 7.4 5.6 13.2 13.1 13.2 6.1 0 9.6-3.7 11-5.8l-4.5-3c-1.5 2.2-3.6 3.6-6.5 3.6-3 0-5.1-1.3-6.4-4l17.7-7.3-.6-1.5c-1.1-2.9-4.5-8.4-11.3-8.4m-6.8 12.8c-.2-5.1 4-7.7 6.9-7.7 2.3 0 4.3 1.1 4.9 2.8l-11.8 4.9z" transform="matrix(.400583 0 0 .400583 50.118826 -91.811827)" fill="#757575" class="F"/><path d="M170.4 300l13.2-35.1h5.1l13.2 35.1h-5l-3.4-9.5h-14.7l-3.4 9.5h-5zm9.9-13.7H192l-5.7-15.8h-.2l-5.8 15.8zm26.2 10.8c-2.2-2.5-3.3-5.5-3.3-9.1 0-3.5 1.1-6.5 3.3-9.1 2.3-2.5 4.9-3.7 8.1-3.7 1.8 0 3.4.4 4.8 1.1 1.5.8 2.6 1.7 3.4 3h.2l-.2-3.3v-11.1h4.5V300H223v-3.3h-.2c-.8 1.2-1.9 2.2-3.4 3s-3.1 1.1-4.8 1.1c-3.2 0-5.9-1.2-8.1-3.7m14.2-2.8c1.5-1.6 2.2-3.7 2.2-6.3 0-2.5-.7-4.6-2.2-6.2-1.4-1.6-3.2-2.4-5.4-2.4s-4 .8-5.4 2.4c-1.5 1.6-2.2 3.7-2.2 6.2s.7 4.6 2.2 6.2 3.3 2.4 5.4 2.4c2.2.1 4-.7 5.4-2.3m27.4 4.3c-1.8 1.4-4.1 2.2-6.9 2.2-2.4 0-4.5-.6-6.4-1.9-1.8-1.3-3.1-2.9-3.9-5l4-1.7c.6 1.4 1.4 2.6 2.6 3.4 1.1.8 2.4 1.2 3.7 1.2 1.4 0 2.6-.3 3.6-.9s1.4-1.4 1.4-2.2c0-1.5-1.2-2.7-3.5-3.4l-4.1-1c-4.7-1.2-7-3.4-7-6.8 0-2.2.9-3.9 2.7-5.3 1.8-1.3 4.1-2 6.8-2a11.66 11.66 0 0 1 5.8 1.5c1.7 1 2.9 2.4 3.6 4.1l-4 1.7c-.5-1-1.2-1.8-2.2-2.4s-2.2-.9-3.5-.9c-1.2 0-2.2.3-3.2.9-.9.6-1.4 1.3-1.4 2.2 0 1.4 1.3 2.4 3.9 2.9l3.6.9c4.8 1.2 7.1 3.6 7.1 7.2.1 2.1-.9 3.9-2.7 5.3" transform="matrix(.400583 0 0 .400583 -3.073802 -72.995397)" fill="#757575" class="F"/></svg>