<svg xmlns="http://www.w3.org/2000/svg" width="120" height="60"><path d="M0 41.5v-.2C0 18.7 17 .1 41.1.1c14.7 0 23.6 5.1 31.2 12.4l-9 10.3C56.9 17 50.1 13 41 13c-15.1 0-26.3 12.5-26.3 28.1v.2c0 15.6 11 28.2 26.3 28.2 9.8 0 16.1-3.9 22.9-10.2l9 9.1C64.6 77 55.5 82.5 40.6 82.5 17.3 82.5 0 64.4 0 41.5zm78.9 0v-.2C78.9 18.8 96.2 0 120.7 0s41.6 18.6 41.6 41v.2c0 22.5-17.3 41.3-41.8 41.3s-41.6-18.6-41.6-41zm68.7 0v-.2c0-15.5-11.3-28.4-27.1-28.4S93.6 25.6 93.6 41.1v.2c0 15.5 11.3 28.3 27.1 28.3 15.8-.1 26.9-12.6 26.9-28.1zM175.3 0h13.4l44.2 57V0h14.3v82.5H235l-45.5-58.7v58.7h-14.3V0zm112.5 13.5h-26.2V0h66.9v13.4h-26.2v69h-14.6V13.5zM343.3 0h61.2v13h-46.7v21.5h41.4v13h-41.4v22.2H405v13h-61.8V0zm72.2 41.5v-.2C415.5 19 432.6 0 456.6 0c13.9 0 22.4 3.9 30.7 10.8l-8.9 10.6c-6.1-5.2-12.2-8.5-22.3-8.5-14.7 0-25.9 12.9-25.9 28.1v.2c0 16.4 10.8 28.5 27.1 28.5 7.5 0 14.4-2.4 19.2-6V48.8h-20.4V36.6h34v33.5c-7.9 6.7-19.1 12.4-33.3 12.4-24.9 0-41.3-17.8-41.3-41zM508.4 0h14.5v82.5h-14.5z" fill="#58595b"/><linearGradient id="A" gradientUnits="userSpaceOnUse" x1="536.77" y1="41.264" x2="618.956" y2="41.264"><stop offset="0" stop-color="#5a8a3e"/><stop offset=".142" stop-color="#7aa141"/><stop offset=".233" stop-color="#89ac43"/><stop offset=".32" stop-color="#9dbb45"/><stop offset=".439" stop-color="#b3cb46"/><stop offset=".515" stop-color="#bbd147"/><stop offset=".636" stop-color="#a7c245"/><stop offset=".785" stop-color="#88ac43"/><stop offset="1" stop-color="#5f8e3f"/></linearGradient><path d="M619 .1l-56.8 82.4h-25.4L593.6.1z" fill="url(#A)"/><linearGradient id="B" gradientUnits="userSpaceOnUse" x1="537.354" y1="17.709" x2="573.602" y2="17.709"><stop offset="0" stop-color="#335c97"/><stop offset=".203" stop-color="#37629d"/><stop offset=".485" stop-color="#4173b0"/><stop offset=".589" stop-color="#467bb8"/><stop offset="1" stop-color="#4a8fc8"/></linearGradient><path d="M560.8 35.3L537.4.1h25.9l10.3 16.5z" fill="url(#B)"/><linearGradient id="C" gradientUnits="userSpaceOnUse" x1="582.458" y1="64.438" x2="619.539" y2="64.438"><stop offset="0" stop-color="#ca0088"/><stop offset=".515" stop-color="#961968"/><stop offset=".659" stop-color="#851b5d"/><stop offset=".852" stop-color="#751d53"/><stop offset="1" stop-color="#6f1e4f"/></linearGradient><path d="M595.4 46.3l24.2 36.2-25.9.1-11.2-17.5z" fill="url(#C)"/></svg>