<?xml version="1.0" encoding="UTF-8" standalone="no"?>
<svg
   xmlns:dc="http://purl.org/dc/elements/1.1/"
   xmlns:cc="http://creativecommons.org/ns#"
   xmlns:rdf="http://www.w3.org/1999/02/22-rdf-syntax-ns#"
   xmlns:svg="http://www.w3.org/2000/svg"
   xmlns="http://www.w3.org/2000/svg"
   xmlns:sodipodi="http://sodipodi.sourceforge.net/DTD/sodipodi-0.dtd"
   xmlns:inkscape="http://www.inkscape.org/namespaces/inkscape"
   width="64"
   height="64"
   viewBox="0 0 64 64"
   version="1.1"
   id="svg22"
   sodipodi:docname="thoughtbot-icon.svg"
   inkscape:version="0.92.3 (2405546, 2018-03-11)">
  <metadata
     id="metadata28">
    <rdf:RDF>
      <cc:Work
         rdf:about="">
        <dc:format>image/svg+xml</dc:format>
        <dc:type
           rdf:resource="http://purl.org/dc/dcmitype/StillImage" />
        <dc:title>Group + thoughtbot 3</dc:title>
      </cc:Work>
    </rdf:RDF>
  </metadata>
  <defs
     id="defs26" />
  <sodipodi:namedview
     pagecolor="#ffffff"
     bordercolor="#666666"
     borderopacity="1"
     objecttolerance="10"
     gridtolerance="10"
     guidetolerance="10"
     inkscape:pageopacity="0"
     inkscape:pageshadow="2"
     inkscape:window-width="1920"
     inkscape:window-height="1001"
     id="namedview24"
     showgrid="false"
     inkscape:zoom="5.2110695"
     inkscape:cx="72.745118"
     inkscape:cy="24.815148"
     inkscape:window-x="-9"
     inkscape:window-y="-9"
     inkscape:window-maximized="1"
     inkscape:current-layer="svg22" />
  <title
     id="title2">Group + thoughtbot 3</title>
  <g
     id="g126"
     transform="matrix(1.8802323,0,0,1.8802323,-12.450393,-24.406969)">
    <g
       transform="matrix(1.2818404,0,0,1.2818404,0.22614476,-11.216144)"
       id="g62">
      <ellipse
         cx="18.266518"
         cy="32.153881"
         rx="13.27714"
         ry="13.258173"
         id="ellipse4"
         style="fill:#ed3e44;fill-rule:evenodd;stroke-width:0.29634488" />
      <path
         d="m 14.326613,33.253025 v 3.799734 c 0.185216,0.248337 0.298419,0.488969 0.298419,0.78887 a 1.2221262,1.2221262 0 0 1 -0.431478,0.933487 l -0.328646,-0.330721 a 0.75271597,0.75271597 0 0 0 0.298123,-0.60158 0.74915983,0.74915983 0 0 0 -0.7459,-0.75242 0.74915983,0.74915983 0 0 0 -0.745604,0.75242 c 0,0.244188 0.115278,0.461112 0.293678,0.598616 l -0.328054,0.330721 a 1.2256824,1.2256824 0 0 1 -0.433553,-0.929337 c 0,-0.300494 0.09246,-0.57728 0.276786,-0.790056 v -5.900226 c 0.03082,-0.227593 0.205071,-0.411327 0.429404,-0.411327 l 10.738353,0.0015 c 0.224629,0 0.401843,0.182252 0.432663,0.409548 v 5.903487 c 0.153507,0.212775 0.276786,0.487783 0.276786,0.788277 a 1.223608,1.223608 0 0 1 -0.430885,0.929634 l -0.329832,-0.330721 c 0.178696,-0.137504 0.293382,-0.354428 0.293382,-0.598617 a 0.74945618,0.74945618 0 0 0 -0.746493,-0.752419 0.74915983,0.74915983 0 0 0 -0.7459,0.752419 c 0,0.245967 0.117056,0.464373 0.297826,0.60158 l -0.328646,0.33161 a 1.2242007,1.2242007 0 0 1 -0.431478,-0.934671 c 0,-0.300198 0.119427,-0.541422 0.299012,-0.789759 v -3.768618 h -0.523345 v 7.9779 l 0.307902,0.205071 v 0.655811 h -3.599997 v -0.655811 l 0.400065,-0.19707 V 38.80475 h -1.046097 l 5.92e-4,2.457588 0.36895,0.205071 v 0.655811 h -3.631707 v -0.655811 l 0.369246,-0.204478 v -8.009906 h -0.553868 z m 4.046886,-8.815667 c 0.745603,0 1.420973,0.267896 1.837338,0.670925 l 0.328943,-0.47267 c -0.519789,-0.46941 -1.297398,-0.767533 -2.166281,-0.767533 -0.871254,0 -1.650641,0.299308 -2.170727,0.771089 l 0.328943,0.473263 c 0.416068,-0.4054 1.093513,-0.675074 1.841784,-0.675074 z m 0.03556,-1.207605 c 0.814652,0 1.57448,0.237076 2.13961,0.668257 0.114685,0.08742 0.218406,0.180771 0.30968,0.278565 l 0.329536,-0.474449 c -0.641587,-0.633585 -1.647678,-1.041948 -2.779122,-1.041948 -1.158709,0 -2.18584,0.427922 -2.824463,1.088178 l 0.331017,0.476819 c 0.101942,-0.115574 0.220184,-0.225222 0.353836,-0.327165 0.564833,-0.430885 1.324958,-0.668257 2.13961,-0.668257 z m -0.03556,-1.158709 c 1.293249,0 2.436251,0.475041 3.115769,1.197234 l 0.327165,-0.470003 c -0.792426,-0.788278 -2.039742,-1.296509 -3.442934,-1.296509 -1.405564,0 -2.654658,0.509713 -3.446788,1.300065 l 0.326869,0.470595 c 0.678629,-0.724266 1.824002,-1.201085 3.119919,-1.201085 z m 2.670067,3.646228 h -5.456895 c -0.22374,0 -0.397991,0.185808 -0.397991,0.412215 v 3.587848 c 0,0.225222 0.174251,0.403918 0.397991,0.403918 h 5.456598 c 0.22463,0 0.422292,-0.178696 0.422292,-0.403918 v -3.587848 c 0,-0.226407 -0.197662,-0.412215 -0.422292,-0.412215 z m -4.118601,2.633024 a 0.69789217,0.69789217 0 0 1 -0.69404,-0.699967 0.69759582,0.69759582 0 0 1 0.69404,-0.700855 0.69759582,0.69759582 0 0 1 0.694632,0.700855 c 0,0.385545 -0.311162,0.699967 -0.694632,0.699967 z m 2.789198,0 a 0.69848486,0.69848486 0 0 1 -0.696411,-0.699967 0.69818851,0.69818851 0 0 1 0.696411,-0.700855 0.69759582,0.69759582 0 0 1 0.694632,0.700855 c 0,0.385545 -0.311162,0.699967 -0.694632,0.699967 z m -2.433288,-0.699967 c 0,0.197366 -0.159137,0.358281 -0.35591,0.358281 -0.195588,0 -0.355021,-0.160915 -0.355021,-0.358281 0,-0.199144 0.159433,-0.358577 0.355021,-0.358577 0.196773,0 0.355614,0.159433 0.355614,0.358577 z m 2.432991,0.358281 c -0.19618,0 -0.355317,-0.160915 -0.355317,-0.358281 0,-0.199144 0.159137,-0.358577 0.355614,-0.358577 a 0.35842912,0.35842912 0 0 1 0,0.716858 z"
         id="path6"
         inkscape:connector-curvature="0"
         style="fill:#ffffff;fill-rule:evenodd;stroke-width:0.29634488" />
    </g>
  </g>
</svg>
