<svg xmlns="http://www.w3.org/2000/svg" width="64" height="64" fill-rule="evenodd"><path d="M35.05 49.2c-.3 0-.5-.1-.9-.1h-1.1c-.1 0-.3 0-.5-.1-.6-.1-1.3-.1-1.8-.2-.3 0-.5-.1-.8-.1s-.5.1-.8.2h-.1c-.2-.2-.3-.4-.3-.7V27.1l.1-4-.3-8.1V7c-.2 0-.3-.1-.5-.1h-2c-.5.1-2 .1-2.9.1h-5.6c-.4 0-.6-.1-.6-.3 0-.1 0-.2.1-.3 0-.2-.1-.3-.1-.4-.1-.2-.1-.3-.1-.4 0-.2.1-.4.2-.5.1-.3.1-.7.3-1 .1-.9.1-1.8.1-2.7 0-.2-.1-.4-.1-.5 0-.2.1-.3.3-.3 0 0-.4 0-.4-.1 0 0 .2-.1 1.1-.1h9l3.1-.1c2.4-.2 4.8-.1 7.2-.2h7.1c.4 0 .7 0 1.2-.1h.2c.3 0 .6.1.8.1 0 .1.1 0 .2 0l-.2 1.8c0 .1 0 .3.1.3v.3c0 .1 0 .2-.1.3l-.3 1.6c-.1.1-.1.1-.1.3-.1.1-.1.3-.1.4s0 .1.1.2.1.2.1.3-.1.1-.1.3c-.1.1-.1.2-.1.3s.1.1.1.2v.1c0 .1-.1.2-.2.3h-.2c-.4-.1-.8-.1-1.3-.1s-.9 0-1.4.1h-2.2l-5.2.1h-.5c-.1.1-.1.3-.1.6v3.4l-.1 7.7c0 4.4.2 8.7.2 13v11.8c0 .6-.1 1.2-.1 1.8 0 .4 0 .7.1.9v.6c0 .1 0 .3-.1.5s-.1.5-.1.7c0 .3.1.6.1.9s-.1.4-.3.4h-.1z"/><path d="M34.786 64c-.382 0-.763 0-1.158-.1h-.458c-.37 0-.725 0-1.107-.1h-3.13c-.61-.1-1.272-.1-1.896-.2-.61 0-1.234 0-1.845.1h-2.328c-.382 0-.763.1-1.132.1l-2.825.1v-3.5l-.013-1.8-.013-.7c.636 0 .89 0 1.145.1.814-.1 1.68-.1 2.52-.1h2.112c.61-.1 1.272-.1 1.896-.1.28.1.534.1.814.1h1.07c.483.1.98.1 1.476.1.356 0 .7-.1 1.03-.1h.115c.573 0 1.158.1 1.77.1.433 0 .878.1 1.3.1.216 0 .433 0 .65-.1h.93c.65 0 1.3 0 1.96-.1h1.234c.534 0 1.08.1 1.616.1.076-.1.115-.1.153-.1.687.1 1.425.1 2.125.2.458 0 .93-.1 2.265-.1l-.013 1.4.064 3.8-.013.7h-2.328c-.687-.1-1.35-.1-2.036-.1h-1.845c-.14.1-.28.1-.433.1s-.305 0-.458-.1l-2.048.1h-1.17z" fill="#1cdffe"/></svg>