<?xml version="1.0" encoding="UTF-8" standalone="no"?>
<svg
   xmlns:dc="http://purl.org/dc/elements/1.1/"
   xmlns:cc="http://creativecommons.org/ns#"
   xmlns:rdf="http://www.w3.org/1999/02/22-rdf-syntax-ns#"
   xmlns:svg="http://www.w3.org/2000/svg"
   xmlns="http://www.w3.org/2000/svg"
   xmlns:sodipodi="http://sodipodi.sourceforge.net/DTD/sodipodi-0.dtd"
   xmlns:inkscape="http://www.inkscape.org/namespaces/inkscape"
   width="120"
   height="60"
   viewBox="0 0 120 60"
   version="1.1"
   id="svg21"
   sodipodi:docname="readcube-ar21.svg"
   inkscape:version="0.92.3 (2405546, 2018-03-11)">
  <metadata
     id="metadata27">
    <rdf:RDF>
      <cc:Work
         rdf:about="">
        <dc:format>image/svg+xml</dc:format>
        <dc:type
           rdf:resource="http://purl.org/dc/dcmitype/StillImage" />
        <dc:title>readcube-logo-dark</dc:title>
      </cc:Work>
    </rdf:RDF>
  </metadata>
  <defs
     id="defs25" />
  <sodipodi:namedview
     pagecolor="#ffffff"
     bordercolor="#666666"
     borderopacity="1"
     objecttolerance="10"
     gridtolerance="10"
     guidetolerance="10"
     inkscape:pageopacity="0"
     inkscape:pageshadow="2"
     inkscape:window-width="1920"
     inkscape:window-height="1001"
     id="namedview23"
     showgrid="false"
     inkscape:zoom="6.0878527"
     inkscape:cx="79.822393"
     inkscape:cy="23.135976"
     inkscape:window-x="-9"
     inkscape:window-y="-9"
     inkscape:window-maximized="1"
     inkscape:current-layer="svg21" />
  <!-- Generator: Sketch 52.3 (67297) - http://www.bohemiancoding.com/sketch -->
  <title
     id="title2">readcube-logo-dark</title>
  <desc
     id="desc4">Created with Sketch.</desc>
  <g
     id="g88"
     transform="matrix(0.96438605,0,0,0.96438605,1.0760155,1.6433337)">
    <g
       transform="matrix(1.5097124,0,0,1.5097124,-19.674276,-12.372363)"
       id="g74">
      <path
         style="fill:#9823c6;fill-rule:evenodd;stroke:none;stroke-width:0.33419591"
         inkscape:connector-curvature="0"
         id="Shape"
         d="m 23.158212,23.97436 c 0.246883,-0.251609 0.428415,-0.488418 0.544595,-0.710427 l 2.911766,-5.409608 c 0.121021,-0.222009 0.145225,-0.367548 0.07261,-0.436617 -0.06777,-0.074 -0.212997,-0.04934 -0.435675,0.074 l -5.29346,2.974914 c -0.222678,0.128272 -0.452618,0.313279 -0.689819,0.555022 -0.246883,0.251609 -0.428415,0.488418 -0.544595,0.710427 l -2.919027,5.394808 c -0.125862,0.222009 -0.152486,0.370014 -0.07987,0.444017 0.06777,0.06907 0.212997,0.04193 0.435676,-0.0814 l 5.307982,-2.960114 c 0.222678,-0.128272 0.452618,-0.313279 0.689819,-0.555022 z" />
      <path
         style="fill:#ffc34e;fill-rule:evenodd;stroke:none;stroke-width:0.33419591"
         inkscape:connector-curvature="0"
         id="path7"
         d="M 35.447334,26.000675 C 35.408607,25.71453 35.299688,25.480188 35.120577,25.297648 L 29.89973,19.976843 c -0.179111,-0.182541 -0.372744,-0.25901 -0.580901,-0.229409 -0.212996,0.0296 -0.380005,0.157872 -0.501026,0.384814 l -2.919027,5.402209 c -0.121021,0.222008 -0.159748,0.478552 -0.116181,0.769629 0.03873,0.286145 0.145226,0.520487 0.319496,0.703027 l 5.220846,5.313405 c 0.174271,0.182541 0.367904,0.256544 0.580901,0.222009 0.212997,-0.0296 0.380007,-0.155406 0.501028,-0.377415 l 2.919026,-5.394808 c 0.121021,-0.226942 0.162169,-0.483485 0.123442,-0.769629 z" />
      <path
         style="fill:#ff3e3c;fill-rule:evenodd;stroke:none;stroke-width:0.33419591"
         inkscape:connector-curvature="0"
         id="path9"
         d="m 29.327026,35.13358 c 0.03389,-0.217075 -0.03873,-0.414416 -0.217838,-0.592023 l -5.213585,-5.320805 c -0.179112,-0.177607 -0.409051,-0.286144 -0.68982,-0.325612 -0.28561,-0.0444 -0.537333,-0.0049 -0.755171,0.118404 l -5.300721,2.974915 c -0.217838,0.123338 -0.341279,0.293545 -0.370324,0.51062 -0.03389,0.212141 0.03873,0.409482 0.217838,0.592023 l 5.220846,5.320804 c 0.179111,0.182541 0.409051,0.293545 0.68982,0.333013 0.280769,0.03947 0.532493,-0.0025 0.755171,-0.125804 L 28.956701,35.6442 c 0.217838,-0.123338 0.34128,-0.293545 0.370325,-0.51062 z" />
      <path
         style="fill:#26c4ff;fill-rule:evenodd;stroke:none;stroke-width:0.33419591"
         inkscape:connector-curvature="0"
         id="path11"
         d="m 37.533226,23.633947 c 0.02905,-0.217075 -0.04357,-0.416882 -0.217837,-0.599423 l -5.220847,-5.313405 c -0.17427,-0.18254 -0.40179,-0.293544 -0.682558,-0.333012 -0.28561,-0.03947 -0.537334,0.0025 -0.755172,0.125804 l -5.30072,2.967515 c -0.222679,0.123338 -0.348541,0.293544 -0.377586,0.510619 -0.02904,0.217076 0.04599,0.416883 0.225099,0.599423 l 5.220847,5.320806 c 0.179111,0.18254 0.409051,0.293544 0.68982,0.333012 0.280769,0.03947 0.530072,-0.0025 0.74791,-0.125804 l 5.293459,-2.974915 c 0.222678,-0.123338 0.34854,-0.293545 0.377585,-0.51062 z" />
      <path
         style="fill:#fe0fa6;fill-rule:evenodd;stroke:none;stroke-width:0.33419591"
         inkscape:connector-curvature="0"
         id="path13"
         d="m 37.591146,28.539747 c -0.06777,-0.074 -0.212997,-0.04933 -0.435676,0.074 l -5.30072,2.960114 c -0.222679,0.128272 -0.455039,0.313279 -0.697081,0.555021 -0.242043,0.25161 -0.423574,0.488419 -0.544595,0.710428 l -2.904504,5.409608 c -0.121021,0.222009 -0.147646,0.370015 -0.07987,0.444017 0.07261,0.074 0.217837,0.04687 0.435675,-0.0814 l 5.29346,-2.974914 c 0.217837,-0.123338 0.450198,-0.308346 0.697081,-0.555022 0.237201,-0.246676 0.418732,-0.483485 0.544594,-0.710427 l 2.919027,-5.394808 c 0.121021,-0.222009 0.145225,-0.367548 0.07261,-0.436617 z" />
      <path
         style="fill:#98d843;fill-rule:evenodd;stroke:none;stroke-width:0.33419591"
         inkscape:connector-curvature="0"
         id="path15"
         d="m 28.44601,30.598852 c 0.121021,-0.222008 0.162168,-0.478551 0.123441,-0.769629 -0.03873,-0.286145 -0.147645,-0.520487 -0.326757,-0.703027 l -5.220846,-5.320805 c -0.179111,-0.18254 -0.372745,-0.256543 -0.580901,-0.222009 -0.212997,0.0296 -0.380006,0.155406 -0.501027,0.377415 l -2.919027,5.402208 c -0.121021,0.226942 -0.159748,0.483485 -0.11618,0.769629 0.03873,0.286145 0.145225,0.520487 0.319495,0.703028 l 5.220847,5.313404 c 0.17427,0.182541 0.367904,0.25901 0.580901,0.229409 0.212997,-0.0296 0.380006,-0.157872 0.501027,-0.384814 z" />
    </g>
    <g
       transform="matrix(1.0103044,0,0,1.0103044,-1.2023675,1.9707164)"
       id="g77">
      <path
         d="m 43.295468,34.751493 v -6.73739 c 0,-0.962484 -0.02005,-1.94502 -0.08021,-2.887452 h 0.882278 l 0.0401,1.94502 h 0.06016 c 0.421087,-1.203105 1.423675,-2.165589 2.727039,-2.165589 0.140362,0 0.280724,0.02005 0.401035,0.0401 v 0.922381 c -0.140362,-0.0401 -0.280725,-0.0401 -0.46119,-0.0401 -1.323416,0 -2.265849,1.14295 -2.526521,2.686935 -0.06016,0.280725 -0.08021,0.601553 -0.08021,0.922381 v 5.313715 z m 12.953434,-4.91268 h -7.098321 c 0,3.067918 1.664295,4.291075 3.669471,4.291075 1.403622,0 2.125486,-0.280724 2.666883,-0.541397 l 0.240621,0.741915 c -0.360932,0.200518 -1.343468,0.621604 -3.027815,0.621604 -2.767142,0 -4.491593,-2.005175 -4.491593,-4.832472 0,-3.208281 1.844762,-5.213456 4.331179,-5.213456 3.148125,0 3.749678,2.967659 3.749678,4.35123 0,0.260673 0,0.401035 -0.0401,0.581501 z m -7.058218,-0.761967 h 6.095733 c 0.02005,-1.343467 -0.541397,-3.368694 -2.8674,-3.368694 -2.125486,0 -3.047867,1.884865 -3.228333,3.368694 z m 15.540109,-0.380983 v 3.76973 c 0,0.761966 0.02005,1.543985 0.140363,2.2859 h -0.882277 l -0.140363,-1.383571 h -0.0401 c -0.481242,0.741915 -1.543985,1.60414 -3.08797,1.60414 -1.94502,0 -2.827298,-1.363519 -2.827298,-2.646831 0,-2.225745 1.94502,-3.569213 5.875164,-3.529109 v -0.260673 c 0,-0.942432 -0.180466,-2.847349 -2.466365,-2.827297 -0.842174,0 -1.724451,0.220569 -2.426263,0.721863 l -0.300776,-0.701812 c 0.882277,-0.5815 1.965072,-0.822121 2.827297,-0.822121 2.787194,0 3.328591,2.085382 3.328591,3.789781 z m -0.962484,2.96766 v -2.065331 c -2.105434,-0.06016 -4.872576,0.260673 -4.872576,2.566625 0,1.383571 0.922381,2.005175 1.924968,2.005175 1.604141,0 2.526521,-0.982536 2.847349,-1.924968 0.08021,-0.200518 0.100259,-0.421087 0.100259,-0.581501 z M 74.556153,20.514747 h 0.962484 v 11.990949 c 0,0.721863 0.02005,1.564037 0.08021,2.245797 h -0.862225 l -0.08021,-1.82471 h -0.0401 c -0.501294,1.062743 -1.644244,2.045279 -3.42885,2.045279 -2.386158,0 -4.150713,-1.985124 -4.150713,-4.852524 -0.02005,-3.208281 1.965072,-5.213456 4.331179,-5.213456 1.664296,0 2.727039,0.862225 3.148125,1.704399 h 0.0401 z m 0,10.346706 v -1.924969 c 0,-0.260673 -0.02005,-0.621604 -0.100259,-0.882277 -0.320828,-1.283312 -1.463778,-2.346055 -3.027815,-2.346055 -2.105434,0 -3.42885,1.824709 -3.42885,4.311127 0,2.165589 1.082795,4.150713 3.368695,4.150713 1.383571,0 2.686935,-0.922381 3.08797,-2.506469 0.08021,-0.260673 0.100259,-0.501294 0.100259,-0.80207 z m 10.567274,2.706986 0.260673,0.761967 c -0.421087,0.200518 -1.423674,0.621604 -2.827297,0.621604 -2.767142,0 -4.611904,-2.025227 -4.611904,-4.912679 0,-3.047867 2.085383,-5.133249 4.952784,-5.133249 1.183053,0 2.165589,0.340879 2.526521,0.601552 l -0.34088,0.782019 c -0.461191,-0.260673 -1.203105,-0.56145 -2.265848,-0.56145 -2.586677,0 -3.910092,1.985124 -3.910092,4.230921 0,2.526521 1.584088,4.170764 3.809833,4.170764 1.14295,0 1.884865,-0.320828 2.40621,-0.561449 z m 9.985774,-8.441788 v 7.278787 c 0,0.842173 0.02005,1.60414 0.08021,2.346055 h -0.902329 l -0.06016,-1.724451 h -0.0401 c -0.481242,0.902329 -1.584088,1.94502 -3.288488,1.94502 -1.223157,0 -3.288487,-0.621604 -3.288487,-4.250972 v -5.594439 h 0.962484 v 5.413973 c 0,2.085383 0.641656,3.589264 2.546573,3.589264 1.403623,0 2.426262,-0.982536 2.847349,-1.94502 0.100259,-0.300776 0.180466,-0.681759 0.180466,-1.062743 v -5.995474 z m 3.20828,7.379045 V 20.514747 h 0.962485 v 6.416562 h 0.0401 c 0.641656,-1.243209 1.824714,-2.025227 3.509064,-2.025227 2.44631,0 4.13066,2.045278 4.13066,4.932731 0,3.42885 -2.18564,5.133249 -4.29108,5.133249 -1.56403,0 -2.686936,-0.641656 -3.448903,-1.965072 h -0.0401 l -0.08021,1.744503 h -0.862226 c 0.06016,-0.68176 0.08021,-1.523934 0.08021,-2.245797 z m 0.962485,-3.388746 v 1.924968 c 0,0.22057 0.02005,0.461191 0.08021,0.701812 0.421086,1.463778 1.664294,2.426262 3.168174,2.426262 2.20569,0 3.46895,-1.804658 3.46895,-4.311127 0,-2.205693 -1.2031,-4.150713 -3.38874,-4.150713 -1.40363,0 -2.747091,0.962484 -3.208281,2.566624 -0.06016,0.240621 -0.12031,0.501294 -0.12031,0.842174 z m 17.364814,0.721863 h -7.09832 c 0,3.067918 1.6643,4.291075 3.66947,4.291075 1.40363,0 2.12549,-0.280724 2.66689,-0.541397 l 0.24062,0.741915 c -0.36093,0.200518 -1.34347,0.621604 -3.02782,0.621604 -2.76714,0 -4.49159,-2.005175 -4.49159,-4.832472 0,-3.208281 1.84476,-5.213456 4.33118,-5.213456 3.14813,0 3.74968,2.967659 3.74968,4.35123 0,0.260673 0,0.401035 -0.0401,0.581501 z m -7.05821,-0.761967 h 6.09573 c 0.02,-1.343467 -0.5414,-3.368694 -2.8674,-3.368694 -2.12549,0 -3.04787,1.884865 -3.22833,3.368694 z"
         id="readcube"
         inkscape:connector-curvature="0"
         style="fill:#000000;fill-rule:evenodd;stroke:none;stroke-width:0.33419591" />
    </g>
  </g>
</svg>
