<svg xmlns="http://www.w3.org/2000/svg" width="256" height="75" viewBox="-202 367.6 256 74.266"><g transform="matrix(1.248172 0 0 1.248172 49.756212 -91.352691)"><path d="M-142.6 384.1v-1.8c0-1.3-.1-2.6-.3-3.9s-.6-2.5-1.2-3.7-1.4-2.2-2.3-3.2a12.44 12.44 0 0 0-3.2-2.3c-1.2-.6-2.4-1-3.7-1.2s-2.6-.3-3.9-.3h-31c-1 0-2 .1-2.9.3-1 .2-1.9.4-2.8.8-.3.1-.6.3-.9.4-.9.4-1.7 1-2.4 1.6-.2.2-.5.4-.7.7a12.44 12.44 0 0 0-2.3 3.2c-.6 1.2-1 2.4-1.2 3.7s-.3 2.6-.3 3.9v30.1c0 1.3.1 2.6.3 3.9s.6 2.5 1.2 3.7 1.4 2.2 2.3 3.2a12.44 12.44 0 0 0 3.2 2.3c1.2.6 2.4 1 3.7 1.2s2.6.3 3.9.3h30c1.3 0 2.6-.1 3.9-.3s2.5-.6 3.7-1.2 2.2-1.4 3.2-2.3a12.44 12.44 0 0 0 2.3-3.2c.6-1.2 1-2.4 1.2-3.7s.3-2.6.3-3.9v-26.1c-.1-.8-.1-1.5-.1-2.2z" fill="#f05138"/><path d="M-154.9 404.3c.1-.2.1-.5.2-.7 2.5-9.8-3.6-21.4-13.7-27.5 4.5 6 6.4 13.4 4.7 19.8-.2.6-.3 1.1-.6 1.7-.2-.1-.5-.3-.9-.5 0 0-10.1-6.3-21.1-17.3-.3-.3 5.9 8.8 12.8 16.1-3.3-1.8-12.4-8.5-18.2-13.8.7 1.2 1.6 2.3 2.5 3.4 4.8 6.1 11.1 13.7 18.7 19.5-5.3 3.2-12.8 3.5-20.3 0-1.8-.9-3.6-1.9-5.2-3.1 3.2 5.1 8 9.4 14 12 7.1 3 14.1 2.8 19.3.1h.1c.2-.1.4-.2.6-.4 2.5-1.3 7.5-2.6 10.2 2.6.6 1.1 2-5.7-3.1-11.9z" fill="#fff"/><path d="M-122.8 421.2c1.3.9 2.8 1.6 4.5 2.2 1.7.5 3.5.8 5.4.8 3.4 0 6.1-.9 8.1-2.6 1.9-1.8 2.9-4.1 2.9-7 0-2.6-.7-4.7-2.1-6.4-1.4-1.6-3.8-3.1-7.1-4.5-3.6-1.3-6.4-2.9-8.5-4.9s-3.2-4.6-3.2-7.8c0-1.7.3-3.3 1-4.7s1.6-2.7 2.7-3.7 2.6-1.8 4.2-2.4 3.4-.9 5.3-.9c2.2 0 4.1.2 5.6.7s2.7.9 3.4 1.4l-1.2 2.7c-.6-.5-1.7-.9-3-1.4-1.4-.5-3-.7-4.9-.7-1.8 0-3.4.3-4.6.8-1.3.5-2.3 1.2-3 2-.8.8-1.3 1.7-1.6 2.7s-.5 1.9-.5 2.9c0 2.6.8 4.6 2.3 6.1s3.9 2.9 7.2 4.2c1.9.8 3.5 1.6 5 2.5 1.4.9 2.6 1.8 3.6 2.9s1.7 2.2 2.2 3.6c.5 1.3.7 2.8.7 4.5s-.3 3.3-.9 4.8-1.5 2.9-2.7 4.1-2.7 2.1-4.5 2.8-3.9 1-6.3 1c-1 0-2-.1-3-.2l-3-.7c-1-.3-1.9-.6-2.7-1l-2.2-1.2.9-2.6zm30.1-27.9l5.4 18.7 1.5 5.4 1.2 4.9h.2l1.4-4.9 1.8-5.5 6.5-18.7h3l6.2 18.5 1.8 5.6c.6 1.7 1 3.4 1.4 4.9h.2c.3-1.6.7-3.2 1.2-4.9l1.7-5.6 5.8-18.6h3.3l-10.8 33h-2.8l-6.1-18.4-1.9-5.6c-.6-1.8-1-3.6-1.4-5.5h-.1l-1.6 5.7-1.9 5.6-6.5 18.3H-86l-10-33 3.3.1zm48.2-10c0-.8.3-1.4.8-2s1.2-.8 2-.8 1.4.3 2 .8c.5.5.8 1.2.8 2s-.3 1.4-.8 2c-.6.5-1.2.8-2 .8s-1.4-.3-2-.8c-.5-.6-.8-1.2-.8-2zm1.2 43v-33h3.2v33h-3.2zm16.4 0v-30.4h-4.7v-2.5h4.7v-1.9c0-2.1.2-4 .5-5.8.4-1.8 1-3.3 1.8-4.6s2-2.3 3.3-3.1c1.4-.8 3.1-1.1 5.1-1.1 1.1 0 2 .1 2.8.3s1.5.5 2 .8l-1 2.5-1.6-.6c-.6-.2-1.4-.3-2.4-.3-1.6 0-2.8.3-3.7 1-.9.6-1.7 1.5-2.2 2.6s-.9 2.3-1.1 3.8-.3 3-.3 4.5v1.9H-8v2.5h-15.6v30.4h-3.3z"/><path d="M-5.7 386v7.4h9.1v2.5h-9.1v21.5c0 2.2.4 3.9 1.1 5.1s1.9 1.8 3.7 1.8l2.1-.1 1.5-.3.3 2.5c-1.1.5-2.6.8-4.4.8-1.5 0-2.8-.3-3.7-.8-1-.5-1.7-1.2-2.3-2.1s-1-2-1.2-3.2c-.2-1.3-.3-2.6-.3-4.1v-20.9h.2v-2.5h-.2v-6.1l3.2-1.5z"/></g></svg>