<?xml version="1.0" encoding="UTF-8" standalone="no"?>
<!-- Generator: Adobe Illustrator 23.0.3, SVG Export Plug-In . SVG Version: 6.00 Build 0)  -->

<svg
   xmlns:dc="http://purl.org/dc/elements/1.1/"
   xmlns:cc="http://creativecommons.org/ns#"
   xmlns:rdf="http://www.w3.org/1999/02/22-rdf-syntax-ns#"
   xmlns:svg="http://www.w3.org/2000/svg"
   xmlns="http://www.w3.org/2000/svg"
   xmlns:sodipodi="http://sodipodi.sourceforge.net/DTD/sodipodi-0.dtd"
   xmlns:inkscape="http://www.inkscape.org/namespaces/inkscape"
   version="1.1"
   id="svg2"
   x="0px"
   y="0px"
   viewBox="0 0 120 60"
   style="enable-background:new 0 0 120 60;"
   xml:space="preserve"
   sodipodi:docname="cri-oio-ar21.svg"
   inkscape:version="0.92.2 5c3e80d, 2017-08-06"><metadata
     id="metadata29"><rdf:RDF><cc:Work
         rdf:about=""><dc:format>image/svg+xml</dc:format><dc:type
           rdf:resource="http://purl.org/dc/dcmitype/StillImage" /></cc:Work></rdf:RDF></metadata><defs
     id="defs27" /><sodipodi:namedview
     pagecolor="#ffffff"
     bordercolor="#666666"
     borderopacity="1"
     objecttolerance="10"
     gridtolerance="10"
     guidetolerance="10"
     inkscape:pageopacity="0"
     inkscape:pageshadow="2"
     inkscape:window-width="654"
     inkscape:window-height="480"
     id="namedview25"
     showgrid="false"
     inkscape:zoom="2.7"
     inkscape:cx="60"
     inkscape:cy="30"
     inkscape:window-x="0"
     inkscape:window-y="0"
     inkscape:window-maximized="0"
     inkscape:current-layer="svg2" /><style
     type="text/css"
     id="style2">
	.st0{fill:#3C6EB4;}
	.st1{fill:#294172;}
</style><g
     id="g22"><g
       id="g12"><path
         class="st0"
         d="M29.41,46.38c-0.05,0-0.11-0.01-0.16-0.04l-13.17-6.3c-0.1-0.05-0.17-0.14-0.2-0.24L12.6,25.56    c-0.02-0.11,0-0.22,0.07-0.31l9.07-11.45c0.07-0.09,0.17-0.14,0.28-0.14l14.6-0.05h0c0.11,0,0.21,0.05,0.28,0.14l9.14,11.4    c0.07,0.09,0.09,0.2,0.07,0.31L42.9,39.72c-0.02,0.11-0.1,0.2-0.19,0.25l-13.14,6.38C29.52,46.37,29.47,46.38,29.41,46.38z     M16.55,39.47l12.86,6.15l12.82-6.23l3.13-13.92l-8.92-11.13l-14.25,0.04l-8.85,11.18L16.55,39.47z"
         id="path4" /><path
         class="st0"
         d="M26.31,38.98l-0.45-0.56l3.25-2.63l0.45,0.56L26.31,38.98z M34.82,37.92L34.1,37.9l0.14-4.18l0.72,0.02    L34.82,37.92z M24.53,34.11l-4.12-0.74l0.13-0.71l4.12,0.74L24.53,34.11z M39.19,30.87l-3.2-2.69l0.47-0.55l3.2,2.69L39.19,30.87z     M22.26,28.1l-1.97-3.69l0.64-0.34l1.97,3.69L22.26,28.1z M32.65,23.33l-0.15-0.71l4.09-0.89l0.15,0.71L32.65,23.33z M26.66,23.08    L26,22.78l1.71-3.82l0.66,0.3L26.66,23.08z"
         id="path6" /><path
         class="st1"
         d="M23.67,16.91l-0.64,0.33l2.62,5.16l-3.31-0.71l-0.15,0.71l3.88,0.83l1.16,2.28l0.25-0.31l0.41,0L23.67,16.91z     M35.2,16.95l-2.59,5.17l-1.39-3.08l-0.66,0.3l1.64,3.61l-1.12,2.23h0.15l0.4,0.51l4.22-8.41L35.2,16.95z M37.88,24.07l-1.86,3.5    l-2.5,0.48l0.04,0.05l-0.16,0.71l9.34-1.8L42.6,26.3l-5.68,1.1l1.59-2.98L37.88,24.07z M16.21,26.3l-0.14,0.71l5.71,1.1    l-2.62,2.21l0.47,0.55l3.07-2.58l2.61,0.5l-0.16-0.67l0.07-0.09L16.21,26.3z M32.75,31.65l-0.02,0.09l-0.63,0.3l7.22,6.25    l0.47-0.55l-4.37-3.78l3.33-0.59l-0.13-0.71l-3.9,0.7L32.75,31.65z M25.98,31.72l-6.97,6.04l0.47,0.55l4.4-3.8l0.12,3.43    l0.72-0.02l-0.13-4.01l2.08-1.8l-0.67-0.32L25.98,31.72z M28.98,33.19v9.45h0.72v-5.78l2.63,2.13l0.45-0.56l-3.08-2.49v-2.71    l-0.33,0.16L28.98,33.19z"
         id="path8" /><path
         class="st1"
         d="M29.37,33.74c-0.05,0-0.11-0.01-0.16-0.04l-3.38-1.61c-0.1-0.05-0.17-0.14-0.2-0.24L24.8,28.2    c-0.02-0.11,0-0.22,0.07-0.31l2.33-2.93c0.07-0.09,0.17-0.14,0.28-0.14l3.74-0.01h0c0.11,0,0.21,0.05,0.28,0.14l2.34,2.92    c0.07,0.09,0.09,0.2,0.07,0.31l-0.82,3.65c-0.02,0.11-0.1,0.2-0.19,0.25l-3.37,1.63C29.48,33.73,29.42,33.74,29.37,33.74z     M26.3,31.51l3.06,1.46l3.05-1.48l0.75-3.31l-2.12-2.65l-3.39,0.01l-2.11,2.66L26.3,31.51z"
         id="path10" /></g><g
       id="g20"><path
         class="st1"
         d="M58.14,39.81c-1.82,0.03-3.59-0.66-4.9-1.92c-1.37-1.3-2.05-2.99-2.05-5.08c0-2.09,0.71-3.78,2.13-5.08    c1.44-1.32,3.18-1.98,5.24-1.98c2.05,0,3.79,0.71,5.21,2.13l-1.69,2.08c-1.18-1.03-2.37-1.54-3.57-1.54    c-1.16-0.01-2.28,0.42-3.13,1.21c-0.87,0.79-1.31,1.81-1.31,3.08c-0.02,1.2,0.45,2.35,1.31,3.18c0.84,0.86,2,1.33,3.21,1.31    c1.28,0,2.49-0.58,3.62-1.75l1.69,1.85C62.23,38.98,60.31,39.81,58.14,39.81L58.14,39.81z M74.03,28.65    c-1.42,0-2.49,0.46-3.21,1.39c-0.72,0.92-1.08,2.16-1.08,3.72v5.85h-2.87V25.96h2.87v2.75c0.45-0.84,1.09-1.56,1.87-2.1    c0.74-0.53,1.63-0.82,2.54-0.85l0.03,2.9L74.03,28.65L74.03,28.65z M79.92,39.61h-2.87V25.96h2.87V39.61z M77.22,23.24    c-0.69-0.71-0.68-1.85,0.03-2.54c0.71-0.69,1.85-0.68,2.54,0.03s0.68,1.85-0.03,2.54c-0.34,0.33-0.79,0.51-1.26,0.51    C78.02,23.78,77.56,23.59,77.22,23.24z"
         id="path14" /><path
         class="st0"
         d="M82.57,33.3V30.6h8.52v2.69H82.57z"
         id="path16" /><path
         class="st1"
         d="M97.12,36.02c0.82,0.82,1.86,1.23,3.1,1.23c1.25,0,2.28-0.41,3.08-1.23c0.82-0.84,1.23-1.91,1.23-3.23    c0-1.32-0.41-2.39-1.23-3.21c-0.8-0.84-1.83-1.26-3.08-1.26c-1.25,0-2.28,0.42-3.11,1.26c-0.8,0.82-1.21,1.89-1.21,3.21    C95.92,34.1,96.32,35.18,97.12,36.02L97.12,36.02z M105.36,37.79c-1.37,1.35-3.08,2.03-5.13,2.03c-2.05,0-3.76-0.68-5.13-2.03    c-1.35-1.31-2.09-3.12-2.05-5c0-1.97,0.68-3.63,2.05-4.98c1.37-1.37,3.08-2.05,5.13-2.05c2.05,0,3.76,0.68,5.13,2.05    c1.37,1.35,2.05,3.01,2.05,4.98C107.45,34.66,106.7,36.47,105.36,37.79L105.36,37.79z"
         id="path18" /></g></g></svg>