<?xml version="1.0" encoding="UTF-8" standalone="no"?>
<!-- Generator: Adobe Illustrator 23.0.3, SVG Export Plug-In . SVG Version: 6.00 Build 0)  -->

<svg
   xmlns:dc="http://purl.org/dc/elements/1.1/"
   xmlns:cc="http://creativecommons.org/ns#"
   xmlns:rdf="http://www.w3.org/1999/02/22-rdf-syntax-ns#"
   xmlns:svg="http://www.w3.org/2000/svg"
   xmlns="http://www.w3.org/2000/svg"
   xmlns:sodipodi="http://sodipodi.sourceforge.net/DTD/sodipodi-0.dtd"
   xmlns:inkscape="http://www.inkscape.org/namespaces/inkscape"
   version="1.1"
   id="svg2"
   x="0px"
   y="0px"
   viewBox="0 0 64 64"
   style="enable-background:new 0 0 64 64;"
   xml:space="preserve"
   sodipodi:docname="cri-oio-icon.svg"
   inkscape:version="0.92.2 5c3e80d, 2017-08-06"><metadata
     id="metadata20"><rdf:RDF><cc:Work
         rdf:about=""><dc:format>image/svg+xml</dc:format><dc:type
           rdf:resource="http://purl.org/dc/dcmitype/StillImage" /></cc:Work></rdf:RDF></metadata><defs
     id="defs18" /><sodipodi:namedview
     pagecolor="#ffffff"
     bordercolor="#666666"
     borderopacity="1"
     objecttolerance="10"
     gridtolerance="10"
     guidetolerance="10"
     inkscape:pageopacity="0"
     inkscape:pageshadow="2"
     inkscape:window-width="654"
     inkscape:window-height="480"
     id="namedview16"
     showgrid="false"
     inkscape:zoom="3.6875"
     inkscape:cx="32"
     inkscape:cy="32"
     inkscape:window-x="0"
     inkscape:window-y="0"
     inkscape:window-maximized="0"
     inkscape:current-layer="svg2" /><style
     type="text/css"
     id="style2">
	.st0{fill:#3C6EB4;}
	.st1{fill:#294172;}
</style><g
     id="Clip-11" /><g
     id="g13"><path
       class="st0"
       d="M32.12,63.27c-0.1,0-0.2-0.02-0.3-0.07L6.67,51.17c-0.19-0.09-0.33-0.26-0.37-0.47L0.02,23.53   c-0.05-0.2,0-0.42,0.13-0.58L17.46,1.08c0.13-0.16,0.33-0.26,0.54-0.26l27.87-0.09h0c0.21,0,0.41,0.09,0.54,0.26l17.44,21.76   c0.13,0.16,0.18,0.38,0.13,0.58l-6.12,27.22c-0.05,0.2-0.18,0.38-0.37,0.47L32.42,63.2C32.32,63.25,32.22,63.27,32.12,63.27z    M7.57,50.07l24.55,11.74l24.48-11.89l5.97-26.57L45.54,2.11L18.34,2.19L1.44,23.54L7.57,50.07z"
       id="path5" /><path
       class="st0"
       d="M26.2,49.14l-0.87-1.07l6.21-5.02l0.87,1.07L26.2,49.14z M42.44,47.12l-1.38-0.05l0.27-7.98l1.38,0.05   L42.44,47.12z M22.8,39.85l-7.86-1.41l0.24-1.36l7.86,1.41L22.8,39.85z M50.78,33.66l-6.11-5.14l0.89-1.05l6.11,5.14L50.78,33.66z    M18.47,28.37l-3.76-7.04l1.22-0.65l3.76,7.04L18.47,28.37z M38.3,19.27l-0.29-1.35l7.8-1.7l0.29,1.35L38.3,19.27z M26.86,18.79   l-1.26-0.56l3.26-7.29l1.26,0.56L26.86,18.79z"
       id="path7" /><path
       class="st1"
       d="M21.16,7.02l-1.23,0.63l5,9.84l-6.31-1.35l-0.29,1.35l7.4,1.58l2.21,4.34l0.47-0.59l0.77,0L21.16,7.02z    M43.16,7.08l-4.95,9.86l-2.66-5.88l-1.26,0.57l3.12,6.89l-2.14,4.26h0.28l0.77,0.97L44.39,7.7L43.16,7.08z M48.27,20.68   l-3.56,6.68l-4.76,0.92l0.07,0.09l-0.31,1.36l17.84-3.44l-0.26-1.36l-10.84,2.09l3.04-5.69L48.27,20.68z M6.91,24.93l-0.26,1.36   l10.9,2.1l-5.01,4.22l0.89,1.06l5.86-4.93l4.99,0.96l-0.3-1.27l0.13-0.16L6.91,24.93z M38.5,35.15l-0.04,0.17l-1.2,0.58   l13.79,11.94l0.9-1.05l-8.34-7.22l6.35-1.13l-0.24-1.36l-7.45,1.33L38.5,35.15z M25.57,35.27L12.26,46.8l0.9,1.04l8.39-7.26   l0.22,6.54l1.38-0.04l-0.26-7.65l3.97-3.44l-1.28-0.61L25.57,35.27z M31.28,38.09v18.03h1.38V45.08l5.02,4.06l0.87-1.07l-5.88-4.76   v-5.17l-0.63,0.31L31.28,38.09z"
       id="path9" /><path
       class="st1"
       d="M32.03,39.14c-0.1,0-0.2-0.02-0.3-0.07l-6.44-3.08c-0.19-0.09-0.33-0.26-0.37-0.47l-1.61-6.96   c-0.05-0.2,0-0.42,0.13-0.58l4.44-5.59c0.13-0.16,0.33-0.26,0.54-0.26l7.14-0.02h0c0.21,0,0.41,0.09,0.54,0.26l4.47,5.57   c0.13,0.16,0.18,0.38,0.13,0.58l-1.57,6.97c-0.05,0.2-0.18,0.38-0.37,0.47l-6.42,3.12C32.24,39.11,32.13,39.14,32.03,39.14z    M26.18,34.89l5.84,2.79l5.83-2.83l1.42-6.32l-4.05-5.05l-6.48,0.02l-4.03,5.07L26.18,34.89z"
       id="path11" /></g></svg>