<?xml version="1.0" encoding="UTF-8" standalone="no"?>
<svg
   xmlns:dc="http://purl.org/dc/elements/1.1/"
   xmlns:cc="http://creativecommons.org/ns#"
   xmlns:rdf="http://www.w3.org/1999/02/22-rdf-syntax-ns#"
   xmlns:svg="http://www.w3.org/2000/svg"
   xmlns="http://www.w3.org/2000/svg"
   xmlns:sodipodi="http://sodipodi.sourceforge.net/DTD/sodipodi-0.dtd"
   xmlns:inkscape="http://www.inkscape.org/namespaces/inkscape"
   viewBox="0 0 120 60.000001"
   version="1.1"
   id="svg63"
   sodipodi:docname="papertrail-ar21.svg"
   width="120"
   height="60"
   inkscape:version="0.92.3 (2405546, 2018-03-11)">
  <metadata
     id="metadata67">
    <rdf:RDF>
      <cc:Work
         rdf:about="">
        <dc:format>image/svg+xml</dc:format>
        <dc:type
           rdf:resource="http://purl.org/dc/dcmitype/StillImage" />
        <dc:title>Asset 1</dc:title>
      </cc:Work>
    </rdf:RDF>
  </metadata>
  <sodipodi:namedview
     pagecolor="#ffffff"
     bordercolor="#666666"
     borderopacity="1"
     objecttolerance="10"
     gridtolerance="10"
     guidetolerance="10"
     inkscape:pageopacity="0"
     inkscape:pageshadow="2"
     inkscape:window-width="1920"
     inkscape:window-height="1001"
     id="namedview65"
     showgrid="false"
     inkscape:zoom="1.0893666"
     inkscape:cx="43.603319"
     inkscape:cy="26.74"
     inkscape:window-x="-9"
     inkscape:window-y="-9"
     inkscape:window-maximized="1"
     inkscape:current-layer="svg63" />
  <defs
     id="defs4">
    <style
       id="style2">.cls-1{fill:#b6c9dc;}.cls-2{fill:#fff;}.cls-3{fill:#f99e1e;}</style>
  </defs>
  <title
     id="title6">Asset 1</title>
  <g
     id="g953"
     transform="matrix(0.52733262,0,0,0.52733262,35.079192,12.660984)">
    <path
       inkscape:connector-curvature="0"
       style="fill:#03539a;fill-opacity:1"
       id="path35"
       d="M 14.69,37.28 A 12.34,12.34 0 0 1 14,41.51 8.52,8.52 0 0 1 12.21,44.51 7.29,7.29 0 0 1 9.6,46.29 8.31,8.31 0 0 1 6.5,46.87 12.44,12.44 0 0 1 4,46.63 13.73,13.73 0 0 1 1.77,46 v 7.1 L 0,53.48 V 28.89 h 1.28 l 0.45,2.57 a 12.54,12.54 0 0 1 2.42,-2.08 5.8,5.8 0 0 1 3.25,-0.87 7.49,7.49 0 0 1 2.8,0.53 6.41,6.41 0 0 1 2.32,1.6 7.76,7.76 0 0 1 1.59,2.74 11.7,11.7 0 0 1 0.58,3.9 z m -1.85,0.08 A 8.14,8.14 0 0 0 11.29,32 4.92,4.92 0 0 0 7.36,30.17 5.25,5.25 0 0 0 4.42,31 13.31,13.31 0 0 0 1.78,33.38 V 44.23 A 10.45,10.45 0 0 0 4,45 10.56,10.56 0 0 0 6.49,45.28 6.57,6.57 0 0 0 9,44.85 a 5.15,5.15 0 0 0 2,-1.47 7.34,7.34 0 0 0 1.34,-2.49 11.34,11.34 0 0 0 0.5,-3.54 z"
       class="cls-2" />
    <path
       inkscape:connector-curvature="0"
       style="fill:#03539a;fill-opacity:1"
       id="path37"
       d="m 30.36,46.64 -0.42,-2.38 a 13.78,13.78 0 0 1 -3,2 7.56,7.56 0 0 1 -5.38,0.49 5,5 0 0 1 -1.7,-0.87 4,4 0 0 1 -1.15,-1.47 4.9,4.9 0 0 1 -0.42,-2.1 5.57,5.57 0 0 1 0.6,-2.62 5.31,5.31 0 0 1 2,-2 12.41,12.41 0 0 1 3.57,-1.4 38,38 0 0 1 5.42,-0.85 v -1.56 a 3.52,3.52 0 0 0 -1,-2.8 4.24,4.24 0 0 0 -2.89,-0.91 11.73,11.73 0 0 0 -3.08,0.42 15.38,15.38 0 0 0 -3,1.17 L 19.68,30.1 A 21.78,21.78 0 0 1 22.7,29 12.28,12.28 0 0 1 26,28.55 a 5.87,5.87 0 0 1 4.15,1.34 5.09,5.09 0 0 1 1.44,3.91 V 46.64 Z M 29.87,36.9 a 37.31,37.31 0 0 0 -4.63,0.76 12.39,12.39 0 0 0 -3,1.08 4.06,4.06 0 0 0 -1.62,1.47 3.82,3.82 0 0 0 -0.49,1.94 3,3 0 0 0 1.06,2.51 4.09,4.09 0 0 0 2.57,0.81 7.14,7.14 0 0 0 3.06,-0.77 12.92,12.92 0 0 0 3.06,-2.06 V 36.9 Z"
       class="cls-2" />
    <path
       inkscape:connector-curvature="0"
       style="fill:#03539a;fill-opacity:1"
       id="path39"
       d="m 52,37.28 a 12.34,12.34 0 0 1 -0.66,4.23 8.52,8.52 0 0 1 -1.79,3 7.29,7.29 0 0 1 -2.61,1.78 8.31,8.31 0 0 1 -3.1,0.58 A 12.44,12.44 0 0 1 41.33,46.63 13.73,13.73 0 0 1 39,46 v 7.1 l -1.77,0.38 V 28.89 h 1.28 L 39,31.46 a 12.54,12.54 0 0 1 2.42,-2.08 5.8,5.8 0 0 1 3.25,-0.87 7.49,7.49 0 0 1 2.79,0.53 6.41,6.41 0 0 1 2.32,1.6 7.76,7.76 0 0 1 1.59,2.74 11.72,11.72 0 0 1 0.63,3.9 z m -1.85,0.08 A 8.14,8.14 0 0 0 48.57,32 4.92,4.92 0 0 0 44.64,30.17 5.25,5.25 0 0 0 41.7,31.04 13.31,13.31 0 0 0 39,33.39 v 10.84 a 10.45,10.45 0 0 0 2.23,0.81 10.56,10.56 0 0 0 2.49,0.28 6.57,6.57 0 0 0 2.49,-0.47 5.15,5.15 0 0 0 2,-1.47 7.34,7.34 0 0 0 1.34,-2.49 11.34,11.34 0 0 0 0.56,-3.54 z"
       class="cls-2" />
    <path
       inkscape:connector-curvature="0"
       style="fill:#03539a;fill-opacity:1"
       id="path41"
       d="M 69.94,37.77 H 57.4 a 11.58,11.58 0 0 0 0.4,3.12 7.42,7.42 0 0 0 1.15,2.44 5.18,5.18 0 0 0 1.91,1.59 5.87,5.87 0 0 0 2.63,0.57 7.52,7.52 0 0 0 3.23,-0.76 11.68,11.68 0 0 0 2.93,-2 l 0.26,1.66 a 11,11 0 0 1 -2.91,1.88 8.69,8.69 0 0 1 -3.61,0.76 7.81,7.81 0 0 1 -3.19,-0.64 6.87,6.87 0 0 1 -2.47,-1.83 8.5,8.5 0 0 1 -1.59,-2.91 12.32,12.32 0 0 1 -0.57,-3.87 12.18,12.18 0 0 1 0.57,-3.83 8.74,8.74 0 0 1 1.6,-2.95 6.88,6.88 0 0 1 5.4,-2.49 6.15,6.15 0 0 1 3,0.7 6.24,6.24 0 0 1 2.13,1.91 8.63,8.63 0 0 1 1.26,2.81 13.71,13.71 0 0 1 0.42,3.46 z m -2.27,-3.93 a 6.71,6.71 0 0 0 -1,-2 4.56,4.56 0 0 0 -1.51,-1.36 4.19,4.19 0 0 0 -2.02,-0.48 4.79,4.79 0 0 0 -3.95,1.76 8.54,8.54 0 0 0 -1.72,4.55 h 10.58 a 9.47,9.47 0 0 0 -0.38,-2.47 z"
       class="cls-2" />
    <path
       inkscape:connector-curvature="0"
       style="fill:#03539a;fill-opacity:1"
       id="path43"
       d="M 81,30.67 A 8.4,8.4 0 0 0 79.13,31.75 9.15,9.15 0 0 0 77.58,33.24 9.39,9.39 0 0 0 76.44,35 V 46.64 H 74.66 V 28.89 h 1.17 l 0.57,3.7 a 16,16 0 0 1 1.17,-1.47 9.49,9.49 0 0 1 1.43,-1.3 7.27,7.27 0 0 1 1.74,-0.94 5.72,5.72 0 0 1 2,-0.36 l 0.3,1.66 A 6.68,6.68 0 0 0 81,30.67 Z"
       class="cls-2" />
    <path
       inkscape:connector-curvature="0"
       style="fill:#03539a;fill-opacity:1"
       id="path45"
       d="m 95.92,46.85 a 12.51,12.51 0 0 1 -1.66,0.09 10.5,10.5 0 0 1 -2.46,-0.26 4.73,4.73 0 0 1 -1.89,-0.91 4.19,4.19 0 0 1 -1.23,-1.7 6.86,6.86 0 0 1 -0.43,-2.6 V 32.1 h -2.56 v -3.7 h 2.57 v -5.77 l 4.46,-0.68 v 6.45 h 3.74 L 97,32.1 h -4.29 v 8.61 a 2.37,2.37 0 0 0 0.55,1.68 2.48,2.48 0 0 0 1.87,0.59 5.74,5.74 0 0 0 1.44,-0.15 l 0.57,3.81 q -0.53,0.12 -1.22,0.21 z"
       class="cls-2" />
    <path
       inkscape:connector-curvature="0"
       style="fill:#03539a;fill-opacity:1"
       id="path47"
       d="m 107.33,33.69 a 8.39,8.39 0 0 0 -2.64,2.49 v 10.46 h -4.53 V 28.4 H 104 l 0.57,3.66 a 10.1,10.1 0 0 1 2.3,-2.76 5.84,5.84 0 0 1 3.56,-1.3 l 0.72,4.49 a 8.29,8.29 0 0 0 -3.82,1.2 z"
       class="cls-2" />
    <path
       inkscape:connector-curvature="0"
       style="fill:#03539a;fill-opacity:1"
       id="path49"
       d="m 123.57,46.64 -0.38,-2.38 a 10,10 0 0 1 -2.57,2 7.32,7.32 0 0 1 -3.51,0.79 5.24,5.24 0 0 1 -3.76,-1.34 4.87,4.87 0 0 1 -1.41,-3.71 5.33,5.33 0 0 1 2.72,-5 q 2.72,-1.6 8.27,-2.13 v -0.53 a 2.48,2.48 0 0 0 -0.81,-2.1 3.75,3.75 0 0 0 -2.32,-0.62 11.66,11.66 0 0 0 -3.1,0.42 22.09,22.09 0 0 0 -3,1.06 l -0.57,-3.62 a 23.27,23.27 0 0 1 3.32,-1.06 16.93,16.93 0 0 1 3.95,-0.42 8.35,8.35 0 0 1 5.31,1.42 q 1.76,1.42 1.76,4.7 v 12.5 h -3.89 z m -0.64,-9.1 a 16.71,16.71 0 0 0 -3.23,0.64 7.47,7.47 0 0 0 -2,0.93 2.94,2.94 0 0 0 -1,1.11 2.9,2.9 0 0 0 -0.28,1.25 2,2 0 0 0 0.58,1.53 2.27,2.27 0 0 0 1.64,0.57 5.19,5.19 0 0 0 2.25,-0.51 7.28,7.28 0 0 0 2,-1.45 v -4.07 z"
       class="cls-2" />
    <path
       inkscape:connector-curvature="0"
       style="fill:#03539a;fill-opacity:1"
       id="path51"
       d="m 136.75,22.77 a 2.38,2.38 0 0 1 -0.79,1.85 2.71,2.71 0 0 1 -1.89,0.72 2.77,2.77 0 0 1 -1.93,-0.72 2.39,2.39 0 0 1 -0.79,-1.85 2.49,2.49 0 0 1 0.79,-1.91 2.73,2.73 0 0 1 1.93,-0.74 2.68,2.68 0 0 1 1.89,0.74 2.48,2.48 0 0 1 0.79,1.91 z m -5,23.87 V 28.4 h 4.53 v 18.24 z"
       class="cls-2" />
    <path
       inkscape:connector-curvature="0"
       style="fill:#03539a;fill-opacity:1"
       id="path53"
       d="M 140.9,46.64 V 20.09 l 4.53,-0.72 v 27.27 z"
       class="cls-2" />
    <path
       sodipodi:nodetypes="ccccccccccccccccccc"
       inkscape:connector-curvature="0"
       style="fill:#f99d1e;fill-opacity:1;stroke-width:2.20984268"
       id="path59"
       d="m -29.345467,29.341196 c -2.055156,0.574559 -4.154508,1.016527 -6.209662,1.657381 -4.267886,-3.851227 -9.642887,-6.256444 -15.358405,-6.87261 8.437481,-6.063626 18.55867,-9.339492 28.94894,-9.369734 l -3.557847,3.270568 c 0,0 15.137422,-0.530362 18.9383501,-5.745591 -0.099765,0.540301 -0.2629465,1.066939 -0.4861624,1.568989 -1.0559807,3.06398 -2.9650027,5.762678 -5.5025097,7.778645 -2.390105,1.840904 -5.032009,3.329302 -7.844941,4.419686 -2.778126,1.209116 -5.626625,2.24963 -8.529993,3.115879 h -0.39777 m 23.7337076,-0.508265 c -9.6421336,-0.399236 -19.2803436,0.879377 -28.4848726,3.778832 1.93766,2.017998 3.554859,4.320827 4.795362,6.828414 7.668153,-4.242898 18.209103,-9.679111 23.6674122,-10.430459 M -28.262645,41.429037 c 0.90364,2.318155 1.483649,4.749736 1.723675,7.226184 l 13.259058,-13.678926 z"
       class="cls-3" />
  </g>
</svg>
