<svg xmlns="http://www.w3.org/2000/svg" width="64" height="64" viewBox="0 0 9.268 9.269"><path d="M1.617 5.793v.002l-.56-.036v3.5h.56V5.794zm1.788 1.705l-.001-.035-.001-.015-.002-.024-.005-.04V7.38l-.002-.014-.004-.022-.003-.016-.006-.025-.014-.047-.002-.006-.01-.027-.002-.006-.015-.036-.003-.007-.02-.04-.02-.034-.004-.008-.005-.007-.012-.018-.015-.022-.027-.035-.028-.032-.008-.01-.025-.025-.038-.034-.036-.027-.045-.03-.038-.02-.047-.022-.043-.016-.045-.013-.004-.001H2.87l-.044-.01H2.82l-.05-.006h-.003l-.032-.002H2.72l-.034.001h-.008l-.036.002H2.64l-.042.003h-.022.02l-.04.004H2.55l-.028.003-.033.004-.027.004-.042.008-.036.01H2.38l-.023.007V5.732h-.36v3.536h.36V7.155h.346l.03.002.032.005.035.008.035.012.028.013.03.017.03.022.006.005.017.015.007.007.015.016.024.03.004.006.012.02.015.03.01.026.01.034.007.037a.26.26 0 0 1 .003.044V9.27h.352V7.503z" transform="matrix(2.621022 0 0 2.621022 -1.213739 -15.02456)" fill="#a2c056"/></svg>