<svg xmlns="http://www.w3.org/2000/svg" overflow="visible" viewBox="0 0 32 32" width="64" height="64" image-rendering="optimizeQuality" shape-rendering="geometricPrecision" text-rendering="geometricPrecision"><g fill-rule="evenodd"><path d="M86.497-11.065h72v48h-72z" fill="#fff"/><path d="M86.497-11.065h71.86v1.108h-71.86zm0 47.03h71.86v1.108h-71.86zM155.45-2.25c-.82 0-1.554.295-2.1.86-.6.6-.92 1.376-.92 2.178a3 3 0 0 0 .887 2.128c.583.6 1.334.912 2.145.912.793 0 1.562-.32 2.16-.903.574-.557.886-1.3.886-2.137 0-.8-.32-1.57-.878-2.136a3 3 0 0 0-2.17-.903zm2.643 3.065a2.52 2.52 0 0 1-.769 1.832c-.523.507-1.173.777-1.9.777a2.59 2.59 0 0 1-1.84-.785c-.498-.506-.777-1.157-.777-1.85s.287-1.368.802-1.9c.48-.5 1.13-.75 1.84-.75.726 0 1.376.27 1.883.785.5.5.752 1.148.752 1.882zm-2.558-1.807h-1.3v3.445h.65V.984h.642l.7 1.47h.726l-.77-1.57c.498-.1.785-.44.785-.928 0-.625-.473-.946-1.435-.946zm-.12.422c.608 0 .886.17.886.6 0 .405-.278.55-.87.55h-.55V-.57h.533z"/></g><g transform="matrix(.527365 0 0 .527365 -2.142857 2.886106)"><path d="M20.15 8.815l5.76 19.58 5.76-19.58H47.28v1.946l-5.878 10.127c2.065.663 3.627 1.868 4.686 3.615s1.59 3.8 1.59 6.155c0 2.913-.774 5.362-2.323 7.348s-3.555 2.978-6.017 2.978c-1.854 0-3.47-.59-4.845-1.767s-2.396-2.773-3.058-4.786l3.256-1.35c.477 1.218 1.106 2.178 1.887 2.88a3.99 3.99 0 0 0 2.76 1.052c1.112 0 2.052-.622 2.82-1.866s1.152-2.74 1.152-4.488c0-1.933-.41-3.43-1.23-4.488-.954-1.244-2.45-1.866-4.49-1.866H36v-1.906l5.56-9.612H34.85l-.382.65-8.163 27.548h-.397L19.95 21.048l-5.958 19.937h-.397l-9.53-32.17h4.17l5.76 19.58L17.886 15.2 15.98 8.815h4.17z" fill="#005a9c" image-rendering="optimizeQuality" shape-rendering="geometricPrecision"/><path d="M63.84 8.634l.676 4.107-2.4 4.575s-.918-1.94-2.443-3.015c-1.285-.905-2.122-1.102-3.43-.832-1.68.347-3.587 2.357-4.42 4.835-.995 2.965-1.005 4.4-1.04 5.718-.056 2.113.277 3.362.277 3.362s-1.45-2.686-1.438-6.62c.01-2.808.45-5.354 1.75-7.867 1.143-2.2 2.842-3.535 4.35-3.7 1.56-.16 2.8.6 3.743 1.404 1 .854 2 2.72 2 2.72l2.356-4.696zm.294 23.238s-1.057 1.9-1.715 2.617-1.837 2-3.292 2.65-2.218.762-3.656.624-2.773-.97-3.24-1.317-1.664-1.37-2.34-2.322-1.733-2.86-1.733-2.86l.958 2.72c.212.466.864 1.894 1.8 3.136.862 1.16 2.54 3.154 5.086 3.604s4.297-.693 4.73-.97 1.346-1.04 1.924-1.66c.603-.645 1.174-1.468 1.5-1.962.23-.36.607-1.092.607-1.092l-.6-3.17z"/></g></svg>