<?xml version="1.0" encoding="UTF-8" standalone="no"?>
<svg
   xmlns:dc="http://purl.org/dc/elements/1.1/"
   xmlns:cc="http://creativecommons.org/ns#"
   xmlns:rdf="http://www.w3.org/1999/02/22-rdf-syntax-ns#"
   xmlns:svg="http://www.w3.org/2000/svg"
   xmlns="http://www.w3.org/2000/svg"
   xmlns:sodipodi="http://sodipodi.sourceforge.net/DTD/sodipodi-0.dtd"
   xmlns:inkscape="http://www.inkscape.org/namespaces/inkscape"
   viewBox="0 0 119.99993 60.000124"
   height="60"
   width="120"
   version="1.1"
   id="svg17"
   sodipodi:docname="edgesecurity-ar21.svg"
   inkscape:version="0.92.4 (5da689c313, 2019-01-14)">
  <metadata
     id="metadata21">
    <rdf:RDF>
      <cc:Work
         rdf:about="">
        <dc:format>image/svg+xml</dc:format>
        <dc:type
           rdf:resource="http://purl.org/dc/dcmitype/StillImage" />
        <dc:title></dc:title>
      </cc:Work>
    </rdf:RDF>
  </metadata>
  <sodipodi:namedview
     pagecolor="#ffffff"
     bordercolor="#666666"
     borderopacity="1"
     objecttolerance="10"
     gridtolerance="10"
     guidetolerance="10"
     inkscape:pageopacity="0"
     inkscape:pageshadow="2"
     inkscape:window-width="1920"
     inkscape:window-height="1001"
     id="namedview19"
     showgrid="false"
     inkscape:zoom="5.734807"
     inkscape:cx="67.837189"
     inkscape:cy="15.421317"
     inkscape:window-x="-9"
     inkscape:window-y="-9"
     inkscape:window-maximized="1"
     inkscape:current-layer="svg17" />
  <defs
     id="defs5">
    <clipPath
       id="a">
      <path
         d="M 0,233.873 H 612 V 0 H 0 Z"
         id="path2"
         inkscape:connector-curvature="0" />
    </clipPath>
  </defs>
  <g
     id="g36"
     transform="matrix(0.96668326,0,0,0.96668326,2.8153391,0.99950461)">
    <path
       d="m 30.102314,34.13126 v -7.073303 h 4.755283 v 1.438622 h -3.106765 v 1.338627 h 2.937054 v 1.368719 h -2.937054 v 1.468714 h 3.286757 v 1.458621 z m 11.788214,-3.55665 c 0,-0.39942 -0.0643,-0.730806 -0.194383,-0.993971 -0.130087,-0.262978 -0.302976,-0.472874 -0.519227,-0.629315 -0.216812,-0.156628 -0.463529,-0.267838 -0.739404,-0.334564 A 3.6295439,3.6295439 0 0 0 39.58335,28.516578 h -0.849305 v 4.136062 h 0.809307 c 0.306153,0 0.601092,-0.03458 0.883882,-0.104668 0.282977,-0.0699 0.532685,-0.184664 0.749497,-0.344656 0.216438,-0.159806 0.389327,-0.372879 0.519414,-0.639595 0.130087,-0.266156 0.194383,-0.596233 0.194383,-0.989111 m 1.778606,0 c 0,0.619596 -0.114948,1.153962 -0.344844,1.60366 -0.229895,0.449511 -0.532684,0.819213 -0.908928,1.108358 -0.376056,0.290266 -0.801082,0.503153 -1.27377,0.639782 a 5.1580681,5.1580681 0 0 1 -1.438435,0.20485 h -2.637442 v -7.073303 h 2.557259 c 0.499789,0 0.992476,0.05869 1.478433,0.175132 0.486332,0.11663 0.919395,0.309518 1.298816,0.579411 0.379982,0.269146 0.685948,0.630998 0.919208,1.08406 0.233073,0.452315 0.349516,1.012474 0.349516,1.67805 m 6.938355,3.566369 c -0.462968,0.113266 -0.967429,0.170272 -1.513384,0.170272 -0.566328,0 -1.087798,-0.09009 -1.563663,-0.27008 -0.476426,-0.179805 -0.885565,-0.433063 -1.228726,-0.759216 -0.34316,-0.326339 -0.611185,-0.717722 -0.80426,-1.173588 -0.193074,-0.456239 -0.289518,-0.964252 -0.289518,-1.523478 0,-0.566514 0.09813,-1.0792 0.294378,-1.538804 0.196626,-0.459603 0.467641,-0.850426 0.813979,-1.173961 0.346339,-0.323162 0.752861,-0.570814 1.219007,-0.744263 0.466145,-0.172889 0.969112,-0.259614 1.508525,-0.259614 0.559786,0 1.079013,0.08504 1.558803,0.254754 0.479603,0.169711 0.868743,0.397925 1.168541,0.68464 l -1.078452,1.228725 c -0.167095,-0.193635 -0.386523,-0.351198 -0.659781,-0.47493 -0.272884,-0.122985 -0.582589,-0.184851 -0.928927,-0.184851 -0.299799,0 -0.576234,0.05532 -0.829306,0.164852 a 1.9974734,1.9974734 0 0 0 -0.659033,0.459604 c -0.186907,0.196813 -0.33176,0.429886 -0.434746,0.699218 -0.103546,0.269894 -0.155132,0.564833 -0.155132,0.88463 0,0.326153 0.04673,0.625951 0.14018,0.899209 0.09289,0.273071 0.231203,0.507826 0.414372,0.704078 0.183169,0.196626 0.4097,0.349516 0.67978,0.459604 0.269333,0.109901 0.577169,0.164665 0.923507,0.164665 0.19999,0 0.389701,-0.01514 0.569692,-0.04486 0.179991,-0.02991 0.346338,-0.07813 0.499602,-0.144853 v -1.28891 H 48.903833 V 29.95501 h 2.917616 v 3.746361 c -0.346899,0.179991 -0.751178,0.3269 -1.214147,0.439605 m 3.351801,-0.0097 V 27.057957 H 58.7142 v 1.438622 h -3.106579 v 1.338627 h 2.937054 v 1.368719 h -2.937054 v 1.468714 h 3.286757 v 1.458621 z"
       id="path7"
       inkscape:connector-curvature="0"
       style="fill:#00397f;stroke-width:0.18690684" />
    <path
       d="M 64.578215,28.536577 C 64.44495,28.363689 64.256735,28.218462 64.013943,28.101832 63.77059,27.985389 63.526116,27.927448 63.279586,27.927448 a 1.8243977,1.8243977 0 0 0 -0.439605,0.05458 1.3533924,1.3533924 0 0 0 -0.39942,0.169711 0.94331882,0.94331882 0 0 0 -0.294939,0.299799 c -0.07644,0.123358 -0.114947,0.271575 -0.114947,0.444838 0,0.159992 0.03364,0.296621 0.100369,0.409326 a 0.90649817,0.90649817 0 0 0 0.274192,0.289706 c 0.11663,0.08 0.258679,0.149899 0.425026,0.210083 0.166347,0.06018 0.349516,0.11962 0.549506,0.179804 a 14.396312,14.396312 0 0 1 0.704078,0.249895 2.7307089,2.7307089 0 0 1 0.669501,0.369701 c 0.203167,0.15289 0.369514,0.346339 0.499602,0.579412 0.129526,0.233073 0.19457,0.522591 0.19457,0.86893 0,0.379794 -0.0699,0.710993 -0.20971,0.99397 -0.139806,0.283538 -0.326339,0.518106 -0.559412,0.704639 -0.233447,0.186346 -0.506144,0.326339 -0.8194,0.419419 a 3.4439454,3.4439454 0 0 1 -0.988737,0.139993 c -0.459604,0 -0.909489,-0.08523 -1.348907,-0.254754 -0.439604,-0.170272 -0.799026,-0.421288 -1.078452,-0.754543 l 0.898461,-0.839212 c 0.17345,0.239802 0.40484,0.429512 0.694359,0.569319 0.289893,0.14018 0.574365,0.21027 0.854164,0.21027 0.146909,0 0.296435,-0.01869 0.449885,-0.05533 a 1.1954561,1.1954561 0 0 0 0.414559,-0.185037 1.0358377,1.0358377 0 0 0 0.299799,-0.324471 c 0.07663,-0.129526 0.114948,-0.291014 0.114948,-0.484462 0,-0.186533 -0.04336,-0.340918 -0.130087,-0.464464 -0.08673,-0.123358 -0.203355,-0.229895 -0.349516,-0.319797 -0.146535,-0.09009 -0.319985,-0.168216 -0.519975,-0.234755 A 276.56605,276.56605 0 0 0 62.540183,30.96431 6.2681078,6.2681078 0 0 1 61.901148,30.724696 2.108683,2.108683 0 0 1 61.326597,30.354994 C 61.156511,30.20173 61.0182,30.013515 60.912037,29.790162 60.8055,29.567556 60.752232,29.289251 60.752232,28.956183 c 0,-0.359422 0.07476,-0.6695 0.224849,-0.929114 0.149525,-0.2598 0.345777,-0.474182 0.58913,-0.644454 0.243353,-0.169712 0.519788,-0.295874 0.829306,-0.379421 a 3.6166474,3.6166474 0 0 1 0.944253,-0.125228 c 0.359235,0 0.724077,0.06355 1.093779,0.190271 0.369515,0.126349 0.690995,0.315873 0.964439,0.569132 l -0.819773,0.899021 z m 3.306756,-1.47862 h 4.685754 v 1.0992 h -3.42675 v 1.797856 h 3.246759 v 1.059015 h -3.246572 v 1.998407 h 3.606367 v 1.118825 h -4.865558 z m 12.378092,1.658612 c -0.186533,-0.253072 -0.429325,-0.437923 -0.728937,-0.554553 -0.299798,-0.116443 -0.593055,-0.174945 -0.879209,-0.174945 -0.366338,0 -0.69978,0.06654 -0.999391,0.199991 a 2.3415689,2.3415689 0 0 0 -0.774168,0.549506 c -0.216252,0.233073 -0.383159,0.50633 -0.499602,0.819025 -0.11663,0.313256 -0.174571,0.653053 -0.174571,1.019017 0,0.386523 0.05645,0.739216 0.169711,1.059014 0.113266,0.31961 0.274753,0.594363 0.484463,0.824259 a 2.1755956,2.1755956 0 0 0 0.754542,0.534553 c 0.292697,0.126349 0.622774,0.189711 0.988551,0.189711 0.379981,0 0.715853,-0.07476 1.009297,-0.224849 0.293256,-0.149526 0.529507,-0.348021 0.709498,-0.59399 l 1.008736,0.708938 a 3.2331145,3.2331145 0 0 1 -1.148542,0.914348 c -0.453249,0.216251 -0.982756,0.324657 -1.588708,0.324657 -0.552871,0 -1.060697,-0.09158 -1.523665,-0.274753 -0.462781,-0.183356 -0.860706,-0.439605 -1.1934,-0.769122 -0.333442,-0.330077 -0.593056,-0.723329 -0.779402,-1.179008 -0.186533,-0.45624 -0.279799,-0.960888 -0.279799,-1.513945 0,-0.565767 0.09813,-1.076771 0.294939,-1.533197 0.196252,-0.456427 0.465398,-0.844445 0.808746,-1.163682 0.342974,-0.319798 0.747627,-0.566328 1.21396,-0.739404 0.466145,-0.173262 0.972476,-0.259987 1.518805,-0.259987 0.22597,0 0.462781,0.02168 0.708937,0.06504 a 3.5867423,3.5867423 0 0 1 0.709499,0.19999 3.4549729,3.4549729 0 0 1 0.639595,0.334376 2.0671897,2.0671897 0 0 1 0.509508,0.479603 z m 8.661824,2.817246 c 0,0.426148 -0.07364,0.810802 -0.21999,1.153963 -0.146348,0.343161 -0.345777,0.634175 -0.599597,0.87379 -0.252511,0.239988 -0.55287,0.424839 -0.898648,0.554365 -0.346899,0.130088 -0.722956,0.195131 -1.129478,0.195131 -0.405962,0 -0.782766,-0.06504 -1.128543,-0.195131 -0.346339,-0.129526 -0.648193,-0.314377 -0.904069,-0.554365 -0.25681,-0.239615 -0.456239,-0.530629 -0.59941,-0.87379 -0.143731,-0.343161 -0.21513,-0.728002 -0.21513,-1.153963 v -4.475858 h 1.259005 v 4.425954 c 0,0.206532 0.02654,0.410822 0.07962,0.614176 a 1.5008619,1.5008619 0 0 0 0.265221,0.544647 c 0.122984,0.159992 0.286154,0.289705 0.489322,0.38914 0.203355,0.100369 0.454744,0.150273 0.753982,0.150273 0.299799,0 0.551188,-0.0499 0.754543,-0.150273 0.203168,-0.09962 0.366337,-0.229148 0.489883,-0.38914 a 1.5176835,1.5176835 0 0 0 0.264473,-0.544647 c 0.05308,-0.203354 0.08018,-0.407457 0.08018,-0.614176 v -4.425954 h 1.258631 z M 93.890254,30.1051 c 0.17943,0 0.359422,-0.01346 0.539226,-0.04019 0.179991,-0.02654 0.341479,-0.07626 0.484649,-0.149526 a 0.94387954,0.94387954 0 0 0 0.354376,-0.314938 c 0.09345,-0.136442 0.14018,-0.311013 0.14018,-0.524647 0,-0.192888 -0.04355,-0.351198 -0.129713,-0.474183 a 0.97397154,0.97397154 0 0 0 -0.330078,-0.294939 c -0.133451,-0.07289 -0.284659,-0.122985 -0.454183,-0.149525 a 3.2091904,3.2091904 0 0 0 -0.49493,-0.04019 H 92.860958 V 30.1051 Z m -2.28774,-3.047143 h 2.457451 c 0.332694,0 0.656043,0.03514 0.969112,0.105042 0.312695,0.0699 0.590813,0.185038 0.834165,0.344843 a 1.7943057,1.7943057 0 0 1 0.584271,0.629129 c 0.146348,0.2598 0.21999,0.576233 0.21999,0.949112 0,0.512686 -0.145227,0.930797 -0.434746,1.253772 -0.289705,0.322975 -0.684453,0.541469 -1.183681,0.654174 l 1.887759,3.137231 h -1.518057 l -1.638612,-2.997425 h -0.919208 v 2.997425 h -1.258631 v -7.073303 z m 7.612529,0 h 1.258627 v 7.073303 h -1.258627 z m 5.574497,1.0992 h -2.16737 v -1.0992 h 5.59468 v 1.0992 h -2.16812 v 5.974103 h -1.259 v -5.974103 z m 7.16339,2.906775 -2.65744,-4.005975 h 1.53824 l 1.77823,2.977426 1.79842,-2.977426 h 1.45862 l -2.65744,4.005975 v 3.067328 h -1.25863 v -3.067141 z"
       id="path9"
       inkscape:connector-curvature="0"
       style="fill:#0079b6;stroke-width:0.18690684" />
    <g
       transform="matrix(2.2839942,0,0,2.2839942,-33.802252,-40.015945)"
       id="g29">
      <path
         style="fill:#00397f;stroke-width:0.18690684"
         inkscape:connector-curvature="0"
         id="path11"
         d="m 24.513799,30.654606 -1.204614,2.937801 h -1.523291 l 1.204988,-2.937801 h -1.72758 l -1.204801,2.937801 h -1.678984 l 1.204801,-2.937801 h -1.835612 l -1.879909,4.583516 h 8.577155 l 1.879909,-4.583516 z" />
      <path
         style="fill:#0079b6;stroke-width:0.18690684"
         inkscape:connector-curvature="0"
         id="path13"
         d="m 24.455858,26.096322 -0.0097,-0.0243 h -8.577155 l 1.869442,4.558471 0.0099,0.0243 h 1.835799 L 18.37953,27.717552 h 1.678984 l 1.204427,2.937054 h 1.727767 l -1.204614,-2.937054 h 1.522917 l 1.204614,2.937054 H 26.3255 l -1.869629,-4.558658 z" />
    </g>
  </g>
</svg>
