<?xml version="1.0" encoding="UTF-8" standalone="no"?>
<!-- Generator: Adobe Illustrator 18.0.0, SVG Export Plug-In . SVG Version: 6.00 Build 0)  -->

<svg
   xmlns:dc="http://purl.org/dc/elements/1.1/"
   xmlns:cc="http://creativecommons.org/ns#"
   xmlns:rdf="http://www.w3.org/1999/02/22-rdf-syntax-ns#"
   xmlns:svg="http://www.w3.org/2000/svg"
   xmlns="http://www.w3.org/2000/svg"
   xmlns:sodipodi="http://sodipodi.sourceforge.net/DTD/sodipodi-0.dtd"
   xmlns:inkscape="http://www.inkscape.org/namespaces/inkscape"
   version="1.1"
   x="0px"
   y="0px"
   viewBox="0 0 120 60.000001"
   enable-background="new 0 0 451.3 149.7"
   xml:space="preserve"
   id="svg26"
   sodipodi:docname="joomla-ar21.svg"
   width="120"
   height="60"
   inkscape:version="0.92.3 (2405546, 2018-03-11)"><metadata
   id="metadata32"><rdf:RDF><cc:Work
       rdf:about=""><dc:format>image/svg+xml</dc:format><dc:type
         rdf:resource="http://purl.org/dc/dcmitype/StillImage" /><dc:title></dc:title></cc:Work></rdf:RDF></metadata><defs
   id="defs30">
	
	
	
	
	
	
	
	
	
</defs><sodipodi:namedview
   pagecolor="#ffffff"
   bordercolor="#666666"
   borderopacity="1"
   objecttolerance="10"
   gridtolerance="10"
   guidetolerance="10"
   inkscape:pageopacity="0"
   inkscape:pageshadow="2"
   inkscape:window-width="1920"
   inkscape:window-height="1001"
   id="namedview28"
   showgrid="false"
   inkscape:zoom="3.0046533"
   inkscape:cx="81.980343"
   inkscape:cy="34.428238"
   inkscape:window-x="-9"
   inkscape:window-y="-9"
   inkscape:window-maximized="1"
   inkscape:current-layer="brandmark" />

<g
   id="brandmark"
   transform="matrix(0.40556281,0,0,0.40556281,-14.913745,-0.39693261)">
	
	
	
	<g
   id="g915"
   transform="translate(-2.4460013)"><g
     transform="matrix(2.4657093,0,0,2.4657093,49.903044,-0.08070444)"
     id="g884"><path
       style="fill:#3b3a40;stroke-width:0.27670172"
       inkscape:connector-curvature="0"
       id="path2"
       d="m 42.208079,23.732707 v 8.660763 c 0,0.774765 0.05534,1.49419 -0.636414,2.019923 -0.636414,0.525733 -1.71555,0.691754 -2.877697,0.691754 -1.770891,0 -3.652463,-0.415052 -3.652463,-0.415052 l -0.415053,1.106807 c 0,0 2.628667,0.553403 4.537908,0.581073 1.60487,0.02767 3.016049,-0.332042 3.790814,-1.217487 0.636414,-0.719425 0.830105,-1.54953 0.802435,-2.960709 v -8.467072 h -1.54953" /><path
       style="fill:#3b3a40;stroke-width:0.27670172"
       inkscape:connector-curvature="0"
       id="path4"
       d="m 55.13005,28.519646 c -1.162148,-0.636414 -2.573326,-0.968456 -4.178196,-0.968456 -1.5772,0 -2.988379,0.332042 -4.178196,0.968456 v 0 c -1.49419,0.802435 -2.241284,1.992253 -2.241284,3.486442 0,1.494189 0.747094,2.684007 2.241284,3.486442 1.189817,0.636414 2.573326,0.968456 4.178196,0.968456 1.5772,0 2.988378,-0.332042 4.150526,-0.968456 1.494189,-0.802435 2.241283,-1.992253 2.241283,-3.486442 0,-1.52186 -0.747094,-2.684007 -2.213613,-3.486442 m -0.913116,6.087438 c -0.913116,0.525733 -1.992252,0.774765 -3.26508,0.774765 -1.300498,0 -2.407305,-0.249032 -3.292751,-0.747095 v 0 c -1.079136,-0.608744 -1.60487,-1.466519 -1.60487,-2.628666 0,-1.134477 0.553404,-2.019923 1.60487,-2.628666 0.885446,-0.498064 1.992253,-0.747095 3.292751,-0.747095 1.272828,0 2.379635,0.249031 3.29275,0.747095 1.051467,0.608743 1.60487,1.494189 1.60487,2.628666 -0.02767,1.106807 -0.553403,1.992252 -1.63254,2.600996 z" /><path
       style="fill:#3b3a40;stroke-width:0.27670172"
       inkscape:connector-curvature="0"
       id="path6"
       d="m 68.743774,28.519646 c -1.162147,-0.636414 -2.573326,-0.968456 -4.178196,-0.968456 -1.577199,0 -2.988378,0.332042 -4.178196,0.968456 v 0 c -1.494189,0.802435 -2.241284,1.992253 -2.241284,3.486442 0,1.494189 0.747095,2.684007 2.241284,3.486442 1.189818,0.636414 2.573326,0.968456 4.178196,0.968456 1.5772,0 2.988379,-0.332042 4.150526,-0.968456 1.494189,-0.802435 2.241284,-1.992253 2.241284,-3.486442 0,-1.52186 -0.747095,-2.684007 -2.213614,-3.486442 m -0.913115,6.087438 c -0.913116,0.525733 -1.992253,0.774765 -3.265081,0.774765 -1.300498,0 -2.407305,-0.249032 -3.29275,-0.747095 -1.079137,-0.608744 -1.60487,-1.466519 -1.60487,-2.628666 0,-1.134477 0.553403,-2.019923 1.60487,-2.628666 0.885445,-0.498064 1.992252,-0.747095 3.29275,-0.747095 1.272828,0 2.379635,0.249031 3.292751,0.747095 1.051466,0.608743 1.60487,1.494189 1.60487,2.628666 -0.02767,1.106807 -0.553404,1.992252 -1.63254,2.600996 z" /><path
       style="fill:#3b3a40;stroke-width:0.27670172"
       inkscape:connector-curvature="0"
       id="path8"
       d="m 87.531821,28.298285 c -0.830105,-0.498063 -1.909242,-0.747095 -3.18207,-0.747095 -1.63254,0 -2.933038,0.498063 -3.929164,1.49419 -0.940786,-0.996127 -2.268954,-1.49419 -3.901494,-1.49419 -1.328169,0 -2.407305,0.276702 -3.23741,0.802435 0,-0.193691 0,-0.691754 0,-0.691754 h -1.46652 v 8.605423 h 1.46652 v -5.866076 c 0.11068,-0.415053 0.387382,-0.802435 0.830105,-1.134477 0.608743,-0.415053 1.383508,-0.636414 2.351964,-0.636414 0.857776,0 1.5772,0.166021 2.185944,0.525733 0.719424,0.415053 1.051466,0.968456 1.051466,1.743221 v 5.423354 h 1.438849 v -5.451024 c 0,-0.774765 0.332042,-1.328168 1.051467,-1.743221 0.608744,-0.332042 1.355838,-0.525733 2.213614,-0.525733 0.857775,0 1.60487,0.166021 2.213613,0.525733 0.719425,0.415053 1.051467,0.968456 1.051467,1.743221 v 5.423354 h 1.466519 v -5.229663 c -0.02767,-1.217487 -0.581074,-2.158273 -1.60487,-2.767017" /><polyline
       style="fill:#3b3a40"
       id="polyline10"
       points="327.7,52.3 327.7,97.7 333,97.7 333,52.3 327.7,52.3  "
       transform="matrix(0.27670172,0,0,0.27670172,-0.40398548,9.2612065)" /><polyline
       style="fill:#3b3a40"
       id="polyline12"
       points="392.1,52.3 392.1,87.4 397.4,87.4 397.4,52.3 392.1,52.3  "
       transform="matrix(0.27670172,0,0,0.27670172,-0.40398548,9.2612065)" /><path
       style="fill:#3b3a40;stroke-width:0.27670172"
       inkscape:connector-curvature="0"
       id="path14"
       d="m 104.24461,27.661871 c 0,0 0,1.189817 0,1.466519 -1.24516,-1.051466 -2.90537,-1.60487 -4.952966,-1.60487 -1.63254,0 -3.043719,0.304372 -4.205866,0.940786 -1.438849,0.802435 -2.185943,1.964582 -2.185943,3.514112 0,1.521859 0.747094,2.711677 2.241283,3.486441 1.162148,0.636414 2.573326,0.940786 4.205867,0.940786 0.802435,0 1.604865,-0.08301 2.324295,-0.276701 1.0238,-0.276702 1.88157,-0.664085 2.54565,-1.189818 0,0.304372 0,1.328168 0,1.328168 h 1.46652 v -8.605423 h -1.43884 m -9.795246,4.344217 c 0,-1.134477 0.553404,-2.019923 1.60487,-2.628666 0.885446,-0.498064 2.019923,-0.747095 3.320421,-0.747095 1.604865,0 2.850025,0.387382 3.735475,1.162147 0.77476,0.691754 1.16215,1.5772 1.16215,2.656337 0,0 0,0.940786 0,1.023796 -0.60875,0.691754 -1.52186,1.217488 -2.68401,1.5772 -0.69176,0.221361 -1.43885,0.332042 -2.213615,0.332042 -1.328169,0 -2.434975,-0.249032 -3.320421,-0.719425 -1.079137,-0.636414 -1.60487,-1.494189 -1.60487,-2.656336 z" /><path
       style="fill:#3b3a40;stroke-width:0.27670172"
       inkscape:connector-curvature="0"
       id="path16"
       d="m 108.83785,34.662424 c -1.02379,0 -1.16214,0.525734 -1.16214,0.857776 0,0.332042 0.16602,0.857775 1.16214,0.857775 1.0238,0 1.16215,-0.553403 1.16215,-0.857775 0,-0.304372 -0.16602,-0.857776 -1.16215,-0.857776 z" /></g><g
     transform="translate(15.591974)"
     id="g890"><path
       id="j-green"
       d="M 51,75.2 49.6,73.8 C 45.1,69.3 43.8,63 45.4,57.3 c -4.5,-1 -7.8,-5 -7.8,-9.8 0,-5.5 4.5,-10 10,-10 5,0 9.1,3.6 9.9,8.4 5.4,-1.3 11.3,0.2 15.5,4.4 l 0.6,0.6 -7.4,7.4 -0.6,-0.6 c -2.4,-2.4 -6.3,-2.4 -8.7,0 -2.4,2.4 -2.4,6.3 0,8.7 l 1.4,1.4 7.4,7.4 7.8,7.8 -7.4,7.4 -7.8,-7.8 z"
       inkscape:connector-curvature="0"
       style="fill:#7ac143" /><path
       id="j-orange"
       d="m 59.3,67 7.8,-7.8 7.4,-7.4 1.4,-1.4 c 4.4,-4.4 10.8,-5.8 16.4,-4.2 0.7,-4.9 4.9,-8.6 9.9,-8.6 5.5,0 10,4.5 10,10 0,5.1 -3.8,9.3 -8.7,9.9 1.6,5.6 0.2,11.9 -4.2,16.3 l -0.6,0.6 -7.2,-7.4 0.6,-0.6 c 2.4,-2.4 2.4,-6.3 0,-8.7 -2.4,-2.4 -6.3,-2.4 -8.7,0 l -1.4,1.4 -7.4,7.4 -7.8,7.8 z"
       inkscape:connector-curvature="0"
       style="fill:#f9a541" /><path
       id="j-red"
       d="M 92.6,104.3 C 86.9,106 80.5,104.7 76,100.2 l -0.6,-0.6 7.4,-7.4 0.6,0.6 c 2.4,2.4 6.3,2.4 8.7,0 2.4,-2.4 2.4,-6.3 0,-8.7 l -1.4,-1.4 -7.4,-7.4 -7.8,-7.8 7.4,-7.4 7.8,7.8 7.4,7.4 1.5,1.5 c 4.2,4.2 5.7,10.2 4.4,15.7 4.9,0.7 8.6,4.9 8.6,9.9 0,5.5 -4.5,10 -10,10 -5,-0.1 -9.1,-3.6 -10,-8.1 z"
       inkscape:connector-curvature="0"
       style="fill:#f44321" /><path
       id="j-blue"
       d="m 89.7,83.5 -7.8,7.8 -7.4,7.4 -1.4,1.4 c -4.3,4.3 -10.3,5.7 -15.7,4.4 -1,4.5 -5,7.8 -9.8,7.8 -5.5,0 -10,-4.5 -10,-10 0,-4.7 3.3,-8.7 7.7,-9.7 -1.4,-5.6 0,-11.6 4.3,-15.9 l 0.6,-0.6 7.4,7.4 -0.6,0.6 c -2.4,2.4 -2.4,6.3 0,8.7 2.4,2.4 6.3,2.4 8.7,0 l 1.4,-1.4 7.4,-7.4 7.8,-7.8 z"
       inkscape:connector-curvature="0"
       style="fill:#5091cd" /></g></g>
</g>
</svg>