<?xml version="1.0" encoding="UTF-8" standalone="no"?>
<svg xmlns:dc="http://purl.org/dc/elements/1.1/" xmlns:cc="http://creativecommons.org/ns#" xmlns:rdf="http://www.w3.org/1999/02/22-rdf-syntax-ns#" xmlns:svg="http://www.w3.org/2000/svg" xmlns="http://www.w3.org/2000/svg" xmlns:sodipodi="http://sodipodi.sourceforge.net/DTD/sodipodi-0.dtd" xmlns:inkscape="http://www.inkscape.org/namespaces/inkscape" version="1.1" width="64" height="64" id="logo" xml:space="preserve" inkscape:version="0.91 r13725" sodipodi:docname="Gandi.net-icon.svg" viewBox="0 0 32 32">
  <metadata id="metadata3566">
    <rdf:RDF>
      <cc:Work rdf:about="">
        <dc:format>image/svg+xml</dc:format>
        <dc:type rdf:resource="http://purl.org/dc/dcmitype/StillImage"/>
        <dc:title/>
      </cc:Work>
    </rdf:RDF>
  </metadata>
  <defs id="defs3564"/>
  <sodipodi:namedview pagecolor="#ffffff" bordercolor="#666666" borderopacity="1" objecttolerance="10" gridtolerance="10" guidetolerance="10" inkscape:pageopacity="0" inkscape:pageshadow="2" inkscape:window-width="1855" inkscape:window-height="1056" id="namedview3562" showgrid="false" inkscape:zoom="7.3353846" inkscape:cx="39.398641" inkscape:cy="27.820727" inkscape:window-x="65" inkscape:window-y="24" inkscape:window-maximized="1" inkscape:current-layer="logo"/>
  <path id="gandi" d="m 24.988175,7.4021191 c -0.899312,-0.6366607 -2.144069,-0.4236364 -2.780469,0.475412 -0.781214,1.1046125 -1.646171,1.9233656 -2.63034,2.4888569 -0.09074,0.0521 -0.182882,0.102078 -0.27577,0.150148 -0.08561,0.04439 -0.172503,0.08681 -0.25993,0.12727 -0.918924,0.425918 -1.94243,0.649497 -3.125563,0.68497 C 14.732774,11.293301 13.708762,11.069548 12.789488,10.64363 11.578822,10.082571 10.543095,9.1778401 9.6226792,7.8775343 8.9863692,6.9784859 7.7415302,6.7654616 6.8426442,7.4021223 5.9434144,8.0381248 5.7301965,9.2829265 6.3666742,10.18215 c 1.314866,1.858099 2.911677,3.231242 4.7459498,4.081016 0.360277,0.167042 0.727839,0.313834 1.10457,0.440661 -1.557998,1.125061 -3.2425628,2.701969 -4.0494878,4.863788 -0.837698,2.243496 -0.827156,4.672441 0.02914,6.83983 0.821578,2.079285 2.3423028,3.770374 4.2823428,4.762157 2.161378,1.105077 4.912713,1.107475 7.359492,0.0055 2.567771,-1.155723 4.242552,-3.27186 4.48063,-5.661732 0.249903,-2.515404 -0.956132,-4.755214 -3.07313,-5.705952 -2.192665,-0.98476 -4.666188,-0.281845 -6.301126,1.790158 -0.682579,0.864604 -0.534668,2.119058 0.329849,2.801375 0.864867,0.682666 2.119147,0.534579 2.801463,-0.330025 0.485832,-0.615555 1.045862,-0.842577 1.536235,-0.622335 0.417954,0.187775 0.830929,0.725952 0.737009,1.672409 -0.09359,0.936935 -0.916643,1.864352 -2.148194,2.418897 -1.332688,0.599385 -2.829764,0.630057 -3.9068,0.07962 -1.074992,-0.549727 -1.922989,-1.500135 -2.387628,-2.675983 -0.348979,-0.882617 -0.632559,-2.290202 -0.0019,-3.978626 0.472866,-1.266436 1.66484,-2.461416 3.75143,-3.759661 0.885687,-0.551472 1.835566,-1.065386 2.7539,-1.562363 1.059069,-0.573236 2.06283,-1.116549 2.944327,-1.69845 1.568704,-0.857914 2.94845,-2.120245 4.109228,-3.76025 0.636484,-0.8992229 0.423351,-2.1440262 -0.475721,-2.7800287 z M 14.84872,3.6470906 c 0.255388,-0.2555857 0.595175,-0.396433 0.95622,-0.396433 0.361485,0 0.701271,0.1408426 0.956571,0.3962126 0.255542,0.2558061 0.396345,0.5951967 0.396345,0.956527 0,0.3615507 -0.140795,0.7011617 -0.396168,0.9563097 -0.255477,0.2558045 -0.595263,0.3964315 -0.956748,0.3964315 -0.361045,0 -0.700832,-0.1406222 -0.95622,-0.3959938 -0.255455,-0.2555857 -0.396258,-0.5951967 -0.396258,-0.9567474 0,-0.3613303 0.140795,-0.7007209 0.396258,-0.9563066 z m 0.95622,5.5599257 c 1.229686,0 2.38601,-0.4789216 3.255419,-1.3485718 0.869233,-0.8692108 1.348111,-2.0249424 1.348111,-3.2550473 0,-1.2296625 -0.478878,-2.3856129 -1.348375,-3.2552631 C 18.19095,0.47892171 17.034626,6.2488454e-8 15.80494,6.2488454e-8 14.575605,6.2488454e-8 13.419456,0.47892171 12.549961,1.3485719 c -0.869496,0.8692124 -1.348287,2.0251628 -1.348287,3.2548253 0,1.2296656 0.478791,2.3858365 1.348375,3.2550473 0.869321,0.8696502 2.025556,1.3485718 3.254891,1.3485718 z" style="fill:#231f20;fill-opacity:1;fill-rule:nonzero;stroke:none" inkscape:connector-curvature="0" sodipodi:nodetypes="ccccccccccccccccccccccccccccccccccscscscscscscscscs"/>
  <flowRoot xml:space="preserve" id="flowRoot3587" style="fill:black;stroke:none;stroke-opacity:1;stroke-width:1px;stroke-linejoin:miter;stroke-linecap:butt;fill-opacity:1;font-family:sans-serif;font-style:normal;font-weight:normal;font-size:40px;line-height:125%;letter-spacing:0px;word-spacing:0px">
    <flowRegion id="flowRegion3589">
      <rect id="rect3591" width="63.255035" height="63.255035" x="150.50336" y="-92.328857"/>
    </flowRegion>
    <flowPara id="flowPara3593"/>
  </flowRoot>
</svg>
