<?xml version="1.0" encoding="UTF-8" standalone="no"?>
<svg
   xmlns:dc="http://purl.org/dc/elements/1.1/"
   xmlns:cc="http://creativecommons.org/ns#"
   xmlns:rdf="http://www.w3.org/1999/02/22-rdf-syntax-ns#"
   xmlns:svg="http://www.w3.org/2000/svg"
   xmlns="http://www.w3.org/2000/svg"
   xmlns:sodipodi="http://sodipodi.sourceforge.net/DTD/sodipodi-0.dtd"
   xmlns:inkscape="http://www.inkscape.org/namespaces/inkscape"
   width="120"
   height="60"
   viewBox="0 0 120 60"
   version="1.1"
   id="svg24"
   sodipodi:docname="golinksio-ar21.svg"
   inkscape:version="0.92.4 (5da689c313, 2019-01-14)">
  <metadata
     id="metadata28">
    <rdf:RDF>
      <cc:Work
         rdf:about="">
        <dc:format>image/svg+xml</dc:format>
        <dc:type
           rdf:resource="http://purl.org/dc/dcmitype/StillImage" />
        <dc:title>06A08706-26F4-456C-A7DB-50C82E68A7C1</dc:title>
      </cc:Work>
    </rdf:RDF>
  </metadata>
  <sodipodi:namedview
     pagecolor="#ffffff"
     bordercolor="#666666"
     borderopacity="1"
     objecttolerance="10"
     gridtolerance="10"
     guidetolerance="10"
     inkscape:pageopacity="0"
     inkscape:pageshadow="2"
     inkscape:window-width="1920"
     inkscape:window-height="1001"
     id="namedview26"
     showgrid="false"
     inkscape:zoom="4.52"
     inkscape:cx="87.902093"
     inkscape:cy="16.598092"
     inkscape:window-x="-9"
     inkscape:window-y="-9"
     inkscape:window-maximized="1"
     inkscape:current-layer="svg24" />
  <!-- Generator: sketchtool 42 (36781) - http://www.bohemiancoding.com/sketch -->
  <title
     id="title2">06A08706-26F4-456C-A7DB-50C82E68A7C1</title>
  <desc
     id="desc4">Created with sketchtool.</desc>
  <defs
     id="defs6" />
  <g
     id="g850"
     transform="matrix(0.35610931,0,0,0.35610931,6.5999052,22.81931)">
    <g
       transform="translate(0,-20)"
       style="fill:none;fill-rule:evenodd;stroke:none;stroke-width:1"
       id="Marketing-site">
      <g
         transform="translate(-72,-111)"
         id="Desktop-HD---Chrome-ext-create">
        <g
           transform="translate(72,111)"
           id="ICN-Golinks-horizontal-color">
          <g
             transform="translate(126,21)"
             id="ICN-golinks">
            <path
               style="fill:#00beac"
               inkscape:connector-curvature="0"
               id="Fill-1"
               d="m 18.823342,24.3264 c 0,-1.993767 -0.55607,-3.562878 -1.668768,-4.707335 -1.112699,-1.143345 -2.488652,-1.715851 -4.126745,-1.715851 -1.63865,0 -3.0525302,0.572506 -4.2416394,1.715851 -1.1902247,1.144457 -1.7853371,2.705787 -1.7853371,4.68399 0,1.979315 0.5794956,3.579553 1.7384866,4.800715 1.1595488,1.221717 2.5728709,1.83202 4.2421969,1.83202 1.669327,0 3.060339,-0.603077 4.173038,-1.808675 1.112698,-1.206154 1.668768,-2.806392 1.668768,-4.800715 z m 0.97382,8.78936 c -2.195278,2.442878 -4.922644,3.66404 -8.183213,3.66404 -3.2616839,0 -6.0119172,-1.104993 -8.2529307,-3.31609 C 1.1200048,31.253169 5.5774353e-5,28.300038 5.5774353e-5,24.604872 5.5774353e-5,20.910817 1.1512384,17.879869 3.4541615,15.514807 5.7565267,13.149189 8.3913072,11.96638 11.359061,11.96638 c 2.967195,0 5.424613,1.221717 7.372253,3.663484 V 12.33712 h 6.954504 v 21.753012 c 0,2.226104 -0.387073,4.204308 -1.159548,5.936278 -0.773033,1.730859 -1.808205,3.091533 -3.106074,4.081469 -2.566178,2.041012 -5.595283,3.060963 -9.087315,3.060963 -1.854497,0 -3.7485946,-0.301261 -5.6800604,-0.904338 C 4.7213547,45.661983 3.0291609,44.803224 1.576239,43.69045 l 2.6894393,-5.240933 c 2.2867485,1.731414 4.7051244,2.597399 7.2556857,2.597399 2.550003,0 4.566804,-0.634203 6.050402,-1.901499 1.483597,-1.268407 2.225396,-3.277181 2.225396,-6.029657 z" />
            <path
               style="fill:#00beac"
               inkscape:connector-curvature="0"
               id="Fill-3"
               d="m 35.514152,24.860331 c 0,2.040457 0.579495,3.702948 1.738487,4.985807 1.15899,1.283414 2.642588,1.924844 4.450793,1.924844 1.808204,0 3.29236,-0.64143 4.451351,-1.924844 1.158991,-1.282859 1.738487,-2.94535 1.738487,-4.985807 0,-2.041012 -0.579496,-3.710729 -1.738487,-5.009151 -1.158991,-1.298978 -2.643147,-1.947633 -4.451351,-1.947633 -1.808205,0 -3.291803,0.648655 -4.450793,1.947633 -1.158992,1.298422 -1.738487,2.968139 -1.738487,5.009151 m 19.380472,0 c 0,3.61735 -1.252134,6.663306 -3.755845,9.136755 -2.503711,2.474005 -5.648826,3.710174 -9.435347,3.710174 -3.785963,0 -6.931079,-1.236169 -9.434232,-3.710174 -2.504268,-2.473449 -3.755845,-5.519405 -3.755845,-9.136755 0,-3.617905 1.251577,-6.671086 3.755845,-9.160655 2.503153,-2.488456 5.648269,-3.732962 9.434232,-3.732962 3.786521,0 6.931636,1.244506 9.435347,3.732962 2.503711,2.489569 3.755845,5.54275 3.755845,9.160655" />
            <polygon
               style="fill:#00a3e7"
               points="78.446683,0 58.973626,42.531097 52.436871,42.531097 71.863079,0 "
               id="Fill-5" />
            <polygon
               style="fill:#00beac"
               points="87.579678,37.336242 87.579678,2.9219494 80.625174,2.9219494 80.625174,37.336242 "
               id="Fill-7" />
            <path
               style="fill:#00beac"
               inkscape:connector-curvature="0"
               id="Fill-9"
               d="m 91.844742,37.336242 h 6.954504 V 12.383865 H 91.844742 Z M 92.424238,9.2067335 C 91.636704,8.4185648 91.242379,7.45253 91.242379,6.3080734 c 0,-1.1433449 0.394325,-2.1104913 1.181859,-2.89866 0.788649,-0.7887246 1.754103,-1.1828089 2.898035,-1.1828089 1.143375,0 2.109944,0.3940843 2.897478,1.1828089 0.788649,0.7881687 1.182416,1.7553151 1.182416,2.89866 0,1.1444566 -0.393767,2.1104914 -1.182416,2.8986601 -0.787534,0.7881687 -1.754103,1.1822535 -2.897478,1.1822535 -1.143932,0 -2.109386,-0.3940848 -2.898035,-1.1822535 z" />
            <path
               style="fill:#00beac"
               inkscape:connector-curvature="0"
               id="Fill-10"
               d="m 110.01915,23.422229 v 13.914124 h -6.9545 V 12.383976 h 6.9545 v 2.782492 c 2.10214,-2.133281 4.46641,-3.199921 7.09394,-3.199921 2.62641,0 4.82894,0.927126 6.60703,2.782491 1.77697,1.855365 2.66546,4.32937 2.66546,7.420903 v 15.166412 h -6.95451 V 23.236582 c 0,-3.833569 -1.40718,-5.751187 -4.21933,-5.751187 -1.39045,0 -2.6041,0.503584 -3.63927,1.507971 -1.03629,1.004943 -1.55332,2.480675 -1.55332,4.428863" />
            <polygon
               style="fill:#00beac"
               points="130.37233,37.336298 130.37233,2.922005 137.32683,2.922005 137.32683,20.592993 145.06998,12.337231 153.83269,12.337231 144.32763,22.448357 154.20303,37.336298 145.95066,37.336298 139.59852,27.781558 137.32683,30.147176 137.32683,37.336298 "
               id="Fill-11" />
            <path
               style="fill:#00beac"
               inkscape:connector-curvature="0"
               id="Fill-12"
               d="m 173.90834,29.567389 c 0,2.458441 -0.90466,4.429419 -2.71231,5.913488 -1.80821,1.484626 -4.10276,2.226105 -6.88534,2.226105 -1.85394,0 -3.78597,-0.332388 -5.79552,-0.996606 -2.00899,-0.664774 -3.81719,-1.646928 -5.42405,-2.94535 l 3.06034,-4.359384 c 2.59573,2.009885 5.36158,3.014273 8.29866,3.014273 0.8963,0 1.60686,-0.177311 2.13281,-0.533598 0.5254,-0.355177 0.78809,-0.826522 0.78809,-1.414035 0,-0.587514 -0.36364,-1.128338 -1.08983,-1.623583 -0.72618,-0.494134 -1.77753,-0.958253 -3.15236,-1.391246 -1.3754,-0.432437 -2.42675,-0.803732 -3.15293,-1.11333 -0.72674,-0.308486 -1.55276,-0.757598 -2.48028,-1.345112 -1.88573,-1.175027 -2.82832,-2.914223 -2.82832,-5.217588 0,-2.303364 0.92753,-4.181518 2.78147,-5.635017 1.85505,-1.452943 4.25,-2.17997 7.18708,-2.17997 2.93596,0 5.87192,0.989935 8.809,2.968695 l -2.59685,4.637856 c -2.16349,-1.484626 -4.31917,-2.22666 -6.4676,-2.22666 -2.14842,0 -3.22208,0.588069 -3.22208,1.76254 0,0.649211 0.33966,1.159464 1.02011,1.53076 0.67933,0.370739 1.80821,0.804288 3.38439,1.298422 1.57674,0.495245 2.69613,0.873766 3.36152,1.136675 0.66427,0.262352 1.46017,0.672 2.38714,1.228387 1.73068,1.052188 2.59686,2.806392 2.59686,5.264278" />
          </g>
          <g
             id="ICN-GO">
            <path
               style="fill:#00beac"
               inkscape:connector-curvature="0"
               id="path17"
               d="m 51.743175,12.211133 c 0.974806,-0.969676 0.974806,-2.5467755 -0.03483,-3.5511005 l -5.582306,-5.552925 c -3.461167,-3.44295 -9.092555,-3.44295 -12.553722,-5.25e-4 L 2.5959806,33.920408 c -3.46116671,3.442949 -3.46116671,9.0447 0,12.487649 L 33.572314,77.221883 c 3.461167,3.44295 9.092555,3.442425 12.553722,-5.26e-4 L 77.102369,46.407533 c 3.461167,-3.442425 3.461167,-9.04365 0,-12.486601 l -11.259083,-11.20035 -0.19,-0.1575 c -0.999611,-0.813225 -2.437278,-0.744975 -3.345055,0.1575 l -7.104417,7.067025 c -0.974806,0.969675 -0.974806,2.546775 0,3.51645 0.974805,0.96915 2.560778,0.969676 3.535055,5.26e-4 l 5.337417,-5.309326 9.491556,9.441601 c 1.511555,1.503599 1.511555,3.950099 -5.28e-4,5.454225 L 42.590453,73.704908 c -1.511556,1.503599 -3.971,1.503599 -5.482556,5.24e-4 L 6.1310361,42.891607 c -1.5120833,-1.504125 -1.5120833,-3.950625 0,-5.454749 L 37.107897,6.6235575 c 1.511556,-1.504125 3.971,-1.504125 5.483084,0 l 5.617138,5.5875755 c 0.974806,0.969675 2.56025,0.969675 3.535056,0" />
            <path
               style="fill:#00a3e7"
               inkscape:connector-curvature="0"
               id="Fill-4"
               d="M 67.874386,3.1068975 36.897525,33.920722 c -3.461167,3.44295 -3.461167,9.044175 -5.28e-4,12.487126 L 49.971108,59.413147 53.506164,55.896172 40.432581,42.891397 c -1.511556,-1.5036 -1.511556,-3.9501 0,-5.454224 L 71.409442,6.6233475 c 1.511555,-1.5036 3.971,-1.5036 5.482555,0 L 107.86886,37.437173 c 1.51208,1.504124 1.51208,3.950624 5.3e-4,5.454224 L 76.892525,73.705223 c -1.512083,1.503599 -3.971528,1.503599 -5.483083,0 l -7.385195,-7.346326 -3.535055,3.516975 7.384666,7.3458 c 3.461167,3.44295 9.092556,3.44295 12.553723,0 L 111.40444,46.407848 c 3.46117,-3.442951 3.46064,-9.044176 -5.3e-4,-12.487126 L 80.427053,3.1068975 c -3.460639,-3.44295 -9.0915,-3.44295 -12.552667,0" />
          </g>
        </g>
      </g>
    </g>
  </g>
</svg>
