<?xml version="1.0" encoding="UTF-8" standalone="no"?>
<svg
   xmlns:dc="http://purl.org/dc/elements/1.1/"
   xmlns:cc="http://creativecommons.org/ns#"
   xmlns:rdf="http://www.w3.org/1999/02/22-rdf-syntax-ns#"
   xmlns:svg="http://www.w3.org/2000/svg"
   xmlns="http://www.w3.org/2000/svg"
   xmlns:sodipodi="http://sodipodi.sourceforge.net/DTD/sodipodi-0.dtd"
   xmlns:inkscape="http://www.inkscape.org/namespaces/inkscape"
   width="120"
   height="60"
   viewBox="0 0 120 60"
   version="1.1"
   id="svg22"
   sodipodi:docname="eggjs.svg"
   inkscape:version="0.92.4 (5da689c313, 2019-01-14)">
  <metadata
     id="metadata26">
    <rdf:RDF>
      <cc:Work
         rdf:about="">
        <dc:format>image/svg+xml</dc:format>
        <dc:type
           rdf:resource="http://purl.org/dc/dcmitype/StillImage" />
        <dc:title>Logo</dc:title>
      </cc:Work>
    </rdf:RDF>
  </metadata>
  <sodipodi:namedview
     pagecolor="#ffffff"
     bordercolor="#666666"
     borderopacity="1"
     objecttolerance="10"
     gridtolerance="10"
     guidetolerance="10"
     inkscape:pageopacity="0"
     inkscape:pageshadow="2"
     inkscape:window-width="1920"
     inkscape:window-height="1001"
     id="namedview24"
     showgrid="false"
     inkscape:zoom="3.8089888"
     inkscape:cx="44.5"
     inkscape:cy="14"
     inkscape:window-x="-9"
     inkscape:window-y="-9"
     inkscape:window-maximized="1"
     inkscape:current-layer="svg22" />
  <!-- Generator: Sketch Beta 42 (36780) - http://www.bohemiancoding.com/sketch -->
  <title
     id="title2">Logo</title>
  <desc
     id="desc4">Created with Sketch Beta.</desc>
  <defs
     id="defs6" />
  <g
     id="g69"
     transform="translate(3.441117)">
    <g
       transform="translate(60.277286,20.553125)"
       id="Group-10"
       style="fill:#494949;fill-rule:evenodd;stroke:none;stroke-width:1">
      <path
         inkscape:connector-curvature="0"
         id="egg"
         d="m 29.117738,0.3234375 -0.306649,2.615625 c -1.449622,0 -2.355622,0.2109354 -2.718027,0.6328125 v 0.1828125 c 0.548254,0.7031285 0.822377,1.4906206 0.822377,2.3625 0,1.3406317 -0.490169,2.4843703 -1.470522,3.43125 -0.980354,0.9468795 -2.441569,1.4203125 -4.38369,1.4203125 -0.94783,0 -1.723738,-0.075 -2.327747,-0.225 -0.4925,0.225001 -0.738746,0.520311 -0.738746,0.885937 0,0.571878 0.295031,0.972656 0.885101,1.202344 0.590071,0.229689 1.963009,0.344531 4.118857,0.344531 3.726272,0 5.589379,1.279675 5.589379,3.839063 0,1.800009 -0.775907,3.229682 -2.327746,4.289062 -1.551839,1.059381 -3.438177,1.589063 -5.659072,1.589063 -4.348866,0 -6.523266,-1.378111 -6.523266,-4.134375 0,-0.853129 0.243923,-1.577341 0.731777,-2.172656 0.487853,-0.595316 1.052361,-0.958593 1.69354,-1.089844 v -0.210938 c -0.780566,-0.496877 -1.170842,-1.256244 -1.170842,-2.278124 0,-1.031256 0.534307,-1.893747 1.602939,-2.5875 V 10.223437 C 15.430024,9.4640587 14.677347,8.2781331 14.677347,6.665625 c 0,-1.3781319 0.518046,-2.5312454 1.554154,-3.459375 1.036108,-0.9281296 2.636708,-1.3921875 4.801848,-1.3921875 1.4775,0 2.676207,0.2812472 3.596159,0.84375 h 0.195141 C 25.09413,0.88592864 25.995484,0 27.528738,0 c 0.604009,0 1.13367,0.10781142 1.589,0.3234375 z M 25.145237,18.05625 c 0,-0.693754 -0.262508,-1.195311 -0.787531,-1.504688 -0.525024,-0.309376 -1.4287,-0.464062 -2.711058,-0.464062 -1.040754,0 -2.090785,-0.04687 -3.150124,-0.140625 -0.817735,0.487502 -1.226597,1.214058 -1.226597,2.179687 0,1.80001 1.189416,2.700001 3.568282,2.700001 1.32882,0 2.378851,-0.253123 3.150124,-0.759376 0.771273,-0.506252 1.156904,-1.176558 1.156904,-2.010937 z M 23.500482,6.4828125 c 0,-0.8437542 -0.269477,-1.4859353 -0.808439,-1.9265625 -0.538962,-0.4406272 -1.156901,-0.6609375 -1.853834,-0.6609375 -0.696934,0 -1.307903,0.2132791 -1.832926,0.6398437 -0.525023,0.4265647 -0.787531,1.0523397 -0.787531,1.8773438 0,0.8343792 0.269477,1.4671853 0.808439,1.8984375 0.538962,0.4312522 1.166192,0.646875 1.881711,0.646875 0.678349,0 1.280026,-0.2085917 1.805049,-0.6257812 0.525023,-0.4171896 0.787531,-1.0335897 0.787531,-1.8492188 z" />
      <path
         inkscape:connector-curvature="0"
         id="Combined-Shape"
         d="m 12.698066,7.509375 c 0,0.4781274 -0.02788,1.1015587 -0.08363,1.8703125 L 3.6379749,9.534375 c 0.1300943,1.05938 0.5807712,1.940622 1.3520444,2.64375 0.7712731,0.703129 1.7841347,1.054688 3.0386151,1.054688 1.3938671,0 2.8759906,-0.210936 4.4464136,-0.632813 l -0.278772,2.728125 c -1.282358,0.468752 -2.8713422,0.703125 -4.7670015,0.703125 -2.3974514,0 -4.2350053,-0.679681 -5.5127168,-2.039062 C 0.63884617,12.632806 0,10.996885 0,9.084375 0,7.08749 0.60632309,5.3554761 1.8189875,3.8882813 3.0316518,2.4210864 4.7158827,1.6875 6.8717304,1.6875 c 1.9699989,0 3.4335376,0.5390571 4.3906596,1.6171875 0.957122,1.0781304 1.435676,2.4796789 1.435676,4.2046875 z M 9.4364331,7.3828125 c 0,-2.1562608 -0.9106462,-3.234375 -2.7319659,-3.234375 -1.7376876,0 -2.7691338,1.1156138 -3.0943695,3.346875 z" />
      <path
         inkscape:connector-curvature="0"
         id="path10"
         d="m 44.84048,0.3234375 -0.306649,2.615625 c -1.449622,0 -2.355622,0.2109354 -2.718027,0.6328125 v 0.1828125 c 0.548254,0.7031285 0.822377,1.4906206 0.822377,2.3625 0,1.3406317 -0.490169,2.4843703 -1.470522,3.43125 -0.980353,0.9468795 -2.441569,1.4203125 -4.38369,1.4203125 -0.94783,0 -1.723738,-0.075 -2.327746,-0.225 -0.4925,0.225001 -0.738746,0.520311 -0.738746,0.885937 0,0.571878 0.29503,0.972656 0.885101,1.202344 0.59007,0.229689 1.963009,0.344531 4.118856,0.344531 3.726272,0 5.58938,1.279675 5.58938,3.839063 0,1.800009 -0.775908,3.229682 -2.327747,4.289062 -1.551838,1.059381 -3.438177,1.589063 -5.659072,1.589063 -4.348865,0 -6.523265,-1.378111 -6.523265,-4.134375 0,-0.853129 0.243923,-1.577341 0.731776,-2.172656 0.487854,-0.595316 1.052361,-0.958593 1.69354,-1.089844 v -0.210938 c -0.780565,-0.496877 -1.170842,-1.256244 -1.170842,-2.278124 0,-1.031256 0.534307,-1.893747 1.602939,-2.5875 V 10.223437 C 31.152766,9.4640587 30.400089,8.2781331 30.400089,6.665625 c 0,-1.3781319 0.518047,-2.5312454 1.554154,-3.459375 1.036108,-0.9281296 2.636709,-1.3921875 4.801849,-1.3921875 1.477499,0 2.676207,0.2812472 3.596159,0.84375 h 0.19514 C 40.816872,0.88592864 41.718226,0 43.25148,0 c 0.604009,0 1.133671,0.10781142 1.589,0.3234375 z m -5.617256,6.159375 c 0,-0.8437542 -0.269477,-1.4859353 -0.808439,-1.9265625 -0.538962,-0.4406272 -1.1569,-0.6609375 -1.853834,-0.6609375 -0.696933,0 -1.307903,0.2132791 -1.832926,0.6398437 -0.525023,0.4265647 -0.787531,1.0523397 -0.787531,1.8773438 0,0.8343792 0.269477,1.4671853 0.808439,1.8984375 0.538962,0.4312522 1.166193,0.646875 1.881711,0.646875 0.678349,0 1.280026,-0.2085917 1.805049,-0.6257812 0.525023,-0.4171896 0.787531,-1.0335897 0.787531,-1.8492188 z M 40.867979,18.05625 c 0,-0.693754 -0.262508,-1.195311 -0.787531,-1.504688 -0.525023,-0.309376 -1.4287,-0.464062 -2.711058,-0.464062 -1.040754,0 -2.090785,-0.04687 -3.150124,-0.140625 -0.817735,0.487502 -1.226597,1.214058 -1.226597,2.179687 0,1.80001 1.189416,2.700001 3.568282,2.700001 1.32882,0 2.378851,-0.253123 3.150124,-0.759376 0.771273,-0.506252 1.156904,-1.176558 1.156904,-2.010937 z" />
    </g>
    <g
       transform="matrix(1.3711383,0,0,1.3711383,8,11.086491)"
       id="Page-1"
       style="fill:#494949;fill-rule:evenodd;stroke:none;stroke-width:1">
      <path
         inkscape:connector-curvature="0"
         id="path13"
         d="M 7.2,15.172634 8,13.793303 12,20.689955 H 4 L 7.2,15.172634 4,20.690061 0,13.793277 4,6.896625 8.00004,5.3092006e-5 h 7.999867 L 14.39996,2.7587137 15.99996,5.3092006e-5 20.000093,6.8967047 H 12 4.0000462 L 8,13.793277 Z M 18.123641,23.92578 16,27.587987 12,20.690008 h 8 l -1.876359,3.235772 1.876452,-3.235825 3.999867,6.897979 h -8 z M 24,13.793277 28,6.896625 32,13.793277 Z M 12,6.8966516 8,13.793303 4,6.8966516 Z M 15.99996,5.3092006e-5 h 8 l 4,6.896651607994 H 20.000093 Z M 28,6.8966516 24,13.793303 20,6.8966516 Z M 3.99996,20.690008 h 8 l 4,6.897979 H 8.0000933 Z" />
      <polygon
         points="20.23244,13.793263 18.23244,17.241722 14.23244,17.241722 12.23244,13.793263 14.23244,10.344805 18.23244,10.344805 "
         id="Fill-12" />
    </g>
  </g>
</svg>
