<?xml version="1.0" encoding="UTF-8" standalone="no"?>
<svg
   xmlns:dc="http://purl.org/dc/elements/1.1/"
   xmlns:cc="http://creativecommons.org/ns#"
   xmlns:rdf="http://www.w3.org/1999/02/22-rdf-syntax-ns#"
   xmlns:svg="http://www.w3.org/2000/svg"
   xmlns="http://www.w3.org/2000/svg"
   xmlns:sodipodi="http://sodipodi.sourceforge.net/DTD/sodipodi-0.dtd"
   xmlns:inkscape="http://www.inkscape.org/namespaces/inkscape"
   width="120"
   height="60"
   viewBox="0 0 120 60"
   version="1.1"
   id="svg10"
   sodipodi:docname="reconfigure-ar21.svg"
   inkscape:version="0.92.3 (2405546, 2018-03-11)">
  <metadata
     id="metadata16">
    <rdf:RDF>
      <cc:Work
         rdf:about="">
        <dc:format>image/svg+xml</dc:format>
        <dc:type
           rdf:resource="http://purl.org/dc/dcmitype/StillImage" />
        <dc:title>Reconfigure loto type</dc:title>
      </cc:Work>
    </rdf:RDF>
  </metadata>
  <defs
     id="defs14" />
  <sodipodi:namedview
     pagecolor="#ffffff"
     bordercolor="#666666"
     borderopacity="1"
     objecttolerance="10"
     gridtolerance="10"
     guidetolerance="10"
     inkscape:pageopacity="0"
     inkscape:pageshadow="2"
     inkscape:window-width="1920"
     inkscape:window-height="1001"
     id="namedview12"
     showgrid="false"
     inkscape:zoom="4.7083333"
     inkscape:cx="78.755637"
     inkscape:cy="20.103777"
     inkscape:window-x="-9"
     inkscape:window-y="-9"
     inkscape:window-maximized="1"
     inkscape:current-layer="svg10" />
  <title
     id="title2">Reconfigure loto type</title>
  <g
     id="g8"
     style="fill:none;fill-rule:evenodd"
     transform="matrix(0.33675329,0,0,0.33675329,11.507526,22.591437)">
    <path
       d="m 23.661,33.835 c 0.33,0.518 0.095,0.847 -0.471,0.847 h -6.269 c -0.377,0 -0.66,-0.14 -0.848,-0.47 L 9.238,23.576 H 7.306 v 10.4 c 0,0.424 -0.283,0.706 -0.707,0.706 H 0.707 C 0.283,34.682 0,34.4 0,33.976 V 2.447 C 0,2.024 0.283,1.741 0.707,1.741 h 10.04 c 7.918,0 12.255,4.47 12.255,10.918 0,4.706 -2.31,8.376 -6.694,9.976 z M 7.306,8.188 v 8.941 h 3.3 c 2.592,0 5.42,-0.988 5.42,-4.47 0,-3.483 -2.828,-4.47 -5.42,-4.47 h -3.3 z m 40.3,14.588 c 0,1.93 -0.236,2.918 -1.697,2.918 h -14 c 0.66,2.588 2.735,3.953 5.94,3.953 1.508,0 2.828,-0.33 4.478,-1.365 0.424,-0.282 0.707,-0.235 1.036,0.094 l 2.451,2.353 c 0.283,0.33 0.283,0.66 -0.094,1.036 -2.215,2.211 -5.232,3.53 -8.578,3.53 -7.259,0 -12.255,-5.319 -12.255,-12.095 0,-6.776 4.996,-12.094 11.736,-12.094 6.693,0 10.983,5.318 10.983,11.67 z M 36.67,17.036 c -2.356,0 -4.336,1.364 -4.854,4.188 h 9.52 C 40.913,18.4 38.98,17.035 36.67,17.035 Z m 25.453,11.717 c -3.064,0 -5.232,-2.4 -5.232,-5.553 0,-3.153 2.168,-5.553 5.232,-5.553 1.602,0 2.922,0.612 4.242,1.788 0.377,0.33 0.707,0.377 1.037,0.047 l 3.394,-3.294 c 0.282,-0.282 0.33,-0.659 0.047,-0.988 -2.168,-2.494 -5.326,-4.094 -8.909,-4.094 -6.646,0 -11.83,5.318 -11.83,12.094 0,6.776 5.184,12.094 11.83,12.094 3.677,0 6.882,-1.6 9.05,-4.094 0.283,-0.33 0.236,-0.706 -0.047,-0.988 l -3.394,-3.247 c -0.33,-0.33 -0.66,-0.33 -1.037,0 -1.32,1.13 -2.686,1.788 -4.383,1.788 z m 22.86,6.541 c -6.646,0 -12.02,-5.318 -12.02,-12.094 0,-6.776 5.374,-12.094 12.02,-12.094 6.693,0 12.066,5.318 12.066,12.094 0,6.776 -5.373,12.094 -12.066,12.094 z m 0,-6.541 c 2.922,0 5.232,-2.306 5.232,-5.553 0,-3.247 -2.31,-5.553 -5.232,-5.553 -2.875,0 -5.232,2.306 -5.232,5.553 0,3.247 2.357,5.553 5.232,5.553 z m 29.695,-17.647 c -3.3,0 -5.657,1.741 -7.118,4.141 l -0.188,-2.918 c -0.047,-0.423 -0.283,-0.705 -0.707,-0.705 h -5.468 c -0.424,0 -0.707,0.282 -0.707,0.705 v 21.647 c 0,0.424 0.283,0.706 0.707,0.706 h 5.656 c 0.425,0 0.707,-0.282 0.707,-0.706 V 21.882 c 0,-1.13 1.32,-4.235 4.478,-4.235 1.885,0 3.96,1.082 3.96,4.8 v 11.53 c 0,0.423 0.282,0.705 0.706,0.705 h 5.656 c 0.425,0 0.707,-0.282 0.707,-0.706 v -12.94 c 0,-6.165 -3.723,-9.93 -8.39,-9.93 z m 33.606,-3.53 a 3.779,3.779 0 0 0 3.771,-3.764 C 152.055,1.694 150.358,0 148.285,0 a 3.799,3.799 0 0 0 -3.819,3.812 c 0,2.07 1.697,3.764 3.818,3.764 z m -6.881,-6.729 c -1.084,-0.612 -2.451,-0.8 -4.148,-0.8 -5.043,0 -8.484,2.541 -8.484,8.141 v 3.436 h -2.734 c -0.424,0 -0.707,0.282 -0.707,0.705 v 4.283 c 0,0.423 0.283,0.706 0.707,0.706 h 2.734 v 16.658 c 0,0.424 0.283,0.706 0.707,0.706 h 5.656 c 0.424,0 0.707,-0.282 0.707,-0.706 V 17.318 h 4.902 c 0.424,0 0.707,-0.283 0.707,-0.706 v -4.283 c 0,-0.423 -0.283,-0.705 -0.707,-0.705 h -4.902 V 9.129 c 0,-1.6 0.188,-2.729 2.404,-2.729 0.848,0 1.838,0.188 2.78,0.753 0.425,0.282 0.85,0.094 0.85,-0.47 v -4.99 c 0,-0.376 -0.142,-0.659 -0.472,-0.847 z m 9.71,10.777 h -5.657 c -0.424,0 -0.707,0.282 -0.707,0.705 v 21.647 c 0,0.424 0.283,0.706 0.707,0.706 h 5.656 c 0.425,0 0.707,-0.282 0.707,-0.706 V 12.33 c 0,-0.423 -0.282,-0.705 -0.707,-0.705 z m 27.903,0 c 0.424,0 0.707,0.282 0.707,0.705 v 22.165 c 0,7.388 -7.023,9.506 -12.302,9.506 -4.054,0 -7.824,-1.224 -10.275,-3.012 -0.33,-0.235 -0.378,-0.564 -0.189,-0.94 l 1.838,-3.295 c 0.283,-0.377 0.519,-0.518 0.943,-0.282 2.168,1.27 4.383,1.788 7.117,1.788 2.451,0 6.363,-0.847 6.363,-4.377 v -2.164 c -1.602,1.835 -3.865,3.106 -6.787,3.106 -6.41,0 -11.124,-5.365 -11.124,-11.86 0,-6.493 4.714,-11.858 11.124,-11.858 2.734,0 4.95,1.223 6.599,3.059 l 0.141,-1.836 c 0.047,-0.423 0.283,-0.705 0.707,-0.705 z m -11.69,16.752 c 2.97,0 5.185,-2.635 5.185,-5.458 0,-2.824 -2.215,-5.412 -5.184,-5.412 -3.017,0 -5.232,2.447 -5.232,5.412 0,3.011 2.215,5.458 5.232,5.458 z m 38.18,-16.752 h -5.657 c -0.424,0 -0.707,0.282 -0.707,0.705 v 12.283 c 0,1.74 -1.367,4.094 -4.383,4.094 -1.791,0 -4.054,-1.035 -4.054,-4.753 V 12.329 c 0,-0.423 -0.283,-0.705 -0.707,-0.705 h -5.656 c -0.424,0 -0.707,0.282 -0.707,0.705 v 13.036 c 0,6.164 3.676,9.93 8.814,9.93 2.781,0 5.138,-1.6 6.693,-3.813 l 0.189,2.494 c 0.047,0.424 0.282,0.706 0.707,0.706 h 5.467 c 0.424,0 0.707,-0.282 0.707,-0.706 V 12.33 c 0,-0.423 -0.283,-0.705 -0.707,-0.705 z m 21.021,0.658 c -0.66,-0.611 -1.838,-1.176 -3.205,-1.176 -2.828,0 -4.76,1.647 -5.939,3.906 l -0.188,-2.683 c -0.048,-0.423 -0.283,-0.705 -0.707,-0.705 h -5.42 c -0.425,0 -0.708,0.282 -0.708,0.705 v 21.647 c 0,0.424 0.283,0.706 0.707,0.706 h 5.656 c 0.424,0 0.707,-0.282 0.707,-0.706 V 22.494 c 0,-2.823 1.744,-4.988 4.667,-4.988 0.895,0 1.46,0.235 1.932,0.376 0.566,0.142 0.99,0.047 1.178,-0.517 l 1.556,-4.047 c 0.141,-0.33 0.141,-0.706 -0.236,-1.036 z M 250,22.776 c 0,1.93 -0.236,2.918 -1.697,2.918 h -13.999 c 0.66,2.588 2.734,3.953 5.94,3.953 1.508,0 2.827,-0.33 4.477,-1.365 0.424,-0.282 0.707,-0.235 1.037,0.094 l 2.45,2.353 c 0.284,0.33 0.284,0.66 -0.093,1.036 -2.216,2.211 -5.232,3.53 -8.579,3.53 -7.258,0 -12.255,-5.319 -12.255,-12.095 0,-6.776 4.997,-12.094 11.737,-12.094 6.693,0 10.982,5.318 10.982,11.67 z m -10.935,-5.74 c -2.357,0 -4.336,1.364 -4.855,4.188 h 9.521 c -0.424,-2.824 -2.357,-4.189 -4.666,-4.189 z"
       id="path4"
       inkscape:connector-curvature="0"
       style="fill:#474b57" />
    <path
       d="m 255.254,35 c 1.256,0 2.253,-0.972 2.253,-2.196 0,-1.224 -0.997,-2.196 -2.253,-2.196 -1.256,0 -2.254,0.972 -2.254,2.196 0,1.224 0.998,2.196 2.254,2.196 z m 8.633,-21.204 c 1.625,0 2.955,-1.296 2.955,-2.88 0,-1.62 -1.33,-2.916 -2.955,-2.916 -1.663,0 -2.993,1.296 -2.993,2.916 0,1.584 1.33,2.88 2.993,2.88 z m -2.771,3.636 v 16.56 c 0,0.324 0.221,0.54 0.554,0.54 h 4.433 c 0.333,0 0.555,-0.216 0.555,-0.54 v -16.56 c 0,-0.324 -0.222,-0.54 -0.555,-0.54 h -4.433 c -0.333,0 -0.554,0.216 -0.554,0.54 z M 278.542,35 c -5.21,0 -9.421,-4.068 -9.421,-9.252 0,-5.184 4.212,-9.252 9.42,-9.252 5.247,0 9.459,4.068 9.459,9.252 0,5.184 -4.212,9.252 -9.458,9.252 z m 0,-5.004 c 2.29,0 4.1,-1.764 4.1,-4.248 0,-2.484 -1.81,-4.248 -4.1,-4.248 -2.254,0 -4.101,1.764 -4.101,4.248 0,2.484 1.847,4.248 4.1,4.248 z"
       id="path6"
       inkscape:connector-curvature="0"
       style="fill:#e9ab70" />
  </g>
</svg>
