<?xml version="1.0" encoding="UTF-8" standalone="no"?>
<!-- Generator: Adobe Illustrator 22.1.0, SVG Export Plug-In . SVG Version: 6.00 Build 0)  -->

<svg
   xmlns:dc="http://purl.org/dc/elements/1.1/"
   xmlns:cc="http://creativecommons.org/ns#"
   xmlns:rdf="http://www.w3.org/1999/02/22-rdf-syntax-ns#"
   xmlns:svg="http://www.w3.org/2000/svg"
   xmlns="http://www.w3.org/2000/svg"
   xmlns:sodipodi="http://sodipodi.sourceforge.net/DTD/sodipodi-0.dtd"
   xmlns:inkscape="http://www.inkscape.org/namespaces/inkscape"
   version="1.1"
   x="0px"
   y="0px"
   viewBox="37.72 38.3 120 59.999999"
   xml:space="preserve"
   id="svg48"
   sodipodi:docname="scalyr-ar21.svg"
   width="120"
   height="60"
   inkscape:version="0.92.3 (2405546, 2018-03-11)"><metadata
   id="metadata54"><rdf:RDF><cc:Work
       rdf:about=""><dc:format>image/svg+xml</dc:format><dc:type
         rdf:resource="http://purl.org/dc/dcmitype/StillImage" /><dc:title></dc:title></cc:Work></rdf:RDF></metadata><defs
   id="defs52">
	
	
</defs><sodipodi:namedview
   pagecolor="#ffffff"
   bordercolor="#666666"
   borderopacity="1"
   objecttolerance="10"
   gridtolerance="10"
   guidetolerance="10"
   inkscape:pageopacity="0"
   inkscape:pageshadow="2"
   inkscape:window-width="1920"
   inkscape:window-height="1001"
   id="namedview50"
   showgrid="false"
   inkscape:zoom="5.8348671"
   inkscape:cx="81.538214"
   inkscape:cy="23.559755"
   inkscape:window-x="-9"
   inkscape:window-y="-9"
   inkscape:window-maximized="1"
   inkscape:current-layer="svg48" />
<style
   type="text/css"
   id="style2">
	.st0{fill-rule:evenodd;clip-rule:evenodd;fill:#577A82;}
	.st1{fill:#577A82;}
	.st2{fill:#65A08F;}
	.st3{fill:#40AAA5;}
	.st4{fill:#60C1AF;}
	.st5{fill:#A0D4A8;}
	.st6{fill:#577982;}
</style>

<g
   id="g897"
   transform="translate(-1.0221545)"><g
     transform="matrix(0.22433117,0,0,0.22433117,72.87467,14.616384)"
     id="Layer_1">
	<g
   id="g18">
		<g
   id="g16">
			<path
   style="clip-rule:evenodd;fill:#577a82;fill-rule:evenodd"
   inkscape:connector-curvature="0"
   id="path4"
   d="m 64.7,216.3 c -10.8,0.3 -17.8,5.7 -17.6,14.1 0.4,16 24.1,10.6 24.3,18.6 0.1,2.6 -2.2,4 -5.8,4.1 -4.7,0.1 -11.7,-2.4 -16.5,-6.3 l -4.2,8.9 c 5.5,4.2 13.3,6.9 20.8,6.7 10,-0.3 17.9,-5.2 17.7,-14.2 C 83,231.9 59.3,237 59.1,229.2 59,227 61,225.9 64,225.8 c 3.7,-0.1 9.7,1.7 14.5,4.3 l 4.1,-9.1 c -4.8,-3 -11.4,-4.8 -17.9,-4.7 z"
   class="st0" />
			<path
   style="clip-rule:evenodd;fill:#577a82;fill-rule:evenodd"
   inkscape:connector-curvature="0"
   id="path6"
   d="m 120.2,216.2 c -13.7,0 -24.1,9.8 -24.1,22.8 0,13.2 10.1,23.2 23.7,23.2 6.6,0 13.8,-3.3 18.6,-8.2 l -6.7,-7.1 c -3.2,3.2 -7.5,5.3 -11.3,5.3 -7.1,0 -12.6,-5.7 -12.6,-13.3 0,-7.4 5.4,-13.1 12.6,-13.1 4,0 8.4,2.3 11.3,5.9 l 6.6,-7.9 c -4.5,-4.6 -11.4,-7.6 -18.1,-7.6 z"
   class="st0" />
			<path
   style="clip-rule:evenodd;fill:#577a82;fill-rule:evenodd"
   inkscape:connector-curvature="0"
   id="path8"
   d="m 178.4,216.6 h -11.8 l -19.4,45.1 H 159 l 3.3,-8.3 H 182 l 3.2,8.3 h 12.2 z m -12.9,28.1 6.6,-16.7 6.4,16.7 z"
   class="st0" />
			<polygon
   style="clip-rule:evenodd;fill:#577a82;fill-rule:evenodd"
   id="polygon10"
   points="241.8,252.4 222.7,252.4 222.7,216.9 211.2,216.9 211.2,262 241.8,262 "
   class="st0" />
			<polygon
   style="clip-rule:evenodd;fill:#577a82;fill-rule:evenodd"
   id="polygon12"
   points="281.5,216.6 270.9,236.2 260,216.6 248.5,216.6 265.2,247.4 265.2,261.7 276.6,261.7 276.6,247.1 293,216.6 "
   class="st0" />
			<path
   style="clip-rule:evenodd;fill:#577a82;fill-rule:evenodd"
   inkscape:connector-curvature="0"
   id="path14"
   d="m 335.7,246.8 c 5.3,-2.6 8.2,-7.6 8.2,-14.5 0,-10 -6.8,-15.7 -18.7,-15.7 H 305 v 45.1 h 11.5 V 249 h 8.7 0.3 l 6.7,12.7 h 13 z M 324.3,240 h -8.7 v -14.4 h 8.7 c 5,0 7.9,2.4 7.9,7.1 -0.1,4.7 -3,7.3 -7.9,7.3 z"
   class="st0" />
		</g>
	</g>
</g><g
     transform="matrix(0.23183542,0,0,0.23183542,17.008731,42.160556)"
     id="g41">
		<g
   id="g23">
			<path
   class="st1"
   d="M 234.7,63.9 H 155.3 C 149.6,63.9 145,59.3 145,53.6 v 0 c 0,-5.7 4.6,-10.3 10.3,-10.3 h 79.4 c 5.7,0 10.3,4.6 10.3,10.3 v 0 c 0,5.7 -4.6,10.3 -10.3,10.3 z"
   id="path21"
   inkscape:connector-curvature="0"
   style="fill:#577a82" />
		</g>
		<g
   id="g27">
			<path
   class="st2"
   d="m 219.8,93.5 h -79.4 c -5.7,0 -10.3,-4.6 -10.3,-10.3 v 0 c 0,-5.7 4.6,-10.3 10.3,-10.3 h 79.4 c 5.7,0 10.3,4.6 10.3,10.3 v 0 c 0,5.6 -4.6,10.3 -10.3,10.3 z"
   id="path25"
   inkscape:connector-curvature="0"
   style="fill:#65a08f" />
		</g>
		<g
   id="g31">
			<path
   class="st3"
   d="m 234.7,123 h -79.4 c -5.7,0 -10.3,-4.6 -10.3,-10.3 v 0 c 0,-5.7 4.6,-10.3 10.3,-10.3 h 79.4 c 5.7,0 10.3,4.6 10.3,10.3 v 0 c 0,5.7 -4.6,10.3 -10.3,10.3 z"
   id="path29"
   inkscape:connector-curvature="0"
   style="fill:#40aaa5" />
		</g>
		<g
   id="g35">
			<path
   class="st4"
   d="m 249.7,152.6 h -79.4 c -5.7,0 -10.3,-4.6 -10.3,-10.3 v 0 c 0,-5.7 4.6,-10.3 10.3,-10.3 h 79.4 c 5.7,0 10.3,4.6 10.3,10.3 v 0 c 0,5.7 -4.6,10.3 -10.3,10.3 z"
   id="path33"
   inkscape:connector-curvature="0"
   style="fill:#60c1af" />
		</g>
		<g
   id="g39">
			<path
   class="st5"
   d="m 234.7,182.2 h -79.4 c -5.7,0 -10.3,-4.6 -10.3,-10.3 v 0 c 0,-5.7 4.6,-10.3 10.3,-10.3 h 79.4 c 5.7,0 10.3,4.6 10.3,10.3 v 0 c 0,5.6 -4.6,10.3 -10.3,10.3 z"
   id="path37"
   inkscape:connector-curvature="0"
   style="fill:#a0d4a8" />
		</g>
	</g></g>
</svg>