<?xml version="1.0" encoding="UTF-8" standalone="no"?>
<svg
   width="120"
   height="60"
   viewBox="0 0 31.750007 15.875077"
   version="1.1"
   id="svg137"
   sodipodi:docname="podman-ar21.svg"
   inkscape:version="1.1.2 (0a00cf5339, 2022-02-04)"
   xmlns:inkscape="http://www.inkscape.org/namespaces/inkscape"
   xmlns:sodipodi="http://sodipodi.sourceforge.net/DTD/sodipodi-0.dtd"
   xmlns="http://www.w3.org/2000/svg"
   xmlns:svg="http://www.w3.org/2000/svg">
  <sodipodi:namedview
     id="namedview139"
     pagecolor="#ffffff"
     bordercolor="#666666"
     borderopacity="1.0"
     inkscape:pageshadow="2"
     inkscape:pageopacity="0.0"
     inkscape:pagecheckerboard="0"
     showgrid="false"
     fit-margin-top="0"
     fit-margin-left="0"
     fit-margin-right="0"
     fit-margin-bottom="0"
     inkscape:zoom="7.9083333"
     inkscape:cx="60"
     inkscape:cy="30.031612"
     inkscape:window-width="1850"
     inkscape:window-height="1016"
     inkscape:window-x="0"
     inkscape:window-y="0"
     inkscape:window-maximized="1"
     inkscape:current-layer="svg137" />
  <defs
     id="defs5">
    <clipPath
       id="a"
       clipPathUnits="userSpaceOnUse">
      <path
         d="m 934.657,-1.484 h 26.194 v 12.832 h -26.194 z"
         style="opacity:1;fill:#e7e8e9;fill-opacity:1;stroke:#a7a9ac;stroke-width:0.529167;stroke-linecap:square;stroke-linejoin:miter;stroke-miterlimit:4;stroke-dasharray:none;stroke-dashoffset:6;stroke-opacity:1"
         id="path2" />
    </clipPath>
  </defs>
  <g
     aria-label="podman"
     style="font-style:normal;font-weight:400;font-size:37.592px;line-height:22.5552px;font-family:sans-serif;letter-spacing:0;word-spacing:0;fill:#892ca0;fill-opacity:1;stroke:none;stroke-width:0.264583px;stroke-linecap:butt;stroke-linejoin:miter;stroke-opacity:1"
     id="g11"
     transform="matrix(0.14717762,0,0,0.14717762,-6.0024765,8.2392505)">
    <path
       d="m 1249.878,-209.933 c -3.12,0 -5.526,1.278 -6.992,3.609 v -3.459 h -4.323 v 27.292 h 4.323 v -10.751 c 1.466,2.33 3.872,3.609 7.067,3.609 5.714,0 9.473,-4.098 9.473,-10.075 0,-6.09 -3.872,-10.225 -9.548,-10.225 z m -0.902,16.616 c -3.572,0 -6.09,-2.67 -6.09,-6.541 0,-3.76 2.518,-6.466 6.09,-6.466 3.57,0 6.09,2.744 6.09,6.466 0,3.834 -2.52,6.54 -6.09,6.54 z m 23.52,-16.616 c -6.202,0 -10.45,4.098 -10.45,10.15 0,6.015 4.248,10.15 10.45,10.15 6.165,0 10.413,-4.135 10.413,-10.15 0,-6.052 -4.248,-10.15 -10.413,-10.15 z m 0,3.722 c 3.572,0 6.09,2.631 6.09,6.466 0,3.871 -2.518,6.503 -6.09,6.503 -3.608,0 -6.127,-2.632 -6.127,-6.503 0,-3.835 2.519,-6.466 6.127,-6.466 z m 29.66,-11.466 v 11.353 c -1.466,-2.33 -3.871,-3.646 -7.104,-3.646 -5.64,0 -9.511,4.097 -9.511,10.112 0,6.09 3.834,10.262 9.586,10.262 3.195,0 5.6,-1.278 7.03,-3.608 v 3.42 h 4.323 v -27.893 z m -6.127,24.473 c -3.646,0 -6.127,-2.707 -6.165,-6.504 0.038,-3.834 2.556,-6.578 6.165,-6.578 3.609,0 6.127,2.706 6.127,6.578 0,3.797 -2.518,6.504 -6.127,6.504 z"
       style="font-style:normal;font-variant:normal;font-weight:400;font-stretch:normal;font-family:Montserrat;-inkscape-font-specification:Montserrat;fill:#892ca0;fill-opacity:1;stroke-width:0.264583px"
       transform="translate(-1170.445,231.87)"
       id="path7" />
    <path
       d="m 1339.133,-209.933 c -3.646,0 -6.315,1.466 -7.593,4.812 -0.94,-3.045 -3.383,-4.812 -6.955,-4.812 -3.308,0 -5.864,1.203 -7.255,4.022 v -3.872 h -4.285 v 20 h 4.285 v -9.887 c 0,-3.496 2.105,-6.128 5.564,-6.24 2.932,0 4.699,1.841 4.699,4.886 v 11.24 h 4.323 v -9.886 c 0,-3.496 2.067,-6.128 5.488,-6.24 2.932,0 4.737,1.841 4.737,4.886 v 11.24 h 4.323 v -12.443 c 0,-4.774 -2.744,-7.706 -7.33,-7.706 z m 29.359,20.149 -0.038,-13.12 c -0.038,-4.397 -2.933,-7.029 -8.083,-7.029 -3.797,0 -5.827,0.865 -8.608,2.519 l 1.767,3.007 c 1.992,-1.353 3.984,-2.03 5.902,-2.03 3.157,0 4.774,1.504 4.774,4.022 v 0.602 h -6.053 c -4.811,0.038 -7.556,2.368 -7.556,6.015 0,3.533 2.707,6.202 7.03,6.202 2.895,0 5.188,-0.864 6.616,-2.631 v 2.443 z m -9.962,-3.233 c -2.406,0 -3.872,-1.165 -3.872,-2.97 0,-1.916 1.315,-2.668 4.135,-2.668 h 5.413 v 1.842 c -0.226,2.18 -2.594,3.796 -5.676,3.796 z m 27.44,-16.916 c -3.384,0 -5.94,1.203 -7.369,3.985 v -3.835 h -4.323 v 20 h 4.323 v -10.64 c 0.301,-3.12 2.369,-5.412 5.677,-5.45 3.007,0 4.812,1.842 4.812,4.85 v 11.24 h 4.323 v -12.444 c 0,-4.774 -2.782,-7.706 -7.443,-7.706 z"
       style="fill:#60605b"
       transform="translate(-1170.445,231.87)"
       id="path9" />
  </g>
  <path
     d="m 14.815164,4.9949422 h 2.390593 M 15.21297,5.4919645 h 2.390592"
     style="fill:none;fill-rule:evenodd;stroke:#3c6eb4;stroke-width:0.198872;stroke-linecap:butt;stroke-linejoin:miter;stroke-miterlimit:4;stroke-dasharray:none;stroke-opacity:1"
     id="path13" />
  <g
     style="stroke-width:0.869167"
     transform="matrix(0.21610604,0,0,0.21628455,-193.37197,5.315141)"
     id="g51">
    <path
       d="m 973.104,3.398 c -2.309,-3.742 -1.792,-7.352 -2.883,-12.51 -0.6,-3.185 -2.622,-5.815 -5.254,-6.778 -2.172,-0.757 -6.683,-0.76 -8.595,0 -2.633,0.963 -4.655,3.593 -5.254,6.778 -1.092,5.158 -0.575,8.768 -2.883,12.51"
       style="fill:#cccccc;fill-opacity:1;fill-rule:evenodd;stroke:#000000;stroke-width:0.689901;stroke-linecap:butt;stroke-linejoin:miter;stroke-miterlimit:4;stroke-dasharray:none;stroke-opacity:1"
       id="path15" />
    <ellipse
       cx="966.56403"
       cy="-4.1069999"
       rx="1.1160001"
       ry="1.175"
       style="opacity:1;fill:#e7e8e9;fill-opacity:1;stroke:none;stroke-width:0.689901;stroke-linecap:square;stroke-linejoin:miter;stroke-miterlimit:4;stroke-dasharray:none;stroke-dashoffset:6;stroke-opacity:1"
       id="ellipse17" />
    <ellipse
       cx="955.28699"
       cy="-4.1069999"
       rx="1.1160001"
       ry="1.175"
       style="opacity:1;fill:#e7e8e9;fill-opacity:1;stroke:none;stroke-width:0.689901;stroke-linecap:square;stroke-linejoin:miter;stroke-miterlimit:4;stroke-dasharray:none;stroke-dashoffset:6;stroke-opacity:1"
       id="ellipse19" />
    <g
       style="stroke:#a7a9ac;stroke-width:0.518003;stroke-miterlimit:4;stroke-dasharray:none"
       id="g23">
      <path
         d="m 956.419,-5.981 -4.67,1.251 m 5.199,-0.524 -4.697,2.712 m 5.094,-1.852 -4.763,4.764 m 4.961,-3.64 -2.433,4.217"
         style="fill:none;fill-rule:evenodd;stroke:#a7a9ac;stroke-width:0.518003;stroke-linecap:butt;stroke-linejoin:miter;stroke-miterlimit:4;stroke-dasharray:none;stroke-opacity:1"
         transform="matrix(0.8879,0,0,0.8879,108.022,0.558)"
         id="path21" />
    </g>
    <g
       style="stroke:#a7a9ac;stroke-width:0.518003;stroke-miterlimit:4;stroke-dasharray:none"
       id="g27">
      <path
         d="m 956.419,-5.981 -4.67,1.251 m 5.199,-0.524 -4.697,2.712 m 5.094,-1.852 -4.763,4.764 m 4.961,-3.64 -2.433,4.217"
         style="fill:none;fill-rule:evenodd;stroke:#a7a9ac;stroke-width:0.518003;stroke-linecap:butt;stroke-linejoin:miter;stroke-miterlimit:4;stroke-dasharray:none;stroke-opacity:1"
         transform="matrix(-0.8879,0,0,0.8879,1814.158,0.558)"
         id="path25" />
    </g>
    <ellipse
       cx="961.04303"
       cy="-4.9289999"
       rx="3.5829999"
       ry="3.4059999"
       style="opacity:1;fill:#ffffff;fill-opacity:1;stroke:#60605b;stroke-width:0.689901;stroke-linecap:square;stroke-linejoin:miter;stroke-miterlimit:4;stroke-dasharray:none;stroke-dashoffset:6;stroke-opacity:1"
       id="ellipse29" />
    <ellipse
       cx="-966.52698"
       cy="-7.8410001"
       rx="1.725"
       ry="1.7690001"
       style="fill:#000000;fill-opacity:1;stroke:#892ca0;stroke-width:0.689901;stroke-linecap:square;stroke-linejoin:miter;stroke-miterlimit:4;stroke-dasharray:none;stroke-dashoffset:0;stroke-opacity:1"
       transform="scale(-1,1)"
       id="ellipse31" />
    <path
       d="m 968.074,-11.544 a 1.973,1.973 0 0 0 -1.458,-0.758 1.97,1.97 0 0 0 -1.452,0.562"
       style="fill:none;fill-opacity:1;stroke:#000000;stroke-width:0.689901;stroke-linecap:square;stroke-linejoin:miter;stroke-miterlimit:4;stroke-dasharray:none;stroke-dashoffset:0;stroke-opacity:1"
       id="path33" />
    <g
       style="stroke-width:0.777004;stroke-miterlimit:4;stroke-dasharray:none"
       id="g39">
      <g
         style="stroke-width:0.777004"
         id="g37">
        <path
           d="m 962.306,-5.783 0.1,1.984 c 0,0 1.587,1.423 2.513,-0.033 0,0 -0.1,-0.827 -0.166,-1.091 m -2.465,-0.86 -0.1,1.984 c 0,0 -1.587,1.423 -2.513,-0.033 0,0 0.099,-0.827 0.165,-1.091"
           style="fill:none;fill-rule:evenodd;stroke:#000000;stroke-width:0.777004;stroke-linecap:butt;stroke-linejoin:miter;stroke-miterlimit:4;stroke-dasharray:none;stroke-opacity:1"
           transform="matrix(0.8879,0,0,0.8879,106.612,-0.382)"
           id="path35" />
      </g>
    </g>
    <path
       d="m 962.572,-5.544 c -0.12,-0.31 -0.12,-0.933 -0.48,-0.933 -0.361,0 -0.695,-0.233 -1.05,-0.233 -0.354,0 -0.687,0.233 -1.047,0.233 -0.36,0 -0.36,0.622 -0.481,0.933 -0.12,0.311 1.529,1.322 1.529,1.322 0,0 1.649,-1.01 1.529,-1.322 z"
       style="fill:#808080;fill-opacity:1;stroke:#000000;stroke-width:0.689901;stroke-linecap:square;stroke-linejoin:miter;stroke-miterlimit:4;stroke-dasharray:none;stroke-dashoffset:0;stroke-opacity:1"
       id="path41" />
    <ellipse
       cx="955.35999"
       cy="-7.8410001"
       rx="1.725"
       ry="1.7690001"
       style="fill:#000000;fill-opacity:1;stroke:#892ca0;stroke-width:0.689901;stroke-linecap:square;stroke-linejoin:miter;stroke-miterlimit:4;stroke-dasharray:none;stroke-dashoffset:0;stroke-opacity:1"
       id="ellipse43" />
    <ellipse
       cx="954.78497"
       cy="-8.3380003"
       rx="0.84799999"
       ry="0.88099998"
       style="fill:#ffffff;fill-opacity:1;stroke:none;stroke-width:0.689901;stroke-linecap:square;stroke-linejoin:miter;stroke-miterlimit:4;stroke-dasharray:none;stroke-dashoffset:0;stroke-opacity:1"
       id="ellipse45" />
    <path
       d="m 953.814,-11.544 a 1.973,1.973 0 0 1 1.458,-0.758 1.97,1.97 0 0 1 1.452,0.562"
       style="fill:none;fill-opacity:1;stroke:#000000;stroke-width:0.689901;stroke-linecap:square;stroke-linejoin:miter;stroke-miterlimit:4;stroke-dasharray:none;stroke-dashoffset:0;stroke-opacity:1"
       id="path47" />
    <ellipse
       cx="965.94702"
       cy="-8.3380003"
       rx="0.84799999"
       ry="0.88099998"
       style="fill:#ffffff;fill-opacity:1;stroke:none;stroke-width:0.689901;stroke-linecap:square;stroke-linejoin:miter;stroke-miterlimit:4;stroke-dasharray:none;stroke-dashoffset:0;stroke-opacity:1"
       id="ellipse49" />
  </g>
  <path
     d="M 11.851634,6.0393469 H 18.03895"
     style="fill:none;fill-rule:evenodd;stroke:#3c6eb4;stroke-width:0.198872;stroke-linecap:butt;stroke-linejoin:miter;stroke-miterlimit:4;stroke-dasharray:none;stroke-opacity:1"
     id="path53" />
  <g
     clip-path="url(#a)"
     style="stroke-width:1.20412"
     transform="matrix(0.1560556,0,0,0.1560556,-135.40639,4.9650647)"
     id="g91">
    <path
       d="m 958.316,13.737 c -0.262,-1.782 -0.39,-3.72 -0.873,-6.001 -0.53,-2.818 -2.322,-5.143 -4.654,-5.995 -1.924,-0.67 -5.92,-0.672 -7.613,0 -2.332,0.852 -4.124,3.177 -4.654,5.995 -0.484,2.28 -0.611,4.22 -0.873,6.001"
       style="fill:#cccccc;fill-opacity:1;fill-rule:evenodd;stroke:#000000;stroke-width:0.955767;stroke-linecap:butt;stroke-linejoin:miter;stroke-miterlimit:4;stroke-dasharray:none;stroke-opacity:1"
       id="path55" />
    <ellipse
       cx="954.20398"
       cy="12.162"
       rx="0.98799998"
       ry="1.039"
       style="opacity:1;fill:#e7e8e9;fill-opacity:1;stroke:none;stroke-width:0.955767;stroke-linecap:square;stroke-linejoin:miter;stroke-miterlimit:4;stroke-dasharray:none;stroke-dashoffset:6;stroke-opacity:1"
       id="ellipse57" />
    <ellipse
       cx="944.21503"
       cy="12.162"
       rx="0.98799998"
       ry="1.039"
       style="opacity:1;fill:#e7e8e9;fill-opacity:1;stroke:none;stroke-width:0.955767;stroke-linecap:square;stroke-linejoin:miter;stroke-miterlimit:4;stroke-dasharray:none;stroke-dashoffset:6;stroke-opacity:1"
       id="ellipse59" />
    <g
       style="stroke:#a7a9ac;stroke-width:0.810747;stroke-miterlimit:4;stroke-dasharray:none"
       id="g63">
      <path
         d="m 956.419,-5.981 -4.67,1.251 m 5.199,-0.524 -4.697,2.712 m 5.094,-1.852 -4.763,4.764 m 4.961,-3.64 -2.433,4.217"
         style="fill:none;fill-rule:evenodd;stroke:#a7a9ac;stroke-width:0.810747;stroke-linecap:butt;stroke-linejoin:miter;stroke-miterlimit:4;stroke-dasharray:none;stroke-opacity:1"
         transform="matrix(0.78652,0,0,0.7853,193.685,16.288)"
         id="path61" />
    </g>
    <g
       style="stroke:#a7a9ac;stroke-width:0.810747;stroke-miterlimit:4;stroke-dasharray:none"
       id="g67">
      <path
         d="m 956.419,-5.981 -4.67,1.251 m 5.199,-0.524 -4.697,2.712 m 5.094,-1.852 -4.763,4.764 m 4.961,-3.64 -2.433,4.217"
         style="fill:none;fill-rule:evenodd;stroke:#a7a9ac;stroke-width:0.810747;stroke-linecap:butt;stroke-linejoin:miter;stroke-miterlimit:4;stroke-dasharray:none;stroke-opacity:1"
         transform="matrix(-0.78652,0,0,0.7853,1705.025,16.288)"
         id="path65" />
    </g>
    <ellipse
       cx="949.31299"
       cy="11.435"
       rx="3.174"
       ry="3.013"
       style="opacity:1;fill:#ffffff;fill-opacity:1;stroke:#60605b;stroke-width:0.955767;stroke-linecap:square;stroke-linejoin:miter;stroke-miterlimit:4;stroke-dasharray:none;stroke-dashoffset:6;stroke-opacity:1"
       id="ellipse69" />
    <ellipse
       cx="-954.172"
       cy="8.8599997"
       rx="1.528"
       ry="1.5650001"
       style="fill:#000000;fill-opacity:1;stroke:#892ca0;stroke-width:0.955767;stroke-linecap:square;stroke-linejoin:miter;stroke-miterlimit:4;stroke-dasharray:none;stroke-dashoffset:0;stroke-opacity:1"
       transform="scale(-1,1)"
       id="ellipse71" />
    <path
       d="m 955.542,5.584 a 1.75,1.75 0 0 0 -1.292,-0.67 c -0.472,-0.02 -0.95,0.165 -1.286,0.497"
       style="fill:none;fill-opacity:1;stroke:#000000;stroke-width:0.955767;stroke-linecap:square;stroke-linejoin:miter;stroke-miterlimit:4;stroke-dasharray:none;stroke-dashoffset:0;stroke-opacity:1"
       id="path73" />
    <g
       style="stroke-width:1.21612;stroke-miterlimit:4;stroke-dasharray:none"
       id="g79">
      <g
         style="stroke-width:1.21612"
         id="g77">
        <path
           d="m 962.306,-5.783 0.1,1.984 c 0,0 1.587,1.423 2.513,-0.033 0,0 -0.1,-0.827 -0.166,-1.091 m -2.465,-0.86 -0.1,1.984 c 0,0 -1.587,1.423 -2.513,-0.033 0,0 0.099,-0.827 0.165,-1.091"
           style="fill:none;fill-rule:evenodd;stroke:#000000;stroke-width:1.21612;stroke-linecap:butt;stroke-linejoin:miter;stroke-miterlimit:4;stroke-dasharray:none;stroke-opacity:1"
           transform="matrix(0.78652,0,0,0.7853,192.436,15.457)"
           id="path75" />
      </g>
    </g>
    <path
       d="m 950.668,10.892 c -0.107,-0.275 -0.107,-0.826 -0.426,-0.826 -0.32,0 -0.615,-0.206 -0.929,-0.206 -0.314,0 -0.609,0.206 -0.928,0.206 -0.32,0 -0.32,0.55 -0.426,0.826 -0.106,0.275 1.354,1.169 1.354,1.169 0,0 1.461,-0.894 1.355,-1.17 z"
       style="fill:#808080;fill-opacity:1;stroke:#000000;stroke-width:0.955767;stroke-linecap:square;stroke-linejoin:miter;stroke-miterlimit:4;stroke-dasharray:none;stroke-dashoffset:0;stroke-opacity:1"
       id="path81" />
    <ellipse
       cx="944.28003"
       cy="8.8599997"
       rx="1.528"
       ry="1.5650001"
       style="fill:#000000;fill-opacity:1;stroke:#892ca0;stroke-width:0.955767;stroke-linecap:square;stroke-linejoin:miter;stroke-miterlimit:4;stroke-dasharray:none;stroke-dashoffset:0;stroke-opacity:1"
       id="ellipse83" />
    <ellipse
       cx="943.77002"
       cy="8.4200001"
       rx="0.75199997"
       ry="0.77999997"
       style="fill:#ffffff;fill-opacity:1;stroke:none;stroke-width:0.955767;stroke-linecap:square;stroke-linejoin:miter;stroke-miterlimit:4;stroke-dasharray:none;stroke-dashoffset:0;stroke-opacity:1"
       id="ellipse85" />
    <path
       d="m 942.91,5.584 a 1.75,1.75 0 0 1 1.291,-0.67 c 0.473,-0.02 0.95,0.165 1.287,0.497"
       style="fill:none;fill-opacity:1;stroke:#000000;stroke-width:0.955767;stroke-linecap:square;stroke-linejoin:miter;stroke-miterlimit:4;stroke-dasharray:none;stroke-dashoffset:0;stroke-opacity:1"
       id="path87" />
    <ellipse
       cx="953.76202"
       cy="8.5290003"
       rx="0.75199997"
       ry="0.77999997"
       style="fill:#ffffff;fill-opacity:1;stroke:none;stroke-width:0.955767;stroke-linecap:square;stroke-linejoin:miter;stroke-miterlimit:4;stroke-dasharray:none;stroke-dashoffset:0;stroke-opacity:1"
       id="ellipse89" />
  </g>
  <path
     d="M 14.437276,9.6081352 10.8108,7.8731608 9.9050727,3.9529809 12.401834,0.79984869 l 4.019398,-0.012026 2.514989,3.13809861 -0.88299,3.9254428 z"
     style="opacity:1;fill:none;fill-opacity:1;stroke:#892ca0;stroke-width:0.198872;stroke-linecap:round;stroke-linejoin:round;stroke-miterlimit:4;stroke-dasharray:none;stroke-opacity:1"
     id="path93" />
  <path
     d="m 10.956806,6.8347697 h 3.726257 m -1.956144,0.7454398 h 5.168092"
     style="fill:none;fill-rule:evenodd;stroke:#3c6eb4;stroke-width:0.198872;stroke-linecap:butt;stroke-linejoin:miter;stroke-miterlimit:4;stroke-dasharray:none;stroke-opacity:1"
     id="path95" />
  <g
     transform="matrix(0.18791013,0,0,0.18791013,-166.18042,5.3987612)"
     id="g133">
    <path
       d="m 977.469,11.11 c -0.233,-1.582 -0.346,-3.303 -0.775,-5.328 -0.471,-2.502 -2.062,-4.567 -4.133,-5.323 -1.708,-0.595 -5.256,-0.597 -6.76,0 -2.07,0.756 -3.66,2.821 -4.132,5.323 -0.43,2.025 -0.542,3.746 -0.775,5.329"
       style="fill:#cccccc;fill-opacity:1;fill-rule:evenodd;stroke:#000000;stroke-width:0.79375;stroke-linecap:butt;stroke-linejoin:miter;stroke-miterlimit:4;stroke-dasharray:none;stroke-opacity:1"
       id="path97" />
    <ellipse
       cx="973.81702"
       cy="9.7119999"
       rx="0.87800002"
       ry="0.92199999"
       style="opacity:1;fill:#e7e8e9;fill-opacity:1;stroke:none;stroke-width:0.79375;stroke-linecap:square;stroke-linejoin:miter;stroke-miterlimit:4;stroke-dasharray:none;stroke-dashoffset:6;stroke-opacity:1"
       id="ellipse99" />
    <ellipse
       cx="964.948"
       cy="9.7119999"
       rx="0.87800002"
       ry="0.92199999"
       style="opacity:1;fill:#e7e8e9;fill-opacity:1;stroke:none;stroke-width:0.79375;stroke-linecap:square;stroke-linejoin:miter;stroke-miterlimit:4;stroke-dasharray:none;stroke-dashoffset:6;stroke-opacity:1"
       id="ellipse101" />
    <g
       style="stroke:#a7a9ac;stroke-width:0.758321;stroke-miterlimit:4;stroke-dasharray:none"
       id="g105">
      <path
         d="m 955.746,-3.96 -4.67,1.252 m 5.199,-0.524 -4.695,2.711"
         style="fill:none;fill-rule:evenodd;stroke:#a7a9ac;stroke-width:0.758321;stroke-linecap:butt;stroke-linejoin:miter;stroke-miterlimit:4;stroke-dasharray:none;stroke-opacity:1"
         transform="matrix(0.69835,0,0,0.69727,299.023,11.966)"
         id="path103" />
    </g>
    <g
       style="stroke:#a7a9ac;stroke-width:0.758321;stroke-miterlimit:4;stroke-dasharray:none"
       id="g109">
      <path
         d="m 956.419,-5.981 -4.67,1.251 m 5.199,-0.524 -4.697,2.712"
         style="fill:none;fill-rule:evenodd;stroke:#a7a9ac;stroke-width:0.758321;stroke-linecap:butt;stroke-linejoin:miter;stroke-miterlimit:4;stroke-dasharray:none;stroke-opacity:1"
         transform="matrix(-0.69835,0,0,0.69727,1640.471,13.376)"
         id="path107" />
    </g>
    <ellipse
       cx="969.47498"
       cy="9.0670004"
       rx="2.8180001"
       ry="2.675"
       style="opacity:1;fill:#ffffff;fill-opacity:1;stroke:#60605b;stroke-width:0.79375;stroke-linecap:square;stroke-linejoin:miter;stroke-miterlimit:4;stroke-dasharray:none;stroke-dashoffset:6;stroke-opacity:1"
       id="ellipse111" />
    <ellipse
       cx="-973.789"
       cy="6.7800002"
       rx="1.357"
       ry="1.3890001"
       style="fill:#000000;fill-opacity:1;stroke:#892ca0;stroke-width:0.79375;stroke-linecap:square;stroke-linejoin:miter;stroke-miterlimit:4;stroke-dasharray:none;stroke-dashoffset:0;stroke-opacity:1"
       transform="scale(-1,1)"
       id="ellipse113" />
    <path
       d="m 975.006,3.872 a 1.553,1.553 0 0 0 -1.147,-0.595 1.551,1.551 0 0 0 -1.142,0.441"
       style="fill:none;fill-opacity:1;stroke:#000000;stroke-width:0.79375;stroke-linecap:square;stroke-linejoin:miter;stroke-miterlimit:4;stroke-dasharray:none;stroke-dashoffset:0;stroke-opacity:1"
       id="path115" />
    <g
       style="stroke-width:1.13748;stroke-miterlimit:4;stroke-dasharray:none"
       id="g121">
      <g
         style="stroke-width:1.13748"
         id="g119">
        <path
           d="m 962.306,-5.783 0.1,1.984 c 0,0 1.587,1.423 2.513,-0.033 0,0 -0.1,-0.827 -0.166,-1.091 m -2.465,-0.86 -0.1,1.984 c 0,0 -1.587,1.423 -2.513,-0.033 0,0 0.099,-0.827 0.165,-1.091"
           style="fill:none;fill-rule:evenodd;stroke:#000000;stroke-width:1.13748;stroke-linecap:butt;stroke-linejoin:miter;stroke-miterlimit:4;stroke-dasharray:none;stroke-opacity:1"
           transform="matrix(0.69835,0,0,0.69727,297.445,12.638)"
           id="path117" />
      </g>
    </g>
    <path
       d="M 970.678,8.584 C 970.583,8.34 970.583,7.851 970.3,7.851 c -0.284,0 -0.546,-0.183 -0.825,-0.183 -0.279,0 -0.54,0.183 -0.824,0.183 -0.284,0 -0.284,0.489 -0.378,0.733 -0.095,0.244 1.202,1.038 1.202,1.038 0,0 1.297,-0.794 1.203,-1.038 z"
       style="fill:#808080;fill-opacity:1;stroke:#000000;stroke-width:0.79375;stroke-linecap:square;stroke-linejoin:miter;stroke-miterlimit:4;stroke-dasharray:none;stroke-dashoffset:0;stroke-opacity:1"
       id="path123" />
    <ellipse
       cx="965.00598"
       cy="6.7800002"
       rx="1.357"
       ry="1.3890001"
       style="fill:#000000;fill-opacity:1;stroke:#892ca0;stroke-width:0.79375;stroke-linecap:square;stroke-linejoin:miter;stroke-miterlimit:4;stroke-dasharray:none;stroke-dashoffset:0;stroke-opacity:1"
       id="ellipse125" />
    <ellipse
       cx="964.55298"
       cy="6.3889999"
       rx="0.667"
       ry="0.69199997"
       style="fill:#ffffff;fill-opacity:1;stroke:none;stroke-width:0.79375;stroke-linecap:square;stroke-linejoin:miter;stroke-miterlimit:4;stroke-dasharray:none;stroke-dashoffset:0;stroke-opacity:1"
       id="ellipse127" />
    <path
       d="m 963.79,3.872 a 1.553,1.553 0 0 1 1.146,-0.595 c 0.42,-0.018 0.844,0.146 1.142,0.441"
       style="fill:none;fill-opacity:1;stroke:#000000;stroke-width:0.79375;stroke-linecap:square;stroke-linejoin:miter;stroke-miterlimit:4;stroke-dasharray:none;stroke-dashoffset:0;stroke-opacity:1"
       id="path129" />
    <ellipse
       cx="973.47498"
       cy="6.48"
       rx="0.667"
       ry="0.69199997"
       style="fill:#ffffff;fill-opacity:1;stroke:none;stroke-width:0.79375;stroke-linecap:square;stroke-linejoin:miter;stroke-miterlimit:4;stroke-dasharray:none;stroke-dashoffset:0;stroke-opacity:1"
       id="ellipse131" />
  </g>
  <path
     d="m 12.329301,8.0774199 h 2.390593 M 13.72134,8.5746302 h 1.968734"
     style="fill:none;fill-rule:evenodd;stroke:#3c6eb4;stroke-width:0.198872;stroke-linecap:butt;stroke-linejoin:miter;stroke-miterlimit:4;stroke-dasharray:none;stroke-opacity:1"
     id="path135" />
</svg>
