<?xml version="1.0" encoding="UTF-8" standalone="no"?>
<!-- Generator: Adobe Illustrator 24.0.1, SVG Export Plug-In . SVG Version: 6.00 Build 0)  -->

<svg
   xmlns:dc="http://purl.org/dc/elements/1.1/"
   xmlns:cc="http://creativecommons.org/ns#"
   xmlns:rdf="http://www.w3.org/1999/02/22-rdf-syntax-ns#"
   xmlns:svg="http://www.w3.org/2000/svg"
   xmlns="http://www.w3.org/2000/svg"
   xmlns:sodipodi="http://sodipodi.sourceforge.net/DTD/sodipodi-0.dtd"
   xmlns:inkscape="http://www.inkscape.org/namespaces/inkscape"
   version="1.1"
   id="Layer_1"
   x="0px"
   y="0px"
   viewBox="0 0 120 60"
   width="120"
   height="60"
   style="enable-background:new 0 0 120 60;"
   xml:space="preserve"
   sodipodi:docname="deployhq-ar21.svg"
   inkscape:version="0.92.4 (5da689c313, 2019-01-14)"><metadata
   id="metadata12"><rdf:RDF><cc:Work
       rdf:about=""><dc:format>image/svg+xml</dc:format><dc:type
         rdf:resource="http://purl.org/dc/dcmitype/StillImage" /><dc:title></dc:title></cc:Work></rdf:RDF></metadata><defs
   id="defs10" /><sodipodi:namedview
   pagecolor="#ffffff"
   bordercolor="#666666"
   borderopacity="1"
   objecttolerance="10"
   gridtolerance="10"
   guidetolerance="10"
   inkscape:pageopacity="0"
   inkscape:pageshadow="2"
   inkscape:window-width="1705"
   inkscape:window-height="935"
   id="namedview8"
   showgrid="false"
   inkscape:zoom="2.9"
   inkscape:cx="60"
   inkscape:cy="30"
   inkscape:window-x="70"
   inkscape:window-y="27"
   inkscape:window-maximized="0"
   inkscape:current-layer="Layer_1" />
<style
   type="text/css"
   id="style2">
	.st0{fill-rule:evenodd;clip-rule:evenodd;}
</style>
<g
   transform="matrix(0.77424399,0,0,0.77424399,28.915969,7.177122)"
   id="g5">
	<path
   id="a"
   class="st0"
   d="m 12,30 c 0,-1.2 0.2,-2.2 0.5,-3.1 0.3,-0.9 0.7,-1.7 1.3,-2.4 0.5,-0.6 1.1,-1.1 1.8,-1.5 0.7,-0.3 1.4,-0.5 2.1,-0.5 0.7,0 1.4,0.1 1.8,0.4 0.5,0.3 0.9,0.6 1.3,1 l -0.2,-2.1 v -4.6 h 4.7 V 37.1 H 21.5 L 21.2,35.8 H 21 c -0.5,0.5 -1,0.9 -1.6,1.2 -0.6,0.3 -1.2,0.5 -1.8,0.5 C 16.7,37.5 16,37.3 15.3,37 14.6,36.6 14,36.1 13.5,35.5 13,34.9 12.6,34.1 12.4,33.1 12.1,32.2 12,31.2 12,30 Z m 4.8,-0.1 c 0,1.3 0.2,2.2 0.5,2.7 0.4,0.5 0.9,0.8 1.5,0.8 0.4,0 0.7,-0.1 1,-0.2 0.3,-0.1 0.5,-0.4 0.8,-0.8 v -5.3 c -0.3,-0.3 -0.6,-0.4 -0.9,-0.5 -0.3,-0.1 -0.6,-0.1 -1,-0.1 -0.5,0 -0.9,0.3 -1.3,0.8 -0.4,0.5 -0.6,1.4 -0.6,2.6 z m 9,0.1 c 0,-1.2 0.2,-2.2 0.6,-3.1 0.4,-0.9 0.9,-1.7 1.5,-2.4 0.6,-0.6 1.3,-1.1 2.1,-1.5 0.8,-0.3 1.6,-0.5 2.4,-0.5 1,0 1.9,0.2 2.6,0.5 0.7,0.3 1.4,0.9 1.9,1.5 0.5,0.6 0.9,1.4 1.1,2.2 0.2,0.8 0.4,1.7 0.4,2.7 0,0.4 0,0.8 -0.1,1.2 0,0.3 -0.1,0.6 -0.1,0.8 h -7.8 c 0.2,0.9 0.6,1.5 1.2,1.9 0.6,0.3 1.2,0.5 2,0.5 0.5,0 0.9,-0.1 1.4,-0.2 0.5,-0.2 1,-0.4 1.4,-0.6 l 1.5,2.9 c -0.7,0.6 -1.6,1 -2.5,1.2 -0.9,0.3 -1.7,0.4 -2.5,0.4 -1,0 -1.9,-0.2 -2.8,-0.5 C 29.3,36.7 28.5,36.2 27.9,35.5 27.3,34.9 26.8,34.1 26.4,33.1 26,32.2 25.8,31.2 25.8,30 Z m 8.5,-1.6 c 0,-0.6 -0.1,-1.1 -0.4,-1.5 -0.3,-0.4 -0.8,-0.6 -1.5,-0.6 -0.5,0 -1,0.2 -1.4,0.5 -0.4,0.3 -0.7,0.9 -0.8,1.7 h 4.1 z m 9.4,9.8 v 3.9 H 39 V 22.8 h 3.8 l 0.3,1.3 h 0.1 c 0.5,-0.5 1.1,-0.9 1.7,-1.2 0.6,-0.3 1.3,-0.5 2,-0.5 0.8,0 1.5,0.2 2.2,0.5 0.7,0.4 1.2,0.8 1.7,1.5 0.5,0.6 0.8,1.4 1.1,2.3 0.2,0.9 0.4,1.9 0.4,3 0,1.2 -0.2,2.3 -0.5,3.3 -0.3,1 -0.7,1.8 -1.3,2.4 -0.6,0.6 -1.1,1.2 -1.8,1.5 -0.7,0.3 -1.4,0.5 -2.1,0.5 -1.1,0 -2.2,-0.5 -3.1,-1.4 z m 0,-5.4 c 0.3,0.3 0.6,0.4 0.8,0.5 0.3,0.1 0.6,0.1 0.9,0.1 0.5,0 1,-0.3 1.4,-0.8 0.4,-0.5 0.6,-1.5 0.6,-2.9 0,-1.2 -0.2,-2 -0.5,-2.5 -0.3,-0.5 -0.8,-0.8 -1.4,-0.8 -0.4,0 -0.7,0.1 -1,0.2 -0.3,0.2 -0.6,0.4 -0.9,0.8 z m 9.2,-15.6 h 4.7 v 15 c 0,0.5 0.1,0.8 0.3,1 0.2,0.2 0.3,0.3 0.5,0.3 h 0.2 c 0.1,0 0.2,0 0.3,-0.1 l 0.5,3.6 c -0.3,0.1 -0.6,0.2 -0.9,0.3 -0.4,0.1 -0.9,0.1 -1.4,0.1 -0.8,0 -1.5,-0.1 -2,-0.4 -0.5,-0.2 -1,-0.6 -1.3,-1.1 -0.3,-0.5 -0.6,-1 -0.7,-1.7 C 53,33.5 52.9,32.7 52.9,32 Z M 58.4,30 c 0,-1.2 0.2,-2.2 0.6,-3.2 0.4,-0.9 0.9,-1.7 1.5,-2.4 0.6,-0.6 1.4,-1.1 2.2,-1.5 1.6,-0.7 3.4,-0.7 5.1,0 0.8,0.3 1.5,0.8 2.2,1.5 0.6,0.6 1.1,1.4 1.5,2.4 0.4,0.9 0.6,2 0.6,3.2 0,1.2 -0.2,2.2 -0.6,3.2 -0.4,0.9 -0.9,1.7 -1.5,2.4 -0.6,0.6 -1.3,1.1 -2.2,1.5 -1.6,0.7 -3.4,0.7 -5.1,0 -0.8,-0.3 -1.6,-0.8 -2.2,-1.5 -0.6,-0.6 -1.1,-1.4 -1.5,-2.4 -0.4,-1 -0.6,-2 -0.6,-3.2 z m 4.8,0 c 0,1.1 0.1,2 0.5,2.6 0.3,0.6 0.8,1 1.5,1 0.7,0 1.2,-0.3 1.5,-1 0.3,-0.6 0.5,-1.5 0.5,-2.6 0,-1.1 -0.1,-2 -0.5,-2.6 -0.3,-0.6 -0.8,-1 -1.5,-1 -0.7,0 -1.2,0.3 -1.5,1 -0.3,0.6 -0.5,1.5 -0.5,2.6 z m 9.8,8.5 c 0.1,0 0.3,0.1 0.4,0.1 0.2,0 0.3,0.1 0.5,0.1 0.6,0 1.1,-0.1 1.4,-0.4 0.3,-0.3 0.6,-0.6 0.7,-1 L 76.2,36.7 71,22.8 h 4.7 l 1.6,5.5 c 0.2,0.7 0.4,1.3 0.5,2 0.1,0.7 0.3,1.3 0.5,2.1 h 0.1 c 0.1,-0.7 0.3,-1.4 0.4,-2 0.1,-0.7 0.3,-1.3 0.5,-2 l 1.4,-5.5 h 4.5 L 80.6,37 c -0.3,0.9 -0.7,1.7 -1.1,2.5 -0.4,0.7 -0.8,1.3 -1.3,1.7 -0.5,0.5 -1.1,0.8 -1.7,1 -0.6,0.2 -1.4,0.3 -2.2,0.3 -0.5,0 -0.9,0 -1.2,-0.1 -0.3,-0.1 -0.6,-0.1 -0.9,-0.2 0,0 0.8,-3.7 0.8,-3.7 z m 13.2,-22 H 87 v 9.2 c 0.6,-0.7 1.4,-1.3 2.1,-1.8 0.7,-0.5 1.5,-0.7 2.4,-0.7 1.4,0 2.3,0.4 3,1.3 0.6,0.8 1,2.2 1,3.9 v 8.8 H 94.7 V 28.5 C 94.7,27 94.5,25.8 94,25.1 93.5,24.4 92.7,24 91.6,24 c -0.8,0 -1.6,0.2 -2.3,0.7 -0.7,0.5 -1.4,1.1 -2.3,2.1 v 10.5 h -0.8 z m 11.2,13.8 c 0,-1.1 0.2,-2.1 0.5,-3 0.3,-0.9 0.7,-1.6 1.3,-2.3 0.5,-0.6 1.1,-1.1 1.9,-1.4 0.7,-0.3 1.5,-0.5 2.3,-0.5 0.8,0 1.5,0.1 2.1,0.4 0.7,0.3 1.3,0.7 1.8,1.2 h 0.1 l 0.1,-1.3 h 0.7 v 20 h -0.8 V 38 l 0.1,-2.7 c -0.6,0.6 -1.3,1.1 -2,1.5 -0.7,0.4 -1.6,0.7 -2.5,0.7 -1.7,0 -3,-0.6 -4,-1.8 -1.2,-1.3 -1.6,-3 -1.6,-5.4 z m 0.8,0 c 0,1 0.1,1.8 0.3,2.6 0.2,0.8 0.5,1.4 0.9,2 0.4,0.6 0.9,1 1.4,1.3 0.6,0.3 1.2,0.5 2,0.5 0.8,0 1.5,-0.2 2.2,-0.6 0.7,-0.4 1.4,-1 2.2,-1.8 v -8.5 c -0.7,-0.7 -1.4,-1.2 -2.1,-1.5 -0.6,-0.3 -1.3,-0.4 -2,-0.4 -0.7,0 -1.3,0.2 -1.9,0.5 -0.6,0.3 -1.1,0.8 -1.6,1.4 -0.5,0.6 -0.8,1.3 -1,2 -0.2,0.9 -0.4,1.7 -0.4,2.5 z"
   inkscape:connector-curvature="0"
   style="clip-rule:evenodd;fill-rule:evenodd" />
</g>
<style
   id="style938"
   type="text/css">
	.st0{fill-rule:evenodd;clip-rule:evenodd;fill:url(#SVGID_1_);}
	.st1{fill-rule:evenodd;clip-rule:evenodd;fill:#FFFFFF;}
	.st2{fill:#FFFFFF;}
</style><g
   id="g959"
   transform="matrix(0.4450431,0,0,0.4450431,5.6420258,15.91304)">
	
		<linearGradient
   gradientTransform="matrix(512,0,0,-512,179872,139068.28)"
   y2="271.49551"
   x2="-351.19031"
   y1="271.61771"
   x1="-351.3125"
   gradientUnits="userSpaceOnUse"
   id="SVGID_1_">
		<stop
   id="stop940"
   style="stop-color:#0187F3"
   offset="0" />
		<stop
   id="stop942"
   style="stop-color:#FF004F"
   offset="1" />
	</linearGradient>
	<circle
   id="circle945"
   r="32"
   cy="32"
   cx="32"
   class="st0"
   style="clip-rule:evenodd;fill:url(#SVGID_1_);fill-rule:evenodd" />
	<g
   id="g957">
		<g
   id="g953"
   transform="translate(113,122)">
			<g
   id="g948">
				<path
   d="m -65.4,-106.7 c -3.1,0.2 -8.8,0.7 -11.4,2.1 -3.3,1.9 -6.6,5.3 -9.2,8.7 l -5.3,0.6 c -1,0.1 -1.9,0.7 -2.3,1.6 l -1.2,2.7 c -0.1,0.2 -0.1,0.5 0,0.7 0.1,0.2 0.3,0.3 0.6,0.4 l 3.6,0.6 c -0.3,0.4 -0.5,0.8 -0.7,1.1 -0.5,0.8 -0.3,1.8 0.4,2.4 l 0.2,0.2 -0.9,0.8 c -0.4,0.4 -0.6,0.9 -0.6,1.4 0,0.6 0.2,1.1 0.6,1.4 l 1.9,1.8 c 0.4,0.4 1,0.6 1.6,0.6 0.6,0 1.1,-0.2 1.6,-0.6 l 0.9,-0.8 0.2,0.2 c 0.4,0.4 1,0.6 1.5,0.6 0.4,0 0.7,-0.1 1.1,-0.3 0.3,-0.2 0.7,-0.4 1.2,-0.6 l 0.6,3.3 c 0,0.2 0.2,0.4 0.4,0.5 0.2,0.1 0.5,0.1 0.7,0 l 2.8,-1.1 c 0.9,-0.4 1.6,-1.2 1.7,-2.2 l 0.7,-4.9 c 3.6,-2.5 7.3,-5.5 9.3,-8.6 1.5,-2.4 2.1,-7.7 2.3,-10.6 0,-0.6 -0.2,-1.1 -0.6,-1.5 -0.5,-0.4 -1.1,-0.6 -1.7,-0.5 0,0 0,0 0,0 z m -1.4,11.9 c -3.7,5.7 -13.9,11.4 -16.9,13 -0.2,0.1 -0.5,0.1 -0.7,-0.1 l -0.8,-0.7 -3.9,-3.7 -0.8,-0.7 c -0.2,-0.2 -0.2,-0.4 -0.1,-0.6 1.7,-2.8 7.8,-12.3 13.9,-15.8 2.4,-1.3 8.2,-1.8 10.7,-1.9 0.2,0 0.3,0.1 0.4,0.2 0.1,0.1 0.2,0.2 0.2,0.4 -0.1,2.3 -0.6,7.7 -2,9.9 z"
   id="c"
   inkscape:connector-curvature="0" />
			</g>
			<g
   id="g951">
				<path
   d="m -65.4,-106.7 c -3.1,0.2 -8.8,0.7 -11.4,2.1 -3.3,1.9 -6.6,5.3 -9.2,8.7 l -5.3,0.6 c -1,0.1 -1.9,0.7 -2.3,1.6 l -1.2,2.7 c -0.1,0.2 -0.1,0.5 0,0.7 0.1,0.2 0.3,0.3 0.6,0.4 l 3.6,0.6 c -0.3,0.4 -0.5,0.8 -0.7,1.1 -0.5,0.8 -0.3,1.8 0.4,2.4 l 0.2,0.2 -0.9,0.8 c -0.4,0.4 -0.6,0.9 -0.6,1.4 0,0.6 0.2,1.1 0.6,1.4 l 1.9,1.8 c 0.4,0.4 1,0.6 1.6,0.6 0.6,0 1.1,-0.2 1.6,-0.6 l 0.9,-0.8 0.2,0.2 c 0.4,0.4 1,0.6 1.5,0.6 0.4,0 0.7,-0.1 1.1,-0.3 0.3,-0.2 0.7,-0.4 1.2,-0.6 l 0.6,3.3 c 0,0.2 0.2,0.4 0.4,0.5 0.2,0.1 0.5,0.1 0.7,0 l 2.8,-1.1 c 0.9,-0.4 1.6,-1.2 1.7,-2.2 l 0.7,-4.9 c 3.6,-2.5 7.3,-5.5 9.3,-8.6 1.5,-2.4 2.1,-7.7 2.3,-10.6 0,-0.6 -0.2,-1.1 -0.6,-1.5 -0.5,-0.4 -1.1,-0.6 -1.7,-0.5 0,0 0,0 0,0 z m -1.4,11.9 c -3.7,5.7 -13.9,11.4 -16.9,13 -0.2,0.1 -0.5,0.1 -0.7,-0.1 l -0.8,-0.7 -3.9,-3.7 -0.8,-0.7 c -0.2,-0.2 -0.2,-0.4 -0.1,-0.6 1.7,-2.8 7.8,-12.3 13.9,-15.8 2.4,-1.3 8.2,-1.8 10.7,-1.9 0.2,0 0.3,0.1 0.4,0.2 0.1,0.1 0.2,0.2 0.2,0.4 -0.1,2.3 -0.6,7.7 -2,9.9 z"
   class="st1"
   id="c_1_"
   inkscape:connector-curvature="0"
   style="clip-rule:evenodd;fill:#ffffff;fill-rule:evenodd" />
			</g>
		</g>
		<path
   id="path955"
   d="m 39.9,21.2 c -1,0 -1.9,0.4 -2.6,1 -0.7,0.6 -1.1,1.5 -1.1,2.5 0,0.9 0.4,1.8 1.1,2.5 0.7,0.7 1.6,1 2.6,1 1,0 1.9,-0.4 2.6,-1 0.7,-0.6 1.1,-1.5 1.1,-2.5 0,-0.9 -0.4,-1.8 -1.1,-2.5 -0.7,-0.6 -1.6,-1 -2.6,-1 z M 18.8,40.3 c -1.2,0 -2.3,0.4 -3.1,1.2 -1.6,1.5 -1.6,5.8 -1.6,6.6 0,0.4 0.4,0.7 0.8,0.7 H 15 c 1.6,0 5.5,-0.1 6.9,-1.5 0.8,-0.8 1.3,-1.8 1.3,-2.9 0,-1.1 -0.5,-2.1 -1.3,-2.9 -0.8,-0.8 -1.9,-1.2 -3.1,-1.2 z m 2,6 c -0.7,0.6 -3,1 -5.1,1 0.1,-1.8 0.4,-4.1 1.1,-4.8 0.5,-0.5 1.3,-0.8 2,-0.8 0.8,0 1.5,0.3 2,0.8 0.5,0.5 0.8,1.2 0.8,1.9 0.1,0.8 -0.2,1.4 -0.8,1.9 z"
   class="st2"
   inkscape:connector-curvature="0"
   style="fill:#ffffff" />
	</g>
</g></svg>