<svg xmlns="http://www.w3.org/2000/svg" width="64" height="64"><path d="M54.217 19.173L32.007 32v2.86h-.014v7.593h.014v8.678l16.637-9.53v-6.346L37.485 41.6v-6.414l16.746-9.532V44.84L32.007 57.56V64L59.71 48V16z" fill="#0091ce"/><path d="M4.292 48l27.715 16v-6.44l-22.2-12.72V19.186L4.292 16zm27.715 3.132V32l-16.624-9.6-.014.014V41.6z" fill="#0086bd"/><path d="M59.708 16.014V16l-27.7-16L4.292 16l5.505 3.186 22.2-12.814 22.2 12.8L59.708 16zm-27.7-3.2L15.383 22.4 32.007 32l16.624-9.6z" fill="#18a5e3"/></svg>