<?xml version="1.0" encoding="UTF-8" standalone="no"?>
<svg
   xmlns:dc="http://purl.org/dc/elements/1.1/"
   xmlns:cc="http://creativecommons.org/ns#"
   xmlns:rdf="http://www.w3.org/1999/02/22-rdf-syntax-ns#"
   xmlns:svg="http://www.w3.org/2000/svg"
   xmlns="http://www.w3.org/2000/svg"
   xmlns:sodipodi="http://sodipodi.sourceforge.net/DTD/sodipodi-0.dtd"
   xmlns:inkscape="http://www.inkscape.org/namespaces/inkscape"
   viewBox="0 0 63.999995 63.999999"
   version="1.1"
   id="svg40"
   sodipodi:docname="gitpod-icon.svg"
   width="64"
   height="64"
   inkscape:version="0.92.3 (2405546, 2018-03-11)">
  <metadata
     id="metadata44">
    <rdf:RDF>
      <cc:Work
         rdf:about="">
        <dc:format>image/svg+xml</dc:format>
        <dc:type
           rdf:resource="http://purl.org/dc/dcmitype/StillImage" />
        <dc:title>Asset 1</dc:title>
      </cc:Work>
    </rdf:RDF>
  </metadata>
  <sodipodi:namedview
     pagecolor="#ffffff"
     bordercolor="#666666"
     borderopacity="1"
     objecttolerance="10"
     gridtolerance="10"
     guidetolerance="10"
     inkscape:pageopacity="0"
     inkscape:pageshadow="2"
     inkscape:window-width="1920"
     inkscape:window-height="1001"
     id="namedview42"
     showgrid="false"
     inkscape:zoom="2.3443982"
     inkscape:cx="8.7442482"
     inkscape:cy="23.6"
     inkscape:window-x="-9"
     inkscape:window-y="-9"
     inkscape:window-maximized="1"
     inkscape:current-layer="svg40" />
  <defs
     id="defs4">
    <style
       id="style2">.cls-1{fill:#0091ce;}.cls-2{fill:#0086bd;}.cls-3{fill:#18a5e3;}.cls-4{fill:#fff;}</style>
  </defs>
  <title
     id="title6">Asset 1</title>
  <polygon
     class="cls-1"
     points=""
     id="polygon8"
     style="fill:#0091ce"
     transform="translate(0,16.799999)" />
  <g
     id="g3807"
     transform="matrix(1.9605424,0,0,1.9605424,-15.313899,-26.816272)">
    <polygon
       transform="matrix(0.69161076,0,0,0.69161076,10,13.677986)"
       style="fill:#0091ce"
       id="polygon10"
       points="36.82,14.14 32.7,16.52 20.44,23.6 20.44,25.71 20.43,25.71 20.43,31.31 20.44,31.31 20.44,37.71 32.71,30.68 32.71,26 24.48,30.68 24.48,25.95 36.83,18.92 36.83,33.07 20.44,42.45 20.44,47.2 40.87,35.4 40.87,11.81 40.87,11.8 "
       class="cls-1" />
    <polygon
       transform="matrix(0.69161076,0,0,0.69161076,10,13.677986)"
       style="fill:#0086bd"
       id="polygon12"
       points="0,35.4 20.44,47.2 20.44,42.45 4.06,33.07 4.06,14.15 0,11.8 "
       class="cls-2" />
    <polygon
       transform="matrix(0.69161076,0,0,0.69161076,10,13.677986)"
       style="fill:#0086bd"
       id="polygon14"
       points="20.44,37.71 20.44,23.6 8.18,16.52 8.17,16.53 8.17,30.68 "
       class="cls-2" />
    <polygon
       transform="matrix(0.69161076,0,0,0.69161076,10,13.677986)"
       style="fill:#18a5e3"
       id="polygon16"
       points="40.87,11.81 40.87,11.8 20.44,0 0,11.8 4.06,14.15 20.44,4.7 36.82,14.14 40.87,11.8 "
       class="cls-3" />
    <polygon
       transform="matrix(0.69161076,0,0,0.69161076,10,13.677986)"
       style="fill:#18a5e3"
       id="polygon18"
       points="20.44,9.45 8.18,16.52 20.44,23.6 32.7,16.52 "
       class="cls-3" />
  </g>
</svg>
