<svg xmlns="http://www.w3.org/2000/svg" height="60" width="120" fill="#772953"><path d="M15.878 36.527c-.878 0-1.677-.144-2.398-.433s-1.34-.712-1.857-1.27-.917-1.24-1.2-2.047S10 31.046 10 30s.156-1.974.47-2.786.74-1.494 1.28-2.046a5.49 5.49 0 0 1 1.875-1.262 5.93 5.93 0 0 1 2.254-.432c.54 0 1.025.036 1.45.108a8.83 8.83 0 0 1 1.109.252 5.11 5.11 0 0 1 .757.289l.397.216-.523 1.443c-.108-.072-.264-.15-.47-.234l-.712-.252a6.82 6.82 0 0 0-.892-.207 6.26 6.26 0 0 0-1.028-.081c-.613 0-1.172.114-1.677.343s-.938.56-1.298.992-.64.96-.838 1.578-.297 1.314-.297 2.082a7.49 7.49 0 0 0 .26 2.038c.173.613.44 1.14.793 1.578s.793.778 1.316 1.02 1.14.36 1.848.36c.793 0 1.45-.084 1.974-.252s.916-.318 1.18-.45l.45 1.442c-.084.06-.234.135-.45.225s-.487.178-.8.26-.703.156-1.136.217a10.03 10.03 0 0 1-1.406.1zM26.985 23.76l1.244 2.732 1.2 2.894 1.235 3.2 1.352 3.67h-1.9l-.577-1.605-.56-1.605h-5.662l-1.136 3.2h-1.82l1.352-3.67 1.235-3.2 1.2-2.894 1.244-2.732h1.605zm-.847 2l-1.2 2.813-1.127 3.047h4.652l-1.145-3.038-1.18-2.822zm16.2 10.497l-.9-1.497-1.1-1.722-1.235-1.812-1.27-1.776-1.226-1.614-1.1-1.334v9.755h-1.713V23.76h1.388l1.812 2.1 1.9 2.47 1.785 2.497 1.416 2.182v-9.25h1.713v12.495h-1.46zm27.298 0l-.9-1.497-1.1-1.722-1.235-1.812-1.27-1.776-1.226-1.614-1.1-1.334v9.755H61.08V23.76h1.388l1.812 2.1 1.9 2.47 1.785 2.497 1.416 2.182v-9.25h1.713v12.495h-1.462zM74.28 23.76h1.75v12.495h-1.75zm10.297 12.767c-.878 0-1.677-.144-2.398-.433s-1.34-.712-1.857-1.27-.917-1.24-1.2-2.047S78.7 31.046 78.7 30s.156-1.974.47-2.786.74-1.494 1.28-2.046a5.49 5.49 0 0 1 1.875-1.262 5.93 5.93 0 0 1 2.254-.432c.54 0 1.025.036 1.45.108a8.83 8.83 0 0 1 1.109.252 5.1 5.1 0 0 1 .757.289l.397.216-.523 1.443c-.108-.072-.265-.15-.47-.234l-.712-.252a6.81 6.81 0 0 0-.892-.207c-.325-.054-.667-.08-1.028-.08-.613 0-1.172.114-1.677.343a3.61 3.61 0 0 0-1.298.992c-.36.433-.64.96-.838 1.578s-.298 1.314-.298 2.082a7.49 7.49 0 0 0 .26 2.038 4.38 4.38 0 0 0 .793 1.578c.354.44.793.778 1.316 1.02s1.14.36 1.848.36c.793 0 1.45-.084 1.975-.252s.916-.318 1.18-.45l.45 1.442c-.084.06-.234.135-.45.225a6.09 6.09 0 0 1-.811.261c-.325.084-.703.156-1.136.217s-.906.1-1.4.1zM95.683 23.76l1.244 2.732 1.2 2.894 1.235 3.2 1.352 3.67h-1.9l-.577-1.605-.56-1.605h-5.662l-1.136 3.2h-1.82l1.352-3.67 1.235-3.2 1.2-2.894L94.1 23.75h1.606zm-.848 2l-1.2 2.813-1.127 3.047h4.652l-1.145-3.038-1.18-2.822zM110 34.796v1.46h-7.52V23.76h1.75v11.035H110zm-57.554-.64c-2.295 0-4.156-1.86-4.156-4.156s1.86-4.156 4.156-4.156 4.156 1.86 4.156 4.156-1.86 4.156-4.156 4.156zM58.973 30a6.53 6.53 0 0 1-6.527 6.527A6.53 6.53 0 0 1 45.918 30a6.53 6.53 0 0 1 6.527-6.527A6.53 6.53 0 0 1 58.973 30zm-6.527-4.94a4.94 4.94 0 0 0-4.94 4.94 4.94 4.94 0 0 0 4.939 4.939A4.94 4.94 0 0 0 57.385 30a4.94 4.94 0 0 0-4.94-4.94z"/></svg>