<svg xmlns="http://www.w3.org/2000/svg" width="120" height="60"><g transform="matrix(.98792 0 0 .98792 -.035059 .362387)"><path d="M33.688 30a14.95 14.95 0 1 1-29.902 0 14.95 14.95 0 1 1 29.902 0z" fill="#fbb040"/><path d="M12.57 28.767l-.972 1.72 4.41 2.243.075.748-3.364-1.084 1.682 2.13.15.673 2.056.934.224.635-.934-.41L18.4 39.27v3.44h.635v-3.44l2.467-2.915-.897.41.187-.635 2.093-.934.112-.673 1.682-2.13-3.327 1.084.075-.748 4.41-2.243-.972-1.72 2.056-2.953-5.756 2.766-.112-.822 1.682-2.766-.224-.45.748-3.214-3 3.177-.187-1.757.897-2.654-1.196.41-1.084-3.214-1.047 3.214-1.196-.41.897 2.654-.187 1.757-3.028-3.177.785 3.214-.224.45 1.682 2.766-.112.822-5.793-2.766z" fill="#2d2d2d"/><path d="M105.118 32.613c-1.323 0-1.95-1.19-1.95-2.414 0-1.753.96-2.48 1.95-2.48 1.158 0 1.95.992 1.95 2.48 0 1.555-.926 2.414-1.95 2.414zm-12.304-.33c-2.084 0-3.77-1.82-3.77-4.2 0-2.282 1.687-4.035 3.77-4.035s3.77 1.72 3.77 4.035c-.033 2.38-1.687 4.2-3.77 4.2zM73.4 32.58c-1.224 0-2.282-.926-2.282-2.448s1.058-2.48 2.282-2.48 2.282.96 2.282 2.48-1.058 2.448-2.282 2.448zm40.716-5.06c1.39 0 1.985.992 1.985.992l1.323-2.646s-.96-.992-3.308-.992c-2.15 0-4.068.992-4.3 2.646-.695-1.654-1.323-2.646-3.97-2.646s-2.977 1.323-2.977 1.323v-.992h-2.977l-.033 1.058c-.76-3.11-3.374-5.358-6.913-5.358-3.34 0-6.12 1.985-7.045 4.83l.1-.86h-.496c-1.488 0-2.81 1.323-3.142 2.646v-2.315h-3.274v4.928c0-3.175-2.48-5.226-5.656-5.226-3.142 0-5.69 2.084-5.69 5.26 0 .794.232 2.348.066 2.348-.628 0-1.654-.198-1.654-1.323v-3.34h1.985v-2.646h-1.985v-2.646h-3.308v2.646h-1.323v.662c-.628-.43-1.95-.992-3.638-.992-2.68-.033-4.3 1.52-4.96 3.34v-3h-3.308v10.253h3.308V32.15c.198 1.39 2.282 3.308 4.96 3.308 2.81 0 4.432-1.72 4.432-1.72l-1.224-2.38s-1.488 1.125-2.878 1.125c-1.687 0-2.38-1.224-2.38-2.414s.794-2.414 2.38-2.414c1.39 0 2.348.992 2.348.992l.96-1.455v.662h1.323v3.638c0 3.407 2.68 3.97 4.3 3.97h.992V32.48c.893 1.82 3 2.977 5.292 2.977 3.142 0 5.656-2.15 5.656-5.292l-.033 5.292h3.308l.1-4.1a5.51 5.51 0 0 1 .165-1.389c.496-1.52 1.786-1.753 2.58-1.753h.33c.066 4.035 3.24 7.243 7.41 7.243 3.54 0 6.185-2.414 6.946-5.623v9.26h2.977v-4.63c.033 0 1.356.992 2.977.992 2.68 0 4.63-2.084 4.63-5.292v-.662c1.224 1.72 4.134 1.985 4.134 2.68 0 .33-.496.463-.992.463-1.455 0-2.48-1.158-2.48-1.158l-1.654 2.646s1.786 1.323 4.3 1.323c2.58 0 3.97-1.52 3.97-3.24 0-3.24-4.63-3.24-4.63-4.002 0-.364.496-.695.992-.695zM49.617 23.88h3.308v-2.646H46.3l-2.348 7.905c-.265.893-.53 2.25-.53 2.25-.033 0-.298-1.39-.562-2.25l-2.514-7.905h-3.638l4.96 14.222h3.308l4.63-12.57z" fill="#221f20"/></g></svg>