<?xml version="1.0" encoding="UTF-8" standalone="no"?>
<svg
   xmlns:dc="http://purl.org/dc/elements/1.1/"
   xmlns:cc="http://creativecommons.org/ns#"
   xmlns:rdf="http://www.w3.org/1999/02/22-rdf-syntax-ns#"
   xmlns:svg="http://www.w3.org/2000/svg"
   xmlns="http://www.w3.org/2000/svg"
   xmlns:sodipodi="http://sodipodi.sourceforge.net/DTD/sodipodi-0.dtd"
   xmlns:inkscape="http://www.inkscape.org/namespaces/inkscape"
   viewBox="0 0 120 60"
   version="1.1"
   id="svg56"
   sodipodi:docname="kabbage-ar21.svg"
   width="120"
   height="60"
   inkscape:version="0.92.3 (2405546, 2018-03-11)">
  <metadata
     id="metadata60">
    <rdf:RDF>
      <cc:Work
         rdf:about="">
        <dc:format>image/svg+xml</dc:format>
        <dc:type
           rdf:resource="http://purl.org/dc/dcmitype/StillImage" />
        <dc:title>Kabbage Platform Logo</dc:title>
      </cc:Work>
    </rdf:RDF>
  </metadata>
  <sodipodi:namedview
     pagecolor="#ffffff"
     bordercolor="#666666"
     borderopacity="1"
     objecttolerance="10"
     gridtolerance="10"
     guidetolerance="10"
     inkscape:pageopacity="0"
     inkscape:pageshadow="2"
     inkscape:window-width="1920"
     inkscape:window-height="1001"
     id="namedview58"
     showgrid="false"
     inkscape:lockguides="true"
     inkscape:zoom="5.3268711"
     inkscape:cx="26.421316"
     inkscape:cy="22.08537"
     inkscape:window-x="-9"
     inkscape:window-y="-9"
     inkscape:window-maximized="1"
     inkscape:current-layer="svg56" />
  <defs
     id="defs4">
    <style
       id="style2">.cls-1{fill:#5dbd71;}.cls-2{fill:#565a5c;}</style>
  </defs>
  <title
     id="title6">Kabbage Platform Logo</title>
  <g
     id="g993"
     transform="translate(-3.1799428)">
    <g
       transform="matrix(1.9339907,0,0,1.9339907,-17.957274,-11.632533)"
       id="g968">
      <path
         class="cls-1"
         d="m 23.104487,25.651794 c 0,0 -2.52,-3.59 -0.53,-7.14 a 6.76,6.76 0 0 1 7.44,-3.1 c 1.35,0.43 0.82,2.75 0.82,3.32 a 2.23,2.23 0 0 0 0.06,0.73 0.5,0.5 0 0 0 0.5,0.33 6.7,6.7 0 0 0 0.68,-0.14 6.38,6.38 0 0 1 -1.57,4.06 c -1.6,1.68 -2.68,0.84 -4.1,2.05 -1.42,1.21 -2.62,2.74 -2.18,0.45 1.41,-7.31 5.3,-10 4,-9.13 -3.77,2.65 -5.12,8.57 -5.12,8.57 z"
         id="path8"
         inkscape:connector-curvature="0"
         style="fill:#99c82a;fill-opacity:1" />
      <path
         class="cls-1"
         d="m 19.704487,21.121794 a 8.18,8.18 0 0 0 -2.33,-3.51 8.07,8.07 0 0 1 3.05,3.17 c 0.1,0.17 0.2,0.35 0.29,0.54 a 7.55,7.55 0 0 1 0.89,-3 7.13,7.13 0 0 0 -5.8,-1.82 1.71,1.71 0 0 1 0.33,1.35 c -0.17,0.76 -2.14,3.1 -0.17,5.47 a 25.55,25.55 0 0 0 4.17,3.82 13.34,13.34 0 0 0 -0.43,-6.02 z"
         id="path10"
         inkscape:connector-curvature="0"
         style="fill:#1b96da;fill-opacity:1" />
      <path
         class="cls-1"
         d="m 22.154487,17.541794 a 6.64,6.64 0 0 0 -2.41,-1.11 6.48,6.48 0 0 1 3.2,-0.85 c -0.07,0.39 0.05,0.6 0.67,0.8 a 12.5,12.5 0 0 0 -1.46,1.16 z"
         id="path12"
         inkscape:connector-curvature="0"
         style="fill:#99c82a;fill-opacity:1" />
      <path
         class="cls-1"
         d="m 20.184487,27.841794 c 0,0 -4.16,-2.53 -5,-4.49 0.43,1.7 0.34,3.54 5,4.49 z"
         id="path14"
         inkscape:connector-curvature="0"
         style="fill:#99c82a;fill-opacity:1" />
      <path
         class="cls-1"
         d="m 25.874487,27.391794 c 0,0 1.24,-1.34 1.76,-1.34 0.52,0 2,-0.43 2,-0.43 0,0 -0.83,1.63 -3.76,1.77 z"
         id="path16"
         inkscape:connector-curvature="0"
         style="fill:#99c82a;fill-opacity:1" />
    </g>
    <g
       transform="matrix(0.98720481,0,0,0.98720481,10.183321,1.6861382)"
       id="g977">
      <path
         class="cls-2"
         d="m 46.427313,33.844528 -3.62,-5.83 -1.45,2.08 v 3.75 h -2.31 v -13.69 h 2.31 v 6.55 l 4.42,-6.55 h 2.63 l -4.07,6 4.85,7.71 z"
         id="path18"
         inkscape:connector-curvature="0"
         style="fill:#99c82a;fill-opacity:1" />
      <path
         class="cls-2"
         d="m 55.047313,32.844528 a 2.19,2.19 0 0 1 -1.05,0.85 3.86,3.86 0 0 1 -1.57,0.33 3.44,3.44 0 0 1 -2.38,-0.8 3,3 0 0 1 -0.88,-2.29 3.28,3.28 0 0 1 1.24,-2.72 5.55,5.55 0 0 1 3.52,-1 3.67,3.67 0 0 1 0.92,0.14 q 0,-1.77 -2.12,-1.77 a 4.5,4.5 0 0 0 -2.1,0.44 l -0.49,-1.79 a 6,6 0 0 1 2.73,-0.58 4.28,4.28 0 0 1 3.19,1 q 1,1 1,3.95 v 2.14 c 0,1.33 0.25,2.17 0.76,2.51 a 1.23,1.23 0 0 1 -0.61,0.62 2.34,2.34 0 0 1 -0.77,0.12 1.2,1.2 0 0 1 -0.86,-0.38 1.89,1.89 0 0 1 -0.53,-0.77 z m -0.2,-3.71 a 4.4,4.4 0 0 0 -0.85,-0.12 q -2.63,0 -2.63,1.81 0,1.34 1.48,1.35 2,0 2,-2.1 z"
         id="path20"
         inkscape:connector-curvature="0"
         style="fill:#99c82a;fill-opacity:1" />
      <path
         class="cls-2"
         d="m 60.657313,33.294528 -0.5,0.74 h -1.24 v -13.92 l 2.22,-0.56 v 4.67 a 3.51,3.51 0 0 1 1.91,-0.57 4.35,4.35 0 0 1 3.36,1.39 5,5 0 0 1 1.28,3.55 5.8,5.8 0 0 1 -1.29,4 4.4,4.4 0 0 1 -3.49,1.46 3.61,3.61 0 0 1 -2.25,-0.76 z m 0.47,-7.07 v 5.21 a 1.61,1.61 0 0 0 1.32,0.61 2.82,2.82 0 0 0 2.28,-0.8 4,4 0 0 0 0.67,-2.57 q 0,-3 -2.77,-3 a 1.89,1.89 0 0 0 -1.49,0.55 z"
         id="path22"
         inkscape:connector-curvature="0"
         style="fill:#99c82a;fill-opacity:1" />
      <path
         class="cls-2"
         d="m 70.867313,33.294528 -0.5,0.74 h -1.25 v -13.92 l 2.22,-0.56 v 4.67 a 3.51,3.51 0 0 1 1.93,-0.57 4.36,4.36 0 0 1 3.37,1.39 5,5 0 0 1 1.28,3.55 5.81,5.81 0 0 1 -1.29,4 4.41,4.41 0 0 1 -3.49,1.46 3.61,3.61 0 0 1 -2.27,-0.76 z m 0.47,-7.07 v 5.21 a 1.61,1.61 0 0 0 1.32,0.61 2.82,2.82 0 0 0 2.28,-0.8 4,4 0 0 0 0.67,-2.57 q 0,-3 -2.77,-3 a 1.88,1.88 0 0 0 -1.5,0.55 z"
         id="path24"
         inkscape:connector-curvature="0"
         style="fill:#99c82a;fill-opacity:1" />
      <path
         class="cls-2"
         d="m 84.797313,32.844528 a 2.19,2.19 0 0 1 -1.05,0.85 3.85,3.85 0 0 1 -1.57,0.33 3.43,3.43 0 0 1 -2.42,-0.81 3,3 0 0 1 -0.88,-2.29 3.28,3.28 0 0 1 1.24,-2.72 5.56,5.56 0 0 1 3.52,-1 3.7,3.7 0 0 1 0.92,0.14 q 0,-1.77 -2.12,-1.77 a 4.51,4.51 0 0 0 -2.09,0.44 l -0.48,-1.78 a 6,6 0 0 1 2.73,-0.58 4.27,4.27 0 0 1 3.19,1 q 1,1 1,3.95 v 2.14 c 0,1.33 0.25,2.17 0.76,2.51 a 1.24,1.24 0 0 1 -0.61,0.62 2.33,2.33 0 0 1 -0.77,0.12 1.21,1.21 0 0 1 -0.86,-0.38 1.9,1.9 0 0 1 -0.51,-0.77 z m -0.22,-3.71 a 4.38,4.38 0 0 0 -0.85,-0.12 q -2.63,0 -2.63,1.81 0,1.34 1.48,1.35 2,0 2,-2.1 z"
         id="path26"
         inkscape:connector-curvature="0"
         style="fill:#99c82a;fill-opacity:1" />
      <path
         class="cls-2"
         d="m 88.117313,36.434528 1.4,-1.82 a 3.79,3.79 0 0 0 4.17,0.82 0.91,0.91 0 0 0 0.62,-0.82 c 0,-0.59 -0.46,-0.89 -1.38,-0.89 a 9.55,9.55 0 0 0 -1.11,0.09 9.61,9.61 0 0 1 -1.11,0.09 q -2.29,0 -2.29,-1.73 a 1.55,1.55 0 0 1 0.38,-1 2.39,2.39 0 0 1 0.89,-0.7 3.59,3.59 0 0 1 -1.64,-3.13 3.49,3.49 0 0 1 1.12,-2.66 3.87,3.87 0 0 1 2.78,-1.05 4.17,4.17 0 0 1 2.1,0.5 l 0.87,-1.07 1.54,1.47 -1.06,0.81 a 3.83,3.83 0 0 1 0.58,2.09 3.77,3.77 0 0 1 -1,2.73 3.33,3.33 0 0 1 -2.5,1 5.68,5.68 0 0 1 -0.64,0 l -0.37,-0.05 a 2.33,2.33 0 0 0 -0.47,0.2 c -0.28,0.13 -0.41,0.27 -0.41,0.42 0,0.15 0.21,0.37 0.61,0.37 a 5.07,5.07 0 0 0 0.92,-0.14 5.52,5.52 0 0 1 1.11,-0.14 q 3.24,0 3.24,2.74 a 2.72,2.72 0 0 1 -1.3,2.38 5.51,5.51 0 0 1 -3.13,0.86 6.33,6.33 0 0 1 -3.92,-1.37 z m 2.22,-9.06 a 2.09,2.09 0 0 0 0.47,1.42 1.57,1.57 0 0 0 1.25,0.54 1.48,1.48 0 0 0 1.22,-0.52 2.22,2.22 0 0 0 0.43,-1.44 1.88,1.88 0 0 0 -0.46,-1.28 1.5,1.5 0 0 0 -1.2,-0.55 1.64,1.64 0 0 0 -1.24,0.51 1.81,1.81 0 0 0 -0.47,1.3 z"
         id="path28"
         inkscape:connector-curvature="0"
         style="fill:#99c82a;fill-opacity:1" />
      <path
         class="cls-2"
         d="m 106.04731,29.554528 h -6.759997 a 2.61,2.61 0 0 0 0.759997,1.88 2.74,2.74 0 0 0 1.94,0.66 3,3 0 0 0 2.31,-0.83 l 0.86,1.78 a 5.26,5.26 0 0 1 -3.5,1 4.5,4.5 0 0 1 -3.439997,-1.34 5.24,5.24 0 0 1 -1.26,-3.74 5.34,5.34 0 0 1 1.39,-3.83 4.69,4.69 0 0 1 6.699997,-0.18 4.58,4.58 0 0 1 1.25,3.31 6.87,6.87 0 0 1 -0.25,1.29 z m -6.709997,-1.76 h 4.709997 a 2.13,2.13 0 0 0 -2.31,-2.2 c -1.28,0.01 -2.059997,0.74 -2.379997,2.21 z"
         id="path30"
         inkscape:connector-curvature="0"
         style="fill:#99c82a;fill-opacity:1" />
    </g>
  </g>
</svg>
