<?xml version="1.0" encoding="UTF-8" standalone="no"?>
<!-- Created with Inkscape (http://www.inkscape.org/) -->

<svg
   xmlns:dc="http://purl.org/dc/elements/1.1/"
   xmlns:cc="http://creativecommons.org/ns#"
   xmlns:rdf="http://www.w3.org/1999/02/22-rdf-syntax-ns#"
   xmlns:svg="http://www.w3.org/2000/svg"
   xmlns="http://www.w3.org/2000/svg"
   xmlns:sodipodi="http://sodipodi.sourceforge.net/DTD/sodipodi-0.dtd"
   xmlns:inkscape="http://www.inkscape.org/namespaces/inkscape"
   width="120"
   height="60"
   id="svg3149"
   version="1.1"
   inkscape:version="0.48.3.1 r9886"
   sodipodi:docname="xregexp-ar21.svg"
   inkscape:export-filename="/home/amarcuse/site/hackerlogos/xregexp/xregexp-120x60.png"
   inkscape:export-xdpi="90"
   inkscape:export-ydpi="90">
  <defs
     id="defs3151" />
  <sodipodi:namedview
     id="base"
     pagecolor="#ffffff"
     bordercolor="#666666"
     borderopacity="1.0"
     inkscape:pageopacity="0.0"
     inkscape:pageshadow="2"
     inkscape:zoom="4.4502317"
     inkscape:cx="50.04896"
     inkscape:cy="12.8168"
     inkscape:document-units="px"
     inkscape:current-layer="layer1"
     showgrid="false"
     inkscape:window-width="1171"
     inkscape:window-height="737"
     inkscape:window-x="189"
     inkscape:window-y="130"
     inkscape:window-maximized="0"
     fit-margin-top="0"
     fit-margin-left="0"
     fit-margin-right="0"
     fit-margin-bottom="0" />
  <metadata
     id="metadata3154">
    <rdf:RDF>
      <cc:Work
         rdf:about="">
        <dc:format>image/svg+xml</dc:format>
        <dc:type
           rdf:resource="http://purl.org/dc/dcmitype/StillImage" />
        <dc:title></dc:title>
      </cc:Work>
    </rdf:RDF>
  </metadata>
  <g
     inkscape:label="Layer 1"
     inkscape:groupmode="layer"
     id="layer1"
     transform="translate(-2.1471041,-985.179)">
    <path
       inkscape:connector-curvature="0"
       id="path3087"
       style="font-size:28px;font-style:normal;font-variant:normal;font-weight:normal;font-stretch:normal;text-align:start;line-height:125%;letter-spacing:-0.11520004px;word-spacing:0px;writing-mode:lr-tb;text-anchor:start;fill:#999999;fill-opacity:1;stroke:#999999;stroke-width:1.19908929;stroke-linecap:square;stroke-opacity:1;font-family:Cambria;-inkscape-font-specification:Cambria"
       d="m 16.258714,1003.6744 0,0.6974 c -0.45539,0.067 -0.782695,0.1897 -0.98192,0.3699 -0.199236,0.1803 -0.298851,0.427 -0.298844,0.7401 -7e-6,0.2657 0.09012,0.5977 0.270383,0.9961 0.18025,0.3985 0.436402,0.8729 0.76846,1.4231 l 2.063455,3.458 2.034993,-3.2873 c 0.303578,-0.4932 0.531269,-0.887 0.683075,-1.1811 0.151782,-0.2941 0.256141,-0.5407 0.313075,-0.74 0.0664,-0.1991 0.0996,-0.4031 0.09961,-0.6119 -1.1e-5,-0.2941 -0.08539,-0.5408 -0.256152,-0.74 -0.170781,-0.2087 -0.455395,-0.351 -0.853844,-0.4269 l 0,-0.6974 5.279599,0 0,0.6974 c -0.351041,0.1138 -0.66886,0.2799 -0.953459,0.4981 -0.275142,0.2182 -0.573987,0.536 -0.896536,0.9534 -0.31309,0.4174 -0.763729,1.0768 -1.351918,1.9781 l -3.216144,4.9807 3.614604,5.9485 c 0.512293,0.8444 0.877547,1.4372 1.095766,1.7789 0.227677,0.332 0.436393,0.6166 0.626151,0.8538 0.199216,0.2276 0.407933,0.4269 0.626153,0.5977 0.227676,0.1708 0.507546,0.3177 0.839612,0.4411 l 0,0.6973 -6.247288,0 0,-0.6973 c 0.436399,-0.076 0.758961,-0.1944 0.96769,-0.3558 0.208706,-0.1707 0.313064,-0.4222 0.313075,-0.7542 -1.1e-5,-0.2656 -0.07116,-0.5597 -0.21346,-0.8822 -0.132832,-0.3226 -0.341549,-0.7211 -0.626153,-1.1955 l -2.57576,-4.2977 -2.718069,4.4543 c -0.455388,0.7495 -0.683079,1.3661 -0.683075,1.85 -4e-6,0.313 0.08538,0.5692 0.256153,0.7684 0.170764,0.1992 0.455378,0.3368 0.853844,0.4127 l 0,0.6973 -5.3792142,0 0,-0.6973 c 0.3510242,-0.1043 0.6403822,-0.2276 0.8680742,-0.3699 0.227691,-0.1519 0.445895,-0.3417 0.654614,-0.5693 0.208715,-0.2277 0.44115,-0.5171 0.697305,-0.8681 0.256151,-0.351 0.664097,-0.9629 1.223843,-1.8358 l 3.35845,-5.2368 -4.013064,-6.6031 c -0.379488,-0.6072 -0.668846,-1.0483 -0.868074,-1.3235 -0.189745,-0.2751 -0.37,-0.4981 -0.540767,-0.6688 -0.161284,-0.1708 -0.308334,-0.2894 -0.441153,-0.3558 -0.13282,-0.076 -0.284616,-0.1423 -0.455383,-0.1992 l 0,-0.6974 6.062288,0" />
    <path
       inkscape:connector-curvature="0"
       id="path3089"
       style="font-size:28px;font-style:normal;font-variant:normal;font-weight:normal;font-stretch:normal;text-align:start;line-height:125%;letter-spacing:-0.11520004px;word-spacing:0px;writing-mode:lr-tb;text-anchor:start;fill:#000000;fill-opacity:1;stroke:#000000;stroke-width:1.19908929;stroke-opacity:1;font-family:Cambria;-inkscape-font-specification:Cambria"
       d="m 32.034524,1014.6606 0,4.8385 c -6e-6,0.683 0.02371,1.1811 0.07115,1.4942 0.05691,0.3036 0.137557,0.536 0.241922,0.6972 0.104353,0.1519 0.246659,0.2799 0.426922,0.3843 0.180248,0.095 0.488581,0.2039 0.924997,0.3273 l 0,0.6973 -6.005366,0 0,-0.6973 c 0.588201,-0.1518 0.981918,-0.3178 1.18115,-0.4981 0.199227,-0.1897 0.327304,-0.4554 0.38423,-0.7969 0.06641,-0.3415 0.09961,-0.8633 0.09961,-1.5653 l 0,-12.3096 c -4e-6,-0.6546 -0.02372,-1.129 -0.07115,-1.4231 -0.04744,-0.3035 -0.12808,-0.536 -0.241922,-0.6973 -0.104362,-0.1709 -0.246668,-0.3037 -0.426922,-0.3985 -0.180258,-0.1044 -0.48859,-0.2182 -0.924997,-0.3415 l 0,-0.6974 7.044208,0 c 2.219982,10e-5 3.880232,0.4032 4.980754,1.2096 1.100494,0.8065 1.650748,2.0588 1.650763,3.757 -1.5e-5,1.2997 -0.360526,2.405 -1.081534,3.3158 -0.71155,0.9108 -1.783597,1.6223 -3.216144,2.1345 l 0,0.1139 c 0.578704,0.2372 1.072036,0.5787 1.479995,1.0246 0.417422,0.4365 0.877548,1.1195 1.380381,2.0492 l 1.280765,2.3339 c 0.369983,0.6831 0.687802,1.2049 0.953458,1.5653 0.265624,0.3606 0.536007,0.6357 0.811151,0.8254 0.27511,0.1898 0.640365,0.3226 1.095766,0.3985 l 0,0.6973 -3.94191,0 c -0.360525,-0.5028 -0.702063,-1.0436 -1.024613,-1.6223 -0.322575,-0.5787 -0.640394,-1.1669 -0.953458,-1.7646 l -1.252304,-2.3766 c -0.379496,-0.721 -0.692572,-1.2522 -0.939227,-1.5937 -0.237189,-0.3416 -0.460137,-0.5788 -0.668844,-0.7116 -0.199239,-0.1423 -0.417444,-0.2372 -0.654614,-0.2846 -0.2277,-0.057 -0.573981,-0.085 -1.038843,-0.085 l -1.565379,0 m 0,-9.6769 0,8.453 1.608072,0 c 0.825374,0 1.494216,-0.057 2.006531,-0.1707 0.512296,-0.1233 0.986654,-0.3511 1.423073,-0.6831 0.436398,-0.3321 0.782678,-0.7921 1.038843,-1.3803 0.265627,-0.5978 0.398447,-1.3283 0.39846,-2.1916 -1.3e-5,-0.9013 -0.15655,-1.6507 -0.469614,-2.2485 -0.303601,-0.5977 -0.76847,-1.053 -1.39461,-1.3661 -0.626162,-0.313 -1.470518,-0.4696 -2.533069,-0.4696 -0.853852,0 -1.546412,0.019 -2.077686,0.057" />
    <path
       inkscape:connector-curvature="0"
       id="path3091"
       style="font-size:28px;font-style:normal;font-variant:normal;font-weight:normal;font-stretch:normal;text-align:start;line-height:125%;letter-spacing:-0.11520004px;word-spacing:0px;writing-mode:lr-tb;text-anchor:start;fill:#000000;fill-opacity:1;stroke:#000000;stroke-width:1.19908929;stroke-opacity:1;font-family:Cambria;-inkscape-font-specification:Cambria"
       d="m 56.19223,1020.6802 c -0.60719,0.6356 -1.166931,1.1337 -1.679226,1.4943 -0.502829,0.3604 -1.057827,0.6451 -1.664995,0.8538 -0.607186,0.1992 -1.276029,0.2988 -2.006531,0.2988 -1.954359,0 -3.429609,-0.5835 -4.425755,-1.7503 -0.996153,-1.1765 -1.494229,-2.9079 -1.494226,-5.1943 -3e-6,-1.4135 0.251407,-2.6611 0.754228,-3.7427 0.512303,-1.0815 1.238069,-1.9163 2.1773,-2.5045 0.939223,-0.5882 2.020757,-0.8824 3.244606,-0.8824 0.958193,0 1.774087,0.1519 2.447684,0.4554 0.673577,0.3036 1.2096,0.721 1.608072,1.2523 0.407935,0.5218 0.72101,1.1859 0.939228,1.9923 0.227678,0.7969 0.355754,1.8405 0.384229,3.1308 l -8.965356,0 0,0.2561 c -4e-6,1.1195 0.123329,2.0635 0.369999,2.8319 0.256148,0.759 0.668839,1.3567 1.238073,1.7931 0.57871,0.4269 1.328194,0.6404 2.248454,0.6404 0.777938,0 1.475243,-0.1423 2.091917,-0.427 0.626141,-0.294 1.247549,-0.7683 1.864225,-1.423 l 0.868074,0.925 m -2.390762,-5.7777 c -0.05694,-1.0246 -0.185009,-1.8594 -0.38423,-2.5046 -0.199239,-0.6546 -0.498084,-1.1526 -0.896535,-1.4943 -0.398469,-0.3509 -0.920261,-0.5264 -1.56538,-0.5264 -0.977182,0 -1.759872,0.3937 -2.348069,1.1811 -0.57872,0.778 -0.920258,1.8927 -1.024612,3.3442 l 6.218826,0" />
    <path
       inkscape:connector-curvature="0"
       id="path3093"
       style="font-size:28px;font-style:normal;font-variant:normal;font-weight:normal;font-stretch:normal;text-align:start;line-height:125%;letter-spacing:-0.11520004px;word-spacing:0px;writing-mode:lr-tb;text-anchor:start;fill:#000000;fill-opacity:1;stroke:#000000;stroke-width:1.19908929;stroke-linecap:square;stroke-opacity:1;font-family:Cambria;-inkscape-font-specification:Cambria"
       d="m 71.697655,1010.9322 -2.632684,-0.1 -0.128076,0.1566 c 0.29409,0.294 0.526525,0.6973 0.697305,1.2096 0.170756,0.5028 0.256141,1.0484 0.256153,1.6366 -1.2e-5,1.5463 -0.479112,2.7417 -1.437303,3.5861 -0.948725,0.8349 -2.300643,1.2523 -4.055756,1.2523 -0.78744,0 -1.465771,-0.1 -2.034993,-0.2989 -0.721028,0.5502 -1.081539,1.0911 -1.081536,1.6223 -3e-6,0.351 0.06641,0.6166 0.19923,0.7969 0.142303,0.1803 0.369995,0.3083 0.683075,0.3842 0.322558,0.076 0.806403,0.1139 1.451534,0.1139 l 3.415374,0 c 1.005627,0 1.826265,0.1565 2.461915,0.4696 0.635626,0.3131 1.086265,0.7353 1.351919,1.2666 0.275113,0.5218 0.412677,1.1337 0.41269,1.8358 -1.3e-5,0.8917 -0.256166,1.6839 -0.768459,2.3765 -0.512318,0.702 -1.252315,1.2475 -2.219992,1.6365 -0.967699,0.3889 -2.096668,0.5835 -3.386913,0.5835 -0.958208,0 -1.835769,-0.057 -2.632683,-0.1708 -0.787438,-0.1139 -1.465769,-0.3083 -2.034994,-0.5835 -0.559744,-0.2657 -0.996152,-0.6214 -1.309226,-1.0673 -0.303591,-0.4364 -0.455385,-0.9866 -0.455384,-1.6508 -10e-7,-0.5977 0.199229,-1.1432 0.597691,-1.6365 0.398458,-0.4839 0.962943,-0.9107 1.693456,-1.2808 -0.445899,-0.1802 -0.796923,-0.4459 -1.053074,-0.7969 -0.256154,-0.351 -0.384231,-0.7636 -0.38423,-1.2381 -1e-6,-0.5407 0.151793,-1.0341 0.455383,-1.48 0.303588,-0.4553 0.83961,-0.9724 1.608072,-1.5511 -0.683077,-0.3985 -1.20487,-0.9392 -1.565379,-1.6223 -0.351026,-0.683 -0.526538,-1.461 -0.526536,-2.3339 -2e-6,-0.8158 0.132817,-1.5226 0.398459,-2.1203 0.275126,-0.6072 0.649868,-1.1052 1.124227,-1.4942 0.483842,-0.3985 1.05307,-0.6926 1.707687,-0.8824 0.654608,-0.1992 1.3614,-0.2988 2.120379,-0.2988 0.683066,0 1.361397,0.08 2.034993,0.2419 l 5.037676,0 0,1.4373 m -9.876122,2.8889 c -5e-6,1.1859 0.241918,2.1014 0.725767,2.7466 0.483838,0.6451 1.181144,0.9676 2.091917,0.9676 0.483836,0 0.896527,-0.09 1.238072,-0.2704 0.341528,-0.1897 0.616656,-0.4459 0.825382,-0.7684 0.218195,-0.3226 0.374733,-0.6926 0.469614,-1.11 0.104348,-0.427 0.156529,-0.8728 0.156538,-1.3378 -9e-6,-0.8347 -0.1186,-1.5321 -0.355768,-2.0918 -0.237188,-0.5598 -0.559751,-0.9677 -0.967689,-1.2239 -0.407956,-0.2656 -0.87757,-0.3984 -1.408842,-0.3984 -0.901285,0 -1.589103,0.2988 -2.063455,0.8965 -0.474361,0.5977 -0.711541,1.4611 -0.711536,2.59 m 0.355768,9.5061 c -0.483849,0.3605 -0.849104,0.74 -1.095766,1.1384 -0.237182,0.408 -0.355771,0.8681 -0.355768,1.3804 -3e-6,0.8538 0.33679,1.48 1.010381,1.8785 0.68307,0.4079 1.721912,0.6119 3.116529,0.6119 0.853835,0 1.584345,-0.1139 2.191531,-0.3415 0.616655,-0.2277 1.086268,-0.555 1.408842,-0.982 0.322552,-0.4269 0.483833,-0.925 0.483845,-1.4941 -1.2e-5,-0.2657 -0.03321,-0.5266 -0.09961,-0.7828 -0.06642,-0.2467 -0.194498,-0.4696 -0.38423,-0.6688 -0.180266,-0.1993 -0.441163,-0.3605 -0.78269,-0.4838 -0.341546,-0.1139 -0.787442,-0.1708 -1.337687,-0.1708 l -2.120379,0 c -0.768465,0 -1.446795,-0.028 -2.034993,-0.085" />
    <path
       inkscape:connector-curvature="0"
       id="path3095"
       style="font-size:28px;font-style:normal;font-variant:normal;font-weight:normal;font-stretch:normal;text-align:start;line-height:125%;letter-spacing:-0.11520004px;word-spacing:0px;writing-mode:lr-tb;text-anchor:start;fill:#000000;fill-opacity:1;stroke:#000000;stroke-width:1.19908881;stroke-linecap:square;stroke-miterlimit:4;stroke-opacity:1;stroke-dasharray:none;font-family:Cambria;-inkscape-font-specification:Cambria"
       d="m 86.861543,1003.6744 0,4.2977 -1.39461,0 c -0.142321,-0.4648 -0.289372,-0.8728 -0.441154,-1.2237 -0.151806,-0.3511 -0.308344,-0.6452 -0.469613,-0.8824 -0.161294,-0.2371 -0.341549,-0.4269 -0.540768,-0.5692 -0.189755,-0.1423 -0.417446,-0.2372 -0.683075,-0.2846 -0.265651,-0.057 -0.58347,-0.085 -0.953457,-0.085 l -4.49691,0 0,7.4569 3.045375,0 c 0.417426,0 0.744732,-0.057 0.981921,-0.1707 0.237167,-0.1234 0.431654,-0.3274 0.583459,-0.612 0.161271,-0.2847 0.313065,-0.7305 0.455384,-1.3377 l 1.337687,0 0,5.4646 -1.337687,0 c -0.132832,-0.5693 -0.279883,-0.9961 -0.441153,-1.2808 -0.161292,-0.2941 -0.355778,-0.5028 -0.58346,-0.6261 -0.218214,-0.1233 -0.550264,-0.185 -0.996151,-0.1851 l -3.045375,0 0,8.2112 4.425755,0 c 0.46486,0 0.839602,-0.038 1.124227,-0.1139 0.29409,-0.085 0.545499,-0.2228 0.754229,-0.4126 0.208705,-0.1992 0.393704,-0.4554 0.554998,-0.7685 0.161269,-0.3131 0.294088,-0.6356 0.39846,-0.9677 0.113833,-0.3415 0.265628,-0.8348 0.455383,-1.48 l 1.408842,0 -0.270384,4.995 -13.17765,0 0,-0.6973 c 0.588201,-0.1518 0.981918,-0.3178 1.181151,-0.4981 0.199227,-0.1897 0.327303,-0.4554 0.384229,-0.7969 0.06641,-0.3415 0.09961,-0.8633 0.09961,-1.5653 l 0,-12.3096 c -5e-6,-0.6546 -0.02372,-1.129 -0.07116,-1.4231 -0.04744,-0.3035 -0.128079,-0.536 -0.241922,-0.6973 -0.104361,-0.1709 -0.246669,-0.3037 -0.426922,-0.3985 -0.180257,-0.1044 -0.48859,-0.2182 -0.924997,-0.3415 l 0,-0.6974 13.305727,0" />
    <path
       inkscape:connector-curvature="0"
       id="path3097"
       style="font-size:28px;font-style:normal;font-variant:normal;font-weight:normal;font-stretch:normal;text-align:start;line-height:125%;letter-spacing:-0.11520004px;word-spacing:0px;writing-mode:lr-tb;text-anchor:start;fill:#000000;fill-opacity:1;stroke:#000000;stroke-width:1.19908929;stroke-opacity:1;font-family:Cambria;-inkscape-font-specification:Cambria"
       d="m 95.906216,1014.8883 1.849995,-2.3481 c 0.19922,-0.2562 0.360502,-0.5028 0.483843,-0.74 0.123324,-0.2466 0.18499,-0.498 0.185001,-0.7542 -1.1e-5,-0.2182 -0.08065,-0.3984 -0.241923,-0.5408 -0.161291,-0.1423 -0.4127,-0.2466 -0.754228,-0.313 l 0,-0.6974 4.653446,0 0,0.6974 c -0.36052,0.1043 -0.73052,0.3083 -1.10999,0.6118 -0.37002,0.3037 -0.8254,0.7922 -1.366152,1.4658 l -2.945764,3.6146 3.244604,4.3689 c 0.464862,0.6261 0.882292,1.1052 1.252312,1.4372 0.36998,0.3321 0.73998,0.5693 1.10999,0.7116 l 0,0.6973 -5.720752,0 0,-0.6973 c 0.787425,-0.095 1.181142,-0.389 1.181151,-0.8823 -9e-6,-0.1992 -0.03321,-0.3889 -0.09961,-0.5692 -0.06642,-0.1803 -0.189752,-0.389 -0.369999,-0.6262 l -2.063455,-2.8746 -2.191532,2.8462 c -0.161285,0.2087 -0.289361,0.4032 -0.384229,0.5834 -0.08539,0.1708 -0.12808,0.3652 -0.128076,0.5835 -4e-6,0.2562 0.08538,0.4697 0.256153,0.6404 0.180252,0.1613 0.460121,0.2609 0.839612,0.2988 l 0,0.6973 -4.753061,0 0,-0.6973 c 0.313075,-0.1139 0.592946,-0.2562 0.839613,-0.4269 0.256151,-0.1708 0.512304,-0.3889 0.768459,-0.6546 0.265637,-0.2752 0.611918,-0.6736 1.038843,-1.1954 l 2.95999,-3.6715 -3.031145,-4.1554 c -0.417437,-0.5692 -0.749486,-0.982 -0.99615,-1.2381 -0.246668,-0.2561 -0.474358,-0.4506 -0.683075,-0.5834 -0.208718,-0.1328 -0.417435,-0.2277 -0.626151,-0.2846 l 0,-0.6974 5.578443,0 0,0.6974 c -0.74949,0.1138 -1.124232,0.4079 -1.124227,0.8822 -5e-6,0.2183 0.04743,0.4365 0.142307,0.6547 0.104354,0.2182 0.260891,0.4601 0.469614,0.7258 l 1.736148,2.4334" />
    <path
       inkscape:connector-curvature="0"
       id="path3099"
       style="font-size:28px;font-style:normal;font-variant:normal;font-weight:normal;font-stretch:normal;text-align:start;line-height:125%;letter-spacing:-0.11520004px;word-spacing:0px;writing-mode:lr-tb;text-anchor:start;fill:#000000;fill-opacity:1;stroke:#000000;stroke-width:1.19908929;stroke-opacity:1;font-family:Cambria;-inkscape-font-specification:Cambria"
       d="m 107.74012,1022.6725 0,3.0027 c -1e-5,0.6166 0.0189,1.0768 0.0569,1.3803 0.0475,0.3037 0.12332,0.5409 0.22769,0.7116 0.11384,0.1803 0.27038,0.3273 0.46961,0.4411 0.20872,0.1139 0.54077,0.2183 0.99615,0.3131 l 0,0.6973 -5.80613,0 0,-0.6973 c 0.34153,-0.095 0.61666,-0.1944 0.82538,-0.2988 0.2182,-0.095 0.38422,-0.2419 0.49807,-0.4412 0.11384,-0.1897 0.18974,-0.4507 0.22769,-0.7827 0.038,-0.332 0.0569,-0.7732 0.0569,-1.3234 l 0,-12.21 c 0,-0.6831 -0.009,-1.1669 -0.0284,-1.4515 -0.0189,-0.2941 -0.0569,-0.536 -0.11384,-0.7258 -0.0569,-0.1897 -0.1423,-0.3463 -0.25616,-0.4696 -0.10435,-0.1234 -0.2514,-0.2277 -0.44114,-0.3131 -0.18026,-0.085 -0.48385,-0.1707 -0.91077,-0.2562 l 0,-0.7542 3.34422,-0.128 0.86807,0 -0.18499,2.3196 0.21345,0.057 c 0.5882,-0.5976 1.05308,-1.0293 1.39462,-1.295 0.34153,-0.2751 0.69256,-0.5028 1.05307,-0.6831 0.36999,-0.1802 0.72102,-0.3083 1.05307,-0.3841 0.34153,-0.076 0.70204,-0.1139 1.08154,-0.1139 1.56536,0 2.76549,0.5882 3.60037,1.7646 0.84435,1.1669 1.26652,2.8794 1.26654,5.1372 -2e-5,1.5655 -0.2372,2.8842 -0.71155,3.9562 -0.47437,1.0626 -1.16692,1.8642 -2.07768,2.405 -0.90129,0.5313 -1.97808,0.7969 -3.23037,0.7969 -0.70206,0 -1.3377,-0.061 -1.90691,-0.1849 -0.56925,-0.1139 -1.09104,-0.2705 -1.56539,-0.4697 m 0,-4.6961 c -10e-6,0.9108 0.0569,1.6128 0.17077,2.1061 0.11384,0.4934 0.31307,0.8965 0.59769,1.2096 0.2941,0.3036 0.63563,0.5313 1.02462,0.6831 0.39845,0.1518 0.92024,0.2277 1.56537,0.2277 1.14794,0 2.01127,-0.4743 2.58999,-1.4231 0.57871,-0.9581 0.86806,-2.3671 0.86808,-4.2265 -2e-5,-3.7189 -1.08629,-5.5785 -3.25883,-5.5785 -0.5313,0 -0.99142,0.085 -1.38038,0.2562 -0.37949,0.1613 -0.75899,0.427 -1.13846,0.7969 -0.37949,0.37 -0.64988,0.7306 -0.81115,1.0816 -0.15181,0.3415 -0.22771,0.7115 -0.2277,1.11 l 0,3.7569" />
  </g>
</svg>
