<?xml version="1.0" encoding="UTF-8" standalone="no"?>
<svg
   xmlns:dc="http://purl.org/dc/elements/1.1/"
   xmlns:cc="http://creativecommons.org/ns#"
   xmlns:rdf="http://www.w3.org/1999/02/22-rdf-syntax-ns#"
   xmlns:svg="http://www.w3.org/2000/svg"
   xmlns="http://www.w3.org/2000/svg"
   xmlns:sodipodi="http://sodipodi.sourceforge.net/DTD/sodipodi-0.dtd"
   xmlns:inkscape="http://www.inkscape.org/namespaces/inkscape"
   viewBox="0 0 64 64"
   version="1.1"
   id="svg20"
   sodipodi:docname="servicenow-icon.svg"
   width="64"
   height="64"
   inkscape:version="0.92.3 (2405546, 2018-03-11)">
  <metadata
     id="metadata24">
    <rdf:RDF>
      <cc:Work
         rdf:about="">
        <dc:format>image/svg+xml</dc:format>
        <dc:type
           rdf:resource="http://purl.org/dc/dcmitype/StillImage" />
        <dc:title>Asset 1</dc:title>
      </cc:Work>
    </rdf:RDF>
  </metadata>
  <sodipodi:namedview
     pagecolor="#ffffff"
     bordercolor="#666666"
     borderopacity="1"
     objecttolerance="10"
     gridtolerance="10"
     guidetolerance="10"
     inkscape:pageopacity="0"
     inkscape:pageshadow="2"
     inkscape:window-width="1920"
     inkscape:window-height="1001"
     id="namedview22"
     showgrid="false"
     inkscape:zoom="2.9019004"
     inkscape:cx="16.368584"
     inkscape:cy="16"
     inkscape:window-x="-9"
     inkscape:window-y="-9"
     inkscape:window-maximized="1"
     inkscape:current-layer="svg20" />
  <defs
     id="defs4">
    <style
       id="style2">.cls-1,.cls-3{fill:#293e40;}.cls-1,.cls-2{fill-rule:evenodd;}.cls-2{fill:#81b5a1;}</style>
  </defs>
  <title
     id="title6">Asset 1</title>
  <path
     class="cls-2"
     d="M 32.195497,3.3123839 A 32.266941,32.266941 0 0 0 9.9492349,58.883226 a 6.3458318,6.3458318 0 0 0 8.2639211,0.430226 23.035011,23.035011 0 0 1 27.444827,0 6.3637578,6.3637578 0 0 0 8.389404,-0.430226 A 32.266941,32.266941 0 0 0 32.195497,3.3123839 M 32.01625,51.587311 a 15.631541,15.631541 0 0 1 -16.13347,-16.025912 16.04384,16.04384 0 1 1 32.069752,0 15.613615,15.613615 0 0 1 -16.025913,16.025912"
     id="path10"
     inkscape:connector-curvature="0"
     style="fill:#81b5a1;fill-rule:evenodd;stroke-width:1.79260778" />
</svg>
