<?xml version="1.0" encoding="UTF-8" standalone="no"?>
<svg
   xmlns:dc="http://purl.org/dc/elements/1.1/"
   xmlns:cc="http://creativecommons.org/ns#"
   xmlns:rdf="http://www.w3.org/1999/02/22-rdf-syntax-ns#"
   xmlns:svg="http://www.w3.org/2000/svg"
   xmlns="http://www.w3.org/2000/svg"
   xmlns:sodipodi="http://sodipodi.sourceforge.net/DTD/sodipodi-0.dtd"
   xmlns:inkscape="http://www.inkscape.org/namespaces/inkscape"
   width="120"
   height="60"
   viewBox="0 0 120 59.999998"
   version="1.1"
   id="svg6"
   sodipodi:docname="siemens-ar21.svg"
   inkscape:version="0.92.3 (2405546, 2018-03-11)">
  <metadata
     id="metadata12">
    <rdf:RDF>
      <cc:Work
         rdf:about="">
        <dc:format>image/svg+xml</dc:format>
        <dc:type
           rdf:resource="http://purl.org/dc/dcmitype/StillImage" />
        <dc:title></dc:title>
      </cc:Work>
    </rdf:RDF>
  </metadata>
  <defs
     id="defs10" />
  <sodipodi:namedview
     pagecolor="#ffffff"
     bordercolor="#666666"
     borderopacity="1"
     objecttolerance="10"
     gridtolerance="10"
     guidetolerance="10"
     inkscape:pageopacity="0"
     inkscape:pageshadow="2"
     inkscape:window-width="1920"
     inkscape:window-height="1001"
     id="namedview8"
     showgrid="false"
     inkscape:zoom="3.3448446"
     inkscape:cx="108.08306"
     inkscape:cy="39.912237"
     inkscape:window-x="-9"
     inkscape:window-y="-9"
     inkscape:window-maximized="1"
     inkscape:current-layer="svg6" />
  <g
     id="g823"
     transform="matrix(0.12095356,0,0,0.12095356,18.512929,23.443898)">
    <path
       id="path4"
       d="M 2.12,104.61 V 84 Q 19.74,89.54 33.3,89.54 52,89.52 52,79.62 a 8.08,8.08 0 0 0 -2.73,-6.2 Q 46.5,70.77 35,66 14.37,57.56 8.11,51.58 0,43.69 0,31.66 0,16.16 11.81,8 23.62,-0.16 42.23,0 52.56,0 72.13,3.81 v 19.85 q -14.55,-5.81 -27,-5.81 -17.58,0 -17.58,9.67 a 6.81,6.81 0 0 0 3.54,5.9 Q 34,35.26 47.3,41.24 66.42,49.73 72.76,56 q 7.53,7.45 7.53,19.27 0,17 -14.76,25.9 -12,7.24 -31,7.23 A 142.29,142.29 0 0 1 2.13,104.6 Z M 96.78,1.82 H 126 V 106.3 H 96.78 Z M 152.72,106.3 V 1.82 h 74.85 v 18.9 h -46.72 v 23.59 h 40.67 v 17.23 h -40.67 v 24.8 h 47.93 v 20 z m 95.1,0 V 1.82 h 37.84 L 312,68.57 338.9,1.82 h 35.94 V 106.3 h -27.67 v -74 l -30.64,75 h -18.09 l -30.05,-75 v 74 z m 153.79,0 V 1.82 h 74.85 v 18.9 h -46.72 v 23.59 h 40.67 v 17.23 h -40.67 v 24.8 h 47.93 v 20 z m 95.26,0 V 1.82 h 33.83 l 35.89,69.94 V 1.82 h 20.56 V 106.3 H 554.28 L 517.44,35.41 v 70.89 z m 111,-1.69 V 84 q 17.47,5.54 31.18,5.54 18.72,0 18.72,-9.89 a 8.21,8.21 0 0 0 -2.65,-6.2 q -2.81,-2.66 -14.37,-7.38 -20.56,-8.41 -26.89,-14.46 -8.1,-7.83 -8.1,-20 0,-15.43 11.81,-23.54 Q 629.22,0 648,0 q 10.54,0 27.31,3.36 l 2.58,0.45 v 19.85 q -14.56,-5.81 -27.1,-5.81 -17.51,0 -17.5,9.67 a 6.81,6.81 0 0 0 3.53,5.9 q 2.81,1.78 16.31,7.82 19,8.49 25.39,14.77 7.48,7.45 7.48,19.27 0,17 -14.69,25.9 -12,7.24 -31.08,7.23 a 142.23,142.23 0 0 1 -32.41,-3.8 z"
       inkscape:connector-curvature="0"
       style="fill:#009999" />
  </g>
</svg>
