<svg xmlns="http://www.w3.org/2000/svg" preserveAspectRatio="xMinYMax meet" width="120" height="60"><defs><clipPath id="A"><path d="M317.54 85.2a8.4 8.4 0 1 1 16.78 0c0 5.26-3.82 8.8-8.36 8.8a8.41 8.41 0 0 1-8.42-8.81m-7.15 0c0 8.7 6.92 14.8 15.57 14.8s15.5-6.1 15.5-14.8-6.92-14.8-15.57-14.8-15.5 6.15-15.5 14.8m61.05-9h-.1c-1.16-3.82-3.94-5.82-8.26-5.82a10.69 10.69 0 0 0-9.2 5.87h-.1a18.13 18.13 0 0 0 .11-1.94v-3.24h-6.76v28.26h7V86.92a14.67 14.67 0 0 1 .33-3.6c.88-3.6 3.26-6.48 6.93-6.48 3.33 0 3.82 2.6 3.82 5.65v16.85h7V86.92a15.15 15.15 0 0 1 .33-3.65c.83-3.55 3.2-6.43 6.8-6.43 3.27 0 3.88 2.44 3.88 5.65v16.85h7V81.16c0-7.42-3.38-10.75-9.25-10.75a11 11 0 0 0-9.64 5.82M293 63.38v8.15h-3.82v5.6h3.66V89c0 9.48 7.8 10.64 11.75 10.64a11.87 11.87 0 0 0 2.16-.17V93.3a6.54 6.54 0 0 1-1.28.11c-1.94 0-5.6-.66-5.6-5.32v-11h6.43v-5.56h-6.43v-8.15zm-24.6 9.53c.77-2.22 1.66-6.1 1.66-6.1h.1s.83 3.88 1.55 6.1l3.5 10.52h-10.3zM266.34 60L252.5 99.34h7.37l3.32-10.1H277l3.32 10.1h7.37L273.83 60z" fill="none"/></clipPath><clipPath id="B"><path d="M477.42 76.23l-.73-1.74zM446 91.25c0-6.1 8.7-6.27 13-6.27h1.6v1.2c0 4.78-3.2 10.28-8.47 10.28-4.12 0-6.16-2.64-6.16-5.23m-1.8-17.43l1.76 2.86a13.48 13.48 0 0 1 7.83-2.67c4 0 6.87 1.82 6.87 7.15v.7h-1.54c-4.8 0-16.94.22-16.94 9.57 0 5.5 4.78 8.2 9.4 8.2a10 10 0 0 0 9.24-6h.1a21.74 21.74 0 0 0-.11 2.31v3h3.58V81.3c0-6.93-3.68-10.62-10.34-10.62a15.87 15.87 0 0 0-9.84 3.14m33.23 2.42a8.76 8.76 0 0 0-.73 1.43h-.1s.1-1 .1-2.2v-4.12H473V99h3.74V85.75a13.71 13.71 0 0 1 .44-3.74 10.51 10.51 0 0 1 10.06-7.81c5.34 0 6 3.85 6 8.2V99H497V81.4c0-6.82-2.42-10.73-9.24-10.73a11.92 11.92 0 0 0-10.32 5.56m-61.78 9c0-7.87 4.35-11.17 9-11.17 5.17 0 8.74 4.34 8.74 11.1 0 7-4 11.17-8.9 11.17-5.94 0-8.8-5.56-8.8-11.1m-3.7-24.9V99h3.63v-2.47a22 22 0 0 0-.11-2.26h.1a10.09 10.09 0 0 0 9.07 5.39c7.26 0 12.5-5.72 12.5-14.46 0-8.58-4.62-14.52-12-14.52-7.1 0-9.4 5.34-9.4 5.34h-.1a22.57 22.57 0 0 0 .11-2.26V60.34zm93.6 0V99h3.74V85.14h4.45L523.05 99h4.45l-10.55-15.5v-.1l9.62-12h-4.5l-8.3 10.56h-4.4v-21.6z" fill="none"/></clipPath><clipPath id="C"><path d="M169.55 0a15.45 15.45 0 0 0-2.55.22h-.24a18.14 18.14 0 0 0-4.38 1.38l-.72.35-.24.13-1 .6a17.77 17.77 0 0 0-2.47 1.91l-.27.26-.3.3-1 1.1-.3.4a15 15 0 0 0-1 1.44l-.37.65-.72 1.4-.42 1-2.86 6.53-.22.52-.2.43-1 2.33-.57 1.3-.43 1-3.3 7.3-3.17 7.24-.57 1.3-1.1 2.5-.82 1.86-4.8 10.97-20.45 46.66a22.88 22.88 0 0 0-.91 2.54 20.65 20.65 0 0 0-.6 3.07 13 13 0 0 0-.11 1.85 21.51 21.51 0 0 0 .2 2.91 15.86 15.86 0 0 0 .42 2.06l.37 1.25.35 1a17.35 17.35 0 0 0 1.21 2.49l.48.8c.08.14.33.5.52.76l.84 1.07.25.3.57.63 1 1 .27.26a18.49 18.49 0 0 0 2.42 1.84l1.7 1a22.58 22.58 0 0 0 2.25 1c.13.05.26.07.4.1a19 19 0 0 0 6.66 1h.37l1.13-.08c.46 0 .9-.1 1.32-.17l.87-.15.88-.2.6-.16 1.2-.4 1.26-.5.22-.1.45-.22 1.07-.56.3-.18c.57-.33 1.06-.65 1.5-1a16.15 16.15 0 0 0 2.34-2 18.56 18.56 0 0 0 1.42-1.57l1.13-1.55.32-.48.47-.8.36-.72.76-1.7 35.17-93.6a13.41 13.41 0 0 0 .69-2.61 12.44 12.44 0 0 0 .17-1.35v-1.45a15.51 15.51 0 0 0-.41-3.58l-.22-.86a16.22 16.22 0 0 0-1-2.7 19.58 19.58 0 0 0-1.16-2l-.22-.3q-.48-.67-1-1.25l-.34-.4-1.14-1.13-.25-.24-1.2-.93-.32-.22-.38-.22-1-.62-1.4-.66-1.28-.48-.43-.14-.33-.08-1.1-.27-.32-.06-1.07-.17-.85-.1h-1.42z" fill="none"/></clipPath><clipPath id="D"><path d="M185.53 142.05zM177.17 20l-1.74.08h-1.1l-.67.12h-.1l-.9.2h-.1a12.28 12.28 0 0 0-1.82.58l-.3.1a13.39 13.39 0 0 0-1.45.65l-1 .5-.6.34-.72.46-.1.1-.93.68-.1.08-.3.25a16.7 16.7 0 0 0-1.64 1.51l-.54.64-.92 1.13-1.02 1.5c-.05.08-.1.18-.14.28l-.7 1.34c0 .1-.1.2-.14.33l-.06.14a14.85 14.85 0 0 0-.57 1.48v.1a20.49 20.49 0 0 0-.68 2.71.93.93 0 0 0 0 .13l-.18 1.62a14.29 14.29 0 0 0 0 2 .29.29 0 0 0 0 .05 16.69 16.69 0 0 0 .2 2.06l.4 1.86a.64.64 0 0 0 0 .08l26.3 98.92a23.3 23.3 0 0 0 1.47 4 24.16 24.16 0 0 0 6.41 8.35 24.69 24.69 0 0 0 4.55 3 24.28 24.28 0 0 0 11 2.67h.1a21.33 21.33 0 0 0 2.83-.18 23.44 23.44 0 0 0 17.75-12 23.84 23.84 0 0 0 2.41-6.48 23.16 23.16 0 0 0 .44-6.62 30.26 30.26 0 0 0-.59-3.75c-.2-.9-.6-2-.9-2.9l-.8-2.15-2.73-7.22-1-2.54-6.3-16.7-3-8-.93-2.45-21.5-56.92a20.77 20.77 0 0 0-1.23-2.62v-.06l-.4-.64-.18-.3-.82-1.16c-.06-.08-.14-.15-.2-.23a18.42 18.42 0 0 0-1.71-1.89l-.2-.17a23.88 23.88 0 0 0-2-1.65 16.55 16.55 0 0 0-3-1.65l-.48-.22-.4-.16-1.63-.58a16 16 0 0 0-2.24-.5l-.9-.12a17.69 17.69 0 0 0-1.89-.11h-.15" fill="none"/></clipPath><clipPath id="E"><path d="M206.97 97.2h-.06.08M200 48h-.55a21.92 21.92 0 0 0-2.57.17h-.2a25.88 25.88 0 0 0-2.64.47l-1.23.3a26 26 0 0 0-4.17 1.54l-46.5 21.68-1.06.55-.77.43-.82.52-.16.1-.64.46-.3.23-.26.22-.85.7a19.94 19.94 0 0 0-3.27 3.68l-.2.33a18.52 18.52 0 0 0-2 4l-.2.57-.26.82-.22.8-.1.4a17 17 0 0 0-.43 3.55 18.35 18.35 0 0 0 .83 6.12l.44 1.23c0 .06 0 .12.06.18l.3.68.18.4.47.93.36.64.7 1.1.13.2.1.1a18.43 18.43 0 0 0 1.82 2.24l.16.15a19.32 19.32 0 0 0 2.15 2l.6.43.3.22q.54.37 1.24.8l1 .57.7.36.12.06 1.43.6.22.1a21.28 21.28 0 0 0 3.28.93l.43.08.7.1a20.69 20.69 0 0 0 2.22.23h1.4a18.46 18.46 0 0 0 2.56-.19 19 19 0 0 0 2.16-.4l50.14-12.1 1.87-.53.45-.16q.85-.3 1.8-.7l1-.45.2-.1h.1l.1-.05a26.34 26.34 0 0 0 4.95-3.16l.14-.13.07-.05.33-.3 1.66-1.55.66-.72 1.12-1.32.63-.82 1.33-2 .2-.36a22.94 22.94 0 0 0 1.87-4.18l.2-.7c0-.07 0-.14.06-.2a22.63 22.63 0 0 0 .86-4.57l.1-1.93v-2.28c0-.18-.05-.52-.08-.77l-.08-.67-.2-1.18a19.42 19.42 0 0 0-.61-2.37l-.22-.63a21.09 21.09 0 0 0-1.53-3.52l-.32-.56-1-1.66s-.6-.9-1.53-2l-.18-.2-.37-.42-.57-.62-.26-.27a21.4 21.4 0 0 0-2-1.81l-1.4-1.07a16.64 16.64 0 0 0-1.72-1.15h-.1l-.83-.47a24.87 24.87 0 0 0-2.61-1.27 28.79 28.79 0 0 0-4.12-1.34l-.3-.07-1.66-.33-1.3-.16-.58-.06H200z" fill="none"/></clipPath></defs><g transform="matrix(.264617 0 0 .264617 -24.673076 8.827822)"><g clip-path="url(#A)"><path d="M247.5 55h147.84v50H247.5z" fill="#43364d"/></g><g clip-path="url(#B)"><path d="M407 55.34h125.5v49.33H407z" fill="#43364d"/></g><g clip-path="url(#C)"><path d="M107.5-5h84v138h-84z" fill="#fad733"/></g><g clip-path="url(#D)"><path d="M153.5 15h84v150h-84z" fill="#684e78"/></g><g clip-path="url(#E)"><path d="M125.5 43h106v72h-106z" fill="#cf356d"/></g></g></svg>