<svg xmlns="http://www.w3.org/2000/svg" width="120" height="60" fill-rule="evenodd"><path d="M7.035 30c0 9.203 7.46 16.663 16.663 16.663S40.362 39.203 40.362 30s-7.46-16.664-16.664-16.664S7.035 20.797 7.035 30z" fill="#1d4371"/><path d="M23.698 13.137a16.75 16.75 0 0 0-11.923 4.94A16.75 16.75 0 0 0 6.835 30a16.75 16.75 0 0 0 4.94 11.924c3.155 3.172 7.45 4.95 11.923 4.94 4.504 0 8.74-1.754 11.924-4.94A16.75 16.75 0 0 0 40.562 30a16.75 16.75 0 0 0-4.94-11.924c-3.156-3.173-7.45-4.95-11.924-4.94m0 .2c9.203 0 16.664 7.46 16.664 16.663s-7.46 16.663-16.664 16.663S7.035 39.203 7.035 30s7.46-16.664 16.663-16.664M34.86 37.48l-3.314.268a1.39 1.39 0 0 1-.974-.371L29.37 36.22l-1.2-1.117a.7.7 0 0 0-.515-.162.69.69 0 0 0-.628.645.7.7 0 0 0 .126.448l2.104 2.516.75.817a1.11 1.11 0 1 1-1.54 1.598l-.85-.712-3.324-2.834a.68.68 0 0 0-.933.018l-3.217 2.955-.823.743a1.11 1.11 0 1 1-1.598-1.539l.718-.845 1.997-2.568a.73.73 0 0 0 .122-.476.69.69 0 0 0-.652-.621c-.187-.01-.37.054-.508.18l-1.15 1.16-1.157 1.203a1.39 1.39 0 0 1-.96.407l-3.32-.144-1.1-.057a1.11 1.11 0 0 1-.041-2.218l1.105-.1 2.473-.308c.657-.135 1.125-.72 1.113-1.4l-.143-7.664c-.076-4.1 3.177-7.465 7.266-7.54s7.465 3.177 7.54 7.266l.143 7.663c.013.67.502 1.238 1.164 1.348l2.483.216 1.107.048a1.11 1.11 0 1 1 .042 2.218z" fill="#fff"/><path d="M28.733 25.548l-2.692-1.74c-.48-.288-1.04.1-1.03.662.004.3.158.494.4.648l1.472.958-1.57.946a.7.7 0 0 0-.232.988c.195.326.605.465.95.267l2.662-1.58c.427-.268.45-.866.04-1.15m-6.945 1.392l-1.447-.863 1.43-.93c.47-.308.6-.722.33-1.106-.25-.367-.667-.415-1.124-.12l-2.297 1.5c-.64.418-.628 1.012.03 1.406l2.323 1.374c.46.27.887.198 1.114-.177s.092-.8-.36-1.072m27.718-2.86l-1.42.058v4.306h1.055c.587 0 1.105-.032 1.553-.096s.82-.18 1.122-.346.527-.4.68-.673.23-.64.23-1.076c0-.4-.077-.756-.23-1.038s-.383-.515-.662-.673a3.13 3.13 0 0 0-1.026-.356 7.49 7.49 0 0 0-1.303-.105m-.173-2.095c1.918 0 3.385.352 4.4 1.056s1.525 1.782 1.525 3.23c0 1.807-.9 3.032-2.665 3.673l.824 1.076a31.68 31.68 0 0 1 1.86 2.893l.786 1.53h-2.7l-.786-1.394-.854-1.365-1.64-2.297-.46.02h-1.534v5.037H45.67V22.3c.62-.132 1.247-.218 1.878-.26l1.783-.068m30.428.46c0 .436-.14.782-.42 1.04a1.42 1.42 0 0 1-.997.384c-.396 0-.735-.128-1.016-.384s-.422-.602-.422-1.04c0-.448.14-.8.422-1.057s.62-.384 1.016-.384a1.43 1.43 0 0 1 .997.384c.28.257.42.6.42 1.057m-19 11.374c.717 0 1.26-.038 1.63-.116v-2.576c-.444-.118-.902-.176-1.36-.173a5.35 5.35 0 0 0-.777.058 2.38 2.38 0 0 0-.709.211 1.29 1.29 0 0 0-.509.432c-.128.186-.192.42-.192.702 0 .55.173.932.518 1.143s.812.317 1.4.317m-.2-8.67c.768 0 1.412.097 1.936.3s.943.46 1.257.808.537.766.67 1.26.2 1.035.2 1.625V35.2l-1.62.28a16.55 16.55 0 0 1-2.445.163c-.6 0-1.15-.058-1.65-.173s-.923-.3-1.275-.557a2.62 2.62 0 0 1-.824-1c-.198-.4-.297-.916-.297-1.52 0-.577.112-1.064.335-1.46a2.76 2.76 0 0 1 .911-.971c.384-.25.828-.43 1.333-.538a7.5 7.5 0 0 1 2.387-.116c.28.033.582.087.9.164v-.384a3.04 3.04 0 0 0-.095-.769 1.6 1.6 0 0 0-.335-.644 1.64 1.64 0 0 0-.633-.432c-.262-.103-.6-.154-.987-.154a8.77 8.77 0 0 0-1.477.115c-.447.077-.812.167-1.093.27l-.287-1.883c.294-.103.722-.205 1.285-.308a10.06 10.06 0 0 1 1.802-.154m12.83 5.33c0-1.038-.234-1.845-.7-2.422s-1.218-.865-2.253-.865l-.682.028a3.71 3.71 0 0 0-.7.125v5.748a3.54 3.54 0 0 0 .815.395 3.17 3.17 0 0 0 1.083.183c.843 0 1.46-.3 1.85-.865s.585-1.352.585-2.327m2.378-.038c0 .77-.1 1.475-.298 2.115a4.93 4.93 0 0 1-.853 1.653 3.78 3.78 0 0 1-1.39 1.076c-.557.257-1.186.386-1.9.386a4.66 4.66 0 0 1-1.303-.174 4.84 4.84 0 0 1-.978-.384v3.902h-2.32V25.713c.472-.128 1.054-.25 1.744-.365.723-.118 1.454-.176 2.186-.173.793 0 1.502.122 2.128.365a4.44 4.44 0 0 1 1.602 1.047 4.63 4.63 0 0 1 1.016 1.653c.236.648.355 1.375.355 2.182m1.405 5.018h2.32V25.386h-2.32zm22.28-3.923l-.895-2.377-.922-2.208-.935 2.208-.88 2.378h3.63zm1.28 3.627l-.45-1.248-.436-1.25h-4.42l-.887 2.498h-1.42l1.055-2.87.965-2.505.935-2.265.97-2.138H98.3l.97 2.138.935 2.265.965 2.504 1.056 2.87zm5.446-8.678l-1.337.042v3.84h1.028a7.92 7.92 0 0 0 1.266-.092 3.06 3.06 0 0 0 .95-.3 1.53 1.53 0 0 0 .598-.599c.14-.255.2-.58.2-.974 0-.376-.073-.687-.22-.93a1.68 1.68 0 0 0-.59-.586 2.57 2.57 0 0 0-.866-.303 6.15 6.15 0 0 0-1.041-.085m-.112-1.2c1.37 0 2.422.26 3.16.783s1.105 1.3 1.105 2.336c0 .564-.1 1.046-.303 1.446a2.5 2.5 0 0 1-.872.974c-.38.25-.843.43-1.387.542s-1.16.17-1.843.17h-1.084v3.626h-1.365V25.52c.385-.093.814-.157 1.288-.2l1.302-.05m5.732 9.877h1.365v-9.778h-1.37zm-27.856-4.76c0 1.026.242 1.83.728 2.412s1.157.875 2.014.875c.37 0 .687-.016.95-.048l.643-.106v-5.77c-.204-.14-.476-.272-.815-.394a3.18 3.18 0 0 0-1.083-.184c-.843 0-1.46.3-1.85.865s-.585 1.36-.585 2.346zm6.653 4.748c-.46.142-1.038.27-1.736.385s-1.428.174-2.195.174c-.793 0-1.502-.122-2.128-.365a4.43 4.43 0 0 1-1.602-1.048 4.62 4.62 0 0 1-1.016-1.653c-.236-.647-.355-1.374-.355-2.182 0-.794.1-1.515.298-2.163s.5-1.202.872-1.662a3.89 3.89 0 0 1 1.4-1.067c.55-.25 1.182-.376 1.898-.376.486 0 .914.058 1.285.174s.7.244.96.385v-4.35h2.32v13.752z" fill="#1d4371"/></svg>