<svg version="1.1" id="svg3338" xmlns="http://www.w3.org/2000/svg" x="0" y="0" width="120" height="60" xml:space="preserve"><style>.st0{fill:#333}.st1{fill:#fc0}</style><switch><g><path id="path3240" class="st0" d="M71.8 36.7c-.9.5-1.9.8-2.9 1-1 .2-2.1.3-3.1.3-2.4 0-4.4-.7-5.8-2-1.4-1.4-2.1-3.2-2.1-5.6 0-2.4.7-4.2 2.2-5.6 1.5-1.4 3.4-2 6-2 1 0 1.9.1 2.8.3.9.2 1.7.5 2.5.8v3c-.8-.5-1.6-.8-2.4-1-.8-.2-1.6-.3-2.4-.3-1.5 0-2.7.4-3.5 1.3-.8.8-1.2 2-1.2 3.6s.4 2.8 1.2 3.6c.8.8 1.9 1.3 3.3 1.3.4 0 .8 0 1.1-.1.3-.1.6-.1.9-.2v-2.8h-2.3v-2.5H72v6.9"/><path id="path3242" class="st0" d="M74.9 33.5v-6.7h3.5V31.9c0 .9 0 1.5.1 1.9 0 .4.1.7.2.8.1.2.3.4.6.5.2.1.5.2.8.2.7 0 1.3-.3 1.7-.8.4-.6.6-1.3.6-2.3v-5.4h3.5v11h-3.5v-1.6c-.5.6-1.1 1.1-1.7 1.4-.6.3-1.2.5-2 .5-1.3 0-2.2-.4-2.9-1.2-.6-.8-.9-1.9-.9-3.4"/><path id="path3244" class="st0" d="M89.3 26.8h3.5v11h-3.5v-11m0-4.3h3.5v2.9h-3.5v-2.9"/><path id="path3246" class="st0" d="M99 32.2l-4-5.4h3.7L101 30l2.3-3.3h3.7l-4 5.4 4.2 5.6h-3.7l-2.5-3.5-2.4 3.5h-3.7l4.1-5.5"/><g><path id="path3143" class="st1" d="M57.3 13.9c-.5.9-1 1.7-1.6 2.3-.5.6-1.1 1.1-1.7 1.4-.6.3-1.3.6-2.1.7-.7.1-1.6.2-2.6.2-.7 0-1.4 0-1.9-.1-.1 0-.2 0-.4-.1-.2 0-.3 0-.6-.1-4.8-.9-6.4 2.4-6.7 3.4-.1.1-.1.2-.1.2L33.8 38l-3.6 6.1h7.1c2.9-6.5 5.7-20.2 8.8-21.4.7.1 1.5.1 2.4.1 1.3 0 2.4-.2 3.4-.5s1.9-.8 2.7-1.5c.8-.7 1.6-1.6 2.2-2.6.7-1.1 1.3-2.3 1.9-3.8l-1.4-.5z"/><linearGradient id="path3145_1_" gradientUnits="userSpaceOnUse" x1="16.972" y1="188.938" x2="25.052" y2="187.254" gradientTransform="matrix(1.19 0 0 -1.19 25.734 242.134)"><stop offset="0" stop-color="red" stop-opacity=".584"/><stop offset="1" stop-color="#fc0"/></linearGradient><path id="path3145" d="M57.3 13.9c-.5.9-1 1.7-1.6 2.3-.5.6-1.1 1.1-1.7 1.4-.1.1-.3.2-.5.2-.2.1-.5.3-.8.3-4 1-6.8 4.6-7 4.9.1-.1.2-.2.4-.2h.2c.7.1 1.5.1 2.4.1 1.3 0 2.4-.2 3.4-.5s1.9-.8 2.7-1.5c.8-.7 1.6-1.6 2.2-2.6.7-1.1 1.3-2.3 1.9-3.8l-1.6-.6z" fill="url(#path3145_1_)"/><path id="path3147" class="st1" d="M10.4 13.9c.5.9 1 1.7 1.6 2.3.5.6 1.1 1.1 1.7 1.4.6.3 1.3.6 2.1.7.7.1 1.6.2 2.6.2.7 0 1.4 0 1.9-.1.1 0 .2 0 .4-.1.2 0 .3 0 .6-.1 4.8-.9 6.4 2.4 6.7 3.4.1.1.1.2.1.2L33.9 38l3.6 6.1h-7.1c-2.9-6.5-5.7-20.2-8.8-21.4-.7.1-1.5.1-2.4.1-1.3 0-2.4-.2-3.4-.5s-1.9-.8-2.7-1.5c-.8-.7-1.6-1.6-2.2-2.6-.9-1-1.5-2.2-2.1-3.7l1.6-.6z"/><linearGradient id="path3149_1_" gradientUnits="userSpaceOnUse" x1="4.164" y1="-688.119" x2="-4.366" y2="-668.247" gradientTransform="matrix(1.19 0 0 -1.19 25.695 -772.136)"><stop offset="0" stop-color="red" stop-opacity=".584"/><stop offset="1" stop-color="#fc0"/></linearGradient><path id="path3149" d="M10.4 13.9c.5.9 1 1.7 1.6 2.3.5.6 1.1 1.1 1.7 1.4.6.3 1.3.6 2.1.7.7.1 1.6.2 2.6.2.7 0 1.4 0 1.9-.1.1 0 .2 0 .4-.1.2 0 .3 0 .6-.1 4.8-.9 6.4 2.4 6.7 3.4.1.1.1.2.1.2L33.9 38l3 6.1h-6.6c-2.9-6.5-5.7-20.2-8.8-21.4-.7.1-1.5.1-2.4.1-1.3 0-2.4-.2-3.4-.5s-1.9-.8-2.7-1.5c-.8-.7-1.6-1.6-2.2-2.6-.8-1-1.4-2.2-2-3.7l1.6-.6z" fill="url(#path3149_1_)"/><linearGradient id="path3151_1_" gradientUnits="userSpaceOnUse" x1="-274.148" y1="-860.984" x2="-280.738" y2="-865.307" gradientTransform="rotate(180 -75.187 -266.22) scale(.6663)"><stop offset="0" stop-color="#ffb638"/><stop offset="1" stop-color="#f0ae26"/></linearGradient><path id="path3151" d="M33.8 38.1l-3.6 6.1h7.1" fill="url(#path3151_1_)"/><linearGradient id="path3154_1_" gradientUnits="userSpaceOnUse" x1="-185.619" y1="188.814" x2="-177.435" y2="187.341" gradientTransform="rotate(180 -99.528 121.067) scale(1.19)"><stop offset="0" stop-color="red" stop-opacity=".584"/><stop offset="1" stop-color="#fc0"/></linearGradient><path id="path3154" d="M10.4 13.9l-1.6.6c.2.5.4.9.6 1.3 0 .1.1.2.1.3 0 .1.1.2.1.2v.1c.1.1.1.3.2.4 0 .1.1.2.1.2.2.3.3.6.5.9 0 .1.1.1.1.2v.1l.1.1c0 .1.1.1.1.2.1.1.1.2.2.3 0 0 0 .1.1.1 0 .1.1.1.1.2.1.1.2.2.3.4 0 .1.1.1.1.2l.3.3c.1.1.1.2.2.2l.1.1.3.3.1.1c.1 0 .1.1.2.1s.1.1.2.1c.2.1.3.2.5.4.4.3.9.6 1.4.8.1 0 .1.1.2.1.1.1.2.1.4.1.1 0 .1 0 .2.1.1 0 .1 0 .2.1.1 0 .1 0 .2.1.1 0 .3.1.4.1H17c.1 0 .3 0 .4.1.2 0 .4.1.7.1H21c.3 0 .6 0 .8-.1h.2c.1.1.2.1.4.2-.3-.3-3-3.9-7-4.9-.4-.1-.6-.2-.8-.3-.2-.1-.3-.1-.5-.2 0 0-.1 0-.1-.1 0 0-.1 0-.1-.1-.1 0-.2-.1-.2-.1l-.1-.1-.2-.2-.1-.1-.1-.1-.1-.1-.5-.5-.1-.1c-.1-.1-.2-.3-.4-.4v-.1l-.1-.1c-.2-.2-.3-.5-.5-.7-.1-.1-.1-.2-.2-.3 0-.1-.1-.1-.1-.2-.6-.1-.7-.3-.8-.4z" fill="url(#path3154_1_)"/></g></g></switch></svg>