<?xml version="1.0" encoding="UTF-8" standalone="no"?>
<svg
   viewBox="5.64 9.06 120 60"
   width="120"
   height="60"
   version="1.1"
   id="svg36"
   sodipodi:docname="amazon_ecs-ar21.svg"
   inkscape:version="1.1.2 (0a00cf5339, 2022-02-04)"
   xmlns:inkscape="http://www.inkscape.org/namespaces/inkscape"
   xmlns:sodipodi="http://sodipodi.sourceforge.net/DTD/sodipodi-0.dtd"
   xmlns="http://www.w3.org/2000/svg"
   xmlns:svg="http://www.w3.org/2000/svg">
  <defs
     id="defs40" />
  <sodipodi:namedview
     id="namedview38"
     pagecolor="#ffffff"
     bordercolor="#666666"
     borderopacity="1.0"
     inkscape:pageshadow="2"
     inkscape:pageopacity="0.0"
     inkscape:pagecheckerboard="0"
     showgrid="false"
     inkscape:zoom="7.9083333"
     inkscape:cx="60"
     inkscape:cy="30.031612"
     inkscape:window-width="1850"
     inkscape:window-height="1016"
     inkscape:window-x="0"
     inkscape:window-y="0"
     inkscape:window-maximized="1"
     inkscape:current-layer="svg36" />
  <g
     transform="matrix(.199375 0 0 .199375 .71781 18.225361)"
     id="g32">
    <path
       d="M99.6 107.5L59 26.7l-10.3 5.1v145.4l10.3 5.1zm73.9-45.8l-15.9 2.5-67.3-11.3 15.2-21.4zm0 85.1l-15.1-2.3-79.8 13.1 16.7 23z"
       fill="#9d5125"
       id="path2" />
    <path
       d="M59 26.7l24 5.5v144.5l-24 5.6z"
       fill="#f58534"
       id="path4" />
    <path
       d="M70.4 188V21L83 14.7l23.7 99.9L83 194.3zm87.1-123.8v80.1l16 2.5 14.6-40.7-14.6-44.4z"
       fill="#9d5125"
       id="path6" />
    <g
       fill="#f58534"
       id="g14">
      <path
         d="M83 14.7l24.5 7v165.7L83 194.3z"
         id="path8" />
      <path
         d="M83 194.3L190.2 164v-20.3L83 163.6zm0-179.6l107.4 30.5v19.7L83 44.5z"
         id="path10" />
      <path
         d="M190.7 164l-17.2 4.7V40.4l17.2 4.7z"
         id="path12" />
    </g>
    <path
       d="M178.7 89.9l46.6-37.6 15.8 36.5L195 91z"
       fill="#6b3b19"
       id="path16" />
    <path
       d="M225.3 52.3l-46.6 7.6v30l46.6-2.7z"
       fill="#9d5125"
       id="path18" />
    <path
       d="M206.1 85.3l-49 3.1-22.3-1.5 47.3-47.6z"
       fill="#6b3b19"
       id="path20" />
    <g
       fill="#9d5125"
       id="g26">
      <path
         d="M182.1 39.3l-47.3 11v36.6l47.3-4zm43.2 118l-46.6-7.5v-30l62.4 1z"
         id="path22" />
      <path
         d="M182.1 170.3l-47.3-11v-36.6l71.3 1.6z"
         id="path24" />
    </g>
    <path
       d="M206.1 124.3l-49-3.1-22.3 1.5 47.3 4zm-27.4-4.5l46.6 2.6 15.8-1.6-46.1-2.1z"
       fill="#fcbf92"
       id="path28" />
    <path
       d="M241.1 57l-15.8-4.7v34.9l15.8 1.6zm-59-17.7l24 7.2v38.8l-24-2.4zm59 113.3l-15.8 4.7v-34.9l15.8-1.6zm-59 17.7l24-7.2v-38.8l-24 2.4z"
       fill="#f58534"
       id="path30" />
  </g>
  <path
     d="m 82.774199,39.769548 v 2.091589 h -5.980321 v 2.422298 h 5.468302 v 1.94364 h -5.468302 v 2.789269 h 6.092007 v 2.091589 H 74.299057 V 39.820315 h 8.475142 z m 9.061135,3.011192 c -0.145048,-0.220473 -0.330709,-0.440945 -0.551182,-0.623705 -0.222996,-0.190841 -0.486316,-0.3287 -0.770204,-0.403233 -0.282118,-0.101983 -0.580495,-0.15163 -0.88044,-0.146498 -0.497485,-0.01248 -0.990023,0.101257 -1.431621,0.330709 -0.403233,0.220472 -0.69623,0.513469 -0.954415,0.88044 -0.258185,0.36697 -0.403233,0.768753 -0.513469,1.24741 -0.110236,0.478658 -0.18276,0.954415 -0.18276,1.431622 0,0.477207 0.07252,0.954415 0.18276,1.392459 0.110236,0.438044 0.292997,0.844178 0.513469,1.211149 0.256735,0.366971 0.551182,0.659967 0.954415,0.88044 0.441598,0.229444 0.934136,0.343222 1.431621,0.330709 0.768753,0 1.357647,-0.220473 1.798593,-0.69623 0.440945,-0.475756 0.696229,-1.06465 0.768753,-1.834854 h 2.422298 c -0.07252,0.696229 -0.220473,1.357647 -0.478658,1.907378 -0.256734,0.587444 -0.623705,1.064651 -1.026938,1.467884 -0.441932,0.393871 -0.951528,0.704451 -1.504146,0.916702 -0.610317,0.225569 -1.256737,0.337648 -1.907378,0.330709 -0.88044,0 -1.650644,-0.145048 -2.349774,-0.440945 -0.69913,-0.295898 -1.283673,-0.733942 -1.76088,-1.247411 -0.492959,-0.540457 -0.867908,-1.177707 -1.100913,-1.871117 -0.256734,-0.696229 -0.366971,-1.467883 -0.366971,-2.312061 0,-0.844179 0.110237,-1.614382 0.366971,-2.349775 0.240606,-0.701117 0.614988,-1.348882 1.102363,-1.907378 0.478658,-0.551181 1.064651,-0.954414 1.76088,-1.283673 0.69623,-0.292996 1.467884,-0.478657 2.349775,-0.478657 0.623705,0 1.211149,0.07252 1.76088,0.256734 0.549731,0.184211 1.06465,0.440945 1.504145,0.768753 0.439495,0.327808 0.807916,0.768754 1.102363,1.283673 0.300452,0.536557 0.488014,1.128878 0.551182,1.740574 H 92.131231 C 92.090041,43.28821 91.9901,43.025997 91.838234,42.793794 Z m 6.386451,5.500212 c 0.13287,0.247375 0.32101,0.460798 0.54973,0.623706 0.22048,0.145047 0.47866,0.292996 0.80792,0.36697 0.31287,0.07321 0.633105,0.110193 0.954415,0.110237 0.23414,-0.0064 0.46741,-0.03119 0.69768,-0.07398 0.24284,-0.03374 0.47824,-0.108278 0.69623,-0.220472 0.21331,-0.104986 0.40096,-0.255511 0.54973,-0.440946 0.14505,-0.18276 0.22048,-0.403232 0.22048,-0.696229 0,-0.292996 -0.11024,-0.551181 -0.293,-0.733942 -0.18276,-0.18276 -0.44094,-0.330709 -0.76875,-0.478657 l -1.06465,-0.330709 -1.211155,-0.330709 c -0.42731,-0.09578 -0.84489,-0.230757 -1.24741,-0.403233 -0.38146,-0.14322 -0.7401,-0.341097 -1.06465,-0.587444 -0.33071,-0.256734 -0.58745,-0.551181 -0.76876,-0.916702 -0.18131,-0.36552 -0.29299,-0.807916 -0.29299,-1.30543 0,-0.587443 0.11023,-1.102363 0.36697,-1.504145 0.25673,-0.440945 0.58744,-0.768753 0.99067,-1.064651 0.40302,-0.302143 0.86588,-0.514782 1.35765,-0.623705 0.51347,-0.145048 1.02694,-0.220473 1.504155,-0.220473 0.5676,0.0023 1.13341,0.06353 1.68835,0.18276 0.55118,0.145048 1.02694,0.330709 1.46789,0.623706 0.44094,0.292996 0.76875,0.659967 0.99067,1.137174 0.25674,0.478658 0.36697,1.026939 0.36697,1.688357 h -2.42229 c -0.0363,-0.330709 -0.11024,-0.623706 -0.22048,-0.844179 -0.11023,-0.220472 -0.29299,-0.403232 -0.47866,-0.513469 -0.18566,-0.110236 -0.44094,-0.220472 -0.69622,-0.256734 -0.25529,-0.03626 -0.55119,-0.07252 -0.84418,-0.07252 -0.182765,0 -0.403245,0.03626 -0.587455,0.07252 -0.18421,0.03626 -0.36697,0.110236 -0.55118,0.220472 -0.18421,0.110237 -0.29299,0.220473 -0.40323,0.403233 -0.11024,0.145048 -0.14505,0.366971 -0.14505,0.587444 0,0.220472 0.0363,0.403233 0.11024,0.551181 0.074,0.147949 0.25673,0.256735 0.51347,0.366971 0.25673,0.110236 0.58744,0.220473 1.026945,0.330709 l 1.74057,0.440945 c 0.29762,0.05586 0.59162,0.12947 0.88044,0.220473 0.38667,0.125278 0.75644,0.297728 1.10091,0.513469 0.36697,0.256735 0.69623,0.551182 0.95442,0.990676 0.25673,0.403233 0.40323,0.916702 0.40323,1.57812 -0.001,0.491904 -0.10153,0.978533 -0.293,1.431622 -0.18276,0.440945 -0.51347,0.844178 -0.88044,1.137175 -0.43391,0.350397 -0.93274,0.611647 -1.46788,0.768753 -0.58744,0.18131 -1.24741,0.256734 -2.03067,0.256734 -0.606365,0.0014 -1.210535,-0.07267 -1.798595,-0.220472 -0.58745,-0.145048 -1.10237,-0.403233 -1.54041,-0.733942 -0.43804,-0.330709 -0.80792,-0.733942 -1.06465,-1.247411 -0.2797,-0.556367 -0.40635,-1.177124 -0.36697,-1.798592 h 2.4223 c -0.0363,0.440945 0,0.768753 0.14504,1.026938 z"
     fill="#f58534"
     id="path34"
     sodipodi:nodetypes="cccccccccccccccccccsssscccsccccccsccscccsssccccccccccccsscccccsscccccscccsssssscssscccccccccccsccccc"
     style="stroke-width:1.45048" />
  <path
     d="m 62.661149,21.454659 4.206386,11.313727 h -2.567346 l -0.829673,-2.558643 h -4.255702 l -0.88044,2.531084 H 55.839552 L 60.095254,21.4271 Z m 0.110237,6.933284 -1.431622,-4.148366 h -0.03626 l -1.467884,4.148366 z m 7.04497,-3.814757 v 1.102364 h 0.03626 c 0.292997,-0.440946 0.659968,-0.733942 1.064651,-0.990677 0.403233,-0.220472 0.88044,-0.366971 1.431622,-0.366971 0.491903,0.0019 0.978533,0.101476 1.431621,0.292997 0.440946,0.18276 0.768753,0.551181 0.990677,1.064651 0.256734,-0.366971 0.587443,-0.659968 0.990676,-0.954415 0.403233,-0.256734 0.916702,-0.403233 1.467884,-0.403233 0.440945,0 0.844178,0.03626 1.211149,0.145048 0.350225,0.103303 0.675211,0.278148 0.954414,0.513469 0.276793,0.252533 0.490427,0.566525 0.623705,0.916702 0.145048,0.366971 0.220473,0.844178 0.220473,1.357647 v 5.503113 h -2.238085 v -4.661835 l -0.03626,-0.768754 c -0.03626,-0.256734 -0.07252,-0.440945 -0.18276,-0.623705 -0.110237,-0.18276 -0.220473,-0.330709 -0.403233,-0.440945 -0.18276,-0.110237 -0.440946,-0.145048 -0.768754,-0.145048 -0.327808,0 -0.587443,0.07252 -0.768753,0.18276 -0.19371,0.120187 -0.357026,0.283497 -0.477207,0.477207 -0.116792,0.20307 -0.191763,0.427469 -0.220473,0.659968 l -0.07252,0.768753 v 4.550149 h -2.24534 v -5.320353 c 0,-0.220472 -0.07252,-0.440945 -0.145048,-0.659967 -0.07252,-0.219022 -0.220473,-0.366971 -0.403233,-0.478658 -0.18276,-0.111687 -0.440945,-0.18276 -0.807916,-0.18276 -0.110236,0 -0.256735,0.03626 -0.403233,0.07252 -0.18276,0.03626 -0.330709,0.145048 -0.513469,0.256734 -0.145048,0.145048 -0.292996,0.330709 -0.403233,0.587444 -0.127265,0.314477 -0.189434,0.651492 -0.18276,0.990676 v 4.802532 h -2.238087 v -8.180695 h 2.091589 z m 12.47411,1.2126 c 0.220472,-0.366971 0.513469,-0.623706 0.88044,-0.844178 0.372153,-0.222348 0.783153,-0.371981 1.211149,-0.440945 0.448007,-0.08413 0.901978,-0.132632 1.357647,-0.145048 0.403233,0 0.844178,0.03626 1.247411,0.07252 0.440945,0.07252 0.807916,0.18276 1.160382,0.330709 0.366971,0.18276 0.623706,0.403232 0.844178,0.696229 0.220473,0.292996 0.330709,0.696229 0.330709,1.211149 v 4.255702 c 0,0.366971 0.03626,0.733942 0.07252,1.064651 0.03626,0.330709 0.110236,0.587443 0.220473,0.768753 h -2.27435 c -0.0414,-0.133096 -0.07817,-0.267586 -0.110236,-0.403233 -0.03626,-0.145048 -0.03626,-0.256735 -0.07252,-0.403233 -0.366971,0.366971 -0.768753,0.623706 -1.283673,0.768753 -0.487711,0.147507 -0.994617,0.221807 -1.504145,0.220473 -0.403233,0 -0.768753,-0.03626 -1.102363,-0.145048 -0.314526,-0.100547 -0.611542,-0.249295 -0.88044,-0.440945 -0.256735,-0.184211 -0.440946,-0.440945 -0.587444,-0.768753 -0.145048,-0.292997 -0.220472,-0.659968 -0.220472,-1.102363 0,-0.478658 0.07252,-0.844178 0.256734,-1.137175 0.184211,-0.292997 0.366971,-0.551182 0.623706,-0.733942 0.263347,-0.192303 0.56281,-0.329454 0.88044,-0.403233 l 0.990676,-0.220472 c 0.330709,-0.03626 0.659967,-0.110237 0.990676,-0.110237 0.296965,-0.02489 0.591417,-0.07389 0.88044,-0.146498 0.256735,-0.07252 0.440946,-0.145048 0.587444,-0.292996 0.145048,-0.110237 0.220473,-0.292997 0.220473,-0.51347 0,-0.256734 -0.03626,-0.440945 -0.110237,-0.587443 -0.0707,-0.143728 -0.186977,-0.260017 -0.330709,-0.330709 -0.147948,-0.07252 -0.292996,-0.145048 -0.478657,-0.145048 -0.182761,-0.03626 -0.366971,-0.03626 -0.551182,-0.03626 -0.440945,0 -0.807916,0.110237 -1.026938,0.292997 -0.256735,0.18276 -0.403233,0.513469 -0.440946,0.954414 H 81.84807 c 0.07252,-0.513469 0.18276,-0.954414 0.440945,-1.283673 z m 4.438462,3.154789 -0.478658,0.110236 c -0.145048,0.03626 -0.330709,0.07252 -0.513469,0.07252 -0.18276,0.03626 -0.366971,0.03626 -0.551182,0.07252 l -0.513469,0.110237 c -0.145048,0.03626 -0.292996,0.110236 -0.440945,0.220472 -0.116778,0.0917 -0.216041,0.20373 -0.292997,0.330709 -0.07252,0.145048 -0.110236,0.292997 -0.110236,0.513469 0,0.18276 0.03626,0.366971 0.110236,0.513469 0.07397,0.146499 0.182761,0.256735 0.292997,0.330709 0.133676,0.08906 0.283461,0.151146 0.440945,0.182761 0.169383,0.03029 0.341511,0.04244 0.513469,0.03626 0.440946,0 0.768754,-0.07252 1.026939,-0.220473 0.258185,-0.147949 0.440945,-0.330709 0.551181,-0.513469 0.105711,-0.195069 0.180109,-0.405538 0.220473,-0.623706 0.03626,-0.220472 0.03626,-0.366971 0.03626,-0.513469 v -0.844178 c -0.03626,0.110236 -0.145048,0.18276 -0.292997,0.220473 z m 8.073359,-2.679032 h -3.959804 v -1.688357 h 6.898472 v 1.688357 l -4.255701,4.806883 h 4.550151 v 1.688356 h -7.484468 v -1.688356 z m 4.550148,0.623705 c 0.18276,-0.551182 0.47866,-0.990676 0.844185,-1.357647 0.37989,-0.375542 0.82851,-0.674459 1.32138,-0.88044 0.51347,-0.220473 1.10237,-0.292997 1.74058,-0.292997 0.5992,-0.0013 1.19439,0.09772 1.76088,0.292997 0.49287,0.205981 0.94149,0.504898 1.32138,0.88044 0.36697,0.366971 0.65997,0.844178 0.84418,1.357647 0.19523,0.579508 0.29421,1.187084 0.293,1.798593 0.004,0.599449 -0.0947,1.19516 -0.293,1.76088 -0.18276,0.513469 -0.47866,0.990676 -0.84418,1.357647 -0.37989,0.375542 -0.82851,0.674459 -1.32138,0.88044 -0.56572,0.198296 -1.16143,0.297418 -1.76088,0.292996 -0.58764,0.0046 -1.17149,-0.09453 -1.72462,-0.292996 -0.51347,-0.18276 -0.95441,-0.478658 -1.30543,-0.88044 -0.366975,-0.366971 -0.659975,-0.844178 -0.844185,-1.357647 -0.18421,-0.51347 -0.29299,-1.137175 -0.29299,-1.76088 -0.0373,-0.613862 0.0628,-1.22832 0.29299,-1.798593 z m 2.030675,2.751557 c 0.0716,0.295022 0.1829,0.578991 0.33071,0.844178 0.14505,0.256734 0.36697,0.440945 0.6237,0.587443 0.25674,0.146498 0.58745,0.220473 0.95442,0.220473 0.36697,0 0.69623,-0.07252 0.95441,-0.220473 0.25819,-0.147949 0.47866,-0.330709 0.62371,-0.587443 0.14505,-0.256735 0.25673,-0.51347 0.33071,-0.844178 0.0725,-0.292997 0.11023,-0.623706 0.11023,-0.954415 0.002,-0.321426 -0.035,-0.641905 -0.11023,-0.954414 -0.0725,-0.330709 -0.18276,-0.587444 -0.33071,-0.844178 -0.15103,-0.248554 -0.36656,-0.451557 -0.62371,-0.587444 -0.25673,-0.145048 -0.58744,-0.220473 -0.95441,-0.220473 -0.36697,0 -0.69623,0.07252 -0.95442,0.220473 -0.25818,0.147949 -0.44094,0.366971 -0.6237,0.587444 -0.14505,0.256734 -0.25674,0.513469 -0.33071,0.844178 -0.074,0.330709 -0.11024,0.623705 -0.11024,0.954414 z m 9.72545,-5.076673 v 1.137175 h 0.0363 c 0.29299,-0.478658 0.65996,-0.807916 1.10236,-1.026939 0.43242,-0.216193 0.90901,-0.329383 1.39246,-0.330709 0.58745,0 1.10237,0.07252 1.46789,0.256735 0.36234,0.146594 0.67886,0.387487 0.9167,0.69768 0.22047,0.292996 0.36697,0.659967 0.47866,1.064651 0.0908,0.459254 0.13982,0.9258 0.14649,1.393909 v 4.989644 h -2.26709 V 28.13556 c 0,-0.659967 -0.11024,-1.160382 -0.33071,-1.504146 -0.22047,-0.343763 -0.58745,-0.513469 -1.13718,-0.513469 -0.62371,0 -1.06465,0.18276 -1.30543,0.551182 -0.24078,0.368421 -0.40323,0.954414 -0.40323,1.798592 v 4.293415 h -2.23809 v -8.180695 z"
     fill="#f58534"
     id="path34-3"
     sodipodi:nodetypes="ccccccccccccccccccccccscccsccccsssccccccsssscccccccccccccccsssscccccccccssccccccscccsccccccccccccsscccsccsccccccccccccccccccccccccccccscccccsssscccccsscscccccccccccccssssscccc"
     style="stroke-width:1.45048" />
</svg>
