<?xml version="1.0" encoding="UTF-8" standalone="no"?>
<svg
   xmlns:dc="http://purl.org/dc/elements/1.1/"
   xmlns:cc="http://creativecommons.org/ns#"
   xmlns:rdf="http://www.w3.org/1999/02/22-rdf-syntax-ns#"
   xmlns:svg="http://www.w3.org/2000/svg"
   xmlns="http://www.w3.org/2000/svg"
   xmlns:sodipodi="http://sodipodi.sourceforge.net/DTD/sodipodi-0.dtd"
   xmlns:inkscape="http://www.inkscape.org/namespaces/inkscape"
   id="Layer_1"
   data-name="Layer 1"
   viewBox="0 0 120 59.999997"
   version="1.1"
   sodipodi:docname="vitness-ar21.svg"
   width="120"
   height="60"
   inkscape:version="0.92.3 (2405546, 2018-03-11)">
  <metadata
     id="metadata43">
    <rdf:RDF>
      <cc:Work
         rdf:about="">
        <dc:format>image/svg+xml</dc:format>
        <dc:type
           rdf:resource="http://purl.org/dc/dcmitype/StillImage" />
        <dc:title>vitess-horizontal-color</dc:title>
      </cc:Work>
    </rdf:RDF>
  </metadata>
  <sodipodi:namedview
     pagecolor="#ffffff"
     bordercolor="#666666"
     borderopacity="1"
     objecttolerance="10"
     gridtolerance="10"
     guidetolerance="10"
     inkscape:pageopacity="0"
     inkscape:pageshadow="2"
     inkscape:window-width="1920"
     inkscape:window-height="1001"
     id="namedview41"
     showgrid="false"
     inkscape:zoom="3.942701"
     inkscape:cx="112.53945"
     inkscape:cy="31.218873"
     inkscape:window-x="-9"
     inkscape:window-y="-9"
     inkscape:window-maximized="1"
     inkscape:current-layer="Layer_1" />
  <defs
     id="defs4">
    <style
       id="style2">.cls-1{fill:#f16827}.cls-2{fill:none}.cls-3{fill:#284e64}.cls-4{fill:#f48029}.cls-5{fill:#f89a2e}.cls-6{fill:#f89921}.cls-7{fill:#f4ae5c}.cls-8{fill:#cd4e27}.cls-9{fill:#f16938}</style>
  </defs>
  <title
     id="title6">vitess-horizontal-color</title>
  <g
     id="g866"
     transform="matrix(0.1261131,0,0,0.1261131,16.693581,43.012708)">
    <path
       style="fill:#f16827"
       inkscape:connector-curvature="0"
       id="path8"
       d="m 287.852,-52.196845 h 27.066 v 100.293 h -27.066 z m 0,-44.308 h 27.066 v 20.3 h -27.066 z m 94.364,124.997 a 25.915,25.915 0 0 1 -3.707,0.232 8.626,8.626 0 0 1 -6.444,-2.503 q -2.455,-2.504 -2.455,-8.342 v -51.075 h 16.962 v -19 H 369.61 v -24.566 h -26.973 v 24.565 H 327.99 v 19 h 14.647 v 51.169 q 0,16.682 7.552,24.376 7.554,7.697 21.552,7.696 a 47.344,47.344 0 0 0 8.39,-0.696 54.88,54.88 0 0 0 7.924,-2.086 l -2.225,-19.559 a 31.024,31.024 0 0 1 -3.614,0.79 z m 62.752,-82.543 q -21.413,-0.092 -33.648,14.275 -12.233,14.37 -12.234,36.8900003 v 3.70999997 q 0,21.68799973 12.606,35.45499973 12.605,13.764 35.038,13.765 a 72.356,72.356 0 0 0 22.431,-3.338 q 10.288,-3.336 16.314,-8.25 l -7.322,-16.684 a 62.971,62.971 0 0 1 -13.116,5.655 55.687,55.687 0 0 1 -15.434,1.852 q -11.03,0 -16.638,-6.396 -5.609,-6.394 -6.256,-16.6829997 l 0.277,-0.558 h 59.788 v -13.998 q 0,-20.9470003 -10.8,-33.3210003 -10.798,-12.377 -31.006,-12.375 z m 15.296,41.803 h -33 l -0.185,-0.462 q 0.925,-9.268 5.33,-14.877 4.401,-5.608 12.56,-5.61 8.063,0 11.679,5.053 3.615,5.054 3.616,13.858 z M 573.95,-0.52084473 q -9.04,-7.18299997 -27.485,-10.89200027 -12.05,-2.316 -15.99,-5.236 a 9.004,9.004 0 0 1 -3.938,-7.555 10.087,10.087 0 0 1 3.8,-7.972 q 3.8,-3.244 10.29,-3.244 7.319,0 11.214,3.8 a 13.127,13.127 0 0 1 3.893,9.826 h 26.14 l 0.187,-0.557 q 0.462,-13.533 -10.986,-22.617 -11.448,-9.081 -30.448,-9.083 -18.169,0 -29.107,9.083 -10.938,9.087 -10.938,21.968 0,12.237 9.131,19.3730003 9.129,7.139 26.742,10.661 11.679,2.411 15.99,5.6069997 4.308,3.197 4.31,7.648 a 9.776,9.776 0 0 1 -3.939,8.203 q -3.942,3.014 -11.448,3.012 -8.064,0 -13.07,-3.615 -5.006,-3.615 -5.285,-11.679 h -24.748 l -0.186,0.556 q -0.554,12.978 11.079,23.127 11.631,10.149 31.655,10.15 18.998,0 30.586,-8.62 11.588,-8.621 11.587,-22.154 0,-12.6049997 -9.036,-19.78999973 z m 97.885,0 q -9.04,-7.18299997 -27.485,-10.89200027 -12.05,-2.316 -15.99,-5.236 a 9.004,9.004 0 0 1 -3.938,-7.555 10.087,10.087 0 0 1 3.8,-7.972 q 3.8,-3.244 10.29,-3.244 7.319,0 11.214,3.8 a 13.126,13.126 0 0 1 3.893,9.826 h 26.14 l 0.187,-0.557 q 0.462,-13.533 -10.986,-22.617 -11.448,-9.081 -30.448,-9.083 -18.169,0 -29.107,9.083 -10.938,9.087 -10.938,21.968 0,12.237 9.131,19.3730003 9.129,7.139 26.742,10.661 11.679,2.411 15.99,5.6069997 4.308,3.197 4.31,7.648 a 9.776,9.776 0 0 1 -3.939,8.203 q -3.942,3.014 -11.448,3.012 -8.064,0 -13.07,-3.615 -5.006,-3.615 -5.284,-11.679 H 596.15 l -0.186,0.556 q -0.554,12.978 11.079,23.127 11.631,10.149 31.654,10.15 18.999,0 30.587,-8.62 11.588,-8.621 11.587,-22.154 0,-12.6049997 -9.036,-19.78999973 z"
       class="cls-1" />
    <path
       style="fill:none"
       inkscape:connector-curvature="0"
       id="path10"
       d="m 67.296,-150.88984 -0.01,0.01 z"
       class="cls-2" />
    <path
       style="fill:#284e64"
       inkscape:connector-curvature="0"
       id="path12"
       d="m 205.381,-67.603845 0.033,-0.171 11.309,-66.211995 z m 81.685,-66.539995 -36.704,66.331995 -69.384,125.689 0.003,0.005 69.397,-125.71 36.705,-66.322995 40.098,-72.734 z m 1.254,-130.104 -11.782,21.53 11.787,-21.53 z m -221.024,113.358 44.995,-48.289 z m 9.577,17.488 49.69,-39.471 z m 0,0 -3.333,-6.077 3.325,6.077 35.355,64.898995 5.741,10.585 -5.746,-10.599 z"
       class="cls-3" />
    <path
       style="fill:#284e64"
       inkscape:connector-curvature="0"
       id="path14"
       d="m 89.269,-156.42284 23.022,-42.756 14.272,26.306 27.675,51.049 -27.658,-51.057 -14.285,-26.319 -35.58,-65.048 h -0.007 l 35.583,65.069 z m 103.57,105.659995 0.163,0.301 6.662,12.247 z m 47.03,-125.162995 -23.159,41.925 -25.76,47.436995 25.773,-47.422995 z"
       class="cls-3" />
    <path
       style="fill:#f16827"
       inkscape:connector-curvature="0"
       id="path16"
       d="m 147.533,-3.3648447 33.437,61.2559997 18.402,-94.605 z"
       class="cls-1" />
    <path
       style="fill:#f48029"
       inkscape:connector-curvature="0"
       id="path18"
       d="m 199.664,-38.214845 -6.662,-12.247 -22.841,-41.99 -22.628,89.0870003 51.839,-33.3490003 z"
       class="cls-4" />
    <path
       style="fill:#f89a2e"
       inkscape:connector-curvature="0"
       id="path20"
       d="m 112.215,-68.516845 5.746,10.599 29.572,54.5530003 22.628,-89.0870003 z"
       class="cls-5" />
    <path
       style="fill:#f16827"
       inkscape:connector-curvature="0"
       id="path22"
       d="m 112.215,-68.516845 57.946,-23.935 -15.923,-29.371995 -27.675,-51.049 z"
       class="cls-1" />
    <path
       style="fill:#f89921"
       inkscape:connector-curvature="0"
       id="path24"
       d="m 205.381,-67.603845 11.342,-66.382995 -25.773,47.422995 -8.788,16.171 10.677,19.63 6.825,12.548 z"
       class="cls-6" />
    <path
       style="fill:#f89a2e"
       inkscape:connector-curvature="0"
       id="path26"
       d="m 76.873,-133.40184 35.342,64.884995 14.348,-104.355995 z"
       class="cls-5" />
    <path
       style="fill:#f48029"
       inkscape:connector-curvature="0"
       id="path28"
       d="m 250.362,-67.811845 36.704,-66.331995 -81.652,66.368995 z"
       class="cls-4" />
    <path
       style="fill:#f4ae5c"
       inkscape:connector-curvature="0"
       id="path30"
       d="m 112.291,-199.17884 -23.022,42.756 -12.396,23.021 49.69,-39.471 z m 93.123,131.403995 47.053,-130.974995 -12.598,22.824 -23.146,41.939 z"
       class="cls-7" />
    <path
       style="fill:#cd4e27"
       inkscape:connector-curvature="0"
       id="path32"
       d="m 76.873,-133.40184 12.396,-23.021 23.022,-42.756 -44.995,48.289 -0.01,0.01 6.254,11.401 z"
       class="cls-8" />
    <path
       style="fill:#f16938"
       inkscape:connector-curvature="0"
       id="path34"
       d="m 287.066,-134.14384 -34.599,-64.606 -47.053,130.974995 z m -219.77,-16.746 44.995,-48.289 -35.583,-65.069 -0.005,-0.009 -9.417,113.377 z"
       class="cls-9" />
    <path
       style="fill:#f89a2e"
       inkscape:connector-curvature="0"
       id="path36"
       d="m 287.066,-134.14384 1.264,-130.104 v -0.009 l -0.005,0.009 -11.787,21.53 -24.071,43.968 z M 76.703,-264.25684 H 5.916 l 61.37,113.377 z"
       class="cls-5" />
    <path
       style="fill:#cd4e27"
       inkscape:connector-curvature="0"
       id="path38"
       d="m 288.33,-264.25684 v 0.009 l -1.264,130.104 40.115,-72.741 31.638,-57.372 z m -82.916,196.481995 -0.033,0.171 -5.717,29.389 -0.292,1.501 -18.402,94.605 0.008,-0.014 69.384,-125.689 z"
       class="cls-8" />
  </g>
</svg>
