<?xml version="1.0" encoding="UTF-8" standalone="no"?>
<svg
   xmlns:dc="http://purl.org/dc/elements/1.1/"
   xmlns:cc="http://creativecommons.org/ns#"
   xmlns:rdf="http://www.w3.org/1999/02/22-rdf-syntax-ns#"
   xmlns:svg="http://www.w3.org/2000/svg"
   xmlns="http://www.w3.org/2000/svg"
   xmlns:sodipodi="http://sodipodi.sourceforge.net/DTD/sodipodi-0.dtd"
   xmlns:inkscape="http://www.inkscape.org/namespaces/inkscape"
   width="64"
   height="64"
   version="1.1"
   id="svg14"
   sodipodi:docname="healthgrades-icon.svg"
   inkscape:version="0.92.4 (5da689c313, 2019-01-14)">
  <metadata
     id="metadata20">
    <rdf:RDF>
      <cc:Work
         rdf:about="">
        <dc:format>image/svg+xml</dc:format>
        <dc:type
           rdf:resource="http://purl.org/dc/dcmitype/StillImage" />
        <dc:title></dc:title>
      </cc:Work>
    </rdf:RDF>
  </metadata>
  <defs
     id="defs18" />
  <sodipodi:namedview
     pagecolor="#ffffff"
     bordercolor="#666666"
     borderopacity="1"
     objecttolerance="10"
     gridtolerance="10"
     guidetolerance="10"
     inkscape:pageopacity="0"
     inkscape:pageshadow="2"
     inkscape:window-width="1920"
     inkscape:window-height="1001"
     id="namedview16"
     showgrid="false"
     inkscape:zoom="5.4023904"
     inkscape:cx="110.2441"
     inkscape:cy="31.2032"
     inkscape:window-x="-9"
     inkscape:window-y="-9"
     inkscape:window-maximized="1"
     inkscape:current-layer="svg14" />
  <g
     id="g848"
     transform="matrix(3.5372073,0,0,3.5372073,-45.193302,-73.198415)">
    <path
       sodipodi:nodetypes="ccccsccc"
       inkscape:connector-curvature="0"
       id="path4"
       d="m 25.99258,27.968406 c 0.17132,0.170683 0.403074,0.266863 0.644906,0.267642 0.235997,0 0.456275,-0.09452 0.64532,-0.267642 l 3.240872,-3.241079 c 0.346033,-0.346032 0.346033,-0.928061 0,-1.274094 -0.346239,-0.346239 -0.928268,-0.346239 -1.274507,0 l -3.241079,3.240872 c -0.373883,0.339827 -0.381013,0.925473 -0.01551,1.274301 z"
       style="fill:#0202ea;stroke-width:0.20683336" />
    <path
       sodipodi:nodetypes="cccccccccccccscssccccscsccccccc"
       inkscape:connector-curvature="0"
       id="path6"
       d="m 28.918858,29.510348 c -0.346032,-0.346032 -0.88111,-0.346032 -1.243068,-0.03144 l -4.656853,4.65706 c -0.267436,0.267435 -0.692272,0.267435 -0.943988,0 -0.267435,-0.267436 -0.267435,-0.692272 0,-0.943988 l 1.667698,-1.667697 v -0.01572 l 1.730574,-1.730781 c 0.346239,-0.346032 0.346239,-0.928268 0,-1.2743 -0.346032,-0.346239 -0.928268,-0.346239 -1.2743,0 l -1.006865,1.006864 -0.1574,0.157194 c -0.267436,0.267642 -0.676345,0.267642 -0.943987,0 -0.267436,-0.267229 -0.267436,-0.676345 0,-0.943781 l 0.692271,-0.692271 3.335395,-3.335395 c 0.346239,-0.346239 0.346239,-0.928268 0,-1.274507 -0.346033,-0.346032 -0.928269,-0.346032 -1.274301,0 l -1.99801,1.950852 c -0.173326,0.17312 -0.409323,0.267643 -0.629394,0.267643 -0.22682,5.58e-4 -0.445673,-0.08361 -0.613675,-0.235997 L 19.7307,23.53183 c -1.589101,-1.589101 -4.169347,-1.589101 -5.758241,0 -0.771281,0.770661 -1.19591,1.793452 -1.19591,2.87912 0,1.085462 0.424835,2.108253 1.195703,2.879121 l 7.552107,7.551899 c 0,0.01572 0.01572,0.01572 0.01572,0.03144 0.17132,0.170683 0.403075,0.266864 0.644907,0.267643 0.235996,0 0.456274,-0.09452 0.64532,-0.267643 l 6.072834,-6.072834 c 0.3584,-0.352897 0.365416,-0.928703 0.01572,-1.290227 z"
       style="fill:#0202ea;stroke-width:0.20683336" />
    <circle
       id="circle8"
       r="0.89682943"
       cy="28.236048"
       cx="29.973089"
       style="fill:#0202ea;stroke-width:0.20683336" />
  </g>
</svg>
