<?xml version="1.0" encoding="UTF-8" standalone="no"?>
<!-- Generator: Adobe Illustrator 13.0.0, SVG Export Plug-In . SVG Version: 6.00 Build 14948)  -->

<svg
   xmlns:dc="http://purl.org/dc/elements/1.1/"
   xmlns:cc="http://creativecommons.org/ns#"
   xmlns:rdf="http://www.w3.org/1999/02/22-rdf-syntax-ns#"
   xmlns:svg="http://www.w3.org/2000/svg"
   xmlns="http://www.w3.org/2000/svg"
   xmlns:sodipodi="http://sodipodi.sourceforge.net/DTD/sodipodi-0.dtd"
   xmlns:inkscape="http://www.inkscape.org/namespaces/inkscape"
   version="1.1"
   id="Lager_1"
   x="0px"
   y="0px"
   width="120"
   height="60"
   viewBox="0 0 120 60.000002"
   enable-background="new 0 0 403.25 353.688"
   xml:space="preserve"
   inkscape:version="0.48.4 r9939"
   sodipodi:docname="erlang-ar21.svg"
   inkscape:export-filename="/home/amarcuse/site/vlz/www/logos/erlang/erlang-ar21.png"
   inkscape:export-xdpi="90"
   inkscape:export-ydpi="90"><metadata
     id="metadata3139"><rdf:RDF><cc:Work
         rdf:about=""><dc:format>image/svg+xml</dc:format><dc:type
           rdf:resource="http://purl.org/dc/dcmitype/StillImage" /><dc:title></dc:title></cc:Work></rdf:RDF></metadata><defs
     id="defs3137" /><sodipodi:namedview
     pagecolor="#ffffff"
     bordercolor="#666666"
     borderopacity="1"
     objecttolerance="10"
     gridtolerance="10"
     guidetolerance="10"
     inkscape:pageopacity="0"
     inkscape:pageshadow="2"
     inkscape:window-width="1063"
     inkscape:window-height="769"
     id="namedview3135"
     showgrid="false"
     inkscape:zoom="7.75"
     inkscape:cx="60"
     inkscape:cy="30"
     inkscape:window-x="75"
     inkscape:window-y="34"
     inkscape:window-maximized="0"
     inkscape:current-layer="Lager_1" /><g
     id="g3177"><path
       d="m 46.272442,32.384382 c -3.104625,-3.28981 -4.921114,-7.834694 -4.91651,-13.257376 -0.0043,-4.795669 1.502511,-8.917766 4.092906,-12.0544051 l -0.0042,0.00157 H 40 l 0,0 V 32.384905 h 6.268571 l 0.0039,-5.23e-4 z"
       id="path3117"
       inkscape:connector-curvature="0"
       style="fill:#a90533" /><path
       d="m 74.94706,32.386474 c 1.337414,-1.432412 2.535782,-3.119376 3.621679,-5.04865 l -6.026366,-3.013183 c -2.116447,3.440783 -5.211551,6.607868 -9.491525,6.629002 -6.229023,-0.02113 -8.676397,-5.347562 -8.662901,-12.20339 h 23.276837 l 0,0 c 0.03107,-0.774011 0.03107,-1.133919 0,-1.506486 0.151914,-4.078783 -0.929065,-7.5072196 -2.895481,-10.1771297 l -0.01015,0.00764 H 80 V 32.38501 h -5.064344 l 0.0114,0.0015 z"
       id="path3119"
       inkscape:connector-curvature="0"
       style="fill:#a90533" /><path
       d="m 54.7647,12.874547 c 0.25769,-3.1039967 2.704959,-5.1914627 5.574388,-5.1977402 2.888993,0.00628 4.976355,2.0937435 5.047081,5.1977402 H 54.7647 l 0,0 z"
       id="path3121"
       inkscape:connector-curvature="0"
       style="fill:#a90533" /></g><g
     id="g3169"
     transform="matrix(2.3488584,0,0,2.3488584,-79.47544,-44.880605)"><polygon
       transform="matrix(0.1046244,0,0,0.1046244,38.951454,6.0230089)"
       points="41.703,332.607 22.263,332.607 22.263,316.768 40.982,316.768 40.982,306.688 22.263,306.688 22.263,293.007 41.703,293.007 41.703,293.007 41.703,282.928 10.743,282.928 10.743,342.688 41.703,342.688 "
       id="polygon3123" /><path
       d="m 48.813664,39.239896 c 0.807491,-0.1199 1.250889,-0.920067 1.280602,-1.73258 -0.02971,-1.329253 -0.891399,-1.879264 -2.109227,-1.883239 h -1.657251 v 6.252354 h 1.205273 v -2.485876 l 1.506592,2.485876 h 1.506591 l -1.73258,-2.636535 0,0 z m -1.280707,-2.63643 h 0.150659 c 0.657564,0.02469 1.151077,0.174722 1.129943,0.979284 0.02113,0.737183 -0.455639,0.937225 -1.129943,0.903955 h -0.150659 v -1.883239 l 0,0 z"
       id="path3125"
       inkscape:connector-curvature="0" /><polygon
       transform="matrix(0.1046244,0,0,0.1046244,38.951454,6.0230089)"
       points="163.382,332.607 146.822,332.607 146.822,282.928 146.822,282.928 135.303,282.928 135.303,342.688 163.382,342.688 "
       id="polygon3127" /><path
       d="m 62.222222,40.595828 0.527307,1.280603 h 1.280603 l -2.335217,-6.403014 h -0.979284 l -2.485876,6.403014 h 1.280498 l 0.527412,-1.280603 h 2.184557 l 0,0 z m -0.301318,-0.97918 h -1.506591 l 0.677966,-2.335216 0.828625,2.335216 0,0 z"
       id="path3129"
       inkscape:connector-curvature="0" /><polygon
       transform="matrix(0.1046244,0,0,0.1046244,38.951454,6.0230089)"
       points="301.623,323.248 269.942,281.487 261.303,281.487 261.303,342.688 261.303,342.688 273.542,342.688 273.542,302.368 305.223,344.127 313.862,344.127 313.862,282.928 301.623,282.928 "
       id="polygon3131" /><path
       d="m 77.062252,38.56193 v 0.979284 h 1.355932 c -0.02825,0.786985 -0.672316,1.453756 -1.431262,1.431262 -1.198577,0.02249 -1.79253,-1.135803 -1.807909,-2.184558 0.01538,-1.034735 0.600962,-2.243147 1.807909,-2.259887 0.633396,0.01664 1.168864,0.44999 1.431262,0.979285 l 1.054614,-0.527307 c -0.4638,-0.976983 -1.400711,-1.518728 -2.485876,-1.506592 -1.867859,-0.01203 -3.06403,1.529714 -3.088512,3.314501 0.02448,1.740323 1.187278,3.290438 3.013183,3.314501 1.97196,-0.02406 2.883762,-1.599184 2.862523,-3.38983 V 38.56193 h -2.711864 l 0,0 z"
       id="path3133"
       inkscape:connector-curvature="0" /></g></svg>