<?xml version="1.0" encoding="UTF-8" standalone="no"?>
<!-- Generator: Adobe Illustrator 18.1.1, SVG Export Plug-In . SVG Version: 6.00 Build 0)  -->

<svg
   xmlns:dc="http://purl.org/dc/elements/1.1/"
   xmlns:cc="http://creativecommons.org/ns#"
   xmlns:rdf="http://www.w3.org/1999/02/22-rdf-syntax-ns#"
   xmlns:svg="http://www.w3.org/2000/svg"
   xmlns="http://www.w3.org/2000/svg"
   xmlns:sodipodi="http://sodipodi.sourceforge.net/DTD/sodipodi-0.dtd"
   xmlns:inkscape="http://www.inkscape.org/namespaces/inkscape"
   version="1.1"
   id="Layer_1"
   x="0px"
   y="0px"
   viewBox="0 0 64 64"
   enable-background="new 0 0 200 58.5"
   preserveAspectRatio="meet"
   xml:space="preserve"
   sodipodi:docname="rbs-icon.svg"
   width="64"
   height="64"
   inkscape:version="0.92.3 (2405546, 2018-03-11)"><metadata
   id="metadata15"><rdf:RDF><cc:Work
       rdf:about=""><dc:format>image/svg+xml</dc:format><dc:type
         rdf:resource="http://purl.org/dc/dcmitype/StillImage" /><dc:title></dc:title></cc:Work></rdf:RDF></metadata><defs
   id="defs13">
	
	
</defs><sodipodi:namedview
   pagecolor="#ffffff"
   bordercolor="#666666"
   borderopacity="1"
   objecttolerance="10"
   gridtolerance="10"
   guidetolerance="10"
   inkscape:pageopacity="0"
   inkscape:pageshadow="2"
   inkscape:window-width="1920"
   inkscape:window-height="1001"
   id="namedview11"
   showgrid="false"
   inkscape:zoom="1.695"
   inkscape:cx="28.023599"
   inkscape:cy="29.25"
   inkscape:window-x="-9"
   inkscape:window-y="-9"
   inkscape:window-maximized="1"
   inkscape:current-layer="Layer_1" />
<style
   type="text/css"
   id="style2">
	.st0{fill:#0a2f64;}
</style>
<path
   style="fill:#0a2f64;stroke-width:1.09495306"
   inkscape:connector-curvature="0"
   id="path4"
   d="m 58.853728,30.932423 h -10.29256 c -2.189904,0 -4.160821,-1.313943 -4.817791,-3.284858 -1.86142,-5.474765 -7.226691,-7.336187 -7.226691,-7.336187 -1.970917,-0.766465 -3.394355,-2.627885 -3.394355,-4.817792 V 5.0915319 c 0,-2.846878 2.299401,-5.03678603 5.146279,-5.03678603 2.846878,0 5.146279,2.08041203 5.146279,5.03678603 l -0.1095,8.2121461 11.934989,-11.8254901 c 1.970913,-1.97091703 5.255774,-1.97091703 7.336184,0 1.970917,1.970915 1.970917,5.3652699 0,7.3361832 L 50.751071,20.530371 h 8.10265 c 2.84688,0 5.146279,2.299401 5.146279,5.146279 0,2.846878 -2.299399,5.255773 -5.146279,5.255773 m -0.109482,12.37297 -8.21215,-0.1095 11.934991,11.934987 c 1.970913,1.970915 1.970913,5.255774 0,7.336187 -1.970917,1.970915 -5.255776,1.970915 -7.336187,0 L 43.414897,50.751068 v 8.102653 C 43.414897,61.919588 41.115494,64 38.268618,64 35.421738,64 33.122337,61.700599 33.122337,58.853721 V 48.561163 c 0,-2.189908 1.42344,-4.160821 3.28486,-4.817797 5.474763,-1.86142 7.336184,-7.226689 7.336184,-7.226689 0.766466,-1.970915 2.627886,-3.394353 4.817795,-3.394353 h 10.292558 c 2.846879,0 5.146279,2.299401 5.146279,5.146279 0,2.846878 -2.189907,5.036783 -5.255774,5.036783 M 25.676653,63.890503 c -2.84688,0 -5.146279,-1.86142 -5.036784,-5.146278 L 20.749351,50.532078 8.8143636,62.467067 c -1.970917,1.970915 -5.365271,1.970915 -7.336188,0 -1.97091698,-2.080413 -1.97091698,-5.365272 0,-7.336187 L 13.08468,43.414882 H 5.2010256 c -2.956374,0 -5.14627798,-2.299401 -5.14627798,-5.146279 0,-2.846878 2.29939898,-5.146279 5.14627798,-5.146279 H 15.493586 c 2.189907,0 4.160822,1.313942 4.817795,3.284859 1.861419,5.474763 7.117194,7.336183 7.117194,7.336183 1.970915,0.766468 3.394354,2.627889 3.394354,4.817797 v 10.292558 c 0,2.737382 -2.189907,5.036782 -5.146279,5.036782 M 27.53807,20.31137 c -5.474765,1.970917 -7.336185,7.226693 -7.336185,7.226693 -0.766467,1.970915 -2.627887,3.394353 -4.817795,3.394353 H 5.0915316 c -2.84688,0 -5.14628098,-2.299399 -5.14628098,-5.146279 0,-2.846878 1.97091498,-5.146279 5.14628098,-5.146279 L 13.30368,20.74934 1.4781856,8.8143527 c -1.97091698,-1.9709169 -1.97091698,-5.2557758 0,-7.2266928 1.970917,-1.97091303 5.255775,-1.97091303 7.336187,0 L 20.530371,13.30366 V 5.2010069 c 0,-2.84688 2.299401,-5.14628103 5.146279,-5.14628103 2.846878,0 5.146279,2.29940103 5.146279,5.14628103 V 15.493564 c 0,2.189909 -1.313942,4.27032 -3.284859,4.817795"
   class="st0" />
</svg>