<svg xmlns="http://www.w3.org/2000/svg" width="120" height="60"><g fill="#004880"><path d="M102.025 28.695a6.05 6.05 0 0 0-1.356-4.15c-.968-1.058-2.387-1.638-3.857-1.577-1.588-.026-3.108.62-4.152 1.762-1.135 1.234-1.732 2.835-1.67 4.476a6.34 6.34 0 0 0 1.513 4.494c1.074 1.125 2.615 1.735 4.207 1.665 1.5.065 3.005-.333 4.263-1.137l.286-.194V30.73l-1.116.88a4.89 4.89 0 0 1-3.008 1.04c-.804.06-1.596-.216-2.168-.758a2.84 2.84 0 0 1-.747-1.613h7.787zm-7.62-1.207a3.02 3.02 0 0 1 .7-1.12 2.22 2.22 0 0 1 1.633-.66 1.89 1.89 0 0 1 1.504.582 2.3 2.3 0 0 1 .526 1.19zm-21.083 2.476a2.76 2.76 0 0 1-.664 1.956c-.4.454-.994.707-1.615.687-1.356 0-1.993-.784-1.993-2.644v-6.75h-3.146v6.98c0 3.34 1.596 5.164 4.613 5.164.994.028 1.968-.264 2.768-.828v.582h3.155V23.214h-3.12zm13.34-6.257l-.065.132c-.745-.54-1.648-.85-2.583-.88-1.637-.06-3.208.622-4.235 1.842a7.07 7.07 0 0 0-1.504 4.714c-.08 1.526.422 3.03 1.412 4.23a4.88 4.88 0 0 0 3.838 1.648c1.16-.067 2.264-.5 3.137-1.234-.092 2.203-1.153 3.2-3.368 3.2a6.84 6.84 0 0 1-3.211-.881l-1.033-.555v3.234l.378.185a8.75 8.75 0 0 0 3.884.82c4.263 0 6.46-2.256 6.46-6.512V23.17h-3.1zm0 5.992a3.07 3.07 0 0 1-.757 2.168c-.46.515-1.137.806-1.845.793a2.21 2.21 0 0 1-1.845-.811 3.66 3.66 0 0 1-.738-2.423 4.37 4.37 0 0 1 .784-2.802c.476-.594 1.23-.924 2-.88.648-.018 1.272.237 1.707.696.476.47.73 1.108.7 1.762zM59.75 22.967c-1.078-.024-2.13.3-2.98.943v-.696h-3.155V35.1h3.155v-6.688a2.8 2.8 0 0 1 .701-1.974c.412-.478 1.03-.748 1.68-.73 1.282 0 1.845.793 1.845 2.705V35.1h3.202V28c.086-1.306-.3-2.6-1.116-3.657-.825-.93-2.058-1.434-3.33-1.366z"/><path d="M109.813 25.98v-2.767h-2.768V19.84l-3.174.97v2.406h-1.9v2.767h1.9v5.595c0 2.414 1.264 3.763 3.598 3.763a4.24 4.24 0 0 0 1.993-.414l.36-.185v-3.163l-1.107.767a1.21 1.21 0 0 1-.738.22c-.388 0-.61-.08-.7-.203a1.89 1.89 0 0 1-.231-1.11v-5.287z"/></g><g transform="matrix(1.381514 0 0 1.333921 -12.01659 -7.920991)" fill="#004880"><path d="M34.685 20.343h-6.68a6.91 6.91 0 0 0-6.94 6.92v6.68a6.91 6.91 0 0 0 6.91 6.91h6.68a6.91 6.91 0 0 0 6.91-6.92v-6.67a6.91 6.91 0 0 0-6.88-6.92zm-6.75 7.47a2 2 0 1 1 .23-2.52 2 2 0 0 1-.23 2.52zm6.63 9.7a3.5 3.5 0 1 1 3.5-3.5 3.5 3.5 0 0 1-3.5 3.5z"/><circle cx="18.815" cy="18.753" r="2"/><circle cx="18.815" cy="18.753" r="2.75"/></g></svg>