<svg xmlns="http://www.w3.org/2000/svg" width="64" height="64"><switch><g><path fill="#ef3956" d="M57.5 23.4l1.9-7.8-10.9.7-2.2-8.8-7.9 4.7-4.2-6.9-5.6 5.8-6.9-4.7-2.8 7.2-12.4-2 3.9 8.6-9.2 3.5L6.9 32 0 41.6l12.5 1.2L1.3 64l17.6-13.3 4.4 7.5 4.6-6.5 7.8 7.6 5.4-7.1 10.4 2.7.2-9.8 9.6-1.4-3.7-9.1 6.4-5.5z"/><path d="M43.8 30.9l-1.1 14c-1.6.8-3.2 1.3-4.9 1.6-2 .4-4 .6-6.1.6-2.5.1-5.1-.5-7.3-1.7-2-1.1-3.7-2.7-4.8-4.7-1.2-2.2-1.8-4.7-1.7-7.2-.1-2.8.6-5.6 1.9-8 1.2-2.3 3.1-4.1 5.3-5.3 2.5-1.3 5.3-1.9 8.1-1.9 4.3 0 7.8 1 10.4 3.1L41 26.6c-1-.8-2.2-1.4-3.4-1.9-1.2-.4-2.5-.6-3.8-.6-2.7 0-4.7.8-6.1 2.5-1.4 1.7-2.2 4-2.2 7 0 2.6.6 4.6 1.8 5.9 1.2 1.4 3.1 2 5.6 2.1 1.2 0 2.4-.2 3.6-.5l.4-5.1H32l.4-5 11.4-.1z" fill="#fff"/></g></switch></svg>