<svg xmlns="http://www.w3.org/2000/svg" xml:space="preserve" id="Layer_1" width="120" height="60" x="0" y="0" version="1.1" viewBox="0 0 120 56.25"><style id="style1" type="text/css">.st0{fill:#5f6368}</style><g id="g10"><path id="path1" d="M27.2 47.3c-1.1 0-2.2-.4-3-1.2s-1.3-1.8-1.2-2.9c0-1.1.4-2.2 1.2-2.9q1.2-1.2 3-1.2c1.1 0 2.1.4 2.8 1.1l-.7.8c-.5-.5-1.3-.8-2-.8-.8 0-1.6.3-2.1.9q-.9.9-.9 2.1t.9 2.1c1.2 1.1 3 1.2 4.2 0 .4-.4.6-.9.6-1.4h-2.7v-1.1H31c0 .2.1.5 0 .7 0 1-.3 1.9-1 2.6-.7.8-1.7 1.2-2.8 1.2m8.9-.8c-1.1 1-2.7 1-3.8 0-.5-.5-.8-1.2-.8-1.9s.3-1.4.8-1.9c1.1-1 2.7-1 3.8 0 .5.5.8 1.2.8 1.9-.1.8-.3 1.4-.8 1.9m-3-.7c.5.6 1.5.6 2 .1l.1-.1c.3-.3.5-.7.4-1.2 0-.4-.1-.8-.4-1.2-.6-.6-1.5-.6-2.1 0-.3.3-.5.7-.4 1.2-.1.5.1.9.4 1.2m8.8.7c-1.1 1-2.7 1-3.8 0-.5-.5-.8-1.2-.8-1.9s.3-1.4.8-1.9c1.1-1 2.7-1 3.8 0 .5.5.8 1.2.8 1.9 0 .8-.3 1.4-.8 1.9m-3-.7c.5.6 1.5.6 2 .1l.1-.1c.3-.3.5-.7.4-1.2 0-.4-.1-.8-.4-1.2-.6-.6-1.5-.6-2.1 0-.3.3-.5.7-.4 1.2 0 .5.1.9.4 1.2m6.8 3.9c-.5 0-1.1-.2-1.5-.5s-.7-.7-.9-1.1l1-.4c.1.3.3.5.5.7s.5.3.8.3c.4 0 .8-.1 1-.4.3-.3.4-.7.4-1.2v-.4c-.3.4-.9.6-1.4.6-.7 0-1.3-.3-1.8-.8s-.8-1.2-.8-1.9.3-1.4.8-1.9 1.1-.8 1.8-.8c.3 0 .6.1.8.2s.4.2.6.4v-.4h1.1v4.8c.1.8-.2 1.5-.7 2.1-.4.5-1 .7-1.7.7m.1-3.4c.4 0 .8-.2 1-.4.3-.3.4-.7.4-1.1s-.1-.8-.4-1.2c-.3-.3-.6-.5-1-.4-.4 0-.8.2-1 .4-.3.3-.5.7-.4 1.2 0 .4.2.8.4 1.1.2.2.6.4 1 .4m4.4-7v7.8H49v-7.8zm3.2 8a2.73 2.73 0 0 1-2.7-2.7c0-.7.2-1.4.7-1.9s1.1-.8 1.8-.7c.3 0 .6.1.9.2s.5.3.7.4c.2.2.3.3.4.5s.2.3.3.5l.1.3-3.6 1.5c.2.5.7.8 1.3.8.5 0 1-.3 1.3-.7l.9.6c-.2.3-.5.6-.9.8-.2.3-.7.4-1.2.4m-1.5-2.7 2.4-1c-.1-.2-.2-.3-.4-.4s-.4-.2-.6-.2c-.4 0-.7.2-1 .4-.2.3-.4.7-.4 1.2" class="st0"/><g id="g9"><path id="path2" d="M61.7 47.3c-.9 0-1.7-.3-2.3-.9q-.9-.9-.9-2.4c0-.9.3-1.7.9-2.3s1.4-1 2.3-1c1 0 1.7.3 2.3 1l-.6.6c-.5-.5-1-.8-1.7-.8s-1.3.2-1.8.7-.7 1.1-.7 1.8.2 1.4.7 1.8c.5.5 1.1.7 1.8.7s1.4-.3 1.9-.9l.6.6c-.3.4-.7.6-1.1.8s-.9.3-1.4.3" class="st0"/><path id="path3" d="M65.7 40.8v6.3h-.8v-6.3z" class="st0"/><path id="path4" d="M66.4 45c0-.7.2-1.2.6-1.7.4-.4 1-.7 1.6-.7s1.2.2 1.6.7c.4.4.6 1 .6 1.7s-.2 1.2-.6 1.7c-.4.4-.9.7-1.6.7s-1.2-.2-1.6-.7-.6-1.1-.6-1.7m.8 0c0 .5.1.8.4 1.1s.6.4 1 .4.7-.1 1-.4.4-.7.4-1.1c0-.5-.1-.8-.4-1.1s-.6-.4-1-.4-.7.1-1 .4c-.2.2-.4.6-.4 1.1" class="st0"/><path id="path5" d="M75.4 47.1h-.8v-.6c-.1.2-.3.4-.6.5s-.5.2-.8.2c-.5 0-.9-.2-1.2-.5s-.4-.7-.4-1.3v-2.7h.8v2.7c0 .7.4 1.1 1.1 1.1.3 0 .6-.1.8-.4q.3-.45.3-.9v-2.4h.8z" class="st0"/><path id="path6" d="M78.1 47.3c-.6 0-1-.2-1.5-.7-.4-.5-.6-1-.6-1.6s.2-1.2.6-1.6.9-.7 1.5-.7c.3 0 .6.1.9.2s.5.3.6.5v-2.6h.8v6.3h-.8v-.6c-.1.2-.3.4-.6.5q-.45.3-.9.3m.2-.8c.4 0 .7-.1 1-.4s.4-.7.4-1.1c0-.5-.1-.8-.4-1.1s-.6-.4-1-.4-.7.1-1 .4-.4.7-.4 1.1c0 .5.1.8.4 1.1.2.3.6.4 1 .4" class="st0"/><path id="path7" d="M84.3 47.1h-.8v-6.3h2.2c.5 0 1 .2 1.4.5.4.4.6.8.6 1.3 0 .4-.1.8-.4 1.2-.3.3-.6.6-1.1.6L88 47h-1l-1.7-2.6h-.9v2.7zm0-5.5v2.2h1.3c.3 0 .6-.1.8-.3s.3-.5.3-.8-.1-.6-.3-.8-.5-.3-.8-.3z" class="st0"/><path id="path8" d="M92.2 47.1h-.8v-.6c-.1.2-.3.4-.6.5s-.5.2-.8.2c-.5 0-.9-.2-1.2-.5s-.4-.7-.4-1.3v-2.7h.8v2.7c0 .7.4 1.1 1.1 1.1.3 0 .6-.1.8-.4q.3-.45.3-.9v-2.4h.8z" class="st0"/><path id="path9" d="M93.1 42.8h.8v.6c.1-.2.3-.4.6-.5s.5-.2.8-.2c.5 0 .9.2 1.2.5s.4.7.4 1.3v2.7h-.8v-2.7c0-.7-.4-1.1-1.1-1.1-.3 0-.6.1-.8.4q-.3.45-.3.9v2.4h-.8z" class="st0"/></g></g><g id="g12"><path id="path10" d="M53.4 6.7c-1 0-2 .6-2.5 1.5l-6.6 11.5c-.5.9-.5 2 0 2.9l6.6 11.5c.5.9 1.4 1.5 2.5 1.5h13.2c1 0 2-.6 2.5-1.5l6.6-11.5c.3-.5.4-1 .4-1.5s-.1-1-.4-1.5L69.1 8.2c-.5-.9-1.4-1.5-2.5-1.5z" style="fill:#4285f4"/><path id="path11" d="m73.6 26.2-4.5 7.9c-.5.9-1.4 1.5-2.5 1.5h-5l-7.3-7.4 2.2-7-2.2-7.1 2.2 1.5 3 3-1.5-4.4 10.5 7z" style="fill-opacity:7.000000e-02"/><path id="path12" d="m54.2 14.2 2.2 1.5 1.7 5.6-1.7 5.4-2.3 1.5 2.2-7zm5.7 2.5 1.1 3.5h4.1zm8.6 4.5-10.5 7 2.2-7-2.2-7z" style="fill:#fff"/></g></svg>