<?xml version="1.0" encoding="UTF-8" standalone="no"?>
<!-- Generator: Adobe Illustrator 21.1.0, SVG Export Plug-In . SVG Version: 6.00 Build 0)  -->

<svg
   xmlns:dc="http://purl.org/dc/elements/1.1/"
   xmlns:cc="http://creativecommons.org/ns#"
   xmlns:rdf="http://www.w3.org/1999/02/22-rdf-syntax-ns#"
   xmlns:svg="http://www.w3.org/2000/svg"
   xmlns="http://www.w3.org/2000/svg"
   xmlns:sodipodi="http://sodipodi.sourceforge.net/DTD/sodipodi-0.dtd"
   xmlns:inkscape="http://www.inkscape.org/namespaces/inkscape"
   version="1.1"
   id="Layer_1"
   x="0px"
   y="0px"
   viewBox="-4.86 3.32 64 63.999999"
   xml:space="preserve"
   sodipodi:docname="creationlineinc-icon.svg"
   width="64"
   height="64"
   inkscape:version="0.92.3 (2405546, 2018-03-11)"><metadata
   id="metadata53"><rdf:RDF><cc:Work
       rdf:about=""><dc:format>image/svg+xml</dc:format><dc:type
         rdf:resource="http://purl.org/dc/dcmitype/StillImage" /><dc:title></dc:title></cc:Work></rdf:RDF></metadata><defs
   id="defs51">
	
	

		
	
		
	
			
			
			
			
			
			
			
			
			
			
			
			
			
			
			
			
			
		</defs><sodipodi:namedview
   pagecolor="#ffffff"
   bordercolor="#666666"
   borderopacity="1"
   objecttolerance="10"
   gridtolerance="10"
   guidetolerance="10"
   inkscape:pageopacity="0"
   inkscape:pageshadow="2"
   inkscape:window-width="1920"
   inkscape:window-height="1001"
   id="namedview49"
   showgrid="false"
   inkscape:zoom="4.0839799"
   inkscape:cx="91.552921"
   inkscape:cy="24.936527"
   inkscape:window-x="-9"
   inkscape:window-y="-9"
   inkscape:window-maximized="1"
   inkscape:current-layer="Layer_1" />
<style
   type="text/css"
   id="style2">
	.st0{fill:#6A6A6A;}
	.st1{fill:#3992CF;}
	.st2{fill:#FEFEFE;}
	.st3{fill:#25569B;}
	.st4{fill:#154991;}
	.st5{fill:#24559B;}
	.st6{fill:#3B5DA4;}
	.st7{fill:#44619F;}
	.st8{fill:#3F5FA1;}
	.st9{fill:#3160A2;}
	.st10{fill:#1F5198;}
	.st11{fill:#3563A2;}
	.st12{fill:#205298;}
	.st13{fill:#295A9F;}
	.st14{fill:#3260A1;}
	.st15{fill:#2D5D9F;}
	.st16{fill:#2F5EA1;}
	.st17{fill:#315FA0;}
	.st18{fill:#29599D;}
	.st19{fill:#6587B7;}
	.st20{fill:#255599;}
	.st21{fill:#3A67A5;}
	.st22{fill:#2C58A0;}
	.st23{fill:#3E69A5;}
	.st24{fill:#416BA6;}
	.st25{fill:#6C8CBA;}
	.st26{fill:#406AA6;}
	.st27{fill:#6789B8;}
	.st28{fill:#7D9AC2;}
	.st29{fill:#416BA7;}
	.st30{fill:#4770A9;}
	.st31{fill:#4972AA;}
	.st32{fill:#4A72AB;}
	.st33{fill:#325F9F;}
	.st34{fill:#9FB4D2;}
	.st35{fill:#5976AF;}
	.st36{fill:#7594BE;}
	.st37{fill:#6F8FBB;}
	.st38{fill:#235498;}
	.st39{fill:#6D8DBA;}
	.st40{fill:#4A73AB;}
	.st41{fill:#8DA6C9;}
	.st42{fill:#FBFCFC;}
	.st43{fill:#FBFBFC;}
	.st44{fill:#FCFCFD;}
	.st45{fill:#FDFDFD;}
	.st46{fill:#3D5CA1;}
	.st47{fill:#4561A2;}
	.st48{fill:#4162A4;}
	.st49{fill:#3E5DA3;}
	.st50{fill:#F7F9FB;}
	.st51{fill:#34569F;}
	.st52{fill:#EAEEF5;}
	.st53{fill:#FDFDFE;}
	.st54{fill:#164391;}
	.st55{fill:#889FC7;}
	.st56{fill:#183690;}
</style>
<g
   id="g918"
   transform="matrix(1.709763,0,0,1.709763,-80.509081,6.9108678)"><path
     style="fill:#183690;stroke-width:0.11087704"
     inkscape:connector-curvature="0"
     id="path42"
     d="M 62.961405,-2.100214 46.751182,7.2578082 V 25.973853 L 62.961405,35.331875 79.171628,25.98494 V 7.2578082 Z M 57.373202,19.85344 v 5.809957 l -5.033817,-2.916066 v -5.809957 z m -5.033817,-3.337399 v -5.809957 l 5.033817,2.904979 v 5.809957 z m 5.399712,9.358022 v -5.809957 l 5.033817,2.904979 v 5.809957 z m 5.033817,-3.337399 -5.033817,-2.904978 v -5.809957 l 5.033817,2.904978 z M 57.927587,7.2578082 62.961405,4.3528298 67.995223,7.2578082 62.961405,10.162787 Z m 10.245039,24.6368788 -5.033818,2.904978 v -5.588203 l 5.033818,-2.904978 z m 0,-6.020624 -5.02273,2.904979 v -5.809957 l 5.033818,-2.904979 v 5.809957 z m 0,-6.242377 -5.033818,2.904978 v -5.809957 l 5.033818,-2.904978 z m -4.834239,-9.247145 5.033818,-2.9049787 5.033817,2.9049787 -5.033817,2.904978 z m 10.245039,18.394501 -5.033818,2.904978 v -5.588203 l 5.033818,-2.904978 z m 0,-6.031711 -5.033818,2.904978 v -5.809957 l 5.033818,-2.904978 z m 0,-6.23129 -5.033818,2.904979 v -5.809957 l 5.033818,-2.904979 z m 5.21122,9.247145 -4.834239,2.794102 v -5.588203 l 4.845327,-2.794102 v 5.588203 z m 0,-6.020623 -4.834239,2.794101 v -5.809957 l 4.845327,-2.794101 v 5.809957 z m 0,-6.242377 -4.834239,2.794101 V 10.48433 l 4.845327,-2.7941013 v 5.8099573 z"
     class="st56" /></g>
</svg>