<?xml version="1.0" encoding="UTF-8" standalone="no"?>
<!-- Generator: Adobe Illustrator 21.1.0, SVG Export Plug-In . SVG Version: 6.00 Build 0)  -->

<svg
   xmlns:dc="http://purl.org/dc/elements/1.1/"
   xmlns:cc="http://creativecommons.org/ns#"
   xmlns:rdf="http://www.w3.org/1999/02/22-rdf-syntax-ns#"
   xmlns:svg="http://www.w3.org/2000/svg"
   xmlns="http://www.w3.org/2000/svg"
   xmlns:sodipodi="http://sodipodi.sourceforge.net/DTD/sodipodi-0.dtd"
   xmlns:inkscape="http://www.inkscape.org/namespaces/inkscape"
   version="1.1"
   id="Layer_1"
   x="0px"
   y="0px"
   viewBox="-0.56 -0.82 120 60"
   xml:space="preserve"
   sodipodi:docname="containerd-ar21.svg"
   width="120"
   height="60"
   inkscape:version="0.92.3 (2405546, 2018-03-11)"><metadata
   id="metadata45"><rdf:RDF><cc:Work
       rdf:about=""><dc:format>image/svg+xml</dc:format><dc:type
         rdf:resource="http://purl.org/dc/dcmitype/StillImage" /><dc:title></dc:title></cc:Work></rdf:RDF></metadata><defs
   id="defs43">
	
	
	

		
		
	
		
		
		
		
		
		
		
		
		
		
	
		
		
	</defs><sodipodi:namedview
   pagecolor="#ffffff"
   bordercolor="#666666"
   borderopacity="1"
   objecttolerance="10"
   gridtolerance="10"
   guidetolerance="10"
   inkscape:pageopacity="0"
   inkscape:pageshadow="2"
   inkscape:window-width="1920"
   inkscape:window-height="1001"
   id="namedview41"
   showgrid="false"
   inkscape:zoom="5.9429202"
   inkscape:cx="71.948673"
   inkscape:cy="34.143783"
   inkscape:window-x="-9"
   inkscape:window-y="-9"
   inkscape:window-maximized="1"
   inkscape:current-layer="Layer_1" />
<style
   type="text/css"
   id="style2">
	.st0{opacity:0.66;enable-background:new    ;}
</style>
<g
   id="g895"
   transform="matrix(0.8254717,0,0,0.8254717,4.8763206,-139.38132)"><path
     inkscape:connector-curvature="0"
     id="path4"
     d="m 108.5,189 v 30.4 h 21.2 V 189 Z m 17.7,26.9 H 124 112 v -3.5 -9.9 h 2.5 7.4 v -4.9 h 4.2 v 18.3 z" /><rect
     id="rect6"
     height="6.4000001"
     width="5.6999998"
     y="206"
     x="116.3" /><polygon
     style="opacity:0.66000001;enable-background:new"
     id="polygon10"
     points="47.7,203.1 47.7,198.2 44.9,198.2 44.9,203.1 42.8,203.1 42.8,206 44.9,206 44.9,215.9 46.7,215.9 50.6,215.9 50.6,213 47.7,213 47.7,206 50.6,206 50.6,203.1 "
     class="st0" /><path
     style="opacity:0.66000001;enable-background:new"
     inkscape:connector-curvature="0"
     id="path12"
     d="m 54.8,206 h 7.1 v 2.1 H 52 v 2.1 5.7 h 1.4 9.9 1.4 v -11 -1.8 h -9.9 z m 7.1,7 h -7.1 v -2.1 h 7.1 z"
     class="st0" /><rect
     style="opacity:0.66000001;enable-background:new"
     id="rect14"
     height="12.7"
     width="2.8"
     class="st0"
     y="203.10001"
     x="66.099998" /><polygon
     style="opacity:0.66000001;enable-background:new"
     id="polygon16"
     points="33.6,206 38.5,206 38.5,215.9 41.4,215.9 41.4,203.1 39.2,203.1 32.9,203.1 30.8,203.1 30.8,215.9 33.6,215.9 "
     class="st0" /><polygon
     style="opacity:0.66000001;enable-background:new"
     id="polygon18"
     points="15.2,213 5.3,213 5.3,206 15.2,206 15.2,203.1 4.6,203.1 2.5,203.1 2.5,215.9 4.6,215.9 15.2,215.9 "
     class="st0" /><path
     style="opacity:0.66000001;enable-background:new"
     inkscape:connector-curvature="0"
     id="path20"
     d="m 16.6,205.6 v 8.1 2.1 h 12.7 v -2.1 -8.1 -2.5 H 16.6 Z m 2.9,0.4 h 7.1 v 7.1 h -7.1 z"
     class="st0" /><rect
     style="opacity:0.66000001;enable-background:new"
     id="rect22"
     height="2.8"
     width="2.8"
     class="st0"
     y="198.2"
     x="66.099998" /><polygon
     style="opacity:0.66000001;enable-background:new"
     id="polygon24"
     points="98.6,203.1 95.8,203.1 95.8,215.9 98.6,215.9 98.6,206 106.4,206 106.4,203.1 "
     class="st0" /><polygon
     style="opacity:0.66000001;enable-background:new"
     id="polygon26"
     points="73.2,206 78.1,206 78.1,215.9 80.9,215.9 80.9,203.1 78.5,203.1 72.8,203.1 70.3,203.1 70.3,215.9 73.2,215.9 "
     class="st0" /><path
     style="opacity:0.66000001;enable-background:new"
     inkscape:connector-curvature="0"
     id="path28"
     d="m 82.4,203.1 v 12.7 H 84.5 93 V 213 h -7.8 v -2.1 h 7.8 1.4 v -6.4 -1.4 H 83.8 Z m 2.8,2.9 h 6.4 v 2.1 h -6.4 z"
     class="st0" /></g>
</svg>