<?xml version="1.0" encoding="utf-8"?>
<!-- Generator: Adobe Illustrator 24.0.1, SVG Export Plug-In . SVG Version: 6.00 Build 0)  -->
<svg version="1.1" id="Layer_1" xmlns="http://www.w3.org/2000/svg" xmlns:xlink="http://www.w3.org/1999/xlink" x="0px" y="0px"
	 viewBox="0 0 120 60" width="120" height="60" style="enable-background:new 0 0 120 60;" xml:space="preserve">
<style type="text/css">
	.st0{fill:#FCB425;}
	.st1{fill:#231F20;}
	.st2{fill:#FFFFFF;}
</style>
<circle class="st0" cx="60" cy="30" r="24.5"/>
<path class="st1" d="M54.2,37.5h-4.5v-1.8c-0.5,0.6-1.5,1.2-2,1.4c-0.8,0.5-1.9,0.8-3,0.8c-1.7,0-3.2-0.5-4.5-1.7
	c-1.6-1.4-2.3-3.5-2.3-5.8c0-2.3,0.8-4.2,2.4-5.6c1.3-1.1,2.9-2,4.5-2c1,0,2.2,0.1,3,0.5c0.5,0.2,1.4,0.8,1.9,1.3v-9.7h4.5V37.5z
	 M49.6,30.3c0-0.9-0.2-1.9-0.8-2.5c-0.6-0.6-1.7-1.1-2.6-1.1c-1,0-1.8,0.7-2.5,1.4c-0.5,0.6-0.7,1.5-0.7,2.2c0,0.8,0.3,1.6,0.8,2.2
	c0.6,0.7,1.3,1.2,2.2,1.2c0.9,0,1.9-0.4,2.5-1C49.1,32.2,49.6,31.2,49.6,30.3z"/>
<path class="st2" d="M75.5,14.9c-0.8,0-1.4,0.3-1.9,0.8c-0.5,0.5-0.8,1.2-0.8,1.9c0,0.8,0.3,1.4,0.8,1.9c0.5,0.5,1.2,0.8,1.9,0.8
	c0.8,0,1.4-0.3,1.9-0.8c0.5-0.5,0.8-1.2,0.8-1.9c0-0.8-0.3-1.4-0.8-1.9C76.9,15.2,76.2,14.9,75.5,14.9z M63.5,22.5
	c-2.8,0-5,0.9-6.5,2.6c-1.3,1.4-1.9,3.1-1.9,5c0,2.1,0.6,3.8,1.9,5.3c1.5,1.7,3.6,2.6,6.3,2.6c2.7,0,4.8-0.9,6.3-2.6
	c1.2-1.4,1.9-3.1,1.9-5.1c0-2-0.6-3.7-1.9-5.1C68.2,23.4,66.1,22.5,63.5,22.5z M73.1,23.1v14.4h4.8V23.1H73.1z M63.4,26.9
	c0.9,0,1.6,0.3,2.2,1c0.6,0.6,0.9,1.4,0.9,2.4c0,0.9-0.3,1.7-0.9,2.4c-0.6,0.6-1.4,1-2.3,1c-1,0-1.8-0.4-2.4-1.2
	c-0.5-0.6-0.8-1.4-0.8-2.2c0-0.8,0.3-1.5,0.8-2.2C61.6,27.3,62.4,26.9,63.4,26.9z"/>
</svg>
