<svg xmlns="http://www.w3.org/2000/svg" width="120" height="60" fill="#000105"><path d="M64.164 20.842V31.36L52.32 20.318v18.72h3.5V28.584l11.84 11.024V20.842zM36.95 20.14a9.82 9.82 0 0 0-9.09 6.052 9.83 9.83 0 0 0 2.117 10.714c2.807 2.814 7.036 3.658 10.7 2.14a9.84 9.84 0 0 0-3.736-18.905zm0 16.117a6.31 6.31 0 0 1-5.86-3.84c-.994-2.34-.472-5.067 1.323-6.88s4.507-2.363 6.867-1.392 3.9 3.27 3.9 5.822a6.29 6.29 0 0 1-6.23 6.3zm-15.8-6.13c-.933-.712-2.157-1.287-3.987-1.867-3.557-1.13-3.557-2.028-3.557-2.46 0-1 1.128-2.057 3.018-2.057a5.71 5.71 0 0 1 3.285 1.135l.245.184 2.828-1.912-.308-.367a8.27 8.27 0 0 0-6.05-2.642c-1.82 0-3.493.588-4.707 1.638A5.36 5.36 0 0 0 10 25.801c0 1.614.704 2.97 2.093 4.028.933.712 2.157 1.287 3.987 1.867 3.557 1.13 3.557 2.028 3.557 2.457 0 1.012-1.13 2.06-3.018 2.06-1.187-.026-2.335-.423-3.285-1.135l-.245-.184-2.83 1.912.308.367c1.562 1.682 3.752 2.642 6.048 2.65 1.818 0 3.5-.588 4.707-1.638 1.2-1 1.886-2.468 1.9-4.022.002-1.62-.702-2.97-2.1-4.034zM83.052 20.2c-3.974 0-7.557 2.394-9.078 6.066s-.68 7.898 2.13 10.708a9.83 9.83 0 0 0 10.708 2.13c3.67-1.52 6.065-5.105 6.064-9.08a9.84 9.84 0 0 0-9.825-9.823zm0 16.117a6.31 6.31 0 0 1-5.86-3.84 6.3 6.3 0 0 1 1.322-6.88c1.794-1.813 4.507-2.364 6.866-1.394s3.9 3.27 3.9 5.82c.01 3.455-2.773 6.27-6.23 6.295zm15.8-6.444c.932.712 2.157 1.287 3.987 1.867 3.556 1.13 3.556 2.028 3.556 2.457 0 1.012-1.128 2.06-3.016 2.06a5.71 5.71 0 0 1-3.28-1.14l-.247-.182-2.828 1.9.308.367a8.28 8.28 0 0 0 6.052 2.642c1.818 0 3.5-.588 4.707-1.638 1.2-1 1.886-2.468 1.9-4.022 0-1.612-.704-2.967-2.094-4.026-.932-.712-2.157-1.287-3.987-1.867-3.556-1.13-3.556-2.028-3.556-2.457 0-1.012 1.128-2.06 3.016-2.06a5.69 5.69 0 0 1 3.283 1.135l.247.184 2.828-1.912-.308-.367c-1.563-1.682-3.756-2.64-6.052-2.642-1.818 0-3.5.588-4.707 1.638a5.33 5.33 0 0 0-1.906 4.028c0 1.62.7 2.967 2.1 4.026z"/></svg>