<svg xmlns="http://www.w3.org/2000/svg" xmlns:xlink="http://www.w3.org/1999/xlink" width="120" height="60" viewBox="0 0 31.75 15.875"><defs><linearGradient id="A" x2="17.015" x1="17.015" y1="29.203" y2="47.851" xlink:href="#I"><stop stop-color="#0097e0" offset="0"/><stop stop-color="#0097e0" offset=".013"/><stop stop-color="#00aaeb" offset=".252"/><stop stop-color="#00aaeb" offset=".262"/><stop stop-color="#00b9ef" offset="1"/></linearGradient><linearGradient id="B" x2="17.083" x1="17.083" y1="29.203" y2="47.851" xlink:href="#I"><stop stop-color="#0097e0" offset="0"/><stop stop-color="#0097e0" offset=".013"/><stop stop-color="#00aaeb" offset=".252"/><stop stop-color="#00aaeb" offset=".262"/><stop stop-color="#00b9ef" offset="1"/></linearGradient><linearGradient id="C" x2="16.798" x1="16.448" y1="28.227" y2="9.488" xlink:href="#I"><stop stop-color="#00a1e9" offset="0"/><stop stop-color="#00a1e9" offset=".052"/><stop stop-color="#00b9ef" offset="1"/></linearGradient><linearGradient id="D" x2="16.017" x1="16.017" y1="28.613" y2="21.636" xlink:href="#I"><stop stop-color="#00a1e9" offset="0"/><stop stop-color="#00a1e9" offset=".165"/><stop stop-color="#55c3f1" offset="1"/></linearGradient><linearGradient id="E" x2="21.973" x1="10.37" y1="23.947" y2="24.165" xlink:href="#I"><stop stop-color="#fff" offset="0"/><stop stop-color="#fff" offset=".613"/><stop stop-color="#fff" offset="1"/></linearGradient><mask id="F" x="0" y="0" width="1" height="1" maskUnits="userSpaceOnUse"><path d="M-32768 32767h65535v-65535h-65535z" fill="url(#G)"/></mask><radialGradient id="G" cx="0" cy="0" r="1" gradientTransform="matrix(-0.037097,-1.9834,-1.9834,0.037097,202.2,476.21)" xlink:href="#I"><stop stop-color="#fff" offset="0"/><stop stop-color="#fff" stop-opacity="0" offset="1"/></radialGradient><radialGradient id="H" cx="0" cy="0" r="1" gradientTransform="matrix(-0.037097,-1.9834,-1.9834,0.037097,202.2,476.21)" xlink:href="#I"><stop stop-color="#bbe3f9" offset="0"/><stop stop-color="#1c95d4" offset="1"/></radialGradient><linearGradient id="I" gradientUnits="userSpaceOnUse"/></defs><g transform="matrix(.231411 0 0 .231411 2.482466 1.993794)"><path d="M21.04 42.04l9.007 7.435s.347.27.58 0c0 0 2.935-2.822 3.553-2.706 0 0 .18-.026-.077.503 0 0-.604 1.262-2.82 3.7 0 0-.708.773-1.505.077l-9.586-8.054s-.513-.464-.102-.978c0 0 .387-.413.95.012m-7.835.001l-9.007 7.435s-.347.27-.58 0c0 0-2.935-2.822-3.552-2.706 0 0-.18-.026.076.503 0 0 .604 1.262 2.82 3.7 0 0 .708.773 1.507.077l9.583-8.054s.515-.464.103-.978c0 0-.387-.413-.95.012m6.635-8.923s.642-.652 5.706-3.085c0 0 .256-.138.413.104 0 0 1.576 1.8 3.424 1.698 0 0 .312-.02.45-.37.246-.615-1.44-1.338-1.44-1.338-.792-.35-.7-1.108-.7-1.108.05-.487-.286-.754-.286-.754-.598-.477-2.6.796-2.6.796l-5.475 3.045s-.68.32-.403.856c0 0 .213.487.9.154m-5.32.218s-.683-.6-5.9-2.72c0 0-.264-.12-.405.13 0 0-1.46 1.887-3.3 1.912 0 0-.313 0-.475-.338-.282-.598 1.355-1.43 1.355-1.43.77-.398.617-1.15.617-1.15-.08-.482.238-.77.238-.77.566-.514 2.637.63 2.637.63l5.656 2.694s.7.276.456.83c0 0-.18.498-.88.2" fill="#3f3b3a"/><path d="M11.957 41.2c0 3.85 2.265 6.972 5.06 6.972s5.06-3.122 5.06-6.972-2.266-6.97-5.06-6.97-5.06 3.122-5.06 6.97" fill="url(#A)"/><path d="M14.067 31.734c0 1.914 1.35 3.467 3.012 3.467s3.012-1.553 3.012-3.467-1.347-3.465-3.012-3.465-3.012 1.55-3.012 3.465" fill="url(#B)"/><g fill="#3f3b3a"><path d="M10.086 15.66s-1.7-6.4 3.103-12.9l.392.615s-3.32 4.16-2.442 11.232z"/><path d="M16.54.473c.58.68.296 1.88-.636 2.678s-2.16.893-2.742.2-.297-1.88.636-2.677 2.16-.893 2.742-.212m3.628 13.373s2.46-6.16 10.187-8.472L30.3 6.1s-5.146 1.35-8.666 7.542z"/><path d="M34.535 5.468c.06.894-.885 1.684-2.108 1.766s-2.266-.578-2.325-1.472.886-1.683 2.1-1.765 2.265.578 2.324 1.47"/></g><path d="M5.607 19.35c-.312 7.222 4.9 9.905 11.2 9.56 7.167-.388 11.223-4.13 10.75-9.648-.86-10.044-9.763-6.387-12.13-10.387-2.885 4.42-9.495 2.73-9.832 10.475" fill="url(#C)"/><path d="M5.834 22.3l.045.203c1.132 4.866 5.646 6.7 10.948 6.42 4.384-.238 7.598-1.734 9.328-4.122.83-1.573-.843-3.904-2.82-2.58-.337.227-7.436 6.175-17.655-.9.04.335.1.657.155.967" fill="url(#D)"/><path d="M16.38 22.052c-8.13.532-7.867-4.33-7.867-4.33.136-4.544 7.312-4.67 7.312-4.67s8.37-.564 8.435 4.293c0 0 .294 4.3-7.88 4.708" fill="#008cd6"/><path d="M16.37 22.37c-8.302.392-7.85-4.322-7.85-4.322.136-4.534 7.295-4.555 7.295-4.555s8.355-.667 8.42 4.178c0 0 .378 4.32-7.863 4.7" fill="#fff"/><path d="M11.254 23.55c-.7-.2-1.124.557-.314 1.047s6.662 2.074 10.903-.9l-.06-.947c-5.296 2.473-10.53.8-10.53.8" fill="url(#E)"/><path d="M16.4 16.342c-1.277.106-2.227 1.226-2.124 2.503 0 0 .007.215.312.2s1.965-.43 4.095-.335c.23-.017.215-.23.215-.23a2.32 2.32 0 0 0-2.498-2.127" fill="#3f3b3a"/><path d="M201.97 476.04c-.893-.074-1.558-.857-1.486-1.75 0 0 .005-.15.22-.133s1.374.302 2.864.234c.16.013.15.162.15.162a1.62 1.62 0 0 1-1.748 1.487" fill="url(#H)" transform="matrix(1.134 0 0 -1.1351 -212.62 556.82)" mask="url(#F)"/></g><g fill="#3f3b3a"><path d="M13.18 10.937l.005-.01.16-.352.162.362zm.06-.77l-.644 1.425h.283l.194-.424h.535l.188.424h.282l-.632-1.425zm4.983.433c0-.064.02-.115.055-.148s.08-.045.14-.045h.543v-.228h-.543a.55.55 0 0 0-.333.1c-.083.062-.127.183-.125.3v1h.263v-.594h.752v-.228h-.752zm9.347.337l.005-.01.153-.337.007-.015.162.362zm.06-.77l-.644 1.425h.283l.194-.424H28l.2.424h.28l-.632-1.425zm1.378 1.093v-1.087h-.265v1.087c0 .35.326.35.433.35h.543v-.23h-.543c-.14 0-.168-.042-.168-.12M15.36 10.224l-.003.93-.76-.986h-.218v1.424h.267l-.002-.78-.001-.172.013.017.723.935h.245v-1.418h-.264zm.622.206h.475v1.16h.264v-1.16h.485v-.228H15.98zm6.158.507l.005-.01.16-.35.163.362zm.062-.77l-.644 1.425h.284l.194-.424h.534l.188.424h.28l-.632-1.425zm-2.86 1.425h.265v-1.4h-.265z"/><path d="M25.97 11.37l-.27.01c-.225 0-.353-.035-.393-.107-.046-.088-.073-.218-.073-.365a.94.94 0 0 1 .063-.352c.045-.096.174-.142.394-.142l.288.013.077.008-.001-.23-.053-.005-.312-.013c-.22 0-.53.03-.64.284a1.07 1.07 0 0 0-.083.437 1.09 1.09 0 0 0 .102.462c.087.163.287.24.63.24h.273l.084-.004-.001-.23zm-1.653-1.146l-.001.545v.38l-.76-.993h-.217v1.424h.267v-.05l-.002-.903.736.952h.245v-1.42h-.265zm-3.322 0l-.001.224-.002.713-.76-.993h-.218v1.424h.267v-.953l.736.952h.245v-1.418h-.264zm5.437 1.368h.265v-1.4h-.265zM20.346 6.58l-.14-1.013h-.357L20 6.58zM16.108 6l-.048 1.3h-.994c-.066 0-.106-.024-.1-.082l.1-1.013h-.342l-.102 1.044c-.012.13.032.223.102.287s.157.094.298.094h1.195c.066 0 .1.028.1.083v.54H14.56l.067.33h1.692v.636c0 .064-.03.096-.086.096H14.82l.07.33h1.376c.138 0 .233-.03.298-.098s.097-.15.097-.286V7.68c0-.133-.032-.224-.102-.287a.32.32 0 0 0-.157-.079l.047-1.354c0-.133-.032-.224-.1-.287s-.158-.093-.3-.093h-1.557v.33h1.515c.066 0 .1.027.1.082M28.92 9.024l.5.623h.452s-.353-.4-.738-.938c.223-.336.53-.825.606-1.068.054-.175-.04-.395-.3-.395h-1.448V6c0-.056.034-.084.1-.084h1.076c.067 0 .1.028.1.084v.5c0 .064-.028.096-.086.096h-.67v.33h.704c.138 0 .232-.03.298-.097s.097-.15.097-.287v-.585c0-.133-.032-.224-.1-.287s-.157-.094-.3-.094h-1.16c-.14 0-.225.027-.3.094-.067.062-.1.15-.1.28v3.688h.343V7.553h1.284c.046 0 .076.043.057.097-.06.177-.258.5-.42.752l-.395-.66h-.383a7.12 7.12 0 0 0 .565.981l-.025.036-.632.888h.427c.163-.194.288-.413.413-.585l.026-.038m-7.28.62h3.744v-.33h-.714l.1-.786h-.37l-.1.786h-.617V8.108h1.46v-.33h-1.46v-.73h1.023v-.33h-2.4v.33h1.023v.73h-1.46v.33h1.46v1.207h-.623l-.1-.786h-.37l.1.786h-.694z"/><path d="M23.192 5.405c.055.001.087-.01.116-.024l-.022.2h-.188zm.376.007l.022.177h-.163l.025-.246c.03.03.07.053.116.07m.268.025l.067.152h-.172l-.02-.147a.62.62 0 0 0 .124-.004m-1.157.592c.058-.088.1-.1.277-.1h1.093c.166 0 .22.023.277.1L25 7.05h.47l-.762-1.17c-.136-.198-.302-.293-.537-.293h-.104l-.082-.184c.227-.078.37-.258.33-.416-.046-.17-.288-.253-.542-.184-.187.05-.328.17-.37.296-.034-.065-.1-.1-.178-.112.01-.03.015-.063.015-.096a.32.32 0 0 0-.259-.307l-.006-.254c-.001-.038-.032-.067-.07-.067h-.003c-.038.001-.068.032-.067.07l.006.257a.3.3 0 0 0-.108.052l-.163-.185c-.014-.016-.033-.024-.053-.024s-.032.006-.044.017v.002a.07.07 0 0 0-.006.097l.177.2a.31.31 0 0 0-.038.155.32.32 0 0 0 .325.312c.03 0 .056-.006.082-.013.002.057.026.1.065.146l-.123.24h-.096c-.235 0-.4.095-.537.293l-.763 1.17h.472l.662-1.022m-9.368 1.92h-.236c-.067 0-.1-.03-.1-.084V6.403c0-.055.034-.083.1-.083h.236zm.343-1.63h.236c.067 0 .1.028.1.083v1.464c0 .055-.033.084-.1.084h-.236zm.993 3.326l-.173-.908h-.347l.076.4-.55.03v-.9h.28c.14 0 .225-.026.3-.094s.1-.155.1-.287V6.37c0-.132-.032-.223-.1-.287S14.1 6 13.947 6h-.28v-.424h-.343V6h-.28c-.14 0-.225.026-.298.093s-.1.155-.1.287v1.527c0 .132.032.224.1.287s.158.094.298.094h.28v.9l-.76.043v.33l1.714-.097.035.182z"/><path d="M26.285 7.03h.8v.957h-.8zm0-1.05c0-.056.034-.083.1-.083h.6c.067 0 .1.028.1.083v.727h-.8zm.8 3.24c0 .064-.03.096-.086.096h-.426v.33h.46c.137 0 .232-.03.298-.098s.097-.15.097-.287V5.948c0-.133-.032-.224-.102-.287s-.157-.094-.298-.094h-.686c-.14 0-.225.027-.298.094s-.1.154-.1.287V8.76c0 .648-.116.86-.13.885h.33c.014 0 .143-.076.143-.885V8.3h.8zm-7.663.424l.687-1.018.687 1.018h.397l-.873-1.337c.155-.244.304-.5.427-.798.345-.8.38-1.762.38-1.803h-.35c0 .01-.035.924-.348 1.65a5.13 5.13 0 0 1-.32.617 5.13 5.13 0 0 1-.32-.617c-.313-.727-.348-1.642-.348-1.65h-.35c0 .04.035 1.002.38 1.803.124.287.272.555.427.798l-.873 1.337zM17.686 7.95c-.067 0-.1-.03-.1-.084V6.403c0-.055.034-.083.1-.083h.237v1.63zm.58-1.63h.237c.067 0 .1.028.1.083v1.464c0 .055-.033.084-.1.084h-.237zm.224 2.418l.08.414-.303.017v-.9h.28c.14 0 .225-.026.298-.094s.1-.155.1-.287V6.37c0-.132-.033-.223-.1-.287-.074-.067-.158-.093-.298-.093h-.28v-.424h-.343V6h-.28c-.14 0-.225.026-.3.093s-.1.155-.1.287v1.527c0 .132.033.224.1.287.074.067.157.094.3.094h.28v.9l-.76.043v.33l1.467-.082.032.167H19l-.173-.908z"/></g></svg>