<?xml version="1.0" encoding="UTF-8" standalone="no"?>
<!-- Generator: Adobe Illustrator 22.0.1, SVG Export Plug-In . SVG Version: 6.00 Build 0)  -->

<svg
   xmlns:dc="http://purl.org/dc/elements/1.1/"
   xmlns:cc="http://creativecommons.org/ns#"
   xmlns:rdf="http://www.w3.org/1999/02/22-rdf-syntax-ns#"
   xmlns:svg="http://www.w3.org/2000/svg"
   xmlns="http://www.w3.org/2000/svg"
   xmlns:xlink="http://www.w3.org/1999/xlink"
   xmlns:sodipodi="http://sodipodi.sourceforge.net/DTD/sodipodi-0.dtd"
   xmlns:inkscape="http://www.inkscape.org/namespaces/inkscape"
   version="1.1"
   id="Layer_1"
   x="0px"
   y="0px"
   viewBox="0 0 120 60"
   xml:space="preserve"
   inkscape:version="0.91 r13725"
   sodipodi:docname="flutterio-ar21.svg"
   width="120"
   height="60"><metadata
     id="metadata4387"><rdf:RDF><cc:Work
         rdf:about=""><dc:format>image/svg+xml</dc:format><dc:type
           rdf:resource="http://purl.org/dc/dcmitype/StillImage" /><dc:title /></cc:Work></rdf:RDF></metadata><defs
     id="defs4385" /><sodipodi:namedview
     pagecolor="#ffffff"
     bordercolor="#666666"
     borderopacity="1"
     objecttolerance="10"
     gridtolerance="10"
     guidetolerance="10"
     inkscape:pageopacity="0"
     inkscape:pageshadow="2"
     inkscape:window-width="1855"
     inkscape:window-height="1056"
     id="namedview4383"
     showgrid="false"
     inkscape:zoom="6.1282588"
     inkscape:cx="47.435256"
     inkscape:cy="30"
     inkscape:window-x="65"
     inkscape:window-y="24"
     inkscape:window-maximized="1"
     inkscape:current-layer="Layer_1" /><style
     type="text/css"
     id="style4309">
	.st0{clip-path:url(#SVGID_2_);}
	.st1{fill:#39CEFD;}
	.st2{clip-path:url(#SVGID_4_);fill:#39CEFD;}
	.st3{clip-path:url(#SVGID_6_);fill:#03569B;}
	.st4{clip-path:url(#SVGID_8_);fill:url(#SVGID_9_);}
	.st5{clip-path:url(#SVGID_11_);}
	.st6{fill:#16B9FD;}
	.st7{fill:url(#SVGID_12_);}
</style><g
     id="g4311"
     transform="matrix(0.03881911,0,0,0.03881916,-0.56050067,8.1622759)"><g
       id="g4313"><g
         id="g4315"><defs
           id="defs4317"><path
             id="SVGID_1_"
             d="m 959.4,500 -279.6,279.7 279.6,279.7 0,0 -319.5,0 -119.9,-119.9 0,0 L 360.2,779.7 639.9,500 l 319.5,0 0,0 0,0 z M 639.9,20.7 120.6,540 l 159.8,159.8 679,-679.1 -319.5,0 z"
             inkscape:connector-curvature="0" /></defs><clipPath
           id="SVGID_2_"><use
             xlink:href="#SVGID_1_"
             style="overflow:visible"
             id="use4321"
             x="0"
             y="0"
             width="100%"
             height="100%" /></clipPath><g
           class="st0"
           id="g4323"
           clip-path="url(#SVGID_2_)"><g
             id="g4325"><polygon
               class="st1"
               points="520,939.5 959.4,500 959.4,500 959.4,500 639.9,500 360.3,779.7 "
               id="polygon4327"
               style="fill:#39cefd" /></g></g></g><g
         id="g4329"><defs
           id="defs4331"><path
             id="SVGID_3_"
             d="m 959.4,500 -279.6,279.7 279.6,279.7 0,0 -319.5,0 -119.9,-119.9 0,0 L 360.2,779.7 639.9,500 l 319.5,0 0,0 0,0 z M 639.9,20.7 120.6,540 l 159.8,159.8 679,-679.1 -319.5,0 z"
             inkscape:connector-curvature="0" /></defs><clipPath
           id="SVGID_4_"><use
             xlink:href="#SVGID_3_"
             style="overflow:visible"
             id="use4335"
             x="0"
             y="0"
             width="100%"
             height="100%" /></clipPath><polygon
           class="st2"
           points="120.6,540 639.9,20.7 959.4,20.7 280.4,699.8 "
           id="polygon4337"
           clip-path="url(#SVGID_4_)"
           style="fill:#39cefd" /></g><g
         id="g4339"><defs
           id="defs4341"><path
             id="SVGID_5_"
             d="m 959.4,500 -279.6,279.7 279.6,279.7 0,0 -319.5,0 -119.9,-119.9 0,0 L 360.2,779.7 639.9,500 l 319.5,0 0,0 0,0 z M 639.9,20.7 120.6,540 l 159.8,159.8 679,-679.1 -319.5,0 z"
             inkscape:connector-curvature="0" /></defs><clipPath
           id="SVGID_6_"><use
             xlink:href="#SVGID_5_"
             style="overflow:visible"
             id="use4345"
             x="0"
             y="0"
             width="100%"
             height="100%" /></clipPath><polygon
           class="st3"
           points="639.9,1059.3 959.4,1059.3 959.4,1059.3 679.8,779.7 520,939.5 "
           id="polygon4347"
           clip-path="url(#SVGID_6_)"
           style="fill:#03569b" /></g><g
         id="g4349"><defs
           id="defs4351"><path
             id="SVGID_7_"
             d="m 959.4,500 -279.6,279.7 279.6,279.7 0,0 -319.5,0 -119.9,-119.9 0,0 L 360.2,779.7 639.9,500 l 319.5,0 0,0 0,0 z M 639.9,20.7 120.6,540 l 159.8,159.8 679,-679.1 -319.5,0 z"
             inkscape:connector-curvature="0" /></defs><clipPath
           id="SVGID_8_"><use
             xlink:href="#SVGID_7_"
             style="overflow:visible"
             id="use4355"
             x="0"
             y="0"
             width="100%"
             height="100%" /></clipPath><linearGradient
           id="SVGID_9_"
           gradientUnits="userSpaceOnUse"
           x1="9514.54"
           y1="-6371.355"
           x2="9990.5996"
           y2="-5895.2949"
           gradientTransform="matrix(0.25,0,0,-0.25,-1812,-622.5)"><stop
             offset="0"
             style="stop-color:#1A237E;stop-opacity:0.4"
             id="stop4358" /><stop
             offset="1"
             style="stop-color:#1A237E;stop-opacity:0"
             id="stop4360" /></linearGradient><polygon
           class="st4"
           points="679.8,779.7 520,939.5 757,857.4 "
           id="polygon4362"
           clip-path="url(#SVGID_8_)"
           style="fill:url(#SVGID_9_)" /></g><g
         id="g4364"><defs
           id="defs4366"><path
             id="SVGID_10_"
             d="m 959.4,500 -279.6,279.7 279.6,279.7 0,0 -319.5,0 -119.9,-119.9 0,0 L 360.2,779.7 639.9,500 l 319.5,0 0,0 0,0 z M 639.9,20.7 120.6,540 l 159.8,159.8 679,-679.1 -319.5,0 z"
             inkscape:connector-curvature="0" /></defs><clipPath
           id="SVGID_11_"><use
             xlink:href="#SVGID_10_"
             style="overflow:visible"
             id="use4370"
             x="0"
             y="0"
             width="100%"
             height="100%" /></clipPath><g
           class="st5"
           id="g4372"
           clip-path="url(#SVGID_11_)"><rect
             x="407.10001"
             y="666.70001"
             transform="matrix(0.7071,-0.7071,0.7071,0.7071,-399.0023,596.0814)"
             class="st6"
             width="226"
             height="226"
             id="rect4374"
             style="fill:#16b9fd" /></g></g></g><radialGradient
       id="SVGID_12_"
       cx="7824.6587"
       cy="-2855.979"
       r="5082.8887"
       gradientTransform="matrix(0.25,0,0,-0.25,-1812,-622.5)"
       gradientUnits="userSpaceOnUse"><stop
         offset="0"
         style="stop-color:#FFFFFF;stop-opacity:0.1"
         id="stop4377" /><stop
         offset="1"
         style="stop-color:#FFFFFF;stop-opacity:0"
         id="stop4379" /></radialGradient><path
       class="st7"
       d="m 959.4,500 -279.6,279.7 279.6,279.7 0,0 -319.5,0 -119.9,-119.9 0,0 L 360.2,779.7 639.9,500 l 319.5,0 0,0 0,0 z M 639.9,20.7 120.6,540 l 159.8,159.8 679,-679.1 -319.5,0 z"
       id="path4381"
       style="fill:url(#SVGID_12_)"
       inkscape:connector-curvature="0" /></g><g
     id="g4854"
     transform="matrix(1.0352624,0,0,1.0352624,-1.9391778,-1.0351544)"><path
       d="m 41.110195,20.100685 10.468894,0 0,2.048262 -8.344771,0 0,6.195361 7.535581,0 0,2.022975 -7.535581,0 0,7.839027 -2.124123,0 0,-18.105625 z"
       style="font-style:normal;font-variant:normal;font-weight:normal;font-stretch:normal;font-size:medium;line-height:125%;font-family:'Google Sans';-inkscape-font-specification:'Google Sans, Normal';text-align:center;letter-spacing:0px;word-spacing:0px;writing-mode:lr-tb;text-anchor:middle;fill:#808080;fill-opacity:1;stroke:none;stroke-width:1px;stroke-linecap:butt;stroke-linejoin:miter;stroke-opacity:1"
       id="path4833"
       inkscape:connector-curvature="0" /><path
       d="m 54.114129,20.100685 2.149411,0 0,18.105625 -2.149411,0 0,-18.105625 z"
       style="font-style:normal;font-variant:normal;font-weight:normal;font-stretch:normal;font-size:medium;line-height:125%;font-family:'Google Sans';-inkscape-font-specification:'Google Sans, Normal';text-align:center;letter-spacing:0px;word-spacing:0px;writing-mode:lr-tb;text-anchor:middle;fill:#808080;fill-opacity:1;stroke:none;stroke-width:1px;stroke-linecap:butt;stroke-linejoin:miter;stroke-opacity:1"
       id="path4835"
       inkscape:connector-curvature="0" /><path
       d="m 64.126275,38.610905 q -2.326421,0 -3.565493,-1.365508 -1.213785,-1.365508 -1.213785,-3.818365 l 0,-8.117186 2.149411,0 0,7.788453 q 0,1.845964 0.834477,2.705729 0.834477,0.859764 2.25056,0.859764 1.087349,0 1.921826,-0.581605 0.859764,-0.581606 1.314934,-1.517231 0.480456,-0.935626 0.480456,-1.972401 l 0,-7.282709 2.149411,0 0,12.896464 -2.048262,0 0,-1.871251 -0.101149,0 q -0.531031,0.960913 -1.694241,1.618379 -1.163211,0.657467 -2.478145,0.657467 z"
       style="font-style:normal;font-variant:normal;font-weight:normal;font-stretch:normal;font-size:medium;line-height:125%;font-family:'Google Sans';-inkscape-font-specification:'Google Sans, Normal';text-align:center;letter-spacing:0px;word-spacing:0px;writing-mode:lr-tb;text-anchor:middle;fill:#808080;fill-opacity:1;stroke:none;stroke-width:1px;stroke-linecap:butt;stroke-linejoin:miter;stroke-opacity:1"
       id="path4837"
       inkscape:connector-curvature="0" /><path
       d="m 78.727253,38.408608 q -0.783902,0 -1.466656,-0.252872 -0.657467,-0.252872 -1.112637,-0.682754 -0.505743,-0.480457 -0.758615,-1.112636 -0.252872,-0.63218 -0.252872,-1.542519 l 0,-7.560868 -2.25056,0 0,-1.947113 2.25056,0 0,-3.641355 2.149411,0 0,3.641355 3.135611,0 0,1.947113 -3.135611,0 0,7.029837 q 0,1.062062 0.404595,1.567806 0.480456,0.556318 1.390795,0.556318 0.733328,0 1.416082,-0.429882 l 0,2.098836 q -0.379308,0.177011 -0.783902,0.252872 -0.379308,0.07586 -0.986201,0.07586 z"
       style="font-style:normal;font-variant:normal;font-weight:normal;font-stretch:normal;font-size:medium;line-height:125%;font-family:'Google Sans';-inkscape-font-specification:'Google Sans, Normal';text-align:center;letter-spacing:0px;word-spacing:0px;writing-mode:lr-tb;text-anchor:middle;fill:#808080;fill-opacity:1;stroke:none;stroke-width:1px;stroke-linecap:butt;stroke-linejoin:miter;stroke-opacity:1"
       id="path4839"
       inkscape:connector-curvature="0" /><path
       d="m 87.840298,38.408608 q -0.783903,0 -1.466657,-0.252872 -0.657467,-0.252872 -1.112636,-0.682754 -0.505744,-0.480457 -0.758616,-1.112636 -0.252871,-0.63218 -0.252871,-1.542519 l 0,-7.560868 -2.25056,0 0,-1.947113 2.25056,0 0,-3.641355 2.14941,0 0,3.641355 3.135611,0 0,1.947113 -3.135611,0 0,7.029837 q 0,1.062062 0.404595,1.567806 0.480457,0.556318 1.390796,0.556318 0.733328,0 1.416082,-0.429882 l 0,2.098836 q -0.379308,0.177011 -0.783903,0.252872 -0.379308,0.07586 -0.9862,0.07586 z"
       style="font-style:normal;font-variant:normal;font-weight:normal;font-stretch:normal;font-size:medium;line-height:125%;font-family:'Google Sans';-inkscape-font-specification:'Google Sans, Normal';text-align:center;letter-spacing:0px;word-spacing:0px;writing-mode:lr-tb;text-anchor:middle;fill:#808080;fill-opacity:1;stroke:none;stroke-width:1px;stroke-linecap:butt;stroke-linejoin:miter;stroke-opacity:1"
       id="path4841"
       inkscape:connector-curvature="0" /><path
       d="m 97.31667,38.610905 q -1.84596,0 -3.31262,-0.885051 -1.466657,-0.885052 -2.301134,-2.42757 -0.80919,-1.567806 -0.80919,-3.514919 0,-1.871252 0.758616,-3.439057 0.783902,-1.567806 2.199985,-2.503432 1.416083,-0.935625 3.287333,-0.935625 1.89654,0 3.28734,0.859764 1.39079,0.834477 2.12412,2.326421 0.75861,1.491944 0.75861,3.41377 0,0.379308 -0.0759,0.657467 l -10.190733,0 q 0.07586,1.466657 0.708041,2.478144 0.632182,1.011488 1.593092,1.517231 0.9862,0.505744 2.04826,0.505744 2.47815,0 3.81837,-2.326421 l 1.82068,0.885051 q -0.83448,1.567806 -2.27585,2.478145 -1.41608,0.910338 -3.43906,0.910338 z m 3.71722,-8.218335 q -0.0506,-0.80919 -0.45517,-1.61838 -0.4046,-0.80919 -1.28965,-1.365508 -0.85976,-0.556318 -2.1747,-0.556318 -1.51723,0 -2.57929,0.9862 -1.036774,0.960913 -1.365507,2.554006 l 7.864317,0 z"
       style="font-style:normal;font-variant:normal;font-weight:normal;font-stretch:normal;font-size:medium;line-height:125%;font-family:'Google Sans';-inkscape-font-specification:'Google Sans, Normal';text-align:center;letter-spacing:0px;word-spacing:0px;writing-mode:lr-tb;text-anchor:middle;fill:#808080;fill-opacity:1;stroke:none;stroke-width:1px;stroke-linecap:butt;stroke-linejoin:miter;stroke-opacity:1"
       id="path4843"
       inkscape:connector-curvature="0" /><path
       d="m 105.80052,25.309846 2.04826,0 0,2.073549 0.10115,0 q 0.37931,-1.062062 1.46666,-1.744816 1.08735,-0.708041 2.27585,-0.708041 0.88505,0 1.51723,0.252872 l 0,2.326421 q -0.80919,-0.404595 -1.82068,-0.404595 -0.93563,0 -1.71953,0.531031 -0.7839,0.531031 -1.26436,1.441369 -0.45517,0.885052 -0.45517,1.921826 l 0,7.206848 -2.14941,0 0,-12.896464 z"
       style="font-style:normal;font-variant:normal;font-weight:normal;font-stretch:normal;font-size:medium;line-height:125%;font-family:'Google Sans';-inkscape-font-specification:'Google Sans, Normal';text-align:center;letter-spacing:0px;word-spacing:0px;writing-mode:lr-tb;text-anchor:middle;fill:#808080;fill-opacity:1;stroke:none;stroke-width:1px;stroke-linecap:butt;stroke-linejoin:miter;stroke-opacity:1"
       id="path4845"
       inkscape:connector-curvature="0" /></g></svg>