<svg xmlns="http://www.w3.org/2000/svg" width="120" height="60" fill-rule="evenodd"><path d="M21.967 17.11l.073.64 9.625.266.01-.157v.003l.017-.28.015-.28.007-.14-3.4-1.97c-.933-.538-2.082-.538-3.015 0zm.672 4.206l8.67.282.018-.132-.001.004.015-.108.027-.2.02-.163.022-.164.028-.225.027-.227.074-.707.063-.743-9.36.258.398 2.132zm1.04 3.533l7.018.263.175-.85.086-.477.015-.08.015-.084.058-.34.036-.235.037-.2.054-.33-8.18.266.258.877.424 1.203zm4.403 4.282a1.73 1.73 0 0 0 .508-.204c.126-.074.243-.16.354-.256a2.97 2.97 0 0 0 .359-.369l.083-.105.05-.067.076-.105c.082-.117.157-.238.227-.363l.02-.035.022-.036.252-.475.138-.316.06-.15.096-.256.128-.392-6.142.23.297.515c.193.3.405.608.645.883.33.38.72.72 1.18.934.13.06.264.112.402.15l.13.033.125.027.08.02.237.066c.155.048.308.104.457.17l.215.1zm-5.64 8.047l8.042-.287-.262-.9-.478-1.356-6.79-.295-.035.147-.177.88-.092.523-.024.13-.044.26-.054.35-.033.19-.055.346zm-.43 3.576l9.248-.284-.38-1.97-.033-.148-8.534-.304-.11.84-.192 1.866zm-2.148.924l.052-.6.016-.15.016-.14.064-.543.178-1.28.078-.482.013-.076.25-1.206.04-.16.134-.506.054-.195.03-.105.243-.72.017-.048.28-.695.01-.02.38-.78.244-.455.02-.036.445-.695.174-.247.073-.1a8.37 8.37 0 0 1 .699-.806c.012-.012.024-.023.036-.034l.033-.03.163-.142.24-.194.07-.05.1-.062.31-.194.207-.11.26-.114c.12-.048.245-.088.37-.118a1.95 1.95 0 0 1 .265-.047c.056-.006.112-.01.168-.006h.003l.013.014-.014.012c-.01 0-.018.001-.027.001l-.047.005c-.176.025-.345.088-.502.17-.136.072-.26.16-.378.26l-.14.125c-.088.085-.17.176-.246.27l-.08.107-.026.036-.098.137-.202.332-.02.035-.02.036-.187.35-.195.445-.04.103-.095.256-.085.256 5.895-.256a8.7 8.7 0 0 0-.489-.806c-.17-.246-.354-.482-.56-.7-.282-.298-.607-.564-.98-.736-.107-.05-.218-.1-.332-.122l-.222-.05-.08-.02-.28-.077c-.17-.053-.337-.115-.5-.187a4.83 4.83 0 0 1-.471-.239l-.342-.215c-.704-.482-1.285-1.126-1.766-1.827l-.205-.312-.28-.467-.336-.637-.374-.822-.436-1.14-.467-1.508-.48-2.007-.438-2.55-.073-.544-5.253 3.033c-.933.538-1.507 1.534-1.507 2.61V36.1c0 1.077.574 2.073 1.507 2.61zm13.724.08l5.28-3.048c.933-.54 1.507-1.534 1.507-2.61V23.9c0-1.077-.574-2.073-1.507-2.61l-5.148-2.972-.025.293-.36 2.676-.032.172-.158.767-.06.265-.038.15-.053.202-.162.583-.01.03-.264.768-.035.09-.066.166-.193.46-.042.09-.036.075-.14.288-.282.54-.14.25-.012.022-.455.695-.175.243-.072.096a8.68 8.68 0 0 1-.705.797c-.012.012-.025.023-.037.034l-.1.088-.318.26-.03.023c-.207.148-.422.285-.648.402l-.17.082-.282.114c-.11.04-.224.072-.34.097l-.142.025.126.068.275.165c.7.455 1.278 1.08 1.756 1.76l.23.345.282.468.34.642.382.832.45 1.16.51 1.632.523 2.156.482 2.715.092.657zm-11.714 1.08l3.414 1.97c.933.54 2.082.54 3.015 0l3.3-1.906-.124-.98-9.534-.292-.072 1.205zm11.523-28.324L42 19.48c.933.538 1.508 1.534 1.508 2.61v15.816c0 1.077-.575 2.073-1.508 2.61l-13.697 7.908c-.933.54-2.082.54-3.015 0L11.592 40.52c-.933-.54-1.508-1.534-1.508-2.61V22.092c0-1.077.575-2.073 1.508-2.61l13.697-7.908c.933-.538 2.082-.538 3.015 0l4.9 2.83.056.013.138.1z" fill="#db0a5b"/><path d="M54.632 34.773c.013.117-.026.19-.117.215-.182.065-.378.107-.586.127l-.547.03c-.573 0-.954-.146-1.142-.44s-.283-.706-.283-1.24V20.9c0-.117.06-.175.176-.175h.566c.13 0 .195.06.195.175v12.262c0 .416.05.712.146.888s.316.264.654.264a3.31 3.31 0 0 0 .371-.02c.117-.013.228-.032.332-.06a.56.56 0 0 1 .107.01c.032.007.055.042.068.107zm8.942-4.9a9.22 9.22 0 0 0-.156-1.708c-.104-.553-.3-1.038-.557-1.455s-.622-.752-1.064-1.006-1.002-.38-1.68-.38c-.625 0-1.155.124-1.59.37s-.788.58-1.054.996-.462.895-.586 1.435-.186 1.103-.186 1.69c0 .65.06 1.256.176 1.816s.312 1.048.586 1.465.628.742 1.064.976.973.352 1.61.352c.664 0 1.217-.137 1.66-.4a3.11 3.11 0 0 0 1.054-1.064c.26-.436.446-.924.557-1.464a8.02 8.02 0 0 0 .166-1.611m.918-.06c0 1.77-.384 3.114-1.152 4.032s-1.848 1.377-3.24 1.377c-1.38 0-2.444-.46-3.192-1.377s-1.123-2.242-1.123-3.973c0-1.744.397-3.072 1.19-3.983s1.855-1.367 3.183-1.367c1.393 0 2.463.46 3.212 1.377s1.123 2.223 1.123 3.915m6.15 4.57a7.11 7.11 0 0 0 .566-.03c.234-.02.488-.055.762-.107l.85-.185a4.82 4.82 0 0 0 .83-.283V25.81a6.87 6.87 0 0 0-1.542-.371l-1.367-.098c-.508 0-.976.09-1.406.273s-.8.46-1.113.83-.56.846-.742 1.425-.273 1.266-.273 2.06c0 1.458.306 2.565.918 3.32s1.45 1.133 2.52 1.133m.098-9.86c.547 0 1.14.04 1.777.117a7.66 7.66 0 0 1 1.894.488c.117.052.176.143.176.274v9c0 .872-.11 1.598-.332 2.177s-.537 1.05-.947 1.415a4.25 4.25 0 0 1-1.474.84c-.573.195-1.2.345-1.913.45-.13.013-.202-.026-.215-.117l-.078-.566c0-.09.052-.143.156-.156l1.552-.37a3.76 3.76 0 0 0 1.23-.615 2.63 2.63 0 0 0 .801-1.044c.19-.43.283-.983.283-1.66v-.137l-.703.225c-.26.072-.53.13-.8.175l-.83.117c-.273.033-.527.05-.762.05-.755 0-1.403-.13-1.942-.4s-.986-.625-1.338-1.093-.61-1.022-.77-1.66a8.36 8.36 0 0 1-.244-2.07c0-.768.088-1.484.264-2.148a4.99 4.99 0 0 1 .81-1.728c.365-.488.83-.872 1.396-1.152s1.24-.42 2.02-.42m9.342 5.536c0 1.04.205 1.77.615 2.187s.98.625 1.708.625c.182 0 .426-.02.732-.06s.563-.098.77-.176v-5.447a7.23 7.23 0 0 0-.898-.156l-.703-.04c-.664 0-1.2.24-1.61.722s-.615 1.263-.615 2.343m-2.948-.04c0-.73.09-1.425.273-2.09s.462-1.246.84-1.747.866-.898 1.464-1.19 1.308-.44 2.128-.44l.986.04c.32.026.68.085 1.084.176v-3.573c0-.156.03-.26.088-.312s.172-.078.342-.078h1.992c.143 0 .25.023.322.068s.107.153.107.322V33.66a2.45 2.45 0 0 1-.039.439c-.013.143-.11.273-.293.4s-.414.218-.693.303-.592.16-.937.224l-1.025.147-.957.078-.742.03c-.937 0-1.72-.13-2.353-.4s-1.14-.625-1.523-1.093-.657-1.022-.82-1.66a8.53 8.53 0 0 1-.244-2.109m16.343-3.124l-.557.01c-.24.007-.498.036-.77.088v7.712c0 .143-.023.238-.07.283s-.16.068-.342.068h-2.01c-.143 0-.247-.023-.312-.068s-.098-.14-.098-.283v-8.376c0-.443.078-.79.234-1.044s.482-.433.976-.537a5.16 5.16 0 0 1 .556-.068l.77-.06.8-.05.693-.02c.91 0 1.7.09 2.363.273s1.214.472 1.65.87.76.918.976 1.562.322 1.428.322 2.353v5.096c0 .143-.023.238-.07.283s-.16.068-.342.068h-2.03c-.143 0-.247-.023-.312-.068s-.098-.14-.098-.283v-5.272a5.04 5.04 0 0 0-.107-1.113c-.072-.312-.195-.576-.37-.79s-.416-.374-.722-.478-.687-.156-1.142-.156m13.59 3.514h-1.542a4.73 4.73 0 0 0-.586.039c-.208.026-.4.088-.576.186a1.23 1.23 0 0 0-.439.42c-.117.182-.176.43-.176.742 0 .456.153.775.46.957s.72.273 1.24.273l.312-.01.42-.04.46-.078a2.57 2.57 0 0 0 .43-.127zm2.85 3.378c0 .17-.023.313-.07.43s-.16.228-.342.332a5.47 5.47 0 0 1-.966.352c-.345.09-.696.163-1.054.215l-1.084.117-1.035.04c-.885 0-1.617-.084-2.197-.254s-1.044-.4-1.396-.693-.6-.638-.742-1.035-.215-.823-.215-1.28c0-.508.085-.973.254-1.396s.423-.79.76-1.103.765-.556 1.28-.732 1.123-.264 1.826-.264h2.148v-.312c0-.182-.02-.358-.06-.527s-.12-.316-.244-.44-.296-.224-.517-.303-.514-.117-.88-.117l-.664.03-.742.078-.722.117-.625.146c-.17.04-.286.04-.35 0s-.11-.124-.137-.254l-.312-1.367c-.04-.143-.042-.244-.01-.303s.1-.107.205-.146a9.43 9.43 0 0 1 1.845-.449 13.73 13.73 0 0 1 1.923-.137c1.42 0 2.46.303 3.124.908s.996 1.5.996 2.685z" fill="#383838"/></svg>