<?xml version="1.0" encoding="utf-8"?>
<!-- Generator: Adobe Illustrator 27.3.1, SVG Export Plug-In . SVG Version: 6.00 Build 0)  -->
<svg version="1.1" id="Layer_1" xmlns="http://www.w3.org/2000/svg" xmlns:xlink="http://www.w3.org/1999/xlink" x="0px" y="0px"
	 viewBox="0 0 595.3 841.9" style="enable-background:new 0 0 595.3 841.9;" xml:space="preserve">
<style type="text/css">
	.st0{fill:none;stroke:#000000;stroke-miterlimit:10;}
	.st1{fill:#2CB195;}
	.st2{fill:#217EC1;}
	.st3{fill:#FBF1D6;}
	.st4{stroke:#000000;stroke-miterlimit:10;}
	.st5{fill:none;stroke:#000000;stroke-width:1.1354;stroke-miterlimit:10;}
	.st6{fill:none;stroke:#000000;stroke-width:4;stroke-linecap:round;stroke-miterlimit:10;}
	.st7{fill:none;stroke:#2CB195;stroke-width:4;stroke-miterlimit:10;}
	.st8{stroke:#000000;stroke-width:0.2406;stroke-linecap:round;stroke-miterlimit:10;}
	.st9{fill:none;stroke:#000000;stroke-width:0.2406;stroke-linecap:round;stroke-miterlimit:10;}
	.st10{fill:#E24226;}
	.st11{fill:none;stroke:#000000;stroke-width:0.2616;stroke-linecap:round;stroke-miterlimit:10;}
	.st12{fill:none;stroke:#000000;stroke-width:5;stroke-linejoin:round;stroke-miterlimit:10;}
	.st13{fill:none;stroke:#000000;stroke-width:8;stroke-linecap:round;stroke-miterlimit:10;}
	.st14{fill:none;stroke:#2CB195;stroke-width:2;stroke-linecap:round;stroke-miterlimit:10;}
</style>
<image style="display:none;overflow:visible;" width="256" height="256" xlink:href="jelly-no-connection.png"  transform="matrix(2.2227 0 0 2.2227 -1.0828 67.4204)">
</image>
<path class="st0" d="M298.3,290.6c0,5-3.6,9.1-8.1,9.1c-4.5,0-8.1-4.1-8.1-9.1c0-5,3.6-9.1,8.1-9.1
	C294.7,281.5,298.3,285.5,298.3,290.6z"/>
<path class="st0" d="M315.9,258.1c-3.8-1.6-6.9-1-10.8-1.2c-4.7-0.3-7.1-1.7-10.8-1.9c-8-0.3-14.9,3.6-14.9,7.3c0,0.3,0,1.2,0.7,2.1
	c0.8,1,2.3,1.1,3.4,0.8c3-0.8,2.6-1.3,6.8-3c3-1.2,7.1-0.4,13.4,0.9c4.6,0.9,10.4,2,12,1.1c0.6-0.3,1.7-1.2,2-2.6
	C318.1,259.5,316.2,258.2,315.9,258.1z M321.8,446.4v-2.7c0,0,0,0,0,0c0-0.1,0-0.1,0-0.2l-10.6-27.8l2-3.1l5.4-8.3c0,0,0-0.1,0-0.1
	c0.1,0,0.1-0.1,0.1-0.1v-2.2c0-0.4-0.3-0.7-0.7-0.7h-20.5c-0.4,0-0.7,0.3-0.7,0.7v2.2c0,0.1,0,0.1,0.1,0.1c0,0,0,0.1,0,0.1l5.4,8.3
	l1.7,2.6l-10.8,28.3c0,0.1,0,0.1,0,0.2c0,0,0,0,0,0.1v2.8c0,0,0,0.1,0,0.1c0,0,0,0.1,0,0.1l14.1,19.4c0.1,0.1,0.2,0.1,0.3,0
	l14.1-19.4C321.8,446.6,321.8,446.5,321.8,446.4z"/>
<path class="st1" d="M401.8,342.9c-0.1-1.4-0.1-2.8-0.2-4c0-0.9-0.2-2.5-0.4-4.4l0.6,57.8c0.1-0.2,0.1-0.5,0.2-0.7
	c0.1-0.2,0.1-0.4,0.2-0.7c0.1-0.2,0.2-0.5,0.3-0.7C403.2,370.1,402.3,354,401.8,342.9z"/>
<path class="st1" d="M401.2,331.6l0,2.9c0.2,2,0.3,3.5,0.4,4.4c0,1.2,0.1,2.6,0.2,4c21,7.7,20.9,17.4,20.8,21.7
	c-0.1,6-5.9,13.4-18.6,23.3c-0.6,0.5-1.1,1.2-1.5,2.2c-0.1,0.2-0.2,0.5-0.3,0.7c-0.1,0.2-0.1,0.4-0.2,0.7c-0.1,0.2-0.1,0.5-0.2,0.7
	l-0.6-57.8c-0.3-3-0.8-6.9-1.3-10.5c-4.7-34.8-10.1-81-41.9-96.7c-17.4-8.6-40.2-9.4-56.4-1.4c-13.2,6.6-22.6,14.5-28.8,24.2
	c-4.5,7.1-6.4,13.8-7.7,19.1c-7.8,33.8-7.9,113.7-7.9,121.4c-13.6,13.4-29,19.9-39.3,20.5c-5.1,0.3-10.8-0.9-17.5-2.2
	c-3.3-0.7-7-1.2-7.9-3.6c-1.5-3.8,1.2-9.1-1.6-9.4c-0.5-0.1-0.8,0.5-1,1.4c-0.3,1.4-0.4,3.5-0.9,5.5c-0.4,1.3-0.9,2.6-1.8,3.5
	c-0.3,0.3-0.6,0.6-0.9,0.9c0,0-0.1,0-0.1,0.1c-1.8,1.6-3.3,2.5-3.9,3.4c-0.2,0.3-0.3,0.7-0.2,1c0.2,1.8,3.3,1.2,4.3,1.7
	c20.8,9.5,24.9,9.1,32.4,9.1c17.9,0,34.4-12.4,38.2-16c0.7,42.1,15,55.1,19.7,62c17.7,25.5,50.4,23.9,73.1,16.3
	c23.6-8,40.9-29,47.9-50c1.9-5.6,2.8-14.9,3.9-33.3c0.2,0.6,0.4,1.3,0.6,1.8c1.2,3,6.8,4.7,7,4.8c1.4,0.2,4.6,0.8,6.6-1.9
	c1.5-2.1,1.1-5.3-0.2-5.9c-2.5-1.3-4.4-1.5-4.6-3.6c-0.4-3.6,14.7-9,19.9-23.1c1.2-3.2,1.8-6.6,1.9-10.6
	C433.4,355.7,428.9,337.7,401.2,331.6z M279.4,262.3c0.1-3.7,7-7.6,14.9-7.3c3.7,0.1,6.1,1.5,10.8,1.9c3.8,0.3,7-0.4,10.8,1.2
	c0.3,0.1,2.2,1.4,1.8,3.4c-0.2,1.4-1.4,2.3-2,2.6c-1.6,1-7.3-0.2-12-1.1c-6.3-1.2-10.5-2.1-13.4-0.9c-4.1,1.7-3.8,2.2-6.8,3
	c-1.1,0.3-2.7,0.2-3.4-0.8C279.5,263.6,279.4,262.6,279.4,262.3z M321.8,446.7L307.6,466c-0.1,0.1-0.2,0.1-0.3,0l-14.1-19.4
	c0,0,0-0.1,0-0.1c0,0,0,0,0-0.1v-2.8c0,0,0,0,0-0.1c0-0.1,0-0.1,0-0.2l10.8-28.3l-1.7-2.6l-5.4-8.3c0,0,0-0.1,0-0.1
	c0,0-0.1-0.1-0.1-0.1v-2.2c0-0.4,0.3-0.7,0.7-0.7h20.5c0.4,0,0.7,0.3,0.7,0.7v2.2c0,0.1,0,0.1-0.1,0.1c0,0,0,0.1,0,0.1l-5.4,8.3
	l-2,3.1l10.6,27.8c0,0.1,0,0.1,0,0.2c0,0,0,0,0,0v2.7C321.8,446.5,321.8,446.6,321.8,446.7z M332.3,294.9c-2.4,5.1-7.8,6.8-11.2,8
	c-8.4,2.8-10.4-0.8-17,1.8c-7.3,2.9-7.1,8.1-13.5,9.5c-5.1,1.1-10.8-1.1-14.2-4.6c-6.8-6.9-4.5-18.6-0.3-25.4
	c4.5-7.2,11.7-9.6,16.2-11.2c11.7-4,21.6-0.9,24.5,0c5.3,1.7,12.6,4.1,15.4,10.8C332.6,284.7,334.7,289.9,332.3,294.9z"/>
<path class="st2" d="M321.8,446.7L307.6,466c-0.1,0.1-0.2,0.1-0.3,0l-14.1-19.4c0,0,0-0.1,0-0.1c0,0,0,0,0-0.1v-2.8c0,0,0,0,0-0.1
	c0-0.1,0-0.1,0-0.2l10.8-28.3l-1.7-2.6l-5.4-8.3c0,0,0-0.1,0-0.1c0,0-0.1-0.1-0.1-0.1v-2.2c0-0.4,0.3-0.7,0.7-0.7h20.5
	c0.4,0,0.7,0.3,0.7,0.7v2.2c0,0.1,0,0.1-0.1,0.1c0,0,0,0.1,0,0.1l-5.4,8.3l-2,3.1l10.6,27.8c0,0.1,0,0.1,0,0.2c0,0,0,0,0,0v2.7
	C321.8,446.5,321.8,446.6,321.8,446.7z"/>
<path d="M317.7,261.5c-0.2,1.4-1.4,2.3-2,2.6c-1.6,1-7.3-0.2-12-1.1c-6.3-1.2-10.5-2.1-13.4-0.9c-4.1,1.7-3.8,2.2-6.8,3
	c-1.1,0.3-2.7,0.2-3.4-0.8c-0.7-0.9-0.7-1.8-0.7-2.1c0.1-3.7,7-7.6,14.9-7.3c3.7,0.1,6.1,1.5,10.8,1.9c3.8,0.3,7-0.4,10.8,1.2
	C316.2,258.2,318.1,259.5,317.7,261.5z"/>
<path class="st3" d="M332.3,283.9c-2.8-6.8-10.2-9.1-15.4-10.8c-2.9-0.9-12.8-4-24.5,0c-4.5,1.5-11.8,4-16.2,11.2
	c-4.2,6.8-6.4,18.5,0.3,25.4c3.4,3.5,9.1,5.7,14.2,4.6c6.4-1.4,6.1-6.6,13.5-9.5c6.6-2.6,8.6,0.9,17-1.8c3.4-1.1,8.8-2.9,11.2-8
	C334.7,289.9,332.6,284.7,332.3,283.9z M290.2,299.7c-4.5,0-8.1-4.1-8.1-9.1c0-5,3.6-9.1,8.1-9.1c4.5,0,8.1,4.1,8.1,9.1
	C298.3,295.6,294.7,299.7,290.2,299.7z"/>
<path class="st4" d="M298.3,290.6c0,5-3.6,9.1-8.1,9.1c-4.5,0-8.1-4.1-8.1-9.1c0-5,3.6-9.1,8.1-9.1
	C294.7,281.5,298.3,285.5,298.3,290.6z"/>
<path class="st0" d="M298.3,290.6c0,5-3.6,9.1-8.1,9.1c-4.5,0-8.1-4.1-8.1-9.1c0-5,3.6-9.1,8.1-9.1
	C294.7,281.5,298.3,285.5,298.3,290.6z"/>
<path class="st5" d="M298.3,290.6c0,5-3.6,9.1-8.1,9.1c-4.5,0-8.1-4.1-8.1-9.1c0-5,3.6-9.1,8.1-9.1
	C294.7,281.5,298.3,285.5,298.3,290.6z"/>
<path class="st0" d="M317.7,261.5c-0.2,1.4-1.4,2.3-2,2.6c-1.6,1-7.3-0.2-12-1.1c-6.3-1.2-10.5-2.1-13.4-0.9c-4.1,1.7-3.8,2.2-6.8,3
	c-1.1,0.3-2.7,0.2-3.4-0.8c-0.7-0.9-0.7-1.8-0.7-2.1c0.1-3.7,7-7.6,14.9-7.3c3.7,0.1,6.1,1.5,10.8,1.9c3.8,0.3,7-0.4,10.8,1.2
	C316.2,258.2,318.1,259.5,317.7,261.5z"/>
<path class="st6" d="M310.3,326.7c7.1-10.7,16.7-16.8,21.6-19.6c5.4-3.1,9-1.1,11.2,0.8"/>
<path class="st7" d="M313.9,222c-1.9-19.5-15.7-33.2-27.7-32.6c-9.2,0.5-19.9,9-20.5,18.6c-0.3,4.6,1.6,10.1,5.7,13.3
	c2.2,1.8,6.6,4.1,8.7,2.4c2.1-1.7,1.6-6.9-0.9-9.8c-3.8-4.3-11.4-1.8-12.5-1.6c-7.7,1.3-15.1,9.6-14.5,20.2
	c0.5,7.5,8.1,12.5,9.5,13.4c0.1,0,0,0.1,0,0.1c-2-0.2-15.1-1.2-14.9,12.1c1.1,11.4,6.3,14.7,17.2,19.8"/>
<path d="M403,247.7l-8.9-7.3c0.4-0.4,0.7-0.8,1-1.2c12.1-14.8,13.6-33.6,3.3-42c-10.3-8.4-28.5-3.3-40.6,11.4
	c-0.4,0.5-0.7,0.9-1.1,1.4L344,199.7c-0.9-0.8-2.2-0.6-3,0.3l-0.1,0.2c-0.7,0.9-0.6,2.2,0.3,3l49.7,40.5l9.2,7.5
	c0.9,0.7,2.2,0.6,3-0.3l0.1-0.2C404,249.8,403.9,248.4,403,247.7z M389.7,232.6c-0.4,0.5-1,0.8-1.6,0.8c-0.5,0-0.9-0.1-1.3-0.5
	L364,214.4c-0.9-0.7-1-2-0.3-2.9c0.4-0.5,1-0.8,1.6-0.8c0.5,0,0.9,0.1,1.3,0.5l22.8,18.5C390.3,230.4,390.4,231.7,389.7,232.6z"/>
<path class="st3" d="M389.7,232.6c-0.4,0.5-1,0.8-1.6,0.8c-0.5,0-0.9-0.1-1.3-0.5L364,214.4c-0.9-0.7-1-2-0.3-2.9
	c0.4-0.5,1-0.8,1.6-0.8c0.5,0,0.9,0.1,1.3,0.5l22.8,18.5C390.3,230.4,390.4,231.7,389.7,232.6z"/>
<path class="st1" d="M402.5,390.2l-0.8-47.3c0,0,0,0,0,0C402.3,354,403.2,370.1,402.5,390.2z"/>
<path class="st1" d="M401.8,342.9c-0.1-1.4-0.1-2.8-0.2-4c0-0.9-0.2-2.5-0.4-4.4l0.6,57.8c0.1-0.2,0.1-0.5,0.2-0.7
	c0.1-0.2,0.1-0.4,0.2-0.7c0.1-0.2,0.2-0.5,0.3-0.7C403.2,370.1,402.3,354,401.8,342.9z"/>
<path class="st8" d="M190.1,397.3c-0.3,1.4-0.4,3.5-0.9,5.5c-0.6,1.6-1.5,3.1-2.7,4.4c0,0-0.1,0-0.1,0.1c-1.8,1.6-3.3,2.5-3.9,3.4
	l-2.8,2.4L174,418c-5.7,4.9-14.3,4.2-19.2-1.5l-13-15.2l0,0l-2.9,1.9l-0.9-2.7l1.8-1.6l6.8-5.9l-8.8-9.9c-1.2-1.4-1.1-3.6,0.3-4.8
	c0.6-0.6,1.4-0.9,2.2-0.9c0.9,0,1.9,0.4,2.5,1.2l8.8,10l8.4-7.3l-8.7-9.9c-1.2-1.4-1.1-3.6,0.3-4.8c0.7-0.6,1.5-0.9,2.2-0.9
	c0.9,0,1.9,0.4,2.5,1.2l8.8,9.9l6.5-5.6l1.5-1.3l2.5,1.3l-1.9,2.3l0,0.1v0l13.2,15.4C188.9,391.5,190,394.4,190.1,397.3z"/>
<path class="st9" d="M182.5,410.7l2.9-2.5c0.4-0.3,0.7-0.6,1-1"/>
<path class="st10" d="M178.8,324H96.5c-4.3,0-7.8-3.5-7.8-7.8v-81.6c0-4.3,3.5-7.8,7.8-7.8h82.3c4.3,0,7.8,3.5,7.8,7.8v81.6
	C186.6,320.5,183.1,324,178.8,324z"/>
<path class="st9" d="M190.1,397.3c0.1,1.9-0.2,3.8-0.9,5.5"/>
<line class="st11" x1="173.1" y1="370" x2="173.1" y2="370"/>
<path class="st12" d="M179.6,413c1.3,1.6,2,5.6,2.1,9.9c0,8.6-4.7,13.9-11.6,24.6c-9.4,14.5-13.1,21.9-12.3,28.7
	c1,7.7,6.2,13,12.7,15.8c7.5,3.2,14.1,2.2,25.1-1.6c6.6-2.3,19-6.8,29-18.6c4.5-5.3,8.5-10.2,8.1-16.9c-0.4-6.8-5.4-15.1-11.6-15
	c-6,0.1-11,8.1-10.9,14.7c0.2,9.1,10.8,17.1,17.2,17.4c16.9,0.9,24.9-7.7,39.7-17.8"/>
<path class="st6" d="M165.7,311.2h-55.8c-4.2,0-7.5-3.4-7.5-7.5v-55.5c0-4.2,3.4-7.5,7.5-7.5h55.8c4.2,0,7.5,3.4,7.5,7.5v55.5
	C173.2,307.8,169.8,311.2,165.7,311.2z"/>
<line class="st13" x1="136.5" y1="257.1" x2="136.5" y2="270"/>
<line class="st13" x1="149.2" y1="289.6" x2="162.1" y2="289.6"/>
<line class="st13" x1="125.9" y1="289.8" x2="112.9" y2="289.8"/>
<path class="st14" d="M438.5,313.6c4.5,3.9,16.7,15.5,21.6,35.2c4.6,18.7-0.2,34-2.3,39.6"/>
<path class="st14" d="M468,331c2.2,3.6,5.9,10.4,7,19.9c1.1,9.3-0.7,16.8-2,20.8"/>
<path class="st6" d="M288.9,482.4c-2.2,4.3-3.8,9.5-7.8,17.3c-5.8,11-6.2,11.6-10,17.3c-0.3,0.4-0.7,0.6-1.2,0.5
	c-1.8-0.2-6.6-1.6-12.3-9.8"/>
<path class="st6" d="M353.4,485.2c2.7,11.1,5.2,21,7.9,32.1c0.2,0.6-0.4,1.2-1,1.2c-5.1,0.2-8.8-0.3-14.3-1.5"/>
<path class="st6" d="M306.8,488.7c3.2,10.2,11.6,17.2,30.4,16.3c16.9-0.8,25.6-15.7,50.8-24.9c4.5-1.7,12.2-2.7,21.2-1.8
	c26.1,2.5,38,24.9,41.9,31.2"/>
<path class="st6" d="M168.7,555.9c29.3-12,79.1-28.1,142.6-28.4c64.3-0.3,114.7,15.7,144.2,27.5"/>
</svg>
