<?xml version="1.0" encoding="UTF-8" standalone="no"?>
<svg
   width="120"
   height="60"
   viewBox="0 0 120 60"
   fill="none"
   version="1.1"
   id="svg30"
   sodipodi:docname="opentofu-ar21.svg"
   inkscape:version="1.3.2 (091e20e, 2023-11-25)"
   xmlns:inkscape="http://www.inkscape.org/namespaces/inkscape"
   xmlns:sodipodi="http://sodipodi.sourceforge.net/DTD/sodipodi-0.dtd"
   xmlns="http://www.w3.org/2000/svg"
   xmlns:svg="http://www.w3.org/2000/svg">
  <defs
     id="defs30" />
  <sodipodi:namedview
     id="namedview30"
     pagecolor="#ffffff"
     bordercolor="#000000"
     borderopacity="0.25"
     inkscape:showpageshadow="2"
     inkscape:pageopacity="0.0"
     inkscape:pagecheckerboard="0"
     inkscape:deskcolor="#d1d1d1"
     inkscape:zoom="6.6390236"
     inkscape:cx="82.165696"
     inkscape:cy="46.467676"
     inkscape:window-width="1776"
     inkscape:window-height="942"
     inkscape:window-x="1762"
     inkscape:window-y="25"
     inkscape:window-maximized="0"
     inkscape:current-layer="svg30" />
  <mask
     id="path-1-outside-1_448_93"
     maskUnits="userSpaceOnUse"
     x="435.216"
     y="866.515"
     width="5233"
     height="1091"
     fill="#000000">
    <rect
       fill="#ffffff"
       x="435.216"
       y="866.51501"
       width="5233"
       height="1091"
       id="rect1" />
    <path
       d="m 4718,1307.41 v 411.04 h 176.66 v -411.04 h 161.64 v -150.09 h -161.64 v -54.27 c 0,-23.86 6.92,-42.72 20.78,-56.57 13.85,-13.86 32.71,-20.79 56.57,-20.79 13.09,0 24.25,2.31 33.49,6.93 10,3.85 18.86,9.62 26.55,17.32 l 110.84,-110.841 c -21.55,-22.322 -46.95,-39.641 -76.2,-51.956 -28.48,-13.086 -61.96,-19.628 -100.45,-19.628 -50.8,0 -94.68,10.776 -131.62,32.328 -36.95,20.783 -65.81,49.648 -86.6,86.595 -20.01,36.172 -30.02,76.972 -30.02,122.382 v 48.5 h -123.54 v 150.09 z"
       id="path1" />
    <path
       fill-rule="evenodd"
       clip-rule="evenodd"
       d="m 695.999,1710.96 c 52.342,21.55 109.302,32.33 170.88,32.33 60.039,0 115.844,-10.78 167.421,-32.33 52.34,-21.55 97.75,-51.18 136.24,-88.9 38.48,-38.49 68.5,-83.13 90.06,-133.93 21.55,-51.58 32.32,-107 32.32,-166.27 0,-60.03 -10.77,-115.45 -32.32,-166.26 -21.56,-51.57 -51.96,-96.21 -91.22,-133.93 -38.48,-38.486 -83.9,-68.12 -136.24,-88.903 -51.571,-21.553 -107.762,-32.329 -168.57,-32.329 -61.578,0 -118.538,10.776 -170.88,32.329 -51.572,20.783 -96.601,50.417 -135.087,88.903 -38.487,37.72 -68.506,81.98 -90.059,132.78 -21.552,50.8 -32.328,106.22 -32.328,166.26 0,59.27 10.776,114.69 32.328,166.26 21.553,50.8 51.957,95.45 91.213,133.93 39.256,38.49 84.67,68.51 136.242,90.06 z m 295.576,-165.1 c -36.177,21.55 -78.512,32.32 -127.005,32.32 -36.177,0 -69.276,-6.15 -99.295,-18.47 -30.02,-12.31 -55.805,-29.63 -77.358,-51.96 -20.783,-23.09 -36.947,-50.41 -48.493,-81.97 -11.546,-31.56 -17.319,-66.58 -17.319,-105.07 0,-51.57 10.007,-96.22 30.02,-133.93 20.013,-38.49 48.108,-68.12 84.285,-88.91 36.947,-21.55 79.667,-32.33 128.16,-32.33 36.177,0 68.891,6.16 98.14,18.48 30.02,11.54 55.81,28.86 77.36,51.96 21.55,22.32 38.1,49.26 49.65,80.82 11.54,30.79 17.31,65.42 17.31,103.91 0,50.8 -10,95.83 -30.01,135.09 -20.02,38.48 -48.5,68.5 -85.445,90.06 z"
       id="path2" />
    <path
       d="m 3177.34,1396.93 v 319.82 h 166.87 v -362.26 c 0.02,-37.26 0.03,-71.61 -17.93,-103.04 -18.47,-32.33 -43.87,-58.11 -76.2,-77.36 -31.56,-20.01 -68.12,-30.02 -109.69,-30.02 -43.1,0 -81.98,9.24 -116.61,27.71 -14.89,7.78 -28.36,17.05 -40.41,27.8 v -43.96 h -176.66 v 561.13 h 176.66 v -319.82 c 0,-19.24 4.23,-36.18 12.7,-50.8 8.46,-15.4 20.01,-26.94 34.63,-34.64 14.63,-8.47 31.56,-12.7 50.81,-12.7 27.71,0 50.41,9.23 68.12,27.71 18.47,17.7 27.71,41.18 27.71,70.43 z"
       id="path3" />
    <path
       fill-rule="evenodd"
       clip-rule="evenodd"
       d="m 2253.4,1694.7 c 47.72,24.63 101.99,36.95 162.8,36.95 46.95,0 90.06,-8.08 129.31,-24.25 39.26,-16.16 72.74,-40.41 100.45,-72.74 l -96.98,-96.98 c -16.94,19.24 -36.57,33.86 -58.89,43.87 -22.32,9.24 -47.34,13.86 -75.05,13.86 -30.02,0 -56.19,-6.16 -78.51,-18.48 -21.55,-13.08 -38.49,-31.17 -50.8,-54.26 -3.88,-8.02 -7.1,-16.55 -9.68,-25.6 l 402.24,-0.96 c 3.08,-14.62 5,-27.32 5.77,-38.1 1.54,-11.55 2.31,-22.32 2.31,-32.33 0,-54.65 -12.31,-103.14 -36.94,-145.48 -23.87,-42.33 -56.96,-75.43 -99.3,-99.29 -42.33,-23.86 -91.21,-35.8 -146.63,-35.8 -56.96,0 -108.15,12.7 -153.56,38.11 -45.42,25.4 -81.59,60.42 -108.54,105.06 -26.17,43.88 -39.25,93.91 -39.25,150.1 0,56.19 13.47,106.61 40.41,151.25 26.94,44.65 63.89,79.67 110.84,105.07 z m 22.72,-318.9 245.27,-0.69 c -2.38,-10.71 -5.5,-20.41 -9.36,-29.1 -9.24,-21.55 -23.09,-37.71 -41.57,-48.49 -17.7,-11.55 -39.64,-17.32 -65.81,-17.32 -27.71,0 -51.95,6.54 -72.74,19.63 -20.01,12.32 -35.79,30.02 -47.34,53.11 -3.33,7.14 -6.15,14.76 -8.45,22.86 z"
       id="path4" />
    <path
       fill-rule="evenodd"
       clip-rule="evenodd"
       d="m 1737.33,1730.5 c -37.71,0 -72.35,-7.32 -103.91,-21.94 -16.61,-7.7 -31.62,-16.89 -45.03,-27.57 v 274.65 h -174.34 v -797.82 h 176.65 v 38.73 c 12.82,-10.48 27.06,-19.55 42.72,-27.19 31.56,-15.39 66.2,-23.09 103.91,-23.09 53.11,0 100.07,12.7 140.86,38.1 41.57,25.4 73.9,60.04 96.99,103.92 23.86,43.87 35.79,93.9 35.79,150.09 0,56.19 -11.93,106.23 -35.79,150.1 -23.09,43.88 -55.42,78.51 -96.99,103.91 -40.79,25.41 -87.75,38.11 -140.86,38.11 z M 1705,1571.16 c 25.4,0 47.34,-5.77 65.82,-17.32 19.24,-11.54 34.25,-27.32 45.02,-47.34 10.78,-20.01 16.17,-42.72 16.17,-68.12 0,-26.17 -5.39,-49.26 -16.17,-69.27 -10.77,-20.01 -25.78,-35.41 -45.02,-46.19 -18.48,-11.54 -40.03,-17.31 -64.66,-17.31 -24.63,0 -46.57,5.77 -65.81,17.31 -18.48,10.78 -33.1,26.18 -43.88,46.19 -10.77,20.01 -16.16,43.1 -16.16,69.27 0,25.4 5,48.11 15.01,68.12 10.77,20.02 25.78,35.8 45.03,47.34 19.24,11.55 40.79,17.32 64.65,17.32 z"
       id="path5" />
    <path
       d="m 5404.24,1731.07 c -51.57,0 -97.37,-10.39 -137.4,-31.17 -39.25,-21.55 -70.04,-50.8 -92.36,-87.75 -22.33,-37.72 -33.49,-80.82 -33.49,-129.31 v -325.6 h 176.66 v 323.29 c 0,19.24 3.08,35.79 9.23,49.65 6.93,13.85 16.94,24.63 30.02,32.32 13.09,7.7 28.87,11.55 47.34,11.55 26.17,0 46.95,-8.08 62.35,-24.25 15.39,-16.93 23.09,-40.02 23.09,-69.27 v -323.29 h 176.65 v 324.44 c 0,49.27 -11.16,92.75 -33.48,130.47 -22.32,36.95 -53.11,66.2 -92.37,87.75 -39.25,20.78 -84.67,31.17 -136.24,31.17 z"
       id="path6" />
    <path
       fill-rule="evenodd"
       clip-rule="evenodd"
       d="m 4210.19,1730.61 c -57.73,0 -110.07,-12.7 -157.03,-38.11 -46.18,-26.17 -82.74,-61.57 -109.68,-106.22 -26.94,-44.64 -40.41,-94.67 -40.41,-150.1 0,-55.42 13.47,-105.06 40.41,-148.94 26.94,-43.87 63.5,-78.51 109.68,-103.91 46.19,-26.17 98.53,-39.26 157.03,-39.26 58.5,0 110.84,12.7 157.02,38.1 46.19,25.41 82.75,60.43 109.69,105.07 26.94,43.88 40.41,93.52 40.41,148.94 0,55.43 -13.47,105.46 -40.41,150.1 -26.94,44.65 -63.5,80.05 -109.69,106.22 -46.18,25.41 -98.52,38.11 -157.02,38.11 z m 0,-160.49 c 25.4,0 47.72,-5.39 66.97,-16.17 19.24,-11.54 33.86,-27.32 43.87,-47.34 10.78,-20.78 16.16,-44.25 16.16,-70.43 0,-26.17 -5.38,-48.87 -16.16,-68.12 -10.78,-20.01 -25.79,-35.4 -45.03,-46.18 -18.47,-11.55 -40.41,-17.32 -65.81,-17.32 -24.63,0 -46.57,5.77 -65.81,17.32 -19.25,10.78 -34.26,26.17 -45.03,46.18 -10.78,20.02 -16.17,43.11 -16.17,69.28 0,25.4 5.39,48.49 16.17,69.27 10.77,20.02 25.78,35.8 45.03,47.34 19.24,10.78 41.18,16.17 65.81,16.17 z"
       id="path7" />
    <path
       d="m 3562.32,1058.62 v 656.96 h 181.27 v -656.96 h 247.34 V 900.438 h -683.78 v 158.182 z"
       id="path8" />
  </mask>
  <path
     d="m 88.083902,40.229891 v 7.471728 h 3.211252 v -7.471728 h 2.938234 v -2.728273 h -2.938234 v -0.986501 c 0,-0.433725 0.125791,-0.776551 0.377731,-1.028312 0.251761,-0.25194 0.594599,-0.37791 1.028312,-0.37791 0.237947,0 0.440811,0.04197 0.60877,0.12597 0.181774,0.07002 0.342827,0.174867 0.482611,0.314841 l 2.014813,-2.014825 c -0.391735,-0.405764 -0.853446,-0.720581 -1.385131,-0.94444 -0.517705,-0.237875 -1.126285,-0.356795 -1.825943,-0.356795 -0.923432,0 -1.721062,0.195885 -2.392544,0.587656 -0.67166,0.377779 -1.196272,0.902474 -1.574181,1.574086 -0.363726,0.657525 -0.54569,1.399172 -0.54569,2.224609 v 0.881621 h -2.245663 v 2.728273 z"
     fill="#0d1a2b"
     id="path9"
     style="stroke-width:0.0181776" />
  <path
     fill-rule="evenodd"
     clip-rule="evenodd"
     d="m 62.068605,25.719083 c 0.951454,0.391723 1.986852,0.58768 3.106194,0.58768 1.091369,0 2.105772,-0.195957 3.043317,-0.58768 0.951418,-0.391735 1.776866,-0.93034 2.476512,-1.615993 0.699478,-0.699657 1.245169,-1.511101 1.637082,-2.434534 0.391724,-0.937592 0.587502,-1.945004 0.587502,-3.022392 0,-1.091202 -0.195778,-2.098603 -0.587502,-3.022202 -0.391913,-0.937426 -0.944511,-1.74887 -1.658161,-2.434535 -0.699478,-0.699574 -1.525105,-1.23825 -2.476524,-1.61604 -0.937437,-0.391783 -1.958854,-0.587668 -3.064192,-0.587668 -1.119342,0 -2.15474,0.195885 -3.106194,0.587668 -0.937461,0.37779 -1.755978,0.916466 -2.455564,1.61604 -0.699598,0.685665 -1.245276,1.490202 -1.637059,2.413623 -0.391759,0.923433 -0.587645,1.930833 -0.587645,3.022214 0,1.077388 0.195886,2.084789 0.587645,3.022214 0.391783,0.923421 0.944463,1.735055 1.658042,2.434522 0.713578,0.699657 1.539098,1.245348 2.476547,1.637083 z m 5.372876,-3.001124 c -0.65762,0.391723 -1.427169,0.587502 -2.308648,0.587502 -0.657619,0 -1.25928,-0.111751 -1.804947,-0.335741 -0.54569,-0.223776 -1.014403,-0.538605 -1.406186,-0.944511 -0.37779,-0.419721 -0.671612,-0.916336 -0.88149,-1.490023 -0.209878,-0.573688 -0.314817,-1.210265 -0.314817,-1.909922 0,-0.937414 0.181904,-1.749048 0.54569,-2.434522 0.363785,-0.699657 0.874488,-1.238262 1.532108,-1.616171 0.6716,-0.391736 1.448152,-0.587692 2.329642,-0.587692 0.657608,0 1.252267,0.111988 1.783953,0.335931 0.54569,0.209771 1.014486,0.5246 1.406209,0.944499 0.391735,0.405728 0.692572,0.895436 0.902521,1.469123 0.209771,0.559683 0.314651,1.189175 0.314651,1.888832 0,0.923421 -0.181774,1.741962 -0.5455,2.455612 -0.363916,0.699479 -0.881621,1.245169 -1.553186,1.637083 z"
     fill="#0d1a2b"
     id="path10"
     style="stroke-width:0.0181776" />
  <path
     d="m 107.17347,20.010764 v 5.813567 h 3.03329 v -6.58503 c 3.7e-4,-0.677295 5.5e-4,-1.301699 -0.32592,-1.87302 -0.33574,-0.587681 -0.79745,-1.056298 -1.38513,-1.406222 -0.57369,-0.363726 -1.23826,-0.54569 -1.9939,-0.54569 -0.78346,0 -1.4902,0.167959 -2.11969,0.5037 -0.27067,0.141425 -0.51552,0.309931 -0.73457,0.505341 v -0.799092 h -3.21125 v 10.200013 h 3.21125 v -5.813567 c 0,-0.349733 0.0769,-0.657667 0.23087,-0.923421 0.15377,-0.279937 0.36373,-0.489708 0.62949,-0.62967 0.26593,-0.153967 0.57368,-0.230861 0.9236,-0.230861 0.5037,0 0.91633,0.167781 1.23826,0.5037 0.33574,0.321748 0.5037,0.748554 0.5037,1.280252 z"
     fill="#0d1a2b"
     id="path11"
     style="stroke-width:0.0181776" />
  <path
     fill-rule="evenodd"
     clip-rule="evenodd"
     d="m 90.378447,25.423513 c 0.867427,0.447718 1.853928,0.67166 2.959314,0.67166 0.853433,0 1.63707,-0.146869 2.350541,-0.440811 0.713662,-0.29375 1.322242,-0.734549 1.825942,-1.322241 l -1.762862,-1.762862 c -0.307934,0.349745 -0.664752,0.615499 -1.07048,0.797451 -0.405728,0.167959 -0.860532,0.251951 -1.364231,0.251951 -0.54569,0 -1.021393,-0.111989 -1.427122,-0.335931 -0.391724,-0.237756 -0.699658,-0.56659 -0.923421,-0.986311 -0.0705,-0.145787 -0.129061,-0.300848 -0.175961,-0.465348 l 7.311758,-0.01748 c 0.05599,-0.265754 0.09095,-0.496615 0.104855,-0.692572 0.02794,-0.209949 0.04197,-0.405716 0.04197,-0.58768 0,-0.993408 -0.223764,-1.874839 -0.671482,-2.644471 -0.433904,-0.769466 -1.035398,-1.371139 -1.805042,-1.804864 -0.769454,-0.433714 -1.657971,-0.65076 -2.665382,-0.65076 -1.0354,0 -1.965906,0.230861 -2.791355,0.69275 -0.825626,0.46171 -1.483103,1.098299 -1.97299,1.909743 -0.475715,0.79763 -0.713471,1.707058 -0.713471,2.728463 0,1.021394 0.244842,1.937908 0.73455,2.749363 0.489707,0.811623 1.161367,1.448212 2.014813,1.909922 z m 0.412992,-5.79684 4.458418,-0.0126 c -0.04327,-0.194684 -0.09998,-0.371013 -0.170135,-0.528975 -0.167959,-0.391723 -0.41972,-0.685474 -0.755651,-0.881431 -0.321737,-0.209949 -0.720556,-0.314829 -1.196259,-0.314829 -0.503701,0 -0.944334,0.118884 -1.322243,0.356819 -0.363738,0.223954 -0.650582,0.54569 -0.860531,0.965411 -0.06051,0.129798 -0.111752,0.26831 -0.153599,0.415548 z"
     fill="#0d1a2b"
     id="path12"
     style="stroke-width:0.0181776" />
  <path
     fill-rule="evenodd"
     clip-rule="evenodd"
     d="m 80.997523,26.074273 c -0.685474,0 -1.315156,-0.133067 -1.888832,-0.39882 -0.30193,-0.139963 -0.574781,-0.307019 -0.818541,-0.501157 v 4.992482 H 75.121066 V 15.664311 h 3.211073 v 0.70402 c 0.233037,-0.1905 0.491884,-0.355368 0.776552,-0.494249 0.573676,-0.279746 1.203358,-0.419721 1.888832,-0.419721 0.965411,0 1.819035,0.230862 2.560503,0.692572 0.75564,0.461711 1.34332,1.091381 1.763041,1.88901 0.433713,0.797452 0.650582,1.70688 0.650582,2.728285 0,1.021394 -0.216869,1.931 -0.650582,2.728452 -0.419721,0.797641 -1.007401,1.427133 -1.763041,1.888843 -0.741468,0.461889 -1.595092,0.69275 -2.560503,0.69275 z m -0.58768,-2.896423 c 0.46171,0 0.860531,-0.104855 1.19645,-0.314841 0.349733,-0.209771 0.622585,-0.496614 0.818351,-0.860531 0.195957,-0.363726 0.293929,-0.776539 0.293929,-1.23825 0,-0.475715 -0.09796,-0.895435 -0.293929,-1.259162 -0.195766,-0.363738 -0.468618,-0.643674 -0.818351,-0.839631 -0.335919,-0.209771 -0.727654,-0.314651 -1.175372,-0.314651 -0.447706,0 -0.846527,0.104856 -1.19626,0.314651 -0.335931,0.195957 -0.601685,0.475893 -0.797642,0.839631 -0.195766,0.363727 -0.293751,0.783447 -0.293751,1.259162 0,0.461711 0.09095,0.874524 0.272851,1.23825 0.195779,0.363917 0.468618,0.65076 0.818542,0.860531 0.349733,0.20995 0.741456,0.314841 1.175182,0.314841 z"
     fill="#0d1a2b"
     id="path13"
     style="stroke-width:0.0181776" />
  <path
     d="m 100.55811,47.931018 c -0.937424,0 -1.76996,-0.18886 -2.497602,-0.56659 -0.713472,-0.391736 -1.273167,-0.923421 -1.678895,-1.595093 -0.405894,-0.685653 -0.608758,-1.469111 -0.608758,-2.350542 v -5.918637 h 3.211252 v 5.876647 c 0,0.349733 0.05599,0.65057 0.167781,0.902521 0.12597,0.251761 0.307934,0.447706 0.545688,0.587502 0.23795,0.139962 0.524794,0.209949 0.860534,0.209949 0.47571,0 0.85344,-0.146881 1.13337,-0.440811 0.27976,-0.307743 0.41972,-0.727464 0.41972,-1.259161 v -5.876647 h 3.21108 v 5.897547 c 0,0.895614 -0.20287,1.685979 -0.60858,2.371632 -0.40573,0.671672 -0.96541,1.203357 -1.67907,1.595093 -0.71348,0.37773 -1.5391,0.56659 -2.47652,0.56659 z"
     fill="#0d1a2b"
     id="path14"
     style="stroke-width:0.0181776" />
  <path
     fill-rule="evenodd"
     clip-rule="evenodd"
     d="m 78.853128,47.92266 c -1.049391,0 -2.000809,-0.230861 -2.854433,-0.69275 -0.839441,-0.475703 -1.504016,-1.119199 -1.993711,-1.930821 -0.489708,-0.811456 -0.734562,-1.720885 -0.734562,-2.728464 0,-1.0074 0.244854,-1.909743 0.734562,-2.707373 0.489695,-0.797451 1.15427,-1.427121 1.993711,-1.888844 0.839631,-0.475703 1.791038,-0.713649 2.854433,-0.713649 1.063395,0 2.014813,0.230861 2.854255,0.692571 0.839619,0.461889 1.504194,1.098466 1.993901,1.909922 0.489696,0.79763 0.73455,1.699973 0.73455,2.707373 0,1.007579 -0.244854,1.917008 -0.73455,2.728464 -0.489707,0.811622 -1.154282,1.455118 -1.993901,1.930821 -0.839442,0.461889 -1.79086,0.69275 -2.854255,0.69275 z m 0,-2.917322 c 0.46171,0 0.867438,-0.09796 1.21735,-0.293942 0.349746,-0.209759 0.615499,-0.496602 0.797463,-0.860519 0.195945,-0.377731 0.293739,-0.804358 0.293739,-1.280252 0,-0.475715 -0.09784,-0.888338 -0.293739,-1.238262 -0.195956,-0.363738 -0.468807,-0.643484 -0.818541,-0.839441 -0.335741,-0.209949 -0.734562,-0.314841 -1.196272,-0.314841 -0.447718,0 -0.846527,0.104856 -1.196272,0.314841 -0.349912,0.195957 -0.622763,0.475703 -0.81853,0.839441 -0.195956,0.363917 -0.293941,0.783637 -0.293941,1.259352 0,0.461711 0.09796,0.881431 0.293941,1.259162 0.195767,0.363917 0.468618,0.65076 0.81853,0.860519 0.349745,0.195957 0.748554,0.293942 1.196272,0.293942 z"
     fill="#0d1a2b"
     id="path15"
     style="stroke-width:0.0181776" />
  <path
     d="m 67.076402,35.707489 v 11.941964 h 3.295053 V 35.707489 H 74.8675 v -2.87538 H 62.438017 v 2.87538 z"
     fill="#0d1a2b"
     id="path16"
     style="stroke-width:0.0181776" />
  <path
     d="m 4718,1307.41 v 411.04 h 176.66 v -411.04 h 161.64 v -150.09 h -161.64 v -54.27 c 0,-23.86 6.92,-42.72 20.78,-56.57 13.85,-13.86 32.71,-20.79 56.57,-20.79 13.09,0 24.25,2.31 33.49,6.93 10,3.85 18.86,9.62 26.55,17.32 l 110.84,-110.841 c -21.55,-22.322 -46.95,-39.641 -76.2,-51.956 -28.48,-13.086 -61.96,-19.628 -100.45,-19.628 -50.8,0 -94.68,10.776 -131.62,32.328 -36.95,20.783 -65.81,49.648 -86.6,86.595 -20.01,36.172 -30.02,76.972 -30.02,122.382 v 48.5 h -123.54 v 150.09 z"
     stroke="#ffffff"
     stroke-width="2"
     mask="url(#path-1-outside-1_448_93)"
     id="path17"
     transform="matrix(0.01817762,0,0,0.01817762,2.3219243,16.464302)" />
  <path
     fill-rule="evenodd"
     clip-rule="evenodd"
     d="m 695.999,1710.96 c 52.342,21.55 109.302,32.33 170.88,32.33 60.039,0 115.844,-10.78 167.421,-32.33 52.34,-21.55 97.75,-51.18 136.24,-88.9 38.48,-38.49 68.5,-83.13 90.06,-133.93 21.55,-51.58 32.32,-107 32.32,-166.27 0,-60.03 -10.77,-115.45 -32.32,-166.26 -21.56,-51.57 -51.96,-96.21 -91.22,-133.93 -38.48,-38.486 -83.9,-68.12 -136.24,-88.903 -51.571,-21.553 -107.762,-32.329 -168.57,-32.329 -61.578,0 -118.538,10.776 -170.88,32.329 -51.572,20.783 -96.601,50.417 -135.087,88.903 -38.487,37.72 -68.506,81.98 -90.059,132.78 -21.552,50.8 -32.328,106.22 -32.328,166.26 0,59.27 10.776,114.69 32.328,166.26 21.553,50.8 51.957,95.45 91.213,133.93 39.256,38.49 84.67,68.51 136.242,90.06 z m 295.576,-165.1 c -36.177,21.55 -78.512,32.32 -127.005,32.32 -36.177,0 -69.276,-6.15 -99.295,-18.47 -30.02,-12.31 -55.805,-29.63 -77.358,-51.96 -20.783,-23.09 -36.947,-50.41 -48.493,-81.97 -11.546,-31.56 -17.319,-66.58 -17.319,-105.07 0,-51.57 10.007,-96.22 30.02,-133.93 20.013,-38.49 48.108,-68.12 84.285,-88.91 36.947,-21.55 79.667,-32.33 128.16,-32.33 36.177,0 68.891,6.16 98.14,18.48 30.02,11.54 55.81,28.86 77.36,51.96 21.55,22.32 38.1,49.26 49.65,80.82 11.54,30.79 17.31,65.42 17.31,103.91 0,50.8 -10,95.83 -30.01,135.09 -20.02,38.48 -48.5,68.5 -85.445,90.06 z"
     stroke="#ffffff"
     stroke-width="2"
     mask="url(#path-1-outside-1_448_93)"
     id="path18"
     transform="matrix(0.01817762,0,0,0.01817762,49.417011,-5.3820886)" />
  <path
     d="m 3177.34,1396.93 v 319.82 h 166.87 v -362.26 c 0.02,-37.26 0.03,-71.61 -17.93,-103.04 -18.47,-32.33 -43.87,-58.11 -76.2,-77.36 -31.56,-20.01 -68.12,-30.02 -109.69,-30.02 -43.1,0 -81.98,9.24 -116.61,27.71 -14.89,7.78 -28.36,17.05 -40.41,27.8 v -43.96 h -176.66 v 561.13 h 176.66 v -319.82 c 0,-19.24 4.23,-36.18 12.7,-50.8 8.46,-15.4 20.01,-26.94 34.63,-34.64 14.63,-8.47 31.56,-12.7 50.81,-12.7 27.71,0 50.41,9.23 68.12,27.71 18.47,17.7 27.71,41.18 27.71,70.43 z"
     stroke="#ffffff"
     stroke-width="2"
     mask="url(#path-1-outside-1_448_93)"
     id="path19"
     transform="matrix(0.01817762,0,0,0.01817762,49.417011,-5.3820886)" />
  <path
     fill-rule="evenodd"
     clip-rule="evenodd"
     d="m 2253.4,1694.7 c 47.72,24.63 101.99,36.95 162.8,36.95 46.95,0 90.06,-8.08 129.31,-24.25 39.26,-16.16 72.74,-40.41 100.45,-72.74 l -96.98,-96.98 c -16.94,19.24 -36.57,33.86 -58.89,43.87 -22.32,9.24 -47.34,13.86 -75.05,13.86 -30.02,0 -56.19,-6.16 -78.51,-18.48 -21.55,-13.08 -38.49,-31.17 -50.8,-54.26 -3.88,-8.02 -7.1,-16.55 -9.68,-25.6 l 402.24,-0.96 c 3.08,-14.62 5,-27.32 5.77,-38.1 1.54,-11.55 2.31,-22.32 2.31,-32.33 0,-54.65 -12.31,-103.14 -36.94,-145.48 -23.87,-42.33 -56.96,-75.43 -99.3,-99.29 -42.33,-23.86 -91.21,-35.8 -146.63,-35.8 -56.96,0 -108.15,12.7 -153.56,38.11 -45.42,25.4 -81.59,60.42 -108.54,105.06 -26.17,43.88 -39.25,93.91 -39.25,150.1 0,56.19 13.47,106.61 40.41,151.25 26.94,44.65 63.89,79.67 110.84,105.07 z m 22.72,-318.9 245.27,-0.69 c -2.38,-10.71 -5.5,-20.41 -9.36,-29.1 -9.24,-21.55 -23.09,-37.71 -41.57,-48.49 -17.7,-11.55 -39.64,-17.32 -65.81,-17.32 -27.71,0 -51.95,6.54 -72.74,19.63 -20.01,12.32 -35.79,30.02 -47.34,53.11 -3.33,7.14 -6.15,14.76 -8.45,22.86 z"
     stroke="#ffffff"
     stroke-width="2"
     mask="url(#path-1-outside-1_448_93)"
     id="path20"
     transform="matrix(0.01817762,0,0,0.01817762,49.417011,-5.3820886)" />
  <path
     fill-rule="evenodd"
     clip-rule="evenodd"
     d="m 1737.33,1730.5 c -37.71,0 -72.35,-7.32 -103.91,-21.94 -16.61,-7.7 -31.62,-16.89 -45.03,-27.57 v 274.65 h -174.34 v -797.82 h 176.65 v 38.73 c 12.82,-10.48 27.06,-19.55 42.72,-27.19 31.56,-15.39 66.2,-23.09 103.91,-23.09 53.11,0 100.07,12.7 140.86,38.1 41.57,25.4 73.9,60.04 96.99,103.92 23.86,43.87 35.79,93.9 35.79,150.09 0,56.19 -11.93,106.23 -35.79,150.1 -23.09,43.88 -55.42,78.51 -96.99,103.91 -40.79,25.41 -87.75,38.11 -140.86,38.11 z M 1705,1571.16 c 25.4,0 47.34,-5.77 65.82,-17.32 19.24,-11.54 34.25,-27.32 45.02,-47.34 10.78,-20.01 16.17,-42.72 16.17,-68.12 0,-26.17 -5.39,-49.26 -16.17,-69.27 -10.77,-20.01 -25.78,-35.41 -45.02,-46.19 -18.48,-11.54 -40.03,-17.31 -64.66,-17.31 -24.63,0 -46.57,5.77 -65.81,17.31 -18.48,10.78 -33.1,26.18 -43.88,46.19 -10.77,20.01 -16.16,43.1 -16.16,69.27 0,25.4 5,48.11 15.01,68.12 10.77,20.02 25.78,35.8 45.03,47.34 19.24,11.55 40.79,17.32 64.65,17.32 z"
     stroke="#ffffff"
     stroke-width="2"
     mask="url(#path-1-outside-1_448_93)"
     id="path21"
     transform="matrix(0.01817762,0,0,0.01817762,49.417011,-5.3820886)" />
  <path
     d="m 5404.24,1731.07 c -51.57,0 -97.37,-10.39 -137.4,-31.17 -39.25,-21.55 -70.04,-50.8 -92.36,-87.75 -22.33,-37.72 -33.49,-80.82 -33.49,-129.31 v -325.6 h 176.66 v 323.29 c 0,19.24 3.08,35.79 9.23,49.65 6.93,13.85 16.94,24.63 30.02,32.32 13.09,7.7 28.87,11.55 47.34,11.55 26.17,0 46.95,-8.08 62.35,-24.25 15.39,-16.93 23.09,-40.02 23.09,-69.27 v -323.29 h 176.65 v 324.44 c 0,49.27 -11.16,92.75 -33.48,130.47 -22.32,36.95 -53.11,66.2 -92.37,87.75 -39.25,20.78 -84.67,31.17 -136.24,31.17 z"
     stroke="#ffffff"
     stroke-width="2"
     mask="url(#path-1-outside-1_448_93)"
     id="path22"
     transform="matrix(0.01817762,0,0,0.01817762,2.3219243,16.464302)" />
  <path
     fill-rule="evenodd"
     clip-rule="evenodd"
     d="m 4210.19,1730.61 c -57.73,0 -110.07,-12.7 -157.03,-38.11 -46.18,-26.17 -82.74,-61.57 -109.68,-106.22 -26.94,-44.64 -40.41,-94.67 -40.41,-150.1 0,-55.42 13.47,-105.06 40.41,-148.94 26.94,-43.87 63.5,-78.51 109.68,-103.91 46.19,-26.17 98.53,-39.26 157.03,-39.26 58.5,0 110.84,12.7 157.02,38.1 46.19,25.41 82.75,60.43 109.69,105.07 26.94,43.88 40.41,93.52 40.41,148.94 0,55.43 -13.47,105.46 -40.41,150.1 -26.94,44.65 -63.5,80.05 -109.69,106.22 -46.18,25.41 -98.52,38.11 -157.02,38.11 z m 0,-160.49 c 25.4,0 47.72,-5.39 66.97,-16.17 19.24,-11.54 33.86,-27.32 43.87,-47.34 10.78,-20.78 16.16,-44.25 16.16,-70.43 0,-26.17 -5.38,-48.87 -16.16,-68.12 -10.78,-20.01 -25.79,-35.4 -45.03,-46.18 -18.47,-11.55 -40.41,-17.32 -65.81,-17.32 -24.63,0 -46.57,5.77 -65.81,17.32 -19.25,10.78 -34.26,26.17 -45.03,46.18 -10.78,20.02 -16.17,43.11 -16.17,69.28 0,25.4 5.39,48.49 16.17,69.27 10.77,20.02 25.78,35.8 45.03,47.34 19.24,10.78 41.18,16.17 65.81,16.17 z"
     stroke="#ffffff"
     stroke-width="2"
     mask="url(#path-1-outside-1_448_93)"
     id="path23"
     transform="matrix(0.01817762,0,0,0.01817762,2.3219243,16.464302)" />
  <path
     d="m 3562.32,1058.62 v 656.96 h 181.27 v -656.96 h 247.34 V 900.438 h -683.78 v 158.182 z"
     stroke="#ffffff"
     stroke-width="2"
     mask="url(#path-1-outside-1_448_93)"
     id="path24"
     transform="matrix(0.01817762,0,0,0.01817762,2.3219243,16.464302)" />
  <path
     fill-rule="evenodd"
     clip-rule="evenodd"
     d="m 30.070022,7.9422193 c -0.91813,-0.504706 -2.030918,-0.504706 -2.94905,0 L 12.008325,16.248726 c -0.01265,0.007 -0.02526,0.01396 -0.03787,0.02095 l -1.9897298,1.093655 c -0.978588,0.537923 -1.587134,1.566138 -1.587134,2.682979 v 18.683531 c 0,1.116838 0.608546,2.145054 1.587134,2.683045 l 15.2561478,8.385103 c 0.0192,0.01135 0.0392,0.02117 0.05913,0.03188 l 1.824971,1.00317 c 0.918132,0.504906 2.030919,0.504906 2.94905,0 l 1.829624,-1.005827 c 0.0179,-0.0093 0.03587,-0.0192 0.05448,-0.02922 l 15.255479,-8.385103 c 0.979254,-0.537991 1.587135,-1.566207 1.587135,-2.683044 V 20.046319 c 0,-1.116841 -0.607881,-2.145057 -1.587135,-2.68298 l -1.98242,-1.089934 c -0.01462,-0.0082 -0.0299,-0.01659 -0.04451,-0.02471 z M 31.041304,29.387586 45.18267,21.614752 c 0.01462,-0.008 0.02922,-0.01615 0.0432,-0.02418 l 0.168743,-0.09282 c 0.471024,-0.258831 1.047017,0.08184 1.047017,0.619174 v 14.542436 c 0,0.537326 -0.575993,0.877937 -1.047017,0.619175 l -0.130202,-0.07169 c -0.02659,-0.01571 -0.05382,-0.0313 -0.08171,-0.04645 z M 11.971786,21.594422 c 0.01201,0.0068 0.02392,0.01354 0.03653,0.0203 l 14.141367,7.772834 -14.141367,7.772835 c -0.02659,0.01462 -0.05313,0.02938 -0.07839,0.04452 l -0.134196,0.07362 c -0.471022,0.258763 -1.047015,-0.08184 -1.047015,-0.619174 V 22.116934 c 0,-0.537325 0.575993,-0.878006 1.047017,-0.619174 z M 44.06922,18.324623 30.81941,11.041946 c -0.464381,-0.255442 -1.031735,0.073 -1.046351,0.598115 0,0.007 0,0.01396 0,0.02095 v 15.73574 l 14.296161,-7.85763 c 0.460394,-0.272517 0.460394,-0.941783 0,-1.214498 z m -30.944121,1.216358 14.292838,7.855812 V 11.661054 c 0,-0.007 0,-0.01396 0,-0.02095 C 27.402657,11.115 26.835964,10.786546 26.37092,11.041987 l -13.246484,7.280818 c -0.464382,0.272117 -0.464382,0.946366 6.63e-4,1.218218 z m 0.01724,20.921597 c -0.475674,-0.261356 -0.487634,-0.933613 -0.0372,-1.216426 L 27.4179,31.37951 v 15.735674 c 0,0.007 0,0.01419 0,0.02117 -0.01462,0.514605 -0.559384,0.840137 -1.018448,0.612928 z m 16.630683,6.652606 V 31.37951 l 14.314099,7.867638 c 0.449099,0.283345 0.436478,0.95434 -0.03854,1.21543 l -13.255125,7.285266 c -0.45973,0.229866 -1.005826,-0.09633 -1.020442,-0.611599 0,-0.0035 0,-0.007 0,-0.01043 0,-0.0035 0,-0.007 0,-0.01066 z"
     fill="#0d1a2b"
     id="path25"
     style="stroke-width:0.0664349" />
  <path
     d="m 28.254354,10.005294 c 0.211934,-0.1164547 0.469032,-0.1164547 0.680959,0 l 15.112646,8.306507 c 0.488298,0.268397 0.488298,0.969953 0,1.238283 l -15.112646,8.306507 c -0.211933,0.116519 -0.469032,0.116519 -0.680959,0 L 13.141707,19.550084 c -0.488298,-0.26833 -0.488298,-0.969886 0,-1.238283 z"
     fill="#e7c200"
     id="path26"
     style="stroke-width:0.0664349" />
  <path
     d="m 10.748716,22.116138 c 0,-0.537328 0.575993,-0.87794 1.047017,-0.619175 l 15.255482,8.385301 c 0.225878,0.124157 0.366722,0.361407 0.366722,0.619174 v 16.613016 c 0,0.537061 -0.575993,0.877871 -1.047017,0.61944 L 11.114775,39.348327 c -0.225881,-0.124156 -0.366059,-0.36147 -0.366059,-0.619174 z"
     fill="#ffda18"
     id="path27"
     style="stroke-width:0.0664349" />
  <path
     d="m 45.393934,21.496963 c 0.471024,-0.258765 1.047015,0.08184 1.047015,0.619175 v 16.613015 c 0,0.257704 -0.140176,0.495009 -0.366056,0.619174 l -15.256146,8.385567 c -0.471025,0.258431 -1.047018,-0.08238 -1.047018,-0.61944 V 30.501438 c 0,-0.257767 0.140854,-0.495009 0.366724,-0.619174 z"
     fill="#ffffff"
     id="path28"
     style="stroke-width:0.0664349" />
  <path
     d="m 17.155713,35.150628 c -6.64e-4,0.0079 -0.0013,0.01549 -0.002,0.02312 l -3.575536,-1.881374 c 0,-0.0079 6.67e-4,-0.0155 0.0013,-0.02325 0.08304,-1.112787 0.950685,-1.59371 1.938575,-1.074121 0.987225,0.519587 1.720667,1.842842 1.637624,2.955625 z"
     fill="#0d1a2b"
     id="path29"
     style="stroke-width:0.0664349" />
  <path
     d="m 22.783427,38.400033 c -6.65e-4,0.0077 -0.0013,0.0155 -0.002,0.02312 l -3.576198,-1.881441 c 6.65e-4,-0.0077 0.0013,-0.0155 0.002,-0.02318 0.08238,-1.112785 0.950685,-1.593709 1.937911,-1.074122 0.987888,0.519523 1.720667,1.842844 1.638288,2.955629 z"
     fill="#0d1a2b"
     id="path30"
     style="stroke-width:0.0664349" />
</svg>
