<?xml version="1.0" encoding="UTF-8" standalone="no"?>
<svg
   xmlns:dc="http://purl.org/dc/elements/1.1/"
   xmlns:cc="http://creativecommons.org/ns#"
   xmlns:rdf="http://www.w3.org/1999/02/22-rdf-syntax-ns#"
   xmlns:svg="http://www.w3.org/2000/svg"
   xmlns="http://www.w3.org/2000/svg"
   xmlns:sodipodi="http://sodipodi.sourceforge.net/DTD/sodipodi-0.dtd"
   xmlns:inkscape="http://www.inkscape.org/namespaces/inkscape"
   id="Layer_1"
   data-name="Layer 1"
   viewBox="0 0 120 60.000002"
   version="1.1"
   sodipodi:docname="crunchbase-ar21.svg"
   width="120"
   height="60"
   style="fill:#ffffff"
   inkscape:version="0.92.4 (5da689c313, 2019-01-14)">
  <metadata
     id="metadata29">
    <rdf:RDF>
      <cc:Work
         rdf:about="">
        <dc:format>image/svg+xml</dc:format>
        <dc:type
           rdf:resource="http://purl.org/dc/dcmitype/StillImage" />
        <dc:title>logo_crunchbase</dc:title>
      </cc:Work>
    </rdf:RDF>
  </metadata>
  <defs
     id="defs27" />
  <sodipodi:namedview
     pagecolor="#ffffff"
     bordercolor="#666666"
     borderopacity="1"
     objecttolerance="10"
     gridtolerance="10"
     guidetolerance="10"
     inkscape:pageopacity="0"
     inkscape:pageshadow="2"
     inkscape:window-width="1920"
     inkscape:window-height="1001"
     id="namedview25"
     showgrid="false"
     inkscape:zoom="5.1061711"
     inkscape:cx="93.889999"
     inkscape:cy="13.19"
     inkscape:window-x="-9"
     inkscape:window-y="-9"
     inkscape:window-maximized="1"
     inkscape:current-layer="Layer_1" />
  <title
     id="title2">logo_crunchbase</title>
  <g
     id="g857"
     transform="matrix(0.57408551,0,0,0.57408551,6.1150523,3.0940468)">
    <path
       inkscape:connector-curvature="0"
       style="fill:#0a4063;fill-opacity:1"
       id="path4"
       d="m 187.78,50.700001 c 0,-5.44 -3.71,-8.61 -8.6,-8.61 a 8.53,8.53 0 0 0 -8.83,8.9 8.63,8.63 0 0 0 8.83,9 10.3,10.3 0 0 0 5.15,-1.3 7,7 0 0 0 3.3,-4.3 h -3.59 c -0.88,1.58 -2.45,2.35 -4.67,2.35 -3,0 -5.23,-2.35 -5.23,-4.59 h 13.6 c 0.04,-0.64 0.04,-1.04 0.04,-1.45 z m -13.68,-1.71 a 4.75,4.75 0 0 1 4.94,-3.72 c 2.57,0 4.68,1.54 5,3.72 h -9.89 z" />
    <path
       inkscape:connector-curvature="0"
       style="fill:#0a4063;fill-opacity:1"
       id="path6"
       d="m 13.63,53.240001 a 5.16,5.16 0 1 1 0.06,-4.25 h 4 a 9,9 0 1 0 0,4.25 h -4 z" />
    <path
       inkscape:connector-curvature="0"
       style="fill:#0a4063;fill-opacity:1"
       id="path8"
       d="m 31.94,42.850001 a 8.06,8.06 0 0 0 -3.6,-0.76 6.69,6.69 0 0 0 -3.62,1.11 v -0.5 h -3.68 v 16.69 h 3.7 v -8 a 13.36,13.36 0 0 1 0.23,-3.25 v -0.08 a 2.82,2.82 0 0 1 1.38,-1.67 3.72,3.72 0 0 1 4,0 z" />
    <path
       inkscape:connector-curvature="0"
       style="fill:#0a4063;fill-opacity:1"
       id="path10"
       d="m 45.91,42.700001 v 8 a 13.36,13.36 0 0 1 -0.23,3.25 v 0.08 a 2.82,2.82 0 0 1 -1.36,1.66 3.72,3.72 0 0 1 -4,0 2.82,2.82 0 0 1 -1.36,-1.66 v -0.08 a 13.36,13.36 0 0 1 -0.23,-3.25 v -8 h -3.69 v 9.1 a 11.14,11.14 0 0 0 0.63,4.39 5.65,5.65 0 0 0 3,3 8.06,8.06 0 0 0 3.6,0.76 6.69,6.69 0 0 0 3.62,-1.11 v 0.55 h 3.65 v -16.69 z" />
    <path
       inkscape:connector-curvature="0"
       style="fill:#0a4063;fill-opacity:1"
       id="path12"
       d="m 57.79,59.390001 v -8 a 13.36,13.36 0 0 1 0.25,-3.26 v -0.08 a 2.82,2.82 0 0 1 1.36,-1.66 3.72,3.72 0 0 1 4,0 2.82,2.82 0 0 1 1.36,1.66 v 0.08 a 13.36,13.36 0 0 1 0.21,3.26 v 8 h 3.67 v -9.1 a 11.14,11.14 0 0 0 -0.6,-4.39 5.65,5.65 0 0 0 -3,-3 8.06,8.06 0 0 0 -3.6,-0.76 6.69,6.69 0 0 0 -3.62,1.11 v -0.5 h -3.7 v 16.64 z" />
    <path
       inkscape:connector-curvature="0"
       style="fill:#0a4063;fill-opacity:1"
       id="path14"
       d="m 85.67,53.240001 a 5.16,5.16 0 1 1 0.06,-4.25 h 4 a 9,9 0 1 0 0,4.25 h -4 z" />
    <path
       inkscape:connector-curvature="0"
       style="fill:#0a4063;fill-opacity:1"
       id="path16"
       d="m 96.78,59.390001 v -8 a 13.36,13.36 0 0 1 0.23,-3.25 v -0.08 a 2.82,2.82 0 0 1 1.38,-1.67 3.72,3.72 0 0 1 4,0 2.82,2.82 0 0 1 1.36,1.66 v 0.08 a 13.36,13.36 0 0 1 0.23,3.25 v 8 h 3.67 v -9.1 a 11.14,11.14 0 0 0 -0.63,-4.39 5.65,5.65 0 0 0 -3,-3 8.06,8.06 0 0 0 -3.6,-0.76 6.69,6.69 0 0 0 -3.62,1.11 v -9.62 h -3.69 v 25.77 z" />
    <path
       inkscape:connector-curvature="0"
       style="fill:#0a4063;fill-opacity:1"
       id="path18"
       d="m 120.88,42.090001 h -0.66 a 8.88,8.88 0 0 0 -4.4,1.55 v -10.02 h -3.65 v 25.77 h 3.67 v -0.94 a 9,9 0 1 0 5.04,-16.36 z m 5.16,9.64 v 0.16 a 5.12,5.12 0 0 1 -0.14,0.63 v 0 a 5.11,5.11 0 0 1 -0.25,0.65 v 0.08 a 5.19,5.19 0 0 1 -3.61,2.83 v 0 l -0.49,0.08 h -0.11 a 5.08,5.08 0 0 1 -0.56,0 v 0 a 5.16,5.16 0 0 1 -0.7,-0.05 h -0.16 a 5.11,5.11 0 0 1 -1.31,-0.4 h -0.1 a 5.18,5.18 0 0 1 -1.16,-0.78 v 0 a 5.21,5.21 0 0 1 -0.91,-1.09 v 0 a 5.16,5.16 0 0 1 -0.33,-0.64 v 0 a 5.13,5.13 0 0 1 0.06,-4.25 v 0 a 5.17,5.17 0 0 1 4.14,-2.93 5.11,5.11 0 0 1 0.53,0 v 0 a 5.17,5.17 0 0 1 5.1,5.02 v 0 a 5.15,5.15 0 0 1 0,0.69 z" />
    <path
       inkscape:connector-curvature="0"
       style="fill:#0a4063;fill-opacity:1"
       id="path20"
       d="m 167.38,47.690001 v -0.08 c 0,-2.72 -2.09,-5.49 -6.75,-5.54 -4.66,-0.05 -6.68,2.74 -6.74,5.42 v 0 0.2 0 c 0.1,1.57 1,3.57 4.48,4.39 l 3.1,0.7 c 0.8,0.18 2.16,0.63 2.27,1.65 v 0 c 0,1.41 -1.81,2.15 -3.11,2.15 -1.5,0 -3.11,-0.83 -3.11,-2.16 v -0.08 h -3.63 v 0.05 c 0,2.72 2.09,5.49 6.75,5.54 4.66,0.05 6.75,-2.81 6.75,-5.54 v -0.05 0 c -0.08,-1.59 -0.94,-3.62 -4.48,-4.44 l -3.1,-0.7 c -0.68,-0.15 -2.27,-0.61 -2.27,-1.62 0,-1.58 1.61,-2.14 3.11,-2.14 1.5,0 3.11,0.83 3.11,2.16 v 0.09 h 3.63 z" />
    <path
       inkscape:connector-curvature="0"
       style="fill:#0a4063;fill-opacity:1"
       id="path22"
       d="m 132.84,51.040001 a 9,9 0 0 0 14,7.4 v 0.95 h 3.67 v -16.69 h -3.65 v 1 a 8.88,8.88 0 0 0 -4.4,-1.55 h -0.66 a 9,9 0 0 0 -8.96,8.89 z m 3.79,0 v 0 a 5.17,5.17 0 0 1 5.16,-5.16 v 0 a 5.11,5.11 0 0 1 0.53,0 5.17,5.17 0 0 1 4.14,2.93 v 0 a 5.13,5.13 0 0 1 0.06,4.25 v 0 a 5.16,5.16 0 0 1 -0.33,0.64 v 0 a 5.21,5.21 0 0 1 -0.91,1.09 v 0 a 5.18,5.18 0 0 1 -1.16,0.78 h -0.1 a 5.11,5.11 0 0 1 -1.31,0.4 h -0.16 a 5.16,5.16 0 0 1 -0.7,0.05 v 0 a 5.08,5.08 0 0 1 -0.56,0 h -0.07 l -0.49,-0.08 v 0 a 5.19,5.19 0 0 1 -3.53,-2.81 v -0.08 a 5.11,5.11 0 0 1 -0.25,-0.65 v 0 a 5.12,5.12 0 0 1 -0.14,-0.63 v -0.16 a 5.15,5.15 0 0 1 -0.18,-0.57 z" />
  </g>
</svg>
