<svg xmlns="http://www.w3.org/2000/svg" width="64" height="64"><path d="M37.65 48.2c0-10.318-8.508-18.825-18.825-18.825S0 37.883 0 48.2c0 1.63.18 3.44.724 5.068.18.543.362 1.267.543 1.8.18.362.362.543.724.543H7.06a.78.78 0 0 0 .724-.724c0-.18 0-.18-.18-.362L7.06 53.45c-2.715-6.335.18-13.757 6.516-16.653 6.335-2.715 13.757.18 16.653 6.516.724 1.63 1.086 3.258 1.086 5.068 0 1.63-.362 3.44-1.086 5.068-.18.362-.362.724-.543 1.267-.18.362 0 .724.362.905.18 0 .18.18.362.18h5.25c.362 0 .543-.18.724-.543.18-.543.362-1.267.543-1.8.362-1.8.724-3.62.724-5.25z" fill="#008774"/><path d="M40.185 23.22C26.97 23.22 16.3 33.9 16.3 47.114c0 2 .18 4.163.724 6.154.18.543.362 1.267.543 1.8.18.362.362.543.724.543h5.068a.78.78 0 0 0 .724-.724v-.362c-.18-.362-.362-.905-.543-1.267-3.258-9.232 1.448-19.368 10.5-22.627S53.4 32.1 56.657 41.14a17.47 17.47 0 0 1 0 12.128c-.18.362-.362.905-.543 1.267s0 .724.362.905h5.43c.362 0 .543-.18.724-.543.18-.543.362-1.267.543-1.8 3.44-12.67-4.163-25.885-17.015-29.143-1.8-.543-3.8-.724-5.973-.724z" fill="#00ae9e"/><path d="M53.4 29.375A21.09 21.09 0 0 0 32.22 8.197a21.09 21.09 0 0 0-21.178 21.178c0 .724 0 1.267.18 2h6.154c-.905-8.146 5.25-15.567 13.395-16.472s15.567 5.25 16.472 13.395v1.8c-.18 2.896-1.267 5.792-3.077 8.146-.18.362-.18.905.18 1.086.18.18.362.18.543.18h5.43c.362 0 .543-.18.724-.362 1.448-2.715 2.353-5.973 2.353-9.05v-.724z" fill="#008774"/></svg>