<?xml version="1.0" encoding="UTF-8" standalone="no"?>
<svg
   xmlns:dc="http://purl.org/dc/elements/1.1/"
   xmlns:cc="http://creativecommons.org/ns#"
   xmlns:rdf="http://www.w3.org/1999/02/22-rdf-syntax-ns#"
   xmlns:svg="http://www.w3.org/2000/svg"
   xmlns="http://www.w3.org/2000/svg"
   xmlns:sodipodi="http://sodipodi.sourceforge.net/DTD/sodipodi-0.dtd"
   xmlns:inkscape="http://www.inkscape.org/namespaces/inkscape"
   version="1.1"
   id="Layer_1"
   x="0px"
   y="0px"
   width="120"
   height="60"
   viewBox="0 0 120 60"
   enable-background="new 0 0 792 612"
   xml:space="preserve"
   sodipodi:docname="twitter-ar21.svg"
   inkscape:version="0.92.2 (5c3e80d, 2017-08-06)"><metadata
     id="metadata17"><rdf:RDF><cc:Work
         rdf:about=""><dc:format>image/svg+xml</dc:format><dc:type
           rdf:resource="http://purl.org/dc/dcmitype/StillImage" /><dc:title></dc:title></cc:Work></rdf:RDF></metadata><defs
     id="defs15" /><sodipodi:namedview
     pagecolor="#ffffff"
     bordercolor="#666666"
     borderopacity="1"
     objecttolerance="10"
     gridtolerance="10"
     guidetolerance="10"
     inkscape:pageopacity="0"
     inkscape:pageshadow="2"
     inkscape:window-width="1920"
     inkscape:window-height="1001"
     id="namedview13"
     showgrid="false"
     inkscape:zoom="4.7762729"
     inkscape:cx="74.519448"
     inkscape:cy="9.8329248"
     inkscape:window-x="-9"
     inkscape:window-y="-9"
     inkscape:window-maximized="1"
     inkscape:current-layer="Layer_1" /><g
     id="g875"
     transform="matrix(1.5657481,0,0,1.5657481,-3.1238868,-33.019717)"><path
       clip-path="none"
       style="fill:#33ccff;stroke-width:0.07472194"
       inkscape:connector-curvature="0"
       id="path7-2"
       d="m 65.264489,42.949496 c -0.009,0.0015 -0.0178,9.19e-4 -0.0267,0.0025 l 0.0462,-0.0075 c -0.007,0.0011 -0.0123,0.004 -0.0195,0.0051 z" /><path
       clip-path="none"
       style="fill:#33ccff;stroke-width:0.07472194"
       inkscape:connector-curvature="0"
       id="path9-0"
       d="m 34.338469,45.12121 c 0,0.301111 -0.10794,0.559295 -0.32396,0.77409 -0.21602,0.215101 -0.47482,0.322575 -0.77716,0.322575 h -2.17677 c -0.90686,0 -1.68187,-0.320429 -2.32549,-0.9619 -0.64377,-0.641626 -0.96527,-1.413723 -0.96527,-2.317671 v -4.396321 c 0,-0.30985 0.10717,-0.570026 0.3215,-0.781141 0.21434,-0.21081 0.4762,-0.316444 0.78528,-0.316444 0.30004,0 0.55792,0.107628 0.77195,0.322729 0.21464,0.214795 0.32227,0.472672 0.32227,0.77409 v 1.591874 h 3.09911 c 0.28134,0 0.52235,0.09966 0.7235,0.299272 0.201,0.19931 0.30111,0.438329 0.30111,0.717669 0,0.278728 -0.10011,0.51836 -0.30034,0.717823 -0.20023,0.199158 -0.44079,0.298966 -0.72089,0.298966 h -3.10249 v 0.77041 c 0,0.302184 0.10548,0.558835 0.31751,0.77041 0.21173,0.211115 0.46884,0.316749 0.77133,0.316749 h 2.17723 c 0.30219,0 0.5616,0.107782 0.77762,0.32273 0.21602,0.215102 0.32396,0.473132 0.32396,0.77409 z" /><path
       clip-path="none"
       style="fill:#33ccff;stroke-width:0.07472194"
       inkscape:connector-curvature="0"
       id="path11-9"
       d="m 59.832219,45.12121 c 0,0.301111 -0.10794,0.559295 -0.3238,0.77409 -0.21587,0.215101 -0.47482,0.322575 -0.77701,0.322575 h -0.98873 c -0.90686,0 -1.68187,-0.320429 -2.32549,-0.9619 -0.64362,-0.641473 -0.96512,-1.413723 -0.96512,-2.317671 v -4.396321 c 0,-0.30985 0.10702,-0.570026 0.3215,-0.781141 0.21434,-0.21081 0.47605,-0.316444 0.78529,-0.316444 0.29988,0 0.55791,0.107628 0.77179,0.322729 0.21464,0.214795 0.32227,0.472672 0.32227,0.77409 v 1.591874 h 1.91107 c 0.28134,0 0.52235,0.09981 0.72334,0.299272 0.20115,0.19931 0.30112,0.438329 0.30112,0.717669 0,0.278728 -0.1,0.518207 -0.3002,0.71767 -0.20023,0.199157 -0.44078,0.298966 -0.72073,0.298966 h -1.91476 v 0.770563 c 0,0.302184 0.10548,0.558835 0.31752,0.77041 0.21173,0.211115 0.46884,0.316749 0.77118,0.316749 h 0.98934 c 0.30203,0 0.56159,0.107782 0.77746,0.32273 0.21602,0.215102 0.32396,0.473132 0.32396,0.77409 z" /><path
       clip-path="none"
       style="fill:#33ccff;stroke-width:0.07472194"
       inkscape:connector-curvature="0"
       id="path13-9"
       d="m 54.077369,45.12121 c 0,0.301111 -0.10793,0.559295 -0.3238,0.77409 -0.21587,0.215101 -0.47482,0.322575 -0.77701,0.322575 h -0.98873 c -0.90686,0 -1.68187,-0.320429 -2.32533,-0.9619 -0.64362,-0.641626 -0.96512,-1.413723 -0.96512,-2.317671 v -4.396321 c 0,-0.30985 0.10716,-0.570026 0.3215,-0.781141 0.21433,-0.21081 0.47604,-0.316444 0.78528,-0.316444 0.29989,0 0.55792,0.107628 0.77179,0.322729 0.21464,0.214795 0.32227,0.472672 0.32227,0.77409 v 1.591874 h 1.91108 c 0.28133,0 0.52234,0.09981 0.72334,0.299272 0.20115,0.19931 0.30111,0.438329 0.30111,0.717669 0,0.278728 -0.1,0.518207 -0.30019,0.71767 -0.20023,0.199157 -0.44078,0.298966 -0.72074,0.298966 h -1.91445 v 0.770563 c 0,0.302184 0.10548,0.558835 0.31752,0.77041 0.21173,0.211115 0.46884,0.316749 0.77118,0.316749 h 0.98934 c 0.30203,0 0.5616,0.107782 0.77746,0.32273 0.21541,0.215102 0.3235,0.473132 0.3235,0.77409 z" /><path
       clip-path="none"
       style="fill:#33ccff;stroke-width:0.07472194"
       inkscape:connector-curvature="0"
       id="path15-9"
       d="m 44.952189,43.14942 c 0,0.845688 -0.30065,1.56857 -0.90272,2.168647 -0.60192,0.599924 -1.3268,0.899808 -2.17478,0.899808 -0.77578,0 -1.45834,-0.261402 -2.04814,-0.784821 -0.58153,0.523419 -1.26041,0.784821 -2.03588,0.784821 -0.84784,0 -1.57317,-0.299884 -2.17524,-0.899808 -0.60176,-0.599923 -0.90257,-1.322959 -0.90257,-2.168647 v -2.143198 c 0,-0.290072 0.10073,-0.533383 0.30295,-0.730701 0.20131,-0.19747 0.44385,-0.296205 0.72611,-0.296205 0.28286,0 0.52495,0.09874 0.7264,0.296205 0.20177,0.197471 0.3028,0.441242 0.3028,0.731315 v 2.143963 c 0,0.282714 0.099,0.52204 0.29667,0.719663 0.19808,0.19747 0.43863,0.295745 0.72135,0.295745 0.27474,0 0.511,-0.09828 0.70893,-0.295745 0.19793,-0.197623 0.29666,-0.437103 0.29666,-0.719663 v -2.132005 c 0,-0.281946 0.1015,-0.525411 0.30341,-0.73116 0.20269,-0.20529 0.44968,-0.308318 0.74082,-0.308318 0.28287,0 0.52557,0.100728 0.7281,0.302491 0.20253,0.201304 0.30356,0.443235 0.30356,0.725029 v 2.143963 c 0,0.282714 0.099,0.52204 0.29698,0.719663 0.19762,0.19747 0.43434,0.295745 0.70877,0.295745 0.28287,0 0.52342,-0.09828 0.72089,-0.295745 0.19809,-0.197623 0.29697,-0.437103 0.29697,-0.719663 v -2.143963 c 0,-0.281794 0.10104,-0.523725 0.30296,-0.725029 0.2016,-0.20161 0.444,-0.302491 0.7261,-0.302491 0.28271,0 0.5251,0.100728 0.72656,0.302031 0.20176,0.201303 0.30264,0.442929 0.30264,0.724875 v 2.143198 z" /><path
       clip-path="none"
       style="fill:#33ccff;stroke-width:0.07472194"
       inkscape:connector-curvature="0"
       id="path17-7"
       d="m 47.924969,38.301585 c 0,0.300805 -0.10762,0.558988 -0.32364,0.773936 -0.21587,0.214948 -0.47467,0.322729 -0.77639,0.322729 -0.3025,0 -0.56114,-0.107781 -0.77716,-0.322729 -0.21526,-0.214795 -0.32319,-0.473131 -0.32319,-0.773936 0,-0.301265 0.10793,-0.559141 0.32319,-0.77409 0.21602,-0.215255 0.47482,-0.322576 0.77716,-0.322576 0.30187,0 0.56067,0.107321 0.77639,0.322576 0.21602,0.214949 0.32364,0.472978 0.32364,0.77409 z" /><path
       clip-path="none"
       style="fill:#33ccff;stroke-width:0.07472194"
       inkscape:connector-curvature="0"
       id="path19-8"
       d="m 47.924969,45.119984 c 0,0.301571 -0.10762,0.559908 -0.32364,0.775163 -0.21587,0.215254 -0.47467,0.322575 -0.77639,0.322575 -0.3025,0 -0.56114,-0.107321 -0.77716,-0.322575 -0.21526,-0.215102 -0.32319,-0.473592 -0.32319,-0.775163 v -4.042623 c 0,-0.301571 0.10793,-0.559908 0.32319,-0.775009 0.21602,-0.215256 0.47482,-0.322883 0.77716,-0.322883 0.30187,0 0.56067,0.107627 0.77639,0.322883 0.21602,0.214948 0.32364,0.473438 0.32364,0.775009 z" /><path
       clip-path="none"
       style="fill:#33ccff;stroke-width:0.07472194"
       inkscape:connector-curvature="0"
       id="path21-5"
       d="m 72.918759,41.150186 c 0,0.27888 -0.10026,0.51836 -0.30095,0.717976 -0.20039,0.199157 -0.44079,0.298965 -0.72105,0.298965 h -1.50264 c -0.28072,0 -0.51913,0.09782 -0.71537,0.293753 -0.1967,0.195477 -0.29452,0.433116 -0.29452,0.71307 v 2.025298 c 0,0.27934 -0.0998,0.519433 -0.30004,0.718896 -0.20023,0.200229 -0.44017,0.299578 -0.72027,0.299578 -0.27996,0 -0.52036,-0.09935 -0.72028,-0.299272 -0.20023,-0.199616 -0.30019,-0.438942 -0.30019,-0.718742 v -2.024225 c 0,-0.838482 0.2982,-1.555232 0.89505,-2.150096 0.59686,-0.59471 1.31591,-0.892449 2.157,-0.892449 h 1.50157 c 0.28041,0 0.52066,0.09981 0.72089,0.299425 0.20038,0.199464 0.3008,0.438482 0.3008,0.717823 z" /><path
       clip-path="none"
       style="fill:#33ccff;stroke-width:0.07472194"
       inkscape:connector-curvature="0"
       id="path23-8"
       d="m 63.276909,46.217722 c -0.86593,0 -1.68202,-0.329015 -2.32595,-0.987044 -0.64331,-0.658337 -0.89061,-1.375395 -0.89061,-2.302952 0,0 -0.0627,-2.94979 3.27329,-2.94979 2.61019,0 3.40483,1.833499 3.40483,2.738674 0,0.71951 -0.32917,0.974933 -1.07827,0.974933 h -3.33615 c 0,0 -0.12081,0.763357 1.39901,0.763357 h 1.90387 c 0.48677,0 0.88126,0.394482 0.88126,0.881412 0,0.486776 -0.39449,0.881257 -0.88126,0.881257 h -2.35002 z m -0.93063,-3.931315 h 2.19042 c 0,-0.719663 -1.08946,-0.719663 -1.08946,-0.719663 0,0 -1.10096,-1.5e-4 -1.10096,0.719663 z" /></g><path
     style="fill:#33ccff;stroke-width:0.14022562"
     inkscape:connector-curvature="0"
     id="path25-8"
     d="m 35.578531,29.141599 c -1.066284,0.182126 -2.61276,-0.0071 -3.432173,-0.348139 1.702705,-0.140972 2.855596,-0.91494 3.299833,-1.96568 -0.613716,0.377771 -2.519831,0.789207 -3.571139,0.397048 -0.05235,-0.247148 -0.109402,-0.482501 -0.167207,-0.69541 -0.800441,-2.946508 -3.546404,-5.321034 -6.421554,-5.033893 0.231894,-0.09408 0.466962,-0.181547 0.704617,-0.261247 0.314749,-0.113367 2.173123,-0.416614 1.880801,-1.071745 -0.247436,-0.577735 -2.517523,0.434453 -2.944494,0.567666 0.564211,-0.211473 1.497572,-0.576296 1.596827,-1.225674 -0.864021,0.118547 -1.712485,0.527675 -2.367615,1.122384 0.237075,-0.25463 0.41631,-0.565076 0.454313,-0.899979 -2.305762,1.474836 -3.652583,4.445798 -4.741856,7.329872 -0.855408,-0.830638 -1.615556,-1.484618 -2.295423,-1.848579 -1.908422,-1.023121 -4.191157,-2.092278 -7.7732361,-3.42383 -0.110159,1.186257 0.5857911,2.764957 2.5900141,3.81311 -0.433877,-0.0587 -1.227974,0.07278 -1.862088,0.223558 0.258075,1.360609 1.103103,2.480116 3.392181,3.021023 -1.045864,0.06876 -1.587348,0.308432 -2.076756,0.820569 0.476178,0.946014 1.639989,2.058037 3.729977,1.829304 -2.325917,1.003843 -0.948599,2.861916 0.943984,2.584559 -3.226738,3.338091 -8.3155846,3.09037 -11.2379137,0.300949 7.6285117,10.406145 24.2131027,6.153403 26.6834267,-3.869501 1.853473,0.01502 2.940456,-0.641608 3.615443,-1.366365 z"
     clip-path="none" /></svg>