<?xml version="1.0" encoding="UTF-8" standalone="no"?>
<!-- Generator: Adobe Illustrator 18.0.0, SVG Export Plug-In . SVG Version: 6.00 Build 0)  -->

<svg
   xmlns:dc="http://purl.org/dc/elements/1.1/"
   xmlns:cc="http://creativecommons.org/ns#"
   xmlns:rdf="http://www.w3.org/1999/02/22-rdf-syntax-ns#"
   xmlns:svg="http://www.w3.org/2000/svg"
   xmlns="http://www.w3.org/2000/svg"
   xmlns:sodipodi="http://sodipodi.sourceforge.net/DTD/sodipodi-0.dtd"
   xmlns:inkscape="http://www.inkscape.org/namespaces/inkscape"
   version="1.1"
   id="Capa_1"
   x="0px"
   y="0px"
   viewBox="0 0 64 64"
   xml:space="preserve"
   sodipodi:docname="parcel-icon.svg"
   width="64"
   height="64"
   inkscape:version="0.92.3 (2405546, 2018-03-11)"><metadata
   id="metadata67"><rdf:RDF><cc:Work
       rdf:about=""><dc:format>image/svg+xml</dc:format><dc:type
         rdf:resource="http://purl.org/dc/dcmitype/StillImage" /><dc:title></dc:title></cc:Work></rdf:RDF></metadata><defs
   id="defs65" /><sodipodi:namedview
   pagecolor="#ffffff"
   bordercolor="#666666"
   borderopacity="1"
   objecttolerance="10"
   gridtolerance="10"
   guidetolerance="10"
   inkscape:pageopacity="0"
   inkscape:pageshadow="2"
   inkscape:window-width="1920"
   inkscape:window-height="1001"
   id="namedview63"
   showgrid="false"
   inkscape:zoom="5.7543862"
   inkscape:cx="87.490302"
   inkscape:cy="-3.5178017"
   inkscape:window-x="-9"
   inkscape:window-y="-9"
   inkscape:window-maximized="1"
   inkscape:current-layer="Capa_1" />

<g
   id="g32"
   transform="translate(0,6)">
</g>
<g
   id="g34"
   transform="translate(0,6)">
</g>
<g
   id="g36"
   transform="translate(0,6)">
</g>
<g
   id="g38"
   transform="translate(0,6)">
</g>
<g
   id="g40"
   transform="translate(0,6)">
</g>
<g
   id="g42"
   transform="translate(0,6)">
</g>
<g
   id="g44"
   transform="translate(0,6)">
</g>
<g
   id="g46"
   transform="translate(0,6)">
</g>
<g
   id="g48"
   transform="translate(0,6)">
</g>
<g
   id="g50"
   transform="translate(0,6)">
</g>
<g
   id="g52"
   transform="translate(0,6)">
</g>
<g
   id="g54"
   transform="translate(0,6)">
</g>
<g
   id="g56"
   transform="translate(0,6)">
</g>
<g
   id="g58"
   transform="translate(0,6)">
</g>
<g
   id="g60"
   transform="translate(0,6)">
</g>
<g
   id="g30"
   transform="scale(1.1034483)">
	<polygon
   style="fill:#a98258"
   points="0,16 0,58 58,58 58,16 48,0 10,0 "
   id="polygon2" />
	<polygon
   style="fill:#daae86"
   points="58,16 48,0 10,0 0,16 "
   id="polygon4" />
	<polygon
   style="fill:#d8b18b"
   points="35,58 35,52 33,54 29,50 25,54 23,52 23,58 "
   id="polygon6" />
	<rect
   x="20"
   y="30"
   style="fill:#e8d5b2"
   width="18"
   height="16"
   id="rect8" />
	<g
   id="g24">
		<path
   style="fill:#d4c3a5"
   d="m 30,41 h -6 c -0.552,0 -1,0.447 -1,1 0,0.553 0.448,1 1,1 h 6 c 0.552,0 1,-0.447 1,-1 0,-0.553 -0.448,-1 -1,-1 z"
   id="path10"
   inkscape:connector-curvature="0" />
		<path
   style="fill:#d4c3a5"
   d="m 34,41 h -1 c -0.552,0 -1,0.447 -1,1 0,0.553 0.448,1 1,1 h 1 c 0.552,0 1,-0.447 1,-1 0,-0.553 -0.448,-1 -1,-1 z"
   id="path12"
   inkscape:connector-curvature="0" />
		<path
   style="fill:#d4c3a5"
   d="m 28,35 h 6 c 0.552,0 1,-0.447 1,-1 0,-0.553 -0.448,-1 -1,-1 h -6 c -0.552,0 -1,0.447 -1,1 0,0.553 0.448,1 1,1 z"
   id="path14"
   inkscape:connector-curvature="0" />
		<path
   style="fill:#d4c3a5"
   d="m 34,37 h -2 c -0.552,0 -1,0.447 -1,1 0,0.553 0.448,1 1,1 h 2 c 0.552,0 1,-0.447 1,-1 0,-0.553 -0.448,-1 -1,-1 z"
   id="path16"
   inkscape:connector-curvature="0" />
		<path
   style="fill:#d4c3a5"
   d="m 24,39 h 2 c 0.552,0 1,-0.447 1,-1 0,-0.553 -0.448,-1 -1,-1 h -2 c -0.552,0 -1,0.447 -1,1 0,0.553 0.448,1 1,1 z"
   id="path18"
   inkscape:connector-curvature="0" />
		<path
   style="fill:#d4c3a5"
   d="m 24,35 h 1 c 0.552,0 1,-0.447 1,-1 0,-0.553 -0.448,-1 -1,-1 h -1 c -0.552,0 -1,0.447 -1,1 0,0.553 0.448,1 1,1 z"
   id="path20"
   inkscape:connector-curvature="0" />
		<path
   style="fill:#d4c3a5"
   d="M 28.29,37.29 C 28.11,37.479 28,37.729 28,38 c 0,0.27 0.11,0.52 0.29,0.71 0.19,0.18 0.45,0.29 0.71,0.29 0.26,0 0.52,-0.11 0.71,-0.29 C 29.89,38.52 30,38.26 30,38 c 0,-0.26 -0.11,-0.521 -0.29,-0.71 -0.38,-0.37 -1.05,-0.37 -1.42,0 z"
   id="path22"
   inkscape:connector-curvature="0" />
	</g>
	<rect
   x="23"
   style="fill:#f4d5bd"
   width="12"
   height="16"
   id="rect26"
   y="0" />
	<polygon
   style="fill:#d8b18b"
   points="23,16 23,23 25,21 29,25 33,21 35,23 35,16 "
   id="polygon28" />
</g></svg>