<?xml version="1.0" encoding="UTF-8" standalone="no"?>
<!-- Generator: Adobe Illustrator 18.0.0, SVG Export Plug-In . SVG Version: 6.00 Build 0)  -->

<svg
   xmlns:dc="http://purl.org/dc/elements/1.1/"
   xmlns:cc="http://creativecommons.org/ns#"
   xmlns:rdf="http://www.w3.org/1999/02/22-rdf-syntax-ns#"
   xmlns:svg="http://www.w3.org/2000/svg"
   xmlns="http://www.w3.org/2000/svg"
   xmlns:sodipodi="http://sodipodi.sourceforge.net/DTD/sodipodi-0.dtd"
   xmlns:inkscape="http://www.inkscape.org/namespaces/inkscape"
   version="1.1"
   id="Capa_1"
   x="0px"
   y="0px"
   viewBox="0 0 120 60"
   xml:space="preserve"
   sodipodi:docname="parcel-ar21.svg"
   width="120"
   height="60"
   inkscape:version="0.92.3 (2405546, 2018-03-11)"><metadata
   id="metadata67"><rdf:RDF><cc:Work
       rdf:about=""><dc:format>image/svg+xml</dc:format><dc:type
         rdf:resource="http://purl.org/dc/dcmitype/StillImage" /><dc:title></dc:title></cc:Work></rdf:RDF></metadata><defs
   id="defs65" /><sodipodi:namedview
   pagecolor="#ffffff"
   bordercolor="#666666"
   borderopacity="1"
   objecttolerance="10"
   gridtolerance="10"
   guidetolerance="10"
   inkscape:pageopacity="0"
   inkscape:pageshadow="2"
   inkscape:window-width="1920"
   inkscape:window-height="1001"
   id="namedview63"
   showgrid="false"
   inkscape:zoom="5.7543862"
   inkscape:cx="87.490302"
   inkscape:cy="-3.5178017"
   inkscape:window-x="-9"
   inkscape:window-y="-9"
   inkscape:window-maximized="1"
   inkscape:current-layer="Capa_1" />

<g
   id="g32"
   transform="translate(0,2)">
</g>
<g
   id="g34"
   transform="translate(0,2)">
</g>
<g
   id="g36"
   transform="translate(0,2)">
</g>
<g
   id="g38"
   transform="translate(0,2)">
</g>
<g
   id="g40"
   transform="translate(0,2)">
</g>
<g
   id="g42"
   transform="translate(0,2)">
</g>
<g
   id="g44"
   transform="translate(0,2)">
</g>
<g
   id="g46"
   transform="translate(0,2)">
</g>
<g
   id="g48"
   transform="translate(0,2)">
</g>
<g
   id="g50"
   transform="translate(0,2)">
</g>
<g
   id="g52"
   transform="translate(0,2)">
</g>
<g
   id="g54"
   transform="translate(0,2)">
</g>
<g
   id="g56"
   transform="translate(0,2)">
</g>
<g
   id="g58"
   transform="translate(0,2)">
</g>
<g
   id="g60"
   transform="translate(0,2)">
</g>
<g
   id="g115"
   transform="matrix(0.9684112,0,0,0.9684112,-0.2706362,0.94766385)"><g
     transform="matrix(0.48494335,0,0,0.48494335,7.1045371,15.936643)"
     id="g30">
	<polygon
   id="polygon2"
   points="58,16 48,0 10,0 0,16 0,58 58,58 "
   style="fill:#a98258" />
	<polygon
   id="polygon4"
   points="0,16 58,16 48,0 10,0 "
   style="fill:#daae86" />
	<polygon
   id="polygon6"
   points="23,52 23,58 35,58 35,52 33,54 29,50 25,54 "
   style="fill:#d8b18b" />
	<rect
   id="rect8"
   height="16"
   width="18"
   style="fill:#e8d5b2"
   y="30"
   x="20" />
	<g
   id="g24">
		<path
   inkscape:connector-curvature="0"
   id="path10"
   d="m 30,41 h -6 c -0.552,0 -1,0.447 -1,1 0,0.553 0.448,1 1,1 h 6 c 0.552,0 1,-0.447 1,-1 0,-0.553 -0.448,-1 -1,-1 z"
   style="fill:#d4c3a5" />
		<path
   inkscape:connector-curvature="0"
   id="path12"
   d="m 34,41 h -1 c -0.552,0 -1,0.447 -1,1 0,0.553 0.448,1 1,1 h 1 c 0.552,0 1,-0.447 1,-1 0,-0.553 -0.448,-1 -1,-1 z"
   style="fill:#d4c3a5" />
		<path
   inkscape:connector-curvature="0"
   id="path14"
   d="m 28,35 h 6 c 0.552,0 1,-0.447 1,-1 0,-0.553 -0.448,-1 -1,-1 h -6 c -0.552,0 -1,0.447 -1,1 0,0.553 0.448,1 1,1 z"
   style="fill:#d4c3a5" />
		<path
   inkscape:connector-curvature="0"
   id="path16"
   d="m 34,37 h -2 c -0.552,0 -1,0.447 -1,1 0,0.553 0.448,1 1,1 h 2 c 0.552,0 1,-0.447 1,-1 0,-0.553 -0.448,-1 -1,-1 z"
   style="fill:#d4c3a5" />
		<path
   inkscape:connector-curvature="0"
   id="path18"
   d="m 24,39 h 2 c 0.552,0 1,-0.447 1,-1 0,-0.553 -0.448,-1 -1,-1 h -2 c -0.552,0 -1,0.447 -1,1 0,0.553 0.448,1 1,1 z"
   style="fill:#d4c3a5" />
		<path
   inkscape:connector-curvature="0"
   id="path20"
   d="m 24,35 h 1 c 0.552,0 1,-0.447 1,-1 0,-0.553 -0.448,-1 -1,-1 h -1 c -0.552,0 -1,0.447 -1,1 0,0.553 0.448,1 1,1 z"
   style="fill:#d4c3a5" />
		<path
   inkscape:connector-curvature="0"
   id="path22"
   d="M 28.29,37.29 C 28.11,37.479 28,37.729 28,38 c 0,0.27 0.11,0.52 0.29,0.71 0.19,0.18 0.45,0.29 0.71,0.29 0.26,0 0.52,-0.11 0.71,-0.29 C 29.89,38.52 30,38.26 30,38 c 0,-0.26 -0.11,-0.521 -0.29,-0.71 -0.38,-0.37 -1.05,-0.37 -1.42,0 z"
   style="fill:#d4c3a5" />
	</g>
	<rect
   y="0"
   id="rect26"
   height="16"
   width="12"
   style="fill:#f4d5bd"
   x="23" />
	<polygon
   id="polygon28"
   points="35,23 35,16 23,16 23,23 25,21 29,25 33,21 "
   style="fill:#d8b18b" />
</g><g
     transform="matrix(0.97814556,0,0,0.97814556,-37.550869,-12.817959)"
     id="g91"><path
       inkscape:connector-curvature="0"
       d="m 88.60832,35.910264 c 1.835013,0 3.102028,1.26705 3.102028,3.10206 v 3.97587 c 0,1.83501 -1.267015,3.10207 -3.102028,3.10207 h -4.89338 v 5.54877 h -3.14576 v -15.72877 z m 1.747615,3.40791 c 0,-1.35441 -0.786448,-2.14086 -2.140858,-2.14086 H 81.92359 v 13.19466 h 0.436903 v -5.54877 h 5.854584 c 1.35441,0 2.140858,-0.78641 2.140858,-2.14085 z m -2.140858,-1.70396 c 1.092296,0 1.703955,0.6117 1.703955,1.70396 v 3.36418 c 0,1.09229 -0.611659,1.70395 -1.703955,1.70395 h -5.854584 v -6.77209 z m -0.393208,5.50507 c 0.480603,0 0.742753,-0.26214 0.742753,-0.74275 v -2.75252 c 0,-0.4806 -0.26215,-0.74275 -0.742753,-0.74275 H 83.71494 v 4.23802 z"
       id="path4"
       style="fill:#a98258;fill-opacity:1;stroke-width:0.07281739" /><path
       inkscape:connector-curvature="0"
       d="m 95.139804,51.639034 h -3.254987 l 5.06817,-15.72877 h 3.670023 l 5.06817,15.72877 h -3.38608 l -1.0267,-3.53904 h -5.089997 z m 8.694466,-1.26706 -4.041369,-13.19466 h -2.009803 l -4.106929,13.19466 h 0.415073 l 1.092259,-3.53896 h 7.165329 l 1.07036,3.53896 z m -5.789024,-12.75776 -2.730686,8.78189 h 6.90314 l -2.68695,-8.78189 z m 0.720887,1.74765 1.660257,5.76719 h -3.364178 z"
       id="path6"
       style="fill:#a98258;fill-opacity:1;stroke-width:0.07281739" /><path
       inkscape:connector-curvature="0"
       d="m 115.97991,51.639034 -2.53403,-5.83276 h -2.53411 v 5.83276 h -3.14572 v -15.72877 h 8.01731 c 1.83501,0 3.10199,1.26705 3.10199,3.10206 v 3.69189 c 0,1.48547 -0.83008,2.5996 -2.14079,2.97097 l 2.62143,5.96385 z m 1.37627,-1.26706 -2.53403,-5.81092 h 0.56797 c 1.35444,0 2.14086,-0.78641 2.14086,-2.14082 v -3.10206 c 0,-1.35441 -0.78642,-2.14086 -2.14086,-2.14086 h -6.26962 v 13.19466 h 0.4369 v -5.81092 h 4.80595 l 2.5341,5.81092 z m -0.26211,-7.95174 c 0,1.09226 -0.61169,1.70392 -1.70395,1.70392 h -5.83272 v -6.50994 h 5.83272 c 1.09226,0 1.70395,0.6117 1.70395,1.70396 z m -2.0972,0.45874 c 0.48064,0 0.74275,-0.26215 0.74275,-0.74276 v -2.5122 c 0,-0.4806 -0.26211,-0.74275 -0.74275,-0.74275 h -4.0851 v 3.99771 z"
       id="path8"
       style="fill:#a98258;fill-opacity:1;stroke-width:0.07281739" /><path
       inkscape:connector-curvature="0"
       d="m 129.63303,39.536624 c 0,-0.4806 -0.26212,-0.74275 -0.74276,-0.74275 h -3.40784 c -0.48063,0 -0.74275,0.26215 -0.74275,0.74275 v 8.47604 c 0,0.48057 0.26212,0.74268 0.74275,0.74268 h 3.40785 c 0.48064,0 0.74275,-0.26211 0.74275,-0.74268 v -1.9224 h 3.1458 v 2.5341 c 0,1.83494 -1.26706,3.10199 -3.10207,3.10199 h -4.98081 c -1.83501,0 -3.10199,-1.26705 -3.10199,-3.10199 v -9.6994 c 0,-1.83505 1.26698,-3.10206 3.10199,-3.10206 h 4.98081 c 1.83501,0 3.10206,1.26701 3.10206,3.10206 v 2.53407 h -3.14579 z m -0.34951,-2.00977 c 1.09226,0 1.70395,0.61166 1.70395,1.70392 v 1.0049 h 0.43691 v -1.0049 c 0,-1.35441 -0.78642,-2.14086 -2.14086,-2.14086 h -4.19433 c -1.35437,0 -2.14086,0.78645 -2.14086,2.14086 v 9.08767 c 0,1.35445 0.78649,2.14086 2.14086,2.14086 h 4.19433 c 1.35444,0 2.14086,-0.78641 2.14086,-2.14086 v -0.96113 h -0.43691 v 0.96113 c 0,1.09233 -0.61169,1.70396 -1.70395,1.70396 h -4.19433 c -1.09226,0 -1.70395,-0.61163 -1.70395,-1.70396 v -9.08767 c 0,-1.09226 0.61169,-1.70392 1.70395,-1.70392 z"
       id="path10-1"
       style="fill:#a98258;fill-opacity:1;stroke-width:0.07281739" /><path
       inkscape:connector-curvature="0"
       d="m 145.86377,35.910264 v 2.971 h -7.1435 v 3.23312 h 5.78905 v 2.97097 h -5.78905 v 3.58267 h 7.1435 v 2.971 h -10.28923 v -15.72876 z m -1.35445,14.46171 v -0.4369 h -7.14343 v -6.11673 h 5.78906 v -0.43694 h -5.78906 v -5.76719 h 7.14343 v -0.4369 h -7.58033 v 13.19466 z"
       id="path12-7"
       style="fill:#a98258;fill-opacity:1;stroke-width:0.07281739" /><path
       inkscape:connector-curvature="0"
       d="m 151.78353,35.910264 v 12.75776 h 6.59736 v 2.97101 h -9.74309 v -15.72877 z m 5.24292,14.46171 v -0.4369 h -6.5973 v -12.75776 h -0.43691 v 13.19466 z"
       id="path14-5"
       style="fill:#a98258;fill-opacity:1;stroke-width:0.07281739" /></g></g></svg>