<svg xmlns="http://www.w3.org/2000/svg" viewBox="-45 168 64 64" width="64" height="64" fill="#1b85bc"><path d="M-32.762 214.222v-12.568c0-2.8-1.82-3.804-3.473-3.804s-3.556.9-3.556 3.804v12.568H-45v-20.837h5.127v1.984c1.406-1.488 3.307-2.15 5.2-2.15 2.15 0 3.72.66 4.96 1.902 1.736 1.736 2.15 3.638 2.15 5.953v13.395h-5.292m4.795-19.513c1.57 2.067 1.82 4.217 1.82 6.036v13.395h3.556v-21.003h-5.2l-.165 1.57m-.083-5.207h5.292v-4.217h-5.292zm19.928 5.293c-1.158-1.158-2.8-1.902-4.96-1.902-1.984 0-3.804.662-5.2 2.15v-1.902H-21.6v20.837h3.4v-12.568c0-2.8 1.902-3.804 3.556-3.804s3.473.9 3.473 3.804v12.568h5.2V200.9c-.165-2.233-.496-4.134-2.233-5.87m3.307 6.872c0-.827.165-1.488.496-2.233.58-1.24 1.736-2.15 3.556-2.15s2.894.827 3.556 2.15c.33.662.413 1.323.496 2.233zm13.147 1.24c0-5.705-3.307-10.005-9.178-10.005-2.15 0-4.134.662-5.705 1.902 1.488 1.984 1.736 4.134 1.736 5.87v12.734c1.406.58 2.894.744 4.548.744 3.72 0 5.788-1.158 7.938-3.308l-3.225-3.06c-1.323 1.323-2.398 1.985-4.713 1.985-2.894 0-4.548-1.985-4.548-4.63H8.25zm4.466-1.572l-3.307-.33c.083.58.083 1.24.083 1.902v2.563l2.15.165c1.654.165 2.15.827 2.15 1.984 0 1.57-1.902 2.15-3.638 2.15-.58 0-1.323 0-2.067-.165l1.406 1.323-.827.827c-.744.744-1.57 1.488-2.48 2.067 1.323.248 2.563.33 3.97.33 4.96 0 8.848-2.15 8.848-6.78-.083-3.473-2.233-5.623-6.284-6.036m-4.22-3.802c.413-.165 1.075-.33 1.736-.33 1.82 0 3.638.33 4.88 1.406l3.225-3.308c-2.067-1.902-4.713-2.398-7.938-2.398-1.654 0-3.225.33-4.465.9.992 1.075 1.902 2.233 2.563 3.72"/></svg>