<?xml version="1.0" encoding="UTF-8" standalone="no"?>
<svg
   xmlns:dc="http://purl.org/dc/elements/1.1/"
   xmlns:cc="http://creativecommons.org/ns#"
   xmlns:rdf="http://www.w3.org/1999/02/22-rdf-syntax-ns#"
   xmlns:svg="http://www.w3.org/2000/svg"
   xmlns="http://www.w3.org/2000/svg"
   xmlns:xlink="http://www.w3.org/1999/xlink"
   xmlns:sodipodi="http://sodipodi.sourceforge.net/DTD/sodipodi-0.dtd"
   xmlns:inkscape="http://www.inkscape.org/namespaces/inkscape"
   width="64"
   height="64"
   version="1.1"
   id="svg3797"
   sodipodi:docname="mercurial-icon.svg"
   inkscape:version="0.92.2 5c3e80d, 2017-08-06">
  <metadata
     id="metadata3801">
    <rdf:RDF>
      <cc:Work
         rdf:about="">
        <dc:format>image/svg+xml</dc:format>
        <dc:type
           rdf:resource="http://purl.org/dc/dcmitype/StillImage" />
        <dc:title>Mercurial</dc:title>
      </cc:Work>
    </rdf:RDF>
  </metadata>
  <sodipodi:namedview
     pagecolor="#ffffff"
     bordercolor="#666666"
     borderopacity="1"
     objecttolerance="10"
     gridtolerance="10"
     guidetolerance="10"
     inkscape:pageopacity="0"
     inkscape:pageshadow="2"
     inkscape:window-width="1446"
     inkscape:window-height="863"
     id="namedview3799"
     showgrid="false"
     showguides="false"
     inkscape:zoom="7.5660426"
     inkscape:cx="56.533388"
     inkscape:cy="28.784361"
     inkscape:window-x="0"
     inkscape:window-y="0"
     inkscape:window-maximized="0"
     inkscape:current-layer="svg3797" />
  <title
     id="title3770">Mercurial</title>
  <defs
     id="defs3779">
    <g
       id="hg">
      <path
         d="M 85.685,67.399 C 100.47,42.815 82.562,2.944 49.818,6.995 20.233,10.652 19.757,41.792 45.83,49.189 c 22.563,6.408 4.661,20.72 5.184,30.25 0.526,9.529 19.616,12.986 34.671,-12.04"
         id="path3772"
         inkscape:connector-curvature="0" />
      <circle
         cx="31.579"
         cy="70.616997"
         r="12.838"
         id="circle3774" />
      <circle
         cx="16.913"
         cy="43.476002"
         r="8.3999996"
         id="circle3776" />
    </g>
  </defs>
  <use
     xlink:href="#hg"
     style="fill:#1b1b1b"
     id="use3783"
     x="0"
     y="0"
     width="100%"
     height="100%"
     transform="matrix(0.77132512,0,0,0.77132512,-6.5662912,-3.5944913)" />
  <use
     xlink:href="#hg"
     style="fill:#bfbfbf"
     transform="matrix(0.77132512,0,0,0.77132512,-6.1351206,-4.3635023)"
     id="use3785"
     x="0"
     y="0"
     width="100%"
     height="100%" />
  <path
     style="fill:#000000;stroke-width:0.77132511"
     d="m 36.139667,59.81229 c -0.691107,-1.121506 0.365608,-2.366424 1.452405,-2.271552 1.729312,0.151184 5.494149,-0.02083 8.465294,-1.704629 C 53.479056,51.628531 64.901609,31.38356 59.156781,18.614273 56.585182,12.898753 55.33255,11.262001 52.683819,8.4659486 52.143893,7.895939 52.453965,7.9267918 52.819579,8.1196238 c 1.432351,0.7512704 3.949186,3.6630222 6.53081,8.4020452 4.361844,8.006353 4.135846,17.524505 2.513748,23.495334 -1.12999,4.153586 -5.022868,13.550639 -10.722961,17.613208 -5.712434,4.071826 -12.397509,6.407399 -15.001502,2.182079 M 30.967933,33.538643 c -3.88825,-1.153902 -8.901091,-2.761344 -11.800503,-6.55395 -2.138113,-2.796824 -3.222596,-5.848186 -3.500273,-7.57904 -0.09795,-0.617832 -0.182034,-1.132306 -0.0038,-1.275 0.08176,-0.06557 1.595872,3.356035 3.858941,6.223822 2.262296,2.868559 5.424729,4.546191 8.059576,5.155536 2.343284,0.541471 7.197233,1.732397 8.839385,3.13081 1.688431,1.438521 1.829583,4.545419 1.261117,4.896371 -0.573094,0.352496 -1.73471,-2.52069 -6.714386,-3.998549 M 12.328877,57.319368 c 7.700141,7.134757 19.290072,-2.665699 14.186985,-11.323053 -0.573096,-0.97187 -1.317424,-1.711571 -1.072913,-0.967241 1.631352,4.978131 0.124176,8.915747 -2.688069,10.944331 -2.757486,1.990019 -6.547006,2.322461 -9.581402,0.749728 -0.89088,-0.462024 -1.260345,0.211344 -0.844601,0.596235 M 3.346008,34.09631 c 0.04011,0.458168 0.666424,1.045917 1.651406,1.315882 0.846144,0.232168 3.027452,0.824546 5.829676,-0.944102 2.801452,-1.767877 3.124638,-6.498415 1.85118,-7.889885 -0.394147,-0.704991 -0.907078,-1.217922 -0.499048,-0.09333 1.030492,2.840019 -0.971868,5.496462 -2.698865,6.726726 C 7.754902,34.441864 5.56511,33.859513 4.671144,33.587236 3.77795,33.314187 3.305899,33.623496 3.346008,34.09631"
     id="path3787"
     inkscape:connector-curvature="0" />
  <path
     style="fill:#ffffff;stroke-width:0.77132511"
     d="m 38.985858,60.359931 c -0.07482,0.890109 0.947187,1.064429 2.32323,0.858485 1.764021,-0.264565 3.255763,-0.462795 5.285891,-1.480173 2.751317,-1.379129 5.5358,-3.351408 7.574413,-6.01248 6.084984,-7.938477 8.239294,-17.330904 7.907625,-18.681494 -0.111072,1.115337 -1.579673,6.972779 -4.938795,12.252501 -4.314792,6.783032 -7.443288,10.395148 -14.658262,12.146827 -2.008531,0.487478 -3.395373,-0.255309 -3.494102,0.916334 M 22.983174,29.491501 c 0.821463,0.697277 2.505264,1.625952 5.818106,2.71275 4.001635,1.312024 5.950002,2.449728 6.766064,2.994283 0.864656,0.579266 1.412296,1.871236 1.46629,0.723503 0.05707,-1.148503 -0.650999,-2.135799 -2.230672,-2.660299 -1.069058,-0.35481 -2.867016,-1.199412 -4.590928,-1.539565 -1.107623,-0.219058 -2.909439,-0.652541 -4.454402,-1.126135 -0.846915,-0.259937 -1.710029,-0.71579 -2.774458,-1.104537 m -4.612523,29.293384 c 0.980354,-0.205944 6.68276,-1.683031 8.021781,-6.372688 0.417286,-1.462432 0.492106,-1.168557 0.374093,-0.376407 -0.601634,4.044058 -4.423549,7.026772 -7.676227,7.137844 -0.660255,0.06787 -1.526453,-0.219829 -0.719647,-0.388749 M 6.961979,34.731883 c 0.256851,-0.231398 1.557306,-0.136528 2.731263,-0.76824 1.173185,-0.630944 2.566969,-2.013929 2.816108,-3.980038 0.146544,-1.154674 0.190517,-0.864655 0.249138,-0.236024 -0.182034,3.268104 -3.187886,5.073776 -4.906398,5.312115 -0.46434,0.06402 -1.2804,0.02469 -0.890111,-0.327813"
     id="path3789"
     inkscape:connector-curvature="0" />
  <path
     style="fill:#999999;stroke-width:0.77132511"
     d="M 58.3762,35.304206 C 63.231691,21.308512 53.071026,0.17188965 32.51444,2.7149486 13.94093,5.0111838 13.640883,24.560419 30.009947,29.205339 48.551832,32.01219 37.386901,45.9994 35.80337,53.053168 34.38336,59.37572 50.787131,60.416238 58.3762,35.304206 M 11.930085,55.307752 c 1.162387,0.02005 1.865835,0.183574 3.043649,1.009664 2.32786,0.967242 6.607172,0.35481 8.582536,-2.24687 1.976135,-2.600908 2.040925,-6.185256 1.288112,-8.351136 -1.841153,-5.299776 -9.665475,-5.206445 -13.16035,-0.806036 -3.781035,4.914112 -0.917106,10.375095 0.246053,10.394378 M 1.544192,30.745675 c 0.231398,0.730445 0.823776,1.795645 2.074866,1.97305 1.669918,0.236797 2.011614,0.991923 3.983892,0.600091 1.972279,-0.391834 3.467108,-2.00776 4.064884,-3.795691 C 12.352771,27.049485 11.32768,25.772942 9.784258,24.632152 8.240837,23.492133 4.846235,23.614774 2.819963,25.461326 1.379899,26.77335 0.97958199,28.968542 1.544192,30.745675"
     id="path3791"
     inkscape:connector-curvature="0" />
  <path
     style="fill:#f3f3f3;stroke-width:0.77132511"
     d="m 45.670933,46.236197 c -5.022871,-0.620917 -12.250957,10.719877 -5.43553,9.391654 6.814658,-1.327449 -6.815427,1.328223 0,0 3.275819,-0.485934 5.990112,-1.642921 8.419015,-4.415835 3.167832,-3.615202 7.899912,-11.423326 9.269014,-16.468563 1.15236,-4.253858 0.573094,-10.844831 -0.615518,-4.652634 -1.218693,6.35572 -6.613341,16.767066 -11.636981,16.145378 m -26.189575,9.449504 c 1.293514,-0.338611 5.254268,-1.949911 4.50994,-7.708623 -0.376408,-2.91638 -1.96688,3.619829 -4.913343,4.597869 -4.462886,1.480944 -3.961525,4.253858 0.403403,3.110754 M 8.10277,32.381656 c 1.515654,-0.396462 3.519556,-2.461299 2.524547,-4.037888 -1.227178,-1.942197 -4.647234,-0.27999 -4.762933,1.882805 -0.115696,2.163566 0.632486,2.575454 2.238386,2.155083"
     id="path3793"
     inkscape:connector-curvature="0" />
</svg>
