<?xml version="1.0" encoding="UTF-8" standalone="no"?>
<!-- Generator: Adobe Illustrator 16.0.0, SVG Export Plug-In . SVG Version: 6.00 Build 0)  -->

<svg
   xmlns:dc="http://purl.org/dc/elements/1.1/"
   xmlns:cc="http://creativecommons.org/ns#"
   xmlns:rdf="http://www.w3.org/1999/02/22-rdf-syntax-ns#"
   xmlns:svg="http://www.w3.org/2000/svg"
   xmlns="http://www.w3.org/2000/svg"
   xmlns:sodipodi="http://sodipodi.sourceforge.net/DTD/sodipodi-0.dtd"
   xmlns:inkscape="http://www.inkscape.org/namespaces/inkscape"
   version="1.1"
   id="Layer_1"
   x="0px"
   y="0px"
   width="120"
   height="60"
   viewBox="0 0 120 60"
   enable-background="new 0 0 1024 1024"
   xml:space="preserve"
   sodipodi:docname="snapchat-ar21.svg"
   inkscape:version="0.92.2 (5c3e80d, 2017-08-06)"><metadata
     id="metadata11"><rdf:RDF><cc:Work
         rdf:about=""><dc:format>image/svg+xml</dc:format><dc:type
           rdf:resource="http://purl.org/dc/dcmitype/StillImage" /><dc:title></dc:title></cc:Work></rdf:RDF></metadata><defs
     id="defs9"><radialGradient
       cx="24"
       cy="-433.15894"
       gradientTransform="matrix(35.647446,0,0,-35.647446,-209.19664,-17174.192)"
       gradientUnits="userSpaceOnUse"
       id="SVGID_1_"
       r="8.7585201"><stop
         offset="0.09184"
         style="stop-color:#FAF707"
         id="stop2" /><stop
         offset="0.72959"
         style="stop-color:#FFFC00"
         id="stop4" /></radialGradient><radialGradient
       r="8.7585201"
       id="radialGradient857"
       gradientUnits="userSpaceOnUse"
       gradientTransform="matrix(1,0,0,-1,0,-414)"
       cy="-433.15894"
       cx="24"><stop
         id="stop853"
         style="stop-color:#FAF707"
         offset="0.09184" /><stop
         id="stop855"
         style="stop-color:#FFFC00"
         offset="0.72959" /></radialGradient></defs><sodipodi:namedview
     pagecolor="#ffffff"
     bordercolor="#666666"
     borderopacity="1"
     objecttolerance="10"
     gridtolerance="10"
     guidetolerance="10"
     inkscape:pageopacity="0"
     inkscape:pageshadow="2"
     inkscape:window-width="1920"
     inkscape:window-height="1001"
     id="namedview7"
     showgrid="false"
     inkscape:zoom="2.6074563"
     inkscape:cx="67.727738"
     inkscape:cy="57.169135"
     inkscape:window-x="-9"
     inkscape:window-y="-9"
     inkscape:window-maximized="1"
     inkscape:current-layer="Layer_1" /><g
     id="g923"
     transform="translate(-0.63393402)"><g
       transform="matrix(0.03263518,0,0,0.03263518,3.4516399,44.751101)"
       id="g909"><path
         d="m 519.13,-783.21 c 27.04,0 54.42,5.88 79.08,16.94 40.83,18.31 74.18,52.87 90.69,94.6 9.449,23.89 9.729,51.4 9.51,76.72 -0.13,14.61 -0.82,29.2 -1.66,43.78 -0.43,7.33 -0.89,14.65 -1.35,21.979 -0.25,4.021 -0.5,8.04 -0.74,12.061 -0.15,2.59 -1.05,6.09 -0.48,8.64 1.25,5.61 10.15,9.351 15.061,10.9 12.97,4.08 26.53,1.14 39.01,-3.311 7.44,-2.649 14.141,-7.09 22.3,-6.34 5.91,0.54 12.761,3.181 16.971,7.46 4.42,4.5 3.489,8.94 -0.311,13.25 -7.22,8.19 -19.14,12.851 -29.22,16.17 -11.04,3.63 -22.24,6.86 -32.53,12.391 -10.14,5.45 -19.5,13.29 -23.5,24.42 -4.649,12.939 -0.77,26.1 4.7,38.08 9.29,20.35 21.36,39.42 35.47,56.78 26.38,32.46 60.86,58.789 101.3,70.8 5.94,1.76 11.961,3.22 18.051,4.359 2.58,0.48 4.25,-0.109 3.34,2.641 -0.12,0.35 -0.36,0.68 -0.54,0.989 -1.351,2.261 -3.561,4.07 -5.66,5.601 -11.92,8.72 -27.62,12.729 -41.7,16.18 -6.66,1.64 -13.38,3.05 -20.12,4.32 -6.699,1.26 -14.859,1.29 -21.12,4.01 -10.449,4.53 -12.01,20.12 -14.14,29.74 -0.83,3.76 -1.689,7.51 -2.689,11.229 -0.891,3.301 -0.62,4.99 -4.141,5.04 -6.04,0.101 -12.12,-1.5 -18.02,-2.59 -13.891,-2.56 -27.98,-3.93 -42.11,-3.59 -15.439,0.37 -31.21,2.149 -45.56,8.12 -13.73,5.72 -26.011,14.35 -38.101,22.88 -21.13,14.91 -42.59,29.7 -68.27,35.39 -12.87,2.851 -26.181,3.15 -39.311,2.73 -14,-0.45 -27.79,-3.36 -40.779,-8.57 -24.771,-9.939 -44.92,-27.53 -67.271,-41.61 -12.7,-8 -26.189,-14.34 -41.11,-16.68 -15.829,-2.49 -31.92,-2.99 -47.859,-1.29 -6.19,0.66 -12.33,1.641 -18.45,2.79 -5.99,1.12 -12.47,3.24 -18.6,3 -2.89,-0.12 -2.92,-0.99 -3.69,-3.7 -1.13,-4.029 -2.06,-8.109 -2.96,-12.199 -1.38,-6.25 -2.54,-12.65 -4.79,-18.66 -1.76,-4.7 -4.36,-9.49 -9.07,-11.761 -6.02,-2.899 -14.26,-2.84 -20.8,-4.069 -12.18,-2.28 -24.33,-4.98 -36.16,-8.721 -10.16,-3.21 -22.41,-7.119 -30.06,-15.039 -0.73,-0.75 -1.45,-1.551 -1.99,-2.45 -0.18,-0.29 -0.43,-0.61 -0.53,-0.94 -0.83,-2.55 0.16,-2.2 2.65,-2.66 11.77,-2.159 23.31,-5.489 34.41,-9.949 20.32,-8.141 39.02,-19.98 55.57,-34.271 24.28,-20.95 44.38,-47.03 59.37,-75.35 5.12,-9.681 10.62,-20.271 12.351,-31.08 4.35,-27.141 -17.99,-42.5 -40.51,-50.69 -11.96,-4.35 -24.29,-7.33 -35.45,-13.67 -5.09,-2.89 -14.98,-8.66 -14.21,-15.87 0.58,-5.479 7.36,-9.18 11.89,-10.88 3.07,-1.15 6.44,-1.9 9.74,-1.72 3.97,0.22 7.37,2.319 10.99,3.8 13.15,5.39 27.86,9.23 42.14,7.01 7.14,-1.109 14.54,-3.819 19.69,-9.08 1.239,-1.27 1.699,-1.8 1.979,-3.34 0.51,-2.84 -0.37,-6.63 -0.53,-9.47 -0.449,-7.58 -0.939,-15.16 -1.409,-22.74 -1.79,-28.91 -3.521,-58.05 -1.37,-86.99 0.92,-12.41 2.54,-24.93 6.159,-36.87 3.601,-11.86 9.631,-23.12 16.091,-33.65 11.909,-19.4 27.38,-36.53 45.81,-49.93 27.01,-19.65 59.62,-30.92 92.76,-34.08 10.548,-1.01 21.188,-0.99 31.788,-0.99 M 0,-103.84 C 0,-13.36 73.36,60 163.84,60 H 860.16 C 950.639,60 1024,-13.36 1024,-103.84 V -800.16 C 1024,-890.64 950.64,-964 860.16,-964 H 163.84 C 73.36,-964 0,-890.64 0,-800.16 v 696.32"
         id="path2"
         inkscape:connector-curvature="0" /><path
         d="m 19.2,-800.16 c 0,-79.87 64.77,-144.64 144.64,-144.64 h 696.32 c 79.87,0 144.64,64.77 144.64,144.64 v 696.32 c 0,79.87 -64.77,144.64 -144.64,144.64 H 163.84 C 83.97,40.8 19.2,-23.97 19.2,-103.84 v -696.32 m 499.93,1.66 c -24.47,0.11 -48.229,1.61 -71.93,8.33 -37.79,10.72 -71.88,32.26 -96.65,62.9 -15.35,18.98 -28.689,41.56 -34.43,65.45 -6.39,26.62 -6.34,54.7 -5.5,81.9 0.439,14.37 1.28,28.72 2.18,43.07 0.22,3.47 0.44,6.93 0.66,10.39 0.15,2.33 1.84,11.16 0.45,12.75 -2.9,3.3 -12.12,3.07 -15.87,2.93 -6.73,-0.25 -13.37,-1.85 -19.72,-4.01 -6.93,-2.36 -13.48,-6.55 -20.87,-7.27 -11.58,-1.12 -24.4,3.68 -32.39,12.13 -13.58,14.37 -4.97,31.33 9.05,41.069 11.32,7.86 24.27,11.98 37.22,16.24 10.71,3.521 22.5,7.59 30.67,15.7 11.93,11.84 5.25,27.439 -1.05,40.38 -4.91,10.08 -10.64,19.771 -16.89,29.08 -21.29,31.68 -49.68,59.53 -84.47,75.94 -10.48,4.939 -21.46,8.8 -32.75,11.439 -5.54,1.3 -12.28,1.38 -17.04,4.74 -5.18,3.66 -7.31,9.979 -6.09,16.1 3.11,15.59 21.79,23.7 34.96,28.601 11.63,4.33 23.73,7.39 35.85,9.949 7.39,1.561 14.83,2.921 22.28,4.141 3.64,0.6 5.3,0.35 6.63,3.87 1.03,2.72 1.69,5.58 2.37,8.41 1.66,6.949 2.99,13.97 4.89,20.85 1.25,4.52 2.88,8.82 6.69,11.82 9.86,7.76 25.46,1.77 36.42,-0.181 29.261,-5.2 61.15,-5.02 87.5,10.141 22.89,13.161 42.65,30.991 66.6,42.441 25.47,12.181 53.62,15.69 81.6,13.09 26.21,-2.439 49.91,-13.199 71.66,-27.55 23.75,-15.67 45.59,-35.56 74.78,-39.52 15.89,-2.15 31.989,-2.03 47.859,0.18 11,1.53 22.44,5.37 33.62,4.4 15.17,-1.33 16.76,-17.841 19.391,-29.79 1.06,-4.811 1.539,-12 4.42,-16.12 1.689,-2.42 6.449,-2.17 9.359,-2.66 4.07,-0.69 8.13,-1.43 12.19,-2.22 21.26,-4.15 44.79,-9.04 63.069,-21.36 5.29,-3.57 10.341,-8.12 12.971,-14.06 2.47,-5.58 2.55,-12.061 -1.17,-17.11 -3.891,-5.29 -9.58,-5.88 -15.551,-7.08 -22.27,-4.479 -43.35,-13.729 -62.09,-26.51 -28.72,-19.58 -52.02,-46.83 -69.39,-76.79 -3.62,-6.24 -6.91,-12.63 -9.92,-19.19 -4.641,-10.119 -8.83,-22.09 -1.61,-32.1 6.65,-9.22 18.67,-13.85 29,-17.48 12.7,-4.46 25.55,-7.939 37.24,-14.859 8.53,-5.05 17.49,-12.19 19.939,-22.311 6.421,-26.59 -31.59,-40.05 -51.35,-31.56 -12.2,5.24 -27.02,11.96 -40.46,7.51 -0.87,-0.29 -2.4,-0.569 -3.04,-1.229 -1.08,-1.11 -0.51,-2.891 -0.41,-4.61 0.23,-3.89 0.48,-7.78 0.721,-11.68 0.369,-6.021 0.76,-12.04 1.119,-18.061 1.681,-28.459 3.051,-57.18 0.461,-85.63 -1.15,-12.64 -3.08,-25.33 -6.961,-37.44 -3.779,-11.81 -9.71,-23.07 -16.08,-33.68 -11.859,-19.77 -27.09,-37.47 -45.22,-51.74 -27.29,-21.48 -60.439,-34.66 -94.68,-39.78 -9.987,-1.51 -20.117,-2.36 -30.237,-2.36 M 273.81,-918.34 c -9.074,0.004 -16.426,7.364 -16.422,16.438 0.004,9.068 7.354,16.417 16.422,16.422 9.074,-0.004 16.426,-7.364 16.422,-16.438 -0.005,-9.068 -7.355,-16.417 -16.422,-16.422 m 52.93,0 c -9.074,0.004 -16.427,7.364 -16.422,16.438 0.005,9.068 7.354,16.417 16.422,16.422 9.074,-0.004 16.426,-7.364 16.422,-16.438 -0.005,-9.068 -7.354,-16.417 -16.422,-16.422 m 158.79,0 c -9.074,0.004 -16.427,7.364 -16.422,16.438 0.005,9.068 7.354,16.417 16.422,16.422 9.074,-0.004 16.426,-7.364 16.422,-16.438 -0.005,-9.068 -7.354,-16.417 -16.422,-16.422 m 52.94,0 c -9.074,0.004 -16.426,7.364 -16.422,16.438 0.005,9.068 7.354,16.417 16.422,16.422 9.074,-0.004 16.427,-7.364 16.422,-16.438 -0.005,-9.068 -7.355,-16.417 -16.422,-16.422 m 211.72,0 c -9.074,0.004 -16.427,7.364 -16.422,16.438 0.004,9.068 7.354,16.417 16.422,16.422 9.073,-0.004 16.426,-7.364 16.421,-16.438 -0.004,-9.068 -7.353,-16.417 -16.421,-16.422 m -635.17,52.93 c -9.074,10e-4 -16.429,7.358 -16.428,16.433 0.001,9.072 7.355,16.426 16.428,16.428 9.074,-10e-4 16.429,-7.358 16.428,-16.433 -0.002,-9.073 -7.356,-16.427 -16.428,-16.428 m 158.79,0 c -9.074,10e-4 -16.429,7.358 -16.428,16.433 10e-4,9.072 7.355,16.426 16.428,16.428 9.074,-10e-4 16.429,-7.358 16.428,-16.433 -0.002,-9.073 -7.356,-16.427 -16.428,-16.428 m 52.93,0 c -9.074,10e-4 -16.429,7.358 -16.428,16.433 10e-4,9.072 7.355,16.426 16.428,16.428 9.074,-10e-4 16.429,-7.358 16.428,-16.433 -0.002,-9.073 -7.356,-16.427 -16.428,-16.428 m 158.79,0 c -9.074,10e-4 -16.429,7.358 -16.428,16.433 0.001,9.072 7.355,16.426 16.428,16.428 9.074,-10e-4 16.429,-7.358 16.428,-16.433 -0.002,-9.073 -7.355,-16.427 -16.428,-16.428 m 52.94,0 c -9.074,10e-4 -16.429,7.358 -16.428,16.433 0.002,9.072 7.355,16.426 16.428,16.428 9.074,-10e-4 16.429,-7.358 16.428,-16.433 -0.002,-9.073 -7.356,-16.427 -16.428,-16.428 m 52.93,0 c -9.074,10e-4 -16.43,7.358 -16.428,16.433 10e-4,9.072 7.355,16.426 16.428,16.428 9.073,-10e-4 16.429,-7.358 16.428,-16.433 -0.002,-9.073 -7.355,-16.427 -16.428,-16.428 m 158.79,0 c -9.074,10e-4 -16.43,7.358 -16.428,16.433 0.001,9.072 7.355,16.426 16.428,16.428 9.073,-10e-4 16.429,-7.358 16.427,-16.433 -10e-4,-9.073 -7.355,-16.427 -16.427,-16.428 m 105.86,0 c -9.074,10e-4 -16.429,7.358 -16.428,16.433 0.002,9.072 7.355,16.426 16.428,16.428 9.074,-10e-4 16.429,-7.358 16.428,-16.433 -10e-4,-9.073 -7.356,-16.427 -16.428,-16.428 m 52.93,0 c -9.074,10e-4 -16.43,7.358 -16.428,16.433 10e-4,9.072 7.355,16.426 16.428,16.428 9.073,-10e-4 16.429,-7.358 16.427,-16.433 -0.001,-9.073 -7.355,-16.427 -16.427,-16.428 m -793.96,52.93 c -9.074,10e-4 -16.429,7.358 -16.428,16.432 0.001,9.072 7.355,16.427 16.428,16.428 9.074,-10e-4 16.429,-7.358 16.428,-16.432 -0.002,-9.073 -7.356,-16.427 -16.428,-16.428 m 52.93,0 c -9.074,10e-4 -16.429,7.358 -16.428,16.432 0.001,9.072 7.355,16.427 16.428,16.428 9.074,-10e-4 16.429,-7.358 16.427,-16.432 -0.001,-9.073 -7.355,-16.427 -16.427,-16.428 m 529.31,0 c -9.074,10e-4 -16.429,7.358 -16.428,16.432 0.002,9.072 7.355,16.427 16.428,16.428 9.074,-10e-4 16.43,-7.358 16.428,-16.432 -10e-4,-9.073 -7.356,-16.427 -16.428,-16.428 m 52.93,0 c -9.074,10e-4 -16.43,7.358 -16.428,16.432 0.001,9.072 7.355,16.427 16.428,16.428 9.073,-10e-4 16.429,-7.358 16.427,-16.432 -10e-4,-9.073 -7.355,-16.427 -16.427,-16.428 m -688.1,52.93 c -9.074,10e-4 -16.429,7.358 -16.427,16.432 0.001,9.072 7.355,16.426 16.427,16.428 9.074,-10e-4 16.429,-7.358 16.428,-16.433 -0.002,-9.071 -7.356,-16.426 -16.428,-16.427 m 211.72,0 c -9.074,10e-4 -16.429,7.358 -16.428,16.432 10e-4,9.072 7.355,16.426 16.428,16.428 9.074,-10e-4 16.429,-7.358 16.428,-16.433 -0.002,-9.071 -7.356,-16.426 -16.428,-16.427 m 476.38,0 c -9.074,10e-4 -16.43,7.358 -16.428,16.432 0.001,9.072 7.355,16.426 16.428,16.428 9.073,-10e-4 16.429,-7.358 16.427,-16.433 -10e-4,-9.071 -7.355,-16.426 -16.427,-16.427 m 105.86,0 c -9.074,10e-4 -16.429,7.358 -16.428,16.432 0.002,9.072 7.355,16.426 16.428,16.428 9.074,-10e-4 16.429,-7.358 16.428,-16.433 -10e-4,-9.071 -7.356,-16.426 -16.428,-16.427 m 52.93,0 c -9.074,10e-4 -16.43,7.358 -16.428,16.432 10e-4,9.072 7.355,16.426 16.428,16.428 9.073,-10e-4 16.429,-7.358 16.427,-16.433 -0.001,-9.071 -7.355,-16.426 -16.427,-16.427 m 52.93,0 c -9.074,10e-4 -16.429,7.358 -16.428,16.432 10e-4,9.072 7.355,16.426 16.428,16.428 9.074,-10e-4 16.429,-7.358 16.428,-16.433 -0.002,-9.071 -7.356,-16.426 -16.428,-16.427 m -741.03,52.93 c -9.074,0.009 -16.423,7.372 -16.414,16.446 0.009,9.062 7.353,16.405 16.414,16.414 9.074,-0.009 16.423,-7.372 16.414,-16.446 -0.009,-9.062 -7.353,-16.405 -16.414,-16.414 m 635.17,0 c -9.074,0.009 -16.423,7.372 -16.414,16.446 0.009,9.062 7.353,16.405 16.414,16.414 9.074,-0.009 16.423,-7.372 16.414,-16.446 -0.009,-9.062 -7.353,-16.405 -16.414,-16.414 m -793.96,52.93 c -9.074,0 -16.43,7.356 -16.43,16.43 0,9.074 7.356,16.43 16.43,16.43 9.074,0 16.43,-7.356 16.43,-16.43 0,-9.074 -7.356,-16.43 -16.43,-16.43 m 52.93,0 c -9.074,0 -16.43,7.356 -16.43,16.43 0,9.074 7.356,16.43 16.43,16.43 9.074,0 16.43,-7.356 16.43,-16.43 0,-9.074 -7.356,-16.43 -16.43,-16.43 v 0 m 158.79,0 c -9.074,0 -16.43,7.356 -16.43,16.43 0,9.074 7.356,16.43 16.43,16.43 9.074,0 16.43,-7.356 16.43,-16.43 0,-9.074 -7.356,-16.43 -16.43,-16.43 m 476.38,0 c -9.074,0 -16.431,7.356 -16.431,16.43 0,9.074 7.356,16.43 16.431,16.43 9.073,0 16.43,-7.356 16.43,-16.43 0,-9.074 -7.356,-16.43 -16.43,-16.43 m 105.86,0 c -9.074,0 -16.43,7.356 -16.43,16.43 0,9.074 7.355,16.43 16.43,16.43 9.075,0 16.431,-7.356 16.431,-16.43 -10e-4,-9.074 -7.357,-16.43 -16.431,-16.43 v 0 m 52.93,0 c -9.074,0 -16.431,7.356 -16.431,16.43 0,9.074 7.356,16.43 16.431,16.43 9.073,0 16.43,-7.356 16.43,-16.43 0,-9.074 -7.356,-16.43 -16.43,-16.43 m -741.03,52.93 c -9.074,0 -16.43,7.355 -16.43,16.43 0,9.075 7.356,16.43 16.43,16.43 9.074,0 16.43,-7.355 16.43,-16.43 0,-9.075 -7.356,-16.43 -16.43,-16.43 m 105.86,0 c -9.074,0 -16.43,7.355 -16.43,16.43 0,9.075 7.356,16.43 16.43,16.43 9.074,0 16.43,-7.355 16.43,-16.43 0,-9.075 -7.356,-16.43 -16.43,-16.43 m 529.31,0 c -9.074,0 -16.43,7.355 -16.43,16.43 0,9.075 7.355,16.43 16.43,16.43 9.075,0 16.43,-7.355 16.43,-16.43 0,-9.075 -7.356,-16.43 -16.43,-16.43 v 0 m 52.93,0 c -9.074,0 -16.43,7.355 -16.43,16.43 0,9.075 7.355,16.43 16.43,16.43 9.075,0 16.431,-7.355 16.431,-16.43 0,-9.075 -7.357,-16.43 -16.431,-16.43 v 0 m 105.86,0 c -9.074,0 -16.43,7.355 -16.43,16.43 0,9.075 7.355,16.43 16.43,16.43 9.075,0 16.43,-7.355 16.43,-16.43 0,-9.075 -7.356,-16.43 -16.43,-16.43 m -899.82,52.93 c -9.074,0.009 -16.423,7.372 -16.414,16.446 0.009,9.062 7.353,16.405 16.414,16.414 9.074,-0.009 16.423,-7.372 16.414,-16.446 -0.009,-9.062 -7.353,-16.405 -16.414,-16.414 m 846.89,0 c -9.074,0.009 -16.424,7.372 -16.414,16.446 0.009,9.062 7.352,16.405 16.414,16.414 9.073,-0.009 16.422,-7.372 16.413,-16.446 -0.008,-9.062 -7.352,-16.405 -16.413,-16.414 m 52.93,0 c -9.074,0.009 -16.423,7.372 -16.414,16.446 0.009,9.062 7.353,16.405 16.414,16.414 9.074,-0.009 16.423,-7.372 16.414,-16.446 -0.009,-9.062 -7.352,-16.405 -16.414,-16.414 M 62.09,-494.9 c -9.074,0.009 -16.423,7.372 -16.414,16.446 0.009,9.062 7.353,16.405 16.414,16.414 9.074,-0.009 16.423,-7.372 16.414,-16.446 -0.009,-9.062 -7.353,-16.406 -16.414,-16.414 m 52.93,0 c -9.074,0.009 -16.423,7.372 -16.414,16.446 0.009,9.062 7.353,16.405 16.414,16.414 9.074,-0.009 16.423,-7.372 16.414,-16.446 -0.009,-9.062 -7.352,-16.406 -16.414,-16.414 m 52.93,0 c -9.074,0.009 -16.423,7.372 -16.414,16.446 0.009,9.062 7.353,16.405 16.414,16.414 9.074,-0.009 16.423,-7.372 16.414,-16.446 -0.009,-9.062 -7.352,-16.406 -16.414,-16.414 m 741.03,0 c -9.074,0.009 -16.424,7.372 -16.414,16.446 0.009,9.062 7.352,16.405 16.414,16.414 9.073,-0.009 16.422,-7.372 16.413,-16.446 -0.008,-9.062 -7.352,-16.406 -16.413,-16.414 m -846.89,52.94 c -9.074,0 -16.43,7.355 -16.43,16.43 0,9.075 7.356,16.43 16.43,16.43 9.074,0 16.43,-7.356 16.43,-16.431 0,-9.075 -7.356,-16.429 -16.43,-16.429 m 52.93,0 c -9.074,0 -16.43,7.355 -16.43,16.43 0,9.075 7.356,16.431 16.43,16.431 v 0 c 9.074,0 16.43,-7.356 16.43,-16.431 0,-9.075 -7.356,-16.43 -16.43,-16.43 m 793.96,0 c -9.074,0 -16.431,7.355 -16.431,16.43 0,9.075 7.356,16.431 16.431,16.431 v 0 c 9.073,0 16.43,-7.356 16.43,-16.431 0,-9.075 -7.356,-16.43 -16.43,-16.43 m 52.93,0 c -9.074,0 -16.431,7.355 -16.431,16.43 0,9.075 7.356,16.431 16.431,16.431 v 0 c 9.074,0 16.43,-7.356 16.43,-16.431 0,-9.075 -7.356,-16.43 -16.43,-16.43 m -158.79,52.93 c -9.074,0 -16.431,7.356 -16.431,16.431 0,9.073 7.356,16.43 16.431,16.43 v 0 c 9.074,0 16.43,-7.356 16.43,-16.43 0,-9.075 -7.356,-16.431 -16.43,-16.431 m 158.79,0 c -9.074,0 -16.431,7.356 -16.431,16.431 0,9.073 7.356,16.43 16.431,16.43 v 0 c 9.074,0 16.43,-7.356 16.43,-16.43 0,-9.075 -7.356,-16.431 -16.43,-16.431 m -846.89,52.93 c -9.074,0.009 -16.423,7.371 -16.414,16.445 0.009,9.062 7.353,16.405 16.414,16.414 9.074,-0.009 16.423,-7.372 16.414,-16.445 -0.009,-9.061 -7.352,-16.405 -16.414,-16.414 m 52.93,0 c -9.074,0.009 -16.423,7.371 -16.414,16.445 0.009,9.062 7.353,16.405 16.414,16.414 9.074,-0.009 16.423,-7.372 16.414,-16.445 -0.009,-9.061 -7.352,-16.405 -16.414,-16.414 m 688.1,0 c -9.074,0.009 -16.423,7.371 -16.414,16.445 0.009,9.062 7.353,16.405 16.414,16.414 9.074,-0.009 16.423,-7.372 16.414,-16.445 -0.009,-9.061 -7.353,-16.405 -16.414,-16.414 m 105.86,0 c -9.074,0.009 -16.423,7.371 -16.414,16.445 0.009,9.062 7.353,16.405 16.414,16.414 9.074,-0.009 16.423,-7.372 16.414,-16.445 -0.009,-9.061 -7.352,-16.405 -16.414,-16.414 m 0,52.93 c -9.074,0.009 -16.423,7.372 -16.414,16.446 0.009,9.062 7.353,16.405 16.414,16.414 9.074,-0.009 16.423,-7.372 16.414,-16.446 -0.009,-9.061 -7.352,-16.405 -16.414,-16.414 m -52.93,52.93 c -9.074,0.009 -16.424,7.372 -16.414,16.446 0.009,9.062 7.352,16.405 16.414,16.414 9.073,-0.009 16.422,-7.372 16.413,-16.446 -0.008,-9.062 -7.352,-16.405 -16.413,-16.414 m 52.93,0 c -9.074,0.009 -16.423,7.372 -16.414,16.446 0.009,9.062 7.353,16.405 16.414,16.414 9.074,-0.009 16.423,-7.372 16.414,-16.446 -0.009,-9.062 -7.352,-16.405 -16.414,-16.414 m -899.82,52.93 c -9.074,0.009 -16.423,7.371 -16.414,16.445 0.009,9.062 7.353,16.405 16.414,16.414 9.074,-0.009 16.423,-7.372 16.414,-16.446 -0.009,-9.06 -7.353,-16.404 -16.414,-16.413 m 52.93,0 c -9.074,0.009 -16.423,7.371 -16.414,16.445 0.009,9.062 7.353,16.405 16.414,16.414 9.074,-0.009 16.423,-7.372 16.414,-16.446 -0.009,-9.06 -7.352,-16.404 -16.414,-16.413 m 741.03,0 c -9.074,0.009 -16.423,7.371 -16.414,16.445 0.009,9.062 7.353,16.405 16.414,16.414 9.074,-0.009 16.423,-7.372 16.414,-16.446 -0.009,-9.06 -7.353,-16.404 -16.414,-16.413 m -635.17,52.93 c -9.074,0.009 -16.423,7.372 -16.414,16.446 0.009,9.062 7.353,16.404 16.414,16.414 9.074,-0.01 16.423,-7.372 16.414,-16.446 -0.009,-9.061 -7.353,-16.405 -16.414,-16.414 m 52.93,0 c -9.074,0.009 -16.423,7.372 -16.414,16.446 0.009,9.062 7.353,16.404 16.414,16.414 9.074,-0.01 16.423,-7.372 16.414,-16.446 -0.009,-9.061 -7.352,-16.405 -16.414,-16.414 m 52.93,0 c -9.074,0.009 -16.423,7.372 -16.414,16.446 0.009,9.062 7.353,16.404 16.414,16.414 9.074,-0.01 16.423,-7.372 16.414,-16.446 -0.008,-9.061 -7.352,-16.405 -16.414,-16.414 m 52.93,0 c -9.074,0.009 -16.423,7.372 -16.414,16.446 0.009,9.062 7.353,16.404 16.414,16.414 9.074,-0.01 16.423,-7.372 16.414,-16.446 -0.009,-9.061 -7.353,-16.405 -16.414,-16.414 m 264.66,0 c -9.074,0.009 -16.423,7.372 -16.414,16.446 0.009,9.062 7.353,16.404 16.414,16.414 9.074,-0.01 16.423,-7.372 16.414,-16.446 -0.009,-9.061 -7.352,-16.405 -16.414,-16.414 m 105.86,0 c -9.074,0.009 -16.423,7.372 -16.414,16.446 0.009,9.062 7.353,16.404 16.414,16.414 9.073,-0.01 16.423,-7.372 16.413,-16.446 -0.008,-9.061 -7.351,-16.405 -16.413,-16.414 m 158.79,0 c -9.074,0.009 -16.424,7.372 -16.414,16.446 0.009,9.062 7.352,16.404 16.414,16.414 9.073,-0.01 16.422,-7.372 16.413,-16.446 -0.008,-9.061 -7.352,-16.405 -16.413,-16.414 m -793.96,52.93 c -9.074,0.009 -16.423,7.372 -16.414,16.446 0.009,9.062 7.353,16.405 16.414,16.414 9.074,-0.009 16.423,-7.372 16.414,-16.446 -0.009,-9.062 -7.352,-16.405 -16.414,-16.414 m 158.79,0 c -9.074,0.009 -16.423,7.372 -16.414,16.446 0.009,9.062 7.353,16.405 16.414,16.414 9.074,-0.009 16.423,-7.372 16.414,-16.446 -0.009,-9.062 -7.352,-16.405 -16.414,-16.414 m 52.93,0 c -9.074,0.009 -16.423,7.372 -16.414,16.446 0.009,9.062 7.353,16.405 16.414,16.414 9.074,-0.009 16.423,-7.372 16.414,-16.446 -0.008,-9.062 -7.352,-16.405 -16.414,-16.414 m 52.93,0 c -9.074,0.009 -16.423,7.372 -16.414,16.446 0.009,9.062 7.353,16.405 16.414,16.414 9.074,-0.009 16.423,-7.372 16.414,-16.446 -0.009,-9.062 -7.353,-16.405 -16.414,-16.414 m 52.93,0 c -9.073,0.009 -16.423,7.372 -16.414,16.446 0.01,9.062 7.353,16.405 16.414,16.414 9.074,-0.009 16.423,-7.372 16.414,-16.446 -0.009,-9.062 -7.353,-16.405 -16.414,-16.414 m 211.73,0 c -9.074,0.009 -16.423,7.372 -16.414,16.446 0.009,9.062 7.353,16.405 16.414,16.414 9.074,-0.009 16.423,-7.372 16.414,-16.446 -0.009,-9.062 -7.352,-16.405 -16.414,-16.414 m 105.86,0 c -9.074,0.009 -16.423,7.372 -16.414,16.446 0.009,9.062 7.353,16.405 16.414,16.414 9.073,-0.009 16.423,-7.372 16.413,-16.446 -0.008,-9.062 -7.351,-16.405 -16.413,-16.414 m 105.86,0 c -9.074,0.009 -16.423,7.372 -16.414,16.446 0.009,9.062 7.353,16.405 16.414,16.414 9.074,-0.009 16.423,-7.372 16.414,-16.446 -0.009,-9.062 -7.353,-16.405 -16.414,-16.414 m 52.93,0 c -9.074,0.009 -16.424,7.372 -16.414,16.446 0.009,9.062 7.352,16.405 16.414,16.414 9.073,-0.009 16.422,-7.372 16.413,-16.446 -0.008,-9.062 -7.352,-16.405 -16.413,-16.414 m -582.24,52.93 c -9.074,0 -16.431,7.355 -16.431,16.43 0,9.075 7.356,16.43 16.431,16.43 9.075,0 16.43,-7.355 16.43,-16.43 0,-9.075 -7.356,-16.43 -16.43,-16.43 m 52.93,0 c -9.074,0 -16.43,7.355 -16.43,16.43 0,9.075 7.355,16.43 16.43,16.43 9.075,0 16.43,-7.355 16.43,-16.43 0,-9.075 -7.356,-16.43 -16.43,-16.43 m 105.86,0 c -9.074,0 -16.431,7.355 -16.431,16.43 0,9.075 7.356,16.43 16.431,16.43 v 0 c 9.074,0 16.43,-7.355 16.43,-16.43 0,-9.075 -7.356,-16.43 -16.43,-16.43 m 52.94,0 c -9.074,0 -16.43,7.355 -16.43,16.43 0,9.075 7.355,16.43 16.43,16.43 9.075,0 16.431,-7.355 16.431,-16.43 0,-9.075 -7.357,-16.43 -16.431,-16.43 m 52.93,0 c -9.074,0 -16.431,7.355 -16.431,16.43 0,9.075 7.356,16.43 16.431,16.43 9.073,0 16.43,-7.355 16.43,-16.43 0,-9.075 -7.356,-16.43 -16.43,-16.43 m 52.93,0 c -9.074,0 -16.43,7.355 -16.43,16.43 0,9.075 7.355,16.43 16.43,16.43 9.075,0 16.43,-7.355 16.43,-16.43 0,-9.075 -7.356,-16.43 -16.43,-16.43 m 52.93,0 c -9.074,0 -16.43,7.355 -16.43,16.43 0,9.075 7.355,16.43 16.43,16.43 v 0 c 9.074,0 16.431,-7.355 16.431,-16.43 0,-9.075 -7.357,-16.43 -16.431,-16.43"
         id="path4"
         inkscape:connector-curvature="0"
         style="fill:#fffc00" /></g><g
       transform="matrix(0.08236317,0,0,0.08236317,25.988418,129.51494)"
       id="g905"><path
         id="path9"
         style="fill:#303030;stroke-width:35.64744568"
         d="m 178.41586,-1141.5905 v -34.3249 c 6.22048,5.2223 12.97924,9.1364 20.27271,11.7458 7.29346,2.6094 14.65823,3.9141 22.09428,3.9141 4.36325,0 8.1704,-0.3921 11.42501,-1.1799 3.25105,-0.7843 5.97095,-1.8751 8.15257,-3.2689 2.17806,-1.3938 3.80715,-3.0407 4.88014,-4.9336 1.07298,-1.8965 1.6077,-3.9533 1.6077,-6.1706 0,-3.0015 -0.85911,-5.6822 -2.57375,-8.0421 -1.71821,-2.3598 -4.06024,-4.5414 -7.02611,-6.5448 -2.96943,-1.9998 -6.4914,-3.9319 -10.5659,-5.7892 -4.07451,-1.8608 -8.4734,-3.7572 -13.19312,-5.6857 -12.01319,-5.0049 -20.96783,-11.1185 -26.86748,-18.3407 -5.89966,-7.2221 -8.85126,-15.9486 -8.85126,-26.1723 0,-8.01 1.61126,-14.8935 4.82666,-20.647 3.21896,-5.7571 7.60003,-10.4946 13.13965,-14.2126 5.54318,-3.7181 11.95972,-6.4558 19.25318,-8.2061 7.29347,-1.7538 15.01827,-2.6272 23.17084,-2.6272 8.00642,0 15.10383,0.4812 21.28866,1.4473 6.18483,0.966 11.88842,2.449 17.11077,4.4523 v 32.0685 c -2.57731,-1.7859 -5.38276,-3.3616 -8.41992,-4.7197 -3.04073,-1.3582 -6.17058,-2.4847 -9.38598,-3.3758 -3.21896,-0.8948 -6.4201,-1.5578 -9.59985,-1.9856 -3.18332,-0.4278 -6.20266,-0.6452 -9.06515,-0.6452 -3.93191,0 -7.50735,0.3778 -10.72632,1.1264 -3.2154,0.7522 -5.9353,1.8074 -8.15257,3.1655 -2.2137,1.3582 -3.93191,2.9873 -5.14749,4.8802 -1.21558,1.8964 -1.82158,4.021 -1.82158,6.3809 0,2.5773 0.6773,4.8837 2.03547,6.9191 1.35816,2.0391 3.29026,3.9712 5.79271,5.7927 2.50245,1.8252 5.54317,3.6111 9.11861,5.365 3.57544,1.7503 7.6143,3.5576 12.12013,5.4148 6.14919,2.5738 11.67454,5.3079 16.5725,8.2061 4.89796,2.8945 9.09723,6.167 12.60137,9.8137 3.50415,3.6467 6.18484,7.8139 8.04563,12.4944 1.85724,4.6841 2.78763,10.1382 2.78763,16.3586 0,8.5804 -1.62552,15.7847 -4.88013,21.6131 -3.25461,5.8284 -7.66777,10.5481 -13.24659,14.1592 -5.57883,3.611 -12.06666,6.2026 -19.46707,7.7747 -7.40041,1.5756 -15.21433,2.3598 -23.4382,2.3598 -8.43775,0 -16.46199,-0.7129 -24.07985,-2.1424 -7.61429,-1.433 -14.20907,-3.579 -19.7879,-6.4379 z"
         inkscape:connector-curvature="0" /><path
         id="path11"
         style="fill:#303030;stroke-width:35.64744568"
         d="m 411.38618,-1135.6905 h -33.78665 v -61.032 c 0,-17.0181 -6.07789,-25.5271 -18.23367,-25.5271 -5.864,0 -10.69066,2.2493 -14.47999,6.7552 -3.79289,4.5058 -5.68577,10.2272 -5.68577,17.1606 v 62.6433 h -33.89359 v -109.8369 h 33.89359 v 17.3781 h 0.42777 c 8.08128,-13.3713 19.84494,-20.0588 35.29098,-20.0588 24.31155,0 36.46733,15.0896 36.46733,45.2651 z"
         inkscape:connector-curvature="0" /><path
         id="path13"
         style="fill:#303030;stroke-width:35.64744568"
         d="m 529.58955,-1135.6905 h -32.07201 v -15.7669 h -0.42777 c -7.36832,12.2984 -18.27288,18.4476 -32.71722,18.4476 -10.65503,0 -19.0393,-3.0194 -25.15284,-9.0652 -6.11354,-6.0422 -9.16852,-14.1021 -9.16852,-24.1868 0,-21.3064 12.61919,-33.6084 37.86115,-36.8986 l 29.81909,-3.9676 c 0,-12.0132 -6.50566,-18.0198 -19.52055,-18.0198 -13.08617,0 -25.5307,3.8963 -37.32644,11.6924 v -25.5271 c 4.71616,-2.4312 11.17191,-4.5772 19.36013,-6.438 8.18466,-1.8572 15.6421,-2.7876 22.36165,-2.7876 31.31984,0 46.97976,15.6243 46.97976,46.8728 v 65.6448 z m -31.85812,-44.6199 v -7.404 l -19.95188,2.5773 c -11.0115,1.4295 -16.51546,6.3987 -16.51546,14.9078 0,3.8606 1.34034,7.0261 4.02103,9.4929 2.68069,2.4668 6.3096,3.7002 10.88673,3.7002 6.36307,0 11.54977,-2.1994 15.55298,-6.5948 4.00321,-4.3989 6.0066,-9.9599 6.0066,-16.6794 z"
         inkscape:connector-curvature="0" /><path
         id="path15"
         style="fill:#303030;stroke-width:35.64744568"
         d="m 590.72848,-1148.4562 h -0.43133 v 63.2849 h -33.89359 v -160.3565 h 33.89359 v 16.5191 h 0.43133 c 8.36646,-12.801 20.12655,-19.1998 35.28741,-19.1998 14.23046,0 25.22413,4.8802 32.98102,14.6405 7.76045,9.7602 11.63889,23.0425 11.63889,39.8467 0,18.3085 -4.52366,33.0024 -13.56742,44.0852 -9.04732,11.0828 -21.07833,16.6259 -36.09304,16.6259 -13.22877,0 -23.31343,-5.1471 -30.24686,-15.446 z m -0.96604,-45.0473 v 8.7942 c 0,7.5786 1.99982,13.7635 6.00659,18.5545 4.00321,4.791 9.25764,7.1865 15.76687,7.1865 7.72123,0 13.71001,-2.9837 17.96631,-8.9546 4.25631,-5.971 6.38089,-14.4265 6.38089,-25.3667 0,-19.3067 -7.50735,-28.96 -22.52562,-28.96 -6.93343,0 -12.60137,2.6272 -17.00026,7.8816 -4.39533,5.2577 -6.59478,12.2093 -6.59478,20.8645 z"
         inkscape:connector-curvature="0" /><path
         id="path17"
         style="fill:#303030;stroke-width:35.64744568"
         d="m 775.85993,-1139.6581 c -7.64994,4.431 -18.70065,6.6483 -33.145,6.6483 -16.8755,0 -30.53203,-5.1119 -40.97317,-15.3391 -10.44114,-10.2237 -15.65992,-23.4168 -15.65992,-39.5794 0,-18.6614 5.59665,-33.3767 16.78638,-44.1351 11.18973,-10.7619 26.15453,-16.1447 44.89083,-16.1447 12.94002,0 22.30817,1.7182 28.10088,5.1475 v 28.7461 c -7.07958,-5.2901 -14.98262,-7.9351 -23.70555,-7.9351 -9.72463,0 -17.42804,2.8411 -23.11381,8.5268 -5.68576,5.6858 -8.52687,13.5318 -8.52687,23.5416 0,9.7282 2.71634,17.3603 8.15258,22.9035 5.43267,5.5396 12.90437,8.3094 22.41511,8.3094 8.43775,0 16.69726,-2.645 24.77854,-7.9351 z"
         inkscape:connector-curvature="0" /><path
         id="path19"
         style="fill:#303030;stroke-width:35.64744568"
         d="m 903.49917,-1135.6905 h -33.78664 v -62.4258 c 0,-16.0913 -5.86401,-24.1333 -17.59202,-24.1333 -6.00659,0 -10.86891,2.2529 -14.58693,6.7552 -3.71803,4.5058 -5.57526,10.2272 -5.57526,17.1642 v 62.6397 h -33.89716 v -162.6094 h 33.89716 v 69.0776 h 0.42776 c 8.29517,-12.6584 19.55619,-18.9858 33.78665,-18.9858 24.88549,0 37.32644,15.0183 37.32644,45.0512 z"
         inkscape:connector-curvature="0" /><path
         id="path21"
         style="fill:#303030;stroke-width:35.64744568"
         d="m 1021.7025,-1135.6905 h -32.07197 v -15.7669 h -0.42777 c -7.36476,12.2984 -18.26931,18.4476 -32.71722,18.4476 -10.65146,0 -19.03574,-3.0194 -25.15284,-9.0652 -6.11354,-6.0422 -9.16852,-14.1021 -9.16852,-24.1868 0,-21.3064 12.61919,-33.6084 37.86115,-36.8986 l 29.81909,-3.9676 c 0,-12.0132 -6.50566,-18.0198 -19.52054,-18.0198 -13.08618,0 -25.52714,3.8963 -37.32644,11.6924 v -25.5271 c 4.71972,-2.4312 11.17191,-4.5772 19.36012,-6.438 8.18822,-1.8572 15.6421,-2.7876 22.36521,-2.7876 31.31983,0 46.97973,15.6243 46.97973,46.8728 z m -31.85808,-44.6199 v -7.404 l -19.94831,2.5773 c -11.01506,1.4295 -16.51903,6.3987 -16.51903,14.9078 0,3.8606 1.34035,7.0261 4.02103,9.4929 2.68069,2.4668 6.3096,3.7002 10.88673,3.7002 6.36307,0 11.54978,-2.1994 15.55298,-6.5948 4.00678,-4.3989 6.0066,-9.9599 6.0066,-16.6794 z"
         inkscape:connector-curvature="0" /><path
         id="path23"
         style="fill:#303030;stroke-width:35.64744568"
         d="m 1114.9135,-1136.9774 c -5.0085,2.6451 -12.5515,3.9676 -22.6326,3.9676 -23.8838,0 -35.8257,-12.4053 -35.8257,-37.2195 v -50.3057 h -17.8059 v -24.9924 h 17.8059 v -23.702 l 33.7867,-9.6533 v 33.3553 h 24.6716 v 24.9924 h -24.6716 v 44.406 c 0,11.4429 4.5415,17.1607 13.6209,17.1607 3.5754,0 7.2578,-1.0338 11.0471,-3.1084 v 25.0993 z"
         inkscape:connector-curvature="0" /></g></g></svg>