<svg xmlns="http://www.w3.org/2000/svg" width="64" height="64"><defs><clipPath id="A"><path d="M435.607 369.9h31.242v-64.782h-31.242z"/></clipPath><clipPath id="B"><path d="M421.796 349.477h39.074v-88.423h-39.074z"/></clipPath></defs><g transform="matrix(.130593 0 0 -.130592 -1.258064 64.390469)"><path d="M233.98 469.374s7.014-14.948-2.95-31.424C226.05 429.716 100.522 403 51.522 335c-30-47-76-183 71-273 66-34 94-33 94-33s-44 31-16 52 69 31 80 60c13-10 34-31 54-29-2 13-7 18 9 20s24 2 24 2-15 12-32 13-49 34-48 48c21 12 48 32 64 26s32-16 35-25c0-6-3-16 10-8s10 13 15 24 6 13-5 22-37 30-58 24-65-23-87-2c9 20 23 52 16 74 13 10 28 21 30 39 15 2 47 11 41 27s-48.593 87.17-113.593 73.17m206.593-163.168c11 29 29 78 12 80s-36-44-41-56-25-72-14-80 43 56 43 56" fill="#fff"/><path d="M348.522 384.002c3.13 4.92 5.82.645-7.68-.355s-29.622-5.185-32.4-11.048c-5.192-11.002-6.932-38.097-26.432-44.097-1-7 0-23 27.5-26s28.5 15 44.5 14.5 14.5 5.5 9 10-24.5 35-24.5 45 6.5 6.5 10 12m-245.498-301.5s-8.5 22.5 16.5 34.5 47.5 2.5 52-6-7.5-42.5-50.5-43l-18 14.5" fill="#da687d"/><g transform="translate(-21.477)"><g clip-path="url(#A)" opacity=".7"><path d="M466.258 369.838c.423-1.57.298-3.2.255-4.838-.042-1.614-.193-3.312-.604-4.963.106-.377-.082-.814-.018-1.2-.4-.515-.194-.903-.284-1.354.66-.674 1.522-1.313 1.152-2.162-.26-.596-.874-.706-1.464-.995-.4-1.403-.7-3.1-1.028-4.65-.097-.476-.044-1.05-.187-1.485l-.97-3.1c-.237-.945.034-2.7-1.063-2.8l-1.165-2.83c-.286-.163-.452.106-.692.01-.305-.348-.294-.823-.577-1.114-.222-.23-.503-.163-.665-.385-.363-.5-.266-1.24-.523-1.902a4.7 4.7 0 0 1-1.147-1.478c-.588-1.18-.698-2.68-1.6-3.593-.28-.286-.76-.365-1-.647-.238-.27-.455-.665-.7-.98-.338-.452-.67-1.045-.972-1.583l-3.3-5.664c-.173-.37-.2-.805-.364-1.165-.38-.827-.943-1.58-1.257-2.333-.516-1.24-1.3-3.34-2.538-4.42-.15-.13-.473-.254-.606-.414-.18-.215-.136-.568-.32-.808-.086-.113-.4-.164-.537-.302-.208-.2-.306-.48-.48-.64-.426-.388-1.015-.555-1.38-.96-.277-.306-.397-.743-.692-1.127-.318-.413-.76-.784-1.1-1.202-.994-1.264-1.38-2.8-2.702-3.396-.393-.178-.88-.12-1.3-.24-.374.344-.078.818-.163 1.164-.055.222-.285.382-.346.583-.143.474-.347 1.336-.34 1.878s.305.97.375 1.612c.06.55-.137 1.246-.177 1.856-.02.306.064.624.06.956-.008.533-.066.8.008 1.442.086.743-.074 1.462-.17 2.152l1.1 4.92c.258.88.72 2.367 1.18 3.346l2.6 5.945c.32.656.825 1.196 1.14 1.852.182.38.2.828.395 1.215 1.617 3.398 3.877 6.233 5.565 9.73 1.4 2.86 2.88 5.418 4.745 8.545.842 1.415 1.568 2.917 2.434 4.086a24.84 24.84 0 0 1 2.334 3.916c.278.596.27 1.073 1.005 1.102.758.948 1.326 2.018 2.12 2.824.2.202.5.303.733.498.26.228.383.57.638.778.54.44 1.432.832 2.035 1.66.16.22.23.45.406.682.414.54 1.2 1.866 1.8 2.013.088.052.203.028.33-.033" fill="#da687d" fill-rule="evenodd"/></g><g clip-path="url(#B)" opacity=".7"><path d="M459.897 349.45c.688-1.936.765-4.106.935-6.266-.02-2.14-.168-4.58-.715-6.943.098-.492-.155-1.108-.1-1.623-.52-.752-.295-1.25-.438-1.876.718-.835 1.666-1.6 1.155-2.836-.37-.846-1.118-1.037-1.845-1.48l-1.846-6.305c-.187-.635-.212-1.395-.447-1.977l-1.597-4.1c-.416-1.238-.356-3.498-1.652-3.7l-1.674-3.65c-.35-.217-.512.12-.8-.013-.392-.456-.442-1.063-.795-1.445-.27-.298-.585-.226-.785-.514-.45-.65-.386-1.58-.723-2.425-.282-.266-.546-.564-.784-.888l-.337-.505-.153-.266-.072-.136-.034-.07-.003-.004.05.118-.001-.002-.005-.01-.008-.02-.016-.037c-.697-1.635-.85-3.63-1.895-4.955-.335-.42-.872-.577-1.142-.97-.26-.375-.5-.912-.746-1.347-.366-.625-.722-1.432-1.046-2.164l-3.572-8.03c-.188-.523-.205-1.106-.385-1.617-.422-1.173-1.022-2.273-1.394-3.342-.626-1.753-1.474-4.727-3-6.377-.182-.2-.567-.415-.732-.65-.22-.315-.2-.786-.42-1.137-.106-.164-.475-.275-.642-.48-.254-.313-.383-.7-.594-.926-.503-.58-1.23-.865-1.714-1.438-.365-.435-.562-1.03-.958-1.568-.426-.578-1-1.104-1.428-1.683l-1.828-2.608c-.592-.813-1.215-1.514-2.047-1.884-.495-.22-1.042-.12-1.54-.256-.353.473.086 1.07.06 1.524-.018.288-.25.504-.28.766-.07.615-.14 1.712-.035 2.387s.548 1.2.712 2.005c.125.708-.034 1.6-.025 2.36.004.387.13.8.153 1.206.038.668-.008 1 .13 1.795.163.922-.034 1.854-.12 2.7l1.265 6.362 1.265 4.488 1.347 4.063 1.424 4.25c.347.94.896 1.734 1.274 2.728.213.565.25 1.192.465 1.767l1.54 3.656 1.7 3.336.938 1.807.98 1.745 1.886 3.6 3.188 5.725 3.63 5.817 3.357 5.355c.827 1.167 2.173 3.163 3.042 5.126.342.78.35 1.38 1.197 1.482l2.452 3.773c.214.276.563.445.808.722.286.323.408.762.693 1.065.582.653 1.672 1.277 2.2 2.57.15.332.198.653.368 1.006.397.822 1.098 2.78 1.78 3.145.092.093.225.093.376.05" fill="#da687d" fill-rule="evenodd"/></g></g><path d="M416.7 327.002s-8-30.667-4.667-56l4.667 56m9.5 20.724c-.6 2.147-4.597-59.478-3.432-61.636s7.147 48.575 3.432 61.636" fill="#fff"/><g fill="#2d2b2c"><path d="M235.25 465.604s4.667-26.62-38.667-40.62-103.06-25.982-147.06-78.65-52-140-22-197.333S130.855 20.335 262.855 20.335 499.708 121.84 499.708 191.84c0 36.667-20.147 28.492-27.114-5.908-6.3-31.05-64.405-146.93-210.405-146.93S41.522 127.67 32.2 203.67s11.9 141.47 88.566 180.802 125.32 23.664 114.653 80.997m-36.552-205.134s-8.667-40-50.667-59.333-60-30-66-63.334c16 26.666 62.667 32 88.667 58s28 64.667 28 64.667"/><path d="M210.2 353.002s36-46.667 78.667-24 20.667 75.333 20 78.667 4.666-58.667-27.334-69.334-71.333 14.667-71.333 14.667m-94-278.666s22.666-1.334 39.333 17.332 7.334 48 34.667 58.668 46 4 46 4-48.667-6.668-52.667-34.668-10.666-40.666-21.333-49.332-24.667-10-24.667-10z"/><path d="M219.022 219.502s40.523 6.783 59 48c15.167 33.833 5 63 5 63l-20.5-3s8.5-24.5 2-46.5-21.5-47.5-45.5-61.5m218.1 93.66c-14.46-36.13-35.773-62.068-38.265-60.674-4.494 2.513-.358 34.036 14.104 70.166s32.432 63.635 39.104 61.014-.483-34.376-14.943-70.506m21 72.506c-16.442 8.934-36.644-24.45-53.276-63.334s-18.542-70.23-5.76-75.836c17.092-7.496 33.127 22.285 49.76 61.17s24 70 9.276 78"/><path d="M159.522 189.668s10.33-31.037 62-24.666c48.667 6 69.6 24.744 99.333 43.334 21.334 13.332 20 7.332 22.667 6.666s14.667-8 27.333-6.666c.667-6.668-6-1.334-8.666-7.334-1.333-4 10.12-22.824 26.666-20 27.334 4.666 19.667 16 25 28.666s9 19.334-17.667 37.334c-20.667 18.666-32 14-42 14s-36-14-54-10.666-29.334 10-29.334 10l-12-13.333s22-16.666 47.333-10.666 44 25.332 66 15.332 26.282-16.7 33-21.666c7.667-5.668 8.333-11.666 3-17s.001-9.334-3.332-15.334-20-8.666-20-8.666 18.273 23.477-4 25.332c-16 1.334-26 22.668-48.667 11.334-32.55-16.277-78.668-44-110.668-47.332-31.193-3.248-42.667 6.666-50.667 25.332-9.333-8-11.333-14-11.333-14"/><path d="M274.2 183.002s22.667-12 16-38-36.667-44-56-52.668-33.743-20.127-19.333-27.332c12-6 18.667 9.334 36 12s32.667-4 34-14c-7.334 4-12.667 4-12.667 4s6-4 6.667-10.668-.667-3.332-4.667-3.332c-10 0-11.333 8.666-20 7.332-22-2-23.333-11.334-35.333-12.666s-32 5.334-29.334 20.666 23.334 26 42.667 34 48.667 33.334 44.667 56-21.334 18-21.334 18zm56.832 188.75s9.5-4.75 15.5-28.75c4-8.667 9.333-15.667 14-17.667s-2-4-5.333-3.333-10.334 3.667-15-.333-16-14.667-32-12-29.667 12.833-29.667 12.833 6-26.5 41.667-24.833c24.72 1.155 19.333 14 36 16.666s14.893 11.1 11.333 18c-5.667 11-23.333 13.667-25.333 45.834-2 3.333-14.5-.417-11.167-6.417m56.982-167.282C389.52 202.993 376.2 173 376.2 173s-2.667-7.334-9.814-4.75c-7.3 2.645-5.413 7.948-5.413 7.948L378 207.035s9.353-1.906 10.026-2.566m18.732 42.7l-3.333-10-10.9 8.334 2.9 6.332z"/><path d="M284.856 189.002c-2-7.334 23.333-50.002 40.667-47.334s20-2.668 14.666-6-14.666-4.668-13.333-9.334 5-9.334-3.667-8-26.333 10.668-37 28.668c-3.333-10.668-4.666-14-4.666-14s34-35.334 68.666-20.668c-6 4.668-22.666 3.334-8.666 11.334s24.666 10.666 31.333-2c3.333.666 3.333 30-40.667 28-15.333 2-36 32-36 47.334-4-4-9.333-.666-11.333-8m135.6 147.5s-8.75-26.286-5.104-48l5.104 48m8.95 15.548c-.444 1.66-4.07-45.76-3.203-47.435s5.9 37.34 3.203 47.435m-116.55 26.285s37.667 3.333 31 18.333c-20.105 45.24-58.333 71.667-129 69 40 16 74 14 106.667-14 16.333-14 23.893-31.04 29.75-44.083 9.34-20.8 6.6-22.747-3.75-28.583-12.568-7.095-34.2-2.57-34.667-.667"/><path d="M316.708 372.582s10.364-7.138 18.502-1.326c3.74 3.85 6.233 5.95-4.37 5.512l-12.905.53c-8.94 1.825-8.765-.938-1.226-4.715z"/></g></g></svg>