<?xml version="1.0" encoding="UTF-8" standalone="no"?>
<svg xmlns:dc="http://purl.org/dc/elements/1.1/" xmlns:cc="http://creativecommons.org/ns#" xmlns:rdf="http://www.w3.org/1999/02/22-rdf-syntax-ns#" xmlns:svg="http://www.w3.org/2000/svg" xmlns="http://www.w3.org/2000/svg" xmlns:sodipodi="http://sodipodi.sourceforge.net/DTD/sodipodi-0.dtd" xmlns:inkscape="http://www.inkscape.org/namespaces/inkscape" width="64" height="64" viewBox="0 0 32 32" id="svg3431" version="1.1" inkscape:version="0.91 r13725" sodipodi:docname="perl-icon.svg">
  <metadata id="metadata3439">
    <rdf:RDF>
      <cc:Work rdf:about="">
        <dc:format>image/svg+xml</dc:format>
        <dc:type rdf:resource="http://purl.org/dc/dcmitype/StillImage"/>
        <dc:title/>
      </cc:Work>
    </rdf:RDF>
  </metadata>
  <defs id="defs3437"/>
  <sodipodi:namedview pagecolor="#ffffff" bordercolor="#666666" borderopacity="1" objecttolerance="10" gridtolerance="10" guidetolerance="10" inkscape:pageopacity="0" inkscape:pageshadow="2" inkscape:window-width="1389" inkscape:window-height="1023" id="namedview3435" showgrid="false" inkscape:zoom="27.46875" inkscape:cx="16" inkscape:cy="16" inkscape:window-x="75" inkscape:window-y="34" inkscape:window-maximized="0" inkscape:current-layer="svg3431"/>
  <path d="m 30.642445,15.769168 c 0,0 -0.509974,-0.606818 -0.581212,-1.37431 -0.07132,-0.768081 0.285641,-0.500039 0.285641,-0.500039 0,0 -0.143159,-1.018101 -0.857513,-1.893045 C 28.775507,11.126746 28.00743,10.09113 27.66806,8.7160618 27.328691,7.3410786 26.704272,6.537966 26.275559,5.9842004 25.84676,5.4304341 25.668072,4.3410917 25.418046,3.9486724 25.168029,3.5554111 25.132406,1.3860731 23.32922,0.39045607 21.525519,-0.60516101 18.239811,0.53790836 17.275516,1.2160524 16.311059,1.8948706 15.436115,3.8592409 14.27553,4.6630273 c -1.160669,0.8031122 -2.106939,0.8212173 -3.035608,2.4106838 -0.928081,1.5886251 -1.125048,2.4993574 -1.08008,3.4281109 0,0 -0.6700608,0.08059 -0.7499748,-0.294399 -0.08059,-0.3749873 0.187536,-1.63435 0.374987,-2.0093378 0,0 0.187537,0.161179 0.160674,0.3218516 0,0 0.5625248,-1.1519114 0.2143138,-1.8481615 0,0 0.187536,0.040007 0.281263,0.1337268 0,0 0.227536,-1.0848798 0.227536,-1.794266 0,-0.7100601 -0.268126,-1.2593631 -0.7368388,-1.580709 0,0 0.3487978,-0.4549877 -0.04001,-0.9504802 0,0 -0.17381,-0.3982302 -0.629388,-0.868796 C 8.8074202,1.1406 8.4586226,0.87247489 7.9899091,0.88628519 c 0,0 0.080668,-0.17439893 0.1613461,-0.28126139 0,0 -0.3887986,0.0455541 -0.5225243,0.22366173 0,0 -0.2143152,-0.12993627 -0.2543982,-0.43806069 0,0 -0.3749879,0.10686289 -0.4156625,0.3749876 0,0 -0.825596,-0.28126226 -1.1780995,0.61616596 0,0 0.1338099,0.053138 0.1738099,0.1468619 0,0 -0.1206736,0.2682095 -0.6425236,0.3081252 -0.5225243,0.040171 -2.0225598,0 -2.4774632,0.1605886 -0.4556611,0.1607572 -0.6431127,0.3218512 -0.6431127,0.5093871 0,0 -0.227536,0.107031 -0.3350719,0.6025245 0,0 -0.3562092,0.1738091 -0.3562092,0.4819344 0,0.3081252 0.19562,0.218778 0.19562,0.218778 0,0 -0.214399,0.6118707 0.5355768,0.6517864 0,0 0.1206729,0.3082095 0.7637864,0.3082095 0.6425229,0 1.111321,0.106947 1.379362,0.5087132 0,0 -0.2143148,0.8037863 -1.0581006,1.5399511 0,0 0.187536,0.026951 0.3749876,0.013808 0,0 -0.7369224,0.6156605 -0.9244584,1.5131726 0,0 0.2550724,-0.2543994 0.4019351,-0.2412621 0,0 -0.9237861,2.5580532 0.3618504,5.0894102 0,0 0.1205893,-0.254399 0.1737257,-0.281261 0,0 -0.053138,0.857511 0.4687137,1.526981 0,0 0.040593,-0.374988 0.2412621,-0.508881 0,0 0.8026069,1.459361 1.6269401,2.115612 0.8237447,0.65625 2.0831063,0.964375 2.3643685,1.633844 0,0 0.4419358,-0.493723 0.4419358,-0.815659 0,0 0.120588,0.306778 0.08,0.628125 0,0 0.495662,-0.24059 0.65625,-0.374483 0.160673,-0.134401 0.8575118,-0.616082 0.9512378,0.160672 0.09372,0.776335 -0.6874918,2.330012 0.02695,4.258676 0,0 -0.250019,0.351325 -0.250019,0.818187 0,0.467534 0.356798,0.699449 0.356798,0.913764 0,0.214399 -0.16059,0.607576 -0.16059,1.018185 0,0.410609 0.374989,1.066858 0.03562,2.53321 -0.339367,1.466099 -0.481935,1.85936 -0.6788178,2.109381 -0.19621,0.250019 -0.964375,0.678649 -0.821217,1.393088 0,0 -1.8031078,0.231914 -1.7855934,0.856923 C 7.2762395,31.805139 8.1868002,32 9.2756382,32 c 1.0894268,0 1.3738038,-0.230567 1.4100138,-0.62366 0.03689,-0.392588 -0.250694,-0.464504 0,-0.696249 0.251283,-0.231916 0.518735,-0.500042 0.483113,-1.481931 -0.03562,-0.982565 0.446315,-1.893044 0.446315,-1.893044 0,0 -0.08943,-0.839492 0.196883,-1.356963 0.285557,-0.518061 1.053132,-1.535572 0.535661,-3.089419 0,0 0.142483,0.05382 0.321177,0.07132 0,0 -0.303661,-0.856922 0.25002,-1.892623 0.553766,-1.035534 0.839407,-3.143062 0.839407,-3.143062 0,0 1.267535,0.107533 1.821216,0 0,0 -1.214314,2.545085 -1.089346,4.461286 0,0 -0.303745,0.306947 -0.303745,0.646313 0,0.338694 0.178777,0.767408 0.48244,1.071238 0.303832,0.303157 1.303826,0.910565 1.856916,1.571193 0.553765,0.660798 0.928756,1.3925 1.089346,1.589383 0,0 -0.517475,0.339451 -0.374992,0.875027 0,0 -0.518057,0.160675 -0.464329,0.606903 0,0 -0.750061,0.01811 -1.142569,0.357556 -0.393091,0.33861 -0.589303,0.785513 -0.232417,0.928082 0.357468,0.143072 1.67881,0.143072 2.124955,0.143072 0.446231,0 0.96438,-0.339283 1.000003,-0.571198 0.03558,-0.232589 -0.160674,-0.803785 -0.160674,-0.803785 0,0 0.268209,0.0357 0.374985,-0.285725 0,0 0.500043,1.856918 1.267528,1.803107 0,0 0.107456,-0.01743 0.124974,-0.178105 0,0 0.357468,0.08885 0.536249,-0.08935 0.178106,-0.178777 0.606904,-2.69624 -0.910566,-2.732533 0,0 0.106855,-0.25002 -0.178781,-0.428126 -0.28564,-0.17861 2.500033,-3.696237 2.821212,-3.999983 0,0 -0.393092,-3.142469 0.39309,-4.660696 0.7856,-1.51755 1.428126,-2.553756 1.428126,-2.553756 0,0 0.160667,3.375059 1.696326,5.964437 0,0 0.285641,0.393178 0.214311,0.875028 -0.07124,0.481934 -0.267449,0.73187 -0.267449,1.339362 0,0.606903 0.446229,2.214391 0.01741,3.964362 -0.08564,0.350651 -0.946182,1.392583 -0.642435,2.249337 0,0 -0.714277,0.411367 -0.714277,0.94686 0,0.535661 0.321095,0.642607 0.553688,0.642607 0.231827,0 0.356878,-0.231914 0.481845,-0.231914 0.124967,0 0.303748,0.339367 0.875027,0.339367 0.571281,0 1.07124,-0.464419 1.07124,-0.73246 0,-0.267621 -0.464336,-0.71444 -0.464336,-0.71444 0,0 0.303663,-0.285557 0.303663,-0.642439 0,-0.357557 -0.481852,-0.946186 -0.481852,-1.696245 0,-0.750061 0.15621,-2.206306 0.446229,-2.839482 0.580039,-1.268122 0.517559,-2.276875 0.178781,-2.544326 0,0 0.178105,-0.812461 0.178105,-1.670057 0,-0.856922 -0.660633,-3.151817 -0.106943,-5.463807 0,0 0.660625,-0.964374 0.803783,-2.482431 0,0 1.196291,2.428874 0.303157,4.124951 -0.89246,1.69633 -0.714271,1.678897 -0.731871,2.196284 -0.0181,0.518061 0.250018,1.232585 0.250018,1.232585 l 0.813139,-0.821891 c 0,0 -0.01004,-0.571282 0.383151,-0.981976 0.393093,-0.410609 0.678733,-1.52555 0.500045,-1.833591 0,0 0.196204,0.137514 0.285555,0.208672 0,0 0.143158,-0.535577 -0.124967,-1.321088 -1.68e-4,-1.69e-4 0.287321,-0.143411 0.599234,0.01718 z m -10.723824,8.035753 c -0.33937,0.535577 -1.374987,2.214307 -1.374987,2.214307 0,0 -1.071907,-0.606818 -1.410686,-1.285636 -0.339285,-0.678734 -0.62501,-1.106859 -0.768083,-1.214395 0,0 0.437472,-0.588713 0.544424,-1.213721 0,0 0.19191,0.01508 0.299369,0.398735 0.648836,-0.816248 1.073172,-1.698771 1.191903,-2.631315 0,0 0.160674,0.160673 0.303747,0.214399 0,0 0.01749,-0.643113 0.250026,-1.106858 0.231827,-0.464419 0.73187,-1.053722 0.803698,-1.946938 l 0.321263,0 c 0,0 -0.268124,2.000075 0,3.71434 0.26745,1.714519 0.178106,2.321337 -0.160674,2.857082 z" id="path3433" inkscape:connector-curvature="0" style="fill:#000000"/>
</svg>
