<?xml version="1.0" encoding="UTF-8" standalone="no"?>
<svg
   xmlns:dc="http://purl.org/dc/elements/1.1/"
   xmlns:cc="http://creativecommons.org/ns#"
   xmlns:rdf="http://www.w3.org/1999/02/22-rdf-syntax-ns#"
   xmlns:svg="http://www.w3.org/2000/svg"
   xmlns="http://www.w3.org/2000/svg"
   xmlns:sodipodi="http://sodipodi.sourceforge.net/DTD/sodipodi-0.dtd"
   xmlns:inkscape="http://www.inkscape.org/namespaces/inkscape"
   viewBox="0 0 31.999997 31.999997"
   version="1.1"
   id="svg26"
   sodipodi:docname="apple_objectivec-icon.svg"
   width="32"
   height="32"
   inkscape:version="0.92.3 (2405546, 2018-03-11)">
  <metadata
     id="metadata30">
    <rdf:RDF>
      <cc:Work
         rdf:about="">
        <dc:format>image/svg+xml</dc:format>
        <dc:type
           rdf:resource="http://purl.org/dc/dcmitype/StillImage" />
        <dc:title>Simpler &amp;amp; easier </dc:title>
      </cc:Work>
    </rdf:RDF>
  </metadata>
  <sodipodi:namedview
     pagecolor="#ffffff"
     bordercolor="#666666"
     borderopacity="1"
     objecttolerance="10"
     gridtolerance="10"
     guidetolerance="10"
     inkscape:pageopacity="0"
     inkscape:pageshadow="2"
     inkscape:window-width="1920"
     inkscape:window-height="1001"
     id="namedview28"
     showgrid="false"
     inkscape:zoom="256"
     inkscape:cx="16.913344"
     inkscape:cy="30.751298"
     inkscape:window-x="-9"
     inkscape:window-y="-9"
     inkscape:window-maximized="1"
     inkscape:current-layer="svg26" />
  <defs
     id="defs4">
    <style
       id="style2">.cls-1{fill:#f1592a;}</style>
  </defs>
  <title
     id="title6">Simpler &amp;amp; easier </title>
  <g
     id="Layer_2"
     data-name="Layer 2"
     transform="matrix(0.41878594,0,0,0.41878594,4.0484523e-4,2.8629781e-4)">
    <g
       id="Layer_1-2"
       data-name="Layer 1">
      <path
         class="cls-1"
         d="M 38.1,76.41 C 17.57,76.41 0.16,59.07 0,38.41 A 37.66,37.66 0 0 1 11,11.54 38.29,38.29 0 0 1 38.2,0 V 0 A 37.75,37.75 0 0 1 65,11.13 37.79,37.79 0 0 1 76.41,37.85 38.39,38.39 0 0 1 38.41,76.41 Z M 38.22,2 A 36.3,36.3 0 0 0 12.45,12.95 35.67,35.67 0 0 0 2,38.39 c 0.15,19.58 16.65,36 36.09,36 h 0.26 A 36.39,36.39 0 0 0 74.41,37.86 35.81,35.81 0 0 0 63.59,12.55 35.64,35.64 0 0 0 38.22,2 Z"
         id="path8"
         inkscape:connector-curvature="0"
         style="fill:#f1592a" />
      <path
         class="cls-1"
         d="M 8.57,49.38 V 27.06 H 14 v 2 H 11.12 V 47.42 H 14 v 2 z"
         id="path10"
         inkscape:connector-curvature="0"
         style="fill:#f1592a" />
      <path
         class="cls-1"
         d="m 27,38 c 0,4.07 -2.47,6.39 -5.82,6.39 -3.35,0 -5.58,-2.61 -5.58,-6.18 0,-3.73 2.34,-6.36 5.76,-6.36 3.42,0 5.64,2.74 5.64,6.15 z m -9.06,0.18 c 0,2.47 1.24,4.43 3.37,4.43 2.13,0 3.35,-2 3.35,-4.52 0,-2.29 -1.13,-4.45 -3.35,-4.45 -2.22,0 -3.39,2.09 -3.39,4.59 z"
         id="path12"
         inkscape:connector-curvature="0"
         style="fill:#f1592a" />
      <path
         class="cls-1"
         d="M 28.88,32.27 A 18.52,18.52 0 0 1 32.1,32 a 5.75,5.75 0 0 1 3.48,0.77 2.56,2.56 0 0 1 1.26,2.27 2.82,2.82 0 0 1 -2,2.63 v 0 a 3.06,3.06 0 0 1 2.45,3 3.15,3.15 0 0 1 -1.17,2.5 c -0.86,0.76 -2.29,1.13 -4.5,1.13 A 21.41,21.41 0 0 1 28.9,44.14 Z m 2.2,4.79 h 1.13 c 1.53,0 2.39,-0.72 2.39,-1.75 0,-1.03 -0.86,-1.66 -2.27,-1.66 a 6,6 0 0 0 -1.26,0.09 z m 0,5.58 a 9.75,9.75 0 0 0 1.17,0.05 c 1.42,0 2.68,-0.54 2.68,-2 0,-1.46 -1.22,-2 -2.75,-2 h -1.1 z"
         id="path14"
         inkscape:connector-curvature="0"
         style="fill:#f1592a" />
      <path
         class="cls-1"
         d="m 41.66,32.11 h 2.21 V 40 c 0,3.35 -1.62,4.47 -4,4.47 A 5.91,5.91 0 0 1 38,44.15 l 0.27,-1.78 a 4.85,4.85 0 0 0 1.37,0.22 c 1.26,0 2,-0.58 2,-2.68 z"
         id="path16"
         inkscape:connector-curvature="0"
         style="fill:#f1592a" />
      <path
         class="cls-1"
         d="m 50.16,38.68 v 1.53 h -4.6 v -1.53 z"
         id="path18"
         inkscape:connector-curvature="0"
         style="fill:#f1592a" />
      <path
         class="cls-1"
         d="m 60.9,43.88 a 7.67,7.67 0 0 1 -3.13,0.54 c -3.85,0 -6.19,-2.41 -6.19,-6.1 a 6.1,6.1 0 0 1 6.48,-6.41 7,7 0 0 1 3,0.54 l -0.49,1.76 a 5.89,5.89 0 0 0 -2.38,-0.47 c -2.47,0 -4.25,1.55 -4.25,4.47 0,2.66 1.57,4.38 4.23,4.38 a 6.2,6.2 0 0 0 2.41,-0.45 z"
         id="path20"
         inkscape:connector-curvature="0"
         style="fill:#f1592a" />
      <path
         class="cls-1"
         d="m 67.84,27 v 22.38 h -5.43 v -2 h 2.88 V 29 h -2.88 v -2 z"
         id="path22"
         inkscape:connector-curvature="0"
         style="fill:#f1592a" />
    </g>
  </g>
</svg>
