<svg xmlns="http://www.w3.org/2000/svg" width="120" height="60" fill="#16161d"><path d="M42.46 32.4c.667.628 1.676 1.228 2.752 1.228.628 0 1-.2 1.2-.4.18-.18.305-.448.305-.752a.93.93 0 0 0-.343-.724c-.305-.267-.77-.4-1.552-.628l-.8-.248c-.505-.162-1.238-.428-1.723-.97-.6-.667-.686-1.514-.686-2.123 0-1.476.57-2.37 1.095-2.895.6-.6 1.62-1.133 3.076-1.133 1.2 0 2.57.38 3.704.97l-1.238 2.428c-.933-.733-1.638-.8-2.047-.8-.305 0-.724.076-1.028.362-.18.18-.305.38-.305.647 0 .22.038.38.162.543.086.105.305.324 1.047.543l.952.286c.752.238 1.552.505 2.18 1.2.6.647.77 1.314.77 2.142 0 1.095-.267 2.16-1.133 3.028-1.028 1.028-2.266 1.228-3.542 1.228-.752 0-1.476-.076-2.36-.4a8.79 8.79 0 0 1-1.82-.952zm15.036-5.752V36h-3.114v-9.36H51.85V24h8.246v2.647zm12.197 0H66v2h3.514v2.647H66v2.066h3.704V36h-6.818V24h6.818zM72.902 36V24h3.114l5.742 7.34V24h3.114v12h-3.114l-5.742-7.34V36zm23.48-.325c-1.238.448-1.923.6-2.695.6-2.085 0-3.656-.828-4.647-1.8-1.17-1.17-1.82-2.8-1.82-4.37a6.39 6.39 0 0 1 1.82-4.428 6.4 6.4 0 0 1 4.532-1.876c.57 0 1.514.086 2.8.6v3.723c-1-1.238-2.2-1.314-2.714-1.314-.895 0-1.58.267-2.16.8-.733.686-1.047 1.62-1.047 2.466 0 .828.343 1.742.97 2.342.524.486 1.352.828 2.228.828.467 0 1.62-.057 2.714-1.257zM102.8 24v12h-3.114V24zm6.76 0v9.36h3.742V36h-6.856V24zm-85.343-7.33h-8.38a9.17 9.17 0 0 0-9.141 9.141v8.38a9.17 9.17 0 0 0 9.141 9.141h8.38a9.17 9.17 0 0 0 9.141-9.141V25.8a9.17 9.17 0 0 0-9.141-9.141zm1.143 17.063c0 1.2-1.742 2.17-2.933 2.17h-4.8c-1.2 0-2.933-.97-2.933-2.17v-.114H25.36zm0-2.6h-7.732c-1.2 0-2.933-.98-2.933-2.17v-.114h7.732c1.2 0 2.933.98 2.933 2.17zm0-4.76H14.696v-.114c0-1.2 1.733-2.17 2.933-2.17h4.8c1.2 0 2.933.97 2.933 2.17z"/></svg>