<svg xmlns="http://www.w3.org/2000/svg" width="120" height="60"><g transform="matrix(1.30278 0 0 1.30278 39.841362 -.517003)"><path d="M5.524 19.58a20.88 20.88 0 0 0 1.215 1.366c-1.296.392-2.15 1.115-2.682 1.758-.844 1.014-1.286 2.35-1.185 3.495H.643c.452-.974 2.24-3.787 4.882-6.62zm25.864 7.222h-2.712c-6.228-3.254-11.702-5.545-17.507-6.047.01-.804.16-1.728.432-2.742l-.532-.14c-.28 1.045-.432 2-.452 2.843a27.53 27.53 0 0 0-1.828-.06 7.75 7.75 0 0 0-1.426.131 20.01 20.01 0 0 1-1.456-1.617c2.672-2.782 7.1-5.303 10.928-6.258 1.085 3.596 3.405 6.057 6.217 7.714a12.41 12.41 0 0 0 .613-.372l4.912 5.293.2-.02c1.346-.12 2.1.613 2.3.844.16.16.24.3.3.432z" fill="#d1a41b"/><path d="M28.998 9.104c.1 4.882-2.4 8.77-5.876 10.768-5.916-2.953-7.03-10.426-6.027-14.434.28 1.537.794 2.5 1.898 2.963 2.4-.683 5.715-.743 8.146-.07 1.014-.743 1.406-1.868 1.627-2.853.26 1.145.22 3.626.23 3.626z" fill="#ffdc76"/><g fill="#010202"><path d="M14.102 13.725l.904 2.682-2.742-1.848zM11.46 14.9l.964 1.667-2.04-1.035zm-2.2 1.306l.462 1.667-1.406-.964zm14.956 4.48l-.874 1.336 1.537-.703zm1.366 1.537l-1.396 1.075 1.94-.502zM22.168 7.708l1.035 2.27.673-2.3zm-5.253 3.305l1.637.874-1.477.1zm.402 1.778l1.004.402-.844.23zm11.712-1.135l-1.346.562 1.105.17zm-.542 1.637l-1.035.3.834.3zm-12.115 2.5h3.234v.402h-3.234zm0-.954h3.234v.402h-3.234zm9.864.954h3.234v.402h-3.234zm0-.954h3.234v.402h-3.234zm-1.145-2.37h-5.263v-.362h1.637c.2-.864.24-1.687 0-2.1-.1-.18-.25-.26-.452-.26-.934 0-1.326.994-1.336 1.035l-.33-.13c.02-.05.492-1.266 1.677-1.266a.84.84 0 0 1 .763.442c.3.512.26 1.386.06 2.3h2.873c.382-1.125 1.175-1.647 2.5-1.647v.362c-1.446 0-1.848.613-2.14 1.296h1.567v.362z"/><path d="M25.332 14.257c-.422-.633-.562-1.165-.382-1.778h-.362c-.13.402-.08 1.014.24 1.547h-3.656a8.5 8.5 0 0 0 .583-1.547h-.372c-.17.593-.402 1.175-.663 1.637l-.08.15 2.05 1.286-1.155.763.2.3 1.286-.854 1.396.904.2-.3-1.286-.794a122.79 122.79 0 0 1 2.009-1.316zm-2.32 1.085l-1.517-.954h2.963zm6.588-6.67c0-.623-.2-3.264-.552-3.988-.964.372-2.732 1.557-3.134 2.782a19.82 19.82 0 0 0-5.956.07c-.3-1.316-1.898-2.32-3.094-2.883-.502.854-.723 2.822-.673 4.22h-.01c.22 5.866 3.104 9.522 6.87 11.742 3.877-2.2 6.65-6.53 6.55-11.943zm-3.224-1.135c.01 0 .03.01.04.01-.02 0-.03-.01-.04-.01zm-.24-.04c.03.01.07.01.1.02-.04-.01-.07-.02-.1-.02zM29 9.094c.1 4.882-2.4 8.77-5.876 10.768-5.916-2.953-7.04-10.426-6.027-14.434.28 1.537.794 2.5 1.898 2.963 2.4-.683 5.715-.743 8.146-.07 1.014-.743 1.406-1.868 1.627-2.853.26 1.145.22 3.626.23 3.626z"/><path d="M31.52 26c-.613-.683-1.798-1.004-2.792-.974-.703-.844-4.8-5.153-4.8-5.153l-.28.362L28.6 25.55l.2-.02c1.346-.1 2.1.613 2.3.844a1.34 1.34 0 0 1 .281.432H28.67c-6.228-3.254-11.702-5.545-17.507-6.047.01-.814.16-1.728.432-2.742l-.532-.14c-.28 1.045-.432 2-.452 2.843a27.55 27.55 0 0 0-1.828-.06 7.75 7.75 0 0 0-1.426.131A20.12 20.12 0 0 1 5.9 19.173c2.702-2.812 7.152-5.354 11.02-6.288l-.12-.542c-4.158 1.004-8.708 3.737-11.25 6.368-1.175-1.587-1.647-2.893-1.778-3.877-.17-1.246.12-2.4.864-3.315 1.155-1.436 2.802-1.537 4.5-1.256-.03.27 0 .522.1.683.442.663 2.853.894 4.28.25-1.055-1.487-3.204-2.2-3.797-1.918-.2.1-.342.27-.442.482-.583-.1-1.165-.18-1.587-.18-1.487.01-2.632.532-3.485 1.587-.834 1.045-1.175 2.33-.974 3.737.2 1.326.844 2.742 1.95 4.2l-.532.583C1.96 22.694 0 25.92 0 26.46v.28h3.546l-.06-.33c-.2-1.055.2-2.38 1.014-3.365.512-.623 1.366-1.326 2.702-1.657 1.185 1.165 2.702 2.4 4.4 3.586h2.632v-.28c0-.3-.15-.583-.432-.773-.412-.27-1.055-.3-1.647-.1-.562-.623-.874-1.466-.944-2.5 5.715.502 11.2 2.812 17.357 6.037h3.395l.04-.22c.05-.3-.12-.743-.472-1.135zM4.06 22.685c-.834 1.014-1.286 2.35-1.185 3.495H.643c.452-.974 2.24-3.777 4.882-6.62.362.452.773.904 1.215 1.366a5.52 5.52 0 0 0-2.682 1.758z"/></g></g><path d="M21.757 44.68l-.886 2.705h-1.15l2.92-8.618h1.34l2.945 8.618H25.73l-.9-2.705zm2.825-.862l-.838-2.5c-.192-.55-.3-1.077-.455-1.58h-.024l-.43 1.556-.838 2.5h2.586zm3.52-.575l-.048-2h1.005l.048 1.053h.024c.455-.742 1.197-1.197 2.202-1.197 1.484 0 2.6 1.27 2.6 3.136 0 2.226-1.365 3.328-2.8 3.328-.814 0-1.532-.36-1.915-.982h-.024v3.352h-1.1zm1.125 1.628c0 .168.024.3.048.455.215.8.886 1.317 1.676 1.317 1.197 0 1.867-.982 1.867-2.394 0-1.245-.646-2.298-1.843-2.298-.766 0-1.484.55-1.7 1.4a1.5 1.5 0 0 0-.072.455v1.077zm9.576 2.538l-.096-.8h-.048c-.335.48-1.005.9-1.9.9-1.245 0-1.9-.886-1.9-1.772 0-1.484 1.34-2.322 3.7-2.298v-.12c0-.503-.144-1.436-1.412-1.436-.575 0-1.173.168-1.604.455l-.263-.742c.503-.335 1.245-.55 2.035-.55 1.9 0 2.346 1.293 2.346 2.538v2.322c0 .527.024 1.053.096 1.484zm-.168-3.16c-1.22-.024-2.6.192-2.6 1.4 0 .718.48 1.077 1.053 1.077.814 0 1.317-.503 1.484-1.03a.96.96 0 0 0 .072-.359zm7.326 2.92c-.287.144-.958.36-1.772.36-1.867 0-3.088-1.27-3.088-3.16 0-1.915 1.293-3.28 3.328-3.28.67 0 1.245.168 1.556.3l-.263.862c-.263-.144-.694-.287-1.293-.287-1.412 0-2.18 1.053-2.18 2.346 0 1.436.9 2.322 2.155 2.322.646 0 1.053-.168 1.4-.3zm1.317-8.834h1.125v3.854h.024a2.15 2.15 0 0 1 .814-.8 2.29 2.29 0 0 1 1.149-.311c.838 0 2.155.503 2.155 2.657v3.687H51.42V43.9c0-1.005-.36-1.843-1.436-1.843-.718 0-1.293.503-1.508 1.125-.072.144-.072.3-.072.527v3.735H47.28zm7.7 6.177c.024 1.532 1.005 2.155 2.13 2.155a4.37 4.37 0 0 0 1.724-.31l.192.814c-.407.168-1.077.383-2.06.383-1.915 0-3.04-1.245-3.04-3.112s1.1-3.328 2.897-3.328c2 0 2.562 1.772 2.562 2.92 0 .24-.024.407-.048.527h-4.357zm3.304-.814c.024-.718-.287-1.82-1.556-1.82-1.15 0-1.628 1.053-1.724 1.82zm6.916-3.8h-2.6v-.958h6.368v.958h-2.633v7.66h-1.125zm9.385 4.525c0 2.298-1.58 3.28-3.088 3.28-1.676 0-2.97-1.22-2.97-3.184 0-2.06 1.365-3.28 3.064-3.28 1.772 0 2.993 1.293 2.993 3.184zm-4.908.072c0 1.365.8 2.37 1.867 2.37s1.867-1.005 1.867-2.394c0-1.053-.527-2.37-1.843-2.37-1.317-.024-1.9 1.197-1.9 2.394zm6.32-1.436l-.048-1.676h.982l.048 1.005h.048c.335-.6.9-1.15 1.94-1.15a1.81 1.81 0 0 1 1.748 1.245h.024c.192-.335.43-.622.694-.814.36-.287.8-.43 1.365-.43.814 0 2.035.527 2.035 2.68v3.64h-1.1v-3.495c0-1.197-.43-1.915-1.34-1.915-.646 0-1.15.48-1.34 1.03a1.89 1.89 0 0 0-.096.55v3.83h-1.1v-3.7c0-.982-.43-1.7-1.293-1.7-.694 0-1.22.55-1.4 1.125-.072.168-.096.36-.096.55v3.735H76zm15.058 4.285c-.287.144-.958.36-1.772.36-1.867 0-3.088-1.27-3.088-3.16 0-1.915 1.293-3.28 3.328-3.28.67 0 1.245.168 1.556.3l-.263.862c-.263-.144-.694-.287-1.293-.287-1.412 0-2.18 1.053-2.18 2.346 0 1.436.9 2.322 2.155 2.322.646 0 1.053-.168 1.4-.3zm4.74.215l-.096-.8h-.048c-.335.48-1.005.9-1.9.9-1.245 0-1.9-.886-1.9-1.772 0-1.484 1.34-2.322 3.7-2.298v-.12c0-.503-.144-1.436-1.412-1.436-.575 0-1.173.168-1.604.455l-.263-.742c.503-.335 1.245-.55 2.035-.55 1.9 0 2.346 1.293 2.346 2.538v2.322c0 .527.024 1.053.096 1.484zm-.168-3.16c-1.22-.024-2.6.192-2.6 1.4 0 .718.48 1.077 1.053 1.077.814 0 1.317-.503 1.484-1.03a.96.96 0 0 0 .072-.359zm4.213-4.788v1.772h1.604v.862H99.85v3.328c0 .766.215 1.197.838 1.197.287 0 .503-.048.646-.072l.048.838c-.215.096-.55.144-1.005.144-.527 0-.958-.168-1.22-.48-.3-.335-.43-.886-.43-1.604V42.23h-.958v-.862h.958v-1.484z"/></svg>