<svg xmlns="http://www.w3.org/2000/svg" width="120" height="60"><path d="M16.053 39.356V17.824h-3.058V39.8c0 .247-.06.432-.3.432h-.278v-22.4H9.35V40.22H9c-.185 0-.278-.154-.278-.432V17.824h-3.06v21.5c0 2.162 1.112 3.275 3.275 3.275h3.83c2.286 0 3.275-1.205 3.275-3.244m7.97.813V21.14c0-1.913-1.295-2.904-3.244-2.904s-3.244.772-3.244 2.997v7.723h2.935v-7.972c0-.247.093-.37.3-.37a.29.29 0 0 1 .309.309v10.04h-1c-1.854 0-2.564.865-2.564 2.657v3.923c0 1.7.65 2.72 2.317 2.72.525 0 1.08-.278 1.36-.678v.587h2.8m-2.935-2.657c0 .216-.06.34-.3.34s-.3-.093-.3-.3v-3.767c0-.216 0-.463.278-.463h.34v4.2m10.26 4.054V18.43h-2.937l.03 19c-.124.185-.03.432-.34.432-.247 0-.3-.432-.3-.432v-19h-2.933v19.213c0 1.7.525 2.626 2.193 2.626.525 0 1.112-.278 1.4-.678l-.03 2.162c0 .247-.06.402-.3.402s-.3-.185-.3-.402v-.803h-2.935v.803c0 1.913 1.295 2.8 3.244 2.8s3.244-.772 3.244-2.997m8.085-2.918V34.94c0-.927-.525-1.76-1.328-2.04.927-.247 1.328-.958 1.328-1.854V20.423c0-2.688-1.483-3.244-3.583-3.244h-3.15v24.773h3.15c2.44 0 3.583-.772 3.583-3.305m-3.056-6.393c0 .278-.154.494-.432.494h-.185V19.404h.154c.34 0 .463.185.463.432v12.417m0 6.95c0 .247-.154.432-.463.432h-.154V35.22h.185c.278 0 .432.216.432.525v3.46m11.368 4.2v-20.87c0-2.1-1.423-3.185-3.558-3.185s-3.558.847-3.558 3.3v8.47h3.22v-8.74c0-.27.1-.407.34-.407a.32.32 0 0 1 .339.339V33.3h-1.084c-2.033 0-2.8.95-2.8 2.914v4.305c0 1.863.712 2.982 2.54 2.982.578 0 1.186-.305 1.5-.745v.644h3.083m-3.22-2.914c0 .24-.068.373-.34.373s-.34-.1-.34-.34v-4.134c0-.24 0-.508.305-.508h.373v4.608m10.914-5.27h-2.966v4.232c0 .185-.093.3-.34.3-.185 0-.278-.093-.278-.3v-16.74c0-.247.093-.37.3-.37.185 0 .3.124.3.37v8.032h2.966v-7.816c0-1.913-1.328-2.904-3.275-2.904s-3.244.77-3.244 2.995V39.23c0 1.913 1.295 2.904 3.244 2.904s3.213-.772 3.244-2.997l.03-3.923m7.986 6.2V34.36c0-.927-.525-1.76-1.328-2.04.927-.247 1.328-.958 1.328-1.854V18.432h-2.966v13.304c0 .34-.03.463-.247.463h-.34V15.435H56.9v25.97h2.966V34.55h.34c.216 0 .247.247.247.432v6.424h2.966" fill="#a92e34"/><path d="M73.177 42.577V18.445c0-.18-.055-.388-.166-.632-.1-.244-.3-.366-.666-.366h-.8v25.13H69.25v-25.13h-.865c-.333 0-.555.122-.666.366-.1.244-.133.455-.133.632v24.13h-2.3v-23.73c0-1.043.244-1.797.732-2.263.488-.488 1.256-.732 2.297-.732h4.127c1.1 0 1.886.255 2.332.765.466.488.7 1.22.7 2.197v23.765H73.18m7.482-.612v-.932c-.067.2-.2.377-.366.533a2.38 2.38 0 0 1-.632.366c-.244.1-.566.133-.965.133-.7 0-1.22-.2-1.53-.6-.3-.422-.466-1.065-.466-1.93v-4.43c0-.888.166-1.52.5-1.897s.92-.566 1.764-.566h1.565V20.827c0-.244-.08-.444-.233-.6a.75.75 0 0 0-.6-.266c-.3 0-.533.1-.666.3-.1.18-.166.388-.166.632v9.486h-2.163v-9.186c0-1.065.255-1.808.765-2.232.533-.422 1.276-.632 2.232-.632s1.686.233 2.197.7c.533.466.8 1.143.8 2.03v20.9H80.66m-.133-7.722h-.865c-.333 0-.555.1-.666.333-.1.2-.133.432-.133.7v4.26c0 .244.067.455.2.632.133.155.344.233.632.233.3 0 .52-.1.632-.3.133-.2.2-.4.2-.6V34.24m6.935-4.016V21.36a.86.86 0 0 0-.216-.587c-.124-.185-.3-.278-.558-.278-.288 0-.494.093-.618.278-.103.165-.154.36-.154.587v17.485a.94.94 0 0 0 .185.587c.144.144.33.216.558.216.247 0 .443-.072.587-.216a.86.86 0 0 0 .216-.587v-4.883h2.04l-.03 4.54c0 1-.247 1.68-.74 2.07-.474.4-1.153.587-2.04.587s-1.575-.216-2.07-.65c-.474-.432-.7-1.06-.7-1.884V21.7c0-1 .237-1.68.7-2.07.494-.4 1.184-.587 2.07-.587s1.575.216 2.07.65.74 1.06.74 1.884v8.65h-2.04m7.074 12.5V22.492c0-.268-.05-.505-.154-.7-.082-.206-.288-.3-.618-.3s-.546.103-.65.3a1.91 1.91 0 0 0-.124.71v20.222h-2.04V16.746h2.008v3.862a1.15 1.15 0 0 1 .34-.463 2.31 2.31 0 0 1 .558-.34c.228-.103.536-.154.927-.154.536 0 .958.165 1.267.494.33.3.494.865.494 1.668v20.902h-2.008m5.425-24.158c0 .196-.106.4-.32.613s-.5.32-.834.32-.622-.106-.834-.32c-.196-.213-.295-.417-.295-.613 0-.213.098-.425.295-.638.213-.23.5-.344.834-.344.327 0 .597.115.8.344.23.23.344.442.344.638m-2.176 21.616v-19.4h2.04v19.4h-2.04m7.303 1.73v-20.5c0-.165-.05-.36-.154-.587-.082-.247-.3-.37-.65-.37-.33 0-.536.124-.618.37-.082.227-.124.422-.124.587v20.5h-2.04v-22.94h2.04l-.03.834a1.15 1.15 0 0 1 .34-.463 2.31 2.31 0 0 1 .558-.34c.228-.103.536-.154.927-.154 1.176 0 1.76.783 1.76 2.348v20.716h-2m9.238-2.594c0 1.065-.266 1.808-.8 2.232-.5.4-1.256.6-2.232.6-.954 0-1.697-.233-2.232-.7-.5-.466-.765-1.143-.765-2.03V21.17c0-1.065.255-1.808.765-2.232.533-.422 1.276-.632 2.232-.632.932 0 1.664.244 2.197.732.555.488.832 1.198.832 2.13v13.05h-3.858v5.425c0 .244.067.455.2.632a.81.81 0 0 0 .599.233c.266 0 .477-.08.632-.233a.93.93 0 0 0 .233-.632v-3.23h2.197v2.896m-2.197-18.506a.94.94 0 0 0-.233-.632c-.133-.2-.333-.3-.6-.3-.3 0-.533.1-.666.3-.1.18-.166.388-.166.632v11.782h1.664V20.803"/></svg>