<?xml version="1.0" encoding="UTF-8" standalone="no"?>
<!-- Generator: Adobe Illustrator 23.0.3, SVG Export Plug-In . SVG Version: 6.00 Build 0)  -->

<svg
   xmlns:dc="http://purl.org/dc/elements/1.1/"
   xmlns:cc="http://creativecommons.org/ns#"
   xmlns:rdf="http://www.w3.org/1999/02/22-rdf-syntax-ns#"
   xmlns:svg="http://www.w3.org/2000/svg"
   xmlns="http://www.w3.org/2000/svg"
   xmlns:sodipodi="http://sodipodi.sourceforge.net/DTD/sodipodi-0.dtd"
   xmlns:inkscape="http://www.inkscape.org/namespaces/inkscape"
   version="1.1"
   id="svg2"
   x="0px"
   y="0px"
   viewBox="0 0 120 60"
   style="enable-background:new 0 0 120 60;"
   xml:space="preserve"
   sodipodi:docname="coverallsio-ar21.svg"
   inkscape:version="0.92.2 5c3e80d, 2017-08-06"><metadata
     id="metadata51"><rdf:RDF><cc:Work
         rdf:about=""><dc:format>image/svg+xml</dc:format><dc:type
           rdf:resource="http://purl.org/dc/dcmitype/StillImage" /></cc:Work></rdf:RDF></metadata><defs
     id="defs49" /><sodipodi:namedview
     pagecolor="#ffffff"
     bordercolor="#666666"
     borderopacity="1"
     objecttolerance="10"
     gridtolerance="10"
     guidetolerance="10"
     inkscape:pageopacity="0"
     inkscape:pageshadow="2"
     inkscape:window-width="654"
     inkscape:window-height="480"
     id="namedview47"
     showgrid="false"
     inkscape:zoom="2.7"
     inkscape:cx="60"
     inkscape:cy="30"
     inkscape:window-x="0"
     inkscape:window-y="0"
     inkscape:window-maximized="0"
     inkscape:current-layer="svg2" /><style
     type="text/css"
     id="style2">
	.st0{fill:#DCE1E2;}
	.st1{fill:#394A56;}
</style><g
     id="g44"><g
       transform="translate(2.813187, 2.813187)"
       id="g22"><path
         class="st0"
         d="M17.86,24.19c-0.28-0.29-0.53-0.53-0.81-0.7c-0.26-0.17-0.62-0.24-1.08-0.24c-0.57,0-1.06,0.15-1.47,0.42    c-0.4,0.28-0.75,0.62-1.03,1.06c-0.28,0.42-0.5,0.88-0.66,1.39c-0.17,0.5-0.28,0.97-0.35,1.41c-0.04,0.22-0.06,0.42-0.07,0.64    c-0.02,0.22-0.04,0.44-0.04,0.66c0,0.39,0.04,0.75,0.11,1.1c0.07,0.35,0.18,0.68,0.35,0.95c0.17,0.28,0.39,0.5,0.66,0.66    s0.62,0.24,1.06,0.24c0.5,0,0.94-0.09,1.3-0.28c0.37-0.18,0.75-0.42,1.17-0.75l-0.95,4.49c-0.48,0.2-0.92,0.35-1.36,0.44    c-0.44,0.09-0.9,0.15-1.38,0.15c-0.77,0-1.49-0.13-2.15-0.39c-0.66-0.26-1.25-0.64-1.74-1.16c-0.5-0.51-0.88-1.16-1.16-1.93    c-0.28-0.77-0.42-1.69-0.42-2.72c0-0.33,0.02-0.66,0.04-0.97c0.04-0.33,0.07-0.68,0.13-1.05c0.18-1.19,0.48-2.24,0.86-3.12    c0.39-0.88,0.83-1.65,1.34-2.27c0.5-0.62,1.03-1.14,1.61-1.52c0.57-0.39,1.14-0.7,1.69-0.92s1.08-0.37,1.58-0.46    c0.5-0.09,0.92-0.13,1.28-0.13c0.39,0,0.75,0.04,1.14,0.09c0.37,0.06,0.72,0.17,1.05,0.29L17.86,24.19L17.86,24.19z"
         id="path4" /><path
         class="st0"
         d="M18.84,27.51c0.17-0.97,0.42-1.96,0.81-2.95c0.39-0.99,0.88-1.87,1.49-2.68c0.62-0.79,1.36-1.45,2.2-1.94    c0.84-0.5,1.83-0.75,2.94-0.75c0.92,0,1.69,0.17,2.33,0.51c0.64,0.35,1.16,0.81,1.56,1.39c0.4,0.59,0.68,1.25,0.86,2.02    c0.18,0.75,0.28,1.54,0.28,2.35c0,0.35-0.02,0.68-0.04,1.03c-0.04,0.35-0.07,0.68-0.13,1.01c-0.17,0.97-0.42,1.96-0.81,2.95    s-0.88,1.87-1.49,2.68c-0.62,0.79-1.36,1.45-2.2,1.94c-0.84,0.5-1.83,0.75-2.94,0.75c-0.92,0-1.71-0.18-2.33-0.51    c-0.62-0.35-1.14-0.81-1.54-1.39c-0.39-0.59-0.68-1.25-0.84-2.02c-0.18-0.75-0.28-1.56-0.28-2.38c0-0.33,0.02-0.66,0.04-1.01    C18.74,28.17,18.78,27.84,18.84,27.51L18.84,27.51z M23.28,27.51c-0.04,0.2-0.06,0.48-0.11,0.83c-0.04,0.35-0.06,0.73-0.06,1.14    c0,0.29,0.02,0.57,0.06,0.84s0.09,0.51,0.18,0.73c0.09,0.22,0.22,0.39,0.37,0.51c0.17,0.13,0.35,0.2,0.61,0.2    c0.28,0,0.51-0.07,0.73-0.24c0.22-0.17,0.4-0.39,0.57-0.64c0.17-0.26,0.31-0.55,0.42-0.88c0.13-0.31,0.22-0.64,0.31-0.95    s0.15-0.61,0.2-0.88c0.06-0.28,0.09-0.5,0.11-0.68c0.04-0.2,0.07-0.48,0.11-0.84c0.06-0.37,0.07-0.73,0.07-1.14    c0-0.28-0.02-0.57-0.06-0.83c-0.04-0.28-0.09-0.51-0.18-0.73c-0.09-0.22-0.22-0.39-0.37-0.51c-0.17-0.13-0.35-0.2-0.61-0.2    c-0.28,0-0.51,0.07-0.73,0.24c-0.22,0.17-0.4,0.39-0.57,0.64c-0.17,0.26-0.31,0.55-0.42,0.88c-0.13,0.31-0.22,0.64-0.31,0.95    c-0.09,0.31-0.17,0.61-0.22,0.88C23.33,27.12,23.29,27.34,23.28,27.51L23.28,27.51z"
         id="path6" /><path
         class="st0"
         d="M33.6,35.54l-1.19-16.07h4.57v6.6c-0.02,0.66-0.04,1.3-0.06,1.94c-0.04,0.64-0.06,1.28-0.09,1.94h0.04    c0.2-0.66,0.39-1.3,0.53-1.94c0.17-0.64,0.35-1.28,0.57-1.94l2.22-6.6h4.71l-6.86,16.07H33.6L33.6,35.54z"
         id="path8" /><path
         class="st0"
         d="M45.86,19.47h8.07l-0.57,3.8h-3.72l-0.37,2.24h3.36l-0.61,3.8h-3.34l-0.39,2.46h3.72l-0.57,3.8h-8.07    L45.86,19.47L45.86,19.47z"
         id="path10" /><path
         class="st0"
         d="M60.5,35.54l-1.36-6.7l-0.06,0.04c-0.04,0.4-0.09,0.79-0.13,1.17c-0.04,0.39-0.09,0.79-0.17,1.17l-0.66,4.29    h-4.35l2.49-16.07h4.2c0.84,0,1.61,0.06,2.33,0.18c0.72,0.13,1.32,0.35,1.83,0.64c0.51,0.31,0.92,0.72,1.19,1.25    c0.28,0.53,0.42,1.19,0.42,2c0,0.2-0.02,0.4-0.04,0.61c-0.02,0.2-0.06,0.42-0.07,0.64c-0.15,0.9-0.46,1.71-0.97,2.42    c-0.51,0.73-1.21,1.27-2.15,1.6l2.2,6.7H60.5V35.54z M59.73,26.92c0.28,0,0.55-0.06,0.79-0.17c0.24-0.11,0.46-0.28,0.62-0.46    c0.18-0.18,0.33-0.4,0.44-0.66c0.11-0.26,0.18-0.5,0.24-0.75c0.02-0.09,0.02-0.17,0.04-0.24c0-0.07,0.02-0.15,0.02-0.22    c0-0.51-0.15-0.88-0.44-1.14c-0.29-0.24-0.68-0.37-1.17-0.37h-0.17l-0.64,3.98L59.73,26.92L59.73,26.92z"
         id="path12" /><path
         class="st0"
         d="M73.78,35.54v-2.05h-2.92l-0.68,2.07h-4.48l6.35-16.07h5.3l0.92,16.07h-4.49V35.54z M73.8,30.08l0.11-3.72    c0.02-0.5,0.04-1.01,0.06-1.5c0.04-0.51,0.06-1.01,0.09-1.5h-0.04c-0.15,0.5-0.29,1.01-0.42,1.5c-0.15,0.51-0.29,1.01-0.44,1.5    l-1.17,3.72H73.8L73.8,30.08z"
         id="path14" /><path
         class="st0"
         d="M79.41,35.54l2.49-16.07h4.35l-1.93,12.27h3.27l-0.57,3.8H79.41L79.41,35.54z"
         id="path16" /><path
         class="st0"
         d="M88.22,35.54l2.49-16.07h4.35l-1.93,12.27h3.27l-0.57,3.8H88.22L88.22,35.54z"
         id="path18" /><path
         class="st0"
         d="M97.7,30.13c0.11,0.22,0.26,0.44,0.42,0.66c0.17,0.22,0.37,0.4,0.57,0.57c0.22,0.17,0.44,0.31,0.68,0.4    c0.24,0.09,0.5,0.15,0.79,0.15c0.29,0,0.61-0.09,0.9-0.28c0.31-0.18,0.5-0.44,0.55-0.81c0.02-0.06,0.02-0.13,0.02-0.24    c0-0.24-0.07-0.46-0.24-0.66c-0.07-0.11-0.17-0.22-0.28-0.31s-0.22-0.2-0.35-0.29c-0.37-0.33-0.72-0.66-1.03-0.97    c-0.31-0.33-0.59-0.68-0.81-1.06c-0.17-0.28-0.28-0.59-0.37-0.92c-0.09-0.33-0.13-0.68-0.13-1.06c0-0.26,0.02-0.53,0.06-0.83    c0.07-0.48,0.24-1.01,0.5-1.61c0.26-0.61,0.61-1.19,1.08-1.72c0.46-0.53,1.05-0.99,1.72-1.38c0.7-0.39,1.5-0.57,2.42-0.57    c0.53,0,1.05,0.07,1.56,0.22c0.51,0.15,0.99,0.35,1.41,0.59l-0.73,4.88c-0.09-0.2-0.22-0.4-0.39-0.61s-0.33-0.39-0.53-0.55    c-0.2-0.17-0.42-0.29-0.64-0.4c-0.24-0.11-0.48-0.17-0.73-0.17c-0.26,0-0.51,0.09-0.79,0.26s-0.44,0.4-0.5,0.73v0.13    c0,0.28,0.09,0.53,0.29,0.77c0.09,0.13,0.2,0.24,0.33,0.35c0.13,0.11,0.24,0.2,0.35,0.31c0.4,0.33,0.77,0.64,1.08,0.95    c0.31,0.31,0.55,0.64,0.73,1.01c0.15,0.26,0.26,0.53,0.33,0.83s0.11,0.62,0.11,0.99c0,0.33-0.04,0.66-0.09,0.97    c-0.11,0.75-0.35,1.45-0.7,2.09c-0.35,0.64-0.79,1.21-1.32,1.71c-0.53,0.5-1.12,0.88-1.8,1.16c-0.68,0.28-1.39,0.42-2.15,0.42    c-1.1,0-2.16-0.22-3.16-0.66L97.7,30.13L97.7,30.13z"
         id="path20" /></g><g
       id="g42"><path
         class="st1"
         d="M19.98,26.34c-0.28-0.29-0.53-0.53-0.81-0.7c-0.26-0.17-0.62-0.24-1.08-0.24c-0.57,0-1.06,0.15-1.47,0.42    c-0.4,0.28-0.75,0.62-1.03,1.06c-0.28,0.42-0.5,0.88-0.66,1.39c-0.17,0.5-0.28,0.97-0.35,1.41c-0.04,0.22-0.06,0.42-0.07,0.64    c-0.02,0.22-0.04,0.44-0.04,0.66c0,0.39,0.04,0.75,0.11,1.1c0.07,0.35,0.18,0.68,0.35,0.95c0.17,0.28,0.39,0.5,0.66,0.66    s0.62,0.24,1.06,0.24c0.5,0,0.94-0.09,1.3-0.28s0.75-0.42,1.17-0.75l-0.95,4.49c-0.48,0.2-0.92,0.35-1.36,0.44    c-0.44,0.09-0.9,0.15-1.38,0.15c-0.77,0-1.49-0.13-2.15-0.39c-0.66-0.26-1.25-0.64-1.74-1.16c-0.5-0.51-0.88-1.16-1.16-1.93    c-0.26-0.79-0.4-1.71-0.4-2.73c0-0.33,0.02-0.66,0.04-0.97c0.04-0.33,0.07-0.68,0.13-1.05c0.18-1.19,0.48-2.24,0.86-3.12    c0.39-0.88,0.83-1.65,1.34-2.27c0.5-0.62,1.03-1.14,1.61-1.52c0.57-0.39,1.14-0.7,1.69-0.92c0.55-0.22,1.08-0.37,1.58-0.46    c0.5-0.09,0.92-0.13,1.28-0.13c0.39,0,0.75,0.04,1.14,0.09c0.37,0.06,0.72,0.17,1.05,0.29L19.98,26.34L19.98,26.34z"
         id="path24" /><path
         class="st1"
         d="M20.95,29.66c0.17-0.97,0.42-1.96,0.81-2.95c0.39-0.99,0.88-1.87,1.49-2.68c0.62-0.79,1.36-1.45,2.2-1.94    c0.84-0.5,1.83-0.75,2.94-0.75c0.92,0,1.69,0.17,2.33,0.51c0.64,0.35,1.16,0.81,1.56,1.39c0.4,0.59,0.68,1.25,0.86,2.02    c0.18,0.75,0.28,1.54,0.28,2.35c0,0.35-0.02,0.68-0.04,1.03c-0.04,0.35-0.07,0.68-0.13,1.01c-0.17,0.97-0.42,1.96-0.81,2.95    c-0.39,0.99-0.88,1.87-1.49,2.68c-0.62,0.79-1.36,1.45-2.2,1.94c-0.84,0.5-1.83,0.75-2.94,0.75c-0.92,0-1.71-0.18-2.33-0.51    c-0.62-0.35-1.14-0.81-1.54-1.39c-0.39-0.59-0.68-1.25-0.84-2.02c-0.18-0.75-0.28-1.56-0.28-2.38c0-0.33,0.02-0.66,0.04-1.01    C20.86,30.32,20.9,29.99,20.95,29.66L20.95,29.66z M25.39,29.66c-0.04,0.2-0.06,0.48-0.11,0.83c-0.04,0.35-0.06,0.73-0.06,1.14    c0,0.29,0.02,0.57,0.06,0.84c0.04,0.28,0.09,0.51,0.18,0.73s0.22,0.39,0.37,0.51c0.17,0.13,0.35,0.2,0.61,0.2    c0.28,0,0.51-0.07,0.73-0.24s0.4-0.39,0.57-0.64c0.17-0.26,0.31-0.55,0.42-0.88c0.13-0.31,0.22-0.64,0.31-0.95s0.15-0.61,0.2-0.88    c0.06-0.28,0.09-0.5,0.11-0.68c0.04-0.2,0.07-0.48,0.11-0.84c0.06-0.37,0.07-0.73,0.07-1.14c0-0.28-0.02-0.57-0.06-0.83    c-0.04-0.28-0.09-0.51-0.18-0.73c-0.09-0.22-0.22-0.39-0.37-0.51c-0.17-0.13-0.35-0.2-0.61-0.2c-0.28,0-0.51,0.07-0.73,0.24    c-0.22,0.17-0.4,0.39-0.57,0.64c-0.17,0.26-0.31,0.55-0.42,0.88c-0.13,0.31-0.22,0.64-0.31,0.95c-0.09,0.31-0.17,0.61-0.22,0.88    C25.45,29.28,25.41,29.5,25.39,29.66L25.39,29.66z"
         id="path26" /><path
         class="st1"
         d="M35.72,37.7l-1.19-16.07h4.57v6.6c-0.02,0.66-0.04,1.3-0.06,1.94c-0.04,0.64-0.06,1.28-0.09,1.94h0.04    c0.2-0.66,0.39-1.3,0.53-1.94c0.17-0.64,0.35-1.28,0.57-1.94l2.22-6.6H47L40.14,37.7H35.72L35.72,37.7z"
         id="path28" /><path
         class="st1"
         d="M47.97,21.63h8.07l-0.57,3.8h-3.72l-0.37,2.24h3.34l-0.61,3.8h-3.34l-0.39,2.46h3.72l-0.57,3.8h-8.07    L47.97,21.63L47.97,21.63z"
         id="path30" /><path
         class="st1"
         d="M62.61,37.7L61.26,31l-0.06,0.04c-0.04,0.4-0.09,0.79-0.13,1.17c-0.04,0.39-0.09,0.79-0.17,1.17l-0.66,4.29    H55.9l2.48-16.05h4.2c0.84,0,1.61,0.06,2.33,0.18c0.72,0.13,1.32,0.35,1.83,0.64c0.51,0.31,0.92,0.72,1.19,1.25    c0.28,0.53,0.42,1.19,0.42,2c0,0.2-0.02,0.4-0.04,0.61s-0.06,0.42-0.07,0.64c-0.15,0.9-0.46,1.71-0.97,2.42    c-0.51,0.73-1.21,1.27-2.15,1.6l2.2,6.7h-4.71V37.7z M61.84,29.07c0.28,0,0.55-0.06,0.79-0.17s0.46-0.28,0.62-0.46    c0.18-0.18,0.33-0.4,0.44-0.66c0.11-0.26,0.18-0.5,0.24-0.75c0.02-0.09,0.02-0.17,0.04-0.24c0-0.07,0.02-0.15,0.02-0.22    c0-0.51-0.15-0.88-0.44-1.14c-0.29-0.24-0.68-0.37-1.17-0.37h-0.17l-0.62,3.96L61.84,29.07L61.84,29.07z"
         id="path32" /><path
         class="st1"
         d="M75.9,37.7v-2.05h-2.92l-0.68,2.07h-4.48l6.35-16.07h5.3l0.92,16.07H75.9V37.7z M75.91,32.23l0.11-3.72    c0.02-0.5,0.04-1.01,0.06-1.5c0.04-0.51,0.06-1.01,0.09-1.5h-0.04c-0.15,0.5-0.29,1.01-0.42,1.5c-0.15,0.51-0.29,1.01-0.44,1.5    l-1.17,3.72H75.91L75.91,32.23z"
         id="path34" /><path
         class="st1"
         d="M81.53,37.7l2.49-16.07h4.35L86.44,33.9h3.27l-0.57,3.8H81.53L81.53,37.7z"
         id="path36" /><path
         class="st1"
         d="M90.33,37.7l2.49-16.07h4.35L95.25,33.9h3.27l-0.57,3.8H90.33L90.33,37.7z"
         id="path38" /><path
         class="st1"
         d="M99.82,32.28c0.11,0.22,0.26,0.44,0.42,0.66c0.17,0.22,0.37,0.4,0.57,0.57c0.22,0.17,0.44,0.31,0.68,0.4    c0.24,0.09,0.5,0.15,0.79,0.15s0.61-0.09,0.9-0.28c0.31-0.18,0.5-0.44,0.55-0.81c0.02-0.06,0.02-0.13,0.02-0.24    c0-0.24-0.07-0.46-0.24-0.66c-0.07-0.11-0.17-0.22-0.28-0.31s-0.22-0.2-0.35-0.29c-0.37-0.33-0.72-0.66-1.03-0.97    c-0.31-0.33-0.59-0.68-0.81-1.06c-0.17-0.28-0.28-0.59-0.37-0.92c-0.09-0.33-0.13-0.68-0.13-1.06c0-0.26,0.02-0.53,0.06-0.83    c0.07-0.48,0.24-1.01,0.5-1.61c0.26-0.61,0.61-1.19,1.08-1.72c0.46-0.53,1.05-0.99,1.72-1.38c0.7-0.39,1.5-0.57,2.42-0.57    c0.53,0,1.05,0.07,1.56,0.22c0.51,0.15,0.99,0.35,1.41,0.59l-0.77,4.88c-0.09-0.2-0.22-0.4-0.39-0.61    c-0.17-0.2-0.33-0.39-0.53-0.55c-0.2-0.17-0.42-0.29-0.64-0.4c-0.24-0.11-0.48-0.17-0.73-0.17c-0.26,0-0.51,0.09-0.79,0.26    c-0.28,0.17-0.44,0.4-0.5,0.73v0.13c0,0.28,0.09,0.53,0.29,0.77c0.09,0.13,0.2,0.24,0.33,0.35c0.13,0.11,0.24,0.2,0.35,0.31    c0.4,0.33,0.77,0.64,1.08,0.95c0.31,0.31,0.55,0.64,0.73,1.01c0.15,0.26,0.26,0.53,0.33,0.83c0.07,0.29,0.11,0.62,0.11,0.99    c0,0.33-0.04,0.66-0.09,0.97c-0.11,0.75-0.35,1.45-0.7,2.09c-0.35,0.64-0.79,1.21-1.32,1.71c-0.53,0.5-1.12,0.88-1.8,1.16    c-0.68,0.28-1.39,0.42-2.15,0.42c-1.1,0-2.16-0.22-3.16-0.66L99.82,32.28L99.82,32.28z"
         id="path40" /></g></g></svg>