<svg width="64" height="64" viewBox="0 0 64 64" fill="none" xmlns="http://www.w3.org/2000/svg">
<path d="M18.7909 22.6992L27.6027 25.9085V36.2613L18.7909 33.0547V22.6992Z" fill="#E9E9FF" stroke="#CCCCCC" stroke-width="0.212801" stroke-linejoin="bevel"/>
<path d="M9.85202 25.9555V36.3111L18.7911 33.0547V22.6992L9.85202 25.9555Z" fill="#353564" stroke="#CCCCCC" stroke-width="0.212801" stroke-linejoin="bevel"/>
<path d="M9.85187 36.311L18.6609 39.5176L27.6027 36.2612L18.7909 33.0547L9.85187 36.311Z" fill="#AFAFDE" stroke="#CCCCCC" stroke-width="0.212801" stroke-linejoin="bevel"/>
<path d="M9.85202 25.9555L18.661 29.1621L27.6029 25.9057L18.7911 22.6992L9.85202 25.9555Z" fill="#F7F7F4" stroke="#CCCCCC" stroke-width="0.212801" stroke-linejoin="bevel"/>
<path d="M18.6609 29.1621V39.5177L27.6027 36.2613V25.9058L18.6609 29.1621Z" fill="white" stroke="#CCCCCC" stroke-width="0.212801" stroke-linejoin="bevel"/>
<path d="M9.85186 25.9554L18.6609 29.162V39.5176L9.84908 36.3083L9.85186 25.9554Z" fill="#EFEEEA" stroke="#CCCCCC" stroke-width="0.212801" stroke-linejoin="bevel"/>
<path d="M27.64 15.4586L36.4518 18.6679V29.0207L27.64 25.8142V15.4586Z" fill="#E9E9FF" stroke="#CCCCCC" stroke-width="0.212801" stroke-linejoin="bevel"/>
<path d="M18.7011 18.715V29.0706L27.6402 25.8142V15.4586L18.7011 18.715Z" fill="#353564" stroke="#CCCCCC" stroke-width="0.212801" stroke-linejoin="bevel"/>
<path d="M18.701 29.0706L27.51 32.2772L36.4518 29.0208L27.64 25.8143L18.701 29.0706Z" fill="#AFAFDE" stroke="#CCCCCC" stroke-width="0.212801" stroke-linejoin="bevel"/>
<path d="M18.7011 18.715L27.5101 21.9215L36.4519 18.6652L27.6402 15.4586L18.7011 18.715Z" fill="#F7F7F4" stroke="#CCCCCC" stroke-width="0.212801" stroke-linejoin="bevel"/>
<path d="M27.5099 21.9216V32.2772L36.4518 29.0208V18.6652L27.5099 21.9216Z" fill="white" stroke="#CCCCCC" stroke-width="0.212801" stroke-linejoin="bevel"/>
<path d="M18.701 18.715L27.51 21.9216V32.2772L18.6982 29.0678L18.701 18.715Z" fill="#EFEEEA" stroke="#CCCCCC" stroke-width="0.212801" stroke-linejoin="bevel"/>
<path d="M9.94185 36.3749L18.7536 39.5842V49.937L9.94185 46.7305V36.3749Z" fill="#E9E9FF" stroke="#CCCCCC" stroke-width="0.212801" stroke-linejoin="bevel"/>
<path d="M1.00294 39.6312V49.9868L9.94201 46.7305V36.3749L1.00294 39.6312Z" fill="#353564" stroke="#CCCCCC" stroke-width="0.212801" stroke-linejoin="bevel"/>
<path d="M1.00278 49.9868L9.81178 53.1933L18.7536 49.937L9.94184 46.7304L1.00278 49.9868Z" fill="#AFAFDE" stroke="#CCCCCC" stroke-width="0.212801" stroke-linejoin="bevel"/>
<path d="M1.00294 39.6312L9.81194 42.8378L18.7538 39.5814L9.94201 36.3749L1.00294 39.6312Z" fill="#F7F7F4" stroke="#CCCCCC" stroke-width="0.212801" stroke-linejoin="bevel"/>
<path d="M9.81178 42.8378V53.1934L18.7536 49.9371V39.5815L9.81178 42.8378Z" fill="white" stroke="#CCCCCC" stroke-width="0.212801" stroke-linejoin="bevel"/>
<path d="M1.00279 39.6312L9.81179 42.8378V53.1934L1 49.984L1.00279 39.6312Z" fill="#EFEEEA" stroke="#CCCCCC" stroke-width="0.212801" stroke-linejoin="bevel"/>
<path d="M18.7909 39.593L27.6027 42.8023V53.1551L18.7909 49.9486V39.593Z" fill="#E9E9FF" stroke="#CCCCCC" stroke-width="0.212801" stroke-linejoin="bevel"/>
<path d="M9.85202 42.8494V53.205L18.7911 49.9486V39.593L9.85202 42.8494Z" fill="#353564" stroke="#CCCCCC" stroke-width="0.212801" stroke-linejoin="bevel"/>
<path d="M9.85187 53.205L18.6609 56.4115L27.6027 53.1552L18.7909 49.9486L9.85187 53.205Z" fill="#AFAFDE" stroke="#CCCCCC" stroke-width="0.212801" stroke-linejoin="bevel"/>
<path d="M9.85202 42.8494L18.661 46.0559L27.6029 42.7996L18.7911 39.593L9.85202 42.8494Z" fill="#F7F7F4" stroke="#CCCCCC" stroke-width="0.212801" stroke-linejoin="bevel"/>
<path d="M18.6609 46.0559V56.4115L27.6027 53.1551V42.7996L18.6609 46.0559Z" fill="white" stroke="#CCCCCC" stroke-width="0.212801" stroke-linejoin="bevel"/>
<path d="M9.85186 42.8494L18.6609 46.0559V56.4115L9.84908 53.2022L9.85186 42.8494Z" fill="#EFEEEA" stroke="#CCCCCC" stroke-width="0.212801" stroke-linejoin="bevel"/>
<path d="M18.7909 29.1343L27.6027 32.3437V42.6965L18.7909 39.4899V29.1343Z" fill="#E9E9FF" stroke="#CCCCCC" stroke-width="0.212801" stroke-linejoin="bevel"/>
<path d="M9.85202 32.3907V42.7463L18.7911 39.4899V29.1343L9.85202 32.3907Z" fill="#353564" stroke="#CCCCCC" stroke-width="0.212801" stroke-linejoin="bevel"/>
<path d="M9.85187 42.7463L18.6609 45.9529L27.6027 42.6965L18.7909 39.49L9.85187 42.7463Z" fill="#AFAFDE" stroke="#CCCCCC" stroke-width="0.212801" stroke-linejoin="bevel"/>
<path d="M9.85202 32.3907L18.661 35.5972L27.6029 32.3409L18.7911 29.1343L9.85202 32.3907Z" fill="#F7F7F4" stroke="#CCCCCC" stroke-width="0.212801" stroke-linejoin="bevel"/>
<path d="M18.6609 35.5973V45.9529L27.6027 42.6965V32.3409L18.6609 35.5973Z" fill="white" stroke="#CCCCCC" stroke-width="0.212801" stroke-linejoin="bevel"/>
<path d="M9.85186 32.3907L18.6609 35.5973V45.9529L9.84908 42.7436L9.85186 32.3907Z" fill="#EFEEEA" stroke="#CCCCCC" stroke-width="0.212801" stroke-linejoin="bevel"/>
<path d="M54.1882 33.1568L63 36.3661V46.7189L54.1882 43.5124V33.1568Z" fill="#E9E9FF" stroke="#CCCCCC" stroke-width="0.212801" stroke-linejoin="bevel"/>
<path d="M45.2493 36.4131V46.7687L54.1884 43.5124V33.1568L45.2493 36.4131Z" fill="#353564" stroke="#CCCCCC" stroke-width="0.212801" stroke-linejoin="bevel"/>
<path d="M45.2491 46.7687L54.0581 49.9753L63 46.7189L54.1882 43.5124L45.2491 46.7687Z" fill="#AFAFDE" stroke="#CCCCCC" stroke-width="0.212801" stroke-linejoin="bevel"/>
<path d="M45.2493 36.4131L54.0583 39.6197L63.0002 36.3633L54.1884 33.1568L45.2493 36.4131Z" fill="#F7F7F4" stroke="#CCCCCC" stroke-width="0.212801" stroke-linejoin="bevel"/>
<path d="M54.0582 39.6197V49.9753L63 46.7189V36.3633L54.0582 39.6197Z" fill="white" stroke="#CCCCCC" stroke-width="0.212801" stroke-linejoin="bevel"/>
<path d="M45.2491 36.4131L54.0581 39.6197V49.9753L45.2464 46.766L45.2491 36.4131Z" fill="#EFEEEA" stroke="#CCCCCC" stroke-width="0.212801" stroke-linejoin="bevel"/>
<path d="M45.3359 36.3736L54.1477 39.5829V49.9357L45.3359 46.7292V36.3736Z" fill="#E9E9FF" stroke="#CCCCCC" stroke-width="0.2128" stroke-linejoin="bevel"/>
<path d="M36.3968 39.6299V49.9855L45.3359 46.7292V36.3736L36.3968 39.6299Z" fill="#353564" stroke="#CCCCCC" stroke-width="0.2128" stroke-linejoin="bevel"/>
<path d="M36.3967 49.9856L45.2056 53.1921L54.1475 49.9358L45.3357 46.7292L36.3967 49.9856Z" fill="#AFAFDE" stroke="#CCCCCC" stroke-width="0.2128" stroke-linejoin="bevel"/>
<path d="M36.3968 39.6299L45.2058 42.8365L54.1477 39.5801L45.3359 36.3736L36.3968 39.6299Z" fill="#F7F7F4" stroke="#CCCCCC" stroke-width="0.2128" stroke-linejoin="bevel"/>
<path d="M45.2057 42.8366V53.1921L54.1476 49.9358V39.5802L45.2057 42.8366Z" fill="#FFD242" stroke="#CCCCCC" stroke-width="0.2128" stroke-linejoin="bevel"/>
<path d="M36.3968 39.63L45.2058 42.8366V53.1921L36.394 49.9828L36.3968 39.63Z" fill="#EFEEEA" stroke="#CCCCCC" stroke-width="0.2128" stroke-linejoin="bevel"/>
<path d="M49.3585 48.0181C50.0231 48.5181 51.144 48.1497 51.8621 47.1953C52.5801 46.2409 52.6236 45.0618 51.9589 44.5618C51.2943 44.0617 50.1734 44.43 49.4553 45.3845C48.7372 46.3389 48.6939 47.518 49.3585 48.0181Z" fill="white"/>
<path d="M36.49 39.593L45.3018 42.8023V53.1551L36.49 49.9486V39.593Z" fill="#E9E9FF" stroke="#CCCCCC" stroke-width="0.212801" stroke-linejoin="bevel"/>
<path d="M27.5511 42.8494V53.205L36.4902 49.9486V39.593L27.5511 42.8494Z" fill="#353564" stroke="#CCCCCC" stroke-width="0.212801" stroke-linejoin="bevel"/>
<path d="M27.551 53.205L36.36 56.4115L45.3018 53.1552L36.49 49.9486L27.551 53.205Z" fill="#AFAFDE" stroke="#CCCCCC" stroke-width="0.212801" stroke-linejoin="bevel"/>
<path d="M27.5511 42.8494L36.3601 46.0559L45.302 42.7996L36.4902 39.593L27.5511 42.8494Z" fill="#F7F7F4" stroke="#CCCCCC" stroke-width="0.212801" stroke-linejoin="bevel"/>
<path d="M36.36 46.0559V56.4115L45.3018 53.1551V42.7996L36.36 46.0559Z" fill="#FFD242" stroke="#CCCCCC" stroke-width="0.212801" stroke-linejoin="bevel"/>
<path d="M27.551 42.8494L36.36 46.0559V56.4115L27.5482 53.2022L27.551 42.8494Z" fill="#EFEEEA" stroke="#CCCCCC" stroke-width="0.212801" stroke-linejoin="bevel"/>
<path d="M27.64 42.8111L36.4518 46.0204V56.3732L27.64 53.1667V42.8111Z" fill="#E9E9FF" stroke="#CCCCCC" stroke-width="0.212801" stroke-linejoin="bevel"/>
<path d="M18.7011 46.0674V56.423L27.6402 53.1667V42.8111L18.7011 46.0674Z" fill="#353564" stroke="#CCCCCC" stroke-width="0.212801" stroke-linejoin="bevel"/>
<path d="M18.701 56.423L27.51 59.6296L36.4518 56.3732L27.64 53.1667L18.701 56.423Z" fill="#AFAFDE" stroke="#CCCCCC" stroke-width="0.212801" stroke-linejoin="bevel"/>
<path d="M18.7011 46.0674L27.5101 49.274L36.4519 46.0176L27.6402 42.8111L18.7011 46.0674Z" fill="#F7F7F4" stroke="#CCCCCC" stroke-width="0.212801" stroke-linejoin="bevel"/>
<path d="M27.5099 49.2741V59.6296L36.4518 56.3733V46.0177L27.5099 49.2741Z" fill="white" stroke="#CCCCCC" stroke-width="0.212801" stroke-linejoin="bevel"/>
<path d="M18.701 46.0674L27.51 49.274V59.6296L18.6982 56.4203L18.701 46.0674Z" fill="#EFEEEA" stroke="#CCCCCC" stroke-width="0.212801" stroke-linejoin="bevel"/>
<path d="M54.1882 22.6992L63 25.9085V36.2613L54.1882 33.0547V22.6992Z" fill="#E9E9FF" stroke="#CCCCCC" stroke-width="0.212801" stroke-linejoin="bevel"/>
<path d="M45.2493 25.9555V36.3111L54.1884 33.0547V22.6992L45.2493 25.9555Z" fill="#353564" stroke="#CCCCCC" stroke-width="0.212801" stroke-linejoin="bevel"/>
<path d="M45.2491 36.311L54.0581 39.5176L63 36.2612L54.1882 33.0547L45.2491 36.311Z" fill="#AFAFDE" stroke="#CCCCCC" stroke-width="0.212801" stroke-linejoin="bevel"/>
<path d="M45.2493 25.9555L54.0583 29.1621L63.0002 25.9057L54.1884 22.6992L45.2493 25.9555Z" fill="#F7F7F4" stroke="#CCCCCC" stroke-width="0.212801" stroke-linejoin="bevel"/>
<path d="M54.0582 29.1621V39.5177L63 36.2613V25.9058L54.0582 29.1621Z" fill="#FFD242" stroke="#CCCCCC" stroke-width="0.212801" stroke-linejoin="bevel"/>
<path d="M45.2491 25.9554L54.0581 29.162V39.5176L45.2464 36.3083L45.2491 25.9554Z" fill="#EFEEEA" stroke="#CCCCCC" stroke-width="0.212801" stroke-linejoin="bevel"/>
<path d="M54.1882 12.2405L63 15.4499V25.8027L54.1882 22.5961V12.2405Z" fill="#E9E9FF" stroke="#CCCCCC" stroke-width="0.212801" stroke-linejoin="bevel"/>
<path d="M45.2493 15.4969V25.8525L54.1884 22.5961V12.2405L45.2493 15.4969Z" fill="#353564" stroke="#CCCCCC" stroke-width="0.212801" stroke-linejoin="bevel"/>
<path d="M45.2491 25.8524L54.0581 29.059L63 25.8026L54.1882 22.5961L45.2491 25.8524Z" fill="#AFAFDE" stroke="#CCCCCC" stroke-width="0.212801" stroke-linejoin="bevel"/>
<path d="M45.2493 15.4969L54.0583 18.7034L63.0002 15.4471L54.1884 12.2405L45.2493 15.4969Z" fill="#FFC91D" stroke="#CCCCCC" stroke-width="0.212801" stroke-linejoin="bevel"/>
<path d="M54.0582 18.7034V29.059L63 25.8026V15.447L54.0582 18.7034Z" fill="#FFD242" stroke="#CCCCCC" stroke-width="0.212801" stroke-linejoin="bevel"/>
<path d="M45.2491 15.4968L54.0581 18.7034V29.059L45.2464 25.8496L45.2491 15.4968Z" fill="#EFEEEA" stroke="#CCCCCC" stroke-width="0.212801" stroke-linejoin="bevel"/>
<path d="M45.3391 25.9163L54.1509 29.1256V39.4784L45.3391 36.2719V25.9163Z" fill="#E9E9FF" stroke="#CCCCCC" stroke-width="0.212801" stroke-linejoin="bevel"/>
<path d="M36.4002 29.1727V39.5283L45.3393 36.2719V25.9163L36.4002 29.1727Z" fill="#353564" stroke="#CCCCCC" stroke-width="0.212801" stroke-linejoin="bevel"/>
<path d="M36.4001 39.5282L45.2091 42.7348L54.1509 39.4784L45.3391 36.2719L36.4001 39.5282Z" fill="#AFAFDE" stroke="#CCCCCC" stroke-width="0.212801" stroke-linejoin="bevel"/>
<path d="M36.4002 29.1727L45.2092 32.3792L54.1511 29.1229L45.3393 25.9163L36.4002 29.1727Z" fill="#F7F7F4" stroke="#CCCCCC" stroke-width="0.212801" stroke-linejoin="bevel"/>
<path d="M45.2091 32.3792V42.7347L54.1509 39.4784V29.1228L45.2091 32.3792Z" fill="#FFD242" stroke="#CCCCCC" stroke-width="0.212801" stroke-linejoin="bevel"/>
<path d="M36.4001 29.1726L45.2091 32.3792V42.7347L36.3973 39.5254L36.4001 29.1726Z" fill="#EFEEEA" stroke="#CCCCCC" stroke-width="0.212801" stroke-linejoin="bevel"/>
<path d="M45.3391 15.4586L54.1509 18.6679V29.0207L45.3391 25.8142V15.4586Z" fill="#E9E9FF" stroke="#CCCCCC" stroke-width="0.212801" stroke-linejoin="bevel"/>
<path d="M36.4002 18.715V29.0706L45.3393 25.8142V15.4586L36.4002 18.715Z" fill="#353564" stroke="#CCCCCC" stroke-width="0.212801" stroke-linejoin="bevel"/>
<path d="M36.4001 29.0706L45.2091 32.2772L54.1509 29.0208L45.3391 25.8143L36.4001 29.0706Z" fill="#AFAFDE" stroke="#CCCCCC" stroke-width="0.212801" stroke-linejoin="bevel"/>
<path d="M36.4002 18.715L45.2092 21.9215L54.1511 18.6652L45.3393 15.4586L36.4002 18.715Z" fill="#F7F7F4" stroke="#CCCCCC" stroke-width="0.212801" stroke-linejoin="bevel"/>
<path d="M45.2091 21.9216V32.2772L54.1509 29.0208V18.6652L45.2091 21.9216Z" fill="#3775A9" stroke="#CCCCCC" stroke-width="0.212801" stroke-linejoin="bevel"/>
<path d="M36.4001 18.715L45.2091 21.9216V32.2772L36.3973 29.0678L36.4001 18.715Z" fill="#EFEEEA" stroke="#CCCCCC" stroke-width="0.212801" stroke-linejoin="bevel"/>
<path d="M45.3391 5L54.1509 8.20932V18.5621L45.3391 15.3556V5Z" fill="#E9E9FF" stroke="#CCCCCC" stroke-width="0.212801" stroke-linejoin="bevel"/>
<path d="M36.4002 8.25635V18.6119L45.3393 15.3556V5L36.4002 8.25635Z" fill="#353564" stroke="#CCCCCC" stroke-width="0.212801" stroke-linejoin="bevel"/>
<path d="M36.4001 18.6119L45.2091 21.8184L54.1509 18.5621L45.3391 15.3555L36.4001 18.6119Z" fill="#AFAFDE" stroke="#CCCCCC" stroke-width="0.212801" stroke-linejoin="bevel"/>
<path d="M36.4002 8.25635L45.2092 11.4629L54.1511 8.20654L45.3393 5L36.4002 8.25635Z" fill="#2F6491" stroke="#CCCCCC" stroke-width="0.212801" stroke-linejoin="bevel"/>
<path d="M45.2091 11.463V21.8185L54.1509 18.5622V8.2066L45.2091 11.463Z" fill="#3775A9" stroke="#CCCCCC" stroke-width="0.212801" stroke-linejoin="bevel"/>
<path d="M36.4001 8.25623L45.2091 11.4628V21.8184L36.3973 18.609L36.4001 8.25623Z" fill="#EFEEEA" stroke="#CCCCCC" stroke-width="0.212801" stroke-linejoin="bevel"/>
<path d="M36.49 29.1343L45.3018 32.3437V42.6965L36.49 39.4899V29.1343Z" fill="#E9E9FF" stroke="#CCCCCC" stroke-width="0.212801" stroke-linejoin="bevel"/>
<path d="M27.5511 32.3907V42.7463L36.4902 39.4899V29.1343L27.5511 32.3907Z" fill="#353564" stroke="#CCCCCC" stroke-width="0.212801" stroke-linejoin="bevel"/>
<path d="M27.551 42.7463L36.36 45.9529L45.3018 42.6965L36.49 39.49L27.551 42.7463Z" fill="#AFAFDE" stroke="#CCCCCC" stroke-width="0.212801" stroke-linejoin="bevel"/>
<path d="M27.5511 32.3907L36.3601 35.5972L45.302 32.3409L36.4902 29.1343L27.5511 32.3907Z" fill="#F7F7F4" stroke="#CCCCCC" stroke-width="0.212801" stroke-linejoin="bevel"/>
<path d="M36.36 35.5973V45.9529L45.3018 42.6965V32.3409L36.36 35.5973Z" fill="#FFD242" stroke="#CCCCCC" stroke-width="0.212801" stroke-linejoin="bevel"/>
<path d="M27.551 32.3907L36.36 35.5973V45.9529L27.5482 42.7436L27.551 32.3907Z" fill="#EFEEEA" stroke="#CCCCCC" stroke-width="0.212801" stroke-linejoin="bevel"/>
<path d="M36.49 18.6768L45.3018 21.8861V32.2389L36.49 29.0323V18.6768Z" fill="#E9E9FF" stroke="#CCCCCC" stroke-width="0.212801" stroke-linejoin="bevel"/>
<path d="M27.5511 21.9331V32.2887L36.4902 29.0323V18.6768L27.5511 21.9331Z" fill="#353564" stroke="#CCCCCC" stroke-width="0.212801" stroke-linejoin="bevel"/>
<path d="M27.551 32.2886L36.36 35.4951L45.3018 32.2388L36.49 29.0322L27.551 32.2886Z" fill="#AFAFDE" stroke="#CCCCCC" stroke-width="0.212801" stroke-linejoin="bevel"/>
<path d="M27.5511 21.9331L36.3601 25.1397L45.302 21.8833L36.4902 18.6768L27.5511 21.9331Z" fill="#F7F7F4" stroke="#CCCCCC" stroke-width="0.212801" stroke-linejoin="bevel"/>
<path d="M36.36 25.1395V35.4951L45.3018 32.2388V21.8832L36.36 25.1395Z" fill="#3775A9" stroke="#CCCCCC" stroke-width="0.212801" stroke-linejoin="bevel"/>
<path d="M27.551 21.933L36.36 25.1395V35.4951L27.5482 32.2858L27.551 21.933Z" fill="#EFEEEA" stroke="#CCCCCC" stroke-width="0.212801" stroke-linejoin="bevel"/>
<path d="M27.64 32.3525L36.4518 35.5619V45.9147L27.64 42.7081V32.3525Z" fill="#E9E9FF" stroke="#CCCCCC" stroke-width="0.212801" stroke-linejoin="bevel"/>
<path d="M18.7011 35.6089V45.9645L27.6402 42.7081V32.3525L18.7011 35.6089Z" fill="#353564" stroke="#CCCCCC" stroke-width="0.212801" stroke-linejoin="bevel"/>
<path d="M18.701 45.9644L27.51 49.1709L36.4518 45.9146L27.64 42.708L18.701 45.9644Z" fill="#AFAFDE" stroke="#CCCCCC" stroke-width="0.212801" stroke-linejoin="bevel"/>
<path d="M18.7011 35.6089L27.5101 38.8154L36.4519 35.5591L27.6402 32.3525L18.7011 35.6089Z" fill="#F7F7F4" stroke="#CCCCCC" stroke-width="0.212801" stroke-linejoin="bevel"/>
<path d="M27.5099 38.8156V49.1711L36.4518 45.9148V35.5592L27.5099 38.8156Z" fill="#3775A9" stroke="#CCCCCC" stroke-width="0.212801" stroke-linejoin="bevel"/>
<path d="M18.701 35.6088L27.51 38.8153V49.1709L18.6982 45.9616L18.701 35.6088Z" fill="#2F6491" stroke="#CCCCCC" stroke-width="0.212801" stroke-linejoin="bevel"/>
<path d="M27.64 21.8939L36.4518 25.1032V35.456L27.64 32.2495V21.8939Z" fill="#E9E9FF" stroke="#CCCCCC" stroke-width="0.212801" stroke-linejoin="bevel"/>
<path d="M18.7011 25.1503V35.5059L27.6402 32.2495V21.8939L18.7011 25.1503Z" fill="#353564" stroke="#CCCCCC" stroke-width="0.212801" stroke-linejoin="bevel"/>
<path d="M18.701 35.5057L27.51 38.7123L36.4518 35.4559L27.64 32.2494L18.701 35.5057Z" fill="#AFAFDE" stroke="#CCCCCC" stroke-width="0.212801" stroke-linejoin="bevel"/>
<path d="M18.7011 25.1503L27.5101 28.3568L36.4519 25.1005L27.6402 21.8939L18.7011 25.1503Z" fill="#2F6491" stroke="#CCCCCC" stroke-width="0.212801" stroke-linejoin="bevel"/>
<path d="M27.5099 28.3568V38.7123L36.4518 35.456V25.1004L27.5099 28.3568Z" fill="#3775A9" stroke="#CCCCCC" stroke-width="0.212801" stroke-linejoin="bevel"/>
<path d="M18.701 25.1501L27.51 28.3567V38.7123L18.6982 35.503L18.701 25.1501Z" fill="#2F6491" stroke="#CCCCCC" stroke-width="0.212801" stroke-linejoin="bevel"/>
<path d="M36.4863 8.21704L45.2981 11.4264V21.7792L36.4863 18.5726V8.21704Z" fill="#E9E9FF" stroke="#CCCCCC" stroke-width="0.2128" stroke-linejoin="bevel"/>
<path d="M27.5475 11.4734V21.829L36.4865 18.5726V8.21704L27.5475 11.4734Z" fill="#353564" stroke="#CCCCCC" stroke-width="0.2128" stroke-linejoin="bevel"/>
<path d="M27.5473 21.829L36.3563 25.0355L45.2981 21.7792L36.4864 18.5726L27.5473 21.829Z" fill="#AFAFDE" stroke="#CCCCCC" stroke-width="0.2128" stroke-linejoin="bevel"/>
<path d="M27.5475 11.4734L36.3564 14.6799L45.2983 11.4236L36.4865 8.21704L27.5475 11.4734Z" fill="#2F6491" stroke="#CCCCCC" stroke-width="0.2128" stroke-linejoin="bevel"/>
<path d="M36.3564 14.6801V25.0356L45.2982 21.7793V11.4237L36.3564 14.6801Z" fill="#3775A9" stroke="#CCCCCC" stroke-width="0.2128" stroke-linejoin="bevel"/>
<path d="M27.5474 11.4734L36.3564 14.6799V25.0355L27.5446 21.8262L27.5474 11.4734Z" fill="#2F6491" stroke="#CCCCCC" stroke-width="0.2128" stroke-linejoin="bevel"/>
<path d="M38.3468 20.5037C39.0114 21.0037 40.1323 20.6353 40.8504 19.6809C41.5685 18.7265 41.6119 17.5474 40.9473 17.0473C40.2826 16.5473 39.1617 16.9156 38.4436 17.8701C37.7255 18.8245 37.6822 20.0036 38.3468 20.5037Z" fill="white"/>
</svg>
