<svg xmlns="http://www.w3.org/2000/svg" width="64" height="64" viewBox="0 0 4.935 4.935" fill="#4b84c4" fill-rule="evenodd"><path d="M2.81.762c.012-.23.212-.43.42-.485.51-.146.79-.12 1.705-.127-.552.49-.99 1.268-.892 2.027-.2-.164-.334-.394-.504-.576.067-.127.127-.25.164-.388.06-.23.23-.285.437-.28.018 0-.012-.176-.067-.188C3.915.702 3.782.75 3.6.677c-.055-.018-.12.012-.17.036-.152.073-.243.237-.413.29zM.008.61A2.62 2.62 0 0 1 .997.18c.467-.085.977-.09 1.323.25.66.637 1.195 1.305 1.778 2.026.018.03.018.11 0 .12a8.42 8.42 0 0 1-1.256.589c-.073.024-.158-.006-.206-.042-.66-.6-1.11-1.323-1.747-1.948C.645.938.354.762.026.665-.005.653-.005.623.008.61z"/><path d="M2.313 3.54c-.473.34-.88.76-1.183 1.262-.115-.49-.12-1.013.05-1.487.164-.467.2-.916.218-1.402l.928 1.08z"/></svg>