<?xml version="1.0" encoding="UTF-8" standalone="no"?>
<!-- Generator: Adobe Illustrator 19.2.0, SVG Export Plug-In . SVG Version: 6.00 Build 0)  -->

<svg
   xmlns:dc="http://purl.org/dc/elements/1.1/"
   xmlns:cc="http://creativecommons.org/ns#"
   xmlns:rdf="http://www.w3.org/1999/02/22-rdf-syntax-ns#"
   xmlns:svg="http://www.w3.org/2000/svg"
   xmlns="http://www.w3.org/2000/svg"
   xmlns:sodipodi="http://sodipodi.sourceforge.net/DTD/sodipodi-0.dtd"
   xmlns:inkscape="http://www.inkscape.org/namespaces/inkscape"
   version="1.1"
   id="Layer_1"
   x="0px"
   y="0px"
   viewBox="0 0 120 60"
   xml:space="preserve"
   sodipodi:docname="centurylink-ar21.svg"
   width="120"
   height="60"
   inkscape:version="0.92.3 (2405546, 2018-03-11)"><metadata
   id="metadata65"><rdf:RDF><cc:Work
       rdf:about=""><dc:format>image/svg+xml</dc:format><dc:type
         rdf:resource="http://purl.org/dc/dcmitype/StillImage" /><dc:title></dc:title></cc:Work></rdf:RDF></metadata><defs
   id="defs63" /><sodipodi:namedview
   pagecolor="#ffffff"
   bordercolor="#666666"
   borderopacity="1"
   objecttolerance="10"
   gridtolerance="10"
   guidetolerance="10"
   inkscape:pageopacity="0"
   inkscape:pageshadow="2"
   inkscape:window-width="1920"
   inkscape:window-height="1001"
   id="namedview61"
   showgrid="false"
   inkscape:zoom="6.4351463"
   inkscape:cx="39.629401"
   inkscape:cy="18.721565"
   inkscape:window-x="-9"
   inkscape:window-y="-9"
   inkscape:window-maximized="1"
   inkscape:current-layer="Layer_1" />
<style
   type="text/css"
   id="style2">
	.st0{fill:#8DC63F;}
	.st1{fill:#007F3E;}
	.st2{font-family:'Montserrat-Light';}
	.st3{font-size:8.4975px;}
</style>
























<g
   id="g972"
   transform="translate(0,0.1041478)"><g
     transform="translate(-29.65,10.988201)"
     id="g945"><path
       inkscape:connector-curvature="0"
       d="m 46.8,32.6 c -0.1,-1.3 -1.5,-2.1 -2.9,-2.1 -3.3,0 -3.9,3 -3.9,5.4 0,2.8 0.8,5.4 3.8,5.4 1.4,0 2.7,-0.7 3,-2.1 h 2 c -0.2,2.3 -2.5,3.8 -5.1,3.8 -4,0 -5.6,-3.2 -5.6,-7 0,-3.3 1.5,-7.2 6,-7 2.6,0.1 4.5,1.3 4.7,3.8 h -2 z"
       id="path8" /><path
       inkscape:connector-curvature="0"
       d="m 52,38.2 c -0.1,1.6 0.5,3.3 2.4,3.3 1.4,0 2.1,-0.5 2.3,-1.9 h 1.9 c -0.3,2.1 -1.9,3.2 -4.2,3.2 -3,0 -4.2,-2.1 -4.2,-4.9 0,-2.7 1.4,-5 4.4,-5 2.8,0.1 4.1,1.8 4.1,4.4 v 0.9 z M 56.8,37 c 0,-1.6 -0.7,-2.8 -2.4,-2.8 -1.5,0 -2.4,1.3 -2.4,2.8 z"
       id="path10" /><path
       inkscape:connector-curvature="0"
       d="m 62.2,34.6 v 0 c 0.6,-1.2 1.9,-1.7 2.9,-1.7 0.7,0 3.6,0.2 3.6,3.2 v 6.5 h -1.8 v -5.9 c 0,-1.6 -0.7,-2.4 -2.2,-2.4 0,0 -1,-0.1 -1.7,0.7 -0.3,0.3 -0.7,0.7 -0.7,2.5 v 5.1 h -1.8 v -9.4 h 1.7 z"
       id="path12" /><path
       inkscape:connector-curvature="0"
       d="m 71.4,33.2 v -2 l 1.8,-0.6 v 2.6 h 2.2 v 1.3 h -2.2 v 6 c 0,0.7 0.5,1 1.2,1 0.3,0 0.7,0 0.9,-0.1 v 1.4 c -0.4,0 -0.8,0.1 -1.2,0.1 -0.4,0 -0.8,0 -1.2,-0.1 -0.3,-0.1 -0.7,-0.2 -1,-0.6 -0.3,-0.4 -0.4,-0.5 -0.4,-1.7 v -5.9 h -1.6 v -1.3 h 1.5 z"
       id="path14" /><path
       inkscape:connector-curvature="0"
       d="M 83.2,33.2 H 85 v 9.4 h -1.7 v -1.4 0 c -0.7,1.2 -1.9,1.7 -3.2,1.7 -2,0 -3.1,-1.5 -3.1,-3.4 v -6.3 h 1.8 v 5.5 c 0,1.6 0.4,2.8 2.1,2.8 0.7,0 1.7,-0.4 2.1,-1.3 0.3,-0.9 0.4,-2 0.4,-2.2 v -4.8 z"
       id="path16" /><path
       inkscape:connector-curvature="0"
       d="m 89.1,42.6 h -1.8 v -9.4 h 1.8 v 1.8 0 c 0.3,-1.3 1.5,-1.9 2.7,-1.9 0.2,0 0.4,0 0.6,0 v 1.7 C 92.2,34.7 91.9,34.7 91.6,34.7 89.4,34.8 89,36 89,38 v 4.6 z"
       id="path18" /><polygon
       points="97.4,22.5 93.5,13.2 95.4,13.2 98.4,20.6 101.4,13.2 103.3,13.2 97.8,26.2 95.9,26.2 "
       id="polygon20"
       transform="translate(0,20)" /><polygon
       points="113.3,20.3 113.3,22.6 104.6,22.6 104.6,9.1 107.5,9.1 107.5,20.3 "
       id="polygon22"
       transform="translate(0,20)" /><path
       inkscape:connector-curvature="0"
       d="m 118,31.5 h -3 v -2.4 h 3 z m -0.1,11.1 h -2.8 v -9.4 h 2.8 z"
       id="path24" /><path
       inkscape:connector-curvature="0"
       d="m 123.4,34.3 v 0 c 0.6,-0.8 1.5,-1.4 2.9,-1.4 0.9,0 2.7,0.7 3.1,2.1 0.2,0.6 0.2,1.2 0.2,1.5 v 6.1 h -2.8 V 37 c 0,-1 -0.3,-2.1 -1.7,-2.1 -0.9,0 -1.6,0.8 -1.7,2.1 v 5.6 h -2.8 v -9.4 h 2.8 z"
       id="path26" /><polygon
       points="132.3,22.6 132.3,9.1 135.1,9.1 135.1,17 137.9,13.1 141,13.1 137.8,17.2 141.2,22.6 137.9,22.6 135.1,17.4 135.1,17.5 135.1,22.6 "
       id="polygon28"
       transform="translate(0,20)" /></g><g
     transform="matrix(1.217137,0,0,1.217137,41.316947,-23.199801)"
     id="g932"><path
       style="fill:#8dc63f"
       inkscape:connector-curvature="0"
       class="st0"
       d="m 3.3,44.3 c 1,1.4 2.2,2.6 3.6,3.6 l 4.9,-8.4 z"
       id="path30" /><path
       style="fill:#8dc63f"
       inkscape:connector-curvature="0"
       class="st0"
       d="m 6.9,23.8 c -1.4,1 -2.6,2.2 -3.6,3.6 l 8.4,4.9 z"
       id="path32" /><path
       style="fill:#8dc63f"
       inkscape:connector-curvature="0"
       class="st0"
       d="M 21.5,22.5 C 20,21.8 18.4,21.4 16.6,21.2 v 9.7 z"
       id="path34" /><path
       style="fill:#8dc63f"
       inkscape:connector-curvature="0"
       class="st0"
       d="m 9.2,49.2 c 1.5,0.7 3.1,1.1 4.9,1.3 v -9.7 z"
       id="path36" /><path
       style="fill:#8dc63f"
       inkscape:connector-curvature="0"
       class="st0"
       d="M 27.4,27.4 C 26.4,26 25.2,24.8 23.8,23.8 L 19,32.2 Z"
       id="path38" /><path
       style="fill:#8dc63f"
       inkscape:connector-curvature="0"
       class="st0"
       d="m 23.8,47.9 c 1.4,-1 2.6,-2.2 3.6,-3.6 L 19,39.4 Z"
       id="path40" /><path
       style="fill:#007f3e"
       inkscape:connector-curvature="0"
       class="st1"
       d="m 30,34.5 c -0.2,-1.7 -0.6,-3.4 -1.3,-4.9 l -8.4,4.9 z"
       id="path42" /><path
       style="fill:#007f3e"
       inkscape:connector-curvature="0"
       class="st1"
       d="M 0.7,37.2 C 0.9,38.9 1.3,40.5 2,42 l 8.4,-4.9 H 0.7 Z"
       id="path44" /><path
       style="fill:#007f3e"
       inkscape:connector-curvature="0"
       class="st1"
       d="m 2,29.7 c -0.7,1.5 -1.1,3.1 -1.3,4.9 h 9.7 z"
       id="path46" /><path
       style="fill:#007f3e"
       inkscape:connector-curvature="0"
       class="st1"
       d="m 20.3,37.2 8.4,4.9 C 29.4,40.6 29.8,39 30,37.2 Z"
       id="path48" /><path
       style="fill:#007f3e"
       inkscape:connector-curvature="0"
       class="st1"
       d="m 14,21.2 c -1.7,0.2 -3.4,0.6 -4.9,1.3 l 4.9,8.4 z"
       id="path50" /><path
       style="fill:#007f3e"
       inkscape:connector-curvature="0"
       class="st1"
       d="m 16.7,50.5 c 1.7,-0.2 3.4,-0.6 4.9,-1.3 l -4.9,-8.4 z"
       id="path52" /></g></g>



</svg>