<svg xmlns="http://www.w3.org/2000/svg" width="64" height="64"><g transform="matrix(2.850356 0 0 2.850356 -9.038259 -55.986923)"><g fill="#284b84"><path d="M10.232 22.384l1.08-1.08 8.643 8.643-1.08 1.08zm.002 17.282l8.643-8.643 1.08 1.08-8.643 8.643z"/><path d="M18.874 31.024l1.08-1.08 1.08 1.08-1.08 1.08z"/></g><g fill="#51bb8d"><path d="M21.035 31.027l3.237-3.237-6.48-6.48a4.58 4.58 0 0 0-6.481 0l8.644 8.644z"/><path d="M24.28 34.264a4.58 4.58 0 0 0 0-6.481l-3.237 3.237z"/></g><path d="M18.872 33.183l2.163-2.156 3.244 3.237z" fill="#6e4698"/><path d="M8.823 29.62l8.632-8.632 1.077 1.077L9.9 30.697zm.004 2.162l1.077-1.077 8.632 8.632-1.077 1.077zm-1.084-1.08l1.077-1.077 1.077 1.077L8.82 31.78z" fill="#4572b5"/><path d="M7.743 30.704l-3.24 3.24 6.472 6.472a4.58 4.58 0 0 0 6.472 0L8.825 31.78zM4.5 27.465a4.58 4.58 0 0 0 0 6.472l3.24-3.24z" fill="#ed4c40"/><path d="M8.825 29.622l8.637-8.637a4.58 4.58 0 0 0-6.472 0l-6.472 6.472 3.24 3.24z" fill="#f9aa40"/><path d="M9.9 28.547l-2.157 2.157-3.233-3.24z" fill="#f48c45"/><path d="M19.954 32.108l-8.637 8.637a4.58 4.58 0 0 0 6.482 0l6.48-6.48-3.237-3.237z" fill="#9c73b0"/></g></svg>