<?xml version="1.0" encoding="UTF-8" standalone="no"?>
<!-- Generator: Adobe Illustrator 17.1.0, SVG Export Plug-In . SVG Version: 6.00 Build 0)  -->

<svg
   xmlns:dc="http://purl.org/dc/elements/1.1/"
   xmlns:cc="http://creativecommons.org/ns#"
   xmlns:rdf="http://www.w3.org/1999/02/22-rdf-syntax-ns#"
   xmlns:svg="http://www.w3.org/2000/svg"
   xmlns="http://www.w3.org/2000/svg"
   xmlns:sodipodi="http://sodipodi.sourceforge.net/DTD/sodipodi-0.dtd"
   xmlns:inkscape="http://www.inkscape.org/namespaces/inkscape"
   version="1.1"
   id="Layer_1"
   x="0px"
   y="0px"
   viewBox="0 0 64.000002 63.999997"
   enable-background="new 0 0 226.9 68.3"
   xml:space="preserve"
   sodipodi:docname="twilio-icon.svg"
   width="64"
   height="64"
   inkscape:version="0.92.2 (5c3e80d, 2017-08-06)"><metadata
     id="metadata33"><rdf:RDF><cc:Work
         rdf:about=""><dc:format>image/svg+xml</dc:format><dc:type
           rdf:resource="http://purl.org/dc/dcmitype/StillImage" /><dc:title></dc:title></cc:Work></rdf:RDF></metadata><defs
     id="defs31" /><sodipodi:namedview
     pagecolor="#ffffff"
     bordercolor="#666666"
     borderopacity="1"
     objecttolerance="10"
     gridtolerance="10"
     guidetolerance="10"
     inkscape:pageopacity="0"
     inkscape:pageshadow="2"
     inkscape:window-width="1920"
     inkscape:window-height="1001"
     id="namedview29"
     showgrid="false"
     inkscape:zoom="1.4940503"
     inkscape:cx="31.792772"
     inkscape:cy="34.150002"
     inkscape:window-x="-9"
     inkscape:window-y="-9"
     inkscape:window-maximized="1"
     inkscape:current-layer="Layer_1" /><g
     id="g26"
     transform="matrix(0.93704246,0,0,0.93704246,0,0.04662375)"><path
       d="M 34.1,0 C 15.3,0 0,15.3 0,34.1 0,52.9 15.3,68.2 34.1,68.2 53,68.3 68.3,53 68.3,34.1 68.3,15.2 53,0 34.1,0 Z m 0,59.3 C 20.3,59.3 9,48 9,34.1 9,20.3 20.3,9 34.1,9 48,9 59.3,20.3 59.3,34.1 59.3,48 48,59.3 34.1,59.3 Z"
       id="path16"
       inkscape:connector-curvature="0"
       style="fill:#e31e26" /><circle
       cx="42.599998"
       cy="25.6"
       r="7.0999999"
       id="circle18"
       style="fill:#e31e26" /><circle
       cx="42.599998"
       cy="42.599998"
       r="7.0999999"
       id="circle20"
       style="fill:#e31e26" /><circle
       cx="25.6"
       cy="42.599998"
       r="7.0999999"
       id="circle22"
       style="fill:#e31e26" /><circle
       cx="25.6"
       cy="25.6"
       r="7.0999999"
       id="circle24"
       style="fill:#e31e26" /></g></svg>