<svg xmlns="http://www.w3.org/2000/svg" width="120" height="60" viewBox="9.742 13.714 114.822 54.56"><g transform="translate(-1.997)"><path d="M98.8 40.16c.005-1.336.337-2.556 1.428-3.422 1.653-1.3 4.504-.972 5.673.673.756 1.063.868 2.28.7 3.543-.15 1.188-.64 2.175-1.7 2.817-1.404.86-3.578.735-4.797-.288-.9-.745-1.24-1.758-1.322-2.882-.01-.146-.001-.293-.001-.44zm6.238.001c.016-.395-.048-.782-.147-1.16-.28-1.06-.973-1.64-2.052-1.726-.9-.074-1.703.396-2.076 1.308a3.95 3.95 0 0 0 .042 3.208c.66 1.454 2.637 1.673 3.617.435.48-.605.592-1.323.615-2.064zm-59.266.024c-.023.566.052 1.132.308 1.663.383.793 1.032 1.132 1.896 1.12a1.87 1.87 0 0 0 1.778-1.13l.205-.47c.2-.436.5-.582.913-.448.273.1.464.476.396.862-.224 1.268-1.012 2.086-2.217 2.375-2.86.686-4.763-.904-4.944-3.612-.073-1.095.097-2.145.756-3.07 1.24-1.74 3.95-2.077 5.564-.676.423.367.735.82.834 1.4.07.396-.1.708-.418.845-.335.14-.653.03-.882-.3l-.325-.53c-.846-1.328-2.7-1.277-3.473.098-.328.583-.4 1.222-.4 1.896zm63.628-1.023c.405-.444.83-.8 1.412-.902 1.205-.2 2.35.4 2.743 1.57.42 1.24.363 2.45-.416 3.568-.63.905-2.458 1.388-3.518.212l-.283-.3-.017 2.74h-1.455l-.01-.672.001-6.135c0-.158.01-.32.038-.474.074-.412.285-.6.656-.606a.78.78 0 0 1 .78.594c.028.116.042.235.07.395zm2.93 2.053c.001-.383-.058-.754-.224-1.103-.422-.888-1.44-1.076-2.157-.4-.612.578-.718 2.024-.204 2.766.64.923 1.892.82 2.37-.196.16-.337.206-.7.216-1.07zm-38.404-.827c.004-.833-.268-1.112-1.047-1.138-.64-.02-1.152.178-1.47.764-.238.44-.515.478-.88.323-.337-.142-.42-.53-.224-.954.275-.593.8-.878 1.394-1.034.683-.18 1.384-.18 2.076-.057 1.1.195 1.598.776 1.64 1.914l.01 1.32c-.023.678.026 1.346.23 1.993.107.337-.04.545-.296.707-.27.17-.54.135-.78-.07-.217-.184-.34-.445-.527-.68-.73.56-1.533.906-2.475.813-.535-.053-1-.265-1.317-.704-.7-.94-.246-2.22.902-2.532l2.534-.582.23-.083zm.014.936l-1.805.405c-.47.12-.716.45-.676.83s.4.688.842.732c.894.086 1.58-.5 1.638-1.38.012-.18.002-.364.002-.587zm14.162.352c.045.643.26 1.207.885 1.484s1.22.164 1.75-.266l.58-.507a.53.53 0 0 1 .707-.035c.236.167.202.408.124.63-.174.495-.566.793-1.02 1-.922.42-1.876.44-2.82.1s-1.5-1.043-1.673-2.016c-.228-1.286-.066-2.5 1.06-3.336 1.176-.882 3.752-.797 4.446 1.3a2.54 2.54 0 0 1 .097.39c.128.797-.13 1.14-.932 1.166l-2.8.03c-.13.001-.268-.035-.413.045zm2.7-.906c-.023-.985-.57-1.56-1.4-1.513-.77.045-1.3.704-1.226 1.513H90.8zm-38.54.5c.008-1.846 1.205-3.054 3.024-3.05 1.794.004 3 1.237 2.995 3.037-.015 1.893-1.202 3.076-3.078 3.07-1.755-.007-2.948-1.246-2.94-3.055zm4.518-.226a2.05 2.05 0 0 0-.474-1.296c-.612-.698-1.842-.568-2.237.262-.368.775-.403 1.585-.032 2.374a1.3 1.3 0 0 0 1.179.801c.588.028 1-.225 1.293-.73.215-.386.256-.8.27-1.4zm24.626-1.867c.624-.775 1.408-1.068 2.353-.92a1.79 1.79 0 0 1 1.523 1.525c.135.926.033 1.86.06 2.8v.845c-.007.532-.3.874-.727.886-.46.013-.77-.316-.778-.873l-.005-2.205c-.003-.354.003-.7-.08-1.058-.18-.74-.795-1.028-1.48-.68-.43.217-.695.57-.756 1.058-.107.867-.033 1.737-.055 2.606-.004.17.004.345-.025.513a.69.69 0 0 1-.704.619c-.364.007-.658-.212-.74-.583-.04-.177-.048-.364-.048-.547l-.002-4.08c.01-.613.245-.926.7-.937.444-.01.7.295.738.9.002.03.014.06.033.134zM60.87 39.16a2.33 2.33 0 0 1 2.02-.94 1.86 1.86 0 0 1 1.866 1.797c.077 1.126.018 2.253.034 3.38.001.037-.005.073-.01.1-.058.52-.344.8-.782.795-.4-.013-.704-.322-.716-.82l-.012-2.5a4.35 4.35 0 0 0-.06-.73c-.144-.843-.887-1.174-1.613-.7a1.35 1.35 0 0 0-.664 1.16l-.017 2.4a3.7 3.7 0 0 1-.052.584.66.66 0 0 1-.641.599c-.36.03-.6-.134-.756-.462-.065-.148-.084-.304-.084-.466v-4.374a1.1 1.1 0 0 1 .075-.43.64.64 0 0 1 .637-.41c.27 0 .5.1.606.392.067.193.107.396.17.634zm56.35 5.142c-.532.016-1.134-.075-1.673-.404-.444-.27-.783-.633-.8-1.198-.003-.268.108-.468.382-.558s.506-.037.676.208l.3.424c.402.535 1.304.734 1.9.414.224-.122.395-.285.383-.574-.01-.28-.158-.446-.397-.565-.387-.192-.807-.278-1.217-.396-.365-.105-.727-.217-1.067-.387-1.16-.582-1.24-1.927-.164-2.657.887-.6 2.676-.56 3.523.083a1.32 1.32 0 0 1 .493.668c.083.272.05.525-.2.7-.263.18-.556.195-.814-.025-.14-.118-.26-.26-.378-.4a1.34 1.34 0 0 0-1.591-.375c-.214.096-.373.235-.384.488-.01.243.143.387.337.48.423.2.9.26 1.334.4.4.12.822.232 1.194.45 1.092.64 1.115 2.132.044 2.818-.47.3-.993.424-1.884.425zM68 38.328l.718.037c.3.042.5.215.504.533.004.308-.198.464-.48.505-.227.033-.46.035-.693.052l.008 3.198c.01.438.22.564.662.487l.397-.07c.248-.048.45.04.548.263.1.247.046.484-.176.655-.53.4-1.96.4-2.483-.028-.392-.315-.477-.757-.484-1.217l-.016-3.333c-.628-.08-.83-.22-.837-.56s.192-.47.85-.547l.004-1.34c.02-.492.315-.803.73-.814.396-.01.716.307.744.8.026.45.006.905.006 1.4zm27 .726l.162-.222c.52-.74 1.397-.886 2.143-.358.317.225.42.56.264.86-.153.293-.44.392-.815.282-1.123-.332-1.64.023-1.7 1.222l-.02 2.387a2.22 2.22 0 0 1-.032.4c-.082.433-.32.65-.707.656-.378.007-.648-.212-.748-.623a1.71 1.71 0 0 1-.042-.399l.001-4.042a2.41 2.41 0 0 1 .062-.508c.075-.338.28-.526.64-.538.375-.012.603.152.694.514l.096.37zm-18.04 2.183l.006-2.275c.02-.616.495-.923 1.03-.715.223.087.372.24.423.47a2.35 2.35 0 0 1 .048.51l.001 4-.015.33c-.068.496-.354.766-.784.746-.398-.018-.692-.32-.704-.8l-.005-2.275z" fill="#040404" fill-rule="evenodd"/><g transform="matrix(.190884 0 0 .190884 -10.064614 20.495475)"><linearGradient y2="100.912" x2="230.115" y1="74.57" x1="230.115" gradientUnits="userSpaceOnUse" id="A"><stop offset="0" stop-color="#b9e8f8"/><stop offset="1" stop-color="#3a6bbf"/></linearGradient><path d="M221.718 81.156c1.446 4.337-3.212 19.756 1.125 19.756 7.885 0 15.1-19.596 16.384-24.415s-18.926.408-17.5 4.66z" fill="url(#A)"/><linearGradient y2="49.407" x2="293.998" y1="49.407" x1="198.885" gradientUnits="userSpaceOnUse" id="B"><stop offset=".362" stop-color="#1695e8"/><stop offset="1" stop-color="#236eda"/></linearGradient><path d="M293.998 45.417c0-6.385-27.297-5.338-31.742-7.35-3.63-1.642-.354-4.956-13.132-14.757-9.136-7.007-52.5 5.7-50.147 15.75 6.666 28.568 35.042 40.564 41.294 38.16 6.264-2.4 16.307-5.3 25.298-6.505 8.914-1.205 14.817-1.566 17.588-5.782 1.248-1.9 1.283-3.227-.603-3.855-2.168-.723-17.347-2.47-17.347-4.758 0-1.085 28.8-3.916 28.8-10.903z" fill="url(#B)"/><linearGradient y2="53.431" x2="257.631" y1="53.431" x1="191.031" gradientUnits="userSpaceOnUse" id="C"><stop offset=".056" stop-color="#12b5f5"/><stop offset="1" stop-color="#3973e1"/></linearGradient><path d="M249.606 23.472c-8.943-7.253-33.417-5.227-56.44 5.854-9.353 4.375 14.803 60.842 19.2 58.244 19.408-10.395 63.253-43.008 37.25-64.098z" fill="url(#C)"/><linearGradient y2="80.059" x2="254.617" y1="80.059" x1="194.819" gradientUnits="userSpaceOnUse" id="D"><stop offset=".199" stop-color="#10c4ea"/><stop offset="1" stop-color="#2060e4"/></linearGradient><path d="M200.52 75.662c-11.002 2.894-5.56 15.266 11.836 11.907 5.335-1.702 21.662-7.945 27.914-10.35 3.765-1.448 8.898-3.067 14.347-4.392-16.833-1.357-37.482-1.537-54.097 2.834z" fill="url(#D)"/><linearGradient y2="22.763" x2="183.847" y1="195.519" x1="183.847" gradientUnits="userSpaceOnUse" id="E"><stop offset=".189" stop-color="#07cdf3"/><stop offset=".378" stop-color="#01e0ff"/><stop offset=".684" stop-color="#0dbcfe"/><stop offset="1" stop-color="#1896fe"/></linearGradient><path d="M180.76 155.042c-11.95-14.07-1.024-51.5 9.384-58.728 6.144 4.096 1.337 21.745 6.88 21.745 6.686 0 26.66-46.317 14.878-73.124-3.396-7.724-11.842-13.43-21.768-16.704-17.208-5.677-36.9-7.34-39.5-3.053-4.796 7.97 17.95 15.42 16.504 21.685-25.057 26.502-24.093 84.423 3.855 115.02-10.312 7.952-10.433 27.178 1.325 33.634 0-2.216.3-6.215 1.446-8.433 1.4-2.7 6.58-4.232 8.914-11.805 1.976-6.4-1.205-9.782-2.457-11.324 1.83.096 5.54 3.445 10.36 3.23 9.638-.434 22.07-13.347 27.948-12.963-18.07-11.66-31.417-4.866-37.778.82z" fill="url(#E)"/><linearGradient y2="91.907" x2="167.878" y1="171.572" x1="213.873" gradientUnits="userSpaceOnUse" id="F"><stop offset="0" stop-color="#139bd3"/><stop offset=".439" stop-color="#03eef8"/><stop offset="1" stop-color="#08d3f8"/></linearGradient><path d="M180.74 155.093c-11.95-14.07-1.024-51.5 9.385-58.728 6.143 4.096 1.337 21.744 6.878 21.744 3.657 0 11.148-13.63 15.334-30.5l.05-.015c1.288-4.738 2.216-9.65 2.705-14.55-17.146 1.98-32.654 7.148-40.013 18.3-16.198 24.57-11.262 45.17-4.577 70.028l.48.543c-10.312 7.95-10.433 27.177 1.325 33.634 0-2.217.3-6.215 1.445-8.433 1.4-2.702 6.58-4.23 8.915-11.805 1.976-6.4-1.204-9.782-2.458-11.324 1.832.096 5.54 3.445 10.36 3.23 9.637-.434 22.07-13.348 27.95-12.964-18.07-11.66-31.417-4.865-37.778.82z" fill="url(#F)"/><path d="M197.022 118.06c-5.542 0-.735-17.648-6.88-21.745 5.482-5.554 17.705-6.072 22.093-8.67l.25-.125c-4.185 16.86-11.807 30.54-15.465 30.54z" fill="#61f4ff" fill-rule="evenodd"/><linearGradient y2="16.865" x2="158.863" y1="40.247" x1="182.245" gradientUnits="userSpaceOnUse" id="G"><stop offset=".061" stop-color="#339bff"/><stop offset=".281" stop-color="#3091ff"/></linearGradient><path d="M193.166 29.326l-3.033-1.093c-17.208-5.677-36.9-7.34-39.5-3.053-4.796 7.97 17.95 15.42 16.504 21.685 10.273-10.196 16.665-13.164 26.02-17.54z" fill="url(#G)"/></g></g></svg>