<svg xmlns="http://www.w3.org/2000/svg" width="745" height="1053"><style><![CDATA[.B{stroke:#fff}.C{stroke-linecap:round}.D{stroke-linejoin:round}.E{stroke-width:14.487}]]></style><path d="M71.038 202.115H26.6V157.42h46.85c17.147 0 25.722 7.565 25.722 22.693 0 14.67-9.38 22.002-28.133 22.002m31.938-45.218c-6.1-5.453-14.6-8.18-25.558-8.18l-63.638.353v106.914H26.6l-.118-45.517h47.353c11.876 0 21.222-2.726 28.043-8.178s10.23-13.017 10.23-22.695-3.045-17.242-9.133-22.696zm82.986 76.646c-1.3 3.6-3.33 6.64-6.085 9.094-5.742 5.607-14.504 8.406-26.292 8.406-10.64 0-18.812-2.722-24.512-8.174s-8.553-12.74-8.553-21.876c0-4.758.746-8.98 2.238-12.664s3.654-6.795 6.486-9.327c5.894-5.373 14.007-8.06 24.34-8.06 22.886 0 34.33 10.02 34.33 30.052 0 4.76-.653 8.943-1.953 12.55m2.325-39.44c-7.815-7.125-19.382-10.688-34.702-10.688-14.48 0-25.665 3.64-33.555 10.92-7.123 6.587-10.685 15.474-10.685 26.66 0 11.108 3.676 20.07 11.03 26.887 4.06 3.68 8.8 6.34 14.192 7.987s11.74 2.47 19.017 2.47c15.243 0 26.85-3.523 34.817-10.57 7.123-6.434 10.687-15.357 10.687-26.774 0-11.5-3.602-20.453-10.803-26.9zM285.3 236.63c0 14.392-12.894 21.586-38.682 21.586-7.882 0-14.52-.5-19.916-1.502s-9.775-2.66-13.143-4.972c-2.6-1.763-4.667-4.06-6.198-6.893s-2.524-6.394-2.983-10.68l11.997-.115c0 5.664 2.098 9.835 6.3 12.516 4.506 3.218 12.487 4.824 23.944 4.824 18.023 0 27.035-4.514 27.035-13.55 0-5.28-3.022-8.916-9.067-10.908-1.226-.383-8.514-1.396-21.868-3.042s-21.674-3.12-24.962-4.422c-7.117-2.832-10.674-7.923-10.674-15.273 0-7.196 3.177-12.556 9.536-16.077 3.14-1.453 7.067-2.583 11.78-3.388s10.17-1.207 16.376-1.207c24.82 0 37.232 7.8 37.232 23.362h-11.4c0-10.948-8.726-16.423-26.174-16.423-8.876 0-15.497 1.1-19.86 3.33s-6.542 5.628-6.542 10.22c0 4.288 2.946 7.388 8.84 9.3 3.445.997 11.365 2.146 23.765 3.447 11.098.996 18.713 2.4 22.847 4.25 7.883 3.062 11.826 8.268 11.826 15.614zm47.125 19.5l-4.88.686-3.043.227c-7.8 0-13.444-1.13-16.9-3.396s-5.18-6.232-5.18-11.9V192.94H288.18v-7.175h14.118l.114-23.054h10.938v23.054h19.047v7.292l-19.047-.117v47.473c0 3.535.938 5.974 2.814 7.32s5.224 2.015 10.05 2.015c.7.078 1.456.055 2.297-.075s2.105-.42 3.8-.864l.116 7.32zm75.642-16.188c-2.985 2.447-6.388 4.32-10.215 5.624s-8.224 1.95-13.197 1.95c-22.877 0-34.313-9.448-34.313-28.344 0-8.797 2.925-15.68 8.78-20.654s14.096-7.46 24.73-7.46c10.7 0 18.84 2.507 24.388 7.517s8.322 11.725 8.322 20.138c0 9.18-2.832 16.254-8.494 21.228m19.433-54.128h-10.94l-.116 12.06c-4.822-4.897-8.27-7.993-10.334-9.294-6.125-3.365-14.048-5.048-23.77-5.048-14.24 0-25.112 3.252-32.613 9.757-7.12 5.97-10.678 14.616-10.678 25.94 0 5.587.9 10.58 2.7 14.978s4.428 8.13 7.877 11.2c7.513 6.273 18.13 9.412 31.856 9.412 16.483 0 28.175-4.508 35.076-13.527v12.485c0 7.96-2.5 14.125-7.522 18.487s-13.263 6.548-24.746 6.548c-10.795 0-18.488-1.488-23.08-4.46-3.446-2.285-5.82-6.25-7.12-11.9h-11.25c1.224 7.877 4.556 13.574 9.993 17.1 6.28 4.052 16.885 6.08 31.82 6.08 28.563 0 42.847-10.62 42.847-31.857v-67.952zm59.165 7.107c-3.288-.534-6.348-.803-9.177-.803-17.98 0-26.967 9.86-26.967 29.576v34.3H439.7l-.118-70.162 10.94.108v12.518h.574c1.835-4.932 4.743-8.673 8.722-11.217 4.36-2.466 10.86-3.7 19.506-3.7h7.343v9.4zm10.172 23.545c1.377-7.974 4.476-14.147 9.295-18.52 3.138-2.53 6.698-4.43 10.675-5.693s8.46-1.9 13.433-1.9c9.718 0 17.653 2.665 23.815 7.995s9.237 11.368 9.237 18.117H496.84m67.526-21.644c-3.83-3.84-8.58-6.68-14.247-8.524s-12.3-2.766-19.874-2.766c-14.173 0-25.165 3.295-32.98 9.884s-11.72 15.55-11.72 26.9 3.755 20.337 11.256 27c8.115 7.355 19.563 11.03 34.343 11.03 5.892 0 11.346-.67 16.362-2.002s9.4-3.224 13.152-5.664c6.585-4.73 10.754-10.564 12.52-17.503h-11.825c-4.058 11.996-14.158 17.994-30.305 17.994-11.404 0-20.17-2.932-26.3-8.8-5.282-5.028-7.92-11.542-7.92-19.545h77.98c0-11.902-3.48-21.235-10.455-27.994z" fill="#231f20"/><path d="M690.38 227.322c0 20.83-16.8 31.248-50.402 31.248-20.133 0-34.828-3.586-44.088-10.765-7.58-5.897-11.366-14.9-11.366-26.988h13.527c0 19.447 13.972 29.167 41.924 29.167 13.4 0 23.1-2 29.064-5.967 5.054-3.516 7.58-9.024 7.58-16.52 0-7.42-3.446-12.622-10.34-15.607-3.906-1.606-13.442-3.635-28.605-6.083-19.067-2.907-31.433-5.814-37.1-8.72-8.192-4.285-12.3-11.553-12.3-21.805 0-9.562 3.486-16.677 10.455-21.345 7.5-5.125 20.367-7.7 38.595-7.7 32.93 0 49.397 10.938 49.397 32.812h-13.643c0-16.386-12.228-24.578-36.68-24.578-12.264 0-21.233 1.648-26.904 4.94-5.368 3.523-8.047 8.693-8.047 15.5 0 7.123 3.446 12.14 10.342 15.05 3.672 1.686 14.47 4.022 32.394 7 16.85 2.53 28.22 5.476 34.12 8.846 8.043 4.136 12.063 11.3 12.063 21.485zm109.875 10.63c-5.056 4.05-10.768 7.086-17.13 9.114s-13.5 3.038-21.384 3.038c-16.097 0-29.106-4.338-39.037-13.013-9.922-8.674-14.884-20.236-14.884-34.682 0-15.058 4.92-26.8 14.77-35.2s22.9-12.612 39.15-12.612c16.478 0 29.435 4.395 38.862 13.185 4.978 4.284 8.66 9.3 11.038 15.02s3.565 12.27 3.565 19.606c0 14.982-4.984 26.828-14.95 35.543m7.2 7.1c7.05-4.97 12.263-10.992 15.636-18.068s5.062-15.244 5.062-24.5c0-16.6-5.518-29.912-16.546-39.933-5.897-5.508-13.022-9.6-21.37-12.278s-17.886-4.017-28.606-4.017c-20.833 0-37.184 5.05-49.054 15.147s-17.805 23.8-17.805 41.077c0 16.827 5.987 30.407 17.97 40.73s28.35 15.488 49.1 15.488c8.114 0 15.195-.55 21.243-1.647s11.18-2.786 15.392-5.06l19.983 13.85 8.345-7.666-19.35-13.125zm121.988 10.932h-92.426V148.948l12.705-.23v98.328h79.837l-.116 8.94z" fill="#367faf"/><path d="M562.63 714.4c3.29-27.43 2.306-31.45 22.736-27l5.187.455c15.71.715 36.26-2.526 48.333-8.135 26-12.06 41.4-32.195 15.775-26.903-58.456 12.06-62.476-7.737-62.476-7.737 61.727-91.587 87.53-207.855 65.26-236.313-60.75-77.622-165.906-40.916-167.665-39.963l-.56.103c-11.554-2.396-24.48-3.828-39-4.062-26.45-.435-46.522 6.935-61.747 18.483 0 0-187.59-77.285-178.865 97.196C211.46 517.636 262.8 761.38 324.05 687.76c22.385-26.92 44.015-49.683 44.015-49.683 10.74 7.136 23.6 10.778 37.09 9.47l1.042-.89c-.327 3.342-.182 6.612.418 10.48-15.775 17.627-11.138 20.724-42.68 27.216-31.9 6.577-13.163 18.287-.925 21.345 14.838 3.712 49.167 8.968 72.362-23.504l-.923 3.706c6.19 4.95 5.77 35.586 6.648 57.474s2.344 42.316 6.807 54.358 9.727 43.06 51.182 34.176c34.645-7.423 61.132-18.108 63.547-117.51" fill="#231f20" stroke="#231f20" stroke-width="43.462"/><path d="M654.665 652.808c-58.46 12.06-62.48-7.737-62.48-7.737 61.727-91.59 87.53-207.86 65.262-236.318-60.748-77.62-165.91-40.91-167.663-39.958l-.565.1c-11.554-2.397-24.48-3.826-39.006-4.062-26.45-.434-46.516 6.934-61.74 18.48 0 0-187.596-77.283-178.87 97.196 1.854 37.124 53.203 280.87 114.444 207.247 22.385-26.92 44.013-49.683 44.013-49.683 10.74 7.136 23.602 10.778 37.083 9.47l1.047-.89c-.325 3.342-.175 6.612.42 10.48-15.776 17.627-11.142 20.724-42.68 27.216-31.914 6.577-13.166 18.287-.926 21.345 14.84 3.712 49.17 8.968 72.362-23.504l-.924 3.706c6.183 4.95 10.524 32.206 9.795 56.913s-1.212 41.67 3.657 54.92 9.725 43.06 51.2 34.176c34.645-7.423 52.598-26.664 55.096-58.755 1.772-22.815 5.78-19.445 6.035-39.843l3.218-9.656c3.7-30.93.6-40.907 21.934-36.266l5.187.455c15.71.715 36.27-2.526 48.337-8.135 25.985-12.06 41.396-32.195 15.775-26.903z" fill="#417ba2"/><g fill="none" class="B E"><g class="C"><path d="M437.876 670.536c-1.6 57.548.404 115.498 6.036 129.58s17.692 41.478 59.16 32.595c34.64-7.427 47.245-21.798 52.714-53.522 4.03-23.34 11.796-88.16 12.792-101.44M388.18 382.032s-187.723-76.726-178.996 97.753c1.856 37.12 53.204 280.877 114.447 207.25 22.38-26.924 42.62-48.04 42.62-48.04m123.326-270.968c-6.5 2.037 104.423-40.548 167.46 40 22.267 28.456-3.538 144.728-65.262 236.323" class="D"/><path d="M591.776 644.35s4.02 19.798 62.485 7.733c25.615-5.292 10.2 14.846-15.78 26.9-21.32 9.895-69.124 12.432-69.904-1.243-2.012-35.28 25.16-24.56 23.198-33.4-1.774-7.962-13.922-15.776-21.96-35.26-7.017-17.008-96.23-147.437 24.74-128.068 4.432-.917-31.55-115.062-144.76-116.918C336.618 362.25 340.332 503.3 340.332 503.3" stroke-linejoin="bevel"/></g><g class="D"><path d="M406.196 656.414c-15.78 17.626-11.14 20.723-42.68 27.217-31.913 6.578-13.163 18.285-.927 21.343 14.84 3.716 49.17 8.97 72.362-23.51 7.065-9.9-.04-25.67-9.74-29.692-4.688-1.94-10.955-4.375-19.013 4.642z"/><path d="M405.16 656.106c-1.587-10.364 3.408-22.696 8.76-37.125 8.044-21.645 26.602-43.3 11.755-111.97-11.065-51.174-85.298-10.652-85.344-3.71s3.356 35.173-1.24 68.05c-6 42.903 27.297 79.186 65.64 75.475" class="C"/></g></g><g fill="#fff" class="B"><path d="M387.498 502.256c-.334 2.37 4.34 8.694 10.432 9.54 6.085.85 11.3-4.092 11.62-6.46s-4.338-4.98-10.433-5.832c-6.087-.848-11.296.388-11.618 2.753z" stroke-width="4.829"/><path d="M572.783 497.425c.33 2.37-4.338 8.695-10.43 9.54-6.088.848-11.295-4.093-11.63-6.462-.322-2.37 4.35-4.98 10.437-5.83s11.294.386 11.624 2.753z" stroke-width="2.415"/></g><path d="M594.556 481.023c1.002 18.6-4.004 31.253-4.635 51.046-.935 28.762 13.712 61.683-8.358 94.646" fill="none" class="B C D E"/></svg>