<?xml version="1.0" encoding="UTF-8" standalone="no"?>
<!-- Created with Inkscape (http://www.inkscape.org/) -->

<svg
   xmlns:dc="http://purl.org/dc/elements/1.1/"
   xmlns:cc="http://creativecommons.org/ns#"
   xmlns:rdf="http://www.w3.org/1999/02/22-rdf-syntax-ns#"
   xmlns:svg="http://www.w3.org/2000/svg"
   xmlns="http://www.w3.org/2000/svg"
   xmlns:sodipodi="http://sodipodi.sourceforge.net/DTD/sodipodi-0.dtd"
   xmlns:inkscape="http://www.inkscape.org/namespaces/inkscape"
   width="320"
   height="60"
   id="svg2"
   version="1.1"
   inkscape:version="0.91 r13725"
   sodipodi:docname="postgresql-horizontal.svg"
   inkscape:export-filename="/home/amarcuse/site/vlz/www/logos/postgresql/postgresql-horizontal.png"
   inkscape:export-xdpi="90"
   inkscape:export-ydpi="90">
  <defs
     id="defs4">
    <clipPath
       clipPathUnits="userSpaceOnUse"
       id="clipPath4250">
      <path
         inkscape:connector-curvature="0"
         d="M 0,0 792,0 792,612 0,612 0,0 Z"
         id="path4252" />
    </clipPath>
  </defs>
  <sodipodi:namedview
     id="base"
     pagecolor="#ffffff"
     bordercolor="#666666"
     borderopacity="1.0"
     inkscape:pageopacity="0.0"
     inkscape:pageshadow="2"
     inkscape:zoom="2.2817806"
     inkscape:cx="263.60992"
     inkscape:cy="39.670143"
     inkscape:document-units="px"
     inkscape:current-layer="layer1"
     showgrid="false"
     fit-margin-top="0"
     fit-margin-left="0"
     fit-margin-right="0"
     fit-margin-bottom="0"
     inkscape:window-width="1730"
     inkscape:window-height="979"
     inkscape:window-x="75"
     inkscape:window-y="34"
     inkscape:window-maximized="0" />
  <metadata
     id="metadata7">
    <rdf:RDF>
      <cc:Work
         rdf:about="">
        <dc:format>image/svg+xml</dc:format>
        <dc:type
           rdf:resource="http://purl.org/dc/dcmitype/StillImage" />
        <dc:title></dc:title>
      </cc:Work>
    </rdf:RDF>
  </metadata>
  <g
     inkscape:label="Layer 1"
     inkscape:groupmode="layer"
     id="layer1"
     transform="translate(0.14109154,-992.32734)">
    <g
       id="g4244"
       transform="matrix(0.71152073,0,0,-0.71152053,-14.592476,948.62882)" />
    <g
       id="g4466"
       transform="matrix(0.26113424,0,0,0.26113417,67.396247,969.74091)">
      <path
         id="path4254"
         style="fill:#231f20;fill-opacity:1;fill-rule:nonzero;stroke:none"
         d="m 71.038396,202.11668 -44.437875,0 0,-44.69487 46.849375,0 c 17.146625,0 25.722,7.56475 25.722,22.69274 0,14.66938 -9.378625,22.00213 -28.1335,22.00213 m 31.937874,-45.21787 c -6.089499,-5.4535 -14.609999,-8.18063 -25.558499,-8.18063 l -63.63775,0.35275 0,106.91413 12.8205,0 -0.117875,-45.517 47.353,0 c 11.8755,0 21.2225,-2.72575 28.042504,-8.17813 6.82012,-5.4535 10.23137,-13.01687 10.23137,-22.69525 0,-9.67775 -3.045,-17.24187 -9.13325,-22.69587 z"
         inkscape:connector-curvature="0" />
      <path
         id="path4256"
         style="fill:#231f20;fill-opacity:1;fill-rule:nonzero;stroke:none"
         d="m 185.96327,233.5448 c -1.30062,3.60963 -3.33012,6.6395 -6.08462,9.09425 -5.7415,5.60676 -14.50438,8.40575 -26.29213,8.40575 -10.64087,0 -18.81162,-2.72212 -24.51225,-8.17375 -5.7025,-5.44925 -8.55287,-12.7405 -8.55287,-21.87624 0,-4.75763 0.74587,-8.97901 2.23812,-12.66363 1.49238,-3.68463 3.65363,-6.795 6.48563,-9.32737 5.8935,-5.3735 14.007,-8.06088 24.34137,-8.06088 22.88638,0 34.32988,10.01887 34.32988,30.05188 0,4.7595 -0.6525,8.94287 -1.95313,12.54999 m 2.32488,-39.44025 c -7.815,-7.12524 -19.38175,-10.68849 -34.70163,-10.68849 -14.47987,0 -25.66525,3.64075 -33.55462,10.91862 -7.12338,6.58738 -10.68488,15.47363 -10.68488,26.65888 0,11.1085 3.67563,20.07087 11.03038,26.88724 4.05937,3.67926 8.79025,6.34038 14.19187,7.987 5.39975,1.64676 11.74013,2.47076 19.01725,2.47076 15.243,0 26.84875,-3.523 34.8175,-10.57125 7.12288,-6.43438 10.68675,-15.35713 10.68675,-26.77375 0,-11.48988 -3.60237,-20.4535 -10.80262,-26.88901 z"
         inkscape:connector-curvature="0" />
      <path
         id="path4258"
         style="fill:#231f20;fill-opacity:1;fill-rule:nonzero;stroke:none"
         d="m 285.2889,236.63331 c 0,14.39199 -12.89438,21.58562 -38.68225,21.58562 -7.88213,0 -14.52038,-0.49925 -19.91588,-1.5015 -5.3955,-1.00337 -9.77537,-2.66112 -13.14262,-4.97187 -2.60138,-1.76275 -4.66738,-4.05888 -6.19813,-6.89338 -1.53137,-2.83325 -2.52387,-6.394 -2.98275,-10.67987 l 11.997,-0.11476 c 0,5.66413 2.09838,9.83526 6.3,12.51588 4.50563,3.21775 12.48725,4.82425 23.94413,4.82425 18.02312,0 27.0355,-4.51425 27.0355,-13.54862 0,-5.28013 -3.02238,-8.916 -9.06675,-10.90825 -1.22613,-0.38326 -8.51438,-1.39638 -21.86825,-3.04188 -13.35325,-1.64675 -21.67363,-3.12012 -24.96213,-4.4215 -7.11675,-2.832 -10.6745,-7.92287 -10.6745,-15.27275 0,-7.19612 3.17688,-12.55562 9.53613,-16.07662 3.14087,-1.45326 7.06662,-2.5825 11.77862,-3.38751 4.71188,-0.8045 10.17025,-1.20724 16.37625,-1.20724 24.82125,0 37.23213,7.78925 37.23213,23.36237 l -11.40925,0 c 0,-10.94787 -8.72563,-16.42275 -26.17375,-16.42275 -8.87638,0 -15.49688,1.11025 -19.859,3.3295 -4.36288,2.2205 -6.54238,5.628 -6.54238,10.22037 0,4.28763 2.9455,7.38763 8.83913,9.3005 3.44475,0.99675 11.36537,2.146 23.76525,3.44663 11.098,0.99612 18.71337,2.40975 22.84725,4.24925 7.88337,3.06162 11.82625,8.26787 11.82625,15.61412 z"
         inkscape:connector-curvature="0" />
      <path
         id="path4260"
         style="fill:#231f20;fill-opacity:1;fill-rule:nonzero;stroke:none"
         d="m 332.41527,256.13156 c -1.83775,0.30512 -3.46612,0.53337 -4.881,0.68599 -1.41662,0.149 -2.43162,0.22713 -3.04312,0.22713 -7.81075,0 -13.44363,-1.13037 -16.89888,-3.396 -3.45512,-2.26075 -5.18062,-6.23175 -5.18062,-11.9105 l 0,-48.79513 -14.23213,0 0,-7.17524 14.118,0 0.11413,-23.05363 10.93812,0 0,23.05363 19.04725,0 0,7.29249 -19.04725,-0.11725 0,47.47313 c 0,3.53513 0.9375,5.97412 2.81438,7.31938 1.87437,1.34525 5.2245,2.01537 10.04875,2.01537 0.68912,0.0781 1.45575,0.0549 2.29675,-0.0745 0.84225,-0.12937 2.10512,-0.41862 3.78975,-0.86425 l 0.11587,7.31938 z"
         inkscape:connector-curvature="0" />
      <path
         id="path4262"
         style="fill:#231f20;fill-opacity:1;fill-rule:nonzero;stroke:none"
         d="m 408.06652,239.9438 c -2.98462,2.4475 -6.38787,4.32125 -10.21475,5.62375 -3.82575,1.30013 -8.2245,1.95076 -13.19712,1.95076 -22.87713,0 -34.31325,-9.44825 -34.31325,-28.34351 0,-8.797 2.92537,-15.68124 8.77925,-20.65437 5.85087,-4.9725 14.0955,-7.45913 24.73087,-7.45913 10.711,0 18.84088,2.50675 24.38775,7.5165 5.54625,5.01163 8.3215,11.72488 8.3215,20.138 0,9.17963 -2.832,16.25426 -8.49425,21.228 m 19.433,-54.12787 -10.93875,0 -0.11587,12.06 c -4.82188,-4.89687 -8.2685,-7.99262 -10.3345,-9.2945 -6.12488,-3.36475 -14.04788,-5.04812 -23.7695,-5.04812 -14.2395,0 -25.11175,3.25249 -32.613,9.757 -7.12038,5.96862 -10.67813,14.61612 -10.67813,25.94062 0,5.58713 0.90038,10.57863 2.7015,14.978 1.80113,4.39825 4.42813,8.12988 7.87713,11.189 7.51287,6.27313 18.13112,9.41163 31.85612,9.41163 16.48313,0 28.175,-4.50813 35.07625,-13.52663 l 0,12.48538 c 0,7.96137 -2.50912,14.12474 -7.5225,18.48749 -5.01525,4.36526 -13.263,6.54788 -24.74612,6.54788 -10.79463,0 -18.4875,-1.48812 -23.07863,-4.45925 -3.446,-2.28513 -5.8185,-6.25125 -7.11912,-11.88963 l -11.25363,0 c 1.22438,7.87713 4.55625,13.57425 9.99263,17.091 6.27925,4.0515 16.88537,6.07913 31.8195,6.07913 28.56262,0 42.84662,-10.61888 42.84662,-31.85663 l 0,-67.95237 z"
         inkscape:connector-curvature="0" />
      <path
         id="path4264"
         style="fill:#231f20;fill-opacity:1;fill-rule:nonzero;stroke:none"
         d="m 486.66577,192.92231 c -3.2885,-0.534 -6.34762,-0.80263 -9.17725,-0.80263 -17.98037,0 -26.96712,9.859 -26.96712,29.57588 l 0,34.2895 -10.82213,0 -0.11837,-70.16176 10.9405,0.10801 0,12.51775 0.57375,0 c 1.83525,-4.93225 4.743,-8.6725 8.72187,-11.21651 4.35975,-2.46575 10.86125,-3.69924 19.50625,-3.69924 1.76025,0 3.23,0 4.41775,0 1.1865,0 2.16188,0 2.92475,0 l 0,9.389 z"
         inkscape:connector-curvature="0" />
      <path
         id="path4266"
         style="fill:#231f20;fill-opacity:1;fill-rule:nonzero;stroke:none"
         d="m 496.8379,216.46668 c 1.377,-7.97425 4.47637,-14.14738 9.2945,-18.51938 3.13837,-2.53112 6.698,-4.42925 10.675,-5.69337 3.98187,-1.264 8.4595,-1.89875 13.43262,-1.89875 9.718,0 17.65263,2.66537 23.81475,7.995 6.15963,5.32837 9.237,11.36775 9.237,18.1165 l -66.45387,0 m 67.52562,-21.64375 c -3.8305,-3.83913 -8.57912,-6.67963 -14.24675,-8.5235 -5.66775,-1.84388 -12.29125,-2.76613 -19.87437,-2.76613 -14.1735,0 -25.16475,3.29525 -32.97963,9.884 -7.81012,6.58813 -11.71875,15.55113 -11.71875,26.889 0,11.33675 3.75488,20.337 11.256,27.00075 8.11525,7.35475 19.563,11.0315 34.34338,11.0315 5.89225,0 11.34637,-0.66887 16.36225,-2.002 5.01587,-1.33412 9.40062,-3.22387 13.15187,-5.664 6.5845,-4.729 10.75438,-10.564 12.52075,-17.503 l -11.825,0 c -4.05762,11.99638 -14.15775,17.99375 -30.30512,17.99375 -11.40388,0 -20.17088,-2.93212 -26.29025,-8.80125 -5.282,-5.02812 -7.92,-11.54175 -7.92,-19.54475 l 77.981,0 c 0,-11.9025 -3.4815,-21.23475 -10.45538,-27.99437 z"
         inkscape:connector-curvature="0" />
      <path
         id="path4268"
         style="fill:#367faf;fill-opacity:1;fill-rule:nonzero;stroke:none"
         d="m 690.3804,227.32418 c 0,20.83125 -16.79938,31.2475 -50.40163,31.2475 -20.133,0 -34.82787,-3.58637 -44.08812,-10.76538 -7.5805,-5.89712 -11.366,-14.89075 -11.366,-26.98849 l 13.52662,0 c 0,19.44699 13.97225,29.1675 41.92388,29.1675 13.40087,0 23.08962,-1.98851 29.06375,-5.96676 5.05362,-3.51562 7.5805,-9.02412 7.5805,-16.52099 0,-7.42075 -3.446,-12.62213 -10.33938,-15.60738 -3.90625,-1.60588 -13.44237,-3.63525 -28.60475,-6.08275 -19.06737,-2.90713 -31.433,-5.81363 -37.0995,-8.72013 -8.19225,-4.28462 -12.28887,-11.55275 -12.28887,-21.80537 0,-9.56238 3.48637,-16.67663 10.45537,-21.34463 7.5,-5.12512 20.36738,-7.68924 38.59488,-7.68924 32.931,0 49.397,10.93812 49.397,32.812 l -13.64263,0 c 0,-16.38613 -12.22775,-24.57826 -36.67962,-24.57826 -12.26438,0 -21.23288,1.64788 -26.90425,4.94138 -5.3675,3.5235 -8.04688,8.69263 -8.04688,15.509 0,7.12337 3.446,12.1405 10.34175,15.05125 3.67188,1.68587 14.47138,4.02162 32.39375,7.00987 16.85063,2.52876 28.2215,5.47613 34.12113,8.84588 8.04325,4.13637 12.063,11.29937 12.063,21.485 z"
         inkscape:connector-curvature="0" />
      <path
         id="path4270"
         style="fill:#367faf;fill-opacity:1;fill-rule:nonzero;stroke:none"
         d="m 800.25465,237.95406 c -5.056,4.049 -10.76775,7.08612 -17.13013,9.11375 -6.36475,2.02387 -13.49,3.03837 -21.38425,3.03837 -16.09737,0 -29.1065,-4.33837 -39.03687,-13.01275 -9.92188,-8.67425 -14.884,-20.23562 -14.884,-34.682 0,-15.058 4.92062,-26.7895 14.7705,-35.19962 9.85225,-8.40813 22.90037,-12.61225 39.15037,-12.61225 16.47825,0 29.43475,4.39512 38.86225,13.18475 4.97813,4.2835 8.65863,9.289 11.03763,15.02137 2.37312,5.73425 3.5645,12.26875 3.5645,19.60575 0,14.98225 -4.98413,26.828 -14.95,35.54263 m 7.19,7.091 c 7.0495,-4.96938 12.26312,-10.99238 15.636,-18.06763 3.374,-7.07512 5.06225,-15.2435 5.06225,-24.50012 0,-16.60088 -5.51763,-29.912 -16.5455,-39.93338 -5.89713,-5.50787 -13.02238,-9.60087 -21.36963,-12.2785 -8.34712,-2.67762 -17.88575,-4.01737 -28.60587,-4.01737 -20.83263,0 -37.18388,5.0495 -49.054,15.14712 -11.87375,10.09713 -17.80513,23.79025 -17.80513,41.07663 0,16.8275 5.9875,30.40712 17.96988,40.73125 11.98125,10.326 28.35087,15.48825 49.09912,15.48825 8.114,0 15.19538,-0.54925 21.24275,-1.64663 6.0485,-1.09987 11.17913,-2.78575 15.39188,-5.05862 l 19.98287,13.85012 8.34475,-7.66612 -19.34937,-13.125 z"
         inkscape:connector-curvature="0" />
      <path
         id="path4272"
         style="fill:#367faf;fill-opacity:1;fill-rule:nonzero;stroke:none"
         d="m 929.4429,255.98505 -92.4255,0 0,-107.03549 12.705,-0.23138 0,98.32762 79.8365,0 -0.116,8.93925 z"
         inkscape:connector-curvature="0" />
    </g>
    <g
       id="g4478"
       transform="matrix(0.10195642,0,0,0.08642278,-9.2670354,970.15362)">
      <path
         inkscape:connector-curvature="0"
         d="m 562.63015,714.40305 c 3.291,-27.42924 2.30587,-31.45149 22.73562,-27.01049 l 5.18675,0.45525 c 15.70925,0.71537 36.25975,-2.52563 48.3325,-8.13475 25.99,-12.0605 41.40138,-32.19475 15.77513,-26.903 -58.45575,12.05925 -62.4755,-7.73688 -62.4755,-7.73688 61.72725,-91.58687 87.5305,-207.85525 65.25875,-236.31287 -60.7495,-77.62151 -165.90575,-40.9155 -167.66475,-39.96275 l -0.56038,0.10312 c -11.554,-2.39625 -24.47875,-3.82812 -39.00025,-4.06188 -26.449,-0.43462 -46.52162,6.93488 -61.74737,18.48326 0,0 -187.591,-77.2845 -178.86538,97.19612 1.856,37.11975 53.20438,280.86488 114.444,207.243 22.38463,-26.92137 44.01488,-49.68262 44.01488,-49.68262 10.74087,7.13625 23.60037,10.77762 37.08925,9.46899 l 1.04237,-0.88862 c -0.32712,3.34225 -0.18187,6.6125 0.4175,10.48088 -15.77512,17.62699 -11.13825,20.72387 -42.68125,27.21562 -31.90975,6.57713 -13.16287,18.28738 -0.92462,21.34525 14.83825,3.71213 49.16687,8.9685 72.362,-23.5035 l -0.92288,3.70613 c 6.189,4.95112 5.76913,35.58587 6.648,57.47437 0.8765,21.88838 2.34375,42.31562 6.80663,54.35788 4.4605,12.04225 9.72662,43.06025 51.18162,34.176 34.64475,-7.42313 61.13163,-18.10788 63.54738,-117.50851"
         style="fill:#231f20;fill-opacity:1;fill-rule:nonzero;stroke:#231f20;stroke-width:43.46175385;stroke-linecap:butt;stroke-linejoin:miter;stroke-miterlimit:4;stroke-dasharray:none;stroke-opacity:1"
         id="path4276" />
      <path
         id="path4278"
         style="fill:#417ba2;fill-opacity:1;fill-rule:nonzero;stroke:none"
         d="m 654.66502,652.81006 c -58.46062,12.05925 -62.48037,-7.73688 -62.48037,-7.73688 61.72725,-91.59062 87.5305,-207.86137 65.26237,-236.31775 -60.74825,-77.619 -165.90937,-40.91063 -167.6635,-39.95788 l -0.56525,0.10138 c -11.554,-2.3975 -24.47875,-3.82638 -39.00637,-4.062 -26.45138,-0.43388 -46.5155,6.93425 -61.74125,18.4815 0,0 -187.59588,-77.28275 -178.87025,97.196 1.85425,37.1235 53.2025,280.86863 114.444,207.24675 22.38462,-26.92138 44.013,-49.68262 44.013,-49.68262 10.741,7.13625 23.60225,10.77762 37.0825,9.46899 l 1.04737,-0.88862 c -0.32525,3.34225 -0.1745,6.6125 0.42113,10.48088 -15.77638,17.62699 -11.142,20.72387 -42.68,27.21562 -31.91413,6.57712 -13.16588,18.28737 -0.92588,21.34525 14.84,3.71212 49.16988,8.9685 72.362,-23.5035 l -0.92412,3.70613 c 6.18287,4.95112 10.52375,32.20574 9.795,56.91274 -0.72638,24.70714 -1.21213,41.67125 3.65725,54.9195 4.87175,13.2495 9.72525,43.06027 51.19012,34.17602 34.64475,-7.42314 52.59763,-26.66377 55.0965,-58.75489 1.77238,-22.815 5.78125,-19.44462 6.03513,-39.8425 l 3.21775,-9.65575 c 3.70975,-30.929 0.58962,-40.907 21.93362,-36.26587 l 5.18675,0.45525 c 15.70925,0.71537 36.27075,-2.52563 48.33738,-8.13475 25.98512,-12.06051 41.3965,-32.19475 15.77512,-26.903 z"
         inkscape:connector-curvature="0" />
      <path
         inkscape:connector-curvature="0"
         d="m 437.87552,670.53831 c -1.61012,57.54762 0.404,115.49799 6.03638,129.58124 5.6335,14.08451 17.69162,41.47826 59.16012,32.59526 34.63988,-7.42675 47.24488,-21.79813 52.71363,-53.52175 4.02962,-23.33988 11.79562,-88.15913 12.79175,-101.44038"
         style="fill:none;stroke:#ffffff;stroke-width:14.48724937;stroke-linecap:round;stroke-linejoin:round;stroke-miterlimit:4;stroke-dasharray:none;stroke-opacity:1"
         id="path4282" />
      <path
         inkscape:connector-curvature="0"
         d="m 388.18065,382.03368 c 0,0 -187.72337,-76.72613 -178.99588,97.75262 1.856,37.12038 53.20425,280.8765 114.447,207.25101 22.37975,-26.92388 42.62088,-48.04076 42.62088,-48.04076"
         style="fill:none;stroke:#ffffff;stroke-width:14.48724937;stroke-linecap:round;stroke-linejoin:round;stroke-miterlimit:4;stroke-dasharray:none;stroke-opacity:1"
         id="path4286" />
      <path
         inkscape:connector-curvature="0"
         d="m 489.57715,368.02918 c -6.50138,2.03725 104.42262,-40.54813 167.461,39.99938 22.26675,28.45637 -3.53763,144.72775 -65.2625,236.32325"
         style="fill:none;stroke:#ffffff;stroke-width:14.48724937;stroke-linecap:round;stroke-linejoin:round;stroke-miterlimit:4;stroke-dasharray:none;stroke-opacity:1"
         id="path4290" />
      <path
         inkscape:connector-curvature="0"
         d="m 591.77565,644.35181 c 0,0 4.021,19.79849 62.48537,7.73312 25.61525,-5.29175 10.20013,14.84613 -15.78,26.91038 -21.32087,9.89499 -69.12362,12.43162 -69.90362,-1.24263 -2.01175,-35.27962 25.15875,-24.56063 23.19825,-33.40087 -1.77363,-7.96151 -13.92213,-15.77638 -21.95925,-35.25888 -7.01663,-17.008 -96.22925,-147.4365 24.74,-128.06763 4.43237,-0.91675 -31.55025,-115.06162 -144.76075,-116.91775 -113.1775,-1.85537 -109.46413,139.19313 -109.46413,139.19313"
         style="fill:none;stroke:#ffffff;stroke-width:14.48724937;stroke-linecap:round;stroke-linejoin:bevel;stroke-miterlimit:4;stroke-dasharray:none;stroke-opacity:1"
         id="path4294" />
      <path
         inkscape:connector-curvature="0"
         d="m 406.19577,656.41593 c -15.78125,17.62575 -11.14012,20.72262 -42.68125,27.21688 -31.91275,6.57837 -13.16275,18.28487 -0.9265,21.34274 14.83888,3.71576 49.1705,8.97088 72.3615,-23.50949 7.06538,-9.89013 -0.0415,-25.67026 -9.74062,-29.69238 -4.68813,-1.941 -10.95463,-4.375 -19.01313,4.64225 z"
         style="fill:none;stroke:#ffffff;stroke-width:14.48724937;stroke-linecap:round;stroke-linejoin:round;stroke-miterlimit:4;stroke-dasharray:none;stroke-opacity:1"
         id="path4298" />
      <path
         inkscape:connector-curvature="0"
         d="m 405.16127,656.1083 c -1.5875,-10.36375 3.40763,-22.69649 8.75913,-37.12524 8.04387,-21.6455 26.60162,-43.2995 11.75537,-111.97138 -11.065,-51.17437 -85.29837,-10.65188 -85.34425,-3.711 -0.0464,6.93612 3.35638,35.17338 -1.24075,68.04938 -5.99975,42.90287 27.29738,79.18574 65.64025,75.47487"
         style="fill:none;stroke:#ffffff;stroke-width:14.48724937;stroke-linecap:round;stroke-linejoin:round;stroke-miterlimit:4;stroke-dasharray:none;stroke-opacity:1"
         id="path4302" />
      <path
         inkscape:connector-curvature="0"
         d="m 387.49827,502.25831 c -0.33387,2.3705 4.34025,8.69375 10.43163,9.5385 6.0845,0.84962 11.29025,-4.09175 11.61925,-6.46 0.33075,-2.3705 -4.33838,-4.98038 -10.43275,-5.83188 -6.0865,-0.84775 -11.29588,0.38825 -11.61813,2.75338 z"
         style="fill:#ffffff;fill-opacity:1;fill-rule:nonzero;stroke:#ffffff;stroke-width:4.82912493;stroke-linecap:butt;stroke-linejoin:miter;stroke-miterlimit:4;stroke-dasharray:none;stroke-opacity:1"
         id="path4306" />
      <path
         inkscape:connector-curvature="0"
         d="m 572.78277,497.42668 c 0.33075,2.37 -4.33837,8.69512 -10.431,9.53987 -6.08762,0.84838 -11.29512,-4.09312 -11.62962,-6.4625 -0.32225,-2.37062 4.34937,-4.98037 10.437,-5.83 6.08775,-0.84787 11.294,0.38638 11.62362,2.75263 z"
         style="fill:#ffffff;fill-opacity:1;fill-rule:nonzero;stroke:#ffffff;stroke-width:2.4145;stroke-linecap:butt;stroke-linejoin:miter;stroke-miterlimit:4;stroke-dasharray:none;stroke-opacity:1"
         id="path4310" />
      <path
         inkscape:connector-curvature="0"
         d="m 594.5564,481.0253 c 1.00225,18.58951 -4.00388,31.25251 -4.635,51.04613 -0.935,28.76225 13.71212,61.68338 -8.35813,94.646"
         style="fill:none;stroke:#ffffff;stroke-width:14.48724937;stroke-linecap:round;stroke-linejoin:round;stroke-miterlimit:4;stroke-dasharray:none;stroke-opacity:1"
         id="path4314" />
    </g>
  </g>
</svg>
