<svg width="64" height="64" viewBox="0 0 64 64" fill="none" xmlns="http://www.w3.org/2000/svg">
<path d="M56 0H8C3.58172 0 0 3.58172 0 8V56C0 60.4183 3.58172 64 8 64H56C60.4183 64 64 60.4183 64 56V8C64 3.58172 60.4183 0 56 0Z" fill="url(#paint0_linear_7_158)"/>
<path d="M35.7505 36.1632V50.5888H28.2497V36.1632L23.1681 35.0848V56.176H40.8321V35.0848L35.7505 36.1632Z" fill="white"/>
<path d="M52.1808 29.552V14.9824L43.456 6.39999V16.2496L32.0016 27.5104L20.544 16.2496V6.39999L11.8192 14.9824V29.5504L8 25.7952V37.8784L21.744 50.1392V38.7168L20.096 36.8096V28.3232L29.7168 35.8048V46.5328H34.2832V35.8048L43.904 28.3232V36.8096L42.256 38.7168V50.1392L56 37.8784V25.7952L52.1808 29.552Z" fill="white"/>
<path d="M36.8576 8.38236C35.2565 8.084 33.6281 7.95741 32 8.00476C28.5801 7.9052 25.1814 8.57445 22.0544 9.96316V14.5152L28.1552 20.5152V14.8272H35.8448V20.5184L41.9456 14.5184V9.96156C40.3173 9.23736 38.6096 8.7084 36.8576 8.38236Z" fill="white"/>
<defs>
<linearGradient id="paint0_linear_7_158" x1="32" y1="0" x2="32" y2="64" gradientUnits="userSpaceOnUse">
<stop stop-color="#287FE9"/>
<stop offset="1" stop-color="#064FA6"/>
</linearGradient>
</defs>
</svg>
