<svg xmlns="http://www.w3.org/2000/svg" width="64" height="64"><path d="M32.024.192c-6.08 0-11.765 1.704-16.6 4.66-.085.052-.168.107-.252.16 22.283 6 28.707 16.3 29.494 26.12.456 5.686-2.947 8.553-2.947 8.553 10.55-.95 21.92-11.334 21.92-11.334.04-.07-.04.07 0 0C61.677 12.596 48.823.192 32.024.192m-27.7 48a31.7 31.7 0 0 0 12.335 12.046c.087.048.177.092.264.14-5.936-22.302-.235-33 7.873-38.6 4.698-3.238 8.88-1.726 8.88-1.726C27.6 11.38 12.913 6.726 12.913 6.726c-.08 0 .08 0 0 0-12.665 9.576-16.978 26.9-8.58 41.457m55.393-.287C62.766 42.63 64.133 36.856 64 31.2c-.001-.1-.01-.197-.01-.297-16.346 16.3-28.47 16.7-37.365 12.482-5.153-2.447-5.935-6.828-5.935-6.828-4.452 9.612-1.145 24.65-1.145 24.65.04.07-.04-.07 0 0 14.624 6.18 31.793 1.25 40.193-13.3" fill="#009245"/><path d="M30.732 31.056a1.67 1.67 0 0 1 2.344-.272 1.67 1.67 0 0 1 .272 2.345 1.67 1.67 0 0 1-2.345.271 1.67 1.67 0 0 1-.271-2.345m2.607 8.865c4.7 1.536 6.49-.037 6.49-.037-2.644-2.552-3.254-3.23-2.635-5.186 1.234-3.916 1.312-5.613.836-7.623-1.138-4.81-3.27-5.606-3.27-5.606-.934 3.55-1.102 4.343-3.177 4.86-3.985 1.022-5.45 1.7-6.975 3.072-3.676 3.305-3.213 5.668-3.213 5.668 3.523-1.036 4.384-1.186 5.778.295 2.036 2.2 4.214 3.92 6.165 4.558z" fill="#fbb03b"/></svg>