<svg xmlns="http://www.w3.org/2000/svg" width="120" height="60" fill="#282b6a"><path d="M39.657 35.934h-9.285v10.85H20.92V13.217h20.2l.622 9.18H30.44v4.376h9.217zm38.95-6.504l-9.923 17.326 10.174-.005 4.852-8.485 4.9 8.47h10.46L88.97 29.32l9.186-16.056H88.04l-4.203 7.23-4.125-7.23H69.238zm-37.1.612c0-8.982 7.163-16.302 16.02-16.302s15.998 7.32 15.998 16.317-7.2 16.312-15.998 16.312-16.02-7.3-16.02-16.328zm18.87 6.703v-13.4a2.96 2.96 0 0 0-2.849-2.896 2.86 2.86 0 0 0-2.708 2.896V36.72c-.015 1.512 1.196 2.75 2.708 2.77a2.81 2.81 0 0 0 2.849-2.734z"/></svg>