<svg xmlns="http://www.w3.org/2000/svg" xmlns:xlink="http://www.w3.org/1999/xlink" width="64" height="64"><defs><linearGradient x1="36.543" y1="22.269" x2="12.471" y2="51.312" id="A" gradientUnits="userSpaceOnUse"><stop stop-color="#f08d4a" offset="0%"/><stop stop-color="#e75e31" offset="100%"/></linearGradient><path id="B" d="M7.213 55.66v3.346h1.814v-3.45"/></defs><g transform="matrix(1.174863 0 0 1.174863 3.913659 -7.580714)" fill-rule="evenodd"><circle cx="21.867" cy="34.867" r="18.717" fill="url(#A)"/><g transform="rotate(45 12.116 42.995)"><path d="M24.218 22.2c-.127.016-5.054 10.063-20.326 11.267 0 0 5.738-12 20.326-11.267" fill="#a22b30"/><path d="M24.218 22.18c-.127.016-5.054 10.1-20.326 11.3-.001-.048 8.13-9.524 20.326-11.3" fill="#8e3127"/><path d="M6.3 33.478L4.325 15.525l.865-1.297 1.73 18.934-.608.316" fill="#00a2b6"/><path d="M5.165 14.1l.818 8.978 3.1-4.268-.818-11.687zm-.85.645l.942 9.1-3.772-3.62L0 8.37z" fill="#6ac1b9"/><path d="M9.724 32.64L6.92 8l.932-1.293 2.528 25.63-.655.315" fill="#00a2b6"/><path d="M8.65 15.902l3.027-4.215L10.858 0 7.855 6.9m-1.005.306l1.02 9.113-3.8-3.66L2.595.837z" fill="#efa684"/><path d="M13.23 31.385l-1.986-17.953.865-1.297 1.73 18.934-.608.316" fill="#00a2b6"/><path d="M12.1 12.387l.812 8.974L16 17.127 15.183 5.44zm-.9.26l.985 9.1-3.78-3.648L6.92 6.277z" fill="#9cca7c"/><path d="M20.572 26.782l-.68-18.024 1.015-1.226.283 18.64-.62.6" fill="#00a2b6"/><path d="M20.758 7.63l.242 9.1 3.123-4.028.095-11.864zm-.382 9.477l-3.64-3.92L16 1.674l4.08 6.705" fill="#f9d69c"/><path d="M17.3 29.562l-.067-17.074L16 11.3l.482 18.83.815-.568" fill="#00a2b6"/><path d="M16.07 11.887l.3 9.02-3.62-3.92-.628-11.963zm1.007-.182l.15 9.486 3.36-4.034.115-12.242z" fill="#fac922"/><g fill="#ab462c"><use xlink:href="#B"/><use xlink:href="#B" x="2.487"/><use xlink:href="#B" x="4.975"/><path d="M14.676 55.66v3.346H16.5v-3.45"/><use xlink:href="#B" x="9.951"/><use xlink:href="#B" x="12.437"/></g><path d="M3.892 33.23l3.24 22.427 14.263-.224L24.22 22.18s-5.78 9.705-20.326 11.05" fill="#b76141"/><path d="M24.218 22.598L5.622 44.628l1.552 11.448 14.25-.226 2.794-33.25" fill="#ab462c"/><path d="M5.622 48.766c.383-.266 10.504-5.374 18.163-21.566l-.65 10.08S20.43 46.5 6.26 53.146l-.638-4.38" fill="#8e3127"/><path d="M22.92 36.198c0 .8-.678 1.465-1.514 1.465s-1.513-.656-1.513-1.465.678-1.464 1.513-1.464 1.514.656 1.514 1.464M9.514 50.426c0 .8-.678 1.464-1.514 1.464s-1.513-.656-1.513-1.464S7.165 48.96 8 48.96s1.514.656 1.514 1.465" fill="#ab462c"/></g></g></svg>