<svg xmlns="http://www.w3.org/2000/svg" xmlns:xlink="http://www.w3.org/1999/xlink" width="120" height="60"><defs><linearGradient x1="36.543" y1="22.269" x2="12.471" y2="51.312" id="A" gradientUnits="userSpaceOnUse"><stop stop-color="#f08d4a" offset="0%"/><stop stop-color="#e75e31" offset="100%"/></linearGradient><path id="B" d="M7.213 55.66v3.346h1.814v-3.45"/></defs><g transform="translate(1.299)" fill-rule="evenodd"><path d="M49.534 33.966c-1.8 0-3.323-1.317-3.323-3.682s1.512-3.682 3.323-3.682c1.123 0 1.87.48 2.305 1.197h.03v-.973h1.826v6.915H51.87v-.973h-.03c-.434.718-1.182 1.197-2.305 1.197zm.464-1.736c1.108 0 1.87-.778 1.87-1.946s-.763-1.946-1.87-1.946-1.87.778-1.87 1.946.763 1.946 1.87 1.946zm5.283 4.505v-9.908h1.826v.973h.03c.434-.718 1.182-1.197 2.305-1.197 1.8 0 3.323 1.317 3.323 3.682s-1.512 3.682-3.323 3.682c-1.123 0-1.87-.48-2.305-1.197h-.03v3.966zm3.697-4.505c1.108 0 1.87-.778 1.87-1.946s-.763-1.946-1.87-1.946-1.87.778-1.87 1.946.763 1.946 1.87 1.946zm4.984 4.505v-9.908h1.826v.973h.03c.434-.718 1.182-1.197 2.305-1.197 1.8 0 3.323 1.317 3.323 3.682s-1.512 3.682-3.323 3.682c-1.123 0-1.87-.48-2.305-1.197h-.03v3.966zm3.697-4.505c1.108 0 1.87-.778 1.87-1.946s-.763-1.946-1.87-1.946-1.87.778-1.87 1.946.763 1.946 1.87 1.946zm7.888 1.736c-1.8 0-3.323-1.317-3.323-3.682s1.512-3.682 3.323-3.682c1.123 0 1.87.48 2.305 1.197h.03v-.973h1.826v6.915H77.88v-.973h-.03c-.434.718-1.182 1.197-2.305 1.197zm.464-1.736c1.108 0 1.87-.778 1.87-1.946s-.763-1.946-1.87-1.946-1.87.778-1.87 1.946.763 1.946 1.87 1.946zm7.154-8.965v10.477h-1.84V23.265zm5.074 3.338c2.2 0 3.832 1.512 3.832 3.682s-1.63 3.682-3.832 3.682-3.832-1.512-3.832-3.682 1.63-3.682 3.832-3.682zm0 1.736c-1.123 0-1.946.763-1.946 1.946s.823 1.946 1.946 1.946 1.93-.763 1.93-1.946-.808-1.946-1.93-1.946zm8.426-1.736c2.2 0 3.832 1.512 3.832 3.682s-1.63 3.682-3.832 3.682-3.832-1.512-3.832-3.682 1.63-3.682 3.832-3.682zm0 1.736c-1.123 0-1.946.763-1.946 1.946s.823 1.946 1.946 1.946 1.93-.763 1.93-1.946-.808-1.946-1.93-1.946zm7.304 5.628c-.958 0-2.05-.225-2.963-.733l.748-1.557c.688.404 1.482.718 2.32.718.57 0 .853-.15.853-.494 0-.27-.195-.404-.6-.6l-1.242-.54c-1.093-.48-1.557-1.167-1.557-2.065 0-1.347.943-2.095 2.68-2.095.793 0 1.646.18 2.455.48l-.614 1.542c-.63-.27-1.317-.48-1.946-.48-.54 0-.703.165-.703.42 0 .27.18.42.66.63l1.242.54c.973.404 1.527.988 1.527 2.02 0 1.527-1.137 2.215-2.86 2.215zm6.8 0c-1.8 0-3.323-1.317-3.323-3.682s1.512-3.682 3.323-3.682c1.123 0 1.87.48 2.305 1.197h.03v-.973h1.826v6.915h-1.826v-.973h-.03c-.434.718-1.182 1.197-2.305 1.197zm.464-1.736c1.108 0 1.87-.778 1.87-1.946s-.763-1.946-1.87-1.946-1.87.778-1.87 1.946.763 1.946 1.87 1.946z" fill="#211f2d"/><g transform="matrix(.825236 0 0 .825236 4.665873 2.198076)"><circle r="18.717" cy="34.867" cx="21.867" fill="url(#A)"/><g transform="rotate(45 12.116 42.995)"><path d="M24.218 22.2c-.127.016-5.054 10.063-20.326 11.267 0 0 5.738-12 20.326-11.267" fill="#a22b30"/><path d="M24.218 22.18c-.127.016-5.054 10.1-20.326 11.3-.001-.048 8.13-9.524 20.326-11.3" fill="#8e3127"/><path d="M6.3 33.478L4.325 15.525l.865-1.297 1.73 18.934-.608.316" fill="#00a2b6"/><path d="M8.264 7.114l-3.1 6.977.818 8.978 3.1-4.268zM0 8.37l4.315 6.365.942 9.1-3.772-3.62z" fill="#6ac1b9"/><path d="M9.724 32.64L6.92 8l.932-1.293 2.528 25.63-.655.315" fill="#00a2b6"/><path d="M8.65 15.902l3.027-4.215L10.858 0 7.855 6.9M2.595.837l4.254 6.38 1.02 9.113-3.8-3.66z" fill="#efa684"/><path d="M13.23 31.385l-1.986-17.953.865-1.297 1.73 18.934-.608.316" fill="#00a2b6"/><path d="M15.183 5.44l-3.074 6.947.812 8.974L16 17.127zm-8.263.837l4.28 6.37.985 9.1-3.78-3.648z" fill="#9cca7c"/><path d="M20.572 26.782l-.68-18.024 1.015-1.226.283 18.64-.62.6" fill="#00a2b6"/><path d="M24.218.837l-3.46 6.794.242 9.1 3.123-4.028zm-3.842 16.27l-3.64-3.92L16 1.674l4.08 6.705" fill="#f9d69c"/><path d="M17.3 29.562l-.067-17.074L16 11.3l.482 18.83.815-.568" fill="#00a2b6"/><path d="M12.1 5.022l3.96 6.865.3 9.02-3.62-3.92zm8.592-.107l-3.625 6.8.15 9.486 3.36-4.034z" fill="#fac922"/><g fill="#ab462c"><use xlink:href="#B"/><use xlink:href="#B" x="2.487"/><use xlink:href="#B" x="4.975"/><path d="M14.676 55.66v3.346H16.5v-3.45"/><use xlink:href="#B" x="9.951"/><use xlink:href="#B" x="12.437"/></g><path d="M3.892 33.23l3.24 22.427 14.263-.224L24.22 22.18s-5.78 9.705-20.326 11.05" fill="#b76141"/><path d="M24.218 22.598L5.622 44.628l1.552 11.448 14.25-.226 2.794-33.25" fill="#ab462c"/><path d="M5.622 48.766c.383-.266 10.504-5.374 18.163-21.566l-.65 10.08S20.43 46.5 6.26 53.146l-.638-4.38" fill="#8e3127"/><path d="M22.92 36.198c0 .8-.678 1.465-1.514 1.465s-1.513-.656-1.513-1.465.678-1.464 1.513-1.464 1.514.656 1.514 1.464M9.514 50.426c0 .8-.678 1.464-1.514 1.464s-1.513-.656-1.513-1.464S7.165 48.96 8 48.96s1.514.656 1.514 1.465" fill="#ab462c"/></g></g></g></svg>