<svg xmlns="http://www.w3.org/2000/svg" height="60" width="120"><path d="M45.435 32.136c.013.672.097 1.223.252 1.653s.356.773.605 1.028.534.43.857.524a3.57 3.57 0 0 0 1.008.141 2.7 2.7 0 0 0 1.048-.201c.323-.134.605-.346.846-.635s.43-.668.564-1.14.202-1.048.202-1.733c0-.658-.07-1.22-.212-1.683s-.326-.84-.554-1.13-.5-.5-.816-.635a2.47 2.47 0 0 0-.977-.202c-.497 0-.924.08-1.28.242a2.27 2.27 0 0 0-.877.685c-.23.296-.396.648-.504 1.058s-.16.863-.16 1.36v.504zm.02-9.493v5.28a4.39 4.39 0 0 1 1.441-1.26c.544-.3 1.18-.433 1.904-.433.752 0 1.404.134 1.955.403s1.008.645 1.37 1.13.635 1.065.816 1.743.272 1.428.272 2.247c0 .86-.108 1.636-.323 2.328s-.524 1.28-.927 1.763-.887.857-1.45 1.12-1.196.393-1.895.393a4.22 4.22 0 0 1-1.753-.363c-.537-.242-1.028-.645-1.47-1.2v1.25h-2.217v-14.4h2.277M59.08 35.502c.968 0 1.676-.332 2.126-.998s.675-1.575.675-2.73c0-1.142-.225-2.042-.675-2.7s-1.16-.988-2.126-.988-1.676.333-2.126.998-.675 1.562-.675 2.7.218 2.05.655 2.72 1.152 1.008 2.146 1.008zm-.02 1.854c-1.64 0-2.9-.484-3.8-1.45s-1.35-2.338-1.35-4.112c0-.833.117-1.592.352-2.277s.575-1.27 1.018-1.753a4.58 4.58 0 0 1 1.632-1.13c.645-.27 1.377-.403 2.197-.403.833 0 1.572.138 2.217.413a4.54 4.54 0 0 1 1.622 1.14c.436.485.766 1.065.988 1.743s.332 1.42.332 2.227c0 .914-.128 1.717-.383 2.408s-.615 1.277-1.078 1.753-1 .837-1.643 1.078a5.88 5.88 0 0 1-2.096.363m4.697-10.803h2.7l2.136 3.345 2.297-3.345h2.398L69.88 31.5l3.728 5.542h-2.66l-2.5-3.83-2.54 3.83h-2.5l3.8-5.442-3.467-5.04" fill="#427abe"/><path d="M76.35 32.136c.013.672.097 1.223.252 1.653s.356.773.604 1.028.534.43.857.524.658.14 1.008.14a2.7 2.7 0 0 0 1.048-.201 2.2 2.2 0 0 0 .847-.635c.242-.29.43-.668.564-1.14s.202-1.048.202-1.733c0-.658-.07-1.22-.21-1.683s-.326-.84-.554-1.13-.5-.5-.817-.635-.64-.202-.977-.202c-.497 0-.924.08-1.28.242a2.27 2.27 0 0 0-.877.685c-.228.296-.396.648-.504 1.058s-.16.863-.16 1.36v.504zm.02-9.493v5.28c.416-.55.897-.97 1.44-1.26s1.18-.433 1.905-.433c.752 0 1.404.134 1.955.403a3.73 3.73 0 0 1 1.37 1.129c.363.484.635 1.065.816 1.743s.272 1.428.272 2.247c0 .86-.108 1.636-.322 2.328s-.524 1.28-.927 1.763-.887.857-1.45 1.12-1.196.393-1.895.393c-.632 0-1.216-.12-1.753-.363s-1.028-.645-1.47-1.21v1.25h-2.217v-14.4h2.277m13.624 12.858c.968 0 1.676-.332 2.126-.998s.675-1.575.675-2.73c0-1.142-.225-2.042-.675-2.7s-1.16-.988-2.126-.988-1.676.333-2.126.998-.675 1.562-.675 2.69c0 1.142.218 2.05.655 2.72s1.152 1.008 2.146 1.008zm-.02 1.854c-1.64 0-2.91-.484-3.81-1.45s-1.35-2.338-1.35-4.112c0-.833.118-1.592.353-2.277s.574-1.27 1.018-1.753a4.56 4.56 0 0 1 1.632-1.129c.645-.27 1.377-.403 2.197-.403.833 0 1.572.138 2.217.413a4.57 4.57 0 0 1 1.622 1.139c.436.484.766 1.065.987 1.743s.333 1.42.333 2.227c0 .914-.128 1.717-.383 2.408s-.615 1.277-1.078 1.753a4.51 4.51 0 0 1-1.642 1.078c-.632.242-1.33.363-2.096.363m11.306-5.22c-.685.04-1.24.114-1.663.222s-.75.245-.977.413a1.2 1.2 0 0 0-.454.585c-.074.222-.11.46-.11.715 0 .457.144.813.433 1.068s.715.383 1.28.383c1.008 0 1.753-.255 2.237-.766s.726-1.202.726-2.076v-.605zm1.51 3.527a4.87 4.87 0 0 1-1.431 1.169c-.564.31-1.25.464-2.056.464-.497 0-.96-.064-1.39-.19s-.803-.32-1.118-.574-.565-.58-.746-.977-.272-.863-.272-1.4c0-.726.16-1.313.483-1.764a3.34 3.34 0 0 1 1.26-1.058c.517-.255 1.1-.433 1.743-.534a17.2 17.2 0 0 1 1.935-.191l1.552-.08v-.443c0-.793-.19-1.34-.575-1.643s-.883-.453-1.5-.453c-.712 0-1.24.12-1.582.363s-.568.59-.675 1.048l-2.096-.222c.188-1.02.65-1.766 1.39-2.237s1.753-.705 3.043-.705c.833 0 1.52.108 2.066.322s.977.51 1.3.887.548.823.675 1.34.192 1.085.192 1.703v6.55h-2.197v-1.37m2.68-7.296v-1.814h1.653v-2.822h2.277v2.822h2.6v1.814h-2.6v5.482c0 .537.11.927.333 1.17s.547.363.977.363a5.06 5.06 0 0 0 .655-.04 3.24 3.24 0 0 0 .615-.141l.343 1.713a6.6 6.6 0 0 1-2.096.323c-1.156 0-1.962-.3-2.42-.897s-.685-1.495-.685-2.69v-5.28h-1.653" fill="#2a4f83"/><path d="M23.125 13.65v3.64h3.64v-3.64h-3.64m0 4.312v3.64h3.64v-3.64h-3.64m4.312 0v3.64h3.64v-3.64h-3.64m-4.312 4.292v3.64h3.64v-3.64h-3.64m4.312 0v3.64h3.64v-3.64h-3.64m-4.313 4.292v3.64h3.64v-3.64h-3.64m4.312 0v3.64h3.64v-3.64h-3.64m4.312-4.292v3.64h3.64v-3.64h-3.64m0 4.292v3.64h3.64v-3.64h-3.64M18.8 13.65v3.64h3.64v-3.64H18.8m0 4.312v3.64h3.64v-3.64H18.8m-4.312 0v3.64h3.64v-3.64H14.5m4.312 4.292v3.64h3.64v-3.64H18.8m-4.312 0v3.64h3.64v-3.64H14.5m4.313 4.292v3.64h3.64v-3.64h-3.64m-4.312 0v3.64h3.64v-3.64H14.5m-4.313-4.292v3.64h3.64v-3.64h-3.64m0 4.292v3.64h3.64v-3.64h-3.64m6.757 15.994a.9.9 0 0 1 .611.227c.152.115.267.267.343.458.572.65 1.22 1.03 1.945 1.03.8 0 1.487-.458 2.098-1.22.203-.32.516-.462.838-.462a1.17 1.17 0 0 1 .306.042c.23.077.457.2.6.42.6.8 1.335 1.22 2.097 1.22.8 0 1.487-.458 2.098-1.22.203-.32.515-.462.838-.462a1.17 1.17 0 0 1 .306.042c.23.077.458.2.6.42.6.8 1.335 1.22 2.098 1.22.8 0 1.487-.458 2.097-1.22.205-.296.546-.456.876-.456a.9.9 0 0 1 .611.227.99.99 0 0 1 .23 1.45c-.953 1.335-2.326 2.098-3.737 2.098-1.106 0-2.097-.42-2.974-1.182-.84.762-1.83 1.182-2.936 1.182s-2.097-.42-2.974-1.182a4.22 4.22 0 0 1-2.936 1.182c-1.106 0-2.097-.42-2.974-1.182-.84.762-1.868 1.182-2.936 1.182-1.487 0-2.822-.8-3.852-2.098-.343-.496-.305-1.144.114-1.4.23-.197.482-.288.72-.288.316 0 .6.16.805.44.6.8 1.296 1.22 2.097 1.22s1.487-.458 2.097-1.22c.205-.296.546-.456.876-.456" fill="#8ecef1"/><path d="M13.97 43.428c.495 0 .976-.297 1.47-.908a1.85 1.85 0 0 1 1.504-.768 1.69 1.69 0 0 1 1.112.406 1.8 1.8 0 0 1 .508.628c.427.457.846.68 1.28.68.493 0 .97-.294 1.46-.898.336-.5.87-.784 1.475-.784l.016-17.553a2.64 2.64 0 0 0-1.105.228L13.724 28 8.26 30.462c-.462.192-.693.73-.54 1.23l5.555 11.548c.275.154.513.186.695.186" fill="#427abe"/><path d="M37.317 30.462L31.853 28l-7.966-3.54a2.64 2.64 0 0 0-1.105-.228v17.554c.17 0 .342.023.508.068l.044.013c.166.055.664.222.998.705.317.412.824.895 1.46.895.492 0 .97-.294 1.46-.898.336-.5.87-.784 1.475-.784a1.96 1.96 0 0 1 .512.069l.043.013c.166.056.664.222.998.705.317.412.825.895 1.46.895.172 0 .342-.05.512-.122l5.604-11.65c.154-.5-.077-1.04-.54-1.23" fill="#2a4f83"/></svg>