<svg xmlns="http://www.w3.org/2000/svg" viewBox="18.24 21.46 120 60" width="120" height="60"><path d="M56.902 51.666c.3-.3.257-.892 0-1.217l-1.63-1.63-7.288-7.065c-.3-.3-.8-.3-1.166 0-.3.3-.43.892 0 1.217l7.648 7.493c.3.3.3.892 0 1.217l-7.802 7.75c-.3.3-.3.892 0 1.217.3.3.892.257 1.166 0l7.288-7.22zm-33.352 0c-.3-.3-.257-.892 0-1.217l1.63-1.63 7.288-7.065c.3-.3.8-.3 1.166 0 .3.3.43.892 0 1.217l-7.493 7.493c-.3.3-.3.892 0 1.217l7.648 7.75c.3.3.3.892 0 1.217-.3.3-.892.257-1.166 0l-7.442-7.116z" fill="#3999c6"/><path d="M34.096 67.03L48.67 46.402H41.6l6.86-10.51H38.16l-5.54 15.62 6.756.05z" fill="#fcd116"/><path d="M44.127 48.922L34.096 67.03 48.67 46.402H41.6l6.86-10.51h-5.384L37.37 48.87z" opacity=".3" fill="#ff8c00" enable-background="new "/><text x="24.758" y="69.865" font-family="HelveticaNeue-Medium" font-size="4.472" transform="matrix(2.078997 0 0 2.078997 7.587214 -90.456403)">Azure Functions</text></svg>