<?xml version="1.0" encoding="UTF-8" standalone="no"?>
<!-- Generator: Adobe Illustrator 19.2.0, SVG Export Plug-In . SVG Version: 6.00 Build 0)  -->

<svg
   xmlns:dc="http://purl.org/dc/elements/1.1/"
   xmlns:cc="http://creativecommons.org/ns#"
   xmlns:rdf="http://www.w3.org/1999/02/22-rdf-syntax-ns#"
   xmlns:svg="http://www.w3.org/2000/svg"
   xmlns="http://www.w3.org/2000/svg"
   xmlns:sodipodi="http://sodipodi.sourceforge.net/DTD/sodipodi-0.dtd"
   xmlns:inkscape="http://www.inkscape.org/namespaces/inkscape"
   version="1.1"
   id="Layer_1"
   x="0px"
   y="0px"
   viewBox="0 0 64 63.999998"
   xml:space="preserve"
   sodipodi:docname="sofi-icon.svg"
   width="64"
   height="64"
   inkscape:version="0.92.3 (2405546, 2018-03-11)"><metadata
   id="metadata57"><rdf:RDF><cc:Work
       rdf:about=""><dc:format>image/svg+xml</dc:format><dc:type
         rdf:resource="http://purl.org/dc/dcmitype/StillImage" /><dc:title></dc:title></cc:Work></rdf:RDF></metadata><defs
   id="defs55">
	
	
	
	
	
	

	
	
	
	
	
	
	
	
</defs><sodipodi:namedview
   pagecolor="#ffffff"
   bordercolor="#666666"
   borderopacity="1"
   objecttolerance="10"
   gridtolerance="10"
   guidetolerance="10"
   inkscape:pageopacity="0"
   inkscape:pageshadow="2"
   inkscape:window-width="1920"
   inkscape:window-height="1001"
   id="namedview53"
   showgrid="false"
   inkscape:zoom="5.5496271"
   inkscape:cx="62.114504"
   inkscape:cy="15.866132"
   inkscape:window-x="-9"
   inkscape:window-y="-9"
   inkscape:window-maximized="1"
   inkscape:current-layer="Layer_1" />
<style
   type="text/css"
   id="style2">
	.st0{fill:#2AC5F4;}
	.st1{fill:#A3A5A8;}
</style>

<g
   id="g134"
   transform="matrix(1.9986203,0,0,1.9986203,-114.93717,-19.990594)"><g
     transform="matrix(0.1303298,0,0,0.1303298,-0.54057686,10.458522)"
     id="g6">
		<path
   class="st0"
   d="m 568.3,163.4 c -21,-0.1 -37.7,16.4 -38,37.2 -0.2,20.5 16.9,37.8 37.5,38 20.6,0.1 37.9,-16.9 38,-37.4 0.2,-20.7 -16.7,-37.7 -37.5,-37.8 z"
   id="path4"
   inkscape:connector-curvature="0"
   style="fill:#2ac5f4" />
	</g><g
     transform="matrix(0.1303298,0,0,0.1303298,-0.54057686,10.458522)"
     id="g10">
		<path
   class="st0"
   d="m 484.1,81.6 c -21.3,-0.3 -38.2,15.7 -38.5,36.5 -0.3,20.9 16.1,38.1 36.8,38.6 20.9,0.5 38.7,-16.9 38.7,-37.7 -0.1,-20.3 -16.6,-37.1 -37,-37.4 z"
   id="path8"
   inkscape:connector-curvature="0"
   style="fill:#2ac5f4" />
	</g><g
     transform="matrix(0.1303298,0,0,0.1303298,-0.54057686,10.458522)"
     id="g14">
		<path
   class="st0"
   d="m 482.9,163.5 c -21,0.1 -37.8,17.1 -37.3,37.8 0.4,21 17.3,37.6 38,37.4 20.6,-0.2 37.8,-17.7 37.5,-38 -0.4,-20.9 -17.2,-37.3 -38.2,-37.2 z"
   id="path12"
   inkscape:connector-curvature="0"
   style="fill:#2ac5f4" />
	</g><g
     transform="matrix(0.1303298,0,0,0.1303298,-0.54057686,10.458522)"
     id="g18">
		<path
   class="st0"
   d="m 653.6,156.7 c 20.8,-0.2 37.3,-17.1 37.1,-38.1 -0.2,-20.9 -16.8,-37.1 -38,-37 -21,0.1 -37.2,16.7 -37.1,37.8 0.2,20.8 17.2,37.5 38,37.3 z"
   id="path16"
   inkscape:connector-curvature="0"
   style="fill:#2ac5f4" />
	</g><g
     transform="matrix(0.1303298,0,0,0.1303298,-0.54057686,10.458522)"
     id="g22">
		<path
   class="st0"
   d="m 567.7,75.2 c 21.2,0.2 37.8,-16.1 37.9,-37 C 605.7,17.1 589.5,0.3 568.6,0 548,-0.3 530.7,16.5 530.5,37.2 c -0.1,21 16.3,37.9 37.2,38 z"
   id="path20"
   inkscape:connector-curvature="0"
   style="fill:#2ac5f4" />
	</g><g
     transform="matrix(0.1303298,0,0,0.1303298,-0.54057686,10.458522)"
     id="g26">
		<path
   class="st0"
   d="m 653.2,75.3 c 21,0 37.5,-16.6 37.5,-37.6 C 690.7,16.8 673.9,0 653.1,0 c -20.8,0 -37.5,16.8 -37.5,37.7 0.1,21 16.6,37.6 37.6,37.6 z"
   id="path24"
   inkscape:connector-curvature="0"
   style="fill:#2ac5f4" />
	</g><g
     transform="matrix(0.1303298,0,0,0.1303298,-0.54057686,10.458522)"
     id="g30">
		<path
   class="st0"
   d="M 482.8,0 C 462.1,0.1 445.5,16.8 445.4,37.4 445.3,58.6 461.8,75 483.1,75 504.3,75 521.2,58.4 521.2,37.5 521.2,16.7 503.9,-0.1 482.8,0 Z m 0.4,64.3 c -15.2,0 -27,-11.8 -26.9,-26.9 0.1,-14.7 11.9,-26.6 26.7,-26.7 15,-0.1 27.4,11.9 27.4,26.8 0,15 -12,26.8 -27.2,26.8 z"
   id="path28"
   inkscape:connector-curvature="0"
   style="fill:#2ac5f4" />
	</g><g
     transform="matrix(0.1303298,0,0,0.1303298,-0.54057686,10.458522)"
     id="g34">
		<path
   class="st0"
   d="m 652.7,163.6 c -20.7,0.1 -37.3,16.8 -37.4,37.4 -0.1,21.2 16.4,37.6 37.7,37.6 21.2,0 38.1,-16.6 38.1,-37.5 -0.1,-20.8 -17.3,-37.6 -38.4,-37.5 z m 0.4,64.3 c -15.2,0 -27,-11.8 -26.9,-26.9 0.1,-14.7 11.9,-26.6 26.7,-26.7 15,-0.1 27.4,11.9 27.4,26.8 0,14.9 -12.1,26.8 -27.2,26.8 z"
   id="path32"
   inkscape:connector-curvature="0"
   style="fill:#2ac5f4" />
	</g><path
     class="st1"
     d="m 78.204688,24.521107 c -0.338857,-1.068704 -1.055671,-1.994046 -1.981013,-2.606596 -0.130329,-0.09123 -0.273692,-0.169428 -0.417055,-0.247626 -0.06516,-0.0391 -0.143363,-0.0782 -0.221561,-0.104264 -0.143362,-0.06517 -0.299758,-0.13033 -0.443121,-0.182462 -0.299759,-0.104264 -0.625583,-0.182461 -0.951408,-0.234593 -0.247626,-0.0391 -0.495253,-0.05213 -0.755912,-0.05213 -0.417056,0 -0.834111,0.05213 -1.2251,0.156395 -0.312792,0.0782 -0.612551,0.195495 -0.899276,0.325825 -0.781979,0.377956 -1.446661,0.951407 -1.928881,1.668221 -0.0391,0.06517 -0.09123,0.13033 -0.13033,0.195495 -0.443121,0.729847 -0.703781,1.603057 -0.716814,2.528398 v 0 c -0.01303,2.762992 2.137409,4.900401 4.913434,4.900401 2.762991,0 4.965565,-2.163475 4.965565,-4.887368 v 0 c 0.02607,-0.508286 -0.05213,-0.990506 -0.208528,-1.459694 z m -4.717938,4.887368 c -1.941914,0 -3.45374,-1.498793 -3.440707,-3.427674 0.01303,-1.889782 1.524858,-3.401608 3.414641,-3.414641 1.928881,-0.01303 3.492838,1.524859 3.505871,3.427674 0,1.902815 -1.550924,3.414641 -3.479805,3.414641 z"
     id="path46"
     inkscape:connector-curvature="0"
     style="fill:#a3a5a8;stroke-width:0.1303298" /></g>
</svg>