<svg xmlns="http://www.w3.org/2000/svg" xmlns:i="&amp;#38;ns_ai;" xml:space="preserve" id="Layer_1" width="120" height="60" x="0" y="0" version="1.1"><style id="style2" type="text/css">.st0{fill:#335283}.st1{fill:#812124}</style><g i:extraneous="self" id="g26" transform="translate(9.735 7.434)scale(.16636)"><g id="g24"><path id="path4" fill="#335283" d="M326.3 0c27.3.2 48 23.2 45.4 50.4-1.3 13.5-7.5 24.2-18.1 32.3-5.6 4.3-12.4 3.6-16.2-1.4-3.7-4.9-2.5-11.6 3.1-15.9 8.2-6.4 11.4-14.9 9.2-24.8-2.1-9.8-8.5-16.1-18.5-18.4-10.9-2.5-22.1 3-27.1 13.2-5 10.4-2.1 22.5 7.4 29.8 4.3 3.3 6.3 7.2 5 12.4-1.8 7.1-10.3 10.3-16.4 6-12.1-8.4-18.9-20.2-19.9-34.9C278.5 23.1 297.5 3.4 319 .4c2.5-.2 4.9-.2 7.3-.4" class="st0"/><g id="g10"><path id="path6" fill="#812124" d="M339.3 113.8c-2.7-.6-4.9-1.3-7-1.4-1.1 0-2.8 1.1-3.1 2-.7 2.2 1 2.7 2.9 2.7.7 0 1.4.2 2.3.4-3.3 3.3-6.9 3.9-10.5 1.9-.6-.3-1.5-.7-2.1-.5-4.1.9-6.4-1.7-8.5-4.4-6.1-7.6-4.8-17.6 3.2-24 7.6-6.2 10.6-13.4 7.5-21-1.5-3.7-4.5-7.3-7.6-9.9-9.4-7.7-8.9-21.8 1.4-27.7 7.4-4.2 17.2-2.1 21.9 4.7 5.2 7.6 3.7 17.4-3.8 22.7-4 2.8-7 6.2-8.3 10.9-2.1 7.8.5 15 7.6 20 8.7 5.9 9.6 18.4 4.1 23.6" class="st1"/><path id="path8" fill="#812124" d="M312.8 36.6c2.7.6 4.9 1.3 7 1.4 1.1 0 2.8-1.1 3.1-2 .7-2.2-1-2.7-2.9-2.7-.7 0-1.4-.2-2.3-.4 3.3-3.3 6.9-3.9 10.5-1.9.6.3 1.5.7 2.1.5 4.1-.9 6.4 1.7 8.5 4.4 6.1 7.7 4.8 17.6-3.2 24.1-7.6 6.2-10.6 13.5-7.5 21.1 1.5 3.7 4.5 7.3 7.6 9.9 9.4 7.7 8.9 21.9-1.4 27.8-7.4 4.3-17.2 2.1-21.9-4.7-5.2-7.6-3.7-17.4 3.8-22.8 4-2.8 7-6.2 8.3-10.9 2.1-7.8-.5-15.1-7.6-20.1-8.7-6-9.6-18.5-4.1-23.7" class="st1"/></g><path id="path12" fill="#335283" d="M0 225.4V85.2h85.3v25.4H28.4v28h39.9v25.2H28.4v36h56.9v25.4H0Z" class="st0"/><path id="path14" fill="#335283" d="m125.5 175.7-32.2-48.1h31.4l13.8 20.8c2.4 3.8 4.8 9 4.8 9s2.2-5.4 4.6-9l14-20.8h31.4l-32.4 48.1 33.8 49.7h-31.2l-15.4-23.2c-2.6-3.6-4.6-7.6-4.8-8.2-.2.4-1.8 4.2-4.4 8.2l-15.8 23.2H91.8Z" class="st0"/><path id="path16" fill="#335283" d="M201.3 275.6V127.8h28v9.8c7.6-8 17.6-12 28.4-12 27 0 42.5 24.6 42.5 50.7 0 26.4-14.8 51.3-42.3 51.3-11.4 0-22-5.6-29.6-14.8v62.9h-27zm71.1-99c0-14.4-7.2-26-21.8-26-13 0-21.6 10.8-21.6 25.8 0 13.4 8.8 26.2 21.6 26.2 14.4.1 21.8-11.7 21.8-26" class="st0"/><path id="rect18" fill="#335283" d="M310.8 127.8h28.6v97.7h-28.6z" class="st0"/><path id="path20" fill="#335283" d="M442.5 225.5h-28v-6.6c0-1.6.2-4 .6-6.8-6.4 9.2-16.4 15.8-29.6 15.8-20.2 0-35.4-15.8-35.4-42.1v-58.1h28.2v56.5c0 13.6 8.6 20.6 18 20.6 8.4 0 17.6-6.6 18.2-19.8v-57.3h28z" class="st0"/><path id="path22" fill="#335283" d="M456.5 225.5v-97.7h28v5c0 1.8-.4 5-.8 8 5.8-9.4 15.2-15.4 26.8-15.4 14.2 0 22.8 6.6 27.4 16 7-9.4 17.8-16 31-16 20 0 32.2 13.6 32.2 37.1v63.1h-28v-61.1c0-10.6-7.6-16-15.2-16s-15.2 5.4-15.2 16.8v60.3h-28v-61.7c0-10-7-14.8-14.4-14.8-7.6 0-15.4 5.2-15.8 15.2v61.3h-28z" class="st0"/></g></g></svg>