<svg xmlns="http://www.w3.org/2000/svg" width="64" height="64"><style><![CDATA[.D{fill:#441a0d}.E{fill:#d89687}.F{fill:#aa2322}]]></style><linearGradient id="A" gradientUnits="userSpaceOnUse" x1="14.447" y1="36.867" x2="18.048" y2="33.266"><stop offset=".198" stop-color="#914f00"/><stop offset=".335" stop-color="#9f5600"/><stop offset=".609" stop-color="#b76200"/><stop offset=".841" stop-color="#c66900"/><stop offset="1" stop-color="#cb6c00"/></linearGradient><linearGradient id="B" gradientUnits="userSpaceOnUse" x1="18.392" y1="33.123" x2="38.261" y2="13.255"><stop offset="0" stop-color="#fbba00"/><stop offset=".065" stop-color="#fdc000"/><stop offset=".306" stop-color="#ffd500"/><stop offset=".545" stop-color="#ffe300"/><stop offset=".779" stop-color="#ffeb00"/><stop offset="1" stop-color="#ffed00"/></linearGradient><g transform="matrix(1.891965 0 0 1.891965 -9.459824 -24.758934)"><path d="M12.147 23.928c1.328 3.508 3.335 6.713 5.905 9.442s5.645 4.923 9.067 6.468l11.71-26.017z" fill="#d18f00"/><path d="M15.236 39.2l-3.234-3.234h-.014C8.378 34.7 5 38.597 5 46.177c7.68.087 11.478-3.378 10.236-6.988z" fill="#e94f35"/><path d="M14.673 38.626l-2.108-2.108c-2.353-.8-4.548 1.718-4.548 6.656 4.995.058 7.464-2.2 6.656-4.548z" fill="#f39200"/><path d="M17.633 43.26l-9.587-9.587 3.58-1.53 7.536 7.536z" fill="#4b5b5c"/><path d="M19.163 39.68l-7.536-7.536-1.285.55a37.46 37.46 0 0 0 3.638 4.49 38.85 38.85 0 0 0 4.505 4.086z" fill="#3a4949"/><path d="M18.052 33.37c-2.57-2.73-4.577-5.934-5.905-9.442L7.47 25.704a33.69 33.69 0 0 0 6.93 11.103c3.017 3.22 6.64 5.8 10.655 7.594l2.05-4.562c-3.407-1.545-6.497-3.74-9.052-6.468z" fill="url(#A)"/><path d="M12.55 23.77c1.314 3.45 3.277 6.612 5.804 9.298s5.558 4.85 8.922 6.367l11.55-25.612z" fill="url(#B)"/><path d="M26.295 18.572a3 3 0 0 0 5.992-.202 2.91 2.91 0 0 0-.635-1.834zm8.23 2.858a1.98 1.98 0 0 0-1.978 1.978 1.99 1.99 0 0 0 1.155 1.8l1.617-3.595c-.245-.116-.52-.173-.794-.173z" class="F"/><g class="D"><circle r=".419" cy="20.117" cx="28.938"/><circle r=".419" cy="18.298" cx="28.938"/></g><g class="E"><circle r=".419" cy="18.298" cx="30.612"/><circle r=".419" cy="19.785" cx="30.713"/><circle r=".419" cy="18.991" cx="27.465"/></g><g class="D"><circle r=".274" cy="22.629" cx="33.327"/><circle r=".274" cy="23.25" cx="34.207"/></g><g class="E"><circle r=".274" cy="22.181" cx="34.337"/><circle r=".274" cy="23.813" cx="33.327"/></g><g transform="rotate(288.132)"><ellipse ry="2.988" rx="3.003" cy="34.253" cx="-16.374" class="F"/><g class="D"><circle r=".419" cy="32.825" cx="-17.594"/><circle r=".419" cy="35.994" cx="-16.036"/><circle r=".419" cy="33.095" cx="-14.566"/><circle r=".419" cy="34.178" cx="-16.04"/></g><g class="E"><circle r=".419" cy="34.178" cx="-17.71"/><circle r=".419" cy="32.388" cx="-16.105"/><circle r=".419" cy="35.661" cx="-17.824"/><circle r=".419" cy="34.876" cx="-14.572"/></g></g><g transform="rotate(295.894)"><circle r="3.003" cy="28.184" cx="-14.382" class="F"/><g class="D"><circle r=".419" cy="29.42" cx="-12.94"/><circle r=".419" cy="27.838" cx="-16.142"/><circle r=".419" cy="26.376" cx="-13.222"/><circle r=".419" cy="27.839" cx="-14.295"/></g><g class="E"><circle r=".419" cy="29.518" cx="-14.304"/><circle r=".419" cy="27.907" cx="-12.522"/><circle r=".419" cy="29.603" cx="-15.794"/><circle r=".419" cy="26.371" cx="-15.004"/></g></g><g transform="rotate(351.478)"><circle r="2.021" cy="34.641" cx="16.318" class="F"/><g class="D"><circle r=".289" cy="33.669" cx="17.135"/><circle r=".289" cy="35.818" cx="16.084"/><circle r=".289" cy="33.859" cx="15.092"/><circle r=".289" cy="34.591" cx="16.078"/></g><g class="E"><circle r=".289" cy="34.584" cx="17.203"/><circle r=".289" cy="33.386" cx="16.127"/><circle r=".289" cy="35.589" cx="17.286"/><circle r=".289" cy="35.056" cx="15.088"/></g></g><g transform="matrix(.144376 0 0 .144376 5.000001 13.821884)"><path d="M173.8 125.6a20.62 20.62 0 0 0-28.6 6.4 20.62 20.62 0 0 0 6.4 28.6c2.8 1.8 5.9 2.8 9.1 3.1l16.2-35.9-3.1-2.2z" class="F"/><g class="D"><circle r="2.9" cy="144.9" cx="149.6" transform="matrix(.5371 -.8435 .8435 .5371 -52.9677 193.3004)"/><circle r="2.9" cy="128.1" cx="162.5" transform="matrix(.5371 -.8435 .8435 .5371 -32.8627 196.3666)"/><circle r="2.9" cy="140.7" cx="163.5" transform="matrix(.5371 -.8435 .8435 .5371 -43.0378 203.0585)"/></g><g class="E"><circle r="2.9" cy="150.5" cx="157.2" transform="matrix(.5371 -.8435 .8435 .5371 -54.2277 202.2641)"/><circle r="2.9" cy="134.6" cx="152.7" transform="matrix(.5371 -.8435 .8435 .5371 -42.8276 191.0687)"/><path d="M163 155.1c-.6 1-.6 2.2 0 3.1l2-4.4c-.8.1-1.5.6-2 1.3zm11.5-22.8c-1.4-.9-3.2-.5-4 .9-.9 1.4-.5 3.2.9 4 .3.2.6.3.9.4l2.2-5.3c.1.1.1 0 0 0z"/></g></g><path d="M30.497 17.36a.42.42 0 0 0 .419-.419c0-.043 0-.072-.014-.116l-.78.303c.072.13.217.23.375.23z" class="D"/></g></svg>