<?xml version="1.0" encoding="UTF-8" standalone="no"?>
<!-- Generator: Adobe Illustrator 21.0.0, SVG Export Plug-In . SVG Version: 6.00 Build 0)  -->

<svg
   xmlns:dc="http://purl.org/dc/elements/1.1/"
   xmlns:cc="http://creativecommons.org/ns#"
   xmlns:rdf="http://www.w3.org/1999/02/22-rdf-syntax-ns#"
   xmlns:svg="http://www.w3.org/2000/svg"
   xmlns="http://www.w3.org/2000/svg"
   xmlns:xlink="http://www.w3.org/1999/xlink"
   xmlns:sodipodi="http://sodipodi.sourceforge.net/DTD/sodipodi-0.dtd"
   xmlns:inkscape="http://www.inkscape.org/namespaces/inkscape"
   version="1.1"
   id="Layer_1"
   x="0px"
   y="0px"
   viewBox="0 0 205.28554 256.00001"
   xml:space="preserve"
   inkscape:version="0.91 r13725"
   sodipodi:docname="google_ads-official.svg"
   width="205.28554"
   height="256"><metadata
     id="metadata4256"><rdf:RDF><cc:Work
         rdf:about=""><dc:format>image/svg+xml</dc:format><dc:type
           rdf:resource="http://purl.org/dc/dcmitype/StillImage" /><dc:title></dc:title></cc:Work></rdf:RDF></metadata><defs
     id="defs4254" /><sodipodi:namedview
     pagecolor="#ffffff"
     bordercolor="#666666"
     borderopacity="1"
     objecttolerance="10"
     gridtolerance="10"
     guidetolerance="10"
     inkscape:pageopacity="0"
     inkscape:pageshadow="2"
     inkscape:window-width="1855"
     inkscape:window-height="1056"
     id="namedview4252"
     showgrid="false"
     fit-margin-top="0"
     fit-margin-left="0"
     fit-margin-right="0"
     fit-margin-bottom="0"
     inkscape:zoom="2.9379797"
     inkscape:cx="125.45"
     inkscape:cy="156.39999"
     inkscape:window-x="65"
     inkscape:window-y="24"
     inkscape:window-maximized="1"
     inkscape:current-layer="Layer_1" /><style
     type="text/css"
     id="style4224">
	.st0{clip-path:url(#SVGID_2_);fill:#3C8BD9;}
	.st1{clip-path:url(#SVGID_2_);fill:#FABC04;}
	.st2{clip-path:url(#SVGID_2_);fill:#34A852;}
	.st3{clip-path:url(#SVGID_2_);fill:#E1C025;}
	.st4{clip-path:url(#SVGID_2_);fill:#757575;}
</style><g
     id="g4226"
     transform="matrix(0.81850052,0,0,0.81850052,0,-0.02695177)"><defs
       id="defs4228"><rect
         id="SVGID_1_"
         width="250.89999"
         height="312.79999"
         x="0"
         y="0" /></defs><clipPath
       id="SVGID_2_"><use
         xlink:href="#SVGID_1_"
         style="overflow:visible"
         id="use4232"
         x="0"
         y="0"
         width="100%"
         height="100%" /></clipPath><path
       class="st0"
       d="m 85.9,28.6 c 2.4,-6.3 5.7,-12.1 10.6,-16.8 19.6,-19.1 52,-14.3 65.3,9.7 10,18.2 20.6,36 30.9,54 17.2,29.9 34.6,59.8 51.6,89.8 14.3,25.1 -1.2,56.8 -29.6,61.1 -17.4,2.6 -33.7,-5.4 -42.7,-21 -15.1,-26.3 -30.3,-52.6 -45.4,-78.8 -0.3,-0.6 -0.7,-1.1 -1.1,-1.6 -1.6,-1.3 -2.3,-3.2 -3.3,-4.9 C 115.5,108.3 108.6,96.6 101.9,84.9 97.6,77.3 93.1,69.8 88.8,62.2 84.9,55.4 83.1,48 83.3,40.2 c 0.3,-4 0.8,-8 2.6,-11.6"
       id="path4234"
       clip-path="url(#SVGID_2_)"
       inkscape:connector-curvature="0"
       style="fill:#3c8bd9" /><path
       class="st1"
       d="m 85.9,28.6 c -0.9,3.6 -1.7,7.2 -1.9,11 -0.3,8.4 1.8,16.2 6,23.5 11,18.9 22,37.9 32.9,56.9 1,1.7 1.8,3.4 2.8,5 -6,10.4 -12,20.7 -18.1,31.1 -8.4,14.5 -16.8,29.1 -25.3,43.6 -0.4,0 -0.5,-0.2 -0.6,-0.5 -0.1,-0.8 0.2,-1.5 0.4,-2.3 4.1,-15 0.7,-28.3 -9.6,-39.7 -6.3,-6.9 -14.3,-10.8 -23.5,-12.1 -12,-1.7 -22.6,1.4 -32.1,8.9 -1.7,1.3 -2.8,3.2 -4.8,4.2 -0.4,0 -0.6,-0.2 -0.7,-0.5 4.8,-8.3 9.5,-16.6 14.3,-24.9 C 45.5,98.4 65.3,64 85.2,29.7 85.4,29.3 85.7,29 85.9,28.6"
       id="path4236"
       clip-path="url(#SVGID_2_)"
       inkscape:connector-curvature="0"
       style="fill:#fabc04" /><path
       class="st2"
       d="m 11.8,158 c 1.9,-1.7 3.7,-3.5 5.7,-5.1 24.3,-19.2 60.8,-5.3 66.1,25.1 1.3,7.3 0.6,14.3 -1.6,21.3 -0.1,0.6 -0.2,1.1 -0.4,1.7 -0.9,1.6 -1.7,3.3 -2.7,4.9 -8.9,14.7 -22,22 -39.2,20.9 C 20,225.4 4.5,210.6 1.8,191 c -1.3,-9.5 0.6,-18.4 5.5,-26.6 1,-1.8 2.2,-3.4 3.3,-5.2 0.5,-0.4 0.3,-1.2 1.2,-1.2"
       id="path4238"
       clip-path="url(#SVGID_2_)"
       inkscape:connector-curvature="0"
       style="fill:#34a852" /><path
       class="st1"
       d="m 11.8,158 c -0.4,0.4 -0.4,1.1 -1.1,1.2 -0.1,-0.7 0.3,-1.1 0.7,-1.6 l 0.4,0.4"
       id="path4240"
       clip-path="url(#SVGID_2_)"
       inkscape:connector-curvature="0"
       style="fill:#fabc04" /><path
       class="st3"
       d="m 81.6,201 c -0.4,-0.7 0,-1.2 0.4,-1.7 0.1,0.1 0.3,0.3 0.4,0.4 l -0.8,1.3"
       id="path4242"
       clip-path="url(#SVGID_2_)"
       inkscape:connector-curvature="0"
       style="fill:#e1c025" /><path
       class="st4"
       d="M 20.7,260.4 C 9.4,260.4 0,269.5 0,280.7 c 0,11.2 9.4,20.2 20.7,20.2 6.1,0 10.6,-2 14.2,-5.7 3.7,-3.7 4.8,-8.8 4.8,-12.9 0,-1.3 -0.1,-2.5 -0.3,-3.5 l -18.7,0 0,5.5 13.3,0 c -0.4,3.1 -1.4,5.4 -3,7 -1.9,1.9 -5,4.1 -10.3,4.1 -8.2,0 -14.6,-6.6 -14.6,-14.7 0,-8.1 6.4,-14.7 14.6,-14.7 4.4,0 7.7,1.7 10,4 l 3.9,-3.9 c -3.3,-3.2 -7.7,-5.7 -13.9,-5.7 z m 33.9,14.5 c -7.1,0 -13,5.5 -13,13.2 0,7.6 5.8,13.2 13,13.2 7.2,0 13,-5.6 13,-13.2 0,-7.6 -5.9,-13.2 -13,-13.2 m 0,21.2 c -3.9,0 -7.3,-3.3 -7.3,-8 0,-4.7 3.4,-8 7.3,-8 3.9,0 7.3,3.2 7.3,8 0,4.7 -3.4,8 -7.3,8 m 28.2,-21.2 c -7.2,0 -13,5.5 -13,13.2 0,7.6 5.8,13.2 13,13.2 7.1,0 13,-5.6 13,-13.2 0,-7.6 -5.8,-13.2 -13,-13.2 m 0,21.2 c -3.9,0 -7.3,-3.3 -7.3,-8 0,-4.7 3.4,-8 7.3,-8 3.9,0 7.3,3.2 7.3,8 0,4.7 -3.3,8 -7.3,8 m 28.1,-21.2 c -6.5,0 -12.4,5.7 -12.4,13.1 0,7.3 5.9,13 12.4,13 3.1,0 5.5,-1.4 6.8,-3 l 0.2,0 0,1.9 c 0,5 -2.6,7.7 -6.9,7.7 -3.5,0 -5.6,-2.5 -6.5,-4.6 l -5,2.1 c 1.4,3.5 5.2,7.7 11.5,7.7 6.7,0 12.3,-4 12.3,-13.6 l 0,-23.4 -5.4,0 0,2.1 -0.2,0 c -1.3,-1.6 -3.7,-3 -6.8,-3 m 0.5,21 c -3.9,0 -7.2,-3.3 -7.2,-7.9 0,-4.6 3.3,-8 7.2,-8 3.9,0 6.9,3.4 6.9,8 0,4.6 -3,7.9 -6.9,7.9 m 16.1,-33.9 5.7,0 0,38.6 -5.7,0 0,-38.6 z m 21,12.9 c -6.8,0 -12.5,5.3 -12.5,13.2 0,7.4 5.6,13.2 13.1,13.2 6.1,0 9.6,-3.7 11,-5.8 l -4.5,-3 c -1.5,2.2 -3.6,3.6 -6.5,3.6 -3,0 -5.1,-1.3 -6.4,-4 l 17.7,-7.3 -0.6,-1.5 c -1.1,-2.9 -4.5,-8.4 -11.3,-8.4 m -6.8,12.8 c -0.2,-5.1 4,-7.7 6.9,-7.7 2.3,0 4.3,1.1 4.9,2.8 l -11.8,4.9 z"
       id="path4244"
       clip-path="url(#SVGID_2_)"
       inkscape:connector-curvature="0"
       style="fill:#757575" /><path
       class="st4"
       d="m 170.4,300 13.2,-35.1 5.1,0 13.2,35.1 -5,0 -3.4,-9.5 -14.7,0 -3.4,9.5 -5,0 z m 9.9,-13.7 11.7,0 -5.7,-15.8 -0.2,0 -5.8,15.8 z"
       id="path4246"
       clip-path="url(#SVGID_2_)"
       inkscape:connector-curvature="0"
       style="fill:#757575" /><path
       class="st4"
       d="m 206.5,297.1 c -2.2,-2.5 -3.3,-5.5 -3.3,-9.1 0,-3.5 1.1,-6.5 3.3,-9.1 2.3,-2.5 4.9,-3.7 8.1,-3.7 1.8,0 3.4,0.4 4.8,1.1 1.5,0.8 2.6,1.7 3.4,3 l 0.2,0 -0.2,-3.3 0,-11.1 4.5,0 0,35.1 -4.3,0 0,-3.3 -0.2,0 c -0.8,1.2 -1.9,2.2 -3.4,3 -1.5,0.8 -3.1,1.1 -4.8,1.1 -3.2,0 -5.9,-1.2 -8.1,-3.7 m 14.2,-2.8 c 1.5,-1.6 2.2,-3.7 2.2,-6.3 0,-2.5 -0.7,-4.6 -2.2,-6.2 -1.4,-1.6 -3.2,-2.4 -5.4,-2.4 -2.2,0 -4,0.8 -5.4,2.4 -1.5,1.6 -2.2,3.7 -2.2,6.2 0,2.5 0.7,4.6 2.2,6.2 1.5,1.6 3.3,2.4 5.4,2.4 2.2,0.1 4,-0.7 5.4,-2.3"
       id="path4248"
       clip-path="url(#SVGID_2_)"
       inkscape:connector-curvature="0"
       style="fill:#757575" /><path
       class="st4"
       d="m 248.1,298.6 c -1.8,1.4 -4.1,2.2 -6.9,2.2 -2.4,0 -4.5,-0.6 -6.4,-1.9 -1.8,-1.3 -3.1,-2.9 -3.9,-5 l 4,-1.7 c 0.6,1.4 1.4,2.6 2.6,3.4 1.1,0.8 2.4,1.2 3.7,1.2 1.4,0 2.6,-0.3 3.6,-0.9 1,-0.6 1.4,-1.4 1.4,-2.2 0,-1.5 -1.2,-2.7 -3.5,-3.4 l -4.1,-1 c -4.7,-1.2 -7,-3.4 -7,-6.8 0,-2.2 0.9,-3.9 2.7,-5.3 1.8,-1.3 4.1,-2 6.8,-2 2.1,0 4,0.5 5.8,1.5 1.7,1 2.9,2.4 3.6,4.1 l -4,1.7 c -0.5,-1 -1.2,-1.8 -2.2,-2.4 -1,-0.6 -2.2,-0.9 -3.5,-0.9 -1.2,0 -2.2,0.3 -3.2,0.9 -0.9,0.6 -1.4,1.3 -1.4,2.2 0,1.4 1.3,2.4 3.9,2.9 l 3.6,0.9 c 4.8,1.2 7.1,3.6 7.1,7.2 0.1,2.1 -0.9,3.9 -2.7,5.3"
       id="path4250"
       clip-path="url(#SVGID_2_)"
       inkscape:connector-curvature="0"
       style="fill:#757575" /></g></svg>