<svg xmlns="http://www.w3.org/2000/svg" width="64" height="64" viewBox="0 0 32 32"><path d="M24.988 7.402c-.9-.637-2.144-.424-2.78.475-.78 1.105-1.646 1.923-2.63 2.49l-.276.15-.26.127c-.92.426-1.942.65-3.126.685-1.183-.035-2.207-.26-3.127-.685-1.21-.56-2.246-1.466-3.167-2.766-.636-.9-1.88-1.112-2.78-.475s-1.112 1.88-.476 2.78c1.315 1.858 2.912 3.23 4.746 4.08a10.86 10.86 0 0 0 1.105.441c-1.558 1.125-3.243 2.702-4.05 4.864-.838 2.243-.827 4.672.03 6.84.822 2.08 2.342 3.77 4.282 4.762 2.16 1.105 4.913 1.107 7.36.005 2.568-1.156 4.243-3.272 4.48-5.662.25-2.515-.956-4.755-3.073-5.706-2.193-.985-4.666-.282-6.3 1.8-.683.865-.535 2.12.33 2.8s2.12.535 2.8-.33c.486-.616 1.046-.843 1.536-.622.418.188.83.726.737 1.672-.094.937-.917 1.864-2.148 2.42-1.333.6-2.83.63-3.907.08s-1.923-1.5-2.388-2.676c-.35-.883-.633-2.3-.002-3.98.473-1.266 1.665-2.46 3.75-3.76L18.4 15.64l2.944-1.698c1.57-.858 2.948-2.12 4.11-3.76.636-.9.423-2.144-.476-2.78zM14.85 3.647c.255-.256.595-.396.956-.396s.7.14.957.396.396.595.396.957-.14.7-.396.956-.595.396-.957.396-.7-.14-.956-.396-.396-.595-.396-.957.14-.7.396-.956zm.956 5.56c1.23 0 2.386-.48 3.255-1.35a4.57 4.57 0 0 0 1.348-3.255c0-1.23-.48-2.386-1.348-3.255S17.035 0 15.805 0 13.42.48 12.55 1.35a4.57 4.57 0 0 0-1.348 3.255 4.57 4.57 0 0 0 1.348 3.255 4.57 4.57 0 0 0 3.255 1.349z" fill="#231f20"/></svg>