<?xml version="1.0" encoding="UTF-8" standalone="no"?>
<!-- Generator: Adobe Illustrator 21.1.0, SVG Export Plug-In . SVG Version: 6.00 Build 0)  -->

<svg
   xmlns:dc="http://purl.org/dc/elements/1.1/"
   xmlns:cc="http://creativecommons.org/ns#"
   xmlns:rdf="http://www.w3.org/1999/02/22-rdf-syntax-ns#"
   xmlns:svg="http://www.w3.org/2000/svg"
   xmlns="http://www.w3.org/2000/svg"
   xmlns:sodipodi="http://sodipodi.sourceforge.net/DTD/sodipodi-0.dtd"
   xmlns:inkscape="http://www.inkscape.org/namespaces/inkscape"
   version="1.1"
   id="Layer_1"
   x="0px"
   y="0px"
   viewBox="0 0 120 60"
   enable-background="new 0 0 324 161.5"
   xml:space="preserve"
   sodipodi:docname="bentley-ar21.svg"
   width="120"
   height="60"
   inkscape:version="0.92.2 5c3e80d, 2017-08-06"><metadata
     id="metadata159"><rdf:RDF><cc:Work
         rdf:about=""><dc:format>image/svg+xml</dc:format><dc:type
           rdf:resource="http://purl.org/dc/dcmitype/StillImage" /><dc:title></dc:title></cc:Work></rdf:RDF></metadata><defs
     id="defs157" /><sodipodi:namedview
     pagecolor="#ffffff"
     bordercolor="#666666"
     borderopacity="1"
     objecttolerance="10"
     gridtolerance="10"
     guidetolerance="10"
     inkscape:pageopacity="0"
     inkscape:pageshadow="2"
     inkscape:window-width="1440"
     inkscape:window-height="799"
     id="namedview155"
     showgrid="false"
     inkscape:zoom="1.4142136"
     inkscape:cx="162"
     inkscape:cy="80.75"
     inkscape:window-x="0"
     inkscape:window-y="1"
     inkscape:window-maximized="1"
     inkscape:current-layer="Layer_1" /><g
     id="g152"
     transform="matrix(0.24301069,0,0,0.24301069,20.627712,10.389037)"><path
       d="m 48.1,134.5 c 2.8,0.2 4.1,1.6 4.1,3.7 0,1.8 -1,3.5 -3.6,3.7 -2.6,0.1 -8.8,0.2 -11.5,0 -0.1,-2.4 -0.1,-4.9 0,-7.4 3.1,-0.1 8.4,-0.2 11,0 m 0.5,13 c 3.9,0.1 5.8,1.8 5.8,4.3 0,2.6 -1.7,4 -5.7,4.2 -3.6,0.2 -7.8,0.2 -11.7,0 -0.1,-2.9 -0.1,-5.5 0,-8.5 3.9,-0.1 8.2,-0.1 11.6,0 m -17.9,14 c 0.2,-10.6 0.2,-21.4 0,-32.3 5.5,0.1 11.8,0.1 17.5,0 6.6,0 10.1,4 10.1,8.1 0,3 -1.4,5.7 -3.6,7 3.7,1.1 5.8,4.3 5.8,8.1 0,6.2 -4.5,9.1 -10.1,9.1 z"
       id="path2"
       inkscape:connector-curvature="0"
       style="clip-rule:evenodd;fill-rule:evenodd" /><path
       d="m 212.1,155.9 c -0.1,1.9 -0.1,3.7 0,5.6 -8.9,-0.2 -17.8,-0.2 -26.7,0 0.2,-10.8 0.2,-21.5 0,-32.3 2.1,0.1 4.1,0.1 6.2,0 -0.2,8.9 -0.2,17.8 0,26.7 6.8,0.1 13.7,0.1 20.5,0"
       id="path4"
       inkscape:connector-curvature="0"
       style="clip-rule:evenodd;fill-rule:evenodd" /><path
       d="m 113.4,129.2 c 6,7.2 12.3,14.4 18.8,21.6 0.2,-7.2 0.2,-14.4 0,-21.6 1.8,0.1 3.6,0.1 5.5,0 -0.2,10.6 -0.2,21.4 0,32.3 -1.6,-0.1 -3.1,-0.1 -4.7,0 -6.3,-7.5 -12.9,-15.2 -19.7,-22.9 -0.1,7.6 -0.1,15.3 0,22.9 -1.8,-0.1 -3.6,-0.1 -5.5,0 0.1,-10.8 0.1,-21.5 0,-32.3 1.8,0.1 3.7,0.1 5.6,0"
       id="path6"
       inkscape:connector-curvature="0"
       style="clip-rule:evenodd;fill-rule:evenodd" /><path
       d="m 97.7,134.8 c -7,-0.2 -14.1,-0.2 -21.3,0 -0.2,2.4 -0.2,4.9 0,7.3 4.8,0.1 9.7,0.1 14.6,0 -0.1,1.9 -0.1,3.8 0,5.6 -4.8,-0.1 -9.6,-0.1 -14.6,0 -0.1,2.7 -0.1,5.4 0,8.1 7.2,0.1 14.4,0.1 21.6,0 -0.1,1.9 -0.1,3.8 0,5.6 -9.3,-0.2 -18.5,-0.2 -27.8,0 0.2,-10.8 0.2,-21.5 0,-32.3 9.2,0.2 18.4,0.2 27.4,0 0,2 0,3.9 0.1,5.7"
       id="path8"
       inkscape:connector-curvature="0"
       style="clip-rule:evenodd;fill-rule:evenodd" /><path
       d="m 272.2,161.5 c 0.2,-4.6 0.2,-9.2 0,-13.9 -4.7,-6.1 -9.7,-12.3 -14.8,-18.4 2.5,0.1 5.1,0.1 7.6,0 3.2,4.2 6.7,8.3 10.3,12.5 3.6,-4.2 7.1,-8.3 10.3,-12.5 2.5,0.1 5.1,0.1 7.6,0 -5.1,6.1 -10.1,12.3 -14.8,18.4 -0.2,4.6 -0.2,9.3 0,13.9 -2.1,-0.1 -4.2,-0.1 -6.2,0"
       id="path10"
       inkscape:connector-curvature="0"
       style="clip-rule:evenodd;fill-rule:evenodd" /><path
       d="m 248.3,134.8 c -7,-0.2 -14.1,-0.2 -21.3,0 -0.2,2.4 -0.2,4.9 0,7.3 4.8,0.1 9.7,0.1 14.6,0 -0.1,1.9 -0.1,3.8 0,5.6 -4.8,-0.1 -9.7,-0.1 -14.6,0 -0.1,2.7 -0.1,5.4 0,8.1 7.2,0.1 14.4,0.1 21.6,0 -0.1,1.9 -0.1,3.8 0,5.6 -9.3,-0.2 -18.5,-0.2 -27.8,0 0.2,-10.8 0.2,-21.5 0,-32.3 9.2,0.2 18.4,0.2 27.4,0 0,2 0,3.9 0.1,5.7"
       id="path12"
       inkscape:connector-curvature="0"
       style="clip-rule:evenodd;fill-rule:evenodd" /><path
       d="m 159,161.5 c 0.2,-8.8 0.2,-17.7 0,-26.7 -3.8,-0.2 -7.7,-0.2 -11.6,0 0.1,-1.9 0.1,-3.7 0,-5.6 9.8,0.2 19.6,0.2 29.4,0 -0.1,1.9 -0.1,3.7 0,5.6 -3.9,-0.1 -7.7,-0.1 -11.6,0 -0.2,8.9 -0.2,17.8 0,26.7 -2.1,-0.1 -4.2,-0.1 -6.2,0"
       id="path14"
       inkscape:connector-curvature="0"
       style="clip-rule:evenodd;fill-rule:evenodd" /><path
       d="M 0,9.4 C 0,9.4 2.4,6.6 3.1,5.8 3.8,5 4.3,4.4 4.8,3.9 5.3,3.4 5.8,3.3 6.2,3.4 c 0.4,0 5.1,0.6 6.4,0.7 1.3,0.1 6.8,0.4 9,0.4 2.2,0 8.1,0 9.3,0 C 32.1,4.5 41.4,4 43.5,3.8 45.6,3.6 57.4,3.5 60.3,3.4 63.2,3.4 76.4,3.9 79.7,4 83,4.2 92,4.6 95,4.6 c 3,-0.1 17.2,-0.7 20,-0.7 2.8,0 11.7,0.6 13.7,0.9 2,0.3 4.3,1.1 4.3,1.1 0,0 3.8,-1.5 5.7,-2.2 1.9,-0.6 7,-2.1 10.9,-2.7 3.9,-0.6 8,-1.1 12.1,-1.1 4.1,0 10,0.5 14,1.3 4,0.9 8.6,2.3 10.4,3 1.8,0.7 5.5,2.4 5.5,2.4 0,0 2.7,-0.8 5,-1.3 2.3,-0.5 5.9,-1.1 7.9,-1.2 2,-0.1 3.6,-0.3 6.1,-0.3 2.5,0 8.5,0.6 10.1,0.8 1.7,0.2 5.6,0.6 9.6,0.6 2.7,0 11.5,-0.4 14,-0.6 2.5,-0.1 17.8,-0.8 20.9,-0.9 3.1,0 16.9,0.8 19.7,0.9 2.8,0.1 8.6,0.4 10.4,0.4 1.8,0 7.9,-0.3 10.9,-0.6 3,-0.3 9.6,-0.9 10.7,-0.9 1.2,-0.1 1.8,-0.1 2,0.1 0.2,0.1 2.1,2 2.9,2.9 0.8,0.9 1.6,2 1.9,2.3 0.3,0.3 0.4,0.5 0.3,0.7 -0.1,0.2 -0.6,1.2 -0.9,1.4 -0.2,0.3 -0.4,0.4 -0.6,0.5 -0.3,0.1 -3,1.5 -3.8,1.9 -0.9,0.4 -3.2,1.3 -3.2,1.3 0,0 0.7,1.6 0.9,2.3 0.3,0.7 0.6,2.1 0.6,2.5 0,0.4 0,1.4 -0.1,1.5 -0.1,0.1 -1.5,0.9 -2,1.1 -0.5,0.2 -2.5,1.1 -3.4,1.3 -0.9,0.2 -2.5,0.7 -2.5,0.7 0,0 0.1,1.2 0.1,2 0,0.8 0,1.6 -0.2,2.4 -0.2,0.7 -0.7,1.6 -1,2 -0.3,0.4 -1,0.8 -1.5,1.1 -0.4,0.2 -2.1,0.7 -3,0.9 -0.9,0.2 -2,0.3 -2.5,0.4 -0.5,0 -0.9,0 -0.9,0 0,0 0,1.5 -0.1,2.2 -0.1,0.7 -0.3,1.8 -0.5,2.4 -0.2,0.5 -0.6,1.4 -1.1,1.8 -0.5,0.4 -0.8,0.7 -1.7,0.9 -0.8,0.2 -1.9,0.4 -3,0.6 -1,0.1 -3,0.3 -3.7,0.4 -0.7,0 -1.4,0.1 -1.4,0.1 0,0 -0.5,1.9 -0.7,2.4 -0.2,0.6 -0.8,1.8 -1.3,2.4 -0.4,0.6 -1.2,1.5 -1.6,1.8 -0.4,0.3 -1,0.8 -1.3,0.9 -0.3,0.1 -1.8,0.2 -2.4,0.2 -0.7,0 -2.8,0 -3.8,-0.1 -1,-0.1 -2.2,-0.2 -2.9,-0.3 -0.6,-0.1 -1.1,-0.2 -1.1,-0.2 0,0 -0.2,1.4 -0.3,1.8 -0.1,0.4 -0.3,1.3 -0.6,1.9 -0.3,0.7 -0.6,1.2 -0.9,1.5 -0.3,0.3 -0.6,0.6 -1.4,0.8 -0.9,0.2 -1.7,0.2 -2.2,0.3 -0.5,0 -3.9,0.1 -4.8,0.1 -0.9,0 -2.6,0 -3.3,0 -0.6,0 -1.6,0 -1.6,0 0,0 -0.3,1.1 -0.4,1.7 -0.2,0.6 -0.6,1.6 -0.8,2 -0.2,0.4 -0.5,1 -0.9,1.4 -0.4,0.4 -0.6,0.6 -1.3,0.7 -0.8,0.1 -1.7,0.2 -2.6,0.1 -0.9,0 -3,-0.1 -3.9,-0.3 -0.9,-0.1 -2.9,-0.5 -3.4,-0.7 -0.6,-0.2 -1.1,-0.4 -1.1,-0.4 0,0 -0.3,1.1 -0.6,1.5 -0.3,0.5 -0.9,1.4 -1.3,1.8 -0.5,0.4 -1,1.1 -1.9,1.2 -0.9,0.1 -1.8,0 -2.6,-0.2 -0.8,-0.1 -2.4,-0.5 -3.1,-0.7 -0.7,-0.2 -2.5,-0.7 -2.9,-0.8 -0.4,-0.1 -0.9,-0.3 -0.9,-0.3 0,0 -0.5,1 -0.8,1.4 -0.3,0.4 -0.9,1.1 -1.3,1.4 -0.4,0.3 -1.2,0.9 -1.6,0.9 -0.4,0 -1,0 -1.8,-0.1 -0.8,-0.1 -1.7,-0.4 -2.5,-0.6 -0.8,-0.3 -1.5,-0.6 -1.5,-0.6 0,0 -0.9,2.5 -1.1,3.1 -0.2,0.6 -1.4,2.9 -1.8,3.7 -0.3,0.7 -2.2,3.7 -2.8,4.5 -0.7,1 -3.5,4.5 -4.1,5.2 -0.7,0.7 -1.6,1.7 -2.2,2.3 -0.6,0.6 -3.1,2.9 -4.5,4 -1.4,1.1 -3.8,2.9 -5.7,4.1 -1.9,1.2 -5.4,3 -6.9,3.7 -1.5,0.7 -3.3,1.4 -3.3,1.4 0,0 -0.7,1.3 -1.1,2.2 -0.4,0.8 -1,2.1 -1.2,2.3 -0.2,0.2 -0.5,0.3 -0.8,0.2 -0.3,-0.1 -2,-0.7 -2.6,-1 -0.6,-0.2 -2,-0.8 -2,-0.8 0,0 -0.9,1.4 -1.3,1.9 -0.3,0.5 -1.2,1.9 -1.4,2 -0.2,0.2 -0.5,0.1 -0.7,0 -0.2,-0.1 -2,-1.1 -2.4,-1.3 -0.4,-0.2 -1.9,-1.1 -1.9,-1.1 0,0 -0.9,1.1 -1.3,1.7 -0.4,0.5 -1.6,2 -1.8,2.1 -0.1,0.1 -0.3,0.1 -0.6,0 -0.3,-0.1 -0.8,-0.6 -1.4,-1 -0.6,-0.4 -1.6,-1.2 -1.9,-1.4 -0.3,-0.2 -0.6,-0.5 -0.6,-0.5 0,0 -1.2,1.1 -1.6,1.5 -0.4,0.4 -1.4,1.4 -1.6,1.5 -0.1,0.1 -0.4,0.4 -0.4,0.4 0,0 -0.2,0.2 -0.5,0 -0.3,-0.1 -1.5,-1.2 -2,-1.7 -0.4,-0.4 -1.6,-1.6 -1.6,-1.6 0,0 -1.5,1.1 -1.9,1.4 -0.5,0.3 -1.8,1.4 -2,1.5 -0.2,0.1 -0.6,0.1 -0.7,-0.2 -0.2,-0.3 -1.6,-1.9 -1.8,-2.2 -0.3,-0.3 -1.1,-1.4 -1.1,-1.4 0,0 -1.7,0.9 -2.4,1.3 -0.7,0.3 -1.7,1 -1.9,1.1 -0.2,0.1 -0.6,0.1 -0.7,-0.2 -0.1,-0.2 -1,-1.5 -1.4,-2 -0.4,-0.6 -1.2,-1.8 -1.2,-1.8 0,0 -1.6,0.6 -2.1,0.8 -0.6,0.2 -2.2,0.9 -2.5,0.9 -0.3,0.1 -0.7,0 -0.9,-0.2 -0.2,-0.3 -1.3,-2.5 -1.5,-3 -0.2,-0.5 -0.6,-1.3 -0.6,-1.3 0,0 -1.9,-0.7 -3.1,-1.3 -1.3,-0.6 -4.1,-2 -5.3,-2.6 -1.2,-0.6 -3.1,-1.8 -4.3,-2.6 -1.2,-0.8 -3.9,-2.8 -4.9,-3.7 -1.1,-0.9 -4.7,-4.5 -5.5,-5.5 -0.9,-1 -2.2,-2.6 -3.4,-4.2 -1.2,-1.6 -2,-3 -2.8,-4.5 -0.8,-1.5 -1.4,-2.8 -2.2,-4.6 -0.7,-1.8 -1.4,-3.5 -1.5,-4.1 -0.2,-0.6 -0.2,-0.9 -0.2,-0.9 0,0 -2.1,0.7 -3.6,1 C 97,63.5 95.4,64 93.9,63.9 92.4,63.8 92.1,63.6 91.8,63.3 91.4,63 91,62.5 90.5,61.8 c -0.5,-0.7 -1,-1.7 -1,-1.7 0,0 -2.3,0.6 -3.2,0.8 -0.9,0.2 -3,0.6 -4.3,0.8 -1.3,0.2 -2.7,0.3 -3.5,0.2 C 77.8,61.8 77.2,61.5 76.6,61 75.9,60.4 75.7,60 75.3,59.5 75,59.1 74.4,57.8 74.2,57.5 74.1,57.2 74,56.8 74,56.8 c 0,0 -2.7,0 -3.3,0 -0.7,0 -4.3,0 -5.1,0 -0.7,0 -2.7,-0.2 -3.5,-0.3 -0.8,-0.2 -1.3,-0.3 -2.1,-1.3 -0.8,-1 -1,-1.5 -1.3,-2.3 -0.3,-0.8 -0.5,-1.7 -0.5,-1.7 0,0 -2.3,0 -3.6,-0.2 -1.2,-0.1 -3.8,-0.4 -5.2,-0.7 -1.4,-0.2 -3.6,-0.6 -4.1,-0.8 -0.6,-0.2 -0.9,-0.7 -1.4,-1.2 -0.5,-0.6 -1,-1.3 -1.5,-2 -0.5,-0.7 -1.4,-2.1 -1.5,-2.3 -0.1,-0.2 -0.2,-0.4 -0.2,-0.4 0,0 -2.4,-0.2 -3.5,-0.4 -1.1,-0.1 -2.6,-0.4 -3.3,-0.5 -0.7,-0.1 -2.6,-0.5 -3,-0.7 -0.4,-0.2 -0.8,-0.4 -1.1,-1.1 -0.4,-0.7 -0.6,-2.2 -0.9,-3.5 -0.3,-1.3 -0.5,-2.4 -0.5,-2.4 0,0 -2.8,-0.6 -4.4,-1 -1.5,-0.4 -2,-0.6 -3,-0.9 -1.1,-0.3 -2.1,-0.7 -2.7,-1.1 -0.6,-0.4 -0.6,-1.1 -0.6,-1.5 -0.1,-0.4 -0.2,-2.2 -0.3,-2.7 0,-0.5 0,-1.6 0,-1.6 0,0 -3.9,-1.8 -4.8,-2.2 C 11.6,23.6 9.3,22.4 8.8,22.2 8.3,22 8.4,21.5 8.5,21.1 c 0.1,-0.4 0.4,-2 0.6,-2.7 0.2,-0.8 0.4,-2 0.5,-2.2 0,-0.2 0.1,-0.3 0.1,-0.3 0,0 -4,-1.9 -4.9,-2.4 C 3.9,13 1.3,11.7 0.9,11.5 0.6,11.3 0.4,10.9 0.3,10.3 0.1,9.7 0,9.4 0,9.4"
       id="path16"
       inkscape:connector-curvature="0"
       style="clip-rule:evenodd;fill-rule:evenodd" /><path
       d="m 122.7,32.6 c 0.4,-4.3 5.7,-9 5,-13.4 -0.6,-3.4 -4.9,-6.3 -9.1,-7 -2.5,-0.4 -10.5,-1 -12.3,-1 -2.2,-0.1 -8,-0.2 -9.8,-0.2 -1.8,0 -6.6,0 -8.1,-0.1 -1.4,0 -3.2,-0.1 -5.5,-0.5 C 80.6,10 78.9,9.5 76.7,8.8 74.4,8.1 72.6,7.6 70.8,7.2 69,6.8 66.6,6.5 65,6.3 63.4,6.2 60.3,5.9 58,5.9 c -2.3,0 -8.1,0 -9.9,0 -1.8,0 -7.6,0.2 -9.1,0.2 -1.5,0 -3.1,0 -3.8,0 -0.7,0 -0.6,0.4 -0.9,0.4 -0.3,0 -2.1,0 -3.1,0 -1,0 -1.7,0 -2.1,-0.1 -0.3,0 -0.9,0 -0.9,0 0,0 -0.1,0.3 0.3,0.4 0.3,0.1 1.2,0.2 1.5,0.2 0.3,0 2.7,0.2 3.5,0.2 0.8,0 2.3,0 3.2,0.1 0.9,0.1 2.5,0.1 3.6,0.1 1.1,0 5.4,0 6.9,0 1.6,0 4.5,0 6,0.1 1.5,0 4.9,0.2 7.6,0.5 2.7,0.3 4.9,0.6 7.6,1.3 2.6,0.6 5.7,1.6 7.2,2.1 1.5,0.5 3.6,1 4.7,1.2 1.1,0.2 2.1,0.3 2.3,0.5 0.3,0.2 0.3,0.5 0.1,0.8 -0.2,0.3 -0.3,0.5 -0.4,0.8 -0.1,0.3 -0.2,0.6 -0.2,0.6 h -1 c 0,0 0.2,-0.2 0.2,-0.4 0,-0.2 -0.6,-0.6 -1.2,-0.7 -0.6,-0.1 -3.3,-0.4 -4.1,-0.5 -0.7,-0.1 -3.4,-0.3 -4.9,-0.3 -1.5,0 -7.2,0 -8.7,0 -1.5,0.1 -6.9,-0.1 -8.2,0 -1.4,0 -6.1,0 -7.4,0 -1.3,0 -4.3,0 -5.5,0 -1.2,0 -5.3,0 -6.7,0 -1.4,0 -6.3,-0.1 -7.3,-0.1 -0.9,0 -3.6,-0.1 -5,-0.1 C 21,13.2 16.4,13 15.1,13 13.9,13 12.3,12.9 11.8,12.8 11.3,12.7 8.7,11.3 7.6,10.8 6.5,10.3 4.5,9.2 4,9 3.6,8.8 3,8.5 2.9,8.4 2.7,8.3 2,9.1 1.8,9.3 c -0.2,0.3 -0.6,0 -0.6,0 0,0 2.5,-2.8 3,-3.4 C 4.7,5.3 5.3,4.5 5.6,4.4 5.9,4.3 7,4.3 7.7,4.4 c 0.7,0.1 4.9,0.4 5.8,0.5 0.8,0.1 4.5,0.2 5.4,0.2 1,0 5.6,0.1 7.1,0.1 1.5,0 6.3,0.2 7.7,0.1 1.4,-0.1 5.4,-0.4 6.6,-0.5 1.2,-0.1 5.1,-0.3 6.9,-0.4 1.8,0 5.5,0 6.7,-0.1 1.2,-0.1 5.8,-0.1 7.5,-0.1 1.6,0 6.2,0.2 7.7,0.2 1.5,0 8.2,0.4 9.9,0.5 1.7,0.1 10.3,0.4 12.2,0.5 1.9,0 4.7,0.1 6.2,0 1.5,-0.1 8.7,-0.4 10.9,-0.5 2.2,-0.1 7.9,-0.2 10.3,-0.1 2.3,0.1 7.9,0.6 9.8,0.9 1.9,0.2 3.8,0.7 4.3,0.7 0.5,0 1.4,0.1 1.7,0.3 0.3,0.3 0.6,0.9 1.2,1.2 0.6,0.3 1.4,0.5 1.7,0.9 0.3,0.4 0.3,1.1 0.5,1.5 0.2,0.3 0.8,1.4 0.9,2.1 0.1,0.7 0,2 -0.5,2.7 -0.5,0.8 -1.2,1.7 -2.1,2.6 -0.9,0.9 -2.1,1.8 -3.3,2.8 -1.1,1 -3,2.5 -4,3.8 -1,1.4 -1.6,2.3 -1.8,3.6 -0.2,1.4 -0.1,2.2 -0.2,2.4 -0.1,0.2 -0.3,0.8 -0.6,1.2 -0.3,0.3 -1.7,2 -2.2,2.7 -0.5,0.7 -1.4,1.9 -1.6,2.2 -0.2,0.3 -0.4,0.7 -0.4,0.7 l -0.3,-0.6 c 0,0 0.7,-0.8 0.8,-1.1 0.1,-0.1 0,-1.1 0.2,-2.8"
       id="path18"
       inkscape:connector-curvature="0"
       style="clip-rule:evenodd;fill:#ffffff;fill-rule:evenodd" /><path
       d="m 10.6,16.6 0.2,-0.9 c 0,0 2.4,0 3.1,0 0.7,0 5,0.2 6.5,0.2 1.5,0 6.2,0.1 7.3,0.1 1.1,0 7.4,0.1 8.8,0.1 1.4,0 8,0 9.3,0 1.4,0 8.9,0.1 10.1,0.1 1.2,0 7.4,0 8.8,0 1.5,0 7.7,0 9.1,0 1.4,0 5,0.1 5.8,0 0.8,0 1.4,-0.1 1.6,-0.1 0.2,0 0.7,-0.3 1,-0.1 0.3,0.1 0.4,0.5 0.6,0.7 0.1,0.2 0.4,0.4 0.6,0.5 0.2,0.1 0.5,0.3 0.7,0.6 0.2,0.3 0.2,0.3 0.5,0.5 0.3,0.3 0.4,0.4 0.3,0.5 -0.1,0.1 -0.6,0.8 -0.8,1.1 -0.2,0.3 -0.3,0.7 -0.4,0.8 -0.1,0.1 -0.8,0.2 -0.8,0.2 0,0 0.4,-0.3 0.3,-0.6 -0.1,-0.3 -0.6,-0.9 -1.5,-1 -1,-0.1 -3.5,0.2 -4.6,0.3 -1.1,0.1 -8.5,0.8 -9.7,0.9 -1.3,0.1 -11.5,0.8 -13.2,1 -1.7,0.1 -9.8,0.6 -11.3,0.7 -1.5,0.1 -7.6,0.4 -9.4,0.5 -1.9,0.1 -6.2,0.3 -7.8,0.4 -1.6,0.1 -4.9,0.1 -5.5,0.1 -0.6,0 -1.4,-0.4 -1.8,-0.6 -0.4,-0.2 -3,-1.4 -3.8,-1.7 -0.7,-0.3 -2,-0.9 -2.3,-1.2 -0.2,-0.3 -0.1,-0.8 -0.1,-1.2 0,-0.4 0,-0.9 -0.4,-1.2 -0.7,-0.3 -1.2,-0.7 -1.2,-0.7"
       id="path20"
       inkscape:connector-curvature="0"
       style="clip-rule:evenodd;fill:#ffffff;fill-rule:evenodd" /><path
       d="M 18.7,26.6 V 26 c 0,0 1.1,0 1.7,-0.1 0.6,-0.1 2.9,-0.1 4.4,-0.2 1.5,-0.1 7.5,-0.3 9.4,-0.4 1.9,-0.1 10.4,-0.6 12,-0.7 1.6,-0.1 12.8,-0.9 14.4,-1 1.6,-0.1 10.8,-0.9 12.3,-1 1.5,-0.1 6.3,-0.6 8,-0.8 1.7,-0.1 2,-0.4 2.3,-0.4 0.3,0 0.5,-0.2 0.8,0.1 0.3,0.3 0.9,1 1.2,1.2 0.3,0.2 1.4,0.9 1.5,1.3 0,0.3 -0.3,0.8 -0.5,1.1 -0.2,0.3 -0.2,1 -0.2,1 l -1.1,0.2 c 0,0 0.1,-0.2 0.1,-0.4 0,-0.2 -0.2,-0.6 -0.6,-0.8 -0.5,-0.2 -1.2,-0.3 -2,-0.2 -0.8,0.2 -4.2,0.8 -5.6,1 -1.4,0.2 -9.6,1.6 -11.6,1.9 -2,0.3 -9.8,1.5 -11.7,1.8 -1.9,0.3 -9.1,1.2 -11.7,1.5 -2.5,0.3 -5.6,0.6 -7.3,0.6 -1.7,0.1 -3.4,0.3 -4.7,0.1 -1.2,-0.1 -4,-1 -5.2,-1.3 -1.2,-0.3 -3,-0.8 -3.3,-1.1 -0.3,-0.3 -0.5,-0.6 -0.6,-1 -0.1,-0.4 -0.7,-1.2 -1,-1.3 -0.3,-0.1 -1,-0.5 -1,-0.5"
       id="path22"
       inkscape:connector-curvature="0"
       style="clip-rule:evenodd;fill:#ffffff;fill-rule:evenodd" /><path
       d="m 28.9,34.7 c 0,0 0.5,0.1 1,0 0.5,-0.1 0.9,-0.3 1.5,-0.3 0.6,0 2.4,-0.1 3.4,-0.1 1,0 3.9,-0.3 4.9,-0.4 1,-0.1 5.8,-0.6 7.4,-0.8 1.6,-0.2 10.2,-1.4 11.6,-1.6 1.4,-0.2 8.6,-1.3 10.6,-1.6 2,-0.3 8.5,-1.5 10.2,-1.8 1.7,-0.3 3.7,-0.6 4.5,-0.8 0.8,-0.2 1.3,-0.5 1.7,-0.4 0.4,0.1 0.9,0.4 1.4,0.7 0.5,0.3 1.3,0.5 1.8,0.7 0.4,0.2 0.9,0.4 0.9,0.6 0,0.2 0,0.8 -0.2,1.1 -0.2,0.3 -0.3,0.6 -0.4,0.9 -0.1,0.4 -0.1,0.7 -0.1,0.7 l -1,0.4 c 0,0 0.2,-0.5 0,-0.7 -0.2,-0.2 -0.7,-0.6 -1,-0.6 -0.3,0 -0.8,0.1 -1.2,0.2 -0.5,0.2 -6.7,2 -7.7,2.3 l -7.4,2.1 c -0.9,0.3 -6.8,1.7 -8.4,2.1 -1.7,0.3 -7.8,1.6 -9.3,1.9 -1.5,0.3 -7.3,1 -8.8,1.1 -1.5,0.1 -1.7,0.1 -2.9,0.1 -1.2,-0.1 -3.4,-0.3 -4.8,-0.6 -1.4,-0.2 -2.9,-0.5 -3.5,-0.6 -0.5,-0.1 -1,-0.2 -1.3,-0.8 -0.2,-0.6 -0.2,-1.1 -0.6,-1.5 -0.4,-0.4 -0.9,-0.9 -1.2,-1 -0.3,-0.1 -0.8,-0.1 -0.9,-0.3 -0.2,-0.6 -0.2,-1 -0.2,-1"
       id="path24"
       inkscape:connector-curvature="0"
       style="clip-rule:evenodd;fill:#ffffff;fill-rule:evenodd" /><path
       d="m 41.4,43.2 c 0,0 4.2,-0.4 5.1,-0.6 0.9,-0.1 7.4,-1.1 9,-1.4 1.5,-0.3 8.2,-1.8 9.4,-2.1 1.2,-0.3 8.5,-2.2 9.9,-2.6 1.5,-0.4 6.3,-1.8 7.7,-2.2 1.3,-0.4 5.2,-1.6 5.7,-1.8 0.4,-0.2 0.9,-0.5 1.3,-0.5 0.4,0 1.7,0.4 2.2,0.6 0.5,0.1 1.7,0.3 1.9,0.6 0.2,0.2 0.3,0.4 0.2,0.7 0,0.3 0,2 0,2.2 0,0.2 0.5,0.6 0.5,0.6 l -1.1,0.4 c -0.2,0.1 -0.7,0.3 -0.7,0.3 0,0 0.1,-0.5 0,-0.6 -0.1,-0.1 -0.7,-0.5 -0.9,-0.6 -0.2,0 -0.4,0 -0.9,0.2 -0.5,0.2 -1.7,0.7 -2.3,1 -0.6,0.3 -4.3,1.7 -5.4,2.2 -1.1,0.4 -5.6,2.1 -7,2.7 -1.4,0.5 -7.9,2.7 -9.1,3.1 -1.2,0.4 -5.5,1.6 -6.5,1.8 -1,0.3 -1.5,0.5 -2.3,0.5 -0.8,0 -4.1,-0.2 -5.4,-0.4 C 51.4,47.1 47.6,46.6 47.1,46.4 46.6,46.2 46.3,46 46,45.7 45.7,45.4 45.4,45.1 44.9,44.8 44.4,44.5 43.8,44.2 43.4,44.1 43,43.9 42.8,43.9 42.5,43.8 42.2,43.7 41.9,43.7 41.8,43.5 41.4,43.4 41.4,43.2 41.4,43.2"
       id="path26"
       inkscape:connector-curvature="0"
       style="clip-rule:evenodd;fill:#ffffff;fill-rule:evenodd" /><path
       d="m 58.7,50.4 c 0,0 1.4,-0.3 1.8,-0.5 0.4,-0.2 2.6,-0.8 3.3,-1 0.7,-0.2 3.2,-0.9 4.2,-1.2 1,-0.3 5.9,-2 6.8,-2.3 0.9,-0.3 6.7,-2.5 7.8,-2.9 1.1,-0.4 7.5,-3.1 8.5,-3.4 0.9,-0.4 1.8,-0.8 2.2,-1 0.3,-0.2 1.4,-0.7 1.9,-0.8 0.5,-0.1 1.5,-0.3 1.9,-0.2 0.4,0 0.8,0 0.9,0.2 0.2,0.2 0.3,0.5 0.2,0.8 0,0.3 0.1,1.2 0.5,1.5 0.4,0.3 1,0.6 1.7,0.7 0.7,0.2 1.3,0.3 1.5,0.3 0.2,0 0.4,0 0.4,0 0,0 -1.3,0.8 -1.6,0.9 L 99,42.3 c 0,0 -0.1,-0.3 -0.3,-0.4 -0.2,-0.1 -0.8,-0.1 -1.3,0 -0.5,0 -1,0.2 -1.5,0.5 -0.5,0.3 -4.9,2.6 -5.8,3.1 -0.9,0.5 -7.7,4 -8.6,4.4 -0.9,0.4 -5.3,2.6 -6,2.9 -0.7,0.3 -1.1,0.6 -1.8,0.7 -0.7,0.1 -2.2,0.1 -3.6,0.1 -1.4,0 -4,0 -4.9,-0.1 -0.8,0 -2,-0.1 -2.7,-0.3 C 61.9,52.9 61.8,52.6 61.4,52.1 61,51.6 60.2,51.2 59.9,51.1 59.6,51 59,50.9 58.8,51 c 0,0 -0.1,-0.6 -0.1,-0.6"
       id="path28"
       inkscape:connector-curvature="0"
       style="clip-rule:evenodd;fill:#ffffff;fill-rule:evenodd" /><path
       d="m 74.5,56 c 0,0 5.3,-2.7 6.1,-3 0.8,-0.3 8.7,-4.4 9.7,-4.9 1,-0.6 6.8,-3.7 8,-4.4 1.2,-0.7 3,-1.6 3.3,-1.8 0.3,-0.2 0.5,-0.5 0.8,-0.6 0.3,-0.1 0.6,-0.2 0.6,-0.2 0,0 0.5,0.6 0.8,1 0.3,0.3 0.9,1 1.6,1.1 0.7,0.1 1,0.1 1.5,0.1 0.4,0 1.2,-0.2 1.2,-0.2 0,0 -1.9,1.8 -2.3,2.1 -0.3,0.3 -4.5,3.7 -5.4,4.5 -0.8,0.7 -3.9,3.1 -4.6,3.7 -0.7,0.6 -2.9,2.2 -3.4,2.4 -0.4,0.2 -1.6,0.7 -2.4,0.9 -0.8,0.2 -4.3,0.9 -5.5,1.2 -1.3,0.3 -4,0.7 -4.5,0.7 -0.5,0 -1.3,0 -1.8,-0.5 -0.5,-0.5 -0.7,-1.2 -1.3,-1.5 -0.6,-0.3 -1,-0.5 -1.4,-0.4 -0.9,0.1 -1,-0.2 -1,-0.2"
       id="path30"
       inkscape:connector-curvature="0"
       style="clip-rule:evenodd;fill:#ffffff;fill-rule:evenodd" /><path
       d="m 89.9,59.1 c 0,0 2.9,-2.1 3.5,-2.6 0.6,-0.5 3.2,-2.5 3.9,-3.1 0.7,-0.6 3.7,-3 4.7,-3.8 0.9,-0.8 3.7,-3.1 4.4,-3.8 0.7,-0.6 2.1,-2 2.1,-2 0,0 0.1,0.6 0.3,0.8 0.3,0.2 0.6,0.6 1.2,0.9 0.6,0.3 1.4,0.3 2,0.3 0.6,0 1.2,-0.1 1.4,-0.1 0.2,0 0.6,0.1 0.6,0.5 0,0.4 0,0.7 0,0.9 0,0.2 0.1,0.3 0.1,0.3 l -4.2,4.7 c -0.8,0.9 -3.2,3.5 -4,4.3 -0.8,0.8 -2.7,2.9 -2.9,3.1 -0.2,0.2 -0.9,0 -1.3,-0.2 -0.5,-0.3 -1,-0.1 -1.7,0.1 -0.6,0.2 -1.8,0.5 -2.6,0.7 -0.7,0.2 -2.5,0.6 -3,0.6 -0.5,0 -1,0 -1.3,-0.4 -0.3,-0.3 -1,-1 -1.3,-1.2 -0.3,-0.2 -0.8,-0.3 -0.9,-0.2 -0.1,0.1 -0.9,0.5 -1,0.2"
       id="path32"
       inkscape:connector-curvature="0"
       style="clip-rule:evenodd;fill:#ffffff;fill-rule:evenodd" /><path
       d="m 103.8,60 c 0,0 2.8,-2.9 3.4,-3.6 0.6,-0.6 4,-4.3 4.7,-5.1 0.7,-0.8 1.9,-2.2 2.2,-2.6 0.3,-0.4 0.5,-0.6 0.7,-0.6 0.1,0 0.9,0 1.5,-0.2 0.6,-0.1 1.6,-0.3 1.8,-0.3 0.2,0.1 0.2,0.3 0.3,0.4 0,0.2 0,2.2 0.1,2.8 0,0.6 0,2.1 -0.1,2.6 -0.1,0.5 -1.7,3.5 -2,4.3 -0.3,0.8 -1.3,2.6 -1.5,3 -0.1,0.3 -0.2,0.4 -0.3,0.6 -0.1,0.1 -0.4,-0.3 -0.7,-0.7 -0.5,-0.6 -1,-0.5 -1.6,-0.4 -0.5,0.1 -3.5,0.9 -4,1 -0.5,0.1 -1.5,0.4 -1.9,0.3 -0.5,-0.1 -0.7,-0.4 -0.9,-0.8 -0.2,-0.4 -0.5,-0.6 -0.9,-0.6 -0.5,0 -0.8,-0.1 -0.8,-0.1"
       id="path34"
       inkscape:connector-curvature="0"
       style="clip-rule:evenodd;fill:#ffffff;fill-rule:evenodd" /><path
       d="m 117.3,58 c 0,0 0.7,-1.6 0.8,-1.9 0.2,-0.3 0.4,-0.8 0.4,-0.8 0,0 0.2,0.9 0.3,1.2 0.2,0.4 0.6,0.8 0.7,1.3 0.1,0.3 0.8,2.1 0.9,2.4 0.1,0.3 0.3,0.7 0.3,1 -0.1,0.3 0,0.5 0,0.7 0.1,0.2 0.2,0.4 0,0.5 -0.2,0.1 -0.7,0.4 -0.9,0.5 -0.2,0.1 -0.6,0 -0.8,-0.3 -0.1,-0.2 -0.7,-0.3 -1.2,-0.6 -0.5,-0.4 -0.4,-0.6 -0.4,-1 0,-0.4 0.2,-1.8 0.1,-2.1 0.1,-0.3 -0.2,-0.9 -0.2,-0.9"
       id="path36"
       inkscape:connector-curvature="0"
       style="clip-rule:evenodd;fill:#ffffff;fill-rule:evenodd" /><path
       d="m 103.3,63.6 c 0,0 0.9,1.1 1.4,1.1 0.6,0 0.7,-0.2 1,-0.2 0.2,-0.1 0.7,-0.1 0.9,0 0.2,0.1 0.5,0.5 0.5,0.8 0,0.3 0.2,1.1 0.4,1.6 0.3,0.7 1.5,3.1 2.2,4.2 0.7,1.1 2.7,4 3.6,5 0.9,1 3.7,4.1 4.4,4.8 0.7,0.6 4.5,3.8 5.8,4.7 1.3,0.9 4.5,3 6.5,3.9 1.9,1 4.3,2.1 5,2.3 0.6,0.2 1,0.3 1.2,0.5 0.1,0.2 0.3,0.4 0.3,0.4 l -0.7,1.2 -0.6,1 -0.5,-0.3 c 0,0 0.4,-0.3 0.2,-0.6 -0.1,-0.3 -0.3,-0.6 -0.7,-0.8 -0.4,-0.2 -2.3,-1 -3.2,-1.4 -0.8,-0.4 -4.5,-2.4 -5.8,-3.2 -1.3,-0.8 -4.5,-3 -6,-4.2 -1.5,-1.2 -4.8,-4.4 -5.8,-5.6 -1.1,-1.2 -3.3,-4.2 -4,-5.2 -0.7,-1.1 -2.7,-4.6 -3.1,-5.6 -0.4,-0.9 -0.6,-1.6 -1,-1.9 -0.4,-0.4 -0.5,-0.4 -0.7,-0.5 -0.2,0 -0.6,-0.1 -0.6,-0.1 0,0 -0.1,-0.3 -0.3,-0.9 -0.2,-0.5 -0.4,-1 -0.4,-1"
       id="path38"
       inkscape:connector-curvature="0"
       style="clip-rule:evenodd;fill:#ffffff;fill-rule:evenodd" /><path
       d="m 107.3,64.3 c 0,0 0.8,0 1.4,-0.3 0.6,-0.3 2.3,-0.7 3,-0.9 0.7,-0.2 1.5,-0.5 1.8,-0.6 0.3,-0.1 0.6,-0.2 0.8,-0.2 0.2,0 0.3,0.2 0.6,0.5 0.2,0.3 0.5,1 0.8,1.2 0.3,0.3 0.8,0.7 1.5,0.6 0.6,-0.1 1.3,-0.1 1.8,-0.4 0.5,-0.2 1.5,-0.9 1.8,-1 0.2,-0.1 0.6,-0.4 0.7,-0.2 0.1,0.1 0.3,0.3 0.4,0.4 0.2,0 0.4,0.3 0.5,0.4 0.1,0.2 1.5,2.3 2.3,3.2 0.8,0.9 1.9,2.2 2.7,3 0.8,0.8 3.1,2.7 4,3.4 0.9,0.6 3.5,2.4 4.7,3 1.2,0.6 2.6,1.4 3.8,1.9 1.2,0.5 2.4,1 2.7,1.1 0.3,0.2 0.4,0.3 0.7,0.5 0.2,0.2 0.4,0.4 0.3,0.6 -0.1,0.2 -1.3,2.1 -1.8,3.1 -0.5,1 -1.5,2.5 -1.9,3.2 -0.4,0.7 -1.4,2.4 -1.7,2.9 -0.3,0.6 -1.1,1.8 -1.1,2 0,0.1 -0.2,0.1 -0.3,0 -0.1,-0.1 0.3,-0.5 0.3,-0.9 0,-0.5 -0.3,-1.1 -0.5,-1.4 -0.3,-0.3 -1,-0.6 -1.4,-0.8 -0.4,-0.2 -2.4,-1.2 -3.5,-1.7 -1,-0.5 -3.1,-1.7 -4.4,-2.6 -1.3,-0.9 -3.1,-2.1 -4.3,-3 -1.2,-0.9 -2.8,-2.4 -3.8,-3.3 -1,-1 -2.7,-2.9 -3.8,-4.3 -1.1,-1.4 -2.4,-3.3 -3.2,-4.6 -0.7,-1.3 -1.5,-3 -1.7,-3.2 -0.3,-0.3 -0.6,-0.7 -1.2,-0.9 -0.5,-0.2 -0.8,-0.3 -1.1,-0.3 -0.2,0 -0.6,0 -0.7,-0.2 -0.2,-0.1 -0.2,-0.2 -0.2,-0.2"
       id="path40"
       inkscape:connector-curvature="0"
       style="clip-rule:evenodd;fill:#ffffff;fill-rule:evenodd" /><path
       d="m 83.9,13.6 c 0,0 4.3,0 5.6,0 1.3,0 4.9,0 5.3,0 0.4,0 0.9,0.2 1.1,0.2 h 0.4 c 0,0 0.2,0.4 0,0.6 -0.1,0.1 -0.3,0.6 -0.4,0.9 -0.1,0.3 0,0.6 -0.2,0.6 -0.2,0 -0.9,0.1 -0.9,0.1 0,0 0.1,-0.3 -0.1,-0.5 -0.2,-0.1 -0.7,-0.3 -1.2,-0.3 -0.4,0 -2.6,0.2 -3.3,0.3 -0.7,0.1 -2.7,0.3 -3,0.4 -0.4,0.1 -0.8,0 -1.1,-0.1 C 85.8,15.7 84.7,15.2 84.4,15 84.1,14.8 84,14.7 83.8,14.7 L 83.4,14.6 83.6,14 c 0.1,-0.1 0.3,-0.4 0.3,-0.4"
       id="path42"
       inkscape:connector-curvature="0"
       style="clip-rule:evenodd;fill:#ffffff;fill-rule:evenodd" /><path
       d="m 85.2,19.7 c 0,0 0.4,-0.6 0.6,-0.7 0.1,-0.1 1.2,-0.4 1.6,-0.5 0.4,-0.1 2.4,-0.6 3.3,-0.8 0.9,-0.2 2.6,-0.5 3.3,-0.7 0.8,-0.2 1.5,-0.5 1.8,-0.5 0.2,0 0.6,0.1 0.9,0.3 0.3,0.2 0.8,0.6 1,0.8 0.3,0.2 0.5,0.6 0.4,0.7 -0.1,0.2 -0.2,0.3 -0.3,0.5 -0.1,0.2 -0.1,0.3 -0.1,0.5 -0.1,0.2 -0.1,0.6 -0.1,0.6 0,0 -0.7,0.2 -0.8,0.2 -0.1,0 -0.3,0.1 -0.3,0.1 0,0 0.2,-0.5 0,-0.6 -0.1,-0.1 -0.6,-0.5 -1.2,-0.5 -0.5,0 -2,0.4 -2.5,0.6 -0.5,0.2 -2.3,0.6 -3,0.9 -0.7,0.2 -1.3,0.5 -1.9,0.5 -0.6,0 -1,-0.3 -1.5,-0.5 -0.5,-0.2 -0.6,-0.3 -0.8,-0.4 -0.1,-0.3 -0.4,-0.5 -0.4,-0.5"
       id="path44"
       inkscape:connector-curvature="0"
       style="clip-rule:evenodd;fill:#ffffff;fill-rule:evenodd" /><path
       d="m 87,24.6 c 0,0 0,-0.4 0.3,-0.6 0.2,-0.2 0.8,-0.3 1,-0.4 0.3,-0.1 1.1,-0.4 2,-0.7 0.9,-0.3 2.6,-0.8 3.3,-1 0.7,-0.2 2.3,-0.7 2.7,-0.9 0.4,-0.2 0.9,-0.5 1.3,-0.4 0.4,0 1.1,0.2 1.5,0.3 0.4,0.2 0.9,0.3 0.9,0.6 0.1,0.3 -0.1,0.7 -0.3,0.9 -0.2,0.2 -0.2,0.4 -0.3,0.6 0,0.2 0,0.5 0,0.5 0,0 -0.3,0.2 -0.6,0.3 L 98.4,24 c 0,0 0,-0.3 -0.2,-0.6 -0.2,-0.2 -0.8,-0.5 -1.2,-0.3 -0.4,0.1 -1.9,0.7 -2.5,1 -0.6,0.3 -2.2,1 -2.8,1.2 -0.6,0.2 -0.9,0.4 -1.5,0.3 -0.6,-0.1 -1.1,-0.1 -1.5,-0.3 -0.4,-0.2 -1,-0.5 -1.2,-0.6 -0.1,0 -0.5,-0.1 -0.5,-0.1"
       id="path46"
       inkscape:connector-curvature="0"
       style="clip-rule:evenodd;fill:#ffffff;fill-rule:evenodd" /><path
       d="m 90.6,28.6 2,-0.9 c 0.7,-0.3 3.2,-1.5 4,-1.8 0.8,-0.4 2.1,-1 2.3,-1.1 0.3,-0.1 0.6,-0.3 0.9,-0.3 0.3,0 1.1,0.1 1.5,0.2 0.4,0.1 1,0.2 1.1,0.4 0.1,0.3 0.2,0.8 0.1,0.9 -0.1,0.2 -0.2,0.7 -0.2,0.9 0,0.2 0.1,0.7 0.1,0.7 l -0.6,0.3 c -0.3,0.2 -0.7,0.3 -0.7,0.3 0,0 -0.1,-0.3 -0.3,-0.6 -0.3,-0.2 -0.7,-0.3 -1.1,-0.2 -0.2,0.1 -1.8,0.9 -2.3,1.3 -0.6,0.3 -2,1.2 -2.2,1.4 -0.2,0.1 -0.4,0.5 -1.1,0.4 -0.7,-0.1 -1,-0.2 -1.4,-0.3 -0.3,-0.2 -1.1,-0.7 -1.2,-0.8 -0.2,-0.1 -0.9,-0.3 -0.9,-0.5 0,-0.3 0,-0.3 0,-0.3"
       id="path48"
       inkscape:connector-curvature="0"
       style="clip-rule:evenodd;fill:#ffffff;fill-rule:evenodd" /><path
       d="m 94.2,33.4 c 0,0 2,-1.3 2.8,-1.8 0.9,-0.5 2.9,-1.7 3.7,-2.1 0.8,-0.4 1.6,-1 2,-1.1 0.4,-0.1 1.5,0 2,0 0.5,0 0.9,0 0.9,0.3 0,0.3 0,0.5 -0.1,0.7 0,0.2 0,0.9 0,0.9 l -4,3.1 c -0.6,0.5 -2.2,1.9 -2.3,1.9 -0.1,0 -0.6,-0.4 -1.2,-0.6 -0.6,-0.2 -1,-0.3 -1.2,-0.3 -0.3,0 -0.6,-0.2 -1,-0.4 -0.4,-0.2 -0.5,-0.3 -0.8,-0.3 -0.3,0 -0.9,0.2 -0.9,0.2 z"
       id="path50"
       inkscape:connector-curvature="0"
       style="clip-rule:evenodd;fill:#ffffff;fill-rule:evenodd" /><path
       d="m 99.1,36.9 c 0,0 1,-0.9 1.7,-1.5 0.7,-0.6 2.8,-2.3 3.4,-2.8 0.6,-0.5 2,-1.5 2.2,-1.7 0.2,-0.2 0.4,-0.2 0.7,-0.2 0.3,0 0.9,-0.2 1.2,-0.2 0.3,0 0.8,0 0.8,0.3 0,0.4 0.2,1.1 0.2,1.4 0,0.3 0,0.6 0.1,0.8 0.1,0.2 0.2,0.3 0.2,0.3 0,0 -0.2,0.3 -0.6,0.7 -0.4,0.4 -1.6,1.5 -2.1,2 -0.5,0.5 -1.6,1.5 -2,2 -0.4,0.4 -1,1 -1,1 0,0 -0.2,-0.6 -0.5,-0.9 -0.3,-0.3 -1.2,-0.5 -1.7,-0.5 -0.5,0 -1.2,-0.5 -1.4,-0.6 -0.2,-0.1 -0.6,0.1 -0.6,0.1 0,0 -0.5,0 -0.6,-0.2"
       id="path52"
       inkscape:connector-curvature="0"
       style="clip-rule:evenodd;fill:#ffffff;fill-rule:evenodd" /><path
       d="m 104.1,39.8 2.7,-2.7 c 0.5,-0.5 2.3,-2.2 2.7,-2.6 0.4,-0.4 0.8,-0.8 1.2,-1 0.5,-0.2 1,-0.5 1.3,-0.4 0.3,0.1 0.4,0.4 0.6,0.8 0.1,0.4 0.5,0.9 1.1,1.1 0.6,0.2 1,0.3 1.3,0.3 0.3,0 0.5,0 0.5,0 0,0 -0.6,0.7 -1,1 -0.3,0.3 -1.4,1.3 -2,1.9 -0.6,0.6 -2.1,2.1 -2.6,2.5 -0.4,0.4 -1.1,0.9 -1.1,0.9 0,0 0,-0.4 -0.3,-0.7 -0.4,-0.4 -1,-0.3 -1.5,-0.3 -0.5,0 -0.8,-0.1 -1.1,-0.4 -0.3,-0.3 -0.5,-0.5 -0.7,-0.5 -0.2,0 -0.5,0.2 -0.6,0.2 -0.1,-0.1 -0.5,-0.1 -0.5,-0.1"
       id="path54"
       inkscape:connector-curvature="0"
       style="clip-rule:evenodd;fill:#ffffff;fill-rule:evenodd" /><path
       d="m 109.5,42.3 c 0,0 1.5,-1.4 2.2,-2.1 0.7,-0.7 2.2,-2.1 2.8,-2.7 0.6,-0.6 1.8,-1.7 1.8,-1.7 0,0 0.2,0.3 0.8,0.4 0.5,0 1,0.1 1.4,0.2 0.4,0 1.1,0 1.3,-0.2 0.2,-0.2 0.5,-0.3 0.5,-0.3 0,0 -0.3,0.5 -0.7,1 -0.4,0.5 -1.5,2.1 -2.1,3 -0.6,0.9 -2,3 -2.3,3.4 -0.2,0.4 -0.8,1.2 -0.9,1.5 -0.2,0.2 -0.4,0.5 -0.4,0.5 0,0 0,-0.4 -0.3,-1.1 -0.4,-0.6 -0.6,-0.7 -0.9,-0.8 -0.3,-0.1 -0.4,0 -0.9,-0.2 -0.5,-0.3 -0.7,-0.7 -1,-0.8 -0.3,-0.1 -0.3,-0.1 -0.5,0 -0.5,0 -0.8,-0.1 -0.8,-0.1"
       id="path56"
       inkscape:connector-curvature="0"
       style="clip-rule:evenodd;fill:#ffffff;fill-rule:evenodd" /><path
       d="m 120.7,36.9 c 0,0 0.2,0.3 0.4,0.5 0.2,0.2 0.4,0.5 0.4,0.7 0,0.2 -0.9,1.8 -1.1,2.3 -0.2,0.4 -0.8,2.4 -0.9,3 -0.1,0.6 -0.3,1.4 -0.5,1.9 -0.2,0.4 -0.4,0.7 -0.4,0.9 l -0.1,0.6 c 0,0 -0.3,0.2 -0.5,0.3 l -0.5,0.1 v -0.4 c 0,-0.2 -0.3,-0.5 -0.5,-0.9 -0.2,-0.3 -0.3,-0.7 -0.1,-1.3 0.2,-0.6 0.5,-1.4 0.7,-1.9 0.2,-0.5 0.4,-1.1 0.8,-1.9 0.4,-0.9 0.7,-1.5 1.1,-2.2 0.4,-0.6 0.6,-1 0.8,-1.2 0.1,-0.4 0.4,-0.5 0.4,-0.5"
       id="path58"
       inkscape:connector-curvature="0"
       style="clip-rule:evenodd;fill:#ffffff;fill-rule:evenodd" /><path
       d="m 97.3,13.9 c 0,0 1.8,-0.1 3.1,-0.1 1.3,0 3,0 3.9,0.1 0.9,0.1 2.3,0.2 2.9,0.2 0.6,0 1.4,-0.1 2.7,0 1.3,0 3.7,0.1 5.3,0.3 1.6,0.2 3,0.6 4.3,1 1.3,0.4 3.7,1.5 4.4,2.4 0.8,0.9 1.3,1.6 1.2,2.8 -0.1,1.2 -0.6,2.4 -0.9,3.1 -0.4,0.7 -1.3,2.3 -1.4,2.5 -0.2,0.3 -1.5,1.6 -2.1,2.2 -0.6,0.6 -2.4,2.6 -3.1,3.4 -0.7,0.9 -1.3,1.5 -1.5,1.8 -0.3,0.3 -0.6,0.7 -0.6,0.7 h -0.2 c 0,0 0.3,-0.4 0.2,-0.8 -0.1,-0.4 -0.4,-1 -0.7,-1.2 -0.3,-0.2 -0.4,-0.2 -0.6,-0.2 -0.2,0.1 -0.4,0.2 -0.6,0.2 -0.2,0 -0.3,0.1 -0.3,0.1 0,0 0.8,-0.9 1.2,-1.3 0.4,-0.4 1.4,-1.3 1.7,-1.7 0.3,-0.3 0.7,-0.6 0.8,-0.6 0.1,0 0.7,0.2 1.1,0 0.4,-0.2 1.1,-0.9 1.2,-1.4 0,-0.5 -0.2,-1 -0.6,-1.3 -0.3,-0.3 -0.9,-0.5 -1.2,-0.4 -0.3,0 -0.8,0.1 -1.1,0.3 -0.2,0.1 -0.5,0.2 -0.5,0.2 0,0 0,-0.3 0.1,-0.6 0,-0.4 -0.2,-0.8 -0.4,-1.1 -0.2,-0.3 -0.6,-0.6 -1.1,-0.6 -0.5,-0.1 -0.7,0.1 -0.9,-0.1 -0.2,-0.1 0,-0.4 -0.2,-0.8 -0.2,-0.4 -0.4,-0.9 -0.9,-1.1 -0.5,-0.2 -0.9,-0.3 -1.1,-0.3 -0.2,0 -0.2,-0.1 -0.2,-0.4 0,-0.4 -0.1,-1.2 -0.3,-1.4 -0.2,-0.2 -0.8,-0.6 -1.1,-0.7 -0.3,-0.1 -0.6,-0.1 -0.6,-0.3 0,-0.2 0.2,-0.6 0.2,-0.9 0,-0.4 -0.1,-0.9 -0.5,-1.2 -0.4,-0.3 -0.9,-0.5 -1.1,-0.8 -0.2,-0.3 -0.5,-0.6 -0.6,-0.6 -0.1,0 -0.5,0 -0.8,0 -0.3,0 -0.9,0.2 -1.4,0.2 -0.5,0.1 -0.7,0.2 -1,0.1 -0.2,-0.1 -0.8,-0.3 -1.2,-0.3 -0.4,0 -1.3,0 -1.9,0.1 -0.6,0.1 -1.2,0.1 -1.7,0.1 -0.5,0 -0.8,-0.2 -1.2,-0.3 C 97.6,15 97.5,15 97.3,14.8 97.1,14.7 97,14.5 97,14.5 c 0,0 0,-0.2 0.1,-0.3 0.1,-0.1 0.2,-0.3 0.2,-0.3"
       id="path60"
       inkscape:connector-curvature="0"
       style="clip-rule:evenodd;fill:#ffffff;fill-rule:evenodd" /><path
       d="m 98.5,18.1 c 0,0 1.3,-0.5 2.2,-0.8 0.9,-0.3 2.6,-0.7 3.4,-0.9 0.8,-0.2 1.3,-0.4 1.6,-0.3 0.3,0.1 0.7,0.1 0.9,0.1 h 0.4 c 0,0 0.2,0.2 0.1,0.3 -0.1,0.1 -0.1,0.2 -0.4,0.4 -0.3,0.3 -0.5,0.6 -0.8,0.7 -0.3,0.1 -1,0.3 -1.8,0.5 -0.8,0.2 -2,0.6 -2.5,0.7 -0.4,0.1 -0.6,0.2 -1.2,0.1 -0.7,-0.1 -0.9,-0.2 -1.2,-0.3 -0.3,-0.1 -0.3,0 -0.5,0.1 -0.2,0.1 -0.3,0 -0.3,0 v -0.3 c 0,-0.1 0.1,-0.3 0.1,-0.3"
       id="path62"
       inkscape:connector-curvature="0"
       style="clip-rule:evenodd;fill:#ffffff;fill-rule:evenodd" /><path
       d="m 100.7,21.4 c 0,0 1.2,-0.7 2.3,-1.1 1,-0.4 3.1,-1.2 3.6,-1.3 0.4,-0.1 0.9,-0.3 1.2,-0.1 0.2,0.1 0.5,0.3 0.4,0.5 -0.1,0.2 -0.4,0.7 -0.7,0.9 -0.3,0.1 -1.7,0.9 -2.3,1.2 -0.6,0.2 -1.8,0.9 -2.1,0.9 -0.4,0 -0.8,-0.1 -1.1,-0.2 -0.4,-0.1 -0.5,-0.2 -0.7,-0.2 -0.2,0 -0.6,0 -0.6,0 0,0 0,-0.1 0,-0.2 0,-0.2 0,-0.4 0,-0.4"
       id="path64"
       inkscape:connector-curvature="0"
       style="clip-rule:evenodd;fill:#ffffff;fill-rule:evenodd" /><path
       d="m 103.1,24.9 c 0,0 1.4,-0.8 1.8,-1.1 0.5,-0.3 2,-1 2.6,-1.3 0.6,-0.3 1.3,-0.6 1.7,-0.6 0.4,0 0.7,0.2 0.7,0.4 0,0.2 0,0.6 -0.2,0.9 -0.2,0.3 -0.3,0.5 -0.8,1 -0.6,0.5 -1,0.8 -1.3,1.1 -0.3,0.3 -0.9,0.7 -1.2,0.8 -0.3,0 -0.7,-0.2 -0.9,-0.3 -0.2,0 -0.9,-0.3 -1.1,-0.4 -0.2,-0.1 -0.4,-0.2 -0.6,-0.2 -0.2,0 -0.8,0.2 -0.8,0.2 z"
       id="path66"
       inkscape:connector-curvature="0"
       style="clip-rule:evenodd;fill:#ffffff;fill-rule:evenodd" /><path
       d="m 106.7,27.9 c 0,0 0.8,-0.8 1.4,-1.2 0.6,-0.5 1.6,-1.2 2.1,-1.5 0.5,-0.4 0.9,-0.6 1.1,-0.7 0.2,0 0.3,0 0.4,0.2 0.1,0.1 0.4,0.1 0.5,0.4 0.1,0.3 0,0.5 0.1,0.7 0.1,0.2 0.3,0.1 0.4,0.3 0,0.1 0,0.4 0,0.4 0,0 -1.2,0.9 -1.6,1.3 -0.4,0.4 -1.1,1 -1.2,1.1 -0.2,0.1 -0.8,-0.2 -1.1,-0.4 -0.4,-0.2 -1.2,-0.4 -1.5,-0.4 -0.3,-0.2 -0.6,-0.2 -0.6,-0.2"
       id="path68"
       inkscape:connector-curvature="0"
       style="clip-rule:evenodd;fill:#ffffff;fill-rule:evenodd" /><path
       d="m 110,30.1 c 0,0 1,-0.9 1.5,-1.4 0.5,-0.4 1,-0.9 1.4,-1.2 0.4,-0.3 1.2,-0.9 1.2,-0.9 0,0 0.3,0 0.3,0.2 0,0.2 0.2,0.3 0.4,0.3 0.2,0 0.6,-0.1 0.7,0 0.1,0 0.3,0.1 0.3,0.4 0,0.3 0,0.5 0.1,0.5 0.1,0 0.3,0 0.3,0.1 0,0.1 0,0.2 0,0.2 0,0 -1.3,1.3 -1.8,1.8 -0.6,0.5 -1.4,1.4 -1.5,1.5 -0.1,0.1 -0.2,0.2 -0.2,0.2 0,0 -0.2,-0.5 -0.6,-0.9 -0.5,-0.4 -0.6,-0.6 -1.1,-0.7 -0.6,-0.1 -1,-0.1 -1,-0.1"
       id="path70"
       inkscape:connector-curvature="0"
       style="clip-rule:evenodd;fill:#ffffff;fill-rule:evenodd" /><path
       d="m 117.6,33.3 c 0,0 0.8,-0.9 1.4,-1.7 l 1.6,-1.7 c 0.3,-0.3 0.5,-0.6 0.5,-0.6 0,0 -0.4,1 -0.5,1.5 -0.1,0.5 -0.2,1.3 -0.2,1.7 0,0.4 -0.2,0.8 -0.3,1.3 -0.1,0.5 -0.1,0.9 -0.1,0.9 0,0 -0.3,0.2 -0.6,0.3 -0.2,0.1 -0.5,0.3 -0.5,0.3 0,0 0,-0.7 -0.3,-1.1 -0.3,-0.4 -0.4,-0.5 -0.6,-0.6 -0.2,-0.1 -0.6,-0.2 -0.6,-0.2 z"
       id="path72"
       inkscape:connector-curvature="0"
       style="clip-rule:evenodd;fill:#ffffff;fill-rule:evenodd" /><path
       d="m 134.4,6.3 c 0,0 1.3,-0.5 2.1,-0.8 0.8,-0.3 5.1,-1.8 6.4,-2.1 1.6,-0.4 5.3,-1.3 7.5,-1.7 2.2,-0.3 6.7,-0.8 11.1,-0.8 3.7,0 7.1,0.3 8.9,0.5 1.8,0.2 5.4,0.9 6.9,1.2 1.5,0.4 3.9,1 5.3,1.5 1.4,0.5 3.6,1.2 4.4,1.6 0.8,0.4 1.4,0.5 1.5,0.6 0.1,0.1 0.2,0.3 0.6,0.6 0.4,0.2 1.1,0.4 1.1,0.4 0,0 -0.2,0.2 -0.6,0.3 -0.3,0.1 -0.8,0.4 -1.1,0.5 -0.3,0.1 -0.7,0.3 -0.7,0.3 0,0 0,-0.5 -0.2,-0.6 -0.2,-0.2 -1.2,-0.7 -2.4,-1.1 -1,-0.4 -2.6,-0.9 -4.1,-1.4 -1.5,-0.4 -4.2,-1.2 -6.1,-1.5 -1.8,-0.3 -3.8,-0.7 -5.6,-0.9 -1.8,-0.2 -5.9,-0.5 -8,-0.5 -2.1,0 -6.2,0.3 -8.2,0.5 -2,0.3 -5.3,0.8 -7.3,1.2 -1.9,0.5 -4.5,1.1 -5.5,1.5 -1,0.3 -2.2,0.9 -2.6,0.9 -0.4,0 -1.2,-0.1 -1.5,-0.1 -0.3,0 -0.6,0 -0.7,0 -0.2,0 -0.6,0.3 -0.8,0.2 0,-0.1 -0.4,-0.3 -0.4,-0.3"
       id="path74"
       inkscape:connector-curvature="0"
       style="clip-rule:evenodd;fill:#ffffff;fill-rule:evenodd" /><path
       d="m 197.8,32.8 c 0,0 -0.5,-0.5 -0.7,-0.8 -0.2,-0.3 -0.4,-1.5 -0.7,-2.2 -0.3,-0.7 -1.4,-2.1 -2,-2.8 -0.6,-0.7 -1.8,-1.9 -4.3,-3.5 -2.3,-1.5 -4.6,-2.7 -7.1,-3.7 -2.5,-1 -4.3,-1.7 -7.3,-2.3 -3,-0.7 -6.9,-1.4 -11.2,-1.5 -4.3,-0.1 -8,0.2 -10.5,0.5 -2.5,0.3 -6,1 -9.2,2.1 -3.2,1.1 -4,1.5 -5.1,2 -1,0.5 -3.5,1.7 -4.4,2.3 -0.9,0.6 -2.3,1.6 -3.2,2.1 -0.9,0.6 -1,1 -1.6,0.9 -0.8,-0.2 -1,-0.9 -1,-0.9 0,0 0.6,-0.8 1.3,-1.4 0.6,-0.6 2.1,-1.9 3,-2.6 0.9,-0.8 2.7,-2.3 3,-2.6 0.3,-0.3 1.1,-1.2 1.1,-1.2 0,0 0.3,0.6 0.7,0.4 0.5,-0.1 1.2,-0.7 1.6,-1.4 0.4,-0.7 1.2,-2.3 1,-3.6 -0.2,-1.3 -0.4,-2.3 -0.7,-2.6 -0.4,-0.3 -1,-0.7 -1.5,-0.7 -0.5,0 -0.6,0 -0.9,-0.1 -0.2,-0.1 -0.6,-0.4 -0.6,-0.4 0,0 1.1,-0.4 1.6,-0.6 0.5,-0.2 2.7,-1 4.1,-1.4 1.5,-0.4 3,-0.8 4.8,-1.2 1.8,-0.4 4.6,-0.8 6.7,-1 2.2,-0.2 5,-0.4 6.6,-0.4 1.7,0 5.5,0.2 7.1,0.4 1.6,0.2 4.6,0.6 6.4,1 1.8,0.4 5.2,1.2 6.7,1.8 1.5,0.5 3.3,1.1 3.5,1.3 0.2,0.2 0.4,0.4 0.7,0.5 0.3,0.1 0.6,0.3 0.6,0.3 0,0 -0.7,0.8 -1.2,1.7 -1.5,2.5 0.3,5.7 2.6,7.5 3,2.3 8.6,5.7 9.6,10.9 0.5,1 0.5,3.2 0.5,3.2"
       id="path76"
       inkscape:connector-curvature="0"
       style="clip-rule:evenodd;fill:#ffffff;fill-rule:evenodd" /><path
       d="m 199.8,30 c -0.2,-1.8 -1.3,-3.6 -2.1,-4.8 -0.8,-1.2 -1.3,-2.4 -2.3,-4 -0.9,-1.6 -3.5,-3.1 -5.2,-4.3 -1.3,-0.9 -2.9,-2.9 -2.9,-4.4 0,-0.7 -0.4,-1.9 -1.3,-1.4 0.2,-0.4 0.5,-0.8 1,-1.1 0.9,-0.7 2.4,-1.7 3.8,-2.2 1.5,-0.5 4.9,-1.5 6.4,-1.8 1.4,-0.3 5.5,-1 7.1,-1.1 1.7,-0.1 4.6,-0.3 6,-0.3 1.5,0 4.4,0.1 6.5,0.4 2.3,0.2 5.4,0.7 7.4,0.8 2,0.1 5.5,0.2 7,0.2 1.5,0 4.3,-0.2 5.8,-0.2 1.5,0 7.1,-0.2 8.9,-0.3 1.8,-0.1 6.9,-0.4 8.7,-0.5 1.9,-0.1 7.6,-0.2 9.2,-0.2 1.6,0 8.7,0.3 10.5,0.4 1.8,0.1 6.2,0.3 7.9,0.4 1.6,0.1 4,0.2 5.4,0.3 1.4,0.1 5.4,0 6.3,0 0.9,0 3.9,0 5.6,-0.1 1.7,-0.1 6.2,-0.4 7.8,-0.6 1.6,-0.1 5.8,-0.6 7.2,-0.7 1.3,-0.1 2.7,-0.3 3.3,-0.2 0.6,0.1 1.2,0.5 1.4,0.7 0.2,0.2 1,1.1 1.5,1.7 0.6,0.6 1.2,1.3 1.2,1.5 0.1,0.2 0.5,0.7 0.4,0.9 -0.1,0.2 -0.1,0.5 -0.3,0.6 -0.2,0.1 -1.1,0.5 -1.1,0.5 0,0 0,-0.4 -0.4,-0.6 -0.3,-0.1 -0.9,-0.3 -1.3,-0.2 -0.4,0.1 -1.8,0.7 -2.5,1.1 -0.8,0.3 -2.1,0.9 -2.7,1 -0.6,0.1 -3,0.2 -4.5,0.2 -1.6,0 -6.2,0 -8.1,0.1 -2,0.1 -8.7,0.1 -10.1,0.1 -1.4,0 -7.6,0.1 -9.5,0.1 -2,0 -7.5,0.1 -9.2,0.1 -1.8,0 -9.6,0.1 -11.4,0.1 -1.7,0 -6.6,0 -8,0 -1.3,0 -3.1,0.1 -4.8,0.2 -1.7,0.1 -4.1,0.4 -4.8,0.4 -0.7,0 -1.6,-0.1 -1.9,-0.2 -0.3,-0.1 -0.3,-0.2 -0.6,-0.2 -0.2,0 -0.8,-0.1 -0.8,-0.1 L 240.2,12 c 0,0 0.8,-0.1 1.4,-0.3 0.6,-0.1 1.2,-0.4 2.3,-0.6 1.1,-0.2 3.9,-0.8 5.3,-1 1.4,-0.2 7.6,-1.3 9.4,-1.6 1.8,-0.2 6.5,-0.8 8.1,-0.9 1.6,-0.1 6.3,-0.5 7.9,-0.6 1.6,-0.1 5.3,-0.3 6.3,-0.2 0.9,0 4.1,0.1 5.3,0.2 1.2,0.1 1.9,0.1 1.9,0.1 l 0.2,-0.8 c 0,0 -1.3,-0.1 -2.4,-0.1 -1.1,-0.1 -4,-0.1 -4.9,-0.1 -1,0 -4.5,0 -5.8,0.1 -1.3,0.1 -3.2,-0.1 -4.7,-0.2 -1.8,-0.1 -6,0 -7.7,0.1 -1.7,0.1 -6.5,0.6 -8.1,0.8 -1.5,0.2 -6.8,0.9 -9.2,1.4 -2.4,0.4 -6.1,1.2 -7.9,1.5 -1.8,0.3 -4,0.8 -6,1 -2,0.2 -6.1,0.3 -7.5,0.3 -1.5,0 -5.8,-0.1 -8,-0.1 -2.2,0 -5.9,0 -8,0.3 -2.1,0.3 -4,0.7 -5.1,1 -1.1,0.4 -2.2,0.8 -3,1.3 -0.8,0.6 -1.1,1.2 -1.1,1.4 0,0.2 0.1,0.3 0.1,0.3 l 0.6,0.2 c 0,0 -0.6,0.4 -0.9,0.7 -0.3,0.3 -0.7,0.9 -0.8,1.5 -0.1,0.6 -0.3,1.9 -0.3,2.4 0,0.6 -0.1,0.8 0.1,1.2 0.2,0.4 1.1,2 1.4,2.7 0.3,0.7 1.3,2.1 1.5,2.6 0.3,0.4 0.7,1.1 1.1,1.6 0.3,0.5 0.9,1.8 1,2.2 0.1,0.4 0.1,1 0.1,1.6 v 3 c 0,0.5 0,0.9 -0.1,1 -0.1,0.1 -0.4,0.3 -0.4,0.6 0,0.2 -0.2,0.8 -0.2,1.1 -0.1,0.3 -0.3,0.9 -0.3,0.9 0,0 -0.4,-0.7 -0.4,-0.8 0,-0.1 0.2,-0.7 0.1,-1.6 0,-0.6 -1.4,-3.3 -1.7,-6.2"
       id="path78"
       inkscape:connector-curvature="0"
       style="clip-rule:evenodd;fill:#ffffff;fill-rule:evenodd" /><path
       d="m 199,17.7 c 0,0 0.4,-0.6 1.3,-1.2 0.8,-0.6 2.2,-1.2 3,-1.4 0.8,-0.3 3.9,-0.9 5.3,-1.1 1.4,-0.1 5.1,-0.1 6.3,-0.2 1.2,0 3.6,0 4.3,0 0.8,0 1.9,0 2.7,0 0.8,0 2.4,0 2.9,0 0.5,0 1.5,0 1.8,0 0.3,0.1 0.8,0.2 0.9,0.4 0.1,0.2 0.1,0.4 0,0.6 -0.1,0.2 -0.1,0.5 -0.1,0.6 v 0.2 c 0,0 -0.2,0.1 -0.3,0.2 -0.2,0.1 -0.9,0.6 -0.9,0.6 0,0 0,-0.2 -0.1,-0.5 -0.1,-0.3 -0.6,-0.6 -0.9,-0.6 -0.3,-0.1 -1.5,-0.1 -2,-0.2 -0.5,0 -1.7,0 -2.2,-0.1 -0.5,0 -0.7,-0.1 -0.9,-0.1 -0.2,0 -0.4,0 -0.6,0.2 -0.2,0.1 -0.3,0.3 -0.4,0.3 -0.1,0 -0.3,0 -0.4,0 -0.1,0 -0.2,0.1 0,0.4 0.4,0.4 1.1,0.5 1.7,0.6 0.6,0.1 1.4,0.2 2,0.3 0.6,0.1 1.4,0.3 1.9,0.4 0.5,0.1 1,0.1 1.2,0.2 0.2,0 0.5,0.2 0.5,0.3 0,0.2 -0.1,0.3 -0.1,0.5 -0.1,0.2 -0.1,0.5 0,0.6 0,0.1 0,0.3 -0.2,0.4 -0.1,0.1 -0.7,0.3 -0.9,0.4 -0.1,0.1 -0.4,0 -0.4,0 0,0 0.1,-0.4 0,-0.5 -0.1,-0.1 -0.3,-0.3 -0.7,-0.4 -0.4,-0.1 -1.6,-0.4 -2.2,-0.6 -0.6,-0.1 -1.5,-0.4 -2.1,-0.5 -0.6,-0.1 -1,-0.3 -1.2,-0.1 -0.2,0.2 -0.2,0.3 -0.3,0.3 -0.1,0 -0.3,-0.1 -0.4,0 -0.1,0.1 -0.3,0.3 -0.2,0.4 0.1,0.1 0.5,0.4 0.9,0.5 0.4,0.1 1.8,0.5 2.4,0.7 0.6,0.2 1.6,0.6 2.2,0.7 0.6,0.1 1.1,0.3 1.2,0.6 0.1,0.3 0.1,0.6 -0.1,0.8 -0.2,0.2 -0.3,0.4 -0.3,0.6 0,0.1 -0.1,0.4 -0.1,0.4 0,0 -0.5,0.3 -0.6,0.4 l -0.5,0.2 c 0,0 0.2,-0.2 0,-0.6 -0.2,-0.4 -0.6,-0.6 -1.2,-0.9 -0.6,-0.3 -1.8,-0.7 -2.3,-0.9 -0.5,-0.2 -2,-0.8 -2.3,-0.9 -0.3,-0.1 -0.7,-0.2 -1.1,-0.2 -0.3,0.1 -0.5,0.3 -0.4,0.4 0.1,0.2 0.3,0.2 0.3,0.4 0,0.2 0,0.3 -0.1,0.4 -0.1,0 -0.1,0.1 -0.1,0.1 0,0 0.8,0.5 1.3,0.8 0.5,0.3 1.8,1 2.2,1.1 0.3,0.2 1.4,0.7 1.7,0.9 0.3,0.2 0.8,0.5 0.7,0.7 -0.1,0.3 -0.2,0.7 -0.2,0.8 0,0.1 0,0.3 -0.2,0.3 -0.2,0.1 -1.1,0.3 -1.1,0.3 0,0 0,-0.2 -0.1,-0.3 0,-0.1 -0.2,-0.3 -0.7,-0.6 -0.5,-0.3 -2.1,-1.3 -2.5,-1.5 -0.4,-0.2 -1.5,-0.8 -1.7,-1 -0.2,-0.2 -0.8,-0.7 -1,-0.8 -0.2,-0.1 -0.6,-0.3 -0.9,0 -0.2,0.2 -0.3,0.7 -0.2,0.8 0.1,0.2 0.4,0.4 0.4,0.4 0,0 -0.3,0.2 -0.2,0.3 0,0.1 0.8,0.6 1.3,1 0.6,0.4 2,1.4 2.4,1.6 0.4,0.3 1.2,0.7 1.4,1 0.3,0.2 0.3,0.4 0.1,0.6 -0.2,0.2 -0.2,0.4 -0.2,0.4 0,0 0,0.3 0,0.4 0,0.1 0,0.3 0,0.3 0,0 -0.1,0.1 -0.4,0.2 -0.3,0 -0.7,0.1 -0.7,0.1 0,0 -0.1,-0.1 -0.1,-0.3 0,-0.2 -0.2,-0.3 -0.5,-0.6 -0.4,-0.3 -1.5,-1.1 -2.1,-1.5 -0.6,-0.4 -1.6,-1.1 -1.9,-1.4 -0.3,-0.3 -0.7,-0.9 -1,-1.2 -0.3,-0.2 -0.6,-0.4 -0.9,-0.3 -0.3,0.1 -0.6,0.3 -0.7,0.6 0,0.3 -0.1,0.5 0.1,0.6 0.2,0.1 0.4,0.3 0.4,0.4 0,0.1 -0.3,0.2 -0.2,0.3 0.1,0.2 1,0.9 1.5,1.2 0.5,0.3 1.9,1.5 2.3,1.9 0.4,0.3 1.1,1 1.2,1.2 0.1,0.3 0,0.9 -0.1,1 -0.1,0.2 -0.4,0.2 -0.7,0.3 -0.3,0 -0.7,0.1 -0.7,0.1 0,0 0.1,-0.3 0.1,-0.5 -0.1,-0.1 -0.7,-0.6 -1.2,-0.9 -0.5,-0.4 -1.9,-1.6 -2.5,-2.1 -0.6,-0.5 -1.1,-1 -1.3,-1.4 -0.2,-0.4 -0.5,-0.9 -1,-0.9 -0.5,0 -0.9,0.1 -1.2,0.4 -0.3,0.4 -0.3,0.8 -0.1,0.9 0.2,0.2 0.6,0.4 0.5,0.5 l -0.4,0.3 c 0,0 0.4,0.3 1,0.7 0.6,0.6 1.8,1.5 2.2,1.8 0.4,0.4 1.3,1.2 1.4,1.3 0.2,0.1 0.4,0.6 0.4,0.9 0,0.3 -0.1,0.7 -0.2,0.9 -0.1,0.2 0,0.3 -0.2,0.4 -0.2,0.1 -0.7,0.1 -0.8,0.1 -0.2,0 -0.3,0 -0.3,0 0,0 0.4,-0.3 0.4,-0.4 0,-0.1 -0.5,-0.6 -0.8,-0.9 -0.3,-0.3 -1.9,-1.6 -2.5,-2.1 -0.6,-0.5 -1.4,-1.4 -1.6,-1.9 -0.2,-0.5 -0.2,-1.2 -0.5,-1.6 -0.3,-0.4 -1,-0.9 -1.3,-1.4 -0.3,-0.4 -1.3,-2 -1.8,-2.9 -0.5,-0.9 -0.9,-1.7 -1.1,-2.5 -0.1,-0.8 0,-1.3 -0.2,-1.5 -0.1,-0.3 -0.5,-0.6 -0.6,-0.6 -0.1,0.3 -0.6,0.2 -0.6,0.2"
       id="path80"
       inkscape:connector-curvature="0"
       style="clip-rule:evenodd;fill:#ffffff;fill-rule:evenodd" /><path
       d="m 202.7,29.2 c 0,0 1.3,1.5 1.6,1.7 0.3,0.3 1,0.7 1.2,0.8 0.2,0.1 1,0.9 1.2,1.2 0.2,0.3 0.7,0.7 0.7,1 0,0.3 -0.3,1.1 -0.4,1.3 -0.2,0.2 -0.5,0.4 -0.7,0.4 -0.2,0 -0.6,-0.1 -0.6,-0.1 0,0 0.5,-0.1 0.5,-0.3 0,-0.2 -0.1,-0.4 -0.5,-0.8 -0.4,-0.4 -0.5,-0.5 -0.9,-1 -0.4,-0.5 -0.7,-1.1 -0.7,-1.1 l -0.3,0.1 h -0.3 c 0,0 -0.1,-0.9 -0.2,-1.4 -0.1,-0.5 -0.3,-0.9 -0.3,-1.1 -0.2,-0.2 -0.3,-0.7 -0.3,-0.7"
       id="path82"
       inkscape:connector-curvature="0"
       style="clip-rule:evenodd;fill:#ffffff;fill-rule:evenodd" /><path
       d="m 202.6,39.7 c 0,0 0.3,-0.8 0.4,-1.1 0,-0.3 0.2,-0.8 0.2,-1 l 0.1,-0.4 c 0,0 0.6,0.8 0.8,1 0.2,0.2 0.8,0.7 1,1 0.2,0.3 1.3,1.7 1.7,2.3 0.4,0.6 1.7,2.3 1.9,2.6 0.2,0.3 0.9,1.3 0.9,1.6 0,0.3 -0.1,0.6 -0.2,0.9 -0.1,0.3 -0.3,0.6 -0.4,0.6 -0.1,0 -0.8,0 -0.8,0 0,0 0.2,-0.3 0.2,-0.4 0,-0.2 -0.3,-0.6 -0.7,-0.9 -0.4,-0.2 -1.2,-0.7 -1.4,-0.9 -0.2,-0.2 -0.8,-1.7 -1,-2.2 -0.3,-0.6 -0.9,-1.7 -1.2,-2.2 -0.3,-0.5 -0.6,-1 -0.7,-1 -0.1,0 -0.1,0.1 -0.3,0.1 -0.4,0.1 -0.5,0 -0.5,0"
       id="path84"
       inkscape:connector-curvature="0"
       style="clip-rule:evenodd;fill:#ffffff;fill-rule:evenodd" /><path
       d="m 203.6,36.2 c 0,0 0.8,0.3 1.3,0.3 0.5,0 0.9,0 1,0 0.1,0 0.3,-0.4 0.8,-0.5 0.5,-0.1 0.9,0 1.4,0.3 0.5,0.3 2.8,2.7 3.1,3 0.3,0.3 1.8,1.8 2.3,2.2 0.5,0.4 1.2,1.2 1.3,1.5 0.1,0.3 0.2,0.6 0.1,0.7 -0.1,0.2 -0.3,0.3 -0.3,0.5 -0.1,0.2 -0.1,0.7 -0.2,0.8 -0.1,0.1 -0.3,0.3 -0.6,0.3 -0.3,0 -0.6,0 -0.6,0 0,0 0.4,-0.2 0.4,-0.4 0,-0.2 -0.1,-0.5 -0.4,-0.7 -0.3,-0.2 -0.7,-0.4 -1.2,-0.6 -0.5,-0.2 -0.9,-0.6 -1.2,-1 -0.3,-0.4 -1.2,-1.5 -1.5,-1.9 -0.4,-0.4 -1.3,-1.7 -1.8,-2.1 -0.4,-0.4 -0.9,-0.8 -1.4,-0.9 -0.6,-0.1 -0.7,-0.1 -0.8,-0.1 -0.1,0 -0.3,0.4 -0.3,0.5 0,0.1 -0.2,-0.1 -0.5,-0.4 -0.3,-0.6 -0.9,-1.5 -0.9,-1.5"
       id="path86"
       inkscape:connector-curvature="0"
       style="clip-rule:evenodd;fill:#ffffff;fill-rule:evenodd" /><path
       d="m 208,35.1 c 0,0 0.1,-0.2 0.1,-0.4 0,-0.2 0.1,-0.5 0.2,-0.5 0.1,0 0.7,0.3 1.1,0.3 0.4,0 0.4,-0.1 0.4,-0.1 0,0 0.2,-0.3 0.7,-0.4 0.5,-0.1 0.6,-0.1 0.8,-0.1 0.2,0 0.4,0 0.9,0.2 0.5,0.2 1.9,1.4 2.4,1.8 0.5,0.4 2.7,2.1 3.3,2.6 0.6,0.5 1.3,0.9 1.5,1.1 0.2,0.2 0.8,0.8 0.6,1 -0.1,0.2 -0.4,0.6 -0.5,0.8 -0.1,0.3 -0.1,0.7 -0.1,0.8 0,0.2 -0.4,0.2 -0.5,0.2 -0.2,0 -0.6,0 -0.6,0 0,0 0.3,-0.2 0.3,-0.4 0.1,-0.2 -0.1,-0.4 -0.3,-0.6 -0.3,-0.2 -0.7,-0.5 -1.2,-0.7 -0.5,-0.2 -1.2,-0.9 -1.8,-1.3 -0.6,-0.5 -2.2,-1.9 -2.5,-2.3 -0.3,-0.3 -1.4,-1.2 -1.7,-1.4 -0.3,-0.1 -1.1,-0.3 -1.4,-0.3 -0.3,-0.1 -0.7,-0.2 -0.7,-0.2 0,0 -0.2,0.3 -0.3,0.3 -0.2,0 -0.2,0 -0.2,0 0,0 0,0 -0.1,-0.1 -0.2,-0.1 -0.4,-0.3 -0.4,-0.3"
       id="path88"
       inkscape:connector-curvature="0"
       style="clip-rule:evenodd;fill:#ffffff;fill-rule:evenodd" /><path
       d="m 211.9,32.8 v -0.4 c 0,0 0.3,-0.1 0.7,-0.1 0.4,0 0.8,0 1.2,-0.1 0.4,-0.2 0.4,-0.1 0.7,-0.3 0.3,-0.2 0.4,-0.2 0.7,-0.4 0.3,-0.2 0.2,-0.4 0.4,-0.5 0.2,0 0.7,-0.1 0.9,0 0.2,0.1 1.3,1 2,1.5 0.7,0.4 2.8,1.7 3.6,2.2 0.8,0.5 2,1.1 2.4,1.5 0.4,0.3 0.7,0.5 0.6,0.9 0,0.3 -0.3,0.6 -0.4,0.8 -0.1,0.3 -0.1,0.5 -0.2,0.7 -0.1,0.2 -0.2,0.4 -0.2,0.4 l -1,0.2 c 0,0 0.3,-0.2 0.2,-0.5 0,-0.3 -0.2,-0.5 -0.6,-0.7 -0.4,-0.2 -1,-0.3 -1.4,-0.4 -0.5,-0.2 -1.3,-0.7 -1.8,-1.1 -0.5,-0.4 -1.7,-1.3 -2.3,-1.7 -0.6,-0.4 -1.4,-1.1 -1.8,-1.3 -0.4,-0.2 -1.2,-0.3 -1.6,-0.4 -0.4,0 -1,0 -1.1,0 -0.1,0 -0.2,0.5 -0.4,0.3 -0.2,-0.2 -0.3,-0.2 -0.5,-0.3 -0.1,-0.2 -0.1,-0.3 -0.1,-0.3"
       id="path90"
       inkscape:connector-curvature="0"
       style="clip-rule:evenodd;fill:#ffffff;fill-rule:evenodd" /><path
       d="m 217.7,29.6 c 0,0 0.6,0 0.8,-0.3 0.1,-0.3 0.1,-0.9 0.1,-1.2 0,-0.3 0,-0.4 0.1,-0.5 0.1,0 0.4,0.2 0.7,0.2 0.3,0 0.7,0 1.2,0.2 0.5,0.3 2.6,1.3 3.6,1.8 1.1,0.5 3.3,1.6 3.9,1.8 0.7,0.3 1.8,0.7 1.9,1 0.2,0.3 0.2,0.6 0.1,0.9 -0.2,0.3 -0.3,0.5 -0.3,0.7 0.1,0.2 0.3,0.5 0.1,0.6 -0.2,0.1 -0.6,0.1 -0.8,0.2 -0.3,0.1 -0.5,0.1 -0.5,0.1 0,0 0.2,-0.2 0.2,-0.4 0,-0.2 -0.3,-0.6 -0.8,-0.7 -0.5,-0.1 -1,-0.1 -1.5,-0.3 -0.4,-0.1 -0.8,-0.3 -1.5,-0.7 -0.7,-0.4 -2,-1.2 -2.7,-1.6 -0.7,-0.4 -2,-1.1 -2.5,-1.4 -0.5,-0.3 -0.6,-0.4 -0.9,-0.5 -0.2,-0.1 -0.5,-0.1 -0.7,0 -0.1,0.2 -0.5,0.1 -0.5,0.1"
       id="path92"
       inkscape:connector-curvature="0"
       style="clip-rule:evenodd;fill:#ffffff;fill-rule:evenodd" /><path
       d="m 221.5,25.9 c 0,0 0.1,-0.4 0.2,-0.8 0.1,-0.4 0,-0.6 0.1,-0.7 0.1,0 0.4,0.1 0.7,0 0.3,0 0.6,0 0.8,0.1 0.2,0.1 1.2,0.5 1.7,0.7 0.5,0.2 3.1,1.1 4,1.5 0.9,0.3 2.5,0.9 3.2,1.2 0.7,0.3 1.2,0.3 1.4,0.6 0.3,0.2 0.5,0.6 0.5,1 0,0.5 0.1,0.6 -0.1,0.8 -0.2,0.2 -0.2,0.3 -0.3,0.4 0,0.1 0.2,0.4 0,0.5 -0.1,0.1 -0.3,0.2 -0.7,0.2 -0.4,0.1 -0.6,0.1 -0.6,0.1 0,0 0.3,-0.4 0,-0.7 -0.3,-0.3 -0.4,-0.5 -1.2,-0.8 -0.7,-0.3 -1.9,-0.8 -2.4,-1 -0.5,-0.2 -2.8,-1.2 -3.5,-1.5 -0.6,-0.2 -2,-0.7 -2.4,-1 -0.5,-0.3 -0.6,-0.3 -0.8,-0.5 -0.1,-0.1 -0.6,-0.1 -0.6,-0.1"
       id="path94"
       inkscape:connector-curvature="0"
       style="clip-rule:evenodd;fill:#ffffff;fill-rule:evenodd" /><path
       d="m 224.4,22 c 0,0 0,-1.1 0.1,-1.2 0.2,0 0.6,0.1 0.8,0.1 0.2,0 0.8,0 1.3,0.1 0.5,0.1 3.5,0.9 4.6,1.1 1.2,0.3 2.7,0.6 3.7,0.8 1,0.2 1.6,0.2 1.8,0.5 0.2,0.3 0.2,1.1 0.2,1.5 0,0.4 0.1,1.2 0,1.3 -0.1,0.1 -0.6,0.3 -0.9,0.5 -0.3,0.1 -0.5,0.2 -0.5,0.2 0,0 0.2,-0.4 -0.1,-0.7 -0.2,-0.3 -1.1,-0.7 -1.7,-0.8 -0.6,-0.2 -2.3,-0.7 -3.3,-1 -0.9,-0.3 -2.5,-0.8 -3,-0.9 -0.5,-0.1 -1.2,-0.3 -1.5,-0.5 -0.4,-0.2 -0.8,-0.6 -0.9,-0.7 -0.2,-0.2 -0.6,-0.3 -0.6,-0.3"
       id="path96"
       inkscape:connector-curvature="0"
       style="clip-rule:evenodd;fill:#ffffff;fill-rule:evenodd" /><path
       d="m 226.5,17.9 v -0.4 c 0,0 0.5,-0.5 0.7,-0.5 0.1,0 0.5,-0.1 1.1,0 0.6,0 3,0.3 4,0.5 1,0.2 3.6,0.5 4.3,0.6 0.7,0.1 1.9,0 2.2,0.1 0.6,0.2 0.5,0.7 0.6,1.1 0,0.4 0.1,1 0.1,1.2 0,0.2 -0.4,0.5 -0.8,0.8 -0.4,0.3 -0.7,0.5 -0.9,0.6 -0.2,0.1 0.1,-0.5 -0.2,-0.7 -0.1,-0.1 -0.5,-0.3 -1.1,-0.4 -0.6,-0.1 -1.5,-0.3 -2.1,-0.4 -0.6,-0.1 -2.7,-0.5 -3.5,-0.7 -0.8,-0.2 -1.8,-0.3 -2.4,-0.5 -0.6,-0.3 -0.9,-0.7 -1.3,-0.9 -0.3,-0.4 -0.7,-0.4 -0.7,-0.4"
       id="path98"
       inkscape:connector-curvature="0"
       style="clip-rule:evenodd;fill:#ffffff;fill-rule:evenodd" /><path
       d="m 228.2,14.8 c 0,0 -0.2,-0.5 -0.2,-0.6 0,-0.1 0,-0.2 0,-0.2 0,0 0.9,0 1.6,-0.1 0.6,-0.1 2.6,-0.4 3.8,-0.6 1.2,-0.2 3.5,-0.6 4.3,-0.7 0.8,-0.1 1.7,-0.3 2,-0.2 0.3,0.1 0.6,0.5 0.6,0.8 0,0.3 0.3,1 0.4,1.3 0.1,0.3 0.3,0.8 0.3,0.9 0,0.1 -0.4,0.6 -0.7,0.9 -0.3,0.3 -0.9,0.9 -0.9,0.9 0,0 0.1,-0.5 -0.1,-0.9 -0.2,-0.3 -0.6,-0.7 -1.2,-0.9 -0.5,-0.2 -2.7,-0.3 -3.5,-0.3 -0.8,0 -2.6,0 -3.5,0 -0.9,0 -1.7,-0.2 -2.1,-0.3 -0.4,-0.2 -0.3,-0.1 -0.4,-0.2 -0.2,0 -0.4,0.2 -0.4,0.2"
       id="path100"
       inkscape:connector-curvature="0"
       style="clip-rule:evenodd;fill:#ffffff;fill-rule:evenodd" /><path
       d="m 240.7,17.3 c 0,0 0.9,-1 1.1,-1.2 0.2,-0.3 0.5,-0.6 0.6,-0.7 0.2,0 0.8,0 1.1,-0.1 0.5,-0.2 3.6,-0.1 4.4,-0.2 0.8,0 6.6,0 7.8,0 1.3,0 9.4,-0.1 10.7,-0.1 1.3,0 7.2,0 8.7,0 1.5,0 8.8,0 10.5,-0.1 1.7,-0.1 10.8,-0.1 12.3,-0.2 1.5,0 8.5,-0.2 9.7,-0.2 1.3,0 3.8,-0.1 4.6,-0.1 0.8,-0.1 1.5,-0.1 1.8,-0.1 0.3,0 0.3,0.3 0.4,0.5 0.1,0.2 0.5,1.6 0.7,2.2 0.2,0.6 0.4,1.5 0.4,1.8 0,0.4 0.2,0.9 0.1,1 -0.1,0.1 -0.9,0.6 -1.1,0.6 -0.2,0 -0.4,0.1 -0.4,0.1 0,0 0.2,-0.3 0,-0.5 -0.1,-0.2 -0.6,-0.6 -0.9,-0.6 -0.3,-0.1 -0.7,0 -1.3,0.3 -0.6,0.2 -2.4,0.7 -3.4,0.9 -1,0.2 -1.4,0.3 -3.1,0.4 -1.7,0 -5.6,0 -7.2,0 -1.7,-0.1 -6.6,-0.2 -8.9,-0.3 -2.3,-0.1 -8.1,-0.4 -10.1,-0.5 -2,-0.1 -8.2,-0.5 -9.7,-0.6 -1.5,-0.1 -8.7,-0.5 -10.2,-0.6 -1.5,-0.1 -9,-0.6 -10.3,-0.7 -1.2,-0.1 -3.9,-0.3 -4.7,-0.3 -0.8,0 -1.9,-0.1 -2.4,-0.3 -0.4,-0.1 -0.4,-0.3 -0.7,-0.3 -0.1,-0.1 -0.5,-0.1 -0.5,-0.1"
       id="path102"
       inkscape:connector-curvature="0"
       style="clip-rule:evenodd;fill:#ffffff;fill-rule:evenodd" /><path
       d="m 237.6,23.1 c 0,0 1.1,-0.6 1.5,-1 0.5,-0.4 1,-0.7 1.1,-1 0.1,-0.3 0.1,-0.5 0.1,-0.5 0,0 3.3,0.1 4,0.2 0.7,0.1 4.3,0.3 5.3,0.4 0.9,0.1 6.7,0.5 8.5,0.6 1.8,0.1 9.9,0.7 11.5,0.8 1.6,0.1 8.1,0.5 9.6,0.6 1.6,0.1 7.8,0.4 9.8,0.5 2,0.1 9,0.3 10.2,0.3 1.2,0 5.1,0.1 5.8,0 0.7,0 1.5,-0.1 2,-0.1 0.5,0 1,0 1,0.5 0,0.5 -0.1,2.5 -0.3,3.2 -0.2,0.7 -0.7,1.8 -1,2.1 -0.3,0.3 -0.9,0.6 -0.9,0.6 0,0 0.2,-0.4 0.1,-0.7 -0.1,-0.3 -0.6,-0.6 -1,-0.6 -0.3,0 -2.4,0.5 -3.4,0.6 -1,0.1 -2.7,0.3 -4,0.3 -1.3,0 -4.2,-0.1 -5.7,-0.3 -1.5,-0.1 -5.5,-0.4 -7.5,-0.6 -2,-0.2 -7.5,-0.8 -10,-1.1 -2.5,-0.3 -7.7,-0.9 -9.5,-1.2 -1.8,-0.2 -7.7,-1 -9.2,-1.2 -1.6,-0.2 -5.8,-0.8 -6.9,-1 -1.2,-0.2 -4.8,-0.7 -5.8,-0.9 -1,-0.1 -1.7,-0.3 -2.1,-0.3 -0.4,0 -0.8,0 -1.4,0 -0.6,0 -0.5,0 -0.8,0 -0.3,0 -0.3,0 -0.6,0 -0.3,-0.2 -0.4,-0.2 -0.4,-0.2"
       id="path104"
       inkscape:connector-curvature="0"
       style="clip-rule:evenodd;fill:#ffffff;fill-rule:evenodd" /><path
       d="m 234.8,28.3 c 0,0 0.9,-0.3 1.4,-0.5 0.5,-0.2 1.3,-0.4 1.5,-0.8 0.2,-0.4 0.3,-0.5 0.3,-0.7 0,-0.3 -0.1,-0.5 -0.1,-0.5 0,0 1.5,0.1 2.1,0.1 0.6,0 3.5,0.5 4.4,0.6 0.9,0.1 5.3,0.8 6.5,1 1.2,0.2 9.4,1.3 10.9,1.5 1.6,0.2 8.6,1.1 9.9,1.2 1.3,0.1 9.1,1 10.4,1.1 1.2,0.1 5.6,0.5 7.2,0.6 1.5,0.1 4.8,0.3 6.2,0.3 1.4,0 2.4,0 2.8,0.1 0.4,0.1 0.7,0.4 0.6,0.6 -0.1,0.3 -0.4,2.5 -0.5,2.9 -0.1,0.4 -0.4,1.3 -0.6,1.6 -0.2,0.3 -0.4,0.6 -0.7,0.8 -0.3,0.2 -0.5,0.2 -0.5,0.2 0,0 0.3,-0.5 0.1,-0.8 -0.1,-0.3 -0.6,-0.8 -0.9,-0.8 -0.3,0 -1.5,0.2 -2.2,0.3 -0.8,0.1 -2.2,0.3 -3.1,0.3 -0.9,0.1 -2.1,0.2 -2.7,0.1 -0.6,0 -1.7,-0.1 -2.7,-0.3 -1,-0.1 -4.6,-0.6 -5.9,-0.9 -1.3,-0.2 -5.5,-0.9 -7.3,-1.3 -1.8,-0.3 -8.1,-1.6 -9.3,-1.9 -1.2,-0.3 -5.9,-1.3 -7.1,-1.6 -1.2,-0.3 -6.3,-1.5 -7.5,-1.8 -1.2,-0.3 -4.5,-1.1 -5.3,-1.3 -0.9,-0.2 -2.7,-0.6 -3.2,-0.7 -0.5,-0.1 -1,-0.2 -1.5,-0.1 -0.4,0.1 -1.3,0.4 -1.5,0.5 -0.3,0.1 -0.3,0.1 -0.7,0.1 -0.7,0.3 -1,0.1 -1,0.1"
       id="path106"
       inkscape:connector-curvature="0"
       style="clip-rule:evenodd;fill:#ffffff;fill-rule:evenodd" /><path
       d="m 230.9,32.7 c 0,0 0.9,0 1.2,-0.1 0.4,-0.1 1.4,-0.3 1.8,-0.4 0.4,-0.1 0.6,-0.2 0.6,-0.4 0,-0.2 0,-0.9 0,-1.1 0.1,-0.3 0.2,-0.6 0.2,-0.6 0,0 0.9,0.2 1.3,0.2 0.4,0 1.7,0.3 2.3,0.4 0.6,0.1 6.9,1.7 7.9,2 1,0.3 8.2,2 9.5,2.3 1.3,0.2 7.1,1.5 8.5,1.8 1.3,0.3 10.1,1.9 11.5,2.1 1.5,0.2 6.4,1 7.6,1.1 1.2,0.1 2.9,0.3 3.2,0.4 0.3,0.1 0.7,0.2 0.6,0.6 -0.1,0.6 -0.6,1.7 -0.9,2.3 -0.3,0.6 -0.7,1.5 -1.2,2.1 -0.5,0.6 -0.8,1 -1.1,1.2 -0.3,0.2 -0.4,0.3 -0.4,0.3 0,0 0.3,-0.4 0.2,-0.7 -0.1,-0.3 -0.5,-0.6 -0.9,-0.7 -0.4,-0.1 -1.3,0 -2.2,0 -0.9,0 -3.5,-0.1 -5.8,-0.5 -2.3,-0.3 -5.8,-0.9 -8.2,-1.5 -2.4,-0.6 -5.8,-1.4 -8.2,-2.1 -2.4,-0.7 -6.4,-1.8 -8.9,-2.7 -2.5,-0.9 -5.7,-1.9 -7.2,-2.4 -1.4,-0.5 -5.5,-2 -6.2,-2.2 -0.6,-0.3 -1.1,-0.3 -1.6,-0.4 -0.5,0 -1.1,0.1 -1.6,0 -0.5,-0.1 -1.1,-0.2 -1.4,-0.3 -0.3,-0.1 -0.5,-0.2 -0.6,-0.4 -0.1,-0.1 0,-0.3 0,-0.3"
       id="path108"
       inkscape:connector-curvature="0"
       style="clip-rule:evenodd;fill:#ffffff;fill-rule:evenodd" /><path
       d="m 226.1,36.8 c 0,0 1.5,-0.4 2.3,-0.7 0.7,-0.2 1.5,-0.6 2.3,-0.6 0.7,0.1 2.3,0.6 3.2,0.9 0.9,0.3 4.1,1.5 5,1.8 0.9,0.3 8.2,2.8 9.4,3.2 1.2,0.4 7.6,2.3 8.9,2.6 1.3,0.4 7.5,1.9 8.9,2.2 1.5,0.3 3.8,0.7 4.6,0.9 0.7,0.1 1.4,0.3 1.5,0.7 0.1,0.3 0,0.9 -0.1,1.2 -0.1,0.3 -0.4,1.2 -0.6,1.7 -0.2,0.6 -0.5,1.3 -0.8,1.6 -0.3,0.3 -1,0.5 -1,0.5 0,0 0.3,-0.2 0.3,-0.6 0,-0.3 -0.2,-0.5 -0.4,-0.7 -0.3,-0.2 -0.4,-0.3 -0.8,-0.4 -0.4,0 -1.4,0.1 -2.2,0.1 -0.8,0 -3.5,0 -4.5,0 -1.1,0 -2.1,0.1 -2.9,0 -0.8,-0.1 -1.8,-0.3 -3,-0.6 -1.2,-0.3 -4.2,-1.5 -5.6,-2 -1.3,-0.5 -5.3,-2.3 -6.4,-2.8 -1.1,-0.5 -5,-2.5 -6.3,-3.1 -1.3,-0.7 -3.2,-1.6 -4.2,-2.1 -1,-0.6 -3.2,-1.8 -3.8,-2 -0.6,-0.2 -1.2,-0.5 -1.7,-0.6 -0.5,-0.1 -1.2,-0.4 -1.4,-0.5 -0.2,-0.1 -0.7,-0.2 -0.7,-0.2 z"
       id="path110"
       inkscape:connector-curvature="0"
       style="clip-rule:evenodd;fill:#ffffff;fill-rule:evenodd" /><path
       d="m 221,40.3 c 0,0 1.6,-0.4 2.1,-0.5 0.4,-0.2 1.3,-0.4 1.7,-0.3 0.3,0.1 1.5,0.6 2.3,1 0.7,0.4 3.9,2.1 4.9,2.6 1,0.5 5.2,2.7 6.1,3.1 0.9,0.5 4,2 5.1,2.5 1.1,0.5 4.9,2.2 6,2.6 1,0.4 2.6,1 3.5,1.3 0.9,0.3 2.1,0.7 2.7,0.8 0.6,0.2 1.5,0.4 1.6,0.7 0.1,0.3 0.1,0.6 -0.1,1 -0.2,0.4 -0.6,1.6 -0.8,2 -0.2,0.4 -0.6,1.2 -0.9,1.4 -0.3,0.3 -0.4,0.4 -0.6,0.5 -0.2,0 -0.2,0 -0.2,0 0,0 0.3,-0.4 0.3,-0.6 0,-0.2 -0.2,-0.7 -0.5,-0.9 -0.3,-0.2 -0.6,-0.4 -0.9,-0.4 -0.3,0 -1.2,0 -2.1,-0.1 -0.9,-0.1 -2.4,-0.3 -3.5,-0.5 -1.1,-0.2 -1.8,-0.3 -2.7,-0.7 -0.9,-0.4 -2.9,-1.4 -3.9,-2 -1,-0.6 -4.3,-2.6 -5.4,-3.3 -1,-0.7 -5.7,-4 -6.4,-4.5 -0.7,-0.5 -2.4,-1.8 -3.1,-2.3 -0.7,-0.5 -1.7,-1.3 -2.1,-1.5 -0.4,-0.2 -1.5,-0.6 -1.9,-0.8 -0.4,-0.2 -0.8,-0.3 -0.9,-0.6 -0.4,-0.1 -0.3,-0.5 -0.3,-0.5"
       id="path112"
       inkscape:connector-curvature="0"
       style="clip-rule:evenodd;fill:#ffffff;fill-rule:evenodd" /><path
       d="m 215.9,43.3 c 0,0 0.9,0 1.3,0 0.4,-0.1 1.2,-0.3 1.5,-0.3 0.3,0 0.7,-0.1 1.2,0.1 0.5,0.2 1.6,0.9 2.2,1.4 0.6,0.5 3.1,2.4 3.9,3 0.8,0.6 4.6,3.3 5.3,3.8 0.8,0.5 4.2,2.8 5.1,3.4 0.9,0.6 2.6,1.6 3.5,2.1 0.8,0.5 1.8,0.9 2,1.2 0.3,0.3 0.6,0.5 0.3,1.1 -0.3,0.6 -1,1.8 -1.2,2 -0.2,0.3 -0.7,0.8 -0.9,1 -0.3,0.2 -0.4,0.2 -0.4,0.2 0,0 0.4,-0.4 0.3,-0.7 -0.1,-0.3 -0.2,-0.7 -0.7,-1 -0.5,-0.3 -1.4,-0.3 -2.1,-0.5 -0.7,-0.2 -3.3,-0.8 -4.2,-1.1 -1,-0.3 -1.8,-0.5 -2.4,-1 -0.6,-0.5 -2.3,-2 -3,-2.7 -0.8,-0.7 -2.5,-2.3 -3.4,-3.1 -0.9,-0.9 -2.9,-2.7 -3.6,-3.3 -0.7,-0.7 -2.6,-2.3 -2.9,-2.7 -0.3,-0.4 -1.1,-1.1 -1.3,-1.3 -0.2,-0.2 -0.4,-0.2 -0.6,-0.4 -0.1,-0.2 -0.1,-0.6 0,-0.7 0,-0.3 0.1,-0.5 0.1,-0.5"
       id="path114"
       inkscape:connector-curvature="0"
       style="clip-rule:evenodd;fill:#ffffff;fill-rule:evenodd" /><path
       d="m 210.1,47.2 0.2,-0.7 c 0.1,-0.2 0.1,-0.4 0.1,-0.4 0,0 0.8,0 1.5,0 0.6,-0.1 1,-0.3 1.5,-0.2 0.6,0 0.8,0.2 1.1,0.7 0.3,0.6 1.1,1.5 1.7,2 0.6,0.6 3.4,3.1 4.2,3.9 0.8,0.8 3.6,3.4 4.5,4.2 0.9,0.9 2.2,2 2.6,2.3 0.3,0.3 1.2,1.1 1.3,1.4 0.2,0.2 0.1,0.7 -0.1,1 -0.2,0.3 -0.6,1.1 -1,1.4 -0.3,0.3 -1,0.8 -1,0.8 0,0 0.3,-0.5 0.2,-0.7 -0.1,-0.2 -0.6,-0.7 -0.9,-0.8 -0.4,-0.1 -2,-0.6 -2.7,-0.8 -0.7,-0.2 -2.2,-0.8 -2.6,-1.1 -0.4,-0.3 -2.2,-2.5 -2.7,-3 -0.4,-0.5 -2,-2.6 -2.6,-3.3 -0.6,-0.7 -1.8,-2.4 -2.5,-3.3 -0.7,-0.9 -1.7,-2.2 -2,-2.5 -0.3,-0.3 -0.3,-0.4 -0.6,-0.6 -0.1,-0.2 -0.2,-0.3 -0.2,-0.3"
       id="path116"
       inkscape:connector-curvature="0"
       style="clip-rule:evenodd;fill:#ffffff;fill-rule:evenodd" /><path
       d="m 204.5,47.9 c 0,0 1,0.1 1.6,0.1 0.6,0 1.1,-0.1 1.4,0 0.2,0 0.6,0 0.8,0.3 0.3,0.3 0.4,0.8 0.5,1.1 0.1,0.3 2,2.9 2.3,3.3 0.3,0.4 1.6,2.2 2.2,2.9 0.6,0.8 2.1,2.8 2.6,3.4 0.5,0.6 1.4,1.5 1.6,1.9 0.2,0.3 0.8,1.2 0.9,1.4 0.1,0.2 -0.1,0.4 -0.3,0.6 -0.1,0.2 -0.4,0.5 -0.7,0.8 -0.3,0.3 -0.7,0.6 -0.8,0.6 -0.1,0 0,-0.3 0.1,-0.5 0,-0.2 -0.1,-0.5 -0.5,-0.7 -0.5,-0.4 -1.2,-0.6 -1.7,-0.9 -0.5,-0.2 -1.6,-0.5 -2.4,-0.9 -0.7,-0.3 -1.1,-0.5 -1.4,-0.8 -0.4,-0.4 -1.1,-1.8 -1.6,-2.6 -0.4,-0.8 -1.7,-3.2 -2.1,-3.9 -0.3,-0.6 -0.5,-1 -0.5,-1.4 0,-0.4 -0.1,-1.8 -0.2,-2.2 -0.1,-0.4 -0.6,-1 -0.8,-1.2 -0.3,-0.2 -0.3,-0.2 -0.5,-0.3 -0.1,-0.1 -0.5,-0.2 -0.5,-0.2 0,0 0,-0.5 0,-0.6 0,0 0,-0.2 0,-0.2"
       id="path118"
       inkscape:connector-curvature="0"
       style="clip-rule:evenodd;fill:#ffffff;fill-rule:evenodd" /><path
       d="m 204.1,55.5 c 0,0 0.6,1.1 0.9,1.5 0.2,0.4 0.8,1.2 1.1,1.8 0.3,0.6 1.2,2.1 1.5,2.6 0.2,0.5 0.6,1 0.5,1.5 0,0.5 -0.5,1.2 -0.6,1.4 -0.1,0.3 -0.2,0.5 -0.5,0.8 -0.3,0.3 -0.8,0.3 -0.8,0.3 0,0 0.3,-0.3 0.3,-0.6 0,-0.3 -0.2,-0.7 -0.4,-0.9 -0.2,-0.2 -0.5,-0.6 -0.9,-0.8 -0.4,-0.2 -1.3,-0.6 -1.3,-0.9 -0.1,-0.3 -0.1,-0.5 0.1,-1 0.3,-0.7 0.2,-1.3 0.1,-1.9 -0.1,-0.5 -0.2,-0.7 -0.3,-0.9 -0.1,-0.2 -0.3,-0.3 -0.3,-0.3 0,0 0.3,-1.2 0.4,-1.5 z"
       id="path120"
       inkscape:connector-curvature="0"
       style="clip-rule:evenodd;fill:#ffffff;fill-rule:evenodd" /><path
       d="m 179.6,80.1 c 0,0 1.5,-0.6 2.3,-0.9 0.7,-0.3 2.1,-0.9 3,-1.3 0.9,-0.4 3.4,-1.8 4.5,-2.5 1.1,-0.7 2.4,-1.6 3.5,-2.5 1.1,-0.9 2.9,-2.6 3.6,-3.3 0.7,-0.7 2.4,-2.7 2.9,-3.4 0.5,-0.7 1.4,-2.1 1.4,-2.1 l 1.9,1 c 0.8,0.4 1.7,0.8 2.3,0.9 0.6,0.1 1,0.2 1.6,0.1 0.6,0 0.8,-0.2 1.2,-0.5 0.3,-0.4 0.7,-1 0.8,-1.4 0.1,-0.3 0.3,-0.8 0.3,-0.8 0,0 0.7,0.3 1.2,0.5 l 2.2,0.8 c 0.6,0.2 1.5,0.4 1.8,0.6 0.3,0.3 0.4,0.4 0.4,0.7 0,0.3 -0.3,0.9 -0.5,1.3 -0.2,0.5 -1.1,2.3 -1.5,2.9 -0.3,0.6 -1.8,2.9 -2.5,3.9 -0.7,1 -3,3.9 -3.9,4.7 -0.9,0.8 -1.9,1.9 -2.5,2.2 -0.6,0.3 -1.6,0.5 -2.3,0.9 l -3.5,2.2 c -0.9,0.6 -2.2,1.4 -3.2,1.8 -0.9,0.5 -3.3,1.7 -4,2 -0.7,0.3 -1.7,0.8 -2.1,1 -0.5,0.2 -0.8,0.4 -1.2,0.4 -0.4,0 -0.6,-0.3 -0.8,-0.6 -0.2,-0.3 -1.3,-2.2 -1.7,-3 -0.4,-0.8 -2,-3.5 -2.3,-3.9 -0.3,-0.5 -0.5,-0.8 -1.2,-1 -0.5,-0.2 -0.6,-0.3 -0.9,-0.3 -0.2,0 -0.4,0 -0.7,-0.1 0,-0.1 -0.1,-0.3 -0.1,-0.3"
       id="path122"
       inkscape:connector-curvature="0"
       style="clip-rule:evenodd;fill:#ffffff;fill-rule:evenodd" /><path
       d="m 174.3,81.6 c 0,0 1.3,-0.3 1.9,-0.5 0.6,-0.2 1.3,-0.5 1.8,-0.6 0.4,-0.1 0.6,-0.1 0.9,0.1 0.2,0.2 0.4,0.7 0.6,1 0.1,0.3 1.4,2.6 1.8,3.3 0.4,0.8 1.7,2.9 2,3.6 0.4,0.7 1.7,2.8 2,3.3 0.3,0.5 0.6,1.1 0.8,1.5 0.2,0.4 0.6,1.2 0.8,1.6 0.2,0.3 0.3,0.6 0.2,0.9 -0.1,0.3 -0.9,1.7 -1,2 -0.2,0.3 -0.9,1.6 -0.9,1.6 0,0 -0.1,-1 -0.3,-1.5 -0.2,-0.5 -0.4,-0.8 -0.8,-1.1 -0.4,-0.3 -1.1,-0.4 -1.4,-0.6 -0.3,-0.2 -0.5,-0.4 -0.9,-1.1 -0.3,-0.7 -1.3,-3.2 -1.6,-4 -0.3,-0.9 -1.5,-3.8 -1.9,-4.8 -0.4,-1 -1,-2.6 -1.3,-3 -0.3,-0.4 -1.1,-1 -1.3,-1 -0.3,0 -0.6,-0.1 -0.7,-0.1 -0.1,0 -0.4,0 -0.4,0 z"
       id="path124"
       inkscape:connector-curvature="0"
       style="clip-rule:evenodd;fill:#ffffff;fill-rule:evenodd" /><path
       d="m 215.6,65.7 c 0,0 0.6,0 0.8,-0.1 0.3,-0.1 1,-0.6 1.4,-1.1 0.4,-0.4 0.9,-1 1.1,-1.2 0.2,-0.3 0.2,-0.3 0.2,-0.3 0,0 0.2,0.1 0.2,0.2 0,0.1 -0.5,1.7 -0.6,2.1 -0.1,0.4 -0.6,1.7 -0.9,2.4 -0.3,0.7 -1.4,2.7 -1.7,3.4 -0.4,0.7 -2.1,3.3 -2.7,4.3 -0.7,0.9 -2.8,3.5 -3.4,4.2 -0.6,0.7 -3.2,3.2 -3.8,3.8 -0.6,0.6 -5.1,3.6 -6,4.1 -0.9,0.5 -3.8,2.2 -4.4,2.6 -0.7,0.4 -2.7,1.3 -3.4,1.7 -0.7,0.3 -2.5,1.2 -2.9,1.3 -0.4,0.1 -0.9,0 -1.3,0 -0.4,-0.1 -0.6,-0.1 -0.7,-0.1 -0.1,0 -0.6,0.1 -0.6,0.1 l -0.2,-0.3 c 0,0 1.7,-0.7 2.5,-1.1 0.9,-0.4 4.5,-2.1 5.6,-2.7 1,-0.6 3.2,-1.8 4.3,-2.6 1.1,-0.7 3.8,-2.7 4.7,-3.5 1,-0.9 3.7,-3.6 4.2,-4.2 0.5,-0.6 2.7,-2.7 3.2,-3.2 0.5,-0.5 1.4,-1.4 2,-2.3 0.7,-1 2.1,-3.4 2.4,-4.1 0.3,-0.7 0.6,-1.3 0.6,-1.5 -0.1,-0.3 -0.1,-0.6 -0.2,-0.6 -0.1,0 -0.6,-0.2 -0.6,-0.2 l 0.2,-0.6 c 0,-0.3 0,-0.5 0,-0.5"
       id="path126"
       inkscape:connector-curvature="0"
       style="clip-rule:evenodd;fill:#ffffff;fill-rule:evenodd" /><path
       d="m 169.3,82.5 c 0,0 0.5,0 1,-0.1 0.5,-0.2 1.6,-0.6 2.1,-0.7 0.5,0 1.2,0 1.3,0.1 0.1,0.2 0.3,0.6 0.5,1.2 0.2,0.6 1.6,4 1.9,5 0.3,0.9 1.8,4.6 2.1,5.4 0.3,0.8 1,2.4 1.1,2.8 0.1,0.3 0.4,1.3 0.3,1.5 -0.1,0.3 -0.6,1.1 -0.9,1.6 -0.3,0.5 -1.5,2 -1.5,2 0,0 -0.1,-0.6 0,-0.8 0.1,-0.2 0.2,-0.6 0.2,-0.8 -0.1,-0.2 -0.3,-0.9 -0.7,-1.1 -0.3,-0.3 -1,-0.5 -1.3,-0.8 -0.3,-0.3 -0.5,-0.4 -0.8,-1.4 -0.3,-1 -0.9,-3.7 -1.1,-4.5 -0.2,-0.8 -1,-4.6 -1.2,-5.4 -0.2,-0.8 -0.4,-1.8 -0.7,-2.2 -0.3,-0.4 -0.9,-0.9 -1.2,-1 -0.3,0 -0.6,0 -0.6,0 -0.1,0 -0.3,0 -0.3,0 z"
       id="path128"
       inkscape:connector-curvature="0"
       style="clip-rule:evenodd;fill:#ffffff;fill-rule:evenodd" /><path
       d="m 164.5,83 c 0,0 0.9,-0.1 1.2,-0.2 0.3,-0.1 1.3,-0.3 1.8,-0.3 0.6,0 1.1,0.1 1.2,0.5 0.1,0.3 0.2,1.3 0.3,1.8 0.1,0.4 1.1,4.7 1.2,5.3 0.1,0.6 1.3,5.2 1.4,5.9 0.1,0.7 0.5,2.3 0.5,2.6 0,0.4 0,0.7 0,0.8 -0.1,0.1 -0.8,1 -1.1,1.4 -0.3,0.3 -1.6,1.9 -1.6,1.9 0,0 -0.1,-0.4 0,-0.7 0.2,-0.2 0.5,-0.5 0.5,-0.9 0,-0.3 -0.4,-1 -0.7,-1.3 -0.3,-0.3 -1,-0.6 -1.3,-0.9 -0.3,-0.3 -0.5,-0.6 -0.5,-1.3 -0.1,-0.8 -0.4,-4.8 -0.5,-6.1 -0.1,-1.3 -0.4,-5 -0.5,-5.5 -0.1,-0.6 -0.2,-1.1 -0.6,-1.5 -0.4,-0.4 -0.7,-0.6 -1,-0.6 -0.2,-0.1 -0.5,-0.1 -0.5,-0.1 z"
       id="path130"
       inkscape:connector-curvature="0"
       style="clip-rule:evenodd;fill:#ffffff;fill-rule:evenodd" /><path
       d="m 159.5,83 c 0,0 0.9,0 1.1,0 0.2,-0.1 1.1,-0.2 1.7,-0.2 0.6,0 1.3,0.2 1.4,0.5 0,0.3 0.1,1.5 0.1,2.2 0,0.7 0.3,4.3 0.3,4.9 0,0.6 0.3,4.6 0.4,5.5 0.1,1 0.2,2.8 0.2,3.2 0,0.4 0,0.8 0,0.8 0,0 -1.1,1.1 -1.4,1.4 -0.3,0.3 -1.6,1.4 -1.6,1.4 0,0 0.2,-0.5 0.4,-0.8 0.2,-0.2 0.3,-0.6 0.2,-0.8 -0.1,-0.2 -1.1,-1.2 -1.4,-1.5 -0.3,-0.2 -0.7,-0.7 -0.7,-1.2 0,-0.5 0.2,-3.7 0.3,-5 0.1,-1.3 0.3,-4.4 0.4,-5.4 0.1,-1 0.2,-2.3 0,-2.7 -0.2,-0.4 -0.5,-1 -0.8,-1.1 -0.3,-0.1 -0.7,-0.2 -0.7,-0.2 z"
       id="path132"
       inkscape:connector-curvature="0"
       style="clip-rule:evenodd;fill:#ffffff;fill-rule:evenodd" /><path
       d="m 154.6,82.7 c 0,0 0.7,0 1,0 0.3,0 0.6,-0.1 1.2,-0.1 0.5,0 0.9,0 1.3,0.1 0.4,0.1 0.7,0.3 0.6,1 0,0.6 -0.2,2.9 -0.3,3.6 -0.1,0.6 -0.5,5.3 -0.5,5.7 0,0.4 -0.1,2.5 -0.2,3.1 0,0.5 -0.2,1.8 -0.3,2.3 0,0.5 -0.3,1.3 -0.3,1.4 0,0.1 -0.1,0.2 -0.1,0.2 0,0 -0.9,0.7 -1.2,0.8 -0.3,0.1 -0.3,-0.2 -0.5,-0.3 -0.2,-0.2 -0.4,-0.2 -0.9,-0.4 -0.4,-0.2 -1.1,-0.9 -1.4,-1.3 -0.3,-0.5 -0.4,-0.9 -0.2,-1.7 0.2,-0.8 0.8,-3.4 1,-4.3 0.2,-0.9 0.8,-3.6 1,-4.5 0.2,-0.9 0.6,-2.4 0.6,-2.9 0,-0.5 -0.2,-1 -0.4,-1.2 -0.3,-0.3 -0.3,-0.3 -0.5,-0.4 -0.2,-0.1 -0.4,-0.1 -0.4,-0.1 z"
       id="path134"
       inkscape:connector-curvature="0"
       style="clip-rule:evenodd;fill:#ffffff;fill-rule:evenodd" /><path
       d="m 149.5,81.9 c 0,0 0.7,0.1 1,0.1 0.3,0 0.9,-0.1 1.5,0.1 0.6,0.1 1.4,0.3 1.5,0.5 0.1,0.3 0.2,0.6 0.1,1.2 -0.2,0.6 -1.2,5.1 -1.4,5.9 -0.2,0.8 -1,4.3 -1.2,4.9 -0.1,0.6 -0.6,2.7 -0.7,3.1 -0.1,0.5 -0.4,1.3 -0.5,1.4 0,0.1 -0.7,0.4 -0.9,0.5 -0.2,0.1 -0.4,0.2 -0.4,0.2 0,0 0.3,-0.4 0.2,-0.6 -0.1,-0.2 -0.3,-0.5 -0.7,-0.5 -0.3,0 -0.7,0.3 -1,0.2 -0.3,-0.1 -0.7,-0.3 -1,-1 -0.3,-0.8 -0.3,-0.9 -0.2,-1.5 0.1,-0.6 1.5,-4 1.8,-4.8 0.3,-0.8 1.6,-4.2 1.9,-5 0.3,-0.8 0.8,-1.9 0.7,-2.2 0,-0.3 -0.3,-0.9 -0.4,-1 -0.2,-0.2 -0.4,-0.3 -0.5,-0.2 -0.1,0 -0.2,-0.1 -0.2,-0.1 z"
       id="path136"
       inkscape:connector-curvature="0"
       style="clip-rule:evenodd;fill:#ffffff;fill-rule:evenodd" /><path
       d="m 144.6,80.5 c 0,0 0.5,0.2 1,0.2 0.5,0 1,0 1.5,0.1 0.6,0.2 1.3,0.6 1.4,0.9 0.1,0.3 -0.2,0.9 -0.5,1.6 -0.3,0.7 -1.8,4.7 -2.2,5.6 -0.3,0.8 -1.9,4.7 -2.1,5.2 -0.2,0.5 -0.9,2.1 -1.1,2.6 -0.2,0.4 -0.4,0.8 -0.4,0.8 l -0.9,0.3 c 0,0 0.2,-0.3 0.1,-0.6 -0.1,-0.2 -0.6,-0.6 -0.8,-0.7 -0.2,0 -0.6,0 -0.9,0.2 -0.4,0.1 -0.8,0.1 -1,-0.2 -0.2,-0.3 -0.6,-1.2 -0.7,-1.4 0,-0.2 -0.2,-0.5 0,-0.9 0.2,-0.4 1.7,-3.2 2.1,-3.7 0.3,-0.5 2.1,-3.5 2.5,-4.2 0.4,-0.7 1.4,-2.4 1.5,-2.7 0.2,-0.4 0.3,-0.7 0.2,-0.9 -0.1,-0.3 -0.1,-0.4 -0.3,-0.5 -0.2,-0.1 -0.4,-0.1 -0.4,-0.1 z"
       id="path138"
       inkscape:connector-curvature="0"
       style="clip-rule:evenodd;fill:#ffffff;fill-rule:evenodd" /><path
       d="M 162.4,70.4 H 162 c -5.1,0 -10.8,-1.4 -10.8,-9.6 0,-8.2 5.6,-9.8 11,-9.8 5.1,0 10.5,1.9 10.5,9.8 0,7.2 -5,9.6 -10.3,9.6"
       id="path140"
       inkscape:connector-curvature="0"
       style="clip-rule:evenodd;fill-rule:evenodd" /><path
       d="m 161.4,82.1 c -24.1,0 -42.3,-14.9 -42.3,-31.7 0,-16.9 18.2,-31.7 42.3,-31.7 24.1,0 42.3,14.9 42.3,31.7 0,16.8 -18.2,31.7 -42.3,31.7"
       id="path142"
       inkscape:connector-curvature="0"
       style="clip-rule:evenodd;fill:#ffffff;fill-rule:evenodd" /><path
       d="m 161.3,30 c 5.8,0 9.8,2.4 9.8,8.9 0,6.7 -4.1,8.9 -9.8,8.9 -5.4,0 -9.8,-2 -9.8,-8.9 0.1,-6.2 4.5,-8.8 9.8,-8.9"
       id="path144"
       inkscape:connector-curvature="0"
       style="clip-rule:evenodd;fill-rule:evenodd" /><path
       d="m 177.8,48.7 c 5.8,-3.3 7,-6.6 6.6,-10.5 -0.8,-7.1 -10.5,-12.1 -23.2,-11.9 -15.4,0.2 -24.7,7.9 -24.7,9.9 0,2 3.1,2.5 3.1,3.6 V 61 c 0,1.3 -2.9,2.8 -2.9,4.2 0,1.5 9.9,8.8 26.3,8.7 14.4,-0.1 22.7,-6.1 22.8,-13.4 0,-3.8 -2.3,-9.1 -8,-11.8 z"
       id="path146"
       inkscape:connector-curvature="0"
       style="clip-rule:evenodd;fill-rule:evenodd" /><path
       d="m 161.4,20.1 c 24.4,0 40.9,15.2 40.9,30.3 0,15.1 -16.6,30.3 -40.9,30.3 -24.4,0 -40.9,-15.2 -40.9,-30.3 0,-15.1 16.6,-30.3 40.9,-30.3"
       id="path148"
       inkscape:connector-curvature="0"
       style="clip-rule:evenodd;fill-rule:evenodd" /><path
       d="m 161.3,30 c 5.8,0 9.8,2.4 9.8,8.9 0,6.7 -4.1,8.9 -9.8,8.9 -5.4,0 -9.8,-2 -9.8,-8.9 0.1,-6.2 4.5,-8.8 9.8,-8.9 m 16.5,18.7 c 5.8,-3.3 7,-6.6 6.6,-10.5 -0.8,-7.1 -10.5,-12.1 -23.2,-11.9 -15.4,0.2 -24.7,7.9 -24.7,9.9 0,2 3.1,2.5 3.1,3.6 V 61 c 0,1.3 -2.9,2.8 -2.9,4.2 0,1.5 9.9,8.8 26.3,8.7 14.4,-0.1 22.7,-6.1 22.8,-13.4 0,-3.8 -2.3,-9.1 -8,-11.8 z M 162.4,70.4 H 162 c -5.1,0 -10.8,-1.4 -10.8,-9.6 0,-8.2 5.6,-9.8 11,-9.8 5.1,0 10.5,1.9 10.5,9.8 0,7.2 -5,9.6 -10.3,9.6"
       id="path150"
       inkscape:connector-curvature="0"
       style="clip-rule:evenodd;fill:#ffffff;fill-rule:evenodd" /></g></svg>