<svg xmlns="http://www.w3.org/2000/svg" width="120" height="60" fill="#2bc2df"><path d="M62.02 16.64a2.83 2.83 0 1 0 2.003.827 2.83 2.83 0 0 0-2.003-.827zm-2.43 7.514h4.827v19.203H59.6zm19.342-.494c-2.414 0-5.2 1.738-6.105 3.918v-3.423h-4.58V43.36h4.83v-8.92c0-3.774 1.45-5.88 4.605-5.94l2.694-4.73a10.33 10.33 0 0 0-1.444-.111zm19.4.013c-2.07 0-3.93.78-5.23 2.192l-.068.072-.066-.072c-1.288-1.413-3.135-2.192-5.208-2.192-4.44 0-7.66 3.237-7.66 7.695v12h4.75V31.265c0-1.872 1.143-3.08 2.9-3.08s2.912 1.2 2.912 3.08V43.36h4.764V31.265c0-1.872 1.143-3.08 2.912-3.08s2.912 1.2 2.912 3.08V43.36H106v-12c-.008-4.458-3.23-7.695-7.676-7.695zm-44.584-1.287c0-.634.085-1.392.628-1.8.594-.462 1.463-.377 2.166-.34l.937-3.496-.5-.026c-2.015-.108-4.135-.258-5.902.9-1.498 1-2.165 2.694-2.165 4.444v2.092h-5.757V22.4c0-.63.084-1.38.615-1.803.594-.472 1.474-.383 2.178-.348l.937-3.496-.5-.026c-2.03-.1-4.172-.258-5.94.943-1.468.995-2.118 2.685-2.118 4.413v2.092H36.15v3.478h2.178V43.36h4.83V27.645h5.74V43.36h4.83V27.645h3.343v-3.5h-3.33v-1.77zM33.698 43.36V26.4a2.79 2.79 0 0 0-2.466-2.736c-.922-.06-1.902.278-2.48 1.027l-14.76 18.67h3.638c1.45 0 2.604-.755 3.478-1.883l8.175-10.338v12.22H33.7z"/></svg>