<?xml version="1.0" encoding="UTF-8" standalone="no"?>
<!-- Generator: Adobe Illustrator 23.0.0, SVG Export Plug-In . SVG Version: 6.00 Build 0)  -->

<svg
   xmlns:dc="http://purl.org/dc/elements/1.1/"
   xmlns:cc="http://creativecommons.org/ns#"
   xmlns:rdf="http://www.w3.org/1999/02/22-rdf-syntax-ns#"
   xmlns:svg="http://www.w3.org/2000/svg"
   xmlns="http://www.w3.org/2000/svg"
   xmlns:sodipodi="http://sodipodi.sourceforge.net/DTD/sodipodi-0.dtd"
   xmlns:inkscape="http://www.inkscape.org/namespaces/inkscape"
   version="1.1"
   id="Layer_1"
   x="0px"
   y="0px"
   viewBox="0 0 120 60"
   xml:space="preserve"
   sodipodi:docname="symantec-ar21.svg"
   width="120"
   height="60"
   inkscape:version="0.92.3 (2405546, 2018-03-11)"><metadata
   id="metadata79"><rdf:RDF><cc:Work
       rdf:about=""><dc:format>image/svg+xml</dc:format><dc:type
         rdf:resource="http://purl.org/dc/dcmitype/StillImage" /><dc:title></dc:title></cc:Work></rdf:RDF></metadata><defs
   id="defs77">
	
	
	
	

		
		
		
		
		
		
		
		
		
		
		
	
		
	
		
	
		
		
		
		
		
		
		
		
	
			
		
			
		
			
		
			
		
			
		
			
		
			
		
			
		
			
		</defs><sodipodi:namedview
   pagecolor="#ffffff"
   bordercolor="#666666"
   borderopacity="1"
   objecttolerance="10"
   gridtolerance="10"
   guidetolerance="10"
   inkscape:pageopacity="0"
   inkscape:pageshadow="2"
   inkscape:window-width="1920"
   inkscape:window-height="1001"
   id="namedview75"
   showgrid="false"
   inkscape:zoom="4.4313725"
   inkscape:cx="88.351513"
   inkscape:cy="27.129324"
   inkscape:window-x="-9"
   inkscape:window-y="-9"
   inkscape:window-maximized="1"
   inkscape:current-layer="Layer_1" />
<style
   type="text/css"
   id="style2">
	.st0{fill:#231F20;}
	.st1{fill:#FFB71B;}
</style>
<g
   id="g1096"><g
     transform="matrix(1.1796546,0,0,1.1796546,-3.7955562,-6.4237197)"
     id="g1026"><path
       style="fill:#231f20;stroke-width:0.36225471"
       inkscape:connector-curvature="0"
       id="path4"
       d="m 45.799615,36.267007 c -1.738823,0 -2.861812,-0.652059 -3.368969,-1.050539 l -0.03623,-0.03623 0.03623,-0.07245 0.72451,-1.159215 0.03623,-0.07245 0.07245,0.03623 c 0.434706,0.326029 1.304117,0.833186 2.535783,0.833186 1.050539,0 1.630146,-0.470931 1.630146,-1.231666 0,-0.869411 -0.688284,-1.12299 -1.992401,-1.557695 l -0.144902,-0.03623 c -1.267891,-0.434705 -2.463332,-1.086764 -2.463332,-2.825586 0,-1.557696 1.195441,-2.572009 3.079165,-2.572009 1.086765,0 1.956176,0.217353 2.680685,0.652059 l 0.07245,0.03623 -0.03623,0.07245 -0.579608,1.195441 -0.03623,0.07245 -0.07245,-0.03623 c -0.615833,-0.326029 -1.304117,-0.470931 -2.028627,-0.470931 -0.652058,0 -1.449018,0.181127 -1.449018,1.050539 0,0.833185 0.615833,1.050538 1.847499,1.449018 1.340342,0.434706 2.789361,1.086764 2.789361,3.006714 0.03623,1.702598 -1.231666,2.716911 -3.296518,2.716911 z"
       class="st0" /><path
       style="fill:#231f20;stroke-width:0.36225471"
       inkscape:connector-curvature="0"
       id="path8"
       d="m 50.436475,38.621662 c -0.326029,0 -0.615833,-0.03623 -0.978087,-0.108676 h -0.07245 v -0.07245 l 0.181127,-1.12299 v -0.07245 h 0.07245 0.108676 c 0.181128,0.03623 0.32603,0.03623 0.507157,0.03623 0.652058,0 1.050539,-0.253578 1.340342,-0.79696 l -2.427106,-7.172644 -0.03623,-0.108676 h 0.108677 1.666371 0.07245 v 0.03622 l 1.412794,5.071566 1.267891,-5.071566 v -0.07245 h 0.07245 1.557695 0.108677 l -0.07245,0.144902 -2.173528,7.100193 c -0.434706,1.521469 -1.304117,2.209753 -2.716911,2.209753 z"
       class="st0" /><path
       style="fill:#231f20;stroke-width:0.36225471"
       inkscape:connector-curvature="0"
       id="path12"
       d="m 65.288918,36.15833 h -0.07245 -1.59392 -0.07245 v -0.07245 -4.564409 c 0,-0.579607 -0.108677,-0.978088 -0.688284,-0.978088 -0.39848,0 -0.869411,0.253579 -1.340343,0.688284 v 4.854213 0.07245 h -0.07245 -1.59392 -0.07245 v -0.07245 -4.564409 c 0,-0.579607 -0.108677,-0.978088 -0.688284,-0.978088 -0.434706,0 -0.905637,0.253579 -1.340343,0.72451 v 4.817987 0.07245 h -0.07245 -1.630147 -0.07245 v -0.07245 -6.810388 -0.07245 h 0.07245 0.978088 0.03623 v 0.03622 l 0.289803,0.941863 c 0.72451,-0.760735 1.449019,-1.159215 2.245979,-1.159215 0.978088,0 1.376568,0.543382 1.630147,1.050538 0.470931,-0.507156 1.231666,-1.050538 2.173528,-1.050538 1.557695,0 1.883724,1.340342 1.883724,2.463332 v 4.564409 z"
       class="st0" /><path
       style="fill:#231f20;stroke-width:0.36225471"
       inkscape:connector-curvature="0"
       id="path16"
       d="m 68.295633,36.267007 c -1.267892,0 -2.173529,-0.833186 -2.173529,-1.992401 0,-0.760735 0.253579,-1.304117 0.833186,-1.666372 0.579608,-0.39848 1.52147,-0.688284 3.006714,-0.905637 V 31.52147 c 0,-0.760735 -0.289804,-1.050539 -1.014313,-1.050539 -0.652058,0 -1.267891,0.253579 -1.883724,0.543382 l -0.07245,0.03623 -0.03623,-0.07245 -0.543382,-1.050539 -0.03623,-0.07245 0.07245,-0.03623 c 0.869412,-0.543382 1.702598,-0.79696 2.64446,-0.79696 1.702597,0 2.608234,0.869411 2.608234,2.572008 v 4.455733 0.108676 h -0.07245 -0.978088 -0.03623 l -0.03623,-0.03623 -0.289804,-0.688284 c -0.39848,0.39848 -1.086764,0.833186 -1.9924,0.833186 z m 1.666371,-3.405194 c -1.122989,0.217352 -1.702597,0.434705 -1.91995,0.724509 -0.144902,0.181127 -0.181127,0.289804 -0.181127,0.579607 0,0.507157 0.289804,0.796961 0.79696,0.796961 0.434706,0 0.905637,-0.181128 1.304117,-0.507157 z"
       class="st0" /><path
       style="fill:#231f20;stroke-width:0.36225471"
       inkscape:connector-curvature="0"
       id="path20"
       d="m 78.87347,36.15833 h -0.07245 -1.593921 -0.07245 v -0.07245 -4.564409 c 0,-0.688284 -0.253578,-0.978088 -0.79696,-0.978088 -0.470931,0 -1.014313,0.289804 -1.412793,0.72451 v 4.817987 0.07245 h -0.07245 -1.593921 -0.07245 v -0.07245 -6.810388 -0.07245 h 0.07245 0.978088 0.03623 v 0.03622 l 0.289804,0.941863 c 0.724509,-0.760735 1.485244,-1.159215 2.31843,-1.159215 1.304117,0 1.992401,0.833185 1.992401,2.463332 v 4.564409 z"
       class="st0" /><path
       style="fill:#231f20;stroke-width:0.36225471"
       inkscape:connector-curvature="0"
       id="path24"
       d="m 82.532243,36.267007 c -1.376568,0 -2.028627,-0.688284 -2.028627,-2.064852 v -3.731224 h -0.941862 -0.07245 v -0.07245 -1.122989 -0.07245 h 0.07245 0.978088 l 0.326029,-1.883725 v -0.07245 h 0.07245 1.267891 0.07245 v 0.07245 1.883725 h 1.376568 0.07245 v 0.07245 1.122989 0.07245 h -0.07245 -1.376568 v 3.658773 c 0,0.579608 0.108677,0.79696 0.688284,0.79696 0.181128,0 0.434706,-0.03623 0.72451,-0.144902 l 0.07245,-0.03623 v 0.07245 l 0.217352,1.12299 v 0.07245 l -0.07245,0.03623 c -0.217353,0.03623 -0.72451,0.217353 -1.376568,0.217353 z"
       class="st0" /><path
       style="fill:#231f20;stroke-width:0.36225471"
       inkscape:connector-curvature="0"
       id="path28"
       d="m 87.35023,36.267007 c -1.956175,0 -3.151616,-1.376568 -3.151616,-3.550096 0,-2.209754 1.195441,-3.658773 3.04294,-3.658773 1.847499,0 2.934263,1.340342 2.934263,3.658773 v 0.39848 0.07245 h -0.07245 -4.093478 c 0.108676,1.122989 0.543382,1.630146 1.449019,1.630146 0.760735,0 1.231666,-0.289804 1.775048,-0.615833 l 0.07245,-0.03623 0.03623,0.07245 0.652059,1.014314 0.03622,0.07245 -0.03622,0.03623 c -0.688284,0.507157 -1.340343,0.905637 -2.64446,0.905637 z m -1.340342,-4.202155 h 2.354655 c -0.03623,-1.159215 -0.39848,-1.702597 -1.159215,-1.702597 -0.688284,0 -1.086764,0.579608 -1.19544,1.702597 z"
       class="st0" /><path
       style="fill:#231f20;stroke-width:0.36225471"
       inkscape:connector-curvature="0"
       id="path32"
       d="m 94.015717,36.267007 c -2.31843,0 -3.115391,-1.847499 -3.115391,-3.550096 0,-1.702598 0.833186,-3.658773 3.115391,-3.658773 0.941862,0 1.630146,0.217353 2.245979,0.760735 l 0.03623,0.03623 -0.03623,0.03623 -0.724509,1.050539 -0.03623,0.07245 -0.07245,-0.03623 c -0.39848,-0.289804 -0.760735,-0.470931 -1.376568,-0.470931 -0.905636,0 -1.340342,0.724509 -1.340342,2.209754 0,1.412793 0.470931,2.137302 1.376568,2.137302 0.615833,0 1.014313,-0.217352 1.412793,-0.579607 l 0.07245,-0.03623 0.03623,0.07245 0.760735,0.978088 0.03623,0.03623 -0.03623,0.03623 c -0.652059,0.615833 -1.376568,0.905637 -2.354656,0.905637 z"
       class="st0" /></g><g
     transform="matrix(1.7037771,0,0,1.7037771,-30.128833,-23.113313)"
     id="g1016"><path
       style="fill:#ffb71b;stroke-width:0.36225471"
       inkscape:connector-curvature="0"
       id="path38"
       d="m 32.251289,39.99823 c -4.781762,0 -8.657888,-3.876125 -8.657888,-8.657887 0,-4.781762 3.876126,-8.657888 8.657888,-8.657888 4.781762,0 8.657887,3.876126 8.657887,8.657888 0,4.781762 -3.91235,8.657887 -8.657887,8.657887 z m 0,-14.598865 c -1.593921,0 -3.079165,0.615833 -4.165929,1.738823 -1.12299,1.12299 -1.738823,2.608234 -1.738823,4.202155 0,1.59392 0.615833,3.079165 1.738823,4.202154 1.122989,1.12299 2.608234,1.738823 4.165929,1.738823 1.593921,0 3.079165,-0.615833 4.202155,-1.738823 1.122989,-1.122989 1.738822,-2.608234 1.738822,-4.202154 0,-1.593921 -0.615833,-3.079165 -1.738822,-4.202155 -1.159216,-1.12299 -2.64446,-1.738823 -4.202155,-1.738823 z"
       class="st1" /><rect
       x="41.66991"
       y="21.342113"
       class="st1"
       width="0.68828392"
       height="0.68828392"
       id="rect48"
       style="fill:#ffb71b;stroke-width:0.36225471" /><rect
       x="41.66991"
       y="20.00177"
       class="st1"
       width="0.68828392"
       height="0.68828392"
       id="rect50"
       style="fill:#ffb71b;stroke-width:0.36225471" /><rect
       x="39.749962"
       y="21.994171"
       class="st1"
       width="0.61583304"
       height="0.65205848"
       id="rect52"
       style="fill:#ffb71b;stroke-width:0.36225471" /><rect
       x="38.518295"
       y="23.298288"
       class="st0"
       width="0.65205848"
       height="0.61583304"
       id="rect54"
       style="fill:#231f20;stroke-width:0.36225471" /><rect
       x="40.40202"
       y="22.682455"
       class="st0"
       width="0.72450942"
       height="0.65205848"
       id="rect56"
       style="fill:#231f20;stroke-width:0.36225471" /><rect
       x="37.902462"
       y="22.682455"
       class="st0"
       width="0.61583304"
       height="0.61583304"
       id="rect58"
       style="fill:#231f20;stroke-width:0.36225471" /><rect
       x="39.749962"
       y="23.298288"
       class="st0"
       width="0.61583304"
       height="0.61583304"
       id="rect60"
       style="fill:#231f20;stroke-width:0.36225471" /><rect
       x="40.981628"
       y="20.65383"
       class="st0"
       width="0.65205848"
       height="0.65205848"
       id="rect62"
       style="fill:#231f20;stroke-width:0.36225471" /><rect
       x="39.749962"
       y="21.342113"
       class="st0"
       width="1.2316661"
       height="0.68828392"
       id="rect64"
       style="fill:#231f20;stroke-width:0.36225471" /><rect
       x="39.170353"
       y="21.994171"
       class="st0"
       width="0.61583304"
       height="1.304117"
       id="rect66"
       style="fill:#231f20;stroke-width:0.36225471" /><path
       class="st0"
       d="m 39.170354,23.914121 v 0.652059 h -0.652059 v -0.652059 h -1.050538 v 0.470931 h -0.579608 v 0.579608 h 0.615833 v 0.615833 H 36.888149 V 24.96466 h -0.652058 v 0.978088 h -0.652059 v 0.615833 h -0.434705 v 0.652058 h -0.470932 c -0.507156,0.760735 -1.811273,3.187841 -2.209753,4.165929 -1.412794,-1.992401 -2.535783,-2.753136 -3.405195,-3.042939 -0.470931,-0.144902 -1.050538,0.362254 -0.253578,1.159215 1.775048,1.956175 2.354656,3.586321 2.898038,4.890438 0.289804,0.688284 1.557695,0.796961 1.847499,0.108677 C 34.098788,33.006714 34.895748,31.340343 35.837611,30 v -0.688284 h 0.507156 v -0.652058 h 0.543382 v -0.72451 h 0.615833 v -0.724509 h -0.652058 v -0.652058 h 0.652058 v 0.652058 h 0.615833 v -0.652058 h 0.543382 v -0.760735 h 0.579608 v -0.507157 h 0.507156 v -1.340342 h -0.579607 z"
       id="path68"
       inkscape:connector-curvature="0"
       style="fill:#231f20;stroke-width:0.36225471" /></g></g>
</svg>