<?xml version="1.0" encoding="UTF-8" standalone="no"?>
<svg
   xmlns:dc="http://purl.org/dc/elements/1.1/"
   xmlns:cc="http://creativecommons.org/ns#"
   xmlns:rdf="http://www.w3.org/1999/02/22-rdf-syntax-ns#"
   xmlns:svg="http://www.w3.org/2000/svg"
   xmlns="http://www.w3.org/2000/svg"
   xmlns:sodipodi="http://sodipodi.sourceforge.net/DTD/sodipodi-0.dtd"
   xmlns:inkscape="http://www.inkscape.org/namespaces/inkscape"
   version="1.1"
   x="0"
   y="0"
   width="64"
   height="64"
   viewBox="0 0 64 64.000002"
   preserveAspectRatio="xMinYMin slice"
   enable-background="new 0 0 187.85 81.282"
   xml:space="preserve"
   id="svg50"
   sodipodi:docname="hbr-icon.svg"
   inkscape:version="0.92.3 (2405546, 2018-03-11)"><metadata
   id="metadata56"><rdf:RDF><cc:Work
       rdf:about=""><dc:format>image/svg+xml</dc:format><dc:type
         rdf:resource="http://purl.org/dc/dcmitype/StillImage" /><dc:title></dc:title></cc:Work></rdf:RDF></metadata><defs
   id="defs54" /><sodipodi:namedview
   pagecolor="#ffffff"
   bordercolor="#666666"
   borderopacity="1"
   objecttolerance="10"
   gridtolerance="10"
   guidetolerance="10"
   inkscape:pageopacity="0"
   inkscape:pageshadow="2"
   inkscape:window-width="1920"
   inkscape:window-height="1001"
   id="namedview52"
   showgrid="false"
   inkscape:zoom="7.2185252"
   inkscape:cx="55.814065"
   inkscape:cy="24.105314"
   inkscape:window-x="-9"
   inkscape:window-y="-9"
   inkscape:window-maximized="1"
   inkscape:current-layer="svg50" />
  
  
  
  
  
  
  
  
  
  
  
  
  
  
  
  
  
  
  
  
  
  
  
  <g
   id="g869"
   transform="matrix(1.1082443,0,0,1.1082443,4.758801,-1.6424181)"><path
     id="path4"
     d="M 1.489,1.482 V 17.554 L 47.667,17.553 V 1.482 Z m 39.817,4.333 c 0.169,0.009 0.314,0.009 0.433,0.009 0.085,0.003 0.155,0.078 0.155,0.131 v 7.166 l -0.603,-0.506 c 0.025,-0.043 0.043,-0.089 0.043,-0.149 V 5.911 C 41.327,5.873 41.317,5.844 41.306,5.815 Z m 0.409,7.44 H 38.07 c -0.035,-0.198 -0.152,-0.373 -0.323,-0.477 h 3.277 c 0.037,0 0.068,-0.004 0.101,-0.021 z M 33.851,5.922 c 0.03,-0.038 0.251,-0.126 0.299,-0.114 0.033,0 0.072,-0.006 0.11,-0.006 h 0.032 c 0.663,0 1.448,0.048 2.057,0.276 0.607,0.236 1.021,0.607 1.022,1.31 h 0.22 c 0.004,-0.703 0.414,-1.074 1.027,-1.31 0.604,-0.229 1.395,-0.276 2.051,-0.276 h 0.075 c 0.032,0 0.06,0.006 0.087,0.006 0.025,-0.006 0.12,0.026 0.188,0.052 0.04,0.02 0.069,0.04 0.085,0.052 0.004,0.009 0.006,0.011 0.009,0.015 v 6.54 c 0,0.054 -0.042,0.096 -0.088,0.096 H 33.94 c -0.048,0 -0.088,-0.042 -0.088,-0.096 V 5.922 Z m 0.088,6.857 h 3.091 c -0.167,0.104 -0.289,0.279 -0.324,0.477 h -3.49 c -0.015,0 -0.024,-0.003 -0.038,-0.003 l 0.609,-0.516 c 0.047,0.027 0.098,0.042 0.152,0.042 z M 33.075,5.955 c 0,-0.054 0.063,-0.128 0.15,-0.131 0.116,0 0.268,0 0.437,-0.009 -0.017,0.03 -0.027,0.059 -0.031,0.097 v 6.555 c 0,0.036 0.006,0.07 0.017,0.1 l -0.572,0.49 V 5.955 Z m -4.152,-0.12 c 0.081,0 0.153,0.084 0.153,0.132 v 7.12 l -0.585,-0.491 c 0.014,-0.034 0.026,-0.07 0.026,-0.114 V 5.922 C 28.509,5.884 28.499,5.86 28.489,5.834 c 0.169,0.001 0.318,0.001 0.434,0.001 z m 0.023,7.435 c 0,0 -0.012,0 -0.019,0 h -3.676 c -0.029,-0.201 -0.138,-0.374 -0.304,-0.483 h 3.261 c 0.046,0 0.09,-0.012 0.131,-0.029 z M 24.771,7.179 c 0.004,-0.615 0.327,-0.94 0.801,-1.137 0.472,-0.198 1.091,-0.241 1.606,-0.241 0.337,0 0.632,0.013 0.822,0.013 0.023,0 0.122,0.021 0.199,0.059 0.036,0.016 0.07,0.038 0.087,0.053 l 0.008,0.006 v 6.55 c 0,0.048 -0.039,0.084 -0.085,0.084 H 24.77 Z M 21.031,5.932 C 21.049,5.922 21.1,5.884 21.16,5.86 c 0.069,-0.025 0.152,-0.037 0.178,-0.037 0.193,0 0.49,-0.022 0.837,-0.022 0.509,0 1.124,0.046 1.594,0.241 0.466,0.207 0.782,0.523 0.784,1.137 v 5.387 h -3.427 c -0.054,0 -0.094,-0.036 -0.094,-0.084 v -6.55 z m 0.094,6.855 h 3.071 c -0.169,0.11 -0.276,0.282 -0.307,0.483 h -3.491 c -0.014,0 -0.029,0 -0.047,-0.008 l 0.617,-0.517 c 0.045,0.03 0.097,0.042 0.157,0.042 z m -0.871,-6.82 c 0,-0.047 0.068,-0.132 0.154,-0.132 0.117,0 0.262,0 0.434,-0.002 -0.016,0.026 -0.025,0.051 -0.031,0.088 v 6.561 c 0,0.033 0.011,0.064 0.022,0.093 l -0.579,0.49 z M 15.67,5.833 c 0.17,0.002 0.317,0.002 0.433,0.002 0.081,0 0.155,0.084 0.155,0.132 v 7.135 L 15.67,12.604 c 0.016,-0.038 0.027,-0.079 0.027,-0.123 V 5.921 C 15.695,5.884 15.685,5.859 15.67,5.833 Z m 0.45,7.437 h -3.687 c -0.029,-0.201 -0.141,-0.374 -0.302,-0.483 h 3.256 c 0.045,0 0.091,-0.008 0.129,-0.023 z M 11.955,7.179 c 0.004,-0.615 0.325,-0.94 0.797,-1.137 0.475,-0.198 1.094,-0.241 1.612,-0.241 0.333,0 0.626,0.013 0.817,0.013 0.021,0 0.122,0.021 0.199,0.059 0.038,0.016 0.071,0.038 0.09,0.053 l 0.007,0.006 v 6.55 c 0,0.048 -0.04,0.084 -0.091,0.084 H 11.953 Z M 8.211,5.932 C 8.229,5.922 8.282,5.884 8.343,5.86 8.411,5.835 8.498,5.823 8.52,5.823 c 0.197,0 0.487,-0.022 0.836,-0.022 0.511,0 1.12,0.046 1.591,0.241 0.467,0.207 0.784,0.523 0.79,1.137 h -0.002 v 5.387 h -3.43 c -0.052,0 -0.094,-0.036 -0.094,-0.084 z m 0.094,6.855 h 3.072 c -0.167,0.11 -0.275,0.282 -0.306,0.483 H 7.583 c -0.028,0 -0.048,0 -0.063,-0.01 l 0.613,-0.524 c 0.048,0.033 0.112,0.051 0.172,0.051 z M 7.438,5.967 c 0,-0.047 0.067,-0.132 0.152,-0.132 0.115,0 0.26,0 0.43,-0.002 C 8.007,5.859 7.999,5.88 7.993,5.922 v 6.561 c 0,0.025 0.006,0.049 0.015,0.08 l -0.569,0.482 z m -0.77,7.83 c -0.114,0 -0.202,-0.096 -0.202,-0.205 V 12.519 C 6.164,12.481 5.93,12.293 5.93,12.071 c 0,-0.219 0.234,-0.41 0.536,-0.452 V 8.155 C 6.165,8.111 5.931,7.929 5.931,7.707 5.931,7.481 6.165,7.301 6.467,7.257 V 5.884 c 0,-0.112 0.088,-0.199 0.202,-0.199 l 0.6,0.117 C 7.239,5.848 7.221,5.904 7.219,5.967 v 7.186 c 0.002,0.198 0.172,0.338 0.365,0.338 h 3.491 c 0.017,0.114 0.066,0.217 0.135,0.306 z m 5.287,0 h -0.404 c -0.159,-0.08 -0.269,-0.24 -0.271,-0.432 0.002,-0.256 0.211,-0.468 0.474,-0.468 0.259,0 0.471,0.212 0.471,0.468 0,0.191 -0.111,0.352 -0.27,0.432 z m 5.568,-1.726 c 0,0.222 -0.232,0.403 -0.533,0.448 v 1.073 c 0,0.108 -0.088,0.205 -0.201,0.205 h -4.496 c 0.066,-0.089 0.114,-0.192 0.138,-0.307 h 3.683 c 0.187,0 0.358,-0.14 0.358,-0.337 V 5.967 c 0,-0.083 -0.031,-0.153 -0.075,-0.209 l 0.391,-0.073 c 0.113,0 0.201,0.087 0.201,0.199 v 1.375 c 0.301,0.042 0.533,0.223 0.533,0.448 0,0.223 -0.232,0.404 -0.533,0.449 v 3.464 c 0.303,0.042 0.534,0.232 0.534,0.451 z m 1.958,1.726 c -0.11,0 -0.197,-0.096 -0.197,-0.205 v -1.073 c -0.308,-0.038 -0.538,-0.226 -0.538,-0.448 0,-0.219 0.23,-0.41 0.538,-0.452 V 8.155 C 18.976,8.111 18.746,7.929 18.746,7.707 c 0,-0.226 0.23,-0.406 0.538,-0.45 V 5.884 c 0,-0.112 0.086,-0.199 0.197,-0.199 l 0.603,0.117 c -0.029,0.047 -0.045,0.103 -0.045,0.165 v 7.186 c 0,0.198 0.167,0.338 0.36,0.338 h 3.493 c 0.019,0.114 0.07,0.217 0.136,0.306 z m 5.29,0 h -0.408 c -0.153,-0.08 -0.268,-0.24 -0.268,-0.432 0,-0.256 0.213,-0.468 0.476,-0.468 0.26,0 0.472,0.212 0.472,0.468 0.001,0.191 -0.113,0.352 -0.272,0.432 z m 5.568,-1.726 c 0,0.222 -0.227,0.403 -0.53,0.448 v 1.073 c 0,0.108 -0.089,0.205 -0.203,0.205 h -4.493 c 0.065,-0.089 0.113,-0.192 0.135,-0.307 h 3.679 c 0.192,0 0.364,-0.14 0.364,-0.337 V 5.967 c 0,-0.083 -0.031,-0.153 -0.076,-0.209 l 0.391,-0.073 c 0.114,0 0.203,0.087 0.203,0.199 v 1.375 c 0.303,0.042 0.53,0.223 0.53,0.448 0,0.223 -0.227,0.404 -0.53,0.449 v 3.464 c 0.303,0.042 0.53,0.232 0.53,0.451 z m 1.96,1.726 c -0.105,0 -0.199,-0.096 -0.199,-0.205 v -1.073 c -0.307,-0.038 -0.534,-0.226 -0.534,-0.448 0,-0.219 0.228,-0.41 0.534,-0.452 V 8.155 C 31.793,8.111 31.566,7.929 31.566,7.707 c 0,-0.226 0.228,-0.406 0.534,-0.45 V 5.884 c 0,-0.112 0.093,-0.199 0.199,-0.199 l 0.596,0.117 c -0.024,0.042 -0.037,0.097 -0.041,0.153 v 7.186 c 0.004,0.194 0.17,0.333 0.362,0.333 h 3.491 c 0.021,0.121 0.072,0.227 0.143,0.322 z m 5.292,0 h -0.404 c -0.162,-0.08 -0.269,-0.24 -0.269,-0.432 0,-0.256 0.209,-0.468 0.468,-0.468 0.265,0 0.478,0.212 0.478,0.468 0,0.191 -0.116,0.352 -0.273,0.432 z m 5.569,-1.726 c 0,0.222 -0.231,0.411 -0.539,0.448 v 1.073 c 0,0.108 -0.085,0.205 -0.195,0.205 H 37.93 c 0.073,-0.096 0.121,-0.202 0.141,-0.323 h 3.674 c 0.194,0 0.366,-0.138 0.366,-0.337 V 5.955 c 0,-0.076 -0.026,-0.141 -0.064,-0.197 l 0.379,-0.073 c 0.11,0 0.195,0.087 0.195,0.199 v 1.373 c 0.308,0.043 0.539,0.224 0.539,0.45 0,0.222 -0.231,0.404 -0.539,0.449 v 3.464 c 0.308,0.042 0.539,0.232 0.539,0.451 z M 13.753,10.835 c -0.226,0 -0.29,-0.056 -0.29,-0.266 v -1.15 c 0.341,0 0.517,0.14 0.562,0.737 H 14.11 V 8.55 H 14.025 C 13.969,9.14 13.796,9.265 13.463,9.259 V 8.155 c 0,-0.204 0.06,-0.221 0.252,-0.221 0.466,0 0.712,0.119 0.789,0.793 h 0.085 V 7.768 H 12.595 V 7.89 c 0.162,0.016 0.307,0.022 0.307,0.337 v 2.304 c 0,0.285 -0.108,0.304 -0.307,0.331 v 0.121 h 2.026 L 14.76,9.991 h -0.1 c -0.217,0.722 -0.565,0.844 -0.907,0.844 z m 25.425,-0.097 c 0.108,0 0.261,0.163 0.593,0.163 0.634,0 0.856,-0.576 0.856,-0.998 0,-0.514 -0.261,-0.791 -0.383,-0.869 L 39.741,8.688 C 39.447,8.49 39.383,8.385 39.383,8.128 c 0,-0.308 0.192,-0.451 0.366,-0.451 0.41,0 0.619,0.545 0.682,0.875 h 0.094 V 7.518 h -0.099 c -0.021,0.095 -0.037,0.166 -0.118,0.166 -0.097,0 -0.261,-0.159 -0.537,-0.159 -0.659,0 -0.765,0.647 -0.765,0.941 0,0.219 0,0.626 0.593,1.015 l 0.232,0.149 c 0.221,0.144 0.383,0.261 0.383,0.575 0,0.069 -0.011,0.54 -0.427,0.54 -0.441,0 -0.642,-0.544 -0.713,-1.02 h -0.1 V 10.9 h 0.1 c 0.017,-0.078 0.031,-0.162 0.104,-0.162 z M 8.953,8.156 9.835,11.004 h 0.093 l 0.789,-2.789 c 0.081,-0.266 0.124,-0.36 0.312,-0.389 v -0.12 h -0.737 v 0.12 c 0.198,0.013 0.298,0.028 0.298,0.215 0,0.097 -0.038,0.221 -0.067,0.331 L 10.08,9.931 9.631,8.431 C 9.598,8.315 9.524,8.111 9.524,8.021 9.524,7.843 9.607,7.843 9.825,7.826 V 7.706 H 8.663 v 0.12 c 0.145,0.029 0.201,0.044 0.29,0.33 z m 13.791,2.616 C 22.52,10.729 22.442,10.715 22.442,10.336 V 9.404 h 0.093 l 0.718,1.491 h 0.708 v -0.123 c -0.042,0 -0.095,-10e-4 -0.143,-0.089 L 23.123,9.33 c 0.186,-0.086 0.541,-0.23 0.541,-0.817 0,-0.799 -0.729,-0.835 -0.971,-0.835 H 21.58 v 0.127 c 0.197,0.014 0.306,0.023 0.306,0.429 v 2.102 c 0,0.382 -0.074,0.399 -0.306,0.436 v 0.123 h 1.166 V 10.772 Z M 22.442,8.043 c 0.015,-0.152 0.023,-0.202 0.217,-0.202 0.275,0 0.416,0.208 0.416,0.685 0,0.614 -0.176,0.719 -0.633,0.724 z M 34.85,7.834 v 2.502 c 0,0.399 -0.08,0.41 -0.335,0.436 v 0.123 h 1.239 v -0.123 c -0.26,-0.024 -0.342,-0.034 -0.342,-0.436 V 7.834 c 0.238,0.011 0.596,0.042 0.664,0.804 h 0.102 L 36.174,7.679 h -2.078 l -0.008,0.959 h 0.102 c 0.064,-0.763 0.417,-0.793 0.66,-0.804 z m 2.102,2.934 c -0.119,-0.011 -0.285,-0.023 -0.285,-0.203 0,-0.081 0.058,-0.276 0.157,-0.622 H 37.6 c 0.046,0.153 0.152,0.508 0.152,0.637 0,0.158 -0.058,0.165 -0.271,0.188 v 0.112 h 1.118 v -0.112 c -0.165,0.011 -0.22,-0.156 -0.376,-0.662 l -0.768,-2.5 h -0.096 l -0.766,2.601 c -0.108,0.359 -0.155,0.522 -0.341,0.561 v 0.112 h 0.701 z m 0.246,-2.157 0.347,1.152 H 36.871 Z M 25.875,7.805 c 0.161,0.011 0.321,0.021 0.321,0.329 v 2.298 c 0,0.296 -0.136,0.315 -0.321,0.339 v 0.123 h 1.212 v -0.123 c -0.192,-0.015 -0.33,-0.034 -0.33,-0.339 V 8.135 c 0,-0.318 0.165,-0.322 0.33,-0.329 V 7.679 h -1.212 z"
     inkscape:connector-curvature="0"
     style="fill:#050505" /><path
     id="path6"
     d="m 32.912,19.043 c 0.29,0.438 0.49,0.955 0.58,1.486 0.252,1.496 -0.479,3.077 -3.213,3.219 -0.045,2.241 -0.596,3.157 -3.438,3.208 0.246,2.385 -0.998,3.16 -2.343,3.16 -1.351,0 -2.596,-0.775 -2.348,-3.16 -2.843,-0.051 -3.391,-0.967 -3.443,-3.208 -2.736,-0.143 -3.461,-1.723 -3.208,-3.219 0.083,-0.532 0.288,-1.048 0.577,-1.486 H 1.485 v 0.741 C 1.508,47.2 24.168,59.01 24.235,59.047 l 0.343,0.184 0.348,-0.184 C 24.994,59.01 47.655,47.201 47.676,19.784 V 19.043 Z M 13.984,44.197 c 0.545,-0.286 0.96,-1.122 1.059,-1.691 0.131,-0.735 0.286,-1.044 0.675,-1.056 0.388,-0.01 0.544,0.321 0.676,1.056 0.097,0.569 0.512,1.404 1.056,1.691 0.34,0.18 1.433,0.208 1.211,0.847 -0.151,0.291 -0.351,0.889 -0.648,0.623 -0.302,-0.267 -0.812,-0.956 -1.014,-1 -0.197,-0.034 -0.169,0.266 -0.085,0.368 0.114,0.13 0.461,0.631 0.658,0.863 0.25,0.282 0.327,0.801 -0.111,1.006 -0.433,0.205 -0.884,-0.056 -0.872,-0.29 0.015,-0.352 -0.196,-1.361 -0.387,-1.361 -0.151,0 -0.157,0.264 -0.141,0.547 -0.06,0.594 0.339,1.069 0.294,1.375 -0.054,0.297 -0.116,0.614 -0.638,0.607 -0.524,-0.015 -0.59,-0.311 -0.638,-0.607 -0.049,-0.307 0.351,-0.782 0.288,-1.375 0.018,-0.284 0.012,-0.547 -0.139,-0.547 -0.186,0 -0.406,1.009 -0.382,1.361 0.009,0.234 -0.442,0.495 -0.877,0.29 -0.436,-0.206 -0.359,-0.725 -0.113,-1.006 0.199,-0.232 0.548,-0.732 0.662,-0.863 0.081,-0.103 0.114,-0.402 -0.085,-0.368 -0.202,0.043 -0.712,0.733 -1.012,1 -0.3,0.266 -0.497,-0.332 -0.647,-0.623 -0.222,-0.64 0.87,-0.667 1.21,-0.847 z m 0.374,-1.884 c 0.348,-0.039 0.174,0.323 0.137,0.645 -0.038,0.315 -0.124,0.352 -0.46,-0.1 -0.338,-0.446 -0.054,-0.505 0.323,-0.545 z m 2.707,0.033 c 0.375,0.05 0.661,0.104 0.324,0.546 -0.338,0.453 -0.423,0.417 -0.462,0.104 -0.039,-0.319 -0.213,-0.683 0.138,-0.65 z m 16.119,2.908 c -0.187,0 -0.399,1.009 -0.383,1.361 0.009,0.234 -0.435,0.495 -0.875,0.29 -0.433,-0.206 -0.358,-0.725 -0.11,-1.006 0.2,-0.232 0.551,-0.732 0.662,-0.863 0.079,-0.103 0.11,-0.402 -0.087,-0.368 -0.198,0.043 -0.713,0.733 -1.013,1 -0.296,0.266 -0.495,-0.332 -0.646,-0.623 -0.226,-0.639 0.871,-0.667 1.208,-0.847 0.545,-0.286 0.961,-1.122 1.058,-1.691 0.128,-0.735 0.292,-1.044 0.678,-1.056 0.384,-0.01 0.538,0.321 0.675,1.056 0.096,0.569 0.514,1.404 1.057,1.691 0.339,0.18 1.431,0.208 1.21,0.847 -0.154,0.291 -0.351,0.889 -0.651,0.623 -0.298,-0.267 -0.809,-0.956 -1.011,-1 -0.196,-0.034 -0.168,0.266 -0.086,0.368 0.116,0.13 0.464,0.631 0.665,0.863 0.249,0.282 0.322,0.801 -0.116,1.006 -0.433,0.205 -0.884,-0.056 -0.87,-0.29 0.015,-0.352 -0.198,-1.361 -0.387,-1.361 -0.153,0 -0.16,0.264 -0.139,0.547 -0.065,0.594 0.34,1.069 0.286,1.375 -0.048,0.297 -0.113,0.614 -0.632,0.607 -0.527,-0.015 -0.587,-0.311 -0.641,-0.607 -0.05,-0.307 0.35,-0.782 0.288,-1.375 0.021,-0.284 0.017,-0.547 -0.14,-0.547 z m -0.872,-2.941 c 0.352,-0.039 0.172,0.323 0.139,0.645 -0.038,0.315 -0.126,0.352 -0.461,-0.1 -0.337,-0.446 -0.053,-0.505 0.322,-0.545 z m 2.708,0.033 c 0.379,0.05 0.657,0.104 0.325,0.546 -0.335,0.453 -0.423,0.417 -0.461,0.104 -0.04,-0.319 -0.218,-0.683 0.136,-0.65 z M 35.345,24.81 c -0.336,0.45 -0.423,0.417 -0.461,0.098 -0.04,-0.312 -0.217,-0.681 0.136,-0.646 0.378,0.041 0.657,0.103 0.325,0.548 z m -3.033,-0.583 c 0.352,-0.038 0.172,0.328 0.139,0.643 -0.038,0.32 -0.126,0.357 -0.461,-0.094 -0.337,-0.454 -0.053,-0.511 0.322,-0.549 z m -0.373,1.884 c 0.545,-0.285 0.961,-1.113 1.058,-1.688 0.128,-0.74 0.292,-1.045 0.678,-1.061 0.384,-0.007 0.538,0.321 0.675,1.061 0.096,0.575 0.514,1.402 1.057,1.688 0.339,0.183 1.431,0.204 1.21,0.848 -0.154,0.3 -0.351,0.889 -0.651,0.623 -0.298,-0.267 -0.809,-0.958 -1.011,-0.997 -0.196,-0.038 -0.168,0.273 -0.086,0.363 0.116,0.137 0.464,0.634 0.665,0.862 0.249,0.284 0.322,0.811 -0.116,1.015 -0.433,0.202 -0.884,-0.061 -0.87,-0.292 0.015,-0.352 -0.198,-1.362 -0.387,-1.362 -0.153,0 -0.16,0.259 -0.139,0.55 -0.065,0.593 0.34,1.065 0.286,1.372 -0.048,0.304 -0.113,0.615 -0.632,0.607 -0.527,-0.012 -0.587,-0.303 -0.641,-0.607 -0.05,-0.307 0.35,-0.779 0.288,-1.372 0.023,-0.291 0.019,-0.55 -0.139,-0.55 -0.187,0 -0.399,1.011 -0.383,1.362 0.009,0.231 -0.435,0.495 -0.875,0.292 -0.433,-0.205 -0.358,-0.731 -0.11,-1.009 0.2,-0.234 0.551,-0.731 0.662,-0.868 0.079,-0.09 0.11,-0.401 -0.087,-0.363 -0.198,0.039 -0.713,0.73 -1.013,0.997 -0.296,0.269 -0.495,-0.323 -0.646,-0.623 -0.227,-0.644 0.87,-0.665 1.207,-0.848 z m 1.736,7.221 c -0.25,-2.53 1.344,-3.256 3.239,-3.111 -0.25,-2.531 1.044,-3.358 3.292,-3.262 -0.3,-2.96 1.697,-3.302 3.244,-3.203 -0.24,-2.205 1.331,-3.115 2.397,-3.227 h 0.337 c -0.149,10.131 -3.538,17.987 -7.6,23.833 -1.685,-0.418 -1.954,-1.783 -1.821,-3.009 -2.49,0.292 -3.489,-1.508 -3.143,-3.209 -0.947,0.339 -2.993,-0.149 -3.24,-1.947 -0.246,-1.795 1.199,-2.865 3.295,-2.865 z m -7.633,-0.021 c 0.376,0.038 0.66,0.095 0.327,0.541 -0.343,0.454 -0.424,0.416 -0.46,0.099 -0.039,-0.319 -0.217,-0.68 0.133,-0.64 z m -2.704,-0.04 c 0.346,-0.04 0.172,0.329 0.132,0.641 -0.035,0.319 -0.122,0.356 -0.458,-0.093 -0.34,-0.447 -0.055,-0.508 0.326,-0.548 z m -0.375,1.882 c 0.541,-0.286 0.96,-1.117 1.056,-1.69 0.13,-0.733 0.29,-1.043 0.677,-1.056 0.385,-0.012 0.544,0.323 0.671,1.056 0.1,0.574 0.517,1.405 1.06,1.69 0.341,0.179 1.435,0.204 1.212,0.852 -0.155,0.298 -0.354,0.89 -0.65,0.623 -0.3,-0.27 -0.813,-0.959 -1.008,-1 -0.203,-0.035 -0.172,0.266 -0.087,0.367 0.112,0.131 0.46,0.633 0.66,0.863 0.249,0.284 0.32,0.8 -0.114,1.008 -0.435,0.205 -0.885,-0.06 -0.875,-0.292 0.022,-0.356 -0.199,-1.36 -0.387,-1.36 -0.15,0 -0.155,0.256 -0.134,0.54 -0.06,0.604 0.338,1.077 0.288,1.382 -0.051,0.3 -0.114,0.614 -0.635,0.606 -0.526,-0.011 -0.589,-0.307 -0.633,-0.606 -0.054,-0.305 0.343,-0.778 0.283,-1.382 0.017,-0.283 0.01,-0.54 -0.137,-0.54 -0.19,0 -0.403,1.004 -0.389,1.36 0.016,0.232 -0.434,0.497 -0.871,0.292 -0.438,-0.208 -0.36,-0.724 -0.11,-1.008 0.198,-0.229 0.547,-0.731 0.658,-0.863 0.083,-0.101 0.114,-0.402 -0.089,-0.367 -0.199,0.041 -0.71,0.73 -1.006,1 -0.298,0.267 -0.501,-0.325 -0.651,-0.623 -0.223,-0.648 0.868,-0.673 1.211,-0.852 z m -0.813,9.558 c -0.197,-1.903 0.95,-3.159 2.495,-3.159 1.545,0 2.691,1.256 2.496,3.159 1.695,-0.484 3.939,0.333 3.393,3.254 1.936,-0.656 3.425,0.358 3.521,1.946 -4.287,4.466 -8.326,6.943 -9.489,7.626 -1.182,-0.675 -5.143,-3.115 -9.349,-7.479 0,-1.673 1.542,-2.772 3.542,-2.093 -0.549,-2.922 1.699,-3.739 3.391,-3.254 z m -3.192,-8.513 c -0.251,1.797 -2.293,2.286 -3.24,1.947 0.344,1.701 -0.646,3.501 -3.145,3.209 0.141,1.27 -0.132,2.708 -1.989,3.053 C 6.521,38.555 3.128,30.68 2.975,20.536 c 0.016,0 0.031,-0.006 0.045,-0.006 h 0.47 c 1.07,0.118 2.635,1.021 2.403,3.227 1.544,-0.099 3.54,0.243 3.242,3.203 2.244,-0.096 3.542,0.731 3.288,3.262 1.899,-0.146 3.498,0.581 3.247,3.111 2.092,-10e-4 3.537,1.069 3.288,2.865 z M 14.097,24.87 c -0.042,0.32 -0.127,0.357 -0.465,-0.094 -0.336,-0.454 -0.047,-0.51 0.328,-0.549 0.351,-0.038 0.174,0.327 0.137,0.643 z m 2.569,-0.609 c 0.375,0.042 0.659,0.104 0.323,0.548 -0.34,0.45 -0.422,0.417 -0.46,0.098 -0.038,-0.312 -0.208,-0.68 0.137,-0.646 z m -0.677,0.163 c 0.102,0.575 0.517,1.402 1.062,1.688 0.338,0.183 1.435,0.204 1.209,0.848 -0.151,0.3 -0.35,0.892 -0.65,0.623 -0.296,-0.267 -0.807,-0.958 -1.008,-0.997 -0.201,-0.038 -0.168,0.273 -0.084,0.363 0.11,0.137 0.457,0.634 0.66,0.868 0.247,0.278 0.323,0.805 -0.112,1.009 -0.438,0.202 -0.884,-0.061 -0.875,-0.292 0.018,-0.352 -0.2,-1.362 -0.388,-1.362 -0.147,0 -0.155,0.259 -0.133,0.55 -0.065,0.593 0.331,1.065 0.283,1.372 -0.051,0.304 -0.113,0.615 -0.636,0.607 -0.522,-0.012 -0.586,-0.303 -0.636,-0.607 -0.048,-0.307 0.35,-0.779 0.285,-1.372 0.024,-0.291 0.013,-0.55 -0.134,-0.55 -0.187,0 -0.404,1.011 -0.389,1.362 0.015,0.231 -0.433,0.495 -0.869,0.292 -0.435,-0.205 -0.363,-0.731 -0.112,-1.009 0.197,-0.234 0.548,-0.731 0.659,-0.868 0.084,-0.09 0.113,-0.401 -0.085,-0.363 -0.202,0.039 -0.71,0.73 -1.011,0.997 -0.299,0.269 -0.498,-0.323 -0.646,-0.623 -0.227,-0.644 0.869,-0.665 1.208,-0.848 0.543,-0.285 0.958,-1.113 1.061,-1.688 0.128,-0.74 0.288,-1.045 0.671,-1.061 0.389,-0.007 0.542,0.321 0.67,1.061 z"
     inkscape:connector-curvature="0"
     style="fill:#050505" /></g>
</svg>