<?xml version="1.0" encoding="UTF-8" standalone="no"?>
<svg
   xmlns:dc="http://purl.org/dc/elements/1.1/"
   xmlns:cc="http://creativecommons.org/ns#"
   xmlns:rdf="http://www.w3.org/1999/02/22-rdf-syntax-ns#"
   xmlns:svg="http://www.w3.org/2000/svg"
   xmlns="http://www.w3.org/2000/svg"
   xmlns:sodipodi="http://sodipodi.sourceforge.net/DTD/sodipodi-0.dtd"
   xmlns:inkscape="http://www.inkscape.org/namespaces/inkscape"
   viewBox="9.8748 22.7333 119.62396 57.943756"
   height="60"
   width="120"
   xml:space="preserve"
   id="svg2"
   version="1.1"
   sodipodi:docname="cortex-ar21.svg"
   inkscape:version="0.92.3 (2405546, 2018-03-11)"><sodipodi:namedview
     pagecolor="#ffffff"
     bordercolor="#666666"
     borderopacity="1"
     objecttolerance="10"
     gridtolerance="10"
     guidetolerance="10"
     inkscape:pageopacity="0"
     inkscape:pageshadow="2"
     inkscape:window-width="1920"
     inkscape:window-height="1001"
     id="namedview41"
     showgrid="false"
     inkscape:zoom="4.5834511"
     inkscape:cx="58.772892"
     inkscape:cy="47.047701"
     inkscape:window-x="-9"
     inkscape:window-y="-9"
     inkscape:window-maximized="1"
     inkscape:current-layer="svg2" /><metadata
     id="metadata8"><rdf:RDF><cc:Work
         rdf:about=""><dc:format>image/svg+xml</dc:format><dc:type
           rdf:resource="http://purl.org/dc/dcmitype/StillImage" /><dc:title></dc:title></cc:Work></rdf:RDF></metadata><defs
     id="defs6"><clipPath
       id="clipPath18"
       clipPathUnits="userSpaceOnUse"><path
         id="path16"
         d="M 0,1235.753 H 953.809 V 0 H 0 Z"
         inkscape:connector-curvature="0" /></clipPath></defs><g
     id="g1012"
     transform="translate(-0.93118413)"><g
       transform="matrix(0.80934754,0,0,0.80934754,-25.491095,31.599419)"
       id="g963"><g
         id="g20"
         transform="matrix(0.06383163,0,0,-0.06383163,78.480607,0.85084891)"><path
           inkscape:connector-curvature="0"
           d="m 0,0 c -207.245,0 -375.85,-168.605 -375.85,-375.849 0,-207.244 168.605,-375.85 375.85,-375.85 207.243,0 375.849,168.606 375.849,375.85 C 375.849,-168.605 207.243,0 0,0 m 0,-769.027 c -216.8,0 -393.178,176.378 -393.178,393.178 0,216.799 176.378,393.177 393.178,393.177 216.799,0 393.177,-176.378 393.177,-393.177 0,-216.8 -176.378,-393.178 -393.177,-393.178"
           style="fill:#3b697e;fill-opacity:1;fill-rule:nonzero;stroke:none"
           id="path22" /></g><g
         id="g24"
         transform="matrix(0.06383163,0,0,-0.06383163,82.628105,9.5568832)"><path
           inkscape:connector-curvature="0"
           d="m 0,0 c 0,-35.939 -29.134,-65.073 -65.073,-65.073 -35.939,0 -65.073,29.134 -65.073,65.073 0,35.938 29.134,65.073 65.073,65.073 C -29.134,65.073 0,35.938 0,0"
           style="fill:#3b697e;fill-opacity:1;fill-rule:nonzero;stroke:none"
           id="path26" /></g><g
         id="g28"
         transform="matrix(0.06383163,0,0,-0.06383163,96.201735,25.410783)"><path
           inkscape:connector-curvature="0"
           d="m 0,0 c 0,-35.938 -29.135,-65.072 -65.073,-65.072 -35.939,0 -65.073,29.134 -65.073,65.072 0,35.939 29.134,65.073 65.073,65.073 C -29.135,65.073 0,35.939 0,0"
           style="fill:#3b697e;fill-opacity:1;fill-rule:nonzero;stroke:none"
           id="path30" /></g><g
         id="g32"
         transform="matrix(0.06383163,0,0,-0.06383163,82.535907,41.264652)"><path
           inkscape:connector-curvature="0"
           d="m 0,0 c 0,-35.938 -29.134,-65.072 -65.072,-65.072 -35.939,0 -65.073,29.134 -65.073,65.072 0,35.939 29.134,65.073 65.073,65.073 C -29.134,65.073 0,35.939 0,0"
           style="fill:#3b697e;fill-opacity:1;fill-rule:nonzero;stroke:none"
           id="path34" /></g><g
         id="g36"
         transform="matrix(0.06383163,0,0,-0.06383163,65.575958,25.410783)"><path
           inkscape:connector-curvature="0"
           d="m 0,0 c 0,-35.938 -29.134,-65.072 -65.073,-65.072 -35.938,0 -65.072,29.134 -65.072,65.072 0,35.939 29.134,65.073 65.072,65.073 31.447,0 57.683,-22.305 63.751,-51.958 C -0.455,8.879 0,4.493 0,0"
           style="fill:#3b697e;fill-opacity:1;fill-rule:nonzero;stroke:none"
           id="path38" /></g><g
         id="g40"
         transform="matrix(0.06383163,0,0,-0.06383163,70.821871,33.76425)"><path
           inkscape:connector-curvature="0"
           d="m 0,0 -51.367,128.413 10.729,4.292 L 0.412,30.076 46.95,137.779 h 54.769 l 49.043,121.82 44.152,-126.152 h 24.782 V 121.896 H 186.718 L 150.006,226.786 109.52,126.228 H 54.542 Z"
           style="fill:#3b697e;fill-opacity:1;fill-rule:nonzero;stroke:none"
           id="path42" /></g><g
         id="g44"
         transform="matrix(0.06383163,0,0,-0.06383163,88.37052,19.614323)"><path
           inkscape:connector-curvature="0"
           d="m 0,0 -115.521,109.745 7.959,8.376 L 7.959,8.377 Z"
           style="fill:#3b697e;fill-opacity:1;fill-rule:nonzero;stroke:none"
           id="path46" /></g><g
         id="g48"
         transform="matrix(0.06383163,0,0,-0.06383163,81.603493,38.595443)"><path
           inkscape:connector-curvature="0"
           d="m 0,0 -8.168,8.168 109.745,109.745 8.168,-8.168 z"
           style="fill:#3b697e;fill-opacity:1;fill-rule:nonzero;stroke:none"
           id="path50" /></g><g
         id="g52"
         transform="matrix(0.06383163,0,0,-0.06383163,92.047943,18.895655)"><path
           inkscape:connector-curvature="0"
           d="m 0,0 c -56.068,0 -101.682,-45.613 -101.682,-101.682 0,-56.068 45.614,-101.684 101.682,-101.684 56.068,0 101.685,45.616 101.685,101.684 C 101.685,-45.613 56.068,0 0,0 m 0,-214.918 c -62.437,0 -113.234,50.797 -113.234,113.236 0,62.437 50.797,113.234 113.234,113.234 62.439,0 113.236,-50.797 113.236,-113.234 0,-62.439 -50.797,-113.236 -113.236,-113.236"
           style="fill:#3b697e;fill-opacity:1;fill-rule:nonzero;stroke:none"
           id="path54" /></g><path
         inkscape:connector-curvature="0"
         d="m 68.220336,25.963482 h -3.025364 v -0.737446 h 3.025364 z"
         style="fill:#3b697e;fill-opacity:1;fill-rule:nonzero;stroke:none;stroke-width:0.06383163"
         id="path56" /></g><g
       transform="translate(15.876954,-13.99275)"
       id="g977"><g
         id="g58"
         transform="matrix(0.06383163,0,0,-0.06383163,56.493444,63.642936)"><path
           inkscape:connector-curvature="0"
           d="m 0,0 c -7.122,6.005 -16.68,9.009 -28.691,9.009 -10.233,0 -18.798,-1.893 -25.688,-5.672 -6.896,-3.785 -12.401,-8.788 -16.513,-15.013 -4.121,-6.23 -7.065,-13.402 -8.842,-21.519 -1.783,-8.122 -2.668,-16.513 -2.668,-25.189 0,-8.007 0.942,-15.793 2.835,-23.351 1.886,-7.565 4.837,-14.294 8.841,-20.186 4.002,-5.894 9.226,-10.624 15.679,-14.178 6.449,-3.559 14.121,-5.338 23.019,-5.338 14.011,0 24.966,3.668 32.862,11.01 7.892,7.338 12.729,17.681 14.511,31.027 h 29.027 c -3.119,-21.353 -11.067,-37.816 -23.854,-49.376 -12.793,-11.567 -30.192,-17.348 -52.21,-17.348 -13.126,0 -24.746,2.115 -34.865,6.337 -10.123,4.223 -18.572,10.229 -25.355,18.017 -6.786,7.781 -11.899,17.066 -15.346,27.856 -3.452,10.785 -5.172,22.631 -5.172,35.53 0,12.898 1.67,24.963 5.006,36.199 3.337,11.229 8.393,21.018 15.179,29.358 6.783,8.34 15.289,14.896 25.521,19.682 10.227,4.781 22.129,7.173 35.697,7.173 9.784,0 18.959,-1.168 27.524,-3.503 8.56,-2.336 16.124,-5.951 22.687,-10.841 6.557,-4.897 11.952,-11.068 16.18,-18.516 4.222,-7.454 6.89,-16.296 8.007,-26.522 H 14.011 C 11.786,-14.459 7.116,-6.004 0,0"
           style="fill:#35354d;fill-opacity:1;fill-rule:nonzero;stroke:none"
           id="path60" /></g><g
         id="g62"
         transform="matrix(0.06383163,0,0,-0.06383163,62.934956,69.01994)"><path
           inkscape:connector-curvature="0"
           d="m 0,0 c 2.778,-8.123 6.617,-14.905 11.51,-20.352 4.89,-5.452 10.618,-9.623 17.181,-12.51 6.558,-2.894 13.513,-4.338 20.851,-4.338 7.342,0 14.288,1.444 20.851,4.338 6.557,2.887 12.288,7.058 17.182,12.51 4.89,5.447 8.726,12.229 11.509,20.352 2.778,8.114 4.171,17.398 4.171,27.856 0,10.453 -1.393,19.734 -4.171,27.857 -2.783,8.117 -6.619,14.956 -11.509,20.517 -4.894,5.557 -10.625,9.785 -17.182,12.678 -6.563,2.888 -13.509,4.338 -20.851,4.338 -7.338,0 -14.293,-1.45 -20.851,-4.338 C 22.128,86.015 16.4,81.787 11.51,76.23 6.617,70.669 2.778,63.83 0,55.713 -2.783,47.59 -4.168,38.309 -4.168,27.856 -4.168,17.398 -2.783,8.114 0,0 m -28.857,63.387 c 3.556,11.008 8.892,20.569 16.013,28.691 7.116,8.114 15.899,14.511 26.357,19.182 10.452,4.67 22.461,7.006 36.029,7.006 13.789,0 25.857,-2.336 36.199,-7.006 10.342,-4.671 19.069,-11.068 26.187,-19.182 7.116,-8.122 12.455,-17.683 16.014,-28.691 3.557,-11.011 5.339,-22.853 5.339,-35.531 0,-12.677 -1.782,-24.469 -5.339,-35.364 -3.559,-10.9 -8.898,-20.408 -16.014,-28.524 -7.118,-8.12 -15.845,-14.46 -26.187,-19.016 -10.342,-4.557 -22.41,-6.839 -36.199,-6.839 -13.568,0 -25.577,2.282 -36.029,6.839 -10.458,4.556 -19.241,10.896 -26.357,19.016 -7.121,8.116 -12.457,17.624 -16.013,28.524 -3.56,10.895 -5.339,22.687 -5.339,35.364 0,12.678 1.779,24.52 5.339,35.531"
           style="fill:#35354d;fill-opacity:1;fill-rule:nonzero;stroke:none"
           id="path64" /></g><g
         id="g66"
         transform="matrix(0.06383163,0,0,-0.06383163,74.573224,61.726366)"><path
           inkscape:connector-curvature="0"
           d="m 0,0 v -36.365 h 0.666 c 6.893,14.011 15.348,24.353 25.355,31.026 10.008,6.673 22.686,9.784 38.035,9.342 v -30.025 c -11.344,0 -21.021,-1.558 -29.028,-4.671 C 27.021,-33.81 20.568,-38.364 15.681,-44.372 10.785,-50.377 7.226,-57.664 5.003,-66.224 2.778,-74.786 1.667,-84.63 1.667,-95.747 V -172.48 H -26.689 V 0 Z"
           style="fill:#35354d;fill-opacity:1;fill-rule:nonzero;stroke:none"
           id="path68" /></g><g
         id="g70"
         transform="matrix(0.06383163,0,0,-0.06383163,85.369374,61.726366)"><path
           inkscape:connector-curvature="0"
           d="m 0,0 v -25.021 h -34.363 v -107.091 c 0,-3.337 0.276,-6.005 0.832,-8.007 0.552,-2.003 1.613,-3.56 3.17,-4.671 1.554,-1.114 3.722,-1.836 6.507,-2.169 2.778,-0.333 6.39,-0.499 10.84,-0.499 H 0 v -25.022 h -21.686 c -7.341,0 -13.627,0.5 -18.851,1.501 -5.226,1 -9.453,2.836 -12.677,5.504 -3.226,2.668 -5.618,6.448 -7.173,11.344 -1.556,4.891 -2.335,11.343 -2.335,19.351 V -25.021 H -92.078 V 0 h 29.356 v 51.711 h 28.359 V 0 Z"
           style="fill:#35354d;fill-opacity:1;fill-rule:nonzero;stroke:none"
           id="path72" /></g><g
         id="g74"
         transform="matrix(0.06383163,0,0,-0.06383163,94.728437,64.963204)"><path
           inkscape:connector-curvature="0"
           d="m 0,0 c -2.562,6.004 -6.005,11.177 -10.343,15.512 -4.338,4.338 -9.456,7.784 -15.347,10.342 -5.895,2.555 -12.402,3.838 -19.518,3.838 -7.338,0 -13.957,-1.283 -19.85,-3.838 -5.893,-2.558 -10.956,-6.061 -15.178,-10.509 -4.228,-4.45 -7.565,-9.622 -10.009,-15.512 -2.448,-5.897 -3.893,-12.178 -4.335,-18.851 H 4.504 C 4.056,-12.345 2.552,-6.005 0,0 m 6.839,-110.761 c -12.903,-9.792 -29.14,-14.679 -48.71,-14.679 -13.791,0 -25.744,2.225 -35.863,6.672 -10.122,4.446 -18.631,10.675 -25.522,18.682 -6.895,8.007 -12.068,17.568 -15.512,28.691 -3.452,11.119 -5.395,23.238 -5.84,36.364 0,13.123 2.002,25.132 6.006,36.032 4.002,10.895 9.619,20.349 16.847,28.355 7.226,8.007 15.791,14.232 25.691,18.685 9.893,4.445 20.734,6.671 32.526,6.671 15.346,0 28.076,-3.168 38.199,-9.508 C 4.78,38.867 12.895,30.801 19.015,21.017 25.129,11.228 29.356,0.553 31.691,-11.011 c 2.336,-11.566 3.281,-22.577 2.838,-33.026 H -94.58 c -0.226,-7.565 0.665,-14.739 2.668,-21.52 2.002,-6.788 5.223,-12.793 9.674,-18.015 4.447,-5.23 10.119,-9.398 17.014,-12.512 6.891,-3.116 15.013,-4.67 24.354,-4.67 12.012,0 21.852,2.778 29.526,8.343 7.674,5.556 12.729,14.011 15.179,25.354 h 28.023 c -3.782,-19.35 -12.125,-33.92 -25.019,-43.704"
           style="fill:#35354d;fill-opacity:1;fill-rule:nonzero;stroke:none"
           id="path76" /></g><g
         id="g78"
         transform="matrix(0.06383163,0,0,-0.06383163,97.294546,61.726366)"><path
           inkscape:connector-curvature="0"
           d="M 0,0 H 36.366 L 77.734,-60.386 120.772,0 h 34.031 l -59.385,-79.4 66.724,-93.08 H 125.776 L 77.734,-101.086 29.693,-172.48 H -4.67 l 64.721,90.745 z"
           style="fill:#35354d;fill-opacity:1;fill-rule:nonzero;stroke:none"
           id="path80" /></g></g></g></svg>