<?xml version="1.0" encoding="UTF-8" standalone="no"?>
<!-- Generator: Adobe Illustrator 12.0.1, SVG Export Plug-In . SVG Version: 6.00 Build 51448)  -->

<svg
   xmlns:dc="http://purl.org/dc/elements/1.1/"
   xmlns:cc="http://creativecommons.org/ns#"
   xmlns:rdf="http://www.w3.org/1999/02/22-rdf-syntax-ns#"
   xmlns:svg="http://www.w3.org/2000/svg"
   xmlns="http://www.w3.org/2000/svg"
   xmlns:sodipodi="http://sodipodi.sourceforge.net/DTD/sodipodi-0.dtd"
   xmlns:inkscape="http://www.inkscape.org/namespaces/inkscape"
   version="1.0"
   id="Layer_1"
   width="64"
   height="64"
   viewBox="0 0 64 63.999998"
   overflow="visible"
   enable-background="new 0 0 436.505 152.503"
   xml:space="preserve"
   sodipodi:docname="djangoproject-icon.svg"
   style="overflow:visible"
   inkscape:version="0.92.3 (2405546, 2018-03-11)"><metadata
   id="metadata23"><rdf:RDF><cc:Work
       rdf:about=""><dc:format>image/svg+xml</dc:format><dc:type
         rdf:resource="http://purl.org/dc/dcmitype/StillImage" /><dc:title></dc:title></cc:Work></rdf:RDF></metadata><defs
   id="defs21">
	

		
		
		
		
		
		
	</defs><sodipodi:namedview
   pagecolor="#ffffff"
   bordercolor="#666666"
   borderopacity="1"
   objecttolerance="10"
   gridtolerance="10"
   guidetolerance="10"
   inkscape:pageopacity="0"
   inkscape:pageshadow="2"
   inkscape:window-width="1920"
   inkscape:window-height="1001"
   id="namedview19"
   showgrid="false"
   inkscape:zoom="6.2129872"
   inkscape:cx="52.846849"
   inkscape:cy="24.865305"
   inkscape:window-x="-9"
   inkscape:window-y="-9"
   inkscape:window-maximized="1"
   inkscape:current-layer="Layer_1" />
<g
   id="g845"
   transform="matrix(1.7342605,0,0,1.7342605,-3.21541,-18.600678)"><path
     style="fill:#092e20;stroke-width:0.25277472"
     inkscape:connector-curvature="0"
     id="path2"
     d="m 17.840085,10.725423 h 6.034238 v 27.930594 c -3.095479,0.587702 -5.368176,0.822782 -7.836521,0.822782 -7.3666138,-2.53e-4 -11.2065144,-3.330307 -11.2065144,-9.717418 0,-6.151778 4.0752339,-10.148146 10.3834794,-10.148146 0.979502,0 1.723924,0.07811 2.625318,0.313187 z m 0,14.059329 c -0.705241,-0.234827 -1.292942,-0.313187 -2.037364,-0.313187 -3.056299,0 -4.819655,1.880896 -4.819655,5.172023 0,3.213272 1.684996,4.976376 4.780475,4.976376 0.665809,0 1.214583,-0.03918 2.076544,-0.156468 z" /><path
     style="fill:#092e20;stroke-width:0.25277472"
     inkscape:connector-curvature="0"
     id="path4"
     d="M 33.473696,20.043963 V 34.03201 c 0,4.819655 -0.352621,7.13128 -1.410483,9.129717 -0.979755,1.920329 -2.272951,3.134659 -4.937196,4.467034 L 21.52276,44.964263 c 2.664498,-1.253763 3.957441,-2.350552 4.780223,-4.036054 0.862214,-1.723923 1.136727,-3.72236 1.136727,-8.972744 V 20.043963 Z M 27.43971,10.757525 h 6.033986 v 6.190959 H 27.43971 Z" /></g>
</svg>