<svg xmlns="http://www.w3.org/2000/svg" width="120" height="60"><path d="M32.722 31.087l1.743-.902v-13.71h-1.32l-3.222 4.273h-.363l.203-4.806H43.73l.203 4.81h-.387l-3.154-4.273h-1.357V30.15l1.753.926v.465h-8.068v-.454m12.575-.604v-15.2l-1.357-.543v-.28l4.9-.902h.536v7.2l.115-.115c1.172-.996 2.657-1.548 4.195-1.557 2.143 0 3.1 1.21 3.1 3.466v7.912l1.146.624v.434h-6.4v-.434l1.15-.627v-7.936c0-1.24-.543-1.736-1.557-1.736-.612-.013-1.21.184-1.696.56v9.136l1.13.624v.414h-6.403v-.414l1.16-.644m16.095-4.666c.132 2.5 1.258 4.453 3.924 4.453 1.29 0 2.204-.597 3.052-1.05v.495a5.99 5.99 0 0 1-4.707 2.191c-4.13 0-6.24-2.296-6.24-6.27 0-3.886 2.31-6.308 6.04-6.308 3.5 0 5.33 1.753 5.33 6.376v.12l-7.4-.003m-.068-.58l3.642-.22c0-3.1-.532-5.175-1.6-5.175-1.14.003-2.042 2.4-2.042 5.4v-.003M10 37.622c0-6.6 4.375-8.963 9.248-8.963 2.07 0 4.02.34 5.11.783l.095 4.612h-.465l-2.86-4.463c-.575-.23-1.193-.33-1.81-.292-2.59 0-3.917 2.995-3.873 7.902.047 5.87 1.068 8.54 3.446 8.54.487.016.972-.065 1.428-.237v-6.288l-1.57-.892v-.536h7.583v.563l-1.546.865v6.206c-1.84.652-3.78.98-5.73.973-5.538 0-9.055-2.567-9.055-8.773m15.627-3.083v-.383l5.087-.9.56.047v10.052c0 1.21.583 1.584 1.56 1.584a2.08 2.08 0 0 0 1.655-.78v-9.018l-1.397-.607v-.393l5.087-.9.512.047v11.53l1.373.577v.366l-4.99.6-.512-.047v-1.516h-.14c-1.024 1-2.4 1.575-3.822 1.607-2.445 0-3.564-1.445-3.564-3.636v-7.64l-1.41-.604m31.97-1.302l.42.047v3.73h.115c.546-2.713 1.747-3.73 3.215-3.73a1.62 1.62 0 0 1 .627.095v3.778a4.36 4.36 0 0 0-1.048-.092c-.954-.025-1.902.164-2.774.553v7.356l1.16.644v.505H52.7v-.502l1.2-.648V34.933l-1.397-.417v-.34l5.104-.94m12.795.312v-3.924l-1.397-.488v-.31l5.148-.946.488.07v16.852l1.42.515v.434l-5.087.678-.397-.047V45h-.115a4.53 4.53 0 0 1-3.391 1.421c-2.774 0-4.8-2.12-4.8-6.444 0-4.568 2.354-6.813 5.918-6.813a5.05 5.05 0 0 1 2.211.387m0 10.795v-10.09a1.88 1.88 0 0 0-1.407-.437c-1.377.047-2.228 2.126-2.228 5.833 0 3.33.6 5.196 2.445 5.13a1.81 1.81 0 0 0 1.19-.437m11.24-11.107l.44.047v11.7l1.163.644v.505h-6.613v-.502l1.187-.648V35.12l-1.42-.56v-.4l5.243-.933m.465-3.16c-.04 1.212-1.046 2.168-2.26 2.143a2.18 2.18 0 0 1-1.96-3.294 2.18 2.18 0 0 1 1.96-1.064 2.23 2.23 0 0 1 2.259 2.201v.014m14.85 14.898V35.01l-1.397-.488v-.482l5.087-.946.512.047v1.492h.14a6.7 6.7 0 0 1 4.334-1.607c2.215 0 3.19 1.048 3.19 3.39v8.536l1.187.678v.492h-6.623v-.502l1.187-.648V36.63c0-1.282-.56-1.794-1.607-1.794a2.78 2.78 0 0 0-1.747.556v9.58l1.167.644v.51H95.76v-.502l1.187-.648m-7.196-6.26v-1.672c0-2.516-.55-3.34-2.106-3.34-.176.004-.352.02-.526.047l-2.77 3.754h-.4v-3.46c1.497-.514 3.067-.786 4.65-.807 3.39 0 5.355.94 5.355 3.778v8.14l1.214.32v.32a5.2 5.2 0 0 1-2.496.573c-1.672 0-2.472-.55-2.84-1.465h-.12c-.71.96-1.716 1.51-3.296 1.51-2.014 0-3.39-1.258-3.39-3.432 0-2.106 1.306-3.25 3.96-3.754l2.754-.51m0 5.63v-5.036l-.848.068c-1.33.115-1.808.963-1.808 2.84 0 2.035.678 2.564 1.6 2.564a1.23 1.23 0 0 0 1.055-.434m-42.938-5.63v-1.672c0-2.516-.55-3.34-2.106-3.34a4.07 4.07 0 0 0-.526.047L41.4 37.5h-.387v-3.456a14.92 14.92 0 0 1 4.646-.807c3.39 0 5.355.94 5.355 3.778v8.14l1.214.32v.32a5.2 5.2 0 0 1-2.496.573c-1.672 0-2.472-.55-2.84-1.465h-.115c-.71.96-1.716 1.51-3.296 1.51-2.014 0-3.39-1.258-3.39-3.432 0-2.106 1.306-3.25 3.96-3.754l2.75-.51m0 5.63v-5.036l-.848.068c-1.33.115-1.808.963-1.808 2.84 0 2.035.678 2.564 1.6 2.564a1.23 1.23 0 0 0 1.055-.434" fill="#121212"/></svg>