<?xml version="1.0" encoding="UTF-8" standalone="no"?>
<svg
   xmlns:dc="http://purl.org/dc/elements/1.1/"
   xmlns:cc="http://creativecommons.org/ns#"
   xmlns:rdf="http://www.w3.org/1999/02/22-rdf-syntax-ns#"
   xmlns:svg="http://www.w3.org/2000/svg"
   xmlns="http://www.w3.org/2000/svg"
   xmlns:sodipodi="http://sodipodi.sourceforge.net/DTD/sodipodi-0.dtd"
   xmlns:inkscape="http://www.inkscape.org/namespaces/inkscape"
   version="1.1"
   x="0px"
   y="0px"
   width="120"
   height="60"
   viewBox="0 0 120 60"
   enable-background="new 0 0 791.74 612"
   xml:space="preserve"
   id="svg2"
   sodipodi:docname="thestreet-ar21.svg"
   inkscape:version="0.92.3 (2405546, 2018-03-11)"><metadata
   id="metadata19"><rdf:RDF><cc:Work
       rdf:about=""><dc:format>image/svg+xml</dc:format><dc:type
         rdf:resource="http://purl.org/dc/dcmitype/StillImage" /><dc:title></dc:title></cc:Work></rdf:RDF></metadata><defs
   id="defs17" /><sodipodi:namedview
   pagecolor="#ffffff"
   bordercolor="#666666"
   borderopacity="1"
   objecttolerance="10"
   gridtolerance="10"
   guidetolerance="10"
   inkscape:pageopacity="0"
   inkscape:pageshadow="2"
   inkscape:window-width="1920"
   inkscape:window-height="1001"
   id="namedview15"
   showgrid="false"
   inkscape:zoom="2.8820404"
   inkscape:cx="82.737374"
   inkscape:cy="24.010176"
   inkscape:window-x="-9"
   inkscape:window-y="-9"
   inkscape:window-maximized="1"
   inkscape:current-layer="svg2" />
<g
   id="g835"
   transform="translate(-218.24769,64.050087)"><path
     style="stroke-width:0.2063915"
     d="m 239.44282,-44.759297 h -10.34545 c -0.46845,0 -0.84968,0.379435 -0.84968,0.847884 v 1.685878 c 0,0.468449 0.38123,0.847885 0.84968,0.847885 h 2.52388 c 0.27963,0.0036 0.50891,0.230178 0.50891,0.510708 v 16.674462 c 0,0.46845 0.37943,0.84788 0.84788,0.84788 h 2.55534 c 0.46575,0 0.84789,-0.37943 0.84789,-0.84788 v -16.674462 c 0,-0.281429 0.22838,-0.507112 0.50711,-0.510708 h 2.55354 c 0.46845,0 0.84789,-0.379436 0.84789,-0.847885 v -1.685878 c 0.002,-0.468449 -0.37764,-0.847884 -0.84699,-0.847884 z"
     id="path251"
     inkscape:connector-curvature="0" /><path
     style="stroke-width:0.2063915"
     d="m 251.27094,-37.062701 c -0.46845,-1.411643 -1.71555,-2.207377 -3.14877,-2.203781 -1.31184,-0.0036 -2.20198,0.591631 -2.74146,1.08166 -0.0944,0.08452 -0.16724,0.108795 -0.17174,0.105199 l 0.004,-0.0054 c -0.0108,-0.01619 -0.0297,-0.07373 -0.0297,-0.169937 l -0.0225,-5.656458 c 0,-0.468449 -0.38303,-0.847884 -0.85148,-0.847884 h -2.13365 c -0.46845,0 -0.84968,0.379435 -0.84968,0.847884 v 19.719828 c 0,0.46846 0.38123,0.84789 0.84968,0.84789 h 2.19479 c 0.46845,0 0.84788,-0.37943 0.84788,-0.84789 v -10.396692 c 0,-0.272438 0,-0.361452 0.0548,-0.588034 0.0935,-0.300311 0.32639,-0.911723 1.17877,-0.913521 0.45856,0.0018 0.86587,0.212196 1.0394,0.586236 0.0998,0.250858 0.1052,0.490028 0.1034,1.12212 v 10.189001 h 0.002 c 0,0.46845 0.37943,0.84788 0.84788,0.84788 h 2.19479 c 0.46845,0 0.84788,-0.37943 0.84788,-0.84788 v -11.29224 c 0,-0.787642 -0.0935,-1.205739 -0.21579,-1.577981 z"
     id="path253"
     inkscape:connector-curvature="0" /><path
     style="stroke-width:0.2063915"
     d="m 256.95707,-30.2086 h 4.70248 c 0.46845,0 0.84968,-0.38123 0.84968,-0.849678 v -3.681059 c 0.004,-1.175169 -0.15825,-1.702062 -0.43698,-2.25503 -0.47564,-0.985452 -1.91246,-2.270316 -4.44802,-2.272115 -1.82794,-0.0036 -3.87797,0.66536 -4.66741,2.551746 -0.37404,0.847884 -0.39832,1.873797 -0.40011,2.126454 v 6.448592 c 0,0.19692 0.0575,1.26599 0.27423,2.04554 0.4181,1.41703 1.5591,3.05076 4.72226,3.05076 h 0.0405 c 2.05093,0.005 4.07758,-0.6213 4.70158,-2.87094 0.15645,-0.52689 0.15645,-0.88475 0.15645,-1.41883 v -0.61141 c -0.005,-0.44597 -0.39472,-0.78315 -0.84789,-0.78315 h -2.0761 c -0.46845,0 -0.84159,0.38303 -0.85148,0.84609 -0.005,0.37404 -0.0387,0.81281 -0.107,0.99714 -0.17173,0.48463 -0.46845,0.71661 -0.97466,0.722 -0.27783,-0.005 -0.85328,-0.0683 -1.06278,-0.74268 -0.0809,-0.24277 -0.0845,-0.4235 -0.0809,-0.96388 l -0.004,-1.83333 c 0.002,-0.27963 0.22838,-0.50622 0.50981,-0.50622 z m -0.51071,-4.55861 c 0,-0.187919 0.0144,-0.543077 0.16185,-0.8308 0.14925,-0.284127 0.39202,-0.516104 0.98545,-0.521499 0.53768,0.0054 0.76426,0.205902 0.90273,0.458559 0.13487,0.258052 0.15285,0.589833 0.15106,0.79034 v 1.304645 c 0,0.281429 -0.22659,0.507112 -0.50892,0.507112 h -1.18056 c -0.28143,0 -0.50711,-0.226582 -0.51071,-0.507112 v -1.201245 z"
     id="path255"
     inkscape:connector-curvature="0" /><path
     style="stroke-width:0.2063915"
     d="m 280.86867,-33.137078 c -0.64828,-0.864069 -1.49077,-1.492564 -1.77579,-1.682282 l -3.75659,-2.595802 c -0.4163,-0.294917 -0.67795,-0.506213 -0.76426,-0.642882 -0.34257,-0.481037 -0.39472,-1.380172 -0.39383,-1.754212 0,-0.09441 0.004,-0.152853 0.004,-0.178928 0.0333,-1.702063 0.71121,-1.888184 1.56449,-1.92325 1.40625,0.02428 1.53303,0.764265 1.5591,1.354097 v 1.470086 c 0,0.468449 0.37944,0.851481 0.84789,0.851481 h 2.52387 c 0.46845,0 0.84788,-0.383032 0.84788,-0.851481 v -1.408045 c 0.005,-1.022317 -0.13127,-1.299251 -0.33717,-1.822547 -1.16977,-2.903307 -4.63594,-2.881728 -5.26353,-2.885324 -0.4253,0.0054 -4.10725,-0.02608 -5.38223,2.665935 -0.50261,1.037602 -0.5215,2.365624 -0.52329,2.844863 0,0.05305 0.002,0.09441 0.002,0.121383 -0.002,1.807262 0.30931,2.665936 0.76877,3.432898 0.54757,0.886547 1.00613,1.248898 1.81625,1.785682 l 3.67207,2.478016 c 0.15824,0.121383 0.57454,0.374041 0.84788,0.788542 0.34797,0.517898 0.39202,1.213828 0.39022,1.608548 0,0.0998 0,0.17893 0,0.23738 0.007,1.44221 -0.0297,2.32156 -0.50441,2.67133 -0.23917,0.21039 -0.57455,0.35336 -1.23811,0.35336 -0.57095,0 -0.88655,-0.13667 -1.10324,-0.27424 -0.55836,-0.35336 -0.60961,-0.98545 -0.60961,-1.67689 0,-0.10879 0,-0.21939 0,-0.32458 v -1.7704 c 0,-0.46845 -0.37944,-0.847886 -0.84789,-0.847886 h -2.4915 c -0.47025,0 -0.84968,0.379436 -0.84968,0.847886 v 2.39529 c -0.004,1.20844 0.19151,1.65082 0.42889,2.24065 0.15645,0.34257 0.44237,0.94859 1.15898,1.50515 1.30105,1.02232 2.92758,1.22912 4.43454,1.22912 v 0 c 3.6298,0.0162 5.14215,-1.58068 5.62678,-3.34748 0.21579,-0.8362 0.21579,-1.54202 0.21579,-3.15057 0,-0.24097 0.002,-0.46845 0.002,-0.68874 0.005,-1.114026 -0.0674,-2.003271 -0.86946,-3.056158 z"
     id="path259"
     inkscape:connector-curvature="0" /><path
     style="stroke-width:0.2063915"
     d="m 289.74044,-25.95659 c -0.063,-0.13666 -0.16724,-0.27603 -0.35606,-0.28412 -0.018,0 -0.0279,0.004 -0.0387,0.005 -0.0881,0.0108 -0.17892,0.0162 -0.27423,0.0162 -0.6213,-0.005 -1.18866,-0.1106 -1.35949,-0.71302 -0.0845,-0.22658 -0.0845,-0.30031 -0.0845,-0.78854 v -8.039165 c 0,-0.279631 0.22838,-0.507112 0.51071,-0.510708 h 0.75887 c 0.46844,0 0.84788,-0.379435 0.84788,-0.847885 v -0.997141 c 0,-0.472045 -0.37944,-0.85148 -0.84788,-0.85148 h -0.75887 c -0.28233,0 -0.51071,-0.226583 -0.51071,-0.507113 v -2.969843 c 0,-0.468449 -0.38303,-0.847884 -0.84789,-0.847884 h -2.16511 c -0.46845,0 -0.84789,0.379435 -0.84789,0.847884 v 2.969843 c 0,0.28143 -0.23018,0.507113 -0.51071,0.507113 h -0.55297 c -0.46754,0 -0.84788,0.379435 -0.84788,0.85148 v 0.997141 c 0,0.46845 0.38123,0.847885 0.84788,0.847885 h 0.58444 c 0.27963,0.0036 0.50712,0.231976 0.50712,0.510708 v 9.203545 c 0,0.60062 0.0261,1.2525 0.31469,1.83334 0.48643,1.06907 1.65441,1.53122 3.70893,1.53122 h 0.0279 c 0.49003,0 0.86766,-0.0243 1.17337,-0.0611 0.47384,-0.0683 0.81282,-0.50621 0.81821,-0.96926 v -1.20664 c -0.003,-0.20321 -0.0342,-0.38214 -0.0971,-0.5278 z"
     id="path261"
     inkscape:connector-curvature="0" /><path
     style="stroke-width:0.2063915"
     d="m 298.45575,-38.421294 c -0.0126,-0.421695 -0.33718,-0.797533 -0.77595,-0.80113 -0.0297,0 -0.0566,0 -0.0827,0.0054 -0.70583,0.07193 -1.65621,0.374041 -2.3935,1.363089 -0.0845,0.110594 -0.15825,0.217591 -0.22119,0.318294 l 0.0108,-0.589833 v -0.0054 c -0.005,-0.463954 -0.37405,-0.834397 -0.84159,-0.837994 h -2.193 c -0.46845,0 -0.84788,0.379435 -0.84788,0.851481 v 13.925807 c 0,0.46845 0.37943,0.84788 0.84788,0.84788 h 2.16512 c 0.46845,0 0.84788,-0.37943 0.84788,-0.84788 v -8.335884 c 0,-0.06114 0,-0.119585 0,-0.17713 0,-0.980057 0.0369,-1.996979 0.88475,-2.581417 0.48463,-0.320991 1.0394,-0.326386 1.2453,-0.326386 0.23198,0 0.4145,0.02068 0.56376,0.04766 l 0.0315,-0.165441 v 0 l -0.0315,0.165441 c 0.053,0.01079 0.1034,0.01618 0.15645,0.01618 0.16904,0 0.33178,-0.05934 0.44417,-0.184323 0.11599,-0.121383 0.17354,-0.294916 0.17354,-0.486432 l 0.0189,-2.194789 -0.003,-0.0072 z"
     id="path263"
     inkscape:connector-curvature="0" /><path
     style="stroke-width:0.2063915"
     d="m 303.3902,-30.2086 h 4.70158 c 0.46845,0 0.85148,-0.38123 0.85148,-0.849678 v -3.681059 c 0,-1.175169 -0.15825,-1.702062 -0.43698,-2.25503 -0.47744,-0.985452 -1.91605,-2.272115 -4.45162,-2.272115 -1.82614,0 -3.87617,0.668957 -4.66561,2.551746 -0.37404,0.847884 -0.40011,1.873797 -0.40011,2.126454 v 6.448592 c 0,0.19692 0.0575,1.26599 0.27423,2.04554 0.4199,1.42243 1.56809,3.06065 4.76272,3.05076 0.0144,0 0.0297,0 0.0405,0 2.03924,0 4.04072,-0.63748 4.66292,-2.87094 0.15285,-0.52689 0.15465,-0.88475 0.15285,-1.41883 v -0.61501 c 0,-0.44237 -0.39022,-0.77955 -0.84788,-0.77955 h -2.07611 c -0.46845,0 -0.83799,0.38303 -0.84788,0.84609 -0.009,0.37404 -0.0405,0.81281 -0.1088,0.99714 -0.16993,0.48463 -0.47024,0.71661 -0.97466,0.722 -0.27603,-0.005 -0.85328,-0.0683 -1.06098,-0.74268 -0.0827,-0.24277 -0.0845,-0.4235 -0.0845,-0.96567 v -1.83154 c -0.002,-0.27963 0.22658,-0.50622 0.50891,-0.50622 z m 0.63479,-5.910909 c 0.54128,0.0054 0.76247,0.205902 0.90094,0.458559 0.13667,0.258052 0.15285,0.589833 0.15285,0.79034 0,0.04226 0,0.07373 0,0.1034 v 1.203043 c 0,0.279631 -0.22838,0.506213 -0.51071,0.506213 h -1.17697 c -0.28233,0 -0.51071,-0.226582 -0.51071,-0.506213 v -1.203043 c 0,-0.187919 0.0108,-0.543077 0.15825,-0.8308 0.14836,-0.284127 0.39382,-0.516104 0.98635,-0.521499 z"
     id="path265"
     inkscape:connector-curvature="0" /><path
     style="stroke-width:0.2063915"
     d="m 314.36505,-30.2086 h 4.70157 c 0.46845,0 0.84789,-0.38123 0.84789,-0.849678 v -3.681059 c 0.004,-1.175169 -0.15825,-1.702062 -0.43339,-2.25503 -0.47744,-0.985452 -1.91246,-2.270316 -4.45161,-2.272115 -1.82615,0 -3.87618,0.66536 -4.66561,2.551746 -0.37405,0.847884 -0.39652,1.873797 -0.40012,2.126454 v 6.448592 c 0.004,0.19692 0.0575,1.26599 0.27783,2.04554 0.4163,1.42243 1.5645,3.06425 4.75733,3.05076 h 0.0423 c 2.03564,0 4.04071,-0.63748 4.66291,-2.87094 0.15285,-0.52689 0.15285,-0.88475 0.15285,-1.41883 v -0.61501 c -0.004,-0.44237 -0.39382,-0.77955 -0.84788,-0.77955 h -2.0761 c -0.46845,0 -0.84159,0.38303 -0.84789,0.84609 -0.009,0.37404 -0.0405,0.81281 -0.10879,0.99714 -0.17354,0.48463 -0.47025,0.71661 -0.97647,0.722 -0.27423,-0.005 -0.85327,-0.0683 -1.05918,-0.74268 -0.0827,-0.24277 -0.0845,-0.4235 -0.0845,-0.96388 v -1.82974 c -8.2e-4,-0.28322 0.22569,-0.50981 0.50892,-0.50981 z m 0.63209,-5.910909 c 0.53948,0.0054 0.76426,0.205902 0.90273,0.458559 0.13667,0.258052 0.15285,0.589833 0.15285,0.79034 -0.002,0.04226 -0.002,0.07373 0,0.1034 v 1.203043 c -0.002,0.279631 -0.22838,0.506213 -0.51071,0.506213 h -1.17696 c -0.28233,0 -0.50892,-0.226582 -0.51071,-0.506213 v -1.203043 c 0,-0.187919 0.0108,-0.543077 0.15825,-0.8308 0.15195,-0.284127 0.39382,-0.516104 0.98455,-0.521499 z"
     id="path267"
     inkscape:connector-curvature="0" /><path
     style="stroke-width:0.2063915"
     d="m 328.14879,-25.95659 c -0.0593,-0.13666 -0.16544,-0.27603 -0.35516,-0.28412 -0.0162,0 -0.0297,0.004 -0.0369,0.004 -0.0899,0.0126 -0.18252,0.018 -0.27783,0.018 -0.6231,-0.005 -1.18686,-0.1106 -1.35949,-0.71302 -0.0845,-0.22658 -0.0809,-0.30031 -0.0845,-0.78854 v -8.039165 c 0,-0.279631 0.23018,-0.507112 0.51071,-0.510708 h 0.75887 c 0.47204,0 0.85148,-0.379435 0.85148,-0.847885 v -0.997141 c 0,-0.472045 -0.37944,-0.85148 -0.85148,-0.85148 h -0.75887 c -0.28143,0 -0.51071,-0.226583 -0.51071,-0.507113 v -2.969843 c 0,-0.468449 -0.37943,-0.847884 -0.84789,-0.847884 h -2.16511 c -0.46845,0 -0.84789,0.379435 -0.84789,0.847884 v 2.969843 c 0,0.28143 -0.22838,0.507113 -0.51071,0.507113 h -0.54937 c -0.46845,0 -0.85148,0.379435 -0.85148,0.85148 v 0.997141 c 0,0.46845 0.38303,0.847885 0.85148,0.847885 h 0.57995 c 0.28142,0.0036 0.5107,0.231976 0.5107,0.510708 v 9.203545 c 0,0.60062 0.0261,1.2525 0.3129,1.83154 0.49003,1.07087 1.65441,1.53302 3.70893,1.53302 0.0108,0 0.0189,0 0.0297,0 0.49003,0 0.86586,-0.0243 1.17517,-0.0629 0.47384,-0.0665 0.81101,-0.50442 0.81641,-0.96747 v -1.20664 c -8.3e-4,-0.20321 -0.036,-0.38214 -0.0989,-0.5278 z m -5.47574,1.15899 z"
     id="path269"
     inkscape:connector-curvature="0" /></g>
</svg>