<?xml version="1.0" encoding="UTF-8" standalone="no"?>
<svg
   xmlns:dc="http://purl.org/dc/elements/1.1/"
   xmlns:cc="http://creativecommons.org/ns#"
   xmlns:rdf="http://www.w3.org/1999/02/22-rdf-syntax-ns#"
   xmlns:svg="http://www.w3.org/2000/svg"
   xmlns="http://www.w3.org/2000/svg"
   xmlns:sodipodi="http://sodipodi.sourceforge.net/DTD/sodipodi-0.dtd"
   xmlns:inkscape="http://www.inkscape.org/namespaces/inkscape"
   width="32"
   height="32"
   viewBox="0 0 32 32"
   version="1.1"
   preserveAspectRatio="xMidYMid"
   id="svg2"
   inkscape:version="0.91 r13725"
   sodipodi:docname="graphcool-icon.svg">
  <metadata
     id="metadata12">
    <rdf:RDF>
      <cc:Work
         rdf:about="">
        <dc:format>image/svg+xml</dc:format>
        <dc:type
           rdf:resource="http://purl.org/dc/dcmitype/StillImage" />
        <dc:title></dc:title>
      </cc:Work>
    </rdf:RDF>
  </metadata>
  <defs
     id="defs10" />
  <sodipodi:namedview
     pagecolor="#ffffff"
     bordercolor="#666666"
     borderopacity="1"
     objecttolerance="10"
     gridtolerance="10"
     guidetolerance="10"
     inkscape:pageopacity="0"
     inkscape:pageshadow="2"
     inkscape:window-width="1335"
     inkscape:window-height="810"
     id="namedview8"
     showgrid="false"
     inkscape:zoom="21.03125"
     inkscape:cx="16"
     inkscape:cy="16"
     inkscape:window-x="75"
     inkscape:window-y="34"
     inkscape:window-maximized="0"
     inkscape:current-layer="svg2" />
  <g
     id="g4"
     transform="matrix(0.10689381,0,0,0.10689381,2.4,2.0046784e-7)">
    <path
       d="m 241.98232,98.902328 c -14.55311,-8.195955 -32.84424,2.497812 -35.77568,4.336482 l -62.83509,35.63723 c -9.27708,-7.36841 -22.4942,-7.05538 -31.41207,0.74393 -8.91787,7.79932 -10.98906,20.85701 -4.92244,31.03319 6.06663,10.17618 18.53811,14.56396 29.63998,10.42809 11.10188,-4.13586 17.66284,-15.61394 15.59292,-27.27904 l 62.66163,-35.55916 0.38161,-0.23417 c 4.11962,-2.60189 13.67715,-6.49606 18.14368,-3.97222 3.21765,1.81265 5.0563,7.88372 5.20374,16.82555 l -0.0781,0 0,78.60311 c -0.013,7.33218 -3.92424,14.10423 -10.2687,17.77958 l -90.07664,52.03781 c -6.35495,3.65466 -14.17378,3.65466 -20.52873,0 L 27.631829,227.2449 C 21.28737,223.56955 17.376134,216.7975 17.363127,209.46532 l 0,-104.03225 C 17.376134,98.100888 21.28737,91.328841 27.631829,87.653489 L 109.157,40.602639 c 7.75649,8.89838 20.75521,11.000894 30.92135,5.001462 10.16614,-5.999432 14.60914,-18.394975 10.56901,-29.486527 C 146.60724,5.0260216 135.23272,-1.6078489 123.58966,0.33691806 111.9466,2.281685 103.34549,12.252129 103.12934,24.054616 L 19.002303,72.623236 C 7.2716666,79.389749 0.03153692,91.890732 0,105.43307 L 0,209.4393 c 0.01281456,13.53604 7.2289683,26.04217 18.941593,32.82718 l 90.076637,52.03781 c 11.72414,6.7443 26.15038,6.7443 37.87452,0 l 90.07664,-52.03781 c 11.70459,-6.78035 18.91951,-19.27442 18.94159,-32.80116 l 0,-75.61093 0.0607,0 C 256.414,116.11817 251.66992,104.3663 241.98231,98.902328 Z"
       id="path6"
       inkscape:connector-curvature="0"
       style="fill:#27ae60" />
  </g>
</svg>
