<svg xmlns="http://www.w3.org/2000/svg" width="120" height="62" fill="#010001"><path d="M47.393 25.732l-.183-1.105.183 1.105zm8.61-15.77c1.552-.52 2.902-.832 4.122-.96l2.833-.185c.787 0 1.37.067 2.036.176l.19-1.198s-1.842-.566-4.26-.368l-.2-.652a1.66 1.66 0 0 0-.345-3.284 1.66 1.66 0 0 0-.346 3.283l.21.725c-2.567.355-4.61 1.358-4.61 1.358zm-7.285 4.903l.177-.22-.49-.356-.768-.56c-.045.062-1.25 1.17-2.2 3.22a1.41 1.41 0 0 0-.142-.187c-.285-.315-.685-.47-1.19-.463h-.022c-.316 0-.53-.107-.673-.233.14-.18.225-.403.225-.65a1.05 1.05 0 1 0-2.103 0 1.05 1.05 0 0 0 1.312 1.018c.26.288.672.538 1.27.528.308-.005.533.074.687.244.175.19.233.465.25.672l-.003.008c-.686 1.87-.49 4.196-.49 4.196l1.66.066c.034-.848.156-2.33.584-3.507.828-2.275 1.863-3.703 1.906-3.763zm28.698-4.66a1.05 1.05 0 0 0-1.051 1.051c0 .088.012.176.034.26-.287.26-.537.672-.528 1.27.005.308-.075.533-.244.687-.132.12-.303.185-.464.22-1.238-1.73-2.76-2.79-2.76-2.79l-1.19 1.28c.902.82 1.82 1.847 2.718 3.13.618.883 1.252 2.027 1.785 3.164l1.6-.763s-.735-1.817-1.77-3.444c.18-.064.362-.16.52-.303.315-.285.47-.686.463-1.19-.005-.328.104-.55.233-.695.185.146.413.225.648.225a1.05 1.05 0 1 0 0-2.102z"/><path d="M73.24 24.665c-2.214 1.078-5.862 2.503-10.657 3.17-1.883.262-3.7.36-5.39.36-2.183 0-4.1-.168-5.58-.35a38.47 38.47 0 0 1-3.803-.655c0-.001-.02-.001-.022-.001.196.62.424 1.224.698 1.8.004.008.002.015.006.023.007.014.012.028.02.043l.102.21.1.198.027.05c.476.897 1.046 1.72 1.698 2.434 2.26 2.477 4.567 2.866 4.6 2.87l.036.006.035.012c.02.006 2.064.668 5.173.668 3.057 0 6.057-.616 8.915-1.832 2.117-1.083 4.122-2.73 5.11-4.198.77-1.134 1.325-2.347 1.653-3.605.175-.672.31-1.738.232-2.866-.625.416-1.6 1.016-2.943 1.665zM47.89 27.54a13.41 13.41 0 0 0 .206.568 14.16 14.16 0 0 1-.206-.568zm14.51-1.02c4.6-.64 8.092-2 10.213-3.027 1.763-.854 2.894-1.627 3.333-1.946-.436-1.616-1.638-4.153-2.742-5.73-3.15-4.503-6.546-5.66-8.29-5.947-.666-.1-1.2-.174-1.953-.174-.702 0-1.572.057-2.74.18s-2.47.43-3.98.935c-2.12.7-4.035 1.823-5.543 3.22l-.05.047c-.445.406-.855.848-1.226 1.322-.066.092-1.05 1.453-1.808 3.538-.57 1.564-.566 3.844-.566 3.867v.006c0 .532.053 1.063.112 1.6.001.008.015.015.015.025.008.066.022.13.03.197a15 15 0 0 0 .189 1.106c1.1.278 7.668 1.8 15.008.788zm6.3-12.165a2.74 2.74 0 0 1 2.739 2.739 2.74 2.74 0 0 1-2.739 2.739 2.74 2.74 0 0 1-2.739-2.739 2.74 2.74 0 0 1 2.739-2.739zm-17.377 4.316a4.43 4.43 0 0 1 4.427-4.426 4.43 4.43 0 0 1 4.427 4.426 4.43 4.43 0 0 1-4.427 4.426 4.43 4.43 0 0 1-4.427-4.426zM28.378 38.943c.192-.342.574-.497 1.137-.497.22 0 .472.028.79.07l.62.07a.9.9 0 0 0 .69-.319c.192-.192.277-.47.277-.746 0-.9-.91-1.378-2.785-1.378-1.03 0-1.875.122-2.466.397-.59.248-.996.69-1.245 1.28s-.335 1.38-.335 2.374v1h-.816c-1.06 0-1.598.353-1.627 1.113 0 .342.122.63.37.85s.62.33 1.088.33h.832v8.398c0 .62.14 1.088.46 1.435s.698.497 1.14.497a1.48 1.48 0 0 0 1.163-.497c.277-.32.446-.81.446-1.435v-8.398h.787c.567 0 1.03-.117 1.336-.24.342-.15.497-.447.497-.986 0-.718-.59-1.066-1.805-1.066h-.815v-.808c0-.628.112-1.097.262-1.444zm11.852 3.793c0-.567-.32-1.008-.938-1.336s-1.28-.497-1.94-.497-1.186.15-1.6.497c-.397.32-.81.81-1.186 1.472 0-.62-.15-1.13-.37-1.472-.248-.342-.622-.497-1.16-.497-1.03 0-1.56.718-1.56 2.152v8.875c0 .62.153 1.13.444 1.435.277.342.663.497 1.13.497s.84-.15 1.16-.47c.32-.342.47-.81.47-1.472v-2.658a38.72 38.72 0 0 1 .069-2.438c.07-.66.192-1.252.342-1.72.15-.497.37-.84.69-1.088s.69-.37 1.158-.37c.342 0 .745.07 1.186.22s.717.22.84.22c.32 0 .59-.122.867-.37.275-.267.397-.61.397-.98zm10.943 5.052c.47-.25.69-.76.69-1.57 0-.84-.22-1.7-.66-2.543a5.16 5.16 0 0 0-1.997-2.03c-.9-.54-1.97-.79-3.212-.79-.966 0-1.847.15-2.616.468-.81.277-1.472.745-1.997 1.308-.54.567-.938 1.252-1.214 2.067s-.397 1.683-.397 2.616c0 1.997.59 3.596 1.72 4.754 1.158 1.158 2.714 1.75 4.782 1.75.9 0 1.683-.122 2.372-.342s1.252-.54 1.72-.867c.47-.342.81-.718 1.03-1.088s.342-.718.342-1.008a.97.97 0 0 0-.319-.745c-.192-.192-.47-.277-.788-.277-.277 0-.54.07-.69.22-.397.37-.718.66-.966.868-.256.225-.527.432-.81.62-.277.192-.59.32-.9.397-.32.084-.66.122-1.032.122-.567 0-1.088-.122-1.556-.397s-.84-.663-1.13-1.225a4.39 4.39 0 0 1-.441-1.877h6.245c.797 0 1.458-.153 1.832-.43zm-8.088-1.403c.122-1.07.44-1.916.938-2.45a2.67 2.67 0 0 1 1.969-.818c.81 0 1.5.286 1.997.82s.788 1.38.867 2.448h-5.77zm21.3 1.403c.47-.25.69-.76.69-1.57 0-.84-.22-1.7-.66-2.543a5.16 5.16 0 0 0-1.997-2.03c-.91-.54-1.97-.79-3.212-.79-.966 0-1.847.15-2.616.468-.788.277-1.434.745-1.97 1.308s-.938 1.252-1.214 2.067-.397 1.683-.397 2.616c0 1.997.59 3.596 1.72 4.754 1.158 1.16 2.713 1.75 4.78 1.75.9 0 1.683-.122 2.372-.342s1.252-.54 1.72-.867c.47-.342.81-.718 1.032-1.088s.342-.718.342-1.008a.97.97 0 0 0-.319-.745c-.192-.192-.47-.277-.788-.277-.277 0-.54.07-.69.22a24.46 24.46 0 0 1-.966.868c-.256.225-.527.432-.81.62-.277.192-.59.32-.9.397-.32.098-.66.122-1.03.122-.567 0-1.088-.122-1.557-.397s-.84-.663-1.13-1.225a4.42 4.42 0 0 1-.441-1.877h6.24c.834 0 1.466-.153 1.8-.43zm-8.06-1.403c.122-1.07.44-1.916.938-2.45a2.67 2.67 0 0 1 1.969-.818c.81 0 1.5.286 1.997.82s.81 1.38.867 2.448h-5.772zm19.984-4.756c-.84-.497-1.75-.746-2.714-.746-.81 0-1.548.192-2.21.54S70.1 42.29 69.5 43.05v-.37c0-.567-.102-1.008-.35-1.38-.277-.32-.65-.47-1.078-.47-.47 0-.804.122-1.08.44s-.39.786-.39 1.378v13.725c0 .717.096 1.214.274 1.598.192.342.623.54 1.22.54 1.03 0 1.56-.69 1.56-2.096v-4.784c.458.717 1.125 1.252 1.743 1.627.59.37 1.362.567 2.258.567.745 0 1.464-.122 2.115-.44s1.248-.717 1.717-1.28.837-1.252 1.128-2.068c.277-.84.398-1.75.398-2.715 0-1.336-.25-2.494-.718-3.474-.502-.966-1.163-1.7-1.974-2.222zm-.895 7.966c-.277.59-.66 1.06-1.088 1.38-.44.32-.938.47-1.472.47-.867 0-1.627-.342-2.218-1.06s-.9-1.683-.9-2.963c0-1.336.32-2.372.9-3.057s1.336-1.03 2.218-1.03c.54 0 1.032.15 1.5.47.44.32.81.788 1.06 1.378s.37 1.308.37 2.152c0 .835-.122 1.576-.37 2.265zm6.81-13.297c-.44 0-.81.15-1.13.44a1.47 1.47 0 0 0-.497 1.13c0 .497.15.867.47 1.158.32.277.69.397 1.13.397s.81-.15 1.13-.397c.32-.277.47-.66.47-1.158s-.15-.867-.47-1.158-.703-.413-1.102-.413zm-.072 4.6c-.47 0-.812.15-1.102.47-.275.342-.413.81-.413 1.435v9.123c0 .62.122 1.088.413 1.435.277.342.647.497 1.114.497s.864-.192 1.183-.497.495-.81.495-1.434v-9.222c0-.567-.183-1.008-.5-1.336-.305-.32-.72-.47-1.2-.47zM97.238 51.57l-.54-.867-3.277-5.13 1.683-1.557c.84-.788 1.28-1.407 1.28-1.875 0-.37-.15-.69-.397-.938-.275-.25-.59-.37-1.008-.37-.32 0-.62.1-.84.25-.25.192-.602.497-1.042.966l-3.608 3.744v-7.717c0-.62-.14-1.13-.43-1.472-.277-.342-.656-.497-1.153-.497s-.9.192-1.19.567c-.277.37-.432.91-.432 1.627v13.587c0 .62.158 1.13.435 1.435.277.342.68.497 1.176.497.44 0 .81-.15 1.13-.497.32-.32.467-.788.467-1.407V49.38l1.73-1.627 2.818 4.618c.342.567.622.938.94 1.06.22.22.54.32.91.32.47 0 .812-.15 1.09-.44.277-.277.4-.69.4-1.186.014-.182-.042-.36-.14-.553z"/></svg>