<?xml version="1.0" encoding="UTF-8" standalone="no"?>
<svg
   xmlns:dc="http://purl.org/dc/elements/1.1/"
   xmlns:cc="http://creativecommons.org/ns#"
   xmlns:rdf="http://www.w3.org/1999/02/22-rdf-syntax-ns#"
   xmlns:svg="http://www.w3.org/2000/svg"
   xmlns="http://www.w3.org/2000/svg"
   xmlns:sodipodi="http://sodipodi.sourceforge.net/DTD/sodipodi-0.dtd"
   xmlns:inkscape="http://www.inkscape.org/namespaces/inkscape"
   viewBox="0 0 120 60"
   version="1.1"
   id="svg4"
   sodipodi:docname="drupal-ar21.svg"
   width="120"
   height="60"
   inkscape:version="0.92.4 (5da689c313, 2019-01-14)">
  <metadata
     id="metadata10">
    <rdf:RDF>
      <cc:Work
         rdf:about="">
        <dc:format>image/svg+xml</dc:format>
        <dc:type
           rdf:resource="http://purl.org/dc/dcmitype/StillImage" />
        <dc:title></dc:title>
      </cc:Work>
    </rdf:RDF>
  </metadata>
  <defs
     id="defs8" />
  <sodipodi:namedview
     pagecolor="#ffffff"
     bordercolor="#666666"
     borderopacity="1"
     objecttolerance="10"
     gridtolerance="10"
     guidetolerance="10"
     inkscape:pageopacity="0"
     inkscape:pageshadow="2"
     inkscape:window-width="1920"
     inkscape:window-height="1001"
     id="namedview6"
     showgrid="false"
     inkscape:zoom="5.2149125"
     inkscape:cx="70.508475"
     inkscape:cy="64"
     inkscape:window-x="-9"
     inkscape:window-y="-9"
     inkscape:window-maximized="1"
     inkscape:current-layer="svg4" />
  <g
     id="g29"
     transform="translate(2.1654018,2)">
    <path
       sodipodi:nodetypes="cccccssscccccscscccccsccccscccccsccccsscc"
       style="fill:#0073ba;stroke-width:0.42023528"
       inkscape:connector-curvature="0"
       id="path2"
       d="m 29.766303,16.023715 c -1.94653,-1.21322 -3.783799,-1.690187 -5.620227,-2.902565 -1.139258,-0.771132 -2.718502,-2.6084 -4.041823,-4.188065 -0.256764,2.534438 -1.028316,3.563175 -1.909969,4.298166 -1.873829,1.469563 -3.049648,1.91081 -4.665872,2.792884 -1.359462,0.69759 -8.7438357,5.105859 -8.7438357,14.583845 0,9.479247 7.9722837,16.458935 16.8257997,16.458935 8.854778,0 16.532897,-6.42918 16.532897,-16.16477 0,-9.735591 -7.200732,-14.143859 -8.37697,-14.87843 z m 0.213059,27.585924 c -0.184063,0.184063 -1.874249,1.359041 -3.85776,1.543104 -1.984351,0.184063 -4.665872,0.294165 -6.282517,-1.175398 -0.256764,-0.257184 -0.183223,-0.624469 0,-0.771132 0.184063,-0.147502 0.331145,-0.257604 0.551348,-0.257604 0.220204,0 0.184064,0 0.294165,0.07354 0.734151,0.587489 1.836428,1.065297 4.187645,1.065297 2.352057,0 4.004842,-0.66145 4.738993,-1.212379 0.331566,-0.257184 0.477808,-0.03656 0.514368,0.110522 0.03698,0.146662 0.110522,0.366865 -0.146242,0.62405 z m -6.43002,-3.343392 c 0.404687,-0.367285 1.066137,-0.954774 1.690186,-1.212378 0.62405,-0.256764 0.955615,-0.220204 1.543104,-0.220204 0.587489,0 1.211959,0.03614 1.653626,0.330726 0.440827,0.293324 0.698011,0.954774 0.844673,1.32248 0.147082,0.367286 0,0.587069 -0.293324,0.734151 -0.257184,0.147503 -0.294165,0.07354 -0.551349,-0.403426 -0.257184,-0.478228 -0.478228,-0.955615 -1.763727,-0.955615 -1.28634,0 -1.689766,0.441247 -2.314656,0.955615 -0.62447,0.514368 -0.844673,0.698011 -1.064876,0.403426 -0.220624,-0.293324 -0.147503,-0.587489 0.256343,-0.954775 z m 9.736431,0.294165 c -1.32248,-0.110102 -3.968281,-4.225045 -5.658468,-4.298587 -2.130172,-0.07354 -6.759904,4.445249 -10.396621,4.445249 -2.203713,0 -2.865584,-0.330305 -3.600155,-0.808112 -1.102277,-0.771552 -1.653206,-1.947371 -1.616645,-3.563595 0.0374,-2.865585 2.718922,-5.547526 6.098454,-5.584507 4.298587,-0.03572 7.274273,4.262446 9.442267,4.225466 1.836848,-0.03656 5.363883,-3.636716 7.090209,-3.636716 1.836849,0 2.352057,1.910389 2.352057,3.049227 0,1.138837 -0.368126,3.195889 -1.24978,4.481389 -0.882073,1.28592 -1.433002,1.763307 -2.461318,1.690186 z" />
    <path
       sodipodi:nodetypes="cccsscccscccccccccccccccscccccccccccsssccssscsccsssccccssssssccsssscccss"
       style="fill:#0073ba;stroke-width:0.60910064"
       inkscape:connector-curvature="0"
       id="path2-4"
       d="m 80.342488,26.187048 h -3.050985 l 0.0058,5.707881 c 0,1.668327 -0.715688,3.018095 -2.383412,3.018095 -1.668322,0 -2.390106,-1.349767 -2.390106,-3.018094 v -5.7024 h -3.043071 l -6.06e-4,5.7024 c 0,3.296453 2.119062,5.967968 5.41612,5.967968 3.295239,0 5.445359,-2.671515 5.445359,-5.967968 z m 27.506372,-3.477965 h 3.03576 v 14.85901 h -3.03576 z M 66.99953,26.0634 c -2.616697,-0.604228 -4.267359,1.995414 -4.335579,2.134898 -0.03411,0.06822 -0.03533,0.108419 -0.151666,0.105374 -0.09502,-0.0024 -0.106592,-0.105374 -0.106592,-0.105374 l -0.324651,-1.989323 h -2.718416 v 11.348763 h 3.047939 v -6.14278 c 0,-0.500681 1.351595,-2.907846 3.970728,-2.288391 1.324794,0.313078 1.886384,0.874668 1.886384,0.874668 V 26.543981 C 67.777351,26.288768 67.441128,26.16512 66.99953,26.0634 Z m 17.479355,15.232999 v -4.083411 l 8.3e-4,6.09e-4 v -1.528842 c 0,0 0.0058,-0.122429 0.115123,-0.124257 0.09807,-0.0012 0.119988,0.06457 0.144353,0.124257 0.230851,0.574381 1.501439,2.765926 4.322786,2.078251 2.525333,-0.711429 4.377611,-3.030276 4.377611,-5.783411 0,-3.317162 -2.691011,-6.008168 -6.00878,-6.008168 -3.318383,0 -6.008779,2.691006 -6.008779,6.008168 v 9.316194 z M 87.43364,28.939574 c 1.679898,0 3.041842,1.361339 3.041842,3.040021 0,1.680508 -1.361944,3.042458 -3.041842,3.042458 -1.679906,0 -3.040638,-1.36134 -3.040638,-3.042458 -6.06e-4,-1.678681 1.360732,-3.040021 3.040638,-3.040021 z m 16.12715,8.624255 h 3.05647 v -5.584234 c 0,-3.317163 -2.68918,-6.00756 -6.00817,-6.00756 -3.318382,0 -6.008779,2.690398 -6.008779,6.00756 0,2.753745 1.852279,5.071981 4.377611,5.78341 2.821358,0.687676 4.091328,-1.50326 4.322788,-2.078251 0.0243,-0.05969 0.0457,-0.124865 0.14435,-0.123648 0.11086,0.0012 0.11452,0.123648 0.11452,0.123648 m 0.0877,-3.705159 c 0,1.680508 -1.36134,3.042458 -3.04063,3.042458 -1.679901,0 -3.041853,-1.36134 -3.041853,-3.042458 0,-1.678681 1.361952,-3.040021 3.041853,-3.040021 1.67868,0 3.04063,1.36134 3.04063,3.040021 z M 49.813147,37.540074 H 46.346146 V 22.703601 h 3.720386 c 4.504908,0 7.921963,0.826549 7.921963,7.417627 0,6.52895 -3.619885,7.418846 -8.175348,7.418846 z m 0.828376,-12.26485 h -1.22551 v 9.690182 l 1.258402,0.03228 c 2.581369,0 4.243604,-0.235113 4.243604,-4.877069 0,-4.450089 -1.467324,-4.845395 -4.276496,-4.845395 z" />
  </g>
</svg>
