<svg xmlns="http://www.w3.org/2000/svg" width="64" height="64" viewBox="0 0 13.107 13.116" preserveAspectRatio="xMidYMid" fill="#204156"><path d="M2.246 8.804c-.1-.3-.154-.705-.154-1.233s.05-.923.154-1.233c.285-.893 1.042-1.377 2.04-1.377a2.22 2.22 0 0 1 1.737.777c.03.042.04.104-.01.144l-.645.57c-.05.042-.1.032-.144-.02a1.12 1.12 0 0 0-.913-.434c-.442 0-.78.218-.923.653-.082.248-.1.538-.1.918s.02.682.1.933c.144.422.48.645.923.645.356.01.695-.152.913-.434.042-.05.092-.05.144-.01l.645.57c.05.042.04.094.01.144-.4.466-.975.77-1.737.77-.992 0-1.754-.486-2.04-1.377M-.004.562h1.15v11.95h-1.15z"/><path d="M.018.557h8.277v1.19H.018z"/><path d="M7.134.557h1.16v11.075h-1.16z"/><path d="M.033 11.4h8.272v1.16H.033zm9.374-.003v.943c0 .062.042.104.1.104h3.498c.062 0 .104-.042.104-.104v-.943c0-.062-.042-.1-.104-.1h-3.5c-.062 0-.1.042-.1.1"/></svg>