<?xml version="1.0" encoding="UTF-8" standalone="no"?>
<svg
   xmlns:dc="http://purl.org/dc/elements/1.1/"
   xmlns:cc="http://creativecommons.org/ns#"
   xmlns:rdf="http://www.w3.org/1999/02/22-rdf-syntax-ns#"
   xmlns:svg="http://www.w3.org/2000/svg"
   xmlns="http://www.w3.org/2000/svg"
   xmlns:sodipodi="http://sodipodi.sourceforge.net/DTD/sodipodi-0.dtd"
   xmlns:inkscape="http://www.inkscape.org/namespaces/inkscape"
   width="120"
   height="60"
   viewBox="0 0 24.576 12.296015"
   preserveAspectRatio="xMidYMid"
   version="1.1"
   id="svg8"
   sodipodi:docname="codecademy-ar21.svg"
   inkscape:version="0.92.3 (2405546, 2018-03-11)">
  <metadata
     id="metadata14">
    <rdf:RDF>
      <cc:Work
         rdf:about="">
        <dc:format>image/svg+xml</dc:format>
        <dc:type
           rdf:resource="http://purl.org/dc/dcmitype/StillImage" />
        <dc:title></dc:title>
      </cc:Work>
    </rdf:RDF>
  </metadata>
  <defs
     id="defs12" />
  <sodipodi:namedview
     pagecolor="#ffffff"
     bordercolor="#666666"
     borderopacity="1"
     objecttolerance="10"
     gridtolerance="10"
     guidetolerance="10"
     inkscape:pageopacity="0"
     inkscape:pageshadow="2"
     inkscape:window-width="1920"
     inkscape:window-height="1001"
     id="namedview10"
     showgrid="false"
     inkscape:zoom="2.73912"
     inkscape:cx="43.079214"
     inkscape:cy="17.456668"
     inkscape:window-x="-9"
     inkscape:window-y="-9"
     inkscape:window-maximized="1"
     inkscape:current-layer="svg8" />
  <g
     id="g6"
     style="fill:#204156"
     transform="matrix(0.04484491,0,0,0.04484491,0.80457629,3.7348005)">
    <path
       d="m 20.948,74.177 c -0.922,-2.796 -1.38,-6.326 -1.38,-11.072 0,-4.748 0.458,-8.286 1.38,-11.075 2.575,-8.003 9.399,-12.376 18.333,-12.376 6.635,0 11.889,2.7 15.394,6.98 0.27,0.37 0.362,0.928 -0.093,1.3 l -5.803,5.119 c -0.463,0.375 -0.922,0.281 -1.293,-0.183 -2.214,-2.512 -4.517,-3.91 -8.203,-3.91 -3.96,0 -6.999,1.955 -8.292,5.863 -0.732,2.239 -0.92,4.841 -0.92,8.283 0,3.443 0.186,6.14 0.92,8.375 1.291,3.812 4.332,5.767 8.292,5.767 3.686,0 5.99,-1.397 8.203,-3.903 0.371,-0.472 0.83,-0.472 1.293,-0.099 l 5.803,5.12 c 0.455,0.37 0.364,0.837 0.093,1.304 -3.503,4.19 -8.757,6.886 -15.394,6.886 -8.934,-0.004 -15.758,-4.38 -18.333,-12.379 m 201.326,0 c -0.922,-2.796 -1.38,-6.326 -1.38,-11.072 0,-4.748 0.458,-8.286 1.38,-11.075 2.581,-8.003 9.397,-12.376 18.332,-12.376 6.637,0 11.892,2.7 15.392,6.98 0.274,0.37 0.37,0.928 -0.095,1.3 l -5.805,5.119 c -0.46,0.375 -0.918,0.281 -1.288,-0.183 -2.21,-2.512 -4.515,-3.91 -8.204,-3.91 -3.959,0 -7.001,1.955 -8.289,5.863 -0.739,2.239 -0.918,4.841 -0.918,8.283 0,3.443 0.18,6.14 0.918,8.375 1.288,3.812 4.33,5.767 8.289,5.767 3.69,0 5.994,-1.397 8.204,-3.903 0.37,-0.472 0.829,-0.472 1.288,-0.099 l 5.805,5.12 c 0.464,0.37 0.37,0.837 0.095,1.304 -3.5,4.19 -8.755,6.886 -15.392,6.886 -8.935,-0.004 -15.75,-4.38 -18.332,-12.379 m 232.69,11.354 c -0.553,0 -0.92,-0.37 -0.92,-0.932 V 58.732 c 0,-5.77 -2.86,-9.774 -8.39,-9.774 -5.343,0 -8.475,4.001 -8.475,9.774 v 25.867 c 0,0.561 -0.371,0.932 -0.92,0.932 h -8.481 c -0.552,0 -0.924,-0.37 -0.924,-0.932 V 58.732 c 0,-5.77 -2.855,-9.774 -8.376,-9.774 -5.347,0 -8.483,4.001 -8.483,9.774 v 25.867 c 0,0.561 -0.368,0.932 -0.922,0.932 h -8.477 c -0.556,0 -0.92,-0.37 -0.92,-0.932 V 41.607 c 0,-0.56 0.364,-0.933 0.92,-0.933 h 8.477 c 0.554,0 0.922,0.373 0.922,0.933 v 3.257 h 0.093 c 1.938,-2.792 5.805,-5.21 11.7,-5.21 5.255,0 9.493,2.136 12.16,5.953 h 0.095 c 3.408,-3.718 7.834,-5.953 14.192,-5.953 10.316,0 16.126,7.07 16.126,16.656 v 28.287 c 0,0.563 -0.372,0.934 -0.926,0.934 z m 22.199,16.749 c -0.551,0 -0.919,-0.374 -0.919,-0.935 v -7.442 c 0,-0.556 0.368,-0.935 0.919,-0.935 h 1.66 c 3.5,0 5.256,-1.575 6.635,-5.3 l 1.292,-3.815 -16.219,-42.248 c -0.186,-0.56 0.185,-0.933 0.74,-0.933 h 9.12 c 0.553,0 0.922,0.374 1.102,0.933 l 10.048,29.313 h 0.181 l 9.586,-29.313 c 0.184,-0.56 0.554,-0.933 1.101,-0.933 h 8.752 c 0.557,0 0.927,0.374 0.739,0.933 L 494.949,88.32 c -3.867,10.61 -7.559,13.957 -14.927,13.957 l -2.86,0.003 z M 63.152,74.18 c -1.013,-3.169 -1.474,-6.144 -1.474,-11.075 0,-4.924 0.46,-7.903 1.474,-11.06 2.488,-7.817 9.3,-12.379 18.328,-12.379 8.933,0 15.749,4.56 18.237,12.379 1.008,3.157 1.472,6.136 1.472,11.06 0,4.93 -0.464,7.906 -1.472,11.076 -2.49,7.811 -9.304,12.37 -18.237,12.37 -9.028,0.001 -15.84,-4.557 -18.328,-12.37 M 89.769,71.39 c 0.739,-2.323 0.922,-4.467 0.922,-8.284 0,-3.806 -0.183,-5.856 -0.922,-8.272 -1.288,-3.719 -4.145,-5.864 -8.289,-5.864 -4.142,0 -7.094,2.145 -8.38,5.864 -0.734,2.418 -0.92,4.466 -0.92,8.272 0,3.817 0.186,5.96 0.92,8.284 1.286,3.725 4.24,5.858 8.38,5.858 4.144,-0.002 7.001,-2.134 8.289,-5.858 M 280.688,39.654 c -7.28,0 -12.161,1.766 -15.758,4.373 -0.364,0.283 -0.459,0.742 -0.179,1.207 l 3.4,6.145 c 0.286,0.466 0.831,0.56 1.296,0.187 2.12,-1.672 5.157,-3.073 10.136,-3.073 7.26,0 9.724,2.203 9.85,7.044 h 0.001 v 0.06 c 0.004,0.112 0.004,0.227 0.004,0.347 v 14.518 c 0,5.118 -3.5,7.626 -9.855,7.626 -4.98,0 -7.648,-1.857 -7.648,-5.577 0,-4.19 2.95,-6.056 9.582,-6.056 l 2.016,0.004 c 0.552,0 0.924,-0.373 0.924,-0.927 v -5.966 c 0,-0.556 -0.372,-0.928 -0.924,-0.928 h -0.443 l -3.23,-0.002 c -10.964,0 -17.789,4.474 -17.789,14.239 0,9.4 6.825,13.679 14.93,13.679 6.26,0 10.408,-2.138 12.528,-5.21 h 0.09 v 3.258 c 0,0.56 0.373,0.933 0.924,0.933 h 7.738 c 0.554,0 0.924,-0.371 0.924,-0.933 V 55.29 C 299.206,44.311 294.232,39.655 280.688,39.655 M 170.606,58.633 c -0.24,0 -0.398,0.16 -0.398,0.4 v 7.017 c 0,0.24 0.158,0.402 0.398,0.402 h 22.816 c 0.646,0 1.015,-0.37 1.015,-0.924 0,-7.265 -0.464,-10.337 -1.474,-13.498 -2.491,-7.63 -9.123,-12.375 -18.246,-12.375 -8.844,0 -15.66,4.558 -18.152,12.375 -0.917,2.885 -1.474,6.422 -1.474,11.075 0,4.653 0.645,8.093 1.573,10.98 2.486,7.814 9.117,12.467 18.514,12.467 8.198,0 14.468,-3.164 18.242,-7.63 0.366,-0.463 0.366,-0.928 -0.093,-1.304 l -5.431,-4.838 c -0.465,-0.371 -0.924,-0.275 -1.387,0.186 -2.208,2.422 -5.433,4.282 -10.409,4.282 -4.97,0 -8.475,-2.418 -9.95,-6.79 a 10.948,10.948 0 0 1 -0.523,-1.95 h -0.002 c -0.335,-1.895 -0.533,-3.739 -0.533,-6.447 0.072,-2.553 0.22,-4.183 0.581,-6.255 0.004,-0.029 0.01,-0.054 0.015,-0.08 l 0.01,-0.06 v 0.002 c 0.088,-0.488 0.209,-0.947 0.358,-1.405 1.198,-3.628 4.514,-5.768 8.756,-5.768 4.147,0 7.459,2.14 8.657,5.768 0.371,1.123 0.552,2.234 0.552,3.82 0,0.37 -0.183,0.553 -0.552,0.553 h -12.106 l 0.002,-0.001 z M 146.53,22.256 h -8.462 c -0.558,0 -0.925,0.372 -0.925,0.924 v 42.396 h -0.047 c -0.099,2.565 -0.377,4.251 -0.87,5.832 -1.196,3.713 -4.054,5.756 -8.282,5.756 -4.14,0 -6.99,-2.043 -8.191,-5.756 -0.643,-2.047 -0.915,-4.275 -0.915,-8.363 0,-4.086 0.272,-6.319 0.915,-8.358 1.178,-3.643 3.937,-5.7 7.94,-5.781 h 3.613 c 0.176,-0.043 0.29,-0.182 0.29,-0.382 l 0.047,-8.495 a 0.369,0.369 0 0 0 -0.337,-0.388 l -2.884,-0.01 h -3.39 v 10e-4 c -7.418,0.079 -12.847,3.695 -15.121,10.771 -1.105,3.442 -1.565,6.607 -1.565,12.642 0,6.038 0.46,9.199 1.565,12.634 2.299,7.156 7.82,10.78 15.363,10.78 5.983,0 9.664,-2.226 11.775,-5.297 h 0.09 v 3.345 c 0,0.56 0.37,0.931 0.926,0.931 h 8.462 c 0.553,0 0.922,-0.37 0.922,-0.93 V 23.18 c 0.004,-0.554 -0.366,-0.924 -0.918,-0.924 m 221.855,36.377 c -0.236,0 -0.398,0.16 -0.398,0.4 v 7.017 c 0,0.24 0.162,0.402 0.398,0.402 h 22.822 c 0.644,0 1.013,-0.37 1.013,-0.924 0,-7.265 -0.463,-10.337 -1.472,-13.498 -2.492,-7.63 -9.125,-12.375 -18.244,-12.375 -8.847,0 -15.663,4.558 -18.154,12.375 -0.919,2.885 -1.475,6.422 -1.475,11.075 0,4.653 0.646,8.093 1.573,10.98 2.484,7.814 9.118,12.467 18.515,12.467 8.197,0 14.468,-3.164 18.244,-7.63 0.366,-0.463 0.366,-0.928 -0.095,-1.304 l -5.432,-4.838 c -0.462,-0.371 -0.922,-0.275 -1.384,0.186 -2.208,2.422 -5.432,4.282 -10.411,4.282 -4.97,0 -8.474,-2.418 -9.95,-6.79 a 10.796,10.796 0 0 1 -0.52,-1.95 h -0.002 c -0.337,-1.895 -0.534,-3.739 -0.534,-6.447 0.068,-2.553 0.215,-4.183 0.579,-6.255 a 0.696,0.696 0 0 0 0.014,-0.08 c 0.004,-0.022 0.008,-0.038 0.011,-0.06 v 0.002 a 11.1,11.1 0 0 1 0.359,-1.405 c 1.196,-3.628 4.515,-5.768 8.757,-5.768 4.147,0 7.458,2.14 8.656,5.768 0.37,1.123 0.555,2.234 0.555,3.82 0,0.37 -0.185,0.553 -0.555,0.553 H 369.15 V 58.635 Z M 336.272,22.256 c -0.555,0 -0.924,0.373 -0.924,0.926 V 65.64 c -0.145,2.57 -0.425,4.257 -0.918,5.84 -1.199,3.72 -4.061,5.768 -8.293,5.768 -4.143,0 -6.999,-2.048 -8.202,-5.769 -0.64,-2.05 -0.92,-4.28 -0.92,-8.374 0,-4.092 0.276,-6.33 0.92,-8.372 1.178,-3.648 3.942,-5.69 7.953,-5.77 l 3.618,0.002 c 0.554,0 0.924,-0.372 0.924,-0.926 v -7.456 c 0,-0.556 -0.37,-0.928 -0.924,-0.928 h -0.443 l -5.47,-10e-4 h -0.371 c -7.426,0.079 -12.864,3.702 -15.14,10.789 -1.107,3.447 -1.566,6.613 -1.566,12.658 0,6.047 0.459,9.214 1.566,12.655 2.301,7.164 7.833,10.794 15.386,10.794 5.991,0 9.677,-2.228 11.794,-5.304 l 0.09,3.35 c 0,0.562 0.369,0.932 0.925,0.932 h 8.477 c 0.553,0 0.924,-0.368 0.924,-0.933 V 23.182 c -0.007,-0.554 -0.377,-0.926 -0.927,-0.926 h -8.48 z m -114.69,75.962 v 8.48 c 0,0.557 0.37,0.927 0.923,0.927 h 31.42 c 0.56,0 0.932,-0.372 0.932,-0.928 v -8.479 c 0,-0.55 -0.371,-0.922 -0.933,-0.922 h -31.419 c -0.554,0 -0.923,0.372 -0.923,0.922"
       id="path2"
       inkscape:connector-curvature="0" />
    <path
       d="M 213.605,0.3 C 213.591,0.285 213.582,0.267 213.569,0.255 L 213.566,0.253 A 0.924,0.924 0 0 0 212.902,0 H 1.116 C 1.046,0 0.98,0.007 0.916,0.018 L 0.862,0.032 C 0.82,0.043 0.776,0.052 0.738,0.068 A 0.056,0.056 0 0 0 0.72,0.078 C 0.392,0.211 0.19,0.517 0.19,0.923 v 105.768 c 0,0.323 0.126,0.576 0.338,0.737 0.016,0.016 0.03,0.03 0.052,0.041 v 0.002 a 0.984,0.984 0 0 0 0.536,0.144 H 212.9 c 0.312,0 0.565,-0.12 0.725,-0.327 a 0.93,0.93 0 0 0 0.199,-0.599 V 0.924 A 0.93,0.93 0 0 0 213.605,0.3 Z M 11.43,97.293 c -0.066,0 -0.13,-0.006 -0.188,-0.015 C 11.224,97.275 11.204,97.266 11.186,97.261 11.143,97.251 11.1,97.243 11.061,97.226 11.054,97.225 11.05,97.219 11.043,97.217 10.716,97.085 10.517,96.78 10.515,96.378 V 11.247 c 0,-0.408 0.201,-0.71 0.528,-0.847 0.009,-0.002 0.014,-0.007 0.02,-0.009 0.037,-0.014 0.16,-0.045 0.179,-0.05 0.06,-0.01 0.125,-0.015 0.192,-0.015 h 191.145 c 0.068,0 0.131,0.006 0.192,0.015 0.02,0.005 0.038,0.012 0.054,0.018 a 0.719,0.719 0 0 1 0.125,0.034 c 0.01,0.002 0.013,0.007 0.02,0.009 0.328,0.134 0.527,0.44 0.527,0.846 V 96.38 c -0.001,0.403 -0.202,0.708 -0.525,0.841 -0.007,0.002 -0.01,0.007 -0.02,0.009 a 0.896,0.896 0 0 1 -0.124,0.034 c -0.02,0.005 -0.035,0.014 -0.055,0.018 -0.061,0.01 -0.12,0.014 -0.187,0.014 H 11.43 Z"
       id="path4"
       inkscape:connector-curvature="0" />
  </g>
</svg>
