<svg xmlns="http://www.w3.org/2000/svg" width="64" height="64"><path d="M33.457 14.556v7.068h-1.414c-.707-.236-.942.236-.942.707-2.12 7.304-4.477 14.372-6.833 21.676-.47 1.65-.942 3.3-1.65 4.948 0 .236-.47.47-.707.47H11.074l-.236-.707-8.246-26.39c-.236-.707-.47-.707-1.178-.707H0v-7.068h15.08v7.068h-3.063l4.948 19.556h.236l5.42-19.556h-3.063v-7.068z"/><path d="M52.646 14.81c1.414.236 2.827.236 4.005.707 5.42 1.414 8.246 8.01 5.42 12.96-.707 1.178-1.65 1.885-2.827 2.592-.47.236-.942.47-1.65.942.236.236.47.236.707.236 3.77 1.178 5.42 4.005 5.655 7.54.47 5.183-2.827 8.953-8.01 9.424-1.65.236-3.3.236-4.712.236H34.975v-7.068h3.063V21.64h-3.063v-7.068c6.126.236 11.78.236 17.67.236zm-5.183 20.734v6.833a.51.51 0 0 0 .471.471h4.005c.942 0 1.885-.47 2.356-1.414 1.178-2.12 0-4.948-2.356-5.42-1.414-.47-2.827-.47-4.477-.47zm0-6.597c1.414 0 2.592 0 4.005-.236 1.65-.236 2.592-1.65 2.592-3.3s-.942-3.063-2.356-3.3-2.827-.236-4.24-.236z" fill="#ff0113"/></svg>