<svg xmlns="http://www.w3.org/2000/svg" width="64" height="64" viewBox="0 0 9.739 9.752"><path d="M6.856.001C5.513.036 3.02 1.318 1.14 2.803c-.77.67-1.216.83-.713 1.366.447.447.734.107.734.107.425-.335 1.34-1.273 1.945-1.72.86-.637 2.046-1.554 3.097-1.8.834-.2 1.087.035.975.884-.066.73-.627 2.368-.627 2.368L5.43 4.5c-.2.075-.4.024-.434.482-.01.492.288.306.488.23l.654-.3c.1-.078.2-.01.155.134a13.83 13.83 0 0 1-.627 1.613l-1.32 2.82c.01.235.267.268.605.273.3-.024.455-.24.455-.24l1.03-2.406.873-2.45c.067-.246.212-.298.402-.343l.927-.263c.616-.152.794-.12.873-.547.056-.297-.075-.434-.075-.434l-1.613.493c-.235.1-.193-.145-.193-.145s-.033.155.113-.482C8.186 1 7.93.483 7.58.188 7.413.05 7.166-.007 6.856.001z"/></svg>