<svg xmlns="http://www.w3.org/2000/svg" viewBox="0.2 -1.02 120 60" width="120" height="60"><g transform="translate(.085)"><g transform="matrix(1.072131 0 0 1.072131 -.509735 -.114198)"><ellipse cx="22.665" cy="45.917" rx="6.955" ry=".831" fill="#e4e4e4"/><path d="M12.948 31.445l-1.516-2.017.33-.244 1.344 1.772.147-.464-1.283-1.7.33-.244 1.1 1.467.147-.464-1.05-1.38.33-.244.868 1.15.6-1.943-2.445-4.266c-.684-1.418-4.9-.22-4.8 2.347.1 2.53 5.256 8.263 5.256 8.263zM32.2 30.2l1.516-2.017-.33-.244-1.344 1.772-.147-.464 1.283-1.7-.33-.244-1.1 1.467-.147-.464 1.05-1.38-.33-.244-.868 1.15-.6-1.943 2.445-4.266c.684-1.418 4.9-.22 4.8 2.347s-5.256 8.263-5.256 8.263zM18.827 41.798c-.134 0-.244.122-.244.257l.098 2.897c0 .134.122.244.257.244l1.16-.037c.134 0 .244-.122.244-.257l-.098-2.897c0-.134-.122-.244-.257-.244z"/><path d="M17.165 45.343c0-.257.208-.464.464-.464h2.2c.257 0 .464.208.464.4v-.4c0 .22-.208.428-.452.464l-1.124.183-1.088.257c-.244.06-.452-.098-.452-.354v-.086zm9.74-3.545c.134 0 .244.122.244.257l-.098 2.897c0 .134-.122.244-.257.244l-1.16-.037c-.134 0-.244-.122-.244-.257l.098-2.897c0-.134.122-.244.257-.244z"/><path d="M28.58 45.343c0-.257-.208-.464-.464-.464h-2.2c-.257 0-.464.208-.464.4v-.4c0 .22.208.428.452.464l1.124.183 1.088.257c.244.06.452-.098.452-.354v-.086zM11.432 18.685c-.733-6.16 3.703-11.16 9.913-11.16h2.432c6.2 0 10.646 5 9.913 11.16l-2.286 19.177c-.293 2.506-2.58 4.535-5.1 4.535h-7.48c-2.518 0-4.804-2.03-5.1-4.535z"/><path d="M22.763 11.363V8.357" fill="none" stroke="#4a4a4a" stroke-width="1.467" stroke-linecap="square"/><g transform="matrix(.122227 0 0 .122227 6.311124 9.640067)"><radialGradient id="A" cx="-226.026" cy="294.082" r="2.705" gradientTransform="matrix(-38.7287,45.0999,45.1,38.7286,-21882.685,-1148.4283)" gradientUnits="userSpaceOnUse"><stop offset="0" stop-color="#7f7f7f"/><stop offset="1"/></radialGradient><path d="M56.5 28.5c-15 0-27.2 12.2-27.2 27.2v49.7c0 15 12.1 25.7 27 23.9l64.3-7.9c7.4-.9 19.5-.9 27 0l64.3 7.9c14.9 1.8 27-8.9 27-23.9V55.7c0-15-12.2-27.2-27.2-27.2z" fill="url(#A)" stroke="#000" stroke-width="2"/><ellipse cx="47.7" cy="48.6" rx="4.8" ry="4.9" fill="#80ff00"/></g><path d="M13.01 33.095s2.872 2.26 8.568 1.882c5.684-.39 10.62-3.166 10.62-3.166s.66 3.007.464 4.852-.513 2.176-.513 2.176c-.452 1.173-1.76 2.542-2.91 3.056l-.122.05-.892 1.797c-.098.208-.367.354-.6.318L25.1 43.74c-.232-.024-.5-.22-.61-.416l-.293-.526a.79.79 0 0 0-.623-.354H22.36c-.232 0-.526.147-.672.33l-.464.587a1.22 1.22 0 0 1-.672.391l-2.078.293c-.232.037-.49-.1-.587-.318l-.538-1.124c-.098-.208-.354-.44-.574-.513l-1.088-.39c-.868-.318-1.846-1.26-2.176-2.102l-.122-.306c-.464-1.173-.733-3.14-.587-4.388z" fill="#cf0019"/><path d="M25.83 36.078l-.037-.134c-.037-.134-.024-.244.037-.33a.5.5 0 0 1 .269-.196c.05-.024.1-.037.16-.05.196-.05.367-.073.513-.06l.086.318-.513.1c-.06.012-.098.037-.122.05s-.024.05-.012.086l.012.024c.012.037.024.06.05.073s.06.012.1 0l.196-.05c.17-.05.306 0 .403.122a.62.62 0 0 1 .11.22l.024.073c.086.318-.012.513-.306.587l-.403.098c-.06.012-.16.012-.27 0l-.086-.318c.16-.024.342-.06.55-.122.05-.012.073-.024.086-.05s.024-.05.012-.073l-.012-.037c-.012-.037-.024-.05-.037-.06-.024-.012-.05-.012-.098 0l-.196.05a.41.41 0 0 1-.208.012c-.06-.012-.1-.024-.147-.06a.37.37 0 0 1-.098-.098c-.024-.05-.06-.1-.073-.183zm1.54.672l-.416-1.552.697-.183c.147-.037.28-.037.38.024s.183.17.232.354c.05.17.05.306.024.38-.024.037-.037.06-.05.086s-.037.037-.073.06l.428.513-.464.122-.342-.49h-.134l.16.574zm.183-1l.232-.06c.05-.012.073-.037.086-.06s0-.073-.012-.122c-.012-.06-.037-.098-.06-.1-.024-.024-.06-.024-.098-.012l-.232.06zm.966.208l-.086-.33.66-.183.086.33zm.538-.93l-.098-.367 1.014-.27.147.134-.1 1.516-.44.122.098-1.296zm1.76-.868l.416 1.552-.416.1-.306-1.16-.232.1-.073-.257.208-.244z" fill="#fff"/><path d="M22.286 25.248a.42.42 0 0 1 .587 0l2.053 2.053c.16.16.22.464.122.672l-2.176 4.657c-.098.208-.257.208-.367 0l-2.383-4.657c-.1-.208-.06-.5.098-.66z" fill="#f5a623"/><g fill="#fff"><path d="M12.484 18.318H11.9v-.4h1.6v.4h-.562v1.675h-.464zm1.344-.4h1.296v.4h-.83v.416H15v.4h-.7v.477h.856v.4h-1.32zm1.736-.001h.464v1.675h.82v.4h-1.283zm1.626 0h1.296v.4h-.83v.416h.7v.4h-.7v.477h.856v.4h-1.32zm1.735.01h.758c.452 0 .807.16.807.66s-.367.697-.807.697H19.4v.697h-.464zm.72 1c.257 0 .38-.1.38-.33s-.134-.293-.38-.293h-.257v.623zm2.3 1.066l-.4-.746h-.257v.746h-.464v-2.066h.746c.44 0 .794.147.794.648a.61.61 0 0 1-.367.6l.464.83h-.526zm-.648-1.112h.232c.244 0 .38-.1.38-.306s-.134-.27-.38-.27h-.232zm1.48-.954h1.296v.4h-.83v.416h.7v.4h-.7v.477h.856v.4h-1.332v-2.066z"/><path d="M24.645 19.418c.147.122.33.22.5.22.196 0 .293-.073.293-.196 0-.134-.122-.17-.293-.244l-.27-.1c-.22-.086-.416-.27-.416-.562 0-.342.306-.6.733-.6.232 0 .5.098.66.27l-.232.293a.7.7 0 0 0-.428-.16c-.158 0-.257.073-.257.183 0 .122.134.17.318.244l.27.1c.244.098.403.27.403.562 0 .342-.28.636-.77.636a1.17 1.17 0 0 1-.77-.293zm1.625-1.5h1.296v.4h-.83v.416h.7v.4h-.7v.477h.856v.4H26.26v-2.066zm1.724-.001h.477l.538 1.027.208.452h.012l-.06-.758v-.733h.44v2.066h-.477l-.538-1.027-.208-.452h-.012l.06.746v.733h-.452v-2.053zm2.983-.027a.84.84 0 0 1 .611.269l-.257.293c-.1-.098-.208-.16-.354-.16-.293 0-.513.244-.513.66 0 .428.196.672.5.672a.5.5 0 0 0 .391-.183l.257.28c-.17.196-.403.306-.66.306-.538 0-.978-.367-.978-1.063.024-.672.477-1.076 1.002-1.076zm.953.037h1.296v.4h-.83v.416h.7v.4h-.7v.477h.856v.4H31.92v-2.066z"/></g></g><path d="M47.833 26.923h-1.807v-1.23h5.037v1.23h-1.77v5.268h-1.46zm4.23-1.23h4.076v1.23h-2.615v1.307h2.23v1.23h-2.23v1.5h2.692v1.23h-4.153zm5.46-.001h1.46v5.268h2.576v1.23h-4.04zm5.114 0h4.076v1.23H64.1v1.307h2.23v1.23H64.1v1.5h2.7v1.23h-4.153zm5.46 0h2.384c1.423 0 2.538.5 2.538 2.076 0 1.538-1.154 2.192-2.538 2.192h-.923v2.192H68.1zm2.27 3.115c.808 0 1.192-.346 1.192-1.038s-.423-.923-1.192-.923h-.808v1.96zm7.266 3.383l-1.23-2.346h-.808V32.2h-1.46v-6.498h2.346c1.384 0 2.5.46 2.5 2.038 0 .96-.46 1.577-1.154 1.884l1.46 2.615h-1.653zm-2.038-3.5h.73c.77 0 1.192-.346 1.192-.96 0-.654-.423-.846-1.192-.846h-.73zm4.654-2.998h4.076v1.23H81.7v1.307h2.23v1.23H81.7v1.5h2.7v1.23h-4.2v-6.5zm5.843 4.692c.46.385 1.038.692 1.577.692.615 0 .923-.23.923-.615 0-.423-.385-.538-.923-.77l-.846-.346c-.692-.27-1.307-.846-1.307-1.77 0-1.077.96-1.923 2.307-1.923.73 0 1.538.308 2.076.846l-.73.923a2.02 2.02 0 0 0-1.346-.5c-.5 0-.808.23-.808.577 0 .385.423.538 1 .77l.846.346c.77.308 1.27.846 1.27 1.77 0 1.077-.884 2-2.423 2a3.68 3.68 0 0 1-2.423-.923zm5.115-4.692h4.076v1.23H92.67v1.307h2.23v1.23h-2.23v1.5h2.692v1.23h-4.2v-6.5zm5.423 0h1.5l1.692 3.23.654 1.423h.038l-.192-2.384v-2.307h1.384v6.498h-1.5l-1.692-3.23-.654-1.423h-.038l.192 2.346v2.307H96.6v-6.46zm9.382-.115a2.65 2.65 0 0 1 1.923.846l-.808.923c-.346-.308-.654-.5-1.115-.5-.923 0-1.615.77-1.615 2.076 0 1.346.615 2.115 1.577 2.115.538 0 .923-.23 1.23-.577l.808.884c-.538.615-1.27.96-2.076.96-1.692 0-3.076-1.154-3.076-3.345.077-2.115 1.5-3.384 3.153-3.384zm2.998.115h4.076v1.23h-2.615v1.307h2.23v1.23h-2.23v1.5h2.692v1.23h-4.2v-6.5z"/></g></svg>