<?xml version="1.0" encoding="UTF-8" standalone="no"?>
<svg
   xmlns:dc="http://purl.org/dc/elements/1.1/"
   xmlns:cc="http://creativecommons.org/ns#"
   xmlns:rdf="http://www.w3.org/1999/02/22-rdf-syntax-ns#"
   xmlns:svg="http://www.w3.org/2000/svg"
   xmlns="http://www.w3.org/2000/svg"
   xmlns:sodipodi="http://sodipodi.sourceforge.net/DTD/sodipodi-0.dtd"
   xmlns:inkscape="http://www.inkscape.org/namespaces/inkscape"
   id="Layer_1"
   data-name="Layer 1"
   viewBox="0 0 64 64"
   version="1.1"
   sodipodi:docname="mozilla-icon.svg"
   width="64"
   height="64"
   inkscape:version="0.92.3 (2405546, 2018-03-11)">
  <metadata
     id="metadata13">
    <rdf:RDF>
      <cc:Work
         rdf:about="">
        <dc:format>image/svg+xml</dc:format>
        <dc:type
           rdf:resource="http://purl.org/dc/dcmitype/StillImage" />
        <dc:title>moz-logo-main-rgb-gray</dc:title>
      </cc:Work>
    </rdf:RDF>
  </metadata>
  <sodipodi:namedview
     pagecolor="#ffffff"
     bordercolor="#666666"
     borderopacity="1"
     objecttolerance="10"
     gridtolerance="10"
     guidetolerance="10"
     inkscape:pageopacity="0"
     inkscape:pageshadow="2"
     inkscape:window-width="1920"
     inkscape:window-height="1001"
     id="namedview11"
     showgrid="false"
     inkscape:zoom="6.7822232"
     inkscape:cx="3.5221628"
     inkscape:cy="36.66128"
     inkscape:window-x="-9"
     inkscape:window-y="-9"
     inkscape:window-maximized="1"
     inkscape:current-layer="Layer_1" />
  <defs
     id="defs4">
    <style
       id="style2">.cls-1{fill:#4b4b4b;}</style>
  </defs>
  <title
     id="title6">moz-logo-main-rgb-gray</title>
  <path
     class="cls-1"
     d="M 59.419176,42.134794 H 64 v 7.54411 H 49.534248 V 30.180822 c 0,-6.014246 -1.981372,-8.30685 -5.865208,-8.30685 -4.725478,0 -6.702462,3.349042 -6.702462,8.223564 v 12.01534 h 4.550136 v 7.544108 H 27.05096 V 30.172052 c 0,-6.014246 -1.981372,-8.306848 -5.939726,-8.306848 -4.72548,0 -6.702467,3.349042 -6.702467,8.223562 v 12.02411 h 6.632331 v 7.544108 H 2e-7 V 42.112878 H 4.5632868 V 22.544658 H 2e-7 V 15.004932 H 14.465753 v 5.190138 c 2.064659,-3.664658 5.646029,-5.873974 10.520551,-5.873974 4.949038,0 9.599996,2.358358 11.274518,7.452056 1.902468,-4.563288 5.790688,-7.452056 11.274522,-7.452056 6.250956,0 11.879452,3.734796 11.879452,11.96274 v 15.850956 z"
     id="path8"
     inkscape:connector-curvature="0"
     style="fill:#4b4b4b;stroke-width:0.43835616"
     sodipodi:nodetypes="ccccsssccccssscccccccccccscsscc" />
</svg>
