<svg xmlns="http://www.w3.org/2000/svg" xmlns:xlink="http://www.w3.org/1999/xlink" width="120" height="60"><path d="M59.546 4.514c-2.077.023-3.8 1.43-3.942 3.283a3.15 3.15 0 0 0 .012.597 9.61 9.61 0 0 0-2.189-.423c-3.374-.262-6.308 1.213-6.977 3.383-2.23.723-4.002 2.128-4.875 3.93-1.98-.103-3.7 1.402-3.855 3.395-.157 2.025 1.35 3.798 3.37 3.955.64.05 1.258-.075 1.803-.323 1.578 1.662 4.01 2.83 6.803 3.047 2.515.195 4.85-.422 6.616-1.567.698 1.154 1.995 2.008 3.544 2.24v.037c.046-.005.09-.02.137-.025.047.006.1.02.137.025v-.037c1.552-.23 2.846-1.083 3.544-2.24 1.767 1.145 4.114 1.762 6.63 1.567 2.79-.216 5.212-1.385 6.8-3.047.546.248 1.164.373 1.803.323 2.02-.157 3.54-1.93 3.383-3.955-.155-1.993-1.874-3.498-3.855-3.395-.873-1.802-2.656-3.207-4.888-3.93-.67-2.17-3.59-3.644-6.965-3.383-.775.06-1.51.205-2.19.423a3.15 3.15 0 0 0 .012-.597c-.144-1.854-1.878-3.26-3.955-3.283-.138-.001-.282.001-.423.012-.008.001-.017-.001-.025 0s-.017.001-.025 0l-.423-.012zM59.944 7h.062c.352 0 .672.1.908.274s.386.423.386.696c0 .08-.025.16-.05.236l1.045.77a1.53 1.53 0 0 1 .759-.199c.352 0 .672.1.908.274s.398.423.398.696c0 .18-.087.34-.2.485l1.468 1.07c.186-.078.395-.124.622-.124.352 0 .684.1.92.274s.386.423.386.696c0 .154-.065.295-.15.423L68.8 13.58c.188-.08.404-.137.634-.137.352 0 .672.1.908.274s.386.423.386.696-.15.522-.386.696-.555.274-.908.274-.672-.1-.908-.274-.398-.423-.398-.696c0-.21.11-.402.26-.56l-1.306-.958c-.226.143-.518.236-.833.236-.288 0-.542-.078-.76-.2l-1.045.76c.1.1.168.23.2.36.01.044.012.1.012.137 0 .273-.15.522-.386.696-.118.087-.257.165-.4.21-.077.023-.153.038-.236.05s-.173.012-.26.012c-.277 0-.534-.062-.746-.174l-1.468 1.082c.15.128.264.295.31.473.016.06.025.112.025.174 0 .273-.15.5-.386.684-.06.044-.118.09-.187.124-.137.07-.294.123-.46.15-.083.013-.173.012-.26.012-.352 0-.672-.112-.908-.286-.118-.087-.22-.183-.286-.298-.033-.058-.057-.123-.075-.187a.74.74 0 0 1-.025-.199c0-.273.15-.522.386-.696s.555-.286.908-.286c.176 0 .344.04.497.087l1.58-1.144a1.03 1.03 0 0 1-.137-.224c-.036-.08-.062-.17-.062-.26 0-.273.15-.523.386-.696a1.2 1.2 0 0 1 .187-.112 1.65 1.65 0 0 1 .721-.162 1.57 1.57 0 0 1 .709.174l1.07-.77a1.11 1.11 0 0 1-.137-.224.63.63 0 0 1-.05-.249c0-.214.12-.4.274-.56l-1.443-1.057a1.59 1.59 0 0 1-.734.187 1.53 1.53 0 0 1-.808-.224l-1.206.883c.108.116.188.25.224.398.012.05.025.098.025.15 0 .273-.15.522-.386.696a1.31 1.31 0 0 1-.199.124 1.54 1.54 0 0 1-.46.137c-.084.012-.173.012-.26.012-.352 0-.672-.1-.908-.274s-.386-.423-.386-.696.15-.523.386-.696.556-.274.908-.274c.243 0 .476.05.672.137l1.256-.92c-.085-.13-.15-.268-.15-.423a.61.61 0 0 1 .012-.124c.026-.12.087-.234.162-.336l-.945-.696a1.47 1.47 0 0 1-.982.361 1.55 1.55 0 0 1-.858-.274l-.933.647a.78.78 0 0 1 .137.423c0 .273-.15.5-.386.684s-.555.286-.908.286c-.235 0-.456-.054-.647-.137l-1.468.995c.163.162.298.35.298.572 0 .045-.002.094-.012.137-.03.128-.104.24-.187.348l1.07.77c.158-.052.327-.087.5-.087.352 0 .672.112.908.286s.386.41.386.684-.15.522-.386.696-.555.286-.908.286-.673-.11-.908-.286-.386-.423-.386-.696a.71.71 0 0 1 .087-.348c.03-.053.07-.1.112-.15a1.18 1.18 0 0 1 .137-.137l-.982-.72c-.21.11-.46.2-.734.2-.34 0-.65-.122-.883-.286l-1.368.945c.165.13.295.3.348.485.018.062.025.12.025.187 0 .12-.048.22-.1.323l1.206.87c.162-.055.334-.087.522-.087.352 0 .684.1.92.274s.386.423.386.696-.15.523-.386.696-.568.274-.92.274c-.176 0-.344-.015-.497-.062-.077-.023-.155-.053-.224-.087s-.128-.08-.187-.124c-.236-.174-.386-.423-.386-.696 0-.244.155-.452.348-.622l-1.094-.784c-.236.174-.544.298-.895.298-.402 0-.755-.14-.995-.36l-1.293.895c.063.074.12.164.162.25.02.042.04.08.05.124a.55.55 0 0 1 .012.137c0 .273-.15.523-.386.696-.06.043-.118.09-.187.124-.137.068-.294.113-.46.137-.083.012-.173.012-.26.012-.352 0-.684-.1-.92-.274s-.386-.423-.386-.696.15-.522.386-.696.568-.274.92-.274a1.56 1.56 0 0 1 .659.149l1.455-.995c-.02-.066-.05-.126-.05-.2 0-.273.15-.522.386-.696s.555-.286.908-.286c.15 0 .3.026.435.062l.2-.15.025-.012 1.318-.895c-.052-.105-.1-.216-.1-.336 0-.273.15-.522.386-.696s.568-.274.92-.274a1.58 1.58 0 0 1 .547.099l.174-.112 1.318-.908c-.127-.15-.236-.317-.236-.5 0-.273.162-.523.398-.696s.556-.274.908-.274a1.55 1.55 0 0 1 .796.211l.958-.647a.79.79 0 0 1-.112-.373c0-.273.15-.522.386-.696.22-.163.533-.248.858-.26V7zm.062.4a1.05 1.05 0 0 0-.609.187.54.54 0 0 0-.211.274c-.01.033-.012.064-.012.1 0 .106.04.208.124.298.028.03.063.06.1.087.11.08.264.147.435.174.057.008.114.012.174.012a1.01 1.01 0 0 0 .597-.187c.148-.11.224-.245.224-.386s-.076-.264-.224-.373a1.01 1.01 0 0 0-.597-.187zM57.06 9.2c-.24 0-.463.066-.61.174-.1.08-.174.183-.2.286a.4.4 0 0 0-.012.099c0 .106.032.208.112.298a.66.66 0 0 0 .099.087c.146.108.368.174.61.174s.45-.066.597-.174.224-.245.224-.386-.076-.277-.224-.386S57.3 9.2 57.06 9.2zm5.994 0c-.24 0-.45.066-.597.174a.55.55 0 0 0-.211.286.35.35 0 0 0-.012.099c0 .106.04.208.124.298.028.03.063.06.1.087.146.108.356.174.597.174s.462-.066.61-.174.224-.245.224-.386-.076-.277-.224-.386-.368-.174-.61-.174zm-3.072 2.176c-.24 0-.45.08-.597.187-.11.08-.183.174-.21.274a.35.35 0 0 0-.012.099c0 .106.04.208.124.298a.71.71 0 0 0 .1.087.98.98 0 0 0 .423.174 1.16 1.16 0 0 0 .174.012 1.05 1.05 0 0 0 .609-.187c.147-.11.224-.244.224-.386s-.077-.265-.224-.373-.368-.187-.61-.187zm-6.032.224c-.24 0-.463.08-.61.187a.55.55 0 0 0-.211.286.35.35 0 0 0-.012.099c0 .106.04.212.124.298.028.03.063.047.1.075.11.08.264.147.435.174.057.008.114.012.174.012a1.01 1.01 0 0 0 .597-.187c.148-.11.224-.232.224-.373s-.076-.277-.224-.386-.356-.187-.597-.187zm12.3 0c-.24 0-.45.08-.597.187-.11.08-.183.183-.21.286-.01.034-.012.064-.012.1a.43.43 0 0 0 .124.298c.028.03.063.047.1.075a.98.98 0 0 0 .423.174 1.16 1.16 0 0 0 .174.012 1.05 1.05 0 0 0 .609-.187c.147-.11.224-.23.224-.373s-.077-.277-.224-.386-.368-.187-.61-.187zm-2.885 2.04c-.24 0-.463.08-.61.187-.1.08-.174.174-.2.274-.008.033-.012.064-.012.1 0 .106.032.208.112.298a.67.67 0 0 0 .099.087c.11.08.264.147.435.174.057.008.114.012.174.012a1.05 1.05 0 0 0 .609-.187.47.47 0 0 0 .211-.386c0-.14-.064-.265-.21-.373s-.368-.187-.61-.187zm-6.74.1a1.01 1.01 0 0 0-.597.187c-.1.082-.183.183-.21.286a.35.35 0 0 0-.012.099c0 .142.077.277.224.386.11.08.255.138.423.162a1.16 1.16 0 0 0 .174.012c.24 0 .462-.066.61-.174s.224-.245.224-.386-.076-.276-.224-.386a1.05 1.05 0 0 0-.609-.187zm12.8.124c-.24 0-.463.08-.61.187-.1.08-.174.174-.2.274-.008.033-.012.064-.012.1 0 .106.032.208.112.298a.66.66 0 0 0 .099.087c.11.08.264.147.435.174.057.008.114.012.174.012a1.01 1.01 0 0 0 .597-.187c.147-.11.224-.244.224-.386s-.077-.265-.224-.373-.356-.187-.597-.187zm-18.667.037a1.01 1.01 0 0 0-.597.187c-.1.082-.183.183-.21.286a.35.35 0 0 0-.012.099c0 .106.04.212.124.298.028.03.063.048.1.075.1.08.255.147.423.174a1.16 1.16 0 0 0 .174.012c.24 0 .463-.08.61-.187s.224-.23.224-.373-.077-.277-.224-.386a1.05 1.05 0 0 0-.609-.187zm-3.358 2.027a1.05 1.05 0 0 0-.609.187c-.1.082-.183.183-.21.286a.35.35 0 0 0-.012.099c0 .106.04.212.124.298.028.03.063.048.1.075a1.02 1.02 0 0 0 .435.174 1.17 1.17 0 0 0 .174.012c.24 0 .45-.08.597-.187s.224-.23.224-.373-.077-.277-.224-.386a1.01 1.01 0 0 0-.597-.187zm6.293.062a1.01 1.01 0 0 0-.597.187.54.54 0 0 0-.211.274c-.01.033-.012.064-.012.1 0 .07.025.146.062.21.02.033.034.057.062.087s.063.06.1.087c.1.08.255.147.423.174a1.16 1.16 0 0 0 .174.012c.24 0 .462-.08.61-.187s.224-.245.224-.386-.076-.264-.224-.373a1.05 1.05 0 0 0-.609-.187zm6.492.174c-.24 0-.45.066-.597.174-.11.08-.183.183-.21.286-.01.034-.012.064-.012.1 0 .106.04.208.124.298a.71.71 0 0 0 .099.087c.147.11.356.174.597.174s.463-.066.61-.174a.47.47 0 0 0 .211-.386.47.47 0 0 0-.211-.386c-.146-.108-.368-.174-.61-.174z" fill="#afe478" fill-rule="evenodd"/><g fill="#577632"><path d="M53.557 18.274l3.422 2.68-3.094.018-1.717-1.316-1.7-.01 3.044 2.387.036-.025v.007L58.3 22l.094.072-1.738 9.53 6.7.05-1.85-9.488.206-.162 4.746.025V22l.032.025 3.044-2.387-1.7.01-1.717 1.316-3.094-.018 3.426-2.68-1.836.022-3.357 2.618L61 19.67l-2.178-.022-.213 1.165-3.227-2.517-1.836-.022zM27.954 41.326c0 .557-.146.993-.44 1.308s-.716.473-1.27.473a2.51 2.51 0 0 1-.793-.116 1.91 1.91 0 0 1-.53-.256v-.677c.15.15.35.27.598.363a2.15 2.15 0 0 0 .762.137c.342 0 .6-.112.805-.335s.293-.522.293-.897c0-.293-.07-.54-.2-.74s-.408-.43-.802-.686c-.45-.285-.76-.512-.924-.683a1.92 1.92 0 0 1-.384-.573c-.1-.2-.137-.464-.137-.756 0-.476.16-.87.482-1.18s.73-.467 1.226-.467c.533 0 .978.126 1.336.378l-.3.506c-.333-.224-.687-.335-1.06-.335-.342 0-.614.1-.817.302s-.305.467-.305.796c0 .293.07.538.207.735s.43.436.878.717c.44.3.74.52.903.692a1.72 1.72 0 0 1 .363.573 1.98 1.98 0 0 1 .12.723zM33 39.66c0 1.114-.176 1.967-.528 2.558s-.855.887-1.5.887-1.14-.296-1.485-.887-.515-1.444-.515-2.558c0-2.28.675-3.42 2.025-3.42.634 0 1.128.3 1.482.897s.53 1.44.53 2.525zm-3.434 0c0 .955.114 1.677.342 2.165s.583.732 1.067.732c.947 0 1.42-.966 1.42-2.897 0-1.915-.474-2.873-1.42-2.873-.496 0-.855.24-1.076.72s-.332 1.197-.332 2.153zm6.604-2.78h-1.037v6.105h-.573V36.88h-.842v-.33l.842-.25v-.5c0-.842.1-1.447.3-1.817s.545-.555 1.037-.555c.285 0 .543.05.775.152l-.2.537c-.215-.102-.4-.152-.585-.152-.2 0-.35.06-.45.177s-.177.3-.226.573-.073.63-.073 1.098v.555h1.037zm2.28 5.7a1.42 1.42 0 0 0 .476-.073v.488c-.18.08-.4.122-.7.122-.683 0-1.025-.5-1.025-1.53V36.88h-.598v-.342l.585-.17.2-1.574h.403v1.574h1.05v.512h-1.05v4.53c0 .447.05.752.146.915s.268.244.512.244zm5.196.415L42.7 38.4l-.192-1.17h-.012l-.085.518-.14.756-.945 4.483h-.7l-1.44-6.617h.58l.823 3.854.384 2.013H41l.354-2.025.823-3.842h.6l.83 3.854.348 2.013h.037c.012-.134.072-.472.18-1.012l1.034-4.855h.573l-1.48 6.617zm5.74 0l-.073-.927h-.024c-.317.7-.797 1.05-1.44 1.05-.43 0-.778-.172-1.04-.515s-.393-.804-.393-1.38c0-.63.2-1.13.567-1.497s.9-.568 1.592-.6l.714-.037v-.55c0-.618-.077-1.068-.232-1.35s-.4-.424-.768-.424c-.378 0-.764.124-1.16.372l-.25-.457c.46-.285.94-.427 1.445-.427.545 0 .937.172 1.177.515s.36.918.36 1.723v4.507zm-1.4-.372c.415 0 .737-.204.967-.613s.345-.987.345-1.735v-.7l-.7.037c-.533.03-.928.176-1.186.442s-.387.656-.387 1.168c0 .48.085.83.256 1.055s.403.335.695.335z"/><use xlink:href="#B"/><path d="M56.9 43.107c-.7 0-1.237-.298-1.613-.893s-.564-1.426-.564-2.5c0-1.13.168-1.993.503-2.6s.818-.893 1.448-.893c.55 0 .982.26 1.3.784s.476 1.227.476 2.113v.537h-3.135c.008.964.144 1.685.4 2.165s.665.72 1.2.72c.415 0 .852-.136 1.3-.4v.56a2.48 2.48 0 0 1-1.336.396zm-.262-6.343c-.797 0-1.234.795-1.3 2.385h2.543c0-.728-.1-1.307-.332-1.738s-.52-.646-.9-.646zm7.317.116H62.92v6.105h-.573V36.88h-.842v-.33l.842-.25v-.5c0-.842.1-1.447.3-1.817s.545-.555 1.037-.555c.285 0 .543.05.775.152l-.2.537c-.215-.102-.4-.152-.585-.152-.2 0-.35.06-.45.177s-.177.3-.226.573-.073.63-.073 1.098v.555h1.037z"/><use xlink:href="#B" x="13.42"/><path d="M70.317 43.107c-.7 0-1.237-.298-1.613-.893s-.564-1.426-.564-2.5c0-1.13.168-1.993.503-2.6s.818-.893 1.448-.893c.55 0 .982.26 1.3.784s.476 1.227.476 2.113v.537H68.73c.008.964.144 1.685.4 2.165s.665.72 1.2.72c.415 0 .852-.136 1.3-.4v.56a2.48 2.48 0 0 1-1.336.396zm-.262-6.343c-.797 0-1.234.795-1.3 2.385h2.543c0-.728-.1-1.307-.332-1.738s-.52-.646-.9-.646zm5.165 6.343c-.7 0-1.237-.298-1.613-.893s-.564-1.426-.564-2.5c0-1.13.168-1.993.503-2.6s.818-.893 1.448-.893c.55 0 .982.26 1.3.784s.476 1.227.476 2.113v.537h-3.135c.008.964.144 1.685.4 2.165s.665.72 1.2.72c.415 0 .852-.136 1.3-.4v.56a2.48 2.48 0 0 1-1.336.396zm-.262-6.343c-.797 0-1.234.795-1.3 2.385H76.2c0-.728-.1-1.307-.332-1.738s-.52-.646-.9-.646zm4.902 6.343c-1.285 0-1.927-1.14-1.927-3.42 0-1.122.16-1.977.482-2.565s.795-.88 1.42-.88a1.54 1.54 0 0 1 .845.256 1.84 1.84 0 0 1 .637.707h.05l-.024-.738v-2.97h.58v9.5h-.476l-.05-.927h-.055c-.16.337-.364.597-.616.778s-.54.27-.866.27zm.037-.506c.464 0 .82-.214 1.07-.643s.375-1.06.375-1.894v-.378c0-1-.12-1.733-.363-2.2s-.6-.698-1.107-.698c-.476 0-.817.25-1.025.747s-.3 1.22-.3 2.162c0 .95.108 1.673.323 2.165s.56.738 1.037.738zm7.515-2.94c0 1.114-.176 1.967-.528 2.558s-.855.887-1.5.887-1.142-.296-1.485-.887-.515-1.444-.515-2.558c0-2.28.675-3.42 2.025-3.42.634 0 1.128.3 1.482.897s.53 1.44.53 2.525zm-3.434 0c0 .955.114 1.677.342 2.165s.583.732 1.067.732c.947 0 1.42-.966 1.42-2.897 0-1.915-.474-2.873-1.42-2.873-.496 0-.855.24-1.076.72s-.332 1.197-.332 2.153zm10.527 3.324v-4.507c0-1.1-.325-1.665-.976-1.665-.447 0-.77.194-.967.582s-.296.96-.296 1.717v3.873h-.573v-4.507c0-.56-.08-.98-.238-1.253s-.405-.412-.738-.412a1 1 0 0 0-.958.598c-.2.398-.3 1.045-.3 1.94v3.635h-.58V36.37h.488l.05.92h.055c.264-.7.714-1.05 1.348-1.05.366 0 .655.098.866.293s.364.48.457.854c.16-.407.354-.7.585-.878s.533-.268.903-.268c.5 0 .866.192 1.098.576s.348 1 .348 1.845v4.324z"/></g><path d="M32.964 320.258c-.9 0-1.566.3-1.996.944s-.64 1.6-.64 2.873c0 1.226.227 2.16.68 2.792s1.114.95 1.983.95a2.83 2.83 0 0 0 1.517-.432v-1.53c-.476.305-.933.46-1.37.46-.367 0-.628-.187-.8-.56s-.243-.938-.243-1.693c0-.772.08-1.347.243-1.733s.432-.58.803-.58c.28 0 .602.103.964.317l.5-1.356c-.236-.148-.506-.26-.803-.337a3.31 3.31 0 0 0-.85-.115zm5.18 0c-.9 0-1.6.333-2.1.998s-.75 1.6-.75 2.772c0 .768.113 1.436.344 2s.564 1.016 1 1.322.918.46 1.477.46c.882 0 1.578-.333 2.084-.998s.755-1.596.755-2.792c0-1.156-.254-2.08-.762-2.758a2.42 2.42 0 0 0-2.05-1.012zm7.44 0a1.84 1.84 0 0 0-1.672 1.018v-.897H42.2v.013h-.007v7.3h1.74v-3.5c0-.886.088-1.515.263-1.888s.448-.56.823-.56c.284 0 .487.134.614.405s.2.672.2 1.2v4.343h1.754v-4.755c0-.873-.163-1.542-.492-1.996s-.827-.674-1.5-.674zm5.456 0c-.742 0-1.328.177-1.754.54s-.634.85-.634 1.47c0 .484.115.906.344 1.26s.605.7 1.133 1.005c.397.24.668.448.816.614a.84.84 0 0 1 .223.58.68.68 0 0 1-.21.526c-.143.133-.35.202-.62.202-.244 0-.53-.06-.85-.17s-.596-.246-.836-.4v1.5c.47.284 1.067.432 1.787.432.812 0 1.424-.2 1.84-.6s.62-.955.62-1.666c0-.327-.048-.612-.148-.857s-.242-.462-.425-.654-.504-.426-.958-.7c-.375-.227-.63-.42-.77-.573s-.202-.323-.202-.52a.6.6 0 0 1 .162-.432c.1-.118.283-.182.506-.182.353 0 .76.13 1.227.384l.573-1.254a3.51 3.51 0 0 0-1.828-.506zm5.422 0a2.32 2.32 0 0 0-2 1.012c-.486.677-.708 1.615-.708 2.82 0 1.187.263 2.104.8 2.752s1.24.978 2.15.978c.78 0 1.45-.17 2-.506v-1.437c-.594.353-1.173.533-1.74.533-.445 0-.792-.162-1.045-.48s-.385-.793-.398-1.443h3.5v-.93c0-1.043-.23-1.856-.688-2.435s-1.087-.863-1.882-.863zm6.846 0a1.18 1.18 0 0 0-.796.29c-.227.196-.435.526-.627.985h-.06l-.196-1.14H60.2v7.3h1.74v-3.75c0-.637.1-1.123.337-1.457a1.11 1.11 0 0 1 .978-.499 1.47 1.47 0 0 1 .479.061l.202-1.686c-.205-.065-.413-.094-.627-.094zm-6.852 1.335c.266 0 .474.143.627.418s.234.675.243 1.207H55.56c.026-.554.115-.963.277-1.227s.372-.398.62-.398zm-18.324.155c.362 0 .628.2.796.567s.25.95.25 1.713c0 1.536-.347 2.3-1.045 2.3-.367 0-.637-.192-.803-.58s-.243-.96-.243-1.72.077-1.336.243-1.713.436-.567.803-.567zm35.838-1.5a4.32 4.32 0 0 0-2.361.681l.6 1.207c.567-.34 1.068-.513 1.504-.513.6 0 .884.344.884 1.025v.52l-.964.04c-.838.04-1.467.247-1.888.62s-.634.945-.634 1.713c0 .716.15 1.27.46 1.673s.73.6 1.268.6c.42 0 .764-.075 1.04-.236s.545-.456.803-.884h.04l.344 1h1.275V322.8c0-.812-.197-1.44-.6-1.882s-.995-.66-1.767-.66zm7.183.007c-.393 0-.74.1-1.032.3-.284.185-.505.44-.66.762v-.924h-1.72v3.918h.007v3.386h1.74v-3.5c0-.886.088-1.515.263-1.888s.448-.56.823-.56a.64.64 0 0 1 .62.405c.126.27.2.672.2 1.2v4.343h1.754v-4.762c0-.873-.163-1.536-.492-2s-.827-.68-1.5-.68zm5.787 0c-.9 0-1.566.318-1.996.95s-.64 1.6-.64 2.873c0 1.226.227 2.16.68 2.792s1.114.944 1.983.944c.554 0 1.06-.14 1.517-.425v-1.53c-.476.305-.933.46-1.37.46-.367 0-.628-.187-.8-.56s-.243-.938-.243-1.693c0-.772.08-1.347.243-1.733s.432-.58.803-.58c.28 0 .602.103.964.317l.492-1.356a2.84 2.84 0 0 0-.796-.337 3.33 3.33 0 0 0-.85-.121zm-22.162.142l1.9 7.3h2.158l1.915-7.3h-1.807l-1.012 4.66-.1.674-.054.56h-.027l-.1-.816-.142-.857-.93-4.222zm9.82 3.87v.62c0 .476-.093.854-.283 1.14s-.444.432-.762.432c-.428 0-.64-.302-.64-.904 0-.406.1-.712.277-.917s.48-.322.877-.344zm14.752-4.012h1.807l1.008 4.117c.1.367.18.88.242 1.538h.04a7.57 7.57 0 0 1 .059-.56l.085-.632c.022-.153.323-1.64.903-4.464h1.833l-2.088 7.816c-.253.96-.6 1.65-1.008 2.07s-.978.628-1.676.628a3.55 3.55 0 0 1-.923-.11v-1.46a2.16 2.16 0 0 0 .602.08c.585 0 .97-.384 1.152-1.152l.124-.458z" transform="matrix(1.079306 0 0 1.079306 -7.809176 -299.512798)" fill="#577632"/><defs ><path id="B" d="M53.44 36.24a1.9 1.9 0 0 1 .579.085l-.14.58c-.146-.06-.297-.09-.45-.09-.224 0-.432.115-.625.345s-.345.55-.454.96a5.26 5.26 0 0 0-.165 1.36v3.507h-.58v-6.617h.476l.06 1.16h.043c.31-.858.728-1.287 1.256-1.287z"/></defs></svg>