<?xml version="1.0" encoding="UTF-8" standalone="no"?>
<!-- Generator: Adobe Illustrator 22.1.0, SVG Export Plug-In . SVG Version: 6.00 Build 0)  -->

<svg
   xmlns:dc="http://purl.org/dc/elements/1.1/"
   xmlns:cc="http://creativecommons.org/ns#"
   xmlns:rdf="http://www.w3.org/1999/02/22-rdf-syntax-ns#"
   xmlns:svg="http://www.w3.org/2000/svg"
   xmlns="http://www.w3.org/2000/svg"
   xmlns:sodipodi="http://sodipodi.sourceforge.net/DTD/sodipodi-0.dtd"
   xmlns:inkscape="http://www.inkscape.org/namespaces/inkscape"
   version="1.1"
   id="Layer_1"
   x="0px"
   y="0px"
   viewBox="0 0 120 60"
   xml:space="preserve"
   sodipodi:docname="strava-ar21.svg"
   width="120"
   height="60"
   inkscape:version="0.92.3 (2405546, 2018-03-11)"><metadata
   id="metadata29"><rdf:RDF><cc:Work
       rdf:about=""><dc:format>image/svg+xml</dc:format><dc:type
         rdf:resource="http://purl.org/dc/dcmitype/StillImage" /><dc:title></dc:title></cc:Work></rdf:RDF></metadata><defs
   id="defs27" /><sodipodi:namedview
   pagecolor="#ffffff"
   bordercolor="#666666"
   borderopacity="1"
   objecttolerance="10"
   gridtolerance="10"
   guidetolerance="10"
   inkscape:pageopacity="0"
   inkscape:pageshadow="2"
   inkscape:window-width="1920"
   inkscape:window-height="1001"
   id="namedview25"
   showgrid="false"
   inkscape:zoom="2.7560976"
   inkscape:cx="118.91073"
   inkscape:cy="59.201167"
   inkscape:window-x="-9"
   inkscape:window-y="-9"
   inkscape:window-maximized="1"
   inkscape:current-layer="Layer_1" />
<style
   type="text/css"
   id="style2">
	.st0{fill:#FC6100;}
	.st1{enable-background:new    ;}
</style>
<g
   id="g837"
   transform="matrix(0.16703659,0,0,0.16703659,13.396791,20.980024)"><path
     id="path4"
     d="M 0.3,89 18.1,67.7 c 10.9,8.3 23.3,11.8 35,11.8 6,0 8.6,-1.6 8.6,-4.3 V 74.9 C 61.7,72 58.6,70.5 47.9,68.3 25.5,63.7 5.8,57.3 5.8,36.2 v -0.3 c 0,-19 14.8,-33.7 42.4,-33.7 19.3,0 33.5,4.6 45.1,13.7 L 76.9,38.5 c -9.4,-6.9 -20.7,-9.8 -30,-9.8 -5,0 -7.3,1.7 -7.3,4.1 v 0.3 c 0,2.7 2.7,4.4 13.3,6.4 25.6,4.7 42.7,12.1 42.7,32.3 V 72 c 0,21 -17.3,33.8 -44.1,33.8 C 31.2,105.9 13,100.2 0.3,89 Z M 128.9,32.4 H 99.5 V 4.1 h 92.2 V 32.4 H 162.3 V 104 H 128.9 Z M 274.6,70 c 12.1,-5.9 19.7,-16 19.7,-30.5 v -0.3 c 0,-10.3 -3.1,-17.7 -9.1,-23.7 -7,-7 -18.3,-11.4 -36,-11.4 H 200.4 V 104 h 33.4 V 75.5 h 7.1 l 18.8,28.5 h 38.1 z M 261,41.9 c 0,6.1 -4.9,9.7 -12.8,9.7 H 233.8 V 32.1 h 14.6 c 7.7,0 12.7,3.1 12.7,9.6 v 0.2 c 0,0 -0.1,0 -0.1,0 z m 84.4,-42 -53.9,104.1 h 35.8 l 18.1,-36.4 18.1,36.4 h 35.8 z m 158.4,0 -53.9,104.1 h 35.8 l 18.1,-36.4 18.1,36.4 h 35.8 z M 424.6,108.1 478.6,4 H 442.8 L 424.7,40.4 406.5,4 h -35.8 z"
     class="st0"
     inkscape:connector-curvature="0"
     style="fill:#fc6100" /></g>

</svg>