<?xml version="1.0" encoding="UTF-8" standalone="no"?>
<!-- Generator: Adobe Illustrator 22.1.0, SVG Export Plug-In . SVG Version: 6.00 Build 0)  -->

<svg
   xmlns:dc="http://purl.org/dc/elements/1.1/"
   xmlns:cc="http://creativecommons.org/ns#"
   xmlns:rdf="http://www.w3.org/1999/02/22-rdf-syntax-ns#"
   xmlns:svg="http://www.w3.org/2000/svg"
   xmlns="http://www.w3.org/2000/svg"
   xmlns:sodipodi="http://sodipodi.sourceforge.net/DTD/sodipodi-0.dtd"
   xmlns:inkscape="http://www.inkscape.org/namespaces/inkscape"
   version="1.1"
   id="Layer_1"
   x="0px"
   y="0px"
   viewBox="0 0 120 60"
   xml:space="preserve"
   sodipodi:docname="solarwinds-ar21.svg"
   width="120"
   height="60"
   inkscape:version="0.92.3 (2405546, 2018-03-11)"><metadata
   id="metadata49"><rdf:RDF><cc:Work
       rdf:about=""><dc:format>image/svg+xml</dc:format><dc:type
         rdf:resource="http://purl.org/dc/dcmitype/StillImage" /><dc:title></dc:title></cc:Work></rdf:RDF></metadata><defs
   id="defs47">
	
	
	
	
	
	
	
	
	
	
	
	
	
	
	
	
	
	
	
</defs><sodipodi:namedview
   pagecolor="#ffffff"
   bordercolor="#666666"
   borderopacity="1"
   objecttolerance="10"
   gridtolerance="10"
   guidetolerance="10"
   inkscape:pageopacity="0"
   inkscape:pageshadow="2"
   inkscape:window-width="1920"
   inkscape:window-height="1001"
   id="namedview45"
   showgrid="false"
   inkscape:zoom="0.75333333"
   inkscape:cx="225"
   inkscape:cy="146"
   inkscape:window-x="-9"
   inkscape:window-y="-9"
   inkscape:window-maximized="1"
   inkscape:current-layer="Layer_1" />
<style
   type="text/css"
   id="style2">
	.st0{fill:#F99E21;}
	.st1{fill:#686969;}
</style>
<g
   id="g889"
   transform="matrix(0.22352612,0,0,0.22352612,9.6591237,4.6678063)"><path
     class="st0"
     d="m 339.2,90.8 c 0.2,-0.3 0.5,-0.5 0.8,-0.7 3.9,-2.7 8,-5.2 12.2,-7.5 5,-2.7 10.2,-5.1 15.6,-7.1 4.7,-1.8 9.5,-3.2 14.4,-4.4 1.9,-0.4 3.8,-0.9 5.7,-1.2 1.8,-0.3 3.5,-0.6 5.3,-0.9 1,-0.2 2.1,-0.1 3.1,-0.3 1.3,-0.3 2.6,-0.1 3.9,-0.4 0.1,0 0.2,0 0.2,0 2.8,-0.1 5.7,-0.4 8.5,-0.3 0.1,0 0.2,0 0.4,0.1 -1,0.9 -1.9,1.8 -2.8,2.6 -1,0.9 -1.9,1.7 -2.9,2.6 -0.9,0.9 -1.9,1.6 -2.8,2.7 0.4,0 0.7,0.1 1,0 0.5,-0.1 0.9,-0.1 1.4,-0.1 1.8,0 3.7,-0.2 5.5,-0.5 1,-0.1 2.1,-0.2 3.1,-0.3 1.6,-0.2 3.1,-0.4 4.7,-0.7 1.6,-0.3 3.2,-0.5 4.8,-0.8 3,-0.6 5.9,-1.3 8.9,-2.1 2.1,-0.6 4.1,-1.3 6.1,-2.1 2.6,-1.1 5.1,-2.3 7.3,-4.1 0.9,-0.7 1.8,-1.4 2.5,-2.3 0.2,-0.2 0.3,-0.5 0.6,-0.5 0.1,0.3 0,0.6 -0.1,0.9 -1.5,4.5 -3.3,8.8 -6.1,12.7 -2,2.8 -4.3,5.4 -6.9,7.7 -4.8,4.2 -10.1,7.3 -15.8,10 -3.4,1.6 -6.8,3 -10.2,4.4 -4.3,1.7 -8.7,3.4 -13.2,4.7 -3,0.9 -6,1.7 -9,2.4 -2.7,0.7 -5.4,1.3 -8.1,2.2 0,0 -0.1,0 -0.1,0 -1.1,0.3 -1,0.3 -1.9,-0.4 -3.2,-2.8 -6.7,-5.3 -10.4,-7.4 -3.9,-2.3 -8,-4.1 -12.3,-5.6 -2.6,-0.9 -5.3,-1.6 -8.1,-2.1 -1.7,-0.3 -3.4,-0.6 -5.1,-0.8 0.2,-0.1 0,-0.2 -0.2,-0.4 z"
     id="path4"
     inkscape:connector-curvature="0"
     style="fill:#f99e21" /><path
     class="st1"
     d="m 207.5,159.2 c 0.2,-1.1 0.4,-2.3 0.6,-3.4 0.5,-2.9 1,-5.8 1.7,-8.7 0.6,-2.5 1.1,-5.1 1.6,-7.6 0.8,-4.1 1.7,-8.2 2.5,-12.2 0,-0.2 0.1,-0.4 0.2,-0.6 0.1,-0.3 0.3,-0.4 0.5,-0.5 0.1,0 0.2,0 0.3,0 2.2,0 4.4,0 6.5,0 0.5,0 0.6,0.2 0.5,0.6 -0.2,0.9 -0.5,1.9 -0.7,2.8 -1.5,5.7 -3,11.4 -4.5,17.2 -1.1,4.1 -2.2,8.3 -3.3,12.4 -0.3,1.2 -0.7,2.5 -1,3.7 -0.1,0.2 -0.2,0.3 -0.4,0.4 -0.1,0 -0.2,0 -0.3,0 -2.8,0 -5.7,0 -8.5,0 -0.6,0 -0.6,0 -0.8,-0.7 -1,-3.4 -2,-6.7 -2.9,-10.1 -0.8,-2.8 -1.6,-5.6 -2.4,-8.4 -1.2,-4.1 -2.3,-8.2 -3.4,-12.3 -0.1,-0.4 -0.2,-0.9 -0.3,-1.3 0,-0.1 -0.1,-0.1 -0.2,-0.1 -0.1,0 -0.1,0 -0.2,0.1 -0.1,0.3 -0.2,0.6 -0.3,0.8 -0.5,1.8 -0.9,3.5 -1.4,5.3 -0.8,3 -1.7,6 -2.6,9 -1.5,5.3 -3,10.6 -4.6,15.9 -0.2,0.6 -0.2,1.2 -0.7,1.7 -0.6,0 -1.2,0.1 -1.7,0.1 -2.3,0 -4.7,0 -7,0 -0.9,0 -0.8,0 -1,-0.8 -0.6,-2.2 -1.2,-4.5 -1.8,-6.8 -1.1,-4.4 -2.3,-8.7 -3.4,-13.1 -1.4,-5.2 -2.8,-10.5 -4.2,-15.7 0,-0.2 -0.1,-0.3 -0.1,-0.5 0,-0.1 0.1,-0.2 0.2,-0.3 0.1,-0.1 0.3,-0.1 0.5,-0.1 2.2,0 4.4,0 6.5,0 0.7,0 0.7,0.1 0.9,0.8 0.6,3 1.3,6 1.9,9 0.6,2.7 1.1,5.3 1.6,8 0.4,2.2 0.9,4.3 1.3,6.5 0.3,1.7 0.6,3.4 0.9,5.2 0.2,1.2 0.4,2.4 0.6,3.5 0.3,0 0.3,-0.2 0.4,-0.5 0.5,-2.6 1.1,-5.2 1.7,-7.8 0.4,-1.5 0.8,-2.9 1.2,-4.3 1.8,-6 3.6,-12 5.4,-18 0.2,-0.6 0.4,-1.3 0.6,-1.9 0.1,-0.3 0.3,-0.5 0.6,-0.5 0.1,0 0.2,0 0.3,0 2.9,0 5.8,0 8.7,0 0.7,0 0.7,0 0.9,0.8 0.6,1.9 1.2,3.8 1.7,5.7 0.7,2.2 1.3,4.4 2,6.6 1.3,4.6 2.9,9.2 4,13.9 0.4,1.8 0.8,3.7 1.2,5.5 -0.1,0.4 -0.1,0.6 0.2,0.7 z"
     id="path8"
     inkscape:connector-curvature="0"
     style="fill:#686969" /><path
     class="st1"
     d="m 317.1,159 c -0.5,0.1 -0.6,0.4 -0.8,0.6 -2.3,2.3 -5.1,3.7 -8.3,4.2 -2.9,0.5 -5.7,0.3 -8.5,-0.7 -3,-1.1 -5.3,-3 -7,-5.8 -1.1,-1.9 -1.8,-4 -2.2,-6.2 -0.6,-3 -0.6,-6 -0.4,-9 0.2,-2.8 0.9,-5.6 2.2,-8.2 1.8,-3.5 4.7,-5.9 8.4,-7.3 2.6,-0.9 5.3,-1.2 8,-1 2.4,0.2 4.5,1 6.5,2.4 0.3,0.2 0.7,0.5 1,0.7 0,0 0.1,0 0.1,0 0.2,-0.3 0.1,-0.6 0.1,-0.9 0,-4.1 0,-8.2 0,-12.3 0,-1.8 0,-1.5 1.6,-1.5 1.7,0 3.3,0 5,0 0.5,0 0.5,0.1 0.5,0.5 0,0.3 0,0.7 0,1 0,15.4 0,30.8 0,46.2 0,1.8 0.2,1.5 -1.5,1.5 -1.2,0 -2.3,0 -3.5,0 -0.5,0 -0.6,-0.1 -0.6,-0.6 -0.2,-1.1 -0.4,-2.4 -0.6,-3.6 z m -0.8,-14.4 c 0,-2.9 0,-5.9 0,-8.8 0,-0.7 -0.2,-1.1 -0.7,-1.5 -3.2,-2.3 -6.6,-3.6 -10.6,-3 -3.4,0.5 -5.7,2.3 -7,5.5 -0.8,2 -1.1,4 -1.2,6.1 -0.1,2.1 -0.1,4.3 0.2,6.4 0.3,1.7 0.7,3.3 1.4,4.8 0.9,1.6 2.1,3 3.8,3.6 2.3,0.9 4.6,1 7,0.3 2.4,-0.7 4.4,-1.9 6.4,-3.3 0.5,-0.4 0.7,-0.8 0.7,-1.4 0,-2.9 0,-5.8 0,-8.7 z"
     id="path12"
     inkscape:connector-curvature="0"
     style="fill:#686969" /><path
     class="st0"
     d="m 448.9,102.3 c -0.3,0.3 -0.5,0.4 -0.8,0.4 -3.7,0.6 -7.2,1.8 -10.7,3 -3.3,1.2 -6.5,2.5 -9.6,3.9 -1.8,0.8 -3.7,1.6 -5.5,2.5 -5,2.4 -10,4.8 -14.9,7.4 -3.8,2 -7.7,4.1 -11.5,6.1 -1,0.6 -2,1.1 -3.1,1.7 -0.4,0.2 -0.7,0.4 -1.2,0.6 -0.2,-0.5 -0.5,-0.9 -0.7,-1.3 -0.2,-0.4 -0.5,-0.8 -0.7,-1.2 -1.8,-3.3 -3.9,-6.4 -6.2,-9.4 -1.1,-1.4 -2.2,-2.7 -3.4,-4 -0.1,-0.1 -0.3,-0.3 -0.4,-0.5 -0.1,-0.2 0,-0.3 0.1,-0.4 0.2,-0.1 0.4,-0.2 0.6,-0.2 3.6,-1 7.2,-2.1 10.8,-3 3.5,-0.9 7.1,-1.6 10.6,-2.3 1.7,-0.3 3.5,-0.6 5.2,-0.8 2.1,-0.3 4.1,-0.6 6.2,-0.9 1,-0.1 2.1,-0.1 3.1,-0.3 1.2,-0.2 2.4,-0.1 3.6,-0.4 0.1,0 0.2,0 0.2,0 1.5,-0.1 3.1,-0.1 4.6,-0.3 1.9,-0.2 3.8,-0.1 5.7,-0.4 0.2,0 0.4,0 0.6,0 5.6,-0.1 11.1,-0.1 16.7,0 0.3,-0.2 0.5,-0.2 0.7,-0.2 z"
     id="path14"
     inkscape:connector-curvature="0"
     style="fill:#f99e21" /><path
     class="st1"
     d="m 119.1,158.8 c -0.3,0.1 -0.4,0.3 -0.6,0.5 -2.5,2.4 -5.4,4 -8.9,4.5 -2.5,0.4 -5,0.3 -7.4,-0.4 -1.4,-0.4 -2.6,-1 -3.7,-2 -1.5,-1.3 -2.4,-3 -2.9,-4.9 -0.3,-1.1 -0.4,-2.3 -0.4,-3.5 0,-2.4 0.4,-4.7 1.6,-6.7 0.9,-1.5 2.2,-2.7 3.8,-3.6 1.9,-1.1 3.9,-1.7 6,-2.1 1.5,-0.3 3.1,-0.3 4.6,-0.3 2.2,0 4.4,0 6.5,0 0.3,0 0.5,0 0.8,0 0.4,0 0.5,-0.1 0.5,-0.5 0,-0.3 0,-0.5 0,-0.8 0,-0.8 0,-1.6 0,-2.4 0,-0.7 -0.2,-1.4 -0.4,-2.1 -0.4,-1.3 -1.3,-2.2 -2.5,-2.6 -0.7,-0.3 -1.4,-0.5 -2.2,-0.6 -1.8,-0.2 -3.6,-0.2 -5.4,0 -2.5,0.3 -5,0.8 -7.4,1.6 -0.9,0.3 -1.8,0.5 -2.6,0.8 -0.2,-0.3 -0.1,-0.6 -0.1,-0.9 0,-1.4 0,-2.8 0,-4.1 0,-0.6 0,-0.7 0.7,-0.9 1.8,-0.7 3.7,-1.1 5.7,-1.5 3.2,-0.7 6.4,-0.9 9.7,-0.7 1.8,0.1 3.6,0.4 5.2,1.1 3.1,1.3 5,3.6 5.9,6.9 0.4,1.5 0.5,3.1 0.5,4.7 0,7.9 0,15.8 0,23.7 0,0.3 0,0.5 0,0.8 0,0.4 -0.1,0.5 -0.5,0.5 -1.7,0 -3.3,0 -5,0 -0.5,0 -0.6,-0.1 -0.7,-0.6 -0.1,-0.8 -0.2,-1.7 -0.3,-2.5 -0.2,-0.4 -0.3,-0.9 -0.5,-1.4 z m -0.1,-9.5 c 0,0 0,0 0,0 0,-1.4 0,-2.8 0,-4.1 0,-0.3 -0.1,-0.5 -0.4,-0.5 -3.1,0.1 -6.3,-0.2 -9.4,0.3 -0.9,0.1 -1.7,0.3 -2.6,0.6 -2.1,0.8 -3.5,2.2 -4.1,4.4 -0.3,1.5 -0.4,3 -0.1,4.5 0.5,2.1 1.8,3.4 3.9,3.9 1.7,0.4 3.3,0.3 5,-0.1 0.8,-0.2 1.6,-0.5 2.3,-0.9 1.7,-0.8 3.3,-1.9 4.8,-3.2 0.3,-0.3 0.5,-0.6 0.5,-1.1 0,-1.3 0.1,-2.6 0.1,-3.8 z"
     id="path16"
     inkscape:connector-curvature="0"
     style="fill:#686969" /><path
     class="st1"
     d="m 52.4,125.6 c 2.1,-0.1 4.3,0.2 6.4,0.9 4.5,1.4 7.5,4.4 9.1,8.8 0.7,1.9 1.1,3.8 1.3,5.8 0.2,1.8 0.2,3.7 0.2,5.5 -0.1,2.9 -0.6,5.8 -1.7,8.5 -1.6,3.8 -4.4,6.5 -8.3,7.8 -1.9,0.7 -4,1 -6,1 -0.8,0 -1.7,0 -2.5,0 -2.4,-0.1 -4.8,-0.5 -7.1,-1.5 -2.6,-1.1 -4.6,-2.9 -6.1,-5.2 -1.3,-2.2 -2,-4.5 -2.5,-7 -0.4,-2.1 -0.5,-4.3 -0.4,-6.5 0.1,-3.1 0.5,-6.1 1.7,-8.9 1.6,-3.9 4.3,-6.6 8.2,-8.1 2.2,-0.7 4.5,-1.2 7.7,-1.1 z m 10,19.1 c 0,-1.1 -0.1,-2.2 -0.2,-3.4 -0.2,-1.9 -0.6,-3.7 -1.3,-5.4 -1.4,-3.1 -3.8,-4.9 -7.3,-5.1 -1,-0.1 -2,-0.1 -3,0 -2,0.1 -3.7,0.9 -5.2,2.3 -1.5,1.4 -2.3,3.2 -2.8,5.1 -0.6,2.1 -0.7,4.3 -0.8,6.4 0,0.9 0.2,1.8 0.2,2.7 0.1,1.7 0.4,3.4 1.1,5 0.7,1.8 1.7,3.4 3.3,4.6 1.2,0.9 2.6,1.4 4,1.6 2,0.3 3.9,0.1 5.8,-0.6 2.5,-1 4,-2.9 5,-5.4 0.9,-2.4 1.2,-5.1 1.2,-7.8 z"
     id="path18"
     inkscape:connector-curvature="0"
     style="fill:#686969" /><path
     class="st1"
     d="m 248.6,144.8 c 0,-5.7 0,-11.4 0,-17.1 0,-0.3 0,-0.7 0,-1 0,-0.3 0.1,-0.4 0.5,-0.4 1.5,0 2.9,0 4.4,0 0.5,0 0.7,0.1 0.8,0.6 0.3,1 0.5,2 0.8,3 0.1,0.4 0.2,0.7 0.3,1.1 0.1,0.2 0.3,0.2 0.4,0.1 0.2,-0.1 0.4,-0.3 0.6,-0.5 2,-1.6 4.1,-2.9 6.5,-3.8 2.4,-1 5,-1.4 7.6,-1.3 1.7,0.1 3.4,0.4 5,1 2.3,0.9 3.9,2.5 4.9,4.7 0.7,1.5 1,3.2 1.1,4.8 0.2,2.5 0.1,5 0.1,7.5 0,6.1 0,12.1 0,18.2 0,0.3 0,0.7 0,1 0,0.2 -0.1,0.4 -0.4,0.4 -0.1,0 -0.2,0 -0.3,0 -2,0 -3.9,0 -5.9,0 -0.5,0 -0.6,-0.1 -0.6,-0.6 0,-0.3 0,-0.7 0,-1 0,-7.7 0,-15.5 0,-23.2 0,-0.7 0,-1.4 -0.1,-2.1 0,-0.9 -0.3,-1.6 -0.7,-2.4 -0.5,-0.8 -1.1,-1.5 -2,-1.8 -0.8,-0.3 -1.7,-0.5 -2.6,-0.6 -3,-0.2 -5.7,0.5 -8.4,1.7 -1.5,0.7 -2.9,1.5 -4.3,2.4 -0.5,0.3 -0.8,0.8 -0.8,1.4 0,3.2 0,6.4 0,9.7 0,5 0,10 0,15.1 0,0.3 0,0.6 0,0.9 0,0.5 -0.1,0.6 -0.6,0.6 -2,0 -4,0 -6,0 -0.4,0 -0.5,-0.1 -0.5,-0.5 0,-0.3 0,-0.7 0,-1 0.2,-5.6 0.2,-11.2 0.2,-16.9 z"
     id="path20"
     inkscape:connector-curvature="0"
     style="fill:#686969" /><path
     class="st1"
     d="m 357.9,133.4 c -0.7,-0.2 -1.3,-0.4 -1.8,-0.6 -2.2,-0.8 -4.4,-1.3 -6.7,-1.5 -1.7,-0.2 -3.4,-0.1 -5.1,0.1 -0.7,0.1 -1.4,0.3 -2,0.6 -1.2,0.5 -2,1.3 -2.3,2.6 -0.2,0.8 -0.3,1.7 -0.1,2.5 0.3,1.6 1.4,2.5 2.8,3.1 1.3,0.6 2.7,0.9 4.1,1.3 1.9,0.5 3.9,1 5.7,1.8 2.2,1 4.1,2.4 5.3,4.5 0.6,1.1 0.9,2.2 1.1,3.4 0.3,2 0.1,3.9 -0.5,5.8 -0.8,2.6 -2.5,4.5 -5,5.6 -1.5,0.7 -3.1,1 -4.7,1.3 -2,0.3 -3.9,0.3 -5.9,0.2 -3,-0.2 -5.9,-0.8 -8.8,-1.8 -0.1,0 -0.2,-0.1 -0.3,-0.2 -0.2,-0.1 -0.4,-0.2 -0.4,-0.5 0,-1.8 0,-3.5 0,-5.3 0,-0.3 0.2,-0.4 0.5,-0.3 1.6,0.5 3.2,0.9 4.8,1.3 2.4,0.6 4.9,1 7.4,0.9 1,-0.1 2.1,-0.2 3.1,-0.6 1.8,-0.6 2.9,-2 3,-3.9 0,-0.3 0,-0.7 0,-1 0,-1.7 -0.8,-2.8 -2.2,-3.6 -1,-0.6 -2.2,-0.9 -3.3,-1.2 -2,-0.6 -4,-1.1 -6,-1.8 -1.5,-0.5 -2.9,-1.2 -4.1,-2.1 -1.7,-1.3 -2.7,-3 -3.2,-5 -0.5,-2 -0.4,-4.1 0.1,-6.1 0.8,-3 2.8,-5 5.6,-6.2 2,-0.8 4.2,-1.2 6.3,-1.3 1.3,0 2.7,-0.1 4,0 2.7,0.1 5.4,0.7 7.9,1.8 0.3,0.1 0.6,0.3 0.6,0.7 0,1.9 0.1,3.6 0.1,5.5 z"
     id="path22"
     inkscape:connector-curvature="0"
     style="fill:#686969" /><path
     class="st1"
     d="m 26.3,133.4 c -0.7,-0.2 -1.2,-0.4 -1.7,-0.6 -2.3,-0.8 -4.6,-1.4 -7.1,-1.6 -0.9,-0.1 -1.7,-0.2 -2.6,-0.1 -1.4,0.1 -2.7,0.2 -4.1,0.7 -1.4,0.5 -2.7,1.8 -2.7,3.7 0,0.7 0,1.3 0.2,2 0.4,1.3 1.3,2.1 2.5,2.6 1.1,0.5 2.2,0.8 3.3,1.1 1.5,0.4 3.1,0.8 4.6,1.3 1.8,0.5 3.4,1.3 4.9,2.4 2.3,1.8 3.5,4.1 3.6,7 0.1,1.8 0,3.7 -0.6,5.4 -0.7,2.1 -2,3.6 -3.9,4.7 -1.7,1 -3.5,1.5 -5.4,1.8 -2,0.3 -4.1,0.3 -6.1,0.2 -2.9,-0.2 -5.8,-0.7 -8.6,-1.7 -1.1,-0.4 -0.9,-0.3 -0.9,-1.3 0,-1.5 0,-3 0,-4.5 0,-0.4 0.2,-0.5 0.5,-0.4 1.6,0.5 3.3,0.9 4.9,1.3 2.3,0.5 4.7,1 7.1,0.8 1.2,-0.1 2.3,-0.2 3.4,-0.6 1.8,-0.7 2.8,-2 2.9,-4 0,-0.7 0.1,-1.4 -0.1,-2.1 -0.3,-0.9 -0.9,-1.6 -1.7,-2.1 -1.1,-0.8 -2.4,-1.1 -3.7,-1.4 -1.8,-0.5 -3.6,-1 -5.4,-1.5 -1.8,-0.5 -3.4,-1.3 -4.9,-2.5 -1.8,-1.5 -2.8,-3.3 -3.1,-5.7 -0.1,-1.3 -0.1,-2.6 0,-3.9 0.3,-2.5 1.4,-4.6 3.5,-6.1 1.5,-1.1 3.2,-1.7 5,-2.2 2.8,-0.7 5.7,-0.6 8.6,-0.4 2.4,0.2 4.8,0.7 7,1.7 0.3,0.1 0.6,0.3 0.6,0.7 0,1.7 0,3.4 0,5.3 z"
     id="path24"
     inkscape:connector-curvature="0"
     style="fill:#686969" /><path
     class="st0"
     d="m 430.2,117.8 c 0,0.3 -0.3,0.5 -0.5,0.7 -3.4,3.5 -6.9,7.1 -10.3,10.6 -3,3.1 -5.9,6.1 -8.9,9.2 -2.9,3 -5.9,6.1 -8.8,9.1 -1,1 -2,2.1 -3,3.2 -0.1,0.1 -0.2,0.2 -0.3,0.1 -0.1,-0.1 -0.1,-0.2 -0.2,-0.3 -0.5,-5.5 -1.8,-10.7 -3.7,-15.9 0,-0.1 -0.1,-0.2 -0.1,-0.3 -0.3,-0.9 -0.3,-0.9 0.5,-1.2 4,-1.7 8,-3.5 12,-5.2 3.8,-1.6 7.6,-3.2 11.4,-4.9 3.2,-1.4 6.4,-2.8 9.6,-4.2 0.6,-0.2 1.1,-0.5 1.7,-0.7 0.2,-0.2 0.4,-0.3 0.6,-0.2 z"
     id="path28"
     inkscape:connector-curvature="0"
     style="fill:#f99e21" /><path
     class="st1"
     d="m 85.5,138.7 c 0,7.7 0,15.4 0,23.1 0,0.3 0,0.7 0,1 0,0.2 -0.1,0.4 -0.4,0.4 -2.1,0 -4.2,0 -6.3,0 -0.2,0 -0.4,-0.1 -0.4,-0.4 0,-0.3 0,-0.7 0,-1 0,-15.5 0,-31 0,-46.5 0,-1.6 -0.2,-1.4 1.4,-1.4 1.7,0 3.4,0 5.1,0 0.3,0 0.4,0.1 0.4,0.5 0,0.3 0,0.7 0,1 0.2,7.9 0.2,15.6 0.2,23.3 z"
     id="path30"
     inkscape:connector-curvature="0"
     style="fill:#686969" /><path
     class="st1"
     d="m 143.4,131.1 c 0.4,-0.6 0.7,-1.1 1.1,-1.6 1.1,-1.6 2.6,-2.8 4.5,-3.5 0.8,-0.3 1.6,-0.5 2.4,-0.5 1.5,0 3.1,-0.1 4.6,0.5 0.2,0.1 0.5,0.2 0.7,0.2 0.3,0.1 0.5,0.3 0.5,0.6 0,1.9 0,3.8 0,5.8 -0.4,0.1 -0.8,-0.1 -1.1,-0.2 -1.3,-0.4 -2.6,-0.6 -3.9,-0.7 -1.9,-0.1 -3.5,0.4 -5,1.5 -0.8,0.6 -1.6,1.2 -2.3,2 -0.5,0.6 -0.8,1.2 -0.8,2 0,8.2 0,16.3 0,24.5 0,0.3 0,0.7 0,1 0,0.3 -0.1,0.4 -0.5,0.4 -2.1,0 -4.1,0 -6.2,0 -0.2,0 -0.4,-0.1 -0.4,-0.4 0,-0.3 0,-0.7 0,-1 0,-11.4 0,-22.8 0,-34.1 0,-0.3 0,-0.6 0,-0.9 0,-0.5 0.1,-0.6 0.6,-0.6 1.5,0 2.9,0 4.4,0 0.4,0 0.5,0.1 0.6,0.5 0.2,1.5 0.5,2.9 0.8,4.5 z"
     id="path32"
     inkscape:connector-curvature="0"
     style="fill:#686969" /><path
     class="st1"
     d="m 230.7,144.7 c 0,-5.7 0,-11.5 0,-17.2 0,-0.3 0,-0.7 0,-1 0,-0.3 0.1,-0.4 0.5,-0.4 2,0 4,0 6,0 0.4,0 0.5,0.1 0.5,0.5 0,0.3 0,0.6 0,0.9 0,11.5 0,22.9 0,34.4 0,0.3 0,0.7 0,1 0,0.3 -0.1,0.4 -0.5,0.4 -2,0 -4,0 -6,0 -0.4,0 -0.5,-0.1 -0.5,-0.5 0,-0.3 0,-0.7 0,-1 0,-5.7 0,-11.4 0,-17.1 z"
     id="path34"
     inkscape:connector-curvature="0"
     style="fill:#686969" /><path
     class="st0"
     d="m 430.2,117.8 c 0,-0.1 0,-0.2 0.1,-0.2 0.2,0.2 -0.1,0.1 -0.1,0.2 z"
     id="path38"
     inkscape:connector-curvature="0"
     style="fill:#f99e21" /></g>
</svg>