<svg xmlns="http://www.w3.org/2000/svg" xmlns:xlink="http://www.w3.org/1999/xlink" width="120" height="60"><path d="M39.8 30.787h.998c1.815 0 2.5.908 2.5 2.723 0 1.785-.605 2.723-2.2 2.723h-1.27v-5.446zm0-7.292h1.15c1.362 0 1.997.847 1.997 2.5 0 1.483-.877 2.27-2.057 2.27h-1.12v-4.78zm-3.056 15.28h4.84c3.48 0 4.78-2.2 4.78-5.144 0-2.3-.908-3.5-2.45-4.206 1.483-.605 2.118-2.178 2.118-3.722 0-3.026-1.452-4.7-4.72-4.7h-4.538v17.76z" fill-rule="evenodd"/><path d="M47.545 38.774H50.3v-17.8h-2.753zM57.68 25.522V35.9c-.635.454-1.18.847-1.785.847s-.998-.303-.998-.968V25.522h-2.753v10.7c0 1.725.847 2.784 2.3 2.784 1.604 0 2.178-.605 3.358-1.573v1.33h2.602v-13.25z"/><path d="M64.882 30.393v-.696c0-1.513.545-2.178 1.513-2.178.998 0 1.513.635 1.513 2.178v.696zm5.84-.212c0-2.905-1.12-4.932-4.296-4.932-3.147 0-4.296 2.027-4.296 4.932v3.903c0 2.905 1.12 4.932 4.296 4.932 3.086 0 4.236-1.906 4.296-4.72H67.97v.303c0 1.513-.545 2.178-1.513 2.178-.998 0-1.513-.635-1.513-2.178v-1.906h5.8v-2.5z" fill-rule="evenodd"/><path d="M73.143 27.8v8.26c0 2.027 1.15 2.965 3.237 2.965.696 0 .998-.06 1.392-.15v-2.36h-.908c-.635 0-.938-.393-.938-1.1V27.8h1.846v-2.27h-1.846v-3.57h-2.753v3.57H71.66v2.27z"/><g fill-rule="evenodd"><use xlink:href="#A"/><use xlink:href="#A" x="10.015"/></g><path d="M99.83 27.8v8.26c0 2.027 1.15 2.965 3.237 2.965.696 0 .998-.06 1.392-.15v-2.36h-.908c-.635 0-.938-.393-.938-1.1V27.8h1.846v-2.27h-1.846v-3.57H99.86v3.57h-1.513v2.27zm9.076 10.984V28.366c.635-.454 1.18-.847 1.785-.847s.998.303.998.968v10.287h2.753v-10.7c0-1.725-.847-2.784-2.3-2.784-1.604 0-2.178.605-3.207 1.483v-5.75h-2.753v17.76z"/><g transform="matrix(.426605 0 0 .426605 5.556258 11.847975)" fill-rule="evenodd"><ellipse ry="40.2" rx="24.3" cy="42.2" cx="31.4" fill="#fff"/><path d="M34.8 21l7 7-7 7zm0 43.1l7-7-7-7zm-7.5-21.5L12.1 27.3l4.4-4.4L28.6 35V6l22 22-14.5 14.6 14.6 14.6-22 22V50.1L16.5 62.2l-4.4-4.4zm4.1 42.5c18.6 0 31.4-8.8 31.4-42.6C62.8 8.8 50 0 31.4 0S0 8.8 0 42.6c0 33.7 12.8 42.5 31.4 42.5z" fill="#0082fc"/></g><defs><path id="A" d="M84.7 34.57c0 1.513-.545 2.178-1.513 2.178-.998 0-1.513-.635-1.513-2.178V29.7c0-1.513.545-2.178 1.513-2.178.998 0 1.513.635 1.513 2.178zm-5.8-.484c0 2.905 1.12 4.932 4.296 4.932 3.147 0 4.296-2.027 4.296-4.932v-3.903c0-2.905-1.12-4.932-4.296-4.932-3.147 0-4.296 2.027-4.296 4.932z"/></defs></svg>