<?xml version="1.0" encoding="UTF-8" standalone="no"?>
<!-- Generator: Adobe Illustrator 22.1.0, SVG Export Plug-In . SVG Version: 6.00 Build 0)  -->

<svg
   xmlns:dc="http://purl.org/dc/elements/1.1/"
   xmlns:cc="http://creativecommons.org/ns#"
   xmlns:rdf="http://www.w3.org/1999/02/22-rdf-syntax-ns#"
   xmlns:svg="http://www.w3.org/2000/svg"
   xmlns="http://www.w3.org/2000/svg"
   xmlns:sodipodi="http://sodipodi.sourceforge.net/DTD/sodipodi-0.dtd"
   xmlns:inkscape="http://www.inkscape.org/namespaces/inkscape"
   version="1.1"
   id="Layer_1"
   x="0px"
   y="0px"
   viewBox="0 0 64 64"
   xml:space="preserve"
   sodipodi:docname="rookout-icon.svg"
   width="64"
   height="64"
   inkscape:version="0.92.3 (2405546, 2018-03-11)"><metadata
   id="metadata43"><rdf:RDF><cc:Work
       rdf:about=""><dc:format>image/svg+xml</dc:format><dc:type
         rdf:resource="http://purl.org/dc/dcmitype/StillImage" /><dc:title></dc:title></cc:Work></rdf:RDF></metadata><defs
   id="defs41" /><sodipodi:namedview
   pagecolor="#ffffff"
   bordercolor="#666666"
   borderopacity="1"
   objecttolerance="10"
   gridtolerance="10"
   guidetolerance="10"
   inkscape:pageopacity="0"
   inkscape:pageshadow="2"
   inkscape:window-width="1920"
   inkscape:window-height="1001"
   id="namedview39"
   showgrid="false"
   inkscape:zoom="4.1688556"
   inkscape:cx="69.665389"
   inkscape:cy="17.880509"
   inkscape:window-x="-9"
   inkscape:window-y="-9"
   inkscape:window-maximized="1"
   inkscape:current-layer="Layer_1" />
<style
   type="text/css"
   id="style2">
	.st0{fill:#54476E;}
	.st1{fill-rule:evenodd;clip-rule:evenodd;fill:#54476E;}
	.st2{fill-rule:evenodd;clip-rule:evenodd;fill:#AF6BD6;}
	.st3{fill-rule:evenodd;clip-rule:evenodd;fill:#8C55B7;}
	.st4{fill-rule:evenodd;clip-rule:evenodd;fill:#FFFFFF;}
	.st5{fill:#FFB03F;}
	.st6{fill:#ED9140;}
	.st7{fill:#FFCE92;}
</style>

<g
   id="g36"
   transform="matrix(0.72892938,0,0,0.72892938,0.29157197,-4.8838266)">
	<path
   class="st1"
   d="M 53.5,6.7 C 52.8,7.9 52,9 51,9.9 c -2.1,1.7 -4.8,1.9 -7.4,1.7 h -0.1 -0.1 c -8.6,0 -15.6,7 -15.6,15.6 v 6.9 l -0.3,0.3 c -3.9,3.4 -5.4,8.2 -5.4,13.2 0,5.6 2.1,11.6 5.2,16.6 h -9.8 c -3,0 -5.2,-1.7 -6,-4.3 H 6 v 0.7 c 0,6.7 5.4,9.7 11.3,9.7 h 12.5 l -2.6,9.5 c -0.7,2.4 -0.7,5.1 0.5,7.4 0.9,1.7 2.4,3 4.3,3.4 1.3,0.3 2.7,0.2 4,-0.3 l 0.8,-0.3 0.4,0.7 c 0.2,0.3 0.4,0.6 0.6,0.9 1.4,1.8 3.5,2.9 5.8,2.9 2.3,0 4.4,-1.1 5.8,-2.9 0.2,-0.3 0.4,-0.6 0.6,-0.9 l 0.4,-0.7 0.8,0.3 c 1.2,0.5 2.6,0.6 3.9,0.3 1.9,-0.5 3.4,-1.7 4.3,-3.4 1.2,-2.3 1.1,-5 0.4,-7.4 l -2.6,-9.5 h 12.5 c 5.9,0 11.3,-3 11.3,-9.7 V 60 h -5.6 c -0.8,2.6 -3,4.3 -6,4.3 h -9.8 c 3.1,-5 5.2,-11 5.2,-16.6 0,-5.1 -1.5,-9.8 -5.4,-13.2 l -0.1,-0.1 7.6,-4.9 C 65.7,26.1 60.5,21.6 57.7,20.1 57.3,19.2 56.8,18.4 56.2,17.7 L 55.8,17.3 56,16.8 C 57.1,13.9 55.2,9.5 53.5,6.7"
   id="path6"
   inkscape:connector-curvature="0"
   style="clip-rule:evenodd;fill:#54476e;fill-rule:evenodd" />
	<path
   class="st2"
   d="m 54.5,70.4 2.8,10.2 c 2.2,8.1 -5.6,10.8 -8.5,3.9 0.5,10.3 -11.1,10.3 -10.6,0 -2.8,6.9 -10.8,4.2 -8.6,-3.9 l 2.8,-10.2 h 1.5 c 3.3,0 5.9,1.8 6.7,5.1 h 5.7 c 0.8,-3.3 3.3,-5.1 6.7,-5.1 z m -9.7,-50 c 2.6,0 4.7,2.1 4.7,4.7 0,2.6 -2.1,4.7 -4.7,4.7 -2.6,0 -4.7,-2.1 -4.7,-4.7 0,-2.6 2.1,-4.7 4.7,-4.7 z m 11.8,15 c 3.6,2.5 5.8,6.4 5.8,12.3 0,4.5 -1.5,9.4 -4,13.7 C 57.8,61 56.9,61 55.7,60.8 55,60.7 54.4,60 53.2,60 c -1.3,0 -1.9,0.7 -2.6,0.8 -1.4,0.2 -2.3,0.1 -2.9,0.7 -0.4,0.4 -0.7,1.2 -0.8,1.8 0,0.3 -0.1,0.7 -0.1,1.1 0,0.4 0,0.7 0,1.1 -1.1,0.6 -2,1.6 -2.7,3 l -0.6,1 -0.6,-1 c -0.8,-1.5 -1.7,-2.4 -2.7,-3.1 0,-0.4 0,-0.7 0,-1.1 0,-0.4 0,-0.8 -0.1,-1.1 -0.1,-0.6 -0.3,-1.4 -0.8,-1.8 -0.6,-0.6 -1.5,-0.5 -2.9,-0.7 -0.7,-0.1 -1.3,-0.8 -2.6,-0.8 -1.3,0 -1.8,0.7 -2.5,0.8 -1.2,0.2 -2.1,0.2 -2.7,0.6 -2.4,-4.3 -4,-9.2 -4,-13.7 0,-5.8 2.2,-9.8 5.8,-12.3 1.1,-0.7 2.2,-1.4 3.3,-2.1 0.8,-0.5 0.9,-1.1 -0.4,-1 l -3,0.3 v -5.4 c 0,-7.2 5.9,-13.1 13.1,-13.1 0,0 8.2,0.4 9.8,-3.2 1.5,2.9 0.7,5.3 -0.8,6.7 1.2,0.5 2.2,1.8 3,3.3 -3,4.3 -3.1,11 1.2,14.6 z"
   id="path8"
   inkscape:connector-curvature="0"
   style="clip-rule:evenodd;fill:#af6bd6;fill-rule:evenodd" />
	<path
   class="st3"
   d="m 28.6,61.4 c -2.4,-4.3 -4,-9.2 -4,-13.7 0,-5.8 2.2,-9.8 5.8,-12.3 1.1,-0.7 2.2,-1.4 3.3,-2.1 0.8,-0.5 0.9,-1.1 -0.4,-1 l -3,0.3 v -5.4 c 0,-4.6 2.4,-8.6 6,-11 -4.8,5.6 -2,14.9 2.8,17.3 C 27.4,40.7 31,50.9 36.3,60.7 35.6,60.6 35,60 33.8,60 32.5,60 32,60.7 31.3,60.8 30.1,61 29.2,61 28.6,61.4 M 53.2,11 c 1.5,2.9 0.7,5.3 -0.8,6.7 -0.8,-0.3 -1.2,-0.5 -1.9,-0.6 -0.2,0 -0.3,-0.3 0,-0.5 1.7,-1.2 2.8,-2.8 2.7,-5.6 z M 43.9,92.2 C 41,92.4 38,89.9 38.2,84.5 35.4,91.4 27.4,88.7 29.6,80.6 l 2.8,-10.2 h 1.5 c 3.3,0 5.9,1.8 6.7,5.1 h 5.6 v 0.1 c -2.7,5.5 -2.3,10.7 -2.3,16.6 z"
   id="path10"
   inkscape:connector-curvature="0"
   style="clip-rule:evenodd;fill:#8c55b7;fill-rule:evenodd" />
	<path
   class="st4"
   d="m 43.5,39.2 c 6.6,0 12,5 12,13.5 0,2.5 -0.6,5.1 -1.6,7.4 C 53.6,60 53.4,60 53.1,60 c -1.3,0 -1.9,0.7 -2.6,0.8 -1.4,0.2 -2.3,0.1 -2.9,0.7 -0.4,0.4 -0.7,1.2 -0.8,1.8 0,0.3 -0.1,0.7 -0.1,1.1 0,0.4 0,0.7 0,1.1 -1.1,0.6 -2,1.6 -2.7,3 l -0.6,1 -0.6,-1 C 42,67 41.1,66.1 40.1,65.4 c 0,-0.4 0,-0.7 0,-1.1 0,-0.4 0,-0.8 -0.1,-1.1 -0.1,-0.6 -0.3,-1.4 -0.8,-1.8 -0.6,-0.6 -1.5,-0.5 -2.9,-0.7 -0.7,-0.1 -1.3,-0.8 -2.6,-0.8 -0.3,0 -0.5,0 -0.7,0.1 -1,-2.3 -1.6,-4.9 -1.6,-7.4 0.1,-8.4 5.4,-13.4 12.1,-13.4"
   id="path12"
   inkscape:connector-curvature="0"
   style="clip-rule:evenodd;fill:#ffffff;fill-rule:evenodd" />
	<path
   class="st5"
   d="m 60.9,25 c -1.3,-1.2 -2.8,-2.2 -4.2,-3 -1.2,2.1 -1.6,4.1 -1.5,5.8 0.1,2.1 0.8,3.9 1.7,5 l 7.2,-4.2 c -0.9,-1.2 -2,-2.5 -3.2,-3.6"
   id="path14"
   inkscape:connector-curvature="0"
   style="fill:#ffb03f" />
	<path
   class="st6"
   d="m 55.4,29.8 c 0.3,1.3 0.9,2.3 1.5,3.1 l 7.2,-4.2 c -2.8,0.8 -5.8,1.2 -8.7,1.1"
   id="path16"
   inkscape:connector-curvature="0"
   style="fill:#ed9140" />
	<path
   class="st7"
   d="m 62.5,27.7 c -1.3,-1.7 -2.9,-2.9 -5,-4.2 -0.4,0.5 -0.6,1.1 -0.7,1.8 1.9,0.7 3.8,1.5 5.7,2.4"
   id="path18"
   inkscape:connector-curvature="0"
   style="fill:#ffce92" />
	<path
   class="st4"
   d="m 46.3,22 c 0.8,0 1.5,0.7 1.5,1.5 0,0.8 -0.7,1.5 -1.5,1.5 -0.8,0 -1.5,-0.7 -1.5,-1.5 -0.1,-0.9 0.6,-1.5 1.5,-1.5"
   id="path20"
   inkscape:connector-curvature="0"
   style="clip-rule:evenodd;fill:#ffffff;fill-rule:evenodd" />
	<path
   class="st6"
   d="m 34.6,62.4 c -0.2,-0.2 -0.5,-0.3 -0.8,-0.3 -0.3,0 -0.5,0.1 -0.7,0.3 -0.2,0.2 -0.3,0.4 -0.3,0.7 0,0.4 0,0.8 0,1.2 0,0.4 0,0.8 0,1.2 0,0.4 0,0.8 0,1.2 0,0.4 0,0.8 0,1.2 0,0.3 0.1,0.5 0.3,0.7 0.2,0.2 0.5,0.3 0.7,0.3 0.3,0 0.5,-0.1 0.7,-0.3 0.2,-0.2 0.3,-0.4 0.3,-0.7 0,-0.4 0,-0.8 0,-1.2 0,-0.4 0,-0.8 0,-1.2 0,-0.4 0,-0.8 0,-1.2 0,-0.4 0,-0.8 0,-1.2 0.1,-0.3 0,-0.6 -0.2,-0.7 m -3.9,0 c -0.1,0 -0.1,0 0,0 v 0 c -0.4,0 -0.7,0.2 -0.9,0.4 -0.2,0.2 -0.4,0.5 -0.4,0.8 0,0.3 -0.1,0.6 -0.1,0.9 0,0.3 0,0.6 0,0.9 0,0.3 0,0.6 0,0.9 0,0.3 0,0.6 0,0.9 0,0.3 0.2,0.6 0.4,0.8 0.2,0.2 0.5,0.4 0.8,0.4 v 0 c 0,0 0.1,0 0.1,0 0.2,0 0.4,-0.1 0.6,-0.3 0.2,-0.2 0.3,-0.4 0.3,-0.7 0,0 0,-0.1 0,-0.1 0,-0.3 0,-0.6 0,-1 0,-0.3 0,-0.6 0,-1 0,-0.3 0,-0.6 0,-0.9 0,-0.3 0,-0.6 0,-1 0,0 0,-0.1 0,-0.1 0,-0.3 -0.1,-0.5 -0.3,-0.7 -0.1,-0.1 -0.3,-0.2 -0.5,-0.2 z m 7.2,0.5 c -0.2,-0.2 -0.5,-0.4 -0.8,-0.4 v 0 c 0,0 0,0 -0.1,0 -0.2,0 -0.4,0.1 -0.6,0.3 -0.2,0.2 -0.3,0.4 -0.3,0.7 0,0.1 0,0.1 0,0.1 0,0.3 0,0.7 0,1 0,0.3 0,0.7 0,1 v 0 c 0,0.3 0,0.7 0,1 0,0.3 0,0.7 0,1 0,0 0,0.1 0,0.2 v 0 c 0,0.3 0.1,0.5 0.3,0.7 0.1,0.2 0.3,0.2 0.5,0.3 0,0 0,0 0.1,0 v 0 c 0.3,0 0.6,-0.2 0.8,-0.4 0.2,-0.2 0.4,-0.6 0.5,-0.9 0,-0.3 0.1,-0.6 0.1,-0.9 0,-0.3 0,-0.6 0,-0.9 0,-0.3 0,-0.6 0,-0.9 0,-0.3 0,-0.6 -0.1,-0.9 0,-0.5 -0.2,-0.8 -0.4,-1 z"
   id="path22"
   inkscape:connector-curvature="0"
   style="fill:#ed9140" />
	<path
   class="st5"
   d="m 35,65.8 c -0.3,0.5 -0.7,0.8 -1.1,0.8 -0.4,0 -0.8,-0.3 -1.1,-0.9 v -0.2 c 0,-0.4 0,-0.8 0,-1.2 0,-0.4 0,-0.8 0,-1.2 0,-0.3 0.1,-0.5 0.3,-0.7 0.2,-0.2 0.5,-0.3 0.7,-0.3 0.3,0 0.6,0.1 0.8,0.3 0.2,0.2 0.3,0.4 0.3,0.7 0,0.4 0,0.8 0,1.2 0,0.4 0,0.8 0,1.2 z m -3.5,-0.5 c -0.3,0.5 -0.7,0.7 -1.1,0.7 -0.5,0 -0.9,-0.4 -1.2,-0.9 0,-0.2 0,-0.4 0,-0.6 0,-0.3 0,-0.6 0.1,-0.9 0,-0.3 0.2,-0.6 0.4,-0.8 0.2,-0.2 0.5,-0.4 0.8,-0.4 v 0 c 0,0 0,0 0.1,0 0.2,0 0.4,0.1 0.6,0.3 0.2,0.2 0.3,0.4 0.3,0.7 0,0 0,0.1 0,0.1 0,0.3 0,0.6 0,1 0,0.2 0,0.5 0,0.8 z m 6.4,-2.4 c -0.2,-0.2 -0.5,-0.4 -0.8,-0.4 v 0 c 0,0 0,0 -0.1,0 -0.2,0 -0.4,0.1 -0.6,0.3 -0.2,0.2 -0.3,0.4 -0.3,0.7 0,0.1 0,0.1 0,0.1 0,0.3 0,0.7 0,1 0,0.2 0,0.4 0,0.6 0.3,0.5 0.7,0.9 1.1,0.9 0.4,0 0.8,-0.3 1.1,-0.8 0,-0.2 0,-0.4 0,-0.6 0,-0.3 0,-0.6 -0.1,-0.9 0.1,-0.4 -0.1,-0.7 -0.3,-0.9 z"
   id="path24"
   inkscape:connector-curvature="0"
   style="fill:#ffb03f" />
	<path
   class="st6"
   d="m 52.3,62.4 c 0.2,-0.2 0.5,-0.3 0.8,-0.3 0.3,0 0.5,0.1 0.7,0.3 0.2,0.2 0.3,0.4 0.3,0.7 0,0.4 0,0.8 0,1.2 0,0.4 0,0.8 0,1.2 0,0.4 0,0.8 0,1.2 0,0.4 0,0.8 0,1.2 0,0.3 -0.1,0.5 -0.3,0.7 -0.2,0.2 -0.5,0.3 -0.7,0.3 -0.3,0 -0.5,-0.1 -0.7,-0.3 C 52.1,68.5 52,68.2 52,68 c 0,-0.4 0,-0.8 0,-1.2 0,-0.4 0,-0.8 0,-1.2 0,-0.4 0,-0.8 0,-1.2 0,-0.4 0,-0.8 0,-1.2 0,-0.4 0.1,-0.7 0.3,-0.8 m 4,0 c 0,0 0,0 0,0 v 0 c 0.4,0 0.7,0.2 0.9,0.4 0.2,0.2 0.4,0.5 0.4,0.8 0,0.3 0.1,0.6 0.1,0.9 0,0.3 0,0.6 0,0.9 0,0.3 0,0.6 0,0.9 0,0.3 0,0.6 0,0.9 0,0.3 -0.2,0.6 -0.4,0.8 -0.2,0.2 -0.5,0.4 -0.8,0.4 v 0 c 0,0 -0.1,0 -0.1,0 -0.2,0 -0.4,-0.1 -0.6,-0.3 -0.2,-0.2 -0.3,-0.4 -0.3,-0.7 0,0 0,-0.1 0,-0.1 0,-0.3 0,-0.6 0,-1 0,-0.3 0,-0.6 0,-1 0,-0.3 0,-0.6 0,-0.9 0,-0.3 0,-0.6 0,-1 0,0 0,-0.1 0,-0.1 0,-0.3 0.1,-0.5 0.3,-0.7 0,-0.1 0.2,-0.2 0.5,-0.2 z M 49,62.9 c 0.2,-0.2 0.5,-0.4 0.8,-0.4 v 0 c 0,0 0,0 0.1,0 0.2,0 0.4,0.1 0.6,0.3 0.2,0.2 0.3,0.4 0.3,0.7 0,0.1 0,0.1 0,0.1 0,0.3 0,0.7 0,1 0,0.3 0,0.7 0,1 v 0 c 0,0.3 0,0.7 0,1 0,0.3 0,0.7 0,1 0,0 0,0.1 0,0.2 v 0 c 0,0.3 -0.1,0.5 -0.3,0.7 -0.1,0.2 -0.3,0.2 -0.5,0.3 0,0 0,0 -0.1,0 v 0 c -0.3,0 -0.6,-0.2 -0.8,-0.4 -0.2,-0.2 -0.4,-0.6 -0.5,-0.9 0,-0.3 -0.1,-0.6 -0.1,-0.9 0,-0.3 0,-0.6 0,-0.9 0,-0.3 0,-0.6 0,-0.9 0,-0.3 0,-0.6 0.1,-0.9 0,-0.5 0.2,-0.8 0.4,-1 z"
   id="path26"
   inkscape:connector-curvature="0"
   style="fill:#ed9140" />
	<path
   class="st5"
   d="m 52,65.8 c 0.3,0.5 0.7,0.8 1.1,0.8 0.4,0 0.8,-0.3 1.1,-0.9 v -0.2 c 0,-0.4 0,-0.8 0,-1.2 0,-0.4 0,-0.8 0,-1.2 0,-0.3 -0.1,-0.5 -0.3,-0.7 -0.2,-0.2 -0.5,-0.3 -0.7,-0.3 -0.3,0 -0.6,0.1 -0.8,0.3 -0.2,0.2 -0.3,0.4 -0.3,0.7 0,0.4 0,0.8 0,1.2 0,0.4 0,0.8 0,1.2 z m 3.4,-0.5 c 0.3,0.5 0.7,0.7 1.1,0.7 0.5,0 0.9,-0.4 1.2,-0.9 0,-0.2 0,-0.4 0,-0.6 0,-0.3 0,-0.6 -0.1,-0.9 0,-0.3 -0.2,-0.6 -0.4,-0.8 -0.2,-0.2 -0.5,-0.4 -0.8,-0.4 v 0 c 0,0 0,0 -0.1,0 -0.2,0 -0.4,0.1 -0.6,0.3 -0.2,0.2 -0.3,0.4 -0.3,0.7 0,0 0,0.1 0,0.1 0,0.3 0,0.6 0,1 0,0.2 0,0.5 0,0.8 z M 49,62.9 c 0.2,-0.2 0.5,-0.4 0.8,-0.4 v 0 c 0,0 0,0 0.1,0 0.2,0 0.4,0.1 0.6,0.3 0.2,0.2 0.3,0.4 0.3,0.7 0,0.1 0,0.1 0,0.1 0,0.3 0,0.7 0,1 0,0.2 0,0.4 0,0.6 -0.3,0.5 -0.7,0.9 -1.1,0.9 -0.4,0 -0.8,-0.3 -1.1,-0.8 0,-0.2 0,-0.4 0,-0.6 0,-0.3 0,-0.6 0.1,-0.9 -0.1,-0.4 0.1,-0.7 0.3,-0.9 z"
   id="path28"
   inkscape:connector-curvature="0"
   style="fill:#ffb03f" />
	<circle
   class="st2"
   cx="45.299999"
   cy="24.799999"
   r="5.4000001"
   id="circle30"
   style="clip-rule:evenodd;fill:#af6bd6;fill-rule:evenodd" />
	<circle
   class="st1"
   cx="44.900002"
   cy="24.9"
   r="3.9000001"
   id="circle32"
   style="clip-rule:evenodd;fill:#54476e;fill-rule:evenodd" />
	<circle
   class="st4"
   cx="46.200001"
   cy="23.4"
   r="1.3"
   id="circle34"
   style="clip-rule:evenodd;fill:#ffffff;fill-rule:evenodd" />
</g>
</svg>