<svg xmlns="http://www.w3.org/2000/svg" width="64" height="64"><g transform="matrix(.728929 0 0 .728929 .291572 -4.883827)"><g fill-rule="evenodd"><path d="M53.5 6.7C52.8 7.9 52 9 51 9.9c-2.1 1.7-4.8 1.9-7.4 1.7h-.2c-8.6 0-15.6 7-15.6 15.6v6.9l-.3.3c-3.9 3.4-5.4 8.2-5.4 13.2 0 5.6 2.1 11.6 5.2 16.6h-9.8c-3 0-5.2-1.7-6-4.3H6v.7c0 6.7 5.4 9.7 11.3 9.7h12.5l-2.6 9.5c-.7 2.4-.7 5.1.5 7.4.9 1.7 2.4 3 4.3 3.4 1.3.3 2.7.2 4-.3l.8-.3.4.7.6.9c1.4 1.8 3.5 2.9 5.8 2.9s4.4-1.1 5.8-2.9l.6-.9.4-.7.8.3c1.2.5 2.6.6 3.9.3 1.9-.5 3.4-1.7 4.3-3.4 1.2-2.3 1.1-5 .4-7.4l-2.6-9.5h12.5c5.9 0 11.3-3 11.3-9.7V60h-5.6c-.8 2.6-3 4.3-6 4.3h-9.8c3.1-5 5.2-11 5.2-16.6 0-5.1-1.5-9.8-5.4-13.2l-.1-.1 7.6-4.9c-1.2-3.4-6.4-7.9-9.2-9.4-.4-.9-.9-1.7-1.5-2.4l-.4-.4.2-.5c1.1-2.9-.8-7.3-2.5-10.1" fill="#54476e"/><path d="M54.5 70.4l2.8 10.2c2.2 8.1-5.6 10.8-8.5 3.9.5 10.3-11.1 10.3-10.6 0-2.8 6.9-10.8 4.2-8.6-3.9l2.8-10.2h1.5c3.3 0 5.9 1.8 6.7 5.1h5.7c.8-3.3 3.3-5.1 6.7-5.1zm-9.7-50c2.6 0 4.7 2.1 4.7 4.7s-2.1 4.7-4.7 4.7-4.7-2.1-4.7-4.7 2.1-4.7 4.7-4.7zm11.8 15c3.6 2.5 5.8 6.4 5.8 12.3 0 4.5-1.5 9.4-4 13.7-.6-.4-1.5-.4-2.7-.6-.7-.1-1.3-.8-2.5-.8-1.3 0-1.9.7-2.6.8-1.4.2-2.3.1-2.9.7-.4.4-.7 1.2-.8 1.8 0 .3-.1.7-.1 1.1v1.1c-1.1.6-2 1.6-2.7 3l-.6 1-.6-1c-.8-1.5-1.7-2.4-2.7-3.1v-1.1c0-.4 0-.8-.1-1.1-.1-.6-.3-1.4-.8-1.8-.6-.6-1.5-.5-2.9-.7-.7-.1-1.3-.8-2.6-.8s-1.8.7-2.5.8c-1.2.2-2.1.2-2.7.6-2.4-4.3-4-9.2-4-13.7 0-5.8 2.2-9.8 5.8-12.3l3.3-2.1c.8-.5.9-1.1-.4-1l-3 .3v-5.4c0-7.2 5.9-13.1 13.1-13.1 0 0 8.2.4 9.8-3.2 1.5 2.9.7 5.3-.8 6.7 1.2.5 2.2 1.8 3 3.3-3 4.3-3.1 11 1.2 14.6z" fill="#af6bd6"/><path d="M28.6 61.4c-2.4-4.3-4-9.2-4-13.7 0-5.8 2.2-9.8 5.8-12.3l3.3-2.1c.8-.5.9-1.1-.4-1l-3 .3v-5.4c0-4.6 2.4-8.6 6-11-4.8 5.6-2 14.9 2.8 17.3-11.7 7.2-8.1 17.4-2.8 27.2-.7-.1-1.3-.7-2.5-.7-1.3 0-1.8.7-2.5.8-1.2.2-2.1.2-2.7.6M53.2 11c1.5 2.9.7 5.3-.8 6.7-.8-.3-1.2-.5-1.9-.6-.2 0-.3-.3 0-.5 1.7-1.2 2.8-2.8 2.7-5.6zm-9.3 81.2c-2.9.2-5.9-2.3-5.7-7.7-2.8 6.9-10.8 4.2-8.6-3.9l2.8-10.2h1.5c3.3 0 5.9 1.8 6.7 5.1h5.6v.1c-2.7 5.5-2.3 10.7-2.3 16.6z" fill="#8c55b7"/><path d="M43.5 39.2c6.6 0 12 5 12 13.5 0 2.5-.6 5.1-1.6 7.4-.3-.1-.5-.1-.8-.1-1.3 0-1.9.7-2.6.8-1.4.2-2.3.1-2.9.7-.4.4-.7 1.2-.8 1.8 0 .3-.1.7-.1 1.1v1.1c-1.1.6-2 1.6-2.7 3l-.6 1-.6-1c-.8-1.5-1.7-2.4-2.7-3.1v-1.1c0-.4 0-.8-.1-1.1-.1-.6-.3-1.4-.8-1.8-.6-.6-1.5-.5-2.9-.7-.7-.1-1.3-.8-2.6-.8-.3 0-.5 0-.7.1-1-2.3-1.6-4.9-1.6-7.4.1-8.4 5.4-13.4 12.1-13.4" fill="#fff"/></g><path d="M60.9 25c-1.3-1.2-2.8-2.2-4.2-3-1.2 2.1-1.6 4.1-1.5 5.8.1 2.1.8 3.9 1.7 5l7.2-4.2c-.9-1.2-2-2.5-3.2-3.6" fill="#ffb03f"/><path d="M55.4 29.8c.3 1.3.9 2.3 1.5 3.1l7.2-4.2c-2.8.8-5.8 1.2-8.7 1.1" fill="#ed9140"/><path d="M62.5 27.7c-1.3-1.7-2.9-2.9-5-4.2-.4.5-.6 1.1-.7 1.8l5.7 2.4" fill="#ffce92"/><path d="M46.3 22a1.54 1.54 0 0 1 1.5 1.5 1.54 1.54 0 0 1-1.5 1.5 1.54 1.54 0 0 1-1.5-1.5c-.1-.9.6-1.5 1.5-1.5" fill-rule="evenodd" fill="#fff"/><path d="M34.6 62.4c-.2-.2-.5-.3-.8-.3s-.5.1-.7.3-.3.4-.3.7v4.8c0 .3.1.5.3.7a1.08 1.08 0 0 0 .7.3c.3 0 .5-.1.7-.3s.3-.4.3-.7v-4.8c.1-.3 0-.6-.2-.7m-3.9 0c-.1 0-.1 0 0 0-.4 0-.7.2-.9.4s-.4.5-.4.8-.1.6-.1.9v2.7c0 .3.2.6.4.8s.5.4.8.4h.1c.2 0 .4-.1.6-.3s.3-.4.3-.7v-4.1c0-.3-.1-.5-.3-.7-.1-.1-.3-.2-.5-.2zm7.2.5c-.2-.2-.5-.4-.8-.4H37c-.2 0-.4.1-.6.3s-.3.4-.3.7v4.3c0 .3.1.5.3.7.1.2.3.2.5.3h.1c.3 0 .6-.2.8-.4s.4-.6.5-.9c0-.3.1-.6.1-.9v-1.8c0-.3 0-.6-.1-.9 0-.5-.2-.8-.4-1z" fill="#ed9140"/><path d="M35 65.8c-.3.5-.7.8-1.1.8s-.8-.3-1.1-.9v-2.6c0-.3.1-.5.3-.7a1.08 1.08 0 0 1 .7-.3c.3 0 .6.1.8.3s.3.4.3.7v2.4zm-3.5-.5c-.3.5-.7.7-1.1.7-.5 0-.9-.4-1.2-.9v-.6c0-.3 0-.6.1-.9 0-.3.2-.6.4-.8s.5-.4.8-.4h.1c.2 0 .4.1.6.3s.3.4.3.7v1.9zm6.4-2.4c-.2-.2-.5-.4-.8-.4H37c-.2 0-.4.1-.6.3s-.3.4-.3.7v1.7c.3.5.7.9 1.1.9s.8-.3 1.1-.8v-.6c0-.3 0-.6-.1-.9.1-.4-.1-.7-.3-.9z" fill="#ffb03f"/><path d="M52.3 62.4c.2-.2.5-.3.8-.3s.5.1.7.3.3.4.3.7v4.8c0 .3-.1.5-.3.7a1.08 1.08 0 0 1-.7.3c-.3 0-.5-.1-.7-.3-.3-.1-.4-.4-.4-.6v-4.8c0-.4.1-.7.3-.8m4 0c.4 0 .7.2.9.4s.4.5.4.8.1.6.1.9v2.7c0 .3-.2.6-.4.8s-.5.4-.8.4h-.1c-.2 0-.4-.1-.6-.3s-.3-.4-.3-.7v-4.1c0-.3.1-.5.3-.7 0-.1.2-.2.5-.2zm-7.3.5c.2-.2.5-.4.8-.4h.1c.2 0 .4.1.6.3s.3.4.3.7v4.3c0 .3-.1.5-.3.7-.1.2-.3.2-.5.3h-.1c-.3 0-.6-.2-.8-.4s-.4-.6-.5-.9c0-.3-.1-.6-.1-.9v-1.8c0-.3 0-.6.1-.9 0-.5.2-.8.4-1z" fill="#ed9140"/><path d="M52 65.8c.3.5.7.8 1.1.8s.8-.3 1.1-.9v-2.6c0-.3-.1-.5-.3-.7a1.08 1.08 0 0 0-.7-.3c-.3 0-.6.1-.8.3s-.3.4-.3.7v2.4zm3.4-.5c.3.5.7.7 1.1.7.5 0 .9-.4 1.2-.9v-.6c0-.3 0-.6-.1-.9 0-.3-.2-.6-.4-.8s-.5-.4-.8-.4h-.1c-.2 0-.4.1-.6.3s-.3.4-.3.7v1.9zM49 62.9c.2-.2.5-.4.8-.4h.1c.2 0 .4.1.6.3s.3.4.3.7v1.7c-.3.5-.7.9-1.1.9s-.8-.3-1.1-.8v-.6c0-.3 0-.6.1-.9-.1-.4.1-.7.3-.9z" fill="#ffb03f"/><g fill-rule="evenodd"><circle cx="45.3" cy="24.8" r="5.4" fill="#af6bd6"/><circle cx="44.9" cy="24.9" r="3.9" fill="#54476e"/><circle cx="46.2" cy="23.4" r="1.3" fill="#fff"/></g></g></svg>