<svg xmlns="http://www.w3.org/2000/svg" width="120" height="60"><path d="M66.723 20.224h-3.836v-1.98a2.88 2.88 0 0 0-2.867-2.867 2.88 2.88 0 0 0-2.867 2.867v1.98h-3.836v-1.98c0-3.715 3.028-6.703 6.703-6.703 3.715 0 6.703 3.028 6.703 6.703z" fill="#ffa400"/><path d="M68.298 20.224H51.743c-.727 0-1.292.565-1.292 1.292V33.75c0 .727.565 1.292 1.292 1.292h16.555c.727 0 1.292-.565 1.292-1.292V21.516c-.04-.727-.606-1.292-1.292-1.292zm-7.47 8.035v1.656c0 .444-.363.848-.848.848-.444 0-.848-.363-.848-.848V28.26c-.525-.283-.848-.848-.848-1.494 0-.93.767-1.696 1.696-1.696s1.696.767 1.696 1.696c.04.646-.323 1.21-.848 1.494z" fill="#003a70"/><path d="M50.047 18.407H46.05a1.17 1.17 0 1 1 0-2.342h3.997a1.17 1.17 0 1 1 0 2.342zm2.826-6.3c-.242 0-.525-.08-.727-.283l-3.15-2.584c-.485-.404-.565-1.13-.162-1.656.404-.485 1.13-.565 1.656-.162l3.15 2.584c.485.404.565 1.13.162 1.656-.283.283-.606.444-.93.444zm7.147-2.745a1.17 1.17 0 0 1-1.171-1.171V4.154a1.17 1.17 0 1 1 2.342 0V8.2a1.17 1.17 0 0 1-1.171 1.171zm7.107 2.746a1.13 1.13 0 0 1-.888-.444c-.404-.485-.323-1.252.162-1.656l3.15-2.584c.485-.404 1.252-.323 1.656.162s.323 1.252-.162 1.656l-3.15 2.584a1.13 1.13 0 0 1-.767.283zm6.823 6.3h-4.038a1.17 1.17 0 1 1 0-2.342h4.038a1.17 1.17 0 1 1 0 2.342z" fill="#ffa400"/><path d="M13.218 61.3V29h21.7v6.6h-14.2v6.1h13.4v6.2h-13.4v6.7h15v6.7zm42.2 0V48.9c0-.6-.1-1.2-.2-1.8a5.27 5.27 0 0 0-.5-1.5 2.41 2.41 0 0 0-1-1c-.4-.3-1-.4-1.7-.4s-1.3.1-1.8.4-.9.6-1.3 1.1c-.3.5-.6 1-.8 1.6s-.3 1.2-.3 1.8v12.3h-7.5V38.7h7.2v3.1h.1c.3-.5.6-1 1.1-1.4.4-.5 1-.9 1.5-1.2.6-.3 1.2-.6 1.9-.8s1.4-.3 2.2-.3c1.5 0 2.8.3 3.9.8s1.9 1.3 2.6 2.1c.7.9 1.1 1.9 1.4 3s.4 2.2.4 3.4v14h-7.2zm26.8-15.4c-.4-.5-1-1-1.7-1.3s-1.5-.5-2.2-.5a4.65 4.65 0 0 0-2.1.5c-.6.3-1.2.7-1.6 1.3s-.8 1.1-1.1 1.8-.4 1.4-.4 2.2.1 1.5.4 2.2c.2.7.6 1.3 1.1 1.8s1 1 1.7 1.3 1.4.5 2.2.5 1.5-.1 2.3-.4c.7-.3 1.3-.7 1.8-1.3l4.1 5.1c-.9.9-2.2 1.6-3.6 2.1-1.5.5-3.1.8-4.7.8a15.88 15.88 0 0 1-5-.8c-1.6-.5-2.9-1.3-4.1-2.4-1.1-1-2-2.3-2.7-3.8s-1-3.2-1-5.1.3-3.5 1-5 1.6-2.8 2.7-3.8 2.5-1.9 4.1-2.4c1.6-.6 3.2-.8 5-.8.8 0 1.6.1 2.4.2l2.3.6 2.1 1c.6.4 1.2.8 1.6 1.3zm21.8-1.1c-.3-.1-.7-.2-1-.2h-.9c-1 0-1.8.2-2.5.5-.7.4-1.2.8-1.6 1.3s-.7 1.1-.9 1.7-.3 1.1-.3 1.6v11.6h-7.5V38.6h7.2v3.3h.1c.6-1.2 1.4-2.1 2.5-2.8s2.3-1.1 3.7-1.1h.9c.3 0 .5.1.7.1zm17.6 19.9l-1.5 3.2c-.6.9-1.2 1.7-2 2.4s-1.7 1.1-2.7 1.5c-1 .3-2.3.5-3.7.5-.7 0-1.4 0-2.2-.1-.7-.1-1.4-.2-1.9-.4l.8-6.3 1.2.3c.4.1.8.1 1.2.1 1.2 0 2-.3 2.5-.8s1-1.3 1.3-2.3l.7-1.9-9.5-22.3h8.3l5.1 14.6h.1l4.5-14.6h7.9zm37.4-14.8c0 1.6-.2 3.1-.7 4.6s-1.2 2.7-2.1 3.9c-.9 1.1-2.1 2-3.4 2.7s-2.9 1-4.6 1c-1.4 0-2.7-.3-4-.8-1.2-.6-2.2-1.3-2.9-2.3h-.1v13.5h-7.5V38.9h7.1v2.8h.1c.7-.9 1.7-1.7 2.9-2.4s2.7-1 4.4-1c1.6 0 3.1.3 4.5 1 1.3.6 2.5 1.5 3.4 2.6s1.6 2.4 2.1 3.8c.5 1.1.8 2.6.8 4.2zm-7.3 0c0-.7-.1-1.4-.3-2.1s-.6-1.3-1-1.8-1-1-1.7-1.3-1.4-.5-2.3-.5-1.6.2-2.3.5-1.2.8-1.7 1.3-.8 1.2-1.1 1.9-.4 1.4-.4 2.1.1 1.4.4 2.1.6 1.3 1.1 1.9c.5.5 1 1 1.7 1.3s1.4.5 2.3.5 1.7-.2 2.3-.5c.7-.3 1.2-.8 1.7-1.3.4-.5.8-1.2 1-1.9.2-.8.3-1.5.3-2.2zm19.2-5.7v8.7c0 1.1.2 1.9.6 2.4s1.1.8 2.2.8c.4 0 .8 0 1.2-.1l1-.3.1 5.5c-.5.2-1.2.3-2 .5l-2.4.2c-1.5 0-2.8-.2-3.8-.6s-1.9-.9-2.5-1.6-1.1-1.6-1.3-2.6-.4-2.1-.4-3.3v-9.6h-3.6v-5.6h3.6v-6h7.3v6h5.3v5.6zm-261.33 16V27.9h7.8v25.5h12.5v6.8zm46.1-11.1v1.8h-16.5c.1.6.3 1.2.6 1.7s.7 1 1.2 1.3c.5.4 1.1.7 1.7.9a6.28 6.28 0 0 0 1.9.3c1.2 0 2.2-.2 3-.7a5.51 5.51 0 0 0 2-1.7l5.2 3.3c-1.1 1.6-2.5 2.7-4.2 3.6-1.7.8-3.8 1.3-6.1 1.3-1.7 0-3.3-.3-4.8-.8s-2.8-1.3-4-2.3c-1.1-1-2-2.3-2.7-3.8s-1-3.2-1-5.1.3-3.5 1-5c.6-1.5 1.5-2.8 2.6-3.8s2.4-1.9 3.9-2.4c1.5-.6 3.1-.9 4.8-.9s3.2.3 4.6.8c1.4.6 2.6 1.4 3.6 2.4 1 1.1 1.8 2.4 2.3 3.9.6 1.6.9 3.3.9 5.2zm-6.9-2.8c0-1.2-.4-2.2-1.1-3.1s-1.9-1.3-3.4-1.3c-.7 0-1.4.1-2 .3s-1.1.5-1.6.9-.8.9-1.1 1.4-.4 1.1-.5 1.7h9.7zm18.9-3.2v8.7c0 1.1.2 1.9.6 2.4s1.1.8 2.2.8c.4 0 .8 0 1.2-.1l1-.3.1 5.5c-.5.2-1.2.3-2 .5l-2.4.2c-1.5 0-2.8-.2-3.8-.6s-1.9-.9-2.5-1.6-1.1-1.6-1.3-2.6-.4-2.1-.4-3.3v-9.6h-3.7v-5.6h3.6v-6h7.4v6h5.3v5.6zm29.5 1.1c-.6-.6-1.3-1.1-2.1-1.5s-1.7-.6-2.6-.6c-.7 0-1.3.1-1.9.4s-.9.7-.9 1.4c0 .6.3 1.1 1 1.4s1.7.6 3.2.9c.9.2 1.7.4 2.6.8s1.6.8 2.3 1.3a5.51 5.51 0 0 1 1.7 2c.4.8.6 1.7.6 2.8 0 1.4-.3 2.6-.9 3.6s-1.3 1.8-2.3 2.4c-.9.6-2 1-3.1 1.3-1.2.3-2.3.4-3.5.4-1.9 0-3.7-.3-5.4-.9-1.8-.6-3.3-1.5-4.4-2.6l4.2-4.4c.7.7 1.5 1.3 2.5 1.8s2 .7 3.1.7c.6 0 1.2-.1 1.8-.4s.9-.8.9-1.5-.4-1.2-1.1-1.6c-.7-.3-1.9-.7-3.4-1l-2.4-.7c-.8-.3-1.5-.7-2.1-1.2s-1.1-1.2-1.5-1.9c-.4-.8-.6-1.7-.6-2.7 0-1.4.3-2.5.9-3.5s1.3-1.7 2.2-2.3 1.9-1.1 3-1.3c1.1-.3 2.2-.4 3.3-.4 1.7 0 3.4.3 5 .8s3 1.3 4.1 2.4zm-17.3-16.9c-2.2 0-4 1.6-4 3.7 0 2.2 1.5 3.6 3.7 3.6.2 0 .4 0 .5-.1-.4 1.6-1.9 2.8-3.4 3h-.3V41h.4c1.8-.2 3.5-1 4.8-2.2 1.7-1.6 2.6-4 2.6-6.8 0-2.7-1.8-4.7-4.3-4.7z" transform="matrix(.306004 0 0 .306004 46.871527 31.000634)" fill="#003a70"/></svg>