<?xml version="1.0" encoding="UTF-8" standalone="no"?>
<!-- Created with Inkscape (http://www.inkscape.org/) -->

<svg
   xmlns:dc="http://purl.org/dc/elements/1.1/"
   xmlns:cc="http://creativecommons.org/ns#"
   xmlns:rdf="http://www.w3.org/1999/02/22-rdf-syntax-ns#"
   xmlns:svg="http://www.w3.org/2000/svg"
   xmlns="http://www.w3.org/2000/svg"
   xmlns:sodipodi="http://sodipodi.sourceforge.net/DTD/sodipodi-0.dtd"
   xmlns:inkscape="http://www.inkscape.org/namespaces/inkscape"
   width="120"
   height="60"
   id="svg3050"
   version="1.1"
   inkscape:version="0.48.4 r9939"
   sodipodi:docname="New document 2">
  <defs
     id="defs3052" />
  <sodipodi:namedview
     id="base"
     pagecolor="#ffffff"
     bordercolor="#666666"
     borderopacity="1.0"
     inkscape:pageopacity="0.0"
     inkscape:pageshadow="2"
     inkscape:zoom="7.1666667"
     inkscape:cx="60"
     inkscape:cy="30"
     inkscape:document-units="px"
     inkscape:current-layer="layer1"
     showgrid="false"
     inkscape:window-width="993"
     inkscape:window-height="807"
     inkscape:window-x="65"
     inkscape:window-y="24"
     inkscape:window-maximized="0" />
  <metadata
     id="metadata3055">
    <rdf:RDF>
      <cc:Work
         rdf:about="">
        <dc:format>image/svg+xml</dc:format>
        <dc:type
           rdf:resource="http://purl.org/dc/dcmitype/StillImage" />
        <dc:title></dc:title>
      </cc:Work>
    </rdf:RDF>
  </metadata>
  <g
     inkscape:label="Layer 1"
     inkscape:groupmode="layer"
     id="layer1"
     transform="translate(0,-992.36218)">
    <g
       transform="matrix(0.06611625,0,0,0.06611625,5.8398433,1002.5208)"
       id="g3234">
      <path
         style="fill:#ffffff;stroke:#000000;stroke-width:6;stroke-linecap:round;stroke-linejoin:round;stroke-miterlimit:10"
         inkscape:connector-curvature="0"
         stroke-miterlimit="10"
         d="m 436.316,240.087 c 7.732,0.02 13.162,-2.095 15.106,-9.772 1.842,-7.273 -1.433,-16.621 -9.982,-17.971 -4.987,-0.788 -16.906,-0.177 -28.067,1.593 2.595,7.532 4.938,15.74 7.021,24.484 6.062,1.042 11.675,1.655 15.922,1.666 z"
         id="path3236" />
      <path
         style="fill:#ffffff;stroke:#000000;stroke-width:6;stroke-linecap:round;stroke-linejoin:round;stroke-miterlimit:10"
         inkscape:connector-curvature="0"
         stroke-miterlimit="10"
         d="m 451.762,472.396 c -8.434,-9.021 -20.476,-14.647 -33.413,-15.726 -4.126,10.828 -9.124,19.561 -14.866,26.967 11.273,1.652 18.73,6.738 27.623,12.456 13.666,8.785 33.01,-10.481 20.656,-23.697 z"
         id="path3238" />
      <path
         style="fill:#ffffff;stroke:#000000;stroke-width:6;stroke-linecap:round;stroke-linejoin:round;stroke-miterlimit:10"
         inkscape:connector-curvature="0"
         stroke-miterlimit="10"
         d="m 171.953,586.341 c -0.258,20.1 29.262,20.428 35.16,3.369 3.471,-10.039 6.272,-18.821 13.216,-27.204 -12.122,-0.898 -24.108,-3.423 -35.536,-8.071 -7.801,10.009 -12.696,20.644 -12.84,31.906 z"
         id="path3240" />
      <path
         style="fill:#d0b698;stroke:#000000;stroke-width:6;stroke-linecap:round;stroke-linejoin:round;stroke-miterlimit:10"
         inkscape:connector-curvature="0"
         stroke-miterlimit="10"
         d="m 37.701,180.366 c -6.229,0.655 -11.809,-3.871 -12.465,-10.108 -0.656,-6.238 3.862,-11.825 10.091,-12.479 1.456,-0.153 2.872,-0.013 4.203,0.355 -0.407,-8.924 -0.016,-17.19 1.119,-24.897 -24.907,0.93 -36.32,15.463 -37.555,33.129 -1.31,18.742 11.141,37.468 34.561,39.105 3.651,0.255 6.895,0.049 9.774,-0.552 -2.455,-9.115 -4.338,-17.702 -5.655,-25.792 -1.234,0.647 -2.604,1.085 -4.073,1.239 z"
         id="path3242" />
      <path
         inkscape:connector-curvature="0"
         d="m 35.327,157.778 c -6.229,0.655 -10.747,6.242 -10.091,12.479 0.656,6.237 6.237,10.763 12.465,10.108 1.469,-0.154 2.839,-0.592 4.073,-1.239 -1.204,-7.39 -1.942,-14.372 -2.244,-20.994 -1.331,-0.367 -2.747,-0.507 -4.203,-0.354 z"
         id="path3244" />
      <path
         style="fill:#d0b698;stroke:#000000;stroke-width:6;stroke-linecap:round;stroke-linejoin:round;stroke-miterlimit:10"
         inkscape:connector-curvature="0"
         stroke-miterlimit="10"
         d="m 309.592,37.468 c 0.511,-0.68 1.096,-1.317 1.774,-1.887 4.798,-4.025 11.957,-3.395 15.987,1.41 3.967,4.729 3.42,11.73 -1.172,15.788 5.61,5.714 11.18,11.979 16.583,18.841 1.701,-1.844 3.317,-4.046 4.827,-6.66 11.736,-20.332 3.176,-41.127 -13.096,-50.521 -14.119,-8.151 -30.859,-7.664 -44.898,8.169 1.848,1.18 3.665,2.401 5.448,3.66 4.725,3.335 9.604,7.07 14.547,11.2 z"
         id="path3246" />
      <path
         inkscape:connector-curvature="0"
         d="m 327.354,36.992 c -4.03,-4.805 -11.189,-5.436 -15.987,-1.41 -0.679,0.57 -1.264,1.207 -1.774,1.887 5.49,4.587 11.059,9.677 16.59,15.312 4.591,-4.059 5.138,-11.061 1.171,-15.789 z"
         id="path3248" />
      <path
         style="fill:#ffffff;stroke:#000000;stroke-width:6;stroke-linecap:round;stroke-linejoin:round;stroke-miterlimit:10"
         inkscape:connector-curvature="0"
         stroke-miterlimit="10"
         d="m 127.003,523.285 c 1.946,4.361 12.639,4.612 19.787,-0.134 -3.704,-6.098 -6.562,-12.668 -8.77,-19.531 -7.613,5.026 -14.067,12.826 -11.017,19.665 z"
         id="path3250" />
      <path
         style="fill:#d0b698;stroke:#000000;stroke-width:6;stroke-linecap:round;stroke-linejoin:round;stroke-miterlimit:10"
         inkscape:connector-curvature="0"
         stroke-miterlimit="10"
         d="m 420.393,238.421 c -2.082,-8.744 -4.426,-16.952 -7.021,-24.484 -6.519,-18.921 -14.621,-33.558 -24.152,-41.551 -9.144,-42.65 -26.687,-75.661 -46.455,-100.765 -5.403,-6.861 -10.973,-13.127 -16.583,-18.841 -5.531,-5.635 -11.1,-10.724 -16.59,-15.312 -4.943,-4.13 -9.822,-7.865 -14.546,-11.199 -1.783,-1.259 -3.601,-2.479 -5.448,-3.66 -38.035,-24.282 -89.932,-31.174 -159.703,9.577 -48.626,28.401 -82.414,54.617 -89.247,101.05 -1.134,7.708 -1.525,15.973 -1.119,24.897 0.302,6.622 1.041,13.604 2.244,20.994 1.317,8.089 3.201,16.676 5.655,25.792 2.433,9.035 5.425,18.587 9.033,28.736 12.141,34.149 34.259,66.99 46.802,85.997 12.709,19.258 24.75,54.917 26.631,90.017 1.416,26.414 -1.781,63.135 8.125,93.951 2.207,6.863 5.066,13.434 8.77,19.531 6.542,10.775 15.719,20.08 28.625,26.918 3.076,1.629 6.207,3.075 9.378,4.365 11.428,4.648 23.415,7.173 35.536,8.071 50.471,3.739 103.228,-20.578 127.21,-35.837 22.083,-14.049 41.403,-24.279 55.943,-43.031 5.742,-7.406 10.74,-16.139 14.866,-26.967 4.834,-12.688 8.474,-28.246 10.716,-47.902 6.42,-56.267 2.939,-121.584 -8.67,-170.347 z"
         id="path3252" />
      <ellipse
         style="fill:#ffffff;stroke:#000000;stroke-width:6;stroke-linecap:round;stroke-linejoin:round;stroke-miterlimit:10"
         sodipodi:ry="51.299999"
         sodipodi:rx="52.200001"
         sodipodi:cy="67.681"
         sodipodi:cx="235.646"
         d="m 287.846,67.681 c 0,28.332207 -23.37074,51.3 -52.2,51.3 -28.82927,0 -52.2,-22.967793 -52.2,-51.3 0,-28.332207 23.37073,-51.299999 52.2,-51.299999 28.82926,0 52.2,22.967792 52.2,51.299999 z"
         stroke-miterlimit="10"
         cx="235.646"
         cy="67.681"
         rx="52.200001"
         ry="51.299999"
         id="ellipse3254" />
      <ellipse
         style="fill:#ffffff;stroke:#000000;stroke-width:6;stroke-linecap:round;stroke-linejoin:round;stroke-miterlimit:10"
         sodipodi:ry="51.299999"
         sodipodi:rx="52.200001"
         sodipodi:cy="127.081"
         sodipodi:cx="118.851"
         d="m 171.051,127.081 c 0,28.33221 -23.37074,51.3 -52.2,51.3 -28.829266,0 -52.200003,-22.96779 -52.200003,-51.3 0,-28.332206 23.370737,-51.299998 52.200003,-51.299998 28.82926,0 52.2,22.967792 52.2,51.299998 z"
         stroke-miterlimit="10"
         cx="118.851"
         cy="127.081"
         rx="52.200001"
         ry="51.299999"
         id="ellipse3256" />
      <circle
         sodipodi:ry="16.200001"
         sodipodi:rx="16.200001"
         sodipodi:cy="59.581001"
         sodipodi:cx="263.996"
         d="m 280.196,59.581001 c 0,8.947014 -7.25298,16.200001 -16.2,16.200001 -8.94701,0 -16.2,-7.252987 -16.2,-16.200001 0,-8.947013 7.25299,-16.2 16.2,-16.2 8.94702,0 16.2,7.252987 16.2,16.2 z"
         cx="263.996"
         cy="59.581001"
         r="16.200001"
         id="circle3258" />
      <circle
         style="fill:#ffffff"
         sodipodi:ry="3.5999999"
         sodipodi:rx="3.5999999"
         sodipodi:cy="60.480999"
         sodipodi:cx="272.09601"
         d="m 275.69601,60.480999 c 0,1.988225 -1.61178,3.6 -3.6,3.6 -1.98823,0 -3.6,-1.611775 -3.6,-3.6 0,-1.988225 1.61177,-3.6 3.6,-3.6 1.98822,0 3.6,1.611775 3.6,3.6 z"
         cx="272.09601"
         cy="60.480999"
         r="3.5999999"
         id="circle3260" />
      <circle
         sodipodi:ry="16.200001"
         sodipodi:rx="16.200001"
         sodipodi:cy="116.281"
         sodipodi:cx="146.095"
         d="m 162.295,116.281 c 0,8.94701 -7.25299,16.2 -16.2,16.2 -8.94701,0 -16.2,-7.25299 -16.2,-16.2 0,-8.94702 7.25299,-16.2 16.2,-16.2 8.94701,0 16.2,7.25298 16.2,16.2 z"
         cx="146.095"
         cy="116.281"
         r="16.200001"
         id="circle3262" />
      <circle
         style="fill:#ffffff"
         sodipodi:ry="3.5999999"
         sodipodi:rx="3.5999999"
         sodipodi:cy="117.181"
         sodipodi:cx="154.196"
         d="m 157.796,117.181 c 0,1.98822 -1.61178,3.6 -3.6,3.6 -1.98823,0 -3.6,-1.61178 -3.6,-3.6 0,-1.98823 1.61177,-3.6 3.6,-3.6 1.98822,0 3.6,1.61177 3.6,3.6 z"
         cx="154.196"
         cy="117.181"
         r="3.5999999"
         id="circle3264" />
      <path
         style="fill:#ffffff;stroke:#000000;stroke-width:6;stroke-linecap:round;stroke-linejoin:round;stroke-miterlimit:10"
         inkscape:connector-curvature="0"
         stroke-miterlimit="10"
         d="m 213.083,169.078 c -9.664,4.506 -9.3,9.495 -16.832,14.72 2.005,5.293 4.714,12.359 7.977,20.67 7.355,18.729 28.819,4.246 23.938,-6.716 -3.579,-8.041 -9.976,-22.408 -13.135,-29.504 -0.623,0.243 -1.268,0.513 -1.948,0.83 z"
         id="path3266" />
      <path
         style="fill:#ffffff;stroke:#000000;stroke-width:6;stroke-linecap:round;stroke-linejoin:round;stroke-miterlimit:10"
         inkscape:connector-curvature="0"
         stroke-miterlimit="10"
         d="m 238.975,164.35 c -11.064,4.464 -14.537,0.238 -23.943,3.898 3.159,7.096 9.556,21.463 13.135,29.504 4.881,10.962 30.008,4.701 21.009,-13.295 -4.086,-8.173 -7.59,-15.04 -10.201,-20.107 z"
         id="path3268" />
      <path
         style="fill:#ffffff;stroke:#000000;stroke-width:6;stroke-linecap:round;stroke-linejoin:round;stroke-miterlimit:10"
         inkscape:connector-curvature="0"
         stroke-miterlimit="10"
         d="m 321.989,287.733 c -6.821,-3.034 -19.595,-4.724 -31.342,-3.582 -1.084,5.841 -3.293,11.6 -7.715,17.345 9.811,5.708 19.227,9.624 26.928,11.71 7.463,2.02 13.256,1.383 17.121,-5.529 3.662,-6.549 2.918,-16.427 -4.992,-19.944 z"
         id="path3270" />
      <path
         style="fill:none;stroke:#000000;stroke-width:6;stroke-linecap:round;stroke-linejoin:round;stroke-miterlimit:10"
         inkscape:connector-curvature="0"
         stroke-miterlimit="10"
         d="m 265.866,316.368 c 7.809,-4.978 13.256,-9.92 17.066,-14.872 4.422,-5.745 6.631,-11.503 7.715,-17.345 0.854,-4.598 1.018,-9.247 1.018,-13.982"
         id="path3272" />
      <path
         style="fill:#ac967b;stroke:#000000;stroke-width:6;stroke-linecap:round;stroke-linejoin:round;stroke-miterlimit:10"
         inkscape:connector-curvature="0"
         stroke-miterlimit="10"
         d="m 241.202,134.614 c -5.883,-2.508 -11.642,-2.739 -18.45,-1.058 -1.165,6.392 -7.955,13.579 -17.718,17.926 -9.39,4.181 -18.893,4.561 -24.525,1.549 -6.176,4.299 -9.948,9.01 -11.901,15.435 -3.831,12.607 6.071,24.543 16.988,20.563 4.838,-1.764 8.174,-3.511 10.656,-5.232 7.532,-5.225 7.168,-10.214 16.832,-14.72 0.68,-0.317 1.325,-0.587 1.949,-0.83 9.406,-3.66 12.879,0.566 23.943,-3.898 2.062,-0.832 4.381,-1.959 7.059,-3.503 10.066,-5.805 7.288,-21.062 -4.833,-26.232 z"
         id="path3274" />
      <path
         inkscape:connector-curvature="0"
         d="m 205.034,151.482 c 9.763,-4.347 16.553,-11.534 17.718,-17.926 0.352,-1.932 0.196,-3.792 -0.554,-5.479 -3.234,-7.265 -16.163,-8.566 -28.878,-2.906 -12.714,5.661 -20.399,16.141 -17.165,23.405 0.846,1.9 2.359,3.388 4.354,4.454 5.632,3.012 15.135,2.633 24.525,-1.548 z"
         id="path3276" />
      <path
         style="fill:none;stroke:#000000;stroke-width:6;stroke-linecap:round;stroke-linejoin:round;stroke-miterlimit:10"
         inkscape:connector-curvature="0"
         stroke-miterlimit="10"
         d="m 451.858,227.863 c -4.442,-0.877 -10.908,-1.992 -16.275,-2.222"
         id="path3278" />
      <path
         style="fill:none;stroke:#000000;stroke-width:6;stroke-linecap:round;stroke-linejoin:round;stroke-miterlimit:10"
         inkscape:connector-curvature="0"
         stroke-miterlimit="10"
         d="m 450.958,492.011 c -1.538,-4.26 -5.707,-12.555 -14.208,-16.149"
         id="path3280" />
      <path
         style="fill:none;stroke:#000000;stroke-width:6;stroke-linecap:round;stroke-linejoin:round;stroke-miterlimit:10"
         inkscape:connector-curvature="0"
         stroke-miterlimit="10"
         d="m 186.405,600.925 c -1.581,-4.777 -3.198,-13.379 0.462,-23.578"
         id="path3282" />
      <path
         style="fill:none;stroke:#000000;stroke-width:6;stroke-linecap:round;stroke-linejoin:round;stroke-miterlimit:10"
         inkscape:connector-curvature="0"
         stroke-miterlimit="10"
         d="m 328.036,305.421 c -4.063,-1.998 -10.02,-4.748 -15.145,-6.359"
         id="path3284" />
    </g>
    <path
       style="fill:#000000"
       d="m 76.179186,1029.8038 c -1.335311,-1.44 -1.314498,-2.0606 0.157365,-4.6924 1.533553,-2.742 5.319016,-6.6388 9.784032,-10.072 3.35453,-2.5793 4.124399,-2.9992 6.441588,-3.5132 2.022484,-0.4487 3.420722,-0.2643 4.917067,0.6482 0.917348,0.5595 1.027677,0.7608 0.864467,1.5768 -0.102892,0.5145 -0.62152,1.5668 -1.152499,2.3387 -0.891712,1.296 -1.059143,1.3976 -2.192959,1.3308 -0.675144,-0.039 -1.227534,-0.1302 -1.227534,-0.2007 0,-0.071 0.334195,-0.5254 0.742647,-1.0109 0.839703,-0.9978 1.376681,-3.6213 0.849214,-4.1488 -1.054092,-1.054 -8.03194,2.8126 -11.6939,6.4799 -2.229113,2.2324 -5.755545,6.6448 -5.636161,7.0522 0.02605,0.088 -0.07949,0.3984 -0.234484,0.688 -0.479782,0.8965 0.184634,2.0441 1.340609,2.3155 0.569053,0.1335 1.315974,0.2118 1.659815,0.1739 2.25682,-0.2492 5.85339,-2.5069 9.491211,-5.9578 1.921145,-1.8226 1.781557,-1.895 -1.905886,-0.9896 -2.811031,0.6901 -3.834787,0.5886 -3.342279,-0.3317 0.176438,-0.3297 0.451542,-0.3513 0.596099,-0.4292 0.220009,-0.069 0.195643,-0.071 0.430559,-0.1336 0.164043,-0.036 1.143263,-0.353 2.306127,-0.4693 1.162859,-0.1162 3.219969,-0.4142 4.571354,-0.662 1.351383,-0.2479 2.4968,-0.4507 2.54538,-0.4507 0.04858,0 0.167671,0.2068 0.26465,0.4596 0.326791,0.8516 -6.965153,7.1348 -10.112152,8.7134 -0.945571,0.4743 -2.070878,1.0562 -2.500681,1.2932 -0.429805,0.2371 -1.990288,0.5286 -3.467739,0.648 -2.65979,0.2148 -2.69427,0.2083 -3.49591,-0.6563 z m 19.454868,-0.2868 c -1.205434,-0.6558 -1.651867,-1.7581 -1.492138,-3.6843 0.110482,-1.3322 0.382635,-2.0094 1.296957,-3.2268 1.97837,-2.6343 5.920857,-6.688 7.474937,-7.6858 0.92877,-0.7124 1.76482,-1.3942 2.69756,-2.0098 0.26381,-0.1772 0.48539,-0.2986 0.61456,-0.3808 0.13335,-0.045 0.52731,-0.1801 1.05196,-0.3102 1.10483,-0.2742 4.99204,-0.8114 5.80327,-0.5538 0.75011,0.2379 1.31596,1.8895 1.31178,2.808 -0.0397,0.9927 -2.2689,5.8059 -5.55795,8.9483 -0.88528,0.7344 -3.56113,2.8342 -4.69308,3.6 -4.319835,2.91 -6.545617,3.5627 -8.507856,2.4952 z m 4.596876,-2.0581 c 0.83088,-0.3516 1.65135,-0.8144 1.82327,-1.0286 0.17193,-0.2141 0.82828,-0.7781 1.45857,-1.2533 1.10732,-0.7757 0.85176,-0.6657 2.68318,-1.8068 0.7166,-0.5172 1.46541,-1.074 2.10621,-1.4991 0.56599,-0.4517 0.88779,-0.9074 1.17026,-1.2289 0.1083,-0.1324 0.20563,-0.3696 0.44827,-0.7015 0.67119,-1.5511 2.01067,-3.2207 1.8765,-4.9563 -0.22662,-2.0208 -2.46281,-1.9704 -5.95794,0.1343 -1.00594,0.6058 -1.94242,1.1013 -2.08105,1.1013 -0.13865,0 -1.51157,1.2619 -3.05095,2.8042 -3.708374,3.7155 -5.598071,7.4742 -4.37334,8.699 0.563727,0.5637 2.203306,0.4526 3.89702,-0.2643 z m -53.660495,-2.7562 c 0,-0.3494 2.474332,-0.6275 8.848909,-0.9949 7.229538,-0.4166 12.563808,-0.8678 14.577331,-1.2328 2.286549,-0.4148 6.001648,-0.5181 6.545011,-0.1823 0.778065,0.4809 -0.419409,0.824 -3.342865,0.9578 -1.518856,0.07 -3.384216,0.2029 -4.145242,0.2961 -2.283703,0.2799 -4.041175,0.4395 -7.166495,0.6509 -1.633253,0.1103 -3.60254,0.2644 -4.376185,0.3423 -3.032667,0.3054 -10.940464,0.423 -10.940464,0.1629 z m -7.814611,-1.9228 -0.781464,-0.1905 0.872245,-0.2242 c 0.47973,-0.1234 2.378681,-0.3641 4.219891,-0.535 1.841205,-0.1708 3.769637,-0.3814 4.285405,-0.468 2.178145,-0.3656 13.197296,-1.4489 20.474291,-2.0127 2.492861,-0.1932 5.623021,-0.4908 6.95591,-0.6613 1.554929,-0.199 2.615875,-0.2024 2.960406,-0.011 0.443553,0.2483 0.348236,0.3315 -0.547929,0.4789 -1.131745,0.1861 -6.239532,0.6201 -13.431986,1.1413 -2.320941,0.1681 -6.118848,0.5779 -8.439789,0.9107 -2.320941,0.3327 -6.048511,0.7604 -8.283489,0.9505 -2.234978,0.1901 -4.83725,0.4501 -5.782816,0.578 -0.945571,0.1279 -2.070871,0.1467 -2.500675,0.042 z"
       id="path3037"
       inkscape:connector-curvature="0"
       sodipodi:nodetypes="ssssssscsssscssssssccssscssssssscccsscccsssccccccssssssssssssssccssssscssssscc" />
  </g>
</svg>
