<?xml version="1.0" encoding="UTF-8" standalone="no"?>
<svg
   xmlns:dc="http://purl.org/dc/elements/1.1/"
   xmlns:cc="http://creativecommons.org/ns#"
   xmlns:rdf="http://www.w3.org/1999/02/22-rdf-syntax-ns#"
   xmlns:svg="http://www.w3.org/2000/svg"
   xmlns="http://www.w3.org/2000/svg"
   xmlns:sodipodi="http://sodipodi.sourceforge.net/DTD/sodipodi-0.dtd"
   xmlns:inkscape="http://www.inkscape.org/namespaces/inkscape"
   viewBox="0 0 120 60"
   version="1.1"
   id="svg11"
   sodipodi:docname="hive-ar21.svg"
   width="120"
   height="60"
   inkscape:version="0.92.3 (2405546, 2018-03-11)">
  <metadata
     id="metadata17">
    <rdf:RDF>
      <cc:Work
         rdf:about="">
        <dc:format>image/svg+xml</dc:format>
        <dc:type
           rdf:resource="http://purl.org/dc/dcmitype/StillImage" />
        <dc:title></dc:title>
      </cc:Work>
    </rdf:RDF>
  </metadata>
  <defs
     id="defs15" />
  <sodipodi:namedview
     pagecolor="#ffffff"
     bordercolor="#666666"
     borderopacity="1"
     objecttolerance="10"
     gridtolerance="10"
     guidetolerance="10"
     inkscape:pageopacity="0"
     inkscape:pageshadow="2"
     inkscape:window-width="1920"
     inkscape:window-height="1001"
     id="namedview13"
     showgrid="false"
     inkscape:zoom="3.5677827"
     inkscape:cx="13.313591"
     inkscape:cy="10.5225"
     inkscape:window-x="-9"
     inkscape:window-y="-9"
     inkscape:window-maximized="1"
     inkscape:current-layer="svg11" />
  <linearGradient
     id="a"
     gradientUnits="userSpaceOnUse"
     x1="-613.13702"
     y1="377.80701"
     x2="-612.13702"
     y2="377.80701"
     gradientTransform="matrix(42.23803,0,0,-30.575744,25903.006,11581.697)">
    <stop
       offset="0"
       stop-color="#fbc67a"
       id="stop4" />
    <stop
       offset="1"
       stop-color="#ffa561"
       id="stop6" />
  </linearGradient>
  <g
     id="g830"
     transform="translate(1.1559342)">
    <g
       transform="matrix(0.62028322,0,0,0.62028322,23.348021,11.141838)"
       id="g825">
      <path
         d="M 80.937675,42.950006 V 17.67903 c 0,-1.378655 -1.144516,-2.578434 -2.611882,-2.578434 -1.604067,0 -2.734041,1.199779 -2.734041,2.578434 v 9.558964 H 59.552528 V 17.67903 c 0,-1.378655 -1.20705,-2.578434 -2.672962,-2.578434 -1.557531,0 -2.672962,1.199779 -2.672962,2.578434 v 25.270976 c 0,1.422283 1.207051,2.72677 2.672962,2.72677 1.557531,0 2.672962,-1.304487 2.672962,-2.72677 V 31.685174 h 16.039224 v 11.264832 c 0,1.422283 1.221593,2.72677 2.734041,2.72677 1.558986,0 2.611882,-1.304487 2.611882,-2.72677 z m 8.02034,-27.84941 c -1.458641,0 -2.672962,1.15615 -2.672962,2.590068 0,1.474637 1.215776,2.629333 2.672962,2.629333 1.45864,0 2.672961,-1.15615 2.672961,-2.629333 0,-1.433918 -1.215776,-2.590068 -2.672961,-2.590068 z m 2.672961,28.099546 V 25.750268 c 0,-1.252132 -1.288489,-2.446094 -2.672961,-2.446094 -1.582254,0 -2.672962,1.192507 -2.672962,2.446094 v 17.449874 c 0,1.297215 1.291398,2.475179 2.774761,2.475179 1.483363,0.0015 2.571162,-1.177964 2.571162,-2.475179 z M 118.36205,25.664466 c 0,-1.246316 -1.01363,-2.360292 -2.53481,-2.360292 -0.96855,0 -1.88911,0.53372 -2.25849,1.470274 l -5.83747,14.936882 -6.00617,-14.981964 c -0.36938,-0.890018 -1.24486,-1.425192 -2.258488,-1.425192 -1.474637,0 -2.488268,1.157605 -2.488268,2.31521 0,0.267587 0.04654,0.578802 0.184693,0.846389 l 7.005253,16.610755 c 0.55263,1.336481 2.04326,2.600248 3.56443,2.600248 h 0.0916 c 1.52118,0 2.75004,-1.263767 3.3492,-2.600248 l 7.00526,-16.610755 c 0.13815,-0.267587 0.18324,-0.578802 0.18324,-0.801307 z m 25.14445,7.915631 c 0,1.252133 -1.05435,2.326844 -2.38356,2.326844 h -14.57331 c 0.32139,3.221224 2.84166,5.950903 6.96599,5.950903 a 9.6898495,9.6898495 0 0 0 4.9489,-1.432464 c 0.3214,-0.178876 0.68787,-0.269041 1.00782,-0.269041 1.00781,0 2.06216,0.80567 2.06216,1.969092 0,2.460637 -5.68186,3.578976 -8.52352,3.578976 -6.64459,0 -11.5935,-4.519894 -11.5935,-11.365177 0,-6.263572 4.67405,-11.320094 11.22702,-11.320094 5.17868,0 8.93654,3.042348 10.31083,7.696035 0.27631,0.895835 0.55117,1.925463 0.55117,2.864926 z m -4.46027,-1.103796 c -0.0916,-2.50572 -1.83239,-5.726944 -6.13996,-5.726944 -4.03271,0 -5.91163,3.132513 -6.13996,5.726944 z"
         id="path2"
         inkscape:connector-curvature="0"
         style="fill:#4a4a4a;stroke-width:1.45427728" />
    </g>
    <path
       style="fill:url(#a);stroke-width:1.45427728"
       inkscape:connector-curvature="0"
       id="path9"
       d="m 30.013248,45.28809 c -0.337392,-1.622974 -1.806212,-2.844567 -3.568796,-2.844567 -1.762585,0 -3.231405,1.221593 -3.568797,2.844567 h -6.990711 c -1.801849,0 -3.276487,-1.759676 -3.276487,-3.910552 0,-2.150876 1.474638,-3.910551 3.276487,-3.910551 h 21.119015 c 1.801849,0 3.276486,1.759675 3.276486,3.910551 0,2.150876 -1.474637,3.910552 -3.276486,3.910552 z M 37.003959,22.533013 H 15.884944 c -1.801849,0 -3.276487,-1.759675 -3.276487,-3.910551 0,-2.150877 1.474638,-3.910552 3.276487,-3.910552 h 21.119015 c 1.801849,0 3.276486,1.759675 3.276486,3.910552 0,2.150876 -1.474637,3.910551 -3.276486,3.910551 z M 9.0338436,33.911279 c -2.040351,0 -3.708407,-1.759676 -3.708407,-3.910552 0,-2.15233 1.66951,-3.910552 3.708407,-3.910552 H 43.855059 c 2.040351,0 3.708407,1.759676 3.708407,3.910552 0,2.150876 -1.669511,3.910552 -3.708407,3.910552 z" />
  </g>
</svg>
