<svg xmlns="http://www.w3.org/2000/svg" width="120" height="60" viewBox="16.229 4.143 8.41 4.206"><path d="M17.596 6.386a.49.49 0 0 1-.142.274c-.07.064-.15.096-.235.096-.102 0-.19-.043-.267-.13s-.114-.202-.114-.35.042-.257.126-.346.185-.133.303-.133c.088 0 .16.023.218.07s.085.096.085.146a.08.08 0 0 1-.024.061c-.016.015-.04.023-.067.023-.04 0-.068-.012-.087-.037-.01-.014-.02-.04-.022-.08s-.017-.068-.04-.09-.055-.03-.095-.03c-.065 0-.118.024-.158.073-.053.064-.08.15-.08.255s.026.203.08.285.124.124.214.124c.064 0 .122-.022.173-.066.036-.03.07-.085.105-.164zm.39-.586v.203c.075-.135.153-.203.232-.203.036 0 .066.01.09.033s.035.047.035.076a.09.09 0 0 1-.026.065c-.017.018-.037.027-.06.027s-.05-.01-.077-.034-.05-.034-.063-.034-.025.007-.038.02c-.03.027-.06.07-.09.133v.432c0 .05.006.088.02.113.01.018.024.033.045.044s.053.018.093.018v.035h-.46v-.035c.046 0 .08-.007.102-.022.016-.01.028-.027.034-.05.003-.01.005-.043.005-.096v-.35l-.006-.188c-.004-.02-.012-.035-.024-.044s-.026-.014-.043-.014-.043.005-.07.015l-.01-.035.272-.11h.04zm.918.8l-.174.124c-.035.016-.073.025-.113.025-.062 0-.113-.02-.154-.064s-.06-.1-.06-.168c0-.044.01-.082.03-.114a.39.39 0 0 1 .14-.126 2.18 2.18 0 0 1 .331-.144v-.035c0-.09-.014-.152-.043-.185s-.07-.05-.124-.05c-.04 0-.074.01-.098.033s-.037.048-.037.077l.002.057c0 .03-.008.054-.023.07s-.036.025-.06.025-.044-.01-.06-.026-.023-.04-.023-.07c0-.056.03-.108.086-.156s.14-.07.243-.07a.42.42 0 0 1 .196.04c.04.02.067.052.085.096a.54.54 0 0 1 .018.173v.306l.005.158c.003.02.01.032.016.04s.016.01.026.01.02-.002.028-.007c.014-.01.04-.033.08-.072V6.6c-.073.1-.143.148-.2.148-.032 0-.058-.01-.077-.033s-.03-.06-.03-.114zm0-.064V6.19l-.192.084a.33.33 0 0 0-.111.091.175.175 0 0 0-.033.103c0 .047.014.086.042.118s.06.047.097.047c.05 0 .115-.033.196-.1zm.61-1.207c.027 0 .05.01.07.03s.03.043.03.07-.01.05-.03.07-.043.03-.07.03-.05-.01-.07-.03-.03-.043-.03-.07.01-.05.03-.07.043-.03.07-.03zm.082.472v.725c0 .056.004.094.012.113s.02.033.036.042.045.014.088.014v.035h-.437v-.035c.044 0 .073-.004.088-.013s.027-.023.036-.042.013-.057.013-.113v-.348l-.01-.19c-.005-.02-.012-.036-.022-.044s-.023-.012-.04-.012-.04.005-.067.015l-.014-.035.27-.11h.043zm.488.6c-.055-.027-.097-.064-.127-.113a.3.3 0 0 1-.044-.16c0-.09.034-.166.1-.23s.153-.097.258-.097c.086 0 .16.02.223.063h.19a.25.25 0 0 1 .049.002.017.017 0 0 1 .01.008c.004.006.006.016.006.032s-.002.03-.005.035a.02.02 0 0 1-.01.008c-.005.002-.02.003-.05.003h-.117c.037.047.055.108.055.18 0 .084-.032.156-.096.216s-.15.09-.258.09a.5.5 0 0 1-.137-.02c-.03.025-.048.047-.058.066s-.015.035-.015.048.005.022.016.032.032.018.063.023a1.72 1.72 0 0 0 .138.007l.262.014c.06.008.1.03.146.068s.055.082.055.136c0 .074-.035.144-.104.21a.56.56 0 0 1-.4.144.57.57 0 0 1-.32-.086c-.05-.033-.074-.067-.074-.102 0-.016.004-.032.01-.047a.55.55 0 0 1 .069-.101 4.17 4.17 0 0 1 .1-.106.31.31 0 0 1-.072-.055.081.081 0 0 1-.021-.055c0-.023.01-.05.028-.08a.64.64 0 0 1 .129-.131zm.17-.553c-.048 0-.09.02-.122.058s-.05.098-.05.178c0 .104.022.184.067.24.034.043.077.065.13.065s.09-.02.123-.056.048-.096.048-.176c0-.104-.023-.186-.068-.245-.033-.043-.076-.065-.13-.065zm-.18.882c-.03.033-.054.065-.07.094s-.024.056-.024.08c0 .032.02.06.057.083.065.04.16.06.284.06.118 0 .205-.02.26-.063s.084-.086.084-.134c0-.034-.017-.058-.05-.073s-.1-.023-.202-.026l-.34-.023zm1.357-.93v.307H21.4c-.025-.097-.057-.162-.096-.197s-.09-.052-.15-.052c-.046 0-.083.012-.11.036s-.042.05-.042.08c0 .037.01.068.03.095s.062.056.124.086l.143.07c.133.065.2.15.2.257 0 .082-.03.148-.093.198a.32.32 0 0 1-.208.075.71.71 0 0 1-.189-.03c-.022-.007-.04-.01-.053-.01s-.027.01-.035.026h-.032V6.42h.032c.018.092.053.16.105.208s.1.07.174.07c.045 0 .082-.013.1-.04s.043-.06.043-.096c0-.045-.016-.083-.048-.114a.83.83 0 0 0-.19-.117c-.095-.047-.157-.09-.187-.128s-.044-.085-.044-.142a.25.25 0 0 1 .076-.186c.05-.05.116-.075.197-.075.035 0 .078.008.13.023.033.01.056.015.067.015s.02-.002.025-.007.013-.015.02-.03h.032zm.5-.472v1.197c0 .056.004.094.012.112s.02.032.038.042.05.014.095.014v.035h-.44v-.035a.19.19 0 0 0 .084-.013c.015-.01.027-.023.035-.042a.33.33 0 0 0 .013-.113v-.82l-.007-.188c-.005-.023-.012-.04-.022-.048s-.023-.013-.04-.013-.04.005-.065.016l-.017-.034.268-.11h.044zm.477 0c.027 0 .05.01.07.03s.03.043.03.07-.01.05-.03.07-.043.03-.07.03-.05-.01-.07-.03-.03-.043-.03-.07.01-.05.03-.07.043-.03.07-.03zm.08.472v.725c0 .056.004.094.012.113s.02.033.036.042.045.014.088.014v.035H22.2v-.035c.044 0 .073-.004.088-.013s.027-.023.036-.042.013-.057.013-.113v-.348l-.01-.19c-.005-.02-.012-.036-.022-.044s-.023-.012-.04-.012-.04.005-.067.015l-.014-.035.27-.11h.043zm.83 0v.307h-.032c-.025-.097-.057-.162-.096-.197s-.09-.052-.15-.052c-.046 0-.083.012-.11.036s-.042.05-.042.08c0 .037.01.068.03.095s.062.056.124.086l.143.07c.133.065.2.15.2.257 0 .082-.03.148-.093.198a.32.32 0 0 1-.208.075.71.71 0 0 1-.189-.03c-.022-.007-.04-.01-.053-.01s-.027.01-.035.026h-.032V6.42h.032c.018.092.053.16.105.208s.1.07.174.07c.045 0 .082-.013.11-.04s.043-.06.043-.096c0-.045-.016-.083-.048-.114a.83.83 0 0 0-.19-.117c-.095-.047-.157-.09-.187-.128s-.044-.085-.044-.142a.25.25 0 0 1 .076-.186c.05-.05.116-.075.197-.075a.46.46 0 0 1 .129.023c.033.01.056.015.067.015s.02-.002.025-.007.013-.015.02-.03h.032zm.462-.27v.297h.2v.07h-.2v.585c0 .058.008.098.025.118s.038.03.064.03.043-.007.063-.02a.13.13 0 0 0 .047-.06h.038a.31.31 0 0 1-.097.145c-.042.033-.085.05-.13.05-.03 0-.06-.008-.088-.025s-.05-.04-.064-.072-.02-.08-.02-.144v-.607h-.142v-.033c.036-.014.073-.04.1-.073s.07-.075.1-.123a1.11 1.11 0 0 0 .063-.137h.03z" fill="purple"/></svg>