<svg xmlns="http://www.w3.org/2000/svg" width="120" height="60"><path d="M16.135 37.33c-.775 0-1.404-.63-1.404-1.407V31.96c0-.777.63-1.407 1.404-1.407a1.41 1.41 0 0 1 1.405 1.407v3.964c0 .777-.63 1.407-1.405 1.407zm4.52 1.52c-.776 0-1.404-.63-1.404-1.407v-7c0-.778.628-1.407 1.404-1.407s1.405.63 1.405 1.407v7c0 .778-.63 1.407-1.405 1.407zm4.52 1.486c-.776 0-1.404-.63-1.404-1.407v-9.98c0-.778.63-1.407 1.404-1.407s1.404.63 1.404 1.407v9.978c0 .778-.628 1.407-1.404 1.407zm11.85-16.3L17.423 18.16c-.962-.3-1.83.3-1.83 1.233V29.2a2.78 2.78 0 0 1 .543-.054 2.79 2.79 0 0 1 .544.054v-9.8c0-.066 0-.22.24-.22a.64.64 0 0 1 .192.031l19.603 5.876c.426.128.742.562.742.865v12.57c0 .072 0 .218-.24.218a.61.61 0 0 1-.191-.031l-4.522-1.353v1.135l4.2 1.263a1.78 1.78 0 0 0 .503.077 1.27 1.27 0 0 0 1.327-1.31V25.94c0-.815-.667-1.653-1.52-1.908zm-7.33 17.86c-.776 0-1.404-.63-1.404-1.407V27.392c0-.777.63-1.408 1.404-1.408s1.404.63 1.404 1.408V40.5c0 .778-.628 1.407-1.404 1.407z" transform="matrix(1.436368 0 0 1.436368 -14.379943 -13.077262)" fill="#333"/><path d="M50.343 31.423v4.727h-1.465V23.642h3.437c1.337 0 2.373.326 3.1.977s1.103 1.57 1.103 2.756-.408 2.157-1.226 2.913-1.92 1.134-3.3 1.134h-1.648zm0-6.455v5.128h1.535c1.012 0 1.784-.23 2.315-.693s.798-1.115.798-1.958c0-1.65-.976-2.477-2.93-2.477zM62 36.36c-1.32 0-2.374-.418-3.162-1.252s-1.182-1.94-1.182-3.318c0-1.5.4-2.673 1.23-3.515S60.804 27 62.2 27c1.332 0 2.37.4 3.118 1.23s1.12 1.957 1.12 3.4c0 1.426-.403 2.566-1.208 3.424S63.345 36.34 62 36.34zm.104-8.146c-.92 0-1.645.313-2.18.938s-.802 1.487-.802 2.586c0 1.058.27 1.893.8 2.503s1.265.916 2.172.916c.925 0 1.635-.3 2.132-.9s.746-1.45.746-2.555c0-1.116-.25-1.977-.746-2.582s-1.207-.907-2.132-.907zm17.633-.996l-2.678 8.93h-1.482l-1.84-6.393c-.07-.244-.116-.52-.14-.83h-.035a3.95 3.95 0 0 1-.183.8l-1.997 6.4h-1.43l-2.704-8.93h1.5l1.85 6.717c.058.203.1.47.122.802h.07a3.79 3.79 0 0 1 .157-.82l2.058-6.7h1.308l1.85 6.733c.058.215.102.483.13.803h.07c.012-.227.06-.494.148-.803l1.814-6.733h1.413zm8.58 4.824H82c.023.994.3 1.762.802 2.302s1.215.8 2.1.8c1.006 0 1.93-.33 2.774-.995v1.343c-.785.57-1.823.855-3.114.855-1.262 0-2.253-.406-2.974-1.217s-1.082-1.95-1.082-3.422c0-1.4.394-2.523 1.182-3.398s1.766-1.312 2.935-1.312 2.073.378 2.713 1.133.96 1.806.96 3.15v.75zM86.85 30.83c-.006-.825-.204-1.47-.597-1.927s-.938-.7-1.635-.7a2.31 2.31 0 0 0-1.718.723c-.47.483-.762 1.114-.873 1.893zm8.2-2.164c-.25-.192-.6-.288-1.082-.288-.6 0-1.12.288-1.53.863s-.615 1.36-.615 2.356v4.552h-1.43v-8.93h1.43v1.84h.035c.203-.628.515-1.117.933-1.47s.886-.527 1.405-.527c.372 0 .656.04.855.122v1.482zm6.638 7.484V23.642h3.56c1.082 0 1.94.265 2.573.794s.95 1.218.95 2.067c0 .7-.192 1.325-.576 1.85s-.912.895-1.587 1.117v.034c.843.1 1.517.417 2.023.955s.758 1.237.758 2.097c0 1.07-.383 1.936-1.15 2.6s-1.736.994-2.905.994h-3.646zm1.466-11.18V29h1.5c.802 0 1.434-.194 1.893-.58s.7-.932.7-1.636c0-1.215-.8-1.823-2.4-1.823zm0 5.356v4.5h2c.86 0 1.528-.204 2.002-.6s.7-.964.7-1.674c0-1.477-1.006-2.216-3.018-2.216zm10.056 5.824h-1.465V23.642h1.465z" fill="#333"/></svg>