<?xml version="1.0" encoding="UTF-8" standalone="no"?>
<svg
   xmlns:dc="http://purl.org/dc/elements/1.1/"
   xmlns:cc="http://creativecommons.org/ns#"
   xmlns:rdf="http://www.w3.org/1999/02/22-rdf-syntax-ns#"
   xmlns:svg="http://www.w3.org/2000/svg"
   xmlns="http://www.w3.org/2000/svg"
   xmlns:sodipodi="http://sodipodi.sourceforge.net/DTD/sodipodi-0.dtd"
   xmlns:inkscape="http://www.inkscape.org/namespaces/inkscape"
   viewBox="0 0 120 60.000001"
   version="1.1"
   id="svg51"
   sodipodi:docname="patheon-ar21.svg"
   width="120"
   height="60"
   inkscape:version="0.92.3 (2405546, 2018-03-11)">
  <metadata
     id="metadata55">
    <rdf:RDF>
      <cc:Work
         rdf:about="">
        <dc:format>image/svg+xml</dc:format>
        <dc:type
           rdf:resource="http://purl.org/dc/dcmitype/StillImage" />
        <dc:title>logo-pantheon</dc:title>
      </cc:Work>
    </rdf:RDF>
  </metadata>
  <sodipodi:namedview
     pagecolor="#ffffff"
     bordercolor="#666666"
     borderopacity="1"
     objecttolerance="10"
     gridtolerance="10"
     guidetolerance="10"
     inkscape:pageopacity="0"
     inkscape:pageshadow="2"
     inkscape:window-width="1920"
     inkscape:window-height="1001"
     id="namedview53"
     showgrid="false"
     inkscape:zoom="5.7866704"
     inkscape:cx="101.01315"
     inkscape:cy="18.867348"
     inkscape:window-x="-9"
     inkscape:window-y="-9"
     inkscape:window-maximized="1"
     inkscape:current-layer="svg51" />
  <defs
     id="defs4">
    <style
       id="style2">.cls-1{fill:#010101;}.cls-2{fill:#2b2b2b;}.cls-3{fill:#020202;}.cls-4{fill:#f0d202;}.cls-5{fill:#f0d203;}.cls-6{fill:#585858;}.cls-7{fill:#9a9a9a;}</style>
  </defs>
  <title
     id="title6">logo-pantheon</title>
  <g
     id="g227"
     transform="translate(-2.4987927)">
    <g
       transform="translate(0,-1.5836341)"
       id="g202">
      <g
         id="g131"
         transform="matrix(0.15087052,0,0,0.15087052,16.045944,15.189289)">
        <path
           class="cls-1"
           d="m 645.94,112.49 c 0,-0.18 0,-0.36 0,-0.54 q 0,-17 0,-34 c 0,-0.45 0,-0.9 0,-1.28 0.11,-0.09 0.15,-0.14 0.19,-0.14 h 16.61 v 0.55 l -0.28,0.12 v 64.28 h -5.91 -10.66 c -0.66,-0.85 -1.33,-1.64 -1.91,-2.49 -0.58,-0.85 -1.18,-1.68 -1.78,-2.5 -0.6,-0.82 -1.24,-1.66 -1.84,-2.5 -0.6,-0.84 -1.19,-1.57 -1.77,-2.37 -0.58,-0.8 -1.18,-1.68 -1.79,-2.51 -0.61,-0.83 -1.26,-1.63 -1.87,-2.46 -0.61,-0.83 -1.1,-1.74 -1.77,-2.52 -0.67,-0.78 -1.18,-1.69 -1.83,-2.5 a 29.86,29.86 0 0 1 -1.84,-2.47 c -0.57,-0.86 -1.2,-1.68 -1.81,-2.5 -0.61,-0.82 -1.18,-1.69 -1.79,-2.51 -0.61,-0.82 -1.21,-1.55 -1.76,-2.37 -0.55,-0.82 -1.28,-1.63 -1.86,-2.48 -0.58,-0.85 -1.2,-1.67 -1.78,-2.51 -0.58,-0.84 -1.24,-1.65 -1.85,-2.49 -0.08,0.09 -0.18,0.15 -0.18,0.2 q 0,18.43 0,36.83 c -0.13,0.06 -0.21,0.13 -0.29,0.13 -3.89,0.09 -15.31,0.05 -16.63,-0.05 a 0.43,0.43 0 0 1 -0.09,-0.1 0.29,0.29 0 0 1 0,-0.13 V 76.64 c 0.06,-0.06 0.09,-0.11 0.13,-0.13 a 0.24,0.24 0 0 1 0.12,0 h 16.65 a 12.75,12.75 0 0 1 1.43,1.79 c 0.31,0.56 0.87,0.92 1.07,1.53 1.33,1.58 2.48,3.3 3.77,4.92 0.67,0.84 1.33,1.7 2,2.56 0.67,0.86 1.24,1.63 1.81,2.48 0.57,0.85 1.17,1.59 1.78,2.36 1,1.27 1.9,2.63 3,3.86 0.27,0.74 1,1.14 1.36,1.82 a 13.44,13.44 0 0 0 1.33,1.7 c 0.49,0.64 1,1.3 1.42,2 0.42,0.7 0.92,1.21 1.36,1.83 0.72,1 1.56,2 2.33,3 0.77,1 1.35,1.78 2,2.68 l 1.2,1.61 1.43,1.93 c 0,0 0.09,0 0.14,0 0,0.59 0,1.18 0,1.77 0,0 0.1,0.06 0.19,0.12 a 2.19,2.19 0 0 0 0,-0.42 c 0,-0.56 -0.02,-1.06 -0.03,-1.56 z"
           id="path8"
           inkscape:connector-curvature="0"
           style="fill:#010101" />
        <path
           class="cls-2"
           d="M 662.51,141.42 V 77.14 l 0.28,-0.12 v 64.4 z"
           id="path10"
           inkscape:connector-curvature="0"
           style="fill:#2b2b2b" />
        <path
           class="cls-1"
           d="M 306.06,112.2 V 76.64 c 0.08,-0.07 0.1,-0.11 0.14,-0.13 a 0.31,0.31 0 0 1 0.13,0 h 16.36 c 0.25,0.17 0.18,0.41 0.18,0.63 0,0.22 0,0.64 0,1 v 61.93 c 0,0.45 0,0.9 0,1.34 -1.5,0.17 -8.89,0.21 -16.81,0.1 -0.3,-0.14 -0.42,-0.42 -0.59,-0.69 -0.48,-0.76 -1,-1.46 -1.58,-2.18 l -1,-1.29 a 8.16,8.16 0 0 1 -0.93,-1.3 c -0.23,-0.51 -0.81,-0.75 -0.92,-1.32 -1,-1.13 -1.73,-2.52 -2.77,-3.65 a 16.67,16.67 0 0 0 -1.15,-1.64 c -0.33,-0.58 -0.91,-1 -1.2,-1.62 a 13.48,13.48 0 0 0 -0.89,-1.18 c -0.57,-0.91 -1.28,-1.73 -1.88,-2.62 -0.43,-0.63 -0.91,-1.21 -1.35,-1.84 -0.56,-0.81 -1.15,-1.6 -1.75,-2.39 a 15.19,15.19 0 0 1 -1.62,-2.28 5.33,5.33 0 0 0 -0.61,-0.74 c -0.16,-0.21 -0.27,-0.46 -0.43,-0.67 a 20.86,20.86 0 0 1 -2,-2.83 42.78,42.78 0 0 1 -2.75,-3.67 41.18,41.18 0 0 1 -2.44,-3.36 c -0.21,-0.34 -0.59,-0.59 -0.75,-0.95 a 3.06,3.06 0 0 0 -0.76,-0.94 0.76,0.76 0 0 0 -0.08,0.11 0.18,0.18 0 0 0 0,0.12 c 0,0.14 0,0.27 0,0.41 q 0,18.17 0,36.33 c 0,0 0,0.07 -0.08,0.11 a 0.75,0.75 0 0 1 -0.24,0.08 h -16.45 a 1,1 0 0 1 -0.25,-0.08 c 0,0 -0.08,-0.07 -0.09,-0.11 a 2.43,2.43 0 0 1 0,-0.27 V 76.63 a 0.79,0.79 0 0 1 0.15,-0.14 0.29,0.29 0 0 1 0.13,0 h 16.56 a 2.57,2.57 0 0 1 0.78,0.85 c 0.33,0.53 0.75,1 1.12,1.51 a 5.52,5.52 0 0 1 0.84,1.06 c 0.19,0.44 0.66,0.71 0.88,1.18 0.22,0.47 0.68,0.61 0.79,1.08 a 27.91,27.91 0 0 1 2.06,2.67 c 0.7,0.93 1.44,1.83 2.08,2.81 0.41,0.64 1,1.19 1.44,1.8 0.69,0.88 1.39,1.75 2,2.67 0.18,0.27 0.4,0.49 0.58,0.75 0.18,0.26 0.34,0.52 0.52,0.77 l 1.09,1.38 a 8,8 0 0 0 1.08,1.38 c 0.15,0.6 0.76,0.87 1,1.44 0.12,0.31 0.49,0.53 0.72,0.82 0.23,0.29 0.4,0.58 0.62,0.87 0.5,0.68 1,1.35 1.52,2 0.52,0.65 1,1.38 1.52,2.05 0.52,0.67 1.22,1.56 1.79,2.37 0.36,0.51 0.82,1 1.16,1.49 0.34,0.49 0.94,1 1.26,1.59 0.32,0.59 0.89,0.89 1.07,1.52 0.59,0.51 0.83,1.31 1.49,1.76 a 13.62,13.62 0 0 0 0.2,2.37 17,17 0 0 0 0.11,-2.48 z"
           id="path14"
           inkscape:connector-curvature="0"
           style="fill:#010101" />
        <path
           class="cls-1"
           d="m 589.34,104.41 0.23,0.36 v 7.81 l -0.23,0.36 v 0.13 a 4.64,4.64 0 0 1 -0.2,1.73 c -0.23,0.48 0,1.05 -0.33,1.56 -0.16,0.28 -0.09,0.68 -0.26,1 -0.17,0.32 0,0.82 -0.32,1.14 0.14,0.41 -0.32,0.65 -0.29,1 0.03,0.35 -0.43,0.61 -0.27,1 a 7.57,7.57 0 0 0 -0.69,1.57 c -0.21,0.49 -0.45,1 -0.69,1.43 a 23.65,23.65 0 0 1 -2.15,3.67 c 0,0.41 -0.4,0.59 -0.61,0.87 -0.21,0.28 -0.42,0.59 -0.61,0.88 -0.46,0.68 -1.08,1.23 -1.56,1.89 a 22,22 0 0 1 -2,2.2 2.47,2.47 0 0 1 -0.49,0.48 c -1.11,0.7 -1.94,1.74 -3.09,2.39 -0.57,0.33 -1,0.95 -1.67,1.09 a 10.75,10.75 0 0 1 -1.69,1.08 13.34,13.34 0 0 1 -1.75,0.93 9.25,9.25 0 0 1 -1.34,0.56 c -0.46,0.15 -0.87,0.4 -1.35,0.54 -0.48,0.14 -0.92,0.29 -1.38,0.46 a 4.35,4.35 0 0 0 -1.12,0.38 c -0.4,0.31 -0.9,0 -1.28,0.35 -0.38,0.35 -0.79,0 -1.16,0.3 -0.17,0.14 -0.53,0 -0.79,0.08 a 7.75,7.75 0 0 0 -0.79,0.26 c -0.49,0.09 -1.2,-0.19 -1.81,0.27 h -7 l -0.39,-0.27 a 6.85,6.85 0 0 0 -0.78,0 3.81,3.81 0 0 1 -1.3,-0.26 c -0.38,-0.1 -0.83,0.07 -1.17,-0.26 -0.55,0.08 -1,-0.27 -1.56,-0.32 -0.56,-0.05 -1.24,-0.44 -1.9,-0.56 -0.47,-0.09 -0.89,-0.42 -1.36,-0.51 a 11.28,11.28 0 0 1 -1.23,-0.5 6.47,6.47 0 0 1 -1.33,-0.56 c -0.38,-0.22 -0.78,-0.41 -1.18,-0.6 -1,-0.51 -1.92,-1.27 -3,-1.71 a 10.17,10.17 0 0 0 -1.37,-1.08 c -0.67,-0.55 -1.33,-1.1 -2,-1.63 -0.67,-0.53 -1.35,-1.21 -2,-1.83 a 7.77,7.77 0 0 1 -1,-1.24 c -0.31,-0.45 -0.87,-0.75 -1.08,-1.22 -0.21,-0.47 -0.83,-0.74 -0.91,-1.33 -0.55,-0.48 -0.83,-1.18 -1.34,-1.7 -0.12,-0.68 -0.68,-1.12 -1,-1.74 -0.37,-0.84 -0.87,-1.64 -1.24,-2.49 a 37.24,37.24 0 0 1 -1.39,-3.69 5,5 0 0 1 -0.33,-1.42 c -0.42,-0.37 -0.06,-1 -0.44,-1.39 -0.14,-0.16 0,-0.53 -0.08,-0.8 a 4.5,4.5 0 0 0 -0.24,-0.7 4.46,4.46 0 0 0 -0.26,-1.9 c -0.1,-0.18 0,-0.45 0,-0.68 v -7.14 a 1.08,1.08 0 0 0 0.27,-0.76 2.11,2.11 0 0 1 0.19,-1.18 c 0.24,-0.38 -0.08,-0.91 0.24,-1.31 0.32,-0.4 0,-0.83 0.31,-1.15 a 9.19,9.19 0 0 1 0.53,-1.91 c 0.22,-0.62 0.47,-1.24 0.63,-1.88 a 12.64,12.64 0 0 1 0.91,-2.06 41.15,41.15 0 0 1 2.15,-4 c 0.16,-0.27 0.4,-0.49 0.58,-0.75 0.18,-0.26 0.28,-0.46 0.43,-0.67 a 25.61,25.61 0 0 1 2.48,-3 c 0.65,-0.65 1.28,-1.31 2,-1.95 a 6.73,6.73 0 0 1 1.34,-1.14 c 0.5,-0.28 0.79,-0.86 1.38,-1.07 a 13.53,13.53 0 0 1 2.04,-1.51 c 0.08,0 0.13,-0.15 0.21,-0.18 1,-0.34 1.74,-1.06 2.68,-1.45 a 5,5 0 0 1 1.32,-0.58 c 0.48,-0.06 0.84,-0.46 1.35,-0.56 0.51,-0.1 0.79,-0.38 1.21,-0.5 0.42,-0.12 0.92,-0.32 1.38,-0.46 0,0 0.08,-0.08 0.11,-0.08 0.52,0.08 1,-0.23 1.43,-0.3 a 7.56,7.56 0 0 1 1.84,-0.33 c 0.11,0 0.22,-0.14 0.33,-0.22 a 10.51,10.51 0 0 0 1.86,-0.23 13.91,13.91 0 0 1 2.41,0 l 0.41,-0.27 h 2.63 l 0.4,0.23 h 2.61 l 0.38,0.27 c 0.49,0.07 1,-0.11 1.47,0.16 0.47,0.27 0.94,0 1.3,0.24 0.36,0.24 1,0 1.39,0.44 0.57,-0.15 1,0.36 1.57,0.31 0.42,0.36 1,0.34 1.47,0.59 a 9.79,9.79 0 0 0 1.46,0.61 10.51,10.51 0 0 1 2.15,1 c 0.76,0.45 1.57,0.82 2.31,1.31 0.74,0.49 1.49,1 2.2,1.54 a 12.46,12.46 0 0 0 1.46,1.19 8.17,8.17 0 0 1 1.44,1.16 c 0.45,0.39 0.86,0.84 1.28,1.26 a 12.44,12.44 0 0 1 1.33,1.39 c 0.75,1.06 1.66,2 2.34,3.1 0.47,0.76 0.95,1.51 1.39,2.28 a 30.33,30.33 0 0 1 1.43,2.85 5.61,5.61 0 0 1 0.6,1.47 c 0.07,0.47 0.4,0.89 0.5,1.36 a 14.68,14.68 0 0 1 0.59,2 1.19,1.19 0 0 1 0.26,0.89 c 0,0.62 0.41,1.19 0.29,1.84 0.46,0.56 0.14,1.22 0.3,1.77 z m -31.09,21.32 a 1.63,1.63 0 0 1 0.49,-0.25 c 0.44,-0.06 0.92,0.08 1.29,-0.29 0.53,0.16 1,-0.18 1.43,-0.3 a 16.43,16.43 0 0 0 3.59,-1.69 10.65,10.65 0 0 0 2.25,-1.7 2.6,2.6 0 0 0 1.22,-1 11.38,11.38 0 0 1 1.13,-1.35 c 0.11,-0.14 0.3,-0.25 0.35,-0.41 0.17,-0.47 0.56,-0.8 0.77,-1.25 0.45,-1 0.94,-1.9 1.42,-2.85 0,-0.54 0.41,-1 0.33,-1.56 0.37,-0.42 0.24,-0.94 0.28,-1.43 0.44,-0.46 0.23,-1 0.25,-1.57 0.05,-0.92 0,-1.84 0,-2.75 0,-0.91 -0.4,-1.67 -0.31,-2.54 0,0 -0.06,-0.07 -0.07,-0.11 a 36.12,36.12 0 0 0 -1.31,-3.46 c -0.23,-0.43 -0.54,-0.83 -0.77,-1.25 -0.23,-0.42 -0.57,-0.9 -0.87,-1.34 a 8.36,8.36 0 0 0 -1,-1.25 c -0.38,-0.4 -0.8,-0.76 -1.16,-1.18 a 14.23,14.23 0 0 0 -1.37,-1.09 7.5,7.5 0 0 0 -1.79,-1.18 10,10 0 0 0 -2.3,-1 c -0.39,-0.08 -0.68,-0.47 -1.11,-0.42 -0.43,0.05 -0.81,-0.4 -1.3,-0.31 -0.19,0 -0.41,-0.14 -0.71,-0.25 h -5.79 c -0.13,0.08 -0.25,0.23 -0.36,0.22 -0.51,0 -1,0.28 -1.43,0.31 -0.43,0.03 -1,0.44 -1.48,0.55 a 10.4,10.4 0 0 0 -2.53,1.17 10.52,10.52 0 0 0 -2.28,1.65 12.54,12.54 0 0 0 -2.49,2.7 c -0.58,0.46 -0.76,1.21 -1.2,1.76 a 10.19,10.19 0 0 0 -0.77,1.41 c -0.16,0.29 -0.44,0.59 -0.35,1 -0.27,0.28 -0.18,0.71 -0.37,1 -0.19,0.29 0,0.78 -0.24,1 -0.37,0.43 0,1 -0.44,1.4 0,0.5 0,1 0,1.5 0,0.5 0,1 0,1.51 0,0.51 0,0.73 0,1.1 a 3.38,3.38 0 0 0 0.13,1.2 4.39,4.39 0 0 1 0.16,1.06 c 0.09,0.43 0.37,0.82 0.28,1.3 0,0.06 0.13,0.13 0.15,0.22 a 19.62,19.62 0 0 0 1.18,2.65 17.47,17.47 0 0 0 3.12,4.35 c 0.25,0.3 0.66,0.45 0.94,0.74 a 15.8,15.8 0 0 0 2.5,1.82 15.34,15.34 0 0 0 1.91,0.93 c 0.56,0.27 1.2,0.34 1.74,0.63 0.54,0.29 0.93,0 1.27,0.37 0.31,0 0.64,0 0.95,0 a 1.7,1.7 0 0 1 0.48,0.25 z"
           id="path16"
           inkscape:connector-curvature="0"
           style="fill:#010101" />
        <path
           class="cls-1"
           d="m 415.9,101.5 h 24.35 c 0.23,-0.16 0.15,-0.41 0.15,-0.62 v -23 a 12,12 0 0 1 0,-1.34 c 1.25,-0.11 14.74,-0.13 16.67,0 0,0 0.08,0 0.1,0.09 a 0.3,0.3 0 0 1 0,0.13 v 64.51 c -0.13,0.2 -0.31,0.18 -0.49,0.18 h -15.82 c -0.13,0 -0.26,0 -0.37,0 a 1,1 0 0 1 -0.11,-0.13 0.32,0.32 0 0 1 0,-0.14 V 115.2 c -0.14,-0.23 -0.34,-0.2 -0.51,-0.2 h -23.8 c -0.26,0.24 -0.16,0.53 -0.16,0.79 v 25.55 c -1.41,0.18 -11.52,0.22 -16.67,0.09 -0.29,-0.26 -0.15,-0.6 -0.15,-0.9 V 77.91 a 9.92,9.92 0 0 1 0,-1.34 c 1.25,-0.12 14.31,-0.16 16.65,-0.05 a 0.45,0.45 0 0 1 0.1,0.09 0.31,0.31 0 0 1 0,0.13 z"
           id="path18"
           inkscape:connector-curvature="0"
           style="fill:#010101" />
        <path
           class="cls-1"
           d="m 182.44,141.43 a 8.24,8.24 0 0 1 0.47,-1.34 7,7 0 0 0 0.65,-1.74 c 0.13,-0.57 0.62,-1 0.59,-1.61 a 27.62,27.62 0 0 0 1.16,-2.94 c 0.21,-0.44 0.32,-0.92 0.54,-1.35 a 9.73,9.73 0 0 0 0.49,-1.37 18.29,18.29 0 0 1 0.69,-1.7 26.56,26.56 0 0 1 1.23,-3.07 c -0.06,-0.45 0.27,-0.75 0.42,-1.11 0.15,-0.36 0.21,-0.76 0.4,-1.13 0.45,-0.9 0.66,-1.91 1.11,-2.82 0,-0.56 0.45,-1 0.58,-1.48 a 4.68,4.68 0 0 1 0.54,-1.49 5.31,5.31 0 0 0 0.35,-1 c 0.13,-0.33 0.32,-0.64 0.45,-1 0.13,-0.36 0.19,-0.68 0.29,-1 a 6.89,6.89 0 0 0 0.56,-1.34 c 0,-0.49 0.43,-0.86 0.56,-1.34 a 14,14 0 0 1 0.49,-1.37 31,31 0 0 0 1.16,-3.09 c 0.1,-0.43 0.43,-0.8 0.5,-1.22 0.07,-0.42 0.47,-0.95 0.6,-1.48 a 5,5 0 0 1 0.54,-1.48 4.76,4.76 0 0 0 0.35,-1 c 0.12,-0.33 0.33,-0.63 0.45,-1 0.12,-0.37 0.18,-0.69 0.3,-1 a 7.48,7.48 0 0 0 0.52,-1.21 c 0.09,-0.55 0.47,-1 0.59,-1.48 a 5.26,5.26 0 0 1 0.54,-1.48 5.45,5.45 0 0 0 0.36,-1 c 0.11,-0.33 0.32,-0.63 0.44,-1 0.12,-0.37 0.18,-0.69 0.31,-1 a 7.42,7.42 0 0 0 0.51,-1.21 c 0.09,-0.59 0.62,-1 0.58,-1.62 0.3,-0.45 0.3,-1 0.59,-1.47 0.29,-0.47 0.32,-1 0.58,-1.48 a 7.2,7.2 0 0 0 0.49,-1.37 11.67,11.67 0 0 0 0.51,-1.22 10.58,10.58 0 0 1 0.4,-1 6.5,6.5 0 0 0 0.42,-1.1 2.59,2.59 0 0 1 0.36,-1 c 0.26,-0.48 0.31,-1 0.57,-1.48 a 6.79,6.79 0 0 0 0.49,-1.37 c 0.16,-0.55 0.47,-1 0.64,-1.59 0.17,-0.59 0.4,-1 0.56,-1.47 h 18.45 a 4,4 0 0 1 0.5,1.24 3.68,3.68 0 0 0 0.49,1.22 8,8 0 0 1 0.5,1.36 c 0.15,0.42 0.37,0.81 0.51,1.23 a 9.06,9.06 0 0 0 0.57,1.61 c 0.25,0.47 0.24,1 0.59,1.47 0,0.66 0.45,1.14 0.61,1.75 a 6.8,6.8 0 0 0 0.66,1.81 3.3,3.3 0 0 1 0.38,1.12 c 0,0.37 0.3,0.63 0.4,1 a 7.12,7.12 0 0 1 0.41,1.11 11.08,11.08 0 0 0 0.58,1.48 c 0.14,0.51 0.35,1 0.53,1.49 a 26.08,26.08 0 0 1 1.13,3.1 c 0.57,1 0.71,2.09 1.23,3.07 a 3.5,3.5 0 0 1 0.39,1.11 6.82,6.82 0 0 0 0.46,1.11 7.34,7.34 0 0 1 0.37,1.12 c 0.11,0.62 0.57,1.09 0.65,1.74 a 3.12,3.12 0 0 0 0.48,1.22 7.77,7.77 0 0 1 0.5,1.37 11.67,11.67 0 0 1 0.51,1.22 c 0.28,1.16 0.88,2.21 1.19,3.36 a 9.62,9.62 0 0 0 0.54,1.34 c 0.21,0.45 0.28,0.93 0.49,1.38 a 2.86,2.86 0 0 1 0.37,1 5.22,5.22 0 0 0 0.5,1.08 c 0.13,0.32 0.18,0.68 0.3,1 0.12,0.32 0.38,0.8 0.53,1.21 a 13.15,13.15 0 0 0 0.39,1.26 c 0.3,0.64 0.48,1.33 0.75,2 0.33,0.81 0.61,1.64 0.93,2.47 0.26,0.65 0.46,1.33 0.73,2 a 12.16,12.16 0 0 0 0.78,1.82 c -0.06,0.67 0.45,1.15 0.6,1.75 a 13.12,13.12 0 0 0 0.67,1.73 c 0.33,0.81 0.66,1.64 0.91,2.48 a 11.79,11.79 0 0 1 0.62,1.6 4.13,4.13 0 0 0 0.64,1.59 c 0.18,0.29 0.06,0.61 0.28,0.89 a 3.2,3.2 0 0 1 0.33,0.85 c 0.11,0.29 0.25,0.56 0.35,0.85 a 1,1 0 0 1 0,0.38 c -1.33,0.14 -14,0.18 -17.73,0.06 a 2,2 0 0 1 -0.65,-1.14 9.16,9.16 0 0 0 -0.84,-2.08 10,10 0 0 0 -0.68,-2 c -0.36,-1.14 -0.86,-2.22 -1.25,-3.34 0,-0.12 0,-0.28 -0.08,-0.39 -0.39,-0.6 -0.48,-1.32 -0.81,-1.95 a 1.92,1.92 0 0 0 -0.26,-0.32 h -22.88 a 2.11,2.11 0 0 0 -0.52,1.14 c -0.05,0.38 -0.39,0.71 -0.5,1.08 -0.19,0.64 -0.52,1.21 -0.72,1.85 -0.13,0.42 -0.32,0.82 -0.46,1.24 a 8.92,8.92 0 0 0 -0.51,1.22 c -0.09,0.42 -0.4,0.8 -0.51,1.22 a 3.48,3.48 0 0 1 -0.56,1.2 c 0,0.71 -0.6,1.19 -0.62,1.89 0,0.14 -0.22,0.27 -0.34,0.41 z m 34,-44.77 c -0.64,1.88 -1.23,3.54 -1.76,5.21 -0.39,1.22 -0.88,2.4 -1.17,3.64 a 5.57,5.57 0 0 0 -0.73,1.83 11.2,11.2 0 0 0 -0.53,1.86 c -0.29,0.31 -0.2,0.76 -0.4,1.11 -0.2,0.35 -0.15,0.78 -0.41,1.11 0.09,0.43 -0.42,0.71 -0.29,1.15 -0.36,0.28 -0.24,0.75 -0.44,1.11 -0.2,0.36 -0.21,0.86 -0.4,1.25 -0.19,0.39 -0.2,1 -0.53,1.35 0,0.3 -0.19,0.64 0.14,0.9 7.34,0.09 11.92,0.06 13.29,-0.09 a 1.13,1.13 0 0 0 0,-0.92 c -0.75,-2 -1.36,-4 -2,-6 -0.51,-1.5 -1,-3 -1.48,-4.51 -0.48,-1.51 -1,-3 -1.51,-4.51 -0.42,-1.25 -0.87,-2.49 -1.24,-3.76 a 5,5 0 0 0 -0.52,-0.73 z"
           id="path20"
           inkscape:connector-curvature="0"
           style="fill:#010101" />
        <path
           class="cls-1"
           d="m 182.25,102.14 -0.21,0.32 c -0.14,0.6 0,1.14 -0.26,1.67 -0.26,0.53 0.07,1 -0.33,1.41 a 2.5,2.5 0 0 1 -0.32,1.42 5.63,5.63 0 0 1 -0.5,1.37 12.14,12.14 0 0 0 -0.55,1.34 17.46,17.46 0 0 1 -2.87,4.19 c -0.43,0.41 -0.83,0.85 -1.28,1.25 a 9.43,9.43 0 0 1 -1.37,1.08 c -0.86,0.55 -1.76,1 -2.65,1.53 -1,0.16 -1.77,0.8 -2.76,0.93 -0.12,0 -0.24,0.2 -0.35,0.18 -0.47,-0.06 -0.86,0.33 -1.29,0.28 -0.43,-0.05 -0.74,0.3 -1.16,0.29 a 1.4,1.4 0 0 0 -1,0.23 c -0.11,0.09 -0.35,0 -0.53,0 -0.55,0 -1.1,0 -1.56,0 l -0.48,0.32 h -12.9 c -0.07,0.09 -0.11,0.11 -0.13,0.15 a 0.32,0.32 0 0 0 0,0.14 q 0,10.45 0,20.91 a 0.51,0.51 0 0 1 0,0.14 0.36,0.36 0 0 1 -0.09,0.08 0.28,0.28 0 0 1 -0.13,0 h -16.42 c -0.26,-0.14 -0.19,-0.39 -0.19,-0.61 V 76.64 a 1.82,1.82 0 0 1 0.17,-0.14 0.23,0.23 0 0 1 0.12,0 h 28.43 l 0.41,0.28 c 0.44,0 0.9,0 1.35,0 a 2.77,2.77 0 0 1 1,0.18 4.26,4.26 0 0 0 1.36,0.12 c 0.1,0.07 0.22,0.22 0.33,0.21 0.52,-0.08 0.94,0.26 1.43,0.3 a 12.73,12.73 0 0 1 1.52,0.46 c 0.48,0.09 0.92,0.3 1.39,0.43 a 9.22,9.22 0 0 1 1.68,0.8 c 0.52,0.26 1,0.54 1.54,0.8 0.54,0.26 0.76,0.78 1.3,0.93 0.56,0.6 1.31,1 1.87,1.58 a 20.9,20.9 0 0 1 3.43,4.94 c 0.22,0.44 0.22,1 0.54,1.35 0.32,0.35 0.22,0.84 0.47,1.23 0.25,0.39 0,0.83 0.33,1.14 a 4.12,4.12 0 0 0 0.26,1.3 4.71,4.71 0 0 1 0,1.06 l 0.28,0.43 z m -32.45,4 a 3.63,3.63 0 0 0 0.46,0.06 c 2.29,0 4.58,-0.05 6.87,0 a 22.07,22.07 0 0 1 2.39,-0.32 c 0.07,0 0.14,-0.13 0.22,-0.15 a 9.17,9.17 0 0 0 1.6,-0.63 7.78,7.78 0 0 0 2.46,-2.1 c 0,-0.25 0.23,-0.4 0.27,-0.6 a 1.9,1.9 0 0 1 0.25,-0.76 c 0.11,-0.18 0,-0.47 0.16,-0.63 a 1.22,1.22 0 0 0 0.16,-0.78 c 0,-0.28 0,-0.55 0,-0.83 0,-0.82 -0.06,-1.65 0,-2.47 a 10.11,10.11 0 0 0 -0.33,-2 c 0,-0.37 -0.37,-0.7 -0.5,-1.07 a 5.71,5.71 0 0 0 -4.08,-3.15 10.32,10.32 0 0 0 -1.57,-0.28 c -0.11,0 -0.22,-0.14 -0.38,-0.25 h -7.37 c -0.22,0 -0.46,-0.08 -0.64,0.17 z"
           id="path22"
           inkscape:connector-curvature="0"
           style="fill:#010101" />
        <path
           class="cls-3"
           d="m 470.68,76.49 h 42.49 c 0.23,0.17 0.15,0.42 0.15,0.64 v 13.48 c -0.24,0.33 -0.59,0.18 -0.89,0.18 h -24.6 c -0.15,1.21 -0.19,8.08 -0.07,10.61 a 0.43,0.43 0 0 0 0.1,0.09 0.17,0.17 0 0 0 0.12,0 h 18.27 l 0.4,0.36 v 14 c -0.15,0.23 -0.4,0.14 -0.61,0.14 h -18.13 c 0,0 -0.07,0 -0.1,0.08 -0.13,1.18 -0.17,8.19 -0.06,10.82 l 0.1,0.09 a 0.28,0.28 0 0 0 0.13,0 h 25.17 c 0.26,0.16 0.19,0.4 0.19,0.62 q 0,6.67 0,13.35 a 0.78,0.78 0 0 1 -0.07,0.25 c -0.07,0 -0.15,0.1 -0.23,0.1 h -42.2 c -0.08,-0.09 -0.12,-0.11 -0.14,-0.15 a 0.3,0.3 0 0 1 0,-0.13 z"
           id="path24"
           inkscape:connector-curvature="0"
           style="fill:#020202" />
        <path
           class="cls-1"
           d="m 369.39,141.37 c -1.65,0.1 -15.5,0.09 -16.72,0 0,0 -0.08,-0.06 -0.09,-0.1 a 0.29,0.29 0 0 1 0,-0.13 V 91.2 l -0.27,-0.31 a 0.76,0.76 0 0 0 -0.15,-0.08 0.3,0.3 0 0 0 -0.13,0 h -15.78 c -0.19,-1.15 -0.24,-7.72 -0.11,-14.18 0.32,-0.25 0.7,-0.13 1,-0.13 h 48.29 c 0.21,0.12 0.2,0.3 0.2,0.49 q 0,6.74 0,13.48 a 0.7,0.7 0 0 1 -0.06,0.23 0.38,0.38 0 0 1 -0.11,0.11 c 0,0 -0.09,0 -0.13,0 h -15.69 -0.12 a 0.32,0.32 0 0 0 -0.1,0.1 0.24,0.24 0 0 0 0,0.12 z"
           id="path28"
           inkscape:connector-curvature="0"
           style="fill:#010101" />
        <path
           class="cls-6"
           d="m 306.06,112.2 a 17,17 0 0 1 -0.1,2.47 13.62,13.62 0 0 1 -0.2,-2.37 z"
           id="path40"
           inkscape:connector-curvature="0"
           style="fill:#585858" />
        <path
           class="cls-7"
           d="m 645.94,112.49 c 0,0.5 0,1 0,1.49 a 2.19,2.19 0 0 1 0,0.42 c -0.09,-0.06 -0.19,-0.09 -0.19,-0.12 0,-0.59 0,-1.18 0,-1.77 a 0.46,0.46 0 0 0 0.19,-0.02 z"
           id="path42"
           inkscape:connector-curvature="0"
           style="fill:#9a9a9a" />
      </g>
    </g>
    <g
       transform="matrix(0.22539217,0,0,0.22539217,8.9629312,5.4345074)"
       id="g142">
      <path
         style="fill:#010101"
         inkscape:connector-curvature="0"
         id="path12"
         d="M 41.91,146.67 H 7.33 c -0.5,0 -1,-0.05 -1.51,0 -0.51,0.05 -0.81,-0.4 -1.31,-0.33 -0.25,-0.24 -0.5,-0.51 -0.79,-0.74 a 6.16,6.16 0 0 1 -1.24,-1.91 9.72,9.72 0 0 0 -0.55,-1.76 5.26,5.26 0 0 1 -0.3,-1.57 c 0,-0.16 -0.14,-0.33 -0.24,-0.54 -0.08,-0.51 0.13,-1.13 -0.28,-1.64 v -1.48 l -0.29,-0.43 v -2.07 l -0.27,-0.42 v -3.14 l -0.3,-0.44 v -5.09 l -0.28,-0.42 V 93.51 l 0.27,-0.5 v -5.32 l 0.28,-0.41 v -2.9 l 0.27,-0.42 v -2.3 c 0.47,-0.63 0.2,-1.34 0.31,-2 l 0.26,-0.37 v -1.2 C 1.77,77.72 1.55,77.16 1.76,76.7 A 9.56,9.56 0 0 0 2.25,75.2 11.29,11.29 0 0 1 2.83,73.86 3.67,3.67 0 0 1 4.72,71.71 L 6.38,71.3 h 38.87 a 1.63,1.63 0 0 1 0.7,1.13 4.28,4.28 0 0 0 0.4,1 c 0.4,0.74 0.57,1.58 1,2.3 0.07,0.82 0.8,1.39 0.85,2.22 a 1.66,1.66 0 0 0 0.27,0.61 4.15,4.15 0 0 1 0.57,1.33 c 0.1,0.47 0.48,0.84 0.55,1.35 0,0.29 0.31,0.55 0.4,0.84 0.09,0.29 0.37,0.59 0.41,1 a 2.17,2.17 0 0 0 0.36,0.86 15.13,15.13 0 0 1 0.88,2.07 17.1,17.1 0 0 0 0.94,2 c -0.08,0.35 0.16,0.6 0.28,0.88 0.12,0.28 0.27,0.56 0.39,0.84 a 5.5,5.5 0 0 0 0.34,0.86 9.16,9.16 0 0 1 0.58,1.47 6.65,6.65 0 0 1 0.66,1.6 c 0.09,0.5 0.54,0.92 0.7,1.43 0.16,0.51 0.38,0.89 0.53,1.35 0.15,0.46 0.35,0.9 0.55,1.34 a 8.75,8.75 0 0 1 0.49,1.23 c 0.14,0.46 0.55,0.85 0.63,1.31 a 16.31,16.31 0 0 0 0.67,1.73 c 0.16,0.59 0.63,1.1 0.76,1.69 0.13,0.59 0.54,1.11 0.72,1.71 0.13,0.42 0.29,0.83 0.42,1.25 0,0.07 0,0.17 0,0.26 0,0.09 -0.15,0.13 -0.22,0.13 h -17 c -0.45,-0.91 -0.71,-1.91 -1.24,-2.77 a 2,2 0 0 0 -0.43,-1.11 c -0.16,-0.32 0,-0.76 -0.39,-1 -0.39,-0.8 -0.6,-1.67 -1.05,-2.44 -0.09,-0.9 -0.85,-1.56 -0.92,-2.47 a 9.45,9.45 0 0 1 -0.92,-2 c -0.17,-0.5 -0.43,-1 -0.61,-1.47 A 15.94,15.94 0 0 1 36.85,92.2 11.08,11.08 0 0 0 36.18,90.75 26.49,26.49 0 0 0 34.96,87.83 c -0.1,-0.19 -0.22,-0.37 -0.34,-0.56 h -3.64 c -0.28,0.17 -0.2,0.46 -0.07,0.68 a 19.7,19.7 0 0 1 1,2.31 16.31,16.31 0 0 0 1,2.3 3.47,3.47 0 0 0 0.39,1.12 c 0.11,0.33 0.44,0.61 0.48,0.94 a 2.59,2.59 0 0 0 0.47,1.08 c 0.18,0.32 0.12,0.69 0.37,1 a 2.76,2.76 0 0 1 0.51,1.08 7.13,7.13 0 0 0 0.41,1.12 c 0.1,0.33 0.44,0.62 0.47,0.94 a 2.89,2.89 0 0 0 0.45,1.11 c 0.17,0.32 0.1,0.69 0.37,1 a 2.27,2.27 0 0 1 0.51,1.07 7.15,7.15 0 0 0 0.7,1.71 7.19,7.19 0 0 0 0.68,1.59 0.58,0.58 0 0 1 0,0.61 c -0.06,0 -0.09,0.1 -0.12,0.1 H 25.53 25.4 c -0.17,0.15 -0.09,0.29 0,0.47 a 6.91,6.91 0 0 1 0.7,1.57 c 0.09,0.53 0.55,0.91 0.58,1.48 a 1.21,1.21 0 0 0 0.27,0.6 c 0.44,0.68 0.54,1.5 1,2.19 a 22,22 0 0 0 0.91,2 c 0,0.43 0.25,0.76 0.39,1.12 a 7,7 0 0 1 0.5,1.23 3.25,3.25 0 0 0 0.53,1.07 c 0.27,0.42 0.29,0.92 0.52,1.36 a 12.52,12.52 0 0 1 0.59,1.47 c 0.19,0.44 0.55,0.82 0.54,1.34 a 13.33,13.33 0 0 1 1,2.18 c 0.18,0.49 0.45,1 0.6,1.46 a 14.13,14.13 0 0 1 0.66,1.6 c 0.09,0.5 0.55,0.93 0.68,1.43 0.13,0.5 0.49,1.14 0.67,1.73 0.18,0.59 0.57,1.2 0.79,1.82 0.22,0.62 0.57,1.12 0.74,1.69 0.17,0.57 0.5,1.13 0.68,1.73 0.18,0.6 0.56,1.2 0.79,1.82 0.23,0.62 0.58,1.12 0.74,1.69 0.16,0.57 0.5,1.13 0.67,1.73 0.17,0.6 0.64,1.1 0.76,1.68 a 17.57,17.57 0 0 0 0.73,1.71 c 0.11,0.51 0.27,0.91 0.47,1.47 z"
         class="cls-1" />
      <path
         style="fill:#f0d202"
         inkscape:connector-curvature="0"
         id="path26"
         d="m 71.56,217.39 h -0.43 a 1.36,1.36 0 0 0 -0.22,-0.47 27.4,27.4 0 0 1 -1.83,-2.18 c -0.33,-0.34 -0.57,-0.78 -0.91,-1.15 -0.34,-0.37 -0.52,-0.72 -0.81,-1.05 a 4.72,4.72 0 0 1 -0.91,-1.17 c -0.08,-0.19 -0.3,-0.33 -0.46,-0.5 -0.16,-0.17 -0.6,-0.49 -0.72,-0.81 a 2.83,2.83 0 0 0 -0.56,-0.74 c -0.22,-0.28 -0.57,-0.46 -0.63,-0.87 0,-0.11 -0.18,-0.2 -0.27,-0.3 l -1.47,-1.75 a 10.49,10.49 0 0 0 -1.38,-1.66 4.21,4.21 0 0 0 -1.19,-1.46 c -0.32,-0.32 -0.42,-0.78 -0.79,-1.08 a 2.74,2.74 0 0 1 -0.73,-1 c -0.15,-0.32 -0.51,-0.53 -0.74,-0.81 -0.23,-0.28 -0.33,-0.53 -0.52,-0.76 -0.55,-0.66 -1.1,-1.32 -1.67,-2 -0.3,-0.33 -0.44,-0.76 -0.78,-1.08 a 3.69,3.69 0 0 1 -0.94,-1.13 c -0.19,-0.4 -0.71,-0.63 -0.9,-1 -0.28,-0.55 -0.82,-0.86 -1.1,-1.36 a 7.27,7.27 0 0 0 -1,-1.25 c -0.27,-0.3 -0.37,-0.71 -0.7,-1 a 2.16,2.16 0 0 1 -0.73,-0.95 c 0,-0.16 -0.24,-0.27 -0.37,-0.4 a 7.7,7.7 0 0 1 -1.1,-1.36 c -0.27,-0.45 -0.76,-0.73 -1,-1.25 -0.14,-0.32 -0.51,-0.53 -0.74,-0.81 -0.23,-0.28 -0.33,-0.53 -0.52,-0.76 -0.54,-0.66 -1.09,-1.32 -1.67,-2 -0.3,-0.33 -0.44,-0.76 -0.78,-1.08 a 3.84,3.84 0 0 1 -0.94,-1.13 c -0.19,-0.4 -0.71,-0.63 -0.9,-1 -0.28,-0.55 -0.81,-0.87 -1.09,-1.36 a 7.32,7.32 0 0 0 -1,-1.25 c -0.27,-0.3 -0.37,-0.71 -0.7,-1 a 2.17,2.17 0 0 1 -0.73,-0.95 c -0.05,-0.16 -0.24,-0.27 -0.36,-0.4 a 7.19,7.19 0 0 1 -1.11,-1.35 c -0.26,-0.46 -0.76,-0.74 -1,-1.26 -0.14,-0.32 -0.5,-0.53 -0.74,-0.81 -0.24,-0.28 -0.32,-0.53 -0.52,-0.76 -0.54,-0.66 -1.09,-1.32 -1.67,-2 -0.3,-0.33 -0.44,-0.76 -0.78,-1.08 a 4,4 0 0 1 -0.94,-1.13 c -0.19,-0.4 -0.65,-0.65 -0.91,-1 a 6.46,6.46 0 0 0 -0.62,-0.86 2.64,2.64 0 0 1 -0.65,-0.85 2.65,2.65 0 0 0 -0.74,-0.8 c -0.33,-0.31 -0.4,-0.8 -0.79,-1.07 -0.39,-0.27 -0.58,-0.79 -0.9,-1.16 a 8,8 0 0 1 -0.94,-1 c -0.29,-0.54 -0.79,-0.88 -1.09,-1.37 a 9.36,9.36 0 0 0 -1,-1.25 c -0.25,-0.3 -0.45,-0.66 -0.71,-1 a 6.11,6.11 0 0 1 -0.82,-1.06 c -0.18,-0.35 -0.64,-0.56 -0.81,-0.91 a 7.81,7.81 0 0 0 -1,-1.26 c -0.69,-0.9 -1.47,-1.74 -2.09,-2.71 0.07,0 0.1,-0.08 0.14,-0.09 a 0.33,0.33 0 0 1 0.14,0 h 29.66 l 0.17,-0.06 c 0,-0.1 0.07,-0.25 0,-0.34 a 6.62,6.62 0 0 1 -0.78,-1.66 c -0.1,-0.57 -0.61,-1 -0.59,-1.6 0,-0.23 -0.26,-0.46 -0.35,-0.7 a 7,7 0 0 1 -0.47,-1.08 2.66,2.66 0 0 0 -0.54,-1.18 c -0.28,-0.35 -0.2,-0.76 -0.41,-1.12 -0.21,-0.36 -0.49,-0.65 -0.41,-1.1 0,-0.06 -0.09,-0.14 -0.13,-0.23 -0.21,-0.52 -0.53,-1 -0.7,-1.54 -0.17,-0.54 -0.55,-1 -0.69,-1.56 -0.14,-0.56 -0.52,-1.11 -0.68,-1.7 a 7.36,7.36 0 0 0 -0.77,-1.66 c 0.07,-0.44 -0.26,-0.74 -0.37,-1.12 -0.11,-0.38 -0.39,-0.7 -0.49,-1.07 -0.1,-0.37 -0.37,-0.71 -0.47,-1.08 -0.19,-0.68 -0.58,-1.28 -0.82,-1.93 -0.24,-0.65 -0.56,-1.27 -0.82,-1.92 -0.18,-0.44 -0.36,-0.89 -0.53,-1.33 -0.17,-0.44 -0.27,-0.84 -0.46,-1.22 a 3.4,3.4 0 0 1 -0.53,-1.34 c 0,-0.11 -0.21,-0.21 -0.23,-0.33 -0.09,-0.53 -0.52,-0.9 -0.58,-1.46 -0.06,-0.56 -0.61,-0.88 -0.54,-1.47 0,0 0,-0.07 -0.07,-0.11 a 8,8 0 0 1 -0.72,-1.54 c -0.12,-0.54 -0.53,-0.92 -0.61,-1.45 -0.35,-0.23 -0.15,-0.68 -0.39,-1 a 1.47,1.47 0 0 1 -0.38,-0.82 c 0,-0.41 -0.31,-0.62 -0.38,-1 -0.07,-0.38 -0.41,-0.53 -0.43,-0.81 0,-0.65 -0.5,-1.12 -0.67,-1.7 0,-0.13 -0.2,-0.26 -0.18,-0.35 0.1,-0.36 -0.31,-0.55 -0.28,-0.87 0,0 0,-0.08 0.05,-0.12 1.18,-0.12 6.94,-0.16 9.47,0 0,0.35 0.35,0.57 0.4,1 a 4.66,4.66 0 0 0 0.47,1.08 c 0.14,0.3 0.45,0.59 0.34,1 a 7.16,7.16 0 0 1 0.87,2 c 0.45,0.56 0.47,1.32 0.83,1.92 a 9.57,9.57 0 0 1 0.61,1.44 c 0.17,0.45 0.57,0.85 0.63,1.29 a 14.21,14.21 0 0 0 0.66,1.72 c 0.13,0.54 0.56,1 0.69,1.55 a 9.69,9.69 0 0 0 0.7,1.69 c 0.27,0.55 0.3,1.21 0.76,1.67 0,0.7 0.54,1.2 0.72,1.82 a 9.28,9.28 0 0 0 0.7,1.68 c 0.24,0.44 0.23,1 0.54,1.34 0.31,0.34 0.29,0.91 0.52,1.34 a 4.17,4.17 0 0 1 0.61,1.45 c 0.07,0.49 0.58,0.91 0.69,1.41 0.11,0.5 0.5,1.11 0.67,1.7 0.17,0.59 0.52,1 0.69,1.56 0.17,0.56 0.62,1.26 0.81,1.92 a 9.86,9.86 0 0 1 0.71,2 1.44,1.44 0 0 0 0.29,0.58 9.33,9.33 0 0 1 0.68,1.56 6.5,6.5 0 0 1 0.63,1.44 c 0.11,0.57 0.66,1 0.57,1.6 l 1,1.88 h 11.78 c 0.35,0.23 0,0.65 0.36,0.89 a 1.83,1.83 0 0 1 0.37,0.69 1.61,1.61 0 0 1 0.26,0.73 c 0,0.36 0.39,0.51 0.33,0.86 a 0.85,0.85 0 0 1 0.26,0.74 c 0,0.07 0.11,0.14 0.13,0.23 0.17,0.54 0.56,1 0.7,1.55 0.14,0.55 0.56,1 0.7,1.55 0.14,0.55 0.53,1.1 0.66,1.7 0.13,0.6 0.63,1.09 0.76,1.67 a 7.47,7.47 0 0 0 0.63,1.57 7.07,7.07 0 0 0 0.67,1.57 c 0.24,0.29 0,0.69 0.37,1 0.37,0.31 0.25,0.65 0.46,0.93 0.21,0.28 0,0.75 0.38,1 0,0.37 0.42,0.6 0.31,1 l 0.82,1.59 v 0.72 c -0.09,0.06 -0.16,0.14 -0.24,0.14 H 52.48 a 0.42,0.42 0 0 0 -0.17,0.59 c 0.29,0.41 0.26,0.93 0.53,1.34 a 15.22,15.22 0 0 1 0.57,1.46 5.55,5.55 0 0 1 0.57,1.32 15.4,15.4 0 0 0 0.69,1.42 c 0.15,0.46 0.35,0.89 0.53,1.33 a 12.75,12.75 0 0 0 0.46,1.22 3.55,3.55 0 0 1 0.53,1.34 c 0,0.12 0.2,0.21 0.22,0.33 0.09,0.53 0.52,0.9 0.59,1.46 0.07,0.56 0.6,0.88 0.53,1.47 0,0 0,0.07 0.07,0.11 a 7.41,7.41 0 0 1 0.72,1.54 c 0.12,0.54 0.53,0.92 0.61,1.45 0.36,0.23 0.15,0.68 0.39,1 a 1.48,1.48 0 0 1 0.38,0.81 c 0,0.42 0.32,0.63 0.38,1 0.06,0.37 0.41,0.53 0.43,0.81 a 4.54,4.54 0 0 0 0.62,1.58 8.31,8.31 0 0 0 0.53,1.34 c 0.3,0.4 0.3,0.91 0.53,1.33 a 4.5,4.5 0 0 1 0.6,1.46 c 0.08,0.49 0.6,0.91 0.7,1.4 0.1,0.49 0.5,1.11 0.66,1.71 0.16,0.6 0.55,1 0.69,1.55 a 8.13,8.13 0 0 0 0.7,1.69 c 0.28,0.55 0.3,1.21 0.75,1.67 a 7.38,7.38 0 0 0 0.73,1.82 c 0.21,0.62 0.5,1.21 0.75,1.81 0.36,0.23 0.15,0.67 0.37,1 a 2.26,2.26 0 0 1 0.43,1.09 c 0,0.32 0.41,0.6 0.48,0.92 0.07,0.32 0.47,0.59 0.32,1 0,0.05 0.11,0.14 0.14,0.22 a 15.68,15.68 0 0 1 0.69,1.56 c 0.09,0.55 0.51,1 0.6,1.59 a 2.71,2.71 0 0 0 0.58,1.16 1.48,1.48 0 0 1 0.18,0.91 z"
         class="cls-4" />
      <path
         style="fill:#f0d203"
         inkscape:connector-curvature="0"
         id="path30"
         d="m 10.18,0.2 0.33,0.19 c 0.4,0.25 0.49,0.74 0.79,1.07 0.3,0.33 0.73,0.55 0.84,1 0,0.16 0.22,0.28 0.36,0.41 a 7.2,7.2 0 0 1 1,1.26 c 0.28,0.4 0.75,0.65 0.9,1.16 0,0.08 0.12,0.13 0.18,0.2 a 9.5,9.5 0 0 1 1.21,1.45 c 0.3,0.53 0.92,0.86 1.16,1.47 a 23.89,23.89 0 0 1 1.65,2 7.53,7.53 0 0 1 0.81,1.05 c 0.24,0.32 0.65,0.5 0.72,1 0,0.12 0.18,0.21 0.27,0.31 a 8.1,8.1 0 0 1 1.21,1.43 c 0.28,0.49 0.87,0.78 1.07,1.37 a 21.93,21.93 0 0 1 1.65,2 12.43,12.43 0 0 1 0.82,1.06 c 0.28,0.34 0.68,0.59 0.8,1.06 0,0.08 0.12,0.13 0.18,0.2 a 9,9 0 0 1 1.22,1.45 c 0.3,0.53 0.92,0.86 1.15,1.47 0.7,0.54 1,1.37 1.66,2 a 8.37,8.37 0 0 1 0.81,1.05 c 0.24,0.32 0.65,0.5 0.72,1 0,0.12 0.18,0.21 0.27,0.31 a 8.4,8.4 0 0 1 1.21,1.44 c 0.28,0.5 0.88,0.79 1.07,1.38 a 23.75,23.75 0 0 1 1.65,2 12.34,12.34 0 0 1 0.81,1.06 c 0.28,0.34 0.7,0.58 0.81,1.06 0,0.08 0.12,0.13 0.18,0.2 a 9.55,9.55 0 0 1 1.22,1.45 c 0.29,0.53 0.91,0.86 1.15,1.47 a 22.45,22.45 0 0 1 1.66,2 9.43,9.43 0 0 1 0.81,1 c 0.23,0.32 0.65,0.5 0.72,1 0,0.12 0.18,0.2 0.27,0.31 a 8.88,8.88 0 0 1 1.21,1.44 c 0.27,0.5 0.88,0.78 1.06,1.38 a 20.71,20.71 0 0 1 1.66,2 12.34,12.34 0 0 1 0.8,0.84 c 0.28,0.35 0.7,0.58 0.81,1.06 0,0.08 0.12,0.13 0.18,0.2 a 9.92,9.92 0 0 1 1.21,1.44 c 0.3,0.54 0.92,0.87 1.16,1.48 a 23.89,23.89 0 0 1 1.65,2 7.53,7.53 0 0 1 0.81,1.05 c 0.24,0.32 0.66,0.5 0.73,1 0,0.12 0.18,0.2 0.27,0.31 a 8.34,8.34 0 0 1 1.18,1.46 c 0.28,0.5 0.89,0.78 1.07,1.38 a 22.31,22.31 0 0 1 1.66,2 c 0.37,0.38 0.66,0.84 1,1.25 0.34,0.41 0.76,0.65 0.9,1.17 a 23.26,23.26 0 0 1 1.56,1.86 c 0.58,0.57 0.94,1.31 1.55,1.87 a 2.64,2.64 0 0 1 0.43,0.84 1.37,1.37 0 0 1 -0.37,0.16 c -0.36,0 -0.73,0 -1.1,0 H 13.11 a 2.43,2.43 0 0 1 -1,-1.6 3,3 0 0 0 -0.45,-0.94 c -0.16,-0.28 0,-0.66 -0.31,-0.86 -0.08,-0.53 -0.53,-0.9 -0.61,-1.45 -0.08,-0.55 -0.48,-1 -0.6,-1.59 C 10.02,60.7 9.55,60.38 9.44,59.88 A 8.68,8.68 0 0 0 8.75,58.19 5.86,5.86 0 0 0 8.07,56.63 3.21,3.21 0 0 0 7.62,55.4 9.74,9.74 0 0 1 7.08,54.07 3,3 0 0 0 6.49,52.91 C 6.25,52.55 6.39,52.2 6.25,51.94 A 2.21,2.21 0 0 1 5.8,50.94 2.75,2.75 0 0 0 5.48,50.09 C 5.34,49.81 5.08,49.56 5.04,49.28 a 3.94,3.94 0 0 0 -0.54,-1.34 0.73,0.73 0 0 1 0,-0.39 1.05,1.05 0 0 1 0.11,-0.31 h 25.05 c 0,-0.18 0.08,-0.35 0,-0.42 -0.41,-0.42 -0.41,-1.08 -0.72,-1.62 a 3.16,3.16 0 0 1 -0.61,-1.58 c 0,-0.15 -0.19,-0.3 -0.25,-0.46 -0.21,-0.48 -0.62,-0.88 -0.56,-1.46 a 2.34,2.34 0 0 1 -0.56,-1.33 c 0,-0.08 -0.1,-0.15 -0.13,-0.23 -0.18,-0.54 -0.55,-1 -0.7,-1.55 -0.15,-0.55 -0.52,-1 -0.7,-1.55 -0.18,-0.55 -0.34,-0.9 -0.53,-1.34 -0.19,-0.44 -0.27,-0.83 -0.46,-1.22 a 3.49,3.49 0 0 1 -0.53,-1.34 c 0,-0.16 -0.16,-0.31 -0.24,-0.46 a 7.63,7.63 0 0 1 -0.5,-0.93 c -0.1,-0.29 -0.16,-0.58 -0.29,-0.87 -0.13,-0.29 -0.48,-0.58 -0.32,-1 0,-0.05 -0.12,-0.13 -0.15,-0.22 -0.16,-0.55 -0.55,-1 -0.69,-1.55 -0.14,-0.55 -0.57,-1 -0.7,-1.55 -0.13,-0.55 -0.53,-1.1 -0.66,-1.71 -0.13,-0.61 -0.62,-1.09 -0.76,-1.66 a 6.81,6.81 0 0 0 -0.64,-1.57 c -0.23,-0.44 -0.22,-1 -0.53,-1.34 -0.31,-0.34 -0.29,-0.91 -0.53,-1.34 A 4.36,4.36 0 0 1 17.3,17.49 C 17.23,17 16.71,16.58 16.61,16.08 c -0.1,-0.5 -0.5,-1.11 -0.67,-1.7 -0.17,-0.59 -0.5,-1 -0.69,-1.56 -0.14,-0.36 -0.23,-0.75 -0.4,-1.1 A 7.15,7.15 0 0 1 14.3,10.53 C 14.2,10.16 13.89,9.83 13.82,9.46 A 12.16,12.16 0 0 0 13.08,7.64 C 12.87,7.02 12.58,6.43 12.33,5.83 11.97,5.6 12.18,5.16 11.96,4.83 a 2.08,2.08 0 0 1 -0.43,-1.1 c 0,-0.31 -0.41,-0.59 -0.48,-0.92 -0.07,-0.33 -0.4,-0.59 -0.34,-1 A 1.08,1.08 0 0 0 10.37,1.11 C 10.11,0.83 10.2,0.52 10.19,0.21 Z"
         class="cls-5" />
      <path
         style="fill:#010101"
         inkscape:connector-curvature="0"
         id="path32"
         d="m 90.25,122.79 -0.27,0.39 v 1.22 c -0.38,0.33 -0.24,0.85 -0.51,1.24 -0.27,0.39 -0.31,0.83 -0.69,1.12 l -0.12,0.07 h -37 c -0.5,-0.17 -0.46,-0.73 -0.76,-1.05 0,-0.59 -0.41,-1 -0.57,-1.48 a 5.66,5.66 0 0 0 -0.56,-1.34 c -0.45,-0.77 -0.56,-1.69 -1.08,-2.42 0,-0.89 -0.85,-1.47 -0.85,-2.36 a 15.66,15.66 0 0 1 -0.94,-2 c -0.24,-0.52 -0.4,-1.08 -0.65,-1.6 a 7.66,7.66 0 0 1 -0.63,-1.46 8.43,8.43 0 0 0 -0.74,-1.55 2,2 0 0 1 -0.06,-0.59 8,8 0 0 1 1.76,-0.08 c 0.6,0 1.19,0 1.79,0 h 40.09 c 0.21,0.2 0.44,0.42 0.68,0.63 0.24,0.21 0.24,0.48 0.41,0.68 0.17,0.2 0.13,0.6 0.19,0.91 0.06,0.31 0.31,0.43 0.26,0.74 a 7.41,7.41 0 0 0 0,0.94 l 0.25,0.4 z"
         class="cls-1" />
      <path
         style="fill:#020202"
         inkscape:connector-curvature="0"
         id="path34"
         d="M 56.3,87.2 A 5,5 0 0 1 55.64,85.89 4.57,4.57 0 0 0 55.03,84.42 C 54.8,83.98 54.75,83.5 54.51,83.06 54.14,82.36 53.9,81.6 53.57,80.87 c -0.33,-0.73 -0.6,-1.37 -0.9,-2 A 13.16,13.16 0 0 1 52.12,77.52 13.16,13.16 0 0 0 51.57,76.17 10,10 0 0 1 51.09,74.95 C 50.94,74.49 50.58,74.1 50.45,73.63 a 7.5,7.5 0 0 0 -0.55,-1.43 1,1 0 0 1 0,-0.89 c 0,0 0.08,-0.08 0.12,-0.08 h 35.41 a 2.94,2.94 0 0 1 1.07,1.27 4.59,4.59 0 0 1 0.47,1.7 c 0,0.55 0.38,1 0.29,1.57 a 9.52,9.52 0 0 0 0,1.51 c 0,0.55 0,1.1 0,1.66 v 1.51 c 0,0.55 0,1.1 0,1.65 v 1.44 c -0.13,0.4 -0.28,0.62 -0.25,0.82 0.1,0.57 -0.35,1 -0.31,1.56 -0.31,0.44 -0.43,1 -1.13,1.31 z"
         class="cls-3" />
      <path
         style="fill:#010101"
         inkscape:connector-curvature="0"
         id="path36"
         d="m 85.37,130.7 0.67,0.34 a 6.71,6.71 0 0 1 0.66,1.44 10.72,10.72 0 0 1 0.31,1.3 13.54,13.54 0 0 1 0.25,1.71 c 0,0.59 0,1.19 0,1.79 v 1.78 c 0,0.6 0,1.2 0,1.79 0,0.59 -0.05,1.2 0,1.79 0,0.38 -0.37,0.61 -0.27,1 a 1.15,1.15 0 0 1 -0.26,1 2.31,2.31 0 0 1 -1,2 H 59.86 a 12.19,12.19 0 0 1 -0.9,-1.81 9.55,9.55 0 0 0 -0.86,-1.93 c 0,-0.7 -0.61,-1.19 -0.61,-1.88 a 28,28 0 0 1 -1.24,-2.77 7.44,7.44 0 0 1 -0.59,-1.46 c -0.14,-0.47 -0.51,-0.83 -0.57,-1.34 -0.06,-0.51 -0.46,-0.93 -0.58,-1.48 a 13.36,13.36 0 0 0 -0.68,-1.44 11,11 0 0 0 -0.58,-1.33 1.57,1.57 0 0 1 -0.11,-0.35 c 0.11,-0.06 0.19,-0.13 0.27,-0.13 z"
         class="cls-1" />
      <path
         style="fill:#020202"
         inkscape:connector-curvature="0"
         id="path38"
         d="m 64.54,107.01 a 6.8,6.8 0 0 0 -0.61,-1.47 c -0.29,-0.44 -0.34,-1 -0.6,-1.46 -0.26,-0.46 -0.36,-1 -0.57,-1.48 a 8.18,8.18 0 0 1 -0.61,-1.46 c -0.12,-0.5 -0.58,-0.92 -0.7,-1.43 -0.12,-0.51 -0.49,-1 -0.61,-1.6 -0.12,-0.6 -0.48,-1 -0.63,-1.46 a 10.71,10.71 0 0 0 -0.49,-1.22 6.92,6.92 0 0 1 -0.57,-1.34 c -0.08,-0.42 -0.39,-0.8 -0.51,-1.22 a 9.37,9.37 0 0 0 -0.55,-1.21 0.48,0.48 0 0 1 0,-0.51 1.44,1.44 0 0 1 0.25,-0.08 h 30 a 3.25,3.25 0 0 1 1.31,1.6 c -0.09,0.6 0.35,1.11 0.3,1.71 a 4.77,4.77 0 0 0 0.25,1 v 7.59 l -0.22,0.35 a 9.18,9.18 0 0 1 -0.16,1.47 7.76,7.76 0 0 1 -0.72,1.71 c -0.12,0.18 -0.27,0.35 -0.41,0.53 z"
         class="cls-3" />
      <path
         style="fill:#f0d202"
         inkscape:connector-curvature="0"
         id="path44"
         d="m 71.56,217.39 c 0.33,0.21 0.33,0.21 0,0.59 z"
         class="cls-4" />
      <path
         style="fill:#f0d203"
         inkscape:connector-curvature="0"
         id="path46"
         d="M 10.19,0.2 9.96,0.1 10.08,0 l 0.1,0.23 z"
         class="cls-5" />
    </g>
  </g>
</svg>
