<svg xmlns="http://www.w3.org/2000/svg" height="60" viewBox="2.16 12.42 120 45.644" width="120"><style><![CDATA[.N{fill:#918f8f}.O{fill:#575656}.P{fill:#acacac}.Q{fill:#cdcdcd}.R{fill:#a6a6a6}.S{fill:#6e6d6d}.T{fill:#424242}.U{fill:#504f4f}.V{fill:#9a9a9a}.W{fill:#d3d3d3}.X{fill:#bfbfbf}.Y{fill:#777676}.Z{fill:#676666}]]></style><g transform="matrix(.232515 0 0 .232515 8.24574 22.719903)"><g fill-rule="evenodd"><path d="M285.984 74.234c1.145-14.206 1.103-29.415.08-43.1l1.044-.005c9.854-.13 19.734-.934 29.533.755 8.18 1.412 14.25 5.7 17.278 13.613 3.972 10.4-1.74 22.595-12.518 26.954-2.643 1.068-5.385 1.797-8.27 1.8l-25.156.001c-.384-.001-.928-.023-2-.008zm10.942-6.602c6.338.284 12.558 1.27 18.543-.816 5.868-2.047 9.087-6.6 9.762-12.774.703-6.435-1.747-11.574-7.505-14.506-6.607-3.366-13.687-3.262-20.936-1.857-.386 10.072-.602 19.743.136 29.953z" fill="#505050"/><path d="M166.218 70.93l-.88 3.124h-9.2c1.6-14.396.477-28.656-.17-43.072l10.524-.7c-.25 5.968-.97 11.703-.555 17.883 3.055-2.25 5.962-4.123 9.53-4.6 4.722-.62 9.203.058 13.276 2.536 10.525 6.405 10.174 20.645-.708 26.458-7.357 3.93-14.577 3.142-21.825-1.647zm10.472-2.366c6.025.001 10.537-3.934 10.64-9.278.102-5.3-4.4-9.528-10.298-9.655-6.236-.135-11.073 3.77-11.268 9.098-.205 5.6 4.486 9.833 10.926 9.835z" fill="#4f4f4f"/><path d="M371.084 48.667l1.167-4.292L380 46.15c-2.1 9.145-1.46 18.365-.347 27.728l-8.184 1.092-1.03-4.438c-1.344.72-3.416 1.665-4.704 2.332-7.64 3.955-16.634 2.7-22.413-3.204-6.918-7.066-5.5-18.316 3.266-23.086 7.637-4.156 15.43-4.522 22.794 1.022.32.24 1.292.827 1.704 1.072zm-11.86 19.895c5.98-.024 10.643-4.106 10.672-9.338s-4.664-9.426-10.583-9.47c-6.063-.045-11.147 4.2-11.223 9.392-.073 5.123 5.032 9.44 11.134 9.416zm84.6-19.895L445 44.375l7.748 1.774c-2.1 9.145-1.46 18.365-.347 27.728l-8.184 1.092-1.03-4.438c-1.344.72-3.416 1.665-4.704 2.332-7.64 3.955-16.634 2.7-22.413-3.204-6.918-7.066-5.5-18.316 3.266-23.086 7.637-4.156 15.43-4.522 22.794 1.022.32.24 1.292.827 1.704 1.072zm-11.86 19.895c5.98-.024 10.643-4.106 10.672-9.338s-4.664-9.426-10.583-9.47c-6.063-.045-11.147 4.2-11.223 9.392-.073 5.123 5.032 9.44 11.134 9.416zM113.45 70.837l-4.312 2.1c-7.784 3.998-16.788 2.536-22.654-3.724-5.924-6.323-5.052-16.024 1.75-21.46 6.354-5.076 19.06-5.968 25.136.242.27.274.667.422 1.092.682l1.62-4.3 7.665 2.023c-3.046 9-1.957 18.727-.835 27.692-2.715.122-5.844.705-7.914.785l-1.548-4.04zM102.633 68.6c.94-.076 1.898-.065 2.82-.243 4-.776 7.24-4.062 7.78-7.8.58-3.994-1.157-7.505-4.814-9.403-3.707-1.925-7.548-2.045-11.252-.083-3.127 1.657-5.3 4.112-5.378 7.94-.07 3.997 2.126 6.537 5.37 8.37 1.68.95 3.547 1.252 5.474 1.218zm116.2 6.467c-4.728.157-8.944-1.027-12.7-3.738-8.93-6.465-8.777-17.854.312-24.127 7.5-5.17 18.68-4.786 25.808.882 7.674 6.104 7.813 15.998.312 22.338-4.005 3.386-8.647 4.88-13.742 4.645zm-.1-6.504c6.008.02 10.572-3.64 10.84-8.692.277-5.2-3.9-9.26-9.893-9.617-6.413-.38-11.42 3.333-11.65 8.645-.238 5.467 4.385 9.643 10.7 9.664z" fill="#505050"/><path d="M251.518 44.85c.482 1.4.795 2.9 1.045 4.463l5.63-3.215c4.55-2.284 9.276-2.736 14.178-1.27 3.295.986 5.35 3.047 5.798 6.535.205 1.604.497 3.228.502 4.82l.038 17.878c-3.164.01-6.14-.001-9.27-.001l-.132-17.994c-.277-4.26-1.853-5.67-6.154-5.804-3.662-.114-7.198 1.493-10.2 4.793v18.97h-8.874c-.076-8.1 1.3-18.636-1.974-27.94l9.414-1.238zm136.375 5.858c-1.767 0-3.7-.042-5.142-.042l-.042-5.625c1.375.083 5.125 0 5.125 0l-.125-10.48 10.083.106c-.333 3.042-.708 10.06-.708 10.06l10.292-.02v6.25H396.8s-1.434 14.583-.018 16.418c3.5 3.54 9.48.802 10.96.3-.042 1.666-.042 3.833-.053 5.66-4.802 1.496-9.68 2.15-14.66.94-3.8-.918-5.2-2.716-5.245-6.574-.048-4.05.063-8.103.1-12.154l.002-4.83z" fill="#525252"/><path d="M128.185 45.412l9.107-1.12 1.125 3.5c3.972-1.7 8.63-4 13.62-2.726.046 2.06-.08 4.267-.076 6.616l-6.47.368c-5.087.345-6.5 1.5-6.53 6.58-.033 3.914.123 7.83.17 11.744.014 1.182.077 2.214.16 3.67l-9.17.038c-.495-6.955 1.266-18.952-1.935-28.67z" fill="#4f4f4f"/></g><path d="M71.108 23.496h8.727v8.727h-8.727z" class="X"/><path d="M79.837 24.23v-.737H71.1v8.727h.737v-8z" class="P"/><path d="M79.097 31.486V24.05h-.737v6.7h-6.515v.738z" class="N"/><path d="M79.1 24.785v-.738h-7.253v7.436h.738v-6.698z" class="W"/><path d="M79.835 32.223v-8.727h-.738v8h-8v.737z" class="O"/><path d="M62.442 14.83h8.727v8.727h-8.727z" class="X"/><path d="M71.17 15.566v-.738h-8.727v8.727h.737v-8z" class="P"/><path d="M70.432 22.82v-7.437h-.738v6.7H63.18v.737z" class="N"/><path d="M70.434 16.12v-.738H63.18v7.437h.738v-6.7z" class="W"/><path d="M71.17 23.557V14.83h-.737v8h-8v.737z" class="O"/><path d="M36.813 14.83h8.727v8.727h-8.727z" class="X"/><path d="M45.542 15.566v-.738h-8.727v8.727h.737v-8z" class="P"/><path d="M44.803 22.82v-7.437h-.738v6.7H37.55v.737z" class="N"/><path d="M44.805 16.12v-.738h-7.253v7.437h.738v-6.7z" class="W"/><path d="M45.54 23.557V14.83h-.738v8h-8v.737z" class="O"/><path d="M36.813 32.162h8.727V40.9h-8.727z" class="X"/><path d="M45.542 32.897v-.737h-8.727v8.727h.737v-8z" class="P"/><path d="M44.803 40.15v-7.436h-.738v6.7H37.55v.737z" class="N"/><path d="M44.805 33.45v-.737h-7.253v7.436h.738v-6.7z" class="W"/><path d="M45.54 40.9v-8.727h-.738v8h-8v.738z" class="O"/><path d="M19.48 32.162h8.728V40.9H19.48z" class="R"/><path d="M28.2 32.897v-.737h-8.727v8.727h.738v-8z" class="P"/><path d="M27.472 40.15v-7.436h-.738v6.7H20.22v.737z" class="N"/><path d="M27.473 33.45v-.737H20.22v7.436h.737v-6.7z" class="Q"/><path d="M28.2 40.9v-8.727h-.737v8h-8v.738z" class="O"/><path d="M11 49.494h8.728v8.727H11z" class="S"/><path d="M19.73 50.23v-.737h-8.727v8.727h.737v-8z" class="Z"/><path d="M19 57.483v-7.436h-.738v6.7h-6.514v.737z" class="U"/><path d="M18.992 50.782v-.738H11.74v7.437h.738v-6.7z" class="V"/><path d="M19.728 58.22v-8.727H19v8h-8v.738z" class="T"/><path d="M71.66 75.5h8.727v8.727H71.66z" class="S"/><path d="M80.4 76.227v-.738h-8.727v8.728h.737v-8z" class="Z"/><path d="M79.65 83.48v-7.436h-.738v6.698h-6.515v.738z" class="U"/><path d="M79.652 76.78v-.738H72.4v7.437h.738v-6.7z" class="V"/><path d="M80.388 84.218V75.5h-.737v8h-8v.737z" class="T"/><path d="M11 58.16h8.728v8.728H11z" class="R"/><path d="M19.73 58.895v-.738h-8.727v8.728h.737v-8z" class="P"/><path d="M19 66.15v-7.436h-.738v6.698h-6.514v.738z" class="N"/><path d="M18.992 59.448V58.7H11.74v7.436h.738v-6.698z" class="Q"/><path d="M19.728 66.887V58.16H19v8h-8v.738z" class="O"/><path d="M19.666 66.825h8.728v8.728h-8.728z" class="R"/><path d="M28.395 67.56v-.738h-8.727v8.727h.737v-8z" class="P"/><path d="M27.656 74.814V67.38h-.738v6.698h-6.515v.737z" class="N"/><path d="M27.658 68.114v-.737h-7.253v7.435h.738v-6.698z" class="Q"/><path d="M28.394 75.553v-8.728h-.738v8h-8v.74z" class="O"/><path d="M36.998 66.825h8.727v8.728h-8.727z" class="R"/><path d="M45.727 67.56v-.738H37v8.727h.737v-8z" class="P"/><path d="M44.987 74.814V67.38h-.737v6.698h-6.515v.737z" class="N"/><path d="M45 68.114v-.737h-7.252v7.435h.737v-6.698z" class="Q"/><path d="M45.725 75.553v-8.728h-.738v8h-8v.74z" class="O"/><path d="M45.664 75.5h8.727v8.727h-8.727z" class="R"/><path d="M54.393 76.227v-.738h-8.727v8.728h.737v-8z" class="P"/><path d="M53.653 83.48v-7.436h-.737v6.698H46.4v.738z" class="N"/><path d="M53.655 76.78v-.738h-7.252v7.437h.738v-6.7z" class="Q"/><path d="M54.4 84.218V75.5h-.738v8h-8v.737z" class="O"/><path d="M11 40.828h8.728v8.727H11z" class="R"/><path d="M19.73 41.563v-.737h-8.727v8.727h.737v-8z" class="P"/><path d="M19 48.817V41.38h-.738v6.7h-6.514v.737z" class="N"/><path d="M18.992 42.116v-.737H11.74v7.436h.738v-6.7z" class="Q"/><path d="M19.728 49.555v-8.727H19v8h-8v.738z" class="O"/><path d="M28.147 23.313h8.727V40.9h-8.727z" class="R"/><path d="M36.876 24.047V23.3H28.15v17.577h.738v-16.84z" class="P"/><path d="M36.137 40.15V24.05H35.4v15.365h-6.515v.737z" class="N"/><path d="M36.14 24.785v-.738h-7.252V40.15h.737V24.785z" class="Q"/><path d="M36.875 40.9V23.25h-.738v16.9h-8v.738z" class="O"/><path d="M19.666 49.3h8.728v17.576h-8.728z" class="R"/><path d="M28.395 50.044v-.737h-8.727v17.578h.737v-16.84z" class="P"/><path d="M27.656 66.15V50.047h-.738V65.4h-6.515v.738z" class="N"/><path d="M27.658 50.782v-.738h-7.253v16.102h.738V50.782z" class="Q"/><path d="M28.394 66.887V49.3h-.738v16.84h-8v.738z" class="O"/><path d="M28.332 57.977h8.728v17.576h-8.728z" class="S"/><path d="M37.06 58.7v-.737h-8.728V75.55h.738V58.7z" class="Z"/><path d="M36.322 74.814v-16.1h-.738v15.364H29.07v.737z" class="U"/><path d="M36.323 59.448V58.7H29.07v16.102h.738V59.448z" class="V"/><path d="M37.06 75.553V57.975h-.737v16.84h-8v.74z" class="T"/><path d="M36.9 23.496h17.22v8.727H36.9z" class="X"/><path d="M54.134 24.23v-.737H36.852v8.727h.717v-8z" class="P"/><path d="M53.414 31.486V24.05h-.717v6.7h-15.13v.738z" class="N"/><path d="M53.416 24.785v-.738H37.57v7.436h.718v-6.698z" class="W"/><path d="M54.132 32.223v-8.727h-.718v8H36.85v.737z" class="O"/><path d="M37.094 84.157h17.22v8.727h-17.22z" class="X"/><path d="M54.318 84.893v-.738H37.036v8.727h.718v-8z" class="P"/><path d="M53.6 92.146V84.7h-.718v6.7h-15.13v.737z" class="N"/><path d="M53.6 85.445v-.737H37.754v7.437h.718v-6.7z" class="W"/><path d="M54.316 92.884v-8.727H53.6v8H37.035v.738z" class="O"/><path d="M54.426 75.5h17.22v8.727h-17.22z" class="X"/><path d="M71.65 76.227v-.738H54.37v8.728h.717v-8z" class="P"/><path d="M70.93 83.48v-7.436h-.717v6.698h-15.13v.738z" class="N"/><path d="M70.932 76.78v-.738H55.085v7.437h.718v-6.7z" class="W"/><path d="M71.648 84.218V75.5h-.718v8H54.366v.737z" class="O"/><path d="M53.763 23.496h17.22v8.727h-17.22z" class="S"/><path d="M70.987 24.23v-.737H53.705v8.727h.717v-8z" class="Y"/><path d="M70.267 31.486V24.05h-.717v6.7H54.42v.738z" class="U"/><path d="M70.27 24.785v-.738H54.422v7.436h.718v-6.698z" class="V"/><path d="M70.985 32.223v-8.727h-.718v8H53.703v.737z" class="T"/><path d="M19.653 40.828h17.22v8.727h-17.22z" class="S"/><path d="M36.876 41.563v-.737h-17.28v8.727h.717v-8z" class="Y"/><path d="M36.157 48.817V41.38h-.718v6.7H20.3v.737z" class="U"/><path d="M36.16 42.116v-.737H20.312v7.436h.718v-6.7z" class="V"/><path d="M36.875 49.555v-8.727h-.718v8H19.593v.738z" class="T"/><path d="M28.503 75.5h17.22v8.727h-17.22z" class="S"/><path d="M45.727 76.227v-.738H28.445v8.728h.718v-8z" class="Y"/><path d="M45.007 83.48v-7.436H44.3v6.698H29.16v.738z" class="U"/><path d="M45 76.78v-.738H29.163v7.437h.717v-6.7z" class="V"/><path d="M45.725 84.218V75.5h-.718v8H28.443v.737z" class="T"/><path d="M54.316 84.157h17.22v8.727h-17.22z" class="S"/><path d="M71.54 84.893v-.738H54.258v8.727h.718v-8z" class="Y"/><path d="M70.82 92.146V84.7h-.717v6.7h-15.13v.737z" class="U"/><path d="M70.822 85.445v-.737H54.976v7.437h.717v-6.7z" class="V"/><path d="M71.538 92.884v-8.727h-.718v8H54.256v.738z" class="T"/><path d="M45.466 14.83h17.22v8.727h-17.22z" class="S"/><path d="M62.7 15.566v-.738H45.408v8.727h.717v-8z" class="Y"/><path d="M61.97 22.82v-7.437h-.718v6.7H46.124v.737z" class="U"/><path d="M61.972 16.12v-.738H46.125v7.437h.718v-6.7z" class="V"/><path d="M62.688 23.557V14.83h-.718v8H45.406v.737z" class="T"/></g></svg>