<svg xmlns="http://www.w3.org/2000/svg" width="64" height="64"><path d="M0 0h64v64H0z" fill="#099"/><path d="M19.01 49.22v-7.04c4.013 1.262 7.563 1.892 10.65 1.892 4.258-.005 6.388-1.134 6.388-3.39a2.76 2.76 0 0 0-.933-2.118c-.63-.603-2.256-1.448-4.874-2.535-4.698-1.922-7.76-3.564-9.185-4.926-1.847-1.797-2.77-4.065-2.77-6.804 0-3.53 1.345-6.224 4.034-8.082s6.153-2.77 10.39-2.733c2.352 0 5.757.434 10.213 1.3v6.78c-3.313-1.323-6.388-1.985-9.223-1.985-4.003 0-6.005 1.1-6.005 3.303.01.84.47 1.612 1.21 2.015.663.42 2.508 1.31 5.537 2.67 4.354 1.933 7.253 3.614 8.697 5.042 1.715 1.697 2.572 3.89 2.572 6.582 0 3.87-1.68 6.82-5.042 8.847-2.733 1.65-6.262 2.472-10.59 2.47-3.727-.007-7.44-.442-11.067-1.298z" fill="#fff"/></svg>