<?xml version="1.0" encoding="UTF-8" standalone="no"?>
<svg
   xmlns:dc="http://purl.org/dc/elements/1.1/"
   xmlns:cc="http://creativecommons.org/ns#"
   xmlns:rdf="http://www.w3.org/1999/02/22-rdf-syntax-ns#"
   xmlns:svg="http://www.w3.org/2000/svg"
   xmlns="http://www.w3.org/2000/svg"
   xmlns:sodipodi="http://sodipodi.sourceforge.net/DTD/sodipodi-0.dtd"
   xmlns:inkscape="http://www.inkscape.org/namespaces/inkscape"
   width="120"
   height="60"
   viewBox="0 0 120 60"
   version="1.1"
   id="svg21"
   sodipodi:docname="inspire-ar21.svg"
   inkscape:version="0.92.4 (5da689c313, 2019-01-14)">
  <metadata
     id="metadata25">
    <rdf:RDF>
      <cc:Work
         rdf:about="">
        <dc:format>image/svg+xml</dc:format>
        <dc:type
           rdf:resource="http://purl.org/dc/dcmitype/StillImage" />
        <dc:title>Logo</dc:title>
      </cc:Work>
    </rdf:RDF>
  </metadata>
  <sodipodi:namedview
     pagecolor="#ffffff"
     bordercolor="#666666"
     borderopacity="1"
     objecttolerance="10"
     gridtolerance="10"
     guidetolerance="10"
     inkscape:pageopacity="0"
     inkscape:pageshadow="2"
     inkscape:window-width="1920"
     inkscape:window-height="1001"
     id="namedview23"
     showgrid="false"
     inkscape:zoom="2.2751678"
     inkscape:cx="74.5"
     inkscape:cy="17"
     inkscape:window-x="-9"
     inkscape:window-y="-9"
     inkscape:window-maximized="1"
     inkscape:current-layer="svg21" />
  <!-- Generator: Sketch 3.6.1 (26313) - http://www.bohemiancoding.com/sketch -->
  <title
     id="title2">Logo</title>
  <desc
     id="desc4">Created with Sketch.</desc>
  <defs
     id="defs6" />
  <g
     id="g845"
     transform="matrix(0.67239154,0,0,0.67239154,10.000101,1.106822)">
    <g
       transform="translate(0,26)"
       style="fill:none;fill-rule:evenodd;stroke:none;stroke-width:1"
       id="Page-1">
      <g
         transform="translate(-565,-30)"
         id="1-Home-MVP">
        <g
           id="Main">
          <g
             transform="translate(565,30)"
             id="Logo">
            <path
               style="fill:#312f30"
               inkscape:connector-curvature="0"
               id="Fill-1"
               d="m 46.788611,3.0790278 c -0.898611,0 -1.658333,0.775 -1.658333,1.6930555 V 26.684583 c 0,0.918056 0.759722,1.693056 1.658333,1.693056 0.933333,0 1.693056,-0.759722 1.693056,-1.693056 V 4.7720833 c 0,-0.9333333 -0.759723,-1.6930555 -1.693056,-1.6930555" />
            <path
               style="fill:#312f30"
               inkscape:connector-curvature="0"
               id="Fill-3"
               d="m 62.126389,9.2347222 c -2.448611,0 -4.4125,0.9527778 -5.852778,2.8347218 v -0.966666 c 0,-0.930556 -0.729167,-1.6583336 -1.659722,-1.6583336 -0.894445,0 -1.623611,0.7444446 -1.623611,1.6583336 v 15.615278 c 0,0.930555 0.727778,1.659722 1.658333,1.659722 0.926389,0 1.625,-0.713889 1.625,-1.659722 v -9.1125 c 0,-3.138889 2.091667,-5.330556 5.0875,-5.330556 2.925,0 4.670833,1.915278 4.670833,5.122222 v 9.320834 c 0,0.930555 0.729167,1.659722 1.659723,1.659722 0.911111,0 1.623611,-0.729167 1.623611,-1.659722 V 16.7375 c 0,-4.556944 -2.820834,-7.5027778 -7.188889,-7.5027778" />
            <path
               style="fill:#312f30"
               inkscape:connector-curvature="0"
               id="Fill-5"
               d="m 80.509444,17.351667 -0.0875,0.288889 0.02361,-0.308334 C 78.210833,16.651667 76.098333,16.01 76.098333,14.475278 c 0,-1.379167 1.276389,-2.305556 3.176389,-2.305556 1.416667,0 2.988889,0.468056 4.559722,1.359722 0.127778,0.06389 0.391667,0.170834 0.726389,0.170834 0.819445,0 1.484723,-0.65 1.484723,-1.45 0,-0.555556 -0.301389,-1.068056 -0.819445,-1.379167 C 83.383056,9.8752778 81.24,9.3044444 79.344167,9.3044444 c -3.781945,0 -6.423611,2.2416666 -6.423611,5.5194446 0,3.616667 3.565277,4.629167 6.168055,5.369444 2.416667,0.675 4.265278,1.316667 4.265278,2.943056 0,1.525 -1.373611,2.55 -3.418056,2.55 -1.855555,0 -3.718055,-0.626389 -5.515277,-1.847222 -0.222223,-0.176389 -0.523612,-0.275 -0.85,-0.275 -0.819445,0 -1.484723,0.651389 -1.484723,1.451389 0,0.576388 0.316667,1.006944 0.613889,1.218055 2.031945,1.451389 4.684722,2.318056 7.097222,2.318056 4.008334,0 6.701389,-2.2875 6.701389,-5.7625 0,-3.643056 -3.604166,-4.722223 -5.988889,-5.4375" />
            <path
               style="fill:#312f30"
               inkscape:connector-curvature="0"
               id="Fill-7"
               d="m 99.378194,12.239167 c 3.493056,0 6.027776,2.798611 6.027776,6.654166 v 0.06945 c 0,3.897222 -2.47916,6.619444 -6.027776,6.619444 -3.048611,0 -6.201388,-2.490278 -6.201388,-6.723611 0,-4.088889 3.218055,-6.619444 6.201388,-6.619444 M 99.864306,9.235 c -2.638889,0 -4.801389,1.105556 -6.583334,3.372222 v -1.504166 c 0,-0.930556 -0.729166,-1.6597227 -1.659722,-1.6597227 -0.911111,0 -1.623611,0.7291667 -1.623611,1.6597227 v 21.180555 c 0,0.929167 0.727778,1.658333 1.658333,1.658333 0.926389,0 1.625,-0.713888 1.625,-1.658333 v -6.916667 c 1.7375,2.1375 3.948611,3.219445 6.583334,3.219445 4.312504,0 8.894444,-3.384722 8.894444,-9.727778 0,-6.251389 -4.58194,-9.623611 -8.894444,-9.623611" />
            <path
               style="fill:#312f30"
               inkscape:connector-curvature="0"
               id="Fill-9"
               d="m 113.39556,2.5568056 c -1.08195,0 -1.86806,0.7263888 -1.86806,1.7291666 v 0.4513889 c 0,0.9861111 0.80278,1.7291667 1.86806,1.7291667 1.08472,0 1.90277,-0.7430556 1.90277,-1.7291667 V 4.2859722 c 0,-1.0027778 -0.8,-1.7291666 -1.90277,-1.7291666" />
            <path
               style="fill:#312f30"
               inkscape:connector-curvature="0"
               id="Fill-11"
               d="m 113.39556,9.44375 c -0.89584,0 -1.625,0.744444 -1.625,1.658333 V 26.71875 c 0,0.929167 0.72916,1.658333 1.65972,1.658333 0.92639,0 1.62361,-0.713889 1.62361,-1.658333 V 11.102083 c 0,-0.929166 -0.72778,-1.658333 -1.65833,-1.658333" />
            <path
               style="fill:#312f30"
               inkscape:connector-curvature="0"
               id="Fill-13"
               d="m 128.97736,9.3740278 c -2.18194,0 -4.475,1.5444442 -5.88889,3.8708332 v -2.141667 c 0,-0.930555 -0.72778,-1.6597218 -1.65833,-1.6597218 -0.89583,0 -1.625,0.7444448 -1.625,1.6597218 v 15.615278 c 0,0.930556 0.72917,1.658334 1.65833,1.658334 0.91111,0 1.625,-0.727778 1.625,-1.658334 v -6.120833 c 0,-4.495833 2.26667,-7.452778 6.07222,-7.909722 0.86112,-0.129167 1.44028,-0.793056 1.44028,-1.655556 0,-0.961111 -0.68333,-1.6583332 -1.62361,-1.6583332" />
            <path
               style="fill:#312f30"
               inkscape:connector-curvature="0"
               id="Fill-15"
               d="m 148.72264,18.691944 c 0.018,-4.691666 -2.95417,-9.456944 -8.65,-9.456944 -5.00556,0 -8.92778,4.243056 -8.92778,9.727778 0,5.505555 3.9875,9.658333 9.27639,9.658333 2.81806,0 4.975,-0.8625 6.98194,-2.7875 0.33473,-0.294444 0.51945,-0.684722 0.51945,-1.097222 0,-0.8 -0.66667,-1.45 -1.48472,-1.45 -0.44861,0 -0.76111,0.218055 -0.96945,0.393055 -1.46666,1.35 -3.09583,2.006945 -4.97916,2.006945 -3.15834,0 -5.52917,-2.188889 -5.98889,-5.483333 0,0 -0.0917,-0.636112 -0.0917,-1.276389 0,-0.638889 0.0917,-1.311111 0.0917,-1.311111 0.45,-3.265278 2.675,-5.515278 5.50277,-5.515278 3.50139,0 5.075,2.790278 5.40278,5.515278 h -8.05833 c -0.71528,0 -1.29445,0.580555 -1.29445,1.294444 v 0 c 0,0.713889 0.57917,1.293056 1.29445,1.293056 h 9.82083 c 0.84028,0 1.55139,-0.669445 1.55417,-1.511112" />
            <path
               style="fill:#e7158b"
               inkscape:connector-curvature="0"
               id="icon"
               d="m 35.850417,25.306528 c -0.294445,0.511111 -0.772223,0.877778 -1.343056,1.029166 -0.570833,0.154167 -1.168055,0.075 -1.679167,-0.220833 l -9.6,-5.541667 c -0.405555,-0.233333 -0.9125,-0.204166 -1.288888,0.07361 -0.343056,0.255555 -0.466667,0.666666 -0.466667,1.090277 v 5.154167 c 0,1.219444 -0.993056,2.2125 -2.2125,2.2125 -1.218056,0 -2.209722,-0.993056 -2.209722,-2.2125 v -9.508333 c 0,-0.65 -0.527778,-1.177778 -1.176389,-1.177778 -0.65,0 -1.176389,0.527778 -1.176389,1.177778 v 3.520833 l -9.0236112,5.211111 c -0.5125,0.295833 -1.1097222,0.373611 -1.6791667,0.220833 -0.5722222,-0.151388 -1.05,-0.518055 -1.3444444,-1.027777 -0.6083334,-1.058334 -0.2444445,-2.413889 0.8111111,-3.023611 l 9.5888892,-5.536112 c 0.286111,-0.163888 0.488889,-0.441666 0.561111,-0.7625 0.1875,-0.843055 -0.429167,-1.2 -0.972222,-1.515277 L 3.4615278,9.1718056 C 2.9504167,8.8773611 2.58375,8.3995833 2.4309722,7.8301389 2.2768056,7.2579167 2.3559722,6.6620833 2.6504167,6.1495833 2.9448611,5.6398611 3.4226389,5.2731944 3.9948611,5.1204167 4.5643056,4.9676389 5.1615278,5.0454167 5.6740278,5.34125 l 9.5986112,5.543056 c 0.405555,0.234722 0.9125,0.205555 1.288889,-0.07361 0.343055,-0.255555 0.468055,-0.666666 0.468055,-1.0902773 V 4.5648611 c 0,-1.2180555 0.991667,-2.2111111 2.211111,-2.2111111 1.219445,0 2.211112,0.9930556 2.211112,2.2111111 v 9.5097219 c 0,0.65 0.526388,1.177778 1.175,1.177778 0.65,0 1.176388,-0.527778 1.176388,-1.177778 v -3.522222 l 9.025,-5.2097221 c 0.511112,-0.2958333 1.108334,-0.375 1.679167,-0.2222222 0.570833,0.1527777 1.048611,0.5194444 1.343056,1.0291666 0.608333,1.0583334 0.245833,2.4138889 -0.809723,3.0236111 l -9.590277,5.5361116 c -0.286111,0.165277 -0.488889,0.441666 -0.561111,0.7625 -0.1875,0.843055 0.429166,1.2 0.973611,1.513888 l 9.177777,5.298612 c 0.509723,0.294444 0.876389,0.772222 1.030556,1.343055 0.152778,0.570833 0.07361,1.166667 -0.220833,1.679167 m 2.493055,-2.288889 c -0.315278,-1.177778 -1.070833,-2.161111 -2.125,-2.770833 -2.194444,-1.265278 -5.719444,-3.301389 -7.826389,-4.518056 l 7.826389,-4.518056 C 38.394861,9.9523611 39.14625,7.1551389 37.887917,4.9745833 37.279583,3.9190278 36.293472,3.1634722 35.115694,2.8468056 34.722639,2.7426389 34.324028,2.6898611 33.928194,2.6898611 c -0.791666,0 -1.573611,0.2083333 -2.276388,0.6138889 L 23.803194,7.8356944 V 4.5648611 c 0,-2.5166667 -2.047222,-4.56527776667 -4.5625,-4.56527776667 -2.518055,0 -4.565277,2.04861106667 -4.565277,4.56527776667 V 7.8218056 L 6.8504167,3.3023611 C 5.7920833,2.6940278 4.5629167,2.5329167 3.3851389,2.8468056 2.2073611,3.1620833 1.2226389,3.9190278 0.61291667,4.9745833 0.00319444,6.0315278 -0.15791667,7.2606944 0.15736111,8.4384722 0.47402778,9.6176389 1.2295833,10.600972 2.28375,11.210694 c 2.1944444,1.265278 5.7180556,3.3 7.825,4.516667 l -7.825,4.519445 c -2.17777778,1.256944 -2.92777778,4.054166 -1.67083333,6.234722 0.60972223,1.056944 1.59444443,1.8125 2.77222223,2.129166 0.3930555,0.104167 0.7930555,0.155556 1.1888889,0.155556 0.7902778,0 1.5722222,-0.206944 2.2763889,-0.6125 l 7.8472223,-4.531944 v 3.269444 c 0,2.516667 2.047222,4.565278 4.5625,4.565278 2.519444,0 4.565278,-2.048611 4.565278,-4.565278 v -3.256944 l 7.826389,4.519444 c 1.056944,0.609722 2.286111,0.770833 3.463888,0.456944 1.177778,-0.316666 2.163889,-1.072222 2.772223,-2.129166 0.609722,-1.055556 0.770833,-2.284722 0.455555,-3.463889" />
          </g>
        </g>
      </g>
    </g>
  </g>
</svg>
