<?xml version="1.0" encoding="UTF-8"?>
<!-- Generator: Adobe Illustrator 17.0.0, SVG Export Plug-In . SVG Version: 6.00 Build 0)  -->
<!DOCTYPE svg PUBLIC "-//W3C//DTD SVG 1.1//EN" "http://www.w3.org/Graphics/SVG/1.1/DTD/svg11.dtd">
<svg version="1.1" id="Layer_1" xmlns="http://www.w3.org/2000/svg" xmlns:xlink="http://www.w3.org/1999/xlink" x="0px" y="0px" width="600px" height="110px" viewBox="0 0 600 110" enable-background="new 0 0 600 110" xml:space="preserve">
<g>
	<g>
		<g>
			<g>
				<g>
					<path fill="#414042" d="M510.439,51.485h-11.918l-11.703,21.148h-15.675V51.485h-8.096v25.296h29.852l2.642-4.789h18.215       l2.755,4.789h8.207L510.439,51.485z M497.396,68.315l7.196-13.121h0.112l7.252,13.121H497.396z"/>
					<path fill="#414042" d="M549.889,68.343c6.214-0.617,8.618-2.611,8.618-8.156c0-7.083-3.711-8.702-15.01-8.702h-18.664v25.296       h8.095V55.633h10.569c6.072-0.034,6.915,0.978,6.915,4.553c0,3.415-1.057,4.131-6.323,4.239h-9.121l14.655,12.298h10.254       L549.889,68.343z"/>
					<path fill="#414042" d="M570.427,61.941h19.733v3.98h-19.733v6.712h20.97v4.148h-29.065V51.485h28.896v4.148h-20.801V61.941z"/>
				</g>
				<g>
					<path fill="#414042" d="M278.156,71.999H262.77c-6.271,0-8.211-3.374-8.211-6.633V58.5c0-4.849,2.65-6.051,9.762-6.051h12.002       v-0.016h4.351v-4.755h-16.352c-13.382,0-19.072,2.91-19.072,10.823v6.866c0,6.051,2.845,11.405,17.52,11.405h17.904v-4.772       L278.156,71.999L278.156,71.999z"/>
				</g>
				<g>
					<path fill="#414042" d="M291.912,72.581h19.676v4.149h-27.772V51.433h8.095V72.581z"/>
				</g>
				<g>
					<path fill="#414042" d="M347.063,60.434v6.813c0,8.095-5.228,9.646-17.99,9.646c-13.042,0-17.82-1.349-17.82-9.646v-6.813       c0-7.858,4.441-9.241,17.82-9.241C341.216,51.193,347.063,52.306,347.063,60.434z M319.347,60.434v6.813       c0,5.026,1.63,5.498,9.725,5.498c7.365,0,9.895-0.607,9.895-5.498v-6.813c0.168-4.755-2.699-5.093-9.895-5.093       C320.36,55.341,319.516,56.421,319.347,60.434z"/>
				</g>
				<g>
					<path fill="#414042" d="M385.124,51.395v17.977c0,7.049-7.364,7.521-17.596,7.521c-9.894,0-17.484-0.438-17.484-7.521V51.395       h8.095v17.977c0,2.597,1.574,3.373,9.389,3.373c7.477,0,9.5-0.641,9.5-3.373V51.395H385.124z"/>
				</g>
				<g>
					<path fill="#414042" d="M389.399,51.434h20.126c11.638,0,16.585,2.53,16.585,9.41v5.97c0,5.261-2.473,9.916-15.235,9.916       h-21.475V51.434z M410.874,72.582c5.453,0,7.14-2.935,7.14-5.767v-5.97c0-4.216-2.304-5.262-8.489-5.262h-12.03v16.999H410.874       z"/>
				</g>
				<g>
					<path fill="#414042" d="M438.309,60.368h21.28v4.511h-21.28V76.73h-9.175V48.058h31.602v4.702h-22.427V60.368z"/>
				</g>
			</g>
		</g>
	</g>
	<g>
		<g>
			<path fill="#414042" d="M597.817,50.977c1.203,0,2.183,0.98,2.183,2.183c0,1.203-0.98,2.183-2.183,2.183     c-1.203,0-2.183-0.98-2.183-2.183C595.634,51.957,596.614,50.977,597.817,50.977z M597.817,54.85c0.909,0,1.62-0.745,1.62-1.69     c0-0.945-0.711-1.69-1.62-1.69s-1.62,0.745-1.62,1.69C596.197,54.104,596.907,54.85,597.817,54.85z M596.978,51.992h0.733     c0.528,0,1.033,0.123,1.033,0.675c0,0.411-0.27,0.669-0.516,0.704l0.587,0.91h-0.616l-0.522-0.88h-0.135v0.88h-0.564V51.992z      M597.535,52.942h0.276c0.141,0,0.37-0.006,0.37-0.246c0-0.235-0.229-0.246-0.37-0.246h-0.276V52.942z"/>
		</g>
	</g>
	<radialGradient id="SVGID_1_" cx="180.4124" cy="64.7194" r="43.1263" fx="179.3568" fy="66.9378" gradientUnits="userSpaceOnUse">
		<stop offset="0" style="stop-color:#FFFFFF"/>
		<stop offset="0.1902" style="stop-color:#FCE800"/>
		<stop offset="0.8593" style="stop-color:#EC8F27"/>
	</radialGradient>
	<polygon fill-rule="evenodd" clip-rule="evenodd" fill="url(#SVGID_1_)" points="176.855,37.12 181.976,19.197 182.722,19.304    183.256,38.08 192.857,22.184 193.711,22.611 189.23,40.64 202.832,27.732 203.525,28.372 194.351,44.694 210.887,35.946    211.42,36.586 198.298,50.028 216.541,45.868 216.967,46.614 200.752,56.109 219.528,56.802 219.528,57.603 201.392,62.617    219.421,67.951 219.421,68.698 200.645,69.017 216.541,78.939 216.114,79.792 198.031,75.205 210.78,88.753 210.353,89.5    194.138,80.219 202.832,96.648 202.032,97.288 188.697,84.166 193.071,102.196 192.217,102.729 182.722,86.62 182.429,105.183    181.443,105.396 176.322,87.473 170.987,105.396 170.027,105.183 170.027,86.62 169.494,86.407 159.146,101.982 163.626,83.953    149.971,96.754 149.224,96.115 158.506,79.899 141.864,88.54 141.33,87.9 154.452,74.672 136.103,78.726 135.889,77.979    152.105,68.484 133.543,67.737 133.222,66.991 151.225,61.87 133.436,56.642 133.543,55.789 152.212,55.469 136.423,45.868    136.529,45.014 154.825,49.601 141.864,35.946 142.504,35.199 158.933,44.161 149.971,27.945 150.505,27.305 164.267,40.427    159.786,22.184 159.633,21.864 170.427,38.08 170.668,19.197 171.734,19.197  "/>
	<g>
		<path fill="#F68B1F" d="M227.498,97.513c0-17.896-14.508-32.405-32.405-32.405c-7.229,0-13.904,2.369-19.294,6.37    c0.67-3.398,1.025-6.91,1.025-10.504c0-29.827-24.18-54.008-54.008-54.008c-23.752,0-43.922,15.333-51.154,36.641    c-4.06-3.045-9.103-4.85-14.569-4.85c-13.422,0-24.303,10.881-24.303,24.303c0,2.078,0.262,4.095,0.753,6.02    C14.928,69.623,0,84.874,0,103.62c0,2.181,0.211,4.311,0.597,6.38h224.404C226.608,106.157,227.498,101.939,227.498,97.513z"/>
	</g>
	<linearGradient id="SVGID_2_" gradientUnits="userSpaceOnUse" x1="122.8455" y1="49.752" x2="122.8455" y2="7.4521">
		<stop offset="0" style="stop-color:#F68B1F"/>
		<stop offset="1" style="stop-color:#FFFFFF"/>
	</linearGradient>
	<path fill-rule="evenodd" clip-rule="evenodd" fill="url(#SVGID_2_)" d="M170.481,61.003c0,26.308-21.398,42.951-47.706,42.951   c-26.308,0-47.564-16.643-47.564-42.951s21.327-47.635,47.635-47.635C149.154,13.368,170.481,34.695,170.481,61.003"/>
	<path fill-rule="evenodd" clip-rule="evenodd" fill="#F68B1F" d="M163.184,61.303c0,16.088-18.196,29.131-40.641,29.131   c-22.445,0-40.64-13.042-40.64-29.131c0-16.089,18.195-29.131,40.64-29.131C144.988,32.172,163.184,45.214,163.184,61.303"/>
	
		<linearGradient id="SVGID_3_" gradientUnits="userSpaceOnUse" x1="68.1654" y1="81.1672" x2="81.6166" y2="94.6184" gradientTransform="matrix(0.9642 0.2653 -0.2653 0.9642 3.3378 -50.2318)">
		<stop offset="0" style="stop-color:#FFFFFF"/>
		<stop offset="0.0482" style="stop-color:#FEF6ED"/>
		<stop offset="0.2569" style="stop-color:#FBD0A5"/>
		<stop offset="0.4442" style="stop-color:#F9B26B"/>
		<stop offset="0.6034" style="stop-color:#F79D42"/>
		<stop offset="0.7282" style="stop-color:#F69028"/>
		<stop offset="0.8033" style="stop-color:#F68B1F"/>
	</linearGradient>
	<circle fill="url(#SVGID_3_)" cx="57.225" cy="63.171" r="17.998"/>
	<path fill-rule="evenodd" clip-rule="evenodd" fill="#F68B1F" d="M71.845,56.308c3.052,5.285-0.764,13.201-8.522,17.68   c-7.758,4.479-16.521,3.826-19.572-1.459c-3.052-5.285,0.764-13.201,8.522-17.68C60.03,50.37,68.793,51.023,71.845,56.308"/>
	<g>
		<linearGradient id="SVGID_4_" gradientUnits="userSpaceOnUse" x1="2.5686" y1="50.2691" x2="53.4441" y2="128.6013">
			<stop offset="0" style="stop-color:#FFFFFF"/>
			<stop offset="0.0482" style="stop-color:#FEF6ED"/>
			<stop offset="0.2569" style="stop-color:#FBD0A5"/>
			<stop offset="0.4442" style="stop-color:#F9B26B"/>
			<stop offset="0.6034" style="stop-color:#F79D42"/>
			<stop offset="0.7282" style="stop-color:#F69028"/>
			<stop offset="0.8033" style="stop-color:#F68B1F"/>
		</linearGradient>
		<path fill="url(#SVGID_4_)" d="M62.88,103.574c0-15.676-12.703-28.384-28.373-28.384c-15.67,0-28.373,12.708-28.373,28.384    c0,0.055,0.004,0.109,0.004,0.164h56.737C62.876,103.683,62.88,103.629,62.88,103.574z"/>
	</g>
	<g>
		<linearGradient id="SVGID_5_" gradientUnits="userSpaceOnUse" x1="204.5652" y1="70.0065" x2="196.7589" y2="92.8867">
			<stop offset="0" style="stop-color:#FFFFFF"/>
			<stop offset="0.0482" style="stop-color:#FEF6ED"/>
			<stop offset="0.2569" style="stop-color:#FBD0A5"/>
			<stop offset="0.4442" style="stop-color:#F9B26B"/>
			<stop offset="0.6034" style="stop-color:#F79D42"/>
			<stop offset="0.7282" style="stop-color:#F69028"/>
			<stop offset="0.8033" style="stop-color:#F68B1F"/>
		</linearGradient>
		<path fill="url(#SVGID_5_)" d="M221.225,97.236c0-14.297-11.585-25.886-25.876-25.886c-14.291,0-25.876,11.59-25.876,25.886    c0,2.015,0.238,3.973,0.673,5.856h50.406C220.988,101.209,221.225,99.251,221.225,97.236z"/>
	</g>
	<g>
		<linearGradient id="SVGID_6_" gradientUnits="userSpaceOnUse" x1="114.2676" y1="80.4597" x2="114.2676" y2="105.4627">
			<stop offset="0" style="stop-color:#F68B1F"/>
			<stop offset="0.5308" style="stop-color:#CB672F"/>
			<stop offset="1" style="stop-color:#A1453F"/>
		</linearGradient>
		<polygon fill="url(#SVGID_6_)" points="222.31,104.013 221.35,102.093 220.283,100.279 218.789,97.932 217.296,96.012     215.483,93.772 213.669,91.852 211.535,89.824 209.508,88.118 207.268,86.518 205.028,85.13 202.548,83.743 200.441,82.676     198.307,81.823 196.386,81.29 194.466,80.863 192.546,80.543 190.306,80.33 43.725,80.65 41.378,80.756 39.031,80.863     36.471,81.183 34.337,81.61 31.563,82.25 29.643,82.89 27.616,83.637 25.589,84.357 23.029,85.664 21.108,86.624 18.655,88.224     16.415,89.931 14.067,91.852 12.041,93.878 10.44,95.799 8.733,98.039 7.453,100.279 6.493,102.199 5.96,104.013 5.605,105.518     222.93,105.518   "/>
	</g>
	<radialGradient id="SVGID_7_" cx="144.2045" cy="77.5612" r="57.7233" fx="180.0108" fy="67.096" gradientUnits="userSpaceOnUse">
		<stop offset="0" style="stop-color:#FFFFFF"/>
		<stop offset="0.1334" style="stop-color:#FCE800"/>
		<stop offset="0.8593" style="stop-color:#EC8F27"/>
	</radialGradient>
	<polygon fill-rule="evenodd" clip-rule="evenodd" fill="url(#SVGID_7_)" points="180.073,67.182 199.702,92.893 198.955,93.426    176.019,72.837 88.006,88.839 87.9,87.985 169.725,69.21 124.705,53.847 125.238,53.207  "/>
</g>
</svg>