<svg xmlns="http://www.w3.org/2000/svg" width="64" height="64"><switch><g><path d="M38 0v3c11.7 4.5 19.4 15.8 19.3 28.3l-.3-.6c-2.3-9.4-9.6-16.9-19-19.4v2.3c6.2 1.8 11.5 6 14.5 11.6-6.6-5.4-17.5-7-28.2-3.2C9.8 27.1 1 40.3 4.8 51.3 7.8 59.7 17.2 64.4 28 64c7.2-2.6 12.9-7.3 16.2-12.5-.7 3.7-2.3 7.2-4.7 10.1 10.5-4.1 17.7-12.3 19-20.7.5-1.6.8-3.1 1.1-4.7C62.2 20.4 53 5.2 38 0z" fill="#49a94c"/><path d="M46.3 33.8c1.5 6.3-4.1 13-12.5 14.9-8.4 2-16.4-1.6-17.8-7.8-1.5-6.3 4.1-13 12.5-15s16.4 1.5 17.8 7.9z"/><path d="M40 32.2c.6 2.5-1.7 5.2-5 6-3.4.8-6.6-.6-7.2-3.2-.6-2.5 1.7-5.2 5-6 3.4-.8 6.6.6 7.2 3.2z" fill="#fff"/></g></switch></svg>