<svg xmlns="http://www.w3.org/2000/svg" width="120" height="60"><path d="M40.592 38.604l-7.2-1.063c-1.24-.197-1.866-.808-1.866-1.808 0-.423.168-.83.467-1.128a1.6 1.6 0 0 1 1.128-.467h11.7V29.8H33.14a6.04 6.04 0 0 0-6.242 5.939c0 2.733 1.643 5.567 5.402 6.146l7.2 1.063c1.244.197 1.866.808 1.866 1.813 0 .423-.168.83-.467 1.128a1.6 1.6 0 0 1-1.128.467h-8.5c-1.728.048-3.546 1.372-3.546 3.972v.388h12.038a6.04 6.04 0 0 0 4.377-1.668c1.175-1.122 1.847-2.672 1.865-4.297 0-2.738-1.638-5.572-5.402-6.157zm46.615-2.854v9.012a6.04 6.04 0 0 0 6.247 5.939h12.628v-.388c0-2.595-1.818-3.92-3.552-3.972h-9.103c-.423 0-.83-.168-1.128-.467a1.6 1.6 0 0 1-.467-1.128 1.74 1.74 0 0 1 1.872-1.813h3.945c3.472 0 5.47-2.127 6.1-4.578h-9.48c-.993-.01-1.917.506-2.43 1.356v-3.96c0-.423.168-.83.467-1.128a1.6 1.6 0 0 1 1.128-.467h9.103c1.728-.048 3.552-1.377 3.552-3.972V29.8H93.45a6.04 6.04 0 0 0-6.242 5.95zm-6.61 2.854l-7.2-1.063c-1.24-.197-1.866-.808-1.866-1.808 0-.423.168-.83.467-1.128a1.6 1.6 0 0 1 1.128-.467h11.697V29.8h-11.67a6.04 6.04 0 0 0-6.247 5.939c0 2.733 1.643 5.567 5.407 6.146l7.194 1.063c1.244.197 1.872.808 1.872 1.813 0 .423-.168.83-.467 1.128a1.6 1.6 0 0 1-1.128.467h-11.66v4.36H79.77a6.04 6.04 0 0 0 6.247-5.966c0-2.738-1.643-5.572-5.418-6.157zm-19.54 3.62a4.7 4.7 0 1 1-9.395 0V29.8h-4.525v12.144c-.08 3.348 1.66 6.476 4.546 8.173a9.23 9.23 0 0 0 9.353 0c2.887-1.697 4.626-4.826 4.546-8.173V29.8h-4.525z" fill="#0d2c40"/><path d="M61.148 14.295a2.39 2.39 0 0 0 2.112-1.127c.452-.727.483-1.638.08-2.393S62.162 9.538 61.307 9.5a2.38 2.38 0 0 0-2.462 2.297 2.39 2.39 0 0 0 2.302 2.488zm.532-3.573c.585 0 1.063.314 1.063.707s-.473.707-1.063.707-1.063-.32-1.063-.707.505-.702 1.085-.702zm5.258 4.466c.085-.058.4-.266.324-.532-.308-1.063-1.36-4.658-2.244-5.567-.25-.298-.546-.555-.877-.76-3.366-1.962-11.357-3.148-11.735-3.2-.023-.008-.047-.003-.066.012s-.028.04-.025.062l-.032 1.845c-.813-.276-6.747-2.2-12.314-2.387-4.716-.165-11.166-.388-20.253 5.205l-.266.165c-4.3 2.66-7.247 5.966-8.8 9.794-.788 2.065-.96 4.315-.494 6.476.3 1.164.8 2.265 1.5 3.25a9.75 9.75 0 0 0 7.093 4.036c4.03.372 7.072-1.452 8.178-4.844a6.69 6.69 0 0 0-2.866-7.545c-1.9-1.24-4.336-1.295-6.3-.144-1.223.77-1.964 2.117-1.962 3.562a3.92 3.92 0 0 0 3.775 3.876 4.51 4.51 0 0 0 1.452-.23 2.23 2.23 0 0 0 .532-.245l.058-.037h.037c.512-.335.713-.986.48-1.552s-.833-.887-1.433-.766h-.085l-.122.037-.175.058a2.96 2.96 0 0 1-.691.096c-.63-.093-1.094-.635-1.1-1.27a1.52 1.52 0 0 1 .234-.755 2.24 2.24 0 0 1 2.084-.776 3.5 3.5 0 0 1 2.993 2.127 3.67 3.67 0 0 1-.404 3.839c-.85 1.095-2.355 1.563-4.36 1.345a6.11 6.11 0 0 1-4.823-8.683c2.047-3.865 5.913-3.823 8.034-3.456 3.015.532 7.582 3.222 9.3 9.475h4.17c-.532-1.595-.814-6.2 3.88-6.2 5.147 0 5.796 3.626 7.252 6.2H51.3c-1.16-1.66-1.978-3.5-1.717-5.067.383-2.297 2.207-2.1 4.737-1.808.83.096 1.77.202 2.738.223 2.4.054 4.768-.378 6.987-1.27a9.27 9.27 0 0 0 2.377-1.271c.165-.17.284-.378.346-.606l.064-.165c.074-.197.17-.6.234-.84.122-.463-.292-.218-.292-.218-1.412.822-2.995 1.306-4.626 1.414-2.292.048-6.912-2.308-7.407-2.557l-.048-.053-.957-2.265c3.318 2.185 6.093 3.398 8.22 3.584 2.334.213 4.17-1.074 4.95-1.622zm-9.135-3.366c.046-1.385.922-2.605 2.22-3.092a3.42 3.42 0 0 1 3.706.87c.946 1.014 1.188 2.495.614 3.756s-1.852 2.05-3.237 2.003c-1.885-.072-3.36-1.65-3.302-3.536z" fill="#73ba25"/></svg>