<?xml version="1.0" encoding="UTF-8" standalone="no"?>
<svg
   xmlns:dc="http://purl.org/dc/elements/1.1/"
   xmlns:cc="http://creativecommons.org/ns#"
   xmlns:rdf="http://www.w3.org/1999/02/22-rdf-syntax-ns#"
   xmlns:svg="http://www.w3.org/2000/svg"
   xmlns="http://www.w3.org/2000/svg"
   xmlns:sodipodi="http://sodipodi.sourceforge.net/DTD/sodipodi-0.dtd"
   xmlns:inkscape="http://www.inkscape.org/namespaces/inkscape"
   width="120"
   height="60"
   viewBox="0 0 120 60"
   version="1.1"
   id="svg10"
   sodipodi:docname="ebay-ar21.svg"
   inkscape:version="0.92.2 (5c3e80d, 2017-08-06)">
  <metadata
     id="metadata16">
    <rdf:RDF>
      <cc:Work
         rdf:about="">
        <dc:format>image/svg+xml</dc:format>
        <dc:type
           rdf:resource="http://purl.org/dc/dcmitype/StillImage" />
        <dc:title></dc:title>
      </cc:Work>
    </rdf:RDF>
  </metadata>
  <defs
     id="defs14" />
  <sodipodi:namedview
     pagecolor="#ffffff"
     bordercolor="#666666"
     borderopacity="1"
     objecttolerance="10"
     gridtolerance="10"
     guidetolerance="10"
     inkscape:pageopacity="0"
     inkscape:pageshadow="2"
     inkscape:window-width="1920"
     inkscape:window-height="1001"
     id="namedview12"
     showgrid="false"
     inkscape:zoom="4"
     inkscape:cx="103.64789"
     inkscape:cy="-7.2630616"
     inkscape:window-x="-9"
     inkscape:window-y="-9"
     inkscape:window-maximized="1"
     inkscape:current-layer="svg10" />
  <g
     id="g827"
     transform="matrix(0.20620382,0,0,0.20620382,7.5505772,-23.052548)">
    <path
       id="path2"
       d="m 310,260.9 c -18.4,0.6 -29.9,3.9 -29.9,16.1 0,7.9 6.3,16.4 22.2,16.4 21.3,0 32.7,-11.6 32.7,-30.7 v -2.1 c -7.5,0 -16.7,0.1 -25,0.3 z m 45.4,25.2 c 0,5.9 0.2,11.8 0.7,17 h -18.9 c -0.5,-4.3 -0.7,-8.6 -0.7,-12.8 -10.2,12.6 -22.4,16.2 -39.3,16.2 -25,0 -38.4,-13.2 -38.4,-28.5 0,-22.2 18.2,-30 49.9,-30.7 8.7,-0.2 18.4,-0.2 26.4,-0.2 v -2.2 c 0,-14.8 -9.5,-20.9 -26,-20.9 -12.2,0 -21.3,5.1 -22.2,13.8 h -21.4 c 2.3,-21.8 25.2,-27.3 45.3,-27.3 24.2,0 44.5,8.6 44.5,34.1 v 41.5 z"
       inkscape:connector-curvature="0"
       style="fill:#f5af02" />
    <path
       id="path4"
       d="m 134.1,250.1 c -0.8,-19 -14.5,-26.1 -29.2,-26.1 -15.8,0 -28.5,8 -30.7,26.1 z m -60.3,13.5 c 1.1,18.5 13.8,29.4 31.3,29.4 12.1,0 22.9,-4.9 26.5,-15.7 h 21 c -4.1,21.8 -27.3,29.2 -47.2,29.2 -36.3,0 -52.3,-20 -52.3,-46.9 0,-29.7 16.6,-49.2 52.7,-49.2 28.7,0 49.7,15 49.7,47.8 v 5.4 z"
       inkscape:connector-curvature="0"
       style="fill:#e53238" />
    <path
       id="path6"
       d="m 207.6,292.6 c 18.9,0 31.8,-13.6 31.8,-34.1 0,-20.5 -12.9,-34.1 -31.8,-34.1 -18.8,0 -31.8,13.6 -31.8,34.1 0,20.5 13,34.1 31.8,34.1 z M 155.5,174.7 h 20.3 v 51.1 c 10,-11.9 23.7,-15.3 37.2,-15.3 22.7,0 47.8,15.3 47.8,48.3 0,27.6 -20,47.8 -48.2,47.8 -14.8,0 -28.6,-5.3 -37.2,-15.8 0,4.2 -0.2,8.4 -0.7,12.4 h -20 c 0.3,-6.5 0.7,-14.5 0.7,-21 V 174.7 Z"
       inkscape:connector-curvature="0"
       style="fill:#0064d2" />
    <path
       id="path8"
       d="M 458.9,213.8 396,337.3 H 373.2 L 391.3,303 344,213.8 h 23.8 l 34.8,69.7 34.7,-69.7 z"
       inkscape:connector-curvature="0"
       style="fill:#86b817" />
  </g>
</svg>
