<?xml version="1.0" encoding="utf-8"?>
<!-- Generator: Adobe Illustrator 24.0.1, SVG Export Plug-In . SVG Version: 6.00 Build 0)  -->
<svg version="1.1" id="Layer_1" xmlns="http://www.w3.org/2000/svg" xmlns:xlink="http://www.w3.org/1999/xlink" x="0px" y="0px"
	 viewBox="0 0 120 60" width="120" height="60" style="enable-background:new 0 0 120 60;" xml:space="preserve">
<style type="text/css">
	.st0{fill:#565656;}
	.st1{fill:#0C9CD8;}
</style>
<path class="st0" d="M42.3,40.3c-0.1-0.2-0.2-0.5-0.2-0.7c-0.6,0.7-1.4,1-2.7,1c-3.1,0-4.9-2.3-4.9-6.2c0-3.6,1.6-6.7,5.3-6.7
	c0.6,0,1.2,0.2,1.7,0.4c-0.1-0.6-0.1-1.3-0.1-2v-3.3l4.1,0.5v12c0,3.1,0.1,3.9,0.4,4.9L42.3,40.3z M41.3,31.4
	c-0.2-0.3-0.5-0.5-0.9-0.5c-1.1,0-1.4,0.8-1.4,3.6c0,1.8,0.2,3,1.4,3c0.3,0,0.7-0.1,0.9-0.4V31.4z"/>
<path class="st0" d="M65.2,40.3v-7.9c0-1.3-0.4-1.3-1-1.3c-0.3,0-0.8,0.2-1.4,0.7v8.5h-4.1v-7.8c0-1.4-0.1-2.8-0.4-4.1l3.8-0.6
	c0.1,0.4,0.2,0.8,0.2,1.1c1-0.8,2.3-1.2,3.5-1.2c2.9,0,3.4,1.7,3.4,3.4v9.2H65.2z"/>
<path class="st0" d="M79.1,40.8c-0.6-0.2-1.1-0.7-1.5-1.2c-0.9,0.7-2,1.1-3.1,1c-3,0-4.2-1.8-4.2-4c0-2.3,2-4,5.4-4
	c0.2,0,0.5,0,0.7,0v-0.8c0-0.7-0.1-1.1-1-1.1c-1.4,0-2.4,0.5-3.5,1.3l-1.5-2.6c1.5-0.9,3.5-1.7,5.5-1.7c2.3,0,4,0.8,4.4,2.2
	c0.2,0.6,0.2,1.3,0.2,1.9l0,4.2c0,1,0.1,1.8,0.9,2.4L79.1,40.8z M76.5,35.2c-1.7,0-2.1,0.6-2.1,1.4c-0.1,0.6,0.4,1.1,1,1.2
	c0.1,0,0.1,0,0.2,0c0.4,0,0.7-0.2,1-0.4V35.2z"/>
<path class="st0" d="M89.4,40.3c-0.1-0.2-0.2-0.5-0.2-0.7c-0.6,0.7-1.4,1-2.7,1c-3.1,0-4.9-2.3-4.9-6.2c0-3.6,1.6-6.7,5.3-6.7
	c0.6,0,1.1,0.2,1.6,0.4c-0.1-0.6-0.1-1.3-0.1-2v-3.3l4.1,0.5v12c0,3.1,0.1,3.9,0.4,4.9L89.4,40.3z M88.4,31.4
	c-0.2-0.3-0.5-0.5-0.9-0.5c-1.1,0-1.4,0.8-1.4,3.6c0,1.8,0.2,3,1.4,3c0.3,0,0.7-0.1,0.9-0.4V31.4z"/>
<path class="st0" d="M99.3,40.6c-3.5,0-5.7-2.3-5.7-6.4c0-3.8,2.3-6.5,5.9-6.5c3,0,5.6,1.7,5.6,6.1C105.2,38.7,102.2,40.6,99.3,40.6
	z M99.4,30.6c-0.9,0-1.3,0.6-1.3,3.7c0,2.4,0.1,3.4,1.3,3.4c1,0,1.3-1,1.3-4C100.7,31.3,100.4,30.6,99.4,30.6L99.4,30.6z"/>
<path class="st0" d="M110.3,40.7c-2.3,0-3.9-0.6-3.9-3v-6.9h-1v-2.7h1c0-1,0-2,0.1-3.1l4.1-0.6c-0.1,1.2-0.2,2.4-0.1,3.7h2.3
	l-0.5,2.7h-1.7v4.9c0,1.7,0.2,2.1,1.3,2.1c0.4,0,0.7-0.1,1-0.2l0.5,2.4C112.5,40.4,111.4,40.6,110.3,40.7z"/>
<path class="st0" d="M46.2,28.1l4.1-0.3l1.1,6.4c0.2,0.9,0.3,1.7,0.6,2.5h0c0.2-1.2,0.5-2.6,0.7-3.8l0.7-4.9l4.3,0L54,40.4
	c-1.4,3.6-2.8,4.4-6.7,4.7l-1.2-2.5c2.5-0.6,3.9-0.6,3.5-2L46.2,28.1z"/>
<path class="st1" d="M25.5,22l2.1-4.1l-5,2.9c0.2-1.6,0.5-3.7,1-6.7C12.4,20,8.5,26.1,7.2,30c-0.1,0.1-0.1,0.3-0.1,0.4
	c-0.7,2.3-0.5,3.8-0.5,3.8l0,0c0.1,6.5,5.4,11.7,11.9,11.7c6.6,0,11.9-5.3,11.9-11.9c0,0,0,0,0,0V22L25.5,22z M24.4,33.9
	c0,3.3-2.7,6-6,6c-3.3,0-6-2.7-6-6c0-3.3,2.7-6,6-6h6L24.4,33.9z"/>
<path class="st1" d="M15.7,33.9c0,1.6,1.3,2.8,2.8,2.8c0,0,0,0,0,0c1.6,0,2.8-1.3,2.8-2.8c0,0,0,0,0,0c0-1.6-1.3-2.8-2.8-2.8
	c0,0,0,0,0,0C16.9,31.1,15.7,32.4,15.7,33.9z"/>
</svg>
