<svg xmlns="http://www.w3.org/2000/svg" width="64" height="64" viewBox="10.36 13.16 59.777 58.361" fill-rule="evenodd"><path d="M42.064 33.318l-1.147 1.376c-1.604 2.128-2.444 4.532-2.56 7.2l-.034.446h-27.94c-.048-1.016.4-1.818 1.116-2.482l4.606-4.188 13.592-12.335 1.298-1.14.477.517 10.592 10.614z" fill="#00a6a0"/><path d="M10.383 42.332l27.94-.001c.06 1.242.198 2.47.565 3.665.554 1.805 1.446 3.422 2.713 4.827l.4.5-.4.423-10.33 10.33-.376.347-3.532-3.16-15.76-14.3c-.605-.548-1.05-1.175-1.213-1.984-.043-.2-.073-.42-.027-.635z" fill="#00a8eb"/><path d="M30.914 62.413l.376-.347 10.33-10.33.4-.423L43.7 52.7a12.68 12.68 0 0 0 7 2.35c.128.004.255.022.382.034l.001 15.712c-1.308.07-2.607-.066-3.896-.246-4.52-.63-8.67-2.238-12.413-4.862-1.384-.97-2.703-2.023-3.85-3.275z" fill="#3270b6"/><path d="M42.064 33.318l-5.518-5.537-5.074-5.077-.477-.517c1.167-1.262 2.505-2.324 3.916-3.295 3.912-2.7 8.23-4.308 12.952-4.832 1.06-.118 2.123-.224 3.193-.16l.006 15.693c-1.28.072-2.545.22-3.775.608-1.797.567-3.392 1.48-4.786 2.747-.14.128-.3.246-.437.37z" fill="#00af35"/><path d="M51.072 70.795l-.001-15.712c1.306-.06 2.595-.22 3.846-.626a13.09 13.09 0 0 0 3.116-1.483c.727-.472 1.508-.683 2.378-.54a2.73 2.73 0 0 1 1.523.761l7.26 7.262a3.52 3.52 0 0 1 .694.995c.437.93.282 1.86-.44 2.597-.164.167-.348.317-.532.464-4.263 3.408-9.096 5.46-14.52 6.095-1.104.13-2.2.244-3.324.186z" fill="#3a1e7d"/><path d="M51.062 29.593L51.056 13.9c.877-.087 1.752.01 2.62.1a28.23 28.23 0 0 1 9.064 2.379 28.4 28.4 0 0 1 6.306 3.898c1.296 1.058 1.44 2.317.42 3.637-.156.202-.336.387-.517.57l-6.8 6.8c-1.048 1.078-2.625 1.386-4.027.48-2.12-1.37-4.425-2.1-6.944-2.146-.042 0-.083-.016-.125-.026z" fill="#6fc227"/></svg>