<?xml version="1.0" encoding="UTF-8" standalone="no"?>
<svg
   xmlns:dc="http://purl.org/dc/elements/1.1/"
   xmlns:cc="http://creativecommons.org/ns#"
   xmlns:rdf="http://www.w3.org/1999/02/22-rdf-syntax-ns#"
   xmlns:svg="http://www.w3.org/2000/svg"
   xmlns="http://www.w3.org/2000/svg"
   xmlns:xlink="http://www.w3.org/1999/xlink"
   xmlns:sodipodi="http://sodipodi.sourceforge.net/DTD/sodipodi-0.dtd"
   xmlns:inkscape="http://www.inkscape.org/namespaces/inkscape"
   width="120"
   height="60"
   viewBox="0 0 120 60"
   version="1.1"
   id="svg34"
   sodipodi:docname="reasonml-ar21.svg"
   inkscape:version="0.92.3 (2405546, 2018-03-11)">
  <metadata
     id="metadata38">
    <rdf:RDF>
      <cc:Work
         rdf:about="">
        <dc:format>image/svg+xml</dc:format>
        <dc:type
           rdf:resource="http://purl.org/dc/dcmitype/StillImage" />
        <dc:title></dc:title>
      </cc:Work>
    </rdf:RDF>
  </metadata>
  <sodipodi:namedview
     pagecolor="#ffffff"
     bordercolor="#666666"
     borderopacity="1"
     objecttolerance="10"
     gridtolerance="10"
     guidetolerance="10"
     inkscape:pageopacity="0"
     inkscape:pageshadow="2"
     inkscape:window-width="1920"
     inkscape:window-height="1001"
     id="namedview36"
     showgrid="false"
     inkscape:zoom="3.3177744"
     inkscape:cx="45.278836"
     inkscape:cy="46.485265"
     inkscape:window-x="-9"
     inkscape:window-y="-9"
     inkscape:window-maximized="1"
     inkscape:current-layer="svg34" />
  <defs
     id="defs18">
    <path
       id="b"
       d="M 0,0 H 216 V 216 H 0 Z"
       inkscape:connector-curvature="0" />
    <filter
       x="-0.0049999999"
       y="-0.0049999999"
       width="1.0090001"
       height="1.0190001"
       filterUnits="objectBoundingBox"
       id="a">
      <feOffset
         dy="2"
         in="SourceAlpha"
         result="shadowOffsetOuter1"
         id="feOffset3" />
      <feComposite
         in="shadowOffsetOuter1"
         in2="SourceAlpha"
         operator="out"
         result="shadowOffsetOuter1"
         id="feComposite5" />
      <feColorMatrix
         values="0 0 0 0 0 0 0 0 0 0 0 0 0 0 0 0 0 0 0.02 0"
         in="shadowOffsetOuter1"
         id="feColorMatrix7" />
    </filter>
    <path
       d="M 128.128,197 H 103.702 L 91.666,174.108 H 75.618 V 197 H 54.024 v -82.718 h 37.17 c 21.948,0 34.456,10.62 34.456,29.028 0,12.508 -5.192,21.712 -14.75,26.668 z m -52.51,-65.49 v 25.37 h 15.694 c 8.732,0 13.806,-4.484 13.806,-12.862 0,-8.142 -5.074,-12.508 -13.806,-12.508 z m 63.838,-17.228 h 65.254 v 17.228 h -43.66 v 15.458 h 39.412 v 17.11 l -39.412,0.118 v 15.576 h 44.84 V 197 h -66.434 z"
       id="c"
       inkscape:connector-curvature="0" />
    <filter
       x="-0.0069999998"
       y="-0.012"
       width="1.013"
       height="1.024"
       filterUnits="objectBoundingBox"
       id="d">
      <feOffset
         dy="2"
         in="SourceAlpha"
         result="shadowOffsetInner1"
         id="feOffset11" />
      <feComposite
         in="shadowOffsetInner1"
         in2="SourceAlpha"
         operator="arithmetic"
         k2="-1"
         k3="1"
         result="shadowInnerInner1"
         id="feComposite13"
         k1="0"
         k4="0" />
      <feColorMatrix
         values="0 0 0 0 0 0 0 0 0 0 0 0 0 0 0 0 0 0 0.02 0"
         in="shadowInnerInner1"
         id="feColorMatrix15" />
    </filter>
  </defs>
  <g
     id="g852"
     transform="matrix(0.18531725,0,0,0.18531725,6.5565436,9.8056076)">
    <g
       id="g32"
       style="fill:none;fill-rule:evenodd">
      <use
         id="use20"
         xlink:href="#b"
         style="fill:#000000;filter:url(#a)"
         x="0"
         y="0"
         width="100%"
         height="100%" />
      <use
         id="use22"
         xlink:href="#b"
         style="fill:#dd4b39"
         x="0"
         y="0"
         width="100%"
         height="100%" />
      <path
         id="path24"
         d="m 0.5,0.5 h 215 v 215 H 0.5 Z"
         inkscape:connector-curvature="0"
         style="stroke:#d74837" />
      <path
         id="path26"
         d="m 288.086,197 -5.664,-14.632 H 246.668 L 240.886,197 h -22.184 l 35.518,-82.718 h 22.184 L 311.096,197 Z m -34.928,-31.152 h 22.892 l -11.328,-29.5 z M 379.17,139.77 c -8.732,-4.956 -19.824,-8.85 -26.668,-8.85 -5.192,0 -8.614,1.888 -8.614,5.664 0,13.688 43.542,5.9 43.542,35.636 0,16.874 -14.868,25.488 -33.276,25.488 -13.806,0 -28.202,-5.074 -38.114,-13.216 l 8.378,-16.874 c 8.496,7.316 21.358,12.508 29.972,12.508 6.372,0 10.384,-2.36 10.384,-6.726 0,-14.042 -43.542,-5.546 -43.542,-34.81 0,-15.458 13.098,-25.252 33.04,-25.252 12.154,0 24.426,3.776 33.04,9.322 z m 62.646,-26.078 c 25.606,0 44.722,17.936 44.722,41.89 0,24.19 -19.116,42.362 -44.722,42.362 -25.606,0 -44.722,-18.172 -44.722,-42.362 0,-24.072 19.116,-41.89 44.722,-41.89 z m 0.236,18.408 c -12.39,0 -22.774,10.148 -22.774,23.6 0,13.452 10.502,23.836 22.774,23.836 12.39,0 22.302,-10.384 22.302,-23.836 0,-13.452 -9.912,-23.6 -22.302,-23.6 z m 59.224,-17.818 h 18.998 l 37.524,49.796 v -49.796 h 20.06 V 197 h -18.88 L 521.454,147.44 V 197 h -20.178 z"
         inkscape:connector-curvature="0"
         style="fill:#333333" />
      <use
         id="use28"
         xlink:href="#c"
         style="fill:#ffffff"
         x="0"
         y="0"
         width="100%"
         height="100%" />
      <use
         id="use30"
         xlink:href="#c"
         style="fill:#000000;filter:url(#d)"
         x="0"
         y="0"
         width="100%"
         height="100%" />
    </g>
  </g>
</svg>
