<svg xmlns="http://www.w3.org/2000/svg" xmlns:xlink="http://www.w3.org/1999/xlink" width="64" height="64" viewBox="0 0 16.933 16.933"><defs><linearGradient id="A" x2="17.015" x1="17.015" y1="29.203" y2="47.851" xlink:href="#I"><stop stop-color="#0097e0" offset="0"/><stop stop-color="#0097e0" offset=".013"/><stop stop-color="#00aaeb" offset=".252"/><stop stop-color="#00aaeb" offset=".262"/><stop stop-color="#00b9ef" offset="1"/></linearGradient><linearGradient id="B" x2="17.083" x1="17.083" y1="29.203" y2="47.851" xlink:href="#I"><stop stop-color="#0097e0" offset="0"/><stop stop-color="#0097e0" offset=".013"/><stop stop-color="#00aaeb" offset=".252"/><stop stop-color="#00aaeb" offset=".262"/><stop stop-color="#00b9ef" offset="1"/></linearGradient><linearGradient id="C" x2="16.798" x1="16.448" y1="28.227" y2="9.488" xlink:href="#I"><stop stop-color="#00a1e9" offset="0"/><stop stop-color="#00a1e9" offset=".052"/><stop stop-color="#00b9ef" offset="1"/></linearGradient><linearGradient id="D" x2="16.017" x1="16.017" y1="28.613" y2="21.636" xlink:href="#I"><stop stop-color="#00a1e9" offset="0"/><stop stop-color="#00a1e9" offset=".165"/><stop stop-color="#55c3f1" offset="1"/></linearGradient><linearGradient id="E" x2="21.973" x1="10.37" y1="23.947" y2="24.165" xlink:href="#I"><stop stop-color="#fff" offset="0"/><stop stop-color="#fff" offset=".613"/><stop stop-color="#fff" offset="1"/></linearGradient><mask id="F" x="0" y="0" width="1" height="1" maskUnits="userSpaceOnUse"><path d="M-32768 32767h65535v-65535h-65535z" fill="url(#G)"/></mask><radialGradient id="G" cx="0" cy="0" r="1" gradientTransform="matrix(-0.037097,-1.9834,-1.9834,0.037097,202.2,476.21)" xlink:href="#I"><stop stop-color="#fff" offset="0"/><stop stop-color="#fff" stop-opacity="0" offset="1"/></radialGradient><radialGradient id="H" cx="0" cy="0" r="1" gradientTransform="matrix(-0.037097,-1.9834,-1.9834,0.037097,202.2,476.21)" xlink:href="#I"><stop stop-color="#bbe3f9" offset="0"/><stop stop-color="#1c95d4" offset="1"/></radialGradient><linearGradient id="I" gradientUnits="userSpaceOnUse"/></defs><g transform="matrix(.329878 0 0 .329878 2.769341 -.006124)"><path d="M21.04 42.04l9.007 7.435s.347.27.58 0c0 0 2.935-2.822 3.553-2.706 0 0 .18-.026-.077.503 0 0-.604 1.262-2.82 3.7 0 0-.708.773-1.505.077l-9.586-8.054s-.513-.464-.102-.978c0 0 .387-.413.95.012m-7.835.001l-9.007 7.435s-.347.27-.58 0c0 0-2.935-2.822-3.552-2.706 0 0-.18-.026.076.503 0 0 .604 1.262 2.82 3.7 0 0 .708.773 1.507.077l9.583-8.054s.515-.464.103-.978c0 0-.387-.413-.95.012m6.635-8.923s.642-.652 5.706-3.085c0 0 .256-.138.413.104 0 0 1.576 1.8 3.424 1.698 0 0 .312-.02.45-.37.246-.615-1.44-1.338-1.44-1.338-.792-.35-.7-1.108-.7-1.108.05-.487-.286-.754-.286-.754-.598-.477-2.6.796-2.6.796l-5.475 3.045s-.68.32-.403.856c0 0 .213.487.9.154m-5.32.218s-.683-.6-5.9-2.72c0 0-.264-.12-.405.13 0 0-1.46 1.887-3.3 1.912 0 0-.313 0-.475-.338-.282-.598 1.355-1.43 1.355-1.43.77-.398.617-1.15.617-1.15-.08-.482.238-.77.238-.77.566-.514 2.637.63 2.637.63l5.656 2.694s.7.276.456.83c0 0-.18.498-.88.2" fill="#3f3b3a"/><path d="M11.957 41.2c0 3.85 2.265 6.972 5.06 6.972s5.06-3.122 5.06-6.972-2.266-6.97-5.06-6.97-5.06 3.122-5.06 6.97" fill="url(#A)"/><path d="M14.067 31.734c0 1.914 1.35 3.467 3.012 3.467s3.012-1.553 3.012-3.467-1.347-3.465-3.012-3.465-3.012 1.55-3.012 3.465" fill="url(#B)"/><g fill="#3f3b3a"><path d="M10.086 15.66s-1.7-6.4 3.103-12.9l.392.615s-3.32 4.16-2.442 11.232z"/><path d="M16.54.473c.58.68.296 1.88-.636 2.678s-2.16.893-2.742.2-.297-1.88.636-2.677 2.16-.893 2.742-.212m3.628 13.373s2.46-6.16 10.187-8.472L30.3 6.1s-5.146 1.35-8.666 7.542z"/><path d="M34.535 5.468c.06.894-.885 1.684-2.108 1.766s-2.266-.578-2.325-1.472.886-1.683 2.1-1.765 2.265.578 2.324 1.47"/></g><path d="M5.607 19.35c-.312 7.222 4.9 9.905 11.2 9.56 7.167-.388 11.223-4.13 10.75-9.648-.86-10.044-9.763-6.387-12.13-10.387-2.885 4.42-9.495 2.73-9.832 10.475" fill="url(#C)"/><path d="M5.834 22.3l.045.203c1.132 4.866 5.646 6.7 10.948 6.42 4.384-.238 7.598-1.734 9.328-4.122.83-1.573-.843-3.904-2.82-2.58-.337.227-7.436 6.175-17.655-.9.04.335.1.657.155.967" fill="url(#D)"/><path d="M16.38 22.052c-8.13.532-7.867-4.33-7.867-4.33.136-4.544 7.312-4.67 7.312-4.67s8.37-.564 8.435 4.293c0 0 .294 4.3-7.88 4.708" fill="#008cd6"/><path d="M16.37 22.37c-8.302.392-7.85-4.322-7.85-4.322.136-4.534 7.295-4.555 7.295-4.555s8.355-.667 8.42 4.178c0 0 .378 4.32-7.863 4.7" fill="#fff"/><path d="M11.254 23.55c-.7-.2-1.124.557-.314 1.047s6.662 2.074 10.903-.9l-.06-.947c-5.296 2.473-10.53.8-10.53.8" fill="url(#E)"/><path d="M16.4 16.342c-1.277.106-2.227 1.226-2.124 2.503 0 0 .007.215.312.2s1.965-.43 4.095-.335c.23-.017.215-.23.215-.23a2.32 2.32 0 0 0-2.498-2.127" fill="#3f3b3a"/><path d="M201.97 476.04c-.893-.074-1.558-.857-1.486-1.75 0 0 .005-.15.22-.133s1.374.302 2.864.234c.16.013.15.162.15.162a1.62 1.62 0 0 1-1.748 1.487" fill="url(#H)" transform="matrix(1.134 0 0 -1.1351 -212.62 556.82)" mask="url(#F)"/></g></svg>