<?xml version="1.0" encoding="UTF-8" standalone="no"?>
<svg xmlns:dc="http://purl.org/dc/elements/1.1/" xmlns:cc="http://creativecommons.org/ns#" xmlns:rdf="http://www.w3.org/1999/02/22-rdf-syntax-ns#" xmlns:svg="http://www.w3.org/2000/svg" xmlns="http://www.w3.org/2000/svg" xmlns:sodipodi="http://sodipodi.sourceforge.net/DTD/sodipodi-0.dtd" xmlns:inkscape="http://www.inkscape.org/namespaces/inkscape" version="1.0" width="64" height="64" viewBox="0 0 24 24" preserveAspectRatio="xMidYMid meet" id="svg44" sodipodi:docname="darksky-icon.svg" inkscape:version="0.92.2 (5c3e80d, 2017-08-06)">
  <defs id="defs48"/>
  <sodipodi:namedview pagecolor="#ffffff" bordercolor="#666666" borderopacity="1" objecttolerance="10" gridtolerance="10" guidetolerance="10" inkscape:pageopacity="0" inkscape:pageshadow="2" inkscape:window-width="1920" inkscape:window-height="1001" id="namedview46" showgrid="false" inkscape:zoom="3.0215445" inkscape:cx="88.65027" inkscape:cy="44.159037" inkscape:window-x="-9" inkscape:window-y="-9" inkscape:window-maximized="1" inkscape:current-layer="svg44" units="px"/>
  <metadata id="metadata2">
Created by potrace 1.13, written by Peter Selinger 2001-2015
<rdf:RDF><cc:Work rdf:about=""><dc:format>image/svg+xml</dc:format><dc:type rdf:resource="http://purl.org/dc/dcmitype/StillImage"/><dc:title/></cc:Work></rdf:RDF>
</metadata>
  <g id="g880" transform="matrix(0.16109146,0,0,0.16109146,-12.687601,6.374671)">
    <path d="m 152.18906,-37.40716 c -1.28705,4.9727 -7.63455,15.73712 -14.45007,24.48322 -1.78432,2.28159 -3.24688,4.2121704 -3.24688,4.2414204 0,0.0585 2.01833,-0.78978 4.47543,-1.8720704 5.35296,-2.3986 10.26715,-4.06592 14.91809,-5.08971 3.74415,-0.84828 10.79368,-1.93057 12.60725,-1.93057 0.87753,0 1.08229,-0.0878 0.93604,-0.46802 -0.46802,-1.1993 -11.99298,-18.25273 -13.98206,-20.68057 l -0.70203,-0.84829 z" id="path4" inkscape:connector-curvature="0" style="fill:#000000;stroke:none;stroke-width:0.02925116"/>
    <path d="m 166.9609,-11.81239 c -5.85023,6.9910204 -10.15016,13.4262804 -13.07527,19.5690204 -1.49181,3.1883796 -3.30538,7.5175496 -3.15913,7.6638096 0.0292,0.0585 2.54485,-0.64353 5.55772,-1.55031 3.01287,-0.90679 5.49922,-1.60882 5.55772,-1.55032 0.0585,0.0585 -0.90678,2.13534 -2.16458,4.65094 -4.06591,8.21958 -6.72777,15.76637 -7.89782,22.5819 -0.64352,3.65639 -1.4333,13.25077 -1.11154,13.54328 0.11701,0.11701 1.87207,-0.58502 3.91966,-1.55031 2.07683,-0.99454 3.7734,-1.75507 3.8319,-1.69657 0.0585,0.0585 -0.29251,1.90133 -0.78978,4.15367 -1.93058,8.98011 -2.77886,16.81942 -2.74961,26.26754 0,7.63456 0.23401,10.53042 1.40405,17.87246 1.11155,6.84477 2.13534,10.93994 2.74961,10.93994 1.49181,0 7.51755,-1.31631 10.58892,-2.3401 17.31669,-5.67472 30.62597,-20.09554 34.92589,-37.7925 2.28159,-9.36037 2.07683,-18.89625 -0.61427,-27.6716 -3.04213,-9.97464 -7.51755,-17.8432 -20.56357,-36.1836796 -2.95437,-4.18291996 -7.22504,-10.29641 -9.44813,-13.60179 -2.25234,-3.3053804 -4.18291,-6.0257404 -4.29992,-6.0842404 -0.14625,-0.0585 -1.34555,1.19929 -2.66185,2.77886 z" id="path12" inkscape:connector-curvature="0" style="fill:#000000;stroke:none;stroke-width:0.02925116"/>
    <path d="M 127.9106,-0.96020956 C 111.26669,18.72582 103.89539,31.83034 101.08728,46.77768 c -0.93604,4.9142 -0.93604,14.18682 0,19.07176 2.04758,10.73518 6.87402,19.94929 14.47933,27.70085 7.7223,7.83931 17.37519,12.98752 27.99336,14.94734 3.30538,0.61428 12.60725,1.17005 13.57254,0.78978 0.35101,-0.14625 -0.0292,-0.99453 -1.90133,-4.06591 -5.06045,-8.30733 -8.33658,-15.73712 -10.20865,-23.13767 -1.0823,-4.29992 -2.3401,-10.99843 -2.3401,-12.49024 0,-1.60882 -0.35101,-1.60882 -3.15912,0 -1.46256,0.81903 -2.77886,1.43331 -2.95437,1.34555 -0.32176,-0.20476 -2.13533,-7.63455 -2.80811,-11.4372 -1.3163,-7.4883 -1.87208,-16.84867 -1.40406,-23.19617 0.14626,-1.84283 0.17551,-3.36389 0.0878,-3.39314 -0.0878,-0.0585 -1.78432,0.58503 -3.80265,1.46256 l -3.6564,1.52106 -0.23401,-0.90679 c -0.26326,-1.05304 -0.0292,-9.21411 0.40952,-14.24531 0.58502,-6.90328 2.19383,-14.5085796 4.50468,-21.47034956 0.58502,-1.72582004 1.02379,-3.21763004 0.96528,-3.24688004 -0.0585,-0.0585 -1.28705,1.28705 -2.72035,3.01287004 z" id="path26" inkscape:connector-curvature="0" style="fill:#000000;stroke:none;stroke-width:0.02925116"/>
  </g>
</svg>
