<svg xmlns="http://www.w3.org/2000/svg" x="2000" width="120" height="60" fill="#106db3"><path d="M20.243 14.917a15.45 15.45 0 0 1 6.704 1.527l.96.5-1.4 1.24-2.097-2.16-3.614 3.17-2.128-2.277-6.646 5.907 4.255 4.64-1.66 1.44 4.198 4.64-1.66 1.44 6.005 6.6 3.554-3.227 3.1 3.46c-.613.46-1.283.923-2 1.326a15.37 15.37 0 0 1-7.52 1.958C11.85 45.083 5 38.313 5 29.987c-.03-8.27 6.82-15.07 15.243-15.07zm-2.8 14.148l3.644-3.227 3.265 3.602-3.644 3.227zm2.595 6.224l3.614-3.256 3.294 3.6-3.644 3.227zM14.85 22.93l3.642-3.227 3.264 3.602-3.644 3.227zm6.673-1.73l2.7-2.42 2.45 2.68-2.7 2.45zm4.84 11.093l2.7-2.42 2.45 2.708L28.812 35zm2.4 5.446l2.7-2.42 2.447 2.68-2.7 2.448zM29.872 25.3l1.807-1.614 1.632 1.787-1.807 1.613zm-2.332-5.33l1.807-1.642 1.633 1.815-1.808 1.614zm4.634 10.662l1.807-1.614 1.66 1.787-1.836 1.613zm-8.132-4.005l2.7-2.42 2.448 2.68-2.7 2.42zm18.846-4.034h1.464l2.286 8.744h.115l1.678-8.744h1.924L47.7 34.3h-1.776l-2.236-8.248h-.116L41.4 34.3h-1.775L36.95 22.582h1.842l1.842 8.744h.115zm9.804 6.73h3.765c-.082-1.735-.92-2.428-1.8-2.428-1.003 0-1.777.777-1.957 2.428m5.08 3.108v1.256c-.74.43-1.726.76-2.9.76-2.762 0-3.897-1.72-3.897-4.33 0-2.513 1.266-4.33 3.733-4.33 2.055 0 3.322 1.34 3.322 4.033v.612h-5.36c0 1.983.805 2.86 2.5 2.86.888 0 1.7-.315 2.614-.86m4.073.7c.526.23 1.102.266 1.514.266 1.217 0 2.137-.76 2.137-3.438 0-2.1-.756-2.777-1.858-2.777-.658 0-1.135.182-1.793.545zm.017-6.627c.492-.264 1.33-.612 2.22-.612 2.04 0 3.142 1.42 3.142 4.066 0 3.1-1.48 4.595-3.864 4.595a7.59 7.59 0 0 1-3.208-.81V22.188l1.7-.413v4.7zm13.124 7.8h-1.052l-3.356-8.297h-.147v8.297h-1.48v-11.72h2l3.683 9.24h.082l3.52-9.24h2.04v11.72H78.5V25.8h-.148zm12.537-4.188c0-2.23-.904-3.173-2.022-3.173-1.085 0-2.023.942-2.023 3.173 0 2.265.856 3.173 2.023 3.173s2.022-.908 2.022-3.173m-5.772 0c0-2.893 1.58-4.33 3.75-4.33s3.75 1.437 3.75 4.33c0 2.826-1.496 4.33-3.75 4.33s-3.75-1.505-3.75-4.33M90.55 27c.74-.447 2.303-1.224 4.194-1.224 1.973 0 2.712.777 2.712 2.48v5.984h-1.7v-5.603c0-1.305-.64-1.537-1.48-1.537-.657 0-1.497.298-2.006.595v6.545h-1.7zm10.526 2.312h3.766c-.08-1.735-.92-2.428-1.8-2.428-1.003 0-1.775.777-1.957 2.428m5.08 3.108v1.256c-.74.43-1.726.76-2.9.76-2.76 0-3.897-1.72-3.897-4.33 0-2.513 1.266-4.33 3.733-4.33 2.056 0 3.323 1.34 3.323 4.033v.612h-5.362c0 1.983.806 2.86 2.5 2.86.887 0 1.7-.315 2.614-.86m7.08-6.645H115l-2.977 8.263c-.823 2.28-1.826 3.47-3.716 3.47v-1.354c1.12 0 1.8-.893 2.204-2.117l-3.158-8.263h1.8l2.105 6.082h.1z"/></svg>