<?xml version="1.0" encoding="UTF-8" standalone="no"?>
<svg
   viewBox="0 0 120 60"
   class="css-2dk2qc"
   version="1.1"
   id="svg3"
   sodipodi:docname="chakra-ui-ar21.svg"
   width="120"
   height="60"
   inkscape:version="1.3.2 (091e20e, 2023-11-25)"
   xmlns:inkscape="http://www.inkscape.org/namespaces/inkscape"
   xmlns:sodipodi="http://sodipodi.sourceforge.net/DTD/sodipodi-0.dtd"
   xmlns="http://www.w3.org/2000/svg"
   xmlns:svg="http://www.w3.org/2000/svg">
  <sodipodi:namedview
     id="namedview3"
     pagecolor="#ffffff"
     bordercolor="#000000"
     borderopacity="0.25"
     inkscape:showpageshadow="2"
     inkscape:pageopacity="0.0"
     inkscape:pagecheckerboard="0"
     inkscape:deskcolor="#d1d1d1"
     inkscape:zoom="0.67935872"
     inkscape:cx="499"
     inkscape:cy="128.06195"
     inkscape:window-width="1392"
     inkscape:window-height="997"
     inkscape:window-x="1776"
     inkscape:window-y="25"
     inkscape:window-maximized="0"
     inkscape:current-layer="svg3" />
  <path
     d="m 47.827211,27.710587 c 1.941499,0 2.807304,1.259352 3.095906,2.38752 l 2.728595,-0.996987 c -0.52473,-2.046445 -2.413758,-4.197837 -5.850738,-4.197837 -3.673108,0 -6.532886,2.83354 -6.532886,6.769013 0,3.883 2.859778,6.795252 6.611596,6.795252 3.35827,0 5.273534,-2.17763 5.876972,-4.171602 l -2.676121,-0.970749 c -0.288601,0.970749 -1.206879,2.361283 -3.200851,2.361283 -1.915264,0 -3.568163,-1.443006 -3.568163,-4.014184 0,-2.571176 1.652899,-3.961709 3.51569,-3.961709 z m 10.626218,2.859778 c 0.05247,-1.626663 0.970751,-2.886015 2.649886,-2.886015 1.915264,0 2.623649,1.259352 2.623649,2.833542 v 7.556109 h 3.043433 v -8.080839 c 0,-2.807304 -1.521717,-5.063643 -4.670095,-5.063643 -1.338061,0 -2.781068,0.472257 -3.646873,1.600426 v -7.451163 h -3.043431 v 18.995219 h 3.043431 z m 10.18549,4.040419 c 0,2.020208 1.652899,3.856764 4.329023,3.856764 2.072682,0 3.332033,-1.04946 3.935472,-2.020211 0,1.023224 0.104948,1.547953 0.131183,1.626664 h 2.83354 c -0.02623,-0.131183 -0.157419,-0.892041 -0.157419,-2.046447 v -6.34923 c 0,-2.54494 -1.495479,-4.775041 -5.430953,-4.775041 -3.148379,0 -5.142351,1.967737 -5.378479,4.171601 l 2.781067,0.629677 c 0.131182,-1.285588 1.023223,-2.308812 2.623649,-2.308812 1.679135,0 2.413757,0.865805 2.413757,1.941501 0,0.446019 -0.209892,0.81333 -0.944513,0.918276 l -3.279562,0.498494 c -2.177628,0.314838 -3.856765,1.574189 -3.856765,3.856764 z m 4.906224,1.469242 c -1.206878,0 -1.86279,-0.787094 -1.86279,-1.652897 0,-1.04946 0.760857,-1.57419 1.705371,-1.731609 l 3.332035,-0.498494 v 0.577203 c 0,2.492467 -1.469244,3.305797 -3.174616,3.305797 z M 94.304159,25.29683 H 90.26374 l -4.906223,5.168587 V 19.078782 H 82.34032 v 18.995219 h 3.017197 v -3.568163 l 1.574188,-1.652899 3.751819,5.221062 h 3.725582 l -5.352245,-7.372453 z m 8.735321,-0.07871 c -0.13119,-0.02624 -0.44602,-0.07871 -0.81333,-0.07871 -1.67914,0 -3.09591,0.813332 -3.699349,2.203865 V 25.296829 H 95.562077 V 38.074 h 3.043434 v -6.086866 c 0,-2.387521 1.075696,-3.751819 3.436979,-3.751819 0.31484,0 0.65591,0.02623 0.99699,0.07871 z m 0.72966,9.392662 c 0,2.020208 1.6529,3.856764 4.32902,3.856764 2.07268,0 3.33203,-1.04946 3.93547,-2.020211 0,1.023224 0.10495,1.547953 0.13118,1.626664 h 2.83355 c -0.0262,-0.131183 -0.15742,-0.892041 -0.15742,-2.046447 v -6.34923 c 0,-2.54494 -1.49549,-4.775041 -5.43096,-4.775041 -3.14837,0 -5.14235,1.967737 -5.37848,4.171601 l 2.78107,0.629677 c 0.13119,-1.285588 1.02323,-2.308812 2.62365,-2.308812 1.67914,0 2.41376,0.865805 2.41376,1.941501 0,0.446019 -0.20989,0.81333 -0.94452,0.918276 l -3.27956,0.498494 c -2.17763,0.314838 -3.85676,1.574189 -3.85676,3.856764 z m 4.90622,1.469242 c -1.20688,0 -1.86279,-0.787094 -1.86279,-1.652897 0,-1.04946 0.76086,-1.57419 1.70538,-1.731609 l 3.33203,-0.498494 v 0.577203 c 0,2.492467 -1.46924,3.305797 -3.17462,3.305797 z"
     fill="#2d3748"
     id="path1"
     style="stroke-width:0.110237" />
  <rect
     width="28.330999"
     height="28.330999"
     rx="14.1655"
     fill="url(#logo)"
     id="rect1"
     style="fill:url(#logo);stroke-width:0.110237"
     x="5"
     y="15" />
  <path
     d="m 12.66789,29.770151 9.655909,-9.589448 c 0.18035,-0.179146 0.470714,0.03886 0.348902,0.262035 l -3.593848,6.586913 c -0.08025,0.146835 0.02613,0.326081 0.193466,0.326081 h 6.210773 c 0.20008,0 0.29665,0.245058 0.150364,0.381644 L 14.749965,37.894864 c -0.195143,0.182113 -0.485607,-0.07452 -0.328938,-0.290584 l 5.152021,-7.107333 c 0.105608,-0.145734 0.0015,-0.349894 -0.178475,-0.349894 h -6.571326 c -0.196785,0 -0.294984,-0.238223 -0.155357,-0.376902 z"
     fill="#ffffff"
     id="path2"
     style="stroke-width:0.110237" />
  <defs
     id="defs3">
    <linearGradient
       id="logo"
       x1="128.5"
       x2="128.5"
       y2="257"
       gradientUnits="userSpaceOnUse"
       gradientTransform="matrix(0.11023736,0,0,0.11023736,5,15)">
      <stop
         stop-color="#7BCBD4"
         id="stop2" />
      <stop
         offset="1"
         stop-color="#29C6B7"
         id="stop3" />
    </linearGradient>
  </defs>
</svg>
