<?xml version="1.0" encoding="UTF-8" standalone="no"?>
<svg
   xmlns:dc="http://purl.org/dc/elements/1.1/"
   xmlns:cc="http://creativecommons.org/ns#"
   xmlns:rdf="http://www.w3.org/1999/02/22-rdf-syntax-ns#"
   xmlns:svg="http://www.w3.org/2000/svg"
   xmlns="http://www.w3.org/2000/svg"
   xmlns:sodipodi="http://sodipodi.sourceforge.net/DTD/sodipodi-0.dtd"
   xmlns:inkscape="http://www.inkscape.org/namespaces/inkscape"
   version="1.1"
   id="Layer_1"
   x="0px"
   y="0px"
   viewBox="0 0 64 64"
   xml:space="preserve"
   sodipodi:docname="bankofamerica-icon.svg"
   width="64"
   height="64"
   inkscape:version="0.92.3 (2405546, 2018-03-11)"><metadata
   id="metadata53"><rdf:RDF><cc:Work
       rdf:about=""><dc:format>image/svg+xml</dc:format><dc:type
         rdf:resource="http://purl.org/dc/dcmitype/StillImage" /><dc:title></dc:title></cc:Work></rdf:RDF></metadata><defs
   id="defs51" /><sodipodi:namedview
   pagecolor="#ffffff"
   bordercolor="#666666"
   borderopacity="1"
   objecttolerance="10"
   gridtolerance="10"
   guidetolerance="10"
   inkscape:pageopacity="0"
   inkscape:pageshadow="2"
   inkscape:window-width="1920"
   inkscape:window-height="1001"
   id="namedview49"
   showgrid="false"
   inkscape:zoom="6.7295285"
   inkscape:cx="85.598345"
   inkscape:cy="22.821527"
   inkscape:window-x="-9"
   inkscape:window-y="-9"
   inkscape:window-maximized="1"
   inkscape:current-layer="Layer_1" />
<style
   type="text/css"
   id="style2">
	.st0{fill:#E2173E;}
	.st1{fill:#3366CC;}
</style>





















<g
   id="g908"
   transform="matrix(2.2856327,0,0,2.2856327,-203.43292,-36.504333)"><path
     style="fill:#3366cc;stroke-width:0.28283843"
     inkscape:connector-curvature="0"
     id="path36"
     d="m 99.809508,26.379668 c 0.820232,0.339406 1.668742,0.678812 2.460692,1.046502 -2.573828,1.046502 -5.09109,2.290991 -7.466932,3.705183 -0.791948,-0.424257 -1.640463,-0.820231 -2.460695,-1.187921 2.404127,-1.357625 4.893105,-2.57383 7.466935,-3.563764"
     class="st1" /><path
     style="fill:#3366cc;stroke-width:0.28283843"
     inkscape:connector-curvature="0"
     id="path38"
     d="m 96.726569,25.304882 c -2.686965,0.848515 -5.260795,1.951585 -7.721489,3.309209 0.763664,0.282839 1.555611,0.593961 2.319275,0.905083 2.375843,-1.385908 4.893105,-2.573829 7.495218,-3.507196 -0.678812,-0.254555 -1.385908,-0.480825 -2.093004,-0.707096"
     class="st1" /><path
     style="fill:#e2173e;stroke-width:0.28283843"
     inkscape:connector-curvature="0"
     id="path40"
     d="m 105.43799,26.294816 c -2.12129,-1.018218 -4.29914,-1.866733 -6.561849,-2.573829 -0.791948,0.22627 -1.583895,0.480825 -2.347559,0.73538 2.319275,0.678812 4.581978,1.555611 6.759838,2.602113 0.67881,-0.254555 1.41419,-0.537393 2.14957,-0.763664"
     class="st0" /><path
     style="fill:#e2173e;stroke-width:0.28283843"
     inkscape:connector-curvature="0"
     id="path42"
     d="m 108.86034,25.248314 c -2.14957,-0.933367 -4.384,-1.725314 -6.67499,-2.347559 -0.73538,0.141419 -1.44248,0.311122 -2.14957,0.509109 2.26271,0.650529 4.46885,1.499044 6.59013,2.488978 0.73538,-0.22627 1.49905,-0.452541 2.23443,-0.650528"
     class="st0" /><path
     style="fill:#e2173e;stroke-width:0.28283843"
     inkscape:connector-curvature="0"
     id="path44"
     d="m 114.40397,27.115048 c -5.4305,1.810166 -10.49331,4.412279 -15.075288,7.693205 1.131358,0.707096 2.262708,1.442476 3.365778,2.234423 4.32743,-3.422345 9.13568,-6.307297 14.31162,-8.456869 -0.8768,-0.537393 -1.72531,-1.018218 -2.60211,-1.470759"
     class="st0" /><path
     style="fill:#e2173e;stroke-width:0.28283843"
     inkscape:connector-curvature="0"
     id="path46"
     d="m 110.6705,25.333166 c -5.62848,1.499043 -10.91756,3.90317 -15.697529,7.07096 1.074786,0.537393 2.121288,1.10307 3.16779,1.697031 4.666829,-3.224358 9.871059,-5.74162 15.414689,-7.410367 -0.96165,-0.480825 -1.9233,-0.933367 -2.88495,-1.357624"
     class="st0" /></g>
</svg>