<?xml version="1.0" encoding="UTF-8" standalone="no"?>
<svg
   xmlns:dc="http://purl.org/dc/elements/1.1/"
   xmlns:cc="http://creativecommons.org/ns#"
   xmlns:rdf="http://www.w3.org/1999/02/22-rdf-syntax-ns#"
   xmlns:svg="http://www.w3.org/2000/svg"
   xmlns="http://www.w3.org/2000/svg"
   xmlns:sodipodi="http://sodipodi.sourceforge.net/DTD/sodipodi-0.dtd"
   xmlns:inkscape="http://www.inkscape.org/namespaces/inkscape"
   width="32"
   height="32"
   viewBox="0 0 32 32"
   version="1.1"
   id="svg3135"
   inkscape:version="0.48.4 r9939"
   sodipodi:docname="angular-icon.svg">
  <metadata
     id="metadata3167">
    <rdf:RDF>
      <cc:Work
         rdf:about="">
        <dc:format>image/svg+xml</dc:format>
        <dc:type
           rdf:resource="http://purl.org/dc/dcmitype/StillImage" />
        <dc:title></dc:title>
      </cc:Work>
    </rdf:RDF>
  </metadata>
  <sodipodi:namedview
     pagecolor="#ffffff"
     bordercolor="#666666"
     borderopacity="1"
     objecttolerance="10"
     gridtolerance="10"
     guidetolerance="10"
     inkscape:pageopacity="0"
     inkscape:pageshadow="2"
     inkscape:window-width="1284"
     inkscape:window-height="843"
     id="namedview3165"
     showgrid="false"
     inkscape:zoom="9.5916667"
     inkscape:cx="60"
     inkscape:cy="30"
     inkscape:window-x="75"
     inkscape:window-y="34"
     inkscape:window-maximized="0"
     inkscape:current-layer="svg3135" />
  <defs
     id="defs3137" />
  <g
     style="fill:none;stroke:none"
     id="g3157"
     transform="matrix(0.23088023,0,0,0.23088023,1,0)">
    <path
       d="M 0,23 64.5,0 130.7,22.6 120,107.9 64.5,138.6 9.9,108.3 0,23 0,23 z"
       id="path3159"
       inkscape:connector-curvature="0"
       style="fill:#e23237" />
    <path
       d="M 130.7,22.6 64.5,0 l 0,138.6 55.5,-30.7 10.7,-85.3 0,0 z"
       id="path3161"
       inkscape:connector-curvature="0"
       style="fill:#b52e31" />
    <path
       d="m 64.6,16.2 0,0 -40.2,89.4 15,-0.3 8.1,-20.2 17.1,0 18.8,0 8.8,20.4 14.3,0.3 -41.9,-89.6 0,0 z m 0.1,28.7 13.6,28.4 -13,0 -0.7,0 -11.8,0 11.9,-28.4 0,0 z"
       id="path3163"
       inkscape:connector-curvature="0"
       style="fill:#ffffff" />
  </g>
</svg>
