<?xml version="1.0" encoding="UTF-8" standalone="no"?>
<!-- Generator: Adobe Illustrator 23.0.1, SVG Export Plug-In . SVG Version: 6.00 Build 0)  -->

<svg
   xmlns:dc="http://purl.org/dc/elements/1.1/"
   xmlns:cc="http://creativecommons.org/ns#"
   xmlns:rdf="http://www.w3.org/1999/02/22-rdf-syntax-ns#"
   xmlns:svg="http://www.w3.org/2000/svg"
   xmlns="http://www.w3.org/2000/svg"
   xmlns:sodipodi="http://sodipodi.sourceforge.net/DTD/sodipodi-0.dtd"
   xmlns:inkscape="http://www.inkscape.org/namespaces/inkscape"
   version="1.1"
   id="Layer_1"
   x="0px"
   y="0px"
   viewBox="0 0 120 59.999999"
   xml:space="preserve"
   sodipodi:docname="smartbear-ar2.svg"
   width="120"
   height="60"
   inkscape:version="0.92.3 (2405546, 2018-03-11)"><metadata
   id="metadata41"><rdf:RDF><cc:Work
       rdf:about=""><dc:format>image/svg+xml</dc:format><dc:type
         rdf:resource="http://purl.org/dc/dcmitype/StillImage" /><dc:title></dc:title></cc:Work></rdf:RDF></metadata><defs
   id="defs39" /><sodipodi:namedview
   pagecolor="#ffffff"
   bordercolor="#666666"
   borderopacity="1"
   objecttolerance="10"
   gridtolerance="10"
   guidetolerance="10"
   inkscape:pageopacity="0"
   inkscape:pageshadow="2"
   inkscape:window-width="1920"
   inkscape:window-height="1001"
   id="namedview37"
   showgrid="false"
   inkscape:zoom="4.1247387"
   inkscape:cx="93.061392"
   inkscape:cy="21.59226"
   inkscape:window-x="-9"
   inkscape:window-y="-9"
   inkscape:window-maximized="1"
   inkscape:current-layer="Layer_1" />
<style
   type="text/css"
   id="style2">
	.st0{fill:#FFFFFF;}
	.st1{fill:#2C282C;}
	.st2{fill:#173647;}
	.st3{fill:#50E4EA;}
	.st4{fill:#FCDC00;}
	.st5{fill:#85EA2D;}
	.st6{fill:#F4CF14;}
	.st7{fill:none;}
	.st8{fill:#04AADB;}
	.st9{fill:#07CED6;}
	.st10{fill:#63DB2A;}
	.st11{fill:#FF730B;}
	.st12{fill:#17D1FC;}
	.st13{fill:#00AADB;}
	.st14{fill:#758491;}
</style>

<g
   id="g907"><g
     transform="matrix(0.22308133,0,0,0.22308133,12.575858,21.579349)"
     id="g22">
	<path
   style="fill:#173647"
   inkscape:connector-curvature="0"
   id="path4"
   d="m 140.425,25.729 c 0,0 -7.011,-0.8 -9.914,-0.8 -4.207,0 -6.36,1.503 -6.36,4.457 0,3.205 1.803,3.955 7.661,5.558 7.211,2.002 9.814,3.906 9.814,9.764 0,7.511 -4.706,10.765 -11.466,10.765 -4.457,0 -11.216,-1.352 -11.216,-1.352 l 0.551,-4.457 c 0,0 6.759,0.902 10.315,0.902 4.255,0 6.208,-1.903 6.208,-5.509 0,-2.905 -1.552,-3.906 -6.81,-5.158 -7.411,-1.902 -10.615,-4.156 -10.615,-10.114 0,-6.911 4.557,-9.764 11.417,-9.764 4.356,0 10.866,1.201 10.866,1.201 z"
   class="st2" />
	<path
   style="fill:#173647"
   inkscape:connector-curvature="0"
   id="path6"
   d="m 155.271,20.31 h 9.353 l 7.661,26.789 7.661,-26.789 h 9.325 v 35 h -5 v -30 h -0.514 l -8.567,28 h -5.809 l -8.568,-28 h -0.541 v 30 h -5 v -35 z"
   class="st2" />
	<path
   style="fill:#173647"
   inkscape:connector-curvature="0"
   id="path8"
   d="m 275.271,20.31 h 26 v 5 h -10 v 30 h -6 v -30 h -10 z"
   class="st2" />
	<path
   style="fill:#173647"
   inkscape:connector-curvature="0"
   id="path10"
   d="m 324.97,20.31 c 6.81,0 10.465,2.709 10.465,9.069 0,4.156 -1.301,6.286 -4.056,7.789 2.954,1.151 4.907,3.487 4.907,8.194 0,7.011 -4.255,9.947 -10.916,9.947 h -13.1 v -35 h 12.7 z m -7.699,5 v 10 h 7.599 c 3.406,0 4.907,-1.794 4.907,-5.151 0,-3.304 -1.702,-4.849 -5.107,-4.849 z m 0,15 v 10 h 7.8 c 3.454,0 5.507,-1.019 5.507,-5.126 0,-3.906 -2.905,-4.874 -5.608,-4.874 z"
   class="st2" />
	<path
   style="fill:#173647"
   inkscape:connector-curvature="0"
   id="path12"
   d="m 350.271,20.31 h 21 v 5 h -16 v 10 h 13 v 5 h -13 v 10 h 16 v 5 h -21 z"
   class="st2" />
	<path
   style="fill:#173647"
   inkscape:connector-curvature="0"
   id="path14"
   d="m 391.629,20.31 h 11.066 l 8.512,35 h -5.608 l -2.533,-10 h -11.81 l -2.532,10 h -5.558 z m 0.739,20 h 9.622 l -3.55,-15 h -2.504 z"
   class="st2" />
	<path
   style="fill:#173647"
   inkscape:connector-curvature="0"
   id="path16"
   d="m 429.271,44.31 v 11 h -6 v -35 h 13.328 c 7.561,0 11.617,4.488 11.617,12.098 0,4.857 -1.953,9.511 -5.608,11.213 l 5.659,11.689 h -6.109 l -4.958,-11 z m 7.328,-19 h -7.328 v 15 h 7.429 c 4.206,0 5.808,-4.02 5.808,-7.574 -10e-4,-3.907 -1.903,-7.426 -5.909,-7.426 z"
   class="st2" />
	<path
   style="fill:#173647"
   inkscape:connector-curvature="0"
   id="path18"
   d="m 210.244,20.31 h 11.066 l 8.512,35 h -5.608 l -2.533,-10 h -11.81 l -2.532,10 h -5.558 z m 0.738,20 h 9.622 l -3.55,-15 h -2.504 z"
   class="st2" />
	<path
   style="fill:#173647"
   inkscape:connector-curvature="0"
   id="path20"
   d="m 247.271,44.31 v 11 h -5 v -35 h 12.943 c 7.561,0 11.617,4.488 11.617,12.098 0,4.857 -1.953,9.511 -5.608,11.213 l 5.659,11.689 h -6.109 l -4.958,-11 z m 7.943,-19 h -7.943 v 15 h 8.043 c 4.206,0 5.808,-4.02 5.808,-7.574 0,-3.907 -1.902,-7.426 -5.908,-7.426 z"
   class="st2" />
</g><path
     style="fill:#ff730b;stroke-width:0.26620173"
     inkscape:connector-curvature="0"
     id="path24"
     d="m 23.011318,33.228733 h -4.233937 l -0.750956,2.395816 h 5.735583 z m 11.353238,2.395816 -2.220922,-6.899681 1.434562,-4.447699 -5.334949,-3.885481 -3.757703,2.721382 h -7.182389 l -3.757704,-2.737619 -5.3349478,3.872968 1.434561,4.478313 -2.220921,6.897817 h 7.0069618 l -0.544383,-1.741225 7.008027,-5.123318 7.007227,5.139557 -0.544382,1.724986 z"
     class="st11" /></g>

</svg>