<svg xmlns="http://www.w3.org/2000/svg" width="64" height="64" viewBox="0 0 13.107 13.091" preserveAspectRatio="xMinYMin meet"><path d="M2.147 7.248c.13.102.85.088 1.363.068.14-.005.01-.03.017-.108s.243-.637.27-.673.374-.014.402-.014-.277.6-.243.7c.063.166.224.14.333.078.07-.04.347-.766.375-.773s.2-.012.22.01c.01.027-.376.757-.303.796a9.92 9.92 0 0 0 .93.006c.047-.03-.026-.437.284-.668.288-.215.93-.126.954-.12.05.014-.045.142-.095.163s-.4-.027-.514.038c-.228.13-.294.553-.175.583a14.53 14.53 0 0 0 1.22 0c.033-.042.224-.7.348-.757.137-.052.684-.085.728.012s-.05.398-.17.483c-.063.045-.506.005-.53.167-.01.08.042.086.156.1a19.52 19.52 0 0 0 1.152-.005c.097-.067.224-.67.362-.755.075-.046.826-.112.93.06.115.2-.215.608-.117.687.033.027.9.02.922.008.04-.042.218-.707.34-.756.1-.044.654-.085.72-.007.073.086-.044.43-.157.52-.062.05-.506 0-.53.17-.01.077.113.084.215.086l1.523-.001s-.012.142-.208.23h-2.844c-.155 0-.28-.16-.204-.335s.177-.413.134-.48-.385-.03-.4-.001c-.08.085-.23.816-.38.816l-7.15-.001c-.197.002-.523-.08-.42-.385l.162-.448c-.733.024-1.3.024-1.433-.025C.15 6.64.074 6.4.14 6.43c.058.033.184.105.268.115.122.014 1.25-.1 1.415-.1.1-.006.108-.113.108-.113C1.258 6.347.625 6.35.52 6.3.402 6.243.313 6.126.313 6.05c-.001-.064.102.112.28.12.298.013 1.206-.096 1.387-.1.094-.007.104-.1.104-.1C1.3 6 .77 6 .698 5.956c-.122-.058-.207-.193-.2-.28C.485 5.6.564 5.8.77 5.8c.24.013 1.6-.153 1.67-.157.2-.012.14.2.087.308-.102.233-.568 1.15-.38 1.3z" fill="#c1da94"/><path d="M2.13 7.267c.115.1.6.104 1.38.073.06-.002.08-.007.087-.032.003-.014-.001-.023-.01-.035l-.018-.02c-.014-.016-.02-.03-.018-.044.006-.064.235-.62.266-.66.005-.006.08-.012.182-.01l.12.003.082.003c-.01 0-.02-.007-.022-.017l-.03.077-.1.213-.018.044c-.084.2-.12.312-.103.357.06.16.215.176.368.1.036-.02.1-.13.2-.357l.018-.04.114-.264.04-.087.013-.023a.72.72 0 0 1 .104-.004l.065.003c-.008.04-.02.066-.03.092l-.1.238-.02.046c-.126.28-.168.4-.116.43a7.94 7.94 0 0 0 .955.005c.02-.013.025-.034.03-.096.018-.18.027-.23.067-.328s.1-.18.187-.245c.12-.1.32-.133.562-.138a2.45 2.45 0 0 1 .257.009l.114.014-.024.042c-.022.034-.055.067-.073.075-.01.004-.044.005-.148.002h-.114c-.123 0-.205.01-.254.038-.223.127-.333.586-.17.628.043.01.297.015.645.014l.6-.022c.014-.017.133-.356.145-.386l.085-.204c.044-.094.083-.15.108-.16.16-.06.666-.068.698-.001.042.1-.055.378-.16.453-.01.008-.047.014-.124.02l-.06.006-.065.007c-.178.02-.276.06-.3.15-.007.048.007.08.044.1.026.013.053.018.133.028.1.01 1.144.01 1.17-.01.047-.033.058-.06.178-.4.08-.22.133-.332.183-.363.035-.022.25-.048.44-.048.24-.001.416.034.456.1.036.058.025.15-.023.283l-.05.064-.02.05-.02.048-.03.088c-.018.066-.017.1.016.137a5.33 5.33 0 0 0 .955.006c.013-.014.028-.05.06-.14l.04-.117.046-.13.083-.2c.04-.1.077-.145.102-.155.127-.052.643-.07.7-.014.06.07-.045.398-.153.485-.01.01-.05.015-.133.022l-.056.005-.06.006c-.18.02-.276.06-.3.152-.007.05.026.082.083.098.04.01.084.014.156.016.033.001-.01.001.663 0h.86l-.024-.027a.15.15 0 0 1-.011.039.27.27 0 0 1-.065.093.41.41 0 0 1-.117.076l.01-.002h-2.844c-.147 0-.246-.15-.182-.3l.02-.046.02-.048.024-.06c.075-.188.103-.297.07-.35-.044-.067-.405-.052-.45-.004-.02.022-.042.07-.072.157l-.085.256c-.084.25-.15.384-.2.395h-7.16v.024L2 7.573l.002-.001.138-.05-.146.001a.61.61 0 0 1-.31-.073c-.096-.06-.13-.15-.087-.28l.117-.33.033-.087.026-.065-.037.001C.94 6.73.433 6.724.323 6.68.253 6.65.2 6.587.153 6.512a.2.2 0 0 1-.023-.071c.032.03.05.04.08.054l.07.033a.44.44 0 0 0 .115.035c.057.007.3-.01.717-.047l.082-.007.206-.018.183-.017.23-.02c.047-.003.082-.03.105-.068.014-.024.022-.048.025-.065l.005-.03-.03.001c-.765.03-1.3.024-1.402-.02-.105-.05-.192-.16-.192-.23-.02.01-.018.012-.013.015l.075.058a.36.36 0 0 0 .193.071c.122.005.347-.01.665-.038l.177-.017.548-.055c.05-.003.084-.03.105-.067a.17.17 0 0 0 .021-.065l.003-.028H2.07c-.717.034-1.3.026-1.37-.008C.604 5.86.517 5.736.513 5.65a.19.19 0 0 0 .015.048c.013.014.028.027.042.04a.35.35 0 0 0 .2.085c.1.005.388-.018.822-.064l.136-.014.714-.08c.077-.005.1.023.112.082.003.05-.016.118-.05.2a29.73 29.73 0 0 0-.203.446l-.078.188c-.148.374-.194.614-.093.694zm.03-.038c-.074-.06-.03-.3.108-.638l.077-.187.203-.446a.5.5 0 0 0 .053-.213c-.004-.086-.06-.135-.164-.13-.017.001-.538.06-.717.08l-.136.014-.815.064a.3.3 0 0 1-.18-.074c-.013-.01-.026-.023-.04-.036l-.027-.03c-.013-.014-.02-.018-.03-.02C.465 5.6.46 5.627.46 5.65c.005.105.104.243.225.3.082.04.65.046 1.398.016l-.025-.027a.16.16 0 0 1-.015.046.08.08 0 0 1-.066.043l-.55.055-.176.017-.66.038a.32.32 0 0 1-.167-.062l-.07-.057C.34 6 .33 6.005.318 6.006c-.02.002-.03.018-.03.04.001.092.1.215.22.273.102.05.642.054 1.425.024l-.025-.03c-.007.026-.012.038-.02.048-.016.027-.037.043-.067.045l-.233.02-.183.017-.288.026-.707.047a.39.39 0 0 1-.101-.031l-.067-.03-.1-.05c-.035-.02-.06.003-.06.04.001.024.01.057.028.092.042.085.1.158.195.2.12.046.623.053 1.442.026l-.023-.034-.012.03-.033.088-.117.33c-.05.15-.008.265.107.337a.64.64 0 0 0 .336.08V7.56l-.008-.023h-.002l-.134.048 7.294.001c.094-.018.158-.15.252-.428l.085-.255c.028-.08.048-.125.06-.14a.73.73 0 0 1 .184-.025c.1-.004.178.006.2.023.02.03-.006.138-.073.304l-.024.058-.02.048-.02.046c-.078.184.045.37.227.37h2.85l.005-.002a.45.45 0 0 0 .13-.085.27.27 0 0 0 .091-.164l.002-.026h-1.55a.6.6 0 0 1-.144-.014c-.037-.01-.05-.023-.048-.044.008-.06.1-.093.246-.1l.058-.006.056-.005c.1-.008.137-.014.16-.033.127-.102.24-.46.16-.555-.066-.08-.602-.06-.747 0-.04.017-.08.077-.128.18l-.085.212-.047.132a36.87 36.87 0 0 1-.04.117l-.048.12c-.004-.004-.013-.004-.026-.003l-.102.004-.308.003-.453-.013c-.025-.02-.01-.07.07-.266l.035-.1c.053-.147.065-.25.02-.325-.053-.088-.238-.125-.498-.124-.202.001-.42.027-.467.056-.065.04-.118.152-.204.388-.108.3-.127.345-.16.368a26.18 26.18 0 0 1-1.135 0 .38.38 0 0 1-.117-.023c-.017-.01-.022-.02-.018-.05.008-.057.1-.1.246-.108l.064-.007.06-.005c.1-.008.126-.014.148-.03.124-.1.23-.4.177-.514-.047-.102-.578-.093-.76-.024-.043.016-.085.08-.135.185l-.086.208-.137.372C7.16 7.3 7.147 7.3 7.13 7.3L7 7.305l-.398.005c-.337.002-.597-.003-.633-.012s-.053-.106-.024-.225c.033-.136.108-.258.206-.313.04-.022.116-.032.23-.032l.113.002a.48.48 0 0 0 .168-.006.26.26 0 0 0 .095-.093c.014-.022.024-.042.027-.06.005-.026-.005-.05-.03-.057-.038-.01-.228-.028-.385-.025-.252.005-.46.05-.6.147a.61.61 0 0 0-.203.266c-.024.06-.04.122-.052.2l-.01.083-.007.068-.01.06c-.012.008-.884.005-.905-.007a.78.78 0 0 1 .029-.106 3.38 3.38 0 0 1 .108-.26l.02-.046.1-.238c.045-.1.053-.118.046-.135-.015-.035-.192-.037-.247-.023-.02.005-.03.027-.08.137l-.132.304-.17.334c-.13.073-.25.06-.298-.065-.01-.026.028-.143.102-.32l.018-.043.092-.213.027-.07.006-.023c-.003-.025-.012-.035-.026-.035-.004 0-.065-.003-.08-.003H4c-.13-.001-.2.004-.22.03-.037.046-.27.612-.276.686-.003.03.008.055.03.08l.017.02c.002-.012.005-.016.01-.02a.27.27 0 0 1-.049.005c-.752.03-1.247.016-1.347-.063z" fill="#cbcbcb"/><path d="M7.758 6.6c-.043 0-.164.2-.132.23.026.026.087.02.17-.002.05-.013.147-.18.116-.218-.015-.018-.042-.02-.088-.018l-.033.003-.023.002zm0 .05l.07-.007c.027-.002.048 0 .048.001l-.035.065a.23.23 0 0 1-.056.073c-.056.014-.118.02-.124.015.02-.026.033-.048.047-.07l.04-.06a.17.17 0 0 1 .015-.017zm3.78-.05c-.042 0-.155.183-.137.224.013.03.047.03.106.02l.034-.007.036-.01c.05-.013.148-.18.116-.218-.015-.018-.042-.02-.088-.018l-.033.003-.023.002zm0 .05l.07-.007a.29.29 0 0 1 .048.001l-.035.065a.23.23 0 0 1-.056.073l-.035.008-.03.006c-.02.003-.034.005-.045.004a.27.27 0 0 1 .036-.078l.04-.057c.006-.007.01-.013.015-.016zm-9.5.526c.115.1.6.104 1.38.073.06-.002.08-.007.087-.032.003-.014-.001-.023-.01-.035l-.018-.02c-.014-.016-.02-.03-.018-.044.006-.064.235-.62.266-.66.005-.006.08-.012.182-.01l.12.003.082.003c-.01 0-.02-.007-.022-.017l-.03.077-.092.213-.018.044c-.084.2-.12.312-.103.357.06.16.215.176.368.1.036-.02.1-.13.2-.357l.017-.04.114-.264.04-.087.013-.023a.8.8 0 0 1 .104-.004l.065.003c-.008.04-.02.066-.03.092l-.1.238-.02.046c-.126.28-.168.4-.116.43a8.02 8.02 0 0 0 .955.005c.02-.013.025-.034.03-.096a.97.97 0 0 1 .067-.328c.04-.098.1-.18.187-.245.12-.1.32-.133.562-.138a2.45 2.45 0 0 1 .257.009l.114.014-.024.042c-.022.034-.055.067-.073.075-.01.004-.044.005-.148.002L6.3 6.6c-.122 0-.205.01-.254.038-.223.127-.333.586-.17.628.043.01.297.015.645.014l.6-.022c.014-.017.133-.356.145-.386l.085-.204c.044-.094.083-.15.108-.16.16-.06.666-.068.698-.001.042.1-.055.378-.16.453-.01.008-.047.014-.124.02l-.06.006-.065.007c-.178.02-.276.06-.3.15-.007.048.007.08.044.1.026.013.053.018.133.028a15.71 15.71 0 0 0 1.169-.009c.047-.033.058-.06.178-.4.08-.22.133-.332.183-.363.035-.022.25-.048.44-.048.24-.001.416.034.456.1.036.058.025.15-.023.283l-.034.088-.02.05-.02.048-.03.088c-.018.066-.017.1.016.137a5.45 5.45 0 0 0 .955.006c.013-.014.028-.05.06-.14l.04-.117.046-.13.083-.208c.04-.1.078-.145.102-.155.127-.052.643-.07.7-.014.06.07-.045.398-.153.485-.01.01-.05.015-.133.022L11.584 7l-.06.006c-.18.02-.276.06-.3.152-.007.05.026.082.083.098.04.01.084.014.156.016.033.001-.02.001.66 0h.864l-.024-.026c-.001.007-.004.02-.01.04a.27.27 0 0 1-.065.093.41.41 0 0 1-.117.076l.01-.002H9.92c-.147 0-.246-.15-.182-.3l.02-.046.02-.048.024-.06c.075-.188.103-.297.07-.35-.044-.067-.404-.052-.45-.004-.02.022-.042.07-.072.157l-.085.256c-.084.25-.15.384-.2.395H1.92v.024l.008.023h.002l.15-.05h-.16a.61.61 0 0 1-.31-.073c-.096-.06-.13-.15-.086-.28l.117-.33.033-.087.026-.065-.037.001C.857 6.636.35 6.63.24 6.587.17 6.56.108 6.495.072 6.42.058 6.392.05 6.365.05 6.35c.032.03.05.04.08.054l.07.033a.44.44 0 0 0 .115.035c.057.007.3-.01.717-.047L1.32 6.4l.183-.017.23-.02c.047-.003.082-.03.105-.068.014-.024.022-.048.025-.065l.005-.03h-.03c-.765.03-1.3.025-1.402-.02s-.192-.16-.192-.23c-.02.01-.018.012-.013.015l.075.058a.36.36 0 0 0 .193.071c.122.005.347-.01.665-.038l.176-.017.548-.055c.05-.003.084-.03.106-.067a.17.17 0 0 0 .021-.065l.003-.028L2 5.827c-.732.03-1.304.022-1.375-.012-.105-.05-.193-.172-.197-.258-.004.008-.013.014-.024.013a.19.19 0 0 0 .028.035c.013.014.028.027.042.04a.35.35 0 0 0 .2.085c.1.005.388-.018.822-.064l.136-.014.714-.08c.077-.005.1.023.112.082a.46.46 0 0 1-.049.191 29.34 29.34 0 0 0-.203.446l-.078.188c-.148.375-.194.614-.093.694zm.03-.038c-.074-.058-.03-.3.108-.638l.077-.187.203-.446a.5.5 0 0 0 .053-.213c-.004-.086-.06-.135-.164-.13-.017.001-.538.06-.717.08l-.136.014-.815.064a.3.3 0 0 1-.18-.074c-.013-.01-.026-.023-.04-.036L.43 5.54C.417 5.526.4 5.522.4 5.52c-.027-.003-.033.014-.032.038.005.105.104.243.225.3.082.04.65.046 1.398.016l-.025-.027a.16.16 0 0 1-.015.046.08.08 0 0 1-.066.043l-.726.07-.66.038a.32.32 0 0 1-.167-.062L.26 5.927c-.014-.01-.023-.015-.035-.014-.02.002-.03.018-.03.038.001.092.1.215.22.273.102.05.643.054 1.425.024l-.025-.03c-.007.026-.012.038-.02.048-.016.027-.037.043-.067.045l-.233.02-.183.017-.288.026-.707.047c-.027-.003-.06-.014-.1-.03L.15 6.36.06 6.3c-.035-.02-.06.003-.06.04.001.024.01.057.028.092.042.085.1.158.195.2.12.046.623.053 1.442.026l-.023-.034-.012.03-.033.088-.117.33c-.05.15-.008.265.107.337a.64.64 0 0 0 .336.08v-.024l-.008-.023-.002.001-.146.048 7.306.001c.094-.017.158-.15.252-.428L9.4 6.8c.028-.08.048-.125.06-.14.006-.007.097-.022.184-.025.1-.004.178.006.2.023.02.03-.006.138-.073.304l-.024.058-.02.048-.02.046c-.078.185.045.37.227.37h2.85l.005-.002a.46.46 0 0 0 .131-.085c.063-.06.088-.12.1-.164l.002-.027h-.027l-1.522.001a.6.6 0 0 1-.144-.014c-.037-.01-.05-.023-.048-.044.008-.06.1-.093.246-.1l.058-.006h.03l.028-.002c.1-.008.137-.014.16-.033.127-.102.24-.46.16-.555-.066-.08-.602-.06-.747 0-.04.017-.08.077-.128.18l-.085.212-.047.132a33.76 33.76 0 0 1-.04.117l-.048.12c-.004-.004-.013-.004-.026-.003l-.102.004-.308.003L9.97 7.2c-.025-.02-.01-.07.07-.266l.035-.1c.053-.147.065-.25.02-.325-.053-.088-.238-.125-.498-.124-.202.001-.42.027-.467.056-.065.04-.118.152-.204.388-.108.3-.127.345-.16.368-.01.007-1.062.01-1.135.001s-.098-.014-.117-.023-.022-.02-.018-.05c.008-.057.1-.1.246-.1l.064-.007.06-.005c.1-.008.126-.014.148-.03a.6.6 0 0 0 .177-.514c-.047-.102-.578-.093-.76-.024-.043.016-.085.08-.135.185l-.086.208-.137.372c-.005-.006-.018-.006-.033-.005L6.9 7.2l-.398.005c-.337.002-.597-.003-.633-.012s-.053-.106-.024-.225c.033-.136.108-.258.206-.313.04-.022.116-.032.23-.032l.113.002c.122.003.147.003.168-.006.03-.013.068-.052.095-.093.014-.022.024-.042.027-.06.005-.026-.005-.05-.03-.057a2.2 2.2 0 0 0-.385-.025c-.252.005-.46.05-.6.147a.61.61 0 0 0-.203.266c-.024.06-.04.122-.052.2l-.01.083-.007.068-.01.06a13.78 13.78 0 0 1-.905-.007.79.79 0 0 1 .029-.106 3.38 3.38 0 0 1 .108-.26l.02-.046.1-.238c.045-.1.053-.118.046-.135-.015-.035-.193-.037-.247-.023-.02.005-.03.027-.08.137l-.132.304-.17.334c-.13.073-.25.06-.298-.065-.01-.026.028-.143.102-.32l.018-.043.092-.213.027-.07c.003-.007.005-.015.006-.023C4.1 6.4 4.1 6.4 4.077 6.4c-.004 0-.065-.003-.08-.003l-.12-.003c-.13-.001-.2.004-.22.03-.037.046-.27.612-.276.686-.003.03.008.055.03.08h.017c.002-.012.005-.016.01-.02-.013.003-.027.004-.05.005-.752.03-1.247.016-1.347-.063z"/></svg>