<svg xmlns="http://www.w3.org/2000/svg" width="120" height="60" viewBox="0 0 24.576 12.273" preserveAspectRatio="xMinYMin meet"><path d="M4.837 7.318c.218.173 1.438.15 2.305.115.235-.01.016-.052.028-.183s.4-1.078.458-1.137.632-.024.68-.024-.468 1.013-.4 1.164c.107.28.38.234.563.13.12-.067.587-1.295.634-1.307s.355-.02.37.015c.02.045-.635 1.28-.513 1.346a16.77 16.77 0 0 0 1.573.01c.08-.05-.044-.738.48-1.13.487-.364 1.573-.212 1.612-.2.083.024-.077.24-.16.276s-.677-.046-.87.064c-.385.22-.496.934-.296.985.148.038 2.046.02 2.062 0 .057-.07.378-1.2.6-1.28.232-.087 1.156-.143 1.232.02S15.1 6.855 14.9 7c-.107.076-.855.01-.894.282-.02.133.07.145.264.17a33.01 33.01 0 0 0 1.95-.008c.164-.114.38-1.132.613-1.276.126-.078 1.397-.2 1.574.102.194.32-.364 1.028-.198 1.16.056.045 1.537.036 1.56.013.068-.072.368-1.195.574-1.278.185-.075 1.106-.143 1.216-.012.123.146-.075.726-.265.88-.105.084-.855 0-.894.286-.018.13.2.142.364.145l2.575-.001s-.02.24-.352.387h-4.8c-.263 0-.472-.268-.346-.567s.3-.698.227-.8-.65-.05-.695-.001c-.134.143-.4 1.38-.642 1.38L4.64 7.86c-.334.003-.884-.133-.7-.65l.274-.757c-1.24.04-2.213.04-2.423-.042-.295-.114-.422-.534-.3-.47.098.055.3.178.453.194.206.024 2.115-.167 2.392-.185.15-.01.182-.2.182-.2-1.14.044-2.2.05-2.4-.037-.198-.095-.348-.293-.35-.425-.001-.108.173.2.474.202.504.022 2.04-.163 2.346-.185.16-.01.176-.186.176-.186-1.307.052-2.22.034-2.344-.024-.207-.097-.35-.326-.357-.472-.005-.1.128.23.477.247.405.022 2.704-.26 2.824-.266.338-.02.234.322.147.52-.173.393-.96 1.946-.644 2.197z" fill="#c1da94"/><path d="M4.8 7.35c.194.154 1.016.175 2.333.124.103-.004.137-.01.147-.053.006-.023-.002-.04-.02-.06l-.03-.033c-.023-.027-.033-.05-.03-.074.01-.108.397-1.05.45-1.115.008-.01.138-.02.307-.02l.202.005.138.005c-.018 0-.033-.012-.038-.03l-.052.13-.155.36-.03.074c-.142.34-.203.527-.174.603.103.27.364.298.622.152.06-.034.155-.22.323-.604l.03-.068.194-.447.068-.147.02-.04c.01-.003.098-.008.176-.007l.1.006a.22.22 0 0 1 .032.006c-.01-.02-.01-.024-.01-.028a.44.44 0 0 1-.016.045l-.06.132-.186.402-.035.078c-.213.47-.284.677-.196.726.062.034 1.568.04 1.615.008.033-.022.042-.058.052-.163.03-.304.045-.388.113-.554s.17-.305.317-.415c.205-.153.54-.225.95-.233l.434.015.192.023-.04.07c-.037.058-.093.114-.124.127-.018.008-.074.008-.25.004l-.194-.003c-.207.001-.347.018-.43.065-.376.215-.562 1-.286 1.06.072.018.502.026 1.1.023l1.014-.037c.023-.03.226-.602.245-.652l.144-.346c.075-.158.14-.254.183-.27.268-.1 1.127-.115 1.18-.001.07.152-.093.64-.272.766-.018.013-.08.023-.2.035h-.103l-.1.01c-.302.036-.467.102-.5.254-.012.08.012.136.075.168.044.023.1.03.226.048.15.02 1.935.015 1.977-.015.08-.055.1-.103.3-.66.135-.374.225-.56.3-.614.06-.037.42-.08.746-.08.407-.001.703.058.77.17.06.1.043.252-.04.478l-.058.15-.034.084-.033.08-.052.15c-.03.1-.028.186.027.23.065.052 1.572.054 1.615.01.022-.023.047-.086.1-.235l.068-.198.078-.222.14-.353c.07-.153.13-.245.172-.262.216-.087 1.088-.12 1.17-.024.1.12-.076.673-.26.82-.018.015-.083.025-.224.037l-.095.008-.1.01c-.302.034-.467.1-.5.258-.01.085.043.14.14.166a1.08 1.08 0 0 0 .264.026c.055.001-.02.001 1.12 0l1.454-.001-.04-.045c-.001.012-.006.035-.02.066a.62.62 0 0 1-.1.158c-.043.05-.117.093-.198.13l.017-.004h-4.8c-.25 0-.416-.252-.307-.5l.033-.078.034-.08.04-.1c.128-.318.174-.502.116-.6-.074-.113-.684-.088-.76-.007-.034.037-.07.12-.122.266l-.143.432c-.142.423-.252.65-.34.667H4.613v.04l.014.04.003-.001.233-.083-.247.002c-.2.002-.4-.04-.523-.124-.163-.102-.22-.255-.146-.473l.198-.558.056-.147.044-.1-.063.002c-1.363.044-2.22.033-2.406-.04a.57.57 0 0 1-.285-.282c-.024-.05-.038-.094-.04-.12-.014.007-.022.006-.02.006l.156.085.118.056a.72.72 0 0 0 .194.058c.096.01.508-.018 1.212-.08l.5-.043.3-.028.4-.033a.22.22 0 0 0 .178-.116.39.39 0 0 0 .042-.1l.01-.05-.05.002c-1.293.05-2.217.04-2.37-.033-.178-.086-.324-.27-.325-.388 0 .003-.006.016-.027.018a1.51 1.51 0 0 0 .132.106.61.61 0 0 0 .326.12c.207.01.588-.015 1.125-.064l.3-.03.927-.092c.082-.006.142-.048.178-.114.023-.04.033-.08.036-.1l.005-.047-.047.002c-1.237.05-2.205.037-2.325-.02-.178-.084-.326-.3-.333-.436-.006.014-.023.024-.04.02.003.01.035.045.048.06.023.024.047.046.072.067.102.084.217.136.353.144.17.01.656-.03 1.4-.108l.23-.025 1.208-.133c.13-.008.184.04.2.14.004.085-.028.2-.082.323 0-.001-.25.537-.343.754l-.132.318c-.25.633-.327 1.04-.157 1.174zm.05-.065c-.125-.1-.05-.5.182-1.08l.13-.316.343-.753c.06-.136.094-.26.1-.36-.007-.146-.1-.228-.277-.217l-1.212.134-.23.024-1.377.108a.5.5 0 0 1-.305-.125l-.065-.06-.046-.05c-.022-.023-.032-.03-.05-.034C2 4.55 2 4.58 2 4.62c.008.177.175.4.38.507.14.065 1.1.078 2.363.028l-.04-.055a.18.18 0 0 1-.005.023.22.22 0 0 1-.021.054c-.024.043-.06.068-.112.072l-.93.092-.298.028-1.114.064a.53.53 0 0 1-.282-.105l-.126-.097c-.024-.017-.04-.025-.06-.024-.036.003-.05.03-.05.065.001.155.168.364.372.462.173.084 1.086.092 2.4.04l-.042-.048a.21.21 0 0 1-.006.025.27.27 0 0 1-.025.057c-.027.045-.063.072-.112.075l-.393.034-.3.028L3.102 6l-1.196.08a.66.66 0 0 1-.172-.052l-.112-.053-.153-.084c-.058-.033-.104.005-.102.068a.41.41 0 0 0 .047.155.65.65 0 0 0 .33.323c.202.078 1.054.1 2.44.044l-.04-.057-.02.05-.056.148-.2.56c-.086.255-.014.448.18.57.148.093.363.138.568.136v-.04l-.014-.04-.003.001-.226.08 12.334.001c.008 0 .016-.001.025-.003.134-.027.243-.253.4-.722l.143-.43c.047-.133.08-.212.104-.236.01-.012.164-.037.3-.043.17-.007.302.01.32.038.035.053-.01.233-.124.514l-.04.098-.034.08-.033.078c-.132.312.076.625.384.625h4.818l.008-.004a.64.64 0 0 0 .22-.145c.107-.102.15-.205.155-.277l.004-.045h-2.62c-.115-.002-.187-.008-.243-.023-.062-.017-.085-.04-.08-.075.014-.1.152-.157.416-.186l.1-.01.095-.008c.168-.014.23-.025.27-.055.215-.173.407-.777.27-.938-.112-.133-1.017-.1-1.263 0-.07.028-.137.13-.216.304l-.144.36-.08.223c.004-.013-.054.157-.068.197l-.08.205c-.006-.007-.022-.006-.043-.005l-.173.006-.52.005-.766-.023c-.042-.034-.018-.117.117-.45l.06-.152c.1-.25.1-.422.032-.55-.1-.148-.403-.2-.842-.2-.342.001-.712.046-.8.094-.1.068-.2.257-.344.656-.183.506-.215.583-.27.622-.018.012-1.795.016-1.92.001s-.167-.023-.198-.04-.037-.034-.03-.083c.014-.096.154-.152.417-.183h.2c.152-.014.213-.024.25-.05.2-.15.388-.68.3-.87-.08-.172-.977-.157-1.284-.04-.072.027-.144.133-.23.312l-.146.352-.232.63c-.01-.01-.03-.01-.057-.008l-.22.006-.673.008c-.57.003-1-.005-1.07-.02s-.1-.18-.04-.38c.055-.23.183-.436.348-.53.066-.038.197-.054.4-.054l.2.003c.207.005.25.005.284-.01.05-.02.115-.088.16-.158a.27.27 0 0 0 .045-.1c.008-.045-.008-.083-.05-.096-.064-.018-.385-.047-.65-.042-.425.008-.776.083-.998.25a1.04 1.04 0 0 0-.344.449 1.48 1.48 0 0 0-.089.322l-.02.14-.012.115-.015.102a23.03 23.03 0 0 1-1.53-.01c.006-.003.006-.015.01-.032a.89.89 0 0 1 .041-.147l.182-.44.035-.078.186-.402c.077-.167.1-.2.078-.227-.025-.06-.325-.062-.418-.04-.033.008-.052.046-.134.232l-.223.515c-.15.34-.253.546-.288.565-.22.124-.423.103-.504-.1-.017-.045.047-.24.173-.542l.03-.073.155-.36.046-.118c.005-.016.01-.03.01-.04s.001-.016 0-.024c-.004-.02-.02-.035-.043-.035-.007 0-.1-.004-.135-.005l-.204-.005c-.222-.002-.338.007-.372.05a8.05 8.05 0 0 0-.467 1.16c-.005.05.014.093.05.135l.03.033c.004-.02.008-.027.015-.03-.022.005-.046.007-.083.01-1.27.05-2.1.028-2.278-.106z" fill="#cbcbcb"/><path d="M14.324 6.22c-.072 0-.277.336-.223.4.044.044.147.032.288-.003.085-.02.25-.306.196-.368-.026-.03-.07-.034-.15-.03l-.055.005-.038.004zm0 .083c.006 0 .014-.001.028-.002l.038-.004.052-.004c.046-.003.08.001.08.001-.008 0-.01.01-.014.018a.61.61 0 0 1-.044.092c-.038.066-.083.12-.095.124-.094.024-.2.036-.2.025.01.01.01.015.01.018.002-.007.006-.02.012-.033.013-.028.033-.066.056-.104a1.16 1.16 0 0 1 .068-.1c.01-.013.02-.023.026-.03zm6.392-.083a.56.56 0 0 0-.23.378c.022.05.08.052.178.035l.057-.01.062-.015c.085-.02.25-.306.196-.368-.026-.03-.07-.034-.15-.03l-.055.005-.038.004zm0 .083c.006 0 .014-.001.028-.002l.038-.004.052-.004c.046-.003.08.001.08.001-.008 0-.01.01-.014.018a.61.61 0 0 1-.044.092c-.038.066-.083.12-.095.124l-.06.014-.053.01a.41.41 0 0 1-.077.007c-.005-.006-.001-.018.005-.03a.84.84 0 0 1 .056-.103.99.99 0 0 1 .066-.096c.01-.012.018-.02.025-.027zm-16.064.9c.194.154 1.015.175 2.333.124.103-.004.137-.01.148-.053.006-.023-.002-.04-.02-.06l-.03-.033c-.023-.027-.033-.05-.03-.074.01-.108.397-1.05.45-1.115.008-.01.138-.02.307-.02l.2.005.138.005c-.018 0-.033-.012-.037-.03l-.052.13-.155.36-.03.074c-.142.34-.203.527-.174.603.103.27.363.298.622.152.06-.034.155-.22.323-.604l.03-.068.194-.447.068-.147.02-.04c.01-.003.097-.008.176-.007l.1.006.032.006c-.01-.02-.01-.024-.01-.028a.44.44 0 0 1-.016.045l-.06.133-.186.402-.035.078c-.213.47-.284.678-.196.726.062.034 1.568.04 1.615.008.033-.022.042-.058.052-.163.03-.304.045-.388.113-.554a.96.96 0 0 1 .317-.415c.205-.153.54-.225.95-.233l.434.015.192.023-.04.07c-.037.058-.093.114-.124.127-.018.008-.074.008-.25.003l-.194-.003c-.207.001-.347.018-.43.065-.376.215-.562 1-.286 1.06.072.018.502.026 1.1.023l1.014-.037c.023-.03.226-.602.245-.652l.143-.345c.075-.158.14-.254.183-.27.268-.1 1.127-.116 1.18-.001.07.152-.093.64-.273.766-.018.013-.08.023-.2.035l-.103.01-.1.01c-.302.036-.467.102-.5.254-.012.08.012.136.075.168.044.023.1.03.226.048.15.018 1.935.015 1.977-.015.08-.055.1-.103.3-.66.135-.374.225-.56.3-.614.06-.037.42-.08.746-.08.407-.001.703.058.77.17.06.1.043.252-.04.478l-.058.15-.034.084-.033.08-.052.15c-.03.1-.028.187.027.23.065.052 1.572.054 1.615.01.022-.023.047-.085.1-.235l.068-.198.078-.222.14-.352c.07-.153.13-.245.172-.262.216-.087 1.088-.12 1.17-.024.1.12-.076.673-.26.82-.018.015-.083.025-.224.037l-.095.008-.1.01c-.302.034-.467.1-.5.258-.01.085.043.14.14.166.065.018.142.024.264.026.055.001-.032.001 1.114 0l1.46-.001-.04-.045c-.001.012-.006.035-.02.066a.62.62 0 0 1-.1.158.69.69 0 0 1-.198.129l.017-.004h-4.8c-.25 0-.416-.252-.308-.5l.033-.077.034-.08.04-.1c.128-.318.174-.502.116-.6-.074-.114-.684-.088-.76-.007-.034.037-.07.12-.122.266L16.895 7c-.142.423-.252.65-.34.667H4.453v.04l.013.04h.003l.256-.083-.27.003a1.02 1.02 0 0 1-.523-.124c-.163-.102-.22-.255-.146-.473l.198-.558.056-.147.044-.1-.063.002c-1.364.044-2.22.033-2.406-.04a.57.57 0 0 1-.285-.282.34.34 0 0 1-.039-.121c-.014.007-.022.006-.02.006l.156.085.118.056a.81.81 0 0 0 .195.06c.096.01.508-.018 1.212-.08l.487-.043.3-.028.4-.033a.22.22 0 0 0 .178-.116.39.39 0 0 0 .042-.1l.01-.05-.05.002c-1.293.05-2.217.042-2.37-.033-.178-.086-.324-.27-.325-.388 0 .003-.006.016-.027.018a1.5 1.5 0 0 0 .132.106.61.61 0 0 0 .326.12c.207.01.588-.015 1.125-.064l.298-.03.927-.092c.082-.006.142-.048.178-.114.023-.04.033-.08.036-.1l.005-.047h-.047c-1.237.05-2.205.037-2.325-.02-.178-.084-.326-.3-.333-.436-.006.014-.023.024-.04.02a.32.32 0 0 0 .048.059c.023.024.047.046.072.067.102.084.217.136.353.144.17.01.656-.03 1.4-.108l.23-.025L5.18 4.5c.13-.008.184.04.2.14.004.085-.028.2-.082.323 0-.001-.25.537-.343.754l-.132.318c-.25.633-.327 1.04-.157 1.174zm.05-.065c-.125-.1-.05-.5.182-1.08l.13-.316.343-.753a1.07 1.07 0 0 0 .1-.36c-.007-.146-.1-.228-.277-.218l-1.212.134-.23.024-1.377.108a.5.5 0 0 1-.305-.125l-.065-.06-.046-.05c-.022-.023-.032-.03-.05-.034-.046-.006-.055.024-.053.065.008.177.175.4.38.507.14.065 1.1.078 2.363.028l-.043-.045c0 .004-.002.012-.005.023a.22.22 0 0 1-.021.054c-.024.043-.06.068-.112.072l-1.227.12-1.114.064a.53.53 0 0 1-.282-.105l-.126-.097c-.024-.017-.04-.025-.06-.024-.036.003-.05.03-.05.065.001.155.168.364.372.462.173.084 1.086.092 2.4.04l-.042-.048-.006.025a.27.27 0 0 1-.025.057c-.027.045-.063.072-.113.075l-.393.034-.3.028-.487.043-1.196.08c-.045-.005-.104-.023-.172-.052l-.113-.053-.153-.084c-.06-.033-.104.005-.102.068a.41.41 0 0 0 .047.155.65.65 0 0 0 .33.323c.202.078 1.054.1 2.44.044l-.04-.057-.02.05-.056.148-.2.56c-.086.255-.014.448.18.57.148.093.363.138.568.136V7.7l-.013-.04h-.01l-.248.08h12.354c.008 0 .016-.001.024-.002.134-.027.243-.252.4-.722l.143-.43c.047-.134.08-.212.104-.236.01-.012.164-.037.3-.043.17-.007.302.01.32.038.035.053-.01.233-.124.514l-.04.098-.034.08-.033.077c-.132.312.076.625.384.625h4.818l.008-.004c.1-.04.163-.1.22-.144.107-.102.15-.205.155-.277l.004-.045h-2.62c-.115-.002-.187-.008-.243-.023-.062-.017-.085-.04-.08-.075.014-.1.152-.157.416-.186l.1-.01.048-.004.047-.004c.168-.014.23-.024.27-.055.215-.173.407-.777.27-.938-.112-.133-1.017-.1-1.263 0-.07.028-.137.13-.216.304l-.143.358-.08.223c.005-.013-.054.157-.068.197l-.08.205c-.006-.007-.022-.006-.043-.005l-.173.006-.52.005-.766-.023c-.042-.034-.018-.117.117-.45l.06-.152c.1-.25.1-.422.032-.55-.1-.148-.403-.2-.842-.2-.342.001-.712.046-.8.094-.1.068-.2.257-.344.656-.183.506-.215.583-.27.622-.018.012-1.795.016-1.92.001s-.167-.023-.198-.04-.037-.034-.03-.083c.014-.096.154-.152.416-.184l.108-.01.103-.01c.152-.014.213-.024.25-.05.2-.15.388-.68.3-.87-.08-.172-.977-.157-1.284-.04-.072.027-.144.133-.23.312l-.146.35-.232.63c-.01-.01-.03-.01-.057-.008l-.22.006-.673.008c-.57.003-1-.005-1.07-.02s-.1-.18-.04-.38c.055-.23.183-.436.348-.53.066-.038.197-.054.4-.054l.2.003c.207.005.25.005.284-.01.05-.02.115-.088.16-.158a.27.27 0 0 0 .045-.1c.008-.045-.008-.083-.05-.096-.065-.018-.385-.047-.65-.042-.425.008-.776.083-.998.25a1.04 1.04 0 0 0-.344.449 1.48 1.48 0 0 0-.088.322l-.02.14-.012.115-.015.102a23.03 23.03 0 0 1-1.53-.01c.006-.003.006-.015.01-.032a.89.89 0 0 1 .041-.147l.182-.44.035-.078.186-.402c.077-.167.1-.2.078-.227-.025-.06-.326-.062-.418-.04-.033.008-.052.046-.134.232l-.223.515c-.15.34-.253.546-.288.565-.22.124-.423.103-.504-.1-.017-.045.047-.24.173-.542l.03-.073.155-.36L8.17 6a.24.24 0 0 0 .01-.039c.001-.008.001-.016 0-.024-.004-.02-.02-.035-.043-.035-.007 0-.1-.004-.135-.005L7.8 5.88c-.222-.002-.338.007-.372.05a8.05 8.05 0 0 0-.467 1.16c-.005.05.014.093.05.135l.03.033c.004-.02.01-.027.015-.03a.45.45 0 0 1-.083.009c-1.272.05-2.1.028-2.278-.106z"/></svg>