<svg xmlns="http://www.w3.org/2000/svg" width="120" height="60" fill="#00679a"><path d="M55.332 20.182h5.308v19.636h-5.308zm8.268 0v19.636h14.752v-3.923h-9.445v-3.818h8.74v-3.925h-8.74V24.12h9.445v-3.937zm17.94 0v19.636h14.755v-3.923H86.85v-3.818h8.74v-3.925h-8.74V24.12h9.446v-3.937zm17.937 0v19.636h14.75v-3.923h-9.443v-3.818h8.744v-3.925h-8.744V24.12h9.443v-3.937zM28.115 52.564a1.31 1.31 0 0 1-.362-.167c-.28-.196-.733-.7-1.012-1.128-.383-.6-1.732-2.38-2.806-3.722-2.198-2.756-4.15-4.962-6.403-7.24-2.7-2.743-4.837-4.613-7.244-6.374l-2.54-1.7c-.995-.537-1.765-1.27-1.927-1.832a2.5 2.5 0 0 1 .012-1.032c.146-.5.8-1.078 1.773-1.586 1.286-.666 2.74-1.732 4.663-3.418 3.293-2.893 8.314-8.076 12.227-12.63 1.186-1.378 1.807-2.173 2.156-2.76.53-.9.995-1.395 1.428-1.55.23-.08.754-.08 1.016 0a1.49 1.49 0 0 1 .375.183c.287.196.8.77 1.1 1.228l.375.574c.133.196 1.836 2.327 2.506 3.135 4.542 5.462 9.063 10.08 12.78 13.047 1.636 1.303 3.355 2.477 4.35 2.96.437.212.833.558.945.824.112.258.108.762-.008 1.074-.108.287-.512.708-.9.933-.912.533-3.96 2.856-5.87 4.475C40.096 39.817 36 44.005 32.5 48.4c-.783.987-2.1 2.768-2.294 3.076-.167.283-.583.75-.816.912-.325.225-.837.296-1.274.175zm1.253-5.75c1.607-.633 5.828-4.16 9.94-8.3 2.473-2.494 4.22-4.538 5.204-6.074.346-.545.74-1.35.833-1.703.112-.408.092-.9-.046-1.332-.6-1.84-2.852-4.8-6.432-8.426-3.938-3.984-7.702-6.965-9.6-7.598-.716-.237-1.062-.212-1.8.137C24.132 15.1 15.1 23.9 12.43 28.145c-.333.533-.645 1.166-.758 1.536-.208.683.017 1.4.824 2.644 2.56 3.96 11.248 12.16 14.97 14.142.87.462 1.365.554 1.9.346zm-.668-.857c-.6-.125-2.24-1.2-3.976-2.6-5.3-4.242-11.253-10.55-12.056-12.747-.154-.43-.133-.608.162-1.195 1.05-2.102 4.958-6.528 9.375-10.607 2.3-2.1 4.55-3.884 5.678-4.442.495-.25.724-.258 1.232-.058C32.212 15.547 40.4 23.26 43.37 27.74c.87 1.316 1.195 2.12 1.082 2.648-.28 1.274-2.352 3.922-5.812 7.414-3.955 3.997-8.3 7.664-9.692 8.16-.05.017-.167.017-.258-.004zm1.336-4.975a244.17 244.17 0 0 1-.137-3.54l-.112-3.3h-1.2c-.662 0-1.2.012-1.2.033a1334.23 1334.23 0 0 1-.25 3.422l-.25 3.5v.112h3.172zm.454-7.38c1.46-.104 2.68-.346 3.684-.73.562-.216 1.607-.74 2.04-1.028.53-.346.945-.766 1.128-1.137.125-.254.142-.33.142-.604 0-.674-.354-1.1-1.557-1.848-.1-.062-.162-.13-.146-.146s.2-.08.38-.13.34-.104.333-.108c-.03-.03-4.46-1.266-4.47-1.25s.108.404.262.874l.287.858.27-.004a17.36 17.36 0 0 0 .77-.033l.5-.033.283.15c.383.204.94.624 1.145.866.495.595.504 1.082.025 1.594-.574.612-1.445.974-3.193 1.332a18.53 18.53 0 0 1-4.33.404c-1.55-.033-2.698-.237-3.8-.674-1.382-.545-2.065-1.124-2.07-1.748-.008-.704 1.028-1.495 2.806-2.14l.55-.204-.433-.25-1.245-.733-.812-.475-.537.187c-1.565.545-2.752 1.195-3.443 1.882-.458.462-.595.72-.612 1.2-.017.4.05.608.32.978.504.7 1.757 1.407 3.688 2.102 1.103.4 3.2.733 5.454.866a31.71 31.71 0 0 0 2.58-.012zm-.84-2.027l-.187-6.432c.017-.017.483-.037 1.037-.042l1.003-.012-1.528-3.6-1.55-3.63c-.012-.012-.55 1.594-1.2 3.568l-1.2 3.643c-.017.037.154.05.77.05.437 0 .803.012.812.033.017.025-.13 4.67-.196 6.265l-.025.612h2.28z"/></svg>