<svg xmlns="http://www.w3.org/2000/svg" width="120" height="60"><path d="M15.535 42.796L5.83 20.957l6.58-1.28 2.973 8.223 2.752 7.808.068-.013-.255-8.364-.18-8.696 6.547-1.274 3.14 8.542 2.483 7.332.068-.013-.39-8.162-.28-8.676 6.207-1.208-1.182 23.958-6.682 1.3-3.27-8.657-2.283-6.667-.068.013.254 7.097.006 9.257-6.784 1.32zM43.218 21.69l-1.835 13.07c-.5 3.5.43 5.643 2.858 5.983 2.463.347 3.915-1.3 4.43-4.96l1.835-13.07 6.193.87L54.91 36.31c-1 7.116-5.062 10.2-11.528 9.302-6.33-.89-9.163-4.8-8.12-12.235l1.763-12.556 6.193.87zm11.95-3.474l14.905-1.242.422 5.06-8.674.723.36 4.303 8.158-.68.42 5.026-8.158.68.734 8.812-6.23.52-1.934-23.2zM93.633 32.36c0 7.5-4.493 12.27-11.68 12.27-7.224 0-11.197-5.426-11.197-11.89 0-6.774 4.458-12.165 11.577-12.165 7.5 0 11.3 5.564 11.3 11.785zm-16.277.277c0 4.354 1.9 7.05 4.907 7.05s4.77-2.937 4.77-7.12c0-4.01-1.797-7.05-4.804-7.05-2.972 0-4.873 2.834-4.873 7.12zm35.884-5.926c0 7.5-4.493 12.27-11.68 12.27-7.223 0-11.197-5.426-11.197-11.888 0-6.774 4.458-12.165 11.577-12.165 7.5-.001 11.3 5.563 11.3 11.784zm-16.277.277c0 4.355 1.9 7.05 4.907 7.05s4.77-2.938 4.77-7.12c0-4.01-1.797-7.05-4.804-7.05-2.973 0-4.873 2.834-4.873 7.12z" fill="#e86f69"/></svg>