<?xml version="1.0" encoding="UTF-8" standalone="no"?>
<svg
   xmlns:dc="http://purl.org/dc/elements/1.1/"
   xmlns:cc="http://creativecommons.org/ns#"
   xmlns:rdf="http://www.w3.org/1999/02/22-rdf-syntax-ns#"
   xmlns:svg="http://www.w3.org/2000/svg"
   xmlns="http://www.w3.org/2000/svg"
   xmlns:sodipodi="http://sodipodi.sourceforge.net/DTD/sodipodi-0.dtd"
   xmlns:inkscape="http://www.inkscape.org/namespaces/inkscape"
   width="120"
   height="60"
   viewBox="0 0 120 60"
   version="1.1"
   id="svg10"
   sodipodi:docname="owncloud-ar21.svg"
   inkscape:version="0.92.3 (2405546, 2018-03-11)">
  <metadata
     id="metadata16">
    <rdf:RDF>
      <cc:Work
         rdf:about="">
        <dc:format>image/svg+xml</dc:format>
        <dc:type
           rdf:resource="http://purl.org/dc/dcmitype/StillImage" />
        <dc:title></dc:title>
      </cc:Work>
    </rdf:RDF>
  </metadata>
  <defs
     id="defs14" />
  <sodipodi:namedview
     pagecolor="#ffffff"
     bordercolor="#666666"
     borderopacity="1"
     objecttolerance="10"
     gridtolerance="10"
     guidetolerance="10"
     inkscape:pageopacity="0"
     inkscape:pageshadow="2"
     inkscape:window-width="1920"
     inkscape:window-height="1001"
     id="namedview12"
     showgrid="false"
     inkscape:zoom="2.6904762"
     inkscape:cx="17.654867"
     inkscape:cy="74.60177"
     inkscape:window-x="-9"
     inkscape:window-y="-9"
     inkscape:window-maximized="1"
     inkscape:current-layer="svg10" />
  <g
     id="g8"
     style="fill:#1d2d44;fill-opacity:1;fill-rule:evenodd"
     transform="matrix(0.66076427,0,0,0.66076427,18.262541,6.7413685)">
    <path
       d="m 7.3185507,57.871623 c -2.9965217,0 -5.4344927,-2.437971 -5.4344927,-5.434493 0,-2.996521 2.437971,-5.434492 5.4344927,-5.434492 2.9965213,0 5.4344933,2.437971 5.4344933,5.434492 0,2.996522 -2.437972,5.434493 -5.4344933,5.434493 m 0,-12.753043 C 3.2831884,45.11858 0,48.401768 0,52.43713 c 0,4.035363 3.2831884,7.318551 7.3185507,7.318551 4.0353623,0 7.3185503,-3.283188 7.3185503,-7.318551 0,-4.035362 -3.283188,-7.31855 -7.3185503,-7.31855 m 26.8113043,0.519971 h -0.362319 v 0.362319 8.717101 c 0,1.737681 -1.413913,3.151594 -3.152174,3.151594 -1.738261,0 -3.152174,-1.413913 -3.152174,-3.151594 V 46.00087 45.638551 H 27.10087 25.941449 25.57913 v 0.362319 8.717101 c 0,1.737681 -1.413913,3.151594 -3.152174,3.151594 -1.737971,0 -3.151594,-1.413913 -3.151594,-3.151594 V 46.00087 45.638551 h -0.362319 -1.15942 -0.362319 v 0.362319 8.717101 c 0,2.776522 2.258841,5.035652 5.035652,5.035652 1.687247,0 3.179711,-0.836811 4.094203,-2.114203 0.914493,1.277392 2.406957,2.114203 4.094203,2.114203 2.777102,0 5.036232,-2.25913 5.036232,-5.035652 V 46.00087 45.638551 h -0.362319 z m 11.740841,-0.57916 c -4.035653,0 -7.318841,3.283189 -7.318841,7.318841 v 6.435072 0.362319 h 0.362319 1.15942 0.362319 v -0.362319 -6.435072 c 0,-2.996812 2.437971,-5.434783 5.434783,-5.434783 2.997101,0 5.435362,2.437971 5.435362,5.434783 v 6.435072 0.362319 h 0.362319 1.15942 0.362319 v -0.362319 -6.435072 c 0,-4.035652 -3.283478,-7.318841 -7.31942,-7.318841 m 38.987913,12.812783 c -2.996812,0 -5.435073,-2.438261 -5.435073,-5.435073 0,-2.996811 2.438261,-5.435072 5.435073,-5.435072 2.996811,0 5.435072,2.438261 5.435072,5.435072 0,2.996812 -2.438261,5.435073 -5.435072,5.435073 m 0,-12.754203 c -4.035942,0 -7.319131,3.283188 -7.319131,7.31913 0,4.035943 3.283189,7.319131 7.319131,7.319131 4.035942,0 7.31913,-3.283188 7.31913,-7.319131 0,-4.035942 -3.283188,-7.31913 -7.31913,-7.31913 m 22.753331,0.52058 h -0.36232 v 0.362319 6.436231 c 0,2.996522 -2.43826,5.434203 -5.43536,5.434203 -2.996811,0 -5.434782,-2.437681 -5.434782,-5.434203 V 46.00087 45.638551 h -0.362319 -1.15942 -0.362319 v 0.362319 6.436231 c 0,4.035363 3.283189,7.318261 7.31884,7.318261 4.03594,0 7.31942,-3.282898 7.31942,-7.318261 V 46.00087 45.638551 h -0.36232 z"
       id="path2"
       style="fill:#1d2d44;fill-opacity:1"
       inkscape:connector-curvature="0" />
    <path
       d="m 12.835275,20.738783 c -0.02985,1.632753 -1.83913,3.170144 -3.2197098,3.170144 H 7.3404927 c -2.9968115,0 -5.4347826,-2.437971 -5.4347826,-5.434202 0,-2.996812 2.4382609,-5.434783 5.4353624,-5.434783 l 5.4994205,-0.0067 c 0.0087,1.753044 0.02551,6.023768 -0.0052,7.705508 m 1.884348,-8.617102 V 12.090377 0.44631884 0.084 h -0.362319 -1.15942 -0.362319 V 0.44631884 11.149507 l -5.4953621,0.0064 c -4.0353623,0 -7.31855073,3.283189 -7.31855073,7.318841 0,4.035072 3.28318843,7.31826 7.31884053,7.31826 h 2.2750725 c 2.2701448,0 5.0527538,-2.23942 5.1037678,-5.020289 0.03594,-1.988696 0.0064,-7.555363 2.9e-4,-8.651015"
       transform="translate(111.594,33.96)"
       id="path4"
       style="fill:#1d2d44;fill-opacity:1"
       inkscape:connector-curvature="0" />
    <path
       d="M 72.685536,54.718029 V 40.300058 C 72.029304,39.968754 71.400319,39.592812 70.801478,39.17513 v 15.542899 c 0,2.776522 2.259131,5.035652 5.035652,5.035652 h 0.362319 v -0.362319 -1.15942 -0.362319 H 75.83713 c -1.737681,0 -3.151594,-1.413913 -3.151594,-3.151594 M 57.729275,48.62087 c 0,-2.809566 1.26087,-5.329276 3.244348,-7.027247 -0.624348,-0.24029 -1.204348,-0.570724 -1.724058,-0.975362 -2.096811,2.026087 -3.404348,4.863478 -3.404348,8.002609 0,6.13971 4.995073,11.134492 11.135363,11.134492 h 0.362319 v -0.362319 -1.15942 -0.362319 H 66.98058 c -5.10116,0 -9.251305,-4.149565 -9.251305,-9.250434 M 93.880058,27.601855 c 0.01884,-0.245217 0.0313,-0.491304 0.03768,-0.73942 0.0032,-0.122319 0.0093,-0.244638 0.0093,-0.367826 0,-2.051884 -0.437681,-4.002029 -1.21913,-5.767537 -0.07971,-0.18 -0.161739,-0.35884 -0.248406,-0.534782 -0.08522,-0.172754 -0.171884,-0.344638 -0.263768,-0.513333 -1.264058,-2.32116 -3.154203,-4.252174 -5.43971,-5.572464 -0.169275,-0.09797 -0.34029,-0.192464 -0.513913,-0.283479 -0.173043,-0.09072 -0.347536,-0.17913 -0.524928,-0.262898 -1.754492,-0.829275 -3.703478,-1.309565 -5.75855,-1.356812 -0.110435,-0.0023 -0.22029,-0.0084 -0.331305,-0.0084 -0.137391,0 -0.272753,0.0067 -0.409275,0.01043 -0.246377,0.007 -0.490435,0.02 -0.733333,0.03942 -2.253913,0.17913 -4.362029,0.88 -6.202319,1.986376 -0.171015,0.102899 -0.33971,0.210435 -0.506377,0.32058 -0.168116,0.110725 -0.333044,0.225797 -0.496232,0.343478 -0.953623,0.688406 -1.81913,1.489855 -2.576812,2.386667 -0.126666,0.150145 -0.249855,0.303478 -0.370434,0.458551 -0.119131,0.153333 -0.234783,0.308985 -0.347826,0.466956 -1.670145,2.34 -2.656812,5.199711 -2.656812,8.287247 0,0.814492 0.07217,1.612753 0.203768,2.390724 0.03768,0.223479 0.08058,0.446087 0.128696,0.666377 0.05246,0.24 0.111304,0.477681 0.175942,0.713623 0.356811,1.304058 0.891594,2.534783 1.580869,3.662319 0.104058,0.171015 0.212464,0.339131 0.323768,0.504928 0.111885,0.166666 0.228116,0.330145 0.346957,0.492174 0.267246,0.364347 0.551304,0.715942 0.851015,1.053333 0.163768,0.184058 0.331014,0.364058 0.503768,0.53971 0.157971,0.16058 0.32029,0.317391 0.485797,0.471015 2.551014,2.358261 5.95884,3.803768 9.69884,3.803768 3.603189,0 6.896812,-1.342319 9.414203,-3.549566 0.145218,-0.126956 0.287247,-0.257101 0.426957,-0.390144 0.143188,-0.135943 0.283768,-0.274493 0.421159,-0.416232 2.093044,-2.159711 3.511304,-4.973913 3.915073,-8.103479 0.0313,-0.242318 0.05652,-0.485507 0.07536,-0.731304 m -27.312174,7.148406 c -0.109855,-0.173334 -0.216522,-0.348696 -0.31942,-0.526377 -0.785797,-1.354783 -1.372174,-2.837971 -1.717681,-4.411304 -0.367826,-0.07652 -0.748406,-0.117102 -1.138551,-0.117102 -0.04145,0 -0.08145,0.0049 -0.122609,0.0061 -0.195362,0.0041 -0.388116,0.01884 -0.577971,0.04261 -0.194493,0.02435 -0.385507,0.05942 -0.573623,0.102898 -1.647826,0.386087 -3.014203,1.50087 -3.744348,2.986377 -0.08609,0.175363 -0.162898,0.355363 -0.230725,0.54058 -0.06725,0.184058 -0.124927,0.371884 -0.173043,0.563768 -0.108116,0.433623 -0.171594,0.884928 -0.171594,1.351304 0,1.075073 0.310145,2.077392 0.837971,2.930435 0.103478,0.167537 0.214493,0.328986 0.334203,0.483479 0.117681,0.151594 0.241739,0.297681 0.373913,0.436521 1.01971,1.071594 2.455362,1.743479 4.047826,1.743479 2.369565,0 4.395072,-1.483769 5.208695,-3.569276 -0.620869,-0.632464 -1.187246,-1.317391 -1.693043,-2.048406 -0.116812,-0.169275 -0.229565,-0.341159 -0.34,-0.515072 M 109.94962,29.49113 c -0.008,-0.202898 -0.0215,-0.403768 -0.0403,-0.603478 -0.0188,-0.19942 -0.0423,-0.397101 -0.0716,-0.593333 -0.77884,-5.206667 -5.19044,-9.239131 -10.563769,-9.432464 -0.133913,-0.0046 -0.267826,-0.01014 -0.403188,-0.01014 -0.05913,0 -0.117682,0.0035 -0.176522,0.0046 -0.194493,0.0026 -0.387826,0.0113 -0.58029,0.02435 -1.581159,0.106956 -3.072174,0.546087 -4.404058,1.249275 0.801739,1.766956 1.28116,3.709275 1.36087,5.753044 0.0081,0.203188 0.01565,0.406376 0.01565,0.611594 0,0.06 -0.0041,0.11884 -0.0043,0.178261 -0.0032,0.260869 -0.01246,0.51971 -0.02812,0.777391 -0.236232,3.846087 -1.882899,7.315362 -4.430725,9.896232 2.031305,2.260579 4.975942,3.685507 8.247537,3.685507 2.824635,0 5.404635,-1.063188 7.364925,-2.808116 0.14841,-0.132464 0.2942,-0.267536 0.43536,-0.407536 0.14232,-0.14087 0.28145,-0.285218 0.41623,-0.434203 1.78464,-1.968986 2.87334,-4.58 2.87334,-7.44 0,-0.151015 -0.005,-0.30116 -0.011,-0.451015 m 2.04116,-0.391304 c -0.30608,0 -0.60434,0.03159 -0.89681,0.07855 0.0157,0.253043 0.0261,0.507246 0.0261,0.763768 0,3.253623 -1.27739,6.212174 -3.35392,8.408116 1.02667,1.184348 2.53769,1.937971 4.22464,1.937971 3.08435,0 5.59392,-2.509855 5.59392,-5.593913 0,-3.084928 -2.50957,-5.594493 -5.59392,-5.594493 M 65.980928,11.825044 c 0.03275,0.205797 0.07333,0.408985 0.117971,0.610434 0.103478,0.463479 0.236811,0.915363 0.400579,1.352754 0.07275,0.194203 0.152174,0.384348 0.236522,0.573043 0.08232,0.184638 0.169855,0.366667 0.263188,0.545508 0.271595,0.523188 0.586377,1.02029 0.94116,1.486087 0.713043,-0.823769 1.509275,-1.573334 2.37913,-2.231595 0.163768,-0.123768 0.331305,-0.243188 0.50029,-0.360869 0.168406,-0.117102 0.339131,-0.230145 0.512174,-0.34058 2.345797,-1.497971 5.11913,-2.380869 8.094203,-2.41913 0.06725,-8.7e-4 0.133913,-0.0052 0.201159,-0.0052 0.193334,0 0.384928,0.0078 0.576812,0.01449 0.264348,0.0099 0.527536,0.02638 0.788406,0.04928 1.785507,0.157102 3.484058,0.619131 5.044637,1.333624 0.159131,-0.714783 0.245508,-1.456522 0.245508,-2.218261 0,-0.5663771 -0.04841,-1.1217394 -0.137392,-1.6634786 C 86.113391,8.3595362 86.076,8.1696812 86.033971,7.9815652 85.991362,7.792 85.943536,7.6044638 85.890493,7.4195362 84.671362,3.1421449 80.731072,1.1594203e-4 76.067884,1.1594203e-4 c -3.847536,0 -7.203768,2.13884055797 -8.945507,5.28927535797 -0.09681,0.1753623 -0.189565,0.353913 -0.276522,0.5356522 -0.08986,0.1886956 -0.172754,0.3814492 -0.251594,0.5765217 -0.476232,1.1791304 -0.74116,2.4655073 -0.74116,3.8130438 0,0.341449 0.01739,0.67884 0.05015,1.011594 0.02029,0.201449 0.04638,0.40087 0.07768,0.598841 m 27.213913,7.266666 c 1.477391,-0.776232 3.131304,-1.25884 4.884637,-1.371014 -0.453043,-5.216812 -4.841449,-9.3243482 -10.173623,-9.3243482 -0.204058,0 -0.406377,0.00754 -0.607246,0.01942 0.09333,0.5863768 0.143478,1.1866667 0.143478,1.7988412 0,0.949855 -0.118551,1.871884 -0.33913,2.754492 2.563478,1.422609 4.682898,3.550725 6.091884,6.122609 m -35.790435,13.08 c 0.917101,-1.754493 2.582029,-3.058261 4.569855,-3.484638 0.187826,-0.04058 0.37884,-0.07188 0.572174,-0.09623 0.191014,-0.02435 0.384058,-0.04087 0.57942,-0.04812 0.0887,-0.0035 0.177101,-0.0067 0.266377,-0.0067 0.313333,0 0.621159,0.02319 0.923478,0.06435 -0.09449,-0.688986 -0.147246,-1.391305 -0.147246,-2.105797 0,-3.433334 1.126087,-6.607247 3.026377,-9.175363 -0.430435,-0.536232 -0.814493,-1.111014 -1.143479,-1.720579 -0.09217,-0.171015 -0.18,-0.345218 -0.263768,-0.521739 -0.08377,-0.176232 -0.162609,-0.355073 -0.237101,-0.536232 -0.296812,-0.718551 -0.52029,-1.474203 -0.664928,-2.257681 -0.257971,-0.01797 -0.517101,-0.03044 -0.77942,-0.03044 -1.91942,0 -3.726377,0.490724 -5.302609,1.352174 -0.174203,0.09565 -0.344927,0.195942 -0.513333,0.30029 -0.166087,0.102898 -0.328696,0.210434 -0.488986,0.321449 -1.79826,1.247826 -3.210144,3.012463 -4.020869,5.078261 -0.0713,0.181739 -0.137971,0.365507 -0.2,0.551884 -0.06174,0.185507 -0.118551,0.373043 -0.170435,0.562608 C 53.154841,21.35142 53.016,22.33113 53.016,23.342725 c 0,3.59913 1.724058,6.801449 4.388406,8.828985 m -0.457971,1.101449 c -3.08029,-2.226956 -5.089855,-5.847246 -5.089855,-9.930434 0,-1.043189 0.131884,-2.056812 0.37855,-3.024058 -0.102318,-0.0032 -0.204058,-0.0081 -0.306956,-0.0081 -5.632754,0 -10.215362,4.582608 -10.215362,10.215362 0,5.632464 4.582608,10.215072 10.215362,10.215072 2.146667,0 4.13971,-0.667536 5.785797,-1.803188 -0.67913,-1.052753 -1.075072,-2.305217 -1.075072,-3.648696 0,-0.701739 0.107826,-1.37884 0.307536,-2.015942 m 1.171304,-20.610434 c -0.441159,-0.773913 -0.696522,-1.666957 -0.696522,-2.62 0,-2.9298554 2.383768,-5.3136236 5.313624,-5.3136236 1.083768,0 2.092174,0.3278261 2.933333,0.8872464 -0.624638,1.4069565 -0.974493,2.9623189 -0.974493,4.5982612 0,0.301449 0.01507,0.59913 0.03826,0.894492 -0.207246,-0.01043 -0.415942,-0.01594 -0.625797,-0.01594 -2.174493,0 -4.216522,0.572174 -5.988406,1.569566"
       id="path6"
       style="fill:#1d2d44;fill-opacity:1"
       inkscape:connector-curvature="0" />
  </g>
</svg>
