<svg xmlns="http://www.w3.org/2000/svg" width="120" height="60"><path d="M20.77 16.706c.236.14.5.123.766.177 1.403.3 2.666.862 3.715 1.873.08.077.15.168.237.27l-2.013 1.953-.2-.226a4.45 4.45 0 0 0-2.551-1.503 4.59 4.59 0 0 0-3.143.401c-1.275.67-1.845 1.964-1.5 3.35.152.532.483.995.94 1.3.57.42 1.235.66 1.9.888l3.2 1.123c1.207.47 2.2 1.214 2.9 2.352a4.14 4.14 0 0 1 .549 1.579c.16 1.174.095 2.328-.4 3.43-.623 1.417-1.684 2.385-3.1 2.947a8.67 8.67 0 0 1-4.921.435c-1.514-.28-2.88-.876-4.023-1.93-.26-.24-.494-.516-.76-.797l2.228-1.887.208.265c1.32 1.593 2.983 2.287 5.05 1.932.982-.168 1.786-.617 2.367-1.437.858-1.22.635-2.896-.512-3.85a5.11 5.11 0 0 0-1.587-.866l-3.177-1.078c-.82-.277-1.577-.7-2.232-1.273-.955-.8-1.53-1.982-1.6-3.234-.048-.6-.018-1.182.087-1.764.268-1.343 1.017-2.36 2.105-3.143a6.7 6.7 0 0 1 2.864-1.131c.198-.034.42 0 .6-.164h.347c.046.15.167.065.255.08h.793c.056 0 .1-.053.164-.083zm86.848 20.002c-.995 0-2-.01-2.984.03-.504.02-.842-.114-1.15-.54l-2.947-3.788a1.25 1.25 0 0 1-.098-.189l-1.34 1.73-1.93 2.496a.61.61 0 0 1-.572.28l-3.327-.007 2.653-3.4 2.653-3.376-5.068-6.314.347-.025 3.074-.01c.285-.023.56.112.714.352q2.2 2.874 4.397 5.726a1.74 1.74 0 0 0 .21.195l-.01-.008a2.9 2.9 0 0 0 .192.326q2.453 3.098 4.9 6.192a1.78 1.78 0 0 0 .281.234z" fill="#020202"/><path d="M79.217 16.706c.007.028.007.057 0 .086l-2.68.007v-.093z" fill="#acacac"/><path d="M20.338 16.706c-.055.03-.108.08-.164.083h-.793c.003-.027.003-.054 0-.08z" fill="#282828"/><path d="M19.385 16.706c.003.027.003.054 0 .08-.088-.017-.21.067-.255-.08z" fill="#515151"/><path d="M43.557 34.76c-1.292 1.6-2.958 2.136-4.865 2.08a6.4 6.4 0 0 1-3.724-1.287 6.14 6.14 0 0 1-2.232-3.255c-.532-1.804-.456-3.598.345-5.3 1.028-2.194 2.78-3.428 5.192-3.687a6.09 6.09 0 0 1 3.822.782 5.01 5.01 0 0 1 .822.624c.243.22.446.483.716.78l.008-.602V23.65h2.666v.43q0 5.893 0 11.774c.013 1.022-.125 2.04-.408 3.024a5.79 5.79 0 0 1-3.073 3.648c-.975.468-2.038.726-3.12.755a10.23 10.23 0 0 1-3.87-.528 9.2 9.2 0 0 1-3.062-1.72c-.065-.045-.133-.084-.205-.118l1.76-2.147.192.157c1.77 1.762 3.888 2.345 6.292 1.743 1.222-.306 2.046-1.135 2.45-2.345.18-.534.278-1.1.292-1.654v-1.9zM35.162 30c.065.455.08.923.205 1.36.514 1.774 1.653 2.896 3.53 3.136 1.36.178 2.58-.178 3.563-1.15 1.064-1.052 1.414-2.368 1.273-3.833-.184-1.9-1.517-3.44-3.28-3.832-1.608-.355-3.03.013-4.164 1.25-.8.86-1.065 1.918-1.127 3.064zm49.766-1.887V36.7h-2.83V17.237h12.056v2.5h-9.206V25.6h8.53v2.455l-.025.02c-.01.008-.022.024-.034.024z" fill="#020202"/><path d="M74.035 36.71h-2.412c-.173-.518-.19-1.078-.27-1.684l-.215.236a4.99 4.99 0 0 1-3.606 1.79c-1.006.062-1.994-.04-2.917-.455-1.744-.783-2.555-2.223-2.34-4.2.14-1.337.947-2.183 2.072-2.78.778-.41 1.624-.672 2.496-.775l3.227-.28 1.15-.045c.2-1.795-.835-2.76-2.322-2.958-1.574-.2-3.018.153-4.46 1.47l-1.45-1.753c.24-.263.517-.493.82-.683 1.112-.754 2.403-1.202 3.744-1.3.982-.077 1.957-.06 2.913.234 1.852.572 2.965 1.806 3.303 3.71.085.526.128 1.057.128 1.6l.02 5.8.12 2.072zm-2.787-6.142c-1.166-.056-2.335.008-3.488.19-.686.086-1.345.326-1.925.702-.578.36-.89 1.025-.8 1.7.07.734.488 1.208 1.15 1.477.714.292 1.452.296 2.204.184a3.13 3.13 0 0 0 2.43-1.715c.424-.794.477-1.642.428-2.537z" fill="#030303"/><path d="M60.505 36.714H57.78v-.436q0-3.334 0-6.665c0-.72-.025-1.442-.24-2.14-.42-1.36-1.413-1.95-2.78-1.894-1.566.062-2.597 1.166-2.998 2.45-.172.58-.255 1.184-.246 1.79q0 3.227 0 6.454v.442h-2.7c-.063-4.35.076-8.692-.11-13.065h2.578c.02.304.048.616.056.926s0 .63 0 .982c.084-.043.133-.052.15-.08.808-1.275 1.988-1.98 3.462-2.162 1.226-.153 2.408.022 3.467.74a4.49 4.49 0 0 1 1.824 2.585 7.03 7.03 0 0 1 .261 1.964q0 3.916 0 7.834z" fill="#020202"/><path d="M76.537 16.8l2.68-.007.018.387q0 9.562 0 19.122v.404h-2.68c-.014-.088-.024-.177-.028-.267q0-9.734 0-19.467c-.001-.058.006-.115.01-.173z"/><path d="M30.44 23.636V36.71h-2.702V23.636z" fill="#040404"/><path d="M102.25 29.878V25.6c-.01-.257.08-.507.247-.702l.842-1.1a.4.4 0 0 1 .359-.185h3.456c.055.008.1.02.163.038l-.895 1.123q-1.9 2.37-3.822 4.734a4.06 4.06 0 0 1-.359.352z" fill="#57a402"/><path d="M30.435 22.153h-2.698v-2.666h2.698z" fill="#040404"/></svg>