<svg xmlns="http://www.w3.org/2000/svg" width="120" height="60"><path d="M33.344 51.378c0-.114 1.54-2.648 3.423-5.63s3.222-5.492 2.977-5.578-1.092.07-1.883.345c-2.38.83-2.87.6-4.65-2.1-1.924-2.922-1.993-3.224-1-4.332.655-.724.616-.893-.46-1.968-.647-.647-1.176-1.37-1.176-1.6 0-.4-4.407-2.217-11.375-4.688-1.58-.56-2.872-1.113-2.872-1.23s3.337-.143 7.417-.06l7.417.15.724-1.142c3.06-4.826 7.68-9.184 9.736-9.184.428 0 1.297.408 1.93.907 1.032.812 1.174 1.315 1.358 4.82.113 2.152.345 4.052.515 4.223s.7-.053 1.2-.497c.626-.566 1.285-.72 2.214-.516.962.2 1.5.067 2.015-.53.756-.897 4.537-6.96 4.537-7.273 0-.107.75-1.388 1.664-2.846L59.4 8.9c.664-1.062.767-.936 4.753 5.745 4.115 6.898 6.33 9.443 7.44 8.55.774-.624 4.835-.66 5.97-.052.645.345 1.055.34 1.4-.016.74-.74 2.5-.6 2.973.216.365.652.458.652.998 0 .328-.395 1.3-.718 2.158-.718 1.214 0 1.677.252 2.078 1.132l.516 1.133 7.976-.282c4.387-.155 7.976-.183 7.976-.062s-3.257 1.432-7.238 2.913l-7.385 2.8c-.08.054.1 1.35.4 2.88.783 3.98.272 6.63-1.696 8.8-.883.977-2.315 2-3.183 2.298s-1.578.624-1.578.75.927 1.66 2.06 3.4 1.9 3.183 1.68 3.183c-.34 0-8.6-3.2-21.442-8.285-2.532-1.004-4.84-1.826-5.125-1.826-.534 0-5.143 1.747-18.66 7.073-7.84 3.1-8.147 3.196-8.147 2.83zM49.43 44.1l9.192-3.52c1.522-.542 2.03-.406 9.42 2.515l9.42 3.676c.885.324 2.708 1.027 4.052 1.563 1.532.6 2.315.758 2.1.394-2.4-4.06-2.474-4.13-4.138-3.817-2.007.377-3.254-.01-3.894-1.207-.415-.776-.3-1.156.747-2.237 1.543-1.6 1.3-3.092-.7-4.2-.763-.43-1.726-1.5-2.14-2.36l-.753-1.578-1.613 1.095c-1.983 1.346-4.4 1.415-6.42.184l-1.488-.907-1.73 1.175c-1.73 1.176-3.724 1.328-5.75.438-.558-.245-.804-.15-.804.3 0 .366-.527.905-1.17 1.198-1.93.88-3.814.646-5.1-.63L47.518 35l-.94 1.195c-.517.657-1.714 1.683-2.66 2.28-1.17.74-2.62 2.54-4.538 5.647-1.55 2.5-2.82 4.7-2.82 4.846s1.2-.217 2.643-.83S45.26 45.7 49.43 44.1zm35.375-1.743c3.165-1.78 3.898-5.07 2.5-11.212-1.17-5.133-1.753-6.813-2.445-7.038-.48-.156-.553.015-.283.657 1.75 4.16 1.85 6.25.32 6.836-1.05.403-2.166-1.108-3.043-4.124-.68-2.336-1.4-3.4-1.925-2.853-.128.128.096.87.5 1.65s.955 3.125 1.228 5.213.798 4.275 1.17 4.86c.963 1.518 2.496 1.152 3.487-.832.98-1.962 1.1-.655.138 1.626-1 2.37-3.93 3.08-7.335 1.773-.545-.2-.73.007-.73.856 0 .625-.418 1.667-.928 2.316l-.928 1.18 1.272.215c2.197.37 5.2-.1 7.005-1.12zM39.248 38.43c6.607-1.9 7.787-4.114 5.592-10.493-.5-1.48-.926-3.073-.926-3.54 0-1.587-.798-.853-1.396 1.283-.8 2.825-3.17 5.226-5.168 5.216-1.736-.008-2.3-.324-3.018-1.686-1.287-2.444.116-6.195 3.693-9.878 2.62-2.697 4.05-2.94 4.05-.7 0 3.5-2.42 8.674-3.693 7.886-.623-.385-.522-2.086.2-3.4.615-1.1.5-2.802-.207-2.802-.8 0-2.4 2.945-2.62 4.822-.187 1.66-.07 2.063.72 2.486 2.77 1.483 6.4-3.042 6.582-8.207.096-2.712-.43-3.476-2.102-3.056-2.434.6-8.992 9.07-8.992 11.6 0 1.978.994 3.37 2.743 3.84 2.974.8 5.85-.622 7.887-3.903l.856-1.38v1.873c.002 2.712-1.767 4.142-7.352 5.94-1.4.448-2.586.86-2.657.92-.26.2 2.373 3.907 2.782 3.907.232 0 1.6-.336 3.02-.747zm39.804-3.367c.663-.733.78-1.53.638-4.344-.155-3.062-.324-3.603-1.516-4.848-2.154-2.248-4.815-1.675-3.258.702.828 1.264 1.838 1.048 1.48-.317-.284-1.087.246-1.115 1.17-.063 1.734 1.975 1.296 4.7-.753 4.7-1.403 0-1.84-.602-2.755-3.792-.417-1.453-.924-2.643-1.128-2.643-.678 0-.98.598-.558 1.107.23.276.863 2.26 1.4 4.408 1.375 5.407 3.296 7.258 5.27 5.077zm-26.132.086c.283-.2.412-1.088.295-2.05-.188-1.554-.294-1.667-1.134-1.218-1.207.646-2.504-.578-2.944-2.777-.334-1.67-.436-1.636 1.995-.64.305.125 1.08-.3 1.723-.942 1.176-1.177 1.564-2.6.7-2.6a.46.46 0 0 0-.459.46c0 .66-1.257.567-1.54-.115-.165-.398-.517-.257-1.146.46-.5.57-1.1 1.034-1.355 1.034s-.578-.465-.738-1.034c-.28-.997-.315-1.003-.95-.174-.556.726-.56.958-.032 1.487.56.56 1.625 4.4 1.625 5.846 0 1.8 2.493 3.233 3.95 2.256zm8.382-2.4c1.726-1.722 2.24-4.318 1.298-6.567-.735-1.76-2-2.418-3.8-1.967-1.337.336-3.373 4.234-3.38 6.472-.01 3.488 3.306 4.65 5.893 2.06zm-3.14-2.763c-.506-.506-.913-1.488-.905-2.183.013-1.15.07-1.2.625-.46.686.904 1.905 1.06 2.372.305.17-.275.08-.73-.203-1-.723-.723-.635-1.706.152-1.706.875 0 2.094 1.78 2.094 3.056 0 .94-1.912 2.918-2.82 2.918-.22 0-.8-.414-1.317-.92zm12.28 2.643c1.907-2.077 1.72-5.275-.44-7.583-1.116-1.192-3.597-1.397-4.612-.382-.937.937-1.872 4.62-1.525 6.005.74 2.953 4.607 4.105 6.577 1.96zm-3.904-3.358c-.755-.528-1.014-1.16-.992-2.413.024-1.402.097-1.53.42-.727.476 1.177 1.473 1.622 2.35 1.047.543-.357.517-.525-.157-1.042-.9-.7-1.074-1.664-.3-1.664.693 0 3.172 2.7 3.172 3.47 0 .74-1.76 2.046-2.757 2.046-.393 0-1.174-.322-1.736-.715zm27.012-2.03l4.826-1.8-5.17-.02c-4.627-.017-5.17.066-5.164.786.006.73.474 2.884.622 2.864.034-.005 2.233-.823 4.887-1.82zm-63.065-.324l.493-1.463-4.332-.146c-2.383-.08-4.332-.02-4.33.136.001.227 7.467 3.144 7.63 2.98.026-.025.27-.704.54-1.5zM60.2 22.38c1.02.163 2.17.58 2.554.927.6.54.86.502 1.786-.252.597-.485 1.372-.882 1.723-.882s.638-.1.638-.225c0-.428-6.618-11.264-6.87-11.25-.296.017-7.08 11.4-7.288 12.22-.088.348.187.477.72.337.475-.124 1.13.097 1.46.492.53.64.748.6 2-.472 1.198-1.008 1.697-1.145 3.267-.894z" fill="#333"/><path d="M55.324 24.102c-.07-.033-.16-.1-.36-.3-.272-.274-.38-.354-.606-.448-.297-.123-.62-.156-.922-.094-.27.055-.345.06-.467.037-.204-.04-.276-.163-.218-.373.072-.26.617-1.272 1.708-3.167 2.216-3.85 5.195-8.706 5.525-9.002.037-.033.038-.033.074 0 .196.176 1.347 1.952 2.92 4.505 2.128 3.453 3.898 6.5 3.898 6.7 0 .122-.187.195-.58.227-.5.04-1.056.327-1.83.93-.368.286-.525.392-.704.478-.15.072-.162.075-.323.075s-.174-.004-.298-.066a2.25 2.25 0 0 1-.32-.222c-.3-.258-.682-.446-1.3-.65-.772-.26-1.6-.415-2.303-.434-.556-.015-.812.035-1.234.24-.344.167-.5.286-1.298.93-.8.655-1.086.8-1.374.657zM29.6 28.348c-1.445-.42-6.47-2.406-7.174-2.833-.097-.06-.105-.068-.077-.088.16-.118 1.754-.176 3.556-.13l5.055.167a91.47 91.47 0 0 1-1 2.9c-.03.066-.093.063-.36-.015zm59.022.65c-.197-.386-.553-2.13-.563-2.76-.004-.245.026-.345.137-.447.252-.232.765-.316 2.174-.355a339.72 339.72 0 0 1 6.315-.006l1.625.012-3.913 1.467-5.72 2.13c-.02.005-.038-.01-.055-.042zm-52 19.937c0-.1.465-.93 1.643-2.896 2.823-4.713 4.113-6.422 5.698-7.543 1.418-1.003 2.176-1.696 3.02-2.763l.52-.658.702.7c1.23 1.2 1.97 1.56 3.313 1.566 1.64.008 3.438-.908 3.438-1.754 0-.2.136-.387.267-.387.056 0 .372.097.703.216.863.3 1.37.422 2.077.46a5.04 5.04 0 0 0 1.9-.23c.672-.2 1.06-.407 2.218-1.18.584-.4 1.08-.707 1.103-.707s.444.244.937.543 1.084.623 1.315.72a5.78 5.78 0 0 0 4.831-.123c.278-.133.934-.53 1.457-.883s.958-.632.967-.622a38.08 38.08 0 0 1 .44.901c.233.486.526 1.033.65 1.217a6.28 6.28 0 0 0 2.003 1.902c.865.53 1.398 1.235 1.453 1.92s-.242 1.283-1.098 2.23c-.668.74-.835 1.03-.833 1.44s.242.886.664 1.312c.683.7 1.756.894 3.332.636a8.1 8.1 0 0 1 .986-.105c.6-.001.982.298 1.7 1.358.5.73 1.56 2.525 1.56 2.613 0 .046-.05.078-.12.078-.15 0-.8-.177-1.27-.346a1404.56 1404.56 0 0 1-10.63-4.106l-9.888-3.772c-1.154-.355-1.94-.44-2.578-.273-.793.206-11.62 4.4-17.936 6.93-3.12 1.255-3.5 1.404-4.093 1.564-.464.127-.447.126-.447.046z" fill="#6398aa"/></svg>