<?xml version="1.0" encoding="UTF-8" standalone="no"?>
<svg
   xmlns:dc="http://purl.org/dc/elements/1.1/"
   xmlns:cc="http://creativecommons.org/ns#"
   xmlns:rdf="http://www.w3.org/1999/02/22-rdf-syntax-ns#"
   xmlns:svg="http://www.w3.org/2000/svg"
   xmlns="http://www.w3.org/2000/svg"
   xmlns:sodipodi="http://sodipodi.sourceforge.net/DTD/sodipodi-0.dtd"
   xmlns:inkscape="http://www.inkscape.org/namespaces/inkscape"
   viewBox="0 0 64 63.999857"
   height="64"
   width="64"
   version="1.1"
   id="svg16"
   sodipodi:docname="boxboat-icon.svg"
   inkscape:version="0.92.3 (2405546, 2018-03-11)">
  <metadata
     id="metadata22">
    <rdf:RDF>
      <cc:Work
         rdf:about="">
        <dc:format>image/svg+xml</dc:format>
        <dc:type
           rdf:resource="http://purl.org/dc/dcmitype/StillImage" />
        <dc:title></dc:title>
      </cc:Work>
    </rdf:RDF>
  </metadata>
  <defs
     id="defs20" />
  <sodipodi:namedview
     pagecolor="#ffffff"
     bordercolor="#666666"
     borderopacity="1"
     objecttolerance="10"
     gridtolerance="10"
     guidetolerance="10"
     inkscape:pageopacity="0"
     inkscape:pageshadow="2"
     inkscape:window-width="1920"
     inkscape:window-height="1001"
     id="namedview18"
     showgrid="false"
     inkscape:zoom="7.665781"
     inkscape:cx="67.633137"
     inkscape:cy="47.297464"
     inkscape:window-x="-9"
     inkscape:window-y="-9"
     inkscape:window-maximized="1"
     inkscape:current-layer="svg16" />
  <g
     id="g849"
     transform="matrix(3.0289009,0,0,3.0289009,-42.627216,-54.155808)">
    <path
       style="fill:#8ecef1;stroke-width:0.14133161"
       inkscape:connector-curvature="0"
       id="path2"
       d="m 24.855678,17.879808 v 2.351616 h 2.351334 v -2.351758 h -2.351334 m 0,2.786212 v 2.351475 h 2.351334 v -2.351475 h -2.351334 m 2.78607,0 v 2.351475 h 2.351476 v -2.351475 h -2.351476 m -2.78607,2.773067 v 2.351334 h 2.351334 v -2.351334 h -2.351334 m 2.78607,0 v 2.351334 h 2.351476 v -2.351334 h -2.351476 m -2.786918,2.773209 v 2.351334 h 2.351476 V 26.212154 H 24.85483 m 2.786494,0 v 2.351334 H 29.9928 v -2.351334 h -2.351476 m 2.786494,-2.773209 v 2.351334 h 2.351334 V 23.438945 H 30.42796 m -1.42e-4,2.773209 v 2.351334 h 2.351334 V 26.212154 H 30.42796 m -8.360472,-8.332346 v 2.351616 h 2.351476 v -2.351758 h -2.351476 m 0,2.786212 v 2.351475 h 2.351476 v -2.351475 h -2.351476 m -2.785928,0 v 2.351475 h 2.351192 V 20.665878 H 19.28156 m 2.785928,2.773067 v 2.351334 h 2.351476 v -2.351334 h -2.351476 m -2.785928,0 v 2.351334 h 2.351192 V 23.438945 H 19.28156 m 2.786776,2.773209 v 2.351334 h 2.351476 v -2.351334 h -2.351476 m -2.786352,0 v 2.351334 h 2.351192 v -2.351334 h -2.351192 m -2.786636,-2.773209 v 2.351334 h 2.351476 v -2.351334 h -2.351476 m 0,2.773209 v 2.351334 h 2.351476 v -2.351334 h -2.351476" />
    <path
       style="fill:#8ecef1;stroke-width:0.14133161"
       inkscape:connector-curvature="0"
       id="path10"
       d="m 20.861647,36.546463 c 0.144158,0 0.28549,0.0472 0.39488,0.146419 0.09851,0.0742 0.172425,0.172707 0.221608,0.295807 0.369724,0.419048 0.788631,0.665248 1.25658,0.665248 0.517556,0 0.961055,-0.295807 1.35537,-0.788348 0.131014,-0.206202 0.33326,-0.298209 0.541724,-0.298209 0.066,0 0.132428,0.0092 0.197582,0.02685 0.147832,0.04961 0.295383,0.1231 0.394173,0.271356 0.394174,0.517415 0.862406,0.788348 1.355229,0.788348 0.517274,0 0.961055,-0.295807 1.35537,-0.788348 0.130873,-0.206202 0.332978,-0.298209 0.541442,-0.298209 0.06586,0 0.132428,0.0092 0.19744,0.02685 0.147974,0.04961 0.295807,0.1231 0.394315,0.271356 0.394315,0.517415 0.862547,0.788348 1.35537,0.788348 0.517274,0 0.960773,-0.295807 1.354947,-0.788348 0.132427,-0.191221 0.352622,-0.294676 0.566174,-0.294676 0.144158,0 0.28549,0.04721 0.39488,0.14642 0.320258,0.197298 0.394174,0.665671 0.147833,0.936604 -0.615923,0.862406 -1.503061,1.355512 -2.414792,1.355512 -0.714572,0 -1.355087,-0.271357 -1.921827,-0.763898 -0.542148,0.492541 -1.182804,0.763898 -1.897377,0.763898 -0.714431,0 -1.355228,-0.271357 -1.921827,-0.763898 -0.517556,0.492541 -1.182804,0.763898 -1.897377,0.763898 -0.714431,0 -1.355229,-0.271357 -1.921827,-0.763898 -0.542007,0.492541 -1.207255,0.763898 -1.897236,0.763898 -0.961054,0 -1.823601,-0.517557 -2.488708,-1.355512 -0.22189,-0.320257 -0.197016,-0.739306 0.07377,-0.911589 0.148681,-0.12734 0.311212,-0.186134 0.465547,-0.186134 0.204082,0 0.394032,0.102466 0.520383,0.284925 0.394173,0.516991 0.837531,0.788206 1.354946,0.788206 0.517556,0 0.961055,-0.295665 1.355229,-0.788206 0.132427,-0.191363 0.352481,-0.294818 0.566174,-0.294676" />
    <path
       style="fill:#427abe;stroke-width:0.14133161"
       inkscape:connector-curvature="0"
       id="path12"
       d="m 18.940244,37.121117 c 0.319974,0 0.630621,-0.191928 0.949324,-0.586526 a 1.1967961,1.1967961 0 0 1 0.972079,-0.496498 c 0.268813,0 0.522927,0.09314 0.71853,0.262594 0.138505,0.108401 0.248743,0.244504 0.328313,0.406046 0.275879,0.295383 0.546671,0.439117 0.826366,0.439117 0.318279,0 0.627088,-0.189808 0.944095,-0.580025 0.216803,-0.322519 0.5625,-0.506674 0.952999,-0.506674 0.0034,0 0.0068,0.0014 0.01046,0.0014 V 24.717007 a 1.7054485,1.7054485 0 0 0 -0.713725,0.147409 l -5.14758,2.287593 -3.530746,1.591394 c -0.298492,0.124231 -0.447597,0.47233 -0.348241,0.795697 l 3.589116,7.461744 c 0.177654,0.09922 0.331281,0.120132 0.449011,0.120132" />
    <path
       style="fill:#2a4f83;stroke-width:0.14133161"
       inkscape:connector-curvature="0"
       id="path14"
       d="m 34.026121,28.743403 -3.530746,-1.591394 -5.147297,-2.287735 a 1.7057312,1.7057312 0 0 0 -0.713725,-0.147408 v 11.342709 a 1.2622326,1.2622326 0 0 1 0.328031,0.04424 l 0.02827,0.0085 c 0.106988,0.03576 0.428941,0.143593 0.645037,0.455512 0.204931,0.266127 0.532538,0.578046 0.942965,0.578046 0.318137,0 0.62723,-0.189808 0.944095,-0.580025 0.216944,-0.322519 0.5625,-0.506674 0.952858,-0.506674 0.11038,0 0.221608,0.01512 0.330716,0.04466 l 0.02798,0.0085 c 0.10713,0.0359 0.429366,0.143734 0.645179,0.455512 0.204931,0.266127 0.53282,0.578046 0.943247,0.578046 0.111228,0 0.221043,-0.03208 0.330858,-0.07915 L 34.374645,29.5391 c 0.09936,-0.323367 -0.04975,-0.671466 -0.348383,-0.795697" />
  </g>
</svg>
