<svg xmlns="http://www.w3.org/2000/svg" height="64" width="64"><path d="M32.658 0v7.123h7.122V0h-7.122m0 8.44v7.122h7.122V8.44h-7.122m8.44 0v7.122h7.122V8.44h-7.122m-8.44 8.4v7.122h7.122V16.84h-7.122m8.44 0v7.122h7.122V16.84h-7.122m-8.44 8.4v7.122h7.122V25.24h-7.122m8.44 0v7.122h7.122V25.24h-7.122m8.44-8.4v7.122h7.122V16.84h-7.122m0 8.4v7.122h7.122V25.24h-7.122M24.213 0v7.123h7.122V0h-7.122m0 8.44v7.122h7.122V8.44h-7.122m-8.438 0v7.122h7.122V8.44h-7.122m8.438 8.4v7.122h7.122V16.84h-7.122m-8.438 0v7.122h7.122V16.84h-7.122m8.44 8.4v7.122h7.122V25.24h-7.122m-8.44 0v7.122h7.122V25.24h-7.122m-8.44-8.4v7.122h7.122V16.84h-7.12m0 8.4v7.122h7.122V25.24H7.336m13.224 31.3c.437 0 .865.143 1.196.443.298.225.522.523.67.896 1.12 1.27 2.4 2.015 3.806 2.015 1.568 0 2.9-.896 4.105-2.388a1.89 1.89 0 0 1 1.641-.903 2.29 2.29 0 0 1 .598.081c.448.15.895.373 1.194.822 1.194 1.567 2.612 2.388 4.105 2.388 1.567 0 2.9-.896 4.105-2.388a1.89 1.89 0 0 1 1.64-.903 2.35 2.35 0 0 1 .598.08c.448.15.896.373 1.194.822 1.194 1.567 2.613 2.388 4.105 2.388 1.567 0 2.9-.896 4.104-2.388a2.1 2.1 0 0 1 1.715-.893c.437 0 .865.143 1.196.443.97.598 1.194 2.016.448 2.837C55.117 62.506 52.43 64 49.67 64c-2.164 0-4.104-.822-5.82-2.314C42.206 63.178 40.265 64 38.1 64s-4.105-.822-5.82-2.314C30.712 63.178 28.697 64 26.533 64s-4.105-.822-5.82-2.314C19.07 63.178 17.055 64 14.965 64c-2.9 0-5.524-1.568-7.538-4.106-.672-.97-.597-2.24.223-2.76.45-.386.943-.564 1.4-.564.618 0 1.193.3 1.576.863C11.82 59 13.163 59.82 14.73 59.82s2.9-.896 4.105-2.387a2.1 2.1 0 0 1 1.715-.893" fill="#8ecef1"/><path d="M14.74 58.28c.97 0 1.9-.58 2.875-1.777.682-.946 1.778-1.505 2.944-1.504a3.31 3.31 0 0 1 2.176.795 3.52 3.52 0 0 1 .994 1.23c.836.895 1.656 1.33 2.503 1.33.964 0 1.9-.575 2.86-1.757a3.42 3.42 0 0 1 2.887-1.535c.01 0 .02.004.032.004V20.7a5.16 5.16 0 0 0-2.162.446l-15.592 6.93-10.694 4.82c-.904.376-1.356 1.43-1.055 2.4l10.87 22.6c.538.3 1.003.364 1.36.364" fill="#427abe"/><path d="M60.435 32.905l-10.694-4.82-15.6-6.93c-.68-.303-1.417-.455-2.162-.446v34.356c.336.001.67.046.994.134l.086.026c.324.108 1.3.435 1.954 1.38.62.806 1.613 1.75 2.856 1.75.964 0 1.9-.575 2.86-1.757a3.42 3.42 0 0 1 2.886-1.535 3.87 3.87 0 0 1 1.002.135l.085.026c.324.1 1.3.435 1.954 1.38.62.806 1.614 1.75 2.857 1.75.337 0 .67-.097 1.002-.24l10.968-22.8c.3-.98-.15-2.034-1.055-2.4" fill="#2a4f83"/></svg>