<svg xmlns="http://www.w3.org/2000/svg" width="120" height="60" viewBox="-0.082 -42.217 120 60"><path d="M103.752-3.726a.44.44 0 0 1-.466-.466v-13.66h-4.64a.45.45 0 0 1-.466-.466V-20.2a.45.45 0 0 1 .466-.467h12.35a.44.44 0 0 1 .465.467v1.884a.45.45 0 0 1-.465.466h-4.64v13.658a.45.45 0 0 1-.466.466h-2.14m-35.55-6.82l-2.436-6.988-2.457 6.988zm5.402 6.267c.106.276-.063.552-.36.552H71.05a.59.59 0 0 1-.615-.446l-1.25-3.6h-6.842l-1.25 3.6a.59.59 0 0 1-.614.446h-2.075c-.276 0-.467-.276-.36-.552l5.74-15.965c.106-.297.297-.424.614-.424h2.84c.318 0 .53.126.636.424l5.74 15.965M90.07-6.014c1.355 0 2.267-.655 3.008-1.778l-3.43-3.685c-1.314.742-2.162 1.482-2.162 2.965 0 1.46 1.186 2.5 2.585 2.5m.953-12.4c-1.1 0-1.737.7-1.737 1.63 0 .72.38 1.355 1.25 2.287 1.504-.87 2.14-1.398 2.14-2.33 0-.87-.55-1.6-1.652-1.6M100.4-4.32c.275.297.106.593-.234.593h-2.7a.87.87 0 0 1-.784-.361l-1.6-1.778c-1.08 1.44-2.585 2.52-5.085 2.52-3.093 0-5.53-1.863-5.53-5.06 0-2.457 1.314-3.77 3.306-4.87-.975-1.122-1.42-2.308-1.42-3.345 0-2.627 1.843-4.426 4.617-4.426 2.84 0 4.576 1.674 4.576 4.15 0 2.118-1.525 3.302-3.135 4.192l2.373 2.563 1.334-2.33c.17-.275.36-.38.7-.38h2.054c.34 0 .53.234.32.593L96.83-8.194l3.58 3.876m-21.14.593a.45.45 0 0 0 .467-.466v-13.66h4.64a.45.45 0 0 0 .466-.466V-20.2a.45.45 0 0 0-.466-.467H72.02a.45.45 0 0 0-.466.467v1.884a.45.45 0 0 0 .466.466h4.64v13.658a.45.45 0 0 0 .466.466z"/><path d="M16.57 4.513a21.17 21.17 0 0 0 12.994 4.452c5.354 0 10.235-1.988 13.96-5.25.045-.04.023-.066-.022-.04-1.672 1.116-6.436 3.553-13.938 3.553-6.52 0-10.64-1.455-12.967-2.753-.045-.022-.06.01-.028.04m14.433 1.083c5.215 0 10.945-1.422 14.372-4.235.938-.767 1.83-1.787 2.63-3.158a20.32 20.32 0 0 0 1.278-2.648c.016-.045-.01-.067-.045-.016C46.05.24 36.82 3.156 27.3 3.156c-6.736 0-13.983-2.154-16.82-6.267-.028-.038-.056-.022-.04.022C13.074 2.53 21.093 5.598 31 5.598m-5.698-9.32c-10.846 0-15.96-5.05-16.887-8.498-.01-.05-.044-.04-.044.006 0 1.16.116 2.658.316 3.652.095.484.5 1.243 1.066 1.85 2.63 2.732 9.176 6.57 20.516 6.57 15.45 0 18.982-5.146 19.703-6.84.516-1.2.783-3.398.783-5.235a22.91 22.91 0 0 0-.028-1.148c0-.057-.033-.06-.044-.006-.772 4.14-13.972 9.647-25.378 9.647m-14.9-17.58a21.7 21.7 0 0 0-1.515 4.39c-.1.46-.052.683.1 1.027 1.3 2.758 7.875 7.17 23.212 7.17 9.357 0 16.626-2.3 17.803-6.494.217-.772.228-1.588-.05-2.686-.3-1.228-.894-2.66-1.388-3.665-.016-.033-.045-.028-.04.01.183 5.502-15.16 9.048-22.902 9.048-8.386 0-15.38-3.34-15.38-7.56 0-.405.084-.8.2-1.233.01-.04-.022-.045-.04-.01M43.56-28.06a.85.85 0 0 1 .133.49c0 2.354-7.203 6.517-18.67 6.517-8.425 0-10.002-3.125-10.002-5.113 0-.7.272-1.437.873-2.176.033-.044.005-.06-.033-.028a21.15 21.15 0 0 0-2.982 3.098c-.422.533-.683 1.005-.683 1.288 0 4.12 10.328 7.106 19.986 7.106 10.3 0 14.882-3.36 14.882-6.3 0-1.055-.4-1.67-1.46-2.865-.682-.777-1.327-1.4-2-2.032-.033-.027-.056-.005-.033.028M40.416-30.4c-3.176-1.904-6.864-2.987-10.84-2.987-4.004 0-7.802 1.12-11 3.075-.956.588-1.494 1.06-1.494 1.666 0 1.787 4.176 3.708 11.583 3.708 7.33 0 13.017-2.104 13.017-4.13 0-.483-.423-.822-1.278-1.332" fill="#00a8e0"/></svg>