<svg xmlns="http://www.w3.org/2000/svg" width="120" height="60" fill="#115fab"><path d="M13.795 20.196C8.943 20.196 5 24.13 5 28.983a8.8 8.8 0 0 0 8.795 8.795c4.86 0 8.795-3.935 8.795-8.795s-3.943-8.787-8.795-8.787zm0 16.44c-4.277 0-7.745-3.43-7.745-7.652s3.468-7.652 7.745-7.652 7.745 3.43 7.745 7.652c0 4.23-3.468 7.652-7.745 7.652zm34.005-13.9H37.784l-6.897 9.1h10.42c1.314 0 2.558-.614 3.352-1.664l.956-1.268a1.01 1.01 0 0 0-.101-1.33l-.07-.07c.94-.2 1.773-.747 2.356-1.516l.988-1.268c.614-.8.04-1.975-.988-1.975zm-7 5.9l-.692.918a.9.9 0 0 1-.723.358H37.27l1.338-1.757h1.96c.25-.008.4.28.233.482zm2.667-3.507l-.56.74a.97.97 0 0 1-.785.39h-2.076l1.236-1.633h1.936c.257 0 .404.295.25.505zm19.505-2.383H55c-1.338 0-2.597.622-3.406 1.687l-4.114 5.42c-.614.817-.04 1.983.98 1.983h7.924a4.35 4.35 0 0 0 3.46-1.719l4.1-5.397c.63-.8.047-1.975-.972-1.975zm-4.34 2.465l-3.227 4.26a1.16 1.16 0 0 1-.933.467h-1.384c-.25 0-.4-.28-.233-.474l3.32-4.37c.2-.272.537-.435.88-.435h1.314c.28-.016.443.32.264.552zm19.62-2.465H68.3l-6.897 9.1h9.96L72.8 29.93h-5l1.338-1.757h5l1.43-1.897h-4.992l1.236-1.633h4.946z"/><path d="M79.138 31.837H74.13l6.897-9.1h5.008zm14.884 0h-3.958l-1.02-4.54-3.445 4.54h-3.33l6.897-9.1h3.865l1.034 4.58 3.476-4.58h3.375zM108.9 25.88h5.023l.824-1.1a1.27 1.27 0 0 0-1.011-2.037h-7.854c-1.353 0-2.636.638-3.453 1.72l-4.06 5.35a1.27 1.27 0 0 0 1.011 2.03h7.784c1.407 0 2.737-.66 3.593-1.78l.918-1.205h1.112l1.462-1.913h-6.143l-1.944 2.566a1.1 1.1 0 0 1-.871.435h-1.376a.32.32 0 0 1-.257-.513l3.274-4.324c.218-.28.552-.45.902-.45h1.353c.264 0 .412.303.257.513zm-73.378 9.332l-15.272.622-3.196-6.027c5.88 5.7 18.678 4.705 18.468 5.404zm-27.1 5.054c-1.1-.964-.334-4.13 2.208-8.328 5.296-8.756 12.566-14.526 12.566-14.526-5.568 3.344-8.74 6.68-11.44 10C6.2 34.255 4.37 40.7 6.72 42.358c.995.7 4.378-.062 7.076-4.145-1.524 1.37-4.176 3.1-5.373 2.053z"/></svg>