<?xml version="1.0" encoding="utf-8"?>
<!-- Generator: Adobe Illustrator 23.0.3, SVG Export Plug-In . SVG Version: 6.00 Build 0)  -->
<svg version="1.1"
	 id="svg2" xmlns:cc="http://creativecommons.org/ns#" xmlns:dc="http://purl.org/dc/elements/1.1/" xmlns:rdf="http://www.w3.org/1999/02/22-rdf-syntax-ns#" xmlns:svg="http://www.w3.org/2000/svg"
	 xmlns="http://www.w3.org/2000/svg" xmlns:xlink="http://www.w3.org/1999/xlink" x="0px" y="0px" viewBox="0 0 120 60"
	 style="enable-background:new 0 0 120 60;" xml:space="preserve">
<style type="text/css">
	.st0{fill:#231F20;}
	.st1{fill:none;}
	.st2{fill:#4D4D4D;}
	.st3{fill:url(#XMLID_3_);}
	.st4{fill:url(#XMLID_4_);}
	.st5{fill:url(#XMLID_5_);}
	.st6{fill:url(#XMLID_6_);}
	.st7{fill:url(#XMLID_7_);}
	.st8{fill:url(#XMLID_8_);}
	.st9{fill:url(#XMLID_9_);}
	.st10{fill:url(#XMLID_10_);}
	.st11{fill:url(#XMLID_11_);}
</style>
<g>
	<g id="XMLID_686_">
		<g id="XMLID_228_">
			<path id="XMLID_229_" class="st0" d="M63.01,26.59c0.19,0.21,0.42,0.38,0.68,0.5c0.26,0.12,0.56,0.18,0.88,0.18
				c0.26,0,0.49-0.04,0.68-0.11c0.19-0.07,0.35-0.16,0.49-0.25c0.13-0.1,0.24-0.19,0.31-0.29c0.07-0.1,0.12-0.16,0.15-0.21
				l0.02-0.03l-0.3-0.21l-0.02,0.03c-0.03,0.04-0.07,0.09-0.13,0.17c-0.06,0.07-0.14,0.15-0.25,0.23c-0.1,0.08-0.23,0.15-0.39,0.21
				c-0.15,0.06-0.33,0.09-0.53,0.09c-0.28,0-0.53-0.05-0.74-0.15c-0.22-0.1-0.4-0.24-0.55-0.42c-0.15-0.18-0.27-0.39-0.35-0.63
				c-0.08-0.24-0.12-0.5-0.12-0.78c0-0.28,0.04-0.54,0.12-0.78c0.08-0.24,0.19-0.45,0.34-0.63c0.15-0.18,0.33-0.32,0.55-0.42
				c0.21-0.1,0.46-0.15,0.74-0.15c0.22,0,0.4,0.03,0.56,0.09c0.15,0.06,0.28,0.13,0.39,0.21c0.1,0.08,0.18,0.15,0.24,0.23
				c0.06,0.08,0.1,0.13,0.13,0.17l0.02,0.03l0.3-0.21l-0.02-0.03c-0.03-0.05-0.08-0.12-0.15-0.21c-0.07-0.1-0.18-0.19-0.31-0.29
				c-0.13-0.1-0.3-0.18-0.49-0.25c-0.19-0.07-0.42-0.11-0.68-0.11c-0.32,0-0.62,0.06-0.88,0.18c-0.27,0.12-0.5,0.29-0.68,0.5
				c-0.19,0.21-0.34,0.47-0.44,0.75c-0.1,0.28-0.15,0.59-0.15,0.92c0,0.33,0.05,0.65,0.15,0.94C62.68,26.12,62.82,26.38,63.01,26.59
				z"/>
			<polygon id="XMLID_230_" class="st0" points="69.91,26.78 67.43,26.78 67.43,25 69.24,25 69.24,24.62 67.43,24.62 67.43,23.03 
				69.74,23.03 69.74,22.65 67.03,22.65 67.03,27.16 69.91,27.16 			"/>
			<polygon id="XMLID_231_" class="st0" points="71.06,23.35 73.8,27.14 73.81,27.16 74.2,27.16 74.2,22.65 73.81,22.65 
				73.81,26.51 71.08,22.67 71.06,22.65 70.67,22.65 70.67,27.16 71.06,27.16 			"/>
			<polygon id="XMLID_232_" class="st0" points="76.6,27.16 77,27.16 77,23.02 78.7,23.02 78.7,22.65 74.9,22.65 74.9,23.02 
				76.6,23.02 			"/>
			<polygon id="XMLID_233_" class="st0" points="82.27,26.78 79.79,26.78 79.79,25 81.6,25 81.6,24.62 79.79,24.62 79.79,23.03 
				82.1,23.03 82.1,22.65 79.39,22.65 79.39,27.16 82.27,27.16 			"/>
			<path id="XMLID_236_" class="st0" d="M83.43,25.24h1.23l1.02,1.92h0.46l-1.05-1.97c0.3-0.08,0.53-0.23,0.67-0.45
				c0.15-0.23,0.23-0.5,0.23-0.79c0-0.19-0.03-0.36-0.08-0.51c-0.06-0.16-0.15-0.3-0.28-0.41c-0.13-0.12-0.29-0.21-0.5-0.27
				c-0.2-0.06-0.45-0.09-0.74-0.09h-1.36v4.51h0.4V25.24z M85.57,23.94c0,0.62-0.34,0.91-1.04,0.91h-1.1v-1.83h1.06
				c0.36,0,0.63,0.08,0.81,0.23C85.48,23.41,85.57,23.64,85.57,23.94z"/>
			<polygon id="XMLID_237_" class="st0" points="88.67,25 90.48,25 90.48,24.62 88.67,24.62 88.67,23.03 90.98,23.03 90.98,22.65 
				88.27,22.65 88.27,27.16 88.67,27.16 			"/>
			<path id="XMLID_240_" class="st0" d="M91.99,26.58c0.2,0.21,0.43,0.38,0.7,0.5c0.27,0.12,0.57,0.18,0.89,0.18
				c0.32,0,0.62-0.06,0.89-0.18c0.27-0.12,0.5-0.29,0.7-0.5c0.2-0.21,0.35-0.46,0.46-0.75c0.11-0.29,0.17-0.6,0.17-0.93
				c0-0.33-0.06-0.64-0.17-0.92c-0.11-0.29-0.27-0.54-0.46-0.75c-0.2-0.21-0.43-0.38-0.7-0.5c-0.27-0.12-0.57-0.18-0.89-0.18
				c-0.32,0-0.62,0.06-0.89,0.18c-0.27,0.12-0.5,0.29-0.7,0.5c-0.2,0.21-0.35,0.47-0.46,0.75c-0.11,0.29-0.17,0.6-0.17,0.92
				c0,0.33,0.06,0.64,0.17,0.93C91.64,26.12,91.79,26.37,91.99,26.58z M91.78,24.91c0-0.27,0.04-0.53,0.13-0.78
				c0.09-0.24,0.21-0.45,0.36-0.63c0.16-0.18,0.35-0.32,0.57-0.42c0.22-0.1,0.47-0.16,0.74-0.16c0.27,0,0.52,0.05,0.74,0.16
				c0.22,0.1,0.41,0.24,0.57,0.42c0.16,0.18,0.28,0.39,0.36,0.63c0.09,0.24,0.13,0.5,0.13,0.78c0,0.27-0.04,0.53-0.13,0.77
				c-0.09,0.24-0.21,0.45-0.36,0.63c-0.15,0.18-0.35,0.32-0.57,0.42c-0.22,0.1-0.47,0.15-0.74,0.15c-0.27,0-0.52-0.05-0.74-0.15
				c-0.22-0.1-0.41-0.24-0.57-0.42c-0.16-0.18-0.28-0.39-0.36-0.63C91.82,25.44,91.78,25.18,91.78,24.91z"/>
			<path id="XMLID_243_" class="st0" d="M97.11,25.24h1.23l1.02,1.92h0.46l-1.05-1.97c0.3-0.08,0.53-0.23,0.67-0.45
				c0.15-0.23,0.23-0.5,0.23-0.79c0-0.19-0.03-0.36-0.08-0.51c-0.06-0.16-0.15-0.3-0.28-0.41c-0.13-0.12-0.29-0.21-0.5-0.27
				c-0.2-0.06-0.45-0.09-0.74-0.09h-1.36v4.51h0.4V25.24z M99.25,23.94c0,0.62-0.34,0.91-1.04,0.91h-1.1v-1.83h1.06
				c0.36,0,0.63,0.08,0.81,0.23C99.15,23.41,99.25,23.64,99.25,23.94z"/>
			<path id="XMLID_246_" class="st0" d="M65.65,30.49c-0.22-0.18-0.49-0.32-0.79-0.41c-0.3-0.09-0.64-0.13-1-0.13h-1.24v4.51h1.24
				c0.36,0,0.7-0.04,1-0.13c0.3-0.09,0.57-0.23,0.79-0.41c0.22-0.18,0.39-0.42,0.52-0.71c0.12-0.28,0.18-0.62,0.18-1.01
				c0-0.39-0.06-0.73-0.18-1.01C66.04,30.91,65.87,30.67,65.65,30.49z M65.93,32.2c0,0.32-0.05,0.6-0.14,0.83
				c-0.09,0.23-0.23,0.43-0.4,0.58c-0.17,0.15-0.39,0.27-0.63,0.35c-0.25,0.08-0.53,0.11-0.83,0.11h-0.9v-3.75h0.85
				c0.32,0,0.61,0.04,0.86,0.11c0.25,0.08,0.47,0.19,0.65,0.35c0.18,0.15,0.31,0.35,0.41,0.58C65.88,31.61,65.93,31.88,65.93,32.2z"
				/>
			<polygon id="XMLID_247_" class="st0" points="70.15,34.08 67.66,34.08 67.66,32.3 69.47,32.3 69.47,31.92 67.66,31.92 
				67.66,30.33 69.98,30.33 69.98,29.95 67.27,29.95 67.27,34.46 70.15,34.46 			"/>
			<polygon id="XMLID_248_" class="st0" points="74.89,29.95 74.52,29.95 72.99,32.54 71.49,29.95 71.08,29.95 70.88,34.46 
				71.28,34.46 71.43,30.64 72.83,33.04 72.84,33.07 73.09,33.07 74.54,30.63 74.69,34.42 74.69,34.46 75.09,34.46 74.89,29.99 			
				"/>
			<path id="XMLID_251_" class="st0" d="M80.34,32.21c0-0.33-0.06-0.64-0.17-0.92c-0.11-0.29-0.27-0.54-0.46-0.75
				c-0.2-0.21-0.43-0.38-0.7-0.5c-0.27-0.12-0.57-0.18-0.89-0.18c-0.32,0-0.62,0.06-0.89,0.18c-0.27,0.12-0.5,0.29-0.7,0.5
				c-0.2,0.21-0.35,0.47-0.46,0.75c-0.11,0.29-0.17,0.6-0.17,0.92c0,0.33,0.06,0.64,0.17,0.93c0.11,0.28,0.27,0.54,0.46,0.75
				c0.2,0.21,0.43,0.38,0.7,0.5c0.27,0.12,0.57,0.18,0.89,0.18c0.32,0,0.62-0.06,0.89-0.18c0.27-0.12,0.5-0.29,0.7-0.5
				c0.2-0.21,0.35-0.46,0.46-0.75C80.29,32.85,80.34,32.54,80.34,32.21z M79.92,32.21c0,0.27-0.04,0.53-0.13,0.77
				c-0.09,0.24-0.21,0.45-0.36,0.63c-0.16,0.18-0.35,0.32-0.57,0.42c-0.22,0.1-0.47,0.15-0.74,0.15c-0.27,0-0.52-0.05-0.74-0.15
				c-0.22-0.1-0.41-0.24-0.57-0.42c-0.16-0.18-0.28-0.39-0.36-0.63c-0.09-0.24-0.13-0.5-0.13-0.77c0-0.27,0.04-0.53,0.13-0.78
				c0.09-0.24,0.21-0.45,0.36-0.63c0.16-0.18,0.35-0.32,0.57-0.42c0.22-0.1,0.47-0.16,0.74-0.16s0.52,0.05,0.74,0.16
				c0.22,0.1,0.41,0.25,0.57,0.42c0.16,0.18,0.28,0.39,0.36,0.63C79.88,31.67,79.92,31.94,79.92,32.21z"/>
			<path id="XMLID_252_" class="st0" d="M84.83,33.7l0.02-0.03l-0.3-0.21l-0.02,0.03c-0.03,0.04-0.07,0.09-0.13,0.17
				c-0.06,0.07-0.14,0.15-0.25,0.23c-0.1,0.08-0.23,0.15-0.39,0.21c-0.15,0.06-0.33,0.09-0.53,0.09c-0.28,0-0.53-0.05-0.74-0.15
				c-0.22-0.1-0.4-0.24-0.55-0.42c-0.15-0.18-0.27-0.39-0.35-0.63c-0.08-0.24-0.12-0.5-0.12-0.78c0-0.28,0.04-0.54,0.12-0.78
				c0.08-0.24,0.19-0.45,0.34-0.63c0.15-0.18,0.33-0.32,0.55-0.42c0.21-0.1,0.46-0.15,0.73-0.15c0.22,0,0.4,0.03,0.56,0.09
				c0.15,0.06,0.28,0.13,0.39,0.21c0.1,0.08,0.18,0.15,0.24,0.23c0.06,0.08,0.1,0.13,0.13,0.17l0.02,0.03l0.3-0.21l-0.02-0.03
				c-0.03-0.05-0.08-0.12-0.15-0.21c-0.07-0.1-0.18-0.19-0.31-0.29c-0.13-0.1-0.3-0.18-0.49-0.25c-0.19-0.07-0.42-0.11-0.68-0.11
				c-0.32,0-0.62,0.06-0.88,0.18c-0.27,0.12-0.5,0.29-0.68,0.5c-0.19,0.21-0.34,0.47-0.44,0.75c-0.1,0.28-0.15,0.59-0.15,0.92
				c0,0.34,0.05,0.65,0.15,0.94c0.1,0.29,0.25,0.54,0.44,0.75c0.19,0.21,0.42,0.38,0.68,0.5c0.26,0.12,0.56,0.18,0.88,0.18
				c0.26,0,0.49-0.04,0.68-0.11c0.19-0.07,0.35-0.16,0.49-0.25c0.13-0.1,0.24-0.19,0.31-0.29C84.75,33.82,84.8,33.75,84.83,33.7z"/>
			<path id="XMLID_255_" class="st0" d="M88.38,32.03c0.15-0.23,0.23-0.5,0.23-0.79c0-0.19-0.03-0.36-0.08-0.51
				c-0.06-0.16-0.15-0.3-0.28-0.41c-0.13-0.12-0.29-0.21-0.5-0.27c-0.2-0.06-0.45-0.09-0.74-0.09h-1.36v4.51h0.4v-1.92h1.23
				l1.02,1.92h0.46l-1.05-1.97C88.01,32.41,88.24,32.25,88.38,32.03z M88.19,31.25c0,0.62-0.34,0.91-1.04,0.91h-1.1v-1.83h1.06
				c0.36,0,0.63,0.08,0.81,0.23C88.1,30.71,88.19,30.94,88.19,31.25z"/>
			<path id="XMLID_258_" class="st0" d="M89.29,34.46h0.43l0.56-1.43h2.01l0.57,1.43h0.45l-1.82-4.48l-0.01-0.03h-0.37l-1.8,4.45
				L89.29,34.46z M90.44,32.65l0.85-2.14l0.85,2.14H90.44z"/>
			<path id="XMLID_259_" class="st0" d="M94.45,30.79c0.15-0.18,0.33-0.32,0.55-0.42c0.21-0.1,0.46-0.15,0.73-0.15
				c0.22,0,0.4,0.03,0.56,0.09c0.15,0.06,0.28,0.13,0.39,0.21c0.1,0.08,0.18,0.15,0.24,0.23c0.06,0.08,0.1,0.13,0.13,0.17l0.02,0.03
				l0.3-0.21l-0.02-0.03c-0.03-0.05-0.08-0.12-0.15-0.21c-0.07-0.1-0.18-0.19-0.31-0.29c-0.13-0.1-0.3-0.18-0.49-0.25
				c-0.19-0.07-0.42-0.11-0.68-0.11c-0.32,0-0.62,0.06-0.88,0.18c-0.27,0.12-0.5,0.29-0.68,0.5c-0.19,0.21-0.34,0.47-0.44,0.75
				c-0.1,0.28-0.15,0.59-0.15,0.92c0,0.34,0.05,0.65,0.15,0.94c0.1,0.29,0.25,0.54,0.44,0.75c0.19,0.21,0.42,0.38,0.68,0.5
				c0.26,0.12,0.56,0.18,0.88,0.18c0.26,0,0.49-0.04,0.68-0.11c0.19-0.07,0.35-0.16,0.49-0.25c0.13-0.1,0.24-0.19,0.31-0.29
				c0.07-0.09,0.12-0.16,0.15-0.21l0.02-0.03l-0.3-0.21l-0.02,0.03c-0.03,0.04-0.07,0.09-0.13,0.17c-0.06,0.07-0.14,0.15-0.25,0.23
				c-0.1,0.08-0.23,0.15-0.39,0.21c-0.15,0.06-0.33,0.09-0.53,0.09c-0.28,0-0.53-0.05-0.74-0.15c-0.22-0.1-0.4-0.24-0.55-0.42
				c-0.15-0.18-0.27-0.39-0.35-0.63c-0.08-0.24-0.12-0.5-0.12-0.78c0-0.28,0.04-0.54,0.12-0.78C94.19,31.18,94.3,30.97,94.45,30.79z
				"/>
			<polygon id="XMLID_260_" class="st0" points="98.18,29.97 98.17,29.95 97.69,29.95 99.23,32.4 99.23,34.46 99.63,34.46 
				99.63,32.4 101.18,29.95 100.71,29.95 99.44,32 			"/>
			<path id="XMLID_263_" class="st0" d="M65.99,40l-0.3-0.22l-0.58,0.79L63.71,39c-0.15-0.17-0.26-0.33-0.34-0.47
				c-0.07-0.13-0.11-0.28-0.11-0.42c0-0.07,0.01-0.15,0.04-0.22c0.03-0.07,0.07-0.14,0.13-0.19c0.05-0.06,0.13-0.1,0.21-0.14
				c0.08-0.04,0.18-0.05,0.3-0.05c0.16,0,0.3,0.04,0.42,0.11c0.12,0.07,0.24,0.22,0.35,0.44l0.02,0.04l0.3-0.18l-0.02-0.03
				c-0.12-0.25-0.26-0.44-0.42-0.56c-0.16-0.12-0.39-0.18-0.66-0.18c-0.17,0-0.33,0.03-0.46,0.08c-0.13,0.06-0.24,0.13-0.33,0.22
				c-0.09,0.09-0.16,0.2-0.21,0.32c-0.05,0.12-0.07,0.24-0.07,0.36c0,0.18,0.03,0.34,0.1,0.49c0.06,0.15,0.15,0.28,0.25,0.4
				l0.16,0.2c-0.27,0.18-0.49,0.38-0.67,0.59c-0.18,0.23-0.28,0.52-0.28,0.84c0,0.17,0.03,0.33,0.09,0.48
				c0.06,0.15,0.15,0.28,0.27,0.39c0.12,0.11,0.26,0.2,0.42,0.26c0.16,0.06,0.35,0.09,0.56,0.09c0.16,0,0.31-0.02,0.45-0.06
				c0.13-0.04,0.26-0.1,0.37-0.16c0.11-0.07,0.22-0.15,0.31-0.23c0.08-0.08,0.16-0.16,0.24-0.24l0.55,0.6h0.5l-0.81-0.91L65.99,40z
				 M64.86,40.88c-0.06,0.07-0.13,0.14-0.2,0.21c-0.08,0.07-0.16,0.14-0.25,0.2c-0.09,0.06-0.19,0.1-0.3,0.14
				c-0.11,0.03-0.23,0.05-0.35,0.05c-0.15,0-0.28-0.02-0.4-0.07c-0.12-0.04-0.21-0.11-0.29-0.18c-0.08-0.08-0.14-0.17-0.18-0.27
				c-0.04-0.1-0.06-0.22-0.06-0.33c0-0.26,0.07-0.48,0.2-0.65c0.13-0.17,0.32-0.33,0.57-0.49L64.86,40.88z"/>
			<polygon id="XMLID_264_" class="st0" points="67.68,37.62 69.39,37.62 69.39,41.76 69.78,41.76 69.78,37.62 71.49,37.62 
				71.49,37.25 67.68,37.25 			"/>
			<polygon id="XMLID_265_" class="st0" points="72.58,39.6 74.38,39.6 74.38,39.22 72.58,39.22 72.58,37.63 74.89,37.63 
				74.89,37.25 72.18,37.25 72.18,41.76 75.06,41.76 75.06,41.38 72.58,41.38 			"/>
			<path id="XMLID_266_" class="st0" d="M76.27,38.1c0.15-0.18,0.33-0.32,0.55-0.42c0.21-0.1,0.46-0.15,0.73-0.15
				c0.22,0,0.4,0.03,0.56,0.09c0.15,0.06,0.28,0.13,0.39,0.21c0.1,0.08,0.18,0.15,0.24,0.23c0.06,0.08,0.1,0.13,0.13,0.17l0.02,0.03
				l0.3-0.21l-0.02-0.03c-0.03-0.05-0.08-0.12-0.15-0.21c-0.07-0.1-0.18-0.19-0.31-0.29c-0.13-0.1-0.3-0.18-0.49-0.25
				c-0.19-0.07-0.42-0.11-0.68-0.11c-0.32,0-0.62,0.06-0.88,0.18c-0.27,0.12-0.5,0.29-0.68,0.5c-0.19,0.21-0.34,0.47-0.44,0.75
				c-0.1,0.28-0.15,0.59-0.15,0.92c0,0.34,0.05,0.65,0.15,0.94c0.1,0.29,0.25,0.54,0.44,0.75c0.19,0.21,0.42,0.38,0.68,0.5
				c0.26,0.12,0.56,0.18,0.88,0.18c0.26,0,0.49-0.04,0.68-0.11c0.19-0.07,0.35-0.16,0.49-0.25c0.13-0.1,0.24-0.19,0.31-0.29
				c0.07-0.09,0.12-0.16,0.15-0.21l0.02-0.03l-0.3-0.21l-0.02,0.03c-0.03,0.04-0.07,0.09-0.13,0.17c-0.06,0.07-0.14,0.15-0.25,0.23
				c-0.1,0.08-0.23,0.15-0.39,0.21c-0.15,0.06-0.33,0.09-0.53,0.09c-0.28,0-0.53-0.05-0.74-0.15c-0.22-0.1-0.4-0.24-0.55-0.42
				c-0.15-0.18-0.27-0.39-0.35-0.63c-0.08-0.24-0.12-0.5-0.12-0.78c0-0.28,0.04-0.54,0.12-0.78C76,38.48,76.12,38.27,76.27,38.1z"/>
			<polygon id="XMLID_267_" class="st0" points="83.07,39.22 80.39,39.22 80.39,37.25 79.99,37.25 79.99,41.76 80.39,41.76 
				80.39,39.6 83.07,39.6 83.07,41.76 83.46,41.76 83.46,37.25 83.07,37.25 			"/>
			<polygon id="XMLID_268_" class="st0" points="87.74,41.11 85,37.27 84.99,37.25 84.6,37.25 84.6,41.76 84.99,41.76 84.99,37.95 
				87.73,41.74 87.74,41.76 88.13,41.76 88.13,37.25 87.74,37.25 			"/>
			<path id="XMLID_271_" class="st0" d="M92.85,37.83c-0.2-0.21-0.43-0.38-0.7-0.5c-0.27-0.12-0.57-0.18-0.89-0.18
				c-0.32,0-0.62,0.06-0.89,0.18c-0.27,0.12-0.5,0.29-0.7,0.5c-0.2,0.21-0.35,0.47-0.46,0.75c-0.11,0.29-0.17,0.6-0.17,0.92
				c0,0.33,0.06,0.64,0.17,0.93c0.11,0.28,0.27,0.54,0.46,0.75c0.2,0.21,0.43,0.38,0.7,0.5c0.27,0.12,0.57,0.18,0.89,0.18
				c0.32,0,0.62-0.06,0.89-0.18c0.27-0.12,0.5-0.29,0.7-0.5c0.2-0.21,0.35-0.46,0.46-0.75c0.11-0.29,0.17-0.6,0.17-0.93
				c0-0.33-0.06-0.64-0.17-0.92C93.2,38.3,93.05,38.04,92.85,37.83z M93.06,39.51c0,0.27-0.04,0.53-0.13,0.77
				c-0.09,0.24-0.21,0.45-0.36,0.63c-0.16,0.18-0.35,0.32-0.57,0.42c-0.22,0.1-0.47,0.15-0.74,0.15c-0.27,0-0.52-0.05-0.74-0.15
				c-0.22-0.1-0.41-0.24-0.57-0.42c-0.16-0.18-0.28-0.39-0.36-0.63c-0.09-0.24-0.13-0.5-0.13-0.77s0.04-0.53,0.13-0.78
				c0.09-0.24,0.21-0.45,0.36-0.63c0.16-0.18,0.35-0.32,0.57-0.42c0.22-0.1,0.47-0.16,0.74-0.16c0.27,0,0.52,0.05,0.74,0.16
				c0.22,0.1,0.41,0.25,0.57,0.42c0.16,0.18,0.28,0.39,0.36,0.63C93.02,38.98,93.06,39.24,93.06,39.51z"/>
			<polygon id="XMLID_272_" class="st0" points="94.8,37.25 94.4,37.25 94.4,41.76 97.28,41.76 97.28,41.38 94.8,41.38 			"/>
			<path id="XMLID_275_" class="st0" d="M101.31,37.83c-0.2-0.21-0.43-0.38-0.7-0.5c-0.27-0.12-0.57-0.18-0.89-0.18
				c-0.32,0-0.62,0.06-0.89,0.18c-0.27,0.12-0.5,0.29-0.7,0.5c-0.2,0.21-0.35,0.47-0.46,0.75c-0.11,0.29-0.17,0.6-0.17,0.92
				c0,0.33,0.06,0.64,0.17,0.93c0.11,0.28,0.27,0.54,0.46,0.75c0.2,0.21,0.43,0.38,0.7,0.5c0.27,0.12,0.57,0.18,0.89,0.18
				c0.32,0,0.62-0.06,0.89-0.18c0.27-0.12,0.5-0.29,0.7-0.5c0.2-0.21,0.35-0.46,0.46-0.75c0.11-0.29,0.17-0.6,0.17-0.93
				c0-0.33-0.06-0.64-0.17-0.92C101.66,38.3,101.5,38.04,101.31,37.83z M101.52,39.51c0,0.27-0.04,0.53-0.13,0.77
				c-0.09,0.24-0.21,0.45-0.36,0.63c-0.16,0.18-0.35,0.32-0.57,0.42c-0.22,0.1-0.47,0.15-0.74,0.15c-0.27,0-0.52-0.05-0.74-0.15
				c-0.22-0.1-0.41-0.24-0.57-0.42c-0.16-0.18-0.28-0.39-0.36-0.63c-0.09-0.24-0.13-0.5-0.13-0.77s0.04-0.53,0.13-0.78
				c0.09-0.24,0.21-0.45,0.36-0.63c0.16-0.18,0.35-0.32,0.57-0.42c0.22-0.1,0.47-0.16,0.74-0.16c0.27,0,0.52,0.05,0.74,0.16
				c0.22,0.1,0.41,0.25,0.57,0.42c0.16,0.18,0.28,0.39,0.36,0.63C101.47,38.98,101.52,39.24,101.52,39.51z"/>
			<path id="XMLID_276_" class="st0" d="M104.96,39.96h1.17v1.16c-0.13,0.09-0.3,0.18-0.51,0.25c-0.21,0.07-0.49,0.11-0.82,0.11
				c-0.27,0-0.51-0.05-0.73-0.15c-0.22-0.1-0.4-0.24-0.55-0.42c-0.15-0.18-0.27-0.39-0.35-0.63c-0.08-0.24-0.12-0.5-0.12-0.78
				c0-0.28,0.04-0.54,0.12-0.78c0.08-0.24,0.2-0.45,0.35-0.63c0.15-0.18,0.34-0.32,0.56-0.42c0.22-0.1,0.47-0.15,0.75-0.15
				c0.2,0,0.38,0.03,0.52,0.09c0.15,0.06,0.28,0.13,0.38,0.21c0.1,0.08,0.19,0.15,0.25,0.23c0.06,0.08,0.1,0.13,0.13,0.17l0.02,0.03
				l0.3-0.21l-0.02-0.03c-0.03-0.05-0.08-0.12-0.15-0.21c-0.07-0.1-0.18-0.19-0.31-0.29c-0.13-0.1-0.29-0.18-0.48-0.25
				c-0.19-0.07-0.42-0.11-0.68-0.11c-0.32,0-0.62,0.06-0.88,0.18c-0.27,0.12-0.5,0.29-0.69,0.5c-0.19,0.21-0.34,0.47-0.44,0.75
				c-0.1,0.28-0.16,0.59-0.16,0.92c0,0.34,0.05,0.67,0.16,0.95c0.1,0.29,0.25,0.54,0.44,0.75c0.19,0.21,0.42,0.37,0.69,0.49
				c0.27,0.11,0.56,0.17,0.88,0.17c0.22,0,0.41-0.02,0.59-0.05c0.18-0.03,0.34-0.07,0.47-0.13c0.14-0.05,0.26-0.11,0.37-0.18
				c0.11-0.07,0.2-0.13,0.28-0.2l0.01-0.01v-1.72h-1.57V39.96z"/>
			<polygon id="XMLID_277_" class="st0" points="109.93,37.25 108.65,39.3 107.39,37.27 107.38,37.25 106.9,37.25 108.45,39.7 
				108.45,41.76 108.85,41.76 108.85,39.7 110.39,37.25 			"/>
		</g>
		<g id="XMLID_202_">
			<path id="XMLID_224_" class="st1" d="M34.03,23.63c0.16-0.01,0.31-0.01,0.47-0.01C34.34,23.62,34.19,23.62,34.03,23.63z"/>
			<path id="XMLID_223_" class="st2" d="M33.97,23.63c0.02,0,0.04,0,0.06,0C34.01,23.63,33.99,23.63,33.97,23.63z"/>
			<linearGradient id="XMLID_3_" gradientUnits="userSpaceOnUse" x1="30.8902" y1="28.7326" x2="44.8055" y2="28.7326">
				<stop  offset="0" style="stop-color:#373634"/>
				<stop  offset="0.3127" style="stop-color:#696967"/>
				<stop  offset="0.5337" style="stop-color:#9B9B99"/>
				<stop  offset="0.7713" style="stop-color:#9B9B99"/>
				<stop  offset="1" style="stop-color:#E1E1E1"/>
			</linearGradient>
			<path id="XMLID_222_" class="st3" d="M40.67,34.4c1.99-2.26,3-3.93,4.13-5.58c-0.68-2.05-2.13-4.05-4.13-5.27c0,0,0,0,0,0
				c-5.22-1.88-8.41,1.78-9.78,7.06c0.61-2.1,2.53-3.64,4.8-3.64c2.62,0,4.77,2.04,4.98,4.64c0.01,0.14,0.02,0.28,0.02,0.42
				c0,0.14-0.01,0.28-0.02,0.42V34.4z"/>
			<linearGradient id="XMLID_4_" gradientUnits="userSpaceOnUse" x1="43.0733" y1="42.3034" x2="43.0733" y2="11.6604">
				<stop  offset="0" style="stop-color:#373634"/>
				<stop  offset="0.3163" style="stop-color:#696967"/>
				<stop  offset="0.5337" style="stop-color:#9B9B99"/>
				<stop  offset="1" style="stop-color:#C3C3C2"/>
			</linearGradient>
			<polygon id="XMLID_221_" class="st4" points="40.67,14.8 40.67,23.56 40.67,31.34 40.67,34.73 40.67,41.9 45.47,41.9 
				45.47,34.22 45.47,26.15 45.47,9.73 			"/>
			<linearGradient id="XMLID_5_" gradientUnits="userSpaceOnUse" x1="53.6899" y1="40.6626" x2="58.931" y2="35.7048">
				<stop  offset="0" style="stop-color:#404041"/>
				<stop  offset="0.3127" style="stop-color:#626366"/>
				<stop  offset="0.5337" style="stop-color:#929497"/>
				<stop  offset="0.7713" style="stop-color:#BBBDBF"/>
				<stop  offset="1" style="stop-color:#DBDCDD"/>
			</linearGradient>
			<path id="XMLID_219_" class="st5" d="M57.56,41.45c-2.86-0.23-3.12-3.29-3.12-5.93C54.33,36.08,53.46,41.17,57.56,41.45z"/>
			<linearGradient id="XMLID_6_" gradientUnits="userSpaceOnUse" x1="53.7816" y1="42.3034" x2="53.7816" y2="11.6606">
				<stop  offset="0" style="stop-color:#373634"/>
				<stop  offset="0.3163" style="stop-color:#696967"/>
				<stop  offset="0.5337" style="stop-color:#9B9B99"/>
				<stop  offset="1" style="stop-color:#C3C3C2"/>
			</linearGradient>
			<path id="XMLID_218_" class="st6" d="M57.56,41.45c-2.86-0.23-3.12-3.29-3.12-5.93c0-0.57,0.01-1.13,0.01-1.63v-1.16v-1.36v-2.22
				v-2.04v-4.85v-0.82v-4.14h-4.8v4.96v6.51v1.49v1.8c0,0.22,0.01,0.43,0.02,0.64v4.88c0,0.79,0.13,1.46,0.39,2.01
				c0.26,0.55,0.63,1,1.1,1.35c0.47,0.35,1.01,0.6,1.64,0.75c0.62,0.16,1.31,0.24,2.05,0.24c1.48,0,3.07-0.44,3.07-0.44
				C57.79,41.46,57.67,41.45,57.56,41.45z"/>
			<path id="XMLID_217_" class="st1" d="M27.68,26.41c-0.29,0.4-0.53,0.83-0.75,1.28c0.23-0.46,0.49-0.91,0.78-1.33
				C27.7,26.38,27.69,26.4,27.68,26.41z"/>
			<path id="XMLID_216_" class="st1" d="M32,22.91c0.11-0.04,0.21-0.09,0.32-0.13C32.21,22.82,32.11,22.86,32,22.91z"/>
			<path id="XMLID_215_" class="st1" d="M32.35,22.77c0.89-0.33,1.83-0.53,2.82-0.58C34.17,22.24,33.22,22.44,32.35,22.77z"/>
			<polygon id="XMLID_214_" class="st1" points="40.67,23.56 40.67,23.56 40.67,23.56 			"/>
			<path id="XMLID_213_" class="st1" d="M35.22,22.19c0.16-0.01,0.31-0.01,0.47-0.01C35.53,22.17,35.38,22.18,35.22,22.19z"/>
			<path id="XMLID_212_" class="st1" d="M30.81,30.91c0.02-0.1,0.05-0.2,0.08-0.3C30.86,30.71,30.84,30.81,30.81,30.91z"/>
			<path id="XMLID_211_" class="st1" d="M40.67,31.62c-0.21-2.6-2.36-4.64-4.98-4.64c-2.27,0-4.19,1.53-4.8,3.64
				c-0.03,0.1-0.05,0.2-0.08,0.3c-0.08,0.36-0.13,0.74-0.13,1.13c0,2.79,2.24,5.06,5,5.06c1.48,0,2.8-0.65,3.72-1.68
				c-0.07,0.07-0.13,0.13-0.2,0.2c0.07-0.07,0.13-0.13,0.2-0.2c0.71-0.8,1.17-1.83,1.26-2.96V31.62z"/>
			<path id="XMLID_210_" class="st2" d="M32.32,22.78c0.01,0,0.02-0.01,0.02-0.01C32.34,22.77,32.33,22.78,32.32,22.78z"/>
			<path id="XMLID_209_" class="st2" d="M26.49,28.78c0.14-0.37,0.28-0.73,0.45-1.08C26.76,28.05,26.61,28.41,26.49,28.78z"/>
			<path id="XMLID_208_" class="st2" d="M35.17,22.19c0.02,0,0.04,0,0.06,0C35.2,22.19,35.18,22.19,35.17,22.19z"/>
			<path id="XMLID_207_" class="st2" d="M40.69,32.04c0-0.14-0.01-0.28-0.02-0.42v0.85C40.69,32.32,40.69,32.18,40.69,32.04z"/>
			<linearGradient id="XMLID_7_" gradientUnits="userSpaceOnUse" x1="44.7209" y1="29.3712" x2="58.0887" y2="29.3712">
				<stop  offset="0" style="stop-color:#002B3E"/>
				<stop  offset="0.1365" style="stop-color:#114C63"/>
				<stop  offset="0.3492" style="stop-color:#2A7896"/>
				<stop  offset="0.5491" style="stop-color:#3D9CBF"/>
				<stop  offset="0.7303" style="stop-color:#4BB5DC"/>
				<stop  offset="0.8866" style="stop-color:#53C5EE"/>
				<stop  offset="1" style="stop-color:#56CAF4"/>
			</linearGradient>
			<path id="XMLID_206_" class="st7" d="M58.09,26.98c0,0-7.53-1.17-13.37,9.52l2.21-9.85c0,0,2.9-4.41,11.16-4.41V26.98z"/>
			<linearGradient id="XMLID_8_" gradientUnits="userSpaceOnUse" x1="28.9188" y1="42.7446" x2="49.7926" y2="21.8707">
				<stop  offset="0" style="stop-color:#373634"/>
				<stop  offset="0.3127" style="stop-color:#696967"/>
				<stop  offset="0.5337" style="stop-color:#9B9B99"/>
				<stop  offset="0.7713" style="stop-color:#9B9B99"/>
				<stop  offset="1" style="stop-color:#E1E1E1"/>
			</linearGradient>
			<path id="XMLID_205_" class="st8" d="M35.69,41.91c-3.34,0-6.28-1.7-8.04-4.28c1.57-1.73,2.35-3.37,3.16-6.71c0,0,0,0,0-0.01
				c-0.08,0.36-0.13,0.74-0.13,1.13c0,2.79,2.24,5.06,5,5.06c1.48,0,3.1-0.74,4.01-1.77c2.35-2.4,4.8-7.74,8.31-10.34
				c3.71-2.75,6.72-2.75,10.07-2.75c0,0-1.44,0.18-3.14,0.97c-2,0.94-4.6,2.73-6.4,6.09c-1.17,2.19-2.26,4.64-3.08,6.03
				c-0.55,0.94-1.25,1.96-2.52,3.29c-0.66,0.74-1.42,1.38-2.27,1.89C39.22,41.4,37.51,41.91,35.69,41.91z"/>
			<linearGradient id="XMLID_9_" gradientUnits="userSpaceOnUse" x1="14.0456" y1="40.5964" x2="35.2875" y2="19.3544">
				<stop  offset="0" style="stop-color:#373634"/>
				<stop  offset="0.3127" style="stop-color:#696967"/>
				<stop  offset="0.5337" style="stop-color:#9B9B99"/>
				<stop  offset="0.7713" style="stop-color:#9B9B99"/>
				<stop  offset="1" style="stop-color:#E1E1E1"/>
			</linearGradient>
			<path id="XMLID_204_" class="st9" d="M35.69,22.17c-0.16,0-0.31,0-0.47,0.01c-0.02,0-0.04,0-0.06,0
				c-0.99,0.05-1.93,0.25-2.82,0.58c-0.01,0-0.02,0.01-0.02,0.01c-0.11,0.04-0.21,0.08-0.32,0.13c-1.7,0.72-3.15,1.92-4.29,3.46
				c-0.29,0.42-0.55,0.86-0.78,1.33c-0.16,0.35-0.31,0.71-0.45,1.08c-0.83,2.22-1.39,4.82-3.59,6.84c-0.91,0.92-2.16,1.48-3.54,1.48
				c-2.76,0-5-2.27-5-5.06c0-1.96,1.06-3.74,2.71-4.5c-4.26,1.95-6.12,7.89-2.22,13.25c1.35,0.71,2.88,1.12,4.51,1.12
				c2.69,0,5.13-1.1,6.9-2.89c0.53-0.49,0.99-0.94,1.39-1.39c2.44-2.48,3.43-6.91,3.46-7.01c1.37-5.28,4.37-7.93,9.56-7.06
				C39.21,22.68,37.51,22.17,35.69,22.17z"/>
			<linearGradient id="XMLID_10_" gradientUnits="userSpaceOnUse" x1="2.9254" y1="43.6594" x2="23.5942" y2="22.9905">
				<stop  offset="0" style="stop-color:#373634"/>
				<stop  offset="0.3127" style="stop-color:#696967"/>
				<stop  offset="0.5337" style="stop-color:#9B9B99"/>
				<stop  offset="0.7713" style="stop-color:#9B9B99"/>
				<stop  offset="1" style="stop-color:#E1E1E1"/>
			</linearGradient>
			<path id="XMLID_203_" class="st10" d="M17.07,27.54c0.49-0.26,1.03-0.43,1.6-0.51c0.01,0,0.02,0,0.04,0
				c0.06-0.01,0.12-0.02,0.18-0.02c0.03,0,0.07-0.01,0.1-0.01c0.04,0,0.09-0.01,0.13-0.01c0.08,0,0.16-0.01,0.24-0.01
				c1.38,0,2.63,0.57,3.54,1.48l3.36-3.4c-1.77-1.79-4.2-2.89-6.9-2.89c-5.39,0-9.75,4.42-9.75,9.87c0,3.8,2.13,7.1,5.24,8.75
				C11.5,35.4,13.47,29.38,17.07,27.54z"/>
		</g>
	</g>
	<linearGradient id="XMLID_11_" gradientUnits="userSpaceOnUse" x1="51.9955" y1="42.6451" x2="59.428" y2="35.2126">
		<stop  offset="0" style="stop-color:#373634"/>
		<stop  offset="0.3127" style="stop-color:#696967"/>
		<stop  offset="0.5337" style="stop-color:#9B9B99"/>
		<stop  offset="1" style="stop-color:#E1E1E1"/>
	</linearGradient>
	<path id="XMLID_1_" class="st11" d="M56.13,37.63c-0.64-0.06-1.68-0.5-1.68-2.17c0,0,0,0.02-0.01,0.05c0,2.64,0.26,5.7,3.12,5.93
		c0.12,0.01,0.23,0.01,0.36,0.01v-4.24C57.91,37.22,57.32,37.75,56.13,37.63z"/>
</g>
</svg>
