<svg xmlns="http://www.w3.org/2000/svg" width="120" height="60"><path d="M38.606 7.5h42.788v41.62H38.606z" fill="#261300"/><path d="M36.66 5.566v45.5h46.68v-45.5zm1.945 1.945h42.788v41.62H38.606zm14.257 23.825l-1.536 5.835c-.04.156-.097.194-.292.194h-2.86c-.194 0-.233-.058-.194-.292l5.524-19.332c.097-.35.156-.66.194-1.614 0-.136.058-.194.156-.194h4.084c.136 0 .194.04.233.194l6.185 20.985c.04.156 0 .253-.156.253h-3.23c-.156 0-.253-.04-.292-.175l-1.614-5.854zm5.407-3.15l-2.314-9.14h-.04c-.408 2.276-1.44 6.126-2.256 9.14zm8.75-10.816c0-1.245.875-1.984 1.984-1.984 1.186 0 1.984.797 1.984 1.984 0 1.284-.836 1.984-2.023 1.984-1.128 0-1.945-.7-1.945-1.984zm.233 4.415c0-.156.058-.233.233-.233h3.053c.156 0 .233.058.233.233V37.13c0 .156-.04.233-.233.233h-3.015c-.194 0-.253-.097-.253-.253V21.786z" fill="#ff7c00"/></svg>