<?xml version="1.0" encoding="UTF-8" standalone="no"?>
<!-- Generator: Adobe Illustrator 16.0.0, SVG Export Plug-In . SVG Version: 6.00 Build 0)  -->

<svg
   xmlns:dc="http://purl.org/dc/elements/1.1/"
   xmlns:cc="http://creativecommons.org/ns#"
   xmlns:rdf="http://www.w3.org/1999/02/22-rdf-syntax-ns#"
   xmlns:svg="http://www.w3.org/2000/svg"
   xmlns="http://www.w3.org/2000/svg"
   xmlns:sodipodi="http://sodipodi.sourceforge.net/DTD/sodipodi-0.dtd"
   xmlns:inkscape="http://www.inkscape.org/namespaces/inkscape"
   version="1.1"
   id="svg3100"
   sodipodi:docname="nbc-wordmark.svg"
   inkscape:version="0.92.3 (2405546, 2018-03-11)"
   x="0px"
   y="0px"
   width="100"
   height="60"
   viewBox="0 0 100 60"
   enable-background="new 0 0 567.188 559"
   xml:space="preserve"><metadata
     id="metadata18"><rdf:RDF><cc:Work
         rdf:about=""><dc:format>image/svg+xml</dc:format><dc:type
           rdf:resource="http://purl.org/dc/dcmitype/StillImage" /><dc:title></dc:title></cc:Work></rdf:RDF></metadata><defs
     id="defs16" /><sodipodi:namedview
     inkscape:cx="79.259469"
     inkscape:cy="52.241196"
     showgrid="false"
     inkscape:zoom="3.703125"
     gridtolerance="10"
     bordercolor="#666666"
     guidetolerance="10"
     objecttolerance="10"
     pagecolor="#ffffff"
     id="namedview3102"
     borderopacity="1"
     inkscape:window-height="1001"
     inkscape:pageopacity="0"
     inkscape:window-width="1920"
     inkscape:window-y="-9"
     inkscape:window-maximized="1"
     inkscape:current-layer="svg3100"
     inkscape:pageshadow="2"
     inkscape:window-x="-9" /><g
     id="g838"
     transform="matrix(2.4827968,0,0,2.4827968,-6.7428702,-98.967803)"><path
       style="stroke-width:0.07907405"
       id="path3127"
       inkscape:connector-curvature="0"
       d="m 21.815699,53.02962 h 2.723152 c 0.62595,0.03938 1.735596,0.585939 1.735596,1.880302 0,1.353827 -1.151634,1.900071 -1.775607,1.961748 h -2.683141 v -3.84205 m -0.04151,-6.027103 h 2.241433 c 0.766149,0.04136 1.6721,0.607526 1.6721,1.658658 0,1.031046 -0.684939,1.7182 -1.571122,1.840685 h -2.342411 v -3.499343 m -3.064436,-2.50815 V 59.37729 h 7.221359 c 1.714009,0 3.75151,-1.717884 3.75151,-3.962638 0,-2.345336 -1.532218,-3.497208 -2.501666,-3.962638 0,0 1.775134,-1.031126 1.696218,-3.256111 -0.08074,-2.992953 -2.845559,-3.701536 -3.79342,-3.701536 h -6.374001" /><polygon
       transform="matrix(0.07907405,0,0,0.07907405,-9.1050156e-4,15.797604)"
       id="polygon3129"
       points="96.549,442.719 214.919,558.285 214.919,362.91 175.143,362.91 175.143,468.543 56.745,355.256 56.745,551.125 96.549,551.125 " /><path
       style="stroke-width:0.07907405"
       id="path3131"
       inkscape:connector-curvature="0"
       d="m 30.188297,51.774636 c 0.07892,4.706567 3.460596,8.225362 7.807929,8.225362 1.030731,0 2.116655,-0.195076 3.226459,-0.622708 V 56.3448 c -0.879541,0.537466 -1.85824,0.796592 -2.817171,0.796592 -2.630794,0 -5.113086,-1.946724 -5.010369,-5.487581 0.177284,-2.872286 2.528709,-4.855621 5.062874,-4.855621 0.928013,0 1.882516,0.267349 2.764666,0.85139 v -2.951201 c -1.028595,-0.416958 -2.051023,-0.603415 -3.03589,-0.603415 -4.336421,-7.9e-5 -7.915233,3.657808 -7.998498,7.679672" /></g></svg>