<svg xmlns="http://www.w3.org/2000/svg" width="64" height="64"><path d="M64 52.8C64 59 59 64 52.8 64H11.2C5 64 0 59 0 52.8V11.2C0 5 5 0 11.2 0h41.6C59 0 64 5 64 11.2z" fill="#ffc90c"/><path d="M49.393 44.914c0 1.5.77 3.136 4.526 3.136v.98H39.617v-.98c3.753 0 4.526-1.647 4.526-3.136V19.756L30.97 49.03h-.718l-12.916-28.1v23.974c0 1.5.773 3.136 5 3.136v.98H10.08v-.98c4.22 0 5-1.647 5-3.136V19.086c0-1.495-.77-3.136-4.887-3.136v-.98H20.38l11.885 25.98 11.37-25.98h10.238v.98c-3.753 0-4.526 1.643-4.526 3.136z" fill-rule="evenodd"/></svg>