<svg xmlns="http://www.w3.org/2000/svg" width="64" height="64" preserveAspectRatio="xMidYMid" fill="#e92429"><path d="M39.915 15.252h4.465l2.977 2.977v-5.953c0-1.624-1.353-2.977-2.977-2.977h-.27c-.677-1.76-2.165-2.977-4.195-2.977-2.436 0-4.465 2.03-4.465 4.465.135 2.436 2.03 4.465 4.465 4.465zm2.977 26.52h16.372l-1.218-2.977H2.977v-2.977h53.987l-1.218-2.977H3.112v-2.977h51.552l-1.218-2.977h-5.953V23.9l2.977-2.977h-8.93l2.977 2.977v2.977h-21.38L21.92 23.9h2.977l-1.218-2.977H0V46.1c0 4.06 3.383 7.442 7.442 7.442 3.518 0 6.63-2.977 7.307-5.953h.27c.677 2.977 3.653 5.953 7.307 5.953 3.518 0 6.63-2.977 7.307-5.953h.27c.677 2.977 3.653 5.953 7.307 5.953 4.06 0 7.442-3.383 7.442-7.442-.27-1.488-.812-2.977-1.76-4.33zm-23.95-17.725l1.218 2.977h-7.036l-1.218-2.977zm-15.966 0H8.93l1.218 2.977h-7.17zm4.465 23.68h4.195c-.54 1.76-2.165 2.977-4.195 2.977-2.436 0-4.465-2.03-4.465-4.465a4.51 4.51 0 0 1 4.465-4.465c1.894 0 3.518 1.218 4.195 2.977H7.442c-.812 0-1.488.677-1.488 1.488s.677 1.488 1.488 1.488zm14.76 2.975c-1.894 0-3.518-1.218-4.195-2.977h8.4c-.677 1.76-2.3 2.977-4.195 2.977zm-4.195-5.953c.677-1.76 2.3-2.977 4.195-2.977S25.718 43 26.395 44.75zm18.943 5.953c-1.894 0-3.518-1.218-4.195-2.977h4.195c.812 0 1.488-.677 1.488-1.488s-.677-1.488-1.488-1.488h-4.195c.677-1.76 2.3-2.977 4.195-2.977 2.436 0 4.465 2.03 4.465 4.465s-1.894 4.465-4.465 4.465zm23.398-5.954h-13v1.488c0 2.84-1.218 5.548-3.112 7.442H64z"/></svg>