<svg xmlns="http://www.w3.org/2000/svg" width="120" height="60"><g transform="matrix(.130378 0 0 .130378 7.478125 16.758631)" fill="none" fill-rule="evenodd"><path d="M361.34 105.123h-26.772V54.348h26.958c15.617 0 25.285 9.3 25.285 25.1s-9.668 25.666-25.47 25.666m2.974-66.77h-41.832c-4.1 0-6.135 2.046-6.135 6.138v119.033c0 4.092 2.045 6.138 6.135 6.138h5.95c4.1 0 6.135-2.046 6.135-6.138V121.12h29.747c23.984 0 41.1-16.74 41.1-41.66s-17.104-41.104-41.1-41.104m107.46 89.272c0 13.95-9.668 29.944-25.47 29.944-11.527 0-17.477-7.626-17.477-15.065 0-17.855 24.914-18.97 38.114-18.97h4.834zm-19.15-54.3c-14.316 0-24.913 4.836-30.5 7.997-3.347 1.86-3.905 4.836-2.046 8.37l1.488 2.604c2.045 3.348 4.834 3.905 8.367 2.23 4.276-2.417 11.898-5.95 21.195-5.95 11.527 0 20.45 5.208 20.45 20.644v2.418h-4.834c-19.52 0-56.147 3.16-56.147 32.362 0 17.67 15.06 27.898 31.606 27.898 21.94 0 30.677-19.714 30.677-19.714h.372s-.558 2.23-.558 5.765v5.58c0 4.1 2.23 6.138 6.135 6.138h4.648c3.905 0 6.135-2.046 6.135-6.138v-53.38c0-23.807-13.572-36.826-36.998-36.826zm114.715-.008a39.02 39.02 0 0 0-35.697 22.133h-.372s.558-2.604.558-5.394v-8.37c0-4.1-2.046-6.137-6.135-6.137h-5.206c-3.905 0-6.135 2.046-6.135 6.137v81.835c0 4.092 2.23 6.138 6.135 6.138h5.763c4.1 0 6.135-2.046 6.135-6.138v-38.872c0-19.53 13.2-34.78 31.42-34.78 15.06 0 17.662 10.416 17.662 23.62v50.03c0 4.092 2.23 6.138 6.135 6.138h5.764c4.1 0 6.135-2.046 6.135-6.138V109.4c0-23.992-10.04-36.082-32.164-36.082m96.118 82.952c-15.617 0-26.586-13.205-26.586-33.664 0-21.388 12.27-33.478 26.958-33.478 18.035 0 26.773 16.553 26.773 33.292 0 23.992-13.2 33.85-27.144 33.85m38.486-117.917h-5.764c-4.1 0-6.135 2.046-6.135 6.138v38.686c0 3.534.558 6.323.558 6.323h-.372s-7.622-16.18-29.2-16.18c-24.913 0-42.575 19.343-42.575 49.287 0 29.2 16 49.287 41.46 49.287 23.054 0 31.048-18.04 31.048-18.04h.372s-.372 2.046-.372 4.65v5.394c0 3.72 2.046 5.765 6.135 5.765h4.834c4.1 0 6.135-2.046 6.135-6.138V44.5c0-4.1-2.046-6.138-6.135-6.138m85.904 89.266c0 13.95-9.668 29.944-25.47 29.944-11.527 0-17.477-7.626-17.477-15.065 0-17.855 24.914-18.97 38.114-18.97h4.834zm-19.15-54.3c-14.316 0-24.913 4.836-30.5 7.997-3.347 1.86-3.905 4.836-2.046 8.37l1.488 2.604c2.045 3.348 4.834 3.905 8.367 2.23 4.275-2.417 11.898-5.95 21.195-5.95 11.527 0 20.45 5.208 20.45 20.644v2.418h-4.834c-19.52 0-56.147 3.16-56.147 32.362 0 17.67 15.06 27.898 31.606 27.898 21.94 0 30.677-19.714 30.677-19.714h.372s-.558 2.23-.558 5.765v5.58c0 4.1 2.23 6.138 6.135 6.138h4.648c3.905 0 6.135-2.046 6.135-6.138v-53.38c0-23.807-13.572-36.826-36.998-36.826zm-554.226.337h10.075c20.15 0 36.507-16.4 36.507-36.578S244.684.5 224.535.5s-36.5 16.4-36.5 36.577V47.17c-.1 14.6 11.77 26.484 26.434 26.484m-167.886.001H36.508c-20.15 0-36.507-16.4-36.507-36.578S16.36.5 36.508.5s36.5 16.4 36.5 36.577V47.17c.1 14.6-11.77 26.484-26.434 26.484" fill="#000"/><path d="M185.333 191.58c-33.217 15.09-71.82 15.4-105.235.8l-2.893-1.298c-33.715-14.59-55.26-46.272-55.26-80.95v-8.495C21.944 45.572 70.622 0 130.572 0s108.626 45.472 108.626 101.637v9.495c0 34.278-20.948 65.558-53.865 80.45" fill="#fff"/><path d="M185.333 191.58c-33.217 15.09-71.82 15.4-105.235.8l-2.893-1.298c-33.715-14.59-55.26-46.272-55.26-80.95v-8.495C21.944 45.572 70.622 0 130.572 0s108.626 45.472 108.626 101.637v9.495c0 34.278-20.948 65.558-53.865 80.45z" stroke="#000" stroke-width="12.72"/><path d="M53.883 69.018c10.645-17.126 30.842-22.5 45.113-12.004s17.21 32.9 6.564 50.016-30.843 22.5-45.113 12.004-17.2-32.9-6.564-50.016" fill="#000"/><path d="M182.51 178.124l-.008.004c-31.59 14.35-67.923 14.625-99.627.783l-2.946-1.323c-31.16-13.485-51.296-42.895-51.296-74.926v8.374c0 32.03 20.135 61.44 51.295 74.926l2.946 1.323c31.705 13.842 68.038 13.567 99.627-.783l.008-.004c30.37-13.74 49.996-42.97 49.996-74.47v-8.374c0 31.5-19.624 60.73-49.996 74.47" fill="#e6e6e6"/><path d="M145.047 137.13l-9.65 6.056c-2.97 1.806-6.68 1.806-9.544 0l-9.65-6.056c-2.65-1.7-4.242-4.57-4.242-7.65 0-4.994 4.03-9.03 9.014-9.03h19.3c4.984 0 9.014 4.037 9.014 9.03 0 3.08-1.59 6.056-4.242 7.65" fill="#000"/><g stroke="#010202" stroke-linecap="round"><path d="M157.455 151.26c-14.847 14.875-38.92 14.875-53.767 0" stroke-width="10.6"/><path d="M130.624 162.417v-21.994" stroke-width="8.48"/></g><path d="M75.11 72.654c3.78-6.08 10.947-7.987 16.012-4.26s6.107 11.674 2.33 17.752-10.947 7.986-16.012 4.26-6.108-11.674-2.33-17.752" fill="#fff"/><path d="M207.365 69.018c-10.645-17.126-30.842-22.5-45.113-12.004s-17.21 32.9-6.564 50.016 30.843 22.5 45.113 12.004 17.2-32.9 6.564-50.016" fill="#000"/><path d="M186.137 72.654c-3.78-6.08-10.947-7.987-16.012-4.26s-6.107 11.674-2.33 17.752 10.947 7.986 16.012 4.26 6.108-11.674 2.33-17.752" fill="#fff"/></g></svg>