<?xml version="1.0" encoding="UTF-8" standalone="no"?>
<!-- Generator: Adobe Illustrator 22.0.1, SVG Export Plug-In . SVG Version: 6.00 Build 0)  -->

<svg
   xmlns:dc="http://purl.org/dc/elements/1.1/"
   xmlns:cc="http://creativecommons.org/ns#"
   xmlns:rdf="http://www.w3.org/1999/02/22-rdf-syntax-ns#"
   xmlns:svg="http://www.w3.org/2000/svg"
   xmlns="http://www.w3.org/2000/svg"
   xmlns:xlink="http://www.w3.org/1999/xlink"
   xmlns:sodipodi="http://sodipodi.sourceforge.net/DTD/sodipodi-0.dtd"
   xmlns:inkscape="http://www.inkscape.org/namespaces/inkscape"
   version="1.1"
   x="0px"
   y="0px"
   viewBox="0 0 64 64"
   xml:space="preserve"
   id="svg112"
   sodipodi:docname="regexplanet-icon.svg"
   width="64"
   height="64"
   inkscape:version="0.91 r13725"><metadata
     id="metadata118"><rdf:RDF><cc:Work
         rdf:about=""><dc:format>image/svg+xml</dc:format><dc:type
           rdf:resource="http://purl.org/dc/dcmitype/StillImage" /><dc:title /></cc:Work></rdf:RDF></metadata><defs
     id="defs116" /><sodipodi:namedview
     pagecolor="#ffffff"
     bordercolor="#666666"
     borderopacity="1"
     objecttolerance="10"
     gridtolerance="10"
     guidetolerance="10"
     inkscape:pageopacity="0"
     inkscape:pageshadow="2"
     inkscape:window-width="1855"
     inkscape:window-height="1056"
     id="namedview114"
     showgrid="false"
     inkscape:zoom="8"
     inkscape:cx="27.922023"
     inkscape:cy="32.095277"
     inkscape:window-x="65"
     inkscape:window-y="24"
     inkscape:window-maximized="1"
     inkscape:current-layer="svg112" /><style
     type="text/css"
     id="style2">
	.st0{display:none;}
	.st1{display:inline;}
	.st2{display:inline;fill:none;stroke:#000000;stroke-width:20;stroke-miterlimit:10;}
	.st3{display:inline;fill:none;stroke:#000000;stroke-miterlimit:10;}
	.st4{display:inline;fill:#33134E;}
	.st5{fill:#33134E;}
</style><ellipse
     style="opacity:1;fill:#ffffff;fill-opacity:1;stroke:none;stroke-width:1;stroke-linecap:square;stroke-miterlimit:4;stroke-dasharray:none;stroke-dashoffset:0;stroke-opacity:1"
     id="path3389"
     cx="32.25"
     cy="33.9375"
     rx="20.125"
     ry="20.0625" /><g
     id="Layer_1"
     class="st0"
     style="display:none"
     transform="translate(0,-1520)"><image
       sodipodi:absref="/home/amarcuse/site/vectorlogozone/www/logos/regexplanet/../../../../../tmp/planet.png"
       xlink:href="../../../../../tmp/planet.png"
       id="image4"
       transform="translate(624,306)"
       height="324"
       width="445"
       style="display:inline;overflow:visible" /><g
       class="st1"
       id="g10"
       style="display:inline"><path
         d="m 929.2,739.5 c -3.9,-12.7 -21.8,-19 -51.7,-18.3 -6.2,0.1 -12.8,0.6 -19.7,1.3 -4.8,0.5 -9.8,1.2 -14.9,1.9 3.8,3.1 7.2,6.5 10.4,10.2 4.6,-0.6 9.2,-1 13.5,-1.4 3.8,-0.3 7.4,-0.5 11,-0.5 1.4,0 2.7,0 4,0 12.2,0 21,1.3 26.8,3.3 5.9,2 8.9,4.5 9.6,6.9 1.6,5.1 -4.8,16.3 -27.8,31.1 -2.2,1.4 -4.5,2.8 -6.9,4.2 -3.5,2.1 -7.3,4.2 -11.2,6.2 -19.6,10.3 -43.5,20 -69.3,27.9 -28.2,8.7 -55.8,14.3 -79.3,16.4 -4.4,0.4 -8.7,0.7 -12.8,0.8 -0.6,0 -1.1,0 -1.7,0.1 -27.4,0.6 -38.9,-5.1 -40.4,-10.2 -1.5,-5.1 4.8,-16.3 27.8,-31.1 1.2,-0.8 2.5,-1.6 3.7,-2.3 3.7,-2.3 7.7,-4.6 11.9,-6.8 0.5,-4.9 1.4,-9.7 2.7,-14.3 -4.7,2.3 -9.1,4.7 -13.3,7.1 -3.9,2.2 -7.6,4.5 -11.1,6.7 -25.2,16.2 -36.4,31.5 -32.6,44.1 3.7,12 20,18.4 47.4,18.4 1.4,0 2.8,0 4.3,0 2.7,-0.1 5.6,-0.2 8.4,-0.4 4.4,-0.3 9,-0.7 13.8,-1.2 22.7,-2.6 48.5,-8.1 74.7,-16.2 23.8,-7.3 46.1,-16.1 65.2,-25.6 4.2,-2.1 8.3,-4.2 12.2,-6.4 0,0 0,0 0,0 4.5,-2.5 8.8,-5.1 12.8,-7.7 25.1,-16.3 36.4,-31.5 32.5,-44.2 z"
         id="path6"
         inkscape:connector-curvature="0" /><path
         d="m 883.5,778.2 c -1.5,-16.7 -7.5,-32.1 -16.8,-45 -2.7,-3.8 -5.7,-7.4 -9,-10.7 -16.7,-17.1 -39.9,-27.7 -65.6,-27.7 -45.6,0 -83.5,33.4 -90.6,77 -0.7,4.6 -1.2,9.3 -1.2,14.1 0,0.2 0,0.5 0,0.7 0,15.5 3.8,30 10.6,42.8 2.1,3.9 4.4,7.6 7,11.2 16.7,22.9 43.7,37.7 74.2,37.7 49,0 89.2,-38.6 91.7,-87.1 0,0 0,0 0,0 0.1,-1.6 0.1,-3.1 0.1,-4.7 0,-2.7 -0.1,-5.5 -0.4,-8.3 z m -91.4,88.7 c -24.1,0 -45.7,-10.6 -60.4,-27.4 -2.9,-3.4 -5.6,-7 -8,-10.8 -7.6,-12.2 -11.9,-26.6 -11.9,-42.1 0,-2.5 0.1,-5.1 0.4,-7.5 0.5,-4.9 1.4,-9.7 2.7,-14.3 9.6,-33.7 40.6,-58.4 77.2,-58.4 19.2,0 36.9,6.8 50.7,18.1 3.8,3.1 7.2,6.5 10.4,10.2 11.5,13.5 18.6,30.9 19.1,49.8 0,0.7 0,1.5 0,2.2 0,3.8 -0.3,7.5 -0.8,11.1 -5.3,39 -38.9,69.1 -79.4,69.1 z"
         id="path8"
         inkscape:connector-curvature="0" /></g><ellipse
       transform="matrix(0.9561,-0.2931,0.2931,0.9561,-154.9476,156.9913)"
       class="st2"
       cx="446.29999"
       cy="595.5"
       rx="236.60001"
       ry="66.699997"
       id="ellipse12"
       style="display:inline;fill:none;stroke:#000000;stroke-width:20;stroke-miterlimit:10" /><path
       class="st1"
       d="M 443.9,764.6 C 356,764.6 284.4,693 284.4,605.1 c 0,-87.9 71.6,-159.5 159.5,-159.5 87.9,0 159.5,71.6 159.5,159.5 0,87.9 -71.5,159.5 -159.5,159.5 z m 0,-299 c -76.9,0 -139.5,62.6 -139.5,139.5 0,76.9 62.6,139.5 139.5,139.5 76.9,0 139.5,-62.6 139.5,-139.5 0,-76.9 -62.5,-139.5 -139.5,-139.5 z"
       id="path14"
       inkscape:connector-curvature="0"
       style="display:inline" /><path
       class="st1"
       d="m 380.4,973 c -1.9,-10.8 -5.4,-21 -10.3,-30.3 -3.5,-6.9 -7.8,-13.3 -12.7,-19.2 -19.5,-23.5 -49,-38.5 -81.9,-38.5 -52.5,0 -96.3,38.2 -104.9,88.3 -1,5.9 -1.6,12 -1.6,18.2 0,1.6 0,3.2 0.1,4.8 0.5,11.1 2.7,21.8 6.3,31.7 2.5,6.8 5.7,13.4 9.5,19.5 18.8,30.3 52.4,50.6 90.6,50.6 57.7,0 104.8,-46.1 106.5,-103.4 0,-1 0,-2.1 0,-3.1 0,-6.4 -0.5,-12.6 -1.6,-18.6 z m -104.9,105 c -27.5,0 -52,-12.9 -67.9,-32.9 -4.5,-5.7 -8.4,-12 -11.3,-18.8 -4.7,-10.7 -7.3,-22.4 -7.3,-34.8 0,-1.5 0,-3 0.1,-4.5 0.4,-8.2 2,-16.1 4.5,-23.5 11.7,-34 44,-58.5 81.8,-58.5 21.8,0 41.7,8.1 56.9,21.4 6,5.3 11.3,11.4 15.7,18.1 7.2,11 11.9,23.8 13.4,37.5 0.4,3.1 0.5,6.3 0.5,9.5 0,4.2 -0.3,8.4 -0.9,12.4 -5.9,41.9 -42,74.1 -85.5,74.1 z"
       id="path16"
       inkscape:connector-curvature="0"
       style="display:inline" /><path
       class="st1"
       d="m 433.8,942.4 c -4,-14.8 -23.8,-21.3 -60.7,-19.9 -5,0.2 -10.3,0.5 -15.8,1 -7.9,0.7 -16.3,1.7 -25,2.9 6,5.3 11.3,11.4 15.7,18.1 7.4,-0.9 14.4,-1.5 21.1,-1.8 0.3,0 0.6,0 0.9,0 33.1,-1.7 42.3,3.5 44.2,5 -0.9,2.1 -6,10.9 -33.9,25.4 -0.9,0.5 -1.8,0.9 -2.7,1.4 -5.1,2.6 -10.5,5.1 -16.2,7.6 -23.3,10.3 -51.5,20 -81.4,28 -29.6,7.9 -58.6,13.6 -83.8,16.3 -6.5,0.7 -12.7,1.3 -18.6,1.6 -0.8,0 -1.5,0.1 -2.3,0.1 -32,1.5 -41,-3.6 -42.8,-5 0.9,-2.2 6.3,-11.4 36.5,-26.7 0,0 0.1,0 0.2,-0.1 6.1,-3.1 12.8,-6.2 19.9,-9.2 0.4,-8.2 2,-16.1 4.5,-23.5 -8.1,3.2 -15.9,6.5 -23.1,9.9 -5.2,2.4 -10.2,4.9 -14.8,7.3 -32.6,17.2 -46.6,32.8 -42.6,47.5 3.6,13.5 20.5,20.1 51.4,20.1 2.9,0 6,-0.1 9.2,-0.2 3.6,-0.1 7.3,-0.3 11.1,-0.6 7.2,-0.5 14.8,-1.3 22.7,-2.4 23.8,-3.1 50.4,-8.5 77.6,-15.8 27.5,-7.4 53.5,-16.1 75.9,-25.4 7.4,-3.1 14.4,-6.2 20.9,-9.3 3.2,-1.6 6.3,-3.1 9.2,-4.7 32.7,-17.3 46.7,-32.9 42.7,-47.6 z"
       id="path18"
       inkscape:connector-curvature="0"
       style="display:inline" /><path
       class="st1"
       d="m 201.2,518.8 c -0.4,-7.2 -1.4,-14.2 -3.2,-20.9 -2.8,-11.1 -7.4,-21.5 -13.5,-31 -4.3,-6.7 -9.3,-12.9 -14.9,-18.4 -16.7,-16.6 -39,-27.7 -64.2,-30.2 -54.8,-5.5 -104.3,31.9 -115,84.8 -0.7,3.5 -1.2,7 -1.6,10.6 -0.4,4.4 -0.6,8.8 -0.5,13.1 0.2,10.7 2.1,21.1 5.4,30.9 2.2,6.8 5.2,13.3 8.7,19.4 16.5,28.9 46.3,49.6 81.8,53.2 58.4,5.8 110.7,-36.9 116.6,-95.4 0.6,-5.5 0.7,-10.8 0.4,-16.1 z m -115,91.5 C 60.4,607.7 38.4,594 24.4,574.4 20.3,568.6 16.8,562.3 14.2,555.6 9.5,543.5 7.4,530.2 8.6,516.4 c 0,-0.3 0,-0.6 0.1,-0.8 0.8,-8.3 2.8,-16.3 5.8,-23.7 14,-34.8 49.7,-57.7 88.9,-53.8 14.9,1.5 28.5,6.7 40.1,14.6 7,4.8 13.2,10.5 18.5,17.1 8.7,10.7 14.8,23.5 17.6,37.3 1.4,6.9 2,14 1.6,21.3 -0.1,1.5 -0.2,3 -0.3,4.4 -4.7,47.5 -47.2,82.2 -94.7,77.5 z"
       id="path20"
       inkscape:connector-curvature="0"
       style="display:inline" /><path
       class="st1"
       d="m 253.1,464.4 c -4.4,-14.6 -24.4,-20.6 -61.2,-18.1 -7,0.5 -14.4,1.2 -22.2,2.3 -8.3,1.1 -17.1,2.5 -26.1,4.3 7,4.8 13.2,10.5 18.5,17.1 7.9,-1.3 15.4,-2.2 22.5,-2.9 1.3,-0.1 2.6,-0.2 3.9,-0.4 33.8,-2.8 43.3,2.2 45.2,3.6 -0.8,2.2 -6,11.6 -35.7,27.7 -0.1,0 -0.1,0.1 -0.2,0.1 -5.7,3.1 -11.8,6.1 -18.2,9.1 -22.5,10.5 -49.6,20.7 -78.3,29.2 -30.9,9.2 -61.2,15.9 -87.1,19.3 -5.1,0.6 -10,1.2 -14.7,1.6 -2,0.2 -4,0.3 -5.8,0.4 -29.1,1.8 -37.6,-2.7 -39.4,-4.1 0.8,-2.2 5.8,-11.3 34,-26.8 0.6,-0.3 1.2,-0.7 1.8,-1 5.7,-3.1 11.9,-6.2 18.5,-9.3 0,-0.3 0,-0.6 0.1,-0.8 0.8,-8.3 2.8,-16.3 5.8,-23.7 -8.5,3.6 -16.6,7.4 -24.1,11.1 -5,2.5 -9.8,5 -14.2,7.6 -32.1,18.2 -45.6,34.1 -41.2,48.7 3,10.2 13.7,16.2 32.3,18 8.1,0.8 17.7,0.9 28.9,0.1 2,-0.1 4.1,-0.3 6.2,-0.5 7,-0.6 14.4,-1.5 22,-2.6 25.1,-3.7 53.6,-10.2 82.6,-18.9 26.9,-8 52.3,-17.3 74.2,-27.1 7,-3.1 13.7,-6.3 20,-9.6 3.7,-1.9 7.2,-3.8 10.6,-5.7 26.9,-15.2 40.7,-28.8 42,-41.4 0.3,-2.5 0,-4.9 -0.7,-7.3 z"
       id="path22"
       inkscape:connector-curvature="0"
       style="display:inline" /><circle
       class="st2"
       cx="1137.7"
       cy="717"
       r="96.5"
       id="circle24"
       style="display:inline;fill:none;stroke:#000000;stroke-width:20;stroke-miterlimit:10" /><ellipse
       transform="matrix(0.925,-0.3801,0.3801,0.925,-182.6495,484.4965)"
       class="st2"
       cx="1135.6"
       cy="704.79999"
       rx="156"
       ry="35.599998"
       id="ellipse26"
       style="display:inline;fill:none;stroke:#000000;stroke-width:20;stroke-miterlimit:10" /><path
       class="st1"
       d="m 876.7,995.5 c -4.8,2.2 -9.3,4.5 -13.6,6.7 0.2,11.8 2.5,23.3 6.7,33.8 4,-0.4 8.2,-0.8 12.5,-1.4 -4.8,-12.1 -6.8,-25.4 -5.6,-39.1 z m 192.5,2.3 c -0.3,-7.2 -1.4,-14.2 -3.2,-21 -2.9,-11.1 -7.5,-21.5 -13.5,-31 -4.3,-6.7 -9.3,-12.9 -14.9,-18.4 -16.7,-16.6 -39,-27.7 -64.2,-30.2 -54.8,-5.5 -104.3,31.9 -115,84.8 -0.7,3.5 -1.2,7 -1.6,10.6 -0.4,4.4 -0.6,8.8 -0.5,13.1 0.2,10.7 2.1,21.1 5.4,30.9 2.2,6.8 5.2,13.3 8.7,19.4 16.5,28.9 46.3,49.6 81.8,53.2 58.4,5.9 110.7,-36.9 116.6,-95.4 0.6,-5.4 0.7,-10.7 0.4,-16 z m -20.3,14 c -4.8,47.5 -47.2,82.2 -94.7,77.5 -25.8,-2.6 -47.8,-16.3 -61.8,-35.9 -4.1,-5.8 -7.6,-12.1 -10.2,-18.8 -4.7,-12.1 -6.8,-25.4 -5.6,-39.2 0,-0.3 0,-0.6 0.1,-0.8 0.8,-8.3 2.8,-16.3 5.8,-23.7 14,-34.8 49.7,-57.7 88.9,-53.8 14.9,1.5 28.5,6.7 40.1,14.6 7,4.8 13.2,10.5 18.5,17.1 8.7,10.7 14.8,23.5 17.6,37.3 1.4,6.9 2,14 1.6,21.3 0,1.5 -0.1,3 -0.3,4.4 z"
       id="path28"
       inkscape:connector-curvature="0"
       style="display:inline" /><path
       class="st1"
       d="m 1037.7,927.5 c -2.4,0.3 -4.9,0.7 -7.5,1.1 -6,0.9 -12.2,2 -18.6,3.2 7,4.8 13.2,10.5 18.5,17.1 5.2,-0.8 10.3,-1.5 15.1,-2.1 2.5,-0.3 4.9,-0.6 7.4,-0.8 -4.3,-6.8 -9.3,-13 -14.9,-18.5 z m 83.4,15.9 c -4.4,-14.6 -24.4,-20.6 -61.2,-18.2 -0.6,0 -1.2,0.1 -1.8,0.1 2.3,3 4.5,6.1 6.6,9.3 2.1,3.3 4,6.6 5.8,10.1 22.6,-0.6 29.6,3.2 31.3,4.4 -0.7,1.8 -4.3,8.5 -21.9,19.7 -3.9,2.5 -8.4,5.1 -13.7,8 -0.1,0 -0.1,0.1 -0.2,0.1 -2.2,1.2 -4.5,2.4 -6.9,3.6 -3.6,1.9 -7.4,3.7 -11.4,5.5 -22.5,10.5 -49.6,20.7 -78.3,29.2 -30.9,9.2 -61.2,15.9 -87.1,19.3 -4.3,0.5 -8.5,1 -12.5,1.4 -0.7,0.1 -1.5,0.1 -2.2,0.2 -2,0.2 -4,0.3 -5.8,0.4 -6.2,0.4 -11.4,0.5 -15.8,0.4 -16.5,-0.4 -22.1,-3.4 -23.5,-4.4 0.6,-1.7 3.8,-7.6 18.7,-17.6 -0.5,-3.9 -0.8,-7.8 -0.9,-11.8 -0.1,-3.8 0,-7.5 0.3,-11.4 -29.4,17.3 -41.7,32.5 -37.5,46.6 3,10.2 13.7,16.2 32.3,18 5.6,0.6 11.9,0.8 19,0.6 3.2,-0.1 6.5,-0.2 10,-0.5 2,-0.1 4.1,-0.3 6.2,-0.5 3,-0.3 6.1,-0.6 9.3,-0.9 4.1,-0.5 8.4,-1 12.7,-1.7 25.1,-3.7 53.6,-10.2 82.6,-18.8 26.9,-8 52.3,-17.3 74.2,-27.1 4,-1.8 8,-3.6 11.8,-5.5 2.8,-1.4 5.6,-2.7 8.2,-4.1 3.7,-1.9 7.3,-3.8 10.6,-5.7 1.2,-0.7 2.4,-1.4 3.6,-2.1 24.5,-14.3 37.2,-27.3 38.4,-39.3 0.1,-2.5 -0.2,-4.9 -0.9,-7.3 z m -255.6,35.3 c -2.4,1.1 -4.7,2.3 -7,3.4 -0.7,3.5 -1.2,7 -1.6,10.6 -0.4,4.4 -0.6,8.8 -0.5,13.1 0.6,-0.3 1.2,-0.7 1.8,-1 1.6,-0.9 3.2,-1.7 4.9,-2.6 4.3,-2.2 8.9,-4.5 13.6,-6.7 0,-0.3 0,-0.6 0.1,-0.8 0.8,-8.3 2.8,-16.3 5.8,-23.7 -5.9,2.5 -11.7,5 -17.1,7.7 z"
       id="path30"
       inkscape:connector-curvature="0"
       style="display:inline" /><circle
       class="st3"
       cx="556.5"
       cy="1169.7"
       r="122"
       id="circle32"
       style="display:inline;fill:none;stroke:#000000;stroke-miterlimit:10" /><path
       class="st1"
       d="m 1083.5,990 c -0.6,-6.8 -1.7,-13.4 -3.3,-19.9 -0.1,-0.4 -0.2,-0.9 -0.3,-1.3 -3.9,2.5 -8.4,5.1 -13.7,8 -2.9,-11.1 -7.5,-21.5 -13.5,-31 -4.3,-6.7 -9.3,-12.9 -14.9,-18.4 -16.7,-16.6 -39,-27.7 -64.2,-30.2 -54.8,-5.5 -104.3,31.9 -115,84.8 -0.7,3.5 -1.2,7 -1.6,10.6 -0.4,4.4 -0.6,8.8 -0.5,13.1 0.2,10.7 2.1,21.1 5.4,30.9 -6.2,0.4 -11.4,0.5 -15.8,0.4 0.1,0.5 0.3,1 0.5,1.5 2.1,6.4 4.8,12.6 7.9,18.5 3.2,-0.1 6.5,-0.2 10,-0.5 2,-0.1 4.1,-0.3 6.2,-0.5 16.5,28.9 46.3,49.6 81.8,53.2 58.4,5.9 110.7,-36.9 116.6,-95.4 0.5,-5.4 0.7,-10.7 0.4,-16 3.7,-1.9 7.3,-3.8 10.6,-5.7 1,-0.7 2.2,-1.4 3.4,-2.1 z m -22.6,15 c -0.1,1.7 -0.2,3.4 -0.4,5.1 -5.4,54.3 -54,94 -108.3,88.6 -29.5,-3 -54.7,-18.7 -70.7,-41.1 -0.6,-0.8 -1.2,-1.7 -1.8,-2.6 -3.9,-5.9 -7.3,-12.2 -9.9,-18.9 0,-0.1 0,-0.1 -0.1,-0.2 -4.1,-10.6 -6.5,-22 -6.7,-33.8 -0.1,-3.5 0,-7.1 0.4,-10.8 0,-0.3 0,-0.7 0.1,-1 0.4,-4 1,-7.9 1.9,-11.8 1.2,-5.3 2.8,-10.4 4.8,-15.3 16,-39.8 56.9,-66 101.7,-61.5 17,1.7 32.6,7.7 45.9,16.7 4.4,3 8.6,6.4 12.4,10 3.1,3 6,6.1 8.7,9.5 2.2,2.8 4.3,5.7 6.3,8.7 6.6,10.2 11.4,21.7 13.8,33.9 0,0 0,0.1 0,0.1 1.4,6.9 2.1,14 1.9,21.2 0.1,1.2 0.1,2.2 0,3.2 z"
       id="path34"
       inkscape:connector-curvature="0"
       style="display:inline" /><path
       class="st1"
       d="m 1447.1,1005.4 c -0.4,-7.2 -1.4,-14.2 -3.2,-20.9 -2.8,-11.1 -7.4,-21.5 -13.5,-31 -4.3,-6.7 -9.3,-12.9 -14.9,-18.4 -16.7,-16.6 -39,-27.7 -64.2,-30.2 -54.8,-5.5 -104.3,31.9 -115,84.8 -0.7,3.5 -1.2,7 -1.6,10.6 -0.4,4.4 -0.6,8.8 -0.5,13.1 0.2,10.7 2.1,21.1 5.4,30.9 2.2,6.8 5.2,13.3 8.7,19.4 16.5,28.9 46.3,49.6 81.8,53.2 58.4,5.8 110.7,-36.9 116.6,-95.4 0.5,-5.5 0.6,-10.9 0.4,-16.1 z m -115,91.4 c -25.8,-2.6 -47.8,-16.3 -61.8,-35.9 -4.1,-5.8 -7.6,-12.1 -10.2,-18.8 -4.7,-12.1 -6.8,-25.4 -5.6,-39.2 0,-0.3 0,-0.6 0.1,-0.8 0.8,-8.3 2.8,-16.3 5.8,-23.7 14,-34.8 49.7,-57.7 88.9,-53.8 14.9,1.5 28.5,6.7 40.1,14.6 7,4.8 13.2,10.5 18.5,17.1 8.7,10.7 14.8,23.5 17.6,37.3 1.4,6.9 2,14 1.6,21.3 -0.1,1.5 -0.2,3 -0.3,4.4 -4.8,47.5 -47.3,82.3 -94.7,77.5 z"
       id="path36"
       inkscape:connector-curvature="0"
       style="display:inline" /><path
       class="st1"
       d="m 659.1,719.7 c -0.4,-7.2 -1.4,-14.2 -3.2,-20.9 -2.8,-11.1 -7.4,-21.5 -13.5,-31 -4.3,-6.7 -9.3,-12.9 -14.9,-18.4 -16.7,-16.6 -39,-27.7 -64.2,-30.2 -54.8,-5.5 -104.3,31.9 -115,84.8 -0.7,3.5 -1.2,7 -1.6,10.6 -0.4,4.4 -0.6,8.8 -0.5,13.1 0.2,10.7 2.1,21.1 5.4,30.9 2.2,6.8 5.2,13.3 8.7,19.4 16.5,28.9 46.3,49.6 81.8,53.2 58.4,5.8 110.7,-36.9 116.6,-95.4 0.5,-5.6 0.6,-10.9 0.4,-16.1 z m -115,91.4 c -25.8,-2.6 -47.8,-16.3 -61.8,-35.9 -4.1,-5.8 -7.6,-12.1 -10.2,-18.8 -4.7,-12.1 -6.8,-25.4 -5.6,-39.2 0,-0.3 0,-0.6 0.1,-0.8 0.8,-8.3 2.8,-16.3 5.8,-23.7 14,-34.8 49.7,-57.7 88.9,-53.8 14.9,1.5 28.5,6.7 40.1,14.6 7,4.8 13.2,10.5 18.5,17.1 8.7,10.7 14.8,23.5 17.6,37.3 1.4,6.9 2,14 1.6,21.3 -0.1,1.5 -0.2,3 -0.3,4.4 -4.8,47.5 -47.3,82.3 -94.7,77.5 z"
       id="path38"
       inkscape:connector-curvature="0"
       style="display:inline" /><path
       class="st1"
       d="m 1574.7,1230.9 c -0.4,-7.2 -1.4,-14.2 -3.2,-20.9 -2.8,-11.1 -7.4,-21.5 -13.5,-31 -4.3,-6.7 -9.3,-12.9 -14.9,-18.4 -16.7,-16.6 -39,-27.7 -64.2,-30.2 -54.8,-5.5 -104.3,31.9 -115,84.8 -0.7,3.5 -1.2,7 -1.6,10.6 -0.4,4.4 -0.6,8.8 -0.5,13.1 0.2,10.7 2.1,21.1 5.4,30.9 2.2,6.8 5.2,13.3 8.7,19.4 16.5,28.9 46.3,49.6 81.8,53.2 58.4,5.8 110.7,-36.9 116.6,-95.4 0.6,-5.6 0.7,-10.9 0.4,-16.1 z m -114.9,91.4 c -25.8,-2.6 -47.8,-16.3 -61.8,-35.9 -4.1,-5.8 -7.6,-12.1 -10.2,-18.8 -4.7,-12.1 -6.8,-25.4 -5.6,-39.2 0,-0.3 0,-0.6 0.1,-0.8 0.8,-8.3 2.8,-16.3 5.8,-23.7 14,-34.8 49.7,-57.7 88.9,-53.8 14.9,1.5 28.5,6.7 40.1,14.6 7,4.8 13.2,10.5 18.5,17.1 8.7,10.7 14.8,23.5 17.6,37.3 1.4,6.9 2,14 1.6,21.3 -0.1,1.5 -0.2,3 -0.3,4.4 -4.8,47.5 -47.3,82.3 -94.7,77.5 z"
       id="path40"
       inkscape:connector-curvature="0"
       style="display:inline" /><path
       class="st4"
       d="m 107.7,1390.5 c -4.8,2.2 -9.3,4.4 -13.6,6.7 0.2,11.8 2.5,23.3 6.7,33.9 4,-0.4 8.2,-0.8 12.5,-1.4 -4.8,-12.1 -6.9,-25.5 -5.6,-39.2 z m 192.5,2.4 c -0.3,-7.2 -1.4,-14.2 -3.2,-21 -2.9,-11.1 -7.4,-21.5 -13.5,-31 -4.3,-6.7 -9.3,-12.8 -14.9,-18.4 -16.7,-16.6 -39,-27.7 -64.2,-30.2 -54.8,-5.5 -104.3,31.9 -115,84.8 -0.7,3.5 -1.2,7 -1.6,10.6 -0.4,4.4 -0.6,8.8 -0.5,13.1 0.2,10.7 2.1,21.1 5.4,30.9 2.2,6.8 5.2,13.3 8.7,19.4 16.5,28.9 46.3,49.6 81.8,53.2 58.4,5.8 110.7,-36.9 116.6,-95.4 0.5,-5.4 0.6,-10.8 0.4,-16 z m -20.3,14 c -4.8,47.4 -47.2,82.2 -94.7,77.4 -25.8,-2.6 -47.8,-16.3 -61.8,-35.9 -4.1,-5.8 -7.6,-12.1 -10.2,-18.8 -4.7,-12.1 -6.8,-25.4 -5.5,-39.2 0,-0.3 0,-0.6 0.1,-0.8 0.8,-8.3 2.8,-16.3 5.8,-23.7 14,-34.8 49.7,-57.7 88.9,-53.8 14.9,1.5 28.5,6.7 40.1,14.6 7,4.8 13.2,10.5 18.5,17.1 8.7,10.7 14.8,23.5 17.6,37.3 1.4,6.9 2,14 1.6,21.3 -0.2,1.5 -0.3,3 -0.4,4.5 z"
       id="path42"
       inkscape:connector-curvature="0"
       style="display:inline;fill:#33134e" /><path
       class="st4"
       d="m 96.4,1373.7 c -2.4,1.1 -4.7,2.3 -7,3.4 -0.7,3.5 -1.2,7 -1.6,10.6 -0.4,4.4 -0.6,8.8 -0.5,13.1 0.6,-0.3 1.2,-0.7 1.8,-1 1.6,-0.9 3.2,-1.7 4.9,-2.6 4.3,-2.2 8.9,-4.5 13.6,-6.7 0,-0.3 0,-0.6 0.1,-0.8 0.8,-8.3 2.8,-16.3 5.8,-23.7 -5.9,2.5 -11.6,5.1 -17.1,7.7 z m 255.7,-35.3 c -4.4,-14.6 -24.4,-20.6 -61.2,-18.2 -0.6,0 -1.2,0.1 -1.8,0.1 2.3,3 4.5,6.1 6.6,9.3 2.1,3.3 4,6.6 5.8,10.1 22.6,-0.6 29.6,3.2 31.3,4.4 -0.7,1.8 -4.3,8.5 -21.9,19.7 -3.9,2.5 -8.4,5.1 -13.7,8 -0.1,0 -0.1,0.1 -0.2,0.1 -2.2,1.2 -4.5,2.4 -6.9,3.6 -3.6,1.9 -7.4,3.7 -11.4,5.6 -8.1,3.8 -16.8,7.5 -26,11.2 3.5,5.6 5.5,12.2 5.7,19.3 7.6,-3 15,-6.1 21.9,-9.2 4,-1.8 8,-3.6 11.8,-5.5 2.8,-1.4 5.6,-2.7 8.2,-4.1 3.7,-1.9 7.3,-3.8 10.6,-5.7 1.2,-0.7 2.4,-1.4 3.6,-2.1 24.5,-14.3 37.2,-27.3 38.4,-39.3 0.1,-2.5 -0.1,-4.9 -0.8,-7.3 z m -156.5,91.3 -2.4,2.2 1.2,1 c 1.1,-0.3 2.1,-0.6 3.2,-0.9 -0.7,-0.7 -1.3,-1.5 -2,-2.3 z m -7,-15.9 c -0.5,0.1 -1,0.3 -1.5,0.4 l -0.1,0.7 1.8,0.1 c -0.1,-0.4 -0.1,-0.8 -0.2,-1.2 z m -7.5,2 c -24.1,6.4 -47.4,11.2 -67.9,13.8 -4.3,0.5 -8.5,1 -12.5,1.4 -0.7,0.1 -1.5,0.1 -2.2,0.2 -2,0.2 -4,0.3 -5.8,0.4 -6.2,0.4 -11.4,0.5 -15.9,0.4 -16.5,-0.4 -22.1,-3.4 -23.5,-4.4 0.6,-1.7 3.8,-7.6 18.7,-17.6 -0.5,-3.9 -0.8,-7.8 -0.8,-11.8 -0.1,-3.8 0,-7.6 0.3,-11.4 -29.4,17.3 -41.7,32.5 -37.5,46.6 3,10.2 13.7,16.2 32.3,18 5.6,0.6 11.9,0.8 19,0.6 3.2,-0.1 6.5,-0.2 10,-0.5 2,-0.1 4.1,-0.3 6.2,-0.5 3,-0.3 6.1,-0.6 9.3,-0.9 4.1,-0.5 8.4,-1 12.7,-1.7 19.9,-2.9 41.8,-7.6 64.5,-13.7 -3.9,-5.4 -6.3,-11.9 -6.9,-18.9 z m 87.5,-93.3 c -2.5,0.3 -4.9,0.7 -7.5,1.1 -6,0.9 -12.3,2 -18.6,3.2 7,4.8 13.2,10.5 18.5,17.1 5.2,-0.8 10.3,-1.5 15.1,-2.1 2.5,-0.3 5,-0.6 7.4,-0.8 -4.2,-6.8 -9.2,-12.9 -14.9,-18.5 z"
       id="path44"
       inkscape:connector-curvature="0"
       style="display:inline;fill:#33134e" /><path
       class="st4"
       d="m 314.4,1385 c -0.6,-6.8 -1.7,-13.4 -3.3,-19.9 -0.1,-0.4 -0.2,-0.9 -0.3,-1.3 -3.9,2.5 -8.4,5.1 -13.7,8 -2.9,-11.1 -7.5,-21.5 -13.5,-31 -4.3,-6.7 -9.3,-12.9 -14.9,-18.4 -16.7,-16.6 -39,-27.7 -64.2,-30.2 -54.8,-5.5 -104.3,31.9 -115,84.8 -0.7,3.5 -1.2,7 -1.6,10.6 -0.4,4.4 -0.6,8.8 -0.5,13.1 0.2,10.7 2.1,21.1 5.4,30.9 -6.2,0.4 -11.4,0.5 -15.8,0.4 0.1,0.5 0.3,1 0.5,1.5 2.1,6.4 4.8,12.6 7.9,18.5 3.2,-0.1 6.5,-0.2 10,-0.5 2,-0.1 4.1,-0.3 6.2,-0.5 16.5,28.9 46.3,49.6 81.8,53.2 58.4,5.8 110.7,-36.9 116.6,-95.4 0.5,-5.4 0.7,-10.7 0.4,-16 3.7,-1.9 7.3,-3.8 10.6,-5.7 1,-0.7 2.2,-1.4 3.4,-2.1 z m -22.5,15.1 c -0.1,1.7 -0.2,3.4 -0.4,5.1 -5.4,54.3 -54,94 -108.3,88.6 -29.5,-3 -54.7,-18.7 -70.7,-41.1 -0.6,-0.9 -1.2,-1.7 -1.8,-2.6 -3.9,-5.9 -7.3,-12.2 -9.9,-18.9 0,-0.1 0,-0.1 -0.1,-0.2 -4.1,-10.6 -6.5,-22 -6.7,-33.8 -0.1,-3.6 0,-7.1 0.4,-10.8 0,-0.3 0,-0.7 0.1,-1 0.4,-4 1,-7.9 1.9,-11.8 1.2,-5.3 2.8,-10.4 4.8,-15.3 16,-39.8 56.9,-66 101.7,-61.5 17,1.7 32.6,7.7 45.9,16.7 4.4,3 8.6,6.4 12.4,10 3.1,3 6,6.1 8.7,9.5 2.2,2.8 4.3,5.7 6.3,8.7 6.6,10.2 11.4,21.7 13.8,33.9 0,0 0,0.1 0,0.1 1.4,6.9 2.1,14 1.9,21.2 0,1.1 0,2.1 0,3.2 z"
       id="path46"
       inkscape:connector-curvature="0"
       style="display:inline;fill:#33134e" /><g
       class="st1"
       id="g50"
       style="display:inline"><polygon
         class="st5"
         points="217.3,1426.3 205.5,1443.6 191.7,1431.9 208,1416.9 185.8,1415.8 186.1,1414 188.9,1398.5 209,1403.7 200,1385.6 216.8,1379.4 222.2,1398.9 233.7,1382 247.5,1393.1 231.5,1408.3 253.4,1409.2 250.3,1427.1 230.5,1421.5 239,1439.5 222.1,1445.7 "
         id="polygon48"
         style="fill:#33134e" /></g><g
       class="st1"
       id="g54"
       style="display:inline"><polygon
         class="st5"
         points="85.7,1514.3 77.4,1526.4 67.9,1518.2 79.2,1507.8 63.8,1507 64,1505.7 65.9,1495 79.9,1498.6 73.7,1486 85.4,1481.7 89.1,1495.2 97.1,1483.5 106.7,1491.2 95.6,1501.8 110.8,1502.4 108.7,1514.9 94.9,1511 100.8,1523.5 89.1,1527.8 "
         id="polygon52"
         style="fill:#33134e" /></g><g
       class="st1"
       id="g58"
       style="display:inline"><polygon
         class="st5"
         points="241.9,1258.3 233.6,1270.4 224.1,1262.2 235.4,1251.8 220,1251 220.2,1249.7 222.1,1239 236.1,1242.6 229.9,1230 241.6,1225.7 245.3,1239.2 253.3,1227.5 262.9,1235.2 251.8,1245.8 267,1246.4 264.9,1258.9 251.1,1255 257,1267.5 245.2,1271.8 "
         id="polygon56"
         style="fill:#33134e" /></g><g
       class="st1"
       id="g62"
       style="display:inline"><polygon
         class="st5"
         points="132.3,1537.7 126.8,1545.7 120.4,1540.2 128,1533.3 117.7,1532.8 117.8,1531.9 119.1,1524.8 128.5,1527.2 124.3,1518.8 132.1,1515.9 134.6,1524.9 139.9,1517.1 146.3,1522.3 138.9,1529.3 149,1529.7 147.6,1538 138.4,1535.4 142.3,1543.8 134.5,1546.6 "
         id="polygon60"
         style="fill:#33134e" /></g><g
       class="st1"
       id="g66"
       style="display:inline"><polygon
         class="st5"
         points="290.9,1287.3 285.4,1295.4 279.1,1289.9 286.6,1283 276.3,1282.5 276.5,1281.6 277.7,1274.5 287.1,1276.9 282.9,1268.5 290.7,1265.6 293.2,1274.6 298.5,1266.8 304.9,1272 297.5,1279 307.6,1279.4 306.2,1287.7 297,1285.1 300.9,1293.4 293.1,1296.3 "
         id="polygon64"
         style="fill:#33134e" /></g><g
       class="st1"
       id="g70"
       style="display:inline"><polygon
         class="st5"
         points="86.2,1298.1 80.7,1306.1 74.4,1300.7 81.9,1293.7 71.6,1293.2 71.8,1292.4 73.1,1285.2 82.4,1287.6 78.2,1279.3 86,1276.4 88.5,1285.4 93.8,1277.6 100.2,1282.7 92.8,1289.7 103,1290.2 101.5,1298.5 92.3,1295.9 96.3,1304.2 88.5,1307.1 "
         id="polygon68"
         style="fill:#33134e" /></g><g
       class="st1"
       id="g74"
       style="display:inline"><polygon
         class="st5"
         points="316.4,1495.3 309.8,1505 302.1,1498.4 311.2,1490 298.8,1489.4 298.9,1488.4 300.5,1479.7 311.8,1482.6 306.7,1472.5 316.2,1469 319.1,1479.9 325.6,1470.4 333.3,1476.7 324.4,1485.2 336.7,1485.7 334.9,1495.7 323.8,1492.6 328.5,1502.7 319.1,1506.1 "
         id="polygon72"
         style="fill:#33134e" /></g></g><path
     inkscape:connector-curvature="0"
     id="path77"
     d="m 13.659807,44.545555 v 0 c 0.04779,0.08877 0.102425,0.177537 0.157052,0.266306 -0.05462,-0.08877 -0.102425,-0.177538 -0.157052,-0.266306 z m 16.381243,10.63859 c -0.163881,-0.01366 -0.33459,-0.03414 -0.49847,-0.05463 0.16388,0.02732 0.327761,0.04098 0.49847,0.05463 1.331531,0.136567 2.649405,0.143396 3.939966,0.03414 -1.290561,0.109254 -2.608435,0.102425 -3.939966,-0.03414 z m 4.015078,0.02732 c 0.437015,-0.04097 0.87403,-0.08877 1.304217,-0.157052 -0.430187,0.06828 -0.860373,0.116083 -1.304217,0.157052 z M 45.691659,50.43844 c 0.245821,-0.204852 0.491643,-0.409702 0.730635,-0.62821 -0.245821,0.218508 -0.484814,0.423358 -0.730635,0.62821 z"
     style="stroke-width:0.06828363" /><path
     inkscape:connector-curvature="0"
     id="path79"
     d="m 13.659807,44.545555 c -0.211679,0.02049 -0.416531,0.03415 -0.621381,0.0478 0.198022,-0.01366 0.409702,-0.03415 0.621381,-0.0478 z M 55.585958,31.749202 c -0.676009,0.382389 -1.392987,0.764777 -2.130449,1.147165 v 0 c 0.737462,-0.382388 1.447612,-0.757948 2.130449,-1.147165 0.12291,-0.06828 0.245821,-0.136567 0.361903,-0.204851 -0.12291,0.06828 -0.238993,0.143396 -0.361903,0.204851 z M 14.923054,32.42521 v 0 c 0.0068,-0.01366 0.0068,-0.02732 0.0068,-0.04097 -0.0068,0.0068 -0.0068,0.02049 -0.0068,0.04097 z"
     style="stroke-width:0.06828363" /><path
     inkscape:connector-curvature="0"
     id="path81"
     d="M 63.841449,21.998299 C 62.967418,19.068931 58.95234,17.880796 51.584537,18.36561 c -0.122911,0.0068 -0.245822,0.01366 -0.361904,0.02731 0.471158,0.600896 0.908173,1.222278 1.324703,1.864143 0.41653,0.648695 0.805746,1.324703 1.160822,2.014368 4.527204,-0.116082 5.933847,0.648694 6.254781,0.880858 -0.136568,0.361904 -0.853546,1.693434 -4.390638,3.939966 v 0 0 c -0.01366,0.0068 -0.02049,0.01366 -0.03415,0.02049 -0.01366,0.0068 -0.02049,0.01366 -0.03414,0.02049 -0.02049,0.01366 -0.0478,0.03414 -0.07511,0.0478 -0.0478,0.02732 -0.0956,0.06145 -0.150224,0.0956 -0.402873,0.25265 -0.839888,0.512128 -1.317874,0.785262 -0.116082,0.06828 -0.238993,0.136568 -0.361904,0.204851 -0.184365,0.102426 -0.375559,0.21168 -0.573582,0.320933 -0.06145,0.03415 -0.129739,0.06828 -0.198023,0.109254 -0.396044,-1.522725 -0.949142,-2.990823 -1.652463,-4.370153 -0.0478,-0.0956 -0.0956,-0.191194 -0.143396,-0.279963 -0.102425,-0.184365 -0.198022,-0.375559 -0.307277,-0.553097 -0.0478,-0.08877 -0.109253,-0.184365 -0.157051,-0.273134 C 50.423716,22.974757 50.28032,22.735764 50.130096,22.5036 v 0 c -0.853546,-1.338362 -1.850487,-2.567467 -2.983995,-3.68049 -0.396046,-0.396045 -0.812576,-0.771605 -1.242763,-1.140337 -0.170709,-0.143395 -0.348246,-0.286791 -0.518956,-0.430186 -0.08877,-0.06828 -0.177537,-0.136568 -0.266306,-0.204851 -0.238992,-0.184366 -0.477985,-0.361904 -0.723806,-0.532613 -0.198022,-0.136567 -0.396045,-0.273134 -0.600896,-0.402873 -0.402873,-0.266306 -0.819403,-0.512127 -1.242762,-0.75112 -0.293619,-0.163881 -0.58724,-0.320933 -0.894515,-0.471157 -0.102426,-0.0478 -0.204851,-0.102426 -0.300449,-0.150224 -0.273134,-0.129739 -0.546269,-0.25265 -0.819403,-0.37556 -0.273135,-0.116082 -0.559926,-0.232165 -0.839889,-0.33459 -0.279963,-0.109254 -0.566754,-0.204851 -0.860373,-0.300448 -0.286792,-0.0956 -0.580412,-0.184366 -0.874031,-0.266306 -1.181307,-0.33459 -2.403584,-0.566754 -3.666831,-0.689665 -3.120562,-0.314105 -6.159184,0.06828 -8.951984,1.017426 -0.286792,0.0956 -0.566755,0.198023 -0.853546,0.307277 -0.279963,0.109253 -0.559926,0.225336 -0.839889,0.348246 -0.273134,0.122911 -0.546269,0.245821 -0.819403,0.382389 -2.157763,1.058396 -4.13116,2.471867 -5.817766,4.17213 -0.525784,0.532612 -1.031082,1.092538 -1.495412,1.679777 -0.191194,0.232164 -0.368731,0.471157 -0.546269,0.716978 -0.355074,0.484814 -0.689664,0.990113 -1.010597,1.50224 -0.238993,0.389217 -0.464329,0.778433 -0.676008,1.188135 -0.92183,1.748062 -1.604666,3.646346 -2.014367,5.660713 -0.109254,0.518956 -0.191194,1.04474 -0.259478,1.577352 -0.02049,0.177538 -0.04097,0.355075 -0.06145,0.532612 -0.08877,0.88086 -0.12291,1.761719 -0.102425,2.622092 0.0478,2.144106 0.41653,4.219929 1.072052,6.186497 -1.235933,0.07511 -2.2806729,0.0956 -3.1751883,0.07511 -3.3117579,-0.07511 -4.4247811,-0.682837 -4.704744,-0.887688 0.1297389,-0.33459 0.7647767,-1.529553 3.7487715,-3.523435 -0.095597,-0.778433 -0.150224,-1.570524 -0.1707091,-2.369443 -0.020485,-0.751119 0,-1.509068 0.054627,-2.273844 -5.8928775,3.455152 -8.35108835,6.514258 -7.51119967,9.327544 0.61455271,2.04168 2.73817377,3.236644 6.46646007,3.612204 1.1198516,0.109254 2.3830986,0.150224 3.7897415,0.116083 0.635038,-0.01366 1.297389,-0.0478 1.993882,-0.08877 0.204851,-0.01366 0.409702,-0.02732 0.614553,-0.04098 0.204851,-0.01366 0.41653,-0.03414 0.621381,-0.04779 v 0 0 0 c 0.0478,0.08877 0.102425,0.177537 0.157053,0.266306 2.91571,4.92325 7.770676,8.624222 13.615756,9.948925 0.211679,0.0478 0.423358,0.0956 0.641866,0.136567 0.16388,0.03414 0.320933,0.06145 0.484814,0.08877 0.327761,0.05463 0.655523,0.102425 0.983284,0.143396 0.163881,0.02049 0.33459,0.04097 0.498471,0.05463 1.33153,0.136567 2.649404,0.143396 3.939965,0.03414 0.02732,0 0.05463,-0.0068 0.08194,-0.0068 0.437015,-0.04097 0.87403,-0.0956 1.304217,-0.157052 0.150224,-0.02049 0.300448,-0.0478 0.443844,-0.07511 0.53944,-0.0956 1.072053,-0.204852 1.597837,-0.341418 0.334589,-0.08877 0.669179,-0.177538 1.003769,-0.279963 0.491642,-0.150224 0.983285,-0.320934 1.46127,-0.512128 0.157052,-0.06145 0.320933,-0.122911 0.477985,-0.191194 0.723807,-0.300448 1.433956,-0.641866 2.116793,-1.024254 0.116082,-0.06145 0.225336,-0.129739 0.341418,-0.191194 0.225336,-0.12974 0.450672,-0.266307 0.66918,-0.402874 0.553097,-0.348247 1.08571,-0.716978 1.604665,-1.113024 0.204851,-0.157051 0.409702,-0.320932 0.614553,-0.484813 0.245821,-0.204851 0.491642,-0.409702 0.730635,-0.628209 0.116082,-0.109254 0.238992,-0.218508 0.355074,-0.327762 0.116083,-0.109254 0.232165,-0.218507 0.348247,-0.33459 3.427838,-3.373211 5.742654,-7.907244 6.254781,-13.05583 0.109254,-1.078882 0.129739,-2.144106 0.08194,-3.202503 v 0 c 0.737462,-0.382388 1.45444,-0.764776 2.130449,-1.147165 0.12291,-0.06828 0.245821,-0.136567 0.361903,-0.204851 0.07511,-0.04097 0.143396,-0.08877 0.218508,-0.129738 0.0478,-0.02732 0.08877,-0.05462 0.136567,-0.08194 4.902765,-2.867913 7.436087,-5.462691 7.67508,-7.873103 0.05463,-0.505299 0.0068,-0.996941 -0.136567,-1.474926 z M 49.454087,34.815137 c -0.01366,0.29362 -0.03414,0.594068 -0.06828,0.887687 -0.949142,9.498254 -9.450455,16.456356 -18.955536,15.500385 -5.162243,-0.512127 -9.566537,-3.263958 -12.366166,-7.190267 3.864854,-0.573582 8.125752,-1.468097 12.530047,-2.642576 -0.764777,-1.08571 -1.270076,-2.369442 -1.433957,-3.762428 -4.663772,1.229105 -9.156835,2.130449 -13.130943,2.649404 -0.949142,-2.41724 -1.365672,-5.08713 -1.113023,-7.83896 0,-0.01366 0,-0.02732 0.0068,-0.04098 0,-0.01366 0,-0.02732 0.0068,-0.04097 0,-0.02732 0.0068,-0.05462 0.0068,-0.08194 0.163881,-1.666121 0.566754,-3.257129 1.16765,-4.738884 2.7928,-6.958103 9.948925,-11.546763 17.781058,-10.768329 2.983995,0.300448 5.71534,1.338359 8.030155,2.922539 1.399815,0.955971 2.642577,2.109964 3.700973,3.414182 1.734405,2.144106 2.96351,4.697914 3.523435,7.463401 -1.468097,0.689665 -3.031792,1.365673 -4.6706,2.021196 0.655523,1.147165 1.04474,2.471867 1.078881,3.885339 1.352017,-0.532613 2.656234,-1.08571 3.905824,-1.638808 z"
     style="stroke-width:0.06828363;fill:#af001f;fill-opacity:0.94117647" /><path
     inkscape:connector-curvature="0"
     id="path83"
     d="m 55.53133,27.1264 c 0.01366,-0.0068 0.02732,-0.01366 0.03415,-0.02049 v 0 c -0.01366,0 -0.02049,0.0068 -0.03415,0.02049 z m -9.63482,-9.443627 c 0.430187,0.361904 0.846717,0.744292 1.242763,1.140337 v 0 C 46.736399,18.420237 46.319868,18.044677 45.89651,17.682773 Z m -6.213811,-3.653174 c 0.279964,0.109254 0.566755,0.218508 0.839889,0.33459 -0.273134,-0.116082 -0.553097,-0.232165 -0.839889,-0.33459 z m -1.727575,-0.573582 c 0.293619,0.08194 0.587239,0.170709 0.87403,0.266306 -0.29362,-0.0956 -0.580411,-0.184366 -0.87403,-0.266306 z"
     style="stroke-width:0.06828363" /><polygon
     points="479.2,1131.2 438.8,1119.7 456.1,1156.5 421.7,1169.1 411.9,1129.6 387.7,1164.9 359.7,1141 392.9,1110.4 347.6,1108.2 348.2,1104.5 353.8,1072.9 395,1083.5 376.6,1046.6 410.9,1033.9 421.8,1073.6 445.3,1039.1 473.5,1061.8 440.8,1092.7 485.6,1094.7 "
     id="polygon85"
     transform="matrix(0.06828363,0,0,0.06828363,-17.600441,-19.921024)"
     style="fill:#af001f;fill-opacity:0.94117647" /><polygon
     points="896.7,369.3 913.9,406.1 879.6,418.7 869.8,379.2 845.5,414.5 817.5,390.6 850.8,360 805.4,357.7 806.1,354.1 811.7,322.4 852.8,333.1 834.4,296.1 868.8,283.5 879.7,323.2 903.2,288.7 931.4,311.4 898.7,342.3 943.5,344.3 937.1,380.8 "
     id="polygon89"
     transform="matrix(0.06828363,0,0,0.06828363,-17.763581,-19.105323)"
     style="stroke:#af001f;stroke-opacity:0.94117647;fill:#af001f;fill-opacity:0.94117647" /><polygon
     points="594.3,1200 567.4,1192.4 578.9,1216.9 556,1225.3 549.5,1199 533.4,1222.4 514.7,1206.6 536.9,1186.2 506.7,1184.7 507.1,1182.3 510.8,1161.2 538.2,1168.3 526,1143.7 548.8,1135.3 556.1,1161.7 571.7,1138.8 590.5,1153.9 568.7,1174.5 598.5,1175.7 "
     id="polygon93"
     transform="matrix(0.06828363,0,0,0.06828363,-17.600441,-19.921024)"
     style="fill:#af001f;fill-opacity:0.94117647" /><polygon
     points="1058.2,465.3 1031.3,457.7 1042.8,482.1 1019.9,490.5 1013.4,464.3 997.3,487.7 978.7,471.8 1000.8,451.5 970.6,450 971,447.5 974.8,426.5 1002.2,433.6 989.9,409 1012.8,400.6 1020,427 1035.6,404.1 1054.4,419.1 1032.7,439.7 1062.4,441 "
     id="polygon97"
     transform="matrix(0.06828363,0,0,0.06828363,-17.600441,-19.921024)"
     style="fill:#af001f;fill-opacity:0.94117647" /><polygon
     points="458.3,496.9 431.4,489.3 442.8,513.7 420,522.1 413.5,495.8 397.3,519.3 378.7,503.4 400.9,483 370.7,481.6 371.1,479.1 374.8,458.1 402.2,465.1 390,440.6 412.8,432.2 420.1,458.6 435.7,435.6 454.5,450.7 432.7,471.3 462.5,472.6 "
     id="polygon101"
     transform="matrix(0.06828363,0,0,0.06828363,-17.600441,-19.921024)"
     style="fill:#af001f;fill-opacity:0.94117647" /><polygon
     points="1142.4,1075.1 1109.9,1065.8 1123.7,1095.4 1096.1,1105.6 1088.2,1073.8 1068.7,1102.2 1046.1,1082.9 1072.9,1058.3 1036.4,1056.5 1036.9,1053.5 1041.4,1028.1 1074.6,1036.7 1059.8,1006.9 1087.4,996.7 1096.2,1028.7 1115.1,1001 1137.8,1019.2 1111.5,1044.1 1147.5,1045.6 "
     id="polygon105"
     transform="matrix(0.06828363,0,0,0.06828363,-17.600441,-19.921024)"
     style="fill:#af001f;fill-opacity:0.94117647" /><polygon
     id="polygon109"
     points="839.2,818.7 903.5,821.5 894.3,873.9 836.3,857.5 861.1,910.2 811.8,928.3 797.7,871.6 762.9,922.3 722.7,888 770.5,844 705.4,840.8 706.3,835.5 714.3,790.1 773.4,805.4 747,752.4 796.3,734.3 812,791.3 845.7,741.7 886.2,774.3 "
     transform="matrix(0.06828363,0,0,0.06828363,-17.600441,-19.921024)"
     style="fill:#af001f;fill-opacity:0.94117647" /></svg>