<?xml version="1.0" encoding="UTF-8" standalone="no"?>
<!-- Created with Inkscape (http://www.inkscape.org/) -->

<svg
   xmlns:dc="http://purl.org/dc/elements/1.1/"
   xmlns:cc="http://creativecommons.org/ns#"
   xmlns:rdf="http://www.w3.org/1999/02/22-rdf-syntax-ns#"
   xmlns:svg="http://www.w3.org/2000/svg"
   xmlns="http://www.w3.org/2000/svg"
   xmlns:xlink="http://www.w3.org/1999/xlink"
   xmlns:sodipodi="http://sodipodi.sourceforge.net/DTD/sodipodi-0.dtd"
   xmlns:inkscape="http://www.inkscape.org/namespaces/inkscape"
   width="120"
   height="60"
   id="svg14667"
   version="1.1"
   inkscape:version="0.92.3 (2405546, 2018-03-11)"
   sodipodi:docname="glassfish-ar21.svg">
  <defs
     id="defs14669">
    <inkscape:perspective
       sodipodi:type="inkscape:persp3d"
       inkscape:vp_x="0 : 526.18109 : 1"
       inkscape:vp_y="0 : 1000 : 0"
       inkscape:vp_z="744.09448 : 526.18109 : 1"
       inkscape:persp3d-origin="372.04724 : 350.78739 : 1"
       id="perspective14675" />
    <inkscape:perspective
       id="perspective14646"
       inkscape:persp3d-origin="0.5 : 0.33333333 : 1"
       inkscape:vp_z="1 : 0.5 : 1"
       inkscape:vp_y="0 : 1000 : 0"
       inkscape:vp_x="0 : 0.5 : 1"
       sodipodi:type="inkscape:persp3d" />
    <linearGradient
       inkscape:collect="always"
       xlink:href="#linearGradient3884"
       id="linearGradient5000"
       gradientUnits="userSpaceOnUse"
       x1="268.98013"
       y1="534.19055"
       x2="239.375"
       y2="572.36218" />
    <linearGradient
       inkscape:collect="always"
       id="linearGradient3884">
      <stop
         style="stop-color:#ffffff;stop-opacity:1;"
         offset="0"
         id="stop3886" />
      <stop
         style="stop-color:#ffffff;stop-opacity:0;"
         offset="1"
         id="stop3888" />
    </linearGradient>
    <inkscape:perspective
       id="perspective14827"
       inkscape:persp3d-origin="0.5 : 0.33333333 : 1"
       inkscape:vp_z="1 : 0.5 : 1"
       inkscape:vp_y="0 : 1000 : 0"
       inkscape:vp_x="0 : 0.5 : 1"
       sodipodi:type="inkscape:persp3d" />
    <inkscape:perspective
       id="perspective14849"
       inkscape:persp3d-origin="0.5 : 0.33333333 : 1"
       inkscape:vp_z="1 : 0.5 : 1"
       inkscape:vp_y="0 : 1000 : 0"
       inkscape:vp_x="0 : 0.5 : 1"
       sodipodi:type="inkscape:persp3d" />
    <inkscape:perspective
       id="perspective14883"
       inkscape:persp3d-origin="0.5 : 0.33333333 : 1"
       inkscape:vp_z="1 : 0.5 : 1"
       inkscape:vp_y="0 : 1000 : 0"
       inkscape:vp_x="0 : 0.5 : 1"
       sodipodi:type="inkscape:persp3d" />
    <inkscape:perspective
       id="perspective14910"
       inkscape:persp3d-origin="0.5 : 0.33333333 : 1"
       inkscape:vp_z="1 : 0.5 : 1"
       inkscape:vp_y="0 : 1000 : 0"
       inkscape:vp_x="0 : 0.5 : 1"
       sodipodi:type="inkscape:persp3d" />
  </defs>
  <sodipodi:namedview
     id="base"
     pagecolor="#ffffff"
     bordercolor="#666666"
     borderopacity="1.0"
     inkscape:pageopacity="0.0"
     inkscape:pageshadow="2"
     inkscape:zoom="5.6"
     inkscape:cx="83.499374"
     inkscape:cy="24.331587"
     inkscape:document-units="px"
     inkscape:current-layer="layer1"
     showgrid="false"
     inkscape:window-width="1920"
     inkscape:window-height="1001"
     inkscape:window-x="-9"
     inkscape:window-y="-9"
     inkscape:window-maximized="1" />
  <metadata
     id="metadata14672">
    <rdf:RDF>
      <cc:Work
         rdf:about="">
        <dc:format>image/svg+xml</dc:format>
        <dc:type
           rdf:resource="http://purl.org/dc/dcmitype/StillImage" />
        <dc:title></dc:title>
      </cc:Work>
    </rdf:RDF>
  </metadata>
  <g
     inkscape:label="Layer 1"
     inkscape:groupmode="layer"
     id="layer1"
     transform="translate(16.651877,-526.682)">
    <g
       id="g865"
       transform="translate(4.2998744e-7,2.1548436)">
      <g
         transform="matrix(0.2699722,0,0,0.2699722,30.447231,342.64948)"
         id="g14956">
        <path
           inkscape:connector-curvature="0"
           style="fill:#f2f2f2;fill-opacity:1;stroke:none"
           d="m 75.778634,705.63935 -3.59375,2.84375 c -1.97311,1.57823 -4.6736,3.55 -6,4.375 -1.3264,0.825 -2.26069,1.90221 -2.09375,2.40625 0.16695,0.50404 4.29253,1.98183 9.1875,3.28125 8.2,2.17679 24.19159,8.96465 23.28125,9.875 -0.21552,0.21551 -5.03792,-0.95882 -10.71875,-2.59375 -18.10166,-5.20962 -27.14543,-6.26834 -47.96875,-5.6875 -15.4856,0.43195 -20.17538,0.91844 -28.0937501,3 -19.45529,5.11433 -38.7949799,15.64051 -49.9999999,27.21875 -3.025,3.12575 -6.77843,6.50716 -8.34375,7.5 -3.34401,0.79512 -4.41942,0.15744 -5.5625,-0.4375 -0.4565,-0.28213 -0.76276,-0.65269 -0.9375,-1.125 -0.38148,1.37908 -0.80008,2.60245 -1.25,3.59375 0.50461,-0.10704 1.02884,-0.14054 1.5625,-0.15625 1.70181,-0.0501 3.43165,0.3073 4.4375,0.75 l 4.375,3.21875 c 18.43377,13.61783 28.37926,18.39068 38.7187499,18.5625 5.41898,0.0901 7.29111004,-0.34744 11.21875,-2.65625 2.26725,-1.33277 4.49923,-3.04987 5.375,-4.09375 0.12511,-0.14913 0.21499,-0.28784 0.28125,-0.40625 0.5779201,-1.03268 1.1202401,-1.33896 1.4687501,-1.15625 8.3057,-2.13373 22.95344,0.19169 46,8.3125 0.019,0.007 0.0435,-0.007 0.0625,0 4.60102,0.14013 11.54211,2.15647 20.84375,6.0625 1.35987,0.57105 1.75,0.24535 1.75,-1.46875 0,-5.22306 6.09847,-12.08731 11.4375,-13.625 v -0.0312 c 9.192626,-5.24713 20.477706,-6.43044 30.499996,-6.6875 l -0.4375,-0.1563 4.4375,-0.3125 c 6.61977,-0.47257 12.42757,2.18713 17.25,7.90625 2.27781,2.70135 4.50484,4.90625 4.96875,4.90625 1.39154,0 0.96498,-6.12772 -1.125,-16.09375 -1.56179,-7.44736 -1.83059,-11.49749 -1.34375,-19.5 0.38069,-6.25772 0.23671,-10.34069 -0.375,-10.71875 -0.54317,-0.3357 -4.55829,0.24946 -8.90625,1.28125 -11.92778,2.83053 -17.40625,3.48223 -17.40625,2.09375 0,-0.0712 0.0621,-0.17216 0.15625,-0.28125 -5.91285,2.04217 -14.47902,-1.04997 -18.21875,-4.625 -3.985676,-3.81017 -2.002226,-9.26322 -3.937496,-13.28125 -0.005,1.25719 -0.23118,1.24193 -1.75,-0.0625 -0.9625,-0.82661 -3.94767,-2.11174 -6.65625,-2.84375 -3.35104,-0.90564 -6.14778,-2.56859 -8.75,-5.25 z"
           id="rect14924"
           sodipodi:nodetypes="ccssssssssccccsccsssscscsscccccssssssscscsscc" />
        <path
           inkscape:connector-curvature="0"
           id="path14839-2"
           d="m 24.4033,753.61214 c -0.36222,-7.2875 -0.92527,-14.9375 -1.25122,-17 -0.33741,-2.13507 -0.18027,-3.75 0.3649,-3.75 0.96957,0 3.58268,5.41956 4.82162,10 0.37192,1.375 1.36774,3.2875 2.21293,4.25 1.38522,1.57749 1.37356,1.93027 -0.11828,3.57874 -0.91025,1.00581 -1.6575,3.36831 -1.66057,5.25 -0.007,4.19259 -1.7933,10.92126 -2.89961,10.92126 -0.44615,0 -1.10754,-5.9625 -1.46977,-13.25 z m 12.95016,8.06338 c -0.22587,-0.72236 -0.64666,-7.08438 -0.9351,-14.13783 -0.44253,-10.82167 -0.30925,-12.64586 0.85346,-11.6809 0.75783,0.62895 1.67598,2.57495 2.04032,4.32445 0.36434,1.74949 1.33979,4.24856 2.16766,5.55348 1.12532,1.7738 1.24404,2.90951 0.4704,4.5 -0.56914,1.17008 -1.31666,4.25443 -1.66115,6.85411 -0.62317,4.70271 -2.15227,7.09185 -2.93559,4.58669 z m 12.20162,-13.02163 c -0.25996,-6.76046 -0.29163,-12.50372 -0.0704,-12.76279 0.64039,-0.74982 2.19925,2.13379 3.49822,6.47104 0.65888,2.2 1.62294,4.29208 2.14236,4.64908 0.54166,0.37227 0.58843,1.43841 0.10967,2.5 -0.4591,1.018 -1.31217,3.83945 -1.89572,6.26987 -2.0035,8.3445 -3.28179,5.93693 -3.78416,-7.1272 z m 13.15018,5.45825 c -0.0402,-3.1625 -0.41225,-8.13409 -0.82688,-11.04798 -0.41463,-2.91389 -0.43277,-5.49643 -0.0403,-5.73899 1.07391,-0.66372 2.69213,1.6778 3.48491,5.04256 0.38803,1.64693 1.66171,3.76494 2.83039,4.70671 l 2.12488,1.71229 -2.25,1.59441 c -1.24804,0.88439 -2.25,2.64603 -2.25,3.95592 0,3.01052 -0.95893,5.52508 -2.10699,5.52508 -0.49115,0 -0.92586,-2.5875 -0.96601,-5.75 z m 12.06199,-2.41667 c -0.006,-3.48333 -0.30128,-8.09079 -0.65607,-10.23881 -0.86267,-5.22296 0.87093,-4.09566 4.11014,2.67269 2.11179,4.4126 2.27346,5.39177 1.10626,6.7003 -0.75183,0.84287 -1.5205,2.62224 -1.70814,3.95416 -0.18765,1.33192 -0.90368,2.60692 -1.59118,2.83333 -0.91103,0.30003 -1.25298,-1.30579 -1.26101,-5.92167 z m 11.01101,-4.04762 c 0,-8.38969 0.1411,-9.07318 1.5767,-7.63758 2.16317,2.16316 2.90354,8.8667 1.46178,13.23528 -1.99058,6.03152 -3.03848,4.10102 -3.03848,-5.5977 z m 10.45956,1.70513 c -1.87399,-1.46904 -1.82855,-1.52421 1.04044,-1.26348 1.65,0.14995 2.92125,0.71139 2.825,1.24764 -0.2923,1.62855 -1.80029,1.63473 -3.86544,0.0158 z"
           style="fill:#febc5b"
           sodipodi:nodetypes="csssssssccssssssccssssscccssscccssccsssssccssccsscc" />
        <path
           inkscape:connector-curvature="0"
           style="fill:#000000"
           d="m -23.96875,361.84375 c -1.668703,-3.1e-4 -3.619067,0.69762 -6.25,1.96875 -2.29504,1.10884 -7.44173,3.17381 -11.4375,4.59375 -3.99577,1.41994 -9.08125,3.57679 -11.28125,4.8125 -3.22613,1.81208 -5.71591,2.28301 -12.875,2.40625 -26.93629,0.46372 -55.09845,9.69242 -75,24.59375 -10.2788,7.69627 -16.25337,16.82461 -12.53125,19.125 1.14308,0.59494 2.21849,1.23262 5.5625,0.4375 1.56532,-0.99284 5.31875,-4.37425 8.34375,-7.5 11.20502,-11.57824 30.54471,-22.10442 50,-27.21875 7.91837,-2.08156 12.60815,-2.56805 28.09375,-3 20.82332,-0.58084 29.86709,0.47788 47.96875,5.6875 5.68083,1.63493 10.50323,2.80926 10.71875,2.59375 0.91034,-0.91035 -15.08125,-7.69821 -23.28125,-9.875 -4.89497,-1.29942 -9.02055,-2.77721 -9.1875,-3.28125 -0.16694,-0.50404 0.76735,-1.58125 2.09375,-2.40625 1.3264,-0.825 4.02689,-2.79677 6,-4.375 l 3.59375,-2.84375 3.84375,3.9375 c 2.60222,2.68141 5.39896,4.34436 8.75,5.25 2.70858,0.73201 5.69375,2.01714 6.65625,2.84375 1.53538,1.31866 1.75,1.33039 1.75,0.0312 0,-1.91718 -3.53635,-4.98098 -8.15625,-7.0625 -2.01192,-0.90647 -4.48692,-2.85208 -5.5,-4.3125 -3.104225,-4.47491 -5.093829,-6.40574 -7.875,-6.40625 z m 73.65625,21.9375 c -3.55227,0 -30.125,12.40452 -30.125,14.0625 0,1.38848 5.47847,0.73678 17.40625,-2.09375 4.34796,-1.03179 8.36308,-1.61695 8.90625,-1.28125 0.61171,0.37806 0.75569,4.46103 0.375,10.71875 -0.48684,8.00251 -0.21804,12.05264 1.34375,19.5 2.08998,9.96603 2.51654,16.09375 1.125,16.09375 -0.46391,0 -2.69094,-2.2049 -4.96875,-4.90625 -4.82243,-5.71912 -10.63023,-8.37882 -17.25,-7.90625 l -4.4375,0.3125 6.59375,2.28125 c 7.26045,2.51007 9.53737,4.52919 16,14.21875 2.38442,3.575 4.80382,6.84592 5.375,7.25 1.51233,1.06989 2.15433,0.94034 3.53125,-0.71875 0.587878,-0.70835 0.854091,-2.69128 0.84375,-6.96875 -4.6e-5,-0.0191 5.7e-5,-0.0433 0,-0.0625 0.09661,-2.99775 -0.0086,-6.92463 -0.3125,-11.84375 -0.08633,-1.39743 -0.146773,-2.31901 -0.21875,-3.5625 -0.653509,-15.6271 -0.594765,-18.69075 0.15625,-29.09375 0.9196,-12.73813 0.03211,-16 -4.34375,-16 z m -162.28125,19.125 c -2.61843,-0.10384 -5.43913,1.37442 -7.34375,4.28125 -1.73425,2.64679 -1.12619,4.93019 2.375,8.9375 2.12766,2.43522 6.87224,1.506 9.875,-1.90625 2.75173,-3.12699 2.77052,-4.05354 0.25,-8.1875 -1.22838,-2.01469 -3.11969,-3.04423 -5.15625,-3.125 z m -3,4.9375 c 1.12807,-0.18725 3.46321,1.32714 3.9375,2.75 0.59254,1.77761 -3.75245,1.44148 -4.4375,-0.34375 -0.32574,-0.84872 -0.27558,-1.84942 0.0937,-2.21875 0.10238,-0.10238 0.2451,-0.16075 0.40625,-0.1875 z m -38.375,13.8125 c -0.56727,0.0167 -1.12234,0.0651 -1.65625,0.1875 -0.0686,0.0587 -0.1231,0.12564 -0.1875,0.1875 -1.13951,0.4391 -1.63364,1.47478 -1.4375,3.09375 0.001,0.009 -0.001,0.0218 0,0.0312 -5.9e-4,0.0104 5.2e-4,0.0209 0,0.0312 -0.0634,1.26456 0.36584,2.57568 1.34375,3.65625 4.85562,5.3654 29.69125,18.11008 38.78125,19.90625 6.02963,1.19149 8.94814,1.17946 14.59375,-0.0312 5.69745,-1.22189 12.61799,-5.8183 14.28125,-9.46875 1.29686,-2.84631 0.13629,-4.8076 -1.3125,-2.21875 -0.53011,0.94725 -3.06511,2.97683 -5.65625,4.5 -3.92764,2.30881 -5.79977,2.74635 -11.21875,2.65625 -10.33949,-0.17182 -20.28498,-4.94467 -38.71875,-18.5625 l -4.375,-3.21875 c -1.00585,-0.4427 -2.73569,-0.80012 -4.4375,-0.75 z m 148.125,13.15625 c -5.69,-0.0943 -13.59375,8.02175 -13.59375,13.96875 0,1.7141 -0.39013,2.0398 -1.75,1.46875 -13.58835,-5.70614 -22.17472,-7.38463 -25.71875,-5.0625 -2.90233,1.90168 -3.3438,5.22534 -0.78125,5.96875 0.9625,0.27923 6.25,1.03497 11.75,1.6875 5.5,0.65252 10.675,1.56767 11.5,2.03125 1.064564,0.5982 2.535559,0.86325 4,0.8125 0.07619,0.002 0.143479,-2.3e-4 0.21875,0 0.02106,-10e-4 0.04145,10e-4 0.0625,0 1.260091,-0.005 2.362216,-0.25331 3.125,-0.78125 0.02163,-0.0105 0.04112,-0.0206 0.0625,-0.0312 0.0116,-0.008 0.01982,-0.0227 0.03125,-0.0312 0.264427,-0.13484 0.530537,-0.2709 0.75,-0.4375 1.20997,-0.91849 1.75,-2.73674 1.75,-5.84375 0,-4.76235 1.51969,-7.08603 7.5,-11.5 2.45979,-1.81553 2.66157,-2.224 1.09375,-2.25 z"
           id="path14837-1"
           transform="translate(99.211478,338.07605)" />
        <path
           inkscape:connector-curvature="0"
           id="path14837-1-6"
           d="m -12.199457,777.56506 -3.5,-1.05694 6.2285098,-1.17844 c 8.24669,-1.56027 10.27148998,-3.46892 10.27148998,-9.6823 0,-5.28278 1.03032002,-6.0675 3.44330002,-2.6225 3.4803,4.96882 1.0763,11.82679 -5.04186999,14.38312 -3.84285001,1.60565 -6.48401001,1.64203 -11.40142981,0.15706 z M 125.25893,756.04865 c 0.45732,-2.70687 0.17012,-5.19961 -0.89194,-7.74148 -1.94535,-4.65588 -1.95691,-4.5048 0.34466,-4.5048 2.81945,0 7.29545,5.72624 6.53773,8.36386 -0.81433,2.83466 -3.74829,6.90262 -5.36775,7.44244 -0.9895,0.32984 -1.13721,-0.51465 -0.6227,-3.56002 z M 89.300543,731.66544 c -19.76565,-6.38181 -54.73467,-6.56459 -78.30583,-0.40931 -4.8138902,1.25708 -5.8944302,1.27456 -7.0548902,0.1141 -1.98183,-1.98183 1.60751,-4.06349 11.4252302,-6.62612 19.213794,-3.67724 66.18646,-5.15465 82.43549,8.50324 0,0.88023 -2.06399,0.4961 -8.5,-1.58191 z"
           style="fill:#71a0fe;fill-opacity:1"
           sodipodi:nodetypes="cccsssccssssccssccc" />
      </g>
      <g
         transform="matrix(0.08611806,0,0,0.08611806,81.187684,552.23435)"
         id="text829"
         style="font-style:normal;font-variant:normal;font-weight:300;font-stretch:normal;font-size:217.05332947px;line-height:1.25;font-family:'Mukta Vaani';-inkscape-font-specification:'Mukta Vaani, Light';font-variant-ligatures:normal;font-variant-caps:normal;font-variant-numeric:normal;font-feature-settings:normal;text-align:start;letter-spacing:0px;word-spacing:0px;writing-mode:lr-tb;text-anchor:start;fill:#000000;fill-opacity:1;stroke:none;stroke-width:5.42619514"
         aria-label="GlassFish">
        <path
           inkscape:connector-curvature="0"
           id="path831"
           style="font-style:normal;font-variant:normal;font-weight:300;font-stretch:normal;font-size:217.05332947px;font-family:'Mukta Vaani';-inkscape-font-specification:'Mukta Vaani, Light';font-variant-ligatures:normal;font-variant-caps:normal;font-variant-numeric:normal;font-feature-settings:normal;text-align:start;writing-mode:lr-tb;text-anchor:start;stroke-width:5.42619514"
           d="m -764.14759,152.32283 q 11.72088,0 20.83712,1.73643 9.11624,1.73643 17.36426,6.07749 l -3.90696,12.37204 q -7.59686,-3.6899 -15.62784,-5.64338 -7.81392,-1.95348 -16.279,-1.95348 -10.41856,0 -19.9689,3.03874 -9.3333,3.03875 -16.49606,9.98446 -7.16276,6.72865 -11.50382,17.79837 -4.34107,11.06972 -4.34107,26.91461 0,13.67436 3.68991,24.52703 3.6899,10.63561 10.41856,18.01542 6.9457,7.16276 16.279,11.06972 9.33329,3.68991 20.83712,3.68991 8.24802,0 14.32552,-1.08527 6.29454,-1.08526 10.63561,-2.82169 v -43.41067 h -27.56577 v -12.15498 h 42.54245 v 64.89894 q -8.03097,3.2558 -17.58132,5.42634 -9.33329,1.95348 -23.00765,1.95348 -13.89142,0 -26.0464,-4.55812 -12.15499,-4.55812 -21.27123,-13.45731 -9.11624,-8.89919 -14.54257,-21.92239 -5.20928,-13.0232 -5.20928,-30.17041 0,-17.14721 4.99222,-30.38747 4.99223,-13.24025 13.89142,-21.92238 8.89918,-8.89919 21.05417,-13.45731 12.15499,-4.55812 26.48051,-4.55812 z" />
        <path
           inkscape:connector-curvature="0"
           id="path833"
           style="font-style:normal;font-variant:normal;font-weight:300;font-stretch:normal;font-size:217.05332947px;font-family:'Mukta Vaani';-inkscape-font-specification:'Mukta Vaani, Light';font-variant-ligatures:normal;font-variant-caps:normal;font-variant-numeric:normal;font-feature-settings:normal;text-align:start;writing-mode:lr-tb;text-anchor:start;stroke-width:5.42619514"
           d="M -693.69004,290.80286 V 136.69499 h 14.97668 v 154.10787 z" />
        <path
           inkscape:connector-curvature="0"
           id="path835"
           style="font-style:normal;font-variant:normal;font-weight:300;font-stretch:normal;font-size:217.05332947px;font-family:'Mukta Vaani';-inkscape-font-specification:'Mukta Vaani, Light';font-variant-ligatures:normal;font-variant-caps:normal;font-variant-numeric:normal;font-feature-settings:normal;text-align:start;writing-mode:lr-tb;text-anchor:start;stroke-width:5.42619514"
           d="m -647.30507,197.90403 q 10.2015,-5.42633 18.66658,-7.81392 8.68214,-2.60464 19.1007,-2.60464 7.81392,0 14.32552,1.95348 6.72865,1.73643 11.50382,6.07749 4.99223,4.34107 7.59687,11.50383 2.82169,6.94571 2.82169,17.36427 v 66.41832 h -11.72088 l -2.38758,-12.37204 h -0.43411 q -6.5116,7.59686 -14.97668,11.06972 -8.24803,3.2558 -18.23248,3.2558 -7.16276,0 -13.45731,-1.95348 -6.07749,-2.17054 -10.63561,-6.0775 -4.34107,-3.90696 -6.94571,-9.33329 -2.38758,-5.42633 -2.38758,-12.15499 0,-8.03097 3.2558,-14.10846 3.2558,-6.0775 9.11624,-10.20151 6.07749,-4.12401 14.32552,-6.07749 8.46508,-2.17054 18.66658,-2.17054 h 20.62007 v -7.59686 q 0,-13.0232 -6.07749,-18.01543 -6.0775,-5.20928 -16.06195,-5.20928 -6.07749,0 -13.89141,1.95348 -7.59687,1.73643 -16.93016,6.94571 z m 58.82145,43.84477 -16.93016,0.21706 q -18.01543,0.4341 -25.61229,6.29454 -7.59687,5.86044 -7.59687,14.32552 0,10.20151 6.29455,14.32552 6.29454,4.12402 14.97668,4.12402 7.59686,0 15.41078,-3.47286 7.81392,-3.6899 13.45731,-11.93793 z" />
        <path
           inkscape:connector-curvature="0"
           id="path837"
           style="font-style:normal;font-variant:normal;font-weight:300;font-stretch:normal;font-size:217.05332947px;font-family:'Mukta Vaani';-inkscape-font-specification:'Mukta Vaani, Light';font-variant-ligatures:normal;font-variant-caps:normal;font-variant-numeric:normal;font-feature-settings:normal;text-align:start;writing-mode:lr-tb;text-anchor:start;stroke-width:5.42619514"
           d="m -488.09306,204.84974 q -6.29454,-3.03875 -12.15498,-4.34107 -5.64339,-1.30232 -11.93794,-1.30232 -11.06972,0 -16.49605,4.34107 -5.42633,4.34106 -5.42633,11.28677 0,6.29455 4.12401,9.98445 4.34107,3.47286 16.06195,6.94571 l 6.5116,1.95348 q 13.4573,4.12401 20.40301,11.06972 7.16276,6.94571 7.16276,18.01543 0,13.0232 -9.7674,21.48828 -9.7674,8.46508 -27.99988,8.46508 -9.7674,0 -18.01543,-1.73643 -8.24802,-1.51937 -14.32552,-4.55812 l 3.90696,-11.93793 q 5.86044,3.03874 12.5891,4.77517 6.72865,1.51937 14.75962,1.51937 11.06972,0 17.14722,-4.12401 6.29454,-4.34107 6.29454,-12.58909 0,-6.94571 -4.99222,-10.85267 -4.77518,-4.12401 -15.62784,-7.59687 l -6.94571,-2.17053 q -13.45731,-4.34107 -19.96891,-10.85267 -6.5116,-6.72865 -6.5116,-16.93016 0,-6.29454 2.60464,-11.50382 2.60464,-5.20928 7.37982,-8.89919 4.77517,-3.68991 11.06972,-5.64339 6.5116,-2.17053 14.32552,-2.17053 7.16276,0 14.97668,1.30232 7.81392,1.30232 14.54257,4.34107 z" />
        <path
           inkscape:connector-curvature="0"
           id="path839"
           style="font-style:normal;font-variant:normal;font-weight:300;font-stretch:normal;font-size:217.05332947px;font-family:'Mukta Vaani';-inkscape-font-specification:'Mukta Vaani, Light';font-variant-ligatures:normal;font-variant-caps:normal;font-variant-numeric:normal;font-feature-settings:normal;text-align:start;writing-mode:lr-tb;text-anchor:start;stroke-width:5.42619514"
           d="m -401.18693,204.84974 q -6.29454,-3.03875 -12.15498,-4.34107 -5.64339,-1.30232 -11.93794,-1.30232 -11.06972,0 -16.49605,4.34107 -5.42633,4.34106 -5.42633,11.28677 0,6.29455 4.12401,9.98445 4.34107,3.47286 16.06195,6.94571 l 6.5116,1.95348 q 13.4573,4.12401 20.40301,11.06972 7.16276,6.94571 7.16276,18.01543 0,13.0232 -9.7674,21.48828 -9.7674,8.46508 -27.99988,8.46508 -9.7674,0 -18.01543,-1.73643 -8.24802,-1.51937 -14.32552,-4.55812 l 3.90696,-11.93793 q 5.86044,3.03874 12.5891,4.77517 6.72865,1.51937 14.75962,1.51937 11.06972,0 17.14722,-4.12401 6.29454,-4.34107 6.29454,-12.58909 0,-6.94571 -4.99222,-10.85267 -4.77518,-4.12401 -15.62784,-7.59687 l -6.94571,-2.17053 q -13.45731,-4.34107 -19.96891,-10.85267 -6.5116,-6.72865 -6.5116,-16.93016 0,-6.29454 2.60464,-11.50382 2.60464,-5.20928 7.37982,-8.89919 4.77517,-3.68991 11.06972,-5.64339 6.5116,-2.17053 14.32552,-2.17053 7.16276,0 14.97668,1.30232 7.81392,1.30232 14.54257,4.34107 z" />
        <path
           inkscape:connector-curvature="0"
           id="path841"
           style="font-style:normal;font-variant:normal;font-weight:300;font-stretch:normal;font-size:217.05332947px;font-family:'Mukta Vaani';-inkscape-font-specification:'Mukta Vaani, Light';font-variant-ligatures:normal;font-variant-caps:normal;font-variant-numeric:normal;font-feature-settings:normal;text-align:start;writing-mode:lr-tb;text-anchor:start;stroke-width:5.42619514"
           d="m -289.10264,154.05926 v 12.80615 H -351.614 v 49.48815 h 57.73618 v 12.5891 H -351.614 v 61.8602 h -15.62784 v -136.7436 z" />
        <path
           inkscape:connector-curvature="0"
           id="path843"
           style="font-style:normal;font-variant:normal;font-weight:300;font-stretch:normal;font-size:217.05332947px;font-family:'Mukta Vaani';-inkscape-font-specification:'Mukta Vaani, Light';font-variant-ligatures:normal;font-variant-caps:normal;font-variant-numeric:normal;font-feature-settings:normal;text-align:start;writing-mode:lr-tb;text-anchor:start;stroke-width:5.42619514"
           d="M -267.40067,290.80286 V 188.78779 h 15.19373 v 102.01507 z m 7.59686,-128.27852 q -4.34107,0 -7.37981,-2.82169 -2.82169,-2.8217 -2.82169,-7.37982 0,-4.55812 2.82169,-7.37981 3.03874,-3.03875 7.37981,-3.03875 3.90696,0 6.94571,2.8217 3.2558,2.82169 3.2558,7.59686 0,4.77518 -3.03875,7.59687 -3.03875,2.60464 -7.16276,2.60464 z" />
        <path
           inkscape:connector-curvature="0"
           id="path845"
           style="font-style:normal;font-variant:normal;font-weight:300;font-stretch:normal;font-size:217.05332947px;font-family:'Mukta Vaani';-inkscape-font-specification:'Mukta Vaani, Light';font-variant-ligatures:normal;font-variant-caps:normal;font-variant-numeric:normal;font-feature-settings:normal;text-align:start;writing-mode:lr-tb;text-anchor:start;stroke-width:5.42619514"
           d="m -164.20878,204.84974 q -6.29455,-3.03875 -12.15499,-4.34107 -5.64338,-1.30232 -11.93793,-1.30232 -11.06972,0 -16.49605,4.34107 -5.42633,4.34106 -5.42633,11.28677 0,6.29455 4.12401,9.98445 4.34107,3.47286 16.06194,6.94571 l 6.5116,1.95348 q 13.45731,4.12401 20.40302,11.06972 7.16276,6.94571 7.16276,18.01543 0,13.0232 -9.7674,21.48828 -9.7674,8.46508 -27.99988,8.46508 -9.7674,0 -18.01543,-1.73643 -8.24802,-1.51937 -14.32552,-4.55812 l 3.90696,-11.93793 q 5.86044,3.03874 12.5891,4.77517 6.72865,1.51937 14.75962,1.51937 11.06972,0 17.14721,-4.12401 6.29455,-4.34107 6.29455,-12.58909 0,-6.94571 -4.99223,-10.85267 -4.77517,-4.12401 -15.62784,-7.59687 l -6.9457,-2.17053 q -13.45731,-4.34107 -19.96891,-10.85267 -6.5116,-6.72865 -6.5116,-16.93016 0,-6.29454 2.60464,-11.50382 2.60464,-5.20928 7.37982,-8.89919 4.77517,-3.68991 11.06972,-5.64339 6.5116,-2.17053 14.32551,-2.17053 7.16276,0 14.97668,1.30232 7.81392,1.30232 14.54258,4.34107 z" />
        <path
           inkscape:connector-curvature="0"
           id="path847"
           style="font-style:normal;font-variant:normal;font-weight:300;font-stretch:normal;font-size:217.05332947px;font-family:'Mukta Vaani';-inkscape-font-specification:'Mukta Vaani, Light';font-variant-ligatures:normal;font-variant-caps:normal;font-variant-numeric:normal;font-feature-settings:normal;text-align:start;writing-mode:lr-tb;text-anchor:start;stroke-width:5.42619514"
           d="m -116.37225,290.80286 h -15.19373 V 136.69499 h 15.19373 v 65.55011 q 7.16276,-6.29455 15.84489,-10.41856 8.682136,-4.34107 19.100696,-4.34107 8.46508,0 14.759626,2.60464 6.294547,2.38759 10.201507,6.94571 4.124013,4.34106 6.077493,10.41856 2.170533,5.86044 2.170533,13.0232 v 70.32528 h -15.193733 v -66.20127 q 0,-13.24025 -5.86044,-18.88364 -5.643386,-5.86044 -16.061946,-5.86044 -7.596867,0 -15.627836,3.90696 -7.81392,3.90696 -15.41079,10.85267 z" />
      </g>
    </g>
  </g>
</svg>
