<svg xmlns="http://www.w3.org/2000/svg" xmlns:xlink="http://www.w3.org/1999/xlink" width="120" height="60"><g fill="#ff0065"><use xlink:href="#B"/><path d="M66.8 65.5c0 .7-.6 1.3-1.3 1.3H1.3c-.7 0-1.3-.6-1.3-1.3V1.3C0 .6.6 0 1.3 0h64.1c.7 0 1.3.6 1.3 1.3zM213.4 2c0-1.1-.9-2-2-2h-62.8c-1.1 0-2 .9-2 2v62.8c0 1.1.9 2 2 2h46.8l18-18zm-73.3 63.5c0 .7-.6 1.3-1.3 1.3H74.6c-.7 0-1.3-.6-1.3-1.3V1.3c0-.7.6-1.3 1.3-1.3h64.1c.7 0 1.3.6 1.3 1.3v64.2z"/><use xlink:href="#B" x="-73.3"/></g><path d="M180.9 22.8c1 0 2.4.2 3 .4 2.2.5 3.9 1.7 5.1 3.6 1.9 3.1 1.5 7.6-1.8 9.8-.4.2-.7.5-1.1.8a242.29 242.29 0 0 0 4.2 6.5c.2.2 0 .6-.3.6h-6.6c-.3 0-.5-.1-.7-.4l-3.5-5.5h-2.8v5.1c0 .4-.4.8-.8.8h-5c-.4 0-.8-.4-.8-.8v-20c0-.4.4-.8.8-.8zm-4.5 10.4h4.5c.4 0 .8-.1 1.2-.3.9-.4 1.3-1.2 1.3-2.2 0-1.1-.4-1.6-1.2-2.1-.5-.3-1-.4-1.5-.4h-4.3v5M46.5 23.5v20.1a.68.68 0 0 1-.7.7h-5.2a.68.68 0 0 1-.7-.7v-10c-2.1 2.9-4.3 5.8-6.4 8.9-.4-.6-6.3-8.8-6.6-9.3v10.5a.68.68 0 0 1-.7.7H21a.68.68 0 0 1-.7-.7V23.5a.68.68 0 0 1 .7-.7h4.6c.2 0 .4.1.6.3l7.1 9.8 7.2-9.8c.1-.2.4-.3.6-.3h4.7c.3 0 .7.3.7.7m70.8-.7c.4 0 .8.3.8.8v11.3c-.1 2.6-.9 5.1-2.9 7-1.6 1.6-3.6 2.4-5.8 2.8-1.3.2-2.7.3-4 .2-2.8-.2-5.4-1.1-7.4-3.2-1.3-1.4-2.1-3.1-2.4-5.1-.2-1-.2-2.1-.2-3.1v-9.8c0-.4.4-.8.8-.8h4.9c.4 0 .8.3.8.8v9.7c0 1.1.1 2.3.5 3.3.4.9.9 1.6 1.8 2.1 1.2.6 2.4.7 3.7.4 1.7-.3 2.8-1.3 3.2-3 .2-.6.2-1.2.2-1.8V23.7c0-.4.3-.8.8-.8h5.2zm139.1 0l9.6 20.9c.1.3-.1.7-.4.7h-5.8c-.4 0-.7-.2-.9-.6l-.9-2.2h-9.3l-.9 2.2c-.2.4-.5.6-.9.6h-5.8c-.4 0-.6-.4-.4-.7l9.7-20.9zm-.9 13.6l-2.3-6-2.3 6zm69.3-12.8v15.2h9.1c.4 0 .8.4.8.8v4c0 .4-.4.8-.8.8H319c-.4 0-.8-.4-.8-.8v-20c0-.4.4-.8.8-.8h4.9c.6 0 .9.3.9.8" fill="#fff"/><path d="M195.4 66.8h-16.8l17.3-17.4h16.9z" fill="#b0044b"/><path d="M213.4 48.8h-16c-1.1 0-2 .9-2 2v16z" fill="#ff5ba0"/><defs ><path id="B" d="M359.9 65.5c0 .7-.6 1.3-1.3 1.3h-64.1c-.7 0-1.3-.6-1.3-1.3V1.3c0-.7.6-1.3 1.3-1.3h64.1c.7 0 1.3.6 1.3 1.3z"/></defs></svg>