<svg xmlns="http://www.w3.org/2000/svg" xmlns:xlink="http://www.w3.org/1999/xlink" width="256" viewBox="0 0 338.924 297.531"><style><![CDATA[.B{fill:#050505}.C{fill:#dd002a}.D{fill:#f4cf8c}]]></style><path d="M27.708 265.385h5.216l-9.17 11.354-9.247-11.354h5.25v-5.134H0v5.134h7.83L21.017 281.6v10.13h-7.66v5.148h20.78v-5.148H26.47V281.6l13.2-16.215h7.804v-5.134H27.708zM89.07 291.63H66.316V280.2h19.047v-5.232H66.316v-9.47H88.72v7.34h5.128V260.25H53.702v5.134h7.164v26.346h-7.164v5.148h40.523v-13.114H89.07zm54.404-13.064c0 4.534-1.362 7.875-4.17 10.2-2.83 2.354-7.2 3.547-12.96 3.547-5.785 0-10.173-1.194-13.04-3.55-2.837-2.333-4.213-5.674-4.213-10.208 0-4.483 1.38-7.8 4.218-10.17 2.866-2.38 7.25-3.585 13.034-3.585 5.77 0 10.132 1.192 12.957 3.543 2.8 2.34 4.173 5.683 4.173 10.212m-.98-14.45c-2.06-1.543-4.518-2.695-7.3-3.428-2.734-.72-5.72-1.084-8.86-1.084-2.1 0-4.13.157-6.056.475-1.94.323-3.778.823-5.472 1.487-1.72.685-3.293 1.543-4.672 2.554a15.88 15.88 0 0 0-3.653 3.705c-1 1.427-1.784 3.048-2.33 4.818s-.826 3.765-.826 5.922c0 3.244.604 6.104 1.794 8.498s2.86 4.4 4.967 5.955c2.062 1.538 4.53 2.7 7.34 3.423 2.746.724 5.744 1.1 8.908 1.1 3.147 0 6.13-.366 8.86-1.1 2.788-.733 5.242-1.888 7.3-3.423 2.086-1.564 3.75-3.566 4.938-5.957 1.2-2.385 1.794-5.248 1.794-8.496s-.603-6.107-1.794-8.495-2.852-4.4-4.938-5.954m44.585 26.233l-19.5-30.084h-12.285v5.13h7.165v26.348h-7.165v5.148h19.755v-5.148h-7.14v-21.35l17.04 26.497h4.047L206 270.5v21.232h-7.162v5.148h19.757v-5.148h-7.167v-26.348h7.167v-5.13h-12.34zm59.928-10.266l6.857-13.12 6.883 13.12h-13.74zm9.412-19.818h-16.5v5.13h8.7l-13.76 26.346h-7.047v5.15h19.76v-5.15h-6.707l3.396-6.505h19.225l3.346 6.505h-6.67v5.15h19.783v-5.15h-7.05l-16.476-31.477zm62.752 0v5.13h7.164v23.482l-28.102-28.613h-12.24v5.13h7.166v26.346h-7.166v5.15h19.762v-5.15h-7.143v-23.37l28.1 28.523h5.076v-31.497h7.137v-5.13z" class="B"/><path fill="#020202" d="M169.46 235.02c-54.7 0-99.186-44.88-99.186-100.045s44.495-100.04 99.186-100.04 99.188 44.878 99.188 100.04S224.152 235.02 169.46 235.02zm0-195.086c-51.934 0-94.186 42.635-94.186 95.04s42.252 95.045 94.186 95.045 94.188-42.637 94.188-95.045-42.253-95.04-94.188-95.04z"/><defs><path id="A" d="M223.586 54.14v-.256l5.64-28.2S216.7-3.162 174.7.286s-47.33 13.165-54.226 24.762l4.074 18.493-7.836 5.015s-2.82-8.463-7.21-8.776c0 0 6.582-9.403 1.88-15.985S81.597 17.84 71.88 51.064c0 0-1.253-10.03-5.328-10.03s-19.12 5.33-15.045 21 18.18 20.374 22.88 22.254c0 0 2.193 2.82 1.254 6.582-.494 1.975-11.868 37.133-2.368 69.633 7.095 24.27 29.774 45.357 29.774 45.357 17.322 16.523 40.693 26.658 66.413 26.658 53.395 0 96.688-43.67 96.688-97.545a97.68 97.68 0 0 0-42.563-80.832z"/></defs><clipPath id="B"><use xlink:href="#A"/></clipPath><g clip-path="url(#B)"><path d="M281.574 280.104s1.61 21.884-4.326 26.26c0 0-1.25 8.75-9.688 9.06 0 0-1.875 5.002-10.625 2.5s-16.25-28.125-16.25-28.125 26.465-22.515 40.89-9.695z" class="D"/><path d="M203.56 170.528s70.27 11.314 78.014 109.576c0 0-13.102 8.337-26.8 8.933-.001.001 1.19-75.63-51.215-118.51z" class="B"/><path d="M272.746 236.85c-3.832 1.867-11.97 5.08-24.627 6.383l1.25 4.816c4.988-.754 14.07-2.602 24.814-6.932l-1.437-4.267zm-28.094-4.86l1.56 4.734c4.617-.47 14.965-1.93 24.133-6.082-.64-1.537-1.3-3.027-1.977-4.486-3.37 1.553-10.844 4.313-23.715 5.834zm36.922 48.115c-.71-8.996-1.945-17.256-3.602-24.852-5.326 3.303-13.848 7.314-25.383 8.855 2.342 14.863 2.186 24.93 2.186 24.93 13.698-.594 26.8-8.932 26.8-8.932z" class="C"/><g class="D"><circle cx="131.07" cy="96.11" r="15.072"/><circle cx="131.07" cy="96.11" r="15.072"/><path d="M115.998 96.1l.065 1.373c1.074-.456 2.218-1.05 3.438-1.83 7.143-4.563 7.354-10.004 5.76-13.452-5.44 2.274-9.262 7.645-9.262 13.9z"/><circle cx="123.283" cy="96.11" r="7.285"/></g><path fill="#d8af6f" d="M123.283 88.825c-.296 0-.585.022-.87.057 2.84.43 5.042 3.5 5.042 7.228s-2.202 6.797-5.042 7.23a7.35 7.35 0 0 0 .871.057 7.29 7.29 0 0 0 7.285-7.286c0-4.023-3.26-7.285-7.285-7.285z"/><g class="D"><path d="M122.412 88.882a4.46 4.46 0 0 0-.686-.057c-3.164 0-5.73 3.262-5.73 7.285.001-3.728 2.803-6.797 6.415-7.228zm-6.414 7.228c0 4.024 2.564 7.286 5.73 7.286a4.6 4.6 0 0 0 .686-.057c-3.613-.43-6.415-3.5-6.415-7.23z"/><circle cx="219.277" cy="96.11" r="15.072"/><circle cx="219.277" cy="96.11" r="15.072"/><circle cx="227.063" cy="96.11" r="7.286"/></g><path fill="#d8af6f" d="M222.893 96.1c0-3.728 2.203-6.797 5.04-7.228a7.12 7.12 0 0 0-.871-.057c-4.023 0-7.285 3.262-7.285 7.285a7.29 7.29 0 0 0 7.285 7.286c.297 0 .586-.023.87-.057-2.838-.43-5.04-3.5-5.04-7.23z"/><path d="M234.35 96.1c0-4.023-2.566-7.285-5.73-7.285-.232 0-.46.022-.688.057 3.614.43 6.417 3.5 6.417 7.228zm-6.416 7.23c.227.034.455.057.688.057 3.162 0 5.73-3.262 5.73-7.286-.001 3.73-2.804 6.798-6.417 7.23zm-138.968 2.4s14.375 1.875 12.5-12.5c0 0 5 7.812 16.25.625s5.312-16.562 2.188-16.874-7.5-3.75-18.438 7.5l-6.25-14.375 7.188-9.375s.987 13.542 11.43 9.74 2.632-26.927-6.743-26.927L90.216 53.24s3.125-8.75 16.875-15.937c0 0 5.312-3.125 2.187-10.938s-32.812-2.188-37.5 35.937c0 0-5.312-5-4.062-12.812S52.405 43.865 55.53 60.74s19.376 20.312 19.376 20.312 5.517 8.926 1.562 19.062c-.001.001 6.25 7.814 12.5 5.626zm28.75-11.875c11.25-7.187 5.312-16.562 2.188-16.874-1.92-.192-4.318-1.56-8.42.024l3.684 7.585s-.757 10.85-12.867 8.073c0 0-.127.427-.443 1.077 1.37 1.61 6.4 6.152 15.857.115zm-16.145.433c-1.872 3.36-8.364 9.813-23.97 1.77-.297 1.406-.578 2.656-1.136 4.05 0 0 6.25 7.813 12.5 5.625.001-.001 13.647 1.773 12.605-11.443zm.833-33.557s.987 13.542 11.43 9.74c4.27-1.555 5.488-6.34 4.795-11.456-2.606 2.697-10.653 9.542-13.805-4.954L90.442 70.723l-11.354 6.56 14.13-3.532 8.248 10.74-6.25-14.375 7.188-9.375zm-9.835-11.563c2.327-3.2 6.707-7.8 14.522-11.875 0 0 5.312-3.125 2.187-10.938a3.3 3.3 0 0 0-.186-.389c-.74 2.364-2.188 5.18-5.024 7.152-5.804 4.038-26.492 18.417-19.933 40.116.001.002-2.654-13.424 8.434-24.066zm-21.086 12.82c-1.098-1.19-4.837-5.816-3.767-12.506.494-3.086-1.795-4.604-4.55-4.28-.5 8.4.667 25.425 17.184 30.305.001 0-6.255-2.973-8.868-13.52z" class="D"/><path d="M76.466 100.115l12.5 5.625s-11.25 61.874 47.5 64.374c0 0 .413 39.797-35.836 39.174 0 0-47.9-38.057-24.164-109.173z" class="B"/><path d="M91.44 139.4l-.543-1.703-.01-.033c-2.776 1.44-10.246 4.67-20.958 4.564a102.44 102.44 0 0 0 .231 4.076c5.38.016 14.255-.71 21.998-4.887l-.016-.043c-.223-.584-.43-1.17-.63-1.758l-.07-.216zm3.96 8.866a45.24 45.24 0 0 1-.853-1.553l-.004-.006c-3.2 1.516-12.116 5.143-23.81 5.152.205 1.537.444 3.045.713 4.523 6.36.006 15.767-1.123 24.96-6.447l-.026-.043a44.02 44.02 0 0 1-.929-1.533l-.053-.093zm-18.935-48.15c-3.394 9.297-4.824 17.83-5.95 25.83 5.943 1.146 11.942 1.254 17.8-2.54-.747-10.02.64-17.665.64-17.665l-12.5-5.625z" class="C"/><path d="M94.633 258.868l76.568 98.746s2.994 1.07 4.277-.428v-98.318H94.633zm161.082 0l-76.57 98.746s-2.992 1.07-4.277-.428v-98.318h80.847zm-45.295-90.324h-70.494C64.89 201.495 82.36 325.762 82.36 325.762h93.3v-56.826l5.162 56.826h87.168c-.001 0 17.468-124.267-57.57-157.218z" class="B"/><path d="M240.686 289.8s7.5 25.625 16.25 28.125 10.625-2.5 10.625-2.5c2.465-.1 4.31-.902 5.697-2.004.596-8.994 1-22.18-.04-37.093-14.422-1.933-32.53 13.472-32.53 13.472z" class="D"/><path fill="#930023" d="M273.646 284.2c-1.055-26.695-6.416-61.053-24.4-86.768-21.543-23.008-45.686-26.904-45.686-26.904 52.406 42.88 51.215 118.51 51.215 118.51 7.006-.304 13.85-2.634 18.87-4.837z"/><path d="M85.395 245.972l-.697 3.428c20.736-7.637 53.545-12.57 90.477-12.57s69.738 4.934 90.475 12.57l-.695-3.428c-20.77-7.494-53.26-12.318-89.78-12.318s-69.012 4.824-89.78 12.318zm4.107-15.694l-.94 3.088c20.826-6.865 51.896-11.225 86.61-11.225s65.785 4.36 86.61 11.225l-.938-3.088c-20.818-6.69-51.48-10.918-85.672-10.918s-64.855 4.23-85.67 10.918zm29.167-48.093c-16.07 20.713-14.336 45.9-14.336 45.9l4.368-1.984c-1.374-21.98 8.66-39.393 14.97-48.037a82.37 82.37 0 0 0-5.002 4.111zm108.007-4.112c6.31 8.645 16.344 26.057 14.97 48.037l4.367 1.984s1.734-25.197-14.336-45.908c-1.6-1.427-3.268-2.798-5.002-4.113zm-51.018 90.864l5.162 56.826h87.168s5.363-38.156-2.62-77.79l-4.46-1.45c7.3 19.955 3.895 73.972 3.895 73.972h-79.326l-7.47-83.85h-6.083l-.804 83.85H86.44c-3.893-37.958 2.2-73.728 2.2-73.728l-3.607.984c-8.05 39.7-2.665 78.01-2.665 78.01h93.3v-56.825z" class="C"/><path d="M214.162 165.954s-14.984 13.652-39.625 13.652c-29.303 0-38.352-13.652-38.352-13.652l-5.188-95.474h88.35l-5.185 95.474zm0 0s-14.984 13.652-39.625 13.652c-29.303 0-38.352-13.652-38.352-13.652l-5.188-95.474h88.35l-5.185 95.474zm0 0s-14.984 13.652-39.625 13.652c-29.303 0-38.352-13.652-38.352-13.652l-5.188-95.474h88.35l-5.185 95.474z" class="D"/><path fill="#b27d30" d="M186.39 86.757l2.182-2.778s7.94-.397 20.15 6.153c0 0-8.836-10.918-22.137-7.246l.4-2.382-3.773 6.154s1.39 8.238-.098 14.193h-15.883c-1.49-5.956-.1-14.193-.1-14.193l-3.77-6.154.396 2.382c-13.3-3.672-22.134 7.246-22.134 7.246 12.21-6.55 20.15-6.153 20.15-6.153l2.183 2.778c-4.268 8.536-14.292 9.23-14.292 9.23 10.52 1.092 14.393-5.458 14.393-5.458-.596 5.16.495 11.957.495 11.957l10.57 7.448.05-.05.05.05 10.57-7.448s1.1-6.795.494-11.957c0 0 3.87 6.55 14.393 5.458.001 0-10.025-.695-14.3-9.23z"/><ellipse cx="175.173" cy="117.675" rx="14.491" ry="8.685" class="B"/><path d="M175.174 126.796c3.28 0 6.303-1.088 8.73-2.19-1.7-1.84-4.973-3.088-8.73-3.088s-7.03 1.248-8.732 3.088c2.428 1.1 5.453 2.19 8.732 2.19z" class="C"/><path fill="#fff" d="M175.174 108.99c-8.004 0-14.49 3.89-14.49 8.685a5.28 5.28 0 0 0 .056.745h28.87c.035-.247.057-.494.057-.745-.001-4.797-6.49-8.685-14.49-8.685z"/><path fill="#c98c28" d="M175.174 132.017c-2.94 0-5.676-.525-7.96-1.428a10.03 10.03 0 0 0 7.961 3.91c3.248 0 6.13-1.537 7.96-3.9-2.283.902-5.018 1.428-7.96 1.428zm0 25.834c-5.024 0-9.696-.9-13.6-2.443a17.13 17.13 0 0 0 13.599 6.678c5.55 0 10.47-2.623 13.598-6.678-3.905 1.542-8.575 2.443-13.598 2.443z"/><path fill="#cea063" d="M131.85 86.16h86.645l.852-15.68h-88.35z"/><path d="M219.543 70.48l7.752-44.81S215.604 2.728 175.43 2.728c-48.833 0-52.376 22.943-52.376 22.943l7.75 44.81h88.738z" class="B"/><path d="M127.48 51.264l3.325 19.216h88.738l3.324-19.216z" class="C"/><g class="B"><path d="M232.94 81.2H117.407l-3.573-10.72h122.678z"/><circle cx="175.173" cy="57.406" r="14.286"/></g><path d="M175.174 69.944c-6.916 0-12.54-5.624-12.54-12.534 0-6.916 5.625-12.54 12.54-12.54s12.54 5.625 12.54 12.54c0 6.9-5.625 12.534-12.54 12.534zm0-23.437c-6.012 0-10.9 4.89-10.9 10.902s4.9 10.895 10.9 10.895 10.902-4.888 10.902-10.895a10.92 10.92 0 0 0-10.902-10.902zm0 19.95c-4.992 0-9.053-4.06-9.053-9.05s4.06-9.052 9.053-9.052 9.053 4.06 9.053 9.052-4.063 9.05-9.053 9.05zm0-16.918a7.88 7.88 0 0 0-7.871 7.868 7.88 7.88 0 0 0 7.871 7.866 7.88 7.88 0 0 0 7.869-7.866 7.88 7.88 0 0 0-7.869-7.868zm2.264 4.693l4.12-2.973-3.125 4.004 4.914-1.284-4.36 2.605 5.045.577-5.006.856 4.496 2.36-4.976-1.012 3.338 3.826-4.274-2.742 1.733 4.774-2.998-4.1-.108 5.077-1.314-4.907L172.988 66l.547-5.05-3.502 3.68 2.335-4.51-4.595 2.166 3.81-3.363-5.066.36 4.763-1.76-4.852-1.495 5.077.08-3.985-3.147 4.706 1.9-2.58-4.375 3.7 3.48-.826-5.012 2.19 4.582 1.04-4.97.39 5.063 2.767-4.258z" class="C"/><path d="M177.88 57.407a2.71 2.71 0 0 1-2.707 2.703 2.71 2.71 0 0 1-2.703-2.703c0-1.496 1.213-2.706 2.703-2.706s2.707 1.2 2.707 2.706z" class="B"/><path d="M174.537 179.606c-29.288 0-38.342-13.64-38.35-13.652l1.053 19.38s8.804 13.283 37.315 13.283c23.973 0 38.553-13.283 38.553-13.283l1.053-19.38c-.015.016-14.996 13.652-39.623 13.652z" class="C"/><path d="M175.172 198.368c.715-2.52 1.145-5.764 1.145-9.305s-.43-6.785-1.145-9.305c-.713 2.52-1.143 5.764-1.143 9.305s.43 6.786 1.143 9.305z" class="B"/><circle fill="#930023" cx="182.109" cy="189.659" r="2.68"/><circle fill="#fff" cx="181.514" cy="189.063" r="2.68"/><path fill="#ffb000" d="M184.656 215.753H165.69c-3.01 0-5.457 2.45-5.457 5.46v13.494c0 3 2.448 5.46 5.457 5.46h18.967c3 0 5.457-2.45 5.457-5.46v-13.494c0-3-2.447-5.46-5.457-5.46zm-1.476 7.574v9.264c0 .553-.45 1.002-1 1.002h-14.012a1 1 0 0 1-1-1.002v-9.264a1 1 0 0 1 1-1.002h14.012c.55 0 1 .45 1 1.002z"/><path fill="#c98c28" d="M164.638 102.546l10.485 7.388.05-.05.05.05 10.484-7.388z"/><path d="M175.172 108.296s-8.833-10.52-29.577-5.36l-31.364 30.867s11.315 8.438 28.982 6.154 32.06-21.14 31.96-31.66zm.002 0s8.834-10.52 29.578-5.36 31.363 30.867 31.363 30.867-11.314 8.438-28.982 6.154-32.06-21.14-31.96-31.66z" fill="#4f1907"/><path d="M218.164 198.52h1.832l-3.22 3.992-3.25-3.992h1.846v-1.803h-6.94v1.803h2.75l4.632 5.7v3.56h-2.69v1.81h7.303v-1.81h-2.694v-3.56l4.633-5.7h2.742v-1.803h-6.94z" class="C"/></g></svg>