<?xml version="1.0" encoding="UTF-8" standalone="no"?>
<svg
   xmlns:dc="http://purl.org/dc/elements/1.1/"
   xmlns:cc="http://creativecommons.org/ns#"
   xmlns:rdf="http://www.w3.org/1999/02/22-rdf-syntax-ns#"
   xmlns:svg="http://www.w3.org/2000/svg"
   xmlns="http://www.w3.org/2000/svg"
   xmlns:sodipodi="http://sodipodi.sourceforge.net/DTD/sodipodi-0.dtd"
   xmlns:inkscape="http://www.inkscape.org/namespaces/inkscape"
   width="64"
   height="64"
   viewBox="0 0 64 64"
   version="1.1"
   id="svg18"
   sodipodi:docname="fontfamous-icon.svg"
   inkscape:version="0.92.3 (2405546, 2018-03-11)">
  <sodipodi:namedview
     pagecolor="#ffffff"
     bordercolor="#666666"
     borderopacity="1"
     objecttolerance="10"
     gridtolerance="10"
     guidetolerance="10"
     inkscape:pageopacity="0"
     inkscape:pageshadow="2"
     inkscape:window-width="1853"
     inkscape:window-height="1016"
     id="namedview20"
     showgrid="false"
     inkscape:zoom="6.3081368"
     inkscape:cx="-10.237825"
     inkscape:cy="30.682033"
     inkscape:window-x="67"
     inkscape:window-y="27"
     inkscape:window-maximized="1"
     inkscape:current-layer="svg18" />
  <defs
     id="defs3" />
  <rect
     rx="14.222222"
     y="0"
     x="0"
     height="64"
     width="64"
     id="logo-a"
     style="fill:#2b42ea;fill-opacity:1;stroke-width:1.77777779" />
  <path
     d="M29.870198 19.131916C30.24654 18.30777 31.08017 17.777778 32.0 17.777778C32.919831 17.777778 33.753459 18.30777 34.129803 19.131916C34.129803 19.131916 36.895079 25.185283 36.895079 25.185283C37.020699 25.459824 37.21728 25.697725 37.464847 25.874219C37.712938 26.051239 38.003604 26.161148 38.308464 26.193658C38.308464 26.193658 45.026907 26.905303 45.026907 26.905303C45.941482 27.001793 46.712562 27.61695 46.996922 28.475154C47.280756 29.333875 47.025282 30.276714 46.343578 30.882567C46.343578 30.882567 41.333919 35.335634 41.333919 35.335634C41.106861 35.53741 40.937077 35.794412 40.842466 36.080308C40.747866 36.36672 40.73104 36.672225 40.794096 36.96638C40.794096 36.96638 42.1812 43.459942 42.1812 43.459942C42.369905 44.343952 42.012472 45.253762 41.268729 45.784788C40.524454 46.315293 39.532612 46.367417 38.734726 45.918437C38.734726 45.918437 32.873579 42.616699 32.873579 42.616699C32.607614 42.46704 32.306437 42.388088 32.0 42.388088C31.693565 42.388088 31.392385 42.467038 31.126423 42.616699C31.126423 42.616699 25.265261 45.918442 25.265261 45.918442C24.467375 46.367412 23.475535 46.315289 22.731259 45.784793C21.98751 45.253767 21.630091 44.343957 21.818789 43.459947C21.818789 43.459947 23.205893 36.966387 23.205893 36.966387C23.268983 36.672232 23.252153 36.366725 23.157523 36.080312C23.062923 35.794416 22.893135 35.53742 22.666068 35.335641C22.666068 35.335641 17.656406 30.882567 17.656406 30.882567C16.974682 30.276714 16.719231 29.333875 17.003065 28.475154C17.287422 27.61695 18.058505 27.001806 18.97308 26.905303C18.97308 26.905303 25.691524 26.193658 25.691524 26.193658C25.996381 26.161138 26.287047 26.051215 26.53514 25.874219C26.782705 25.697725 26.979288 25.459824 27.104908 25.185283C27.104908 25.185283 29.870198 19.131916 29.870198 19.131916"
     id="path14"
     style="stroke-width:2.5141574615;fill-rule:evenodd;fill:#ffffff" />
  <metadata
     id="metadata46">
    <rdf:RDF>
      <cc:Work
         rdf:about="">
        <dc:title></dc:title>
        <dc:format>image/svg+xml</dc:format>
        <dc:type
           rdf:resource="http://purl.org/dc/dcmitype/StillImage" />
      </cc:Work>
    </rdf:RDF>
  </metadata>
</svg>
