<svg xmlns="http://www.w3.org/2000/svg" width="90" height="94"><path d="M12.886 39.463c0-1.326-.45-2.27-1.354-2.83s-2.188-.84-3.896-.84v-4.9c.848 0 1.6-.06 2.256-.185.67-.137 1.23-.35 1.682-.636.45-.3.786-.684 1.005-1.148.232-.465.335-1.025.308-1.682v-6.52c0-1.012.13-1.873.4-2.584a3.52 3.52 0 0 1 1.395-1.764c.684-.465 1.606-.807 2.77-1.025s2.64-.328 4.43-.328v4.614c-.547.014-1.046.062-1.497.144-.438.082-.813.232-1.128.45-.3.205-.533.492-.697.86s-.246.848-.246 1.436v6.132c-.082 2.557-1.682 4.074-4.8 4.553v.246c1.572.232 2.775.725 3.6 1.477s1.23 1.77 1.2 3.056v6.132c0 .588.082 1.066.246 1.436s.396.656.697.86c.314.22.7.37 1.128.45a9.77 9.77 0 0 0 1.497.144v4.635c-1.8 0-3.268-.1-4.43-.328s-2.085-.56-2.77-1.025a3.52 3.52 0 0 1-1.395-1.764c-.26-.725-.4-1.593-.4-2.605v-6.46m11.67 2.604c0-.643.1-1.183.267-1.62.2-.45.45-.813.78-1.087s.7-.472 1.148-.595a5.21 5.21 0 0 1 1.415-.185 4.83 4.83 0 0 1 1.354.185c.437.123.82.32 1.148.595s.588.636.78 1.087c.2.438.287.978.287 1.62 0 .615-.096 1.142-.287 1.58s-.45.8-.78 1.087a2.92 2.92 0 0 1-1.148.615c-.424.137-.875.205-1.354.205-.506 0-.978-.068-1.415-.205a2.92 2.92 0 0 1-1.148-.615 3.05 3.05 0 0 1-.78-1.087c-.178-.437-.267-.964-.267-1.58M36.126 55.1a14.96 14.96 0 0 1-2.03-.144c-.697-.096-1.278-.22-1.743-.37v-4.922a7.46 7.46 0 0 0 1.189.287c.37.068.786.102 1.25.102a2.81 2.81 0 0 0 .964-.164 1.61 1.61 0 0 0 .8-.554c.232-.26.417-.615.554-1.066.137-.437.205-1.005.205-1.702V22.072h6.255v25.4c0 1.053-.137 2.037-.4 2.953-.26.93-.7 1.736-1.292 2.42-.588.697-1.354 1.244-2.297 1.64s-2.092.595-3.445.595m.923-38.944c0-.588.1-1.073.267-1.456a2.49 2.49 0 0 1 .718-.943 2.76 2.76 0 0 1 1.087-.513 6.02 6.02 0 0 1 1.333-.144 5.77 5.77 0 0 1 1.313.144c.4.096.766.267 1.066.513.314.232.56.547.738.943.2.383.287.868.287 1.456 0 .574-.096 1.06-.287 1.456-.178.397-.424.718-.738.964-.3.232-.656.403-1.066.513-.4.096-.848.144-1.312.144a6.03 6.03 0 0 1-1.333-.144 3.19 3.19 0 0 1-1.087-.513c-.3-.246-.54-.567-.718-.964s-.267-.882-.267-1.456M65.3 38.192c0 1.203-.22 2.256-.656 3.158a6.09 6.09 0 0 1-1.866 2.256c-.807.6-1.784 1.053-2.933 1.353s-2.434.45-3.855.45c-.752 0-1.45-.027-2.092-.082a14.49 14.49 0 0 1-1.825-.226l-1.66-.4a13.95 13.95 0 0 1-1.62-.615V38.9c.574.287 1.176.547 1.805.78l1.907.615 1.825.4c.602.096 1.155.144 1.66.144.56 0 1.04-.048 1.436-.144a2.76 2.76 0 0 0 .964-.43 1.66 1.66 0 0 0 .554-.656c.123-.26.185-.533.185-.82s-.048-.54-.144-.76c-.082-.232-.28-.472-.595-.718-.314-.26-.78-.547-1.395-.86l-2.44-1.2-2.604-1.333c-.725-.45-1.326-.95-1.805-1.497-.465-.547-.813-1.17-1.046-1.866s-.35-1.552-.35-2.522c0-1.066.205-1.996.615-2.8.4-.807 1-1.477 1.743-2s1.654-.93 2.707-1.2c1.066-.273 2.25-.4 3.548-.4 1.367 0 2.666.157 3.896.472s2.495.786 3.794 1.415L63.156 28a26.72 26.72 0 0 0-2.974-1.21c-.943-.314-1.887-.472-2.83-.472-.848 0-1.463.15-1.846.45-.37.3-.554.7-.554 1.23 0 .273.048.52.144.738.096.205.287.424.574.656.287.22.7.465 1.2.738l2.03.964 2.625 1.27c.78.4 1.45.882 2 1.415s1 1.155 1.292 1.866.45 1.572.45 2.584m11.163 7.694c0 1.012-.13 1.88-.4 2.605s-.73 1.313-1.415 1.764c-.67.465-1.586.807-2.748 1.025s-2.64.328-4.43.328V47a9.41 9.41 0 0 0 1.477-.144c.437-.082.807-.232 1.107-.45a1.94 1.94 0 0 0 .718-.861c.178-.37.267-.848.267-1.436v-6.132c-.04-1.285.355-2.304 1.2-3.056s2.03-1.244 3.6-1.477v-.246c-3.104-.48-4.696-1.996-4.778-4.553v-6.132c0-.588-.1-1.066-.267-1.436a1.94 1.94 0 0 0-.718-.861c-.3-.22-.67-.37-1.107-.45a9.6 9.6 0 0 0-1.477-.144v-4.614c1.8 0 3.268.1 4.43.328s2.078.56 2.748 1.025c.684.45 1.155 1.04 1.415 1.764.26.7.4 1.572.4 2.584v6.52c-.014.656.1 1.217.308 1.682s.554.848 1.005 1.148c.45.287 1.005.5 1.66.636.67.123 1.43.185 2.276.185v4.9c-1.7 0-3.015.28-3.917.84-.9.56-1.333 1.504-1.333 2.83v6.46" fill="#558"/><path d="M6.745 83.42c-.3 0-.56-.02-.782-.062-.223-.035-.416-.085-.58-.15V81.8a4.91 4.91 0 0 0 .642.123 4.88 4.88 0 0 0 .738.053 2.5 2.5 0 0 0 .65-.088 1.44 1.44 0 0 0 .598-.299c.182-.147.328-.35.44-.606s.167-.586.167-.984V67.15h1.644v12.674c0 .615-.088 1.148-.264 1.6a2.92 2.92 0 0 1-.721 1.116 2.78 2.78 0 0 1-1.107.659c-.428.147-1.012.22-1.533.22m11.793-4.755h-.07a5.92 5.92 0 0 1-.58.686 2.84 2.84 0 0 1-.633.466 2.84 2.84 0 0 1-.765.273c-.282.06-.606.088-.976.088-.404 0-.776-.06-1.116-.176a2.21 2.21 0 0 1-.888-.52c-.246-.24-.44-.54-.58-.896-.14-.363-.2-.8-.2-1.283 0-.96.337-1.7 1-2.215.68-.516 1.7-.797 3.094-.844l1.617-.062v-.606c0-.393-.044-.72-.132-.984-.082-.264-.205-.475-.37-.633a1.33 1.33 0 0 0-.598-.352 2.83 2.83 0 0 0-.809-.105 4.3 4.3 0 0 0-1.362.21 8.73 8.73 0 0 0-1.204.51l-.562-1.204c.434-.234.917-.434 1.45-.598a5.68 5.68 0 0 1 1.679-.246c.598 0 1.113.062 1.547.185.44.117.8.308 1.08.57a2.36 2.36 0 0 1 .642.993c.142.403.2.894.2 1.468V80H18.75zm-2.6.215a2.88 2.88 0 0 0 .993-.167 2.12 2.12 0 0 0 .79-.5c.223-.228.396-.513.52-.852.13-.346.193-.75.193-1.213v-.87l-1.257.062c-.527.023-.97.082-1.327.176s-.645.226-.86.396c-.2.164-.363.366-.457.606a2.14 2.14 0 0 0-.141.8c0 .54.14.935.422 1.187.287.252.662.378 1.125.378m5.42-8.532h1.652l1.75 5.37.23.747.264.932.237.896.15.642h.062l.15-.642.237-.896.264-.932.23-.747 1.75-5.37h1.652L26.575 80h-2.03zm15.157 8.314h-.07a5.92 5.92 0 0 1-.58.686 2.84 2.84 0 0 1-1.398.739c-.282.06-.606.088-.976.088-.404 0-.776-.06-1.116-.176a2.21 2.21 0 0 1-.888-.52c-.246-.24-.44-.54-.58-.896-.14-.363-.2-.8-.2-1.283 0-.96.337-1.7 1-2.215.68-.516 1.7-.797 3.094-.844l1.617-.062v-.606c0-.393-.044-.72-.132-.984-.082-.264-.205-.475-.37-.633a1.33 1.33 0 0 0-.598-.352 2.83 2.83 0 0 0-.809-.105 4.3 4.3 0 0 0-1.362.21 8.73 8.73 0 0 0-1.204.51l-.562-1.204c.434-.234.917-.434 1.45-.598a5.68 5.68 0 0 1 1.68-.246c.598 0 1.113.062 1.547.185.44.117.8.308 1.08.57a2.36 2.36 0 0 1 .642.993c.142.403.2.894.2 1.468V80h-1.15zm-2.6.22a2.88 2.88 0 0 0 .993-.167 2.12 2.12 0 0 0 .79-.5c.223-.23.396-.513.52-.852.13-.346.193-.75.193-1.213v-.87l-1.257.062c-.527.023-.97.082-1.327.176s-.645.226-.86.396c-.2.164-.363.366-.457.606a2.14 2.14 0 0 0-.141.8c0 .54.14.935.422 1.187.287.252.662.378 1.125.378m13.933-2.323c0 .568-.103 1.078-.308 1.53a3.09 3.09 0 0 1-.861 1.134c-.375.3-.832.548-1.37.712-.54.158-1.146.237-1.82.237a10.06 10.06 0 0 1-1.828-.158c-.563-.1-1.034-.25-1.415-.448v-1.564l.677.28.8.237.87.176a6.71 6.71 0 0 0 .888.062c.937 0 1.63-.176 2.074-.527.45-.352.677-.855.677-1.512a2.35 2.35 0 0 0-.132-.826c-.082-.234-.23-.448-.448-.642-.2-.2-.495-.4-.853-.57a12.33 12.33 0 0 0-1.354-.606 8.44 8.44 0 0 1-1.362-.668c-.38-.246-.697-.522-.95-.826-.246-.305-.43-.65-.554-1.037-.117-.387-.176-.826-.176-1.318 0-.516.094-.975.28-1.38a2.82 2.82 0 0 1 .791-1.02 3.53 3.53 0 0 1 1.213-.642c.475-.146.996-.22 1.564-.22.697 0 1.324.067 1.88.202.557.13 1.052.296 1.485.5l-.6 1.37c-.38-.17-.814-.316-1.3-.44a5.74 5.74 0 0 0-1.494-.193c-.715 0-1.27.167-1.66.5a1.67 1.67 0 0 0-.6 1.336c0 .334.044.624.132.87a1.76 1.76 0 0 0 .439.659c.205.193.475.378.8.554.34.17.756.352 1.248.545a11.57 11.57 0 0 1 1.397.65 4.18 4.18 0 0 1 1.011.756 2.73 2.73 0 0 1 .606.976c.14.37.215.822.215 1.326m5.953 3.597c-.592 0-1.146-.1-1.66-.273a3.46 3.46 0 0 1-1.345-.88c-.38-.404-.68-.917-.896-1.538-.217-.627-.325-1.38-.325-2.26 0-.92.1-1.7.334-2.338.223-.645.527-1.166.914-1.564a3.52 3.52 0 0 1 1.37-.88c.52-.183 1.08-.273 1.68-.273a5.96 5.96 0 0 1 1.336.149 4.92 4.92 0 0 1 1.099.369l-.475 1.354c-.135-.06-.284-.114-.448-.167a5.1 5.1 0 0 0-.5-.15c-.176-.047-.35-.082-.52-.105a2.88 2.88 0 0 0-.483-.044c-.92 0-1.6.296-2.013.888-.422.586-.633 1.5-.633 2.742 0 1.236.2 2.142.633 2.716.428.568 1.075.852 1.942.852a4.82 4.82 0 0 0 1.283-.158 7.35 7.35 0 0 0 1.055-.387v1.424a4.21 4.21 0 0 1-1.02.387c-.357.088-.82.132-1.342.132m8.77-9.998l.57.026a4.07 4.07 0 0 1 .545.062l-.2 1.477-.5-.07c-.17-.024-.33-.035-.483-.035-.37 0-.706.076-1 .228a2.24 2.24 0 0 0-.791.642 2.9 2.9 0 0 0-.5 1.002 4.45 4.45 0 0 0-.176 1.292V80h-1.6v-9.65h1.3l.193 1.767h.07l.466-.73a3.5 3.5 0 0 1 .563-.615 2.55 2.55 0 0 1 .703-.431 2.36 2.36 0 0 1 .906-.167M66.9 80h-1.6v-9.65h1.6V80m-1.46-13.025a.98.98 0 0 1 .668-.237 1 1 0 0 1 .36.062.7.7 0 0 1 .299.176.8.8 0 0 1 .202.316c.053.123.08.273.08.448 0 .34-.094.595-.28.765-.182.164-.4.246-.66.246s-.493-.123-.675-.288c-.176-.164-.26-.42-.258-.744.001-.33.1-.586.265-.744zm8.805 13.2a3.59 3.59 0 0 1-.94-.114c-.28-.076-.536-.176-.765-.3a3.06 3.06 0 0 1-.598-.448 4.34 4.34 0 0 1-.457-.536h-.105l.053.57.035.475.018.378v4.122h-1.6V70.35h1.3l.23 1.3h.07a3.91 3.91 0 0 1 .457-.571 2.55 2.55 0 0 1 .589-.466 3.08 3.08 0 0 1 .765-.316 3.39 3.39 0 0 1 .949-.123c.55 0 1.052.105 1.503.316s.835.527 1.15.95c.322.416.57.935.747 1.556s.264 1.342.264 2.162c0 .826-.088 1.553-.264 2.18-.176.62-.425 1.143-.747 1.564-.316.422-.7.74-1.15.958-.45.2-1.063.316-1.614.316m-.197-8.675c-.445 0-.823.067-1.134.202-.305.135-.554.34-.747.615s-.328.618-.422 1.028a7.78 7.78 0 0 0-.149 1.45v.36a9.83 9.83 0 0 0 .114 1.582c.082.457.217.844.404 1.16a1.94 1.94 0 0 0 .765.712c.316.158.712.237 1.187.237.8 0 1.37-.32 1.74-.958s.562-1.556.563-2.75c0-1.22-.188-2.13-.562-2.733s-.955-.905-1.758-.905m9.3 7.365c.105 0 .223-.01.352-.018l.387-.044.334-.062.237-.062v1.213c-.076.035-.173.07-.3.105a3.29 3.29 0 0 1-.387.088c-.14.03-.287.05-.44.062a3.81 3.81 0 0 1-.448.026c-.363 0-.7-.047-1-.14a1.92 1.92 0 0 1-.81-.483c-.223-.23-.398-.536-.527-.923-.13-.393-.193-.885-.193-1.477v-5.6h-1.362v-.712l1.362-.686.686-2.022h.923v2.215H84.5v1.204h-2.426v5.6c0 .568.1.996.272 1.283s.492.43.914.43" stroke="#000"/></svg>