<?xml version="1.0" encoding="UTF-8" standalone="no"?>
<!--
 Licensed to the Apache Software Foundation (ASF) under one
 or more contributor license agreements.  See the NOTICE file
 distributed with this work for additional information
 regarding copyright ownership.  The ASF licenses this file
 to you under the Apache License, Version 2.0 (the
 "License"); you may not use this file except in compliance
 with the License.  You may obtain a copy of the License at

   http://www.apache.org/licenses/LICENSE-2.0

 Unless required by applicable law or agreed to in writing,
 software distributed under the License is distributed on an
 "AS IS" BASIS, WITHOUT WARRANTIES OR CONDITIONS OF ANY
 KIND, either express or implied.  See the License for the
 specific language governing permissions and limitations
 under the License.
-->

<svg
   xmlns:dc="http://purl.org/dc/elements/1.1/"
   xmlns:cc="http://creativecommons.org/ns#"
   xmlns:rdf="http://www.w3.org/1999/02/22-rdf-syntax-ns#"
   xmlns:svg="http://www.w3.org/2000/svg"
   xmlns="http://www.w3.org/2000/svg"
   xmlns:sodipodi="http://sodipodi.sourceforge.net/DTD/sodipodi-0.dtd"
   xmlns:inkscape="http://www.inkscape.org/namespaces/inkscape"
   id="Layer_1"
   data-name="Layer 1"
   viewBox="-2.46337 -1.13211 120 59.999998"
   version="1.1"
   sodipodi:docname="apache-beam-ar21.svg"
   width="120"
   height="60"
   inkscape:version="0.92.3 (2405546, 2018-03-11)">
  <metadata
     id="metadata61">
    <rdf:RDF>
      <cc:Work
         rdf:about="">
        <dc:format>image/svg+xml</dc:format>
        <dc:type
           rdf:resource="http://purl.org/dc/dcmitype/StillImage" />
        <dc:title>beam-logo_3-color_name-right</dc:title>
      </cc:Work>
    </rdf:RDF>
  </metadata>
  <sodipodi:namedview
     pagecolor="#ffffff"
     bordercolor="#666666"
     borderopacity="1"
     objecttolerance="10"
     gridtolerance="10"
     guidetolerance="10"
     inkscape:pageopacity="0"
     inkscape:pageshadow="2"
     inkscape:window-width="1920"
     inkscape:window-height="1001"
     id="namedview59"
     showgrid="false"
     inkscape:zoom="4.1789939"
     inkscape:cx="11.366372"
     inkscape:cy="14.56"
     inkscape:window-x="-9"
     inkscape:window-y="-9"
     inkscape:window-maximized="1"
     inkscape:current-layer="Layer_1" />
  <defs
     id="defs24">
    <style
       id="style2">.cls-1,.cls-8{fill:#ff6d00;stroke:#ff6d00;stroke-miterlimit:10;}.cls-1{stroke-width:0.07702px;}.cls-2{fill:#fee900;}.cls-3{fill:#ffc400;}.cls-4{opacity:0.75;fill:url(#linear-gradient);}.cls-5{fill:#ffe082;}.cls-6{fill:url(#linear-gradient-2);}.cls-7{fill:#fff;}.cls-8{stroke-width:0.07658px;}</style>
    <linearGradient
       id="linear-gradient"
       x1="0.11105"
       y1="13.77808"
       x2="6.9668498"
       y2="13.77808"
       gradientUnits="userSpaceOnUse">
      <stop
         offset="0"
         stop-color="#ffc400"
         id="stop4" />
      <stop
         offset="0.13695"
         stop-color="#fecd00"
         id="stop6" />
      <stop
         offset="0.36528"
         stop-color="#fed400"
         id="stop8" />
      <stop
         offset="1"
         stop-color="#fed600"
         id="stop10" />
    </linearGradient>
    <linearGradient
       id="linear-gradient-2"
       x1="0.11105"
       y1="11.46331"
       x2="14.36906"
       y2="11.46331"
       gradientUnits="userSpaceOnUse">
      <stop
         offset="0"
         stop-color="#ff0"
         stop-opacity="0.7"
         id="stop13" />
      <stop
         offset="0.13194"
         stop-color="#fff600"
         stop-opacity="0.66022"
         id="stop15" />
      <stop
         offset="0.31385"
         stop-color="#feef00"
         stop-opacity="0.62592"
         id="stop17" />
      <stop
         offset="0.54652"
         stop-color="#feea00"
         stop-opacity="0.60587"
         id="stop19" />
      <stop
         offset="1"
         stop-color="#fee900"
         stop-opacity="0.6"
         id="stop21" />
    </linearGradient>
  </defs>
  <title
     id="title26">beam-logo_3-color_name-right</title>
  <g
     id="g907"
     transform="translate(-3.1287318)">
    <g
       transform="matrix(1.332334,0,0,1.332334,-32.481618,-9.814922)"
       id="g888">
      <path
         class="cls-1"
         d="m 69.570209,31.259568 a 8.29757,8.29757 0 0 1 -0.26855,2.17773 5.14905,5.14905 0 0 1 -0.78613,1.69434 3.69183,3.69183 0 0 1 -1.26953,1.10352 3.6183,3.6183 0 0 1 -1.709,0.39551 4.17415,4.17415 0 0 1 -1.9873,-0.43945 3.77844,3.77844 0 0 1 -1.35254,-1.20117 l -0.0488,1.44531 h -1.09375 v -15 h 1.16211 v 5.9668 a 3.75862,3.75862 0 0 1 1.33789,-1.27441 3.958,3.958 0 0 1 1.96289,-0.4541 3.75378,3.75378 0 0 1 1.71875,0.38086 3.60526,3.60526 0 0 1 1.27441,1.084 5.025,5.025 0 0 1 0.791,1.69434 8.50828,8.50828 0 0 1 0.26855,2.22168 v 0.20508 z m -1.17187,-0.20508 a 8.0005,8.0005 0 0 0 -0.17578,-1.71875 4.23292,4.23292 0 0 0 -0.55176,-1.38672 2.65518,2.65518 0 0 0 -2.36816,-1.25977 3.4677,3.4677 0 0 0 -1.17187,0.18066 2.90747,2.90747 0 0 0 -0.87891,0.4834 2.963,2.963 0 0 0 -0.625,0.69336 4.02744,4.02744 0 0 0 -0.41016,0.81055 v 4.76563 a 3.88721,3.88721 0 0 0 0.46387,0.78613 2.99216,2.99216 0 0 0 0.65918,0.63477 3.08662,3.08662 0 0 0 0.874,0.41992 3.77937,3.77937 0 0 0 1.1084,0.15137 2.72672,2.72672 0 0 0 1.37207,-0.332 2.79467,2.79467 0 0 0 0.96191,-0.918 4.24916,4.24916 0 0 0 0.56152,-1.38184 7.80608,7.80608 0 0 0 0.18066,-1.72363 v -0.20508 z"
         id="path28"
         inkscape:connector-curvature="0"
         style="fill:#ff6d00;stroke:#ff6d00;stroke-width:0.07702px;stroke-miterlimit:10" />
      <path
         class="cls-1"
         d="m 75.940329,36.630698 a 4.64475,4.64475 0 0 1 -1.90431,-0.38574 4.46256,4.46256 0 0 1 -1.499,-1.07422 4.94459,4.94459 0 0 1 -0.98145,-1.63574 5.93816,5.93816 0 0 1 -0.35156,-2.08008 v -0.41992 a 6.3387,6.3387 0 0 1 0.36621,-2.21191 5.1899,5.1899 0 0 1 0.99121,-1.68945 4.42963,4.42963 0 0 1 1.44043,-1.0791 4.02225,4.02225 0 0 1 1.72363,-0.38086 4.21154,4.21154 0 0 1 1.78711,0.36133 3.68511,3.68511 0 0 1 1.31348,1.00586 4.4249,4.4249 0 0 1 0.80566,1.5332 6.60058,6.60058 0 0 1 0.27344,1.94336 v 0.71289 h -7.53906 v 0.22461 a 4.99907,4.99907 0 0 0 0.26367,1.63574 4.11665,4.11665 0 0 0 0.74219,1.333 3.5161,3.5161 0 0 0 1.14258,0.89355 3.29244,3.29244 0 0 0 1.47461,0.32715 3.81234,3.81234 0 0 0 1.65527,-0.3418 3.6814,3.6814 0 0 0 1.30371,-1.09375 l 0.73242,0.55664 a 5.138,5.138 0 0 1 -0.61035,0.72266 3.71534,3.71534 0 0 1 -0.80566,0.5957 4.367,4.367 0 0 1 -1.03516,0.40039 5.24428,5.24428 0 0 1 -1.28907,0.14649 z m -0.2148,-9.961 a 2.95862,2.95862 0 0 0 -1.23047,0.25391 3.04824,3.04824 0 0 0 -1.001,0.72266 3.82671,3.82671 0 0 0 -0.71289,1.12793 5.39873,5.39873 0 0 0 -0.376,1.46 h 6.33789 v -0.127 a 4.74657,4.74657 0 0 0 -0.21484,-1.28418 3.43774,3.43774 0 0 0 -0.57129,-1.09863 2.72632,2.72632 0 0 0 -2.2314,-1.05469 z"
         id="path30"
         inkscape:connector-curvature="0"
         style="fill:#ff6d00;stroke:#ff6d00;stroke-width:0.07702px;stroke-miterlimit:10" />
      <path
         class="cls-1"
         d="m 88.549699,36.435348 a 3.43215,3.43215 0 0 1 -0.15137,-0.66895 q -0.0527,-0.39551 -0.0732,-0.80566 a 4.17155,4.17155 0 0 1 -1.43555,1.17188 4.94153,4.94153 0 0 1 -0.98633,0.36133 4.71114,4.71114 0 0 1 -1.16211,0.13672 4.16026,4.16026 0 0 1 -1.40137,-0.22461 3.161,3.161 0 0 1 -1.07422,-0.62988 2.86146,2.86146 0 0 1 -0.68848,-0.95215 3.05769,3.05769 0 0 1 0.0879,-2.583 3.008,3.008 0 0 1 0.957,-1.05469 4.65618,4.65618 0 0 1 1.51855,-0.66406 8.06247,8.06247 0 0 1 2.00684,-0.22949 h 2.168 v -1.20119 a 2.31206,2.31206 0 0 0 -0.69824,-1.78223 2.881,2.881 0 0 0 -2.03613,-0.64941 3.67539,3.67539 0 0 0 -1.13281,0.166 2.85984,2.85984 0 0 0 -0.89355,0.459 2.18994,2.18994 0 0 0 -0.58594,0.67871 1.7025,1.7025 0 0 0 -0.21,0.8252 l -1.17187,-0.01 a 2.44314,2.44314 0 0 1 0.293,-1.15234 3.20294,3.20294 0 0 1 0.8252,-0.99121 4.22577,4.22577 0 0 1 1.2793,-0.69824 4.94591,4.94591 0 0 1 1.65527,-0.26367 5.29506,5.29506 0 0 1 1.54785,0.21484 3.34116,3.34116 0 0 1 1.21582,0.64453 2.91466,2.91466 0 0 1 0.791,1.07422 3.69956,3.69956 0 0 1 0.2832,1.50391 v 5.11719 c 0,0.18164 0.007,0.37109 0.0195,0.56641 0.0137,0.19531 0.0342,0.38379 0.0635,0.56641 0.0293,0.18164 0.0635,0.35645 0.10254,0.52246 a 2.79417,2.79417 0 0 0 0.13672,0.43457 v 0.11719 h -1.25 z m -3.67187,-0.83984 a 4.11026,4.11026 0 0 0 1.17676,-0.16113 3.80908,3.80908 0 0 0 0.98143,-0.44434 3.5076,3.5076 0 0 0 0.76173,-0.65918 3.31708,3.31708 0 0 0 0.51758,-0.81543 v -2.32422 h -2.002 a 7.27537,7.27537 0 0 0 -1.60645,0.16113 3.90692,3.90692 0 0 0 -1.19629,0.46387 2.18658,2.18658 0 0 0 -0.74707,0.7373 1.884,1.884 0 0 0 -0.25879,0.98145 1.97968,1.97968 0 0 0 0.166,0.80566 1.93346,1.93346 0 0 0 0.47363,0.6543 2.25662,2.25662 0 0 0 0.74707,0.43945 2.85086,2.85086 0 0 0 0.9864,0.16114 z"
         id="path32"
         inkscape:connector-curvature="0"
         style="fill:#ff6d00;stroke:#ff6d00;stroke-width:0.07702px;stroke-miterlimit:10" />
      <path
         class="cls-1"
         d="m 93.357319,25.868938 0.0391,1.71875 a 4.49135,4.49135 0 0 1 0.61035,-0.78613 3.58271,3.58271 0 0 1 0.77637,-0.60547 3.871,3.871 0 0 1 0.9375,-0.38574 4.16869,4.16869 0 0 1 1.09375,-0.13672 3.8523,3.8523 0 0 1 1.99219,0.48828 2.69277,2.69277 0 0 1 1.18164,1.5625 4.35422,4.35422 0 0 1 0.610351,-0.81543 3.82622,3.82622 0 0 1 0.81055,-0.64941 4.09642,4.09642 0 0 1 1.001,-0.42969 4.27852,4.27852 0 0 1 1.18164,-0.15625 4.52793,4.52793 0 0 1 1.46484,0.21973 2.6212,2.6212 0 0 1 1.08887,0.69336 3.11226,3.11226 0 0 1 0.67871,1.20605 5.80465,5.80465 0 0 1 0.23438,1.75781 v 6.88477 h -1.17187 v -6.89453 a 4.414,4.414 0 0 0 -0.18555,-1.3916 2.11219,2.11219 0 0 0 -0.52734,-0.87891 1.83387,1.83387 0 0 0 -0.81543,-0.4541 3.99333,3.99333 0 0 0 -1.04,-0.127 3.09015,3.09015 0 0 0 -2.24121,0.92285 3.07311,3.07311 0 0 0 -0.85449,1.83105 v 6.99219 h -1.171871 v -6.98242 a 4.00755,4.00755 0 0 0 -0.18555,-1.31836 2.08734,2.08734 0 0 0 -0.52734,-0.84961 1.95246,1.95246 0 0 0 -0.81543,-0.459 3.74933,3.74933 0 0 0 -1.0498,-0.13672 3.0379,3.0379 0 0 0 -1.17187,0.21 2.91059,2.91059 0 0 0 -0.88379,0.56152 3.16375,3.16375 0 0 0 -0.62012,0.80078 5.02673,5.02673 0 0 0 -0.39062,0.92773 v 7.24609 h -1.17187 v -10.56637 h 1.123 z"
         id="path34"
         inkscape:connector-curvature="0"
         style="fill:#ff6d00;stroke:#ff6d00;stroke-width:0.07702px;stroke-miterlimit:10" />
    </g>
    <g
       transform="matrix(1.3928737,0,0,1.3928737,-29.541437,-13.681425)"
       id="g882">
      <polygon
         class="cls-2"
         points="14.369,9.141 14.369,5.513 0.111,1.044 0.111,9.483 6.967,13.786 "
         id="polygon36"
         style="fill:#fee900"
         transform="translate(29.193629,16.761768)" />
      <polygon
         class="cls-3"
         points="0.111,1.044 0.111,9.483 0.111,9.597 0.111,18.089 14.369,9.141 14.369,5.513 "
         id="polygon38"
         style="fill:#ffc400"
         transform="translate(29.193629,16.761768)" />
      <polygon
         class="cls-4"
         points="0.111,9.589 0.111,18.081 6.967,13.778 0.111,9.476 "
         id="polygon40"
         style="opacity:0.75;fill:url(#linear-gradient)"
         transform="translate(29.193629,16.761768)" />
      <polygon
         class="cls-3"
         points="0.111,26.443 14.369,22.059 14.369,18.432 0.111,9.483 0.111,18.089 "
         id="polygon42"
         style="fill:#ffc400"
         transform="translate(29.193629,16.761768)" />
      <polygon
         class="cls-5"
         points="0.048,19.465 0.048,21.017 14.369,22.293 14.369,18.19 "
         id="polygon44"
         style="fill:#ffe082"
         transform="translate(29.193629,16.761768)" />
      <polygon
         class="cls-5"
         points="0,6.598 0,8.151 14.303,9.426 14.303,5.323 "
         id="polygon46"
         style="fill:#ffe082"
         transform="translate(29.193629,16.761768)" />
      <polygon
         class="cls-2"
         points="14.369,5.513 0.111,1.044 "
         id="polygon48"
         style="fill:#fee900"
         transform="translate(29.193629,16.761768)" />
      <polygon
         class="cls-6"
         points="6.967,13.786 14.369,9.141 "
         id="polygon50"
         style="fill:url(#linear-gradient-2)"
         transform="translate(29.193629,16.761768)" />
      <path
         class="cls-7"
         d="m 41.933709,37.002858 a 1.629,1.629 0 0 0 1.629,1.629 v -3.258 a 1.629,1.629 0 0 0 -1.629,1.629 z"
         id="path52"
         inkscape:connector-curvature="0"
         style="fill:#ffffff" />
      <path
         class="cls-7"
         d="m 41.933709,24.136448 a 1.629,1.629 0 0 0 1.629,1.629 v -3.258 a 1.629,1.629 0 0 0 -1.629,1.629 z"
         id="path54"
         inkscape:connector-curvature="0"
         style="fill:#ffffff" />
      <path
         class="cls-8"
         d="m 48.679359,34.192528 a 6.11749,6.11749 0 0 0 -0.85923,-1.83177 5.77531,5.77531 0 0 0 -1.45409,-1.44474 6.56546,6.56546 0 0 0 -2.06782,-0.93477 6.56259,6.56259 0 0 0 2.98371,-2.34164 5.93691,5.93691 0 0 0 1.01975,-3.39916 7.87167,7.87167 0 0 0 -0.65151,-3.33307 5.92106,5.92106 0 0 0 -1.879,-2.31332 8.449,8.449 0 0 0 -3.00259,-1.35022 16.55165,16.55165 0 0 0 -4.00346,-0.44378 h -9.42323 v 1.06115 l 13.95629,4.34814 a 0.38292,0.38292 0 0 1 0.26447,0.36414 v 3.116 a 0.38292,0.38292 0 0 1 -0.19569,0.334 l -7.15044,4.52428 7.15044,4.5243 a 0.38292,0.38292 0 0 1 0.19569,0.334 v 3.116 a 0.38292,0.38292 0 0 1 -0.26447,0.36414 l -13.95629,4.34814 v 1.06116 h 10.08418 a 14.40135,14.40135 0 0 0 3.994,-0.50987 8.33886,8.33886 0 0 0 3.00259,-1.52027 6.56572,6.56572 0 0 0 1.88842,-2.5116 8.68771,8.68771 0 0 0 0.65151,-3.484 7.59145,7.59145 0 0 0 -0.28323,-2.07724 z"
         id="path56"
         inkscape:connector-curvature="0"
         style="fill:#ff6d00;stroke:#ff6d00;stroke-width:0.07658px;stroke-miterlimit:10" />
    </g>
  </g>
</svg>
