<svg xmlns="http://www.w3.org/2000/svg" width="120" height="60" viewBox="0.155 -0.079 120 60"><path d="M49.067 27.304c.247-.72.366-1.453.355-2.188s-.237-1.466-.674-2.198c-.384-.6-.962-1.047-1.726-1.345s-1.62-.448-2.56-.438-1.876.183-2.8.516c-.717.273-1.378.688-1.98 1.248s-1.073 1.255-1.42 2.09c-.12.305-.197.706-.24 1.198l-.075 1.327-.003.624-1.317.975c-.495.384-.98.847-1.457 1.38-.502.59-.93 1.18-1.277 1.756-.348.585-.564 1.03-.646 1.34-.043.126-.007.474.104 1.052.11.572.406 1.233.9 1.983s1.26 1.44 2.324 2.075c.01.01.04-.01.082-.06l.075-.08c-.018-.01-.147-.15-.38-.423s-.46-.62-.674-1.047-.308-.883-.276-1.356c.043-.65.455-1.244 1.237-1.785s2.128-1.018 4.026-1.417c.538-.137 1.005-.344 1.403-.628l.628-.473c-.147 1.516.122 2.902.8 4.145a10.8 10.8 0 0 0 2.253 2.829l8.998-8.994-1.625 1.27-2.322 1.618c-.793.506-1.496.868-2.113 1.087s-1.037.18-1.256-.118c-.204-.373-.215-.916-.025-1.625s.453-1.45.793-2.213c.337-.696.63-1.406.88-2.13zm-7.83.527c.143.154.226.255.25.305.01.09-.04.3-.15.627s-.33.578-.657.746c-.427.158-.825.2-1.195.093s-.668-.215-.897-.37l-.352-.254 3.584-3.91.015.126-.22.595-.412 1.108-.22.63c.026.043.112.144.252.3zm-25.325-1.11h-2.72l-1.71 8.065H7.1l1.712-8.065h-2.72l.626-2.964h9.81zm8.16 2.963l-1.085 5.102h-3.7l1.01-4.75c.132-.59-.03-.886-.488-.886-.204 0-.4.066-.558.2s-.283.352-.344.657l-1.024 4.782h-3.7l2.34-11.03h3.698l-.932 4.4h.03a6.16 6.16 0 0 1 .55-.542c.183-.158.38-.3.596-.397a3.03 3.03 0 0 1 .695-.244c.25-.056.532-.084.848-.084.387 0 .732.05 1.032.153s.545.262.733.48.31.507.366.863.033.79-.068 1.3zm8.863 1.42l-.107.52h-5.288l-.046.228c-.1.448-.092.77.03.97s.367.298.733.298a1.15 1.15 0 0 0 .612-.191c.204-.127.36-.328.473-.603h3.24a3.74 3.74 0 0 1-1.689 2.001c-.8.458-1.918.687-3.355.687a5.73 5.73 0 0 1-1.566-.205c-.484-.14-.89-.366-1.215-.688s-.55-.743-.673-1.268-.102-1.173.06-1.947c.142-.66.374-1.243.696-1.742a4.56 4.56 0 0 1 1.184-1.252 5.23 5.23 0 0 1 1.59-.764c.6-.174 1.232-.26 1.925-.26 1.456 0 2.46.36 3 1.077s.677 1.764.38 3.14zm-3.148-2.038c-.132-.19-.346-.284-.64-.284s-.555.094-.78.284-.378.465-.46.832l-.015.107h1.956l.016-.107c.08-.367.055-.643-.078-.832zm35.698-2.513c-.072.315-.173.6-.306.886a2.91 2.91 0 0 1-.519.749c-.214.224-.48.42-.795.588s-.692.303-1.13.405v.03c.52.05.905.19 1.155.42s.384.557.405.986c.01.234 0 .505-.03.817l-.09 1-.077 1.13c-.02.398-.01.805.03 1.223h-4.28c-.02-.204-.028-.44-.023-.71l.03-.825.06-.848.053-.78c.02-.275-.036-.47-.17-.588s-.377-.175-.733-.175h-.504l-.84 3.926h-4.28l2.337-11.03h6.527c.59 0 1.1.05 1.558.145s.8.254 1.085.474.46.506.55.863.087.795-.015 1.315zm-4.562-.107c-.23-.123-.557-.184-.986-.184h-.396l-.46 2.093h.366c.42 0 .785-.08 1.1-.245s.513-.453.596-.87c.082-.407.008-.673-.22-.794zm12.722 4.658l-.107.52h-5.287l-.046.228c-.102.448-.092.77.03.97s.367.298.734.298c.204 0 .407-.064.61-.19s.362-.328.474-.603h3.24a3.74 3.74 0 0 1-1.688 2.001c-.8.46-1.917.687-3.354.687-.56 0-1.083-.068-1.566-.205s-.9-.366-1.216-.688-.55-.743-.672-1.268-.102-1.173.06-1.947c.142-.66.374-1.243.694-1.742s.716-.917 1.186-1.252a5.22 5.22 0 0 1 1.589-.764c.59-.174 1.232-.26 1.924-.26 1.457 0 2.462.36 3.012 1.077s.678 1.764.382 3.14zM70.5 29.065c-.133-.19-.345-.284-.643-.284a1.17 1.17 0 0 0-.779.284c-.225.19-.378.465-.46.832l-.015.107h1.956l.015-.107c.082-.367.057-.643-.076-.832zm11.843 5.032c-.174.785-.425 1.42-.756 1.91s-.728.876-1.192 1.162-.99.478-1.582.58a11.45 11.45 0 0 1-1.911.152c-.754 0-1.373-.06-1.857-.183s-.866-.298-1.145-.528-.467-.503-.558-.825a2.77 2.77 0 0 1-.076-1.062h3.637c-.05.184-.015.332.107.445.112.11.295.168.55.168.326 0 .588-.095.788-.282s.348-.528.45-1.017l.214-.962h-.032c-.387.408-.8.675-1.268.803s-.902.2-1.33.2a3.49 3.49 0 0 1-1.115-.182c-.366-.122-.68-.326-.94-.612s-.44-.662-.542-1.13-.077-1.05.076-1.742c.152-.712.37-1.328.65-1.848s.608-.944.986-1.275a3.76 3.76 0 0 1 1.23-.732 4.07 4.07 0 0 1 1.383-.238c.46 0 .858.08 1.2.238s.593.434.756.832h.03l.245-.84h3.484zm-2.705-4.483a.69.69 0 0 0-.174-.405c-.098-.102-.253-.153-.467-.153a.82.82 0 0 0-.557.191c-.148.127-.273.285-.374.473s-.184.4-.246.634l-.153.672-.114.634a1.58 1.58 0 0 0 0 .489c.026.137.087.24.184.313s.247.106.45.106c.223 0 .4-.045.558-.138s.268-.216.36-.374a2.24 2.24 0 0 0 .221-.55l.16-.665.123-.657a1.87 1.87 0 0 0 .03-.572zm8.68-3.506h-3.7l.49-2.353h3.7zm-1.85 8.677H82.77l1.634-7.67h3.7zm9.49-5.3H92.8c.07-.356.06-.596-.03-.718-.1-.112-.275-.168-.52-.168-.306 0-.525.05-.658.153a.7.7 0 0 0-.259.412c-.02.08-.023.156-.008.222s.055.124.122.174a.97.97 0 0 0 .312.139c.144.04.333.075.566.106.723.102 1.315.22 1.772.352s.81.294 1.054.487.394.423.45.688.05.586-.022.962a3.27 3.27 0 0 1-.474 1.131 2.89 2.89 0 0 1-.909.856c-.382.234-.854.414-1.412.543s-1.223.2-1.987.2c-.622 0-1.172-.048-1.652-.145s-.867-.254-1.168-.473-.51-.507-.627-.864-.125-.79-.023-1.298h3.333c-.06.418-.04.697.06.84.102.153.3.228.566.228.295 0 .506-.064.634-.19s.21-.282.25-.465c.02-.112.007-.222-.038-.33s-.18-.186-.404-.237l-.2-.038-.274-.06-.435-.092-.664-.13c-.45-.09-.827-.198-1.132-.32s-.546-.27-.717-.442-.28-.384-.32-.634-.026-.552.046-.91c.07-.346.213-.677.428-.993a2.89 2.89 0 0 1 .863-.817c.36-.23.8-.412 1.315-.55s1.113-.206 1.796-.206c.6 0 1.123.04 1.597.122s.868.22 1.185.42.54.467.673.802.15.754.06 1.253zm6.953-2.368l-.49 2.26h-1.665l-.5 2.352c-.072.296-.07.5.008.61s.227.168.45.168l.427-.007c.153-.006.315-.034.488-.085l-.488 2.26-1.315.237a8.08 8.08 0 0 1-1.206.099 5.01 5.01 0 0 1-1.017-.099 2.16 2.16 0 0 1-.817-.336c-.226-.158-.382-.377-.474-.657s-.092-.634 0-1.062l.733-3.483h-.994l.5-2.26h.993l.26-1.237 3.972-1.283-.534 2.52h1.666zm7.84 3.987l-.107.52h-5.288l-.046.228c-.102.448-.092.77.03.97s.366.298.733.298a1.15 1.15 0 0 0 .612-.191c.204-.127.362-.328.474-.603h3.24c-.327.875-.89 1.543-1.69 2s-1.917.687-3.354.687c-.56 0-1.084-.068-1.566-.205s-.89-.366-1.215-.688-.55-.743-.673-1.268-.1-1.173.06-1.947c.143-.66.375-1.243.696-1.742a4.55 4.55 0 0 1 1.185-1.252 5.21 5.21 0 0 1 1.588-.764c.59-.174 1.233-.26 1.927-.26 1.456 0 2.46.36 3.01 1.077s.68 1.764.384 3.14zm-3.148-2.038c-.132-.19-.346-.284-.64-.284a1.17 1.17 0 0 0-.78.284c-.225.19-.376.465-.458.832l-.016.107h1.956l.017-.107c.08-.367.055-.643-.077-.832zm9.903.954l-.657-.146c-.234-.046-.515-.068-.84-.068-.355 0-.623.1-.802.297s-.292.42-.344.665l-.856 4.018h-3.7l1.636-7.67h3.607l-.093.84c.346-.346.66-.588.94-.726s.538-.206.77-.206c.154 0 .308.013.467.038a1.32 1.32 0 0 1 .466.176z" fill="#de1f26"/></svg>