<svg xmlns="http://www.w3.org/2000/svg" height="60" width="120"><path d="M33.305 36.568c0 .514-.115 1.063-.5 1.483H43.05v-5.15c-.712.327-1.6.488-2.437.488H38.4v-1.695h1.166c.634 0 1.197.06 1.8.32v-4.45c-.603.258-1.166.32-1.8.32H38.4v-1.907h2.224c.847 0 1.725.16 2.437.486v-4.936H32.776c.395.342.53.97.53 1.483zm-8.898-8.686v-1.695h.215c.58 0 1.254.093 1.692.327v-4.988h-7.2V38.05h5.822c-.395-.342-.53-.97-.53-1.483v-4.66h2.754v4.66c0 .514-.134 1.14-.53 1.483h5.826V21.525H27.16v6.356zm-12.688-1.695h1.248v10.38c0 .514-.135 1.14-.53 1.483h5.826V21.525H10v4.988c.465-.234 1.138-.327 1.718-.327zm87.683 1.695h-6.34c-.324 0-.697-.03-1.07-.15v4.112c.373-.117.746-.15 1.07-.15h1.685v1.27c-.208.186-.663.3-1.127.3-1.927 0-3.344-1.52-3.344-3.36s1.378-3.497 3.305-3.497c1.166 0 2.48.38 3.92 1.06v-5.934h-4.237c-4.575 0-8.22 3.54-8.22 8.327 0 4.686 3.67 8.622 8.432 8.622 2.624 0 5.068-1.068 6.344-2.373-.254-.468-.417-.932-.417-1.493zm8.16-1.907c.847 0 1.725.16 2.437.486v-4.936H99.725c.395.342.53.97.53 1.483v13.56c0 .514-.115 1.063-.5 1.483H110v-5.15c-.712.327-1.6.488-2.437.488h-2.224v-1.695h1.166c.634 0 1.197.06 1.8.32v-4.45c-.603.258-1.166.32-1.8.32h-1.166v-1.907zm-24.576 4.62c.883-.975 1.42-2.253 1.42-3.553 0-3.807-2.834-5.514-5.876-5.514l-6.558-.002c.393.342.53.964.53 1.476L72.5 36.568c0 .5-.137 1.066-.53 1.483h6.312c-.395-.417-.485-1-.485-1.483v-3.363c1.8.344 3.015 2.024 3.015 3.37 0 .5-.12 1.06-.514 1.476h6.295c-.395-.417-.497-1.022-.534-1.532-.212-2.917-1.215-4.975-3.073-5.925zm-5.2-1.63v-3c.847 0 1.93.234 1.93 1.505s-1.08 1.505-1.93 1.505zm-23.093 1.673l-1.695-4.66h2.542l1.695-4.45H45.38c.37.375.72.793.975 1.283L52.92 38.05h3.585l5.403-12.712v11.23c-.003.527-.134 1.14-.53 1.483h10.276v-5.15c-.703.327-1.588.7-2.436.7H66.99v-1.907h1.164c.637 0 1.198.06 1.802.32v-4.45c-.603.258-1.164.32-1.802.32H66.99v-1.695h2.225c.847 0 1.732.16 2.436.488v-5.15h-13.56z"/></svg>