<?xml version="1.0" encoding="utf-8"?>
<!-- Generator: Adobe Illustrator 24.0.0, SVG Export Plug-In . SVG Version: 6.00 Build 0)  -->
<svg version="1.1" id="Layer_1" xmlns="http://www.w3.org/2000/svg" xmlns:xlink="http://www.w3.org/1999/xlink" x="0px" y="0px"
	 viewBox="0 0 64 64" width="64" height="64" style="enable-background:new 0 0 64 64;" xml:space="preserve">
<style type="text/css">
	.st0{fill:#FAB41E;}
	.st1{fill:none;}
</style>
<path class="st0" d="M54.7,64H9.3C4.1,64,0,59.9,0,54.7V9.3C0,4.1,4.1,0,9.3,0h45.5C59.9,0,64,4.1,64,9.3v45.5
	C64,59.9,59.9,64,54.7,64z"/>
<rect x="-319" y="-210.2" class="st1" width="702.5" height="485.7"/>
<path d="M32,47c-10,0-16.7-5.1-16.7-15c0-9.9,6.7-15,16.7-15c8.5,0,14.7,3.1,16.2,9.5H64C62.9,12.7,50.4,3.7,32,3.7
	C12.8,3.7,0,15,0,32c0,17,12.8,28.3,32,28.3c18.4,0,31-9.1,32-23H48.3C46.8,43.9,40.6,47,32,47z"/>
</svg>
