<?xml version="1.0" encoding="UTF-8" standalone="no"?>
<!-- Generator: Adobe Illustrator 16.0.0, SVG Export Plug-In . SVG Version: 6.00 Build 0)  -->

<svg
   xmlns:dc="http://purl.org/dc/elements/1.1/"
   xmlns:cc="http://creativecommons.org/ns#"
   xmlns:rdf="http://www.w3.org/1999/02/22-rdf-syntax-ns#"
   xmlns:svg="http://www.w3.org/2000/svg"
   xmlns="http://www.w3.org/2000/svg"
   xmlns:sodipodi="http://sodipodi.sourceforge.net/DTD/sodipodi-0.dtd"
   xmlns:inkscape="http://www.inkscape.org/namespaces/inkscape"
   version="1.1"
   id="Layer_1"
   x="0px"
   y="0px"
   width="120"
   height="60"
   viewBox="0 0 120 60"
   enable-background="new 0 0 360 120"
   xml:space="preserve"
   sodipodi:docname="ieee-ar21.svg"
   inkscape:version="0.92.3 (2405546, 2018-03-11)"><metadata
   id="metadata59"><rdf:RDF><cc:Work
       rdf:about=""><dc:format>image/svg+xml</dc:format><dc:type
         rdf:resource="http://purl.org/dc/dcmitype/StillImage" /><dc:title></dc:title></cc:Work></rdf:RDF></metadata><defs
   id="defs57">
	
	
	
	
	
	
	
	
	
	
	
	
	
	
	
	
	
	
	
	
	
	
	
	
	
</defs><sodipodi:namedview
   pagecolor="#ffffff"
   bordercolor="#666666"
   borderopacity="1"
   objecttolerance="10"
   gridtolerance="10"
   guidetolerance="10"
   inkscape:pageopacity="0"
   inkscape:pageshadow="2"
   inkscape:window-width="1920"
   inkscape:window-height="1001"
   id="namedview55"
   showgrid="false"
   showguides="false"
   inkscape:zoom="8"
   inkscape:cx="54.529206"
   inkscape:cy="33.602527"
   inkscape:window-x="-9"
   inkscape:window-y="-9"
   inkscape:window-maximized="1"
   inkscape:current-layer="Layer_1" />

<g
   id="g4672"
   transform="translate(0.59200578)"><g
     transform="matrix(1.2296713,0,0,1.2296713,-25.176311,-10.604345)"
     id="g4662"><rect
       style="fill:#00679a;fill-opacity:1;stroke-width:0.34745958"
       id="rect14"
       height="15.968201"
       width="4.3164907"
       y="25.036386"
       x="64.989876" /><polygon
       style="fill:#00679a;fill-opacity:1"
       id="polygon16"
       points="164.995,26.512 164.995,72.469 199.522,72.469 199.522,63.288 177.416,63.288 177.416,54.351 197.875,54.351 197.875,45.165 177.416,45.165 177.416,35.727 199.522,35.727 199.522,26.512 "
       transform="matrix(0.34745959,0,0,0.34745959,14.392815,15.824539)" /><polygon
       style="fill:#00679a;fill-opacity:1"
       id="polygon18"
       points="206.961,26.512 206.961,72.469 241.495,72.469 241.495,63.288 219.386,63.288 219.386,54.351 239.845,54.351 239.845,45.165 219.386,45.165 219.386,35.727 241.495,35.727 241.495,26.512 "
       transform="matrix(0.34745959,0,0,0.34745959,14.392815,15.824539)" /><polygon
       style="fill:#00679a;fill-opacity:1"
       id="polygon20"
       points="248.942,26.512 248.942,72.469 283.462,72.469 283.462,63.288 261.361,63.288 261.361,54.351 281.826,54.351 281.826,45.165 261.361,45.165 261.361,35.727 283.462,35.727 283.462,26.512 "
       transform="matrix(0.34745959,0,0,0.34745959,14.392815,15.824539)" /></g><g
     transform="matrix(1.1878908,0,0,1.1878908,-21.01923,-14.135879)"
     id="g4656"><path
       style="fill:#00679a;fill-opacity:1;stroke:none;stroke-width:0.00350455"
       inkscape:connector-curvature="0"
       d="m 40.864415,56.149903 c -0.09462,-0.02453 -0.2313,-0.08761 -0.304896,-0.140182 -0.234804,-0.164713 -0.6168,-0.588764 -0.851605,-0.949732 -0.322418,-0.497646 -1.457892,-2.004602 -2.362065,-3.133068 -1.850401,-2.32001 -3.494034,-4.17742 -5.389994,-6.094407 -2.28146,-2.309498 -4.072284,-3.883039 -6.097913,-5.365463 -0.613296,-0.448582 -1.811851,-1.247619 -2.137774,-1.422846 -0.837587,-0.452087 -1.485928,-1.068887 -1.622605,-1.542001 -0.05958,-0.199759 -0.05257,-0.651846 0.01051,-0.869128 0.122659,-0.420546 0.665864,-0.907678 1.492937,-1.335233 1.082905,-0.560727 2.305992,-1.457892 3.925093,-2.877233 2.772097,-2.435661 6.998582,-6.798822 10.292856,-10.632798 0.998797,-1.160005 1.520974,-1.829374 1.815356,-2.323515 0.445078,-0.749973 0.837587,-1.174023 1.20206,-1.303691 0.19275,-0.06659 0.634323,-0.06659 0.855109,0 0.09112,0.02804 0.234805,0.09462 0.31541,0.1542 0.241814,0.164713 0.672873,0.648341 0.9252,1.033841 0.126164,0.19275 0.26985,0.413537 0.31541,0.483628 0.112145,0.164713 1.545505,1.959042 2.109738,2.638924 3.823459,4.597967 7.6294,8.48451 10.758961,10.983252 1.377285,1.096924 2.824666,2.085206 3.662252,2.491734 0.367977,0.178732 0.70091,0.469609 0.795533,0.6939 0.09462,0.217282 0.09112,0.641332 -0.007,0.904173 -0.09112,0.241814 -0.431059,0.595773 -0.749971,0.785019 -0.767497,0.448582 -3.332826,2.40412 -4.941414,3.767389 -3.925091,3.322311 -7.373568,6.847886 -10.320892,10.548687 -0.658855,0.830578 -1.776806,2.330526 -1.931006,2.589863 -0.140182,0.238309 -0.490636,0.630816 -0.686891,0.767493 -0.273355,0.189247 -0.704414,0.248826 -1.072391,0.147194 z m 1.054869,-4.839782 c 1.352755,-0.53269 4.906366,-3.501042 8.368859,-6.995077 2.081703,-2.099224 3.553611,-3.819956 4.380687,-5.113135 0.290875,-0.459095 0.623808,-1.135473 0.700909,-1.433359 0.09462,-0.343446 0.0771,-0.756983 -0.03855,-1.121456 -0.497645,-1.54901 -2.400615,-4.040743 -5.414525,-7.093204 -3.315304,-3.353852 -6.483415,-5.863108 -8.081488,-6.395799 -0.602782,-0.19976 -0.89366,-0.178733 -1.506956,0.115649 -2.807142,1.349251 -10.401497,8.740342 -12.658426,12.32199 -0.280364,0.448582 -0.543205,0.981273 -0.637828,1.293178 -0.175227,0.574746 0.01402,1.177528 0.693901,2.225388 2.155297,3.332824 9.469288,10.236783 12.602353,11.90495 0.732451,0.389001 1.149492,0.466103 1.591065,0.290875 z"
       id="path4606" /><path
       style="fill:#00679a;fill-opacity:1;stroke:none;stroke-width:0.00350455"
       inkscape:connector-curvature="0"
       d="M 41.348043,50.588184 C 40.843388,50.483048 39.462596,49.578875 38.0012,48.408356 33.54692,44.837222 28.528408,39.527832 27.85203,37.677431 c -0.129669,-0.360968 -0.112146,-0.511664 0.136677,-1.005805 0.883146,-1.769796 4.173916,-5.495131 7.892241,-8.929587 1.927502,-1.776806 3.830471,-3.269743 4.780203,-3.739353 0.417041,-0.210272 0.609791,-0.217281 1.037346,-0.04906 2.614393,1.033841 9.514847,7.527768 12.006581,11.298661 0.732451,1.107437 1.005805,1.783815 0.911181,2.228892 -0.234803,1.072392 -1.980068,3.301285 -4.892349,6.2416 -3.329319,3.364366 -6.995076,6.451872 -8.158586,6.868914 -0.04205,0.014 -0.140181,0.014 -0.217281,-0.0035 z m 1.124959,-4.187934 c -0.01051,-0.112145 -0.06308,-1.454387 -0.11565,-2.978865 l -0.09462,-2.779107 H 41.25342 c -0.557223,0 -1.00931,0.01051 -1.00931,0.02804 0,0.01402 -0.09462,1.310701 -0.210273,2.880738 -0.11565,1.570038 -0.210273,2.898261 -0.210273,2.954334 v 0.09462 h 1.335233 1.335233 z m 0.381996,-6.213563 c 1.230096,-0.08761 2.256929,-0.290877 3.101525,-0.613295 0.473113,-0.182237 1.352755,-0.62381 1.717228,-0.865624 0.445078,-0.290877 0.795532,-0.644836 0.949732,-0.956741 0.105137,-0.213778 0.119155,-0.276859 0.119155,-0.50816 0,-0.567736 -0.297886,-0.9252 -1.310701,-1.556019 -0.08411,-0.05257 -0.136677,-0.108641 -0.122659,-0.122659 0.01752,-0.01752 0.161209,-0.06659 0.318914,-0.108641 0.161209,-0.04556 0.287373,-0.08761 0.280364,-0.09112 -0.02453,-0.02453 -3.753371,-1.065383 -3.763884,-1.051364 -0.01051,0.01051 0.09112,0.339941 0.220786,0.735955 l 0.241814,0.721936 0.227796,-0.0035 c 0.126163,0 0.417041,-0.01402 0.648341,-0.02804 l 0.420545,-0.02804 0.23831,0.126163 c 0.322418,0.171723 0.792028,0.525683 0.96375,0.728946 0.417042,0.50115 0.424051,0.911183 0.02103,1.342242 -0.483627,0.515169 -1.216078,0.820064 -2.687988,1.121455 -1.310701,0.266346 -2.390101,0.367978 -3.644729,0.339941 -1.303692,-0.02804 -2.270947,-0.199759 -3.199652,-0.567737 -1.16351,-0.459095 -1.738256,-0.946227 -1.74176,-1.471909 -0.007,-0.592269 0.865623,-1.258133 2.362065,-1.801338 l 0.4626,-0.171723 -0.364473,-0.210272 c -0.19976,-0.119154 -0.672874,-0.396013 -1.04786,-0.6168 L 36.58186,34.130825 36.129773,34.28853 c -1.31771,0.459096 -2.316506,1.005805 -2.898261,1.584055 -0.3855,0.389005 -0.50115,0.606287 -0.515168,1.002301 -0.01402,0.336437 0.04205,0.511664 0.26985,0.823569 0.42405,0.581754 1.478919,1.184537 3.105029,1.769796 0.928705,0.336437 2.702006,0.6168 4.590957,0.728946 0.441574,0.02804 1.731247,0.02103 2.17282,-0.01051 z M 42.14708,38.479973 c -0.06659,-1.654147 -0.175228,-5.393499 -0.157705,-5.414526 0.01402,-0.01402 0.406527,-0.03154 0.872632,-0.03505 l 0.844596,-0.01051 -1.286169,-3.038443 c -0.707918,-1.671669 -1.293178,-3.045452 -1.303692,-3.055965 -0.01051,-0.01051 -0.4626,1.342241 -1.009309,3.003397 -0.54671,1.661156 -1.002301,3.041947 -1.00931,3.066479 -0.01402,0.03154 0.129668,0.04205 0.648341,0.04205 0.367978,0 0.676378,0.01051 0.683387,0.02804 0.01402,0.02103 -0.108641,3.932103 -0.164714,5.274344 l -0.02103,0.515169 h 0.960246 0.960246 z"
       id="path4608" /></g></g></svg>