<svg xmlns="http://www.w3.org/2000/svg" xmlns:xlink="http://www.w3.org/1999/xlink" width="120" height="60" viewBox="0 0 31.75 15.875"><g transform="matrix(.326303 0 0 .326303 -3.579976 -76.47018)"><path d="M37.368 245.545c-1.828.02-3.344 1.258-3.47 2.9-.014.178-.008.353.01.525a8.46 8.46 0 0 0-1.927-.372c-2.97-.23-5.553 1.068-6.142 2.978-1.964.636-3.523 1.873-4.29 3.46-1.744-.09-3.258 1.234-3.394 2.99-.138 1.783 1.188 3.343 2.967 3.48a3.23 3.23 0 0 0 1.587-.285c1.39 1.463 3.53 2.492 5.988 2.682 2.214.172 4.27-.37 5.824-1.38.615 1.016 1.756 1.768 3.12 1.97v.033c.04-.004.08-.017.12-.022.04.005.08.018.12.022v-.033c1.366-.202 2.505-.953 3.12-1.97 1.555 1.008 3.622 1.55 5.835 1.38 2.457-.19 4.588-1.22 5.977-2.682a3.23 3.23 0 0 0 1.587.285c1.78-.138 3.116-1.7 2.978-3.48-.136-1.755-1.65-3.08-3.394-2.99-.768-1.586-2.338-2.823-4.302-3.46-.59-1.9-3.16-3.208-6.13-2.978-.682.053-1.328.18-1.927.372.02-.173.025-.347.01-.525-.127-1.632-1.653-2.87-3.48-2.9a4.27 4.27 0 0 0-.372.011c-.007.001-.015-.001-.022 0s-.015.001-.022 0a4.05 4.05 0 0 0-.372-.011zm.35 2.2h.055c.3 0 .59.087.8.24s.34.372.34.613c0 .07-.022.14-.044.208l.92.68c.19-.107.413-.175.668-.175.3 0 .59.088.8.24s.35.372.35.613c0 .158-.076.3-.175.427l1.292.94a1.41 1.41 0 0 1 .547-.109c.3 0 .602.087.8.24s.34.372.34.613c0 .136-.057.26-.13.372l1.226.887a1.43 1.43 0 0 1 .558-.12c.3 0 .59.087.8.24s.34.372.34.613-.132.46-.34.613-.49.24-.8.24-.59-.087-.8-.24-.35-.372-.35-.613c0-.186.098-.354.23-.493l-1.15-.843c-.2.126-.456.208-.733.208a1.36 1.36 0 0 1-.668-.175l-.92.668c.08.097.148.2.175.317a.52.52 0 0 1 .011.12c0 .24-.132.46-.34.613-.104.077-.226.145-.36.186a1.39 1.39 0 0 1-.208.044c-.073.01-.152.01-.23.01-.244 0-.47-.054-.657-.153l-1.292.952a.84.84 0 0 1 .274.416.57.57 0 0 1 .022.153c0 .24-.132.45-.34.602-.052.038-.104.08-.164.11a1.37 1.37 0 0 1-.405.131c-.073.012-.152.01-.23.01a1.35 1.35 0 0 1-.799-.252c-.104-.077-.193-.16-.252-.263a.71.71 0 0 1-.066-.164.65.65 0 0 1-.022-.175c0-.24.132-.46.34-.613a1.35 1.35 0 0 1 .799-.252c.155 0 .303.034.438.077l1.4-1.007a.91.91 0 0 1-.12-.197.58.58 0 0 1-.055-.23c0-.24.132-.46.34-.613a1.05 1.05 0 0 1 .164-.099c.18-.09.402-.142.635-.142a1.38 1.38 0 0 1 .624.153l.94-.68a.98.98 0 0 1-.12-.197c-.03-.07-.044-.143-.044-.22 0-.188.106-.353.24-.493l-1.27-.93a1.4 1.4 0 0 1-.646.164c-.273 0-.514-.075-.712-.197l-1.062.777c.095.102.165.22.197.35.01.043.022.086.022.13 0 .24-.132.46-.34.613-.052.038-.114.08-.175.11-.123.06-.257.1-.405.12-.074.01-.152.01-.23.01-.3 0-.59-.087-.8-.24s-.34-.372-.34-.613.132-.46.34-.613.49-.24.8-.24a1.45 1.45 0 0 1 .591.12l1.106-.8a.68.68 0 0 1-.131-.372c0-.037.004-.074.01-.11.023-.107.077-.206.142-.296l-.832-.613c-.21.2-.515.317-.865.317-.29 0-.552-.104-.755-.24l-.82.57c.073.112.12.238.12.372 0 .24-.132.45-.34.602a1.35 1.35 0 0 1-.799.252 1.43 1.43 0 0 1-.569-.12l-1.292.876c.144.143.263.308.263.504 0 .04-.002.083-.01.12-.026.113-.09.212-.164.307l.94.68c.14-.046.288-.077.45-.077a1.35 1.35 0 0 1 .799.252c.208.154.34.36.34.602s-.132.46-.34.613a1.35 1.35 0 0 1-.799.252 1.35 1.35 0 0 1-.799-.252c-.207-.154-.34-.373-.34-.613 0-.1.025-.213.077-.307.026-.047.062-.09.1-.13a1.04 1.04 0 0 1 .12-.12l-.865-.635c-.186.098-.404.175-.646.175a1.36 1.36 0 0 1-.777-.252l-1.204.832c.145.114.26.264.307.427.016.054.022.106.022.164 0 .105-.042.193-.088.285l1.062.766c.143-.048.294-.077.46-.077.3 0 .602.087.8.24s.34.372.34.613-.132.46-.34.613-.5.24-.8.24c-.155 0-.303-.014-.438-.055a1.35 1.35 0 0 1-.197-.077c-.06-.03-.112-.07-.164-.11-.208-.153-.34-.372-.34-.613 0-.215.136-.398.307-.547l-.963-.7c-.207.153-.48.263-.788.263a1.29 1.29 0 0 1-.876-.317l-1.14.788a1.06 1.06 0 0 1 .142.219c.018.037.034.07.044.11s.01.078.01.12c0 .24-.132.46-.34.613-.052.038-.104.08-.164.11-.12.06-.26.1-.405.12-.073.01-.152.01-.23.01-.3 0-.602-.088-.8-.24s-.34-.372-.34-.613.132-.46.34-.613a1.38 1.38 0 0 1 .81-.241c.216 0 .407.052.58.13l1.28-.876c-.018-.058-.044-.11-.044-.175 0-.24.132-.46.34-.613a1.35 1.35 0 0 1 .799-.252 1.52 1.52 0 0 1 .383.055l.175-.13.022-.01 1.16-.788c-.046-.093-.088-.19-.088-.296 0-.24.132-.46.34-.613a1.38 1.38 0 0 1 .81-.241 1.39 1.39 0 0 1 .482.088l.153-.1 1.16-.8c-.112-.132-.208-.28-.208-.45 0-.24.143-.46.35-.613s.49-.24.8-.24c.266 0 .505.07.7.186l.843-.57c-.055-.1-.1-.213-.1-.328 0-.24.132-.46.34-.613.194-.143.47-.22.755-.23v-.01zm.055.36c-.212 0-.408.07-.536.164-.097.072-.16.153-.186.24-.008.03-.01.056-.01.088 0 .094.036.183.11.263.025.027.055.053.088.077a.89.89 0 0 0 .383.153c.05.008.1.01.153.01a.89.89 0 0 0 .525-.164c.13-.096.197-.215.197-.34s-.067-.232-.197-.328a.89.89 0 0 0-.525-.164zm-2.595 1.566c-.212 0-.408.06-.536.153-.097.07-.153.16-.175.252a.35.35 0 0 0-.011.088c0 .094.028.183.1.263.024.026.055.053.088.077.128.095.324.153.536.153s.396-.058.525-.153.197-.215.197-.34-.067-.244-.197-.34a.89.89 0 0 0-.525-.153zm5.277 0a.89.89 0 0 0-.525.153c-.097.07-.16.16-.186.252a.31.31 0 0 0-.011.088c0 .094.036.183.11.263a.64.64 0 0 0 .088.077c.128.095.313.153.525.153s.407-.058.536-.153.197-.215.197-.34-.067-.244-.197-.34-.324-.153-.536-.153zm-2.704 1.916c-.212 0-.396.07-.525.164a.47.47 0 0 0-.186.241c-.008.03-.01.057-.01.088 0 .093.036.183.11.263a.63.63 0 0 0 .088.077.86.86 0 0 0 .372.153c.05.008.1.01.153.01.212 0 .408-.07.536-.164s.197-.214.197-.34-.068-.233-.197-.328a.93.93 0 0 0-.536-.164zm-5.3.197a.93.93 0 0 0-.536.164c-.097.07-.16.16-.186.252a.31.31 0 0 0-.011.088c0 .094.036.186.11.263.025.026.055.042.088.066a.89.89 0 0 0 .383.153c.05.008.1.01.153.01a.89.89 0 0 0 .525-.164c.13-.096.197-.204.197-.328s-.067-.244-.197-.34-.313-.164-.525-.164zm10.827 0c-.212 0-.396.07-.525.164a.48.48 0 0 0-.186.252c-.008.03-.01.057-.01.088 0 .093.036.186.11.263.025.026.055.042.088.066a.86.86 0 0 0 .372.153c.05.008.1.01.153.01.212 0 .408-.07.536-.164s.197-.204.197-.328-.068-.244-.197-.34a.93.93 0 0 0-.536-.164zm-2.54 1.795a.93.93 0 0 0-.536.164c-.097.07-.153.153-.175.24-.007.03-.01.056-.01.088 0 .094.028.183.1.263.024.026.055.053.088.077a.89.89 0 0 0 .383.153c.05.008.1.01.153.01.212 0 .407-.07.536-.164s.186-.215.186-.34-.056-.233-.186-.328a.93.93 0 0 0-.536-.164zm-5.934.088a.89.89 0 0 0-.525.164c-.097.072-.16.16-.186.252a.31.31 0 0 0-.011.088c0 .125.068.244.197.34.096.07.225.122.372.142.05.007.1.01.153.01.212 0 .407-.058.536-.153s.197-.215.197-.34-.067-.243-.197-.34-.324-.164-.536-.164zm11.276.11a.93.93 0 0 0-.536.164c-.097.07-.153.153-.175.24-.007.03-.01.056-.01.088 0 .094.028.183.1.263a.58.58 0 0 0 .088.077.89.89 0 0 0 .383.153c.05.008.1.01.153.01a.89.89 0 0 0 .525-.164c.13-.096.197-.214.197-.34s-.068-.233-.197-.328-.313-.164-.525-.164zm-16.432.033a.89.89 0 0 0-.525.164c-.097.072-.16.16-.186.252a.31.31 0 0 0-.011.088c0 .094.036.186.11.263.025.025.055.042.088.066.096.07.225.13.372.153.05.008.1.01.153.01a.93.93 0 0 0 .536-.164c.13-.095.197-.204.197-.328s-.068-.244-.197-.34-.324-.164-.536-.164zm-2.956 1.784c-.212 0-.408.07-.536.164-.097.072-.16.16-.186.252a.31.31 0 0 0-.011.088c0 .094.036.186.11.263.025.026.055.042.088.066a.9.9 0 0 0 .383.153c.05.008.1.01.153.01.212 0 .397-.07.525-.164s.197-.204.197-.328-.068-.244-.197-.34a.89.89 0 0 0-.525-.164zm5.54.055a.89.89 0 0 0-.525.164c-.097.072-.16.153-.186.24-.008.03-.01.056-.01.088 0 .062.022.13.055.186.017.03.03.05.055.077a.63.63 0 0 0 .088.077c.096.07.225.13.372.153.05.008.1.01.153.01a.93.93 0 0 0 .536-.164c.13-.095.197-.215.197-.34s-.067-.232-.197-.328-.324-.164-.536-.164zm5.715.153a.89.89 0 0 0-.525.153.48.48 0 0 0-.186.252c-.008.03-.01.057-.01.088 0 .093.036.183.11.263a.63.63 0 0 0 .088.077c.13.096.313.153.525.153s.408-.058.536-.153.186-.214.186-.34-.057-.244-.186-.34-.324-.153-.536-.153z" fill="#afe478" fill-rule="evenodd"/><g fill="#577632"><path d="M32.095 257.657l3.012 2.36-2.724.016-1.5-1.16-1.5-.01 2.68 2.1.032-.022v.006l4.174-.022.083.063-1.53 8.4 5.888.044-1.628-8.352.18-.143 4.177.022v-.006l.03.022 2.68-2.1-1.5.01-1.5 1.16-2.724-.016 3.016-2.36-1.616.02-2.955 2.305-.213-1.098-1.917-.02-.187 1.025-2.84-2.216-1.616-.02zm19.928 5.9c-.707 0-1.224.246-1.563.744s-.513 1.248-.513 2.257c0 .965.18 1.7.537 2.2s.88.744 1.563.744c.436 0 .83-.108 1.2-.33v-1.207c-.374.24-.73.356-1.075.356-.288 0-.493-.145-.62-.438s-.2-.737-.2-1.33c0-.608.06-1.06.2-1.364s.336-.455.628-.455c.22 0 .476.08.76.248l.4-1.067c-.185-.117-.395-.203-.628-.265a2.6 2.6 0 0 0-.67-.09zm4.076 0c-.7 0-1.25.262-1.645.785s-.587 1.244-.587 2.175c0 .604.1 1.136.273 1.588s.44.8.777 1.042.726.356 1.166.356c.694 0 1.24-.262 1.637-.785s.595-1.258.595-2.2c0-.9-.204-1.632-.604-2.166a1.9 1.9 0 0 0-1.612-.794zm5.854 0a1.43 1.43 0 0 0-.802.223c-.217.14-.4.335-.513.58v-.703h-1.356v.008h-.008v5.738h1.373v-2.762c0-.697.07-1.186.207-1.48s.358-.446.653-.446c.223 0 .38.1.48.322s.15.527.15.943v3.423h1.38v-3.745c0-.687-.13-1.214-.4-1.57s-.652-.53-1.174-.53zm4.085 0c-.484.03-.873.172-1.166.422-.335.285-.504.67-.504 1.158 0 .38.093.712.273.992s.477.547.893.794c.312.2.528.35.645.48s.174.28.174.455-.062.317-.174.422-.267.157-.48.157a2.14 2.14 0 0 1-.67-.132c-.253-.086-.473-.192-.66-.322v1.2c.37.223.84.33 1.406.33.64 0 1.12-.157 1.447-.47s.496-.747.496-1.306a1.78 1.78 0 0 0-.124-.678c-.08-.192-.187-.362-.33-.513s-.395-.338-.752-.554c-.295-.18-.495-.326-.604-.446s-.165-.26-.165-.413a.48.48 0 0 1 .132-.34c.087-.094.222-.14.397-.14.278 0 .6.1.967.298l.446-.984a2.76 2.76 0 0 0-1.44-.397c-.073 0-.138-.004-.207 0zm4.48 0c-.67 0-1.197.26-1.57.794s-.562 1.276-.562 2.224c0 .934.215 1.656.628 2.166s.977.76 1.695.76c.615 0 1.14-.132 1.58-.397v-1.124c-.467.278-.926.413-1.373.413-.35 0-.62-.123-.82-.372s-.304-.63-.314-1.14h2.753v-.728c0-.82-.177-1.463-.537-1.918s-.855-.678-1.48-.678zm5.383 0a.93.93 0 0 0-.628.232c-.178.155-.337.408-.488.77h-.05l-.157-.893h-1.124v5.738h1.373v-2.952c0-.5.086-.887.265-1.15s.436-.397.77-.397c.155 0 .276.024.372.058l.165-1.33c-.16-.05-.328-.074-.496-.074zm-5.4 1.05c.2 0 .376.114.496.33s.183.532.2.95H69.8c.02-.436.096-.76.223-.967s.284-.314.48-.314zm-14.52.124c.034-.005.07 0 .107 0 .285 0 .488.15.62.446s.198.74.198 1.34c0 1.2-.27 1.82-.82 1.82-.288 0-.498-.157-.628-.463s-.198-.758-.198-1.356.068-1.042.198-1.34c.114-.26.286-.414.52-.446zm28.313-1.175a3.41 3.41 0 0 0-1.86.537l.47.95c.446-.268.84-.405 1.182-.405.464 0 .703.266.703.802v.413l-.77.033c-.66.03-1.15.194-1.48.488s-.496.743-.496 1.348c0 .563.113 1 .356 1.315s.578.47 1 .47c.33 0 .602-.063.82-.2s.426-.358.628-.695h.033l.273.785h1v-3.853c0-.64-.154-1.13-.47-1.48s-.78-.52-1.4-.52zm5.647.008a1.4 1.4 0 0 0-.8.223 1.49 1.49 0 0 0-.52.604v-.736h-1.356v3.084h.008v2.67h1.373v-2.753c0-.697.07-1.195.207-1.488s.35-.438.645-.438a.5.5 0 0 1 .488.314c.1.213.15.527.15.943v3.423h1.38v-3.746c0-.687-.13-1.206-.4-1.563s-.652-.537-1.174-.537zm4.556 0c-.707 0-1.233.246-1.57.744s-.504 1.256-.504 2.266c0 .965.18 1.693.537 2.2s.87.744 1.554.744c.436 0 .838-.108 1.2-.33v-1.207c-.374.24-.73.364-1.075.364-.288 0-.5-.153-.628-.446s-.2-.737-.2-1.33c0-.608.07-1.06.198-1.364s.336-.455.628-.455c.22 0 .476.08.76.248l.4-1.067c-.185-.117-.395-.203-.628-.265a2.6 2.6 0 0 0-.67-.09zm-17.438.107l1.497 5.738h1.703l1.505-5.738h-1.422l-.794 3.663-.083.537-.04.438h-.017c-.01-.13-.04-.34-.083-.637l-.116-.678-.728-3.324zm7.73 3.05v.48c0 .374-.082.676-.232.9s-.345.34-.595.34c-.337 0-.504-.237-.504-.7 0-.32.07-.558.215-.72s.374-.256.686-.273zm11.606-3.17h1.422l.793 3.24c.08.288.143.692.2 1.2h.03c.003-.082.02-.23.046-.44l.067-.497a249.5 249.5 0 0 1 .71-3.513h1.442l-1.643 6.15c-.2.755-.464 1.298-.793 1.628s-.77.494-1.32.494a2.77 2.77 0 0 1-.726-.088v-1.15c.14.04.3.062.474.062.46 0 .762-.302.907-.907l.098-.36zm-34.235-2.585c0 .323-.085.576-.255.76s-.415.274-.736.274c-.175 0-.328-.022-.46-.067a1.09 1.09 0 0 1-.308-.15v-.393c.087.087.203.157.347.2a1.27 1.27 0 0 0 .442.08c.198 0 .354-.065.467-.195s.17-.303.17-.52a.73.73 0 0 0-.122-.43c-.082-.117-.236-.25-.465-.398-.262-.165-.44-.297-.536-.396a.99.99 0 0 1-.223-.333 1.1 1.1 0 0 1-.08-.439c0-.276.093-.504.28-.685a.98.98 0 0 1 .711-.271c.3 0 .567.073.775.22l-.173.294c-.193-.13-.4-.195-.616-.195-.198 0-.356.058-.474.175a.62.62 0 0 0-.177.462c0 .17.04.312.12.426s.25.253.5.416.43.3.524.402a1 1 0 0 1 .21.333 1.18 1.18 0 0 1 .069.419z"/><use xlink:href="#B"/><path d="M66.926 258.387h-.6v3.54h-.333v-3.54h-.488v-.2l.488-.145v-.3c0-.488.058-.84.173-1.054s.316-.322.6-.322a1.13 1.13 0 0 1 .45.088l-.117.3a.79.79 0 0 0-.34-.088c-.116 0-.203.034-.262.103s-.103.18-.13.333-.042.366-.042.637v.322h.6zm1.324 3.3c.104 0 .196-.014.276-.042v.283a.97.97 0 0 1-.4.071c-.396 0-.594-.296-.594-.888v-2.724h-.347v-.198l.34-.1.1-.913h.233v.913h.608v.297h-.608v2.63c0 .26.028.436.085.53s.156.142.297.142zm3.013.24l-.543-2.66-.1-.68h-.007l-.05.3-.08.44-.548 2.6h-.4l-.835-3.84h.336l.478 2.236.223 1.167h.02l.205-1.175.478-2.23h.354l.48 2.236c.038.167.105.557.202 1.167h.02c.007-.078.042-.274.104-.587l.6-2.816h.333l-.863 3.84zm3.33 0l-.042-.538h-.014c-.184.406-.462.608-.835.608a.72.72 0 0 1-.603-.299c-.152-.2-.228-.466-.228-.8 0-.366.1-.655.33-.87s.527-.33.923-.348l.414-.02v-.318c0-.358-.045-.62-.134-.784s-.238-.246-.446-.246a1.26 1.26 0 0 0-.672.216l-.145-.265a1.57 1.57 0 0 1 .838-.248c.316 0 .544.1.683.3s.2.532.2 1v2.614zm-.817-.216c.24 0 .427-.12.56-.356s.2-.573.2-1.007v-.4l-.4.02c-.3.017-.538.102-.688.256s-.225.38-.225.677c0 .278.05.482.15.612a.48.48 0 0 0 .403.195zm3.17-3.696c.12 0 .232.017.336.05l-.08.336a.68.68 0 0 0-.262-.053c-.13 0-.25.067-.363.2s-.2.32-.264.557a3.05 3.05 0 0 0-.096.789v2.034h-.336v-3.84h.276l.035.672h.025c.18-.498.422-.746.73-.746zM78.95 262a1.04 1.04 0 0 1-.936-.518c-.218-.346-.327-.827-.327-1.445 0-.656.097-1.156.292-1.502s.475-.518.84-.518c.318 0 .57.152.754.455s.276.712.276 1.226v.3h-1.82c.005.56.084.978.237 1.256s.386.417.697.417c.24 0 .494-.08.76-.237v.325a1.44 1.44 0 0 1-.775.23zm-.152-3.68c-.462 0-.716.46-.76 1.383h1.475c0-.422-.064-.758-.193-1.008s-.302-.375-.522-.375zm4.246.067h-.6v3.54H82.1v-3.54h-.488v-.2l.488-.145v-.3c0-.488.058-.84.173-1.054s.316-.322.6-.322a1.13 1.13 0 0 1 .45.088l-.117.3a.79.79 0 0 0-.34-.088c-.116 0-.203.034-.262.103s-.103.18-.13.333a3.7 3.7 0 0 0-.042.637v.322h.6zm1.684-.372c.12 0 .232.017.336.05l-.08.336a.68.68 0 0 0-.262-.053c-.13 0-.25.067-.363.2s-.2.32-.264.557a3.05 3.05 0 0 0-.096.789v2.034h-.336v-3.84h.276l.035.672H84c.18-.498.422-.746.73-.746zM86.734 262a1.04 1.04 0 0 1-.936-.518c-.218-.346-.327-.827-.327-1.445 0-.656.097-1.156.292-1.502s.475-.518.84-.518c.318 0 .57.152.754.455s.276.712.276 1.226v.3h-1.818c.005.56.084.978.237 1.256s.386.417.697.417c.24 0 .494-.08.76-.237v.325a1.44 1.44 0 0 1-.775.23zm-.152-3.68c-.462 0-.716.46-.76 1.383h1.475c0-.422-.064-.758-.193-1.008s-.302-.375-.522-.375zM89.58 262a1.04 1.04 0 0 1-.936-.518c-.218-.346-.327-.827-.327-1.445 0-.656.097-1.156.292-1.502s.475-.518.84-.518c.318 0 .57.152.754.455s.276.712.276 1.226v.3h-1.82c.005.56.084.978.237 1.256s.386.417.697.417c.24 0 .494-.08.76-.237v.325a1.44 1.44 0 0 1-.775.23zm-.152-3.68c-.462 0-.716.46-.76 1.383h1.475c0-.422-.064-.758-.193-1.008s-.302-.375-.522-.375zM92.27 262c-.745 0-1.118-.662-1.118-1.985 0-.65.093-1.147.28-1.488s.46-.5.824-.5c.172 0 .335.05.5.15s.278.236.37.4h.028l-.014-.428v-1.723h.336v5.505H93.2l-.028-.538h-.032c-.092.196-.2.346-.357.45a.84.84 0 0 1-.502.157zm.02-.294c.27 0 .476-.124.62-.373s.218-.615.218-1.098v-.22c0-.58-.07-1.005-.2-1.275a.67.67 0 0 0-.642-.405c-.276 0-.474.144-.594.433s-.18.707-.18 1.254.063.97.188 1.256.325.428.6.428z"/><use xlink:href="#B" x="31.557"/><path d="M100.765 261.928v-2.614c0-.644-.19-.966-.566-.966-.26 0-.446.113-.56.338s-.172.557-.172.996v2.247h-.333v-2.614c0-.325-.046-.568-.138-.727a.46.46 0 0 0-.428-.239.58.58 0 0 0-.555.347c-.116.23-.173.606-.173 1.125v2.11h-.336v-3.84h.283l.028.534h.032c.153-.406.414-.608.782-.608.212 0 .38.057.502.17s.21.278.265.495c.092-.236.205-.406.34-.51s.31-.156.524-.156c.3 0 .502.11.637.334s.202.58.202 1.07v2.508z"/></g></g><defs ><path id="B" d="M65.093 260c0 .646-.102 1.14-.306 1.484s-.496.515-.876.515-.662-.172-.86-.515-.3-.838-.3-1.484c0-1.323.392-1.985 1.175-1.985.368 0 .654.173.86.52s.308.835.308 1.465zm-1.992 0c0 .554.066.973.198 1.256s.338.425.62.425c.55 0 .824-.56.824-1.68 0-1.11-.275-1.666-.824-1.666-.288 0-.496.14-.624.417s-.193.695-.193 1.25z"/></defs></svg>