<?xml version="1.0" encoding="UTF-8" standalone="no"?>
<!-- Generator: Adobe Illustrator 16.0.4, SVG Export Plug-In . SVG Version: 6.00 Build 0)  -->

<svg
   xmlns:dc="http://purl.org/dc/elements/1.1/"
   xmlns:cc="http://creativecommons.org/ns#"
   xmlns:rdf="http://www.w3.org/1999/02/22-rdf-syntax-ns#"
   xmlns:svg="http://www.w3.org/2000/svg"
   xmlns="http://www.w3.org/2000/svg"
   xmlns:sodipodi="http://sodipodi.sourceforge.net/DTD/sodipodi-0.dtd"
   xmlns:inkscape="http://www.inkscape.org/namespaces/inkscape"
   version="1.1"
   id="Layer_1"
   x="0px"
   y="0px"
   width="64"
   height="64"
   viewBox="0 0 64 64"
   enable-background="new 0 0 479 302"
   xml:space="preserve"
   sodipodi:docname="brigade-icon.svg"
   inkscape:version="0.92.2 5c3e80d, 2017-08-06"><metadata
     id="metadata71"><rdf:RDF><cc:Work
         rdf:about=""><dc:format>image/svg+xml</dc:format><dc:type
           rdf:resource="http://purl.org/dc/dcmitype/StillImage" /><dc:title></dc:title></cc:Work></rdf:RDF></metadata><defs
     id="defs69" /><sodipodi:namedview
     pagecolor="#ffffff"
     bordercolor="#666666"
     borderopacity="1"
     objecttolerance="10"
     gridtolerance="10"
     guidetolerance="10"
     inkscape:pageopacity="0"
     inkscape:pageshadow="2"
     inkscape:window-width="1440"
     inkscape:window-height="799"
     id="namedview67"
     showgrid="false"
     inkscape:zoom="1.9131741"
     inkscape:cx="72.238692"
     inkscape:cy="4.6463556"
     inkscape:window-x="0"
     inkscape:window-y="1"
     inkscape:window-maximized="1"
     inkscape:current-layer="Layer_1" /><g
     id="g200"
     transform="matrix(1.4110684,0,0,1.4110684,-53.987103,-10.332052)"><path
       style="clip-rule:evenodd;fill:#3b7497;fill-rule:evenodd;stroke-width:0.17330509"
       inkscape:connector-curvature="0"
       id="path16"
       d="m 73.104107,45.620605 c 0.06222,0.18457 0.168453,0.327546 0.255798,0.479015 0.299818,0.519395 0.606915,1.034631 0.907772,1.553333 0.06378,0.110049 0.1253,0.224257 0.16672,0.343664 0.09982,0.287167 -0.026,0.615234 -0.282834,0.768089 -0.262384,0.156148 -0.595823,0.108489 -0.810894,-0.112995 -0.111262,-0.114555 -0.186477,-0.252852 -0.26585,-0.388377 -0.357875,-0.610381 -0.714364,-1.221974 -1.072066,-1.832875 -0.03431,-0.05875 -0.07227,-0.115421 -0.11854,-0.188902 -0.673637,0.0487 -1.284191,-0.116981 -1.782443,-0.593397 -0.336732,-0.322001 -0.545218,-0.720429 -0.624419,-1.179514 -0.163773,-0.951445 0.335692,-1.881227 1.226827,-2.299932 0.826319,-0.388203 1.864243,-0.163253 2.475663,0.5343 0.373993,0.426677 0.547471,0.923716 0.531181,1.488864 -0.01542,0.554922 -0.242454,1.023366 -0.606915,1.428727 z M 71.57365,43.062448 c -0.565321,-0.03275 -1.068253,0.477109 -1.055775,1.060281 0.01213,0.566534 0.429277,1.063573 1.074319,1.055255 0.674676,-0.0087 1.049015,-0.527368 1.059414,-1.072239 0.01023,-0.535166 -0.505705,-1.095635 -1.077958,-1.043297 z" /><path
       style="clip-rule:evenodd;fill:#3b7497;fill-rule:evenodd;stroke-width:0.17330509"
       inkscape:connector-curvature="0"
       id="path18"
       d="m 51.726404,13.757771 c 0.634297,-0.05303 1.21123,0.09584 1.69891,0.516795 0.360995,0.311776 0.585078,0.705699 0.690621,1.172756 0.205193,0.907772 -0.253199,1.92334 -1.156638,2.357642 -0.935501,0.449727 -1.969439,0.18405 -2.585712,-0.566187 -0.345917,-0.421132 -0.506051,-0.908985 -0.483521,-1.448484 0.0227,-0.540192 0.234481,-1.009849 0.611073,-1.404465 -0.02288,-0.11906 -0.08804,-0.205886 -0.141243,-0.296871 -0.351983,-0.602582 -0.704659,-1.204817 -1.058721,-1.806186 -0.09081,-0.154415 -0.168106,-0.310563 -0.159441,-0.497212 0.01317,-0.283354 0.14315,-0.487854 0.406921,-0.59461 0.26221,-0.105889 0.500331,-0.05546 0.708124,0.137258 0.103117,0.09549 0.164813,0.219924 0.234135,0.338118 0.3681,0.627364 0.733427,1.256288 1.100661,1.884173 0.03917,0.06672 0.0844,0.129979 0.134831,0.207273 z m 0.298432,3.183787 c 0.560468,0.04697 1.052308,-0.434995 1.075011,-1.052655 0.02045,-0.556829 -0.501718,-1.086623 -1.073625,-1.073278 -0.623378,0.01456 -1.06392,0.502238 -1.063573,1.071199 3.46e-4,0.50813 0.43049,1.104646 1.062187,1.054734 z" /><path
       style="clip-rule:evenodd;fill:#3b7497;fill-rule:evenodd;stroke-width:0.17330509"
       inkscape:connector-curvature="0"
       id="path20"
       d="m 63.55725,14.131416 c -0.06811,0.04922 -0.08215,0.130673 -0.117675,0.199128 -0.374858,0.721122 -0.968255,1.085236 -1.780709,1.059067 -0.648161,-0.0208 -1.39112,-0.46619 -1.637387,-1.26322 -0.03882,-0.0993 -0.05268,-0.202594 -0.07036,-0.307617 -0.04385,-0.260477 0.02756,-0.516276 0.0055,-0.77398 0.02496,-0.04125 0.0565,-0.08007 0.07366,-0.12426 0.191329,-0.491147 0.527714,-0.844863 1.004476,-1.066866 0.03466,-0.01612 0.06707,-0.03674 0.0922,-0.05078 0.04697,-0.117154 0.02738,-0.226509 0.02756,-0.333092 0.0016,-1.091476 3.46e-4,-2.1831243 0.0017,-3.2745998 1.73e-4,-0.1076224 0,-0.2176712 0.02045,-0.3225208 0.06655,-0.3401978 0.377285,-0.578839 0.700152,-0.5478173 0.343145,0.032928 0.59513,0.2940987 0.61662,0.6427885 0.0049,0.078334 0.0017,0.1571877 0.0017,0.2358683 0,1.1013538 0,2.2027081 0,3.3040611 0,0.107796 0,0.215419 0,0.340198 0.527194,0.24852 0.881083,0.650241 1.057161,1.204297 0.02565,0.217845 0.08752,0.43153 0.06464,0.65492 -0.01456,0.14263 -0.08769,0.276422 -0.05979,0.424424 z m -1.787296,-1.347447 c -0.433263,-8.66e-4 -0.765488,0.323561 -0.771554,0.753358 -0.0061,0.440888 0.334825,0.790964 0.769475,0.790271 0.430663,-5.2e-4 0.786458,-0.360648 0.779179,-0.788365 -0.0071,-0.421131 -0.349729,-0.754224 -0.7771,-0.755264 z" /><path
       style="clip-rule:evenodd;fill:#3b7497;fill-rule:evenodd;stroke-width:0.17330509"
       inkscape:connector-curvature="0"
       id="path22"
       d="m 60.075204,45.821119 c 0.04471,-0.07504 0.09116,-0.149216 0.134138,-0.225297 0.38959,-0.686461 0.980733,-1.031685 1.766325,-0.975708 0.774501,0.05511 1.301695,0.479362 1.592328,1.197712 0.01473,0.03622 0.02929,0.07244 0.04385,0.108662 0.07885,0.22703 0.05875,0.462725 0.06482,0.696687 0.0035,0.128939 -0.08683,0.242453 -0.05268,0.373992 -0.01179,0.01577 -0.02808,0.02981 -0.03466,0.04749 -0.197741,0.523728 -0.551283,0.89824 -1.066693,1.118857 -0.01768,0.0075 -0.03171,0.02253 -0.05112,0.03674 -0.0532,0.09826 -0.02808,0.208659 -0.02825,0.314549 -0.0021,1.111232 -0.0012,2.222464 -0.0017,3.333696 0,0.08839 0.0043,0.177811 -0.0078,0.264984 -0.04263,0.30727 -0.316975,0.54955 -0.629964,0.563761 -0.307617,0.01386 -0.606741,-0.210912 -0.667398,-0.516276 -0.02461,-0.124086 -0.02634,-0.254065 -0.02669,-0.381444 -0.0026,-1.101354 -0.0019,-2.202708 -0.0042,-3.304062 -1.74e-4,-0.106755 0.01906,-0.216111 -0.02738,-0.332399 -0.0234,-0.01698 -0.05251,-0.0435 -0.08631,-0.06135 -0.4499,-0.235001 -0.744518,-0.599635 -0.907425,-1.076571 -0.0156,-0.04558 -0.04489,-0.08648 -0.06776,-0.129459 -0.0042,-0.352676 -0.01629,-0.706045 0.05858,-1.054561 z m 1.762859,-0.14731 c -0.360994,-0.01993 -0.769821,0.356662 -0.773287,0.769648 -0.0033,0.382485 0.372086,0.79911 0.793217,0.77918 0.415413,-0.01958 0.760636,-0.36602 0.75613,-0.784032 -0.0047,-0.411946 -0.36394,-0.766355 -0.77606,-0.764796 z" /><path
       style="clip-rule:evenodd;fill:#3b7497;fill-rule:evenodd;stroke-width:0.17330509"
       inkscape:connector-curvature="0"
       id="path24"
       d="m 55.057848,45.258744 c -0.06187,-0.0087 -0.113341,0.013 -0.165333,0.04644 -0.253545,0.162907 -0.529794,0.254759 -0.833251,0.259611 -0.02842,5.2e-4 -0.0565,0.01421 -0.106929,0.0279 -0.152335,0.256838 -0.313509,0.525981 -0.47191,0.796856 -0.377458,0.644695 -0.754224,1.28991 -1.130296,1.935472 -0.07452,0.127899 -0.152162,0.253372 -0.263597,0.353022 -0.211779,0.189596 -0.523554,0.216112 -0.768088,0.06776 -0.257185,-0.155974 -0.370526,-0.44938 -0.291152,-0.737239 0.0506,-0.183704 0.154934,-0.339332 0.248692,-0.500159 0.470524,-0.806908 0.942953,-1.612604 1.414517,-2.418819 0.02461,-0.04177 0.04662,-0.08509 0.0818,-0.149909 -0.247133,-0.377978 -0.346784,-0.797897 -0.259785,-1.253342 0.05858,-0.274342 0.194968,-0.508304 0.379712,-0.715057 0.05372,-0.06014 0.103983,-0.117674 0.105369,-0.203114 0.115421,0.0023 0.201381,-0.07088 0.296179,-0.11906 0.544697,-0.276249 1.090262,-0.259265 1.593193,0.06967 0.505878,0.33084 0.729615,0.829612 0.688541,1.438779 -0.0054,0.07816 -0.0149,0.155975 -0.02253,0.234309 -0.10589,0.28214 -0.238468,0.54747 -0.462378,0.758903 -0.02374,0.02236 -0.02253,0.07123 -0.03276,0.107969 z m -1.019727,-1.720053 c -0.273302,-0.0036 -0.493746,0.210739 -0.490107,0.476415 0.0036,0.254932 0.210046,0.468097 0.462725,0.477802 0.269489,0.01022 0.495826,-0.198607 0.503798,-0.464804 0.008,-0.268449 -0.203634,-0.485774 -0.476416,-0.489413 z" /><path
       style="clip-rule:evenodd;fill:#3b7497;fill-rule:evenodd;stroke-width:0.17330509"
       inkscape:connector-curvature="0"
       id="path26"
       d="m 70.702272,17.031331 c -0.106583,-0.04454 -0.18405,0.02218 -0.270876,0.06551 -0.466537,0.232402 -0.942433,0.251639 -1.409144,0.01421 -0.540192,-0.274862 -0.825625,-0.727535 -0.862019,-1.333409 -0.0064,-0.107103 -5.2e-4,-0.215072 -3.47e-4,-0.322521 0.103117,-0.325294 0.240548,-0.632217 0.473643,-0.888189 0.340198,-0.247653 0.709164,-0.418358 1.148839,-0.40848 0.283354,-0.481268 0.562202,-0.954218 0.840184,-1.427861 0.2837,-0.483174 0.567747,-0.966002 0.848675,-1.450736 0.15788,-0.272089 0.379538,-0.417492 0.703792,-0.380059 0.393055,0.04541 0.6544,0.434303 0.551456,0.817307 -0.03379,0.12582 -0.1,0.234655 -0.164293,0.344704 -0.506224,0.865312 -1.013488,1.730105 -1.520059,2.595244 -0.01958,0.03362 -0.03847,0.06776 -0.04905,0.08665 -0.01837,0.09497 0.0357,0.14679 0.06707,0.205887 0.164813,0.312296 0.250426,0.638976 0.18457,0.993904 -0.01265,0.06863 -0.01404,0.136738 0.0081,0.203981 -0.0156,0.01109 -0.03986,0.01906 -0.04541,0.03397 -0.09168,0.248866 -0.236041,0.462032 -0.431183,0.640709 -0.06308,0.05736 -0.08319,0.12738 -0.074,0.20918 z m -0.513676,-1.313133 c -0.0017,-0.26897 -0.217845,-0.48924 -0.480575,-0.489934 -0.252159,-6.93e-4 -0.480402,0.233269 -0.482308,0.494093 -0.0017,0.259958 0.22495,0.487334 0.48612,0.487854 0.261691,3.47e-4 0.478322,-0.223044 0.476763,-0.492013 z" /><circle
       style="clip-rule:evenodd;fill:#3b7497;fill-rule:evenodd;stroke-width:0.17330509"
       id="circle30"
       r="1.7330509"
       cy="36.258316"
       cx="48.00589" /><circle
       style="clip-rule:evenodd;fill:#ffffff;fill-rule:evenodd;stroke-width:0.17330509"
       id="circle34"
       r="0.68247545"
       cy="36.258316"
       cx="48.00589" /><path
       style="clip-rule:evenodd;fill:#30799b;fill-rule:evenodd;stroke-width:0.17330509"
       inkscape:connector-curvature="0"
       id="path36"
       d="m 75.601433,21.212316 c -0.0045,0.216458 -0.129285,0.398255 -0.333439,0.476589 -0.20294,0.07781 -0.388896,0.03639 -0.547297,-0.10589 -0.06464,-0.05806 -0.117847,-0.132925 -0.16308,-0.207966 -0.413159,-0.681955 -0.873631,-1.33029 -1.371537,-1.952455 -0.04887,-0.061 -0.09306,-0.127552 -0.128419,-0.197221 -0.112648,-0.222177 -0.05892,-0.4882 0.12478,-0.643309 0.193928,-0.163773 0.475722,-0.164813 0.676583,0.0014 0.05268,0.0435 0.100864,0.09393 0.144017,0.146963 0.545737,0.672423 1.043816,1.378468 1.489557,2.121427 0.0669,0.111955 0.117154,0.226857 0.108835,0.360475 z" /><path
       style="clip-rule:evenodd;fill:#30799b;fill-rule:evenodd;stroke-width:0.17330509"
       inkscape:connector-curvature="0"
       id="path38"
       d="m 56.597317,13.795205 c 0.232922,0.0038 0.417839,0.135697 0.493746,0.352329 0.07261,0.206753 0.0057,0.444007 -0.174345,0.581438 -0.06932,0.05286 -0.149735,0.09532 -0.231015,0.128246 -0.345917,0.140551 -0.693567,0.276248 -1.041044,0.412813 -0.09185,0.03605 -0.185956,0.06326 -0.285953,0.0643 -0.229456,0.0026 -0.423558,-0.128246 -0.503278,-0.340024 -0.07868,-0.208833 -0.01924,-0.442622 0.158921,-0.584905 0.06811,-0.05424 0.147655,-0.09878 0.228416,-0.132059 0.354409,-0.145403 0.71159,-0.28422 1.067039,-0.427197 0.09289,-0.03726 0.188383,-0.05338 0.287513,-0.05494 z" /><path
       style="clip-rule:evenodd;fill:#30799b;fill-rule:evenodd;stroke-width:0.17330509"
       inkscape:connector-curvature="0"
       id="path40"
       d="m 49.488862,39.158751 c 0.118714,0.0061 0.240894,0.03951 0.335692,0.135698 0.06863,0.06984 0.135698,0.14263 0.194449,0.220964 0.200167,0.267583 0.397215,0.537419 0.59305,0.808295 0.05164,0.0714 0.102076,0.14575 0.13899,0.225297 0.103637,0.222177 0.03362,0.484214 -0.161693,0.63343 -0.18717,0.142976 -0.442275,0.147656 -0.629271,0 -0.07608,-0.05996 -0.142977,-0.135352 -0.201554,-0.212992 -0.218711,-0.29046 -0.433956,-0.583692 -0.646601,-0.878657 -0.0513,-0.07088 -0.09878,-0.148523 -0.128939,-0.230323 -0.123567,-0.336038 0.134311,-0.698939 0.505877,-0.701712 z" /><path
       style="clip-rule:evenodd;fill:#30799b;fill-rule:evenodd;stroke-width:0.17330509"
       inkscape:connector-curvature="0"
       id="path42"
       d="m 67.100819,46.310186 c -0.233962,-0.0045 -0.435169,-0.158574 -0.503451,-0.385084 -0.06274,-0.208486 0.0182,-0.440195 0.205886,-0.570867 0.0558,-0.03882 0.118887,-0.07019 0.18249,-0.09445 0.358222,-0.136045 0.717483,-0.27001 1.077438,-0.401722 0.07348,-0.02686 0.149909,-0.0506 0.227203,-0.06135 0.235002,-0.03293 0.454579,0.09428 0.549204,0.310736 0.09809,0.224084 0.03119,0.486468 -0.166893,0.632737 -0.05459,0.04038 -0.116634,0.0747 -0.180064,0.09896 -0.36706,0.140724 -0.73516,0.278328 -1.103434,0.415759 -0.09272,0.03449 -0.188729,0.05632 -0.288379,0.05529 z" /><path
       style="clip-rule:evenodd;fill:#30799b;fill-rule:evenodd;stroke-width:0.17330509"
       inkscape:connector-curvature="0"
       id="path44"
       d="m 55.057848,45.258744 c 0.0104,-0.03674 0.009,-0.08561 0.03276,-0.108143 0.22391,-0.211432 0.356488,-0.476762 0.462378,-0.758903 0.452153,0.166893 0.888015,0.371566 1.320931,0.581439 0.20242,0.09809 0.307963,0.271569 0.298951,0.501198 -0.008,0.204674 -0.114034,0.353369 -0.292539,0.445568 -0.169839,0.08769 -0.343837,0.0636 -0.512636,-0.01005 -0.279195,-0.121834 -0.557349,-0.24592 -0.835677,-0.36966 -0.08076,-0.03587 -0.161867,-0.0714 -0.241241,-0.110395 -0.08735,-0.04298 -0.180757,-0.07937 -0.232922,-0.171052 z" /><path
       style="clip-rule:evenodd;fill:#30799b;fill-rule:evenodd;stroke-width:0.17330509"
       inkscape:connector-curvature="0"
       id="path46"
       d="m 68.633702,14.566932 c -0.233268,0.255972 -0.370699,0.562895 -0.473642,0.888189 -0.460126,-0.144363 -0.898067,-0.345397 -1.333583,-0.548164 -0.26585,-0.12374 -0.362381,-0.38803 -0.275729,-0.641056 0.09081,-0.26585 0.340372,-0.400681 0.636897,-0.343837 0.02894,0.0055 0.0584,0.01126 0.08527,0.02253 0.40796,0.170705 0.816093,0.340544 1.222321,0.515409 0.05182,0.02236 0.09237,0.07071 0.13847,0.106929 z" /><path
       style="clip-rule:evenodd;fill:#30799b;fill-rule:evenodd;stroke-width:0.17330509"
       inkscape:connector-curvature="0"
       id="path48"
       d="m 63.55725,14.131416 c -0.0279,-0.148002 0.04523,-0.281794 0.05979,-0.42425 0.02288,-0.223391 -0.03899,-0.437076 -0.06464,-0.65492 0.261344,0.03639 0.523035,0.07123 0.783859,0.110395 0.105889,0.01594 0.214205,0.03015 0.314722,0.06482 0.248,0.08544 0.399815,0.331879 0.363941,0.57052 -0.03917,0.261171 -0.255279,0.462205 -0.528927,0.453887 -0.233442,-0.0069 -0.465671,-0.05043 -0.698073,-0.07989 -0.07729,-0.01005 -0.153895,-0.02686 -0.230669,-0.04055 z" /><path
       style="clip-rule:evenodd;fill:#30799b;fill-rule:evenodd;stroke-width:0.17330509"
       inkscape:connector-curvature="0"
       id="path50"
       d="m 70.702272,17.031331 c -0.0094,-0.0818 0.01075,-0.151642 0.07383,-0.209353 0.195141,-0.178678 0.339505,-0.391843 0.431183,-0.640709 0.0054,-0.0149 0.02981,-0.02288 0.04541,-0.03397 0.264983,0.150776 0.497039,0.34817 0.726668,0.544525 0.236908,0.202767 0.257878,0.513503 0.08024,0.73828 -0.172785,0.218364 -0.452673,0.268622 -0.710897,0.104676 -0.230323,-0.146443 -0.451287,-0.309696 -0.646428,-0.503451 z" /><path
       style="clip-rule:evenodd;fill:#30799b;fill-rule:evenodd;stroke-width:0.17330509"
       inkscape:connector-curvature="0"
       id="path52"
       d="m 60.075204,45.821119 c -0.07487,0.348516 -0.06274,0.701885 -0.05858,1.054908 -0.302591,-0.01716 -0.599116,-0.07608 -0.893735,-0.140031 -0.30311,-0.06568 -0.485081,-0.32304 -0.443661,-0.594956 0.04402,-0.289073 0.303284,-0.488374 0.61766,-0.451633 0.260997,0.0305 0.519048,0.08683 0.778313,0.131712 z" /><path
       style="clip-rule:evenodd;fill:#30799b;fill-rule:evenodd;stroke-width:0.17330509"
       inkscape:connector-curvature="0"
       id="path54"
       d="m 63.624319,46.997167 c -0.03414,-0.131539 0.05598,-0.245053 0.05268,-0.373992 -0.0061,-0.233962 0.01404,-0.469657 -0.06482,-0.696687 0.204154,-0.01941 0.407961,-0.04038 0.612114,-0.05771 0.09722,-0.0083 0.195315,-0.01768 0.292366,-0.01282 0.275035,0.013 0.490453,0.210912 0.517489,0.466884 0.02912,0.273649 -0.144017,0.529794 -0.428411,0.575373 -0.229282,0.03691 -0.460991,0.08856 -0.697553,0.06707 -0.04211,-0.06014 -0.07972,-0.05234 -0.113688,0.0076 -0.05684,0.0083 -0.113515,0.01629 -0.170185,0.02426 z" /><path
       style="clip-rule:evenodd;fill:#30799b;fill-rule:evenodd;stroke-width:0.17330509"
       inkscape:connector-curvature="0"
       id="path56"
       d="m 52.997597,42.768003 c -0.0014,0.08544 -0.05165,0.142977 -0.105369,0.203113 -0.184744,0.206753 -0.321135,0.440715 -0.379712,0.715057 -0.229456,-0.182143 -0.463764,-0.358221 -0.686808,-0.547644 -0.261517,-0.222004 -0.306923,-0.50813 -0.134831,-0.75353 0.126339,-0.179891 0.370873,-0.28734 0.565668,-0.202767 0.294618,0.127899 0.554056,0.315068 0.741052,0.585771 z" /><path
       style="clip-rule:evenodd;fill:#30799b;fill-rule:evenodd;stroke-width:0.17330509"
       inkscape:connector-curvature="0"
       id="path58"
       d="m 59.956663,13.044794 c 0.02184,0.257704 -0.04957,0.513503 -0.0055,0.77398 0.01768,0.105023 0.03154,0.208486 0.07036,0.307617 -0.18561,0.01629 -0.371219,0.03345 -0.556829,0.04818 -0.107623,0.0085 -0.216285,0.02357 -0.323387,0.01698 -0.252159,-0.01577 -0.447647,-0.195488 -0.489414,-0.435862 -0.04177,-0.240374 0.08388,-0.471217 0.316802,-0.57208 0.06256,-0.02704 0.129805,-0.05043 0.196874,-0.05806 0.263251,-0.03067 0.527368,-0.05442 0.791138,-0.08076 z" /><path
       style="clip-rule:evenodd;fill:#477495;fill-rule:evenodd;stroke-width:0.17330509"
       inkscape:connector-curvature="0"
       id="path60"
       d="m 63.794331,46.973078 c 0.03397,-0.05996 0.07158,-0.06776 0.113688,-0.0076 -0.03605,0.02981 -0.07348,0.0383 -0.113688,0.0076 z" /><path
       style="clip-rule:evenodd;fill:#b8e686;fill-rule:evenodd;stroke-width:0.17330509"
       inkscape:connector-curvature="0"
       id="path62"
       d="m 71.57365,43.062448 c 0.572427,-0.05234 1.088183,0.508131 1.078131,1.04347 -0.01057,0.544871 -0.384911,1.063574 -1.059414,1.072239 -0.645215,0.0083 -1.062187,-0.488721 -1.074318,-1.055255 -0.01265,-0.583345 0.49028,-1.093208 1.055601,-1.060454 z" /><path
       style="clip-rule:evenodd;fill:#ef8a97;fill-rule:evenodd;stroke-width:0.17330509"
       inkscape:connector-curvature="0"
       id="path64"
       d="m 52.024836,16.941558 c -0.631697,0.04991 -1.061841,-0.546604 -1.062187,-1.054734 -3.47e-4,-0.568788 0.440195,-1.056468 1.063573,-1.071199 0.571907,-0.01335 1.094075,0.516449 1.073625,1.073278 -0.0227,0.61766 -0.514543,1.099621 -1.075011,1.052655 z" /></g></svg>