<?xml version="1.0" encoding="UTF-8" standalone="no"?>
<!-- Generator: Adobe Illustrator 22.1.0, SVG Export Plug-In . SVG Version: 6.00 Build 0)  -->

<svg
   xmlns:dc="http://purl.org/dc/elements/1.1/"
   xmlns:cc="http://creativecommons.org/ns#"
   xmlns:rdf="http://www.w3.org/1999/02/22-rdf-syntax-ns#"
   xmlns:svg="http://www.w3.org/2000/svg"
   xmlns="http://www.w3.org/2000/svg"
   xmlns:sodipodi="http://sodipodi.sourceforge.net/DTD/sodipodi-0.dtd"
   xmlns:inkscape="http://www.inkscape.org/namespaces/inkscape"
   version="1.1"
   id="dash"
   x="0px"
   y="0px"
   viewBox="0 0 120 60"
   xml:space="preserve"
   sodipodi:docname="dash-ar21.svg"
   width="120"
   height="60"
   inkscape:version="0.92.4 (5da689c313, 2019-01-14)"><metadata
   id="metadata14"><rdf:RDF><cc:Work
       rdf:about=""><dc:format>image/svg+xml</dc:format><dc:type
         rdf:resource="http://purl.org/dc/dcmitype/StillImage" /><dc:title></dc:title></cc:Work></rdf:RDF></metadata><defs
   id="defs12" /><sodipodi:namedview
   pagecolor="#ffffff"
   bordercolor="#666666"
   borderopacity="1"
   objecttolerance="10"
   gridtolerance="10"
   guidetolerance="10"
   inkscape:pageopacity="0"
   inkscape:pageshadow="2"
   inkscape:window-width="1920"
   inkscape:window-height="1001"
   id="namedview10"
   showgrid="false"
   inkscape:zoom="0.75641026"
   inkscape:cx="200"
   inkscape:cy="156"
   inkscape:window-x="-9"
   inkscape:window-y="-9"
   inkscape:window-maximized="1"
   inkscape:current-layer="dash" />
<style
   type="text/css"
   id="style2">
	.st0{fill:#1E75BB;}
</style>




<g
   id="g21"
   transform="matrix(0.25445293,0,0,0.25445293,8.9821875,52.290077)"><path
     style="fill:#1e75bb"
     inkscape:connector-curvature="0"
     d="m 375.2,-118 -7.7,23.4 h -41.1 l 7.7,-23.4 h -21.9 l -19.9,60.7 h 21.8 l 7.7,-23.4 h 41.1 l -7.7,23.4 h 21.9 L 397,-118 Z"
     class="st0"
     id="H" /><path
     style="fill:#1e75bb"
     inkscape:connector-curvature="0"
     d="m 288.4,-90 c -1,-1.5 -2.3,-2.6 -3.8,-3.4 -1.7,-0.8 -3.5,-1.2 -5.4,-1.2 h -48 l 2.7,-8.4 h 63 l 5,-15 H 232 c -2.1,0 -4.2,0.4 -6.2,1.2 -2.2,0.8 -4.3,2 -6.1,3.5 -1.6,1.5 -3.5,3.1 -4.7,5 -1.4,1.9 -2.6,3.9 -3.4,6.1 l -1.9,5.7 c -0.5,2 -0.7,4.1 -0.8,6.2 0.3,1.9 0.8,3.8 1.6,5 1,1.5 2.3,2.6 3.8,3.5 1.6,0.9 3.5,1.4 5.4,1.5 h 48 l -2.7,8.1 h -63 l -4.9,15 h 69.8 c 2.1,0 4.2,-0.4 6.2,-1.2 2.2,-0.8 4.3,-2 6.1,-3.4 1.6,-1.5 3.5,-3.1 4.7,-5 1.5,-1.9 2.6,-3.9 3.4,-6.1 l 1.9,-5.7 c 0.6,-2 0.9,-4.1 0.8,-6.2 -0.5,-2.1 -0.9,-3.9 -1.6,-5.2 z"
     class="st0"
     id="S" /><path
     style="fill:#1e75bb"
     inkscape:connector-curvature="0"
     d="m 202.4,-108.7 c -0.3,-1.9 -0.8,-3.4 -1.9,-4.7 -0.8,-1.5 -2,-2.7 -3.5,-3.4 -1.7,-0.8 -3.5,-1.2 -5.4,-1.2 h -54.9 c -2.1,0 -4.2,0.4 -6.2,1.2 -2.2,0.8 -4.3,2 -6.1,3.5 -1.6,1.5 -3.4,3.1 -4.7,5 -1.5,1.9 -2.6,3.9 -3.4,6.1 l -14.6,44.9 h 21.9 l 15,-45.6 H 180 l -4.5,13.4 h -29.2 l -4.6,14.2 H 171 l -5.8,18.1 h 21.6 l 14.9,-45.4 c 0.6,-2 0.8,-4.1 0.7,-6.1 z"
     class="st0"
     id="A" /><path
     style="fill:#1e75bb"
     inkscape:connector-curvature="0"
     d="m 106.9,-108.3 c -0.1,-1.7 -0.6,-3.5 -1.5,-5 -0.8,-1.6 -2.2,-2.8 -3.8,-3.4 -1.7,-0.8 -3.5,-1.2 -5.4,-1.2 H 26.3 l -5,15 h 63.3 l -10,30.7 H 11.3 l -5,15 h 70.2 c 2.1,-0.1 4.2,-0.5 6.1,-1.2 2,-1.1 4.2,-2.2 6.1,-3.8 1.9,-1.5 3.5,-3.1 5,-5 1.2,-1.9 2.2,-3.8 3.1,-5.8 l 9.3,-29.1 c 0.8,-2 1.1,-4.2 0.8,-6.2 z"
     class="st0"
     id="D" /><path
     style="fill:#1e75bb"
     inkscape:connector-curvature="0"
     d="M 46.2,-94.6 H 9 l -5,13.9 h 37.6 z"
     class="st0"
     id="_-" /></g>
</svg>