<?xml version="1.0" encoding="UTF-8" standalone="no"?>
<!-- Created with Inkscape (http://www.inkscape.org/) -->

<svg
   xmlns:dc="http://purl.org/dc/elements/1.1/"
   xmlns:cc="http://creativecommons.org/ns#"
   xmlns:rdf="http://www.w3.org/1999/02/22-rdf-syntax-ns#"
   xmlns:svg="http://www.w3.org/2000/svg"
   xmlns="http://www.w3.org/2000/svg"
   xmlns:sodipodi="http://sodipodi.sourceforge.net/DTD/sodipodi-0.dtd"
   xmlns:inkscape="http://www.inkscape.org/namespaces/inkscape"
   width="120"
   height="60"
   id="svg01"
   inkscape:version="0.92.3 (2405546, 2018-03-11)"
   version="1.0"
   sodipodi:docname="anz-ar21.svg"
   inkscape:output_extension="org.inkscape.output.svg.inkscape">
  <defs
     id="defs9">
    <inkscape:perspective
       sodipodi:type="inkscape:persp3d"
       inkscape:vp_x="0 : 70 : 1"
       inkscape:vp_y="0 : 1000 : 0"
       inkscape:vp_z="420 : 70 : 1"
       inkscape:persp3d-origin="210 : 46.666667 : 1"
       id="perspective11" />
  </defs>
  <sodipodi:namedview
     pagecolor="#ffffff"
     bordercolor="#666666"
     borderopacity="1"
     objecttolerance="10"
     gridtolerance="10"
     guidetolerance="10"
     inkscape:pageopacity="0"
     inkscape:pageshadow="2"
     inkscape:window-width="1920"
     inkscape:window-height="1001"
     id="namedview7"
     showgrid="false"
     inkscape:zoom="5.1333332"
     inkscape:cx="63.312419"
     inkscape:cy="30.97539"
     inkscape:window-x="-9"
     inkscape:window-y="-9"
     inkscape:window-maximized="1"
     inkscape:current-layer="svg01" />
  <metadata
     id="meta01">
    <rdf:RDF>
      <cc:Work
         rdf:about="">
        <dc:format>image/svg+xml</dc:format>
        <dc:type
           rdf:resource="http://purl.org/dc/dcmitype/StillImage" />
        <dc:title></dc:title>
      </cc:Work>
    </rdf:RDF>
  </metadata>
  <g
     id="g4522"
     transform="matrix(0.26704548,0,0,0.26704548,3.7725263,32.571041)">
    <path
       id="anztxt01"
       style="fill:#007dba;fill-opacity:1;fill-rule:nonzero;stroke:none;stroke-width:0.43916929"
       d="m 262.55451,27.75413 h -30.53324 l 12.53016,-16.499153 h -33.9232 L 198.54076,27.14149 c -4.51905,6.3135 -4.95647,12.68562 -4.95647,17.10784 v 2.49997 c 0,2.88929 1.78984,4.46042 4.44593,4.46042 h 64.52429 c 2.60208,0 4.35832,-1.43542 4.35832,-4.37281 V 32.14209 c 0,-2.95781 -1.75624,-4.38796 -4.35832,-4.38796 M 88.740309,-30.533738 c -0.486161,-2.762814 -2.358998,-4.125118 -4.795729,-4.125118 h -8.629018 c -8.979475,0 -16.903626,4.762133 -21.344287,11.956385 0,0 -8.235083,13.167832 -17.462908,27.988479 h 58.584965 z m 96.496911,0.24835 c 0,-2.938701 -1.75097,-4.373468 -4.37281,-4.373468 H 163.2994 c -2.60208,0 -4.35832,1.434767 -4.35832,4.373468 v 33.29079 l -16.65,-29.929827 c -3.32737,-5.515747 -8.93073,-7.612561 -15.46821,-7.734431 h -12.98272 c -2.57836,0 -4.33921,1.434767 -4.33921,4.373468 V 5.30577 h 21.82122 l 3.35636,5.949207 H 109.50094 V 46.83691 c 0,2.93739 1.76085,4.39719 4.33921,4.39719 h 17.60849 c 2.61658,0 4.34844,-1.4598 4.34844,-4.39719 l -0.01,-33.50027 16.80613,30.17291 c 3.29311,5.48676 8.91623,7.58357 15.40957,7.72455 h 12.86151 c 2.62184,0 4.37281,-1.4598 4.37281,-4.39719 V 11.254977 H 163.572 L 160.22487,5.30577 H 185.2371 Z M 96.134163,11.254977 H 67.20169 c 0.739122,4.046726 6.075687,34.137293 6.391889,35.888253 0.491431,2.70946 2.179158,4.09087 4.654756,4.09087 h 19.904909 c 1.823431,0 2.743056,-0.57378 3.599436,-1.61461 0.58365,-0.72529 0.82673,-1.82475 0.55401,-3.43474 z M 11.190213,45.84944 c -0.787936,1.34715 -0.787936,2.76282 -0.306518,3.68178 0.554539,1.07508 1.789966,1.70288 3.122954,1.70288 h 20.673017 c 2.606689,0 4.937361,-1.40579 6.235765,-3.50721 L 63.728739,11.254977 H 32.782389 C 22.158927,28.28443 11.457535,45.45551 11.190213,45.84944 M 198.60927,-11.232248 h 29.08794 L 215.15256,5.286008 h 33.91331 l 12.36942,-16.270564 c 3.8188,-5.029586 4.7035,-9.533487 4.7035,-13.517631 v -5.666602 c 0,-2.904446 -1.75557,-4.490067 -4.43077,-4.490067 h -63.09875 c -2.60274,0 -4.34382,1.434767 -4.34382,4.373468 v 14.694824 c 0,2.928162 1.74108,4.358316 4.34382,4.358316"
       inkscape:connector-curvature="0" />
    <path
       id="symbol01"
       style="fill:#007dba;fill-opacity:1;fill-rule:nonzero;stroke:none;stroke-width:0.43916929"
       d="m 343.08653,-35.835983 c 5.93932,0 12.70011,5.156067 12.70011,12.277197 0,4.013129 -1.2793,7.111908 -3.16136,9.942574 -1.20617,1.804327 -2.1258,3.881378 -2.50524,5.384655 -0.40843,1.697609 -1.30367,5.807574 3.7213,5.876085 3.26874,0.08234 11.3141,-2.762814 17.81271,-10.599351 4.99994,-6.294394 7.97224,-14.276516 7.97224,-22.983267 0,-20.346933 -16.33907,-36.846743 -36.53976,-36.846743 -20.20596,0 -36.57468,16.49981 -36.57468,36.846743 0,8.706751 2.96768,16.688873 7.9729,22.983267 6.50849,7.836537 14.54858,10.681695 17.8127,10.599351 5.02498,-0.06851 4.11524,-4.178476 3.72592,-5.876085 -0.36956,-1.503277 -1.2938,-3.580328 -2.50986,-5.384655 -1.87744,-2.830666 -3.16136,-5.929445 -3.16136,-9.942574 0.0145,-7.12113 6.76607,-12.277197 12.73438,-12.277197 m 64.63562,37.240678 c -1.49801,-1.240433 -4.12512,-3.05003 -9.519,-3.882037 -7.48608,-1.118564 -14.16518,0.637015 -18.18754,2.232517 -5.28716,2.092203 -11.80091,6.849065 -16.3002,13.045964 -4.74764,6.547355 -7.20414,16.431961 -4.84909,26.734211 0.666,2.89918 1.38602,4.53354 2.4611,6.56646 1.40578,2.76281 5.11193,6.62048 8.35696,7.31612 2.56321,0.5303 4.56714,-0.94399 5.55,-2.05795 6.53681,-7.57303 31.31057,-36.900099 33.99565,-40.645115 2.637,-3.721301 0.91435,-7.297018 -1.50788,-9.31017 m -101.57986,-1.64952 c -4.02235,-1.595502 -10.69619,-3.351081 -18.18227,-2.232517 -5.39454,0.832007 -8.04536,2.641604 -9.52427,3.882037 -2.42223,2.013152 -4.15871,5.588869 -1.50788,9.31017 2.67059,3.745016 27.43908,33.072085 33.97655,40.645115 0.98286,1.11396 2.98679,2.58825 5.55527,2.05795 3.26413,-0.69564 6.95578,-4.55331 8.3563,-7.31612 1.09023,-2.03292 1.7951,-3.66728 2.48086,-6.56646 C 329.64663,29.2331 327.15127,19.348494 322.44777,12.801139 317.94321,6.60424 311.42022,1.847378 306.14229,-0.244825"
       inkscape:connector-curvature="0" />
  </g>
</svg>
