<?xml version="1.0" encoding="UTF-8" standalone="no"?>
<svg
   viewBox="3.62 8.78 120 60"
   width="120"
   height="60"
   version="1.1"
   id="svg24"
   sodipodi:docname="amazon_cloudwatch-ar21.svg"
   inkscape:version="1.1.2 (0a00cf5339, 2022-02-04)"
   xmlns:inkscape="http://www.inkscape.org/namespaces/inkscape"
   xmlns:sodipodi="http://sodipodi.sourceforge.net/DTD/sodipodi-0.dtd"
   xmlns="http://www.w3.org/2000/svg"
   xmlns:svg="http://www.w3.org/2000/svg">
  <defs
     id="defs28" />
  <sodipodi:namedview
     id="namedview26"
     pagecolor="#ffffff"
     bordercolor="#666666"
     borderopacity="1.0"
     inkscape:pageshadow="2"
     inkscape:pageopacity="0.0"
     inkscape:pagecheckerboard="0"
     showgrid="false"
     inkscape:zoom="7.9083333"
     inkscape:cx="60"
     inkscape:cy="30.031612"
     inkscape:window-width="1850"
     inkscape:window-height="1016"
     inkscape:window-x="0"
     inkscape:window-y="0"
     inkscape:window-maximized="1"
     inkscape:current-layer="svg24" />
  <g
     id="g969"
     transform="translate(-39.091478,6.219211)">
    <path
       d="M 47.558,39.07 63.6,50.4 79.67,39.054 63.63,36.7 Z"
       fill="#b7ca9d"
       id="path2" />
    <path
       d="m 50.765,38.795 2.724,0.8 6.38,-9.777 -6.38,-9.794 -2.724,1.052 z"
       fill="#4c622c"
       id="path4" />
    <path
       d="m 53.5,20.035 9.604,2.173 V 37.95 l -9.604,1.7 z"
       fill="#759c3f"
       id="path6" />
    <path
       d="m 58.818,41.244 -3.76,-1.138 V 15.93 l 3.76,-1.88 11.087,14.312 z"
       fill="#4c622c"
       id="path8" />
    <path
       d="m 58.818,14.05 12.83,5 v 19.2 l -12.83,3 z"
       fill="#759c3f"
       id="path10" />
    <path
       d="M 47.558,42.364 63.6,50.4 v -5.64 l -16.053,-5.7 z"
       fill="#4c622c"
       id="path12" />
    <path
       d="m 63.6,44.76 16.07,-5.707 v 3.3 L 63.6,50.4 Z"
       fill="#759c3f"
       id="path14" />
    <path
       d="m 60.18,34.346 3.43,8.328 11.553,-9.087 h -3.897 z"
       fill="#b7ca9d"
       id="path16" />
    <path
       d="m 63.6,34.7 -3.43,-0.362 v 7.294 l 3.43,1.035 z"
       fill="#4c622c"
       id="path18" />
    <path
       d="m 63.6,42.675 11.553,-3.466 v -5.62 L 63.6,34.7 Z"
       fill="#759c3f"
       id="path20" />
  </g>
  <path
     d="m 50.916295,42.184409 c -0.135196,-0.196035 -0.293376,-0.405589 -0.489411,-0.538081 -0.195546,-0.142711 -0.409819,-0.257809 -0.636775,-0.342047 -0.23297,-0.09598 -0.482161,-0.146453 -0.734116,-0.148716 -0.426778,-0.01376 -0.849395,0.08757 -1.223526,0.293376 -0.342047,0.196035 -0.588105,0.44074 -0.784139,0.734116 -0.196035,0.293376 -0.342047,0.635423 -0.44074,1.027492 -0.100059,0.400083 -0.149563,0.81113 -0.147364,1.223527 7.16e-4,0.396182 0.05021,0.79077 0.147364,1.174856 0.09734,0.405589 0.243353,0.734116 0.44074,1.027492 0.197386,0.293376 0.489411,0.538082 0.784139,0.734116 0.374131,0.205803 0.796748,0.307138 1.223526,0.293377 0.635423,0 1.126186,-0.196035 1.518255,-0.588105 0.376024,-0.439762 0.599439,-0.989523 0.636775,-1.566925 h 2.007666 c -0.04933,0.55508 -0.181491,1.099646 -0.39207,1.615596 -0.223824,0.453975 -0.521731,0.867479 -0.88148,1.223527 -0.343399,0.342047 -0.784139,0.588104 -1.273549,0.784139 -0.489411,0.196034 -1.027493,0.243353 -1.615597,0.243353 -0.6723,0.0026 -1.33818,-0.130802 -1.957643,-0.392069 -0.561474,-0.225844 -1.063736,-0.577335 -1.468232,-1.027492 -0.405589,-0.439388 -0.685445,-0.978822 -0.930151,-1.568278 -0.196034,-0.588104 -0.342046,-1.223527 -0.342046,-1.957643 0,-0.734116 0.09734,-1.370891 0.342046,-1.957643 0.244706,-0.586752 0.538082,-1.126185 0.930151,-1.615596 0.405589,-0.44074 0.88148,-0.832809 1.468232,-1.077515 0.619463,-0.261264 1.285343,-0.394624 1.957643,-0.392069 0.499321,0.0015 0.995116,0.08371 1.468233,0.243353 0.48941,0.135197 0.88148,0.405589 1.273549,0.635423 0.384772,0.2872 0.702211,0.654932 0.930151,1.077515 0.25397,0.450673 0.404519,0.952194 0.44074,1.468232 H 51.161 c -0.04867,-0.196035 -0.135196,-0.44074 -0.243353,-0.635423 z m 5.482211,-2.545747 v 9.544861 h -1.892748 v -9.544861 z m 1.568278,4.602083 c 0.14383,-0.432258 0.396673,-0.820136 0.734116,-1.126185 0.293376,-0.293376 0.685445,-0.538082 1.126185,-0.734116 0.44074,-0.196035 0.930151,-0.243354 1.468233,-0.243354 0.49932,0.0015 0.995115,0.08371 1.468232,0.243354 0.44074,0.196034 0.832809,0.44074 1.126185,0.734116 0.293376,0.293376 0.538082,0.685445 0.734116,1.126185 0.196035,0.44074 0.243354,0.930151 0.243354,1.518255 0,0.538082 -0.09734,1.027492 -0.243354,1.518255 -0.14383,0.432258 -0.396672,0.820136 -0.734116,1.126185 -0.328527,0.293377 -0.685445,0.538082 -1.126185,0.734117 -0.44074,0.135196 -0.930151,0.243353 -1.468232,0.243353 C 60.795997,49.37941 60.300202,49.2972 59.827085,49.137557 59.394288,48.994846 59.006143,48.741829 58.7009,48.40344 58.407524,48.074913 58.162819,47.717995 57.966784,47.277255 57.802257,46.788075 57.719577,46.2751 57.722078,45.759 c 0,-0.588104 0.04867,-1.077515 0.243354,-1.518255 z m 1.712937,2.301042 c 0.0464,0.247213 0.146557,0.481211 0.293376,0.685445 0.135197,0.196035 0.293376,0.405589 0.489411,0.489411 0.196035,0.135196 0.489411,0.196035 0.784139,0.196035 0.342047,0 0.588104,-0.04867 0.784139,-0.196035 0.196034,-0.147364 0.405589,-0.293376 0.538081,-0.489411 0.132492,-0.196034 0.196035,-0.44074 0.293376,-0.685445 0.05644,-0.257381 0.08903,-0.51942 0.09734,-0.782787 0,-0.293376 -0.04867,-0.538081 -0.09734,-0.832809 -0.0464,-0.247214 -0.146557,-0.481211 -0.293376,-0.685446 -0.135196,-0.196034 -0.293376,-0.405589 -0.538081,-0.48941 -0.196035,-0.135197 -0.489411,-0.196035 -0.784139,-0.196035 -0.342047,0 -0.588104,0.04867 -0.784139,0.196035 -0.196035,0.147364 -0.405589,0.293376 -0.489411,0.48941 -0.135196,0.196035 -0.196034,0.44074 -0.293376,0.685446 -0.09734,0.244705 -0.09734,0.538081 -0.09734,0.832809 0,0.243354 0.04867,0.489411 0.09734,0.784139 z m 11.063116,2.643088 v -0.978821 h -0.04867 c -0.243354,0.405589 -0.538082,0.685445 -0.930151,0.88148 -0.392069,0.196035 -0.784139,0.243353 -1.176208,0.243353 -0.489411,0 -0.930151,-0.04867 -1.223527,-0.196034 -0.293376,-0.147364 -0.588104,-0.342047 -0.784139,-0.588104 -0.196034,-0.246058 -0.293376,-0.538082 -0.405589,-0.881481 -0.112213,-0.343398 -0.09734,-0.734116 -0.09734,-1.176208 v -4.258684 h 1.908972 v 3.916638 c 0,0.588104 0.09734,0.978821 0.243354,1.273549 0.146012,0.294728 0.48941,0.44074 0.93015,0.44074 0.538082,0 0.881481,-0.135196 1.126186,-0.44074 0.244705,-0.305544 0.342047,-0.832809 0.342047,-1.518255 v -3.623261 h 1.908972 v 6.903124 z m 8.129356,-0.878776 c -0.243353,0.405589 -0.489411,0.635423 -0.88148,0.784139 -0.342047,0.135196 -0.784139,0.243353 -1.223527,0.243353 -0.538081,0 -0.978821,-0.09734 -1.370891,-0.293376 -0.388759,-0.194454 -0.724616,-0.480209 -0.978821,-0.832809 -0.243354,-0.343399 -0.44074,-0.734116 -0.588104,-1.176208 -0.147364,-0.442092 -0.196035,-0.930151 -0.196035,-1.370891 0,-0.44074 0.04867,-0.930151 0.196035,-1.32222 0.135196,-0.44074 0.342047,-0.83281 0.588104,-1.126186 0.26338,-0.311823 0.577924,-0.576535 0.930151,-0.782787 0.405589,-0.196034 0.832809,-0.293376 1.32222,-0.293376 0.405589,0 0.784139,0.09734 1.176208,0.243354 0.405589,0.196034 0.635423,0.44074 0.88148,0.784139 h 0.04867 v -3.474546 h 1.908972 v 9.544861 h -1.811631 z m -0.09734,-3.427227 c -0.0464,-0.247213 -0.146557,-0.481211 -0.293376,-0.685445 -0.138264,-0.186247 -0.303165,-0.351147 -0.489411,-0.489411 -0.196035,-0.135196 -0.44074,-0.196035 -0.784139,-0.196035 -0.343398,0 -0.588104,0.04867 -0.784139,0.196035 -0.196034,0.147364 -0.405589,0.293376 -0.48941,0.489411 -0.146819,0.204234 -0.246972,0.438232 -0.293376,0.685445 -0.05942,0.273782 -0.09203,0.552703 -0.09734,0.832809 0.0084,0.263367 0.0409,0.525406 0.09734,0.782787 0.05593,0.259427 0.155102,0.507596 0.293376,0.734116 0.14466,0.243354 0.293376,0.405589 0.538081,0.489411 0.196035,0.135196 0.44074,0.196035 0.734116,0.196035 0.293376,0 0.588104,-0.04867 0.784139,-0.196035 0.196035,-0.147364 0.405589,-0.293376 0.489411,-0.489411 0.135196,-0.196034 0.196034,-0.44074 0.243353,-0.734116 0.05942,-0.273782 0.09203,-0.552703 0.09734,-0.832809 0.04867,-0.243354 0,-0.538082 -0.04867,-0.784139 z m 9.301508,4.307355 -1.223527,-4.650754 h -0.06219 l -1.176208,4.650754 h -1.933307 l -2.203701,-6.903125 h 2.007666 l 1.27355,4.699425 h 0.04867 L 85.9335,42.283102 h 1.860301 l 1.176208,4.650754 h 0.04867 l 1.27355,-4.650754 h 1.957642 l -2.153677,6.903125 z m 5.140164,-5.924303 c 0.181509,-0.287959 0.434402,-0.524085 0.734116,-0.685446 0.293376,-0.196034 0.635423,-0.293376 1.027493,-0.405589 0.392064,-0.112213 0.734114,-0.09734 1.126184,-0.09734 l 1.07751,0.04867 c 0.3427,0.03089 0.67563,0.130681 0.97883,0.293376 0.293366,0.15818 0.538076,0.342047 0.734106,0.588104 0.19604,0.246057 0.29338,0.588104 0.29338,1.027492 v 3.573239 c 0,0.293376 0,0.588104 0.0487,0.88148 0.0487,0.293376 0.0973,0.489411 0.19603,0.635423 h -1.892736 c -0.0487,-0.09734 -0.0487,-0.196035 -0.0973,-0.342047 0,-0.09734 -0.0487,-0.243353 -0.0487,-0.342046 -0.29337,0.293376 -0.63542,0.538081 -1.07751,0.635422 -0.40559,0.135197 -0.83281,0.196035 -1.27355,0.196035 -0.342047,0 -0.635423,-0.04867 -0.930151,-0.09734 -0.293376,-0.09734 -0.538081,-0.196035 -0.734116,-0.405589 -0.196035,-0.135197 -0.405589,-0.405589 -0.489411,-0.635423 -0.121744,-0.295431 -0.188195,-0.610713 -0.196035,-0.930151 0,-0.405589 0.04867,-0.734116 0.196035,-0.978821 0.147364,-0.244706 0.293376,-0.44074 0.538082,-0.588104 0.196034,-0.135197 0.48941,-0.243354 0.734116,-0.342047 0.244705,-0.09869 0.538081,-0.135196 0.832809,-0.196035 l 0.832811,-0.09734 0.73411,-0.09734 c 0.18046,-0.04098 0.34836,-0.124921 0.48941,-0.244705 0.1352,-0.09734 0.19604,-0.243353 0.19604,-0.44074 10e-4,-0.168073 -0.0318,-0.334635 -0.0973,-0.489411 -0.0487,-0.09734 -0.1352,-0.196034 -0.24336,-0.293376 -0.13158,-0.05892 -0.2671,-0.108603 -0.40558,-0.148716 -0.1352,0 -0.29338,-0.04867 -0.48942,-0.04867 -0.40558,0 -0.68544,0.09734 -0.881475,0.243353 -0.196034,0.146012 -0.342046,0.44074 -0.405589,0.784139 h -1.908972 c 0.09734,-0.342047 0.196035,-0.734116 0.405589,-1.027492 z m 3.769273,2.693111 c -0.12611,0.06265 -0.26478,0.09592 -0.40559,0.09734 -0.1352,0.04867 -0.29337,0.04867 -0.44074,0.04867 -0.14736,0 -0.29338,0.04867 -0.44074,0.04867 -0.1352,0.04867 -0.29338,0.04867 -0.44074,0.09734 -0.147362,0.04867 -0.243351,0.09734 -0.342045,0.196035 -0.09869,0.09869 -0.196034,0.135196 -0.243353,0.293376 -0.06653,0.137258 -0.09987,0.288229 -0.09734,0.44074 0,0.135196 0.04867,0.293376 0.09734,0.44074 0.06665,0.109333 0.149112,0.20819 0.244705,0.293376 0.131587,0.05892 0.267103,0.108603 0.405593,0.148716 0.16223,0.05137 0.29337,0.04867 0.44074,0.04867 0.40558,0 0.68544,-0.04867 0.88148,-0.196034 0.19603,-0.147364 0.34204,-0.293376 0.44074,-0.44074 0.0973,-0.196035 0.13519,-0.342047 0.19603,-0.538082 0,-0.196034 0.0487,-0.342046 0.0487,-0.44074 v -0.685445 c -0.11828,0.0391 -0.23277,0.08888 -0.34205,0.148716 z M 104.427,42.28175 v 1.27355 h -1.37089 v 3.427227 c 0,0.342047 0.0487,0.538081 0.13519,0.635423 0.0865,0.09734 0.34205,0.135196 0.63542,0.135196 h 0.29338 c 0.0973,0 0.19604,0 0.29338,-0.04867 v 1.468233 c -0.1352,0.04867 -0.34205,0.04867 -0.53808,0.04867 h -0.58811 c -0.29337,0 -0.5881,0 -0.83281,-0.04867 -0.2447,-0.04867 -0.48941,-0.09734 -0.68544,-0.243354 -0.19604,-0.09734 -0.34205,-0.293376 -0.48941,-0.489411 -0.12806,-0.259002 -0.19511,-0.543882 -0.19604,-0.832809 v -4.050482 h -1.126176 v -1.27355 h 1.126176 v -2.054984 h 1.90897 v 2.054984 z m 4.21136,1.224879 c -0.29337,0 -0.53808,0.04867 -0.78414,0.196035 -0.19603,0.135196 -0.40559,0.293376 -0.48941,0.538081 -0.13519,0.196035 -0.19603,0.44074 -0.29337,0.734116 -0.0565,0.257382 -0.0891,0.519421 -0.0973,0.782787 0,0.243354 0.0487,0.489411 0.0973,0.784139 0.0487,0.243353 0.13519,0.489411 0.24335,0.685445 0.10816,0.196035 0.29338,0.405589 0.48941,0.489411 0.19604,0.135196 0.44074,0.196035 0.73412,0.196035 0.44074,0 0.78414,-0.135197 1.02749,-0.405589 0.24335,-0.270393 0.40559,-0.588104 0.44074,-1.027492 h 1.81163 c -0.1352,0.93015 -0.48941,1.615596 -1.07751,2.105007 -0.58811,0.48941 -1.32222,0.734116 -2.25238,0.734116 -0.48355,-0.0014 -0.96343,-0.08413 -1.41956,-0.244706 -0.44074,-0.196034 -0.78414,-0.405589 -1.07751,-0.734116 -0.31172,-0.317941 -0.54624,-0.703245 -0.68545,-1.126185 -0.16057,-0.456123 -0.2433,-0.936002 -0.2447,-1.419562 0.001,-0.49932 0.0837,-0.995115 0.24335,-1.468232 0.14601,-0.44074 0.40559,-0.832809 0.68545,-1.176208 0.27985,-0.343399 0.68544,-0.588104 1.12618,-0.784139 0.44074,-0.196035 0.93015,-0.293376 1.51826,-0.293376 0.39618,7.17e-4 0.79076,0.05021 1.17485,0.147364 0.40559,0.09734 0.73412,0.243354 1.02749,0.489411 0.29338,0.196035 0.53809,0.489411 0.73412,0.832809 0.19604,0.343399 0.29338,0.685446 0.34205,1.176208 h -1.86842 c -0.13519,-0.832809 -0.63542,-1.223526 -1.41956,-1.223526 z m 6.26636,-3.866615 v 3.573239 h 0.0487 c 0.24335,-0.405589 0.53808,-0.685445 0.93015,-0.88148 0.39207,-0.196035 0.73412,-0.293376 1.07752,-0.293376 0.48941,0 0.93015,0.04867 1.22352,0.196035 0.30678,0.126151 0.57622,0.328586 0.78279,0.588104 0.19603,0.243353 0.29338,0.538081 0.40559,0.88148 0.11221,0.343399 0.0973,0.734116 0.0973,1.176208 v 4.258685 h -1.90897 v -3.920694 c 0,-0.588104 -0.0973,-0.978822 -0.24336,-1.27355 -0.14601,-0.294728 -0.48941,-0.44074 -0.93015,-0.44074 -0.53808,0 -0.88148,0.135197 -1.12618,0.44074 -0.24471,0.305544 -0.34205,0.83281 -0.34205,1.518255 v 3.623262 h -1.90897 v -9.544861 h 1.90898 z"
     fill="#779d3f"
     id="path22"
     sodipodi:nodetypes="cccccscccscccccccsccccsscccccccccccccccccsccssscccccccccccccssscccccsscsscccccssssssccsssssccccccsccsscccscccccccccccssccccccssccccccccccccccccccccccccscccsssscccccsccccscsccccccccssccccccscsscccccssccsccccccssssccssscccccccccccccccccscssccsccccccsscccscccccccssccssccsssssccccc"
     style="stroke-width:1.35196" />
  <path
     d="m 59.496265,25.60507 3.57324,9.544861 h -2.153678 l -0.734116,-2.105007 h -3.573239 l -0.734116,2.105007 H 53.720678 L 57.34394,25.60507 Z m 0.09734,5.813442 -1.223527,-3.474545 h -0.04867 l -1.223527,3.474545 z m 5.925655,-3.183873 v 0.930151 c 0.243354,-0.342047 0.538082,-0.635423 0.88148,-0.83281 0.343399,-0.197387 0.734116,-0.293376 1.223527,-0.293376 0.404217,5.16e-4 0.804048,0.0838 1.174856,0.244705 0.342047,0.135197 0.635423,0.489411 0.83281,0.881481 0.215138,-0.320652 0.499798,-0.588676 0.832809,-0.784139 0.343399,-0.196035 0.784139,-0.342047 1.223527,-0.342047 0.346772,0.0024 0.691906,0.04779 1.027492,0.135196 0.342047,0.08653 0.588104,0.243354 0.784139,0.44074 0.243353,0.196035 0.405589,0.44074 0.538081,0.784139 0.132493,0.343399 0.196035,0.685446 0.196035,1.126186 v 4.602083 H 72.373714 V 31.21031 c 0,-0.243353 0,-0.44074 -0.04867,-0.635423 -0.04867,-0.194682 -0.04867,-0.405589 -0.135197,-0.538081 -0.08652,-0.132493 -0.196034,-0.293376 -0.342046,-0.342047 -0.135197,-0.09734 -0.342047,-0.135196 -0.635423,-0.135196 -0.293376,0 -0.489411,0.04867 -0.635423,0.135196 -0.154113,0.104953 -0.287114,0.237958 -0.392069,0.39207 -0.09734,0.135196 -0.135197,0.342046 -0.196035,0.538081 -0.06084,0.196035 -0.04867,0.44074 -0.04867,0.635423 v 3.805777 h -1.926547 v -4.45472 c 0,-0.196034 -0.04867,-0.405589 -0.09734,-0.538081 -0.04867,-0.132493 -0.196035,-0.293376 -0.342047,-0.405589 -0.146012,-0.112213 -0.405589,-0.135196 -0.685445,-0.135196 -0.09734,0 -0.196035,0 -0.342047,0.04867 -0.146012,0.04867 -0.293376,0.09734 -0.44074,0.243354 -0.135196,0.09734 -0.243353,0.293376 -0.342046,0.48941 -0.09869,0.196035 -0.135197,0.489411 -0.135197,0.83281 v 4.015331 h -1.908973 v -6.903125 h 1.811631 z m 10.477716,0.993693 c 0.181509,-0.287958 0.434402,-0.524085 0.734116,-0.685446 0.293376,-0.196034 0.635423,-0.293376 1.027492,-0.405589 0.39207,-0.112213 0.734116,-0.09734 1.126186,-0.09734 l 1.077515,0.04867 c 0.342046,0.04867 0.685445,0.135196 0.978821,0.293376 0.293376,0.158179 0.538082,0.342046 0.734116,0.588104 0.196035,0.246057 0.293376,0.588104 0.293376,1.027492 v 3.573239 c 0,0.293376 0,0.588104 0.04867,0.88148 0.04867,0.293376 0.09734,0.489411 0.196035,0.635423 h -1.910325 c -0.04867,-0.09734 -0.04867,-0.196035 -0.09734,-0.342047 0,-0.09734 -0.04867,-0.243353 -0.04867,-0.342047 -0.293376,0.293377 -0.635422,0.538082 -1.077514,0.635423 -0.442092,0.09734 -0.83281,0.196035 -1.27355,0.196035 -0.342047,0 -0.635423,-0.04867 -0.930151,-0.09734 -0.293376,-0.09734 -0.538081,-0.196035 -0.734116,-0.405589 -0.196034,-0.135197 -0.405589,-0.405589 -0.489411,-0.635423 -0.121744,-0.295431 -0.188194,-0.610712 -0.196034,-0.930151 0,-0.405589 0.04867,-0.734116 0.196034,-0.978821 0.147364,-0.244706 0.293377,-0.44074 0.538082,-0.588105 0.196035,-0.135196 0.489411,-0.243353 0.734116,-0.342046 0.244705,-0.09869 0.538081,-0.135197 0.832809,-0.196035 l 0.83281,-0.09734 0.734116,-0.09734 c 0.18046,-0.04098 0.348356,-0.124921 0.489411,-0.244705 0.135196,-0.09734 0.196034,-0.243353 0.196034,-0.44074 0.0013,-0.168073 -0.0318,-0.334635 -0.09734,-0.489411 -0.04867,-0.09734 -0.135196,-0.196034 -0.243353,-0.293376 -0.131587,-0.05892 -0.267109,-0.108603 -0.405589,-0.148716 -0.135197,0 -0.293376,-0.04867 -0.489411,-0.04867 -0.405589,0 -0.685446,0.09734 -0.88148,0.243353 -0.196035,0.146012 -0.342047,0.44074 -0.405589,0.784139 h -1.908973 c 0.09734,-0.342047 0.196035,-0.734116 0.40559,-1.027492 z m 3.769274,2.693111 c -0.126111,0.06264 -0.264778,0.09592 -0.405589,0.09734 -0.135196,0.04867 -0.293376,0.04867 -0.44074,0.04867 -0.147364,0 -0.293376,0.04867 -0.44074,0.04867 -0.135196,0.04867 -0.293376,0.04867 -0.44074,0.09734 -0.147364,0.04867 -0.243354,0.09734 -0.342047,0.196035 -0.09869,0.09869 -0.196035,0.135196 -0.243353,0.293376 -0.06653,0.137258 -0.09987,0.288229 -0.09734,0.44074 0,0.135196 0.04867,0.293376 0.09734,0.44074 0.04867,0.09734 0.135196,0.196034 0.243353,0.293376 0.131587,0.05892 0.267109,0.108603 0.405589,0.148716 0.162236,0.05137 0.293376,0.04867 0.44074,0.04867 0.405589,0 0.685446,-0.04867 0.88148,-0.196034 0.196035,-0.147364 0.342047,-0.293376 0.44074,-0.44074 0.09734,-0.196035 0.135197,-0.342047 0.196035,-0.538082 0,-0.196034 0.04867,-0.342046 0.04867,-0.44074 v -0.685445 c -0.118284,0.0391 -0.232775,0.08888 -0.342047,0.148716 z m 6.805783,-2.252371 H 83.2435 V 28.24951 h 5.813442 v 1.419562 l -3.573239,4.064002 h 3.819296 v 1.419561 h -6.313666 v -1.419561 z m 3.816593,0.538081 c 0.14383,-0.432258 0.396673,-0.820135 0.734116,-1.126185 0.293376,-0.293376 0.685446,-0.538082 1.126186,-0.734116 0.44074,-0.196035 0.93015,-0.243354 1.468232,-0.243354 0.49932,0.0015 0.995115,0.08371 1.468232,0.243354 0.44074,0.196034 0.832809,0.44074 1.126185,0.734116 0.293376,0.293376 0.538082,0.685445 0.734117,1.126185 0.164527,0.48918 0.247206,1.002155 0.244705,1.518255 0,0.538082 -0.09734,1.027492 -0.243353,1.518255 -0.14383,0.432259 -0.396673,0.820136 -0.734117,1.126185 -0.293376,0.293376 -0.685445,0.538082 -1.126185,0.734117 -0.44074,0.135196 -0.930151,0.243353 -1.468232,0.243353 -0.499321,-0.0015 -0.995116,-0.08371 -1.468232,-0.243353 -0.432798,-0.142711 -0.820942,-0.395727 -1.126186,-0.734117 -0.293376,-0.328527 -0.538081,-0.685445 -0.734116,-1.126185 -0.164527,-0.489178 -0.247207,-1.002155 -0.244705,-1.518255 -0.05105,-0.518729 0.03327,-1.041831 0.244705,-1.518255 z m 1.712938,2.301042 c 0.0464,0.247213 0.146556,0.481211 0.293376,0.685445 0.135196,0.196035 0.293376,0.405589 0.48941,0.489411 0.196035,0.135196 0.489411,0.196035 0.784139,0.196035 0.342047,0 0.588104,-0.04867 0.784139,-0.196035 0.196035,-0.147364 0.405589,-0.293376 0.538081,-0.489411 0.132493,-0.196034 0.196035,-0.44074 0.293376,-0.685445 0.05644,-0.257382 0.08903,-0.51942 0.09734,-0.782787 0,-0.293376 -0.04867,-0.538081 -0.09734,-0.832809 -0.0464,-0.247212 -0.146557,-0.48121 -0.293376,-0.685446 -0.135196,-0.196034 -0.293376,-0.405589 -0.538081,-0.48941 -0.196035,-0.135197 -0.489411,-0.196035 -0.784139,-0.196035 -0.342047,0 -0.588104,0.04867 -0.784139,0.196035 -0.196034,0.147364 -0.405589,0.293376 -0.48941,0.48941 -0.135197,0.196035 -0.196035,0.44074 -0.293376,0.685446 -0.09734,0.244705 -0.09734,0.538081 -0.09734,0.832809 0,0.243353 0.04867,0.489411 0.09734,0.784139 z m 8.176676,-4.258685 v 0.978822 h 0.0487 c 0.24335,-0.405589 0.53808,-0.685446 0.93015,-0.88148 0.3636,-0.188774 0.76654,-0.289279 1.17621,-0.293376 0.48941,0 0.93015,0.04867 1.22352,0.196034 0.30677,0.126152 0.57622,0.328587 0.78279,0.588104 0.19603,0.243354 0.29338,0.538082 0.40559,0.88148 0.11222,0.343399 0.0973,0.734117 0.0973,1.176209 v 4.258684 h -1.90897 v -3.916638 c 0,-0.588104 -0.0973,-0.978821 -0.24336,-1.273549 -0.19603,-0.293376 -0.48941,-0.44074 -0.93015,-0.44074 -0.53808,0 -0.88148,0.135196 -1.12618,0.44074 -0.24471,0.305544 -0.34205,0.832809 -0.34205,1.518255 v 3.623261 h -1.908971 v -6.895013 h 1.811631 z"
     fill="#779d3f"
     id="path22-3"
     sodipodi:nodetypes="ccccccccccccccccscccccccssccssscsccssccssssscsscccccccsccsssssccccssccccscsccccccccssccccccscsscccccssccsccccccccccccccccsccscccccccccccccccssscccccsscsscccccccccssccscsssccccc"
     style="stroke-width:1.35196" />
</svg>
