<?xml version="1.0" encoding="UTF-8" standalone="no"?>
<svg
   xmlns:dc="http://purl.org/dc/elements/1.1/"
   xmlns:cc="http://creativecommons.org/ns#"
   xmlns:rdf="http://www.w3.org/1999/02/22-rdf-syntax-ns#"
   xmlns:svg="http://www.w3.org/2000/svg"
   xmlns="http://www.w3.org/2000/svg"
   xmlns:sodipodi="http://sodipodi.sourceforge.net/DTD/sodipodi-0.dtd"
   xmlns:inkscape="http://www.inkscape.org/namespaces/inkscape"
   version="1.1"
   x="0"
   y="0"
   width="64"
   height="64"
   viewBox="0 0 64 64"
   id="svg37"
   sodipodi:docname="keycdn-icon.svg"
   inkscape:version="0.92.3 (2405546, 2018-03-11)">
  <metadata
     id="metadata41">
    <rdf:RDF>
      <cc:Work
         rdf:about="">
        <dc:format>image/svg+xml</dc:format>
        <dc:type
           rdf:resource="http://purl.org/dc/dcmitype/StillImage" />
        <dc:title></dc:title>
      </cc:Work>
    </rdf:RDF>
  </metadata>
  <sodipodi:namedview
     pagecolor="#ffffff"
     bordercolor="#666666"
     borderopacity="1"
     objecttolerance="10"
     gridtolerance="10"
     guidetolerance="10"
     inkscape:pageopacity="0"
     inkscape:pageshadow="2"
     inkscape:window-width="1920"
     inkscape:window-height="1001"
     id="namedview39"
     showgrid="false"
     inkscape:zoom="3.4866792"
     inkscape:cx="-7.7367641"
     inkscape:cy="0.36146649"
     inkscape:window-x="-9"
     inkscape:window-y="-9"
     inkscape:window-maximized="1"
     inkscape:current-layer="svg37" />
  <defs
     id="defs15">
    <linearGradient
       id="Gradient_1"
       gradientUnits="userSpaceOnUse"
       x1="327.10999"
       y1="139.802"
       x2="335.30099"
       y2="504.74899"
       gradientTransform="matrix(0.05,0,0,0.05,5.4493111,13.086096)">
      <stop
         offset="0"
         stop-color="#009FE6"
         id="stop5" />
      <stop
         offset="1"
         stop-color="#006DB7"
         id="stop7" />
    </linearGradient>
    <linearGradient
       id="Gradient_2"
       gradientUnits="userSpaceOnUse"
       x1="1022.205"
       y1="145.843"
       x2="1040.927"
       y2="594.69"
       gradientTransform="matrix(0.05,0,0,0.05,5.4493111,13.086096)">
      <stop
         offset="0"
         stop-color="#009FE6"
         id="stop10" />
      <stop
         offset="1"
         stop-color="#006DB7"
         id="stop12" />
    </linearGradient>
  </defs>
  <g
     id="g17"
     transform="translate(0,-576)" />
  <rect
     id="rect2"
     height="32"
     width="110"
     y="17.086096"
     x="5.9288206"
     style="fill:#000000;fill-opacity:0;stroke-width:0.05" />
  <g
     id="g893"
     transform="matrix(1.9336107,0,0,1.9336107,-10.826888,-24.261344)">
    <path
       style="fill:#5b5b5b;stroke-width:0.05"
       inkscape:connector-curvature="0"
       d="m 35.599461,13.156896 c 1.7113,0 3.09855,1.38725 3.09855,3.09855 0,1.7113 -1.38725,3.0986 -3.09855,3.0986 -0.3293,0.0037 -0.65335,-0.05695 -0.9666,-0.15435 l -9e-4,0.0034 -0.04745,-0.01665 -4.2055,3.9923 -0.1421,-0.18955 c -0.22505,-0.29615 -0.47385,-0.59235 -0.7345,-0.86485 l -0.0474,-0.0592 -0.1303,-0.1303 -0.02365,-0.0237 -0.08295,-0.08295 -0.02375,-0.02365 -0.1066,-0.1066 -0.08285,-0.0711 -0.08295,-0.0711 -0.1066,-0.09475 -0.083,-0.0711 -0.1066,-0.0948 c -1.7888,-1.50445 -4.02775,-2.3574 -6.3733,-2.41665 -1.9547,-0.04735 -3.86195,0.43835 -5.52045,1.43345 l -1.3505,-1.40975 c 2.06125,-1.3268 4.4542,-1.9902 6.9183,-1.93095 2.77205,0.07105 5.41375,1.06615 7.53435,2.85495 h 0.02365 l 2.785,-2.64395 c -0.09815,-0.29905 -0.13795,-0.613 -0.14195,-0.92675 0,-1.7113 1.3873,-3.09855 3.0986,-3.09855 z"
       id="path25" />
    <g
       id="g885">
      <path
         id="path19"
         d="m 8.7778611,38.839946 c 0.3111,0.0129 0.6265,0.05655 0.9204,0.1642 l -5e-5,-0.0027 0.0444,0.01595 3.8737499,-3.779 0.14215,0.18955 c 0.20145,0.27245 0.41465,0.52125 0.6397,0.77005 l 0.08295,0.09475 c 0.05925,0.0592 0.1066,0.11845 0.16585,0.1777 l 0.09475,0.0948 0.0948,0.09475 0.0829,0.08295 0.0948,0.09475 0.0829,0.08295 0.10665,0.09475 0.09475,0.08295 c 1.8007,1.52815 4.0515,2.3929 6.4208,2.45215 1.95465,0.0474 3.86185,-0.45015 5.53225,-1.4334 l 0.29615,0.308 c 0.3435,0.36725 0.6989,0.7345 1.0425,1.10175 -2.0613,1.32675 -4.45425,1.99015 -6.91835,1.93095 -2.77205,-0.0711 -5.41375,-1.0662 -7.53425,-2.84315 l 0.01175,-0.0237 -2.4855,2.45005 c 0.09205,0.28975 0.1287,0.5935 0.13255,0.89655 0,1.7113 -1.38725,3.0986 -3.0985499,3.0986 -1.7113,0 -3.0986,-1.3873 -3.0986,-3.0986 0,-1.7113 1.3873,-3.09855 3.0986,-3.09855 z"
         inkscape:connector-curvature="0"
         style="fill:#5b5b5b;stroke-width:0.05" />
      <path
         id="path21"
         d="m 32.464011,22.858846 c 1.22025,2.00205 1.82435,4.3121 1.7651,6.65775 -0.071,2.86675 -1.14905,5.6033 -3.0445,7.7475 l 0.0119,0.0119 1.52815,1.6229 c 0.61595,-0.0829 1.232,0.1303 1.6585,0.58045 0.72265,0.77005 0.6989,1.9784 -0.0711,2.7129 -0.77,0.7226 -1.97835,0.6989 -2.7128,-0.0711 -0.4265,-0.4502 -0.6042,-1.07805 -0.48575,-1.6822 -0.71075,-0.7582 -1.9665,-2.0968 -2.68915,-2.855 l -0.15395,-0.16585 0.1777,-0.1421 c 0.46195,-0.36725 0.88845,-0.77005 1.27935,-1.22025 1.623,-1.82435 2.5352,-4.14625 2.59445,-6.5866 0.04735,-1.848 -0.391,-3.66055 -1.27945,-5.2598 z"
         inkscape:connector-curvature="0"
         style="fill:#5b5b5b;stroke-width:0.05" />
      <path
         id="path23"
         d="m 10.878261,15.617696 c 0.5446,-0.0081 1.055,0.20685 1.435,0.5953 0.42645,0.4502 0.60415,1.07805 0.4857,1.68225 l 2.93795,3.08005 -0.1777,0.1421 c -0.46205,0.36725 -0.8885,0.77005 -1.27945,1.22025 -1.6229,1.8243 -2.5351,4.14625 -2.6062,6.5866 -0.0474,1.848 0.39095,3.66055 1.27945,5.27165 l -1.4098,1.37415 c -1.232,-2.0139 -1.8479499,-4.32395 -1.7769499,-6.6932 0.06115,-2.852 1.1727999,-5.60685 3.0391499,-7.7532 l -1.6176,-1.6884 c -0.61595,0.0829 -1.2319999,-0.1303 -1.6584999,-0.58045 -0.72255,-0.77 -0.6989,-1.9784 0.0711,-2.71285 0.2997,-0.28115 0.6859999,-0.4625 1.0943499,-0.5112 0.0609,-0.0073 0.1223,-0.0087 0.1835,-0.01305 z"
         inkscape:connector-curvature="0"
         style="fill:#5b5b5b;stroke-width:0.05" />
      <path
         id="path27"
         d="m 22.094111,20.073896 c 0.3501,0.0015 0.6993,0.0286 1.0468,0.0692 4.99915,0.62785 8.5412,5.1887 7.92525,10.1879 -0.6279,4.99915 -5.18875,8.54125 -10.1879,7.92525 -4.99925,-0.6279 -8.5413,-5.18875 -7.92525,-10.1879 0.59635,-4.6375 4.49285,-7.97825 9.1411,-7.99445 z m -0.13745,3.9152 c -2.02375,0.16195 -3.4882,1.69285 -3.5396,3.7268 0.03665,1.4508 0.77965,2.67545 2.0753,3.34275 l -0.7041,3.3108 h 4.7208 l -0.70315,-3.31135 c 1.2883,-0.6997 2.0539,-1.85695 2.0744,-3.3422 -0.02745,-2.099 -1.65175,-3.67905 -3.73165,-3.73165 z m 0.07065,-0.01965 h -0.0118 l 0.0059,10e-5 z"
         inkscape:connector-curvature="0"
         style="fill:url(#Gradient_1);stroke-width:0.05" />
    </g>
  </g>
</svg>
