<svg xmlns="http://www.w3.org/2000/svg" width="120" height="60"><path d="M31.288 46.55v6.23C41.25 47.15 60.15 38.735 88.71 36.395V35.05c-20.992 1.15-40.82 5.07-57.423 11.5" fill="#ffd401"/><path d="M31.288 55.075v4.278c14.216-10.545 35.036-17.802 57.423-20.2v-1.298c-22.122 2-41.564 7.975-57.423 17.22" fill="#b00b1c"/><path d="M63.055 20.828c-.597 0-.965-.045-1.148-.082v-4.168c0-.77.03-1.486.1-1.98a5.68 5.68 0 0 1 1.342-.178c2.276 0 3.278.962 3.278 3.06 0 2.914-2.2 3.327-3.572 3.347m4.13 5.547c0 2.864-1.598 4.034-4.005 4.034-.5 0-.975-.057-1.275-.145v-8.06h1.06c3.036 0 4.22 1.542 4.22 4.17m-.964-5.113c2.164-.607 3.984-2.152 3.984-4.497 0-2.25-1.464-3.762-4.46-3.762l-4.524.146a77.07 77.07 0 0 1-4.18-.096l-.098-.013v1.045l.1.007c1.3.098 1.395.348 1.395 2.448v12.414c0 1.1-.145 1.653-1.16 1.733l-.3.024v1.027l3.605-.105 2.4.085c5.987.265 7.936-3.138 7.936-5.873 0-3.268-2.402-4.1-4.694-4.556zM47.5 29.215c-1.187.738-2.57 1.048-4.132 1.048-4.226 0-6.326-3.255-6.326-8.417 0-4.547 2.013-7.552 5.87-7.552 1.314 0 2.376.467 3.078 1.13.116.424.272 2.64.272 2.64l1.078.004v-.08c.01-.96.278-3.193.48-4.316l.008-.086-.08-.004c-1.514-.403-3.056-.743-5.1-.743-4.65 0-9.395 2.813-9.395 9.327 0 6.83 4.166 9.794 9.2 9.794 1.377 0 3.204-.2 4.68-1.018l.023-.01.715-1.36-.3-.393-.06.037m38.856-.001c-1.184.738-2.565 1.048-4.133 1.048-4.223 0-6.323-3.255-6.323-8.417 0-4.547 2.013-7.552 5.868-7.552 1.315 0 2.377.467 3.08 1.13.113.424.27 2.64.27 2.64l1.083.004-.006-.08c.012-.96.277-3.193.48-4.316l.01-.086-.08-.004c-1.518-.403-3.06-.743-5.115-.743-4.647 0-9.4 2.813-9.4 9.327 0 6.83 4.166 9.794 9.194 9.794 1.372 0 3.204-.2 4.68-1.018l.02-.01.716-1.36-.3-.393-.062.037M52.362 13.148c-1.087 0-2.3-.014-3.347-.1l-.082-.008v1.036l.072.004c1.36.086 1.537.308 1.537 2.66v11.788c0 1.8-.088 2.08-1.472 2.168l-.074.008v1.035l.083-.01c1.045-.1 2.15-.108 3.234-.108l3.2.108.082.01v-1.035l-.07-.008c-1.38-.1-1.46-.366-1.46-2.168V16.74c0-2.4.086-2.575 1.454-2.66l.07-.004V13.04l-.083.008-3.157.1" fill="#ffd401"/></svg>