<?xml version="1.0" encoding="UTF-8" standalone="no"?>
<svg
   xmlns:dc="http://purl.org/dc/elements/1.1/"
   xmlns:cc="http://creativecommons.org/ns#"
   xmlns:rdf="http://www.w3.org/1999/02/22-rdf-syntax-ns#"
   xmlns:svg="http://www.w3.org/2000/svg"
   xmlns="http://www.w3.org/2000/svg"
   xmlns:sodipodi="http://sodipodi.sourceforge.net/DTD/sodipodi-0.dtd"
   xmlns:inkscape="http://www.inkscape.org/namespaces/inkscape"
   width="120"
   height="60"
   viewBox="0 0 120 60"
   version="1.1"
   id="svg21"
   sodipodi:docname="drift-ar21.svg"
   inkscape:version="0.92.4 (5da689c313, 2019-01-14)">
  <metadata
     id="metadata25">
    <rdf:RDF>
      <cc:Work
         rdf:about="">
        <dc:format>image/svg+xml</dc:format>
        <dc:type
           rdf:resource="http://purl.org/dc/dcmitype/StillImage" />
        <dc:title>logo</dc:title>
      </cc:Work>
    </rdf:RDF>
  </metadata>
  <sodipodi:namedview
     pagecolor="#ffffff"
     bordercolor="#666666"
     borderopacity="1"
     objecttolerance="10"
     gridtolerance="10"
     guidetolerance="10"
     inkscape:pageopacity="0"
     inkscape:pageshadow="2"
     inkscape:window-width="1920"
     inkscape:window-height="1001"
     id="namedview23"
     showgrid="false"
     inkscape:zoom="3.39"
     inkscape:cx="53.539823"
     inkscape:cy="20"
     inkscape:window-x="-9"
     inkscape:window-y="-9"
     inkscape:window-maximized="1"
     inkscape:current-layer="svg21" />
  <!-- Generator: Sketch 47.1 (45422) - http://www.bohemiancoding.com/sketch -->
  <title
     id="title2">logo</title>
  <desc
     id="desc4">Created with Sketch.</desc>
  <defs
     id="defs6" />
  <g
     id="g85"
     transform="translate(10.021633,-9.8548698)">
    <g
       transform="translate(0,20)"
       id="g75">
      <path
         style="fill:#222222;fill-rule:evenodd;stroke:none;stroke-width:1"
         inkscape:connector-curvature="0"
         id="Combined-Shape"
         d="m 39.563014,19.85487 c 0,10.944478 -8.856546,19.81698 -19.781342,19.81698 C 8.856877,39.67185 3.306567e-4,30.799348 3.306567e-4,19.85487 3.306567e-4,8.910392 8.856877,0.0378895 19.781672,0.0378895 c 10.924796,0 19.781342,8.8725025 19.781342,19.8169805 z m -7.241509,-5.266693 c -0.258257,-0.150829 -0.576956,-0.150829 -0.835213,0 l -10.668737,6.226936 c -0.259355,0.15193 -0.417606,0.430469 -0.417606,0.732127 v 3.283013 c 0,0.301659 0.158251,0.580197 0.417606,0.731027 0.256059,0.149728 0.570362,0.149728 0.82752,0.0033 0.0022,-0.0011 0.0044,-0.0022 0.0077,-0.0033 l 3.510089,-2.049957 v 7.611922 c 0,0.301659 0.158251,0.580198 0.416507,0.731027 0.129678,0.07486 0.273642,0.113397 0.417606,0.113397 0.143964,0 0.287928,-0.03853 0.417606,-0.113397 l 2.097921,-1.224249 c 0.258257,-0.15083 0.417607,-0.430469 0.417607,-0.731027 v -8.587358 l 3.391401,-1.980597 c 0.258256,-0.150829 0.417606,-0.429368 0.417606,-0.731026 v -3.280811 c 0,-0.301659 -0.15935,-0.580198 -0.417606,-0.731027 z m -11.50395,-1.989625 3.362829,1.962982 c 0.01758,0.01101 0.02857,0.02973 0.02857,0.04954 v 2.437488 c 0,0.257621 0.27474,0.41946 0.496731,0.289548 1.306668,-0.760752 4.822252,-2.809607 6.117929,-3.562652 0.218694,-0.126609 0.215397,-0.441479 -0.0033,-0.569188 L 21.652768,7.8556883 c -0.258257,-0.1508293 -0.576956,-0.1508293 -0.835213,0 -0.259355,0.1508292 -0.417606,0.4293679 -0.417606,0.7310264 v 3.2808113 c 0,0.301658 0.158251,0.580197 0.417606,0.731026 z M 18.926349,7.8552479 c -0.258256,-0.1508292 -0.576956,-0.1508292 -0.835212,0 L 8.9191882,13.209135 c -0.2164958,0.126609 -0.2208916,0.437075 -0.0044,0.563683 1.2945788,0.751945 4.8332418,2.814012 6.1333148,3.571461 0.217595,0.126608 0.486841,-0.03193 0.486841,-0.285145 v -2.480425 l 3.226557,-1.883714 c 0.36046,-0.211381 0.58245,-0.597812 0.58245,-1.01507 V 8.5862743 c 0,-0.3016585 -0.159349,-0.5801972 -0.417606,-0.7310264 z M 18.746009,20.815443 8.0761734,14.588507 c -0.2571575,-0.150829 -0.5758569,-0.150829 -0.8341133,0 -0.2582564,0.15083 -0.4176061,0.428267 -0.4176061,0.729926 v 3.281912 c 0,0.301658 0.1593497,0.580197 0.4176061,0.731026 l 3.3914009,1.979496 v 8.58846 c 0,0.300557 0.158251,0.579096 0.416507,0.729925 l 2.099021,1.22535 c 0.129677,0.07486 0.273642,0.113397 0.417606,0.113397 0.143964,0 0.287928,-0.03853 0.417606,-0.113397 0.257157,-0.150829 0.416507,-0.429368 0.416507,-0.731026 v -7.611923 l 3.510089,2.049957 c 0.0033,0.0011 0.0055,0.0022 0.0077,0.0033 0.257157,0.146425 0.571461,0.145324 0.827519,-0.0033 0.258257,-0.150829 0.417606,-0.429368 0.417606,-0.731027 v -3.284114 c 0,-0.300557 -0.159349,-0.580197 -0.417606,-0.731026 z" />
    </g>
    <g
       transform="translate(0,20)"
       id="g72">
      <path
         style="fill:#222222;fill-rule:evenodd;stroke:none;stroke-width:1"
         inkscape:connector-curvature="0"
         id="Fill-19"
         d="m 50.842445,25.324907 c 2.981488,0 4.906872,-2.351615 4.906872,-5.364897 0,-2.984657 -1.925384,-5.337373 -4.906872,-5.337373 h -2.769388 v 10.70227 z M 43.958538,11.240539 c 0,-0.264227 0.211001,-0.50203 0.474752,-0.50203 h 6.43553 c 5.090399,0 9.258767,4.148354 9.258767,9.221501 0,5.127093 -4.168368,9.275448 -9.258767,9.275448 h -6.43553 c -0.263751,0 -0.474752,-0.237804 -0.474752,-0.50203 z" />
      <path
         style="fill:#222222;fill-rule:evenodd;stroke:none;stroke-width:1"
         inkscape:connector-curvature="0"
         id="Fill-21"
         d="m 62.368704,17.608615 c 0,-0.343494 0.263751,-0.581298 0.579153,-0.581298 h 1.267105 c 0.3176,0 0.474752,0.158536 0.553878,0.369917 l 0.553877,1.347555 c 0.527503,-0.977638 1.450632,-1.981698 3.033139,-1.981698 1.108854,0 1.926483,0.290649 2.373761,0.634143 0.2121,0.158536 0.2121,0.422762 0.08022,0.660566 l -1.214355,2.40446 c -0.130777,0.238905 -0.341778,0.423864 -0.685753,0.290649 -0.211001,-0.07927 -0.658279,-0.184958 -0.92313,-0.184958 -0.923129,0 -1.608882,0.661667 -1.608882,1.69215 v 6.394279 c 0,0.369917 -0.211001,0.581298 -0.658279,0.581298 h -2.771586 c -0.315402,0 -0.579153,-0.264226 -0.579153,-0.581298 z" />
      <path
         style="fill:#222222;fill-rule:evenodd;stroke:none;stroke-width:1"
         inkscape:connector-curvature="0"
         id="Fill-23"
         d="m 73.216242,17.608615 c 0,-0.343494 0.262652,-0.581298 0.579154,-0.581298 h 2.848513 c 0.3176,0 0.580252,0.237804 0.580252,0.581298 V 28.65438 c 0,0.317072 -0.262652,0.581298 -0.580252,0.581298 h -2.848513 c -0.316502,0 -0.579154,-0.264226 -0.579154,-0.581298 z m -0.291226,-4.544694 c 0,-1.268287 1.002255,-2.325192 2.268261,-2.325192 1.266006,0 2.295735,1.056905 2.295735,2.325192 0,1.241864 -1.029729,2.272347 -2.295735,2.272347 -1.266006,0 -2.268261,-1.030483 -2.268261,-2.272347 z" />
      <path
         style="fill:#222222;fill-rule:evenodd;stroke:none;stroke-width:1"
         inkscape:connector-curvature="0"
         id="Fill-25"
         d="M 81.027015,20.647549 H 79.97201 c -0.342877,0 -0.580253,-0.264226 -0.580253,-0.581298 v -2.457306 c 0,-0.343494 0.237376,-0.581298 0.580253,-0.581298 h 1.055005 v -1.00406 c 0,-3.277508 1.714383,-5.549855 5.248649,-5.549855 1.582507,0 3.192489,0.660566 3.719991,1.162596 0.184626,0.133214 0.236277,0.450286 0.105501,0.686988 l -1.292381,2.272348 c -0.132975,0.212482 -0.423101,0.291749 -0.660477,0.158535 -0.395627,-0.236702 -0.974781,-0.474506 -1.582508,-0.474506 -1.371506,0 -1.530856,0.766256 -1.530856,1.743894 v 1.00406 h 3.061712 c 0.315403,0 0.579154,0.237804 0.579154,0.581298 v 2.457306 c 0,0.317072 -0.263751,0.581298 -0.579154,0.581298 h -3.061712 v 8.007161 c 0,0.317072 -0.289027,0.581298 -0.60443,0.581298 h -2.823237 c -0.290126,0 -0.580252,-0.264226 -0.580252,-0.581298 z" />
      <path
         style="fill:#222222;fill-rule:evenodd;stroke:none;stroke-width:1"
         inkscape:connector-curvature="0"
         id="Fill-27"
         d="m 92.389857,20.35668 h -1.002255 c -0.290126,0 -0.528601,-0.264226 -0.528601,-0.581298 v -2.457306 c 0,-0.343494 0.238475,-0.581298 0.528601,-0.581298 h 1.002255 V 13.35468 c 0,-0.317072 0.263751,-0.582399 0.580253,-0.582399 h 2.901263 c 0.291225,0 0.527503,0.265327 0.527503,0.582399 v 3.382098 h 2.453985 c 0.315402,0 0.579154,0.237804 0.579154,0.581298 v 2.457306 c 0,0.317072 -0.263752,0.581298 -0.579154,0.581298 h -2.453985 v 4.254045 c 0,0.582399 0.290126,0.845524 0.818727,0.845524 0.420903,0 1.212157,-0.184958 1.503382,-0.263125 0.316502,-0.08037 0.605529,0.05174 0.685753,0.369917 l 0.527503,2.29877 c 0.07913,0.369917 -0.05385,0.528453 -0.395627,0.686988 -0.817629,0.343495 -2.189135,0.686989 -3.482615,0.686989 -2.319912,0 -3.666142,-1.479668 -3.666142,-4.254045 z" />
    </g>
  </g>
</svg>
