<svg xmlns="http://www.w3.org/2000/svg" width="64" height="64">
    <circle cx="32" cy="32" r="32" fill="#039" style="stroke-width:2"/>
    <path fill="#fff" d="M29.706 52.616v-21.67h-3.044V24.34h11.5v28.276h-8.454M38.8 14.54a5.6 5.6 0 0 1-.394 2.072 5.1 5.1 0 0 1-1.128 1.68 5.2 5.2 0 0 1-1.634 1.176q-.96.391-2.028.392-1.127 0-2.086-.392-.901-.449-1.58-1.176a5.6 5.6 0 0 1-1.07-1.68 5.6 5.6 0 0 1-.394-2.072 5.04 5.04 0 0 1 1.466-3.64q1.464-1.568 3.72-1.568 1.072 0 1.972.448.96.39 1.634 1.12a5.1 5.1 0 0 1 1.128 1.68c.26.6.394 1.25.394 1.96" style="stroke-width:2"/>
</svg>
