<svg xmlns="http://www.w3.org/2000/svg" width="120" height="60"><g transform="matrix(.134739 0 0 .134739 9.473036 16.054558)"><path d="M0 .373h206.254v206.254H0z" fill="#eb0a1e"/><path d="M692.845 109.932l11.572-30.343 11.554 30.343zm23.582-47.573h-24.03l-33.58 82.275h20.818l7.648-20.078h34.258l7.65 20.078H750zm-169.492 67.97c-13.562 0-24.536-12.233-24.536-27.33s10.974-27.34 24.536-27.34c13.538 0 24.53 12.242 24.53 27.34s-11 27.33-24.53 27.33m0-70.8c-24.006 0-43.467 19.46-43.467 43.46s19.46 43.45 43.467 43.45c23.99 0 43.46-19.45 43.46-43.45s-19.47-43.46-43.46-43.46m-171.492 70.8c-13.538 0-24.52-12.233-24.52-27.33s10.982-27.34 24.52-27.34c13.554 0 24.537 12.242 24.537 27.34s-10.983 27.33-24.537 27.33m0-70.8c-24 0-43.442 19.46-43.442 43.46s19.443 43.45 43.442 43.45 43.46-19.45 43.46-43.45-19.46-43.46-43.46-43.46m107.42 2.82l-21.294 33.288-21.31-33.288H419.43l32.965 51.595v30.68h18.332V113.96l32.96-51.602zm180.334 0h-70.34v15.777h26.053v66.498h18.35v-66.5h25.94V62.36zm-405.38 15.776h26.06v66.498h18.34V78.135h25.948V62.36h-70.35z"/><path d="M103.127 56.678c-38.943 0-68.75 20.082-68.75 46.822 0 25.86 29.047 46.822 68.75 46.822s68.75-20.963 68.75-46.822c0-26.74-29.808-46.822-68.75-46.822zm42.868 20.082c1.433 5.772-5.29 12.987-26.924 15.346-1.44-14.7-5.8-27.12-13.026-29.75 9.728.274 18.95 1.92 26.99 4.836 7.518 2.836 12.19 6.455 12.96 9.568zm-32.044 26.514c0 18.626-5.594 26.346-10.824 26.346s-10.824-7.72-10.824-26.346l.001-.194c3.476.294 7.094.448 10.823.448s7.347-.154 10.823-.448v.194zm-10.828-10.382c-3.648 0-7.022-.104-10.142-.296 1.643-12.18 6.008-19.26 10.145-19.26s8.502 7.08 10.145 19.26c-3.12.193-6.496.297-10.148.297zM60.252 76.76c.77-3.097 5.396-6.695 12.847-9.526 8.067-2.944 17.334-4.604 27.1-4.88-7.227 2.63-11.586 15.05-13.027 29.75-21.638-2.358-28.363-9.573-26.93-15.346zm-15.737 25.053c0-7.885 2.64-14.7 7.235-20.342.595 10.455 14.737 18.252 34.902 20.99l-.003.814c0 25.225 6.467 38.597 13.635 41.36-30.783-1.106-55.77-20.067-55.77-42.82zm61.328 42.824c7.218-2.882 13.762-17.23 13.762-41.363l-.003-.814c20.165-2.737 34.307-10.534 34.902-20.99 4.594 5.642 7.235 12.457 7.235 20.342 0 22.785-25.055 41.765-55.896 42.824z" fill="#fff"/></g></svg>