<?xml version="1.0" encoding="UTF-8" standalone="no"?>
<svg
   xmlns:dc="http://purl.org/dc/elements/1.1/"
   xmlns:cc="http://creativecommons.org/ns#"
   xmlns:rdf="http://www.w3.org/1999/02/22-rdf-syntax-ns#"
   xmlns:svg="http://www.w3.org/2000/svg"
   xmlns="http://www.w3.org/2000/svg"
   xmlns:sodipodi="http://sodipodi.sourceforge.net/DTD/sodipodi-0.dtd"
   xmlns:inkscape="http://www.inkscape.org/namespaces/inkscape"
   id="Layer_1"
   data-name="Layer 1"
   viewBox="0 0 64 64"
   version="1.1"
   sodipodi:docname="kissmetrics-icon.svg"
   width="64"
   height="64"
   inkscape:version="0.92.3 (2405546, 2018-03-11)">
  <metadata
     id="metadata35">
    <rdf:RDF>
      <cc:Work
         rdf:about="">
        <dc:format>image/svg+xml</dc:format>
        <dc:type
           rdf:resource="http://purl.org/dc/dcmitype/StillImage" />
        <dc:title>km-heart-blue</dc:title>
      </cc:Work>
    </rdf:RDF>
  </metadata>
  <sodipodi:namedview
     pagecolor="#ffffff"
     bordercolor="#666666"
     borderopacity="1"
     objecttolerance="10"
     gridtolerance="10"
     guidetolerance="10"
     inkscape:pageopacity="0"
     inkscape:pageshadow="2"
     inkscape:window-width="1920"
     inkscape:window-height="1001"
     id="namedview33"
     showgrid="false"
     inkscape:zoom="3.1905882"
     inkscape:cx="70.192379"
     inkscape:cy="28.468299"
     inkscape:window-x="-9"
     inkscape:window-y="-9"
     inkscape:window-maximized="1"
     inkscape:current-layer="Layer_1" />
  <defs
     id="defs4">
    <style
       id="style2">.cls-1{fill:#4651ff;}</style>
  </defs>
  <title
     id="title6">km-heart-blue</title>
  <g
     id="g869"
     transform="matrix(4.580942,0,0,4.580942,20.785723,-142.86019)">
    <path
       style="fill:#4651ff;stroke-width:0.15251423"
       inkscape:connector-curvature="0"
       id="path8"
       d="m 4.7024998,31.221072 a 4.7279414,4.7279414 0 0 0 -4.72794147,4.473243 4.7157403,4.7157403 0 0 0 0.24402279,9.426905 H 7.5285886 a 1.8972771,1.8972771 0 0 0 1.9049029,-1.892702 v -7.29018 A 4.7279414,4.7279414 0 0 0 4.7024998,31.221072 Z M -0.38232499,43.037875 A 2.816938,2.816938 0 0 1 -2.395513,41.044514 v 0 a 1.7035841,1.7035841 0 0 1 -0.045754,-0.286726 h 2.05894221 z m 0.56887811,0.08541 V 38.657666 H 2.1280594 v 4.467143 z m 4.54644948,0 H 2.7991221 V 34.988174 H 4.7330026 Z M 7.371499,42.71607 A 0.40568788,0.40568788 0 0 1 6.9688614,43.127859 H 5.411691 v -6.567263 h 1.959808 z"
       class="cls-1" />
  </g>
</svg>
