<svg xmlns="http://www.w3.org/2000/svg" width="64" height="64"><g transform="scale(1.1034483)"><path d="M0 16v42h58V16L48 0H10z" fill="#a98258"/><path d="M58 16L48 0H10L0 16z" fill="#daae86"/><path d="M35 58v-6l-2 2-4-4-4 4-2-2v6z" fill="#d8b18b"/><path d="M20 30h18v16H20z" fill="#e8d5b2"/><path d="M30 41h-6a1 1 0 1 0 0 2h6a1 1 0 1 0 0-2zm4 0h-1a1 1 0 1 0 0 2h1a1 1 0 1 0 0-2zm-6-6h6a1 1 0 1 0 0-2h-6a1 1 0 1 0 0 2zm6 2h-2a1 1 0 1 0 0 2h2a1 1 0 1 0 0-2zm-10 2h2a1 1 0 1 0 0-2h-2a1 1 0 1 0 0 2zm0-4h1a1 1 0 1 0 0-2h-1a1 1 0 1 0 0 2zm4.3 2.3a1.03 1.03 0 0 0-.3.7c0 .27.1.52.3.7a1.05 1.05 0 0 0 .7.3 1.05 1.05 0 0 0 .71-.29A1.05 1.05 0 0 0 30 38a1.05 1.05 0 0 0-.29-.71 1.05 1.05 0 0 0-1.42 0z" fill="#d4c3a5"/><path d="M23 0h12v16H23z" fill="#f4d5bd"/><path d="M23 16v7l2-2 4 4 4-4 2 2v-7z" fill="#d8b18b"/></g></svg>