<?xml version="1.0" encoding="UTF-8" standalone="no"?>
<!-- Generator: Adobe Illustrator 22.1.0, SVG Export Plug-In . SVG Version: 6.00 Build 0)  -->

<svg
   xmlns:dc="http://purl.org/dc/elements/1.1/"
   xmlns:cc="http://creativecommons.org/ns#"
   xmlns:rdf="http://www.w3.org/1999/02/22-rdf-syntax-ns#"
   xmlns:svg="http://www.w3.org/2000/svg"
   xmlns="http://www.w3.org/2000/svg"
   xmlns:sodipodi="http://sodipodi.sourceforge.net/DTD/sodipodi-0.dtd"
   xmlns:inkscape="http://www.inkscape.org/namespaces/inkscape"
   version="1.1"
   id="svg"
   x="0px"
   y="0px"
   viewBox="0 0 64 64"
   xml:space="preserve"
   sodipodi:docname="ogpme-icon.svg"
   width="64"
   height="64"
   inkscape:version="0.92.3 (2405546, 2018-03-11)"><metadata
   id="metadata14"><rdf:RDF><cc:Work
       rdf:about=""><dc:format>image/svg+xml</dc:format><dc:type
         rdf:resource="http://purl.org/dc/dcmitype/StillImage" /><dc:title></dc:title></cc:Work></rdf:RDF></metadata><defs
   id="defs12">
	
	
	
	
</defs><sodipodi:namedview
   pagecolor="#ffffff"
   bordercolor="#666666"
   borderopacity="1"
   objecttolerance="10"
   gridtolerance="10"
   guidetolerance="10"
   inkscape:pageopacity="0"
   inkscape:pageshadow="2"
   inkscape:window-width="1920"
   inkscape:window-height="1001"
   id="namedview10"
   showgrid="false"
   inkscape:zoom="8.2086956"
   inkscape:cx="71.494618"
   inkscape:cy="26.594339"
   inkscape:window-x="-9"
   inkscape:window-y="-9"
   inkscape:window-maximized="1"
   inkscape:current-layer="svg" />
<style
   type="text/css"
   id="style2">
	.st0{fill:none;}
	.st1{fill:#3A3A3A;}
	.st2{fill:#7BA5D8;}
	.st3{fill:#DFEAF7;}
</style>

<g
   id="g32"
   transform="matrix(0.16024036,0,0,0.16024036,-4.8072107,-1.5863795)"><path
     id="path0"
     class="st0"
     d="M 30,30"
     inkscape:connector-curvature="0"
     style="fill:none" /><path
     id="path1"
     class="st1"
     d="m 229.3,84.8 c -0.5,0.2 -1.6,0.9 -2.6,1.5 -2.6,1.7 -3.2,2.1 -4.2,2.5 -0.5,0.2 -2.8,1.5 -5.2,3 -2.4,1.4 -4.6,2.7 -5,2.8 -0.3,0.1 -1.1,0.6 -1.8,1.1 -0.7,0.4 -1.6,1 -2.2,1.2 -0.5,0.2 -1.8,1 -2.7,1.6 -1,0.7 -1.9,1.2 -2,1.2 -0.1,0 -1.7,0.9 -3.5,2 -1.8,1.1 -3.4,2 -3.5,2 -0.1,0 -1,0.5 -1.9,1.2 -2,1.3 -5.7,3.4 -7.1,4.1 -0.5,0.2 -1.8,1 -2.7,1.6 -1,0.7 -1.8,1.2 -1.9,1.2 -0.2,0 -8.8,4.9 -9.8,5.6 -0.3,0.2 -1.1,0.7 -1.8,1 -0.7,0.3 -1.7,1 -2.4,1.4 -0.7,0.4 -1.6,1 -2,1.2 -0.4,0.2 -1.5,0.8 -2.3,1.3 -0.8,0.5 -2.4,1.4 -3.6,2 -1.2,0.6 -2.9,1.7 -3.9,2.3 -0.9,0.6 -1.9,1.2 -2.1,1.2 -0.2,0 -1.1,0.5 -2.1,1.2 -0.9,0.6 -2.6,1.6 -3.7,2.2 -1.1,0.6 -2.5,1.4 -3.2,1.8 -0.7,0.4 -1.7,1 -2.4,1.4 -0.7,0.3 -2.3,1.2 -3.6,2 -1.3,0.8 -2.9,1.6 -3.5,1.9 -0.6,0.3 -1.1,0.6 -1.1,0.8 0,0.2 -0.9,0.8 -2.1,1.3 -2.7,1.4 -4.1,2.2 -6.2,3.5 -0.9,0.6 -1.8,1.1 -2,1.1 -0.2,0 -1.2,0.6 -2.3,1.3 -3.2,2 -3.4,2.2 -6.4,3.7 l -2.8,1.5 -1.8,-0.9 c -1,-0.5 -2.9,-1.5 -4.2,-2.2 -1.3,-0.7 -2.7,-1.5 -3,-1.6 -0.3,-0.1 -0.9,-0.5 -1.2,-0.8 -0.3,-0.3 -1.5,-1 -2.6,-1.5 -4.6,-2.4 -6.4,-4 -6.3,-5.5 0.5,-6.3 0.5,-10.2 0,-11.7 -0.3,-0.9 -0.7,-2.2 -0.9,-2.9 -0.1,-0.7 -0.4,-1.4 -0.6,-1.5 -0.2,-0.1 -0.7,-1 -1.2,-2 -1.6,-3.2 -8.1,-9 -10,-9 -0.3,0 -0.8,-0.2 -1.1,-0.5 -0.6,-0.6 -4.5,-1.5 -7.8,-1.8 -2.5,-0.2 -7.6,0.7 -9.5,1.7 -0.6,0.3 -1.3,0.6 -1.5,0.6 -1.4,0 -8.8,6.3 -8.8,7.5 0,0.2 -0.3,0.6 -0.6,0.8 -5,4.1 -4.7,18.2 0.5,25.8 1.9,2.8 6,6.6 7.1,6.6 0.2,0 0.6,0.3 0.9,0.6 0.3,0.3 1,0.7 1.7,0.8 0.7,0.1 1.5,0.4 1.7,0.6 1.6,1.3 11.8,1.4 14.3,0.1 0.6,-0.3 1.5,-0.6 1.8,-0.6 0.4,0 1.1,-0.3 1.6,-0.7 0.5,-0.4 1.6,-1.1 2.5,-1.5 l 1.5,-0.8 1.8,1 c 1,0.5 1.8,1.1 1.8,1.3 0,0.2 0.2,0.3 0.4,0.3 0.2,0 1.7,0.8 3.2,1.7 1.5,0.9 3.3,2 3.9,2.3 0.6,0.3 2.4,1.3 3.9,2.2 1.5,0.9 3.5,2 4.4,2.4 l 1.6,0.9 0.1,67.2 0.1,67.2 1.1,0.5 c 1.8,0.8 5.5,3 5.6,3.4 0.1,0.2 0.3,0.3 0.5,0.3 0.2,0 2.1,1 4.1,2.2 2.1,1.2 3.9,2.2 4.2,2.2 0.3,0 0.4,0.2 0.4,0.4 0,0.2 0.5,0.6 1.1,0.8 0.6,0.2 1.6,0.8 2.3,1.2 0.7,0.4 1.6,1 2.2,1.3 0.6,0.3 1.1,0.6 1.2,0.7 0.1,0.1 0.7,0.4 1.2,0.7 0.5,0.3 1.3,0.7 1.6,0.9 2.4,1.5 7.6,4.4 7.8,4.4 0.2,0 0.6,0.3 0.9,0.6 0.7,0.6 4.5,2.8 6,3.5 0.5,0.2 1.1,0.6 1.2,0.7 0.1,0.2 0.7,0.5 1.2,0.8 0.6,0.3 1.5,0.9 2.2,1.3 0.7,0.4 1.7,1 2.3,1.2 0.6,0.2 1.1,0.6 1.1,0.8 0,0.2 0.2,0.4 0.4,0.4 0.2,0 2.5,1.2 5.1,2.7 2.6,1.5 4.9,2.9 5.3,3 0.3,0.1 1.1,0.6 1.8,1.1 0.7,0.4 1.5,0.9 1.8,1.1 1.3,0.6 6.2,3.5 6.3,3.8 0.1,0.2 0.3,0.3 0.5,0.3 0.2,0 2.5,1.2 5.1,2.7 2.6,1.5 4.9,2.9 5.3,3 0.3,0.1 1.1,0.6 1.8,1.1 0.7,0.4 1.7,1.1 2.4,1.4 0.7,0.3 1.7,1 2.4,1.4 0.7,0.4 1.9,1.1 2.8,1.6 0.9,0.5 2.6,1.5 3.7,2.2 1.2,0.8 2.2,1.4 2.3,1.4 0.2,0 6.6,3.7 7.7,4.4 0.3,0.2 1.1,0.7 1.8,1 0.7,0.3 1.7,1 2.4,1.4 0.7,0.4 1.6,1 2.2,1.2 0.5,0.2 1.1,0.6 1.2,0.7 0.1,0.2 0.7,0.5 1.2,0.8 1.7,0.8 5.4,3 5.6,3.2 0.1,0.1 1.4,0.9 2.8,1.6 l 2.6,1.4 4.8,-2.8 c 6.1,-3.6 7.8,-4.5 8.8,-5 0.4,-0.2 1.3,-0.8 2,-1.2 0.7,-0.4 1.7,-1.1 2.4,-1.4 0.7,-0.3 1.6,-0.8 2,-1.1 2,-1.3 4.2,-2.6 6,-3.5 1.1,-0.6 2.9,-1.6 4,-2.3 1.1,-0.7 2.2,-1.3 2.5,-1.3 0.3,0 0.5,-0.2 0.5,-0.4 0,-0.2 0.4,-0.5 0.9,-0.6 0.5,-0.2 1.2,-0.5 1.5,-0.8 0.3,-0.3 1.5,-1 2.6,-1.6 1.1,-0.6 3.1,-1.7 4.4,-2.4 1.3,-0.7 2.9,-1.6 3.4,-1.9 0.6,-0.3 1.1,-0.6 1.2,-0.7 0.2,-0.3 4,-2.4 5.6,-3.3 0.5,-0.3 1.1,-0.6 1.2,-0.8 0.1,-0.2 0.7,-0.5 1.2,-0.7 0.5,-0.2 1.5,-0.8 2.2,-1.2 0.7,-0.4 1.7,-1.1 2.4,-1.4 0.7,-0.3 1.5,-0.8 1.8,-1 1.2,-0.8 11.8,-6.9 12.6,-7.3 0.4,-0.2 1.3,-0.7 2,-1.1 0.7,-0.4 1.6,-1 2,-1.2 0.4,-0.2 1.5,-0.9 2.4,-1.4 0.9,-0.5 1.9,-1.1 2.2,-1.3 0.3,-0.2 3.2,-1.8 6.3,-3.6 3.1,-1.8 5.9,-3.3 6.1,-3.3 0.2,0 0.4,-0.1 0.5,-0.3 0.1,-0.3 5,-3.2 6.3,-3.8 0.3,-0.1 1.1,-0.6 1.8,-1.1 0.7,-0.4 1.6,-1 2.2,-1.2 0.5,-0.2 1.8,-1 2.7,-1.6 1,-0.7 1.8,-1.2 1.9,-1.2 0.1,0 1.2,-0.6 2.5,-1.4 3.1,-1.8 4.6,-1.8 7.6,0 1.3,0.7 2.7,1.5 3.2,1.6 0.5,0.1 0.9,0.4 0.9,0.6 0,0.2 0.2,0.4 0.5,0.4 0.3,0 1.4,0.6 2.6,1.4 1.1,0.8 2.4,1.5 2.9,1.6 0.4,0.1 0.8,0.4 0.8,0.6 0,0.2 0.2,0.4 0.5,0.4 0.3,0 1.2,0.5 2.1,1.1 l 1.6,1.1 v 7.2 c 0,6.2 0.1,7.3 0.7,8.2 0.4,0.5 0.7,1.2 0.7,1.5 0,2.7 8.5,11.7 11,11.7 0.3,0 0.8,0.3 1.1,0.6 0.5,0.5 1.7,0.8 6.9,1.9 8.1,1.6 20.8,-5.6 23.2,-13.1 0.1,-0.4 0.5,-1.3 0.8,-1.9 2.6,-5.9 0.8,-19.2 -2.9,-21.5 -0.3,-0.2 -0.5,-0.5 -0.5,-0.7 0,-0.6 -4.4,-4.6 -6.1,-5.5 -0.9,-0.5 -1.9,-1.1 -2.1,-1.3 -0.2,-0.2 -0.7,-0.4 -1,-0.4 -0.3,0 -1.2,-0.3 -1.8,-0.7 -1.8,-1 -11.6,-1.3 -13.4,-0.4 -0.7,0.4 -1.4,0.6 -1.6,0.6 -0.6,0 -4.7,2 -4.9,2.4 -0.4,0.6 -2.8,0.4 -3.4,-0.2 -0.3,-0.3 -0.6,-0.6 -0.8,-0.6 -0.2,0 -1.1,-0.5 -2.1,-1.1 -0.9,-0.6 -2.5,-1.6 -3.5,-2.1 -1,-0.5 -2.5,-1.4 -3.4,-2 -1.7,-1.1 -2.3,-1.4 -6.3,-3.5 -1.7,-0.9 -2.7,-1.6 -2.8,-2.2 -0.1,-0.5 -0.2,-30.8 -0.2,-67.4 0,-63.1 0,-66.5 -0.7,-66.7 -0.4,-0.1 -1.7,-0.9 -2.8,-1.6 -1.2,-0.8 -2.3,-1.4 -2.5,-1.4 -0.2,0 -1.3,-0.6 -2.5,-1.4 -1.2,-0.8 -2.3,-1.4 -2.6,-1.4 -0.3,0 -0.6,-0.3 -0.7,-0.6 -0.1,-0.3 -0.6,-0.6 -1,-0.6 -0.4,0 -0.9,-0.2 -1,-0.4 -0.1,-0.2 -0.8,-0.7 -1.5,-1 -0.7,-0.3 -1.6,-0.8 -2.1,-1.1 -1.9,-1.2 -4.1,-2.5 -5,-3 -0.6,-0.3 -1.3,-0.7 -1.6,-0.9 -0.3,-0.2 -2.7,-1.6 -5.2,-3 -2.5,-1.4 -4.9,-2.8 -5.2,-3 -0.3,-0.2 -1.1,-0.6 -1.6,-0.9 -0.6,-0.3 -1.1,-0.6 -1.2,-0.8 -0.1,-0.2 -0.7,-0.5 -1.2,-0.7 -0.5,-0.2 -1.5,-0.8 -2.2,-1.2 -0.7,-0.4 -1.6,-1 -2.2,-1.2 -0.5,-0.2 -1.1,-0.6 -1.2,-0.7 -0.1,-0.2 -0.7,-0.5 -1.2,-0.8 -0.5,-0.3 -1.3,-0.7 -1.6,-0.9 -1.3,-0.8 -7.4,-4.3 -8,-4.6 -0.3,-0.1 -1.1,-0.6 -1.8,-1 -0.7,-0.4 -2.1,-1.3 -3.2,-1.8 -1.1,-0.6 -2.3,-1.3 -2.6,-1.5 -0.3,-0.3 -1.1,-0.7 -1.6,-1 -0.6,-0.3 -1.6,-0.9 -2.4,-1.3 -4.9,-2.9 -8.8,-5.2 -9,-5.2 -0.2,0 -0.6,-0.3 -0.9,-0.6 -0.6,-0.5 -3.6,-2.3 -5.8,-3.4 -0.4,-0.2 -1.5,-0.8 -2.4,-1.4 -0.9,-0.5 -2.5,-1.4 -3.7,-2 -1.2,-0.6 -2.1,-1.2 -2.1,-1.4 0,-0.2 -0.2,-0.4 -0.4,-0.4 -0.2,0 -2.3,-1.1 -4.5,-2.4 -2.2,-1.3 -4.3,-2.6 -4.7,-2.8 -0.3,-0.2 -0.9,-0.5 -1.2,-0.6 -0.3,-0.1 -1.1,-0.6 -1.8,-1 -0.7,-0.4 -1.7,-1 -2.3,-1.2 -0.6,-0.2 -1.1,-0.6 -1.1,-0.8 0,-0.2 -0.5,-0.5 -1.1,-0.8 -1.3,-0.5 -4.5,-2.3 -7,-3.9 -0.9,-0.6 -2.4,-1.5 -3.3,-1.9 -0.9,-0.4 -2.1,-1.1 -2.6,-1.5 -1.1,-1.1 -2.6,-1.3 -3.7,-0.9 m -5.8,59.4 c 0.1,24.7 0,34.1 -0.3,34.5 -0.7,0.8 -13.2,0.2 -22.2,-1.1 -1.5,-0.2 -4.4,-0.6 -6.4,-0.8 -4.4,-0.5 -7,-1.1 -7.3,-1.9 -0.3,-0.8 2,-8.3 3.7,-12 0.3,-0.7 0.6,-1.5 0.6,-1.7 0,-0.2 0.2,-0.8 0.4,-1.1 0.2,-0.4 0.8,-1.6 1.2,-2.7 1.4,-3.3 4.7,-10.2 5.6,-11.8 0.2,-0.3 0.8,-1.5 1.3,-2.6 0.5,-1.1 1.4,-2.6 1.8,-3.4 0.5,-0.8 1.2,-2.1 1.7,-3 0.5,-0.9 1.2,-2 1.5,-2.6 0.4,-0.6 2.1,-3.1 3.7,-5.6 4.2,-6.4 4.9,-7.4 8.1,-11.4 4.1,-5.3 5.6,-7 6,-6.8 0.4,0 0.5,11.8 0.6,34 m 17.8,-30.7 c 1.4,1.7 2.8,3.3 3.1,3.7 0.3,0.4 0.8,1 1.2,1.6 0.4,0.6 1.5,2.1 2.6,3.5 1,1.3 1.9,2.6 1.9,2.7 0,0.1 0.9,1.5 1.9,3 1,1.5 2.1,3.1 2.4,3.5 0.5,0.9 2.7,4.3 3.9,6.3 1.4,2.2 7.5,14.4 8.5,16.9 0.5,1.3 1.1,2.8 1.3,3.2 1.4,3.2 2,4.6 2,5.1 0,0.3 0.2,0.9 0.5,1.3 0.3,0.4 0.7,1.4 0.8,2.2 0.2,0.8 0.4,1.6 0.6,1.8 0.6,0.8 2.1,6.2 1.9,6.7 -0.2,0.6 -3.4,1.4 -8,1.9 -1.8,0.2 -4.3,0.5 -5.5,0.7 -3.2,0.6 -14.8,1.5 -18.8,1.5 h -3.4 l -0.1,-33.8 c -0.1,-31.4 -0.1,-34.8 0.5,-34.8 0.1,-0.1 1.3,1.3 2.7,3 m -44.7,7.4 c -0.1,0.5 -0.7,1.4 -1.1,2.1 -0.5,0.7 -2.4,3.8 -4.3,7 -3.9,6.6 -8.2,15.1 -11.2,22.2 -0.6,1.3 -1.8,4.6 -2.8,7.2 -0.5,1.3 -1,2.7 -1.2,3 -0.2,0.3 -0.4,1.2 -0.6,1.9 -0.2,0.7 -0.5,1.8 -0.8,2.4 -0.3,0.6 -0.6,1.4 -0.6,1.9 -0.1,1.8 -1.3,3.6 -2.6,3.5 -1.5,-0.1 -8.1,-1.7 -11.9,-2.9 -0.7,-0.2 -2.5,-0.8 -4.1,-1.3 -5.1,-1.6 -11.1,-3.6 -14,-4.8 -1.6,-0.6 -3.1,-1.1 -3.4,-1.1 -0.3,0 -1,-0.2 -1.6,-0.5 -1.1,-0.6 -3.1,-1.5 -5,-2.2 -1.8,-0.7 -0.6,-2 4.1,-4.5 1,-0.5 2.1,-1.2 2.4,-1.4 0.3,-0.2 1.4,-0.9 2.4,-1.4 1,-0.5 2.4,-1.4 3.2,-1.8 0.8,-0.5 2.1,-1.2 3,-1.6 0.9,-0.4 2.6,-1.4 3.7,-2.2 1.2,-0.8 2.2,-1.4 2.3,-1.4 0.2,0 11.3,-6.4 12.5,-7.2 0.3,-0.2 1,-0.6 1.5,-0.8 0.5,-0.2 1.7,-0.9 2.6,-1.5 2.5,-1.6 3.2,-2 4.1,-2.5 0.4,-0.2 2.6,-1.4 4.8,-2.7 2.2,-1.3 4.3,-2.5 4.6,-2.7 0.3,-0.2 1.3,-0.7 2.1,-1.2 2,-1.2 5.3,-3.1 8.1,-4.7 1.3,-0.7 2.6,-1.5 2.8,-1.7 0.8,-0.6 1.3,0 1,0.9 m 69.6,-0.5 c 0.9,0.5 2.2,1.2 2.8,1.6 0.7,0.4 1.6,1 2.2,1.3 0.5,0.3 1.7,0.9 2.6,1.5 0.9,0.5 2.1,1.3 2.8,1.6 3.4,1.8 5,2.7 6.6,3.8 1,0.6 2.6,1.6 3.6,2.1 1,0.5 2.3,1.3 3,1.7 0.7,0.4 2.1,1.2 3.2,1.8 1.1,0.6 2.3,1.3 2.6,1.6 0.3,0.3 0.8,0.6 0.9,0.6 0.2,0 12.5,7 14.7,8.4 0.3,0.2 1.5,0.8 2.6,1.4 1.1,0.6 2.3,1.3 2.6,1.6 0.3,0.3 0.7,0.6 0.9,0.6 0.1,0 2.9,1.5 6.1,3.4 3.2,1.9 6,3.4 6.2,3.4 0.2,0 0.5,0.4 0.6,0.9 0.3,0.9 -0.6,1.9 -1.7,1.9 -0.3,0 -0.8,0.2 -1.2,0.4 -1,0.5 -4.1,1.8 -5.7,2.4 -2,0.7 -7.2,2.6 -8.4,3.1 -1.1,0.4 -4.8,1.6 -8.6,2.7 -1.3,0.4 -2.9,0.9 -3.4,1.1 -0.6,0.2 -1.6,0.5 -2.4,0.7 -0.8,0.2 -3.2,0.8 -5.3,1.4 -4.7,1.3 -5.3,1.1 -5.9,-1.1 -0.2,-0.9 -0.7,-2.3 -1,-3 -0.3,-0.7 -0.6,-1.5 -0.6,-1.8 0,-0.6 -2.7,-8.3 -3.4,-9.6 -0.3,-0.6 -0.6,-1.3 -0.6,-1.5 0,-0.7 -8.4,-18.2 -10,-20.8 -0.2,-0.3 -1.4,-2.4 -2.7,-4.6 -1.3,-2.2 -3.1,-5.1 -4,-6.5 -2.3,-3.4 -2.2,-3.6 0.9,-2.1 m -189.9,3.7 c 4.1,2.1 6.5,7.5 4.9,10.9 -0.4,0.9 -0.8,1.8 -0.8,2 0,0.2 -0.7,1.1 -1.5,1.9 -8.7,8.7 -22,-3.5 -13.8,-12.7 2.7,-3.1 7.4,-4 11.2,-2.1 m 47,46.9 c 0.9,0.4 2.3,0.9 3.1,1.3 2.7,1.2 7,2.9 11,4.4 5.1,1.9 5.8,2.1 9.2,3.2 1.8,0.6 3.8,1.3 4.6,1.5 1.9,0.7 11.7,3.4 12.4,3.4 4.4,0.1 5.7,2 4.6,7.1 -0.3,1.7 -0.8,4.8 -1,6.8 -0.2,2.1 -0.5,3.9 -0.6,4.1 -0.1,0.2 -0.4,3.5 -0.6,7.4 -0.3,5 -0.6,7.4 -1,8 l -0.6,0.9 h -21.1 c -12.6,0 -21.3,-0.2 -21.7,-0.4 -0.9,-0.6 -1.1,-48.4 -0.2,-48.4 0.1,0.1 1,0.4 1.9,0.7 m 216.6,23.1 c 0.1,15.8 0,23.8 -0.3,24.3 -0.5,1 -42,1.2 -43.3,0.3 -0.5,-0.4 -0.7,-1.7 -0.9,-5.9 -0.1,-2.9 -0.5,-7.3 -0.9,-9.6 -1.5,-9.9 -2.4,-15.3 -2.8,-16.1 -0.2,-0.5 0,-0.7 0.8,-0.9 0.6,-0.1 1.9,-0.5 2.9,-0.8 1,-0.3 3,-0.8 4.4,-1.2 1.4,-0.4 3.6,-1 4.9,-1.4 1.3,-0.4 2.6,-0.8 2.9,-0.8 0.3,0 1.2,-0.2 1.9,-0.6 0.7,-0.3 3.7,-1.3 6.6,-2.3 2.9,-0.9 5.4,-1.9 5.5,-2 0.1,-0.2 0.5,-0.3 0.8,-0.3 0.6,0 6.6,-2.2 9.2,-3.4 4.9,-2.2 6.9,-3 7.4,-2.9 0.7,0.1 0.8,3.1 0.9,23.6 m -61.2,-0.7 c 0.9,4.3 1.5,8.2 2.1,13.4 0.2,2.1 0.6,5.3 0.8,7 0.7,5.8 1.8,5.3 -14.2,5.3 -15,0 -13.6,0.3 -15.6,-3.7 -2.4,-5 -6.7,-9.2 -11.6,-11.3 l -2,-0.9 v -5.1 -5.1 l 6.8,-0.2 c 7.3,-0.3 13.8,-0.8 20.6,-1.8 2.3,-0.3 5.5,-0.8 7,-0.9 1.5,-0.2 3.3,-0.5 3.8,-0.7 1.3,-0.6 1.4,-0.5 2.3,4 M 188.8,190 c 1.9,0.2 4.3,0.6 5.4,0.8 1.1,0.2 4.1,0.6 6.6,0.8 2.5,0.2 6.1,0.6 8,0.8 1.9,0.2 5.8,0.4 8.7,0.4 6.5,0 6.2,-0.2 6.1,5.7 l -0.1,4.5 -3.2,1.6 c -4.5,2.3 -8.4,6.2 -10.6,10.8 -2.1,4.2 -0.5,3.9 -16.6,3.8 l -13.2,-0.1 -0.1,-3.4 c -0.1,-1.9 0.1,-5.6 0.5,-8.2 0.3,-2.6 0.7,-5.4 0.8,-6.2 1.2,-9.1 2.2,-12.4 3.8,-11.8 0.2,0 2,0.3 3.9,0.5 m 46,27.1 c 3.4,1.6 6,6.2 5.5,9.6 -1.3,8 -10.6,11.2 -16.2,5.6 -7.5,-7.4 1.1,-19.6 10.7,-15.2 m -70,16.3 c 0.3,0.4 0.7,2.4 0.9,4.9 0.8,10.4 1.6,17.1 2.9,23.9 0.7,3.9 0.5,4.1 -4.9,5.2 -0.8,0.2 -2.3,0.5 -3.4,0.9 -1.1,0.3 -3,0.9 -4.2,1.2 -1.2,0.3 -2.9,0.9 -3.8,1.1 -0.9,0.3 -2.9,0.9 -4.6,1.4 -1.7,0.5 -3.5,1.1 -4.2,1.4 -0.7,0.3 -3.1,1.2 -5.4,2 -2.3,0.8 -4.7,1.7 -5.4,2 -0.7,0.3 -2.8,1.2 -4.8,2 -2,0.8 -4,1.6 -4.4,1.8 -2.6,1.2 -2.4,3.3 -2.4,-23.5 0,-21 0.1,-24.2 0.6,-24.5 1.1,-0.7 42.5,-0.5 43.1,0.2 m 43,-0.3 c 0.2,0.2 0.9,1.2 1.4,2.3 2.1,4.3 6.3,9.4 7.9,9.4 0.2,0 0.5,0.1 0.5,0.3 0.2,0.5 3.8,2.5 4.5,2.5 1.1,0 1.4,1.5 1.4,6.1 0,5.6 0.4,5.3 -7,5.6 -3.3,0.1 -8.5,0.5 -11.6,0.8 -3.1,0.3 -6.4,0.7 -7.4,0.8 -3.7,0.4 -12.7,1.8 -13.1,2 -0.9,0.6 -2,-2 -2.5,-5.6 -0.2,-1.9 -0.5,-3.7 -0.6,-3.9 -0.7,-1.1 -2.1,-18.8 -1.6,-20.1 0.3,-0.5 27.2,-0.8 28.1,-0.2 m 72.9,-0.1 c 1.2,0.3 1.4,1.5 0.9,5.2 -0.2,1.7 -0.6,4.9 -0.8,6.9 -0.8,8.7 -2.6,17.8 -3.4,17.8 -0.2,0 -1.6,-0.2 -3.2,-0.5 -8.8,-1.5 -21.2,-2.8 -30.2,-3.2 l -5.8,-0.3 v -5.4 -5.4 l 2,-0.9 c 5.3,-2.5 9.5,-6.6 11.9,-11.5 0.6,-1.4 1.4,-2.6 1.7,-2.7 0.6,-0.2 25.8,-0.2 26.9,0 m 58.9,0.6 c 0.3,0.5 0.4,8.9 0.4,24.4 0,26.1 0.2,24.5 -2.3,23.3 -1.6,-0.8 -3.6,-1.7 -5.7,-2.5 -1.2,-0.5 -2.7,-1.1 -3.4,-1.4 -1.9,-0.8 -7.9,-3 -9.2,-3.4 -0.7,-0.2 -2.5,-0.8 -4,-1.3 -2.9,-1 -6.9,-2.3 -10.4,-3.3 -1.1,-0.3 -2.9,-0.8 -4,-1.2 -1.1,-0.4 -2.7,-0.7 -3.6,-0.9 -0.9,-0.2 -2.5,-0.6 -3.6,-1 l -2,-0.8 0.5,-2.1 c 1.3,-5.5 3,-18.2 3.3,-24.4 0.2,-3.7 0.4,-5.3 0.8,-5.7 0.9,-1 42.6,-0.8 43.2,0.3 m -116.5,39.7 c 0.7,0.7 0.7,68.1 0,68.5 -0.2,0.1 -0.9,-0.3 -1.5,-0.9 -1.9,-2.2 -3,-3.5 -4.2,-5.1 -0.7,-0.9 -1.4,-1.8 -1.6,-2 -0.2,-0.2 -0.7,-0.9 -1,-1.4 -0.3,-0.5 -1,-1.4 -1.4,-1.9 -0.8,-1.1 -2.4,-3.4 -4.8,-7 -0.7,-1.1 -1.5,-2.2 -1.6,-2.4 -2.8,-3.5 -12.6,-22.6 -15.5,-30.5 -0.3,-0.9 -1,-2.5 -1.4,-3.7 -3,-7.9 -3.4,-9.9 -1.7,-10.2 0.6,-0.1 1.7,-0.4 2.5,-0.6 0.8,-0.2 3.5,-0.6 6,-0.8 2.5,-0.3 4.7,-0.5 4.9,-0.6 0.2,-0.1 3,-0.4 6.4,-0.6 3.4,-0.2 7.4,-0.6 8.9,-0.7 4.3,-0.6 5.5,-0.6 6,-0.1 m 24.7,0.3 c 0.9,0.2 2.9,0.4 4.4,0.4 1.5,0 4.1,0.2 5.6,0.4 16.2,2.1 16,2 16.1,3.1 0.1,0.8 -2.1,7.8 -3.3,10.7 -0.3,0.7 -0.8,2 -1.2,3 -0.4,1 -1,2.6 -1.4,3.5 -0.4,0.9 -0.7,2 -0.7,2.3 0,0.3 -0.2,0.6 -0.4,0.6 -0.2,0 -0.5,0.5 -0.7,1 -0.6,2.5 -8,16.2 -12.7,23.6 -2,3.2 -9,12.9 -10.5,14.6 -0.3,0.3 -1.4,1.6 -2.4,2.9 -1,1.3 -2,2.2 -2.2,2.1 -0.4,-0.2 -0.4,-68.3 0,-68.7 0.2,-0.4 7.1,0 9.4,0.5 m -74.8,7.2 c 0.3,0.6 0.8,1.9 1,2.7 0.5,2 1.6,5.2 2.3,6.8 0.3,0.7 0.6,1.5 0.6,1.7 0,0.4 0.4,1.5 1.8,4.7 0.3,0.7 1.3,2.9 2.1,5.1 1.6,3.9 5.3,11.6 6.9,14.5 2.5,4.5 5.4,9.5 6.9,11.8 3.2,5 2.5,5.5 -2.8,2 -0.7,-0.4 -1.5,-0.9 -1.8,-1.1 -0.3,-0.1 -3.2,-1.8 -6.3,-3.6 -3.1,-1.8 -5.8,-3.3 -5.9,-3.3 -0.1,0 -1,-0.5 -1.9,-1.2 -0.9,-0.6 -2.6,-1.6 -3.7,-2.2 -2.8,-1.5 -4.3,-2.3 -11.6,-6.6 -3.5,-2 -7.4,-4.3 -8.6,-4.9 -1.2,-0.7 -2.6,-1.5 -3.2,-1.9 -0.5,-0.4 -1.1,-0.7 -1.3,-0.7 -0.2,0 -8.7,-4.8 -12,-6.8 -0.3,-0.2 -1.5,-0.9 -2.7,-1.6 -2.2,-1.3 -2.8,-2.6 -1.4,-3 1,-0.3 4.5,-1.7 5.5,-2.2 1.9,-0.9 10.2,-3.9 12.8,-4.6 1.1,-0.3 2.2,-0.7 2.4,-1 0.2,-0.2 0.8,-0.4 1.3,-0.4 0.5,0 1.6,-0.3 2.4,-0.6 0.8,-0.3 2.9,-1 4.5,-1.4 1.7,-0.5 3.8,-1.1 4.8,-1.4 1,-0.3 2.2,-0.6 2.6,-0.6 0.4,0 1.4,-0.3 2.2,-0.5 2.2,-1.1 2.4,-1 3.1,0.3 m 123,0.7 c 1.2,0.3 3,0.8 4,1.1 1,0.3 3.1,0.9 4.8,1.4 1.7,0.5 3.6,1.1 4.3,1.4 0.7,0.3 1.6,0.6 1.9,0.6 0.5,0 7.4,2.4 9.6,3.4 1.3,0.6 7.9,3.1 9,3.5 1.2,0.4 1.2,1.9 0.1,2.3 -0.6,0.2 -1.8,0.9 -2.8,1.6 -1,0.7 -1.8,1.2 -2,1.2 -0.1,0 -2.8,1.5 -5.9,3.3 -3.1,1.8 -5.9,3.5 -6.3,3.6 -0.3,0.1 -1.1,0.6 -1.8,1.1 -0.7,0.4 -1.7,1.1 -2.4,1.4 -0.7,0.3 -1.7,1 -2.4,1.4 -0.7,0.4 -1.5,0.9 -1.8,1.1 -0.3,0.2 -4.2,2.4 -8.6,5 -4.4,2.6 -8.7,5.1 -9.6,5.5 -0.9,0.5 -1.8,1 -2.2,1.2 -1,0.6 -12,7 -14,8.1 -1,0.5 -2.5,1.4 -3.3,1.9 -1.4,0.8 -2.7,1.1 -2.7,0.7 0,-0.2 2.5,-4.3 2.8,-4.6 0.4,-0.3 4.6,-7.6 6.2,-10.6 0.8,-1.5 1.6,-3.1 1.8,-3.4 0.5,-0.8 4.8,-10 4.8,-10.2 0,-0.1 0.5,-1.3 1.2,-2.8 0.7,-1.4 1.2,-2.7 1.2,-2.9 0,-0.2 0.3,-0.8 0.6,-1.5 0.9,-2 3.4,-8.8 3.4,-9.4 0,-0.3 0.3,-1.1 0.6,-1.8 0.3,-0.7 0.8,-2 1,-2.9 0.8,-2.8 1,-2.8 8.5,-0.7 m 96.2,29.4 c 8,3.7 8,15.9 -0.1,17.7 -0.6,0.1 -1.6,0.4 -2.3,0.7 -0.8,0.3 -1.4,0.3 -2.2,0 -0.6,-0.2 -1.6,-0.5 -2.1,-0.6 -1.4,-0.3 -4.3,-2.9 -5.2,-4.7 -3.7,-7.5 4.4,-16.5 11.9,-13.1"
     inkscape:connector-curvature="0"
     style="fill:#3a3a3a" /><path
     id="path3"
     class="st2"
     d="m 228.6,84.2 c -0.9,0.5 -2,1.1 -2.6,1.4 -0.5,0.2 -1.8,1 -2.7,1.6 -1,0.7 -2,1.2 -2.3,1.2 -0.3,0 -0.7,0.2 -0.9,0.5 -0.2,0.3 -0.8,0.7 -1.3,1 -1.2,0.6 -4.4,2.4 -6.6,3.7 -2.5,1.5 -3.9,2.3 -5.1,2.8 -0.6,0.3 -1.1,0.6 -1.1,0.8 0,0.2 -0.2,0.4 -0.5,0.4 -0.3,0 -1.5,0.6 -2.6,1.4 -1.2,0.8 -2.3,1.4 -2.5,1.4 -0.2,0 -0.6,0.2 -0.9,0.5 -0.5,0.5 -1.1,0.8 -5.1,3 -1,0.5 -1.9,1.1 -2,1.3 -0.1,0.2 -1.2,0.8 -2.4,1.4 -1.2,0.6 -2.7,1.5 -3.4,1.9 -0.7,0.4 -1.6,1 -2.2,1.2 -0.5,0.2 -1.1,0.6 -1.2,0.7 -0.3,0.4 -2.4,1.6 -3.7,2.1 -0.6,0.2 -1.1,0.6 -1.1,0.8 0,0.2 -0.2,0.4 -0.5,0.4 -0.3,0 -1.5,0.6 -2.6,1.4 -1.2,0.8 -2.3,1.4 -2.5,1.4 -0.2,0 -1.1,0.5 -2.1,1.2 -0.9,0.6 -2.1,1.3 -2.6,1.4 -0.5,0.2 -0.9,0.4 -0.9,0.6 0,0.2 -0.5,0.5 -1.1,0.8 -1.3,0.5 -3.3,1.7 -5.1,2.8 -0.7,0.4 -1.6,1 -2.2,1.2 -0.5,0.2 -1.1,0.6 -1.2,0.7 -0.1,0.2 -0.8,0.6 -1.6,1 -3.4,1.8 -4.7,2.6 -6.2,3.5 -0.9,0.5 -2.1,1.2 -2.6,1.5 -0.6,0.3 -1.5,0.8 -2.2,1.3 -0.7,0.4 -1.6,1 -2.2,1.2 -0.5,0.2 -1.1,0.6 -1.2,0.7 -0.3,0.4 -2.4,1.6 -3.7,2.1 -0.6,0.2 -1.1,0.6 -1.1,0.8 0,0.2 -0.2,0.4 -0.5,0.4 -0.3,0 -1.5,0.6 -2.6,1.4 -1.2,0.8 -2.3,1.4 -2.5,1.4 -0.2,0 -1.1,0.5 -2.1,1.2 -2,1.3 -5.7,3.4 -7.1,4.1 -0.5,0.2 -1.7,0.9 -2.7,1.6 -1,0.7 -2.1,1.3 -2.5,1.4 -0.5,0.1 -0.8,0.4 -0.8,0.6 0,0.7 -2.7,0.9 -3.7,0.3 -0.6,-0.3 -2.1,-1.1 -3.3,-1.7 -1.3,-0.7 -2.4,-1.3 -2.5,-1.5 -0.1,-0.2 -0.7,-0.5 -1.2,-0.7 -0.5,-0.2 -1.3,-0.7 -1.8,-0.9 -3.4,-2.2 -4.9,-3.1 -5.3,-3.1 -0.3,0 -0.5,-0.2 -0.5,-0.4 0,-0.2 -0.5,-0.6 -1.1,-0.8 -1,-0.4 -1.1,-0.4 -0.8,-3.5 0.5,-5.4 0.1,-10.4 -0.8,-12 -0.3,-0.5 -0.6,-1.2 -0.6,-1.7 0,-0.5 -0.3,-1 -0.6,-1.3 -0.3,-0.3 -0.6,-0.7 -0.6,-1 0,-1 -5.5,-7.4 -6.4,-7.4 -0.2,0 -0.4,-0.2 -0.6,-0.5 -0.3,-0.7 -5.8,-3.5 -6.9,-3.5 -0.4,0 -1,-0.2 -1.3,-0.5 -0.8,-0.8 -9.7,-0.9 -11.3,-0.1 -0.7,0.4 -1.6,0.6 -2,0.6 -1.1,0 -4.3,1.5 -6.2,3 -2.6,2 -4.9,4.1 -4.9,4.6 0,0.2 -0.2,0.4 -0.4,0.4 -0.5,0 -3.6,5.4 -3.6,6.2 0,0.4 -0.3,1.1 -0.6,1.6 -1,1.4 -1,12.5 0,14 0.4,0.5 0.7,1.3 0.7,1.6 0,2.4 7.1,11.2 9.7,12.1 0.4,0.1 1.1,0.5 1.4,0.8 0.3,0.3 0.8,0.5 1.2,0.5 0.3,0 1.1,0.2 1.7,0.6 4.2,2.2 13.1,2.2 17.5,0 2.4,-1.2 3.7,-1.9 4.7,-2.5 0.7,-0.4 1.2,-0.5 1.4,-0.3 0.4,0.5 2.8,2.2 3.1,2.2 0.2,0 0.6,0.3 0.9,0.6 0.3,0.3 1.5,1 2.6,1.6 1.1,0.6 2.5,1.4 3.2,1.8 0.7,0.4 1.7,1 2.4,1.4 0.7,0.3 2.6,1.4 4.4,2.3 l 3.2,1.7 0.1,67 0.1,67 1.1,0.7 c 0.6,0.4 1.9,1.2 2.9,1.7 1,0.5 2.6,1.5 3.5,2.1 0.9,0.6 1.9,1.2 2.1,1.2 0.2,0 0.9,0.4 1.4,0.8 0.6,0.4 1.3,0.8 1.6,0.8 0.3,0 0.5,0.2 0.5,0.4 0,0.2 0.5,0.6 1.1,0.8 1.5,0.6 5.6,3 6.2,3.6 0.3,0.3 0.8,0.5 1.2,0.5 0.4,0 0.7,0.2 0.7,0.3 0,0.2 0.9,0.8 1.9,1.3 3.9,2.1 4.7,2.5 4.8,2.8 0.1,0.2 1.2,0.8 2.6,1.5 2.7,1.4 3.3,1.7 5.7,3.2 0.9,0.6 2,1.2 2.6,1.5 0.6,0.3 1.5,0.8 2.2,1.3 0.7,0.5 2.1,1.3 3.2,1.8 1.1,0.6 2.3,1.3 2.6,1.6 0.3,0.3 0.8,0.6 0.9,0.6 0.3,0 5.4,2.9 7.8,4.4 0.3,0.2 1.1,0.6 1.6,0.9 0.5,0.3 1.7,0.9 2.6,1.5 2.5,1.6 3.1,2 4.2,2.4 0.5,0.2 1.7,0.9 2.6,1.5 0.9,0.6 1.9,1.2 2.2,1.4 0.3,0.2 1.3,0.7 2.2,1.2 0.9,0.5 2.4,1.4 3.4,1.9 1,0.5 2.5,1.4 3.4,2 1.4,0.9 2.1,1.3 4.8,2.7 0.4,0.2 1.3,0.8 2,1.2 0.7,0.4 2.3,1.3 3.7,2 1.4,0.7 2.5,1.4 2.6,1.5 0.1,0.2 1,0.7 2,1.3 2.5,1.3 3.8,2 5.7,3.2 0.9,0.6 1.9,1.1 2.2,1.3 0.3,0.2 1.3,0.7 2.2,1.3 0.9,0.5 2,1.2 2.6,1.4 0.5,0.2 1.1,0.6 1.2,0.7 0.1,0.2 0.7,0.5 1.2,0.8 0.6,0.3 1.5,0.8 2.2,1.3 0.7,0.4 2.2,1.3 3.4,1.9 1.2,0.6 2.3,1.3 2.4,1.4 0.1,0.2 0.7,0.5 1.2,0.7 1.4,0.6 2.8,1.4 3.3,2 0.9,0.9 4.5,0.1 5.5,-1.2 0.1,-0.1 1.3,-0.8 2.6,-1.5 1.3,-0.7 2.9,-1.6 3.6,-2 0.7,-0.4 1.6,-0.9 2,-1.2 0.4,-0.2 1.5,-0.9 2.4,-1.4 0.9,-0.5 2,-1.2 2.4,-1.4 0.4,-0.2 1.3,-0.8 2,-1.2 0.7,-0.4 1.6,-1 2.2,-1.2 0.5,-0.2 1.8,-1 2.7,-1.6 1,-0.7 1.9,-1.2 2.1,-1.2 0.2,0 1.2,-0.5 2.1,-1.2 1,-0.7 2.2,-1.4 2.8,-1.6 0.6,-0.2 1.1,-0.6 1.1,-0.8 0,-0.2 0.3,-0.4 0.8,-0.4 0.5,0 0.9,-0.2 1,-0.4 0.1,-0.2 0.8,-0.7 1.5,-1 0.7,-0.3 1.8,-0.9 2.5,-1.4 0.7,-0.4 1.7,-1 2.3,-1.2 0.6,-0.2 1.1,-0.6 1.1,-0.8 0,-0.2 0.5,-0.5 1.1,-0.8 0.6,-0.2 1.6,-0.8 2.3,-1.2 0.7,-0.4 1.6,-1 2.2,-1.2 0.5,-0.2 1.1,-0.6 1.2,-0.7 0.1,-0.2 1.1,-0.7 2.2,-1.3 1.1,-0.5 2.9,-1.6 4,-2.3 1.1,-0.7 2.2,-1.3 2.5,-1.3 0.3,0 0.5,-0.2 0.5,-0.4 0,-0.2 0.5,-0.6 1.1,-0.8 1.7,-0.7 3.4,-1.7 4,-2.3 0.3,-0.3 0.7,-0.5 0.9,-0.5 0.2,0 1.1,-0.5 2.1,-1.1 2.1,-1.4 3.5,-2.2 6.2,-3.5 1.2,-0.6 2.1,-1.2 2.1,-1.4 0,-0.2 0.3,-0.4 0.7,-0.4 0.4,0 1,-0.3 1.3,-0.6 0.7,-0.6 4.5,-2.8 6,-3.5 0.5,-0.2 1.1,-0.6 1.2,-0.7 0.1,-0.2 0.7,-0.5 1.2,-0.8 0.6,-0.3 1.5,-0.8 2.2,-1.3 1.1,-0.7 2.8,-1.7 6.6,-3.7 0.8,-0.4 1.9,-1.1 2.6,-1.5 0.7,-0.4 2.1,-1.2 3.2,-1.8 1.1,-0.6 2.3,-1.3 2.6,-1.6 0.3,-0.3 1,-0.6 1.5,-0.8 0.5,-0.1 0.9,-0.4 0.9,-0.6 0,-0.2 0.4,-0.5 0.9,-0.6 0.5,-0.2 1.6,-0.7 2.5,-1.3 0.9,-0.6 2.3,-1.4 3.2,-1.9 0.9,-0.5 2.2,-1.2 3,-1.6 0.8,-0.4 1.6,-1 1.9,-1.3 0.6,-0.6 3.1,-0.7 3.5,-0.1 0.1,0.2 1.3,0.9 2.5,1.5 1.3,0.6 2.4,1.2 2.5,1.4 0.2,0.3 1.9,1.2 3.5,2 0.5,0.2 1.7,0.9 2.6,1.5 0.9,0.6 1.9,1.2 2.1,1.3 3.5,1.8 4.3,3.4 2.8,6 -0.7,1.2 -0.7,4 -0.2,6.2 0.2,0.9 0.6,2.4 0.8,3.4 1,4.7 5.3,10.8 9.4,13.5 0.6,0.4 1.2,0.8 1.3,0.9 0.6,0.6 3.7,2 4.5,2 0.5,0 1.3,0.3 1.7,0.6 1.1,0.8 11.7,0.8 12.8,0 0.4,-0.3 1.1,-0.6 1.5,-0.6 0.8,0 5.8,-2.6 6.8,-3.6 0.4,-0.4 1.6,-1.6 2.8,-2.7 6.2,-5.9 8.6,-18.8 4.7,-25.7 -0.2,-0.3 -0.7,-1.4 -1.2,-2.4 -1.9,-3.9 -9.2,-10.4 -11.7,-10.4 -0.4,0 -1,-0.3 -1.3,-0.6 -1.3,-1.3 -13.7,-1.3 -16.1,-0.1 -0.6,0.3 -2.1,1 -3.4,1.6 -1.3,0.6 -2.4,1.2 -2.5,1.4 -0.1,0.2 -1,-0.1 -2,-0.8 -1,-0.6 -2.2,-1.4 -2.7,-1.6 -1,-0.5 -1.7,-0.8 -4.3,-2.5 -0.9,-0.6 -2.1,-1.3 -2.6,-1.5 -0.5,-0.2 -1.4,-0.7 -2.1,-1.2 -0.7,-0.4 -2.2,-1.3 -3.4,-1.9 -1.2,-0.6 -2.5,-1.4 -2.9,-1.7 -0.7,-0.5 -0.7,-4.3 -0.7,-67.5 v -66.9 l -1.5,-0.9 c -1.5,-0.9 -3.4,-2 -6.1,-3.4 -0.8,-0.4 -1.5,-0.8 -1.6,-1 -0.2,-0.3 -5.6,-3.3 -6.4,-3.7 -0.3,-0.1 -1.1,-0.6 -1.8,-1.1 -0.7,-0.4 -1.6,-1 -2.2,-1.2 -0.5,-0.2 -1.8,-1 -2.7,-1.6 -1,-0.7 -1.9,-1.2 -2.1,-1.2 -0.2,0 -1.3,-0.6 -2.5,-1.4 -1.2,-0.8 -2.4,-1.4 -2.6,-1.4 -0.2,0 -0.5,-0.2 -0.5,-0.4 0,-0.2 -0.4,-0.5 -0.8,-0.6 -0.5,-0.1 -1.6,-0.8 -2.5,-1.4 -0.9,-0.6 -2.1,-1.3 -2.7,-1.6 -0.5,-0.2 -1.7,-0.9 -2.6,-1.4 -0.9,-0.6 -2,-1.2 -2.5,-1.4 -0.5,-0.2 -1,-0.6 -1.1,-0.8 -0.1,-0.2 -0.6,-0.4 -1,-0.4 -0.4,0 -0.8,-0.2 -0.8,-0.3 0,-0.2 -0.9,-0.8 -1.9,-1.3 -3.8,-2 -4.7,-2.5 -4.9,-2.8 -0.2,-0.3 -3.6,-2.2 -5.8,-3.3 -0.7,-0.3 -1.7,-1 -2.4,-1.4 -0.7,-0.4 -1.6,-1 -2.2,-1.3 -0.6,-0.3 -1.7,-0.9 -2.6,-1.5 -1.7,-1.1 -2.1,-1.3 -5.4,-3.1 -1.2,-0.7 -3,-1.7 -3.9,-2.3 -2.6,-1.6 -5.8,-3.4 -7,-3.9 -0.6,-0.2 -1.1,-0.6 -1.1,-0.8 0,-0.2 -0.3,-0.4 -0.7,-0.6 -0.4,-0.2 -1.4,-0.7 -2.3,-1.2 -0.9,-0.5 -2.3,-1.3 -3.2,-1.8 -0.9,-0.5 -2.6,-1.5 -3.7,-2.2 -1.2,-0.8 -2.3,-1.4 -2.5,-1.4 -0.2,0 -1.3,-0.6 -2.5,-1.4 -1.2,-0.8 -2.4,-1.4 -2.6,-1.4 -0.2,0 -0.5,-0.2 -0.5,-0.4 0,-0.2 -0.5,-0.6 -1.1,-0.8 -0.6,-0.3 -1.6,-0.8 -2.3,-1.2 -0.7,-0.4 -1.7,-1 -2.4,-1.4 -0.7,-0.4 -1.7,-1 -2.4,-1.5 -0.7,-0.5 -2.2,-1.3 -3.4,-1.9 -1.2,-0.6 -2.3,-1.2 -2.4,-1.3 -0.3,-0.3 -5.9,-3.6 -6.1,-3.6 -0.1,0 -1,-0.5 -2,-1.2 -1.8,-1.1 -2.1,-1.1 -4.2,0.1 m 4.6,1.3 c 0.6,0.4 1.7,1 2.6,1.5 0.9,0.4 2.4,1.3 3.3,1.9 2.5,1.6 5.7,3.4 7,3.9 0.6,0.2 1.1,0.6 1.1,0.8 0,0.2 0.5,0.5 1.1,0.8 0.6,0.3 1.6,0.8 2.3,1.2 0.7,0.4 1.5,0.9 1.8,1 0.3,0.1 0.9,0.4 1.2,0.6 0.3,0.2 2.4,1.4 4.7,2.8 2.2,1.3 4.3,2.4 4.5,2.4 0.2,0 0.4,0.2 0.4,0.4 0,0.2 0.9,0.8 2.1,1.4 1.2,0.6 2.8,1.5 3.7,2 0.9,0.5 2,1.1 2.4,1.4 2.2,1.1 5.3,2.9 5.8,3.4 0.3,0.3 0.8,0.6 0.9,0.6 0.3,0 4.1,2.2 9,5.2 0.8,0.5 1.8,1.1 2.4,1.3 0.5,0.3 1.3,0.7 1.6,1 0.3,0.3 1.5,1 2.6,1.5 1.1,0.6 2.5,1.4 3.2,1.8 0.7,0.4 1.5,0.9 1.8,1 0.6,0.2 6.7,3.7 8,4.6 0.3,0.2 1.1,0.6 1.6,0.9 0.6,0.3 1.1,0.6 1.2,0.8 0.1,0.2 0.7,0.5 1.2,0.7 0.5,0.2 1.5,0.8 2.2,1.2 0.7,0.4 1.6,1 2.2,1.2 0.5,0.2 1.1,0.6 1.2,0.7 0.1,0.2 0.7,0.5 1.2,0.8 0.5,0.3 1.3,0.7 1.6,0.9 0.3,0.2 2.7,1.6 5.2,3 2.5,1.4 4.9,2.8 5.2,3 0.3,0.2 1,0.6 1.6,0.9 0.9,0.5 3.2,1.8 5,3 0.4,0.3 1.4,0.8 2.1,1.1 0.7,0.3 1.4,0.8 1.5,1 0.1,0.2 0.6,0.4 1,0.4 0.4,0 0.9,0.3 1,0.6 0.1,0.3 0.4,0.6 0.7,0.6 0.3,0 1.4,0.6 2.6,1.4 1.2,0.8 2.3,1.4 2.5,1.4 0.2,0 1.3,0.6 2.5,1.4 1.2,0.8 2.4,1.5 2.8,1.6 0.7,0.2 0.7,3.6 0.7,66.7 0,36.6 0.1,66.9 0.2,67.4 0.2,0.6 1.1,1.3 2.8,2.2 4,2.1 4.6,2.4 6.3,3.5 0.9,0.6 2.4,1.5 3.4,2 1,0.5 2.6,1.5 3.5,2.1 0.9,0.6 1.9,1.1 2.1,1.1 0.2,0 0.6,0.3 0.8,0.6 0.5,0.7 3,0.8 3.4,0.2 0.3,-0.4 4.3,-2.4 4.9,-2.4 0.2,0 0.9,-0.3 1.6,-0.6 1.8,-0.9 11.7,-0.6 13.4,0.4 0.7,0.4 1.5,0.7 1.8,0.7 0.3,0 0.8,0.2 1,0.4 0.2,0.2 1.1,0.8 2.1,1.3 1.8,1 6.1,4.9 6.1,5.5 0,0.2 0.2,0.5 0.5,0.7 3.7,2.3 5.5,15.6 2.9,21.5 -0.3,0.7 -0.6,1.5 -0.8,1.9 -2.4,7.5 -15.2,14.7 -23.2,13.1 -5.2,-1 -6.4,-1.3 -6.9,-1.9 -0.3,-0.3 -0.8,-0.6 -1.1,-0.6 -2.5,0 -11,-9.1 -11,-11.7 0,-0.3 -0.3,-0.9 -0.7,-1.5 -0.6,-0.9 -0.7,-2 -0.7,-8.2 v -7.2 l -1.6,-1.1 c -0.9,-0.6 -1.8,-1.1 -2.1,-1.1 -0.3,0 -0.5,-0.2 -0.5,-0.4 0,-0.2 -0.4,-0.5 -0.8,-0.6 -0.4,-0.1 -1.7,-0.9 -2.9,-1.6 -1.1,-0.8 -2.3,-1.4 -2.6,-1.4 -0.3,0 -0.5,-0.2 -0.5,-0.4 0,-0.2 -0.4,-0.5 -0.9,-0.6 -0.5,-0.1 -1.9,-0.9 -3.2,-1.6 -3,-1.8 -4.5,-1.8 -7.6,0 -1.3,0.8 -2.5,1.4 -2.5,1.4 -0.1,0 -0.9,0.5 -1.9,1.2 -1,0.7 -2.2,1.4 -2.7,1.6 -0.5,0.2 -1.5,0.8 -2.2,1.2 -0.7,0.4 -1.5,0.9 -1.8,1.1 -1.3,0.6 -6.2,3.5 -6.3,3.8 -0.1,0.2 -0.3,0.3 -0.5,0.3 -0.2,0 -2.9,1.5 -6.1,3.3 -3.1,1.8 -6,3.5 -6.3,3.6 -0.3,0.2 -1.3,0.7 -2.2,1.3 -0.9,0.5 -2,1.2 -2.4,1.4 -0.4,0.2 -1.3,0.8 -2,1.2 -0.7,0.4 -1.6,1 -2,1.1 -0.8,0.4 -11.4,6.5 -12.6,7.3 -0.3,0.2 -1.1,0.7 -1.8,1 -0.7,0.3 -1.7,1 -2.4,1.4 -0.7,0.4 -1.6,1 -2.2,1.2 -0.5,0.2 -1.1,0.6 -1.2,0.7 -0.1,0.2 -0.7,0.5 -1.2,0.8 -1.6,0.8 -5.4,3 -5.6,3.3 -0.1,0.1 -0.6,0.5 -1.2,0.7 -0.5,0.3 -2.1,1.1 -3.4,1.9 -1.3,0.8 -3.3,1.9 -4.4,2.4 -1.1,0.6 -2.3,1.3 -2.6,1.6 -0.3,0.3 -1,0.6 -1.5,0.8 -0.5,0.2 -0.9,0.4 -0.9,0.6 0,0.2 -0.2,0.4 -0.5,0.4 -0.3,0 -1.4,0.6 -2.5,1.3 -1.1,0.7 -2.9,1.7 -4,2.3 -1.8,0.9 -4,2.2 -6,3.5 -0.4,0.3 -1.3,0.8 -2,1.1 -0.7,0.3 -1.7,1 -2.4,1.4 -0.7,0.4 -1.6,1 -2,1.2 -1,0.5 -2.6,1.5 -8.8,5 l -4.8,2.8 -2.6,-1.4 c -1.5,-0.8 -2.7,-1.5 -2.8,-1.6 -0.2,-0.3 -3.9,-2.4 -5.6,-3.2 -0.6,-0.3 -1.1,-0.6 -1.2,-0.8 -0.1,-0.2 -0.7,-0.5 -1.2,-0.7 -0.5,-0.2 -1.5,-0.8 -2.2,-1.2 -0.7,-0.4 -1.7,-1.1 -2.4,-1.4 -0.7,-0.3 -1.5,-0.8 -1.8,-1 -1.2,-0.8 -7.5,-4.4 -7.7,-4.4 -0.1,0 -1.2,-0.6 -2.3,-1.4 -1.2,-0.8 -2.9,-1.8 -3.7,-2.2 -0.8,-0.4 -2.1,-1.2 -2.8,-1.6 -0.7,-0.4 -1.7,-1 -2.4,-1.4 -0.7,-0.3 -1.7,-1 -2.4,-1.4 -0.7,-0.4 -1.5,-0.9 -1.8,-1.1 -0.3,-0.1 -2.7,-1.5 -5.3,-3 -2.6,-1.5 -4.8,-2.7 -5.1,-2.7 -0.2,0 -0.5,-0.1 -0.5,-0.3 -0.1,-0.3 -5,-3.2 -6.3,-3.8 -0.3,-0.1 -1.1,-0.6 -1.8,-1.1 -0.7,-0.4 -1.5,-0.9 -1.8,-1.1 -0.3,-0.1 -2.7,-1.5 -5.3,-3 -2.6,-1.5 -4.9,-2.7 -5.1,-2.7 -0.2,0 -0.4,-0.2 -0.4,-0.4 0,-0.2 -0.5,-0.6 -1.1,-0.8 -0.6,-0.2 -1.6,-0.8 -2.3,-1.2 -0.7,-0.4 -1.7,-1 -2.2,-1.3 -0.5,-0.3 -1.1,-0.6 -1.2,-0.8 -0.1,-0.2 -0.7,-0.5 -1.2,-0.7 -1.5,-0.7 -5.3,-2.8 -6,-3.5 -0.3,-0.3 -0.8,-0.6 -0.9,-0.6 -0.3,0 -5.4,-2.9 -7.8,-4.4 -0.3,-0.2 -1.1,-0.6 -1.6,-0.9 -0.6,-0.3 -1.1,-0.6 -1.2,-0.7 -0.1,-0.1 -0.6,-0.4 -1.2,-0.7 -0.6,-0.3 -1.5,-0.9 -2.2,-1.3 -0.7,-0.4 -1.7,-1 -2.3,-1.2 -0.6,-0.2 -1.1,-0.6 -1.1,-0.8 0,-0.2 -0.2,-0.4 -0.4,-0.4 -0.2,0 -2.1,-1 -4.2,-2.2 -2.1,-1.2 -3.9,-2.2 -4.1,-2.2 -0.2,0 -0.5,-0.2 -0.5,-0.3 -0.1,-0.4 -3.9,-2.6 -5.6,-3.4 l -1.1,-0.5 -0.1,-67.2 -0.1,-67.2 -1.6,-0.9 c -0.9,-0.5 -2.9,-1.6 -4.4,-2.4 -1.5,-0.9 -3.3,-1.8 -3.9,-2.2 -0.6,-0.3 -2.3,-1.4 -3.9,-2.3 -1.5,-0.9 -3,-1.7 -3.2,-1.7 -0.2,0 -0.4,-0.1 -0.4,-0.3 0,-0.2 -0.8,-0.8 -1.8,-1.3 l -1.8,-1 -1.5,0.8 c -0.8,0.4 -1.9,1.1 -2.5,1.5 -0.5,0.4 -1.3,0.7 -1.6,0.7 -0.4,0 -1.2,0.3 -1.8,0.6 -2.5,1.2 -12.7,1.1 -14.3,-0.1 -0.2,-0.2 -1,-0.5 -1.7,-0.6 -0.7,-0.1 -1.5,-0.5 -1.7,-0.8 -0.2,-0.3 -0.7,-0.6 -0.9,-0.6 -1.1,0 -5.2,-3.8 -7.1,-6.6 -5.2,-7.7 -5.5,-21.7 -0.5,-25.8 0.3,-0.3 0.6,-0.6 0.6,-0.8 0,-1.2 7.5,-7.5 8.8,-7.5 0.2,0 0.9,-0.3 1.5,-0.6 1.9,-1 6.9,-1.9 9.5,-1.7 3.3,0.3 7.2,1.2 7.8,1.8 0.3,0.3 0.8,0.5 1.1,0.5 2,0 8.4,5.8 10,9 0.5,1 1,1.9 1.2,2 0.2,0.1 0.5,0.8 0.6,1.5 0.1,0.7 0.5,2 0.9,2.9 0.6,1.5 0.6,5.4 0,11.7 -0.1,1.5 1.7,3.1 6.3,5.5 1.1,0.6 2.3,1.3 2.6,1.5 0.3,0.2 0.9,0.6 1.2,0.8 0.3,0.1 1.7,0.9 3,1.6 1.3,0.7 3.2,1.7 4.2,2.2 l 1.8,0.9 2.8,-1.5 c 3,-1.5 3.2,-1.7 6.4,-3.7 1.1,-0.7 2.2,-1.3 2.3,-1.3 0.2,0 1.1,-0.5 2,-1.1 2.1,-1.4 3.5,-2.2 6.2,-3.5 1.2,-0.6 2.1,-1.2 2.1,-1.3 0,-0.2 0.5,-0.5 1.1,-0.8 0.6,-0.3 2.2,-1.1 3.5,-1.9 1.3,-0.8 2.9,-1.7 3.6,-2 0.7,-0.3 1.7,-1 2.4,-1.4 0.7,-0.4 2.1,-1.3 3.2,-1.8 1.1,-0.6 2.8,-1.6 3.7,-2.2 0.9,-0.6 1.9,-1.2 2.1,-1.2 0.2,0 1.1,-0.5 2.1,-1.2 0.9,-0.6 2.7,-1.7 3.9,-2.3 1.2,-0.6 2.8,-1.5 3.6,-2 0.8,-0.5 1.8,-1.1 2.3,-1.3 0.4,-0.2 1.3,-0.8 2,-1.2 0.7,-0.4 1.7,-1.1 2.4,-1.4 0.7,-0.3 1.5,-0.8 1.8,-1 1,-0.7 9.6,-5.6 9.8,-5.6 0.1,0 0.9,-0.5 1.9,-1.2 1,-0.7 2.2,-1.4 2.7,-1.6 1.4,-0.6 5.1,-2.7 7.1,-4.1 0.9,-0.6 1.8,-1.2 1.9,-1.2 0.1,0 1.7,-0.9 3.5,-2 1.8,-1.1 3.4,-2 3.5,-2 0.1,0 1,-0.5 2,-1.2 1,-0.7 2.2,-1.4 2.7,-1.6 0.5,-0.2 1.5,-0.8 2.2,-1.2 0.7,-0.4 1.5,-0.9 1.8,-1.1 0.3,-0.1 2.6,-1.4 5,-2.8 2.4,-1.4 4.7,-2.7 5.2,-3 0.9,-0.4 1.6,-0.8 4.2,-2.5 3,-1.9 4.2,-2 6.3,-0.6 m -12,26.2 c -4.1,4.9 -7.4,9.4 -12.3,16.7 -1.7,2.5 -3.4,5.1 -3.7,5.6 -0.4,0.6 -1.1,1.7 -1.5,2.6 -0.5,0.9 -1.2,2.2 -1.7,3 -0.5,0.8 -1.3,2.3 -1.8,3.4 -0.5,1.1 -1.1,2.3 -1.3,2.6 -0.9,1.6 -4.2,8.5 -5.6,11.8 -0.5,1.1 -1,2.3 -1.2,2.7 -0.2,0.4 -0.4,0.9 -0.4,1.1 0,0.2 -0.3,1 -0.6,1.7 -1.7,3.7 -4,11.2 -3.7,12 0.3,0.7 2.9,1.4 7.3,1.9 2,0.2 4.9,0.6 6.4,0.8 8.9,1.3 21.5,1.9 22.2,1.1 0.6,-0.7 0.4,-68.3 -0.2,-68.5 -0.3,-0.1 -1.1,0.6 -1.9,1.5 m 17,-0.8 c -0.1,0.3 -0.1,15.7 -0.1,34.3 l 0.1,33.8 h 3.4 c 4,0 15.6,-0.9 18.8,-1.5 1.2,-0.2 3.7,-0.5 5.5,-0.7 4.5,-0.5 7.7,-1.2 8,-1.9 0.2,-0.5 -1.3,-5.9 -1.9,-6.7 -0.2,-0.2 -0.4,-1 -0.6,-1.8 -0.2,-0.8 -0.5,-1.8 -0.8,-2.2 -0.3,-0.4 -0.5,-1 -0.5,-1.3 0,-0.5 -0.6,-1.9 -2,-5.1 -0.2,-0.4 -0.8,-1.9 -1.3,-3.2 -1,-2.5 -7.1,-14.6 -8.5,-16.9 -1.2,-2 -3.3,-5.5 -3.9,-6.3 -0.3,-0.4 -1.3,-2 -2.4,-3.5 -1,-1.5 -1.9,-2.8 -1.9,-3 0,-0.1 -0.9,-1.3 -1.9,-2.7 -1,-1.3 -2.2,-2.9 -2.6,-3.5 -0.4,-0.6 -0.9,-1.3 -1.2,-1.6 -0.3,-0.3 -1.7,-2 -3.1,-3.7 -2.7,-3.2 -2.8,-3.3 -3.1,-2.5 m -42.4,9.1 c -0.2,0.2 -1.4,0.9 -2.8,1.7 -2.8,1.6 -6.1,3.4 -8.1,4.7 -0.8,0.5 -1.7,1 -2.1,1.2 -0.3,0.2 -2.4,1.4 -4.6,2.7 -2.2,1.3 -4.4,2.5 -4.8,2.7 -0.9,0.4 -1.6,0.8 -4.1,2.5 -0.9,0.6 -2.1,1.3 -2.6,1.5 -0.5,0.2 -1.2,0.6 -1.5,0.8 -1.2,0.8 -12.4,7.2 -12.5,7.2 -0.1,0 -1.1,0.6 -2.3,1.4 -1.2,0.8 -2.9,1.8 -3.7,2.2 -0.9,0.4 -2.2,1.2 -3,1.6 -0.8,0.5 -2.2,1.3 -3.2,1.8 -1,0.5 -2.1,1.2 -2.4,1.4 -0.3,0.2 -1.4,0.9 -2.4,1.4 -4.7,2.5 -5.9,3.8 -4.1,4.5 1.9,0.8 3.9,1.6 5,2.2 0.6,0.3 1.3,0.5 1.6,0.5 0.3,0 1.8,0.5 3.4,1.1 2.8,1.2 8.8,3.2 14,4.8 1.5,0.5 3.4,1 4.1,1.3 3.8,1.2 10.4,2.8 11.9,2.9 1.3,0.1 2.5,-1.7 2.6,-3.5 0,-0.4 0.3,-1.3 0.6,-1.9 0.3,-0.6 0.7,-1.7 0.8,-2.4 0.2,-0.7 0.4,-1.6 0.6,-1.9 0.2,-0.3 0.7,-1.7 1.2,-3 1,-2.6 2.2,-5.9 2.8,-7.2 3,-7.1 7.3,-15.6 11.2,-22.2 1.9,-3.2 3.8,-6.3 4.3,-7 1.1,-1.9 1.4,-4.3 0.1,-3 m 67.8,-0.2 c 0,0.1 0.8,1.3 1.7,2.7 1,1.4 2.8,4.3 4,6.5 1.2,2.2 2.5,4.3 2.7,4.6 1.6,2.6 10,20.1 10,20.8 0,0.2 0.3,0.9 0.6,1.5 0.7,1.3 3.4,8.9 3.4,9.6 0,0.2 0.3,1 0.6,1.8 0.3,0.7 0.8,2.1 1,3 0.6,2.2 1.2,2.3 5.9,1.1 2.2,-0.6 4.6,-1.2 5.3,-1.4 0.8,-0.2 1.9,-0.5 2.4,-0.7 0.5,-0.2 2.1,-0.7 3.4,-1.1 3.8,-1.1 7.5,-2.3 8.6,-2.7 1.2,-0.5 6.4,-2.4 8.4,-3.1 1.6,-0.6 4.7,-1.9 5.7,-2.4 0.4,-0.2 0.9,-0.4 1.2,-0.4 1.1,0 2,-1 1.7,-1.9 -0.2,-0.5 -0.4,-0.9 -0.6,-0.9 -0.2,0 -3,-1.5 -6.2,-3.4 -3.2,-1.9 -6,-3.4 -6.1,-3.4 -0.1,0 -0.5,-0.3 -0.9,-0.6 -0.3,-0.3 -1.5,-1 -2.6,-1.6 -1.1,-0.6 -2.3,-1.2 -2.6,-1.4 -2.2,-1.4 -14.4,-8.4 -14.7,-8.4 -0.2,0 -0.6,-0.3 -0.9,-0.6 -0.3,-0.3 -1.5,-1 -2.6,-1.6 -1.1,-0.6 -2.5,-1.4 -3.2,-1.8 -0.7,-0.4 -2,-1.2 -3,-1.7 -1,-0.5 -2.6,-1.5 -3.6,-2.1 -1.6,-1 -3.2,-1.9 -6.6,-3.8 -0.7,-0.4 -1.9,-1.1 -2.8,-1.6 -0.9,-0.5 -2,-1.2 -2.6,-1.5 -0.6,-0.3 -1.5,-0.8 -2.2,-1.3 -2.7,-1.7 -5.4,-2.8 -5.4,-2.2 M 67.8,124 c -8.7,4.7 -5.6,18 4.1,18 3.1,0 8.4,-3.1 8.4,-5 0,-0.2 0.4,-1.2 0.8,-2 1,-2 1,-2 0.1,-4.7 -1.7,-5.9 -8.3,-9 -13.4,-6.3 m 53.2,48.1 c -0.6,4 0,46.3 0.6,46.7 0.4,0.2 9.1,0.4 21.7,0.4 h 21.1 l 0.6,-0.9 c 0.4,-0.6 0.7,-3 1,-8 0.2,-3.9 0.5,-7.3 0.6,-7.4 0.1,-0.2 0.4,-2 0.6,-4.1 0.2,-2.1 0.7,-5.1 1,-6.8 1,-5.2 -0.2,-7 -4.6,-7.1 -0.7,0 -10.5,-2.7 -12.4,-3.4 -0.8,-0.3 -2.8,-1 -4.6,-1.5 -3.4,-1.1 -4.1,-1.3 -9.2,-3.2 -4,-1.4 -8.3,-3.2 -11,-4.4 -1.5,-0.7 -4.7,-1.9 -5,-1.9 -0.1,-0.1 -0.3,0.7 -0.4,1.6 m 214.8,-0.4 c -1.5,0.7 -3.3,1.5 -4,1.8 -2.5,1.1 -8.6,3.4 -9.2,3.4 -0.3,0 -0.7,0.1 -0.8,0.3 -0.1,0.2 -2.6,1.1 -5.5,2 -2.9,0.9 -5.9,2 -6.6,2.3 -0.7,0.3 -1.6,0.6 -1.9,0.6 -0.3,0 -1.6,0.3 -2.9,0.8 -1.3,0.4 -3.5,1.1 -4.9,1.4 -1.4,0.4 -3.4,0.9 -4.4,1.2 -1,0.3 -2.3,0.7 -2.9,0.8 -0.9,0.2 -1.1,0.4 -0.8,0.9 0.4,0.9 1.3,6.2 2.8,16.1 0.3,2.3 0.7,6.7 0.9,9.6 0.2,4.2 0.4,5.5 0.9,5.9 1.2,1 42.7,0.7 43.3,-0.3 0.7,-1.4 0.4,-47.8 -0.4,-47.9 -0.5,-0.1 -2.1,0.4 -3.6,1.1 m -265.5,3 c 0.9,0.1 2.4,0.1 3.2,0 0.8,-0.1 0,-0.2 -1.7,-0.2 -1.8,0 -2.4,0.1 -1.5,0.2 m 206.1,14.6 c -0.5,0.2 -2.3,0.5 -3.8,0.7 -1.5,0.2 -4.7,0.6 -7,0.9 -6.8,1 -13.3,1.6 -20.6,1.8 l -6.8,0.2 v 5.1 5.1 l 2,0.9 c 5,2.2 9.2,6.3 11.6,11.3 1.9,4 0.6,3.7 15.6,3.7 16,0 14.9,0.4 14.2,-5.3 -0.2,-1.8 -0.6,-5 -0.8,-7 -0.7,-6.9 -2.4,-16.3 -3.1,-17.5 -0.2,-0.2 -0.6,-0.2 -1.3,0.1 m -92.9,0.6 c -0.9,1 -1.7,4.6 -2.6,11.3 -0.1,0.8 -0.5,3.6 -0.8,6.2 -0.3,2.6 -0.6,6.3 -0.5,8.2 l 0.1,3.4 13.2,0.1 c 16.1,0.1 14.6,0.5 16.6,-3.8 2.2,-4.6 6.1,-8.5 10.6,-10.8 l 3.2,-1.6 0.1,-4.5 c 0.1,-5.9 0.4,-5.6 -6.1,-5.7 -2.9,0 -6.8,-0.2 -8.7,-0.4 -1.9,-0.2 -5.5,-0.5 -8,-0.8 -2.5,-0.2 -5.5,-0.6 -6.6,-0.8 -1.1,-0.2 -3.5,-0.6 -5.4,-0.8 -1.9,-0.2 -3.7,-0.5 -4,-0.6 -0.2,0 -0.7,0.2 -1.1,0.6 m 44.8,26.6 c -2.5,0.5 -5.8,3.7 -6.6,6.3 -2.3,7.7 5.6,14.8 12.8,11.6 10.6,-4.8 5.2,-20.3 -6.2,-17.9 m -106.7,16.7 c -0.5,0.3 -0.6,3.5 -0.6,24.5 0,26.8 -0.2,24.7 2.4,23.5 0.4,-0.2 2.4,-1 4.4,-1.8 2,-0.8 4.1,-1.7 4.8,-2 0.7,-0.3 3.1,-1.2 5.4,-2 2.3,-0.8 4.7,-1.7 5.4,-2 0.7,-0.3 2.6,-0.9 4.2,-1.4 1.6,-0.5 3.7,-1.1 4.6,-1.4 0.9,-0.3 2.6,-0.8 3.8,-1.1 1.2,-0.3 3.1,-0.9 4.2,-1.2 1.1,-0.3 2.6,-0.7 3.4,-0.9 5.5,-1.1 5.7,-1.3 4.9,-5.2 -1.3,-6.8 -2.1,-13.4 -2.9,-23.9 -0.2,-2.5 -0.6,-4.5 -0.9,-4.9 -0.5,-0.7 -41.9,-0.9 -43.1,-0.2 m 58.1,0.2 c -0.5,1.3 0.9,19 1.6,20.1 0.1,0.2 0.4,1.9 0.6,3.9 0.4,3.6 1.6,6.1 2.5,5.6 0.4,-0.3 9.5,-1.6 13.1,-2 1,-0.1 4.3,-0.4 7.4,-0.8 3.1,-0.4 8.3,-0.7 11.6,-0.8 7.4,-0.3 7,0 7,-5.6 0,-4.7 -0.3,-6.1 -1.4,-6.1 -0.7,0 -4.3,-2 -4.5,-2.5 -0.1,-0.2 -0.3,-0.3 -0.5,-0.3 -1.6,0 -5.8,-5.1 -7.9,-9.4 -0.5,-1.1 -1.2,-2.1 -1.4,-2.3 -0.9,-0.7 -27.8,-0.4 -28.1,0.2 m 74,-0.3 c -0.3,0.1 -1,1.3 -1.7,2.7 -2.4,4.9 -6.6,9.1 -11.9,11.5 l -2,0.9 v 5.4 5.4 l 5.8,0.3 c 9,0.4 21.4,1.7 30.2,3.2 1.5,0.3 3,0.5 3.2,0.5 0.9,0 2.6,-9.1 3.4,-17.8 0.2,-2.1 0.5,-5.2 0.8,-6.9 0.5,-3.7 0.3,-4.9 -0.9,-5.2 -1,-0.3 -26.2,-0.3 -26.9,0 m 42.6,0.3 c -0.4,0.4 -0.6,2.1 -0.8,5.7 -0.3,6.2 -2,18.9 -3.3,24.4 l -0.5,2.1 2,0.8 c 1.1,0.4 2.8,0.9 3.6,1 0.9,0.2 2.5,0.6 3.6,0.9 1.1,0.3 2.9,0.8 4,1.2 3.5,1 7.5,2.3 10.4,3.3 1.5,0.5 3.3,1.1 4,1.3 1.3,0.4 7.3,2.6 9.2,3.4 0.7,0.3 2.2,0.9 3.4,1.4 2.1,0.8 4.1,1.7 5.7,2.5 2.5,1.2 2.3,2.8 2.3,-23.3 0,-15.5 -0.1,-23.9 -0.4,-24.4 -0.5,-1.2 -42.2,-1.4 -43.2,-0.3 M 217,273.2 c -1.5,0.2 -5.5,0.5 -8.9,0.7 -3.4,0.2 -6.2,0.5 -6.4,0.6 -0.2,0.1 -2.4,0.4 -4.9,0.6 -2.5,0.3 -5.2,0.6 -6,0.8 -0.8,0.2 -1.9,0.5 -2.5,0.6 -1.7,0.3 -1.3,2.4 1.7,10.2 0.5,1.2 1.1,2.9 1.4,3.7 2.9,7.8 12.6,27 15.5,30.5 0.2,0.2 0.9,1.3 1.6,2.4 2.4,3.7 4,6 4.8,7 0.5,0.6 1.1,1.5 1.4,1.9 0.3,0.5 0.8,1.1 1,1.4 0.2,0.2 0.9,1.2 1.6,2 1.2,1.6 2.3,3 4.2,5.1 0.6,0.7 1.3,1.1 1.5,0.9 0.7,-0.4 0.6,-67.9 0,-68.5 -0.4,-0.3 -1.6,-0.3 -6,0.1 m 21.3,-0.2 c -0.4,0.4 -0.4,68.5 0,68.7 0.2,0.1 1.2,-0.8 2.2,-2.1 1,-1.3 2.1,-2.5 2.4,-2.9 1.5,-1.7 8.5,-11.4 10.5,-14.6 4.7,-7.4 12.1,-21.1 12.7,-23.6 0.1,-0.6 0.4,-1 0.7,-1 0.2,0 0.4,-0.3 0.4,-0.6 0,-0.3 0.3,-1.4 0.7,-2.3 0.4,-0.9 1,-2.5 1.4,-3.5 0.4,-1 0.9,-2.3 1.2,-3 1.3,-2.9 3.4,-9.9 3.3,-10.7 -0.2,-1.1 0.1,-1.1 -16.1,-3.1 -1.5,-0.2 -4.1,-0.4 -5.6,-0.4 -1.5,0 -3.5,-0.2 -4.4,-0.4 -2.2,-0.4 -9.1,-0.8 -9.4,-0.5 m -68.3,7.2 c -0.8,0.3 -1.8,0.5 -2.2,0.5 -0.4,0 -1.6,0.3 -2.6,0.6 -1,0.3 -3.1,1 -4.8,1.4 -1.6,0.5 -3.7,1.1 -4.5,1.4 -0.8,0.3 -1.9,0.6 -2.4,0.6 -0.5,0 -1.1,0.2 -1.3,0.4 -0.2,0.2 -1.3,0.7 -2.4,1 -2.5,0.7 -10.8,3.7 -12.8,4.6 -1,0.5 -4.5,1.9 -5.5,2.2 -1.4,0.4 -0.8,1.7 1.4,3 1.2,0.7 2.4,1.4 2.7,1.6 3.2,2 11.7,6.8 12,6.8 0.2,0 0.7,0.3 1.3,0.7 0.5,0.4 1.9,1.3 3.2,1.9 1.2,0.7 5.1,2.9 8.6,4.9 7.3,4.3 8.8,5.1 11.6,6.6 1.1,0.6 2.8,1.6 3.7,2.2 0.9,0.6 1.8,1.2 1.9,1.2 0.1,0 2.8,1.5 5.9,3.3 3.1,1.8 5.9,3.5 6.3,3.6 0.3,0.1 1.1,0.6 1.8,1.1 5.3,3.5 6,3 2.8,-2 -1.5,-2.3 -4.4,-7.3 -6.9,-11.8 -1.6,-2.9 -5.3,-10.6 -6.9,-14.5 -0.9,-2.1 -1.9,-4.4 -2.1,-5.1 -1.4,-3.2 -1.8,-4.3 -1.8,-4.7 0,-0.2 -0.3,-1 -0.6,-1.7 -0.7,-1.6 -1.8,-4.8 -2.3,-6.8 -1.1,-3.4 -1.6,-3.9 -4.1,-3 m 118.6,-0.1 c -0.3,0.2 -0.8,1.1 -1.1,2 -0.2,0.9 -0.7,2.3 -1,2.9 -0.3,0.7 -0.6,1.5 -0.6,1.8 0,0.6 -2.5,7.4 -3.4,9.4 -0.3,0.7 -0.6,1.4 -0.6,1.5 0,0.1 -0.5,1.4 -1.2,2.9 -0.7,1.4 -1.2,2.7 -1.2,2.8 0,0.2 -4.3,9.3 -4.8,10.2 -0.2,0.3 -1,1.9 -1.8,3.4 -1.6,3 -5.8,10.3 -6.2,10.6 -0.3,0.3 -2.8,4.4 -2.8,4.6 0,0.4 1.3,0.1 2.7,-0.7 0.8,-0.5 2.3,-1.3 3.3,-1.9 2,-1.1 13,-7.5 14,-8.1 0.3,-0.2 1.3,-0.8 2.2,-1.2 0.9,-0.5 5.2,-3 9.6,-5.5 4.4,-2.6 8.3,-4.8 8.6,-5 0.3,-0.2 1.1,-0.6 1.8,-1.1 0.7,-0.4 1.7,-1.1 2.4,-1.4 0.7,-0.3 1.7,-1 2.4,-1.4 0.7,-0.4 1.5,-0.9 1.8,-1.1 0.3,-0.1 3.2,-1.8 6.3,-3.6 3.1,-1.8 5.8,-3.3 5.9,-3.3 0.1,0 1,-0.5 2,-1.2 1,-0.7 2.2,-1.4 2.8,-1.6 1.2,-0.4 1.1,-1.9 -0.1,-2.3 -1.1,-0.4 -7.8,-2.9 -9,-3.5 -2.2,-1 -9.1,-3.4 -9.6,-3.4 -0.3,0 -1.1,-0.3 -1.9,-0.6 -0.7,-0.3 -2.7,-1 -4.3,-1.4 -1.6,-0.5 -3.8,-1.1 -4.8,-1.4 -7.4,-2.1 -10.7,-2.8 -11.4,-2.4 m 98.2,30.3 c -7.7,2.3 -9.9,11.5 -3.9,16.6 0.9,0.8 2.2,1.6 2.7,1.7 0.6,0.1 1.5,0.4 2.1,0.6 0.8,0.3 1.4,0.3 2.2,0 0.6,-0.2 1.6,-0.5 2.3,-0.7 4.9,-1.1 8,-9.3 5,-13.5 -2.7,-3.8 -7,-5.8 -10.4,-4.7 M 30,30"
     inkscape:connector-curvature="0"
     style="fill:#7ba5d8" /><path
     id="path4"
     class="st3"
     d="m 228.2,63.4 c -0.1,0.3 -0.5,0.6 -0.8,0.6 -0.3,0 -0.6,0.3 -0.6,0.8 0,0.6 -0.3,0.8 -1.4,0.8 -1,0 -1.4,0.2 -1.4,0.6 0,0.4 -0.4,0.6 -1.2,0.6 -0.8,0 -1.2,0.2 -1.2,0.6 0,0.3 -0.3,0.6 -0.8,0.6 -1.3,0 -2,0.4 -1.8,1 0.1,0.4 -0.1,0.6 -0.6,0.6 -0.5,0 -0.8,0.3 -0.8,0.6 0,0.4 -0.4,0.6 -1.2,0.6 -0.6,0 -1.3,0.3 -1.5,0.6 -0.2,0.3 -0.9,0.7 -1.5,0.7 -0.9,0.1 -1.1,0.3 -1.1,0.8 0.1,0.6 -1.1,1 -2.4,0.7 -0.2,0 -0.2,0.1 -0.1,0.4 0.1,0.2 -0.2,0.6 -0.8,0.8 -0.6,0.2 -1,0.6 -1,0.8 0,0.2 -0.5,0.4 -1.2,0.4 -0.9,0 -1.2,0.2 -1.2,0.8 0,0.7 -0.8,1.1 -2.1,0.8 -0.2,0 -0.4,0.2 -0.5,0.6 -0.1,0.4 -0.5,0.6 -0.8,0.6 -0.3,0 -0.6,0.3 -0.6,0.6 0,0.4 -0.4,0.6 -1.4,0.6 -1.1,0 -1.4,0.2 -1.4,0.8 0,0.7 -1,1.1 -2.5,0.8 -0.2,0 -0.3,0.2 -0.3,0.6 0,0.4 -0.4,0.6 -1.2,0.6 -0.9,0 -1.2,0.1 -1,0.6 0.2,0.4 0,0.6 -0.8,0.6 -0.7,0 -1,0.2 -1,0.8 0,0.6 -0.3,0.8 -1.2,0.8 -0.8,0 -1.2,0.2 -1.2,0.6 0,0.5 -1.3,0.9 -2.5,0.6 -0.2,0 -0.2,0.1 -0.1,0.4 0.2,0.4 -0.9,1 -1.6,0.8 -0.4,-0.1 -1.3,1 -1.1,1.3 0.1,0.2 -0.2,0.3 -0.6,0.3 -0.5,0 -0.8,0.3 -0.8,0.6 0,0.4 -0.4,0.6 -1.2,0.6 -0.7,0 -1.3,0.3 -1.4,0.6 -0.1,0.4 -0.7,0.6 -1.5,0.6 -0.7,0 -1.1,0.1 -1,0.3 0.4,0.6 -0.4,1.3 -1.5,1.4 -0.6,0.1 -1.2,0.3 -1.3,0.6 -0.1,0.3 -0.4,0.5 -0.8,0.5 -0.3,0 -0.6,0.3 -0.6,0.6 0,0.3 -0.3,0.6 -0.8,0.6 -1.2,0 -2,0.4 -2,1 0,0.3 -0.4,0.6 -1,0.6 -0.5,0 -1.2,0.3 -1.6,0.6 -0.3,0.3 -0.8,0.6 -1,0.6 -0.2,0 -0.4,0.3 -0.4,0.6 0,0.4 -0.4,0.6 -1.2,0.6 -0.9,0 -1.3,0.2 -1.4,0.8 -0.1,0.5 -0.5,0.8 -1.2,0.8 -0.5,0 -1.1,0.3 -1.2,0.6 -0.1,0.3 -0.6,0.6 -1,0.6 -0.4,0 -0.8,0.2 -1,0.4 -0.1,0.2 -0.4,0.3 -0.6,0.2 -0.2,-0.1 -0.4,0 -0.4,0.2 0,0.2 -0.3,0.4 -0.6,0.4 -0.3,0 -0.6,0.4 -0.6,0.8 0,0.6 -0.3,0.8 -1.4,0.8 -1,0 -1.4,0.2 -1.4,0.6 0,0.4 -0.4,0.6 -1.2,0.6 -0.8,0 -1.2,0.2 -1.2,0.6 0,0.4 -0.4,0.6 -1.2,0.6 -0.8,0 -1.2,0.2 -1.4,0.8 -0.1,0.4 -0.6,0.8 -1,0.8 -0.4,0 -0.8,0.3 -0.8,0.6 0,0.4 -0.4,0.6 -1.2,0.6 -0.8,0 -1.2,0.2 -1.2,0.6 0,0.3 -0.6,0.7 -1.4,0.8 -0.8,0.2 -1.4,0.5 -1.4,0.8 0,0.3 -0.3,0.6 -0.6,0.6 -0.3,0 -0.6,0.3 -0.6,0.6 0,0.4 -0.4,0.6 -1.4,0.6 -1,0 -1.4,0.2 -1.4,0.6 0,0.5 -1,0.8 -2.1,0.6 -0.2,0 -0.4,0.3 -0.5,0.8 -0.2,0.7 -1.1,1 -2.2,0.9 -0.2,0 -0.3,0.2 -0.2,0.4 0.1,0.3 -0.3,0.6 -0.8,0.6 -0.5,0.1 -0.9,0.4 -0.9,0.7 0,0.4 -0.4,0.6 -1.2,0.6 -0.9,0 -1.2,0.2 -1.2,0.8 0,0.6 -0.3,0.8 -1.4,0.8 -1,0 -1.4,0.2 -1.4,0.6 0,0.5 -0.7,0.8 -1.7,0.7 -0.4,-0.1 -2.3,1.8 -2.3,2.3 0,0.3 -0.6,0.5 -1.4,0.5 -1,0 -1.4,0.2 -1.4,0.6 0,0.4 -0.4,0.6 -1.2,0.6 -0.8,0 -1.2,0.2 -1.2,0.6 0,0.3 -0.3,0.6 -0.8,0.6 -1.3,0 -2,0.4 -1.8,1 0.2,0.4 -0.1,0.6 -0.8,0.6 h -1 V 126 c 0,-2 0,-3.8 0,-4 0,-0.2 -0.2,-0.3 -0.6,-0.3 -0.5,0 -0.6,-0.5 -0.6,-2 0,-1.5 -0.1,-2 -0.6,-2 -0.5,0 -0.8,-1.3 -0.6,-2.5 0,-0.2 -0.3,-0.3 -0.8,-0.3 -0.6,0 -0.8,-0.3 -0.8,-1.4 0,-1 -0.2,-1.4 -0.6,-1.4 -0.4,0 -0.6,-0.4 -0.6,-1.2 0,-0.8 -0.2,-1.2 -0.6,-1.2 -0.3,0 -0.6,-0.3 -0.6,-0.6 0,-0.4 -0.4,-0.7 -0.8,-0.8 -0.5,-0.1 -0.8,-0.5 -0.8,-1.2 0,-0.5 -0.3,-1.1 -0.6,-1.2 -0.3,-0.1 -0.6,-0.4 -0.6,-0.6 0,-0.5 -1.8,-2.4 -2.3,-2.4 -0.3,0 -0.5,-0.3 -0.5,-0.6 0,-0.3 -0.3,-0.6 -0.6,-0.6 -0.3,0 -0.6,-0.2 -0.6,-0.5 0,-0.3 -0.5,-0.7 -1,-1 -0.6,-0.3 -0.9,-0.7 -0.8,-0.9 0.1,-0.2 0,-0.4 -0.3,-0.4 -1.3,0.1 -2,-0.1 -2,-0.7 0,-0.3 -0.4,-0.6 -0.8,-0.6 -0.4,0 -0.8,-0.1 -0.8,-0.3 0.1,-0.9 -0.2,-1.2 -1.1,-1.2 -0.6,0 -1.2,-0.3 -1.4,-0.7 -0.2,-0.4 -0.9,-0.6 -1.5,-0.6 -0.6,0 -1.2,-0.3 -1.4,-0.6 -0.2,-0.4 -0.8,-0.6 -2,-0.6 -1.5,0 -1.8,-0.1 -1.8,-0.8 0,-0.7 -0.3,-0.8 -2.6,-0.8 -1.9,0 -2.6,-0.2 -2.8,-0.6 -0.2,-0.5 -1.5,-0.6 -8.1,-0.6 -4.7,0 -7.7,0.1 -7.6,0.4 0.4,0.6 -0.3,0.8 -2.9,0.9 -2.1,0.1 -2.5,0.2 -2.5,0.8 0,0.6 -0.3,0.7 -2,0.7 -1.5,0 -2,0.1 -2,0.6 0,0.4 -0.4,0.6 -1.2,0.6 -0.7,0 -1.3,0.3 -1.4,0.6 -0.1,0.4 -0.7,0.6 -1.4,0.6 -0.7,0 -1.2,0.1 -1.2,0.3 0.1,0.9 -0.1,1.3 -0.8,1.3 -0.4,0 -0.8,0.3 -0.8,0.6 0,0.4 -0.4,0.6 -1.2,0.6 -0.9,0 -1.2,0.1 -1,0.6 0.2,0.5 -0.2,0.8 -1.1,0.6 -0.2,0 -0.4,0.3 -0.5,0.8 -0.1,0.4 -0.5,0.8 -0.8,0.8 -0.3,0 -0.6,0.3 -0.6,0.6 0,0.3 -0.2,0.6 -0.6,0.6 -0.3,0 -0.6,0.4 -0.8,0.8 -0.1,0.4 -0.4,0.8 -0.7,0.7 -0.3,-0.1 -0.6,0.3 -0.7,0.8 -0.1,0.5 -0.4,0.9 -0.6,0.8 -0.2,-0.1 -0.5,0.4 -0.5,1 -0.1,0.6 -0.4,1.1 -0.7,1.1 -0.3,0 -0.6,0.4 -0.6,0.8 0,0.5 -0.3,0.8 -0.8,0.8 -0.6,0 -0.8,0.3 -0.8,1.2 0,0.7 -0.3,1.3 -0.6,1.4 -0.4,0.1 -0.6,0.7 -0.6,1.4 0,0.8 -0.2,1.2 -0.6,1.2 -0.4,0 -0.6,0.4 -0.6,1.4 0,1.3 -0.3,1.6 -1.3,1.4 -0.2,0 -0.3,1.1 -0.3,2.5 0,1.9 -0.2,2.6 -0.6,2.8 -0.9,0.3 -0.9,18.7 0,19.6 0.4,0.4 0.6,1.3 0.6,2.4 0,2.2 0.3,3.1 1,2.8 0.4,-0.2 0.6,0.1 0.6,1.2 0,0.8 0.2,1.6 0.6,1.8 0.3,0.2 0.6,0.8 0.7,1.4 0,0.6 0.2,1 0.4,0.9 0.3,-0.2 0.5,0.1 0.9,1.9 0.2,0.8 0.4,1 0.8,0.9 0.4,-0.2 0.6,0 0.6,0.6 0,0.5 0.3,0.8 0.6,0.8 0.3,0 0.6,0.4 0.6,0.8 0,0.4 0.2,0.8 0.5,0.8 0.3,0 0.7,0.6 0.8,1.2 0.2,0.9 0.4,1.2 0.8,1 0.4,-0.2 0.6,0 0.6,0.6 0,0.4 0.2,0.8 0.6,0.8 0.4,0 0.8,0.3 1.1,0.7 0.5,0.6 0.5,0.6 0,0.3 -0.4,-0.2 -0.5,-0.2 -0.3,0.1 0.2,0.3 0.8,0.5 1.5,0.5 0.8,0 1.2,0.2 1.2,0.6 0,0.3 0.3,0.6 0.6,0.6 0.3,0 0.6,0.3 0.6,0.6 0,0.3 0.4,0.7 0.8,0.8 0.4,0.1 0.8,0.5 0.8,0.8 0,0.3 0.1,0.6 0.3,0.5 1.1,-0.2 2.1,0.1 2.1,0.6 0,0.4 0.4,0.6 1.4,0.6 1.1,0 1.4,0.2 1.4,0.8 0,0.6 0.3,0.8 1.2,0.8 0.6,0 1.3,0.3 1.5,0.6 0.2,0.3 1.1,0.6 2.1,0.7 1.2,0.1 1.8,0.3 1.7,0.6 -0.1,0.4 0.8,0.5 3.4,0.5 2.7,0 3.6,0.1 3.9,0.6 0.4,0.6 6.8,1 8.8,0.5 0.2,0 0.5,-0.1 0.7,0 0.2,0.1 0.3,-0.2 0.3,-0.6 0,-0.5 0.6,-0.6 3.2,-0.6 2.5,0 3.3,-0.1 3.4,-0.6 0.3,-0.8 1.7,-0.8 1.7,0 0,0.4 0.4,0.6 1.2,0.6 0.8,0 1.2,0.2 1.4,0.8 0.2,0.5 0.5,0.7 0.8,0.6 0.5,-0.2 0.6,9.4 0.6,67.2 V 309 h 1.2 c 0.8,0 1.2,0.2 1.4,0.8 0.1,0.4 0.5,0.8 0.7,0.8 1.2,-0.1 1.9,0.1 1.9,0.6 0,0.3 0.3,0.6 0.6,0.6 0.3,0 0.7,0.2 0.8,0.5 0.1,0.3 0.7,0.6 1.3,0.6 0.6,0 1.3,0.3 1.6,0.8 0.5,0.7 0.7,0.8 1.9,0.9 0.3,0 0.6,0.3 0.6,0.6 0,0.4 0.4,0.6 1.2,0.6 0.7,0 1.3,0.3 1.4,0.6 0.1,0.3 0.5,0.6 0.8,0.6 0.3,0 0.6,0.2 0.6,0.5 0,0.3 0.6,0.7 1.3,0.9 0.7,0.2 1.3,0.6 1.2,0.9 -0.1,0.3 0.4,0.5 1.3,0.5 1,0 1.4,0.2 1.4,0.6 0,0.3 0.4,0.6 0.8,0.6 0.4,0 0.8,0.2 0.7,0.4 -0.1,0.2 0.2,0.5 0.7,0.6 0.4,0.1 1.3,0.5 1.9,1 0.6,0.5 1.5,0.8 1.9,0.8 0.5,0 0.8,0.3 0.8,0.6 0,0.4 0.4,0.6 1.2,0.6 0.8,0 1.2,0.2 1.4,0.8 0.1,0.5 0.4,0.7 0.6,0.6 0.2,-0.1 0.6,0.1 0.8,0.6 0.3,0.5 0.8,0.8 1.4,0.8 0.5,0 1.1,0.3 1.2,0.6 0.1,0.3 0.7,0.6 1.4,0.6 0.7,0 1.2,0.2 1.2,0.6 0,0.3 0.6,0.7 1.4,0.8 0.8,0.2 1.4,0.5 1.4,0.8 0,0.3 0.3,0.6 0.6,0.6 0.3,0 0.6,0.2 0.6,0.4 0,0.2 0.6,0.5 1.4,0.6 0.9,0.2 1.4,0.5 1.6,1 0.1,0.5 0.6,0.8 1.2,0.8 0.7,0 1,0.2 1,0.6 0,0.4 0.4,0.6 1.4,0.6 1,0 1.4,0.2 1.4,0.6 0,0.3 0.4,0.6 0.8,0.6 0.5,0 0.7,0.2 0.6,0.6 -0.1,0.3 -0.1,0.6 0.1,0.6 1.4,0.1 2.4,0.5 2.7,1 0.2,0.3 0.9,0.6 1.5,0.6 0.8,0 1.2,0.2 1.2,0.6 0,0.3 0.3,0.6 0.7,0.6 0.4,0 0.9,0.3 1.2,0.7 0.3,0.4 0.7,0.7 0.9,0.8 0.2,0 0.6,0.1 0.8,0.1 0.2,0 0.4,0.3 0.4,0.6 0,0.4 0.4,0.6 1.2,0.6 0.7,0 1.3,0.3 1.4,0.6 0.1,0.4 0.7,0.6 1.4,0.6 0.7,0 1.2,0.2 1.2,0.4 0,0.5 1.9,2.4 2.1,2.2 0.3,-0.3 2.3,0.7 2.1,1.1 -0.1,0.2 -0.1,0.4 0.1,0.4 1.5,-0.3 2.5,0.1 2.5,0.8 0,0.6 0.3,0.8 1.2,0.8 0.7,0 1.3,0.3 1.4,0.6 0.1,0.3 0.5,0.6 0.8,0.6 0.3,0 0.6,0.3 0.6,0.6 0,0.4 0.4,0.6 1.2,0.6 0.8,0 1.3,0.3 1.5,0.7 0.2,0.4 0.5,0.7 0.8,0.7 0.3,0 0.8,0.1 1.1,0.1 0.3,0 0.6,0.3 0.6,0.7 0,0.3 0.3,0.6 0.6,0.6 0.3,0 0.7,0.2 0.8,0.5 0.1,0.3 0.7,0.6 1.3,0.6 0.6,0 1.3,0.3 1.6,0.9 0.3,0.5 1,0.8 1.5,0.8 0.6,0 1,0.2 1,0.6 0,0.4 0.4,0.6 1.2,0.6 0.7,0 1.3,0.3 1.4,0.6 0.1,0.3 0.5,0.6 0.8,0.6 0.3,0 0.6,0.3 0.6,0.6 0,0.3 0.6,0.7 1.4,0.8 0.8,0.1 1.4,0.5 1.4,0.7 0,0.3 0.5,0.5 1.1,0.6 0.6,0 1.2,0.4 1.4,0.7 0.2,0.3 0.9,0.6 1.5,0.6 0.8,0 1.2,0.2 1.2,0.6 0,0.3 0.4,0.8 1,1 0.5,0.2 1,0.5 1,0.6 0,0.1 -0.2,0.1 -0.5,-0.1 -0.3,-0.2 -0.4,-0.1 -0.2,0.2 0.2,0.3 0.8,0.5 1.5,0.5 0.8,0 1.2,0.2 1.2,0.6 0,0.4 0.4,0.6 1.2,0.6 0.8,0 1.2,0.2 1.2,0.6 0,0.6 0.8,1 2,1 0.4,0 0.8,0.3 0.8,0.6 0,0.3 0.3,0.6 0.6,0.6 0.3,0 0.7,0.3 0.8,0.6 0.1,0.3 0.4,0.6 0.7,0.6 1.2,-0.1 1.8,0.1 2.1,0.9 0.1,0.4 0.5,0.8 0.7,0.8 1.2,-0.1 1.9,0.1 1.9,0.6 0,0.3 0.3,0.6 0.6,0.6 0.3,0 0.6,0.2 0.6,0.4 0,0.2 0.6,0.5 1.4,0.6 0.8,0.2 1.4,0.5 1.6,1 0.1,0.4 0.6,0.8 1.3,0.9 0.7,0.1 1.1,0.3 1,0.6 -0.1,0.3 0.4,0.5 1.3,0.5 1,0 1.4,0.2 1.4,0.6 0,0.3 0.4,0.6 0.8,0.6 0.4,0 0.8,0.2 0.7,0.4 -0.1,0.2 0.2,0.5 0.7,0.6 0.4,0.1 1.3,0.5 1.9,1 0.6,0.5 1.5,0.8 1.9,0.8 0.5,0 0.8,0.3 0.8,0.6 0,0.4 0.4,0.6 1.2,0.6 0.8,0 1.2,0.2 1.2,0.6 0,0.3 0.2,0.6 0.4,0.6 0.2,0 0.7,0.3 1.1,0.8 0.4,0.4 1.2,0.8 1.7,0.9 0.6,0.1 1,0.4 0.9,0.6 -0.1,0.3 0.7,0.5 2.5,0.5 2,0 2.6,-0.1 2.6,-0.6 0,-0.4 0.4,-0.6 1.2,-0.6 0.6,0 1.3,-0.2 1.5,-0.5 0.2,-0.3 0.1,-0.4 -0.3,-0.2 -0.3,0.2 -0.2,0 0.2,-0.3 0.4,-0.3 0.9,-0.5 1.1,-0.4 0.2,0.1 0.3,-0.2 0.3,-0.6 0,-0.6 0.3,-0.8 1.2,-0.8 0.6,0 1.3,-0.2 1.5,-0.5 0.4,-0.6 3.3,-2.1 3.8,-2 0.2,0.1 0.3,-0.3 0.3,-0.7 0,-0.7 0.3,-0.8 1.4,-0.8 1.1,0 1.4,-0.1 1.2,-0.6 -0.2,-0.5 0.9,-0.9 2.2,-0.6 0.2,0 0.3,-0.2 0.3,-0.6 0,-0.3 0.4,-0.6 0.8,-0.6 0.4,0 1,-0.4 1.3,-0.8 0.3,-0.4 0.8,-0.8 1.2,-0.8 0.4,0 0.7,-0.3 0.7,-0.6 0,-0.4 0.4,-0.6 1.2,-0.6 0.6,0 1.3,-0.3 1.5,-0.6 0.2,-0.3 0.7,-0.6 1.1,-0.7 1.1,-0.2 1.8,-0.7 1.6,-1.1 -0.2,-0.3 1.3,-0.6 2.3,-0.4 0.2,0 0.3,-0.2 0.3,-0.6 0,-0.3 0.2,-0.6 0.5,-0.6 0.3,0 0.7,-0.3 0.9,-0.6 0.2,-0.3 0.9,-0.6 1.5,-0.7 0.8,-0.1 1.1,-0.3 1.1,-0.8 0,-0.6 1.2,-1 2.5,-0.8 0.2,0 0.2,-0.1 0.1,-0.3 -0.1,-0.2 0.4,-0.7 1.1,-1 0.7,-0.3 1.5,-0.8 1.6,-1 0.2,-0.2 0.5,-0.3 0.7,-0.2 0.2,0.1 0.5,-0.1 0.6,-0.6 0.2,-0.6 0.5,-0.8 1.4,-0.8 0.7,0 1.3,-0.3 1.4,-0.6 0.1,-0.3 0.6,-0.6 1.1,-0.6 0.5,0 1.4,-0.6 2.1,-1.4 0.8,-0.9 1.7,-1.4 2.3,-1.4 0.6,0 1,-0.2 1,-0.6 0,-0.4 0.4,-0.6 1,-0.6 0.5,0 1.2,-0.3 1.4,-0.6 0.3,-0.3 0.7,-0.6 1,-0.6 0.3,0 0.8,-0.4 1.2,-0.8 0.4,-0.4 1.1,-0.8 1.5,-0.8 0.4,0 0.7,-0.3 0.7,-0.6 0,-0.4 0.4,-0.6 1.2,-0.6 0.8,0 1.2,-0.2 1.2,-0.6 0,-0.3 0.3,-0.6 0.8,-0.6 1.2,0 2,-0.4 2,-1 0,-0.3 0.6,-0.6 1.4,-0.8 0.8,-0.1 1.4,-0.4 1.4,-0.6 0,-0.2 0.3,-0.4 0.6,-0.4 0.3,0 0.6,-0.3 0.6,-0.6 0,-0.3 0.6,-0.7 1.4,-0.8 0.8,-0.2 1.4,-0.5 1.4,-0.8 0,-0.3 0.4,-0.6 1,-0.6 0.5,0 1.2,-0.3 1.4,-0.6 0.3,-0.3 0.7,-0.6 1,-0.6 0.3,0 0.6,-0.3 0.6,-0.6 0,-0.4 0.4,-0.6 1.2,-0.6 0.9,0 1.3,-0.2 1.4,-0.8 0.1,-0.6 0.5,-0.8 1.4,-0.8 0.8,0 1.2,-0.2 1.2,-0.6 0,-0.4 0.4,-0.6 1.2,-0.6 0.6,0 1.3,-0.2 1.5,-0.5 0.2,-0.3 0.1,-0.4 -0.2,-0.2 -0.3,0.2 -0.5,0.2 -0.5,0.1 0,-0.1 0.4,-0.4 1,-0.6 0.5,-0.2 1,-0.7 1,-1 0,-0.4 0.4,-0.6 1.2,-0.6 0.7,0 1.3,-0.2 1.4,-0.6 0.1,-0.3 0.5,-0.6 0.8,-0.6 0.3,0 1.4,-0.4 2.3,-1 1,-0.5 1.8,-0.9 2,-0.7 0.1,0.1 0.2,-0.1 0.2,-0.4 0,-0.4 0.3,-0.7 0.8,-0.7 0.4,0 0.8,-0.2 0.7,-0.5 -0.1,-0.3 0.4,-0.6 1.2,-0.6 0.8,-0.1 1.3,-0.3 1.3,-0.7 0,-0.3 0.4,-0.6 1,-0.6 0.5,0 1.2,-0.4 1.5,-0.8 0.3,-0.5 1,-0.9 1.6,-0.9 0.6,0 1,-0.2 0.9,-0.4 -0.1,-0.2 0.2,-0.5 0.8,-0.7 0.5,-0.2 1,-0.6 1.1,-0.8 0.1,-0.2 0.7,-0.5 1.3,-0.5 0.8,-0.1 1.2,-0.3 1.1,-0.8 0,-0.6 1,-0.9 2.4,-0.7 0.2,0 0.3,-0.2 0.3,-0.6 0,-0.3 0.4,-0.6 0.8,-0.6 0.5,0 0.7,-0.2 0.6,-0.4 -0.3,-0.5 1.4,-1.2 2.1,-0.9 0.3,0.1 0.5,-0.1 0.5,-0.7 0,-0.8 1,-1.1 2.5,-0.9 0.2,0 0.3,-0.1 0.2,-0.3 -0.1,-0.2 0.6,-0.7 1.4,-1.2 l 1.5,-0.8 v 0.9 c 0,0.5 0,1 0,1.2 0,0.2 0.2,0.3 0.5,0.2 0.4,-0.1 0.5,0.7 0.6,2.5 0.1,3.4 0.4,4.4 1.1,4.4 0.4,0 0.6,0.5 0.6,2 0,1.5 0.1,2 0.6,2 0.4,0 0.6,0.4 0.6,1.2 0,0.8 0.2,1.2 0.6,1.2 0.4,0 0.6,0.4 0.6,1.2 0,0.9 0.2,1.3 0.8,1.4 0.5,0.1 0.8,0.5 0.8,1.3 0,0.7 0.4,1.4 1.1,2.1 0.6,0.5 1.2,1.3 1.4,1.7 0.1,0.4 0.5,0.7 0.9,0.7 0.3,0 0.6,0.3 0.6,0.6 0,0.3 0.3,0.6 0.6,0.6 0.3,0 0.6,0.3 0.6,0.6 0,0.3 0.3,0.6 0.6,0.6 0.3,0 0.6,0.4 0.6,0.8 0,0.4 0.1,0.8 0.3,0.8 0.8,-0.1 1.3,0.1 1.3,0.6 0,0.3 0.3,0.6 0.6,0.6 0.3,0 0.6,0.3 0.6,0.6 0,0.3 0.4,0.6 0.8,0.6 0.5,0 0.7,0.2 0.6,0.6 -0.1,0.3 0,0.6 0.2,0.7 0.2,0 0.6,0.1 0.8,0.1 0.2,0 0.7,0.1 1,0.1 0.3,0 0.6,0.3 0.6,0.6 0,0.3 0.3,0.6 0.6,0.6 0.3,0 0.7,0.2 0.8,0.5 0.1,0.3 0.8,0.6 1.4,0.6 0.7,0 1.4,0.3 1.7,0.8 0.3,0.4 1.1,0.8 1.8,0.8 0.7,0.1 1.6,0.4 1.9,0.7 0.3,0.3 1.6,0.6 2.8,0.7 1.5,0.1 2.2,0.3 2.1,0.6 -0.1,0.4 1.8,0.5 9.1,0.5 6.8,0 9.2,-0.2 9.1,-0.5 -0.1,-0.3 0.7,-0.5 2,-0.6 1.5,-0.1 2.1,-0.3 2.1,-0.7 0,-0.4 0.5,-0.6 1.3,-0.6 1.8,-0.1 2,-0.1 2.6,-0.5 0.3,-0.2 0.4,-0.5 0.3,-0.7 -0.1,-0.2 0.4,-0.4 1.2,-0.4 1,0 1.4,-0.2 1.4,-0.6 0,-0.4 0.4,-0.6 1.2,-0.6 0.6,0 1.3,-0.2 1.5,-0.5 0.2,-0.3 0.1,-0.4 -0.3,-0.1 -0.5,0.3 -0.5,0.2 0,-0.3 0.3,-0.4 0.8,-0.6 1.1,-0.4 0.4,0.1 0.6,-0.1 0.6,-0.6 0,-0.5 0.3,-0.8 0.6,-0.8 0.3,0 0.7,-0.3 0.8,-0.6 0.1,-0.3 0.7,-0.6 1.2,-0.6 0.6,0 1.1,-0.3 1.2,-0.7 0.3,-0.9 1.7,-2.5 2.2,-2.5 0.8,0 1.9,-1.5 1.9,-2.5 0,-0.6 0.2,-1.1 0.5,-1.1 0.6,0 2.1,-1.5 2.4,-2.5 0.1,-0.4 0.4,-0.6 0.7,-0.5 0.2,0.1 0.4,-0.3 0.4,-1 0,-0.8 0.3,-1.4 0.8,-1.6 0.5,-0.3 0.8,-0.8 0.8,-1.6 0,-0.8 0.2,-1.2 0.6,-1.2 0.4,0 0.6,-0.5 0.6,-1.8 0,-1.3 0.2,-1.8 0.6,-1.8 0.5,0 0.6,-0.6 0.6,-2.6 0,-1.5 0.2,-2.6 0.4,-2.6 0.3,0 0.4,-2.9 0.4,-8 0,-5.1 -0.1,-8 -0.4,-8 -0.2,0 -0.4,-1.1 -0.4,-2.6 0,-2 -0.1,-2.6 -0.6,-2.6 -0.4,0 -0.6,-0.5 -0.6,-1.8 0,-1.2 -0.2,-1.9 -0.6,-2.1 -0.4,-0.2 -0.7,-0.8 -0.7,-1.4 0,-0.6 -0.4,-1.2 -0.8,-1.3 -0.5,-0.1 -0.7,-0.6 -0.7,-1.4 0,-0.8 -0.2,-1.2 -0.6,-1.2 -0.3,0 -0.6,-0.3 -0.6,-0.6 0,-0.3 -0.3,-0.7 -0.6,-0.8 -0.3,-0.1 -0.6,-0.7 -0.6,-1.2 0,-0.7 -0.3,-1.1 -0.8,-1.2 -0.4,-0.1 -0.8,-0.5 -0.8,-0.8 0,-0.3 -0.3,-0.7 -0.6,-0.8 -0.3,-0.1 -0.6,-0.5 -0.6,-0.8 0,-0.3 -0.3,-0.6 -0.6,-0.6 -0.3,0 -0.6,-0.3 -0.6,-0.6 0,-0.3 -0.4,-0.6 -0.8,-0.6 -0.5,0 -0.8,-0.3 -0.8,-0.8 0,-0.4 -0.3,-0.8 -0.6,-0.8 -0.3,0 -0.7,-0.3 -0.8,-0.6 -0.1,-0.3 -0.5,-0.6 -0.8,-0.6 -0.3,0 -0.6,-0.3 -0.6,-0.6 0,-0.4 -0.4,-0.6 -1.2,-0.6 -0.9,0 -1.2,-0.2 -1.2,-0.8 0,-0.5 -0.3,-0.8 -0.9,-0.9 -0.5,-0.1 -0.9,-0.4 -0.8,-0.6 0.1,-0.3 -0.1,-0.5 -0.4,-0.4 -1.2,0.2 -1.9,-0.1 -1.9,-0.6 0,-0.5 -0.5,-0.6 -2,-0.6 -1.6,0 -2,-0.1 -2.2,-0.8 -0.2,-0.6 -0.5,-0.8 -2,-0.8 -1.2,0 -1.9,-0.2 -2,-0.6 -0.2,-0.5 -1.1,-0.6 -4.8,-0.6 -3.9,0 -4.6,-0.1 -4.6,-0.6 0,-0.8 -3.2,-0.7 -3.5,0.1 -0.1,0.4 -1.4,0.5 -4.8,0.5 -3.8,0 -4.6,0.1 -4.6,0.6 0,0.4 -0.4,0.6 -1.6,0.6 -1.2,0 -1.5,-0.1 -1.4,-0.6 0.2,-0.5 -0.1,-0.6 -1.2,-0.6 H 372 v -67.1 -67.1 l -1,-0.9 c -0.5,-0.5 -1.3,-1 -1.6,-1.1 -0.4,-0.1 -0.6,-0.4 -0.4,-0.7 0.2,-0.2 -0.3,-0.4 -1.2,-0.4 -1.1,0 -1.4,-0.1 -1.2,-0.6 0.2,-0.4 -0.2,-0.7 -1.2,-0.8 -0.8,-0.1 -1.4,-0.5 -1.4,-0.8 0,-0.3 -0.4,-0.6 -0.8,-0.6 -0.4,0 -0.8,-0.3 -0.8,-0.6 0,-0.4 -0.4,-0.6 -1.2,-0.6 -0.8,0 -1.2,-0.2 -1.2,-0.6 0,-0.3 -0.6,-0.7 -1.4,-0.8 -0.8,-0.2 -1.4,-0.5 -1.4,-0.8 0,-0.4 -0.4,-0.6 -1.2,-0.6 -0.8,0 -1.2,-0.2 -1.2,-0.6 0,-0.3 -0.3,-0.6 -0.7,-0.6 -0.4,0 -0.9,-0.4 -1.2,-0.8 -0.3,-0.4 -0.8,-0.8 -1.2,-0.8 -0.4,0 -1,-0.3 -1.2,-0.6 -0.3,-0.3 -0.9,-0.6 -1.4,-0.6 -0.6,0 -1,-0.2 -1,-0.6 0,-0.4 -0.4,-0.6 -1.4,-0.6 -1.1,0 -1.4,-0.2 -1.4,-0.8 0,-0.4 -0.3,-0.8 -0.6,-0.8 -0.3,0 -0.6,-0.2 -0.6,-0.4 0,-0.2 -0.2,-0.3 -0.4,-0.2 -0.2,0.1 -0.5,0 -0.6,-0.2 -0.1,-0.2 -0.6,-0.4 -1,-0.4 -0.4,0 -0.8,-0.3 -1,-0.6 -0.1,-0.3 -0.7,-0.6 -1.2,-0.6 -0.6,0 -1.1,-0.3 -1.2,-0.8 -0.2,-0.6 -0.6,-0.8 -1.4,-0.8 -0.8,0 -1.2,-0.2 -1.2,-0.6 0,-0.3 -0.4,-0.6 -0.8,-0.6 -0.4,0 -0.8,-0.3 -0.8,-0.6 0,-0.4 -0.4,-0.6 -1.2,-0.6 -0.9,0 -1.2,-0.2 -1.2,-0.8 0,-0.4 -0.1,-0.8 -0.3,-0.8 -1.2,0.2 -2.5,-0.1 -2.5,-0.6 0,-0.3 -0.3,-0.6 -0.6,-0.6 -0.3,0 -0.6,-0.2 -0.8,-0.5 -0.1,-0.3 -0.7,-0.6 -1.3,-0.6 -1.1,-0.1 -1.9,-0.8 -1.5,-1.4 0.1,-0.2 0.1,-0.3 -0.1,-0.3 -1.2,0.2 -2.5,-0.1 -2.5,-0.6 0,-0.4 -0.4,-0.6 -1.2,-0.6 -0.8,0 -1.2,-0.2 -1.2,-0.6 0,-0.3 -0.3,-0.6 -0.8,-0.6 -0.4,0 -0.8,-0.4 -1,-0.8 -0.1,-0.5 -0.4,-0.8 -0.5,-0.6 -0.5,0.3 -2.2,-0.5 -1.9,-0.9 0.1,-0.2 0.1,-0.4 -0.1,-0.4 -1.2,0.2 -2.5,-0.1 -2.5,-0.6 0,-0.4 -0.4,-0.6 -1.2,-0.6 -0.8,0 -1.2,-0.2 -1.4,-0.8 -0.1,-0.4 -0.6,-0.8 -1,-0.8 -0.5,0 -0.7,-0.2 -0.6,-0.5 0.1,-0.3 -0.2,-0.5 -0.9,-0.6 -0.6,0 -1.2,-0.4 -1.4,-0.7 -0.2,-0.3 -0.9,-0.6 -1.5,-0.6 -0.9,0 -1.2,-0.2 -1.2,-0.8 0,-0.6 -0.3,-0.8 -1.4,-0.8 -1,0 -1.4,-0.2 -1.4,-0.6 0,-0.3 -0.3,-0.6 -0.6,-0.6 -0.3,0 -0.6,-0.3 -0.6,-0.6 0,-0.4 -0.4,-0.6 -1.4,-0.6 -1.1,0 -1.4,-0.2 -1.4,-0.8 0,-0.6 -0.3,-0.8 -1.3,-0.9 -0.7,-0.1 -1.2,-0.3 -1.2,-0.5 0,-0.2 -0.3,-0.5 -0.8,-0.6 -0.5,-0.1 -0.9,-0.4 -0.8,-0.7 0.1,-0.3 -0.4,-0.5 -1.3,-0.5 -0.8,0 -1.4,-0.1 -1.4,-0.3 0.1,-0.9 -0.2,-1.2 -1.1,-1.2 -0.6,0 -1.2,-0.3 -1.4,-0.7 -0.2,-0.4 -0.9,-0.6 -1.5,-0.6 -0.8,0 -1.2,-0.2 -1.2,-0.6 0,-0.3 -0.4,-0.6 -0.8,-0.6 -0.6,0 -0.8,-0.2 -0.6,-0.6 0.2,-0.6 -0.5,-1 -1.8,-1 -0.4,0 -0.8,-0.3 -0.8,-0.6 0,-0.4 -0.4,-0.6 -1.2,-0.6 -0.8,0 -1.2,-0.2 -1.2,-0.6 0,-0.4 -0.4,-0.6 -1.4,-0.6 -1.1,0 -1.4,-0.2 -1.4,-0.8 0,-0.5 -0.3,-0.8 -0.9,-0.9 -0.5,-0.1 -0.9,-0.4 -0.8,-0.6 0.1,-0.3 -0.1,-0.5 -0.4,-0.4 -1.2,0.2 -1.9,-0.1 -1.9,-0.6 0,-0.4 -0.4,-0.6 -1.4,-0.6 -0.9,0 -1.4,-0.2 -1.4,-0.5 0,-0.3 -0.4,-0.8 -0.8,-1.2 -0.4,-0.4 -0.8,-0.6 -0.8,-0.4 0,0.2 -0.2,0.1 -0.5,-0.2 -0.3,-0.3 -0.8,-0.5 -1.2,-0.5 -0.4,0 -0.8,-0.3 -0.9,-0.6 -0.1,-0.4 -0.7,-0.6 -1.5,-0.6 -0.9,0 -1.2,-0.2 -1,-0.6 0.2,-0.6 -0.5,-1 -1.8,-1 -0.4,0 -0.8,-0.3 -0.8,-0.6 0,-0.3 -0.4,-0.6 -0.8,-0.6 -0.4,0 -0.8,-0.3 -0.8,-0.6 0,-0.4 -0.4,-0.6 -1.2,-0.6 -0.8,0 -1.2,-0.2 -1.2,-0.6 0,-0.3 -0.6,-0.7 -1.4,-0.8 -0.8,-0.2 -1.4,-0.5 -1.4,-0.8 0,-0.3 -0.4,-0.6 -1.2,-0.6 -0.7,0 -1.3,-0.3 -1.4,-0.6 -0.1,-0.3 -0.5,-0.6 -0.7,-0.6 -0.2,0 -0.7,-0.4 -1,-0.8 -0.3,-0.4 -0.8,-0.8 -1.2,-0.8 -0.4,0 -1,-0.3 -1.2,-0.6 -0.3,-0.3 -0.9,-0.6 -1.4,-0.6 -0.6,0 -1,-0.2 -1,-0.6 0,-0.4 -0.4,-0.6 -1.4,-0.6 -1.1,0 -1.4,-0.2 -1.4,-0.8 0,-0.4 -0.3,-0.8 -0.6,-0.8 -0.3,0 -0.6,-0.2 -0.6,-0.4 0,-0.2 -0.2,-0.3 -0.4,-0.2 -0.2,0.1 -0.5,0 -0.6,-0.2 -0.1,-0.2 -0.6,-0.4 -1,-0.4 -0.4,0 -0.8,-0.3 -0.8,-0.6 0,-0.4 -0.4,-0.6 -1.2,-0.6 -0.8,0 -1.2,-0.2 -1.4,-0.8 -0.1,-0.5 -0.5,-0.8 -1,-0.8 -0.5,0 -0.8,-0.2 -0.6,-0.5 0.2,-0.4 -0.3,-0.5 -2.2,-0.6 -1.7,-0.2 -2.5,-0.1 -2.7,0.3 m 4.9,21 c 1,0.7 1.9,1.2 2,1.2 0.2,0 5.9,3.3 6.1,3.6 0.1,0.1 1.2,0.7 2.4,1.3 1.2,0.6 2.7,1.5 3.4,1.9 0.7,0.4 1.7,1.1 2.4,1.5 0.7,0.4 1.7,1 2.4,1.4 0.7,0.4 1.7,0.9 2.3,1.2 0.6,0.3 1.1,0.6 1.1,0.8 0,0.2 0.2,0.4 0.5,0.4 0.3,0 1.5,0.6 2.6,1.4 1.1,0.8 2.3,1.4 2.5,1.4 0.2,0 1.3,0.6 2.5,1.4 1.2,0.8 2.9,1.8 3.7,2.2 0.9,0.5 2.3,1.3 3.2,1.8 0.9,0.5 1.9,1.1 2.3,1.2 0.4,0.1 0.7,0.4 0.7,0.6 0,0.2 0.5,0.5 1.1,0.8 1.2,0.5 4.4,2.3 7,3.9 0.9,0.6 2.7,1.6 3.9,2.3 3.3,1.8 3.7,2 5.4,3.1 0.9,0.6 2,1.2 2.6,1.5 0.5,0.3 1.5,0.8 2.2,1.3 0.7,0.4 1.7,1.1 2.4,1.4 2.2,1.1 5.6,3.1 5.8,3.3 0.2,0.3 1.1,0.8 4.9,2.8 1,0.6 1.9,1.2 1.9,1.3 0,0.2 0.3,0.3 0.8,0.3 0.5,0 0.9,0.2 1,0.4 0.1,0.2 0.6,0.6 1.1,0.8 0.5,0.2 1.6,0.8 2.5,1.4 0.9,0.6 2,1.2 2.6,1.4 0.5,0.2 1.7,0.9 2.7,1.6 1,0.7 2.1,1.3 2.5,1.4 0.5,0.1 0.8,0.4 0.8,0.6 0,0.2 0.2,0.4 0.5,0.4 0.3,0 1.5,0.6 2.6,1.4 1.1,0.8 2.3,1.4 2.5,1.4 0.2,0 1.1,0.5 2.1,1.2 1,0.7 2.2,1.4 2.7,1.6 0.5,0.2 1.5,0.8 2.2,1.2 0.7,0.4 1.5,0.9 1.8,1.1 0.8,0.4 6.2,3.5 6.4,3.7 0.1,0.1 0.8,0.6 1.6,1 2.7,1.4 4.6,2.5 6.1,3.4 l 1.5,0.9 v 66.9 c 0,63.2 0,66.9 0.7,67.5 0.4,0.3 1.7,1.1 2.9,1.7 1.2,0.6 2.7,1.5 3.4,1.9 0.7,0.4 1.6,0.9 2.1,1.2 0.5,0.2 1.7,0.9 2.6,1.5 2.6,1.7 3.2,2.1 4.3,2.5 0.5,0.2 1.7,1 2.7,1.6 0.9,0.6 1.8,1 2,0.8 0.1,-0.2 1.3,-0.8 2.5,-1.4 1.3,-0.6 2.8,-1.3 3.4,-1.6 2.4,-1.2 14.8,-1.2 16.1,0.1 0.3,0.3 0.9,0.6 1.3,0.6 2.5,0 9.8,6.5 11.7,10.4 0.5,1 1,2.1 1.2,2.4 3.8,7 1.5,19.8 -4.7,25.7 -1.2,1.1 -2.4,2.3 -2.8,2.7 -0.9,0.9 -5.9,3.6 -6.8,3.6 -0.4,0 -1.1,0.3 -1.5,0.6 -1.1,0.9 -11.7,0.9 -12.8,0 -0.4,-0.3 -1.2,-0.6 -1.7,-0.6 -0.8,0 -3.9,-1.4 -4.5,-2 -0.1,-0.1 -0.7,-0.5 -1.3,-0.9 -4.1,-2.6 -8.4,-8.8 -9.4,-13.5 -0.2,-1 -0.6,-2.5 -0.8,-3.4 -0.6,-2.2 -0.5,-5 0.2,-6.2 1.5,-2.5 0.7,-4.2 -2.8,-6 -0.2,-0.1 -1.2,-0.7 -2.1,-1.3 -0.9,-0.6 -2.1,-1.3 -2.6,-1.5 -1.6,-0.7 -3.3,-1.7 -3.5,-2 -0.1,-0.2 -1.2,-0.8 -2.5,-1.4 -1.3,-0.6 -2.4,-1.2 -2.5,-1.5 -0.3,-0.5 -2.8,-0.5 -3.5,0.1 -0.3,0.3 -1.2,0.8 -1.9,1.3 -0.8,0.4 -2.1,1.1 -3,1.6 -0.9,0.5 -2.3,1.3 -3.2,1.9 -0.9,0.6 -2,1.1 -2.5,1.3 -0.5,0.2 -0.9,0.4 -0.9,0.6 0,0.2 -0.4,0.5 -0.9,0.6 -0.5,0.2 -1.2,0.5 -1.5,0.8 -0.3,0.3 -1.5,1 -2.6,1.6 -1.1,0.6 -2.5,1.4 -3.2,1.8 -0.7,0.4 -1.8,1.1 -2.6,1.5 -3.8,2 -5.5,3 -6.6,3.7 -0.7,0.4 -1.6,1 -2.2,1.3 -0.5,0.3 -1.1,0.6 -1.2,0.8 -0.1,0.2 -0.7,0.5 -1.2,0.7 -1.5,0.7 -5.3,2.8 -6,3.5 -0.3,0.3 -0.9,0.6 -1.3,0.6 -0.4,0 -0.7,0.2 -0.7,0.4 0,0.2 -0.9,0.9 -2.1,1.4 -2.7,1.4 -4.1,2.2 -6.2,3.5 -0.9,0.6 -1.9,1.1 -2.1,1.1 -0.2,0 -0.6,0.2 -0.9,0.5 -0.6,0.6 -2.4,1.6 -4,2.3 -0.6,0.3 -1.1,0.6 -1.1,0.8 0,0.2 -0.2,0.4 -0.5,0.4 -0.3,0 -1.4,0.6 -2.5,1.3 -1.1,0.7 -2.9,1.8 -4,2.3 -1.1,0.6 -2.1,1.1 -2.2,1.3 -0.1,0.2 -0.7,0.5 -1.2,0.7 -0.5,0.2 -1.5,0.8 -2.2,1.2 -0.7,0.4 -1.7,1 -2.3,1.2 -0.6,0.2 -1.1,0.6 -1.1,0.8 0,0.2 -0.5,0.5 -1.1,0.8 -0.6,0.3 -1.6,0.8 -2.3,1.2 -0.7,0.4 -1.8,1 -2.5,1.4 -0.7,0.3 -1.4,0.8 -1.5,1 -0.1,0.2 -0.6,0.4 -1,0.4 -0.4,0 -0.8,0.2 -0.8,0.4 0,0.2 -0.5,0.6 -1.1,0.8 -0.6,0.2 -1.9,0.9 -2.8,1.6 -1,0.7 -1.9,1.2 -2.1,1.2 -0.2,0 -1.2,0.5 -2.1,1.2 -1,0.7 -2.2,1.4 -2.7,1.6 -0.5,0.2 -1.5,0.8 -2.2,1.2 -0.7,0.4 -1.6,1 -2,1.2 -0.4,0.2 -1.5,0.9 -2.4,1.4 -0.9,0.5 -2,1.2 -2.4,1.4 -0.4,0.2 -1.3,0.8 -2,1.2 -0.7,0.4 -2.3,1.3 -3.6,2 -1.3,0.7 -2.5,1.4 -2.6,1.5 -1,1.3 -4.6,2.1 -5.5,1.2 -0.5,-0.5 -1.9,-1.3 -3.3,-2 -0.5,-0.2 -1.1,-0.6 -1.2,-0.7 -0.1,-0.2 -1.2,-0.8 -2.4,-1.4 -1.2,-0.6 -2.7,-1.5 -3.4,-1.9 -0.7,-0.4 -1.7,-1 -2.2,-1.3 -0.5,-0.3 -1.1,-0.6 -1.2,-0.8 -0.1,-0.2 -0.7,-0.5 -1.2,-0.7 -0.5,-0.2 -1.7,-0.9 -2.6,-1.4 -0.9,-0.5 -1.9,-1.1 -2.2,-1.3 -0.3,-0.2 -1.3,-0.7 -2.2,-1.3 -1.9,-1.2 -3.1,-1.9 -5.7,-3.2 -1.1,-0.5 -2,-1.1 -2,-1.3 -0.1,-0.2 -1.2,-0.8 -2.6,-1.5 -1.4,-0.7 -3,-1.6 -3.7,-2 -0.7,-0.4 -1.6,-1 -2,-1.2 -2.7,-1.4 -3.4,-1.8 -4.8,-2.7 -0.9,-0.6 -2.4,-1.5 -3.4,-2 -1,-0.5 -2.5,-1.4 -3.4,-1.9 -0.9,-0.5 -1.9,-1.1 -2.2,-1.2 -0.3,-0.2 -1.3,-0.8 -2.2,-1.4 -0.9,-0.6 -2.1,-1.3 -2.6,-1.5 -1,-0.4 -1.7,-0.8 -4.2,-2.4 -0.9,-0.6 -2.1,-1.2 -2.6,-1.5 -0.6,-0.3 -1.3,-0.6 -1.6,-0.9 -2.4,-1.5 -7.6,-4.4 -7.8,-4.4 -0.2,0 -0.6,-0.3 -0.9,-0.6 -0.3,-0.3 -1.5,-1 -2.6,-1.6 -1.1,-0.6 -2.5,-1.4 -3.2,-1.8 -0.7,-0.4 -1.6,-1 -2.2,-1.3 -0.6,-0.3 -1.7,-0.9 -2.6,-1.5 -2.4,-1.5 -3,-1.8 -5.7,-3.2 -1.4,-0.7 -2.5,-1.4 -2.6,-1.5 -0.1,-0.3 -0.9,-0.7 -4.8,-2.8 -1,-0.6 -1.9,-1.2 -1.9,-1.3 0,-0.2 -0.3,-0.3 -0.7,-0.3 -0.4,0 -0.9,-0.2 -1.2,-0.5 -0.6,-0.6 -4.7,-3 -6.2,-3.6 -0.6,-0.2 -1.1,-0.6 -1.1,-0.8 0,-0.2 -0.2,-0.4 -0.5,-0.4 -0.3,0 -1,-0.4 -1.6,-0.8 -0.6,-0.4 -1.2,-0.8 -1.4,-0.8 -0.2,0 -1.2,-0.5 -2.1,-1.2 -0.9,-0.6 -2.5,-1.6 -3.5,-2.1 -1,-0.5 -2.3,-1.3 -2.9,-1.7 l -1.1,-0.7 -0.1,-67 -0.1,-67 -3.2,-1.7 c -1.8,-1 -3.7,-2 -4.4,-2.3 -0.7,-0.3 -1.7,-1 -2.4,-1.4 -0.7,-0.4 -2.1,-1.2 -3.2,-1.8 -1.1,-0.6 -2.3,-1.3 -2.6,-1.6 -0.3,-0.3 -0.8,-0.6 -0.9,-0.6 -0.4,0 -2.8,-1.7 -3.1,-2.2 -0.2,-0.2 -0.7,-0.2 -1.4,0.3 -1,0.6 -2.3,1.3 -4.7,2.5 -4.4,2.2 -13.3,2.2 -17.5,0 -0.6,-0.3 -1.3,-0.6 -1.7,-0.6 -0.3,0 -0.9,-0.2 -1.2,-0.5 -0.3,-0.3 -0.9,-0.7 -1.4,-0.8 -2.6,-0.8 -9.7,-9.7 -9.7,-12.1 0,-0.3 -0.3,-1 -0.7,-1.6 -0.9,-1.4 -0.9,-12.5 0,-14 0.4,-0.5 0.6,-1.3 0.6,-1.6 0,-0.8 3.2,-6.2 3.6,-6.2 0.2,0 0.4,-0.2 0.4,-0.4 0,-0.4 2.3,-2.6 4.9,-4.6 2,-1.5 5.1,-3 6.2,-3 0.4,0 1.3,-0.3 2,-0.6 1.6,-0.8 10.5,-0.7 11.3,0.1 0.3,0.3 0.9,0.5 1.3,0.5 1.1,0 6.7,2.8 6.9,3.5 0.1,0.3 0.4,0.5 0.6,0.5 0.9,0 6.4,6.4 6.4,7.4 0,0.3 0.3,0.7 0.6,1 0.3,0.3 0.6,0.8 0.6,1.3 0,0.5 0.2,1.2 0.6,1.7 1,1.6 1.3,6.6 0.8,12 -0.3,3.1 -0.3,3.1 0.8,3.5 0.6,0.2 1.1,0.6 1.1,0.8 0,0.2 0.2,0.4 0.5,0.4 0.4,0 2,0.9 5.3,3.1 0.4,0.3 1.2,0.7 1.8,0.9 0.5,0.2 1.1,0.5 1.2,0.7 0.1,0.2 1.3,0.8 2.5,1.5 1.3,0.7 2.8,1.4 3.3,1.7 1.1,0.6 3.7,0.3 3.7,-0.3 0,-0.2 0.4,-0.5 0.8,-0.6 0.5,-0.1 1.6,-0.8 2.5,-1.4 0.9,-0.6 2.1,-1.3 2.7,-1.6 1.4,-0.6 5.1,-2.7 7.1,-4.1 0.9,-0.6 1.9,-1.2 2.1,-1.2 0.2,0 1.3,-0.6 2.5,-1.4 1.2,-0.8 2.4,-1.4 2.6,-1.4 0.2,0 0.5,-0.2 0.5,-0.4 0,-0.2 0.5,-0.6 1.1,-0.8 1.3,-0.5 3.4,-1.7 3.7,-2.1 0.1,-0.2 0.7,-0.5 1.2,-0.7 0.5,-0.2 1.5,-0.8 2.2,-1.2 0.7,-0.4 1.6,-1 2.2,-1.3 0.6,-0.3 1.7,-0.9 2.6,-1.5 1.5,-0.9 2.8,-1.6 6.2,-3.5 0.8,-0.4 1.5,-0.9 1.6,-1 0.1,-0.2 0.7,-0.5 1.2,-0.7 0.5,-0.2 1.5,-0.8 2.2,-1.2 1.8,-1.1 3.8,-2.3 5.1,-2.8 0.6,-0.3 1.1,-0.6 1.1,-0.8 0,-0.2 0.4,-0.5 0.9,-0.6 0.5,-0.2 1.7,-0.8 2.6,-1.4 0.9,-0.6 1.9,-1.2 2.1,-1.2 0.2,0 1.3,-0.6 2.5,-1.4 1.2,-0.8 2.4,-1.4 2.6,-1.4 0.3,0 0.5,-0.2 0.5,-0.4 0,-0.2 0.5,-0.6 1.1,-0.8 1.3,-0.5 3.4,-1.7 3.7,-2.1 0.1,-0.2 0.7,-0.5 1.2,-0.7 0.5,-0.2 1.5,-0.8 2.2,-1.2 0.7,-0.4 2.2,-1.3 3.4,-1.9 1.2,-0.6 2.3,-1.2 2.4,-1.4 0.1,-0.2 1,-0.7 2,-1.3 4,-2.2 4.6,-2.5 5.1,-3 0.3,-0.3 0.7,-0.5 0.9,-0.5 0.2,0 1.3,-0.6 2.5,-1.4 1.2,-0.8 2.4,-1.4 2.6,-1.4 0.2,0 0.5,-0.2 0.5,-0.4 0,-0.2 0.5,-0.6 1.1,-0.8 1.2,-0.5 2.6,-1.3 5.1,-2.8 2.2,-1.3 5.4,-3.1 6.6,-3.7 0.6,-0.3 1.1,-0.7 1.3,-1 0.2,-0.3 0.6,-0.5 0.9,-0.5 0.3,0 1.4,-0.5 2.3,-1.2 1,-0.7 2.2,-1.4 2.7,-1.6 0.5,-0.2 1.7,-0.9 2.6,-1.4 1.8,-1.5 2.1,-1.5 4.2,-0.1"
     inkscape:connector-curvature="0"
     style="fill:#dfeaf7" /></g></svg>