<?xml version="1.0" encoding="UTF-8" standalone="no"?>
<!-- Generator: Adobe Illustrator 16.0.3, SVG Export Plug-In . SVG Version: 6.00 Build 0)  -->

<svg
   xmlns:dc="http://purl.org/dc/elements/1.1/"
   xmlns:cc="http://creativecommons.org/ns#"
   xmlns:rdf="http://www.w3.org/1999/02/22-rdf-syntax-ns#"
   xmlns:svg="http://www.w3.org/2000/svg"
   xmlns="http://www.w3.org/2000/svg"
   xmlns:sodipodi="http://sodipodi.sourceforge.net/DTD/sodipodi-0.dtd"
   xmlns:inkscape="http://www.inkscape.org/namespaces/inkscape"
   version="1.1"
   id="svg17038"
   x="0px"
   y="0px"
   width="120"
   height="60"
   viewBox="-0.639 -122.241 120 60"
   enable-background="new -0.639 -122.241 300 300"
   xml:space="preserve"
   sodipodi:docname="tdbank-ar21.svg"
   inkscape:version="0.92.3 (2405546, 2018-03-11)"><metadata
   id="metadata19"><rdf:RDF><cc:Work
       rdf:about=""><dc:format>image/svg+xml</dc:format><dc:type
         rdf:resource="http://purl.org/dc/dcmitype/StillImage" /><dc:title></dc:title></cc:Work></rdf:RDF></metadata><defs
   id="defs17">
	
	
	
	
	
	
</defs><sodipodi:namedview
   pagecolor="#ffffff"
   bordercolor="#666666"
   borderopacity="1"
   objecttolerance="10"
   gridtolerance="10"
   guidetolerance="10"
   inkscape:pageopacity="0"
   inkscape:pageshadow="2"
   inkscape:window-width="1920"
   inkscape:window-height="1001"
   id="namedview15"
   showgrid="false"
   inkscape:zoom="4.4500587"
   inkscape:cx="110.68526"
   inkscape:cy="6.9064743"
   inkscape:window-x="-9"
   inkscape:window-y="-9"
   inkscape:window-maximized="1"
   inkscape:current-layer="svg17038" />


<g
   id="g892"
   transform="translate(4.7662422,-1.5e-6)"><path
     style="fill:#54b848;stroke-width:0.36774486"
     inkscape:connector-curvature="0"
     d="M 3.8521632,-76.289337 H 41.79018 V -108.19266 H 3.8521632 Z m 24.9036758,-6.901838 h -8.837648 v -14.971978 h 4.439416 v 12.323483 h 4.26805 c 2.947471,0 4.186406,-1.926247 4.186406,-6.864692 0,-4.977422 -1.409939,-6.422661 -4.398594,-6.422661 h -9.733471 v 15.935485 H 14.281767 V -99.127023 H 7.8348387 v -2.651437 H 29.779272 c 5.294054,0 7.812746,2.568327 7.812746,9.033654 0,8.509606 -3.757627,9.553631 -8.836179,9.553631"
     id="path2651-2" /><g
     transform="matrix(1.5444079,0,0,1.5444079,169.71392,325.73808)"
     id="g884"><path
       id="path2643-8"
       d="m -74.419843,-269.57553 h 0.936864 c 0.65161,0 1.30089,0.14309 1.30089,0.92288 0,0.70101 -0.689597,0.93616 -1.326292,0.93616 h -0.911229 v -1.85904 z m -3.27856,3.73277 h 5.268814 c 1.88678,0 3.733941,-0.23561 3.733941,-2.52394 0,-0.90936 -0.780022,-1.8961 -2.042225,-2.0653 v -0.027 c 1.208835,-0.31136 1.872797,-0.97602 1.872797,-2.22214 0,-1.7297 -1.547458,-2.23519 -3.12125,-2.23519 h -5.712543 v 9.0736 z m 3.27856,-7.35718 h 0.948284 c 0.624576,0 1.198114,0.20718 1.198114,0.88419 0,0.68634 -0.663962,0.86882 -1.276186,0.86882 h -0.870212 z"
       inkscape:connector-curvature="0"
       style="fill:#003f2d;stroke-width:0.23305085" /><path
       id="path2645-1"
       d="m -63.426597,-268.61419 c 0,0.58519 -0.339322,1.20954 -1.014703,1.20954 -0.50875,0 -0.768369,-0.18318 -0.768369,-0.65045 0,-0.70055 0.781419,-0.7665 1.456801,-0.7665 h 0.32697 v 0.20718 h -6.99e-4 z m -3.995191,-1.87186 c 0.65161,-0.32394 1.482437,-0.57074 2.263856,-0.57074 0.820805,0 1.718284,0.10394 1.731568,0.97531 -0.299237,-0.0275 -0.819407,-0.0916 -1.276186,-0.0916 -1.627861,0 -3.499958,0.4167 -3.499958,2.49575 0,1.41741 1.224449,1.99025 2.484089,1.99025 0.925212,0 1.76,-0.36472 2.212818,-1.13216 h 0.02703 v 0.97671 h 3.043178 v -4.1215 c 0,-2.47057 -2.276441,-2.8085 -4.149937,-2.8085 -1.273856,0 -1.860445,0.11676 -2.835763,0.38967 v 1.8968 z"
       inkscape:connector-curvature="0"
       style="fill:#003f2d;stroke-width:0.23305085" /><path
       id="path2647-1"
       d="m -59.48408,-272.61592 h 3.097945 v 1.16899 h 0.02633 c 0.389428,-0.94875 1.286674,-1.3256 2.211886,-1.3256 1.742288,0 2.378983,0.91007 2.378983,2.22145 v 4.70786 h -3.277622 v -3.90104 c 0,-0.39036 0,-0.92288 -0.57214,-0.92288 -0.586589,0 -0.586589,0.53252 -0.586589,0.92288 v 3.90104 h -3.278793 z"
       inkscape:connector-curvature="0"
       style="fill:#003f2d;stroke-width:0.23305085" /><path
       style="fill:#003f2d;fill-opacity:1;stroke:none;stroke-width:1px;stroke-linecap:butt;stroke-linejoin:miter;stroke-opacity:1"
       d="m -50.661707,-265.84276 h 3.27786 v -3.28974 l 1.875827,3.28974 h 3.824364 l -2.382246,-3.78544 2.288793,-2.98888 h -3.705509 l -1.872796,2.68987 -0.02843,-5.66639 h -3.27786 v 9.75084"
       id="path878"
       inkscape:connector-curvature="0" /></g></g></svg>