<svg xmlns="http://www.w3.org/2000/svg" width="120" height="60"><g transform="matrix(1.077451 0 0 1.077451 8.199951 -13.793347)"><path d="M54.583 59.25c-.383.001-.768-.125-1.087-.38a1.75 1.75 0 0 1-.409-2.278c.113-.187 11.256-18.764 5.505-28.023-1.2-1.933-2.548-2.95-4.004-3.023-2.826-.127-5.917 3.035-6.868 4.27a1.75 1.75 0 0 1-2.774-2.134c.185-.24 4.562-5.887 9.817-5.633 2.67.133 4.96 1.705 6.802 4.672 4.307 6.933 1.275 17.27-1.722 24.24 3.117-2.16 6.966-4.286 10.638-4.857.967-.144 1.85.506 2 1.46a1.75 1.75 0 0 1-1.46 1.999c-6.85 1.065-15.13 9.106-15.212 9.188a1.75 1.75 0 0 1-1.225.498z" fill="#7cb1f4"/><path d="M11.477 44.515c0 .936-.246 1.766-.737 2.5s-1.2 1.3-2.125 1.7-2 .604-3.256.604c-1.04 0-1.9-.07-2.616-.2s-1.438-.387-2.2-.738v-3.63c.804.4 1.64.7 2.5.934s1.666.336 2.392.336c.626 0 1.085-.105 1.377-.314s.438-.48.438-.8a.87.87 0 0 0-.176-.541c-.117-.155-.306-.312-.565-.47s-.952-.48-2.077-.97c-1.018-.447-1.78-.88-2.3-1.3s-.886-.9-1.132-1.444-.368-1.186-.368-1.93c0-1.4.523-2.472 1.57-3.25s2.484-1.166 4.313-1.166c1.616 0 3.264.36 4.943 1.083l-1.292 3.146c-1.46-.646-2.72-.97-3.78-.97-.548 0-.947.093-1.196.278s-.374.417-.374.7c0 .295.158.56.475.794s1.176.66 2.578 1.28c1.345.584 2.28 1.212 2.803 1.882s.785 1.516.785 2.534zm8.776 4.58L17.06 38.233h-.096l.225 4.312v6.55h-3.737v-15.08h5.616l3.256 10.707h.085l3.2-10.707h5.626v15.08H27.35v-6.612l.016-1.145.144-3.084h-.096l-3.15 10.84zm20.35 0h-4.217v-11.75h-3.812v-3.332h11.83v3.332h-3.8zM57.527 38.8c0 1.685-.516 2.986-1.543 3.904s-2.5 1.377-4.383 1.377h-1.186v5.003h-4.217v-15.08H51.6c1.97 0 3.45.416 4.44 1.248s1.486 2.015 1.486 3.55zm-7.112 1.96h.77c.633 0 1.137-.172 1.5-.516s.56-.818.56-1.424c0-1.018-.584-1.526-1.75-1.526h-1.1v3.466zm21.545-.495h6.736v8.128c-1.828.604-3.84.907-6.03.907-2.406 0-4.266-.674-5.578-2.02s-1.97-3.27-1.97-5.766c0-2.435.72-4.33 2.156-5.684s3.453-2.032 6.043-2.032a14.55 14.55 0 0 1 2.78.27c.88.17 1.633.406 2.28.68l-1.334 3.198c-1.125-.537-2.36-.805-3.705-.805-1.23 0-2.184.387-2.855 1.16s-1.008 1.88-1.008 3.316c0 1.4.303 2.484.912 3.224s1.486 1.108 2.63 1.108c.627 0 1.203-.058 1.73-.175v-2.362H71.96zm23.65 1.27c0 2.538-.643 4.466-1.932 5.787s-3.174 1.98-5.658 1.98c-2.45 0-4.326-.663-5.633-2s-1.96-3.26-1.96-5.797c0-2.5.65-4.427 1.95-5.75s3.188-1.986 5.664-1.986c2.484 0 4.365.657 5.646 1.97S95.6 39 95.6 41.534zm-10.74 0c0 2.916 1.05 4.374 3.15 4.374 1.066 0 1.86-.354 2.375-1.062s.773-1.812.773-3.3c0-1.506-.262-2.618-.783-3.337s-1.305-1.1-2.345-1.1c-2.114-.001-3.17 1.47-3.17 4.414z" fill="#222a35"/></g></svg>