<?xml version="1.0" encoding="UTF-8" standalone="no"?>
<!-- Generator: Adobe Illustrator 19.0.0, SVG Export Plug-In . SVG Version: 6.00 Build 0)  -->

<svg
   xmlns:dc="http://purl.org/dc/elements/1.1/"
   xmlns:cc="http://creativecommons.org/ns#"
   xmlns:rdf="http://www.w3.org/1999/02/22-rdf-syntax-ns#"
   xmlns:svg="http://www.w3.org/2000/svg"
   xmlns="http://www.w3.org/2000/svg"
   xmlns:sodipodi="http://sodipodi.sourceforge.net/DTD/sodipodi-0.dtd"
   xmlns:inkscape="http://www.inkscape.org/namespaces/inkscape"
   version="1.1"
   id="Layer_1"
   x="0px"
   y="0px"
   viewBox="0 0 120 60"
   enable-background="new 0 0 713 236"
   xml:space="preserve"
   sodipodi:docname="sangria-ar21.svg"
   width="120"
   height="60"
   inkscape:version="0.92.3 (2405546, 2018-03-11)"><metadata
   id="metadata48"><rdf:RDF><cc:Work
       rdf:about=""><dc:format>image/svg+xml</dc:format><dc:type
         rdf:resource="http://purl.org/dc/dcmitype/StillImage" /><dc:title></dc:title></cc:Work></rdf:RDF></metadata><defs
   id="defs46" /><sodipodi:namedview
   pagecolor="#ffffff"
   bordercolor="#666666"
   borderopacity="1"
   objecttolerance="10"
   gridtolerance="10"
   guidetolerance="10"
   inkscape:pageopacity="0"
   inkscape:pageshadow="2"
   inkscape:window-width="1920"
   inkscape:window-height="1001"
   id="namedview44"
   showgrid="false"
   inkscape:zoom="5.3791685"
   inkscape:cx="72.371917"
   inkscape:cy="27.216538"
   inkscape:window-x="-9"
   inkscape:window-y="-9"
   inkscape:window-maximized="1"
   inkscape:current-layer="Layer_1" />

<g
   id="g222"
   transform="translate(7.9915106)"><g
     transform="matrix(1.7532403,0,0,1.7532403,-25.912156,-28.619149)"
     id="g166"><g
       id="XMLID_2_"
       transform="matrix(0.11260621,0,0,0.11260621,15.523731,20.035148)">
	<path
   id="XMLID_33_"
   d="m 130.9,32.5 c 15.4,-8 26.7,-17.8 36.5,-14.9 11.2,3.3 10.2,11.5 3,20.2 -6.2,7.4 -4.3,29.1 -2.5,39.1 2.5,13.9 3.6,15.8 15.3,28 7.2,7.5 15.3,20.9 18.8,45.5 2.2,15.7 -2.2,32.5 -15.5,52.2 -6.4,9.5 -18.9,16.5 -29.6,17.6 -16,1.6 -32.9,0 -49.2,0 C 89.8,220.2 76.9,214 69,196.7 59.5,175.8 54,153 63.3,129.6 71.6,108.6 74.5,107.5 81.5,98.2 85.9,92.2 92,84.5 91.8,77 c -0.3,-18.1 -9,-19.6 2.3,-29.8 10.2,-9.4 25.1,-8.6 36.8,-14.7 z"
   inkscape:connector-curvature="0"
   style="fill:#f9e3d2" />
	<path
   id="XMLID_32_"
   d="M 91.8,93 C 93.3,84.7 74.7,74.1 67.3,71.8 54.7,68 42,72.3 31.4,79.6 21.8,86.2 17.3,97 17.5,108.3 c 0.2,12.2 10.8,20.9 19.9,27.9 9.6,7.3 20,13.6 30,20.3 3.1,-4.6 3.5,-10.8 3,-16.2 C 55,139 27.1,117.4 30.7,99.8 32.5,91 44.3,84.5 52.6,83.4 c 10.9,-1.4 19.2,5 27.2,11.9 2.9,2.6 6.8,7.2 8.6,9.1 z"
   inkscape:connector-curvature="0"
   style="fill:#f9e3d2" />
	<path
   id="XMLID_31_"
   d="m 164.8,89.5 c 0,0 8.6,19 13.9,27.3 6.1,9.6 10.3,18.5 12.1,29.6 3.3,20.4 -4.7,50.3 -23.9,61.7 -9.9,5.9 -20.3,0.6 -31.8,0 -12.2,-0.6 -16.6,0.4 -28.5,2.3 C 94,212.5 83.5,204.3 78,193.7 73.1,184.3 71.7,179 70.3,168.3 c -2.2,-15.8 0.3,-30.1 3.6,-39.7 2.2,-6.4 8.6,-16.7 12,-22.6 4.8,-8.4 10.8,-17.6 10.8,-17.6 5.5,-3.4 14.4,-0.2 20.1,1 8,1.7 16,4 24.2,4.6 2.7,0.1 13.1,1.8 23.8,-4.5 z"
   inkscape:connector-curvature="0"
   style="fill:#dc7676" />
	<g
   id="XMLID_20_">
		<path
   id="XMLID_30_"
   d="m 92.6,153.6 c 1.9,-1.4 4,-2.5 6.1,-3.3 2.2,-0.8 4.5,-1.3 6.7,-1.6 2.3,-0.2 4.6,-0.1 6.9,0.2 2.3,0.4 4.5,1 6.6,1.9 2.1,0.9 4,2.3 5.8,3.8 1.7,1.4 3.3,3.1 4.7,5 1.4,1.9 2.5,3.9 3.3,6 0.8,2.2 1.3,4.4 1.5,6.7 0.2,2.3 0.2,4.6 -0.1,6.9 -0.4,2.3 -1.1,4.4 -2,6.6 -0.9,2.1 -2.1,4.1 -3.6,5.9 -1.4,1.7 -3,3.5 -4.9,4.8 -1.9,1.4 -4,2.5 -6.1,3.3 -2.2,0.8 -4.5,1.2 -6.7,1.4 -2.3,0.2 -4.6,0.3 -6.9,-0.1 -2.3,-0.4 -4.5,-1.1 -6.6,-2 -2.1,-0.9 -4.1,-2 -6,-3.5 -1.8,-1.4 -3.3,-3.1 -4.7,-5.1 -1.4,-1.9 -2.6,-3.9 -3.4,-6 -0.8,-2.2 -1.2,-4.5 -1.5,-6.7 -0.2,-2.3 -0.1,-4.6 0.3,-6.9 0.4,-2.3 0.8,-4.6 1.7,-6.7 0.9,-2.1 2.3,-4 3.7,-5.8 1.7,-1.7 3.3,-3.4 5.2,-4.8 z"
   inkscape:connector-curvature="0"
   style="fill:#f79029" />
		<path
   id="XMLID_29_"
   d="m 93.9,155.4 c 2.1,-1.5 4.5,-2.4 6.9,-3.2 2.4,-0.8 4.9,-1.1 7.4,-1.1 2.5,0 5.1,0 7.5,0.7 2.4,0.8 4.9,1.7 6.9,3.2 2,1.5 3.6,3.6 5.1,5.7 1.5,2.1 2.6,4.4 3.4,6.8 0.8,2.4 0.8,4.9 0.7,7.5 0,2.5 0.4,5.2 -0.4,7.6 -0.8,2.4 -1.9,4.8 -3.4,6.9 -1.5,2 -3.6,3.6 -5.7,5.1 -2.1,1.5 -4.5,2.4 -6.8,3.1 -2.4,0.8 -4.9,1.4 -7.4,1.4 -2.5,0 -5.1,-0.2 -7.5,-1 -2.4,-0.8 -4.9,-1.7 -6.9,-3.2 -2,-1.5 -4,-3.3 -5.5,-5.4 -1.5,-2.1 -2,-4.8 -2.8,-7.1 -0.8,-2.4 -1.3,-4.9 -1.3,-7.4 0,-2.5 0.2,-5.1 1,-7.5 0.8,-2.4 2.3,-4.5 3.8,-6.5 1.3,-2 2.9,-4.1 5,-5.6 z"
   inkscape:connector-curvature="0"
   style="fill:#ffefd5" />
		<path
   id="XMLID_28_"
   d="m 90.6,186.1 c 1.8,-0.3 14.7,-8.9 14.6,-10.6 0,0 -15.8,-2.8 -17.5,-2.4 -1.8,0.3 1,13.4 2.9,13 z"
   inkscape:connector-curvature="0"
   style="fill:#fbae25" />
		<path
   id="XMLID_27_"
   d="m 106.2,174.4 c -1.5,-2.8 -8.3,-15.6 -10,-16.1 -1.7,-0.6 -9.9,10.5 -8.5,11.8 1.4,1.3 19.3,5.9 18.5,4.3 z"
   inkscape:connector-curvature="0"
   style="fill:#fbae25" />
		<path
   id="XMLID_26_"
   d="m 118.4,192.2 c -0.1,-3 -8.2,-14.8 -10.2,-14.4 -2,0.3 -2.8,15.3 -1.6,17.9 0.9,1.7 11.9,-0.4 11.8,-3.5 z"
   inkscape:connector-curvature="0"
   style="fill:#fbae25" />
		<path
   id="XMLID_25_"
   d="m 103,194.3 c 1.4,-1.2 4.2,-15.7 3.2,-16.3 -1,-0.6 -13.6,8.7 -14.3,10.5 -0.6,1.8 8.7,7.9 11.1,5.8 z"
   inkscape:connector-curvature="0"
   style="fill:#fbae25" />
		<path
   id="XMLID_24_"
   d="m 126.3,166.3 c -6.2,2.7 -16.1,7.4 -15.8,8.6 0.2,0.7 14.5,2.7 17.3,3.6 3.2,1 0.9,-13.3 -1.5,-12.2 z"
   inkscape:connector-curvature="0"
   style="fill:#fbae25" />
		<path
   id="XMLID_23_"
   d="m 110.1,176.4 c -0.9,1.5 7.9,10.3 11.2,14.2 1.2,1.4 8.5,-6.5 6.9,-9 -1.8,-2.8 -17.2,-6.7 -18.1,-5.2 z"
   inkscape:connector-curvature="0"
   style="fill:#fbae25" />
		<path
   id="XMLID_22_"
   d="m 98.6,156.8 c 2.1,4.7 7.1,16.8 9.1,17.2 2,0.4 4.4,-16.7 2.6,-19 -1.8,-2.4 -13,-1 -11.7,1.8 z"
   inkscape:connector-curvature="0"
   style="fill:#fbae25" />
		<path
   id="XMLID_21_"
   d="m 110.3,171.8 c -0.3,1.2 -0.7,1.8 0.6,1 1.4,-0.8 9.4,-5.1 11.2,-6 1.8,-0.9 5.2,-3 1.9,-6.7 -3.2,-3.7 -6.8,-4.8 -9.1,-5.1 -2.3,-0.3 -2.4,2.3 -2.6,4.2 -0.1,1.8 -1.4,10.3 -2,12.6 z"
   inkscape:connector-curvature="0"
   style="fill:#fbae25" />
	</g>
	<g
   id="XMLID_9_">
		<path
   id="XMLID_19_"
   d="m 172.3,120.2 c 0.8,2 1.4,4 1.6,6 0.3,2.1 0.2,4.2 0,6.2 -0.3,2.1 -0.9,4.1 -1.7,6 -0.8,1.9 -1.8,3.8 -3.1,5.4 -1.3,1.6 -2.9,3 -4.5,4.3 -1.6,1.2 -3.4,2.2 -5.4,3 -2,0.8 -4,1.4 -6,1.7 -2.1,0.3 -4.2,0.2 -6.2,-0.1 -2.1,-0.3 -4.1,-0.8 -6,-1.6 -1.9,-0.8 -3.7,-1.9 -5.3,-3.2 -1.6,-1.3 -3.1,-2.7 -4.4,-4.4 -1.2,-1.6 -2.4,-3.4 -3.2,-5.3 -0.8,-2 -1.3,-4 -1.6,-6 -0.3,-2.1 -0.1,-4.2 0.2,-6.2 0.3,-2.1 0.7,-4.1 1.5,-6 0.8,-1.9 1.9,-3.7 3.2,-5.3 1.3,-1.6 2.6,-3.2 4.3,-4.5 1.6,-1.2 3.5,-2.2 5.4,-3 2,-0.8 4,-1.4 6,-1.7 2.1,-0.3 4.2,-0.1 6.2,0.1 2.1,0.3 4,0.9 6,1.7 1.9,0.8 3.8,1.7 5.5,2.9 1.6,1.3 3,2.8 4.3,4.5 1.2,1.8 2.4,3.5 3.2,5.5 z"
   inkscape:connector-curvature="0"
   style="fill:#f79029" />
		<path
   id="XMLID_18_"
   d="m 170.4,120.9 c 0.9,2.2 1.2,4.5 1.3,6.7 0.2,2.3 -0.1,4.5 -0.6,6.7 -0.5,2.2 -1,4.5 -2.2,6.4 -1.2,1.9 -2.5,3.9 -4.3,5.4 -1.7,1.4 -3.9,2.4 -6.1,3.3 -2.2,0.9 -4.4,1.4 -6.6,1.6 -2.3,0.2 -4.5,-0.4 -6.7,-0.9 -2.2,-0.5 -4.6,-0.8 -6.6,-2 -1.9,-1.2 -3.8,-2.7 -5.3,-4.5 -1.4,-1.7 -2.4,-3.9 -3.3,-6.1 -0.9,-2.2 -1.1,-4.4 -1.3,-6.7 -0.2,-2.3 -0.2,-4.6 0.3,-6.8 0.5,-2.2 1.3,-4.4 2.5,-6.4 1.2,-1.9 2.5,-3.9 4.3,-5.4 1.7,-1.4 3.7,-2.8 5.9,-3.7 2.2,-0.9 4.6,-0.8 6.8,-0.9 2.3,-0.2 4.6,-0.1 6.8,0.4 2.2,0.5 4.4,1.3 6.4,2.5 1.9,1.2 3.4,3 4.9,4.7 1.4,1.8 2.9,3.5 3.8,5.7 z"
   inkscape:connector-curvature="0"
   style="fill:#ffefd5" />
		<path
   id="XMLID_17_"
   d="m 144.1,111.5 c -0.1,1.7 4.7,14.8 6.2,15.1 0,0 5.8,-13.3 5.9,-14.9 0.1,-1.6 -12,-1.9 -12.1,-0.2 z"
   inkscape:connector-curvature="0"
   style="fill:#fbae25" />
		<path
   id="XMLID_16_"
   d="m 151.1,127.7 c 2.8,-0.7 15.4,-4 16.3,-5.4 0.9,-1.4 -7.2,-10.9 -8.6,-9.9 -1.4,0.9 -9.2,15.6 -7.7,15.3 z"
   inkscape:connector-curvature="0"
   style="fill:#fbae25" />
		<path
   id="XMLID_15_"
   d="m 132.9,134.6 c 2.7,0.6 14.7,-4.1 14.8,-5.9 0.2,-1.8 -12.9,-5.7 -15.4,-5.2 -1.7,0.5 -2.2,10.5 0.6,11.1 z"
   inkscape:connector-curvature="0"
   style="fill:#fbae25" />
		<path
   id="XMLID_14_"
   d="m 134.3,120.7 c 0.7,1.4 12.9,7 13.6,6.3 0.7,-0.7 -4.7,-13.8 -6.2,-14.7 -1.4,-1.1 -8.7,5.8 -7.4,8.4 z"
   inkscape:connector-curvature="0"
   style="fill:#fbae25" />
		<path
   id="XMLID_13_"
   d="m 154,147 c -1.1,-6 -3.1,-15.7 -4.2,-15.7 -0.6,0 -5.5,12.2 -6.8,14.4 -1.6,2.6 11.4,3.7 11,1.3 z"
   inkscape:connector-curvature="0"
   style="fill:#fbae25" />
		<path
   id="XMLID_12_"
   d="m 148.5,130.7 c -1.1,-1.1 -10.7,4.8 -14.8,6.8 -1.5,0.8 3.9,8.9 6.4,8 2.9,-1 9.6,-13.7 8.4,-14.8 z"
   inkscape:connector-curvature="0"
   style="fill:#fbae25" />
		<path
   id="XMLID_11_"
   d="m 168.1,124.7 c -4.5,0.9 -16.2,2.7 -17,4.4 -0.8,1.7 13.7,7.4 16.1,6.3 2.5,-1.1 3.7,-11.2 0.9,-10.7 z"
   inkscape:connector-curvature="0"
   style="fill:#fbae25" />
		<path
   id="XMLID_10_"
   d="m 152.5,131.9 c -1,-0.5 -1.4,-1 -1,0.4 0.4,1.4 2.5,9.3 2.9,11.1 0.4,1.7 1.5,5.2 5.4,3.1 3.9,-2.1 5.7,-5 6.4,-6.9 0.7,-1.9 -1.6,-2.6 -3.1,-3.1 -1.5,-0.7 -8.7,-3.7 -10.6,-4.6 z"
   inkscape:connector-curvature="0"
   style="fill:#fbae25" />
	</g>
	<g
   id="XMLID_6_">
		<path
   id="XMLID_8_"
   d="m 99.1,110.2 c -2.9,2.2 -4.7,6 -5.2,9.6 -0.8,5.2 1.2,11.8 4.3,16 1.3,1.7 1.7,2.4 3.8,2.4 2.7,0 5.2,-0.7 7.8,-1.2 1.2,-0.2 4.4,-0.3 5.3,-1.2 0.9,-0.9 0.8,-4.4 1.2,-5.8 0.7,-2.9 1.5,-5 3.4,-7.3 1.9,-2.3 4.1,-3.3 2.2,-6.5 -2.1,-3.5 -5.3,-7.4 -8.7,-9.7 -2.5,-1.7 -5.1,-1.4 -7.6,-0.3 -2.7,1.2 -4.1,2.2 -6.5,4 z"
   inkscape:connector-curvature="0"
   style="fill:#eebc7f" />
		<path
   id="XMLID_7_"
   d="m 102.6,133.5 c 0.2,-5.3 0.8,-11.2 3.2,-16 1.3,-2.7 3.1,-5.2 4.7,-7.7 0.6,-1 1.6,-2.2 2.1,-3.5 -2.3,-1.3 -4.8,-1.1 -7.1,-0.1 -2.7,1.2 -4.1,2.1 -6.5,3.9 -2.9,2.2 -4.7,6 -5.2,9.6 -0.8,5.2 1.2,11.8 4.3,16 1.3,1.7 1.7,2.4 3.8,2.4 0.2,0 0.3,0 0.5,0 0.2,-1.5 0.1,-3.1 0.2,-4.6 z"
   inkscape:connector-curvature="0"
   style="fill:#e0845f" />
	</g>
	<g
   id="XMLID_3_">
		<path
   id="XMLID_5_"
   d="m 154,185.2 c 3,0.8 6.2,-0.1 8.6,-1.8 3.4,-2.4 6,-7.6 6.6,-12.1 0.2,-1.9 0.3,-2.6 -0.9,-4 -1.6,-1.9 -3.6,-3.3 -5.4,-4.8 -0.8,-0.7 -2.8,-3 -3.9,-3.1 -1.1,-0.1 -3,1.9 -4,2.4 -2.1,1.1 -3.8,1.7 -6.2,1.7 -2.5,0 -4.4,-1 -5,2.1 -0.7,3.5 -1.1,8 -0.3,11.7 0.5,2.7 2.3,4.4 4.4,5.6 2.2,1.1 3.6,1.6 6.1,2.3 z"
   inkscape:connector-curvature="0"
   style="fill:#eebc7f" />
		<path
   id="XMLID_4_"
   d="m 165.2,169.4 c -3.2,2.8 -6.9,5.8 -11.1,6.8 -2.3,0.6 -4.8,0.8 -7.2,1 -0.9,0.1 -2.2,0.1 -3.3,0.5 0.6,2.4 2.3,4 4.3,5.1 2.3,1.2 3.7,1.7 6.1,2.4 3,0.8 6.2,-0.1 8.6,-1.8 3.4,-2.4 6,-7.6 6.6,-12.1 0.2,-1.9 0.3,-2.6 -0.9,-4 -0.1,-0.1 -0.2,-0.2 -0.3,-0.3 -1,0.7 -1.9,1.6 -2.8,2.4 z"
   inkscape:connector-curvature="0"
   style="fill:#e0845f" />
	</g>
</g></g><g
     transform="translate(6,-3.4287409)"
     id="g177"><g
       id="XMLID_1_"
       style="fill:#dc7676;fill-opacity:1"
       transform="matrix(0.11260621,0,0,0.11260621,15.523731,20.035148)">
	<path
   id="XMLID_7635_"
   d="m 492.7,79.8 c -2.9,-2.3 -3,-4.5 -1.3,-7.4 1.8,-3 4.6,-5 6.5,-7.8 1.7,-2.5 4.8,-5.3 2,-8.2 -2.7,-2.8 -6.3,-1.5 -9.5,0.2 -1.9,1.1 -3.5,2.7 -4.6,4.5 -1.2,1.8 -2.4,3.7 -3.3,5.7 -2.4,5.2 -6.7,6.9 -12,6.6 -5.6,-0.3 -10.7,0.9 -15.1,4.7 -4.1,3.6 -8.1,7.4 -11,12 -3.1,4.9 -6.4,9.9 -6.9,16 -0.7,9.9 6.3,21.2 15.5,25.4 1.8,0.8 3.4,1.3 2.4,3.7 -2.5,6.2 -2.6,12.5 -0.7,18.8 0.6,2.1 -0.1,3.3 -2.2,4 -2.8,0.9 -5.3,2.3 -7,4.7 -4.3,6.3 -7,13.2 -7.2,20.9 -0.3,11.3 6.2,19.5 13.1,27.3 4.5,5.1 10.5,7.6 17.5,7.4 1.8,-0.2 3.6,-0.1 5.3,-0.5 13.7,-3.2 27.9,-15.8 23.7,-37 -1.5,-7.6 -4.3,-14.3 -11.4,-18 -6.4,-3.3 -12.8,-6.8 -20.2,-7.2 -1.8,-0.1 -2.6,-1.1 -3.3,-2.6 -2.9,-6.3 -0.8,-12.3 1.1,-18.3 0.4,-1.4 1.7,-1.5 3,-1.5 2.9,0 5.7,0.2 8.6,-0.1 5.9,-0.7 11.9,-1.4 15.3,-7.1 3.1,-5.1 5.7,-10.5 8.5,-15.7 5.3,-9.9 1.2,-24.2 -6.8,-30.5 z m -25.5,84.8 c 6.3,1.3 11.8,4.3 16.6,8.4 4.6,4 4,9.6 4.6,16.1 0.4,4.2 -1.4,8.3 -4.5,12.4 -7.4,9.5 -19,7.9 -26.5,0.8 -8.4,-7.9 -9.6,-17.9 -6.8,-28.6 1.3,-5.1 10.9,-10.3 16.6,-9.1 z m 14.9,-43 c -0.4,0.4 -0.9,0.7 -1.3,0.9 -9.4,5.2 -25.7,0.8 -30.6,-8.6 -2.6,-5 -2.9,-10.6 0.2,-15.3 4.9,-7.4 10.3,-14.5 20.2,-15.7 6.2,-0.7 11.9,0.9 16.7,4.4 4.6,3.4 4,9.2 4.6,13.8 -0.3,8.7 -3.8,15.2 -9.8,20.5 z"
   style="fill:#dc7676;fill-opacity:1"
   inkscape:connector-curvature="0" />
	<path
   id="XMLID_7632_"
   d="m 356.8,152.3 c 0.6,-11.4 -0.1,-22.9 -0.4,-34.3 -0.2,-10.2 -1.2,-20.6 -3,-30.8 -1.8,-10.3 -7.2,-15.8 -17,-17.1 -11.7,-1.6 -21.8,2.3 -29.8,11 -2.4,2.6 -1.9,6.5 0.7,8.3 3,2.1 5.5,1.4 7.8,-2 4.5,-6.5 11.1,-8.5 18.4,-8 5.3,0.4 8.7,4.1 9.9,9 1.5,6.1 2.7,12.3 2.5,18.6 0,1.5 0.1,3 0,4.5 -0.2,3.9 -0.8,4.3 -4.4,2.7 -2.5,-1.1 -5,-2.4 -7.6,-2.9 -11.8,-2.1 -18.8,-0.6 -25.5,10.9 -3,5.1 -4.4,10.8 -5.3,16.7 -0.4,2.8 -0.2,5.4 0.8,8 3.2,8.4 15.8,16.1 24.6,14.9 4.2,-0.6 8.1,-2.2 11.9,-4.2 7.2,-3.9 7.2,-4 7.2,4.2 0,3 0.6,5.9 3.9,6.3 3.6,0.4 4.7,-2.5 5.4,-5.5 0.8,-3.5 -0.3,-6.9 -0.1,-10.3 z m -13.5,-8.8 c -5.7,5.3 -11.3,10.5 -19.6,7.3 -11.3,-4.3 -12,-6.3 -8.8,-18.6 1.7,-6.7 6.9,-10.1 13.6,-11.2 7.1,-1.2 12,2.1 15.9,7.5 1.4,2 1,4.5 0.9,6.9 -0.1,2.7 0.8,5.5 -2,8.1 z"
   style="fill:#dc7676;fill-opacity:1"
   inkscape:connector-curvature="0" />
	<path
   id="XMLID_7628_"
   d="m 263.5,68.5 c 6.5,-1.8 12.1,-0.6 16.6,4.7 2.4,2.8 2.6,6.4 3.7,9.8 0.6,1.9 1.6,3.3 2.9,3.8 1.9,0.8 3.8,0.3 5.7,-0.9 2.3,-1.4 3.5,-6.6 1.2,-10.5 -6,-10.1 -14.6,-15.8 -24.9,-16.4 -10.1,0.2 -17.6,3 -23.6,9.2 -5.5,5.7 -9.4,12.4 -11.9,19.8 -1.6,4.7 -1.8,9.9 0.5,14.4 3.7,7.2 7.5,13.9 17.9,13.7 4.1,-0.1 8.4,0.3 12.6,0 5.4,-0.5 9.6,1.2 12.4,6 1.2,2 2.7,3.8 3.8,5.8 3.8,6.9 1.4,13.2 -2.2,19.3 -3.4,5.7 -8.4,8.5 -15.1,7.6 -4.5,-0.6 -8.9,-1.5 -12.3,-4.8 -2.9,-2.8 -1.6,-6.3 -1.4,-9.7 0.2,-3 -2.2,-5.2 -5.2,-5 -3.8,0.2 -7.2,5 -6.5,8.8 1.8,9.8 8.4,15.4 17.2,18.5 6.5,2.3 13.5,4.6 20.2,0.9 8.7,-4.8 14.9,-12.2 16.5,-21.9 1.5,-8.5 0.3,-9.4 -2.2,-17.3 -1.6,-5 -3.2,-7.2 -5.9,-10.4 -2.8,-3.3 -5.5,-4.2 -9.6,-5 -5.8,-1.2 -11.7,-0.4 -17.5,-0.7 -9.1,-0.4 -13.4,-4.9 -13.4,-13.9 -0.1,-11 9.2,-22.7 20.5,-25.8 z"
   style="fill:#dc7676;fill-opacity:1"
   inkscape:connector-curvature="0" />
	<path
   id="XMLID_7624_"
   d="m 423,116.3 c -0.2,-6.2 -1.2,-12.3 -0.7,-18.6 0.4,-5 -4.1,-7.1 -8.4,-4.4 -2.5,1.5 -2.4,3.7 -2.5,6 -0.2,11.3 4,22.3 1.8,33.7 -0.4,1.9 0.5,4.8 -1.6,5.5 -2.1,0.7 -3.4,-1.9 -4.5,-3.5 -5,-7.5 -10.9,-14.3 -16.6,-21.2 -2.6,-3.2 -5.3,-6.2 -8.1,-9.2 -3.7,-3.9 -8.7,-5 -11.1,-1.9 -2.3,2.9 -4.4,6.8 -3.6,10.4 1,4.6 1.1,9.2 1.8,13.7 1.8,11.1 4.4,22.2 4.3,34.6 -0.1,0.8 -0.2,2.7 -0.4,4.6 -0.3,2.7 1.4,4 3.5,4.9 2.3,1.1 3.9,-0.2 5.2,-2 1.9,-2.8 1.9,-5.8 1.4,-9 -2.1,-13.7 -2.2,-27.7 -6.1,-41.2 -0.3,-1 -0.6,-2.3 0.7,-2.9 1,-0.4 1.8,0.4 2.5,1 2.9,2.2 4.9,5.1 7.2,7.8 7.5,9.2 16.3,17.6 20,29.5 1.4,4.5 3.4,5.3 7.8,4.3 5.8,-1.3 8.4,-3.7 7.9,-8.1 -1.2,-11.4 -0.1,-22.7 -0.5,-34 z"
   style="fill:#dc7676;fill-opacity:1"
   inkscape:connector-curvature="0" />
	<path
   id="XMLID_7623_"
   d="m 535.5,118.6 c 1.6,-2.7 3.5,-4.7 6.4,-6.1 2.9,-1.3 6,-1.8 9.1,-2.4 12.7,-2.5 12.7,-2.5 17.7,9.2 0.5,1.1 0.8,2.3 2.5,2.3 2,-0.1 6.2,-3.8 6.2,-5.8 0,-8.2 -7.4,-17.8 -15.9,-16.8 -4.5,0.6 -8.8,1.8 -13.1,2.9 -0.9,0.2 -1.9,0.8 -2.7,-0.1 -0.9,-0.9 -0.6,-2 -0.2,-3.1 0.8,-2.2 2.7,-3.4 4,-5.1 1.8,-2.4 3.2,-5.2 1.4,-7.9 -1.8,-2.6 -4.8,-2.8 -7.8,-2 -1.9,0.5 -2.7,1.8 -3.6,3.5 -0.6,1.1 -3.1,6.1 -3.8,7.2 -1.3,1.9 -4.4,8.5 -7.7,14.6 -6.9,12.9 -12.1,26.6 -19.2,39.4 -1.1,2.4 -2.9,5 0,7.3 2.6,2.2 6.5,1.6 9.1,-1.3 2,-2.2 3.7,-4.7 4.9,-7.5 3.8,-9.4 7.4,-19.2 12.7,-28.3 z"
   style="fill:#dc7676;fill-opacity:1"
   inkscape:connector-curvature="0" />
	<path
   id="XMLID_6803_"
   d="m 569.7,66.1 c 7.5,-0.4 13.5,-4 15.9,-6.2 3.2,-2.9 5.3,-6.5 5.6,-7.1 3,-6.1 3.7,-10.5 1.1,-17.8 -1.7,-4.5 -5.4,-7.7 -9.1,-10.3 -6.9,-4.8 -15.1,-6.6 -23.3,-3.8 -9.1,3.2 -16.4,21.1 -12.9,30.1 3.8,9.3 12.3,15.6 22.7,15.1 z m -2,-37.1 c 10,0.1 17.4,6.7 17.3,15.6 0,6.2 -7.2,13 -13.7,12.8 -8.1,-0.2 -15.5,-7.4 -15.4,-14.9 0.2,-6.7 6.2,-13.6 11.8,-13.5 z"
   style="fill:#dc7676;fill-opacity:1"
   inkscape:connector-curvature="0" />
	<path
   id="XMLID_6802_"
   d="m 626.5,124.6 c -4,-6.9 -8.3,-14.4 -12.8,-21.7 -3.7,-6 -7.2,-12.1 -10.1,-18.4 -1.3,-2.9 -4.3,-4.1 -7.2,-3.2 -3.1,0.9 -5.3,4 -4.4,6.5 0.5,1.4 1.4,2.8 2.2,4.1 5.3,9 12.5,17.2 16.1,26.7 3.3,8.7 10.2,16.1 13.1,25 0.6,1.7 2.1,3.5 4.8,3.4 2.7,-0.2 4.6,-1.8 5.9,-3.6 1.2,-1.7 0.3,-3.5 -0.8,-4.9 -3.3,-4.2 -5.1,-8.7 -6.8,-13.9 z"
   style="fill:#dc7676;fill-opacity:1"
   inkscape:connector-curvature="0" />
	<path
   id="XMLID_7641_"
   d="m 688.7,144.7 c 0.9,-22.3 1.5,-46.7 -6.3,-74 -2.1,-7.5 -7.6,-12.5 -12.5,-14.5 -6,-2.4 -12.4,-1.6 -18.5,0.4 -0.2,0.1 -0.5,0.2 -0.7,0.2 -4.1,1.4 -7.3,3 -10.5,5.5 -0.9,0.7 -1.7,1.5 -2.6,2.2 -0.1,0.1 -0.3,0.3 -0.4,0.4 -6.6,6.3 -8.6,15.8 -6,24.7 3,10.4 13.9,20.4 29.1,14.9 3.1,-1.1 4.9,-1.8 7.9,-3.4 3.1,-1.7 3.2,-4.6 2.7,-7 -0.3,-1.6 -2.3,-3.4 -4.3,-3.5 -4.3,-0.2 -3.5,1.8 -8,4.5 -2.5,1.5 -7.7,1.9 -9.5,1.3 -9.7,-3.2 -9.6,-7.9 -9.3,-15 0.5,-9.8 8.2,-14.2 16.4,-16.3 2.8,-0.7 5.6,-0.8 7.9,-0.3 4.5,1 6,3.9 8.4,8.1 5.2,8.8 12.3,56.8 7,76.8 -0.8,2.8 -1.3,4 -4.2,2.4 -4.5,-2.4 -9.2,-4.2 -14.3,-3.7 -8.1,-0.7 -13.7,3.1 -17.8,9.5 -4.9,7.7 -8.5,16.3 -6,25.1 3,10.4 16.9,21.6 31.5,14.7 3.1,-1.5 6.1,-3 9.1,-4.6 2.3,-1.2 3.4,-0.4 3.4,2.1 0,1.9 -0.1,3.8 0,5.7 0.1,2.6 1.3,4.7 3.9,5 2.6,0.3 3.9,-1.7 4.6,-3.9 0.5,-1.5 0.7,-3.2 0.6,-4.8 -0.2,-17.5 -2.5,-28.1 -1.6,-52.5 z m -9,30.7 c -0.9,5.5 -14.6,16.8 -22.5,13.7 -8.1,-3.2 -10.8,-6.1 -10,-13.8 1,-9.3 7,-15.5 15.2,-16.5 7,-0.8 11.7,2.4 15.6,7.5 1.4,1.9 2.2,5.8 1.7,9.1 z"
   style="fill:#dc7676;fill-opacity:1"
   inkscape:connector-curvature="0" />
</g></g></g>
</svg>