<svg xmlns="http://www.w3.org/2000/svg" width="120" height="60" fill="#8aa651"><path d="M43.038 41.166h-.945a.19.19 0 0 0-.156.078l-1.7 2.826c-.083.102-.14.102-.22 0l-1.642-2.817a.18.18 0 0 0-.156-.083h-.926c-.108 0-.195.087-.195.195v5.687c0 .108.087.195.195.195h.926c.108 0 .195-.087.195-.195V44.13c0-.2.18-.268.292-.117l1.267 2.066c.037.05.095.078.156.078s.12-.03.156-.078l1.316-2.076c.112-.15.288-.068.288.117v2.924c0 .108.087.195.195.195h.945c.108 0 .195-.087.195-.195V41.36c0-.108-.087-.195-.195-.195zm7.1.117c-.033-.07-.103-.115-.18-.117h-.975c-.077.002-.147.047-.18.117l-2.524 5.672c-.026.06-.02.13.015.183s.096.088.16.1h1c.08-.001.152-.05.18-.127l.37-.945c.028-.075.1-.126.18-.127h2.55c.08 0 .15.048.18.122l.38.975c.03.074.1.122.18.122h.975c.065-.001.126-.035.16-.1s.04-.124.015-.183zm-.034 3.572h-1.3a.2.2 0 0 1-.16-.085c-.037-.053-.044-.12-.022-.178l.668-1.628c.03-.073.1-.12.18-.12s.15.048.18.12l.648 1.623c.025.06.017.13-.02.184s-.1.086-.165.084zm17.403-.92c-.053-.067-.053-.162 0-.23l1.818-2.227a.19.19 0 0 0-.146-.312h-1.004c-.058.002-.113.028-.15.073l-2.042 2.573a.19.19 0 0 1-.341-.117v-2.34a.19.19 0 0 0-.19-.19h-.902c-.104.003-.187.086-.2.2v5.697c0 .106.084.192.2.195h.902a.19.19 0 0 0 .19-.195v-.975c-.001-.045.015-.088.044-.122l.765-.936c.037-.047.094-.075.154-.075s.117.028.154.075l1.486 2.144c.036.05.094.082.156.083h1.116a.19.19 0 0 0 .156-.302zm9.8 2.144H74.45a.22.22 0 0 1-.219-.219v-.906a.22.22 0 0 1 .219-.219h1.9a.22.22 0 0 0 .219-.219v-.663a.22.22 0 0 0-.219-.214h-1.9a.22.22 0 0 1-.219-.219v-.863a.22.22 0 0 1 .219-.219h2.656a.22.22 0 0 0 .214-.219v-.73a.22.22 0 0 0-.214-.219H73.17a.22.22 0 0 0-.219.219v5.624a.22.22 0 0 0 .219.219h4.152a.22.22 0 0 0 .214-.219v-.736c-.01-.117-.112-.203-.23-.195zm8.12-4.913h-4.873c-.106.003-.2.1-.2.195v.785c.003.104.086.187.2.2h1.584c.106.003.2.1.2.195v4.522c0 .052.02.1.057.138a.19.19 0 0 0 .138.057h.9a.19.19 0 0 0 .19-.195V42.53c0-.052.02-.1.057-.138a.19.19 0 0 1 .138-.057h1.6a.19.19 0 0 0 .19-.19v-.785a.19.19 0 0 0-.171-.195zm-24.62 2.25c0-1.326-1.004-2.266-2.753-2.276h-1.9c-.106 0-.192.084-.195.2v5.72c0 .052.02.1.057.138a.19.19 0 0 0 .138.057h.936c.052 0 .1-.02.138-.057a.19.19 0 0 0 .057-.138v-1.23c0-.15.03-.195.2-.195h.848c.214 0 .268 0 .33.097l.692 1.384c.033.065.098.106.17.107h1.048c.068 0 .13-.034.167-.092s.04-.13.008-.2l-.804-1.584a.2.2 0 0 1 .063-.249 1.97 1.97 0 0 0 .8-1.7zm-2.632 1.057h-.726a.19.19 0 0 1-.19-.19v-1.798a.19.19 0 0 1 .19-.195h.673c.8.034 1.384.4 1.384 1.072s-.414 1.048-1.33 1.1zm45.453-15.217c-.083.078-.838 4.67-4.103 4.67-1.267 0-2.164-.975-2.714-2.105 4-.887 5.33-4.045 5.33-6.204 0-2.52-1.788-3.4-3.3-3.4-2.485 0-5.716 2.3-5.716 6.823a9.17 9.17 0 0 0 .068 1.174 3.67 3.67 0 0 1-2.115-1.501c.746-3.338.614-6.535-.93-6.535-.867 0-1.608 1.145-1.608 3.63.014 1.07.28 2.122.775 3.07-.317 1.516-1.403 5.214-2.792 5.214-1.9 0-1.32-9.08-1.32-10.424 0-1.092-2.64-2.242-3.226-1.662-.25.253-.297 1.735-.297 3.65-.006 1.726.15 3.45.463 5.146-.18.936-.975 3.333-2.437 3.333-2.28 0-1.126-8.6-1.126-9.985 0-.975-2.544-1.92-3.168-1.296-.244.244-.414 1.983-.414 4.693-.005 1.15.07 2.297.23 3.436-.24 1.204-1.184 3.133-2.714 3.133-2.437 0-1.36-9.425-.7-15.24a17.99 17.99 0 0 1 1.218-.18c1.067-.117 2.373-.327 2.373.327 0 1.525 1.02 1.998 1.77 1.998.824 0 1.564-.648 1.564-1.896s-1.062-2.378-2.963-2.378a23.44 23.44 0 0 0-3.767.35c.102-.975.166-1.74.166-2.203 0-1.296-2.656-2.534-3.182-2.008-.102.102-.458 2.13-.765 4.937a28.15 28.15 0 0 1-5.482.697c-.624 0-.546 1.9 1.594 1.9a14.51 14.51 0 0 0 3.694-.604c-.17 1.95-.292 4.142-.292 6.243a30.16 30.16 0 0 0 .346 4.932c-.24 1.043-1 3.153-2.373 3.153-2.675 0-1.408-9.26-1.408-10.638 0-.658-2.437-2.08-2.924-1.574a1.46 1.46 0 0 0-.112.458c-.376-.196-.8-.28-1.223-.24-3.4 0-6.155 4.22-6.155 8.07v.54c-.53 1.238-1.87 3.382-4.293 3.382-1.2 0-2.1-.8-2.68-1.837a7.02 7.02 0 0 0 5.229-6.457 3.66 3.66 0 0 0-3.611-3.684c-2.632-.005-5.555 2.64-5.555 7.105a8.17 8.17 0 0 0 .673 3.367c-.487.75-1.204 1.5-2.193 1.5-2.734 0-.902-9.196-.902-10.175a1.12 1.12 0 0 0-.43-1.01c-.575-.404-3.87-.843-4.985-1.062v-.7c0-1.78-1.116-2.188-1.832-2.188-1.213 0-1.462 1.365-1.462 1.696a2.52 2.52 0 0 0 1.301 2.183c0 3.324-2.115 11.16-7.797 11.16-4.284 0-5.848-4.415-5.848-7.705 0-5.53 3.246-9.815 5.36-9.815 2.636 0 .312 5.083 2.924 5.083 1.857 0 2.115-1.798 2.115-2.627 0-1.55-1.618-4.444-5.054-4.444-5.453 0-9.517 6.676-9.517 12.402 0 5.482 3.767 9.927 9.08 9.927 8.182 0 10.234-8.7 10.653-13.552a18.9 18.9 0 0 1 1.95.487c.214.214-.414 3.168-.414 6.004 0 3.562 1.17 6.413 3.972 6.413 1.754 0 3.168-1.277 3.9-2.256a5.6 5.6 0 0 0 4.386 2.212 6.6 6.6 0 0 0 5.492-3.109c.77 2.08 2.344 3.1 3.772 3.1 1.988 0 3.187-2.67 3.255-3.104.604 1.862 2.008 3.148 3.592 3.148 2.008 0 3.2-1.823 3.704-2.958.7 1.92 1.847 2.958 3.48 2.958 1.866 0 3.1-1.7 3.655-2.836.6 1.662 1.57 2.836 3.133 2.836 2.095 0 3.4-2.134 3.83-3.226.682 1.837 1.764 3.158 3.4 3.158 1.842 0 3.445-2.636 4.386-5.624.83.792 1.886 1.303 3.02 1.462.926 2.685 3.104 4.18 5.395 4.18 4.006 0 5.546-4.113 5.7-5.078s-.736-2.154-1.043-1.847zm-55.267-5.8c1.672 0 .677 6.374-2.066 7.422-.192-.598-.297-1.22-.312-1.847 0-2.15.872-5.575 2.378-5.575zM58.5 33.573c-2.924 0-.877-10.092 1.462-10.092 1.574 0 1.326 10.092-1.462 10.092zM98.47 23.5c1.608 0 .687 6.58-2.125 7.013a6.01 6.01 0 0 1-.205-1.462c-.01-2.17.8-5.55 2.32-5.55z"/></svg>