<svg xmlns="http://www.w3.org/2000/svg" width="512" height="512"><rect width="512" height="512" rx="76" fill="#af0011"/><g fill="#fff"><path d="M145.96 331.955l.942 1.6-.942-1.6zm98.287 64.295l-3-.33c.983.165 1.967.248 3 .33a125.83 125.83 0 0 0 23.64.206 125.87 125.87 0 0 1-23.64-.206zm24.1.165l7.825-.95-7.825.95zm69.813-28.846l4.384-3.797a179.68 179.68 0 0 1-4.384 3.797zm-192.2-35.614l-3.728.3 3.728-.3zm251.557-77.336c-4.056 2.3-8.358 4.622-12.783 6.933 4.425-2.3 8.686-4.58 12.783-6.933l2.17-1.238c-.737.413-1.434.867-2.17 1.238zm-243.977 4.086c.04-.083.04-.165.04-.248-.04.042-.04.124-.04.248z"/><path d="M447.05 195.7c-5.244-17.704-29.335-24.884-73.54-21.954-.737.042-1.475.083-2.17.165 2.827 3.632 5.45 7.387 7.948 11.266a148.11 148.11 0 0 1 6.965 12.174c27.163-.702 35.603 3.92 37.53 5.324-.82 2.187-5.12 10.234-26.344 23.812-.082.042-.123.082-.205.124s-.123.082-.205.124c-.123.082-.287.206-.45.3-.287.165-.574.37-.9.578-2.417 1.527-5.04 3.095-7.907 4.746-.696.413-1.434.825-2.17 1.238l-3.44 1.94c-.37.207-.778.413-1.188.66-2.376-9.203-5.695-18.075-9.915-26.4l-.86-1.692c-.615-1.114-1.188-2.27-1.844-3.343-.287-.537-.656-1.114-.942-1.65-.86-1.486-1.72-2.93-2.622-4.333a126.02 126.02 0 0 0-17.904-22.243c-2.376-2.394-4.875-4.663-7.457-6.892l-3.114-2.6-1.598-1.238c-1.434-1.114-2.868-2.187-4.343-3.22l-3.605-2.435c-2.417-1.6-4.916-3.095-7.457-4.54-1.762-1-3.523-1.94-5.367-2.847l-1.803-.908-4.916-2.27c-1.64-.702-3.36-1.403-5.04-2.022-1.68-.66-3.4-1.238-5.162-1.816-1.72-.578-3.482-1.114-5.244-1.6-7.088-2.022-14.422-3.425-22-4.168-18.723-1.898-36.955.413-53.712 6.15a128.28 128.28 0 0 0-5.12 1.857 130.6 130.6 0 0 0-5.039 2.105l-4.916 2.3c-12.947 6.396-24.787 14.94-34.907 25.215-3.155 3.22-6.186 6.603-8.972 10.152-1.147 1.403-2.212 2.847-3.278 4.333-2.13 2.93-4.138 5.984-6.064 9.08-1.434 2.352-2.786 4.705-4.056 7.18-5.53 10.565-9.628 22.037-12.086 34.2-.656 3.136-1.147 6.314-1.557 9.533l-.37 3.22c-.533 5.324-.737 10.647-.615 15.847a127.96 127.96 0 0 0 6.432 37.4c-7.416.454-13.684.578-19.05.454-19.87-.454-26.55-4.127-28.228-5.365.778-2.022 4.6-9.244 22.493-21.294-.574-4.704-.9-9.492-1.024-14.32-.123-4.54 0-9.12.328-13.742-35.37 20.875-50.12 39.362-45.08 56.365 3.687 12.34 16.43 19.56 38.8 21.83 6.72.66 14.3.908 22.738.702 3.8-.083 7.784-.3 11.963-.537l3.687-.248 3.728-.3c.287.537.615 1.073.942 1.6 17.494 29.754 46.624 52.12 81.695 60.127l3.85.825a72.2 72.2 0 0 0 2.909.537 145.45 145.45 0 0 0 5.9.867c.983.124 2.008.248 3 .33a125.83 125.83 0 0 0 23.64.206c.164 0 .328-.042.492-.042a161.78 161.78 0 0 0 7.825-.95 52.71 52.71 0 0 0 2.663-.454c3.237-.578 6.432-1.238 9.587-2.063l6.023-1.692c2.95-.908 5.9-1.94 8.768-3.095.942-.372 1.926-.743 2.868-1.156 4.343-1.816 8.604-3.88 12.7-6.2.696-.37 1.352-.784 2.05-1.155a130.03 130.03 0 0 0 4.015-2.435 129.91 129.91 0 0 0 9.628-6.727l3.687-2.93c1.475-1.238 2.95-2.476 4.384-3.797l2.13-1.98 2.1-2.022c20.567-20.386 34.456-47.788 37.53-78.904.656-6.52.778-12.958.492-19.355 4.425-2.3 8.727-4.622 12.783-6.933l2.17-1.238c.45-.248.86-.537 1.3-.784.287-.165.533-.33.82-.495 29.417-17.333 44.617-33.014 46.05-47.582.328-3.054.04-6.025-.82-8.914zm-86.324 77.46c-.082 1.775-.205 3.6-.4 5.365-5.695 57.404-56.703 99.455-113.733 93.678-30.973-3.095-57.4-19.726-74.197-43.455 23.2-3.466 48.755-8.873 75.18-15.97-4.6-6.562-7.62-14.32-8.604-22.74-27.983 7.428-54.94 12.876-78.786 16.012a104.16 104.16 0 0 1-6.678-47.375c0-.083 0-.165.04-.248 0-.083 0-.165.04-.248 0-.165.04-.33.04-.495a103.57 103.57 0 0 1 7.006-28.64c16.757-42.052 59.694-69.784 106.686-65.08 17.904 1.816 34.292 8.088 48.18 17.663 8.4 5.777 15.855 12.752 22.206 20.634 10.406 12.958 17.78 28.392 21.14 45.106-8.8 4.168-18.2 8.254-28.024 12.215 3.933 6.933 6.268 14.94 6.473 23.48 8.112-3.22 15.937-6.562 23.435-9.904zm36.462-46.47c.082-.042.164-.083.205-.124-.082 0-.123.042-.205.124zm-57.8-57.073a118.65 118.65 0 0 1 7.457 6.892c-2.417-2.435-4.916-4.704-7.457-6.892zm-37.283-22.078l5.04 2.022c-1.64-.702-3.32-1.403-5.04-2.022zm-10.365-3.466a110.1 110.1 0 0 1 5.244 1.609 127.12 127.12 0 0 0-5.244-1.609zM112.7 374.254l14.053-5.24 4.466 16.383 9.628-14.237 11.554 9.368-13.397 12.752 18.355.825-2.622 15.063-16.552-4.746 7.088 15.187-14.094 5.2-4.015-16.3-9.915 14.568-11.472-9.863 13.602-12.628-18.56-.908.246-1.527 2.294-13.04 16.88 4.374zM313.367 64.27l4.466 16.383 9.628-14.237 11.554 9.368-13.397 12.752 18.355.825-2.622 15.063-16.552-4.746 7.047 15.187-14.053 5.2-4.015-16.3-9.956 14.568-11.472-9.863 13.643-12.628-18.6-.95.287-1.486 2.294-13.082 16.84 4.416-7.54-15.27zM173.9 414.325l9.34-3.466 3 10.895 6.4-9.45 7.702 6.23-8.93 8.5 12.2.495-1.72 10.028-11.02-3.136 4.712 10.1-9.382 3.466-2.663-10.853-6.596 9.657-7.66-6.52 9.095-8.42-12.373-.62.164-1 1.516-8.707 11.226 2.93zM363.96 111.13l9.382-3.466 2.95 10.895 6.4-9.45 7.702 6.2-8.9 8.5 12.168.536-1.72 10.028-11.02-3.136 4.712 10.07-9.382 3.466-2.663-10.812-6.596 9.657-7.62-6.562 9.054-8.377-12.373-.62.164-1.032 1.557-8.666L369 121.3zm-245.78 13.042l9.34-3.466 3 10.895 6.4-9.492 7.702 6.23-8.93 8.5 12.2.536-1.72 10.028-11.02-3.136 4.67 10.07-9.34 3.466-2.663-10.853-6.637 9.698-7.62-6.562 9.095-8.42-12.373-.578.164-1.032 1.516-8.666 11.226 2.9zM392.6 357.87l11.308-4.2 3.605 13.206 7.743-11.43 9.3 7.5-10.775 10.276 14.75.62-2.1 12.174-13.315-3.838 5.654 12.215-11.308 4.2-3.237-13.123-8 11.72-9.26-7.965 10.98-10.152-14.954-.743.205-1.238 1.844-10.482 13.602 3.55zm-141.553-89.467l24.213 6.314-10.816-21.872 20.198-7.47 6.432 23.523 13.807-20.47 16.593 13.453-19.256 18.323 26.344 1.155-3.77 21.624-23.763-6.768 10.16 21.748-20.198 7.47-5.777-23.4-14.258 20.923-16.47-14.155 19.584-18.158-26.672-1.32.37-2.187z"/></g></svg>