<?xml version="1.0" encoding="utf-8"?>
<!-- Generator: Adobe Illustrator 24.0.0, SVG Export Plug-In . SVG Version: 6.00 Build 0)  -->
<svg version="1.1" id="Layer_1" xmlns="http://www.w3.org/2000/svg" xmlns:xlink="http://www.w3.org/1999/xlink" x="0px" y="0px"
	 viewBox="0 0 120 60" width="120" height="60" style="enable-background:new 0 0 120 60;" xml:space="preserve">
<style type="text/css">
	.st0{fill:#403D7E;}
	.st1{fill:#403D7E;stroke:#3E3B79;stroke-width:7.031761e-02;stroke-miterlimit:10;}
</style>
<g transform="matrix(.05797 0 0 .05797 10.151349 37.614357)">
	<path class="st0" d="M228.1,14.8h-33.5l-22-76.1c-3.9-13.5-10.5-24.5-19.6-33.1c-9.2-8.6-19.7-12.8-31.6-12.8H63.8v122h-31v-285.2
		h103.7c18.1,0,32.9,2.1,44.4,6.4c11.5,4.3,20.9,13.3,28.1,27s10.9,29.2,10.9,46.5c0,19.7-4.7,36.2-14.1,49.4s-22.2,21.9-38.5,25.9
		v0.8c16.3,6.3,28.7,23.5,37.2,51.5L228.1,14.8z M63.8-141H133c19.3,0,33.3-3.7,41.9-11.1c8.7-7.4,13-20.2,13-38.3
		c0-32.4-16.7-48.6-50.2-48.6h-74L63.8-141L63.8-141z M0.3-322.7V60H467v-382.7H0.3z M243.5,43.8H14.4V-304h229.1L243.5,43.8z
		 M420.4-4.7c-16,16.2-36.9,24.3-62.7,24.3c-33,0-57.7-9-74-27s-24.9-41.2-25.8-69.4h29.9c1.6,21.3,8.9,37,21.8,47.2
		s28.6,15.3,46.9,15.3c17.4,0,31.3-4.3,41.9-13s15.9-20.5,15.9-35.4c0-15.7-5.5-27.1-16.5-34.2S368-111.1,341.2-118
		s-46-16.6-57.7-28.9S266-175.6,266-196.1c0-23.1,7.6-42,22.8-56.8c15.2-14.8,35.3-22.2,60.5-22.2c26.4,0,47.7,7.5,63.9,22.4
		c16.2,14.9,24.8,36,25.7,63.2h-30.2c-3.1-34.5-22.5-51.7-58.1-51.7c-17.3,0-30.6,4-40.1,11.9c-9.5,7.9-14.2,18.4-14.2,31.5
		c0,11.9,3.8,20.9,11.4,26.8c7.6,6,21.8,11.7,42.6,17.3s37.4,11.1,49.6,16.5s22.7,13.9,31.5,25.4c8.7,11.5,13.1,26.9,13.1,46.2
		C444.5-41.2,436.5-20.9,420.4-4.7z"/>
	<path class="st1" d="M734.8-3.2h-35.1l-23.1-65.4c-4.1-11.6-11-21.1-20.6-28.4c-9.6-7.4-20.6-11-33.1-11h-60V-3.2h-32.4v-245.1H639
		c18.9,0,34.4,1.8,46.5,5.5c12,3.7,21.8,11.4,29.4,23.2s11.4,25.1,11.4,40c0,16.9-4.9,31.1-14.7,42.5s-23.2,18.8-40.3,22.2v0.7
		c17,5.5,30,20.2,39,44.3L734.8-3.2z M562.9-137.1h72.4c20.2,0,34.8-3.2,43.9-9.5c9.1-6.4,13.6-17.3,13.6-32.9
		c0-27.9-17.5-41.8-52.5-41.8h-77.4V-137.1z M805.2-214.2h-31.6v-34.1h31.6V-214.2z M805.2-3.2h-31.6v-177.4h31.6V-3.2z M923.5,1
		c-25.2,0-45.3-8.1-60.4-24.3s-22.7-39-22.7-68.5s7.5-52.4,22.7-68.5c15.1-16.2,35.2-24.2,60.4-24.2c19.4,0,35.6,4.9,48.6,14.7
		s20.6,24,23,42.5h-32.4c-0.4-10.6-4.4-18.7-12-24.2c-7.5-5.6-16.6-8.4-27.2-8.4c-15,0-27.2,5.7-36.6,17.1s-14,28.4-14,51.1
		c0,22.5,4.7,39.5,14,50.9c9.4,11.4,21.6,17.1,36.6,17.1c10.6,0,19.6-2.8,27.2-8.4c7.5-5.6,11.5-13.6,12-24.1h32.4
		c-2.3,18.5-10,32.7-23,42.5S942.9,1,923.5,1z M1169.5-3.2h-37.6l-57.7-90.1l-19.7,19.6v70.6h-31.6v-245.2h31.6v138.9l68.4-71.2
		h39.8l-67.2,66L1169.5-3.2z M1257.4,1c-48.5,0-73.8-19.1-76.1-57.2h31.6c0.2,21.6,14.9,32.4,44.1,32.4c13,0,23-2.7,29.8-8.1
		c6.9-5.4,10.3-12.2,10.3-20.3c0-8-3.3-13.7-10-17s-20.5-7.5-41.4-12.8c-20.9-5.2-36.2-11.1-45.8-17.6s-14.5-17.8-14.5-34.1
		c0-14.7,6-26.9,18-36.5s28-14.5,48.1-14.5c46.5,0,70.2,16.5,71.2,49.7h-31.4c-1.1-16.7-13.7-25.1-37.6-25.1c-10.6,0-19.4,2-26.3,6
		c-7,4-10.4,9.9-10.4,17.5c0,6.9,2.7,11.9,8,15s18.8,7.2,40.2,12.4c21.5,5.2,37.4,11.2,47.8,18.1s15.6,18.8,15.6,35.8
		c0,16.2-6.4,29.6-19.3,40.2C1296.4-4.3,1279.1,1,1257.4,1z M1437.1-184.6c25.3,0,45.5,8.1,60.6,24.2c15.1,16.2,22.7,39,22.7,68.5
		c0,29.4-7.6,52.2-22.7,68.5c-15.1,16.2-35.3,24.3-60.6,24.3c-25.2,0-45.3-8.1-60.4-24.3s-22.7-39-22.7-68.5s7.6-52.4,22.7-68.5
		S1411.9-184.6,1437.1-184.6z M1437.1-23.8c15,0,27.2-5.7,36.6-17.1s14-28.4,14-50.9c0-22.6-4.7-39.7-14-51.1
		c-9.4-11.4-21.6-17.1-36.6-17.1s-27.3,5.7-36.6,17.1c-9.4,11.4-14,28.4-14,51.1c0,22.5,4.7,39.5,14,50.9
		C1409.9-29.5,1422.1-23.8,1437.1-23.8z M1592.6-155.8V-3.2h-31.4v-152.6h-26.1v-24.7h26.1v-15.7c0-37.5,16.5-56.2,49.7-56.2
		c10.1,0,18,0.7,23.6,2v27.4c-6.2-1.1-12.6-1.7-19.1-1.7c-7.7,0-13.4,2.1-17.1,6.4s-5.6,11.7-5.6,22.3v15.4h33.6v24.7h-33.7V-155.8z
		 M1719.6-2.8c-6.9,1.3-14.4,2-22.6,2c-12.9,0-22.4-2.3-28.4-6.9s-9.8-10.6-11.2-17.8s-2.2-17.1-2.2-29.6v-100.7h-21.9v-24.7h21.9
		v-44.2h31.4v44.1h28.8v24.7h-28.8v102.3c0,12.1,1.5,19.9,4.6,23.2c3.1,3.3,7.3,4.9,12.6,4.9c5.5,0,10.7-0.4,15.7-1.3L1719.6-2.8
		L1719.6-2.8z"/>
</g>
</svg>
