<?xml version="1.0" encoding="UTF-8" standalone="no"?>
<!-- Created with Inkscape (http://www.inkscape.org/) -->

<svg
   xmlns:dc="http://purl.org/dc/elements/1.1/"
   xmlns:cc="http://creativecommons.org/ns#"
   xmlns:rdf="http://www.w3.org/1999/02/22-rdf-syntax-ns#"
   xmlns:svg="http://www.w3.org/2000/svg"
   xmlns="http://www.w3.org/2000/svg"
   xmlns:sodipodi="http://sodipodi.sourceforge.net/DTD/sodipodi-0.dtd"
   xmlns:inkscape="http://www.inkscape.org/namespaces/inkscape"
   width="120"
   height="60"
   id="svg2"
   version="1.1"
   inkscape:version="0.48.4 r9939"
   sodipodi:docname="javascript-ar21.svg"
   inkscape:export-filename="/home/amarcuse/site/common/images/badge/javascript-vertical.png"
   inkscape:export-xdpi="90"
   inkscape:export-ydpi="90">
  <defs
     id="defs4" />
  <sodipodi:namedview
     id="base"
     pagecolor="#ffffff"
     bordercolor="#666666"
     borderopacity="1.0"
     inkscape:pageopacity="0.0"
     inkscape:pageshadow="2"
     inkscape:zoom="6.9042553"
     inkscape:cx="45"
     inkscape:cy="47"
     inkscape:document-units="px"
     inkscape:current-layer="layer1"
     showgrid="true"
     showguides="false"
     inkscape:window-width="1317"
     inkscape:window-height="847"
     inkscape:window-x="160"
     inkscape:window-y="60"
     inkscape:window-maximized="0"
     inkscape:snap-from-guide="false"
     gridtolerance="10"
     objecttolerance="10"
     guidetolerance="10">
    <inkscape:grid
       type="xygrid"
       id="grid2985"
       empspacing="2"
       visible="true"
       enabled="false"
       snapvisiblegridlinesonly="false"
       dotted="false" />
  </sodipodi:namedview>
  <metadata
     id="metadata7">
    <rdf:RDF>
      <cc:Work
         rdf:about="">
        <dc:format>image/svg+xml</dc:format>
        <dc:type
           rdf:resource="http://purl.org/dc/dcmitype/StillImage" />
        <dc:title></dc:title>
      </cc:Work>
    </rdf:RDF>
  </metadata>
  <g
     inkscape:label="Layer 1"
     inkscape:groupmode="layer"
     id="layer1"
     transform="translate(0,-992.36218)">
    <g
       id="g3855"
       transform="matrix(0.64007263,0,0,0.64007263,30.557249,376.21132)">
      <path
         d="m 12.885742,997.82508 c -6e-6,-1.32617 -0.451177,-2.26953 -1.353515,-2.83008 -0.888676,-0.56054 -2.1875028,-0.84081 -3.8964848,-0.84082 l 0,-4.90137 c 0.8476548,1e-5 1.5996071,-0.0615 2.2558598,-0.18457 0.669918,-0.1367 1.230464,-0.34862 1.68164,-0.63574 0.451167,-0.30077 0.786128,-0.68358 1.004883,-1.14844 0.232416,-0.46483 0.334955,-1.02537 0.307617,-1.68164 l 0,-6.52148 c -6e-6,-1.0117 0.129877,-1.87303 0.389649,-2.58399 0.259759,-0.72458 0.724602,-1.31247 1.394531,-1.76367 0.683585,-0.46482 1.606436,-0.80661 2.768555,-1.02539 1.162097,-0.21872 2.638658,-0.3281 4.429687,-0.32813 l 0,4.61426 c -0.546889,0.0137 -1.045912,0.0616 -1.49707,0.14356 -0.437513,0.0821 -0.813489,0.23244 -1.12793,0.45117 -0.300793,0.2051 -0.533215,0.49221 -0.697266,0.86133 -0.164073,0.36916 -0.246105,0.84768 -0.246093,1.43554 l 0,6.13184 c -0.08204,2.55665 -1.681651,4.07423 -4.798828,4.55273 l 0,0.2461 c 1.572257,0.23243 2.775381,0.72462 3.609375,1.47656 0.833973,0.75196 1.230457,1.77052 1.189453,3.05566 l 0,6.13179 c -1.2e-5,0.5879 0.08202,1.0665 0.246093,1.4356 0.164051,0.3691 0.396473,0.6562 0.697266,0.8613 0.314441,0.2188 0.690417,0.3692 1.12793,0.4512 0.451158,0.082 0.950181,0.1299 1.49707,0.1436 l 0,4.6347 c -1.791029,0 -3.26759,-0.1094 -4.429687,-0.3281 -1.162119,-0.2188 -2.08497,-0.5606 -2.768555,-1.0254 -0.669929,-0.4512 -1.134772,-1.0391 -1.394531,-1.7637 -0.259772,-0.7246 -0.389655,-1.5927 -0.389649,-2.6045 l 0,-6.45992"
         style="font-size:42px;font-style:normal;font-variant:normal;font-weight:bold;font-stretch:normal;text-align:start;line-height:125%;letter-spacing:-0.1px;word-spacing:0px;writing-mode:lr-tb;text-anchor:start;fill:#555588;fill-opacity:1;stroke:none;font-family:Droid Sans;-inkscape-font-specification:Droid Sans Bold"
         id="path3069"
         inkscape:connector-curvature="0" />
      <path
         d="m 24.557226,1000.4296 c -2e-6,-0.64261 0.08886,-1.18264 0.266602,-1.62015 0.191403,-0.45117 0.451169,-0.81347 0.779297,-1.08691 0.328121,-0.27343 0.710933,-0.47168 1.148437,-0.59473 0.437495,-0.12304 0.909174,-0.18456 1.415039,-0.18457 0.478509,1e-5 0.929681,0.0615 1.353516,0.18457 0.437492,0.12305 0.820304,0.3213 1.148437,0.59473 0.328116,0.27344 0.587882,0.63574 0.779297,1.08691 0.191397,0.43751 0.2871,0.97754 0.28711,1.62015 -10e-6,0.6152 -0.09571,1.1416 -0.28711,1.5791 -0.191415,0.4375 -0.451181,0.7998 -0.779297,1.0869 -0.328133,0.2871 -0.710945,0.4922 -1.148437,0.6152 -0.423835,0.1367 -0.875007,0.2051 -1.353516,0.2051 -0.505865,0 -0.977544,-0.068 -1.415039,-0.2051 -0.437504,-0.123 -0.820316,-0.3281 -1.148437,-0.6152 -0.328128,-0.2871 -0.587894,-0.6494 -0.779297,-1.0869 -0.177737,-0.4375 -0.266604,-0.9639 -0.266602,-1.5791"
         style="font-size:42px;font-style:normal;font-variant:normal;font-weight:bold;font-stretch:normal;text-align:start;line-height:125%;letter-spacing:-0.1px;word-spacing:0px;writing-mode:lr-tb;text-anchor:start;fill:#555588;fill-opacity:1;stroke:none;font-family:Droid Sans;-inkscape-font-specification:Droid Sans Bold"
         id="path3071"
         inkscape:connector-curvature="0" />
      <path
         d="m 36.126171,1013.452 c -0.656251,0 -1.333008,-0.048 -2.030273,-0.1435 -0.697265,-0.096 -1.278319,-0.2188 -1.743164,-0.3692 l 0,-4.9218 c 0.423829,0.1367 0.820313,0.2324 1.189453,0.2871 0.36914,0.068 0.786132,0.1025 1.250976,0.1025 0.341796,0 0.663085,-0.055 0.963867,-0.1641 0.314452,-0.096 0.581053,-0.2802 0.799805,-0.5537 0.232419,-0.2597 0.416989,-0.6152 0.553711,-1.0664 0.136716,-0.4375 0.205075,-1.0049 0.205078,-1.7021 l 0,-24.48635 6.254883,0 0,25.40915 c -9e-6,1.0528 -0.136728,2.0371 -0.410156,2.9532 -0.259775,0.9296 -0.690438,1.7363 -1.291992,2.4199 -0.587898,0.6972 -1.353522,1.2441 -2.296875,1.6406 -0.943364,0.3965 -2.091801,0.5947 -3.445313,0.5947 m 0.922852,-38.94431 c -3e-6,-0.58786 0.08886,-1.07321 0.266601,-1.45605 0.177731,-0.39646 0.416989,-0.71091 0.717774,-0.94336 0.314448,-0.24606 0.676753,-0.41696 1.086914,-0.5127 0.423822,-0.0957 0.868158,-0.14352 1.333008,-0.14355 0.464836,3e-5 0.902336,0.0479 1.3125,0.14355 0.410148,0.0957 0.765616,0.26664 1.066406,0.5127 0.314444,0.23245 0.560537,0.5469 0.738281,0.94336 0.191397,0.38284 0.2871,0.86819 0.287109,1.45605 -9e-6,0.57425 -0.09571,1.0596 -0.287109,1.45606 -0.177744,0.39651 -0.423837,0.7178 -0.738281,0.96386 -0.30079,0.23245 -0.656258,0.40335 -1.066406,0.5127 -0.410164,0.0957 -0.847664,0.14358 -1.3125,0.14355 -0.46485,3e-5 -0.909186,-0.0478 -1.333008,-0.14355 -0.410161,-0.10935 -0.772466,-0.28025 -1.086914,-0.5127 -0.300785,-0.24606 -0.540043,-0.56735 -0.717774,-0.96386 -0.177737,-0.39646 -0.266604,-0.88181 -0.266601,-1.45606"
         style="font-size:42px;font-style:normal;font-variant:normal;font-weight:bold;font-stretch:normal;text-align:start;line-height:125%;letter-spacing:-0.1px;word-spacing:0px;writing-mode:lr-tb;text-anchor:start;fill:#555588;fill-opacity:1;stroke:none;font-family:Droid Sans;-inkscape-font-specification:Droid Sans Bold"
         id="path3073"
         inkscape:connector-curvature="0" />
      <path
         d="m 65.290821,996.55359 c -1.8e-5,1.20313 -0.218768,2.25587 -0.65625,3.1582 -0.437517,0.90231 -1.059587,1.65431 -1.866211,2.25591 -0.806656,0.6015 -1.784194,1.0527 -2.932617,1.3535 -1.14845,0.3008 -2.433604,0.4511 -3.855469,0.4511 -0.751961,0 -1.449226,-0.027 -2.091797,-0.082 -0.642584,-0.041 -1.250982,-0.1162 -1.825195,-0.2256 -0.574223,-0.1093 -1.127934,-0.2461 -1.661133,-0.4101 -0.533206,-0.1641 -1.073245,-0.3692 -1.620117,-0.6153 l 0,-5.16793 c 0.574216,0.28711 1.175778,0.54688 1.804688,0.77929 0.642573,0.23243 1.278315,0.43751 1.907226,0.61524 0.6289,0.16406 1.237298,0.29395 1.825195,0.38965 0.601555,0.0957 1.155265,0.14355 1.661133,0.14355 0.560537,0 1.039052,-0.0479 1.435547,-0.14355 0.396473,-0.10937 0.717762,-0.25293 0.963867,-0.43067 0.259754,-0.1914 0.444324,-0.41015 0.553711,-0.65625 0.123035,-0.25976 0.184558,-0.5332 0.184571,-0.82031 -1.3e-5,-0.2871 -0.04786,-0.54003 -0.143555,-0.75879 -0.08204,-0.23241 -0.280286,-0.47167 -0.594727,-0.71777 -0.314464,-0.25976 -0.779307,-0.54687 -1.394531,-0.86133 -0.601572,-0.32812 -1.415048,-0.7246 -2.44043,-1.18945 -0.998053,-0.45117 -1.866217,-0.8955 -2.604492,-1.33301 -0.724614,-0.45116 -1.326176,-0.95019 -1.804687,-1.49707 -0.464847,-0.54686 -0.81348,-1.16893 -1.045899,-1.86621 -0.232424,-0.71093 -0.348635,-1.55175 -0.348633,-2.52246 -2e-6,-1.06639 0.205076,-1.99608 0.615235,-2.78907 0.410153,-0.80662 0.991207,-1.47654 1.743164,-2.00976 0.751948,-0.53318 1.654291,-0.92967 2.707031,-1.18946 1.066398,-0.27341 2.249014,-0.41013 3.547852,-0.41015 1.367175,2e-5 2.666002,0.15725 3.896484,0.47168 1.230453,0.31447 2.4951,0.78615 3.793945,1.41504 l -1.886718,4.42968 c -1.039078,-0.49217 -2.030288,-0.89549 -2.973633,-1.20996 -0.943372,-0.31443 -1.886731,-0.47166 -2.830078,-0.47168 -0.847666,2e-5 -1.4629,0.15041 -1.845703,0.45118 -0.36915,0.30079 -0.55372,0.71095 -0.553711,1.23046 -9e-6,0.27346 0.04784,0.51955 0.143554,0.73829 0.09569,0.20509 0.287101,0.42384 0.574219,0.65625 0.2871,0.21876 0.69042,0.46485 1.209961,0.73828 0.519521,0.25978 1.196278,0.58107 2.030273,0.96386 0.97069,0.42385 1.845689,0.84767 2.625,1.27149 0.779282,0.41017 1.449203,0.88184 2.009766,1.41504 0.56053,0.53321 0.991193,1.15528 1.291992,1.86621 0.300763,0.71094 0.451154,1.57227 0.451172,2.58398"
         style="font-size:42px;font-style:normal;font-variant:normal;font-weight:bold;font-stretch:normal;text-align:start;line-height:125%;letter-spacing:-0.1px;word-spacing:0px;writing-mode:lr-tb;text-anchor:start;fill:#555588;fill-opacity:1;stroke:none;font-family:Droid Sans;-inkscape-font-specification:Droid Sans Bold"
         id="path3075"
         inkscape:connector-curvature="0" />
      <path
         d="m 76.4291,1004.285 c -1e-5,1.0118 -0.129892,1.8799 -0.389648,2.6045 -0.259775,0.7246 -0.731454,1.3125 -1.415039,1.7637 -0.669929,0.4648 -1.585944,0.8066 -2.748047,1.0254 -1.162114,0.2187 -2.638675,0.3281 -4.429688,0.3281 l 0,-4.6347 c 0.546874,-0.014 1.039061,-0.062 1.476563,-0.1436 0.437497,-0.082 0.806637,-0.2324 1.107422,-0.4512 0.314449,-0.2051 0.553707,-0.4922 0.717773,-0.8613 0.17773,-0.3691 0.266597,-0.8477 0.266602,-1.4356 l 0,-6.13179 c -0.04102,-1.28514 0.355464,-2.3037 1.189453,-3.05566 0.833978,-0.75194 2.030266,-1.24413 3.588867,-1.47656 l 0,-0.2461 c -3.103522,-0.4785 -4.696293,-1.99608 -4.77832,-4.55273 l 0,-6.13184 c -5e-6,-0.58786 -0.08887,-1.06638 -0.266602,-1.43554 -0.164066,-0.36912 -0.403324,-0.65623 -0.717773,-0.86133 -0.300785,-0.21873 -0.669925,-0.36912 -1.107422,-0.45117 -0.437502,-0.082 -0.929689,-0.12986 -1.476563,-0.14356 l 0,-4.61426 c 1.791013,3e-5 3.267574,0.10941 4.429688,0.32813 1.162103,0.21878 2.078118,0.56057 2.748047,1.02539 0.683585,0.4512 1.155264,1.03909 1.415039,1.76367 0.259756,0.71096 0.389638,1.57229 0.389648,2.58399 l 0,6.52148 c -0.01368,0.65627 0.08886,1.21681 0.307617,1.68164 0.21874,0.46486 0.553701,0.84767 1.004883,1.14844 0.451161,0.28712 1.004871,0.49904 1.661133,0.63574 0.669908,0.12306 1.428697,0.18458 2.276367,0.18457 l 0,4.90137 c -1.708997,10e-6 -3.01466,0.28028 -3.916992,0.84082 -0.888682,0.56055 -1.333018,1.50391 -1.333008,2.83008 l 0,6.45992"
         style="font-size:42px;font-style:normal;font-variant:normal;font-weight:bold;font-stretch:normal;text-align:start;line-height:125%;letter-spacing:-0.1px;word-spacing:0px;writing-mode:lr-tb;text-anchor:start;fill:#555588;fill-opacity:1;stroke:none;font-family:Droid Sans;-inkscape-font-specification:Droid Sans Bold"
         id="path3077"
         inkscape:connector-curvature="0" />
    </g>
    <g
       id="g3843"
       transform="translate(14.338983,4.779661)">
      <path
         sodipodi:nodetypes="cccccscccsccscccc"
         d="m 6.7451172,1041.7811 c -0.2988276,0 -0.5595695,-0.02 -0.7822266,-0.062 -0.222655,-0.035 -0.4160141,-0.085 -0.5800781,-0.1494 l 0,-1.4063 c 0.1992202,0.053 0.4130871,0.094 0.6416016,0.1231 0.2285163,0.035 0.4746098,0.053 0.7382812,0.053 0.2167969,0 0.4335936,-0.029 0.6503906,-0.088 0.2226557,-0.053 0.4218742,-0.1523 0.5976563,-0.2988 0.1816394,-0.1465 0.3281236,-0.3486 0.4394531,-0.6064 0.1113266,-0.2579 0.1669906,-0.586 0.1669922,-0.9844 l 0,-12.8496 1.6435545,0 0,12.6738 c -3e-6,0.6152 -0.08789,1.1484 -0.2636717,1.5996 -0.1699247,0.4512 -0.4101588,0.8233 -0.7207031,1.1162 -0.3046895,0.2988 -0.6738297,0.5186 -1.1074219,0.6592 -0.4277351,0.1465 -1.0118163,0.2197 -1.5333004,0.2197"
         style="font-size:18px;font-style:normal;font-variant:normal;font-weight:normal;font-stretch:normal;text-align:start;line-height:125%;letter-spacing:-0.1px;word-spacing:0px;writing-mode:lr-tb;text-anchor:start;fill:#000000;fill-opacity:1;stroke:#000000;stroke-opacity:1;font-family:Droid Sans;-inkscape-font-specification:Droid Sans"
         id="path3038"
         inkscape:connector-curvature="0" />
      <path
         sodipodi:nodetypes="cccccscccscccccccsccccscccccccccccccccccccc"
         d="m 18.43125,1037.0262 -0.07031,0 c -0.193366,0.2637 -0.386725,0.4922 -0.580079,0.6856 -0.193365,0.1875 -0.404302,0.3428 -0.632812,0.4658 -0.228521,0.1231 -0.483403,0.2139 -0.764648,0.2725 -0.281255,0.059 -0.60645,0.088 -0.975586,0.088 -0.4043,0 -0.77637,-0.059 -1.116211,-0.1758 -0.339846,-0.1113 -0.635744,-0.2842 -0.887696,-0.5186 -0.246095,-0.2402 -0.439454,-0.539 -0.580078,-0.8965 -0.140626,-0.3632 -0.210938,-0.791 -0.210937,-1.2832 -10e-7,-0.9609 0.336913,-1.6992 1.010742,-2.2148 0.679685,-0.5156 1.710934,-0.7969 3.09375,-0.8438 l 1.617187,-0.062 0,-0.6064 c -6e-6,-0.3926 -0.04395,-0.7207 -0.131836,-0.9844 -0.08204,-0.2637 -0.205084,-0.4746 -0.36914,-0.6328 -0.158209,-0.1641 -0.357428,-0.2813 -0.597656,-0.3516 -0.234381,-0.07 -0.503912,-0.1054 -0.808594,-0.1054 -0.486332,0 -0.940434,0.07 -1.362305,0.2109 -0.416018,0.1406 -0.817385,0.3106 -1.204101,0.5098 l -0.5625,-1.2041 c 0.433591,-0.2344 0.916989,-0.4336 1.450195,-0.5977 0.5332,-0.164 1.092769,-0.2461 1.678711,-0.2461 0.597651,0 1.113275,0.062 1.546875,0.1846 0.439446,0.1172 0.799798,0.3076 1.081055,0.5713 0.287101,0.2578 0.500968,0.5888 0.641601,0.9931 0.140617,0.4043 0.210929,0.8936 0.210938,1.4678 l 0,6.6094 -1.154296,0 z m -2.610349,0.2153 c 0.357417,0 0.688471,-0.056 0.993164,-0.167 0.304682,-0.1113 0.568353,-0.2783 0.791015,-0.501 0.22265,-0.2285 0.395502,-0.5127 0.518555,-0.8525 0.1289,-0.3457 0.193353,-0.75 0.193359,-1.2129 l 0,-0.8701 -1.256836,0.062 c -0.527348,0.023 -0.969731,0.082 -1.327148,0.1758 -0.357426,0.094 -0.644535,0.2256 -0.861328,0.3955 -0.210941,0.164 -0.363284,0.3662 -0.457031,0.6064 -0.09375,0.2344 -0.140628,0.501 -0.140625,0.7998 -3e-6,0.5391 0.140622,0.9346 0.421875,1.1865 0.287106,0.252 0.662105,0.378 1.125,0.378"
         style="font-size:18px;font-style:normal;font-variant:normal;font-weight:normal;font-stretch:normal;text-align:start;line-height:125%;letter-spacing:-0.1px;word-spacing:0px;writing-mode:lr-tb;text-anchor:start;fill:#000000;fill-opacity:1;stroke:#000000;stroke-linecap:butt;stroke-opacity:1;font-family:Droid Sans;-inkscape-font-specification:Droid Sans"
         id="path3040"
         inkscape:connector-curvature="0" />
      <path
         sodipodi:nodetypes="ccccccccccccccccc"
         d="m 21.249219,1028.7118 1.652344,0 1.749023,5.3701 c 0.06445,0.1934 0.140622,0.4424 0.228516,0.7471 0.08789,0.3047 0.175777,0.6152 0.263672,0.9316 0.08789,0.3164 0.166988,0.6153 0.237304,0.8965 0.07617,0.2813 0.125973,0.4951 0.149414,0.6416 l 0.06152,0 c 0.02929,-0.1465 0.0791,-0.3603 0.149414,-0.6416 0.07031,-0.2812 0.149409,-0.5801 0.237305,-0.8965 0.08788,-0.3164 0.175776,-0.6269 0.263671,-0.9316 0.08789,-0.3047 0.164058,-0.5537 0.228516,-0.7471 l 1.749024,-5.3701 1.652343,0 -3.295898,9.6504 -2.030272,0 z"
         style="font-size:18px;font-style:normal;font-variant:normal;font-weight:normal;font-stretch:normal;text-align:start;line-height:125%;letter-spacing:-0.1px;word-spacing:0px;writing-mode:lr-tb;text-anchor:start;fill:#000000;fill-opacity:1;stroke:#000000;stroke-opacity:1;font-family:Droid Sans;-inkscape-font-specification:Droid Sans"
         id="path3042"
         inkscape:connector-curvature="0" />
      <path
         sodipodi:nodetypes="cccccscccscccccccsccccscccccccccccccccccccc"
         d="m 36.407032,1037.0262 -0.07031,0 c -0.193366,0.2637 -0.386725,0.4922 -0.580079,0.6856 -0.193365,0.1875 -0.404302,0.3428 -0.632812,0.4658 -0.228521,0.1231 -0.483403,0.2139 -0.764649,0.2725 -0.281254,0.059 -0.606449,0.088 -0.975585,0.088 -0.404301,0 -0.776371,-0.059 -1.116211,-0.1758 -0.339846,-0.1113 -0.635744,-0.2842 -0.887696,-0.5186 -0.246095,-0.2402 -0.439454,-0.539 -0.580078,-0.8965 -0.140626,-0.3632 -0.210938,-0.791 -0.210937,-1.2832 -10e-7,-0.9609 0.336913,-1.6992 1.010742,-2.2148 0.679685,-0.5156 1.710934,-0.7969 3.09375,-0.8438 l 1.617187,-0.062 0,-0.6064 c -6e-6,-0.3926 -0.04395,-0.7207 -0.131836,-0.9844 -0.08204,-0.2637 -0.205084,-0.4746 -0.36914,-0.6328 -0.158209,-0.1641 -0.357428,-0.2813 -0.597656,-0.3516 -0.234381,-0.07 -0.503912,-0.1054 -0.808594,-0.1054 -0.486333,0 -0.940434,0.07 -1.362305,0.2109 -0.416018,0.1406 -0.817385,0.3106 -1.204101,0.5098 l -0.5625,-1.2041 c 0.433591,-0.2344 0.916989,-0.4336 1.450195,-0.5977 0.533199,-0.164 1.092769,-0.2461 1.678711,-0.2461 0.597651,0 1.113275,0.062 1.546875,0.1846 0.439446,0.1172 0.799797,0.3076 1.081054,0.5713 0.287102,0.2578 0.500969,0.5888 0.641602,0.9931 0.140617,0.4043 0.210929,0.8936 0.210938,1.4678 l 0,6.6094 -1.151369,2e-4 z m -2.61035,0.2194 c 0.357418,0 0.688472,-0.056 0.993165,-0.167 0.304682,-0.1113 0.568353,-0.2783 0.791015,-0.501 0.22265,-0.2285 0.395502,-0.5127 0.518555,-0.8525 0.1289,-0.3457 0.193353,-0.75 0.193359,-1.2129 l 0,-0.8701 -1.256836,0.062 c -0.527348,0.023 -0.969731,0.082 -1.327148,0.1758 -0.357426,0.094 -0.644535,0.2256 -0.861328,0.3955 -0.210941,0.164 -0.363284,0.3662 -0.457032,0.6064 -0.09375,0.2344 -0.140627,0.501 -0.140625,0.7998 -2e-6,0.5391 0.140623,0.9346 0.421875,1.1865 0.287107,0.252 0.662106,0.378 1.125,0.378"
         style="font-size:18px;font-style:normal;font-variant:normal;font-weight:normal;font-stretch:normal;text-align:start;line-height:125%;letter-spacing:-0.1px;word-spacing:0px;writing-mode:lr-tb;text-anchor:start;fill:#000000;fill-opacity:1;stroke:#000000;stroke-opacity:1;font-family:Droid Sans;-inkscape-font-specification:Droid Sans"
         id="path3044"
         inkscape:connector-curvature="0" />
      <path
         sodipodi:nodetypes="ccccsccccccscccccccccssccsccccscscccccccc"
         d="m 47.7416,1034.9257 c -8e-6,0.5683 -0.102547,1.0781 -0.307617,1.5293 -0.199227,0.4453 -0.486336,0.8232 -0.861328,1.1337 -0.375007,0.3106 -0.832038,0.5479 -1.371094,0.712 -0.539068,0.1582 -1.145513,0.2373 -1.819336,0.2373 -0.650394,0 -1.259768,-0.053 -1.828125,-0.1582 -0.562502,-0.1 -1.034181,-0.2491 -1.415039,-0.4483 l 0,-1.5644 c 0.199218,0.094 0.424803,0.1875 0.676758,0.2812 0.25781,0.088 0.527341,0.167 0.808594,0.2373 0.281247,0.07 0.571286,0.1289 0.870117,0.1758 0.298824,0.041 0.594722,0.062 0.887695,0.062 0.937495,0 1.628901,-0.1758 2.074219,-0.5273 0.451165,-0.3516 0.676751,-0.8555 0.676758,-1.5117 -7e-6,-0.3164 -0.04395,-0.5918 -0.131836,-0.8262 -0.08204,-0.2344 -0.231452,-0.4482 -0.448243,-0.6416 -0.210943,-0.1992 -0.495123,-0.3897 -0.852539,-0.5713 -0.357427,-0.1875 -0.808598,-0.3896 -1.353515,-0.6064 -0.521488,-0.2051 -0.975589,-0.4278 -1.362305,-0.668 -0.380862,-0.2461 -0.697268,-0.5215 -0.949219,-0.8262 -0.246095,-0.3047 -0.430665,-0.6504 -0.553711,-1.0371 -0.117188,-0.3867 -0.175782,-0.8262 -0.175781,-1.3184 -10e-7,-0.5156 0.09375,-0.9755 0.28125,-1.3798 0.187499,-0.4043 0.45117,-0.7442 0.791016,-1.0196 0.339841,-0.2812 0.744138,-0.4951 1.21289,-0.6416 0.474606,-0.1464 0.99609,-0.2197 1.564454,-0.2197 0.69726,0 1.324212,0.067 1.880859,0.2022 0.556633,0.1289 1.05175,0.2959 1.485351,0.5009 l -0.588867,1.3711 c -0.380866,-0.1699 -0.81446,-0.3164 -1.300781,-0.4394 -0.480475,-0.1289 -0.978521,-0.1934 -1.494141,-0.1934 -0.714848,0 -1.268558,0.167 -1.661132,0.501 -0.392581,0.3281 -0.58887,0.7734 -0.588868,1.3359 -2e-6,0.334 0.04394,0.6241 0.131836,0.8701 0.08789,0.2403 0.234372,0.46 0.439453,0.6592 0.205075,0.1934 0.474606,0.378 0.808594,0.5537 0.33984,0.17 0.755855,0.3516 1.248047,0.545 0.533197,0.2109 0.999017,0.4277 1.397461,0.6503 0.40429,0.2227 0.741204,0.4747 1.010742,0.7559 0.269524,0.2813 0.471672,0.6065 0.606446,0.9756 0.140616,0.3691 0.21506,0.8222 0.215068,1.3261"
         style="font-size:18px;font-style:normal;font-variant:normal;font-weight:normal;font-stretch:normal;text-align:start;line-height:125%;letter-spacing:-0.1px;word-spacing:0px;writing-mode:lr-tb;text-anchor:start;fill:#000000;fill-opacity:1;stroke:#000000;stroke-opacity:1;font-family:Droid Sans;-inkscape-font-specification:Droid Sans"
         id="path3046"
         inkscape:connector-curvature="0" />
      <path
         sodipodi:nodetypes="ccccscccsccccccscscsccccc"
         d="m 53.697266,1038.538 c -0.591802,0 -1.145512,-0.091 -1.661133,-0.2725 -0.515628,-0.1875 -0.96387,-0.4805 -1.344727,-0.8789 -0.380861,-0.4043 -0.679689,-0.917 -0.896484,-1.5381 -0.216798,-0.6269 -0.325196,-1.3799 -0.325195,-2.2588 -10e-7,-0.9199 0.111327,-1.6992 0.333984,-2.3379 0.222655,-0.6445 0.527342,-1.166 0.914062,-1.5644 0.392576,-0.4043 0.849607,-0.6973 1.371094,-0.8789 0.52148,-0.1817 1.08105,-0.2725 1.678711,-0.2725 0.457026,0 0.902338,0.05 1.335938,0.1494 0.439446,0.1 0.805656,0.2227 1.098632,0.3692 l -0.474609,1.3535 c -0.134773,-0.059 -0.284187,-0.1143 -0.448242,-0.167 -0.164069,-0.059 -0.333991,-0.1084 -0.509766,-0.1494 -0.175787,-0.047 -0.348639,-0.082 -0.518554,-0.1055 -0.169928,-0.029 -0.331061,-0.044 -0.483399,-0.044 -0.919926,0 -1.590824,0.2959 -2.012695,0.8877 -0.421878,0.5859 -0.632815,1.5 -0.632813,2.7421 -2e-6,1.2364 0.210935,2.1416 0.632813,2.7159 0.42773,0.5683 1.075191,0.8525 1.942383,0.8525 0.474603,0 0.902337,-0.053 1.283203,-0.1582 0.386712,-0.1113 0.738274,-0.2402 1.054687,-0.3867 l 0,1.4238 c -0.316413,0.1699 -0.656257,0.2988 -1.019531,0.3867 -0.357428,0.088 -0.820319,0.1319 -1.341797,0.1319"
         style="font-size:18px;font-style:normal;font-variant:normal;font-weight:normal;font-stretch:normal;text-align:start;line-height:125%;letter-spacing:-0.1px;word-spacing:0px;writing-mode:lr-tb;text-anchor:start;fill:#000000;fill-opacity:1;stroke:#000000;stroke-opacity:1;font-family:Droid Sans;-inkscape-font-specification:Droid Sans"
         id="path3048"
         inkscape:connector-curvature="0" />
      <path
         sodipodi:nodetypes="cccccscccscccccccccc"
         d="m 62.412697,1028.536 c 0.169916,0 0.360345,0.01 0.571289,0.026 0.210931,0.012 0.392571,0.032 0.544922,0.062 l -0.210938,1.4766 c -0.164069,-0.029 -0.33399,-0.053 -0.509765,-0.07 -0.169928,-0.024 -0.331061,-0.035 -0.483399,-0.035 -0.369146,0 -0.706059,0.076 -1.010742,0.2285 -0.304692,0.1465 -0.568363,0.3604 -0.791016,0.6416 -0.2168,0.2754 -0.386722,0.6094 -0.509765,1.002 -0.117191,0.3867 -0.175785,0.8174 -0.175781,1.292 l 0,5.2031 -1.59961,0 0,-9.6504 1.300781,0 0.19336,1.7666 0.07031,0 c 0.146481,-0.252 0.301755,-0.4951 0.465821,-0.7295 0.169918,-0.2344 0.357418,-0.4394 0.5625,-0.6152 0.210933,-0.1817 0.445308,-0.3252 0.703125,-0.4307 0.257807,-0.1113 0.578119,-0.167 0.90625,-0.167"
         style="font-size:18px;font-style:normal;font-variant:normal;font-weight:normal;font-stretch:normal;text-align:start;line-height:125%;letter-spacing:-0.1px;word-spacing:0px;writing-mode:lr-tb;text-anchor:start;fill:#000000;fill-opacity:1;stroke:#000000;stroke-opacity:1;font-family:Droid Sans;-inkscape-font-specification:Droid Sans"
         id="path3050"
         inkscape:connector-curvature="0" />
      <path
         sodipodi:nodetypes="ccccccscccscsccc"
         d="m 66.909374,1038.3622 -1.599609,0 0,-9.6504 1.599609,0 0,9.6504 m -1.458984,-13.0254 c 0.181639,-0.1582 0.404295,-0.2373 0.667969,-0.2373 0.128903,0 0.24902,0.02 0.360351,0.062 0.117185,0.035 0.216794,0.094 0.298828,0.1758 0.08789,0.082 0.155271,0.1875 0.202149,0.3164 0.05273,0.1231 0.0791,0.2725 0.0791,0.4482 -3e-6,0.3399 -0.09375,0.5948 -0.28125,0.7647 -0.181643,0.1641 -0.401369,0.2461 -0.659179,0.2461 -0.263674,0 -0.493248,-0.1235 -0.674887,-0.2876 -0.175783,-0.1641 -0.258904,-0.4189 -0.257828,-0.7442 0.0011,-0.331 0.08897,-0.5859 0.264747,-0.7441 z"
         style="font-size:18px;font-style:normal;font-variant:normal;font-weight:normal;font-stretch:normal;text-align:start;line-height:125%;letter-spacing:-0.1px;word-spacing:0px;writing-mode:lr-tb;text-anchor:start;fill:#000000;fill-opacity:1;stroke:#000000;stroke-opacity:1;font-family:Droid Sans;-inkscape-font-specification:Droid Sans"
         id="path3052"
         inkscape:connector-curvature="0" />
      <path
         sodipodi:nodetypes="ccccccccccccccccccscccccccccccccscccscccc"
         d="m 74.244923,1038.538 c -0.345709,0 -0.659185,-0.038 -0.94043,-0.1143 -0.281255,-0.076 -0.536137,-0.1758 -0.764648,-0.2988 -0.222661,-0.1289 -0.421879,-0.2783 -0.597657,-0.4483 -0.169925,-0.1699 -0.322269,-0.3486 -0.457031,-0.5361 l -0.105469,0 c 0.01757,0.1992 0.03515,0.3897 0.05273,0.5713 0.01171,0.1523 0.02343,0.3105 0.03516,0.4746 0.01172,0.1582 0.01757,0.2842 0.01758,0.3779 l 0,4.1221 -1.599609,0 0,-13.9746 1.300781,0 0.228516,1.3008 0.07031,0 c 0.134762,-0.2051 0.287106,-0.3955 0.457031,-0.5713 0.169918,-0.1816 0.366207,-0.3369 0.588867,-0.4658 0.228512,-0.1348 0.483394,-0.2403 0.764649,-0.3164 0.281245,-0.082 0.597651,-0.1231 0.949219,-0.1231 0.550774,0 1.051751,0.1055 1.502929,0.3164 0.451164,0.211 0.834953,0.5274 1.151368,0.9492 0.322256,0.4161 0.571279,0.9346 0.74707,1.5557 0.175772,0.6211 0.263662,1.3418 0.263672,2.1621 -10e-6,0.8262 -0.0879,1.5527 -0.263672,2.1797 -0.175791,0.6211 -0.424814,1.1426 -0.74707,1.5644 -0.316415,0.4219 -0.700204,0.7413 -1.151368,0.9581 -0.451178,0.2109 -1.06315,0.3164 -1.613924,0.3164 m -0.196623,-8.6748 c -0.445317,0 -0.823246,0.067 -1.133789,0.2021 -0.304691,0.1348 -0.553714,0.3399 -0.74707,0.6152 -0.187503,0.2754 -0.328128,0.6182 -0.421875,1.0284 -0.08789,0.4101 -0.137698,0.8935 -0.149414,1.4502 l 0,0.3603 c -3e-6,0.5918 0.03808,1.1192 0.114258,1.582 0.08203,0.4571 0.216793,0.8438 0.404297,1.1602 0.193355,0.3105 0.448238,0.5478 0.764648,0.7119 0.316402,0.1582 0.711909,0.2373 1.186524,0.2373 0.791009,0 1.371086,-0.3193 1.740234,-0.958 0.374992,-0.6387 0.562492,-1.5557 0.5625,-2.751 -8e-6,-1.2187 -0.187508,-2.1298 -0.5625,-2.7334 -0.369148,-0.6035 -0.955085,-0.9052 -1.757813,-0.9052"
         style="font-size:18px;font-style:normal;font-variant:normal;font-weight:normal;font-stretch:normal;text-align:start;line-height:125%;letter-spacing:-0.1px;word-spacing:0px;writing-mode:lr-tb;text-anchor:start;fill:#000000;fill-opacity:1;stroke:#000000;stroke-opacity:1;font-family:Droid Sans;-inkscape-font-specification:Droid Sans"
         id="path3054"
         inkscape:connector-curvature="0" />
      <path
         d="m 83.250389,1037.2284 c 0.105464,0 0.222652,-0.01 0.351563,-0.018 0.13476,-0.012 0.263666,-0.026 0.386718,-0.044 0.123042,-0.018 0.23437,-0.038 0.333985,-0.062 0.105463,-0.023 0.184564,-0.044 0.237304,-0.062 l 0,1.2129 c -0.07618,0.035 -0.172857,0.07 -0.290039,0.1055 -0.117193,0.035 -0.246099,0.064 -0.386718,0.088 -0.14063,0.029 -0.287115,0.05 -0.439454,0.062 -0.152348,0.018 -0.301762,0.026 -0.448242,0.026 -0.363285,0 -0.700199,-0.047 -1.010742,-0.1407 -0.31055,-0.094 -0.580081,-0.2548 -0.808594,-0.4834 -0.222658,-0.2285 -0.398439,-0.5361 -0.527343,-0.9228 -0.128908,-0.3926 -0.193361,-0.8848 -0.19336,-1.4766 l 0,-5.5986 -1.362304,0 0,-0.7119 1.362304,-0.6856 0.685547,-2.0215 0.922852,0 0,2.2149 2.425781,0 0,1.2041 -2.425781,0 0,5.5986 c -4e-6,0.5684 0.09082,0.9961 0.272461,1.2832 0.187496,0.2871 0.492183,0.4307 0.914062,0.4307"
         style="font-size:18px;font-style:normal;font-variant:normal;font-weight:normal;font-stretch:normal;text-align:start;line-height:125%;letter-spacing:-0.1px;word-spacing:0px;writing-mode:lr-tb;text-anchor:start;fill:#000000;fill-opacity:1;stroke:#000000;stroke-opacity:1;font-family:Droid Sans;-inkscape-font-specification:Droid Sans"
         id="path3056"
         inkscape:connector-curvature="0" />
    </g>
  </g>
</svg>
