<svg xmlns="http://www.w3.org/2000/svg" width="64" height="64"><path d="M19.87 24a8.001 8.001 0 1 0 8.001 8 8.073 8.073 0 0 0-8.001-8.001zm0 14.323A6.281 6.281 0 1 1 26.11 32a6.321 6.321 0 0 1-6.241 6.321zM37.064 24a8.001 8.001 0 1 0 8.002 8 8.001 8.001 0 0 0-8.001-8.001zm0 14.323A6.281 6.281 0 1 1 43.305 32a6.217 6.217 0 0 1-6.241 6.321zM6.107 28.8a5.393 5.393 0 0 0-4.241 1.12v-4.24h7.2c.24 0 .4-.08.4-.8s-.32-.72-.48-.72h-7.92a.72.72 0 0 0-.72.72v7.04c0 .4.24.48.64.56a.608.608 0 0 0 .72-.16 4.553 4.553 0 0 1 4.001-1.92 4.161 4.161 0 0 1 3.601 3.521 4.049 4.049 0 0 1-3.521 4.481h-.48a4.081 4.081 0 0 1-3.761-2.64c-.08-.24-.24-.4-.88-.16s-.72.4-.64.64a5.673 5.673 0 0 0 7.201 3.361 5.673 5.673 0 0 0 3.361-7.201 5.601 5.601 0 0 0-4.481-3.601zm44.4-4.72a4.337 4.337 0 0 0-3.841 4.321v7.12c0 .4.32.48.8.48s.8-.08.8-.48V28.4a2.688 2.688 0 0 1 2.32-2.72 2.632 2.632 0 0 1 2 .64 2.552 2.552 0 0 1 .88 1.92 3.201 3.201 0 0 1-.56 1.52 2.52 2.52 0 0 1-2.24 1.04c-.32 0-.56 0-.64.72 0 .48 0 .72.4.8a3.937 3.937 0 0 0 2.32-.48 4.297 4.297 0 0 0 2.32-3.361 4.145 4.145 0 0 0-3.857-4.481 2.216 2.216 0 0 1-.704.08zm10.482 4.16l2.88-2.88c.08-.08.32-.32-.16-.88a.8.8 0 0 0-.56-.32.416.416 0 0 0-.32.16l-2.88 2.88-2.88-2.96c-.24-.24-.48-.16-.88.16s-.4.64-.16.88l2.88 2.88-2.897 2.96a.608.608 0 0 0-.16.32.672.672 0 0 0 .32.56 1.288 1.288 0 0 0 .56.32.848.848 0 0 0 .4-.16l2.88-2.88 2.88 2.88a.416.416 0 0 0 .32.16.8.8 0 0 0 .56-.32c.24-.32.32-.64.08-.8z"/></svg>