<?xml version="1.0" encoding="UTF-8" standalone="no"?>
<svg
   xmlns:dc="http://purl.org/dc/elements/1.1/"
   xmlns:cc="http://creativecommons.org/ns#"
   xmlns:rdf="http://www.w3.org/1999/02/22-rdf-syntax-ns#"
   xmlns:svg="http://www.w3.org/2000/svg"
   xmlns="http://www.w3.org/2000/svg"
   xmlns:sodipodi="http://sodipodi.sourceforge.net/DTD/sodipodi-0.dtd"
   xmlns:inkscape="http://www.inkscape.org/namespaces/inkscape"
   id="logo_svg"
   data-name="Logo SVG"
   viewBox="0 0 120 60"
   version="1.1"
   sodipodi:docname="500px-ar21.svg"
   width="120"
   height="60"
   inkscape:version="0.92.3 (2405546, 2018-03-11)">
  <metadata
     id="metadata11">
    <rdf:RDF>
      <cc:Work
         rdf:about="">
        <dc:format>image/svg+xml</dc:format>
        <dc:type
           rdf:resource="http://purl.org/dc/dcmitype/StillImage" />
        <dc:title>logo</dc:title>
      </cc:Work>
    </rdf:RDF>
  </metadata>
  <defs
     id="defs9" />
  <sodipodi:namedview
     pagecolor="#ffffff"
     bordercolor="#666666"
     borderopacity="1"
     objecttolerance="10"
     gridtolerance="10"
     guidetolerance="10"
     inkscape:pageopacity="0"
     inkscape:pageshadow="2"
     inkscape:window-width="1920"
     inkscape:window-height="1001"
     id="namedview7"
     showgrid="false"
     inkscape:zoom="4.2375"
     inkscape:cx="18.145172"
     inkscape:cy="10"
     inkscape:window-x="-9"
     inkscape:window-y="-9"
     inkscape:window-maximized="1"
     inkscape:current-layer="logo_svg" />
  <title
     id="title2">logo</title>
  <path
     d="m 41.045513,17.49778 a 12.50222,12.50222 0 1 0 12.502221,12.502221 v 0 A 12.61474,12.61474 0 0 0 41.045513,17.49778 Z m 0,22.378975 a 9.8142429,9.8142429 0 1 1 9.751732,-9.876754 v 0 a 9.876754,9.876754 0 0 1 -9.751732,9.876754 z M 67.912785,17.49778 a 12.50222,12.50222 0 1 0 12.50222,12.502221 v 0 A 12.50222,12.50222 0 0 0 67.912785,17.49778 Z m 0,22.378975 a 9.8142429,9.8142429 0 1 1 9.751731,-9.876754 v 0 a 9.7142251,9.7142251 0 0 1 -9.751731,9.876754 z M 19.541695,24.999113 a 8.4264964,8.4264964 0 0 0 -6.626177,1.75031 v -6.626176 h 11.251998 c 0.375067,0 0.625111,-0.125022 0.625111,-1.250222 0,-1.1252 -0.500089,-1.1252 -0.750133,-1.1252 H 11.665296 a 1.1251998,1.1251998 0 0 0 -1.1252,1.1252 v 11.001954 c 0,0.625111 0.375067,0.750133 1.000178,0.875155 a 0.95016874,0.95016874 0 0 0 1.1252,-0.250044 v 0 a 7.1137633,7.1137633 0 0 1 6.25111,-3.000533 6.5011545,6.5011545 0 0 1 5.625999,5.500977 6.3261234,6.3261234 0 0 1 -5.500977,7.001243 H 18.291473 A 6.3761323,6.3761323 0 0 1 12.415429,35.876044 C 12.290407,35.500978 12.040363,35.250933 11.040185,35.626 c -1.000178,0.375066 -1.1251999,0.625111 -1.000178,1.000177 a 8.8640742,8.8640742 0 0 0 11.251998,5.250933 8.8640742,8.8640742 0 0 0 5.250933,-11.251998 8.7515542,8.7515542 0 0 0 -7.001243,-5.625999 z m 69.37482,-7.37631 a 6.7762034,6.7762034 0 0 0 -6.001066,6.751199 v 11.126976 c 0,0.625111 0.500089,0.750133 1.250222,0.750133 0.750133,0 1.250222,-0.125022 1.250222,-0.750133 V 24.374002 a 4.200746,4.200746 0 0 1 3.625644,-4.250755 4.1132305,4.1132305 0 0 1 3.125555,1.000177 3.9882083,3.9882083 0 0 1 1.375244,3.000533 5.0008881,5.0008881 0 0 1 -0.875155,2.375422 3.9381994,3.9381994 0 0 1 -3.500622,1.625289 v 0 c -0.500089,0 -0.875155,0 -1.000178,1.1252 0,0.750133 0,1.125199 0.625111,1.250222 a 6.1510924,6.1510924 0 0 0 3.625644,-0.750134 6.7136923,6.7136923 0 0 0 3.625644,-5.250932 6.4761501,6.4761501 0 0 0 -6.02607,-7.001244 3.463115,3.463115 0 0 1 -1.100195,0.125023 z m 16.377905,6.501154 4.5008,-4.500799 c 0.12503,-0.125022 0.50009,-0.500089 -0.25004,-1.375244 a 1.250222,1.250222 0 0 0 -0.87516,-0.500089 v 0 a 0.65011545,0.65011545 0 0 0 -0.50009,0.250044 l -4.5008,4.5008 -4.500795,-4.625822 c -0.375066,-0.375067 -0.750133,-0.250044 -1.375244,0.250045 -0.625111,0.500088 -0.625111,1.000177 -0.250044,1.375244 l 4.500803,4.500799 -4.525808,4.625821 v 0 a 0.95016874,0.95016874 0 0 0 -0.250044,0.500089 1.0501865,1.0501865 0 0 0 0.500089,0.875156 2.0128575,2.0128575 0 0 0 0.875155,0.500089 v 0 a 1.3252353,1.3252353 0 0 0 0.625111,-0.250045 l 4.500797,-4.500799 4.5008,4.500799 a 0.65011545,0.65011545 0 0 0 0.50009,0.250045 v 0 a 1.250222,1.250222 0 0 0 0.87516,-0.500089 c 0.37506,-0.500089 0.50008,-1.000178 0.12502,-1.250222 z"
     id="path4"
     inkscape:connector-curvature="0"
     style="stroke-width:1.25022197" />
</svg>
