<svg xmlns="http://www.w3.org/2000/svg" width="120" height="60" fill="#004062"><path d="M35.876 28.725l-.392-.08a5.594 5.594 0 0 0-.932-.065c-1.46 0-2.97.783-2.97 3.263v7.104H28.58V25.92h3.025v1.762a4.093 4.093 0 0 1 3.543-2.074 3.077 3.077 0 0 1 .732.079zm8.307.583a4.363 4.363 0 0 0-2.638-1.044c-1.207 0-1.8.597-1.8 1.3 0 .573.247 1.263 2.098 1.743 3.394.862 4.536 1.865 4.536 4.065s-1.6 3.888-4.96 3.888a7.775 7.775 0 0 1-5.268-1.907l1.674-2.3a4.871 4.871 0 0 0 3.594 1.543c1.3 0 1.865-.56 1.865-1.3s-.564-1.203-2.382-1.67c-3.16-.83-4.195-2.116-4.195-4.195 0-1.725 1.333-3.836 4.82-3.836a6.666 6.666 0 0 1 4.256 1.464zm10.447 6.9l.988 2.424a5.058 5.058 0 0 1-2.555.625c-2.94 0-4.35-1.515-4.35-4.298v-6.433H46.9V25.92h1.823v-2.76h3.02v2.76h2.97v2.606h-2.97v6.46c0 1.12.573 1.646 1.46 1.646a2.429 2.429 0 0 0 1.436-.424m42.235-.001l.984 2.424a5.044 5.044 0 0 1-2.55.625c-2.94 0-4.354-1.515-4.354-4.298v-6.433H89.12V25.92h1.8v-2.76h3.025v2.76h2.97v2.606h-2.97v6.46c0 1.12.573 1.646 1.454 1.646a2.433 2.433 0 0 0 1.44-.424"/><path d="M77.7 26.814l.4-.224a9.58 9.58 0 0 1 4.093-.979c4.167 0 6.144 1.543 6.144 5.314v8.023h-3.002v-1.506c-.834 1.226-2.06 1.823-3.962 1.823-3.202 0-4.9-1.743-4.9-4.25s1.813-4.33 5.132-4.33a13.752 13.752 0 0 1 3.757.545V31c0-1.8-.886-2.634-3.263-2.634a6.219 6.219 0 0 0-3.31.932zm4.382 10.078a3.389 3.389 0 0 0 3.263-3.412 9.924 9.924 0 0 0-3.263-.522c-1.897 0-2.797 1.05-2.797 2 0 1.25 1.23 1.902 2.82 1.902m17.253-10.056l.415-.224a9.561 9.561 0 0 1 4.088-.979c4.167 0 6.15 1.543 6.15 5.314v8.023h-3.02v-1.506c-.834 1.226-2.06 1.823-3.962 1.823-3.203 0-4.9-1.743-4.9-4.25s1.832-4.33 5.16-4.33a13.794 13.794 0 0 1 3.757.545V31c0-1.8-.9-2.634-3.263-2.634a6.233 6.233 0 0 0-3.31.932zm4.4 10.078a3.389 3.389 0 0 0 3.235-3.412 9.915 9.915 0 0 0-3.263-.522c-1.902 0-2.797 1.05-2.797 2 0 1.25 1.23 1.902 2.797 1.902M59.846 20.735h6.82c5.743 0 9.7 3.94 9.7 9.085v.05c0 5.128-3.967 9.14-9.7 9.14h-6.82zm6.82 15.355c3.836 0 6.344-2.587 6.344-6.163v-.05c0-3.575-2.508-6.214-6.344-6.214h-3.608V36.1zM10 39.018h3.212v-7.445h8.42v-2.918h-8.42v-4.988h9.594v-2.923H10zm13.794-.075h3.02V25.92h-3.02z"/></svg>