<?xml version="1.0" encoding="UTF-8" standalone="no"?>
<!-- Generator: Adobe Illustrator 19.0.1, SVG Export Plug-In . SVG Version: 6.00 Build 0)  -->

<svg
   xmlns:dc="http://purl.org/dc/elements/1.1/"
   xmlns:cc="http://creativecommons.org/ns#"
   xmlns:rdf="http://www.w3.org/1999/02/22-rdf-syntax-ns#"
   xmlns:svg="http://www.w3.org/2000/svg"
   xmlns="http://www.w3.org/2000/svg"
   xmlns:sodipodi="http://sodipodi.sourceforge.net/DTD/sodipodi-0.dtd"
   xmlns:inkscape="http://www.inkscape.org/namespaces/inkscape"
   version="1.1"
   id="Layer_1"
   x="0px"
   y="0px"
   viewBox="0 0 120 60"
   xml:space="preserve"
   sodipodi:docname="skf-ar21.svg"
   width="120"
   height="60"
   inkscape:version="0.92.3 (2405546, 2018-03-11)"><metadata
   id="metadata21"><rdf:RDF><cc:Work
       rdf:about=""><dc:format>image/svg+xml</dc:format><dc:type
         rdf:resource="http://purl.org/dc/dcmitype/StillImage" /><dc:title></dc:title></cc:Work></rdf:RDF></metadata><defs
   id="defs19" /><sodipodi:namedview
   pagecolor="#ffffff"
   bordercolor="#666666"
   borderopacity="1"
   objecttolerance="10"
   gridtolerance="10"
   guidetolerance="10"
   inkscape:pageopacity="0"
   inkscape:pageshadow="2"
   inkscape:window-width="1920"
   inkscape:window-height="1001"
   id="namedview17"
   showgrid="false"
   inkscape:zoom="4.1723077"
   inkscape:cx="98.205573"
   inkscape:cy="11.956198"
   inkscape:window-x="-9"
   inkscape:window-y="-9"
   inkscape:window-maximized="1"
   inkscape:current-layer="Layer_1" />
<style
   type="text/css"
   id="style2">
	.st0{fill:#0D56DB;}
</style>
<g
   id="g12"
   transform="matrix(0.06281911,0,0,0.06281911,19.952817,20.577134)">
	<g
   id="g10">
		<path
   class="st0"
   d="m 363.7,300 c 6.2,0 11.2,-5 11.2,-11.3 v -165 c 0,-6.2 -5,-11.3 -11.3,-11.2 H 157.5 c -4.1,0 -7.5,-3.4 -7.5,-7.5 V 45 c 0,-4.1 3.4,-7.5 7.5,-7.5 h 60 c 4.1,0 7.5,3.4 7.5,7.5 v 18.8 c 0,6.2 5,11.2 11.2,11.2 h 90 c 6.2,0 11.3,-5 11.3,-11.2 V 11.2 C 337.5,5 332.5,0 326.2,0 H 48.7 C 42.5,0 37.5,5 37.5,11.3 v 127.5 c 0,6.2 5,11.2 11.3,11.2 H 255 c 4.1,0 7.5,3.4 7.5,7.5 V 255 c 0,4.1 -3.4,7.5 -7.5,7.5 H 120 c -4.1,0 -7.5,-3.4 -7.5,-7.5 v -56.2 c 0,-6.2 -5,-11.2 -11.3,-11.2 h -90 c -6.2,0 -11.3,5 -11.3,11.2 v 90 C 0,295 5,300 11.3,300 Z"
   id="path4"
   inkscape:connector-curvature="0"
   style="fill:#0d56db" />
		<path
   class="st0"
   d="m 562.5,192.3 c 0,-1 0.8,-1.9 1.9,-1.9 0.5,0 1,0.2 1.3,0.5 0.3,0.3 104.9,105 105.8,105.9 0.6,0.6 3.4,3.2 7.9,3.2 h 134.4 c 6.2,0 11.2,-5 11.2,-11.2 v -90 c 0,-6.2 -5,-11.2 -11.2,-11.2 h -97 c -4.3,0 -7.1,-2.4 -7.8,-3.1 -1.4,-1.4 -70.2,-70.3 -70.6,-70.6 -0.3,-0.3 -0.6,-0.8 -0.6,-1.3 0,-0.5 0.2,-1 0.6,-1.3 0.3,-0.3 32.3,-32.4 32.8,-32.9 1.8,-1.8 4.6,-3.2 7.9,-3.2 2.8,0 97.1,0 97.1,0 6.2,0 11.3,-5 11.3,-11.2 V 11.5 c 0,-6.2 -5,-11.2 -11.2,-11.2 h -96.9 c -4.5,0 -7.2,2.6 -7.9,3.2 -0.6,0.3 -105.5,105.3 -105.8,105.6 -0.3,0.3 -0.8,0.5 -1.3,0.5 -1,0 -1.9,-0.8 -1.9,-1.9 V 11.2 C 562.5,5 557.5,0 551.2,0 H 442.5 c -6.2,0 -11.2,5 -11.2,11.2 v 90 c 0,6.2 5,11.3 11.2,11.3 4.1,0 7.5,3.4 7.5,7.5 v 60 c 0,4.1 -3.4,7.5 -7.5,7.5 -6.2,0 -11.2,5 -11.2,11.2 v 90 c 0,6.2 5,11.3 11.2,11.3 h 108.7 c 6.2,0 11.3,-5 11.3,-11.3 z"
   id="path6"
   inkscape:connector-curvature="0"
   style="fill:#0d56db" />
		<path
   class="st0"
   d="m 1001.2,300 c 6.2,0 11.3,-5 11.3,-11.3 v -90 c 0,-6.2 -5,-11.2 -11.3,-11.2 -4.1,0 -7.5,-3.4 -7.5,-7.5 v -22.5 c 0,-4.2 3.4,-7.5 7.5,-7.5 h 41.2 c 4.1,0 7.5,3.4 7.5,7.5 0,6.2 5,11.2 11.3,11.2 h 90.1 c 6.2,0 11.2,-5 11.2,-11.2 V 105 c 0,-6.2 -5,-11.2 -11.2,-11.2 h -90.1 c -6.2,0 -11.3,5 -11.3,11.2 0,4.1 -3.4,7.5 -7.5,7.5 h -41.2 c -4.1,0 -7.5,-3.4 -7.5,-7.5 V 45 c 0,-4.1 3.4,-7.5 7.5,-7.5 h 116.3 c 4.1,0 7.5,3.4 7.5,7.5 v 18.8 c 0,6.2 5,11.2 11.3,11.2 h 127.5 c 6.2,0 11.3,-5 11.3,-11.2 V 11.2 C 1275.1,5 1270.1,0 1263.8,0 H 892.5 c -6.2,0 -11.2,5 -11.2,11.2 v 90 c 0,6.2 5,11.3 11.2,11.3 4.1,0 7.5,3.4 7.5,7.5 v 60 c 0,4.1 -3.4,7.5 -7.5,7.5 -6.2,0 -11.2,5 -11.2,11.2 v 90 c 0,6.2 5,11.3 11.2,11.3 z"
   id="path8"
   inkscape:connector-curvature="0"
   style="fill:#0d56db" />
	</g>
</g>

</svg>