<svg xmlns="http://www.w3.org/2000/svg" height="60" width="120"><path d="M108.8 108.9h11.3l17.7 63.9h.2l18.8-63.9h12.4l18.8 63.9h.2l17.7-63.9h11.3L194 188.8h-11.5l-19.3-65.2h-.2l-19.2 65.2h-11.5zm113.3 32.9c2.9-2.6 6.2-4.6 9.9-5.9 3.8-1.3 7.5-2 11.3-2 3.9 0 7.3.5 10.1 1.5s5.1 2.3 6.9 3.9c1.8 1.7 3.1 3.6 4 5.7s1.3 4.4 1.3 6.7V179c0 1.9 0 3.6.1 5.2l.3 4.5h-9c-.2-2.7-.3-5.4-.3-8.1h-.2c-2.3 3.5-4.9 5.9-8 7.3s-6.7 2.1-10.7 2.1c-2.5 0-4.8-.3-7.1-1s-4.2-1.7-5.9-3c-1.7-1.4-3-3-4-5s-1.5-4.3-1.5-6.9c0-3.5.8-6.4 2.3-8.7s3.6-4.2 6.3-5.7 5.8-2.5 9.4-3.2c3.6-.6 7.4-1 11.4-1h7.4v-2.3c0-1.4-.3-2.7-.8-4.1s-1.3-2.6-2.4-3.7-2.4-2-3.9-2.6c-1.6-.6-3.5-1-5.6-1-2 0-3.7.2-5.1.6-1.5.4-2.8.8-4 1.4s-2.3 1.2-3.3 2-1.9 1.5-2.8 2.1zm28.7 21.2c-2.4 0-4.9.1-7.4.4s-4.8.8-6.9 1.5c-2.1.8-3.8 1.8-5.1 3.2s-2 3.1-2 5.2c0 3.1 1 5.3 3.1 6.7s4.9 2 8.4 2c2.8 0 5.2-.5 7.1-1.4 2-.9 3.5-2.2 4.7-3.7s2.1-3.2 2.6-5 .8-3.7.8-5.5V163zm32.7-59.5h10.2v85.3h-10.2zm29.3 0H323v85.3h-10.2zm33.5 68.6c2 2.9 4.5 5.1 7.5 6.5s6.2 2.1 9.4 2.1c1.8 0 3.7-.3 5.5-.8 1.9-.6 3.6-1.4 5.1-2.5a13.97 13.97 0 0 0 3.8-4.2c1-1.7 1.5-3.6 1.5-5.8 0-3.1-1-5.4-2.9-7.1-2-1.6-4.4-3-7.3-4.1s-6.1-2.1-9.5-3.2c-3.4-1-6.6-2.4-9.5-4.2s-5.3-4.2-7.3-7.3c-2-3-2.9-7.2-2.9-12.4 0-2.3.5-4.8 1.5-7.4s2.6-5 4.8-7.2 5-4 8.4-5.5 7.5-2.2 12.4-2.2c4.4 0 8.5.6 12.5 1.8s7.5 3.6 10.5 7.3l-8.8 8c-1.3-2.1-3.3-3.8-5.8-5.1s-5.3-1.9-8.5-1.9c-3 0-5.5.4-7.5 1.2s-3.6 1.8-4.8 3-2 2.6-2.5 4-.7 2.7-.7 3.9c0 3.4 1 6 2.9 7.8 2 1.8 4.4 3.3 7.3 4.4s6.1 2.1 9.5 3a41.91 41.91 0 0 1 9.5 3.8c2.9 1.6 5.3 3.8 7.3 6.5s2.9 6.5 2.9 11.3c0 3.8-.7 7.3-2.2 10.4s-3.4 5.7-5.9 7.8-5.4 3.7-8.8 4.9a34.89 34.89 0 0 1-10.8 1.7c-5.1 0-10-.9-14.6-2.7s-8.2-4.6-10.9-8.4zm51.5-36.8h11.7l15.8 41.7h.2l15.2-41.7h10.8l-25.4 65-2.8 6.4c-1 1.9-2.1 3.6-3.5 4.9-1.3 1.4-3 2.4-4.9 3.2s-4.3 1.1-7 1.1c-1.5 0-3-.1-4.6-.3a15.89 15.89 0 0 1-4.4-1.2l1.2-9.3c2 .8 4 1.2 6.1 1.2 1.6 0 2.9-.2 4-.6s2-1 2.8-1.8 1.4-1.7 2-2.8l1.6-3.6 3.3-8.5zm65 0H473v8.2h.2c1.3-2.9 3.5-5.2 6.7-6.9 3.2-1.8 6.8-2.7 10.9-2.7a22.95 22.95 0 0 1 7.4 1.2c2.4.8 4.4 2 6.2 3.7s3.2 3.8 4.2 6.4 1.6 5.7 1.6 9.2v34.4H500v-31.6c0-2.5-.3-4.6-1-6.4s-1.6-3.2-2.7-4.3-2.4-1.9-3.9-2.4-3-.7-4.6-.7c-2.1 0-4.1.3-5.9 1s-3.4 1.7-4.7 3.2-2.4 3.3-3.2 5.6-1.1 4.9-1.1 8v27.5h-10.2v-53.4zm100.9 14.2c-1.9-2-3.9-3.4-5.9-4.5s-4.5-1.5-7.4-1.5c-2.8 0-5.2.5-7.3 1.5s-3.8 2.4-5.2 4.2-2.4 3.8-3.2 6.1c-.7 2.3-1.1 4.7-1.1 7.2s.4 4.8 1.2 7.1 2 4.2 3.5 5.8a14.98 14.98 0 0 0 5.4 3.9c2.1.9 4.5 1.4 7.1 1.4 2.9 0 5.3-.5 7.3-1.5s3.9-2.5 5.6-4.5l7.2 7.2c-2.6 2.9-5.7 5-9.2 6.3s-7.2 1.9-11.1 1.9c-4.1 0-7.9-.7-11.3-2-3.4-1.4-6.4-3.3-8.9-5.7s-4.4-5.4-5.8-8.8c-1.3-3.4-2-7.2-2-11.3s.7-7.9 2-11.4c1.4-3.5 3.3-6.4 5.7-8.9s5.4-4.4 8.8-5.8 7.2-2.1 11.4-2.1c3.9 0 7.7.7 11.2 2.1 3.6 1.4 6.7 3.5 9.3 6.4z" fill="#4d4d4f"/><path fill="#b44c96" d="M0 0h79.9v79.9H0z"/><path fill="#6d8ec8" d="M0 108.8h79.9v79.9H0z"/><path fill="#e4a32f" d="M108.8 0h79.9v79.9h-79.9z"/></svg>