<?xml version="1.0" encoding="utf-8"?>
<!-- Generator: Adobe Illustrator 24.0.0, SVG Export Plug-In . SVG Version: 6.00 Build 0)  -->
<svg version="1.1"
	 id="svg248" xmlns:cc="http://creativecommons.org/ns#" xmlns:dc="http://purl.org/dc/elements/1.1/" xmlns:inkscape="http://www.inkscape.org/namespaces/inkscape" xmlns:rdf="http://www.w3.org/1999/02/22-rdf-syntax-ns#" xmlns:sodipodi="http://sodipodi.sourceforge.net/DTD/sodipodi-0.dtd" xmlns:svg="http://www.w3.org/2000/svg"
	 xmlns="http://www.w3.org/2000/svg" xmlns:xlink="http://www.w3.org/1999/xlink" x="0px" y="0px" viewBox="0 0 120 60" width="120" height="60"
	 style="enable-background:new 0 0 120 60;" xml:space="preserve">
<style type="text/css">
	.st0{fill:#0064B5;}
	.st1{opacity:0.8;}
	.st2{fill:#38A038;}
	.st3{opacity:0.7;}
	.st4{fill:#00B294;}
	.st5{fill:#5ECFF1;}
	.st6{fill:#FFFFFF;}
</style>
<g id="layer1" transform="translate(-52.810348,-135.67937)" inkscape:groupmode="layer" inkscape:label="Layer 1">
	
		<g id="g240" transform="matrix(0.26458333,0,0,0.26458333,47.530955,120.33433)" inkscape:export-xdpi="96" inkscape:export-ydpi="96">
		<path id="path4" inkscape:connector-curvature="0" class="st0" d="M140.3,185.5c-2.3-1.3-4.3-3.2-5.6-5.5c-1.4-2.4-2.1-5.1-2-7.9
			c0-2.8,0.7-5.5,2-7.9c1.3-2.3,3.3-4.2,5.6-5.5c2.5-1.3,5.3-2,8.1-2c2.1,0,4.2,0.4,6.2,1.2c1.9,0.7,3.5,1.8,4.8,3.3l-2,2
			c-2.4-2.4-5.6-3.7-9-3.6c-2.3,0-4.5,0.6-6.5,1.7c-1.9,1.1-3.5,2.6-4.6,4.5c-1.1,1.9-1.7,4.1-1.7,6.4c0,2.2,0.5,4.4,1.7,6.4
			c1.1,1.9,2.7,3.5,4.6,4.5c2,1.1,4.2,1.7,6.5,1.7c3.4,0.1,6.6-1.2,9-3.6l2,2c-1.4,1.5-3,2.6-4.8,3.3c-2,0.8-4.1,1.2-6.2,1.2
			C145.6,187.5,142.8,186.8,140.3,185.5z"/>
		<path id="path6" inkscape:connector-curvature="0" class="st0" d="M165.7,155.1h3.1v32.1h-3L165.7,155.1L165.7,155.1z"/>
		<path id="path8" inkscape:connector-curvature="0" class="st0" d="M197.1,176.8h-19c0.1,2.2,1.1,4.3,2.8,5.7
			c1.7,1.5,4,2.3,6.2,2.2c1.3,0,2.7-0.2,3.9-0.7c1.2-0.5,2.2-1.3,3-2.3l1.7,2c-1,1.2-2.3,2.2-3.8,2.8c-3.6,1.4-7.7,1.2-11.2-0.6
			c-1.7-1-3.2-2.4-4.2-4.1c-1-1.8-1.6-3.9-1.5-5.9c0-2.1,0.5-4.1,1.4-5.9c0.9-1.7,2.3-3.1,4-4.1c1.7-1,3.7-1.5,5.6-1.5
			c2,0,3.9,0.5,5.6,1.5c1.6,1,3,2.4,3.9,4.1c1,1.9,1.5,3.9,1.4,6L197.1,176.8z M180.6,169c-1.5,1.5-2.4,3.4-2.5,5.5h16.1
			c-0.1-2.1-1-4.1-2.5-5.5c-1.5-1.4-3.5-2.2-5.6-2.1C184,166.9,182,167.6,180.6,169z"/>
		<path id="path10" inkscape:connector-curvature="0" class="st0" d="M217.5,166.5c1.7,1.8,2.6,4.2,2.4,6.6v14.1h-3v-3.6
			c-0.7,1.2-1.8,2.1-3,2.8c-1.5,0.7-3.1,1.1-4.8,1c-2.2,0.1-4.3-0.5-6.1-1.8c-1.5-1.1-2.3-2.9-2.2-4.8c-0.1-1.8,0.7-3.5,2.1-4.6
			c2-1.3,4.3-1.9,6.7-1.7h7.2v-1.4c0.1-1.7-0.5-3.3-1.7-4.5c-1.3-1.1-3-1.6-4.8-1.5c-1.4,0-2.8,0.2-4.1,0.7c-1.2,0.5-2.4,1.1-3.4,2
			l-1.4-2.3c1.2-1,2.6-1.8,4.1-2.2c1.6-0.5,3.3-0.8,5.1-0.8C213.1,164.1,215.6,164.9,217.5,166.5z M214.1,183.9
			c1.3-0.8,2.2-2,2.8-3.4v-3.7h-7.1c-3.9,0-5.9,1.4-5.9,4.1c0,1.2,0.5,2.4,1.5,3.1c1.2,0.9,2.7,1.3,4.2,1.2
			C211.2,185.1,212.7,184.7,214.1,183.9z"/>
		<path id="path12" inkscape:connector-curvature="0" class="st0" d="M234.3,165.4c1.6-0.8,3.5-1.2,5.3-1.2v3l-0.7-0.1
			c-2.1-0.1-4.2,0.7-5.6,2.2c-1.4,1.7-2.2,3.9-2,6.2v11.6h-3v-22.8h3v4.4C231.9,167.4,233,166.2,234.3,165.4L234.3,165.4z"/>
		<path id="path14" inkscape:connector-curvature="0" class="st0" d="M245.2,155.1h3v32.1h-3V155.1z"/>
		<path id="path16" inkscape:connector-curvature="0" class="st0" d="M275.9,164.5L264.5,190c-0.7,1.8-1.8,3.3-3.2,4.6
			c-1.3,0.9-2.8,1.3-4.3,1.3c-1,0-2.1-0.2-3-0.5c-0.9-0.4-1.7-0.9-2.5-1.5l1.4-2.3c1.1,1.1,2.6,1.8,4.1,1.7c1,0,1.9-0.3,2.7-0.9
			c0.9-0.8,1.6-1.8,2-3l1-2.2l-10.1-22.7h3.2l8.5,19.4l8.5-19.4L275.9,164.5L275.9,164.5z"/>
		<path id="path18" inkscape:connector-curvature="0" class="st0" d="M280,156.9h13.3c3,0,5.9,0.6,8.6,1.9c5.1,2.5,8.2,7.7,8,13.3
			c0,2.8-0.7,5.6-2.1,8c-1.4,2.3-3.4,4.2-5.9,5.3c-2.7,1.3-5.6,1.9-8.6,1.9H280L280,156.9z M293,182.5c2,0,4-0.4,5.9-1.3
			c1.6-0.8,3-2.1,3.9-3.6c0.9-1.7,1.4-3.5,1.4-5.4c0.1-1.9-0.4-3.8-1.4-5.4c-0.9-1.6-2.3-2.8-3.9-3.6c-1.8-0.9-3.8-1.4-5.9-1.3h-7.3
			v20.8L293,182.5z"/>
		<path id="path20" inkscape:connector-curvature="0" class="st0" d="M336.8,177.4h-18.1c0.3,1.6,1.2,3.1,2.5,4.1
			c1.4,1.1,3.2,1.6,5,1.5c2.4,0.1,4.6-0.9,6.3-2.5l2.9,3.3c-1,1.3-2.4,2.2-3.9,2.8c-1.7,0.7-3.5,1-5.4,0.9c-2.3,0-4.6-0.5-6.7-1.5
			c-1.9-0.9-3.4-2.4-4.5-4.2c-1.1-1.8-1.6-4-1.6-6.1c0-2.1,0.5-4.2,1.5-6.1c1-1.8,2.5-3.2,4.3-4.2c1.9-1,4-1.6,6.1-1.5
			c2.1,0,4.2,0.5,6,1.5c1.8,1,3.2,2.4,4.1,4.2c1,1.9,1.6,4.1,1.5,6.2C336.9,176.4,336.8,176.9,336.8,177.4z M320.9,169.7
			c-1.2,1-2,2.5-2.2,4.1h13.1c-0.2-1.6-0.9-3-2.1-4.1c-1.2-1-2.8-1.6-4.4-1.5C323.7,168.1,322.1,168.7,320.9,169.7z"/>
		<path id="path22" inkscape:connector-curvature="0" class="st0" d="M348,162.9v1.4h6.4v4.4h-6.1v18.6h-5.4v-18.6H339v-4.4h3.8
			v-1.5c-0.1-2.2,0.7-4.3,2.2-5.9c1.6-1.5,3.8-2.3,6.1-2.2c1.7-0.1,3.4,0.3,4.9,1.2l-1.5,4.1c-0.9-0.6-1.9-1-3-0.9
			C349.2,159.2,348,160.4,348,162.9z M361.8,159.3c-1.3-1.2-1.4-3.2-0.2-4.5c0.1-0.1,0.1-0.1,0.2-0.2c0.7-0.6,1.5-1,2.5-0.9
			c0.9,0,1.8,0.3,2.5,0.9c0.7,0.6,1,1.4,1,2.2c0,0.9-0.3,1.8-0.9,2.4c-0.7,0.6-1.5,1-2.5,0.9C363.4,160.3,362.4,160,361.8,159.3z
			 M361.5,164.1h5.4v23.1h-5.4L361.5,164.1z"/>
		<path id="path24" inkscape:connector-curvature="0" class="st0" d="M394,166.4c1.9,2,2.8,4.8,2.6,7.6v13.3h-5.4v-12.6
			c0.1-1.7-0.4-3.3-1.4-4.6c-1.1-1.1-2.5-1.6-4.1-1.5c-1.8-0.1-3.5,0.6-4.7,1.8c-1.2,1.4-1.9,3.3-1.7,5.2v11.7h-5.4V164h5.1v3
			c0.9-1.1,2.1-1.9,3.4-2.4c1.5-0.6,3-0.8,4.6-0.8C389.5,163.7,392.1,164.6,394,166.4z"/>
		<path id="path26" inkscape:connector-curvature="0" class="st0" d="M425.4,177.4h-18.1c0.3,1.6,1.2,3.1,2.5,4.1
			c1.4,1.1,3.2,1.6,5,1.5c2.4,0.1,4.6-0.9,6.3-2.5l2.9,3.3c-1,1.3-2.4,2.2-3.9,2.8c-1.7,0.7-3.5,1-5.4,0.9c-2.3,0-4.6-0.5-6.7-1.5
			c-1.9-0.9-3.4-2.4-4.5-4.2c-1.1-1.8-1.6-4-1.6-6.1c0-2.1,0.5-4.2,1.5-6.1c1-1.8,2.5-3.2,4.3-4.2c1.9-1,4-1.6,6.1-1.5
			c2.1,0,4.2,0.5,6,1.5c1.8,1,3.2,2.4,4.1,4.2c1,1.9,1.6,4.1,1.5,6.2C425.4,176.4,425.4,176.9,425.4,177.4L425.4,177.4z
			 M409.4,169.7c-1.2,1-2,2.5-2.2,4.1h13.1c-0.2-1.6-0.9-3-2.1-4.1c-1.2-1-2.8-1.6-4.4-1.5C412.2,168.1,410.6,168.7,409.4,169.7z"/>
		<path id="path28" inkscape:connector-curvature="0" class="st0" d="M453.3,155.1v32.1H448v-3.1c-0.9,1.1-2,1.9-3.3,2.5
			c-1.4,0.6-2.9,0.8-4.3,0.8c-2.1,0-4.2-0.5-6-1.5c-1.8-1-3.2-2.5-4.2-4.2c-1-1.9-1.6-4.1-1.5-6.2c0-2.2,0.5-4.3,1.5-6.2
			c1-1.8,2.4-3.2,4.2-4.1c1.8-1,3.9-1.5,6-1.5c1.4,0,2.9,0.3,4.2,0.8c1.3,0.5,2.4,1.3,3.3,2.3V155L453.3,155.1L453.3,155.1z
			 M444.6,182c1-0.6,1.9-1.5,2.5-2.5c0.6-1.2,0.9-2.5,0.9-3.8c0-1.3-0.3-2.7-0.9-3.8c-0.6-1.1-1.4-1.9-2.5-2.5
			c-2.2-1.2-4.8-1.2-6.9,0c-1,0.6-1.9,1.5-2.5,2.5c-0.6,1.2-0.9,2.5-0.9,3.8c0,1.3,0.3,2.7,0.9,3.8c0.6,1.1,1.4,1.9,2.5,2.5
			c1.1,0.6,2.3,0.9,3.5,0.9C442.3,182.9,443.5,182.6,444.6,182z"/>
		<path id="path30" inkscape:connector-curvature="0" class="st0" d="M95.7,143.9c-0.6,0.1-1.2,0.1-1.9,0.2c0.1,1.2,0.2,2.4,0.3,3.6
			c0,1.1,0.6,2.2,1.5,2.7c0.7,0.3,1.4,0.6,2.1,0.7c0.8,0,1.6,0,2.4-0.1c0.7-0.1,0.9-0.7,0.9-1.2c0.2-1.1,0.2-2.2,0.4-3.3
			c0.1-0.7,0.1-1.2,0.2-1.9c0-0.2,0.3-0.4,0.5-0.4c1.2-0.1,2.5-0.1,3.7-0.1c0.3,0,0.7,0.1,0.9,0.1c1.3,0,1.9,0.5,2,1.8
			c0.1,1.5,0.2,3.1,0.2,4.6c0,0.6-0.5,0.9-1.1,0.9c-0.8,0.1-1.7,0.1-2.5,0.1c-0.7,0.1-1.2,0.1-1.9,0.2c-0.7,0.1-1.3,0.7-1.3,1.4
			c-0.2,1.3,0,2.5,0.5,3.7c0.2,0.5,0.6,0.9,1,1.1c0.9,0.3,1.9,0.6,2.9,0.7c0.3,0,0.6,0,0.9,0c0.9,0.1,1.4-0.3,1.5-1.3
			c0.1-1.4,0.2-2.7,0.2-4l7.4,4.3c0,0.9-0.8,1.3-1.9,1.5c-1.2,0.2-2.4,0.1-3.7,0.2c-0.9,0.1-1.4,0.4-1.4,1.2c-0.1,1.6,0,3.1,0.1,4.7
			c0,0.7,0.5,1.2,1.2,1.2c1.1,0.2,2.2,0.3,3.4,0.4c0.5,0.1,1.1,0.1,1.7,0.1c0.5,0,0.8,0.4,0.8,0.8c0,0,0,0,0,0.1
			c0.1,1.2,0.1,2.4,0.1,3.7c0,0.7-0.1,1.5-0.1,2.2c-0.1,0.5-0.5,0.9-1,0.9c-1.3,0.1-2.7,0.2-4,0.4c-1.1,0-2.1,0.9-2.1,2.1
			c0,0,0,0,0,0c-0.1,1.1-0.1,2.2-0.1,3.3c0.1,1.6,0.5,2,2.1,2.1c1.1,0.1,2.2,0.1,3.4,0.2c0.9,0.1,1.3,0.4,1.4,1.2
			c0.1,1.5,0.1,3.1,0,4.6c-0.1,1.1-0.8,1.5-2.2,1.6s-3,0.2-4.4,0.2c-0.4,0-0.9-0.7-0.9-1.2v-2.8c0-0.7-0.1-1.3-0.2-2
			c-0.1-0.5-0.5-0.9-1-1c-1.5-0.3-3.1,0.1-4.3,1.1c-0.4,0.6-0.7,1.3-0.8,2c-0.1,0.6-0.1,1.3,0,2c0,0.5,0.2,0.7,0.7,0.9
			c1,0.4,2.1,0.6,3.2,0.7h1.5c0.6-0.1,1.1,0.3,1.1,0.9c0,0.1,0,0.2,0,0.3c-0.1,0.9-0.1,1.8-0.1,2.7c-0.1,0.8-0.1,1.6-0.2,2.4
			c-0.2,0.8-0.9,1.4-1.8,1.5c-1.6,0-3.2,0.1-4.7,0.2c-0.9,0.1-1.2-0.4-1.3-1.2c-0.1-1.1-0.1-2.3-0.2-3.4c-0.2-2-1.8-2.3-3.2-2.1
			c-3.1,0.5-3.7,3.3-3.3,5.4c0.2,0.9,1,0.9,1.7,1c1.2,0.1-2.6,3.4-2.7,2.1c-0.1-0.9-0.5-1.4-1.4-1.4c-1.5,0-2.9,0-4.4,0.1
			c-0.9,0.2-1.6,1-1.6,2c-0.2,1.3-0.3,2.7-0.4,4c-0.1,0.7-0.4,1-1.1,1c-1.2,0.1-2.5,0.1-3.7,0.1c-0.7,0-1.4-0.1-2.1-0.2
			c-0.4,0-0.7-0.3-0.7-0.7c-0.1-1.5-0.2-3-0.4-4.5c-0.1-0.9-0.8-1.7-1.7-1.8c-1.4-0.1-2.8-0.2-4.1-0.2c-1.1,0-1.5,0.4-1.6,1.5
			c-0.1,1.1-0.8,2-0.9,3.1c0,0.6-0.2,1.1-0.4,1.6c-0.2,0.4-0.7,0.4-1,0.4c-1.2,0.1-2.4,0-3.6-0.1c-1.1-0.1-1.1-0.5-1.2-1.6
			c-0.1-1.4,0.6-2.5,0.5-4c0-0.8,0.1-0.3,0.8-0.3c1.7-0.1,2.6-0.2,4.2-0.4c0.3-0.1,0.9-1.2,1-1.6c0.2-1.5,0-2.9-0.5-4.3
			c-0.3-0.8-1.1-1.3-1.9-1.4c-1.1-0.3-2.2-0.4-3.4-0.2c-0.7,0.1-1.2,0.6-1.2,1.3c-0.1,1.1-0.2,2.1-0.3,3.3v1.2c0,0.6-0.4,1.1-1,1.1
			c-0.1,0-0.1,0-0.2,0c-1.4-0.1-2.8-0.1-4.3-0.2c-1.4-0.1-1.9-0.7-1.9-2.1c0-1.2-0.1-2.5-0.1-3.7c0-1,0.2-1.4,1.2-1.4
			c1.1-0.1,2.2-0.2,3.3-0.2c0.5,0,1-0.1,1.5-0.2c0.6-0.1,1-0.6,0.9-1.2c0-1.2,0-2.4-0.2-3.6c-0.2-1.1-1.1-2-2.2-2.2
			c-0.7-0.1-3.5-0.2-4.4-0.2c-0.1,1.2-0.1,2.3-0.2,3.4c-0.1,1.1-0.1,2.1-0.2,3.1c0,0.2-0.2,0.4-0.4,0.5c-1.6,0.3-3.2,0.3-4.7,0
			c-1.4-0.2-2-0.8-2-2.2V185c0.1-1.1,0.5-1.7,1.5-1.8c0.9-0.2,1.7-0.3,2.6-0.3c0.7-0.1,1.4,0,2.1-0.1c0.9-0.1,0.9-0.1,0.9-1
			c0-1.8-0.1-3.6-0.1-5.3c0-0.7,0.1-9.5,0.1-10.5c0.1-1.8,0.1-3.7,0.2-5.6c0-0.6,0.1-0.9,0.8-0.9c1.4-0.1,2.8-0.2,4.3-0.4
			c1.2-0.2,2.1-1.1,2.2-2.3c0.1-1.1,0.2-2.3,0.2-3.4c0-1.1-0.2-1.4-1.3-1.5c-0.8-0.1-1.5-0.1-2.3-0.1c-0.9-0.1-1.8-0.2-2.7-0.4
			c-0.5,0-0.9-0.5-0.8-0.9c0,0,0,0,0-0.1c0-1.4-0.1-2.7,0.1-4.1c0.1-1.2,0.6-1.7,1.8-1.8c1.4-0.1,2.7-0.1,4-0.1c0.5,0,1,0.3,1.1,0.9
			c0,0,0,0,0,0c0.1,0.8,0.2,1.7,0.3,2.5c0.1,0.9,0.1,2,0.2,2.9c0.1,0.3,0.2,0.5,0.5,0.6c0.9,0.1,1.7,0.2,2.6,0.2
			c0.8,0,1.5-0.2,2.2-0.3c1-0.1,1.7-0.9,1.8-1.8c0.3-1.2,0.4-2.4,0.4-3.7c0.1-2,0.3-1.7,1.9-1.8l5-0.2c0.5,0,0.8-0.2,0.8-0.8
			c0.1-1.7,0.3-3.4,0.5-5c0.1-0.9,0.6-1.3,1.5-1.4H84c1.1,0,1.5,0.5,1.7,1.5c0.1,1.4,0.2,2.7,0.4,4c0.1,1.2,0.4,1.6,1.6,1.7
			c1.7,0.1,3.5,0.1,5.2,0.1c0.3,0,0.7-0.2,0.7-0.5c0,0,0,0,0-0.1c0.1-0.5,0.2-1,0.2-1.5"/>
		<g id="g34" class="st1">
			<path id="path32" inkscape:connector-curvature="0" class="st2" d="M54.7,158.3c-0.3,0.5-0.9,0.9-1.5,0.9c-1.6,0-3.2-0.2-4.8-0.4
				c-0.5-0.1-0.8-0.6-0.8-1.1c-0.1-1.1-0.1-2.3-0.1-3.4c-0.1-1.1,0.7-2.1,1.8-2.2c0.1,0,0.2,0,0.3,0c1.2-0.1,2.4-0.1,3.5-0.1
				c0.9,0,1.3,0.4,1.4,1.3C54.6,155,54.7,156.6,54.7,158.3z"/>
		</g>
		<g id="g38" class="st1">
			<path id="path36" inkscape:connector-curvature="0" class="st2" d="M66.6,136.4c0.7,0.1,1.4,0.1,2.1,0.1c0.5,0,0.9,0.3,1.1,0.8
				c0.3,1.7,0.4,3.4,0.4,5.1c0,0.7-0.5,1.3-1.2,1.4c-1.2,0-2.4-0.1-3.7-0.1c-0.6,0-1.1-0.2-1.6-0.4c-0.5-0.2-0.8-0.7-0.8-1.3
				c0-1.2,0.1-2.4,0.1-3.5c0-1.1,0.8-2,1.8-2c0.1,0,0.1,0,0.2,0C65.6,136.4,66,136.4,66.6,136.4z"/>
		</g>
		<g id="g42" class="st1">
			<path id="path40" inkscape:connector-curvature="0" class="st2" d="M117.2,176c0-0.2,0.2-0.4,0.4-0.5c0.8-0.1,1.6-0.2,2.5-0.2
				c0.8,0,1.7,0.1,2.5,0.2c0.9,0,1.6,0.6,1.7,1.5c0.3,1.5,0.3,3-0.2,4.4c-0.2,0.4-0.5,0.7-0.9,0.8c-1.6,0.2-3.1,0.2-4.7,0.2
				c-0.6,0-1.2-0.6-1.1-1.2c0,0,0-0.1,0-0.1C117.1,180.2,117.1,176.8,117.2,176z"/>
		</g>
		<g id="g46" class="st1">
			<path id="path44" inkscape:connector-curvature="0" class="st2" d="M120.6,159.8h1.4c1.4,0.1,1.9,0.4,2.1,1.8
				c0.4,1.4,0.3,2.8-0.2,4.1c-0.2,0.3-0.5,0.7-0.8,0.8c-1.6,0.4-3.3,0.5-4.9,0.2c-0.9-0.2-1.1-0.4-1.1-1.4v-3.9
				c0-1.2,0.2-1.5,1.4-1.7c0.2,0,0.3-0.1,0.5-0.1C119.6,159.8,120.1,159.8,120.6,159.8L120.6,159.8z"/>
		</g>
		<g id="g50" class="st1">
			<path id="path48" inkscape:connector-curvature="0" class="st2" d="M89.8,213.6c-0.7-0.1-1.4-0.1-2.1-0.2
				c-0.6-0.1-1.1-0.6-1.2-1.2c-0.2-1.6-0.3-3.2-0.4-4.8c0-0.5,0.4-1,0.9-1c0.1,0,0.2,0,0.3,0c1.4,0.1,2.8-0.1,4.3,0
				c1.3,0.1,1.7,0.6,1.7,2c0,1,0,2-0.1,3c-0.1,1.6-0.9,2.3-2.5,2.3C90.4,213.5,90.1,213.5,89.8,213.6z"/>
		</g>
		<g id="g54" class="st1">
			<path id="path52" inkscape:connector-curvature="0" class="st2" d="M77.9,209.4c-0.1,0.8-0.1,1.5-0.2,2.3c-0.1,1-1,1.8-2,1.8
				c-0.9,0.1-1.8,0.1-2.7,0c-1,0.1-2-0.7-2.1-1.7c0-0.1,0-0.2,0-0.4c-0.1-0.8-0.1-1.7-0.1-2.5c0.1-0.6,0.2-1.2,0.4-1.8
				c0.2-0.7,0.9-0.6,1.4-0.7c1.2-0.1,2.5-0.1,3.8-0.1c0.7,0,1.3,0.6,1.4,1.3c0,0,0,0,0,0C77.9,208.2,77.9,208.8,77.9,209.4
				C77.8,209.4,77.9,209.4,77.9,209.4z"/>
		</g>
		<g id="g58" class="st1">
			<path id="path56" inkscape:connector-curvature="0" class="st2" d="M116.6,202.3v1.2c-0.1,1.2-0.5,2-1.7,2.1
				c-1.4,0.1-2.8,0-4.1-0.2c-0.3-0.1-0.8-0.5-0.8-0.8c-0.2-1.4-0.3-2.8-0.2-4.3c0.1-1.2,0.6-1.5,1.8-1.5c1.1,0,2.1,0,3.2,0.1
				c1.1,0.1,1.9,1,1.9,2.1C116.6,201.4,116.6,201.9,116.6,202.3z"/>
		</g>
		<g id="g62" class="st1">
			<path id="path60" inkscape:connector-curvature="0" class="st2" d="M120.9,151.1h-1.3c-1.1-0.1-1.8-0.4-1.8-1.5
				c-0.1-1.4-0.1-2.7,0.1-4.1c0.1-0.7,0.8-1.3,1.5-1.2c1.1,0,2.3,0,3.4,0.1c0.7,0,1.3,0.5,1.4,1.2c0.4,1.5,0.4,3,0,4.4
				c-0.1,0.6-0.7,1.1-1.3,1.1C122.2,151.1,121.5,151.1,120.9,151.1L120.9,151.1z"/>
		</g>
		<g id="g66" class="st1">
			<path id="path64" inkscape:connector-curvature="0" class="st2" d="M54.4,202.2c-0.1,0.7-0.1,1.2-0.2,1.9
				c-0.3,1.2-0.7,1.5-1.9,1.6c-0.9,0.1-1.9,0.1-2.8,0c-1.1,0.1-2-0.8-2.1-1.8c0-0.1,0-0.2,0-0.4c-0.1-0.8,0-1.7,0-2.5
				c-0.1-1.1,0.8-2,1.9-2.1c0,0,0.1,0,0.1,0c1-0.1,1.9-0.1,2.9,0c1.1,0,2,0.9,2,2c0,0.1,0,0.1,0,0.2
				C54.4,201.4,54.4,201.8,54.4,202.2z"/>
		</g>
		<g id="g70" class="st1">
			<path id="path68" inkscape:connector-curvature="0" class="st2" d="M54.3,139.9c0,0.5,0,0.9,0,1.4c0,1.1-0.9,2.1-2,2.1
				c-0.1,0-0.1,0-0.2,0h-2.5c-1.1,0.1-2.1-0.8-2.1-1.9c0-0.1,0-0.1,0-0.2c-0.1-0.9-0.1-1.8,0-2.7c0-1.1,0.9-2,2-2.1c0,0,0.1,0,0.1,0
				c0.9-0.1,1.7-0.1,2.6,0c1.1-0.1,2.1,0.8,2.2,1.9c0,0.1,0,0.2,0,0.3C54.4,139.1,54.4,139.5,54.3,139.9z"/>
		</g>
		<g id="g74" class="st1">
			<path id="path72" inkscape:connector-curvature="0" class="st2" d="M105.3,213.5H104c-1,0.1-1.9-0.6-2-1.6c0-0.1,0-0.2,0-0.2
				c0-1.4,0-2.7,0.2-4.1c0.1-0.4,0.4-0.6,0.8-0.7c1.3-0.1,2.5-0.2,3.8-0.1c1.4,0.1,2,0.8,2,2.1v2.4c0.1,1.1-0.8,2.2-1.9,2.3
				c-0.1,0-0.2,0-0.3,0L105.3,213.5z"/>
		</g>
		<g id="g78" class="st1">
			<path id="path76" inkscape:connector-curvature="0" class="st2" d="M40.3,178.9v-2.1c0-0.7,0.2-1.1,0.9-1.1
				c1.2-0.1,2.3-0.1,3.5-0.1c1.8,0.1,2,0.3,2,2.1c0,1.2-0.1,2.5-0.2,3.7c-0.1,0.6-0.4,0.8-1,0.9c-1.2,0.1-2.5,0.1-3.8,0.1
				c-1.1-0.1-1.4-0.4-1.4-1.5v-1C40.3,179.5,40.3,179.2,40.3,178.9z"/>
		</g>
		<g id="g82" class="st1">
			<path id="path80" inkscape:connector-curvature="0" class="st2" d="M89.8,129.2h1.9c1.1,0,1.5,0.3,1.6,1.4c0,1.3,0,2.7-0.2,4
				c-0.1,0.7-0.6,0.9-1.5,1c-1.2,0.1-2.5,0.1-3.8,0c-0.6,0.1-1.2-0.3-1.3-0.9c0-0.1,0-0.2,0-0.3c-0.3-1.5-0.2-3,0.1-4.5
				c0.1-0.5,0.4-0.7,0.9-0.7H89.8z"/>
		</g>
		<g id="g86" class="st1">
			<path id="path84" inkscape:connector-curvature="0" class="st2" d="M40.3,163.3V161c0-0.6,0.2-1,0.8-1.1c1.6-0.4,3.3-0.3,4.8,0.3
				c0.3,0.2,0.5,0.4,0.6,0.8c0.1,1.4,0.2,2.8,0.1,4.3c-0.1,1-0.5,1.4-1.4,1.4c-1.1,0.1-2.2,0.1-3.4,0.1c-1.1,0-1.5-0.4-1.5-1.5
				C40.3,164.6,40.3,163.9,40.3,163.3z"/>
		</g>
		<g id="g90" class="st1">
			<path id="path88" inkscape:connector-curvature="0" class="st2" d="M74.2,129.2h2.1c0.8,0,1.2,0.2,1.2,1c0.1,1.5,0,3-0.1,4.4
				c-0.1,0.7-0.8,0.9-1.3,0.9c-1.4,0-2.8,0-4.3-0.1c-0.3-0.1-0.6-0.3-0.8-0.6c-0.5-1.6-0.6-3.3-0.2-4.9c0.1-0.5,0.4-0.7,0.9-0.7
				L74.2,129.2z"/>
		</g>
		<g id="g94" class="st1">
			<path id="path92" inkscape:connector-curvature="0" class="st2" d="M40.3,194.4v-2.1c0-0.5,0.2-0.8,0.7-0.9
				c1.6-0.5,3.3-0.4,4.8,0.2c0.4,0.2,0.6,0.5,0.7,0.9c0.1,1.4,0.1,2.8,0,4.2c-0.1,0.5-0.4,0.8-0.8,1.1c-1.5,0.5-3,0.6-4.6,0.2
				c-0.5-0.1-0.8-0.6-0.8-1.1C40.3,196,40.3,195.2,40.3,194.4z"/>
		</g>
		<g id="g98" class="st1">
			<path id="path96" inkscape:connector-curvature="0" class="st2" d="M105.4,129.2h1.9c1,0,1.4,0.1,1.4,1.1c0.1,1.3,0,2.7-0.1,4
				c-0.1,0.7-0.6,1.2-1.3,1.1c-1.2,0.1-2.4,0.1-3.7,0c-1.1-0.1-1.6-0.8-1.6-2.1c-0.1-0.9,0-1.8,0-2.7c0.1-1.1,0.4-1.4,1.5-1.4
				C104.2,129.2,104.8,129.2,105.4,129.2z"/>
		</g>
		<g id="g140" class="st3">
			<g id="g102" class="st3">
				<path id="path100" inkscape:connector-curvature="0" class="st4" d="M85.5,141.4h1.8c0.9,0,1.2,0.1,1.3,1c0.1,1.2,0,2.5-0.1,3.7
					c-0.1,0.6-0.6,1.1-1.2,1.1c-1.1,0.1-2.2,0.1-3.4,0c-1-0.1-1.5-0.7-1.5-2v-2.5c0.1-1.1,0.4-1.3,1.4-1.3H85.5z"/>
			</g>
			<g id="g106" class="st3">
				<path id="path104" inkscape:connector-curvature="0" class="st4" d="M71.3,147.2h1.8c0.9,0,1.2,0.1,1.3,1c0.1,1.2,0,2.5-0.1,3.7
					c-0.1,0.6-0.6,1.1-1.2,1.1c-1.1,0.1-2.2,0.1-3.4,0c-1-0.1-1.5-0.7-1.5-2v-2.5c0.1-1.1,0.4-1.3,1.4-1.3H71.3z"/>
			</g>
			<g id="g110" class="st3">
				<path id="path108" inkscape:connector-curvature="0" class="st4" d="M59,162.5h1.8c0.9,0,1.2,0.1,1.3,1c0.1,1.2,0,2.5-0.1,3.7
					c-0.1,0.6-0.6,1.1-1.2,1.1c-1.1,0.1-2.2,0.1-3.4,0c-1-0.1-1.5-0.7-1.5-2v-2.5c0.1-1.1,0.4-1.3,1.4-1.3H59z"/>
			</g>
			<g id="g114" class="st3">
				<path id="path112" inkscape:connector-curvature="0" class="st4" d="M59.6,175.4h1.8c0.9,0,1.2,0.1,1.3,1c0.1,1.2,0,2.5-0.1,3.7
					c-0.1,0.6-0.6,1.1-1.2,1.1c-1.1,0.1-2.2,0.1-3.4,0c-1-0.1-1.5-0.7-1.5-2v-2.5c0.1-1.1,0.4-1.3,1.4-1.3H59.6z"/>
			</g>
			<g id="g118" class="st3">
				<path id="path116" inkscape:connector-curvature="0" class="st4" d="M71.3,186.2h1.8c0.9,0,1.2,0.1,1.3,1c0.1,1.2,0,2.5-0.1,3.7
					c-0.1,0.6-0.6,1.1-1.2,1.1c-1.1,0.1-2.2,0.1-3.4,0c-1-0.1-1.5-0.7-1.5-2v-2.5c0.1-1.1,0.4-1.3,1.4-1.3H71.3z"/>
			</g>
			<g id="g122" class="st3">
				<path id="path120" inkscape:connector-curvature="0" class="st4" d="M79.1,192.3h1.8c0.9,0,1.2,0.1,1.3,1c0.1,1.2,0,2.5-0.1,3.7
					c-0.1,0.6-0.6,1.1-1.2,1.1c-1.1,0.1-2.2,0.1-3.4,0c-1-0.1-1.5-0.7-1.5-2v-2.5c0.1-1.1,0.4-1.3,1.4-1.3L79.1,192.3z"/>
			</g>
			<g id="g126" class="st3">
				<path id="path124" inkscape:connector-curvature="0" class="st4" d="M94.7,185.8h1.8c0.9,0,1.2,0.1,1.3,1c0.1,1.2,0,2.5-0.1,3.7
					c-0.1,0.6-0.6,1.1-1.2,1.1c-1.1,0.1-2.2,0.1-3.4,0c-1-0.1-1.5-0.7-1.5-2v-2.5c0.1-1.1,0.4-1.3,1.4-1.3L94.7,185.8z"/>
			</g>
			<g id="g130" class="st3">
				<path id="path128" inkscape:connector-curvature="0" class="st4" d="M105.1,166.8h1.8c0.9,0,1.2,0.1,1.3,1
					c0.1,1.2,0,2.5-0.1,3.7c-0.1,0.6-0.6,1.1-1.2,1.1c-1.1,0.1-2.2,0.1-3.4,0c-1-0.1-1.5-0.7-1.5-2v-2.5c0.1-1.1,0.4-1.3,1.4-1.3
					H105.1z"/>
			</g>
			<g id="g134" class="st3">
				<path id="path132" inkscape:connector-curvature="0" class="st4" d="M99.9,148.6h1.8c0.9,0,1.2,0.1,1.3,1c0.1,1.2,0,2.5-0.1,3.7
					c-0.1,0.6-0.6,1.1-1.2,1.1c-1.1,0.1-2.2,0.1-3.4,0c-1-0.1-1.5-0.7-1.5-2V150c0.1-1.1,0.4-1.3,1.4-1.3L99.9,148.6z"/>
			</g>
			<g id="g138" class="st3">
				<path id="path136" inkscape:connector-curvature="0" class="st4" d="M107.1,177.3h1.8c0.9,0,1.2,0.1,1.3,1
					c0.1,1.2,0,2.5-0.1,3.7c-0.1,0.6-0.6,1.1-1.2,1.1c-1.1,0.1-2.2,0.1-3.4,0c-1-0.1-1.5-0.7-1.5-2v-2.5c0.1-1.1,0.4-1.3,1.4-1.3
					H107.1z"/>
			</g>
		</g>
		<path id="path142" inkscape:connector-curvature="0" class="st5" d="M58.9,143.8h2.3c1.2,0,1.7,0.2,1.7,1.4c0.1,1.7,0,3.3-0.2,5
			c-0.1,0.8-0.8,1.5-1.6,1.4c-1.5,0.1-2.9,0.1-4.4,0c-1.3-0.1-1.9-1-2-2.6c0-1.1,0-2.3,0.1-3.4c0.1-1.4,0.5-1.8,1.8-1.8
			C57.4,143.8,58.1,143.8,58.9,143.8z"/>
		<path id="path144" inkscape:connector-curvature="0" class="st5" d="M97.5,136.6h2.3c1.2,0,1.7,0.2,1.7,1.4c0.1,1.7,0,3.3-0.2,5
			c0,0.8-0.8,1.5-1.6,1.4c-1.5,0.1-2.9,0.1-4.4,0c-1.3-0.1-1.9-1-2-2.6c0-1.1,0-2.3,0.1-3.4c0.1-1.4,0.5-1.8,1.8-1.8
			C96,136.6,96.8,136.6,97.5,136.6z"/>
		<path id="path146" inkscape:connector-curvature="0" class="st5" d="M97.3,198h2.3c1.2,0,1.7,0.2,1.7,1.4c0.1,1.7,0,3.3-0.2,5
			c-0.1,0.8-0.8,1.5-1.6,1.4c-1.5,0.1-2.9,0.1-4.4,0c-1.3-0.1-1.9-1-2-2.6c0-1.1,0-2.3,0.1-3.4c0.1-1.4,0.5-1.8,1.8-1.8
			C95.9,198,96.6,198,97.3,198z"/>
		<path id="path148" inkscape:connector-curvature="0" class="st5" d="M66.7,198.2H69c1.2,0,1.7,0.2,1.7,1.4c0.1,1.7,0,3.3-0.2,5
			c0,0.8-0.8,1.5-1.6,1.4c-1.5,0.1-2.9,0.1-4.4,0c-1.3-0.1-1.9-1-2-2.6c0-1.1,0-2.3,0.1-3.4c0.1-1.4,0.5-1.8,1.8-1.8
			C65.2,198.2,65.9,198.2,66.7,198.2z"/>
		<path id="path150" inkscape:connector-curvature="0" class="st5" d="M51.3,167.2h2.3c1.2,0,1.7,0.2,1.7,1.4c0.1,1.7,0,3.3-0.2,5
			c-0.1,0.8-0.8,1.5-1.6,1.4c-1.5,0.1-2.9,0.1-4.4,0c-1.3-0.1-1.9-1-2-2.6c0-1.1,0-2.3,0.1-3.4c0.1-1.4,0.5-1.8,1.8-1.8
			C49.8,167.2,50.5,167.2,51.3,167.2z"/>
		<path id="path152" inkscape:connector-curvature="0" class="st6" d="M98.7,179.6l-15.8,9.2l-15.7-9.3l0.1-18.5l15.8-9.1l15.7,9.3
			L98.7,179.6z"/>
		<path id="path154" inkscape:connector-curvature="0" class="st5" d="M112.7,151.8h2.3c1.2,0,1.7,0.2,1.7,1.4c0.1,1.7,0,3.3-0.2,5
			c-0.1,0.8-0.8,1.5-1.6,1.4c-1.5,0.1-2.9,0.1-4.4,0c-1.3-0.1-1.9-1-2-2.6c0-1.1,0-2.3,0.1-3.4c0.1-1.4,0.5-1.8,1.8-1.8
			C111.2,151.8,111.9,151.8,112.7,151.8z"/>
	</g>
</g>
</svg>
