<svg xmlns="http://www.w3.org/2000/svg" width="64" height="64"><path d="M37.763 24.69l-5.8-4.404c-4.3-3.186-8.714-6.372-13.306-8.996C10.4 6.42 0 12.322 0 21.88v10.682c6.184-9.277 17.242 0 26.143 6.84 1.874 1.5 3.842 2.905 5.8 4.404 4.3 3.186 8.714 6.372 13.306 8.996 8.246 4.873 18.647-1.03 18.647-10.59V31.438c-6.184 9.277-17.242 0-26.143-6.747z" fill="#ff8200"/><path d="M26.893 44.556c-2.905-2.25-5.903-4.592-8.996-6.653-4.404-2.8-11.338-7.3-15.836-2.06-1.5 1.78-2.06 4.122-2.06 6.37 0 3 .937 5.997 2.717 8.34 3.842 5.06 11.432 6.372 16.867 3.092 2.06-1.218 6.184-4.217 10.12-6.934-.187-.094-.28-.187-.47-.375-.75-.562-1.5-1.218-2.343-1.78zm10.214-25.112c2.905 2.25 5.903 4.592 8.996 6.653 4.404 2.8 11.338 7.3 15.836 2.06 1.5-1.78 2.06-4.123 2.06-6.372 0-3-.937-5.997-2.717-8.34-3.842-5.06-11.432-6.372-16.867-3.092-2.06 1.218-6.184 4.217-10.12 6.934.187.094.28.187.47.375.75.562 1.5 1.218 2.343 1.78z" fill="#fc4c02"/></svg>