<svg xmlns="http://www.w3.org/2000/svg" width="120" height="60" viewBox="1.516 1.556 48.81 24.41"><path d="M17.31 12.996l.88-1.276c.167-.24.38-.36.645-.36.215 0 .4.076.558.23s.236.335.236.548c0 .157-.042.296-.125.416l-.794 1.155.97 1.23a.67.67 0 0 1 .146.43c0 .217-.076.404-.23.56s-.338.234-.555.234c-.238 0-.42-.077-.545-.232l-1.19-1.484v.818c0 .234-.04.415-.12.544-.148.236-.363.354-.645.354-.257 0-.455-.087-.596-.26-.132-.16-.198-.37-.198-.635v-3.035c0-.25.067-.455.2-.617.14-.17.335-.257.583-.257.236 0 .432.086.6.257.088.095.143.19.166.288.014.06.02.172.02.336zm-4.005-1.73c.576-.002 1.105.19 1.588.58.38.305.57.62.57.947a.73.73 0 0 1-.347.645.76.76 0 0 1-.43.132.78.78 0 0 1-.364-.09c-.05-.025-.17-.142-.36-.35a.87.87 0 0 0-.669-.291.87.87 0 0 0-.65.269c-.175.18-.262.398-.262.657a.9.9 0 0 0 .262.654c.174.18.4.27.647.27a.94.94 0 0 0 .593-.215l.336-.326c.12-.104.273-.156.458-.156.213 0 .397.075.553.224a.72.72 0 0 1 .234.543c0 .29-.17.58-.5.877-.476.416-1.027.624-1.65.624-.386 0-.75-.082-1.092-.246a2.46 2.46 0 0 1-1.032-.917c-.256-.403-.383-.844-.383-1.323 0-.717.266-1.327.798-1.83.47-.444 1.04-.668 1.713-.673zm-2.808 1.06v2.937a.97.97 0 0 1-.198.628c-.14.18-.336.27-.586.27a.76.76 0 0 1-.579-.253c-.132-.14-.198-.356-.198-.645v-2.937c0-.328.066-.566.198-.715a.74.74 0 0 1 .579-.253c.236 0 .43.083.58.25.136.152.205.392.205.718zm-4.375.67l.88-1.276c.166-.24.38-.36.645-.36.215 0 .4.076.558.23s.236.335.236.548c0 .157-.042.296-.125.416l-.794 1.155.97 1.23a.67.67 0 0 1 .146.43c0 .217-.076.404-.23.56s-.338.234-.555.234c-.238 0-.42-.077-.544-.232l-1.19-1.484v.818c0 .234-.04.415-.12.544-.148.236-.363.354-.645.354-.257 0-.455-.087-.596-.26-.132-.16-.198-.37-.198-.635v-3.035c0-.25.067-.455.2-.617.14-.17.335-.257.583-.257.236 0 .432.086.6.257.088.095.143.19.166.288.014.06.02.172.02.336v.756" fill="#404041"/><path d="M46.76 14.303l.368.59a.95.95 0 0 1 .153.506c0 .22-.076.402-.227.546s-.337.217-.557.217c-.282 0-.496-.12-.642-.36l-.652-1.068v.642a.78.78 0 0 1-.217.558.72.72 0 0 1-.546.229c-.268 0-.472-.096-.6-.288-.125-.17-.187-.39-.187-.666v-2.916c0-.6.323-.898.968-.898h.992c.326 0 .63.094.91.283s.484.433.614.734a1.72 1.72 0 0 1 .146.683c0 .428-.17.83-.5 1.2zm-5.02.36h.71c.293 0 .51.06.654.18.168.143.253.328.253.555a.7.7 0 0 1-.253.562c-.132.11-.348.166-.648.166h-1.217c-.287 0-.483-.022-.6-.066-.208-.086-.346-.225-.413-.42-.042-.125-.062-.33-.062-.614v-2.573l.02-.434a.72.72 0 0 1 .184-.381c.11-.118.252-.193.423-.226.08-.014.245-.02.492-.02h.933l.444.007c.167.016.303.065.41.146a.67.67 0 0 1 .284.562c0 .25-.083.44-.25.572-.148.118-.35.177-.606.177h-.768v.322h.612c.18 0 .33.047.446.142.124.102.187.242.187.42 0 .377-.23.565-.688.565h-.557v.357zm-4.626-1.817H36.7a.86.86 0 0 1-.569-.187c-.16-.134-.24-.313-.24-.538 0-.134.038-.263.113-.387a.64.64 0 0 1 .291-.264c.12-.052.402-.078.848-.078h1.575c.386 0 .636.023.75.07.125.05.226.138.304.262s.116.254.116.4c0 .215-.086.402-.257.562-.123.113-.322.17-.6.17h-.357v2.358c0 .257-.044.455-.132.596a.71.71 0 0 1-.641.354c-.28 0-.495-.108-.645-.323-.095-.134-.142-.337-.142-.6v-2.376zm-1.855 1.457l.368.59a.95.95 0 0 1 .153.506c0 .22-.076.402-.227.546s-.337.217-.556.217c-.282 0-.496-.12-.642-.36l-.652-1.068v.642a.78.78 0 0 1-.217.558.72.72 0 0 1-.546.229c-.268 0-.472-.096-.6-.288-.125-.17-.187-.39-.187-.666v-2.916c0-.6.323-.898.968-.898h.992c.326 0 .63.094.91.283s.484.433.614.734c.097.227.146.454.146.683 0 .428-.17.83-.5 1.2zm-6.483 1.2a1.38 1.38 0 0 1-.229.392.75.75 0 0 1-.572.257c-.275 0-.49-.11-.642-.333-.1-.132-.135-.28-.135-.444a.97.97 0 0 1 .097-.413l1.48-3.152c.143-.307.383-.46.718-.46s.584.158.732.475l1.495 3.176a.88.88 0 0 1 .09.378c0 .185-.06.35-.18.492a.75.75 0 0 1-.603.281.71.71 0 0 1-.503-.187c-.1-.092-.2-.246-.298-.46h-1.45zm-3.794-2.667h-.413a.86.86 0 0 1-.569-.187c-.16-.134-.24-.313-.24-.538 0-.134.038-.263.113-.387s.172-.212.29-.264.402-.078.848-.078h1.574c.386 0 .636.023.75.07.125.05.226.138.303.262s.116.254.116.4c0 .215-.086.402-.257.562-.122.113-.323.17-.6.17h-.357v2.358c0 .257-.044.455-.132.596a.71.71 0 0 1-.642.354c-.28 0-.495-.108-.645-.323-.095-.134-.142-.337-.142-.6v-2.376zm-4.175 1.49c.173 0 .358.076.555.23.245.192.413.288.503.288.134 0 .2-.07.2-.208 0-.076-.04-.14-.118-.194-.042-.028-.275-.117-.7-.267-.696-.245-1.044-.698-1.044-1.36 0-.5.184-.893.55-1.182.32-.252.72-.378 1.193-.378.41 0 .765.098 1.068.293s.454.447.454.754c0 .185-.057.34-.172.463a.58.58 0 0 1-.446.185c-.192 0-.405-.09-.638-.274-.146-.113-.255-.17-.33-.17-.127 0-.19.062-.19.187 0 .118.157.225.472.323.435.136.77.303 1.01.5.317.264.475.634.475 1.1 0 .518-.178.922-.534 1.214-.33.27-.76.406-1.3.406s-.968-.14-1.314-.423c-.277-.224-.416-.486-.416-.787 0-.2.068-.37.205-.503s.305-.202.506-.205" fill="#85c442"/></svg>