<?xml version="1.0" encoding="UTF-8" standalone="no"?>
<svg
   xmlns:dc="http://purl.org/dc/elements/1.1/"
   xmlns:cc="http://creativecommons.org/ns#"
   xmlns:rdf="http://www.w3.org/1999/02/22-rdf-syntax-ns#"
   xmlns:svg="http://www.w3.org/2000/svg"
   xmlns="http://www.w3.org/2000/svg"
   xmlns:sodipodi="http://sodipodi.sourceforge.net/DTD/sodipodi-0.dtd"
   xmlns:inkscape="http://www.inkscape.org/namespaces/inkscape"
   width="64"
   height="64"
   version="1.1"
   viewBox="0 0 60 59.999807"
   xml:space="preserve"
   id="svg23"
   sodipodi:docname="godutengine-icon.svg"
   inkscape:version="0.92.4 (5da689c313, 2019-01-14)"><sodipodi:namedview
     pagecolor="#ffffff"
     bordercolor="#666666"
     borderopacity="1"
     objecttolerance="10"
     gridtolerance="10"
     guidetolerance="10"
     inkscape:pageopacity="0"
     inkscape:pageshadow="2"
     inkscape:window-width="1920"
     inkscape:window-height="1001"
     id="namedview25"
     showgrid="false"
     inkscape:zoom="5.7457627"
     inkscape:cx="79.747035"
     inkscape:cy="41.735893"
     inkscape:window-x="-9"
     inkscape:window-y="-9"
     inkscape:window-maximized="1"
     inkscape:current-layer="svg23" /><metadata
     id="metadata2"><rdf:RDF><cc:Work
         rdf:about=""><dc:format>image/svg+xml</dc:format><dc:type
           rdf:resource="http://purl.org/dc/dcmitype/StillImage" /><dc:title></dc:title></cc:Work></rdf:RDF></metadata><defs
     id="defs7"><clipPath
       id="a"><path
         d="M 0,595.276 H 841.89 V 0 H 0 Z"
         id="path4"
         inkscape:connector-curvature="0" /></clipPath></defs><g
     id="g847"
     transform="matrix(1.6413083,0,0,1.6413083,-9.5169645,-16.161743)"><path
       style="fill:#ffffff;stroke-width:0.14497623"
       inkscape:connector-curvature="0"
       id="path11"
       d="m 40.118396,34.377435 c 0,0 -0.05329,-0.326965 -0.08445,-0.324022 l -5.933007,0.572439 c -0.472087,0.04558 -0.838731,0.422069 -0.871859,0.895141 l -0.162996,2.336147 -4.589948,0.327458 -0.312206,-2.117233 c -0.06953,-0.470941 -0.48077,-0.825944 -0.9568,-0.825944 h -6.261958 c -0.475855,0 -0.88711,0.355003 -0.95664,0.825944 l -0.31238,2.117233 -4.589948,-0.327458 -0.162997,-2.336147 c -0.03312,-0.473231 -0.399772,-0.84972 -0.871858,-0.895315 L 8.1154455,34.053399 c -0.030664,-0.003 -0.053128,0.324341 -0.083792,0.324341 l -0.00803,1.283938 5.0271965,0.810693 0.164635,2.357023 c 0.03329,0.477175 0.4183,0.863 0.895793,0.897273 l 6.321399,0.450934 c 0.02394,0.0016 0.04755,0.0026 0.07117,0.0026 0.475043,0 0.885631,-0.355177 0.955161,-0.826104 l 0.321224,-2.178558 h 4.592122 l 0.321224,2.178558 c 0.06936,0.470782 0.480451,0.825944 0.956147,0.825944 0.02329,0 0.04657,-8.69e-4 0.06936,-0.0025 l 6.322268,-0.450934 c 0.477334,-0.03427 0.862507,-0.420112 0.895794,-0.897273 l 0.164461,-2.357023 5.025021,-0.814303 z" /><path
       style="fill:#478cbf;stroke-width:0.10873217"
       inkscape:connector-curvature="0"
       id="path13"
       d="m 20.358498,10.888386 c -1.669909,0.371245 -3.321877,0.887972 -4.870658,1.667517 0.03542,1.367524 0.123824,2.677856 0.303048,4.008846 -0.601463,0.385347 -1.233567,0.716078 -1.795386,1.167131 -0.5708,0.439126 -1.153866,0.859387 -1.67067,1.372962 -1.032553,-0.682958 -2.125279,-1.324793 -3.2510915,-1.891397 -1.2135598,1.306091 -2.3483975,2.715804 -3.2753392,4.293181 0.6973864,1.128205 1.4254787,2.185626 2.2116123,3.189115 h 0.021874 v 9.681404 c 0.017709,1.08e-4 0.035547,9.78e-4 0.053092,0.0025 l 5.9352544,0.572116 c 0.310898,0.03001 0.554513,0.280312 0.57615,0.591873 l 0.183062,2.62001 5.177282,0.369516 0.356565,-2.418204 c 0.04624,-0.313518 0.315302,-0.545781 0.63243,-0.545781 h 6.261886 c 0.316965,0 0.585979,0.232263 0.632212,0.545781 l 0.356566,2.418204 5.177499,-0.369516 0.182844,-2.62001 c 0.02181,-0.311551 0.265253,-0.5617 0.57615,-0.591873 l 5.932863,-0.572116 c 0.01754,-0.0016 0.03517,-0.0024 0.05288,-0.0025 v -0.772597 l 0.0025,-8.7e-4 v -8.907991 h 0.02187 c 0.786264,-1.003533 1.513878,-2.061019 2.211612,-3.189115 -0.926626,-1.577486 -2.061996,-2.987199 -3.275556,-4.293181 -1.125487,0.566538 -2.218789,1.208341 -3.251309,1.891396 -0.516685,-0.513575 -1.09863,-0.933824 -1.670235,-1.372961 -0.561624,-0.451097 -1.194641,-0.781828 -1.794951,-1.167131 0.178734,-1.330991 0.267253,-2.641322 0.302841,-4.008846 -1.54889,-0.779545 -3.200749,-1.296305 -4.871528,-1.667517 -0.66705,1.121137 -1.277059,2.335023 -1.808324,3.521944 -0.629994,-0.105274 -1.262924,-0.144299 -1.896616,-0.151845 v -8.48e-4 c -0.0044,0 -0.0085,8.48e-4 -0.01232,8.48e-4 -0.0039,0 -0.0082,-8.48e-4 -0.0121,-8.48e-4 v 8.48e-4 c -0.63492,0.0075 -1.267382,0.04657 -1.897485,0.151845 -0.53095,-1.186812 -1.140492,-2.400807 -1.808542,-3.521944 z M 8.0217458,35.657575 c 0.00247,0.573584 0.00977,1.201925 0.00977,1.327076 0,5.636458 7.1502282,8.345629 16.0336462,8.376835 h 0.02187 c 8.883527,-0.03116 16.031471,-2.740377 16.031471,-8.376835 0,-0.127413 0.0078,-0.753166 0.01041,-1.327076 l -5.334836,0.514564 -0.183909,2.634037 c -0.02214,0.317454 -0.274625,0.570137 -0.592079,0.592927 l -6.322233,0.451065 c -0.01541,0.0012 -0.03083,0.0017 -0.04608,0.0017 -0.314182,0 -0.585175,-0.230719 -0.631582,-0.546205 l -0.362513,-2.458544 h -5.15858 l -0.362515,2.458544 c -0.0487,0.330904 -0.344463,0.568941 -0.677662,0.544509 L 14.134689,39.399103 C 13.817235,39.376312 13.564748,39.12363 13.54261,38.806176 l -0.183703,-2.634037 -5.33701,-0.514564 z" /><path
       style="fill:#ffffff;stroke-width:0.10873217"
       inkscape:connector-curvature="0"
       id="path15"
       d="m 15.662682,25.050752 c -1.974577,0 -3.57631,1.600102 -3.57631,3.575005 0,1.976207 1.601625,3.57707 3.57631,3.57707 1.975554,0 3.576853,-1.600863 3.576853,-3.57707 0,-1.974903 -1.601299,-3.575005 -3.576853,-3.575005 z m 16.82739,0 c -1.975881,0 -3.577071,1.600102 -3.577071,3.575005 0,1.976207 1.60119,3.57707 3.577071,3.57707 1.974468,0 3.575875,-1.600863 3.575875,-3.57707 0,-1.974903 -1.601407,-3.575005 -3.575875,-3.575005 z m -8.414456,2.092006 c -0.635899,0 -1.151256,0.469136 -1.151256,1.04633 v 3.292736 c 0,0.577684 0.515347,1.04633 1.151256,1.04633 0.635909,0 1.152561,-0.468646 1.152561,-1.04633 v -3.292736 c 0,-0.577194 -0.516619,-1.04633 -1.152561,-1.04633 z" /><path
       style="fill:#414042;stroke-width:0.10873217"
       inkscape:connector-curvature="0"
       id="path17"
       d="m 16.004862,26.46427 c -1.311201,0 -2.374058,1.063444 -2.374058,2.374275 0,1.310832 1.0629,2.373189 2.374058,2.373189 1.311853,0 2.374275,-1.062379 2.374275,-2.373189 0,-1.310809 -1.062465,-2.374275 -2.374275,-2.374275 z m 16.142378,0 c -1.310875,0 -2.372971,1.063444 -2.372971,2.374275 0,1.310832 1.062172,2.373189 2.372971,2.373189 1.31218,0 2.374058,-1.062379 2.374058,-2.373189 0,-1.310809 -1.061922,-2.374275 -2.374058,-2.374275 z" /></g></svg>