<?xml version="1.0" encoding="UTF-8" standalone="no"?>
<svg
   xmlns:dc="http://purl.org/dc/elements/1.1/"
   xmlns:cc="http://creativecommons.org/ns#"
   xmlns:rdf="http://www.w3.org/1999/02/22-rdf-syntax-ns#"
   xmlns:svg="http://www.w3.org/2000/svg"
   xmlns="http://www.w3.org/2000/svg"
   xmlns:sodipodi="http://sodipodi.sourceforge.net/DTD/sodipodi-0.dtd"
   xmlns:inkscape="http://www.inkscape.org/namespaces/inkscape"
   viewBox="0 0 120 60"
   version="1.1"
   id="svg4"
   sodipodi:docname="postcss-ar21.svg"
   width="120"
   height="60"
   inkscape:version="0.92.3 (2405546, 2018-03-11)">
  <metadata
     id="metadata10">
    <rdf:RDF>
      <cc:Work
         rdf:about="">
        <dc:format>image/svg+xml</dc:format>
        <dc:type
           rdf:resource="http://purl.org/dc/dcmitype/StillImage" />
        <dc:title></dc:title>
      </cc:Work>
    </rdf:RDF>
  </metadata>
  <defs
     id="defs8" />
  <sodipodi:namedview
     pagecolor="#ffffff"
     bordercolor="#666666"
     borderopacity="1"
     objecttolerance="10"
     gridtolerance="10"
     guidetolerance="10"
     inkscape:pageopacity="0"
     inkscape:pageshadow="2"
     inkscape:window-width="1920"
     inkscape:window-height="1001"
     id="namedview6"
     showgrid="false"
     inkscape:zoom="3.596817"
     inkscape:cx="109.65411"
     inkscape:cy="49.34932"
     inkscape:window-x="-9"
     inkscape:window-y="-9"
     inkscape:window-maximized="1"
     inkscape:current-layer="svg4" />
  <path
     d="m 110,34.815952 q 0,1.803335 -0.91575,2.761357 -0.90167,0.958022 -2.62048,0.958022 -1.69062,0 -2.87406,-0.662162 v -2.366878 q 1.45112,0.943933 2.66273,0.943933 0.69034,0 1.02847,-0.380391 0.35221,-0.380391 0.35221,-1.028464 0,-0.648074 -0.40856,-1.169351 -0.42266,-0.549453 -1.36659,-1.197527 -0.83123,-0.563542 -1.26797,-1.084819 -0.42266,-0.535365 -0.66217,-1.183439 -0.22541,-0.662162 -0.22541,-1.521564 0,-1.648361 0.91575,-2.620472 0.92985,-0.97211 2.47959,-0.97211 1.4793,0 2.84589,0.831225 l -0.78896,1.916043 q -0.42266,-0.239505 -0.90167,-0.436745 -0.45083,-0.19724 -0.9862,-0.19724 -0.57763,0 -0.88758,0.39448 -0.30995,0.380391 -0.30995,1.028465 0,0.662162 0.36631,1.141173 0.38039,0.493099 1.31023,1.098907 1.26797,0.845314 1.76107,1.732893 Q 110,33.674779 110,34.815952 Z m -7.46693,0 q 0,1.803335 -0.91576,2.761357 -0.91576,0.958022 -2.634561,0.958022 -1.67654,0 -2.859979,-0.662162 v -2.366878 q 1.451119,0.943933 2.648649,0.943933 0.69034,0 1.02847,-0.380391 0.352211,-0.380391 0.352211,-1.028464 0,-0.648074 -0.408571,-1.169351 -0.40857,-0.549453 -1.36659,-1.197527 -0.83122,-0.563542 -1.253879,-1.084819 -0.42266,-0.535365 -0.66216,-1.183439 -0.23951,-0.662162 -0.23951,-1.521564 0,-1.648361 0.92985,-2.620472 0.915749,-0.97211 2.465489,-0.97211 1.479301,0 2.845891,0.831225 l -0.78896,1.916043 q -0.42265,-0.239505 -0.88758,-0.436745 -0.46492,-0.19724 -0.986191,-0.19724 -0.57764,0 -0.90167,0.39448 -0.30995,0.380391 -0.30995,1.028465 0,0.662162 0.3663,1.141173 0.38039,0.493099 1.324331,1.098907 1.25388,0.845314 1.74698,1.732893 0.50719,0.873491 0.50719,2.014664 z m -9.94653,-7.42467 q -1.04255,0 -1.63427,1.211616 -0.59172,1.197527 -0.59172,3.353076 0,4.480162 2.3387,4.480162 1.01438,0 2.14146,-0.662162 v 2.14146 q -0.94393,0.619897 -2.42323,0.619897 -2.16964,0 -3.33899,-1.718804 -1.169347,-1.746981 -1.169347,-4.874641 0,-3.141748 1.197527,-4.902818 1.21162,-1.746981 3.35308,-1.746981 0.70442,0 1.33841,0.197239 0.66216,0.183152 1.39477,0.676251 l -0.78896,1.944221 q -0.39448,-0.267682 -0.84532,-0.493099 -0.45083,-0.225417 -0.97211,-0.225417 z m -6.861124,9.157562 q 0.4931,0 1.070731,-0.239505 v 1.831512 q -0.577631,0.39448 -1.718804,0.39448 -1.282059,0 -1.901956,-0.760782 -0.619896,-0.760782 -0.619896,-2.282347 v -5.085969 h -0.943934 v -1.056642 l 1.225705,-0.845313 0.591719,-2.071018 h 1.507476 v 2.113283 h 1.775158 v 1.85969 h -1.775158 v 5.156412 q 0,0.986199 0.788959,0.986199 z M 80.80851,35.492202 q 0,1.437033 -0.845314,2.240081 -0.831225,0.803048 -2.465498,0.803048 -1.46521,0 -2.409143,-0.563542 v -2.042841 q 0.479011,0.338125 1.127085,0.549454 0.648073,0.225416 1.141173,0.225416 0.549454,0 0.831225,-0.267682 0.295859,-0.267683 0.295859,-0.704428 0,-0.450834 -0.309948,-0.788959 -0.29586,-0.338126 -1.098907,-0.817137 -1.070731,-0.633985 -1.535653,-1.352501 -0.450834,-0.718517 -0.450834,-1.704716 0,-1.253881 0.845313,-1.972398 0.873491,-0.732605 2.366878,-0.732605 1.310236,0 2.465498,0.676251 l -0.774871,1.690627 q -0.943933,-0.507188 -1.648361,-0.507188 -0.450834,0 -0.690339,0.239505 -0.211329,0.225417 -0.211329,0.577631 0,0.39448 0.267683,0.704428 0.281771,0.309948 1.042553,0.760782 0.915756,0.563543 1.282059,0.943934 0.380391,0.394479 0.577631,0.887579 0.19724,0.493099 0.19724,1.155261 z m -6.917482,-2.056929 q 0,2.409143 -1.014377,3.761645 -1.028464,1.338413 -2.803623,1.338413 -1.127084,0 -2.000575,-0.619897 -0.859402,-0.605808 -1.324324,-1.761069 -0.464923,-1.169351 -0.464923,-2.719092 0,-2.395055 1.014377,-3.733468 1.014376,-1.338413 2.803623,-1.338413 1.746981,0 2.761357,1.36659 1.028465,1.36659 1.028465,3.705291 z m -5.212767,0 q 0,1.535653 0.338126,2.310524 0.338125,0.788959 1.07073,0.788959 1.408856,0 1.408856,-3.099483 0,-1.549741 -0.338126,-2.296435 -0.338125,-0.774871 -1.07073,-0.774871 -0.732605,0 -1.07073,0.774871 -0.338126,0.746694 -0.338126,2.296435 z m -3.522139,-3.987062 q 0,2.042841 -1.042554,3.155837 -1.028464,1.084819 -2.986774,1.084819 h -0.605808 v 4.677401 h -2.395055 v -12.89103 h 3.268546 q 3.761645,0 3.761645,3.972973 z m -4.635136,2.15555 h 0.464923 q 0.87349,0 1.310236,-0.479011 0.436745,-0.479011 0.436745,-1.592007 0,-1.000288 -0.39448,-1.493388 -0.408568,-0.493099 -1.225704,-0.493099 h -0.59172 z M 30.427827,9.1747765 h -0.211329 c -0.408568,0.014089 -0.817136,0.056354 -1.225704,0.1127084 -0.39448,0.042266 -0.788959,0.1127085 -1.16935,0.1690627 -0.464923,0.056354 -0.929845,0.084531 -1.394768,0.1408856 -0.436745,0.056354 -0.887579,0.1408856 -1.324324,0.2113284 -0.154974,0.028177 -0.309948,0.084531 -0.464923,0.1127084 -0.338125,0.070443 -0.690339,0.09862 -1.028464,0.211328 -0.605808,0.183152 -1.211616,0.39448 -1.803336,0.619897 -0.549453,0.225417 -1.08341,0.464922 -1.604686,0.746693 -0.535366,0.29586 -1.042554,0.648074 -1.549742,0.9862 -0.479011,0.324036 -0.958022,0.662162 -1.422944,1.028464 -0.450834,0.352214 -0.873491,0.746694 -1.282059,1.141173 -0.225417,0.225417 -0.408568,0.4931 -0.619896,0.746694 -0.352214,0.408568 -0.704428,0.803048 -1.042554,1.225705 -0.281771,0.352213 -0.535365,0.718516 -0.803047,1.084818 -0.479011,0.648074 -0.88758,1.338413 -1.267971,2.028753 -0.154974,0.281771 -0.294451,0.563542 -0.435336,0.845313 -0.211329,0.422657 -0.436745,0.831225 -0.633985,1.26797 -0.140886,0.29586 -0.255003,0.619897 -0.339534,0.943934 -0.19724,0.690339 -0.393071,1.394767 -0.576222,2.085106 -0.169063,0.619897 -0.211329,1.267971 -0.225417,1.901956 -0.01409,0.563542 0.04086,1.112996 0.09721,1.676538 0.01409,0.140886 -0.07044,0.309948 0.09862,0.422657 0.01409,0 0,0.05635 -0.01409,0.07044 -0.04227,0.08453 0,0.169062 0.08453,0.197239 0,0 0.0155,0.01409 0.0155,0.02818 h -0.07044 c -0.04227,0.126797 0.09721,0.225417 0.04086,0.366302 -0.01409,0.02818 0.04227,0.08453 0.07044,0.126797 0,0.04227 -0.01409,0.09862 0,0.140886 0.01409,0.126797 0.07044,0.253594 0.07044,0.394479 0,0.09862 0.08594,0.211329 0.114118,0.309949 0.01409,0.04227 0,0.112708 -0.02959,0.140885 -0.08453,0.09862 -0.07044,0.183151 0.05635,0.239506 0.02818,0.01409 0.07044,0.07044 0.07044,0.09862 0,0.08453 -0.02677,0.169062 -0.04086,0.253594 0.02818,0.02818 0.04086,0.05635 0.02677,0.08453 0,0.04227 -0.04086,0.08453 -0.02677,0.112708 0.112708,0.225417 0.153565,0.479011 0.167654,0.732605 0,0.05635 0.02959,0.112709 0.05776,0.183152 0.01409,0 0.05495,0 0.08312,0.01409 l -0.08312,0.253594 c 0.07044,-0.04227 0.126797,-0.05635 0.19724,-0.08453 0.04227,0.183151 0.08453,0.352214 0.140885,0.507188 0.01409,0.02818 0.04227,0.05635 0.08453,0.08453 -0.01409,0.02818 -0.0155,0.08453 -0.04368,0.09862 0.05635,0.253594 0.08594,0.4931 0.18456,0.732605 0.01409,0 0.02677,-0.01409 0.04086,-0.01409 -0.04227,-0.253594 -0.06903,-0.521277 -0.1113,-0.774871 v -0.08453 c 0,0 0.02677,-0.01409 0.04086,-0.01409 0.01409,0.05635 0.04227,0.126797 0.04227,0.169063 0.112708,0 0.28318,0.07044 0.395888,0.07044 0.01409,-0.04227 0.02677,-0.09862 0.04086,-0.126797 -0.08453,-0.08453 -0.153565,-0.211329 -0.238097,-0.29586 0.02818,0.112708 0,0.154974 0,0.19724 -0.05635,-0.02818 -0.128205,-0.05635 -0.198648,-0.08453 0.05635,-0.07044 0.114117,-0.140885 0.198648,-0.225417 0,-0.126797 -0.07185,-0.239505 -0.269091,-0.225417 0.08453,-0.02818 0.170472,-0.07044 0.269091,-0.09862 0.01409,0.04227 0.02677,0.08453 0.04086,0.112708 0.112709,-0.19724 -0.05495,-0.352214 -0.05495,-0.549454 0.01409,-0.239505 -0.128206,-0.479011 -0.170472,-0.732605 -0.07044,-0.394479 -0.05495,-0.986199 -0.09721,-1.380678 0,-0.02818 -0.04227,-0.05635 -0.07044,-0.08453 -0.01409,0.01409 -0.08594,0.19724 -0.100029,0.211329 0.04227,0.338125 0.08453,0.67625 0.112708,1.014376 -0.01409,0 -0.02677,0 -0.02677,0.01409 -0.05635,-0.295859 -0.114117,-0.605808 -0.18456,-0.943933 -0.01409,0.09862 -0.02677,0.140886 -0.02677,0.19724 -0.04227,-0.01409 -0.05635,-0.02818 -0.126797,-0.05635 0.05635,0.126797 0.111299,0.211328 0.153565,0.309948 -0.09862,-0.04227 -0.211328,-0.02818 -0.211328,-0.02818 v 0.394479 c -0.140886,-0.140885 -0.183152,-0.253594 -0.253595,-0.352214 -0.02818,-0.112708 -0.04227,-0.225417 -0.07044,-0.338125 l 0.04227,-0.01409 c -0.01409,-0.05635 -0.04227,-0.09862 -0.04227,-0.140885 -0.01409,-0.09862 -0.02677,-0.211329 -0.04086,-0.338126 0.01409,-0.01409 0.06903,-0.02818 0.09721,-0.05635 l -0.1113,-0.169062 c 0.112709,0.01409 0.181743,0.02818 0.252185,0.02818 0,-0.02818 0.01409,-0.04227 0,-0.05635 -0.140885,-0.126797 -0.04227,-0.239505 0.01409,-0.352214 0.02818,-0.05635 0.128206,-0.07044 0.156383,-0.126797 0.112709,-0.211328 0.29586,-0.380391 0.29586,-0.648073 0,-0.126797 0.04226,-0.267683 0.05635,-0.39448 0.02818,-0.239505 0.05635,-0.479011 0.07044,-0.718516 0.02818,-0.309949 0,-0.619897 0.07044,-0.915757 0.112708,-0.493099 0.252185,-0.986199 0.407159,-1.479298 0.112708,-0.352214 0.240914,-0.690339 0.3818,-1.042553 0.211328,-0.549454 0.407159,-1.098908 0.674842,-1.620185 0.380391,-0.760782 0.817136,-1.493387 1.239793,-2.24008 0.267682,-0.464923 0.549454,-0.901668 0.845313,-1.352502 0.281771,-0.436745 0.564951,-0.887579 0.888988,-1.296147 0.450834,-0.577631 0.943934,-1.112996 1.493387,-1.592007 0.563543,-0.507188 1.097499,-1.028465 1.703307,-1.493387 0.788959,-0.605808 1.621593,-1.141173 2.506354,-1.606096 0.718517,-0.380391 1.465211,-0.676251 2.211904,-0.958022 0.479011,-0.183151 1.000288,-0.267682 1.493387,-0.422657 0.563543,-0.183151 1.127085,-0.267682 1.718804,-0.281771 0.380391,-0.01409 0.746694,-0.05635 1.127085,-0.09862 0.338125,-0.02818 0.676251,-0.05635 1.042553,-0.09862 -0.04227,0.05635 -0.05635,0.08453 -0.07044,0.112709 -0.154974,0.225417 -0.324036,0.450834 -0.479011,0.67625 -0.126797,0.183152 -0.267682,0.380392 -0.394479,0.563543 -0.225417,0.29586 -0.464923,0.591719 -0.676251,0.901668 -0.324037,0.464922 -0.619897,0.943933 -0.958022,1.408855 -0.338125,0.450834 -0.704428,0.873491 -1.056642,1.310236 -0.464922,0.605808 -0.901667,1.225705 -1.36659,1.831513 -0.422657,0.577631 -0.87349,1.127084 -1.282059,1.704715 -0.366302,0.507188 -0.690339,1.042553 -1.042553,1.56383 -0.521277,0.774871 -1.041144,1.535653 -1.562421,2.310524 -0.408568,0.591719 -0.815727,1.16935 -1.238384,1.76107 -0.02818,0.04226 -0.07185,0.05635 -0.114118,0.08453 -0.02818,0.02818 -0.08312,0.05635 -0.08312,0.08453 -0.02818,0.09862 -0.02818,0.19724 -0.07044,0.281771 -0.112708,0.211329 -0.225417,0.422657 -0.352214,0.619897 -0.07044,0.112708 -0.170471,0.211328 -0.255003,0.324037 -0.02818,-0.01409 -0.04227,-0.02818 -0.07044,-0.02818 0.05635,-0.140886 0.297268,-0.225417 0.18456,-0.436746 -0.07044,0.112709 -0.140886,0.211329 -0.211329,0.324037 l -0.170471,0.338126 c 0.05495,0.04227 0.145112,0.07044 0.06622,0.154974 -0.01409,-0.04227 -0.06058,-0.05635 -0.09439,-0.08453 -0.112709,0.154975 -0.225417,0.324037 -0.338126,0.507188 0.08453,0.07044 0.128206,0.04227 0.18456,-0.05635 0.04508,-0.08453 0.108482,-0.154974 0.169063,-0.239505 -0.01972,0.04226 -0.03804,0.07044 -0.05776,0.09862 0.01409,0 0.0155,0.01409 0.02959,0.01409 0.04227,-0.05635 0.08453,-0.09862 0.126797,-0.154974 0.01409,0 0.02677,0.01409 0.04086,0.01409 -0.04227,0.140885 -0.126797,0.267682 -0.19724,0.394479 -0.05635,0.112709 -0.19724,0.19724 -0.29586,0.281771 0.01409,0.01409 0.112709,0.05635 0.126797,0.07044 0.04227,-0.05635 0.05635,-0.02818 0.09862,-0.08453 0.02818,0.04227 0.07185,-0.02818 0.08594,0.01409 0.04227,-0.05635 0.08312,-0.09862 0.09721,-0.140885 0.05635,-0.140886 0.140886,-0.253594 0.281772,-0.309948 0.05635,-0.02818 0.09862,-0.07044 0.140885,-0.112709 0.422657,-0.436745 0.860811,-0.859402 1.241202,-1.324324 0.59172,-0.718517 1.127085,-1.46521 1.687809,-2.197815 0.239506,-0.309949 0.521277,-0.619897 0.774871,-0.915757 0.02818,0.01409 0.05635,0.01409 0.07044,0.02818 -0.02818,0.29586 -0.05635,0.605808 -0.07044,0.901668 -0.04227,0.521277 -0.07044,1.042553 -0.112708,1.577919 -0.01409,0.211328 0,0.422656 -0.01409,0.633985 0,0.05635 -0.04227,0.09862 -0.04227,0.154974 0,0.140885 0.04227,0.29586 0.04227,0.436745 -0.04227,0.521277 -0.09862,1.028465 -0.140886,1.549742 -0.01409,0.112708 0.04227,0.225417 0.07044,0.324036 -0.01409,-0.01409 -0.02818,-0.02818 -0.07044,-0.05635 0,0.817137 0.154975,1.620184 0.02818,2.423232 0.05635,-0.01409 0.08453,-0.02818 0.08453,-0.05635 0.01409,-0.09862 0.04227,-0.19724 0.04227,-0.29586 0.01409,-0.08453 0,-0.169063 0,-0.267682 v -0.140886 c 0.01409,-0.253594 0.07044,-0.521277 0.04227,-0.774871 -0.02818,-0.281771 -0.02818,-0.549453 0.02818,-0.817136 0.02818,-0.112708 -0.01409,-0.253594 0.05636,-0.39448 v 0.211329 c -0.01409,0.803048 0.01409,1.606095 -0.09862,2.409143 -0.01409,0.07044 0.04227,0.19724 -0.112709,0.183151 -0.01409,0 -0.02818,0.07044 -0.05635,0.112709 -0.07044,0.140885 0.08453,0.324037 -0.05635,0.464922 -0.02818,0.02818 0.02818,0.154974 0.04227,0.239506 0,0.02818 0.01409,0.05635 0,0.07044 -0.05635,0.09862 -0.05635,0.09862 0.02818,0.112709 0.01409,0.309948 0.04227,0.591719 0.05635,0.887579 h 0.04227 c 0.183152,-0.535365 0.07044,-1.084819 0.169063,-1.634273 0.01409,0.225417 0.02818,0.450834 0.01409,0.69034 0,0.366302 -0.01409,0.718516 -0.02818,1.084819 0,0.07044 -0.01409,0.140885 -0.02818,0.211328 -0.04227,0.19724 -0.05635,0.39448 -0.126797,0.577631 -0.05635,0.140885 -0.02818,0.352214 -0.02818,0.521277 v 0.535365 c 0,0.01409 0.04227,0.05635 0.04227,0.112708 0.01409,0.126797 -0.05635,0.253594 -0.01409,0.39448 0.01409,0.02818 -0.01409,0.07044 -0.02818,0.09862 -0.01409,0.04227 -0.02818,0.08453 -0.01409,0.126797 l 0.04227,0.211328 c 0,0.01409 0.01409,0.02818 0.02818,0.05635 0.01409,-0.05635 0.01409,-0.09862 0.01409,-0.112708 0.239506,0.02818 0.112709,0.239505 0.225417,0.352214 -0.05635,0.02818 -0.09862,0.04227 -0.09862,0.05635 0.01409,0.05635 0.04227,0.09862 0.04227,0.154974 0,0.126797 -0.01409,0.239506 -0.02818,0.366303 0,0.324037 -0.01409,0.648073 -0.01409,0.958022 0,0.04227 0.01409,0.08453 0.01409,0.126797 0,0.02818 -0.01409,0.05635 -0.01409,0.09862 v 0.295859 h 0.05635 c -0.02818,0.04227 -0.05635,0.08453 -0.09862,0.126797 -0.01409,0 -0.05635,0 -0.05635,-0.01409 v -1.775171 h -0.211328 c -0.02818,0.845314 0.04227,1.606096 -0.112709,2.395055 -0.169062,0.01409 -0.225417,0.04227 -0.408568,0.04227 -0.435336,0 -0.870673,0 -1.307418,0.01409 -0.521277,0 -1.028465,0.01409 -1.549741,0.01409 -0.253594,0 -0.521277,0.02818 -0.774871,0.02818 -0.338125,0 -0.691748,-0.04227 -1.029874,-0.04227 -0.521276,0 -1.028464,0.04227 -1.549741,0.05635 -0.380391,0.01409 -0.759373,0.01409 -1.139764,0.02818 -0.253594,0.01409 -0.508597,0.02818 -0.762191,0.05635 -0.112709,0.01409 -0.211329,0.05635 -0.352214,0.09862 -0.04227,0 -0.139477,-0.01409 -0.224008,0 -0.140886,0.02818 -0.269092,0.112708 -0.409977,0.140886 -0.211329,0.04227 -0.266274,0.09862 -0.238097,0.309948 v 0.140885 c -0.02818,-0.02818 -0.07185,-0.05635 -0.100029,-0.07044 -0.01409,0 -0.02677,0.01409 -0.02677,0.01409 0.01409,0.04227 0.04227,0.07044 0.05635,0.112709 0.05635,-0.02818 0.125388,-0.09862 0.181743,-0.09862 h 0.19724 c -0.02818,0 -0.04086,0.08453 -0.08312,0.154974 0.112708,-0.04227 0.181742,-0.07044 0.252185,-0.09862 0.01409,0.04227 0.0155,0.09862 0.0155,0.112708 0.197239,-0.01409 0.378982,-0.07044 0.548045,-0.02818 0.549453,0.140886 1.112996,0.19724 1.676538,0.253594 0.366302,0.02818 0.719925,0.04227 1.086228,0.05635 0.521276,0.02818 1.042553,0.05635 1.56383,0.05635 0.436745,0 0.857993,-0.04227 1.294738,-0.04227 0.605808,0 1.211616,0.02818 1.817424,0.04227 0.126797,0 0.269092,-0.01409 0.409977,-0.01409 h 1.025647 c 0.915756,-0.02818 1.831513,-0.04227 2.747269,-0.07044 0.521277,-0.01409 1.056642,-0.04227 1.577918,-0.05635 l 1.606096,-0.04227 c 0.619896,-0.01409 1.239793,-0.01409 1.845601,-0.02818 0.464922,0 0.915756,-0.01409 1.380679,-0.02818 0.521276,-0.01409 1.056642,-0.05635 1.577918,-0.08453 0.281771,-0.01409 0.563542,-0.04227 0.845314,-0.07044 0.338125,-0.02818 0.690339,-0.07044 1.028464,-0.08453 0.507188,-0.02818 1.028465,-0.04227 1.535653,-0.07044 0.633985,-0.04227 1.26797,-0.09862 1.916044,-0.112708 0.591719,-0.02818 1.197527,-0.01409 1.789247,-0.02818 0.521276,-0.01409 1.042553,-0.04227 1.577918,-0.05635 l 0.887579,-0.04227 c 0,0 0.59172,-0.01409 0.88758,-0.04227 0.507188,-0.02818 1.014376,-0.08453 1.521564,-0.09862 0.324037,-0.01409 0.648074,0 0.97211,-0.01409 0.521277,-0.01409 1.056642,-0.04226 1.577919,-0.04226 0.19724,0 0.408568,0.02818 0.662162,0.04226 -0.112708,0.09862 -0.183151,0.154975 -0.267683,0.225417 0.05635,0.01409 0.112709,0.04227 0.169063,0.07044 0,0.01409 -0.01409,0.02818 -0.01409,0.05635 -0.07044,0 -0.140886,0.01409 -0.211329,0.01409 -0.02818,0.07044 -0.05635,0.09862 -0.08453,0.239505 h 0.253594 c -0.09862,0 -0.183151,0.126797 -0.281771,0.211329 0.01409,0.01409 0.02818,0.01409 0.04227,0.02818 -0.154974,-0.05635 -0.253594,-0.02818 -0.309948,0.126797 0.04227,0.01409 0.07044,0.01409 0.112709,0.01409 -0.01409,0.04227 -0.02818,0.08453 -0.04227,0.140885 -0.01409,0.02818 -0.02818,0.05635 -0.02818,0.09862 l -0.04227,-0.04227 c 0,-0.02818 0,-0.05635 -0.01409,-0.08453 -0.08453,0.08453 -0.211329,0.140886 -0.140886,0.324037 -0.05635,0.02818 -0.126797,0.05635 -0.19724,0.09862 0.01409,0.02818 0.04227,0.05635 0.05635,0.09862 -0.126797,0.01409 -0.253594,0.04226 -0.225416,0.197239 0.05635,0.01409 0.112708,0.04227 0.154974,0.05635 -0.07044,0.02818 -0.140886,0.07044 -0.211329,0.09862 -0.01409,0.02818 -0.02818,0.09862 -0.05635,0.112708 -0.19724,0.04227 -0.08453,0.112708 -0.02818,0.183151 -0.04227,0.02818 -0.08453,0.05635 -0.126797,0.07044 0.04227,0.01409 0.07044,0.02818 0.09862,0.05635 -0.04227,0.02818 -0.07044,0.04227 -0.09862,0.05635 0.02818,0.01409 0.07044,0.04227 0.08453,0.04227 -0.04227,0.02818 -0.08453,0.07044 -0.140885,0.112709 0,-0.01409 0.01409,-0.02818 0.01409,-0.04227 h -0.05635 c 0,0.02818 0,0.05635 0.01409,0.07044 -0.01409,0.01409 -0.02818,0.01409 -0.04227,0.02818 0,0.02818 0,0.04227 0.01409,0.07044 -0.05635,0.05635 -0.112708,0.112708 -0.169062,0.197239 -0.05635,0.08453 -0.08453,0.19724 -0.154974,0.281772 -0.29586,0.324036 -0.507188,0.704428 -0.88758,0.958022 -0.140885,0.09862 -0.267682,0.225417 -0.394479,0.352214 -0.253594,0.239505 -0.479011,0.507188 -0.746694,0.732605 -0.352214,0.295859 -0.718516,0.563542 -1.098907,0.831224 -0.464923,0.324037 -0.929845,0.648074 -1.394767,0.958022 -0.253594,0.169063 -0.535366,0.29586 -0.803048,0.450834 -0.267683,0.154974 -0.521277,0.29586 -0.788959,0.450834 -0.169063,0.112709 -0.324037,0.267683 -0.507189,0.352214 -0.464922,0.19724 -0.958021,0.366303 -1.437032,0.549454 -0.04227,0.01409 -0.07044,0.02818 -0.112709,0.04227 -0.352214,0.154975 -0.690339,0.324037 -1.042553,0.450834 -0.324037,0.112709 -0.662162,0.19724 -1.000288,0.267683 -0.112708,0.02818 -0.239505,0 -0.366302,0.01409 -0.239506,0.04227 -0.479011,0.09862 -0.718517,0.126797 -0.619896,0.08453 -1.239793,0.140886 -1.859689,0.225417 -0.366303,0.04227 -0.718517,0.112709 -1.084819,0.154975 -0.253594,0.01409 -0.521277,-0.01409 -0.774871,-0.01409 -0.183151,0 -0.380391,0.04227 -0.563542,0.01409 -0.29586,-0.04227 -0.59172,-0.112709 -0.887579,-0.169063 -0.07044,-0.01409 -0.169063,-0.04227 -0.225417,-0.01409 -0.112709,0.05636 -0.211329,-0.02818 -0.324037,0 -0.07044,0.01409 -0.140886,-0.04226 -0.211329,-0.04226 -0.05635,-0.01409 -0.126797,0.01409 -0.197239,0 -0.154975,-0.04227 -0.29586,-0.09862 -0.464923,-0.08453 -0.169063,0.01409 -0.338125,-0.07044 -0.521276,-0.112708 -0.253594,-0.05635 -0.4931,-0.112709 -0.746694,-0.169063 -0.09862,-0.02818 -0.183151,-0.07044 -0.281771,-0.126797 -0.02818,0.01409 -0.07044,0.04227 -0.126797,0.04227 -0.239506,-0.04227 -0.479011,-0.05635 -0.704428,-0.140886 -0.19724,-0.07044 -0.380391,-0.169063 -0.59172,-0.140885 -0.05635,0.01409 -0.09862,-0.01409 -0.154974,-0.01409 -0.04227,-0.05635 -0.08453,-0.169063 -0.126797,-0.169063 -0.281771,0.01409 -0.450834,-0.225417 -0.690339,-0.295859 -0.126797,-0.04227 -0.225417,-0.183152 -0.352214,-0.225417 -0.309948,-0.126797 -0.563542,-0.39448 -0.915756,-0.436746 -0.112709,-0.01409 -0.225417,-0.07044 -0.352214,-0.112708 0.04227,0.05635 0.07044,0.09862 0.112708,0.140886 l -0.02818,0.02818 c -0.380391,-0.225417 -0.760782,-0.450834 -1.141173,-0.662163 -0.05635,-0.01409 -0.09862,-0.07044 -0.140886,-0.09862 L 20.72365,45.847277 c -0.04227,-0.02818 -0.128206,-0.07044 -0.128206,-0.05635 -0.08453,0.09862 -0.167654,0.01409 -0.224008,-0.01409 -0.380391,-0.267683 -0.818545,-0.436746 -1.184848,-0.732605 -0.154974,-0.126797 -0.336716,-0.211329 -0.449425,-0.366303 -0.197239,-0.239505 -0.436745,-0.408568 -0.704427,-0.549454 -0.211329,-0.112708 -0.409977,-0.239505 -0.607217,-0.366302 -0.09862,-0.07044 -0.19724,-0.154974 -0.19724,-0.309948 0,-0.09862 -0.04086,-0.19724 -0.167654,-0.140886 -0.05635,-0.08453 -0.114117,-0.183151 -0.18456,-0.211328 -0.169063,-0.07044 -0.281771,-0.19724 -0.408568,-0.309949 -0.126797,-0.112708 -0.225417,-0.267682 -0.380391,-0.324036 -0.281771,-0.112709 -0.450834,-0.352214 -0.619897,-0.549454 -0.394479,-0.464923 -0.746693,-0.972111 -1.112996,-1.46521 -0.02818,-0.04227 -0.08312,-0.07044 -0.125388,-0.112709 l -0.0155,0.01409 c 0.07044,0.140886 0.140885,0.267683 0.211328,0.408568 -0.01409,0.01409 -0.04086,0.02818 -0.05495,0.04227 -0.08453,-0.09862 -0.183152,-0.19724 -0.267683,-0.29586 -0.01409,0.01409 -0.02959,0.02818 -0.04368,0.02818 l 1.015785,1.606096 c 0.08453,0.126797 0.153566,0.253594 0.238097,0.380391 -0.01409,0.01409 -0.02818,0.02818 -0.05635,0.04227 -0.154974,-0.02818 -0.29586,-0.140886 -0.366303,-0.267683 -0.126797,-0.225417 -0.267682,-0.366303 -0.549453,-0.338125 -0.02818,-0.09862 -0.05635,-0.211329 -0.07044,-0.309949 -0.05635,0 -0.09862,0 -0.19724,-0.01409 0.19724,0.309948 0.366302,0.577631 0.549454,0.887579 -0.07044,-0.04227 -0.112709,-0.07044 -0.140886,-0.08453 0.253594,0.267682 0.436745,0.605807 0.760782,0.77487 0.07044,0.324037 0.436746,0.479011 0.521277,0.788959 -0.07044,-0.01409 -0.125388,-0.02818 -0.195831,-0.04227 -0.112709,-0.140886 -0.240914,-0.281771 -0.367711,-0.436746 0.02818,0.09862 0.07044,0.183152 0.126797,0.253594 0.169062,0.211329 0.325445,0.422657 0.522685,0.605808 0.07044,0.07044 0.167654,0.09862 0.167654,0.225417 0.02818,-0.02818 0.05776,-0.04227 0.114117,-0.07044 -0.02818,0.05635 -0.04227,0.08453 -0.05635,0.126797 0.05635,0 0.09862,0.01409 0.140886,0.01409 0.02818,0.08453 -0.0155,0.211329 0.153565,0.183151 0.01409,0 0.02959,0.01409 0.04367,0.02818 0.07044,0.183151 0.181743,0.183151 0.336717,0.112708 0.02818,-0.01409 0.09862,0 0.112708,0.02818 0.07044,0.154974 0.169063,0.169063 0.29586,0.05635 0,0.07044 0.01409,0.140886 0.01409,0.19724 h 0.05635 c 0,-0.02818 -0.01409,-0.07044 -0.01409,-0.140885 0.07044,0.05635 0.112709,0.08453 0.140886,0.112708 0.140885,0.19724 0.269091,0.380391 0.466331,0.535365 0.267683,0.225417 0.505779,0.464923 0.759373,0.676251 0.4931,0.408568 1.042554,0.746694 1.592007,1.056642 0.676251,0.380391 1.322916,0.788959 2.013255,1.155262 0.831225,0.436745 1.718804,0.732605 2.634561,0.943933 0.338125,0.07044 0.662162,0.140886 1.000287,0.225417 0.29586,0.08453 0.59172,0.211328 0.887579,0.281771 0.450834,0.09862 0.915757,0.183151 1.366591,0.267683 0.09862,0.01409 0.197239,0.02818 0.309948,0.04227 v 0.02818 c 0.126797,0 0.281771,-0.05635 0.309948,-0.01409 0.07044,0.112708 0.126797,0.05635 0.211328,0.04227 0.09862,-0.02818 0.211329,-0.02818 0.324037,-0.02818 0.39448,0.01409 0.774871,0.09862 1.169351,0.07044 0.08453,0 0.211328,-0.07044 0.281771,0.07044 0.02818,-0.01409 0.04227,-0.02818 0.07044,-0.04227 0.05635,-0.01409 0.126797,-0.01409 0.183151,-0.02818 v 0.02818 c -0.02818,0.01409 -0.05635,0.01409 -0.112709,0.02818 0.07044,0.01409 0.112709,0.02818 0.154974,0.04227 -0.02818,0.02818 -0.04227,0.02818 -0.07044,0.04227 -0.02818,0.01409 -0.07044,0.02818 -0.126797,0.07044 0.507188,0.09862 0.986199,0.112708 1.408855,0 v -0.08453 h 0.05636 c 0,0.02818 0.01409,0.05635 0.02818,0.08453 0.648073,0.05635 1.282059,-0.02818 1.887867,-0.239506 0.05635,0.07044 0.09862,0.169063 0.183151,0.02818 0.02818,-0.04227 0.09862,-0.05635 0.154974,-0.07044 0.126797,-0.02818 0.281771,-0.08453 0.39448,-0.04227 0.126797,0.04227 0.169062,-0.07044 0.267682,-0.07044 0.169063,0 0.324037,-0.01409 0.479011,-0.04227 0.08453,-0.01409 0.169063,-0.05635 0.267683,-0.08453 0,-0.01409 0,-0.02818 -0.01409,-0.04227 -0.09862,-0.01409 -0.211328,-0.02818 -0.29586,-0.02818 0.169063,-0.08453 0.324037,-0.154974 0.479011,-0.225417 0,0.01409 0.01409,0.01409 0.01409,0.02818 -0.04227,0.01409 -0.07044,0.07044 -0.126797,0.07044 h 0.19724 c -0.04227,0 -0.09862,0.126797 -0.169063,0.211329 0.507188,-0.126797 0.972111,-0.239506 1.422944,-0.352214 v -0.02818 c -0.05635,0.01409 -0.09862,0.01409 -0.140885,0.02818 -0.01409,-0.29586 0.309948,-0.19724 0.422657,-0.366303 -0.140886,0.04227 -0.281772,0.08453 -0.422657,0.112709 v -0.02818 c 0.479011,-0.211328 0.97211,-0.422656 1.451121,-0.633985 0,0.01409 0.01409,0.01409 0.01409,0.02818 -0.08453,0.05635 -0.169063,0.09862 -0.29586,0.169063 0.08453,0.01409 0.140886,0.01409 0.183151,0.02818 0,0.04227 0,0.07044 -0.01409,0.08453 0.239505,-0.01409 0.183151,-0.225417 0.253594,-0.352214 0.04227,0.01409 0.09862,0.04227 0.140885,0.02818 0.126797,-0.02818 0.239506,-0.07044 0.366303,-0.112709 0.140886,-0.04227 0.281771,-0.08453 0.422657,-0.140885 0.225417,-0.09862 0.436745,-0.225417 0.662162,-0.338126 0.04227,-0.01409 0.112708,0 0.169063,0 0.04227,0 0.07044,-0.02818 0.09862,-0.05635 0.05635,-0.04227 0.112709,-0.126797 0.154975,-0.112708 0.197239,0.02818 0.338125,-0.04227 0.394479,-0.225417 0.01409,0 0.01409,-0.01409 0.02818,-0.01409 0.01409,0 0.01409,0 0.01409,-0.01409 0.05635,0.126797 0.169063,0.140885 0.352214,0.01409 -0.112709,0 -0.225417,-0.01409 -0.324037,-0.02818 l -0.01409,0.01409 c 0.05636,-0.05635 0.126797,-0.09862 0.183152,-0.140886 0.309948,-0.169063 0.605808,-0.338125 0.915756,-0.507188 0.01409,-0.01409 0.04227,0 0.07044,0 0.04227,0 0.09862,0 0.126797,-0.01409 0.183151,-0.08453 0.352214,-0.183151 0.521276,-0.281771 -0.04227,-0.01409 0,-0.02818 -0.140885,-0.04227 v -0.02818 c 0.140885,-0.02818 0.183151,-0.04227 0.267682,-0.07044 l -0.02818,-0.02818 c 0.366303,-0.366303 0.831225,-0.633986 1.183439,-0.943934 0.07044,0.01409 0.09862,0.02818 0.140886,0.02818 0.01409,-0.04227 0.01409,-0.08453 0.01409,-0.112708 0.05636,-0.07044 0.112709,-0.154974 0.183152,-0.211329 0.309948,-0.281771 0.648073,-0.521276 0.929844,-0.817136 0.408569,-0.408568 0.803048,-0.831225 1.169351,-1.26797 0.338125,-0.39448 0.67625,-0.788959 0.958022,-1.225705 0.394479,-0.605808 0.732605,-1.225704 1.084819,-1.859689 0.253594,-0.450834 0.479011,-0.901668 0.732605,-1.352502 0.02818,-0.04227 0.08453,-0.09862 0.126797,-0.09862 0.380391,-0.04227 0.760782,-0.07044 1.127084,-0.112708 0.08453,-0.01409 0.183151,-0.07044 0.267683,-0.112709 -0.04227,-0.07044 -0.07044,-0.154974 -0.112709,-0.225417 -0.05635,-0.08453 -0.140885,-0.154974 -0.197239,-0.239505 -0.05636,-0.07044 -0.09862,-0.154974 -0.140886,-0.239506 -0.04227,-0.07044 -0.08453,-0.126797 -0.126797,-0.197239 -0.08453,-0.154974 -0.169063,-0.309949 -0.239506,-0.479011 -0.01409,-0.04227 -0.04227,-0.112709 -0.02818,-0.154974 0.253594,-0.549454 0.352214,-1.141174 0.59172,-1.690627 0.239505,-0.563543 0.309948,-1.197528 0.422657,-1.803336 0.09862,-0.577631 0.154974,-1.155262 0.225416,-1.732892 0.04227,-0.408569 0.09862,-0.803048 0.112709,-1.211616 0.08453,-0.648074 0.05635,-1.253882 0.04227,-1.85969 -0.01409,-0.535365 -0.04227,-1.084819 -0.07044,-1.620184 -0.02818,-0.549454 -0.04227,-1.098908 -0.09862,-1.648361 -0.09862,-0.746694 -0.19724,-1.507476 -0.366303,-2.240081 -0.126819,-0.605806 -0.338147,-1.183437 -0.549475,-1.761068 -0.267683,-0.676251 -0.535366,-1.36659 -0.873491,-2.014664 -0.549454,-1.042553 -1.26797,-1.972398 -1.930132,-2.944508 -0.436746,-0.619897 -1.000288,-1.127085 -1.422945,-1.76107 -0.239505,-0.366302 -0.591719,-0.676251 -0.943933,-0.958022 -0.563542,-0.450834 -1.155262,-0.859402 -1.746981,-1.253882 -0.450834,-0.309948 -0.901668,-0.605808 -1.380679,-0.87349 -0.380391,-0.211329 -0.788959,-0.380391 -1.183439,-0.563542 -0.450834,-0.211329 -0.887579,-0.464923 -1.394767,-0.563543 -0.126797,-0.02818 -0.239505,-0.07044 -0.366303,-0.112708 C 39.064113,10.485012 38.754164,10.358215 38.430128,10.259595 37.937028,10.104621 37.458017,9.92147 36.950829,9.794673 36.457729,9.667876 35.950541,9.5833447 35.443353,9.5129019 34.879811,9.4283709 34.30218,9.4001934 33.738638,9.3438392 33.372335,9.3015732 33.006033,9.2593082 32.653819,9.2452192 32.118454,9.2170422 31.569,9.2170422 31.033635,9.2029532 30.836395,9.1888642 30.625067,9.1733672 30.427827,9.1705492 Z m 1.000287,1.6384995 c 0.183152,0.02818 0.352214,0.05635 0.521277,0.07044 l 0.676251,0.04227 c 0.507188,0.04227 1.014376,0.07044 1.521564,0.140885 0.422657,0.05635 0.845313,0.140886 1.282059,0.211329 0.929845,0.154974 1.845601,0.408568 2.73318,0.704428 0.521277,0.169062 1.028465,0.394479 1.535653,0.605808 1.141173,0.464922 2.225992,1.028464 3.296722,1.620184 0.338126,0.183151 0.535365,0.479011 0.78896,0.746693 0.366302,0.380391 0.732605,0.760782 1.084818,1.155262 0.408569,0.464922 0.78896,0.943933 1.183439,1.422944 0.352214,0.422657 0.718517,0.845314 1.070731,1.267971 0.112708,0.126797 0.19724,0.281771 0.295859,0.422656 0.225417,0.338126 0.479011,0.662163 0.676251,1.024238 0.140886,0.267683 0.225417,0.577631 0.324037,0.873491 0.140886,0.436745 0.281771,0.859402 0.422657,1.296147 0.09862,0.324037 0.183151,0.662163 0.253594,1.000288 0.05635,0.225417 0.04227,0.464923 0.112708,0.69034 0.08453,0.295859 0,0.619896 0.08453,0.915756 0.01409,0.02818 0.02818,0.07044 0.04227,0.09862 0.05636,0.05635 0.09862,0.112708 0.01409,0.19724 -0.01409,0.01409 -0.01409,0.07044 0,0.112708 0.02818,-0.02818 0.04227,-0.05635 0.07044,-0.09862 0,0.02818 0.01409,0.04227 0.01409,0.05635 0,0.05635 -0.01409,0.112708 0,0.169062 0,0.02818 0.02818,0.07044 0.04227,0.09862 0.02818,-0.02818 0.05635,-0.04227 0.112708,-0.08453 0.126797,0.479011 0.140886,0.958022 0.140886,1.451121 0,0.464923 0.08453,0.929845 -0.112709,1.380679 0.04227,-0.154974 -0.05635,-0.29586 -0.01409,-0.436745 -0.01409,0 -0.09862,-0.08453 -0.112709,-0.09862 -0.01409,0.04227 0,0.08453 -0.02818,0.140885 -0.01409,-0.04227 -0.112708,-0.02818 -0.112708,-0.07044 -0.01409,0.197239 0.08453,0.394479 0.07044,0.591719 0.04227,-0.02818 0.211328,-0.04227 0.253594,-0.08453 0.01409,0.01409 0.04227,0.02818 0.05635,0.02818 -0.281771,0.211328 -0.211328,0.422656 -0.08453,0.662162 0.02818,0.05635 0.112708,0.169063 0.02818,0.281771 -0.02818,0.02818 0.01409,0.112709 0.02818,0.183151 h 0.04227 v 0.02818 l -0.126797,0.04227 c -0.02818,-0.04227 -0.197239,-0.126797 -0.197239,-0.19724 v 0.718517 c 0.140885,0.04227 0.140885,0.239505 0.197239,0.338125 0.02818,-0.04227 0.04227,-0.07044 0.05636,-0.112708 l 0.01409,0.01409 c -0.01409,0.08453 -0.02818,0.169063 -0.05635,0.253594 -0.02818,0.126797 -0.05635,0.239506 -0.07044,0.366303 0,0.01409 0.02818,0.04227 0.02818,0.05635 -0.154974,0.352214 -0.07044,0.746694 -0.126797,1.112996 -0.04227,0.267683 0,0.549454 -0.02818,0.831225 -0.02818,0.239505 -0.08453,0.4931 -0.140885,0.732605 -0.01409,0.04227 -0.04227,0.05635 -0.112709,0.08453 0.02818,-0.169062 0.01409,-0.281771 -0.01409,-0.436745 -0.01409,0 -0.19724,-0.09862 -0.211329,-0.09862 0,0.19724 0.112709,0.464923 0.154974,0.690339 -0.04227,-0.01409 -0.211328,-0.112708 -0.225417,-0.112708 -0.02818,0.169063 -0.02818,0.39448 -0.04227,0.577631 -0.01409,0.140885 -0.140886,0.267682 -0.154974,0.422657 0,0.08453 0.09862,0.140885 0.08453,0.281771 h 0.112708 c 0,-0.281771 0.126797,-0.535365 0.126797,-0.831225 h 0.04227 c 0.01409,0.02818 0.05635,0.05635 0.04227,0.07044 -0.02818,0.154974 -0.08453,0.324036 -0.07044,0.479011 0,0.08453 0.07044,0.169062 0.04227,0.267682 -0.02818,0.08453 -0.04227,0.169063 -0.05635,0.29586 -0.01409,-0.07044 -0.02818,-0.09862 -0.02818,-0.140886 -0.01409,0 -0.140885,-0.01409 -0.154974,-0.01409 -0.01409,0.08453 0.09862,0.169062 0.08453,0.239505 -0.01409,0.01409 -0.02818,0.01409 -0.05636,0.02818 l -0.464922,-0.67625 c -0.366303,-0.535366 -0.732605,-1.070731 -1.098908,-1.620185 -0.09862,-0.140885 -0.183151,-0.281771 -0.253594,-0.422656 -0.436745,-0.746694 -0.915756,-1.46521 -1.451121,-2.15555 C 45.17857,30.194911 44.854533,29.631368 44.474142,29.081915 44.121928,28.560638 43.769714,28.05345 43.4175,27.532173 43.290703,27.363111 43.135729,27.208136 43.02302,27.024985 42.656718,26.447354 42.332681,25.855635 41.966379,25.278004 41.65643,24.798993 41.318305,24.334071 40.994268,23.869148 40.88156,23.714174 40.768851,23.545111 40.656143,23.376049 c -0.01409,-0.02818 -0.02818,-0.05635 -0.02818,-0.09862 -0.02818,-0.309949 -0.05636,-0.619897 -0.07044,-0.915757 0,-0.281771 0.02818,-0.563542 0.02818,-0.859402 v -0.253599 c 0,-0.07044 0.01409,-0.126797 0.01409,-0.197239 0.01409,-0.01409 0.02818,-0.04227 0.04227,-0.05635 -0.408568,0 -0.831225,-0.01409 -1.239793,0 -0.267715,0.01409 -0.4086,-0.09862 -0.591751,-0.29586 -0.535366,-0.601582 -0.929845,-1.291921 -1.394768,-1.939995 -0.436745,-0.619896 -0.887579,-1.225704 -1.338413,-1.831512 -0.366302,-0.4931 -0.732605,-0.972111 -1.098907,-1.46521 -0.408568,-0.563543 -0.803048,-1.127085 -1.225705,-1.690627 -0.507188,-0.676251 -1.028464,-1.352502 -1.549741,-2.028752 -0.239505,-0.309949 -0.507188,-0.605808 -0.774871,-0.929845 z m -1.338413,0.736831 c 0.04227,0 0.08453,0.02113 0.112709,0.06622 0.380391,0.479011 0.760782,0.972111 1.141173,1.451122 0.281771,0.352214 0.563542,0.690339 0.831225,1.056642 0.324037,0.450833 0.633985,0.901667 0.958022,1.352501 0.366302,0.521277 0.732605,1.042553 1.084819,1.577919 0.535365,0.788959 1.042553,1.577918 1.577918,2.366877 0.39448,0.577631 0.788959,1.136947 1.169351,1.714578 h -0.718517 c -0.662162,-0.01409 -1.338413,-0.07044 -2.000575,-0.04227 -0.901668,0.04227 -1.817424,0.140885 -2.719092,0.211328 -1.141173,0.09862 -2.296435,0.112709 -3.437608,0.112709 -0.408568,0 -0.817136,0.05635 -1.225704,0.08453 -0.4931,0.02818 -0.972111,0.05635 -1.46521,0.07044 -0.577631,0.02818 -1.141174,0.04227 -1.718804,0.05635 -0.324037,0.01409 -0.662163,0 -1.014377,0 0.450834,-0.619897 0.915757,-1.239793 1.36659,-1.869552 0.140886,-0.183151 0.253595,-0.380391 0.39448,-0.563542 0.04227,-0.05635 0.09862,-0.08453 0.169063,-0.140886 l -0.01409,-0.02818 c 0.05635,-0.07044 0.112709,-0.126797 0.140886,-0.183151 0.07044,-0.112709 0.112708,-0.239506 0.169062,-0.366303 0.01409,-0.02818 0.05636,-0.05635 0.05636,-0.05635 0.19724,0.09862 0.19724,-0.112708 0.267682,-0.183151 0.126797,-0.140886 0.253594,-0.29586 0.366303,-0.436745 0.08453,-0.112709 0.169063,-0.211329 0.239505,-0.338126 0.01409,-0.04227 -0.02818,-0.112708 -0.04226,-0.169062 h -0.04227 c 0.04227,-0.02818 0.08453,-0.07044 0.126797,-0.09862 0.01409,0 0.01409,0 0.02818,-0.01409 0.08453,-0.126797 0.169063,-0.253594 0.253594,-0.366303 0.169063,-0.225417 0.352214,-0.450834 0.549454,-0.648073 -0.02818,0.07044 -0.05635,0.140885 -0.08453,0.197239 0.01409,0 0.01409,0.01409 0.02818,0.01409 0.169062,-0.225417 0.352214,-0.436745 0.521276,-0.662162 -0.01409,-0.01409 -0.02818,-0.02818 -0.04227,-0.02818 -0.07044,0.07044 -0.126797,0.140886 -0.19724,0.211328 -0.01409,-0.01409 -0.02818,-0.02818 -0.04227,-0.02818 0.140886,-0.183151 0.281771,-0.366302 0.422657,-0.57763 0.02818,0.04227 0.05635,0.09862 0.112708,0.211328 0.05636,-0.140886 0.112709,-0.239506 0.154974,-0.338125 -0.04227,0.04227 -0.09862,0.08453 -0.140885,0.126797 l -0.04227,-0.04227 0.253594,-0.380392 c 0.267683,-0.380391 0.535365,-0.77487 0.803048,-1.155261 0.09862,-0.140886 0.225417,-0.253594 0.309948,-0.39448 0.267683,-0.535365 0.69034,-0.958022 1.014376,-1.451121 0.07044,-0.09862 0.169063,-0.183152 0.253595,-0.267683 0.02818,-0.0324 0.05635,-0.0479 0.07044,-0.05213 z m -3.944796,5.490311 c -0.08453,0.05635 -0.154974,0.09862 -0.239505,0.154974 -0.01409,0.01409 -0.02818,0.01409 -0.01409,0.01409 0.01409,0.07044 0.01409,0.126797 0.02818,0.225417 0.09862,-0.140885 0.169063,-0.253594 0.253594,-0.366302 z m 11.890743,5.80026 c 0.126797,0 0.19724,0.04227 0.267683,0.154974 0.126797,0.211328 0.253594,0.422656 0.394479,0.633985 0.01409,0.02818 0.04227,0.07044 0.04227,0.112708 0,0.309949 0,0.633985 0.01409,0.943934 0.01409,0.324036 0.04227,0.633985 0.05635,0.958022 0,0.324036 -0.02818,0.662162 -0.01409,1.000287 0.01409,0.479011 0.02818,0.972111 0.02818,1.46521 v 0.126797 c -0.01409,0 -0.02818,0.01409 -0.05635,0.01409 -0.05635,-0.19724 -0.112709,-0.408568 -0.183151,-0.605808 -0.140886,-0.408568 -0.29586,-0.817137 -0.549454,-1.183439 -0.281771,-0.39448 -0.535365,-0.803048 -0.817136,-1.211616 -0.07044,-0.09862 -0.169063,-0.183151 -0.253594,-0.267683 -0.29586,-0.324036 -0.59172,-0.662162 -0.972111,-0.901667 -0.563549,-0.352215 -1.14118,-0.648075 -1.761077,-0.901669 -0.169062,-0.07044 -0.324037,-0.154974 -0.493099,-0.253594 h 0.338125 l 2.409144,-0.04227 c 0.521276,-0.01409 1.028464,-0.01409 1.549741,-0.04227 z M 27.455141,23.20698 c 0.09862,0 0.211328,0 0.309948,0.01409 -0.225417,0.112708 -0.450834,0.225417 -0.648073,0.366302 -0.253594,0.169063 -0.4931,0.39448 -0.746694,0.577631 -0.253594,0.183151 -0.479011,0.408568 -0.690339,0.648074 -0.267683,0.324036 -0.563543,0.605808 -0.845314,0.915756 -0.19724,0.225417 -0.422656,0.436745 -0.591719,0.676251 -0.239506,0.309948 -0.450834,0.648073 -0.676251,1.000287 0.07044,-1.338413 0.154974,-2.662737 0.09862,-4.015239 0.662162,-0.02818 1.296147,-0.07044 1.944221,-0.09862 0.507188,-0.02818 1.028465,-0.04227 1.535653,-0.07044 0.112708,0 0.211328,-0.01409 0.309948,-0.01409 z m 3.536228,0.718517 c 0.422657,0.01409 0.845313,0.01409 1.26797,0.04227 0.183151,0.01409 0.352214,0.05635 0.521277,0.112709 0.211328,0.07044 0.436745,0.169062 0.633985,0.267682 0.239505,0.126797 0.464922,0.267683 0.690339,0.422657 0.408568,0.267683 0.78896,0.563542 1.197528,0.803048 0.394479,0.239505 0.704428,0.563542 0.958022,0.929845 0.309948,0.436745 0.662162,0.831225 0.803047,1.36659 l 0.211329,0.929845 c 0.04227,0.169062 0.140885,0.338125 0.09862,0.535365 -0.07044,0.352214 -0.126797,0.718516 -0.183152,1.07073 -0.02818,0.140886 -0.05635,0.281771 -0.04227,0.422657 0.02818,0.436745 -0.140886,0.817136 -0.309948,1.211616 -0.05636,0.126797 -0.140886,0.253594 -0.211329,0.394479 0.01409,0.01409 0.09862,0.05635 0.112709,0.05635 l 0.126797,-0.253594 c 0.01409,0 0.01409,0 0.02818,0.01409 -0.07044,0.19724 -0.126797,0.408568 -0.19724,0.605808 -0.169063,0.436745 -0.338125,0.887579 -0.549454,1.310236 -0.112708,0.239506 -0.309948,0.436745 -0.450834,0.662162 -0.140885,0.19724 -0.253594,0.408568 -0.394479,0.59172 -0.126797,0.154974 -0.253594,0.309948 -0.422657,0.422656 -0.380391,0.281772 -0.774871,0.563543 -1.183439,0.78896 -0.253594,0.154974 -0.549454,0.239505 -0.831225,0.309948 -0.450834,0.112708 -0.915756,0.239505 -1.380678,0.29586 -0.39448,0.05635 -0.803048,0.04227 -1.211616,0.04227 -0.366303,0 -0.718517,-0.01409 -1.084819,-0.04227 -0.408569,-0.04227 -0.817137,-0.08453 -1.211616,-0.267683 -0.338126,-0.154974 -0.69034,-0.29586 -1.028465,-0.464922 -0.338125,-0.169063 -0.676251,-0.366303 -0.929845,-0.676251 -0.183151,-0.225417 -0.436745,-0.408568 -0.662162,-0.605808 0.04227,0.169063 0.140885,0.309948 0.29586,0.408568 -0.07044,0.08453 -0.169063,0.04227 -0.309949,-0.183151 -0.04227,0.02818 -0.08453,0.04227 -0.112708,0.05635 0.04227,-0.09862 0.08453,-0.19724 0.126797,-0.281771 -0.05635,-0.112709 -0.126797,-0.239506 -0.183151,-0.352214 -0.112709,-0.183151 -0.225417,-0.380391 -0.324037,-0.563542 -0.02818,-0.04227 -0.02818,-0.08453 -0.05635,-0.126797 -0.07044,-0.08453 -0.140886,-0.169063 -0.19724,-0.253594 -0.112709,-0.169063 -0.211329,-0.352214 -0.352214,-0.521277 0,0.04227 0.01409,0.08453 0.01409,0.140886 -0.01409,0 -0.02818,0.01409 -0.02818,0.01409 l -0.295859,-0.718516 c -0.01409,0 -0.01409,0 -0.02818,0.01409 l 0.253594,0.929845 c -0.01409,0 -0.02818,0.01409 -0.04227,0.01409 -0.04227,-0.05635 -0.08453,-0.112709 -0.112709,-0.183152 -0.02818,-0.112708 -0.112708,-0.112708 -0.183151,-0.07044 -0.04227,0.02818 -0.07044,0.126797 -0.05635,0.169062 0.09862,0.239506 0.211328,0.479011 0.324037,0.718517 0.02818,0.08453 0.05635,0.154974 0.09862,0.239505 0.01409,0.02818 0.05635,0.05635 0.05635,0.09862 0.05635,0.112709 0.09862,0.225417 0.169063,0.324037 0.126797,0.169063 0.267682,0.338125 0.394479,0.507188 0.126797,0.169063 0.239506,0.352214 0.352214,0.521277 0.01409,0.02818 0.05635,0.02818 0.07044,0.04227 0.07044,0.211329 0.309948,0.366303 0.479011,0.281771 0.04227,0.324037 0.394479,0.436746 0.535365,0.746694 -0.169063,-0.07044 -0.29586,-0.126797 -0.408568,-0.183151 -0.01409,0.01409 -0.01409,0.02818 -0.02818,0.05635 0.169062,0.08453 0.338125,0.169063 0.493099,0.267683 0.140886,0.08453 0.281771,0.169062 0.408568,0.267682 0.169063,0.154974 0.366303,0.239506 0.605808,0.29586 -0.01409,-0.04227 -0.02818,-0.05635 -0.02818,-0.05635 0.39448,0.183151 0.803048,0.380391 1.112996,0.535365 -1.46521,0.02818 -3.02904,0.05635 -4.649224,0.08453 0,-0.267682 -0.01409,-0.521276 -0.01409,-0.788959 0,-0.112709 0.02818,-0.211328 0.01409,-0.324037 -0.04227,-0.648074 -0.04227,-1.296147 -0.126797,-1.930132 -0.08453,-0.676251 -0.08453,-1.338413 -0.07044,-2.014664 0.01409,-0.366303 -0.01409,-0.746694 -0.02818,-1.112996 0,-0.4931 0,-0.972111 0.01409,-1.46521 0,-0.07044 0.02818,-0.126797 0.05635,-0.19724 h 0.04227 c 0.01409,0.02818 0,0.07044 0.02818,0.08453 0.04227,0.04227 0.112708,0.112709 0.140886,0.09862 0.08453,-0.05635 0.211328,-0.112708 0.239505,-0.19724 0.07044,-0.169062 0.09862,-0.352213 0.09862,-0.521276 0,-0.126797 0.05635,-0.211329 0.112708,-0.29586 0.02818,-0.04227 0.04227,-0.08453 0.07044,-0.140885 -0.05635,-0.04227 -0.112708,-0.07044 -0.183151,-0.126797 0.05635,-0.154975 0.04227,-0.338126 0.253594,-0.422657 0.02818,-0.01409 0.02818,-0.08453 0.04227,-0.126797 0.01409,-0.112709 0.02818,-0.239506 0.04227,-0.352214 0.02818,0.04227 0.04227,0.05635 0.07044,0.08453 0.01409,-0.02818 0.02818,-0.04227 0.02818,-0.04227 0,-0.05635 -0.01409,-0.169063 0,-0.169063 0.169063,-0.02818 0.09862,-0.211329 0.183151,-0.29586 0.01409,-0.01409 -0.01409,-0.05635 -0.01409,-0.08453 0,-0.02818 0,-0.07044 0.01409,-0.07044 0.19724,-0.04227 0.169063,-0.253594 0.29586,-0.352214 0.04227,-0.02818 0.05635,-0.07044 0.112709,-0.140886 0.112708,0.19724 -0.08453,0.29586 -0.09862,0.436746 0.239505,-0.140886 0.309948,-0.479011 0.169062,-0.577631 0.05635,-0.04227 0.112709,-0.09862 0.154975,-0.154974 0.154974,-0.169063 0.324036,-0.324037 0.464922,-0.4931 0.09862,-0.126797 0.154974,-0.281771 0.253594,-0.408568 0.05635,-0.07044 0.169063,-0.126797 0.253594,-0.169063 0.253594,-0.140885 0.4931,-0.295859 0.648074,-0.535365 0.02818,-0.02818 0.07044,-0.05635 0.112708,-0.08453 0.04227,-0.02818 0.126797,-0.02818 0.140886,-0.07044 0.01409,-0.02818 -0.02818,-0.09862 -0.05635,-0.140886 0.05635,-0.02818 0.112708,-0.08453 0.225416,-0.140885 -0.04227,0.08453 -0.05635,0.140885 -0.08453,0.19724 l 0.07044,0.07044 c 0.126797,-0.09862 0.324037,-0.211328 0.450834,-0.295859 0,-0.01409 -0.07044,-0.07044 -0.07044,-0.07044 -0.08453,0.04227 -0.211328,0.112708 -0.338125,0.169063 0.02818,-0.04227 0.02818,-0.07044 0.04227,-0.08453 0.19724,-0.126797 0.39448,-0.253594 0.605808,-0.352214 0.4931,-0.225417 0.986199,-0.450834 1.479299,-0.662162 0.08453,-0.04227 0.19724,-0.01409 0.29586,-0.01409 0.04227,0 0.07044,0 0.112708,-0.01409 0.225417,-0.07044 0.450834,-0.140886 0.676251,-0.19724 0.09862,-0.02818 0.211328,-0.04227 0.309948,-0.04227 z m -0.549454,0.211328 c -0.154974,0.07044 -0.281771,0.126797 -0.408568,0.183151 0,0.01409 -0.07044,0.126797 -0.05635,0.126797 0.07044,-0.01409 0.225417,-0.126797 0.309948,-0.140885 0.04227,0 0.09862,0.01409 0.140886,0.02818 0,-0.05635 0,-0.112709 0.01409,-0.19724 z m 10.186028,2.395055 c 0.140885,0.183151 0.295859,0.352214 0.394479,0.535365 0.324037,0.591719 0.746694,1.098907 1.141173,1.634273 0.338126,0.464922 0.648074,0.97211 0.958022,1.451121 0.380391,0.577631 0.746694,1.155262 1.127085,1.732893 0.281771,0.436745 0.577631,0.87349 0.873491,1.296147 0.267682,0.380391 0.549453,0.746694 0.831224,1.112996 0.239506,0.324037 0.4931,0.648074 0.732605,0.972111 0.281772,0.394479 0.563543,0.788959 0.845314,1.16935 0.140885,0.19724 0.29586,0.394479 0.450834,0.591719 0.08453,0.112709 0.211328,0.19724 0.295859,0.267683 -0.01409,0 -0.02818,0 -0.05635,-0.01409 0.04227,0.05635 0.07044,0.09862 0.09862,0.126797 0.154974,0.08453 0.169063,0.169063 0.08453,0.29586 -0.01409,0.02818 -0.04227,0.05635 -0.05635,0.08453 -0.01409,-0.02818 -0.01409,-0.07044 -0.02818,-0.126797 -0.08453,0.225417 -0.267682,0.112709 -0.394479,0.112709 -0.760783,0.01409 -1.535653,0.01409 -2.296435,0.01409 -0.732605,0 -1.479299,0 -2.211904,0.01409 -0.239505,0 -0.493099,0.05635 -0.732605,0.07044 -0.577631,0.02818 -1.155262,0.04227 -1.732893,0.05635 -0.04227,0 -0.08453,-0.07044 -0.154974,-0.126797 -0.01409,0.02818 -0.04227,0.07044 -0.08453,0.126797 -0.01409,-0.02818 -0.04227,-0.05635 -0.07044,-0.09862 -0.01409,0.04227 -0.02818,0.08453 -0.04227,0.112709 h -0.04227 c -0.02818,-0.19724 -0.08453,-0.380392 -0.08453,-0.577631 0,-0.422657 0.04227,-0.845314 0.05635,-1.267971 0.01409,-0.197239 0,-0.380391 0,-0.563542 0.05635,0.04227 0.09862,0.07044 0.154974,0.112709 0.02818,-0.05635 0.05635,-0.09862 0.08453,-0.140886 0,0 -0.02818,-0.01409 -0.05635,-0.04227 0.02818,-0.01409 0.05635,-0.04227 0.05635,-0.05635 0.01409,-0.04227 0.04227,-0.08453 0.04227,-0.112708 0,-0.09862 -0.02818,-0.183152 -0.04227,-0.267683 0.01409,0 0.02818,0 0.04227,-0.01409 l 0.08453,0.422656 h 0.04227 c -0.05635,-0.09862 0.126797,-0.183151 -0.02818,-0.295859 -0.01409,-0.01409 0.01409,-0.09862 0.01409,-0.140886 -0.04227,-0.08453 -0.07044,-0.169063 -0.112708,-0.281771 0.01409,-0.01409 0.05635,-0.02818 0.09862,-0.04227 -0.05635,-0.02818 -0.09862,-0.05635 -0.140886,-0.07044 0.140886,-0.126797 0.140886,-0.197239 0.01409,-0.338125 0.02818,-0.01409 0.05635,-0.01409 0.05635,-0.02818 0,-0.126797 0,-0.253594 -0.02818,-0.380391 -0.02818,-0.140886 0.04227,-0.309948 -0.169063,-0.39448 0.01409,0.04227 0.02818,0.07044 0.05635,0.112709 0,0 -0.04227,0.01409 -0.08453,0.04227 -0.183151,-0.169062 -0.07044,-0.394479 -0.112708,-0.648073 0.09862,0.02818 0.169062,0.05635 0.239505,0.08453 -0.02818,-0.09862 -0.09862,-0.211328 -0.140886,-0.338125 h -0.05635 v -0.929845 c 0,0.01409 0.09862,0.01409 0.154974,0.02818 0,-0.01409 0.01409,-0.02818 0.01409,-0.04227 -0.04227,-0.05635 -0.09862,-0.112708 -0.154974,-0.183151 l 0.02818,-0.02818 c -0.112709,-0.140886 -0.05635,-0.338126 -0.05635,-0.380391 v -0.986199 c 0.140885,0.140885 -0.07044,0.324037 0.140885,0.408568 0.01409,0.01409 0.01409,0.01409 0.02818,0 -0.01409,0 -0.01409,0 -0.02818,-0.01409 v -0.126797 h -0.01409 c -0.01409,-0.211328 -0.01409,-0.422656 -0.02818,-0.633985 h -0.02818 c -0.01409,0.02818 -0.01409,0.04227 -0.02818,0.07044 h -0.02818 c 0.02818,-1.112996 0.05635,-2.225992 0.08453,-3.367165 z m -0.09862,4.113859 c 0.07044,0.02818 0.140885,0.04227 0.140885,0.07044 v -0.09862 c -0.04227,0.01409 -0.08453,0.01409 -0.140885,0.02818 z M 16.890131,27.687141 c -0.169062,0.19724 -0.322627,0.39448 -0.477602,0.59172 0.02818,0.01409 0.06903,0.112708 0.09721,0.140885 0.154975,-0.211328 0.366303,-0.47901 0.521277,-0.67625 -0.01409,-0.01409 -0.126797,-0.04227 -0.140886,-0.05635 z m -0.943933,0.69034 c -0.08453,0.126797 -0.294451,0.352214 -0.378982,0.479011 0.01409,0.01409 0.167654,-0.05635 0.181742,-0.04227 0.08453,-0.126797 0.170472,-0.267683 0.255003,-0.39448 -0.02818,-0.01409 -0.04367,-0.02818 -0.05776,-0.04227 z m 0.29586,0.211328 c -0.08453,0.05635 -0.167654,0.126797 -0.252185,0.183151 0.02818,0.02818 0.02677,0.04227 0.02677,0.07044 -0.112709,-0.01409 -0.154974,0.04227 -0.211328,0.19724 -0.01409,0.04227 -0.08312,0.05635 -0.153566,0.112708 -0.01409,0.02818 -0.02959,0.09862 -0.05776,0.169063 l 0.01409,0.01409 c -0.02818,0.02818 -0.07044,0.04227 -0.07044,0.04227 -0.08453,0.08453 -0.183151,0.154975 -0.267683,0.239506 -0.01409,0.04227 -0.02818,0.08453 -0.02818,0.126797 0.09862,-0.09862 0.269092,-0.281771 0.395889,-0.39448 l 0.01409,0.01409 c 0.05635,-0.08453 0.09721,-0.169063 0.153566,-0.253594 0.01409,0.01409 0.01409,0.02818 0.02818,0.04226 -0.04227,0.112709 -0.08312,0.239506 -0.125389,0.352214 -0.02818,0.01409 -0.07044,0.04227 -0.07044,0.02818 -0.05635,0.04226 -0.100029,0.09862 -0.156383,0.140885 l -0.252185,0.169063 c -0.140886,0.126797 -0.281772,0.239505 -0.436746,0.366302 -0.09862,0.154974 -0.198648,0.29586 -0.311357,0.479011 0.169063,-0.04227 0.211328,0.02818 0.19724,0.169063 0.19724,0.02818 0.212737,-0.126797 0.269091,-0.239506 0.01409,-0.02818 0.02818,-0.08453 0.05635,-0.09862 0.126797,-0.112709 0.266273,-0.211329 0.407159,-0.324037 0.02818,-0.02818 0.02959,-0.08453 0.02959,-0.126797 0,-0.01409 -0.07185,-0.01409 -0.114117,-0.02818 0.126797,-0.140886 0.309948,-0.380391 0.436745,-0.535366 0.07044,-0.04227 0.140885,-0.09862 0.140885,-0.140885 -0.01409,-0.126797 0.05776,-0.183151 0.146521,-0.225417 -0.06481,0.309948 -0.253594,0.563542 -0.44238,0.619896 0.05635,0.02818 0.112708,0.05635 0.154974,0.04227 0.04227,-0.01409 0.07185,-0.08453 0.100029,-0.126797 l 0.378982,-0.549454 0.126797,-0.211328 -0.05635,-0.05635 c -0.05635,0.09862 -0.1113,0.183151 -0.167654,0.281771 l -0.04931,-0.01409 v -0.01409 c -0.05635,-0.04227 -0.07044,-0.08453 -0.07044,-0.09862 0.01409,-0.04227 0.04227,-0.08453 0.07044,-0.126797 0.02818,0 0.07044,-0.01409 0.07044,-0.01409 0.05635,-0.09862 0.05776,-0.169062 0.114117,-0.253594 -0.01409,-0.01409 -0.02959,-0.01409 -0.04368,-0.02818 z m 22.357132,4.59287 c -0.02818,1.606096 0.154974,3.184014 0.366303,4.776021 -1.592007,0.05635 -3.212191,0.112709 -4.846464,0.169063 0.633985,-0.267683 1.155262,-0.648074 1.634273,-1.084819 0.07044,-0.07044 0.140885,-0.140886 0.225416,-0.19724 0.59172,-0.366302 1.028465,-0.873491 1.422945,-1.437033 0.450834,-0.648074 0.746693,-1.380679 1.112996,-2.071018 0.02818,-0.05635 0.05635,-0.112708 0.08453,-0.154974 z m 1.972398,0.126797 c 0.02818,0.05635 0.04227,0.09862 0.05636,0.140886 0.07044,-0.01409 0.09862,-0.01409 0.126797,-0.02818 0,-0.01409 0,-0.02818 0.01409,-0.04226 -0.04227,-0.01409 -0.09862,-0.04227 -0.19724,-0.07044 z m 0.04227,0.140886 h -0.01409 c 0.01409,0 0.02818,0.01409 0.02818,0.01409 z m -28.753338,0.04227 c -0.02818,0 -0.112708,0.04227 -0.126797,0.05635 0.05635,0.140885 0.128206,0.295859 0.18456,0.436745 0.01409,-0.01409 0.09721,-0.05635 0.1113,-0.05635 -0.05635,-0.140886 -0.112708,-0.29586 -0.169063,-0.436745 z m -0.394479,0.577631 c -0.04227,0.07044 -0.08453,0.140886 -0.07044,0.19724 0,0.04227 0.07044,0.08453 0.112708,0.126797 0,-0.01409 0.01409,-0.02818 0.02818,-0.04227 -0.02818,-0.09862 -0.04227,-0.183151 -0.07044,-0.281771 z m 37.657306,0.01409 c 0,0.02818 0.01409,0.07044 0,0.09862 z m -36.923292,0.309948 c -0.01409,0 -0.114118,0.04227 -0.128206,0.05635 0.112708,0.239506 0.226826,0.4931 0.339534,0.732605 0.01409,0 0.126797,-0.05635 0.126797,-0.05635 -0.112708,-0.239505 -0.183151,-0.507188 -0.338125,-0.732605 z m -0.281772,0.563542 c 0,0.05635 -0.07044,0.04227 -0.07044,0.09862 -0.08453,0 -0.154974,-0.01409 -0.225417,-0.01409 -0.01409,0.01409 0.04086,0.09862 0.05495,0.112708 h 0.297269 c 0,-0.07044 -0.0155,-0.126797 -0.0155,-0.19724 z m 12.958656,0.549454 c 0.154974,0.239506 0.309948,0.464922 0.479011,0.690339 l -0.01409,0.01409 c -0.02818,-0.01409 -0.07044,-0.02818 -0.09862,-0.05635 l -0.338125,-0.507188 c -0.02818,-0.04227 -0.04227,-0.08453 -0.02818,-0.140886 z m 15.72283,0.760782 c -0.01409,0.169063 -0.02818,0.29586 -0.02818,0.422657 0,0.02818 0.02818,0.08453 0.04227,0.08453 0.02818,0.01409 0.08453,-0.01409 0.112708,-0.02818 0.01409,-0.01409 0.02818,-0.04227 0.02818,-0.05635 -0.04227,-0.02818 -0.08453,-0.04227 -0.126797,-0.07044 0.267682,-0.140885 0,-0.211328 -0.02818,-0.352214 z m -24.53945,7.974124 c 0.154975,0.169063 0.30854,0.338125 0.463514,0.521277 0.04227,-0.01409 0.08453,-0.01409 0.126797,-0.02818 0.04227,0.07044 0.07185,0.154975 0.114117,0.239506 -0.197239,-0.01409 -0.297268,-0.09862 -0.240914,-0.211328 -0.08453,-0.04227 -0.183151,-0.07044 -0.225417,-0.126797 -0.09862,-0.112709 -0.183151,-0.239506 -0.281771,-0.352214 z m 27.427605,2.648649 c -0.112709,0.02818 -0.19724,0.04227 -0.267683,0.07044 -0.02818,0.05635 -0.05635,0.09862 -0.08453,0.154974 0.01409,0 0.02818,0.01409 0.04227,0.02818 0.08453,-0.08453 0.183151,-0.154974 0.309948,-0.253594 z m -0.718517,0.394479 c -0.154974,0.09862 -0.324036,0.19724 -0.479011,0.29586 0.01409,0.01409 0.01409,0.02818 0.02818,0.04227 0.197239,-0.04227 0.352213,-0.140886 0.507188,-0.253594 -0.01409,-0.02818 -0.04227,-0.05635 -0.05636,-0.08453 z m -6.903393,2.676826 c -0.648074,0.183152 -0.859402,0.211329 -0.929845,0.112709 0.324037,-0.04227 0.619897,-0.07044 0.929845,-0.112709 z m -0.958022,0.126797 c 0.01409,0.02818 0.01409,0.05636 0.02818,0.08453 -0.08453,0 -0.140885,0.02818 -0.211328,0.04227 -0.19724,0.04227 -0.408568,0.07044 -0.605808,0.09862 -0.07044,0.01409 -0.154974,0.08453 -0.183151,-0.04227 -0.02818,0.01409 -0.05636,0.01409 -0.08453,0.02818 0.07044,0.211328 0.239506,0.04227 0.380391,0.126797 -0.309948,0.04227 -0.605808,0.07044 -0.901667,0.112708 v -0.02818 c 0.08453,-0.01409 0.183151,-0.02818 0.267682,-0.04227 v -0.04227 c -0.140885,-0.01409 -0.281771,-0.02818 -0.422657,-0.02818 -0.04227,0 -0.09862,0.05635 -0.140885,0.07044 -0.05635,0.01409 -0.112709,0.02818 -0.183151,0.02818 -0.239506,0.01409 -0.479011,0.01409 -0.704428,0.02818 -0.01409,0 -0.04227,-0.01409 -0.05635,-0.01409 v -0.04227 c 0.943933,-0.126797 1.873778,-0.253594 2.817711,-0.380391 z m -2.944508,0.366303 v 0.04227 c -0.267683,0.04227 -0.521277,0.07044 -0.78896,0.08453 v -0.04227 c 0.267683,-0.02818 0.521277,-0.05635 0.78896,-0.08453 z"
     id="path2"
     inkscape:connector-curvature="0"
     style="stroke-width:0.14088558" />
</svg>
