<svg xmlns="http://www.w3.org/2000/svg" width="64" height="64"><path d="M31.47-.115c-.58-.144-1.14-.432-1.566-.807l-.334-.293-.196.27a7.84 7.84 0 0 1-.447.546c-.375.4-.435.217-.426-1.375.014-2.598.17-2.96.67-1.555.378 1.06.7 1.6 1.215 2.056 1.424 1.254 3.586.8 3.838-.8.15-.954-.45-1.58-2.214-2.3-1.986-.82-2.7-1.325-3.162-2.23-.158-.3-.192-.543-.192-1.323 0-.865.023-1 .257-1.42.298-.547.876-1.088 1.486-1.388.364-.18.57-.2 1.4-.2 1.05 0 1.368.106 2.14.714.2.158.378.24.413.188l.274-.427c.126-.2.286-.338.392-.338.17 0 .177.07.153 1.7-.028 1.946-.105 2.14-.488 1.253-.856-1.984-1.542-2.62-2.837-2.635-1.354-.015-2.117 1.157-1.417 2.178.298.435.636.64 2.122 1.3 1.872.817 2.375 1.172 2.88 2.03.257.436.267.5.266 1.6-.001 1.02-.024 1.2-.213 1.546-.467.88-1.484 1.583-2.54 1.756-.674.1-.882.105-1.462-.04zm4.332-.045c-.073-.2-.04-.212.478-.3.313-.06.508-.158.644-.33.25-.315.735-1.55 2.317-5.912l1.345-3.692c.087-.22.377-.364.592-.296.207.066.32.347 1.934 4.83 1.92 5.333 1.946 5.4 2.476 5.4.37 0 .542.1.542.285 0 .166-.107.174-2.43.174s-2.43-.008-2.43-.174c0-.2.172-.285.652-.285.233 0 .38-.048.414-.134.05-.133-.123-.745-.582-2.045l-.235-.667-2.944.05-.346 1.054c-.2.58-.347 1.166-.35 1.303-.003.282.212.438.6.44.34.002.527.13.458.3-.083.216-3.064.22-3.147.005zm5.47-3.838c0-.135-.816-2.545-1.046-3.1l-.13-.3-.1.275-1.097 3.14c0 .087.295.115 1.192.115.966 0 1.192-.025 1.192-.13z" transform="matrix(3.630333 0 0 3.630333 -103.46705 51.859703)"/></svg>