<svg xmlns="http://www.w3.org/2000/svg" width="64" height="64"><path d="M63.84 0v64H.75c-.483 0-.6-.107-.6-.6V.6c0-.483.107-.6.6-.6H63.84z" fill="#08080a"/><path d="M19.83 44.97l1.02-4.828 6.062-28.218c.322-1.395.912-1.985 2.307-2.092a60.19 60.19 0 0 1 6.223 0c1.234.054 1.878.805 2.146 1.93l1.18 5.418L44.4 43.306c.107.536.16 1.073.483 1.717l.483-2.8 3.11-18.186L50.73 10.69c.107-.6.215-.858.912-.805a153.45 153.45 0 0 0 7.028 0c.483 0 .6.107.483.6L54.54 32.9 50.623 52.05c-.322 1.556-.966 2.092-2.468 2.092H41.29c-1.502 0-2.146-.536-2.468-2.04l-3.648-16.79-2.897-13.465c-.054-.16-.107-.322-.268-.43l-.697 3.22-5.847 27.36c-.322 1.61-1.02 2.253-2.682 2.253h-6.706c-1.663 0-2.253-.536-2.575-2.146l-5.58-27.09-3.058-14.7c0-.107 0-.16-.054-.322h8.583c.376 0 .376.268.43.483l1.073 6.223 2.575 15.02 2.146 12.607c0 .107 0 .322.215.644z" fill="#fff"/></svg>