<?xml version="1.0" encoding="UTF-8" standalone="no"?>
<!-- Created with Inkscape (http://www.inkscape.org/) -->

<svg
   xmlns:dc="http://purl.org/dc/elements/1.1/"
   xmlns:cc="http://creativecommons.org/ns#"
   xmlns:rdf="http://www.w3.org/1999/02/22-rdf-syntax-ns#"
   xmlns:svg="http://www.w3.org/2000/svg"
   xmlns="http://www.w3.org/2000/svg"
   xmlns:sodipodi="http://sodipodi.sourceforge.net/DTD/sodipodi-0.dtd"
   xmlns:inkscape="http://www.inkscape.org/namespaces/inkscape"
   width="120"
   height="60"
   id="svg4317"
   version="1.1"
   inkscape:version="0.48.4 r9939"
   sodipodi:docname="libreoffice-ar21.svg">
  <defs
     id="defs4319" />
  <sodipodi:namedview
     id="base"
     pagecolor="#ffffff"
     bordercolor="#666666"
     borderopacity="1.0"
     inkscape:pageopacity="0.0"
     inkscape:pageshadow="2"
     inkscape:zoom="6.6"
     inkscape:cx="60"
     inkscape:cy="30"
     inkscape:document-units="px"
     inkscape:current-layer="layer1"
     showgrid="false"
     inkscape:window-width="925"
     inkscape:window-height="706"
     inkscape:window-x="257"
     inkscape:window-y="88"
     inkscape:window-maximized="0" />
  <metadata
     id="metadata4322">
    <rdf:RDF>
      <cc:Work
         rdf:about="">
        <dc:format>image/svg+xml</dc:format>
        <dc:type
           rdf:resource="http://purl.org/dc/dcmitype/StillImage" />
        <dc:title></dc:title>
      </cc:Work>
    </rdf:RDF>
  </metadata>
  <g
     inkscape:label="Layer 1"
     inkscape:groupmode="layer"
     id="layer1"
     transform="translate(0,-992.36218)">
    <g
       style="display:inline"
       id="g4083"
       transform="matrix(0.28404051,0,0,0.28404051,-155.50295,511.22459)">
      <path
         inkscape:connector-curvature="0"
         d="m 643.40618,1779.7848 0,45.9016 29.59884,0 0,-6.9732 -20.56412,0 0,-38.9284 -9.03472,0"
         style="font-size:67.56232452px;font-style:normal;font-variant:normal;font-weight:normal;font-stretch:normal;fill:#18a303;fill-opacity:1;stroke:none;font-family:Vegur;-inkscape-font-specification:Vegur"
         id="path3245" />
      <path
         inkscape:connector-curvature="0"
         d="m 678.46533,1825.6864 9.03473,0 0,-33.0383 -9.03473,0 0,33.0383 m 4.51736,-35.8818 c 2.83178,0 5.1916,-2.3018 5.1916,-5.213 0,-2.8434 -2.35982,-5.213 -5.1916,-5.213 -2.89921,0 -5.1916,2.3696 -5.1916,5.213 0,2.9112 2.29239,5.213 5.1916,5.213"
         style="font-size:67.56232452px;font-style:normal;font-variant:normal;font-weight:normal;font-stretch:normal;fill:#18a303;fill-opacity:1;stroke:none;font-family:Vegur;-inkscape-font-specification:Vegur"
         id="path3247" />
      <path
         inkscape:connector-curvature="0"
         d="m 703.23342,1796.507 -0.13485,0 0,-19.5657 -9.03472,0 0,48.7451 8.83246,0 0.20226,-3.8589 0.13485,0 c 2.83178,3.182 5.66357,4.5359 10.31577,4.5359 8.76503,0 14.56345,-7.9211 14.56345,-17.8055 0,-9.5458 -5.19161,-16.5868 -14.1589,-16.5868 -4.78706,0 -7.61885,1.4217 -10.72032,4.5359 m -0.13485,11.9155 c 0,-5.6869 2.5621,-9.4782 7.41657,-9.4782 5.39387,0 8.09081,3.859 8.09081,10.1552 0,6.2286 -2.62952,10.2907 -7.95596,10.2907 -4.6522,0 -7.55142,-3.6559 -7.55142,-9.4782 l 0,-1.4895"
         style="font-size:67.56232452px;font-style:normal;font-variant:normal;font-weight:normal;font-stretch:normal;fill:#18a303;fill-opacity:1;stroke:none;font-family:Vegur;-inkscape-font-specification:Vegur"
         id="path3249" />
      <path
         inkscape:connector-curvature="0"
         d="m 752.35511,1791.9711 c -4.3151,0.2707 -8.42793,2.9112 -10.31578,6.567 l -0.13484,0 -0.20227,-5.89 -8.83246,0 0,33.0383 9.03473,0 0,-12.4571 c 0,-6.6347 1.21362,-9.0043 3.30374,-10.4937 1.82043,-1.2863 3.97798,-1.8279 6.94461,-1.9633 l 0.20227,-8.8012"
         style="font-size:67.56232452px;font-style:normal;font-variant:normal;font-weight:normal;font-stretch:normal;fill:#18a303;fill-opacity:1;stroke:none;font-family:Vegur;-inkscape-font-specification:Vegur"
         id="path3251" />
      <path
         inkscape:connector-curvature="0"
         d="m 785.59681,1807.2039 c 0,-8.1918 -4.98934,-15.2328 -13.61952,-15.2328 -10.38318,0 -17.05811,7.1764 -17.05811,18.0763 0,10.6291 6.8772,16.316 17.05811,16.316 4.78706,0 8.15824,-0.7447 11.32712,-2.1664 l -0.94392,-6.7701 c -2.96662,1.2186 -6.00068,1.9633 -9.237,1.9633 -5.46128,0 -8.96731,-2.505 -9.30442,-7.6502 l 21.3732,0 c 0.2697,-1.2187 0.40454,-3.1143 0.40454,-4.5361 m -14.56344,-8.2596 c 3.91055,0 5.73099,3.182 5.86583,6.567 l -12.74302,0 c 0.67423,-3.7913 3.30375,-6.567 6.87719,-6.567"
         style="font-size:67.56232452px;font-style:normal;font-variant:normal;font-weight:normal;font-stretch:normal;fill:#18a303;fill-opacity:1;stroke:none;font-family:Vegur;-inkscape-font-specification:Vegur"
         id="path3253" />
      <path
         inkscape:connector-curvature="0"
         d="m 813.02447,1779.1077 c -12.13619,0 -22.11485,8.869 -22.11485,23.6279 0,14.759 9.97866,23.6278 22.11485,23.6278 12.1362,0 22.11486,-8.8688 22.11486,-23.6278 0,-14.7589 -9.97866,-23.6279 -22.11486,-23.6279 m 0,4.6038 c 9.03472,0 15.91191,6.7701 15.91191,19.0241 0,12.2539 -6.87719,19.0242 -15.91191,19.0242 -9.03471,0 -15.91191,-6.7703 -15.91191,-19.0242 0,-12.254 6.8772,-19.0241 15.91191,-19.0241"
         style="font-size:67.56232452px;font-style:normal;font-variant:normal;font-weight:normal;font-stretch:normal;fill:#000000;fill-opacity:1;stroke:none;font-family:Vegur;-inkscape-font-specification:Vegur"
         id="path3255" />
      <path
         inkscape:connector-curvature="0"
         d="m 843.77424,1790.8201 0,2.0987 -5.32645,0 0,4.333 5.32645,0 0,28.4346 5.66355,0 0,-28.4346 8.3605,0 0,-4.333 -8.3605,0 0,-2.9788 c 0,-5.89 2.49467,-9.3428 7.01203,-9.3428 2.09012,0 3.43859,0.3385 4.71964,0.8124 l 0.53938,-4.1975 c -1.21362,-0.4739 -3.50601,-0.9478 -5.32644,-0.9478 -8.02337,0 -12.60816,5.213 -12.60816,14.5558"
         style="font-size:67.56232452px;font-style:normal;font-variant:normal;font-weight:normal;font-stretch:normal;fill:#000000;fill-opacity:1;stroke:none;font-family:Vegur;-inkscape-font-specification:Vegur"
         id="path3257" />
      <path
         inkscape:connector-curvature="0"
         d="m 862.60286,1790.8201 0,2.0987 -5.32645,0 0,4.333 5.32645,0 0,28.4346 5.66355,0 0,-28.4346 8.3605,0 0,-4.333 -8.3605,0 0,-2.9788 c 0,-5.89 2.49467,-9.3428 7.01204,-9.3428 2.09011,0 3.43858,0.3385 4.71963,0.8124 l 0.53939,-4.1975 c -1.21362,-0.4739 -3.50603,-0.9478 -5.32645,-0.9478 -8.02337,0 -12.60816,5.213 -12.60816,14.5558"
         style="font-size:67.56232452px;font-style:normal;font-variant:normal;font-weight:normal;font-stretch:normal;fill:#000000;fill-opacity:1;stroke:none;font-family:Vegur;-inkscape-font-specification:Vegur"
         id="path3259" />
      <path
         inkscape:connector-curvature="0"
         d="m 883.18692,1825.6864 5.66356,0 0,-32.7676 -5.66356,0 0,32.7676 m 2.83178,-37.5743 c 1.95528,0 3.50601,-1.5571 3.50601,-3.5205 0,-1.9633 -1.55073,-3.5205 -3.50601,-3.5205 -1.95528,0 -3.50601,1.5572 -3.50601,3.5205 0,1.9634 1.55073,3.5205 3.50601,3.5205"
         style="font-size:67.56232452px;font-style:normal;font-variant:normal;font-weight:normal;font-stretch:normal;fill:#000000;fill-opacity:1;stroke:none;font-family:Vegur;-inkscape-font-specification:Vegur"
         id="path3261" />
      <path
         inkscape:connector-curvature="0"
         d="m 900.62683,1809.1673 c 0,-8.2596 4.9219,-12.5925 11.32712,-12.5925 3.37116,0 6.3378,0.8124 8.76503,1.9633 l 0.53939,-4.3329 c -2.0227,-1.0155 -5.25903,-1.9634 -8.83246,-1.9634 -10.1135,0 -17.73234,6.1609 -17.73234,17.6702 0,10.8322 6.87719,16.4514 15.97933,16.4514 4.0454,0 6.9446,-0.4738 10.24835,-1.8956 l -0.53938,-4.3329 c -2.83179,1.2864 -5.86584,1.8956 -8.69761,1.8956 -6.54006,0 -11.05743,-4.1298 -11.05743,-12.8632"
         style="font-size:67.56232452px;font-style:normal;font-variant:normal;font-weight:normal;font-stretch:normal;fill:#000000;fill-opacity:1;stroke:none;font-family:Vegur;-inkscape-font-specification:Vegur"
         id="path3263" />
      <path
         inkscape:connector-curvature="0"
         d="m 953.20391,1810.589 c 0.13484,-1.2186 0.20227,-2.2341 0.20227,-3.2497 0,-8.395 -4.38252,-15.0975 -12.81043,-15.0975 -9.10215,0 -15.77707,7.5826 -15.77707,17.6702 0,11.103 6.67492,16.4514 15.77707,16.4514 4.04539,0 7.07945,-0.6092 10.24834,-1.8956 l -0.53938,-4.3329 c -2.49466,1.2186 -6.06811,1.8956 -8.89989,1.8956 -6.54006,0 -10.78773,-3.9943 -10.92257,-11.4415 l 22.72166,0 m -13.08013,-14.0142 c 4.98933,0 7.68626,4.1298 7.68626,9.5459 l -17.0581,0 c 0.80907,-5.7546 3.97798,-9.5459 9.37184,-9.5459"
         style="font-size:67.56232452px;font-style:normal;font-variant:normal;font-weight:normal;font-stretch:normal;fill:#000000;fill-opacity:1;stroke:none;font-family:Vegur;-inkscape-font-specification:Vegur"
         id="path3265" />
    </g>
    <g
       style="display:inline"
       inkscape:export-ydpi="382.10526"
       inkscape:export-xdpi="382.10526"
       id="g2917"
       transform="matrix(0.27133279,0,0,0.27133279,-184.9585,714.07604)">
      <path
         inkscape:connector-curvature="0"
         style="font-size:medium;font-style:normal;font-variant:normal;font-weight:normal;font-stretch:normal;text-indent:0;text-align:start;text-decoration:none;line-height:normal;letter-spacing:normal;word-spacing:normal;text-transform:none;direction:ltr;block-progression:tb;writing-mode:lr-tb;text-anchor:start;color:#000000;fill:#000000;fill-opacity:1;fill-rule:evenodd;stroke:none;stroke-width:3.86823654;marker:none;visibility:visible;display:inline;overflow:visible;enable-background:accumulate;font-family:Andale Mono;-inkscape-font-specification:Andale Mono"
         d="m 746.51855,1098.7256 c -0.75464,-0.019 -1.49809,0.4529 -1.79306,1.1382 -0.29499,0.6853 -0.12281,1.5407 0.4153,2.0629 l 16.19626,16.2475 c 0.52235,0.5232 1.37287,0.6967 2.06271,0.4206 0.68985,-0.276 1.1775,-0.985 1.18266,-1.7192 l 0,-16.2776 c 0.002,-0.9808 -0.90388,-1.8741 -1.89823,-1.8724 l -16.16564,0 z"
         id="path2919"
         sodipodi:nodetypes="csccscccc"
         inkscape:export-xdpi="90"
         inkscape:export-ydpi="90" />
      <path
         inkscape:connector-curvature="0"
         inkscape:export-ydpi="90"
         inkscape:export-xdpi="90"
         id="path2921"
         d="m 701.98449,1098.725 c -0.99608,0.014 -1.89207,0.9251 -1.89033,1.9213 l 0,74.1569 c -0.002,0.9961 0.89428,1.9067 1.89033,1.9212 l 60.67658,0 c 1.00641,0 1.92292,-0.9148 1.92132,-1.9212 l 0,-47.7542 c 0.003,-0.504 -0.20246,-1.0061 -0.5578,-1.3635 l -26.24773,-26.3717 c -0.35229,-0.3665 -0.85519,-0.5837 -1.36352,-0.5888 l -34.42885,0 z"
         style="font-size:medium;font-style:normal;font-variant:normal;font-weight:normal;font-stretch:normal;text-indent:0;text-align:start;text-decoration:none;line-height:normal;letter-spacing:normal;word-spacing:normal;text-transform:none;direction:ltr;block-progression:tb;writing-mode:lr-tb;text-anchor:start;color:#000000;fill:#ffffff;fill-opacity:1;fill-rule:evenodd;stroke:none;stroke-width:3.86823654;marker:none;visibility:visible;display:inline;overflow:visible;enable-background:accumulate;font-family:Andale Mono;-inkscape-font-specification:Andale Mono"
         sodipodi:nodetypes="ccccccccccc" />
      <path
         inkscape:connector-curvature="0"
         style="font-size:medium;font-style:normal;font-variant:normal;font-weight:normal;font-stretch:normal;text-indent:0;text-align:start;text-decoration:none;line-height:normal;letter-spacing:normal;word-spacing:normal;text-transform:none;direction:ltr;block-progression:tb;writing-mode:lr-tb;text-anchor:start;color:#000000;fill:#000000;fill-opacity:1;fill-rule:evenodd;stroke:none;stroke-width:3.86823654;marker:none;visibility:visible;display:inline;overflow:visible;enable-background:accumulate;font-family:Andale Mono;-inkscape-font-specification:Andale Mono"
         d="m 701.98449,1098.725 a 1.9181599,1.9181599 0 0 0 -1.89033,1.9213 l 0,74.1569 a 1.9181599,1.9181599 0 0 0 1.89033,1.9212 l 60.67658,0 a 1.9181599,1.9181599 0 0 0 1.92132,-1.9212 l 0,-47.7542 a 1.9181599,1.9181599 0 0 0 -0.5578,-1.3635 l -26.24773,-26.3717 a 1.9181599,1.9181599 0 0 0 -1.36352,-0.5888 l -34.42885,0 z m 1.92133,3.8426 31.7018,0 25.13213,25.2562 0,45.058 -56.83393,0 0,-70.3142 z"
         id="path2923"
         inkscape:export-xdpi="90"
         inkscape:export-ydpi="90" />
    </g>
  </g>
</svg>
