<svg xmlns="http://www.w3.org/2000/svg" width="120" height="60"><style><![CDATA[.B{fill:#ed2d2d}.C{fill:#fefefe}]]></style><g fill-rule="evenodd" transform="matrix(.621306 0 0 .621306 14.449255 19.147647)"><path d="M134.365 7.06h10.4a1.86 1.86 0 0 1 1.854 1.867v16.8c0 1.03-.83 1.867-1.854 1.867h-10.4a1.861 1.861 0 0 1-1.855-1.867v-16.8a1.86 1.86 0 0 1 1.855-1.866" class="B"/><path d="M139.525 21.286h-2.17v-7.7h1.88c3.176 0 3.118 7.7.3 7.7m-.36-9.837h-4.193v12.036h4.193c6.685 0 6.415-12.036 0-12.036" class="C"/><path d="M119.66 6.48h10.392a1.86 1.86 0 0 1 1.855 1.866v18.228a1.86 1.86 0 0 1-1.855 1.867H119.66a1.86 1.86 0 0 1-1.855-1.867V8.346c0-1.03.83-1.867 1.855-1.867" class="B"/><path d="M121.138 11.45v12.035h6.724v-2.04h-4.56V18.4h4.56v-1.964h-4.6l-.038-2.917h4.637v-2.06z" class="C"/><path d="M104.967 4.93h10.35a1.86 1.86 0 0 1 1.854 1.866v20.456a1.86 1.86 0 0 1-1.855 1.867h-10.35a1.86 1.86 0 0 1-1.854-1.867V6.796a1.86 1.86 0 0 1 1.854-1.866" class="B"/><path d="M108.314 23.422h2.348l.01-9.97h2.584v-2.297h-7.66v2.285l2.73.012z" class="C"/><path d="M90.204 3.58h10.447a1.86 1.86 0 0 1 1.855 1.867V30.16a1.86 1.86 0 0 1-1.855 1.866H90.204a1.86 1.86 0 0 1-1.855-1.866V5.447c0-1.03.83-1.866 1.855-1.866" class="B"/><path d="M93.7 19.122l1.337-4.92 1.338 4.92H93.7zm2.696-7.967h-2.802L89.97 23.422h2.474l.676-2.042h3.864l.54 2.042h2.493z" class="C"/><path d="M75.6 0h10.228a1.86 1.86 0 0 1 1.855 1.867v31.2a1.86 1.86 0 0 1-1.855 1.867H75.6a1.86 1.86 0 0 1-1.855-1.866v-31.2C73.746.836 74.576 0 75.6 0" class="B"/><path d="M83.46 15.066l1.836-.992c-1.39-3.403-4.568-3.528-6.88-1.983-2.59 1.73-3.825 8.925 1.14 11.297 3.246 1.225 5.372-1.128 5.74-2.78a38.78 38.78 0 0 0-2.029-.856c-1.256 3.5-5.565.855-4.49-3.525 1.15-4.68 4.53-2.192 4.684-1.16" class="C"/><path d="M71.205 34.934h-10.4a1.86 1.86 0 0 1-1.854-1.867v-31.2A1.86 1.86 0 0 1 60.795 0h10.4a1.86 1.86 0 0 1 1.855 1.867v31.2a1.86 1.86 0 0 1-1.855 1.867" class="B"/><path d="M64.506 23.388h2.183V11.333h-2.183z" class="C"/><path d="M56.51 32.026H46.06a1.86 1.86 0 0 1-1.855-1.867V5.372a1.86 1.86 0 0 1 1.855-1.866h10.45a1.86 1.86 0 0 1 1.855 1.866V30.16a1.86 1.86 0 0 1-1.855 1.867" class="B"/><path d="M48.507 11.332v12.056h6.24v-1.906h-4.064v-10.15z" class="C"/><path d="M41.83 29.188H31.313a1.86 1.86 0 0 1-1.855-1.867V6.865a1.86 1.86 0 0 1 1.855-1.866H41.83a1.86 1.86 0 0 1 1.855 1.866V27.32a1.86 1.86 0 0 1-1.855 1.867" class="B"/><path d="M37.223 16.952h-2.01v-3.48h2c2.01 0 2.01 3.48 0 3.48m.965-5.62h-5.197v12.056h2.26v-4.132c7.422.75 7.42-7.263 2.937-7.924" class="C"/><path d="M26.983 28.455h-10.25a1.861 1.861 0 0 1-1.855-1.867V8.36c0-1.03.83-1.866 1.855-1.866h10.25a1.86 1.86 0 0 1 1.855 1.866v18.228a1.86 1.86 0 0 1-1.855 1.867" class="B"/><path d="M18.114 11.45v12.035h6.724v-2.04h-4.56V18.4h4.56v-1.964H20.24l-.038-2.917h4.637v-2.06z" class="C"/><path d="M12.434 27.874H1.855A1.86 1.86 0 0 1 0 26.007v-16.8a1.86 1.86 0 0 1 1.855-1.866h10.58a1.86 1.86 0 0 1 1.854 1.866v16.8a1.86 1.86 0 0 1-1.854 1.867z" class="B"/><path d="M7.5 17.156H5.52v-3.43H7.5c1.876 0 1.98 3.43 0 3.43zm1.7 1.78c2.95-.82 3.016-7.378-1.23-7.378H3.068v12.096h2.47v-4.363h1.297l1.825 4.363h2.84z" class="C"/></g></svg>