<?xml version="1.0" encoding="utf-8"?>
<!-- Generator: Adobe Illustrator 24.1.0, SVG Export Plug-In . SVG Version: 6.00 Build 0)  -->
<svg version="1.1" id="Layer_1" xmlns="http://www.w3.org/2000/svg" xmlns:xlink="http://www.w3.org/1999/xlink" x="0px" y="0px"
	 viewBox="0 0 64 64" width="64" height="64" style="enable-background:new 0 0 64 64;" xml:space="preserve">
<g id="Atoms_x2F_Branding_x2F_Logo" transform="translate(36.000000, 0.000000)">
	<path d="M23,14.6L-1.2,0.7C-2.1,0.2-3,0-4,0c-1,0-1.9,0.2-2.8,0.7L-31,14.6c-1.7,1-2.8,2.8-2.8,4.7v27.6c0,1.9,1.1,3.7,2.8,4.7
		l20.3,11.6c0.8,0.5,1.8,0.7,2.7,0.7c0.1,0,0.2,0,0.3,0c2.9-0.1,5.3-2.5,5.3-5.4l0-4l0.1-0.2C0.6,47.7,2.7,43,4,40.5
		c0.5-1,1.1-1.9,2.2-3.3c0.1-0.1,0.6-0.7,0.7-0.9c2.6-3.3,3.7-5.6,3.7-9.4c0-7.9-6.5-14.3-14.5-14.3S-18.4,19.1-18.4,27
		c0,3.6,0.9,5.9,3.2,9c0.2,0.2,0.9,1.2,1.1,1.5c0.9,1.2,1.5,2.1,2,3.2c1.2,2.6,3.3,6.9,6.3,13l0,4.9c0,1.1-0.9,2-2,2
		c-0.4,0-0.7-0.1-1-0.3l-20.3-11.6c-0.6-0.4-1-1-1-1.7V19.3c0-0.7,0.4-1.4,1-1.7L-5,3.7c0.6-0.4,1.4-0.4,2,0l24.2,13.8
		c0.6,0.4,1,1,1,1.7v27.6c0,0.7-0.4,1.4-1,1.7L5,57.9c-0.8,0.5-1.1,1.5-0.6,2.4c0.4,0.6,1,0.9,1.7,0.9c0.2,0,0.5-0.1,0.7-0.2
		L23,51.7c1.7-1,2.8-2.8,2.8-4.7V19.3C25.7,17.3,24.7,15.5,23,14.6z M-9,39.2c-0.6-1.3-1.3-2.4-2.3-3.8c-0.2-0.3-0.9-1.3-1.1-1.5
		c-1.9-2.5-2.5-4.2-2.5-7c0-6,4.9-10.9,11-10.9S7.2,21,7.2,27c0,2.8-0.8,4.4-3,7.2c-0.1,0.2-0.6,0.7-0.7,0.9
		c-1.2,1.5-1.9,2.5-2.6,3.8c-0.8,1.6-1.9,3.9-3.2,6.8l0-13.3c2.1-0.7,3.6-2.6,3.6-4.9c0-2.9-2.3-5.2-5.2-5.2s-5.2,2.3-5.2,5.2
		c0,2.2,1.4,4.1,3.3,4.8l0,13.4C-7.2,42.9-8.2,40.7-9,39.2z"/>
</g>
</svg>
