<svg xmlns="http://www.w3.org/2000/svg" viewBox="-2.34 -0.42 120 60" width="120" height="60"><g transform="matrix(.969806 0 0 .969806 2.007312 .893147)"><g fill-rule="evenodd"><path d="M52.477 32.15a5.79 5.79 0 0 1-.357 2.069c-.238.628-.574 1.168-1.008 1.62s-.955.804-1.565 1.053-1.282.374-2.02.374-1.41-.125-2.016-.374-1.127-.6-1.56-1.053-.77-.993-1.008-1.62a5.79 5.79 0 0 1-.357-2.069 5.79 5.79 0 0 1 .357-2.068c.238-.628.574-1.17 1.008-1.624a4.53 4.53 0 0 1 1.561-1.06c.607-.252 1.28-.378 2.016-.378s1.4.126 2.02.378 1.13.605 1.565 1.06.77.996 1.008 1.624a5.79 5.79 0 0 1 .357 2.068zm-1.393 0c0-.616-.084-1.17-.252-1.66s-.406-.904-.714-1.242a3.1 3.1 0 0 0-1.12-.781c-.44-.182-.93-.273-1.47-.273s-1.024.09-1.463.273a3.13 3.13 0 0 0-1.123.781 3.48 3.48 0 0 0-.718 1.242c-.168.5-.252 1.043-.252 1.66s.084 1.168.252 1.655.407.9.718 1.24.685.597 1.124.777.926.27 1.463.27 1.03-.1 1.47-.27a3.06 3.06 0 0 0 1.12-.777c.308-.338.546-.75.714-1.24s.252-1.04.252-1.655zm4.15 3.304c.23.308.478.525.75.65a2.13 2.13 0 0 0 .91.189c.663 0 1.17-.236 1.526-.707s.532-1.143.532-2.016a5.03 5.03 0 0 0-.122-1.19c-.082-.33-.2-.603-.354-.815s-.343-.367-.567-.465-.478-.147-.763-.147c-.406 0-.762.093-1.068.28s-.587.45-.843.79zm-.063-4.284c.3-.37.644-.665 1.036-.89a2.66 2.66 0 0 1 1.344-.336c.41 0 .782.078 1.113.235a2.28 2.28 0 0 1 .847.693c.233.306.413.685.54 1.138s.19.973.19 1.56c0 .523-.07 1.01-.2 1.46s-.342.84-.605 1.17-.586.588-.966.777-.808.284-1.285.284c-.434 0-.806-.074-1.117-.22s-.584-.35-.822-.612v3.136h-1.253v-9.492h.75c.177 0 .287.086.33.26zm11.403 1.673c0-.29-.04-.554-.123-.795s-.2-.448-.357-.623-.346-.3-.57-.406-.478-.144-.763-.144c-.597 0-1.07.174-1.417.522s-.564.83-.648 1.446zm1.008 3.325c-.154.187-.338.35-.553.486s-.444.25-.7.34a4.38 4.38 0 0 1-.759.2 4.64 4.64 0 0 1-.777.066c-.5 0-.94-.083-1.355-.248s-.77-.408-1.07-.728a3.34 3.34 0 0 1-.704-1.186c-.168-.47-.252-1.013-.252-1.624 0-.495.076-.957.227-1.386s.37-.8.654-1.117.632-.562 1.043-.742.873-.27 1.386-.27c.425 0 .818.07 1.18.213s.674.348.938.616.47.6.62.994.224.843.224 1.348c0 .196-.02.327-.063.392s-.12.098-.238.098h-4.74c.014.448.076.838.185 1.17s.262.608.46.83a1.85 1.85 0 0 0 .7.497c.27.1.574.164.9.164a2.67 2.67 0 0 0 .809-.108c.226-.072.42-.15.584-.234l.4-.234c.1-.072.204-.11.284-.11.103 0 .182.04.238.12zm2.814-5.068c.154-.173.317-.33.5-.47a3.23 3.23 0 0 1 .549-.361 2.79 2.79 0 0 1 .616-.231c.217-.054.45-.08.704-.08a2.56 2.56 0 0 1 1.025.192c.296.128.544.3.742.546a2.41 2.41 0 0 1 .451.85 3.7 3.7 0 0 1 .154 1.099v4.515h-1.253v-4.515c0-.537-.122-.953-.368-1.25s-.617-.445-1.117-.445c-.37 0-.713.09-1.032.266a3.4 3.4 0 0 0-.885.721v5.222H69.22v-7.09h.75c.177 0 .287.086.33.26zm19.285-3.97l-3.13 10.03h-1.218l-2.54-7.65-.066-.238-.067-.266-.07.266-.07.238-2.555 7.65h-1.218l-3.13-10.03h1.127c.12 0 .223.03.305.09s.134.138.157.23l2.072 6.972.094.406.088.462.102-.465.115-.403 2.36-6.972c.028-.08.083-.153.165-.22a.45.45 0 0 1 .297-.101h.392c.12 0 .22.03.294.09a.56.56 0 0 1 .168.231l2.352 6.972.115.392.102.44.077-.44.09-.392 2.08-6.972c.023-.084.076-.16.157-.224a.46.46 0 0 1 .297-.098zm2.387 3.885c.303-.322.64-.58 1.008-.77s.793-.287 1.274-.287a2.56 2.56 0 0 1 1.026.192c.296.128.544.3.742.546a2.41 2.41 0 0 1 .451.851 3.7 3.7 0 0 1 .154 1.099v4.515H95.47v-4.515c0-.537-.122-.953-.368-1.25s-.617-.444-1.117-.444c-.37 0-.713.09-1.032.266a3.4 3.4 0 0 0-.885.721v5.222h-1.253v-10.31h1.253zm7.875-.945v7.09h-1.246v-7.09zm.266-2.226c0 .12-.024.234-.073.34s-.114.198-.196.28a.9.9 0 0 1-.287.192c-.1.047-.225.07-.346.07s-.234-.023-.34-.07a.88.88 0 0 1-.276-.192c-.08-.082-.142-.175-.19-.28s-.07-.218-.07-.34.023-.237.07-.346a.93.93 0 0 1 .189-.287.88.88 0 0 1 .276-.193c.105-.047.218-.07.34-.07s.237.023.346.07a.9.9 0 0 1 .287.193.95.95 0 0 1 .196.287.84.84 0 0 1 .073.346zm5.908 3.395c-.056.103-.142.154-.26.154-.07 0-.15-.026-.238-.077l-.325-.172c-.128-.063-.28-.12-.46-.175s-.387-.08-.63-.08a1.86 1.86 0 0 0-.567.081 1.36 1.36 0 0 0-.43.221c-.12.093-.2.202-.273.325s-.094.258-.094.402a.67.67 0 0 0 .157.455 1.37 1.37 0 0 0 .416.315 3.63 3.63 0 0 0 .588.235l.675.217.675.255a2.45 2.45 0 0 1 .588.35 1.6 1.6 0 0 1 .416.514c.105.203.157.447.157.732 0 .327-.058.63-.175.906a1.98 1.98 0 0 1-.518.721c-.23.203-.51.363-.84.48s-.714.175-1.148.175a3.58 3.58 0 0 1-1.344-.242c-.4-.16-.742-.367-1.022-.62l.294-.476c.037-.06.082-.107.133-.14s.117-.05.196-.05.173.033.266.098l.34.217c.133.08.295.152.487.217s.43.098.714.098c.243 0 .455-.03.637-.094s.334-.148.455-.255a1.01 1.01 0 0 0 .269-.371c.058-.14.088-.29.088-.448 0-.196-.052-.358-.157-.486a1.33 1.33 0 0 0-.416-.329c-.173-.09-.37-.17-.59-.238l-.68-.214-.68-.255c-.222-.096-.42-.216-.59-.36s-.312-.323-.416-.535-.157-.47-.157-.774c0-.27.056-.53.168-.78s.275-.47.5-.658.478-.34.79-.452.67-.168 1.07-.168c.467 0 .885.074 1.257.22s.692.35.962.605zm3.185-4.39v6.07h.322c.093 0 .17-.013.234-.038a.57.57 0 0 0 .2-.158l2.24-2.4a.84.84 0 0 1 .206-.185c.072-.044.17-.067.29-.067h1.127l-2.61 2.78c-.126.16-.26.282-.406.37a1.29 1.29 0 0 1 .227.192 1.79 1.79 0 0 1 .192.248l2.772 3.5h-1.113c-.107 0-.2-.017-.276-.053s-.144-.1-.2-.193l-2.33-2.905c-.07-.098-.14-.162-.206-.192s-.172-.045-.312-.045h-.357v3.388h-1.253v-10.31z" fill="#29558f"/><path d="M46.418 22.806l-.745-1.95c-.054-.133-.107-.3-.16-.504l-.08.28-.08.23-.742 1.943zm1.474 1.872h-.574c-.065 0-.12-.016-.16-.05s-.072-.075-.09-.126l-.444-1.166h-2.215l-.445 1.166c-.016.044-.047.085-.09.12s-.098.054-.16.054h-.574l2.002-5.026h.752zm3.024-2.44c.19 0 .355-.025.5-.074s.264-.118.36-.208.17-.197.22-.322.074-.263.074-.415c0-.306-.095-.546-.285-.72s-.48-.263-.866-.263h-.777v2.002zm0-2.587c.322 0 .602.037.84.112s.435.18.592.317.272.302.348.495.114.408.114.644a1.68 1.68 0 0 1-.122.649 1.39 1.39 0 0 1-.361.509 1.65 1.65 0 0 1-.593.331c-.237.078-.51.117-.817.117h-.777v1.85h-.745v-5.026zm5.908 3.154l-.745-1.95c-.054-.133-.107-.3-.16-.504l-.08.28-.08.23-.742 1.943zm1.473 1.872h-.574c-.065 0-.12-.016-.16-.05s-.072-.075-.09-.126l-.445-1.166H54.81l-.444 1.166c-.016.044-.047.085-.09.12s-.098.054-.16.054h-.574l2.002-5.026h.753zm4.876-1.078c.042 0 .078.016.108.05l.294.322a2.1 2.1 0 0 1-.751.563c-.295.133-.65.2-1.066.2-.364 0-.694-.063-.99-.19s-.547-.302-.756-.53-.37-.497-.485-.812-.172-.66-.172-1.04.06-.724.18-1.04.29-.586.506-.812a2.28 2.28 0 0 1 .779-.528 2.58 2.58 0 0 1 1.003-.189c.357 0 .674.058.952.175a2.4 2.4 0 0 1 .724.465l-.245.346a.21.21 0 0 1-.061.063c-.025.016-.057.025-.096.025s-.096-.022-.156-.067a2.29 2.29 0 0 0-.234-.149 1.85 1.85 0 0 0-.359-.149c-.142-.044-.32-.066-.532-.066a1.75 1.75 0 0 0-.686.131 1.52 1.52 0 0 0-.537.378c-.15.165-.267.366-.35.605s-.124.51-.124.8.043.577.13.816.205.44.357.605.33.292.535.378a1.7 1.7 0 0 0 .665.13c.145 0 .275-.01.4-.026s.222-.044.32-.08.188-.08.275-.135.172-.12.256-.198c.02-.016.038-.03.06-.04s.043-.016.066-.016zm6.146-3.948v5.026h-.746v-2.264h-2.62v2.264h-.75v-5.026h.75v2.22h2.62v-2.22zm5.236 4.42l-.004.605h-3.115v-5.026h3.115v.605h-2.366v1.593h1.904v.584h-1.904v1.638z" fill="#325c80"/></g><path d="M19.04 42.075L6.8 20.206.673 31.144l6.12 10.935z" fill="#325c80"/><path d="M19.04 42.075l6.127-10.933-12.247.004z" fill="#5aaafa"/><path d="M20.402 17.085l6.18 10.927-12.25.006z" fill="#6eedd8"/><path d="M32.76 38.954l-12.358-21.87 12.365-.004 6.18 10.935z" fill="#008571"/></g></svg>