<?xml version="1.0" encoding="UTF-8" standalone="no"?>
<svg
   xmlns:dc="http://purl.org/dc/elements/1.1/"
   xmlns:cc="http://creativecommons.org/ns#"
   xmlns:rdf="http://www.w3.org/1999/02/22-rdf-syntax-ns#"
   xmlns:svg="http://www.w3.org/2000/svg"
   xmlns="http://www.w3.org/2000/svg"
   xmlns:sodipodi="http://sodipodi.sourceforge.net/DTD/sodipodi-0.dtd"
   xmlns:inkscape="http://www.inkscape.org/namespaces/inkscape"
   id="Layer_1"
   version="1.1"
   viewBox="0 0 120 60"
   xml:space="preserve"
   sodipodi:docname="apple_xcode-ar21.svg"
   width="120"
   height="60"
   inkscape:version="0.92.3 (2405546, 2018-03-11)"><metadata
     id="metadata69"><rdf:RDF><cc:Work
         rdf:about=""><dc:format>image/svg+xml</dc:format><dc:type
           rdf:resource="http://purl.org/dc/dcmitype/StillImage" /><dc:title></dc:title></cc:Work></rdf:RDF></metadata><defs
     id="defs67" /><sodipodi:namedview
     pagecolor="#ffffff"
     bordercolor="#666666"
     borderopacity="1"
     objecttolerance="10"
     gridtolerance="10"
     guidetolerance="10"
     inkscape:pageopacity="0"
     inkscape:pageshadow="2"
     inkscape:window-width="1920"
     inkscape:window-height="1001"
     id="namedview65"
     showgrid="false"
     inkscape:zoom="3.6277652"
     inkscape:cx="64.229651"
     inkscape:cy="33.066501"
     inkscape:window-x="-9"
     inkscape:window-y="-9"
     inkscape:window-maximized="1"
     inkscape:current-layer="Layer_1" /><style
     type="text/css"
     id="style2">
	.st0{fill:#235EE1;}
</style><g
     id="g979"
     transform="translate(1.5640123)"><g
       transform="matrix(0.11264189,0,0,0.11264189,3.3761467,8.9969991)"
       id="g62"><path
         style="fill:#235ee1"
         inkscape:connector-curvature="0"
         id="path4"
         d="m 268.5,158.5 c 0.7,-2.2 1.3,-4.1 1.8,-6 6,-21.6 12.1,-43.2 20.4,-64.1 3.7,-9.4 10,-14.7 19.8,-15.8 6.5,-0.7 13.4,-1.3 17.8,4.9 2.9,3.9 6.2,6.2 10.9,7 2.2,0.3 4.4,0.9 6.5,1.7 2.9,1.1 4,-0.1 4.8,-2.8 2.5,-8.8 5.1,-17.5 7.7,-26.2 2.9,-9.9 2.9,-9.8 -6.7,-13.2 -4,-1.4 -7.6,-2 -11.8,-0.2 -6.8,2.8 -13,1.7 -18.5,-3.8 -5.8,-5.8 -12.4,-10.3 -20.3,-13.1 -22.7,-7.9 -46,-11.4 -69.9,-7.6 -11.5,1.8 -22.7,4.9 -32.4,11.8 -1.4,1 -2.5,2.2 -3.8,3.4 13.2,-1.1 25.9,-1.3 38.6,0.4 8.6,1.1 16.3,4 22,11.3 6,7.7 7.4,16.8 8.2,26 1.1,12.9 -1.3,25.3 -4.9,37.6 -3.8,13 -7.4,26.2 -11.1,39.2 -0.5,1.7 -0.9,3.2 1.4,3.8 6.4,1.9 12.7,3.7 19.5,5.7 z"
         class="st0" /><path
         style="fill:#235ee1"
         inkscape:connector-curvature="0"
         id="path6"
         d="m 207,355.1 c 6.3,0.5 11.4,-2.4 14.6,-8 1.9,-3.3 3.4,-7 4.3,-10.7 9.6,-39.7 19.1,-79.4 28.6,-119.2 3.9,-16.5 7.6,-33 11.6,-49.5 0.8,-3.2 0,-4.5 -3.1,-5.2 -4.2,-1 -8.4,-2.2 -12.6,-3.5 -7.7,-2.3 -6.2,-2 -8.5,4.4 C 223,217.3 204,271.1 185.1,325 c -0.8,2.2 -1.5,4.6 -1.6,6.9 -0.6,13.6 9,23.1 23.5,23.2 z"
         class="st0" /><path
         style="fill:#235ee1"
         inkscape:connector-curvature="0"
         id="path8"
         d="m 13,115.2 c 0.4,3.3 0.8,6.1 1.2,8.8 2.9,19.2 5.9,38.4 8.7,57.6 2.9,19.3 5.7,38.7 8.5,58 2.9,19.5 5.8,38.9 8.8,58.4 1.8,12.3 3.7,24.6 5.5,37 0.4,2.6 1.3,3.8 4.4,3.3 18.2,-3 36.4,-5.9 54.6,-8.7 26,-4.1 51.9,-8 77.9,-12.1 1,-0.2 1.8,-1.4 2.7,-2.2 -1.1,-0.6 -2.4,-1.7 -3.4,-1.6 -14.2,2 -28.3,4.2 -42.5,6.4 -28.7,4.5 -57.4,8.9 -86,13.5 -3,0.5 -4,-0.2 -4.4,-3.1 C 47.3,318 45.5,305.6 43.6,293.2 39.5,265.6 35.2,238 31.1,210.5 c -4.5,-30 -8.9,-60.1 -13.5,-90.2 -0.5,-3.3 0.6,-4.8 3.9,-5.2 5.8,-0.8 11.6,-1.8 17.3,-2.7 23.6,-3.8 47.2,-7.7 70.8,-11.5 20.6,-3.4 41.3,-6.8 61.9,-10.2 19.2,-3.1 38.3,-6.2 57.5,-9.4 9,-1.5 17.9,-2.9 26.9,-4.6 1.1,-0.2 1.9,-1.8 2.8,-2.7 -1.2,-0.5 -2.4,-1 -3.6,-1.4 -0.3,-0.1 -0.7,0.1 -1.1,0.2 -11.2,1.9 -22.4,3.8 -33.5,5.6 -23.6,3.9 -47.2,7.7 -70.8,11.6 -22,3.6 -44,7.3 -66,10.9 -22.6,3.7 -45.2,7.5 -67.8,11.1 -2.5,0.4 -3.8,1.1 -2.9,3.2 z"
         class="st0" /><path
         style="fill:#235ee1"
         inkscape:connector-curvature="0"
         id="path10"
         d="m 298,82 c -0.6,0 -1.2,0 -1.8,-0.1 -0.3,2.5 -1.2,5.1 -0.9,7.6 1.1,8.1 2.7,16.2 4,24.3 3.6,21.7 7.2,43.5 10.8,65.2 3.6,21.7 7.2,43.5 10.9,65.2 2.3,13.9 4.7,27.8 7,41.6 0.4,2.1 0,3.6 -2.6,4 -19.2,3 -38.4,6 -57.6,9 -9.1,1.4 -18.2,2.9 -27.3,4.5 -0.8,0.1 -1.5,1.4 -2.2,2.2 1,0.5 1.9,1.4 2.8,1.4 2.9,-0.2 5.7,-0.7 8.5,-1.1 21.3,-3.4 42.6,-6.8 63.8,-10.2 6.4,-1 12.7,-2.1 19.6,-3.2 C 321.4,222.1 309.7,152.1 298,82 Z"
         class="st0" /><path
         style="fill:#235ee1"
         inkscape:connector-curvature="0"
         id="path12"
         d="m 222.1,208 c 2.3,-2.3 1.9,-4 0.3,-5.9 -6.3,-7.5 -12.4,-15 -18.7,-22.5 -17.5,-21.1 -35.1,-42.3 -52.6,-63.5 -1.4,-1.7 -2.6,-4 -3,-6.2 -0.7,-4.3 2.2,-8.2 6.4,-9.9 4.5,-1.7 8.4,-0.5 12.2,4 17.2,20.6 34.5,41.2 51.7,61.8 4.1,4.9 8.3,9.8 12.6,14.9 2.2,-2.3 1.9,-4 0.3,-5.9 -6.9,-8.2 -13.8,-16.5 -20.7,-24.7 -13.9,-16.6 -27.7,-33.2 -41.7,-49.6 -5.6,-6.5 -14.1,-6.9 -20.3,-1.5 -6.1,5.3 -6.4,12.8 -0.7,19.6 21.6,26.1 43.2,52.1 64.8,78.2 3.1,3.8 6.2,7.4 9.4,11.2 z"
         class="st0" /><path
         style="fill:#235ee1"
         inkscape:connector-curvature="0"
         id="path14"
         d="m 153.1,165.9 c -0.7,-0.5 -1.5,-1.2 -2.4,-1.6 -6.9,-2.6 -13.8,-5 -20.7,-7.6 -2.2,-0.8 -3.2,0 -4,1.9 -12.6,31 -25.2,61.9 -37.8,92.9 -1,2.3 -0.3,3.4 1.8,4.2 6.5,2.6 13,5.1 19.4,8 3.5,1.6 4.9,0.8 6.2,-2.7 12,-30.7 24.2,-61.3 36.3,-91.9 0.3,-0.7 0.6,-1.7 1.2,-3.2 z"
         class="st0" /><path
         style="fill:#235ee1"
         inkscape:connector-curvature="0"
         id="path16"
         d="m 219,208.8 c -5,-6.3 -9.6,-11.5 -13.4,-17.1 -3.4,-5.2 -7.2,-7.9 -13.5,-5.3 -1.5,0.6 -3.2,0.6 -4.8,0.8 -13.4,2.3 -26.7,4.6 -40.1,6.9 -2.1,0.4 -3.9,0.9 -4.8,3.4 -2.6,7.4 -5.4,14.7 -8.1,22.1 -0.3,0.8 -0.3,1.8 -0.5,3.2 28.5,-4.6 56.3,-9.2 85.2,-14 z"
         class="st0" /><path
         style="fill:#235ee1"
         inkscape:connector-curvature="0"
         id="path18"
         d="m 106.6,199.9 c -16.4,2.7 -32,5.2 -48.1,7.8 1.1,7.5 2.3,14.6 3.1,21.8 0.4,3.1 1.7,3.5 4.5,3.1 8.2,-1.3 16.5,-2.4 24.8,-3.4 2.5,-0.3 4.1,-1.3 5.1,-3.6 3,-7.2 6.2,-14.4 9.3,-21.6 0.5,-1.2 0.7,-2.2 1.3,-4.1 z"
         class="st0" /><path
         style="fill:#235ee1"
         inkscape:connector-curvature="0"
         id="path20"
         d="m 282.4,262.3 c -9.8,-6 -19.5,-11.9 -30.1,-18.3 0.4,1.9 0.2,4.1 1.2,5.2 1.9,2.1 4.2,3.9 6.7,5.2 3.4,1.9 7,3.2 10.5,4.9 5.1,2.5 8.8,6.1 8.8,12.3 0,1 0.5,2 0.9,3.1 0.6,-0.3 0.8,-0.4 1,-0.5 0.3,-0.3 0.5,-0.6 0.7,-0.9 6,-8.9 6.4,-18.7 3.8,-28.7 -2.9,-11.2 -8.1,-20.9 -19,-26.5 -3,-1.5 -4.9,-0.2 -7.1,1.3 -2.3,1.6 -3.6,3.5 -3,6.9 1.6,-1 3,-1.7 4,-2.7 2.5,-2.6 4.8,-2 7.6,-0.2 11,7.7 17.9,27.1 14,38.9 z"
         class="st0" /><path
         style="fill:#235ee1"
         inkscape:connector-curvature="0"
         id="path22"
         d="m 81.3,304.2 c 0.4,0.2 0.8,0.4 1.2,0.5 9.9,-12.4 19.9,-24.8 30,-37.5 -1.5,-0.8 -2.4,-1.4 -3.4,-1.8 -6.4,-2.6 -12.8,-5 -19.1,-7.7 -3,-1.3 -3.9,-0.4 -4.1,2.7 -0.8,8.4 -1.8,16.8 -2.7,25.3 -0.7,6.2 -1.3,12.4 -1.9,18.5 z"
         class="st0" /><path
         style="fill:#235ee1"
         inkscape:connector-curvature="0"
         id="path24"
         d="m 145.8,131.8 c -5.8,0.6 -9.6,3 -11.8,8.1 -1.5,3.7 -2.9,7.4 -4.6,11 -1,2.1 -0.7,3.4 1.7,4.2 6.7,2.3 13.4,4.8 20,7.4 2.4,0.9 3.4,0.1 4.3,-2 1.5,-3.8 3.2,-7.6 4.8,-11.4 2.1,-5.1 1.2,-9.4 -3.4,-12.4 -3.3,-2.1 -7.3,-3.3 -11,-4.9 z"
         class="st0" /><path
         style="fill:#235ee1"
         inkscape:connector-curvature="0"
         id="path26"
         d="m 263.1,200.8 c 8.4,-1.1 16.7,-2.2 24.9,-3.5 0.7,-0.1 1.6,-1.9 1.5,-2.7 -1,-6.6 -2.2,-13.3 -3.6,-19.8 -0.2,-1 -1.9,-2.4 -2.9,-2.4 -4.2,0.3 -8.4,0.9 -12.6,1.6 -2.1,0.3 -3.6,1.3 -2.4,4.3 3.8,-0.5 7.7,-1.1 11.6,-1.4 0.9,-0.1 2.6,0.7 2.7,1.3 1.1,5 1.9,10.2 2.9,15.5 -6.5,0.9 -12.6,1.7 -18.6,2.5 -2.2,0.3 -4.2,0.8 -3.5,4.6 z"
         class="st0" /><path
         style="fill:#235ee1"
         inkscape:connector-curvature="0"
         id="path28"
         d="m 268.5,158.5 c -6.7,-2 -13.1,-3.8 -19.4,-5.6 -2.3,-0.7 -1.9,-2.1 -1.4,-3.8 3.7,-13.1 7.3,-26.2 11.1,-39.2 3.6,-12.3 6,-24.8 4.9,-37.6 -0.8,-9.2 -2.1,-18.2 -8.2,-26 -5.7,-7.3 -13.4,-10.2 -22,-11.3 -12.7,-1.7 -25.3,-1.5 -38.6,-0.4 1.3,-1.1 2.4,-2.4 3.8,-3.4 9.7,-6.9 20.9,-10 32.4,-11.8 24,-3.8 47.2,-0.2 69.9,7.6 7.9,2.7 14.5,7.3 20.3,13.1 5.5,5.5 11.7,6.6 18.5,3.8 4.2,-1.8 7.8,-1.2 11.8,0.2 9.6,3.4 9.6,3.3 6.7,13.2 -2.6,8.7 -5.2,17.4 -7.7,26.2 -0.8,2.7 -1.9,3.8 -4.8,2.8 -2.1,-0.8 -4.3,-1.4 -6.5,-1.7 -4.7,-0.7 -8.1,-3 -10.9,-7 -4.5,-6.1 -11.3,-5.6 -17.8,-4.9 -9.8,1.1 -16.1,6.4 -19.8,15.8 -8.3,20.9 -14.4,42.5 -20.4,64.1 -0.6,1.8 -1.2,3.6 -1.9,5.9 z"
         class="st0" /><path
         style="fill:#235ee1"
         inkscape:connector-curvature="0"
         id="path30"
         d="m 207,355.1 c -14.5,-0.1 -24,-9.5 -23.5,-23.2 0.1,-2.3 0.8,-4.7 1.6,-6.9 C 204,271.1 223,217.3 242,163.5 c 2.2,-6.4 0.8,-6.6 8.5,-4.4 4.2,1.2 8.4,2.5 12.6,3.5 3.1,0.7 3.9,2 3.1,5.2 -4,16.5 -7.7,33 -11.6,49.5 -9.5,39.7 -19,79.5 -28.6,119.2 -0.9,3.7 -2.4,7.4 -4.3,10.7 -3.3,5.5 -8.4,8.4 -14.7,7.9 z"
         class="st0" /><path
         style="fill:#235ee1"
         inkscape:connector-curvature="0"
         id="path32"
         d="m 13,115.2 c -0.9,-2.1 0.4,-2.8 3,-3.2 22.6,-3.6 45.2,-7.4 67.8,-11.1 22,-3.6 44,-7.3 66,-10.9 23.6,-3.9 47.2,-7.7 70.8,-11.6 11.2,-1.8 22.4,-3.7 33.5,-5.6 0.4,-0.1 0.8,-0.3 1.1,-0.2 1.2,0.4 2.4,0.9 3.6,1.4 -0.9,0.9 -1.7,2.5 -2.8,2.7 -8.9,1.7 -17.9,3.1 -26.9,4.6 -19.2,3.1 -38.3,6.2 -57.5,9.4 -20.6,3.4 -41.3,6.8 -61.9,10.2 -23.6,3.9 -47.2,7.7 -70.8,11.5 -5.8,0.9 -11.5,2 -17.3,2.7 -3.3,0.4 -4.4,1.9 -3.9,5.2 4.6,30 9,60.1 13.5,90.2 4.1,27.6 8.4,55.2 12.5,82.7 1.9,12.4 3.7,24.9 5.4,37.3 0.4,2.9 1.3,3.6 4.4,3.1 28.6,-4.6 57.3,-9 86,-13.5 14.2,-2.2 28.3,-4.4 42.5,-6.4 1,-0.1 2.3,1 3.4,1.6 -0.9,0.8 -1.7,2 -2.7,2.2 -25.9,4.1 -51.9,8.1 -77.9,12.1 -18.2,2.8 -36.4,5.7 -54.6,8.7 -3.1,0.5 -4,-0.7 -4.4,-3.3 C 44,322.7 42.2,310.4 40.3,298 37.4,278.5 34.4,259.1 31.5,239.6 28.6,220.3 25.8,200.9 23,181.6 20.1,162.4 17.2,143.2 14.3,124 13.8,121.3 13.4,118.6 13,115.2 Z"
         class="st0" /><path
         style="fill:#235ee1"
         inkscape:connector-curvature="0"
         id="path34"
         d="m 298,82 c 11.7,70 23.4,140 35.2,210.6 -6.9,1.1 -13.2,2.2 -19.6,3.2 -21.3,3.4 -42.5,6.8 -63.8,10.2 -2.8,0.4 -5.7,0.9 -8.5,1.1 -0.9,0.1 -1.9,-0.9 -2.8,-1.4 0.7,-0.8 1.4,-2 2.2,-2.2 9.1,-1.6 18.2,-3.1 27.3,-4.5 19.2,-3 38.4,-6.1 57.6,-9 2.6,-0.4 2.9,-1.9 2.6,-4 -2.3,-13.9 -4.7,-27.7 -7,-41.6 -3.6,-21.7 -7.2,-43.5 -10.9,-65.2 -3.6,-21.7 -7.2,-43.5 -10.8,-65.2 -1.4,-8.1 -2.9,-16.2 -4,-24.3 -0.3,-2.4 0.6,-5 0.9,-7.6 0.5,-0.1 1,-0.1 1.6,-0.1 z"
         class="st0" /><path
         style="fill:#235ee1"
         inkscape:connector-curvature="0"
         id="path36"
         d="m 222.1,208 c -3.2,-3.8 -6.3,-7.4 -9.4,-11.2 -21.6,-26.1 -43.2,-52.1 -64.8,-78.2 -5.7,-6.8 -5.4,-14.2 0.7,-19.6 6.3,-5.5 14.8,-5.1 20.3,1.5 14,16.4 27.8,33.1 41.7,49.6 6.9,8.2 13.7,16.5 20.7,24.7 1.6,1.9 2,3.6 -0.3,5.9 -4.3,-5.1 -8.5,-10 -12.6,-14.9 -17.2,-20.6 -34.5,-41.2 -51.7,-61.8 -3.8,-4.5 -7.7,-5.8 -12.2,-4 -4.3,1.7 -7.1,5.6 -6.4,9.9 0.3,2.2 1.5,4.5 3,6.2 17.5,21.2 35,42.3 52.6,63.5 6.2,7.5 12.4,15 18.7,22.5 1.6,1.9 2.1,3.6 -0.3,5.9 z"
         class="st0" /><path
         style="fill:#235ee1"
         inkscape:connector-curvature="0"
         id="path38"
         d="m 153.1,165.9 c -0.5,1.5 -0.8,2.4 -1.2,3.4 -12.1,30.6 -24.3,61.2 -36.3,91.9 -1.4,3.5 -2.7,4.3 -6.2,2.7 -6.3,-2.9 -12.9,-5.4 -19.4,-8 -2.2,-0.9 -2.8,-1.9 -1.8,-4.2 12.7,-30.9 25.3,-61.9 37.8,-92.9 0.8,-2 1.8,-2.8 4,-1.9 6.9,2.6 13.8,5 20.7,7.6 0.9,0.2 1.6,0.9 2.4,1.4 z m -23.6,-5 c -1.7,4.3 -3.3,8.1 -4.8,11.9 -10.3,25.3 -20.6,50.6 -31,75.9 -1.2,3 -0.6,4.2 2.2,5.2 4,1.4 8,3 11.8,4.8 3,1.5 4.2,0.9 5.4,-2.2 7.8,-20 15.7,-39.9 23.7,-59.9 3.8,-9.5 7.5,-19 11.4,-28.9 -6.3,-2.2 -12.2,-4.4 -18.7,-6.8 z"
         class="st0" /><path
         style="fill:#235ee1"
         inkscape:connector-curvature="0"
         id="path40"
         d="m 219,208.8 c -28.9,4.8 -56.7,9.3 -85.1,14 0.2,-1.4 0.2,-2.3 0.5,-3.2 2.7,-7.4 5.6,-14.7 8.1,-22.1 0.9,-2.5 2.7,-3.1 4.8,-3.4 13.4,-2.3 26.7,-4.6 40.1,-6.9 1.6,-0.3 3.3,-0.2 4.8,-0.8 6.3,-2.5 10,0.2 13.5,5.3 3.7,5.7 8.3,10.8 13.3,17.1 z m -79.6,9.1 c 24.4,-4 48.1,-8 72.3,-12 -4.3,-5.4 -8,-10.2 -11.9,-14.9 -0.7,-0.8 -2.3,-1.2 -3.5,-1.1 -3.5,0.4 -6.9,1 -10.3,1.6 -11.9,2 -23.8,4 -35.6,6.2 -1.5,0.3 -3.7,1.2 -4.2,2.4 -2.5,5.6 -4.5,11.4 -6.8,17.8 z"
         class="st0" /><path
         style="fill:#235ee1"
         inkscape:connector-curvature="0"
         id="path42"
         d="m 106.6,199.9 c -0.6,1.9 -0.9,2.9 -1.3,3.9 -3.1,7.2 -6.3,14.4 -9.3,21.6 -1,2.4 -2.5,3.3 -5.1,3.6 -8.3,1 -16.5,2.1 -24.8,3.4 -2.8,0.4 -4.1,0 -4.5,-3.1 -0.9,-7.1 -2,-14.2 -3.1,-21.8 16.1,-2.4 31.7,-4.9 48.1,-7.6 z m -6.2,5.1 c -12,1.9 -23.1,3.6 -34,5.5 -1.1,0.2 -2.9,2 -2.9,2.9 0.3,4.3 1.1,8.6 2,12.9 0.2,0.8 1.9,1.9 2.7,1.8 6.8,-0.8 13.6,-1.7 20.3,-2.8 1.3,-0.2 3.2,-0.9 3.7,-1.9 2.9,-5.8 5.3,-11.8 8.2,-18.4 z"
         class="st0" /><path
         style="fill:#235ee1"
         inkscape:connector-curvature="0"
         id="path44"
         d="m 282.4,262.3 c 3.9,-11.8 -3,-31.2 -14,-38.7 -2.7,-1.9 -5,-2.4 -7.6,0.2 -1,1 -2.4,1.6 -4,2.7 -0.6,-3.5 0.7,-5.3 3,-6.9 2.2,-1.6 4.1,-2.8 7.1,-1.3 10.9,5.6 16.1,15.3 19,26.5 2.6,10 2.2,19.8 -3.8,28.7 -0.2,0.3 -0.4,0.6 -0.7,0.9 -0.2,0.2 -0.4,0.2 -1,0.5 -0.3,-1.1 -0.9,-2.1 -0.9,-3.1 0,-6.2 -3.7,-9.8 -8.8,-12.3 -3.5,-1.7 -7.2,-3 -10.5,-4.9 -2.5,-1.4 -4.9,-3.1 -6.7,-5.2 -1,-1.1 -0.8,-3.3 -1.2,-5.2 10.6,6.2 20.3,12.1 30.1,18.1 z"
         class="st0" /><path
         style="fill:#235ee1"
         inkscape:connector-curvature="0"
         id="path46"
         d="m 81.3,304.2 c 0.6,-6.2 1.1,-12.3 1.8,-18.5 0.9,-8.4 2,-16.8 2.7,-25.3 0.3,-3.1 1.1,-4 4.1,-2.7 6.3,2.7 12.7,5.1 19.1,7.7 1,0.4 1.9,1 3.4,1.8 -10.2,12.7 -20.1,25.1 -30,37.5 -0.3,-0.1 -0.7,-0.3 -1.1,-0.5 z m 5.1,-11.6 c 0.3,0.1 0.6,0.1 0.8,0.2 6.3,-8 12.5,-15.9 19,-24.2 -5.9,-2.3 -11,-4.3 -16.5,-6.5 -1.1,10.6 -2.2,20.6 -3.3,30.5 z"
         class="st0" /><path
         style="fill:#235ee1"
         inkscape:connector-curvature="0"
         id="path48"
         d="m 145.8,131.8 c 3.7,1.6 7.7,2.8 11,5 4.6,3 5.5,7.3 3.4,12.4 -1.6,3.8 -3.3,7.5 -4.8,11.4 -0.8,2.1 -1.9,2.9 -4.3,2 -6.6,-2.6 -13.3,-5 -20,-7.4 -2.4,-0.8 -2.6,-2.1 -1.7,-4.2 1.6,-3.6 3,-7.4 4.6,-11 2.2,-5.2 5.9,-7.6 11.8,-8.2 z m -12.2,19.9 c 5.8,2.2 11.3,4.3 16.7,6.1 0.6,0.2 2,-0.7 2.4,-1.5 1.4,-2.9 2.5,-5.9 3.9,-8.9 1.3,-2.8 0.7,-5.5 -1.7,-6.9 -2.8,-1.7 -5.9,-2.9 -9.1,-3.7 -3.5,-0.8 -6.4,0.8 -7.8,4.2 -1.5,3.4 -2.8,6.7 -4.4,10.7 z"
         class="st0" /><path
         style="fill:#235ee1"
         inkscape:connector-curvature="0"
         id="path50"
         d="m 263.1,200.8 c -0.8,-3.8 1.3,-4.3 3.5,-4.6 6,-0.8 12,-1.6 18.6,-2.5 -1,-5.3 -1.8,-10.4 -2.9,-15.5 -0.1,-0.6 -1.8,-1.4 -2.7,-1.3 -3.9,0.3 -7.8,0.9 -11.6,1.4 -1.1,-3.1 0.4,-4 2.4,-4.3 4.2,-0.6 8.4,-1.3 12.6,-1.6 1,-0.1 2.7,1.4 2.9,2.4 1.4,6.6 2.6,13.2 3.6,19.8 0.1,0.8 -0.9,2.6 -1.5,2.7 -8.2,1.3 -16.4,2.3 -24.9,3.5 z"
         class="st0" /><path
         style="fill:#235ee1"
         inkscape:connector-curvature="0"
         id="path52"
         d="m 129.5,160.9 c 6.5,2.4 12.4,4.5 18.7,6.8 -3.9,9.9 -7.7,19.4 -11.4,28.9 -7.9,20 -15.9,39.9 -23.7,59.9 -1.2,3.1 -2.5,3.7 -5.4,2.2 -3.8,-1.9 -7.8,-3.4 -11.8,-4.8 -2.8,-1 -3.4,-2.2 -2.2,-5.2 10.4,-25.3 20.7,-50.6 31,-75.9 1.5,-3.8 3,-7.6 4.8,-11.9 z"
         class="st0" /><path
         style="fill:#235ee1"
         inkscape:connector-curvature="0"
         id="path54"
         d="m 139.4,217.9 c 2.4,-6.4 4.3,-12.1 6.7,-17.7 0.5,-1.2 2.7,-2.1 4.2,-2.4 11.9,-2.2 23.8,-4.2 35.6,-6.2 3.4,-0.6 6.9,-1.3 10.3,-1.6 1.1,-0.1 2.8,0.3 3.5,1.1 3.9,4.7 7.7,9.5 11.9,14.9 -24.1,3.9 -47.8,7.8 -72.2,11.9 z"
         class="st0" /><path
         style="fill:#235ee1"
         inkscape:connector-curvature="0"
         id="path56"
         d="m 100.4,205 c -2.9,6.6 -5.3,12.6 -8.2,18.3 -0.5,1 -2.4,1.7 -3.7,1.9 -6.7,1.1 -13.5,2 -20.3,2.8 -0.9,0.1 -2.6,-1 -2.7,-1.8 -0.9,-4.2 -1.7,-8.5 -2,-12.9 -0.1,-0.9 1.7,-2.7 2.9,-2.9 10.9,-1.8 22,-3.5 34,-5.4 z"
         class="st0" /><path
         style="fill:#235ee1"
         inkscape:connector-curvature="0"
         id="path58"
         d="m 86.4,292.6 c 1.1,-10 2.2,-19.9 3.4,-30.5 5.4,2.1 10.6,4.2 16.5,6.5 -6.5,8.3 -12.8,16.2 -19,24.2 -0.3,0 -0.6,-0.1 -0.9,-0.2 z"
         class="st0" /><path
         style="fill:#235ee1"
         inkscape:connector-curvature="0"
         id="path60"
         d="m 133.6,151.7 c 1.6,-4 2.9,-7.3 4.4,-10.6 1.5,-3.4 4.3,-5 7.8,-4.2 3.2,0.7 6.3,2 9.1,3.7 2.4,1.5 3,4.1 1.7,6.9 -1.3,2.9 -2.5,6 -3.9,8.9 -0.4,0.7 -1.8,1.7 -2.4,1.5 -5.5,-1.9 -10.9,-4 -16.7,-6.2 z"
         class="st0" /></g><path
       sodipodi:nodetypes="ccccccccccccccsssccsssccsssssssscsccccssscccccssssscsccssscccscc"
       style="fill:#235ee1;fill-opacity:1;stroke-width:0.5414198"
       inkscape:connector-curvature="0"
       class="st1"
       d="m 49.680345,21.607992 h 1.840829 l 4.656211,6.876031 4.818635,-6.876031 h 1.732543 l -5.630768,8.013014 5.955618,8.44615 H 61.158446 L 56.177385,30.81213 51.088038,38.067156 H 49.30135 l 5.901478,-8.44615 z M 72.5824,29.891715 c -0.37899,-1.786685 -1.461832,-2.869524 -3.356798,-2.869524 -2.761245,0 -4.168937,2.544673 -4.168937,5.089346 0,2.544673 1.407692,5.035205 4.168937,5.035205 1.786681,0 3.248519,-1.407694 3.465083,-3.356804 h 1.461838 c -0.378996,2.869526 -2.273969,4.602069 -4.926921,4.602069 -3.627516,0 -5.630768,-2.869525 -5.630768,-6.28047 0,-3.410944 2.003252,-6.28047 5.630768,-6.28047 2.544673,0 4.493779,1.353549 4.818636,4.060648 z m 14.185204,2.219822 c 0,3.410945 -2.003258,6.28047 -5.630768,6.28047 -3.627514,0 -5.630767,-2.869525 -5.630767,-6.28047 0,-3.410944 2.003253,-6.28047 5.630767,-6.28047 3.62751,0 5.630768,2.869526 5.630768,6.28047 z m -9.799704,0 c 0,2.544673 1.353553,5.035205 4.168936,5.035205 2.761239,0 4.168931,-2.544673 4.168931,-5.035205 0,-2.544673 -1.407692,-5.089346 -4.168931,-5.089346 -2.761244,0.05414 -4.168936,2.544673 -4.168936,5.089346 z m 22.414781,5.955618 h -1.353548 v -2.273963 h -0.05411 c -0.595559,1.515976 -2.490534,2.598815 -4.223075,2.598815 -3.627515,0 -5.360058,-2.923666 -5.360058,-6.28047 0,-3.356804 1.732543,-6.28047 5.360058,-6.28047 1.786687,0 3.519229,0.920413 4.11479,2.598815 h 0.05411 v -6.82189 h 1.461833 z m -5.630763,-0.866272 c 3.086095,0 4.16893,-2.598814 4.16893,-5.035204 0,-2.436389 -1.082835,-5.089347 -4.16893,-5.089347 -2.761244,0 -3.898219,2.598815 -3.898219,5.089347 0,2.43639 1.136975,5.035204 3.898219,5.035204 z m 9.204132,-4.710353 c 0,2.111539 1.13698,4.656212 3.89823,4.656212 2.11154,0 3.24852,-1.245267 3.73579,-3.031951 h 1.46184 c -0.59556,2.707099 -2.16569,4.277216 -5.19763,4.277216 -3.78994,0 -5.36006,-2.923666 -5.36006,-6.28047 0,-3.140236 1.57012,-6.28047 5.36006,-6.28047 3.84408,0 5.36006,3.356803 5.19763,6.659463 z m 7.68817,-1.191123 c -0.0542,-2.165678 -1.40769,-4.223075 -3.78994,-4.223075 -2.38225,0 -3.68166,2.057396 -3.89823,4.223075 z"
       id="path16-4" /></g></svg>