<?xml version="1.0" encoding="UTF-8" standalone="no"?>
<!-- Generator: Adobe Illustrator 22.1.0, SVG Export Plug-In . SVG Version: 6.00 Build 0)  -->

<svg
   xmlns:dc="http://purl.org/dc/elements/1.1/"
   xmlns:cc="http://creativecommons.org/ns#"
   xmlns:rdf="http://www.w3.org/1999/02/22-rdf-syntax-ns#"
   xmlns:svg="http://www.w3.org/2000/svg"
   xmlns="http://www.w3.org/2000/svg"
   xmlns:sodipodi="http://sodipodi.sourceforge.net/DTD/sodipodi-0.dtd"
   xmlns:inkscape="http://www.inkscape.org/namespaces/inkscape"
   version="1.1"
   id="Layer_1"
   x="0px"
   y="0px"
   viewBox="0 0 120 60"
   xml:space="preserve"
   sodipodi:docname="pulumiio-ar21.svg"
   width="120"
   height="60"
   inkscape:version="0.92.3 (2405546, 2018-03-11)"><metadata
   id="metadata27"><rdf:RDF><cc:Work
       rdf:about=""><dc:format>image/svg+xml</dc:format><dc:type
         rdf:resource="http://purl.org/dc/dcmitype/StillImage" /><dc:title></dc:title></cc:Work></rdf:RDF></metadata><defs
   id="defs25">
	
	
	
	
	
	
	
	
</defs><sodipodi:namedview
   pagecolor="#ffffff"
   bordercolor="#666666"
   borderopacity="1"
   objecttolerance="10"
   gridtolerance="10"
   guidetolerance="10"
   inkscape:pageopacity="0"
   inkscape:pageshadow="2"
   inkscape:window-width="1920"
   inkscape:window-height="1001"
   id="namedview23"
   showgrid="false"
   inkscape:zoom="1.2681051"
   inkscape:cx="-91.475068"
   inkscape:cy="41.032688"
   inkscape:window-x="-9"
   inkscape:window-y="-9"
   inkscape:window-maximized="1"
   inkscape:current-layer="Layer_1" />
<style
   type="text/css"
   id="style2">
	.st0{fill:#EE985D;}
	.st1{fill:#FFFFFF;}
</style>
<g
   id="g25"
   transform="translate(10)"><g
     transform="matrix(0.30680828,0,0,0.30680828,8.9907778,17.410832)"
     id="g56"><path
       inkscape:connector-curvature="0"
       style="fill:#ee985d;fill-opacity:1"
       id="path4"
       d="m 261.90915,10.761209 c 2.92953,0.04928 5.41022,-2.3768335 5.41693,-5.3070784 0.0795,-2.9250576 -2.31772,-5.4168735 -5.32144,-5.4537244 -2.94507,-0.0362025 -5.35654,2.3525171 -5.42325,5.2498016 -0.0685,2.9735795 2.28918,5.4597762 5.32776,5.5110012 z"
       class="st0" /><path
       inkscape:connector-curvature="0"
       style="fill:#512568;fill-opacity:1"
       id="path6"
       d="m 160.7285,14.949011 c -2.39508,0 -4.35475,1.959657 -4.35475,4.354742 v 22.736545 c 0,6.994454 -5.67011,12.664566 -12.66457,12.664566 -6.99438,0 -12.6645,-5.670112 -12.6645,-12.664566 V 19.303753 c 0,-2.395085 -1.95966,-4.354742 -4.35475,-4.354742 -2.39514,0 -4.35479,1.959657 -4.35479,4.354742 v 22.736545 c 0,11.804581 9.56952,21.374112 21.37404,21.374112 11.80458,0 21.37412,-9.569531 21.37412,-21.374112 V 19.303753 c 0,-2.395085 -1.95966,-4.354742 -4.3548,-4.354742 z"
       class="st1" /><path
       inkscape:connector-curvature="0"
       style="fill:#512568;fill-opacity:1"
       id="path8"
       d="m 109.47403,0.2470192 c -2.39514,0 -4.35481,1.9595973 -4.35481,4.3547425 V 59.095314 c 0,2.395145 1.95967,4.354801 4.35481,4.354801 2.39515,0 4.35474,-1.959656 4.35474,-4.354801 V 4.6017618 c 0,-2.3951452 -1.95959,-4.3547426 -4.35474,-4.3547426 z"
       class="st1" /><path
       inkscape:connector-curvature="0"
       style="fill:#512568;fill-opacity:1"
       id="path10"
       d="m 261.95612,14.949011 c -2.39515,0 -4.35474,1.959657 -4.35474,4.354742 v 39.755855 c 0,2.395146 1.95959,4.354802 4.35474,4.354802 2.39514,0 4.35479,-1.959656 4.35479,-4.354802 V 19.303753 c 0,-2.395085 -1.95965,-4.354742 -4.35479,-4.354742 z"
       class="st1" /><path
       inkscape:connector-curvature="0"
       style="fill:#512568;fill-opacity:1"
       id="path12"
       d="m 92.258064,14.949011 c -2.39508,0 -4.354744,1.959657 -4.354744,4.354742 v 22.736545 c 0,6.994454 -5.670112,12.664566 -12.664566,12.664566 -6.994392,0 -12.664508,-5.670112 -12.664508,-12.664566 V 19.303753 c 0,-2.395085 -1.95966,-4.354742 -4.354741,-4.354742 -2.395145,0 -4.354805,1.959657 -4.354805,4.354742 v 22.736545 c 0,11.804581 9.569531,21.374112 21.374054,21.374112 11.804581,0 21.374115,-9.569531 21.374115,-21.374112 V 19.303753 c 0,-2.395085 -1.959655,-4.354742 -4.354805,-4.354742 z"
       class="st1" /><path
       inkscape:connector-curvature="0"
       style="fill:#512568;fill-opacity:1"
       id="path14"
       d="m 227.71492,14.949011 c -6.95552,0 -13.1161,3.337284 -17.01932,8.48164 -3.9032,-5.144356 -10.06384,-8.48164 -17.0193,-8.48164 -11.80458,0 -21.37411,9.569532 -21.37411,21.374113 v 22.736545 c 0,2.395085 1.95965,4.354741 4.35479,4.354741 2.3951,0 4.35475,-1.959656 4.35475,-4.354741 V 36.323124 c 0,-6.994454 5.67011,-12.664568 12.66457,-12.664568 6.9944,0 12.66451,5.670114 12.66451,12.664568 v 22.736545 c 0,1.19751 0.48992,2.286198 1.27923,3.075505 0.78931,0.789306 1.87799,1.279236 3.0755,1.279236 h 6e-5 v 0 c 0.2994,0 0.592,-0.03058 0.87477,-0.08887 0.28278,-0.05823 0.55585,-0.144226 0.8161,-0.25476 0.52057,-0.221192 0.98999,-0.540955 1.38465,-0.935608 0.7893,-0.789307 1.27923,-1.877995 1.27923,-3.075505 V 36.323124 c 0,-6.994454 5.67011,-12.664568 12.66457,-12.664568 6.9944,0 12.6645,5.670114 12.6645,12.664568 v 22.736545 c 0,2.395085 1.95966,4.354741 4.35476,4.354741 2.39514,0 4.35479,-1.959656 4.35479,-4.354741 V 36.323124 c 0,-11.804581 -9.56953,-21.374113 -21.37405,-21.374113 z"
       class="st1" /><path
       inkscape:connector-curvature="0"
       style="fill:#512568;fill-opacity:1"
       id="path16"
       d="M 24.232761,14.94895 C 10.849381,14.94895 6.11e-5,25.79833 6.11e-5,39.181709 H 0 v 38.528923 c 0,2.395089 1.9596585,4.354744 4.3548036,4.354744 2.3950839,0 4.3547425,-1.959655 4.3547425,-4.354744 V 39.181709 h 6.1e-5 c 0,-8.573251 6.9499609,-15.523153 15.5231539,-15.523153 8.573194,0 15.523156,6.949902 15.523156,15.523153 0,8.573197 -6.949963,15.523094 -15.523156,15.523094 -2.405094,0 -4.354803,1.949711 -4.354803,4.354805 0,2.405095 1.949709,4.354802 4.354803,4.354802 13.38332,0 24.232701,-10.849381 24.232701,-24.232701 0,-13.383379 -10.849381,-24.232759 -24.232701,-24.232759 z"
       class="st1" /><path
       inkscape:connector-curvature="0"
       style="fill:#ee985d;fill-opacity:1"
       id="path18"
       d="m 90.651619,10.083176 c 0,-0.02014 -0.0056,-0.03876 -0.006,-0.0588 -0.0026,-0.088705 -0.01221,-0.1764938 -0.02655,-0.2642834 -0.16632,-1.9148788 -1.755066,-3.4226527 -3.713081,-3.4226527 -0.602417,0 -1.16333,0.1554365 -1.667481,0.4081225 -0.894681,-3.8621038 -4.340626,-6.7452053 -8.47495,-6.7452053 -3.628753,0 -6.736358,2.218224 -8.049225,5.371305 -0.899963,-0.5804453 -1.9692,-0.9210219 -3.119819,-0.9210219 -3.185837,0 -5.768643,2.582706 -5.768643,5.7686438 0,1.663821 1.298424,1.850589 3.425908,1.850589 l 25.432975,1.02e-4 c 1.236985,0 1.961983,-0.988262 1.960862,-1.987207 0.0022,1.03e-4 0.0038,2.05e-4 0.006,4.08e-4 z"
       class="st0" /></g></g>
</svg>