<svg xmlns="http://www.w3.org/2000/svg" xmlns:xlink="http://www.w3.org/1999/xlink" width="120" height="60"><g fill="#000" fill-rule="evenodd"><path d="M24.5 34.868h1.862v2.02h-5.92v-2.02h1.84v-11.64h-1.84V21.32H26.7c4.037 0 5.966 1.413 5.966 4.755S30.76 30.92 26.7 30.92H24.5zm0-5.81h1.862c2.624 0 3.925-.695 3.925-2.916s-1.3-2.916-3.925-2.916H24.5zm19.776 2.378c0 3.5-2.288 5.764-5.495 5.764s-5.473-2.243-5.473-5.764 2.265-5.764 5.473-5.764 5.495 2.265 5.495 5.764zm-5.495 3.746c1.996 0 3.297-1.346 3.297-3.768 0-2.4-1.256-3.768-3.297-3.768-2.02 0-3.297 1.368-3.297 3.768s1.323 3.768 3.297 3.768zm7.27 1.705v-3.7h1.75c.157 1.436 1.234 2.288 2.85 2.288 1.323 0 2.13-.673 2.13-1.503s-.673-1.19-1.996-1.503l-1.682-.38c-2.108-.493-3.095-1.436-3.095-3.14 0-1.817 1.593-3.275 3.813-3.275 1.144 0 2.13.38 2.916 1.1v-.83h1.682v3.566h-1.682c-.112-1.3-1.21-2.176-2.804-2.176-1.166 0-1.884.56-1.884 1.413 0 .807.606 1.166 1.772 1.413l1.862.38c2.086.45 3.095 1.458 3.095 3.118 0 2.086-1.548 3.544-4.015 3.544-1.166 0-2.198-.36-2.96-1.054v.74zm13.394-3.028c0 1.01.18 1.39.875 1.39.36 0 .718-.112 1.166-.314v1.907c-.583.247-1.166.36-1.727.36-2.02 0-2.288-1.054-2.288-3.006v-6.437h-1.436V25.94h1.436v-1.458l1.974-1.637v3.095h2.04v1.817h-2.04zm7.03-6.235c1.368-1.12 2.512-1.682 3.768-1.682 1.323 0 2.176.583 2.512 1.75 1.368-1.166 2.58-1.75 3.858-1.75 2.265 0 2.647 1.436 2.647 3.903v5.114h1.593v1.93H77.22v-7.245c0-1.323-.45-1.95-1.368-1.95-.964 0-1.907.56-2.938 1.682v5.585h1.593v1.93h-3.634v-7.222c0-1.346-.45-1.974-1.39-1.974-.964 0-1.884.56-2.916 1.682v5.585h1.593v1.93h-5.204v-1.93h1.593v-7.2h-1.593V25.94h3.52zm22.832 9.263v-1.032c-1.1.897-2.198 1.346-3.477 1.346-2.153 0-3.59-1.413-3.59-3.477 0-2.153 1.548-3.59 3.88-3.59.83 0 1.862.27 3.118.785v-.65c0-1.95-.695-2.87-2.3-2.87-1.166 0-1.974.47-2.647 1.413l-1.907-.493c.695-1.682 2.378-2.647 4.7-2.647 3.118 0 4.127 1.503 4.127 4.553v4.733h1.66v1.93zm0-3.05v-.807c-1.01-.606-1.84-.987-2.804-.987-1.278 0-2.108.673-2.108 1.615 0 .852.718 1.525 1.794 1.525.92 0 1.93-.47 3.118-1.346zm6.332 1.12v-7.2h-1.74V25.94h3.86v2.153c.858-1.682 1.994-2.355 3.912-2.355l.934.022v2.108l-.934-.045c-2.776 0-3.81 1.436-3.81 4.24v2.893h2.195v1.93h-6.157v-1.93zm9.036-11.82h-1.57V21.32h3.544v13.637h1.593v1.93h-5.136v-1.93h1.57zm6.302 4.62h-1.523V25.94h5.33v1.817h-1.357l-4.07 3.23 3.975 3.97H115v1.93h-2.642l-5.64-5.742z"/><path d="M5 23.2c2.46-1.353 5.612-1.978 9.454-1.875 7.563.712 9.746 5.27 17.676 5.085 6.62-.2 9.732-3.2 9.732-3.2v.944S38.44 27.04 31.82 27.24c-7.93.185-9.91-4.38-17.474-5.09-3.842-.103-6.958.56-9.346 1.986v-1.01" fill-opacity=".2"/><use xlink:href="#B" fill-opacity=".2"/><use xlink:href="#B" y="3.777" fill-opacity=".2"/><path d="M5 34.64c2.46-1.353 5.612-1.978 9.454-1.875 7.563.712 9.746 5.27 17.676 5.085 6.62-.2 9.732-3.2 9.732-3.2v.944S38.44 38.5 31.82 38.7c-7.93.185-9.91-4.38-17.474-5.09-3.842-.103-6.958.56-9.346 1.986v-1.01" fill-opacity=".2"/></g><defs ><path id="B" d="M5 26.968c2.46-1.353 5.612-1.978 9.454-1.875 7.563.712 9.746 5.27 17.676 5.085 6.62-.2 9.732-3.2 9.732-3.2v.944s-3.423 2.905-10.043 3.105c-7.93.185-9.91-4.38-17.474-5.09-3.842-.103-6.958.56-9.346 1.986v-1.01"/></defs></svg>