<?xml version="1.0" encoding="utf-8"?>
<!-- Generator: Adobe Illustrator 24.1.0, SVG Export Plug-In . SVG Version: 6.00 Build 0)  -->
<svg version="1.1" id="Layer_1" xmlns="http://www.w3.org/2000/svg" xmlns:xlink="http://www.w3.org/1999/xlink" x="0px" y="0px"
	 viewBox="0 0 64 64" width="64" height="64" style="enable-background:new 0 0 64 64;" xml:space="preserve">
<style type="text/css">
	.st0{fill:url(#SVGID_1_);}
	.st1{fill-rule:evenodd;clip-rule:evenodd;fill:#FFFFFF;}
</style>
<g>
	
		<linearGradient id="SVGID_1_" gradientUnits="userSpaceOnUse" x1="76.224" y1="-10.224" x2="-9.888" y2="75.888" gradientTransform="matrix(1 0 0 -1 0 66)">
		<stop  offset="0" style="stop-color:#D44B92"/>
		<stop  offset="0.52" style="stop-color:#F0617D"/>
		<stop  offset="1" style="stop-color:#F3874A"/>
	</linearGradient>
	<rect class="st0" width="64" height="64"/>
	<path class="st1" d="M29.6,53.8c2.2,1.5,5.8,2.4,9.3,2.4c6.5,0,11.4-2.8,11.4-9.1c0-5.4-3-8-9.9-9.5c-3.5-0.9-4.8-2-4.8-3.9
		s1.6-3.4,4.5-3.4c3.2,0,5.8,1.1,8.4,3v-6.1C46,25.7,43.3,25,39.9,25c-6.1,0-10.8,3-10.8,9.1c0,5.2,2.7,7.7,8.9,9.1
		c3.9,1,5.7,1.9,5.7,4.3c0,2.4-2,3.4-5,3.4c-3.1,0-6.4-1.3-9.2-3.4L29.6,53.8z M28.2,31.3h-3.1v24.3h-6.7V31.3h-4.7v-5.6h4.7V20
		C18.4,12.6,22.5,9,28.9,9c2.4,0,4.2,0.5,5.9,1.5v6.1c-1.6-1.1-3.1-1.7-5.2-1.7c-2.9,0-4.5,1.4-4.5,5.1v5.7h7.3
		C30.2,26.8,28.7,28.8,28.2,31.3z"/>
</g>
</svg>
