<?xml version="1.0" encoding="utf-8"?>
<!-- Generator: Adobe Illustrator 24.1.0, SVG Export Plug-In . SVG Version: 6.00 Build 0)  -->
<svg version="1.1" id="Layer_1" xmlns="http://www.w3.org/2000/svg" xmlns:xlink="http://www.w3.org/1999/xlink" x="0px" y="0px"
	 viewBox="0 0 120 60" width="120" height="60" style="enable-background:new 0 0 120 60;" xml:space="preserve">
<style type="text/css">
	.st0{fill:url(#SVGID_1_);}
</style>
<linearGradient id="SVGID_1_" gradientUnits="userSpaceOnUse" x1="150.8696" y1="17.9411" x2="-48.8886" y2="44.2953">
	<stop  offset="0" style="stop-color:#F5BE17"/>
	<stop  offset="0.5" style="stop-color:#EF598A"/>
	<stop  offset="1" style="stop-color:#953B95"/>
</linearGradient>
<path class="st0" d="M98,23.8l4.1,11.3l4.1-11.3h3.3l-7.8,20.5h-3.2l2-5.5l-6-15L98,23.8z M90,27v11.4h-3.2V25
	c1.6-0.9,3.6-1.4,5.7-1.4c0.2,0,0.4,0,0.4,0l1.2,3.2c-0.5-0.1-1-0.1-1.5-0.1C91.6,26.5,90.8,26.7,90,27L90,27z M81.5,31
	c0-2.9-1.7-4.8-4.2-4.8c-2.4,0-4.2,1.9-4.2,4.8c0,2.9,1.8,4.8,4.2,4.8C79.8,35.7,81.5,33.9,81.5,31z M77.3,38.5
	c-4.3,0-7.4-3.1-7.4-7.5c0-4.5,3.1-7.6,7.4-7.6c4.3,0,7.5,3.1,7.5,7.6C84.8,35.4,81.7,38.5,77.3,38.5z M59.5,26.5v-2.7h2l0-3.7h3.2
	l0,3.7h4.1v2.7h-4.1v6.9c0,1.7,0.8,2.3,2,2.3c0.9,0,1.8-0.3,2.6-0.8v2.9c-0.9,0.5-2.1,0.8-3.5,0.8c-2.4,0-4.3-1.2-4.3-4.5v-7.6
	L59.5,26.5z M49.2,37.3v-3.1c1.3,1,2.9,1.6,4.4,1.6c1.4,0,2.4-0.5,2.4-1.6c0-1.2-0.8-1.6-2.7-2.1c-3-0.7-4.3-1.9-4.3-4.4
	c0-2.9,2.2-4.4,5.2-4.4c1.6,0,2.9,0.4,4.1,1.1v3C57,26.6,55.8,26,54.2,26c-1.4,0-2.2,0.7-2.2,1.6s0.6,1.4,2.3,1.9
	c3.3,0.7,4.7,2,4.7,4.6c0,3-2.3,4.4-5.5,4.4C52,38.5,50.3,38,49.2,37.3L49.2,37.3z M46.4,15.7v22.7h-2.9V15.7L46.4,15.7z M40.5,15.7
	v22.7h-2.9V15.7L40.5,15.7z M34.5,23.8v14.1c-1.7,0.4-3.9,0.7-5.6,0.7c-4.1,0-6.7-1.3-6.7-5.4v-9.4h3.2v9.1c0,2.1,1.3,2.9,3.4,2.9
	c0.8,0,1.7-0.1,2.5-0.2V23.8L34.5,23.8z M15.9,26.5v12h-3.2v-12h-2.3v-2.7h2.3V21c0-3.6,2-5.3,5-5.3c1.1,0,2,0.2,2.8,0.7v3
	c-0.8-0.5-1.5-0.8-2.5-0.8c-1.4,0-2.2,0.7-2.2,2.4v2.8h4.8v2.7L15.9,26.5z"/>
</svg>
