<?xml version="1.0" encoding="UTF-8" standalone="no"?>
<!-- Generator: Adobe Illustrator 21.1.0, SVG Export Plug-In . SVG Version: 6.00 Build 0)  -->

<svg
   xmlns:dc="http://purl.org/dc/elements/1.1/"
   xmlns:cc="http://creativecommons.org/ns#"
   xmlns:rdf="http://www.w3.org/1999/02/22-rdf-syntax-ns#"
   xmlns:svg="http://www.w3.org/2000/svg"
   xmlns="http://www.w3.org/2000/svg"
   xmlns:sodipodi="http://sodipodi.sourceforge.net/DTD/sodipodi-0.dtd"
   xmlns:inkscape="http://www.inkscape.org/namespaces/inkscape"
   version="1.1"
   id="Layer_1"
   x="0px"
   y="0px"
   viewBox="3.62 8.78 64 63.999999"
   xml:space="preserve"
   sodipodi:docname="amazon-cloud-watch-icon.svg"
   width="64"
   height="64"
   inkscape:version="0.92.3 (2405546, 2018-03-11)"><metadata
   id="metadata85"><rdf:RDF><cc:Work
       rdf:about=""><dc:format>image/svg+xml</dc:format><dc:type
         rdf:resource="http://purl.org/dc/dcmitype/StillImage" /><dc:title></dc:title></cc:Work></rdf:RDF></metadata><defs
   id="defs83" /><sodipodi:namedview
   pagecolor="#ffffff"
   bordercolor="#666666"
   borderopacity="1"
   objecttolerance="10"
   gridtolerance="10"
   guidetolerance="10"
   inkscape:pageopacity="0"
   inkscape:pageshadow="2"
   inkscape:window-width="1920"
   inkscape:window-height="1001"
   id="namedview81"
   showgrid="false"
   inkscape:zoom="4.9182788"
   inkscape:cx="84.393969"
   inkscape:cy="69.987368"
   inkscape:window-x="-9"
   inkscape:window-y="-9"
   inkscape:window-maximized="1"
   inkscape:current-layer="Layer_1" />
<style
   type="text/css"
   id="style2">
	.st0{fill:#B7CA9D;}
	.st1{fill:#4C622C;}
	.st2{fill:#759C3F;}
	.st3{fill:#779D3F;}
</style>

<g
   id="g44"
   transform="matrix(0.30360531,0,0,0.30360531,-8.0839844,4.4991655)">
	<g
   id="g6">
		<polygon
   class="st0"
   points="143.9,224.9 237.1,159.1 144,145.5 50.8,159.2 "
   id="polygon4"
   style="fill:#b7ca9d" />
	</g>
	<g
   id="g10">
		<polygon
   class="st1"
   points="69.4,54.9 69.4,157.6 85.2,162.3 122.2,105.6 85.2,48.8 "
   id="polygon8"
   style="fill:#4c622c" />
	</g>
	<g
   id="g14">
		<polygon
   class="st2"
   points="140.9,61.4 140.9,152.7 85.2,162.5 85.2,48.8 "
   id="polygon12"
   style="fill:#759c3f" />
	</g>
	<g
   id="g18">
		<polygon
   class="st1"
   points="180.4,97.1 116.1,171.8 94.3,165.2 94.3,25 116.1,14.1 "
   id="polygon16"
   style="fill:#4c622c" />
	</g>
	<g
   id="g22">
		<polygon
   class="st2"
   points="190.5,43.1 190.5,154.5 116.1,171.9 116.1,14.1 "
   id="polygon20"
   style="fill:#759c3f" />
	</g>
	<g
   id="g26">
		<polygon
   class="st1"
   points="143.9,224.9 143.9,192.2 50.8,159.2 50.8,178.3 "
   id="polygon24"
   style="fill:#4c622c" />
	</g>
	<g
   id="g30">
		<polygon
   class="st2"
   points="237.1,159.1 237.1,178.3 143.9,224.9 143.9,192.2 "
   id="polygon28"
   style="fill:#759c3f" />
	</g>
	<g
   id="g34">
		<polygon
   class="st0"
   points="143.9,180.1 210.9,127.4 188.3,127.4 124,131.8 "
   id="polygon32"
   style="fill:#b7ca9d" />
	</g>
	<g
   id="g38">
		<polygon
   class="st1"
   points="124,131.8 124,174.1 143.9,180.1 143.9,133.9 "
   id="polygon36"
   style="fill:#4c622c" />
	</g>
	<g
   id="g42">
		<polygon
   class="st2"
   points="210.9,160 210.9,127.4 143.9,133.9 143.9,180.1 "
   id="polygon40"
   style="fill:#759c3f" />
	</g>
</g>
</svg>