<?xml version="1.0" encoding="UTF-8" standalone="no"?>
<svg
   xmlns:dc="http://purl.org/dc/elements/1.1/"
   xmlns:cc="http://creativecommons.org/ns#"
   xmlns:rdf="http://www.w3.org/1999/02/22-rdf-syntax-ns#"
   xmlns:svg="http://www.w3.org/2000/svg"
   xmlns="http://www.w3.org/2000/svg"
   xmlns:sodipodi="http://sodipodi.sourceforge.net/DTD/sodipodi-0.dtd"
   xmlns:inkscape="http://www.inkscape.org/namespaces/inkscape"
   width="64"
   height="64"
   viewBox="0 0 64 64"
   version="1.1"
   preserveAspectRatio="xMidYMid"
   id="svg8"
   sodipodi:docname="100tb-icon.svg"
   inkscape:version="0.92.3 (2405546, 2018-03-11)">
  <metadata
     id="metadata14">
    <rdf:RDF>
      <cc:Work
         rdf:about="">
        <dc:format>image/svg+xml</dc:format>
        <dc:type
           rdf:resource="http://purl.org/dc/dcmitype/StillImage" />
        <dc:title></dc:title>
      </cc:Work>
    </rdf:RDF>
  </metadata>
  <defs
     id="defs12" />
  <sodipodi:namedview
     pagecolor="#ffffff"
     bordercolor="#666666"
     borderopacity="1"
     objecttolerance="10"
     gridtolerance="10"
     guidetolerance="10"
     inkscape:pageopacity="0"
     inkscape:pageshadow="2"
     inkscape:window-width="1920"
     inkscape:window-height="1001"
     id="namedview10"
     showgrid="false"
     inkscape:zoom="5.296875"
     inkscape:cx="85.133972"
     inkscape:cy="23.91774"
     inkscape:window-x="-9"
     inkscape:window-y="-9"
     inkscape:window-maximized="1"
     inkscape:current-layer="svg8" />
  <g
     id="g6"
     transform="matrix(0.12512177,0,0,0.12512177,-5.7295294e-5,20.093007)">
    <path
       d="M 49.442707,2.0972904 4.5132137e-4,53.648722 24.447025,75.822141 42.179442,62.533735 V 186.98259 H 94.902805 V 2.0972904 Z M 463.23129,129.49012 c -24.64064,15.92412 -51.29117,18.09648 -78.74956,9.19492 -13.87964,-4.49817 -24.78206,-14.26627 -35.25572,-24.1141 C 333.19808,99.499814 320.28277,81.695185 306.50994,64.677361 292.15492,46.938927 277.02813,30.172338 257.4814,17.912945 241.28799,7.7582143 224.06105,1.3359113 204.83476,1.1102506 174.68048,0.75521109 149.49073,12.086386 129.90488,35.010503 c -5.05931,5.924345 -9.20996,12.379745 -12.27895,19.360182 -1.98431,4.51171 -6.7307,15.990316 -7.59874,22.299789 0.72662,-1.350955 4.5087,-10.810651 5.2263,-12.166119 1.87298,-4.239413 3.74897,-6.580266 5.97399,-9.543943 3.95357,-5.262407 8.7451,-9.75155 14.89661,-12.989029 26.34965,-13.867601 62.48394,-8.882005 84.7055,11.350732 19.53921,17.789584 35.74917,38.612048 53.5884,57.949665 16.6688,18.0679 32.41691,37.058 50.95568,53.28902 17.98666,15.7481 38.67072,24.89789 63.20907,24.64816 42.71455,-0.43327 79.79662,-28.71908 90.857,-70.0872 1.25167,-4.6817 2.69891,-10.49773 2.16183,-16.89596 -4.03331,11.29356 -9.36792,21.44528 -18.37028,27.26432 z M 230.83177,123.9503 c -9.99676,7.34902 -20.26132,14.2437 -33.77237,10.99569 -16.87942,-4.05888 -28.09777,-14.32494 -31.74745,-31.30064 -3.40898,-15.856423 1.37653,-29.585619 14.10228,-40.125478 5.72878,-4.744892 12.08037,-7.508483 18.96302,-8.708998 3.54438,-0.619814 8.4006,-0.06018 12.21427,0.09177 -12.6716,-9.378458 -28.15644,-13.145487 -43.47278,-12.928853 -26.1616,0.368579 -42.29483,11.055869 -52.01178,35.364038 -3.91296,9.790665 -7.20911,19.99805 -6.03116,30.710911 3.73243,25.0679 15.34192,46.01071 35.66041,61.29847 28.51298,21.45131 59.8768,26.05177 93.16476,12.70921 21.05565,-8.43971 37.55596,-26.37372 52.86628,-42.3174 L 255.69507,99.845225 c -6.79389,7.667955 -16.57403,18.010735 -24.8633,24.105075 z M 438.91003,38.463262 c 0,-7.090259 1.71201,-13.775833 4.72835,-19.685134 C 422.19459,3.2526731 394.7016,-2.9484825 368.6077,2.9984287 342.59053,8.9287915 322.14116,23.992394 303.42486,42.112947 c -1.95121,1.889533 -4.17923,4.743388 -4.17923,4.743388 l 35.7296,43.38101 3.4496,-3.488714 c 9.04147,-9.908009 18.41542,-19.503101 30.05951,-26.47752 4.76144,-2.852352 9.69739,-5.527183 15.34493,-5.706207 16.84181,-0.537072 29.77517,6.675043 37.74852,21.349005 7.90865,14.55361 6.51106,29.113241 -2.76359,42.846951 -5.03525,7.45733 -12.36922,11.92391 -20.50805,15.6097 18.32816,3.03889 36.09217,2.06404 53.17318,-5.84311 20.17557,-9.34085 30.02641,-30.26862 29.56005,-46.719284 -23.37845,-0.661938 -42.12935,-19.80699 -42.12935,-43.344904 z"
       id="path2"
       inkscape:connector-curvature="0"
       style="fill:#919fa1" />
    <path
       d="m 479.52895,20.279223 v 8.311835 h -8.36749 v 29.223059 h -8.79475 V 28.591058 h -8.55705 v -8.311835 z m 18.47274,29.204705 c 1.42317,0 2.53191,-0.428755 3.32172,-1.233612 0.79132,-0.804856 1.21406,-1.875992 1.21406,-3.163763 0,-1.340424 -0.42274,-1.412635 -1.26671,-2.163333 -0.84397,-0.752203 -1.95121,-1.126799 -3.26907,-1.126799 h -5.27294 v 7.687507 z m -0.73866,-14.497947 v -0.106813 c 1.10724,0 2.05652,-0.321942 2.79518,-0.965827 0.73866,-0.642381 1.10724,-1.501396 1.10724,-2.519878 0,-1.07264 -0.36858,-1.930151 -1.10724,-2.574036 -0.73866,-0.642381 -1.68794,-0.964323 -2.79518,-0.964323 h -4.53428 v 7.130877 z m 1.31936,-14.692015 0.15796,-0.160971 c 1.63379,0 3.16376,0.267784 4.53428,0.750698 1.37201,0.482914 2.53191,1.179453 3.48119,2.091122 0.94928,0.911669 1.68644,1.98431 2.21448,3.217922 0.52805,1.233611 0.79132,2.519877 0.79132,3.91446 0,0.964324 0.22716,2.282182 -0.0888,3.087038 -0.31592,0.803353 -0.68601,1.501396 -1.1599,2.143777 -0.47539,0.643885 -1.00193,1.180957 -1.58263,1.609713 -0.5807,0.428755 -1.10724,0.696539 -1.58113,0.85751 v 0.05416 c 0.84247,0.213625 1.30131,0.183537 2.09263,0.719105 0.78981,0.537073 1.47582,1.180958 2.05652,1.98431 0.57919,0.804856 1.05459,1.716526 1.42317,2.735008 0.36857,1.018481 0.5807,2.038468 0.5807,3.109604 0,1.662367 -0.26478,3.163762 -0.79132,4.558346 -0.52805,1.394583 -1.31786,2.574036 -2.37395,3.592518 -1.05459,1.018482 -2.37245,1.823338 -4.00774,2.413065 -1.63378,0.589726 -3.53234,0.85751 -5.74682,0.85751 H 484.07993 V 20.293966 Z"
       id="path4"
       inkscape:connector-curvature="0"
       style="fill:#3390da" />
  </g>
</svg>
