<?xml version="1.0" encoding="UTF-8" standalone="no"?>
<!-- Generator: Adobe Illustrator 18.1.1, SVG Export Plug-In . SVG Version: 6.00 Build 0)  -->

<svg
   xmlns:dc="http://purl.org/dc/elements/1.1/"
   xmlns:cc="http://creativecommons.org/ns#"
   xmlns:rdf="http://www.w3.org/1999/02/22-rdf-syntax-ns#"
   xmlns:svg="http://www.w3.org/2000/svg"
   xmlns="http://www.w3.org/2000/svg"
   xmlns:sodipodi="http://sodipodi.sourceforge.net/DTD/sodipodi-0.dtd"
   xmlns:inkscape="http://www.inkscape.org/namespaces/inkscape"
   version="1.1"
   id="Layer_1"
   x="0px"
   y="0px"
   width="120"
   height="60"
   viewBox="0 0 120 59.999999"
   xml:space="preserve"
   sodipodi:docname="deepcrawl-ar21.svg"
   inkscape:version="0.92.3 (2405546, 2018-03-11)"><metadata
   id="metadata603"><rdf:RDF><cc:Work
       rdf:about=""><dc:format>image/svg+xml</dc:format><dc:type
         rdf:resource="http://purl.org/dc/dcmitype/StillImage" /><dc:title></dc:title></cc:Work></rdf:RDF></metadata><defs
   id="defs601">
	
	
	

		
		
		
		
		
		
		
		
		
	
		
		
	
			
			
			
			
			
		
			
		
				
				
				
				
				
				
				
			
	
	
	

		
		
		
		
		
		
		
		
		
	
		
		
	
			
			
			
			
			
		
			
		
				
				
				
				
				
				
				
			</defs><sodipodi:namedview
   pagecolor="#ffffff"
   bordercolor="#666666"
   borderopacity="1"
   objecttolerance="10"
   gridtolerance="10"
   guidetolerance="10"
   inkscape:pageopacity="0"
   inkscape:pageshadow="2"
   inkscape:window-width="1920"
   inkscape:window-height="1001"
   id="namedview599"
   showgrid="false"
   inkscape:zoom="6.2266102"
   inkscape:cx="104.78588"
   inkscape:cy="20.864914"
   inkscape:window-x="-9"
   inkscape:window-y="-9"
   inkscape:window-maximized="1"
   inkscape:current-layer="Layer_1" />
<style
   type="text/css"
   id="style2">
	.st0{fill:#7CA01B;}
	.st1{fill:#5F7E14;}
	.st2{fill:none;}
	.st3{fill:#7C9F1B;}
	.st4{fill:#85AD1D;}
	.st5{fill:#FFFFFF;}
	.st6{fill:#D9D9D9;}
	.st7{fill:#F5F5F5;}
	.st8{fill:#ECECEC;}
	.st9{fill:#2C2C2C;}
	.st10{fill:#72A425;}
	.st11{fill:#C0C0C0;}
	.st12{fill:#FFFFFF;stroke:#D7D6D6;stroke-width:1.2;stroke-miterlimit:10;}
	.st13{fill:#7AA12B;}
	.st14{opacity:0.4;}
	.st15{clip-path:url(#SVGID_2_);fill:#FFFFFF;}
	.st16{clip-path:url(#SVGID_4_);fill:#FFFFFF;}
	.st17{fill:#808080;}
	.st18{fill:#7C7C7C;}
	.st19{fill:#5B5B5B;}
	.st20{fill:#353535;}
	.st21{fill:#2C3D4C;}
	.st22{opacity:0.3;}
	.st23{fill:#9E9E9E;}
	.st24{fill:#6D6D6D;}
	.st25{fill:none;stroke:#FFFFFF;stroke-width:1.5;stroke-miterlimit:10;}
	.st26{fill:none;stroke:#FFFFFF;stroke-miterlimit:10;}
	.st27{fill:none;stroke:#FFFFFF;stroke-width:1.2;stroke-miterlimit:10;}
	.st28{fill:#BBDDD7;}
	.st29{fill:#4795BA;}
	.st30{fill:#7BA02B;}
	.st31{fill:#5F7F2B;}
	.st32{fill:#676767;}
</style>
<g
   id="g876"
   transform="translate(-0.80718613)"><g
     transform="matrix(0.19608132,0,0,0.19608132,104.01807,65.701897)"
     id="g839"><polygon
       style="fill:#7ca01b"
       id="polygon4"
       points="152.2,132.2 76.1,175.8 0,132.2 0,43.7 76.1,0 152.8,43.7 "
       class="st0"
       transform="translate(-493.36636,-269.97699)" /><polygon
       style="fill:#5f7e14"
       id="polygon6"
       points="0,43.7 76.7,87.9 76.1,175.8 0,132.2 "
       class="st1"
       transform="translate(-493.36636,-269.97699)" /><polygon
       style="fill:none"
       id="polygon10"
       points="27.4,59.2 27.4,116 69.8,140.3 69.8,34.9 "
       class="st2"
       transform="translate(-493.36636,-269.97699)" /><polygon
       style="fill:none"
       id="polygon12"
       points="126,59.2 82.9,34.9 82.9,84.8 "
       class="st2"
       transform="translate(-493.36636,-269.97699)" /><polygon
       style="fill:#7c9f1b"
       id="polygon14"
       points="152.8,43.7 138.4,51.8 126,59.2 82.9,84.8 82.9,140.3 137.8,109.1 137.8,123.5 76.1,159 76.1,175.8 152.2,132.2 "
       class="st3"
       transform="translate(-493.36636,-269.97699)" /><polygon
       class="st2"
       points="69.8,84.2 27.4,59.9 27.4,116 69.8,140.3 "
       id="polygon16"
       style="fill:none"
       transform="translate(-493.36636,-269.97699)" /><polygon
       class="st4"
       points="27.4,59.2 26.8,59.2 69.8,84.2 69.8,34.9 "
       id="polygon18"
       style="fill:#85ad1d"
       transform="translate(-493.36636,-269.97699)" /><polygon
       class="st4"
       points="76.1,16.2 138.4,51.8 152.8,43.7 76.1,0 0,43.7 14.3,52.4 14.3,51.8 "
       id="polygon20"
       style="fill:#85ad1d"
       transform="translate(-493.36636,-269.97699)" /><polygon
       class="st4"
       points="82.9,84.8 126,59.2 82.9,34.9 "
       id="polygon22"
       style="fill:#85ad1d"
       transform="translate(-493.36636,-269.97699)" /><polygon
       class="st5"
       points="82.9,84.8 76.7,87.9 "
       id="polygon24"
       style="fill:#ffffff"
       transform="translate(-493.36636,-269.97699)" /><polygon
       class="st6"
       points="14.3,123.5 76.1,159 76.7,87.9 69.8,84.2 69.8,140.3 26.8,116 26.8,59.2 14.3,52.4 "
       id="polygon26"
       style="fill:#d9d9d9"
       transform="translate(-493.36636,-269.97699)" /><polygon
       class="st7"
       points="76.1,16.2 14.3,52.4 26.8,59.2 69.8,34.9 69.8,84.2 76.7,87.9 82.9,84.8 82.9,34.9 126,59.2 138.4,51.8 "
       id="polygon28"
       style="fill:#f5f5f5"
       transform="translate(-493.36636,-269.97699)" /><polygon
       style="fill:#ececec"
       id="polygon32"
       points="82.9,140.3 82.9,84.8 76.7,87.9 76.1,159 137.8,123.5 137.8,109.1 "
       class="st8"
       transform="translate(-493.36636,-269.97699)" /></g><g
     transform="matrix(0.10237783,0,0,0.10237783,75.664679,48.57922)"
     id="g850"><path
       class="st9"
       d="m -255.16636,-151.47699 c -8.1,8.7 -19.3,13.1 -35.5,13.1 h -32.4 v -87.3 h 32.4 c 16.2,0 26.8,3.7 35.5,13.1 7.5,8.1 11.8,19.3 11.8,30.6 0.1,11.1 -4.3,22.4 -11.8,30.5 z m -16.2,-54.9 c -4.4,-3.7 -11.2,-5 -20.6,-5 h -13.1 v 58 h 13.1 c 20,0 31.2,-10.6 31.2,-29.3 -0.6,-10 -4.4,-18.7 -10.6,-23.7 z"
       id="path38"
       inkscape:connector-curvature="0"
       style="fill:#2c2c2c" /><path
       class="st9"
       d="m -231.46636,-139.07699 v -86.6 h 53 l -2.5,14.3 h -33.7 v 21.8 h 29.9 v 13.7 h -29.9 v 23.1 h 33 l 5,14.3 h -54.9 v -0.6 z"
       id="path40"
       inkscape:connector-curvature="0"
       style="fill:#2c2c2c" /><path
       class="st9"
       d="m -160.36636,-139.07699 v -86.6 h 53 l -2.5,14.3 h -33.7 v 21.8 h 29.3 v 13.7 h -29.9 v 23.1 h 33 l 5,14.3 h -54.2 z"
       id="path42"
       inkscape:connector-curvature="0"
       style="fill:#2c2c2c" /><path
       class="st9"
       d="m -38.16636,-175.77699 c -6.2,5 -13.7,7.5 -25.6,7.5 -3.1,0 -5,0 -8.1,-0.6 v 29.9 h -16.8 v -86.7 h 29.9 c 11.2,0 17.5,1.9 23.1,6.9 5,5 7.5,11.2 7.5,19.3 0,9.9 -3.1,18 -10,23.7 z m -21.8,-36.2 h -11.8 v 29.3 h 1.9 1.9 c 1.9,0 3.1,0 3.7,0 13.1,0 18.7,-5 18.7,-15.6 0.5,-9.3 -4.4,-13.7 -14.4,-13.7 z"
       id="path44"
       inkscape:connector-curvature="0"
       style="fill:#2c2c2c" /><path
       class="st3"
       d="m 106.53364,-139.07699 -20,-34.9 h -8.1 v 34.9 h -16.8 v -86.6 h 29.3 c 12.5,0 18.7,1.9 23.7,6.2 5,4.3 6.9,10.6 6.9,18.7 0,6.9 -1.9,11.8 -5,16.2 -3.1,4.4 -6.2,6.2 -13.7,8.1 l 21.8,37.5 z m -17.5,-72.9 h -10.6 v 24.3 h 10.6 c 10.6,0 15,-3.7 15,-12.5 0,-8.1 -4.4,-11.8 -15,-11.8 z"
       id="path46"
       inkscape:connector-curvature="0"
       style="fill:#7c9f1b" /><path
       class="st3"
       d="m 190.03364,-139.07699 -6.9,-21.8 h -29.3 l -6.9,21.8 h -17.5 l 31.8,-87.3 h 15 l 31.8,87.3 z m -21.8,-66.7 -10,31.8 h 20 z"
       id="path48"
       inkscape:connector-curvature="0"
       style="fill:#7c9f1b" /><path
       class="st3"
       d="m 281.73364,-137.17699 h -11.8 l -13.1,-37.4 -13.1,37.4 h -10.6 l -33,-88.5 h 17.5 l 22.4,65.5 10.6,-29.3 -14.3,-36.2 h 15 l 6.9,17.5 5.6,-17.5 h 14.3 l -13.1,34.9 12.5,29.9 20.6,-64.9 h 15.6 z"
       id="path50"
       inkscape:connector-curvature="0"
       style="fill:#7c9f1b" /><path
       class="st3"
       d="m 39.83364,-208.87699 c -4.4,-2.5 -8.1,-3.1 -15.6,-3.1 -16.8,0 -28.7,11.8 -28.7,28.7 0,18.7 12.5,31.2 31.2,31.2 6.2,0 9.4,-0.6 13.1,-1.9 l 9.4,11.8 c -5.6,2.5 -7.5,3.1 -11.8,4.4 -4.4,0.6 -8.7,1.2 -13.7,1.2 -13.7,0 -23.1,-3.7 -31.8,-10.6 -9.4,-8.1 -15,-21.2 -15,-34.9 0,-12.5 5,-24.3 13.1,-32.4 8.7,-8.7 18.7,-11.8 33,-11.8 11.2,0 20,2.5 27.4,8.1 z"
       id="path52"
       inkscape:connector-curvature="0"
       style="fill:#7c9f1b" /><path
       class="st3"
       d="m 325.33364,-139.07699 v -86.6 h 16.8 v 73 h 30.6 l 5,14.3 h -52.4 z"
       id="path54"
       inkscape:connector-curvature="0"
       style="fill:#7c9f1b" /></g></g>



































<g
   id="g590"
   transform="translate(0,-115.8)">
</g>
<g
   id="g592"
   transform="translate(0,-115.8)">
</g>
<g
   id="g594"
   transform="translate(0,-115.8)">
</g>
<g
   id="g596"
   transform="translate(0,-115.8)">
</g>
</svg>