<svg xmlns="http://www.w3.org/2000/svg" width="64" height="64"><path d="M35.46 4.865c0 2.595-2.162 4.757-4.757 4.757s-4.757-2.162-4.757-4.757S28.108.108 30.702.108 35.46 2.27 35.46 4.865zm-4.757 8.65a4.89 4.89 0 0 0-4.973 4.973c0 2.81 2.162 4.973 4.973 4.973s4.973-2.162 4.973-4.973-2.162-4.973-4.973-4.973zm0 13.405c-2.8 0-5.2 2.378-5.2 5.2s2.378 5.2 5.2 5.2 5.2-2.378 5.2-5.2-2.378-5.2-5.2-5.2zm0 13.622a4.89 4.89 0 0 0-4.973 4.973c0 2.81 2.162 4.973 4.973 4.973s4.973-2.162 4.973-4.973c0-2.595-2.162-4.973-4.973-4.973zm0 13.838c-2.595 0-4.757 2.162-4.757 4.757s2.162 4.757 4.757 4.757 4.757-2.162 4.757-4.757-2.162-4.757-4.757-4.757zm13.2-41.513c-3.027 0-5.622 2.595-5.622 5.622s2.595 5.622 5.622 5.622 5.622-2.595 5.622-5.622-2.595-5.622-5.622-5.622zm0 13.405c-3.243 0-5.838 2.595-5.838 5.838s2.595 5.838 5.838 5.838 5.838-2.595 5.838-5.838-2.595-5.838-5.838-5.838zm0 13.622c-3.027 0-5.622 2.595-5.622 5.622s2.595 5.622 5.622 5.622 5.622-2.595 5.622-5.622-2.595-5.622-5.622-5.622zm13.622-14.27c-3.46 0-6.486 2.8-6.486 6.486 0 3.46 2.8 6.486 6.486 6.486S64 35.784 64 32.108c-.216-3.676-3.027-6.486-6.486-6.486zM17.3 14.164a4.34 4.34 0 0 0-4.324 4.324 4.34 4.34 0 0 0 4.324 4.324 4.34 4.34 0 0 0 4.324-4.324 4.34 4.34 0 0 0-4.324-4.324zm0 13.405c-2.595 0-4.54 1.946-4.54 4.54s1.946 4.54 4.54 4.54 4.54-1.946 4.54-4.54-1.946-4.54-4.54-4.54zm0 13.622a4.34 4.34 0 0 0-4.324 4.324 4.34 4.34 0 0 0 4.324 4.324 4.34 4.34 0 0 0 4.324-4.324 4.34 4.34 0 0 0-4.324-4.324zM3.892 28.216C1.73 28.216 0 29.946 0 32.108S1.73 36 3.892 36s3.892-1.73 3.892-3.892-1.73-3.892-3.892-3.892z" fill="#00b0b9"/></svg>