<svg xmlns="http://www.w3.org/2000/svg" height="64" width="64"><g transform="matrix(.072794 0 0 .072794 -.000407 .634153)" fill-rule="evenodd"><path d="M503.127 119.752c-7.7-21.115-272.92-124.22-276.3-112.9-48.7 12.695-68.52 68.826-102.02 104.38l-74.393-4.26c-32.77 42.142-49.967 85.2-38.258 129.95 42.002 56.906 90.76 105.33 121.15 176.8 2.402 33.692 145.82 3.533 176.56-3.136-41.992 30.06-78.56 76.65-62.846 210.84 14.346 63.014 24.16 133.37 151.4 204.64 16.75 9.382 51.407 20.207 72.838 28.098 20.495 9.4 44.46 13.264 112.07-7.412 39.124-16.863 81.365-27.022 119.65-43.844l-46.017 2.16c-63.37 1.38-112.3 6.106-127.38-11.6l-58.32-100.68 34-66.04c47.056 4.826 62.675 42.986 104.15 57.518l48.885-36.215c142 83.816 198.48-53.12 214.67-159.77-1.728-43.392-93.952 13.6-88.362-6.68 2.166-46.644-35.854-107.67-60.42-155.22l28.43-110c12.9-11.5-59.72-133.86-119.02-149.12-52.03-13.4-130.46 52.492-130.46 52.492z" fill="#fdee21"/><g fill="#c8c037"><path d="M736.387 353.55c.5 11.816.452 26.187 1.594 35.15-.197 6.838-5.323 7.1-9.564 8.52l27.63 10.12c5.486 9.23 9.894 18.463 14.347 27.694 5.165 22.708 1.3 23.357-2.125 25.03-10.027.102-20.025.12-29.358-1.864 4.18 2.207 5.1 3.815 5.543 6.642.816 5.212-2.54 12.33-8.067 19.188 8.172 4.534 23.07 8.97 34.14 13.18l12.62-28.093c-5.715-41.27-23.045-79.3-46.76-115.57zm51.57 138.43c15.324 6.387 36.495 4.515 65.848-10.613 4.365-3.104 8.43-1.25.62 3.858-38.5 34.547-56.927 17.265-66.467 6.755z"/><path d="M856.747 476.84c4.552 8.716 1.794 15.805.266 23.167-4.753 37.45-16.423 67.056-39.32 97.994-74.478 119.74-149.67 44.817-209.62-3.946l-24.798 62.137c-1.316 5.446-6.8 9.688 31.937 26.738l39.452-27.867c150.46 114.48 257.08-160.24 202.08-178.22zm-230.53 107c-10.15.724-40.36 10.997-41.706 16.946l13.902-20.712zm-19.74-126.97c1.86 0 10.788 2.397 9.83 1.864-1.37-.763-.153 12.52 2.657 19.44l-10.893 23.7c20.865-24.063 53.858-22.462 84.486-25.564l-14.612-9.054c2.538-8.466-.45-15.165-1.86-22.368zm51.27-71.37c-22.387 6.863-43.816 18.075-58.203 41.976 10.976-39.395 13.213-37.9 16.757-39.846 15.35-6.865 27.922-2.586 41.446-2.13z"/></g><path d="M538.197 847.25c-27.07 29.87-87.47-2.26-137.63-18.64-127.46-81.05-152.36-157.35-154.1-232.2-6.553-107.22 26.37-169.52 68.014-184.27-27.56 53.13-40.4 148.5-27.63 219.42 10.315 39.455 10.53 106 76.545 141.62 32.327 18.2 23.57 32.368 45.43 49.413 23.955 18.68 90.747 36.437 129.36 24.658zm40.44-495.5c-45.83-65-110.3-89.387-182.98-92.053 14.568-4.75 29.136-7.222 43.704-14.246 3.567-3.748 2.4-10.344 1.063-17.042-69.97-18.27-114.13-40.85-170.03-61.78l150.9 36.215c101.9 3.872 93.158 29.032 157.34 148.9zm49.07-31.35c-33.87-48.35-66.72-107.03-111.3-144.35-107.64-48.584-214.12-84.666-338.9-117.5l39.827-51.216c132.42 30.227 256.8 80.808 368.2 164.2 18.85 47.66 31.42 95.383 42.173 148.87zm68.28-85.44s-18.988-42.6-28.233-58.866c-21.446-23.766-32.3-68.054-76.213-88.922 13.892 3.75 23.4-.718 51.76 24.992l44.67 84.734zm23.62 73.8c4.38-36.908 12.695-96.1 3.152-119.5L642.72 82.63c-4.43-4.123-7.62-9.72-11.1-14.084 37.6 9.744 76.86 35.894 129.8 139.13z" fill="#fcf6a0"/><path d="M561.487 313.12c-14.98-11.8-28.33-53.5-51.03-62.16-21-1.758-28.715-8.368-56.344-2.74 10.02-5.02 19.482-11.446 30.134-14.885 7.215-1.703 13.983.184 20.867 1.133 1.7-.804 2.814-1.803 2.398-3.313-27.812-17.187-84.866-17.432-123.38-27.243 44.7 1.496 94.156-.98 127.75 9.8 27.013 23.973 35.788 69.12 49.605 99.415zm81.9-201.093c6.2.563 39.574 53.353 41.142 62.137 2.775 19.202 9.62 40.728 11.46 60.82-5.497-19.27-11.486-38.537-18.974-57.806-2.2-5.306-7.724-17.302-23.107-34.27-7.163-11.96-8.7-21.36-10.52-30.88zm113.1 287.523H742.2l15.78 4.142zm-97.42-14.25c-14.358-1.765-29.1-2-43.448 1.156-5.852 7.86-6.255 15.856-8.813 23.245 17.454-19.236 24.38-20.412 52.26-24.4zm195.82 99.27c-8 6.377-8.788 12.38-32.413 19.572-17.228 4.074-26.96-2.83-35.07-12.116 12.294 3.522 14.26 12.8 47.225 2.397zm-71.6 4c-5.75 15.812-11.95 31.8-18.2 46.6-14.883 17.454-8.54 7.508-30.82 34.617 7.13-10.998 16.4-21.566 21.254-33.02 3.4-7.542 7.653-15.543 9.532-22.244-5.907-2.95-18-3.183-19.64-2.125-19.808 11.683-23.382 24.047-35.06 36.086 8.464-13.53 15.693-28.298 25.505-40.476 1.118-1.58 8.383-1.886 12.85-2.82-6.94-1.2-19.786-3.685-20.82-3.572-12.922 3.105-20.163 14.36-29.756 21.836 6.994-10.098 13.436-20.612 22.317-29.292.878-1.02 24.883 1.082 37.324 6.047l.247 4.95 7.063 2.85 5.314-13.314zm-156.75 95.33c-3.188-1.1-31.35-4.7-31.35-3.86-10.813 7.696-12.453 15.06-12.22 21.436 18-17.697 17.32-17.747 43.572-17.575zm-21.4-127.3s20.322-2.963 19.926-1.065c-1.472 7.05 2.488 24.233 2.923 21.836l-11.424 9.32c23.926-12.03 49.113-9.612 74.656-11.45 0 0-21.507-5.938-20.192-6.125 4.798-.68-1.277-22.43-2.923-22.9 4.1-1.385 8.087-2.43 12.22-3.462-30.756-8.048-48.54-3.306-75.188 13.847z"/><path d="M781.027 471.78l-4.517 2.263c-.64-13.23-14.85-12.26-26.834-12.382l-9.83-2.397c3 2.766 12.23 2.55 8.502 8.52-3.137 1.677-4.58 8.87-6.376 14.912l-5.314.266 28.428 11.184 6.1.932 14.612-7.856z"/><path d="M646.327 462.86c-2.287-4.525-13.794-3.882-16.275-.955-2.016 2.38-.125 17.642 2.46 15.068 3.737-3.285 8.618-4.66 14.48-4.394.74-2.82.477-5.865-.664-9.72zm110.35 22.74c1.082-.8 3.37-8.443 2.63-10.733-1.512-5.403-12.212-4.266-12.212-4.266-2.6 1.536-4.9 9.96-3.945 12.74.455 2.353 11.8 3.103 13.526 2.26z" fill="#fff"/><path d="M299.107 749.64l6.76.66c40.07 19.675 106.05 48.847 201.57 33.17l14.988 23.584c-42.067 20.442-87.312 15.738-129.7 17.172zm-57.53-155.54l20.073 84.268c53.74 33.593 145.54 72.07 222.06 68.965l-16.9-38.8c-159.73-33.92-173.24-76.8-225.22-114.44zm49.95-172.6c9.8 65.302 22.907 114.8 79.7 156.28 34.804 25.03 69.35 49.954 111.37 70.524 0 0-3.684 19.17-6.763 18.83-125.05-13.9-216.6-117.58-227.7-164.94 10.74-36.33 26.15-59.02 43.4-80.693zm60.1-37c16.664 72.376 56.397 145.68 95.9 212.18 14.477 18.37 18.266 26.475 40.58 37.66 30.16 9.55 51.486 7.112 73.377 5.676-5.998-11.102-11.33-22.706-18.217-33.14-49.018-38.765-26.364-74.06-13.344-96.406-27.256-6.887-63.37-21.525-68.345-40.778-8-62.27-3.937-82.025 4.07-114-36.9 7.782-74.3 15.494-114 28.82z"/><path d="M216.237.058c-12.13 7.925-23.818 19.256-36.4 32.135-20.843 21.575-34.7 42.62-55.915 58.224-4.243 3.66-16.15 9.55-31.12 10.425-7.052.352-11.646 1.52-24.604-.108-11.428-6.188-22.285-2.164-32.88 10.5-11.62 16.7-26.334 48.437-32.453 68.4-12.6 50.937 19.54 92.905 50.374 125.25 27.43 26.796 43.243 43.542 54.505 68.107 8.527 15.933 14.844 37.8 21.683 53.13 2.466 4.86 1.953 4.835 8.6 6.3 14.333 3.06 34.215 3.083 51.915 4.604 7.658.107 18.175-.178 28.14-1.217 13.73-2.593 29.863-5.133 43.384-9.8 13.213-3.254 24.985-7.76 35.597-11.907-1.37 4.644-11.478 9.115-15.268 15.002-35.97 51.5-45.823 97.308-39.56 169.6 3.542 32.042 10.896 58.605 21.992 88.997 5.077 13.908 15.882 35.934 26.236 50.565 30.8 43.506 99.672 99.374 195.56 120.88 16.73 2.287 35.715 1.067 53.57-3.688 47.326-14.346 143.78-48.275 143.78-48.275s-85.62 7.083-124.83 3.206c-9.078-1.42-19.08-1.9-25.405-8.087-1.06-1.37-4.914-9.132-2.426-9.202 3.395-.095 13.142-4.14 28.2-5.482-32.13-3.46-31.67-3.418-34.016-9.27-3.647-9.085-9.23-21.502-14.977-32.367 14.118 1.2 45.376 2.946 55.984-8.003 0 0-18.497 2.136-34.843.218-5.507-.646-14.9-3.995-17.7-5.03-7.338-2.858-13.38-3.746-14.788-5.6-2.548-6.486-4.275-8.667-7.35-17.356-4.166-11.504-4.496-24.337-5.3-36.083 10.693 13.18 24.318 24.275 42.356 29.94.23-.488 23.4 10.072 40.226 4.642l3.5-1.125c0 .3-11.148.977-15.237-1.047-34.22-14.545-39.37-27.276-44.895-33.6l-14.777-22.133c4.494-8.96 7.035-9.3 13-9.384 18 2 25.848 3.54 36.807.896 7.405 15.24 9.406 30.57 26.265 41.662 56.166 16.672 68.37-4.95 81.973-24.057 40.412 29.658 106.2 38.803 151.9.515 58.086-67.212 76.476-173.17 71.325-179.22-7.254-12.307-16.772-25-24.945-23.245-29.13 7.952-39.87 22.73-68.735 19.36 3.438-.194 9.22-.287 9.263-.615 2.224-24.44-.18-36.267-1.252-38.297-8.76-19.317-20.26-39.646-28.278-54.88-2.067-3.16-8.137-27.165-18.308-36.648-4.362-3.725-15.04-13.546-15.04-13.546l-.905 10.44s4.174.63 5.762 7.097c6.022 24.517 36.687 82.485 38.938 85.263 10.868 17.545 1.105 39.4 9.367 51.663.794 1.558 16.857-.137 29.307.628 20.473-4.403 19.6-13.426 37.294-14.782 11.913-.913 13.108 21.46 12.95 23.196-2.22 24.704-9.735 53.427-21.236 79.658-23.912 46.07-50.7 87.446-88.67 93.216-46.326 8.095-70.4-12.158-95.512-25.055l-9.607 8.193c-32.637 32.5-71.4 29.614-87.24-12.85-7.9-16.473-18.172-26.57-26.976-40.7l-46.688 33.627c-3.886 7.97-8.665 20.54-14.47 34.58-4.036 9.76-7.42 26.525-7.2 40.456-5.985 10.195 20.73 51.542 37.6 76.692l14.6 21.193c3.348 8.683 10.68 16.35 11.124 17.284 31.337 40.872-39.53 31.46-54.167 29-28.876-4.6-57.12-16.663-83.67-32.792l-4.605-2.848c-31.55-19.866-60.58-45.283-85.264-70.423-14.718-16.666-28.732-50.827-39.083-75.045-15.513-58.226-37.776-159.15 22.532-235.63 3.823-4.372 7.948-11.65 11.46-13.1 17.918-12.12 37.375-20.38 58.298-24.966l-2.112-13.563c-10.45 2.374-45.633 15.243-55.58 20.63-22.623 6.558-41.388 13.406-70.22 20.625-9.372 1.147-18.592 1.167-27.58-.053-20.74-2.818-56.094-.3-58.35-2.396-14.044-19.585-17.9-54.676-30.703-73.456l-.15-.187-.162-.178c-7.47-10.04-16.177-18.23-24.752-26.75-30.708-30.5-57-60-64.348-91.27-1.85-9.23-6.614-18.8-4.082-46.1l.047-.134.044-.134c7.388-25.513 19.407-46.3 39.806-67.153 21.228.343 42.24.8 58.607 3.936 7.5 1.256 23.124 3.296 39.252 9.304 40.822 15.207 94.76 40.2 94.76 40.2-40.488-22.236-85.76-51.115-114.35-56.943-4.254-.602-6.868-2.543-8.13-5.93 43-25.264 50.865-55 79.147-81.686 12.925-5.626 17.965-8.498 28.947-9.692 101.57 16.06 165.5 56.515 216.1 83.566 20.53 11.164 39.2 19.606 57.015 29.773 15.624 5.14 62.77 40.734 76.57 59.925 14.017 29.595 24.25 61.563 33.585 92.4 6.693 31.375 12.564 44.102 12.564 44.102s-5.688-26.243-4.74-30.958c5.898 2.204 19.84 6.557 25.62 5.88 0 0-25.818-13.346-29.2-25.14-10.856-37.847-21.744-96.765-24.68-99.837-8.274-10.4-42.777-36.816-63.94-49.03-8.006-4.62-12.333-7.487-12.67-9.518 6.76-6.83 15.1-15.865 22.598-21.606 7.177-5.503 13.7-11.7 23.713-15.423 43.963-19.8 69.1 7.618 75.066 2.066 0 0-9.458-10.84-5.257-9.056 4.302 2.33 18.323 5.078 19.862 6.5 16.023 12.534 57.913 58.344 83.16 106.68 6.064 11.84 8.53 19.636 5.716 33.893-2.82 14.27-5.002 22.117-8.078 31.647-2.778 6.37-18.498 49.988-18.437 55.848-3.167 23.932 10.264 53.893 10.264 53.893.127-8.133-.5-12.466.237-18.282l.904-10.393s-.573-2.764-.47-3.86c.682-7.187 2.445-13.23 2.962-17.345 5.048-31.255 13.822-53.755 23.775-81.182 2.958-6.922 6.828-10.77 6.63-16.04.163-9.352-8.205-21.904-14.252-34.163-6.1-12.4-13.4-26.202-22.96-40.76-21.82-31.376-40.42-55.925-74.48-71.3-9.53-4.182-47.03-8.27-59.98-5.84-15.7 3.273-29.22 6.5-40 13.398-16.95 10.854-30.27 27.66-45.9 37.56-34.56-17.282-51.24-30.216-54.35-32-20.54-11.006-45.2-23.778-71.73-35.9-12.72-11.862-91.7-40.233-164.04-45.892zm442.08 644.6c-21.3-16.65-39.23-33.8-51.05-51.44-3.858 20.758-17.864 35.542-28.688 50.083-2.155 3.4-3.708 8.06 6.902 22.88 2.86 3.948 13.207 4.623 20.192 4.26-7.106-5.372-17.918-11.053-19.66-15.977 12.5 8.5 24.076 10.957 34.538 9.586 2.4-.27 5.36-2.804 7.655-6.706 4.664-10.02 8.315-12.433 12.005-15.13l8.502 10.65z" stroke="#000" stroke-width=".114"/></g></svg>