<svg xmlns="http://www.w3.org/2000/svg" width="189" height="60" stroke-width="1.866"><path d="M21.122 13.934v1.086c-.71.104-1.218.295-1.528.576s-.465.664-.465 1.153c0 .413.14.93.42 1.55s.68 1.357 1.196 2.214l3.212 5.382 3.167-5.116 1.063-1.84c.236-.458.4-.842.487-1.15.103-.31.155-.627.155-.953 0-.458-.133-.84-.4-1.152-.266-.325-.71-.546-1.33-.664v-1.086h8.217v1.086c-.546.177-1.04.435-1.484.775-.428.34-.893.834-1.395 1.484l-2.104 3.08-5.006 7.75 5.626 9.26 1.705 2.768.975 1.328a7.15 7.15 0 0 0 .975.93c.354.267.8.494 1.307.688v1.085h-9.724v-1.085c.68-.118 1.18-.303 1.506-.554.325-.266.487-.656.487-1.174 0-.413-.11-.87-.332-1.373-.207-.504-.532-1.124-.975-1.86l-4.01-6.7-4.23 6.933c-.71 1.166-1.063 2.126-1.063 2.88 0 .488.133.886.4 1.197s.71.525 1.33.643v1.085h-8.372v-1.085c.546-.162.997-.355 1.35-.578a5.6 5.6 0 0 0 1.019-.885c.325-.355.687-.804 1.085-1.35l1.905-2.857 5.227-8.15-6.246-10.28-1.35-2.06c-.295-.427-.576-.775-.842-1.04-.25-.266-.48-.45-.687-.554-.207-.118-.443-.22-.71-.3v-1.086h9.436" fill="#999" stroke="#999" stroke-linecap="square"/><g stroke="#000"><path d="M45.676 31.034v7.53l.1 2.327c.1.473.214.834.377 1.085.162.236.384.437.664.6.28.146.76.316 1.44.5v1.085H38.92v-1.085c.916-.238 1.528-.496 1.838-.776.3-.295.5-.708.598-1.24.103-.533.155-1.344.155-2.436v-19.16l-.1-2.216c-.074-.472-.2-.835-.377-1.086-.162-.265-.384-.472-.664-.62-.28-.163-.76-.34-1.44-.53v-1.086h10.964c3.455 0 6.04.628 7.752 1.883s2.57 3.204 2.57 5.848c0 2.02-.56 3.74-1.683 5.16-1.107 1.417-2.776 2.525-5.006 3.322v.176a6.33 6.33 0 0 1 2.304 1.595c.65.68 1.366 1.743 2.148 3.2l1.993 3.632c.576 1.064 1.07 1.875 1.484 2.436s.834 1 1.263 1.284.997.504 1.705.622v1.085H58.28a26.42 26.42 0 0 1-1.595-2.525l-1.485-2.74-1.95-3.7-1.462-2.48c-.37-.53-.716-.9-1.04-1.106a2.55 2.55 0 0 0-1.02-.444c-.354-.096-.893-.13-1.617-.13h-2.436m0-15.062V29.13h2.503c1.285 0 2.326-.096 3.123-.267a5.91 5.91 0 0 0 2.215-1.062c.68-.515 1.218-1.233 1.617-2.148.413-.93.62-2.068.62-3.412 0-1.404-.244-2.57-.73-3.5a4.73 4.73 0 0 0-2.17-2.126c-.974-.486-2.3-.73-3.943-.73l-3.234.092m37.6 24.425c-.945 1-1.816 1.764-2.614 2.325a10 10 0 0 1-2.591 1.33c-.945.3-1.986.464-3.123.464-3.042 0-5.338-.908-6.888-2.724-1.55-1.83-2.326-4.525-2.326-8.083 0-2.2.4-4.143 1.174-5.827.797-1.683 1.927-2.983 3.4-3.898s3.145-1.373 5.05-1.373c1.5 0 2.76.236 3.8.7s1.883 1.122 2.503 1.95c.635.8 1.122 1.846 1.462 3.1.354 1.24.554 2.865.598 4.873H69.765v.398c0 1.744.192 3.213.576 4.408.4 1.182 1.04 2.112 1.927 2.792.9.664 2.067.996 3.5.996 1.2 0 2.296-.22 3.256-.664.975-.457 1.942-1.195 2.902-2.214l1.35 1.44m-3.72-8.992c-.1-1.595-.288-2.896-.598-3.9-.3-1.017-.775-1.794-1.395-2.324-.62-.546-1.432-.82-2.436-.82-1.52 0-2.74.615-3.655 1.84-.9 1.212-1.432 2.945-1.595 5.206h9.68"/><path d="M107.4 25.23l-4.098-.157-.2.245c.458.457.82 1.085 1.085 1.882.266.782.4 1.63.4 2.546 0 2.408-.746 4.27-2.237 5.58-1.477 1.3-3.58 1.95-6.313 1.95-1.226 0-2.28-.155-3.167-.465-1.122.857-1.683 1.698-1.683 2.525 0 .546.103.96.3 1.24.22.282.576.48 1.063.598.502.118 1.255.178 2.26.178h5.316c1.565 0 2.842.243 3.832.73s1.7 1.145 2.104 1.973c.428.8.642 1.765.642 2.857 0 1.387-.4 2.62-1.196 3.698-.797 1.092-1.95 1.942-3.455 2.548s-3.263.907-5.272.907c-1.5 0-2.857-.096-4.098-.264-1.226-.178-2.28-.48-3.167-.9-.87-.413-1.55-.967-2.038-1.66-.473-.68-.7-1.537-.7-2.57 0-.93.3-1.78.93-2.548.62-.754 1.5-1.418 2.636-1.993-.694-.28-1.24-.695-1.64-1.24s-.598-1.187-.598-1.927c0-.842.236-1.608.7-2.303.473-.708 1.307-1.513 2.503-2.413a6.28 6.28 0 0 1-2.436-2.525c-.546-1.064-.82-2.274-.82-3.634 0-1.27.207-2.368.62-3.3.428-.946 1-1.72 1.75-2.327.753-.62 1.64-1.077 2.658-1.373 1.02-.3 2.12-.465 3.3-.465a13.52 13.52 0 0 1 3.167.376h7.84v2.238m-15.372 4.496c0 1.846.377 3.27 1.13 4.274s1.838 1.505 3.256 1.505c.753 0 1.395-.14 1.927-.42.532-.295.96-.693 1.285-1.195a5.07 5.07 0 0 0 .731-1.727c.162-.666.244-1.36.244-2.084 0-1.3-.185-2.384-.554-3.254s-.87-1.506-1.506-1.906c-.635-.413-1.366-.62-2.193-.62-1.403 0-2.473.465-3.212 1.396s-1.107 2.273-1.107 4.03m.554 14.794c-.753.562-1.322 1.152-1.705 1.772-.37.635-.554 1.352-.554 2.15 0 1.33.524 2.303 1.573 2.925 1.063.633 2.68.952 4.85.952 1.33 0 2.466-.178 3.4-.532.96-.355 1.7-.864 2.193-1.528s.753-1.44.753-2.327a4.86 4.86 0 0 0-.155-1.218c-.103-.384-.303-.73-.598-1.04-.28-.3-.687-.562-1.218-.753-.532-.178-1.226-.267-2.082-.267h-3.3c-1.196 0-2.252-.047-3.167-.133m38.44-30.593v6.7h-2.17l-.687-1.903a8.53 8.53 0 0 0-.73-1.375 3.47 3.47 0 0 0-.842-.886c-.295-.22-.65-.37-1.063-.443-.413-.092-.908-.133-1.484-.133h-7V27.5h4.74c.65 0 1.16-.096 1.528-.267.37-.2.672-.5.908-.95.25-.444.487-1.137.7-2.083h2.082v8.506h-2.082c-.207-.886-.436-1.55-.687-1.994-.25-.458-.554-.782-.908-.973-.34-.194-.856-.3-1.55-.3h-4.74v12.78h6.888c.724 0 1.307-.062 1.75-.177.458-.132.85-.346 1.174-.64.325-.3.613-.7.864-1.197s.458-.988.62-1.506l.7-2.303h2.193l-.42 7.775h-20.5v-1.085c.915-.238 1.528-.496 1.838-.776.3-.295.5-.708.598-1.24.103-.533.155-1.344.155-2.436v-19.16l-.1-2.216c-.073-.472-.2-.835-.377-1.086-.162-.265-.384-.472-.664-.62-.28-.163-.76-.34-1.44-.53v-1.086h20.7" stroke-linecap="square"/><path d="M145.1 31.387l2.88-3.655a8.55 8.55 0 0 0 .753-1.15 2.6 2.6 0 0 0 .288-1.175 1.07 1.07 0 0 0-.377-.84c-.25-.22-.642-.383-1.174-.487v-1.085h7.243v1.085c-.56.162-1.137.48-1.728.952-.576.473-1.285 1.233-2.126 2.282l-4.585 5.626 5.05 6.8c.724.975 1.373 1.72 1.95 2.238s1.152.886 1.728 1.1v1.085h-8.904v-1.085c1.226-.15 1.838-.607 1.838-1.375a2.57 2.57 0 0 0-.155-.885c-.103-.28-.295-.605-.576-.974l-3.212-4.475-3.4 4.43a6.35 6.35 0 0 0-.598.907 2.01 2.01 0 0 0-.199.909c0 .398.133.73.4.997.28.25.716.405 1.307.465v1.085h-7.398v-1.085c.487-.178.923-.4 1.307-.664.4-.266.797-.606 1.196-1.02.414-.43.952-1.05 1.617-1.86l4.607-5.715-4.718-6.467-1.55-1.927c-.384-.4-.738-.7-1.063-.907a3.53 3.53 0 0 0-.975-.444v-1.085h8.683v1.085c-1.167.178-1.75.635-1.75 1.373a2.52 2.52 0 0 0 .222 1.02c.162.34.406.716.73 1.13l2.702 3.788m18.415 12.1v4.672l.1 2.15c.073.473.192.842.354 1.108a2.06 2.06 0 0 0 .731.687c.325.175.842.34 1.55.486v1.085h-9.037v-1.085a7.36 7.36 0 0 0 1.285-.465 1.59 1.59 0 0 0 .775-.687c.177-.295.295-.7.354-1.218s.1-1.203.1-2.06V29.173l-.044-2.26c-.03-.46-.1-.836-.177-1.13a1.8 1.8 0 0 0-.4-.73c-.162-.193-.4-.355-.687-.488-.28-.132-.753-.265-1.418-.4V22.99l5.205-.2h1.35l-.288 3.6.332.096 2.17-2.016c.532-.428 1.078-.783 1.64-1.063.576-.28 1.122-.48 1.64-.6a7.77 7.77 0 0 1 1.683-.178c2.436 0 4.304.916 5.604 2.747 1.314 1.817 1.97 4.48 1.97 7.996 0 2.437-.37 4.5-1.107 6.157s-1.816 2.902-3.234 3.744c-1.403.826-3.08 1.24-5.028 1.24-1.093 0-2.082-.1-2.968-.288-.886-.177-1.698-.42-2.436-.73m0-7.3c0 1.417.1 2.5.266 3.278s.487 1.394.93 1.883c.458.47 1 .826 1.595 1.062.62.237 1.432.355 2.436.355 1.787 0 3.13-.738 4.03-2.214.9-1.493 1.35-3.686 1.35-6.58 0-5.788-1.7-8.682-5.072-8.682-.827 0-1.543.133-2.15.4-.6.25-1.18.665-1.772 1.24s-1 1.137-1.262 1.684c-.236.53-.354 1.108-.354 1.728v5.848"/></g></svg>