<svg xmlns="http://www.w3.org/2000/svg" viewBox="0 0 4500 1500" width="120" height="60"><g fill="#d70751"><path d="M1061.405 885.972c-24.8.6 4.722 12.986 37.186 17.708 8.854-7.083 17.118-14.166 24.2-20.66-20.07 4.722-40.728 4.722-61.387 2.95m133.4-33.053c14.757-20.66 25.38-42.5 29.513-65.52-3.542 16.527-12.395 30.694-20.66 45.45-46.63 28.923-4.132-17.118 0-34.825-50.172 62.568-7.083 37.186-8.854 54.894m48.992-128.086c2.95-44.86-8.854-30.694-12.986-13.576 4.722 2.95 8.264 31.874 12.986 13.576M967.553 114.5c12.986 2.36 28.923 4.132 26.562 7.083 14.166-2.95 17.708-5.903-26.562-7.083m26.562 7.674l-9.444 1.77 8.854-.6.6-1.18m324.043 586.73c1.77 40.138-11.805 59.616-23.6 93.85l-21.25 10.625c-17.708 34.235 1.77 21.84-10.625 48.992-27.152 24.2-83.227 76.144-100.935 80.866-12.986 0 8.854-15.347 11.805-21.25-36.596 25.38-29.513 37.777-85.588 53.123l-1.77-3.542C948.085 1036.488 755.66 907.8 758.6 731.912c-1.18 11.215-4.132 8.264-7.083 12.986-7.083-90.3 41.9-181.2 124.545-218.397 80.866-40.138 175.308-23.6 233.153 30.103-31.874-41.318-95.032-85.588-169.995-81.456-73.192 1.18-142.253 47.8-164.683 98.574-37.777 23.6-41.9 91.5-58.436 103.886-21.84 161.732 41.318 231.973 148.746 314.02 17.118 11.215 4.722 12.986 7.083 21.84-35.416-16.527-68.47-41.9-95.032-72.602 14.166 20.66 29.513 41.318 49.582 57.255-33.645-11.215-78.505-81.456-91.5-84.407 57.846 103.886 235.514 182.4 328.185 143.433-43.1 1.77-97.393.6-145.794-17.118-20.07-10.625-47.8-31.874-43.1-36.006 126.906 47.22 257.354 36.006 367.142-51.943 27.742-21.84 58.436-58.436 67.3-59.026-12.986 20.07 2.36 9.444-7.673 27.152 27.742-44.86-11.805-18.298 28.923-77.324l15.347 20.66c-5.903-37.186 46.04-82.637 40.728-141.072 11.805-17.708 12.986 19.48.6 60.797 17.708-46.04 4.722-53.123 8.854-91.5 4.722 12.986 11.215 26.562 14.757 39.547-11.215-44.27 11.805-74.963 17.118-100.344-5.903-2.36-17.708 19.48-20.07-33.055.6-23.02 6.493-11.805 8.854-17.708-4.722-2.36-15.937-20.07-23.02-53.714 5.312-7.673 13.576 20.66 20.66 21.25-4.722-26.562-12.395-46.63-12.395-67.3-20.66-43.1-7.083 5.903-24.2-18.298-21.84-68.47 18.298-15.937 20.66-46.63 33.055 47.8 51.943 122.774 60.797 153.468-6.493-37.777-17.118-74.373-30.694-109.198 10.034 4.132-15.937-77.324 12.986-23.6-31.284-115.1-134-223.12-228.43-273.3 11.805 10.625 25.97 23.6 20.66 25.97-47.22-27.742-38.957-30.103-45.45-41.9-38.367-15.347-40.728 1.18-66.1 0-72.012-38.367-86.178-34.235-152.287-58.436l2.95 14.166c-47.8-15.937-55.485 5.903-107.428 0-2.95-2.36 16.527-8.854 33.055-11.215-46.04 5.903-44.27-8.854-89.13 1.77 11.215-7.673 23.02-12.986 34.825-19.48-37.777 2.36-90.3 21.84-73.783 4.132-61.387 27.742-170.585 66.1-231.973 123.365l-1.77-12.986C507.76 221.916 413.9 289.206 406.237 332.885l-7.673 1.77c-14.757 24.8-24.2 52.533-35.416 78.505-18.888 32.464-27.742 12.395-25.38 17.708-37.777 76.144-56.075 140.482-72.602 193.015 11.215 17.118 0 103.296 4.722 172.356-18.888 341.17 239.056 672.307 521.8 748.45 41.318 14.757 102.705 14.166 155.24 15.937-61.977-17.708-69.65-9.444-129.857-30.103-43.1-20.66-53.123-43.68-83.817-70.24l12.395 21.25c-60.207-21.25-34.825-26.562-83.817-41.9l12.986-17.118c-19.48-1.77-51.943-33.055-60.797-50.172l-21.25.6c-25.38-31.874-39.547-54.304-38.367-72.012l-9.444 10.625c-7.673-13.576-94.442-118.642-49.582-94.442-8.264-7.673-19.48-12.395-31.284-34.235l8.854-10.625c-21.84-27.742-39.547-63.748-38.367-75.553 11.805 15.347 19.48 18.298 27.742 21.25-54.894-135.76-57.846-7.673-99.164-138.12l8.854-.6c-6.493-10.034-10.625-21.25-15.937-31.874l3.542-37.777c-39.547-45.45-11.215-193.015-5.312-274.47 4.132-33.055 33.055-67.88 54.894-123.365l-13.576-2.36c25.38-44.86 146.385-179.44 201.87-172.356 27.152-34.235-5.312 0-10.625-8.854 59.616-61.387 77.914-43.68 118.052-54.304 43.1-25.38-37.186 10.034-16.527-10.034 74.963-18.888 53.123-43.68 150.517-53.123 10.034 5.903-23.6 8.854-32.464 16.527 61.977-30.694 197.147-23.6 284.506 17.118 101.525 47.22 215.445 187.703 220.167 319.92l5.312 1.18c-2.36 52.533 8.264 113.33-10.625 168.815l12.395-25.38"/><path d="M791.065 920.207l-3.542 17.118c16.527 22.43 29.513 46.04 50.172 63.158-15.347-28.923-26.562-40.728-46.63-80.275m38.367-1.772c-8.854-9.444-13.576-21.25-19.48-32.464 5.312 20.07 16.527 37.186 27.152 54.894l-7.673-22.43m681.753-148.156l-3.542 9.444c-6.493 47.22-21.25 94.442-43.1 138.12 24.2-46.04 40.138-96.213 46.63-147.565M972.275 102.696c16.527-5.903 41.318-3.542 59.026-7.673-23.02 1.77-46.04 2.95-69.06 5.903l10.034 1.77m-588.5 312.838c4.132 36.006-27.152 49.582 7.083 25.97 17.708-40.138-7.673-10.625-7.083-25.97m-39.547 165.863c7.673-23.6 9.444-38.367 12.395-51.943-21.84 27.152-10.034 33.055-12.395 51.943"/></g><path d="M1727.976 935.92c0 295.493 157.006 295.493 180.356 295.493 65.218 0 107.086-35.427 124.8-97.424l2.415 93.398c20.13-.805 40.258-3.22 72.464-3.22 11.272 0 20.934 0 28.986.805 8.052 0 16.908.805 26.57 2.415-16.908-33.817-28.986-108.696-28.986-272.95 0-159.42 0-429.15 13.688-511.276-37.842 17.714-70.05 29.8-141.708 35.427 28.18 30.596 28.18 45.894 28.18 184.38-20.13-6.44-45.1-13.688-87.762-13.688-188.407 1.6-219.003 165.058-219.003 286.636m304.35-123.2c-.805.805-.805 169.888-3.22 214.172-2.415 35.427-5.636 111.917-80.516 111.917-77.295 0-96.62-89.373-103.06-128.02-7.246-42.674-7.246-78.906-7.246-94.204 0-50.725 3.22-190.823 121.58-190.823 35.427 0 55.556 10.467 71.66 18.52zm547.508 80.52c0-122.384-24.155-243.158-179.55-243.158-214.172 0-214.172 236.717-214.172 287.442 0 212.562 95.814 297.104 256.04 297.104 71.66 0 106.28-10.467 124.8-16.103-.805-37.842 4.026-61.997 10.467-94.204-21.74 13.688-50.725 31.4-113.527 31.4-163.447 0-165.863-148.954-165.863-200.485h279.4l2.416-61.997m-282.6-10.467c.805-86.957 18.52-165.058 93.398-165.058 82.126 0 87.762 90.178 86.152 165.058zm322.847 169.9c0 77.295 0 121.58-12.883 155.396 42.673 16.908 96.62 26.57 160.227 26.57 41.063 0 159.42 0 223.834-131.24 30.596-61.192 41.063-142.513 41.063-204.5 0-37.842-4.026-120.774-34.622-173.1-28.986-49.115-76.5-74.075-127.215-74.075-100.645 0-130.436 83.736-145.734 127.215 0-53.14.805-239.937 9.662-335.75-68.438 31.4-110.307 37.037-155.396 41.063 41.063 16.908 41.063 86.152 41.063 311.596v256.846m301.13-114.332c0 97.424-17.713 228.665-139.293 228.665-16.908 0-37.842-3.22-51.53-6.44-2.416-37.842-2.416-103.06-2.416-177.94 0-90.177 9.662-137.682 16.908-160.227 21.74-74.075 71.66-75.685 80.516-75.685 80.516 0 95.814 109.502 95.814 191.628zm313.206 289.846c-20.934-3.22-35.427-5.636-66.023-5.636-33.817 0-56.36 2.416-80.515 5.636 10.467-20.13 14.493-29.8 17.713-97.424 4.026-93.398 5.636-342.998-2.415-395.333-5.636-40.258-14.493-45.894-28.986-56.36 86.15-8.052 110.306-14.493 149.76-33.817-8.052 45.894-9.662 69.244-9.662 139.293-2.416 361.516-3.22 400.164 20.13 443.642m47.5-168.3c0 66.023 20.13 132.046 78.905 160.227 26.57 11.272 52.335 11.272 61.192 11.272 96.62 0 128.825-71.66 148.954-115.138-.805 45.894 0 74.075 3.22 111.112 18.52-.805 37.842-3.22 69.244-3.22 17.713 0 34.622 2.416 52.335 3.22-11.272-17.713-17.713-28.18-20.934-69.244-2.416-39.453-2.416-79.7-2.416-135.267l.805-214.17c0-79.712-20.934-158.617-178.745-158.617-103.865 0-165.058 31.4-194.848 47.504 12.883 23.35 23.35 42.674 32.206 87.762 41.063-35.427 94.204-54.75 148.954-54.75 86.957 0 86.957 57.97 86.957 139.293-20.13-.805-37.037-3.22-65.218-3.22-132.85 1.6-220.613 53.14-220.613 193.238m288.247-128.825c-2.415 66.023-3.22 111.917-20.934 148.954-21.74 47.504-58.777 61.192-86.152 61.192-62.802 0-76.5-52.335-76.5-103.865 0-98.23 87.762-106.28 128.02-106.28zm604.677 193.235c.805 35.427.805 73.27 16.103 103.866-23.35-2.416-37.037-5.636-79.7-5.636-24.96 0-38.648 2.416-58.777 5.636 4.026-13.688 6.44-18.52 8.052-37.037 3.22-24.155 5.636-104.67 5.636-132.85v-113.53c0-49.115 0-120.774-3.22-145.734-2.416-17.713-7.246-66.023-68.44-66.023-59.582 0-79.7 44.284-86.957 79.7-8.052 37.037-8.052 76.5-8.052 231.886.805 134.46.805 146.54 11.272 183.576-17.713-2.416-39.453-4.026-71.66-4.026-24.96 0-41.868.805-62.802 4.026 7.246-16.908 11.272-24.96 13.688-83.736 2.416-57.97 6.44-341.387-3.22-408.215-4.83-41.063-16.103-50.725-27.375-61.192 85.347-4.026 111.917-17.713 138.487-31.4V754.76C3910.76 722.554 3936.525 650.1 4042 650.1c131.24 0 132.046 95.814 132.85 158.616v315.622"/><path d="M3243.285 496.303l-86.957 86.957-86.957-86.957 86.957-86.957 86.957 86.957" fill="#d70751"/></svg>