<svg xmlns="http://www.w3.org/2000/svg" width="64" height="64" viewBox="0 0.039 5.12 5.117"><path d="M.376 3.376c0 .596.776 1.08 1.734 1.08s1.734-.484 1.734-1.08-.776-1.08-1.734-1.08S.376 2.78.376 3.376" fill="#fff"/><path d="M2.15 4.368c-.848.084-1.58-.3-1.634-.856s.588-1.075 1.435-1.16 1.58.3 1.634.856-.588 1.076-1.435 1.16M3.846 2.52c-.072-.022-.122-.036-.084-.13.082-.206.1-.383.002-.5-.166-.237-.62-.225-1.142-.006 0 0-.164.072-.122-.058.08-.258.068-.474-.057-.598-.283-.283-1.035.01-1.68.655C.28 2.355 0 2.867 0 3.3c0 .847 1.086 1.36 2.148 1.36 1.392 0 2.32-.81 2.32-1.45 0-.388-.327-.608-.62-.7" fill="#e6162d"/><path d="M4.77.97C4.435.598 3.94.456 3.48.553c-.106.023-.174.127-.15.233s.127.173.233.15a.96.96 0 0 1 .917.297c.23.256.307.615.2.943-.016.05-.012.103.012.15s.065.08.114.097c.103.033.213-.023.247-.126.144-.446.053-.954-.283-1.326m-.516.466a.66.66 0 0 0-.628-.203c-.06.01-.1.054-.13.112s-.006.123.036.168a.17.17 0 0 0 .164.05c.113-.024.23.014.307.1s.103.206.067.316c-.03.1.02.184.1.213s.184-.02.212-.1a.66.66 0 0 0-.138-.646" fill="#f93"/><path d="M2.198 3.36c-.03.05-.095.075-.147.054s-.066-.077-.038-.127.093-.074.143-.054.07.076.04.127m-.27.347c-.082.13-.258.188-.4.128s-.17-.21-.087-.34.25-.184.382-.13.175.208.095.34m.308-.926c-.403-.105-.86.096-1.034.45-.178.362-.006.765.402.896.422.136.92-.072 1.093-.464.17-.382-.042-.776-.46-.884"/></svg>