<?xml version="1.0" encoding="UTF-8" standalone="no"?>
<svg
   xmlns:dc="http://purl.org/dc/elements/1.1/"
   xmlns:cc="http://creativecommons.org/ns#"
   xmlns:rdf="http://www.w3.org/1999/02/22-rdf-syntax-ns#"
   xmlns:svg="http://www.w3.org/2000/svg"
   xmlns="http://www.w3.org/2000/svg"
   xmlns:sodipodi="http://sodipodi.sourceforge.net/DTD/sodipodi-0.dtd"
   xmlns:inkscape="http://www.inkscape.org/namespaces/inkscape"
   width="120"
   height="60"
   viewBox="0 0 120 60"
   version="1.1"
   preserveAspectRatio="xMidYMid"
   id="svg17"
   sodipodi:docname="asana-ar21.svg"
   inkscape:version="0.92.3 (2405546, 2018-03-11)">
  <metadata
     id="metadata21">
    <rdf:RDF>
      <cc:Work
         rdf:about="">
        <dc:format>image/svg+xml</dc:format>
        <dc:type
           rdf:resource="http://purl.org/dc/dcmitype/StillImage" />
        <dc:title></dc:title>
      </cc:Work>
    </rdf:RDF>
  </metadata>
  <sodipodi:namedview
     pagecolor="#ffffff"
     bordercolor="#666666"
     borderopacity="1"
     objecttolerance="10"
     gridtolerance="10"
     guidetolerance="10"
     inkscape:pageopacity="0"
     inkscape:pageshadow="2"
     inkscape:window-width="1920"
     inkscape:window-height="1001"
     id="namedview19"
     showgrid="false"
     inkscape:zoom="7.4909125"
     inkscape:cx="66.115425"
     inkscape:cy="30.973319"
     inkscape:window-x="-9"
     inkscape:window-y="-9"
     inkscape:window-maximized="1"
     inkscape:current-layer="svg17" />
  <defs
     id="defs9">
    <radialGradient
       cx="123.43518"
       cy="50.851189"
       fx="123.43518"
       fy="50.851189"
       r="61.654785"
       id="radialGradient-1"
       gradientTransform="matrix(0.42775464,0,0,0.39537576,-24.723771,11.606111)"
       gradientUnits="userSpaceOnUse">
      <stop
         stop-color="#FFB900"
         offset="0%"
         id="stop2" />
      <stop
         stop-color="#F95D8F"
         offset="60%"
         id="stop4" />
      <stop
         stop-color="#F95353"
         offset="99.91%"
         id="stop6" />
    </radialGradient>
  </defs>
  <g
     id="g835"
     transform="translate(-3.1585804)">
    <path
       d="m 59.477962,33.948211 c -2.133526,0 -3.863079,-1.767563 -3.863079,-3.948441 0,-2.180509 1.729553,-3.948351 3.863079,-3.948351 2.133619,0 3.862802,1.767842 3.862802,3.948351 0,2.180878 -1.729183,3.948441 -3.862802,3.948441 z m 3.875195,0.500898 c 0,0.361429 0.619463,1.377185 1.378668,1.377185 h 0.49174 c 0.19061,0 0.346633,-0.156204 0.346633,-0.346722 v -10.80497 h -0.002 c -0.0098,-0.181919 -0.160554,-0.327765 -0.344598,-0.327765 h -1.523589 c -0.184229,0 -0.334701,0.145846 -0.34506,0.327765 h -0.0018 v 0.878048 c -0.933557,-1.149862 -2.405263,-1.626896 -3.881224,-1.626896 -3.354692,0 -6.073923,2.71923 -6.073923,6.074016 0,3.354783 2.719231,6.074477 6.073923,6.074477 1.475961,0 3.08436,-0.572574 3.881021,-1.626711 z m 5.857047,-1.547452 c 1.017053,0.704362 2.127237,1.046554 3.193953,1.046554 1.016498,0 2.067122,-0.526974 2.067122,-1.443868 0,-1.224405 -2.289547,-1.415015 -3.727959,-1.903795 -1.438782,-0.488871 -2.678074,-1.499729 -2.678074,-3.136426 0,-2.504299 2.231559,-3.538738 4.314219,-3.538738 1.319753,0 2.681312,0.435233 3.564076,1.05867 0.304182,0.230194 0.118838,0.494794 0.118838,0.494794 l -0.842627,1.203499 c -0.0947,0.135491 -0.291049,0.243792 -0.497937,0.105801 -0.567669,-0.375209 -1.199987,-0.736822 -2.342356,-0.736822 -1.414089,0 -2.03614,0.586997 -2.03614,1.314205 0,0.872407 0.994857,1.146716 2.160163,1.444146 2.030867,0.547138 4.245965,1.205258 4.245965,3.694665 0,2.206495 -2.064071,3.570274 -4.345295,3.570274 -1.728536,0 -3.200426,-0.492943 -4.434818,-1.398738 -0.257015,-0.257291 -0.0775,-0.496271 -0.0775,-0.496271 l 0.838558,-1.197213 c 0.170541,-0.224089 0.385661,-0.145848 0.47981,-0.08074 z m 18.965159,1.547452 c 0,0.361429 0.619461,1.377185 1.378668,1.377185 h 0.491555 c 0.190795,0 0.346909,-0.156204 0.346909,-0.346722 v -10.80497 h -0.002 c -0.01016,-0.181919 -0.160645,-0.327765 -0.344874,-0.327765 h -1.523498 c -0.184323,0 -0.334795,0.145846 -0.344877,0.327765 h -0.0018 v 0.878048 c -0.933448,-1.149862 -2.405338,-1.626896 -3.88093,-1.626896 -3.354783,0 -6.074385,2.71923 -6.074385,6.074016 0,3.354783 2.719602,6.074477 6.074385,6.074477 1.475592,0 3.084082,-0.572574 3.880744,-1.626711 z m -3.875194,-0.500898 c -2.133618,0 -3.863081,-1.767563 -3.863081,-3.948441 0,-2.180509 1.729463,-3.948351 3.863081,-3.948351 2.133431,0 3.862892,1.767842 3.862892,3.948351 0,2.180878 -1.729461,3.948441 -3.862892,3.948441 z m 19.742491,0.872223 -7.6e-4,-5.590875 h 1.9e-4 c 0,-3.151781 -1.98842,-5.277909 -5.159256,-5.277909 -1.513416,0 -2.751783,0.875182 -3.189976,1.626895 v -0.0105 l -0.0026,0.0086 c -0.001,-0.76087 -0.617981,-1.203871 -1.378669,-1.203871 h -0.48915 c -0.190888,0 -0.346817,0.156206 -0.346817,0.346909 v 9.75638 0.0018 1.047573 h 0.002 c 0.0097,0.181918 0.160644,0.327951 0.344783,0.327951 h 1.523498 c 0.02332,0 0.04624,-0.0028 0.06844,-0.0068 0.01016,-0.002 0.01933,-0.0061 0.02914,-0.009 0.0115,-0.0034 0.02332,-0.0061 0.03394,-0.01062 0.01379,-0.0055 0.02599,-0.01322 0.03866,-0.02026 0.0061,-0.0037 0.01268,-0.0064 0.01869,-0.01016 0.0149,-0.0098 0.02904,-0.02172 0.04254,-0.03385 0.0023,-0.0023 0.0049,-0.0037 0.007,-0.0059 0.01525,-0.01451 0.02894,-0.03043 0.04125,-0.04743 l 1.86e-4,-1.85e-4 c 0.03811,-0.05244 0.06123,-0.115426 0.06501,-0.183677 h 0.002 v -6.382543 c 0,-1.692745 1.372285,-3.065029 3.065124,-3.065029 1.692837,0 3.065207,1.372284 3.065207,3.065029 l 0.001,5.335157 5.1e-4,-0.0018 c 0,0.0047 7.5e-4,0.0096 7.5e-4,0.01451 v 1.034716 h 0.002 c 0.0104,0.181918 0.16054,0.327953 0.34487,0.327953 h 1.5235 c 0.0235,0 0.046,-0.0028 0.0683,-0.0068 0.009,-0.002 0.0174,-0.0056 0.026,-0.0078 0.0127,-0.0037 0.0255,-0.0068 0.0374,-0.01188 0.0122,-0.0053 0.0237,-0.01225 0.0354,-0.01886 0.007,-0.004 0.0148,-0.007 0.0217,-0.0115 0.0143,-0.0095 0.0272,-0.02061 0.0398,-0.03154 0.003,-0.0029 0.007,-0.0054 0.0104,-0.0084 0.0145,-0.01387 0.0272,-0.02895 0.039,-0.04468 7.6e-4,-0.0012 0.002,-0.0023 0.003,-0.0034 0.0375,-0.05189 0.0604,-0.114401 0.0645,-0.182194 0,-2.54e-4 1.9e-4,-10e-4 1.9e-4,-10e-4 h 0.002 v -0.704637 z m 11.88168,-0.371325 c 0,0.361429 0.61872,1.377185 1.37801,1.377185 h 0.49203 c 0.19051,0 0.34682,-0.156204 0.34682,-0.346722 v -10.80497 h -0.001 c -0.0104,-0.181919 -0.16092,-0.327765 -0.34496,-0.327765 h -1.52322 c -0.18499,0 -0.3348,0.145846 -0.34498,0.327765 h -0.001 v 0.878048 c -0.93411,-1.149862 -2.40553,-1.626896 -3.88158,-1.626896 -3.35442,0 -6.07402,2.71923 -6.07402,6.074016 0,3.354783 2.7196,6.074477 6.07402,6.074477 1.47605,0 3.08435,-0.572574 3.88064,-1.626711 z m -3.8751,-0.500898 c -2.13362,0 -3.86309,-1.767563 -3.86309,-3.948441 0,-2.180509 1.72947,-3.948351 3.86309,-3.948351 2.13268,0 3.86215,1.767842 3.86215,3.948351 0,2.180878 -1.72947,3.948441 -3.86215,3.948441 z"
       id="path11"
       inkscape:connector-curvature="0"
       style="fill:#283343;stroke-width:0.25290298" />
    <path
       d="m 39.320716,31.081852 c -4.780964,0 -8.656019,3.875203 -8.656019,8.655718 0,4.780815 3.875055,8.656319 8.656019,8.656319 4.780364,0 8.655717,-3.875504 8.655717,-8.656319 0,-4.780515 -3.875353,-8.655718 -8.655717,-8.655718 z m -22.488888,6.17e-4 c -4.780363,-1.6e-5 -8.6558671,3.874586 -8.6558671,8.655551 0,4.780365 3.8755041,8.655869 8.6558671,8.655869 4.780668,0 8.656323,-3.875504 8.656323,-8.655869 0,-4.780965 -3.875655,-8.655567 -8.656323,-8.655567 z M 36.731839,20.261844 c 0,4.780516 -3.875053,8.65662 -8.655416,8.65662 -4.780815,0 -8.65602,-3.876104 -8.65602,-8.65662 0,-4.780229 3.875205,-8.655733 8.65602,-8.655733 4.780363,0 8.655416,3.875504 8.655416,8.655717 z"
       id="path13"
       style="fill:url(#radialGradient-1);stroke-width:0.41124666"
       inkscape:connector-curvature="0" />
  </g>
</svg>
