<svg version="1.1" id="Layer_1" xmlns="http://www.w3.org/2000/svg" x="0" y="0" width="64" height="64" xml:space="preserve"><style>.st0{fill-rule:evenodd;clip-rule:evenodd;fill:#380f16}</style><switch><g><path id="path2" class="st0" d="M43.4.9c.2.3.3.8.2 1.1-.2 1-.8 1.4-1.6 1.7-4.5 1.5-8.9 3.4-13 5.8-2 1.2-3.9 2.4-5.8 3.9-4.7 3.6-8.7 7.9-11.1 13.2-1 2.3-1.7 4.7-2 7.2-.2 1.8-.3 3.7 0 5.6.2 2 .8 3.9 1.8 5.7.8 1.3 1.7 2.5 2.9 3.5 4.2 3.6 10.1 5.3 15.3 5.9 4 .5 7.8.3 11.4-.4 4.4-.9 9.3-1.7 12.2-5 1-1.1 1.5-2.6 1.4-4-.2-2.3-1.7-4-3.4-5.3-.7-.5-1.4-.9-2.2-1.1-.2 0-.3-.1-.5-.2-.5-.2-1-.8-1-1.4-.1-.5 0-1 .3-1.4.7-.8 1.6-.8 2.5-.6 1 .3 2 .8 2.9 1.4 1.4.8 2.8 1.9 3.8 3.2 1.2 1.5 2.1 3.1 2.6 4.7.7 2.4.4 5.1-.7 7.4-1.2 2.4-3.2 4.6-5.1 6-2.2 1.7-4.8 3.2-7.1 4-4.3 1.5-8.7 2.4-12.6 2.3-6.1-.1-13-2.2-18-4.8-3.3-1.8-6.2-4.1-8.4-7-3.1-4-4.5-9.6-4.4-14.1.1-6.4 2.8-13.2 6-17.7 2.7-3.8 6.2-7 10-9.8 4.7-3.4 9.8-6.2 15.2-8.4 2-.8 4.1-1.6 6.2-2.3.8-.2 1.8.3 2.2.9z"/><path id="path6" class="st0" d="M25.3 35.3c.6.2 1 .8 1.2 1.4.5 1.9 1.3 3.8 1.9 5.7.1.5.3 1 .3 1.5-.1.8-.7 1.4-1.1 2.1-.3.5-.6 1.1-1.1 1.5-.2.1-.4-.1-.5-.2-.8-.6-1.4-1.3-2.1-1.9-.3-.3-.6-.7-.6-1.2-.1-1.3.1-2.6.2-3.9.1-1 .1-2 .2-3 0-.6.1-1.2.5-1.6.2-.4.7-.5 1.1-.4z"/><path id="path10" class="st0" d="M38.2 38.1c-1.2.6-1.7 2.2-1.5 3.4.1.7.9.8 1.5.8.5 0 1.1-.1 1.2-.7.4-1.4-.2-2.8-1.2-3.5zm0-2.9c1.6-.2 3.2 0 4.6.9 1.2.7 2.1 2 2.3 3.4.3 2.1-.5 4.4-2 5.9-1.3 1.3-3.2 1.8-5 1.5-1.8-.3-3.6-1.2-4.4-2.8-.9-1.7-.7-3.8.1-5.5.8-1.6 2.2-2.9 3.9-3.3.1-.1.3-.1.5-.1z"/></g></switch></svg>