<?xml version="1.0" encoding="UTF-8" standalone="no"?>
<!-- Generator: Adobe Illustrator 19.2.1, SVG Export Plug-In . SVG Version: 6.00 Build 0)  -->

<svg
   xmlns:dc="http://purl.org/dc/elements/1.1/"
   xmlns:cc="http://creativecommons.org/ns#"
   xmlns:rdf="http://www.w3.org/1999/02/22-rdf-syntax-ns#"
   xmlns:svg="http://www.w3.org/2000/svg"
   xmlns="http://www.w3.org/2000/svg"
   xmlns:sodipodi="http://sodipodi.sourceforge.net/DTD/sodipodi-0.dtd"
   xmlns:inkscape="http://www.inkscape.org/namespaces/inkscape"
   version="1.1"
   id="Layer_1"
   x="0px"
   y="0px"
   viewBox="0 0 120 59.999998"
   xml:space="preserve"
   sodipodi:docname="sendgrid-ar21.svg"
   width="120"
   height="60"
   inkscape:version="0.92.3 (2405546, 2018-03-11)"><metadata
   id="metadata33"><rdf:RDF><cc:Work
       rdf:about=""><dc:format>image/svg+xml</dc:format><dc:type
         rdf:resource="http://purl.org/dc/dcmitype/StillImage" /><dc:title></dc:title></cc:Work></rdf:RDF></metadata><defs
   id="defs31" /><sodipodi:namedview
   pagecolor="#ffffff"
   bordercolor="#666666"
   borderopacity="1"
   objecttolerance="10"
   gridtolerance="10"
   guidetolerance="10"
   inkscape:pageopacity="0"
   inkscape:pageshadow="2"
   inkscape:window-width="1920"
   inkscape:window-height="1001"
   id="namedview29"
   showgrid="false"
   inkscape:zoom="5.417157"
   inkscape:cx="63.286751"
   inkscape:cy="30.653879"
   inkscape:window-x="-9"
   inkscape:window-y="-9"
   inkscape:window-maximized="1"
   inkscape:current-layer="Layer_1" />
<style
   type="text/css"
   id="style2">
	.st0{fill:#263746;}
	.st1{fill:#FFFFFF;}
	.st2{fill:#99E1F4;enable-background:new    ;}
	.st3{fill:#1A82E2;}
	.st4{fill:#00B3E3;}
	.st5{fill:#009DD9;}
</style>











<g
   id="g895"
   transform="translate(-1.1596704)"><path
     style="fill:#263746;stroke-width:0.30659446"
     inkscape:connector-curvature="0"
     id="path4"
     d="m 42.132789,34.430291 2.299458,-1.808907 c 0.643848,1.134399 1.686269,1.778247 2.881988,1.778247 1.287696,0 1.992864,-0.827805 1.992864,-1.747588 0,-1.10374 -1.318357,-1.440994 -2.75935,-1.870226 -1.778248,-0.55187 -3.771112,-1.226378 -3.771112,-3.801771 0,-2.146161 1.870226,-3.832431 4.41496,-3.832431 2.176821,0 3.403198,0.827805 4.476279,1.931545 l -2.084842,1.594291 c -0.55187,-0.827805 -1.318356,-1.257037 -2.360778,-1.257037 -1.195718,0 -1.808907,0.643848 -1.808907,1.471653 0,1.011762 1.287697,1.379675 2.698031,1.839567 1.808908,0.58253 3.832431,1.379675 3.832431,3.924409 0,2.115502 -1.68627,4.139025 -4.598917,4.139025 -2.391437,0.03066 -4.016387,-0.981102 -5.212105,-2.360777 z m 20.38853,-6.898375 h 2.483415 v 1.011761 c 0.58253,-0.735826 1.471654,-1.195718 2.514075,-1.195718 2.146161,0 3.433858,1.379675 3.433858,3.740452 v 5.54936 h -2.544734 v -5.212106 c 0,-1.226377 -0.55187,-1.931545 -1.68627,-1.931545 -0.950442,0 -1.716929,0.643849 -1.716929,2.176821 v 4.96683 h -2.483415 z m 9.013877,4.568257 c 0,-3.219242 2.360778,-4.752214 4.41496,-4.752214 1.195719,0 2.115502,0.429232 2.728691,1.073081 v -5.089468 h 2.483415 v 13.306199 h -2.483415 v -1.011762 c -0.613189,0.705168 -1.563632,1.195719 -2.75935,1.195719 -1.931545,0 -4.384301,-1.532973 -4.384301,-4.721555 z m 7.20497,-0.03066 c 0,-1.349016 -0.981102,-2.452756 -2.330118,-2.452756 -1.379675,0 -2.452756,1.042421 -2.452756,2.452756 0,1.410334 1.042422,2.452755 2.452756,2.452755 1.349016,0 2.330118,-1.10374 2.330118,-2.452755 z m 3.004625,-2.084843 c 0,-3.801771 2.851329,-6.837056 6.806397,-6.837056 1.962205,0 3.617815,0.705167 4.813533,1.839567 0.490551,0.459892 0.889124,0.981102 1.226378,1.563632 l -2.20748,1.349015 c -0.827805,-1.502313 -2.084842,-2.299458 -3.801771,-2.299458 -2.422096,0 -4.292323,1.992864 -4.292323,4.3843 0,2.452756 1.839567,4.384301 4.384301,4.384301 1.931545,0 3.31122,-1.10374 3.771112,-2.790009 h -4.169685 v -2.422096 h 6.898375 v 1.011762 c 0,3.556496 -2.544734,6.6531 -6.499802,6.6531 -4.169685,0 -6.929035,-3.157923 -6.929035,-6.837058 z m 14.042026,-2.452754 h 2.483415 v 1.502313 c 0.459892,-0.950443 1.287697,-1.502313 2.514078,-1.502313 h 1.01176 l -0.91978,2.422096 h -0.67451 c -1.318359,0 -1.900888,0.705167 -1.900888,2.391437 v 4.292322 h -2.514075 z m 6.653103,0 h 2.48341 v 9.105855 h -2.48341 v -6.683759 h -0.91979 z m 1.25703,-1.379675 c 0.82781,0 1.50232,-0.674508 1.50232,-1.502313 0,-0.827805 -0.67451,-1.502313 -1.50232,-1.502313 -0.8278,0 -1.50231,0.674508 -1.50231,1.502313 0,0.827805 0.67451,1.502313 1.50231,1.502313 z m 1.83957,5.947932 c 0,-3.219242 2.36078,-4.752214 4.41496,-4.752214 1.19572,0 2.1155,0.429232 2.72869,1.073081 v -5.089468 h 2.48342 v 13.306199 h -2.48342 v -1.011762 c -0.61319,0.705168 -1.56363,1.195719 -2.75935,1.195719 -1.93154,0 -4.3843,-1.532973 -4.3843,-4.721555 z m 7.20497,-0.03066 c 0,-1.349016 -0.9811,-2.452756 -2.33012,-2.452756 -1.37967,0 -2.45275,1.042421 -2.45275,2.452756 0,1.410334 1.04242,2.452755 2.45275,2.452755 1.34902,0 2.33012,-1.10374 2.33012,-2.452755 z m -50.8027,0 c 0,-2.636713 -1.900886,-4.721555 -4.690895,-4.721555 -2.636712,0 -4.752214,2.115502 -4.752214,4.752214 0,2.636712 1.962204,4.752214 4.813533,4.752214 1.962204,0 3.372539,-0.950443 4.169684,-2.299458 l -1.992864,-1.195719 c -0.429232,0.797146 -1.226377,1.318356 -2.17682,1.318356 -1.318356,0 -2.146161,-0.643848 -2.422096,-1.65561 h 7.021013 v -0.950442 z m -6.929035,-1.10374 c 0.367914,-0.858465 1.195719,-1.440994 2.23814,-1.440994 1.042421,0 1.839567,0.490551 2.17682,1.440994 z"
     class="st0" /><g
     transform="matrix(1.8782945,0,0,1.8782945,-32.63639,-30.564553)"
     id="g880"><rect
       x="21.185251"
       y="29.561737"
       class="st1"
       width="5.3347435"
       height="5.3347435"
       id="rect6"
       style="fill:#ffffff;stroke-width:0.30659446" /><rect
       x="21.185251"
       y="29.561737"
       class="st2"
       width="5.3347435"
       height="5.3347435"
       id="rect8"
       style="fill:#99e1f4;stroke-width:0.30659446;enable-background:new" /><rect
       x="26.519995"
       y="34.896481"
       class="st1"
       width="5.3040838"
       height="5.3040838"
       id="rect10"
       style="fill:#ffffff;stroke-width:0.30659446" /><rect
       x="26.519995"
       y="34.896481"
       class="st2"
       width="5.3040838"
       height="5.3040838"
       id="rect12"
       style="fill:#99e1f4;stroke-width:0.30659446;enable-background:new" /><rect
       x="21.185251"
       y="40.200565"
       class="st3"
       width="5.3347435"
       height="0.030659445"
       id="rect14"
       style="fill:#1a82e2;stroke-width:0.30659446" /><rect
       x="21.185251"
       y="34.896481"
       class="st3"
       width="5.3347435"
       height="5.3040838"
       id="rect16"
       style="fill:#1a82e2;stroke-width:0.30659446" /><rect
       x="26.519995"
       y="24.257654"
       class="st4"
       width="5.3040838"
       height="5.3040838"
       id="rect18"
       style="fill:#00b3e3;stroke-width:0.30659446" /><rect
       x="31.82408"
       y="29.592398"
       class="st4"
       width="5.3347435"
       height="5.3040838"
       id="rect20"
       style="fill:#00b3e3;stroke-width:0.30659446" /><polygon
       class="st5"
       points="62.9,57 62.9,39.7 62.9,39.6 45.6,39.6 45.6,57 "
       id="polygon22"
       style="fill:#009dd9"
       transform="matrix(0.30659445,0,0,0.30659445,12.539288,17.420597)" /><rect
       x="31.82408"
       y="24.257654"
       class="st3"
       width="5.3347435"
       height="5.3040838"
       id="rect24"
       style="fill:#1a82e2;stroke-width:0.30659446" /><rect
       x="31.82408"
       y="29.561737"
       class="st3"
       width="5.3347435"
       height="0.030659445"
       id="rect26"
       style="fill:#1a82e2;stroke-width:0.30659446" /></g></g>
</svg>