<?xml version="1.0" encoding="UTF-8" standalone="no"?>
<svg
   xmlns:dc="http://purl.org/dc/elements/1.1/"
   xmlns:cc="http://creativecommons.org/ns#"
   xmlns:rdf="http://www.w3.org/1999/02/22-rdf-syntax-ns#"
   xmlns:svg="http://www.w3.org/2000/svg"
   xmlns="http://www.w3.org/2000/svg"
   xmlns:sodipodi="http://sodipodi.sourceforge.net/DTD/sodipodi-0.dtd"
   xmlns:inkscape="http://www.inkscape.org/namespaces/inkscape"
   role="img"
   viewBox="0 0 64 64"
   version="1.1"
   id="svg1736"
   sodipodi:docname="simpleicons-icon.svg"
   width="64"
   height="64"
   inkscape:version="0.92.3 (2405546, 2018-03-11)">
  <metadata
     id="metadata1742">
    <rdf:RDF>
      <cc:Work
         rdf:about="">
        <dc:format>image/svg+xml</dc:format>
        <dc:type
           rdf:resource="http://purl.org/dc/dcmitype/StillImage" />
        <dc:title>Simple Icons icon</dc:title>
      </cc:Work>
    </rdf:RDF>
  </metadata>
  <defs
     id="defs1740" />
  <sodipodi:namedview
     pagecolor="#ffffff"
     bordercolor="#666666"
     borderopacity="1"
     objecttolerance="10"
     gridtolerance="10"
     guidetolerance="10"
     inkscape:pageopacity="0"
     inkscape:pageshadow="2"
     inkscape:window-width="1186"
     inkscape:window-height="837"
     id="namedview1738"
     showgrid="false"
     inkscape:zoom="10"
     inkscape:cx="32"
     inkscape:cy="32"
     inkscape:window-x="67"
     inkscape:window-y="27"
     inkscape:window-maximized="0"
     inkscape:current-layer="svg1736" />
  <title
     id="title1728">Simple Icons icon</title>
  <path
     d="m 32.000036,32 v -4 c -6.624,0 -12,-5.376 -12,-12 0,-6.624 5.376,-12 12,-12 6.624,0 12,5.376 12,12 h 4 c 0,-8.832 -7.168,-16 -16,-16 -8.832,0 -16,7.168 -16,16 0,8.832 7.168,16 16,16 z"
     id="path1730"
     inkscape:connector-curvature="0"
     style="stroke-width:2.66666675" />
  <path
     d="m 40.098702,34.202667 c 7.621334,4.474666 10.176,14.28 5.701334,21.904 h 4.48 c 1.128,-2.544 1.712,-5.298667 1.714666,-8.08 C 52.002702,36.976 43.056036,28.013333 32.010702,28 v 4 c 2.842667,0 5.634667,0.762667 8.088,2.202667 z M 32.008036,28 h -0.008 0.008 m -13.8,28.106667 C 16.800036,53.728 16.000036,50.96 16.000036,48 v -0.08 h -4 V 48 c -0.0053,2.792 0.581333,5.557333 1.72,8.106667 z"
     id="path1732"
     inkscape:connector-curvature="0"
     style="stroke-width:2.66666675" />
  <path
     d="M 40.000036,60 V 44 h 4 v -4 h -24 v 4 h 4 v 16 h -12 v 4 h 40 v -4 z m -4,0 h -8 V 44 h 8 z m -11.792,-44.208 c -0.114667,4.421333 3.373333,8.093333 7.792,8.208 4.258666,-0.106667 7.68,-3.536 7.792,-7.792 0.114666,-4.421333 -3.376,-8.093333 -7.792,-8.208 -4.258667,0.106667 -7.68,3.536 -7.792,7.792 z m 11.792,0.213333 c 0,2.208 -1.792,4 -4,4 -2.213334,0 -4,-1.794666 -4,-4.005333 0,-2.213333 1.786666,-4 4,-4 2.208,0 4,1.792 4,4 z"
     id="path1734"
     inkscape:connector-curvature="0"
     style="stroke-width:2.66666675" />
</svg>
