<svg xmlns="http://www.w3.org/2000/svg" xmlns:xlink="http://www.w3.org/1999/xlink" viewBox="0 0 32 32" width="64" height="64"><g fill="#a4c639"><path d="M10.45.234l1.44 2.57C9.215 4.14 7.365 6.7 7.365 9.692h17.27c0-2.98-1.85-5.55-4.523-6.888l1.44-2.57s.103-.103-.103-.206c-.103-.103-.206.103-.206.103L19.7 2.702a9.35 9.35 0 0 0-3.804-.822 9.35 9.35 0 0 0-3.804.822l-1.54-2.57S10.45.03 10.346.03a.36.36 0 0 0 .103.206zM11.9 5.27c.4 0 .822.4.822.822s-.4.822-.822.822a.81.81 0 0 1-.822-.822.81.81 0 0 1 .822-.822zm8.224 0c.4 0 .822.4.822.822s-.4.822-.822.822a.81.81 0 0 1-.822-.822.81.81 0 0 1 .822-.822zM7.262 10.72v13.16c0 .617.822 1.542 1.44 1.542h2.056v4.523c0 1.13.822 2.056 1.85 2.056s1.85-.925 1.85-2.056V25.42h2.98v4.523c0 1.13.822 2.056 1.85 2.056s1.85-.925 1.85-2.056V25.42h2.056c.617 0 1.44-.822 1.44-1.542V10.72z"/><use xlink:href="#A"/><use xlink:href="#A" x="23.234"/></g><defs><path id="A" d="M4.383 10.412c1.028 0 1.85.925 1.85 2.056v7.813c0 1.13-.822 2.056-1.85 2.056s-1.85-.925-1.85-2.056v-7.813c0-1.13.822-2.056 1.85-2.056z"/></defs></svg>