<?xml version="1.0" encoding="UTF-8" standalone="no"?>
<svg
   xmlns:dc="http://purl.org/dc/elements/1.1/"
   xmlns:cc="http://creativecommons.org/ns#"
   xmlns:rdf="http://www.w3.org/1999/02/22-rdf-syntax-ns#"
   xmlns:svg="http://www.w3.org/2000/svg"
   xmlns="http://www.w3.org/2000/svg"
   xmlns:sodipodi="http://sodipodi.sourceforge.net/DTD/sodipodi-0.dtd"
   xmlns:inkscape="http://www.inkscape.org/namespaces/inkscape"
   width="120"
   height="60"
   viewBox="0 0 5.692776 2.8475745"
   version="1.1"
   id="svg53"
   sodipodi:docname="bookingcomfont-ar21.svg"
   inkscape:version="0.92.3 (2405546, 2018-03-11)">
  <metadata
     id="metadata57">
    <rdf:RDF>
      <cc:Work
         rdf:about="">
        <dc:format>image/svg+xml</dc:format>
        <dc:type
           rdf:resource="http://purl.org/dc/dcmitype/StillImage" />
        <dc:title></dc:title>
      </cc:Work>
    </rdf:RDF>
  </metadata>
  <sodipodi:namedview
     pagecolor="#ffffff"
     bordercolor="#666666"
     borderopacity="1"
     objecttolerance="10"
     gridtolerance="10"
     guidetolerance="10"
     inkscape:pageopacity="0"
     inkscape:pageshadow="2"
     inkscape:window-width="1920"
     inkscape:window-height="1001"
     id="namedview55"
     showgrid="false"
     inkscape:zoom="2.1696"
     inkscape:cx="44.039811"
     inkscape:cy="-8.5145401"
     inkscape:window-x="-9"
     inkscape:window-y="-9"
     inkscape:window-maximized="1"
     inkscape:current-layer="svg53" />
  <defs
     id="defs23">
    <clipPath
       id="f">
      <path
         d="M 589.5,28.972 H 684 V 12.937 h -94.5 z"
         id="path2"
         inkscape:connector-curvature="0" />
    </clipPath>
    <clipPath
       id="g">
      <path
         d="M 589.5,12.937 H 684 v 16.035 h -94.5 z"
         id="path5"
         inkscape:connector-curvature="0" />
    </clipPath>
    <clipPath
       id="c">
      <path
         d="M 589.5,28.972 H 684 V 12.937 h -94.5 z"
         id="path8"
         inkscape:connector-curvature="0" />
    </clipPath>
    <clipPath
       id="d">
      <path
         d="m 589.5,28.656 h 94.48 V 12.958 H 589.5 Z"
         id="path11"
         inkscape:connector-curvature="0" />
    </clipPath>
    <clipPath
       id="e">
      <path
         d="M 589.5,12.937 H 684 v 16.035 h -94.5 z"
         id="path14"
         inkscape:connector-curvature="0" />
    </clipPath>
    <clipPath
       id="a">
      <path
         d="M 589.5,28.972 H 684 V 12.937 h -94.5 z"
         id="path17"
         inkscape:connector-curvature="0" />
    </clipPath>
    <clipPath
       id="b">
      <path
         d="M 589.5,12.937 H 684 v 16.035 h -94.5 z"
         id="path20"
         inkscape:connector-curvature="0" />
    </clipPath>
  </defs>
  <g
     id="g878"
     transform="matrix(0.04647238,0,0,0.04647238,0.09060491,1.7589535)">
    <g
       id="g33"
       transform="matrix(1.25,0,0,-1.25,-736.625,18.794715)"
       clip-path="url(#a)">
      <g
         id="g31"
         clip-path="url(#b)">
        <path
           style="fill:#273b7d"
           inkscape:connector-curvature="0"
           id="path25"
           d="m 626.558,27.217 a 1.436,1.436 0 1 0 2.872,0 1.437,1.437 0 0 0 -2.872,0" />
        <path
           style="fill:#499fdd"
           inkscape:connector-curvature="0"
           id="path27"
           d="m 649.215,17.64 c 0,0.797 0.642,1.441 1.433,1.441 a 1.44,1.44 0 0 0 0,-2.88 c -0.79,0 -1.433,0.645 -1.433,1.44" />
        <path
           style="fill:#273b7d"
           inkscape:connector-curvature="0"
           id="path29"
           d="m 602.991,18.263 c -1.236,0 -2.096,0.982 -2.096,2.386 0,1.403 0.86,2.384 2.097,2.384 1.243,0 2.112,-0.981 2.112,-2.384 0,-1.426 -0.85,-2.386 -2.113,-2.386 z m 0,6.867 c -2.616,0 -4.515,-1.885 -4.515,-4.481 0,-2.597 1.9,-4.481 4.515,-4.481 2.627,0 4.533,1.884 4.533,4.48 0,2.597 -1.906,4.482 -4.532,4.482 m 20.785,-4.706 a 2.136,2.136 0 0 1 -0.342,0.483 l -0.08,0.083 0.084,0.08 c 0.12,0.127 0.243,0.277 0.361,0.451 l 2.31,3.432 h -2.804 l -1.735,-2.685 c -0.098,-0.144 -0.296,-0.216 -0.593,-0.216 h -0.395 v 5.076 c 0,1.015 -0.633,1.153 -1.316,1.153 h -1.17 L 618.1,16.3 h 2.484 v 3.594 h 0.233 c 0.283,0 0.475,-0.033 0.564,-0.187 l 1.37,-2.586 c 0.383,-0.702 0.764,-0.821 1.482,-0.821 h 1.903 l -1.418,2.344 -0.94,1.78 m 12.057,4.726 c -1.264,0 -2.07,-0.562 -2.522,-1.037 l -0.15,-0.152 -0.054,0.207 c -0.132,0.509 -0.58,0.788 -1.253,0.788 h -1.113 l 0.007,-8.653 h 2.467 v 3.988 c 0,0.39 0.05,0.728 0.154,1.037 0.274,0.935 1.04,1.516 1.997,1.516 0.77,0 1.071,-0.407 1.071,-1.457 v -3.769 c 0,-0.896 0.415,-1.315 1.312,-1.315 h 1.174 l -0.004,5.504 c 0,2.186 -1.067,3.342 -3.086,3.342 m -7.811,-0.196 h -1.169 l 0.008,-6.691 V 16.3 h 1.247 l 0.044,-0.002 0.582,0.002 h 0.578 v 0.003 h 0.004 l 0.005,7.335 c 0,0.885 -0.423,1.314 -1.298,1.314 M 612.68,18.263 c -1.236,0 -2.097,0.982 -2.097,2.386 0,1.403 0.861,2.384 2.098,2.384 1.24,0 2.112,-0.981 2.112,-2.384 0,-1.426 -0.85,-2.386 -2.112,-2.386 z m 0,6.867 c -2.618,0 -4.518,-1.885 -4.518,-4.481 0,-2.597 1.9,-4.481 4.519,-4.481 2.623,0 4.533,1.884 4.533,4.48 0,2.597 -1.91,4.482 -4.533,4.482" />
      </g>
    </g>
    <g
       id="g43"
       transform="matrix(1.25,0,0,-1.25,-736.625,18.794715)"
       clip-path="url(#c)">
      <g
         id="g41"
         clip-path="url(#d)">
        <g
           id="g39"
           clip-path="url(#e)">
          <path
             style="fill:#499fdd"
             inkscape:connector-curvature="0"
             id="path35"
             d="m 665.555,18.263 c -1.236,0 -2.098,0.982 -2.098,2.386 0,1.403 0.862,2.384 2.098,2.384 1.242,0 2.113,-0.981 2.113,-2.384 0,-1.426 -0.85,-2.386 -2.113,-2.386 z m 0,6.867 c -2.618,0 -4.517,-1.885 -4.517,-4.481 0,-2.597 1.899,-4.481 4.517,-4.481 2.624,0 4.533,1.884 4.533,4.48 0,2.597 -1.91,4.482 -4.533,4.482" />
          <path
             style="fill:#273b7d"
             inkscape:connector-curvature="0"
             id="path37"
             d="m 644.122,18.644 c -1.349,0 -1.829,1.176 -1.829,2.279 0,0.486 0.123,2.069 1.7,2.069 0.783,0 1.826,-0.224 1.826,-2.15 0,-1.817 -0.923,-2.198 -1.697,-2.198 z m 2.978,6.332 c -0.468,0 -0.828,-0.187 -1.009,-0.528 l -0.068,-0.132 -0.114,0.1 c -0.398,0.344 -1.112,0.753 -2.271,0.753 -2.307,0 -3.86,-1.733 -3.86,-4.31 0,-2.576 1.607,-4.376 3.906,-4.376 0.785,0 1.406,0.184 1.898,0.556 l 0.19,0.143 v -0.24 c 0,-1.156 -0.747,-1.794 -2.102,-1.794 -0.659,0 -1.258,0.16 -1.66,0.306 -0.522,0.158 -0.83,0.027 -1.041,-0.498 l -0.196,-0.484 -0.277,-0.708 0.171,-0.091 c 0.868,-0.46 1.997,-0.735 3.017,-0.735 2.1,0 4.554,1.075 4.554,4.101 l 0.009,7.937 H 647.1" />
        </g>
      </g>
    </g>
    <g
       id="g51"
       transform="matrix(1.25,0,0,-1.25,-736.625,18.794715)"
       clip-path="url(#f)">
      <g
         id="g49"
         clip-path="url(#g)">
        <path
           style="fill:#273b7d"
           inkscape:connector-curvature="0"
           id="path45"
           d="m 593.805,18.362 -2.008,0.002 v 2.4 c 0,0.514 0.199,0.78 0.638,0.842 h 1.37 c 0.977,0 1.609,-0.616 1.61,-1.613 -10e-4,-1.024 -0.617,-1.63 -1.61,-1.63 z m -2.008,6.476 v 0.632 c 0,0.553 0.234,0.816 0.747,0.85 h 1.028 c 0.881,0 1.409,-0.527 1.409,-1.41 0,-0.672 -0.362,-1.457 -1.377,-1.457 h -1.807 z m 4.572,-2.396 -0.363,0.204 0.317,0.271 c 0.369,0.317 0.986,1.03 0.986,2.26 0,1.884 -1.46,3.1 -3.721,3.1 h -2.874 A 1.26,1.26 0 0 1 589.5,27.033 v -10.69 h 4.139 c 2.513,0 4.135,1.368 4.135,3.487 0,1.141 -0.524,2.116 -1.405,2.612" />
        <path
           style="fill:#499fdd"
           inkscape:connector-curvature="0"
           id="path47"
           d="m 681.107,25.121 a 3.4,3.4 0 0 1 -2.648,-1.283 l -0.178,-0.226 -0.14,0.253 c -0.458,0.833 -1.244,1.256 -2.337,1.256 -1.147,0 -1.916,-0.64 -2.273,-1.02 l -0.234,-0.253 -0.09,0.333 c -0.13,0.48 -0.557,0.743 -1.203,0.743 h -1.037 l -0.01,-8.62 h 2.355 v 3.805 c 0,0.334 0.042,0.663 0.125,1.008 0.225,0.92 0.843,1.909 1.882,1.81 0.64,-0.062 0.954,-0.557 0.954,-1.513 v -5.11 h 2.372 v 3.805 c 0,0.417 0.039,0.729 0.133,1.041 0.19,0.878 0.836,1.778 1.838,1.778 0.726,0 0.994,-0.41 0.994,-1.514 v -3.85 c 0,-0.87 0.388,-1.26 1.259,-1.26 h 1.108 l 0.002,5.503 c 0,2.199 -0.968,3.314 -2.872,3.314 m -21.434,-5.824 c -0.007,-0.009 -1.02,-1.077 -2.355,-1.077 -1.216,0 -2.444,0.746 -2.444,2.411 0,1.438 0.952,2.443 2.316,2.443 0.442,0 0.946,-0.158 1.025,-0.425 l 0.011,-0.045 a 0.866,0.866 0 0 1 0.84,-0.637 l 1.29,-0.002 v 1.128 c 0,1.488 -1.893,2.028 -3.166,2.028 -2.724,0 -4.7,-1.896 -4.7,-4.508 0,-2.61 1.954,-4.504 4.65,-4.504 2.338,0 3.61,1.537 3.622,1.552 l 0.068,0.084 -1.022,1.695 -0.135,-0.143" />
      </g>
    </g>
  </g>
</svg>
