<?xml version="1.0" encoding="UTF-8" standalone="no"?>
<svg
   xmlns:dc="http://purl.org/dc/elements/1.1/"
   xmlns:cc="http://creativecommons.org/ns#"
   xmlns:rdf="http://www.w3.org/1999/02/22-rdf-syntax-ns#"
   xmlns:svg="http://www.w3.org/2000/svg"
   xmlns="http://www.w3.org/2000/svg"
   xmlns:sodipodi="http://sodipodi.sourceforge.net/DTD/sodipodi-0.dtd"
   xmlns:inkscape="http://www.inkscape.org/namespaces/inkscape"
   width="120"
   height="60"
   viewBox="0 0 120 60"
   version="1.1"
   id="svg20"
   sodipodi:docname="inc-ar21.svg"
   inkscape:version="0.92.3 (2405546, 2018-03-11)">
  <metadata
     id="metadata24">
    <rdf:RDF>
      <cc:Work
         rdf:about="">
        <dc:format>image/svg+xml</dc:format>
        <dc:type
           rdf:resource="http://purl.org/dc/dcmitype/StillImage" />
        <dc:title>inc</dc:title>
      </cc:Work>
    </rdf:RDF>
  </metadata>
  <sodipodi:namedview
     pagecolor="#ffffff"
     bordercolor="#666666"
     borderopacity="1"
     objecttolerance="10"
     gridtolerance="10"
     guidetolerance="10"
     inkscape:pageopacity="0"
     inkscape:pageshadow="2"
     inkscape:window-width="1920"
     inkscape:window-height="1001"
     id="namedview22"
     showgrid="false"
     inkscape:zoom="4.3392"
     inkscape:cx="92.659202"
     inkscape:cy="17.891091"
     inkscape:window-x="-9"
     inkscape:window-y="-9"
     inkscape:window-maximized="1"
     inkscape:current-layer="svg20" />
  <!-- Generator: Sketch 40.2 (33826) - http://www.bohemiancoding.com/sketch -->
  <title
     id="title2">inc</title>
  <desc
     id="desc4">Created with Sketch.</desc>
  <defs
     id="defs6" />
  <g
     id="Page-1"
     style="fill:none;fill-rule:evenodd;stroke:none;stroke-width:1"
     transform="matrix(0.04080248,0,0,0.04080248,10.99953,12.378127)">
    <g
       id="inc"
       transform="translate(-54,-54)">
      <g
         id="Group"
         transform="matrix(1,0,0,-1,0,956)">
        <g
           id="Shape">
          <polyline
             points="54 902 54 802.5 54 703 109.5 703 165 703 165 471 165 239 109.5 239 54 239 54 146.5 54 54 349 54 644 54 644 146.5 644 239 588.5 239 533 239 533 471 533 703 588.5 703 644 703 644 802.5 644 902 349 902 54 902"
             id="polyline8"
             style="fill:#000000" />
          <path
             id="path10"
             d=""
             inkscape:connector-curvature="0"
             style="stroke:#000000;stroke-width:0.5" />
        </g>
        <path
           d="M 675,610.5 V 518 H 716.5 758 V 378.5 239 H 716.5 675 V 146.5 54 H 905.5 1136 v 92.5 92.5 h -44 -44.1 l 0.4,89.3 c 0.3,79 0.6,90 2,96 11.9,48.6 43.8,80 91.9,90.3 12.2,2.7 39.8,2.5 52.8,-0.3 34,-7.3 55.9,-26.7 64.3,-56.8 l 2.2,-8 0.3,-105.2 0.3,-105.3 H 1219 1176 V 146.5 54 h 225.5 225.5 v 90.8 90.7 l 7.1,-13.5 c 32.8,-62.9 90.3,-113.1 165.9,-144.7 67.7,-28.4 151.3,-42.1 235,-38.5 39.4,1.7 65.9,4.7 95.5,10.8 89.9,18.6 155.9,61.1 195.5,125.8 20.3,33.4 37.8,86.1 38,114.9 v 2.7 h -124 -124 v -5.8 c 0,-8.5 -2.8,-23.6 -6.1,-32.6 -10.8,-29.8 -33.7,-49.4 -67.8,-58.3 -11.7,-3.1 -38.2,-4.3 -52.3,-2.4 -18.4,2.4 -36.1,9.1 -47.9,17.9 -6.4,4.7 -16.3,14.9 -20.6,21.2 -11.1,16.4 -18.9,40 -22.7,69 -5.3,39.6 -4.1,113.5 2.4,148.5 2.8,15.1 8.4,31.8 14.4,43.1 13.5,25.4 33.3,40.2 62.9,47.2 10,2.3 13.2,2.6 30.7,2.6 17.2,0.1 20.5,-0.2 28.5,-2.2 45.8,-11.8 67.7,-48.6 73.7,-123.7 0.6,-8.2 1.2,-15.1 1.4,-15.3 0.1,-0.3 27.7,2.7 187.7,20.3 32.4,3.6 59.3,6.5 59.9,6.5 1.8,0 -3,30.1 -8.2,51 -26.4,105.4 -104.2,177.3 -223,205.9 -45,10.9 -88.8,14.6 -142.5,12.2 -47.2,-2.1 -80.7,-6.8 -120,-16.8 -116,-29.3 -200.7,-93.9 -240,-182.8 -23.5,-53.3 -31.5,-118 -22.5,-181 3.5,-23.6 10.9,-51.2 19.8,-73.2 l 2.2,-5.3 h -37 -37 v 128.8 c 0,128.2 -0.3,141.3 -3.6,161.2 -12.9,78.2 -61.8,130.5 -143.9,153.9 -27.1,7.7 -53.5,11.6 -87.7,13 -78.3,3.1 -140.9,-10.9 -192.4,-43.1 -22,-13.8 -37.9,-27.1 -58.4,-48.7 -7.4,-7.9 -16.5,-17.6 -20.2,-21.5 l -6.8,-7.1 V 639.3 703 H 857 675 Z"
           id="path13"
           inkscape:connector-curvature="0"
           style="fill:#000000" />
        <path
           d="m 2429,259.4 c -21.2,-4.6 -37.4,-13.1 -52.7,-27.7 -22.2,-21.3 -33.6,-50 -32,-80.6 2.6,-48.9 36.9,-88 86.2,-98.2 7.7,-1.6 29.3,-1.6 37,0 33.9,7 60.5,27 75.3,56.6 20.5,41.1 12,90.5 -21.1,122.2 -15.5,14.8 -31.6,23.2 -53.2,27.8 -8.8,1.9 -30.7,1.8 -39.5,-0.1 z"
           id="path15"
           inkscape:connector-curvature="0"
           style="fill:#000000" />
      </g>
    </g>
  </g>
</svg>
