<svg xmlns="http://www.w3.org/2000/svg" id="a" width="64" height="64" version="1.1"><defs id="defs4"><style id="style2">.b{fill:#ffbe2e}.c{fill:#111}.d{fill:#7777fc}</style></defs><path id="path6" d="M58.945 32.895a.95.95 0 0 0 .333-.673l.523-11.78a1.03 1.03 0 0 0-.272-.748l-2.194-2.426c-.313-.346-.367-.828-.13-1.216l1.89-3.132c.523-.87-.388-1.861-1.461-1.596l-12.637 3.145L46.43 5.8s-4.09 4.648-5.265 1.828c-.788-1.888-.605 3.146-.299 7.868l-1.515.38a2.4 2.4 0 0 1-.652.068L22.937 6.677s.075 1.31 0 2.629c-1.264 2.154-3.173-.917-3.173-.917l-.4-.462c-.81-1.38-.45-.598-.476-.598l-6.618 5.686a.918.917 0 0 0-.781.157l-6.957 5.17a1 1 0 0 1-.327.15c-.51.162-.849.597-.828 1.086l1.494 33.93c.02.516.442.944 1.006 1.046a.9.9 0 0 1 .387.156l6.196 4.831c.326.014.32.136.564-.054l.326-.231c1.38-1.08 3.058-2.256 4.797-.673l.407.408c.564.38.985.87 1.726.795l16.632-4.165a.9.9 0 0 1 .469 0c.455.129 1.27.407 1.875.224.591-.177.496 4.172.951 3.798l1.678-1.304c.286-.225.768-.666 1.067-.897 1.359-1.047 2.785-1.672 5.591.713.598.51 1.162.231 1.121-.55l-.108-2.793c.204.089.428.136.652.123l6.624-.34c.646-.034 1.162-.49 1.19-1.06l1.093-17.338-.496-.279c-.999-.666-.788-2.072.075-2.806l.285-.237z" class="c" style="stroke-width:.679405"/><g id="g12" style="stroke:#111;stroke-opacity:.0666667" transform="matrix(.6794 0 0 .6794 -5.143 -.41)"><path id="path8" d="M15.05 50.15c-.15 0-.3-.02-.44-.07-.54-.18-.96-.62-1.04-1.19-.42-2.98-.68-6.11-.8-9.31-.11-3.16-.17-6.41-.17-9.66s.03-6.57.08-9.85c.06-3.26.05-6.54-.03-9.77 0-.35.11-.69.32-.96.07-.12.17-.24.28-.35.19-.2.44-.33.7-.4a22 22 0 0 1 3.52-.57c.99-.08 2-.12 3-.12h.59c1.17.02 2.32.05 3.47.09.55.02 1.1.03 1.64.03s1.07 0 1.59-.03h.05c.12 0 .25.01.36.04 1.4.35 2.75 1.04 4.01 2.04 1.23.98 2.24 2.1 3 3.32.86 1.32 1.59 2.74 2.16 4.19.56 1.41 1.02 2.91 1.37 4.45.21.67.34 1.35.41 2.01.06.6.11 1.2.14 1.81v.16c-.07 1.75-.14 3.51-.2 5.28-.06 1.84-.26 3.69-.61 5.48-.03.14-.08.28-.14.41-.78 2.28-1.85 4.47-3.18 6.51a67 67 0 0 1-4.15 5.72c-.27.34-.68.54-1.12.56-2.46.08-4.98.12-7.48.14q-3.645.03-7.08.03c-.09.02-.18.02-.26.02zm8.8-14.84c.7-.04 1.37-.09 2.01-.16h.12c.11-.06.24-.12.36-.17.21-.14.39-.29.55-.47.23-.26.45-.54.63-.82.53-.81.92-1.73 1.16-2.71.23-.93.21-1.99-.04-3.14-.11-.56-.24-1.13-.38-1.73-.12-.5-.3-.99-.53-1.44-.21-.42-.47-.8-.78-1.12-.22-.23-.49-.41-.84-.55-.54-.06-1.13-.09-1.76-.11h-.2c-.17 0-.33 0-.49.01.03.69.05 1.41.05 2.16q0 1.755-.06 3.66c-.04 1.24-.06 2.49-.06 3.76 0 .96.02 1.91.06 2.84h.18z" class="d" style="stroke:#111;stroke-opacity:.0666667"/><path id="path10" d="M20.47 9.4h.57c1.16.02 2.3.05 3.44.08.57.02 1.13.03 1.69.03s1.1 0 1.65-.03c1.19.3 2.34.89 3.44 1.76 1.1.88 1.99 1.86 2.66 2.94.82 1.27 1.5 2.58 2.04 3.95.54 1.36.98 2.79 1.32 4.28.19.6.31 1.19.36 1.76s.1 1.17.14 1.76c-.08 1.75-.14 3.52-.2 5.29s-.25 3.52-.59 5.24c0 .04 0 .06-.03.06q-.03 0-.03.06a28 28 0 0 1-3.05 6.27 66 66 0 0 1-4.06 5.6c-2.46.08-4.95.12-7.45.14s-4.93.03-7.28.03l-.06.06c-.41-2.95-.67-6-.78-9.16-.11-3.15-.17-6.36-.17-9.6s.03-6.52.08-9.83c.06-3.3.05-6.58-.03-9.83.04-.04.06-.07.08-.11s.05-.07.08-.11c1.04-.26 2.14-.44 3.28-.53.95-.08 1.91-.12 2.87-.12m3.26 27.42h.19c.73-.04 1.43-.09 2.1-.17.05.01.11.02.16.02.13 0 .24-.03.35-.1.15-.09.32-.18.5-.25.37-.22.7-.5.98-.81.28-.32.53-.64.76-.98.63-.97 1.09-2.04 1.37-3.19q.42-1.74-.03-3.81c-.11-.56-.24-1.15-.39-1.76a8.2 8.2 0 0 0-.64-1.76c-.28-.56-.63-1.05-1.04-1.48s-.93-.76-1.57-.98c-.64-.07-1.33-.12-2.07-.14h-.24c-.66 0-1.29.07-1.89.2h-.17v.22c.07 1.01.11 2.09.11 3.25s-.02 2.36-.06 3.61q-.06 1.875-.06 3.81c0 1.29.04 2.57.11 3.84.37.34.88.51 1.51.51M20.42 6.42c-1.04 0-2.09.04-3.12.13-1.29.11-2.56.31-3.76.61-.53.13-1.02.41-1.41.8-.16.16-.31.34-.43.53-.4.54-.62 1.19-.6 1.87.07 3.21.08 6.47.03 9.71-.06 3.3-.08 6.62-.08 9.88s.06 6.53.17 9.71c.12 3.25.39 6.43.81 9.46A3 3 0 0 0 15 51.7c.2 0 .39-.02.58-.06q3.285 0 6.78-.03c2.51-.02 5.04-.07 7.52-.14.87-.03 1.69-.43 2.24-1.11 1.48-1.83 2.91-3.8 4.24-5.85 1.37-2.1 2.47-4.35 3.29-6.69.13-.26.22-.55.27-.85.35-1.84.56-3.73.62-5.63.06-1.76.12-3.51.2-5.26v-.32q-.06-.945-.15-1.86-.105-1.11-.45-2.25c-.37-1.6-.85-3.15-1.43-4.62a26 26 0 0 0-2.3-4.45c-.85-1.36-1.96-2.6-3.32-3.68-1.44-1.14-2.98-1.93-4.59-2.33-.24-.06-.48-.09-.73-.09h-.1c-.51.02-1.02.03-1.54.03s-1.05 0-1.59-.03c-1.15-.04-2.32-.07-3.49-.09h-.62zm4.65 27.33c0-.41-.01-.83-.01-1.25 0-1.26.02-2.51.05-3.72.04-1.3.06-2.55.06-3.7v-.63c.17.01.34.02.5.04.06.04.12.08.16.12.2.21.37.46.52.75.18.35.31.73.41 1.13.14.59.26 1.13.37 1.64.21.97.22 1.8.05 2.51-.2.83-.52 1.57-.97 2.26-.13.2-.3.42-.49.63-.05.05-.1.1-.16.15l-.04.02c-.15.02-.3.03-.45.04z" class="c" style="stroke:#111;stroke-opacity:.0666667"/></g><g id="g18" style="stroke:#111;stroke-opacity:.0666667" transform="matrix(.6794 0 0 .6794 -5.143 -.41)"><path id="path14" d="M64.65 50.52c-.79 0-1.68-.05-2.72-.15-.91-.09-1.73-.13-2.43-.13-.59 0-1.13-.35-1.37-.89-1.2-2.7-2.43-5.39-3.66-8.01-.68-1.44-1.3-2.87-1.87-4.26l-.03 2.15c-.02 1.67-.03 3.29-.03 4.85v2.49c0 .77.02 1.46.05 2.07.04.71-.42 1.35-1.1 1.54-.49.13-1 .23-1.49.27-.46.04-.91.06-1.37.06-.95 0-1.92-.06-2.9-.18-.85-.1-1.68-.16-2.48-.16s-1.5-.67-1.5-1.5v-3.92c0-3.53-.03-6.93-.08-10.11a544 544 0 0 1-.08-10.11c0-2.6.04-5.19.11-7.69.08-2.54.21-5.04.4-7.44.05-.67.54-1.22 1.2-1.35.42-.08.88-.15 1.36-.19s.96-.06 1.45-.06c.23 0 .62 0 1.17.03a24 24 0 0 1 3.17.33c1.01.19 1.6.63 1.76 1.3.22.56.43 1.03.61 1.41l.64 1.29a63 63 0 0 1 1.58 3.38c.08.21.23.52.47.98.26.53.57 1.14.9 1.84l.82 1.69c-.01-.6-.03-1.19-.06-1.75a88 88 0 0 1-.09-4.01c0-.79 0-1.6.03-2.42.02-.81.05-1.68.08-2.63.03-.7.54-1.29 1.24-1.42 1.35-.24 2.79-.36 4.29-.36s2.83.12 4 .37c.7.14 1.2.76 1.2 1.47v18.05c.04 1.54.06 3.14.06 4.76v4.82c0 1.09 0 2.15-.03 3.16-.02 1-.03 2.02-.03 3.05 0 .73 0 1.47.03 2.2q.03 1.14.03 2.28v1.12c0 .57-.32 1.09-.84 1.34-.17.08-.38.16-.75.26-.41.12-.97.17-1.76.17z" class="d" style="stroke:#111;stroke-opacity:.0666667"/><path id="path16" d="M62.74 8.98c1.38 0 2.61.11 3.7.34v18.03c.04 1.57.06 3.16.06 4.76v4.82c0 1.08 0 2.13-.03 3.14-.02 1.01-.03 2.04-.03 3.08 0 .75 0 1.49.03 2.24.02.75.03 1.49.03 2.24v1.12c-.08.04-.24.09-.5.17-.26.07-.71.11-1.34.11-.75 0-1.61-.05-2.58-.14s-1.83-.14-2.58-.14c-1.23-2.76-2.46-5.44-3.67-8.04a89 89 0 0 1-3.11-7.48l-.56-1.68c-.15-.41-.29-.79-.42-1.15-.13-.35-.23-.53-.31-.53-.04 0-.08.45-.14 1.34-.06.9-.1 2.04-.14 3.42s-.07 2.91-.08 4.59c-.02 1.68-.03 3.3-.03 4.87v2.49q0 1.2.06 2.16c-.41.11-.82.19-1.23.22q-.615.06-1.23.06c-.9 0-1.8-.06-2.72-.17s-1.8-.17-2.66-.17v-3.92c0-3.55-.03-6.92-.08-10.14-.06-3.21-.08-6.57-.08-10.08 0-2.58.04-5.12.11-7.64s.21-4.97.39-7.36c.37-.07.77-.13 1.2-.17q.645-.06 1.32-.06c.22 0 .6 0 1.12.03.52.02 1.04.06 1.57.11.52.06.98.12 1.37.2s.59.15.59.22c.26.67.5 1.23.73 1.68.22.45.44.88.64 1.29s.43.87.67 1.37.53 1.15.87 1.93c.07.19.24.54.5 1.06s.56 1.13.9 1.82.69 1.42 1.06 2.18c.37.77.72 1.46 1.04 2.07.32.62.59 1.14.81 1.57s.35.64.39.64c.11-.07.2-.45.28-1.12.07-.67.11-1.32.11-1.96 0-1.49-.03-2.88-.08-4.17-.06-1.29-.08-2.6-.08-3.95 0-.78 0-1.58.03-2.38.02-.8.05-1.67.08-2.6 1.27-.22 2.61-.34 4.03-.34m0-3c-1.59 0-3.12.13-4.55.38a2.986 2.986 0 0 0-2.47 2.83c-.04.95-.07 1.84-.09 2.66-.01.43-.02.85-.02 1.27-.03-.07-.07-.14-.1-.21q-.375-.78-.69-1.41l-.32-.64-.33-.66c-.17-.34-.37-.79-.58-1.33-.28-.82-1-1.82-2.85-2.17-.47-.09-1.02-.17-1.61-.23s-1.19-.11-1.78-.13q-.87-.03-1.23-.03c-.52 0-1.05.02-1.57.07-.55.05-1.06.12-1.54.22-1.32.26-2.3 1.37-2.4 2.71-.19 2.42-.32 4.95-.4 7.51-.08 2.52-.11 5.12-.11 7.73 0 3.52.03 6.93.08 10.13.06 3.17.08 6.56.08 10.08v3.92c0 1.66 1.34 3 3 3 .73 0 1.51.05 2.29.15 1.04.13 2.07.19 3.08.19.49 0 1-.02 1.5-.07.59-.05 1.18-.16 1.75-.32a2.99 2.99 0 0 0 2.2-3.07c-.03-.56-.05-1.23-.05-1.98v-2.61c.91 1.97 1.82 3.98 2.72 5.98a3.01 3.01 0 0 0 2.74 1.78c.65 0 1.42.04 2.29.13 1.09.1 2.02.15 2.86.15.94 0 1.61-.07 2.16-.23.48-.14.76-.24 1.01-.36a3.01 3.01 0 0 0 1.67-2.69v-1.12c0-.77 0-1.54-.03-2.31q-.03-1.08-.03-2.16c0-1.03 0-2.03.03-3.02.02-1.03.03-2.09.03-3.19v-4.82c0-1.59-.02-3.2-.06-4.79V9.32c0-1.42-1-2.65-2.39-2.94-1.28-.26-2.72-.4-4.31-.4z" class="c" style="stroke:#111;stroke-opacity:.0666667"/></g><g id="g24" style="stroke:#111;stroke-opacity:.0666667" transform="matrix(.6794 0 0 .6794 -5.143 -.41)"><path id="path20" d="M85.13 50.53h-.5a18.3 18.3 0 0 1-5.33-.94c-1.77-.59-3.38-1.43-4.78-2.5-1.43-1.1-2.59-2.46-3.44-4.04-.88-1.64-1.25-3.52-1.13-5.59v-.24c0-.75.55-1.38 1.29-1.49.94-.13 1.94-.2 3-.2.52 0 1.06.02 1.61.05 1.08.06 2.1.1 3.04.1.37 0 .73 0 1.08-.01h.04c.79 0 1.45.61 1.5 1.41.06.94.44 1.32.77 1.54.6.41 1.21.61 1.86.61.71-.01 1.22-.21 1.68-.61.11-.1.46-.4.26-1.53-.08-.62-.26-1.03-.57-1.33-.43-.42-.95-.76-1.55-1.02a9.6 9.6 0 0 0-2.17-.65l-2.52-.48c-.89-.18-1.73-.47-2.49-.88-.73-.39-1.41-.84-2.01-1.36-1.98-1.89-3.24-3.96-3.81-6.2-.56-2.21-.59-4.39-.09-6.49.5-2.08 1.46-4 2.85-5.7a13 13 0 0 1 5.15-3.85c1.02-.42 2.15-.71 3.36-.86.81-.1 1.64-.15 2.47-.15.35 0 .71 0 1.06.03 1.19.06 2.38.24 3.53.52s2.23.65 3.21 1.1c2.12 1.11 3.73 2.71 4.84 4.8 1.13 2.13 1.41 4.79.82 7.92a1.51 1.51 0 0 1-1.39 1.22c-1.34.22-2.78.36-4.28.42-.21 0-.42.01-.63.01-1.41 0-2.77-.18-4.03-.54-.76-.22-1.22-.99-1.05-1.77.14-.65-.03-.94-.24-1.17a2.83 2.83 0 0 0-1.51-.85 2.74 2.74 0 0 0-1.69.18c-.26.12-.51.31-.61.97 0 .07-.02.14-.04.2-.03.09-.04.16-.03.22.01.17.03.34.05.52.23.61.5.73.6.78.54.24 1.14.41 1.79.5 2.14.24 4.21.95 6.09 2.11 1.86 1.14 3.4 2.61 4.6 4.37.76.98 1.34 2.04 1.72 3.17.38 1.12.6 2.28.67 3.45.06 1.16-.02 2.35-.25 3.53s-.6 2.32-1.09 3.4c-.48 1.24-1.18 2.39-2.04 3.35-.85.94-1.84 1.72-2.94 2.32-1.07.59-2.24 1.02-3.48 1.3-1.05.23-2.15.35-3.26.35z" class="d" style="stroke:#111;stroke-opacity:.0666667"/><path id="path22" d="M84.73 9.6c.33 0 .66 0 .99.03 1.1.06 2.18.22 3.25.48 1.06.26 2.04.6 2.94 1.01 1.79.93 3.17 2.32 4.14 4.14.97 1.83 1.19 4.14.67 6.94h-.06q-1.965.33-4.2.42c-.19 0-.39.01-.58.01-1.28 0-2.49-.16-3.62-.49.22-1.01.02-1.85-.62-2.52a4.35 4.35 0 0 0-3.19-1.38c-.59 0-1.16.12-1.72.37-.84.37-1.34 1.08-1.48 2.13-.08.26-.1.51-.08.76.02.24.05.5.08.76.3.9.78 1.49 1.46 1.79.67.3 1.4.5 2.18.62 1.98.22 3.82.86 5.52 1.9s3.09 2.37 4.17 3.98c.67.86 1.18 1.78 1.51 2.77s.53 2.01.59 3.05c.06 1.05-.02 2.1-.22 3.16a13.4 13.4 0 0 1-.98 3.05c-.45 1.16-1.05 2.15-1.79 2.97-.75.82-1.6 1.49-2.55 2.02-.95.52-1.98.91-3.08 1.15-.96.21-1.94.32-2.93.32h-.45c-1.64-.04-3.28-.33-4.9-.87s-3.07-1.3-4.34-2.27-2.28-2.16-3.02-3.56c-.75-1.4-1.06-3-.95-4.79v-.34c.87-.12 1.8-.19 2.79-.19.49 0 1 .02 1.53.05 1.12.07 2.16.1 3.13.1.39 0 .76 0 1.13-.02.07 1.2.55 2.09 1.43 2.69.85.58 1.75.87 2.71.87h.09c.99-.02 1.85-.34 2.58-.98s.98-1.61.76-2.91c-.11-.9-.45-1.61-1.01-2.16-.56-.54-1.22-.98-1.99-1.32s-1.6-.59-2.49-.76-1.74-.33-2.52-.48c-.75-.15-1.44-.39-2.07-.73-.64-.34-1.21-.73-1.74-1.18q-2.58-2.46-3.33-5.43c-.5-1.98-.53-3.9-.08-5.77s1.3-3.56 2.55-5.1q1.875-2.295 4.56-3.42c.9-.37 1.88-.62 2.97-.76.76-.09 1.52-.14 2.29-.14m0-3c-.88 0-1.78.05-2.65.16-1.35.16-2.62.49-3.76.96-2.25.94-4.17 2.38-5.73 4.29a15.6 15.6 0 0 0-3.14 6.29c-.56 2.34-.53 4.76.09 7.21.64 2.52 2.04 4.83 4.17 6.86.04.04.08.07.12.11a12.6 12.6 0 0 0 2.39 1.6c-.08 0-.17 0-.26-.01-.58-.03-1.15-.05-1.71-.05-1.12 0-2.2.07-3.21.22a3 3 0 0 0-2.58 2.97v.25c-.13 2.31.31 4.43 1.31 6.29.95 1.78 2.24 3.3 3.85 4.53 1.52 1.17 3.28 2.09 5.21 2.73 1.9.63 3.84.98 5.78 1.02h.52c1.22 0 2.42-.13 3.58-.39 1.38-.3 2.68-.79 3.88-1.45 1.24-.68 2.36-1.56 3.32-2.63.97-1.07 1.76-2.35 2.33-3.81.53-1.16.92-2.39 1.16-3.65.25-1.3.34-2.61.27-3.89a14.6 14.6 0 0 0-.74-3.86c-.43-1.27-1.08-2.47-1.92-3.57a16.5 16.5 0 0 0-2.93-3.25c1-.08 1.97-.19 2.89-.34 1.33-.12 2.44-1.1 2.69-2.44.65-3.47.32-6.46-.97-8.9-1.26-2.37-3.08-4.18-5.41-5.4-.05-.02-.09-.05-.14-.07-1.06-.49-2.23-.89-3.47-1.19-1.25-.31-2.53-.49-3.81-.56q-.57-.03-1.14-.03Zm-.51 14.67c.08-.02.17-.03.25-.03q.135 0 .27.03c.23.05.41.13.58.28 0 .05-.02.09-.03.14-.4-.06-.77-.15-1.1-.28zm-.02 16.44c-.25 0-.59-.04-1.05-.35-.04-.03-.1-.07-.12-.39-.03-.4-.13-.79-.3-1.13.23.08.45.16.66.25.44.19.8.43 1.11.73.07.07.11.3.12.37 0 .05.01.09.02.14.02.12.03.21.03.28-.12.06-.26.1-.47.1z" class="c" style="stroke:#111;stroke-opacity:.0666667"/></g><g id="g52" transform="matrix(.6794 0 0 .6794 -5.143 -.41)"><g id="g32"><path id="path28" d="M16.56 88.06c-.52 0-1.01-.27-1.28-.73-.21-.35-.33-.81-.4-1.51-.05-.51-.06-.98-.03-1.42v-2.05l.04-3.89c0-4.73-.1-9.42-.29-13.96l-1.58.04c-1.2 0-2.01-.09-2.61-.29-.38-.13-.69-.4-.87-.75-.16-.32-.28-.76-.37-1.98-.06-.81-.09-1.73-.09-2.73 0-1.44.02-2.51.04-3.16.04-.8.7-1.43 1.5-1.43h1.85l1.64-.04h2.45l2.48-.04c4.28 0 7.82.16 10.55.47h.47c.79 0 1.45.62 1.5 1.41.06 1 .09 1.96.09 2.84 0 1.73-.11 3.31-.32 4.7-.06.4-.28.76-.61 1-.26.18-.56.28-.87.28-.09 0-.18 0-.27-.02-1.06-.19-1.66-.23-1.97-.23l-1.71-.04c0 .31-.01.69-.01 1.16 0 2.52.1 9.37.3 20.35.01.74-.52 1.38-1.25 1.51q-1.38.24-3.18.24h-1.25c-1.34 0-2.59.09-3.71.28-.08.01-.16.02-.25.02z" class="b"/><path id="path30" d="M19.05 55.6c4.27 0 7.75.16 10.45.47h.56c.06.97.09 1.89.09 2.75q0 2.49-.3 4.47c-.95-.17-1.69-.26-2.24-.26l-2.02-.04c-.75 0-1.12.04-1.12.13-.06.4-.09 1.25-.09 2.54 0 2.52.1 9.32.3 20.38-.83.14-1.81.21-2.92.21h-1.25q-2.145 0-3.96.3c-.09-.14-.15-.44-.19-.88s-.05-.85-.02-1.23v-2.11l.04-3.87c0-5.22-.11-10.3-.34-15.26-.32-.14-.76-.21-1.33-.21l-1.72.04c-.97 0-1.68-.07-2.11-.21-.09-.17-.16-.65-.21-1.42-.06-.77-.09-1.65-.09-2.62 0-1.43.01-2.47.04-3.1h1.85l1.68-.04h2.41zm0-3H19l-2.47.04h-2.46l-1.64.04h-1.81c-1.6 0-2.93 1.26-3 2.87-.03.69-.05 1.75-.05 3.23 0 1.04.03 2 .09 2.84.1 1.29.23 1.95.52 2.53.36.71.98 1.26 1.74 1.51.75.25 1.73.37 3.06.37h.16c.15 4.06.23 8.23.23 12.44l-.04 3.84v2.04a10 10 0 0 0 .04 1.62c.09.94.27 1.58.61 2.14a3 3 0 0 0 3.06 1.41c1.04-.17 2.2-.26 3.46-.26h1.25c1.28 0 2.43-.09 3.43-.26a2.995 2.995 0 0 0 2.49-3.01c-.19-10.47-.29-17.18-.3-19.95h.22c.2 0 .7.03 1.7.21a2.96 2.96 0 0 0 2.28-.51c.66-.47 1.1-1.19 1.22-1.99.22-1.47.34-3.12.34-4.92 0-.91-.03-1.9-.09-2.93a2.993 2.993 0 0 0-2.99-2.82h-.39c-2.78-.31-6.35-.47-10.62-.47Z" class="c"/></g><g id="g38"><path id="path34" d="M43.27 88.49c-.71 0-1.21-.02-1.53-.05-1.54-.12-2.97-.48-4.22-1.05-1.41-.64-2.46-1.61-3.14-2.88-.79-1.49-1.23-3.34-1.29-5.52l-.08-1.33c-.02-.11-.05-.48-.05-1.51-.14-2.27-.21-4.58-.21-6.75 0-1.35.04-2.71.13-4.05.09-1.54.37-3.07.81-4.53a11.6 11.6 0 0 1 2.2-4.11c.12-.15.27-.27.43-.36l.95-.52c2.1-1.02 4.34-1.52 6.74-1.52 1.51 0 2.96.2 4.31.6 1.39.41 2.62 1.02 3.68 1.81.04.03.08.06.11.09 1.2 1.1 1.98 2.18 2.38 3.31.37.98.64 2.01.8 3.02.1 1.02.15 1.98.15 2.94l-.05.86v.69c-.06 1-.08 2.37-.08 4.17 0 2.1-.04 3.65-.13 4.77L55.05 78c-.16 2.52-.83 4.76-1.99 6.6-.61.86-1.44 1.55-2.5 2.11-.95.51-2.01.92-3.14 1.24-1.17.35-2.57.53-4.14.53zm-.85-10.29c.13.27.3.46.52.6.27.16.54.24.84.24.24 0 .5-.06.78-.19.27-.12.51-.3.71-.54.18-.24.23-.38.23-.38s.05-.19.05-.79c0-.56.02-.96.05-1.26l.04-.49.04-.78v-.52l.04-.9v-1.98l-.09-2.88v-.2l-.17-2.18c-.04-.59-.18-1.11-.41-1.54q-.24-.45-.54-.63c-.03 0-.06-.01-.09-.01-.36 0-.72.12-1.11.38-.15.14-.38.38-.65.83-.25.4-.44.81-.58 1.22-.25 1.14-.38 2.62-.38 4.42q0 1.26.03 1.95c.12.63.21 1.41.27 2.39l.04.59c.11 1.4.25 2.21.36 2.67z" class="b"/><path id="path36" d="M44 55.81c1.38 0 2.67.18 3.89.54s2.29.88 3.2 1.57c1 .92 1.66 1.82 1.98 2.71.34.92.59 1.83.73 2.75.09.89.13 1.79.13 2.71l-.04.77v.77q-.09 1.425-.09 4.17c0 2.04-.04 3.58-.13 4.64l-.13 1.42c-.14 2.32-.73 4.3-1.76 5.93-.43.6-1.08 1.13-1.94 1.59s-1.81.83-2.84 1.12c-1.06.32-2.31.47-3.74.47-.66 0-1.12-.02-1.38-.04-1.4-.12-2.66-.42-3.76-.92s-1.91-1.24-2.43-2.21c-.69-1.29-1.06-2.91-1.12-4.86l-.09-1.38c-.03-.23-.04-.7-.04-1.42q-.21-3.525-.21-6.75c0-1.32.04-2.64.13-3.96.09-1.43.34-2.83.75-4.19.42-1.36 1.05-2.56 1.91-3.59l.95-.52c1.83-.89 3.84-1.33 6.02-1.33m-3.74 16.99v-.04c.11.57.2 1.33.26 2.28l.04.6c.11 1.43.27 2.49.47 3.18v-.04c.26.57.64 1.01 1.14 1.31s1.04.45 1.61.45c.46 0 .92-.11 1.4-.32.47-.22.88-.52 1.23-.92.29-.37.47-.69.54-.95s.11-.66.11-1.2c0-.49.01-.84.04-1.08l.04-.56.04-.82v-.6l.04-.82V71.2l-.09-2.92v-.21l-.17-2.24c-.06-.8-.25-1.51-.58-2.13s-.75-1.05-1.27-1.31c-.23-.09-.46-.13-.69-.13-.69 0-1.36.23-2.02.69-.34.29-.68.7-1.01 1.23s-.58 1.07-.75 1.61c-.29 1.26-.43 2.87-.43 4.82 0 .98.01 1.71.04 2.19m3.74-19.99c-2.62 0-5.09.55-7.33 1.63-.04.02-.09.04-.13.07l-.95.52c-.33.18-.63.42-.87.71-1.11 1.34-1.95 2.9-2.48 4.63-.48 1.58-.78 3.23-.88 4.89a63 63 0 0 0-.13 4.14c0 2.18.07 4.48.21 6.84 0 .9.03 1.33.05 1.59l.08 1.25c.08 2.38.57 4.45 1.47 6.13.83 1.56 2.12 2.76 3.84 3.54 1.4.64 2.99 1.03 4.72 1.18.25.02.69.06 1.65.06 1.7 0 3.24-.2 4.57-.59 1.23-.34 2.38-.8 3.42-1.35 1.27-.67 2.26-1.51 2.96-2.49.03-.05.06-.09.09-.14 1.29-2.05 2.04-4.5 2.22-7.3l.13-1.38c.1-1.18.14-2.78.14-4.92 0-1.77.03-3.11.08-3.99v-.87l.04-.69v-.17c0-1.01-.05-2.02-.14-3 0-.06-.01-.12-.02-.18-.17-1.11-.47-2.22-.88-3.32-.49-1.36-1.4-2.63-2.77-3.89a2 2 0 0 0-.23-.19c-1.2-.9-2.6-1.59-4.16-2.05-1.49-.44-3.08-.66-4.74-.66zm-.46 13.77c.1-.27.23-.55.4-.82l.03.28.16 2.13v.19l.08 2.88v1.94l-.04.74v.68l-.04.7-.04.46c-.04.35-.06.78-.06 1.36v.28c-.03.03-.07.05-.11.07-.06.03-.1.04-.13.05-.08-.41-.17-1.08-.26-2.14l-.04-.58q-.09-1.425-.27-2.43c-.02-.42-.03-1.02-.03-1.78 0-1.64.11-3 .33-4.02z" class="c"/></g><g id="g44"><path id="path40" d="M64.49 87.97c-.06 0-.12 0-.19-.01-.62-.08-1.23-.12-1.79-.12-.39 0-.95.03-1.65.08l-1.89.05c-.66 0-1.38-.05-2.18-.14-.45-.05-.85-.3-1.09-.68s-.3-.85-.16-1.28c.7-2.09 2.04-5.7 3.98-10.73l1.59-4.03c-.25-.92-.55-1.84-.9-2.74-.42-1.08-.96-2.38-1.61-3.88-.79-1.97-1.38-3.46-1.77-4.5-.41-1.08-.76-2.24-1.06-3.43-.11-.46 0-.95.3-1.32a1.5 1.5 0 0 1 1.16-.55h.36c.48 0 1.16-.04 2.03-.13.97-.12 1.67-.18 2.17-.18 1.26 0 2.34.25 3.23.75.36.2.62.55.72.95.25 1.02.63 2.31 1.15 3.83.03.08.05.16.08.24 1.3-3.91 1.44-4.17 1.52-4.35.21-.41.59-.71 1.05-.8 1.66-.33 3.34-.5 4.98-.5 1.02 0 1.94.06 2.73.19.42.07.79.31 1.02.66.23.36.3.79.19 1.2-.7 2.63-1.58 5.21-2.6 7.65-1.01 2.4-2.39 5.46-4.11 9.07-1.37 2.79-2.52 5.25-3.42 7.33a74 74 0 0 0-2.4 6.3c-.2.62-.78 1.03-1.42 1.03z" class="b"/><path id="path42" d="M61.78 55.9c1 0 1.83.19 2.49.56.26 1.06.65 2.38 1.18 3.96s1.04 2.98 1.53 4.21c.14-.29.6-1.59 1.38-3.91.86-2.58 1.35-3.98 1.46-4.21 1.58-.32 3.14-.47 4.69-.47.95 0 1.78.06 2.49.17-.69 2.58-1.53 5.07-2.54 7.46-1 2.39-2.37 5.4-4.08 9.01a188 188 0 0 0-3.44 7.37 75 75 0 0 0-2.45 6.43c-.69-.09-1.35-.13-1.98-.13-.43 0-1.02.03-1.76.09l-1.81.04c-.57 0-1.23-.04-1.98-.13.69-2.06 2.01-5.62 3.96-10.66l1.76-4.47a31 31 0 0 0-1.07-3.38c-.43-1.1-.98-2.41-1.63-3.93-.77-1.92-1.35-3.4-1.74-4.43s-.72-2.12-1.01-3.27h.36c.53 0 1.26-.05 2.18-.14.92-.11 1.59-.17 2.02-.17m0-3c-.55 0-1.3.06-2.35.19-.99.1-1.55.12-1.84.12h-.36c-.89 0-1.74.4-2.32 1.09-.6.73-.83 1.71-.6 2.63.31 1.25.69 2.46 1.11 3.59.39 1.05.99 2.56 1.77 4.5 0 .02.02.05.03.07.64 1.48 1.18 2.77 1.59 3.83.27.69.51 1.4.71 2.11l-1.4 3.55c-1.96 5.07-3.31 8.7-4.01 10.82-.29.86-.17 1.8.32 2.56s1.29 1.27 2.19 1.37c.87.1 1.63.15 2.32.15h.07l1.81-.04h.16c.82-.06 1.29-.08 1.53-.08.5 0 1.04.04 1.61.11.13.02.25.02.37.02 1.28 0 2.44-.82 2.85-2.06.68-2.08 1.48-4.16 2.35-6.17.89-2.05 2.03-4.49 3.38-7.25 1.75-3.67 3.14-6.74 4.16-9.17 1.05-2.51 1.95-5.15 2.67-7.85.22-.82.08-1.7-.38-2.41a3.04 3.04 0 0 0-2.04-1.33c-.87-.14-1.87-.21-2.97-.21-1.74 0-3.52.18-5.28.53a2.97 2.97 0 0 0-2.17 1.78c-.25-.63-.71-1.15-1.31-1.49-1.11-.63-2.45-.95-3.97-.95Z" class="c"/></g><g id="g50"><path id="path46" d="M89.03 88.1c-2.05 0-4.08-.41-6.01-1.21-1.99-.83-3.64-2.04-4.88-3.62-1.32-1.67-1.92-3.62-1.78-5.8v-.29c0-.73.52-1.35 1.24-1.48.91-.16 1.93-.24 3.01-.24.89 0 1.64.02 2.26.04.51.03 1.47.04 2.85.04.81 0 1.47.64 1.5 1.45.02.68.26.92.34.99.22.21.43.31.7.31.24 0 .33-.07.4-.14.11-.11.12-.39.12-.51 0-.13 0-.24-.02-.31-.11-.79-.4-1.03-.7-1.18-.73-.37-1.78-.68-3.1-.95l-.65-.13a8.33 8.33 0 0 1-3.9-1.83c-.03-.02-.05-.05-.08-.07-1.16-1.13-2.05-2.37-2.64-3.69-.6-1.34-.91-2.7-.91-4.05 0-2.16.66-4.22 1.96-6.12 1.29-1.88 3-3.27 5.07-4.13 1.3-.53 2.9-.8 4.74-.8 2.35 0 4.54.45 6.51 1.34 1.61.84 2.84 1.91 3.75 3.22.95 1.37 1.43 2.99 1.43 4.81 0 .67-.09 1.5-.28 2.51a1.49 1.49 0 0 1-1.47 1.22h-.39c-1.23.2-2.48.3-3.69.3h-.34c1.59.95 2.9 2.07 3.89 3.35.65.89 1.16 1.86 1.52 2.89.37 1.06.56 2.12.56 3.14 0 1.71-.38 3.38-1.13 4.98-.87 1.88-2.24 3.36-4.05 4.4-1.77 1.02-3.73 1.53-5.82 1.53zm-.92-22.67c.09.21.16.27.16.27.22.13.51.22.86.28h.08c-.02-.14-.01-.29.02-.45.03-.15.05-.27.06-.34 0-.2-.06-.33-.23-.47-.27-.24-.47-.27-.64-.27-.09 0-.13.02-.18.06 0 0-.03.08-.05.23-.01.11-.03.21-.07.32-.03.08-.04.14-.05.18l.02.2z" class="b"/><path id="path48" d="M88.56 55.9c2.15 0 4.11.4 5.89 1.2 1.32.69 2.36 1.59 3.14 2.71.77 1.12 1.16 2.44 1.16 3.96 0 .57-.09 1.32-.26 2.24h-.52q-1.8.3-3.57.3c-1.4 0-2.64-.16-3.7-.47q.09-.435.09-.6c0-.66-.24-1.2-.73-1.63s-1.03-.64-1.63-.64c-.43 0-.81.14-1.14.41s-.52.68-.58 1.23c-.09.26-.13.49-.13.69l.04.39v.09c.2.6.49 1.02.88 1.25s.85.39 1.4.47c1.43.2 2.88.73 4.34 1.59s2.64 1.86 3.53 3.01c.54.75.97 1.57 1.29 2.47.31.9.47 1.79.47 2.64 0 1.49-.33 2.94-.99 4.34-.75 1.61-1.89 2.85-3.44 3.74s-3.24 1.33-5.07 1.33-3.68-.37-5.44-1.1-3.19-1.79-4.28-3.16c-1.09-1.38-1.58-2.97-1.46-4.77v-.39c.83-.14 1.75-.21 2.75-.21.86 0 1.59.01 2.19.04.54.03 1.52.04 2.92.04.03.86.29 1.53.8 2.02.5.49 1.08.73 1.74.73.57 0 1.05-.19 1.44-.56s.58-.9.58-1.59c0-.26-.01-.46-.04-.6-.14-1.06-.65-1.81-1.5-2.24q-1.29-.645-3.48-1.08l-.65-.13c-1.23-.23-2.31-.73-3.23-1.5-1.03-1-1.81-2.08-2.32-3.23-.52-1.15-.77-2.29-.77-3.44 0-1.86.57-3.62 1.7-5.27s2.6-2.84 4.41-3.59q1.68-.69 4.17-.69m0-3c-2.04 0-3.83.31-5.31.91-2.35.97-4.28 2.54-5.74 4.67-1.48 2.15-2.23 4.49-2.23 6.97 0 1.57.35 3.14 1.04 4.67.63 1.39 1.54 2.71 2.73 3.91-.59.04-1.16.11-1.7.2-1.44.25-2.49 1.5-2.49 2.96v.3c-.14 2.52.57 4.78 2.11 6.72 1.4 1.77 3.25 3.14 5.48 4.07 2.12.88 4.34 1.32 6.59 1.32s4.57-.58 6.57-1.73c2.09-1.2 3.66-2.91 4.67-5.08a13.1 13.1 0 0 0 1.27-5.61c0-1.19-.22-2.41-.64-3.63-.41-1.18-.99-2.28-1.7-3.25-.02-.02-.03-.05-.05-.07-.32-.42-.68-.82-1.06-1.21l.13-.02h.28a3.01 3.01 0 0 0 2.95-2.45c.21-1.11.31-2.02.31-2.79 0-2.13-.57-4.04-1.69-5.66-1.05-1.52-2.47-2.75-4.22-3.66-.05-.03-.1-.05-.16-.08-2.16-.97-4.56-1.47-7.12-1.47z" class="c"/></g></g></svg>