<svg xmlns="http://www.w3.org/2000/svg" xmlns:xlink="http://www.w3.org/1999/xlink" width="120" height="60"><style><![CDATA[.C{fill-rule:evenodd}]]></style><path d="M47.212 25.9H43.53v-2.198h9.86V25.9h-3.682v11h-2.495zm8.45 9.204c1-.005 1.994-.158 2.95-.455l.38 1.82a10.35 10.35 0 0 1-3.543.632c-3.032 0-4.08-1.4-4.08-3.72v-2.526c0-2.04.9-3.8 3.998-3.8s3.8 1.8 3.8 3.878v2.06h-5.37v.493c0 1.156.4 1.6 1.876 1.6zm-1.895-4.06h3.07v-.474c0-.9-.278-1.54-1.465-1.54s-1.604.632-1.604 1.54z"/><use xlink:href="#B"/><use xlink:href="#B" x="5.899"/><path d="M79.577 36.875H77.6l-.177-.632a5.29 5.29 0 0 1-2.868.853c-1.762 0-2.526-1.206-2.526-2.868 0-1.958.853-2.7 2.8-2.7h2.318v-1c0-1.067-.297-1.446-1.838-1.446a13.47 13.47 0 0 0-2.672.297l-.297-1.838a12.58 12.58 0 0 1 3.303-.455c3.032 0 3.922 1.067 3.922 3.487zm-2.413-3.644h-1.78c-.8 0-1 .215-1 .947s.215.973.973.973a3.79 3.79 0 0 0 1.819-.493zm9.84-8.2a7.15 7.15 0 0 0-1.383-.158c-.947 0-1.086.417-1.086 1.15v1.206h2.45l-.14 1.895h-2.318v7.718h-2.413V29.16h-1.547v-1.895h1.54v-1.37c0-2.002.928-2.988 3.07-2.988a7.65 7.65 0 0 1 2.078.278zm4.712 12.036c-3.303 0-4.194-1.82-4.194-3.8V30.85c0-1.977.9-3.8 4.194-3.8s4.2 1.82 4.2 3.8v2.438c-.006 1.964-.897 3.8-4.2 3.8zm0-7.977c-1.263 0-1.78.575-1.78 1.66v2.596c0 1.086.493 1.66 1.78 1.66s1.78-.575 1.78-1.66V30.76c0-1.093-.5-1.667-1.78-1.667zm10.4.158a18.63 18.63 0 0 0-2.526 1.41v6.215h-2.44v-9.645h2.04l.158 1.067a10.8 10.8 0 0 1 2.526-1.263zm6.64 7.627v-6.727c0-.512-.215-.77-.77-.77-.888.1-1.748.376-2.526.815v6.7h-2.4v-9.645h1.838l.24.815a9.64 9.64 0 0 1 3.86-1.01 1.83 1.83 0 0 1 1.819 1.03c1.204-.616 2.527-.967 3.878-1.03 1.604 0 2.18 1.13 2.18 2.85v6.986h-2.413v-6.727c0-.512-.215-.77-.77-.77a6.39 6.39 0 0 0-2.526.815v6.7z"/><g transform="matrix(.549621 0 0 .549621 6.171141 42.722741)" class="C"><path d="M39.1-8.713v-.16l-21.16-12.22v24.43l21.16 12.22zm0-27.28v24.44l-21.16-12.22v-24.44z" fill="#5c4ee5"/><path d="M41.42-11.553l21.17-12.22v-24.44l-21.17 12.22z" fill="#4040b2"/><g fill="#5c4ee5"><path d="M-5.54-37.413l21.16 12.22v-24.44l-21.16-12.22z"/><path d="M53.64-.483"/><path d="M17.94-21.093"/></g></g><defs ><path id="B" d="M65.605 29.258c-.877.404-1.722.875-2.526 1.41v6.215h-2.444v-9.645h2.04l.158 1.067a10.8 10.8 0 0 1 2.526-1.263z"/></defs></svg>