<?xml version="1.0" encoding="utf-8"?>
<!-- Generator: Adobe Illustrator 24.0.0, SVG Export Plug-In . SVG Version: 6.00 Build 0)  -->
<svg version="1.1" id="Layer_1" xmlns="http://www.w3.org/2000/svg" xmlns:xlink="http://www.w3.org/1999/xlink" x="0px" y="0px"
	 viewBox="0 0 64 64" width="64" height="64" style="enable-background:new 0 0 64 64;" xml:space="preserve">
<style type="text/css">
	.st0{fill-rule:evenodd;clip-rule:evenodd;fill:#0031E2;}
</style>
<path id="path0_fill" class="st0" d="M31.9,29.8l-6.7,6.6l6.7,6.6l6.6-6.6L31.9,29.8z M31.9,29.8l-6.7,6.6l6.7,6.6l6.6-6.6
	L31.9,29.8z M31.9,29.8l-6.7,6.6l6.7,6.6l6.6-6.6L31.9,29.8z M31.9,29.8l-6.7,6.6l6.7,6.6l6.6-6.6L31.9,29.8z M32,7.8L0,41.4
	l2.4,2.3C3,44.2,15.8,56.2,32,56.2c16.2,0,29-12,29.6-12.5l2.4-2.3L32,7.8z M32,49.5c-9.6,0-18.1-5.4-22.2-8.5L32,17.7L54.2,41
	C50.1,44.1,41.6,49.5,32,49.5z M25.3,36.5l6.7,6.6l6.6-6.6l-6.6-6.6L25.3,36.5z"/>
</svg>
