<?xml version="1.0" encoding="UTF-8" standalone="no"?>
<!-- Generator: Adobe Illustrator 17.0.0, SVG Export Plug-In . SVG Version: 6.00 Build 0)  -->

<svg
   xmlns:dc="http://purl.org/dc/elements/1.1/"
   xmlns:cc="http://creativecommons.org/ns#"
   xmlns:rdf="http://www.w3.org/1999/02/22-rdf-syntax-ns#"
   xmlns:svg="http://www.w3.org/2000/svg"
   xmlns="http://www.w3.org/2000/svg"
   xmlns:sodipodi="http://sodipodi.sourceforge.net/DTD/sodipodi-0.dtd"
   xmlns:inkscape="http://www.inkscape.org/namespaces/inkscape"
   version="1.1"
   id="Layer_1"
   x="0px"
   y="0px"
   width="120"
   height="60"
   viewBox="0 0 120 60"
   enable-background="new 0 0 1879 612"
   xml:space="preserve"
   sodipodi:docname="pandadoc-ar21.svg"
   inkscape:version="0.92.3 (2405546, 2018-03-11)"><metadata
   id="metadata17"><rdf:RDF><cc:Work
       rdf:about=""><dc:format>image/svg+xml</dc:format><dc:type
         rdf:resource="http://purl.org/dc/dcmitype/StillImage" /><dc:title></dc:title></cc:Work></rdf:RDF></metadata><defs
   id="defs15" /><sodipodi:namedview
   pagecolor="#ffffff"
   bordercolor="#666666"
   borderopacity="1"
   objecttolerance="10"
   gridtolerance="10"
   guidetolerance="10"
   inkscape:pageopacity="0"
   inkscape:pageshadow="2"
   inkscape:window-width="1920"
   inkscape:window-height="1001"
   id="namedview13"
   showgrid="false"
   inkscape:zoom="2.8866418"
   inkscape:cx="55.970584"
   inkscape:cy="83.659662"
   inkscape:window-x="-9"
   inkscape:window-y="-9"
   inkscape:window-maximized="1"
   inkscape:current-layer="Layer_1" />


<g
   id="g884"
   transform="translate(-1.7713866)"><g
     transform="matrix(0.49727716,0,0,0.49727716,20.280352,15.886222)"
     id="g843"><g
       id="g6"
       transform="matrix(0.11229028,0,0,0.11229028,-19.356402,-6.0909996)">
	<g
   id="g4">
		<path
   d="M 723.665,213.5 H 643 v 183.695 h 32.102 v -68.851 h 48.564 c 38.138,0 59.539,-26.163 59.539,-57.284 -0.001,-31.396 -21.128,-57.56 -59.54,-57.56 z m -4.39,86.477 h -44.174 v -58.11 h 44.174 c 18.109,0 31.004,11.567 31.004,29.193 0,17.35 -12.895,28.917 -31.004,28.917 z M 851.51,260.87 c -21.127,0 -40.333,6.61 -55.697,21.482 l 12.072,20.104 c 11.249,-11.567 24.419,-17.075 39.235,-17.075 18.109,0 31.004,9.364 31.004,24.786 v 19.829 c -9.877,-11.292 -24.968,-17.075 -43.076,-17.075 -21.675,0 -45.82,12.669 -45.82,43.514 0,29.193 24.419,44.065 45.82,44.065 17.56,0 33.199,-6.334 43.076,-17.901 v 14.596 h 28.809 V 308.79 c 0,-35.527 -25.791,-47.92 -55.423,-47.92 z m 26.614,106.031 c -6.859,9.088 -19.206,13.77 -31.553,13.77 -16.188,0 -28.535,-9.364 -28.535,-23.96 0,-14.321 12.347,-23.96 28.535,-23.96 12.347,0 24.694,4.682 31.553,13.77 z M 1013.099,260.87 c -20.852,0 -38.138,10.741 -46.917,21.206 v -17.901 h -28.809 v 133.021 h 28.809 v -93.087 c 6.859,-8.813 19.48,-17.626 34.022,-17.626 16.188,0 26.888,6.61 26.888,27.54 v 83.172 h 28.809 v -93.638 c 0,-27.265 -14.267,-42.687 -42.802,-42.687 z m 166.529,21.757 c -10.426,-14.321 -25.791,-21.757 -42.528,-21.757 -34.022,0 -58.716,26.714 -58.716,69.677 0,44.065 24.968,69.953 58.716,69.953 17.285,0 32.376,-8.262 42.528,-21.482 v 18.177 h 28.809 V 213.5 h -28.809 z m 0,74.359 c -6.311,9.915 -20.578,17.901 -34.022,17.901 -23.047,0 -37.589,-18.452 -37.589,-44.34 0,-25.613 14.542,-44.065 37.589,-44.065 13.444,0 27.712,7.987 34.022,17.901 z m 113.849,-96.116 c -21.126,0 -40.333,6.61 -55.697,21.482 l 12.072,20.104 c 11.249,-11.567 24.419,-17.075 39.235,-17.075 18.109,0 31.004,9.364 31.004,24.786 v 19.829 c -9.877,-11.292 -24.968,-17.075 -43.076,-17.075 -21.675,0 -45.82,12.669 -45.82,43.514 0,29.193 24.419,44.065 45.82,44.065 17.56,0 33.199,-6.334 43.076,-17.901 v 14.596 H 1348.9 V 308.79 c 0,-35.527 -25.791,-47.92 -55.423,-47.92 z m 26.614,106.031 c -6.859,9.088 -19.206,13.77 -31.553,13.77 -16.188,0 -28.535,-9.364 -28.535,-23.96 0,-14.321 12.347,-23.96 28.535,-23.96 12.347,0 24.693,4.682 31.553,13.77 z M 1448.207,213.5 h -68.044 v 183.695 h 68.318 c 57.069,0 95.481,-37.73 95.481,-91.985 10e-4,-53.704 -38.411,-91.71 -95.755,-91.71 z m 0,155.328 h -35.943 V 241.867 h 36.217 c 40.607,0 62.557,28.091 62.557,63.343 0,34.976 -23.047,63.618 -62.831,63.618 z M 1627.353,260.87 c -42.253,0 -68.044,31.396 -68.044,69.677 0,38.006 25.791,69.953 68.044,69.953 42.253,0 68.044,-31.947 68.044,-69.953 0,-38.281 -25.791,-69.677 -68.044,-69.677 z m 0,114.017 c -24.419,0 -38.138,-20.655 -38.138,-44.34 0,-23.409 13.719,-44.065 38.138,-44.065 24.693,0 38.138,20.655 38.138,44.065 -10e-4,23.685 -13.445,44.34 -38.138,44.34 z m 152.26,0 c -23.87,0 -40.058,-18.452 -40.058,-44.34 0,-25.888 16.188,-44.065 40.058,-44.065 12.896,0 23.047,4.957 30.455,15.423 L 1829,284.555 c -9.329,-12.669 -24.693,-23.685 -50.759,-23.685 -40.058,0 -68.318,29.468 -68.318,69.677 0,40.209 28.26,69.953 68.318,69.953 26.065,0 41.43,-11.292 50.759,-23.685 l -18.932,-17.901 c -7.408,10.465 -17.559,15.973 -30.455,15.973 z"
   id="path2"
   inkscape:connector-curvature="0"
   style="clip-rule:evenodd;fill-rule:evenodd" />
	</g>
</g></g><g
     transform="matrix(0.49988133,0,0,0.49988133,17.626984,15.896508)"
     id="g838"><path
       d="m 42.066381,-0.5326307 h -54.123915 c -0.930212,0 -1.684354,0.75414152 -1.684354,1.6843542 V 55.275638 c 0,0.930213 0.754142,1.684355 1.684354,1.684355 h 54.123915 c 0.930213,0 1.684354,-0.754142 1.684354,-1.684355 V 1.1517235 c 0,-0.93021268 -0.754141,-1.6843542 -1.684354,-1.6843542 z"
       id="path8"
       inkscape:connector-curvature="0"
       style="clip-rule:evenodd;fill:#55b76f;fill-rule:evenodd;stroke-width:0.11229028" /><path
       d="M 29.487961,9.6826407 V 20.352238 c -1.724779,-1.369716 -3.907028,-2.1882 -6.280732,-2.1882 -3.357367,0 -6.3316,1.637529 -8.16968,4.156761 -1.218237,1.669645 -1.93813,3.726016 -1.93813,5.951048 0,0.01134 -0.0049,0.0049 -0.01325,-0.01359 -0.0051,3.464717 -2.81523,6.272086 -6.2811816,6.272086 -3.4611233,0 -6.26781881,-2.799509 -6.28084449,-6.2576 v -0.04761 c 0.0129134,-3.458092 2.81960889,-6.257601 6.28084449,-6.257601 2.3543903,0 4.4050356,1.296167 5.4805516,3.213074 0.127899,-0.432093 0.425019,-1.358038 0.841391,-2.173378 0.361575,-0.70799 0.82859,-1.32132 1.0845,-1.634722 -1.845716,-1.987313 -4.4804947,-3.231602 -7.4066671,-3.231602 -5.5167092,0 -10.0005724,4.419745 -10.1054515,9.911414 h -0.00831 V 46.838147 H 0.52414291 V 36.168549 c 1.72477869,1.369717 3.90702799,2.188201 6.28061999,2.188201 3.3712911,0 6.3565281,-1.65078 8.1929231,-4.187866 0.0022,0.003 0.0046,0.0062 0.0069,0.0092 1.191288,-1.658639 1.894225,-3.69143 1.894225,-5.889288 0,-0.01696 0.01067,0.004 0.02875,0.05199 -2.25e-4,-0.02313 -0.0018,-0.04593 -0.0018,-0.06906 0,-3.469096 2.81231,-6.281406 6.281406,-6.281406 3.460225,0 6.266584,2.798274 6.280733,6.255355 v 0.05199 c -0.01415,3.457081 -2.820395,6.255467 -6.280733,6.255467 -2.355625,0 -4.406944,-1.297402 -5.482123,-3.215769 -0.120151,0.411095 -0.423335,1.372749 -0.853856,2.215824 -0.351019,0.687329 -0.800517,1.284152 -1.060694,1.60519 1.845379,1.981137 4.475779,3.221046 7.396786,3.221046 5.516709,0 10.000572,-4.419521 10.105339,-9.911301 h 0.0084 V 9.6826407 Z"
       id="path10"
       inkscape:connector-curvature="0"
       style="fill:#ffffff;stroke-width:0.11229028" /></g></g>
</svg>