<svg xmlns="http://www.w3.org/2000/svg" width="64" height="64" viewBox="0 0 3.277 3.277" preserveAspectRatio="xMidYMid"><path d="M3.085 1.465c-.168-.17-.415-.233-.644-.168-.04-.39-.368-.695-.767-.695a.77.77 0 0 0-.753.608c-.244-.078-.52-.02-.714.173-.276.276-.276.722 0 .998a1.11 1.11 0 0 0 .735.294H2.29c.262.001.545-.028.794-.276a.66.66 0 0 0 .001-.934zm-1.098.555c-.05.087-.236.36-.326.36-.047 0-.222-.087-.222-.15 0-.022.024-.045.037-.053.08-.053.17-.206.17-.29 0-.028-.015-.04-.036-.04-.027 0-.055.006-.082.006-.248 0-.362-.268-.362-.51 0-.34.264-.495.505-.495.257 0 .516.158.516.516 0 .245-.086.462-.2.654zm-.328-.857c-.056 0-.087.074-.087.14 0 .106.047.274.15.274.053 0 .08-.06.08-.12-.001-.09-.044-.294-.142-.294z" fill="#00a8e9"/></svg>