<svg xmlns="http://www.w3.org/2000/svg" xmlns:xlink="http://www.w3.org/1999/xlink" width="120" height="60"><g fill="#252c42"><path d="M609.3 2.4L595.6 4a1.58 1.58 0 0 0-1.6 1.6v16.5a1.58 1.58 0 0 0 1.6 1.6l13.7-1.6a1.58 1.58 0 0 0 1.6-1.6V4.1c0-.9-.7-1.7-1.6-1.7"/><use xlink:href="#B"/><path d="M564.4 31.7c-9.4 0-22.1 3.9-30.8 7.8l-.9-4.8c-.1-.8-.8-1.3-1.6-1.3L520 35a1.58 1.58 0 0 0-1.6 1.6v77.9a1.58 1.58 0 0 0 1.6 1.6h13.7a1.58 1.58 0 0 0 1.6-1.6V55.4c8-4 19.4-7.4 25-7.4 4.4 0 6 1.6 6 5.7v60.8a1.58 1.58 0 0 0 1.6 1.6h13.7a1.58 1.58 0 0 0 1.6-1.6V53.6c.1-14.6-6.3-21.9-18.8-21.9m229.2 1.6c-9.2.4-17.7 2.4-25.9 6.1l-.9-4.8c-.1-.8-.8-1.3-1.6-1.3l-11.1 1.6a1.58 1.58 0 0 0-1.6 1.6v77.9a1.58 1.58 0 0 0 1.6 1.6h13.7a1.58 1.58 0 0 0 1.6-1.6v-59c7.3-3.6 17.7-5.9 24.2-6.5.9-.1 1.6-.8 1.6-1.7V34.9a1.58 1.58 0 0 0-1.6-1.6m-184.3-1.6l-13.7 1.6a1.58 1.58 0 0 0-1.6 1.6v79.6a1.58 1.58 0 0 0 1.6 1.6h13.7a1.58 1.58 0 0 0 1.6-1.6V33.3a1.58 1.58 0 0 0-1.6-1.6m60.2 69.5c-.4-.3-.9-.3-1.3-.2-5.2 1.3-8.9 1.9-12.3 1.9-6 0-6.5-1.8-6.5-7.2V48h19.8c.8 0 1.5-.6 1.6-1.5l1.1-11.4c0-.5-.1-.9-.4-1.3-.3-.3-.8-.5-1.2-.5h-20.9V13.4c0-.5-.2-.9-.6-1.2s-.8-.5-1.3-.4l-13.7 2c-.8.1-1.4.8-1.4 1.6v18H620a1.58 1.58 0 0 0-1.6 1.6v11.4A1.58 1.58 0 0 0 620 48h12.4v50c0 13.7 6.6 19.8 21.4 19.8 5.8 0 11.9-1.1 17.2-3 .7-.3 1.2-1 1.1-1.8l-1.8-10.6c-.2-.6-.4-.9-.8-1.2"/><use xlink:href="#B" x="233.6"/><path d="M381 131.2l19.1-66.5c.2-.9.6-.9.9 0l14.1 49.7c.2.9 1.2 1.6 2.1 1.6h21.7a1.58 1.58 0 0 0 1.6-1.6l-3.3-13.1a1.58 1.58 0 0 0-1.6-1.6h-6.1c-.9 0-1.8-.7-2.1-1.6l-18.7-65.7c-.2-.9-1.2-1.6-2.1-1.6l-12.5 1.7c-.9 0-1.8.7-2.1 1.6L373.5 99c-.2.9-.6.9-.8 0L348.4 1.6c-.2-.9-1.1-1.6-2-1.6l-12.6 1.7c-.9 0-1.8.7-2 1.6L307.9 98c-.2.9-1.6 1.6-2.5 1.6h-5.1a1.58 1.58 0 0 0-1.6 1.6l-3.3 13.1a1.58 1.58 0 0 0 1.6 1.6h21.6c.9 0 1.8-.7 2-1.6l19-75.8c.2-.9.6-.9.8 0l23.9 94.1c.2.9 1.1 1.6 2 1.6l12.5-1.5c1 .1 2-.6 2.2-1.5"/></g><path d="M230 2.4L216.3 4a1.58 1.58 0 0 0-1.6 1.6v16.5a1.58 1.58 0 0 0 1.6 1.6l13.7-1.6a1.58 1.58 0 0 0 1.6-1.6V4.1c0-.9-.7-1.7-1.6-1.7M15.7 4.1l-14 1.6c-1 0-1.7.7-1.7 1.6v102.3a6.49 6.49 0 0 0 6.5 6.5H58a1.58 1.58 0 0 0 1.6-1.6v-12.6a1.58 1.58 0 0 0-1.6-1.6H20.6a3.33 3.33 0 0 1-3.3-3.3V5.7a1.58 1.58 0 0 0-1.6-1.6m80.9 27.6c-21.6 0-34 11.5-34 31.5v23c0 20 12.4 31.5 34 31.5s34-11.5 34-31.5v-23c-.1-20-12.5-31.5-34-31.5m0 70.9c-11.4 0-17-5.2-17-15.8v-24c0-10.7 5.6-15.8 17-15.8s17 5.2 17 15.8v24c-.1 10.6-5.6 15.8-17 15.8m73.1-70.9c-22 0-32.7 9.5-32.7 28.9v3.6c0 10.3 3.4 18.1 10 22.7-4.1 3.8-6.4 8.8-6.4 13.9 0 6.7 3 15 17 16.2l13 1.2 8.1.8c9.5.8 10.3 1.9 10.3 7 0 6.5 0 9.5-20.6 9.5-7.7 0-17.8-1.2-26.3-3.2h-.4c-.3 0-.6.1-.9.3-.4.2-.6.6-.7 1.1l-2 10.8c-.2.8.4 1.6 1.2 1.9 9.1 2.5 21.9 3.8 29.3 3.8 28.3 0 36.4-5.5 36.4-24.7 0-13-6.4-19.2-21.4-20.7l-12.1-1.2c-3.3-.3-6.3-.7-10.4-1.1-3.5-.3-3.7-1.3-3.7-2.9 0-2.5 2.1-4.7 4.6-6.8 2.3.3 4.9.4 7.7.4 21.2 0 32.8-10.2 32.8-28.8v-3.6c-.2-5.9-1.3-10.8-3.4-14.6l7.1-1.4c.8-.1 1.3-.8 1.3-1.6v-8a1.58 1.58 0 0 0-1.6-1.6h-22.6c-4-1.5-9.8-1.9-13.6-1.9m0 46.7c-12.6 0-16.5-3.3-16.5-14.2v-3.4c0-10.9 4.2-14.5 16.5-14.5 12.2 0 16.5 3.8 16.5 14.5v3.4c0 9.9-4.9 14.2-16.5 14.2M230 31.7l-13.7 1.6a1.58 1.58 0 0 0-1.6 1.6v79.6a1.58 1.58 0 0 0 1.6 1.6H230a1.58 1.58 0 0 0 1.6-1.6V33.3a1.58 1.58 0 0 0-1.6-1.6m60.9 68h-15.7c-13 0-16.7-3.2-16.7-14.6V61.8c0-11.4 3.7-14.7 16.7-14.7 5.9 0 9.9.6 15.5 1.8.5.1.9 0 1.3-.3s.6-.7.7-1.2l2.8-11.5c.1-.8-.4-1.5-1.1-1.7-4.6-1.5-12.8-2.5-19.5-2.5-23.4 0-33.4 9.2-33.4 30.6v25c0 15.9 3.8 28.8 33.1 28.8l12.2-.1c.9 0 1.8-1 2-1.9l3.3-13.1c.2-.9-.3-1.3-1.2-1.3" fill="#4275fa"/><defs ><path id="B" d="M492.3 86.7c0 10.7-5.6 15.8-17 15.8s-17-5.2-17-15.8v-24c0-10.7 5.6-15.8 17-15.8s17 5.2 17 15.8zm-17-55c-21.6 0-34 11.5-34 31.5v23c0 20 12.4 31.5 34 31.5s34-11.5 34-31.5v-23c0-20-12.4-31.5-34-31.5"/></defs></svg>