<svg xmlns="http://www.w3.org/2000/svg" width="120" height="60"><style><![CDATA[.C{clip-rule:evenodd}.D{fill:#100f0d}]]></style><defs><clipPath id="A"><path d="M2332.45 5723.53v37c0 20.44-16.57 37-37 37h-12.33c-20.44 0-37-16.57-37-37v-37h-37c-20.44 0-37-16.57-37-37v-12.33c0-20.44 16.57-37 37-37h37v-37c0-20.44 16.57-37 37-37h12.33c20.44 0 37 16.57 37 37v37h37c20.44 0 37 16.57 37 37v12.33c0 20.44-16.57 37-37 37z" class="C"/></clipPath><clipPath id="B"><path d="M-2297.97 261.46H12137.2v9623.42H-2297.97z"/></clipPath><clipPath id="C"><path d="M1534.22 5533.96l-387.92 2.36 190.5-1210.2h464.12l190.5 1210.2z" class="C"/></clipPath><clipPath id="D"><path d="M-2297.97 261.46H12137.2v9623.42H-2297.97z"/></clipPath><clipPath id="E"><path d="M1534.22 5533.96l-387.92 2.36 190.5-1210.2h367.14l190.5 1210.2z" class="C"/></clipPath><clipPath id="F"><path d="M-2297.97 261.46H12137.2v9623.42H-2297.97z"/></clipPath><clipPath id="G"><path d="M1035.47 5536.32h1000.97v111.602H1035.47z"/></clipPath><clipPath id="H"><path d="M1842.48 5829.28H1222.5l-72.73-167.4h765.44z" class="C"/></clipPath><clipPath id="I"><path d="M-2297.97 261.46H12137.2v9623.42H-2297.97z"/></clipPath><clipPath id="J"><path d="M2005.26 5194.53H1059.7l85.37-481.3 387.4 4.2 387.4-4.2z" class="C"/></clipPath><clipPath id="K"><path d="M-2297.97 261.46H12137.2v9623.42H-2297.97z"/></clipPath><clipPath id="L"><path d="M707.297 5228.36c78.582 0 142.293 63.7 142.293 142.3s-63.7 142.3-142.293 142.3S565 5449.24 565 5370.65c0-78.58 63.7-142.3 142.297-142.3z" class="C"/></clipPath><clipPath id="M"><path d="M-2297.97 261.46H12137.2v9623.42H-2297.97z"/></clipPath><clipPath id="N"><path d="M2188.83 4876.8c36.98 0 66.96 29.98 66.96 66.96s-29.98 66.96-66.96 66.96-66.95-29.98-66.95-66.96 29.97-66.96 66.95-66.96z" class="C"/></clipPath><clipPath id="O"><path d="M-2297.97 261.46H12137.2v9623.42H-2297.97z"/></clipPath><clipPath id="P"><path d="M933.293 4491.78c36.98 0 66.957 29.98 66.957 66.96s-29.977 66.96-66.957 66.96-66.965-29.98-66.965-66.96 29.98-66.96 66.965-66.96z" class="C"/></clipPath><clipPath id="Q"><path d="M-2297.97 261.46H12137.2v9623.42H-2297.97z"/></clipPath><clipPath id="R"><path d="M2987.25 4809.67c-11.38-21.8-27.04-40.78-46.94-56.9-19.9-16.1-43.14-29.23-69.68-39.34-26.56-10.13-53.27-16.93-80.13-20.4-26.88-3.48-52.95-3.18-78.22.95-25.3 4.1-46.8 12.47-64.5 25.13l19.92 207.65c18.33 6.32 41.38 12.8 69.2 19.44 27.82 6.62 56.43 11.38 85.82 14.22 29.4 2.85 57.2 2.5 83.45-.96 26.2-3.47 46.93-11.84 62.1-25.12 8.2-7.58 15.18-15.8 20.87-24.65 5.67-8.85 9.15-18.02 10.43-27.5 3.14-26.55-.96-50.73-12.33-72.53zM2698.04 5252c13.28 8.22 29.25 15.5 47.9 21.82a296.42 296.42 0 0 0 57.37 13.27c19.58 2.5 38.7 2.85 57.36.95 18.64-1.9 35.1-7.1 49.3-15.64 14.22-8.54 24.8-20.87 31.76-36.97 6.95-16.13 8.86-36.52 5.7-61.17-2.53-19.6-10.3-36.2-23.23-49.78-12.96-13.6-28.77-24.97-47.4-34.14-18.66-9.18-38.4-16.44-59.26-21.8-20.87-5.4-40.95-9.35-60.23-11.87-19.27-2.53-36.02-4.12-50.24-4.74l-27.98-.95zm391.6-308.15c-10.1 22.1-23.7 41.55-40.76 58.32-17.07 16.74-37.32 28.9-60.7 36.5 10.1 8.22 20.07 21.17 29.88 38.88 9.8 17.68 18.16 36.98 25.1 57.84 6.96 20.87 11.7 41.87 14.23 63.06 2.52 21.17 1.56 39.34-2.83 54.52-10.77 37.92-27.68 67.64-50.74 89.13-23.1 21.48-49.93 36.34-80.6 44.57-30.66 8.2-64.48 9.95-101.45 5.2-37-4.74-74.77-14.07-113.3-27.97 0 3.15.32 6.47.95 9.95.62 3.46.94 7.1.94 10.9 0 9.48-4.74 17.68-14.22 24.64s-20.4 11.06-32.7 12.33c-12.34 1.26-24.36-1.4-36.05-8.05-11.7-6.64-19.76-18.83-24.18-36.5l-15.16-177.3-16.13-185.87-17.07-186.3-17.06-177.8c1.9-17.07 6.63-30.35 14.23-39.82 7.58-9.5 16.43-15.2 26.54-17.07 10.1-1.9 20.7-.15 31.76 5.2s20.7 14.7 28.94 27.97c25.27-13.9 53.72-22.9 85.33-27.03 31.6-4.1 63.67-4.1 96.25 0 32.54 4.12 64.62 11.86 96.23 23.24 31.6 11.37 60.36 25.6 86.3 42.66 25.9 17.07 47.7 36.52 65.43 58.32 17.68 21.82 29.38 45.36 35.07 70.63 5.7 25.93 7.26 51.84 4.74 77.76-2.53 25.92-8.85 49.92-18.96 72.07z" class="C"/></clipPath><clipPath id="S"><path d="M-2297.97 261.46H12137.2v9623.42H-2297.97z"/></clipPath><clipPath id="T"><path d="M4014.62 4443.2c-3.48-20.86-8.38-42.82-14.7-65.9-6.33-23.06-13.75-44.1-22.27-63.06-8.54-18.96-18.02-34.27-28.44-45.98-10.44-11.7-21.67-16.6-33.67-14.7-9.5 1.28-15.5 7.3-18 18.02-2.54 10.76-2.54 24.04 0 39.83 2.5 15.8 7.4 33.67 14.7 53.58 7.26 19.9 16.12 39.67 26.55 59.26 10.44 19.6 22.28 38.4 35.56 56.4s27.16 33.03 41.7 45.04c3.17-3.8 4.6-13.27 4.27-28.45-.34-15.17-2.22-33.2-5.7-54.04m321.44 411.52c-8.53 9.47-18.96 14.84-31.3 16.1-12.32 1.27-24.82-5.68-37.45-20.86-8.23-15.17-18.66-29.7-31.3-43.6-12.65-13.92-25.77-26.56-39.36-37.93s-26.54-21.18-38.88-29.4c-12.3-8.23-21.96-14.23-28.9-18-2.53 20.2-3.96 42.02-4.26 65.42-.34 23.38.15 47.1 1.42 71.1 1.9 34.14 5.84 68.58 11.85 103.36 6 34.76 14.7 68.9 26.07 102.42 0 17.68-4.12 32.07-12.33 43.14-8.22 11.05-18.17 18-29.86 20.85-11.7 2.84-23.7 1.26-36.03-4.74s-22.92-16.92-31.77-32.7l-26.07-70.16c-9.8-25.93-20.87-52.32-33.18-79.18a803.95 803.95 0 0 0-41.25-78.23c-15.2-25.3-31.77-47.74-49.8-67.32-18-19.6-37.6-34.94-58.77-46-21.2-11.06-44.1-15.95-68.75-14.7-11.38 3.16-19.6 11.7-24.66 25.6s-8.05 31.3-9 52.15c-.96 20.85 0 43.77 2.83 68.74 2.85 24.96 6.64 49.78 11.4 74.43 4.74 24.66 9.96 48.04 15.63 70.17 5.7 22.12 11.06 40.78 16.13 55.94 7.58 18.32 7.58 33.68 0 46-7.6 12.33-18.02 20.54-31.28 24.66-13.28 4.1-27.2 3.93-41.73-.48-14.54-4.42-24.97-14.22-31.3-29.4-10.75-25.93-20.56-55-29.4-87.23-8.85-32.24-15.96-65.6-21.33-100.04-5.4-34.46-8.4-68.6-9.03-102.42-.03-2.2.08-4.3.07-6.48-13.8-36.75-26.92-64.52-39.4-83.1-16.13-24.03-34.32-34.46-54.53-31.3-8.87 3.8-14.7 12.63-17.53 26.55-2.87 13.9-3.8 30.96-2.87 51.2.96 20.2 3.34 43.12 7.12 68.74 3.8 25.6 8.52 52.15 14.2 79.64l35.1 161.68c-.63 22.1-7.12 39-19.45 50.72-12.32 11.68-29.55 16.26-51.66 13.75-15.17-6.32-26.4-14.55-33.67-24.66-7.28-10.1-13.13-23.07-17.54-38.87-2.54-8.22-6.33-24.66-11.38-49.32-5.07-24.63-11.53-52.94-19.44-84.85-7.9-31.94-17.23-65.27-27.97-100.04-10.75-34.76-22.76-66.23-36.03-94.34-13.28-28.13-27.82-50.72-43.6-67.8-15.8-17.07-32.88-24.03-51.2-20.86-10.12 1.9-16.6 12.32-19.43 31.28-2.85 18.97-3.33 42.35-1.43 70.17 1.9 27.8 5.7 58.3 11.38 91.5l17.54 94.35 16.6 78.7 10.43 45.5c0 18.33-4.13 33.02-12.34 44.1-8.22 11.05-18.17 18-29.86 20.86-11.7 2.84-23.7 1.27-36.03-4.74-12.33-6.02-22.92-16.92-31.77-32.7-3.17-17.07-7.28-36.83-12.33-59.26l-14.7-69.22-13.28-69.7c-4.1-22.76-7.1-42.67-9-59.74l-4.26-48.82c-1.58-19.3-2.38-39.68-2.38-61.16a430.2 430.2 0 0 1 4.76-64c3.15-21.2 8.83-40.63 17.06-58.32 8.2-17.7 19.74-32.23 34.6-43.6 14.85-11.4 33.66-17.7 56.42-18.97 23.37-1.25 43.76.47 61.15 5.22 17.4 4.74 33.2 12.17 47.42 22.3 14.2 10.1 27.16 22.1 38.87 36.02 11.68 13.9 23.23 29.06 34.6 45.5 10.74-24.03 24.65-42.67 41.72-55.95 17.07-13.26 35.1-21.18 54.04-23.7 18.96-2.52 38.26.14 57.85 8.06 19.6 7.9 37.28 21.33 53.1 40.3 10.4 11.64 20.23 24.85 29.43 39.47 3.92-6.84 8.08-13.44 12.76-19.55 15.5-20.24 36.52-34.14 63.06-41.73 28.44-7.58 56.24-8.86 83.44-3.8 27.18 5.04 53.1 14.22 77.75 27.5s47.56 29.22 68.75 47.9c21.17 18.64 39.65 38.06 55.46 58.3-.64-14.54-.95-28.3-.95-41.24 0-12.97-.3-27.03-.94-42.2-31.62-22.13-61.47-48.68-89.6-79.64-28.14-30.97-52.8-64-73.97-99.1-21.18-35.08-37.78-70.64-49.77-106.66-12-36.06-17.87-69.7-17.55-101 .3-31.3 7.74-58.62 22.28-82 14.53-23.4 38.24-40.15 71.12-50.26 34.14-10.76 64.15-11.06 90.1-.95 25.9 10.12 48.5 26.87 67.78 50.25 19.3 23.4 35.08 51.67 47.42 84.86 12.32 33.2 22.12 67.8 29.4 103.83 7.26 36.02 11.84 71.45 13.75 106.2 1.9 34.78 1.9 65.77 0 92.94 54.35 22.75 98.9 51.5 133.7 86.3 34.76 34.73 63.52 71.4 86.3 109.98 6.95 9.48 9.3 20.85 7.12 34.13-2.23 13.28-7.6 24.65-16.13 34.14" class="C"/></clipPath><clipPath id="U"><path d="M-2297.97 261.46H12137.2v9623.42H-2297.97z"/></clipPath><clipPath id="V"><path d="M5532.2 4915.4c1.88 14.53 4.73 29.87 8.52 46s8.54 31.77 14.23 46.94c5.68 15.17 12.32 28.28 19.9 39.35 7.6 11.05 15.65 18.95 24.18 23.7 8.54 4.73 17.2 4.26 26.08-1.4 9.48-5.7 15.3-17.7 17.54-36.03 2.2-18.36 0-37.94-6.64-58.8-6.65-20.87-18.5-40.45-35.56-58.8-17.06-18.34-40.15-30.33-69.22-36.03-1.27 8.83-.95 20.54.96 35.08m328.53-38.87c-10.43 3.15-20.37 3.47-29.86.94-9.48-2.53-15.5-9.16-18-19.92-5.08-20.22-13.13-40.92-24.2-62.1s-24.65-41.25-40.76-60.23c-16.1-18.95-34.3-35.7-54.52-50.24-20.24-14.54-41.4-24.97-63.54-31.3-22.14-6.96-40.46-7.74-55-2.36-14.55 5.35-26.08 14.53-34.6 27.48-8.53 12.96-14.7 28.6-18.48 46.94-3.8 18.33-6.02 37.3-6.64 56.9 36.02-2.54 68.1 3.93 96.24 19.44 28.1 15.47 51.98 36.03 71.6 61.62 19.58 25.6 34.43 54.37 44.55 86.3 10.1 31.9 15.8 63.68 17.07 95.3.62 29.7-3.8 54.83-13.27 75.38-9.47 20.54-22.3 36.52-38.4 47.9s-34.6 18.02-55.46 19.9c-20.85 1.9-42.05-.96-63.53-8.53-25.93-8.86-47.88-23.23-65.9-43.15-18.03-19.9-33.05-43-45.04-69.22-12.02-26.23-21.5-54.5-28.45-84.86-6.97-30.34-12.02-60.2-15.17-89.6-2.86-26.4-4.37-51.62-4.9-75.96l-4.1-9.38c-9.8-22.45-21.2-44.42-34.14-65.9-12.96-21.5-27.34-39.52-43.13-54.05-15.8-14.54-32.25-19.6-49.32-15.16-10.1 2.5-15.64 14.22-16.58 35.07-.95 20.87.14 46.78 3.3 77.76l10.9 100.52c4.1 36.02 6.15 70.46 6.15 103.34 0 28.45-5.37 55.78-16.1 82.02-10.76 26.22-25.46 48.04-44.1 65.42-18.65 17.4-40.3 28.93-64.94 34.6-24.66 5.7-51.2 1.9-79.65-11.37-28.45-13.28-51.05-31.92-67.8-55.95-16.77-24.03-32.1-49.3-46-75.85-5.07 20.23-12.5 39.02-22.3 56.4-9.8 17.4-21.8 32.55-36.03 45.52-14.22 12.95-30.2 23.06-47.88 30.34-17.7 7.25-36.35 10.9-55.95 10.9-18.96 0-36.5-3.65-52.62-10.9-16.12-7.28-30.82-16.6-44.1-27.97-13.26-11.4-25.28-24.18-36.03-38.4-10.74-14.22-20.24-28.3-28.44-42.2-1.28 16.44-2.7 30.8-4.26 43.15-1.6 12.32-4.45 22.75-8.55 31.28-4.1 8.54-9.95 15-17.54 19.44-7.58 4.4-18.33 6.64-32.22 6.64-6.97 0-13.93-1.42-20.87-4.26-6.97-2.85-13.14-6.8-18.5-11.86-5.38-5.07-9.48-11.22-12.32-18.5-2.86-7.26-3.64-15.65-2.38-25.13.63-6.96 2.38-15.32 5.22-25.13 2.84-9.8 5.53-22.6 8.06-38.4 2.5-15.8 4.58-34.93 6.16-57.36 1.58-22.44 2.05-49.94 1.42-82.5-.64-32.56-3-70.64-7.1-114.25-4.13-43.62-10.6-94.2-19.44-151.7-1.26-13.28 3.8-24.03 15.18-32.26 11.37-8.2 24.32-12.94 38.86-14.22 14.53-1.26 28.3 1.28 41.25 7.58 12.96 6.34 20.4 17.4 22.3 33.2 1.9 29.7 5.53 61.3 10.9 94.82a1315.6 1315.6 0 0 0 19.9 99.55c7.9 32.87 16.9 64.16 27.03 93.88 10.1 29.7 21.33 55.94 33.66 78.7s25.13 40.92 38.4 54.52c13.28 13.58 27.17 20.38 41.73 20.38 17.7 0 31.43-8.05 41.25-24.16 9.77-16.14 16.73-36.85 20.86-62.1 4.1-25.3 6-52.97 5.68-82.98-.33-30.03-1.58-58.94-3.8-86.75-2.2-27.83-4.73-52.63-7.58-74.44l-6.16-45.04c0-14.54 5.53-26.06 16.6-34.6 11.05-8.52 23.37-13.6 36.98-15.16 13.6-1.6 26.38.95 38.4 7.6 12 6.64 18.96 17.84 20.86 33.66 6.3 45.5 15.02 91.16 26.07 137s23.7 86.9 37.94 123.27c14.22 36.35 30 66.06 47.4 89.14 17.38 23.05 35.87 34.6 55.48 34.6 10.1 0 17.85-6.96 23.22-20.85 5.36-13.9 8.06-32.87 8.06-56.9 0-17.7-1.42-35.88-4.26-54.53-2.85-18.65-6.16-37.93-9.96-57.84-3.8-19.92-7.1-40.3-9.96-61.16-2.84-20.87-4.26-42.66-4.26-65.42 0-15.8 1.57-34.14 4.74-55 3.15-20.85 9.16-40.62 18-59.26 8.85-18.65 21-34.45 36.52-47.4 15.48-12.96 35.22-19.44 59.25-19.44 36.03 0 67.95 7.74 95.77 23.23 27.8 15.48 51.68 35.7 71.6 60.67 1.04 1.3 1.97 2.7 2.98 4 1.53-3.7 2.87-7.6 4.6-11.1 13.6-27.82 32.08-49.3 55.48-64.5 23.37-15.16 50.87-23.53 82.5-25.12 31.6-1.57 66.04 4.28 103.36 17.55 27.8 10.1 51.98 22.76 72.52 37.92 20.53 15.17 39.02 33.67 55.47 55.47 16.44 21.8 31.44 46.94 45.04 75.37 13.6 28.47 27.34 61 41.24 97.7 2.53 10.1.16 19.1-7.1 27-7.27 7.9-16.1 13.43-26.56 16.6" class="C"/></clipPath><clipPath id="W"><path d="M-2297.97 261.46H12137.2v9623.42H-2297.97z"/></clipPath><clipPath id="X"><path d="M6376.1 4982.25c-3.17-18.67-7.43-39.22-12.8-61.64-5.4-22.45-12.18-45.68-20.4-69.7-8.22-24.03-18.34-45.68-30.34-64.94-12.02-19.3-25.76-34.6-41.25-46-15.5-11.38-33.34-16.1-53.58-14.22-10.1 1.26-17.86 8.2-23.23 20.86-5.37 12.64-8.2 28.77-8.53 48.36s1.4 41.08 5.2 64.48a399.08 399.08 0 0 0 17.55 68.74c7.9 22.43 17.54 43.15 28.9 62.1 11.38 18.96 24.5 33.66 39.36 44.1 14.85 10.43 31.13 15.32 48.83 14.7 17.7-.64 36.65-9.48 56.9-26.55l-6.64-40.3m337.07-72.54c-9.8 5.05-19.9 6.15-30.33 3.3-10.42-2.84-17.86-12.5-22.28-28.92-2.52-17.7-8.22-38.55-17.05-62.58-8.87-24.02-19.78-46.8-32.73-68.27-12.97-21.5-27.82-39.35-44.56-53.57-16.76-14.23-34.6-20.72-53.57-19.43-15.8 1.25-26.9 9.3-33.2 24.16-6.33 14.87-9.65 33.5-9.96 55.95-.32 22.42 1.9 47.72 6.63 75.85 4.75 28.13 10.44 56.1 17.07 83.93 6.63 27.8 13.43 54.52 20.4 80.1l17.07 64.95c5.05 15.8 3.46 29.23-4.75 40.3-8.2 11.04-18.5 18.96-30.8 23.7-12.34 4.75-24.83 6-37.47 3.8s-20.84-9-24.65-20.37c-37.3 32.24-73.18 49.62-107.6 52.15-34.46 2.52-66.24-5.07-95.3-22.76-29.08-17.7-54.84-43.3-77.28-76.8-22.44-33.52-40.6-70-54.52-109.52-13.9-39.5-22.6-79.8-26.07-120.9-3.5-41.1-.8-78.55 8.06-112.37 8.85-33.8 24.48-61.47 46.94-82.95 22.42-21.5 52.93-32.25 91.5-32.25 17.07 0 33.5 3.47 49.3 10.43 15.8 6.97 30.34 15.18 43.62 24.65 13.26 9.5 24.96 19.45 35.1 29.88 10.1 10.43 18 19.1 23.7 26.08 4.4-22.76 11.7-42.06 21.8-57.85 10.1-15.8 21.65-28.78 34.6-38.87 12.94-10.1 26.54-17.54 40.76-22.3 14.23-4.74 27.98-7.1 41.25-7.1 29.7 0 57.5 10.12 83.45 30.35 25.9 20.22 49.14 45.04 69.7 74.42 20.54 29.4 37.45 60.38 50.72 92.93 13.28 32.55 22.12 61.47 26.55 86.77 4.42 9.48 3.63 19.43-2.37 29.85-6.02 10.43-13.9 18.17-23.72 23.25" class="C"/></clipPath><clipPath id="Y"><path d="M-2297.97 261.46H12137.2v9623.42H-2297.97z"/></clipPath><clipPath id="Z"><path d="M8419.92 4386.3c-5.37-21.5-13.75-39.67-25.13-54.5-11.36-14.86-25.6-22.6-42.67-23.25-10.74-.62-18.96 5.07-24.65 17.08-5.68 12.02-9.63 27.5-11.84 46.45-2.23 18.97-3.18 40.16-2.86 63.55.32 23.37 1.27 46.45 2.86 69.2 1.56 22.76 3.46 43.95 5.7 63.53l5.2 45.5c21.5-2.52 39.37-11.84 53.57-27.97 14.24-16.1 25.13-35.24 32.72-57.36s12-46 13.28-71.6c1.25-25.6-.8-49.13-6.17-70.63m-343.24 0c-5.37-21.5-13.75-39.67-25.13-54.5-11.37-14.86-25.6-22.6-42.67-23.25-10.75-.62-18.96 5.07-24.65 17.08-5.7 12.02-9.65 27.5-11.85 46.45-2.23 18.97-3.17 40.16-2.85 63.55.3 23.37 1.26 46.45 2.85 69.2 1.57 22.76 3.47 43.95 5.7 63.53l5.2 45.5c21.5-2.52 39.37-11.84 53.57-27.97 14.22-16.1 25.13-35.24 32.72-57.36s12-46 13.28-71.6c1.25-25.6-.8-49.13-6.17-70.63m-352.25 538.56c-.64-15.15-2.07-28.6-4.27-40.28-2.22-11.72-5.22-19.13-9-22.3-6.96 3.8-15.5 13.58-25.6 29.4-10.12 15.8-18 33.67-23.7 53.57-5.68 19.92-7.44 39.5-5.2 58.8 2.2 19.28 12.17 34.28 29.86 45.04 6.95 3.8 12.95 2.37 18.02-4.27 5.06-6.64 9.16-16.28 12.34-28.92 3.15-12.65 5.35-27.18 6.63-43.6 1.26-16.45 1.57-32.24.95-47.43m-83.92-189.16c-9.8-10.42-20.72-19.42-32.7-27-12.02-7.6-24.34-13.28-36.98-17.07-12.66-3.8-24.03-4.75-34.14-2.84-28.45 5.67-50.25 18.02-65.4 36.97-15.2 18.97-24.83 41.24-28.94 66.84-4.1 25.6-3.64 52.96 1.44 82.03 5.04 29.07 13.56 56.1 25.6 81.06 12.02 24.97 26.56 46.47 43.62 64.48 17.06 18.02 35.7 29.23 55.95 33.67-7.6-32.24-10.12-65.6-7.6-100.03 2.53-34.45 10.76-66.85 24.66-97.2 8.84-18.36 19.44-35.1 31.75-50.25 12.34-15.2 27.35-28.15 45.06-38.9-5.07-10.75-12.5-21.34-22.3-31.77m1049.18 179.7c1.9 14.53 4.72 29.87 8.52 46 3.8 16.1 8.55 31.75 14.22 46.92 5.7 15.18 12.34 28.3 19.92 39.35 7.6 11.06 15.65 18.97 24.17 23.7 8.55 4.74 17.23 4.27 26.1-1.42 9.47-5.7 15.32-17.7 17.54-36.03 2.2-18.34 0-37.92-6.63-58.8-6.64-20.86-18.5-40.46-35.56-58.78-17.06-18.36-40.15-30.35-69.22-36.04-1.28 8.84-.95 20.53.95 35.08m382.12 0c1.9 14.53 4.74 29.87 8.53 46 3.8 16.1 8.54 31.75 14.23 46.92 5.7 15.18 12.3 28.3 19.9 39.35 7.6 11.06 15.65 18.97 24.18 23.7 8.54 4.74 17.22 4.27 26.08-1.42 9.48-5.7 15.3-17.7 17.54-36.03 2.2-18.34 0-37.92-6.65-58.8-6.64-20.86-18.48-40.46-35.55-58.78-17.06-18.36-40.15-30.35-69.22-36.04-1.26 8.84-.95 20.53.95 35.08m355.1-55.47c-7.27 7.9-16.12 13.42-26.55 16.6-10.42 3.15-20.37 3.46-29.87.94-9.48-2.53-15.5-9.17-18-19.9-5.07-20.24-13.12-40.94-24.18-62.1-11.06-21.2-24.65-41.27-40.77-60.23-16.1-18.95-34.3-35.72-54.5-50.25-20.25-14.55-41.42-24.98-63.53-31.28-22.15-6.97-40.48-7.76-55-2.38-14.55 5.36-26.08 14.53-34.6 27.5-8.53 12.97-14.68 28.6-18.5 46.94-3.8 18.33-6 37.3-6.64 56.9 36.04-2.54 68.12 3.92 96.25 19.43 28.1 15.5 52 36.04 71.6 61.64 19.58 25.6 34.43 54.35 44.55 86.27 10.1 31.93 15.8 63.7 17.07 95.3.6 29.7-3.8 54.84-13.28 75.4-9.47 20.53-22.28 36.5-38.4 47.87-16.12 11.4-34.6 18.02-55.5 19.93-20.84 1.9-42.04-.97-63.52-8.53-25.92-8.87-47.88-23.25-65.88-43.15-18.03-19.93-33.05-43-45.05-69.22-12.02-26.25-21.5-54.52-28.46-84.87-6.96-30.34-12-60.2-15.16-89.6-3.07-28.52-4.74-55.82-5.1-81.95-2.4-5.2-4.95-10.44-7.7-15.7-11.06-21.2-24.65-41.27-40.76-60.23a304.75 304.75 0 0 0-54.52-50.25c-20.24-14.55-41.4-24.98-63.53-31.28-22.14-6.97-40.47-7.76-55-2.38-14.54 5.36-26.07 14.53-34.6 27.5-8.52 12.97-14.7 28.6-18.48 46.94-3.8 18.33-6.02 37.3-6.64 56.9 36.02-2.54 68.1 3.92 96.25 19.43 28.1 15.5 51.97 36.04 71.58 61.64 19.6 25.6 34.44 54.35 44.56 86.27 10.1 31.93 15.8 63.7 17.07 95.3.63 29.7-3.8 54.84-13.27 75.4-9.5 20.53-22.3 36.5-38.4 47.87-16.12 11.4-34.6 18.02-55.47 19.93-20.86 1.9-42.04-.97-63.52-8.53-25.94-8.87-47.9-23.25-65.9-43.15-18.02-19.93-33.05-43-45.04-69.22-12-26.25-21.5-54.52-28.45-84.87-6.96-30.34-12-60.2-15.16-89.6-1.8-16.58-3-32.65-3.88-48.43l-18.42-15.57c-21.8-17.7-44.72-33.65-68.73-47.9-24.04-14.23-49-25.92-74.9-35.1-25.93-9.16-52.48-14.7-79.65-16.6l58.8 629.6c3.8 13.28 1.88 24.96-5.7 35.07-7.6 10.12-17.4 17.07-29.4 20.86-12 3.8-24.8 3.48-38.4-.93-13.6-4.44-24.8-14.56-33.65-30.35-4.43-24.03-9-56.9-13.74-98.6l-14.23-136.54-14.22-152.65-12.77-152.83-16.63-14.06c-21.8-17.7-44.74-33.65-68.74-47.9-24.04-14.23-49-25.92-74.9-35.1-25.93-9.16-52.5-14.7-79.66-16.6l58.8 629.6c3.8 13.28 1.9 24.96-5.68 35.07-7.6 10.12-17.4 17.07-29.4 20.86-12 3.8-24.8 3.48-38.4-.93-13.6-4.44-24.8-14.56-33.65-30.35-4.44-24.03-9.02-56.9-13.74-98.6l-14.23-136.54-14.24-152.65-12.52-149.64c-9.93-4.6-20.76-8.65-32.5-12.04-12.02-3.5-25.6-5.54-40.77-6.17 2.53 11.4 4.57 24.04 6.16 37.94 1.57 13.9 2.85 28.44 3.8 43.62.95 15.15 1.25 30.34.95 45.5-.33 15.2-1.1 29.08-2.36 41.73-3.2 27.17-9.02 52.93-17.54 77.28-8.55 24.32-20.08 44.7-34.6 61.16-14.56 16.43-32.73 27.5-54.54 33.17-21.8 5.7-47.26 3.8-76.32-5.67-43 5.67-81.7 1.7-116.16-11.86-34.46-13.6-64.33-33.35-89.6-59.26-25.28-25.93-45.98-56.42-62.1-91.5-16.14-35.07-26.88-71.12-32.26-108.08-2.28-15.68-3.38-31.28-3.7-46.84-9.8-20.05-20.5-37.56-32.32-52.25-16.74-20.86-34.13-37.93-52.14-51.2-18.02-13.28-35.88-23.4-53.57-30.35-17.7-6.96-33.5-11.7-47.4-14.22-16.44-3.16-32.25-3.48-47.4-.94-15.16 2.5-29.1 9.8-41.7 21.8-10.13 8.85-17.87 23.08-23.24 42.67-5.37 19.6-8.53 41.87-9.5 66.85-.94 24.98 0 51.05 2.85 78.23s7.73 52.94 14.7 77.27c6.96 24.34 15.8 46.15 26.56 65.44 10.73 19.26 23.36 33.02 37.93 41.24 8.2-1.28 13.28-6.16 15.16-14.7 1.9-8.54 2.37-18.66 1.43-30.35-.95-11.7-2.38-23.7-4.27-36.03-1.9-12.33-2.84-22.6-2.84-30.8 3.16-17.07 9.3-30.35 18.48-39.84 9.15-9.48 19.46-15.02 30.82-16.6 11.38-1.58 22.6 1.1 33.68 8.07 11.03 6.93 20.05 18 27 33.18.62-.63 1.57-.94 2.84-.94l13.28 120.4c3.8 16.44 1.25 30.97-7.6 43.6-8.84 12.65-20.53 19.93-35.06 21.82-18.35 26.54-43.16 40.6-74.45 42.2s-63.38-8.7-96.24-30.8c-20.23-14.56-38.08-34.6-53.57-60.2-15.5-25.6-28.14-54.05-37.93-85.33-9.82-31.3-16.75-64.34-20.85-99.1-4.12-34.76-4.9-68.58-2.38-101.44 2.5-32.88 8.37-63.86 17.54-92.92 9.15-29.1 21.96-53.43 38.4-73 13.9-17.07 29.7-29.57 47.4-37.47s36.2-12.78 55.47-14.7c19.3-1.88 38.4-1.1 57.4 2.38 18.95 3.45 36.97 8.35 54.03 14.7 22.12 8.2 44.9 18.65 68.28 31.3 23.37 12.63 45.82 27.8 67.33 45.52 11.3 9.3 22.17 19.46 32.7 30.35 4.8-11.88 10.15-23.4 16.6-34.15 17.07-28.44 40.13-51.52 69.22-69.22 29.06-17.7 64.8-26.2 107.14-25.6 45.52.63 87.55 12.15 126.1 34.6 38.56 22.42 70.18 55.47 94.84 99.08 36.92 0 73.24 6.08 108.95 18.17l-.88-11.54c-2.5-33.5-3.8-56.25-3.8-68.27-.6-20.86-2.03-46.6-4.25-77.27-2.2-30.66-3.64-62.9-4.26-96.7-.63-33.82.62-67.96 3.8-102.42 3.16-34.44 9.8-65.74 19.9-93.88 10.1-28.1 24.47-51.97 43.13-71.58 18.65-19.6 43.15-31.3 73.5-35.08 32.23-4.4 60.04 1.27 83.44 17.07 23.37 15.8 42.34 37.44 56.9 64.94 14.53 27.5 24.8 59.27 30.8 95.3 6 36.02 7.74 72.2 5.23 108.57-2.54 36.35-9.18 70.64-19.92 102.86-10.76 32.25-25.62 58.8-44.57 79.67 11.38 3.15 24.97 9.14 40.78 18 15.78 8.84 32.07 18.8 48.83 29.87l12.27 8.37c-1.53-22.4-2.3-38.38-2.3-47.73-.63-20.86-2.06-46.6-4.28-77.27-2.2-30.66-3.63-62.9-4.26-96.7-.62-33.82.63-67.96 3.8-102.42 3.16-34.44 9.8-65.74 19.9-93.88 10.1-28.1 24.5-51.97 43.14-71.58 18.64-19.6 43.15-31.3 73.5-35.08 32.23-4.4 60.04 1.27 83.44 17.07s42.34 37.44 56.9 64.94c14.54 27.5 24.8 59.27 30.8 95.3a464.02 464.02 0 0 1 5.22 108.57c-2.54 36.35-9.18 70.64-19.9 102.86-10.76 32.25-25.6 58.8-44.58 79.67 11.4 3.15 24.97 9.14 40.78 18 15.8 8.84 32.07 18.8 48.84 29.87 8.7 5.74 17.35 11.68 25.98 17.78 3.26-30.92 10.26-58.03 21.4-80.84 13.6-27.83 32.08-49.3 55.47-64.5 23.4-15.15 50.9-23.54 82.5-25.1 31.6-1.57 66.04 4.26 103.36 17.54 27.8 10.1 51.97 22.75 72.52 37.92 20.53 15.18 39.02 33.67 55.47 55.46.94 1.27 1.85 2.64 2.77 3.92 2.93-8.86 6.17-17.36 10.04-25.24 13.6-27.83 32.08-49.3 55.47-64.5 23.37-15.15 50.88-23.54 82.5-25.1 31.6-1.57 66.05 4.26 103.36 17.54 27.8 10.1 52 22.75 72.54 37.92 20.52 15.18 39.02 33.67 55.45 55.46 16.44 21.83 31.44 46.96 45.04 75.4 13.6 28.45 27.34 61 41.25 97.67 2.53 10.1.15 19.1-7.1 27.02" class="C"/></clipPath><clipPath id="a"><path d="M-2297.97 261.46H12137.2v9623.42H-2297.97z"/></clipPath></defs><g transform="matrix(1.42796 0 0 1.42796 -7.330868 -964.14089)"><g transform="matrix(.012849 0 0 -.012849 26.365039 755.74948)"><g clip-path="url(#A)"><g clip-path="url(#B)"><path d="M2111.94 5503.03h354.66v354.66h-354.66z" fill="#f9dd05"/></g></g><g clip-path="url(#C)"><g clip-path="url(#D)"><path d="M1086.15 4265.97h965.402v1330.5H1086.15z" fill="#f68313"/></g></g><g clip-path="url(#E)"><g clip-path="url(#F)"><path d="M1086.15 4265.97h868.43v1330.5h-868.43z" fill="#f9dd05"/></g></g><g clip-path="url(#G)"><path d="M975.32 5476.17h1121.26v231.898H975.32z" fill="#fff"/></g></g><path d="M40.004 684.277h12.194v-.766H40.004zm12.862.668h-13.53v-2.102h13.53v2.102" class="D"/><g transform="matrix(.012849 0 0 -.012849 26.365039 755.74948)" clip-path="url(#H)"><g clip-path="url(#I)"><path d="M1089.62 5601.72h885.738v287.703H1089.62z" fill="#fff"/></g></g><path d="M41.648 682.664h8.818l-.645-1.484h-7.53zm9.835.667H40.63l1.225-2.82h8.404l1.225 2.82" fill="#12110f"/><path d="M42.937 699.828h6.283l2.342-14.88-5.486.028-5.482-.028zm6.854.667h-7.424l-2.553-16.22 6.265.032 6.266-.032-2.553 16.22" class="D"/><g transform="matrix(.012849 0 0 -.012849 26.365039 755.74948)" clip-path="url(#J)"><g clip-path="url(#K)"><path d="M999.563 4653.1h1065.85v601.578H999.563z" fill="#fff"/></g></g><path d="M46.053 694.8l4.702.05.978-5.514H40.38l.978 5.514zm5.26.724l-5.26-.057-5.254.057-1.216-6.855H52.53l-1.216 6.855" class="D"/><g transform="matrix(.012849 0 0 -.012849 26.365039 755.74948)"><g clip-path="url(#L)"><g clip-path="url(#M)"><path d="M707.297 5429.25c-32.3 0-58.598-26.3-58.598-58.6s26.3-58.6 58.598-58.6 58.594 26.3 58.594 58.6-26.3 58.6-58.594 58.6zm0-284.6c-124.62 0-225.996 101.38-225.996 226s101.375 226 225.996 226 225.996-101.38 225.996-226c0-124.6-101.38-226-225.996-226" fill="#f1f1f1"/></g></g><g clip-path="url(#N)"><g clip-path="url(#O)"><path d="M2061.73 4816.66h254.2v254.22h-254.2z" fill="#f1f1f1"/></g></g><g clip-path="url(#P)"><g clip-path="url(#Q)"><path d="M806.184 4431.63H1060.4v254.223H806.184z" fill="#f46c35"/></g></g></g></g><g transform="matrix(.013459 0 0 -.013459 -20.572415 115.027755)" class="D"><g clip-path="url(#R)"><g clip-path="url(#S)"><path d="M2477.66 4532.12h692.262v950.05H2477.66z"/></g></g><g clip-path="url(#T)"><g clip-path="url(#U)"><path d="M3063.63 4084.6h1349.5v1140.03h-1349.5z"/></g></g><g clip-path="url(#V)"><g clip-path="url(#W)"><path d="M4463 4488.52h1492.54v760.66H4463z"/></g></g><g clip-path="url(#X)"><g clip-path="url(#Y)"><path d="M6010.58 4512h791.63v713.402h-791.63z"/></g></g><g clip-path="url(#Z)"><g clip-path="url(#a)"><path d="M6854.02 4123.7h2641.13v1354.17H6854.02z"/></g></g></g></svg>