<svg xmlns="http://www.w3.org/2000/svg" width="120" height="60" viewBox="-66.809 -112.76 120 60"><path d="M-37.27-92.998c-.73-1.822-2.508-3.8-5.838-3.52-4.242.46-5.564 4.527-4.923 6.952-1.7-1.144-4.563-1.647-7.07.5-3.238 3.246-1.506 7.635.274 8.688-1.962-.182-5.062 1.144-5.748 4.6-.73 4.305 2.552 6.815 5.748 6.815H-19.4c3.695 0 5.746-3.197 5.516-6.212-.363-3.935-3.963-5.445-5.927-5.12 1.64-.916 3.833-5.216.5-8.597-2.645-2.516-6.018-1.6-7.203-.503.64-2.102-.4-6.447-4.7-7.134a7.71 7.71 0 0 0-.854-.051c-3.275 0-4.748 2.395-5.2 3.572" fill="#fff"/><path d="M-54.513-88.38c-1.87 1.694-2.552 5.53.82 7.775l13.455 9.23-6.524-14.946c-1.367-3.527-5.107-4.296-7.752-2.06" fill="#f37021"/><path d="M-42.93-95.647c-2.187.045-5.47 2.65-4 6.626l6.748 15.913 2.37-16.738c.55-4.16-2.6-6.08-5.1-5.802" fill="#cc004c"/><path d="M-36.77-90.483h1.276s.68 0 .774.32c-.502.4-1.87.46-1.687 2.652l2.145 14.4 6.7-15.955c1.37-3.562-1.506-6.538-4.06-6.63l-.363-.016c-2.3 0-4.916 1.665-4.788 5.225" fill="#6460aa"/><path d="M-27.83-86.185l-6.338 14.767 13.45-9.28c3.1-2.2 2.6-5.715.865-7.453-.728-.818-2.064-1.45-3.48-1.45-1.672 0-3.46.887-4.5 3.416" fill="#0089d0"/><path d="M-22.223-78.596l-12.632 8.824H-19.3c3.2 0 5.242-3.3 4.33-6.3-.6-1.898-2.417-3.388-4.514-3.4-.883 0-1.82.266-2.738.876" fill="#0db14b"/><path d="M-54.876-69.773h15.325l-12.635-8.824c-2.92-1.876-6.2-.778-7.386 2.334-1.004 3.563 1.503 6.5 4.697 6.5" fill="#fcb711"/><path d="M-12.18-82.806c0 1.905 1.558 5.373 7.505 5.373 5.483 0 7.215-2.516 7.215-3.67h-4.245S-1.907-79.58-4.3-79.58s-3.044-2-3.044-3.157.648-3.044 3.044-3.044 2.596 1.327 2.596 1.327H2.54c0-1.155-1.27-3.636-7.215-3.636s-7.505 3.694-7.505 5.282m44.522.001c0 1.905 1.56 5.373 7.505 5.373 5.483 0 7.215-2.516 7.215-3.67H42.82s-.203 1.524-2.598 1.524-3.045-2-3.045-3.157.65-3.044 3.045-3.044 2.598 1.327 2.598 1.327h4.242c0-1.155-1.27-3.636-7.215-3.636s-7.505 3.694-7.505 5.282M14.144-87.9v6.45l-4.94-6.45H3.646v10.216h3.8v-6.524l4.854 6.524h5.644V-87.9h-3.8m12.2 7.766v.013H23.18v-1.876h3.175V-82c.678 0 1.226.417 1.226.93s-.548.927-1.226.927m-3.145-5.8h3.06v.004c.518 0 .94.34.94.76s-.42.76-.94.76v.005H23.2zm6.263 2.798c.694 0 2.144-.805 2.144-2.365 0-2.22-4.136-2.42-4.77-2.42h-7.62v10.216h7.62c3.665 0 5.138-1.158 5.138-3.092s-2.5-2.34-2.5-2.34z" fill="#292526"/></svg>