<svg xmlns="http://www.w3.org/2000/svg" height="60" width="130"><path d="M41.31 49.962c-4.584-.418-7.623-2.59-8.242-5.893-.13-.692-.105-2.343.045-2.967.04-.166.06-.3.048-.3s-.713.51-1.555 1.13c-3.257 2.406-5.937 4.096-8.653 5.458-3.133 1.57-4.957 2.037-7.993 2.04-2.06.003-3.326-.234-4.67-.875-2.076-.99-3.047-2.5-3.047-4.704 0-1.082.1-1.535.513-2.35.197-.387.358-.743.358-.8s-.29-.6-.64-1.25c-1.257-2.284-2.8-5.714-4.005-8.902-2.768-7.322.494-13.705 8.722-17.068.566-.23 1.973-.882 3.126-1.446 2.375-1.16 2.593-1.257 3.654-1.6 2.09-.675 4.002-.46 5.553.623.84.588 1.674 1.867 1.872 2.877.05.256.116.56.145.677l.054.21.633-.192c2.538-.77 5.455-1.426 7.677-1.726 1.58-.214 5.067-.26 6.347-.087l.728.1.574-.377c3.054-2.005 8.176-2.065 15.61-.182 2.36.598 3.667 1 4.948 1.517 2.43.984 2.533.98 4.586-.22 1.996-1.166 5.417-2.47 8.157-3.108 1.83-.426 2.992-.554 5.072-.557 2.335-.003 3.236.117 4.82.645 1.558.52 1.962.568 3.258.394 1.403-.188 5.576-.256 7.987-.13 5.82.303 9.882.907 20.3 3.02l9.774 1.866.435.067-.008.292c-.005.16-.076.382-.158.49-.686.9-3.782 4.776-4.53 5.658-1.258 1.48-2.92 3.155-4.068 4.097l-.94.773.054.85c.06.963-.052 2.133-.27 2.79l-.143.43.664.864c.72.936 1.33 1.912 1.6 2.556l.17.407-.16.718c-1.07 4.818-3.486 8-7.466 9.805-3.06 1.395-11.488 3.323-17.31 3.96-3.2.348-7.506.426-9.576.17-3.362-.413-5.742-1.177-7.58-2.435l-.656-.448-.65.35c-2.01 1.084-4.9 1.928-8.13 2.373-1.555.214-5.308.303-6.895.162-3.744-.33-6.973-1.303-9.105-2.74-.26-.175-.493-.32-.517-.32s-.28.226-.57.502c-1.425 1.364-3.602 2.3-6.19 2.668-1.06.15-2.84.2-3.754.127zm3.328-4.505c1.61-.186 2.788-.6 3.306-1.193.396-.445.648-.913 1.165-2.162.25-.606.85-1.908 1.33-2.893l.874-1.792.052.547c.294 3.104 2.03 5.015 5.67 6.24 3.882 1.308 7.188 1.544 11.228.803 3.445-.632 7.325-2.12 10.9-4.177l.914-.512c.013 0 .01.446-.01.992-.077 2.34.594 2.946 4.006 3.62 3.193.632 6.91.7 10.82.197 3.478-.447 11.5-2.25 14.246-3.203 3.497-1.213 5.142-2.81 5.87-5.704l.192-.763-.17-.14c-.26-.215-1.07-.44-1.815-.5-1.496-.125-3.45.2-7.242 1.24-3.71 1.01-5.446 1.327-7.756 1.42-2.47.1-5.344-.42-5.663-1.024-.186-.354-.02-.873.376-1.168 1.305-.975 3.346-1.297 9.086-1.434 5.893-.14 7.91-.554 9.65-1.976 1.263-1.03 2-2.5 1.832-3.625-.213-1.442-2.192-2.332-4.91-2.208-1.308.06-2.237.235-4.952.932-1.197.307-2.568.618-3.047.7-1.268.19-3.744.17-4.07-.035-.07-.044-.055-.13.062-.333.086-.15.288-.596.447-1 .308-.76.566-1.224.782-1.405.182-.153 2.924-.074 5.55.16 2.328.208 5.452.25 6.57.09 3.48-.504 6.054-1.887 8.387-4.507a27.58 27.58 0 0 1 .913-.982c.198-.195.316-.384.316-.506 0-.21-.063-.244-.633-.327-.82-.12-3.56-.636-6.41-1.205-6.793-1.357-9.9-1.864-13.9-2.264-1.98-.2-7.67-.205-9.152-.01-1.41.185-1.553.266-3.35 1.864-.243.216-.462.372-.487.347s.062-.4.194-.835.264-.924.293-1.09c.064-.36.062-.36-1.297-.712-4.448-1.152-9.188-.274-15.326 2.84-5.592 2.836-9.57 5.52-13.178 8.892l-.725.678.57-.96c1.357-2.285 2.43-3.808 4.453-6.316 1.436-1.78 1.523-1.903 1.387-1.952-.845-.304-6.765-1.74-9.087-2.203-2.137-.427-3.817-.587-5.108-.485-1.567.123-2.445.48-3.422 1.395-1.018.952-1.24 1.006-2.634.648-2.194-.564-5.097-.47-8.938.29-5.462 1.082-7.407 2.11-7.576 4-.03.324.032.818.213 1.736.435 2.204.293 2.678-1.813 6.02-.938 1.49-1.44 2.142-2 2.613-.493.408-.996.68-1.087.588-.188-.2-.327-2.1-.286-3.922.055-2.44.517-5.348 1.52-9.56.367-1.54.455-3.028.24-4.015l-.137-.625-.685.044c-1.032.066-1.564.276-3.732 1.467-.588.323-1.8.883-2.69 1.244-3.588 1.452-5.275 2.475-6.39 3.876-1.075 1.352-1.51 2.793-1.426 4.736.052 1.226.2 1.756 1.218 4.36 1.64 4.2 2.7 6.32 4.665 9.34.496.763.903 1.423.903 1.465s-.42.502-.935 1.022c-.727.735-.956 1.018-1.03 1.276-.146.513-.118.642.2.907.52.436 1.1.585 2.455.63 2.893.097 5.202-.677 9.497-3.18 4.696-2.737 7.316-5.125 12.93-11.782l2.327-2.812c.89-1.12 1.188-1.444 1.6-1.734l.33-.233.094.42c.052.232.11.945.133 1.586.068 2.017-.21 3.148-1.548 6.32-1.94 4.597-2.76 8.064-2.32 9.8.293 1.156 1.653 1.83 4.327 2.144.538.063 2.185.045 2.85-.03zm21.37-7.546c-1.64-.37-2.52-1.286-2.517-2.613.003-.713.11-1.108.55-2.005.85-1.738 2.07-3.256 4.715-5.857.97-.954 2.065-2.078 2.433-2.497s.682-.748.7-.732c.053.054-.432 1.797-1.12 4.025-.596 1.93-1.157 3.903-1.157 4.073s2.582.004 6.45-.423l3.624-.37c.715-.05.786-.07.92-.264.19-.273.5-1.05.68-1.655.074-.265.16-.5.192-.544.08-.087.43.597.65 1.267.238.726.266 2.38.05 2.872-.13.292-.146.3-.542.3-1.575 0-3.64.607-6.207 1.826-4.674 2.218-5.74 2.572-7.914 2.633-.653.018-1.33.001-1.504-.038zm17.727-14.923c.03-.078.233-.648.448-1.267l.518-1.47.128-.345.245.236c.378.365.965.624 2.296 1.016 1.122.33 2.104.7 2.104.793 0 .066-.783.213-2.45.458-1.563.23-2.643.45-3.118.633-.203.078-.22.073-.17-.054z"/></svg>