<?xml version="1.0" encoding="UTF-8" standalone="no"?>
<!-- Generator: Adobe Illustrator 17.1.0, SVG Export Plug-In . SVG Version: 6.00 Build 0)  -->

<svg
   xmlns:dc="http://purl.org/dc/elements/1.1/"
   xmlns:cc="http://creativecommons.org/ns#"
   xmlns:rdf="http://www.w3.org/1999/02/22-rdf-syntax-ns#"
   xmlns:svg="http://www.w3.org/2000/svg"
   xmlns="http://www.w3.org/2000/svg"
   xmlns:sodipodi="http://sodipodi.sourceforge.net/DTD/sodipodi-0.dtd"
   xmlns:inkscape="http://www.inkscape.org/namespaces/inkscape"
   version="1.1"
   id="Layer_1"
   x="0px"
   y="0px"
   viewBox="0 0 120 59.999998"
   enable-background="new 0 0 323.141 322.95"
   xml:space="preserve"
   sodipodi:docname="elm-ar21.svg"
   width="120"
   height="60"
   inkscape:version="0.92.3 (2405546, 2018-03-11)"><metadata
   id="metadata23"><rdf:RDF><cc:Work
       rdf:about=""><dc:format>image/svg+xml</dc:format><dc:type
         rdf:resource="http://purl.org/dc/dcmitype/StillImage" /><dc:title /></cc:Work></rdf:RDF></metadata><defs
   id="defs21">
</defs><sodipodi:namedview
   pagecolor="#ffffff"
   bordercolor="#666666"
   borderopacity="1"
   objecttolerance="10"
   gridtolerance="10"
   guidetolerance="10"
   inkscape:pageopacity="0"
   inkscape:pageshadow="2"
   inkscape:window-width="1920"
   inkscape:window-height="1001"
   id="namedview19"
   showgrid="false"
   inkscape:zoom="4.9704279"
   inkscape:cx="34.835815"
   inkscape:cy="39.262104"
   inkscape:window-x="-9"
   inkscape:window-y="-9"
   inkscape:window-maximized="1"
   inkscape:current-layer="Layer_1" />

<g
   id="g16"
   transform="matrix(0.11328205,0,0,0.11328205,14.224991,11.68807)">
  <polygon
   points="231.514,82.916 91.783,82.916 161.649,152.782 "
   id="polygon2"
   style="fill:#34495e" />

  <polygon
   points="8.867,0 79.241,70.375 232.213,70.375 161.838,0 "
   id="polygon4"
   style="fill:#34495e" />

  <rect
   x="192.99001"
   y="107.392"
   transform="matrix(0.7071,0.7071,-0.7071,0.7071,186.4727,-127.2386)"
   width="107.676"
   height="108.167"
   id="rect6"
   style="fill:#34495e" />

  <polygon
   points="323.298,0 179.573,0 323.298,143.724 "
   id="polygon8"
   style="fill:#34495e" />

  <polygon
   points="0,8.868 0,314.432 152.781,161.649 "
   id="polygon10"
   style="fill:#34495e" />

  <polygon
   points="323.298,314.432 323.298,178.879 255.522,246.655 "
   id="polygon12"
   style="fill:#34495e" />

  <polygon
   points="8.869,323.298 314.43,323.298 161.649,170.517 "
   id="polygon14"
   style="fill:#34495e" />
</g><g
   aria-label="elm"
   style="font-style:normal;font-variant:normal;font-weight:normal;font-stretch:normal;font-size:30.56371307px;line-height:1.25;font-family:'Source Sans Pro';-inkscape-font-specification:'Source Sans Pro, Normal';font-variant-ligatures:normal;font-variant-caps:normal;font-variant-numeric:normal;font-feature-settings:normal;text-align:start;letter-spacing:0px;word-spacing:0px;writing-mode:lr-tb;text-anchor:start;fill:#34495e;fill-opacity:1;stroke:none;stroke-width:0.7640928"
   id="text832"><path
     d="m 68.305329,41.064065 q -1.497622,0 -2.811861,-0.519584 -1.283676,-0.550146 -2.261715,-1.528185 -0.947475,-1.008603 -1.497622,-2.445097 -0.550147,-1.436495 -0.550147,-3.270318 0,-1.833822 0.550147,-3.270317 0.58071,-1.467058 1.497622,-2.475661 0.947475,-1.008602 2.13946,-1.528185 1.191985,-0.550147 2.475661,-0.550147 1.40593,0 2.506224,0.489019 1.130857,0.48902 1.864387,1.405931 0.764092,0.916911 1.161421,2.200587 0.397328,1.283676 0.397328,2.872989 0,0.397329 -0.03056,0.794657 0,0.366765 -0.06113,0.641838 H 63.659645 q 0.152818,2.38397 1.467058,3.7899 1.344803,1.375367 3.484263,1.375367 1.06973,0 1.956078,-0.305637 0.916911,-0.336201 1.742132,-0.855784 l 0.886347,1.650441 q -0.978038,0.611274 -2.170023,1.06973 -1.191985,0.458456 -2.720171,0.458456 z m -4.676248,-8.985732 h 7.946566 q 0,-2.261715 -0.978039,-3.423136 -0.947475,-1.191985 -2.689607,-1.191985 -0.794657,0 -1.528186,0.305637 -0.702965,0.305637 -1.283676,0.916912 -0.58071,0.58071 -0.978038,1.436494 -0.366765,0.855784 -0.48902,1.956078 z"
     style="fill:#34495e;fill-opacity:1;stroke-width:0.7640928"
     id="path835" /><path
     d="m 80.105788,41.064065 q -1.436495,0 -2.047769,-0.855784 -0.611274,-0.855784 -0.611274,-2.506225 v -18.76612 h 2.506224 v 18.949502 q 0,0.611275 0.213946,0.855784 0.213946,0.24451 0.48902,0.24451 0.122254,0 0.213946,0 0.122254,0 0.3362,-0.06113 l 0.336201,1.89495 q -0.244509,0.122255 -0.58071,0.183382 -0.336201,0.06113 -0.855784,0.06113 z"
     style="fill:#34495e;fill-opacity:1;stroke-width:0.7640928"
     id="path837" /><path
     d="M 85.266757,40.6973 V 25.843335 h 2.078332 l 0.213946,2.13946 h 0.09169 q 0.978039,-1.06973 2.108897,-1.772695 1.161421,-0.733529 2.506224,-0.733529 1.711568,0 2.659043,0.764093 0.978039,0.733529 1.436495,2.078332 1.161421,-1.283676 2.322842,-2.047769 1.191985,-0.794656 2.567353,-0.794656 2.29228,0 3.39257,1.467058 1.13086,1.467058 1.13086,4.340047 V 40.6973 h -2.50623 v -9.077423 q 0,-2.108896 -0.6724,-3.025807 -0.6724,-0.947476 -2.07833,-0.947476 -1.681005,0 -3.728773,2.292279 V 40.6973 h -2.506225 v -9.077423 q 0,-2.108896 -0.672401,-3.025807 -0.672402,-0.947476 -2.108897,-0.947476 -1.681004,0 -3.728773,2.292279 V 40.6973 Z"
     style="fill:#34495e;fill-opacity:1;stroke-width:0.7640928"
     id="path839" /></g></svg>