<svg xmlns="http://www.w3.org/2000/svg" width="120" height="60"><defs><mask maskUnits="userSpaceOnUse" x=".2" y=".1" width="0" height="0" ><g filter="url(#G)"><path d="M.5.1H.2v.3h.3z" fill="#fff"/></g></mask><mask maskUnits="userSpaceOnUse" x=".2" y=".1" width="14.8" height="0" id="B"><g filter="url(#H)"><path d="M15 .1H.2v.3H15z" fill="#fff"/></g></mask><mask maskUnits="userSpaceOnUse" x=".2" y=".1" width="0" height="0" ><g filter="url(#G)"><path d="M.5.1H.2v.3h.3z" fill="#fff"/></g></mask><mask maskUnits="userSpaceOnUse" x="0" y=".2" width="10.4" height="15.1" id="D"><g filter="url(#I)"><path d="M0 15.3h10.4V.2H0z" fill="#fff"/></g></mask><mask maskUnits="userSpaceOnUse" x=".1" y=".2" width="10" height="10.4" id="E"><g filter="url(#J)"><path d="M.1 10.6h10V.2H.1z" fill="#fff"/></g></mask><mask maskUnits="userSpaceOnUse" x=".3" y=".2" width="10" height="10.4" id="F"><g filter="url(#K)"><path d="M.3 10.6h9.9V.2H.3z" fill="#fff"/></g></mask><filter id="G" filterUnits="userSpaceOnUse" x=".2" y=".1" width="0" height="0"><feColorMatrix values="1 0 0 0 0 0 1 0 0 0 0 0 1 0 0 0 0 0 1 0"/></filter><filter id="H" filterUnits="userSpaceOnUse" x=".2" y=".1" width="14.8" height="0"><feColorMatrix values="1 0 0 0 0 0 1 0 0 0 0 0 1 0 0 0 0 0 1 0"/></filter><filter id="I" filterUnits="userSpaceOnUse" x="0" y=".2" width="10.4" height="15.1"><feColorMatrix values="1 0 0 0 0 0 1 0 0 0 0 0 1 0 0 0 0 0 1 0"/></filter><filter id="J" filterUnits="userSpaceOnUse" x=".1" y=".2" width="10" height="10.4"><feColorMatrix values="1 0 0 0 0 0 1 0 0 0 0 0 1 0 0 0 0 0 1 0"/></filter><filter id="K" filterUnits="userSpaceOnUse" x=".3" y=".2" width="10" height="10.4"><feColorMatrix values="1 0 0 0 0 0 1 0 0 0 0 0 1 0 0 0 0 0 1 0"/></filter></defs><g fill="#5b554d"><path d="M14.012 39.514h2.375c1.46 0 2.923.365 2.923 2.192s-1.46 2.192-2.923 2.192h-2.375zM12.185 51.48h1.827v-5.937h2.01l3.47 5.937h2.283l-3.836-6.21c2.01-.274 3.288-1.827 3.288-3.562s-.913-3.745-4.384-3.745h-4.658z"/><path d="M23.978 46.192c0-1.187 1.096-2.65 2.83-2.65s2.557 1.096 2.65 2.65zm7.216 1.37v-.64c0-2.375-1.187-4.75-4.384-4.75-2.74 0-4.658 2.01-4.658 4.75 0 2.65 1.827 4.75 4.658 4.75 1.735 0 3.105-.64 4.02-1.827l-1.28-1.005c-.73.822-1.46 1.37-2.557 1.37-1.553 0-3.014-1.096-3.014-2.65z" mask="url(#F)"/><path d="M33.558 51.48h1.735V43.9h2.1v-1.46h-2v-1.005c0-1.28.183-2 1.46-2 .365 0 .64 0 1.005.183l.183-1.553c-.457-.1-.913-.1-1.28-.1-2.283 0-3.105 1.187-3.105 3.562v.913H31.73v1.46h1.918v7.58zm5.662-12.33c0 .548.457 1.096 1.096 1.096.548 0 1.096-.457 1.096-1.096 0-.548-.457-1.096-1.096-1.096-.64.1-1.096.548-1.096 1.096zm.183 12.33h1.735v-9.042h-1.735zm4.11 0h1.735v-4.66c0-2.1 1.096-3.014 2.557-3.014 1.096 0 2.1.64 2.1 2.375v5.4h1.735v-5.846c0-2.375-1.553-3.47-3.288-3.47-1.37 0-2.557.64-3.014 1.644v-1.37h-1.735v8.95z"/><path d="M54.913 46.192c0-1.187 1.096-2.65 2.83-2.65s2.557 1.096 2.65 2.65zm7.307 1.37v-.64c0-2.375-1.187-4.75-4.384-4.75-2.74 0-4.658 2.01-4.658 4.75 0 2.65 1.827 4.75 4.658 4.75 1.735 0 3.014-.64 4.02-1.827l-1.37-1.005c-.73.822-1.46 1.37-2.466 1.37-1.644 0-3.105-1.096-3.105-2.65z" mask="url(#E)"/><path d="M68.294 50.083c-1.827 0-3.014-1.28-3.014-3.197 0-1.827 1.187-3.105 3.014-3.105s3.014 1.28 3.014 3.105-1.187 3.197-3.014 3.197zm4.658-12.24h-1.644v5.846c-.64-.913-1.827-1.553-3.197-1.553-2.83 0-4.567 2.01-4.567 4.75 0 2.65 1.827 4.75 4.567 4.75 1.187 0 2.466-.548 3.197-1.553v1.28h1.735V37.844z" mask="url(#D)"/><path d="M83.428 39.423h.1L86.9 51.48h1.553l3.927-13.52H91.1l-3.38 11.965-3.47-11.965h-1.553l-3.47 11.965-3.38-11.965h-1.28l3.928 13.518h1.553zm10.504-.273a.822.822 0 1 0 .822-.822c-.457-.1-.822.274-.822.822zm.274 12.33h1.187v-8.86h-1.187zm3.654-13.6v13.6h1.187V46.8l4.84 4.658h1.735l-5.115-4.84 4.567-4.02h-1.735l-4.293 4.02V37.87zm8.3 1.28a.822.822 0 1 0 .822-.822c-.457 0-.822.274-.822.822zm.365 12.33h1.187v-8.86h-1.187z"/></g><path d="M81.865 15.688v15.453l13.32-13.466c2.134-2.134 2.134-5.593 0-7.727-1.03-1.104-2.428-1.62-3.827-1.62s-2.796.515-3.827 1.62z" fill="#8ab53f"/><g fill="#bcd332"><path d="M72.3 21.428l9.566 9.64V15.615L76.2 9.875a5.7 5.7 0 0 0-3.9-1.545z"/><path d="M81.865 31.142V15.688z"/></g><g fill="#8ab53f"><path d="M72.3 8.33h-.074.074z"/><path d="M62.585 15.688V31.14L72.3 21.5V8.33h-.074c-1.398 0-2.796.515-3.9 1.62zM72.3 8.33v13.1z"/></g><g fill="#bcd332"><path d="M49.266 17.675l13.32 13.466V15.688l-5.593-5.74c-1.104-1.104-2.502-1.62-3.9-1.62s-2.796.515-3.9 1.62c-2.06 2.134-2.06 5.593.074 7.727"/><path d="M62.585 31.142V15.688z"/><path mask="url(#B)" d="M34.132 8.327H23.24z"/><path d="M34.18 19.22z"/><path d="M30.722 15.836l3.46 3.385z"/><path d="M30.722 15.836l-1.398-1.398 4.857 4.783z"/><path d="M30.722 15.836l3.46 3.385-6.696-6.623z"/></g><path d="M40.803 8.33H23.216L34.18 19.294h6.623c3.017 0 5.445-2.428 5.445-5.445 0-3.09-2.428-5.52-5.445-5.52" fill="#8ab53f"/><g fill="#bcd332"><path d="M30.722 15.836l-1.398-1.398zM23.216 8.33l4.268 4.268zm0 10.9v6.402zm0-10.9v10.9z"/><path d="M34.18 19.22l-4.783-4.783-6.18-6.108v17.367c0 3.017 2.428 5.445 5.445 5.445s5.445-2.428 5.445-5.445z"/><path d="M23.216 8.33l6.108 6.108z"/></g></svg>