<?xml version="1.0" encoding="UTF-8" standalone="no"?>
<svg
   xmlns:dc="http://purl.org/dc/elements/1.1/"
   xmlns:cc="http://creativecommons.org/ns#"
   xmlns:rdf="http://www.w3.org/1999/02/22-rdf-syntax-ns#"
   xmlns:svg="http://www.w3.org/2000/svg"
   xmlns="http://www.w3.org/2000/svg"
   xmlns:sodipodi="http://sodipodi.sourceforge.net/DTD/sodipodi-0.dtd"
   xmlns:inkscape="http://www.inkscape.org/namespaces/inkscape"
   id="bg"
   viewBox="0 0 13092 2371.8"
   version="1.1"
   sodipodi:docname="branchio-ar21.svg"
   width="120"
   height="60"
   inkscape:version="0.92.3 (2405546, 2018-03-11)">
  <metadata
     id="metadata31">
    <rdf:RDF>
      <cc:Work
         rdf:about="">
        <dc:format>image/svg+xml</dc:format>
        <dc:type
           rdf:resource="http://purl.org/dc/dcmitype/StillImage" />
        <dc:title>logo-dark</dc:title>
      </cc:Work>
    </rdf:RDF>
  </metadata>
  <sodipodi:namedview
     pagecolor="#ffffff"
     bordercolor="#666666"
     borderopacity="1"
     objecttolerance="10"
     gridtolerance="10"
     guidetolerance="10"
     inkscape:pageopacity="0"
     inkscape:pageshadow="2"
     inkscape:window-width="1920"
     inkscape:window-height="1001"
     id="namedview29"
     showgrid="false"
     units="px"
     inkscape:zoom="3.1072411"
     inkscape:cx="15.286873"
     inkscape:cy="45.511312"
     inkscape:window-x="-9"
     inkscape:window-y="-9"
     inkscape:window-maximized="1"
     inkscape:current-layer="bg" />
  <defs
     id="defs4">
    <style
       id="style2">.cls-1{fill:#333e48;}.cls-2{fill:#4da3dc;}</style>
  </defs>
  <title
     id="title6">logo-dark</title>
  <g
     id="g860"
     transform="matrix(99.93588,0,0,99.93588,1091.9993,-790.51745)">
    <path
       transform="translate(-2567.11,-974.37)"
       id="path8"
       d="m 2576.37,993.3 c -2.76,0 -4.84,0.86 -6.25,2.85 v -13 a 0.27,0.27 0 0 0 -0.27,-0.27 h -2.48 a 0.27,0.27 0 0 0 -0.27,0.27 v 30.13 a 0.27,0.27 0 0 0 0.27,0.27 h 2.48 a 0.27,0.27 0 0 0 0.27,-0.27 V 1011 a 6.68,6.68 0 0 0 2.7,2.21 8.62,8.62 0 0 0 3.55,0.72 7.37,7.37 0 0 0 6.08,-2.72 q 2.19,-2.72 2.19,-7.62 0,-4.9 -2.17,-7.58 a 7.4,7.4 0 0 0 -6.1,-2.71 z m 4,15.66 a 4.66,4.66 0 0 1 -4.07,1.89 5.37,5.37 0 0 1 -4.41,-1.68 q -1.38,-1.68 -1.38,-5.6 0,-3.92 1.34,-5.56 1.34,-1.65 4.38,-1.65 a 4.86,4.86 0 0 1 4.15,1.78 9,9 0 0 1 1.34,5.4 9.3,9.3 0 0 1 -1.36,5.46 z"
       class="cls-1"
       inkscape:connector-curvature="0"
       style="fill:#333e48" />
    <path
       transform="translate(-2567.11,-974.37)"
       id="path10"
       d="m 2630.57,993.26 c -3.61,0 -5.78,1.68 -6.39,2.82 v -2.19 a 0.27,0.27 0 0 0 -0.27,-0.27 h -2.48 a 0.27,0.27 0 0 0 -0.27,0.27 v 19.37 a 0.27,0.27 0 0 0 0.27,0.27 h 2.48 a 0.27,0.27 0 0 0 0.27,-0.27 v -9.91 q 0,-3.89 1.45,-5.58 a 5.84,5.84 0 0 1 4.58,-2 4.51,4.51 0 0 1 3.47,1.2 5.2,5.2 0 0 1 1.11,3.63 v 12.61 a 0.27,0.27 0 0 0 0.27,0.27 h 2.48 a 0.27,0.27 0 0 0 0.27,-0.27 v -12.72 q 0,-3.81 -1.82,-5.55 a 7.56,7.56 0 0 0 -5.42,-1.68 z"
       class="cls-1"
       inkscape:connector-curvature="0"
       style="fill:#333e48" />
    <path
       transform="translate(-2567.11,-974.37)"
       id="path12"
       d="m 2655.63,994.19 a 10.42,10.42 0 0 0 -2,-0.62 13.61,13.61 0 0 0 -2.87,-0.31 8.66,8.66 0 0 0 -6.86,2.72 q -2.41,2.72 -2.41,7.72 0,5 2.37,7.53 a 8.5,8.5 0 0 0 6.69,2.66 11.06,11.06 0 0 0 4.88,-1 0.27,0.27 0 0 0 0.15,-0.24 v -2.11 a 0.27,0.27 0 0 0 -0.36,-0.25 13.21,13.21 0 0 1 -4.74,0.93 5.15,5.15 0 0 1 -4.39,-2 9.21,9.21 0 0 1 -1.48,-5.63 q 0,-7.74 6.07,-7.74 a 9.73,9.73 0 0 1 2.09,0.26 14.51,14.51 0 0 1 1.93,0.57 0.26,0.26 0 0 0 0.34,-0.16 l 0.75,-2.08 a 0.27,0.27 0 0 0 -0.16,-0.25 z"
       class="cls-1"
       inkscape:connector-curvature="0"
       style="fill:#333e48" />
    <path
       transform="translate(-2567.11,-974.37)"
       id="path14"
       d="m 2615.6,994.34 q -1.72,-1.58 -5.28,-1.58 a 14,14 0 0 0 -3.51,0.45 14.29,14.29 0 0 0 -3,1.14 0.27,0.27 0 0 0 -0.12,0.34 l 0.73,1.82 a 0.27,0.27 0 0 0 0.36,0.14 12.85,12.85 0 0 1 5.37,-1.4 4.15,4.15 0 0 1 3.22,1.12 4.46,4.46 0 0 1 0.9,2.49 h -2.79 a 11.06,11.06 0 0 0 -4,0.64 9.13,9.13 0 0 0 -3.4,2.25 7.59,7.59 0 0 0 -2,5.93 6.47,6.47 0 0 0 2.89,4.81 7.39,7.39 0 0 0 4.29,1.37 v 0 a 7.07,7.07 0 0 0 2.38,-0.41 7.73,7.73 0 0 0 2.75,-1.69 v 1.47 a 0.27,0.27 0 0 0 0.27,0.27 h 2.34 a 0.27,0.27 0 0 0 0.27,-0.27 v -13.69 c 0.04,-2.32 -0.53,-4.14 -1.67,-5.2 z m -1.17,10.48 c 0,2.59 -1.3,5.43 -3.89,6.35 a 4.61,4.61 0 0 1 -4.16,-0.61 4.68,4.68 0 0 1 -0.47,-6.94 6.59,6.59 0 0 1 2.43,-1.6 8.62,8.62 0 0 1 3.1,-0.47 h 3 c 0,0 -0.01,3.27 -0.01,3.27 z"
       class="cls-1"
       inkscape:connector-curvature="0"
       style="fill:#333e48" />
    <path
       transform="translate(-2567.11,-974.37)"
       id="path16"
       d="m 2599.59,993.62 a 14.69,14.69 0 0 0 -2.15,-0.14 c -3.54,0.13 -6,2.41 -6,2.64 0,-0.73 0,-1.34 0,-2 a 0.27,0.27 0 0 0 -0.27,-0.27 h -2.48 a 0.27,0.27 0 0 0 -0.27,0.27 v 19.37 a 0.27,0.27 0 0 0 0.27,0.27 h 2.48 a 0.27,0.27 0 0 0 0.27,-0.27 V 1003 a 7.15,7.15 0 0 1 1.72,-4.89 5.31,5.31 0 0 1 4.13,-2 9.78,9.78 0 0 1 1.9,0.21 0.27,0.27 0 0 0 0.32,-0.22 l 0.34,-2.25 a 0.27,0.27 0 0 0 -0.26,-0.23 z"
       class="cls-1"
       inkscape:connector-curvature="0"
       style="fill:#333e48" />
    <path
       transform="translate(-2567.11,-974.37)"
       id="path18"
       d="m 2674.39,995 a 7.56,7.56 0 0 0 -5.41,-1.73 c -3.61,0 -5.78,1.68 -6.39,2.82 v -0.21 l -0.13,-3.66 3.24,-2 a 2.48,2.48 0 1 0 -1,-1.63 l -2.29,1.41 -0.16,-4.67 3.19,-1.95 a 2.87,2.87 0 1 0 -1.07,-1.61 l -2.2,1.36 -0.13,-3.73 a 2.61,2.61 0 1 0 -1.88,0 l -0.24,7.73 -2.39,-1.52 a 3,3 0 1 0 -1,1.64 l 3.33,2.11 -0.17,5.65 v 0 l -0.09,3 v 15.24 a 0.27,0.27 0 0 0 0.27,0.27 h 2.5 a 0.27,0.27 0 0 0 0.27,-0.27 v -9.91 q 0,-3.89 1.45,-5.58 a 5.74,5.74 0 0 1 4.11,-1.94 h 0.46 a 4.51,4.51 0 0 1 3.46,1.2 5.2,5.2 0 0 1 1.11,3.63 v 9.85 0 2.77 a 0.27,0.27 0 0 0 0.27,0.27 h 2.5 a 0.27,0.27 0 0 0 0.27,-0.27 v -12.72 q -0.07,-3.82 -1.88,-5.55 z"
       class="cls-1"
       inkscape:connector-curvature="0"
       style="fill:#333e48" />
    <circle
       id="circle20"
       r="1.58"
       cy="2.6099999"
       cx="93.949997"
       class="cls-2"
       style="fill:#4da3dc" />
    <circle
       id="circle22"
       r="1.4400001"
       cy="13.88"
       cx="99.919998"
       class="cls-2"
       style="fill:#4da3dc" />
    <circle
       id="circle24"
       transform="rotate(-25.97,-728.99212,6060.2786)"
       r="1.6900001"
       cy="981.10999"
       cx="2667.1699"
       class="cls-2"
       style="fill:#4da3dc" />
    <circle
       id="circle26"
       r="1.83"
       cy="10.56"
       cx="87.440002"
       class="cls-2"
       style="fill:#4da3dc" />
  </g>
</svg>
