<svg xmlns="http://www.w3.org/2000/svg" width="64" height="64"><path d="M25.19 64c-.66.002-1.32-.215-1.87-.652a3.01 3.01 0 0 1-.704-3.918c.194-.322 19.36-32.276 9.47-48.202-2.066-3.325-4.383-5.074-6.887-5.2-4.86-.218-10.178 5.22-11.814 7.347a3.01 3.01 0 1 1-4.772-3.671C8.932 9.29 16.46-.423 25.5.014c4.594.23 8.53 2.933 11.7 8.036 7.408 11.925 2.193 29.704-2.962 41.693 5.362-3.715 11.982-7.372 18.298-8.354 1.663-.248 3.184.87 3.438 2.51s-.87 3.184-2.51 3.438C41.68 49.17 27.44 63.002 27.298 63.143a3.01 3.01 0 0 1-2.107.857z" fill="#7cb1f4"/></svg>