<svg xmlns="http://www.w3.org/2000/svg" xmlns:xlink="http://www.w3.org/1999/xlink" width="120" height="60"><g transform="matrix(1.134199 0 0 1.134199 -4.211715 -1.113701)"><g fill="#ee4615"><path d="M21.86 17.93v1.486h4.362V17.93a6.55 6.55 0 0 1 6.536-6.536 6.55 6.55 0 0 1 6.536 6.536v10.765h4.362V17.93A10.92 10.92 0 0 0 32.758 7.032 10.91 10.91 0 0 0 21.86 17.93m14.523 17.047c0 1.993-1.607 3.6-3.6 3.6s-3.6-1.607-3.6-3.6 1.607-3.6 3.6-3.6 3.6 1.62 3.6 3.6"/><path d="M24.24 34.94a8.51 8.51 0 0 1 8.494-8.494 8.51 8.51 0 0 1 8.494 8.494 8.51 8.51 0 0 1-8.494 8.494c-4.676 0-8.494-3.818-8.494-8.494m-4.362 0c0 7.092 5.763 12.855 12.855 12.855S45.59 42.033 45.59 34.94s-5.763-12.855-12.855-12.855S19.88 27.85 19.88 34.94"/></g><path d="M32.673 47.772c-.23-1.184-.69-2.44-1.317-3.564-.338-.604-.882-1.462-1.957-2.49.266-1.075.677-1.498 1.257-1.232.544.254.834.604 1.34 1.184v-5.654c0-.544.375-1.148.93-1.148.568 0 .93.628.93 1.05v2.018h.652c.242 0 .495.036.713.205.193.145.4.4.47.81v1.257-1.27a6.01 6.01 0 0 0-.036-.423c1.148 0 1.136.036 1.426.205.254.205.35.387.47.785 0-.024 0 1.583 0 1.583v-1.85c1.003 0 1.208.036 1.414.217.23.205.41.556.41.906.024 1.124-.11 3.13-.362 4.325-.205.967-.882 3.057-.882 3.057l-5.46.024z" fill="#fff" stroke="#22211f" stroke-width=".121"/></g><g transform="matrix(.120818 0 0 .120818 21.671868 5.612024)" fill="#212e3e"><path d="M382.4 121.8c-6.9 6.8-15.5 10.1-25.6 10.1s-18.7-3.4-25.6-10.1c-6.9-6.8-10.4-15.2-10.4-25.2 0-10.1 3.5-18.5 10.4-25.2 6.9-6.8 15.5-10.1 25.6-10.1s18.7 3.4 25.6 10.1c6.9 6.8 10.4 15.2 10.4 25.2s-3.5 18.4-10.4 25.2zm-5.2-25.2c0-6.1-2-11.3-5.9-15.6s-8.7-6.5-14.5-6.5c-5.7 0-10.5 2.2-14.5 6.5s-5.9 9.5-5.9 15.6 2 11.3 5.9 15.6 8.7 6.4 14.5 6.4c5.7 0 10.5-2.1 14.5-6.4 3.9-4.3 5.9-9.5 5.9-15.6zm57.7-19c6.1 0 11.6 2.6 16.4 7.7s7.2 11.6 7.2 19.4-2.4 14.3-7.2 19.5-10.4 7.8-16.9 7.8c-6.4 0-11.6-2.6-15.5-7.7v26h-14.7V78.5h14.7v5.9c4.5-4.5 9.9-6.8 16-6.8zm-16.2 27.3c0 4.3 1.2 7.8 3.6 10.5s5.3 4.1 8.7 4.1 6.4-1.4 8.9-4.1 3.8-6.2 3.8-10.4-1.2-7.8-3.7-10.7-5.5-4.3-8.9-4.3-6.4 1.4-8.8 4.3c-2.4 2.8-3.6 6.4-3.6 10.6zm96.5 18.7c-5.9 5.6-12.9 8.4-20.9 8.4s-14.6-2.5-19.8-7.4-7.8-11.5-7.8-19.8 2.7-14.9 8-19.8 11.6-7.4 18.9-7.4 13.4 2.2 18.5 6.6 7.6 10.4 7.6 18v7.8h-38.4c.5 2.9 2 5.2 4.5 7.1 2.5 1.8 5.4 2.7 8.6 2.7 5.2 0 9.4-1.7 12.7-5.2zM501 92.3c-2-1.7-4.5-2.5-7.4-2.5s-5.6.9-8 2.6c-2.4 1.8-3.8 4.1-4.2 7.2h23.1c-.3-3.1-1.4-5.6-3.5-7.3zm43.8 9.5v29.4h-14.7V78.5h14.7v5.9c4.4-4.5 9.4-6.8 15-6.8s10.2 2 14 5.9 5.6 9.1 5.6 15.7v32h-14.7v-29.8c0-8.1-3-12.2-8.9-12.2-2.9 0-5.5 1.1-7.7 3.2-2.3 2.2-3.3 5.3-3.3 9.4zM374 234.9l-6.4-14.8H339l-6.4 14.8h-16.3l29.6-68.5h14.8l29.6 68.5zm-20.6-48.1l-8.6 19.9H362zm68.7 35.8c4.9 0 9.3-2.5 13.2-7.4l8.7 9.8c-6.8 7.1-14.1 10.6-22.1 10.6-7.9 0-14.6-2.5-20-7.5s-8.2-11.5-8.2-19.6 2.8-14.6 8.3-19.7 12.1-7.6 19.6-7.6c3.8 0 7.6.8 11.5 2.4s7.3 3.9 10.2 7l-7.6 10a17.91 17.91 0 0 0-6.2-4.7c-2.5-1.1-4.9-1.7-7.3-1.7-3.9 0-7.2 1.3-9.9 3.8-2.8 2.5-4.2 6-4.2 10.5s1.4 8 4.2 10.4c2.8 2.5 6 3.7 9.8 3.7zm57 0c4.9 0 9.3-2.5 13.2-7.4l8.7 9.8c-6.8 7.1-14.1 10.6-22.1 10.6-7.9 0-14.6-2.5-20-7.5s-8.2-11.5-8.2-19.6 2.8-14.6 8.3-19.7 12.1-7.6 19.6-7.6c3.8 0 7.6.8 11.5 2.4s7.3 3.9 10.2 7l-7.6 10a17.91 17.91 0 0 0-6.2-4.7c-2.5-1.1-4.9-1.7-7.3-1.7-3.9 0-7.2 1.3-9.9 3.8-2.8 2.5-4.2 6-4.2 10.5s1.4 8 4.2 10.4c2.8 2.5 6.1 3.7 9.8 3.7zm77.4 4.6c-5.9 5.6-12.9 8.4-20.9 8.4s-14.6-2.5-19.8-7.4-7.8-11.5-7.8-19.8 2.7-14.9 8-19.8 11.6-7.4 18.9-7.4 13.4 2.2 18.5 6.6 7.6 10.4 7.6 18v7.8h-38.4c.5 2.9 2 5.2 4.5 7.1s5.4 2.7 8.6 2.7c5.2 0 9.4-1.7 12.7-5.2zM542.4 196c-2-1.7-4.5-2.5-7.4-2.5s-5.6.9-8 2.6c-2.4 1.8-3.8 4.1-4.2 7.2h23.1c-.3-3.2-1.5-5.6-3.5-7.3zm68.7 22.5c0 5.2-1.9 9.4-5.7 12.5s-8.7 4.7-14.6 4.7c-3.9 0-8-.7-12.3-2.1-4.2-1.4-8.1-3.5-11.5-6.2l6.5-9.2c5.5 4.2 11.3 6.4 17.5 6.4 1.9 0 3.4-.4 4.5-1.1 1.1-.8 1.7-1.7 1.7-3 0-1.2-.8-2.4-2.3-3.4s-3.8-2-6.7-2.9-5.1-1.7-6.7-2.4c-1.5-.7-3.3-1.6-5.2-2.8-4-2.5-6-6.2-6-11 0-4.9 2-8.8 5.9-11.9s9-4.6 15.2-4.6 12.4 2.1 18.6 6.3l-5.5 9.8c-4.6-3.1-9.1-4.7-13.7-4.7-4.5 0-6.8 1.2-6.8 3.7 0 1.4.7 2.5 2.2 3.2 1.4.8 3.8 1.7 7.2 2.7 3.3 1 5.7 1.8 7.1 2.4a34.83 34.83 0 0 1 5 2.6c3.8 2.1 5.6 5.8 5.6 11zm51 0c0 5.2-1.9 9.4-5.7 12.5s-8.7 4.7-14.6 4.7c-3.9 0-8-.7-12.3-2.1-4.2-1.4-8.1-3.5-11.5-6.2l6.5-9.2c5.5 4.2 11.3 6.4 17.5 6.4 1.9 0 3.4-.4 4.5-1.1 1.1-.8 1.7-1.7 1.7-3 0-1.2-.8-2.4-2.3-3.4s-3.8-2-6.7-2.9-5.1-1.7-6.7-2.4c-1.5-.7-3.3-1.6-5.2-2.8-4-2.5-6-6.2-6-11 0-4.9 2-8.8 5.9-11.9s9-4.6 15.2-4.6 12.4 2.1 18.6 6.3l-5.5 9.8c-4.6-3.1-9.1-4.7-13.7-4.7-4.5 0-6.8 1.2-6.8 3.7 0 1.4.7 2.5 2.2 3.2 1.4.8 3.8 1.7 7.2 2.7 3.3 1 5.7 1.8 7.1 2.4a34.83 34.83 0 0 1 5 2.6c3.7 2.1 5.6 5.8 5.6 11zM354.7 338.8h-30v-68.5h26.7c4.6 0 8.6.6 12 1.7s5.9 2.6 7.6 4.5c3.1 3.5 4.6 7.5 4.6 12 0 5.4-1.7 9.3-5.2 12-1.2.9-2 1.5-2.4 1.7-.5.2-1.3.6-2.5 1.1 4.2.9 7.6 2.8 10.1 5.7s3.8 6.5 3.8 10.8c0 4.8-1.6 9-4.9 12.6-3.8 4.2-10.4 6.4-19.8 6.4zM340 298h7.3c4.2 0 7.4-.5 9.5-1.4s3.1-2.9 3.1-5.9-.9-5-2.8-6-5.1-1.5-9.6-1.5H340zm0 27.8h10.5c4.4 0 7.7-.5 9.8-1.6 2.2-1.1 3.3-3.2 3.3-6.4s-1.2-5.3-3.5-6.3-6-1.5-11.1-1.5h-9zm84.3-11.4V286h14.8v52.7h-14.8v-7c-3.7 5.2-8.4 7.7-14.2 7.7s-10.6-1.8-14.6-5.4c-3.9-3.6-5.9-9-5.9-16.1V286h14.8v28.7c0 8.1 3 12.2 8.9 12.2 2.9 0 5.5-1.1 7.6-3.2 2.3-2.1 3.4-5.2 3.4-9.3z"/><use xlink:href="#B"/><use xlink:href="#B" x="43.1"/><path d="M591.4 312.4c0 7.6-2.6 14.1-7.9 19.3s-11.9 7.8-19.9 7.8-14.7-2.6-19.9-7.8c-5.3-5.2-7.9-11.7-7.9-19.3s2.6-14.1 7.9-19.4 11.9-7.9 19.9-7.9 14.7 2.6 19.9 7.9 7.9 11.7 7.9 19.4zm-41 0c0 4.3 1.2 7.8 3.7 10.5s5.6 4.1 9.4 4.1 7-1.4 9.4-4.1c2.5-2.7 3.7-6.2 3.7-10.5s-1.2-7.8-3.7-10.6-5.6-4.1-9.4-4.1-7 1.4-9.4 4.1-3.7 6.3-3.7 10.6zm66.6-3.1v29.4h-14.7V286H617v5.9c4.4-4.5 9.4-6.8 15-6.8s10.2 2 14 5.9 5.6 9.1 5.6 15.7v32h-14.7V309c0-8.1-3-12.2-8.9-12.2-2.9 0-5.5 1.1-7.7 3.2s-3.3 5.2-3.3 9.3z"/></g><defs ><path id="B" d="M470.6 296.6v23.6c0 2 .5 3.6 1.6 4.8 1 1.1 2.3 1.7 3.7 1.7 2.7 0 5.1-1.2 7-3.7l5.5 10.3c-4.6 4.2-9.4 6.3-14.5 6.3s-9.3-1.7-12.8-5-5.2-7.9-5.2-13.6v-24.3h-6.2V286h6.2v-15.8h14.8V286h12.7v10.6z"/></defs></svg>