<?xml version="1.0" encoding="UTF-8" standalone="no"?>
<!-- Generator: Adobe Illustrator 15.0.2, SVG Export Plug-In  -->

<svg
   xmlns:dc="http://purl.org/dc/elements/1.1/"
   xmlns:cc="http://creativecommons.org/ns#"
   xmlns:rdf="http://www.w3.org/1999/02/22-rdf-syntax-ns#"
   xmlns:svg="http://www.w3.org/2000/svg"
   xmlns="http://www.w3.org/2000/svg"
   xmlns:sodipodi="http://sodipodi.sourceforge.net/DTD/sodipodi-0.dtd"
   xmlns:inkscape="http://www.inkscape.org/namespaces/inkscape"
   version="1.1"
   x="0px"
   y="0px"
   width="120"
   height="60"
   viewBox="-4.649 -0.667 120 60"
   overflow="visible"
   enable-background="new -4.649 -0.667 444 338"
   xml:space="preserve"
   id="svg26"
   sodipodi:docname="prometheus-ar21.svg"
   style="overflow:visible"
   inkscape:version="0.92.3 (2405546, 2018-03-11)"><metadata
   id="metadata30"><rdf:RDF><cc:Work
       rdf:about=""><dc:format>image/svg+xml</dc:format><dc:type
         rdf:resource="http://purl.org/dc/dcmitype/StillImage" /><dc:title></dc:title></cc:Work></rdf:RDF></metadata><sodipodi:namedview
   pagecolor="#ffffff"
   bordercolor="#666666"
   borderopacity="1"
   objecttolerance="10"
   gridtolerance="10"
   guidetolerance="10"
   inkscape:pageopacity="0"
   inkscape:pageshadow="2"
   inkscape:window-width="1920"
   inkscape:window-height="1001"
   id="namedview28"
   showgrid="false"
   inkscape:zoom="7.8995124"
   inkscape:cx="57.976873"
   inkscape:cy="26.705769"
   inkscape:window-x="-9"
   inkscape:window-y="-9"
   inkscape:window-maximized="1"
   inkscape:current-layer="svg26" />
<defs
   id="defs2">
</defs>










<g
   id="g864"
   transform="translate(0,0.3649205)"><path
     style="fill:#da4e31;stroke-width:0.13057175"
     inkscape:connector-curvature="0"
     id="path4"
     d="m 55.35113,4.2373539 c -9.230248,0 -16.713315,7.4822831 -16.713315,16.7127931 0,9.230117 7.483197,16.713054 16.713315,16.713054 9.230118,0 16.713054,-7.482937 16.713054,-16.713054 0,-9.23051 -7.483199,-16.7127931 -16.713054,-16.7127931 z m 0,31.2797691 c -2.62606,0 -4.755293,-1.754362 -4.755293,-3.917675 h 9.510586 c 0,2.163052 -2.129234,3.917675 -4.755293,3.917675 z m 7.854283,-5.215036 H 47.495934 v -2.848554 h 15.709609 v 2.848554 z m -0.0564,-4.314744 h -15.60816 c -0.05197,-0.05994 -0.10511,-0.118819 -0.15512,-0.179536 -1.60799,-1.95257 -1.986779,-2.971943 -2.354469,-4.010772 -0.0063,-0.03421 1.949959,0.399811 3.337023,0.711746 0,0 0.713704,0.165174 1.757103,0.355417 -1.001745,-1.174493 -1.596761,-2.66745 -1.596761,-4.193443 0,-3.35021 2.569521,-6.27789 1.642462,-8.644111 0.902251,0.07338 1.867307,1.904128 1.932463,4.766522 0.959178,-1.325434 1.360557,-3.745973 1.360557,-5.2301831 0,-1.536698 1.012583,-3.321614 2.025429,-3.382591 -0.902774,1.487995 0.233854,2.763551 1.244219,5.9279571 0.379049,1.188726 0.330738,3.188954 0.623218,4.457459 0.09701,-2.634677 0.5501,-6.47897 2.221548,-7.8061021 -0.737208,1.6714491 0.109158,3.7628171 0.688113,4.7683501 0.934111,1.622093 1.5004,2.851165 1.5004,5.175603 0,1.558505 -0.575429,3.025739 -1.5461,4.172813 1.103593,-0.207087 1.86574,-0.393805 1.86574,-0.393805 l 3.584064,-0.699212 c 2.61e-4,-3.91e-4 -0.52059,2.141378 -2.521732,4.203888 z" /><g
     transform="matrix(1.6006962,0,0,1.6006962,-17.509811,-32.256668)"
     id="g850"><path
       d="m 16.963072,45.864758 c 0.485988,-0.08108 1.122526,-0.150419 1.932462,-0.150419 0.995218,0 1.7242,0.231373 2.187077,0.648028 0.416524,0.370301 0.68276,0.937244 0.68276,1.631625 0,0.70574 -0.208262,1.261192 -0.601675,1.666357 -0.543832,0.566942 -1.400121,0.856289 -2.383718,0.856289 -0.300968,0 -0.578694,-0.01162 -0.810067,-0.06947 v 3.124452 h -1.006839 z m 1.006708,3.760727 c 0.219883,0.05785 0.497609,0.08095 0.833178,0.08095 1.215101,0 1.955705,-0.601545 1.955705,-1.654736 0,-1.04144 -0.740604,-1.538918 -1.839887,-1.538918 -0.439766,0 -0.775335,0.03474 -0.948996,0.08095 z"
       id="path6"
       inkscape:connector-curvature="0"
       style="fill:#e6522c;stroke-width:0.13057175" /><path
       d="m 22.899908,49.718061 c 0,-0.659648 -0.01149,-1.226591 -0.04622,-1.747311 h 0.891022 l 0.04622,1.110904 h 0.03474 c 0.254616,-0.752223 0.879401,-1.226721 1.562161,-1.226721 0.104065,0 0.18515,0.01163 0.277726,0.02324 v 0.960356 c -0.104066,-0.02311 -0.208263,-0.02311 -0.347191,-0.02311 -0.71749,0 -1.226591,0.53221 -1.365519,1.296055 -0.02311,0.138799 -0.03474,0.312459 -0.03474,0.474498 v 2.985393 h -1.018328 v -3.853303 z"
       id="path8"
       inkscape:connector-curvature="0"
       style="fill:#e6522c;stroke-width:0.13057175" /><path
       d="m 31.636856,50.724769 c 0,2.07139 -1.446473,2.973902 -2.788751,2.973902 -1.504317,0 -2.684686,-1.110904 -2.684686,-2.881327 0,-1.862997 1.238212,-2.962411 2.777261,-2.962411 1.608514,0 2.696176,1.168747 2.696176,2.869836 z m -4.431996,0.05784 c 0,1.226721 0.69425,2.152345 1.689467,2.152345 0.971976,0 1.701089,-0.914264 1.701089,-2.175456 0,-0.948995 -0.474497,-2.140854 -1.677978,-2.140854 -1.191728,1.3e-4 -1.712578,1.111034 -1.712578,2.163965 z"
       id="path10"
       inkscape:connector-curvature="0"
       style="fill:#e6522c;stroke-width:0.13057175" /><path
       d="m 32.921813,49.486558 c 0,-0.590185 -0.02311,-1.052932 -0.04622,-1.515808 h 0.891021 l 0.04622,0.914133 h 0.03474 c 0.312458,-0.53221 0.833179,-1.02995 1.770553,-1.02995 0.752224,0 1.330657,0.462877 1.573781,1.122525 h 0.02311 c 0.17366,-0.323949 0.405164,-0.555452 0.636537,-0.728982 0.335569,-0.254484 0.69425,-0.393543 1.226591,-0.393543 0.752224,0 1.851507,0.486118 1.851507,2.430071 v 3.28636 h -0.995087 v -3.159053 c 0,-1.087663 -0.405165,-1.7242 -1.215101,-1.7242 -0.590184,0 -1.029949,0.428144 -1.2151,0.914264 -0.04622,0.150418 -0.08095,0.323948 -0.08095,0.509099 v 3.45989 h -0.99509 V 50.21567 c 0,-0.891022 -0.393543,-1.527559 -1.168748,-1.527559 -0.624916,0 -1.099414,0.50923 -1.261323,1.018329 -0.05784,0.138929 -0.08095,0.32408 -0.08095,0.497739 v 3.367316 h -0.995218 v -4.084937 z"
       id="path12"
       inkscape:connector-curvature="0"
       style="fill:#e6522c;stroke-width:0.13057175" /><path
       d="m 43.140227,50.956273 c 0.02324,1.37701 0.891023,1.944083 1.920973,1.944083 0.728981,0 1.180368,-0.127438 1.55067,-0.289348 l 0.185151,0.728983 c -0.358812,0.161908 -0.983598,0.35868 -1.874619,0.35868 -1.724201,0 -2.754019,-1.145506 -2.754019,-2.834973 0,-1.689468 0.995086,-3.008765 2.626712,-3.008765 1.839886,0 2.314384,1.596892 2.314384,2.626842 0,0.208262 -0.01162,0.358681 -0.03474,0.474498 z m 2.985655,-0.729112 c 0.01162,-0.636408 -0.266106,-1.643116 -1.411743,-1.643116 -1.04144,0 -1.481205,0.937245 -1.56216,1.643116 z"
       id="path14"
       inkscape:connector-curvature="0"
       style="fill:#e6522c;stroke-width:0.13057175" /><path
       d="m 49.597784,46.628472 v 1.342278 h 1.458095 v 0.775335 h -1.458095 v 3.020255 c 0,0.69425 0.196772,1.087662 0.763845,1.087662 0.277727,0 0.439635,-0.02311 0.590185,-0.06933 l 0.04622,0.775336 c -0.196769,0.06947 -0.509097,0.138797 -0.90264,0.138797 -0.474367,0 -0.85629,-0.161909 -1.099284,-0.428014 C 48.718386,52.9582 48.602699,52.460722 48.602699,51.801073 V 48.746216 H 47.73492 v -0.775335 h 0.867779 v -1.04157 z"
       id="path16"
       inkscape:connector-curvature="0"
       style="fill:#e6522c;stroke-width:0.13057175" /><path
       d="m 52.201646,45.355528 h 1.01833 v 3.506374 h 0.02311 c 0.162039,-0.289347 0.416523,-0.555452 0.729113,-0.729113 0.300837,-0.173529 0.659517,-0.277726 1.04144,-0.277726 0.752224,0 1.955703,0.462877 1.955703,2.383849 v 3.332583 h -1.018328 v -3.217027 c 0,-0.902511 -0.33557,-1.654736 -1.296056,-1.654736 -0.659648,0 -1.168748,0.462877 -1.36552,1.006708 -0.05771,0.150419 -0.06933,0.300968 -0.06933,0.486119 v 3.378936 h -1.018331 v -8.215967 z"
       id="path18"
       inkscape:connector-curvature="0"
       style="fill:#e6522c;stroke-width:0.13057175" /><path
       d="m 59.191413,50.956273 c 0.02311,1.37701 0.890892,1.944083 1.920842,1.944083 0.728982,0 1.180237,-0.127438 1.550539,-0.289348 l 0.185151,0.728983 c -0.35868,0.161908 -0.983466,0.35868 -1.874489,0.35868 -1.724199,0 -2.754149,-1.145506 -2.754149,-2.834973 0,-1.689468 0.995217,-3.008765 2.626842,-3.008765 1.839887,0 2.314385,1.596892 2.314385,2.626842 0,0.208262 -0.01162,0.358681 -0.03486,0.474498 z m 2.985394,-0.729112 c 0.01162,-0.636408 -0.266106,-1.643116 -1.411743,-1.643116 -1.04157,0 -1.481205,0.937245 -1.562291,1.643116 z"
       id="path20"
       inkscape:connector-curvature="0"
       style="fill:#e6522c;stroke-width:0.13057175" /><path
       d="m 69.10873,52.032315 c 0,0.590315 0.01149,1.099283 0.04622,1.539049 h -0.902515 l -0.05784,-0.914133 h -0.02311 c -0.254615,0.451256 -0.85642,1.04144 -1.851507,1.04144 -0.879401,0 -1.932463,-0.497608 -1.932463,-2.453182 V 47.97075 h 1.01833 v 3.089588 c 0,1.064552 0.335438,1.793534 1.249571,1.793534 0.68276,0 1.157258,-0.474367 1.342408,-0.937244 0.05771,-0.138797 0.09258,-0.323948 0.09258,-0.52072 V 47.97075 h 1.018329 z"
       id="path22"
       inkscape:connector-curvature="0"
       style="fill:#e6522c;stroke-width:0.13057175" /><path
       d="m 70.659792,52.541544 c 0.312458,0.185151 0.844669,0.393544 1.353898,0.393544 0.728982,0 1.076042,-0.358812 1.076042,-0.833178 0,-0.486119 -0.289347,-0.740604 -1.02995,-1.018329 -1.018329,-0.370302 -1.492696,-0.914264 -1.492696,-1.585403 0,-0.902642 0.740603,-1.643245 1.932462,-1.643245 0.567073,0 1.064551,0.150419 1.365519,0.34719 l -0.242994,0.740603 c -0.219882,-0.138798 -0.624916,-0.335569 -1.145506,-0.335569 -0.601805,0 -0.925754,0.34719 -0.925754,0.763844 0,0.462877 0.323818,0.671139 1.052931,0.960355 0.960355,0.358681 1.469585,0.8448 1.469585,1.677978 0,0.995087 -0.775335,1.689337 -2.082881,1.689337 -0.613296,0 -1.180237,-0.161908 -1.57378,-0.393412 z"
       id="path24"
       inkscape:connector-curvature="0"
       style="fill:#e6522c;stroke-width:0.13057175" /></g></g>
</svg>