<svg xmlns="http://www.w3.org/2000/svg" width="120" height="60"><path d="M17.233 24.825c-1.008-1.37-2.6-2.196-4.332-2.196-2.98 0-5.4 2.444-5.4 5.446 0 4.934 6.514 11.102 9.733 11.102 3.212 0 9.733-6.168 9.733-11.102 0-3-2.422-5.446-5.4-5.446a5.37 5.37 0 0 0-4.332 2.196z" fill="#ff661b"/><path d="M45.544 33.64a4.65 4.65 0 0 1-.978 1.452 4.14 4.14 0 0 1-1.43.978 4.18 4.18 0 0 1-1.76.376 4.21 4.21 0 0 1-1.768-.376c-.557-.226-1.038-.564-1.43-.978-.414-.406-.73-.888-.978-1.444-.226-.55-.346-1.143-.346-1.768a4.51 4.51 0 0 1 .354-1.76c.248-.557.564-1.038.978-1.452.4-.406.872-.737 1.43-.978.527-.24 1.128-.36 1.76-.36a4.36 4.36 0 0 1 1.768.36c.542.24 1.015.572 1.43.978a4.95 4.95 0 0 1 .963 1.46c.226.55.354 1.128.354 1.753a4.47 4.47 0 0 1-.354 1.76zm.933-6.897c-1.43-1.414-3.12-2.13-5.1-2.13-1.73 0-3.234.542-4.513 1.6v-5.4H34.18V31.88c0 2.008.7 3.723 2.106 5.145 1.407 1.414 3.106 2.13 5.092 2.13 1.978 0 3.67-.715 5.1-2.13 1.407-1.407 2.106-3.114 2.106-5.145 0-1-.173-1.933-.527-2.783-.354-.872-.88-1.655-1.58-2.354zm47.107 6.897a4.79 4.79 0 0 1-.978 1.452c-.4.414-.88.752-1.43.978a4.18 4.18 0 0 1-1.76.376 4.26 4.26 0 0 1-1.768-.376 4.28 4.28 0 0 1-1.429-.978 4.66 4.66 0 0 1-.955-1.444 4.62 4.62 0 0 1-.354-1.76 4.52 4.52 0 0 1 .361-1.76c.24-.557.557-1.038.963-1.444a4.35 4.35 0 0 1 1.429-.978 4.19 4.19 0 0 1 1.768-.376c.64 0 1.226.128 1.775.376a4.6 4.6 0 0 1 1.429.978 5.08 5.08 0 0 1 .978 1.452 4.56 4.56 0 0 1 .346 1.76c0 .624-.12 1.203-.354 1.76zm.933-6.897c-1.43-1.414-3.136-2.13-5.115-2.13a6.91 6.91 0 0 0-5.085 2.129c-1.407 1.43-2.106 3.136-2.106 5.145s.7 3.723 2.106 5.145c1.407 1.414 3.106 2.13 5.092 2.13 1.978 0 3.686-.715 5.115-2.13 1.4-1.407 2.106-3.114 2.106-5.137a7.64 7.64 0 0 0-.542-2.783c-.346-.857-.872-1.64-1.58-2.354zm14.968 6.897a4.79 4.79 0 0 1-.978 1.452c-.4.414-.88.752-1.43.978a4.2 4.2 0 0 1-1.76.376c-.64 0-1.226-.128-1.775-.376a4.28 4.28 0 0 1-1.429-.978 4.44 4.44 0 0 1-.955-1.444 4.38 4.38 0 0 1-.354-1.768 4.38 4.38 0 0 1 .354-1.76 4.43 4.43 0 0 1 .955-1.452 4.64 4.64 0 0 1 1.429-.978 4.33 4.33 0 0 1 1.775-.361 4.36 4.36 0 0 1 1.76.361c.55.24 1.03.572 1.43.978a4.84 4.84 0 0 1 .978 1.46 4.55 4.55 0 0 1 .346 1.753c0 .624-.12 1.203-.354 1.76zm2.5-4.543c-.346-.857-.873-1.64-1.58-2.354-1.414-1.414-3.114-2.13-5.085-2.13-1.993 0-3.686.715-5.092 2.13-1.414 1.43-2.12 3.136-2.12 5.137a7.07 7.07 0 0 0 2.106 5.145c1.414 1.414 3.106 2.13 5.1 2.13 1.97 0 3.67-.715 5.092-2.13 1.407-1.407 2.106-3.114 2.106-5.145 0-1-.18-1.933-.526-2.783zm-34.48 4.543c-.226.55-.557 1.03-.963 1.452-.406.414-.888.752-1.43.978a4.29 4.29 0 0 1-1.768.376 4.27 4.27 0 0 1-1.775-.376 4.15 4.15 0 0 1-1.43-.978c-.406-.406-.73-.888-.963-1.444a4.63 4.63 0 0 1-.354-1.768 4.51 4.51 0 0 1 .354-1.76 4.57 4.57 0 0 1 .955-1.452 4.47 4.47 0 0 1 1.429-.978c.542-.24 1.128-.36 1.768-.36a4.36 4.36 0 0 1 1.76.361 4.73 4.73 0 0 1 1.429.978c.406.43.73.903.963 1.46a4.31 4.31 0 0 1 .354 1.753 4.35 4.35 0 0 1-.354 1.76zm.354-7.424c-1.3-1.068-2.806-1.602-4.513-1.602-1.986 0-3.686.715-5.092 2.13a7.05 7.05 0 0 0-2.106 5.137c0 2.008.7 3.723 2.106 5.145 1.407 1.414 3.106 2.13 5.092 2.13 1.97 0 3.67-.715 5.092-2.13 1.407-1.407 2.106-3.114 2.106-5.145V20.824H77.86zm-20.556 10.23c-2.505 0-4.528-2.046-4.528-4.566 0-2.512 2.03-4.558 4.513-4.558 2.497 0 4.528 2.046 4.528 4.558 0 2.52-2.03 4.566-4.513 4.566zm7.2-4.566c0-4-3.22-7.266-7.198-7.266-3.986 0-7.22 3.257-7.22 7.266 0 4.016 3.234 7.273 7.22 7.273 1.753 0 3.362-.64 4.618-1.7v1.707h2.572v-7.273z" fill="#7000e3"/></svg>