<svg xmlns="http://www.w3.org/2000/svg" width="64" height="64" viewBox="0 0 32 32"><path d="M14.615 31.9c-3.13-.52-5.4-3.033-5.413-5.97-.002-1.567.392-2.553 1.76-4.403 1.77-2.394 2.1-3.07 1.632-3.452-.374-.312-.363-.33.267-.45.963-.183 1.004-.736.07-.966-.36-.1-.317-.175.25-.5.773-.442.746-.708-.08-.802-.524-.06-.524-.073.036-.555.64-.55.518-.934-.295-.934-.428 0-.46-.182-.077-.454.565-.402.37-.918-.348-.92-.548-.01-.603-.106-.24-.457.5-.494.392-.824-.293-.824-.46 0-.53-.18-.16-.423.603-.395.432-.798-.318-.753-.5.03-.56-.1-.17-.425 1.026-.85 1.084-1.2.264-1.582-1.155-.538-1.655-1.212-.9-1.215 1.188-.01 1.742-.337 2.557-1.538.548-.806.58-.743-.76-1.442-1.238-.646-1.725-1.1-2.158-2.012-.338-.7-.575-2.17-.285-1.75 1.142 1.652 1.352 1.774 4.118 2.396 2.85.64 3.216.817 4.626 2.227 1.064 1.064 1.986 1.64 3.174 1.98.787.225 1.007.482.93 1.085-.236 1.856-1.303 2.22-4.26 1.45-1.424-.37-1.502-.25-.556.856.378.443.46.594.417.785s-.007.257.18.342c.155.07.233.18.233.326 0 .157.077.252.272.332.405.168.5.334.52.922.023.628.316 1.368.542 1.368.63 0 2.604-1.35 2.604-1.78 0-.116.2-.473.467-.794.65-.812.905-1.36 1.05-2.258.216-1.332.747-1.944.634-.73-.096 1.024.074 1.376.375.777.286-.57 1.504-1.663 1.504-1.35 0 .052-.163.42-.363.817-.728 1.447-.7 1.944.096 1.75.417-.1.915-.026.973.148.017.052-.297.286-.698.52-1.386.805-1.703 1.27-1.016 1.493.822.265.218.726-.846.644l-.723-.056-.12.295a6.59 6.59 0 0 0-.236.799c-.22.96-.53 1.274-2.15 2.183-1.275.715-1.222.653-.9 1.032a2.93 2.93 0 0 0 .8.57c.346.17.557.344.66.544.28.544.607.577 1.12.112.386-.35.763-.416 1.07-.2.17.126.17.134-.08.23-.516.197-.278.423.413.4.568-.026.627-.01.936.26.543.477.453.625-.27.443-.5-.13-.844-.047-.975.24-.118.26.023.504.3.504.192 0 1 .85 1 1.05s-.116.178-.65-.093c-.254-.13-.872-.336-1.373-.46-1.213-.3-1.32-.243-1.385.74-.037.56-.2.447-.624-.412-.537-1.113-.882-1.42-1.186-1.053-.288.348-.516.017-.4-.6.115-.68-.256-.473-.543.303-.378 1.024-1.447 2.058-2.855 2.764-.784.393-.88.493-.88.918 0 .414-.116.483-.3.185-.274-.418-.676.238-.68 1.1-.002.557-.12.673-.4.402-.27-.254-.34-.204-.503.366-.584 2.048 1.34 4.442 3.57 4.442 1.14 0 1.98-.664 2.664-2.106.412-.87.513-.568.176.524-.73 2.368-2.94 3.55-5.76 3.082zm3.104-11.3c.137-.165-1.948-2.36-2.196-2.312-.37.07-.183.386.84 1.408 1.08 1.08 1.164 1.136 1.356.904zm.038-2.12c.084-.218-2.05-2.35-2.267-2.267-.3.115-.14.37.876 1.388s1.275 1.18 1.4.88zm.052-2.14c0-.176-2.096-2.195-2.28-2.195-.397 0-.173.35.903 1.414 1.063 1.05 1.375 1.227 1.375.78zm.44-10.1c.47-.47-.73-1.103-1.3-.687-.15.1-.135.145.212.458.393.355.863.454 1.1.23zM16.733 29.8c-.278-.112-.26-.24.06-.405 1.493-.772 1.542-3.2.106-5.316-.278-.407-.257-.44.605-.95.975-.577.927-.577 1.465.027 1.046 1.175 1.337 1.907 1.217 3.064-.272 2.634-1.82 4.236-3.453 3.58zm-9.108-9.38c-.913-.15-2.74-.73-3.026-.963-.187-.152-.17-.16.578-.22a11.6 11.6 0 0 0 1.393-.212l.62-.147.402.394c.398.4.7.453.7.147 0-.075-.38-.54-.843-1.033l-1.17-1.24c-.4-.438-.342-.5.4-.303.4.1.745.13 1.022.1.417-.062.418-.062.996.5.392.388.626.556.724.518.275-.106.143-.38-.496-1.022-.553-.556-.66-.72-.78-1.184-.172-.66-.637-1.56-1.293-2.502-.615-.883-.52-.925.444-.198 1.773 1.345 3.456 3.27 3.803 4.375.164.52.64 1.1.896 1.1.265 0-.224 1.212-.618 1.534-.464.38-2.44.56-3.754.346z" fill="#113c5b"/></svg>