<?xml version="1.0" encoding="UTF-8" standalone="no"?>
<svg
   xmlns:dc="http://purl.org/dc/elements/1.1/"
   xmlns:cc="http://creativecommons.org/ns#"
   xmlns:rdf="http://www.w3.org/1999/02/22-rdf-syntax-ns#"
   xmlns:svg="http://www.w3.org/2000/svg"
   xmlns="http://www.w3.org/2000/svg"
   xmlns:sodipodi="http://sodipodi.sourceforge.net/DTD/sodipodi-0.dtd"
   xmlns:inkscape="http://www.inkscape.org/namespaces/inkscape"
   id="Layer_1"
   data-name="Layer 1"
   viewBox="0 0 64 64"
   version="1.1"
   sodipodi:docname="lightbend-icon.svg"
   width="64"
   height="64"
   inkscape:version="0.92.3 (2405546, 2018-03-11)">
  <metadata
     id="metadata33">
    <rdf:RDF>
      <cc:Work
         rdf:about="">
        <dc:format>image/svg+xml</dc:format>
        <dc:type
           rdf:resource="http://purl.org/dc/dcmitype/StillImage" />
        <dc:title>logos</dc:title>
      </cc:Work>
    </rdf:RDF>
  </metadata>
  <defs
     id="defs31" />
  <sodipodi:namedview
     pagecolor="#ffffff"
     bordercolor="#666666"
     borderopacity="1"
     objecttolerance="10"
     gridtolerance="10"
     guidetolerance="10"
     inkscape:pageopacity="0"
     inkscape:pageshadow="2"
     inkscape:window-width="1344"
     inkscape:window-height="842"
     id="namedview29"
     showgrid="false"
     inkscape:zoom="3.39"
     inkscape:cx="59.465323"
     inkscape:cy="47.256483"
     inkscape:window-x="0"
     inkscape:window-y="0"
     inkscape:window-maximized="0"
     inkscape:current-layer="Layer_1" />
  <title
     id="title2">logos</title>
  <g
     id="icon"
     transform="matrix(0.81705604,0,0,0.81705604,-32.682241,-70.132005)">
    <path
       d="m 40,141.71 v 14.62 a 2.61,2.61 0 0 0 2.61,2.61 h 73.11 a 2.61,2.61 0 0 0 2.61,-2.61 V 141.71 A 145.65,145.65 0 0 1 79.17,146.93 145.65,145.65 0 0 1 40,141.71 Z"
       id="path23"
       inkscape:connector-curvature="0"
       style="fill:#ff931e" />
    <path
       d="M 115.72,91.06 H 42.61 A 2.62,2.62 0 0 0 40,93.67 v 43.08 a 142.61,142.61 0 0 0 78.33,0 V 93.67 a 2.61,2.61 0 0 0 -2.61,-2.61 z"
       id="path25"
       inkscape:connector-curvature="0"
       style="fill:#ff931e" />
  </g>
</svg>
