<svg xmlns="http://www.w3.org/2000/svg" width="120" height="60"><path d="M63.6 33.65c-.002.585-.182 1.174-.705 1.632s-1.425.808-2.92.808h-3v-4.83h2.876c1.342 0 2.294.273 2.9.697a1.97 1.97 0 0 1 .869 1.691m-2.448-5.78c.56-.403.83-.975.834-1.832-.002-.588-.17-1.092-.594-1.468s-1.145-.644-2.308-.644h-2.13V28.5h1.46c1.265 0 2.172-.225 2.736-.632m5.678 6.135c.008-2.232-1.478-3.928-3.857-4.58.643-.328 1.15-.73 1.522-1.218.496-.656.735-1.46.73-2.397a4.27 4.27 0 0 0-1.422-3.202c-.973-.878-2.45-1.446-4.463-1.445h-5.563v17.7h6.53c2.33 0 3.964-.632 5.017-1.568a4.36 4.36 0 0 0 1.505-3.282m6.2 8.278h-26.1V17.72h26.1zm-41.96-14.42c.56-.403.83-.975.835-1.832-.001-.588-.17-1.092-.594-1.468s-1.146-.644-2.3-.644H26.9V28.5h1.46c1.264 0 2.17-.225 2.735-.632m1.562 4.1c-.596-.424-1.55-.697-2.9-.697H26.9V36.1h3c1.496 0 2.397-.35 2.92-.808s.704-1.047.705-1.632a1.97 1.97 0 0 0-.87-1.69m4.13 2.044c.008-2.232-1.48-3.928-3.856-4.58.64-.328 1.148-.73 1.52-1.218.5-.656.735-1.46.733-2.397a4.28 4.28 0 0 0-1.423-3.202c-.972-.878-2.448-1.446-4.462-1.445h-5.564v17.7h6.53c2.33 0 3.964-.632 5.017-1.568s1.508-2.155 1.506-3.282m6.2 8.278h-26.1V17.72h26.1zm54.954-8.17l-.42.256c-2.02 1.234-4.22 1.896-6.216 1.895-4.275-.017-7.1-2.55-7.1-6.235.005-3.607 2.944-6.276 7-6.285 2.062.001 3.93.534 6.148 1.75l.408.224V22.43l-.175-.07c-2.502-.987-4.44-1.427-6.353-1.426-2.96-.001-5.527.976-7.356 2.634s-2.915 4-2.913 6.7c.001 1.874.773 4.07 2.43 5.8 1.65 1.743 4.193 3.013 7.68 3.012h.012c2.892 0 4.897-.644 6.7-1.538l.154-.075zm5.183 8.164h-26.1V17.72h26.1z"/></svg>