<?xml version="1.0" encoding="UTF-8" standalone="no"?>
<svg
   xmlns:dc="http://purl.org/dc/elements/1.1/"
   xmlns:cc="http://creativecommons.org/ns#"
   xmlns:rdf="http://www.w3.org/1999/02/22-rdf-syntax-ns#"
   xmlns:svg="http://www.w3.org/2000/svg"
   xmlns="http://www.w3.org/2000/svg"
   xmlns:sodipodi="http://sodipodi.sourceforge.net/DTD/sodipodi-0.dtd"
   xmlns:inkscape="http://www.inkscape.org/namespaces/inkscape"
   version="1.1"
   id="Layer_1"
   x="0px"
   y="0px"
   width="120"
   height="60"
   viewBox="0 0 120 59.999998"
   sodipodi:docname="papaparse-ar21.svg"
   inkscape:version="0.92.3 (2405546, 2018-03-11)">
  <metadata
     id="metadata35">
    <rdf:RDF>
      <cc:Work
         rdf:about="">
        <dc:format>image/svg+xml</dc:format>
        <dc:type
           rdf:resource="http://purl.org/dc/dcmitype/StillImage" />
        <dc:title></dc:title>
      </cc:Work>
    </rdf:RDF>
  </metadata>
  <defs
     id="defs33" />
  <sodipodi:namedview
     pagecolor="#ffffff"
     bordercolor="#666666"
     borderopacity="1"
     objecttolerance="10"
     gridtolerance="10"
     guidetolerance="10"
     inkscape:pageopacity="0"
     inkscape:pageshadow="2"
     inkscape:window-width="1920"
     inkscape:window-height="1001"
     id="namedview31"
     showgrid="false"
     inkscape:zoom="5.0222222"
     inkscape:cx="100.22335"
     inkscape:cy="22.414892"
     inkscape:window-x="-9"
     inkscape:window-y="-9"
     inkscape:window-maximized="1"
     inkscape:current-layer="Layer_1" />
  <g
     id="g51"
     transform="matrix(0.09300388,0,0,0.09300388,9.8279409,34.680189)">
    <g
       transform="translate(0,-161.10001)"
       id="g20">
      <path
         style="fill:#2080ab"
         inkscape:connector-curvature="0"
         id="path2"
         d="m 255.624,45.386 h 48.979 c 5.433,0 10.427,0.707 14.981,2.118 4.554,1.412 8.496,3.49 11.825,6.232 3.328,2.744 5.913,6.166 7.75,10.267 1.838,4.103 2.757,8.817 2.757,14.143 0,4.421 -0.907,8.589 -2.717,12.504 -1.811,3.915 -4.367,7.338 -7.669,10.267 -3.304,2.93 -7.259,5.247 -11.865,6.951 -4.608,1.706 -9.736,2.557 -15.381,2.557 h -21.493 v 42.347 h 12.145 v 13.742 h -39.311 v -13.742 h 11.506 V 59.208 H 255.625 V 45.386 Z m 27.165,13.822 V 97.32 h 21.813 c 3.036,0 5.818,-0.412 8.349,-1.238 2.529,-0.826 4.714,-2.038 6.552,-3.636 1.837,-1.598 3.276,-3.596 4.314,-5.993 1.039,-2.396 1.558,-5.166 1.558,-8.309 0,-5.965 -1.812,-10.613 -5.433,-13.943 -3.623,-3.328 -9.402,-4.994 -17.339,-4.994 h -19.814 z" />
      <path
         style="fill:#2080ab"
         inkscape:connector-curvature="0"
         id="path4"
         d="m 396.407,158.844 c -3.144,2.93 -6.619,5.326 -10.427,7.19 -3.809,1.863 -8.138,2.796 -12.984,2.796 -4.049,0 -7.764,-0.638 -11.146,-1.917 -3.383,-1.278 -6.299,-3.022 -8.749,-5.233 -2.451,-2.209 -4.354,-4.78 -5.712,-7.711 -1.359,-2.929 -2.038,-6.045 -2.038,-9.348 0,-3.516 0.52,-6.632 1.558,-9.349 1.039,-2.716 2.423,-5.072 4.155,-7.07 1.73,-1.999 3.755,-3.675 6.073,-5.034 2.317,-1.357 4.74,-2.449 7.271,-3.276 2.529,-0.825 5.114,-1.411 7.75,-1.758 2.636,-0.345 5.153,-0.52 7.55,-0.52 3.835,0 7.058,0.12 9.667,0.36 2.609,0.24 4.98,0.573 7.111,0.999 l 0.08,-6.792 c 0,-2.929 -0.427,-5.473 -1.279,-7.63 -0.852,-2.157 -2.051,-3.941 -3.595,-5.353 -1.545,-1.411 -3.396,-2.463 -5.553,-3.156 -2.157,-0.692 -4.568,-1.039 -7.23,-1.039 -2.504,0 -4.901,0.173 -7.191,0.519 -2.291,0.347 -4.435,0.799 -6.432,1.358 -1.997,0.559 -3.835,1.198 -5.513,1.918 -1.678,0.719 -3.104,1.478 -4.275,2.277 l -4.874,-10.307 c 1.97,-1.278 4.127,-2.463 6.472,-3.556 2.343,-1.091 4.806,-2.023 7.391,-2.796 2.583,-0.772 5.22,-1.385 7.91,-1.838 2.69,-0.452 5.34,-0.679 7.95,-0.679 4.794,0 9.109,0.573 12.944,1.718 3.835,1.146 7.084,2.917 9.748,5.313 2.663,2.397 4.714,5.447 6.152,9.148 1.438,3.703 2.157,8.137 2.157,13.303 l -0.08,41.389 h 9.189 v 13.742 h -24.05 z m -20.135,-2.478 c 1.97,0 3.941,-0.239 5.912,-0.719 1.97,-0.479 3.835,-1.131 5.594,-1.957 1.757,-0.825 3.382,-1.784 4.874,-2.876 1.491,-1.093 2.743,-2.224 3.755,-3.397 l 0.08,-18.696 h -17.258 c -2.876,0 -5.5,0.32 -7.87,0.96 -2.372,0.639 -4.422,1.571 -6.152,2.797 -1.731,1.225 -3.076,2.743 -4.035,4.554 -0.959,1.811 -1.438,3.889 -1.438,6.23 0,2.186 0.4,4.091 1.199,5.714 0.799,1.626 1.93,2.983 3.396,4.075 1.464,1.093 3.208,1.917 5.233,2.478 2.022,0.558 4.259,0.837 6.71,0.837 z" />
      <path
         style="fill:#2080ab"
         inkscape:connector-curvature="0"
         id="path6"
         d="m 433.959,83.738 h 26.367 v 6.871 c 3.516,-2.717 7.351,-4.874 11.506,-6.472 4.154,-1.598 8.442,-2.397 12.863,-2.397 5.434,0 10.414,1.013 14.942,3.037 4.526,2.025 8.429,4.874 11.705,8.549 3.276,3.675 5.819,8.083 7.631,13.224 1.811,5.141 2.717,10.826 2.717,17.058 0,6.659 -1.013,12.731 -3.037,18.216 -2.025,5.488 -4.834,10.189 -8.429,14.104 -3.595,3.915 -7.87,6.965 -12.824,9.147 -4.954,2.185 -10.387,3.275 -16.3,3.275 -4.208,0 -7.949,-0.438 -11.225,-1.316 -3.276,-0.88 -6.405,-2.011 -9.388,-3.396 v 26.766 h 12.943 v 13.743 h -39.311 v -13.743 h 11.346 V 97.48 H 433.96 V 83.738 Z m 46.822,11.106 c -3.836,0 -7.525,0.772 -11.067,2.317 -3.542,1.545 -6.619,3.675 -9.228,6.392 v 44.824 c 1.758,1.812 4.274,3.436 7.551,4.874 3.276,1.438 7.363,2.156 12.264,2.156 3.408,0 6.684,-0.664 9.828,-1.997 3.143,-1.331 5.912,-3.316 8.31,-5.952 2.396,-2.637 4.314,-5.898 5.752,-9.788 1.438,-3.888 2.157,-8.389 2.157,-13.504 0,-4.686 -0.68,-8.84 -2.037,-12.463 -1.358,-3.622 -3.196,-6.685 -5.514,-9.188 -2.316,-2.503 -5.021,-4.407 -8.11,-5.713 -3.089,-1.305 -6.392,-1.958 -9.906,-1.958 z" />
      <path
         style="fill:#2080ab"
         inkscape:connector-curvature="0"
         id="path8"
         d="m 585.688,158.844 c -3.144,2.93 -6.619,5.326 -10.428,7.19 -3.809,1.863 -8.136,2.796 -12.982,2.796 -4.049,0 -7.765,-0.638 -11.146,-1.917 -3.384,-1.278 -6.3,-3.022 -8.75,-5.233 -2.449,-2.209 -4.354,-4.78 -5.711,-7.711 -1.359,-2.929 -2.038,-6.045 -2.038,-9.348 0,-3.516 0.52,-6.632 1.557,-9.349 1.039,-2.716 2.423,-5.072 4.155,-7.07 1.73,-1.999 3.755,-3.675 6.073,-5.034 2.316,-1.357 4.739,-2.449 7.271,-3.276 2.529,-0.825 5.112,-1.411 7.75,-1.758 2.638,-0.345 5.154,-0.52 7.551,-0.52 3.835,0 7.058,0.12 9.668,0.36 2.608,0.24 4.979,0.573 7.111,0.999 l 0.079,-6.792 c 0,-2.929 -0.427,-5.473 -1.278,-7.63 -0.851,-2.157 -2.051,-3.941 -3.595,-5.353 -1.546,-1.411 -3.396,-2.463 -5.553,-3.156 -2.157,-0.692 -4.568,-1.039 -7.231,-1.039 -2.504,0 -4.901,0.173 -7.191,0.519 -2.291,0.347 -4.435,0.799 -6.432,1.358 -1.997,0.559 -3.836,1.198 -5.513,1.918 -1.678,0.719 -3.104,1.478 -4.275,2.277 l -4.874,-10.307 c 1.97,-1.278 4.127,-2.463 6.473,-3.556 2.343,-1.091 4.807,-2.023 7.39,-2.796 2.584,-0.772 5.221,-1.385 7.911,-1.838 2.688,-0.452 5.339,-0.679 7.95,-0.679 4.793,0 9.107,0.573 12.943,1.718 3.836,1.146 7.083,2.917 9.748,5.313 2.663,2.397 4.713,5.447 6.151,9.148 1.438,3.703 2.157,8.137 2.157,13.303 l -0.079,41.389 h 9.188 v 13.742 h -24.05 z m -20.134,-2.478 c 1.97,0 3.941,-0.239 5.912,-0.719 1.97,-0.479 3.836,-1.131 5.594,-1.957 1.758,-0.825 3.381,-1.784 4.873,-2.876 1.49,-1.093 2.742,-2.224 3.756,-3.397 l 0.08,-18.696 h -17.258 c -2.878,0 -5.501,0.32 -7.87,0.96 -2.371,0.639 -4.423,1.571 -6.153,2.797 -1.731,1.225 -3.076,2.743 -4.034,4.554 -0.96,1.811 -1.438,3.889 -1.438,6.23 0,2.186 0.399,4.091 1.198,5.714 0.799,1.626 1.93,2.983 3.396,4.075 1.463,1.093 3.208,1.917 5.232,2.478 2.023,0.558 4.261,0.837 6.712,0.837 z" />
      <path
         style="fill:#2080ab"
         inkscape:connector-curvature="0"
         id="path10"
         d="m 665.748,45.386 h 48.978 c 5.434,0 10.427,0.707 14.981,2.118 4.554,1.412 8.495,3.49 11.824,6.232 3.329,2.744 5.913,6.166 7.751,10.267 1.837,4.103 2.757,8.817 2.757,14.143 0,4.421 -0.907,8.589 -2.716,12.504 -1.812,3.915 -4.369,7.338 -7.672,10.267 -3.302,2.93 -7.258,5.247 -11.864,6.951 -4.608,1.706 -9.734,2.557 -15.382,2.557 h -21.491 v 42.347 h 12.144 v 13.742 h -39.31 v -13.742 h 11.506 V 59.208 h -11.506 z m 27.166,13.822 V 97.32 h 21.812 c 3.037,0 5.819,-0.412 8.351,-1.238 2.529,-0.826 4.713,-2.038 6.551,-3.636 1.838,-1.598 3.276,-3.596 4.315,-5.993 1.038,-2.396 1.558,-5.166 1.558,-8.309 0,-5.965 -1.812,-10.613 -5.434,-13.943 -3.623,-3.328 -9.401,-4.994 -17.337,-4.994 h -19.816 z" />
      <path
         style="fill:#2080ab"
         inkscape:connector-curvature="0"
         id="path12"
         d="m 806.531,158.844 c -3.144,2.93 -6.619,5.326 -10.427,7.19 -3.81,1.863 -8.138,2.796 -12.983,2.796 -4.049,0 -7.765,-0.638 -11.146,-1.917 -3.383,-1.278 -6.3,-3.022 -8.75,-5.233 -2.449,-2.209 -4.353,-4.78 -5.711,-7.711 -1.358,-2.929 -2.038,-6.045 -2.038,-9.348 0,-3.516 0.52,-6.632 1.558,-9.349 1.038,-2.716 2.423,-5.072 4.155,-7.07 1.729,-1.999 3.755,-3.675 6.073,-5.034 2.315,-1.357 4.739,-2.449 7.27,-3.276 2.53,-0.825 5.113,-1.411 7.75,-1.758 2.638,-0.345 5.154,-0.52 7.551,-0.52 3.835,0 7.058,0.12 9.668,0.36 2.609,0.24 4.98,0.573 7.111,0.999 l 0.079,-6.792 c 0,-2.929 -0.427,-5.473 -1.277,-7.63 -0.853,-2.157 -2.052,-3.941 -3.596,-5.353 -1.546,-1.411 -3.396,-2.463 -5.553,-3.156 -2.157,-0.692 -4.568,-1.039 -7.231,-1.039 -2.504,0 -4.901,0.173 -7.19,0.519 -2.291,0.347 -4.436,0.799 -6.432,1.358 -1.998,0.559 -3.836,1.198 -5.514,1.918 -1.678,0.719 -3.104,1.478 -4.275,2.277 l -4.874,-10.307 c 1.97,-1.278 4.128,-2.463 6.473,-3.556 2.343,-1.091 4.807,-2.023 7.39,-2.796 2.584,-0.772 5.221,-1.385 7.911,-1.838 2.688,-0.452 5.339,-0.679 7.95,-0.679 4.794,0 9.107,0.573 12.943,1.718 3.836,1.146 7.084,2.917 9.748,5.313 2.663,2.397 4.713,5.447 6.151,9.148 1.438,3.703 2.157,8.137 2.157,13.303 l -0.079,41.389 h 9.188 v 13.742 h -24.05 z m -20.135,-2.478 c 1.97,0 3.941,-0.239 5.912,-0.719 1.97,-0.479 3.836,-1.131 5.594,-1.957 1.758,-0.825 3.382,-1.784 4.873,-2.876 1.491,-1.093 2.743,-2.224 3.756,-3.397 l 0.08,-18.696 h -17.259 c -2.876,0 -5.5,0.32 -7.869,0.96 -2.371,0.639 -4.422,1.571 -6.153,2.797 -1.731,1.225 -3.076,2.743 -4.035,4.554 -0.958,1.811 -1.438,3.889 -1.438,6.23 0,2.186 0.4,4.091 1.198,5.714 0.799,1.626 1.93,2.983 3.396,4.075 1.465,1.093 3.209,1.917 5.233,2.478 2.025,0.558 4.261,0.837 6.712,0.837 z" />
      <path
         style="fill:#2080ab"
         inkscape:connector-curvature="0"
         id="path14"
         d="m 906.885,101.235 h -15.181 v -5.113 c -1.758,0 -3.557,0.333 -5.394,0.999 -1.838,0.667 -3.556,1.679 -5.153,3.036 -1.598,1.359 -2.995,3.09 -4.195,5.194 -1.197,2.105 -2.064,4.594 -2.596,7.471 v 39.95 h 14.062 v 13.742 H 847.36 v -13.742 h 11.426 l 0.08,-55.291 H 847.36 V 83.738 h 26.447 v 11.425 c 0.959,-1.704 2.037,-3.288 3.235,-4.753 1.199,-1.465 2.53,-2.743 3.996,-3.835 1.464,-1.091 3.088,-1.945 4.873,-2.558 1.783,-0.611 3.716,-0.918 5.793,-0.918 2.769,0 5.38,0 7.83,0 2.449,0 4.9,0.054 7.351,0.16 z" />
      <path
         style="fill:#2080ab"
         inkscape:connector-curvature="0"
         id="path16"
         d="m 970.285,100.237 c -1.039,-1.571 -2.385,-2.849 -4.035,-3.835 -1.652,-0.985 -3.49,-1.704 -5.515,-2.157 -2.024,-0.452 -3.994,-0.679 -5.911,-0.679 -2.132,0 -4.089,0.239 -5.873,0.719 -1.785,0.479 -3.316,1.172 -4.594,2.077 -1.279,0.906 -2.277,2.012 -2.996,3.316 -0.719,1.305 -1.08,2.756 -1.08,4.354 0,2.771 0.84,4.967 2.518,6.592 1.678,1.626 4.486,3.13 8.43,4.514 l 15.9,5.594 c 6.817,2.29 11.797,5.407 14.94,9.349 3.143,3.942 4.715,8.656 4.715,14.142 0,3.676 -0.732,7.046 -2.198,10.107 -1.465,3.063 -3.543,5.673 -6.231,7.83 -2.69,2.157 -5.927,3.836 -9.708,5.033 -3.783,1.199 -7.99,1.798 -12.624,1.798 -6.445,0 -11.693,-1.039 -15.741,-3.116 -4.049,-2.077 -7.164,-4.819 -9.349,-8.229 h -8.309 v -13.743 h 16.539 c 0,2.291 0.492,4.249 1.479,5.874 0.984,1.625 2.288,2.943 3.914,3.954 1.625,1.014 3.462,1.758 5.513,2.237 2.051,0.479 4.141,0.72 6.272,0.72 2.078,0 4.075,-0.252 5.993,-0.759 1.916,-0.506 3.607,-1.252 5.073,-2.237 1.465,-0.985 2.623,-2.169 3.476,-3.556 0.852,-1.385 1.278,-2.957 1.278,-4.714 0,-2.664 -0.866,-4.928 -2.597,-6.792 -1.731,-1.864 -4.675,-3.542 -8.83,-5.033 l -15.819,-5.913 c -6.444,-2.289 -11.225,-5.206 -14.342,-8.748 -3.116,-3.543 -4.675,-7.977 -4.675,-13.304 0,-3.517 0.652,-6.765 1.958,-9.749 1.305,-2.982 3.195,-5.553 5.673,-7.71 2.477,-2.157 5.499,-3.848 9.069,-5.073 3.567,-1.225 7.643,-1.837 12.225,-1.837 5.911,0 10.865,0.827 14.86,2.477 3.996,1.651 7.591,4.474 10.787,8.469 h 7.751 v 13.743 H 971.84 c 0.002,-2.239 -0.518,-4.143 -1.555,-5.715 z" />
      <path
         style="fill:#2080ab"
         inkscape:connector-curvature="0"
         id="path18"
         d="m 1017.466,127.043 c 0,2.345 0.172,4.489 0.52,6.433 0.347,1.944 0.839,3.795 1.479,5.553 1.97,5.326 5.125,9.336 9.468,12.024 4.34,2.69 9.255,4.035 14.741,4.035 4.314,0 8.511,-0.599 12.584,-1.797 4.075,-1.199 8.35,-3.077 12.824,-5.634 l 5.992,10.147 c -5.433,3.729 -10.894,6.499 -16.38,8.31 -5.486,1.811 -11.185,2.716 -17.097,2.716 -5.594,0 -10.774,-0.933 -15.541,-2.796 -4.769,-1.864 -8.869,-4.635 -12.305,-8.31 -3.437,-3.675 -6.126,-8.256 -8.07,-13.742 -1.944,-5.485 -2.917,-11.879 -2.917,-19.177 0,-5.912 0.826,-11.492 2.478,-16.739 1.65,-5.246 4.114,-9.827 7.391,-13.742 3.277,-3.915 7.338,-7.018 12.186,-9.309 4.846,-2.29 10.492,-3.436 16.938,-3.436 6.232,0 11.439,0.946 15.621,2.837 4.181,1.891 7.59,4.394 10.228,7.51 2.637,3.116 4.635,6.672 5.992,10.667 1.357,3.995 2.303,8.07 2.837,12.224 0.265,2.024 0.438,4.075 0.519,6.153 0.08,2.077 0.12,4.101 0.12,6.071 h -59.608 z m 23.251,-32.999 c -3.463,0 -6.485,0.493 -9.069,1.479 -2.583,0.986 -4.781,2.397 -6.59,4.235 -1.812,1.838 -3.266,4.088 -4.355,6.752 -1.093,2.664 -1.905,5.646 -2.438,8.947 h 42.906 c -0.213,-3.088 -0.707,-5.938 -1.478,-8.548 -0.773,-2.609 -1.957,-4.874 -3.557,-6.792 -1.597,-1.918 -3.648,-3.408 -6.151,-4.474 -2.504,-1.065 -5.593,-1.599 -9.268,-1.599 z" />
    </g>
    <g
       transform="translate(0,-161.10001)"
       id="g28">
      <polygon
         style="fill:#dc1431"
         id="polygon22"
         points="189.489,172.196 204.98,37.903 103.416,1.685 1.85,37.903 17.341,172.196 103.416,219.87 " />
      <polygon
         style="fill:#c30e2f"
         id="polygon24"
         points="204.98,37.903 103.416,1.685 103.416,25.903 103.416,25.794 103.416,136.305 103.416,219.87 189.489,172.196 " />
      <path
         style="fill:#ffffff"
         inkscape:connector-curvature="0"
         id="path26"
         d="M 103.416,25.794 39.923,168.16 v 0 h 23.673 v 0 L 76.36,136.305 h 53.892 l 12.764,31.855 v 0 h 23.673 v 0 z m 18.545,90.875 H 84.87 L 103.416,72.05 Z" />
    </g>
  </g>
</svg>
