<?xml version="1.0" encoding="UTF-8" standalone="no"?>
<svg
   xmlns:dc="http://purl.org/dc/elements/1.1/"
   xmlns:cc="http://creativecommons.org/ns#"
   xmlns:rdf="http://www.w3.org/1999/02/22-rdf-syntax-ns#"
   xmlns:svg="http://www.w3.org/2000/svg"
   xmlns="http://www.w3.org/2000/svg"
   xmlns:sodipodi="http://sodipodi.sourceforge.net/DTD/sodipodi-0.dtd"
   xmlns:inkscape="http://www.inkscape.org/namespaces/inkscape"
   width="120"
   height="60"
   viewBox="0 0 120 60"
   version="1.1"
   id="svg15"
   sodipodi:docname="postmark-ar21.svg"
   inkscape:version="0.92.3 (2405546, 2018-03-11)">
  <metadata
     id="metadata19">
    <rdf:RDF>
      <cc:Work
         rdf:about="">
        <dc:format>image/svg+xml</dc:format>
        <dc:type
           rdf:resource="http://purl.org/dc/dcmitype/StillImage" />
        <dc:title>Postmark app logo</dc:title>
      </cc:Work>
    </rdf:RDF>
  </metadata>
  <sodipodi:namedview
     pagecolor="#ffffff"
     bordercolor="#666666"
     borderopacity="1"
     objecttolerance="10"
     gridtolerance="10"
     guidetolerance="10"
     inkscape:pageopacity="0"
     inkscape:pageshadow="2"
     inkscape:window-width="1920"
     inkscape:window-height="1001"
     id="namedview17"
     showgrid="false"
     inkscape:zoom="5.6568543"
     inkscape:cx="53.902521"
     inkscape:cy="42.647597"
     inkscape:window-x="-9"
     inkscape:window-y="-9"
     inkscape:window-maximized="1"
     inkscape:current-layer="svg15" />
  <!-- Generator: Sketch 49.3 (51167) - http://www.bohemiancoding.com/sketch -->
  <title
     id="title2">Postmark app logo</title>
  <desc
     id="desc4">Created with Sketch.</desc>
  <defs
     id="defs6" />
  <g
     id="Page-1"
     style="fill:none;fill-rule:evenodd;stroke:none;stroke-width:1"
     transform="matrix(0.11805108,0,0,0.11805108,5.0000018,21.304014)">
    <g
       id="Postmark-app-logo"
       style="fill:#000000">
      <path
         d="m 165.19,114.9 h 15.77 V 132 H 130.8 v -17.1 h 15.58 V 16.29 H 130.8 V 0.14 h 53.01 c 34.2,0 50.54,11.97 50.54,40.28 0,28.31 -16.15,41.04 -50.54,41.04 h -18.62 z m 0,-49.21 h 15.77 c 22.23,0 33.25,-5.89 33.25,-24.7 0,-18.81 -11.02,-24.7 -33.25,-24.7 h -15.77 z m 167.51667,20.14 c 0,29.64 -19.38,48.83 -46.55,48.83 -27.17,0 -46.36,-19 -46.36,-48.83 0,-29.83 19.19,-48.83 46.36,-48.83 27.17,0 46.55,19.19 46.55,48.83 z m -46.55,31.73 c 16.91,0 27.93,-11.4 27.93,-31.92 0,-20.33 -10.64,-31.92 -27.93,-31.92 -17.1,0 -27.93,11.59 -27.93,31.92 0,20.33 11.21,31.92 27.93,31.92 z M 347.74333,132 v -31.35 h 14.82 c 1.33,12.16 10.45,19.38 24.13,19.38 11.21,0 18.05,-5.7 18.05,-12.73 0,-7.03 -5.7,-10.07 -16.91,-12.73 l -14.25,-3.23 c -17.86,-4.18 -26.22,-12.16 -26.22,-26.6 0,-15.39 13.49,-27.74 32.3,-27.74 9.69,0 18.05,3.23 24.7,9.31 v -7.03 h 14.25 v 30.21 h -14.25 c -0.95,-11.02 -10.26,-18.43 -23.75,-18.43 -9.88,0 -15.96,4.75 -15.96,11.97 0,6.84 5.13,9.88 15.01,11.97 l 15.77,3.23 c 17.67,3.8 26.22,12.35 26.22,26.41 0,17.67 -13.11,30.02 -34.01,30.02 -9.88,0 -18.62,-3.04 -25.08,-8.93 V 132 Z M 461.2,106.35 c 0,8.55 1.52,11.78 7.41,11.78 3.04,0 6.08,-0.95 9.88,-2.66 v 16.15 c -4.94,2.09 -9.88,3.04 -14.63,3.04 -17.1,0 -19.38,-8.93 -19.38,-25.46 V 54.67 H 432.32 V 39.28 h 12.16 V 26.93 L 461.2,13.06 v 26.22 h 17.29 V 54.67 H 461.2 Z m 59.55667,-52.82 c 11.59,-9.5 21.28,-14.25 31.92,-14.25 11.21,0 18.43,4.94 21.28,14.82 11.59,-9.88 21.85,-14.82 32.68,-14.82 19.19,0 22.42,12.16 22.42,33.06 v 43.32 h 13.49 V 132 h -30.78 V 70.63 c 0,-11.21 -3.8,-16.53 -11.59,-16.53 -8.17,0 -16.15,4.75 -24.89,14.25 v 47.31 h 13.49 V 132 h -30.78 V 70.82 c 0,-11.4 -3.8,-16.72 -11.78,-16.72 -8.17,0 -15.96,4.75 -24.7,14.25 v 47.31 h 13.49 V 132 h -44.08 v -16.34 h 13.49 V 54.67 h -13.49 V 39.28 h 29.83 z M 714.16333,132 v -8.74 c -9.31,7.6 -18.62,11.4 -29.45,11.4 -18.24,0 -30.4,-11.97 -30.4,-29.45 0,-18.24 13.11,-30.4 32.87,-30.4 7.03,0 15.77,2.28 26.41,6.65 v -5.51 c 0,-16.53 -5.89,-24.32 -19.57,-24.32 -9.88,0 -16.72,3.99 -22.42,11.97 l -16.15,-4.18 c 5.89,-14.25 20.14,-22.42 39.9,-22.42 26.41,0 34.96,12.73 34.96,38.57 v 40.09 h 14.06 V 132 Z m 0,-25.84 v -6.84 c -8.55,-5.13 -15.58,-8.36 -23.75,-8.36 -10.83,0 -17.86,5.7 -17.86,13.68 0,7.22 6.08,12.92 15.2,12.92 7.79,0 16.34,-3.99 26.41,-11.4 z M 767.8,115.66 V 54.67 H 753.05 V 39.28 h 32.70652 v 18.24 c 7.26812,-14.25 16.88768,-19.95 33.13406,-19.95 0.85507,0 3.63406,0 7.90942,0.19 v 17.86 c -2.77899,-0.19 -5.3442,-0.38 -7.90942,-0.38 -23.51449,0 -32.27899,12.16 -32.27899,35.91 v 24.51 h 18.59783 V 132 H 753.05 V 115.66 Z M 844.34667,15.53 h -13.3 V 0.14 h 30.02 v 115.52 h 13.49 V 132 h -43.51 v -16.34 h 13.3 z m 53.37976,39.14 H 884.82282 V 39.28 h 45.16261 v 15.39 h -11.49227 l -34.47681,27.36 33.67034,33.63 H 931.8 V 132 H 909.42032 L 861.63667,83.36 Z"
         id="Postmark"
         inkscape:connector-curvature="0" />
      <path
         d="M 0,15.977191 C 20.842448,4.5156021 47.538412,-0.77931978 80.087891,0.09242501 144.1543,6.1197688 162.64941,44.735003 229.82031,43.164691 c 56.07324,-1.698243 82.44141,-27.1875 82.44141,-27.1875 0,5.504053 0,8 0,8 0,0 -28.9961,24.603864 -85.06934,26.302106 C 160.02148,51.849609 143.2373,13.177734 79.170898,7.1503906 46.621419,6.2786458 20.23112,11.887579 0,23.977191 v -8.550113"
         id="Path-2"
         inkscape:connector-curvature="0"
         style="fill-opacity:0.2" />
      <path
         d="M 0,47.977191 C 20.842448,36.515602 47.538412,31.22068 80.087891,32.092425 144.1543,38.119769 162.64941,76.735003 229.82031,75.164691 c 56.07324,-1.698243 82.44141,-27.1875 82.44141,-27.1875 0,5.504053 0,8 0,8 0,0 -28.9961,24.603864 -85.06934,26.302106 C 160.02148,83.849609 143.2373,45.177734 79.170898,39.150391 46.621419,38.278646 20.23112,43.887579 0,55.977191 v -8.550113"
         id="Path-2-Copy"
         inkscape:connector-curvature="0"
         style="fill-opacity:0.2" />
      <path
         d="M 0,79.977191 C 20.842448,68.515602 47.538412,63.22068 80.087891,64.092425 144.1543,70.119769 162.64941,108.735 229.82031,107.16469 c 56.07324,-1.69824 82.44141,-27.187499 82.44141,-27.187499 0,5.504053 0,8 0,8 0,0 -28.9961,24.603869 -85.06934,26.302109 C 160.02148,115.84961 143.2373,77.177734 79.170898,71.150391 46.621419,70.278646 20.23112,75.887579 0,87.977191 v -8.550113"
         id="Path-2-Copy-2"
         inkscape:connector-curvature="0"
         style="fill-opacity:0.2" />
      <path
         d="M 0,112.97719 C 20.842448,101.5156 47.538412,96.22068 80.087891,97.092425 144.1543,103.11977 162.64941,141.735 229.82031,140.16469 c 56.07324,-1.69824 82.44141,-27.1875 82.44141,-27.1875 0,5.50405 0,8 0,8 0,0 -28.9961,24.60386 -85.06934,26.30211 C 160.02148,148.84961 143.2373,110.17773 79.170898,104.15039 46.621419,103.27865 20.23112,108.88758 0,120.97719 v -8.55011"
         id="Path-2-Copy-3"
         inkscape:connector-curvature="0"
         style="fill-opacity:0.2" />
    </g>
  </g>
</svg>
