<?xml version="1.0" encoding="UTF-8" standalone="no"?>
<svg
   xmlns:dc="http://purl.org/dc/elements/1.1/"
   xmlns:cc="http://creativecommons.org/ns#"
   xmlns:rdf="http://www.w3.org/1999/02/22-rdf-syntax-ns#"
   xmlns:svg="http://www.w3.org/2000/svg"
   xmlns="http://www.w3.org/2000/svg"
   xmlns:sodipodi="http://sodipodi.sourceforge.net/DTD/sodipodi-0.dtd"
   xmlns:inkscape="http://www.inkscape.org/namespaces/inkscape"
   width="32"
   height="32"
   version="1.1"
   id="svg48"
   sodipodi:docname="slack-icon.svg"
   inkscape:version="0.92.2 (5c3e80d, 2017-08-06)">
  <metadata
     id="metadata54">
    <rdf:RDF>
      <cc:Work
         rdf:about="">
        <dc:format>image/svg+xml</dc:format>
        <dc:type
           rdf:resource="http://purl.org/dc/dcmitype/StillImage" />
        <dc:title>background</dc:title>
      </cc:Work>
    </rdf:RDF>
  </metadata>
  <defs
     id="defs52" />
  <sodipodi:namedview
     pagecolor="#ffffff"
     bordercolor="#666666"
     borderopacity="1"
     objecttolerance="10"
     gridtolerance="10"
     guidetolerance="10"
     inkscape:pageopacity="0"
     inkscape:pageshadow="2"
     inkscape:window-width="1920"
     inkscape:window-height="1001"
     id="namedview50"
     showgrid="false"
     inkscape:zoom="3.8353472"
     inkscape:cx="70.488246"
     inkscape:cy="19.189655"
     inkscape:window-x="-9"
     inkscape:window-y="-9"
     inkscape:window-maximized="1"
     inkscape:current-layer="svg48" />
  <title
     id="title2">background</title>
  <title
     id="title6">Layer 1</title>
  <g
     id="g42"
     transform="matrix(0.21732495,0,0,0.21732495,-0.31817044,-6.0551033)">
    <g
       id="g20">
      <path
         d="M 13.997,105.78 C 8.503,105.822 3.849,102.548 2.133,97.438 2.067,97.24 2.01,97.048 1.955,96.855 0.085,90.311 3.711,83.465 10.21,81.273 L 114.45,46.35 c 1.267,-0.363 2.543,-0.548 3.807,-0.556 5.64,-0.044 10.422,3.302 12.18,8.52 l 0.156,0.504 c 1.95,6.816 -2.895,12.9 -8.7,14.85 -0.004,0.003 -1.06,0.36 -103.662,35.39 -1.387,0.472 -2.81,0.71 -4.233,0.723 z"
         id="path18"
         inkscape:connector-curvature="0"
         style="fill:#70cadb" />
    </g>
    <g
       id="g24">
      <path
         d="m 31.372,157.045 c -5.537,0.04 -10.207,-3.187 -11.903,-8.224 -0.064,-0.193 -0.125,-0.385 -0.18,-0.58 -1.895,-6.622 1.726,-13.54 8.247,-15.735 L 131.78,97.263 c 1.346,-0.45 2.738,-0.68 4.136,-0.693 5.552,-0.042 10.43,3.35 12.152,8.444 l 0.16,0.53 c 1.007,3.52 0.412,7.478 -1.59,10.6 -1.492,2.323 -6.198,4.367 -6.198,4.367 L 35.8,156.29 c -1.458,0.487 -2.945,0.744 -4.428,0.757 z"
         id="path22"
         inkscape:connector-curvature="0"
         style="fill:#e01765" />
    </g>
    <g
       id="g28">
      <path
         d="m 118.148,157.267 c -5.56,0.043 -10.484,-3.464 -12.255,-8.722 l -34.79,-103.34 -0.174,-0.58 c -1.885,-6.59 1.74,-13.464 8.237,-15.654 1.3,-0.437 2.644,-0.665 3.997,-0.677 2.01,-0.015 3.955,0.438 5.787,1.343 3.064,1.525 5.355,4.15 6.45,7.392 l 34.787,103.33 0.1,0.332 c 1.954,6.842 -1.663,13.72 -8.16,15.91 -1.287,0.43 -2.627,0.655 -3.98,0.667 z"
         id="path26"
         inkscape:connector-curvature="0"
         style="fill:#e8a723" />
    </g>
    <g
       id="g32">
      <path
         d="m 66.435,174.674 c -5.56,0.043 -10.487,-3.465 -12.26,-8.73 L 19.394,62.608 c -0.06,-0.19 -0.12,-0.38 -0.178,-0.575 -1.88,-6.588 1.734,-13.463 8.23,-15.655 1.294,-0.43 2.633,-0.657 3.985,-0.668 5.56,-0.044 10.485,3.463 12.257,8.723 l 34.782,103.34 c 0.065,0.18 0.124,0.38 0.177,0.57 1.884,6.593 -1.733,13.472 -8.238,15.664 -1.292,0.43 -2.628,0.656 -3.977,0.667 z"
         id="path30"
         inkscape:connector-curvature="0"
         style="fill:#3eb890" />
    </g>
    <path
       d="m 100.997,133.996 24.258,-8.294 -7.93,-23.55 -24.286,8.208 z"
       id="path34"
       inkscape:connector-curvature="0"
       style="fill:#cc2027" />
    <path
       d="m 49.364,151.65 24.255,-8.293 -7.99,-23.73 -24.28,8.21 z"
       id="path36"
       inkscape:connector-curvature="0"
       style="fill:#361238" />
    <path
       d="m 83.727,82.7 24.26,-8.283 -7.837,-23.275 -24.305,8.143 z"
       id="path38"
       inkscape:connector-curvature="0"
       style="fill:#65863a" />
    <path
       d="m 32.088,100.33 24.26,-8.283 -7.933,-23.572 -24.305,8.142 7.978,23.712 z"
       id="path40"
       inkscape:connector-curvature="0"
       style="fill:#1a937d" />
  </g>
</svg>
