<svg xmlns="http://www.w3.org/2000/svg" width="82" height="82" stroke="#000" stroke-linecap="round" stroke-linejoin="round" fill="#fff" fill-rule="evenodd"><path d="M23 51.5173C23 46.7987 26.568 43 31 43s8 3.7987 8 8.5173v20.9654C39 77.2012 35.432 81 31 81s-8-3.7988-8-8.5173z" fill="#e01e5a" stroke="#e01e5a"/><path d="M51.5172 59C46.7987 59 43 55.432 43 51s3.7987-8 8.5172-8h20.9656C77.2013 43 81 46.568 81 51s-3.7987 8-8.5172 8z" fill="#ecb22d" stroke="#ecb22d"/><path d="M43 9.5172C43 4.7987 46.568 1 51 1s8 3.7987 8 8.5172v20.9655C59 35.2013 55.432 39 51 39s-8-3.7987-8-8.5173z" fill="#2fb67c" stroke="#2fb67c"/><path d="M9.5172 39C4.7987 39 1 35.432 1 31s3.7987-8 8.5172-8h20.9655C35.2013 23 39 26.568 39 31s-3.7987 8-8.5173 8z" fill="#36c5f1" stroke="#36c5f1"/><g stroke-linejoin="miter"><path d="M43 73a7.983 7.983 0 0 0 8 8c4.432 0 8-3.568 8-8a7.983 7.983 0 0 0-8-8h-8z" fill="#ecb22d" stroke="#ecb22d"/><path d="M73 39h-8v-8c0-4.432 3.568-8 8-8s8 3.568 8 8-3.568 8-8 8z" fill="#2fb67c" stroke="#2fb67c"/><path d="M9 43h8v8c0 4.432-3.568 8-8 8a7.983 7.983 0 0 1-8-8c0-4.432 3.568-8 8-8z" fill="#e01e5a" stroke="#e01e5a"/><path d="M39 9v8h-8a7.983 7.983 0 0 1-8-8c0-4.432 3.568-8 8-8a7.983 7.983 0 0 1 8 8z" fill="#36c5f1" stroke="#36c5f1"/></g></svg>