<svg xmlns="http://www.w3.org/2000/svg" width="64" height="64" viewBox="0 0 3.277 3.277"><path d="M1.678 2.21c-.228.003-.476-.003-.724-.018-.026-.003-.04.01-.056.026l-.194.215c-.01.01-.02.03-.038.023s-.01-.028-.01-.043v-.18c.003-.046-.008-.07-.06-.07a1.26 1.26 0 0 1-.194-.023c-.22-.05-.368-.17-.39-.422-.01-.11-.018-.217 0-.327A.43.43 0 0 1 .402.999C.73.945 1.06.927 1.39.922l1.036.023a3.25 3.25 0 0 1 .496.064c.197.04.33.192.348.396a1.48 1.48 0 0 1-.005.353.41.41 0 0 1-.253.33c-.125.054-.258.072-.39.082l-.94.038z" fill="#7c529e"/><g fill="#fff"><path d="M.834 1.874c.046 0 .1-.043.115-.087s-.015-.06-.04-.08C.89 1.692.87 1.68.852 1.666.813 1.638.777 1.638.75 1.682c-.015.026-.038.026-.06.015-.064-.03-.115-.074-.146-.14C.53 1.528.53 1.5.56 1.48c.015-.01.033-.023.03-.05-.003-.03-.077-.136-.107-.146a.05.05 0 0 0-.038 0c-.07.023-.1.082-.072.148.082.205.23.345.43.432.013.005.026.005.03.008zm-.148-.6c-.01.003-.033-.008-.033.015 0 .015.018.013.03.015a.24.24 0 0 1 .233.24c.003.013-.003.033.015.036s.015-.02.015-.033a.28.28 0 0 0-.261-.274zm1.06.302v-.217c0-.043.015-.08.064-.08s.06.033.06.077v.028c0 .066 0 .066.06.05a.17.17 0 0 1 .207.084c.05.092.054.184 0 .276s-.156.12-.248.064c-.015-.01-.02-.015-.033.003-.018.026-.046.028-.074.015s-.036-.038-.036-.07zm.304.08c0-.07-.038-.12-.09-.123s-.095.046-.095.115.038.12.09.123.095-.046.095-.115zm-.765.003l.107-.29.018-.046c.015-.036.04-.056.082-.04s.05.05.036.09l-.125.325-.054.136c-.01.026-.028.046-.06.05-.036 0-.054-.02-.064-.05l-.18-.455c-.015-.04-.008-.077.038-.092s.066.013.082.05l.118.325zm1.17.036h-.11c-.028 0-.03.013-.018.033.023.043.09.06.146.04.02-.008.038-.018.06-.028.028-.015.054-.013.072.015s.008.056-.018.074c-.082.056-.17.074-.263.036s-.128-.115-.128-.21c-.003-.123.082-.22.192-.233s.212.066.233.182c.013.064-.005.087-.072.09zm-.054-.082c.01 0 .023.003.033 0 .02-.003.05.013.056-.01.008-.03-.018-.054-.043-.066-.036-.018-.07-.015-.1.013-.015.015-.033.033-.026.056s.03.008.05.01c.01 0 .02-.003.03-.003z"/><path d="M.834 1.874C.826 1.87.816 1.87.803 1.866.6 1.78.455 1.638.373 1.434c-.028-.07 0-.125.072-.148a.05.05 0 0 1 .038 0c.03.01.105.115.107.146.003.023-.015.036-.03.05-.03.02-.03.046-.018.077a.27.27 0 0 0 .146.141c.023.01.046.01.06-.015.028-.043.064-.04.102-.015a.45.45 0 0 1 .056.041c.026.02.056.036.04.08s-.07.087-.115.087zm1.828-.228v-.153c0-.028.01-.05.036-.06s.056-.01.074.013.023.013.036 0c.018-.015.04-.023.067-.02s.046.02.05.05-.005.05-.028.056c-.105.026-.12.097-.11.19a.41.41 0 0 1-.003.097c-.005.038-.028.06-.067.06s-.054-.028-.056-.064v-.164zm-1.09.02V1.52c0-.04.018-.066.06-.066s.06.026.06.064v.294c0 .04-.02.067-.06.067s-.06-.028-.06-.07zm-.887-.394a.28.28 0 0 1 .261.274c0 .013.005.033-.015.033s-.015-.02-.015-.036a.24.24 0 0 0-.233-.24c-.013-.003-.03 0-.03-.015.003-.023.023-.013.033-.015zm1.018.074c-.005.038-.023.064-.064.066s-.07-.028-.07-.066.033-.072.07-.07.06.028.064.07z"/><path d="M.875 1.52c-.003.01.005.028-.013.03-.023.003-.018-.018-.02-.03-.015-.09-.046-.123-.138-.143-.013-.003-.033 0-.03-.02s.023-.013.036-.01c.092.01.166.087.166.174z"/><path d="M.806 1.505c0 .01 0 .023-.015.026-.01 0-.015-.008-.018-.018C.77 1.475.75 1.454.71 1.45.7 1.447.688 1.444.693 1.43c.003-.01.013-.01.023-.01.043-.003.09.043.09.087z"/></g></svg>