<?xml version="1.0" encoding="UTF-8" standalone="no"?>
<svg
   xmlns:dc="http://purl.org/dc/elements/1.1/"
   xmlns:cc="http://creativecommons.org/ns#"
   xmlns:rdf="http://www.w3.org/1999/02/22-rdf-syntax-ns#"
   xmlns:svg="http://www.w3.org/2000/svg"
   xmlns="http://www.w3.org/2000/svg"
   xmlns:sodipodi="http://sodipodi.sourceforge.net/DTD/sodipodi-0.dtd"
   xmlns:inkscape="http://www.inkscape.org/namespaces/inkscape"
   id="Layer_1"
   data-name="Layer 1"
   viewBox="0 0 64 64"
   version="1.1"
   sodipodi:docname="tibco-icon.svg"
   width="64"
   height="64"
   inkscape:version="0.92.3 (2405546, 2018-03-11)">
  <metadata
     id="metadata47">
    <rdf:RDF>
      <cc:Work
         rdf:about="">
        <dc:format>image/svg+xml</dc:format>
        <dc:type
           rdf:resource="http://purl.org/dc/dcmitype/StillImage" />
        <dc:title>TIBCO</dc:title>
      </cc:Work>
    </rdf:RDF>
  </metadata>
  <sodipodi:namedview
     pagecolor="#ffffff"
     bordercolor="#666666"
     borderopacity="1"
     objecttolerance="10"
     gridtolerance="10"
     guidetolerance="10"
     inkscape:pageopacity="0"
     inkscape:pageshadow="2"
     inkscape:window-width="1920"
     inkscape:window-height="1001"
     id="namedview45"
     showgrid="false"
     inkscape:zoom="7.6942426"
     inkscape:cx="73.43913"
     inkscape:cy="27.757304"
     inkscape:window-x="-9"
     inkscape:window-y="-9"
     inkscape:window-maximized="1"
     inkscape:current-layer="Layer_1" />
  <defs
     id="defs4">
    <style
       id="style2">.cls-1{fill:#9e9ea3;}.cls-2{fill:#1287d9;}</style>
  </defs>
  <title
     id="title6">TIBCO</title>
  <g
     id="g889"
     transform="matrix(5.134244,0,0,5.134244,-200.82272,-116.30023)">
    <path
       id="path36"
       d="m 48.626514,23.527292 a 5.5488279,5.5488279 0 0 0 -0.550869,-0.297089 c -1.556482,2.984093 -4.386352,6.536748 -8.129672,8.55616 a 5.6309565,5.6309565 0 0 0 0.811779,1.31036 c 3.218594,-2.212982 6.199518,-5.914049 7.869554,-9.570223"
       class="cls-2"
       inkscape:connector-curvature="0"
       style="fill:#1287d9;stroke-width:0.0264079" />
    <path
       id="path38"
       d="m 47.934362,23.16656 c -0.76979,-0.335116 -1.641515,-0.51469 -2.587974,-0.51469 -3.501159,0 -5.974523,2.702849 -5.974523,6.260785 a 7.6400695,7.6400695 0 0 0 0.184855,1.694595 c 3.582496,-1.460093 6.764912,-4.679216 8.379227,-7.44069"
       class="cls-2"
       inkscape:connector-curvature="0"
       style="fill:#1287d9;stroke-width:0.0264079" />
    <path
       id="path40"
       d="m 48.761458,23.611797 c -1.836934,4.517336 -4.076324,7.715332 -6.936563,10.465187 0.966265,0.671025 2.168881,1.040207 3.522021,1.040207 3.501952,0 5.975316,-2.721334 5.975316,-6.280062 0,-2.35849 -0.977092,-4.187237 -2.561566,-5.22586"
       class="cls-2"
       inkscape:connector-curvature="0"
       style="fill:#1287d9;stroke-width:0.0264079" />
  </g>
</svg>
