<?xml version="1.0" encoding="UTF-8" standalone="no"?>
<svg
   xmlns:dc="http://purl.org/dc/elements/1.1/"
   xmlns:cc="http://creativecommons.org/ns#"
   xmlns:rdf="http://www.w3.org/1999/02/22-rdf-syntax-ns#"
   xmlns:svg="http://www.w3.org/2000/svg"
   xmlns="http://www.w3.org/2000/svg"
   xmlns:sodipodi="http://sodipodi.sourceforge.net/DTD/sodipodi-0.dtd"
   xmlns:inkscape="http://www.inkscape.org/namespaces/inkscape"
   width="32"
   height="32"
   viewBox="0 0 3.2768 3.2768"
   version="1.1"
   id="svg8"
   sodipodi:docname="kakaotalk-icon.svg"
   inkscape:version="0.92.3 (2405546, 2018-03-11)">
  <metadata
     id="metadata14">
    <rdf:RDF>
      <cc:Work
         rdf:about="">
        <dc:format>image/svg+xml</dc:format>
        <dc:type
           rdf:resource="http://purl.org/dc/dcmitype/StillImage" />
        <dc:title></dc:title>
      </cc:Work>
    </rdf:RDF>
  </metadata>
  <defs
     id="defs12" />
  <sodipodi:namedview
     pagecolor="#ffffff"
     bordercolor="#666666"
     borderopacity="1"
     objecttolerance="10"
     gridtolerance="10"
     guidetolerance="10"
     inkscape:pageopacity="0"
     inkscape:pageshadow="2"
     inkscape:window-width="1920"
     inkscape:window-height="1001"
     id="namedview10"
     showgrid="false"
     inkscape:zoom="24.1664"
     inkscape:cx="10.375618"
     inkscape:cy="15.117778"
     inkscape:window-x="-9"
     inkscape:window-y="-9"
     inkscape:window-maximized="1"
     inkscape:current-layer="svg8" />
  <path
     d="m 3.2768,3.0208 c 0,0.14139 -0.1146112,0.256 -0.256,0.256 H 0.256 C 0.1146112,3.2768 0,3.16219 0,3.0208 V 0.256 C 0,0.11461 0.1146112,0 0.256,0 h 2.7648 c 0.1413888,0 0.256,0.11461 0.256,0.256 z"
     id="path2"
     inkscape:connector-curvature="0"
     style="fill:#ffe812;stroke-width:0.0128" />
  <path
     d="m 1.6384,0.4608 c -0.7352064,0 -1.3312,0.46993 -1.3312,1.0496 0,0.37477 0.2491648,0.70362 0.6239744,0.88931 -0.0203904,0.0703 -0.1310336,0.4524 -0.1354368,0.48241 0,0 -0.00265,0.0226 0.0119552,0.0312 0.0146048,0.009 0.0317824,0.002 0.0317824,0.002 0.0418816,-0.006 0.4856704,-0.31758 0.5624832,-0.37171 0.076736,0.0109 0.1557504,0.0165 0.2364416,0.0165 0.7352064,0 1.3312,-0.46991 1.3312,-1.0496 0,-0.57967 -0.5959936,-1.0496 -1.3312,-1.0496 z"
     id="path4"
     inkscape:connector-curvature="0"
     style="stroke-width:0.0128" />
  <path
     d="M 0.9024,1.8768 C 0.8600448,1.8768 0.8256,1.8439 0.8256,1.8035 V 1.3472 H 0.7057664 C 0.6642048,1.3472 0.6304,1.3135 0.6304,1.272 c 0,-0.0415 0.0338176,-0.0752 0.0753664,-0.0752 h 0.3932672 c 0.041562,0 0.075366,0.0337 0.075366,0.0752 0,0.0415 -0.033818,0.0752 -0.075366,0.0752 H 0.9792 v 0.45626 c 0,0.0404 -0.0344448,0.0733 -0.0768,0.0733 z m 0.6734336,-0.001 c -0.032026,0 -0.056525,-0.013 -0.06391,-0.0339 l -0.038029,-0.0996 -0.2341888,-1e-5 -0.038054,0.0996 c -0.00736,0.0209 -0.031846,0.0339 -0.063872,0.0339 a 0.117184,0.117184 0 0 1 -0.04882,-0.0106 c -0.021171,-0.01 -0.041523,-0.0366 -0.018202,-0.10905 L 1.2544634,1.2726 c 0.012941,-0.0368 0.05225,-0.0747 0.102272,-0.0758 0.050163,10e-4 0.089472,0.039 0.1024384,0.0759 l 0.1836288,0.48332 c 0.023373,0.0726 0.00302,0.0995 -0.01815,0.10921 a 0.1174528,0.1174528 0 0 1 -0.048819,0.0106 c -1.28e-5,0 0,0 0,0 z M 1.4335104,1.60628 1.3568004,1.38836 1.2800904,1.60628 Z M 1.7664,1.8656 C 1.725811,1.8656 1.6928,1.834 1.6928,1.7952 V 1.2736 c 0,-0.0424 0.035174,-0.0768 0.0784,-0.0768 0.043226,0 0.0784,0.0344 0.0784,0.0768 v 0.4512 h 0.1632 c 0.040589,0 0.0736,0.0316 0.0736,0.0704 0,0.0388 -0.033011,0.0704 -0.0736,0.0704 z m 0.4266752,0.0102 c -0.042355,0 -0.0768,-0.0344 -0.0768,-0.0768 V 1.2736 c 0,-0.0424 0.034445,-0.0768 0.0768,-0.0768 0.042355,0 0.0768,0.0344 0.0768,0.0768 V 1.43867 L 2.4841472,1.2244 c 0.011021,-0.011 0.026163,-0.0171 0.042598,-0.0171 0.019174,0 0.038426,0.008 0.052851,0.0227 0.013453,0.0134 0.021478,0.0307 0.022579,0.0487 0.00111,0.0181 -0.00492,0.0347 -0.016947,0.0468 L 2.4102138,1.50049 2.599257,1.75093 A 0.0761728,0.0761728 0 0 1 2.614003,1.80783 0.0762368,0.0762368 0 0 1 2.584205,1.85843 0.076032,0.076032 0 0 1 2.53801,1.87393 0.0761984,0.0761984 0 0 1 2.47666,1.84343 l -0.1801088,-0.23864 -0.02665,0.0267 v 0.16756 a 0.076928,0.076928 0 0 1 -0.076826,0.0768 z"
     id="path6"
     inkscape:connector-curvature="0"
     style="fill:#ffe812;stroke-width:0.0128" />
</svg>
