<svg xmlns="http://www.w3.org/2000/svg" width="120" height="60"><defs><linearGradient y2="24.366" x2="91.885" y1="12.36" x1="84.953" gradientUnits="userSpaceOnUse" id="A"><stop offset="0" stop-color="#1b1464"/><stop offset=".092" stop-color="#150f4c"/><stop offset=".229" stop-color="#0d0a31"/><stop offset=".376" stop-color="#07051b"/><stop offset=".538" stop-color="#03020c"/><stop offset=".726" stop-color="#010103"/><stop offset="1"/></linearGradient><linearGradient y2="42.513" x2="107.674" y1="16.529" x1="92.671" gradientUnits="userSpaceOnUse" id="B"><stop offset="0" stop-color="#1b1464"/><stop offset=".092" stop-color="#150f4c"/><stop offset=".229" stop-color="#0d0a31"/><stop offset=".376" stop-color="#07051b"/><stop offset=".538" stop-color="#03020c"/><stop offset=".726" stop-color="#010103"/><stop offset="1"/></linearGradient></defs><linearGradient id="C" gradientUnits="userSpaceOnUse" x1="78.374" y1="41.024" x2="81.765" y2="46.898"><stop offset="0" stop-color="#1b1464"/><stop offset=".092" stop-color="#150f4c"/><stop offset=".229" stop-color="#0d0a31"/><stop offset=".376" stop-color="#07051b"/><stop offset=".538" stop-color="#03020c"/><stop offset=".726" stop-color="#010103"/><stop offset="1"/></linearGradient><linearGradient id="D" gradientUnits="userSpaceOnUse" x1="86.19" y1="42.194" x2="88.194" y2="45.666"><stop offset="0" stop-color="#1b1464"/><stop offset=".092" stop-color="#150f4c"/><stop offset=".229" stop-color="#0d0a31"/><stop offset=".376" stop-color="#07051b"/><stop offset=".538" stop-color="#03020c"/><stop offset=".726" stop-color="#010103"/><stop offset="1"/></linearGradient><g transform="translate(-.273)"><path d="M15.145 36.12l-.026-7.497-3.67 6.186h-1.3l-3.67-6.03v7.34H3.742V23.617h2.385l4.692 7.76 4.614-7.76h2.385l.026 12.504zm12.792-8.702c.786.708 1.206 1.783 1.206 3.198v5.48h-2.595v-1.18c-.524.9-1.494 1.337-2.936 1.337-.734 0-1.4-.13-1.914-.367-.55-.262-.944-.603-1.232-1.05s-.42-.944-.42-1.494c0-.9.34-1.6 1.022-2.097.682-.524 1.704-.76 3.12-.76H26.4c0-.603-.183-1.075-.55-1.4s-.917-.498-1.65-.498a4.98 4.98 0 0 0-1.52.236c-.498.157-.917.367-1.258.655l-.996-1.94c.524-.367 1.153-.655 1.887-.865a8.21 8.21 0 0 1 2.254-.315c1.442 0 2.57.34 3.382 1.05zm-2.385 6.632c.367-.2.63-.55.786-.97v-.97h-1.914c-1.153 0-1.704.367-1.704 1.127a.95.95 0 0 0 .42.84c.3.2.655.315 1.153.315.472 0 .9-.105 1.258-.34zm10.092-7.314c.577-.236 1.206-.367 1.966-.367v2.57l-.63-.026c-.786 0-1.416.236-1.887.682-.446.446-.682 1.127-.682 2.018v4.535h-2.78v-9.62h2.674v1.258c.34-.472.786-.813 1.337-1.05zm5.426 8.887a4.76 4.76 0 0 1-1.914-1.756 4.92 4.92 0 0 1-.682-2.543c0-.944.236-1.8.682-2.543.446-.76 1.1-1.337 1.914-1.756s1.73-.63 2.752-.63 1.887.2 2.648.63 1.3 1.022 1.65 1.8l-2.15 1.153c-.498-.9-1.232-1.3-2.15-1.3-.734 0-1.337.236-1.8.708s-.708 1.127-.708 1.94.236 1.468.708 1.94 1.075.708 1.8.708c.944 0 1.678-.446 2.15-1.3l2.15 1.18a3.75 3.75 0 0 1-1.651 1.783c-.76.42-1.65.655-2.648.655-1.022-.026-1.94-.236-2.752-.655zM59.42 26.5v9.62h-2.648v-1.153a3.57 3.57 0 0 1-1.311.944c-.524.2-1.075.34-1.65.34-1.258 0-2.254-.367-2.988-1.1s-1.1-1.8-1.1-3.224V26.5h2.78v5.007c0 1.547.655 2.333 1.94 2.333.655 0 1.206-.2 1.6-.655s.603-1.075.603-1.94V26.5zm3.486 9.464c-.76-.2-1.363-.446-1.835-.734l.917-1.992c.42.262.944.498 1.547.682a6.12 6.12 0 0 0 1.783.262c1.18 0 1.756-.288 1.756-.865 0-.262-.157-.472-.472-.577-.315-.13-.813-.2-1.494-.315l-1.94-.42c-.524-.157-.944-.42-1.337-.813-.367-.393-.55-.944-.55-1.678a2.73 2.73 0 0 1 .524-1.625c.34-.472.865-.84 1.547-1.1s1.468-.393 2.385-.393c.682 0 1.363.08 2.018.236.682.157 1.232.367 1.678.63l-.917 1.992c-.84-.472-1.756-.708-2.78-.708-.603 0-1.05.08-1.337.262-.288.157-.446.393-.446.655 0 .288.157.498.472.63s.84.236 1.547.34l1.94.42a2.99 2.99 0 0 1 1.311.813c.367.393.55.944.55 1.65a2.66 2.66 0 0 1-.524 1.6c-.367.472-.9.813-1.573 1.075s-1.494.393-2.438.393l-2.333-.42zM80.863 32.1h-7.26c.13.603.446 1.075.917 1.416.498.34 1.1.524 1.835.524a3.6 3.6 0 0 0 1.337-.236c.393-.156.76-.393 1.075-.708l1.494 1.6c-.917 1.05-2.228 1.547-3.958 1.547-1.075 0-2.045-.2-2.883-.63s-1.468-.996-1.94-1.756a4.92 4.92 0 0 1-.682-2.543 4.92 4.92 0 0 1 .682-2.543 4.56 4.56 0 0 1 1.835-1.756c.785-.42 1.65-.63 2.62-.63.944 0 1.783.2 2.543.603s1.363.996 1.783 1.73c.446.76.655 1.625.655 2.648l-.052.734zm-6.527-3.093c-.42.367-.682.84-.786 1.468h4.745c-.105-.603-.367-1.1-.786-1.468s-.944-.55-1.573-.55-1.18.183-1.6.55z"/><g transform="matrix(1.108103 0 0 1.108103 -10.823002 -2.562635)"><circle cx="80.073" cy="43.959" r="3.38" fill="url(#C)"/><circle r="6.926" cy="18.358" cx="88.417" fill="url(#A)"/><circle r="15.011" cy="29.516" cx="100.165" fill="url(#B)"/><path d="M89.268 23.82a1.3 1.3 0 0 1-.425-.993c0-.393.142-.733.425-.993s.662-.402 1.135-.402.827.118 1.135.378.425.6.425.97a1.39 1.39 0 0 1-.425 1.04c-.284.284-.662.402-1.135.402a1.66 1.66 0 0 1-1.135-.402zm-.118 1.607h2.506v8.675H89.15zm12.717.85c.662.638.993 1.607.993 2.86V34.1h-2.506v-4.586c0-.686-.142-1.206-.45-1.537s-.733-.496-1.3-.496c-.638 0-1.135.2-1.513.6s-.567.97-.567 1.75v4.28H94.02v-8.675h2.364v1.016c.33-.355.756-.638 1.23-.85a4.55 4.55 0 0 1 1.631-.307c1.087.024 1.962.33 2.624.993zm6.973 4.42l-1.206 1.182v2.198h-2.506v-11.96h2.506v6.76l3.664-3.475h3.002l-3.617 3.664 3.924 4.988h-3.05z" fill="#fff"/><circle cx="87.188" cy="43.936" r="2.009" fill="url(#D)"/></g></g></svg>