<?xml version="1.0" encoding="UTF-8" standalone="no"?>
<!-- Generator: Adobe Illustrator 22.0.1, SVG Export Plug-In . SVG Version: 6.00 Build 0)  -->

<svg
   xmlns:dc="http://purl.org/dc/elements/1.1/"
   xmlns:cc="http://creativecommons.org/ns#"
   xmlns:rdf="http://www.w3.org/1999/02/22-rdf-syntax-ns#"
   xmlns:svg="http://www.w3.org/2000/svg"
   xmlns="http://www.w3.org/2000/svg"
   xmlns:sodipodi="http://sodipodi.sourceforge.net/DTD/sodipodi-0.dtd"
   xmlns:inkscape="http://www.inkscape.org/namespaces/inkscape"
   version="1.1"
   id="Layer_3"
   x="0px"
   y="0px"
   viewBox="0 0 120 59.999999"
   xml:space="preserve"
   sodipodi:docname="marcuse_ink-ar21.svg"
   width="120"
   height="60"
   inkscape:version="0.92.3 (2405546, 2018-03-11)"><metadata
   id="metadata103"><rdf:RDF><cc:Work
       rdf:about=""><dc:format>image/svg+xml</dc:format><dc:type
         rdf:resource="http://purl.org/dc/dcmitype/StillImage" /><dc:title></dc:title></cc:Work></rdf:RDF></metadata><defs
   id="defs101">
	
	
	
	
	
	
	

	<linearGradient
   y2="425.71231"
   x2="472.96939"
   y1="374.92361"
   x1="443.64651"
   gradientUnits="userSpaceOnUse"
   id="SVGID_2_"
   gradientTransform="matrix(0.23638659,0,0,0.23638659,-19.918942,-76.267064)">
		<stop
   id="stop23"
   style="stop-color:#1B1464"
   offset="0" />
		<stop
   id="stop25"
   style="stop-color:#150F4C"
   offset="9.246522e-02" />
		<stop
   id="stop27"
   style="stop-color:#0D0A31"
   offset="0.2286" />
		<stop
   id="stop29"
   style="stop-color:#07051B"
   offset="0.376" />
		<stop
   id="stop31"
   style="stop-color:#03020C"
   offset="0.538" />
		<stop
   id="stop33"
   style="stop-color:#010103"
   offset="0.7259" />
		<stop
   id="stop35"
   style="stop-color:#000000"
   offset="1" />
	</linearGradient>
	
	<linearGradient
   y2="502.4838"
   x2="539.76233"
   y1="392.55859"
   x1="476.29691"
   gradientUnits="userSpaceOnUse"
   id="SVGID_3_"
   gradientTransform="matrix(0.23638659,0,0,0.23638659,-19.918942,-76.267064)">
		<stop
   id="stop40"
   style="stop-color:#1B1464"
   offset="0" />
		<stop
   id="stop42"
   style="stop-color:#150F4C"
   offset="9.246522e-02" />
		<stop
   id="stop44"
   style="stop-color:#0D0A31"
   offset="0.2286" />
		<stop
   id="stop46"
   style="stop-color:#07051B"
   offset="0.376" />
		<stop
   id="stop48"
   style="stop-color:#03020C"
   offset="0.538" />
		<stop
   id="stop50"
   style="stop-color:#010103"
   offset="0.7259" />
		<stop
   id="stop52"
   style="stop-color:#000000"
   offset="1" />
	</linearGradient>
	
</defs><sodipodi:namedview
   pagecolor="#ffffff"
   bordercolor="#666666"
   borderopacity="1"
   objecttolerance="10"
   gridtolerance="10"
   guidetolerance="10"
   inkscape:pageopacity="0"
   inkscape:pageshadow="2"
   inkscape:window-width="1920"
   inkscape:window-height="1001"
   id="namedview99"
   showgrid="false"
   fit-margin-top="0"
   fit-margin-left="0"
   fit-margin-right="0"
   fit-margin-bottom="0"
   inkscape:zoom="5.5285506"
   inkscape:cx="103.09286"
   inkscape:cy="0.13514764"
   inkscape:window-x="-9"
   inkscape:window-y="-9"
   inkscape:window-maximized="1"
   inkscape:current-layer="Layer_3" />
<style
   type="text/css"
   id="style2">
	.st0{fill:none;stroke:#1B1464;stroke-miterlimit:10;}
	.st1{fill:url(#SVGID_1_);}
	.st2{fill:url(#SVGID_2_);}
	.st3{fill:url(#SVGID_3_);}
	.st4{fill:#FFFFFF;}
	.st5{fill:url(#SVGID_4_);}
</style>

<linearGradient
   id="SVGID_1_"
   gradientUnits="userSpaceOnUse"
   x1="415.81299"
   y1="496.18231"
   x2="430.1611"
   y2="521.03387"
   gradientTransform="matrix(0.23638659,0,0,0.23638659,-19.918942,-76.267064)">
	<stop
   offset="0"
   style="stop-color:#1B1464"
   id="stop6" />
	<stop
   offset="9.246522e-02"
   style="stop-color:#150F4C"
   id="stop8" />
	<stop
   offset="0.2286"
   style="stop-color:#0D0A31"
   id="stop10" />
	<stop
   offset="0.376"
   style="stop-color:#07051B"
   id="stop12" />
	<stop
   offset="0.538"
   style="stop-color:#03020C"
   id="stop14" />
	<stop
   offset="0.7259"
   style="stop-color:#010103"
   id="stop16" />
	<stop
   offset="1"
   style="stop-color:#000000"
   id="stop18" />
</linearGradient>






<linearGradient
   id="SVGID_4_"
   gradientUnits="userSpaceOnUse"
   x1="448.87909"
   y1="501.13449"
   x2="457.35739"
   y2="515.81927"
   gradientTransform="matrix(0.23638659,0,0,0.23638659,-19.918942,-76.267064)">
	<stop
   offset="0"
   style="stop-color:#1B1464"
   id="stop81" />
	<stop
   offset="9.246522e-02"
   style="stop-color:#150F4C"
   id="stop83" />
	<stop
   offset="0.2286"
   style="stop-color:#0D0A31"
   id="stop85" />
	<stop
   offset="0.376"
   style="stop-color:#07051B"
   id="stop87" />
	<stop
   offset="0.538"
   style="stop-color:#03020C"
   id="stop89" />
	<stop
   offset="0.7259"
   style="stop-color:#010103"
   id="stop91" />
	<stop
   offset="1"
   style="stop-color:#000000"
   id="stop93" />
</linearGradient>
<g
   id="g910"
   transform="translate(-0.27312072)"><g
     transform="matrix(1.1089286,0,0,1.1089286,-11.130131,-1.6169855)"
     id="g865"><path
       inkscape:connector-curvature="0"
       id="path65"
       d="m 23.694384,34.030917 -0.02364,-6.760657 -3.309412,5.578724 H 19.1794 l -3.309412,-5.436892 v 6.618825 h -2.458421 v -11.27564 h 2.151118 l 4.23132,6.997042 4.160404,-6.997042 h 2.151118 l 0.02364,11.27564 z"
       style="stroke-width:0.23638658" /><path
       inkscape:connector-curvature="0"
       id="path67"
       d="m 35.230049,26.182882 c 0.70916,0.638244 1.087379,1.607429 1.087379,2.883917 v 4.940479 H 33.9772 v -1.063739 c -0.472773,0.803714 -1.347403,1.205571 -2.64753,1.205571 -0.661882,0 -1.252848,-0.118193 -1.725621,-0.330941 -0.496412,-0.236386 -0.850992,-0.543689 -1.111017,-0.945546 -0.260026,-0.401858 -0.378219,-0.850992 -0.378219,-1.347404 0,-0.803715 0.307302,-1.441958 0.921908,-1.891093 0.614605,-0.472773 1.536513,-0.685521 2.813,-0.685521 h 1.985648 c 0,-0.543689 -0.165471,-0.969185 -0.496412,-1.252849 -0.330942,-0.283664 -0.827353,-0.449134 -1.489236,-0.449134 -0.472773,0 -0.921907,0.07092 -1.371042,0.212748 -0.449135,0.141832 -0.827353,0.330941 -1.134656,0.590966 l -0.898269,-1.749261 c 0.472773,-0.330941 1.040101,-0.590966 1.701984,-0.780075 0.661882,-0.18911 1.347403,-0.283664 2.032924,-0.283664 1.300127,0 2.316589,0.307303 3.049387,0.945546 z m -2.151118,5.980581 c 0.330942,-0.189109 0.567328,-0.496412 0.70916,-0.87463 v -0.874631 h -1.725622 c -1.040101,0 -1.536513,0.330941 -1.536513,1.016463 0,0.330941 0.118193,0.567327 0.378219,0.756437 0.260025,0.189109 0.590966,0.283663 1.040101,0.283663 0.425496,0 0.803714,-0.09455 1.134655,-0.307302 z"
       style="stroke-width:0.23638658" /><path
       inkscape:connector-curvature="0"
       id="path69"
       d="m 42.179815,25.568277 c 0.520051,-0.212748 1.087378,-0.330941 1.772899,-0.330941 v 2.316588 c -0.283663,-0.02364 -0.472773,-0.02364 -0.567328,-0.02364 -0.709159,0 -1.276487,0.212748 -1.701983,0.614605 -0.401857,0.401857 -0.614605,1.016463 -0.614605,1.820177 v 4.089488 H 38.5631 v -8.675388 h 2.411143 v 1.134656 c 0.307303,-0.425496 0.70916,-0.732799 1.205572,-0.945547 z"
       style="stroke-width:0.23638658" /><path
       inkscape:connector-curvature="0"
       id="path71"
       d="m 47.073017,33.581783 c -0.732798,-0.378219 -1.300126,-0.898269 -1.725622,-1.583791 -0.401857,-0.685521 -0.614605,-1.441958 -0.614605,-2.29295 0,-0.850992 0.212748,-1.631067 0.614605,-2.29295 0.401857,-0.685521 0.992824,-1.205571 1.725622,-1.58379 0.732799,-0.378218 1.560152,-0.567328 2.48206,-0.567328 0.921907,0 1.701983,0.18911 2.387506,0.567328 0.68552,0.378219 1.181931,0.921908 1.489233,1.631068 l -1.938369,1.040101 c -0.449135,-0.803715 -1.111017,-1.181933 -1.93837,-1.181933 -0.661883,0 -1.205572,0.212748 -1.631068,0.638244 -0.425496,0.425495 -0.638244,1.016462 -0.638244,1.74926 0,0.732799 0.212748,1.323765 0.638244,1.749261 0.425496,0.425496 0.969185,0.638244 1.631068,0.638244 0.850991,0 1.512874,-0.401857 1.93837,-1.181933 l 1.938369,1.06374 c -0.307302,0.685521 -0.803713,1.22921 -1.489233,1.607429 -0.685523,0.378218 -1.489237,0.590966 -2.387506,0.590966 -0.921908,-0.02364 -1.749261,-0.212748 -2.48206,-0.590966 z"
       style="stroke-width:0.23638658" /><path
       inkscape:connector-curvature="0"
       id="path73"
       d="m 63.620077,25.355529 v 8.675388 h -2.387503 v -1.040101 c -0.330942,0.378219 -0.732796,0.661883 -1.181931,0.850992 -0.472775,0.189109 -0.969187,0.307302 -1.489238,0.307302 -1.134655,0 -2.032925,-0.330941 -2.694805,-0.992823 -0.661884,-0.661883 -0.992827,-1.631068 -0.992827,-2.907556 v -4.893202 h 2.505701 v 4.514984 c 0,1.394681 0.590963,2.103841 1.749259,2.103841 0.590968,0 1.087379,-0.189109 1.441957,-0.590967 0.354582,-0.401857 0.543692,-0.969185 0.543692,-1.749261 v -4.278597 z"
       style="stroke-width:0.23638658" /><path
       inkscape:connector-curvature="0"
       id="path75"
       d="M 66.764022,33.889085 C 66.078497,33.699976 65.53481,33.487228 65.109315,33.227203 l 0.827353,-1.796538 c 0.378219,0.236386 0.85099,0.449134 1.394681,0.614605 0.543688,0.16547 1.087379,0.236386 1.607426,0.236386 1.063744,0 1.583791,-0.260025 1.583791,-0.780076 0,-0.236386 -0.141829,-0.425495 -0.425495,-0.52005 -0.283662,-0.118193 -0.732797,-0.18911 -1.347405,-0.283664 -0.70916,-0.118193 -1.300124,-0.236386 -1.749259,-0.378219 -0.472775,-0.141832 -0.850993,-0.378218 -1.205572,-0.732798 -0.330942,-0.35458 -0.496411,-0.850992 -0.496411,-1.512874 0,-0.543689 0.165469,-1.040101 0.472771,-1.465597 0.307302,-0.425496 0.780077,-0.756437 1.394681,-0.992824 0.614608,-0.236386 1.323764,-0.35458 2.151118,-0.35458 0.614608,0 1.229212,0.07092 1.82018,0.212748 0.614604,0.141832 1.111015,0.330942 1.512873,0.567328 l -0.827353,1.796538 c -0.756437,-0.425496 -1.58379,-0.638244 -2.5057,-0.638244 -0.543687,0 -0.945546,0.07092 -1.205572,0.236387 -0.260026,0.141832 -0.401854,0.35458 -0.401854,0.590967 0,0.260025 0.141828,0.449134 0.425494,0.567327 0.283666,0.118194 0.756437,0.212748 1.394681,0.307303 0.709161,0.118193 1.300124,0.236386 1.749259,0.378218 0.449135,0.141833 0.850994,0.378219 1.181936,0.732799 0.330942,0.35458 0.496411,0.850992 0.496411,1.489235 0,0.54369 -0.165469,1.016463 -0.472775,1.441959 -0.330938,0.425496 -0.803713,0.732798 -1.418317,0.969185 -0.614608,0.236386 -1.347404,0.35458 -2.198398,0.35458 -0.709156,-0.118194 -1.418317,-0.189109 -2.103837,-0.378219 z"
       style="stroke-width:0.23638658" /><path
       inkscape:connector-curvature="0"
       id="path77"
       d="m 82.956501,30.414202 h -6.54791 c 0.118197,0.543689 0.401859,0.969185 0.827353,1.276488 0.449135,0.307302 0.992827,0.472773 1.654707,0.472773 0.449135,0 0.850994,-0.07092 1.205572,-0.212748 0.354582,-0.141832 0.68552,-0.35458 0.969186,-0.638244 l 1.347405,1.441959 c -0.827353,0.945546 -2.009289,1.39468 -3.569439,1.39468 -0.969186,0 -1.843816,-0.189109 -2.600253,-0.567327 -0.756437,-0.378219 -1.323764,-0.898269 -1.749259,-1.583791 -0.401858,-0.685521 -0.614608,-1.441958 -0.614608,-2.29295 0,-0.850992 0.21275,-1.607428 0.614608,-2.29295 0.401855,-0.685521 0.945546,-1.205571 1.654707,-1.58379 0.709156,-0.378218 1.489233,-0.567328 2.363863,-0.567328 0.850993,0 1.60743,0.18911 2.29295,0.54369 0.685521,0.35458 1.229212,0.898269 1.607431,1.560151 0.401854,0.685521 0.590963,1.465597 0.590963,2.387504 0,0 -0.02362,0.236387 -0.04728,0.661883 z M 77.070476,27.62484 c -0.378219,0.330942 -0.614604,0.756437 -0.709161,1.323765 h 4.2786 c -0.09456,-0.543689 -0.330943,-0.992823 -0.709161,-1.323765 -0.378218,-0.330941 -0.850994,-0.496411 -1.418321,-0.496411 -0.567328,0 -1.063739,0.16547 -1.441957,0.496411 z"
       style="stroke-width:0.23638658" /></g><g
     transform="matrix(1.1081033,0,0,1.1081033,-10.823002,-2.5626348)"
     id="g874"><circle
       class="st1"
       cx="80.072586"
       cy="43.959156"
       r="3.3803284"
       id="circle21"
       style="fill:url(#SVGID_1_);stroke-width:0.23638658" /><circle
       style="fill:url(#SVGID_2_);stroke-width:0.23638658"
       id="circle38"
       r="6.926127"
       cy="18.358482"
       cx="88.41703"
       class="st2" /><circle
       style="fill:url(#SVGID_3_);stroke-width:0.23638658"
       id="circle55"
       r="15.010548"
       cy="29.515932"
       cx="100.16545"
       class="st3" /><path
       class="st4"
       d="m 89.268021,23.819017 c -0.283661,-0.260026 -0.425494,-0.590967 -0.425494,-0.992824 0,-0.401857 0.141833,-0.732799 0.425494,-0.992824 0.283666,-0.260025 0.661885,-0.401857 1.13466,-0.401857 0.472771,0 0.827349,0.118194 1.134655,0.378219 0.307302,0.260025 0.425495,0.590966 0.425495,0.969185 0,0.425496 -0.141833,0.756436 -0.425495,1.040101 -0.283666,0.283664 -0.661884,0.401857 -1.134655,0.401857 -0.472775,0 -0.827353,-0.141832 -1.13466,-0.401857 z m -0.118192,1.607428 h 2.5057 v 8.675389 h -2.5057 z"
       id="path59"
       inkscape:connector-curvature="0"
       style="fill:#ffffff;stroke-width:0.23638658" /><path
       class="st4"
       d="m 101.86743,26.277437 c 0.66188,0.638244 0.99282,1.607429 0.99282,2.860278 v 4.964119 h -2.5057 v -4.585901 c 0,-0.685521 -0.14183,-1.205571 -0.449128,-1.536512 -0.307306,-0.330942 -0.732801,-0.496412 -1.300129,-0.496412 -0.638244,0 -1.134655,0.189109 -1.512873,0.590966 -0.378219,0.401858 -0.567328,0.969185 -0.567328,1.749261 v 4.278598 h -2.5057 v -8.675389 h 2.363867 v 1.016462 c 0.330942,-0.354579 0.756437,-0.638243 1.229212,-0.850991 0.496411,-0.189109 1.040099,-0.307303 1.631066,-0.307303 1.087383,0.02364 1.962013,0.330942 2.623893,0.992824 z"
       id="path61"
       inkscape:connector-curvature="0"
       style="fill:#ffffff;stroke-width:0.23638658" /><path
       class="st4"
       d="m 108.84084,30.697866 -1.20558,1.181933 v 2.198396 h -2.5057 V 22.117033 h 2.5057 v 6.760656 l 3.66399,-3.474882 h 3.00211 l -3.61671,3.663992 3.92401,4.987757 h -3.04938 z"
       id="path63"
       inkscape:connector-curvature="0"
       style="fill:#ffffff;stroke-width:0.23638658" /><circle
       class="st5"
       cx="87.187828"
       cy="43.935516"
       r="2.0092859"
       id="circle96"
       style="fill:url(#SVGID_4_);stroke-width:0.23638658" /></g></g>
</svg>