<?xml version="1.0" encoding="UTF-8" standalone="no"?>
<svg
   xmlns:dc="http://purl.org/dc/elements/1.1/"
   xmlns:cc="http://creativecommons.org/ns#"
   xmlns:rdf="http://www.w3.org/1999/02/22-rdf-syntax-ns#"
   xmlns:svg="http://www.w3.org/2000/svg"
   xmlns="http://www.w3.org/2000/svg"
   xmlns:sodipodi="http://sodipodi.sourceforge.net/DTD/sodipodi-0.dtd"
   xmlns:inkscape="http://www.inkscape.org/namespaces/inkscape"
   viewBox="0 0 64 63.999997"
   version="1.1"
   id="svg4"
   sodipodi:docname="messagebird-icon.svg"
   width="64"
   height="64"
   inkscape:version="0.92.3 (2405546, 2018-03-11)">
  <metadata
     id="metadata10">
    <rdf:RDF>
      <cc:Work
         rdf:about="">
        <dc:format>image/svg+xml</dc:format>
        <dc:type
           rdf:resource="http://purl.org/dc/dcmitype/StillImage" />
        <dc:title></dc:title>
      </cc:Work>
    </rdf:RDF>
  </metadata>
  <defs
     id="defs8" />
  <sodipodi:namedview
     pagecolor="#ffffff"
     bordercolor="#666666"
     borderopacity="1"
     objecttolerance="10"
     gridtolerance="10"
     guidetolerance="10"
     inkscape:pageopacity="0"
     inkscape:pageshadow="2"
     inkscape:window-width="1920"
     inkscape:window-height="1001"
     id="namedview6"
     showgrid="false"
     inkscape:zoom="5.1829016"
     inkscape:cx="81.89126"
     inkscape:cy="21.287872"
     inkscape:window-x="-9"
     inkscape:window-y="-9"
     inkscape:window-maximized="1"
     inkscape:current-layer="svg4" />
  <path
     d="m 57.424924,14.725836 c -2.567781,0 -4.863223,1.283894 -6.26383,3.229181 L 41.706992,31.182979 C 41.356839,31.688756 40.773251,32 40.15076,32 c -1.050457,0 -1.906382,-0.855927 -1.906382,-1.906381 0,-0.389058 0.11672,-0.778116 0.311245,-1.050455 l 7.975683,-11.944077 c 0.817022,-1.206077 1.283894,-2.684495 1.283894,-4.279632 0,-4.240729 -3.423711,-7.66444 -7.66444,-7.66444 H 2.5e-7 v 7.66444 H 34.392704 c 0,2.100912 -1.711851,3.851671 -3.851671,3.851671 H 2.5e-7 c 0,2.723406 0.5835856,5.330089 1.59513725,7.664437 H 26.689362 c 0,2.100912 -1.711851,3.851671 -3.851671,3.851671 H 3.8516717 c 3.501523,4.668693 9.0650483,7.66444 15.3677833,7.66444 h 9.454102 c 1.050455,0 1.906382,0.855924 1.906382,1.906382 0,1.050454 -0.855927,1.906384 -1.906382,1.906384 h -9.49301 L 6.3416417,58.844985 H 29.56839 c 10.621275,0 19.647417,-6.925229 22.798783,-16.496048 l 4.31854,-13.111248 C 58.086323,24.99696 60.654104,21.262005 64,18.421888 62.677205,16.204257 60.226138,14.725836 57.424924,14.725836 Z m 0,5.252281 c -0.778116,0 -1.439516,-0.661399 -1.439516,-1.439515 0,-0.778116 0.6614,-1.439515 1.439516,-1.439515 0.778113,0 1.439515,0.661399 1.439515,1.439515 0,0.817022 -0.661402,1.439515 -1.439515,1.439515 z"
     id="path2"
     inkscape:connector-curvature="0"
     style="fill:#2481d7;stroke-width:0.38905773"
     sodipodi:nodetypes="sccssccsscccscccscssssccscccssssss" />
</svg>
