<svg xmlns="http://www.w3.org/2000/svg" preserveAspectRatio="xMinYMin meet" width="64" height="64"><g transform="matrix(.216582 0 0 .216582 -.216581 7.179696)" fill="#f0981b"><path d="M15.5 187.1c5.4 12.3 18.8 28 21 29.7-3.1 5.6-8.4 6.8-8.4 6.8s-13.3-21.7-12.6-36.5zm-7.8 3.3c4.3 12.7 17.2 30.1 19.2 32.1-3.6 5.3-9.9 5.4-9.9 5.4S5.8 205 7.7 190.4z"/><path d="M296.5 1S216.9 21.1 203 45c-33.3-5.9-89.8 3-89.8 3s-5.6-36.7-1.4-47C22.5 44 4.1 136.4 1 186.4c0 0 25.5-12.2 50.1 2 1-.7-16.6 31.8-34.2 39.4-.2.1 1.1.3.9.4 18-.7 56.8-17 74.7-31.2 59.2-47.1 51.1-79.9 51.1-79.9s-27.3 43.6-48.9 16.1c-17-21.6 34-70.9 119.3-55.9 50.8 8.9 82.5 31 82.5 31L249 56zM50.1 164.9c-3.6 4.4-8.3 5-12.2 2.8-5.3-3 4.1-24.5 17.5-25.5 0-.1-.2 16.5-5.3 22.7zm36-52.5s3.9-23.3-21-41.6c27.5 9.5 30.1 24.6 21 41.6zm8.1-9.9S97.5 83 76.7 67.7c22.9 7.9 25.1 20.6 17.5 34.8zm7-9.9s2.6-15.7-14.1-28c18.5 6.4 20.2 16.6 14.1 28zm6-9.2s2-11.9-10.7-21.2c14 4.8 15.4 12.6 10.7 21.2z"/></g></svg>