<?xml version="1.0" encoding="UTF-8" standalone="no"?>
<svg
   xmlns:dc="http://purl.org/dc/elements/1.1/"
   xmlns:cc="http://creativecommons.org/ns#"
   xmlns:rdf="http://www.w3.org/1999/02/22-rdf-syntax-ns#"
   xmlns:svg="http://www.w3.org/2000/svg"
   xmlns="http://www.w3.org/2000/svg"
   xmlns:sodipodi="http://sodipodi.sourceforge.net/DTD/sodipodi-0.dtd"
   xmlns:inkscape="http://www.inkscape.org/namespaces/inkscape"
   version="1.1"
   id="Layer_1"
   x="0px"
   y="0px"
   viewBox="0 0 64 64"
   preserveAspectRatio="xMinYMin meet"
   xml:space="preserve"
   sodipodi:docname="payara-icon.svg"
   width="64"
   height="64"
   inkscape:version="0.92.3 (2405546, 2018-03-11)"><metadata
   id="metadata37"><rdf:RDF><cc:Work
       rdf:about=""><dc:format>image/svg+xml</dc:format><dc:type
         rdf:resource="http://purl.org/dc/dcmitype/StillImage" /><dc:title></dc:title></cc:Work></rdf:RDF></metadata><defs
   id="defs35">
	
	
	
	
	
	
	
	
</defs><sodipodi:namedview
   pagecolor="#ffffff"
   bordercolor="#666666"
   borderopacity="1"
   objecttolerance="10"
   gridtolerance="10"
   guidetolerance="10"
   inkscape:pageopacity="0"
   inkscape:pageshadow="2"
   inkscape:window-width="1920"
   inkscape:window-height="1001"
   id="namedview33"
   showgrid="false"
   inkscape:zoom="4.2242991"
   inkscape:cx="79.196571"
   inkscape:cy="52.580887"
   inkscape:window-x="-9"
   inkscape:window-y="-9"
   inkscape:window-maximized="1"
   inkscape:current-layer="Layer_1" />
<style
   type="text/css"
   id="style2">
	.st0{fill:#F0981B;}
	.st1{fill:#FFFFFF;}
</style>
<g
   id="g12"
   transform="matrix(0.21658206,0,0,0.21658206,-0.21658142,7.1796959)">
		<g
   id="g6">
			<path
   style="fill:#f0981b"
   inkscape:connector-curvature="0"
   id="path4"
   d="m 15.5,187.1 c 5.4,12.3 18.8,28 21,29.7 -3.1,5.6 -8.4,6.8 -8.4,6.8 0,0 -13.3,-21.7 -12.6,-36.5 z"
   class="st0" />
		</g>
		<path
   style="fill:#f0981b"
   inkscape:connector-curvature="0"
   id="path8"
   d="m 7.7,190.4 c 4.3,12.7 17.2,30.1 19.2,32.1 -3.6,5.3 -9.9,5.4 -9.9,5.4 0,0 -11.2,-22.9 -9.3,-37.5 z"
   class="st0" />
		<path
   style="fill:#f0981b"
   inkscape:connector-curvature="0"
   id="path10"
   d="m 296.5,1 c 0,0 -79.6,20.1 -93.5,44 -33.3,-5.9 -89.8,3 -89.8,3 0,0 -5.6,-36.7 -1.4,-47 C 22.5,44 4.1,136.4 1,186.4 v 0 c 0,0 25.5,-12.2 50.1,2 1,-0.7 -16.6,31.8 -34.2,39.4 -0.2,0.1 1.1,0.3 0.9,0.4 18,-0.7 56.8,-17 74.7,-31.2 59.2,-47.1 51.1,-79.9 51.1,-79.9 0,0 -27.3,43.6 -48.9,16.1 -17,-21.6 34,-70.9 119.3,-55.9 50.8,8.9 82.5,31 82.5,31 L 249,56 Z M 50.1,164.9 c -3.6,4.4 -8.3,5 -12.2,2.8 -5.3,-3 4.1,-24.5 17.5,-25.5 0,-0.1 -0.2,16.5 -5.3,22.7 z m 36,-52.5 c 0,0 3.9,-23.3 -21,-41.6 27.5,9.5 30.1,24.6 21,41.6 z m 8.1,-9.9 c 0,0 3.3,-19.5 -17.5,-34.8 22.9,7.9 25.1,20.6 17.5,34.8 z m 7,-9.9 c 0,0 2.6,-15.7 -14.1,-28 18.5,6.4 20.2,16.6 14.1,28 z m 6,-9.2 c 0,0 2,-11.9 -10.7,-21.2 14,4.8 15.4,12.6 10.7,21.2 z"
   class="st0" />
	</g><g
   id="g28"
   style="fill:#0e303c;fill-opacity:1"
   transform="translate(0,-167)">
		
	</g>
</svg>