<?xml version="1.0" encoding="UTF-8" standalone="no"?>
<!-- Generator: Adobe Illustrator 19.1.0, SVG Export Plug-In . SVG Version: 6.00 Build 0)  -->

<svg
   xmlns:dc="http://purl.org/dc/elements/1.1/"
   xmlns:cc="http://creativecommons.org/ns#"
   xmlns:rdf="http://www.w3.org/1999/02/22-rdf-syntax-ns#"
   xmlns:svg="http://www.w3.org/2000/svg"
   xmlns="http://www.w3.org/2000/svg"
   xmlns:sodipodi="http://sodipodi.sourceforge.net/DTD/sodipodi-0.dtd"
   xmlns:inkscape="http://www.inkscape.org/namespaces/inkscape"
   version="1.1"
   id="Layer_1"
   x="0px"
   y="0px"
   viewBox="0 0 120 60.000001"
   xml:space="preserve"
   sodipodi:docname="usbank-ar21.svg"
   width="120"
   height="60"
   inkscape:version="0.92.3 (2405546, 2018-03-11)"><metadata
   id="metadata31"><rdf:RDF><cc:Work
       rdf:about=""><dc:format>image/svg+xml</dc:format><dc:type
         rdf:resource="http://purl.org/dc/dcmitype/StillImage" /><dc:title></dc:title></cc:Work></rdf:RDF></metadata><defs
   id="defs29">
	

		
		
	
			
			
			
			
			
			
			
		</defs><sodipodi:namedview
   pagecolor="#ffffff"
   bordercolor="#666666"
   borderopacity="1"
   objecttolerance="10"
   gridtolerance="10"
   guidetolerance="10"
   inkscape:pageopacity="0"
   inkscape:pageshadow="2"
   inkscape:window-width="1920"
   inkscape:window-height="1001"
   id="namedview27"
   showgrid="false"
   inkscape:zoom="1.5201794"
   inkscape:cx="111.5"
   inkscape:cy="27.9"
   inkscape:window-x="-9"
   inkscape:window-y="-9"
   inkscape:window-maximized="1"
   inkscape:current-layer="Layer_1" />
<style
   type="text/css"
   id="style2">
	.st0{fill:#CC162B;}
	.st1{fill:#FFFFFF;}
	.st2{fill:#FFFFFF;}
</style>
<g
   id="g871"
   transform="matrix(0.43413582,0,0,0.43413582,12.939677,17.887611)"><polygon
     class="st0"
     points="73.4,43.3 73.4,0 0,0 0,43.3 36.7,55.8 "
     id="polygon4"
     style="fill:#cc162b" /><path
     class="st1"
     d="M 36.6,41.9 H 25.4 V 38 H 25.3 C 23.1,41.1 20,42.6 15.4,42.6 9.9,42.7 5,39.3 5,32.4 V 11.5 h 11.6 v 16 c 0,3.5 0.4,6 3.8,6 2,0 4.6,-1 4.6,-5.9 V 11.5 h 11.6 z"
     id="path6"
     inkscape:connector-curvature="0"
     style="fill:#ffffff" /><path
     class="st1"
     d="m 58.3,20.3 c -0.1,-1 -0.6,-1.8 -1.4,-2.3 -0.7,-0.6 -1.6,-0.9 -2.6,-0.9 -1.6,0 -3.5,0.4 -3.5,2.3 0,0.9 0.7,1.3 1.4,1.6 1.9,0.8 6.3,1.1 10.2,2.3 3.9,1.2 7.3,3.5 7.3,8.5 0,8.5 -8.1,10.7 -15.5,10.7 -7.2,0 -15,-2.9 -15.2,-10.7 h 11.1 c 0.1,1.1 0.5,1.9 1.4,2.7 0.6,0.5 1.7,0.9 3.1,0.9 1.5,0 3.9,-0.6 3.9,-2.3 0,-1.8 -1,-2.3 -6.4,-3.2 -8.9,-1.5 -12.4,-4.3 -12.4,-9.6 0,-7.7 8.3,-9.7 14.4,-9.7 6.6,0 14.5,1.8 14.8,9.6 H 58.3 Z"
     id="path8"
     inkscape:connector-curvature="0"
     style="fill:#ffffff" /><path
     class="st2"
     d="m 77.5,0 h 11.6 v 14.8 h 0.1 c 1.8,-2.6 4.9,-4.1 8.3,-4.1 10.2,0 13,8.7 13,15.8 0,7.6 -4.2,16.1 -12.8,16.1 -5.7,0 -7.5,-2.2 -8.9,-4.1 h -0.1 v 3.3 H 77.5 Z m 16.3,19.2 c -4.2,0 -5.1,3.9 -5.1,7.5 0,3.6 0.9,7.6 5.1,7.6 4.2,0 5.1,-3.9 5.1,-7.6 0,-3.6 -0.9,-7.5 -5.1,-7.5 z"
     id="path10"
     inkscape:connector-curvature="0"
     style="fill:#000000" /><path
     class="st2"
     d="m 142.9,35.1 c 0,2.3 0.1,4.9 1.4,6.8 H 132.4 C 132.1,41.1 131.9,39.8 132,39 v 0 c -2.5,2.8 -6,3.6 -9.8,3.6 -5.9,0 -10.7,-2.8 -10.7,-9.2 0,-9.6 11.3,-9.3 17.2,-10.4 1.6,-0.3 3.2,-0.8 3.2,-2.7 0,-2.1 -1.9,-2.8 -3.8,-2.8 -3.6,0 -4.3,1.8 -4.3,3.1 H 113 c 0.4,-8.6 8.5,-10 15.7,-10 14.6,0 14.4,6 14.4,11.9 v 12.6 z m -11.1,-6.8 c -1.4,0.7 -3,1.1 -4.6,1.5 -2.6,0.6 -3.9,1.2 -3.9,3.3 0,1.4 1.5,2.8 3.6,2.8 2.6,0 4.7,-1.6 4.9,-4.8 z"
     id="path12"
     inkscape:connector-curvature="0"
     style="fill:#000000" /><path
     class="st2"
     d="m 147.1,11.5 h 11.2 v 3.9 h 0.1 c 2.2,-3.1 5.3,-4.6 9.9,-4.6 5.5,0 10.5,3.3 10.5,10.3 V 42 H 167.2 V 26 c 0,-3.5 -0.4,-6 -3.8,-6 -2,0 -4.6,1 -4.6,5.9 V 42 H 147.2 V 11.5 Z"
     id="path14"
     inkscape:connector-curvature="0"
     style="fill:#000000" /><path
     class="st2"
     d="m 182.9,0 h 11.6 v 20.2 l 7.4,-8.8 H 215 L 204.2,23 216.8,42 h -14 l -6.2,-11 -2.1,2.2 V 42 h -11.6 z"
     id="path16"
     inkscape:connector-curvature="0"
     style="fill:#000000" /></g>
</svg>