<?xml version="1.0" encoding="UTF-8" standalone="no"?>
<!-- Generator: Adobe Illustrator 16.0.0, SVG Export Plug-In . SVG Version: 6.00 Build 0)  -->

<svg
   xmlns:dc="http://purl.org/dc/elements/1.1/"
   xmlns:cc="http://creativecommons.org/ns#"
   xmlns:rdf="http://www.w3.org/1999/02/22-rdf-syntax-ns#"
   xmlns:svg="http://www.w3.org/2000/svg"
   xmlns="http://www.w3.org/2000/svg"
   xmlns:sodipodi="http://sodipodi.sourceforge.net/DTD/sodipodi-0.dtd"
   xmlns:inkscape="http://www.inkscape.org/namespaces/inkscape"
   version="1.1"
   id="Layer_1"
   x="0px"
   y="0px"
   viewBox="0 0 120 60"
   enable-background="new 0 0 800 300"
   xml:space="preserve"
   sodipodi:docname="i18next-ar21.svg"
   width="120"
   height="60"
   inkscape:version="0.92.4 (5da689c313, 2019-01-14)"><metadata
   id="metadata65"><rdf:RDF><cc:Work
       rdf:about=""><dc:format>image/svg+xml</dc:format><dc:type
         rdf:resource="http://purl.org/dc/dcmitype/StillImage" /><dc:title></dc:title></cc:Work></rdf:RDF></metadata><defs
   id="defs63" /><sodipodi:namedview
   pagecolor="#ffffff"
   bordercolor="#666666"
   borderopacity="1"
   objecttolerance="10"
   gridtolerance="10"
   guidetolerance="10"
   inkscape:pageopacity="0"
   inkscape:pageshadow="2"
   inkscape:window-width="1920"
   inkscape:window-height="1001"
   id="namedview61"
   showgrid="false"
   inkscape:zoom="4.794184"
   inkscape:cx="80.023715"
   inkscape:cy="28.464508"
   inkscape:window-x="-9"
   inkscape:window-y="-9"
   inkscape:window-maximized="1"
   inkscape:current-layer="Layer_1" />

<g
   id="g902"
   transform="matrix(0.12722472,0,0,0.12722472,9.304083,41.267728)"><g
     transform="translate(0,-240)"
     id="logo__item--business">
	<g
   id="g30"
   transform="matrix(2.7357981,0,0,2.7357981,119.60156,93.786941)">
		<g
   id="g4"
   enable-background="new    ">
			<path
   style="fill:#009688"
   inkscape:connector-curvature="0"
   id="path2"
   d="M 40.819,5.687 C 39.828,4.696 39.332,3.481 39.332,2.042 c 0,-1.438 0.496,-2.653 1.487,-3.645 0.991,-0.991 2.206,-1.487 3.645,-1.487 1.438,0 2.653,0.496 3.645,1.487 0.991,0.991 1.487,2.207 1.487,3.645 0,1.439 -0.496,2.653 -1.487,3.645 C 47.118,6.678 45.902,7.174 44.464,7.174 43.025,7.175 41.81,6.679 40.819,5.687 Z m 8.018,35.368 H 40.09 V 9.682 h 8.747 z" />
		</g>
		<g
   id="g8"
   enable-background="new    ">
			<path
   style="fill:#009688"
   inkscape:connector-curvature="0"
   id="path6"
   d="M 54.785,0.293 H 71.288 V 41.055 H 62.54 V 8.049 H 54.784 V 0.293 Z" />
		</g>
		<g
   id="g12"
   enable-background="new    ">
			<path
   style="fill:#009688"
   inkscape:connector-curvature="0"
   id="path10"
   d="m 85.079,2.568 c 2.702,-2.138 6.074,-3.208 10.118,-3.208 4.043,0 7.406,1.07 10.088,3.207 2.683,2.139 4.024,4.773 4.024,7.902 0,3.13 -1.205,5.822 -3.615,8.077 3.382,2.605 5.073,6.027 5.073,10.264 0,3.577 -1.439,6.589 -4.315,9.039 -2.878,2.449 -6.629,3.674 -11.255,3.674 -4.627,0 -8.378,-1.225 -11.255,-3.674 -2.877,-2.449 -4.315,-5.462 -4.315,-9.039 0,-4.237 1.691,-7.659 5.073,-10.264 -2.449,-2.293 -3.674,-4.995 -3.674,-8.106 0.001,-3.11 1.351,-5.734 4.053,-7.872 z m 5.686,30.002 c 1.36,0.914 2.837,1.371 4.432,1.371 1.594,0 3.071,-0.457 4.432,-1.371 1.36,-0.913 2.041,-2.245 2.041,-3.994 0,-1.749 -0.662,-3.091 -1.983,-4.024 -1.322,-0.933 -2.819,-1.4 -4.49,-1.4 -1.672,0 -3.169,0.467 -4.49,1.4 -1.322,0.933 -1.983,2.274 -1.983,4.024 0,1.75 0.68,3.081 2.041,3.994 z m 0.554,-17.815 c 1.108,0.933 2.4,1.399 3.878,1.399 1.477,0 2.77,-0.467 3.878,-1.399 1.108,-0.933 1.662,-2.089 1.662,-3.47 0,-1.379 -0.545,-2.537 -1.633,-3.47 -1.089,-0.933 -2.391,-1.4 -3.907,-1.4 -1.516,0 -2.819,0.467 -3.907,1.4 -1.089,0.933 -1.633,2.09 -1.633,3.47 0,1.381 0.554,2.537 1.662,3.47 z" />
		</g>
		<g
   id="g16"
   enable-background="new    ">
			<path
   style="fill:#009688"
   inkscape:connector-curvature="0"
   id="path14"
   d="m 126.803,23.561 v 17.494 h -8.747 V 9.682 h 8.747 v 3.499 c 2.643,-2.683 5.617,-4.024 8.922,-4.024 3.304,0 6.074,1.166 8.31,3.499 2.235,2.333 3.353,5.443 3.353,9.331 v 19.069 h -8.747 V 23.328 c 0,-4.82 -1.769,-7.231 -5.307,-7.231 -1.749,0 -3.276,0.632 -4.578,1.895 -1.302,1.264 -1.953,3.12 -1.953,5.569 z" />
		</g>
		<g
   id="g20"
   enable-background="new    ">
			<path
   style="fill:#009688"
   inkscape:connector-curvature="0"
   id="path18"
   d="m 182.493,36.507 c -3.538,3.344 -7.688,5.015 -12.45,5.015 -4.763,0 -8.699,-1.467 -11.809,-4.403 -3.111,-2.935 -4.665,-6.871 -4.665,-11.808 0,-4.937 1.583,-8.864 4.753,-11.78 3.168,-2.916 6.91,-4.373 11.226,-4.373 4.315,0 7.979,1.303 10.992,3.907 3.012,2.605 4.519,6.181 4.519,10.73 V 28.46 H 162.2 c 0.272,1.711 1.166,3.111 2.683,4.199 1.516,1.089 3.227,1.633 5.132,1.633 3.071,0 5.598,-1.03 7.581,-3.091 z m -8.397,-18.603 c -1.206,-1.011 -2.674,-1.516 -4.403,-1.516 -1.73,0 -3.315,0.525 -4.753,1.575 -1.439,1.05 -2.274,2.469 -2.508,4.257 h 13.762 C 176,20.354 175.301,18.916 174.096,17.904 Z" />
		</g>
		<g
   id="g24"
   enable-background="new    ">
			<path
   style="fill:#009688"
   inkscape:connector-curvature="0"
   id="path22"
   d="m 198.121,9.682 5.365,8.397 5.54,-8.397 h 10.263 l -10.788,15.336 11.196,16.037 h -10.438 l -6.123,-8.631 -5.948,8.631 H 187.1 L 198.063,25.077 187.683,9.682 Z" />
		</g>
		<g
   id="g28"
   enable-background="new    ">
			<path
   style="fill:#009688"
   inkscape:connector-curvature="0"
   id="path26"
   d="m 235.034,15.98 v 14.054 c 0,1.205 0.311,2.149 0.933,2.828 0.621,0.681 1.36,1.021 2.216,1.021 1.633,0 3.012,-0.738 4.14,-2.216 l 3.265,6.123 c -2.721,2.488 -5.589,3.732 -8.601,3.732 -3.013,0 -5.56,-0.991 -7.639,-2.974 -2.08,-1.983 -3.12,-4.685 -3.12,-8.106 V 15.98 h -3.674 V 9.682 h 3.674 V 0.293 h 8.805 v 9.389 h 7.581 v 6.298 z" />
		</g>
	</g>
</g><g
     transform="translate(0,-240)"
     id="logo__item--logo_0">
	<g
   id="g57"
   transform="matrix(1.5849745,0,0,1.5849745,-33.159906,-17)">
		<g
   id="g55">
			<path
   style="fill:#009688"
   inkscape:connector-curvature="0"
   id="path33"
   d="m 88.822,51.582 v 25.966 l 29.179,74.943 c 0,0 8.908,18.303 -16.57,22.763 H 43.308 c 0,0 -23.747,-2.478 -18.054,-21.281 L 55.918,77.549 V 51.582 Z" />
			<g
   id="g39">
				<g
   id="g37">
					<path
   style="fill:#004d40"
   inkscape:connector-curvature="0"
   id="path35"
   d="M 89.438,48.563 H 54.435 c -2.835,0 -5.141,-2.522 -5.141,-5.638 0,-3.118 2.305,-5.64 5.141,-5.64 h 35.003 c 2.848,0 5.15,2.522 5.15,5.64 0,3.116 -2.303,5.638 -5.15,5.638 z" />
				</g>
			</g>
			<path
   style="fill:#ffffff"
   inkscape:connector-curvature="0"
   id="path41"
   d="m 80.204,93.979 c 3.756,0 6.819,3.67 6.819,8.215 0,4.525 -3.065,8.204 -6.819,8.204 -3.765,0 -6.819,-3.679 -6.819,-8.204 0,-4.547 3.054,-8.215 6.819,-8.215 z" />
			<ellipse
   style="fill:#ffffff"
   id="ellipse43"
   ry="6.928"
   rx="5.7480001"
   cy="108.362"
   cx="59.271" />
			<path
   style="fill:#004d40"
   inkscape:connector-curvature="0"
   id="path45"
   d="m 91.417,75.827 v -12.35 c 0,0 15.661,-3.453 23.488,14.763 0,-10e-4 -12.198,8.887 -23.488,-2.413 z" />
			<path
   style="fill:#004d40"
   inkscape:connector-curvature="0"
   id="path47"
   d="m 53.059,75.827 v -12.35 c 0,0 -15.663,-3.453 -23.486,14.763 0,-10e-4 12.186,8.887 23.486,-2.413 z" />
			<path
   style="fill:#ffffff"
   inkscape:connector-curvature="0"
   id="path49"
   d="m 100.833,126.935 c -25.467,-7.9 -46.878,-3.659 -57.343,-0.453 l -10.553,25.401 c -4.751,15.164 15.087,17.157 15.087,17.157 h 48.545 c 21.279,-3.595 13.842,-18.347 13.842,-18.347 z" />
			<path
   style="fill:#004d40"
   inkscape:connector-curvature="0"
   id="path51"
   d="m 64.131,136.373 c 0,2.739 -3.681,4.967 -8.215,4.967 -4.534,0 -8.204,-2.229 -8.204,-4.967 0,-2.75 3.67,-4.97 8.204,-4.97 4.536,0.002 8.215,2.22 8.215,4.97 z" />
			<path
   style="fill:#004d40"
   inkscape:connector-curvature="0"
   id="path53"
   d="m 93.345,136.373 c 0,2.739 -3.681,4.967 -8.204,4.967 -4.547,0 -8.215,-2.229 -8.215,-4.967 0,-2.75 3.668,-4.97 8.215,-4.97 4.525,0.002 8.204,2.22 8.204,4.97 z" />
		</g>
	</g>
</g></g>
</svg>