<svg xmlns="http://www.w3.org/2000/svg" width="64" height="64"><path d="M64 52.8C64 59 59 64 52.8 64H11.2C5 64 0 59 0 52.8V11.2C0 5 5 0 11.2 0h41.6C59 0 64 5 64 11.2z" fill="#1ec677"/><path d="M35.136 51.864c6.68 0 11.413-2.527 14.23-4.647V38.01c-4.153 3.282-9.032 5.17-13.36 5.17-6.912 0-11.762-4.763-11.762-11.617 0-6.505 4.414-11.036 10.716-11.036 2.062 0 3.833.523 5.72 1.045 1.946.552 3.98 1.162 6.4 1.162.755 0 1.5-.058 2.265-.174v-8.77c-.64.058-1.25.116-1.888.116-2.178 0-4.153-.407-6.215-.842-2.178-.465-4.414-.93-7.057-.93-5.257 0-10.135 1.86-13.708 5.286-3.804 3.63-5.837 8.683-5.837 14.58 0 11.704 8.422 19.864 20.503 19.864z" fill="#fff"/></svg>