<svg xmlns="http://www.w3.org/2000/svg" width="120" height="60" viewBox="0 678.885 120 60"><path d="M68.77 716.682c0 .967-2.195 1.753-4.915 1.753-2.712 0-4.907-.786-4.907-1.753s2.195-1.753 4.907-1.753 4.915.787 4.915 1.753" fill="#ccc"/><path d="M68.72 704.34c0 2.76-2.236 4.997-4.997 4.997s-4.997-2.236-4.997-4.997 2.237-4.997 4.997-4.997 4.997 2.236 4.997 4.997" fill="#c00"/><path d="M34.838 701.67a1.16 1.16 0 0 1-.811-.328 1.09 1.09 0 0 1-.352-.836c0-.287.107-.565.32-.803.205-.237.508-.368.844-.368h.025c.328 0 .623.13.827.37s.31.516.31.795c0 .32-.123.614-.344.827s-.5.336-.795.336h-.025zM10 717.8v-14.664h1.655v1.516l.213-.205c1.073-1.032 2.228-1.532 3.54-1.532 1.393 0 2.572.516 3.416 1.5.91 1.057 1.393 2.622 1.393 4.53s-.49 3.48-1.417 4.53c-.868.975-2.08 1.5-3.514 1.5-1.23 0-2.35-.475-3.424-1.458l-.213-.197v4.48zm5.25-13.4c-1.23 0-2.236.524-3.465 1.818l-.033.033v5.52l.033.033c1.188 1.237 2.26 1.794 3.465 1.794 1.54-.016 3.383-.82 3.416-4.588-.016-2.876-1.294-4.604-3.416-4.612zm14.6 10.42v-8.094c-.033-1.638-.655-2.294-2.212-2.327-1.303 0-2.507.6-3.9 1.925l-.04.04v8.455h-1.655v-15.352h1.655v5.423l.213-.188c1.286-1.147 2.67-1.737 4.096-1.737 1.138 0 2.015.31 2.613.926.582.598.885 1.458.885 2.556v8.38l-1.655-.008zm4.17-11.633h1.655V714.8H34.01zm14.525 14.73h-.156c-.844 0-1.204-.107-1.63-.23l-.123-.033.385-1.385.164.04c.295.082.54.148 1.245.148 1.27-.033 1.426-.147 1.81-.868l.295-.778-4.473-11.625h1.77l3.547 9.618 3.523-9.618h1.73l-4.81 12.444c-.623 1.614-1.212 2.286-3.277 2.286m-8.25-3.12c-.688 0-1.147-.14-1.467-.467-.393-.393-.573-1.024-.573-1.983v-12.862H39.9v12.558c0 .393.025.9.172 1.13.115.18.246.205.49.213.37 0 .443-.025.68-.107l.238-.082v1.45l-.205.04c-.27.058-.533.107-.975.107h-.016zm4.686 0c-.688 0-1.147-.14-1.467-.467-.393-.385-.573-1.016-.573-1.983v-12.853h1.655v12.558c0 .394.025.9.172 1.13.123.18.246.205.49.213.377 0 .443-.025.68-.107l.23-.082v1.45l-.205.04c-.27.058-.533.107-.975.107l-.008-.008zm30.573.262a4.71 4.71 0 0 1-3.531-1.581c-.99-1.106-1.516-2.646-1.516-4.465 0-1.917.557-3.506 1.614-4.58.926-.942 2.195-1.466 3.58-1.466h.016c2.09 0 3.547 1.04 4.457 3.187l.033.066-1.425.63-.025-.074c-.705-1.68-1.597-2.36-3.088-2.376-.82.008-3.482.36-3.506 4.588.016 2.8 1.368 4.63 3.457 4.637 1.532-.016 2.376-.64 3.22-2.4l.033-.065 1.36.582-.033.065c-1.016 2.187-2.532 3.244-4.62 3.244h-.025v.008zm10.928 0c-1.442 0-2.76-.557-3.71-1.58-1.032-1.098-1.573-2.646-1.573-4.465 0-1.835.54-3.383 1.565-4.473.95-1.016 2.27-1.573 3.72-1.573s2.76.557 3.71 1.573c1.024 1.098 1.556 2.646 1.556 4.473s-.54 3.367-1.556 4.465c-.95 1.024-2.26 1.58-3.71 1.58zm.008-10.658c-2.187.008-3.612 1.802-3.63 4.587.016 2.818 1.442 4.637 3.63 4.637 2.212 0 3.596-1.778 3.612-4.637-.016-2.785-1.433-4.588-3.612-4.588zm21.856 10.42v-8.094c0-.82-.147-1.393-.46-1.753-.328-.385-.844-.565-1.622-.565-1.212 0-2.294.557-3.727 1.925l-.04.04v8.454h-1.655v-8.094c0-.82-.147-1.4-.46-1.753-.328-.385-.852-.565-1.647-.565-1.196 0-2.3.573-3.72 1.925l-.04.04v8.455h-1.655v-11.633h1.655v1.704l.213-.188c1.294-1.18 2.548-1.73 3.924-1.73h.05c1.598 0 2.63.614 3.088 1.827l.065.172.14-.123c1.4-1.26 2.76-1.876 4.16-1.876 1.155 0 2.024.32 2.597.95.524.582.795 1.434.795 2.523v8.38h-1.663v-.024z"/></svg>