<svg xmlns="http://www.w3.org/2000/svg" xmlns:xlink="http://www.w3.org/1999/xlink" width="120" height="60"><g transform="matrix(.633036 0 0 .633036 -443.8013 403.08072)"><g transform="translate(0 -732)"><path d="M770.8 138.9c.2 16.4-12.5 29.8-28.3 30s-28.7-13-28.9-29.4 12.5-29.8 28.3-30 28.7 13 28.9 29.4z" fill="#f5ea14"/><path d="M729.2 162.5l-8.9 10 22.3-.3-.1-9.8z" fill="#fff"/><path d="M742.823 136.76l11.2-.128.104 9.1-11.2.128z" fill="#25225a"/><g stroke="#000" stroke-miterlimit="10"><path d="M728.5 128.4" fill="#fff"/><path d="M736.1 165.3" fill="none"/></g><path d="M745.1 129.2l-.1-2.4 2.8-.2v3zm5.5.8v-2.4h2.1l.1 2.7z" fill="#25225a"/><path d="M752.7 127.6v2.7l-2.1-.3v-2.8l-2.8-.6v3l-2.8-.4V126l-3.2-.7.4 37 4.9-.1 4.7-.1h3.7l-.4-34.1zm-.2 11.3c.6.1 1.1 1 1.1 2v3h-2.4V141c0-1.2.6-2.1 1.3-2.1zm-7.7 1.7c0-1.2.6-2.1 1.2-2s1.1 1 1.1 2v3.2h-2.3v-.2zm10.7 21.6l9.1 9.8-22.3.2-.1-9.8z" fill="#fff"/><defs><path id="A" d="M752 162.3v-.5l-.1-6c0-2.1-1-3.9-2.2-4h-.1c-1.3-.2-2.5 1.7-2.5 4.1l.1 6v.5z"/></defs><use xlink:href="#A" fill="#25225a"/><clipPath id="B"><use xlink:href="#A"/></clipPath><path clip-path="url(#B)" d="M750.6 146.1h-1.9l.2 16.2h1.8l-.1-10.1z" fill="#25225a"/><g clip-path="url(#B)" fill="#25225a"><path d="M750.9 146.4H749l.2 16.2 1.8-.1-.1-10.1z"/><path d="M742.7 159.2l18.5.2V156l-18.5-.4z"/></g><path d="M750.9 162.3l-.1-9.1.5 1.7z" fill="#25225a"/><path d="M738.6 129.3v-2.4l-2.8-.2.1 3zm-5.5.9v-2.4h-2.2l.1 2.7z" fill="#fff"/><path d="M728.5 128.4l.4 34.1-8.9 10 35.5-10.3-13.3.2-.1-5.3v-.5l-.3-31.2-3.2.7v3.2l-2.7.4-.1-3-2.8.7.1 2.8-2.1.3-.1-2.7z" fill="#25225a"/><defs><path id="C" d="M750.9 162.3v-.4l-.1-5.6c0-2-.9-3.6-2-3.8h-.1c-1.3-.2-2.3 1.6-2.3 3.8l.1 5.6v.4z"/></defs><use xlink:href="#C" fill="#fff"/><clipPath id="D"><use xlink:href="#C"/></clipPath><path clip-path="url(#D)" d="M749.6 147.2h-1.7l.1 15.1h1.8l-.1-9.4z" fill="#fff"/><g clip-path="url(#D)" fill="#fff"><path d="M749.9 147.4l-1.7.1.1 15h1.8l-.1-9.4z"/><path d="M742.3 159.5l17.3.1-.1-3.2-17.2-.3z"/></g><g fill="#fff"><path d="M744.3 143.9V141c0-.9.4-1.7.9-1.8.6-.1 1.1.7 1.1 1.8v2.9zm6.4.1v-2.9c0-.9.4-1.7.9-1.8.6-.1 1.1.7 1.1 1.8v2.9z"/><path d="M743.558 143.21l2.8-.032.033 2.9-2.8.032z"/></g></g><path d="M786.1-609.7c0 .8.1 1.5.3 2.3s.4 1.5.8 2.2l.2.4 1.7 3.7c.3.7.6 1.5.8 2.4s.3 1.8.3 2.7c0 .6-.1 1.2-.2 1.9l-.7 1.8c-.3.6-.7 1.1-1.2 1.4s-1.1.5-1.7.5c-.7 0-1.2-.1-1.7-.4-.3-.2-.4-.4-.4-.6s.1-.4.2-.6c.1-.1.3-.2.5-.2s.5.1.8.2c.3.2.6.2.7.2.3 0 .7-.2 1-.5s.5-.8.7-1.3.3-1 .4-1.4c.1-.5.1-.9.1-1.2 0-.8-.1-1.7-.4-2.7l-1-2.8-.4-.8-1.1-2.3c-.3-.6-.5-1.3-.7-2-.3-.9-.4-1.9-.4-2.8 0-.7.1-1.4.3-2s.6-1.2 1-1.6a2.19 2.19 0 0 1 1.7-.7 1.93 1.93 0 0 1 1 .3c.3.2.5.5.7.8l-.5.6c-.5 0-.8-.1-1.1-.3-.3 0-.6.2-.9.5s-.4.7-.5 1.1c-.2.4-.3.8-.3 1.2zm11.3 15.5l-.1-.6-2.6-.4c-.1.5-.3 1.4-.4 2.6-.1.9-.3 1.5-.5 1.8a.55.55 0 0 1-.5.3c-.2 0-.4-.1-.6-.2a.55.55 0 0 1-.3-.5v-.2c1.2-4.8 2-9.5 2.6-14.1 0-.4.1-.8.1-1.1 0-.7.1-1.2.2-1.6s.2-.7.3-.9h.9c.3 0 .5.1.6.2a.55.55 0 0 1 .3.5c0 1.4.2 3.5.5 6.3s.5 4.8.5 6c0 .2 0 .4.1.9s.1.7.1.9.1.7.3 1.7c.2.9.2 1.4.2 1.7 0 .4-.1.7-.4.8-.4 0-.7-.1-.9-.2s-.3-.4-.3-.7c.2-1 .1-1.9-.1-3.2zm-.3-1.6c-.1-.3-.1-.6-.1-1 0-.9 0-1.8-.1-2.8s-.2-2.2-.3-3.6l-.3-2.9c-.8 4.6-1.3 7.9-1.5 9.8.3.3 1.1.4 2.3.5zm12.8 2.5c.3-3.9.5-8.6.5-14.1v-.8c0-.6.2-.8.6-.8a.55.55 0 0 1 .5.3c.1.2.2.5.2.8v2.1c0 1.6-.1 3.6-.1 5.8l-.3 6c-.1 1.8-.3 2.8-.5 3.1-.5.2-.8.2-.9.2-.2 0-.4-.1-.5-.2s-.2-.3-.2-.6c-.1-.3-.1-.4-.2-.5v-.2c0-.4-.3-1.6-.9-3.4-.6-1.9-1.2-3.9-2-6-.7-2.1-1.3-3.7-1.7-4.7v14l.1.2c.1.2.2.3.2.5s-.1.4-.2.6-.3.3-.6.3c-.6 0-.8-.6-.8-1.7v-9.6c0-.6 0-1.4.1-2.6s.1-2 .1-2.6c0-.9.3-1.5.9-2v.2c.1 0 .1-.1.2-.1.4 0 .9.7 1.5 2.2.5 1.2.9 2.4 1.3 3.8l1.4 5.1.4 1.4c.5 1.8.7 2.7.7 2.7a1.19 1.19 0 0 0 .2.6zm5.9-14.8c0-.2.1-.4.3-.6s.4-.3.6-.3c.6 0 1.2.1 1.7.4.6.3 1.1.7 1.5 1.2s.8 1.1 1.1 1.7.5 1.3.7 2 .2 1.4.2 2v4.4c0 .4 0 .8-.1 1.3l-.2 1.3c-.1.4-.2.8-.4 1.2l-.6 1.1c-.2.3-.5.6-.9 1-.4.3-.8.6-1.2.8h-1.9c-.4 0-.7-1.2-.7-3.6v-8.8c0-.6-.1-1.5-.2-2.7.2-1.2.1-2 .1-2.4zm2 15.5v.7c.3 0 .7-.1.9-.3.3-.2.5-.5.7-.8s.3-.7.5-1.1c.1-.4.3-.9.3-1.3.1-.4.1-.8.2-1.3 0-.5.1-.9.1-1.2v-1c0-5.6-1-8.5-3-8.7-.1.7-.2 1.7-.2 2.9l.2 6.1c.3 2.6.3 4.6.3 6zm16.4.2c.3 0 .5.1.8.4 0 .4-.1.7-.2 1s-.3.5-.6.7c-.2.2-.5.3-.8.4s-.6.2-.9.2-.6.1-.9.1c-.5 0-1-.1-1.4-.4s-.8-.6-1.1-1-.5-.9-.7-1.6c-.2-.6-.4-1.3-.5-2l-.3-2.2c-.1-.8-.1-1.6-.1-2.4v-5.9c0-1.1.1-2 .2-2.7-.1-.3-.1-.6-.1-.9 0-.8.2-1.5.6-2.1s.9-1.1 1.6-1.4 1.4-.5 2.3-.5c.3 0 .6.1.9.2s.5.3.7.5a1.08 1.08 0 0 1 .3.7c0 .2-.1.4-.2.5s-.3.2-.5.2-.4 0-.6-.1a1.38 1.38 0 0 1-.4-.3h-.4c-.7 0-1.3.2-1.7.5-.2.1-.3.3-.5.5-.1.2-.2.5-.3.7s-.1.5-.2.8c0 .3-.1.7-.1.9v3c0 .2 0 .6-.1 1-.1.5-.1.8-.1 1v.7l.1 3.2c0 .6.1 1.2.1 1.7.1.5.1 1.1.3 1.7.1.6.2 1 .4 1.5.1.4.3.8.6 1.2.4.7 1 1.1 1.8 1.1.3 0 .7-.2 1.2-.5.2-.3.6-.4.8-.4zm7.9-1.8l-.1-.6-2.6-.4c-.1.5-.3 1.4-.4 2.6-.1.9-.3 1.5-.5 1.8a.55.55 0 0 1-.5.3c-.2 0-.4-.1-.6-.2a.55.55 0 0 1-.3-.5v-.2c1.2-4.8 2-9.5 2.6-14.1 0-.4.1-.8.1-1.1 0-.7.1-1.2.2-1.6s.2-.7.3-.9h.9c.3 0 .5.1.6.2a.55.55 0 0 1 .3.5c0 1.4.2 3.5.5 6.3s.5 4.8.5 6c0 .2 0 .4.1.9s.1.7.1.9.1.7.3 1.7c.2.9.2 1.4.2 1.7 0 .4-.1.7-.4.8-.4 0-.7-.1-.9-.2s-.3-.4-.3-.7c.2-1 .1-1.9-.1-3.2zm-.2-1.6c-.1-.3-.1-.6-.1-1 0-.9 0-1.8-.1-2.8s-.2-2.2-.3-3.6l-.3-2.9c-.8 4.6-1.3 7.9-1.5 9.8.3.3 1 .4 2.3.5zm7.3-9.5c0 .5.1 1.1.2 1.6.1.6.3 1 .6 1.5l1.5 2.9a18.88 18.88 0 0 1 .6 1.8l.2 2.1c0 1.1-.2 2.2-.7 3.2-.2.5-.6.9-1 1.3-.4.3-.9.5-1.5.5v.1c-.3-.1-.6-.2-.8-.4s-.3-.4-.4-.7l.3-.5c.3.1.4.1.5.1.2.1.4.1.6.1.3 0 .6-.1.8-.4s.4-.7.6-1.2c.2-.9.3-1.7.3-2.4a6.28 6.28 0 0 0-.3-1.9c-.2-.7-.5-1.3-.8-1.9l-.2-.4c-.4-.6-.6-1.2-.9-1.7s-.4-1-.6-1.6c-.2-.7-.3-1.4-.3-2.2s.2-1.7.5-2.5c.2-.4.4-.8.7-1.1s.7-.4 1.1-.4c.3 0 .6.1.9.3s.4.5.4.8c0 .2-.1.3-.2.4s-.3.1-.4.1c-.2 0-.4-.1-.5-.2a.55.55 0 0 0-.5.3c-.2.2-.3.5-.4.8-.2.6-.3 1.2-.3 1.6zm9.5 12v-.9c-.1-.2-.2-2.3-.4-6.1l-.3-7.3c-1 0-1.6-.1-1.9-.4a.55.55 0 0 1-.3-.5c0-.2.1-.3.3-.4s.4-.2.6-.2a13.57 13.57 0 0 1 1.8.1c.8.1 1.3.1 1.8.1h.4c.5 0 .8.2.8.7a.55.55 0 0 1-.3.5c-.2.1-.4.2-.6.2s-.4 0-.7-.1l-.5-.1v.3c0 1.8.1 4.4.4 7.9l.4 7.9c0 .2-.1.4-.3.6s-.4.3-.6.3l-.5-.4v-1.1zm8.2-5.1v.3l-.2 4.4c0 1.3.3 1.9.9 1.9h1.1c.9 0 1.4.3 1.4.8 0 .2-.1.4-.2.5s-.3.2-.6.2c-.6-.2-1.4-.3-2.3-.3-.3.2-.6.3-.9.3a.55.55 0 0 1-.5-.3c-.1-.2-.2-.4-.2-.6l.4-12.6-.2-2.6c0-1.8.3-2.6.9-2.6.2 0 .3.1.5.2s.2.3.2.5c0 .3 0 .6-.1 1.1-.1.4-.1.8-.1 1.1v6.6c-.1.1-.1.5-.1 1.1zm11.1-9.4c0 .2-.1.4-.2.5s-.3.3-.5.4c-.8-.3-1.4-.5-2-.5v1.2c0 .5 0 1.2-.1 2 0 1-.1 1.6-.1 2l.1.4h.9c.8 0 1.3.3 1.3.8 0 .2-.1.4-.2.5-.2.1-.4.2-.6.2-.3 0-.5 0-.7-.1h-.7c.1.7.1 1.4.1 2.1l-.2 5c0 1 0 1.6.1 1.6h1.9c.7 0 1 .2 1 .7 0 .3-.1.5-.3.6s-.5.2-.8.2h-2.2c-.2 0-.4-.1-.6-.3s-.3-.4-.3-.6v-1.9c0-.3 0-.9-.1-1.8 0-.9-.1-1.5-.1-1.8l.2-8c0-.2 0-.6-.1-1.2-.1-.5-.1-.9-.1-1.2 0-1.3.4-2 1.1-2 .3 0 .7.1 1.2.2s.9.3 1.3.4.7.4.7.6zm-57.1 50.1c.1 0 .3 0 .6-.1.3 0 .6-.1.9-.1 1 0 1.5.3 1.5.9v.1l-.4.5c-.5 0-1 0-1.7.1-.7 0-1.3.1-1.7.1-.3 0-.6-.2-.8-.7.4-.7.9-2.5 1.4-5.4l1.4-9.1.6-6.1-1 .1h-.6c-1 0-1.5-.3-1.5-.9v-.1l.4-.5c.2.1.5.1.8.1s.7-.1 1.3-.2 1-.1 1.3-.1a.55.55 0 0 1 .5.3c.1.2.2.4.2.6-.1 5.1-1.1 12-3.2 20.5zm13.3-10.6v3.4c0 5.3-1.2 8-3.5 8-.5 0-.9-.1-1.3-.4a2.73 2.73 0 0 1-.9-1.2c-.5-1.1-.8-2.3-.9-3.7l-.2-3.6v-3.6c0-.5 0-.9.1-1.3 0-.4.1-.9.1-1.5.1-.5.1-1 .2-1.3s.2-.8.4-1.2c.1-.4.3-.7.5-.8.2-.2.4-.3.6-.3.7 0 1.3.1 1.9.4s1 .6 1.4 1.1c.3.5.6 1 .9 1.7.2.7.4 1.4.5 2.2.2.4.2 1.3.2 2.1zm-3.8-6.3c-.6 0-1 .4-1.2 1.1-.1.3-.2.7-.2 1s-.1.7-.1 1.2v1.6c0 .2 0 .7-.1 1.3 0 .6-.1 1.1-.1 1.3l.1 3c.1 1.4.2 2.7.5 4a5.27 5.27 0 0 0 .5 1.5c.2.4.5.5.7.5.3 0 .6-.1.8-.4.3-.3.5-.6.6-1.1.3-.9.5-1.9.6-3 .1-1 .1-1.8.1-2.5 0-.8-.1-1.9-.2-3.2l-.2-3.2v-.5c0-.5-.1-.9-.3-1.3s-.4-.7-.8-1c.1-.2-.3-.3-.7-.3zm15.1 14.6c.3-3.9.5-8.6.5-14.1v-.8c0-.6.2-.8.6-.8a.55.55 0 0 1 .5.3c.1.2.2.5.2.8v2.1c0 1.6-.1 3.6-.1 5.8l-.3 6c-.1 1.8-.3 2.8-.5 3.1-.5.2-.8.2-.9.2-.2 0-.4-.1-.5-.2s-.2-.3-.2-.6c-.1-.3-.1-.4-.2-.5v-.2c0-.4-.3-1.6-.9-3.4-.6-1.9-1.2-3.9-2-6-.7-2.1-1.3-3.7-1.7-4.7v14l.1.2c.1.2.2.3.2.5s-.1.4-.2.6-.3.3-.6.3c-.6 0-.8-.6-.8-1.7v-9.6c0-.6 0-1.4.1-2.6s.1-2 .1-2.6c0-.9.3-1.5.9-2v.2c.1 0 .1-.1.2-.1.4 0 .9.7 1.5 2.2.5 1.2.9 2.4 1.3 3.8l1.4 5.1.4 1.4c.5 1.8.7 2.7.7 2.7s.1.2.2.6zm10.5-14.5c0 .2-.1.4-.2.5s-.3.3-.5.4c-.8-.3-1.4-.5-2-.5v1.2c0 .5 0 1.2-.1 2 0 1-.1 1.6-.1 2l.1.4h.9c.8 0 1.3.3 1.3.8 0 .2-.1.4-.2.5-.2.1-.4.2-.6.2-.3 0-.5 0-.7-.1h-.7c.1.7.1 1.4.1 2.1l-.2 5c0 1 0 1.6.1 1.6h1.9c.7 0 1 .2 1 .7 0 .3-.1.5-.3.6s-.5.2-.8.2h-2.2c-.2 0-.4-.1-.6-.3s-.3-.4-.3-.6v-1.9c0-.3 0-.9-.1-1.8 0-.9-.1-1.5-.1-1.8l.2-8c0-.2 0-.6-.1-1.2-.1-.5-.1-.9-.1-1.2 0-1.3.4-2 1.1-2 .3 0 .7.1 1.2.2s.9.3 1.3.4.7.3.7.6z"/></g></svg>