<svg xmlns="http://www.w3.org/2000/svg" width="120" height="60"><path d="M43.402 22.773c-1.41 0-2.682.494-3.74 1.27l-7.763-9.527.07-.07c.494-.635.353-1.553-.282-2.047s-1.553-.353-2.047.282-.353 1.553.282 2.047c.494.353 1.13.353 1.623.14l7.763 9.527a6.76 6.76 0 0 0-1.411 1.764l-22.1-10.233c.14-.494.212-.988.14-1.482-.14-.847-.565-1.623-1.27-2.117s-1.553-.706-2.4-.635c-.847.14-1.623.565-2.117 1.27a3.25 3.25 0 0 0 .635 4.517 3.25 3.25 0 0 0 1.905.635h.423c.847-.14 1.623-.565 2.117-1.27.07-.14.212-.282.282-.423l22.1 10.163c-.282.635-.423 1.34-.494 2.117H18.42c-.07-.494-.353-.988-.776-1.34-.847-.635-2.117-.494-2.752.353s-.494 2.117.423 2.752c.847.635 2.117.494 2.752-.353.212-.282.353-.635.353-.917H37.19c0 .776.212 1.553.565 2.258l-4.8 2.33c-.14-.212-.423-.423-.847-.494a1.47 1.47 0 1 0-.635 2.894 1.47 1.47 0 0 0 1.764-1.129 1.45 1.45 0 0 0 0-.776l4.8-2.33c.423.706.988 1.41 1.623 1.905l-6.2 8.54c-.635-.423-1.41-.635-2.258-.494s-1.623.565-2.117 1.27a3.25 3.25 0 0 0 .635 4.517 3.25 3.25 0 0 0 1.905.635h.423c.847-.14 1.623-.565 2.117-1.27s.706-1.553.635-2.4c-.07-.776-.423-1.41-.988-1.905l6.2-8.54a6.15 6.15 0 0 0 3.388.988c3.388 0 6.2-2.752 6.2-6.2s-2.823-6.2-6.2-6.2m-28.512-6.2c-.423.565-1.06.917-1.764 1.06-.706.07-1.41-.07-1.976-.494-1.2-.917-1.41-2.61-.565-3.81.423-.635 1.06-.988 1.764-1.13h.353c.565 0 1.13.212 1.623.565.635.423.988 1.06 1.13 1.764.07.706-.14 1.482-.565 2.047m18.914 30.064c-.423.565-1.06.988-1.764 1.06s-1.41-.07-1.976-.494c-1.2-.917-1.41-2.61-.565-3.81.423-.565 1.06-.917 1.764-1.06h.353c.565 0 1.13.212 1.623.565.565.423.917 1.06 1.06 1.764s-.07 1.41-.494 1.976" fill="#82bd41"/><path d="M98.82 35.76v-7.274a4.47 4.47 0 0 0-.375-1.837c-.675-1.462-2.1-1.875-3.524-1.65-1.087.15-2.025.712-2.85 1.35-.075.075-.15.112-.262.187v-1.35h-2.062V35.72h2.287v-7.27c0-.112.037-.225.075-.262.75-.6 1.537-1.125 2.512-1.2.862-.075 1.537.262 1.762 1.125.112.375.15.75.187 1.125v6.56h2.25zm-41.768-13V33.1l.037.75c.15.937.637 1.612 1.575 1.95.975.337 1.95.187 2.924-.075l.975-.375-.637-1.687c-.075.037-.187.112-.3.15a3.2 3.2 0 0 1-1.312.3c-.487 0-.787-.262-.9-.712-.037-.225-.075-.45-.075-.675v-5.66h2.36c.15 0 .225-.037.3-.187l.45-1.425c.037-.075.037-.112.037-.225h-2.924c-.187 0-.225-.037-.225-.225V22.08l-2.287.675m19.348-2.778c-.112.037-.187.075-.262.075l-1.762.637c-.187.075-.262.15-.262.375v12.7c0 1.125.637 1.875 1.725 2.1.712.15 1.387.037 2.1-.075.375-.075.75-.225 1.125-.3-.037-.075 0-.112-.037-.112-.412-.45-.825-.9-1.05-1.5 0-.037-.15-.075-.187-.075l-.525.112c-.45.075-.75-.15-.825-.6-.037-.15-.037-.3-.037-.45v-12.56zM110.48 35.76h-2.137c-.15 0-.225-.037-.262-.187-.075-.3-.187-.562-.3-.862-.075.075-.15.112-.225.187-.862.712-1.8 1.125-2.962 1.125-1.612-.037-2.774-.862-3.524-2.25-.562-1.05-.75-2.175-.712-3.337.037-1.125.337-2.175.975-3.112.9-1.312 2.175-2.025 3.712-2.25.787-.112 1.575-.112 2.325.037h.225v-4.05c0-.187.037-.262.225-.3l2.1-.75v12.223c.037 1.2 0 2.362.562 3.524m-2.812-5.66v-2.812c0-.225-.075-.3-.262-.337-.525-.112-1.087-.15-1.65-.075-.937.112-1.725.525-2.287 1.312-.45.6-.637 1.312-.675 2.062-.075.9 0 1.762.45 2.55.487.9 1.237 1.425 2.325 1.35.75-.037 1.387-.375 1.95-.862.112-.112.187-.225.187-.375-.075-.937-.037-1.875-.037-2.812m-34.984 5.66h-1.725c-.525 0-.525 0-.712-.525l-.187-.525c-.075.037-.112.112-.187.15-.9.787-1.95 1.2-3.187 1.125-1.762-.075-3.112-1.425-3.15-3.187-.037-1.725.9-2.924 2.7-3.337.825-.187 1.687-.225 2.55-.225l.975-.037c.112 0 .187-.037.187-.15-.037-.3 0-.6-.075-.862-.187-.787-.75-1.275-1.612-1.387-1.087-.112-2.062.15-3.037.637-.075.037-.15.075-.262.112l-.825-1.537 1.275-.562c1.425-.487 2.887-.637 4.35-.262 1.387.375 2.212 1.35 2.362 2.774.037.3.037.6.037.9V32.8c0 1.012.075 1.987.487 2.924.037-.037.037 0 .037.037m-2.774-3.937v-1.087l-1.762.075-1.087.15c-.487.112-.9.375-1.087.862-.375.937 0 2.25 1.5 2.287.9.037 1.65-.375 2.325-.937.075-.037.075-.15.075-.225.037-.337.037-.75.037-1.125m18.18-.9c0 .037 0 .075-.037.15H81.3c-.037.412.075.787.187 1.162.412 1.162 1.462 1.875 2.662 1.912.975.037 1.875-.15 2.737-.6.075-.037.112-.075.225-.112l.712 1.612c-.375.187-.712.375-1.087.487-1.312.487-2.7.6-4.05.262-1.612-.375-2.737-1.387-3.3-2.924-.675-1.875-.6-3.75.3-5.55.787-1.612 2.437-2.475 4.237-2.362 2.1.15 3.45 1.462 3.937 3.45.225.825.262 1.65.225 2.512M85.16 27.5c-.412-.562-.975-.787-1.65-.787-1.275.037-2.362 1.35-2.175 2.662h4.462c-.075-.675-.225-1.312-.637-1.875" fill="#1675bc"/></svg>