<?xml version="1.0" encoding="UTF-8" standalone="no"?>
<!-- Created with Inkscape (http://www.inkscape.org/) -->

<svg
   xmlns:dc="http://purl.org/dc/elements/1.1/"
   xmlns:cc="http://creativecommons.org/ns#"
   xmlns:rdf="http://www.w3.org/1999/02/22-rdf-syntax-ns#"
   xmlns:svg="http://www.w3.org/2000/svg"
   xmlns="http://www.w3.org/2000/svg"
   xmlns:sodipodi="http://sodipodi.sourceforge.net/DTD/sodipodi-0.dtd"
   xmlns:inkscape="http://www.inkscape.org/namespaces/inkscape"
   width="155"
   height="20"
   id="svg3030"
   version="1.1"
   inkscape:version="0.48.3.1 r9886"
   sodipodi:docname="fileformatinfo-horizontal.svg"
   inkscape:export-filename="/home/amarcuse/site/hackerlogos/fileformatinfo/fileformatinfo-120x60.png"
   inkscape:export-xdpi="90"
   inkscape:export-ydpi="90">
  <defs
     id="defs3032" />
  <sodipodi:namedview
     id="base"
     pagecolor="#ffffff"
     bordercolor="#666666"
     borderopacity="1.0"
     inkscape:pageopacity="0.0"
     inkscape:pageshadow="2"
     inkscape:zoom="7.7666667"
     inkscape:cx="113.38007"
     inkscape:cy="10.897447"
     inkscape:document-units="px"
     inkscape:current-layer="layer1"
     showgrid="false"
     inkscape:window-width="1065"
     inkscape:window-height="648"
     inkscape:window-x="109"
     inkscape:window-y="135"
     inkscape:window-maximized="0"
     fit-margin-top="0"
     fit-margin-left="0"
     fit-margin-right="0"
     fit-margin-bottom="0" />
  <metadata
     id="metadata3035">
    <rdf:RDF>
      <cc:Work
         rdf:about="">
        <dc:format>image/svg+xml</dc:format>
        <dc:type
           rdf:resource="http://purl.org/dc/dcmitype/StillImage" />
        <dc:title></dc:title>
      </cc:Work>
    </rdf:RDF>
  </metadata>
  <g
     inkscape:label="Layer 1"
     inkscape:groupmode="layer"
     id="layer1"
     transform="translate(-4.1743012,-1013.2596)">
    <g
       id="g3271"
       transform="matrix(1.375936,0,0,1.3668987,-6.8840441,-364.77789)"
       inkscape:export-filename="/home/amarcuse/site/hackerlogos/fileformatinfo/fileformatinfo-horizontal.png"
       inkscape:export-xdpi="90"
       inkscape:export-ydpi="90">
      <path
         inkscape:connector-curvature="0"
         id="path3210"
         style="font-size:18px;font-style:normal;font-variant:normal;font-weight:bold;font-stretch:normal;text-align:start;line-height:125%;writing-mode:lr-tb;text-anchor:start;fill:#000000;fill-opacity:1;stroke:none;font-family:Axel;-inkscape-font-specification:Axel Bold"
         d="m 10.952962,1014.7855 3.024,0 0,2.34 -3.024,0 0,5.166 -2.916,0 0,-12.744 6.786,0 -0.306,2.358 -3.564,0 0,2.88" />
      <path
         inkscape:connector-curvature="0"
         id="path3212"
         style="font-size:18px;font-style:normal;font-variant:normal;font-weight:bold;font-stretch:normal;text-align:start;line-height:125%;writing-mode:lr-tb;text-anchor:start;fill:#000000;fill-opacity:1;stroke:none;font-family:Axel;-inkscape-font-specification:Axel Bold"
         d="m 16.379962,1022.2915 0,-6.966 -0.972,0 0,-2.124 3.672,0 0,9.09 -2.7,0 m 2.898,-12.24 c -4e-6,0.228 -0.042,0.45 -0.126,0.666 -0.084,0.204 -0.204004,0.384 -0.36,0.54 -0.144004,0.156 -0.318004,0.282 -0.522,0.378 -0.204003,0.084 -0.420003,0.126 -0.648,0.126 -0.240003,0 -0.462002,-0.042 -0.666,-0.126 -0.192002,-0.096 -0.360002,-0.222 -0.504,-0.378 -0.144001,-0.156 -0.258001,-0.336 -0.342,-0.54 -0.084,-0.216 -0.126001,-0.438 -0.126,-0.666 -10e-7,-0.456 0.155999,-0.846 0.468,-1.17 0.311998,-0.336 0.707998,-0.504 1.188,-0.504 0.227997,0 0.437997,0.048 0.63,0.144 0.203996,0.084 0.377996,0.204 0.522,0.36 0.155996,0.156 0.275996,0.336 0.36,0.54 0.084,0.192 0.125996,0.402 0.126,0.63" />
      <path
         inkscape:connector-curvature="0"
         id="path3214"
         style="font-size:18px;font-style:normal;font-variant:normal;font-weight:bold;font-stretch:normal;text-align:start;line-height:125%;writing-mode:lr-tb;text-anchor:start;fill:#000000;fill-opacity:1;stroke:none;font-family:Axel;-inkscape-font-specification:Axel Bold"
         d="m 25.274774,1021.9675 c -0.240005,0.168 -0.552004,0.306 -0.936,0.414 -0.372003,0.12 -0.720003,0.18 -1.044,0.18 -0.528002,0 -0.954002,-0.096 -1.278,-0.288 -0.312001,-0.192 -0.552001,-0.45 -0.72,-0.774 -0.168001,-0.324 -0.276001,-0.702 -0.324,-1.134 -0.048,-0.432 -0.072,-0.888 -0.072,-1.368 l 0,-9.828 2.682,-0.396 0,10.062 c -3e-6,0.336 0.006,0.6 0.018,0.792 0.012,0.192 0.036,0.342 0.072,0.45 0.036,0.096 0.09,0.156 0.162,0.18 0.084,0.024 0.191996,0.036 0.324,0.036 0.072,0 0.167996,-0.018 0.288,-0.054 0.119996,-0.036 0.233996,-0.084 0.342,-0.144 l 0.486,1.872" />
      <path
         inkscape:connector-curvature="0"
         id="path3216"
         style="font-size:18px;font-style:normal;font-variant:normal;font-weight:bold;font-stretch:normal;text-align:start;line-height:125%;writing-mode:lr-tb;text-anchor:start;fill:#000000;fill-opacity:1;stroke:none;font-family:Axel;-inkscape-font-specification:Axel Bold"
         d="m 28.496212,1018.3135 c 0.048,0.852 0.215997,1.44 0.504,1.764 0.287996,0.324 0.659996,0.486 1.116,0.486 0.419995,0 0.809994,-0.078 1.17,-0.234 0.359994,-0.168 0.701993,-0.354 1.026,-0.558 l 0.918,1.764 c -0.504007,0.372 -1.038007,0.642 -1.602,0.81 -0.552006,0.168 -1.116005,0.252 -1.692,0.252 -1.356003,0 -2.370002,-0.426 -3.042,-1.278 -0.660001,-0.864 -0.990001,-2.034 -0.99,-3.51 -1e-6,-0.744 0.084,-1.416 0.252,-2.016 0.167999,-0.612 0.413999,-1.128 0.738,-1.548 0.323998,-0.432 0.725998,-0.762 1.206,-0.99 0.479997,-0.24 1.037996,-0.36 1.674,-0.36 0.659995,0 1.217994,0.12 1.674,0.36 0.455993,0.24 0.821993,0.576 1.098,1.008 0.287992,0.432 0.491992,0.942 0.612,1.53 0.131992,0.588 0.197992,1.224 0.198,1.908 -8e-6,0.072 -0.006,0.174 -0.018,0.306 -8e-6,0.12 -0.006,0.222 -0.018,0.306 l -4.824,0 m 1.242,-3.672 c -0.384004,0 -0.672004,0.15 -0.864,0.45 -0.180003,0.288 -0.300003,0.792 -0.36,1.512 l 2.43,0 c -0.02401,-0.696 -0.144006,-1.194 -0.36,-1.494 -0.204005,-0.312 -0.486005,-0.468 -0.846,-0.468" />
      <path
         inkscape:connector-curvature="0"
         id="path3218"
         style="font-size:18px;font-style:normal;font-variant:normal;font-weight:bold;font-stretch:normal;text-align:start;line-height:125%;writing-mode:lr-tb;text-anchor:start;fill:#000000;fill-opacity:1;stroke:none;font-family:Axel;-inkscape-font-specification:Axel Bold"
         d="m 37.882649,1014.7855 3.024,0 0,2.34 -3.024,0 0,5.166 -2.916,0 0,-12.744 6.786,0 -0.306,2.358 -3.564,0 0,2.88" />
      <path
         inkscape:connector-curvature="0"
         id="path3220"
         style="font-size:18px;font-style:normal;font-variant:normal;font-weight:bold;font-stretch:normal;text-align:start;line-height:125%;writing-mode:lr-tb;text-anchor:start;fill:#000000;fill-opacity:1;stroke:none;font-family:Axel;-inkscape-font-specification:Axel Bold"
         d="m 49.959243,1017.7375 c -8e-6,0.732 -0.08401,1.398 -0.252,1.998 -0.168008,0.588 -0.420008,1.098 -0.756,1.53 -0.324007,0.42 -0.732006,0.75 -1.224,0.99 -0.480006,0.228 -1.038005,0.342 -1.674,0.342 -1.320003,0 -2.310002,-0.426 -2.97,-1.278 -0.648001,-0.852 -0.972,-2.046 -0.972,-3.582 0,-1.5 0.335999,-2.682 1.008,-3.546 0.671998,-0.864 1.661997,-1.296 2.97,-1.296 0.647995,0 1.211994,0.114 1.692,0.342 0.479993,0.216 0.881993,0.534 1.206,0.954 0.323992,0.42 0.563992,0.93 0.72,1.53 0.167992,0.6 0.251992,1.272 0.252,2.016 m -2.682,-0.018 c -6e-6,-0.552 -0.03001,-1.014 -0.09,-1.386 -0.04801,-0.372 -0.126005,-0.672 -0.234,-0.9 -0.09601,-0.228 -0.222005,-0.39 -0.378,-0.486 -0.156005,-0.096 -0.336005,-0.144 -0.54,-0.144 -0.204004,0 -0.384004,0.048 -0.54,0.144 -0.156004,0.096 -0.288003,0.258 -0.396,0.486 -0.108003,0.228 -0.192003,0.528 -0.252,0.9 -0.048,0.36 -0.072,0.816 -0.072,1.368 -3e-6,1.02 0.096,1.776 0.288,2.268 0.191996,0.48 0.515996,0.72 0.972,0.72 0.455995,0 0.773995,-0.24 0.954,-0.72 0.191995,-0.48 0.287994,-1.23 0.288,-2.25" />
      <path
         inkscape:connector-curvature="0"
         id="path3222"
         style="font-size:18px;font-style:normal;font-variant:normal;font-weight:bold;font-stretch:normal;text-align:start;line-height:125%;writing-mode:lr-tb;text-anchor:start;fill:#000000;fill-opacity:1;stroke:none;font-family:Axel;-inkscape-font-specification:Axel Bold"
         d="m 56.420399,1015.6135 c -0.156005,-0.108 -0.300005,-0.18 -0.432,-0.216 -0.132005,-0.048 -0.300005,-0.072 -0.504,-0.072 -0.276004,0 -0.504004,0.09 -0.684,0.27 -0.168004,0.168 -0.336003,0.426 -0.504,0.774 l 0,5.922 -2.664,0 0,-6.93 c -10e-7,-0.336 -0.012,-0.69 -0.036,-1.062 -0.012,-0.372 -0.066,-0.738 -0.162,-1.098 l 2.142,-0.288 c 0.084,0.156 0.173997,0.354 0.27,0.594 0.096,0.24 0.173997,0.51 0.234,0.81 0.191997,-0.42 0.431997,-0.762 0.72,-1.026 0.299996,-0.264 0.677996,-0.396 1.134,-0.396 0.263995,0 0.485995,0.03 0.666,0.09 0.179994,0.06 0.371994,0.156 0.576,0.288 l -0.756,2.34" />
      <path
         inkscape:connector-curvature="0"
         id="path3224"
         style="font-size:18px;font-style:normal;font-variant:normal;font-weight:bold;font-stretch:normal;text-align:start;line-height:125%;writing-mode:lr-tb;text-anchor:start;fill:#000000;fill-opacity:1;stroke:none;font-family:Axel;-inkscape-font-specification:Axel Bold"
         d="m 60.620306,1022.2915 -2.664,0 0,-6.93 c -10e-7,-0.336 -0.012,-0.69 -0.036,-1.062 -0.012,-0.372 -0.066,-0.738 -0.162,-1.098 l 2.142,-0.288 c 0.155997,0.288 0.317997,0.63 0.486,1.026 0.323996,-0.312 0.659996,-0.564 1.008,-0.756 0.359995,-0.192 0.767995,-0.288 1.224,-0.288 0.479994,0 0.869993,0.102 1.17,0.306 0.311993,0.192 0.557992,0.462 0.738,0.81 0.359992,-0.36 0.725992,-0.636 1.098,-0.828 0.383991,-0.192 0.80399,-0.288 1.26,-0.288 0.479989,0 0.869989,0.078 1.17,0.234 0.299988,0.156 0.527988,0.372 0.684,0.648 0.167988,0.264 0.275988,0.576 0.324,0.936 0.05999,0.348 0.08999,0.72 0.09,1.116 l 0,6.462 -2.682,0 0,-6.606 c -10e-6,-0.588 -0.19201,-0.882 -0.576,-0.882 -0.192009,0 -0.360009,0.042 -0.504,0.126 -0.144008,0.084 -0.318008,0.216 -0.522,0.396 l 0,6.966 -2.592,0 0,-6.588 c -6e-6,-0.588 -0.198005,-0.882 -0.594,-0.882 -0.180005,0 -0.354005,0.042 -0.522,0.126 -0.156004,0.084 -0.336004,0.222 -0.54,0.414 l 0,6.93" />
      <path
         inkscape:connector-curvature="0"
         id="path3226"
         style="font-size:18px;font-style:normal;font-variant:normal;font-weight:bold;font-stretch:normal;text-align:start;line-height:125%;writing-mode:lr-tb;text-anchor:start;fill:#000000;fill-opacity:1;stroke:none;font-family:Axel;-inkscape-font-specification:Axel Bold"
         d="m 77.660122,1020.0235 c -1e-5,0.336 0.006,0.69 0.018,1.062 0.024,0.372 0.084,0.738 0.18,1.098 l -2.088004,0.288 c -0.07201,-0.132 -0.144005,-0.282 -0.216,-0.45 -0.06,-0.18 -0.120005,-0.354 -0.18,-0.522 -0.288005,0.312 -0.612004,0.564 -0.972,0.756 -0.360004,0.18 -0.750003,0.27 -1.17,0.27 -0.828002,0 -1.476001,-0.246 -1.944,-0.738 -0.456001,-0.504 -0.684,-1.188 -0.684,-2.052 0,-0.6 0.12,-1.104 0.36,-1.512 0.251999,-0.42 0.581999,-0.756 0.99,-1.008 0.419998,-0.264 0.893997,-0.45 1.422,-0.558 0.527996,-0.12 1.079996,-0.18 1.656,-0.18 l 0,-0.522 c -5e-6,-0.336 -0.07801,-0.582 -0.234,-0.738 -0.144004,-0.168 -0.444004,-0.252 -0.9,-0.252 -0.264003,0 -0.582003,0.054 -0.954,0.162 -0.372002,0.096 -0.750002,0.246 -1.134,0.45 l -0.666,-1.908 c 0.455999,-0.228 0.941998,-0.408 1.458,-0.54 0.527997,-0.144 1.055997,-0.216 1.584,-0.216 0.515996,0 0.983995,0.054 1.404,0.162 0.431994,0.108 0.797994,0.276 1.098,0.504 0.311993,0.228 0.551993,0.522 0.72,0.882 0.167994,0.36 0.251994,0.792 0.252004,1.296 l 0,4.266 m -2.628004,-1.89 c -0.720004,0 -1.212004,0.132 -1.476,0.396 -0.252003,0.252 -0.378003,0.606 -0.378,1.062 -3e-6,0.348 0.048,0.63 0.144,0.846 0.107997,0.216 0.293997,0.324 0.558,0.324 0.203996,0 0.395996,-0.06 0.576,-0.18 0.191996,-0.132 0.383995,-0.306 0.576,-0.522 l 0,-1.926" />
      <path
         inkscape:connector-curvature="0"
         id="path3228"
         style="font-size:18px;font-style:normal;font-variant:normal;font-weight:bold;font-stretch:normal;text-align:start;line-height:125%;writing-mode:lr-tb;text-anchor:start;fill:#000000;fill-opacity:1;stroke:none;font-family:Axel;-inkscape-font-specification:Axel Bold"
         d="m 85.198462,1021.9675 c -0.14401,0.084 -0.32401,0.162 -0.54,0.234 -0.20401,0.072 -0.42001,0.132 -0.648,0.18 -0.22801,0.06 -0.45601,0.102 -0.684,0.126 -0.216,0.036 -0.414,0.054 -0.594,0.054 -0.492,0 -0.906,-0.072 -1.242,-0.216 -0.336,-0.132 -0.606,-0.324 -0.81,-0.576 -0.204,-0.264 -0.354,-0.576 -0.45,-0.936 -0.084,-0.36 -0.126,-0.756 -0.126,-1.188 l 0,-4.428 -1.314,0 0,-2.016 1.314,0 0,-2.574 2.682,-0.396 0,2.97 2.214,0 -0.252,2.016 -1.962,0 0,4.266 c 0,0.252 0.03,0.462 0.09,0.63 0.072,0.156 0.228,0.234 0.468,0.234 0.16799,0 0.35999,-0.03 0.576,-0.09 0.22799,-0.06 0.49199,-0.162 0.792,-0.306 l 0.486,2.016" />
      <path
         inkscape:connector-curvature="0"
         id="path3230"
         style="font-size:18px;font-style:normal;font-variant:normal;font-weight:bold;font-stretch:normal;text-align:start;line-height:125%;writing-mode:lr-tb;text-anchor:start;fill:#000000;fill-opacity:1;stroke:none;font-family:Axel;-inkscape-font-specification:Axel Bold"
         d="m 89.911932,1020.7615 c -10e-6,0.264 -0.054,0.516 -0.162,0.756 -0.096,0.228 -0.23401,0.432 -0.414,0.612 -0.16801,0.18 -0.372,0.318 -0.612,0.414 -0.24,0.108 -0.492,0.162 -0.756,0.162 -0.276,0 -0.534,-0.054 -0.774,-0.162 -0.228,-0.096 -0.426,-0.228 -0.594,-0.396 -0.168,-0.18 -0.306,-0.384 -0.414,-0.612 -0.096,-0.24 -0.144,-0.498 -0.144,-0.774 0,-0.552 0.186,-1.014 0.558,-1.386 0.372,-0.372 0.834,-0.558 1.386,-0.558 0.264,0 0.51,0.054 0.738,0.162 0.24,0.096 0.44399,0.234 0.612,0.414 0.17999,0.168 0.31799,0.372 0.414,0.612 0.10799,0.24 0.16199,0.492 0.162,0.756" />
      <path
         inkscape:connector-curvature="0"
         id="path3232"
         style="font-size:18px;font-style:normal;font-variant:normal;font-weight:bold;font-stretch:normal;text-align:start;line-height:125%;writing-mode:lr-tb;text-anchor:start;fill:#000000;fill-opacity:1;stroke:none;font-family:Axel;-inkscape-font-specification:Axel Bold"
         d="m 92.106522,1011.7435 -1.098,0 0,-2.196 5.112,0 0,2.196 -1.098,0 0,8.352 1.098,0 0,2.196 -5.112,0 0,-2.196 1.098,0 0,-8.352" />
      <path
         inkscape:connector-curvature="0"
         id="path3234"
         style="font-size:18px;font-style:normal;font-variant:normal;font-weight:bold;font-stretch:normal;text-align:start;line-height:125%;writing-mode:lr-tb;text-anchor:start;fill:#000000;fill-opacity:1;stroke:none;font-family:Axel;-inkscape-font-specification:Axel Bold"
         d="m 100.06562,1022.2915 -2.663998,0 0,-6.93 c 0,-0.336 -0.012,-0.69 -0.036,-1.062 -0.012,-0.372 -0.066,-0.738 -0.162,-1.098 l 2.142,-0.288 c 0.084,0.144 0.16799,0.306 0.252,0.486 0.084,0.18 0.16199,0.372 0.234,0.576 0.383988,-0.384 0.767988,-0.66 1.151998,-0.828 0.38399,-0.168 0.80399,-0.252 1.26,-0.252 0.49199,0 0.90599,0.09 1.242,0.27 0.33599,0.168 0.59999,0.396 0.792,0.684 0.16799,0.252 0.28199,0.54 0.342,0.864 0.06,0.312 0.09,0.708 0.09,1.188 l 0,6.39 -2.7,0 0,-6.462 c -1e-5,-0.66 -0.22201,-0.99 -0.666,-0.99 -0.22801,0 -0.43801,0.054 -0.63,0.162 -0.19201,0.108 -0.40801,0.282 -0.648,0.522 l 0,6.768" />
      <path
         inkscape:connector-curvature="0"
         id="path3236"
         style="font-size:18px;font-style:normal;font-variant:normal;font-weight:bold;font-stretch:normal;text-align:start;line-height:125%;writing-mode:lr-tb;text-anchor:start;fill:#000000;fill-opacity:1;stroke:none;font-family:Axel;-inkscape-font-specification:Axel Bold"
         d="m 111.81624,1013.2015 -0.288,2.016 -1.764,0 0,7.074 -2.664,0 0,-7.074 -1.116,0 0,-2.016 1.116,0 0,-1.062 c 0,-0.996 0.246,-1.794 0.738,-2.394 0.504,-0.6 1.26,-0.9 2.268,-0.9 0.456,0 0.894,0.06 1.314,0.18 0.42,0.108 0.78599,0.264 1.098,0.468 l -0.684,1.854 c -0.18,-0.096 -0.39,-0.186 -0.63,-0.27 -0.24,-0.096 -0.48,-0.144 -0.72,-0.144 -0.288,0 -0.48,0.108 -0.576,0.324 -0.096,0.216 -0.144,0.486 -0.144,0.81 l 0,1.134 2.052,0" />
      <path
         inkscape:connector-curvature="0"
         id="path3238"
         style="font-size:18px;font-style:normal;font-variant:normal;font-weight:bold;font-stretch:normal;text-align:start;line-height:125%;writing-mode:lr-tb;text-anchor:start;fill:#000000;fill-opacity:1;stroke:none;font-family:Axel;-inkscape-font-specification:Axel Bold"
         d="m 120.34205,1017.7375 c 0,0.732 -0.084,1.398 -0.252,1.998 -0.168,0.588 -0.42,1.098 -0.756,1.53 -0.324,0.42 -0.732,0.75 -1.224,0.99 -0.48,0.228 -1.038,0.342 -1.674,0.342 -1.32,0 -2.31,-0.426 -2.97,-1.278 -0.648,-0.852 -0.972,-2.046 -0.972,-3.582 0,-1.5 0.336,-2.682 1.008,-3.546 0.672,-0.864 1.662,-1.296 2.97,-1.296 0.648,0 1.212,0.114 1.692,0.342 0.48,0.216 0.882,0.534 1.206,0.954 0.324,0.42 0.564,0.93 0.72,1.53 0.168,0.6 0.252,1.272 0.252,2.016 m -2.682,-0.018 c 0,-0.552 -0.03,-1.014 -0.09,-1.386 -0.048,-0.372 -0.126,-0.672 -0.234,-0.9 -0.096,-0.228 -0.222,-0.39 -0.378,-0.486 -0.156,-0.096 -0.336,-0.144 -0.54,-0.144 -0.204,0 -0.384,0.048 -0.54,0.144 -0.156,0.096 -0.288,0.258 -0.396,0.486 -0.108,0.228 -0.192,0.528 -0.252,0.9 -0.048,0.36 -0.072,0.816 -0.072,1.368 0,1.02 0.096,1.776 0.288,2.268 0.192,0.48 0.516,0.72 0.972,0.72 0.456,0 0.774,-0.24 0.954,-0.72 0.192,-0.48 0.288,-1.23 0.288,-2.25" />
      <path
         transform="matrix(0.164062,0,0,0.164062,85.206473,1018.2437)"
         d="m 28.760037,15.393695 c 0,6.770949 -5.282587,12.259888 -11.798989,12.259888 -6.516402,0 -11.7989892,-5.488939 -11.7989892,-12.259888 0,-6.7709491 5.2825872,-12.2598878 11.7989892,-12.2598878 6.516402,0 11.798989,5.4889387 11.798989,12.2598878 z"
         sodipodi:ry="12.259888"
         sodipodi:rx="11.798989"
         sodipodi:cy="15.393695"
         sodipodi:cx="16.961048"
         id="path2824"
         style="fill:#003399;fill-opacity:1;stroke:none"
         sodipodi:type="arc" />
      <flowRoot
         transform="matrix(0.3516462,0,0,0.3516462,83.826673,1015.7934)"
         style="font-size:10px;font-style:normal;font-variant:normal;font-weight:bold;font-stretch:normal;text-align:start;line-height:125%;writing-mode:lr-tb;text-anchor:start;fill:#ffffff;font-family:Axel;-inkscape-font-specification:Axel Bold"
         id="flowRoot2826"
         xml:space="preserve"><flowRegion
           id="flowRegion2828"><rect
             style="font-size:10px;font-style:normal;font-variant:normal;font-weight:bold;font-stretch:normal;text-align:start;line-height:125%;writing-mode:lr-tb;text-anchor:start;fill:#ffffff;font-family:Axel;-inkscape-font-specification:Axel Bold"
             y="8.4802246"
             x="10.324116"
             height="15.117455"
             width="13.273863"
             id="rect2830" /></flowRegion><flowPara
           id="flowPara2832">i</flowPara></flowRoot>    </g>
  </g>
</svg>
