<svg version="1.1" id="Layer_1" xmlns="http://www.w3.org/2000/svg" x="0" y="0" height="64" width="64" xml:space="preserve"><style>.st1{fill:#336b9b}</style><switch><g><path d="M59.8 55.6v-3.2l-3.1 3.2h3.1zm0 2.2H54v-2.3l5.8-6h2.8v6.2H64v2.2h-1.4v1.9h-2.8v-2zm-6.9 1.8h-9.5c.1-.8.4-1.6 1-2.3.6-.7 1.6-1.6 3.1-2.6.9-.6 1.5-1.1 1.8-1.4.3-.3.4-.6.4-.9 0-.3-.1-.6-.4-.8-.3-.2-.6-.3-1-.3s-.7.1-1 .3c-.3.2-.4.6-.5 1.2l-3.2-.2c.1-.8.4-1.4.7-1.8.3-.4.8-.8 1.4-1 .6-.2 1.4-.4 2.5-.4s2 .1 2.6.3c.6.2 1.1.6 1.5 1 .4.5.5 1 .5 1.6 0 .6-.2 1.2-.6 1.8-.4.6-1.2 1.2-2.2 1.8-.6.4-1.1.7-1.3.8-.2.2-.5.4-.8.6h5v2.3z" fill="#11a071"/><path class="st1" d="M27.8 52.2l1.1 3.6h-2.2l1.1-3.6zm-22.6 0c-.5 0-1 .1-1.4.3-.4.2-.8.5-1.2 1v-1.1H0v7.3h2.8V56c0-.6.1-.9.3-1.2.2-.2.5-.4.8-.4.2 0 .4.1.5.2.1.1.2.3.3.4 0 .1.1.3.1.6v4h2.8v-3.8c0-.5.1-.9.3-1.1.2-.2.5-.4.8-.4.3 0 .5.1.7.4.1.2.2.4.2.7v4.1h2.8v-4.6c0-1-.2-1.7-.7-2.2-.4-.5-1.1-.7-1.8-.7-.5 0-1 .1-1.3.3-.4.2-.8.5-1.2 1-.2-.4-.5-.7-.8-.9-.4-.1-.9-.2-1.4-.2zm12.2-.5h.9c.6 0 1 .1 1.2.3.2.2.3.5.3.8 0 .3-.1.6-.4.8-.2.2-.7.3-1.3.3h-.8v-2.2h.1zm14.7-2.1l3.9 5.8v4.2h3.1v-4.2l3.9-5.8h-3.5l-2 3.4-2-3.4h-3.4zm-6 0l-3.8 10h3.2L26 58h3.6l.5 1.7h3.3l-3.8-10h-3.5v-.1zm-11.8 0v10h3.1V56h1.7c1.3 0 2.2-.3 2.8-.9.6-.6.9-1.4.9-2.4s-.3-1.7-.8-2.3c-.6-.5-1.4-.8-2.5-.8h-5.2z"/><g><path class="st1" d="M26.6 4.3c-2.8 0-5.2.5-7.2 1.4-2 1-3.9 2.6-5.9 4.9V5.2H0v37.5h14.5V23.6c0-2.8.5-4.9 1.6-6.1 1.1-1.2 2.4-1.9 4.1-1.9 1 0 1.9.3 2.7.8.7.6 1.3 1.3 1.6 2.3.2.6.3 1.7.3 3.3v20.6h14.5V23.3c0-2.7.5-4.7 1.6-5.9 1-1.2 2.4-1.8 4.1-1.8 1.4 0 2.6.6 3.6 1.9.7.8 1 2.1 1 3.8v21.3H64V19.1c0-5.1-1.1-8.8-3.4-11.2-2.3-2.4-5.4-3.6-9.5-3.6-2.8 0-5 .4-6.9 1.3-1.9.9-4 2.6-6.2 5-1.1-2.1-2.5-3.7-4.3-4.7-1.8-1.1-4.1-1.6-7.1-1.6z"/></g></g></switch></svg>