<svg xmlns="http://www.w3.org/2000/svg" width="120" height="60"><switch><g><path d="M103.4 31.6v-4.9l-4.8 4.9h4.8zm0 3.4h-9.1v-3.6l9.1-9.4h4.3v9.6h2.2V35h-2.2v2.9h-4.3V35zm-10.7 2.9H77.8c.2-1.3.7-2.5 1.6-3.6.9-1.1 2.5-2.5 4.9-4 1.5-.9 2.4-1.7 2.8-2.2.4-.5.6-1 .6-1.4 0-.5-.2-.9-.6-1.2-.4-.3-.9-.5-1.5-.5s-1.2.2-1.6.5c-.4.3-.7 1-.8 1.9l-5-.4c.2-1.2.6-2.2 1.1-2.9.5-.7 1.3-1.2 2.2-1.6.9-.4 2.3-.6 3.9-.6 1.7 0 3.1.2 4.1.5 1 .4 1.7.9 2.3 1.6.6.7.8 1.5.8 2.4 0 1-.3 1.9-1 2.7-.6.9-1.8 1.8-3.5 2.9-1 .6-1.7 1-2 1.3-.3.2-.7.6-1.2.9h7.8v3.7z" fill="#11a071"/><path d="M53.4 26.4l1.7 5.6h-3.5l1.8-5.6zm-35.3 0c-.9 0-1.6.1-2.2.4-.6.3-1.2.8-1.8 1.5v-1.7H10V38h4.4v-5.8c0-.9.2-1.5.5-1.9.3-.4.7-.6 1.2-.6.3 0 .6.1.8.3.2.2.4.4.5.7.1.2.1.5.1 1V38h4.4v-5.9c0-.8.2-1.4.5-1.8.3-.4.7-.6 1.3-.6.4 0 .8.2 1.1.6.2.2.3.6.3 1.1V38h4.4v-7.1c0-1.5-.3-2.7-1-3.4-.7-.7-1.7-1.1-2.9-1.1-.8 0-1.5.1-2.1.4-.6.3-1.2.8-1.9 1.5-.3-.6-.8-1.1-1.3-1.4-.6-.4-1.3-.5-2.2-.5zm19.1-.9h1.4c.9 0 1.5.2 1.9.5.3.3.5.8.5 1.3s-.2.9-.6 1.2c-.4.3-1 .5-2 .5h-1.2v-3.5zm22.9-3.2l6.2 9.1V38h4.9v-6.6l6.1-9.1h-5.4l-3.2 5.3-3.2-5.3h-5.4zm-9.3 0l-6 15.7h5l.8-2.6h5.6L57 38h5l-5.9-15.7h-5.3zm-18.5 0V38h4.9v-5.8h2.7c2 0 3.4-.4 4.4-1.3 1-.9 1.4-2.1 1.4-3.7 0-1.5-.4-2.7-1.3-3.6-.9-.8-2.2-1.3-4-1.3h-8.1z" fill="#336b9b"/></g></switch></svg>