<svg xmlns="http://www.w3.org/2000/svg" xmlns:xlink="http://www.w3.org/1999/xlink" width="120" height="60"><g transform="matrix(.218672 0 0 .218672 16.192773 8.132753)"><path d="M149.548 122.294v-18.092H127.72v18.092h-8.52V77.59h8.52v18.792h21.827V77.59h8.404v44.704z" fill="#169bd6"/><path d="M200.438 113.773h-23.344l-3.735 8.404h-9.104l19.96-44.588h9.22l19.96 44.588h-9.22zm-11.672-26.846l-8.287 19.026h16.574z" fill="#256ea5"/><path d="M241.057 109.104H228.45v13.073h-8.404V77.6h21c21.827-.117 21.827 31.515 0 31.515zM228.45 101.4h12.606c10.855 0 10.738-15.874 0-15.874H228.45zm75.287 20.777H293.7l-12.956-14.94H272.7v14.94h-8.404V77.473h21.127c10.505.117 16.108 7.003 16.108 14.824s-2.8 12.256-11.322 14.007l13.54 15.174zM272.7 85.4v14.357h12.84c5.252 0 7.587-3.618 7.587-7.237s-2.334-7.12-7.587-7.12zm79.36 14.717c-.117 11.555-7.237 23.1-22.877 23.1s-22.994-11.322-22.994-22.994 7.587-23.46 22.994-23.46 22.994 11.672 22.877 23.344zm-37.468.233c.117 7.353 4.085 15.174 14.6 15.174s14.473-7.937 14.6-15.3-4.085-15.874-14.6-15.874-14.824 8.52-14.6 16zm68.982-22.76h9.22v.35l-15.174 21.7 15.524 22.294v.233h-9.338l-11.44-16.7-11.44 16.7h-9.338v-.233l15.524-22.294-15.057-21.7v-.35h9.22l11.1 16.574zm34.9 18.442l11.8-18.442h10.155v.35l-17.742 25.795v18.442h-8.404v-18.442l-17.16-25.795v-.35h10.038z" fill="#24405d"/><g fill="none" stroke-miterlimit="10"><g stroke="#284a6a"><path d="M28.176 82.233l-14.22-16.076" stroke-width=".556"/><path d="M-16.65 69.867l11.13 16.23" stroke-width=".278"/><g stroke-width=".556"><path d="M28.176 82.233l14.066-16.23m2.938 34.16l16.694-14.066M45.18 100.164l16.694 14.685M42.397 133.4l-14.22-15.767m-14.222 15.765l14.22-15.767m-33.697-3.4l16.076-14.066M-5.522 86.097l16.076 14.066m17.622-17.93l-33.698 3.864m33.698-3.864l33.698 3.864"/><path d="M45.18 100.164l-2.937-34.16m2.937 34.16l-2.782 33.234"/><path d="M61.874 114.848l-33.698 2.782m-33.698-3.4l33.698 3.4"/><path d="M13.955 133.398l-3.4-33.234m3.4-34.007l-3.4 34.007"/></g><g stroke-width=".278"><path d="M-20.98 90.425l15.458-4.328m3.247-31.533l16.23 11.593m3.7-18.857l-3.7 18.858m3.7-18.858l24.578 18.704"/><path d="M38.533 47.3l3.7 18.704m16.24-11.44l-16.23 11.44m30.76 3.863l-30.76-3.864m19.63 20.094l11.13-16.23m-11.13 16.23l15.767 4.328"/><path d="M61.874 86.097l15.458 23.496M38.533 47.3L13.955 66.157"/><path d="M61.874 86.097l-3.4-31.533m3.4 60.284l15.458-5.256"/><path d="M61.874 114.848L77.64 90.425m-15.766 24.423l11.13 14.994m-11.13-14.994l-3.4 30.297m-16.077-11.747l16.076 11.748"/><path d="M42.397 133.398l30.606-3.555m-30.606 3.555l-3.7 19.013m3.7-19.013L17.665 152.4m-3.7-19.002l3.7 19.013"/><path d="M13.955 133.398L38.687 152.4m-24.732-19.002l-16.23 11.748m16.23-11.748l-30.606-3.4m11.13-15.768l-11.13 15.767"/><path d="M-5.522 114.23l3.246 30.915m-3.246-30.915l-15.612-4.792m15.612-23.34l-15.612 23.34"/><path d="M-5.522 114.23L-20.98 90.425m18.705-35.86L-5.52 86.097"/><path d="M-16.65 69.867l30.606-3.7"/></g></g><g stroke="#24405d" stroke-width=".216"><path d="M-2.275 54.564L-14.178 49m11.903 5.564l-.927-12.984m20.867 5.72l-20.868-5.72"/><path d="M17.665 47.3L8.7 36.324M17.665 47.3l3.7-13.14m-23.64 20.404L8.7 36.324M38.533 47.3L21.375 34.16"/><path d="M38.533 47.3L34.67 33.697M17.665 47.3l17.003-13.603M38.533 47.3l8.965-10.975m10.975 18.24l-10.975-18.24"/><path d="M58.473 54.564l1.082-12.984M38.533 47.3l21.022-5.72m-1.082 12.984l12.2-6.183m-12.2 6.183L79.65 57.8"/><path d="M73.003 69.867L79.65 57.8m-6.647 12.067l-2.32-21.486m2.32 21.486l13.912-1.082m-13.912 1.082l19.013 10.82"/><path d="M77.64 90.425l9.275-21.64m-9.275 21.64l14.376-9.738M77.64 90.425l16.076 3.246M77.33 109.593l16.385-15.92"/><path d="M77.33 109.593l16.85-3.092M77.64 90.425L94.18 106.5m-16.85 3.093l14.376 9.584m-18.703 10.665l18.704-10.666"/><path d="M73.003 129.842l13.757 1.4m-9.43-21.64l9.43 21.64m-13.757-1.4l6.492 12.2m-6.492-12.2l-2.473 21.33"/><path d="M70.53 151.174l-12.057-6.028m0-.001l.927 13.448m-.927-13.448l21.022-3.092m-21.022 3.092l-10.975 18.55"/><path d="M38.687 152.4l8.8 11.284m-8.8-11.284l20.713 6.183M38.687 152.4l-4.02 13.912m4.02-13.912l-17.313 13.912"/><path d="M17.665 152.4l3.7 13.912m-3.7-13.912l17.003 13.912M17.665 152.4l-8.8 11.284m-11.13-18.54l11.13 18.55"/><path d="M17.665 152.4l-21.022 6.492m1.082-13.747l-1.082 13.757m1.082-13.757l-12.057 6.647m-2.318-21.795l2.32 21.795"/><path d="M-2.275 145.145l-21.177-2.937m6.802-12.2l-6.8 12.2m6.8-12.2l-13.912 1.4m13.912-1.4l-19.167-10.666m14.683-9.904l-14.685 9.893m14.685-9.893l-16.694-2.937"/><path d="M-21.134 109.438l-9.43 21.95m9.584-40.963L-37.83 106.5"/><path d="M-21.134 109.438L-37.828 93.67m16.848-3.246l-14.376-9.584"/><path d="M-20.98 90.425l-16.85 3.246m16.85-3.246l-9.584-21.64"/><path d="M-16.65 69.867l-13.912-1.082m13.912 1.082l-18.704 10.975m18.704-10.975l-6.647-11.44m6.647 11.44L-14.178 49"/><path d="M-2.275 54.564l-21.022 3.864"/></g></g><path d="M2.278 108.2l.113-16.23 16.26.114-.113 16.23zM19.87 90.3l.113-16.23 16.26.114-.113 16.23zm-.002 35.645l.113-16.23 16.26.114-.113 16.23zm17.746-17.9l.113-16.23 16.26.114-.113 16.23z" fill="#256ea5"/><path d="M36.68 71.655l.08-11.284 11.33.08-.1 11.284zm-28.33-.002l.08-11.284 11.33.08-.08 11.284zm-19.615 20.08l.08-11.284 11.33.08-.08 11.284zm-.015 28.388l.118-11.283 11.33.12-.118 11.28zm67.58-.22l.08-11.284 11.33.08-.08 11.284zm.227-28.05l.118-11.283 11.33.12-.118 11.283z" fill="#3378bc"/><path d="M-20.45 73.548l.052-7.42 7.404.052-.052 7.42zM-5.97 58.45l.052-7.42 7.404.052-.052 7.42zm19.923-7.47l.052-7.42 7.404.052-.052 7.42zM-24.8 94.096l.052-7.42 7.358.05-.052 7.42zm94.06-27.864l7.42-.052.052 7.404-7.42.052zM54.78 50.876l7.42-.052.052 7.404-7.42.052zm-19.992-7.28l7.42-.052.052 7.404-7.42.052zm38.8 43.164l7.42-.052.052 7.404-7.42.052z" fill="#169bd6"/><path d="M8.2 139.366l.08-11.284 11.33.08-.08 11.284zm28.332 0l.08-11.284 11.33.08-.08 11.284z" fill="#3378bc"/><path d="M69.212 133.637l.052-7.42 7.404.052-.052 7.42zM54.9 148.9l.052-7.42 7.404.052-.052 7.42zm-19.937 7.306l.052-7.42 7.404.052-.052 7.42zm38.607-43.118l.052-7.42 7.404.052-.052 7.42zm-94.006 13.125l7.42-.052.052 7.404-7.42.052zm14.482 15.202l7.42-.052.052 7.404-7.42.052zm19.836 7.28l7.42-.052.052 7.404-7.42.052zm-38.634-43l7.42-.052.052 7.404-7.42.052z" fill="#169bd6"/><g fill="#00a8da"><use xlink:href="#B" x="101.024" y="19.928"/><use xlink:href="#B" x="106.314" y="32.067"/><use xlink:href="#B" x="93.864" y="9.184"/><use xlink:href="#B"/><use xlink:href="#B" x="-23.506" y="44.829"/><use xlink:href="#B" x="84.836" y="0.001"/><use xlink:href="#B" x="-21.171" y="32.064"/><use xlink:href="#B" x="23.034" y="-12.454"/><use xlink:href="#B" x="-16.191" y="19.924"/><use xlink:href="#B" x="-8.876" y="9.029"/><path d="M-5.274 39.547l4.02-.028.03 4.096-4.02.028zm24.83-7.9l4.02-.028.03 4.096-4.02.028z"/><use xlink:href="#B" x="73.938" y="-7.16"/><use xlink:href="#B" x="108.34" y="44.677"/><use xlink:href="#B" x="48.877" y="-15.253"/><use xlink:href="#B" x="61.641" y="-12.608"/><use xlink:href="#B" x="84.832" y="102.426"/><use xlink:href="#B" x="108.34" y="57.596"/><use xlink:href="#B" x="-0.004" y="102.424"/><use xlink:href="#B" x="106.314" y="70.516"/><use xlink:href="#B" x="61.638" y="115.034"/><use xlink:href="#B" x="101.02" y="82.658"/><use xlink:href="#B" x="93.862" y="93.554"/><path d="M57.527 156.738l4.02-.028.03 4.096-4.02.028zM32.85 164.33l4.02-.028.03 4.096-4.02.028z"/><use xlink:href="#B" x="11.048" y="110.052"/><use xlink:href="#B" x="-16.346" y="82.498"/><use xlink:href="#B" x="-21.173" y="70.514"/><use xlink:href="#B" x="-9.033" y="93.551"/><use xlink:href="#B" x="-23.506" y="57.594"/><use xlink:href="#B" x="35.954" y="117.524"/><use xlink:href="#B" x="22.879" y="114.879"/></g></g><defs ><path id="B" d="M-16.244 50.846l.028-4.02 4.096.03-.028 4.02z"/></defs></svg>