<svg xmlns="http://www.w3.org/2000/svg" width="120" height="60" viewBox="0 373 120 60"><path d="M24.393 393.837l-.026.15c-.472 2.65-1.422 4.094-2.97 4.752a3.03 3.03 0 0 1-1.182.242c-2.12 0-3.143-1.997-3.5-2.657-.348-.626-.67-1.358-1.012-2.132-.887-2.017-2.255-4.45-3.685-4.45-.365 0-.874.062-1.367.332-1 .548-1 1.073-1.015 1.267-.215 1.726 1.302 3.368 3.4 5.315l.77.702c1.22 1.1 2.53 2.344 3.416 3.852.536.912.905 1.84.964 2.762.067 1.07-.253 2.137-.823 3.173-.368.672-.8 1.208-1.3 1.8-1.427 1.624-1.947 3.023-1.384 4.294.297.67.97 1.224 1.6 1.33a4.83 4.83 0 0 0 .78.069c1.865 0 2.738-1.224 3.152-4.64.172-1.42.88-2.9 1.535-4.06.885-1.58 2.163-2.293 3.798-2.417l.36-.014a3.96 3.96 0 0 1 3.054 1.37c.603.686 1 1.472 1.22 2.56.176.872.136 1.915.024 2.796l-.12.844c-.212 1.468-.53 3.925.182 4.798.078.095.285.35 1.005.4l.28.008c1.024 0 1.454-.503 1.7-.764.68-.752 1.1-2.25.887-4.367-.037-.365-.133-.902-.235-1.47-.237-1.315-.546-2.96-.507-4.498.055-2.17.636-3.53 2.02-4.352a3.04 3.04 0 0 1 1.507-.403 3.42 3.42 0 0 1 2.691 1.231c.585.675.992 1.447 1.182 1.847.302.634.452 1.266.67 1.877.416 1.165.76 2.27 1.52 2.98.5.47 1.024.652 1.474.652.406 0 .9-.234 1.256-.648.656-.74.952-1.675.88-2.784-.095-1.475-.7-3.1-1.777-4.05-.522-.456-1.453-.78-2.2-1.204-1.085-.615-1.982-1.13-2.794-2.085-1.06-1.245-1.343-2.863-.843-4.57l.072-.243c.47-1.6.562-2.3.1-2.74-.2-.197-.692-.227-.747-.227-.27 0-.625.137-.908.464-.27.313-.538.784-.823 1.284-.393.7-.84 1.475-1.456 2.12-.833.867-1.755 1.38-2.888 1.406h-.08c-1.844 0-2.912-1.275-3.338-1.733-.34-.367-.784-.987-1.125-1.53-.344-.55-.748-1.164-1.14-1.607-1.165-1.317-1.844.823-2.228 3m-2.883-.474l.025-.147c.297-1.682.597-4.275 2.483-5.4.642-.387 1.303-.53 1.966-.53 2.232 0 3.668 2.212 4.575 3.592.506.77.92 1.72 1.6 1.72h.012c.603-.013 1.045-.512 1.842-1.9a11.44 11.44 0 0 1 1.25-1.784c.892-1.032 1.786-1.376 2.98-1.376.937 0 2.14.345 2.87 1.027.897.84 1.232 1.934 1.188 3.268-.033.966-.307 1.67-.55 2.488l-.07.236c-.257.88-.02 1.634.223 1.92.452.532 1.3 1.007 2.177 1.5.85.482 1.73.68 2.5 1.344 1.7 1.484 2.77 3.76 2.917 6.06.124 1.945-.3 3.544-1.512 4.9-.975 1.1-2.188 1.68-3.5 1.68-1.27 0-2.438-.47-3.536-1.5-1.3-1.23-1.782-2.687-2.265-4.037l-.6-1.586c-.34-.716-.582-1.368-1.104-1.368s-.557 1.157-.573 1.787c-.03 1.22.292 2.682.503 3.857l.27 1.7c.517 5.114-1.904 8.5-5.527 8.5a7.64 7.64 0 0 1-.46-.014c-1.73-.1-2.738-.883-3.264-1.528-1.583-1.94-1.125-5.002-.803-7.233l.1-.792c.145-1.138-.114-2.338-.6-2.892a.84.84 0 0 0-.704-.308 1.73 1.73 0 0 0-.122.004c-1.2.1-1.664 1.343-2.4 4.14-.407 1.568-.753 3.263-1.58 4.6-1.083 1.738-2.73 2.546-4.754 2.546a8.16 8.16 0 0 1-1.3-.112c-.854-.14-1.7-.54-2.45-1.157-.695-.572-1.265-1.306-1.603-2.07-.6-1.353-.6-3.078-.034-4.532.448-1.13.966-1.73 1.623-2.622.416-.566.96-1.213 1.23-1.704.533-.972.655-1.82.055-2.842-.642-1.1-1.835-2.165-2.887-3.112l-.8-.74c-2.325-2.166-4.767-4.613-4.36-7.848.13-1.05.63-2.678 2.615-3.767.96-.526 1.9-.642 2.797-.642 1.605 0 3.02.67 4.202 2.3.87 1.192 1.537 2.652 2.086 3.956.826 1.96 2.28 6.38 3.3.434" fill="#f12330"/><path d="M94.5 405.694c-.095-.206 0-.348.238-.348h.807c.127 0 .22.08.27.175l2.23 4.842h.016l2.103-4.842a.32.32 0 0 1 .269-.175h.712c.237 0 .348.158.237.364l-3.878 8.185c-.047.096-.158.2-.27.2h-.585c-.238 0-.364-.174-.253-.396l1.047-2.03-2.942-5.966zm-10.972 5.002c.8 0 1.47-.38 1.74-.775v-1.174c-.2-.195-.768-.486-1.464-.486-.886 0-1.494.376-1.494 1.2 0 .633.538 1.235 1.218 1.235m.4-3.34c.68 0 1.345.43 1.345.43.016-1.17-.46-1.7-1.36-1.7-.87 0-1.28.238-1.565.35-.16.063-.254-.017-.3-.16l-.127-.396c-.063-.2.032-.285.175-.348.095-.047.68-.412 1.865-.412 1.614 0 2.342.823 2.342 2.675v3.512a.31.31 0 0 1-.3.3H85.6c-.174 0-.22-.095-.27-.237l-.013-.427c-.332.332-.98.712-1.962.712-1.107 0-2.056-.918-2.056-2.184 0-1.202 1.012-2.105 2.64-2.105m-9.56.5h-3.483c-.097 0-.1-.085-.1-.108.156-.915.944-1.6 1.95-1.6.9 0 1.632.742 1.736 1.6.001.04-.01.12-.092.12m-1.644-2.67c-1.9 0-3.06 1.515-3.06 3.28 0 1.796 1.17 3.28 3.06 3.28 1.077 0 1.92-.422 2.294-.718.234-.172.172-.266.063-.406l-.266-.36c-.124-.172-.218-.094-.437.03-.36.22-.9.468-1.545.468-1.062 0-1.95-.904-2.077-1.9.004-.095.078-.13.078-.13h4.403c.14 0 .266-.1.282-.266a3.74 3.74 0 0 0 .03-.42c0-1.64-1.187-2.858-2.825-2.858m-11.286 5.247c-.078-.125-.14-.22-.374-.094 0 0-.353.386-.966.386s-.702-.74-.7-.792v-3.447c.006-.07.04-.194.208-.207h1.603c.172 0 .297-.14.297-.296v-.344c0-.172-.125-.296-.297-.296h-1.575a.21.21 0 0 1-.235-.209V403.5c0-.156-.125-.296-.28-.296h-.482c-.156 0-.312.14-.312.296v1.63s-.006.195-.2.2h-.607c-.172 0-.297.125-.297.296v.344c0 .156.125.296.297.296h.62c.14.02.17.142.176.2v3.558c0 .968.555 1.718 1.803 1.718.734 0 1.2-.4 1.428-.532.172-.1.22-.203.1-.4l-.234-.4zm4.5-5.247c-.92 0-1.483.438-1.72.676-.001 0-.134.13-.134-.067v-2.97c0-.156-.14-.296-.297-.296h-.485c-.155 0-.296.14-.296.296v8.466c0 .156.14.296.296.296h.485c.156 0 .297-.14.297-.296v-3.426c0-1.17.868-1.508 1.432-1.606a2.21 2.21 0 0 1 .345-.028c.874 0 1.642.578 1.642 1.765v3.295c0 .156.14.296.296.296h.5c.156 0 .296-.14.296-.296v-3.295c0-1.827-1.1-2.8-2.655-2.8m24.733 5.5c-.87 0-1.534-.554-1.534-.554v-3.26s.586-.776 1.613-.776c1.265 0 1.994 1.093 1.994 2.327 0 1.265-.854 2.263-2.072 2.263m.2-5.586a2.81 2.81 0 0 0-1.74.585v-.05a.31.31 0 0 0-.3-.3h-.5c-.158 0-.3.143-.3.3v8.138a.31.31 0 0 0 .3.3h.5a.31.31 0 0 0 .3-.3v-2.55s.65.522 1.692.522c1.74 0 3.037-1.456 3.037-3.307 0-1.82-1.266-3.34-3-3.34m-11.178 0c-1.013 0-1.6.498-1.804.726v-.2a.31.31 0 0 0-.3-.3h-.5a.31.31 0 0 0-.3.3v5.65a.31.31 0 0 0 .3.3h.5c.158 0 .3-.143.3-.3v-4.225s.52-.886 1.724-.886a1.63 1.63 0 0 1 .617.127c.158.063.3.063.38-.143l.2-.538c.16-.443-.633-.522-1.107-.522m20.765-8.542H97c-.097 0-.1-.085-.1-.108.156-.915.943-1.6 1.95-1.6.9 0 1.632.742 1.736 1.6.001.04-.01.12-.092.12m-1.643-2.67c-1.9 0-3.06 1.515-3.06 3.28 0 1.796 1.17 3.28 3.06 3.28 1.077 0 1.92-.422 2.294-.718.234-.172.172-.266.063-.406l-.265-.36c-.125-.172-.22-.094-.437.03-.36.22-.9.468-1.545.468-1.062 0-1.95-.904-2.077-1.9.005-.096.08-.13.08-.13h4.403c.14 0 .266-.1.28-.266a3.85 3.85 0 0 0 .031-.422c0-1.64-1.187-2.858-2.825-2.858m14.425 5.247c-.078-.125-.14-.22-.374-.094 0 0-.353.386-.966.386s-.702-.74-.7-.8v-3.447c.006-.07.04-.194.208-.207h1.603c.172 0 .297-.14.297-.296v-.344c0-.172-.126-.296-.297-.296h-1.575a.21.21 0 0 1-.236-.209v-1.633c0-.156-.125-.296-.28-.296h-.482c-.157 0-.313.14-.313.296v1.63s-.006.195-.2.2h-.607c-.172 0-.296.125-.296.296v.344c0 .156.125.296.296.296h.62c.14.02.17.14.176.2v3.56c0 .968.555 1.718 1.803 1.718.734 0 1.2-.4 1.428-.532.172-.1.22-.203.1-.4l-.234-.4zm-7.537-5.247c-.92 0-1.482.438-1.72.677 0 0-.134.13-.134-.067v-.16c0-.156-.14-.296-.297-.296h-.484c-.156 0-.297.14-.297.296v5.656c0 .156.14.296.297.296h.484c.156 0 .297-.14.297-.296v-3.426c0-1.17.868-1.5 1.432-1.606a2.23 2.23 0 0 1 .345-.028c.874 0 1.642.577 1.642 1.765v3.295c0 .156.14.296.296.296h.5c.156 0 .297-.14.297-.296v-3.295c0-1.827-1.1-2.8-2.656-2.8m-49.4 5.5c.8 0 1.47-.38 1.74-.775v-1.174c-.2-.194-.768-.486-1.464-.486-.886 0-1.495.377-1.495 1.2 0 .633.54 1.235 1.22 1.235m.4-3.34c.68 0 1.345.43 1.345.43.016-1.17-.46-1.7-1.362-1.7-.87 0-1.28.238-1.564.35-.16.063-.254-.017-.3-.16l-.127-.396c-.063-.2.032-.285.174-.348.094-.047.68-.412 1.865-.412 1.613 0 2.342.823 2.342 2.675V400a.31.31 0 0 1-.3.3h-.414c-.174 0-.22-.095-.27-.238l-.013-.427c-.332.332-.98.712-1.962.712-1.107 0-2.056-.918-2.056-2.184 0-1.202 1.012-2.105 2.64-2.105m12.9 3.34c.8 0 1.47-.38 1.74-.775v-1.174c-.2-.194-.768-.486-1.464-.486-.886 0-1.494.377-1.494 1.2 0 .633.538 1.235 1.218 1.235m.412-3.34c.68 0 1.344.43 1.344.43.016-1.17-.46-1.7-1.36-1.7-.87 0-1.28.238-1.565.35-.16.063-.253-.017-.3-.16l-.126-.396c-.064-.2.032-.285.174-.348.095-.047.68-.412 1.866-.412 1.613 0 2.342.823 2.342 2.675V400a.31.31 0 0 1-.3.3h-.415c-.174 0-.22-.095-.27-.238l-.013-.427c-.332.332-.98.712-1.962.712-1.107 0-2.056-.918-2.056-2.184 0-1.202 1.013-2.105 2.642-2.105m12.965 3.087c-.078-.125-.14-.22-.374-.094 0 0-.353.386-.967.386s-.702-.74-.7-.8V395.2c.005-.07.04-.194.207-.207h1.603c.172 0 .297-.14.297-.296v-.344c0-.172-.125-.296-.297-.296H81.2a.21.21 0 0 1-.235-.209v-1.633c0-.156-.125-.296-.28-.296h-.482c-.157 0-.313.14-.313.296v1.63s-.006.195-.2.2h-.607c-.172 0-.297.125-.297.296v.344c0 .156.125.296.297.296h.62c.14.02.17.142.176.2v3.56c0 .968.555 1.718 1.803 1.718.734 0 1.2-.4 1.428-.532.172-.1.22-.203.1-.4l-.234-.4zm-19.692.254c-.87 0-1.535-.554-1.535-.554v-3.26s.586-.776 1.613-.776c1.265 0 1.993 1.093 1.993 2.327 0 1.265-.854 2.263-2.072 2.263m.2-5.586a2.81 2.81 0 0 0-1.74.585v-.05a.31.31 0 0 0-.3-.3h-.5c-.158 0-.3.143-.3.3v8.138a.31.31 0 0 0 .3.3h.5a.31.31 0 0 0 .3-.3v-2.55s.65.523 1.692.523c1.74 0 3.037-1.456 3.037-3.308 0-1.82-1.265-3.34-3-3.34m13.366 0c-1.013 0-1.6.498-1.803.726v-.2a.31.31 0 0 0-.3-.3h-.5a.31.31 0 0 0-.3.3V400a.31.31 0 0 0 .3.3h.5a.31.31 0 0 0 .3-.3v-4.225s.522-.886 1.724-.886a1.64 1.64 0 0 1 .617.126c.158.064.3.064.38-.142l.2-.538c.16-.444-.633-.523-1.107-.523m15.134.085c-.96 0-1.75.496-2.213 1.265-.444-.828-1.275-1.265-2.302-1.265-.92 0-1.483.438-1.72.677 0 0-.134.13-.134-.067v-.16c0-.156-.14-.296-.297-.296h-.483c-.157 0-.297.14-.297.296v5.656c0 .156.14.296.297.296h.483c.157 0 .297-.14.297-.296v-3.426c0-1.17.87-1.5 1.433-1.606a2.22 2.22 0 0 1 .344-.028c.874 0 1.64.577 1.64 1.765v3.295c0 .156.14.296.297.296h.503c.156 0 .297-.14.297-.296v-3.426c0-1.17.868-1.5 1.432-1.606a2.23 2.23 0 0 1 .345-.028c.874 0 1.642.577 1.642 1.765v3.295c0 .156.14.296.296.296h.5c.156 0 .296-.14.296-.296v-3.295c0-1.827-1.1-2.8-2.655-2.8" fill="#231f1f"/></svg>