<?xml version="1.0" encoding="UTF-8" standalone="no"?>
<!-- Generator: Adobe Illustrator 13.0.0, SVG Export Plug-In . SVG Version: 6.00 Build 14948)  -->

<svg
   xmlns:xapMM="http://ns.adobe.com/xap/1.0/mm/"
   xmlns:xapG="http://ns.adobe.com/xap/1.0/g/"
   xmlns:stDim="http://ns.adobe.com/xap/1.0/sType/Dimensions#"
   xmlns:xapTPg="http://ns.adobe.com/xap/1.0/t/pg/"
   xmlns:xapGImg="http://ns.adobe.com/xap/1.0/g/img/"
   xmlns:xap="http://ns.adobe.com/xap/1.0/"
   xmlns:x="adobe:ns:meta/"
   xmlns:dc="http://purl.org/dc/elements/1.1/"
   xmlns:cc="http://creativecommons.org/ns#"
   xmlns:rdf="http://www.w3.org/1999/02/22-rdf-syntax-ns#"
   xmlns:svg="http://www.w3.org/2000/svg"
   xmlns="http://www.w3.org/2000/svg"
   xmlns:sodipodi="http://sodipodi.sourceforge.net/DTD/sodipodi-0.dtd"
   xmlns:inkscape="http://www.inkscape.org/namespaces/inkscape"
   version="1.1"
   id="ÂõæÂ±Ç_1"
   x="0px"
   y="0px"
   width="120"
   height="60"
   viewBox="0 0 120 60"
   enable-background="new 0 0 380 290"
   xml:space="preserve"
   sodipodi:docname="torproject-ar21.svg"
   inkscape:version="0.92.3 (2405546, 2018-03-11)"><defs
   id="defs34" /><sodipodi:namedview
   pagecolor="#ffffff"
   bordercolor="#666666"
   borderopacity="1"
   objecttolerance="10"
   gridtolerance="10"
   guidetolerance="10"
   inkscape:pageopacity="0"
   inkscape:pageshadow="2"
   inkscape:window-width="1920"
   inkscape:window-height="1001"
   id="namedview32"
   showgrid="false"
   inkscape:zoom="1.6275862"
   inkscape:cx="51.193024"
   inkscape:cy="63.175556"
   inkscape:window-x="-9"
   inkscape:window-y="-9"
   inkscape:window-maximized="1"
   inkscape:current-layer="ÂõæÂ±Ç_1" />
<metadata
   id="metadata2"><?xpacket begin="ˇ" id="W5M0MpCehiHzreSzNTczkc9d"?>
<x:xmpmeta
   x:xmptk="Adobe XMP Core 4.1-c036 46.277092, Fri Feb 23 2007 14:16:18        ">
   
<metadata><rdf:RDF>
      <rdf:Description
   rdf:about="">
         <xap:Thumbnails>
            <rdf:Alt>
               <rdf:li
   rdf:parseType="Resource">
                  <xapGImg:width>256</xapGImg:width>
                  <xapGImg:height>196</xapGImg:height>
                  <xapGImg:format>JPEG</xapGImg:format>
                  <xapGImg:image>/9j/4AAQSkZJRgABAgEASABIAAD/7QAsUGhvdG9zaG9wIDMuMAA4QklNA+0AAAAAABAASAAAAAEA
AQBIAAAAAQAB/+4ADkFkb2JlAGTAAAAAAf/bAIQABgQEBAUEBgUFBgkGBQYJCwgGBggLDAoKCwoK
DBAMDAwMDAwQDA4PEA8ODBMTFBQTExwbGxscHx8fHx8fHx8fHwEHBwcNDA0YEBAYGhURFRofHx8f
Hx8fHx8fHx8fHx8fHx8fHx8fHx8fHx8fHx8fHx8fHx8fHx8fHx8fHx8fHx8f/8AAEQgAxAEAAwER
AAIRAQMRAf/EAaIAAAAHAQEBAQEAAAAAAAAAAAQFAwIGAQAHCAkKCwEAAgIDAQEBAQEAAAAAAAAA
AQACAwQFBgcICQoLEAACAQMDAgQCBgcDBAIGAnMBAgMRBAAFIRIxQVEGE2EicYEUMpGhBxWxQiPB
UtHhMxZi8CRygvElQzRTkqKyY3PCNUQnk6OzNhdUZHTD0uIIJoMJChgZhJRFRqS0VtNVKBry4/PE
1OT0ZXWFlaW1xdXl9WZ2hpamtsbW5vY3R1dnd4eXp7fH1+f3OEhYaHiImKi4yNjo+Ck5SVlpeYmZ
qbnJ2en5KjpKWmp6ipqqusra6voRAAICAQIDBQUEBQYECAMDbQEAAhEDBCESMUEFURNhIgZxgZEy
obHwFMHR4SNCFVJicvEzJDRDghaSUyWiY7LCB3PSNeJEgxdUkwgJChgZJjZFGidkdFU38qOzwygp
0+PzhJSktMTU5PRldYWVpbXF1eX1RlZmdoaWprbG1ub2R1dnd4eXp7fH1+f3OEhYaHiImKi4yNjo
+DlJWWl5iZmpucnZ6fkqOkpaanqKmqq6ytrq+v/aAAwDAQACEQMRAD8A9U4q7FXYq7FXYq7FXYq7
FXYq7FXYq7FXYq7FXYq7FXYq4kAEk0A3JPSmAmlYtLrlzr+pSaTo0jRWVvT9JaonVQdxFCf53H7X
7I+L+XlpY6yWrmYYTWKP1T7/ACj/AMV8mN3syKtlp9n8TR2tpbr9piERFHiTQDNx6cce6IZOsb6z
v7SO7spluLWYVinjPJHFaVVhsRtsRhjISFjkoKvkldirsVdirsVdirsVdirsVdirsVYr5g/M/wAk
6DfNYahqIF4n95DEjylK70corBT7E1y/HppzFgbNsMMpCwEs/wCV4/lz/wAt8v8A0jzf805Z+Syd
zL8tPud/yvH8uf8Alvl/6R5v+acfyWTuX8tPud/yvH8uf+W+X/pHm/5px/JZO5fy0+53/K8fy5/5
b5f+keb/AJpx/JZO5fy0+53/ACvH8uf+W+X/AKR5v+acfyWTuX8tPud/yvH8uf8Alvl/6R5v+acf
yWTuX8tPud/yvH8uf+W+X/pHm/5px/JZO5fy0+53/K8fy5/5b5f+keb/AJpx/JZO5fy0+53/ACvH
8uf+W+X/AKR5v+acfyWTuX8tPud/yvH8uf8Alvl/6R5v+acfyWTuX8tPuR2jfmz5D1e+jsbTUgtz
KQsSzRyRB2OwUM6hansK79shPSZIiyESwTAumX5jtLsVdirsVS99T5a5HpsR/u4GubpqVoCwSND4
cqs3+xzF/MXm8MdI2f0D7yi92FebfM99q+ow+XNBas10xT1P2Sq/3kr0/wB1Rj/gjQdxnL63Wz1+
b8vhP7ofUf537Pv+TGR6Bj2v/m75b8maYND8rBNTuoATcajI1YPVbd5Hdaeq5O54kKOgO1M2n5vH
p4DFhF11/HNrllEdgo+QvJvmbz1NB5q89XM02k8hNpmkS/Ak4p8MrwiipD/KtKydW+H7d2m0ksh4
8pvuCwiZbye2AAAACgGwAzcN7sVdirsVdirsVdirsVdirsVdirsVfFU881xPJPM5kmmZpJZG6szG
rE/M50wFO6AU8KuxV2KuxV2KuxV2KuxV2KuxVwJBqNiOhxV9k+Xbia58v6ZcTsXmmtIJJXPVmaNS
xPzJzm8gqRHm6eY3KYZBi7FVk80cEMk0h4xxKXdvAKKnIZMghEylyiLKvH183/6Hr+rPJ6bahcNG
79ltLRSoVT35SPIvyHvnn2o7Smccox/vc8rPlHoPlt7h5tYlzLxrVfPt1eLfRWkpt7a4HDVLtSQz
wj7FmjdfSFeUtPttt9kb7HSYfy+IQj9Uvx+P2ONKds2/JX8p38yyw+afMMBTQIXD6Xpsg2u2Q7TT
Kf8AdKkfCv7R6/D9rc6HQgeqTZix3uX0lm6cl2KuxV2KuxV2KuxV2KuxV2KuxV2KuxV8TZ07unYq
7FXYq7FXYq7FXYq7FXYq7FXYq+xfKn/KL6P/AMwNt/yZXOcy/Wfe6ef1FNMrYuxVi35kas9h5bkS
Le4umEUS9Kk9B9LUB+ec/wC0eo4NPwfzzXwG5/Hmxkdnzb+Z+sLo2gW3l+0eskigzPXc1JNT82qx
+jOY7HweNlOWXIcnHyGhTvyV/KtvO2opPfKy+UtJcfWTuv1y5+0YlYU+EVq5G4FB1NR1ul03HIyP
48kY4WX1zDDFDEkMKLHDGoSONAFVVUUCqBsABm5Apy12FXYq7FXYq7FXYq7FXYq7FXYq7FXYq7FX
xNnTu6dirsVdirsVdirsVdirsVdirsVdir7F8qf8ovo//MDbf8mVznMv1n3unn9RTTK2Lzf/AJX1
5LtfzE1DyLrfq6JqNq8aWl1e8Utrn1I1deMgJCV5fDzpX5/Diqj+ZWpQy69DbtIPQ0u2+szb9Hm5
AfdHGT9IzhPavKZZYwHd95/6RYSO75ys9A1j8y/zHGl2dVV2L3VxQstvbqRzdqfyiiDxag75tezN
LwYxEc3GAMi+yfLnl7SvLuiWmi6VF6NjZII4l6k92ZjtVmYlmPjnRwgIig5YFCkyyaXYq7FXYq7F
XYq7FXYq7FXYq7FXYq7FXYq+KJI3jkaORSkiEq6MKEEGhBGdM7pbhV2KuxV2KuxV2KuxV2KuxV2K
uxV9j+WY5IvLekxSKUkSzt1dTsQREoIOc3lPqPvdPP6imWQYvBvz/sNF0Lz55M866lZQXmkX0reX
fMcFzGssMltcVkhZlYEViIkk8fhHhkMgsbJCJ85fk3pVtd29t5f1G60/9JJJBDYzzSXFqpt4/UjR
eRMqpxDDjzKr+yBSh0Wr00Mh45D1d7GWESYP+V35gW/5Ya5B5S1ny3Lca95lvI411mzuo5o5xLL6
MIjRljZY1Z++5JJ8Bm7xabwh71GLgfVGWpdirsVdirsVdirsVdirsVaZlVSzEBQKknYADFUqn83+
Urd/TuNbsIXHVJLqFT9xYZYMMz0PyZjHLuKl/jnyV/1MGm/9JkH/ADXh8Cf80/JfCl3FNrW7tbu3
S4tJo7i3kFY5omDow8Qykg5WQRsWJFKuBDsVYR5h/J3yTrmoyahPDLbXUxLTtbScFkc9WZWDip70
pmVj1k4im+GolEUlf/Qv3kT/AH5ff8jk/wCqeT/P5PJl+am7/oX7yJ/vy+/5HJ/1Tx/P5PJfzU3n
/wCa/wCU9h5UsLfVdKuJpbOWYQTQ3BVnRmVmVlZVT4fhI3GZml1RyGjzcjBnMzReY5nOS7FXYq7F
Wcflb+XK+ctQuvrNw9tp1iqGd4gPUd5CeCIWqBspJND8t8xdVqPDArmWjPm4B5vVl/5x98ihQDLf
MQN2M0dT90YzX/n8nk4v5qfk7/oX7yJ/vy+/5HJ/1Tx/P5PJfzU0do/5JeRdLv4r5YZ7qSFg8cdz
IHjDA1BKqqcqe+2RnrckhTGWpkRTPcxGh2Kvnr/nNLVbVfIWi6IKSajqOqJNbw0qxjt4ZFdlHWvO
dF+nFXqHmQyRat5U+suPVEs6yP2Lm0ZfxbNPm+ktsXyV591VrHU/y68+xRmS2tBZzOgps9tIlyIz
7n4h9GdBmHpifJOQbAvuLTdRstT0+21GxlWeyvIkntp03V45FDKw+YOY7SiMVdirsVdirsVdiqye
eC3heeeRYoYlLSSuQqqo3JJOwGEC1AeN+dvz+jhkksvK0SzMp4tqU4PD39KPYn/Wb7j1zY4dBe8/
k5mPS9ZPIda80+YtbkL6rqM93U14O59Mf6sYoi/QM2MMUY8g5kYCPIJXljJ2KvYvyG8xfozS/Msl
7M36MsIo7wx9eLUcPwHi4UD32zW67HxGNcy4eqhZFc0TqXmXzZe6vp8etfpO3fWoxPoul6NdRWgW
Ntws0jfG0lOvKg/UBHHAA8NenmSLQIRANVtztH+WfPF/YQpqaXt3qHluO6Wx1e21Ti97YSyHikon
X+9i5EA8txkMuAHagJVYrkWM8YO3Xy6vX81ziOxV2KvNP+cgf+UEj/5jof8AiEmZug/vPg5Ol+t8
45unYuxV2KuxV7n/AM43f7xa7/xkt/8AiMmartHnFwdZzD2bNa4bsVdirsVeWfm5/wA5DeTPy9jk
suY1bzJT93pNu4/dkioNzJuIh7bsfCm+KvMvyn8jec/zR85W/wCan5ijhp1sVfQNKKskb8DyiZI2
J4wI3xCu8jbmo64+bLWwZAPSvPmtNP5x0CGIhIrHUmtXYkkM7R2sjnbbZbgKPeuYWQekshzeOXvl
e1mPmT8t9YHBrG5kutIkpVvqVy5mtpoyftemzmNqf6ubvQ5BlxAFtiLHCUL+U35za/8AlFeDyb54
t5bjyuXZrC/iBkNvzNS0X+/ISTyZB8Skk+2QnAxNFolEjm+sPLnmfy/5l0uPVdBv4dR0+X7M8DBg
D1KsOqsK7qwBGQYpnirsVdirsVWyyxxRPLKwSKNSzuxoqqoqSSewxAV81fmp+aF15nvX07T5Gi0C
BqIoqpuGU/3kn+TX7K/Sd+m70umEBZ+p2WDDwizzee5mOQ7FXYq7FXon5YaTdat5Y86WFoC1zLZw
GFB1Zo3eQIPduNMw9TMRnAnvcfNKpRKe+db+Xzdrfli+0M3duq2vCe9tYZj9UnckcS0a7FG2ah2G
U4Y+HGQlXP5teMcAIKnp949p5Hu/y+n0mSz80390tvHWNuFyGmBa4Mh2IjVSCa0pQjatDIXkGS7i
B8kkXLjv0vfM1LgOxV2KvNP+cgf+UEj/AOY6H/iEmZug/vPg5Ol+t845unYuxV2KuxV7n/zjd/vF
rv8Axkt/+IyZqu0ecXB1nMPZs1rhuxVD6jqVhplhPqGoXEdpY2qGW4uZmCRoi7lmY7AYq+XfP3/O
RfnHz7rn+CvyhtZ+NwTG+rqpS4lSoDPHyoLaIV3kejf6mCUgBZVln5Vf84seXvL8sWt+cZF8weYS
fVML1ezhkJqTxfed6/tSCn+TXfMTJnJ5MgHtmqalY6Tpd3qV9IILGxhe4uZT0SKJSzH6AMoAtk8S
12LUY/KHl/VbyIjVb621vX5YWALrNPEb6KE17xKUiHhxGHJ3eYChFfnd5WuNQ0az88eXl9XXPLyG
4VU/4+9PYcp4DT7Xw/Gn003OU6DUnFOuhZnbcMPWTQvNOgxSywx3mm30YkVJADSo/wCFZTttuDnX
bTHk37SDz+byr52/LzVW8x/l1qM6RrvcaeDzYoN+DxmqTx+zDkO1TvmHl0xG8XHnirk97/Jf/nJf
y/56eLRNcRNG81GipASRbXTdP9HZjVXr/upjXwLb0xWl7VirsVdiryX8/fOL2GlQ+XLSTjc6iPVv
CpoRbKaBf+ejj7gR3zYaDDZ4j0cvS47PF3PAM27nuxV2KuxV2KvZv+cbv97dd/4xW/8AxKTNb2jy
i4es5B6bf/l9odzqMmpWkt3pN9OeVzNps7W/rHxkUVRjv1pmDHUSAo0R5uMMpArmr6B5I0LRbuS/
gWW61OYcZdRvJWuLhl8ObnYfKmDJnlIV07giWQy26J/lLW7FXYq80/5yB/5QSP8A5jof+ISZm6D+
8+Dk6X63zjm6di7FXYq7FXuf/ON3+8Wu/wDGS3/4jJmq7R5xcHWcw9mzWuGoX19Z2FlPfXsyW1na
xtNcXEhCokaDkzMT0AAxV8f+bvM/nj/nIjzsfLPlYNZeStNk5vPIGWLiCQLq5oAWd9/Si7f8EwhO
YiN0gPo/8tPyr8qfl7ow0/RIOVzKFN9qUoBuLhwOrt2UfsoNh86nMGczI7sgE98y+aPL/lnSZtX1
6+i0/T4PtzSmlSeiqoqzseyqCTgESeSXn5XzL+ajwLdWEuhflyssc8sF4CmoawsZ5xo0QP8Ao9qz
AFuXxuKdAcntH3oT3ztFBJ5s8qwzKpgkGoxujfZKvbqvH6a0zHy/QWQ5pP8AlpqF3bwX3kzVW56p
5XZLZJW/4+dPkBNlce5MS8H/AMtTmNmHKQ5S+/qyHc8ei03/AAl5/wDMXk9Bw08ONW0VOgW1uj8c
aj+WKX4RnS9mZ+PHvzZ4z0Tr1s2ba8//ADA/Lm31blq+jAWutxfvKR/AJ2XcbinGSvRvv8RjZsAl
uObVkx3uHr//ADjR+e1z5phPkzzVK3+KdPRvq11MaSXkUVeSyV39eID4u7DfqGOYDivfsVdir5O/
M7Wn1fz1q9yTWOKdraDw9O3/AHQI/wBbjy+nOg00OHGA7XDGohi+XtrsVdirsVdir2b/AJxu/wB7
dd/4xW//ABKTNb2jyi4es5B7nmqcF2KuxV2KuxV5p/zkD/ygkf8AzHQ/8QkzN0H958HJ0v1vnHN0
7F2KuxV2Kvc/+cbv94td/wCMlv8A8RkzVdo84uDrOYezZrXDfNX/ADlR521jV9X0j8pfLJ53+rvE
+qKpIr6jj6vAxHRdvVk9gp6VwE0LV7J+Wf5eaL5B8p2ugaYoZkAkvrulHuLlgBJK3zpRR2WgzXzm
ZG2YCh+YP5i2/lcWum2Fm+tebNV5Lo2hW5AklIBrLKx2ihSnxOf60YQv3KlHlj8q7q71WHzX+Yl0
mv8AmhPis7QD/cZptTXhaQHZmG1ZX+I0HfcylPoOS09IypLxb8x/MDP5ksNXRqWOmX0tpA2/FzZG
Frh+3SZ3hb/jHhnH00oTD8yw3l/UtI/MC2Wi6TILHXwvWTSbtwrsabt9WmKyqP8AWzDw+oGHfy97
M97Bvz/gjsPPnkrzDGRxvludKuXHQqeMluK/68rHNl2PkqRCQakEt9bOlb3etirzT8xbG+0DW9P8
86C5tb+0njeWRO0qGschHcNTg4Ox+k5hanH/ABBx80er7W/L/wA42PnLybpXmWyHGLUYA8kVa+nM
pKTR/wCwkVlzEaGQYq+Kp5nnnkmfd5WZ2PXdjU9c6YCndBTwq7FXYqidN02/1O+hsLCBri8uG4Qw
p1J/UAOpJ2GRlIRFnkgkAWXrWkf845alLCsmravHaykVMFvEZqV7F2aMVHsDmvn2iOgcSWrHQPRv
y9/LbT/Jkd2YLqS8ub3gJZXUIoWPlxCqCf5t98w9RqTkraqcfLmM2YZjNLsVdirsVdirzT/nIH/l
BI/+Y6H/AIhJmboP7z4OTpfrfOObp2LsVdirsVe5/wDON3+8Wu/8ZLf/AIjJmq7R5xcHWcw9mzWu
G+UfyBjXzx+fvnHz3c/v4bBpWsHIrwNzI0FtvT9m1idRmPqJUKTF9FeePN2n+UPKuoeYb8F4bKOs
cCfbmlchIok/ypHYLmLGNmmTHfyt8j6hpsd15r80cbjzx5hpNqcxAItYjvFYwdeMcK0Bod2HegyU
5XsOShn+VpYTq3nOfW7ify/5IkF1qNWhv9dVfUsdNFPjZpPsTXAr8EKk/F9vivWwRrcoY/548kab
9V8t+TrMtDaS2Wq2UczEtIHltaGZm6s5kb1GPdt8ryTocXmEgK3kvV/8a+Sr3SPMMAj1e2E2jeZr
LrSdU4SMteqSowkQjbfqaZh5I8Erjy5hmNw8Q/MnUr2f8hfLst23LWfKWvjSrxiTXnYLPCP9kypG
xrmw0/pzkjkRbAnZGrOGUMpqCKg+xzp3Lb9bFUDrllHqmkXenyAEXMTIK9mpVG/2LUORnGxSJCxT
Lv8AnCfzNLLofmHytO2+n3Ed7bKevG4UxyqPZWhU/Ns1TgvpjFXxNnTu6dirsVdir2P/AJxw0+3k
1LWtQdQZ7aKCGIkdFnZ2en/IkZre0ZGgHD1Z2Ae7ZqnBdirsVdirsVdirsVeaf8AOQP/ACgkf/Md
D/xCTM3Qf3nwcnS/W+cc3TsXYq7FXYq9z/5xu/3i13/jJb/8RkzVdo84uDrOYeu6m7x6bdyISrpD
IysOoIUkEZrXDfNf/OEkEa+XvNE4H72S7to2P+SkTlf+JnMTU8wyi9I88RnzL+bPlLym4Dabo0Uv
mjVIj0doX+rWK/ROzMR3p7ZXHaJPwS9OJAFTsB1OVJeTRX+pfm1qt1DY3Mth+WenStbz3Vuxjm1u
eM0ljjkUhks1+yzLvJ0r143Vwf1kPUNO03T9MsYLDTraKzsbZRHb20CCONFHZVUADKibS8+/M7XY
NK88eQRIT/pN3dwFR4TRJApPsJJUyM43AqOaE1jh5f8AzT0fU4/3dn5shk0rUuyG8tEM9lIfFmjE
0X3Zix9WMj+bv+tn1eLfnXDDYeXfzD0pvsf4k07UrYb/AN5qFlykO23+6n6/0zN0xuUT/RI+RYS6
oTSrkyaXZyVPxwRtv13QHOnjyDlDkivWySXetiq//nEqf6v+dnmeyVqQyWN5xSnVor2Hj08FLZqp
/UXClzL7DyLF8TZ07unYq7FXYq9t/wCca/8Apo/+jL/mfmr7S/h+P6HC1nR7ZmscJ2KuxV2KuxV2
KuxV5p/zkD/ygkf/ADHQ/wDEJMzdB/efBydL9b5xzdOxdirsVdir3P8A5xu/3i13/jJb/wDEZM1X
aPOLg6zmHsN1ALi1mgJ4iZGjLdacgRXNa4b5k/5wsuvQtvN+hzr6d5a3NtK8Z+1uJInH+xaPf55i
6kcmUXqV1I9h/wA5BWTzHjb655ZktbU0HxXGn3pnda/8Yrmv+e1X8HxT1RH52X+pp5Oi0PSpDBqf
mu+t9BtrkCvpLeFjPJt/Lbxyb9sGMb33KWYaDoem6Dotlo2mRCCwsIUgtoh2RBSpPcnqT3OQJs2l
S80eZNL8s+X7/XtVk9Kw0+IzTEbsabKiDarOxCqO5OGIs0rwvzxoXmfVv0PrmuKbXzLrkWqTWOnq
ajT4rbT5ZbC3H80iSH1JWpu5p0VclKQA8tvvQE6/M7XYNU/J7TvO9sAslhLpWv2qg14ss8Rda+IS
V1zDwRrIYe8MydrePf8AORF+g1bz1bq3L1NS8uIV3oCNNvJGI7dClfnmZoxtH3S+8MZofSHK6TZK
disEQI+SDOlhyDlR5Iv1vfJJd63viqa/84d20l7+aPmrWk3gSxliJHSt3dpKv4QHNVM2SXBkd319
kUPibOnd07FXYq7FXtv/ADjX/wBNH/0Zf8z81faX8Px/Q4Ws6PbM1jhOxV2KuxV2KuxV2KvNP+cg
f+UEj/5jof8AiEmZug/vPg5Ol+t845unYuxV2KuxV7n/AM43f7xa7/xkt/8AiMmartHnFwdZzD2b
Na4b5I+tL+Un/OVF212fq/l7zSWcyE0RYtQfmHPYCK7QqfBa5VmjcUh7T+dtnd2mj6X520+Iy6h5
LvV1No1+3JYsphv4lPblA3I/6uYuM713sihfzU1uwC/l15pt5Um0r/EFm31jqn1fULWaJJqnsPUU
4wHMeSl6jlSXn/5lWq6z5o8j+WpwGsLrUZtUv4zSkkelQGWNGB6qbiWIsPbLIbAlBVPPgB89+RQe
nr6l/wBQLZRl+g/jqyHN4rc3hX/nFDVrI/vZbC4l0xVWpJ46sFjVajfijrT2GSA/wgH4/Yv8Lyz8
5rv6zqerNCxdLzzDd2sYqTVNIt4LWJq9Dy9ZgNu2ZemGw/q/ewknsJEUSRg7IoUfQKZ0Acxd63vi
lK/M2rjT9FuZw1JWUxw+PN9hT5dcryz4Y2wnKg99/wCcPPJkmi/lxPrtxHwufMdx6sdRRvqttWKG
vzcyMPY5rXDe8Yq+Js6d3TsVdirsVe2/841/9NH/ANGX/M/NX2l/D8f0OFrOj2zNY4TsVdirsVdi
rsVdirzT/nIH/lBI/wDmOh/4hJmboP7z4OTpfrfOObp2LsVdirsVe5/843f7xa7/AMZLf/iMmart
HnFwdZzD2bNa4byL/nJL8om8/eTvrWmRc/Mmi859PUAcp4yP3ttXxYCqf5Qp3OKsf/5xv/OK3836
EfJfmVh/iTTITB6dx1vLVBwNQ3WSNfhkU7kfF/NTCzY6NhkClus+V7qHQfMn5JXbmlxDJqv5c3cj
H97FBILj6jzb/dkEi8etfTauwGES3Evmr0j8j/zFTzz5EtLy5emu2FLLXIGHF1uYhQuymlPVA5/O
o7HK8kOEpBQ/5hXn6L/ND8uNVnothNPqWjyymvwz6hBG1so93e244YbxKozz4QPPfkUnp6+pf9QL
Zj5foP46shzfPkV7bwfkH5bSZmkg1/zK9xcAkVNrb3U0s8m/QKttU1y2v3x8oo6PNfMiS3HmDyzp
kzc7m2so7/Ux/wAvV/LJqMnL/KEc8cZ/1aZsNJG5fH7liLIZF62bhymmuFVSzMFVRUk7AAYql3kz
ylqX5r/mBZ6BZc00S0PrajeAbR26kepJX+Z/sRjx36VzX5snEduTi5J2X3xp2n2em6fbadYxLBZW
cSQW0K/ZSONQqKPkoylrRGKvibOnd07FXYq7FXtv/ONf/TR/9GX/ADPzV9pfw/H9Dhazo9szWOE7
FXYq7FXYq7FXYq80/wCcgf8AlBI/+Y6H/iEmZug/vPg5Ol+t845unYuxV2KuxV7n/wA43f7xa7/x
kt/+IyZqu0ecXB1nMPZs1rhuxV8//nj/AM483up6r/jv8vH/AEf5ttn+s3FpCwhFzKpqJoWqFSf+
auz96GvIEWrDLL849J896RF5R/MWRvKPn/Rp1l0bzI8ZhSG/h+w8ysAYGNKSq3wN1+E8QMc4zE2N
wytU0e/80aJ5tuvOmgWHHzRGg/x/5KhYcdRtySRq2mUHGVJTV/3dSrV6hjUEAijy6FXrXmmTQvze
/Km8fynepPehUvNLcMEmttQtiJYo5VP90/JeBr2NRtvlUbhLdPN5z55/OCy1XyZ5d81Ei11jT4tX
s9TsWqsltqZsGgEbqaEcpnUr7HxricVmvd9628W86+Z4LPRPK/lUGsflzTnivI1JU/XtSPq3sRIB
B9OJvRb+V2PhluKFky7z9g5IJSny8b29vLzX9Qbnd37s3KlNmarEDsK7KOwGbXS4uEW3Yo9U3vNU
tLOP1LmURr2B6n5DqcyZTEebaZAc1Hyv5Z87fmhq40byzaMlgrD67fyVWCJD+1NIKgeyLVj75hZc
5lsOTjzyW+1/ys/K7y9+XXlpNH0lfVuJKSajqDiktzMBTk3Xiq9ET9keJqTQ1MyxV2KvibOnd07F
XYq7FXtv/ONf/TR/9GX/ADPzV9pfw/H9Dhazo9szWOE7FXYq7FXYq7FXYqxH80/Kd95n8pS6fYFf
rsUqXEEbEKHZKgpyOwqGNPfMjS5RCdnk3YJiMrL59P5XfmCCQdDuajbYKR+Bzb/msfe5/jw73f8A
Kr/zA/6sdz9w/rj+ax96+NDvd/yq/wDMD/qx3P3D+uP5rH3r40O93/Kr/wAwP+rHc/cP64/msfev
jQ73tv5M+R9X8r6PePqwEV5qEiP9WDBjGkYIXky1HI8jsDms1mcTkK5BwtRkEjs9DzDcd2KuxVhX
5ifk75B/MCADzBp4N6i8IdUtiIbuMdgJACGA7K4ZfbFXgPmD/nFD8y9Dkjm8k+ZVvrWzczWNvcSP
aXUDsRX0HXnGrECjOrR1wEBWHah5N/5yS0nVf0pL5fvo9arSXWNI4i6lUVNJXsWaOatPiaVGY9zk
eAJtjXmTRfzt1zUhreq+UNV/Si0a61BNIuYDM0f93JOqRpCzp2fgD41wiAApbSmz/Kj80ri6VpvJ
utzftUexuYw3feR46bk198nGgoZ/pH5Bfn1rRWNdHg0K1NFE15NElB/qIZpR9EeXHUS6bNhyl6d5
K/5wz0S3nS+876xLrM4oz2FpyhgJ7q8zEzOv+rwOUk21EvoPQ9A0TQdNi0zRbGHT9Ph/u7a3QRoC
epoOrHuTucCo/FXYq7FXzFq/5K+fbLUJoLWwN9aqx9C6ikjAdK7EqzKynxBGbyGtxkbmnZx1ECOa
C/5VH+Y3/Vll/wCRkP8AzXkvzePvT48O93/Ko/zG/wCrLL/yMh/5rx/N4+9fHh3u/wCVR/mN/wBW
WX/kZD/zXj+bx96+PDvew/kr5E1vyvYajPq6rDc6i0PG1DK7IkIehZlJWrer0B7ZrtbnjMjh6OJq
MokRXR6TmE4zsVdirsVdirsVdirsVdirsVdirsVdirsVdirsVdirsVdirsVdirsVdirsVdirsVdi
rsVdirsVdirsVdirsVdirsVdirsVdirsVdirsVdirsVdirsVdirsVdirsVdirsVdirsVdirsVdir
sVdirsVdirsVdirsVdirsVdirsVdirsVdirsVdirsVdirsVdirsVdirsVdirsVdirsVdirsVdirs
VdirsVdirsVdirsVdirsVdirsVdirsVdirCPzXuvOlvo1m3lNZ2vTcUn+rRiVvS4N1BVtuVMytKI
GR4+TfgEb9TxjVPzF/NrSbkWupahc2dwVDiKaGJG4moBoU6bZso6fDIWBbmRw4zyDI/KevfnTe6z
o0119el0e5ubZ55jboImtpHUs3MIPhMZrWvTKcuPAImqvdryRxAHlb2TUfN/lXTbn6rf6vaW1yPt
QyzRq4/1lJqPpzWxwzkLALhjHI8gmNpe2d7AtxZzx3Nu/wBiaF1kQ/JlJGQMSNixII5oY+YNBFw9
sdStfrEZYSQ+vHzUpUuCvKo40NfDJeHLnRTwHuSzWfM1hceUtcv9D1GC5msbK5kWa2kSX05UidkJ
oWHVaivXJwxkTAkOZDKMDxAEPCvL/nn84PMN+bDR9SlursIZTHS1j+BSATWQIv7Q75tcmDDAXIfe
508WOIshNvKv5t+edN81waR5klNxA1wLW8hmjjSSJmbhyVo1X7JNd6gjp45Xl0mOULixngiY3F7p
ca5ottc/VbjULaG62HoSTRrJVvs/CSDv2zVCEiLAcERJ6NWevaHe3k1lZ6hb3F5bVE9tFKjyJxND
yVSSKE0PvhOOQFkbKYkCyFHVPNXlrSZRDqWqWtnMRURTSoj0PfiTWmGOKUuQJWMJHkEZYalp+oW4
uLC6iu7cmgmgdZEqO3JSRkZRI2IpBBHN5d5t1D8xI/PssOmaxbW+jCW2CWklzZpIFMcfqD05D6vx
NyI/DM7FHH4e49XxcrGIcG43eqXN1a2kD3F1MkEEYrJNKwRFHiWYgDMAAnYOKBaV2XnTyjfXAt7T
WbKedjxWJJ4yzE/yitW+jLJYZjcgsjjkOic5UwSW787eT7O4Nvc61ZQzqaNG1xGGU+Db/D9OWjDM
iwCzGOR6JnDf2M9p9cguYpbMqX+so6tHxXq3MHjQUysxINdWJB5PJNT/ADmvZ/Ptpoli1vaaNFfJ
BdXxdZPWjD0Zg5+BEI8N/fNjHRgYzI/VTljTjgs86evW1zbXUCz20qTwPuksbB0YA02Zag5riCOb
iEUqYEJPfecvKdhdG1vdYs7e5U8XhknjVlP+UCfh+nLI4ZkWAWYxyPIJnbXVrdwJcWsyTwSCsc0T
B0YeIZSQcgQRsWJFIRfMXl9neNdTtDJEGaRBPGSqxglyw5bBQN/DJeHLuKeA9ypp2taPqVs11p97
Bd26EiSaGRXVSBUhipNNvHBKEomiFMSOaEs/OHlS9uHt7TWLOeaMMzxpPGxCoKs2x6KBuckcMxuQ
UnHIdEZZaxpF+7JY31vdugq6wSpIQD3IUmmRlAjmGJiRzReRQ7FXYq7FXYq+cf8AnID/AJTuP/mB
h/4nJm50H938XY6X6Hpmp61eaL+SNrqNkxS6i0mxSKQdVMyRRch7rzqMwowEs5B/nFxoxEstHvLz
D8rPy10/zpa6realeTxPAyxwmIqSZZFLF5OYbkOm1RXxzO1WpOMgAOTnzGFAKn5Hazf6d57XRVkL
WeoCaOeKvwc4I2kWQDx/dlfkcGtgJY+LqF1MQYWx/V9Km1f80tS0uKX0XvtYubf1aE8VkuHVjQUr
RSdsuhLhxA90f0NkZVjB8ntcfkLTfJ35deaLW0me5e6sbuSW4kADELbMqr8PZdyPnms8c5MkSe8f
e4Ximcw8L8hyeco9cZvKIY6r6LhuKwsfSqvLaYFOtPfNpn4OH18nOy8Nerkznyf+UnnPUfNcWs+a
Izbwxzi7uXleOSWeRWD8AqFqBj1rTbpmLm1cBDhg0ZM8RGopD+drun5k3roxV1S2ZWU0IIhUggjL
tF/dBs030PRtN8hxflx5b1nzHDctd6yLAqrOqhIpDQtx3PIc+J38MwpZ/GkI8o24xy+JIR6W8+/K
7yPaeetU1WfWruf9wqySPG6+rJLOW+JmcPWnEk7dczNVnOIDhDkZ8vABTf5c31/5X/NL9CwTNLbP
eS6bdIKhZQjtGshXxVhy+/HURE8XF5WuYCWO3fmZ/wCTmuf+Ymw/5MQY6b+4+f6Vw/3fzR//ADkB
r1/ceaY9GLsthZQxyLDuFaWQEmQ+NFIUeG/vkNBjAhxdSx0sRw2xPzHbeUXsrP8Aw3aarHeRgLeN
eRp6cm394nB3Kty7dKfjkYzOzxGNeTbAyv1U9Bu/O2vx/kdFI8kq6g9z+ipLpuQk9KjPUkitfTAS
v8cwxhj4/lzaBjHi/alX5ZflLpXmvyzd6ne3c0NwZXt7QRceCFFVubhgS1S3QEbfhZqdWccgAGWb
OYSoPQPIP5Xaj5f0/U7K51oXenarbtE1tDGQqO44+qjszCvAkfZ328MxM+qEyCBuGjLmEiDW4eKf
4Us/+Vjf4X9aT6p+kPqXr/D6nD1OHLpxr9GbPxT4fH1q3M4zwcXk+m/L2jWPlvQbTSYpy1taApHL
MVDHkzPvTiO+aPJMzkS62cjI2kP5seYrjSfIl9d6bNxuJmS2jnjIJT1WAcgjoeFaeB3y3S4xLIAW
eCFz3eTfln+Vmneb/L+paneXksNxHK1vahCvESLGsnOXkCWB5gbEd82Gp1RxyAAcvNnMCAET/wA4
+67fweZ59HEhawvIHlaEn4VljoQ4HYlag+O3hg18AY8XUI1URw2xDTNEk13z82jpMYBfXs0csq9R
HzZn27/Cp2zIlPhx8XcG6UuGFvS/zB8tx+RPytbStLnkkGpagiXtywCu6NG7cTx/Z/cqtPn45haf
J4uWz0DjYp8eSz0DD/Ln5cWmo/l3qfmttQeC9svWaCFeIj4wKGZX/a5PWi0Ph1zIyagxyCFbFtnm
qYjSff8AOOP/AB29Y/5ho/8Ak5lXaP0hhq+Qe9ZqXAdirsVdirsVeO/mx+WHmrzN5oTUdLjha2Ft
HCTJKEPJWcnY/wCtmx0uphCFFzMGaMY0Wfw+VUvPIFr5Z1QUP6PgtLgoa8ZIolHJT34utRmIctZD
Id7j8dT4h3vH1/Kn82PL1xdW/l+59S1ux6Us1tcLCHj3oXSRkKsP8mpHY5sfzWGYHE5nj45c2Y/l
R+Ut35avW1rWZEfUihjtreI8liD/AGmZqCrkbbbAePbH1WrExwx5NOfPxChySrT/AMrPNkH5ov5j
kjh/Rh1Oe7DCUF/Skkdl+GnWjDbJy1UDi4etMjnjwcPWnqvmewuNR8tatp9sAbi8s7i3hDGg5yxM
i1Pbc5gYpASBPQuLA1IF5f8AlP8Alh5q8s+aH1HVI4VtjbSQgxyhzyZkI2H+rmdqtTCcKDlZ80ZR
oPYs1zhvFPzN/Kjzd5h84XWq6bHC1pMkSoXlCNVI1U7EeIzZ6bVQhAAubhzxjGi9i1PTrXUtOudP
u15213E8My9DxcFTQ9jvtmujIxNhwwaNvCx+VH5oeVtXln8qXQmhkqizxyxxM0Z6CWOYhKivaviN
82n5rFkHrDnePCQ9Sf8A5b/lHqOi6v8A4l8zzx/WYA8sUCv6hDsDylmk6VAJ6V8a5VqdWJDhg15s
4kOGLzzzrrGm6x+a0mo6bOLiymurMRTAMA3pxxRtQMAftKRmZhgY4qPOi5GOJGOi9V/Nr8qrrzTN
DqukyRpqcMfozQykqssYJK0YA0dSx69R32zA0mqGPY8nFwZ+HY8mOr5f/wCcgb0W1nNemxgtgESd
biFKigFXMBZ3oPEZd4mnG9W2ceEbvQta8iNrXkgeXdS1CS6vQquNTkFW+sKSwfj/AC7lafy+++Yc
M/Dk4gNu5x45eGVgPKrX8uvzn0O0vNI0mVTp16StwIJ4QjAjiXX1eLpUChK0OZ51GCRBPMOWc2OW
55s3/KT8r73yqZ9R1WZW1C4T0o7aJiyRISCxJ2DO3EdOnjvmLq9SMmw5NGfMJbBiPnj8o/O8nnK6
1nQFWeO5uPrUMyTJDLDIx5GvNk+y3QrXMjBq8fAIybcWePDRZV5y8m+dvMn5caRpdz6c3mCC5We+
Z3VVIVJkryX4SaOvTKMOaEMpI+lqx5IxmT0VvJ/5Z3SflzfeVfMAWKS7neVXhYScNkMbg7bhk6YM
2pHiicVyZvXxBgS/lX+bmiC707R5+en3lUna2uViR18WSQowJAoaD2rTMv8ANYZUZcx5N/j45bln
n5T/AJVTeVJJtU1SVJdVnQwxxxEtHFGSGPxECrMQPlmJqtV4mw5NGfPxbDkx3yn+VHm7TPzCg1y6
jhFhHczzMyygtxkVwvw0/wAoZdl1UJY+Ec2zJniYUzz81Y/Lcvk+eHzBO9rZyyIsN1HG0rRz7lG4
qDtsQfbMTS8XH6ebRg4uLZ4XH5Ygj8ualcQ+cbN9KUM66dDJPHJczRrVFa1mWHetN6Nm1OX1AcBv
v/a53H6h6d2V/wDOOEbnV9akCn01t4lZuwLOSB9PE5j9o8g06vkHvGapwXYq7FXYq7FXYq7FXYq7
FXYq7FXYq7FXYq7FXYql3mT6t/h3VfrPq/Vvqc/r/V+PrcPSbl6XP4edPs12rk8d8QrvZQ5h4F5F
/wCVS/4ssa/pT1PXT6l9d9D0PW5fuvV9L4vtU9vHbNtn8bgPL4Ofl8ThPJ9HZpnXOxV2KuxV2Kux
V2KuxV2KuxV2KpF53/w1/hi+/wASU/RHEevWvKvIcOHH4ufKnGmW4OLjHDzZ4+Li9PN85Tf8ql+t
H0v079W5ClfqnKnen8M3I8av4ftdkPE8nuv5Uf4G/wAPN/hPn6XP/TfrH+9PqU29Xt06cfh8O+av
VeJxetwM/FfqZrmK0uxV2Kv/2Q==</xapGImg:image>
               </rdf:li>
            </rdf:Alt>
         </xap:Thumbnails>
         <xap:CreatorTool>Adobe Illustrator CS3</xap:CreatorTool>
         <xap:ModifyDate>2011-10-23T21:47:27+02:00</xap:ModifyDate>
         <xap:MetadataDate>2011-10-23T21:47:27+02:00</xap:MetadataDate>
      </rdf:Description>
      <rdf:Description
   rdf:about="">
         <xapTPg:MaxPageSize
   rdf:parseType="Resource">
            <stDim:w>130.000000</stDim:w>
            <stDim:h>100.000001</stDim:h>
            <stDim:unit>Millimeters</stDim:unit>
         </xapTPg:MaxPageSize>
         <xapTPg:NPages>1</xapTPg:NPages>
         <xapTPg:HasVisibleTransparency>False</xapTPg:HasVisibleTransparency>
         <xapTPg:HasVisibleOverprint>False</xapTPg:HasVisibleOverprint>
         <xapTPg:PlateNames>
            <rdf:Seq>
               <rdf:li>Cyan</rdf:li>
               <rdf:li>Magenta</rdf:li>
               <rdf:li>Yellow</rdf:li>
               <rdf:li>Black</rdf:li>
            </rdf:Seq>
         </xapTPg:PlateNames>
         <xapTPg:SwatchGroups>
            <rdf:Seq>
               <rdf:li
   rdf:parseType="Resource">
                  <xapG:groupName>Groupe de nuances par d√©faut</xapG:groupName>
                  <xapG:groupType>0</xapG:groupType>
               </rdf:li>
            </rdf:Seq>
         </xapTPg:SwatchGroups>
      </rdf:Description>
      <rdf:Description
   rdf:about="">
         <dc:format>image/svg+xml</dc:format>
      </rdf:Description>
      <rdf:Description
   rdf:about="">
         <xapMM:InstanceID>uuid:BFDCA3D33BFFE011843A93214CF4949A</xapMM:InstanceID>
      </rdf:Description>
   <cc:Work
   rdf:about=""><dc:format>image/svg+xml</dc:format><dc:type
     rdf:resource="http://purl.org/dc/dcmitype/StillImage" /><dc:title></dc:title></cc:Work></rdf:RDF></metadata></x:xmpmeta>
                                                                                                    
                                                                                                    
                                                                                                    
                                                                                                    
                                                                                                    
                                                                                                    
                                                                                                    
                                                                                                    
                                                                                                    
                                                                                                    
                                                                                                    
                                                                                                    
                                                                                                    
                                                                                                    
                                                                                                    
                                                                                                    
                                                                                                    
                                                                                                    
                                                                                                    
                                                                                                    
                           
<?xpacket end="w"?>
	</metadata>
<g
   id="layer1"
   transform="matrix(0.21468495,0,0,0.21468495,7.4322159,-3.6141786)">
	
	<g
   id="g3060"
   transform="matrix(1.4656327,0,0,1.4656327,-114.91364,-92.589999)">
		<path
   id="path2534-7"
   d="m 243.455,141.739 10.996,4.562 c 0,2.796 -0.227,11.324 1.521,13.84 18.287,23.553 15.21,70.764 -3.705,71.975 -28.804,0 -39.79,-19.567 -39.79,-37.552 0,-16.401 19.661,-27.303 31.403,-36.994 2.982,-2.61 2.464,-8.376 -0.425,-15.831 z"
   inkscape:connector-curvature="0"
   style="fill:#fffcdb" />
		
			<linearGradient
   id="path2536-6_1_"
   gradientUnits="userSpaceOnUse"
   x1="390.4234"
   y1="-68.190804"
   x2="390.4234"
   y2="53.155701"
   gradientTransform="matrix(1,0,0,-1,-116.9274,163.5249)">
			<stop
   offset="0"
   style="stop-color:#482957"
   id="stop6" />
			<stop
   offset="1"
   style="stop-color:#C19ED3"
   id="stop8" />
		</linearGradient>
		<path
   id="path2536-6"
   d="m 254.454,146.137 3.963,2.022 c -0.372,2.608 0.187,8.387 2.795,9.877 11.555,7.175 22.457,15.002 26.744,22.83 15.282,27.582 -10.717,53.114 -33.174,50.691 12.207,-9.039 15.749,-27.582 11.183,-47.803 -1.864,-7.921 -4.753,-15.096 -9.879,-23.203 -2.22,-3.98 -1.445,-8.916 -1.632,-14.414 z"
   inkscape:connector-curvature="0"
   style="fill:url(#path2536-6_1_)" />
		<g
   id="g4942"
   transform="matrix(1.1111963,0,0,1.1111963,39.131448,34.108974)">
			<path
   id="path2554-7"
   d="m 197.761,74.04 -3.019,11.991 c 4.277,-8.469 11.069,-14.842 18.868,-20.461 -5.702,6.625 -10.901,13.25 -14.088,19.875 5.367,-7.548 12.578,-11.74 20.712,-14.508 -10.817,9.644 -19.404,19.992 -25.946,30.391 l -5.199,-2.264 c 0.923,-8.302 4.059,-16.805 8.672,-25.024 z"
   inkscape:connector-curvature="0"
   style="fill:#abcd03" />
			<path
   id="path4724"
   d="m 213.625,65.563 c -3.878,4.14 -10.59,11.403 -14.188,17.75 -3.068,5.414 -5.173,10.23 -6.344,13.469 -0.749,2.072 -3.782,2.051 -2.906,-1.375 0.009,-0.034 0.022,-0.059 0.031,-0.094 1.168,-2.759 2.939,-6.611 4.719,-10 l 2.812,-11.281 c -1.386,4.762 -3.372,9.099 -4.593,14.031 0.001,0 -2.147,4.934 -2.719,6.187 -0.195,0.426 -0.357,0.836 -0.5,1.219 -0.01,0.025 -0.023,0.039 -0.031,0.063 -0.243,0.541 -0.407,1.133 -0.531,1.656 -0.02,0.085 -0.014,0.137 -0.031,0.219 -0.161,0.741 -0.251,1.312 -0.251,1.312 0.874,0.754 5.188,2.625 5.188,2.625 6.541,-10.398 15.15,-20.763 25.969,-30.406 -8.135,2.768 -15.352,6.952 -20.719,14.5 3.187,-6.625 8.392,-13.251 14.094,-19.875 z"
   inkscape:connector-curvature="0"
   style="fill:#437202" />
			<path
   id="path4720"
   d="m 193.34,100.635 0.941,0.708 c 6.541,-10.398 15.15,-20.763 25.969,-30.406 -6.205,5.076 -14.537,12.069 -18.063,16.688 -4.459,5.842 -1.835,0.354 -1.835,0.354 0,0 2.362,-6.11 6.521,-9.943 -2.417,1.154 -6.604,6.364 -7.342,7.401 0,0 -3.145,6.105 -4.898,11.626 -0.471,1.481 -1.293,3.572 -1.293,3.572 z"
   inkscape:connector-curvature="0"
   style="fill:#153902" />
		</g>
		<path
   id="path4748"
   d="m 251.3,144.985 v 87.125 c 0.327,0.005 0.641,0 0.972,0 18.916,-1.211 22.003,-48.432 3.716,-71.985 -1.748,-2.516 -1.528,-11.024 -1.528,-13.821 z"
   inkscape:connector-curvature="0"
   style="fill:#f3ecaa" />
		<g
   id="layer4-3"
   transform="matrix(0.68230175,0,0,0.68230175,78.404988,63.177814)">
			<path
   id="path2538-6"
   d="m 255.226,120.587 12.018,1.639 c -3.551,11.745 6.967,19.939 10.381,21.852 7.647,4.234 15.022,8.604 20.896,13.93 11.063,10.106 17.345,24.31 17.345,39.333 0,14.886 -6.829,29.226 -18.301,38.786 -10.789,9.014 -25.676,12.838 -40.152,12.838 -9.014,0 -17.072,-0.409 -25.812,-3.277 -19.939,-6.693 -34.826,-23.764 -36.055,-44.25 -1.093,-15.979 2.458,-28.135 14.887,-40.836 6.418,-6.692 19.393,-14.34 28.271,-20.486 4.371,-3.005 9.014,-11.473 0.136,-27.451 l 1.776,-1.366 13.156,8.812 -11.107,-4.578 c 0.956,1.366 3.551,7.512 4.098,9.287 1.229,5.053 0.683,9.971 -0.41,12.155 -5.599,10.107 -15.159,12.838 -22.124,18.574 -12.292,10.106 -25.676,18.164 -24.174,45.889 0.683,13.656 11.336,30.318 27.314,38.104 9.014,4.371 19.394,6.146 29.91,6.691 9.423,0.41 27.451,-5.189 37.284,-13.384 10.516,-8.739 16.389,-21.987 16.389,-35.508 0,-13.658 -5.463,-26.632 -15.706,-35.783 -5.873,-5.326 -15.569,-11.745 -21.577,-15.16 -6.01,-3.414 -13.521,-12.974 -11.063,-22.124 z"
   inkscape:connector-curvature="0" />
			<path
   id="path2540-5"
   d="m 251.539,140.8 c -1.229,6.283 -2.595,17.618 -8.058,21.852 -2.322,1.638 -4.644,3.278 -7.102,4.916 -9.833,6.693 -19.667,12.974 -24.173,29.09 -0.956,3.414 -0.136,7.102 0.684,10.516 2.458,9.833 9.423,20.486 14.886,26.77 0,0.272 1.093,0.955 1.093,1.229 4.507,5.327 5.873,6.829 22.944,10.652 l -0.41,1.912 c -10.243,-2.73 -18.71,-5.188 -24.037,-11.336 0,-0.136 -0.956,-1.093 -0.956,-1.093 -5.736,-6.556 -12.702,-17.481 -15.296,-27.724 -0.956,-4.098 -1.775,-7.238 -0.683,-11.473 4.643,-16.662 14.75,-23.218 24.993,-30.183 2.322,-1.502 5.053,-2.869 7.238,-4.644 4.233,-3.138 6.554,-12.7 8.877,-20.484 z"
   inkscape:connector-curvature="0" />
			<path
   id="path2542-6"
   d="m 255.906,166.748 c 0.137,7.102 -0.557,10.665 1.219,15.719 1.092,3.004 4.782,7.102 5.875,11.063 1.502,5.326 3.139,11.199 3,14.75 0,4.098 -0.256,11.742 -2.031,19.938 -1.354,6.771 -4.473,12.581 -9.719,15.875 -5.373,-1.107 -11.682,-2.996 -15.406,-6.188 -7.238,-6.282 -13.649,-16.787 -14.469,-25.938 -0.682,-7.512 6.272,-18.589 15.969,-24.188 8.194,-4.78 10.099,-10.228 11.875,-18.969 -2.457,7.648 -4.766,14.059 -12.687,18.156 -11.472,6.008 -17.359,16.096 -16.812,25.657 0.819,12.291 5.741,20.619 15.438,27.312 4.097,2.867 11.751,5.898 16.531,6.719 v -0.625 c 3.625,-0.68 8.318,-6.633 10.656,-14.688 2.049,-7.238 2.857,-16.502 2.719,-22.375 -0.137,-3.414 -1.643,-10.809 -4.375,-17.5 -1.502,-3.688 -3.809,-7.374 -5.312,-9.969 -1.639,-2.596 -1.651,-8.194 -2.471,-14.749 z"
   inkscape:connector-curvature="0" />
			<path
   id="path2544-3"
   d="m 255.093,193.53 c 0.137,4.779 2.057,10.904 2.875,17.188 0.684,4.644 0.387,9.308 0.25,13.406 -0.135,4.742 -1.715,13.242 -3.875,17.375 -2.037,-0.935 -2.832,-2 -4.156,-3.719 -1.638,-2.322 -2.75,-4.645 -3.843,-7.375 -0.819,-2.049 -1.777,-4.395 -2.188,-7.125 -0.546,-4.098 -0.393,-10.507 4.25,-17.062 3.55,-5.19 4.365,-5.586 5.593,-11.594 -1.64,5.326 -2.862,5.869 -6.687,10.375 -4.233,4.916 -4.938,12.158 -4.938,18.031 0,2.459 0.98,5.187 1.938,7.781 1.092,2.731 2.029,5.451 3.531,7.5 2.257,3.32 5.148,5.209 6.562,5.562 0.01,0.002 0.022,-0.003 0.031,0 0.031,0.007 0.064,0.025 0.094,0.031 v -0.156 c 2.65,-2.955 4.244,-5.89 4.781,-8.844 0.684,-3.551 0.84,-7.11 1.25,-11.344 0.409,-3.551 0.112,-8.334 -0.844,-13.25 -1.364,-6.145 -3.668,-12.411 -4.624,-16.78 z"
   inkscape:connector-curvature="0" />
			<path
   id="path2550-9"
   d="m 255.499,135.064 c 0.137,7.101 0.682,20.35 2.594,25.539 0.547,1.775 5.6,9.56 9.149,18.983 2.459,6.556 3.005,12.564 3.415,14.34 1.639,7.785 -0.41,20.896 -3.143,33.324 -1.364,6.691 -6.008,15.023 -11.334,18.301 l -1.092,1.912 c 3.004,-0.137 10.379,-7.375 12.974,-16.389 4.37,-15.297 6.146,-22.398 4.098,-39.334 -0.272,-1.64 -0.956,-7.237 -3.551,-13.248 -3.824,-9.151 -9.287,-17.891 -9.97,-19.667 -1.228,-2.866 -2.867,-15.294 -3.14,-23.761 z"
   inkscape:connector-curvature="0" />
			<path
   id="path2552-4"
   d="m 258.062,125.352 c -0.406,7.298 -0.514,9.986 0.851,15.312 1.503,5.873 9.151,14.34 12.292,24.037 6.01,18.574 4.508,42.884 0.137,61.867 -1.639,6.691 -9.424,16.39 -17.209,19.529 l 5.736,1.366 c 3.141,-0.138 11.198,-7.647 14.34,-16.252 5.053,-13.521 6.01,-29.636 3.961,-46.571 -0.138,-1.639 -2.869,-16.252 -5.464,-22.398 -3.688,-9.15 -10.243,-17.345 -10.926,-19.119 -1.228,-3.006 -3.927,-9.244 -3.718,-17.771 z"
   inkscape:connector-curvature="0" />
			<path
   id="rect2556-8"
   d="m 253.719,120.215 c 0.06,-0.006 0.119,3.265 0.168,9.562 0.048,6.297 0.086,15.614 0.106,27.251 0.021,11.637 0.026,25.584 0.018,40.798 -0.01,15.215 -0.033,31.684 -0.063,48.18 0.031,0 0.062,0 0.094,0 0,-15.527 0.005,-31.045 0.016,-45.526 0.01,-14.481 0.024,-27.917 0.044,-39.414 0.02,-11.497 0.041,-21.049 0.066,-28.013 0.025,-6.964 0.053,-11.337 0.081,-12.816 -0.347,0.007 -0.531,-0.008 -0.53,-0.022 -0.001,-0.014 0.183,-0.028 0.571,-0.021 0.029,1.424 0.057,5.75 0.081,12.697 0.025,6.947 0.048,16.511 0.067,28.057 0.019,11.545 0.033,25.065 0.043,39.65 0.011,14.585 0.016,30.226 0.016,45.865 -0.335,0 -0.671,0 -1.006,0 -0.03,-16.556 -0.055,-33.097 -0.063,-48.376 -0.01,-15.279 -0.005,-29.284 0.017,-40.963 0.021,-11.679 0.059,-21.022 0.107,-27.332 0.049,-6.311 0.108,-9.583 0.167,-9.577 z"
   inkscape:connector-curvature="0" />
		</g>
	</g>
	<path
   id="path2528"
   d="m 99.943,82.075 h 109.668 c 4.096,0 7.647,3.414 7.647,7.648 v 32.367 c 0,4.234 -3.551,7.649 -7.647,7.649 h -22.534 c -5.054,0 -7.239,2.867 -7.239,6.145 v 105.98 c 0,3.551 -2.868,6.282 -6.282,6.282 h -37.284 c -3.415,0 -6.146,-2.731 -6.146,-6.282 V 134.929 c 0,-3.278 -3.005,-5.189 -5.326,-5.189 H 99.943 c -4.234,0 -7.648,-3.415 -7.648,-7.649 V 89.723 c -0.001,-4.234 3.413,-7.648 7.648,-7.648 z"
   inkscape:connector-curvature="0"
   style="fill:#7d4698" />
	<path
   id="path2532"
   d="m 381.307,124.959 h 0.137 9.56 c 3.551,0 6.419,2.868 6.419,6.282 v 34.69 c 0,4.507 0.273,6.282 -5.19,6.282 -10.788,0 -15.704,5.736 -15.704,12.018 v 58.589 c 0,2.732 -2.596,5.053 -5.736,5.053 h -34.827 c -3.141,0 -5.736,-2.32 -5.736,-5.053 v -66.784 c -0.037,-1.174 -0.015,-2.908 0.137,-3.823 1.912,-24.72 21.309,-44.498 45.889,-46.981 0.821,-0.083 3.736,-0.273 5.051,-0.273 z"
   inkscape:connector-curvature="0"
   style="fill:#7d4698" />
	<g
   id="layer7"
   transform="matrix(1.8025885,0,0,1.8025885,-321.30782,-98.80226)">
		
	</g>
</g>
</svg>