<?xml version="1.0" encoding="UTF-8" standalone="no"?>
<!-- Generator: Adobe Illustrator 13.0.0, SVG Export Plug-In . SVG Version: 6.00 Build 14948)  -->

<svg
   xmlns:xapMM="http://ns.adobe.com/xap/1.0/mm/"
   xmlns:xapG="http://ns.adobe.com/xap/1.0/g/"
   xmlns:stDim="http://ns.adobe.com/xap/1.0/sType/Dimensions#"
   xmlns:xapTPg="http://ns.adobe.com/xap/1.0/t/pg/"
   xmlns:xapGImg="http://ns.adobe.com/xap/1.0/g/img/"
   xmlns:xap="http://ns.adobe.com/xap/1.0/"
   xmlns:x="adobe:ns:meta/"
   xmlns:dc="http://purl.org/dc/elements/1.1/"
   xmlns:cc="http://creativecommons.org/ns#"
   xmlns:rdf="http://www.w3.org/1999/02/22-rdf-syntax-ns#"
   xmlns:svg="http://www.w3.org/2000/svg"
   xmlns="http://www.w3.org/2000/svg"
   xmlns:sodipodi="http://sodipodi.sourceforge.net/DTD/sodipodi-0.dtd"
   xmlns:inkscape="http://www.inkscape.org/namespaces/inkscape"
   version="1.1"
   id="ÂõæÂ±Ç_1"
   x="0px"
   y="0px"
   width="64"
   height="64"
   viewBox="0 0 64 64"
   enable-background="new 0 0 380 290"
   xml:space="preserve"
   sodipodi:docname="torproject-icon.svg"
   inkscape:version="0.92.3 (2405546, 2018-03-11)"><defs
   id="defs34">
	
	
	
	
	

		
	
		
		
			<linearGradient
   id="path2536-6_1_"
   gradientUnits="userSpaceOnUse"
   x1="390.4234"
   y1="-68.190804"
   x2="390.4234"
   y2="53.155701"
   gradientTransform="matrix(0.31464928,0,0,-0.31464928,-54.029135,31.961134)">
			<stop
   offset="0"
   style="stop-color:#482957"
   id="stop6" />
			<stop
   offset="1"
   style="stop-color:#C19ED3"
   id="stop8" />
		</linearGradient>
		
		
		
		
	
			
			
			
			
			
			
			
		
			
			
			
		</defs><sodipodi:namedview
   pagecolor="#ffffff"
   bordercolor="#666666"
   borderopacity="1"
   objecttolerance="10"
   gridtolerance="10"
   guidetolerance="10"
   inkscape:pageopacity="0"
   inkscape:pageshadow="2"
   inkscape:window-width="1920"
   inkscape:window-height="1001"
   id="namedview32"
   showgrid="false"
   inkscape:zoom="1.6275862"
   inkscape:cx="51.193024"
   inkscape:cy="63.175556"
   inkscape:window-x="-9"
   inkscape:window-y="-9"
   inkscape:window-maximized="1"
   inkscape:current-layer="ÂõæÂ±Ç_1" />
<metadata
   id="metadata2"><?xpacket begin="ˇ" id="W5M0MpCehiHzreSzNTczkc9d"?>
<x:xmpmeta
   x:xmptk="Adobe XMP Core 4.1-c036 46.277092, Fri Feb 23 2007 14:16:18        ">
   
<metadata><rdf:RDF>
      <rdf:Description
   rdf:about="">
         <xap:Thumbnails>
            <rdf:Alt>
               <rdf:li
   rdf:parseType="Resource">
                  <xapGImg:width>256</xapGImg:width>
                  <xapGImg:height>196</xapGImg:height>
                  <xapGImg:format>JPEG</xapGImg:format>
                  <xapGImg:image>/9j/4AAQSkZJRgABAgEASABIAAD/7QAsUGhvdG9zaG9wIDMuMAA4QklNA+0AAAAAABAASAAAAAEA
AQBIAAAAAQAB/+4ADkFkb2JlAGTAAAAAAf/bAIQABgQEBAUEBgUFBgkGBQYJCwgGBggLDAoKCwoK
DBAMDAwMDAwQDA4PEA8ODBMTFBQTExwbGxscHx8fHx8fHx8fHwEHBwcNDA0YEBAYGhURFRofHx8f
Hx8fHx8fHx8fHx8fHx8fHx8fHx8fHx8fHx8fHx8fHx8fHx8fHx8fHx8fHx8f/8AAEQgAxAEAAwER
AAIRAQMRAf/EAaIAAAAHAQEBAQEAAAAAAAAAAAQFAwIGAQAHCAkKCwEAAgIDAQEBAQEAAAAAAAAA
AQACAwQFBgcICQoLEAACAQMDAgQCBgcDBAIGAnMBAgMRBAAFIRIxQVEGE2EicYEUMpGhBxWxQiPB
UtHhMxZi8CRygvElQzRTkqKyY3PCNUQnk6OzNhdUZHTD0uIIJoMJChgZhJRFRqS0VtNVKBry4/PE
1OT0ZXWFlaW1xdXl9WZ2hpamtsbW5vY3R1dnd4eXp7fH1+f3OEhYaHiImKi4yNjo+Ck5SVlpeYmZ
qbnJ2en5KjpKWmp6ipqqusra6voRAAICAQIDBQUEBQYECAMDbQEAAhEDBCESMUEFURNhIgZxgZEy
obHwFMHR4SNCFVJicvEzJDRDghaSUyWiY7LCB3PSNeJEgxdUkwgJChgZJjZFGidkdFU38qOzwygp
0+PzhJSktMTU5PRldYWVpbXF1eX1RlZmdoaWprbG1ub2R1dnd4eXp7fH1+f3OEhYaHiImKi4yNjo
+DlJWWl5iZmpucnZ6fkqOkpaanqKmqq6ytrq+v/aAAwDAQACEQMRAD8A9U4q7FXYq7FXYq7FXYq7
FXYq7FXYq7FXYq7FXYq7FXYq4kAEk0A3JPSmAmlYtLrlzr+pSaTo0jRWVvT9JaonVQdxFCf53H7X
7I+L+XlpY6yWrmYYTWKP1T7/ACj/AMV8mN3syKtlp9n8TR2tpbr9piERFHiTQDNx6cce6IZOsb6z
v7SO7spluLWYVinjPJHFaVVhsRtsRhjISFjkoKvkldirsVdirsVdirsVdirsVdirsVYr5g/M/wAk
6DfNYahqIF4n95DEjylK70corBT7E1y/HppzFgbNsMMpCwEs/wCV4/lz/wAt8v8A0jzf805Z+Syd
zL8tPud/yvH8uf8Alvl/6R5v+acfyWTuX8tPud/yvH8uf+W+X/pHm/5px/JZO5fy0+53/K8fy5/5
b5f+keb/AJpx/JZO5fy0+53/ACvH8uf+W+X/AKR5v+acfyWTuX8tPud/yvH8uf8Alvl/6R5v+acf
yWTuX8tPud/yvH8uf+W+X/pHm/5px/JZO5fy0+53/K8fy5/5b5f+keb/AJpx/JZO5fy0+53/ACvH
8uf+W+X/AKR5v+acfyWTuX8tPud/yvH8uf8Alvl/6R5v+acfyWTuX8tPuR2jfmz5D1e+jsbTUgtz
KQsSzRyRB2OwUM6hansK79shPSZIiyESwTAumX5jtLsVdirsVS99T5a5HpsR/u4GubpqVoCwSND4
cqs3+xzF/MXm8MdI2f0D7yi92FebfM99q+ow+XNBas10xT1P2Sq/3kr0/wB1Rj/gjQdxnL63Wz1+
b8vhP7ofUf537Pv+TGR6Bj2v/m75b8maYND8rBNTuoATcajI1YPVbd5Hdaeq5O54kKOgO1M2n5vH
p4DFhF11/HNrllEdgo+QvJvmbz1NB5q89XM02k8hNpmkS/Ak4p8MrwiipD/KtKydW+H7d2m0ksh4
8pvuCwiZbye2AAAACgGwAzcN7sVdirsVdirsVdirsVdirsVdirsVfFU881xPJPM5kmmZpJZG6szG
rE/M50wFO6AU8KuxV2KuxV2KuxV2KuxV2KuxVwJBqNiOhxV9k+Xbia58v6ZcTsXmmtIJJXPVmaNS
xPzJzm8gqRHm6eY3KYZBi7FVk80cEMk0h4xxKXdvAKKnIZMghEylyiLKvH183/6Hr+rPJ6bahcNG
79ltLRSoVT35SPIvyHvnn2o7Smccox/vc8rPlHoPlt7h5tYlzLxrVfPt1eLfRWkpt7a4HDVLtSQz
wj7FmjdfSFeUtPttt9kb7HSYfy+IQj9Uvx+P2ONKds2/JX8p38yyw+afMMBTQIXD6Xpsg2u2Q7TT
Kf8AdKkfCv7R6/D9rc6HQgeqTZix3uX0lm6cl2KuxV2KuxV2KuxV2KuxV2KuxV2KuxV8TZ07unYq
7FXYq7FXYq7FXYq7FXYq7FXYq+xfKn/KL6P/AMwNt/yZXOcy/Wfe6ef1FNMrYuxVi35kas9h5bkS
Le4umEUS9Kk9B9LUB+ec/wC0eo4NPwfzzXwG5/Hmxkdnzb+Z+sLo2gW3l+0eskigzPXc1JNT82qx
+jOY7HweNlOWXIcnHyGhTvyV/KtvO2opPfKy+UtJcfWTuv1y5+0YlYU+EVq5G4FB1NR1ul03HIyP
48kY4WX1zDDFDEkMKLHDGoSONAFVVUUCqBsABm5Apy12FXYq7FXYq7FXYq7FXYq7FXYq7FXYq7FX
xNnTu6dirsVdirsVdirsVdirsVdirsVdir7F8qf8ovo//MDbf8mVznMv1n3unn9RTTK2Lzf/AJX1
5LtfzE1DyLrfq6JqNq8aWl1e8Utrn1I1deMgJCV5fDzpX5/Diqj+ZWpQy69DbtIPQ0u2+szb9Hm5
AfdHGT9IzhPavKZZYwHd95/6RYSO75ys9A1j8y/zHGl2dVV2L3VxQstvbqRzdqfyiiDxag75tezN
LwYxEc3GAMi+yfLnl7SvLuiWmi6VF6NjZII4l6k92ZjtVmYlmPjnRwgIig5YFCkyyaXYq7FXYq7F
XYq7FXYq7FXYq7FXYq7FXYq+KJI3jkaORSkiEq6MKEEGhBGdM7pbhV2KuxV2KuxV2KuxV2KuxV2K
uxV9j+WY5IvLekxSKUkSzt1dTsQREoIOc3lPqPvdPP6imWQYvBvz/sNF0Lz55M866lZQXmkX0reX
fMcFzGssMltcVkhZlYEViIkk8fhHhkMgsbJCJ85fk3pVtd29t5f1G60/9JJJBDYzzSXFqpt4/UjR
eRMqpxDDjzKr+yBSh0Wr00Mh45D1d7GWESYP+V35gW/5Ya5B5S1ny3Lca95lvI411mzuo5o5xLL6
MIjRljZY1Z++5JJ8Bm7xabwh71GLgfVGWpdirsVdirsVdirsVdirsVaZlVSzEBQKknYADFUqn83+
Urd/TuNbsIXHVJLqFT9xYZYMMz0PyZjHLuKl/jnyV/1MGm/9JkH/ADXh8Cf80/JfCl3FNrW7tbu3
S4tJo7i3kFY5omDow8Qykg5WQRsWJFKuBDsVYR5h/J3yTrmoyahPDLbXUxLTtbScFkc9WZWDip70
pmVj1k4im+GolEUlf/Qv3kT/AH5ff8jk/wCqeT/P5PJl+am7/oX7yJ/vy+/5HJ/1Tx/P5PJfzU3n
/wCa/wCU9h5UsLfVdKuJpbOWYQTQ3BVnRmVmVlZVT4fhI3GZml1RyGjzcjBnMzReY5nOS7FXYq7F
Wcflb+XK+ctQuvrNw9tp1iqGd4gPUd5CeCIWqBspJND8t8xdVqPDArmWjPm4B5vVl/5x98ihQDLf
MQN2M0dT90YzX/n8nk4v5qfk7/oX7yJ/vy+/5HJ/1Tx/P5PJfzU0do/5JeRdLv4r5YZ7qSFg8cdz
IHjDA1BKqqcqe+2RnrckhTGWpkRTPcxGh2Kvnr/nNLVbVfIWi6IKSajqOqJNbw0qxjt4ZFdlHWvO
dF+nFXqHmQyRat5U+suPVEs6yP2Lm0ZfxbNPm+ktsXyV591VrHU/y68+xRmS2tBZzOgps9tIlyIz
7n4h9GdBmHpifJOQbAvuLTdRstT0+21GxlWeyvIkntp03V45FDKw+YOY7SiMVdirsVdirsVdiqye
eC3heeeRYoYlLSSuQqqo3JJOwGEC1AeN+dvz+jhkksvK0SzMp4tqU4PD39KPYn/Wb7j1zY4dBe8/
k5mPS9ZPIda80+YtbkL6rqM93U14O59Mf6sYoi/QM2MMUY8g5kYCPIJXljJ2KvYvyG8xfozS/Msl
7M36MsIo7wx9eLUcPwHi4UD32zW67HxGNcy4eqhZFc0TqXmXzZe6vp8etfpO3fWoxPoul6NdRWgW
Ntws0jfG0lOvKg/UBHHAA8NenmSLQIRANVtztH+WfPF/YQpqaXt3qHluO6Wx1e21Ti97YSyHikon
X+9i5EA8txkMuAHagJVYrkWM8YO3Xy6vX81ziOxV2KvNP+cgf+UEj/5jof8AiEmZug/vPg5Ol+t8
45unYuxV2KuxV7n/AM43f7xa7/xkt/8AiMmartHnFwdZzD2bNa4bsVdirsVeWfm5/wA5DeTPy9jk
suY1bzJT93pNu4/dkioNzJuIh7bsfCm+KvMvyn8jec/zR85W/wCan5ijhp1sVfQNKKskb8DyiZI2
J4wI3xCu8jbmo64+bLWwZAPSvPmtNP5x0CGIhIrHUmtXYkkM7R2sjnbbZbgKPeuYWQekshzeOXvl
e1mPmT8t9YHBrG5kutIkpVvqVy5mtpoyftemzmNqf6ubvQ5BlxAFtiLHCUL+U35za/8AlFeDyb54
t5bjyuXZrC/iBkNvzNS0X+/ISTyZB8Skk+2QnAxNFolEjm+sPLnmfy/5l0uPVdBv4dR0+X7M8DBg
D1KsOqsK7qwBGQYpnirsVdirsVWyyxxRPLKwSKNSzuxoqqoqSSewxAV81fmp+aF15nvX07T5Gi0C
BqIoqpuGU/3kn+TX7K/Sd+m70umEBZ+p2WDDwizzee5mOQ7FXYq7FXon5YaTdat5Y86WFoC1zLZw
GFB1Zo3eQIPduNMw9TMRnAnvcfNKpRKe+db+Xzdrfli+0M3duq2vCe9tYZj9UnckcS0a7FG2ah2G
U4Y+HGQlXP5teMcAIKnp949p5Hu/y+n0mSz80390tvHWNuFyGmBa4Mh2IjVSCa0pQjatDIXkGS7i
B8kkXLjv0vfM1LgOxV2KvNP+cgf+UEj/AOY6H/iEmZug/vPg5Ol+t845unYuxV2KuxV7n/zjd/vF
rv8Axkt/+IyZqu0ecXB1nMPZs1rhuxVD6jqVhplhPqGoXEdpY2qGW4uZmCRoi7lmY7AYq+XfP3/O
RfnHz7rn+CvyhtZ+NwTG+rqpS4lSoDPHyoLaIV3kejf6mCUgBZVln5Vf84seXvL8sWt+cZF8weYS
fVML1ezhkJqTxfed6/tSCn+TXfMTJnJ5MgHtmqalY6Tpd3qV9IILGxhe4uZT0SKJSzH6AMoAtk8S
12LUY/KHl/VbyIjVb621vX5YWALrNPEb6KE17xKUiHhxGHJ3eYChFfnd5WuNQ0az88eXl9XXPLyG
4VU/4+9PYcp4DT7Xw/Gn003OU6DUnFOuhZnbcMPWTQvNOgxSywx3mm30YkVJADSo/wCFZTttuDnX
bTHk37SDz+byr52/LzVW8x/l1qM6RrvcaeDzYoN+DxmqTx+zDkO1TvmHl0xG8XHnirk97/Jf/nJf
y/56eLRNcRNG81GipASRbXTdP9HZjVXr/upjXwLb0xWl7VirsVdiryX8/fOL2GlQ+XLSTjc6iPVv
CpoRbKaBf+ejj7gR3zYaDDZ4j0cvS47PF3PAM27nuxV2KuxV2KvZv+cbv97dd/4xW/8AxKTNb2jy
i4es5B6bf/l9odzqMmpWkt3pN9OeVzNps7W/rHxkUVRjv1pmDHUSAo0R5uMMpArmr6B5I0LRbuS/
gWW61OYcZdRvJWuLhl8ObnYfKmDJnlIV07giWQy26J/lLW7FXYq80/5yB/5QSP8A5jof+ISZm6D+
8+Dk6X63zjm6di7FXYq7FXuf/ON3+8Wu/wDGS3/4jJmq7R5xcHWcw9mzWuGoX19Z2FlPfXsyW1na
xtNcXEhCokaDkzMT0AAxV8f+bvM/nj/nIjzsfLPlYNZeStNk5vPIGWLiCQLq5oAWd9/Si7f8EwhO
YiN0gPo/8tPyr8qfl7ow0/RIOVzKFN9qUoBuLhwOrt2UfsoNh86nMGczI7sgE98y+aPL/lnSZtX1
6+i0/T4PtzSmlSeiqoqzseyqCTgESeSXn5XzL+ajwLdWEuhflyssc8sF4CmoawsZ5xo0QP8Ao9qz
AFuXxuKdAcntH3oT3ztFBJ5s8qwzKpgkGoxujfZKvbqvH6a0zHy/QWQ5pP8AlpqF3bwX3kzVW56p
5XZLZJW/4+dPkBNlce5MS8H/AMtTmNmHKQ5S+/qyHc8ei03/AAl5/wDMXk9Bw08ONW0VOgW1uj8c
aj+WKX4RnS9mZ+PHvzZ4z0Tr1s2ba8//ADA/Lm31blq+jAWutxfvKR/AJ2XcbinGSvRvv8RjZsAl
uObVkx3uHr//ADjR+e1z5phPkzzVK3+KdPRvq11MaSXkUVeSyV39eID4u7DfqGOYDivfsVdir5O/
M7Wn1fz1q9yTWOKdraDw9O3/AHQI/wBbjy+nOg00OHGA7XDGohi+XtrsVdirsVdir2b/AJxu/wB7
dd/4xW//ABKTNb2jyi4es5B7nmqcF2KuxV2KuxV5p/zkD/ygkf8AzHQ/8QkzN0H958HJ0v1vnHN0
7F2KuxV2Kvc/+cbv94td/wCMlv8A8RkzVdo84uDrOYezZrXDfNX/ADlR521jV9X0j8pfLJ53+rvE
+qKpIr6jj6vAxHRdvVk9gp6VwE0LV7J+Wf5eaL5B8p2ugaYoZkAkvrulHuLlgBJK3zpRR2WgzXzm
ZG2YCh+YP5i2/lcWum2Fm+tebNV5Lo2hW5AklIBrLKx2ihSnxOf60YQv3KlHlj8q7q71WHzX+Yl0
mv8AmhPis7QD/cZptTXhaQHZmG1ZX+I0HfcylPoOS09IypLxb8x/MDP5ksNXRqWOmX0tpA2/FzZG
Frh+3SZ3hb/jHhnH00oTD8yw3l/UtI/MC2Wi6TILHXwvWTSbtwrsabt9WmKyqP8AWzDw+oGHfy97
M97Bvz/gjsPPnkrzDGRxvludKuXHQqeMluK/68rHNl2PkqRCQakEt9bOlb3etirzT8xbG+0DW9P8
86C5tb+0njeWRO0qGschHcNTg4Ox+k5hanH/ABBx80er7W/L/wA42PnLybpXmWyHGLUYA8kVa+nM
pKTR/wCwkVlzEaGQYq+Kp5nnnkmfd5WZ2PXdjU9c6YCndBTwq7FXYqidN02/1O+hsLCBri8uG4Qw
p1J/UAOpJ2GRlIRFnkgkAWXrWkf845alLCsmravHaykVMFvEZqV7F2aMVHsDmvn2iOgcSWrHQPRv
y9/LbT/Jkd2YLqS8ub3gJZXUIoWPlxCqCf5t98w9RqTkraqcfLmM2YZjNLsVdirsVdirzT/nIH/l
BI/+Y6H/AIhJmboP7z4OTpfrfOObp2LsVdirsVe5/wDON3+8Wu/8ZLf/AIjJmq7R5xcHWcw9mzWu
G+UfyBjXzx+fvnHz3c/v4bBpWsHIrwNzI0FtvT9m1idRmPqJUKTF9FeePN2n+UPKuoeYb8F4bKOs
cCfbmlchIok/ypHYLmLGNmmTHfyt8j6hpsd15r80cbjzx5hpNqcxAItYjvFYwdeMcK0Bod2HegyU
5XsOShn+VpYTq3nOfW7ify/5IkF1qNWhv9dVfUsdNFPjZpPsTXAr8EKk/F9vivWwRrcoY/548kab
9V8t+TrMtDaS2Wq2UczEtIHltaGZm6s5kb1GPdt8ryTocXmEgK3kvV/8a+Sr3SPMMAj1e2E2jeZr
LrSdU4SMteqSowkQjbfqaZh5I8Erjy5hmNw8Q/MnUr2f8hfLst23LWfKWvjSrxiTXnYLPCP9kypG
xrmw0/pzkjkRbAnZGrOGUMpqCKg+xzp3Lb9bFUDrllHqmkXenyAEXMTIK9mpVG/2LUORnGxSJCxT
Lv8AnCfzNLLofmHytO2+n3Ed7bKevG4UxyqPZWhU/Ns1TgvpjFXxNnTu6dirsVdir2P/AJxw0+3k
1LWtQdQZ7aKCGIkdFnZ2en/IkZre0ZGgHD1Z2Ae7ZqnBdirsVdirsVdirsVeaf8AOQP/ACgkf/Md
D/xCTM3Qf3nwcnS/W+cc3TsXYq7FXYq9z/5xu/3i13/jJb/8RkzVdo84uDrOYeu6m7x6bdyISrpD
IysOoIUkEZrXDfNf/OEkEa+XvNE4H72S7to2P+SkTlf+JnMTU8wyi9I88RnzL+bPlLym4Dabo0Uv
mjVIj0doX+rWK/ROzMR3p7ZXHaJPwS9OJAFTsB1OVJeTRX+pfm1qt1DY3Mth+WenStbz3Vuxjm1u
eM0ljjkUhks1+yzLvJ0r143Vwf1kPUNO03T9MsYLDTraKzsbZRHb20CCONFHZVUADKibS8+/M7XY
NK88eQRIT/pN3dwFR4TRJApPsJJUyM43AqOaE1jh5f8AzT0fU4/3dn5shk0rUuyG8tEM9lIfFmjE
0X3Zix9WMj+bv+tn1eLfnXDDYeXfzD0pvsf4k07UrYb/AN5qFlykO23+6n6/0zN0xuUT/RI+RYS6
oTSrkyaXZyVPxwRtv13QHOnjyDlDkivWySXetiq//nEqf6v+dnmeyVqQyWN5xSnVor2Hj08FLZqp
/UXClzL7DyLF8TZ07unYq7FXYq9t/wCca/8Apo/+jL/mfmr7S/h+P6HC1nR7ZmscJ2KuxV2KuxV2
KuxV5p/zkD/ygkf/ADHQ/wDEJMzdB/efBydL9b5xzdOxdirsVdir3P8A5xu/3i13/jJb/wDEZM1X
aPOLg6zmHsN1ALi1mgJ4iZGjLdacgRXNa4b5k/5wsuvQtvN+hzr6d5a3NtK8Z+1uJInH+xaPf55i
6kcmUXqV1I9h/wA5BWTzHjb655ZktbU0HxXGn3pnda/8Yrmv+e1X8HxT1RH52X+pp5Oi0PSpDBqf
mu+t9BtrkCvpLeFjPJt/Lbxyb9sGMb33KWYaDoem6Dotlo2mRCCwsIUgtoh2RBSpPcnqT3OQJs2l
S80eZNL8s+X7/XtVk9Kw0+IzTEbsabKiDarOxCqO5OGIs0rwvzxoXmfVv0PrmuKbXzLrkWqTWOnq
ajT4rbT5ZbC3H80iSH1JWpu5p0VclKQA8tvvQE6/M7XYNU/J7TvO9sAslhLpWv2qg14ss8Rda+IS
V1zDwRrIYe8MydrePf8AORF+g1bz1bq3L1NS8uIV3oCNNvJGI7dClfnmZoxtH3S+8MZofSHK6TZK
disEQI+SDOlhyDlR5Iv1vfJJd63viqa/84d20l7+aPmrWk3gSxliJHSt3dpKv4QHNVM2SXBkd319
kUPibOnd07FXYq7FXtv/ADjX/wBNH/0Zf8z81faX8Px/Q4Ws6PbM1jhOxV2KuxV2KuxV2KvNP+cg
f+UEj/5jof8AiEmZug/vPg5Ol+t845unYuxV2KuxV7n/AM43f7xa7/xkt/8AiMmartHnFwdZzD2b
Na4b5I+tL+Un/OVF212fq/l7zSWcyE0RYtQfmHPYCK7QqfBa5VmjcUh7T+dtnd2mj6X520+Iy6h5
LvV1No1+3JYsphv4lPblA3I/6uYuM713sihfzU1uwC/l15pt5Um0r/EFm31jqn1fULWaJJqnsPUU
4wHMeSl6jlSXn/5lWq6z5o8j+WpwGsLrUZtUv4zSkkelQGWNGB6qbiWIsPbLIbAlBVPPgB89+RQe
nr6l/wBQLZRl+g/jqyHN4rc3hX/nFDVrI/vZbC4l0xVWpJ46sFjVajfijrT2GSA/wgH4/Yv8Lyz8
5rv6zqerNCxdLzzDd2sYqTVNIt4LWJq9Dy9ZgNu2ZemGw/q/ewknsJEUSRg7IoUfQKZ0Acxd63vi
lK/M2rjT9FuZw1JWUxw+PN9hT5dcryz4Y2wnKg99/wCcPPJkmi/lxPrtxHwufMdx6sdRRvqttWKG
vzcyMPY5rXDe8Yq+Js6d3TsVdirsVe2/841/9NH/ANGX/M/NX2l/D8f0OFrOj2zNY4TsVdirsVdi
rsVdirzT/nIH/lBI/wDmOh/4hJmboP7z4OTpfrfOObp2LsVdirsVe5/843f7xa7/AMZLf/iMmart
HnFwdZzD2bNa4byL/nJL8om8/eTvrWmRc/Mmi859PUAcp4yP3ttXxYCqf5Qp3OKsf/5xv/OK3836
EfJfmVh/iTTITB6dx1vLVBwNQ3WSNfhkU7kfF/NTCzY6NhkClus+V7qHQfMn5JXbmlxDJqv5c3cj
H97FBILj6jzb/dkEi8etfTauwGES3Evmr0j8j/zFTzz5EtLy5emu2FLLXIGHF1uYhQuymlPVA5/O
o7HK8kOEpBQ/5hXn6L/ND8uNVnothNPqWjyymvwz6hBG1so93e244YbxKozz4QPPfkUnp6+pf9QL
Zj5foP46shzfPkV7bwfkH5bSZmkg1/zK9xcAkVNrb3U0s8m/QKttU1y2v3x8oo6PNfMiS3HmDyzp
kzc7m2so7/Ux/wAvV/LJqMnL/KEc8cZ/1aZsNJG5fH7liLIZF62bhymmuFVSzMFVRUk7AAYql3kz
ylqX5r/mBZ6BZc00S0PrajeAbR26kepJX+Z/sRjx36VzX5snEduTi5J2X3xp2n2em6fbadYxLBZW
cSQW0K/ZSONQqKPkoylrRGKvibOnd07FXYq7FXtv/ONf/TR/9GX/ADPzV9pfw/H9Dhazo9szWOE7
FXYq7FXYq7FXYq80/wCcgf8AlBI/+Y6H/iEmZug/vPg5Ol+t845unYuxV2KuxV7n/wA43f7xa7/x
kt/+IyZqu0ecXB1nMPZs1rhuxV8//nj/AM483up6r/jv8vH/AEf5ttn+s3FpCwhFzKpqJoWqFSf+
auz96GvIEWrDLL849J896RF5R/MWRvKPn/Rp1l0bzI8ZhSG/h+w8ysAYGNKSq3wN1+E8QMc4zE2N
wytU0e/80aJ5tuvOmgWHHzRGg/x/5KhYcdRtySRq2mUHGVJTV/3dSrV6hjUEAijy6FXrXmmTQvze
/Km8fynepPehUvNLcMEmttQtiJYo5VP90/JeBr2NRtvlUbhLdPN5z55/OCy1XyZ5d81Ei11jT4tX
s9TsWqsltqZsGgEbqaEcpnUr7HxricVmvd9628W86+Z4LPRPK/lUGsflzTnivI1JU/XtSPq3sRIB
B9OJvRb+V2PhluKFky7z9g5IJSny8b29vLzX9Qbnd37s3KlNmarEDsK7KOwGbXS4uEW3Yo9U3vNU
tLOP1LmURr2B6n5DqcyZTEebaZAc1Hyv5Z87fmhq40byzaMlgrD67fyVWCJD+1NIKgeyLVj75hZc
5lsOTjzyW+1/ys/K7y9+XXlpNH0lfVuJKSajqDiktzMBTk3Xiq9ET9keJqTQ1MyxV2KvibOnd07F
XYq7FXtv/ONf/TR/9GX/ADPzV9pfw/H9Dhazo9szWOE7FXYq7FXYq7FXYqxH80/Kd95n8pS6fYFf
rsUqXEEbEKHZKgpyOwqGNPfMjS5RCdnk3YJiMrL59P5XfmCCQdDuajbYKR+Bzb/msfe5/jw73f8A
Kr/zA/6sdz9w/rj+ax96+NDvd/yq/wDMD/qx3P3D+uP5rH3r40O93/Kr/wAwP+rHc/cP64/msfev
jQ73tv5M+R9X8r6PePqwEV5qEiP9WDBjGkYIXky1HI8jsDms1mcTkK5BwtRkEjs9DzDcd2KuxVhX
5ifk75B/MCADzBp4N6i8IdUtiIbuMdgJACGA7K4ZfbFXgPmD/nFD8y9Dkjm8k+ZVvrWzczWNvcSP
aXUDsRX0HXnGrECjOrR1wEBWHah5N/5yS0nVf0pL5fvo9arSXWNI4i6lUVNJXsWaOatPiaVGY9zk
eAJtjXmTRfzt1zUhreq+UNV/Si0a61BNIuYDM0f93JOqRpCzp2fgD41wiAApbSmz/Kj80ri6VpvJ
utzftUexuYw3feR46bk198nGgoZ/pH5Bfn1rRWNdHg0K1NFE15NElB/qIZpR9EeXHUS6bNhyl6d5
K/5wz0S3nS+876xLrM4oz2FpyhgJ7q8zEzOv+rwOUk21EvoPQ9A0TQdNi0zRbGHT9Ph/u7a3QRoC
epoOrHuTucCo/FXYq7FXzFq/5K+fbLUJoLWwN9aqx9C6ikjAdK7EqzKynxBGbyGtxkbmnZx1ECOa
C/5VH+Y3/Vll/wCRkP8AzXkvzePvT48O93/Ko/zG/wCrLL/yMh/5rx/N4+9fHh3u/wCVR/mN/wBW
WX/kZD/zXj+bx96+PDvew/kr5E1vyvYajPq6rDc6i0PG1DK7IkIehZlJWrer0B7ZrtbnjMjh6OJq
MokRXR6TmE4zsVdirsVdirsVdirsVdirsVdirsVdirsVdirsVdirsVdirsVdirsVdirsVdirsVdi
rsVdirsVdirsVdirsVdirsVdirsVdirsVdirsVdirsVdirsVdirsVdirsVdirsVdirsVdirsVdir
sVdirsVdirsVdirsVdirsVdirsVdirsVdirsVdirsVdirsVdirsVdirsVdirsVdirsVdirsVdirs
VdirsVdirsVdirsVdirsVdirsVdirsVdirCPzXuvOlvo1m3lNZ2vTcUn+rRiVvS4N1BVtuVMytKI
GR4+TfgEb9TxjVPzF/NrSbkWupahc2dwVDiKaGJG4moBoU6bZso6fDIWBbmRw4zyDI/KevfnTe6z
o0119el0e5ubZ55jboImtpHUs3MIPhMZrWvTKcuPAImqvdryRxAHlb2TUfN/lXTbn6rf6vaW1yPt
QyzRq4/1lJqPpzWxwzkLALhjHI8gmNpe2d7AtxZzx3Nu/wBiaF1kQ/JlJGQMSNixII5oY+YNBFw9
sdStfrEZYSQ+vHzUpUuCvKo40NfDJeHLnRTwHuSzWfM1hceUtcv9D1GC5msbK5kWa2kSX05UidkJ
oWHVaivXJwxkTAkOZDKMDxAEPCvL/nn84PMN+bDR9SlursIZTHS1j+BSATWQIv7Q75tcmDDAXIfe
508WOIshNvKv5t+edN81waR5klNxA1wLW8hmjjSSJmbhyVo1X7JNd6gjp45Xl0mOULixngiY3F7p
ca5ottc/VbjULaG62HoSTRrJVvs/CSDv2zVCEiLAcERJ6NWevaHe3k1lZ6hb3F5bVE9tFKjyJxND
yVSSKE0PvhOOQFkbKYkCyFHVPNXlrSZRDqWqWtnMRURTSoj0PfiTWmGOKUuQJWMJHkEZYalp+oW4
uLC6iu7cmgmgdZEqO3JSRkZRI2IpBBHN5d5t1D8xI/PssOmaxbW+jCW2CWklzZpIFMcfqD05D6vx
NyI/DM7FHH4e49XxcrGIcG43eqXN1a2kD3F1MkEEYrJNKwRFHiWYgDMAAnYOKBaV2XnTyjfXAt7T
WbKedjxWJJ4yzE/yitW+jLJYZjcgsjjkOic5UwSW787eT7O4Nvc61ZQzqaNG1xGGU+Db/D9OWjDM
iwCzGOR6JnDf2M9p9cguYpbMqX+so6tHxXq3MHjQUysxINdWJB5PJNT/ADmvZ/Ptpoli1vaaNFfJ
BdXxdZPWjD0Zg5+BEI8N/fNjHRgYzI/VTljTjgs86evW1zbXUCz20qTwPuksbB0YA02Zag5riCOb
iEUqYEJPfecvKdhdG1vdYs7e5U8XhknjVlP+UCfh+nLI4ZkWAWYxyPIJnbXVrdwJcWsyTwSCsc0T
B0YeIZSQcgQRsWJFIRfMXl9neNdTtDJEGaRBPGSqxglyw5bBQN/DJeHLuKeA9ypp2taPqVs11p97
Bd26EiSaGRXVSBUhipNNvHBKEomiFMSOaEs/OHlS9uHt7TWLOeaMMzxpPGxCoKs2x6KBuckcMxuQ
UnHIdEZZaxpF+7JY31vdugq6wSpIQD3IUmmRlAjmGJiRzReRQ7FXYq7FXYq+cf8AnID/AJTuP/mB
h/4nJm50H938XY6X6Hpmp61eaL+SNrqNkxS6i0mxSKQdVMyRRch7rzqMwowEs5B/nFxoxEstHvLz
D8rPy10/zpa6realeTxPAyxwmIqSZZFLF5OYbkOm1RXxzO1WpOMgAOTnzGFAKn5Hazf6d57XRVkL
WeoCaOeKvwc4I2kWQDx/dlfkcGtgJY+LqF1MQYWx/V9Km1f80tS0uKX0XvtYubf1aE8VkuHVjQUr
RSdsuhLhxA90f0NkZVjB8ntcfkLTfJ35deaLW0me5e6sbuSW4kADELbMqr8PZdyPnms8c5MkSe8f
e4Ximcw8L8hyeco9cZvKIY6r6LhuKwsfSqvLaYFOtPfNpn4OH18nOy8Nerkznyf+UnnPUfNcWs+a
Izbwxzi7uXleOSWeRWD8AqFqBj1rTbpmLm1cBDhg0ZM8RGopD+drun5k3roxV1S2ZWU0IIhUggjL
tF/dBs030PRtN8hxflx5b1nzHDctd6yLAqrOqhIpDQtx3PIc+J38MwpZ/GkI8o24xy+JIR6W8+/K
7yPaeetU1WfWruf9wqySPG6+rJLOW+JmcPWnEk7dczNVnOIDhDkZ8vABTf5c31/5X/NL9CwTNLbP
eS6bdIKhZQjtGshXxVhy+/HURE8XF5WuYCWO3fmZ/wCTmuf+Ymw/5MQY6b+4+f6Vw/3fzR//ADkB
r1/ceaY9GLsthZQxyLDuFaWQEmQ+NFIUeG/vkNBjAhxdSx0sRw2xPzHbeUXsrP8Aw3aarHeRgLeN
eRp6cm394nB3Kty7dKfjkYzOzxGNeTbAyv1U9Bu/O2vx/kdFI8kq6g9z+ipLpuQk9KjPUkitfTAS
v8cwxhj4/lzaBjHi/alX5ZflLpXmvyzd6ne3c0NwZXt7QRceCFFVubhgS1S3QEbfhZqdWccgAGWb
OYSoPQPIP5Xaj5f0/U7K51oXenarbtE1tDGQqO44+qjszCvAkfZ328MxM+qEyCBuGjLmEiDW4eKf
4Us/+Vjf4X9aT6p+kPqXr/D6nD1OHLpxr9GbPxT4fH1q3M4zwcXk+m/L2jWPlvQbTSYpy1taApHL
MVDHkzPvTiO+aPJMzkS62cjI2kP5seYrjSfIl9d6bNxuJmS2jnjIJT1WAcgjoeFaeB3y3S4xLIAW
eCFz3eTfln+Vmneb/L+paneXksNxHK1vahCvESLGsnOXkCWB5gbEd82Gp1RxyAAcvNnMCAET/wA4
+67fweZ59HEhawvIHlaEn4VljoQ4HYlag+O3hg18AY8XUI1URw2xDTNEk13z82jpMYBfXs0csq9R
HzZn27/Cp2zIlPhx8XcG6UuGFvS/zB8tx+RPytbStLnkkGpagiXtywCu6NG7cTx/Z/cqtPn45haf
J4uWz0DjYp8eSz0DD/Ln5cWmo/l3qfmttQeC9svWaCFeIj4wKGZX/a5PWi0Ph1zIyagxyCFbFtnm
qYjSff8AOOP/AB29Y/5ho/8Ak5lXaP0hhq+Qe9ZqXAdirsVdirsVeO/mx+WHmrzN5oTUdLjha2Ft
HCTJKEPJWcnY/wCtmx0uphCFFzMGaMY0Wfw+VUvPIFr5Z1QUP6PgtLgoa8ZIolHJT34utRmIctZD
Id7j8dT4h3vH1/Kn82PL1xdW/l+59S1ux6Us1tcLCHj3oXSRkKsP8mpHY5sfzWGYHE5nj45c2Y/l
R+Ut35avW1rWZEfUihjtreI8liD/AGmZqCrkbbbAePbH1WrExwx5NOfPxChySrT/AMrPNkH5ov5j
kjh/Rh1Oe7DCUF/Skkdl+GnWjDbJy1UDi4etMjnjwcPWnqvmewuNR8tatp9sAbi8s7i3hDGg5yxM
i1Pbc5gYpASBPQuLA1IF5f8AlP8Alh5q8s+aH1HVI4VtjbSQgxyhzyZkI2H+rmdqtTCcKDlZ80ZR
oPYs1zhvFPzN/Kjzd5h84XWq6bHC1pMkSoXlCNVI1U7EeIzZ6bVQhAAubhzxjGi9i1PTrXUtOudP
u15213E8My9DxcFTQ9jvtmujIxNhwwaNvCx+VH5oeVtXln8qXQmhkqizxyxxM0Z6CWOYhKivaviN
82n5rFkHrDnePCQ9Sf8A5b/lHqOi6v8A4l8zzx/WYA8sUCv6hDsDylmk6VAJ6V8a5VqdWJDhg15s
4kOGLzzzrrGm6x+a0mo6bOLiymurMRTAMA3pxxRtQMAftKRmZhgY4qPOi5GOJGOi9V/Nr8qrrzTN
DqukyRpqcMfozQykqssYJK0YA0dSx69R32zA0mqGPY8nFwZ+HY8mOr5f/wCcgb0W1nNemxgtgESd
biFKigFXMBZ3oPEZd4mnG9W2ceEbvQta8iNrXkgeXdS1CS6vQquNTkFW+sKSwfj/AC7lafy+++Yc
M/Dk4gNu5x45eGVgPKrX8uvzn0O0vNI0mVTp16StwIJ4QjAjiXX1eLpUChK0OZ51GCRBPMOWc2OW
55s3/KT8r73yqZ9R1WZW1C4T0o7aJiyRISCxJ2DO3EdOnjvmLq9SMmw5NGfMJbBiPnj8o/O8nnK6
1nQFWeO5uPrUMyTJDLDIx5GvNk+y3QrXMjBq8fAIybcWePDRZV5y8m+dvMn5caRpdz6c3mCC5We+
Z3VVIVJkryX4SaOvTKMOaEMpI+lqx5IxmT0VvJ/5Z3SflzfeVfMAWKS7neVXhYScNkMbg7bhk6YM
2pHiicVyZvXxBgS/lX+bmiC707R5+en3lUna2uViR18WSQowJAoaD2rTMv8ANYZUZcx5N/j45bln
n5T/AJVTeVJJtU1SVJdVnQwxxxEtHFGSGPxECrMQPlmJqtV4mw5NGfPxbDkx3yn+VHm7TPzCg1y6
jhFhHczzMyygtxkVwvw0/wAoZdl1UJY+Ec2zJniYUzz81Y/Lcvk+eHzBO9rZyyIsN1HG0rRz7lG4
qDtsQfbMTS8XH6ebRg4uLZ4XH5Ygj8ualcQ+cbN9KUM66dDJPHJczRrVFa1mWHetN6Nm1OX1AcBv
v/a53H6h6d2V/wDOOEbnV9akCn01t4lZuwLOSB9PE5j9o8g06vkHvGapwXYq7FXYq7FXYq7FXYq7
FXYq7FXYq7FXYq7FXYql3mT6t/h3VfrPq/Vvqc/r/V+PrcPSbl6XP4edPs12rk8d8QrvZQ5h4F5F
/wCVS/4ssa/pT1PXT6l9d9D0PW5fuvV9L4vtU9vHbNtn8bgPL4Ofl8ThPJ9HZpnXOxV2KuxV2Kux
V2KuxV2KuxV2KpF53/w1/hi+/wASU/RHEevWvKvIcOHH4ufKnGmW4OLjHDzZ4+Li9PN85Tf8ql+t
H0v079W5ClfqnKnen8M3I8av4ftdkPE8nuv5Uf4G/wAPN/hPn6XP/TfrH+9PqU29Xt06cfh8O+av
VeJxetwM/FfqZrmK0uxV2Kv/2Q==</xapGImg:image>
               </rdf:li>
            </rdf:Alt>
         </xap:Thumbnails>
         <xap:CreatorTool>Adobe Illustrator CS3</xap:CreatorTool>
         <xap:ModifyDate>2011-10-23T21:47:27+02:00</xap:ModifyDate>
         <xap:MetadataDate>2011-10-23T21:47:27+02:00</xap:MetadataDate>
      </rdf:Description>
      <rdf:Description
   rdf:about="">
         <xapTPg:MaxPageSize
   rdf:parseType="Resource">
            <stDim:w>130.000000</stDim:w>
            <stDim:h>100.000001</stDim:h>
            <stDim:unit>Millimeters</stDim:unit>
         </xapTPg:MaxPageSize>
         <xapTPg:NPages>1</xapTPg:NPages>
         <xapTPg:HasVisibleTransparency>False</xapTPg:HasVisibleTransparency>
         <xapTPg:HasVisibleOverprint>False</xapTPg:HasVisibleOverprint>
         <xapTPg:PlateNames>
            <rdf:Seq>
               <rdf:li>Cyan</rdf:li>
               <rdf:li>Magenta</rdf:li>
               <rdf:li>Yellow</rdf:li>
               <rdf:li>Black</rdf:li>
            </rdf:Seq>
         </xapTPg:PlateNames>
         <xapTPg:SwatchGroups>
            <rdf:Seq>
               <rdf:li
   rdf:parseType="Resource">
                  <xapG:groupName>Groupe de nuances par d√©faut</xapG:groupName>
                  <xapG:groupType>0</xapG:groupType>
               </rdf:li>
            </rdf:Seq>
         </xapTPg:SwatchGroups>
      </rdf:Description>
      <rdf:Description
   rdf:about="">
         <dc:format>image/svg+xml</dc:format>
      </rdf:Description>
      <rdf:Description
   rdf:about="">
         <xapMM:InstanceID>uuid:BFDCA3D33BFFE011843A93214CF4949A</xapMM:InstanceID>
      </rdf:Description>
   <cc:Work
   rdf:about=""><dc:format>image/svg+xml</dc:format><dc:type
     rdf:resource="http://purl.org/dc/dcmitype/StillImage" /><dc:title></dc:title></cc:Work></rdf:RDF></metadata></x:xmpmeta>
                                                                                                    
                                                                                                    
                                                                                                    
                                                                                                    
                                                                                                    
                                                                                                    
                                                                                                    
                                                                                                    
                                                                                                    
                                                                                                    
                                                                                                    
                                                                                                    
                                                                                                    
                                                                                                    
                                                                                                    
                                                                                                    
                                                                                                    
                                                                                                    
                                                                                                    
                                                                                                    
                           
<?xpacket end="w"?>
	</metadata>
<g
   id="g904"
   transform="matrix(1.6132094,0,0,1.6132094,-68.516611,-22.849117)"><path
     style="fill:#fffcdb;stroke-width:0.31464928"
     inkscape:connector-curvature="0"
     d="m 59.364927,25.106216 3.459884,1.43543 c 0,0.87976 -0.07142,3.563089 0.478582,4.354746 5.753991,7.410935 4.785815,22.265842 -1.165776,22.646882 -9.063158,0 -12.519895,-6.156742 -12.519895,-11.815709 0,-5.160563 6.18632,-8.59087 9.880931,-11.640136 0.938285,-0.821235 0.775296,-2.635502 -0.133726,-4.981213 z"
     id="path2534-7" /><path
     style="fill:url(#path2536-6_1_);stroke-width:0.31464928"
     inkscape:connector-curvature="0"
     d="m 62.825755,26.490044 1.246955,0.636221 c -0.11705,0.820605 0.05884,2.638963 0.879445,3.107791 3.635772,2.257608 7.066079,4.720368 8.41498,7.183443 4.80847,8.678656 -3.372096,16.712282 -10.438175,15.949886 3.840924,-2.844115 4.955411,-8.678656 3.518723,-15.041179 -0.586507,-2.492337 -1.495528,-4.749946 -3.10842,-7.300807 -0.698522,-1.252305 -0.454669,-2.805413 -0.513508,-4.535355 z"
     id="path2536-6" /><path
     id="path2554-7"
     d="m 64.219255,17.127638 -1.055554,4.192499 c 1.495398,-2.961077 3.870133,-5.189314 6.596953,-7.153925 -1.993631,2.316346 -3.811394,4.632692 -4.925688,6.949038 1.876503,-2.639061 4.397736,-4.10474 7.241684,-5.072536 -3.782024,3.371901 -6.784358,6.989946 -9.071684,10.625822 l -1.817764,-0.791578 c 0.322715,-2.902688 1.419177,-5.875652 3.032053,-8.74932 z"
     inkscape:connector-curvature="0"
     style="fill:#abcd03;stroke-width:0.34963712" /><path
     id="path4724"
     d="m 69.765899,14.163765 c -1.355893,1.447497 -3.702657,3.986912 -4.960652,6.206058 -1.072686,1.892936 -1.808673,3.576788 -2.218098,4.709263 -0.261878,0.724448 -1.322327,0.717106 -1.016045,-0.480751 0.0031,-0.01189 0.0077,-0.02063 0.01084,-0.03287 0.408376,-0.964649 1.027583,-2.311451 1.649937,-3.496371 l 0.98318,-3.944257 c -0.484597,1.664972 -1.178977,3.181349 -1.605884,4.905759 3.5e-4,0 -0.75067,1.725109 -0.950663,2.163205 -0.06818,0.148945 -0.12482,0.292296 -0.174818,0.426207 -0.0035,0.0087 -0.008,0.01364 -0.01084,0.02203 -0.08496,0.189154 -0.142302,0.396139 -0.185657,0.579 -0.007,0.02972 -0.0049,0.0479 -0.01084,0.07657 -0.05629,0.259081 -0.08776,0.458724 -0.08776,0.458724 0.305583,0.263626 1.813917,0.917797 1.813917,0.917797 2.286977,-3.635526 5.297003,-7.259515 9.079727,-10.631066 -2.844298,0.967796 -5.367629,2.430677 -7.244132,5.069738 1.114294,-2.316346 2.934155,-4.633041 4.927786,-6.949037 z"
     inkscape:connector-curvature="0"
     style="fill:#437202;stroke-width:0.34963712" /><path
     id="path4720"
     d="m 62.67351,26.426238 0.329008,0.247543 c 2.286977,-3.635527 5.297003,-7.259516 9.079727,-10.631067 -2.169499,1.774759 -5.082675,4.219771 -6.315496,5.834745 -1.559032,2.04258 -0.641584,0.123771 -0.641584,0.123771 0,0 0.825843,-2.136283 2.279984,-3.476442 -0.845073,0.403482 -2.309004,2.225091 -2.567036,2.587665 0,0 -1.099609,2.134534 -1.712523,4.064881 -0.164679,0.517812 -0.45208,1.248904 -0.45208,1.248904 z"
     inkscape:connector-curvature="0"
     style="fill:#153902;stroke-width:0.34963712" /><path
     style="fill:#f3ecaa;stroke-width:0.31464928"
     inkscape:connector-curvature="0"
     d="m 61.833351,26.127568 v 27.413818 c 0.10289,0.0016 0.20169,0 0.305839,0 5.951906,-0.38104 6.923228,-15.239094 1.169237,-22.650028 C 62.75842,30.0997 62.827643,27.422664 62.827643,26.54259 Z"
     id="path4748" /><path
     style="stroke-width:0.21468575"
     id="path2538-6"
     d="m 62.225445,26.275306 2.580094,0.35187 c -0.76235,2.521484 1.495715,4.280619 2.228652,4.691313 1.641702,0.90898 3.22501,1.847156 4.486074,2.990573 2.375068,2.169614 3.723724,5.21901 3.723724,8.444234 0,3.195812 -1.466089,6.274406 -3.928964,8.326802 -2.316244,1.935177 -5.512271,2.756135 -8.620062,2.756135 -1.935177,0 -3.665115,-0.08781 -5.541469,-0.703525 -4.280619,-1.436891 -7.476646,-5.101792 -7.740494,-9.499844 -0.234652,-3.430464 0.527697,-6.040184 3.196026,-8.766907 1.377854,-1.436678 4.163401,-3.078594 6.069381,-4.398053 0.938392,-0.64513 1.935178,-2.463089 0.0292,-5.893338 l 0.381281,-0.293261 2.824406,1.891811 -2.384514,-0.982832 c 0.205239,0.293261 0.762349,1.61272 0.879782,1.993787 0.263849,1.084807 0.14663,2.140632 -0.08802,2.609505 -1.202026,2.169829 -3.254422,2.756136 -4.749708,3.987573 -2.638917,2.169615 -5.512271,3.899552 -5.189813,9.851715 0.14663,2.931748 2.433677,6.508842 5.863926,8.180386 1.935178,0.938391 4.163616,1.319458 6.421251,1.436462 2.022984,0.08802 5.893339,-1.114004 8.004344,-2.873354 2.257635,-1.876139 3.518484,-4.720296 3.518484,-7.623062 0,-2.932178 -1.172828,-5.717511 -3.371854,-7.6821 C 69.55632,33.92778 67.474727,32.549712 66.184895,31.81656 64.894633,31.083623 63.282128,29.031227 63.809826,27.066853 Z"
     inkscape:connector-curvature="0" /><path
     style="stroke-width:0.21468575"
     id="path2540-5"
     d="m 61.433899,30.614749 c -0.263849,1.348871 -0.55711,3.782334 -1.729938,4.691313 -0.4985,0.351656 -0.997001,0.70374 -1.524698,1.055395 -2.111005,1.436892 -4.222225,2.785333 -5.189599,6.245209 -0.205239,0.732937 -0.0292,1.524698 0.146845,2.257635 0.527698,2.111005 2.022984,4.398053 3.195812,5.747138 0,0.05839 0.234652,0.205025 0.234652,0.263849 0.967589,1.143631 1.260849,1.466089 4.92575,2.286832 l -0.08802,0.410479 C 59.205675,52.986507 57.387931,52.45881 56.2443,51.138922 c 0,-0.0292 -0.205239,-0.234652 -0.205239,-0.234652 -1.231438,-1.40748 -2.726939,-3.752921 -3.283834,-5.951948 -0.205239,-0.879782 -0.381067,-1.553895 -0.14663,-2.463089 0.996786,-3.577094 3.166615,-4.984574 5.365641,-6.47986 0.4985,-0.322458 1.084807,-0.615934 1.553895,-0.997001 0.908765,-0.673684 1.407051,-2.726509 1.905766,-4.397623 z"
     inkscape:connector-curvature="0" /><path
     style="stroke-width:0.21468575"
     id="path2542-6"
     d="m 62.371432,36.185415 c 0.02941,1.524698 -0.11958,2.289624 0.261701,3.374645 0.234437,0.644916 1.026628,1.524699 1.261279,2.375069 0.322458,1.143416 0.673899,2.404266 0.644058,3.166615 0,0.879782 -0.05496,2.52084 -0.436027,4.280404 -0.290685,1.453637 -0.96029,2.700962 -2.086531,3.408136 -1.153507,-0.237657 -2.507959,-0.643198 -3.307449,-1.328475 -1.553895,-1.348656 -2.930246,-3.60393 -3.106288,-5.568519 -0.146416,-1.612719 1.346509,-3.990793 3.428317,-5.192819 1.759135,-1.026198 2.168111,-2.195806 2.549393,-4.072374 -0.527483,1.641917 -1.023192,3.018267 -2.723718,3.897835 -2.462875,1.289832 -3.72673,3.455581 -3.609297,5.508192 0.175828,2.638702 1.232511,4.426605 3.314319,5.863497 0.879567,0.615504 2.522772,1.266217 3.54897,1.442474 v -0.134179 c 0.778236,-0.145986 1.785756,-1.424011 2.287691,-3.153304 0.439891,-1.553896 0.613358,-3.542744 0.583731,-4.803594 -0.02941,-0.732937 -0.352729,-2.320538 -0.93925,-3.757001 -0.322458,-0.791761 -0.817738,-1.583092 -1.140411,-2.140202 -0.35187,-0.557324 -0.354446,-1.759135 -0.530488,-3.1664 z"
     inkscape:connector-curvature="0" /><path
     style="stroke-width:0.21468575"
     id="path2544-3"
     d="m 62.196892,41.935129 c 0.02941,1.025983 0.441609,2.340933 0.617222,3.690019 0.146845,0.997 0.08308,1.998295 0.05367,2.878077 -0.02898,1.01804 -0.368186,2.842868 -0.831907,3.730165 -0.437315,-0.200732 -0.60799,-0.429372 -0.892234,-0.798417 -0.351656,-0.4985 -0.590386,-0.997215 -0.825038,-1.583307 -0.175827,-0.439891 -0.381496,-0.943544 -0.469732,-1.529636 -0.117218,-0.879782 -0.08437,-2.255703 0.912414,-3.662968 0.762135,-1.114219 0.937104,-1.199235 1.200738,-2.489067 -0.352085,1.143416 -0.614431,1.259991 -1.435604,2.227365 -0.908765,1.055395 -1.060118,2.610149 -1.060118,3.870999 0,0.527912 0.210392,1.113574 0.416061,1.670469 0.234437,0.586307 0.435597,1.170252 0.758055,1.610143 0.484546,0.712757 1.105203,1.118299 1.408768,1.194083 0.0021,4.29e-4 0.0047,-6.44e-4 0.0067,0 0.0067,0.0015 0.01374,0.0054 0.02018,0.0067 v -0.03349 c 0.568917,-0.634397 0.911126,-1.264499 1.026413,-1.898681 0.146845,-0.762349 0.180336,-1.526416 0.268357,-2.435395 0.08781,-0.762349 0.02405,-1.789191 -0.181195,-2.844586 -0.292831,-1.319244 -0.787467,-2.664465 -0.992707,-3.602427 z"
     inkscape:connector-curvature="0" /><path
     style="stroke-width:0.21468575"
     id="path2550-9"
     d="m 62.284054,29.383312 c 0.02941,1.524483 0.146416,4.368855 0.556895,5.482859 0.117433,0.381067 1.20224,2.052396 1.96416,4.07538 0.527912,1.40748 0.645131,2.697312 0.733152,3.078593 0.35187,1.671329 -0.08802,4.486074 -0.674757,7.154188 -0.292832,1.436463 -1.289832,3.225224 -2.433249,3.928964 l -0.234436,0.410479 c 0.644916,-0.02941 2.228223,-1.583307 2.785333,-3.518484 0.938176,-3.284048 1.319458,-4.808532 0.879782,-8.44445 -0.0584,-0.352084 -0.20524,-1.55368 -0.762349,-2.844156 -0.820959,-1.96459 -1.993787,-3.840943 -2.140417,-4.222225 -0.263634,-0.615289 -0.615504,-3.283404 -0.674114,-5.101148 z"
     inkscape:connector-curvature="0" /><path
     style="stroke-width:0.21468575"
     id="path2552-4"
     d="m 62.834294,27.298284 c -0.08716,1.566776 -0.110348,2.143852 0.182698,3.287268 0.322672,1.260849 1.964589,3.078594 2.638917,5.160401 1.290261,3.987574 0.967803,9.206584 0.02941,13.281964 -0.35187,1.436462 -2.023199,3.518699 -3.694527,4.192598 l 1.231437,0.29326 c 0.674328,-0.02963 2.404051,-1.641701 3.078594,-3.489072 1.084807,-2.902766 1.290261,-6.362427 0.85037,-9.99813 -0.02963,-0.35187 -0.615933,-3.489073 -1.173043,-4.808532 -0.791761,-1.964374 -2.199026,-3.723724 -2.345656,-4.104577 -0.263634,-0.645345 -0.843071,-1.984555 -0.798202,-3.81518 z"
     inkscape:connector-curvature="0" /><path
     style="stroke-width:0.21468575"
     id="rect2556-8"
     d="m 61.901914,26.195443 c 0.01288,-0.0013 0.02555,0.700949 0.03607,2.052825 0.01031,1.351876 0.01846,3.352104 0.02276,5.850402 0.0045,2.498298 0.0056,5.49252 0.0039,8.758749 -0.0021,3.266444 -0.0071,6.802103 -0.01353,10.343559 0.0067,0 0.01331,0 0.02018,0 0,-3.333425 0.0011,-6.664919 0.0034,-9.773783 0.0021,-3.108864 0.0052,-5.993382 0.0094,-8.461624 0.0043,-2.468242 0.0088,-4.518921 0.01417,-6.013992 0.0054,-1.495072 0.01138,-2.433893 0.01739,-2.751413 -0.0745,0.0015 -0.113998,-0.0017 -0.113783,-0.0047 -2.15e-4,-0.003 0.03929,-0.006 0.122585,-0.0045 0.0062,0.305712 0.01224,1.234443 0.01739,2.725865 0.0054,1.491422 0.01031,3.544676 0.01438,6.023438 0.0041,2.478547 0.0071,5.381098 0.0092,8.51229 0.0024,3.131191 0.0034,6.489091 0.0034,9.846562 -0.07192,0 -0.144054,0 -0.215974,0 -0.0064,-3.554338 -0.01181,-7.105455 -0.01352,-10.385638 -0.0021,-3.280184 -0.0011,-6.286858 0.0036,-8.794173 0.0045,-2.507314 0.01267,-4.513123 0.02297,-5.86779 0.01052,-1.354882 0.02319,-2.057334 0.03585,-2.056046 z"
     inkscape:connector-curvature="0" /></g>
</svg>