<?xml version="1.0" encoding="UTF-8" standalone="no"?>
<!-- Generator: Adobe Illustrator 23.0.2, SVG Export Plug-In . SVG Version: 6.00 Build 0)  -->

<svg
   xmlns:dc="http://purl.org/dc/elements/1.1/"
   xmlns:cc="http://creativecommons.org/ns#"
   xmlns:rdf="http://www.w3.org/1999/02/22-rdf-syntax-ns#"
   xmlns:svg="http://www.w3.org/2000/svg"
   xmlns="http://www.w3.org/2000/svg"
   xmlns:sodipodi="http://sodipodi.sourceforge.net/DTD/sodipodi-0.dtd"
   xmlns:inkscape="http://www.inkscape.org/namespaces/inkscape"
   version="1.1"
   id="Layer_1"
   x="0px"
   y="0px"
   viewBox="0 0 64 64.000001"
   xml:space="preserve"
   sodipodi:docname="advocately-icon.svg"
   width="64"
   height="64"
   inkscape:version="0.92.2 5c3e80d, 2017-08-06"><metadata
     id="metadata15"><rdf:RDF><cc:Work
         rdf:about=""><dc:format>image/svg+xml</dc:format><dc:type
           rdf:resource="http://purl.org/dc/dcmitype/StillImage" /><dc:title></dc:title></cc:Work></rdf:RDF></metadata><defs
     id="defs13" /><sodipodi:namedview
     pagecolor="#ffffff"
     bordercolor="#666666"
     borderopacity="1"
     objecttolerance="10"
     gridtolerance="10"
     guidetolerance="10"
     inkscape:pageopacity="0"
     inkscape:pageshadow="2"
     inkscape:window-width="1440"
     inkscape:window-height="799"
     id="namedview11"
     showgrid="false"
     inkscape:zoom="4.5694858"
     inkscape:cx="33.246924"
     inkscape:cy="60.049999"
     inkscape:window-x="0"
     inkscape:window-y="1"
     inkscape:window-maximized="1"
     inkscape:current-layer="Layer_1" /><style
     type="text/css"
     id="style2">
	.st0{fill:#60C575;}
</style><path
     d="M 8.426868,-2e-6 H 55.573132 C 60.213059,-2e-6 64,3.768238 64,8.426528 v 47.149091 c 0,4.640059 -3.767941,8.424383 -8.426868,8.424383 H 8.426868 C 3.786941,63.997902 0,60.233909 0,55.574547 V 8.404008 C 0,3.767168 3.764941,-2e-6 8.426868,-2e-6"
     id="path2"
     inkscape:connector-curvature="0"
     style="fill:#60c575;stroke-width:1.03553534;fill-opacity:1" /><g
     id="g8"
     transform="matrix(0.60944313,0,0,0.60944313,-86.085688,-88.271257)"
     style="fill:#ffffff"><path
       class="st0"
       d="m 206.05289,158.82072 c -7.8,-0.4 -16,8.8 -24.3,27.1 -2.7,5.9 -5.1,12.3 -7.1,18 -8.9,1.7 -14.7,3.2 -15,3.3 -1.9,0.4 -3,2.4 -2.6,4.3 0.4,1.6 1.9,2.6 3.4,2.6 0.3,0 0.6,-0.1 0.9,-0.1 0.1,0 4.2,-1.1 10.7,-2.4 -2.4,7.5 -3.8,12.8 -3.9,13.3 -0.5,1.9 0.6,3.8 2.5,4.3 0.3,0.1 0.6,0.1 0.9,0.1 1.5,0 3,-1 3.4,-2.6 0,-0.1 1.9,-7.3 5,-16.6 1.5,-0.3 3.1,-0.6 4.8,-0.8 11,-1.9 19.4,-2.7 23.8,-3.1 -1.1,8.5 -2.3,15.7 -2.3,15.8 -0.3,1.9 1,3.7 2.9,4 1.9,0.3 3.7,-1 4,-2.9 0,-0.1 2.1,-13.5 3.5,-25.2 1.5,-12.3 1.2,-28.9 -4.5,-35.7 -1.5,-2.2 -3.6,-3.3 -6.1,-3.4 z m -22.3,43.5 -1,0.2 c 1.7,-4.5 3.5,-9.2 5.5,-13.7 7.8,-17.3 14.3,-23.2 17.4,-23 0.2,0 0.6,0.1 1.3,0.8 3.3,3.9 4.5,16.9 2.9,30.3 -0.1,0.7 -0.2,1.4 -0.3,2 -4,0.4 -13.1,1.3 -25.8,3.4 z"
       id="path6"
       inkscape:connector-curvature="0"
       style="fill:#ffffff"
       sodipodi:nodetypes="cccccsscccscccccscccccccccccc" /></g></svg>