<?xml version="1.0" encoding="UTF-8" standalone="no"?>
<!-- Generator: Adobe Illustrator 21.1.0, SVG Export Plug-In . SVG Version: 6.00 Build 0)  -->

<svg
   xmlns:dc="http://purl.org/dc/elements/1.1/"
   xmlns:cc="http://creativecommons.org/ns#"
   xmlns:rdf="http://www.w3.org/1999/02/22-rdf-syntax-ns#"
   xmlns:svg="http://www.w3.org/2000/svg"
   xmlns="http://www.w3.org/2000/svg"
   xmlns:sodipodi="http://sodipodi.sourceforge.net/DTD/sodipodi-0.dtd"
   xmlns:inkscape="http://www.inkscape.org/namespaces/inkscape"
   version="1.1"
   id="Layer_1"
   x="0px"
   y="0px"
   viewBox="3.54 3.96 63.999995 64.000003"
   xml:space="preserve"
   sodipodi:docname="amazon-kinesis-icon.svg"
   width="64"
   height="64"
   inkscape:version="0.92.3 (2405546, 2018-03-11)"><metadata
   id="metadata67"><rdf:RDF><cc:Work
       rdf:about=""><dc:format>image/svg+xml</dc:format><dc:type
         rdf:resource="http://purl.org/dc/dcmitype/StillImage" /><dc:title></dc:title></cc:Work></rdf:RDF></metadata><defs
   id="defs65" /><sodipodi:namedview
   pagecolor="#ffffff"
   bordercolor="#666666"
   borderopacity="1"
   objecttolerance="10"
   gridtolerance="10"
   guidetolerance="10"
   inkscape:pageopacity="0"
   inkscape:pageshadow="2"
   inkscape:window-width="1920"
   inkscape:window-height="1001"
   id="namedview63"
   showgrid="false"
   inkscape:zoom="7.2039076"
   inkscape:cx="63.598061"
   inkscape:cy="28.339678"
   inkscape:window-x="-9"
   inkscape:window-y="-9"
   inkscape:window-maximized="1"
   inkscape:current-layer="Layer_1" />
<style
   type="text/css"
   id="style2">
	.st0{fill:#FCBF91;}
	.st1{fill:#9D5125;}
	.st2{fill:#F58532;}
	.st3{fill:#F58534;}
</style>

<g
   id="g32"
   transform="matrix(0.32388664,0,0,0.32388664,-10.662429,0.81829956)">
	<polygon
   class="st0"
   points="142.5,157.7 224.4,120 142.5,116.6 60.6,120 "
   id="polygon4"
   style="fill:#fcbf91" />
	<polygon
   class="st1"
   points="60.6,50.6 60.6,108.4 159.1,108.4 159.1,17.9 142.8,9.7 "
   id="polygon6"
   style="fill:#9d5125" />
	<polygon
   class="st0"
   points="142.8,207.3 224.7,149.2 142.6,137.2 60.6,149.2 "
   id="polygon8"
   style="fill:#fcbf91" />
	<polygon
   class="st1"
   points="142.8,50.7 142.8,108.4 186.1,108.4 186.1,46.8 173.4,41.7 "
   id="polygon10"
   style="fill:#9d5125" />
	<polygon
   class="st1"
   points="173.4,69.6 173.4,108.4 206.9,108.4 206.9,68.4 197.3,65.6 "
   id="polygon12"
   style="fill:#9d5125" />
	<polygon
   class="st1"
   points="197.3,62.4 197.3,108.4 224.4,108.4 224.7,62.2 216.5,58.9 "
   id="polygon14"
   style="fill:#9d5125" />
	<polygon
   class="st2"
   points="159.1,108.4 159.1,17.9 142.8,9.7 142.8,108.4 "
   id="polygon16"
   style="fill:#f58532" />
	<polygon
   class="st2"
   points="186.1,108.4 186.1,46.8 173.4,41.7 173.4,108.4 "
   id="polygon18"
   style="fill:#f58532" />
	<polygon
   class="st2"
   points="206.9,108.4 206.9,68.4 197.3,65.6 197.3,108.4 "
   id="polygon20"
   style="fill:#f58532" />
	<polygon
   class="st2"
   points="216.5,108.4 216.5,58.9 224.7,62.2 224.7,108.4 "
   id="polygon22"
   style="fill:#f58532" />
	<polygon
   class="st2"
   points="224.4,120 224.4,137.3 142.5,157.7 142.5,128.2 "
   id="polygon24"
   style="fill:#f58532" />
	<polygon
   class="st2"
   points="224.7,166.2 224.7,149.2 142.5,178.2 142.5,207.3 "
   id="polygon26"
   style="fill:#f58532" />
	<polygon
   class="st1"
   points="60.6,166.4 60.6,149.2 142.5,178 142.5,207.3 "
   id="polygon28"
   style="fill:#9d5125" />
	<polygon
   class="st1"
   points="60.6,137.3 60.6,120 142.5,128.2 142.5,157.7 "
   id="polygon30"
   style="fill:#9d5125" />
</g>
</svg>