<svg xmlns="http://www.w3.org/2000/svg" width="120" height="60" viewBox="-0.471 -0.305 120 60" fill="#036" fill-rule="evenodd"><path d="M37.388 19.4h2.865v16.953h-2.865zm-11.183 6.122c0-.4-.276-.62-.592-.62s-.598.212-.598.62v8.165c0 .407.283.62.598.62s.592-.222.592-.62V31h2.863v2.466c0 2-1.573 3.043-3.468 3.043-1.812 0-3.448-1-3.448-3.043V25.73c0-2.03 1.636-3.042 3.448-3.042 1.863 0 3.468 1.044 3.468 3.042v2.2h-2.863zm6.425.378c0-.407.282-.62.597-.62s.593.22.593.62v10.466h2.865V25.142c0-1.827-1.184-2.457-2.088-2.457-1 0-1.72.73-1.915 1.1h-.046V19.4H29.77v16.954h2.86V25.9zm12.375 7.543c0 .4-.277.62-.593.62s-.597-.213-.597-.62V22.846H40.95V34.1c0 1.492 1.03 2.422 2.133 2.422 1.12 0 1.726-.8 1.898-1.108h.065l.05.943h2.77v-13.5h-2.864v10.598zm6.427 2.913h-2.864v-13.5h2.837l.03.942h.057c.2-.415.892-1.102 1.924-1.102 1.07 0 1.757.824 1.904 1.3h.04c.214-.493.964-1.3 2.05-1.3 1.096 0 2.146.744 2.146 2.582v11.088H56.7v-10.6c0-.408-.28-.62-.596-.62a.58.58 0 0 0-.596.62v10.6H52.62V25.76a.58.58 0 0 0-.6-.621c-.317 0-.587.22-.587.62v10.595zM65 22.686c-.96-.001-1.648.8-1.83 1.107h-.06V19.4h-2.865v16.954h2.833l.032-.943h.06c.143.364.758 1.103 1.8 1.104 1.213.002 2.2-1.044 2.2-2.624v-8.75c0-1.52-1.028-2.457-2.18-2.457zm-.696 10.762c0 .4-.277.62-.595.62s-.598-.214-.598-.62v-7.683c0-.407.283-.62.598-.62a.58.58 0 0 1 .595.62zm6.446.246c0 .407.284.62.6.62s.592-.22.592-.62V31h2.863v2.464c0 2.037-1.677 3.046-3.467 3.046-1.814 0-3.455-1.008-3.455-3.046v-7.74c0-2.03 1.64-3.047 3.453-3.047 1.86 0 3.47 1.04 3.47 3.047V30.1H70.75v3.594zm1.2-5.654v-2.515c0-.4-.277-.62-.592-.62a.57.57 0 0 0-.6.62l.003 2.515zm7.035-2.898a.58.58 0 0 0-.599.621v10.593H75.5v-13.5h2.8l.055.94h.063c.27-.375.962-1.1 1.92-1.1 1.1 0 2.078.9 2.078 2.33v5.07H79.56v-4.412c0-.323-.3-.53-.598-.53zm14.62 8.552a.58.58 0 0 0 .599.62c.316 0 .592-.22.592-.62V31h2.864v2.464c0 2.037-1.68 3.046-3.468 3.046-1.814 0-3.453-1.008-3.453-3.046v-7.74c0-2.03 1.637-3.047 3.45-3.047 1.86 0 3.47 1.04 3.47 3.047V30.1h-4.055zm1.192-5.654v-2.515c0-.4-.276-.62-.592-.62a.57.57 0 0 0-.6.62l.003 2.515zm7.022-2.898c-.318 0-.6.212-.6.62v10.593h-2.868v-13.5h2.808l.057.94h.062c.27-.375.963-1.1 1.92-1.1 1.1 0 2.08.9 2.08 2.33v5.07h-2.87v-4.412c0-.323-.3-.53-.597-.53zM87.182 32.6c0 .4-.275.62-.592.62s-.598-.2-.598-.62v-6.834c0-.406.284-.617.598-.617s.592.218.592.617zm0 4.744c0 .4-.276.618-.592.618s-.598-.213-.598-.618V36.25h-2.86v.745c0 2.112 1.456 3.05 3.45 3.05 1.977 0 3.468-.94 3.468-3.05v-14.15h-2.823l-.043.947h-.07a2.26 2.26 0 0 0-1.9-1.107c-1.033 0-2.093.794-2.093 2.26v8.07c0 1.545.992 2.447 2.1 2.447a2.24 2.24 0 0 0 1.856-.992h.085v2.874zm-70.178-3.87c0 .408.284.62.6.62s.6-.22.6-.62v-1.602c0-1.278-.274-1.743-1.223-2.635l-1.74-1.646c-.67-.632-1.44-1.513-1.44-3.16V22.4c-.001-2.23 1.854-3.06 3.8-3.06s3.788.848 3.788 3.043V25h-3.193v-2.54c0-.4-.276-.62-.592-.62s-.598.213-.598.62v1.22c0 1.057.33 1.52 1.207 2.358l1.763 1.7c1.097 1.075 1.477 2.045 1.477 3.378v2.27c0 2.36-1.9 3.2-3.85 3.2-1.977 0-3.82-.83-3.82-3.076v-3.25h3.225z"/></svg>