<?xml version="1.0" encoding="UTF-8" standalone="no"?>
<svg
   xmlns:dc="http://purl.org/dc/elements/1.1/"
   xmlns:cc="http://creativecommons.org/ns#"
   xmlns:rdf="http://www.w3.org/1999/02/22-rdf-syntax-ns#"
   xmlns:svg="http://www.w3.org/2000/svg"
   xmlns="http://www.w3.org/2000/svg"
   xmlns:sodipodi="http://sodipodi.sourceforge.net/DTD/sodipodi-0.dtd"
   xmlns:inkscape="http://www.inkscape.org/namespaces/inkscape"
   viewBox="97.68 63.36 79.3 46.8"
   height="60"
   width="120"
   xml:space="preserve"
   id="svg2"
   version="1.1"
   sodipodi:docname="apprenda-ar21.svg"
   inkscape:version="0.92.3 (2405546, 2018-03-11)"><sodipodi:namedview
     pagecolor="#ffffff"
     bordercolor="#666666"
     borderopacity="1"
     objecttolerance="10"
     gridtolerance="10"
     guidetolerance="10"
     inkscape:pageopacity="0"
     inkscape:pageshadow="2"
     inkscape:window-width="1920"
     inkscape:window-height="1001"
     id="namedview59"
     showgrid="false"
     inkscape:zoom="6.5555555"
     inkscape:cx="81.049069"
     inkscape:cy="37.085736"
     inkscape:window-x="-9"
     inkscape:window-y="-9"
     inkscape:window-maximized="1"
     inkscape:current-layer="svg2" /><metadata
     id="metadata8"><rdf:RDF><cc:Work
         rdf:about=""><dc:format>image/svg+xml</dc:format><dc:type
           rdf:resource="http://purl.org/dc/dcmitype/StillImage" /><dc:title></dc:title></cc:Work></rdf:RDF></metadata><defs
     id="defs6"><clipPath
       id="clipPath18"
       clipPathUnits="userSpaceOnUse"><path
         id="path16"
         d="M 0,432 H 432 V 0 H 0 Z"
         inkscape:connector-curvature="0" /></clipPath><clipPath
       id="clipPath62"
       clipPathUnits="userSpaceOnUse"><path
         id="path60"
         d="m 181.472,265.113 34.527,-34.249 34.534,34.249 -34.534,71.545 z"
         inkscape:connector-curvature="0" /></clipPath><radialGradient
       id="radialGradient74"
       spreadMethod="pad"
       gradientTransform="matrix(-65.142693,0,0,65.142693,247.82208,264.47232)"
       gradientUnits="userSpaceOnUse"
       r="1"
       cy="0"
       cx="0"
       fy="0"
       fx="0"><stop
         id="stop68"
         offset="0"
         style="stop-opacity:1;stop-color:#0068ab" /><stop
         id="stop70"
         offset="0.26303688"
         style="stop-opacity:1;stop-color:#0068ab" /><stop
         id="stop72"
         offset="1"
         style="stop-opacity:1;stop-color:#133e67" /></radialGradient><clipPath
       id="clipPath84"
       clipPathUnits="userSpaceOnUse"><path
         id="path82"
         d="m 215.999,230.864 43.911,-43.559 h 28.513 l -37.89,77.808 z"
         inkscape:connector-curvature="0" /></clipPath><radialGradient
       id="radialGradient94"
       spreadMethod="pad"
       gradientTransform="matrix(-67.471374,0,0,67.471374,249.63017,265.50821)"
       gradientUnits="userSpaceOnUse"
       r="1"
       cy="0"
       cx="0"
       fy="0.165682"
       fx="0.30721101"><stop
         id="stop90"
         offset="0"
         style="stop-opacity:1;stop-color:#2688c8" /><stop
         id="stop92"
         offset="1"
         style="stop-opacity:1;stop-color:#0068ab" /></radialGradient><clipPath
       id="clipPath104"
       clipPathUnits="userSpaceOnUse"><path
         id="path102"
         d="m 143.574,187.305 h 28.514 l 43.911,43.559 -34.527,34.249 z"
         inkscape:connector-curvature="0" /></clipPath><linearGradient
       id="linearGradient114"
       spreadMethod="pad"
       gradientTransform="matrix(72.425194,0,0,-72.425194,143.57436,226.20895)"
       gradientUnits="userSpaceOnUse"
       y2="0"
       x2="1"
       y1="0"
       x1="0"><stop
         id="stop110"
         offset="0"
         style="stop-opacity:1;stop-color:#92c0dd" /><stop
         id="stop112"
         offset="1"
         style="stop-opacity:1;stop-color:#c4daeb" /></linearGradient></defs><g
     id="g1010"
     transform="translate(0.04837568)"><g
       transform="matrix(2.5005525,0,0,2.5005525,-136.71079,-164.01248)"
       id="g954"><g
         id="g20"
         transform="matrix(0.07859751,0,0,-0.07859751,106.5485,100.66696)"><path
           inkscape:connector-curvature="0"
           d="M 0,0 -4.356,9.588 H -4.483 L -8.757,0 Z m -18.817,-9.28 13.543,29.318 c 0.134,0.263 0.358,0.483 0.744,0.483 h 0.432 c 0.445,0 0.613,-0.22 0.748,-0.483 L 10.067,-9.28 c 0.266,-0.566 -0.085,-1.136 -0.74,-1.136 H 5.532 c -0.65,0 -0.953,0.265 -1.26,0.875 l -2.136,4.702 h -13.031 l -2.133,-4.702 c -0.168,-0.432 -0.562,-0.875 -1.261,-0.875 h -3.791 c -0.655,0 -1.002,0.57 -0.737,1.136"
           style="fill:#0068ab;fill-opacity:1;fill-rule:nonzero;stroke:none"
           id="path22" /></g><g
         id="g24"
         transform="matrix(0.07859751,0,0,-0.07859751,108.97324,100.19783)"><path
           inkscape:connector-curvature="0"
           d="M 0,0 C 2.441,0 4.492,1.958 4.492,4.534 4.492,6.925 2.441,8.755 0,8.755 H -5.053 V 0 Z m -10.713,13.289 c 0,0.433 0.347,0.831 0.82,0.831 H 0.346 c 5.366,0 9.765,-4.357 9.765,-9.636 0,-5.399 -4.399,-9.8 -9.721,-9.8 h -5.443 v -10.238 c 0,-0.439 -0.388,-0.831 -0.831,-0.831 h -4.009 c -0.473,0 -0.82,0.392 -0.82,0.831 z"
           style="fill:#0068ab;fill-opacity:1;fill-rule:nonzero;stroke:none"
           id="path26" /></g><g
         id="g28"
         transform="matrix(0.07859751,0,0,-0.07859751,111.45577,100.19783)"><path
           inkscape:connector-curvature="0"
           d="M 0,0 C 2.443,0 4.494,1.958 4.494,4.534 4.494,6.925 2.443,8.755 0,8.755 H -5.047 V 0 Z m -10.713,13.289 c 0,0.433 0.349,0.831 0.826,0.831 H 0.352 c 5.362,0 9.759,-4.357 9.759,-9.636 0,-5.399 -4.397,-9.8 -9.719,-9.8 h -5.439 v -10.238 c 0,-0.439 -0.394,-0.831 -0.833,-0.831 h -4.007 c -0.477,0 -0.826,0.392 -0.826,0.831 z"
           style="fill:#0068ab;fill-opacity:1;fill-rule:nonzero;stroke:none"
           id="path30" /></g><g
         id="g32"
         transform="matrix(0.07859751,0,0,-0.07859751,114.16272,100.18068)"><path
           inkscape:connector-curvature="0"
           d="M 0,0 C 2.309,0 4.318,2 4.318,4.443 4.318,6.757 2.309,8.672 0,8.672 H -7.098 V 0 Z m -12.806,13.071 c 0,0.433 0.349,0.831 0.826,0.831 H 0.479 c 5.229,0 9.499,-4.187 9.499,-9.374 0,-4.009 -2.653,-7.272 -6.448,-8.797 L 9.503,-15.34 c 0.303,-0.566 0,-1.263 -0.746,-1.263 H 4.181 c -0.39,0 -0.611,0.22 -0.695,0.392 l -5.795,11.552 h -4.832 v -11.113 c 0,-0.439 -0.394,-0.831 -0.832,-0.831 h -4.007 c -0.477,0 -0.826,0.392 -0.826,0.831 z"
           style="fill:#0068ab;fill-opacity:1;fill-rule:nonzero;stroke:none"
           id="path34" /></g><g
         id="g36"
         transform="matrix(0.07859751,0,0,-0.07859751,115.95206,99.153329)"><path
           inkscape:connector-curvature="0"
           d="m 0,0 c 0,0.432 0.346,0.831 0.83,0.831 h 17.731 c 0.485,0 0.828,-0.399 0.828,-0.831 v -3.576 c 0,-0.433 -0.343,-0.823 -0.828,-0.823 H 5.66 v -7.145 h 10.767 c 0.433,0 0.829,-0.398 0.829,-0.83 v -3.619 c 0,-0.477 -0.396,-0.822 -0.829,-0.822 H 5.66 v -7.628 h 12.901 c 0.485,0 0.828,-0.392 0.828,-0.83 v -3.571 c 0,-0.438 -0.343,-0.83 -0.828,-0.83 H 0.83 c -0.484,0 -0.83,0.392 -0.83,0.83 z"
           style="fill:#0068ab;fill-opacity:1;fill-rule:nonzero;stroke:none"
           id="path38" /></g><g
         id="g40"
         transform="matrix(0.07859751,0,0,-0.07859751,118.48065,99.11601)"><path
           inkscape:connector-curvature="0"
           d="M 0,0 C 0,0.441 0.388,0.788 0.828,0.788 H 1.909 L 20.042,-18.47 h 0.044 v 17.995 c 0,0.433 0.344,0.831 0.825,0.831 h 4.005 c 0.44,0 0.828,-0.398 0.828,-0.831 v -29.326 c 0,-0.433 -0.388,-0.78 -0.828,-0.78 H 23.873 L 5.656,-10.586 H 5.619 v -18.732 c 0,-0.439 -0.351,-0.831 -0.828,-0.831 H 0.828 c -0.44,0 -0.828,0.392 -0.828,0.831 z"
           style="fill:#0068ab;fill-opacity:1;fill-rule:nonzero;stroke:none"
           id="path42" /></g><g
         id="g44"
         transform="matrix(0.07859751,0,0,-0.07859751,122.47475,101.06779)"><path
           inkscape:connector-curvature="0"
           d="M 0,0 C 5.67,0 9.808,4.271 9.808,9.976 9.808,15.643 5.67,19.917 0,19.917 H -4.967 V 0 Z m -10.584,24.358 c 0,0.432 0.344,0.83 0.784,0.83 H 0.525 c 8.406,0 15.292,-6.847 15.292,-15.212 0,-8.453 -6.886,-15.292 -15.292,-15.292 H -9.8 c -0.44,0 -0.784,0.392 -0.784,0.83 z"
           style="fill:#0068ab;fill-opacity:1;fill-rule:nonzero;stroke:none"
           id="path46" /></g><g
         id="g48"
         transform="matrix(0.07859751,0,0,-0.07859751,125.83267,100.66696)"><path
           inkscape:connector-curvature="0"
           d="m 0,0 -4.364,9.588 h -0.13 L -8.761,0 Z m -18.824,-9.28 13.542,29.318 c 0.138,0.263 0.356,0.483 0.748,0.483 h 0.432 c 0.441,0 0.61,-0.22 0.744,-0.483 L 10.058,-9.28 c 0.263,-0.566 -0.084,-1.136 -0.735,-1.136 H 5.524 c -0.654,0 -0.958,0.265 -1.261,0.875 l -2.137,4.702 h -13.025 l -2.138,-4.702 c -0.169,-0.432 -0.557,-0.875 -1.261,-0.875 h -3.79 c -0.651,0 -1.002,0.57 -0.736,1.136"
           style="fill:#0068ab;fill-opacity:1;fill-rule:nonzero;stroke:none"
           id="path50" /></g></g><g
       transform="matrix(1.4088667,0,0,1.4088667,-54.783127,-33.857933)"
       id="g973"><g
         id="g52"
         transform="matrix(0.07859751,0,0,-0.07859751,111.4923,95.172868)"><path
           inkscape:connector-curvature="0"
           d="M 0,0 -69.229,86.82 -44.511,195.051 55.529,243.25 155.586,195.051 180.281,86.82 111.05,0 Z"
           style="fill:#e6eef5;fill-opacity:1;fill-rule:nonzero;stroke:none"
           id="path54" /></g><g
         id="g56"
         transform="matrix(0.07859751,0,0,-0.07859751,98.86926,105.76389)"><g
           id="g58"
           clip-path="url(#clipPath62)"><g
             id="g64"><g
               id="g66"><path
                 inkscape:connector-curvature="0"
                 d="m 181.472,265.113 34.527,-34.249 34.534,34.249 -34.534,71.545 z"
                 style="fill:url(#radialGradient74);stroke:none"
                 id="path76" /></g></g></g></g><g
         id="g78"
         transform="matrix(0.07859751,0,0,-0.07859751,98.86926,105.76389)"><g
           id="g80"
           clip-path="url(#clipPath84)"><g
             id="g86"><g
               id="g88"><path
                 inkscape:connector-curvature="0"
                 d="m 215.999,230.864 43.911,-43.559 h 28.513 l -37.89,77.808 z"
                 style="fill:url(#radialGradient94);stroke:none"
                 id="path96" /></g></g></g></g><g
         id="g98"
         transform="matrix(0.07859751,0,0,-0.07859751,98.86926,105.76389)"><g
           id="g100"
           clip-path="url(#clipPath104)"><g
             id="g106"><g
               id="g108"><path
                 inkscape:connector-curvature="0"
                 d="m 143.574,187.305 h 28.514 l 43.911,43.559 -34.527,34.249 z"
                 style="fill:url(#linearGradient114);stroke:none"
                 id="path116" /></g></g></g></g></g></g></svg>