<?xml version="1.0" encoding="utf-8"?>
<!-- Generator: Adobe Illustrator 24.0.0, SVG Export Plug-In . SVG Version: 6.00 Build 0)  -->
<svg version="1.1" id="Layer_1" xmlns="http://www.w3.org/2000/svg" xmlns:xlink="http://www.w3.org/1999/xlink" x="0px" y="0px"
	 viewBox="0 0 120 60" width="120px" height="60px" style="enable-background:new 0 0 120 60;" xml:space="preserve">
<style type="text/css">
	.st0{fill:#003DA6;}
	.st1{fill:#48D597;}
</style>
<g>
	<g>
		<path class="st0" d="M51.9,22.6h1.7L57.8,34h-1.5l-1-2.8h-5.2l-1,2.8h-1.5L51.9,22.6z M50.5,30.1h4.4L52.7,24h0L50.5,30.1z"/>
		<path class="st0" d="M62.6,25.4c1,0,2,0.3,2.8,0.9l-0.7,0.9c-0.6-0.5-1.3-0.7-2-0.7c-1.6,0-2.7,1.2-2.7,3.2c0,2.1,1.1,3.4,2.7,3.4
			c0.8,0,1.5-0.3,2.1-0.8l0.8,0.8c-0.8,0.8-1.8,1.2-2.9,1.1c-2.4,0-4-1.7-4-4.5C58.5,27,60.2,25.4,62.6,25.4z"/>
		<path class="st0" d="M70.3,25.4c1,0,2,0.3,2.8,0.9l-0.7,0.9c-0.6-0.5-1.3-0.7-2-0.7c-1.6,0-2.7,1.2-2.7,3.2c0,2.1,1.1,3.4,2.7,3.4
			c0.8,0,1.5-0.3,2.1-0.8l0.8,0.8c-0.8,0.8-1.8,1.2-2.9,1.1c-2.4,0-4-1.7-4-4.5C66.3,27,68,25.4,70.3,25.4z"/>
		<path class="st0" d="M78,25.4c2.3,0,4.1,1.7,4.1,4.3c0,2.8-1.6,4.5-4.1,4.5S74,32.4,74,29.7C74,27,75.7,25.4,78,25.4z M78,33.1
			c1.6,0,2.7-1.4,2.7-3.5c0-1.9-1.1-3.2-2.7-3.2s-2.7,1.3-2.7,3.2C75.3,31.8,76.4,33.1,78,33.1z"/>
		<path class="st0" d="M83.8,21.7h1.4V34h-1.4C83.8,34,83.8,21.7,83.8,21.7z"/>
		<path class="st0" d="M92.1,29.2v-1.3c0-0.8-0.5-1.4-1.6-1.4c-0.9,0.1-1.8,0.3-2.7,0.8l-0.5-1.1c1-0.5,2.1-0.8,3.2-0.8
			c2.1,0,3,1.1,3,2.6v4.2c-0.1,0.4,0.2,0.8,0.7,0.9c0.1,0,0.1,0,0.2,0v1c-1.2,0-1.7-0.3-2-1.1c-0.7,0.8-1.7,1.3-2.8,1.3
			c-1.5,0-2.5-0.9-2.5-2.1C87,29.9,89.5,29.3,92.1,29.2z M89.8,33.2c0.9,0,1.7-0.4,2.3-1.1V30c-1.7,0.1-3.7,0.4-3.7,1.9
			C88.3,32.7,88.9,33.2,89.8,33.2L89.8,33.2z"/>
		<path class="st0" d="M95.3,29.6c0-2.7,1.4-4.3,3.4-4.3c1,0,2,0.5,2.7,1.3v-5h1.4V34h-1.2l-0.1-1.1c-0.7,0.8-1.7,1.3-2.8,1.3
			C96.6,34.2,95.3,32.5,95.3,29.6z M101.4,31.9v-4.2c-0.6-0.8-1.5-1.2-2.4-1.3c-1.5,0-2.4,1.2-2.4,3.2c0,2.1,0.8,3.5,2.4,3.5
			C100,33.1,100.9,32.6,101.4,31.9L101.4,31.9z"/>
		<path class="st0" d="M108.4,25.3c2.4,0,3.5,1.6,3.5,3.8c0,0.2,0,0.5-0.1,0.7h-6.1c0,2.1,1,3.3,2.8,3.3c0.9,0,1.7-0.3,2.5-0.8
			l0.6,0.9c-0.9,0.7-2,1-3.2,1c-2.6,0-4.1-1.7-4.1-4.5C104.4,27,106.1,25.3,108.4,25.3z M105.8,28.9h4.8c0-1.4-0.6-2.5-2.1-2.5
			C107.1,26.4,106.1,27.3,105.8,28.9L105.8,28.9z"/>
	</g>
	<path class="st1" d="M25.4,10.7c0,0-0.6,1.2-4.7,8.6c-2.7,4.9-2.3,8.9,0.8,13.2c3.4,4.7,3.5,5,3.5,5h-6.4c-9.3,0-10.5,7.8-10.5,7.8
		h12.2l4.7-7.8h16.5L25.4,10.7z"/>
</g>
</svg>
