<svg xmlns="http://www.w3.org/2000/svg" width="64" height="64"><path d="M44.004 37.977l.032-.624.008-.3a11.99 11.99 0 0 0-1.028-4.865l-.2-.45-.222-.433a12.15 12.15 0 0 0-4.589-4.701l-.433-.24-.443-.222c-1.48-.7-3.124-1.105-4.857-1.145l-.28-.007-.345.01-.62.033c-1.9.15-3.68.742-5.232 1.676l-.427.27-.42.3a12.17 12.17 0 0 0-2.174 2.013l-.312.387-.293.394c-1.41 1.974-2.24 4.386-2.24 6.99a12.08 12.08 0 0 0 .172 2.017l.11.562.148.602c.3 1.1.752 2.138 1.334 3.09l.273.426.293.415.718.89.425.455.4.397c2.152 1.99 5.026 3.21 8.18 3.21 3.04 0 5.818-1.132 7.94-2.994l.36-.33.355-.35c1.766-1.822 2.962-4.196 3.302-6.836l.064-.617m-23.04 6.03l-.27-.444c-.663-1.143-1.157-2.394-1.45-3.72a4.71 4.71 0 0 0-.96-.099l-.103.005c-.165.003-.327.016-.488.036a4.79 4.79 0 0 0-.484.087 4.73 4.73 0 0 0-3.158 2.519 4.7 4.7 0 0 0-.195.456 4.75 4.75 0 0 0-.146.476 4.7 4.7 0 0 0-.145 1.14c0 .907.262 1.752.707 2.472a4.68 4.68 0 0 0 .282.408l.315.368a4.7 4.7 0 0 0 3.414 1.471c2 0 3.707-1.252 4.394-3.01-.524-.533-1-1.11-1.428-1.728l-.287-.434M57.56 39.57l-.034-.51-.06-.5a9.37 9.37 0 0 0-8.911-7.957l-.34-.01-.15.004a9.09 9.09 0 0 0-.489.021c-1.334.1-2.59.46-3.715 1.054a12.94 12.94 0 0 1 1.148 4.853l.013.516-.004.15a13.49 13.49 0 0 1-.024.656c-.2 3.244-1.588 6.17-3.737 8.348 1.713 1.907 4.197 3.11 6.957 3.11 2.383 0 4.56-.897 6.213-2.37a9.57 9.57 0 0 0 .367-.344 9.2 9.2 0 0 0 .351-.366c1.505-1.66 2.424-3.863 2.424-6.276l-.01-.38m1.722-.33a4.76 4.76 0 0 0-.756.066l.022.644c0 2.745-1.078 5.24-2.83 7.092.866 1 2.14 1.635 3.564 1.635 2.602 0 4.72-2.117 4.72-4.72s-2.117-4.72-4.72-4.72M20.47 24.67l.1.515a8.59 8.59 0 0 0 .338 1.141l.2.483a8.29 8.29 0 0 0 .222.46 8.63 8.63 0 0 0 .794 1.254 13.16 13.16 0 0 1 2.007-1.882 13.4 13.4 0 0 1 .422-.304 13.1 13.1 0 0 1 .432-.287c1.98-1.264 4.318-2.008 6.828-2.04l.17-.004.487.012a13.24 13.24 0 0 1 .665.042 12.93 12.93 0 0 1 4.255 1.125 8.6 8.6 0 0 0 .207-1.871 8.65 8.65 0 0 0-.116-1.403 8.92 8.92 0 0 0-.094-.48l-.12-.474c-1.028-3.608-4.352-6.258-8.286-6.258-3.246 0-6.077 1.804-7.546 4.462a8.75 8.75 0 0 0-.233.452c-.076.16-.146.322-.212.486a8.57 8.57 0 0 0-.625 3.216c0 .288.015.573.042.853a9.03 9.03 0 0 0 .066.505m22.956 6.13a10.25 10.25 0 0 1 4.12-1.156 8.63 8.63 0 0 0-8.582-7.865c-.172 0-.343.006-.512.016.08.495.12 1 .12 1.517a9.57 9.57 0 0 1-.286 2.323c2.162 1.2 3.95 2.995 5.14 5.165m-30.2 11.033c.774-1.48 2.178-2.58 3.855-2.94.158-.034.32-.06.483-.08s.324-.034.49-.04l.225-.006c.264 0 .524.02.78.054a13.06 13.06 0 0 1-.124-1.776 12.97 12.97 0 0 1 2.553-7.74c-.363-.452-.687-.937-.965-1.45-.078-.144-.152-.29-.222-.44a9.23 9.23 0 0 1-.2-.452c-.25-.606-.44-1.244-.56-1.904-.218-.015-.436-.026-.657-.026a9.3 9.3 0 0 0-4.473 1.141 9.53 9.53 0 0 0-.433.253c-.14.087-.277.178-.412.27-1.517 1.053-2.708 2.54-3.392 4.284a9.41 9.41 0 0 0-.169.466 9.15 9.15 0 0 0-.144.475 9.33 9.33 0 0 0-.332 2.466c0 3.036 1.454 5.737 3.702 7.447m-.386.93c-2.598-1.878-4.293-4.932-4.293-8.377 0-.88.11-1.735.32-2.55l-.26-.007A8.63 8.63 0 0 0 0 40.444a8.63 8.63 0 0 0 8.617 8.617c1.81 0 3.492-.563 4.88-1.52a5.66 5.66 0 0 1-.907-3.078c0-.592.09-1.163.26-1.7m.988-17.386a4.45 4.45 0 0 1-.588-2.21 4.49 4.49 0 0 1 4.482-4.482c.914 0 1.765.277 2.474.748-.527 1.187-.822 2.5-.822 3.88 0 .254.013.505.032.755a10.5 10.5 0 0 0-.528-.013c-1.834 0-3.557.483-5.05 1.324" fill="#1d2d44" fill-rule="evenodd"/></svg>