<?xml version="1.0" encoding="UTF-8" standalone="no"?>
<!-- Generator: Adobe Illustrator 18.0.0, SVG Export Plug-In . SVG Version: 6.00 Build 0)  -->

<svg
   xmlns:dc="http://purl.org/dc/elements/1.1/"
   xmlns:cc="http://creativecommons.org/ns#"
   xmlns:rdf="http://www.w3.org/1999/02/22-rdf-syntax-ns#"
   xmlns:svg="http://www.w3.org/2000/svg"
   xmlns="http://www.w3.org/2000/svg"
   xmlns:sodipodi="http://sodipodi.sourceforge.net/DTD/sodipodi-0.dtd"
   xmlns:inkscape="http://www.inkscape.org/namespaces/inkscape"
   version="1.1"
   id="Layer_1"
   x="0px"
   y="0px"
   viewBox="0 0 64 64.000001"
   enable-background="new 0 0 245.6 68.6"
   xml:space="preserve"
   sodipodi:docname="trayio-icon.svg"
   width="64"
   height="64"
   inkscape:version="0.92.3 (2405546, 2018-03-11)"><metadata
   id="metadata63"><rdf:RDF><cc:Work
       rdf:about=""><dc:format>image/svg+xml</dc:format><dc:type
         rdf:resource="http://purl.org/dc/dcmitype/StillImage" /><dc:title></dc:title></cc:Work></rdf:RDF></metadata><defs
   id="defs61">
	
	

		
		
		
		
		
	
		
		
		
		
		
		
		
	</defs><sodipodi:namedview
   pagecolor="#ffffff"
   bordercolor="#666666"
   borderopacity="1"
   objecttolerance="10"
   gridtolerance="10"
   guidetolerance="10"
   inkscape:pageopacity="0"
   inkscape:pageshadow="2"
   inkscape:window-width="1920"
   inkscape:window-height="1001"
   id="namedview59"
   showgrid="false"
   inkscape:zoom="5.5211725"
   inkscape:cx="40.042378"
   inkscape:cy="23.429505"
   inkscape:window-x="-9"
   inkscape:window-y="-9"
   inkscape:window-maximized="1"
   inkscape:current-layer="Layer_1" />
<g
   id="g940"
   transform="matrix(2.2363433,0,0,2.2363433,22.114159,-29.667107)"><g
     transform="matrix(0.48587685,0,0,0.48587685,-7.9693215,13.2659)"
     id="g24">
			<polygon
   style="fill:#d2b53c"
   id="polygon18"
   points="8.5,9.8 0,14.7 0,24.5 8.5,29.4 17,24.5 17,14.7 " />
			<g
   id="g22">
				<polygon
   style="fill:#f1de44"
   id="polygon20"
   points="8.5,19.6 8.5,29.4 17,24.5 17,14.7 " />
			</g>
		</g><g
     transform="matrix(0.48587685,0,0,0.48587685,-7.9693215,13.2659)"
     id="g32">
			<polygon
   style="fill:#4fa7b8"
   id="polygon26"
   points="25.5,19.6 25.5,29.4 34,34.3 51,24.5 51,14.7 42.5,9.8 " />
			<g
   id="g30">
				<polygon
   style="fill:#65cceb"
   id="polygon28"
   points="34,24.5 34,34.3 51,24.5 51,14.7 " />
			</g>
		</g><g
     transform="matrix(0.48587685,0,0,0.48587685,-7.9693215,13.2659)"
     id="g38">
			<polygon
   style="fill:#d58040"
   id="polygon34"
   points="25.5,29.4 25.5,39.2 42.5,49.1 51,44.2 51,34.3 34,24.5 " />
			<polygon
   style="fill:#f99f47"
   id="polygon36"
   points="42.5,39.2 42.5,49.1 51,44.2 51,34.3 " />
		</g><g
     transform="matrix(0.48587685,0,0,0.48587685,-7.9693215,13.2659)"
     id="g46">
			<polyline
   style="fill:#bb4488"
   id="polyline40"
   points="34,4.9 25.5,0 17,4.9 17,29.4 25.5,34.3 34,29.4 34,4.9    " />
			<g
   id="g44">
				<polygon
   style="fill:#e05292"
   id="polygon42"
   points="34,4.9 25.5,9.8 25.5,34.3 34,29.4 " />
			</g>
		</g><g
     transform="matrix(0.48587685,0,0,0.48587685,-7.9693215,13.2659)"
     id="g52">
			<polyline
   style="fill:#61a04b"
   id="polyline48"
   points="17,44.2 17,54 25.5,58.9 25.5,58.9 34,54 34,24.5 25.5,19.6 0,34.3 0,44.2 8.5,49.1 8.5,49.1      8.5,49.1 8.5,49.1    " />
			<polygon
   style="fill:#77c262"
   id="polygon50"
   points="8.5,39.2 8.5,49.1 25.5,39.2 25.5,58.9 34,54 34,24.5 " />
		</g></g>
</svg>