<svg xmlns="http://www.w3.org/2000/svg" width="64" height="64"><g transform="matrix(1.931376 0 0 1.931376 -7.926365 -25.942236)"><circle r="16.569" cy="30.001" cx="20.673" opacity="1" fill="#ee8208"/><path d="M20.673 22.298a2.362 2.362 0 0 1 0 4.725 2.362 2.362 0 1 1 0-4.725zm0 8.058a5.7 5.7 0 0 0 5.695-5.695c0-3.14-2.556-5.695-5.695-5.695s-5.695 2.556-5.695 5.695 2.556 5.695 5.695 5.695m2.304 4.653a10.666 10.666 0 0 0 3.301-1.359 1.67 1.67 0 1 0-1.786-2.822 7.242 7.242 0 0 1-7.676 0 1.67 1.67 0 1 0-1.786 2.822c1.03.647 2.136 1.1 3.3 1.36l-3.17 3.19a1.67 1.67 0 0 0 2.362 2.362l3.132-3.14 3.132 3.132a1.67 1.67 0 1 0 2.362-2.362l-3.19-3.19" fill="#fff"/></g></svg>