<?xml version="1.0" encoding="UTF-8" standalone="no"?>
<!-- Generator: Adobe Illustrator 23.0.3, SVG Export Plug-In . SVG Version: 6.00 Build 0)  -->

<svg
   xmlns:dc="http://purl.org/dc/elements/1.1/"
   xmlns:cc="http://creativecommons.org/ns#"
   xmlns:rdf="http://www.w3.org/1999/02/22-rdf-syntax-ns#"
   xmlns:svg="http://www.w3.org/2000/svg"
   xmlns="http://www.w3.org/2000/svg"
   xmlns:sodipodi="http://sodipodi.sourceforge.net/DTD/sodipodi-0.dtd"
   xmlns:inkscape="http://www.inkscape.org/namespaces/inkscape"
   version="1.1"
   id="svg2"
   x="0px"
   y="0px"
   viewBox="0 0 64 64"
   style="enable-background:new 0 0 64 64;"
   xml:space="preserve"
   sodipodi:docname="cognitect-icon.svg"
   inkscape:version="0.92.2 5c3e80d, 2017-08-06"><metadata
     id="metadata11"><rdf:RDF><cc:Work
         rdf:about=""><dc:format>image/svg+xml</dc:format><dc:type
           rdf:resource="http://purl.org/dc/dcmitype/StillImage" /></cc:Work></rdf:RDF></metadata><defs
     id="defs9" /><sodipodi:namedview
     pagecolor="#ffffff"
     bordercolor="#666666"
     borderopacity="1"
     objecttolerance="10"
     gridtolerance="10"
     guidetolerance="10"
     inkscape:pageopacity="0"
     inkscape:pageshadow="2"
     inkscape:window-width="654"
     inkscape:window-height="480"
     id="namedview7"
     showgrid="false"
     inkscape:zoom="3.6875"
     inkscape:cx="32"
     inkscape:cy="32"
     inkscape:window-x="0"
     inkscape:window-y="0"
     inkscape:window-maximized="0"
     inkscape:current-layer="svg2" /><g
     id="g4"><path
       id="Cognitect_Icon"
       d="M46.36,38.35l-25.83,9.4V16.25l25.83,9.4V2.68c0-0.23-0.15-0.44-0.37-0.52l-5.83-2.12   C40-0.03,39.81,0,39.66,0.1c-0.15,0.1-0.24,0.27-0.24,0.46v15.18L14.33,6.6c-0.17-0.06-0.36-0.04-0.51,0.07   c-0.15,0.1-0.24,0.27-0.24,0.46v49.75c0,0.18,0.09,0.35,0.24,0.46c0.15,0.1,0.34,0.13,0.51,0.07l25.09-9.13v15.18   c0,0.18,0.09,0.35,0.24,0.46c0.09,0.07,0.21,0.1,0.32,0.1c0.06,0,0.13-0.01,0.19-0.03L46,61.84c0.22-0.08,0.37-0.29,0.37-0.52   L46.36,38.35L46.36,38.35z" /><g
       id="Cognitect_Logo_Guides" /></g></svg>