<?xml version="1.0" encoding="UTF-8" standalone="no"?>
<svg
   xmlns:dc="http://purl.org/dc/elements/1.1/"
   xmlns:cc="http://creativecommons.org/ns#"
   xmlns:rdf="http://www.w3.org/1999/02/22-rdf-syntax-ns#"
   xmlns:svg="http://www.w3.org/2000/svg"
   xmlns="http://www.w3.org/2000/svg"
   xmlns:sodipodi="http://sodipodi.sourceforge.net/DTD/sodipodi-0.dtd"
   xmlns:inkscape="http://www.inkscape.org/namespaces/inkscape"
   version="1.1"
   x="0px"
   y="0px"
   viewBox="0 0 120 60.000003"
   enable-background="new 0 0 363.17 102.177"
   xml:space="preserve"
   id="svg32"
   sodipodi:docname="docusign-ar21.svg"
   width="120"
   height="60"
   inkscape:version="0.92.3 (2405546, 2018-03-11)"><metadata
   id="metadata38"><rdf:RDF><cc:Work
       rdf:about=""><dc:format>image/svg+xml</dc:format><dc:type
         rdf:resource="http://purl.org/dc/dcmitype/StillImage" /><dc:title></dc:title></cc:Work></rdf:RDF></metadata><defs
   id="defs36" /><sodipodi:namedview
   pagecolor="#ffffff"
   bordercolor="#666666"
   borderopacity="1"
   objecttolerance="10"
   gridtolerance="10"
   guidetolerance="10"
   inkscape:pageopacity="0"
   inkscape:pageshadow="2"
   inkscape:window-width="1920"
   inkscape:window-height="1001"
   id="namedview34"
   showgrid="false"
   inkscape:zoom="2.8974359"
   inkscape:cx="58.5"
   inkscape:cy="16.459999"
   inkscape:window-x="-9"
   inkscape:window-y="-9"
   inkscape:window-maximized="1"
   inkscape:current-layer="svg32" />
    
    
    
    
    
    
    
    
    
    
    
    
    <g
   id="g873"
   transform="matrix(0.85470083,0,0,0.85470083,10,-7.2051288)"><path
     style="fill:#005cb9"
     inkscape:connector-curvature="0"
     id="path2"
     d="m 0,50.010002 h 6 c 5,0 9.43,-2.92 9.43,-8.34 0,-6.13 -4.52,-8.43 -9.93,-8.43 H 0 v 16.77 m 3.69,-13.36 h 2.19 c 3.12,0 5.76,1.54 5.76,4.84 0,3.81 -2.58,5.12 -6,5.12 H 3.69 Z"
     class="ltr-d ltr--brand" /><path
     style="fill:#005cb9"
     inkscape:connector-curvature="0"
     id="path4"
     d="m 16.28,44.250002 c 0,3.68 2.84,6 6.39,6 3.55,0 6.4,-2.37 6.4,-6 0,-3.63 -2.84,-6 -6.4,-6 -3.56,0 -6.39,2.37 -6.39,6 m 3.55,0 a 2.69,2.69 0 0 1 2.46,-2.91 h 0.38 a 2.69,2.69 0 0 1 2.84,2.91 2.7,2.7 0 0 1 -2.84,2.92 2.69,2.69 0 0 1 -2.84,-2.92"
     class="ltr-o ltr--brand" /><path
     style="fill:#005cb9"
     inkscape:connector-curvature="0"
     id="path6"
     d="m 40.57,39.760002 a 5.76,5.76 0 0 0 -4.1,-1.54 c -3.56,0 -6.39,2.37 -6.39,6 0,3.63 2.84,6 6.39,6 a 5.76,5.76 0 0 0 4.1,-1.54 l -2.35,-2.47 a 2.27,2.27 0 0 1 -1.73,0.88 2.69,2.69 0 0 1 -2.84,-2.92 2.69,2.69 0 0 1 2.84,-2.91 2.19,2.19 0 0 1 1.73,0.88 l 2.35,-2.46"
     class="ltr-c ltr--brand" /><path
     style="fill:#005cb9"
     inkscape:connector-curvature="0"
     id="path8"
     d="m 52.7,38.540002 h -3.56 v 5.73 c 0,1.5 -0.28,2.94 -2.13,2.94 -1.85,0 -1.84,-1.73 -1.84,-3 v -5.67 h -3.56 v 6.3 c 0,3.08 0.66,5.45 4.27,5.45 a 3.72,3.72 0 0 0 3.36,-1.85 v 0 1.56 h 3.46 v -11.53"
     class="ltr-u ltr--brand" /><rect
     id="rect10"
     height="1.16"
     width="5.6300001"
     y="49.020004"
     x="53.610001"
     class="dash-1" /><rect
     id="rect12"
     height="1.16"
     width="5.6300001"
     y="49.020004"
     x="61.860001"
     class="dash-2" /><rect
     id="rect14"
     height="1.16"
     width="5.6300001"
     y="49.020004"
     x="70.120003"
     class="dash-3" /><rect
     id="rect16"
     height="1.16"
     width="5.6300001"
     y="49.020004"
     x="78.370003"
     class="dash-4" /><rect
     id="rect18"
     height="1.16"
     width="5.6300001"
     y="49.020004"
     x="86.620003"
     class="dash-5" /><rect
     id="rect20"
     height="1.16"
     width="5.6300001"
     y="49.020004"
     x="94.870003"
     class="dash-6" /><rect
     id="rect22"
     height="1.16"
     width="5.6300001"
     y="49.020004"
     x="103.12"
     class="dash-7" /><rect
     id="rect24"
     height="1.16"
     width="5.6300001"
     y="49.020004"
     x="111.37"
     class="dash-8" /><path
     inkscape:connector-curvature="0"
     id="path26"
     d="m 85.07,47.300002 c -0.61,-0.61 5.56,-5.54 7.42,-5.29 -0.71,2.14 -6.81,5.9 -7.42,5.29 m 7.26,2.05 a 34.7,34.7 0 0 0 3.18,-7.66 c 0,-1.39 -1.26,-2.12 -2.62,-2.12 -4.47,0 -11.68,7.62 -13.2,7.62 -1.73,0 0.92,-3.65 0.92,-5.08 0,-0.95 -0.85,-1.93 -1.53,-1.93 -1.32,0 -5.49,4 -8.22,4.88 a 6.14,6.14 0 0 0 0.92,-2.74 c 0,-4.88 -13.83,-3 -13.83,-5.76 0,-2.46 8.65,-6.7 13.72,-6.7 0.71,0 5.38,0.31 5.38,1.93 0,0.61 -1,0.81 -1,1.42 0,0.61 0.51,0.71 1.12,0.71 a 1.65,1.65 0 0 0 1.52,-1.83 c 0,-4.14 -3.6,-5 -6.5,-5 -7.49,0 -16.36,6.5 -16.36,9.45 0,3.86 12.6,3.15 12.6,6.61 0,4.16 -13.51,7.92 -13.51,8.94 0,1.02 0.72,0.92 1.53,0.92 5.49,0 19.91,-9.15 21.13,-10.37 0.1,2.13 -0.8,4.16 -0.8,5.07 0,0.91 0.7,2.15 1.73,2.15 1.03,0 2.54,-1.53 4.78,-2.74 -0.1,0.71 0.51,1.83 1.32,1.83 1.73,0 7,-4.27 8,-5 a 12.05,12.05 0 0 1 -2.2,5 6.54,6.54 0 0 0 -1.73,-0.22 c -2.1,0 -7.9,6.14 -7.9,9 0,1.12 0.61,2.24 1.73,2.24 1.55,0 7.15,-4.61 9.22,-9.31 0.91,0.1 2.39,0.78 2.39,0.06 0,-0.72 -1,-1.2 -1.78,-1.4 m -9.34,8.22 c -0.36,0 -0.58,-0.16 -0.58,-1 0,-2.61 5.44,-6.31 7.33,-6.31 -1.1,2.47 -5.75,7.31 -6.75,7.31 m -1.76,-23 a 1.27,1.27 0 1 1 2.54,0 1.27,1.27 0 1 1 -2.54,0 m 17,9.85 c -0.71,0.92 -2.54,3 -2.54,3.86 0,0.86 0.41,1.32 1,1.32 1.52,0 6.5,-6 8.84,-6 1.73,0 -1.11,6.2 2.65,6.2 1.36,0 5.91,-3 5.91,-4.75 0,-0.31 -0.32,-0.84 -0.73,-0.84 -0.24,0 -3.35,3.76 -4.67,3.76 -1.12,0 0,-2.33 0,-3.86 0,-1.53 -0.25,-2.95 -1.83,-2.95 -2.13,0 -5.19,2.74 -5.89,3.15 a 2.71,2.71 0 0 0 0.41,-1.32 2.05,2.05 0 0 0 -1.83,-1.73 c -0.7,0 -4.46,1.93 -4.46,4.4 0,0.61 2.23,-1.55 3.14,-1.24"
     class="ltr-sign" /></g>
    
    <style
   id="style30">
    .ltr--brand {
        fill: #005cb9;
    }
    </style>
</svg>