<?xml version="1.0" encoding="UTF-8" standalone="no"?>
<!-- Generator: Adobe Illustrator 23.0.3, SVG Export Plug-In . SVG Version: 6.00 Build 0)  -->

<svg
   xmlns:dc="http://purl.org/dc/elements/1.1/"
   xmlns:cc="http://creativecommons.org/ns#"
   xmlns:rdf="http://www.w3.org/1999/02/22-rdf-syntax-ns#"
   xmlns:svg="http://www.w3.org/2000/svg"
   xmlns="http://www.w3.org/2000/svg"
   xmlns:sodipodi="http://sodipodi.sourceforge.net/DTD/sodipodi-0.dtd"
   xmlns:inkscape="http://www.inkscape.org/namespaces/inkscape"
   version="1.1"
   id="svg2"
   x="0px"
   y="0px"
   viewBox="0 0 64 64"
   style="enable-background:new 0 0 64 64;"
   xml:space="preserve"
   sodipodi:docname="containous-icon.svg"
   inkscape:version="0.92.2 5c3e80d, 2017-08-06"><metadata
     id="metadata16"><rdf:RDF><cc:Work
         rdf:about=""><dc:format>image/svg+xml</dc:format><dc:type
           rdf:resource="http://purl.org/dc/dcmitype/StillImage" /></cc:Work></rdf:RDF></metadata><defs
     id="defs14" /><sodipodi:namedview
     pagecolor="#ffffff"
     bordercolor="#666666"
     borderopacity="1"
     objecttolerance="10"
     gridtolerance="10"
     guidetolerance="10"
     inkscape:pageopacity="0"
     inkscape:pageshadow="2"
     inkscape:window-width="654"
     inkscape:window-height="480"
     id="namedview12"
     showgrid="false"
     inkscape:zoom="3.6875"
     inkscape:cx="32"
     inkscape:cy="32"
     inkscape:window-x="0"
     inkscape:window-y="0"
     inkscape:window-maximized="0"
     inkscape:current-layer="svg2" /><style
     type="text/css"
     id="style2">
	.st0{fill-rule:evenodd;clip-rule:evenodd;fill:url(#path-2_2_);}
</style><g
     id="Clip-11" /><linearGradient
     id="path-2_2_"
     gradientUnits="userSpaceOnUse"
     x1="0.1927"
     y1="64"
     x2="5.2261"
     y2="64"
     gradientTransform="matrix(11.3221 0 0 -11.3221 1.3242 756.6135)"><stop
       offset="0"
       style="stop-color:#03008B"
       id="stop5" /><stop
       offset="1"
       style="stop-color:#8A008B"
       id="stop7" /></linearGradient><path
     id="path-2_1_"
     class="st0"
     d="M29.28,16c0.67-1.14,1.97-1.7,3.21-1.51c0.15-0.02,0.31-0.03,0.46-0.03h14.13l4.83-8.25H25.35  L10.27,32l15.09,25.79h26.56l-4.82-8.24H32v-0.01c-1.08,0-2.13-0.56-2.71-1.55l-8.43-14.41c-0.56-0.93-0.61-2.13-0.02-3.14  C20.83,30.45,29.28,16,29.28,16z M20.71,62.25L3.95,33.59c-0.05-0.08-0.09-0.16-0.13-0.24l0,0l-0.02-0.06l0,0l-0.03-0.06l0,0  c-0.16-0.37-0.24-0.76-0.25-1.15v-0.02V32v-0.05v-0.02c0.01-0.39,0.09-0.78,0.25-1.15l0,0l0.03-0.06l0,0l0.02-0.06l0,0  c0.04-0.08,0.09-0.17,0.13-0.24L20.71,1.75C21.23,0.71,22.3,0,23.54,0h33.8c1.74,0,3.15,1.39,3.15,3.1c0,0.67-0.22,1.29-0.58,1.8  l-7.4,12.65l7.52,12.87c0.56,0.93,0.61,2.12,0.02,3.12l-7.55,12.91l7.4,12.65c0.37,0.51,0.58,1.13,0.58,1.8  c0,1.72-1.41,3.1-3.15,3.1h-33.8C22.3,64,21.23,63.29,20.71,62.25z M53.17,32.97H41.01l-6.07,10.37H47.1L53.17,32.97z M33.24,42.39  L39.32,32l-6.07-10.39L27.17,32L33.24,42.39z M41.01,31.03h12.15l-6.07-10.38H34.94L41.01,31.03z" /></svg>