<svg xmlns="http://www.w3.org/2000/svg" width="120" height="60" fill="#fe1f59"><path d="M60.552 31.753a.77.77 0 0 0-.611-.586.72.72 0 0 0-.683.219l-.425.658-1.1 1.858-1.036 1.697-.722 1.164-3.113-5.143a.88.88 0 0 0-.617-.453.75.75 0 0 0-.854.639q0 3.988 0 7.976a.63.63 0 0 0 .358.586c.24.143.536.143.775 0a.85.85 0 0 0 .397-.816q0-2.277 0-4.552v-.26l.067.086 2.3 3.785a.78.78 0 0 0 .688.43c.3.003.562-.154.7-.4q1.064-1.777 2.14-3.544c.064-.106.094-.253.24-.3.002.018.002.035 0 .053v4.902a.74.74 0 0 0 1.014.694.81.81 0 0 0 .519-.861q0-3.65 0-7.3a2.47 2.47 0 0 0-.019-.508zm11.608-6.765l1.194-1.944c.136.025.064.133.064.197v4.588a.71.71 0 0 0 0 .225.77.77 0 0 0 .675.653.82.82 0 0 0 .614-.236c.162-.16.25-.384.238-.613v-7.665c0-.525-.592-1.033-1.14-.705a1.4 1.4 0 0 0-.46.555l-1.003 1.666q-.633 1.047-1.272 2.094L70.33 25l-.07-.094-3.108-5.127a.78.78 0 0 0-.769-.378.7.7 0 0 0-.61.605.45.45 0 0 0 0 .164q0 3.888 0 7.754a.43.43 0 0 0 0 .16.8.8 0 0 0 .675.611.84.84 0 0 0 .61-.244.82.82 0 0 0 .244-.6v-4.9l.217.353 2.197 3.632c.147.207.385.33.64.33s.492-.123.64-.33q.575-.958 1.17-1.927zm20.16-4.902c-.055-.343-.324-.6-.667-.667-.08-.02-.164-.02-.244 0-.407.07-.683.453-.62.86v5.165c.015.076.005.155-.028.225l-.078-.1L89 23.4l-2.5-3.2c-.233-.297-.414-.67-.833-.76-.08-.02-.164-.02-.244 0-.453.133-.647.367-.647.755q0 3.888 0 7.75a.75.75 0 0 0 .417.678c.242.14.544.12.766-.047a.85.85 0 0 0 .358-.786q0-2.522 0-5.043c-.013-.08-.001-.16.033-.233l.347.442 1.35 1.713 2.747 3.57a.98.98 0 0 0 .689.475c.415.018.776-.283.833-.694a.49.49 0 0 0 0-.164q0-3.794 0-7.6a.44.44 0 0 0 .003-.17zm-9.793 8.6h.122a.81.81 0 0 0 .675-.667c.045-.36-.163-.705-.503-.833a1.39 1.39 0 0 0-.442-.053H78.7a.13.13 0 0 1-.019-.056v-2.13c0-.117.053-.133.15-.133h2.744a.77.77 0 0 0 .652-.822.77.77 0 0 0-.78-.702h-2.74a.35.35 0 0 1-.02-.2q0-.964 0-1.925a.35.35 0 0 1 .02-.2h3.488a1.39 1.39 0 0 0 .408 0 .77.77 0 0 0 .728-.73.77.77 0 0 0-.648-.803c-.075-.01-.15-.01-.225 0h-3.013a.52.52 0 0 1-.222-.017h-1.25c-.417 0-.786.186-.833.686a.48.48 0 0 0 0 .164q0 3.794 0 7.6a.45.45 0 0 0 0 .164.75.75 0 0 0 .766.697l4.63-.03zm-6.5 6.934c-.477-.294-1.014-.474-1.572-.528-.1-.033-.228.014-.34-.028-.325.025-.652-.017-.96-.122-.58-.2-.833-.644-.667-1.202a1.37 1.37 0 0 1 1.175-.98c.083-.04.175 0 .258-.03h.125c.094.036.197-.017.278.033a.86.86 0 0 1 .364.08c.38.13.744.278.894.708.1.308.264.57.628.62a1.11 1.11 0 0 0 .325 0 .87.87 0 0 0 .583-.625.36.36 0 0 0 0-.203 2.46 2.46 0 0 0-1.336-1.7 3.97 3.97 0 0 0-2.369-.397 2.9 2.9 0 0 0-1.944 1.155 2.6 2.6 0 0 0-.555 1.555.73.73 0 0 0 0 .278 2.27 2.27 0 0 0 1.061 1.802c.514.35 1.118.542 1.738.555.153.036.3-.017.46.03.27.007.54.062.8.164.412.148.664.566.603 1-.033.58-.858 1.2-1.3 1.14a1.25 1.25 0 0 1-.472 0c-.647-.058-1.2-.278-1.42-.95-.115-.3-.425-.506-.755-.475-.363.007-.663.285-.697.647a.37.37 0 0 0 0 .203 2.28 2.28 0 0 0 1.003 1.508 3.65 3.65 0 0 0 1.633.594c.097.03.2 0 .297.028h.203a2.74 2.74 0 0 0 1.316-.255c.993-.43 1.668-1.37 1.755-2.45a.89.89 0 0 0 0-.325c-.06-.748-.465-1.425-1.094-1.833zm-6.812-3.72c-.03-.362-.307-.655-.667-.708a.38.38 0 0 0-.203 0 .71.71 0 0 0-.625.583c-.01.075-.01.15 0 .225q0 2.5 0 4.98a.52.52 0 0 1-.017.222c.001.476-.2.93-.555 1.247-.374.37-.9.556-1.414.514-.816-.056-1.622-.833-1.616-1.638-.022-.072-.028-.148-.017-.222q0-2.552 0-5.102a.66.66 0 0 0 0-.222.83.83 0 0 0-.664-.583.38.38 0 0 0-.203 0 .69.69 0 0 0-.625.667c-.008.047-.008.095 0 .142q0 2.585 0 5.168a.34.34 0 0 0 0 .142c.028.167.02.333.053.5a3.24 3.24 0 0 0 1.286 2.027 3.14 3.14 0 0 0 1.944.633 3.25 3.25 0 0 0 2.308-.9 3.31 3.31 0 0 0 1.044-2.33.34.34 0 0 0 0-.142q0-2.524 0-5.046a.35.35 0 0 0-.03-.144zm20.635 6.593a.78.78 0 0 0-.522-.53.77.77 0 0 0-.727.154 3.14 3.14 0 0 1-2 .814 3.08 3.08 0 0 1-2.946-1.952c-.474-1.205-.145-2.578.824-3.437a3.08 3.08 0 0 1 3.51-.404c.26.142.47.383.8.4.08.02.164.02.244 0 .322-.078.567-.338.625-.664a.35.35 0 0 0 0-.203 1.08 1.08 0 0 0-.478-.625c-.663-.463-1.434-.75-2.238-.833-.272-.02-.545-.02-.816 0l-.26.047c-1.597.208-2.7 1.1-3.47 2.474a3.92 3.92 0 0 0-.464 1.836 2.46 2.46 0 0 0 0 .53 4.69 4.69 0 0 0 .064.678c.14.656.424 1.273.833 1.805a5.08 5.08 0 0 0 1.194 1.13c.597.4 1.28.633 1.988.705.083.025.172 0 .255.025h.633c.067-.036.147 0 .214-.028.074-.001.15-.006.222-.017.718-.132 1.396-.43 1.977-.872.258-.203.555-.4.6-.76a.38.38 0 0 0 0-.203.65.65 0 0 1-.05-.083zM52.076 28.7a2.48 2.48 0 0 0 .583-.04 2.8 2.8 0 0 0 1.558-.872 2.94 2.94 0 0 0 .733-1.575.34.34 0 0 0 0-.142q0-2.933 0-5.865a.4.4 0 0 0 0-.142.81.81 0 0 0-.667-.625c-.08-.02-.164-.02-.244 0a.79.79 0 0 0-.62.85v5.632c0 .08 0 .147-.028.217l-.04.1a1.31 1.31 0 0 1-1.133.911c-.12.001-.24.023-.355.064-.383.142-.514.444-.478.9a.79.79 0 0 0 .69.586zm28.304 3.12a.89.89 0 0 0-.583-.58.96.96 0 0 0-.367 0c-.348.093-.586.412-.575.772q0 3.868 0 7.74a.76.76 0 0 0 .713.73c.4.028.735-.24.807-.624a.48.48 0 0 0 0-.164q0-3.855 0-7.712a.44.44 0 0 0 .006-.161zm32.103-7.996a.69.69 0 0 0-.014-.214l-.044-.26a4.46 4.46 0 0 0-1.694-2.935 4.51 4.51 0 0 0-2.413-.994c-.114-.03-.23 0-.344-.028h-.253c-.125.042-.258 0-.386.03a7.03 7.03 0 0 0-.955.2 4.46 4.46 0 0 0-2.008 1.316 4.41 4.41 0 0 0-1.15 2.555c-.028.083 0 .175-.028.255q0 .297 0 .592c.042.094 0 .2.03.297a3.71 3.71 0 0 0 .21.93 4.53 4.53 0 0 0 1.527 2.124 4.24 4.24 0 0 0 2.333.972c.108.033.225-.017.333.03h.472c.097-.042.2 0 .297-.03a4.56 4.56 0 0 0 1.666-.536 4.95 4.95 0 0 0 1.325-1.111 4.41 4.41 0 0 0 .916-1.702 3.86 3.86 0 0 1 .194-.814v-.056a3.61 3.61 0 0 1-.017-.622zm-4.618 3.333a3.12 3.12 0 1 1-.036-6.24 3.12 3.12 0 1 1 .036 6.24zm-65.14-6.62a1.54 1.54 0 0 0-.753-1.125q-2.24-1.302-4.485-2.594l-7.165-4.147q-1.944-1.1-3.888-2.244c-.392-.225-.76-.508-1.236-.536-.058-.05-.145-.05-.203 0-.174.02-.344.064-.505.133l-1.43.805q-1.822 1.044-3.64 2.088l-3.835 2.222-3.055 1.75-4.143 2.4c-.467.216-.796.65-.878 1.158a.71.71 0 0 0 0 .225q0 9.334 0 18.665a.71.71 0 0 0 0 .225 1.41 1.41 0 0 0 .511.894 7.01 7.01 0 0 0 .958.586q2.072 1.2 4.146 2.413 1.922 1.1 3.846 2.222l2.202 1.255 2.616 1.508 1.98 1.15c.4.22.755.503 1.23.525a.65.65 0 0 0 .278 0 1.6 1.6 0 0 0 .539-.178l.833-.483 2.255-1.283 2.013-1.177 1.708-.98 3.73-2.16 1.725-.994 1.43-.814 2.038-1.175c.572-.314 1.078-.678 1.177-1.4a.73.73 0 0 0 0-.225q0-9.25 0-18.5a.73.73 0 0 0 .008-.228zm-3.42 18.58q-5.935 3.413-11.86 6.843l-1.63.94a1.31 1.31 0 0 1-1.414 0q-5.554-3.208-11.108-6.4L10.8 39.067a1.3 1.3 0 0 1-.675-1.222q0-3.907 0-7.815V22.3a1.45 1.45 0 0 1 .808-1.389q6.48-3.727 12.952-7.47l.514-.294a1.31 1.31 0 0 1 1.433 0q1.87 1.083 3.74 2.16 4.865 2.813 9.728 5.618a1.43 1.43 0 0 1 .783 1.35q0 7.743 0 15.485a1.44 1.44 0 0 1-.8 1.366zM99.3 19.914c-.625-.317-1.315-.485-2.016-.492q-1.044-.03-2.088 0a.72.72 0 0 0-.708.747.5.5 0 0 0 0 .164q0 3.732 0 7.465a.45.45 0 0 0 0 .164c.033.1 0 .18.05.278a.77.77 0 0 0 .764.461h.94a.6.6 0 0 1 .222-.017h.858l.528-.044c1.408-.17 2.455-.925 3.233-2.058a4.38 4.38 0 0 0 .658-3.457 4.52 4.52 0 0 0-2.44-3.2zm.02 6.387c-.535.52-1.248.818-1.994.833l-1.127.02c-.15 0-.18-.047-.18-.183v-5.82c0-.167.05-.206.206-.2.586.022 1.177-.06 1.752.097 1.095.28 1.95 1.137 2.23 2.232a3.09 3.09 0 0 1-.888 3.027zm-35.36 2.3c.338-.165.497-.557.37-.9l-.866-2.136q-.878-2.122-1.76-4.238l-.636-1.486a.76.76 0 0 0-1.283-.072c-.278.508-.458 1.058-.7 1.586l-.833 2.008-.858 2.033-.88 2.133c-.1.204-.107.432-.047.647a.72.72 0 0 0 .647.52.74.74 0 0 0 .797-.522l.505-1.233c.036-.147.178-.244.328-.222h3.344a.21.21 0 0 1 .228.144 5.49 5.49 0 0 0 .239.592 9.54 9.54 0 0 0 .405.911.73.73 0 0 0 .994.247zm-2.436-3.4h-2.2c-.106 0-.156 0-.103-.14l1.186-2.866 1.202 2.883c.044.1.003.122-.094.122zM25.53 23.486c-.614-.225-1.2.03-1.522.672q-2.336 4.654-4.657 9.3a2 2 0 0 0-.103.244 1.19 1.19 0 0 0 .718 1.52 1.19 1.19 0 0 0 1.52-.718q1.916-3.846 3.843-7.7l.9-1.82a1.2 1.2 0 0 0-.02-.906c-.12-.286-.37-.508-.668-.613zm9.536.014c-.622-.253-1.236 0-1.572.675l-4.627 9.25a2.8 2.8 0 0 0-.114.264 1.19 1.19 0 0 0 2.222.833q2.305-4.6 4.6-9.214a2.34 2.34 0 0 0 .15-.336 1.18 1.18 0 0 0-.669-1.472zm-4.086 1.482a1.14 1.14 0 0 0-.278-1.211c-.28-.28-.68-.403-1.07-.328a1.2 1.2 0 0 0-.874.7l-2.3 4.596c-.105.186-.16.395-.158.608.004.558.396 1.038.943 1.153s1.1-.168 1.326-.678q1.158-2.305 2.308-4.613a1.46 1.46 0 0 0 .094-.228zM18.665 28.37a1.17 1.17 0 0 0-1-.164c-.334.1-.624.352-.762.683q-.805 1.6-1.602 3.202l-.778 1.6c-.317.76.278 1.608 1.2 1.6a1.17 1.17 0 0 0 .994-.728q1.14-2.288 2.286-4.574a2.14 2.14 0 0 0 .103-.244c.18-.503-.001-1.064-.442-1.366z"/></svg>