<?xml version="1.0" encoding="UTF-8" standalone="no"?>
<svg
   xmlns:dc="http://purl.org/dc/elements/1.1/"
   xmlns:cc="http://creativecommons.org/ns#"
   xmlns:rdf="http://www.w3.org/1999/02/22-rdf-syntax-ns#"
   xmlns:svg="http://www.w3.org/2000/svg"
   xmlns="http://www.w3.org/2000/svg"
   xmlns:sodipodi="http://sodipodi.sourceforge.net/DTD/sodipodi-0.dtd"
   xmlns:inkscape="http://www.inkscape.org/namespaces/inkscape"
   width="120"
   height="60"
   viewBox="0 0 120 60"
   version="1.1"
   id="svg4"
   sodipodi:docname="lingo-ar21.svg"
   inkscape:version="0.92.3 (2405546, 2018-03-11)">
  <metadata
     id="metadata10">
    <rdf:RDF>
      <cc:Work
         rdf:about="">
        <dc:format>image/svg+xml</dc:format>
        <dc:type
           rdf:resource="http://purl.org/dc/dcmitype/StillImage" />
        <dc:title></dc:title>
      </cc:Work>
    </rdf:RDF>
  </metadata>
  <defs
     id="defs8" />
  <sodipodi:namedview
     pagecolor="#ffffff"
     bordercolor="#666666"
     borderopacity="1"
     objecttolerance="10"
     gridtolerance="10"
     guidetolerance="10"
     inkscape:pageopacity="0"
     inkscape:pageshadow="2"
     inkscape:window-width="1920"
     inkscape:window-height="1001"
     id="namedview6"
     showgrid="false"
     inkscape:zoom="2.9478261"
     inkscape:cx="16.113569"
     inkscape:cy="20"
     inkscape:window-x="-9"
     inkscape:window-y="-9"
     inkscape:window-maximized="1"
     inkscape:current-layer="svg4" />
  <g
     id="g834"
     transform="translate(-2.1644557)">
    <path
       sodipodi:nodetypes="sssscssssssssssssssssssssssssccsssssssssssssssssssssccccsscsssccssssssssscsssc"
       style="fill:#ff6161;fill-rule:evenodd;stroke-width:0.70317107"
       inkscape:connector-curvature="0"
       id="path2"
       d="m 57.269156,21.176799 c 0,-0.224993 0.179524,-0.427537 0.427312,-0.427537 h 2.673631 c 0.224363,0 0.426642,0.202544 0.426642,0.427537 v 13.569814 h 6.078745 c 0.24762,0 0.427145,0.202545 0.427145,0.427371 v 2.452313 c 0,0.224994 -0.179525,0.427539 -0.427145,0.427539 h -9.179018 c -0.247788,0 -0.427312,-0.202545 -0.427312,-0.427539 z m 11.93187,6.752457 c 0,-0.292508 0.225034,-0.494719 0.494739,-0.494719 h 2.426511 c 0.269705,0 0.49407,0.202211 0.49407,0.494719 v 9.629493 c 0,0.27006 -0.224365,0.495053 -0.49407,0.495053 h -2.426511 c -0.269705,0 -0.494739,-0.224993 -0.494739,-0.495053 z m -0.24695,-5.199983 c 0,-1.079903 0.853788,-1.979877 1.932609,-1.979877 1.078153,0 1.954694,0.899974 1.954694,1.979877 0,1.057285 -0.876541,1.934978 -1.954694,1.934978 -1.078821,0 -1.932609,-0.877693 -1.932609,-1.934978 z m 5.566739,5.425245 c 0,-0.292508 0.225033,-0.494718 0.494069,-0.494718 h 1.011395 c 0.15744,0 0.359049,0.112418 0.471985,0.314958 l 0.381803,1.034669 c 0.561496,-0.62958 1.347858,-1.574788 3.235126,-1.574788 3.235796,0 4.336702,2.294834 4.336702,5.152069 v 4.972142 c 0,0.270059 -0.225033,0.494885 -0.471984,0.494885 h -2.448764 c -0.29246,0 -0.494739,-0.224826 -0.494739,-0.494885 v -5.017207 c 0,-0.989604 -0.337131,-1.912196 -1.505297,-1.912196 -1.033481,0 -1.572891,0.720047 -1.572891,1.777501 v 5.151902 c 0,0.224825 -0.112101,0.494885 -0.471315,0.494885 h -2.472021 c -0.269036,0 -0.494069,-0.224826 -0.494069,-0.494885 z m 16.940861,6.929603 c -1.235759,0 -2.201646,-0.967657 -2.201646,-2.22732 0,-1.237382 0.965887,-2.227319 2.201646,-2.227319 1.281101,0 2.202316,0.989937 2.202316,2.227319 0,1.259663 -0.921215,2.22732 -2.202316,2.22732 z m 5.32534,2.632073 c 0,3.757377 -2.426676,5.534543 -5.549704,5.534543 -1.550806,0 -3.347894,-0.697599 -3.864551,-1.124634 -0.157607,-0.13503 -0.202279,-0.360023 -0.112265,-0.585352 l 0.78653,-1.889745 c 0.08935,-0.202545 0.381803,-0.337239 0.606167,-0.202545 0.494571,0.292508 1.348527,0.832628 2.516692,0.832628 1.280432,0 2.201814,-0.495054 2.201814,-2.069842 v -0.539784 c -0.337131,0.269725 -1.438038,0.629581 -2.404092,0.629581 -2.763812,0 -5.144981,-1.799782 -5.144981,-5.466693 0,-2.969983 2.201645,-5.399847 5.122394,-5.399847 2.291827,0 3.505333,1.597741 3.505333,1.597741 l 0.29179,-0.855077 c 0.09019,-0.27006 0.292461,-0.517335 0.539414,-0.517335 h 1.010729 c 0.269706,0 0.49473,0.247275 0.49473,0.494718 z m 6.785484,-2.632073 c -1.21367,0 -2.17974,-1.035172 -2.17974,-2.24977 0,-1.192482 0.96607,-2.204869 2.17974,-2.204869 1.19092,0 2.15697,1.012387 2.15697,2.204869 0,1.214598 -0.96605,2.24977 -2.15697,2.24977 z m 0,-7.649617 c 2.96608,0 5.3921,2.475099 5.3921,5.399847 0,2.969649 -2.42602,5.466693 -5.3921,5.466693 -2.96609,0 -5.414854,-2.497044 -5.414854,-5.466693 0,-2.924748 2.448764,-5.399847 5.414854,-5.399847" />
    <path
       sodipodi:nodetypes="sssssssssssssssssssssssssssssssssssscccssssss"
       style="fill:#ff6161;fill-rule:evenodd;stroke-width:1.37219334"
       inkscape:connector-curvature="0"
       id="path2-9"
       d="m 34.531891,16.935023 c 0,0.860467 -0.696743,1.558126 -1.556084,1.558126 -0.859338,0 -1.555757,-0.697659 -1.555757,-1.558126 0,-0.860466 0.696419,-1.558125 1.555757,-1.558125 0.859341,0 1.556084,0.697657 1.556084,1.558125 z m 11.602389,0 c 0,0.860467 -0.696745,1.558126 -1.556084,1.558126 -0.85934,0 -1.555757,-0.697659 -1.555757,-1.558126 0,-0.860466 0.696417,-1.558125 1.555757,-1.558125 0.859339,0 1.556084,0.697657 1.556084,1.558125 z m 0,13.064424 c 0,0.860468 -0.696745,1.558127 -1.556084,1.558127 -0.85934,0 -1.555757,-0.697659 -1.555757,-1.558127 0,-0.860467 0.696417,-1.558125 1.555757,-1.558125 0.859339,0 1.556084,0.697658 1.556084,1.558125 z m 0,13.065014 c 0,0.860468 -0.696745,1.558127 -1.556084,1.558127 -0.85934,0 -1.555757,-0.697659 -1.555757,-1.558127 0,-0.860467 0.696417,-1.558125 1.555757,-1.558125 0.859339,0 1.556084,0.697658 1.556084,1.558125 z M 34.531891,29.999447 c 0,0.860468 -0.696743,1.558127 -1.556084,1.558127 -0.859338,0 -1.555757,-0.697659 -1.555757,-1.558127 0,-0.860467 0.696419,-1.558125 1.555757,-1.558125 0.859341,0 1.556084,0.697658 1.556084,1.558125 z M 15.373256,43.108466 c 0,-2.107361 1.666113,-3.86393 3.771365,-3.86393 2.103944,0 3.814462,1.756569 3.814462,3.86393 0,2.062898 -1.710518,3.77566 -3.814462,3.77566 -2.105252,0 -3.771365,-1.712762 -3.771365,-3.77566 z m 0,-13.065014 c 0,-2.10736 1.666113,-3.863929 3.771365,-3.863929 2.103944,0 3.814462,1.756569 3.814462,3.863929 0,2.062898 -1.710518,3.77566 -3.814462,3.77566 -2.105252,0 -3.771365,-1.712762 -3.771365,-3.77566 z m 0.07229,-13.844469 c 0.433589,-2.062245 2.425545,-3.437292 4.485413,-3.002808 2.058889,0.43383 3.371405,2.505555 2.937818,4.567473 -0.424445,2.019091 -2.450685,3.342157 -4.509573,2.908001 -2.059868,-0.434157 -3.338103,-2.453902 -2.913658,-4.472666 z m 13.737448,26.909483 c 0,-2.107361 1.666113,-3.86393 3.771365,-3.86393 2.103945,0 3.814461,1.756569 3.814461,3.86393 0,2.062898 -1.710516,3.77566 -3.814461,3.77566 -2.105252,0 -3.771365,-1.712762 -3.771365,-3.77566 z" />
  </g>
</svg>
