<?xml version="1.0" encoding="utf-8"?>
<!-- Generator: Adobe Illustrator 24.0.0, SVG Export Plug-In . SVG Version: 6.00 Build 0)  -->
<svg version="1.1" id="Layer_1" xmlns="http://www.w3.org/2000/svg" xmlns:xlink="http://www.w3.org/1999/xlink" x="0px" y="0px"
	 viewBox="0 0 120 60" width="120" height="60" style="enable-background:new 0 0 120 60;" xml:space="preserve">
<style type="text/css">
	.st0{fill:url(#SVGID_1_);}
	.st1{fill:url(#SVGID_2_);}
	.st2{fill:#29233B;}
</style>
<g>
	
		<linearGradient id="SVGID_1_" gradientUnits="userSpaceOnUse" x1="-499.0569" y1="1024.7352" x2="-498.9078" y2="1024.8888" gradientTransform="matrix(166.5497 0 0 -171.6 83137.8594 175894.0156)">
		<stop  offset="0" style="stop-color:#58BBEA"/>
		<stop  offset="0.1917" style="stop-color:#5DB3E4"/>
		<stop  offset="0.4905" style="stop-color:#699DD4"/>
		<stop  offset="0.8574" style="stop-color:#7D79BA"/>
		<stop  offset="1" style="stop-color:#8669AE"/>
	</linearGradient>
	<path class="st0" d="M39.4,18.3c-0.1-0.2-0.3-0.3-0.4-0.5c-0.2-0.2-0.3-0.3-0.5-0.4l-0.4,0.4l-0.5,0.5l-1.4,1.4l-0.1,0.1l-0.8,0.8
		l-1.5,1.5l0,0L32.9,23c0.2,0.1,0.3,0.3,0.5,0.4c0.2,0.2,0.3,0.3,0.4,0.5c1.5,1.7,2.3,3.9,2.3,6.2c0,2.5-1,4.9-2.7,6.6
		c-1.8,1.8-4.1,2.7-6.6,2.7c-2.3,0-4.5-0.8-6.2-2.3l-0.2,0.2l-0.6,0.6c1.9,1.7,4.4,2.7,7.1,2.7c2.8,0,5.5-1.1,7.5-3.1
		c2-2,3.1-4.7,3.1-7.5c0-2.6-1-5.1-2.7-7.1l1.5-1.5c2.1,2.3,3.3,5.3,3.3,8.5c0,3.4-1.3,6.6-3.7,9c-2.4,2.4-5.6,3.7-9,3.7
		c-3.2,0-6.2-1.2-8.5-3.3l-0.9,0.9c2.6,2.4,5.9,3.6,9.4,3.6c3.7,0,7.2-1.5,9.9-4.1c2.6-2.6,4.1-6.1,4.1-9.9c0-3.5-1.3-6.8-3.6-9.4
		l1.4-1.4l0,0c5.8,6.2,5.6,16.1-0.4,22.1c-3,3-7,4.7-11.3,4.7c-4.1,0-7.9-1.5-10.8-4.3l-0.5,0.5l-0.4,0.4c3.2,3,7.3,4.6,11.7,4.6
		c4.6,0,8.9-1.8,12.2-5.1C45.5,35.6,45.7,25.1,39.4,18.3z"/>
	
		<linearGradient id="SVGID_2_" gradientUnits="userSpaceOnUse" x1="-498.9403" y1="1024.6611" x2="-498.7951" y2="1024.8108" gradientTransform="matrix(166.7763 0 0 -171.9 83219.7344 176176.5625)">
		<stop  offset="0" style="stop-color:#ABCB37"/>
		<stop  offset="0.2693" style="stop-color:#A9CB38"/>
		<stop  offset="0.424" style="stop-color:#A0C93B"/>
		<stop  offset="0.5496" style="stop-color:#92C741"/>
		<stop  offset="0.6598" style="stop-color:#7EC449"/>
		<stop  offset="0.7598" style="stop-color:#65C054"/>
		<stop  offset="0.8524" style="stop-color:#45BB61"/>
		<stop  offset="0.9376" style="stop-color:#20B570"/>
		<stop  offset="1" style="stop-color:#00B07D"/>
	</linearGradient>
	<path class="st1" d="M36.1,19.8L36.1,19.8c-2.5-2.4-5.8-3.7-9.4-3.7c-3.7,0-7.2,1.5-9.9,4.1c-2.6,2.6-4.1,6.1-4.1,9.9
		c0,3.5,1.3,6.8,3.6,9.4L15,40.9c-5.8-6.2-5.6-16.1,0.4-22.1c3-3,7-4.7,11.3-4.7c4.1,0,7.9,1.5,10.8,4.3L36.1,19.8l1.5-1.5l0.5-0.5
		l0.4-0.4c-3.2-3-7.3-4.6-11.7-4.6c-4.6,0-8.9,1.8-12.2,5.1C8,24.4,7.9,35,14.2,41.7c0.1,0.2,0.3,0.3,0.4,0.5
		c0.2,0.2,0.3,0.3,0.5,0.4l0.4-0.4l0.5-0.5l1.4-1.4l0.9-0.9l1.5-1.5l0.6-0.6l0.2-0.2c-0.2-0.1-0.3-0.3-0.5-0.4
		c-0.2-0.2-0.3-0.3-0.4-0.5c-1.5-1.7-2.3-3.9-2.3-6.2c0-2.5,1-4.9,2.7-6.6c1.8-1.8,4.1-2.7,6.6-2.7c2.3,0,4.5,0.8,6.2,2.3l0.9-0.9
		c-1.9-1.8-4.4-2.7-7-2.7c-2.8,0-5.5,1.1-7.5,3.1c-2,2-3.1,4.7-3.1,7.5c0,2.6,1,5.1,2.7,7.1l-1.5,1.5c-2.1-2.3-3.3-5.3-3.3-8.5
		c0-3.4,1.3-6.6,3.7-9s5.6-3.7,9-3.7c3.2,0,6.2,1.2,8.5,3.3l-1.5,1.5l0,0l1.5-1.5L36.1,19.8z"/>
	<path class="st2" d="M58.1,25.1c1.7,0,2.7,0.7,3.5,1.6c0.1,0.1,0.2,0.1,0.3,0l0.4-0.3c0.1-0.1,0.1-0.2,0-0.3c-0.9-1.1-2.3-2-4.2-2
		c-3.4,0-5.6,2.6-5.6,5.8c0,3.2,2.2,5.8,5.6,5.8c1.9,0,3.3-0.9,4.2-2c0.1-0.1,0.1-0.2,0-0.3l-0.4-0.3c-0.1-0.1-0.2-0.1-0.3,0
		c-0.8,1-1.8,1.6-3.5,1.6c-2.9,0-4.6-2.3-4.6-4.9C53.5,27.5,55.2,25.1,58.1,25.1z M86.4,25.1c1.7,0,2.7,0.7,3.5,1.6
		c0.1,0.1,0.2,0.1,0.3,0l0.4-0.3c0.1-0.1,0.1-0.2,0-0.3c-0.9-1.1-2.3-2-4.2-2c-3.4,0-5.6,2.6-5.6,5.8c0,3.2,2.2,5.8,5.6,5.8
		c1.9,0,3.3-0.9,4.2-2c0.1-0.1,0.1-0.2,0-0.3l-0.4-0.3c-0.1-0.1-0.2-0.1-0.3,0c-0.8,1-1.8,1.6-3.5,1.6c-2.9,0-4.6-2.3-4.6-4.9
		C81.8,27.5,83.5,25.1,86.4,25.1z M65.3,24.3c-0.1,0-0.2,0.1-0.2,0.2v0.3v10.5l0,0l0,0v0.3c0,0.1,0.1,0.2,0.2,0.2h0.6
		c0.1,0,0.2-0.1,0.2-0.2v-0.3l0,0l0,0V24.8v-0.3c0-0.1-0.1-0.2-0.2-0.2H65.3z M69.9,35.3L69.9,35.3L69.9,35.3v0.3
		c0,0.1,0.1,0.2,0.2,0.2h0.6c0.1,0,0.2-0.1,0.2-0.2v-0.3l0,0v-4.6H75l2.4,4.8c0,0,0,0,0,0l0,0.1c0.1,0.1,0.2,0.2,0.3,0.2h0.6
		c0.1,0,0.2-0.1,0.2-0.2l-0.2-0.5l0,0l-0.1-0.2l0,0l0,0l-2.1-4.3c1.6-0.3,2.6-1.5,2.6-3c0-1.8-1.2-3.1-3.5-3.1h-5.1
		c-0.1,0-0.2,0.1-0.2,0.2L69.9,35.3z M70.9,29.7v-4.4h4.5c1.4,0,2.2,0.9,2.2,2.2s-0.9,2.2-2.2,2.2L70.9,29.7z M100.3,34.7h-6v-9.9
		l0,0v-0.3c0-0.1-0.1-0.2-0.2-0.2h-0.6c-0.1,0-0.2,0.1-0.2,0.2v0.3v10.4v0.3c0,0.1,0.1,0.2,0.2,0.2h0.3h0.5h6h0.2
		c0.1,0,0.2-0.1,0.2-0.2V35c0-0.1-0.1-0.2-0.2-0.2L100.3,34.7L100.3,34.7z M103,35.1v0.3c0,0.1,0.1,0.2,0.2,0.2h0.3h0.5h6l0,0l0,0
		h0.2c0.1,0,0.2-0.1,0.2-0.2v-0.2l0,0l0,0v-0.2c0-0.1-0.1-0.2-0.2-0.2H110l0,0l0,0h-6v-4.4h3.5l0,0h0.2c0.1,0,0.2-0.1,0.2-0.2v-0.5
		c0-0.1-0.1-0.2-0.2-0.2h-0.2l0,0H104v-4.1h6h0l0,0h0.2c0.1,0,0.2-0.1,0.2-0.2v-0.5c0-0.1-0.1-0.2-0.2-0.2H110l0,0h0h-6.8
		c-0.1,0-0.2,0.1-0.2,0.2V35.1z"/>
</g>
</svg>
