<svg xmlns="http://www.w3.org/2000/svg" width="120" height="60"><path d="M35.163 34.273c0 1.612-.887 2.42-2.5 2.5h-19.67c-1.612 0-2.5-.806-2.5-2.5 0-1.612.887-2.42 2.5-2.5h19.75c1.612.08 2.42.887 2.42 2.5zm-2.42 3.708h-19.75c-1.612 0-2.5.806-2.5 2.5 0 1.612.887 2.42 2.5 2.5h19.75c1.612 0 2.5-.806 2.5-2.5-.08-1.693-.887-2.5-2.5-2.5zm6.127-13.624c-1.612 0-2.5.806-2.5 2.42V40.4c0 1.612.887 2.42 2.5 2.5 2.42-.08 3.708-2.5 3.708-7.417v-6.127c0-3.305-1.3-4.918-3.708-4.998zm-32.005 0c-2.42.08-3.708 1.693-3.708 4.998v6.127c0 4.918 1.3 7.336 3.708 7.417 1.612 0 2.5-.806 2.5-2.5V26.856c-.08-1.612-.887-2.42-2.5-2.5zm32.005-1.2c0-4.112-2.177-6.046-6.127-6.127h-19.75c-4.03.08-6.127 2.096-6.127 6.127 2.42 0 3.708 1.3 3.708 3.708s1.3 3.708 3.708 3.708h17.252c2.42 0 3.708-1.3 3.708-3.708-.08-2.5 1.3-3.628 3.628-3.708z" fill="#e42528"/><path d="M54.595 27.626h1.594q-.134-.956-.57-1.678-.436-.738-1.1-1.225-.654-.487-1.493-.738-.84-.252-1.778-.252-1.376 0-2.45.503-1.057.487-1.778 1.342-.705.856-1.074 2.013-.37 1.14-.37 2.45 0 1.3.336 2.45.352 1.14 1.04 1.98.688.84 1.728 1.325 1.04.47 2.433.47 2.298 0 3.624-1.258 1.325-1.258 1.56-3.523h-1.594q-.05.738-.302 1.376-.252.638-.705 1.107-.436.453-1.057.72-.604.252-1.392.252-1.074 0-1.845-.403-.772-.403-1.275-1.074-.487-.688-.72-1.594-.235-.923-.235-1.946 0-.94.235-1.812.235-.872.72-1.543.503-.688 1.258-1.1.772-.403 1.845-.403 1.258 0 2.164.638.923.638 1.2 1.913zm4.507 4.044q0-.788.2-1.392.218-.62.587-1.04.37-.42.856-.638.503-.218 1.057-.218.554 0 1.04.218.503.218.872.638.37.42.57 1.04.218.604.218 1.392 0 .788-.218 1.4-.2.604-.57 1.023-.37.403-.872.62-.487.218-1.04.218-.554 0-1.057-.218-.487-.218-.856-.62-.37-.42-.587-1.023-.2-.62-.2-1.4zm-1.5 0q0 .956.268 1.778.268.822.805 1.443.537.604 1.325.956.788.336 1.812.336 1.04 0 1.812-.336.788-.352 1.325-.956.537-.62.805-1.443.268-.822.268-1.778 0-.956-.268-1.778-.268-.84-.805-1.443-.537-.62-1.325-.973-.772-.352-1.812-.352-1.023 0-1.812.352-.788.352-1.325.973-.537.604-.805 1.443-.268.822-.268 1.778zm17.274 4.328v-8.673H73.45v4.9q0 .587-.168 1.1-.15.487-.47.856-.32.37-.805.57-.47.2-1.124.2-.822 0-1.292-.47-.47-.47-.47-1.275v-5.872h-1.426v5.704q0 .705.134 1.292.15.57.503 1 .352.42.923.654.57.218 1.426.218.956 0 1.66-.37.705-.386 1.158-1.2h.034v1.376zm8.046-5.888H84.4q-.084-.772-.403-1.325-.32-.57-.822-.94-.487-.37-1.14-.537-.638-.185-1.376-.185-1.023 0-1.795.37-.772.352-1.292 1-.503.62-.755 1.476-.252.84-.252 1.812 0 .973.252 1.795.268.805.772 1.392.52.587 1.275.906.772.32 1.762.32 1.66 0 2.617-.872.973-.872 1.208-2.483h-1.46q-.134 1.007-.738 1.56-.587.554-1.644.554-.67 0-1.158-.268-.487-.268-.788-.705-.302-.453-.453-1.023-.134-.57-.134-1.174 0-.654.134-1.258.134-.62.436-1.1.32-.47.84-.755.52-.285 1.292-.285.906 0 1.443.453.537.453.705 1.275zm3.123-6.1v11.978h1.426v-4.9q0-.587.15-1.074.168-.503.487-.872.32-.37.788-.57.487-.2 1.14-.2.822 0 1.292.47.47.47.47 1.275V36h1.426v-5.704q0-.705-.15-1.275-.134-.587-.487-1.007-.352-.42-.923-.654-.57-.235-1.426-.235-.386 0-.805.084-.403.084-.788.268-.37.168-.67.453-.302.268-.47.67h-.034v-4.58zm11.167 10.635V25.36h2.684q1.107 0 1.862.32.755.302 1.225.906.487.587.688 1.443.218.84.218 1.913 0 1.107-.235 1.896-.218.772-.57 1.292-.352.52-.805.822-.436.302-.9.47-.453.15-.856.2-.403.034-.67.034zM95.618 24.02v11.978h4.1q1.493 0 2.584-.42 1.1-.42 1.795-1.208.705-.805 1.04-1.963.336-1.174.336-2.684 0-2.886-1.493-4.295-1.493-1.4-4.26-1.4zm13.4 5.15v-3.8h3.188q.52 0 .973.067.47.05.822.252.352.2.554.57.2.37.2 1.007 0 .956-.604 1.443-.587.47-1.946.47zm-1.594-5.15v11.978h5.788q.9 0 1.56-.285.688-.302 1.14-.772.47-.487.705-1.107.235-.62.235-1.275 0-1.107-.587-1.88-.587-.772-1.694-1.007v-.034q.856-.336 1.3-1.023.47-.705.47-1.66 0-.906-.42-1.527-.403-.62-1-.973-.268-.168-.654-.252-.37-.084-.805-.117-.436-.05-.9-.05-.436-.017-.822-.017zm1.594 10.636v-4.144h3.64q.503 0 .973.1.47.084.822.32.37.218.587.604.218.386.218.973 0 1.007-.604 1.577-.587.57-1.644.57z"/></svg>