<?xml version="1.0" encoding="UTF-8" standalone="no"?>
<svg
   xmlns:dc="http://purl.org/dc/elements/1.1/"
   xmlns:cc="http://creativecommons.org/ns#"
   xmlns:rdf="http://www.w3.org/1999/02/22-rdf-syntax-ns#"
   xmlns:svg="http://www.w3.org/2000/svg"
   xmlns="http://www.w3.org/2000/svg"
   xmlns:sodipodi="http://sodipodi.sourceforge.net/DTD/sodipodi-0.dtd"
   xmlns:inkscape="http://www.inkscape.org/namespaces/inkscape"
   viewBox="0 0 64 64.000003"
   version="1.1"
   id="svg32"
   sodipodi:docname="lyrebird-icon.svg"
   width="64"
   height="64"
   inkscape:version="0.92.4 (5da689c313, 2019-01-14)">
  <metadata
     id="metadata36">
    <rdf:RDF>
      <cc:Work
         rdf:about="">
        <dc:format>image/svg+xml</dc:format>
        <dc:type
           rdf:resource="http://purl.org/dc/dcmitype/StillImage" />
        <dc:title>logo-lyrebird-horizontal</dc:title>
      </cc:Work>
    </rdf:RDF>
  </metadata>
  <sodipodi:namedview
     pagecolor="#ffffff"
     bordercolor="#666666"
     borderopacity="1"
     objecttolerance="10"
     gridtolerance="10"
     guidetolerance="10"
     inkscape:pageopacity="0"
     inkscape:pageshadow="2"
     inkscape:window-width="1920"
     inkscape:window-height="1001"
     id="namedview34"
     showgrid="false"
     inkscape:zoom="7.2862706"
     inkscape:cx="53.703366"
     inkscape:cy="33.067244"
     inkscape:window-x="-9"
     inkscape:window-y="-9"
     inkscape:window-maximized="1"
     inkscape:current-layer="svg32" />
  <defs
     id="defs4">
    <style
       id="style2">.cls-1{fill:#fff;}</style>
  </defs>
  <title
     id="title6">logo-lyrebird-horizontal</title>
  <g
     id="g879"
     transform="matrix(2.4107852,0,0,2.4107852,-28.92941,-40.323566)">
    <path
       inkscape:connector-curvature="0"
       style="fill:#1d52d6;fill-opacity:1;stroke-width:0.18997683"
       id="path8"
       d="M 25.269882,16.731088 A 13.27558,13.27558 0 0 0 12.000001,29.676109 4.2858771,4.2858771 0 0 1 13.622403,29.25626 c 1.020176,-0.05699 1.609104,0.742809 2.038451,1.329837 a 2.6596755,2.6596755 0 0 0 0.41605,0.486341 c 0.07599,-0.0285 0.499639,-0.294464 0.799802,-2.648277 0.393252,-3.102321 0.725711,-4.559443 1.573008,-4.530947 0.429348,0.0209 0.609826,0.514837 0.813101,1.47992 0.131084,0.625023 0.267867,1.493217 0.40845,2.576085 0.235571,1.835176 0.400851,3.69125 0.402751,3.710248 0.07979,1.789581 0.32486,3.84893 0.623124,4.694327 0.321061,-1.014476 0.685816,-3.875527 0.879592,-6.383221 0.402751,-4.749421 1.124663,-4.722824 1.432426,-4.709526 0.307762,0.0133 0.993578,0.04369 1.519814,5.197766 0.157681,1.821878 0.499639,3.560166 0.769406,4.054105 0.264068,-0.454044 0.598427,-1.951062 0.775106,-3.525969 0.446445,-3.497474 1.139861,-3.465178 1.403929,-3.451879 0.594627,0.0266 1.109464,1.003077 1.531213,2.897146 0.189977,0.849197 0.556632,1.709792 0.771306,1.854174 0.189976,-0.134884 0.535734,-0.887192 0.721911,-1.609104 0.459744,-1.787682 1.160759,-1.977658 1.445724,-1.977658 0.210874,0 0.938486,0.119685 1.441924,1.631901 0.189977,0.353356 0.533835,0.73521 0.723812,0.73521 0.189977,0 0.65162,-0.518637 0.966982,-1.050572 0.201375,-0.40655 0.718112,-1.316539 1.341236,-1.316539 0.569931,0 1.270945,0.417949 2.125841,1.073369 A 13.27558,13.27558 0 0 0 25.269882,16.731088 Z"
       class="cls-1" />
    <path
       inkscape:connector-curvature="0"
       style="fill:#1d52d6;fill-opacity:1;stroke-width:0.18997683"
       id="path10"
       d="m 35.769901,30.375223 -0.0228,0.0342 c -0.199476,0.338159 -0.911889,1.445724 -1.6471,1.445724 -0.759907,0 -1.329837,-0.980281 -1.428625,-1.177857 l -0.0247,-0.06079 c -0.189977,-0.607926 -0.558532,-1.128463 -0.712413,-1.128463 -0.172879,0.0475 -0.511038,0.735211 -0.676318,1.388731 -0.514837,2.023253 -1.210152,2.243626 -1.563509,2.192333 -0.777005,-0.106387 -1.234849,-1.590106 -1.440024,-2.469699 -0.210875,-0.949884 -0.543334,-1.899768 -0.771306,-2.207531 -0.207075,0.379954 -0.480642,1.535013 -0.626924,2.680573 -0.09309,0.835898 -0.455944,3.622858 -1.166457,4.168092 a 0.61932443,0.61932443 0 0 1 -0.476842,0.131084 c -0.444546,-0.06839 -0.815001,-0.539535 -1.174057,-2.614081 -0.189977,-1.115164 -0.290664,-2.194233 -0.296364,-2.239827 -0.167179,-1.662297 -0.48634,-3.569665 -0.759907,-4.280178 -0.24507,0.65542 -0.507238,2.325316 -0.628823,3.780539 0,0.0133 -0.132984,1.709791 -0.349558,3.419583 -0.429347,3.398685 -0.777005,3.799536 -1.122763,3.923021 a 0.52433602,0.52433602 0 0 1 -0.176678,0.0304 0.53953417,0.53953417 0 0 1 -0.379954,-0.169079 c -0.759907,-0.759907 -0.976481,-4.43026 -1.025875,-5.535925 -0.24507,-2.762263 -0.642121,-5.81329 -0.949884,-6.820168 -0.222273,0.520537 -0.459744,1.743988 -0.699114,3.643756 -0.296364,2.336715 -0.759908,3.334093 -1.584407,3.334093 -0.433147,0 -0.723812,-0.391352 -1.029674,-0.805502 -0.362856,-0.480641 -0.775106,-1.029674 -1.373533,-1.008777 a 3.5639651,3.5639651 0 0 0 -1.662297,0.533835 13.27748,13.27748 0 0 0 26.520764,0.189977 c -0.440746,-0.355257 -1.580607,-1.272845 -2.110642,-1.272845 -0.112087,0.0418 -0.436947,0.476842 -0.640222,0.894791 z"
       class="cls-1" />
  </g>
</svg>
