<svg xmlns="http://www.w3.org/2000/svg" width="64" height="64"><switch><g><circle cx="32" cy="32" r="32" fill-rule="evenodd" clip-rule="evenodd" fill="#fdc151"/><path d="M32 12.6c-6.8 0-12.4 5.5-12.4 12.2 0 2.6.8 5 2.3 7.1l.3.5 6.5 9s.8 1.3 2.5 1.3h1.5c1.7 0 2.5-1.3 2.5-1.3l6.5-9 .3-.5c1.5-2.1 2.3-4.6 2.3-7.1.1-6.7-5.5-12.2-12.3-12.2zm5.1 15.8l-.3.5-4.8 6.6-4.8-6.6-.3-.5c-.8-1-1.2-2.3-1.2-3.6 0-3.4 2.8-6.2 6.3-6.2s6.3 2.8 6.3 6.2c0 1.3-.4 2.5-1.2 3.6zm-8.6 19.7c0-1.8 1.5-3.4 3.5-3.4s3.4 1.5 3.4 3.3c0 1.8-1.5 3.3-3.5 3.3-1.9.1-3.4-1.4-3.4-3.2z" fill-rule="evenodd" clip-rule="evenodd" fill="#00a082"/></g></switch></svg>