<svg xmlns="http://www.w3.org/2000/svg" viewBox="0.56 -0.3 64 64" width="64" height="64" fill-rule="evenodd"><path d="M1.498-.3h5.267c.505 0 .902.397.902.938v5.267a.93.93 0 0 1-.938.938h-5.23a.93.93 0 0 1-.938-.938V.638A.93.93 0 0 1 1.498-.3z" fill="#bcd918"/><path d="M15.712-.3h47.9a.93.93 0 0 1 .938.938v5.267a.93.93 0 0 1-.938.938h-47.9a.93.93 0 0 1-.938-.938V.638a.93.93 0 0 1 .938-.938z" fill="#04bdd9"/><path d="M63.622 13.914h-5.267a.93.93 0 0 0-.938.938v5.267a.93.93 0 0 0 .938.938h5.267a.93.93 0 0 0 .938-.938v-5.267c-.036-.54-.433-.938-.938-.938z" fill="#bcd918"/><path d="M35.194 13.914H1.498c-.505 0-.938.433-.938.938v5.267c0 .505.433.938.938.938h33.696a.93.93 0 0 0 .938-.938v-5.267a.93.93 0 0 0-.938-.938z" fill="#04bdd9"/><path d="M49.408 13.914H44.14a.93.93 0 0 0-.938.938v5.267a.93.93 0 0 0 .938.938h5.267a.93.93 0 0 0 .938-.938v-5.267a.93.93 0 0 0-.938-.938z" fill="#bcd918"/><path d="M49.408 28.128H15.712a.93.93 0 0 0-.938.938v5.267c0 .505.433.938.938.938h33.696a.93.93 0 0 0 .938-.938V29.03c0-.505-.433-.902-.938-.902z" fill="#04bdd9"/><path d="M63.622 28.128h-5.267a.93.93 0 0 0-.938.938v5.267a.93.93 0 0 0 .938.938h5.267a.93.93 0 0 0 .938-.938V29.03c-.036-.505-.433-.902-.938-.902zm-56.857 0H1.498a.93.93 0 0 0-.938.938v5.267c0 .505.433.938.938.938h5.267a.93.93 0 0 0 .938-.938V29.03c-.036-.505-.433-.902-.938-.902zM1.498 42.343h5.267a.93.93 0 0 1 .938.938v5.267a.93.93 0 0 1-.938.938H1.498a.93.93 0 0 1-.938-.938V43.28a.93.93 0 0 1 .938-.938z" fill="#bcd918"/><path d="M29.926 42.343h33.696a.93.93 0 0 1 .938.938v5.267c0 .505-.433.938-.938.938H29.926a.93.93 0 0 1-.938-.938V43.28a.93.93 0 0 1 .938-.938z" fill="#04bdd9"/><path d="M15.712 42.343h5.267a.93.93 0 0 1 .938.938v5.267a.93.93 0 0 1-.938.938h-5.267a.93.93 0 0 1-.938-.938V43.28a.93.93 0 0 1 .938-.938zm47.9 14.214h-5.267a.93.93 0 0 0-.938.938v5.267a.93.93 0 0 0 .938.938h5.267a.93.93 0 0 0 .938-.938v-5.267c-.036-.505-.433-.938-.938-.938z" fill="#bcd918"/><path d="M49.408 56.557h-47.9a.93.93 0 0 0-.938.938v5.267a.93.93 0 0 0 .938.938h47.9a.93.93 0 0 0 .938-.938v-5.267c0-.505-.433-.938-.938-.938z" fill="#04bdd9"/></svg>