<?xml version="1.0" encoding="UTF-8" standalone="no"?>
<!-- Generator: Adobe Illustrator 18.1.1, SVG Export Plug-In . SVG Version: 6.00 Build 0)  -->

<svg
   xmlns:dc="http://purl.org/dc/elements/1.1/"
   xmlns:cc="http://creativecommons.org/ns#"
   xmlns:rdf="http://www.w3.org/1999/02/22-rdf-syntax-ns#"
   xmlns:svg="http://www.w3.org/2000/svg"
   xmlns="http://www.w3.org/2000/svg"
   xmlns:sodipodi="http://sodipodi.sourceforge.net/DTD/sodipodi-0.dtd"
   xmlns:inkscape="http://www.inkscape.org/namespaces/inkscape"
   version="1.1"
   id="Layer_1"
   x="0px"
   y="0px"
   viewBox="0 0 64 63.999998"
   enable-background="new 0 0 130.3 40.9"
   xml:space="preserve"
   sodipodi:docname="caspio-icon.svg"
   width="64"
   height="64"
   inkscape:version="0.92.4 (5da689c313, 2019-01-14)"><metadata
   id="metadata31"><rdf:RDF><cc:Work
       rdf:about=""><dc:format>image/svg+xml</dc:format><dc:type
         rdf:resource="http://purl.org/dc/dcmitype/StillImage" /><dc:title></dc:title></cc:Work></rdf:RDF></metadata><defs
   id="defs29" /><sodipodi:namedview
   pagecolor="#ffffff"
   bordercolor="#666666"
   borderopacity="1"
   objecttolerance="10"
   gridtolerance="10"
   guidetolerance="10"
   inkscape:pageopacity="0"
   inkscape:pageshadow="2"
   inkscape:window-width="1920"
   inkscape:window-height="1001"
   id="namedview27"
   showgrid="false"
   inkscape:zoom="2.6016884"
   inkscape:cx="65.150002"
   inkscape:cy="20.450001"
   inkscape:window-x="-9"
   inkscape:window-y="-9"
   inkscape:window-maximized="1"
   inkscape:current-layer="Layer_1" />











<g
   id="g907"
   transform="matrix(1.6202839,0,0,1.6202839,-128.23543,-16.608516)"><g
     transform="matrix(1.6116232,0,0,1.6116232,-34.784212,-22.542159)"
     id="g866"><path
       d="m 81.785635,25.49939 c -0.07032,0.210969 -0.351615,0.351615 -0.562584,0.281292 l -3.375503,-1.195491 c -0.210969,-0.07032 -0.351615,-0.351615 -0.281292,-0.562584 l 1.195491,-3.375503 c 0.07032,-0.210969 0.351614,-0.351615 0.562583,-0.281292 l 3.375504,1.19549 c 0.210969,0.07032 0.351615,0.351615 0.281292,0.562584 l -1.195491,3.375504"
       id="path4"
       inkscape:connector-curvature="0"
       style="fill:#b2d0e1;stroke-width:0.7032299" /><path
       d="m 88.044381,31.406521 c -0.07032,0.210969 -0.351615,0.351615 -0.562584,0.281292 l -3.375503,-1.195491 c -0.210969,-0.07032 -0.351615,-0.351615 -0.281292,-0.562584 l 1.19549,-3.375503 c 0.07032,-0.210969 0.351615,-0.351615 0.562584,-0.281292 l 3.375504,1.19549 c 0.210969,0.07032 0.351615,0.351615 0.281292,0.562584 l -1.195491,3.375504"
       id="path6"
       inkscape:connector-curvature="0"
       style="fill:#72aac9;stroke-width:0.7032299" /><path
       d="m 81.293374,34.571055 c -0.07032,0.210969 -0.351615,0.351615 -0.562584,0.281292 l -3.375503,-1.195491 c -0.210969,-0.07032 -0.351615,-0.351615 -0.281292,-0.562583 l 1.195491,-3.375504 c 0.07032,-0.210969 0.351615,-0.351615 0.562584,-0.281292 l 3.375503,1.195491 c 0.210969,0.07032 0.351615,0.351615 0.281292,0.562584 l -1.195491,3.375503"
       id="path8"
       inkscape:connector-curvature="0"
       style="fill:#72aac9;stroke-width:0.7032299" /><path
       d="m 87.55212,39.63431 c -0.07032,0.210969 -0.351615,0.351615 -0.562584,0.281292 l -3.375503,-1.19549 c -0.210969,-0.07032 -0.351615,-0.351615 -0.281292,-0.562584 l 1.195491,-3.375504 c 0.07032,-0.210969 0.351615,-0.351615 0.562583,-0.281292 l 3.375504,1.195491 c 0.210969,0.07032 0.351615,0.351615 0.281292,0.562584 L 87.55212,39.63431"
       id="path10"
       inkscape:connector-curvature="0"
       style="fill:#3383b1;stroke-width:0.7032299" /><path
       d="m 85.864368,44.55692 c -0.07032,0.210969 -0.351615,0.351614 -0.562584,0.281292 l -3.375503,-1.195491 c -0.210969,-0.07032 -0.351615,-0.351615 -0.281292,-0.562584 l 1.195491,-3.375504 c 0.07032,-0.210969 0.351615,-0.351615 0.562584,-0.281292 l 3.375503,1.195491 c 0.210969,0.07032 0.351615,0.351615 0.281292,0.562584 l -1.195491,3.375504"
       id="path12"
       inkscape:connector-curvature="0"
       style="fill:#00649e;stroke-width:0.7032299" /><path
       d="m 80.871436,42.798845 c -0.07032,0.210969 -0.351615,0.351615 -0.562584,0.281292 l -3.375503,-1.195491 c -0.210969,-0.07032 -0.351615,-0.351615 -0.281292,-0.562584 l 1.195491,-3.375503 c 0.07032,-0.210969 0.351615,-0.351615 0.562584,-0.281292 l 3.375503,1.195491 c 0.210969,0.07032 0.351615,0.351614 0.281292,0.562583 l -1.195491,3.375504"
       id="path14"
       inkscape:connector-curvature="0"
       style="fill:#3383b1;stroke-width:0.7032299" /></g></g>
</svg>