<svg xmlns="http://www.w3.org/2000/svg" viewBox="-3.68 48.92 120 60" width="120" height="60"><path d="M72.477 74.772v.642h-4.06v-.54c0-1.413-.95-2.517-3.237-2.517-1.9 0-2.903.822-2.903 2.03 0 1.464.976 1.85 4.187 2.928 4.778 1.336 6.242 2.748 6.242 5.857 0 3.622-2.98 5.65-7.372 5.65-5.112 0-7.45-2.312-7.45-5.857v-.848h4.06v.565c0 1.772 1.182 2.8 3.493 2.8 2.004 0 3.134-.77 3.134-2.08 0-1.516-.745-1.9-4.3-3.03-4.495-1.207-6.14-2.594-6.14-5.78 0-3.262 2.67-5.523 7.14-5.523 4.906-.05 7.192 2.286 7.192 5.702zM26.06 84.84h3.75c1.3 0 2.774-.565 2.774-2.2 0-1.798-2.004-2.08-3.365-2.08h-3.16zm0-7.8h3.005c1.284 0 2.62-.54 2.62-2.055 0-1.567-1.5-1.978-2.8-1.978H26.06zm-4.136-7.526h7.038c3.314 0 6.9.694 6.9 4.803 0 2.106-1.3 3.545-3.262 4.16v.05c2.466.308 4.136 2.158 4.136 4.598 0 3.93-3.725 5.24-7.1 5.24h-7.732zM74.352 88.36V69.506h4.136v7.013h8.1v-7.013h4.136V88.36H86.58v-8.143h-8.1v8.143z" fill="#16211f"/><path d="M45.43 78.702a1.83 1.83 0 0 1 1.798-1.618c1.002 0 1.798.796 1.798 1.798a1.76 1.76 0 0 1-1.027 1.618s-.05.05-.077.103a.15.15 0 0 0 .051.128l2.158 1.54c.077.05.154.077.23.077s.154-.05.205-.077c.873-.873 1.413-2.055 1.413-3.365a4.76 4.76 0 0 0-4.752-4.752c-1.875 0-3.52 1.105-4.3 2.697-.026.026-.05.154-.026.23.026.103.103.154.103.154l2.2 1.593c.026 0 .077.05.128.026.077-.077.077-.128.077-.154z" fill="#2261ae"/><path d="M53.674 79.447c-.283 3.314-3.057 5.934-6.447 5.934H47.2c-3.442-.026-6.242-2.723-6.422-6.113 0-.026 0-.154-.103-.257-.077-.077-.205-.103-.283-.103H37.8c-.154 0-.257.026-.36.103s-.103.257-.077.36v.154c.308 5.163 4.598 9.247 9.838 9.273h.026c4.47 0 8.27-3.005 9.478-7.1.026-.05.05-.18.026-.334-.026-.103-.103-.18-.154-.23L54.06 79.3c-.05-.026-.128-.077-.257-.026-.103.026-.128.128-.128.154z" fill="#16211f"/><path d="M40.78 78.368c.283-3.314 3.057-5.934 6.447-5.934h.026c3.442.026 6.242 2.723 6.422 6.113 0 .026 0 .154.103.257.077.077.205.103.283.103h2.594c.154 0 .257-.026.36-.103s.103-.257.077-.36V78.3c-.308-5.163-4.598-9.247-9.838-9.273h-.026c-4.47 0-8.27 3.005-9.478 7.1-.026.05-.05.18-.026.334.026.103.103.18.154.23l2.517 1.824c.05.026.128.077.257.026.103-.026.128-.154.128-.154z" fill="#00bce7"/></svg>