<svg xmlns="http://www.w3.org/2000/svg" width="120" height="60" fill="#2c3458"><path d="M60.07 26.668c.33-.2.8-.318 1.412-.318.73 0 1.355.14 1.884.416s.652.344 1.52 1.124l1.56-1.802c-.672-.744-1.4-1.278-2.182-1.607s-1.73-.493-2.84-.493c-1.037 0-1.935.164-2.695.488s-1.335.775-1.73 1.35-.6 1.232-.6 1.96.18 1.33.54 1.802.868.847 1.52 1.124 1.484.513 2.485.714c.8.154 1.4.313 1.74.488s.524.4.524.662c0 .344-.164.606-.488.785-.323.185-.8.272-1.458.272-.8 0-1.5-.128-2.084-.4-.575-.257-1.063-.575-1.674-1.18l-1.437 1.956c.6.672 1.314 1.17 2.14 1.494s1.894.488 3.22.488c.945 0 1.786-.144 2.536-.426s1.335-.693 1.76-1.237.637-1.186.637-1.925c0-1.027-.344-1.822-1.032-2.387s-1.843-.996-3.455-1.3c-.837-.154-1.427-.318-1.776-.503s-.524-.42-.524-.714c-.005-.354.16-.637.488-.852zm11.715.144c-1.473 0-2.608.4-3.4 1.2s-1.2 1.93-1.2 3.393.4 2.592 1.227 3.393 2.002 1.2 3.542 1.2c1.037 0 1.9-.195 2.623-.6a2.99 2.99 0 0 0 1.443-1.725l-2.438-.775c-.092.318-.282.56-.554.724s-.63.246-1.068.246c-.518 0-.934-.128-1.247-.4-.313-.257-.513-.667-.6-1.222h6.027a4.75 4.75 0 0 0 .087-.991c0-1.412-.38-2.5-1.14-3.296-.76-.78-1.853-1.17-3.28-1.17zm-1.715 3.835c.175-1.155.744-1.73 1.694-1.73s1.484.575 1.627 1.73zm13.167-3.835c-.693 0-1.304.154-1.822.467s-.92.78-1.2 1.407l-.087-1.694h-2.685v8.835h3.003V31.16c0-.693.15-1.212.44-1.545a1.46 1.46 0 0 1 1.15-.503c.4 0 .708.128.93.38.216.252.33.683.33 1.283v5.056H86.3v-5.893c0-1-.277-1.77-.832-2.315s-1.3-.8-2.228-.8zm7.65 2.192c.236-.128.565-.195 1-.195.544 0 1.006.092 1.396.282s.724.488 1.006.903l1.555-1.52c-.4-.554-.924-.97-1.566-1.247s-1.468-.416-2.485-.416c-.92 0-1.7.14-2.34.416S88.32 27.87 88 28.315s-.477.924-.477 1.432a2.17 2.17 0 0 0 .842 1.786c.56.447 1.5.8 2.818 1.063.6.118 1.006.236 1.247.364.24.123.364.267.364.43 0 .2-.118.34-.354.452s-.56.17-.97.17c-1.237 0-2.08-.303-2.74-1.12l-1.427 1.56c.847 1.037 2.284 1.555 4.312 1.555 1.366 0 2.408-.267 3.126-.806.72-.534 1.078-1.232 1.078-2.094 0-.765-.287-1.37-.857-1.812s-1.504-.775-2.803-.996c-.6-.118-1.022-.236-1.263-.364-.24-.123-.364-.272-.364-.452.005-.195.123-.354.354-.483zm15.62 4.856c-.308 0-.518-.082-.637-.246s-.175-.447-.175-.847v-5.78h-3.003v5.216c-.062.42-.195.755-.406 1-.293.334-.688.503-1.186.503-.4 0-.72-.118-.92-.354s-.303-.642-.303-1.222v-5.144h-3.003V32.9c0 1.073.267 1.858.806 2.36.534.503 1.273.75 2.218.75 1.38 0 2.36-.53 2.936-1.58.108.38.267.688.493.92.426.44 1.1.662 2.048.662a4.28 4.28 0 0 0 1.006-.123 3.32 3.32 0 0 0 .832-.318l.195-1.853c-.318.103-.62.154-.903.154zm-56.694-3.863l-18.6-18.6-18.615 18.6 18.615 18.615zm-18.6-13.654L38.06 23.2c-2.243-.603-4.55-.913-6.856-.913a26 26 0 0 0-6.856.913zm-6.098 21.2a12.56 12.56 0 0 1 6.098-1.565c2.168 0 4.25.545 6.098 1.565l-6.098 6.098zM39.854 35c-2.633-1.677-5.64-2.52-8.65-2.52A16.08 16.08 0 0 0 22.553 35l-4.8-4.8c3.882-2.852 8.555-4.4 13.467-4.4 4.907 0 9.58 1.538 13.467 4.4z"/></svg>