<?xml version="1.0" encoding="UTF-8" standalone="no"?>
<!-- Generator: Adobe Illustrator 18.1.1, SVG Export Plug-In . SVG Version: 6.00 Build 0)  -->

<svg
   xmlns:dc="http://purl.org/dc/elements/1.1/"
   xmlns:cc="http://creativecommons.org/ns#"
   xmlns:rdf="http://www.w3.org/1999/02/22-rdf-syntax-ns#"
   xmlns:svg="http://www.w3.org/2000/svg"
   xmlns="http://www.w3.org/2000/svg"
   xmlns:sodipodi="http://sodipodi.sourceforge.net/DTD/sodipodi-0.dtd"
   xmlns:inkscape="http://www.inkscape.org/namespaces/inkscape"
   version="1.1"
   id="Layer_1"
   x="0px"
   y="0px"
   viewBox="0 0 64 64"
   enable-background="new 0 0 180 50"
   xml:space="preserve"
   sodipodi:docname="cosmopolitan-icon.svg"
   width="64"
   height="64"
   inkscape:version="0.92.3 (2405546, 2018-03-11)"><metadata
   id="metadata49"><rdf:RDF><cc:Work
       rdf:about=""><dc:format>image/svg+xml</dc:format><dc:type
         rdf:resource="http://purl.org/dc/dcmitype/StillImage" /><dc:title></dc:title></cc:Work></rdf:RDF></metadata><defs
   id="defs47"><clipPath
     id="SVGID_2_-7"><rect
       height="26.6"
       width="162.5"
       y="11.9"
       x="8.8000002"
       id="use5-6" /></clipPath></defs><sodipodi:namedview
   pagecolor="#ffffff"
   bordercolor="#666666"
   borderopacity="1"
   objecttolerance="10"
   gridtolerance="10"
   guidetolerance="10"
   inkscape:pageopacity="0"
   inkscape:pageshadow="2"
   inkscape:window-width="1920"
   inkscape:window-height="1001"
   id="namedview45"
   showgrid="false"
   inkscape:zoom="1.8833333"
   inkscape:cx="48.531425"
   inkscape:cy="25"
   inkscape:window-x="-9"
   inkscape:window-y="-9"
   inkscape:window-maximized="1"
   inkscape:current-layer="Layer_1" />

<path
   transform="matrix(2.4168447,0,0,2.4168447,-5.944462,-29.048521)"
   clip-path="url(#SVGID_2_-7)"
   d="m 22.5,27.6 h -4.3 c -0.1,2.2 0,4.6 -1,6.4 -0.3,0.6 -1,0.8 -1.7,0.7 -0.8,-0.2 -1.2,-1.1 -1.5,-1.8 -1,-4 -1,-8.9 -0.6,-13.2 0.2,-1.3 0.3,-2.7 1.3,-3.7 0.4,-0.3 1,-0.4 1.5,-0.2 0.9,0.4 1.2,1.4 1.4,2.3 0.2,1.3 0.2,2.7 0.4,4 h 4.3 c 0,-2.6 -0.3,-5.2 -1.6,-7.3 -1.3,-2.3 -4,-3.2 -6.5,-2.6 -3,0.6 -4.4,3.8 -4.9,6.4 0,0.3 -0.2,0.6 -0.1,0.9 0,0 -0.1,0 -0.1,0.1 -0.4,2.3 -0.4,4.7 -0.3,7 0.3,3.6 0.4,7.2 2.5,10 1.6,2 4.2,2.4 6.6,1.7 3.8,-1.4 4.5,-5.4 4.7,-9 -0.1,-0.6 0.1,-1.2 -0.1,-1.7"
   id="path16-9"
   inkscape:connector-curvature="0"
   style="fill:#ed1e7f" /></svg>