<svg xmlns="http://www.w3.org/2000/svg" xmlns:xlink="http://www.w3.org/1999/xlink" width="260" height="60"><g transform="matrix(1.506651 0 0 1.506651 -5.523249 -8.006059)"><defs><path id="A" d="M8.8 11.9h162.5v26.6H8.8z"/></defs><clipPath id="B"><use xlink:href="#A"/></clipPath><path clip-path="url(#B)" d="M82 31.6c-.3 1.1-.6 2.7-2 3-.7.1-1.4 0-1.9-.6-1-1.5-1.1-3.4-1.2-5.3-.2-4-.4-8.2.8-11.8.3-.6.9-1.2 1.6-1.2.8-.1 1.6.3 1.9 1 .8 1.5.8 3.3 1 5 .4 3.3.3 6.7-.2 9.9m2.5-17.3c-1.6-2-4.1-2.8-6.6-2.1-2.4.5-4.1 3-4.7 5.2-1.2 4.2-1.1 9.2-.5 13.6.5 2.7 1.5 5.8 4.4 7 2.2.8 5 .5 6.7-1.1 2.7-2.8 3-6.8 3.2-10.6.1-4-.1-7.8-1.9-11.1zM32.8 33.2c-.3.7-.9 1.5-1.7 1.6-.6.1-1.2-.1-1.6-.5-.9-.8-.9-1.9-1.2-3a48.19 48.19 0 0 1 .2-12.6c.3-1.1.6-2.6 2-2.9.9-.2 1.7.4 2.2 1.2 1 2.4 1 5.3 1 8.1-.1 2.8-.1 5.6-.9 8.1M30.7 12c-2.4.1-4.6 1.7-5.6 3.8-1.2 2.8-1.6 5.9-1.6 9.1.1 4.1.1 8.2 2.5 11.3 1.3 1.8 3.3 2.4 5.5 2.1 2.1-.1 4.1-1.7 5-3.6 1.4-3 1.7-6.5 1.7-10.1-.1-3.5-.3-7-1.9-9.8C35 13 33 11.9 30.7 12m19 13.8c-2-2.1-5.3-3.2-6-6.1-.1-1.4-.3-3.2 1.2-4 .4-.2.9-.1 1.3 0 .7.4 1 1.1 1.1 1.9.2.9.1 2.1.2 3.1h4.1c.1-2.1 0-4.1-.9-5.9a5.08 5.08 0 0 0-2.5-2.3c-1.9-.9-4.7-.7-6.4.7-2.3 1.9-2.9 5-2.3 7.8.8 3.2 4.3 5 6.6 7.2 1.3 1.1 1.7 2.6 1.5 4.2-.1 1-.6 2.1-1.7 2.4-.6.1-1.2 0-1.6-.4-1.3-1.4-1-3.6-1-5.5H39c-.2 2.6 0 5.3 1.6 7.3 1.6 1.8 4 2.3 6.4 1.9 2.2-.4 4.2-2.3 4.7-4.4.7-2.7.2-5.9-2-7.9m62.3 6.4c-.3.9-.6 2.1-1.7 2.5-.9.3-1.7-.1-2.2-.7-.7-.9-.7-2-.9-3-.6-3.9-.4-8.1 0-12 .2-1.1.6-2.3 1.6-2.9.7-.3 1.6-.2 2.2.4 1.1 1.4 1.1 3.2 1.4 5 .2 3.4.2 7.2-.4 10.7m-3.3-20.1c-2.2.1-4.2 1.9-5 3.8-1.5 3.6-1.6 7.8-1.4 12 .3 3.9.8 8.5 5 10.2 2.2.7 4.9.4 6.6-1.3 2.4-2.6 2.8-6.1 3.1-9.6.1-4-.1-8-1.6-11.4-1.1-2.5-3.8-4.2-6.7-3.7"/><path clip-path="url(#B)" d="M22.5 27.6h-4.3c-.1 2.2 0 4.6-1 6.4-.3.6-1 .8-1.7.7-.8-.2-1.2-1.1-1.5-1.8-1-4-1-8.9-.6-13.2.2-1.3.3-2.7 1.3-3.7.4-.3 1-.4 1.5-.2.9.4 1.2 1.4 1.4 2.3.2 1.3.2 2.7.4 4h4.3c0-2.6-.3-5.2-1.6-7.3-1.3-2.3-4-3.2-6.5-2.6-3 .6-4.4 3.8-4.9 6.4 0 .3-.2.6-.1.9 0 0-.1 0-.1.1-.4 2.3-.4 4.7-.3 7 .3 3.6.4 7.2 2.5 10 1.6 2 4.2 2.4 6.6 1.7 3.8-1.4 4.5-5.4 4.7-9-.1-.6.1-1.2-.1-1.7m39.6-.3l-.1.2-3.1-14.8h-6v25.2h3.9V20.5L59 31.3l1.3 6.6h3.1l3.5-16.6v16.6H71V12.6h-5.8zm34.4-2.8c-.9 1.1-2.4 1.1-3.8 1.1v-9.2c.1-.1 0-.2.1-.2 1.6-.1 3.3.1 4 1.7 1 1.8 1.1 4.8-.3 6.6m-.7-11.9h-7.6v25.2h4.4V29h2.5c1.8-.1 3.4-.6 4.7-2 2.5-2.6 2.7-6.9 1.5-10.2-.9-2.1-3.1-4.1-5.5-4.2"/><path d="M127.5 34.5H123V12.6h-4.3v25.3h8.8zm1-21.9h4.3v25.3h-4.3zm16.8 0h-11.7v3.6h3.8v21.7h4.2V16.2h3.7z"/><defs><path id="C" d="M8.8 11.9h162.5v26.6H8.8z"/></defs><clipPath id="D"><use xlink:href="#C"/></clipPath><path clip-path="url(#D)" d="M149.3 27.3l1.3-9.1v-.1l1.4 9.3h-2.7zm-1.7-14.7l-4.2 25.3h4.2l1.2-7.1h3.8l1.2 7h4l-4.3-25.3h-5.9zm20 0V28l-4.1-15.4h-4.8v25.3h3.6v-16c.2.5 4.2 16 4.2 16h4.6V12.6z"/></g></svg>