<svg xmlns="http://www.w3.org/2000/svg" width="304" height="73" viewBox="0 0 303.044 72.375" overflow="visible" fill-rule="evenodd"><path d="M94.282 49.116c-2.76-5.03-7.465-7.032-12.928-7.032-7.95 0-14.28 5.625-14.28 15.146 0 9.682 5.95 15.145 14.55 15.145 5.517 0 10.223-3.03 12.82-7.627l-6.058-3.083c-1.353 3.246-3.408 4.22-6.004 4.22-4.5 0-6.545-3.732-6.545-8.654s1.73-8.655 6.545-8.655c1.298 0 3.895.703 5.4 3.95l6.492-3.4zm15.464-.54c4.814 0 6.87 3.732 6.87 8.33 0 5.247-2.056 8.98-6.87 8.98s-6.87-3.732-6.87-8.654 2.055-8.655 6.87-8.655zm0-6.5c-8.98 0-15.307 5.463-15.307 15.146s6.328 15.145 15.307 15.145 15.308-5.463 15.308-15.145-6.33-15.146-15.308-15.146zm17.037 29.54h8.438V53.714c0-2.596 1.082-4.814 4.5-4.814 3.246 0 4.1 1.893 4.1 4.706v18.012h8.438V53.93c0-2.92 1.46-5.03 4.273-5.03 3.2 0 4.327 1.84 4.327 5.896v16.82h8.438v-21.96c0-6.6-6.058-7.573-8.87-7.573-3.354 0-6.5 1.028-9.25 3.84-1.894-2.542-4.327-3.84-7.627-3.84-2.596 0-6.166.757-8.33 3.3V42.84h-8.438v28.775zm45.214 0h8.438V53.714c0-2.596 1.082-4.814 4.5-4.814 3.246 0 4.1 1.893 4.1 4.706v18.012h8.438V53.93c0-2.92 1.46-5.03 4.272-5.03 3.2 0 4.328 1.84 4.328 5.896v16.82h8.438v-21.96c0-6.6-6.06-7.573-8.87-7.573-3.354 0-6.5 1.028-9.25 3.84-1.893-2.542-4.327-3.84-7.627-3.84-2.596 0-6.166.757-8.33 3.3V42.84h-8.438v28.775zm59.547-23.04c4.813 0 6.87 3.732 6.87 8.33 0 5.247-2.056 8.98-6.87 8.98s-6.87-3.732-6.87-8.654 2.056-8.655 6.87-8.655zm0-6.5c-8.98 0-15.308 5.463-15.308 15.146s6.328 15.145 15.308 15.145 15.308-5.463 15.308-15.145-6.33-15.146-15.308-15.146zm17.578 29.532h8.438V53.714c0-2.596 1.082-4.814 4.5-4.814 3.245 0 4.1 1.893 4.1 4.706v18.012h8.438V50.36c0-4.327-1.894-8.276-8.7-8.276-2.596 0-6.166.757-8.33 3.3v-2.542h-8.438v28.775zm53.652-25.357c-3.895-2.596-8.275-4.165-12.7-4.165-5.843 0-12.17 2.813-12.17 10.06 0 10.223 17.038 6.653 17.038 11.143 0 2.597-3.2 2.92-4.598 2.92-3.84 0-6.5-1.568-9.087-4.057L276 66.694c4.22 3.895 7.8 5.68 14.064 5.68s12.98-2.705 12.98-10.277c0-10.764-17.038-6.707-17.038-11.63 0-1.46 1.514-2.217 3.623-2.217 2.65 0 6.275 1.082 7.95 3.083l5.195-5.086zM94.282 16c-2.76-5.03-7.465-7.032-12.928-7.032-7.95 0-14.28 5.625-14.28 15.145 0 9.682 5.95 15.146 14.55 15.146 5.517 0 10.223-3.03 12.82-7.627l-6.058-3.083c-1.353 3.246-3.408 4.22-6.004 4.22-4.5 0-6.545-3.732-6.545-8.655s1.73-8.654 6.545-8.654c1.298 0 3.895.703 5.4 3.95l6.492-3.408zm2.058 22.512h8.438v-16.66c0-3.2 2-4.057 7.032-4.652l.92-.108-.054-7.464c-2.975.217-6.058 1.298-7.897 3.03v-2.92h-8.44v28.776zm45.046-12.657c-.054-8.87-3.624-16.876-14.118-16.876-8.763 0-14.118 5.842-14.118 16 0 8.113 5.193 14.28 14.118 14.28 6.437 0 11.034-2.542 13.955-7.95l-6.33-3.3c-2.434 3.462-3.895 5.084-7.032 5.084-2.704 0-6.22-1.73-6.274-7.248h19.798zm-19.905-5.192c.378-3.787 3.3-5.517 5.733-5.517s5.463 1.298 5.733 5.517H121.48zm39.26 5.84c0 4.38-2.488 6.6-5.788 6.6-2.056 0-3.95-.974-3.95-3.245 0-2.326 1.947-3.137 4.057-3.732l5.68-1.623v2zm8.113-9.195c-.054-6.5-4.976-8.33-12.82-8.33-3.895 0-11.575.757-11.846 9.033h8.114c.433-2.867 1.73-3.84 4.435-3.84 2.272 0 4.003.92 4.003 3.083v2.38l-3.083.433C148.462 21.365 142.9 23.8 142.9 30.723c0 5.517 4.1 8.546 9.628 8.546 3.03 0 7.248-1.46 8.654-3.732h.108c.054.974.217 2 .54 2.975h7.8c-.703-1.785-.757-4.002-.757-6.004v-15.2zm19.845-7.032h-5.03v-8.33h-8.438v8.33h-4.1v5.192h4.1v15.146c0 4.165 1.028 8.654 8.223 8.654 1.84 0 4.327-.216 5.4-.325V32.3a25.03 25.03 0 0 1-2.542.162c-1.516 0-2.65-.595-2.65-2.867V15.47h5.03v-5.193zm3.177-.54v28.776h8.438V9.736h-8.438zm8.44-3.245V0h-8.438v6.5h8.438zm11.354 32.02h8.492l9.845-28.776h-8.98l-4.977 20.338h-.107l-4.978-20.338h-9.032zm45.586-12.656c-.054-8.87-3.624-16.876-14.117-16.876-8.764 0-14.117 5.842-14.117 16 0 8.113 5.2 14.28 14.117 14.28 6.437 0 11.034-2.542 13.955-7.95l-6.33-3.3c-2.434 3.462-3.895 5.084-7.03 5.084-2.704 0-6.22-1.73-6.274-7.248h19.796zm-19.905-5.192c.38-3.787 3.3-5.517 5.733-5.517s5.464 1.298 5.734 5.517H237.35zM31.602 8.495c-8.682 0-16.322 3.213-22.226 9.203C3.3 23.863 0 31.85 0 40.185c0 8.42 3.212 16.235 9.3 22.313s13.978 9.376 22.312 9.376 16.4-3.3 22.66-9.463c5.904-5.817 9.03-13.544 9.03-22.226 0-8.595-3.125-16.4-9.116-22.4-6.077-6.077-13.9-9.3-22.573-9.3zm.087 5.73c7.12 0 13.457 2.7 18.406 7.64 4.86 4.862 7.466 11.287 7.466 18.32 0 7.12-2.518 13.37-7.38 18.146-5.123 5.035-11.72 7.727-18.493 7.727-6.86 0-13.284-2.7-18.232-7.64S5.73 46.957 5.73 40.185c0-6.86 2.778-13.37 7.727-18.406 4.863-4.95 11.113-7.553 18.243-7.553zm-.4 20.695c-1.8-3.264-4.844-4.563-8.4-4.563-5.16 0-9.267 3.65-9.267 9.83 0 6.283 3.86 9.83 9.443 9.83 3.58 0 6.634-1.966 8.32-4.95l-3.932-2c-.878 2.106-2.2 2.738-3.896 2.738-2.914 0-4.247-2.422-4.247-5.616s1.123-5.617 4.247-5.617c.842 0 2.527.457 3.5 2.562l4.212-2.212zm18.282 0c-1.8-3.264-4.844-4.563-8.4-4.563-5.16 0-9.268 3.65-9.268 9.83 0 6.283 3.862 9.83 9.443 9.83 3.58 0 6.634-1.966 8.32-4.95l-3.932-2c-.877 2.106-2.2 2.738-3.896 2.738-2.913 0-4.248-2.422-4.248-5.616s1.124-5.617 4.248-5.617c.842 0 2.527.457 3.5 2.562l4.212-2.212z"/></svg>