<svg xmlns="http://www.w3.org/2000/svg" width="120" height="60"><path d="M13.75 24.632c0 1.22.328 1.313 1.735 1.36v.422h-5.438v-.422c1.125-.047 1.453-.188 1.453-1.36v-7.876c0-1.22-.328-1.313-1.406-1.36v-.422h9.564l.047 2.532h-.47c-.375-1.266-.844-1.688-3.094-1.688h-1.78c-.563 0-.656.094-.656.6v3.657h1.97c1.828 0 2.203-.328 2.4-1.5h.422v4.08h-.422c-.234-1.36-.938-1.735-2.4-1.735h-1.97v3.704zm11.346 0c0 1.22.328 1.313 1.735 1.36v.422h-5.72v-.422c1.36-.047 1.735-.188 1.735-1.36v-7.876c0-1.22-.28-1.313-1.735-1.36v-.422h5.72v.422c-1.36.047-1.735.188-1.735 1.36zm13.596-7.595c0-1.125-.28-1.594-1.594-1.735v-.422h4.08v.422c-1.266.14-1.594.6-1.594 1.735v9.6h-.6l-7.876-9.095V24.2c0 1.125.28 1.594 1.594 1.735v.422h-4.08v-.422c1.266-.14 1.594-.6 1.594-1.735v-7.7c-.375-.703-.844-1.03-1.594-1.172v-.422h3.14l6.892 7.97v-5.86zm6.142 5.25l1.735-4.548 1.735 4.548zm8.25 4.126v-.422c-.9 0-1.078-.328-1.5-1.406l-4.08-9.94h-.563l-4.22 10.267c-.28.75-.703.938-1.406 1.078v.422h3.704V26c-.797 0-1.172-.188-1.172-.75 0-.47.563-1.782.656-2.1h4.173c.14.375.703 1.688.703 2.1 0 .563-.422.75-1.22.75v.422zM64.3 17.037c0-1.125-.28-1.594-1.594-1.735v-.422h4.08v.422c-1.266.14-1.594.6-1.594 1.735v9.6h-.6l-7.876-9.095V24.2c0 1.125.28 1.594 1.594 1.735v.422h-4.1v-.422c1.266-.14 1.594-.6 1.594-1.735v-7.7c-.375-.703-.844-1.03-1.594-1.172v-.422h3.14l6.892 7.97zm14.58 6.704c-1.22 2.063-2.813 3-5.157 3-3.75 0-6-2.438-6-6.142 0-2.625 2.063-5.954 6.095-5.954 1.22 0 2.907.703 3.188.703.328 0 .422-.188.75-.703h.6l.234 3.844h-.47c-.703-1.782-1.875-3.094-3.9-3.094-2.72 0-3.9 2.954-3.9 5.157 0 3.094 1.313 5.204 4.22 5.204 2.25 0 3.47-1.688 3.985-2.4zm5.532.9c0 1.22.328 1.313 1.735 1.36v.422h-5.72v-.422c1.36-.047 1.735-.188 1.735-1.36v-7.876c0-1.22-.328-1.313-1.735-1.36v-.422h5.72v.422c-1.36.047-1.735.188-1.735 1.36zm6.47-2.344l1.735-4.548 1.735 4.548zm8.25 4.126v-.422c-.9 0-1.078-.328-1.5-1.406l-4.08-9.94h-.563l-4.22 10.267c-.28.75-.703.938-1.406 1.078v.422h3.704V26c-.797 0-1.172-.188-1.172-.75 0-.47.563-1.782.656-2.1h4.173c.14.375.703 1.688.703 2.1 0 .563-.422.75-1.22.75v.422zm1.03 0v-.422c1.078-.047 1.406-.188 1.406-1.36v-7.876c0-1.22-.328-1.313-1.406-1.36v-.422h5.298v.422c-1.266.047-1.594.188-1.594 1.36v8.1c0 .703.188.938 1.453.938 2.063 0 3.282-.375 4.266-2.4H110l-.797 3.094h-9.142v-.094zm-87.67 18.2c1.313-.047 1.64-.188 1.64-1.36v-8.86H12.72c-1.313 0-1.875.563-2.25 2.1H10l.28-2.954h10.127l.28 2.954h-.47c-.375-1.594-.9-2.1-2.25-2.1H16.56v8.86c0 1.22.328 1.313 1.64 1.36v.422H12.67v-.422zm13.315-1.36c0 1.22.328 1.313 1.735 1.36v.422h-5.72v-.422c1.36-.047 1.735-.188 1.735-1.36v-7.876c0-1.22-.328-1.313-1.735-1.36v-.422h5.72v.422c-1.36.047-1.735.188-1.735 1.36zm13.83-9.752h3.985v.422c-1.078.047-1.406.188-1.406 1.36v7.923c0 1.22.328 1.313 1.406 1.36v.422H38.4v-.422c1.125-.047 1.453-.188 1.453-1.36v-8.1h-.047l-3.844 10.08H35.4l-3.797-10.08h-.047v7.782c0 1.125.28 1.594 1.594 1.735v.422h-4.08v-.422c1.266-.14 1.594-.6 1.594-1.735v-7.876c0-.797-.328-1.078-1.594-1.078v-.422h4.173L36.3 41.5zm5.58 11.533v-.422c1.078-.047 1.406-.188 1.406-1.36v-7.876c0-1.22-.328-1.313-1.406-1.36v-.422h9.6l.047 2.532h-.47c-.375-1.266-.844-1.688-3.094-1.688h-1.782c-.563 0-.656.094-.656.6v3.657h1.97c1.828 0 2.203-.328 2.4-1.5h.422v4.08h-.422c-.234-1.36-.938-1.688-2.4-1.688h-1.97v3.985c0 .703.188.938 2.25.938s3.282-.375 4.266-2.4h.422l-.797 3.094H45.12v-.188zm12.2-3.6h.422c.47 1.5 1.97 3.14 3.657 3.14 1.453 0 1.97-1.03 1.97-1.922 0-2.672-6-3.14-6-6.423 0-1.594 1.5-2.954 3.282-2.954 1.735 0 2.344.6 3.094.6.328 0 .563-.234.6-.6h.422v3.704h-.422c-.47-1.688-1.688-2.907-3.235-2.907-1.266 0-1.782.844-1.782 1.64 0 2.344 6 2.4 6 6.47 0 1.828-1.453 3.188-3.563 3.188-2.016 0-2.532-.703-3.33-.703-.28 0-.47.188-.6.6h-.6z"/></svg>