<svg xmlns="http://www.w3.org/2000/svg" xmlns:xlink="http://www.w3.org/1999/xlink" viewBox="-0.92 0.46 120 60" width="120" height="60"><defs><clipPath id="A"><use xlink:href="#C"/></clipPath><clipPath id="B"><use xlink:href="#D"/></clipPath><path id="C" d="M-28-10h413v309.8H-28z"/><path id="D" d="M-28-10h413v309.8H-28z"/></defs><g transform="translate(-.199)"><g transform="matrix(1.243619 0 0 1.243619 39.71822 -33.69937)"><path clip-path="url(#B)" transform="matrix(.147307 0 0 .147307 5.713045 13.2322)" d="M306.9 265.7l-7.7 8.1v8.7h-4.9v-44.7h4.9v29.7l16.8-17.2h6.1l-11.7 11.9 12.3 20.3h-5.8z" fill="#32324b"/><g transform="matrix(.147307 0 0 .147307 5.713045 13.232141)" fill="#32324b"><path clip-path="url(#A)" d="M48.3 249.4h8.6l-9.5 33.1h-10l-5.6-22.3-5.6 22.3H16.1l-9.4-33.1h8.5l6.4 23.8 6.3-23.8h7.8l6.3 23.8z"/><path d="M88.3 271.7c-1 6.6-6 11.3-14.7 11.3-9.2 0-16.1-5.6-16.1-16.8 0-11.3 7.1-17.2 16.1-17.2 10 0 15.2 7.3 15.2 17.1v1.8H65.9c0 3.7 1.5 8.3 7.5 8.3 3.3 0 5.9-1.6 6.6-4.7zm-8.2-9.7c-.3-4.6-3.3-6.3-6.6-6.3-3.9 0-6.8 2.4-7.3 6.3zm33.1-.9V260c0-2.6-1.1-4.3-6-4.3-6.1 0-6.3 3.4-6.3 4.5H93c0-4.9 2.1-11.2 14.4-11.2 11.8 0 13.9 5.9 13.9 10.6v18.2c0 1.3.1 2.4.2 3.3l.2 1.4h-8.3v-3.3c-2.4 2.4-5.6 3.7-10.3 3.7-6.5 0-11.5-3.8-11.5-10.4 0-7.6 7.2-9.2 10.1-9.7zm0 6.2l-3.2.5-5.1.8c-1.4.2-2.6.5-3.5 1.3-.8.7-1.3 1.6-1.3 2.7 0 1 .4 4 4.9 4 2.7 0 5-1 6.3-2.2 1.6-1.6 1.9-3.7 1.9-5.3zm9.6-17.9h9l7.6 25.3 7.7-25.3h8.7l-11 33.1h-11.1zm64.1 22.3c-1 6.6-6 11.3-14.7 11.3-9.2 0-16.1-5.6-16.1-16.8 0-11.3 7.1-17.2 16.1-17.2 10 0 15.2 7.3 15.2 17.1v1.8h-22.8c0 3.7 1.5 8.3 7.5 8.3 3.3 0 5.9-1.6 6.6-4.7zm-8.2-9.7c-.3-4.6-3.3-6.3-6.6-6.3-3.9 0-6.8 2.4-7.3 6.3zm23.5 15.6l7.6-27.3h5.6l7.6 27.3 7.6-27.3h5l-9.7 32.2h-6l-7.4-26.7-7.4 26.7h-6l-9.6-32.2h5.2zm50.1 5.4c-8.8 0-14.8-5.6-14.8-16.6 0-10.9 6-16.6 14.8-16.6 8.7 0 14.7 5.6 14.7 16.6 0 11.1-6 16.6-14.7 16.6m0-4.2c5.6 0 9.7-3.4 9.7-12.4 0-8.9-4.1-12.4-9.7-12.4s-9.7 3.4-9.7 12.4c-.1 9 4 12.4 9.7 12.4m34.9-23.5c-5.8 0-9.8 2-9.8 9.6v17.6h-5v-32.3h4.9v5.6c2.1-4.1 6.4-5.6 9.8-5.6h2.3v5.1zm57.9 3.8c-.3-3.9-3.4-5.1-7.4-5.1-3.4 0-7.7 1.1-7.7 4.9 0 8.2 21.1.7 21.1 13.8 0 4.4-2.5 10.2-13.8 10.2-8.6 0-12.8-4.4-12.9-10.3h5.4c.1 3.6 2.4 6.1 8.1 6.1 6.6 0 8.2-2.8 8.2-5.7 0-6.1-11.2-3.5-17.3-6.9-2.2-1.3-3.8-3.3-3.8-6.9 0-5.3 5-9.4 12.8-9.4 9.6 0 12.4 5.6 12.6 9.2h-5.3z" clip-path="url(#B)"/></g></g><g transform="matrix(.19196 0 0 .19196 -8.920466 11.043249)"><path clip-path="url(#B)" d="M139.3 112.9l97-86.6c-7.7-6.1-16.3-11-25.7-14.4l-71.3 63.7zm-27.9-12.5l-26.3 23.5a96.21 96.21 0 0 0 11.4 27.2l14.9-13.3z" fill="#32324b"/><path clip-path="url(#B)" d="M191.1 29.2V7c-4.4-.6-9-1-13.6-1-4.8 0-9.6.4-14.2 1.1v47.1zm0 130.9V66.6l-27.9 24.9v103.7c4.6.7 9.4 1.1 14.2 1.1a90.71 90.71 0 0 0 16.6-1.5l74.6-66.6c2.5-8.6 3.9-17.6 3.9-27 0-4.4-.3-8.8-.9-13z" fill="#00d2ff"/><path clip-path="url(#B)" d="M191.1 132.6l74.7-66.8c-3.6-8.9-8.4-17.2-14.4-24.5L191 95.2v37.4zm-27.8-12.4l-24 21.4V14c-10.4 4.6-19.8 10.9-27.9 18.7v136.8c6.3 6.1 13.4 11.3 21.1 15.5l30.7-27.4v-37.4z" fill="#ff4b19"/></g></g></svg>