<svg xmlns="http://www.w3.org/2000/svg" viewBox="-464 -79 64 64" width="64" height="64"><path d="M-426.667-39.213H-442.4c-2.293 0-3.627 1.413-3.627 3.44 0 1.813 1.227 3.093 2.987 3.093 2.053 0 3.227-1.413 3.333-3.44h4.56c-.24 4.96-3.333 7.6-7.947 7.6-4.32 0-7.547-2.933-7.547-7.307 0-4.56 3.387-7.733 8.48-7.733h15.573c5.253 0 9.253-3.867 9.253-9.067 0-5.253-3.573-8.96-8.667-8.96-5.04 0-9.12 3.68-9.12 10.48v4.453h-4.613v-4.453c0-9.013 5.787-14.853 13.813-14.853 7.653 0 13.227 5.493 13.227 13.28.053 7.787-5.92 13.467-13.973 13.467M-432-15c17.893 0 32-14.16 32-32s-14.107-32-32-32-32 14.213-32 32c0 17.84 14.107 32 32 32" fill="#169cee"/></svg>