<?xml version="1.0" encoding="UTF-8" standalone="no"?>
<svg
   xmlns:dc="http://purl.org/dc/elements/1.1/"
   xmlns:cc="http://creativecommons.org/ns#"
   xmlns:rdf="http://www.w3.org/1999/02/22-rdf-syntax-ns#"
   xmlns:svg="http://www.w3.org/2000/svg"
   xmlns="http://www.w3.org/2000/svg"
   xmlns:sodipodi="http://sodipodi.sourceforge.net/DTD/sodipodi-0.dtd"
   xmlns:inkscape="http://www.inkscape.org/namespaces/inkscape"
   id="Layer_1"
   viewBox="0 0 120 60"
   version="1.1"
   sodipodi:docname="pipelinedb-ar21.svg"
   width="120"
   height="60"
   inkscape:version="0.92.3 (2405546, 2018-03-11)">
  <metadata
     id="metadata18">
    <rdf:RDF>
      <cc:Work
         rdf:about="">
        <dc:format>image/svg+xml</dc:format>
        <dc:type
           rdf:resource="http://purl.org/dc/dcmitype/StillImage" />
        <dc:title></dc:title>
      </cc:Work>
    </rdf:RDF>
  </metadata>
  <defs
     id="defs16" />
  <sodipodi:namedview
     pagecolor="#ffffff"
     bordercolor="#666666"
     borderopacity="1"
     objecttolerance="10"
     gridtolerance="10"
     guidetolerance="10"
     inkscape:pageopacity="0"
     inkscape:pageshadow="2"
     inkscape:window-width="1920"
     inkscape:window-height="1001"
     id="namedview14"
     showgrid="false"
     inkscape:zoom="5.03125"
     inkscape:cx="107.61811"
     inkscape:cy="56.916344"
     inkscape:window-x="-9"
     inkscape:window-y="-9"
     inkscape:window-maximized="1"
     inkscape:current-layer="Layer_1" />
  <style
     id="style2">.st0{fill:none}.st1{fill:#3e4f4e}</style>
  <path
     class="st0"
     d="M 0,-68 H 512 V 60 H 0 Z"
     id="Container"
     inkscape:connector-curvature="0"
     style="fill:none" />
  <g
     id="g3777"
     transform="translate(-1.9999994)">
    <g
       transform="matrix(0.95688214,0,0,0.95688214,11.103213,1.2667215)"
       id="g3762">
      <path
         class="st1"
         d="m 108.56974,29.851602 c 0.23246,0.166047 0.39851,0.265675 0.56456,0.398512 0.7306,0.53135 0.96307,1.295166 0.83023,2.15861 -0.16604,1.162328 -1.19553,1.859725 -2.19182,1.859725 -1.52763,0 -3.05526,0 -4.6161,0.03321 -0.23247,0 -0.26568,-0.09963 -0.26568,-0.298885 v -7.870623 c 0,-0.232466 0.0664,-0.332094 0.3321,-0.332094 h 4.15117 c 0.59777,0 1.19554,0.132838 1.69368,0.53135 0.56456,0.431722 0.92986,1.527632 0.6974,2.225029 -0.23247,0.630978 -0.6974,1.0627 -1.19554,1.295166 z m -2.42429,0.929862 c -0.3653,-0.03321 -0.7306,0 -1.12911,-0.03321 -0.23247,0 -0.29889,0.09963 -0.29889,0.298884 v 1.361585 c 0,0.199256 0.0664,0.298884 0.26568,0.298884 0.79702,0 1.59405,0 2.35786,-0.03321 0.49814,-0.03321 0.79703,-0.431722 0.79703,-0.929863 0,-0.53135 -0.29889,-0.896653 -0.79703,-0.963072 z m -0.0664,-1.560841 c 0.39851,0 0.76381,0 1.16232,-0.03321 0.0996,0 0.16605,-0.09963 0.23247,-0.132838 0.43172,-0.232465 0.56456,-0.53135 0.46493,-1.0627 -0.0664,-0.332094 -0.43172,-0.630978 -0.79702,-0.664187 -0.6974,-0.03321 -1.42801,0 -2.1254,0 -0.19926,0 -0.26568,0.09963 -0.26568,0.298884 v 1.295166 c 0,0.199256 0.0996,0.332094 0.33209,0.298884 0.29889,-0.03321 0.63098,0 0.99629,1e-6 z M 93.127377,30.017649 V 26.19857 c 0,-0.431722 0.03321,-0.464932 0.464931,-0.464932 1.029491,0 2.058982,-0.03321 3.088472,0 1.361585,0.06642 2.590332,0.498141 3.48699,1.594051 0.29888,0.398512 0.49814,0.830234 0.66418,1.261956 0.26568,0.664188 0.26568,1.361585 0.16605,2.058982 -0.13284,0.996281 -0.56456,1.859725 -1.328375,2.523913 -0.929863,0.797025 -2.025773,1.0627 -3.22131,1.0627 h -2.889216 c -0.398513,0 -0.398513,0 -0.431722,-0.398513 z m 1.793306,0.03321 v 2.324657 c 0,0.166046 0,0.332093 0.199257,0.298884 0.797025,-0.03321 1.59405,0.132838 2.391075,-0.166047 0.630978,-0.232466 1.129119,-0.664188 1.394794,-1.295166 0.265675,-0.664187 0.332094,-1.328375 0.132837,-2.058981 -0.199256,-0.863444 -1.095909,-1.660469 -1.892934,-1.726888 -0.597769,-0.03321 -1.195538,-0.06642 -1.826516,-0.06642 -0.365303,0 -0.431722,0.06642 -0.431722,0.431722 0.03321,0.763816 0.03321,1.527632 0.03321,2.258238 z"
         id="path5"
         inkscape:connector-curvature="0"
         style="fill:#000000;stroke-width:0.33209381"
         sodipodi:nodetypes="cccscsssscccccssscscccccccssscccsscccccsscccscccccsccc" />
      <path
         class="st1"
         d="m 81.70335,32.873655 c 0,-0.199256 0.03321,-0.332094 0.03321,-0.464931 V 26.16536 c 0,-0.265675 0.03321,-0.431722 0.365303,-0.398512 0.365303,0.03321 0.365303,0.03321 0.365303,0.398512 v 7.704577 c 0,0.132837 -0.06642,0.398512 -0.09963,0.398512 -0.232465,0.03321 -0.53135,0.132838 -0.730606,-0.132837 l -0.896653,-1.195538 -1.295166,-1.793307 c -0.56456,-0.763815 -1.129119,-1.527631 -1.660469,-2.291447 l -1.195538,-1.59405 -0.166047,-0.166047 c -0.03321,0.199256 -0.03321,0.332094 -0.03321,0.464931 v 6.376201 c 0,0.265676 -0.03321,0.398513 -0.332094,0.398513 -0.265675,0 -0.332094,-0.09963 -0.332094,-0.365303 v -7.704577 c 0,-0.132837 0.03321,-0.365303 0.132838,-0.431721 0.199256,-0.132838 0.564559,0 0.697397,0.199256 0.332093,0.464931 0.697397,0.929862 1.02949,1.361584 0.929863,1.261957 1.859726,2.490704 2.789588,3.75266 l 1.09591,1.494423 c 0,0.03321 0.09963,0.09963 0.232466,0.232465 z m 3.653031,-2.822797 v -3.819079 c 0,-0.431722 0.03321,-0.464931 0.464932,-0.464931 h 4.582894 c 0.166047,0 0.365304,-0.03321 0.431722,0.199256 0.06642,0.332094 0,0.431722 -0.365303,0.431722 H 86.4855 c -0.265675,0 -0.365303,0.06642 -0.365303,0.365303 v 2.490704 c 0,0.232465 0.09963,0.332094 0.332094,0.332094 h 3.885498 c 0.09963,0 0.298884,0.03321 0.298884,0.09963 0.03321,0.166047 0.03321,0.332094 0.03321,0.49814 0,0.03321 -0.166046,0.06642 -0.265675,0.06642 H 86.51871 c -0.398513,0 -0.398513,0 -0.398513,0.398513 v 2.623541 c 0,0.265675 0.09963,0.365303 0.365303,0.365303 h 3.951917 c 0.232465,0 0.398512,0.03321 0.398512,0.332094 0,0.232466 -0.06642,0.332094 -0.332093,0.332094 h -4.84857 c -0.265675,0 -0.298885,-0.09963 -0.298885,-0.332094 z M 56.796314,30.017649 V 26.16536 c 0,-0.398512 0,-0.431722 0.398512,-0.431722 h 4.616104 c 0.365304,0 0.398513,0.03321 0.398513,0.365304 0,0.232465 -0.09963,0.265675 -0.298884,0.265675 h -4.151173 c -0.199256,0 -0.265675,0.06642 -0.265675,0.265675 v 2.623541 c 0,0.265675 0.132837,0.298884 0.332094,0.298884 h 3.918707 c 0.265675,0 0.332093,0.09963 0.365303,0.332094 0.03321,0.265675 -0.03321,0.365303 -0.332094,0.365303 h -3.918707 c -0.298884,0 -0.365303,0.09963 -0.365303,0.365303 v 2.590332 c 0,0.398513 0,0.398513 0.398512,0.398513 h 3.918707 c 0.365304,0 0.498141,0.199256 0.365304,0.53135 -0.03321,0.06642 -0.199257,0.132837 -0.298885,0.132837 h -4.782151 c -0.232465,0 -0.298884,-0.06642 -0.298884,-0.298884 z m -8.136299,0 V 26.19857 c 0,-0.431722 0.03321,-0.431722 0.464932,-0.431722 h 2.590332 c 0.963072,0 1.859725,0.298884 2.391075,1.162328 0.332094,0.53135 0.431722,1.129119 0.332094,1.726888 -0.132838,0.996281 -0.896654,1.760097 -1.826516,1.992563 -0.797025,0.166047 -1.560841,0.09963 -2.324657,0.132837 -0.830234,0.03321 -0.830234,0 -0.830234,0.830235 v 2.357866 c 0,0.332094 -0.166047,0.332094 -0.398513,0.332094 -0.265675,0 -0.332094,-0.06642 -0.332094,-0.332094 -0.03321,-1.328375 -0.06642,-2.623541 -0.06642,-3.951916 z m 0.763816,-1.793307 v 1.527631 c 0,0.265676 0.06642,0.332094 0.332094,0.332094 h 2.1254 c 0.730607,0 1.295166,-0.265675 1.62726,-0.996281 0.298885,-0.630978 0.232466,-1.428004 -0.166047,-1.959354 -0.398512,-0.49814 -0.929862,-0.664187 -1.494422,-0.697397 -0.697397,-0.03321 -1.394794,0 -2.092191,0 -0.232466,0 -0.298884,0.09963 -0.298884,0.298885 -0.03321,0.498141 -0.03321,0.996281 -0.03321,1.494422 z M 36.970313,30.050858 V 26.19857 c 0,-0.398513 0.06642,-0.464932 0.464932,-0.464932 0.896653,0 1.793306,-0.03321 2.68996,0 0.896653,0.03321 1.726887,0.298885 2.225028,1.09591 0.763816,1.195538 0.431722,3.022054 -1.029491,3.653032 -0.365303,0.132837 -0.763815,0.232466 -1.129119,0.232466 -0.664187,0.03321 -1.361584,0 -2.025772,0 -0.431722,0 -0.431722,0 -0.431722,0.398512 v 2.756379 c 0,0.298884 -0.132837,0.332094 -0.365303,0.332094 -0.265675,0 -0.398513,-0.03321 -0.398513,-0.365304 z m 0.730607,-1.826516 v 1.527631 c 0,0.265676 0.09963,0.332094 0.332094,0.332094 0.697397,0 1.361584,-0.03321 2.058981,0 1.029491,0.03321 1.926144,-0.697397 1.859726,-1.926144 -0.06642,-1.0627 -0.830235,-1.693678 -1.793307,-1.726888 -0.697397,-0.03321 -1.428003,0 -2.1254,0 -0.265675,0 -0.332094,0.09963 -0.298885,0.332094 0,0.464932 -0.03321,0.963072 -0.03321,1.461213 z m 27.098855,1.826516 V 26.16536 c 0,-0.232465 0.03321,-0.398512 0.298884,-0.365303 0.365303,0 0.398513,0 0.398513,0.398513 v 7.040388 c 0,0.431722 0,0.431722 0.398512,0.431722 h 3.320938 c 0.232466,0 0.398513,0.06642 0.398513,0.332094 0,0.265675 -0.132838,0.332094 -0.365303,0.332094 h -4.117964 c -0.265675,0 -0.332093,-0.09963 -0.332093,-0.332094 z"
         id="path7"
         inkscape:connector-curvature="0"
         style="fill:#000000;stroke-width:0.33209381"
         sodipodi:nodetypes="csscsscscccccsssssccccccccssscsssssscsssssssssssccsssssssssscsssssscsssccsssccccssscccsssscccscscssscccsssssccsscccscccscssssssssc" />
      <path
         class="st1"
         d="m 45.770799,30.084067 v 3.852288 c 0,0.298885 -0.132837,0.365304 -0.398512,0.365304 -0.265675,0 -0.365303,-0.06642 -0.365303,-0.332094 V 26.16536 c 0,-0.365303 0.298884,-0.53135 0.597768,-0.365303 0.09963,0.03321 0.132838,0.232466 0.132838,0.365303 0.06642,1.295166 0.03321,2.590332 0.03321,3.918707 z m 26.202202,-0.06642 V 26.16536 c 0,-0.365303 0.199256,-0.53135 0.53135,-0.365303 0.09963,0.03321 0.166047,0.232466 0.166047,0.365303 v 7.704577 c 0,0.431722 -0.132838,0.53135 -0.56456,0.431722 -0.06642,-0.03321 -0.132837,-0.199257 -0.132837,-0.298885 z"
         id="path9"
         inkscape:connector-curvature="0"
         style="fill:#000000;stroke-width:0.33209381"
         sodipodi:nodetypes="csssscccccscsscsc" />
    </g>
    <g
       transform="matrix(1.4757546,0,0,1.4757546,-49.392206,65.234786)"
       id="g3767">
      <path
         class="st1"
         d="m 49.708984,-33.555267 c 1.527631,0 3.055263,0.03321 4.616104,0 0.763816,-0.03321 1.228745,0.332094 1.560845,0.929863 0.29888,0.564559 0.66418,1.129119 0.96307,1.726888 0.56456,0.996281 1.12912,2.025772 1.72689,3.022053 0.46493,0.830235 0.96307,1.62726 1.46121,2.457495 0.26567,0.431722 0.46493,0.896653 0.6974,1.361584 0.13283,0.232466 0,0.298885 -0.19926,0.332094 -0.0996,0.03321 -0.19926,0 -0.29888,0 h -5.147459 c -0.597769,0 -1.09591,-0.199256 -1.527632,-0.664188 -0.597769,-0.664187 -1.261956,-1.261956 -1.892935,-1.892934 -0.398512,-0.398513 -0.763815,-0.797025 -1.195537,-1.162329 -0.830235,-0.730606 -1.793307,-1.195537 -2.889217,-1.428003 -1.162328,-0.265675 -2.324656,-0.132838 -3.486985,-0.132838 -0.630978,0 -1.095909,-0.232465 -1.494422,-0.697397 -0.132837,-0.166046 -0.365303,-0.298884 -0.398512,-0.464931 -0.03321,-0.166047 0.166047,-0.365303 0.265675,-0.564559 0.398512,-0.730607 0.797025,-1.494422 1.228747,-2.191819 0.232466,-0.365304 0.597769,-0.630979 1.095909,-0.630979 1.62726,0.03321 3.287729,0 4.914989,0 z m -0.03321,19.361069 c -1.660469,0 -3.320938,-0.03321 -4.981407,0 -0.49814,0 -0.763815,-0.232465 -0.996281,-0.597768 -0.298885,-0.464932 -0.56456,-0.996282 -0.830235,-1.494423 -0.09963,-0.166047 -0.06642,-0.332093 0.09963,-0.49814 0.298884,-0.365304 0.697397,-0.431722 1.129118,-0.431722 0.531351,0 1.062701,0 1.594051,-0.03321 1.295166,-0.09963 2.357866,-0.630978 3.22131,-1.59405 0.431722,-0.498141 0.929862,-0.963072 1.461212,-1.394794 0.166047,-0.132837 0.431722,-0.232466 0.664188,-0.232466 2.523913,-0.03321 5.014613,0 7.538533,0 0.33209,0 0.3653,0.03321 0.19925,0.332094 l -1.19553,2.092191 c -0.29889,0.53135 -0.59777,1.09591 -0.92987,1.62726 -0.3653,0.630978 -0.76381,1.261956 -1.16233,1.892935 -0.13283,0.232465 -0.365299,0.298884 -0.664183,0.298884 -1.726888,0.03321 -3.453776,0.03321 -5.147455,0.03321 z m -1.394794,-9.298625 c -0.199256,0.199256 -0.431721,0.398512 -0.630978,0.597769 l -1.527631,1.527631 c -0.232466,0.232466 -0.498141,0.398513 -0.863444,0.398513 -0.664188,0 -1.361585,-0.03321 -2.025772,0.03321 -0.830235,0.06642 -1.560841,0.365303 -2.225029,0.863444 -0.265675,0.199256 -0.365303,0.06642 -0.464931,-0.09963 -0.199257,-0.332094 -0.398513,-0.697397 -0.597769,-1.0627 -0.332094,-0.597769 -0.730607,-1.195538 -1.029491,-1.793307 -0.132837,-0.265675 -0.298884,-0.564559 -0.265675,-0.830234 0.03321,-0.332094 0.232466,-0.664188 0.398513,-0.963073 0.232465,-0.398512 0.265675,-0.398512 0.664187,-0.09963 0.630978,0.464932 1.295166,0.863444 2.058982,1.09591 0.597769,0.166047 1.195538,0.332094 1.826516,0.298884 1.428003,-0.03321 2.822797,0 4.250801,0 0.132837,0 0.265675,0 0.431721,0.03321 -0.03321,-0.03321 0,0 0,0 z"
         id="path5-3"
         inkscape:connector-curvature="0"
         style="fill:#000000;stroke-width:0.33209381"
         sodipodi:nodetypes="scccccccssccccscccccscccccsccccsccccccccssscsccscccccsccc" />
      <path
         class="st1"
         d="m 57.015053,-21.533471 c -0.86345,0 -1.69368,0.03321 -2.557128,0 -0.863444,-0.06642 -1.59405,-0.398512 -2.225028,-1.029491 -1.0627,-1.0627 -2.092191,-2.1254 -3.188101,-3.154891 -0.597769,-0.564559 -1.328375,-0.929862 -2.191819,-0.996281 -0.763816,-0.03321 -1.527631,-0.06642 -2.324657,-0.06642 -0.830234,0 -1.660469,0 -2.391075,-0.431722 -0.398513,-0.232466 -0.730606,-0.597769 -1.09591,-0.896653 -0.03321,-0.03321 0,-0.199257 0.03321,-0.298885 0.06642,-0.166047 0.199256,-0.265675 0.298884,-0.431722 0.132838,-0.265675 0.265675,-0.199256 0.398513,-0.03321 0.166047,0.166047 0.332094,0.298884 0.498141,0.431722 0.431721,0.398513 0.996281,0.53135 1.56084,0.53135 h 1.859726 c 0.896653,0 1.793306,0.132838 2.623541,0.464931 0.664187,0.265675 1.228747,0.697397 1.726888,1.162329 1.0627,1.029491 2.092191,2.058981 3.121681,3.088472 0.398513,0.398513 0.929863,0.53135 1.461213,0.53135 h 5.014621 c 0.13283,0 0.26567,0.06642 0.3653,0.09963 -0.0332,0.132838 -0.0664,0.232466 -0.0996,0.365304 -0.19926,0.597768 -0.59777,0.763815 -1.19554,0.697397 -0.49814,-0.06642 -1.09591,-0.03321 -1.69368,-0.03321 z m -16.571486,-5.678804 c 0.398512,0.298884 0.730606,0.597769 1.095909,0.830235 0.365303,0.199256 0.763816,0.365303 1.162328,0.49814 0.730607,0.265675 1.527632,0.166047 2.291448,0.166047 0.53135,0 1.0627,0 1.627259,0.03321 0.763816,0.06642 1.394794,0.431722 1.992563,0.996281 -0.132837,0.03321 -0.199256,0.06642 -0.298884,0.06642 -1.660469,0 -3.354148,0.06642 -5.014617,-0.03321 -1.228747,-0.06642 -2.324656,-0.564559 -3.22131,-1.428003 -0.09963,-0.09963 -0.132837,-0.298884 -0.09963,-0.398513 0.132838,-0.232465 0.298885,-0.464931 0.464932,-0.730606 z m 11.490445,6.010898 h -0.863444 c -0.564559,-0.03321 -1.02949,0.232466 -1.428003,0.630978 -0.630978,0.630978 -1.228747,1.295166 -1.892935,1.859726 -0.630978,0.53135 -1.428003,0.763815 -2.258238,0.763815 H 44.03018 c -0.56456,0.03321 -1.129119,0.132838 -1.527632,0.597769 -0.03321,0.03321 -0.132837,0.09963 -0.132837,0.06642 -0.132838,-0.132838 -0.265675,-0.298884 -0.365304,-0.464931 -0.03321,-0.06642 0.06642,-0.232466 0.132838,-0.298885 0.564559,-0.53135 1.228747,-0.664187 1.959353,-0.630978 0.498141,0 0.963073,0 1.461213,-0.03321 0.763816,-0.03321 1.394794,-0.298885 1.926144,-0.797026 0.630979,-0.597768 1.228747,-1.228747 1.859726,-1.826516 0.49814,-0.49814 1.129119,-0.697397 1.793306,-0.630978 0.132838,0 0.298885,0.166047 0.431722,0.265675 0.132838,0.132838 0.265675,0.265675 0.398513,0.431722 0,0 0,0.03321 -0.03321,0.06642 z"
         id="path7-6"
         inkscape:connector-curvature="0"
         style="fill:#000000;stroke-width:0.33209381"
         sodipodi:nodetypes="scsccsccccccssccssscccsscccsccscccccccccscccccccccccccc" />
      <path
         class="st1"
         d="m 50.43959,-22.828637 c -0.365303,0.166047 -0.763816,0.298885 -1.095909,0.498141 -0.298885,0.199256 -0.56456,0.431722 -0.830235,0.697397 -0.564559,0.53135 -1.095909,1.0627 -1.660469,1.59405 -0.431722,0.398513 -0.963072,0.498141 -1.494422,0.56456 -0.597769,0.03321 -1.228747,0.03321 -1.859725,0.03321 -0.630979,0 -1.195538,0.232466 -1.693679,0.664188 -0.06642,0.06642 -0.166047,0.09963 -0.298884,0.199256 -0.03321,-0.06642 -0.06642,-0.132837 -0.09963,-0.166047 -0.265675,-0.498141 -0.232466,-0.597769 0.232465,-0.863444 0.630979,-0.398512 1.328376,-0.597769 2.058982,-0.597769 0.630978,0 1.295166,0 1.926144,-0.06642 0.265675,-0.03321 0.597769,-0.166047 0.797025,-0.365304 0.630978,-0.564559 1.228747,-1.195537 1.826516,-1.793306 0.398513,-0.398513 0.863444,-0.697397 1.394794,-0.863444 0.298885,-0.132838 0.398513,-0.03321 0.797025,0.464931 z"
         id="path9-7"
         inkscape:connector-curvature="0"
         style="fill:#000000;stroke-width:0.33209381"
         sodipodi:nodetypes="cccccsccccsccsccc" />
    </g>
  </g>
</svg>
