<?xml version="1.0" encoding="UTF-8" standalone="no"?>
<!-- Generator: Adobe Illustrator 20.1.0, SVG Export Plug-In . SVG Version: 6.00 Build 0)  -->

<svg
   xmlns:dc="http://purl.org/dc/elements/1.1/"
   xmlns:cc="http://creativecommons.org/ns#"
   xmlns:rdf="http://www.w3.org/1999/02/22-rdf-syntax-ns#"
   xmlns:svg="http://www.w3.org/2000/svg"
   xmlns="http://www.w3.org/2000/svg"
   xmlns:sodipodi="http://sodipodi.sourceforge.net/DTD/sodipodi-0.dtd"
   xmlns:inkscape="http://www.inkscape.org/namespaces/inkscape"
   version="1.1"
   id="Layer_2"
   x="0px"
   y="0px"
   viewBox="0 0 120 60"
   xml:space="preserve"
   sodipodi:docname="oracle-ar21.svg"
   width="120"
   height="60"
   inkscape:version="0.92.3 (2405546, 2018-03-11)"><metadata
   id="metadata15"><rdf:RDF><cc:Work
       rdf:about=""><dc:format>image/svg+xml</dc:format><dc:type
         rdf:resource="http://purl.org/dc/dcmitype/StillImage" /><dc:title></dc:title></cc:Work></rdf:RDF></metadata><defs
   id="defs13" /><sodipodi:namedview
   pagecolor="#ffffff"
   bordercolor="#666666"
   borderopacity="1"
   objecttolerance="10"
   gridtolerance="10"
   guidetolerance="10"
   inkscape:pageopacity="0"
   inkscape:pageshadow="2"
   inkscape:window-width="1920"
   inkscape:window-height="1001"
   id="namedview11"
   showgrid="false"
   inkscape:zoom="4.0357143"
   inkscape:cx="93.161044"
   inkscape:cy="15.265514"
   inkscape:window-x="-9"
   inkscape:window-y="-9"
   inkscape:window-maximized="1"
   inkscape:current-layer="Layer_2" />
<style
   type="text/css"
   id="style2">
	.st0{fill:#E30613;}
</style>
<g
   id="g8"
   transform="matrix(0.75349739,0,0,0.75349739,-3.4068054,-18.223833)">
	<path
   class="st0"
   d="m 73.9,66.8 h 9.8 L 78.5,58.5 69,73.6 H 64.7 L 76.2,55.5 c 0.5,-0.7 1.3,-1.2 2.3,-1.2 0.9,0 1.7,0.4 2.2,1.1 L 92.3,73.5 H 88 l -2,-3.4 h -9.9 z m 44.9,3.3 V 54.4 h -3.7 v 17.2 c 0,0.5 0.2,0.9 0.5,1.3 0.4,0.4 0.8,0.6 1.3,0.6 h 16.7 l 2.2,-3.4 z M 58.2,67.3 c 3.6,0 6.4,-2.9 6.4,-6.4 0,-3.6 -2.9,-6.4 -6.4,-6.4 h -16 v 19.1 h 3.7 V 57.8 H 58 c 1.7,0 3.1,1.4 3.1,3.1 0,1.7 -1.4,3.1 -3.1,3.1 H 47.7 l 10.9,9.5 h 5.3 L 56.5,67.3 Z M 19.5,73.5 C 14.2,73.5 10,69.2 10,64 c 0,-5.3 4.3,-9.5 9.5,-9.5 h 11.1 c 5.3,0 9.5,4.3 9.5,9.5 0,5.3 -4.3,9.5 -9.5,9.5 z m 10.9,-3.4 c 3.4,0 6.2,-2.8 6.2,-6.2 0,-3.4 -2.8,-6.2 -6.2,-6.2 H 19.8 c -3.4,0 -6.2,2.8 -6.2,6.2 0,3.4 2.8,6.2 6.2,6.2 z m 69.6,3.4 c -5.3,0 -9.5,-4.3 -9.5,-9.5 0,-5.3 4.3,-9.5 9.5,-9.5 h 13.2 l -2.2,3.4 h -10.8 c -3.4,0 -6.2,2.8 -6.2,6.2 0,3.4 2.8,6.2 6.2,6.2 h 13.2 l -2.2,3.4 H 100 Z m 44.9,-3.4 c -2.8,0 -5.2,-1.9 -5.9,-4.5 h 15.7 l 2.2,-3.4 h -17.8 c 0.7,-2.6 3.1,-4.5 5.9,-4.5 h 10.8 l 2.2,-3.4 h -13.2 c -5.3,0 -9.5,4.3 -9.5,9.5 0,5.3 4.3,9.5 9.5,9.5 h 11.3 l 2.2,-3.4 h -13.4 z"
   id="path4"
   inkscape:connector-curvature="0"
   style="fill:#e30613" />
	
</g>
</svg>