<?xml version="1.0" encoding="utf-8"?>
<!-- Generator: Adobe Illustrator 24.0.1, SVG Export Plug-In . SVG Version: 6.00 Build 0)  -->
<svg version="1.1" id="Layer_1" xmlns="http://www.w3.org/2000/svg" xmlns:xlink="http://www.w3.org/1999/xlink" x="0px" y="0px"
	 viewBox="0 0 120 60" width="120" height="60" style="enable-background:new 0 0 120 60;" xml:space="preserve">
<style type="text/css">
	.st0{fill:#50B84C;}
	.st1{filter:url(#Adobe_OpacityMaskFilter);}
	.st2{mask:url(#mask_1_);}
	.st3{opacity:0.75;fill:#FFFFFF;enable-background:new    ;}
	.st4{opacity:0.69;}
</style>
<g>
	<g id="Layer_1_1_">
		<rect x="7.2" y="8.9" width="105.6" height="42.2"/>
		<path class="st0" d="M28.3,35.6c2.8,0,5.1-2.2,5.1-5c0-2.8-2.2-5.1-5-5.1c-1.8,0-3.5,0.9-4.4,2.4h-5.3v5.5h5.5
			C25.1,34.8,26.6,35.6,28.3,35.6z M28.3,29.1c0.8,0,1.4,0.6,1.4,1.4c0,0.8-0.6,1.4-1.4,1.4c-0.8,0-1.4-0.6-1.4-1.4c0,0,0,0,0,0
			C26.9,29.8,27.5,29.1,28.3,29.1C28.3,29.1,28.3,29.1,28.3,29.1z M41.7,36.9c-1.4,4.2-4.2,7.1-8.2,8.7c-2.3,1-4.7,1.4-7.1,1.4
			c-1.7-0.1-3.4,0-5.2,0h-2.5l0,0h-5.2V33.4h5.2v8.8c1.9,0,4.8,0,6.7,0c2.5,0,5-0.6,7.3-1.8c2.2-1.3,3.6-3.1,4.3-5.6
			c0.6-1.9,0.5-3.8,0.5-5.7c0-1.8-0.6-3.5-1.5-5c-1.5-2.3-3.7-3.7-6.3-4.5c-3.2-0.9-7.6-0.6-10.9-0.6v8.8h-5.2V14.3h5.2
			c2.5,0,6,0,8.5,0c3.3,0,6.6,1,9.3,2.9c2.7,1.8,4.7,4.5,5.5,7.6C43,28.8,43,33,41.7,36.9z"/>
		<defs>
			<filter id="Adobe_OpacityMaskFilter" filterUnits="userSpaceOnUse" x="13.5" y="14.3" width="29.2" height="32.6">
				<feColorMatrix  type="matrix" values="1 0 0 0 0  0 1 0 0 0  0 0 1 0 0  0 0 0 1 0"/>
			</filter>
		</defs>
		<mask maskUnits="userSpaceOnUse" x="13.5" y="14.3" width="29.2" height="32.6" id="mask_1_">
			<g class="st1">
				
					<image style="overflow:visible;enable-background:new    ;" width="161" height="178" xlink:href="545305084047245.jpg"  transform="matrix(0.1934 0 0 0.1934 12.5032 13.5014)">
				</image>
			</g>
		</mask>
		<g class="st2">
			<path class="st3" d="M28.3,35.6c2.8,0,5.1-2.2,5.1-5c0-2.8-2.2-5.1-5-5.1c-1.8,0-3.5,0.9-4.4,2.4h-5.3v5.5h5.5
				C25.1,34.8,26.6,35.6,28.3,35.6z M28.3,29.1c0.8,0,1.4,0.6,1.4,1.4c0,0.8-0.6,1.4-1.4,1.4c-0.8,0-1.4-0.6-1.4-1.4c0,0,0,0,0,0
				C26.9,29.8,27.5,29.1,28.3,29.1C28.3,29.1,28.3,29.1,28.3,29.1z M41.7,36.9c-1.4,4.2-4.2,7.1-8.2,8.7c-2.3,1-4.7,1.4-7.1,1.4
				c-1.7-0.1-3.4,0-5.2,0h-2.5l0,0h-5.2V33.4h5.2v8.8c1.9,0,4.8,0,6.7,0c2.5,0,5-0.6,7.3-1.8c2.2-1.3,3.6-3.1,4.3-5.6
				c0.6-1.9,0.5-3.8,0.5-5.7c0-1.8-0.6-3.5-1.5-5c-1.5-2.3-3.7-3.7-6.3-4.5c-3.2-0.9-7.6-0.6-10.9-0.6v8.8h-5.2V14.3h5.2
				c2.5,0,6,0,8.5,0c3.3,0,6.6,1,9.3,2.9c2.7,1.8,4.7,4.5,5.5,7.6C43,28.8,43,33,41.7,36.9z"/>
		</g>
	</g>
	<g id="Layer_3">
		<path class="st0" d="M71.1,28.9h-2.5c0-0.2-0.1-0.3-0.1-0.5c0-2.1,0-4.2,0-6.4c-0.1-0.4,0.2-0.9,0.7-0.9c0,0,0,0,0,0
			c1.7-0.5,3.4-0.9,5.2-0.3c0.4,0.1,0.7,0.1,1.1,0c1.2-0.2,2.4-0.5,3.6-0.1c1.5,0.4,2.2,1.3,2.3,2.8c0.1,1.5,0,3.1,0,4.7
			c0,0.5-0.2,0.7-0.7,0.7c-0.6,0-1.2,0-1.9,0c0-0.3-0.1-0.6-0.1-0.8c0-1.4,0-2.8,0-4.3c0-0.8-0.7-1.5-1.5-1.4
			c-0.3,0-0.6,0.1-0.8,0.3c-0.1,0.2-0.2,0.4-0.2,0.6c0,1.8,0.1,3.7,0.2,5.5c-0.8,0.3-1.6,0.2-2.3,0.1c-0.1,0-0.3-0.4-0.3-0.6
			c0-1.1,0-2.1,0-3.2c0-0.4,0-0.7,0-1.1c-0.1-1.2-0.5-1.6-1.7-1.5c-0.7,0.1-0.8,0.1-0.8,0.9c0,1.4,0,2.8,0,4.3L71.1,28.9z"/>
		<g class="st4">
			<path class="st0" d="M77.6,20.5c0.5,0,0.9,0.1,1.4,0.2c1.5,0.4,2.2,1.3,2.3,2.8c0.1,1.5,0,3.1,0,4.7c0,0.5-0.1,0.7-0.6,0.7h-0.1
				c-0.2,0-0.5,0-0.7,0h-1.2c0-0.3-0.1-0.6-0.1-0.8c0-1.4,0-2.8,0-4.3c0-0.8-0.7-1.5-1.5-1.4c-0.3,0-0.6,0.1-0.8,0.2
				c-0.1,0.2-0.2,0.4-0.2,0.6c0,1.8,0.1,3.7,0.2,5.5c-0.4,0.1-0.8,0.2-1.2,0.2c-0.4,0-0.8,0-1.1-0.1c-0.1,0-0.3-0.4-0.3-0.6
				c0-1.1,0-2.1,0-3.2c0-0.4,0-0.7,0-1.1c-0.1-1.1-0.5-1.5-1.4-1.5h-0.3c-0.7,0.1-0.8,0.1-0.8,0.9c0,1.4,0,2.8,0,4.3v1.2h-2.5
				c0-0.2-0.1-0.3-0.1-0.5c0-2.1,0-4.2,0-6.4c-0.1-0.4,0.2-0.9,0.7-0.9c0,0,0,0,0,0c1.1-0.3,2.2-0.5,3.3-0.6c0.6,0,1.3,0.1,1.9,0.3
				c0.1,0,0.3,0.1,0.4,0.1c0.2,0,0.5,0,0.7-0.1C76.2,20.6,76.9,20.5,77.6,20.5 M77.7,20.2c-0.8,0-1.5,0.1-2.3,0.3
				c-0.2,0-0.4,0.1-0.6,0.1c-0.1,0-0.2,0-0.3,0c-0.6-0.2-1.3-0.3-2-0.3c-1.1,0-2.3,0.2-3.3,0.6c-0.6,0.1-0.9,0.6-0.9,1.1
				c0,1.4,0,2.7,0,4.1c0,0.8,0,1.5,0,2.3c0,0.1,0,0.3,0.1,0.4l0,0.2c0,0.1,0.1,0.2,0.2,0.2h2.5c0.1,0,0.2-0.1,0.2-0.2v0v-2.4
				c0-1,0-2,0-3c0-0.6,0-0.6,0.6-0.6h0.3c0.8,0,1.1,0.3,1.2,1.3c0,0.2,0,0.5,0,0.8c0,0.1,0,0.2,0,0.3V26c0,0.8,0,1.6,0,2.3
				c0,0.2,0.2,0.8,0.6,0.8l0.4,0c0.2,0,0.5,0,0.8,0c0.4,0,0.9-0.1,1.3-0.2c0.1,0,0.2-0.1,0.2-0.2l0-1.3c0-1.4-0.1-2.9-0.1-4.3
				c0-0.1,0-0.3,0.1-0.4c0.2-0.1,0.4-0.2,0.7-0.2c0.7,0,1.2,0.5,1.2,1.2l0,0c0,0.9,0,1.8,0,2.6v1.6c0,0.2,0,0.4,0,0.6
				c0,0.1,0,0.2,0,0.3c0,0.1,0.1,0.2,0.2,0.2h1.2c0.3,0,0.5,0,0.7,0h0.1c0.2,0,0.5-0.1,0.6-0.2c0.2-0.2,0.3-0.5,0.2-0.7
				c0-0.6,0-1.1,0-1.7c0-1,0-2,0-3c-0.1-1.6-0.9-2.6-2.5-3.1C78.6,20.3,78.1,20.2,77.7,20.2L77.7,20.2z"/>
		</g>
		<path class="st0" d="M57.9,22c-0.4-2.7-2.2-4.2-4.8-4.3c-1.2,0-2.4,0-3.6,0c-0.3,0-0.5,0-0.8,0.1v11.1c1.8,0,3.4,0.1,5.1,0
			c1.8-0.1,3.3-1.3,3.8-3C58,24.6,58.1,23.3,57.9,22z M55.2,24.2c-0.1,1.7-1.1,2.6-2.8,2.6c-1,0-1-0.1-1-1c0-1.7,0-3.4,0-5.1
			c0-0.9,0.1-1,1-1c1.8,0,2.8,0.9,2.9,2.8C55.2,23.1,55.2,23.7,55.2,24.2z"/>
		<g class="st4">
			<path class="st0" d="M51.5,17.7c0.5,0,1,0,1.5,0c2.6,0.1,4.5,1.6,4.8,4.3c0.2,1.3,0.1,2.6-0.3,3.8c-0.5,1.7-2,3-3.8,3
				c-0.6,0.1-1.3,0.1-1.9,0.1c-1,0-2.1,0-3.2,0V17.8c0.3,0,0.5-0.1,0.8-0.1L51.5,17.7 M52.4,26.8c1.7,0,2.7-0.9,2.8-2.6
				c0-0.6,0-1.1,0-1.7c-0.1-1.9-1.1-2.8-2.9-2.8h0c-0.9,0-1,0.1-1,1c0,1.7,0,3.4,0,5.1C51.3,26.7,51.4,26.8,52.4,26.8L52.4,26.8
				 M51.4,17.4h-1.6h-0.5c-0.2,0-0.4,0-0.5,0.1l-0.2,0c-0.1,0-0.2,0.1-0.2,0.2v11.1c0,0.1,0.1,0.2,0.2,0.2c0.6,0,1.1,0,1.6,0
				c0.5,0,1,0,1.5,0c0.8,0,1.4,0,1.9-0.1c1.9-0.1,3.5-1.4,4-3.2c0.4-1.3,0.5-2.6,0.3-3.9c-0.4-2.8-2.2-4.4-5.1-4.5
				C52.5,17.5,52,17.5,51.4,17.4L51.4,17.4z M52.4,26.8v-0.2c-0.8,0-0.8,0-0.8-0.8c0-1.7,0-3.4,0-5.1c0-0.7,0-0.7,0.7-0.7h0
				c1.7,0,2.5,0.8,2.7,2.5c0,0.5,0,1.1,0,1.6c-0.1,1.6-1,2.4-2.6,2.4L52.4,26.8L52.4,26.8z"/>
		</g>
		<path class="st0" d="M104.5,28.9H102c0-0.3-0.1-0.5-0.1-0.8c0-1.4,0-2.8,0-4.2c0-0.8-0.6-1.5-1.4-1.6c-0.3,0-0.6,0.1-0.8,0.2
			c-0.2,0.1-0.3,0.5-0.3,0.8c0,1.4,0,2.8,0,4.3v1.1c-0.9,0.2-1.7,0.1-2.5,0.1c-0.1-0.2-0.1-0.4-0.1-0.7c0-2,0-4,0-6
			c0-0.4,0-0.8,0.5-1c1.6-0.7,3.3-1,5-0.5c1.4,0.3,2.3,1.5,2.3,2.9c0,1.6,0,3.1,0,4.7C104.5,28.5,104.5,28.7,104.5,28.9z"/>
		<g class="st4">
			<path class="st0" d="M100.6,20.5c0.5,0,1.1,0.1,1.6,0.2c1.4,0.3,2.4,1.5,2.3,2.9c0,1.6,0,3.1,0,4.7c0,0.2,0,0.4-0.1,0.6H102
				c0-0.3-0.1-0.5-0.1-0.8c0-1.4,0-2.8,0-4.2c0-0.8-0.6-1.5-1.4-1.6c-0.3,0-0.6,0.1-0.8,0.2c-0.2,0.1-0.3,0.5-0.3,0.8
				c0,1.4,0,2.8,0,4.3v1.1c-0.4,0.1-0.8,0.2-1.2,0.1c-0.4,0-0.9,0-1.4-0.1c-0.1-0.2-0.1-0.4-0.1-0.7c0-2,0-4,0-6c0-0.4,0-0.8,0.5-1
				C98.3,20.8,99.4,20.5,100.6,20.5 M100.6,20.2L100.6,20.2c-1.2,0-2.4,0.3-3.5,0.8c-0.6,0.2-0.6,0.8-0.6,1.2V24c0,1.4,0,2.8,0,4.2
				c0,0.2,0,0.3,0.1,0.5c0,0.1,0,0.1,0,0.2c0,0.1,0.1,0.2,0.2,0.2l0.5,0c0.3,0,0.6,0,0.8,0c0.4,0,0.8,0,1.2-0.2
				c0.1,0,0.2-0.1,0.2-0.2v-2.2c0-1,0-2.1,0-3.2c0-0.2,0-0.4,0.2-0.6c0.2-0.1,0.4-0.2,0.6-0.2c0.7,0,1.3,0.6,1.3,1.3c0,0,0,0,0,0
				c0,0.7,0,1.3,0,2c0,0.7,0,1.4,0,2.2c0,0.2,0,0.4,0.1,0.6c0,0.1,0,0.2,0,0.2c0,0.1,0.1,0.2,0.2,0.2h2.5c0.1,0,0.2-0.1,0.2-0.2
				c0-0.1,0-0.2,0-0.2c0-0.1,0-0.3,0-0.4c0-0.4,0-0.8,0-1.1c0-1.2,0-2.4,0-3.5c0-1.5-1-2.9-2.5-3.2
				C101.7,20.3,101.2,20.2,100.6,20.2L100.6,20.2z"/>
		</g>
		<path class="st0" d="M58.9,24.8c0.1-0.5,0.1-0.9,0.2-1.4c0.3-1.7,1.4-2.6,3-2.9c0.9-0.2,1.8-0.1,2.6,0.3c1.6,0.6,2.1,2,2.2,3.5
			c0,0.8-0.1,1.6-0.3,2.4c-0.6,1.8-2.4,2.5-4.3,2.3C60,28.7,59,27.3,58.9,24.8z M61.5,24.7c0.1,0.5,0.2,1.1,0.3,1.6
			c0.1,0.5,0.5,0.9,1.1,0.9c0.5,0,1-0.3,1.1-0.8c0.4-1,0.4-2.2,0-3.2c-0.1-0.5-0.5-0.8-1-0.8c-0.5,0-1,0.3-1.1,0.8
			C61.7,23.7,61.6,24.2,61.5,24.7z"/>
		<g class="st4">
			<path class="st0" d="M63,20.5c0.6,0,1.2,0.1,1.8,0.4c1.6,0.6,2.1,2,2.2,3.5c0,0.8-0.1,1.6-0.3,2.4c-0.5,1.6-1.9,2.3-3.5,2.3
				c-0.2,0-0.5,0-0.7,0c-2.3-0.3-3.4-1.7-3.4-4.3c0.1-0.5,0.1-0.9,0.2-1.4c0.3-1.7,1.4-2.6,3-2.9C62.4,20.5,62.7,20.5,63,20.5
				 M62.9,27.2c0.5,0,1-0.3,1.1-0.8c0.4-1,0.4-2.2,0-3.2c-0.1-0.5-0.5-0.8-1-0.8h0c-0.5,0-0.9,0.3-1.1,0.8c-0.1,0.5-0.3,1-0.3,1.5
				c0.1,0.5,0.2,1.1,0.3,1.6C61.9,26.8,62.4,27.2,62.9,27.2L62.9,27.2 M63,20.3L63,20.3c-0.3,0-0.6,0-0.9,0.1
				c-1.8,0.3-2.9,1.3-3.2,3.1c-0.1,0.3-0.1,0.6-0.1,1c0,0.1,0,0.3-0.1,0.4c0,0,0,0,0,0c0.1,2.7,1.2,4.2,3.6,4.5
				c0.3,0,0.5,0.1,0.8,0.1c1.9,0,3.3-0.9,3.8-2.5c0.3-0.8,0.4-1.7,0.3-2.5c-0.1-1.9-0.9-3.1-2.3-3.7C64.2,20.4,63.6,20.3,63,20.3
				L63,20.3z M61.8,24.8c0-0.1,0.1-0.3,0.1-0.4c0.1-0.3,0.1-0.7,0.2-1c0.1-0.4,0.4-0.7,0.9-0.7c0.4,0,0.7,0.3,0.8,0.6
				c0.4,1,0.4,2.1,0,3c-0.1,0.4-0.5,0.7-0.9,0.7v0.2V27c-0.4,0-0.8-0.3-0.8-0.7c-0.1-0.3-0.2-0.7-0.2-1
				C61.8,25.1,61.8,24.9,61.8,24.8L61.8,24.8z"/>
		</g>
		<path class="st0" d="M83.6,22.9c-0.1-0.1-0.1-0.2-0.1-0.2c-0.1-1.8-0.2-1.7,1.5-2c0.7-0.2,1.4-0.2,2.2-0.1c1.5,0.3,2.6,1,2.8,2.7
			c0.1,1.3,0.1,2.6,0,3.9c-0.1,0.9-0.8,1.4-1.6,1.7c-1.3,0.3-2.6,0.3-3.8,0c-1-0.2-1.7-1.1-1.8-2.1c-0.1-1,0.6-2,1.6-2.2
			c0.8-0.2,1.5-0.3,2.3-0.4c0.6-0.1,0.8-0.4,0.5-0.9c-0.2-0.5-0.7-0.8-1.2-0.7c-0.4,0-0.8,0-1.2,0.1C84.3,22.7,83.9,22.8,83.6,22.9z
			 M87.3,25.7c0-0.5-0.2-0.7-0.7-0.7c-0.7,0-1.3,0.4-1.4,1c0,0.5,0.3,1,0.9,1.1c0,0,0,0,0,0C86.9,27.1,87.3,26.6,87.3,25.7
			L87.3,25.7z"/>
		<g class="st4">
			<path class="st0" d="M86.3,20.5c0.3,0,0.5,0,0.8,0.1c1.5,0.3,2.6,1,2.8,2.7c0.1,1.3,0.1,2.6,0,3.9c-0.1,0.9-0.8,1.4-1.6,1.7
				c-0.6,0.2-1.3,0.3-1.9,0.3c-0.6,0-1.3-0.1-1.9-0.3c-1-0.2-1.7-1.1-1.8-2.1c-0.1-1,0.6-2,1.6-2.2c0.8-0.2,1.5-0.3,2.3-0.4
				c0.6-0.1,0.8-0.4,0.5-0.9c-0.2-0.4-0.6-0.7-1.1-0.7h-0.1c-0.4,0-0.8,0-1.2,0.1c-0.4,0.1-0.8,0.2-1.1,0.3
				c-0.1-0.1-0.1-0.2-0.1-0.2c-0.1-1.8-0.2-1.7,1.5-2C85.4,20.6,85.8,20.5,86.3,20.5 M86.3,27.1c0.6,0,1.1-0.5,1.1-1.4
				c0-0.5-0.2-0.7-0.7-0.7h-0.1c-0.6-0.1-1.2,0.4-1.3,1C85.2,26.5,85.6,27,86.3,27.1C86.2,27.1,86.2,27.1,86.3,27.1L86.3,27.1
				 M86.3,20.3c-0.5,0-1,0.1-1.5,0.2l-0.2,0c-1.4,0.3-1.5,0.4-1.5,1.8c0,0.1,0,0.3,0,0.5c0,0.1,0,0.2,0.1,0.3c0,0,0,0.1,0.1,0.1
				c0,0.1,0.1,0.1,0.2,0.1h0.1l0.3-0.1c0.2-0.1,0.5-0.1,0.8-0.2c0.4-0.1,0.8-0.1,1.2-0.1h0.1c0.4,0,0.8,0.2,0.9,0.6
				c0.1,0.1,0.1,0.3,0.1,0.3c0,0.1-0.2,0.1-0.4,0.2L86,23.9c-0.6,0.1-1.2,0.2-1.8,0.3c-1.1,0.3-1.8,1.3-1.8,2.5
				c0,1.1,0.8,2.1,1.9,2.4c0.6,0.2,1.3,0.3,2,0.3c0.7,0,1.3-0.1,2-0.3c1.1-0.3,1.7-1,1.8-1.9c0.1-1.3,0.1-2.7,0-4
				c-0.1-1.6-1.2-2.6-3-2.9C86.8,20.3,86.6,20.3,86.3,20.3L86.3,20.3z M86.3,26.8L86.3,26.8c-0.2,0-0.4-0.1-0.5-0.2
				c-0.1-0.2-0.2-0.4-0.2-0.6c0.1-0.5,0.5-0.8,1-0.8h0.1c0.1,0,0.3,0,0.4,0.1c0.1,0.1,0.1,0.2,0.1,0.3
				C87.1,26.4,86.8,26.8,86.3,26.8L86.3,26.8z"/>
		</g>
		<path class="st0" d="M91.2,41c0,0.9,0,1-0.8,1.2c-1.2,0.3-2.3,0.4-3.5,0c-1.3-0.4-2.3-1.6-2.3-2.9c-0.1-1,0-2,0.2-2.9
			c0.3-1.6,1.4-2.4,2.9-2.5c1.9-0.1,3.2,0.6,3.8,2.1c0.4,0.9,0.4,1.4,0.3,2.8c-0.3,0-0.5,0.1-0.8,0.1c-1.4,0-2.8,0-4.3,0
			c-0.8,0-0.9,0.2-0.6,0.9c0.3,1,1.2,1.7,2.3,1.6C89.2,41.3,90.2,41.2,91.2,41z M88.2,37.7L88.2,37.7c0.6,0,1.2,0,1.8,0
			c0.2-0.1,0.4-0.2,0.5-0.5c0-1.3-1-2.4-2.3-2.4c-1.2,0-2.3,0.9-2.3,2.1c0,0,0,0,0,0.1c0,0.4,0.1,0.6,0.5,0.7
			C87,37.8,87.6,37.7,88.2,37.7z"/>
		<g class="st4">
			<path class="st0" d="M88,33.8c1.7,0,2.9,0.7,3.4,2.1c0.4,0.9,0.4,1.4,0.3,2.8c-0.3,0-0.5,0.1-0.8,0.1h-2.5c-0.6,0-1.2,0-1.7,0
				c-0.8,0-0.9,0.2-0.6,0.9c0.3,1,1.2,1.6,2.2,1.6h0.1c1-0.1,1.9-0.2,2.9-0.3c0,0.9,0,1-0.8,1.2c-0.7,0.2-1.3,0.3-2,0.3
				c-0.5,0-1-0.1-1.5-0.2c-1.3-0.4-2.3-1.6-2.3-2.9c-0.1-1,0-2,0.2-2.9c0.3-1.6,1.4-2.4,2.9-2.5L88,33.8 M87.1,37.8h1.1
				c0.3,0,0.7,0,1,0c0.3,0,0.5,0,0.8,0c0.2-0.1,0.4-0.2,0.5-0.4c0-1.3-1-2.4-2.3-2.4h-0.1c-1.2,0-2.2,1-2.3,2.2c0,0,0,0,0,0
				c0,0.4,0.1,0.6,0.5,0.7L87.1,37.8 M88,33.6h-0.3c-1.7,0.1-2.8,1-3.2,2.7c-0.2,1-0.2,2-0.2,3c0,1.5,1,2.8,2.4,3.2
				c0.5,0.2,1.1,0.3,1.6,0.3c0.7,0,1.4-0.1,2.1-0.3c0.9-0.2,1-0.4,0.9-1.4c0-0.1,0-0.1-0.1-0.2c0,0-0.1-0.1-0.2-0.1h0
				c-0.3,0-0.6,0.1-0.9,0.1c-0.6,0.1-1.3,0.2-1.9,0.2h-0.1c-0.9,0-1.7-0.6-2-1.4c-0.1-0.4-0.1-0.5-0.1-0.5c0,0,0.1-0.1,0.5-0.1h1.7
				h2.5c0.2,0,0.4,0,0.6,0l0.2,0c0.1,0,0.2-0.1,0.2-0.2c0.1-1.5,0.1-2-0.3-2.9C91.1,34.3,89.9,33.6,88,33.6L88,33.6z M87.1,37.5
				h-0.7c-0.1,0-0.2,0-0.2-0.1c-0.1-0.1-0.1-0.2-0.1-0.3c0-1.1,0.9-2,2-2c0,0,0,0,0,0h0.1c0.6,0,1.1,0.3,1.5,0.7
				c0.4,0.4,0.6,0.9,0.5,1.4c-0.1,0.1-0.2,0.2-0.3,0.2c-0.3,0-0.5,0-0.8,0h-0.5h-0.5L87.1,37.5L87.1,37.5z"/>
		</g>
		<path class="st0" d="M57.1,40.6c0.1,1.2,0.1,1.2-0.9,1.4c-1.3,0.4-2.8,0.5-4.1,0.2c-1.4-0.3-2.5-1.3-3-2.6
			c-0.6-1.7-0.7-3.6-0.2-5.4c0.7-2.4,2.3-3.2,4.5-3.4c1,0,2,0.1,2.9,0.4c0.9,0.2,0.9,0.2,0.8,1.3c-0.3-0.1-0.5-0.1-0.8-0.2
			c-1-0.3-2.1-0.4-3.2-0.3c-1.4,0-2.6,1-2.9,2.4c-0.4,1.4-0.4,2.8,0,4.2c0.4,1.6,1.5,2.4,3.2,2.5C54.6,41.3,55.9,41.1,57.1,40.6z"/>
		<g class="st4">
			<path class="st0" d="M53.7,30.9c0.9,0,1.8,0.2,2.6,0.4c0.9,0.2,0.9,0.2,0.8,1.3c-0.3-0.1-0.5-0.1-0.8-0.2
				c-0.7-0.2-1.5-0.4-2.2-0.3c-0.3,0-0.7,0-1,0c-1.4,0.1-2.6,1-2.9,2.4c-0.4,1.4-0.4,2.8,0,4.2c0.4,1.6,1.5,2.4,3.2,2.5H54
				c1.1,0,2.2-0.2,3.2-0.6c0.1,1.2,0.1,1.2-0.9,1.4c-0.8,0.2-1.6,0.4-2.5,0.4c-0.5,0-1.1-0.1-1.6-0.2c-1.4-0.3-2.5-1.3-3-2.6
				c-0.6-1.7-0.7-3.6-0.2-5.4c0.7-2.4,2.3-3.2,4.5-3.4L53.7,30.9 M53.7,30.6h-0.3c-2.6,0.1-4.1,1.2-4.7,3.5
				c-0.5,1.8-0.5,3.7,0.2,5.5c0.5,1.4,1.7,2.5,3.2,2.8c0.6,0.1,1.1,0.2,1.7,0.2c0.9,0,1.7-0.2,2.6-0.4c1.1-0.3,1.1-0.5,1-1.7
				c0-0.1-0.1-0.1-0.1-0.2c0,0-0.1,0-0.1,0c0,0-0.1,0-0.1,0c-1,0.4-2,0.6-3.1,0.6c-0.2,0-0.4,0-0.6,0c-1.6-0.1-2.6-0.9-2.9-2.3
				c-0.4-1.3-0.4-2.7,0-4.1c0.3-1.2,1.4-2.2,2.6-2.2c0.4,0,0.7,0,1,0c0.7,0,1.5,0.1,2.2,0.3c0.2,0.1,0.4,0.1,0.6,0.1l0.3,0.1h0.1
				c0.1,0,0.1,0,0.1,0c0.1,0,0.1-0.1,0.1-0.2c0.1-1.1,0.1-1.4-1-1.6l-0.3-0.1C55.3,30.8,54.5,30.6,53.7,30.6L53.7,30.6z"/>
		</g>
		<path class="st0" d="M65.9,38.1c0,0.4,0,0.8,0,1.2c-0.2,1.3-0.9,2.4-2.3,2.9c-1.6,0.5-3.2,0.4-4.5-0.8c-0.6-0.6-1-1.5-1-2.3
			c-0.1-0.9,0-1.7,0.2-2.6c0.2-1.3,1.2-2.3,2.5-2.5c0.7-0.1,1.4-0.2,2.2-0.1c1.8,0.3,2.8,1.5,2.9,3.4C66,37.5,66,37.8,65.9,38.1
			L65.9,38.1z M64.7,38.1L64.7,38.1c0-0.2,0-0.4-0.1-0.6c-0.2-2.2-1.6-2.9-3.5-2.4c-0.7,0.2-1.3,0.7-1.5,1.5c-0.3,1.1-0.3,2.2,0,3.2
			c0.2,0.4,0.4,0.8,0.8,1.1c1.2,0.8,2.8,0.6,3.7-0.6c0.2-0.3,0.4-0.6,0.4-1C64.7,38.9,64.7,38.5,64.7,38.1L64.7,38.1z"/>
		<g class="st4">
			<path class="st0" d="M62.2,33.8c0.3,0,0.5,0,0.8,0.1c1.8,0.3,2.8,1.5,2.9,3.4c0,0.3,0,0.5,0,0.8l0,0c0,0.4,0,0.8,0,1.2
				c-0.2,1.3-0.9,2.4-2.3,2.9c-0.5,0.2-1.1,0.3-1.7,0.3c-1,0-2-0.4-2.8-1.1c-0.6-0.6-1-1.5-1-2.3c-0.1-0.9,0-1.7,0.2-2.6
				c0.2-1.3,1.2-2.3,2.5-2.5C61.3,33.9,61.8,33.9,62.2,33.8 M62,41.3c1.2,0,2.3-0.9,2.6-2.1c0.1-0.4,0.1-0.8,0.2-1.2h-0.1
				c0-0.2,0-0.4,0-0.6c-0.2-1.8-1.1-2.6-2.5-2.6c-0.4,0-0.7,0-1.1,0.1c-0.7,0.2-1.3,0.7-1.5,1.5c-0.3,1.1-0.3,2.2,0,3.2
				c0.2,0.4,0.4,0.8,0.8,1.1C60.9,41.1,61.5,41.3,62,41.3 M62.2,33.6L62.2,33.6c-0.5,0-0.9,0.1-1.4,0.1c-1.4,0.2-2.5,1.3-2.7,2.7
				C58,37.3,57.9,38.2,58,39c0,0.9,0.4,1.8,1.1,2.5c0.8,0.7,1.9,1.1,2.9,1.1c0.6,0,1.2-0.1,1.8-0.3c1.3-0.4,2.1-1.4,2.4-3.1
				c0-0.3,0.1-0.6,0-0.9c0-0.1,0-0.2,0-0.3c0,0,0-0.1,0-0.1c0-0.1,0-0.2,0-0.2c0-0.2,0-0.4,0-0.6c-0.1-2-1.3-3.3-3.1-3.6
				C62.8,33.6,62.5,33.6,62.2,33.6L62.2,33.6z M62,41.1c-0.5,0-1-0.2-1.4-0.5c-0.3-0.2-0.6-0.6-0.7-1c-0.3-1-0.3-2.1,0-3.1
				c0.1-0.7,0.7-1.2,1.3-1.3c0.3-0.1,0.7-0.1,1-0.1c1.3,0,2.1,0.8,2.2,2.3c0,0.1,0,0.2,0,0.4c0,0.1,0,0.1,0,0.2c0,0,0,0.1,0,0.1
				l0,0.2c0,0.3-0.1,0.5-0.1,0.8C64.1,40.3,63.1,41.1,62,41.1L62,41.1z"/>
		</g>
		<path class="st0" d="M68.7,42.1c-1.3,0.2-1.3,0.1-1.3-0.9c0-1.9,0-3.8,0-5.8c0-0.9,0.1-0.9,0.9-1.2c1.1-0.4,2.3-0.5,3.4-0.4
			c1.2,0.1,2.2,1,2.4,2.3c0.4,2,0.1,4,0.2,6.1H73c0-0.3-0.1-0.5-0.1-0.8c0-1.6,0-3.1,0-4.7c0-1.1-0.4-1.6-1.5-1.7
			c-0.7,0-1.4,0-2.2,0.1c-0.5,0.1-0.5,0.5-0.5,0.9c0,1.7,0,3.4,0,5.1L68.7,42.1z"/>
		<g class="st4">
			<path class="st0" d="M70.7,33.8c0.3,0,0.6,0,1,0c1.2,0.1,2.2,1,2.4,2.3c0.4,2,0.1,4,0.2,6.1H73c0-0.3-0.1-0.5-0.1-0.8
				c0-1.6,0-3.1,0-4.7c0-1.1-0.4-1.6-1.5-1.7c-0.2,0-0.3,0-0.5,0c-0.6,0-1.1,0.1-1.7,0.2c-0.5,0.1-0.5,0.5-0.5,0.9
				c0,1.7,0,3.4,0,5.1v1c-0.3,0-0.5,0.1-0.8,0.1c-0.5,0-0.5-0.2-0.5-1c0-1.9,0-3.8,0-5.8c0-0.9,0.1-0.9,0.9-1.2
				C69.1,33.9,69.9,33.8,70.7,33.8 M70.7,33.6c-0.9,0-1.7,0.1-2.5,0.4c-0.9,0.3-1,0.5-1,1.4c0,1.7,0,3.6,0,5.8c0,0.7,0,1.2,0.8,1.2
				c0.3,0,0.5,0,0.8-0.1c0.1,0,0.2-0.1,0.2-0.2v-2.4c0-1.2,0-2.5,0-3.7c0-0.5,0.1-0.6,0.3-0.7l0.3,0c0.4-0.1,0.9-0.1,1.4-0.1
				c0.1,0,0.3,0,0.4,0c0.9,0.1,1.2,0.5,1.2,1.5c0,0.9,0,1.7,0,2.6v2c0,0.2,0,0.4,0,0.6c0,0.1,0,0.2,0,0.2c0,0.1,0.1,0.2,0.2,0.2h1.3
				c0.1,0,0.2-0.1,0.2-0.2c0,0,0,0,0,0c0-0.7,0-1.5,0-2.2c0.1-1.3,0-2.6-0.2-3.9c-0.2-1.3-1.3-2.3-2.6-2.4
				C71.4,33.6,71.1,33.5,70.7,33.6L70.7,33.6z"/>
		</g>
		<path class="st0" d="M77.3,42.2h-1.3V41c0-1.8,0-3.6,0-5.5c0-0.9,0-0.9,0.8-1.2c1.1-0.4,2.3-0.6,3.5-0.4c1.4,0.1,2.4,1.2,2.5,2.6
			c0.1,1.7,0,3.4,0,5.2c0,0.7-0.1,0.7-1.2,0.6c0-0.3-0.1-0.5-0.1-0.8c0-1.5,0-3,0-4.5c0-1.3-0.4-1.7-1.6-1.9c-0.7,0-1.4,0-2.2,0.2
			c-0.5,0.1-0.6,0.6-0.6,1c0,1.6,0,3.2,0,4.9V42.2z"/>
		<g class="st4">
			<path class="st0" d="M79.5,33.8c0.3,0,0.6,0,0.9,0.1c1.4,0.1,2.4,1.2,2.5,2.6c0.1,1.7,0,3.4,0,5.2c0,0.5,0,0.6-0.5,0.6
				c-0.2,0-0.4,0-0.7,0c0-0.3-0.1-0.5-0.1-0.8c0-1.5,0-3,0-4.5c0-1.3-0.4-1.7-1.6-1.9c-0.2,0-0.3,0-0.5,0c-0.6,0-1.1,0.1-1.7,0.2
				c-0.5,0.1-0.6,0.6-0.6,1c0,1.6,0,3.2,0,4.9v1.1h-1.3V41c0-1.8,0-3.6,0-5.5c0-0.9,0-0.9,0.8-1.2C77.7,34,78.6,33.8,79.5,33.8
				 M79.5,33.6c-0.9,0-1.8,0.2-2.7,0.5c-0.9,0.4-1,0.5-1,1.4c0,1.3,0,2.6,0,3.9v2.8c0,0.1,0.1,0.2,0.2,0.2l0,0h1.3
				c0.1,0,0.2-0.1,0.2-0.2c0,0,0,0,0,0v-2.5c0-1.2,0-2.4,0-3.5c0-0.6,0.1-0.7,0.4-0.8l0.1,0c0.5-0.1,1-0.1,1.5-0.2
				c0.2,0,0.3,0,0.4,0c1.1,0.1,1.3,0.5,1.4,1.6c0,0.8,0,1.6,0,2.4c0,0.7,0,1.4,0,2c0,0.2,0,0.4,0,0.6l0,0.2c0,0.1,0.1,0.2,0.2,0.2
				c0.3,0,0.5,0,0.7,0c0.7,0,0.7-0.4,0.7-0.9v-0.2c0-1.6,0-3.3,0-4.9c0-1.5-1.2-2.7-2.7-2.8C80.1,33.6,79.8,33.6,79.5,33.6
				L79.5,33.6z"/>
		</g>
		<path class="st0" d="M91.9,20.7h2c0.4,0,0.6,0.2,0.6,0.6c0,2.3,0,4.6,0,7c0,0.5-0.2,0.7-0.7,0.6c-0.6,0-1.2,0-2,0L91.9,20.7z"/>
		<g class="st4">
			<path class="st0" d="M93.9,20.7c0.4,0,0.6,0.2,0.6,0.6c0,2.3,0,4.6,0,7c0,0.4-0.2,0.6-0.6,0.6h0c-0.2,0-0.5,0-0.8,0h-1.2v-8.2
				H93.9 M93.9,20.4h-2c-0.1,0-0.2,0.1-0.2,0.2c0,0,0,0,0,0v8.2c0,0.1,0.1,0.2,0.2,0.2l0,0H93c0.3,0,0.5,0,0.7,0h0
				c0.2,0,0.5-0.1,0.6-0.2c0.2-0.2,0.2-0.4,0.2-0.7c0-2.3,0-4.7,0-7c0-0.2,0-0.4-0.2-0.6C94.4,20.5,94.1,20.4,93.9,20.4L93.9,20.4z"
				/>
		</g>
		<path class="st0" d="M105,41.2c0.1,1,0,1.1-0.8,1.2c-1.6,0.1-2.7-0.9-2.7-2.4c0-1.4,0-2.7,0-4.1c0-0.5-0.1-0.9-0.7-0.9
			c-0.3,0-0.7,0-0.7-0.5c0-0.5,0.3-0.6,0.7-0.6c0.6,0,0.8-0.3,0.7-0.8c0-0.5,0-1.1,0-1.7l1.3-0.1c0,0.7,0,1.2,0,1.8
			c0,0.5,0.2,0.7,0.7,0.7h1c0.4,0,0.7,0,0.7,0.5c0,0.5-0.2,0.6-0.6,0.5c-0.4,0-0.7,0-1.1,0c-0.4,0-0.6,0.2-0.6,0.6c0,1.5,0,3,0,4.5
			c0,0.7,0.5,1.1,1.2,1.2C104.3,41.3,104.7,41.2,105,41.2z"/>
		<g class="st4">
			<path class="st0" d="M102.8,31.4c0,0.7,0,1.2,0,1.8c0,0.5,0.2,0.7,0.7,0.7h0.1h0.8h0.1c0.4,0,0.6,0,0.6,0.5s-0.2,0.5-0.6,0.5
				h-0.4h-0.6h-0.2c-0.4,0-0.6,0.2-0.6,0.6c0,1.5,0,3,0,4.5c0,0.7,0.5,1.1,1.2,1.2h0.2c0.3,0,0.5,0,0.9,0c0.1,1,0,1.1-0.8,1.2h-0.3
				c-1.3,0.1-2.4-0.9-2.4-2.2c0-0.1,0-0.2,0-0.2c0-1.4,0-2.7,0-4.1c0-0.5-0.1-0.9-0.6-0.9h-0.1h-0.2c-0.3,0-0.5-0.1-0.5-0.5
				c0-0.5,0.3-0.6,0.6-0.6h0.1c0.5,0,0.7-0.3,0.7-0.8c0-0.5,0-1.1,0-1.7L102.8,31.4 M102.8,31.1L102.8,31.1h-0.3l-1,0
				c-0.1,0-0.2,0.1-0.2,0.2v0.6c0,0.4,0,0.8,0,1.1c0,0.2,0,0.3-0.1,0.4c-0.1,0.1-0.2,0.1-0.4,0.1h-0.1c-0.3,0-0.5,0.1-0.7,0.2
				c-0.1,0.2-0.2,0.4-0.2,0.6c0,0.4,0.3,0.7,0.6,0.7c0,0,0.1,0,0.1,0h0.2h0.1c0.1,0,0.2,0,0.3,0.1c0.1,0.2,0.1,0.4,0.1,0.5
				c0,1.3,0,2.6,0,4.1c-0.1,1.4,1,2.6,2.4,2.7c0.1,0,0.2,0,0.3,0h0.3c1-0.1,1.1-0.4,1-1.5c0-0.1-0.1-0.2-0.2-0.2l0,0l-0.4,0
				c-0.2,0-0.3,0-0.5,0H104c-0.7,0-1-0.3-1-0.9c0-1.1,0-2.2,0-3.2c0-0.4,0-0.8,0-1.2c0-0.2,0.1-0.3,0.4-0.3h1.2
				c0.2,0,0.4-0.1,0.6-0.2c0.1-0.2,0.2-0.4,0.2-0.6c0-0.8-0.6-0.8-0.9-0.8h-1c-0.1,0-0.3,0-0.4-0.1c-0.1-0.1-0.1-0.3-0.1-0.4
				c0-0.4,0-0.8,0-1.2v-0.6c0-0.1-0.1-0.1-0.1-0.2C102.9,31.2,102.8,31.2,102.8,31.1L102.8,31.1z"/>
		</g>
		<path class="st0" d="M99.1,35.3c-0.5-0.2-1.1-0.3-1.6-0.4c-1.7-0.2-3,0.4-3.1,2.2c-0.1,0.9,0,1.8,0.2,2.6c0.2,1.1,1.3,1.6,2.6,1.5
			c0.7-0.1,1.3-0.2,2-0.3c0.3,0.9,0.1,1.2-0.8,1.3c-0.7,0.1-1.4,0.2-2.1,0.1c-1.7-0.1-3-1.4-3.1-3c-0.1-1,0-2,0.2-3
			c0.3-1.4,1.3-2.2,2.7-2.4c0.8-0.1,1.6,0,2.4,0.1C99.2,34.2,99.2,34.2,99.1,35.3z"/>
		<g class="st4">
			<path class="st0" d="M96.6,33.8c0.6,0,1.1,0.1,1.7,0.2c0.9,0.2,0.9,0.2,0.8,1.3c-0.5-0.2-1.1-0.3-1.6-0.4c-0.2,0-0.4,0-0.5,0
				c-1.4,0-2.4,0.6-2.6,2.2c-0.1,0.9,0,1.8,0.2,2.6c0.2,1,1.1,1.5,2.2,1.5c0.1,0,0.2,0,0.4,0c0.7-0.1,1.3-0.2,2-0.3
				c0.3,0.9,0.1,1.2-0.8,1.3c-0.6,0.1-1.1,0.1-1.7,0.2c-0.1,0-0.2,0-0.4,0c-1.7-0.1-3-1.4-3.2-3.1c-0.1-1,0-2,0.2-3
				c0.3-1.4,1.3-2.2,2.7-2.4C96.2,33.8,96.4,33.8,96.6,33.8 M96.6,33.6c-0.2,0-0.5,0-0.7,0c-1.6,0.2-2.6,1.2-2.9,2.6
				c-0.2,1-0.3,2.1-0.2,3.1c0.1,1.8,1.6,3.2,3.3,3.3c0.1,0,0.3,0,0.4,0c0.4,0,0.8,0,1.3-0.1l0.5-0.1c0.4,0,0.8-0.2,1.1-0.5
				c0.2-0.3,0.1-0.6,0-1.1c0-0.1-0.1-0.2-0.2-0.2h0l-0.6,0.1C98,40.9,97.5,41,97.1,41c-0.1,0-0.2,0-0.3,0c-1.1,0-1.8-0.5-2-1.3
				c-0.2-0.8-0.3-1.7-0.2-2.6c0.1-1.3,0.9-2,2.4-2c0.2,0,0.3,0,0.5,0c0.4,0,0.7,0.1,1.1,0.2l0.5,0.1h0.1c0.1,0,0.1,0,0.1,0
				c0.1,0,0.1-0.1,0.1-0.2c0.1-1.1,0.1-1.4-1-1.6C97.8,33.6,97.2,33.5,96.6,33.6L96.6,33.6z"/>
		</g>
		<path class="st0" d="M91.8,19.3c0-0.3,0-0.6-0.1-0.8c0-0.3,0-0.6,0-1h2.7v1.9H91.8z"/>
		<g class="st4">
			<path class="st0" d="M94.5,17.4v1.9h-2.7c0-0.3,0-0.6-0.1-0.8c0-0.3,0-0.6,0-1H94.5 M94.5,17.2h-2.7c-0.1,0-0.2,0.1-0.2,0.2
				c0,0,0,0,0,0v0.3c0,0.2,0,0.5,0,0.7s0,0.4,0,0.6c0,0.1,0,0.2,0,0.3c0,0.1,0.1,0.2,0.2,0.2h2.7c0.1,0,0.2-0.1,0.2-0.2c0,0,0,0,0,0
				v-1.9C94.7,17.3,94.6,17.2,94.5,17.2L94.5,17.2L94.5,17.2z"/>
		</g>
	</g>
</g>
</svg>
