<?xml version="1.0" encoding="UTF-8" standalone="no"?>
<!-- Created with Inkscape (http://www.inkscape.org/) -->

<svg
   xmlns:dc="http://purl.org/dc/elements/1.1/"
   xmlns:cc="http://creativecommons.org/ns#"
   xmlns:rdf="http://www.w3.org/1999/02/22-rdf-syntax-ns#"
   xmlns:svg="http://www.w3.org/2000/svg"
   xmlns="http://www.w3.org/2000/svg"
   xmlns:sodipodi="http://sodipodi.sourceforge.net/DTD/sodipodi-0.dtd"
   xmlns:inkscape="http://www.inkscape.org/namespaces/inkscape"
   width="189"
   height="60"
   id="svg3149"
   version="1.1"
   inkscape:version="0.91 r13725"
   sodipodi:docname="xregexp-horizontal.svg"
   inkscape:export-filename="/home/amarcuse/site/common/images/badge/xregexp.png"
   inkscape:export-xdpi="90"
   inkscape:export-ydpi="90">
  <defs
     id="defs3151" />
  <sodipodi:namedview
     id="base"
     pagecolor="#ffffff"
     bordercolor="#666666"
     borderopacity="1.0"
     inkscape:pageopacity="0.0"
     inkscape:pageshadow="2"
     inkscape:zoom="5.6984127"
     inkscape:cx="94.5"
     inkscape:cy="30"
     inkscape:document-units="px"
     inkscape:current-layer="layer1"
     showgrid="false"
     inkscape:window-width="1607"
     inkscape:window-height="737"
     inkscape:window-x="156"
     inkscape:window-y="72"
     inkscape:window-maximized="0"
     fit-margin-top="0"
     fit-margin-left="0"
     fit-margin-right="0"
     fit-margin-bottom="0" />
  <metadata
     id="metadata3154">
    <rdf:RDF>
      <cc:Work
         rdf:about="">
        <dc:format>image/svg+xml</dc:format>
        <dc:type
           rdf:resource="http://purl.org/dc/dcmitype/StillImage" />
        <dc:title></dc:title>
      </cc:Work>
    </rdf:RDF>
  </metadata>
  <g
     inkscape:label="Layer 1"
     inkscape:groupmode="layer"
     id="layer1"
     transform="translate(-2.15625,-985.1875)">
    <path
       inkscape:connector-curvature="0"
       id="path3087"
       style="font-style:normal;font-variant:normal;font-weight:normal;font-stretch:normal;font-size:28px;line-height:125%;font-family:Cambria;-inkscape-font-specification:Cambria;text-align:start;letter-spacing:-0.11520004px;word-spacing:0px;writing-mode:lr-tb;text-anchor:start;fill:#999999;fill-opacity:1;stroke:#999999;stroke-width:1.86631072;stroke-linecap:square;stroke-opacity:1"
       d="m 23.278106,999.12067 0,1.08553 c -0.708791,0.1038 -1.218223,0.2953 -1.528306,0.5756 -0.310095,0.2802 -0.465141,0.6643 -0.465133,1.1526 -8e-6,0.4132 0.140268,0.9292 0.420838,1.5506 0.280551,0.6194 0.679237,1.3572 1.196063,2.2141 l 3.211653,5.3824 3.167351,-5.1157 c 0.472508,-0.7686 0.826897,-1.3811 1.063172,-1.8399 0.236237,-0.4577 0.398671,-0.8416 0.487287,-1.1509 0.103342,-0.311 0.155024,-0.6274 0.15504,-0.9526 -1.7e-5,-0.4585 -0.132908,-0.8415 -0.398685,-1.1519 -0.265816,-0.3246 -0.708796,-0.5463 -1.328964,-0.6643 l 0,-1.08553 8.217404,0 0,1.08553 c -0.546373,0.177 -1.041041,0.4353 -1.484006,0.7748 -0.428244,0.3395 -0.893379,0.834 -1.395407,1.4842 -0.487307,0.6498 -1.188702,1.6759 -2.104188,3.0798 l -5.00575,7.7508 5.625932,9.2597 c 0.797352,1.3125 1.365855,2.236 1.705499,2.7684 0.354368,0.5172 0.679222,0.9593 0.974573,1.328 0.310065,0.3555 0.634923,0.664 0.974568,0.9305 0.354366,0.2669 0.789969,0.4941 1.30681,0.6876 l 0,1.0848 -9.723553,0 0,-1.0848 c 0.679229,-0.1182 1.181278,-0.3032 1.506149,-0.5543 0.324838,-0.2665 0.487269,-0.6563 0.487288,-1.1737 -1.9e-5,-0.4131 -0.110767,-0.8705 -0.332243,-1.3729 -0.206741,-0.5035 -0.531597,-1.1236 -0.974573,-1.8608 l -4.009024,-6.6898 -4.230525,6.9328 c -0.708789,1.166 -1.063175,2.1256 -1.063169,2.8788 -6e-6,0.4883 0.132892,0.8858 0.398687,1.1967 0.265784,0.311 0.708772,0.525 1.328962,0.6432 l 0,1.0848 -8.372442,0 0,-1.0848 c 0.546338,-0.1621 0.99671,-0.3555 1.3511,-0.5776 0.354394,-0.2355 0.694012,-0.5309 1.01887,-0.8847 0.324855,-0.3547 0.686631,-0.8044 1.085317,-1.3506 0.398684,-0.5462 1.033634,-1.5004 1.904846,-2.8574 l 5.227242,-8.1509 -6.246114,-10.2786 c -0.590653,-0.9441 -1.04102,-1.6317 -1.351109,-2.0598 -0.295327,-0.4271 -0.575883,-0.7746 -0.841676,-1.0407 -0.251022,-0.2656 -0.4799,-0.4501 -0.686623,-0.5537 -0.206731,-0.1182 -0.442997,-0.2211 -0.708786,-0.3098 l 0,-1.08553 9.435621,0" />
    <path
       inkscape:connector-curvature="0"
       id="path3089"
       style="font-style:normal;font-variant:normal;font-weight:normal;font-stretch:normal;font-size:28px;line-height:125%;font-family:Cambria;-inkscape-font-specification:Cambria;text-align:start;letter-spacing:-0.11520004px;word-spacing:0px;writing-mode:lr-tb;text-anchor:start;fill:#000000;fill-opacity:1;stroke:#000000;stroke-width:1.86631072;stroke-opacity:1"
       d="m 47.832283,1016.2208 0,7.5293 c -1.1e-5,1.0639 0.03684,1.8393 0.110746,2.3265 0.08862,0.4732 0.214102,0.834 0.376537,1.0849 0.162422,0.2358 0.383915,0.4367 0.664483,0.5988 0.280549,0.1462 0.760447,0.3162 1.439708,0.5097 l 0,1.0848 -9.347023,0 0,-1.0848 c 0.915505,-0.2379 1.528303,-0.4958 1.838397,-0.7764 0.310089,-0.2954 0.509426,-0.7085 0.59803,-1.2391 0.103363,-0.5333 0.155042,-1.3436 0.155042,-2.4364 l 0,-19.1594 c -6e-6,-1.0196 -0.03686,-1.7568 -0.110746,-2.2157 -0.07377,-0.4719 -0.199352,-0.8346 -0.376543,-1.0857 -0.162429,-0.265 -0.383922,-0.4717 -0.664473,-0.6197 -0.280564,-0.1625 -0.760469,-0.3396 -1.439712,-0.5314 l 0,-1.08553 10.963922,0 c 3.45528,2.1e-4 6.03937,0.62759 7.752267,1.88293 1.71286,1.2551 2.569298,3.204 2.569323,5.8484 -2.5e-5,2.0212 -0.561139,3.7415 -1.68335,5.1604 -1.107485,1.417 -2.776066,2.5254 -5.005748,3.3225 l 0,0.1757 c 0.900721,0.3709 1.668563,0.9014 2.303534,1.5946 0.64969,0.6793 1.365852,1.7433 2.148483,3.1909 l 1.993441,3.6317 c 0.575856,1.0641 1.070526,1.8746 1.484006,2.4363 0.413429,0.5623 0.834264,0.9897 1.262512,1.2841 0.42819,0.2953 0.99669,0.5036 1.705495,0.6218 l 0,1.0848 -6.135364,0 c -0.561137,-0.7827 -1.092721,-1.6234 -1.594752,-2.5253 -0.502071,-0.9015 -0.996741,-1.8167 -1.484007,-2.7474 l -1.949141,-3.6988 c -0.590665,-1.1219 -1.077951,-1.9479 -1.461854,-2.4806 -0.369172,-0.5312 -0.716178,-0.8998 -1.04102,-1.1063 -0.310101,-0.2223 -0.649731,-0.3686 -1.018869,-0.4443 -0.354402,-0.096 -0.893369,-0.1312 -1.616901,-0.1312 l -2.436429,0 m 0,-15.0625 0,13.1572 2.502876,0 c 1.284649,0 2.325663,-0.096 3.123056,-0.2666 0.797361,-0.1909 1.535671,-0.5466 2.214934,-1.0623 0.679229,-0.5167 1.218197,-1.2329 1.616902,-2.1478 0.413432,-0.9309 0.620162,-2.068 0.620181,-3.4117 -1.9e-5,-1.4039 -0.24366,-2.5696 -0.730929,-3.5004 -0.472538,-0.9303 -1.196082,-1.6391 -2.170635,-2.1256 -0.974586,-0.488 -2.288776,-0.7313 -3.942583,-0.7313 -1.328968,0 -2.406899,0.03 -3.233802,0.092" />
    <path
       inkscape:connector-curvature="0"
       id="path3091"
       style="font-style:normal;font-variant:normal;font-weight:normal;font-stretch:normal;font-size:28px;line-height:125%;font-family:Cambria;-inkscape-font-specification:Cambria;text-align:start;letter-spacing:-0.11520004px;word-spacing:0px;writing-mode:lr-tb;text-anchor:start;fill:#000000;fill-opacity:1;stroke:#000000;stroke-width:1.86631072;stroke-opacity:1"
       d="m 85.432422,1025.5894 c -0.945058,0.9892 -1.816265,1.7644 -2.613622,2.3251 -0.782624,0.5621 -1.646456,1.0038 -2.591474,1.3297 -0.945055,0.3094 -1.986071,0.4639 -3.12306,0.4639 -3.041848,0 -5.337993,-0.9076 -6.888441,-2.7242 -1.550456,-1.8301 -2.325683,-4.5254 -2.325679,-8.0832 -4e-6,-2.2011 0.391303,-4.1432 1.173915,-5.8265 0.797371,-1.683 1.926988,-2.9827 3.388847,-3.8982 1.461847,-0.9149 3.145195,-1.3726 5.050044,-1.3726 1.491379,0 2.761271,0.2355 3.80969,0.7086 1.04838,0.4732 1.882678,1.1215 2.502875,1.9501 0.63493,0.8104 1.122216,1.8458 1.461859,3.1005 0.354369,1.239 0.55371,2.8652 0.598032,4.8728 l -13.954085,0 0,0.3975 c -6e-6,1.7435 0.191956,3.2127 0.575884,4.4075 0.398683,1.1815 1.041012,2.1121 1.926991,2.792 0.900731,0.6638 2.067261,0.9958 3.499592,0.9958 1.210817,0 2.296136,-0.2205 3.255957,-0.6641 0.974552,-0.4573 1.94174,-1.195 2.901566,-2.2139 l 1.351109,1.4392 m -3.721094,-8.9918 c -0.08864,-1.5949 -0.287952,-2.8959 -0.598033,-3.9 -0.310102,-1.0171 -0.775238,-1.7936 -1.39541,-2.3244 -0.620188,-0.5463 -1.432335,-0.8209 -2.436422,-0.8209 -1.520929,0 -2.739145,0.6146 -3.654637,1.8389 -0.900749,1.2121 -1.432334,2.9454 -1.594752,5.2064 l 9.679254,0" />
    <path
       inkscape:connector-curvature="0"
       id="path3093"
       style="font-style:normal;font-variant:normal;font-weight:normal;font-stretch:normal;font-size:28px;line-height:125%;font-family:Cambria;-inkscape-font-specification:Cambria;text-align:start;letter-spacing:-0.11520004px;word-spacing:0px;writing-mode:lr-tb;text-anchor:start;fill:#000000;fill-opacity:1;stroke:#000000;stroke-width:1.86631072;stroke-linecap:square;stroke-opacity:1"
       d="m 109.56573,1010.4178 -4.09759,-0.157 -0.19935,0.2455 c 0.45772,0.4572 0.81949,1.0846 1.08532,1.882 0.26576,0.7816 0.39867,1.6314 0.39869,2.5462 -2e-5,2.4076 -0.74572,4.2689 -2.23709,5.5814 -1.47665,1.2993 -3.5808,1.9501 -6.312573,1.9501 -1.22559,0 -2.281371,-0.1548 -3.167341,-0.4653 -1.122241,0.8574 -1.683356,1.6983 -1.68335,2.5253 -6e-6,0.5463 0.103365,0.9592 0.310087,1.2391 0.221494,0.2822 0.575882,0.481 1.06317,0.5985 0.502043,0.1178 1.255112,0.1779 2.259208,0.1779 l 5.315879,0 c 1.56518,0 2.84245,0.243 3.83182,0.7298 0.98931,0.4885 1.6907,1.1446 2.10418,1.9727 0.42822,0.811 0.64234,1.7646 0.64236,2.8568 -2e-5,1.3869 -0.39873,2.6206 -1.19609,3.6977 -0.79738,1.0925 -1.94916,1.942 -3.45531,2.5485 -1.50617,0.6041 -3.26331,0.9073 -5.271502,0.9073 -1.491408,0 -2.857291,-0.096 -4.097645,-0.2641 -1.22561,-0.1778 -2.28139,-0.481 -3.167363,-0.9096 -0.871206,-0.4133 -1.550453,-0.9673 -2.037737,-1.6601 -0.472516,-0.6796 -0.708779,-1.5371 -0.708779,-2.5698 0,-0.9307 0.310092,-1.7803 0.93028,-2.5479 0.620174,-0.7537 1.49876,-1.4177 2.635769,-1.9929 -0.694021,-0.2799 -1.240369,-0.6951 -1.639055,-1.2413 -0.398693,-0.5464 -0.598027,-1.1871 -0.598027,-1.927 0,-0.8417 0.23625,-1.6079 0.708773,-2.3033 0.472517,-0.7083 1.306813,-1.5134 2.502874,-2.4128 -1.063172,-0.6218 -1.875307,-1.4636 -2.436427,-2.5253 -0.546351,-1.0639 -0.819529,-2.2742 -0.819523,-3.6338 -6e-6,-1.2699 0.20672,-2.3682 0.620182,-3.299 0.428215,-0.9463 1.011481,-1.7201 1.749797,-2.3266 0.753073,-0.6196 1.639048,-1.0771 2.657928,-1.3726 1.018857,-0.3111 2.118938,-0.4652 3.300254,-0.4652 1.063158,0 2.118941,0.1247 3.167361,0.3764 l 7.84082,0 0,2.2379 m -15.37161,4.4964 c -1e-5,1.8455 0.37653,3.2704 1.12961,4.2743 0.753082,1.0037 1.838396,1.5054 3.255971,1.5054 0.753043,0 1.395391,-0.14 1.926999,-0.4206 0.53155,-0.2955 0.95979,-0.6929 1.28466,-1.1952 0.33958,-0.5031 0.58323,-1.0794 0.7309,-1.7275 0.16244,-0.666 0.24362,-1.3593 0.24363,-2.0837 -1e-5,-1.2991 -0.18458,-2.384 -0.55369,-3.2544 -0.36919,-0.8728 -0.87126,-1.5057 -1.50617,-1.9059 -0.63499,-0.4129 -1.365895,-0.6195 -2.192797,-0.6195 -1.402811,0 -2.473342,0.4653 -3.211637,1.396 -0.738321,0.9286 -1.107486,2.2728 -1.107476,4.0311 m 0.553731,14.7939 c -0.753081,0.5616 -1.321581,1.1524 -1.705495,1.772 -0.369159,0.6354 -0.553744,1.3515 -0.553739,2.1489 -5e-6,1.329 0.524201,2.3032 1.572608,2.9252 1.063154,0.6328 2.680041,0.9517 4.850707,0.9517 1.328938,0 2.465938,-0.1779 3.410988,-0.5316 0.95979,-0.3547 1.69071,-0.8644 2.19279,-1.5284 0.50202,-0.6641 0.75306,-1.4405 0.75308,-2.3266 -2e-5,-0.4131 -0.0525,-0.8182 -0.15507,-1.2183 -0.10338,-0.3841 -0.30271,-0.7293 -0.59801,-1.0405 -0.28056,-0.3109 -0.68665,-0.5618 -1.2182,-0.7528 -0.53162,-0.1778 -1.22562,-0.2666 -2.08205,-0.2666 l -3.300249,0 c -1.196068,0 -2.251838,-0.047 -3.16736,-0.133" />
    <path
       inkscape:connector-curvature="0"
       id="path3095"
       style="font-style:normal;font-variant:normal;font-weight:normal;font-stretch:normal;font-size:28px;line-height:125%;font-family:Cambria;-inkscape-font-specification:Cambria;text-align:start;letter-spacing:-0.11520004px;word-spacing:0px;writing-mode:lr-tb;text-anchor:start;fill:#000000;fill-opacity:1;stroke:#000000;stroke-width:1.86631;stroke-linecap:square;stroke-miterlimit:4;stroke-dasharray:none;stroke-opacity:1"
       d="m 133.16754,999.12067 0,6.68863 -2.17063,0 c -0.22154,-0.7219 -0.45041,-1.3571 -0.68668,-1.9034 -0.23625,-0.5465 -0.47989,-1.004 -0.73092,-1.3748 -0.25104,-0.3689 -0.53156,-0.6641 -0.84165,-0.8857 -0.29536,-0.2208 -0.64974,-0.3691 -1.06318,-0.4426 -0.41348,-0.092 -0.90813,-0.1331 -1.48401,-0.1331 l -6.9992,0 0,11.6066 4.73997,0 c 0.64971,0 1.15915,-0.096 1.52833,-0.2666 0.36913,-0.1908 0.67183,-0.5096 0.90811,-0.9514 0.25099,-0.4442 0.48726,-1.1372 0.70876,-2.0832 l 2.08205,0 0,8.5061 -2.08205,0 c -0.20673,-0.8862 -0.4356,-1.5501 -0.68662,-1.9943 -0.25104,-0.4577 -0.55376,-0.7819 -0.90813,-0.9727 -0.33964,-0.1936 -0.85645,-0.2889 -1.55045,-0.2889 l -4.73997,0 0,12.7793 6.88844,0 c 0.72356,0 1.3068,-0.062 1.74981,-0.1767 0.45777,-0.1318 0.84906,-0.3459 1.1739,-0.6413 0.32485,-0.3111 0.6128,-0.7086 0.86385,-1.1974 0.25101,-0.4862 0.45773,-0.9882 0.62018,-1.5059 0.17718,-0.5305 0.41344,-1.2992 0.70874,-2.303 l 2.1928,0 -0.42082,7.7745 -20.51026,0 0,-1.0848 c 0.91549,-0.2379 1.52828,-0.4958 1.83836,-0.7764 0.31008,-0.2954 0.50946,-0.7085 0.59806,-1.2391 0.10329,-0.5333 0.15504,-1.3436 0.15504,-2.4364 l 0,-19.1594 c 0,-1.0196 -0.0365,-1.7568 -0.11079,-2.2157 -0.0731,-0.4719 -0.19932,-0.8346 -0.3765,-1.0857 -0.16242,-0.265 -0.38397,-0.4717 -0.6645,-0.6197 -0.28054,-0.1625 -0.76048,-0.3396 -1.43969,-0.5314 l 0,-1.08553 20.70964,0" />
    <path
       inkscape:connector-curvature="0"
       id="path3097"
       style="font-style:normal;font-variant:normal;font-weight:normal;font-stretch:normal;font-size:28px;line-height:125%;font-family:Cambria;-inkscape-font-specification:Cambria;text-align:start;letter-spacing:-0.11520004px;word-spacing:0px;writing-mode:lr-tb;text-anchor:start;fill:#000000;fill-opacity:1;stroke:#000000;stroke-width:1.86631072;stroke-opacity:1"
       d="m 147.24507,1016.5741 2.87938,-3.6547 c 0.31008,-0.3973 0.56113,-0.7817 0.75311,-1.1509 0.19192,-0.3835 0.2879,-0.7756 0.28791,-1.175 -1e-5,-0.3381 -0.12553,-0.6202 -0.37651,-0.8411 -0.25104,-0.2209 -0.64233,-0.3828 -1.17394,-0.4874 l 0,-1.0851 7.24282,0 0,1.0851 c -0.56112,0.1619 -1.13701,0.481 -1.72759,0.9518 -0.5759,0.4728 -1.2847,1.2335 -2.12635,2.2817 l -4.58496,5.6257 5.05006,6.7997 c 0.72356,0.9749 1.3732,1.7202 1.94912,2.2376 0.57589,0.5177 1.15178,0.8863 1.7277,1.1085 l 0,1.0848 -8.90407,0 0,-1.0848 c 1.2256,-0.1488 1.83842,-0.6066 1.83844,-1.3749 -2e-5,-0.3085 -0.0525,-0.604 -0.15505,-0.8854 -0.10346,-0.2807 -0.29532,-0.6049 -0.57588,-0.9735 l -3.2117,-4.4754 -3.411,4.4311 c -0.251,0.324 -0.45035,0.6274 -0.59798,0.9069 -0.13296,0.2669 -0.19937,0.5699 -0.19936,0.9089 -10e-6,0.3983 0.13288,0.7304 0.39866,0.997 0.28057,0.2511 0.7162,0.4052 1.30683,0.4653 l 0,1.0848 -7.39789,0 0,-1.0848 c 0.48729,-0.1778 0.92291,-0.4 1.30682,-0.6643 0.39867,-0.2664 0.79736,-0.6061 1.19604,-1.0191 0.41351,-0.4289 0.95248,-1.0485 1.61692,-1.8615 l 4.60708,-5.7146 -4.7178,-6.4675 c -0.64973,-0.8863 -1.16652,-1.5289 -1.55046,-1.9267 -0.38397,-0.3994 -0.73831,-0.7004 -1.06317,-0.9071 -0.32489,-0.2084 -0.64971,-0.3554 -0.97457,-0.4442 l 0,-1.0851 8.68251,0 0,1.0851 c -1.1665,0.1775 -1.74977,0.6351 -1.74976,1.3727 -1e-5,0.3398 0.0731,0.6793 0.22151,1.019 0.16236,0.3401 0.406,0.7165 0.73092,1.1295 l 2.70221,3.7879" />
    <path
       inkscape:connector-curvature="0"
       id="path3099"
       style="font-style:normal;font-variant:normal;font-weight:normal;font-stretch:normal;font-size:28px;line-height:125%;font-family:Cambria;-inkscape-font-specification:Cambria;text-align:start;letter-spacing:-0.11520004px;word-spacing:0px;writing-mode:lr-tb;text-anchor:start;fill:#000000;fill-opacity:1;stroke:#000000;stroke-width:1.86631072;stroke-opacity:1"
       d="m 165.66385,1028.691 0,4.6716 c 0,0.9619 0.0286,1.678 0.089,2.1487 0.0731,0.4731 0.19192,0.8418 0.3544,1.1084 0.17719,0.2797 0.42083,0.5097 0.73094,0.6874 0.32479,0.1752 0.84158,0.3389 1.55048,0.4862 l 0,1.0849 -9.03694,0 0,-1.0849 c 0.53149,-0.1473 0.95972,-0.3031 1.28462,-0.4652 0.33959,-0.1462 0.59805,-0.3765 0.77523,-0.6874 0.17715,-0.2954 0.29529,-0.7008 0.35437,-1.2183 0.0601,-0.5151 0.089,-1.2027 0.089,-2.0598 l 0,-19.0027 c 0,-1.0641 -0.0157,-1.8169 -0.0445,-2.2585 -0.0287,-0.4588 -0.089,-0.8362 -0.17714,-1.1308 -0.0889,-0.2947 -0.22157,-0.5397 -0.3987,-0.7307 -0.1625,-0.1929 -0.39131,-0.3552 -0.68668,-0.4875 -0.28052,-0.132 -0.75311,-0.2653 -1.41754,-0.3987 l 0,-1.1738 5.20508,-0.1986 1.35117,0 -0.28801,3.6102 0.33221,0.096 c 0.9155,-0.9295 1.63906,-1.6013 2.1707,-2.0157 0.53156,-0.4275 1.07792,-0.7831 1.639,-1.0628 0.57586,-0.2811 1.12221,-0.4809 1.63903,-0.5986 0.53167,-0.1177 1.09272,-0.1777 1.68342,-0.1777 2.4364,0 4.30434,0.9161 5.6038,2.7475 1.31419,1.8169 1.97117,4.4808 1.97121,7.9958 -4e-5,2.4366 -0.36917,4.4895 -1.10742,6.1574 -0.73829,1.6546 -1.8163,2.9017 -3.23375,3.7436 -1.40284,0.826 -3.07879,1.239 -5.02793,1.239 -1.09269,0 -2.0821,-0.1 -2.96807,-0.2876 -0.88595,-0.1772 -1.69813,-0.4209 -2.43641,-0.7295 m 0,-7.3094 c -1e-5,1.4173 0.089,2.5101 0.26586,3.2776 0.17714,0.767 0.48728,1.3943 0.93019,1.8832 0.45774,0.4714 0.9894,0.8259 1.59483,1.0618 0.62011,0.2374 1.43231,0.3549 2.43643,0.3549 1.78664,0 3.13039,-0.7377 4.03109,-2.2141 0.90081,-1.4927 1.35115,-3.6856 1.35118,-6.5799 -3e-5,-5.7878 -1.69079,-8.6818 -5.07223,-8.6818 -0.82688,0 -1.54312,0.1334 -2.14851,0.3988 -0.59062,0.2514 -1.18125,0.6653 -1.77196,1.2404 -0.59056,0.5751 -1.01144,1.1372 -1.26243,1.6836 -0.23629,0.5306 -0.35446,1.1075 -0.35445,1.7279 l 0,5.8476" />
  </g>
</svg>
