<?xml version="1.0" encoding="UTF-8" standalone="no"?>
<!-- Generator: Adobe Illustrator 23.0.2, SVG Export Plug-In . SVG Version: 6.00 Build 0)  -->

<svg
   xmlns:dc="http://purl.org/dc/elements/1.1/"
   xmlns:cc="http://creativecommons.org/ns#"
   xmlns:rdf="http://www.w3.org/1999/02/22-rdf-syntax-ns#"
   xmlns:svg="http://www.w3.org/2000/svg"
   xmlns="http://www.w3.org/2000/svg"
   xmlns:sodipodi="http://sodipodi.sourceforge.net/DTD/sodipodi-0.dtd"
   xmlns:inkscape="http://www.inkscape.org/namespaces/inkscape"
   version="1.1"
   id="Layer_1"
   x="0px"
   y="0px"
   viewBox="0 0 120 60.000001"
   xml:space="preserve"
   sodipodi:docname="advocately-ar21.svg"
   width="120"
   height="60"
   inkscape:version="0.92.2 5c3e80d, 2017-08-06"><metadata
     id="metadata15"><rdf:RDF><cc:Work
         rdf:about=""><dc:format>image/svg+xml</dc:format><dc:type
           rdf:resource="http://purl.org/dc/dcmitype/StillImage" /><dc:title></dc:title></cc:Work></rdf:RDF></metadata><defs
     id="defs13" /><sodipodi:namedview
     pagecolor="#ffffff"
     bordercolor="#666666"
     borderopacity="1"
     objecttolerance="10"
     gridtolerance="10"
     guidetolerance="10"
     inkscape:pageopacity="0"
     inkscape:pageshadow="2"
     inkscape:window-width="1440"
     inkscape:window-height="799"
     id="namedview11"
     showgrid="false"
     inkscape:zoom="0.8077786"
     inkscape:cx="200.55"
     inkscape:cy="60.049999"
     inkscape:window-x="0"
     inkscape:window-y="1"
     inkscape:window-maximized="1"
     inkscape:current-layer="Layer_1" /><style
     type="text/css"
     id="style2">
	.st0{fill:#60C575;}
</style><g
     id="g8"
     transform="matrix(0.24942488,0,0,0.24942488,10.020389,19.001826)"><path
       class="st0"
       d="m 397.8,82.4 c -0.4,-0.1 -8.6,-0.8 -21.7,0.9 8.1,-22.5 10.3,-36.4 10.5,-37.1 0.3,-1.8 -0.8,-3.5 -2.6,-4 -1.8,-0.4 -3.6,0.6 -4.2,2.3 -2.9,8.7 -11.6,26.3 -19.6,25 -1,-0.1 -1.7,-0.6 -2.1,-1.4 -2,-3.4 -0.4,-12 1.9,-19.2 1.3,-3.3 2,-5.6 2.1,-5.9 0.5,-1.8 -0.4,-3.7 -2.2,-4.3 -1.8,-0.6 -3.7,0.3 -4.4,2 -0.1,0.1 -1,2.3 -2,5.5 -1.1,2.7 -2.7,6.3 -4.9,9.7 -5.4,8.6 -11.2,12.4 -17.3,11.2 -1.5,-0.3 -2.5,-0.9 -3.2,-2 -1.3,-2 -1.7,-5.3 -1.5,-9.3 5.3,-6.2 9.6,-12.9 12.6,-17.3 l 0.6,-0.8 c 3.3,-5.1 6.5,-10.9 8.5,-16 2.8,-7 3.6,-12.3 2.4,-16 -0.8,-2.4 -2.4,-4.2 -4.7,-5.1 -1.5,-0.6 -4,-1 -6.8,0.5 -6.5,3.4 -12.5,15.7 -16.4,33.5 -1.5,6.9 -2.6,13 -3.1,18.3 -6.9,7.7 -15,13.8 -22.4,11.3 -2.7,-1 -4.5,-2.7 -5.5,-5.3 -0.1,-0.2 -0.1,-0.4 -0.2,-0.5 5.6,-1.2 15.9,-4.3 20.6,-10.8 2.1,-2.9 2.9,-6.2 2.3,-9.6 -0.7,-4.2 -3.6,-7.3 -7.9,-8.2 -5.2,-1.1 -12.8,1.4 -18,9.5 -2.7,4.2 -4.7,10.2 -4.5,16.1 0,0.3 0,0.5 0.1,0.7 0.1,1.7 0.4,3.4 1,5.1 1.6,4.7 5,8 9.8,9.6 8.8,3 17.4,-1.4 24.8,-8.1 0.4,2.4 1.1,4.5 2.3,6.3 1.8,2.7 4.3,4.3 7.7,5 1.3,0.3 2.5,0.4 3.7,0.4 6.8,0 12.3,-3.8 16.6,-8.8 0.2,2.4 0.8,4.5 1.7,6.1 1.5,2.7 4,4.4 7.2,4.9 5.2,0.8 9.9,-1.8 13.8,-5.7 -1.3,4.2 -2.9,8.8 -4.8,13.8 -2.6,0.5 -5.3,1.1 -8.1,1.9 -14.5,3.7 -24.5,10.9 -26.8,19.3 -1.1,4.2 -0.1,8.2 2.9,11.2 2,2.1 4.7,3.1 7.6,3.1 0.9,0 1.9,-0.1 2.8,-0.3 10.3,-2.1 21.5,-15.4 25.9,-26.4 0.3,-0.9 0.7,-1.7 1,-2.6 14.3,-2.4 23.6,-1.5 23.7,-1.5 1.9,0.2 3.6,-1.2 3.8,-3.1 0.3,-2 -1.1,-3.7 -3,-3.9 z M 329.7,36.1 c 3.7,-17.1 9.3,-27 12.8,-28.9 0.4,-0.2 0.6,-0.3 0.7,-0.3 0.1,0 0.2,0 0.2,0.1 0.2,0.1 0.4,0.1 0.6,0.7 1.3,3.9 -3.3,15.6 -10.1,26 l -0.6,0.9 c -1.2,1.9 -2.9,4.4 -4.8,7.2 0.4,-2 0.8,-3.9 1.2,-5.7 z M 294.8,43 c 2.8,-4.4 6.7,-6.5 9.6,-6.5 0.4,0 0.7,0.1 1,0.1 1.4,0.3 2.1,1.1 2.4,2.4 0.3,1.6 -0.1,2.9 -1,4.3 -2.8,3.9 -10,6.5 -15.1,7.7 0.5,-2.9 1.6,-5.8 3.1,-8 z m 50.2,69.9 c -2.3,0.4 -3.4,-0.3 -4,-0.9 -1.2,-1.2 -1.5,-2.6 -1,-4.4 1.2,-4.3 7.6,-10.7 21.8,-14.4 1.1,-0.3 2.2,-0.6 3.3,-0.8 -4.4,9.7 -13.6,19.2 -20.1,20.5 z"
       id="path4"
       inkscape:connector-curvature="0"
       style="fill:#60c575" /><path
       class="st0"
       d="m 275,60.3 c -1,0.5 -5.9,2.7 -8.8,-1.7 -0.7,-1.1 -2.7,-6.6 2.9,-28.4 0.2,-0.8 0.4,-1.7 0.6,-2.5 0.4,-1.1 0.8,-2.3 1.1,-3.4 8.4,-0.4 18.1,-0.7 27.1,-0.3 1.9,0.1 3.6,-1.4 3.7,-3.3 0.1,-1.9 -1.4,-3.6 -3.3,-3.7 -8.4,-0.4 -17.3,-0.3 -25.2,0.1 2,-6.3 3.2,-10.7 3.2,-10.8 0.5,-1.9 -0.5,-3.7 -2.3,-4.3 -1.8,-0.6 -3.7,0.4 -4.3,2.2 -0.1,0.3 -2,5.8 -4.3,13.4 -9.6,0.6 -16.5,1.5 -17.1,1.5 -1.9,0.3 -3.3,2 -3.1,3.9 0.2,1.8 1.7,3.1 3.5,3.1 h 0.4 c 0.1,0 5.9,-0.7 14.2,-1.3 -0.1,0.3 -0.2,0.6 -0.3,0.9 -0.7,2.1 -1.5,4.3 -2.2,6.5 -9.5,26.3 -14.1,28 -14.2,28 -1.1,0.2 -1.5,-0.1 -1.8,-0.3 -2.2,-2 -2.8,-9.2 -2.5,-13.7 0.5,-1.9 2,-8.6 -0.8,-13.2 -1.3,-2.2 -3.4,-3.6 -6.1,-4.2 -4.1,-0.8 -9,0.8 -13.9,4.5 -4.4,3.3 -8,7.7 -10.2,12.3 -0.1,0.3 -0.3,0.5 -0.3,0.8 -0.4,0.7 -2.8,4.6 -6.5,8.3 -5,4.9 -9.8,7.1 -14.3,6.5 -0.8,-0.1 -3.6,-0.7 -5.4,-3.3 -1.7,-2.4 -2.1,-5.9 -1.1,-10.5 1.7,-7.9 5.7,-11 8,-12.1 2.7,-1.3 5.1,-1.2 6.3,-0.6 1.1,0.5 1.5,1.1 1.6,1.6 0.6,1.8 -0.4,4.5 -0.9,5.2 -0.9,1.7 -0.3,3.8 1.5,4.7 1.7,0.9 3.8,0.3 4.7,-1.5 0.3,-0.6 3,-5.8 1.3,-10.8 -0.8,-2.6 -2.7,-4.5 -5.3,-5.7 -3.6,-1.7 -8.2,-1.4 -12.5,0.7 -3.4,1.7 -9.5,6.2 -11.8,17 -1.3,6.5 -0.6,11.9 2.2,16 3.3,4.8 8.2,6 10.2,6.3 0.9,0.1 1.8,0.2 2.6,0.2 7.2,0 13.4,-4.3 17.8,-8.8 0.3,1.1 0.8,2 1.4,3 2.2,3.4 6.3,5.4 10.9,5.2 6.5,-0.1 11.2,-4.4 14.4,-9.1 0.8,2.6 1.9,4.9 3.7,6.5 1.5,1.3 4.1,2.7 7.9,1.9 2.6,-0.6 5.8,-2.6 10.3,-11.1 0.3,3.3 1.1,5.1 1.9,6.4 2.9,4.5 6.9,5.9 10.6,5.9 2.9,0 5.6,-0.9 7.4,-1.9 1.7,-0.9 2.4,-3 1.5,-4.7 -0.6,-1.6 -2.7,-2.3 -4.4,-1.4 z M 235.6,44.6 c -0.1,0 -0.1,0 0,0 -1.3,4.5 -6.3,16 -13.7,16.2 -1.6,0.1 -3.7,-0.3 -4.9,-2.1 -1.4,-2.2 -1.1,-5.8 0.9,-10.1 3.3,-7.1 11.1,-12.8 15.5,-12.8 0.3,0 0.6,0 0.8,0.1 0.9,0.2 1.2,0.5 1.4,0.9 1.2,1.8 0.5,6 0,7.8 z M 160.8,28.1 c -8.8,-2.1 -18.6,4.7 -22.3,15.5 -2.2,6.5 -1.8,13 1.2,18 2.3,3.8 5.9,6.2 10.2,6.8 0.7,0.1 1.4,0.1 2.1,0.1 8.4,0 16.4,-7.1 18.8,-17.1 1.3,-5.2 1.1,-10.2 -0.3,-14.2 -1.8,-4.9 -5.2,-8 -9.7,-9.1 z m 3.1,21.6 c -1.7,7.2 -7.6,12.5 -13.1,11.7 -2.7,-0.4 -4.3,-2.2 -5.2,-3.6 -1.9,-3.1 -2.1,-7.6 -0.6,-12 2.2,-6.5 7.5,-11.1 12.3,-11.1 0.6,0 1.1,0.1 1.7,0.2 2.2,0.6 3.8,2.1 4.7,4.6 1.1,2.7 1.1,6.3 0.2,10.2 z M 144.8,23.9 c 1.5,-1.2 1.8,-3.4 0.6,-4.9 -1.2,-1.5 -3.4,-1.8 -4.9,-0.6 -11.9,9.5 -18.5,25.6 -21.7,35.8 -0.8,-2 -1.5,-4.3 -2,-6.6 -2.2,-10.1 -1.5,-16.2 -1.5,-16.3 0.3,-1.9 -1,-3.7 -2.9,-4 -1.9,-0.3 -3.7,1 -4,2.9 -0.1,0.3 -1,7.3 1.5,18.8 2,8.9 6.5,16.9 6.7,17.2 0.6,1.1 1.8,1.8 3.1,1.8 0.2,0 0.4,0 0.6,-0.1 1.5,-0.3 2.6,-1.3 2.9,-2.8 -0.1,0 5.4,-28.3 21.6,-41.2 z M 99,45 c 0,-0.3 0,-0.5 0.1,-0.8 1.5,-15.3 8.9,-33.3 9,-33.5 0.8,-1.8 -0.1,-3.8 -1.9,-4.6 -1.8,-0.8 -3.8,0.1 -4.6,1.9 -0.3,0.6 -5,11.8 -7.7,23.4 -0.4,-0.3 -0.8,-0.5 -1.3,-0.7 -3.4,-1.7 -7.6,-1.5 -12,0.5 -7.1,3.2 -12.9,10.3 -15.2,18.5 -2.2,7.7 -0.6,14.7 4.2,18.7 2.2,1.9 4.9,2.8 7.7,2.8 2,0 4,-0.5 6,-1.5 4,-2 7.2,-4.9 9.6,-8.4 0.8,2.7 2,5.2 4,6.9 1.4,1.3 3.6,1.2 5,-0.3 1.3,-1.4 1.2,-3.6 -0.3,-5 C 99.3,60.8 98.2,54.4 98.7,46.4 98.9,46.1 99,45.6 99,45 Z m -7,-1 c -0.1,0.6 -0.1,1.3 -0.1,2 -0.8,5.7 -4.2,14 -11.6,17.6 -2.2,1.1 -4.5,1 -6.2,-0.4 -2,-1.7 -3.6,-5.6 -1.9,-11.4 2,-7.5 7.4,-12.2 11.3,-13.9 1.5,-0.6 2.9,-1 4.1,-1 0.8,0 1.4,0.1 1.9,0.4 2.2,0.9 2.5,4.6 2.5,6.7 z M 49,4.4 C 41.2,4 33,13.2 24.7,31.5 c -2.7,5.9 -5.1,12.3 -7.1,18 -8.9,1.7 -14.7,3.2 -15,3.3 -1.9,0.4 -3,2.4 -2.6,4.3 0.4,1.6 1.9,2.6 3.4,2.6 0.3,0 0.6,-0.1 0.9,-0.1 0.1,0 4.2,-1.1 10.7,-2.4 -2.4,7.5 -3.8,12.8 -3.9,13.3 -0.5,1.9 0.6,3.8 2.5,4.3 0.3,0.1 0.6,0.1 0.9,0.1 1.5,0 3,-1 3.4,-2.6 0,-0.1 1.9,-7.3 5,-16.6 1.5,-0.3 3.1,-0.6 4.8,-0.8 11,-1.9 19.4,-2.7 23.8,-3.1 -1.1,8.5 -2.3,15.7 -2.3,15.8 -0.3,1.9 1,3.7 2.9,4 1.9,0.3 3.7,-1 4,-2.9 0,-0.1 2.1,-13.5 3.5,-25.2 C 61.1,31.2 60.8,14.6 55.1,7.8 53.6,5.6 51.5,4.5 49,4.4 Z m -22.3,43.5 -1,0.2 c 1.7,-4.5 3.5,-9.2 5.5,-13.7 7.8,-17.3 14.3,-23.2 17.4,-23 0.2,0 0.6,0.1 1.3,0.8 3.3,3.9 4.5,16.9 2.9,30.3 -0.1,0.7 -0.2,1.4 -0.3,2 -4,0.4 -13.1,1.3 -25.8,3.4 z"
       id="path6"
       inkscape:connector-curvature="0"
       style="fill:#60c575" /></g></svg>