<?xml version="1.0" encoding="UTF-8" standalone="no"?>
<!-- Generator: Adobe Illustrator 21.1.0, SVG Export Plug-In . SVG Version: 6.00 Build 0)  -->

<svg
   xmlns:dc="http://purl.org/dc/elements/1.1/"
   xmlns:cc="http://creativecommons.org/ns#"
   xmlns:rdf="http://www.w3.org/1999/02/22-rdf-syntax-ns#"
   xmlns:svg="http://www.w3.org/2000/svg"
   xmlns="http://www.w3.org/2000/svg"
   xmlns:sodipodi="http://sodipodi.sourceforge.net/DTD/sodipodi-0.dtd"
   xmlns:inkscape="http://www.inkscape.org/namespaces/inkscape"
   version="1.1"
   id="Layer_1"
   x="0px"
   y="0px"
   viewBox="-3.68 48.92 120.00001 59.999998"
   xml:space="preserve"
   sodipodi:docname="bosh-ar21.svg"
   width="120"
   height="60"
   inkscape:version="0.92.3 (2405546, 2018-03-11)"><metadata
   id="metadata51"><rdf:RDF><cc:Work
       rdf:about=""><dc:format>image/svg+xml</dc:format><dc:type
         rdf:resource="http://purl.org/dc/dcmitype/StillImage" /><dc:title></dc:title></cc:Work></rdf:RDF></metadata><defs
   id="defs49">
	
	
	
	
	
	
	
	
	
	
	
	
	
	
	
	
	
	
	
	
</defs><sodipodi:namedview
   pagecolor="#ffffff"
   bordercolor="#666666"
   borderopacity="1"
   objecttolerance="10"
   gridtolerance="10"
   guidetolerance="10"
   inkscape:pageopacity="0"
   inkscape:pageshadow="2"
   inkscape:window-width="1920"
   inkscape:window-height="1001"
   id="namedview47"
   showgrid="false"
   inkscape:zoom="3.2463328"
   inkscape:cx="96.675031"
   inkscape:cy="43.618274"
   inkscape:window-x="-9"
   inkscape:window-y="-9"
   inkscape:window-maximized="1"
   inkscape:current-layer="Layer_1" />
<style
   type="text/css"
   id="style2">
	.st0{fill:#16211F;}
	.st1{fill:#00BCE7;}
	.st2{fill:#2261AE;}
</style>
<g
   id="g922"
   transform="matrix(0.25686877,0,0,0.25686877,21.077605,61.583927)"><path
     class="st0"
     d="m 200.1,51.339996 v 2.5 h -15.8 v -2.1 c 0,-5.5 -3.7,-9.8 -12.6,-9.8 -7.4,0 -11.3,3.2 -11.3,7.9 0,5.7 3.8,7.2 16.3,11.4 18.6,5.2 24.3,10.7 24.3,22.8 0,14.1 -11.6,22.000004 -28.7,22.000004 -19.9,0 -29,-9.000004 -29,-22.800004 v -3.3 h 15.8 v 2.2 c 0,6.9 4.6,10.9 13.6,10.9 7.8,0 12.2,-3 12.2,-8.1 0,-5.9 -2.9,-7.4 -16.7,-11.8 -17.5,-4.7 -23.9,-10.1 -23.9,-22.5 0,-12.7 10.4,-21.5 27.8,-21.5 19.1,-0.2 28,8.9 28,22.2 z"
     id="path4"
     inkscape:connector-curvature="0"
     style="fill:#16211f" /><path
     class="st0"
     d="M 19.4,90.539996 H 34 c 5.1,0 10.8,-2.2 10.8,-8.6 0,-7 -7.8,-8.1 -13.1,-8.1 H 19.4 Z m 0,-30.4 h 11.7 c 5,0 10.2,-2.1 10.2,-8 0,-6.1 -5.8,-7.7 -10.9,-7.7 h -11 z m -16.1,-29.3 h 27.4 c 12.9,0 26.9,2.7 26.9,18.7 0,8.2 -5.1,13.8 -12.7,16.2 v 0.2 c 9.6,1.2 16.1,8.4 16.1,17.9 C 61,99.139996 46.5,104.24 33.4,104.24 H 3.3 Z"
     id="path6"
     inkscape:connector-curvature="0"
     style="fill:#16211f" /><polygon
     transform="translate(0,-48.160004)"
     class="st0"
     points="207.4,152.4 207.4,79 223.5,79 223.5,106.3 255,106.3 255,79 271.1,79 271.1,152.4 255,152.4 255,120.7 223.5,120.7 223.5,152.4 "
     id="polygon8"
     style="fill:#16211f" /><path
     class="st2"
     d="m 94.8,66.639996 c 0.4,-3.5 3.4,-6.3 7,-6.3 3.9,0 7,3.1 7,7 0,2.8 -1.6,5.2 -4,6.3 0,0 -0.2,0.2 -0.3,0.4 0,0.3 0.1,0.4 0.2,0.5 1,0.7 6.3,4.5 8.4,6 0.3,0.2 0.6,0.3 0.9,0.3 0.3,0 0.6,-0.2 0.8,-0.3 3.4,-3.4 5.5,-8 5.5,-13.1 0,-10.2 -8.3,-18.5 -18.5,-18.5 -7.3,0 -13.7,4.3 -16.7,10.5 -0.1,0.1 -0.2,0.6 -0.1,0.9 0.1,0.4 0.4,0.6 0.4,0.6 0,0 7.3,5.2 8.6,6.2 0.1,0 0.3,0.2 0.5,0.1 0.3,-0.3 0.3,-0.5 0.3,-0.6 z"
     id="path34"
     inkscape:connector-curvature="0"
     style="fill:#2261ae" /><path
     class="st0"
     d="m 126.9,69.539996 c -1.1,12.9 -11.9,23.1 -25.1,23.1 0,0 -0.1,0 -0.1,0 -13.4,-0.1 -24.3,-10.6 -25,-23.8 0,-0.1 0,-0.6 -0.4,-1 -0.3,-0.3 -0.8,-0.4 -1.1,-0.4 -2.8,0 -9.1,0 -10.1,0 -0.6,0 -1,0.1 -1.4,0.4 -0.4,0.3 -0.4,1 -0.3,1.4 0,0.1 0,0.5 0,0.6 1.2,20.1 17.9,36.000004 38.3,36.100004 0,0 0.1,0 0.1,0 17.4,0 32.2,-11.700004 36.9,-27.600004 0.1,-0.2 0.2,-0.7 0.1,-1.3 -0.1,-0.4 -0.4,-0.7 -0.6,-0.9 -2.2,-1.6 -8.2,-5.9 -9.8,-7.1 -0.2,-0.1 -0.5,-0.3 -1,-0.1 -0.4,0.1 -0.5,0.5 -0.5,0.6 z"
     id="path36"
     inkscape:connector-curvature="0"
     style="fill:#16211f" /><path
     class="st1"
     d="m 76.7,65.339996 c 1.1,-12.9 11.9,-23.1 25.1,-23.1 0,0 0.1,0 0.1,0 13.4,0.1 24.3,10.6 25,23.8 0,0.1 0,0.6 0.4,1 0.3,0.3 0.8,0.4 1.1,0.4 2.8,0 9.1,0 10.1,0 0.6,0 1,-0.1 1.4,-0.4 0.4,-0.3 0.4,-1 0.3,-1.4 0,-0.1 0,-0.5 0,-0.6 -1.2,-20.1 -17.9,-36 -38.3,-36.1 0,0 -0.1,0 -0.1,0 -17.4,0 -32.2,11.7 -36.9,27.6 -0.1,0.2 -0.2,0.7 -0.1,1.3 0.1,0.4 0.4,0.7 0.6,0.9 2.2,1.6 8.2,5.9 9.8,7.1 0.2,0.1 0.5,0.3 1,0.1 0.4,-0.1 0.5,-0.6 0.5,-0.6 z"
     id="path38"
     inkscape:connector-curvature="0"
     style="fill:#00bce7" /></g>
</svg>