<?xml version="1.0" encoding="UTF-8" standalone="no"?>
<svg
   xmlns:dc="http://purl.org/dc/elements/1.1/"
   xmlns:cc="http://creativecommons.org/ns#"
   xmlns:rdf="http://www.w3.org/1999/02/22-rdf-syntax-ns#"
   xmlns:svg="http://www.w3.org/2000/svg"
   xmlns="http://www.w3.org/2000/svg"
   xmlns:sodipodi="http://sodipodi.sourceforge.net/DTD/sodipodi-0.dtd"
   xmlns:inkscape="http://www.inkscape.org/namespaces/inkscape"
   width="120"
   height="60"
   viewBox="0 0 120 60"
   version="1.1"
   id="svg14"
   sodipodi:docname="formspree-ar21.svg"
   inkscape:version="0.92.4 (5da689c313, 2019-01-14)">
  <metadata
     id="metadata20">
    <rdf:RDF>
      <cc:Work
         rdf:about="">
        <dc:format>image/svg+xml</dc:format>
        <dc:type
           rdf:resource="http://purl.org/dc/dcmitype/StillImage" />
        <dc:title>formspree-logo</dc:title>
      </cc:Work>
    </rdf:RDF>
  </metadata>
  <defs
     id="defs18" />
  <sodipodi:namedview
     pagecolor="#ffffff"
     bordercolor="#666666"
     borderopacity="1"
     objecttolerance="10"
     gridtolerance="10"
     guidetolerance="10"
     inkscape:pageopacity="0"
     inkscape:pageshadow="2"
     inkscape:window-width="1920"
     inkscape:window-height="1001"
     id="namedview16"
     showgrid="false"
     inkscape:zoom="4.2375"
     inkscape:cx="69.911351"
     inkscape:cy="46.580138"
     inkscape:window-x="-9"
     inkscape:window-y="-9"
     inkscape:window-maximized="1"
     inkscape:current-layer="svg14" />
  <title
     id="title2">formspree-logo</title>
  <g
     id="g853"
     transform="translate(1.5339246)">
    <path
       d="m 42.717482,33.767493 v -7.503124 h 4.858991 v 1.389439 h -3.040912 v 1.614061 h 2.275413 v 1.389439 h -2.275413 v 3.110185 z m 12.449143,-3.772804 c 0,-0.655643 -0.178971,-1.179397 -0.536912,-1.571261 -0.357941,-0.391863 -0.836358,-0.587796 -1.435409,-0.587796 -0.598893,0 -1.07731,0.195933 -1.435251,0.587796 -0.35794,0.391864 -0.537069,0.915618 -0.537069,1.571103 0,0.655644 0.179129,1.179398 0.537069,1.571263 0.357941,0.391864 0.836358,0.587796 1.435251,0.587796 0.599051,0 1.077468,-0.195932 1.435409,-0.587796 0.357941,-0.391865 0.536912,-0.915619 0.536912,-1.571263 z m -5.794584,0 c 0,-1.111709 0.370306,-2.02907 1.111076,-2.752403 0.740769,-0.723174 1.647986,-1.084761 2.721808,-1.084761 1.073981,0 1.97771,0.36143 2.711346,1.084761 0.733636,0.723333 1.100454,1.640694 1.100454,2.752244 0,1.111708 -0.368561,2.030815 -1.105844,2.757634 -0.737123,0.726819 -1.640853,1.090311 -2.711187,1.090311 -1.070335,0 -1.975808,-0.363492 -2.716577,-1.090311 -0.74077,-0.726819 -1.111234,-1.645925 -1.111234,-2.757633 z m 11.609139,0.854905 v 2.918057 h -1.818079 v -7.503282 h 2.945324 c 0.864574,0 1.537972,0.224465 2.020035,0.673398 0.481904,0.448932 0.722856,0.990441 0.722856,1.624525 0,0.434665 -0.130938,0.858708 -0.393132,1.271973 -0.262353,0.413264 -0.691152,0.705419 -1.286716,0.876463 l 1.828858,3.056923 h -2.126561 l -1.679849,-2.918056 z m 0,-3.195787 v 1.806348 h 1.127086 c 0.276461,0 0.494427,-0.08196 0.6539,-0.245707 0.159472,-0.163911 0.239367,-0.3795 0.239367,-0.646766 0,-0.267109 -0.08164,-0.486343 -0.244599,-0.657388 -0.163117,-0.170885 -0.379341,-0.256486 -0.648668,-0.256486 z m 14.713935,-1.389438 v 7.503282 h -1.818238 v -4.232515 l -1.732954,4.232515 h -1.350282 l -1.733112,-4.232515 v 4.232515 h -1.818238 v -7.503282 h 2.084077 l 2.147645,5.173181 2.137182,-5.173181 z m 4.544008,1.517683 c -0.145204,0.121269 -0.217966,0.2958 -0.217966,0.523754 0,0.228111 0.06737,0.411521 0.202115,0.550543 0.134743,0.138866 0.310067,0.245708 0.52629,0.320529 0.216064,0.07482 0.457176,0.146158 0.722857,0.213847 0.26584,0.06769 0.529936,0.149643 0.79213,0.245707 a 3.4681259,3.4681259 0 0 1 0.717784,0.358257 c 0.216222,0.142351 0.391547,0.343674 0.52629,0.603807 0.134742,0.259975 0.201956,0.571786 0.201956,0.935275 0,0.634085 -0.256805,1.177495 -0.77073,1.629914 -0.513925,0.45242 -1.190969,0.678788 -2.030814,0.678788 -0.840004,0 -1.517048,-0.203067 -2.030815,-0.609356 -0.513926,-0.406131 -0.770888,-0.983307 -0.770888,-1.731526 h 1.935067 c 0.04962,0.598575 0.354453,0.897863 0.914509,0.897863 0.262193,0 0.467637,-0.06943 0.616647,-0.208455 0.148852,-0.138864 0.223197,-0.315299 0.223197,-0.528985 0,-0.213845 -0.06737,-0.388377 -0.201955,-0.523754 -0.134743,-0.135377 -0.310067,-0.242221 -0.526291,-0.320689 a 7.7169686,7.7169686 0 0 0 -0.723014,-0.219076 7.2813525,7.2813525 0 0 1 -0.792131,-0.251256 3.8625267,3.8625267 0 0 1 -0.717625,-0.35794 c -0.216222,-0.139024 -0.391547,-0.338443 -0.52629,-0.598576 -0.134743,-0.259975 -0.202114,-0.568299 -0.202114,-0.924496 0,-0.698443 0.258705,-1.257706 0.776119,-1.678105 0.517572,-0.420398 1.178446,-0.630597 1.983099,-0.630597 0.804495,0 1.454749,0.183409 1.950921,0.550385 0.496171,0.366977 0.754878,0.945897 0.77612,1.736917 h -1.977552 c -0.02838,-0.270754 -0.115245,-0.479209 -0.260451,-0.625366 -0.145363,-0.145998 -0.331309,-0.219076 -0.558311,-0.219076 -0.226685,0 -0.412789,0.06056 -0.557995,0.181665 z m 11.572045,0.780241 c 0,0.506 -0.180713,0.994087 -0.542142,1.464418 -0.191493,0.24222 -0.476832,0.439897 -0.856014,0.593186 -0.379182,0.153131 -0.827481,0.229857 -1.345052,0.229857 h -1.127086 v 2.917897 h -1.818078 v -7.503282 h 2.945323 c 0.864733,0 1.537971,0.224466 2.020035,0.673398 0.481904,0.448932 0.723014,0.990441 0.723014,1.624526 z m -3.870135,0.897863 h 1.127086 c 0.276302,0 0.494268,-0.08196 0.653741,-0.245707 0.159472,-0.163911 0.239367,-0.3795 0.239367,-0.646766 0,-0.267109 -0.08164,-0.486343 -0.244598,-0.657388 -0.163118,-0.170885 -0.379183,-0.256486 -0.648669,-0.256486 h -1.127086 v 1.806348 z m 7.760245,1.389439 v 2.918056 H 93.88304 v -7.503282 h 2.945323 c 0.864733,0 1.538131,0.224465 2.020035,0.673398 0.482064,0.448932 0.723016,0.990441 0.723016,1.624525 0,0.434665 -0.131098,0.858708 -0.393292,1.271973 -0.262351,0.413264 -0.691152,0.705419 -1.286557,0.876463 l 1.8287,3.056923 h -2.126403 l -1.679848,-2.918056 z m 0,-3.195787 v 1.806348 h 1.127085 c 0.276461,0 0.494428,-0.08196 0.6539,-0.245707 0.159472,-0.163911 0.239208,-0.3795 0.239208,-0.646766 0,-0.267109 -0.08148,-0.486343 -0.244597,-0.657388 -0.16296,-0.170885 -0.379183,-0.256486 -0.648511,-0.256486 z m 10.779912,-1.410839 v 1.389438 h -2.70057 v 1.614063 h 2.38163 v 1.389437 h -2.38163 v 1.742148 h 2.70057 v 1.389596 h -4.5188 v -7.524682 z m 7.05863,0 v 1.389438 h -2.70072 v 1.614063 h 2.38178 v 1.389437 h -2.38178 v 1.742148 h 2.70072 v 1.389596 h -4.5188 v -7.524682 z"
       id="path4"
       inkscape:connector-curvature="0"
       style="fill:#113742;fill-rule:evenodd;stroke-width:0.15852116" />
    <g
       transform="matrix(0.18693063,0,0,0.18693063,-39.583021,63.944359)"
       id="g834">
      <g
         style="fill:none;fill-rule:evenodd"
         id="g10"
         transform="translate(229.9,-273)">
        <ellipse
           style="fill:#c4001a"
           id="ellipse6"
           ry="91.412003"
           rx="90.932999"
           cy="91.412003"
           cx="90.932999" />
        <path
           style="fill:#e3e3da"
           inkscape:connector-curvature="0"
           id="path8"
           d="m 49.6,46.083 h 82.666 v 24.93 H 49.6 Z m 0,33.241 h 82.666 v 24.93 H 49.6 Z m 0,33.241 h 41.333 v 24.93 H 49.6 Z" />
      </g>
    </g>
  </g>
</svg>
