<svg xmlns="http://www.w3.org/2000/svg" width="120" height="60"><path d="M48.592 34.804c.296.064.64.064 1.16.064 1.332 0 2.516-.577 2.516-2.094 0-1.455-1.184-2.032-2.664-2.032h-1zm0-6.358h.913c1.455 0 2.22-.732 2.22-1.842 0-1.132-.715-1.73-1.948-1.73-.617 0-.962.044-1.184.1zm-3.058-6.035h3.995c1.9 0 2.984-.04 3.946.66.937.686 1.43 1.724 1.43 3.1 0 1.3-.296 2.76-2.022 3.38v.044c1.554.187 2.738 1.684 2.738 3.616 0 1.376-.47 2.597-1.332 3.33-.987.863-2.022 1.098-5.4 1.098h-3.354zm23.233 9.656c0-1.847-.222-3.085-1.554-3.085-1.356 0-1.628 1.208-1.628 3.105 0 1.96.493 3.085 1.603 3.085s1.578-.98 1.578-3.105zm-1.578 5.58c-3.38 0-4.464-2.06-4.464-5.522s1.258-5.672 4.612-5.672c3.38 0 4.415 2.254 4.415 5.497 0 3.9-1.184 5.697-4.563 5.697zm11.74-6.46c0-.9-.197-2.116-1.332-2.116-1.1 0-1.554 1.115-1.554 3.098 0 1.625.32 2.898 1.554 2.898 1.208 0 1.332-1.7 1.332-2.274zm3.034 4.88c0 2.094.05 3.847-.987 4.957-.987 1-2.614 1.184-3.946 1.184-1.085 0-2.5-.222-3.28-.666-.247-.148-.247-.444-.148-.765l.444-1.43a.43.43 0 0 1 .543-.264c.592.264 1.406.387 2.294.387 1.332 0 2.022-.123 2.022-2.163v-.7h-.05c-.567.74-1.085 1.028-2.12 1.028-2.836 0-3.773-2.27-3.773-5.4 0-3.52.962-5.75 4.07-5.75 1.233 0 1.9.626 2.343 1.517l.222-1.014s.05-.256.444-.256h1.38c.42 0 .592.1.617.3l-.074 2.95zm7.522-4.88c0-.9-.197-2.116-1.332-2.116-1.1 0-1.554 1.115-1.554 3.098 0 1.625.32 2.898 1.554 2.898s1.332-1.7 1.332-2.274zm3.034 4.88c0 2.094.05 3.847-.987 4.957-.962 1-2.614 1.184-3.92 1.184-1.1 0-2.516-.222-3.305-.666-.222-.148-.222-.444-.123-.765l.42-1.43c.1-.303.444-.318.567-.264.567.264 1.406.387 2.27.387 1.332 0 2.022-.123 2.022-2.163v-.7h-.05c-.543.74-1.085 1.028-2.096 1.028-2.86 0-3.798-2.27-3.798-5.4 0-3.52.962-5.75 4.07-5.75 1.233 0 1.9.626 2.368 1.517l.197-1.014s.05-.256.444-.256H92c.395 0 .567.1.592.3l-.074 2.95zm7.276-5.2c0-.747-.05-2.054-1.258-2.054-1.16 0-1.356 1.223-1.406 2.054zm-2.565 2.057c.1 1.396.715 2.257 2.047 2.257.863 0 .913-.047 2.12-.47.197-.07.567-.118.666.15l.518 1.48c.148.414-.395.63-.395.63-.937.46-2.072.676-3.33.676-3.132 0-4.908-2.1-4.908-5.448 0-2.703 1.036-5.7 4.66-5.7 3.477 0 4.094 2.68 4.094 5.317 0 .567-.074 1.122-.592 1.122zm-36.5 1.88c1.184 0 1.233 0 1.504 1.948.074.52-.37.9-.962.9H58.85c-.814 0-1.578-.88-1.603-1.692V22.7c0-.17.123-.308.296-.308h2.27c.173 0 .32.138.32.308v11.564c0 .427.05.52.592.52zm49.203-8.34c-.444-.005-1.603-.165-2.713 1.258h-.074l-.123-.964-2.614.027v10.56c0 .17.123.308.296.308h2.516c.173 0 .32-.138.32-.308l-.025-5.367a9.55 9.55 0 0 1 .049-.895c.1-1.332.444-1.825 1.578-1.825.37 0 1.036.2 1.332.286.32.096.493-.256.493-.256l.345-1.983c.074-.548-.937-.836-1.38-.84z" fill="#036"/><path d="M39.516 40.802c0 2.565-2.072 4.612-4.612 4.612H13.3c-2.555 0-4.624-2.047-4.624-4.612V19.2c0-2.553 2.07-4.624 4.624-4.624h21.592c2.54 0 4.612 2.07 4.612 4.624v21.592" fill="#f60"/><path d="M20.8 20.4a6.17 6.17 0 0 0-6.166 6.166v6.765c0 3.406 2.762 6.163 6.166 6.163h6.637c3.406 0 6.158-2.757 6.158-6.163v-4.37c0-.68-.545-1.233-1.226-1.233h-1.063a1.23 1.23 0 0 1-1.226-1.147l-.007-.015c0-3.406-2.76-6.166-6.166-6.166zm-.153 5.002h3.492c.654 0 1.186.53 1.186 1.186a1.19 1.19 0 0 1-1.186 1.186h-3.492a1.19 1.19 0 0 1-1.186-1.186c0-.656.533-1.186 1.186-1.186zm-.007 6.943h7.007a1.12 1.12 0 0 1 1.125 1.117 1.13 1.13 0 0 1-1.125 1.127H20.64c-.62 0-1.117-.508-1.117-1.127s.498-1.117 1.117-1.117z" fill="#fff"/></svg>