<svg version="1.1" id="Layer_1" xmlns="http://www.w3.org/2000/svg" x="0" y="0" width="120" height="60" xml:space="preserve"><style>.st0{fill-rule:evenodd;clip-rule:evenodd;fill:#00a082}</style><switch><g><path class="st0" d="M8.5 34c0-6.4 4.9-11.7 11.8-11.7 3.4 0 5.7.8 7.8 2.3.5.4.8 1 .8 1.6 0 1.1-.9 2-2 2-.5 0-.9-.2-1.2-.5-1.5-1.1-3.1-1.8-5.6-1.8-4.2 0-7.4 3.6-7.4 8v.1c0 4.6 3.1 8.1 7.8 8.1 2.2 0 4.1-.7 5.5-1.7v-4.2h-4.5c-1 0-1.8-.7-1.8-1.7s.8-1.7 1.8-1.7h6.4c1.1 0 2 .9 2 2v6c0 1.1-.5 1.9-1.4 2.5-2 1.3-4.7 2.5-8.2 2.5-7.1-.2-11.8-5.2-11.8-11.8zm25.1-10.5c0-1.1.9-1.9 2-1.9s2 .9 2 1.9v20c0 1.1-.9 1.9-2 1.9s-2-.8-2-1.9v-20zm7 13.3c0-4.9 3.9-9 9.2-9 5.3 0 9.2 4 9.2 8.8v.1c0 4.8-3.9 8.9-9.3 8.9-5.2 0-9.1-4-9.1-8.8zm14.5 0c0-3.1-2.2-5.5-5.3-5.5-3.2 0-5.2 2.5-5.2 5.4v.1c0 3 2.2 5.4 5.3 5.4 3.2 0 5.2-2.5 5.2-5.4zm13.8 8.7h-.2c-1.1 0-1.8-.7-2.3-1.7l-5.8-13c-.1-.3-.2-.6-.2-1 0-1 .9-1.9 2-1.9s1.6.6 2 1.4l4.5 11.3 4.5-11.3c.3-.7.8-1.4 1.9-1.4 1.1 0 1.9.8 1.9 1.9 0 .4-.1.7-.2.9l-5.8 13c-.5 1.1-1.2 1.8-2.3 1.8zm9.7-8.7c0-4.9 3.9-9 9.2-9 5.3 0 9.2 4 9.2 8.8v.1c0 4.8-3.9 8.9-9.3 8.9-5.2 0-9.1-4-9.1-8.8zm14.5 0c0-3.1-2.2-5.5-5.3-5.5-3.2 0-5.2 2.5-5.2 5.4v.1c0 3 2.2 5.4 5.3 5.4 3.2 0 5.2-2.5 5.2-5.4zM103.7 12.4c-4.3 0-7.8 3.4-7.8 7.7 0 1.6.5 3.2 1.5 4.5l.2.3 4.1 5.6s.5.8 1.6.8h1c1.1 0 1.6-.8 1.6-.8l4.1-5.6.2-.3c1-1.3 1.5-2.9 1.5-4.5-.2-4.3-3.7-7.7-8-7.7zm3.2 9.9l-.2.3-3 4.1-3-4.1-.2-.3c-.5-.7-.7-1.5-.7-2.3 0-2.1 1.8-3.9 3.9-3.9 2.2 0 3.9 1.7 3.9 3.9.1.9-.2 1.6-.7 2.3zm-5.4 12.4c0-1.2.9-2.1 2.2-2.1 1.2 0 2.2.9 2.2 2.1 0 1.1-.9 2.1-2.2 2.1-1.3-.1-2.2-1-2.2-2.1z"/></g></switch></svg>