<?xml version="1.0" encoding="UTF-8" standalone="no"?>
<svg
   xmlns:dc="http://purl.org/dc/elements/1.1/"
   xmlns:cc="http://creativecommons.org/ns#"
   xmlns:rdf="http://www.w3.org/1999/02/22-rdf-syntax-ns#"
   xmlns:svg="http://www.w3.org/2000/svg"
   xmlns="http://www.w3.org/2000/svg"
   xmlns:sodipodi="http://sodipodi.sourceforge.net/DTD/sodipodi-0.dtd"
   xmlns:inkscape="http://www.inkscape.org/namespaces/inkscape"
   width="120"
   height="60"
   viewBox="0 0 120 60"
   version="1.1"
   id="svg10"
   sodipodi:docname="konghq-ar21.svg"
   inkscape:version="0.92.3 (2405546, 2018-03-11)">
  <metadata
     id="metadata14">
    <rdf:RDF>
      <cc:Work
         rdf:about="">
        <dc:format>image/svg+xml</dc:format>
        <dc:type
           rdf:resource="http://purl.org/dc/dcmitype/StillImage" />
        <dc:title>Combined Shape</dc:title>
      </cc:Work>
    </rdf:RDF>
  </metadata>
  <sodipodi:namedview
     pagecolor="#ffffff"
     bordercolor="#666666"
     borderopacity="1"
     objecttolerance="10"
     gridtolerance="10"
     guidetolerance="10"
     inkscape:pageopacity="0"
     inkscape:pageshadow="2"
     inkscape:window-width="1920"
     inkscape:window-height="1001"
     id="namedview12"
     showgrid="false"
     inkscape:zoom="2.6269501"
     inkscape:cx="35.111083"
     inkscape:cy="13.823929"
     inkscape:window-x="-9"
     inkscape:window-y="-9"
     inkscape:window-maximized="1"
     inkscape:current-layer="svg10" />
  <!-- Generator: Sketch 46.2 (44496) - http://www.bohemiancoding.com/sketch -->
  <title
     id="title2">Combined Shape</title>
  <desc
     id="desc4">Created with Sketch.</desc>
  <defs
     id="defs6" />
  <g
     id="Page-1"
     style="fill:none;fill-rule:evenodd;stroke:none;stroke-width:1"
     transform="matrix(0.15524688,0,0,0.15524688,3.3917425,11.409371)">
    <path
       d="m 669.03324,157.67757 h 34.20081 v -52.44081 h -34.20081 z m 34.03622,-73.015948 26.19811,0.0057 v 97.479738 c 0,16.16432 -1.70189,18.90243 -5.95541,23.32621 -3.40297,3.57325 -8.84756,5.27514 -18.37621,5.27514 l -38.39109,-0.0803 -11.83297,-13.11649 -0.0365,-5.51676 h 48.39406 l -0.047,-13.34433 -33.00892,-0.0211 c -10.03946,0 -15.10135,-1.87379 -19.35567,-5.95784 -5.4446,-5.61486 -7.65649,-17.90352 -7.65649,-40.87378 0,-23.14054 2.7227,-35.770548 8.33676,-41.554872 4.25351,-4.084054 9.69892,-5.785135 19.05729,-5.785135 l 19.55595,0.163784 13.11811,11.834594 z M 597.18908,114.28403 h 0.007 V 105.597 h -9.44595 c -0.1354,-8.1e-4 -0.27324,-8.1e-4 -0.41351,-8.1e-4 h -7.31676 c -0.0965,0 -0.19216,0 -0.28784,8.1e-4 h -14.52081 v 8.68703 h 0.005 v 63.96648 H 539.18449 V 84.66754 h 17.14297 v -0.0057 h 8.79081 v 1.684054 10.15054 l 13.1173,-11.834594 h 7.61108 c 1.19919,-0.12 2.47135,-0.163784 3.87162,-0.163784 h 11.40081 c 7.99703,0 13.10108,1.70027 16.67432,5.274324 3.91298,3.743514 5.4446,8.677298 5.4446,22.45946 v 66.01864 H 597.2053 V 115.2943 c 0,-0.35027 -0.006,-0.68676 -0.0162,-1.01027 z m -136.23049,63.96608 c -9.52864,0 -14.46324,-1.53162 -18.54648,-5.78514 -6.12568,-6.12486 -8.50784,-14.63351 -8.50784,-41.00594 0,-26.54352 2.38216,-34.881084 8.50784,-41.176219 3.91297,-4.084054 9.01784,-5.615676 18.54648,-5.615676 h 31.81784 c 9.52784,0 14.46243,1.531622 18.54568,5.615676 6.12567,6.295135 8.50784,14.632699 8.50784,41.176219 0,26.5427 -2.38217,34.88108 -8.50784,41.00594 -4.08325,4.25352 -9.01784,5.78514 -18.54568,5.78514 z m -1.19189,-20.60676 h 34.20081 V 105.23659 H 459.7667 Z M 393.21632,58.79254 h 30.97946 l -44.50135,56.31081 46.38406,63.49946 h -32.86217 l -35.27837,-49.89324 -8.36676,-0.0389 v 49.93216 H 321.67281 V 58.79254 h 27.89838 v 46.44243 h 8.35541 z M 87.688703,197.26492 h 48.726487 l 25.29973,31.50081 -4.35,10.73189 H 94.413568 l 1.543783,-10.73189 -14.84027,-23.1827 z m 34.423537,-141.081569 26.44865,-0.03973 118.85514,140.605949 -9.23514,42.74756 h -50.94 l 3.17108,-12.0454 L 99.349541,96.033081 Z M 169.29876,0 l 55.00216,43.525135 -7.03946,7.315946 9.53594,13.371081 v 14.29946 L 199.37578,101.01649 153.26092,46.162703 h -26.84838 l 10.81054,-19.94919 z M 54.554595,137.26946 93.231081,104.11459 144.56676,165.04378 129.99081,187.36459 H 82.656486 L 49.909459,229.74892 42.43054,239.4973 H 0 v -52.00379 l 39.548919,-50.22405 z"
       id="Combined-Shape"
       inkscape:connector-curvature="0"
       style="fill:#003459" />
  </g>
</svg>
