<svg xmlns="http://www.w3.org/2000/svg" width="120" height="60" viewBox="-0.424 -0.244 120 60"><g transform="matrix(.139961 0 0 .139959 6.576 33.486497)"><circle r="45.326" cy="-65.674" cx="712.027" fill="#dd4814"/><path d="M681.207-71.727c-3.344 0-6.053 2.71-6.053 6.053s2.71 6.05 6.053 6.05a6.05 6.05 0 0 0 6.051-6.051c-.001-3.344-2.7-6.053-6.05-6.053zm43.207 27.504a6.05 6.05 0 1 0 6.049 10.479 6.05 6.05 0 0 0 2.215-8.264c-1.67-2.892-5.372-3.885-8.264-2.215zm-30.063-21.45c0-5.98 2.97-11.264 7.516-14.463l-4.424-7.4c-5.295 3.54-9.234 8.947-10.87 15.28a8.49 8.49 0 0 1 3.133 6.592c0 2.658-1.223 5.03-3.133 6.6 1.635 6.336 5.574 11.744 10.87 15.283l4.424-7.412c-4.545-3.197-7.516-8.48-7.516-14.46zm17.676-17.678a17.68 17.68 0 0 1 17.605 16.109l8.623-.127c-.424-6.666-3.336-12.65-7.81-17.05-2.3.87-4.96.736-7.256-.588s-3.744-3.568-4.14-6c-2.236-.617-4.6-.955-7.023-.955-4.184 0-8.14.982-11.65 2.72l4.205 7.535c2.262-1.052 4.786-1.644 7.446-1.644zm0 35.354c-2.66 0-5.184-.592-7.445-1.645l-4.205 7.535a26.17 26.17 0 0 0 11.65 2.723 26.28 26.28 0 0 0 7.023-.957 8.48 8.48 0 0 1 11.395-6.588c4.475-4.4 7.387-10.385 7.81-17.05l-8.625-.127c-.794 9.032-8.37 16.1-17.604 16.1zm12.385-39.13c2.895 1.672 6.594.682 8.264-2.213a6.05 6.05 0 0 0-2.213-8.266c-2.895-1.67-6.594-.678-8.266 2.217a6.05 6.05 0 0 0 2.215 8.262z" fill="#fff"/><path d="M90.65 53.257c-4.606 1.153-10.684 2.375-18.238 3.67S56.116 58.87 46.187 58.87c-8.633 0-15.9-1.26-21.8-3.775s-10.65-6.08-14.245-10.685-6.188-10.037-7.77-16.296S0 14.914 0 7.285v-63.023h20.073V2.968c0 13.672 2.158 23.456 6.476 29.354s11.58 8.85 21.8 8.85a105.82 105.82 0 0 0 6.691-.218c2.3-.14 4.458-.323 6.475-.54l5.504-.646c1.652-.216 2.84-.465 3.56-.755V-55.74h20.073V53.257zm48.994-104.032c2.445-1.58 6.15-3.237 11.115-4.963s10.684-2.6 17.16-2.6c8.057 0 15.216 1.438 21.476 4.315s11.547 6.907 15.863 12.088 7.588 11.368 9.82 18.562 3.346 15.107 3.346 23.74c0 9.066-1.333 17.235-3.993 24.5S208 38.294 203.1 43.33s-10.792 8.923-17.698 11.656-14.677 4.1-23.3 4.1c-9.355 0-17.627-.646-24.82-1.942s-13.095-2.6-17.698-3.885v-160.8l20.073-3.452v60.218zm0 89.788c2.013.576 4.856 1.115 8.526 1.617s8.235.757 13.705.757c10.792 0 19.425-3.562 25.9-10.684s9.713-17.23 9.713-30.327c0-5.75-.577-11.148-1.727-16.187s-3.02-9.388-5.6-13.057-5.936-6.547-10.037-8.635-9.032-3.13-14.785-3.13c-5.47 0-10.505.938-15.108 2.806S142.1-34 139.644-32v71.012zM330.44 53.257c-4.607 1.153-10.684 2.375-18.238 3.67s-16.295 1.942-26.224 1.942c-8.634 0-15.9-1.26-21.8-3.775s-10.65-6.08-14.245-10.685-6.188-10.037-7.77-16.296-2.375-13.2-2.375-20.828v-63.022h20.073V2.968c0 13.672 2.158 23.456 6.475 29.354s11.58 8.85 21.8 8.85a105.74 105.74 0 0 0 6.69-.218c2.3-.14 4.458-.323 6.475-.54l5.504-.646c1.652-.216 2.84-.465 3.56-.755V-55.74h20.073V53.257zM359.36-52.5c4.604-1.15 10.717-2.375 18.347-3.67s16.402-1.94 26.33-1.94c8.922 0 16.33 1.26 22.232 3.776s10.6 6.043 14.137 10.576 6.006 9.967 7.447 16.296S450-14.153 450-6.528v63.023h-20.074V-2.213c0-6.905-.47-12.803-1.402-17.697s-2.48-8.85-4.64-11.87-5.037-5.216-8.633-6.584-8.06-2.05-13.38-2.05c-2.16 0-4.393.074-6.7.216s-4.5.325-6.583.54a83.78 83.78 0 0 0-5.61.755l-3.562.646v94.75H359.36V-52.5zm137.053-3.238h42.52v16.835h-42.52v51.8c0 5.6.43 10.253 1.295 13.92s2.158 6.55 3.885 8.634a13.99 13.99 0 0 0 6.475 4.425c2.6.863 5.6 1.296 9.064 1.296 6.186 0 11.08-.682 14.678-2.05s6.043-2.337 7.338-2.913l4.316 16.403c-2.016 1.008-5.578 2.304-10.684 3.884s-10.898 2.374-17.375 2.374c-7.627 0-13.92-.97-18.885-2.913s-8.957-4.856-11.98-8.74-5.146-8.668-6.367-14.354-1.836-12.264-1.836-19.748v-100.15l20.074-3.453v34.75zm151.73 108.995c-4.607 1.153-10.686 2.375-18.238 3.67S613.6 58.87 603.68 58.87c-8.633 0-15.9-1.26-21.8-3.775s-10.65-6.08-14.246-10.685-6.188-10.037-7.77-16.296-2.375-13.2-2.375-20.828v-63.022h20.074V2.968c0 13.672 2.158 23.456 6.475 29.354s11.58 8.85 21.8 8.85a105.82 105.82 0 0 0 6.691-.218 140.01 140.01 0 0 0 6.475-.54l5.504-.646c1.652-.216 2.84-.465 3.56-.755V-55.74h20.074V53.257z" fill="#dd4814"/></g></svg>