<svg xmlns="http://www.w3.org/2000/svg" width="64" height="64"><path d="M61.732 37.29c0 .084 0 .252-.084.336l-.084-.588c0 .084.084.168.168.252.336-1.764.504-3.612.504-5.46 0-4.115-.84-8.063-2.352-11.76-1.512-3.612-3.696-6.803-6.467-9.575s-5.963-4.955-9.575-6.467C40.147 2.436 36.2 1.68 32.084 1.68a32.1 32.1 0 0 0-5.711.504c.084.084.252.084.336.168l-.672-.084c.084 0 .252-.084.336-.084C23.685.84 20.83.084 17.9.084c-4.787 0-9.24 1.848-12.682 5.207C1.848 8.65 0 13.186 0 17.974c0 3.024.756 6.047 2.268 8.65 0-.084 0-.252.084-.336l.084.672c-.084-.084-.084-.168-.168-.336-.336 1.68-.42 3.444-.42 5.207 0 4.115.84 8.063 2.352 11.76 1.512 3.612 3.696 6.803 6.467 9.575s5.963 4.955 9.575 6.467c3.696 1.596 7.643 2.352 11.76 2.352a28.22 28.22 0 0 0 5.291-.504c-.084-.084-.168-.084-.336-.168l.672.084c-.084 0-.252 0-.336.084a17.22 17.22 0 0 0 8.819 2.436c4.787 0 9.24-1.848 12.682-5.207C62.152 55.35 64 50.814 64 46.026c0-3.024-.84-6.047-2.268-8.735zM32.084 50.3c-10.75 0-15.538-5.29-15.538-9.24 0-2.016 1.512-3.444 3.528-3.444 4.62 0 3.444 6.635 12 6.635 4.367 0 6.803-2.352 6.803-4.787 0-1.428-.756-3.108-3.612-3.78L25.7 33.344c-7.727-1.932-9.07-6.047-9.07-9.995 0-8.147 7.643-11.17 14.782-11.17 6.635 0 14.362 3.612 14.362 8.483 0 2.1-1.764 3.276-3.864 3.276-3.948 0-3.192-5.46-11.087-5.46-3.948 0-6.047 1.764-6.047 4.283s3.108 3.36 5.795 3.948l7.055 1.596c7.727 1.764 9.743 6.215 9.743 10.5 0 6.635-5.04 11.507-15.286 11.507zm4.87 11.087c.084.084.168.084.336.168.084 0 .252 0 .336-.084zm24.693-23.77c0-.084 0-.252.084-.336-.084-.084-.084-.168-.168-.336zM2.268 26.29c0 .084 0 .252-.084.336.084.084.084.168.168.336zM26.625 2.352c-.084-.084-.168-.084-.336-.168-.084 0-.252.084-.336.084z" fill="#00aff0"/></svg>