<?xml version="1.0" encoding="UTF-8" standalone="no"?>
<svg
   xmlns:dc="http://purl.org/dc/elements/1.1/"
   xmlns:cc="http://creativecommons.org/ns#"
   xmlns:rdf="http://www.w3.org/1999/02/22-rdf-syntax-ns#"
   xmlns:svg="http://www.w3.org/2000/svg"
   xmlns="http://www.w3.org/2000/svg"
   xmlns:sodipodi="http://sodipodi.sourceforge.net/DTD/sodipodi-0.dtd"
   xmlns:inkscape="http://www.inkscape.org/namespaces/inkscape"
   id="svg2"
   height="60"
   width="120"
   version="1.1"
   sodipodi:docname="google_plus-ar21.svg"
   inkscape:version="0.92.2 (5c3e80d, 2017-08-06)">
  <metadata
     id="metadata13">
    <rdf:RDF>
      <cc:Work
         rdf:about="">
        <dc:format>image/svg+xml</dc:format>
        <dc:type
           rdf:resource="http://purl.org/dc/dcmitype/StillImage" />
        <dc:title></dc:title>
      </cc:Work>
    </rdf:RDF>
  </metadata>
  <defs
     id="defs11" />
  <sodipodi:namedview
     pagecolor="#ffffff"
     bordercolor="#666666"
     borderopacity="1"
     objecttolerance="10"
     gridtolerance="10"
     guidetolerance="10"
     inkscape:pageopacity="0"
     inkscape:pageshadow="2"
     inkscape:window-width="1920"
     inkscape:window-height="1001"
     id="namedview9"
     showgrid="false"
     inkscape:zoom="5.424"
     inkscape:cx="58.166699"
     inkscape:cy="30.12287"
     inkscape:window-x="-9"
     inkscape:window-y="-9"
     inkscape:window-maximized="1"
     inkscape:current-layer="svg2" />
  <g
     id="g854"
     transform="translate(0,1.9999995)">
    <path
       inkscape:connector-curvature="0"
       style="fill:#dd4f43;fill-opacity:1;stroke-width:0.08985607"
       d="M 28.207277,25.678014 H 17.732756 v 3.108211 h 7.428671 c -0.366991,4.358558 -3.993204,6.217321 -7.416091,6.217321 -4.379225,0 -8.2006237,-3.445621 -8.2006237,-8.275025 0,-4.704594 3.6427647,-8.32777 8.2102377,-8.32777 3.523886,0 5.60037,2.246401 5.60037,2.246401 l 2.176313,-2.253679 c 0,0 -2.793355,-3.109739 -7.887924,-3.109739 -6.487338,-9e-5 -11.506069,5.475199 -11.506069,11.389256 0,5.795087 4.720948,11.445866 11.671404,11.445866 6.112998,0 10.587739,-4.187653 10.587739,-10.380173 0,-1.306417 -0.189676,-2.061478 -0.189676,-2.061478 z"
       id="path2998" />
    <path
       inkscape:connector-curvature="0"
       style="fill:#dd4f43;fill-opacity:1;stroke-width:0.08985607"
       d="m 36.787633,23.427029 c -4.297996,0 -7.378171,3.360168 -7.378171,7.279061 0,3.976849 2.987624,7.399467 7.42867,7.399467 4.020339,0 7.314014,-3.072808 7.314014,-7.314015 0,-4.861033 -3.831283,-7.364513 -7.364513,-7.364513 z m 0.04274,2.882852 c 2.113595,0 4.116487,1.708793 4.116487,4.462253 0,2.695053 -1.994356,4.452547 -4.126191,4.452547 -2.342368,0 -4.190257,-1.876014 -4.190257,-4.473933 0,-2.542207 1.824976,-4.440867 4.199961,-4.440867 z"
       id="path3000" />
    <path
       inkscape:connector-curvature="0"
       style="fill:#dd4f43;fill-opacity:1;stroke-width:0.08985607"
       d="m 52.834128,23.427029 c -4.297995,0 -7.378171,3.360168 -7.378171,7.279061 0,3.976849 2.987624,7.399467 7.42867,7.399467 4.02034,0 7.314014,-3.072808 7.314014,-7.314015 0,-4.861033 -3.831283,-7.364513 -7.364513,-7.364513 z m 0.04274,2.882852 c 2.113594,0 4.116485,1.708793 4.116485,4.462253 0,2.695053 -1.994355,4.452547 -4.12619,4.452547 -2.342368,0 -4.190258,-1.876014 -4.190258,-4.473933 0,-2.542207 1.824977,-4.440867 4.199963,-4.440867 z"
       id="path3005" />
    <path
       inkscape:connector-curvature="0"
       style="fill:#dd4f43;fill-opacity:1;stroke-width:0.08985607"
       d="m 68.573315,23.434757 c -3.945039,0 -7.045972,3.455235 -7.045972,7.333423 0,4.417593 3.595051,7.347081 6.977952,7.347081 2.091759,0 3.203998,-0.830315 4.025192,-1.783373 v 1.447222 c 0,2.532143 -1.537437,4.048465 -3.85806,4.048465 -2.241818,0 -3.366278,-1.666921 -3.757062,-2.612835 l -2.820672,1.179181 c 1.000638,2.115841 3.015031,4.322346 6.601096,4.322346 3.922397,0 6.911909,-2.470592 6.911909,-7.652052 V 23.87604 h -3.077121 v 1.243249 c -0.946185,-1.019597 -2.240112,-1.684352 -3.957262,-1.684352 z m 0.285563,2.877011 c 1.934152,0 3.920241,1.651555 3.920241,4.471957 0,2.866768 -1.981866,4.446707 -3.963012,4.446707 -2.103171,0 -4.060146,-1.707715 -4.060146,-4.419481 0,-2.817706 2.032454,-4.499183 4.102828,-4.499183 z"
       id="path3007" />
    <path
       inkscape:connector-curvature="0"
       style="fill:#dd4f43;fill-opacity:1;stroke-width:0.08985607"
       d="m 89.289631,23.417235 c -3.721299,0 -6.845863,2.960757 -6.845863,7.329559 0,4.622825 3.48273,7.364513 7.203311,7.364513 3.105245,0 5.011092,-1.698818 6.14849,-3.220891 l -2.537085,-1.688125 c -0.658358,1.021753 -1.759023,2.020323 -3.595861,2.020323 -2.063274,0 -3.011975,-1.129849 -3.599723,-2.224296 l 9.841036,-4.083419 -0.510913,-1.196703 C 94.442346,25.37475 92.224699,23.417684 89.289999,23.417684 Z m 0.128206,2.822648 c 1.340923,0 2.305977,0.712937 2.71581,1.56772 l -6.571983,2.746899 c -0.283333,-2.126623 1.731437,-4.314619 3.856173,-4.314619 z"
       id="path3011" />
    <path
       inkscape:connector-curvature="0"
       style="fill:#dd4f43;fill-opacity:1;stroke-width:0.08985607"
       d="m 77.752113,37.675596 h 3.232572 V 16.042748 h -3.232572 z"
       id="path3015" />
  </g>
  <path
     d="m 103.91494,23.246592 h 4.90558 l 0.13626,5.041844 h 4.90558 v 5.041844 h -4.90558 l -0.13626,4.905579 h -4.90558 V 33.33028 h -5.041846 v -5.041844 h 5.041846 z"
     id="path4"
     inkscape:connector-curvature="0"
     style="fill:#dd4f43;fill-opacity:1;stroke-width:0.13626605"
     sodipodi:nodetypes="ccccccccccccc" />
</svg>
