<?xml version="1.0" encoding="UTF-8" standalone="no"?>
<svg
   xmlns:dc="http://purl.org/dc/elements/1.1/"
   xmlns:cc="http://creativecommons.org/ns#"
   xmlns:rdf="http://www.w3.org/1999/02/22-rdf-syntax-ns#"
   xmlns:svg="http://www.w3.org/2000/svg"
   xmlns="http://www.w3.org/2000/svg"
   xmlns:sodipodi="http://sodipodi.sourceforge.net/DTD/sodipodi-0.dtd"
   xmlns:inkscape="http://www.inkscape.org/namespaces/inkscape"
   width="120"
   height="60"
   viewBox="0 0 24.576 12.282353"
   preserveAspectRatio="xMidYMid"
   version="1.1"
   id="svg6"
   sodipodi:docname="apigee-ar21.svg"
   inkscape:version="0.92.2 5c3e80d, 2017-08-06">
  <metadata
     id="metadata12">
    <rdf:RDF>
      <cc:Work
         rdf:about="">
        <dc:format>image/svg+xml</dc:format>
        <dc:type
           rdf:resource="http://purl.org/dc/dcmitype/StillImage" />
        <dc:title></dc:title>
      </cc:Work>
    </rdf:RDF>
  </metadata>
  <defs
     id="defs10" />
  <sodipodi:namedview
     pagecolor="#ffffff"
     bordercolor="#666666"
     borderopacity="1"
     objecttolerance="10"
     gridtolerance="10"
     guidetolerance="10"
     inkscape:pageopacity="0"
     inkscape:pageshadow="2"
     inkscape:window-width="1440"
     inkscape:window-height="799"
     id="namedview8"
     showgrid="false"
     inkscape:zoom="2.0736"
     inkscape:cx="43.071464"
     inkscape:cy="18.943318"
     inkscape:window-x="0"
     inkscape:window-y="1"
     inkscape:window-maximized="1"
     inkscape:current-layer="svg6" />
  <g
     id="g16"
     transform="matrix(0.03714829,0,0,0.03714829,2.7780378,8.9350065)">
    <path
       style="fill:#fc4c02"
       inkscape:connector-curvature="0"
       id="path2"
       d="m 91.347,-43.172 c 0,6.551 0,16.794 -12.266,16.794 -7.503,0 -10.48,-4.05 -12.267,-10.838 -6.55,7.86 -14.65,11.91 -24.415,11.91 C 18.34,-25.306 0,-45.792 0,-74.732 c 0,-28.107 18.936,-49.664 42.399,-49.664 9.408,0 18.698,3.693 24.414,11.792 0.715,-6.194 6.074,-10.72 12.267,-10.72 12.267,0 12.267,10.124 12.267,16.794 v 63.359 z m -45.376,-5.716 c 13.34,0 19.771,-13.577 19.771,-25.843 0,-12.266 -6.192,-26.201 -19.77,-26.201 -14.054,0 -20.366,13.934 -20.366,26.201 0,12.268 6.431,25.843 20.365,25.843 z m 52.641,-60.144 c 0,-8.574 5.36,-14.29 12.863,-14.29 7.146,0 11.195,3.929 12.863,10.717 4.764,-7.86 14.768,-11.79 24.415,-11.79 27.63,0 41.326,25.843 41.326,50.735 0,24.176 -16.435,48.234 -42.28,48.234 -7.98,0 -16.794,-2.977 -23.462,-8.932 v 31.322 c 0,8.575 -5.36,14.292 -12.863,14.292 -7.503,0 -12.864,-5.716 -12.864,-14.292 v -105.996 z m 45.853,60.144 c 13.34,0 20.009,-13.934 20.009,-25.843 0,-12.148 -6.55,-26.201 -20.009,-26.201 -13.696,0 -20.128,12.862 -20.128,25.248 0,12.624 5.955,26.796 20.128,26.796 z m 78.843,-98.85 c 0,7.98 -6.432,14.768 -14.411,14.768 -7.623,0 -14.41,-6.908 -14.41,-14.768 -0.002,-7.266 6.787,-14.054 14.408,-14.054 7.622,0 14.412,6.55 14.412,14.054 z m -27.273,38.706 c 0,-8.574 5.359,-14.29 12.862,-14.29 7.504,0 12.863,5.714 12.863,14.29 v 68.363 c 0,8.574 -5.36,14.29 -12.863,14.29 -7.503,0 -12.862,-5.714 -12.862,-14.29 z" />
    <path
       style="fill:#54585a"
       inkscape:connector-curvature="0"
       id="path4"
       d="m 319.18,-34.953 c 0,30.846 -20.126,46.33 -49.305,46.33 -10.48,0 -40.493,-5.122 -40.493,-19.295 0,-4.764 5.36,-11.195 10.362,-11.195 8.218,0 17.268,7.98 32.036,7.98 12.506,0 21.676,-7.264 21.676,-20.247 v -6.075 h -0.357 c -5.36,7.86 -14.055,12.147 -25.843,12.147 -26.917,0 -39.541,-23.699 -39.541,-49.186 0,-25.843 16.435,-49.902 42.28,-49.902 8.694,0 18.697,3.93 23.462,11.79 1.548,-6.788 5.716,-10.718 12.862,-10.718 7.504,0 12.863,5.716 12.863,14.291 v 74.08 h -0.001 z m -45.732,-65.861 c -13.339,0 -20.008,13.935 -20.008,25.843 0,13.696 6.55,26.202 20.008,26.202 13.696,0 20.128,-12.862 20.128,-25.248 0,-12.624 -6.074,-26.797 -20.128,-26.797 z m 76.58,34.538 c 1.785,12.625 12.266,18.58 24.176,18.58 13.22,0 22.272,-10.362 29.06,-10.362 5.478,0 10.48,5.478 10.48,11.076 0,11.075 -22.747,21.794 -41.922,21.794 -28.822,0 -48.115,-21.08 -48.115,-49.305 0,-25.965 18.936,-49.664 45.971,-49.664 27.75,0 46.092,25.248 46.092,46.686 0,7.622 -3.335,11.434 -11.195,11.434 h -54.547 v -0.238 z m 40.254,-17.15 c -1.429,-11.195 -8.574,-19.651 -20.485,-19.651 -11.433,0 -19.055,8.694 -20.365,19.651 z m 55.976,17.507 c 1.786,12.625 12.267,18.46 24.177,18.46 13.22,0 22.272,-10.361 29.06,-10.361 5.478,0 10.48,5.478 10.48,11.076 0,11.076 -22.747,21.794 -41.923,21.794 -28.821,0 -48.115,-21.08 -48.115,-49.305 0,-25.965 18.937,-49.664 45.971,-49.664 27.75,0 46.092,25.248 46.092,46.686 0,7.622 -3.334,11.433 -11.195,11.433 h -54.547 z m 40.256,-17.15 c -1.43,-11.195 -8.576,-19.651 -20.486,-19.651 -11.433,0 -19.055,8.694 -20.246,19.651 h 40.731 z" />
  </g>
</svg>
