<?xml version="1.0" encoding="UTF-8" standalone="no"?>
<svg
   xmlns:dc="http://purl.org/dc/elements/1.1/"
   xmlns:cc="http://creativecommons.org/ns#"
   xmlns:rdf="http://www.w3.org/1999/02/22-rdf-syntax-ns#"
   xmlns:svg="http://www.w3.org/2000/svg"
   xmlns="http://www.w3.org/2000/svg"
   xmlns:sodipodi="http://sodipodi.sourceforge.net/DTD/sodipodi-0.dtd"
   xmlns:inkscape="http://www.inkscape.org/namespaces/inkscape"
   id="Layer_1"
   data-name="Layer 1"
   viewBox="0 0 120 60.000002"
   version="1.1"
   sodipodi:docname="affirm-ar21.svg"
   width="120"
   height="60"
   inkscape:version="0.92.3 (2405546, 2018-03-11)">
  <metadata
     id="metadata23">
    <rdf:RDF>
      <cc:Work
         rdf:about="">
        <dc:format>image/svg+xml</dc:format>
        <dc:type
           rdf:resource="http://purl.org/dc/dcmitype/StillImage" />
        <dc:title>logotype_blue</dc:title>
      </cc:Work>
    </rdf:RDF>
  </metadata>
  <sodipodi:namedview
     pagecolor="#ffffff"
     bordercolor="#666666"
     borderopacity="1"
     objecttolerance="10"
     gridtolerance="10"
     guidetolerance="10"
     inkscape:pageopacity="0"
     inkscape:pageshadow="2"
     inkscape:window-width="1920"
     inkscape:window-height="1001"
     id="namedview21"
     showgrid="false"
     inkscape:zoom="4.7442445"
     inkscape:cx="66.675443"
     inkscape:cy="14.830241"
     inkscape:window-x="-9"
     inkscape:window-y="-9"
     inkscape:window-maximized="1"
     inkscape:current-layer="Layer_1" />
  <defs
     id="defs4">
    <style
       id="style2">.cls-1{fill:#2bc2df;}</style>
  </defs>
  <title
     id="title6">logotype_blue</title>
  <g
     id="g836"
     transform="translate(4.2965705,0.05080792)">
    <path
       style="fill:#2bc2df;stroke-width:0.16095251"
       inkscape:connector-curvature="0"
       id="path8"
       d="m 57.722579,16.590135 a 2.8279356,2.8279356 0 1 0 2.834374,2.827934 2.8311546,2.8311546 0 0 0 -2.834374,-2.827934 z"
       class="cls-1" />
    <rect
       style="fill:#2bc2df;stroke-width:0.16095251"
       id="rect10"
       height="19.203243"
       width="4.8269658"
       y="24.103395"
       x="55.2938"
       class="cls-1" />
    <path
       style="fill:#2bc2df;stroke-width:0.16095251"
       inkscape:connector-curvature="0"
       id="path12"
       d="m 74.635469,23.609273 c -2.414288,0 -5.190718,1.738287 -6.104929,3.917585 v -3.42346 h -4.579099 v 19.204853 h 4.828575 v -8.918379 c 0,-3.774336 1.448573,-5.881205 4.604852,-5.940757 l 2.694345,-4.728785 a 10.328323,10.328323 0 0 0 -1.443744,-0.111057 z"
       class="cls-1" />
    <path
       style="fill:#2bc2df;stroke-width:0.16095251"
       inkscape:connector-curvature="0"
       id="path14"
       d="m 94.03507,23.622149 c -2.071454,0 -3.928846,0.779011 -5.230952,2.192174 l -0.0676,0.07242 -0.06599,-0.07242 c -1.287621,-1.413163 -3.135355,-2.192174 -5.208424,-2.192174 -4.439071,0 -7.661339,3.236756 -7.661339,7.69514 v 11.990962 h 4.751324 V 31.214279 c 0,-1.871877 1.142763,-3.080631 2.910021,-3.080631 1.767259,0 2.911632,1.208754 2.911632,3.080631 V 43.308251 H 91.13793 V 31.214279 c 0,-1.871877 1.142763,-3.080631 2.911632,-3.080631 1.768868,0 2.911629,1.208754 2.911629,3.080631 V 43.308251 H 101.7109 V 31.317289 c -0.008,-4.458384 -3.230321,-7.69514 -7.67583,-7.69514 z"
       class="cls-1" />
    <path
       style="fill:#2bc2df;stroke-width:0.16095251"
       inkscape:connector-curvature="0"
       id="path16"
       d="m 49.45123,22.334529 c 0,-0.634153 0.08531,-1.392239 0.627715,-1.809106 0.593914,-0.461934 1.463057,-0.376629 2.16642,-0.34122 l 0.936744,-3.495887 -0.500563,-0.02576 c -2.015126,-0.107839 -4.13487,-0.257524 -5.902128,0.91099 -1.498468,0.989858 -2.164812,2.694345 -2.164812,4.443899 v 2.092382 H 38.857335 V 22.33935 c 0,-0.630934 0.0837,-1.380973 0.614838,-1.802668 0.593915,-0.471591 1.474325,-0.383067 2.177688,-0.347657 l 0.936744,-3.495888 -0.500562,-0.02576 c -2.031221,-0.109447 -4.17189,-0.257524 -5.940758,0.943181 -1.467887,0.994687 -2.118135,2.684688 -2.118135,4.413319 v 2.092382 h -2.176078 v 3.478184 h 2.177688 v 15.713793 h 4.828575 V 27.594457 h 5.755662 v 15.713794 h 4.828575 V 27.594457 h 3.342984 V 24.103398 H 49.45123 V 22.33292 Z"
       class="cls-1" />
    <path
       style="fill:#2bc2df;stroke-width:0.16095251"
       inkscape:connector-curvature="0"
       id="path18"
       d="M 29.401375,43.308251 V 26.350295 a 2.7876975,2.7876975 0 0 0 -2.465793,-2.736193 c -0.922257,-0.05955 -1.902458,0.278448 -2.480277,1.026876 L 9.695959,43.308251 h 3.637526 c 1.448573,0 2.604213,-0.754868 3.478184,-1.883145 l 8.174779,-10.33798 v 12.221125 h 4.418146 z"
       class="cls-1" />
  </g>
</svg>
