<svg xmlns="http://www.w3.org/2000/svg" width="64" height="64"><path d="M39.986 59.952l14.756-7.268 2.298-10.16a.27.27 0 0 0 .077-.052c2.08-1.3 3.02-2.814 4.157-6.8l.168-.594c.955-3.33 1.136-3.886 1.833-4.26l.22-.116.504-3.615v-.052c.013-.374-.155-.8-.58-.93-.04-.013-2.208-.7-6.74-.98l-1.28-4.533 3.215-2.956c2.918-3.124 2.75-8.017-.374-10.935l-.607-.568a7.75 7.75 0 0 0-10.948.374l-2.763 2.97-11.903-2.53L19.445 9.46l-2.75-2.944C13.765 3.38 8.86 3.2 5.735 6.13l-.607.568c-3.124 2.918-3.292 7.8-.374 10.935L7.97 20.6 6.7 25.172c-4.13.297-6.068.942-6.107.942-.426.116-.607.555-.58.93l.516 3.654.22.116c.697.374.878.942 1.833 4.273l.168.58c1.033 3.615 1.9 5.203 3.628 6.442l2.918 10.574L24.04 59.95zm8.095-17.765H48c-3.628 0-5.887-1.265-6.7-1.82-1.278-.865-2.866-2.776-3.46-4.183-.607-1.42-.878-4.08-.53-5.177.336-1.06 1.962-1.73 3.15-2.143 2.414-.84 6.623-1.214 6.65-1.214a70.65 70.65 0 0 1 3.499-.103c1.02 0 1.95.026 2.763.1 1.2.1 2.156.258 2.918.478 1.097.336 1.6.775 1.937 1.175.4.452.98 1.807.426 5.86-.232 1.64-.697 2.93-1.42 3.95-.374.53-.813.968-1.317 1.33-.53.374-1.188.697-1.95.955-1.498.516-3.473.788-5.874.8zM13.74 14.314L32.007 10.3l17.623 4.015 3.525 10.703h-.58l-1.084.013c-2.595.04-5.2.258-7.785.62-1.304.18-2.608.4-3.9.67-1.188.258-2.13.5-2.97.697-1.86.465-3.086.775-4.803.775-1.73 0-2.956-.3-4.816-.775l-2.982-.7a64.13 64.13 0 0 0-4.402-.736c-2.647-.35-5.293-.542-7.94-.555h-.44l-1.226.013zm-.387 13.233a75.99 75.99 0 0 1 3.5.1c.04 0 4.247.374 6.675 1.214 1.188.413 2.814 1.084 3.15 2.143.35 1.084.077 3.744-.53 5.177-.594 1.407-2.17 3.318-3.447 4.183-.8.542-3.073 1.82-6.7 1.82h-.1c-2.763-.013-4.97-.374-6.57-1.046a6.6 6.6 0 0 1-1.278-.697c-.762-.542-1.368-1.265-1.82-2.17-.44-.865-.736-1.885-.904-3.1-.555-4.054.026-5.4.426-5.874.245-.284.62-.646 1.33-.942.7-.3 1.653-.516 2.892-.646.942-.1 2.08-.142 3.37-.142zM24.78 57.292l-13.375-6.584L9.62 43.53c1.73.44 3.886.697 6.068.697a22.84 22.84 0 0 0 2.866-.168c5.216-.62 7.824-3.886 8.3-4.544 1.033-1.433 2.208-4 3.215-6.287.36-.813 1.743-.852 1.937-.852h.142c.4.026 1.472.155 1.782.852 1.007 2.3 2.182 4.867 3.215 6.287.465.646 3.073 3.925 8.3 4.544.904.103 1.872.168 2.866.168 1.9 0 3.796-.194 5.397-.542l-1.756 7.023-12.73 6.584zm7.925-7.642c1.73-.155 5.977-.813 5.603-3.395-.142-.826-.762-2.647-6.313-1.46-5.55-1.188-6.184.633-6.313 1.46-.374 2.582 3.86 3.24 5.603 3.395v2.388H25.72l.98 1.86h10.6l.98-1.86h-5.564V49.65z"/></svg>