<?xml version="1.0" encoding="UTF-8" standalone="no"?>
<!-- Created with Inkscape (http://www.inkscape.org/) -->

<svg
   xmlns:dc="http://purl.org/dc/elements/1.1/"
   xmlns:cc="http://creativecommons.org/ns#"
   xmlns:rdf="http://www.w3.org/1999/02/22-rdf-syntax-ns#"
   xmlns:svg="http://www.w3.org/2000/svg"
   xmlns="http://www.w3.org/2000/svg"
   xmlns:sodipodi="http://sodipodi.sourceforge.net/DTD/sodipodi-0.dtd"
   xmlns:inkscape="http://www.inkscape.org/namespaces/inkscape"
   width="64mm"
   height="64mm"
   viewBox="0 0 64 64"
   version="1.1"
   id="svg881"
   inkscape:version="0.92.4 (5da689c313, 2019-01-14)"
   sodipodi:docname="svgrepo-icon.svg">
  <defs
     id="defs875" />
  <sodipodi:namedview
     id="base"
     pagecolor="#ffffff"
     bordercolor="#666666"
     borderopacity="1.0"
     inkscape:pageopacity="0.0"
     inkscape:pageshadow="2"
     inkscape:zoom="0.35"
     inkscape:cx="-481.42857"
     inkscape:cy="560"
     inkscape:document-units="mm"
     inkscape:current-layer="layer1"
     showgrid="false"
     inkscape:window-width="1850"
     inkscape:window-height="1016"
     inkscape:window-x="70"
     inkscape:window-y="27"
     inkscape:window-maximized="1" />
  <metadata
     id="metadata878">
    <rdf:RDF>
      <cc:Work
         rdf:about="">
        <dc:format>image/svg+xml</dc:format>
        <dc:type
           rdf:resource="http://purl.org/dc/dcmitype/StillImage" />
        <dc:title></dc:title>
      </cc:Work>
    </rdf:RDF>
  </metadata>
  <g
     inkscape:label="Layer 1"
     inkscape:groupmode="layer"
     id="layer1"
     transform="translate(0,-233)">
    <rect
       x="5.2916665"
       y="233"
       width="54.65049"
       height="64"
       id="rect2"
       style="fill:#6b9bd2;stroke-width:3.03260016" />
    <g
       id="g14"
       transform="matrix(3.0326004,0,0,3.0326004,-159.66967,231.29261)">
      <path
         d="m 59.563,8.053 h -0.74 v 2.03 h -1.56 v -7 h 3.05 c 0.34,0 0.662,0.065 0.965,0.195 0.303,0.13 0.566,0.307 0.79,0.529 0.224,0.224 0.399,0.487 0.53,0.79 0.13,0.304 0.195,0.625 0.195,0.966 0,0.267 -0.041,0.52 -0.121,0.76 -0.08,0.24 -0.189,0.462 -0.33,0.665 -0.139,0.203 -0.307,0.383 -0.5,0.54 -0.193,0.156 -0.406,0.278 -0.639,0.364 l 1.59,2.19 h -1.92 z m -0.741,-1.47 h 1.49 c 0.141,0 0.271,-0.026 0.395,-0.08 0.123,-0.053 0.232,-0.127 0.326,-0.22 0.093,-0.094 0.166,-0.202 0.219,-0.325 0.054,-0.123 0.08,-0.255 0.08,-0.395 0,-0.261 -0.088,-0.485 -0.265,-0.676 C 60.89,4.698 60.679,4.586 60.432,4.552 h -1.61 z"
         id="path12"
         inkscape:connector-curvature="0"
         style="fill:#f7f7f7" />
    </g>
    <g
       id="g18"
       transform="matrix(3.0326004,0,0,3.0326004,-159.66967,231.29261)">
      <path
         d="m 66.656,8.523 h 3.267 v 1.56 h -4.989 v -7 h 4.989 v 1.56 h -3.267 v 1.091 h 2.727 v 1.56 h -2.727 z"
         id="path16"
         inkscape:connector-curvature="0"
         style="fill:#f7f7f7" />
    </g>
    <g
       id="g22"
       transform="matrix(3.0326004,0,0,3.0326004,-159.66967,231.29261)">
      <path
         d="m 62.584,14.897 c 0,0.34 -0.064,0.661 -0.195,0.965 -0.13,0.303 -0.307,0.568 -0.529,0.795 -0.224,0.227 -0.487,0.404 -0.791,0.535 -0.303,0.13 -0.625,0.194 -0.965,0.194 h -1.49 v 2.03 h -1.559 v -7 h 3.049 c 0.34,0 0.662,0.065 0.965,0.195 0.304,0.13 0.567,0.307 0.791,0.529 0.223,0.224 0.399,0.487 0.529,0.79 0.131,0.305 0.195,0.627 0.195,0.967 z m -3.971,1.02 h 1.49 c 0.141,0 0.271,-0.026 0.396,-0.08 0.123,-0.053 0.231,-0.127 0.325,-0.22 0.094,-0.094 0.166,-0.202 0.22,-0.325 0.054,-0.123 0.08,-0.255 0.08,-0.395 0,-0.261 -0.089,-0.485 -0.265,-0.676 -0.178,-0.189 -0.389,-0.301 -0.635,-0.335 h -1.611 z"
         id="path20"
         inkscape:connector-curvature="0"
         style="fill:#f7f7f7" />
    </g>
    <g
       id="g26"
       transform="matrix(3.0326004,0,0,3.0326004,-159.66967,231.29261)">
      <path
         d="m 64.156,15.823 c 0,-0.517 0.088,-0.999 0.266,-1.45 0.178,-0.45 0.42,-0.842 0.727,-1.175 0.307,-0.333 0.666,-0.596 1.078,-0.789 0.412,-0.192 0.854,-0.289 1.322,-0.289 0.477,0 0.922,0.097 1.336,0.289 0.416,0.193 0.777,0.456 1.084,0.789 0.307,0.333 0.549,0.725 0.727,1.175 0.178,0.451 0.266,0.934 0.266,1.45 0,0.509 -0.088,0.987 -0.266,1.435 -0.178,0.448 -0.42,0.838 -0.727,1.171 -0.307,0.333 -0.668,0.596 -1.084,0.788 -0.414,0.192 -0.859,0.289 -1.336,0.289 -0.469,0 -0.91,-0.097 -1.322,-0.289 -0.412,-0.192 -0.771,-0.455 -1.078,-0.788 -0.307,-0.333 -0.549,-0.724 -0.727,-1.171 -0.178,-0.447 -0.266,-0.926 -0.266,-1.435 z m 1.41,0 c 0,0.302 0.053,0.584 0.158,0.846 0.105,0.263 0.248,0.49 0.426,0.684 0.178,0.194 0.389,0.347 0.629,0.458 0.242,0.111 0.498,0.167 0.77,0.167 0.279,0 0.539,-0.056 0.785,-0.167 0.244,-0.111 0.457,-0.264 0.637,-0.458 0.182,-0.193 0.324,-0.421 0.426,-0.684 0.104,-0.262 0.154,-0.544 0.154,-0.846 0,-0.302 -0.051,-0.584 -0.154,-0.847 -0.102,-0.262 -0.244,-0.492 -0.426,-0.688 -0.18,-0.197 -0.393,-0.353 -0.637,-0.468 -0.246,-0.114 -0.506,-0.172 -0.785,-0.172 -0.271,0 -0.527,0.058 -0.77,0.172 -0.24,0.115 -0.451,0.271 -0.629,0.468 -0.178,0.196 -0.32,0.427 -0.426,0.688 -0.105,0.263 -0.158,0.545 -0.158,0.847 z"
         id="path24"
         inkscape:connector-curvature="0"
         style="fill:#f7f7f7" />
    </g>
  </g>
</svg>
