<svg xmlns="http://www.w3.org/2000/svg" width="120" height="60" fill-rule="evenodd"><path d="M7.5 46.637h105V13.363H7.5z" fill="#000"/><path d="M17.852 24.735l2.958-.28v11.092h-2.958zm10.624 10.81h-2.5V24.734l3.088-.28 4.184 7.4-.15-2.14v-4.968l2.49-.28v11.092h-2.94l-4.366-7.652.183 2.715zm12.3-10.81l2.6-.28v8.755h4.794l-.532 2.337h-6.862zm16.26 1.613c-1.745 0-2.344 1.27-2.344 3.618 0 2.863.9 3.686 2.344 3.686 1.762 0 2.328-1.303 2.328-3.686 0-2.812-.872-3.618-2.328-3.618m5.185 3.618c0 3.892-1.934 5.95-5.185 5.95-3.832 0-5.167-2.28-5.167-5.95 0-3.84 1.934-5.88 5.167-5.88 3.85 0 5.185 2.23 5.185 5.88m8.864-3.618c-1.745 0-2.344 1.27-2.344 3.618 0 2.863.89 3.686 2.344 3.686 1.762 0 2.328-1.303 2.328-3.686 0-2.812-.874-3.618-2.328-3.618m5.185 3.618c0 3.892-1.934 5.95-5.185 5.95-3.833 0-5.168-2.28-5.168-5.95 0-3.84 1.934-5.88 5.168-5.88 3.85 0 5.185 2.23 5.185 5.88m7.045-3.3v2.64h1.62c.876 0 1.28-.52 1.28-1.353 0-.92-.422-1.287-1.183-1.287zm-2.61-2.22h4.538c2.56 0 3.597 1.403 3.597 3.34 0 2.54-1.506 3.726-4.002 3.726h-1.523v4.026h-2.61V24.454zm18.09 11.09l-1.328-2.208-.73-1.32-.583 1.236-1.264 2.29h-3.093l3.628-5.587-3.093-5.208 2.77-.297 1.442 2.588.567 1.137.615-1.203 1.312-2.307 3.1-.198-3.7 5.85 3.434 5.225z" fill="#fffffe"/></svg>