<?xml version="1.0" encoding="UTF-8" standalone="no"?>
<svg
   xmlns:dc="http://purl.org/dc/elements/1.1/"
   xmlns:cc="http://creativecommons.org/ns#"
   xmlns:rdf="http://www.w3.org/1999/02/22-rdf-syntax-ns#"
   xmlns:svg="http://www.w3.org/2000/svg"
   xmlns="http://www.w3.org/2000/svg"
   xmlns:sodipodi="http://sodipodi.sourceforge.net/DTD/sodipodi-0.dtd"
   xmlns:inkscape="http://www.inkscape.org/namespaces/inkscape"
   version="1.1"
   id="svg2"
   inkscape:version="0.92.3 (2405546, 2018-03-11)"
   sodipodi:docname="vividcortex-ar21.svg"
   x="0px"
   y="0px"
   width="120"
   height="60"
   viewBox="-23.843 -345.933 120 59.999999"
   enable-background="new -23.843 -345.933 333.063 82.234"
   xml:space="preserve"><metadata
   id="metadata28"><rdf:RDF><cc:Work
       rdf:about=""><dc:format>image/svg+xml</dc:format><dc:type
         rdf:resource="http://purl.org/dc/dcmitype/StillImage" /><dc:title></dc:title></cc:Work></rdf:RDF></metadata><defs
   id="defs26" />
<sodipodi:namedview
   id="namedview4"
   bordercolor="#666666"
   pagecolor="#ffffff"
   borderopacity="1"
   objecttolerance="10"
   gridtolerance="10"
   guidetolerance="10"
   showgrid="false"
   fit-margin-top="3"
   fit-margin-left="0"
   inkscape:zoom="6.8455976"
   inkscape:cx="60.771702"
   inkscape:cy="24.14761"
   inkscape:pageopacity="0"
   inkscape:pageshadow="2"
   inkscape:window-width="1920"
   inkscape:window-height="1001"
   fit-margin-right="3"
   fit-margin-bottom="0"
   inkscape:window-x="-9"
   inkscape:window-y="-9"
   inkscape:current-layer="svg2"
   inkscape:window-maximized="1">
	</sodipodi:namedview>

<g
   id="g931"
   transform="translate(-0.0716381,-3.0523227e-6)"><g
     transform="translate(9.832422,-2.7476302)"
     id="g905"><g
       id="g3111"
       transform="matrix(0.2370547,0,0,0.2370547,6.8939844,-215.82655)">
	<path
   style="fill:#4e4e55"
   id="path22"
   inkscape:connector-curvature="0"
   d="m 29.236,-431.772 h 4.021 l 8.426,27.289 8.425,-27.289 h 4.021 l -10.533,33.513 h -3.829 l -10.531,-33.513" />
	<path
   style="fill:#4e4e55"
   id="path24"
   inkscape:connector-curvature="0"
   d="m 65.623,-422.197 h 3.831 v 23.939 h -3.831 z m 0,-9.575 h 3.831 v 4.788 h -3.831 v -4.788" />
	<path
   style="fill:#4e4e55"
   id="path26"
   inkscape:connector-curvature="0"
   d="m 96.073,-422.197 h 4.022 l -7.66,23.939 h -3.831 l -7.662,-23.939 h 4.021 l 5.554,17.952 5.556,-17.952" />
	<path
   style="fill:#4e4e55"
   id="path28"
   inkscape:connector-curvature="0"
   d="m 111.586,-422.197 h 3.83 v 23.939 h -3.83 z m 0,-9.575 h 3.83 v 4.788 h -3.83 v -4.788" />
	<path
   style="fill:#4e4e55"
   id="path30"
   inkscape:connector-curvature="0"
   d="m 132.173,-407.02 c 0,2.969 2.44,5.408 5.408,5.408 h 4.644 v -17.235 h -7.373 c -1.482,0 -2.68,1.197 -2.68,2.68 z m 13.885,8.761 h -8.475 c -5.121,0 -9.239,-4.118 -9.239,-9.24 v -8.235 c 0,-3.592 2.871,-6.465 6.512,-6.465 h 7.373 v -9.574 h 3.83 l -0.001,33.514" />
	<path
   style="fill:#4e4e55"
   id="path32"
   inkscape:connector-curvature="0"
   d="m 171.096,-398.259 c -6.702,0 -12.112,-5.41 -12.112,-12.113 v -12.496 c 0,-4.931 3.973,-8.904 8.905,-8.904 h 11.2 v 3.35 h -11.2 c -2.73,0 -5.076,2.347 -5.076,5.074 v 13.407 c 0,4.545 3.784,8.328 8.283,8.328 h 7.993 v 3.354 h -7.993" />
	<path
   style="fill:#4e4e55"
   id="path34"
   inkscape:connector-curvature="0"
   d="m 199.97,-401.612 c 1.96,0 3.542,-1.625 3.542,-3.589 v -10.964 c 0,-1.484 -1.151,-2.68 -2.633,-2.68 h -5.267 c -1.437,0 -2.634,1.197 -2.634,2.68 v 10.966 c 0,1.962 1.582,3.589 3.543,3.589 z m -3.448,3.353 c -4.118,0 -7.375,-3.305 -7.375,-7.42 v -10.052 c 0,-3.592 2.872,-6.464 6.464,-6.464 h 5.269 c 3.59,0 6.463,2.872 6.463,6.464 v 10.051 c 0,4.118 -3.257,7.42 -7.372,7.42 l -3.449,10e-4" />
	<path
   style="fill:#4e4e55"
   id="path36"
   inkscape:connector-curvature="0"
   d="m 220.267,-422.197 h 2.397 l 1.435,2.156 c 1.437,-1.436 3.112,-2.156 5.267,-2.156 h 5.745 v 3.351 h -5.745 c -2.92,0 -5.267,2.394 -5.267,5.267 v 15.32 h -3.832 v -23.938" />
	<path
   style="fill:#4e4e55"
   id="path38"
   inkscape:connector-curvature="0"
   d="m 256.656,-401.612 v 3.353 h -2.873 c -3.781,0 -6.703,-2.825 -6.703,-6.417 v -27.097 h 3.831 v 9.575 h 5.745 v 3.351 h -5.745 v 14.171 c 0,1.676 1.292,3.063 2.872,3.063 l 2.873,10e-4" />
	<path
   style="fill:#4e4e55"
   id="path40"
   inkscape:connector-curvature="0"
   d="m 271.019,-410.802 7.804,-1.915 c 1.295,-0.288 2.25,-1.388 2.25,-3.016 0,-1.676 -1.339,-3.112 -2.872,-3.112 h -4.31 c -1.58,0 -2.872,1.436 -2.872,3.112 z m 12.926,12.543 h -7.563 c -5.122,0 -9.194,-4.118 -9.194,-9.24 v -8.235 c 0,-3.592 2.969,-6.465 6.703,-6.465 h 4.31 c 3.735,0 6.702,2.873 6.702,6.465 0,3.016 -2.347,5.694 -5.22,6.365 l -8.664,2.109 v 0.239 c 0,2.969 2.397,5.408 5.366,5.408 h 7.563 l -0.003,3.354" />
	<path
   style="fill:#4e4e55"
   id="path42"
   inkscape:connector-curvature="0"
   d="m 304.775,-406.637 c -1.63,2.776 -3.401,5.698 -5.028,8.379 h -4.308 l 7.179,-11.969 -7.179,-11.971 h 4.308 l 5.028,8.379 c 1.674,-2.776 3.445,-5.697 5.027,-8.379 h 4.308 l -7.182,11.971 7.182,11.969 h -4.308 l -5.027,-8.379" />
</g></g><g
     transform="matrix(1.463576,0,0,1.463576,6.758771,142.63292)"
     id="g891"><g
       id="g3100"
       transform="matrix(0.06283886,0,0,0.06283886,-11.154215,-222.74588)">
	<path
   style="fill:#41c0d3"
   id="path44"
   inkscape:connector-curvature="0"
   d="m 189.96,-1621.713 -56.274,97.328 171.649,-97.328 H 189.96" />
	<path
   style="fill:#41c0d3"
   id="path46"
   inkscape:connector-curvature="0"
   d="m 142.141,-1515.483 h 115.53 l 55.032,-96.722 -170.562,96.722" />
	<path
   style="fill:#4e4e55"
   id="path48"
   inkscape:connector-curvature="0"
   d="m 126.891,-1494.65 v 210.714 l 60.058,-103.423 -60.058,-107.291" />
	<path
   style="fill:#4e4e55"
   id="path50"
   inkscape:connector-curvature="0"
   d="m 115.118,-1494.65 v 210.714 l -60.058,-103.422 60.058,-107.292" />
	<path
   style="fill:#0b8eae"
   id="path52"
   inkscape:connector-curvature="0"
   d="M 251.241,-1503.817 H 136.023 l 56.465,102.736 58.753,-102.736" />
	<path
   style="fill:#ffffff"
   id="path54"
   inkscape:connector-curvature="0"
   d="m -9.484,-1503.575 h 0.025 l 0.456,-0.237 h 114.389 l -56.465,102.736 z m -61.216,-108.623 170.568,96.719 H -15.664 Z m 122.746,-9.515 56.269,97.328 -171.642,-97.328 z m 63.072,337.72 -60.058,-103.365 60.058,-107.292 z m 11.773,-210.657 60.058,107.292 -60.058,103.365 z m 63.069,-127.063 h 115.375 l -171.649,97.328 z m 67.71,106.23 H 142.14 l 170.561,-96.722 z m -6.777,11.908 -58.405,102.499 -56.465,-102.736 h 114.993 l -0.141,0.237 z m -129.726,255.69 220.478,-387.509 H 182.065 L 121.192,-1530.1 H 120.81 L 59.941,-1635.394 H -99.643 l 220.478,387.509 v 0.574 l 0.171,-0.281 0.161,0.281 v -0.574" />
	<path
   style="fill:#0b8eae"
   id="path56"
   inkscape:connector-curvature="0"
   d="m -9.829,-1503.817 h 115.216 l -56.465,102.736 -58.751,-102.736" />
	<path
   style="fill:#41c0d3"
   id="path58"
   inkscape:connector-curvature="0"
   d="M 99.868,-1515.483 H -15.664 l -55.036,-96.722 170.568,96.722" />
	<path
   style="fill:#41c0d3"
   id="path60"
   inkscape:connector-curvature="0"
   d="m 52.046,-1621.713 56.269,97.328 -171.642,-97.328 H 52.046" />
</g></g></g>
</svg>