<?xml version="1.0" encoding="UTF-8" standalone="no"?>
<!-- Generator: Adobe Illustrator 22.0.0, SVG Export Plug-In . SVG Version: 6.00 Build 0)  -->

<svg
   xmlns:dc="http://purl.org/dc/elements/1.1/"
   xmlns:cc="http://creativecommons.org/ns#"
   xmlns:rdf="http://www.w3.org/1999/02/22-rdf-syntax-ns#"
   xmlns:svg="http://www.w3.org/2000/svg"
   xmlns="http://www.w3.org/2000/svg"
   xmlns:sodipodi="http://sodipodi.sourceforge.net/DTD/sodipodi-0.dtd"
   xmlns:inkscape="http://www.inkscape.org/namespaces/inkscape"
   version="1.1"
   x="0px"
   y="0px"
   viewBox="1.92 2 120 60"
   xml:space="preserve"
   id="svg71"
   sodipodi:docname="cloudzero-ar21.svg"
   width="120"
   height="60"
   inkscape:version="0.92.3 (2405546, 2018-03-11)"><metadata
   id="metadata77"><rdf:RDF><cc:Work
       rdf:about=""><dc:format>image/svg+xml</dc:format><dc:type
         rdf:resource="http://purl.org/dc/dcmitype/StillImage" /><dc:title></dc:title></cc:Work></rdf:RDF></metadata><defs
   id="defs75" /><sodipodi:namedview
   pagecolor="#ffffff"
   bordercolor="#666666"
   borderopacity="1"
   objecttolerance="10"
   gridtolerance="10"
   guidetolerance="10"
   inkscape:pageopacity="0"
   inkscape:pageshadow="2"
   inkscape:window-width="1920"
   inkscape:window-height="1001"
   id="namedview73"
   showgrid="false"
   inkscape:zoom="1.5978507"
   inkscape:cx="29.727434"
   inkscape:cy="52"
   inkscape:window-x="-9"
   inkscape:window-y="-9"
   inkscape:window-maximized="1"
   inkscape:current-layer="svg71" />
<style
   type="text/css"
   id="style2">
	.st0{fill:#346FAD;}
	.st1{fill:#233A74;}
	.st2{fill:#0D5296;}
	.st3{fill:#203E79;}
	.st4{fill:#368AB7;}
	.st5{fill:#3399C2;}
	.st6{fill:#1D4481;}
	.st7{fill:#0A5CA2;}
	.st8{fill:#3E7CB1;}
	.st9{fill:#3F96D2;}
	.st10{fill:#E78825;}
	.st11{fill:#CD6628;}
	.st12{fill:#F0C918;}
	.st13{fill:#BF2926;}
	.st14{fill:#F3A620;}
	.st15{fill:#B22F24;}
	.st16{fill:#CA3928;}
	.st17{fill:#D75A28;}
	.st18{fill:#A81E22;}
	.st19{fill:#DB5926;}
	.st20{fill:#FFFFFF;}
</style>

<g
   id="g920"
   transform="translate(5.8719997,-3.4180176)"><g
     transform="matrix(0.49042687,0,0,0.49042687,3.0818983,8.9349666)"
     id="Layer_1">
	<g
   id="Blues">
		<path
   style="fill:#346fad"
   inkscape:connector-curvature="0"
   id="path4"
   d="m 95.295,88.195 11.278,5.254 -5.638,-8.108 z M 6.048,49.135 33.272,60.578 42.915,4.119 Z"
   class="st0" />
		<polygon
   style="fill:#233a74"
   id="polygon6"
   points="42.915,4.119 33.272,60.578 44.863,65.576 69.17,40.374 "
   class="st1" />
		<polygon
   style="fill:#0d5296"
   id="polygon8"
   points="81.284,27.591 69.17,40.374 78.188,53.017 84.659,29.706 "
   class="st2" />
		<polygon
   style="fill:#203e79"
   id="polygon10"
   points="69.17,40.374 44.863,65.576 71.384,77.293 78.188,53.017 "
   class="st3" />
		<path
   style="fill:#368ab7"
   inkscape:connector-curvature="0"
   id="path12"
   d="M 29.752,80.942 63.854,103.881 71.385,77.293 44.863,65.576 Z m 51.532,-53.351 3.375,2.115 2.174,-8.373 z"
   class="st4" />
		<polygon
   style="fill:#3399c2"
   id="polygon14"
   points="95.295,88.195 71.384,77.293 63.854,103.881 "
   class="st5" />
		<polygon
   style="fill:#1d4481"
   id="polygon16"
   points="78.188,53.017 71.384,77.293 95.295,88.195 100.935,85.341 "
   class="st6" />
		<polygon
   style="fill:#0a5ca2"
   id="polygon18"
   points="84.659,29.706 78.188,53.017 100.935,85.341 139.467,65.518 "
   class="st7" />
		<polygon
   style="fill:#3399c2"
   id="polygon20"
   points="139.467,65.518 86.833,21.333 84.659,29.706 "
   class="st5" />
		<polygon
   style="fill:#3e7cb1"
   id="polygon22"
   points="44.863,65.576 33.272,60.578 29.752,80.942 "
   class="st8" />
		<polygon
   style="fill:#3f96d2"
   id="polygon24"
   points="81.284,27.591 42.915,4.119 69.17,40.374 "
   class="st9" />
		<polygon
   style="fill:#3f96d2"
   id="polygon26"
   points="106.573,93.449 139.467,65.518 100.935,85.341 "
   class="st9" />
	</g>
	<g
   id="Yellow_Red">
		<path
   style="fill:#e78825"
   inkscape:connector-curvature="0"
   id="path29"
   d="M 163.021,75.8 190.67,95.173 171.729,63.86 Z M 108.437,39.461 146.013,22.077 141.1,14.19 Z"
   class="st10" />
		<polygon
   style="fill:#cd6628"
   id="polygon31"
   points="146.013,22.077 108.437,39.461 160.316,73.934 164.76,52.454 "
   class="st11" />
		<path
   style="fill:#f0c918"
   inkscape:connector-curvature="0"
   id="path33"
   d="m 158.707,81.675 1.609,-7.741 -51.879,-34.473 z m -8.066,-61.775 18.498,11.244 4.525,-22.17 z"
   class="st12" />
		<polygon
   style="fill:#bf2926"
   id="polygon35"
   points="169.139,31.143 164.76,52.454 171.729,63.86 187.228,42.36 "
   class="st13" />
		<path
   style="fill:#f3a620"
   inkscape:connector-curvature="0"
   id="path37"
   d="m 158.707,81.675 4.314,-5.875 -2.705,-1.866 z M 169.139,31.143 187.228,42.36 195.706,30.438 173.664,8.974 Z"
   class="st14" />
		<polygon
   style="fill:#b22f24"
   id="polygon39"
   points="150.641,19.9 146.013,22.077 164.76,52.454 169.139,31.143 "
   class="st15" />
		<path
   style="fill:#ca3928"
   inkscape:connector-curvature="0"
   id="path41"
   d="m 190.67,95.173 19.282,-38.409 -15.52,-9.875 z M 146.013,22.077 150.641,19.9 141.1,14.19 Z"
   class="st16" />
		<polygon
   style="fill:#d75a28"
   id="polygon43"
   points="194.431,46.889 195.706,30.438 187.228,42.36 "
   class="st17" />
		<polygon
   style="fill:#a81e22"
   id="polygon45"
   points="187.228,42.36 171.729,63.86 190.67,95.173 194.431,46.889 "
   class="st18" />
		<polygon
   style="fill:#db5926"
   id="polygon47"
   points="164.76,52.454 160.316,73.934 163.021,75.8 171.729,63.86 "
   class="st19" />
	</g>
</g><g
     transform="matrix(0.49042687,0,0,0.49042687,3.0818983,8.9349666)"
     id="Layer_2">
	<g
   id="CloudZero_Word">
		<path
   style="fill:#ffffff"
   inkscape:connector-curvature="0"
   id="path51"
   d="m 27.754,53.957 v -0.055 c 0,-5.584 4.27,-9.964 10.073,-9.964 3.915,0 6.433,1.642 8.13,3.969 L 41.962,51 c -1.096,-1.341 -2.354,-2.245 -4.188,-2.245 -2.683,0 -4.571,2.3 -4.571,5.092 v 0.055 c 0,2.875 1.888,5.119 4.571,5.119 1.998,0 3.175,-0.931 4.324,-2.327 l 3.997,2.847 c -1.807,2.491 -4.243,4.325 -8.459,4.325 -5.475,0 -9.882,-4.188 -9.882,-9.909 z"
   class="st20" />
		<path
   style="fill:#ffffff"
   inkscape:connector-curvature="0"
   id="path53"
   d="m 47.564,44.321 h 5.311 V 58.83 h 9.28 v 4.654 H 47.564 Z"
   class="st20" />
		<path
   style="fill:#ffffff"
   inkscape:connector-curvature="0"
   id="path55"
   d="m 62.549,53.957 v -0.055 c 0,-5.502 4.434,-9.964 10.348,-9.964 5.912,0 10.293,4.407 10.293,9.909 v 0.055 c 0,5.502 -4.434,9.964 -10.348,9.964 -5.913,0 -10.293,-4.407 -10.293,-9.909 z m 15.192,0 v -0.055 c 0,-2.792 -1.97,-5.173 -4.9,-5.173 -2.929,0 -4.873,2.354 -4.873,5.119 v 0.055 c 0,2.765 1.998,5.174 4.928,5.174 2.902,-10e-4 4.845,-2.356 4.845,-5.12 z"
   class="st20" />
		<path
   style="fill:#ffffff"
   inkscape:connector-curvature="0"
   id="path57"
   d="M 84.973,55.079 V 44.321 h 5.366 V 54.97 c 0,2.765 1.396,4.079 3.531,4.079 2.163,0 3.559,-1.259 3.559,-3.942 V 44.321 h 5.365 v 10.621 c 0,6.159 -3.531,8.896 -8.979,8.896 -5.42,10e-4 -8.842,-2.764 -8.842,-8.759 z"
   class="st20" />
		<path
   style="fill:#ffffff"
   inkscape:connector-curvature="0"
   id="path59"
   d="m 105.522,44.321 h 7.419 c 6.816,0 10.785,3.942 10.785,9.472 v 0.055 c 0,5.529 -4.024,9.636 -10.895,9.636 h -7.309 z m 5.311,4.681 v 9.772 h 2.162 c 3.203,0 5.311,-1.752 5.311,-4.845 v -0.055 c 0,-3.066 -2.108,-4.873 -5.311,-4.873 h -2.162 z"
   class="st20" />
		<path
   style="fill:#ffffff"
   inkscape:connector-curvature="0"
   id="path61"
   d="m 124.561,59.623 9.608,-10.84 h -9.28 v -4.462 h 16.589 v 3.832 l -9.608,10.84 h 9.608 v 4.489 h -16.917 z"
   class="st20" />
		<path
   style="fill:#ffffff"
   inkscape:connector-curvature="0"
   id="path63"
   d="m 143.794,44.321 h 15.412 V 48.81 H 149.05 v 2.929 h 9.198 v 4.188 h -9.198 v 3.038 h 10.293 v 4.517 H 143.795 V 44.321 Z"
   class="st20" />
		<path
   style="fill:#ffffff"
   inkscape:connector-curvature="0"
   id="path65"
   d="m 161.762,44.321 h 9.061 c 2.93,0 4.955,0.766 6.241,2.053 1.123,1.122 1.697,2.573 1.697,4.462 v 0.055 c 0,2.957 -1.56,4.9 -3.941,5.913 l 4.571,6.679 h -6.104 l -3.86,-5.803 h -2.354 v 5.803 h -5.311 z m 8.842,9.198 c 1.78,0 2.847,-0.876 2.847,-2.272 v -0.055 c 0,-1.533 -1.123,-2.299 -2.875,-2.299 h -3.504 v 4.626 z"
   class="st20" />
		<path
   style="fill:#ffffff"
   inkscape:connector-curvature="0"
   id="path67"
   d="m 179.782,53.957 v -0.055 c 0,-5.502 4.434,-9.964 10.348,-9.964 5.912,0 10.293,4.407 10.293,9.909 v 0.055 c 0,5.502 -4.434,9.964 -10.348,9.964 -5.913,0 -10.293,-4.407 -10.293,-9.909 z m 15.192,0 v -0.055 c 0,-2.792 -1.97,-5.173 -4.9,-5.173 -2.929,0 -4.873,2.354 -4.873,5.119 v 0.055 c 0,2.765 1.998,5.174 4.928,5.174 2.902,-10e-4 4.845,-2.356 4.845,-5.12 z"
   class="st20" />
	</g>
</g></g>
</svg>