<svg xmlns="http://www.w3.org/2000/svg" width="60" height="94"><style><![CDATA[.F{stroke:#000}.G{stroke-linejoin:round}.H{stroke-width:6}.I{stroke-miterlimit:10}.J{fill:#d0b698}]]></style><path d="M7.485 85.598c-1.534-1.654-1.5-2.368.18-5.4 1.762-3.15 6.1-7.628 11.24-11.572 3.854-2.964 4.74-3.446 7.4-4.037 2.324-.515 3.93-.304 5.65.745 1.054.643 1.18.874.993 1.812-.118.6-.714 1.8-1.324 2.687-1.025 1.5-1.217 1.606-2.52 1.53-.776-.045-1.4-.15-1.4-.23s.384-.604.853-1.16c.965-1.146 1.582-4.16.976-4.767-1.2-1.2-9.228 3.23-13.436 7.445-2.56 2.565-6.613 7.635-6.476 8.103.03.1-.1.458-.27.8-.55 1.03.212 2.35 1.54 2.66.654.153 1.512.243 1.907.2 2.593-.286 6.725-2.88 10.905-6.845 2.207-2.094 2.047-2.177-2.2-1.137-3.23.793-4.406.676-3.84-.38.203-.38.52-.404.685-.493.253-.08.225-.08.495-.154.188-.04 1.314-.406 2.65-.54s3.7-.476 5.252-.76l2.925-.518c.056 0 .193.238.304.528.375.978-8.003 8.198-11.618 10l-2.873 1.486c-.494.272-2.287.607-3.984.745-3.056.247-3.096.24-4.017-.754zm22.353-.33c-1.385-.753-1.898-2.02-1.714-4.233.127-1.53.44-2.3 1.5-3.707 2.273-3.027 6.803-7.684 8.588-8.83 1.067-.82 2.028-1.602 3.1-2.3.303-.204.558-.343.706-.438.153-.052.606-.207 1.2-.356 1.27-.315 5.736-.932 6.668-.636.862.273 1.512 2.17 1.507 3.226-.046 1.14-2.607 6.67-6.386 10.28-1.017.844-4.092 3.256-5.392 4.136-4.963 3.343-7.52 4.093-9.775 2.867zm5.282-2.365c.955-.404 1.897-.936 2.095-1.182s.952-.894 1.676-1.44c1.272-.9.98-.765 3.083-2.076l2.42-1.722c.65-.52 1.02-1.043 1.345-1.412.124-.152.236-.425.515-.806.77-1.782 2.3-3.7 2.156-5.695-.26-2.322-2.83-2.264-6.845.154-1.156.696-2.232 1.265-2.4 1.265s-1.737 1.45-3.505 3.222c-4.26 4.27-6.432 8.588-5.025 9.995.648.648 2.532.52 4.478-.304z"/><g transform="matrix(.091323 0 0 .091323 10.000016 4.51896)"><g stroke-miterlimit="10" class="F G H"><path d="M45.352 291c-13.378 1.876-28.958 5.754-37.066 10.684-7.337 4.463-6.374 17.6-1.154 24.1 5.5 6.862 11.974 6.495 19.78 2.905 5.123-2.357 11.293-7.6 17.667-13.492l.543-15.375.23-8.82zm384.365 6.185c-7.5-4.56-21.4-8.217-34.018-10.226l1.34 22.763.313 4.53c4.96 4.38 9.68 8.068 13.74 9.937 7.807 3.6 14.27 3.958 19.78-2.904 5.22-6.5 6.185-19.638-1.153-24.1zM55.17 564.844c-9.854 17.52 15.9 31.95 29.25 19.8 10.908-9.928 19.518-18.348 38.256-21.098-14.35-5.906-27-13.28-37.752-21.87-13.117 5.13-23.736 12.47-29.754 23.168zm298.575 15.002c11.037 14.283 38.46 1.312 30.443-17.12-5.267-12.1-15.218-22.156-27.677-28.195-8.158 7.618-17.85 14.7-29.308 20.867 12.68 6.005 18.893 14.55 26.542 24.45z" fill="#fff"/><path d="M5.048 322.396c3.333-2.397 5.688-5 11.784-8.097m416.123 3.597c-3.333-2.397-5.688-5-11.783-8.097M60.87 584.57c.9-4.95 3.6-13.275 11.7-20.476m303.48 18.866c-.026-5.03-1.304-15.266-8.866-22.195" stroke-linecap="round" fill="none"/><path d="M41.07 74.477a12.61 12.61 0 0 1 12.6-12.618c4.08 0 7.697 1.95 10 4.964 5.57-9.1 12.283-16.97 19.913-23.73-3.78-3.658-9.922-6.33-19.563-7.625-31.05-4.174-46.917 11.166-50.542 31.725-3.498 19.838 7.17 41.143 31.004 46.682 2.46-9.685 5.474-18.57 8.95-26.793-6.848-.13-12.362-5.718-12.362-12.606z" class="J"/></g><path d="M53.67 61.86c-6.96 0-12.6 5.65-12.6 12.618 0 6.888 5.514 12.477 12.362 12.605 2.48-5.866 5.2-11.4 8.112-16.638.687-1.23 1.4-2.434 2.126-3.622-2.303-3.012-5.92-4.963-10-4.963z"/><path d="M413.98 59.094c-3.625-20.56-19.492-35.9-50.54-31.725-10.765 1.447-17.166 4.6-20.8 8.945 6.867 5.93 13.257 12.745 19.272 20.518l.857 1.136c2.296-3.095 5.963-5.1 10.108-5.1 6.96 0 12.6 5.65 12.6 12.618 0 6.1-4.335 11.202-10.093 12.366 4.277 8.283 7.745 17.2 10.52 27.142 21.763-6.55 31.416-26.9 28.065-45.9z" class="F G H I J"/><path d="M385.486 65.477a12.61 12.61 0 0 0-12.6-12.618c-4.146 0-7.812 2.014-10.108 5.1 4.815 6.345 9.007 12.886 12.615 19.875 5.758-1.164 10.093-6.257 10.093-12.366z"/><g class="F G H"><path d="M362.778 57.968l-.857-1.136c-6.016-7.773-12.405-14.588-19.272-20.518-29.797-25.728-68.582-34.8-124.728-33.123-48.682 1.447-100.473 9.906-134.337 39.903-7.63 6.758-14.343 14.617-19.913 23.73a103.58 103.58 0 0 0-2.126 3.622 170.14 170.14 0 0 0-8.112 16.638c-3.476 8.224-6.5 17.108-8.95 26.793-4.767 18.77-7.463 40.533-7.462 66.257.002 45.133 8.866 67.528 8.332 110.88l-.23 8.82-.543 15.375c-1.653 53.107-1.062 105.862-1.5 142.036-.4 33.204 14.646 62.704 41.845 84.433 10.752 8.6 23.402 15.965 37.752 21.87 25.113 10.337 55.418 16.186 89.844 16.186 50.265 0 87.456-9.652 114.684-24.336 11.46-6.178 21.15-13.25 29.308-20.867 20.36-19.008 31.17-41.422 36-61.896 11.47-48.523 9.966-84.08 4.83-158.37l-.313-4.53-1.34-22.763c-1.733-37.343.064-54.317-.48-96.937-.463-36.27-3.195-63.16-9.306-85.047-2.776-9.942-6.244-18.858-10.52-27.142-3.6-6.992-7.8-13.534-12.617-19.878z" class="I J"/><ellipse cx="144.121" cy="91.595" rx="54.9" ry="53.1" fill="#fff"/></g><circle cx="115.321" cy="94.294" r="18.9"/><g fill="#fff"><circle cx="123.421" cy="98.794" r="5.4"/><ellipse cx="281.821" cy="85.294" rx="54.9" ry="53.1" class="F G H"/></g><circle cx="253.021" cy="87.995" r="18.9"/><g fill="#fff"><circle cx="261.121" cy="92.495" r="5.4"/><g stroke-miterlimit="10" class="F G H"><path d="M214.968 170.343c-10.784.188-12.4 5-21.685 6.657l-1.163 22.896c-.9 20.1 24.6 15.6 24.6 3.6v-33.132a33.4 33.4 0 0 0-1.752-.02z"/><path d="M216.72 203.495c0 12 25.5 16.5 24.6-3.6l-1.2-23.353c-11.7-.533-13.115-5.813-23.4-6.18v33.132z"/></g></g><path d="M254.674 150.297c-4.354-4.685-9.52-7.238-16.425-8.47-3.664 5.366-12.8 9.17-23.48 9.17-10.278 0-19.112-3.518-23.034-8.56-7.4 1.417-12.753 4.185-17.15 9.26-8.627 9.96-4.437 24.9 7.156 25.695 4.957.344 8.624.13 11.54-.4 9.284-1.658 10.9-6.47 21.685-6.657a33.4 33.4 0 0 1 1.752.02c10.295.366 11.72 5.646 23.4 6.18 2.312.105 5.024.026 8.3-.316 11.56-1.207 15.225-16.276 6.254-25.928z" fill="#ac967b" class="F G H I"/><path d="M214.77 150.995c10.688 0 19.814-3.803 23.48-9.17 1.107-1.622 1.722-3.385 1.722-5.23 0-7.953-11.28-14.4-25.2-14.4s-25.2 6.447-25.2 14.4c0 2.08.778 4.054 2.166 5.84 3.92 5.042 12.755 8.56 23.033 8.56z"/></g></svg>