<svg xmlns="http://www.w3.org/2000/svg" width="120" height="60"><path d="M46.728 33.77c.96 1 2.338 1.812 4.335 1.812 1.527 0 2.793-.443 3.656-1.306s1.326-2.1 1.326-3.757v-8.772a.43.43 0 0 0-.431-.431H53.3a.43.43 0 0 0-.431.431v8.63c0 1.628-.724 2.33-1.887 2.33-.858 0-1.56-.395-2.258-1.08a.43.43 0 0 0-.621.017L46.72 33.2c-.147.166-.144.417.007.58zm11.05-3.713v-.04c0-3.088 2.5-5.605 5.847-5.605s5.806 2.47 5.806 5.566v.04c0 3.088-2.5 5.605-5.847 5.605s-5.806-2.472-5.806-5.567zm8.64 0v-.04c0-1.587-1.144-2.973-2.833-2.973-1.748 0-2.793 1.347-2.793 2.934v.04c0 1.587 1.146 2.973 2.833 2.973 1.748-.002 2.793-1.348 2.793-2.935zm14.468 0v-.04c0-3.074 2.2-5.605 5.318-5.605 3.603 0 5.245 2.793 5.245 5.847l-.014.4a.43.43 0 0 1-.429.403H83.92c.302 1.386 1.266 2.1 2.632 2.1a3.39 3.39 0 0 0 2.338-.858.43.43 0 0 1 .556.01l1.144 1.012a.43.43 0 0 1 .029.619c-.986 1.047-2.34 1.674-4.1 1.674-3.234-.01-5.626-2.28-5.626-5.576zm7.595-.904c-.18-1.373-.985-2.3-2.27-2.3s-2.1.904-2.33 2.3zm4.57-4.118v9.9a.43.43 0 0 0 .431.431h2.194a.43.43 0 0 0 .431-.431v-5.572c0-1.446.9-2.54 2.076-2.54s1.68.587 1.68 2.033v6.085a.43.43 0 0 0 .431.431h2.194a.43.43 0 0 0 .431-.431V28.4c0-2.47-1.347-3.997-3.656-3.997-1.544 0-2.452.824-3.155 1.728v-1.098a.43.43 0 0 0-.431-.431H93.48a.43.43 0 0 0-.431.431zm16.2 10.52a4.56 4.56 0 0 0 2.174-.49c.145-.074.238-.223.238-.386v-1.544a.43.43 0 0 0-.568-.407 3.14 3.14 0 0 1-.94.141c-.686 0-.985-.343-.985-1.045v-4.6h2.102a.43.43 0 0 0 .431-.431V25.04a.43.43 0 0 0-.431-.431h-2.102v-2.3a.43.43 0 0 0-.431-.431h-2.194a.43.43 0 0 0-.431.431v2.323h-1.143a.43.43 0 0 0-.431.431v1.75a.43.43 0 0 0 .431.431h1.143v5.104c.002 2.5 1.268 3.234 3.136 3.234zM80.076 24.613h-2.24a.43.43 0 0 0-.41.299L75.22 31.86l-2.265-6.952a.43.43 0 0 0-.408-.293h-2.43a.43.43 0 0 0-.4.587l3.9 9.97c.182.456-.194.954-.872.954a6.94 6.94 0 0 1-1.398-.172.43.43 0 0 0-.568.407v1.544c.001.163.093.312.238.386.588.304 1.316.395 2.217.395 1.92 0 2.56-1.223 3.335-3.05l3.92-10.44a.43.43 0 0 0-.403-.58zm-55.3-11.083c-14.66 0-22 17.724-11.635 28.1s28.1 3.026 28.1-11.635c0-9.088-7.367-16.455-16.455-16.455zm10.297 18.764c0 .4-.324.724-.724.724h-6.527v6.524c0 .4-.324.724-.724.724h-4.64c-.4.007-.73-.313-.736-.713V33.03h-6.516c-.405 0-.73-.33-.724-.736v-4.627c0-.4.324-.724.724-.724h6.516v-6.527c0-.4.324-.724.724-.724h4.65c.4 0 .724.324.724.724v6.524h6.524c.4 0 .724.324.724.724z"/></svg>