<?xml version="1.0" encoding="utf-8"?>
<!-- Generator: Adobe Illustrator 24.0.0, SVG Export Plug-In . SVG Version: 6.00 Build 0)  -->
<svg version="1.1" id="Layer_1" xmlns="http://www.w3.org/2000/svg" xmlns:xlink="http://www.w3.org/1999/xlink" x="0px" y="0px"
	 viewBox="0 0 120 60" width="120" height="60" style="enable-background:new 0 0 120 60;" xml:space="preserve">
<style type="text/css">
	.st0{fill:#212529;}
	.st1{fill:#0075BC;}
	.st2{fill:#2F5A5B;}
	.st3{fill:#FEBD18;}
	.st4{fill:#E09419;}
	.st5{fill:#F7941D;}
	.st6{fill:#D5731A;}
	.st7{fill:#00B9F2;}
	.st8{fill:#1F886E;}
</style>
<g>
	<path class="st0" d="M57.3,36.3v-7.4h-1.4v4.8c0,0.6-0.1,1.2-0.2,1.6c-0.2,0.5-0.4,0.8-0.6,1.1s-0.6,0.5-0.9,0.7
		c-0.3,0.1-0.7,0.2-1.1,0.2c-0.5,0-0.9-0.1-1.2-0.2s-0.6-0.4-0.8-0.7c-0.2-0.3-0.3-0.6-0.4-1s-0.1-0.9-0.1-1.4v-5.2h-1.4v5.8
		c0,1.2,0.3,2.1,0.9,2.8c0.6,0.7,1.5,1.1,2.7,1.1c0.7,0,1.3-0.2,1.9-0.5c0.6-0.3,1-0.8,1.3-1.3h0c0,0.2,0,0.5,0,0.8
		c0,0.3,0,0.6,0.1,0.8h1.3c0-0.3,0-0.7-0.1-1.1C57.3,36.9,57.3,36.6,57.3,36.3L57.3,36.3z"/>
	<path class="st0" d="M67.2,35.2c-0.2,0.5-0.4,0.9-0.8,1.2c-0.3,0.3-0.7,0.6-1.1,0.8c-0.4,0.2-0.9,0.3-1.5,0.3
		c-0.6,0-1.1-0.1-1.5-0.3c-0.4-0.2-0.8-0.5-1.1-0.8c-0.3-0.3-0.5-0.7-0.7-1.2s-0.2-1-0.2-1.5c0-0.5,0.1-1,0.2-1.5
		c0.2-0.5,0.4-0.9,0.7-1.2c0.3-0.3,0.7-0.6,1.1-0.8c0.4-0.2,0.9-0.3,1.5-0.3c0.5,0,1,0.1,1.5,0.3c0.4,0.2,0.8,0.5,1.1,0.8
		c0.3,0.3,0.6,0.7,0.8,1.2c0.2,0.5,0.3,1,0.3,1.5C67.4,34.2,67.4,34.7,67.2,35.2L67.2,35.2z M67.3,30.6L67.3,30.6
		c-0.4-0.6-1-1.1-1.6-1.4c-0.6-0.3-1.3-0.5-2-0.5c-0.7,0-1.4,0.1-2,0.4c-0.6,0.3-1.1,0.6-1.5,1c-0.4,0.4-0.8,1-1,1.6
		c-0.2,0.6-0.4,1.3-0.4,2c0,0.7,0.1,1.4,0.4,2c0.2,0.6,0.6,1.1,1,1.6c0.4,0.4,0.9,0.8,1.5,1c0.6,0.3,1.3,0.4,2,0.4
		c0.7,0,1.4-0.2,2-0.5c0.6-0.3,1.2-0.8,1.6-1.4h0v1.6h1.4V23.1h-1.4V30.6L67.3,30.6z"/>
	<path class="st0" d="M82.1,35.1c-0.2,0.5-0.4,0.9-0.7,1.2c-0.3,0.3-0.6,0.6-1.1,0.8c-0.4,0.2-0.9,0.3-1.4,0.3c-0.5,0-1-0.1-1.4-0.3
		c-0.4-0.2-0.8-0.5-1.1-0.8c-0.3-0.3-0.5-0.7-0.7-1.2c-0.2-0.5-0.2-1-0.2-1.5c0-0.5,0.1-1,0.2-1.5c0.2-0.5,0.4-0.9,0.7-1.2
		c0.3-0.3,0.6-0.6,1.1-0.8c0.4-0.2,0.9-0.3,1.4-0.3c0.5,0,1,0.1,1.4,0.3c0.4,0.2,0.8,0.5,1.1,0.8c0.3,0.3,0.5,0.7,0.7,1.2
		c0.2,0.5,0.2,1,0.2,1.5C82.3,34.2,82.2,34.7,82.1,35.1L82.1,35.1z M82.4,30.1c-0.4-0.4-0.9-0.8-1.5-1c-0.6-0.2-1.2-0.4-1.9-0.4
		c-0.7,0-1.3,0.1-1.9,0.4c-0.6,0.2-1.1,0.6-1.5,1c-0.4,0.4-0.7,1-1,1.6c-0.2,0.6-0.4,1.3-0.4,2c0,0.7,0.1,1.4,0.4,2
		c0.2,0.6,0.6,1.1,1,1.6c0.4,0.4,0.9,0.8,1.5,1c0.6,0.2,1.2,0.4,1.9,0.4c0.7,0,1.3-0.1,1.9-0.4c0.6-0.2,1.1-0.6,1.5-1
		c0.4-0.4,0.7-1,1-1.6c0.2-0.6,0.4-1.3,0.4-2c0-0.7-0.1-1.4-0.4-2C83.1,31,82.8,30.5,82.4,30.1L82.4,30.1z"/>
	<path class="st0" d="M100,35.8L100,35.8l-2.8-6.8h-1.5l3.6,8.3l-0.8,2c-0.2,0.5-0.4,1-0.7,1.2c-0.3,0.3-0.6,0.4-1.1,0.4
		c-0.3,0-0.7-0.1-1-0.2L95.5,42c0.4,0.1,0.8,0.1,1.2,0.1c0.8,0,1.4-0.2,1.9-0.7c0.4-0.4,0.8-1,1.1-1.7l4.2-10.8h-1.5L100,35.8
		L100,35.8z"/>
	<path class="st0" d="M71.7,25.8c-0.2,0-0.5,0.1-0.7,0.3c-0.2,0.2-0.3,0.4-0.3,0.7c0,0.3,0.1,0.5,0.3,0.7c0.2,0.2,0.4,0.3,0.7,0.3
		s0.5-0.1,0.7-0.3s0.3-0.4,0.3-0.7s-0.1-0.5-0.3-0.7C72.2,25.9,72,25.8,71.7,25.8L71.7,25.8z"/>
	<path class="st0" d="M86.7,34c0-0.2-0.1-0.5-0.1-0.7c0-0.5,0.1-0.9,0.2-1.4c0.2-0.4,0.4-0.8,0.7-1.1c0.3-0.3,0.7-0.6,1.2-0.7
		c0.5-0.2,1-0.2,1.4-0.2c0.5,0.1,0.9,0.2,1.3,0.4c0.4,0.2,0.7,0.5,1,0.9c0.1,0.2,0.3,0.4,0.4,0.6L86.7,34L86.7,34z M93.4,35.4
		c-0.2,0.4-0.4,0.8-0.8,1.1c-0.3,0.3-0.7,0.6-1.2,0.7c-0.5,0.2-1,0.2-1.4,0.2c-0.5,0-0.9-0.2-1.3-0.4c-0.4-0.2-0.7-0.5-1-0.9
		c-0.2-0.3-0.4-0.6-0.6-1l4.7-1.6l1.6-0.6l1.3-0.4c0-0.1-0.1-0.2-0.1-0.3c-0.1-0.3-0.2-0.5-0.3-0.7c-0.2-0.4-0.4-0.7-0.7-1
		c-0.4-0.5-0.9-0.9-1.4-1.2c-0.5-0.3-1.1-0.4-1.8-0.5c-0.6,0-1.3,0-1.9,0.3c-0.7,0.2-1.2,0.5-1.7,1c-0.5,0.4-0.8,0.9-1.1,1.5
		c-0.3,0.6-0.4,1.2-0.4,1.8c0,0.4,0,0.8,0.1,1.2c0,0.3,0.1,0.5,0.2,0.8c0,0.1,0.1,0.2,0.1,0.3c0.2,0.5,0.5,1,0.8,1.4
		c0.4,0.5,0.9,0.9,1.4,1.2c0.5,0.3,1.1,0.4,1.8,0.5c0.6,0,1.3,0,1.9-0.3c0.7-0.2,1.2-0.6,1.7-1c0.5-0.4,0.8-0.9,1.1-1.5
		c0.1-0.3,0.2-0.6,0.3-0.9l-1.2-0.4C93.5,35,93.5,35.1,93.4,35.4L93.4,35.4z"/>
	<path class="st0" d="M106,34c0-0.2-0.1-0.5-0.1-0.7c0-0.5,0.1-0.9,0.2-1.4c0.2-0.4,0.4-0.8,0.7-1.1c0.3-0.3,0.7-0.6,1.2-0.7
		c0.5-0.2,1-0.2,1.4-0.2c0.5,0.1,0.9,0.2,1.3,0.4c0.4,0.2,0.7,0.5,1,0.9c0.1,0.2,0.3,0.4,0.4,0.6L106,34L106,34z M112.8,34.7
		c-0.1,0.4-0.1,0.4-0.2,0.7c-0.2,0.4-0.4,0.8-0.7,1.1c-0.3,0.3-0.7,0.6-1.2,0.7c-0.5,0.2-1,0.2-1.4,0.2c-0.5,0-0.9-0.2-1.3-0.4
		c-0.4-0.2-0.7-0.5-1-0.9c-0.2-0.3-0.4-0.6-0.6-1l4.7-1.6l1.6-0.6l1.3-0.4c0-0.1-0.1-0.2-0.1-0.3c-0.1-0.3-0.2-0.5-0.3-0.7
		c-0.2-0.4-0.4-0.7-0.7-1c-0.4-0.5-0.9-0.9-1.4-1.2c-0.5-0.3-1.1-0.4-1.8-0.5c-0.6,0-1.3,0-1.9,0.3c-0.7,0.2-1.2,0.5-1.7,1
		c-0.5,0.4-0.8,0.9-1.1,1.5c-0.3,0.6-0.4,1.2-0.4,1.8c0,0.4,0,0.8,0.1,1.2c0.1,0.3,0.1,0.5,0.2,0.8c0,0.1,0.1,0.2,0.1,0.3
		c0.2,0.5,0.5,1,0.8,1.4c0.4,0.5,0.9,0.9,1.4,1.2c0.5,0.3,1.1,0.4,1.8,0.5c0.6,0,1.3,0,1.9-0.3c0.7-0.2,1.2-0.6,1.7-1
		c0.5-0.4,0.8-0.9,1.1-1.5c0.1-0.3,0.2-0.6,0.3-0.9L112.8,34.7L112.8,34.7z"/>
	<path class="st0" d="M45.9,35.2c-0.2,0.5-0.4,0.9-0.8,1.2c-0.3,0.3-0.7,0.6-1.2,0.8c-0.4,0.2-0.9,0.3-1.5,0.3
		c-0.6,0-1.1-0.1-1.5-0.3s-0.8-0.5-1.1-0.8c-0.3-0.3-0.5-0.7-0.7-1.2c-0.2-0.5-0.2-1-0.2-1.5c0-0.5,0.1-1,0.2-1.5
		c0.2-0.5,0.4-0.9,0.7-1.2c0.3-0.3,0.7-0.6,1.1-0.8c0.4-0.2,0.9-0.3,1.5-0.3c0.5,0,1,0.1,1.5,0.3c0.4,0.2,0.8,0.5,1.2,0.8
		c0.3,0.3,0.6,0.7,0.8,1.2c0.2,0.5,0.3,1,0.3,1.5C46.2,34.2,46.1,34.7,45.9,35.2L45.9,35.2z M47.4,36.3v-7.4h-1.4v1.6H46
		c-0.4-0.6-0.9-1.1-1.6-1.4c-0.6-0.3-1.3-0.5-2-0.5c-0.7,0-1.4,0.1-2,0.4c-0.6,0.3-1.1,0.6-1.5,1c-0.4,0.4-0.8,1-1,1.6
		s-0.4,1.3-0.4,2s0.1,1.4,0.4,2c0.2,0.6,0.6,1.1,1,1.6c0.4,0.4,0.9,0.8,1.5,1c0.6,0.3,1.3,0.4,2,0.4c0.7,0,1.4-0.2,2-0.5
		c0.6-0.3,1.2-0.8,1.6-1.4h0v0.1c0,0,0,0,0-0.1h0.1c0,0.2,0,0.4,0,0.7c0,0.3,0,0.6,0.1,0.8h1.3c0-0.3,0-0.7-0.1-1.1
		C47.4,36.9,47.4,36.6,47.4,36.3L47.4,36.3z"/>
	<polygon class="st0" points="71,38.4 72.4,38.4 72.4,28.9 71,28.9 	"/>
	<path class="st1" d="M12.4,23.9c-1.7-0.6-3.6-0.2-5,1.1c-1.9,1.9-2,4.9-0.1,6.9c1.4,1.4,3.4,1.8,5.1,1.2
		C10.6,30.3,10.6,26.7,12.4,23.9"/>
	<path class="st2" d="M12.4,23.9L12.4,23.9c-0.9,1.3-1.3,2.9-1.3,4.4c0,1.7,0.4,3.3,1.4,4.8c0.6-0.2,1.2-0.6,1.8-1.1
		c1-0.9,1.5-2.2,1.5-3.4c0-1.2-0.4-2.5-1.4-3.5C13.8,24.6,13.1,24.2,12.4,23.9"/>
	<path class="st3" d="M14,34.6c-0.6,1.7-0.3,3.6,1,5c1.8,2,4.9,2.1,6.9,0.2c1.4-1.3,1.9-3.3,1.3-5.1C20.3,36.5,16.7,36.4,14,34.6"/>
	<path class="st4" d="M18.7,31.4c-1.2,0-2.5,0.4-3.5,1.3c-0.6,0.5-1,1.2-1.2,1.9c1.3,0.9,2.8,1.3,4.4,1.4c1.6,0.1,3.3-0.4,4.8-1.3
		c-0.2-0.6-0.6-1.3-1-1.8C21.2,32,20,31.4,18.7,31.4"/>
	<path class="st5" d="M29.8,25.2c-1.3-1.4-3.3-1.9-5.1-1.3c1.8,2.8,1.7,6.4-0.1,9.1c1.7,0.6,3.6,0.3,5-1
		C31.6,30.2,31.7,27.2,29.8,25.2"/>
	<path class="st6" d="M24.8,23.9c-0.6,0.2-1.3,0.6-1.8,1c-1,0.9-1.5,2.1-1.5,3.4c0,1.2,0.4,2.5,1.3,3.5c0.5,0.6,1.2,1,1.9,1.2
		c0.9-1.3,1.3-2.8,1.4-4.4C26.1,27,25.7,25.4,24.8,23.9L24.8,23.9"/>
	<path class="st7" d="M23.1,22.3c0.6-1.7,0.2-3.6-1.1-5c-1.9-1.9-4.9-2-6.9-0.1c-1.4,1.4-1.8,3.4-1.2,5.1
		C16.8,20.6,20.3,20.6,23.1,22.3"/>
	<path class="st8" d="M18.7,21L18.7,21c-1.7,0-3.3,0.4-4.7,1.4c0.2,0.6,0.6,1.2,1.1,1.8c0.9,1,2.2,1.5,3.4,1.5
		c1.2,0,2.5-0.4,3.5-1.4c0.6-0.6,1-1.2,1.2-1.9c0,0,0,0,0,0c0,0,0,0,0,0l0,0h0c0,0,0,0,0,0C21.7,21.5,20.2,21,18.7,21"/>
</g>
</svg>
