<svg xmlns="http://www.w3.org/2000/svg" width="64" height="64"><defs><clipPath ><path d="M755 154h74V80h-74z"/></clipPath></defs><path d="M64 32c0 17.674-14.326 32-32 32S0 49.674 0 32 14.327 0 32 0s32 14.327 32 32"/><path d="M46.087 14.18h-5.224l7.94 18.055h-3.618v4.79c.01 2.905-1.204 4.145-5.15 4.094v9.243h5.177v-9.243H46.9c1.503.04 3.538-1.18 3.566-3.553v-5.33h3.522zm-13.364 15.5a3.17 3.17 0 0 1-3.168-3.168 3.17 3.17 0 0 1 3.168-3.166 3.17 3.17 0 0 1 3.168 3.166 3.17 3.17 0 0 1-3.168 3.168m2.534-15.5H25.58c-7.94 0-14.47 5.545-14.47 13.768 0 6.914 4.16 11.852 10.375 12.795v9.618h12.933v-9.243h1.794c2.093-.205 3.517-1.592 3.538-3.536v-5.347h3.523z" fill="#fff"/></svg>