<?xml version="1.0" encoding="UTF-8" standalone="no"?>
<svg
   xmlns:dc="http://purl.org/dc/elements/1.1/"
   xmlns:cc="http://creativecommons.org/ns#"
   xmlns:rdf="http://www.w3.org/1999/02/22-rdf-syntax-ns#"
   xmlns:svg="http://www.w3.org/2000/svg"
   xmlns="http://www.w3.org/2000/svg"
   xmlns:sodipodi="http://sodipodi.sourceforge.net/DTD/sodipodi-0.dtd"
   xmlns:inkscape="http://www.inkscape.org/namespaces/inkscape"
   width="154"
   height="64"
   viewBox="0 0 154 64"
   version="1.1"
   preserveAspectRatio="xMidYMid"
   id="svg3074"
   inkscape:version="0.48.4 r9939"
   sodipodi:docname="kafka-wordmark.svg">
  <metadata
     id="metadata3084">
    <rdf:RDF>
      <cc:Work
         rdf:about="">
        <dc:format>image/svg+xml</dc:format>
        <dc:type
           rdf:resource="http://purl.org/dc/dcmitype/StillImage" />
        <dc:title></dc:title>
      </cc:Work>
    </rdf:RDF>
  </metadata>
  <defs
     id="defs3082" />
  <sodipodi:namedview
     pagecolor="#ffffff"
     bordercolor="#666666"
     borderopacity="1"
     objecttolerance="10"
     gridtolerance="10"
     guidetolerance="10"
     inkscape:pageopacity="0"
     inkscape:pageshadow="2"
     inkscape:window-width="1418"
     inkscape:window-height="953"
     id="namedview3080"
     showgrid="false"
     inkscape:zoom="4.3913796"
     inkscape:cx="105.80545"
     inkscape:cy="23.346305"
     inkscape:window-x="65"
     inkscape:window-y="24"
     inkscape:window-maximized="0"
     inkscape:current-layer="svg3074" />
  <g
     id="g3208"
     transform="matrix(2.1831187,0,0,2.1831187,-99.44286,-45.238086)">
    <path
       inkscape:connector-curvature="0"
       d="m 45.550826,23.923551 3.493336,0 0,10.851517 5.03768,-5.670287 4.188601,0 -6.081785,6.569163 6.107027,8.327102 -3.999831,0 -5.251692,-7.437997 0,7.437997 -3.493336,0 0,-20.077495"
       style="fill:#231f20;fill-opacity:1;fill-rule:nonzero;stroke:none"
       id="path3141" />
    <path
       inkscape:connector-curvature="0"
       d="m 62.328441,36.617159 c 0,1.847786 1.306022,4.53403 4.452549,4.53403 1.946961,0 3.228291,-1.032394 3.892825,-2.38526 0.347907,-0.656748 0.508141,-1.358728 0.561919,-2.089243 0.02414,-0.706727 -0.10701,-1.442044 -0.402232,-2.094661 -0.612405,-1.407199 -1.971656,-2.627387 -4.078303,-2.627387 -2.824959,0 -4.426758,2.331149 -4.426758,4.637894 l 0,0.02462 z m 12.372643,7.383887 -3.494983,0 0,-2.143075 c -0.930129,1.733256 -2.877639,2.602705 -4.931606,2.602705 -4.69345,0 -7.438841,-3.719363 -7.438841,-7.92203 0,-4.692843 3.332553,-7.893718 7.438841,-7.893718 2.666371,0 4.292314,1.437912 4.931606,2.633082 l 0,-2.173229 3.494983,0 0,14.896265"
       style="fill:#231f20;fill-opacity:1;fill-rule:nonzero;stroke:none"
       id="path3143" />
    <path
       inkscape:connector-curvature="0"
       d="m 78.656467,31.845803 -1.810323,0 0,-2.741022 1.810323,0 0,-0.839407 c 0,-4.426031 3.307309,-4.692841 5.815092,-4.72227 l 0,2.736221 c -0.88184,0 -2.320111,0 -2.320111,2.094047 l 0,0.731409 2.320111,0 0,2.741022 -2.320111,0 0,12.155243 -3.494981,0 0,-12.155243"
       style="fill:#231f20;fill-opacity:1;fill-rule:nonzero;stroke:none"
       id="path3145" />
    <path
       inkscape:connector-curvature="0"
       d="m 86.847093,23.923551 3.492238,0 0,10.851517 5.038613,-5.670287 4.188601,0 -6.081785,6.569163 6.10593,8.327102 -3.999832,0 -5.251527,-7.437997 0,7.437997 -3.492238,0 0,-20.077495"
       style="fill:#231f20;fill-opacity:1;fill-rule:nonzero;stroke:none"
       id="path3147" />
    <path
       inkscape:connector-curvature="0"
       d="m 103.62454,36.617159 c 0,1.847786 1.30548,4.53403 4.45255,4.53403 1.94422,0 3.22555,-1.032394 3.89118,-2.38526 0.349,-0.656748 0.50979,-1.358728 0.56247,-2.089243 0.0242,-0.706727 -0.10702,-1.442044 -0.40278,-2.094661 -0.61131,-1.407199 -1.97056,-2.627387 -4.07666,-2.627387 -2.82551,0 -4.42676,2.331149 -4.42676,4.637894 l 0,0.02462 z m 12.37155,7.383887 -3.49389,0 0,-2.143075 c -0.93287,1.733256 -2.87873,2.602705 -4.9316,2.602705 -4.69345,0 -7.43665,-3.719363 -7.43665,-7.92203 0,-4.692843 3.33146,-7.893718 7.43665,-7.893718 2.66472,0 4.29231,1.437912 4.9316,2.633082 l 0,-2.173229 3.49389,0 0,14.896265"
       style="fill:#231f20;fill-opacity:1;fill-rule:nonzero;stroke:none"
       id="path3149" />
  </g>
</svg>
