<?xml version="1.0" encoding="utf-8"?>
<!-- Generator: Adobe Illustrator 24.0.0, SVG Export Plug-In . SVG Version: 6.00 Build 0)  -->
<svg version="1.1" id="Layer_1" xmlns="http://www.w3.org/2000/svg" xmlns:xlink="http://www.w3.org/1999/xlink" x="0px" y="0px"
	 viewBox="0 0 64 64" width="64" height="64" style="enable-background:new 0 0 64 64;" xml:space="preserve">
<style type="text/css">
	.st0{fill:#1E5073;}
	.st1{fill:#4CA4DB;}
	.st2{fill:#3873A0;}
</style>
<g>
	<path class="st0" d="M32,43.4c-2,0-3.9,0.7-5.4,2c-0.6,0.5-1.2,1.1-1.7,1.8c-0.8,0.8-1.8,1.4-2.9,1.7c-1.4,0.4-2.9,0.3-4.2-0.3
		c-1.9-0.8-2.8-2.7-4.6-3.8C10,42.7,5.8,43.1,3,45.6c-3.6,3.2-4,8.7-0.8,12.3c1.7,1.9,4,2.9,6.5,3c2,0,3.9-0.7,5.4-2
		c0.8-0.6,1.2-1.4,2-2c0.8-0.8,1.9-1.3,3-1.5c1.5-0.4,3-0.1,4.3,0.7c1.7,0.9,2.6,2.7,4.3,3.7c3.3,1.9,7.5,1.4,10.3-1.2
		c2.6-2.5,3.5-6.2,2.2-9.6C38.8,45.6,35.6,43.4,32,43.4"/>
	<path class="st1" d="M24.4,7.4c-1.1,1.9-1.4,4.2-0.9,6.4c0.3,0.9,0.6,1.9,0.8,2.9c0.1,1.1,0,2.2-0.5,3.2c-0.8,1.4-2,2.5-3.5,3.1
		c-0.8,0.3-1.9,0.3-2.8,0.7c-1,0.3-1.9,0.8-2.6,1.4c-3.8,3-4.5,8.5-1.5,12.3s8.5,4.5,12.3,1.5c1.5-1.1,2.5-2.7,3-4.5
		c0.3-1,0.3-2.1,0.3-3.1c-0.2-1.1-0.5-2.2-0.8-3.3c-0.3-1.7,0-3.5,0.9-5c0.5-0.7,1.2-1.3,2-1.7c0.8-0.4,1.8-0.7,2.7-0.8
		c1.9-0.4,3.6-1.5,4.8-3c2.4-2.9,2.6-7,0.7-10.2C36,1.7,27.6,1.7,24.4,7.4"/>
	<path class="st2" d="M36,36.3c1,1.7,2.6,3,4.4,3.7c0.8,0.3,1.6,0.5,2.4,0.6c1,0.3,2,0.8,2.8,1.5c1.2,1,1.8,2.4,1.9,3.9
		c0.1,1.1-0.1,2.3-0.6,3.3c-1.5,4.6,1,9.5,5.5,11c0.4,0.1,0.8,0.2,1.1,0.3c3.6,0.7,7.3-1,9.3-4.2c2.4-4.1,1.1-9.4-3-11.8
		c-0.9-0.5-1.8-0.9-2.8-1.1c-1.8-0.3-3.7-1.1-4.7-2.8s-1.2-3.8-0.5-5.6c0.8-2,0.8-4.3,0-6.4c-1.7-4.5-6.7-6.8-11.2-5.1
		s-6.8,6.7-5.1,11.2C35.6,35.5,35.8,35.9,36,36.3"/>
</g>
</svg>
