<?xml version="1.0" encoding="UTF-8" standalone="no"?>
<svg
   xmlns:dc="http://purl.org/dc/elements/1.1/"
   xmlns:cc="http://creativecommons.org/ns#"
   xmlns:rdf="http://www.w3.org/1999/02/22-rdf-syntax-ns#"
   xmlns:svg="http://www.w3.org/2000/svg"
   xmlns="http://www.w3.org/2000/svg"
   xmlns:sodipodi="http://sodipodi.sourceforge.net/DTD/sodipodi-0.dtd"
   xmlns:inkscape="http://www.inkscape.org/namespaces/inkscape"
   width="64"
   height="64"
   viewBox="0 0 64 64"
   version="1.1"
   id="svg25"
   sodipodi:docname="coyotecreek-icon.svg"
   inkscape:version="0.92.3 (2405546, 2018-03-11)">
  <metadata
     id="metadata29">
    <rdf:RDF>
      <cc:Work
         rdf:about="">
        <dc:format>image/svg+xml</dc:format>
        <dc:type
           rdf:resource="http://purl.org/dc/dcmitype/StillImage" />
        <dc:title>CC_rgb logo</dc:title>
      </cc:Work>
    </rdf:RDF>
  </metadata>
  <sodipodi:namedview
     pagecolor="#ffffff"
     bordercolor="#666666"
     borderopacity="1"
     objecttolerance="10"
     gridtolerance="10"
     guidetolerance="10"
     inkscape:pageopacity="0"
     inkscape:pageshadow="2"
     inkscape:window-width="1920"
     inkscape:window-height="1001"
     id="namedview27"
     showgrid="false"
     inkscape:zoom="9.4934336"
     inkscape:cx="62.640783"
     inkscape:cy="34.484955"
     inkscape:window-x="-9"
     inkscape:window-y="-9"
     inkscape:window-maximized="1"
     inkscape:current-layer="svg25" />
  <!-- Generator: Sketch 39.1 (31720) - http://www.bohemiancoding.com/sketch -->
  <title
     id="title2">CC_rgb logo</title>
  <desc
     id="desc4">Created with Sketch.</desc>
  <defs
     id="defs6" />
  <g
     id="g907"
     transform="matrix(3.2909455,0,0,3.2909455,-19.417287,-79.916168)">
    <path
       d="m 14.810594,34.283284 c 0,2.870102 2.348687,5.205943 5.234573,5.205943 v -1.884825 c -1.872391,0 -3.396226,-1.459279 -3.396226,-3.321118 h -1.838347"
       id="Fill-4"
       inkscape:connector-curvature="0"
       style="fill:#638fba;fill-rule:evenodd;stroke:none;stroke-width:0.61537367" />
    <path
       d="m 19.964274,39.486122 c 3.112635,0 5.38324,-2.425921 5.38324,-5.487364 0,-3.047155 -2.270605,-5.473385 -5.38324,-5.473385 -3.127001,0 -5.398231,2.42623 -5.398231,5.473385 0,0.0096 0.0012,0.02019 0.0012,0.03106 -0.01499,1.955957 -1.469491,3.561226 -3.269109,3.561226 -1.8258538,0 -3.2865995,-1.622975 -3.2865995,-3.592287 0,-1.957199 1.4607457,-3.578 3.2865995,-3.578 v -1.895386 c -3.1276257,0 -5.3979187,2.426231 -5.3979187,5.473386 0,3.061442 2.270293,5.487363 5.3979187,5.487363 3.112946,0 5.152743,-2.306643 5.382302,-5.487363 h -0.0025 c 0,-1.957199 1.461371,-3.578 3.286287,-3.578 1.81055,0 3.270671,1.620801 3.270671,3.578 0,1.969312 -1.460121,3.592287 -3.270671,3.592287"
       id="Fill-14"
       inkscape:connector-curvature="0"
       style="fill:#201211;fill-rule:evenodd;stroke:none;stroke-width:0.61537367" />
  </g>
</svg>
