<svg xmlns="http://www.w3.org/2000/svg" xmlns:xlink="http://www.w3.org/1999/xlink" viewBox="665.198 -245.501 120 60" width="120" height="60"><style>#A{animation:draw 3.5s infinite}@keyframes draw{25% {transform: translate(663.25px, -129.662px);}40% {transform: translate(663.25px, -159.662px);}50% {transform: translate(663.25px, -129.662px);}65% {transform: translate(663.25px, -149.662px);}75% {transform: translate(663.25px, -129.662px);}90% {transform: translate(663.25px, -139.662px);}100% {transform: translate(663.25px, -129.662px);}}</style><g fill="#f77454"><path d="M684.028-217.366v2.626l-4.744 1.186-.678 6.862H673.1l-1.694-17.1h13l.875 3.5-5.337.34-.282 2.598z"/><use xlink:href="#B"/><path d="M713.794-220.472q1.977 0 3.403 1.666 1.426 1.666 1.426 4.334 0 2.67-.65 7.78h-4.94l-.565-6.325q-.282-3.02-1.638-3.02-1.6 0-1.722 3.05l-.198 6.297h-5.196l-.593-13.384h6.382l-.113 2.4a5.18 5.18 0 0 1 .649-.875 6.66 6.66 0 0 1 .988-.96 4.41 4.41 0 0 1 2.767-.96zm14.008 8.752q-.028 1.638 1.158 1.638a1.61 1.61 0 0 0 .82-.31l.593 2.74q-.17.14-.466.353c-.4.233-.827.417-1.27.55a6.1 6.1 0 0 1-2.019.339c-1.186.04-2.33-.44-3.134-1.313a5.06 5.06 0 0 1-1.299-3.346l-.254-5.337h-2.174l.34-3.67h1.694l-.113-2.767 6.692-1.355-.198 4.123h1.638l.34 3.67H728zm11.02-7.962l.48-.17-.96 13.158h-5.337l-.904-13.158a9.08 9.08 0 0 0 3.431.649c1.115.015 2.225-.147 3.3-.48zm14.278 8.754a3.64 3.64 0 0 1-1.073 2.682c-.68.695-1.533 1.197-2.47 1.454-.878.247-1.785.375-2.697.38a13.52 13.52 0 0 1-2.273-.17 11.58 11.58 0 0 1-1.652-.395 14.6 14.6 0 0 1-1.977-.904l-.254-.17 1.242-2.57q1.694.96 2.852.96 1.158 0 1.158-.96 0-.48-.734-.988c-.512-.352-1.044-.673-1.595-.96-.623-.343-1.167-.815-1.595-1.384a3.37 3.37 0 0 1-.734-2.146q0-2.174 1.638-3.275 1.638-1.1 4.32-1.1c.9-.001 1.778.074 2.654.226a13.31 13.31 0 0 1 1.948.452l.62.254-.706 2.852a8.19 8.19 0 0 0-2.74-.593q-1.13 0-1.13.875 0 .424.537.805a8.97 8.97 0 0 0 1.299.748q.762.367 1.525.833a4.2 4.2 0 0 1 1.3 1.27 3.21 3.21 0 0 1 .537 1.821zm9.1-.792q-.028 1.638 1.158 1.638a1.61 1.61 0 0 0 .82-.31l.593 2.74q-.17.14-.466.353c-.4.233-.827.417-1.27.55a6.1 6.1 0 0 1-2.019.339c-1.186.04-2.33-.44-3.134-1.313a5.06 5.06 0 0 1-1.299-3.346l-.254-5.337h-2.174l.34-3.67h1.694l-.113-2.767 6.692-1.355-.198 4.123h1.638l.34 3.67h-2.146z"/><use xlink:href="#B" x="80.09"/></g><path d="M733.196-221.204a2.81 2.81 0 0 1-.96-2.217 2.79 2.79 0 0 1 .946-2.202 3.46 3.46 0 0 1 2.372-.833c.874-.028 1.726.274 2.387.847a2.8 2.8 0 0 1 .96 2.202 2.8 2.8 0 0 1-.96 2.202 3.46 3.46 0 0 1-2.372.847c-.87.026-1.716-.276-2.372-.847z" id="A" fill="#f77454"/><defs><path id="B" d="M686.294-213.44q0-3.67 2.047-5.35 2.047-1.68 5.464-1.68 3.417 0 5.464 1.68 2.047 1.68 2.047 5.35 0 3.67-2.047 5.35-2.047 1.68-5.464 1.68-3.417 0-5.464-1.68-2.047-1.68-2.047-5.35zm5.986 0q0 2.23.34 3.205.34.974 1.186.974.847 0 1.186-.974.34-.974.34-3.205 0-2.23-.34-3.205-.34-.974-1.186-.975-.847 0-1.186.975-.34.975-.34 3.205z"/></defs></svg>