<svg xmlns="http://www.w3.org/2000/svg" width="64" height="64" stroke="none" stroke-linecap="round" stroke-linejoin="round" fill="#fff" fill-rule="evenodd"><path d="M32.714 56.5702q-4.714 4.714-9.428 0L4.4298 37.714q-4.714-4.714 0-9.428l18.856-18.856q4.714-4.714 9.428 0l18.856 18.856q4.714 4.714 0 9.428z" fill="#e91e63"/><path d="M34.723 55.3634q-5.2323 3.021-8.253-2.2114L14.3866 32.223q-3.0208-5.2323 2.2114-8.253l20.929-12.0833q5.2323-3.0208 8.253 2.2114l12.0833 20.929q3.021 5.2323-2.2114 8.253z" fill="#2196f3"/><path d="M62.7502 42.3834q1.402 5.232-3.8302 6.634l-20.9283 5.6077q-5.232 1.402-6.634-3.8302l-5.6077-20.9283q-1.402-5.232 3.8302-6.634l20.9283-5.6077q5.232-1.402 6.634 3.8302z" fill="#ffc107"/><path d="M57.0578 40.4577q.9706 3.6222-2.6517 4.5928l-14.489 3.8823q-3.6222.9706-4.5928-2.6517l-3.8823-14.489q-.9706-3.6222 2.6517-4.5928l14.489-3.8823q3.6222-.9706 4.5928 2.6517z" fill="#4f4f4f"/><path d="M51.3655 38.532q.5392 2.0123-1.473 2.5515l-8.0494 2.1568q-2.0123.5392-2.5515-1.473l-2.1568-8.0494q-.5392-2.0123 1.473-2.5515l8.0494-2.1568q2.0123-.5392 2.5515 1.473z" fill="#ffc107"/></svg>