<svg xmlns="http://www.w3.org/2000/svg" width="120" height="60" stroke="#000" stroke-linecap="round" stroke-linejoin="round" fill="#fff" fill-rule="evenodd" font-family="Roboto" font-size="14" text-anchor="middle"><defs><style></style></defs><text fill="#4f4f4f" font-size="24" font-weight="bold" stroke="none"><tspan x="85.5" y="38.42">nano</tspan></text><g stroke="none"><path d="M29.667 50.305q-3.683 3.683-7.366 0L7.57 35.573q-3.683-3.683 0-7.366l14.732-14.732q3.683-3.683 7.366 0L44.4 28.208q3.683 3.683 0 7.366z" fill="#e91e63"/><path d="M31.237 49.362q-4.088 2.36-6.448-1.728l-9.44-16.35q-2.36-4.088 1.728-6.448l16.35-9.44q4.088-2.36 6.448 1.728l9.44 16.35q2.36 4.088-1.728 6.448z" fill="#2196f3"/><path d="M53.133 39.22q1.095 4.088-2.992 5.183l-16.35 4.38q-4.088 1.095-5.183-2.992l-4.38-16.35q-1.095-4.088 2.992-5.183l16.35-4.38q4.088-1.095 5.183 2.992z" fill="#ffc107"/><path d="M48.686 37.717q.758 2.83-2.072 3.588l-11.32 3.033q-2.83.758-3.588-2.072l-3.033-11.32q-.758-2.83 2.072-3.588l11.32-3.033q2.83-.758 3.588 2.072z" fill="#4f4f4f"/><path d="M44.24 36.213q.42 1.572-1.15 1.993L36.8 39.89q-1.572.42-1.993-1.15l-1.685-6.29q-.42-1.572 1.15-1.993l6.29-1.685q1.572-.42 1.993 1.15z" fill="#ffc107"/></g></svg>