<?xml version="1.0" encoding="UTF-8" standalone="no"?>
<svg
   xmlns:dc="http://purl.org/dc/elements/1.1/"
   xmlns:cc="http://creativecommons.org/ns#"
   xmlns:rdf="http://www.w3.org/1999/02/22-rdf-syntax-ns#"
   xmlns:svg="http://www.w3.org/2000/svg"
   xmlns="http://www.w3.org/2000/svg"
   xmlns:sodipodi="http://sodipodi.sourceforge.net/DTD/sodipodi-0.dtd"
   xmlns:inkscape="http://www.inkscape.org/namespaces/inkscape"
   viewBox="0 0 120 60.000001"
   version="1.1"
   id="svg30"
   sodipodi:docname="bbb-ar21.svg"
   width="120"
   height="60"
   inkscape:version="0.92.2 5c3e80d, 2017-08-06">
  <metadata
     id="metadata36">
    <rdf:RDF>
      <cc:Work
         rdf:about="">
        <dc:format>image/svg+xml</dc:format>
        <dc:type
           rdf:resource="http://purl.org/dc/dcmitype/StillImage" />
        <dc:title></dc:title>
      </cc:Work>
    </rdf:RDF>
  </metadata>
  <defs
     id="defs34" />
  <sodipodi:namedview
     pagecolor="#ffffff"
     bordercolor="#666666"
     borderopacity="1"
     objecttolerance="10"
     gridtolerance="10"
     guidetolerance="10"
     inkscape:pageopacity="0"
     inkscape:pageshadow="2"
     inkscape:window-width="1440"
     inkscape:window-height="799"
     id="namedview32"
     showgrid="false"
     inkscape:zoom="3.1013564"
     inkscape:cx="106.7767"
     inkscape:cy="15.073607"
     inkscape:window-x="0"
     inkscape:window-y="1"
     inkscape:window-maximized="1"
     inkscape:current-layer="svg30" />
  <g
     id="g122"
     transform="translate(6.000004)">
    <g
       transform="matrix(0.72566065,0,0,0.72566065,2.7433935,6.2302028)"
       id="g107">
      <path
         style="fill:#136796;fill-rule:evenodd;stroke-width:0.02831346"
         d="m 27.32501,-0.9126 c -3.62413,7.5314 -16.53506,14.8363 -0.6144,26.4448 4.38858,3.256 11.75008,5.238 7.99572,12.9137 -0.3341,0.5861 0.24916,0.7475 0.77012,0.3087 5.37956,-6.229 14.12842,-16.0821 6.76126,-24.1061 C 38.04732,10.1183 29.46834,7.1454 27.7582,2.8418 27.42694,2.0093 27.7922,0.806 28.25086,-0.1453 28.61893,-1.0287 27.5232,-1.2609 27.32784,-0.9154 Z"
         id="path2"
         inkscape:connector-curvature="0" />
      <path
         style="fill:#136796;fill-rule:evenodd;stroke-width:0.02831346"
         d="m 27.52037,-0.9126 c -3.62412,7.5314 -16.53506,14.8363 -0.6144,26.4448 4.38859,3.256 11.75009,5.238 7.99572,12.9137 -0.3341,0.5861 0.24916,0.7475 0.77013,0.3087 5.37956,-6.229 14.12842,-16.0821 6.76125,-24.1061 C 38.24268,10.1183 29.6637,7.1454 27.95357,2.8418 27.6223,2.0093 27.98757,0.806 28.44622,-0.1453 28.8143,-1.0287 27.71857,-1.2609 27.5232,-0.9154 Z"
         id="path4"
         inkscape:connector-curvature="0" />
      <path
         style="fill:#136796;fill-rule:evenodd;stroke-width:0.02831346"
         d="m 19.88423,25.1556 c -1.86019,5.0681 -11.26876,10.9007 1.29109,17.628 2.91629,1.7356 6.65367,3.9072 6.25162,7.084 -0.15573,0.4049 0.20952,0.4615 0.48699,0.1331 4.13376,-4.7567 7.24824,-11.5236 2.1773,-16.0821 -2.64731,-2.5652 -8.91874,-3.9639 -9.5926,-8.344 0.15289,-0.6002 -0.52663,-0.6568 -0.61723,-0.4162 z"
         id="path6"
         inkscape:connector-curvature="0" />
      <path
         style="fill:#136796;stroke-width:0.02831346"
         inkscape:connector-curvature="0"
         id="path10"
         d="M 11.36471,51.8495 H 43.1126 v 3.8988 H 11.36471 Z" />
      <path
         style="fill:#136796;fill-rule:evenodd;stroke-width:0.02831346"
         inkscape:connector-curvature="0"
         id="path12"
         d="M 11.40152,51.7419 10,55.6803 l 2.40381,0.034 z m 31.68276,0 1.40152,3.9384 -2.40381,0.034 z m -25.02627,2.9588 2.34153,6.3677 13.76317,-0.048 2.15465,-6.3196 H 18.06084 Z" />
    </g>
    <g
       transform="translate(-12,-2.9431145)"
       id="g100">
      <path
         style="fill:#136796;stroke-width:0.02831346"
         inkscape:connector-curvature="0"
         id="path14"
         d="M 57.962918,23.527473 H 62.15331 V 42.361587 H 57.962918 Z" />
      <path
         style="fill:#136796;fill-rule:evenodd;stroke-width:0.02831346"
         inkscape:connector-curvature="0"
         id="path16"
         d="m 62.093851,23.524642 6.786737,0.05946 c 3.369302,-0.0906 5.945826,5.917513 1.594048,9.145248 5.804259,1.622361 3.709063,9.485009 -0.942839,9.499165 l -7.494573,0.118917 -1.061754,-3.423097 7.140654,0.05946 c 2.262246,0.06512 2.406644,-4.50184 0.05946,-4.54431 l -6.548904,0.118916 -0.178374,-3.539182 h 5.841066 c 2.661466,0.110422 1.834713,-4.133766 0.05946,-4.130934 l -5.841067,-0.118917 -0.58892,-2.655802 1.180671,-0.58892 z" />
      <path
         style="fill:#136796;stroke-width:0.02831346"
         inkscape:connector-curvature="0"
         id="path18"
         d="m 76.05805,23.527473 h 4.190392 V 42.361587 H 76.05805 Z" />
      <path
         style="fill:#136796;fill-rule:evenodd;stroke-width:0.02831346"
         inkscape:connector-curvature="0"
         id="path20"
         d="m 80.188984,23.524642 6.786736,0.05946 c 3.369302,-0.0906 5.945827,5.917513 1.594048,9.145248 5.804259,1.622361 3.709063,9.485009 -0.942838,9.499165 l -7.494573,0.118917 -1.061755,-3.423097 7.140655,0.05946 c 2.262245,0.06512 2.406644,-4.50184 0.05946,-4.54431 l -6.548903,0.118916 -0.178375,-3.539182 h 5.841067 c 2.661465,0.110422 1.834712,-4.133766 0.05946,-4.130934 l -5.841067,-0.118917 -0.58892,-2.655802 1.180671,-0.58892 z" />
      <path
         style="fill:#136796;stroke-width:0.02831346"
         inkscape:connector-curvature="0"
         id="path22"
         d="m 93.957819,23.527473 h 4.190392 v 18.834114 h -4.190392 z" />
      <path
         style="fill:#136796;fill-rule:evenodd;stroke-width:0.02831346"
         inkscape:connector-curvature="0"
         id="path24"
         d="m 98.088753,23.524642 6.786737,0.05946 c 3.3693,-0.0906 5.94583,5.917513 1.59405,9.145248 5.80426,1.622361 3.70906,9.485009 -0.94284,9.499165 l -7.494574,0.118917 -1.061755,-3.423097 7.140659,0.05946 c 2.26224,0.06512 2.40664,-4.50184 0.0594,-4.54431 l -6.548899,0.118916 -0.178375,-3.539182 h 5.841064 c 2.66147,0.110422 1.83472,-4.133766 0.0595,-4.130934 l -5.841066,-0.118917 -0.588919,-2.655802 1.180671,-0.58892 z" />
    </g>
  </g>
</svg>
