<?xml version="1.0" encoding="UTF-8" standalone="no"?>
<!-- Generator: Adobe Illustrator 17.0.2, SVG Export Plug-In . SVG Version: 6.00 Build 0)  -->

<svg
   xmlns:dc="http://purl.org/dc/elements/1.1/"
   xmlns:cc="http://creativecommons.org/ns#"
   xmlns:rdf="http://www.w3.org/1999/02/22-rdf-syntax-ns#"
   xmlns:svg="http://www.w3.org/2000/svg"
   xmlns="http://www.w3.org/2000/svg"
   xmlns:sodipodi="http://sodipodi.sourceforge.net/DTD/sodipodi-0.dtd"
   xmlns:inkscape="http://www.inkscape.org/namespaces/inkscape"
   id="Comp"
   xml:space="preserve"
   height="60"
   viewBox="0 0 120 60"
   width="120"
   version="1.1"
   y="0px"
   x="0px"
   sodipodi:docname="canonical-ar21.svg"
   inkscape:version="0.92.3 (2405546, 2018-03-11)"><metadata
   id="metadata29"><rdf:RDF><cc:Work
       rdf:about=""><dc:format>image/svg+xml</dc:format><dc:type
         rdf:resource="http://purl.org/dc/dcmitype/StillImage" /><dc:title></dc:title></cc:Work></rdf:RDF></metadata><defs
   id="defs27" /><sodipodi:namedview
   pagecolor="#ffffff"
   bordercolor="#666666"
   borderopacity="1"
   objecttolerance="10"
   gridtolerance="10"
   guidetolerance="10"
   inkscape:pageopacity="0"
   inkscape:pageshadow="2"
   inkscape:window-width="1920"
   inkscape:window-height="1001"
   id="namedview25"
   showgrid="false"
   inkscape:zoom="5.65"
   inkscape:cx="53.494043"
   inkscape:cy="4.4290607"
   inkscape:window-x="-9"
   inkscape:window-y="-9"
   inkscape:window-maximized="1"
   inkscape:current-layer="Comp" />
<g
   id="g847"
   transform="matrix(0.20833333,0,0,0.20833333,10.000001,24.270833)"><g
     transform="translate(0,-5)"
     style="fill:#772953"
     id="g22">
	<path
   inkscape:connector-curvature="0"
   id="path2"
   d="m 28.216,63.831 c -4.213,0 -8.049,-0.692 -11.511,-2.077 C 13.243,60.369 10.27,58.335 7.791,55.652 5.309,52.969 3.39,49.695 2.035,45.828 0.678,41.964 0,37.52 0,32.5 0,27.48 0.75,23.023 2.25,19.128 3.749,15.234 5.798,11.959 8.395,9.305 10.991,6.652 13.991,4.631 17.396,3.246 20.8,1.863 24.407,1.17 28.215,1.17 c 2.596,0 4.919,0.172 6.967,0.519 2.048,0.346 3.822,0.75 5.323,1.211 1.499,0.462 2.711,0.924 3.635,1.385 0.923,0.462 1.558,0.808 1.905,1.038 l -2.511,6.925 C 43.015,11.901 42.265,11.527 41.284,11.123 40.302,10.72 39.164,10.316 37.865,9.911 36.566,9.509 35.139,9.176 33.581,8.916 32.024,8.657 30.379,8.527 28.648,8.527 c -2.943,0 -5.626,0.549 -8.049,1.645 -2.424,1.097 -4.501,2.683 -6.232,4.76 -1.731,2.078 -3.072,4.602 -4.024,7.573 -0.952,2.972 -1.428,6.305 -1.428,9.996 0,3.579 0.418,6.838 1.255,9.781 0.835,2.943 2.105,5.467 3.808,7.573 1.701,2.107 3.808,3.736 6.318,4.89 2.511,1.155 5.466,1.731 8.872,1.731 3.808,0 6.967,-0.404 9.477,-1.212 2.511,-0.807 4.399,-1.528 5.669,-2.164 l 2.164,6.924 c -0.404,0.289 -1.125,0.649 -2.164,1.082 -1.039,0.433 -2.337,0.853 -3.895,1.254 -1.557,0.404 -3.375,0.75 -5.453,1.04 -2.077,0.287 -4.327,0.431 -6.75,0.431 z" />
	<path
   inkscape:connector-curvature="0"
   id="path4"
   d="m 81.529,2.554 c 2.077,4.328 4.068,8.698 5.972,13.112 1.904,4.414 3.822,9.044 5.755,13.891 1.933,4.847 3.908,9.969 5.929,15.363 2.019,5.396 4.182,11.267 6.491,17.613 H 96.502 C 95.52,59.937 94.598,57.37 93.732,54.831 92.866,52.292 91.971,49.725 91.049,47.128 h -27.18 l -5.453,15.406 h -8.742 c 2.307,-6.346 4.471,-12.217 6.491,-17.613 2.019,-5.394 3.995,-10.515 5.929,-15.363 1.933,-4.847 3.851,-9.477 5.755,-13.891 1.904,-4.415 3.895,-8.785 5.972,-13.112 l 7.704,-0.001 z m -4.067,9.607 c -2.02,4.328 -3.937,8.828 -5.756,13.502 -1.817,4.673 -3.621,9.551 -5.409,14.627 h 22.33 C 86.78,35.271 84.949,30.409 83.131,25.706 81.313,21.004 79.422,16.488 77.462,12.161 Z" />
	<path
   inkscape:connector-curvature="0"
   id="path6"
   d="m 155.27,62.533 c -1.27,-2.134 -2.726,-4.529 -4.371,-7.184 -1.645,-2.653 -3.419,-5.409 -5.324,-8.266 -1.904,-2.855 -3.88,-5.755 -5.929,-8.698 -2.048,-2.943 -4.082,-5.785 -6.102,-8.526 -2.02,-2.741 -3.981,-5.324 -5.885,-7.747 -1.904,-2.423 -3.666,-4.558 -5.279,-6.405 V 62.53 h -8.222 V 2.554 h 6.664 c 2.712,2.885 5.611,6.246 8.698,10.083 3.086,3.838 6.145,7.789 9.174,11.857 3.029,4.068 5.885,8.064 8.568,11.988 2.683,3.925 4.947,7.415 6.795,10.472 v -44.4 h 8.222 v 59.978 l -7.01,0.001 z" />
	<path
   inkscape:connector-curvature="0"
   id="path8"
   d="m 286.3,62.533 c -1.271,-2.134 -2.726,-4.529 -4.371,-7.184 -1.645,-2.653 -3.419,-5.409 -5.323,-8.266 -1.905,-2.855 -3.881,-5.755 -5.929,-8.698 -2.049,-2.943 -4.083,-5.785 -6.102,-8.526 -2.019,-2.74 -3.981,-5.324 -5.885,-7.747 -1.904,-2.423 -3.665,-4.558 -5.279,-6.405 V 62.53 h -8.222 V 2.554 h 6.664 c 2.713,2.885 5.612,6.246 8.699,10.083 3.087,3.838 6.145,7.789 9.174,11.857 3.029,4.067 5.885,8.064 8.568,11.988 2.683,3.925 4.947,7.415 6.795,10.472 v -44.4 h 8.222 v 59.978 l -7.02,0.001 z" />
	<path
   inkscape:connector-curvature="0"
   id="path10"
   d="m 308.55,2.554 h 8.396 v 59.978 h -8.396 z" />
	<path
   inkscape:connector-curvature="0"
   id="path12"
   d="m 357.97,63.831 c -4.213,0 -8.049,-0.692 -11.512,-2.077 -3.461,-1.385 -6.435,-3.419 -8.914,-6.102 -2.482,-2.683 -4.402,-5.957 -5.756,-9.824 -1.355,-3.865 -2.034,-8.309 -2.034,-13.329 0,-5.02 0.75,-9.477 2.25,-13.372 1.5,-3.894 3.549,-7.169 6.145,-9.823 2.596,-2.653 5.597,-4.674 9.001,-6.059 3.404,-1.383 7.011,-2.076 10.819,-2.076 2.596,0 4.918,0.172 6.967,0.519 2.048,0.346 3.822,0.75 5.323,1.211 1.5,0.462 2.711,0.924 3.635,1.385 0.921,0.462 1.558,0.808 1.904,1.038 l -2.509,6.925 c -0.519,-0.347 -1.271,-0.721 -2.251,-1.125 -0.982,-0.403 -2.12,-0.807 -3.418,-1.212 -1.298,-0.402 -2.726,-0.735 -4.284,-0.995 -1.558,-0.259 -3.202,-0.389 -4.933,-0.389 -2.942,0 -5.626,0.549 -8.049,1.645 -2.424,1.097 -4.5,2.683 -6.232,4.76 -1.731,2.078 -3.073,4.602 -4.024,7.573 -0.952,2.972 -1.429,6.305 -1.429,9.996 0,3.579 0.418,6.838 1.254,9.781 0.836,2.943 2.106,5.467 3.808,7.573 1.701,2.107 3.808,3.736 6.318,4.89 2.511,1.155 5.467,1.731 8.872,1.731 3.808,0 6.967,-0.404 9.478,-1.212 2.509,-0.807 4.399,-1.528 5.668,-2.164 l 2.164,6.924 c -0.405,0.289 -1.125,0.649 -2.164,1.082 -1.039,0.433 -2.336,0.853 -3.894,1.254 -1.558,0.404 -3.375,0.75 -5.453,1.04 -2.1,0.288 -4.35,0.432 -6.77,0.432 z" />
	<path
   inkscape:connector-curvature="0"
   id="path14"
   d="m 411.28,2.554 c 2.077,4.328 4.068,8.698 5.973,13.112 1.904,4.414 3.822,9.044 5.754,13.891 1.933,4.847 3.909,9.969 5.93,15.363 2.018,5.396 4.182,11.267 6.491,17.613 h -9.175 c -0.982,-2.596 -1.904,-5.163 -2.77,-7.702 -0.866,-2.539 -1.76,-5.106 -2.683,-7.703 h -27.176 l -5.454,15.406 h -8.741 c 2.307,-6.346 4.47,-12.217 6.491,-17.613 2.019,-5.394 3.995,-10.515 5.929,-15.363 1.933,-4.847 3.851,-9.477 5.756,-13.891 1.904,-4.415 3.894,-8.785 5.972,-13.112 l 7.71,-0.001 z m -4.07,9.607 c -2.02,4.328 -3.939,8.828 -5.756,13.502 -1.817,4.673 -3.622,9.551 -5.409,14.627 h 22.33 c -1.848,-5.019 -3.678,-9.881 -5.497,-14.584 -1.81,-4.702 -3.7,-9.218 -5.66,-13.545 z" />
	<path
   inkscape:connector-curvature="0"
   id="path16"
   d="m 480,55.522 v 7.011 H 443.909 V 2.554 h 8.396 v 52.968 h 27.69 z" />
	<path
   inkscape:connector-curvature="0"
   id="path18"
   d="m 203.74,52.45 c -11.018,0 -19.95,-8.929 -19.95,-19.95 0,-11.019 8.932,-19.949 19.95,-19.949 11.019,0 19.95,8.931 19.95,19.949 0,11.021 -8.93,19.95 -19.95,19.95 z" />
	<path
   inkscape:connector-curvature="0"
   id="path20"
   d="m 235.07,32.501 c 0,17.303 -14.028,31.33 -31.331,31.33 -17.304,0 -31.331,-14.028 -31.331,-31.33 0,-17.304 14.026,-31.331 31.331,-31.331 17.3,0 31.33,14.027 31.33,31.331 z M 203.74,8.791 c -13.095,0 -23.709,10.616 -23.709,23.71 0,13.096 10.614,23.709 23.709,23.709 13.095,0 23.709,-10.613 23.709,-23.709 0,-13.095 -10.62,-23.71 -23.71,-23.71 z" />
</g></g>
</svg>