<svg xmlns="http://www.w3.org/2000/svg" width="120" height="60"><path d="M19.404 30.906L10.58 17.98v11.066l5.008 7.393 3.816-5.533" fill="#1a1918"/><path d="M19.404 30.906l3.768 5.58 5.008-7.298V17.98l-8.776 12.926" fill="#ed9d4a"/><path d="M19.356 30.906l-3.768 5.533 3.768 5.533 3.768-5.533-3.768-5.533" fill="#ba7730"/><path d="M4.33 42.02h6.248V29.094L4.33 19.888V42.02" fill="#4cb2d4"/><path d="M4.33 17.98v1.908l6.248 9.158V17.98H4.33" fill="#1c82ad"/><path d="M28.18 29.19v12.83h6.248V20.03L28.18 29.19" fill="#c02439"/><path d="M34.428 17.98H28.18v11.16l6.248-9.158V17.98" fill="#8f212f"/><path d="M44.8 30.25l-2.954-4.342h-2.064v8.043h2.1v-4.306l2.954 4.342 1.28-1.85L47.8 29.68v4.306h2.1v-8.078h-2.1l-3 4.342m13.595.355H56.52l.96-2.8zm.427-4.697h-2.67l-2.883 8.15h2.17l.57-1.708h2.847l.605 1.708h2.17l-.036-.107zm11.778.072v4.9l-3.203-4.982h-2.313v8.15h2.064v-4.982l3.238 5.053h2.278V25.9H70.6v.07m8.542 6.263h-.854v-4.52h.747c.818 0 1.423.178 1.815.534s.605.925.605 1.744c0 .783-.214 1.352-.605 1.708s-.96.534-1.708.534zm3.345-5.23a3.74 3.74 0 0 0-1.423-.818c-.57-.178-1.174-.285-1.886-.285H76.1v8.15h2.954c.747 0 1.388-.107 1.957-.285s1.068-.463 1.46-.818.676-.783.9-1.317c.214-.498.32-1.068.32-1.708 0-.605-.107-1.14-.285-1.637-.214-.498-.498-.925-.9-1.28zm7.697 2.747l-.925.036v-2.1h.783c.498 0 .854.07 1.068.25s.356.4.356.712c0 .356-.107.64-.32.783-.214.178-.534.285-.96.32zm3.096.214c.285-.4.427-.9.427-1.46 0-.783-.285-1.423-.854-1.922-.57-.463-1.388-.712-2.455-.712h-3.274v8.15h2.206v-2.598l.818-.07 1.6 2.67h2.5l-2.064-3.203c.427-.178.818-.463 1.103-.854zm4.34 4.093h2.17v-8.15h-2.17zm7.795-8.15h-2.206v8.15h5.552v-1.85h-3.345v-6.3m8.967 6.298v-6.263h-2.206v8.15h5.552v-1.85h-3.345" fill="#313131"/></svg>