<?xml version="1.0" encoding="UTF-8" standalone="no"?>
<!-- Generator: Adobe Illustrator 16.0.4, SVG Export Plug-In . SVG Version: 6.00 Build 0)  -->

<svg
   xmlns:dc="http://purl.org/dc/elements/1.1/"
   xmlns:cc="http://creativecommons.org/ns#"
   xmlns:rdf="http://www.w3.org/1999/02/22-rdf-syntax-ns#"
   xmlns:svg="http://www.w3.org/2000/svg"
   xmlns="http://www.w3.org/2000/svg"
   xmlns:sodipodi="http://sodipodi.sourceforge.net/DTD/sodipodi-0.dtd"
   xmlns:inkscape="http://www.inkscape.org/namespaces/inkscape"
   version="1.1"
   id="Layer_1"
   x="0px"
   y="0px"
   width="120"
   height="60"
   viewBox="0 0 119.99999 60.000001"
   enable-background="new 0 0 643.004 278.068"
   xml:space="preserve"
   sodipodi:docname="meteor-ar21.svg"
   inkscape:version="0.92.3 (2405546, 2018-03-11)"><metadata
   id="metadata37"><rdf:RDF><cc:Work
       rdf:about=""><dc:format>image/svg+xml</dc:format><dc:type
         rdf:resource="http://purl.org/dc/dcmitype/StillImage" /><dc:title></dc:title></cc:Work></rdf:RDF></metadata><defs
   id="defs35" /><sodipodi:namedview
   pagecolor="#ffffff"
   bordercolor="#666666"
   borderopacity="1"
   objecttolerance="10"
   gridtolerance="10"
   guidetolerance="10"
   inkscape:pageopacity="0"
   inkscape:pageshadow="2"
   inkscape:window-width="1920"
   inkscape:window-height="1001"
   id="namedview33"
   showgrid="false"
   inkscape:zoom="2.9823664"
   inkscape:cx="85.370726"
   inkscape:cy="20.689119"
   inkscape:window-x="-9"
   inkscape:window-y="-9"
   inkscape:window-maximized="1"
   inkscape:current-layer="Layer_1" />
<g
   id="Layer_1_2_"
   transform="translate(0,-218.06799)">
</g>
<g
   id="logo-coralspace"
   transform="matrix(0.1769258,0,0,0.1769258,3.1180014,6.4097177)">
	<g
   id="g29">
		<g
   id="g17">
			<path
   d="M 518.236,175.453 388.867,37.981 526.338,167.35 c 2.305,2.169 2.416,5.796 0.246,8.103 -2.17,2.305 -5.795,2.415 -8.104,0.245 -0.078,-0.075 -0.168,-0.166 -0.244,-0.245"
   id="path3"
   inkscape:connector-curvature="0"
   style="fill:#de4f4f" />
			<path
   d="m 499.221,185.148 -97.547,-105.65 105.651,97.549 c 2.326,2.147 2.471,5.774 0.322,8.103 -2.146,2.326 -5.775,2.472 -8.102,0.321 -0.109,-0.101 -0.223,-0.215 -0.324,-0.323"
   id="path5"
   inkscape:connector-curvature="0"
   style="fill:#de4f4f" />
			<path
   d="m 479.455,185.432 -64.827,-70.228 70.227,64.826 c 1.553,1.432 1.648,3.851 0.217,5.401 -1.432,1.55 -3.852,1.647 -5.4,0.217 -0.074,-0.068 -0.151,-0.144 -0.217,-0.216"
   id="path7"
   inkscape:connector-curvature="0"
   style="fill:#de4f4f" />
			<path
   d="m 533.771,136.825 -67.68,-73.083 73.08,67.682 c 1.549,1.435 1.643,3.854 0.207,5.401 -1.436,1.547 -3.852,1.641 -5.4,0.206 -0.07,-0.063 -0.142,-0.138 -0.207,-0.206"
   id="path9"
   inkscape:connector-curvature="0"
   style="fill:#de4f4f" />
			<path
   d="M 527.932,157.286 429.96,51.213 536.033,149.185 c 2.326,2.147 2.471,5.773 0.322,8.102 -2.146,2.326 -5.775,2.47 -8.102,0.32 -0.11,-0.1 -0.222,-0.214 -0.321,-0.321"
   id="path11"
   inkscape:connector-curvature="0"
   style="fill:#de4f4f" />
			<path
   d="m 459.246,179.677 -30.84,-33.54 33.54,30.841 c 0.777,0.715 0.828,1.924 0.115,2.699 -0.715,0.777 -1.924,0.827 -2.701,0.114 -0.039,-0.037 -0.078,-0.076 -0.114,-0.114"
   id="path13"
   inkscape:connector-curvature="0"
   style="fill:#de4f4f" />
			<path
   d="m 531.352,112.544 -30.838,-33.541 33.539,30.84 c 0.777,0.717 0.828,1.925 0.113,2.701 -0.715,0.777 -1.924,0.827 -2.701,0.114 -0.037,-0.037 -0.078,-0.077 -0.113,-0.114"
   id="path15"
   inkscape:connector-curvature="0"
   style="fill:#de4f4f" />
		</g>
		<polygon
   points="92.668,185.385 72.544,185.385 72.544,124.885 46.464,164.467 45.937,164.467 20.121,125.282 20.121,185.385 0,185.385 0,92.715 21.975,92.715 46.333,131.9 70.692,92.715 92.668,92.715 "
   id="polygon19"
   style="fill:#333333" />
		<polygon
   points="191.45,147.787 147.763,147.787 147.763,167.247 198.067,167.247 198.067,185.385 127.64,185.385 127.64,92.715 197.407,92.715 197.407,110.851 147.763,110.851 147.763,129.65 191.45,129.65 "
   id="polygon21"
   style="fill:#333333" />
		<polygon
   points="222.958,92.715 299.739,92.715 299.739,111.512 271.541,111.512 271.541,185.384 251.154,185.384 251.154,111.512 222.958,111.512 "
   id="polygon23"
   style="fill:#333333" />
		<polygon
   points="392.407,147.787 348.72,147.787 348.72,167.247 399.025,167.247 399.025,185.385 328.597,185.385 328.597,92.715 398.363,92.715 398.363,110.851 348.72,110.851 348.72,129.65 392.407,129.65 "
   id="polygon25"
   style="fill:#333333" />
		<path
   d="m 562.914,92.715 h 42.359 c 11.738,0 20.74,3.135 27.006,9.399 5.299,5.295 7.943,12.356 7.943,21.181 v 0.267 c 0,7.503 -1.832,13.613 -5.492,18.336 -3.664,4.723 -8.453,8.186 -14.365,10.393 l 22.639,33.095 h -23.828 l -19.857,-29.652 h -0.264 -15.756 v 29.651 h -20.385 z m 41.039,45.011 c 5.029,0 8.889,-1.192 11.582,-3.574 2.691,-2.384 4.037,-5.562 4.037,-9.533 v -0.265 c 0,-4.412 -1.414,-7.722 -4.238,-9.93 -2.824,-2.205 -6.75,-3.31 -11.779,-3.31 h -20.256 v 26.611 h 20.654 z"
   id="path27"
   inkscape:connector-curvature="0"
   style="fill:#333333" />
	</g>
</g>
</svg>