<svg xmlns="http://www.w3.org/2000/svg" width="120" height="60"><defs><linearGradient id="A" gradientUnits="userSpaceOnUse" x1="41.687" y1="24.076" x2="28.682" y2="37.352"><stop offset="0" stop-color="#fff"/><stop offset="1" stop-color="#040706"/></linearGradient></defs><g transform="translate(.835)"><g transform="matrix(.916268 0 0 .916268 8.937267 -.582685)"><g transform="matrix(.425753 0 0 .425753 10.862832 9.854576)"><g fill="#040706"><path d="M164.6 72.5h-9.5V35.3h9.5zm40.2-37v8.4h-24.9v28.6h-9.5V35.9c0-9.9 5.9-17.2 16.6-16v8.9c-4.5-.4-7 1.5-7.1 6.6h24.9z"/><path d="M209.1 35.5v8.4h-6.7v28.6h-9.5V35.9c0-9.9 5.9-17.2 16.6-16v8.9c-4.5-.4-7 1.5-7.1 6.6h6.7zM245.5 74c0 10-6.6 16.7-16.5 16.7-8.2 0-14.9-5.3-16.2-13h9.9c.6 2.7 3 4.1 6.3 4.1 5.2 0 7-3.7 7-7.1v-4.3c-2.2 1.9-5.1 3-8.5 3-9.1 0-15.1-6.6-15.1-16.3V35.3h9.5V57c0 2.1.7 7.3 6.9 7.3 4.3 0 7.2-3.1 7.2-7.3V35.3h9.5zM140.1 19.7h9.6v53.1h-9.6z"/></g><circle cx="159.9" cy="26.5" r="5.8" fill="#4775b8"/></g><path d="M68.5 39.955c0 5.237-3.15 8.558-8.217 8.558-3.8 0-7.067-2.17-7.664-5.535h4.47c.5 1.277 2.13 1.746 3.236 1.746 2.853 0 4.13-1.873 4.13-4.683v-.8c-1.235 1.15-2.8 1.83-4.683 1.83-4.13 0-7.536-3.576-7.536-8.217 0-4.683 3.406-8.26 7.536-8.26 1.916 0 3.576.724 4.854 2.044v-1.703H68.5zm-8.132-11.623c-2.256 0-4.045 1.958-4.045 4.556 0 2.512 1.83 4.47 4.045 4.47 2.256 0 4.045-2 4.045-4.47.043-2.512-1.788-4.556-4.045-4.556z" fill="#040706"/></g><path d="M27.923 53.6L3.67 29.335l1.33-.7L27.977 16.4 52.23 29.335zm0-5.85L48.56 29.335l-20.637-11.86-20.637 11.86z" fill="#040706"/><path d="M37.856 28.928l2.086 1.5-.085-6.6-7.536 1.15 1.533 1.064c-2.427 2.342-4.045 5.8-4.854 9.494-.64 2.853-.724 8.728-.34 9.92l1.362 1.916.596-.5c-.085-1.235.085-2.64.085-2.64l.043-.043c-.553-6.173 2.597-11.75 7.1-15.242z" opacity=".4" fill="url(#A)" transform="matrix(1.249295 0 0 1.249295 -9.901751 -5.90066)"/><path d="M37.23 16.57l4.734 2.5-2.5-12.66-14.68 3.617 3.404 1.808c-4.042 4.947-6.064 11.914-6.383 19.2-.266 5.585 1.65 16.86 2.766 19.095l3.404 3.404 1-1.064c-.585-2.394-.745-5.053-.745-5.053s-1.915-19.946 9-30.85z" fill="#4775b8"/></g></svg>