<svg xmlns="http://www.w3.org/2000/svg" width="64" height="64" viewBox="88.1 95.5 32 32"><path d="M224.867-203.272l-138.7 20.7 5.1 34.7 4.6-8.6 1.7-3.3-2.4-16.1 123-18.4 5.1 34.3h8.1zm-118 159.5l138.7-20.8-3.4-23.2h-8.1l2.5 16.5-123 18.4-6.7-45h-8.1z" fill="#e00034"/><path d="M110.467-134.672l9.2 17.5h-18.5zm-8.7-18.7l-31.1 59h18.6l5.3-10.1h31.8l5.3 10.1h18.6l-31.1-59zm220.7 21.3c0 4.3-3.2 7-8.8 7h-17.1v-14.1h17.1c5.5 0 8.8 2.4 8.8 7zm16.4-1v-.2c0-5.8-1.8-10.3-5.2-13.7-4-4-10.2-6.4-19.2-6.4h-34.3v59h16.4v-17.9h13.6l12 17.9h18.9l-14.2-20.6c7.2-3.1 12-9.1 12-18.1m35 5.4l-14.9-25.7h-18.6l24.1 41.8-9.9 17.2h18.6l34.1-59h-18.6zm-105.7 33.3v-13.9h-37v-9.4h28.2v-12.9h-28.2v-8.9h36.6v-13.9h-52.7v59zm-132.5-59l30 59h15.3l30-59h-18.9l-18.7 36.9-18.8-36.9z" fill="#0039a6"/><g fill="#e00034"><path d="M115.616 104.187h1.625l-1.304-8.687L88.1 99.653l1.023 6.962.923-1.725.34-.662-.482-3.23 24.677-3.692zm-23.353 12.46h-1.625l1.625 10.854 27.827-4.173-.682-4.655h-1.625l.502 3.3-24.677 3.692z"/><path d="M89.916 100.997l3.692 24.677-1.344 1.826L88.1 99.653zm26.02-5.497l4.153 27.827-1.806-1.344-3.692-24.677z"/></g></svg>