<svg xmlns="http://www.w3.org/2000/svg" width="120" height="60"><defs><linearGradient x1="2076.977" y1="744.157" x2="2076.977" y2="687.495" gradientUnits="userSpaceOnUse" spreadMethod="pad" id="A"><stop offset="0" stop-color="#faa21b"/><stop offset="1" stop-color="#f15623"/></linearGradient><linearGradient x1="2115.312" y1="771.343" x2="2115.312" y2="683.295" gradientUnits="userSpaceOnUse" spreadMethod="pad" id="B"><stop offset="0" stop-color="#faa21b"/><stop offset="1" stop-color="#f15623"/></linearGradient></defs><g transform="matrix(1.25 0 0 -1.25 -2448.6946 909.20022)"><path d="M2009.137 722.497c-.585-.226-.74-.46-.746-.91V696.98c.012-.474.374-.87.837-.916.02-.001 21.35-.012 21.49-.012 4.282 0 7.752 3.47 7.752 7.753s-3.47 7.752-7.752 7.752a7.76 7.76 0 0 1-2.998-.601c-.617 6.986-6.475 12.467-13.623 12.467a13.83 13.83 0 0 1-4.959-.928m-3.184-1.74l-.35-17.464.35-6.338c.012-.463.39-.844.854-.844a.86.86 0 0 1 .853.851v-.006l.38 6.338-.38 17.466c-.012.467-.39.85-.853.85s-.85-.384-.854-.853m-2.593-1.45l-.3-16.007c0-.01.3-6.436.3-6.436.012-.435.366-.793.8-.793a.81.81 0 0 1 .801.796v-.004.004l.337 6.427-.337 16.014c-.012.438-.367.795-.8.795a.81.81 0 0 1-.8-.796m-7.754-1.678l-.397-14.33.398-6.58c.01-.352.3-.63.638-.63s.627.28.638.633h0v.003l.447 6.575-.447 14.33c-.012.357-.292.635-.638.635s-.63-.278-.64-.635m2.564-.367l-.364-13.965.365-6.515c.012-.383.312-.686.693-.686s.68.304.692.69v-.004l.4 6.516-.4 13.965c-.012.387-.314.69-.692.69s-.685-.304-.694-.69m-5.107-.1l-.43-13.863.43-6.62a.59.59 0 0 1 .585-.577c.315 0 .572.253.585.58l.484 6.617-.484 13.864c-.013.325-.27.58-.585.58a.59.59 0 0 1-.585-.58m7.692-.412l-.334-13.454.334-6.475c.012-.413.337-.738.747-.738s.736.325.745.742v-.005l.374 6.475-.374 13.456a.75.75 0 0 1-.745.743c-.4 0-.74-.327-.747-.744m-10.216-.654c0-.001-.46-12.795-.46-12.795l.46-6.688a.54.54 0 0 1 .531-.524c.283 0 .516.23.53.526l.52 6.686-.52 12.795c-.015.295-.248.526-.53.526a.54.54 0 0 1-.531-.526m-2.503-2.38l-.493-10.415.493-6.73c.013-.263.222-.47.477-.47a.49.49 0 0 1 .478.471v-.002l.558 6.73-.558 10.415c-.016.264-.226.472-.478.472s-.464-.208-.477-.472m-4.946-3.512l-.556-6.9.556-6.675c.016-.207.174-.362.37-.362s.352.155.37.362l.63 6.675-.63 6.902c-.018.205-.176.362-.37.362s-.355-.157-.37-.365m-2.443-.182c0-.001-.59-6.716-.59-6.716l.59-6.47c.018-.18.15-.3.316-.3s.296.13.315.31l.668 6.47-.667 6.716c-.02.18-.153.31-.316.31s-.3-.13-.316-.31m4.906-.317l-.524-6.4.524-6.73c.016-.237.196-.418.423-.418s.406.18.423.417l.595 6.73-.595 6.404c-.018.235-.198.414-.423.414s-.408-.178-.423-.417m-7.328-.74c0-.001-.62-5.66-.62-5.66l.62-5.536c.018-.148.13-.254.263-.254s.24.104.26.253l.704 5.537-.704 5.66c-.023.15-.13.254-.262.254s-.245-.107-.263-.254m-2.32-2.16l-.46-3.5.46-3.44c.018-.145.122-.247.253-.247s.23.102.25.246l.546 3.442-.546 3.5c-.02.144-.124.245-.25.245s-.236-.102-.253-.246" fill="url(#A)"/><path d="M2024.28 687.93c0-2.736 1.45-4.634 3.904-4.634s3.903 1.9 3.903 4.634-1.452 4.636-3.903 4.636-3.904-1.9-3.904-4.636m1.85 0c0 1.606.603 2.852 2.055 2.852s2.053-1.246 2.053-2.852-.605-2.85-2.053-2.85-2.055 1.244-2.055 2.85m-16.923 0c0-2.837 1.578-4.634 3.928-4.634 1.633 0 2.71.757 3.327 2.03l-1.515.9c-.475-.796-.952-1.143-1.76-1.143-1.35 0-2.135 1.233-2.135 2.85 0 1.67.774 2.852 2.12 2.852.807 0 1.322-.36 1.644-.975l1.67.77c-.567 1.17-1.595 2-3.29 2-2.35 0-3.993-1.9-3.993-4.636m-37.574 0c0-2.736 1.45-4.634 3.904-4.634s3.903 1.9 3.903 4.634-1.452 4.636-3.903 4.636-3.904-1.9-3.904-4.636m1.85 0c0 1.606.603 2.852 2.055 2.852s2.055-1.246 2.055-2.852-.603-2.85-2.055-2.85-2.055 1.244-2.055 2.85m-9.9 2.003c0-1.77 1.158-2.297 2.812-2.683 1.696-.385 2.005-.643 2.005-1.22 0-.68-.502-.975-1.566-.975-.862 0-1.67.294-2.3 1.028l-1.297-1.156c.68-1.003 1.992-1.63 3.493-1.63 2.455 0 3.53 1.156 3.53 2.864 0 1.952-1.58 2.438-3.007 2.772s-1.81.515-1.81 1.08c0 .397.32.81 1.284.81.824 0 1.465-.336 2.043-.925l1.296 1.257c-.847.885-1.874 1.412-3.274 1.412-1.772 0-3.21-1.002-3.21-2.633m79.797 2.493v-9h2.684c2.312 0 4.596 1.334 4.596 4.493 0 3.29-1.9 4.497-4.468 4.497zm1.797-1.747h.954c1.897 0 2.68-.912 2.68-2.75 0-1.643-.86-2.747-2.747-2.747h-.887zm-5.842 1.747v-5.048c0-1.438-.706-2.324-1.847-2.324s-1.84.912-1.84 2.35v5.023h-1.797v-5.048c0-2.62 1.463-4.083 3.636-4.083 2.286 0 3.646 1.503 3.646 4.108v5.023zm-21.298 0v-9h5.402v1.772h-3.604v7.217zm-17.712 0v-9h2.683c2.312 0 4.598 1.334 4.598 4.493 0 3.29-1.9 4.497-4.468 4.497zm1.797-1.747h.952c1.9 0 2.684-.912 2.684-2.75 0-1.643-.862-2.747-2.75-2.747h-.885zm-5.88 1.747v-3.802l.025-1.965c-.116.233-.4.68-.628 1.015l-3.187 4.752h-1.72v-9h1.772v3.955l-.027 1.965c.116-.23.412-.68.63-1.015l3.3-4.905h1.606v9zm-9.553 0v-5.048c0-1.438-.71-2.324-1.85-2.324s-1.837.912-1.837 2.35v5.023h-1.8v-5.048c0-2.62 1.467-4.083 3.636-4.083 2.284 0 3.646 1.503 3.646 4.108v5.023z" fill="url(#B)"/></g></svg>