<?xml version="1.0" encoding="UTF-8" standalone="no"?>
<!-- Created with Inkscape (http://www.inkscape.org/) -->

<svg
   xmlns:dc="http://purl.org/dc/elements/1.1/"
   xmlns:cc="http://creativecommons.org/ns#"
   xmlns:rdf="http://www.w3.org/1999/02/22-rdf-syntax-ns#"
   xmlns:svg="http://www.w3.org/2000/svg"
   xmlns="http://www.w3.org/2000/svg"
   xmlns:sodipodi="http://sodipodi.sourceforge.net/DTD/sodipodi-0.dtd"
   xmlns:inkscape="http://www.inkscape.org/namespaces/inkscape"
   id="svg5230"
   version="1.1"
   inkscape:version="0.92.3 (2405546, 2018-03-11)"
   width="64"
   height="64"
   xml:space="preserve"
   sodipodi:docname="soundcloud-icon.svg"><metadata
     id="metadata5236"><rdf:RDF><cc:Work
         rdf:about=""><dc:format>image/svg+xml</dc:format><dc:type
           rdf:resource="http://purl.org/dc/dcmitype/StillImage" /><dc:title></dc:title></cc:Work></rdf:RDF></metadata><defs
     id="defs5234"><clipPath
       clipPathUnits="userSpaceOnUse"
       id="clipPath8570"><path
         d="m 413.874,157.641 h -17.903 v -8.817 h 17.903 z"
         id="path8572"
         inkscape:connector-curvature="0" /></clipPath><clipPath
       clipPathUnits="userSpaceOnUse"
       id="clipPath8582"><path
         d="m 437.33,157.801 h -18.9 v -8.81 h 18.9 z"
         id="path8584"
         inkscape:connector-curvature="0" /></clipPath><clipPath
       clipPathUnits="userSpaceOnUse"
       id="clipPath8594"><path
         d="m 457.322,155.224 h -18.753 v -3.75 h 18.753 z"
         id="path8596"
         inkscape:connector-curvature="0" /></clipPath><clipPath
       clipPathUnits="userSpaceOnUse"
       id="clipPath8606"><path
         d="m 565.698,156.304 h -18.354 v -5.995 h 18.354 z"
         id="path8608"
         inkscape:connector-curvature="0" /></clipPath><clipPath
       clipPathUnits="userSpaceOnUse"
       id="clipPath8618"><path
         d="M 589.354,156.446 H 571.11 v -7.758 h 18.244 z"
         id="path8620"
         inkscape:connector-curvature="0" /></clipPath><clipPath
       clipPathUnits="userSpaceOnUse"
       id="clipPath8630"><path
         d="m 589.355,165.339 h -18.286 v -8.394 h 18.286 z"
         id="path8632"
         inkscape:connector-curvature="0" /></clipPath><clipPath
       clipPathUnits="userSpaceOnUse"
       id="clipPath8642"><path
         d="m 609.127,158.156 h -17.534 v -9.908 h 17.534 z"
         id="path8644"
         inkscape:connector-curvature="0" /></clipPath><clipPath
       clipPathUnits="userSpaceOnUse"
       id="clipPath8654"><path
         d="M 633.199,165.403 H 614.41 v -7.485 h 18.789 z"
         id="path8656"
         inkscape:connector-curvature="0" /></clipPath><clipPath
       clipPathUnits="userSpaceOnUse"
       id="clipPath8734"><path
         d="m 633.401,154.092 h -18.858 v -4.2719 h 18.858 z"
         id="path8736"
         inkscape:connector-curvature="0" /></clipPath><clipPath
       clipPathUnits="userSpaceOnUse"
       id="clipPath9274"><path
         d="m 1045.67,433.766 6.96,-13.169 -16.45,-8.693 -6.97,13.172 16.46,8.69"
         id="path9276"
         inkscape:connector-curvature="0" /></clipPath><clipPath
       clipPathUnits="userSpaceOnUse"
       id="clipPath9280"><path
         d="m 1045.67,433.766 6.96,-13.169 -16.45,-8.693 -6.97,13.172 16.46,8.69"
         id="path9282"
         inkscape:connector-curvature="0" /></clipPath><clipPath
       clipPathUnits="userSpaceOnUse"
       id="clipPath9286"><path
         d="m 1045.67,433.768 6.96,-13.171 -16.45,-8.693 -6.97,13.172 16.46,8.692"
         id="path9288"
         inkscape:connector-curvature="0" /></clipPath><clipPath
       clipPathUnits="userSpaceOnUse"
       id="clipPath9292"><path
         d="m 1045.67,433.768 6.96,-13.171 -16.46,-8.693 -6.96,13.172 16.46,8.692"
         id="path9294"
         inkscape:connector-curvature="0" /></clipPath><linearGradient
       x1="0"
       y1="0"
       x2="1"
       y2="0"
       gradientUnits="userSpaceOnUse"
       gradientTransform="matrix(2.2585,-4.2732,4.2792,2.2602,1039.43,425.649)"
       spreadMethod="pad"
       id="linearGradient9304"><stop
         style="stop-opacity:1;stop-color:#ed1b2d"
         offset="0"
         id="stop9306" /><stop
         style="stop-opacity:1;stop-color:#ed1b2d"
         offset="1"
         id="stop9308" /></linearGradient><clipPath
       clipPathUnits="userSpaceOnUse"
       id="clipPath9344"><path
         d="m 1045.91,432.937 6.18,-11.9 -14.8,-7.686 -6.18,11.898 14.8,7.688"
         id="path9346"
         inkscape:connector-curvature="0" /></clipPath><clipPath
       clipPathUnits="userSpaceOnUse"
       id="clipPath9350"><path
         d="m 1045.91,432.936 6.18,-11.899 -14.8,-7.687 -6.18,11.899 14.8,7.687"
         id="path9352"
         inkscape:connector-curvature="0" /></clipPath><clipPath
       clipPathUnits="userSpaceOnUse"
       id="clipPath9356"><path
         d="m 1045.91,432.936 6.18,-11.899 -14.8,-7.687 -6.18,11.903 14.8,7.683"
         id="path9358"
         inkscape:connector-curvature="0" /></clipPath><clipPath
       clipPathUnits="userSpaceOnUse"
       id="clipPath9362"><path
         d="m 1045.91,432.936 6.18,-11.899 -14.8,-7.687 -6.18,11.903 14.8,7.683"
         id="path9364"
         inkscape:connector-curvature="0" /></clipPath><linearGradient
       x1="0"
       y1="0"
       x2="1"
       y2="0"
       gradientUnits="userSpaceOnUse"
       gradientTransform="matrix(2.7049,-5.2039,5.208,2.7036,1039.86,426.544)"
       spreadMethod="pad"
       id="linearGradient9374"><stop
         style="stop-opacity:1;stop-color:#ed1b2d"
         offset="0"
         id="stop9376" /><stop
         style="stop-opacity:1;stop-color:#ed1b2d"
         offset="1"
         id="stop9378" /></linearGradient><clipPath
       clipPathUnits="userSpaceOnUse"
       id="clipPath9410"><path
         d="m 1048.9,431.869 3.3,-4.058 -4.2,-3.413 -3.31,4.062 4.21,3.409"
         id="path9412"
         inkscape:connector-curvature="0" /></clipPath><clipPath
       clipPathUnits="userSpaceOnUse"
       id="clipPath9416"><path
         d="m 1048.9,431.869 3.3,-4.058 -4.2,-3.413 -3.31,4.062 4.21,3.409"
         id="path9418"
         inkscape:connector-curvature="0" /></clipPath><clipPath
       clipPathUnits="userSpaceOnUse"
       id="clipPath9422"><path
         d="m 1048.9,431.869 3.3,-4.058 -4.2,-3.413 -3.31,4.062 4.21,3.409"
         id="path9424"
         inkscape:connector-curvature="0" /></clipPath><clipPath
       clipPathUnits="userSpaceOnUse"
       id="clipPath9428"><path
         d="m 1048.9,431.869 3.3,-4.058 -4.2,-3.413 -3.31,4.062 4.21,3.409"
         id="path9430"
         inkscape:connector-curvature="0" /></clipPath><linearGradient
       x1="0"
       y1="0"
       x2="1"
       y2="0"
       gradientUnits="userSpaceOnUse"
       gradientTransform="matrix(1.4165,-1.7398,1.7421,1.413,1048.08,428.588)"
       spreadMethod="pad"
       id="linearGradient9440"><stop
         style="stop-opacity:1;stop-color:#4d74b9"
         offset="0"
         id="stop9442" /><stop
         style="stop-opacity:1;stop-color:#314b7d"
         offset="1"
         id="stop9444" /></linearGradient><clipPath
       clipPathUnits="userSpaceOnUse"
       id="clipPath9464"><path
         d="m 1033.38,423.46 1.15,-4.202 -5.59,-1.554 -1.16,4.205 5.6,1.551"
         id="path9466"
         inkscape:connector-curvature="0" /></clipPath><clipPath
       clipPathUnits="userSpaceOnUse"
       id="clipPath9470"><path
         d="m 1033.38,423.46 1.15,-4.202 -5.59,-1.554 -1.16,4.205 5.6,1.551"
         id="path9472"
         inkscape:connector-curvature="0" /></clipPath><clipPath
       clipPathUnits="userSpaceOnUse"
       id="clipPath9476"><path
         d="m 1033.38,423.46 1.16,-4.202 -5.6,-1.554 -1.16,4.205 5.6,1.551"
         id="path9478"
         inkscape:connector-curvature="0" /></clipPath><clipPath
       clipPathUnits="userSpaceOnUse"
       id="clipPath9482"><path
         d="m 1033.38,423.46 1.16,-4.202 -5.6,-1.554 -1.16,4.205 5.6,1.551"
         id="path9484"
         inkscape:connector-curvature="0" /></clipPath><linearGradient
       x1="0"
       y1="0"
       x2="1"
       y2="0"
       gradientUnits="userSpaceOnUse"
       gradientTransform="matrix(0.85515,-3.0989,3.0993,0.85883,1030.77,422.001)"
       spreadMethod="pad"
       id="linearGradient9494"><stop
         style="stop-opacity:1;stop-color:#ed1b2d"
         offset="0"
         id="stop9496" /><stop
         style="stop-opacity:1;stop-color:#ed1b2d"
         offset="1"
         id="stop9498" /></linearGradient><clipPath
       clipPathUnits="userSpaceOnUse"
       id="clipPath9510"><path
         d="m 1049.67,423.749 1.57,-4.004 -5.25,-2.058 -1.56,4 5.24,2.062"
         id="path9512"
         inkscape:connector-curvature="0" /></clipPath><clipPath
       clipPathUnits="userSpaceOnUse"
       id="clipPath9516"><path
         d="m 1049.67,423.749 1.57,-4.004 -5.25,-2.057 -1.56,4 5.24,2.061"
         id="path9518"
         inkscape:connector-curvature="0" /></clipPath><clipPath
       clipPathUnits="userSpaceOnUse"
       id="clipPath9522"><path
         d="m 1049.67,423.749 1.57,-4.004 -5.25,-2.057 -1.56,4 5.24,2.061"
         id="path9524"
         inkscape:connector-curvature="0" /></clipPath><clipPath
       clipPathUnits="userSpaceOnUse"
       id="clipPath9528"><path
         d="m 1049.67,423.749 1.57,-4.004 -5.25,-2.057 -1.56,4 5.24,2.061"
         id="path9530"
         inkscape:connector-curvature="0" /></clipPath><linearGradient
       x1="0"
       y1="0"
       x2="1"
       y2="0"
       gradientUnits="userSpaceOnUse"
       gradientTransform="matrix(0.67753,-1.7317,1.7326,0.68033,1047.6,421.345)"
       spreadMethod="pad"
       id="linearGradient9540"><stop
         style="stop-opacity:1;stop-color:#ed1b2d"
         offset="0"
         id="stop9542" /><stop
         style="stop-opacity:1;stop-color:#ed1b2d"
         offset="1"
         id="stop9544" /></linearGradient><clipPath
       clipPathUnits="userSpaceOnUse"
       id="clipPath9556"><path
         d="m 1049.16,423.453 1.62,-3.516 -4.64,-2.135 -1.62,3.514 4.64,2.137"
         id="path9558"
         inkscape:connector-curvature="0" /></clipPath><clipPath
       clipPathUnits="userSpaceOnUse"
       id="clipPath9562"><path
         d="m 1049.16,423.453 1.62,-3.515 -4.64,-2.136 -1.62,3.514 4.64,2.137"
         id="path9564"
         inkscape:connector-curvature="0" /></clipPath><clipPath
       clipPathUnits="userSpaceOnUse"
       id="clipPath9568"><path
         d="m 1049.16,423.453 1.62,-3.515 -4.64,-2.136 -1.62,3.515 4.64,2.136"
         id="path9570"
         inkscape:connector-curvature="0" /></clipPath><clipPath
       clipPathUnits="userSpaceOnUse"
       id="clipPath9574"><path
         d="m 1049.16,423.456 1.63,-3.518 -4.65,-2.136 -1.62,3.515 4.64,2.139"
         id="path9576"
         inkscape:connector-curvature="0" /></clipPath><linearGradient
       x1="0"
       y1="0"
       x2="1"
       y2="0"
       gradientUnits="userSpaceOnUse"
       gradientTransform="matrix(1.2309,-2.6682,2.6687,1.2281,1047,422.018)"
       spreadMethod="pad"
       id="linearGradient9586"><stop
         style="stop-opacity:1;stop-color:#ed1b2d"
         offset="0"
         id="stop9588" /><stop
         style="stop-opacity:1;stop-color:#ed1b2d"
         offset="1"
         id="stop9590" /></linearGradient><clipPath
       clipPathUnits="userSpaceOnUse"
       id="clipPath9654"><path
         d="m 1032.6,423.911 2.22,-4.124 -5.04,-2.708 -2.22,4.118 5.04,2.714"
         id="path9656"
         inkscape:connector-curvature="0" /></clipPath><clipPath
       clipPathUnits="userSpaceOnUse"
       id="clipPath9660"><path
         d="m 1032.6,423.911 2.22,-4.124 -5.04,-2.708 -2.22,4.118 5.04,2.714"
         id="path9662"
         inkscape:connector-curvature="0" /></clipPath><clipPath
       clipPathUnits="userSpaceOnUse"
       id="clipPath9666"><path
         d="m 1032.6,423.911 2.22,-4.124 -5.04,-2.708 -2.22,4.118 5.04,2.714"
         id="path9668"
         inkscape:connector-curvature="0" /></clipPath><clipPath
       clipPathUnits="userSpaceOnUse"
       id="clipPath9672"><path
         d="m 1032.6,423.911 2.22,-4.124 -5.04,-2.708 -2.22,4.118 5.04,2.714"
         id="path9674"
         inkscape:connector-curvature="0" /></clipPath><linearGradient
       x1="0"
       y1="0"
       x2="1"
       y2="0"
       gradientUnits="userSpaceOnUse"
       gradientTransform="matrix(1.6848,-3.1253,3.1318,1.6863,1030.26,422.185)"
       spreadMethod="pad"
       id="linearGradient9684"><stop
         style="stop-opacity:1;stop-color:#ed1b2d"
         offset="0"
         id="stop9686" /><stop
         style="stop-opacity:1;stop-color:#ed1b2d"
         offset="1"
         id="stop9688" /></linearGradient><clipPath
       clipPathUnits="userSpaceOnUse"
       id="clipPath9712"><path
         d="m 1030.17,420.458 0.01,3.007 3.11,-0.009 -0.01,-3.01 -3.11,0.012"
         id="path9714"
         inkscape:connector-curvature="0" /></clipPath><clipPath
       clipPathUnits="userSpaceOnUse"
       id="clipPath9718"><path
         d="m 1030.17,420.458 0.01,3.007 3.11,-0.009 -0.01,-3.01 -3.11,0.012"
         id="path9720"
         inkscape:connector-curvature="0" /></clipPath><clipPath
       clipPathUnits="userSpaceOnUse"
       id="clipPath9724"><path
         d="m 1030.17,420.458 0.01,3.007 3.11,-0.009 -0.01,-3.01 -3.11,0.012"
         id="path9726"
         inkscape:connector-curvature="0" /></clipPath><clipPath
       clipPathUnits="userSpaceOnUse"
       id="clipPath9730"><path
         d="m 1030.17,420.458 0.01,3.007 3.11,-0.009 -0.01,-3.01 -3.11,0.012"
         id="path9732"
         inkscape:connector-curvature="0" /></clipPath><linearGradient
       x1="0"
       y1="0"
       x2="1"
       y2="0"
       gradientUnits="userSpaceOnUse"
       gradientTransform="matrix(0.01032,3.1821,-3.1888,0.008815,1031.73,420.364)"
       spreadMethod="pad"
       id="linearGradient9742"><stop
         style="stop-opacity:1;stop-color:#636466"
         offset="0"
         id="stop9744" /><stop
         style="stop-opacity:1;stop-color:#231f20"
         offset="1"
         id="stop9746" /></linearGradient><clipPath
       clipPathUnits="userSpaceOnUse"
       id="clipPath9766"><path
         d="m 1047.84,420.807 0.01,2.745 2.75,-0.009 -0.01,-2.744 -2.75,0.008"
         id="path9768"
         inkscape:connector-curvature="0" /></clipPath><clipPath
       clipPathUnits="userSpaceOnUse"
       id="clipPath9772"><path
         d="m 1047.84,420.807 0.01,2.745 2.75,-0.009 -0.01,-2.744 -2.75,0.008"
         id="path9774"
         inkscape:connector-curvature="0" /></clipPath><clipPath
       clipPathUnits="userSpaceOnUse"
       id="clipPath9778"><path
         d="m 1047.84,420.807 0.01,2.745 2.75,-0.009 -0.01,-2.744 -2.75,0.008"
         id="path9780"
         inkscape:connector-curvature="0" /></clipPath><clipPath
       clipPathUnits="userSpaceOnUse"
       id="clipPath9784"><path
         d="m 1047.84,420.807 0.01,2.745 2.75,-0.009 -0.01,-2.744 -2.75,0.008"
         id="path9786"
         inkscape:connector-curvature="0" /></clipPath><linearGradient
       x1="0"
       y1="0"
       x2="1"
       y2="0"
       gradientUnits="userSpaceOnUse"
       gradientTransform="matrix(0.01032,2.7149,-2.714,0.008815,1049.23,420.71)"
       spreadMethod="pad"
       id="linearGradient9796"><stop
         style="stop-opacity:1;stop-color:#636466"
         offset="0"
         id="stop9798" /><stop
         style="stop-opacity:1;stop-color:#231f20"
         offset="1"
         id="stop9800" /></linearGradient><clipPath
       clipPathUnits="userSpaceOnUse"
       id="clipPath9860"><path
         d="m 1035.63,421.095 1,-1.927 -3.02,-1.571 -1,1.927 3.02,1.571"
         id="path9862"
         inkscape:connector-curvature="0" /></clipPath><clipPath
       clipPathUnits="userSpaceOnUse"
       id="clipPath9866"><path
         d="m 1035.63,421.095 1,-1.927 -3.02,-1.571 -1,1.927 3.02,1.571"
         id="path9868"
         inkscape:connector-curvature="0" /></clipPath><clipPath
       clipPathUnits="userSpaceOnUse"
       id="clipPath9872"><path
         d="m 1035.63,421.095 1,-1.927 -3.02,-1.571 -1,1.927 3.02,1.571"
         id="path9874"
         inkscape:connector-curvature="0" /></clipPath><clipPath
       clipPathUnits="userSpaceOnUse"
       id="clipPath9878"><path
         d="m 1035.63,421.095 1,-1.927 -3.02,-1.571 -1,1.927 3.02,1.571"
         id="path9880"
         inkscape:connector-curvature="0" /></clipPath><linearGradient
       x1="0"
       y1="0"
       x2="1"
       y2="0"
       gradientUnits="userSpaceOnUse"
       gradientTransform="matrix(2.7212,-5.2343,5.2347,2.7236,1032.85,422.883)"
       spreadMethod="pad"
       id="linearGradient9890"><stop
         style="stop-opacity:1;stop-color:#ed1b2d"
         offset="0"
         id="stop9892" /><stop
         style="stop-opacity:1;stop-color:#ed1b2d"
         offset="1"
         id="stop9894" /></linearGradient><clipPath
       clipPathUnits="userSpaceOnUse"
       id="clipPath9902"><path
         d="m 1033.84,421.062 0.68,-1.309 -1.54,-0.799 -0.68,1.309 1.54,0.799"
         id="path9904"
         inkscape:connector-curvature="0" /></clipPath><clipPath
       clipPathUnits="userSpaceOnUse"
       id="clipPath9908"><path
         d="m 1033.84,421.062 0.68,-1.309 -1.54,-0.799 -0.68,1.309 1.54,0.799"
         id="path9910"
         inkscape:connector-curvature="0" /></clipPath><clipPath
       clipPathUnits="userSpaceOnUse"
       id="clipPath9914"><path
         d="m 1033.84,421.062 0.68,-1.309 -1.54,-0.799 -0.68,1.309 1.54,0.799"
         id="path9916"
         inkscape:connector-curvature="0" /></clipPath><clipPath
       clipPathUnits="userSpaceOnUse"
       id="clipPath9920"><path
         d="m 1033.84,421.065 0.68,-1.312 -1.54,-0.799 -0.68,1.309 1.54,0.802"
         id="path9922"
         inkscape:connector-curvature="0" /></clipPath><linearGradient
       x1="0"
       y1="0"
       x2="1"
       y2="0"
       gradientUnits="userSpaceOnUse"
       gradientTransform="matrix(2.72,-5.2331,5.232,2.7187,1032.12,422.463)"
       spreadMethod="pad"
       id="linearGradient9932"><stop
         style="stop-opacity:1;stop-color:#ed1b2d"
         offset="0"
         id="stop9934" /><stop
         style="stop-opacity:1;stop-color:#ed1b2d"
         offset="1"
         id="stop9936" /></linearGradient><clipPath
       clipPathUnits="userSpaceOnUse"
       id="clipPath10512"><path
         d="M 241.471,463.996 H 228.983 V 453.71 h 12.488 z"
         id="path10514"
         inkscape:connector-curvature="0" /></clipPath><clipPath
       clipPathUnits="userSpaceOnUse"
       id="clipPath10612"><path
         d="m 241.678,480.87 h -15.734 v -10.831 h 15.734 z"
         id="path10614"
         inkscape:connector-curvature="0" /></clipPath><clipPath
       clipPathUnits="userSpaceOnUse"
       id="clipPath10624"><path
         d="m 232.069,445.27 h 12.238 v -8.428 h -12.238 z"
         id="path10626"
         inkscape:connector-curvature="0" /></clipPath><clipPath
       clipPathUnits="userSpaceOnUse"
       id="clipPath10636"><path
         d="m 196.309,362.597 h -6.849 v 6.848 h 6.849 v -6.848"
         id="path10638"
         inkscape:connector-curvature="0" /></clipPath><clipPath
       clipPathUnits="userSpaceOnUse"
       id="clipPath10648"><path
         d="m 196.309,300.898 h -6.849 v 6.848 h 6.849 v -6.848"
         id="path10650"
         inkscape:connector-curvature="0" /></clipPath><clipPath
       clipPathUnits="userSpaceOnUse"
       id="clipPath10660"><path
         d="m 200.953,361.086 h -9.342 v -8.196 h 9.342 z"
         id="path10662"
         inkscape:connector-curvature="0" /></clipPath><clipPath
       clipPathUnits="userSpaceOnUse"
       id="clipPath10672"><path
         d="m 264.499,225.803 h -18.337 v -5.371 h 18.337 z"
         id="path10674"
         inkscape:connector-curvature="0" /></clipPath><clipPath
       clipPathUnits="userSpaceOnUse"
       id="clipPath10684"><path
         d="m 227.129,534.689 h -32.953 v -9.996 h 32.953 z"
         id="path10686"
         inkscape:connector-curvature="0" /></clipPath><clipPath
       clipPathUnits="userSpaceOnUse"
       id="clipPath10696"><path
         d="m 192.838,379.879 h 9.04 v -8.925 h -9.04 z"
         id="path10698"
         inkscape:connector-curvature="0" /></clipPath><clipPath
       clipPathUnits="userSpaceOnUse"
       id="clipPath10708"><path
         d="m 192.838,379.993 h 9.04 v -0.11401 h -9.04 z"
         id="path10710"
         inkscape:connector-curvature="0" /></clipPath><clipPath
       clipPathUnits="userSpaceOnUse"
       id="clipPath10720"><path
         d="m 219.979,327.014 h -9.004 v -9.219 h 9.004 z"
         id="path10722"
         inkscape:connector-curvature="0" /></clipPath><clipPath
       clipPathUnits="userSpaceOnUse"
       id="clipPath10732"><path
         d="m 191.347,317.508 h -9.639 v -7.541 h 9.639 z"
         id="path10734"
         inkscape:connector-curvature="0" /></clipPath><linearGradient
       x1="0"
       y1="0"
       x2="1"
       y2="0"
       gradientUnits="userSpaceOnUse"
       gradientTransform="matrix(0,-46.029147,-46.029147,0,2041.4376,733.80644)"
       spreadMethod="pad"
       id="linearGradient27200"><stop
         style="stop-opacity:1;stop-color:#faa21b"
         offset="0"
         id="stop27202" /><stop
         style="stop-opacity:1;stop-color:#f15623"
         offset="1"
         id="stop27204" /></linearGradient><linearGradient
       x1="0"
       y1="0"
       x2="1"
       y2="0"
       gradientUnits="userSpaceOnUse"
       gradientTransform="matrix(0,-88.04786,-88.04786,0,2115.3117,770.62917)"
       spreadMethod="pad"
       id="linearGradient27200-3"><stop
         style="stop-opacity:1;stop-color:#faa21b"
         offset="0"
         id="stop27202-7" /><stop
         style="stop-opacity:1;stop-color:#f15623"
         offset="1"
         id="stop27204-4" /></linearGradient></defs><sodipodi:namedview
     pagecolor="#ffffff"
     bordercolor="#666666"
     borderopacity="1"
     objecttolerance="10"
     gridtolerance="10"
     guidetolerance="10"
     inkscape:pageopacity="0"
     inkscape:pageshadow="2"
     inkscape:window-width="1920"
     inkscape:window-height="1001"
     id="namedview5232"
     showgrid="false"
     showguides="true"
     inkscape:guide-bbox="true"
     fit-margin-left="0.5"
     fit-margin-bottom="0.5"
     fit-margin-top="0.5"
     fit-margin-right="0.5"
     inkscape:zoom="3.9277572"
     inkscape:cx="99.61304"
     inkscape:cy="17.155079"
     inkscape:window-x="-9"
     inkscape:window-y="-9"
     inkscape:window-maximized="1"
     inkscape:current-layer="g5238"><inkscape:grid
       type="xygrid"
       id="grid16791"
       empspacing="5"
       visible="true"
       enabled="true"
       snapvisiblegridlinesonly="true"
       originx="-2448.6946"
       originy="-848.3076"
       spacingx="1"
       spacingy="1" /></sodipodi:namedview><g
     id="g5238"
     inkscape:groupmode="layer"
     inkscape:label="TerminalGuideMap"
     transform="matrix(1.25,0,0,-1.25,-2448.6946,912.30772)"><path
       d="m 1986.3277,716.21063 c -0.4751,-0.18323 -0.6018,-0.37253 -0.6062,-0.73985 v 0 -19.98818 c 0.01,-0.38468 0.3039,-0.70598 0.6799,-0.74418 v 0 c 0.016,-6.5e-4 17.3448,-0.01 17.4568,-0.01 v 0 c 3.4788,0 6.2975,2.81961 6.2975,6.2983 v 0 c 0,3.47869 -2.8187,6.29743 -6.2975,6.29743 v 0 c -0.863,0 -1.6855,-0.17454 -2.4357,-0.48802 v 0 c -0.501,5.67479 -5.2598,10.12781 -11.0665,10.12781 v 0 c -1.4207,0 -2.8048,-0.27962 -4.0283,-0.75375 m -2.5869,-1.41457 -0.2849,-14.18659 0.2849,-5.14857 c 0.01,-0.376 0.316,-0.686 0.6938,-0.686 v 0 c 0.3769,0 0.6877,0.31 0.6929,0.69122 v 0 -0.005 l 0.3091,5.14858 -0.3091,14.18832 c -0.01,0.37947 -0.316,0.69122 -0.6929,0.69122 v 0 c -0.3778,0 -0.6895,-0.31175 -0.6938,-0.69296 m -2.1068,-1.17751 -0.244,-13.00299 c 0,-0.009 0.244,-5.22847 0.244,-5.22847 v 0 c 0.01,-0.35343 0.2971,-0.64433 0.6496,-0.64433 v 0 c 0.3526,0 0.6434,0.2909 0.6504,0.64694 v 0 -0.003 0.003 l 0.2736,5.22065 -0.2736,13.00907 c -0.01,0.35603 -0.2978,0.64606 -0.6504,0.64606 v 0 c -0.3525,0 -0.6434,-0.29003 -0.6496,-0.64693 m -6.299,-1.36335 -0.3222,-11.64052 0.323,-5.34482 c 0.01,-0.28569 0.2353,-0.51234 0.5183,-0.51234 v 0 c 0.2814,0 0.509,0.22665 0.5186,0.51408 v 0 -0.002 0.002 6.3e-4 l 0.3628,5.34136 -0.3628,11.64139 c -0.01,0.29002 -0.2372,0.51581 -0.5186,0.51581 v 0 c -0.283,0 -0.5114,-0.22579 -0.5191,-0.51581 m 2.0831,-0.29786 -0.2961,-11.3444 0.297,-5.29272 c 0.01,-0.31088 0.2536,-0.5575 0.5627,-0.5575 v 0 c 0.3066,0 0.5532,0.24662 0.5619,0.56011 v 0 -0.003 l 0.3334,5.29359 -0.3334,11.34441 c -0.01,0.31434 -0.2553,0.56009 -0.5619,0.56009 v 0 c -0.3091,0 -0.5566,-0.24662 -0.5636,-0.56009 m -4.149,-0.0808 -0.3492,-11.26191 0.3492,-5.37695 c 0.01,-0.26225 0.217,-0.46891 0.4749,-0.46891 v 0 c 0.2563,0 0.4647,0.20578 0.4751,0.47065 v 0 l 0.3933,5.37521 -0.3933,11.26278 c -0.011,0.26398 -0.2188,0.47065 -0.4751,0.47065 v 0 c -0.2579,0 -0.4663,-0.20667 -0.4749,-0.47152 m 6.2487,-0.33433 -0.2709,-10.92931 0.2709,-5.25973 c 0.01,-0.33519 0.2736,-0.59917 0.6069,-0.59917 v 0 c 0.3326,0 0.5976,0.26398 0.6054,0.60265 v 0 -0.004 l 0.3039,5.25972 -0.3039,10.93105 c -0.01,0.3378 -0.2728,0.60352 -0.6054,0.60352 v 0 c -0.3333,0 -0.6008,-0.26572 -0.6069,-0.60439 m -8.299,-0.53144 c 0,-6.4e-4 -0.3743,-10.3944 -0.3743,-10.3944 v 0 l 0.3743,-5.43341 c 0.01,-0.23793 0.1997,-0.4255 0.4316,-0.4255 v 0 c 0.2301,0 0.4194,0.18757 0.4316,0.42725 v 0 l 0.4229,5.43166 -0.4229,10.3944 c -0.012,0.23968 -0.2015,0.42724 -0.4316,0.42724 v 0 c -0.2319,0 -0.4211,-0.18756 -0.4316,-0.42724 m -2.0337,-1.93386 -0.4004,-8.46054 0.4004,-5.4664 c 0.011,-0.21362 0.1806,-0.38209 0.3874,-0.38209 v 0 c 0.2048,0 0.3759,0.16847 0.3881,0.38295 v 0 -0.002 l 0.4532,5.46726 -0.4532,8.46054 c -0.013,0.21449 -0.1833,0.38382 -0.3881,0.38382 v 0 c -0.2068,0 -0.377,-0.16933 -0.3874,-0.38382 m -4.018,-2.8526 -0.4516,-5.60534 0.4516,-5.42212 c 0.013,-0.16845 0.1415,-0.29437 0.3005,-0.29437 v 0 c 0.1572,0 0.2856,0.12592 0.3005,0.29437 v 0 l 0.5122,5.42212 -0.5122,5.60707 c -0.015,0.16673 -0.1433,0.29438 -0.3005,0.29438 v 0 c -0.159,0 -0.2882,-0.12765 -0.3005,-0.29611 m -1.9843,-0.14763 c 0,-6.4e-4 -0.4783,-5.45597 -0.4783,-5.45597 v 0 l 0.4783,-5.25625 c 0.015,-0.14676 0.1217,-0.25183 0.2572,-0.25183 v 0 c 0.1329,0 0.2406,0.10507 0.2561,0.25096 v 0 l 0.5428,5.25712 -0.5419,5.45597 c -0.016,0.14502 -0.1241,0.25096 -0.257,0.25096 v 0 c -0.1355,0 -0.2432,-0.10681 -0.2572,-0.25096 m 3.985,-0.25791 -0.4254,-5.1998 0.4254,-5.46727 c 0.013,-0.19277 0.159,-0.33952 0.3439,-0.33952 v 0 c 0.1823,0 0.3301,0.14588 0.3439,0.33865 v 0 l 0.4837,5.46814 -0.4837,5.20242 c -0.015,0.19104 -0.1606,0.33605 -0.3439,0.33605 v 0 c -0.1849,0 -0.3316,-0.14501 -0.3439,-0.33867 m -5.9526,-0.60003 c 0,-6.4e-4 -0.5037,-4.59717 -0.5037,-4.59717 v 0 l 0.5037,-4.49729 c 0.015,-0.11984 0.105,-0.20668 0.2136,-0.20668 v 0 c 0.1069,0 0.1946,0.0843 0.212,0.20581 v 0 l 0.5722,4.49816 -0.5715,4.59717 c -0.019,0.12243 -0.1058,0.20666 -0.2127,0.20666 v 0 c -0.1086,0 -0.1988,-0.0869 -0.2136,-0.20666 m -1.8852,-1.75412 -0.3743,-2.84305 0.3743,-2.79528 c 0.015,-0.1181 0.099,-0.20059 0.2058,-0.20059 v 0 c 0.1033,0 0.1875,0.0825 0.2041,0.19972 v 0 l 0.4437,2.79615 -0.4437,2.84392 c -0.015,0.11723 -0.1008,0.19885 -0.2041,0.19885 v 0 c -0.1069,0 -0.192,-0.0825 -0.2058,-0.19972"
       style="fill:url(#linearGradient27200);stroke:none;stroke-width:0.86837113"
       id="path27206"
       inkscape:connector-curvature="0"
       sodipodi:nodetypes="cccccccccccccccccccccccccccccccccccccccccccccccccccccccccccccccccccccccccccccccccccccccccccccccccccccccccccccccccccccccccccccccccccccccccccccccccccccccccccccccccccccccccccccccccccccccccc" /></g></svg>