<svg xmlns="http://www.w3.org/2000/svg" width="120" height="60"><g transform="matrix(.847128 0 0 .847128 17.448749 -10.748771)"><path d="M23.052 36.524L11.668 59.647.23 36.524h3.953l7.525 15.117 7.465-15.117zM81.535 39.5h-3.752l-6.37 12.686-6.35-12.686H61.35l10.082 20.17zM52.417 55.794a6.68 6.68 0 0 1-6.45-5.041h16.285v-1.596a9.83 9.83 0 1 0-1.128 4.587h-3.9a6.65 6.65 0 0 1-4.807 2.056m0-13.28a6.68 6.68 0 0 1 6.417 5.04H45.967a6.68 6.68 0 0 1 6.45-5.028M100.23 49.2v-9.648h-3.205v2.424a9.84 9.84 0 0 0-13.707.385c-3.712 3.817-3.712 9.895 0 13.712a9.84 9.84 0 0 0 13.707.385v2.444h3.205V49.23m-9.842 6.657a6.64 6.64 0 0 1-6.636-6.6 6.64 6.64 0 0 1 6.561-6.674 6.64 6.64 0 0 1 6.711 6.523v.22a6.68 6.68 0 0 1-6.637 6.53m-59.8-.092a6.68 6.68 0 0 1-6.463-5.034h16.292v-1.602a9.83 9.83 0 0 0-19.382-2.363c-1.194 4.826 1.4 9.784 6.047 11.554s9.882-.207 12.2-4.604h-3.886a6.63 6.63 0 0 1-4.807 2.056m0-13.28a6.68 6.68 0 0 1 6.45 5.041H24.113a6.68 6.68 0 0 1 6.463-5.028" fill="#ff9e16"/><path d="M6.506 36.565l5.14 10.262 5.12-10.262s-10.262-.04-10.262 0z" fill="#8a8a8d"/></g></svg>