<?xml version="1.0" encoding="UTF-8" standalone="no"?>
<svg
   xmlns:dc="http://purl.org/dc/elements/1.1/"
   xmlns:cc="http://creativecommons.org/ns#"
   xmlns:rdf="http://www.w3.org/1999/02/22-rdf-syntax-ns#"
   xmlns:svg="http://www.w3.org/2000/svg"
   xmlns="http://www.w3.org/2000/svg"
   xmlns:sodipodi="http://sodipodi.sourceforge.net/DTD/sodipodi-0.dtd"
   xmlns:inkscape="http://www.inkscape.org/namespaces/inkscape"
   id="Layer_1"
   data-name="Layer 1"
   viewBox="0 0 64 64"
   version="1.1"
   sodipodi:docname="webflow-icon.svg"
   width="64"
   height="64"
   inkscape:version="0.92.3 (2405546, 2018-03-11)">
  <metadata
     id="metadata15">
    <rdf:RDF>
      <cc:Work
         rdf:about="">
        <dc:format>image/svg+xml</dc:format>
        <dc:type
           rdf:resource="http://purl.org/dc/dcmitype/StillImage" />
        <dc:title>32_w_blue_circle</dc:title>
      </cc:Work>
    </rdf:RDF>
  </metadata>
  <sodipodi:namedview
     pagecolor="#ffffff"
     bordercolor="#666666"
     borderopacity="1"
     objecttolerance="10"
     gridtolerance="10"
     guidetolerance="10"
     inkscape:pageopacity="0"
     inkscape:pageshadow="2"
     inkscape:window-width="1920"
     inkscape:window-height="1001"
     id="namedview13"
     showgrid="false"
     inkscape:zoom="7.375"
     inkscape:cx="16"
     inkscape:cy="16"
     inkscape:window-x="-9"
     inkscape:window-y="-9"
     inkscape:window-maximized="1"
     inkscape:current-layer="Layer_1" />
  <defs
     id="defs4">
    <style
       id="style2">.cls-1{fill:#4353ff;}.cls-2{fill:#fff;}</style>
  </defs>
  <title
     id="title6">32_w_blue_circle</title>
  <g
     id="g827"
     transform="matrix(2,0,0,2,0,-64)">
    <circle
       style="fill:#4353ff"
       id="circle8"
       r="16"
       cy="48"
       cx="16"
       class="cls-1" />
    <path
       style="fill:#ffffff"
       inkscape:connector-curvature="0"
       id="path10"
       d="m 20.69,46.1 c 0,0 -1.34,4.22 -1.45,4.57 0,-0.35 -1,-7.93 -1,-7.93 -2.29,0 -3.52,1.63 -4.16,3.36 l -1.77,4.58 c 0,-0.33 -0.25,-4.54 -0.25,-4.54 A 3.74,3.74 0 0 0 8.43,42.75 l 1.88,11.48 c 2.4,0 3.69,-1.63 4.37,-3.36 0,0 1.44,-3.73 1.5,-3.9 0,0.16 1,7.26 1,7.26 A 4.62,4.62 0 0 0 21.59,51 L 25,42.74 c -2.41,0 -3.66,1.63 -4.31,3.36 z"
       class="cls-2" />
  </g>
</svg>
