<?xml version="1.0" encoding="UTF-8" standalone="no"?>
<svg
   xmlns:dc="http://purl.org/dc/elements/1.1/"
   xmlns:cc="http://creativecommons.org/ns#"
   xmlns:rdf="http://www.w3.org/1999/02/22-rdf-syntax-ns#"
   xmlns:svg="http://www.w3.org/2000/svg"
   xmlns="http://www.w3.org/2000/svg"
   xmlns:sodipodi="http://sodipodi.sourceforge.net/DTD/sodipodi-0.dtd"
   xmlns:inkscape="http://www.inkscape.org/namespaces/inkscape"
   viewBox="0 0 64 63.999999"
   height="64"
   width="64"
   xml:space="preserve"
   id="svg2"
   version="1.1"
   sodipodi:docname="rollingstone-icon.svg"
   inkscape:version="0.92.3 (2405546, 2018-03-11)"><sodipodi:namedview
     pagecolor="#ffffff"
     bordercolor="#666666"
     borderopacity="1"
     objecttolerance="10"
     gridtolerance="10"
     guidetolerance="10"
     inkscape:pageopacity="0"
     inkscape:pageshadow="2"
     inkscape:window-width="1920"
     inkscape:window-height="1001"
     id="namedview167"
     showgrid="false"
     inkscape:zoom="2.5403659"
     inkscape:cx="65.079801"
     inkscape:cy="103.51845"
     inkscape:window-x="-9"
     inkscape:window-y="-9"
     inkscape:window-maximized="1"
     inkscape:current-layer="svg2" /><metadata
     id="metadata8"><rdf:RDF><cc:Work
         rdf:about=""><dc:format>image/svg+xml</dc:format><dc:type
           rdf:resource="http://purl.org/dc/dcmitype/StillImage" /><dc:title></dc:title></cc:Work></rdf:RDF></metadata><defs
     id="defs6" /><g
     id="g1453"
     transform="matrix(0.26051273,0,0,0.26051273,1.1708415e-5,39.528971)"><path
       inkscape:connector-curvature="0"
       d="m 204.93599,16.061467 c -0.084,-1 -0.40133,-1.95987 -0.868,-2.88027 -0.79466,0.56667 -1.57866,1.0896 -2.34933,1.56147 -1.79333,1.1052 -3.49733,1.96666 -5.00266,2.6052 -1.07867,0.46 -2.23867,0.89333 -3.492,1.26933 -6.53067,1.9692 -15.664,2.45213 -29.868,-2.612 -5.94667,-2.14533 -10.916,-4.9364 -15.712,-4.2188 -0.0733,0.012 -0.144,0.0152 -0.21467,0.0281 0,0 -1.252,0.31467 -2.256,1.68547 -0.42667,0.57867 -0.796,2.66933 -0.928,3.0896 0.71067,0.4968 1.42533,0.98747 2.148,1.46347 7.27333,4.7896 14.88933,8.48293 20.05867,9.85213 8.468,2.24693 24.556,3.2536 31.11066,-0.34533 3.50133,-1.9224 7.86,-5.44107 7.37733,-11.44534 -0.004,-0.0161 0,-0.0343 -0.004,-0.0531"
       style="fill:#231f20;fill-opacity:1;fill-rule:nonzero;stroke:none;stroke-width:0.13333333"
       id="path18" /><path
       inkscape:connector-curvature="0"
       d="m 194.14666,25.895867 c -14.87333,4.95986 -32.09466,-1 -46.248,-10.49854 0.29334,-0.63226 0.76534,-1.1692 1.54,-1.23333 0.292,0 0.60134,0.0215 0.92134,0.0573 8.22,0.94534 26.67866,13.35734 44.86,6.86827 0.052,-0.0177 0.104,-0.0339 0.156,-0.0536 2.27066,-0.8256 4.35066,-1.79587 6.26399,-2.8652 -0.74666,3.388 -3.42399,6.36773 -7.49333,7.72507 z m 10.78933,-9.8344 c -0.084,-1 -0.40133,-1.95987 -0.868,-2.88027 -0.79466,0.56667 -1.57866,1.0896 -2.34933,1.56147 -1.79333,1.1052 -3.49733,1.96666 -5.00266,2.6052 -1.07867,0.46 -2.23867,0.89333 -3.492,1.26933 -6.53067,1.9692 -15.664,2.45213 -29.868,-2.612 -5.94667,-2.14533 -10.916,-4.9364 -15.712,-4.2188 -0.0733,0.012 -0.144,0.0152 -0.21467,0.0281 0,0 -1.252,0.31467 -2.256,1.68547 -0.42667,0.57867 -0.796,2.66933 -0.928,3.0896 0.71067,0.4968 1.42533,0.98747 2.148,1.46347 7.27333,4.7896 14.88933,8.48293 20.05867,9.85213 8.468,2.24693 24.556,3.2536 31.11066,-0.34533 3.50133,-1.9224 7.86,-5.44107 7.37733,-11.44534 -0.004,-0.0161 0,-0.0343 -0.004,-0.0531"
       style="fill:#231f20;fill-opacity:1;fill-rule:nonzero;stroke:none;stroke-width:0.13333333"
       id="path20" /><path
       inkscape:connector-curvature="0"
       d="m 195.22,21.089597 c -18.18134,6.48907 -36.64,-5.92293 -44.86,-6.86827 -0.32,-0.0359 -0.62934,-0.0573 -0.92134,-0.0573 -0.77466,0.0641 -1.24666,0.60107 -1.54,1.23333 14.15334,9.49854 31.37467,15.4584 46.248,10.49854 4.06934,-1.35734 6.74667,-4.33707 7.49333,-7.72507 -1.91333,1.06933 -3.99333,2.0396 -6.26399,2.8652 -0.052,0.0197 -0.104,0.0359 -0.156,0.0536"
       style="fill:#231f20;fill-opacity:1;fill-rule:nonzero;stroke:none;stroke-width:0.13333333"
       id="path22" /><path
       inkscape:connector-curvature="0"
       d="m 179.196,1.2469269 1.09466,1.35414 c 1.468,-0.70214 2.86,-1.57814 4.156,-2.66306995 -2.38666,0.30987 -4.16133,0.81307 -5.25066,1.30892995"
       style="fill:#231f20;fill-opacity:1;fill-rule:nonzero;stroke:none;stroke-width:0.13333333"
       id="path24" /><path
       inkscape:connector-curvature="0"
       d="m 161.31066,28.697327 c 2.57334,1.07454 5.13334,1.96774 7.65867,2.672 -2.848,-1.26773 -5.45867,-2.45053 -6.68667,-2.68813 -0.388,-0.0708 -0.7,-0.0572 -0.972,0.0161"
       style="fill:#231f20;fill-opacity:1;fill-rule:nonzero;stroke:#231f20;stroke-width:0.13333333;stroke-opacity:1"
       id="path26" /><path
       inkscape:connector-curvature="0"
       d="m 145.18266,37.734927 c 0,0 0.084,-0.0271 0.22,-0.0761 -0.15466,-0.0667 -0.31066,-0.1348 -0.464,-0.20253 l 0.244,0.27866"
       style="fill:#231f20;fill-opacity:1;fill-rule:nonzero;stroke:#231f20;stroke-width:0.13333333;stroke-opacity:1"
       id="path28" /><path
       inkscape:connector-curvature="0"
       d="m 127.01826,2.3379969 -1.0844,-3.18586995 c -0.74373,-0.94533005 -1.48853,-1.93493005 -2.23173,-2.95893005 l 1.15053,3.47133005 c 0.66614,0.8516 1.38854,1.74479995 2.1656,2.67346995"
       style="fill:#231f20;fill-opacity:1;fill-rule:nonzero;stroke:none;stroke-width:0.13333333"
       id="path30" /><path
       inkscape:connector-curvature="0"
       d="m 131.1724,7.0062669 -0.91774,-2.7036 c -1.39586,-1.5532 -2.84893,-3.272 -4.3208,-5.15053995 l 1.0844,3.18586995 c 1.24574,1.48693 2.6348,3.05733 4.15414,4.66827"
       style="fill:#231f20;fill-opacity:1;fill-rule:nonzero;stroke:none;stroke-width:0.13333333"
       id="path32" /><path
       inkscape:connector-curvature="0"
       d="M 135.47333,11.327597 134.62,8.8395969 c -0.34134,-0.3256 -0.68,-0.6536 -1.00934,-0.98493 -1.05653,-1.05574 -2.182,-2.2468 -3.356,-3.552 l 0.91774,2.7036 c 1.3312,1.41666 2.7716,2.8672 4.30093,4.3213301"
       style="fill:#231f20;fill-opacity:1;fill-rule:nonzero;stroke:none;stroke-width:0.13333333"
       id="path34" /><path
       inkscape:connector-curvature="0"
       d="m 205.21466,12.326527 c -0.21733,-0.34266 -0.448,-0.676 -0.68533,-0.99533 -0.33734,0.27667 -0.68534,0.5584 -1.04534,0.8396 -0.34666,0.2704 -0.70133,0.5428 -1.068,0.8172 -0.33066,0.24947 -0.66666,0.488 -1.00266,0.7172 -2.84533,1.9536 -5.85867,3.24013 -8.90667,4.024 -9.89733,2.55467 -20.148,-0.14893 -26.132,-2.39427 -8.04933,-3.01773 -15.09066,-5.5322601 -18.77866,-5.1964 -0.468,0.0432 -0.888,0.16414 -1.268,0.34174 -1.00667,0.47133 -1.71734,1.34373 -2.21467,2.24106 -0.8,1.44534 -1.04267,2.95054 -1.04267,2.95054 -0.0307,0.009 -0.0627,0.0188 -0.0907,0.0308 -0.59067,0.20933 -1.23067,0.41613 -1.86,0.61346 0.30933,0.24894 0.61733,0.50267 0.93333,0.75054 0.73867,0.5932 1.49867,1.17866 2.27067,1.7588 3.55333,2.66933 7.42,5.17973 11.56666,7.3344 1.80934,0.93853 3.61867,1.78026 5.42,2.53746 2.57334,1.07454 5.13334,1.96774 7.65867,2.672 12.964,3.61454 24.98533,2.32907 32.89733,-3.65053 5.828,-4.40267 6.16133,-9.00427 4.69467,-12.78547 -0.36,-0.92293 -0.828,-1.79733 -1.34667,-2.6068"
       style="fill:#231f20;fill-opacity:1;fill-rule:nonzero;stroke:none;stroke-width:0.13333333"
       id="path36" /><path
       inkscape:connector-curvature="0"
       d="m 145.18266,37.734927 c 0,0 0.084,-0.0271 0.22,-0.0761 -0.15466,-0.0667 -0.31066,-0.1348 -0.464,-0.20253 l 0.244,0.27866"
       style="fill:#231f20;fill-opacity:1;fill-rule:nonzero;stroke:#231f20;stroke-width:0.13333333;stroke-opacity:1"
       id="path38" /><path
       inkscape:connector-curvature="0"
       d="m 179.196,1.2469269 1.09466,1.35414 c 1.468,-0.70214 2.86,-1.57814 4.156,-2.66306995 -2.38666,0.30987 -4.16133,0.81307 -5.25066,1.30892995"
       style="fill:#231f20;fill-opacity:1;fill-rule:nonzero;stroke:none;stroke-width:0.13333333"
       id="path40" /><path
       inkscape:connector-curvature="0"
       d="m 155.89066,26.159867 c 1.80934,0.93853 3.61867,1.78026 5.42,2.53746 2.57334,1.07454 5.13334,1.96774 7.65867,2.672 12.964,3.61454 24.98533,2.32907 32.89733,-3.65053 5.828,-4.40267 6.16133,-9.00427 4.69467,-12.78547 -0.36,-0.92293 -0.828,-1.79733 -1.34667,-2.6068 -0.21733,-0.34266 -0.448,-0.676 -0.68533,-0.99533 -0.33734,0.27667 -0.68534,0.5584 -1.04534,0.8396 -0.34666,0.2704 -0.70133,0.5428 -1.068,0.8172 -0.33066,0.24947 -0.66666,0.488 -1.00266,0.7172 -2.84533,1.9536 -5.85867,3.24013 -8.90667,4.024 -9.89733,2.55467 -20.148,-0.14893 -26.132,-2.39427 -8.04933,-3.01773 -15.09066,-5.5322601 -18.77866,-5.1964 -0.468,0.0432 -0.888,0.16414 -1.268,0.34174 -1.00667,0.47133 -1.71734,1.34373 -2.21467,2.24106 -0.8,1.44534 -1.04267,2.95054 -1.04267,2.95054 -0.0307,0.009 -0.15466,1.15466 -0.21866,2.02813 0.30933,0.25307 0.7,0.54533 1.472,1.12547 3.55333,2.66933 7.42,5.17973 11.56666,7.3344"
       style="fill:#231f20;fill-opacity:1;fill-rule:nonzero;stroke:none;stroke-width:0.13333333"
       id="path42" /><path
       inkscape:connector-curvature="0"
       d="m 194.14666,25.895867 c -14.87333,4.95986 -32.09466,-1 -46.248,-10.49854 0.29334,-0.63226 0.76534,-1.1692 1.54,-1.23333 0.292,0 0.60134,0.0215 0.92134,0.0573 8.22,0.94534 26.67866,13.35734 44.86,6.86827 0.052,-0.0177 0.104,-0.0339 0.156,-0.0536 2.27066,-0.8256 4.35066,-1.79587 6.26399,-2.8652 -0.74666,3.388 -3.42399,6.36773 -7.49333,7.72507 z m 11.068,-13.56934 c -0.21733,-0.34266 -0.448,-0.676 -0.68533,-0.99533 -0.33734,0.27667 -0.68534,0.5584 -1.04534,0.8396 -0.34666,0.2704 -0.70133,0.5428 -1.068,0.8172 -0.33066,0.24947 -0.66666,0.488 -1.00266,0.7172 -2.84533,1.9536 -5.85867,3.24013 -8.90667,4.024 l 0.71734,0.888 c -6.53067,1.9692 -15.664,2.45213 -29.868,-2.612 -5.94667,-2.14533 -10.916,-4.9364 -15.712,-4.2188 -0.0733,0.012 -0.144,0.0152 -0.21467,0.0281 0,0 -1.252,0.31467 -2.256,1.68547 -0.47067,0.64013 -0.87333,3.136 -0.964,3.1812 -0.284,-0.2 -1.19733,-0.74 -1.16933,-0.75053 0,0 0.044,-0.33067 0.15066,-0.81347 -0.0853,0.34267 -0.12,0.55467 -0.12,0.55467 -0.0307,0.009 -0.15466,1.15466 -0.21866,2.02813 0.30933,0.25307 0.7,0.54533 1.472,1.12547 3.55333,2.66933 7.42,5.17973 11.56666,7.3344 1.80934,0.93853 3.61867,1.78026 5.42,2.53746 2.57334,1.07454 5.13334,1.96774 7.65867,2.672 12.964,3.61454 24.98533,2.32907 32.89733,-3.65053 5.828,-4.40267 6.16133,-9.00427 4.69467,-12.78547 -0.36,-0.92293 -0.828,-1.79733 -1.34667,-2.6068"
       style="fill:#231f20;fill-opacity:1;fill-rule:nonzero;stroke:none;stroke-width:0.13333333"
       id="path44" /><path
       inkscape:connector-curvature="0"
       d="m 226.07866,21.338527 c -0.78533,-5.61613 -5.19333,-9.97973 -12.62933,-13.0229301 -0.89334,-0.3672 -1.82534,-0.71293 -2.80267,-1.04013 0.47867,-0.54 0.95067,-1.10147 1.41333,-1.68387 0.288,-0.36667 0.576,-0.73893 0.856,-1.12333 2.27334,-3.098 4.24267,-6.77187 5.59334,-11.09373 4.36133,-13.9157399 2.01333,-19.2786709 0,-25.3146709 -2.00934,-6.0344 -12.40534,-20.286399 -24.13867,-31.685332 -11.736,-11.4012 -14.58533,-18.2732 -15.25866,-22.799867 -0.66934,-4.526666 1.84666,-11.399999 5.2,-13.579997 16.76399,-9.388 25.81599,4.526664 27.32399,8.549331 1.50934,4.025333 -0.164,14.252 -0.164,14.252 h 11.732 l 6.54,-40.404001 c 0,0 -7.544,-0.33467 -10.39466,-0.33467 -0.672,1.508 -3.01867,5.532 -7.208,5.364 -7.716,-0.336 -7.88,-3.18533 -20.956,-5.02933 -24.31067,-2.51467 -39.23067,17.26667 -38.72533,32.857334 0.5,15.592266 9.88933,26.992266 12.068,29.675199 2.18,2.682267 16.932,19.4452 20.956,25.315066 4.024,5.866667 7.20933,18.441068 -2.34667,26.9906679 -9.55333,8.54946 -24.812,4.8604 -34.20133,-1.17507 -9.388,-6.03386 -15.59067,-20.4515979 -15.59067,-20.4515979 l -4.91507,1.569334 -6.65373,2.118264 5.4412,16.0519999 3.03693,8.95947 c 1.174,1.3052 2.29947,2.49626 3.356,3.552 0.32934,0.33133 0.668,0.65933 1.00934,0.98493 l -2.51427,-7.34013 -6.97507,-20.3634699 4.072,-1.3292 4.14267,-1.3532 c 0,0 2.85067,6.20374 7.54533,11.4 4.69467,5.1979999 11.064,11.2327999 19.78134,13.5791999 6.93466,1.86773 13.86533,1.91987 19.61866,-0.83173 l -1.09466,-1.35414 c 1.08933,-0.49585995 2.864,-0.99905995 5.25066,-1.30892995 0.007,-0.009 0.02,-0.0151 0.0307,-0.0255 6.372,-5.36519005 8.216,-11.90265995 7.544,-18.77652995 -0.67067,-6.871998 -12.236,-20.620397 -15.588,-24.476664 -3.35467,-3.8552 -13.07733,-13.2448 -16.76667,-20.787466 -3.68933,-7.5452 -5.69866,-17.1012 -3.68933,-26.823866 2.01467,-9.724001 10.228,-18.274671 19.616,-21.962671 9.38933,-3.688 18.10667,-2.18 26.48933,0.504 8.38133,2.68267 13.076,2.85067 16.09333,0.336 3.01734,-2.516 2.84934,-3.52133 2.84934,-3.52133 l 7.54533,0.33333 -6.70667,36.884004 -7.544,-0.502667 c 0,0 1.84667,-10.561333 -2.01333,-15.254666 -3.856,-4.694667 -8.38133,-8.720001 -14.58533,-10.226671 -6.20267,-1.51066 -15.25333,2.68 -17.77067,7.878671 -2.51466,5.196 -3.51733,12.069333 1.50934,19.448 5.032,7.375999 14.92133,17.769332 17.43733,21.291199 2.51333,3.518267 13.40933,14.5844 17.93866,23.302133 4.52534,8.7172 3.18267,19.445734 0.83734,24.6442639 -1.50267,3.31974 -2.32134,7.12440005 -5.90934,11.84213 -0.29066,0.3792 -0.59333,0.76307 -0.91866,1.15467 -0.45467,0.5432 -0.948,1.10213 -1.48,1.66667 -0.292,0.31146 -0.59734,0.6256 -0.91467,0.94173 0.468,0.11293 0.928,0.23333 1.37733,0.35773 1.02934,0.28907 2.00267,0.6136 2.92134,0.9652 7.968,3.0505401 11.95466,8.3676001 12.04533,14.0848001 0.10667,7.0052 -5.624,14.6084 -17.05067,19.36827 -18.31733,7.63173 -43.09333,3.2812 -62.34133,-4.924 -0.136,0.0491 -0.22,0.0761 -0.22,0.0761 l -0.244,-0.27866 c -6.716,-2.89747 -12.74333,-6.25894 -17.56053,-9.73747 C 108.71403,14.237407 103.70109,4.3859369 95.750028,-6.3287231 87.800028,-17.042193 82.269361,-36.572994 82.269361,-36.572994 c 0,0 -2.764666,-2.590666 -4.322,-4.666133 -2.588933,-0.690667 -10.369733,-0.5172 -10.369733,-0.5172 0,0 -4.319733,25.750534 -5.0104,29.551604 -0.692133,3.8030599 -1.7292,5.5295999 -0.345333,8.8177299 4.147867,7.77546 10.544267,8.1224 10.544267,8.1224 l -1.555734,7.9500001 -57.380665,-0.17507 1.3828,-8.4666701 c 0,0 7.774933,-0.3464 11.577066,-1.72813 3.805734,-1.38119995 7.4344,-4.66667 8.644267,-10.71453 1.211466,-6.0494699 17.110399,-92.8077369 17.110399,-92.8077369 l -2.590666,-2.76533 c -13.308267,-0.172 -23.852533,7.950668 -23.852533,7.950668 0,0 11.738,9.487999 1.886933,16.747999 -9.851629,7.257393 -20.5661492,2.418727 -20.7406292,-7.433273 -0.17136,-9.852 4.3223862,-18.317334 30.5916662,-24.194664 26.270266,-5.87467 50.529732,-3.61067 63.950534,-2.07334 13.4656,1.54 23.44106,5.25867 30.75106,16.232004 6.21134,9.329333 6.054,15.734667 3.46334,26.102666 -3.23627,12.954 -16.07427,21.9504 -29.1988,26.285333 2.76613,20.047866 9.85413,31.974004 14.3484,38.8880039 0.9084,1.39733 2.1532,3.15266 3.69906,5.13119005 L 123.70213,-3.8068031 C 116.226,-14.085463 108.97866,-28.104134 108.03173,-43.821334 c 4.32093,-1.382266 20.9136,-5.703733 28.3456,-23.850532 7.43067,-18.149467 -3.63253,-33.706804 -11.58253,-39.064134 -7.95054,-5.356 -24.5448,-11.75333 -60.839602,-10.19867 -36.294265,1.55734 -48.913465,10.88934 -49.949465,11.75334 -1.037507,0.864 -15.980213,12.258664 -6.9145865,25.233331 8.8145865,12.617333 36.5005855,0.549333 21.1015195,-15.884 0,0 8.4704,-7.777331 21.777066,-6.569331 -1.7276,8.814664 -16.077066,88.659597 -16.939466,93.3262669 -0.864133,4.66573 -3.800533,8.46879005 -8.8136,9.50573005 C 19.2052,1.4671969 13.674,1.1234669 13.154693,1.1234669 c -0.34584,2.93586 -2.07396,12.4416001 -2.07396,12.4416001 l 60.836465,0.17346 2.2468,-11.7530601 c 0,0 -9.218133,-0.26467 -11.752533,-8.29587 1.728133,-9.1589299 6.2208,-34.0469309 6.2208,-34.0469309 0,0 5.014133,-0.345733 8.987466,0.172934 1.037067,3.802666 9.505733,29.551067 26.099599,48.2161269 16.59053,18.6698701 28.86133,24.5428001 35.25667,27.9974701 6.39466,3.4588 30.93333,13.99893 57.89466,10.71453 26.58533,-3.23586 30.00667,-18.60253 29.244,-25.1292 -0.009,-0.0932 -0.0213,-0.1864 -0.036,-0.276"
       style="fill:#231f20;fill-opacity:1;fill-rule:nonzero;stroke:none;stroke-width:0.13333333"
       id="path46" /><path
       inkscape:connector-curvature="0"
       d="m 92.317198,-56.598933 c -10.025467,5.184933 -21.4308,3.4572 -21.4308,3.4572 1.208934,-6.397334 8.8136,-49.259597 8.8136,-49.259597 0,0 10.024,-1.55334 20.0484,2.939998 10.025062,4.493333 11.578132,16.073333 9.506262,22.985333 -2.0744,6.914666 -6.91146,14.691066 -16.937462,19.877066 z M 109.8964,-91.387999 c -5.18494,-8.296 -13.653736,-12.789331 -30.763069,-12.270671 -1.385466,6.394671 -9.335466,50.985737 -9.335466,50.985737 l 1.902667,2.419866 c 0,0 19.357332,1.2104 30.246398,-9.332933 10.88853,-10.542 13.13427,-23.504666 7.94947,-31.801999"
       style="fill:#231f20;fill-opacity:1;fill-rule:nonzero;stroke:none;stroke-width:0.13333333"
       id="path48" /><path
       inkscape:connector-curvature="0"
       d="m 107.35213,-80.969333 c -0.5172,4.148 -2.93813,15.383867 -16.935999,21.9496 -6.5688,2.766133 -16.2468,2.766133 -16.2468,2.766133 1.383734,-7.0876 7.778,-43.381066 7.778,-43.381066 0,0 10.023467,-0.692004 17.110533,3.110667 7.086936,3.802667 8.812936,11.406666 8.294266,15.554666 z M 216.17999,7.1114669 c -0.456,-0.18654 -0.90933,-0.362 -1.36266,-0.53547 0.26,-0.35 0.51333,-0.69893 0.756,-1.04267 3.584,-5.08599995 5.132,-9.53026 5.452,-10.65106 0.66933,-2.34533 5.03066,-15.9243999 1.34266,-25.8177339 -3.69066,-9.890533 -10.22666,-17.0984 -12.74266,-20.2848 -2.51467,-3.185466 -13.58,-14.417733 -16.59867,-17.938133 -3.016,-3.520266 -6.872,-8.381599 -8.88266,-11.734933 -2.01334,-3.352 -4.52667,-13.411999 3.35466,-17.770666 7.87734,-4.358671 16.76267,-0.166667 20.11333,5.868 3.35467,6.034666 -0.16533,18.607999 -0.16533,18.607999 l 17.94,0.670667 7.71067,-46.773337 c 0,0 -13.244,-0.168 -15.424,-0.168 -4.02267,8.216 -8.55334,5.02934 -20.12,1.508 -11.564,-3.51866 -28.83333,-1.172 -38.55867,10.22667 -7.94266,9.316001 -9.65333,17.920001 -9.76,24.370667 -0.0227,1.444 0.0307,2.78 0.11734,3.993334 0.31466,4.489333 1.66133,9.270666 3.70133,13.831333 2.30133,5.132266 5.488,9.982266 9.128,13.801066 6.87333,7.208266 19.9,22.766666 22.24533,28.298399 2.348,5.532798 3.072,14.7870679 -2.296,19.3114679 -5.364,4.52706005 -15.256,7.712 -28.5,0.50373 -13.244,-7.2083999 -18.272,-23.3015979 -18.272,-23.3015979 l -7.68626,2.282267 -9.24734,2.7464 3.25414,9.553071 c -0.18187,-0.34214 -0.34854,-0.67027 -0.49534,-0.97494 -1.36306,-2.79066 -2.5584,-5.41573 -3.59746,-7.901065 -3.26507,-7.811466 -4.964,-14.207332 -5.30614,-19.784932 6.1776,-1.427067 11.60307,-5.212 15.01867,-8.378133 5.90373,-5.4744 16.52907,-17.818267 14.59973,-34.027066 -1.756,-14.724 -13.5752,-24.110671 -20.28986,-27.910671 -12.03747,-6.81066 -27.643202,-7.412 -40.789069,-7.72933 -13.147333,-0.31467 -22.304132,-0.26667 -46.802532,4.08 -24.7968926,4.4 -35.5015723,18.009334 -32.7390737,31.772001 2.5755146,9.875999 11.4828077,16.049466 25.4401407,11.914666 8.6932,-2.576 10.517733,-13.097333 9.0156,-17.497333 -0.825467,-2.417333 -2.955733,-5.693333 -2.955733,-5.693333 8.646933,-4.581331 12.895333,-4.353333 14.003599,-4.194667 -1.497333,8.273334 -16.458799,92.1513329 -16.458799,92.1513329 -3.8068,7.55106005 -19.03752,5.48333 -19.03752,5.48333 L 8.1229198,15.914527 H 75.365065 c 0,0 2.299466,-13.6390601 2.772933,-16.64946005 -11.420266,0.51146 -12.1896,-4.58067005 -11.8724,-7.74893005 0.317734,-3.1666699 4.1704,-26.5926709 4.644267,-28.6521369 0,0 1.167733,-0.4104 4.9708,0.0652 4.593333,15.045732 13.087066,30.1171969 19.420399,39.6181269 C 105.99533,18.583867 128.1948,34.674527 142.604,41.071867 c 14.83466,6.5812 42.852,13.64272 64.07733,6.51613 21.22266,-7.12653 22.12133,-18.5292 22.57733,-22.14013 0.30267,-2.41294 0.0867,-4.83427 -0.75733,-7.152 -1.59867,-4.38907 -5.45734,-8.3876001 -12.32134,-11.1844001"
       style="fill:#231f20;fill-opacity:1;fill-rule:nonzero;stroke:none;stroke-width:0.13333333"
       id="path50" /><path
       inkscape:connector-curvature="0"
       d="m 152.856,-64.094266 c 0.64666,1.179733 1.232,2.421866 1.912,3.619733 4.456,7.8584 12.76,14.015733 21.67466,25.851066 5.76667,7.6552 12.92534,17.797464 5.65867,27.7557339 -6.80933,9.32973 -30.81733,5.44013 -33.16533,-7.3010699 l -13.244,-15.256664 -6.70027,2.050933 c 17.61493,-12.318133 22.74693,-26.492133 23.86427,-36.719732 z m 76.40266,89.542133 c -0.456,3.61093 -1.35467,15.0136 -22.57733,22.14013 -21.22533,7.12659 -49.24267,0.0651 -64.07733,-6.51613 -14.4092,-6.39734 -36.60867,-22.488 -47.302936,-38.5245401 -6.333333,-9.50093 -14.827066,-24.5723949 -19.420399,-39.6181269 -3.803067,-0.4756 -4.9708,-0.0652 -4.9708,-0.0652 -0.473867,2.059466 -4.326533,25.485467 -4.644267,28.6521369 -0.3172,3.16826 0.452134,8.26039005 11.8724,7.74893005 C 77.664531,2.2754669 75.365065,15.914527 75.365065,15.914527 H 8.1229198 L 11.285413,-2.0240031 c 0,0 16.924986,3.02187005 19.378186,-6.05306 2.001467,-7.4051999 14.6208,-83.3082689 16.118133,-91.5816029 -1.108266,-0.158666 -5.356666,-0.386664 -14.003599,4.194667 0,0 2.130266,3.276 2.955733,5.693333 1.502133,4.4 -0.3224,14.921333 -9.0156,17.497333 C 12.760933,-68.138533 3.8536399,-74.312 1.2781253,-84.187999 -1.4843733,-97.950666 9.2203064,-111.56 34.017199,-115.96 c 24.4984,-4.34667 33.655199,-4.39467 46.802532,-4.08 13.145867,0.31733 28.751599,0.91867 40.789069,7.72933 6.71466,3.8 18.53386,13.186671 20.28986,27.910671 1.92934,16.208799 -8.696,28.552666 -14.59973,34.027066 -3.4156,3.166133 -8.84107,6.951066 -15.01867,8.378133 0.34214,5.5776 2.04107,11.973466 5.30614,19.784932 1.03906,2.485335 2.2344,5.110405 3.59746,7.901065 0.1468,0.30467 0.31347,0.6328 0.49534,0.97494 l -3.25414,-9.553071 9.24734,-2.7464 7.68626,-2.282267 c 0,0 5.028,16.093198 18.272,23.3015979 13.244,7.20827 23.136,4.02333005 28.5,-0.50373 5.368,-4.5244 5.08667,-13.4661299 2.16667,-19.6629339 -3.28133,-6.959467 -15.24267,-20.738667 -22.116,-27.946933 -3.64,-3.8188 -6.82667,-8.6688 -9.128,-13.801066 -2.04,-4.560667 -3.38667,-9.342 -3.70133,-13.831333 -0.0867,-1.213334 -0.14,-2.549334 -0.11734,-3.993334 0.10667,-6.450666 1.81734,-15.054666 9.76,-24.370667 9.72534,-11.39867 26.99467,-13.74533 38.55867,-10.22667 11.56666,3.52134 16.09733,6.708 20.12,-1.508 2.18,0 15.424,0.168 15.424,0.168 l -7.71067,46.773337 -17.94,-0.670667 c 0,0 3.52,-12.573333 0.16533,-18.607999 -3.35066,-6.034667 -12.23599,-10.226671 -20.11333,-5.868 -7.88133,4.358667 -5.368,14.418666 -3.35466,17.770666 2.01066,3.353334 5.86666,8.214667 8.88266,11.734933 3.01867,3.5204 14.084,14.752667 16.59867,17.938133 2.516,3.1864 9.052,10.394267 12.74266,20.2848 3.688,9.893334 -0.67333,23.4724039 -1.34266,25.8177339 -0.32,1.1208 -1.868,5.56506005 -5.452,10.65106 -0.24267,0.34374 -0.496,0.69267 -0.756,1.04267 0.45333,0.17347 0.90666,0.34893 1.36266,0.53547 6.864,2.7968 10.72267,6.7953301 12.32134,11.1844001 0.844,2.31773 1.06,4.73906 0.75733,7.152 z m 1.87333,-11.73427 c 3.28534,-6.5510701 5.132,-14.16827005 4.47867,-22.3521301 -1.844,-23.1344009 -32.188,-50.6281339 -38.392,-58.0035999 0,0 -6.704,-10.228533 -0.332,-15.9272 4.86,-3.354666 7.37467,-3.521333 10.89467,-2.681333 0,0 -0.33467,6.705333 -1.67734,11.901333 1.67734,1.676 13.41334,15.926933 13.41334,15.926933 5.196,0.334933 18.14933,1.431733 18.14933,1.431733 l 8.00267,-51.726663 -11.90267,-13.74667 -17.436,-0.336 c 0,0 -0.50133,4.69467 -3.856,5.19733 C 209.11999,-116.1 197.388,-121.464 189.34,-121.632 c -8.04534,-0.168 -21.62534,0.67067 -32.69067,13.748 -5.164,6.1 -8.108,13.489334 -8.73867,21.180001 -2.792,-4.797333 -5.81866,-9.118667 -5.81866,-9.118667 -18.27747,-22.940004 -38.02227,-23.798664 -45.016536,-24.534664 -6.992133,-0.73734 -27.352532,-2.57334 -47.717065,0.37066 -20.364133,2.944 -32.751599,8.22 -34.223466,9.07734 -1.471867,0.86 -11.7771198,6.87466 -14.1062877,14.847998 -2.3312493,7.973333 -0.12447866,14.722666 0.981768,16.685333 1.1041733,1.964 4.4161465,5.765333 9.0791727,11.409333 4.660414,5.642666 8.462547,8.464533 14.10628,10.673466 5.644267,2.207733 13.004133,-1.102667 13.004133,-1.102667 0,0 -7.123466,41.481334 -8.0964,46.737464 -1.116666,6.0338699 -2.955733,7.1786699 -7.3588,8.3443999 -3.513066,0.928 -12.269279,-0.1256 -12.269279,-0.1256 l -3.8552135,19.8464001 12.4051595,14.0828 68.903198,0.33587 3.018667,-18.44267 -11.903066,-14.0812001 c 0,0 1.8432,-9.5557299 3.184933,-16.2614599 9.554666,21.6259899 33.362532,47.61199 43.922402,56.15986 10.56173,8.55053 30.17773,20.95729 52.81106,24.31041 22.632,3.35104 39.384,1.15365 51.96933,-7.71197 11.75334,-8.28124 18.13467,-28.20524 0.2,-41.08484"
       style="fill:#231f20;fill-opacity:1;fill-rule:nonzero;stroke:none;stroke-width:0.13333333"
       id="path52" /><path
       inkscape:connector-curvature="0"
       d="m 103.55,-71.809333 c -2.93854,5.185867 -8.986002,10.542666 -14.170802,11.579066 1.555733,-7.258799 4.838533,-25.751066 4.838533,-25.751066 0,0 6.568269,-0.690666 11.581199,1.381334 0.34587,1.904 0.69067,7.605333 -2.24893,12.790666 z m -4.492136,-24.714666 c -7.087066,-3.802671 -17.110533,-3.110667 -17.110533,-3.110667 0,0 -6.394266,36.293466 -7.778,43.381066 0,0 9.678,0 16.2468,-2.766133 13.997869,-6.565733 16.418799,-17.8016 16.935999,-21.9496 0.51867,-4.148 -1.20733,-11.751999 -8.294266,-15.554666"
       style="fill:#231f20;fill-opacity:1;fill-rule:nonzero;stroke:none;stroke-width:0.13333333"
       id="path54" /><path
       inkscape:connector-curvature="0"
       d="m 201.63999,18.170797 c 0.21067,-0.9588 0.27334,-1.9536 0.16,-2.94947 -0.0173,-0.16146 -0.0507,-0.31866 -0.0813,-0.47866 0.77067,-0.47187 1.55467,-0.9948 2.34933,-1.56147 0.46667,0.9204 0.784,1.88027 0.868,2.88027 0.004,0.0188 0,0.0369 0.004,0.0531 -1.04,0.7172 -2.13866,1.4052 -3.3,2.05627 z m 3.57467,-5.84427 c -0.21733,-0.34266 -0.448,-0.676 -0.68533,-0.99533 -0.33734,0.27667 -0.68534,0.5584 -1.04534,0.8396 -0.34666,0.2704 -0.70133,0.5428 -1.068,0.8172 -0.33066,0.24947 -0.66666,0.488 -1.00266,0.7172 -2.84533,1.9536 -5.85867,3.24013 -8.90667,4.024 -9.89733,2.55467 -20.148,-0.14893 -26.132,-2.39427 -8.04933,-3.01773 -15.09066,-5.5322601 -18.77866,-5.1964 -0.468,0.0432 -0.888,0.16414 -1.268,0.34174 -1.00667,0.47133 -1.71734,1.34373 -2.21467,2.24106 -0.5,0.9016 -0.78133,1.82814 -0.92267,2.39587 -0.0853,0.34267 -0.12,0.55467 -0.12,0.55467 -0.0307,0.009 -0.15466,1.15466 -0.21866,2.02813 0.30933,0.25307 0.7,0.54533 1.472,1.12547 3.55333,2.66933 7.42,5.17973 11.56666,7.3344 1.80934,0.93853 3.61867,1.78026 5.42,2.53746 2.57334,1.07454 5.13334,1.96774 7.65867,2.672 12.964,3.61454 24.98533,2.32907 32.89733,-3.65053 5.828,-4.40267 6.16133,-9.00427 4.69467,-12.78547 -0.36,-0.92293 -0.828,-1.79733 -1.34667,-2.6068"
       style="fill:#231f20;fill-opacity:1;fill-rule:nonzero;stroke:none;stroke-width:0.13333333"
       id="path56" /><path
       inkscape:connector-curvature="0"
       d="m 201.63999,18.170797 c 0.21067,-0.9588 0.27334,-1.9536 0.16,-2.94947 -0.0173,-0.16146 -0.0507,-0.31866 -0.0813,-0.47866 -1.79333,1.1052 -3.49733,1.96666 -5.00266,2.6052 -1.07867,0.46 -2.23867,0.89333 -3.492,1.26933 -6.53067,1.9692 -15.664,2.45213 -29.868,-2.612 -5.94667,-2.14533 -10.916,-4.9364 -15.712,-4.2188 -0.0733,0.012 -0.144,0.0152 -0.21467,0.0281 0,0 -1.252,0.31467 -2.256,1.68547 -0.42667,0.57867 -0.796,2.66933 -0.928,3.0896 0.71067,0.4968 1.42533,0.98747 2.148,1.46347 7.27333,4.7896 14.88933,8.48293 20.05867,9.85213 8.468,2.24693 24.556,3.2536 31.11066,-0.34533 3.50133,-1.9224 7.86,-5.44107 7.37733,-11.44534 -1.04,0.7172 -2.13866,1.4052 -3.3,2.05627"
       style="fill:#231f20;fill-opacity:1;fill-rule:nonzero;stroke:none;stroke-width:0.13333333"
       id="path58" /><path
       inkscape:connector-curvature="0"
       d="m 197.56266,27.559867 c -6.55466,3.59893 -22.64266,2.59226 -31.11066,0.34533 -5.16934,-1.3692 -12.78534,-5.06253 -20.05867,-9.85213 -0.72267,-0.476 -1.43733,-0.96667 -2.148,-1.46347 0.132,-0.42027 0.50133,-2.51093 0.928,-3.0896 1.004,-1.3708 2.256,-1.68547 2.256,-1.68547 0.0707,-0.0129 0.14133,-0.0161 0.21467,-0.0281 4.796,-0.7176 9.76533,2.07347 15.712,4.2188 14.204,5.06413 23.33733,4.5812 29.868,2.612 1.25333,-0.376 2.41333,-0.80933 3.492,-1.26933 1.50533,-0.63854 3.20933,-1.5 5.00266,-2.6052 0.77067,-0.47187 1.55467,-0.9948 2.34933,-1.56147 0.46667,0.9204 0.784,1.88027 0.868,2.88027 0.004,0.0188 0,0.0369 0.004,0.0531 0.48267,6.00427 -3.876,9.52294 -7.37733,11.44534 z m 8.99867,-12.62654 c -0.36,-0.92293 -0.828,-1.79733 -1.34667,-2.6068 -0.21733,-0.34266 -0.448,-0.676 -0.68533,-0.99533 -0.33734,0.27667 -0.68534,0.5584 -1.04534,0.8396 -0.34666,0.2704 -0.70133,0.5428 -1.068,0.8172 -0.33066,0.24947 -0.66666,0.488 -1.00266,0.7172 -2.84533,1.9536 -5.85867,3.24013 -8.90667,4.024 -9.89733,2.55467 -20.148,-0.14893 -26.132,-2.39427 -8.04933,-3.01773 -15.09066,-5.5322601 -18.77866,-5.1964 -0.468,0.0432 -0.888,0.16414 -1.268,0.34174 -1.00667,0.47133 -1.71734,1.34373 -2.21467,2.24106 -0.5,0.9016 -0.78133,1.82814 -0.92267,2.39587 -0.10666,0.4828 -0.37866,0.78013 -0.37866,0.78013 -0.0187,0.008 -0.35467,0.20947 -0.0213,0.4172 -0.456,0.22147 -0.104,0.5052 -0.73733,0.75214 0.73867,0.5932 1.49867,1.17866 2.27067,1.7588 3.55333,2.66933 7.42,5.17973 11.56666,7.3344 1.80934,0.93853 3.61867,1.78026 5.42,2.53746 0.272,-0.0733 0.584,-0.0869 0.972,-0.0161 1.228,0.2376 3.83867,1.4204 6.68667,2.68813 12.964,3.61454 24.98533,2.32907 32.89733,-3.65053 5.828,-4.40267 6.16133,-9.00427 4.69467,-12.78547"
       style="fill:#231f20;fill-opacity:1;fill-rule:nonzero;stroke:none;stroke-width:0.13333333"
       id="path60" /><path
       inkscape:connector-curvature="0"
       d="m 201.86666,27.718797 c -7.912,5.9796 -19.93333,7.26507 -32.89733,3.65053 -2.52533,-0.70426 -5.08533,-1.59746 -7.65867,-2.672 -1.80133,-0.7572 -3.61066,-1.59893 -5.42,-2.53746 -4.14666,-2.15467 -7.90133,-4.53067 -11.45333,-7.2 -0.772,-0.57867 -1.004,-0.6828 -1.31333,-0.93747 0.064,-0.87293 0.12666,-1.84787 0.15733,-1.85733 0,0 0.0347,-0.212 0.12,-0.55307 0.14133,-0.56933 0.424,-1.4948 0.924,-2.39747 0.496,-0.89733 1.20667,-1.76973 2.21333,-2.24106 0.38,-0.17707 0.8,-0.29854 1.268,-0.3412 3.688,-0.33587 7.52934,0.924 18.51334,5.27186 5.94266,2.3532 16.28933,4.37974 26.18666,1.82507 3.048,-0.78387 6.06134,-2.0704 8.90667,-4.024 0.336,-0.2292 0.672,-0.46773 1.00266,-0.7172 0.36667,-0.2744 0.72134,-0.5468 1.068,-0.8172 0.36,-0.2812 0.708,-0.56293 1.04534,-0.8396 0.23733,0.31933 0.468,0.65267 0.68533,0.99533 0.51867,0.80947 0.98667,1.68387 1.34667,2.6068 1.46666,3.7812 1.13333,8.3828 -4.69467,12.78547 z M 71.700532,-50.253067 69.797865,-52.672933 c 0,0 7.95,-44.591066 9.335466,-50.985737 17.109333,-0.51866 25.578129,3.974671 30.763069,12.270671 5.1848,8.297333 2.93906,21.259999 -7.94947,31.801999 -10.889066,10.543333 -30.246398,9.332933 -30.246398,9.332933 z M 212.74933,9.1297269 c -0.91867,-0.3516 -1.892,-0.67613 -2.92134,-0.9652 -0.44933,-0.1244 -0.90933,-0.2448 -1.37733,-0.35773 0.31733,-0.31613 0.62267,-0.63027 0.91467,-0.94173 0.532,-0.56454 1.02533,-1.12347 1.48,-1.66667 0.32533,-0.3916 0.628,-0.77547 0.91866,-1.15467 3.588,-4.71772995 4.852,-8.15626 6.108,-11.80106 1.19734,-3.4713299 2.40934,-8.9462699 1.79467,-14.8656009 -0.376,-3.604133 -1.20933,-6.687467 -2.83067,-9.819733 -5.92666,-11.4464 -13.83066,-20.2324 -17.25599,-23.888533 -2.96134,-3.157867 -13.088,-13.3288 -18.12,-20.704799 -5.02667,-7.378667 -4.024,-14.252 -1.50934,-19.448 2.51734,-5.198671 11.568,-9.389331 17.77067,-7.878671 6.204,1.50667 11.00266,5.277338 14.476,10.261338 3.34533,4.801333 2.12266,15.219999 2.12266,15.219999 l 7.544,0.502667 6.70667,-36.884004 -7.54533,-0.33333 c 0,0 0.168,1.00533 -2.84934,3.52133 -3.01733,2.51467 -7.712,2.34667 -16.09333,-0.336 -8.38266,-2.684 -17.1,-4.192 -26.48933,-0.504 -9.388,3.688 -17.60133,12.23867 -19.616,21.962671 -2.00933,9.722666 0,19.278666 3.68933,26.823866 3.68934,7.542666 13.412,16.932266 16.76667,20.787466 3.352,3.856267 14.91733,17.604666 15.588,24.476664 0.672,6.87387 -1.172,13.4113399 -7.544,18.77652995 -0.0107,0.0104 -0.024,0.0167 -0.0307,0.0255 -1.296,1.08492995 -2.688,1.96092995 -4.156,2.66306995 -5.75333,2.7516 -12.684,2.69946 -19.61866,0.83173 -8.71734,-2.3464 -15.08667,-8.3812 -19.78134,-13.5791999 -4.69466,-5.19626 -7.54533,-11.4 -7.54533,-11.4 l -4.14267,1.3532 -4.072,1.3292 6.97507,20.3634699 2.51427,7.34013 0.85333,2.4880001 c -1.52933,-1.4541301 -2.96973,-2.9046701 -4.30093,-4.3213301 -1.51934,-1.61094 -2.9084,-3.18134 -4.15414,-4.66827 -0.77706,-0.92867 -1.49946,-1.82186995 -2.1656,-2.67346995 -1.54586,-1.97853005 -2.79066,-3.73386005 -3.69906,-5.13119005 -4.49427,-6.9139999 -11.58227,-18.8401379 -14.3484,-38.8880039 13.12453,-4.334933 25.96253,-13.331333 29.1988,-26.285333 2.59066,-10.367999 2.748,-16.773333 -3.46334,-26.102666 -7.30997,-10.973364 -17.28543,-14.692034 -30.75103,-16.232034 -13.420802,-1.53733 -37.680268,-3.80133 -63.950534,2.07334 -26.26928,5.87733 -30.7630262,14.342664 -30.5916662,24.194664 0.17448,9.852 10.8890002,14.690666 20.7405992,7.433333 9.851067,-7.26 -1.886933,-16.747999 -1.886933,-16.747999 0,0 10.544266,-8.122668 23.852533,-7.950668 l 2.590666,2.76533 c 0,0 -15.898933,86.758267 -17.110399,92.8077369 -1.209867,6.04786 -4.838533,9.33333005 -8.644267,10.71453 -3.802133,1.38173 -11.577066,1.72813 -11.577066,1.72813 l -1.3828,8.4666701 57.380665,0.17507 1.555734,-7.9500001 c 0,0 -6.3964,-0.34694 -10.544267,-8.1224 -1.383867,-3.28813 -0.3468,-5.01467 0.345333,-8.8177299 0.690667,-3.80107 5.0104,-29.551604 5.0104,-29.551604 0,0 7.7808,-0.173467 10.369733,0.5172 1.557334,2.075467 4.322,4.666133 4.322,4.666133 0,0 5.530667,19.530801 13.480667,30.2442709 7.951062,10.71466 12.964002,20.5661301 31.628132,34.0474601 4.8172,3.47853 10.84453,6.84 17.56053,9.73747 0.15334,0.0677 0.30934,0.13586 0.464,0.20253 19.248,8.2052 44.024,12.55573 62.34133,4.924 11.42667,-4.75987 17.15734,-12.36307 17.05067,-19.36827 -0.0907,-5.7172 -4.07733,-11.03426 -12.04533,-14.0848001"
       style="fill:#ed192d;fill-opacity:1;fill-rule:nonzero;stroke:none;stroke-width:0.13333333"
       id="path62" /><path
       inkscape:connector-curvature="0"
       d="m 194.14666,25.895867 c -14.87333,4.95986 -32.09466,-1 -46.248,-10.49854 0.29334,-0.63226 0.76534,-1.1692 1.54,-1.23333 0.292,0 0.60134,0.0215 0.92134,0.0573 8.22,0.94534 26.67866,13.35734 44.86,6.86827 0.052,-0.0177 0.104,-0.0339 0.156,-0.0536 2.27066,-0.8256 4.35066,-1.79587 6.26399,-2.8652 -0.74666,3.388 -3.42399,6.36773 -7.49333,7.72507 z m -50.09066,-9.4292 c 0.77333,0.54266 1.55333,1.0708 2.33733,1.5864 7.27333,4.7896 14.88933,8.48293 20.05867,9.85213 8.468,2.24693 24.556,3.2536 31.11066,-0.34533 3.50133,-1.9224 7.86,-5.44107 7.37733,-11.44534 -0.004,-0.0161 0,-0.0343 -0.004,-0.0531 -0.084,-1 -0.40133,-1.95987 -0.868,-2.88027 -0.79466,0.56667 -1.57866,1.0896 -2.34933,1.56147 -1.79333,1.1052 -3.49733,1.96666 -5.00266,2.6052 -1.07867,0.46 -2.23867,0.89333 -3.492,1.26933 -6.53067,1.9692 -15.664,2.45213 -29.868,-2.612 -5.94667,-2.14533 -10.916,-4.9364 -15.712,-4.2188 -0.0733,0.012 -0.144,0.0152 -0.21467,0.0281 0,0 -1.252,0.31467 -2.256,1.68547 -0.47067,0.64013 -0.88533,1.5052 -1.1,2.67347"
       style="fill:#ffffff;fill-opacity:1;fill-rule:nonzero;stroke:none;stroke-width:0.13333333"
       id="path64" /><path
       inkscape:connector-curvature="0"
       d="m 196.87066,46.743727 c -26.96133,3.2844 -51.5,-7.25573 -57.89466,-10.71453 -6.39534,-3.45467 -18.66614,-9.3276 -35.25667,-27.9974701 C 87.125464,-10.633333 78.656798,-36.381734 77.619731,-40.1844 c -3.973333,-0.518667 -8.987466,-0.172934 -8.987466,-0.172934 0,0 -4.492667,24.888001 -6.2208,34.0469309 2.246933,8.29587 11.752533,8.29587 11.752533,8.29587 l -2.2468,11.7530601 -60.836465,-0.17346 c 0,0 1.72812,-9.5057401 2.07396,-12.4416001 0.519307,0 6.050507,0.34373 11.061973,-0.69279995 5.013067,-1.03694 7.949467,-4.84000005 8.8136,-9.50573005 0.8624,-4.6666699 15.211866,-84.5116029 16.939466,-93.3262669 -13.306666,-1.208 -21.777066,6.569331 -21.777066,6.569331 15.399066,16.433333 -12.286933,28.501333 -21.1015195,15.884 -9.0656265,-12.974667 5.8770795,-24.369331 6.9145865,-25.233331 1.036,-0.864 13.6552,-10.196 49.949465,-11.75334 36.294802,-1.55466 52.889062,4.84267 60.839602,10.19867 7.95,5.35733 19.0132,20.914667 11.58253,39.064134 -7.432,18.146799 -24.02467,22.468266 -28.3456,23.850532 0.94693,15.7172 8.19427,29.735871 15.6704,40.0145309 0.7432,1.024 1.488,2.0136 2.23173,2.95893005 1.47187,1.87853995 2.92494,3.59733995 4.3208,5.15053995 l -3.03693,-8.95947 -5.4412,-16.0519999 6.65373,-2.118264 4.91507,-1.569334 c 0,0 6.20267,14.4177379 15.59067,20.4515979 9.38933,6.03547 24.648,9.72453 34.20133,1.17507 9.556,-8.5495999 6.37067,-21.1240009 2.34667,-26.9906679 C 181.46,-35.630267 166.708,-52.3932 164.528,-55.075467 162.34933,-57.7584 152.96,-69.1584 152.46,-84.750666 c -0.50534,-15.590664 14.41466,-35.372004 38.72533,-32.857334 13.076,1.844 13.24,4.69333 20.956,5.02933 4.18933,0.168 6.536,-3.856 7.208,-5.364 2.85066,0 10.39466,0.33467 10.39466,0.33467 l -6.54,40.404001 h -11.732 c 0,0 1.67334,-10.226667 0.164,-14.252 -1.508,-4.022667 -10.56,-17.937331 -27.32399,-8.549331 -3.35334,2.179998 -5.86934,9.053331 -5.2,13.579997 0.67333,4.526667 3.52266,11.398667 15.25866,22.799867 11.73333,11.398933 22.12933,25.650932 24.13867,31.685332 2.01333,6.036 4.36133,11.398931 0,25.3146709 -1.35067,4.32186 -3.32,7.99573 -5.59334,11.09373 -0.28,0.3844 -0.568,0.75666 -0.856,1.12333 -0.46266,0.5824 -0.93466,1.14387 -1.41333,1.68387 0.97733,0.3272 1.90933,0.67293 2.80267,1.04013 7.436,3.0432001 11.844,7.4068001 12.62933,13.0229301 0.0147,0.0896 0.0267,0.1828 0.036,0.276 0.76267,6.52667 -2.65867,21.89334 -29.244,25.1292 z M 216.17999,7.1114669 c -0.456,-0.18654 -0.90933,-0.362 -1.36266,-0.53547 0.26,-0.35 0.51333,-0.69893 0.756,-1.04267 3.584,-5.08599995 5.132,-9.53026 5.452,-10.65106 0.66933,-2.34533 5.03066,-15.9243999 1.34266,-25.8177339 -3.69066,-9.890533 -10.22666,-17.0984 -12.74266,-20.2848 -2.51467,-3.185466 -13.58,-14.417733 -16.59867,-17.938133 -3.016,-3.520266 -6.872,-8.381599 -8.88266,-11.734933 -2.01334,-3.352 -4.52667,-13.411999 3.35466,-17.770666 7.87734,-4.358671 16.76267,-0.166667 20.11333,5.868 3.35467,6.034666 -0.16533,18.607999 -0.16533,18.607999 l 17.94,0.670667 7.71067,-46.773337 c 0,0 -13.244,-0.168 -15.424,-0.168 -4.02267,8.216 -8.55334,5.02934 -20.12,1.508 -11.564,-3.51866 -28.83333,-1.172 -38.55867,10.22667 -7.94266,9.316001 -9.65333,17.920001 -9.76,24.370667 -0.0227,1.444 0.0307,2.78 0.11734,3.993334 0.31466,4.489333 1.66133,9.270666 3.70133,13.831333 2.30133,5.132266 5.488,9.982266 9.128,13.801066 6.87333,7.208266 19.9,22.766666 22.24533,28.298399 2.348,5.532798 3.072,14.7870679 -2.296,19.3114679 -5.364,4.52706005 -15.256,7.712 -28.5,0.50373 -13.244,-7.2083999 -18.272,-23.3015979 -18.272,-23.3015979 l -7.68626,2.282267 -9.24734,2.7464 3.25414,9.553071 c -0.18187,-0.34214 -0.34854,-0.67027 -0.49534,-0.97494 -1.36306,-2.79066 -2.5584,-5.41573 -3.59746,-7.901065 -3.26507,-7.811466 -4.964,-14.207332 -5.30614,-19.784932 6.1776,-1.427067 11.60307,-5.212 15.01867,-8.378133 5.90373,-5.4744 16.52907,-17.818267 14.59973,-34.027066 -1.756,-14.724 -13.5752,-24.110671 -20.28986,-27.910671 -12.03747,-6.81066 -27.643202,-7.412 -40.789069,-7.72933 -13.147333,-0.31467 -22.304132,-0.26667 -46.802532,4.08 -24.7968926,4.4 -35.5015723,18.009334 -32.7390737,31.772001 2.5755146,9.875999 11.4828077,16.049466 25.4401407,11.914666 8.6932,-2.576 10.517733,-13.097333 9.0156,-17.497333 -0.825467,-2.417333 -2.955733,-5.693333 -2.955733,-5.693333 8.646933,-4.581331 12.895333,-4.353333 14.003599,-4.194667 -1.497333,8.273334 -16.458799,92.1513329 -16.458799,92.1513329 -3.8068,7.55106005 -19.03752,5.48333 -19.03752,5.48333 L 8.1229198,15.914527 H 75.365065 c 0,0 2.299466,-13.6390601 2.772933,-16.64946005 -11.420266,0.51146 -12.1896,-4.58067005 -11.8724,-7.74893005 0.317734,-3.1666699 4.1704,-26.5926709 4.644267,-28.6521369 0,0 1.167733,-0.4104 4.9708,0.0652 4.593333,15.045732 13.087066,30.1171969 19.420399,39.6181269 C 105.99533,18.583867 128.1948,34.674527 142.604,41.071867 c 14.83466,6.5812 42.852,13.64272 64.07733,6.51613 21.22266,-7.12653 22.12133,-18.5292 22.57733,-22.14013 0.30267,-2.41294 0.0867,-4.83427 -0.75733,-7.152 -1.59867,-4.38907 -5.45734,-8.3876001 -12.32134,-11.1844001"
       style="fill:#ffffff;fill-opacity:1;fill-rule:nonzero;stroke:none;stroke-width:0.13333333"
       id="path66" /><path
       inkscape:connector-curvature="0"
       d="m 107.35213,-80.969333 c -0.5172,4.148 -2.93813,15.383867 -16.935999,21.9496 -6.5688,2.766133 -16.2468,2.766133 -16.2468,2.766133 1.383734,-7.0876 7.778,-43.381066 7.778,-43.381066 0,0 10.023467,-0.692004 17.110533,3.110667 7.086936,3.802667 8.812936,11.406666 8.294266,15.554666 z m -7.603732,-18.491999 c -10.0244,-4.493338 -20.0484,-2.939998 -20.0484,-2.939998 0,0 -7.604666,42.862263 -8.8136,49.259597 0,0 11.405333,1.727733 21.4308,-3.4572 10.026002,-5.186 14.863062,-12.9624 16.937462,-19.877066 2.07187,-6.912 0.5188,-18.492 -9.506262,-22.985333"
       style="fill:#ffffff;fill-opacity:1;fill-rule:nonzero;stroke:none;stroke-width:0.13333333"
       id="path68" /><path
       inkscape:connector-curvature="0"
       d="m 219.22533,-72.156 c 1.432,1.954667 2.99866,3.723734 4.61333,5.454934 -2,-2.324934 -3.708,-4.350934 -4.616,-5.496267 l 0.003,0.04133"
       style="fill:#231f20;fill-opacity:1;fill-rule:nonzero;stroke:none;stroke-width:0.13333333"
       id="path70" /><path
       inkscape:connector-curvature="0"
       d="m 219.15199,-73.328 0.016,0.253334 0.24934,0.01733 c -0.0893,-0.08933 -0.17467,-0.181333 -0.26534,-0.270667"
       style="fill:#231f20;fill-opacity:1;fill-rule:nonzero;stroke:none;stroke-width:0.13333333"
       id="path72" /><path
       inkscape:connector-curvature="0"
       d="m 233.00133,-115.01067 c -0.14667,0.73334 -0.44134,1.468 -0.36534,2.27467 2.584,3.1 7.12134,8.10933 10.73067,11.82933 l 0.35867,-2.424 c -3.43067,-3.884 -7.87734,-8.60533 -10.724,-11.68"
       style="fill:#231f20;fill-opacity:1;fill-rule:nonzero;stroke:none;stroke-width:0.13333333"
       id="path74" /><path
       inkscape:connector-curvature="0"
       d="m 231.16799,-104.74267 c 2.60134,3.16667 7.23867,8.412004 10.94134,12.330671 l 0.392,-2.649333 c -3.476,-3.928 -8.032,-8.963998 -10.82134,-11.807998 -0.22,0.66 -0.36533,1.39333 -0.512,2.12666"
       style="fill:#231f20;fill-opacity:1;fill-rule:nonzero;stroke:none;stroke-width:0.13333333"
       id="path76" /><path
       inkscape:connector-curvature="0"
       d="m 229.84666,-96.309332 c 2.67467,2.848 7.344,8.621333 10.99333,12.466666 l 0.376,-2.537333 c -3.52133,-4.034667 -8.25333,-9.365333 -11.00133,-12.056 l -0.368,2.126667"
       style="fill:#231f20;fill-opacity:1;fill-rule:nonzero;stroke:none;stroke-width:0.13333333"
       id="path78" /><path
       inkscape:connector-curvature="0"
       d="m 238.55066,-68.379733 c -3.54933,-4.070933 -8.48,-9.6376 -11.308,-12.406933 l -0.368,2.125333 c 2.74933,2.929333 7.61333,8.957333 11.30267,12.794667 l 0.37333,-2.513067"
       style="fill:#231f20;fill-opacity:1;fill-rule:nonzero;stroke:none;stroke-width:0.13333333"
       id="path80" /><path
       inkscape:connector-curvature="0"
       d="m 228.43599,-87.362666 11.07467,12.490666 0.37067,-2.498666 c -3.84934,-4.346667 -9.364,-10.370667 -11.08134,-12.192 l -0.364,2.2"
       style="fill:#231f20;fill-opacity:1;fill-rule:nonzero;stroke:none;stroke-width:0.13333333"
       id="path82" /><path
       inkscape:connector-curvature="0"
       d="M 229.46533,-57.598933 215.68666,-73.136 l -2.34267,-0.148 c 0.468,0.885334 8.29467,9.970934 13.252,15.467867 l 2.86934,0.2172"
       style="fill:#231f20;fill-opacity:1;fill-rule:nonzero;stroke:none;stroke-width:0.13333333"
       id="path84" /><path
       inkscape:connector-curvature="0"
       d="m 227.21866,-63.136 c -1.13733,-1.195733 -2.268,-2.3728 -3.38,-3.565066 2.644,3.072933 5.77333,6.639066 8.17333,9.294799 l 2.56134,0.194267 -13.97734,-15.76 -1.17866,-0.08533 c 2.676,2.697333 5.092,5.4016 7.43333,8.382267 0.0733,0.513066 0.22,1.026133 0.368,1.539066"
       style="fill:#231f20;fill-opacity:1;fill-rule:nonzero;stroke:none;stroke-width:0.13333333"
       id="path86" /><path
       inkscape:connector-curvature="0"
       d="m 219.22266,-72.197333 -0.0547,-0.877333 -0.628,-0.04533 c 0.0693,0.132 0.32,0.464 0.68267,0.922667"
       style="fill:#231f20;fill-opacity:1;fill-rule:nonzero;stroke:none;stroke-width:0.13333333"
       id="path88" /><path
       inkscape:connector-curvature="0"
       d="m 223.83866,-66.701066 c 1.112,1.192266 2.24267,2.369333 3.38,3.565066 -0.148,-0.512933 -0.29467,-1.026 -0.368,-1.539066 -2.34133,-2.980667 -4.75733,-5.684934 -7.43333,-8.382267 l -0.24934,-0.01733 0.0547,0.877333 c 0.908,1.145333 2.616,3.171333 4.616,5.496267"
       style="fill:#231f20;fill-opacity:1;fill-rule:nonzero;stroke:none;stroke-width:0.13333333"
       id="path90" /><path
       inkscape:connector-curvature="0"
       d="M 237.21599,-59.367733 225.15066,-72.972 223.09333,-73.12 c 0.48533,0.917334 8.87466,10.644533 13.78133,16.053867 l 0.34133,-2.3016"
       style="fill:#231f20;fill-opacity:1;fill-rule:nonzero;stroke:none;stroke-width:0.13333333"
       id="path92" /><path
       inkscape:connector-curvature="0"
       d="M 224.22399,-57.995867 C 220.39333,-62.572933 212.11866,-72.164 211.00133,-73.284 h -2.86 c 1.19866,1.798667 7.688,9.494934 12.4,15.009467 l 3.68266,0.278666"
       style="fill:#231f20;fill-opacity:1;fill-rule:nonzero;stroke:none;stroke-width:0.13333333"
       id="path94" /><path
       inkscape:connector-curvature="0"
       d="m 198.97466,-98.510666 c -0.80666,-0.44 -1.688,-0.585333 -2.56666,-0.658666 l -0.0733,0.07333 c 3.3,4.105333 7.04,8.138667 10.77867,12.026666 h 0.73333 c -0.072,-0.514666 0,-1.026666 -0.072,-1.466666 l -8.8,-9.974667"
       style="fill:#231f20;fill-opacity:1;fill-rule:nonzero;stroke:none;stroke-width:0.13333333"
       id="path96" /><path
       inkscape:connector-curvature="0"
       d="m 201.68799,-97.190666 c 1.392,1.906667 3.44667,3.961334 5.132,5.721334 -1.02666,-2.493334 -2.86,-4.254667 -5.132,-5.721334"
       style="fill:#231f20;fill-opacity:1;fill-rule:nonzero;stroke:none;stroke-width:0.13333333"
       id="path98" /><path
       inkscape:connector-curvature="0"
       d="m 191.568,-98.950666 10.55866,11.808 2.64267,-0.293333 c -3.156,-3.888 -6.748,-7.921333 -10.268,-11.806667 -0.88133,-0.22 -2.27467,-0.293333 -2.93333,0.292"
       style="fill:#231f20;fill-opacity:1;fill-rule:nonzero;stroke:none;stroke-width:0.13333333"
       id="path100" /><path
       inkscape:connector-curvature="0"
       d="m 189.66133,-98.290666 c -0.73467,0.07333 -1.392,0.44 -1.90667,0.954667 3.44667,3.885333 6.74667,7.918667 10.41334,11.585333 l 1.83333,-0.952 c -3.37467,-4.033333 -6.82133,-7.773333 -10.34,-11.588"
       style="fill:#231f20;fill-opacity:1;fill-rule:nonzero;stroke:none;stroke-width:0.13333333"
       id="path102" /><path
       inkscape:connector-curvature="0"
       d="m 196.26,-84.429333 -10.11867,-11.439999 h -0.51467 c -0.36666,0.44 -0.88,0.952 -0.952,1.612 3.44534,3.961333 6.74667,7.921333 10.41334,11.439999 0.44133,-0.44 0.80533,-1.025333 1.172,-1.612"
       style="fill:#231f20;fill-opacity:1;fill-rule:nonzero;stroke:none;stroke-width:0.13333333"
       id="path104" /><path
       inkscape:connector-curvature="0"
       d="m 192.668,-76.950666 0.44,-2.418667 c -3.15467,-3.593333 -6.30667,-7.7 -9.9,-10.999999 -0.29467,0.733333 -0.29467,1.759999 -0.148,2.639999 l 9.608,10.778667"
       style="fill:#231f20;fill-opacity:1;fill-rule:nonzero;stroke:none;stroke-width:0.13333333"
       id="path106" /><path
       inkscape:connector-curvature="0"
       d="m 218.70133,1.6645269 -0.632,1.4928 c 0.23733,-0.40946 0.492,-0.8636 0.76,-1.362 -0.04,-0.0391 -0.0893,-0.0927 -0.128,-0.1308"
       style="fill:#231f20;fill-opacity:1;fill-rule:nonzero;stroke:#231f20;stroke-width:0.13333333;stroke-opacity:1"
       id="path108" /><path
       inkscape:connector-curvature="0"
       d="m 199.23866,21.050527 c 0.48267,-0.54893 0.85867,-1.07706 1.15333,-1.55986 l -1.78399,0.80146 c 0.20933,0.25734 0.42,0.50627 0.63066,0.7584"
       style="fill:#231f20;fill-opacity:1;fill-rule:nonzero;stroke:#231f20;stroke-width:0.13333333;stroke-opacity:1"
       id="path110" /><path
       inkscape:connector-curvature="0"
       d="m 194.35466,21.831727 c 0.50134,0.65214 1.028,1.2912 1.552,1.9308 0.71867,-0.424 1.348,-0.86773 1.89467,-1.324 -0.43733,-0.47026 -0.872,-0.94013 -1.32,-1.41453 l -2.12667,0.80773"
       style="fill:#231f20;fill-opacity:1;fill-rule:nonzero;stroke:#231f20;stroke-width:0.13333333;stroke-opacity:1"
       id="path112" /><path
       inkscape:connector-curvature="0"
       d="m 190.468,22.930667 c 0.66,0.79586 1.32666,1.58813 1.99333,2.37866 0.76133,-0.252 1.452,-0.53333 2.09067,-0.8348 l -1.884,-2.13333 c -0.732,0.22387 -1.76,-0.0693 -2.2,0.58947"
       style="fill:#231f20;fill-opacity:1;fill-rule:nonzero;stroke:#231f20;stroke-width:0.13333333;stroke-opacity:1"
       id="path114" /><path
       inkscape:connector-curvature="0"
       d="m 186.80133,23.297327 c 0.75867,0.93867 1.56,1.88387 2.36933,2.82667 0.63467,-0.1136 1.24,-0.24013 1.81067,-0.388 -0.74133,-0.86413 -1.48,-1.7292 -2.20133,-2.58653 -0.66,-0.14534 -1.392,-0.0735 -1.97867,0.14786"
       style="fill:#231f20;fill-opacity:1;fill-rule:nonzero;stroke:#231f20;stroke-width:0.13333333;stroke-opacity:1"
       id="path116" /><path
       inkscape:connector-curvature="0"
       d="m 182.69333,23.443727 c 0.91067,1.0536 1.77467,2.08694 2.63067,3.1136 0.75466,-0.0401 1.472,-0.10266 2.15733,-0.1828 -0.92,-1.01986 -1.84,-2.0412 -2.73467,-3.0772 -0.65866,0 -1.53866,-0.14786 -2.05333,0.1464"
       style="fill:#231f20;fill-opacity:1;fill-rule:nonzero;stroke:#231f20;stroke-width:0.13333333;stroke-opacity:1"
       id="path118" /><path
       inkscape:connector-curvature="0"
       d="m 178.07466,23.149467 c 0.89467,1.136 1.83467,2.26773 2.788,3.3984 0.9,0.0495 1.76934,0.0761 2.59334,0.0735 -0.97334,-1.076 -1.952,-2.15626 -2.96134,-3.25053 l -2.42,-0.22133"
       style="fill:#231f20;fill-opacity:1;fill-rule:nonzero;stroke:#231f20;stroke-width:0.13333333;stroke-opacity:1"
       id="path120" /><path
       inkscape:connector-curvature="0"
       d="m 173.23466,22.271867 c 1.09334,1.30933 2.16134,2.58026 3.24134,3.84533 0.848,0.11453 1.71333,0.21093 2.596,0.288 -1.104,-1.22493 -2.21467,-2.4464 -3.34534,-3.6224 l -2.492,-0.51093"
       style="fill:#231f20;fill-opacity:1;fill-rule:nonzero;stroke:#231f20;stroke-width:0.13333333;stroke-opacity:1"
       id="path122" /><path
       inkscape:connector-curvature="0"
       d="m 167.44133,20.802667 c 1.164,1.44786 2.40133,2.89053 3.656,4.32546 1.07333,0.25214 2.18133,0.4812 3.33333,0.67974 -1.26933,-1.4188 -2.55333,-2.8308 -3.83733,-4.19747 -1.09867,-0.21827 -2.052,-0.66093 -3.152,-0.80773"
       style="fill:#231f20;fill-opacity:1;fill-rule:nonzero;stroke:#231f20;stroke-width:0.13333333;stroke-opacity:1"
       id="path124" /><path
       inkscape:connector-curvature="0"
       d="m 160.91333,18.165067 c 1.35467,1.78186 2.87333,3.55893 4.43067,5.32293 1.05333,0.35987 2.18533,0.70413 3.36266,1.0308 -2.31333,-2.6308 -4.02666,-5.90947 -7.79333,-6.35373"
       style="fill:#231f20;fill-opacity:1;fill-rule:nonzero;stroke:none;stroke-width:0.13333333"
       id="path126" /><path
       inkscape:connector-curvature="0"
       d="m 153.28666,15.523997 c 1.15467,1.4812 2.404,2.92133 3.68,4.35307 1.22,0.65106 2.82267,1.44013 4.788,2.25626 l -4.728,-5.43493 c -1.24666,-0.36667 -2.41866,-1.10107 -3.74,-1.1744"
       style="fill:#231f20;fill-opacity:1;fill-rule:nonzero;stroke:none;stroke-width:0.13333333"
       id="path128" /><path
       inkscape:connector-curvature="0"
       d="m 224.23466,-27.089601 c 0.20667,1.1516 0.332,2.341734 0.396,3.563067 2.94267,3.317731 6.46667,7.272401 9.32933,10.398401 -0.352,-1.53747 -0.82933,-3.15787 -1.45866,-4.82293 -2.804,-3.164 -5.844,-6.553071 -8.26667,-9.138538"
       style="fill:#231f20;fill-opacity:1;fill-rule:nonzero;stroke:#231f20;stroke-width:0.13333333;stroke-opacity:1"
       id="path130" /><path
       inkscape:connector-curvature="0"
       d="m 224.16933,-15.753063 c 3.34133,3.74466 7.83466,8.5779999 10.76,11.7723999 0.0147,-0.90107 -0.004,-1.96414 -0.0853,-3.16054 -3.24,-3.6962599 -7.41466,-8.3114599 -10.33333,-11.4114599 -0.084,0.86986 -0.2,1.8152 -0.34133,2.7996"
       style="fill:#231f20;fill-opacity:1;fill-rule:nonzero;stroke:#231f20;stroke-width:0.13333333;stroke-opacity:1"
       id="path132" /><path
       inkscape:connector-curvature="0"
       d="m 223.29066,-10.803603 c 3.57867,4.1129399 8.124,9.2718699 11.032,12.5842699 0.256,-1.29319995 0.396,-2.30359995 0.448,-2.88374 0.005,-0.0459 0.0107,-0.1152 0.0147,-0.17093 -3.32667,-3.84 -7.756,-8.7343999 -10.96,-12.3030599 -0.15867,0.91346 -0.33734,1.8432 -0.53467,2.77346"
       style="fill:#231f20;fill-opacity:1;fill-rule:nonzero;stroke:#231f20;stroke-width:0.13333333;stroke-opacity:1"
       id="path134" /><path
       inkscape:connector-curvature="0"
       d="m 222.37599,-7.0328031 11.09067,12.39787 c 0.20933,-0.75 0.38933,-1.46094 0.54267,-2.126 -3.4,-4.01413995 -7.96267,-9.1104 -11.06534,-12.4896 -0.17733,0.75267 -0.368,1.4932 -0.568,2.21773"
       style="fill:#231f20;fill-opacity:1;fill-rule:nonzero;stroke:#231f20;stroke-width:0.13333333;stroke-opacity:1"
       id="path136" /><path
       inkscape:connector-curvature="0"
       d="m 221.26266,-3.5526631 c -0.0107,0.0287 -0.0213,0.0548 -0.032,0.0824 3.41867,3.85773005 7.94667,8.83333 11.14667,12.25719 0.28133,-0.78066 0.532,-1.54426 0.756,-2.28066 -3.38267,-3.91667 -7.96134,-8.9208 -11.14534,-12.20107 -0.23066,0.74894 -0.472,1.46934 -0.72533,2.14214"
       style="fill:#231f20;fill-opacity:1;fill-rule:nonzero;stroke:#231f20;stroke-width:0.13333333;stroke-opacity:1"
       id="path138" /><path
       inkscape:connector-curvature="0"
       d="m 219.78666,-0.09427305 c 3.43333,3.88439995 8.09067,8.98959995 11.18267,12.31400005 0.15866,-0.3572 0.352,-0.79213 0.61066,-1.3724 0.12534,-0.3036 0.24667,-0.60466 0.364,-0.9041301 -3.18,-3.6104 -7.812,-8.612 -11.19066,-12.212 -0.31734,0.76827 -0.64267,1.49587005 -0.96667,2.17453005"
       style="fill:#231f20;fill-opacity:1;fill-rule:nonzero;stroke:#231f20;stroke-width:0.13333333;stroke-opacity:1"
       id="path140" /><path
       inkscape:connector-curvature="0"
       d="m 218.06933,3.1573269 -0.176,0.41347 c 1.36266,1.45213 3.884,4.31307 6.636,7.4156001 1.636,0.59907 3.40266,1.38293 4.56533,1.9188 -3.91467,-4.3630701 -8.19467,-9.0254701 -10.26533,-11.1098701 -0.268,0.4984 -0.52267,0.95254 -0.76,1.362"
       style="fill:#231f20;fill-opacity:1;fill-rule:nonzero;stroke:#231f20;stroke-width:0.13333333;stroke-opacity:1"
       id="path142" /><path
       inkscape:connector-curvature="0"
       d="m 228.94133,-26.062001 c -1.964,-3.561466 -3.66534,-6.1448 -5.47467,-8.654666 -0.96133,-1 -2.472,-2.710933 -3.048,-3.271333 0.42,0.9792 1.06667,2.487466 2.06533,4.811999 1.944,2.145334 4.20667,4.639067 6.45734,7.114"
       style="fill:#231f20;fill-opacity:1;fill-rule:nonzero;stroke:#231f20;stroke-width:0.13333333;stroke-opacity:1"
       id="path144" /><path
       inkscape:connector-curvature="0"
       d="m 143.24133,-81.669333 -0.044,-0.02133 v 2.64 c 0.001,0.0027 0.003,0.0027 0.004,0.0053 0.0147,-0.238666 0.04,-0.477333 0.0493,-0.714666 0.0267,-0.626667 0.0173,-1.266667 -0.009,-1.909334"
       style="fill:#231f20;fill-opacity:1;fill-rule:nonzero;stroke:none;stroke-width:0.13333333"
       id="path146" /><path
       inkscape:connector-curvature="0"
       d="m 235.85066,48.249467 c -0.204,0.25573 -0.40533,0.48906 -0.59733,0.69426 0.264,-0.21826 0.444,-0.44213 0.59733,-0.69426"
       style="fill:#231f20;fill-opacity:1;fill-rule:nonzero;stroke:#231f20;stroke-width:0.13333333;stroke-opacity:1"
       id="path148" /><path
       inkscape:connector-curvature="0"
       d="m 230.77733,53.413547 c 0.43866,-0.44011 1.172,-0.73491 1.31866,-1.3948 -0.024,-0.0266 -0.0453,-0.0536 -0.0693,-0.0802 -0.53867,0.47186 -1.068,0.93228 -1.54933,1.3453 l 0.3,0.1297"
       style="fill:#231f20;fill-opacity:1;fill-rule:nonzero;stroke:#231f20;stroke-width:0.13333333;stroke-opacity:1"
       id="path150" /><path
       inkscape:connector-curvature="0"
       d="m 215.36666,45.041197 c 3.37333,3.74267 6.52667,7.84943 10.34,11.51609 l 1.61467,-0.95313 v -0.22031 c -3.52134,-3.81562 -6.528,-7.84892 -10.048,-11.44012 -0.80667,0 -1.46667,0.58547 -1.90667,1.09747"
       style="fill:#231f20;fill-opacity:1;fill-rule:nonzero;stroke:#231f20;stroke-width:0.13333333;stroke-opacity:1"
       id="path152" /><path
       inkscape:connector-curvature="0"
       d="m 210.89866,47.097327 c 3.3,3.74016 6.672,7.99486 10.26667,11.51464 0.80666,-0.29322 1.83333,-0.44114 2.41866,-1.1026 -3.22666,-3.95729 -6.52533,-7.77337 -9.97333,-11.5839 -0.95333,0.29333 -1.97867,0.51053 -2.712,1.17186"
       style="fill:#231f20;fill-opacity:1;fill-rule:nonzero;stroke:#231f20;stroke-width:0.13333333;stroke-opacity:1"
       id="path154" /><path
       inkscape:connector-curvature="0"
       d="m 207.22666,48.418797 c 3.08,3.8838 6.52667,7.55047 9.828,11.36505 l 1.02533,-0.0745 c 0.51334,-0.0734 1.10134,-0.21718 1.32,-0.65729 -3.22666,-3.95989 -6.45333,-7.48281 -9.9,-11.36821 -0.80533,0.0749 -1.612,0.36826 -2.27333,0.73493"
       style="fill:#231f20;fill-opacity:1;fill-rule:nonzero;stroke:#231f20;stroke-width:0.13333333;stroke-opacity:1"
       id="path156" /><path
       inkscape:connector-curvature="0"
       d="m 203.62933,49.728127 9.45866,10.99999 c 0.88134,0.14636 1.83334,-0.29219 2.49467,-0.65989 -3.08133,-3.88802 -6.38133,-7.40574 -9.68,-11.2937 -0.88,0 -1.68667,0.29374 -2.27333,0.9536"
       style="fill:#231f20;fill-opacity:1;fill-rule:nonzero;stroke:#231f20;stroke-width:0.13333333;stroke-opacity:1"
       id="path158" /><path
       inkscape:connector-curvature="0"
       d="m 199.816,50.245327 c 2.71199,3.88383 6.52666,7.62655 9.67999,11.36822 0.732,-0.22292 1.68667,-0.22292 2.27334,-0.58803 -3.08,-3.88697 -6.45334,-7.55364 -9.82667,-11.22032 l -2.12666,0.44013"
       style="fill:#231f20;fill-opacity:1;fill-rule:nonzero;stroke:#231f20;stroke-width:0.13333333;stroke-opacity:1"
       id="path160" /><path
       inkscape:connector-curvature="0"
       d="m 196.08,50.905207 c 2.71333,3.88438 6.30799,7.55104 9.31333,11.07343 0.95466,0.2198 1.90666,-0.0734 2.64,-0.36509 l -9.46,-10.85626 c -0.80667,-0.43849 -1.68533,0.0734 -2.49333,0.14792"
       style="fill:#231f20;fill-opacity:1;fill-rule:nonzero;stroke:#231f20;stroke-width:0.13333333;stroke-opacity:1"
       id="path162" /><path
       inkscape:connector-curvature="0"
       d="m 191.308,51.346877 c 2.56666,3.66667 6.01333,6.96667 8.87333,10.55989 l 0.80666,0.51198 c 0.95467,-0.21875 2.2,0.14532 2.93334,-0.29479 l -9.60667,-11 c -1.02666,-0.14375 -2.12666,0.07604 -3.00666,0.22292"
       style="fill:#231f20;fill-opacity:1;fill-rule:nonzero;stroke:#231f20;stroke-width:0.13333333;stroke-opacity:1"
       id="path164" /><path
       inkscape:connector-curvature="0"
       d="m 187.05466,51.640107 c 2.93334,3.81197 6.16,7.40677 9.46,10.92396 0.95467,-0.0719 1.90667,0.14947 2.71334,-0.14532 l -9.68,-10.92656 c -0.88,0.0719 -1.68667,-0.14531 -2.49334,0.14792"
       style="fill:#231f20;fill-opacity:1;fill-rule:nonzero;stroke:#231f20;stroke-width:0.13333333;stroke-opacity:1"
       id="path166" /><path
       inkscape:connector-curvature="0"
       d="m 182.504,51.407807 c 3.00666,3.81615 6.23333,7.48282 9.60666,11 l 2.49334,-0.14532 c -2.78667,-3.96093 -6.38,-7.25989 -9.53334,-10.92656 -0.87866,0.0719 -1.83333,-0.0734 -2.56666,0.0719"
       style="fill:#231f20;fill-opacity:1;fill-rule:nonzero;stroke:#231f20;stroke-width:0.13333333;stroke-opacity:1"
       id="path168" /><path
       inkscape:connector-curvature="0"
       d="m 178.324,51.117187 c 2.71333,4.03333 6.23333,7.25989 9.38666,11 h 2.56667 l -9.53333,-10.78126 -2.42,-0.21874"
       style="fill:#231f20;fill-opacity:1;fill-rule:nonzero;stroke:#231f20;stroke-width:0.13333333;stroke-opacity:1"
       id="path170" /><path
       inkscape:connector-curvature="0"
       d="m 173.264,50.750517 c 2.86,3.81197 6.23466,7.33333 9.46,10.92396 l 3.08,0.29375 c -2.78667,-3.81094 -6.30534,-7.33334 -9.38667,-10.92448 l -3.15333,-0.29323"
       style="fill:#231f20;fill-opacity:1;fill-rule:nonzero;stroke:#231f20;stroke-width:0.13333333;stroke-opacity:1"
       id="path172" /><path
       inkscape:connector-curvature="0"
       d="m 170.03733,50.163997 c -0.66,-0.1468 -1.54,-0.36813 -2.12667,-0.1468 2.93334,3.74009 6.08667,7.18696 9.46,10.77863 1.1,0.22136 2.27334,0.51198 3.37334,0.51198 -2.78667,-3.66666 -6.30667,-7.18489 -9.38667,-10.85154 l -1.32,-0.29227"
       style="fill:#231f20;fill-opacity:1;fill-rule:nonzero;stroke:#231f20;stroke-width:0.13333333;stroke-opacity:1"
       id="path174" /><path
       inkscape:connector-curvature="0"
       d="m 162.63066,48.841197 c 2.93334,3.81609 6.23334,7.33328 9.46,10.85463 1.02667,0.2948 2.2,0.73333 3.3,0.66146 l -9.60666,-10.85462 -3.15334,-0.66147"
       style="fill:#231f20;fill-opacity:1;fill-rule:nonzero;stroke:#231f20;stroke-width:0.13333333;stroke-opacity:1"
       id="path176" /><path
       inkscape:connector-curvature="0"
       d="m 157.05733,47.377067 c 3.00667,3.81356 6.16,7.25782 9.68,11.00001 l 3.3,0.80677 c -3.08,-3.66666 -6.23333,-7.18645 -9.38667,-10.78225 -1.02666,-0.6604 -2.34666,-0.80573 -3.59333,-1.02453"
       style="fill:#231f20;fill-opacity:1;fill-rule:nonzero;stroke:#231f20;stroke-width:0.13333333;stroke-opacity:1"
       id="path178" /><path
       inkscape:connector-curvature="0"
       d="m 151.63066,45.835997 c 1.02667,1.24787 2.27334,2.78693 3.37334,3.81453 2.78666,2.71196 4.84,7.69999 9.38666,7.84687 l -9.46,-10.7802 -3.3,-0.8812"
       style="fill:#231f20;fill-opacity:1;fill-rule:nonzero;stroke:#231f20;stroke-width:0.13333333;stroke-opacity:1"
       id="path180" /><path
       inkscape:connector-curvature="0"
       d="m 145.39733,43.562527 9.02,10.48799 c 1.02667,0.44011 2.12667,1.1 3.15333,1.17344 l -9.24,-10.70676 -2.93333,-0.95467"
       style="fill:#231f20;fill-opacity:1;fill-rule:nonzero;stroke:#231f20;stroke-width:0.13333333;stroke-opacity:1"
       id="path182" /><path
       inkscape:connector-curvature="0"
       d="m 137.77066,40.262527 8.43334,9.82814 c 1.1,0.65985 2.34666,1.24526 3.37333,1.68537 l -2.86,-3.44537 c -2.86,-2.49467 -4.91333,-7.2624 -8.94667,-8.06814"
       style="fill:#231f20;fill-opacity:1;fill-rule:nonzero;stroke:#231f20;stroke-width:0.13333333;stroke-opacity:1"
       id="path184" /><path
       inkscape:connector-curvature="0"
       d="m 128.53066,34.983867 8.14,9.53333 3.3,2.05107 c -2.71466,-3.29894 -5.79333,-6.52454 -8.58053,-9.75107 -0.87973,-0.65987 -1.90627,-1.3932 -2.85947,-1.83333"
       style="fill:#231f20;fill-opacity:1;fill-rule:nonzero;stroke:#231f20;stroke-width:0.13333333;stroke-opacity:1"
       id="path186" /><path
       inkscape:connector-curvature="0"
       d="m 115.2568,-31.310401 c 0.2932,1.612 0.88066,3.1536 1.46666,4.692667 l 0.1208,0.128133 c -0.45413,-1.3 -0.914,-2.9016 -1.34733,-4.570266 -0.0787,-0.08187 -0.16413,-0.171867 -0.24013,-0.250534"
       style="fill:#231f20;fill-opacity:1;fill-rule:nonzero;stroke:none;stroke-width:0.13333333"
       id="path188" /><path
       inkscape:connector-curvature="0"
       d="m 96.776531,-95.770666 8.507329,9.973333 0.4396,0.146667 c -1.02613,-4.401333 -4.4,-9.02 -8.946929,-10.12"
       style="fill:#231f20;fill-opacity:1;fill-rule:nonzero;stroke:none;stroke-width:0.13333333"
       id="path190" /><path
       inkscape:connector-curvature="0"
       d="m 90.103598,-97.458666 c 3.006266,3.74 6.086533,7.261334 9.313066,10.854667 0.733866,0.07333 1.613996,0.218666 2.273466,0 -3.006266,-3.521333 -5.866666,-7.04 -9.093199,-10.486667 l -2.493333,-0.368"
       style="fill:#231f20;fill-opacity:1;fill-rule:nonzero;stroke:none;stroke-width:0.13333333"
       id="path192" /><path
       inkscape:connector-curvature="0"
       d="m 83.650531,-97.970666 9.606267,11 c 1.173466,0.513333 2.420266,0.07333 3.666666,0.145333 v -0.292 c -3.079733,-3.739999 -6.159866,-7.406666 -9.459866,-10.853333 -1.246933,-0.07333 -2.7136,-0.293333 -3.813067,0"
       style="fill:#231f20;fill-opacity:1;fill-rule:nonzero;stroke:none;stroke-width:0.13333333"
       id="path194" /><path
       inkscape:connector-curvature="0"
       d="m 81.375998,-90.563999 10.414666,11.806666 h 0.219734 l 0.3656,-2.053333 c -3.592667,-3.96 -6.892133,-7.993333 -10.6328,-11.953333 l -0.3672,2.2"
       style="fill:#231f20;fill-opacity:1;fill-rule:nonzero;stroke:none;stroke-width:0.13333333"
       id="path196" /><path
       inkscape:connector-curvature="0"
       d="m 80.350531,-84.623999 -0.440666,1.98 10.267199,11.806666 0.3656,0.146667 c 0.220934,-0.66 0.4412,-1.32 0.3672,-2.053334 -3.372933,-4.033333 -6.966666,-8.139999 -10.559333,-11.879999"
       style="fill:#231f20;fill-opacity:1;fill-rule:nonzero;stroke:none;stroke-width:0.13333333"
       id="path198" /><path
       inkscape:connector-curvature="0"
       d="m 78.883331,-76.630666 -0.440133,2.273333 10.340133,11.7328 h 0.3672 l 0.292667,-2.126 c -3.226533,-3.9604 -6.599467,-7.8468 -10.045867,-11.5868 l -0.514,-0.293333"
       style="fill:#231f20;fill-opacity:1;fill-rule:nonzero;stroke:none;stroke-width:0.13333333"
       id="path200" /><path
       inkscape:connector-curvature="0"
       d="m 77.637465,10.343197 c 3.445866,4.10733 7.0396,8.3584 10.852666,12.3208 0.2932,-1.2468 0.5864,-2.49467 0.733333,-3.81453 -3.446933,-4.32547 -7.039599,-8.50627 -10.926533,-12.3926701 -0.293333,1.17293 -0.5136,2.56613 -0.659466,3.8864001"
       style="fill:#231f20;fill-opacity:1;fill-rule:nonzero;stroke:none;stroke-width:0.13333333"
       id="path202" /><path
       inkscape:connector-curvature="0"
       d="m 72.723465,17.529197 10.927066,12.3948 c 0.880134,0.43853 1.979734,-0.0745 2.859867,-0.2224 l -10.706267,-12.1724 c -1.0276,-0.14533 -2.1276,-0.22133 -3.080666,0"
       style="fill:#231f20;fill-opacity:1;fill-rule:nonzero;stroke:none;stroke-width:0.13333333"
       id="path204" /><path
       inkscape:connector-curvature="0"
       d="m 84.677065,-57.930667 c 0.586533,0 1.173466,-0.219866 1.5396,-0.586 -2.933334,-3.300533 -5.645867,-6.747333 -8.8,-9.827066 -0.1464,0.659333 -0.292667,1.3932 -0.440134,2.126533 l 7.1136,8.066667 0.586934,0.219866"
       style="fill:#231f20;fill-opacity:1;fill-rule:nonzero;stroke:none;stroke-width:0.13333333"
       id="path206" /><path
       inkscape:connector-curvature="0"
       d="m 68.397332,17.383867 c 3.445866,4.25106 7.039599,8.43333 10.926133,12.4656 0.953066,0 1.9072,0.14786 2.713466,-0.14787 -3.593733,-4.25107 -6.966666,-8.13907 -10.853066,-12.31773 h -2.786533"
       style="fill:#231f20;fill-opacity:1;fill-rule:nonzero;stroke:none;stroke-width:0.13333333"
       id="path208" /><path
       inkscape:connector-curvature="0"
       d="m 80.936931,-18.624533 c -3.299466,-3.959335 -6.6,-7.772801 -10.120799,-11.585334 l -0.512,2.198933 c 3.372399,3.960933 6.672399,8.140671 10.339066,11.661471 l 0.293733,-2.27507"
       style="fill:#231f20;fill-opacity:1;fill-rule:nonzero;stroke:none;stroke-width:0.13333333"
       id="path210" /><path
       inkscape:connector-curvature="0"
       d="m 79.177065,-7.8442631 c 0.1464,-0.80627 0.3656,-1.6136 0.3656,-2.4921399 -3.226534,-3.88813 -6.745733,-7.8464 -10.192133,-11.588665 l -0.5136,2.349065 9.753199,11.2915999 0.586934,0.44014"
       style="fill:#231f20;fill-opacity:1;fill-rule:nonzero;stroke:none;stroke-width:0.13333333"
       id="path212" /><path
       inkscape:connector-curvature="0"
       d="m 76.463598,-57.124533 c 0.6604,0.147466 1.612933,0.293333 2.2004,-0.07333 -0.6604,-1.026666 -1.687467,-2.126133 -2.640533,-2.9328 h -0.07347 c -0.145867,0.9536 -0.513067,2.493734 0.5136,3.006134"
       style="fill:#231f20;fill-opacity:1;fill-rule:nonzero;stroke:none;stroke-width:0.13333333"
       id="path214" /><path
       inkscape:connector-curvature="0"
       d="m 78.076531,-1.9770731 c -3.446266,-3.81413 -6.526533,-7.99226 -10.193199,-11.3671899 -0.1464,0.7344 -0.1464,1.6136 -0.366134,2.4192 2.566134,3.0078599 4.9864,6.1614599 7.773467,9.0209299 0.8796,0.0729 1.9796,0.0729 2.785866,-0.0729"
       style="fill:#231f20;fill-opacity:1;fill-rule:nonzero;stroke:none;stroke-width:0.13333333"
       id="path216" /><path
       inkscape:connector-curvature="0"
       d="m 64.143198,17.307867 c 3.374,4.4 7.2604,8.36146 11,12.46813 0.8068,0.148 1.9068,0.22133 2.640133,-0.0744 -3.4464,-4.25107 -7.407333,-8.2844 -11.073999,-12.39373 h -2.566134"
       style="fill:#231f20;fill-opacity:1;fill-rule:nonzero;stroke:none;stroke-width:0.13333333"
       id="path218" /><path
       inkscape:connector-curvature="0"
       d="m 74.850531,-36.076 c -0.733866,-0.148534 -1.760399,-0.294267 -2.493733,0.07293 l 4.253067,4.838533 c -0.5864,-1.612 -0.805734,-3.445333 -1.759334,-4.911466"
       style="fill:#231f20;fill-opacity:1;fill-rule:nonzero;stroke:none;stroke-width:0.13333333"
       id="path220" /><path
       inkscape:connector-curvature="0"
       d="m 60.036932,17.383867 c 3.519866,4.324 7.406266,8.28546 11,12.39213 0.806266,0.148 1.906266,0.29227 2.420399,-0.1468 -3.447466,-4.25467 -7.114133,-8.35987 -10.926666,-12.32133 -0.8072,-0.0729 -1.833333,-0.2172 -2.493733,0.076"
       style="fill:#231f20;fill-opacity:1;fill-rule:nonzero;stroke:none;stroke-width:0.13333333"
       id="path222" /><path
       inkscape:connector-curvature="0"
       d="m 55.343199,17.383867 c 3.5208,4.25106 7.114133,8.35733 10.780799,12.24533 1.025467,0.36813 2.273334,0.22027 3.299467,0.0724 -3.226133,-4.1776 -7.259867,-8.3604 -10.780266,-12.39373 -1.026534,-0.2172 -2.419734,-0.2172 -3.3,0.076"
       style="fill:#231f20;fill-opacity:1;fill-rule:nonzero;stroke:none;stroke-width:0.13333333"
       id="path224" /><path
       inkscape:connector-curvature="0"
       d="m 51.309865,17.383867 c 3.593734,4.17866 7.040667,8.06666 10.707333,12.1 0.880134,0.29213 1.979734,0.51346 2.713467,0.0735 -3.447333,-4.03333 -7.259866,-8.21613 -10.926533,-12.17346 -0.733867,-0.21987 -1.9068,-0.5156 -2.494267,0"
       style="fill:#231f20;fill-opacity:1;fill-rule:nonzero;stroke:none;stroke-width:0.13333333"
       id="path226" /><path
       inkscape:connector-curvature="0"
       d="m 46.909865,17.163997 c 3.5204,4.32667 7.187067,8.43187 11.2204,12.5376 h 2.712933 l 0.146934,-0.14427 c -3.519333,-4.1828 -7.040133,-8.06666 -10.7068,-12.02813 -0.8068,-0.87867 -2.2,-0.14533 -3.373467,-0.3652"
       style="fill:#231f20;fill-opacity:1;fill-rule:nonzero;stroke:none;stroke-width:0.13333333"
       id="path228" /><path
       inkscape:connector-curvature="0"
       d="m 43.169732,17.234927 c 3.446934,4.10627 7.187067,8.50627 11.073467,12.46667 h 2.2 c -3.7396,-4.32707 -7.112934,-8.3604 -11.072933,-12.5376 -0.7328,0 -1.613467,-0.0733 -2.200534,0.0709"
       style="fill:#231f20;fill-opacity:1;fill-rule:nonzero;stroke:none;stroke-width:0.13333333"
       id="path230" /><path
       inkscape:connector-curvature="0"
       d="m 38.696932,17.090667 0.07333,0.2172 c 3.5204,4.1828 7.26,8.288 10.999999,12.24946 0.8792,0.36667 1.979734,0.14427 2.86,0 -3.3,-4.03333 -7.187066,-7.9224 -10.339599,-12.02813 -0.8808,-0.95467 -2.4204,-0.22133 -3.593734,-0.43853"
       style="fill:#231f20;fill-opacity:1;fill-rule:nonzero;stroke:none;stroke-width:0.13333333"
       id="path232" /><path
       inkscape:connector-curvature="0"
       d="m 34.809866,17.090667 v 0.2172 l 11.073466,12.24946 c 0.8068,0.36667 1.6136,0.14427 2.4208,0 -3.373866,-4.25573 -7.554133,-8.4344 -11.147866,-12.46666 -0.8068,0 -1.6136,-0.2224 -2.3464,0"
       style="fill:#231f20;fill-opacity:1;fill-rule:nonzero;stroke:none;stroke-width:0.13333333"
       id="path234" /><path
       inkscape:connector-curvature="0"
       d="m 45.003066,-94.523999 c 0.3672,-0.953333 0.587066,-2.053333 0.660533,-3.226667 -1.026133,0.146667 -2.053733,0.22 -2.932933,0.513334 0.659466,0.953333 1.393333,1.98 2.2724,2.713333"
       style="fill:#231f20;fill-opacity:1;fill-rule:nonzero;stroke:none;stroke-width:0.13333333"
       id="path236" /><path
       inkscape:connector-curvature="0"
       d="m 44.196932,-89.390666 c 0.219734,-0.88 0.440534,-1.833333 0.440534,-2.86 l -3.740134,-4.473333 c -1.027066,-0.22 -1.688,0.366667 -2.493733,0.732 1.612533,2.421333 3.887067,4.84 5.793333,6.601333"
       style="fill:#231f20;fill-opacity:1;fill-rule:nonzero;stroke:none;stroke-width:0.13333333"
       id="path238" /><path
       inkscape:connector-curvature="0"
       d="m 30.703599,17.090667 c 3.226667,4.17866 7.0396,8.28386 10.706267,12.24533 0.8068,0.588 2.127066,0.3656 3.079733,0.22133 -3.592267,-4.4 -7.406267,-8.5068 -11.219333,-12.5412 -0.880133,0 -1.833333,-0.0735 -2.566667,0.0745"
       style="fill:#231f20;fill-opacity:1;fill-rule:nonzero;stroke:none;stroke-width:0.13333333"
       id="path240" /><path
       inkscape:connector-curvature="0"
       d="m 43.390132,-84.770666 0.440134,-2.346667 c -2.2,-3.007999 -4.620934,-5.646666 -7.26,-8.286666 -0.6604,0.146667 -1.247334,0.513333 -1.7604,1.026667 l 8.287066,9.606666 h 0.2932"
       style="fill:#231f20;fill-opacity:1;fill-rule:nonzero;stroke:none;stroke-width:0.13333333"
       id="path242" /><path
       inkscape:connector-curvature="0"
       d="m 37.449999,-81.177333 c 1.174,1.833334 2.859867,3.373334 4.326533,4.986667 l 0.293734,-1.686667 c -1.172934,-1.686666 -2.786934,-3.593333 -4.400534,-4.913333 l -0.219733,1.613333"
       style="fill:#231f20;fill-opacity:1;fill-rule:nonzero;stroke:none;stroke-width:0.13333333"
       id="path244" /><path
       inkscape:connector-curvature="0"
       d="m 40.603599,-69.664 c -1.906667,-2.126666 -3.74,-4.62 -5.793733,-6.379999 -0.4396,0.366666 -0.512934,0.733333 -0.8068,1.173333 2.1272,2.346666 3.813066,4.766666 6.233866,7.039466 l 0.366667,-1.8328"
       style="fill:#231f20;fill-opacity:1;fill-rule:nonzero;stroke:none;stroke-width:0.13333333"
       id="path246" /><path
       inkscape:connector-curvature="0"
       d="m 26.449999,17.234927 7.553067,8.65574 0.558933,0.64 c 1.458267,1.45893 2.008267,2.23866 3.1812,3.02666 0.733333,0.14427 1.833333,0.21867 2.493733,0 -3.446266,-4.1068 -7.186933,-8.14013 -10.854133,-12.17346 -0.659333,-0.73334 -2.126,-0.36774 -2.9328,-0.14894"
       style="fill:#231f20;fill-opacity:1;fill-rule:nonzero;stroke:none;stroke-width:0.13333333"
       id="path248" /><path
       inkscape:connector-curvature="0"
       d="m 30.703599,-69.0036 c 2.566667,2.7864 5.1328,6.379067 7.9204,8.872933 0.513467,-0.3672 0.44,-1.172933 0.513467,-1.906266 -2.860934,-3.373467 -5.573467,-6.893733 -8.7276,-10.047067 -0.586933,0 -0.952533,0.44 -1.466667,0.586667 -0.146266,0.733333 0.733334,1.172 1.173467,1.833333 0.219733,0.22 0.146933,0.6604 0.586933,0.6604"
       style="fill:#231f20;fill-opacity:1;fill-rule:nonzero;stroke:none;stroke-width:0.13333333"
       id="path250" /><path
       inkscape:connector-curvature="0"
       d="m 35.513066,-59.0536 c -3.080267,-3.96 -6.527067,-7.7 -9.973467,-11.439733 -0.733333,0.22 -1.614133,0.293333 -2.199466,0.732 3.0792,3.961333 6.526533,7.773866 9.9724,11.661333 0.806799,-0.146933 1.760933,-0.293733 2.200533,-0.9536"
       style="fill:#231f20;fill-opacity:1;fill-rule:nonzero;stroke:none;stroke-width:0.13333333"
       id="path252" /><path
       inkscape:connector-curvature="0"
       d="m 21.903599,17.090667 c 3.445867,4.1052 7.26,8.35986 11,12.3932 0.879733,0.29213 2.053733,0.29213 2.9328,0.0735 l -11.0728,-12.5412 c -0.953733,0 -1.980266,-0.0735 -2.86,0.0745"
       style="fill:#231f20;fill-opacity:1;fill-rule:nonzero;stroke:none;stroke-width:0.13333333"
       id="path254" /><path
       inkscape:connector-curvature="0"
       d="m 17.723466,17.090667 c 3.5192,4.25053 7.185867,8.28386 10.853067,12.3932 0.8808,0.29213 1.980266,0.21773 2.787066,0.0735 -3.446933,-4.25573 -7.333333,-8.36146 -11.072933,-12.5412 -0.807866,-0.0735 -1.833333,-0.14786 -2.5672,0.0745"
       style="fill:#231f20;fill-opacity:1;fill-rule:nonzero;stroke:none;stroke-width:0.13333333"
       id="path256" /><path
       inkscape:connector-curvature="0"
       d="m 30.599466,-57.733867 c -2.786933,-4.0328 -6.4536,-7.699466 -9.6068,-11.440133 -0.806667,-1.026 -2.200533,-0.219333 -3.373333,-0.514 3.373333,4.033867 6.6728,7.921333 10.1932,11.954133 0.8068,0.220267 1.9068,0.220267 2.786933,0"
       style="fill:#231f20;fill-opacity:1;fill-rule:nonzero;stroke:none;stroke-width:0.13333333"
       id="path258" /><path
       inkscape:connector-curvature="0"
       d="m 13.17656,17.016127 c 3.153706,4.17974 7.333306,8.3584 10.927039,12.46774 1.026667,0.21773 2.1256,0.29213 3.006267,-0.076 -3.593733,-4.324 -7.2604,-8.28494 -11.146266,-12.4652 l -2.78704,0.0735"
       style="fill:#231f20;fill-opacity:1;fill-rule:nonzero;stroke:none;stroke-width:0.13333333"
       id="path260" /><path
       inkscape:connector-curvature="0"
       d="m 25.246399,-58.246933 c -3.154266,-4.180134 -6.600533,-7.8468 -9.973466,-11.8064 L 11.533333,-71.08 c 2.786,3.813334 6.2328,7.186267 9.312533,10.852933 1.393733,0.8068 2.8604,1.686934 4.400533,1.980134"
       style="fill:#231f20;fill-opacity:1;fill-rule:nonzero;stroke:none;stroke-width:0.13333333"
       id="path262" /><path
       inkscape:connector-curvature="0"
       d="m 9.1432264,17.234927 c 3.4463596,4.0344 7.1870396,8.2156 10.7062396,12.10107 0.879733,0.14787 1.833333,0.2932 2.786933,0.0719 -3.299999,-4.1063 -7.260399,-8.5063 -10.999426,-12.39177 -0.80676,0 -1.9077999,-0.29213 -2.4937466,0.2188"
       style="fill:#231f20;fill-opacity:1;fill-rule:nonzero;stroke:none;stroke-width:0.13333333"
       id="path264" /><path
       inkscape:connector-curvature="0"
       d="m 147.69066,-85.591999 -6.78933,-7.745333 c 0,0 0.27467,0.78 0.636,2.037333 2.08267,2.228 4.42933,4.336 6.10667,6.876 0.02,-0.741334 0.0467,-1.168 0.0467,-1.168"
       style="fill:#231f20;fill-opacity:1;fill-rule:nonzero;stroke:none;stroke-width:0.13333333"
       id="path266" /><path
       inkscape:connector-curvature="0"
       d="m 113.27653,-40.9172 c 0,0 0.004,0.02027 0.006,0.0308 0.002,0 0.0115,-0.0021 0.0177,-0.0037 -0.007,-0.0083 -0.0167,-0.0192 -0.0235,-0.02707"
       style="fill:#231f20;fill-opacity:1;fill-rule:nonzero;stroke:none;stroke-width:0.13333333"
       id="path268" /><path
       inkscape:connector-curvature="0"
       d="m 117.6636,-24.493734 c 0.26093,0 0.60933,-0.2604 0.60933,-0.2604 0,0 0.0635,-0.02093 0.15627,-0.05373 l -1.58494,-1.681734 c 0.27814,0.797867 0.55414,1.489067 0.81934,1.995867"
       style="fill:#231f20;fill-opacity:1;fill-rule:nonzero;stroke:none;stroke-width:0.13333333"
       id="path270" /><path
       inkscape:connector-curvature="0"
       d="m 147.644,-84.423999 c -1.67734,-2.54 -4.024,-4.648 -6.10667,-6.876 0.17733,0.62 0.376,1.358667 0.57333,2.178666 1.852,2.164 3.58134,4.372 5.516,6.457334 -0.003,-0.696 0.005,-1.293334 0.0173,-1.76"
       style="fill:#231f20;fill-opacity:1;fill-rule:nonzero;stroke:none;stroke-width:0.13333333"
       id="path272" /><path
       inkscape:connector-curvature="0"
       d="m 147.88933,-73.917333 c 0.15467,0 0.308,-0.03333 0.45733,-0.08533 -0.16933,-0.749334 -0.308,-1.528 -0.39066,-2.328 l -4.612,-5.286667 -0.10267,-0.052 c 0.0267,0.642667 0.036,1.282667 0.009,1.909334 -0.009,0.237333 -0.0347,0.476 -0.0493,0.714666 1.68533,1.758667 3.004,3.589333 4.688,5.128"
       style="fill:#231f20;fill-opacity:1;fill-rule:nonzero;stroke:none;stroke-width:0.13333333"
       id="path274" /><path
       inkscape:connector-curvature="0"
       d="m 116.84426,-26.489601 1.58494,1.681734 c 0.30253,-0.102534 1.0672,-0.3724 2.126,-0.7984 -1.6464,-1.850534 -3.564,-3.899467 -5.05827,-5.4536 0.43333,1.668666 0.8932,3.270266 1.34733,4.570266"
       style="fill:#231f20;fill-opacity:1;fill-rule:nonzero;stroke:none;stroke-width:0.13333333"
       id="path276" /><path
       inkscape:connector-curvature="0"
       d="m 115.7708,-41.650534 c -0.004,-0.0016 -0.007,-0.0021 -0.0109,-0.0041 -1.49106,0.568667 -2.34533,0.742667 -2.45986,0.764533 1.8412,2.213067 7.9584,8.623467 12.23386,12.975067 -0.036,0.01867 -0.0693,0.0344 -0.10466,0.05307 0.17186,0.177067 0.34626,0.357867 0.51346,0.528667 0.68654,-0.3672 1.3828,-0.7588 2.0808,-1.183333 l -2.65413,-2.864 -9.59853,-10.269867"
       style="fill:#231f20;fill-opacity:1;fill-rule:nonzero;stroke:none;stroke-width:0.13333333"
       id="path278" /><path
       inkscape:connector-curvature="0"
       d="m 113.27653,-40.885467 c 0.003,0.0027 0.006,0.0068 0.008,0.01 -5.4e-4,-0.0052 -0.001,-0.0073 -0.002,-0.01093 l -0.006,9.33e-4"
       style="fill:#231f20;fill-opacity:1;fill-rule:nonzero;stroke:none;stroke-width:0.13333333"
       id="path280" /><path
       inkscape:connector-curvature="0"
       d="m 113.3,-40.890134 c -0.006,0.0016 -0.0156,0.0037 -0.0177,0.0037 10e-4,0.0036 0.002,0.0057 0.002,0.01093 1.81453,2.2036 7.752,8.49 12.1448,13.013466 0.0353,-0.01867 0.0687,-0.0344 0.10466,-0.05307 -4.27546,-4.3516 -10.39266,-10.762 -12.23386,-12.975067"
       style="fill:#231f20;fill-opacity:1;fill-rule:nonzero;stroke:none;stroke-width:0.13333333"
       id="path282" /><path
       inkscape:connector-curvature="0"
       d="m 125.36933,-31.380667 -9.5152,-10.2688 c -0.0181,-0.0093 -0.0359,-0.01093 -0.0531,-0.02027 -0.0147,0.0057 -0.0271,0.0099 -0.0412,0.01507 0.004,0.002 0.007,0.0025 0.0109,0.0041 l 9.59853,10.269867"
       style="fill:#231f20;fill-opacity:1;fill-rule:nonzero;stroke:none;stroke-width:0.13333333"
       id="path284" /><path
       inkscape:connector-curvature="0"
       d="m 143.84933,-44.122934 c 0.55333,-0.741066 1.04533,-1.445333 1.46,-2.1016 -0.152,-0.1692 -0.304,-0.339066 -0.456,-0.507733 -0.044,0.0672 -0.0867,0.1328 -0.12667,0.196267 -3.18533,-3.6072 -6.29733,-7.238533 -9.57866,-10.8452 -0.47734,0.639467 -0.97734,1.278133 -1.48934,1.912933 l 2.128,2.413067 8.06267,8.932266"
       style="fill:#231f20;fill-opacity:1;fill-rule:nonzero;stroke:none;stroke-width:0.13333333"
       id="path286" /><path
       inkscape:connector-curvature="0"
       d="m 144.85333,-46.732267 c -3.208,-3.559866 -6.35733,-7.139066 -9.66933,-10.695333 -0.012,0.0156 -0.024,0.0312 -0.036,0.0464 3.28133,3.606667 6.39333,7.238 9.57866,10.8452 0.04,-0.06347 0.0827,-0.129067 0.12667,-0.196267"
       style="fill:#231f20;fill-opacity:1;fill-rule:nonzero;stroke:none;stroke-width:0.13333333"
       id="path288" /><path
       inkscape:connector-curvature="0"
       d="m 135.78666,-53.0552 -2.128,-2.413067 c -0.008,0.0099 -0.0147,0.01987 -0.0227,0.02973 l 2.15066,2.383333"
       style="fill:#231f20;fill-opacity:1;fill-rule:nonzero;stroke:none;stroke-width:0.13333333"
       id="path290" /><path
       inkscape:connector-curvature="0"
       d="m 138.932,-39.1604 0.48133,0.552533 c 0.59733,-0.656133 1.16933,-1.304667 1.72,-1.949467 -0.15867,-0.185866 -0.324,-0.368133 -0.48267,-0.554666 -0.016,0.01987 -0.0307,0.03693 -0.0467,0.0568 -3.192,-3.75 -6.49334,-7.476534 -9.8196,-11.027067 -0.52134,0.562534 -1.0516,1.114 -1.59747,1.653067 l 9.77311,11.239066 c -0.009,0.0099 -0.0187,0.01987 -0.028,0.02973"
       style="fill:#231f20;fill-opacity:1;fill-rule:nonzero;stroke:none;stroke-width:0.13333333"
       id="path292" /><path
       inkscape:connector-curvature="0"
       d="m 140.65066,-41.112 c -3.204,-3.744267 -6.5,-7.463467 -9.82826,-11.009333 -0.0125,0.01293 -0.0255,0.02547 -0.038,0.03907 3.32626,3.550533 6.6276,7.277067 9.8196,11.027067 0.016,-0.01987 0.0307,-0.03693 0.0467,-0.0568"
       style="fill:#231f20;fill-opacity:1;fill-rule:nonzero;stroke:none;stroke-width:0.13333333"
       id="path294" /><path
       inkscape:connector-curvature="0"
       d="m 138.932,-39.1604 c 0.009,-0.0099 0.0187,-0.01987 0.028,-0.02973 l -9.77307,-11.239066 c -0.0119,0.012 -0.0224,0.02347 -0.0339,0.03547 l 9.77894,11.233333"
       style="fill:#231f20;fill-opacity:1;fill-rule:nonzero;stroke:none;stroke-width:0.13333333"
       id="path296" /><path
       inkscape:connector-curvature="0"
       d="m 150.54666,-62.892133 0.64534,0.7296 c 0.364,-1.693733 0.53733,-2.703067 0.616,-3.293733 -0.22,-0.252534 -0.44534,-0.5016 -0.66534,-0.753067 -0.008,0.0656 -0.012,0.1156 -0.0227,0.1968 -2.692,-3.154133 -5.45734,-6.2928 -8.252,-9.319467 -0.148,0.985334 -0.34,1.968 -0.564,2.948 l 8.24533,9.4804 c -0.001,0.0031 -0.003,0.0077 -0.003,0.01147"
       style="fill:#231f20;fill-opacity:1;fill-rule:nonzero;stroke:none;stroke-width:0.13333333"
       id="path298" /><path
       inkscape:connector-curvature="0"
       d="m 150.54666,-62.892133 c 0,-0.0037 0.001,-0.0084 0.003,-0.01147 l -8.24533,-9.4804 c -0.0107,0.048 -0.016,0.096 -0.0267,0.144 l 8.26933,9.347867"
       style="fill:#231f20;fill-opacity:1;fill-rule:nonzero;stroke:none;stroke-width:0.13333333"
       id="path300" /><path
       inkscape:connector-curvature="0"
       d="m 151.14266,-66.209333 c -2.70533,-3.101067 -5.47066,-6.185333 -8.26666,-9.161333 -0.003,0.01333 -0.005,0.02533 -0.008,0.03867 2.79466,3.026667 5.56,6.165334 8.252,9.319467 0.0107,-0.0812 0.0147,-0.1312 0.0227,-0.1968"
       style="fill:#231f20;fill-opacity:1;fill-rule:nonzero;stroke:none;stroke-width:0.13333333"
       id="path302" /><path
       inkscape:connector-curvature="0"
       d="m 132.3964,-32.651601 0.48693,0.557867 c 0.66467,-0.605733 1.326,-1.224533 1.98467,-1.862 -0.15334,-0.187467 -0.31334,-0.370267 -0.46934,-0.557867 -0.001,0.0021 -0.004,0.0048 -0.007,0.0063 -3.30867,-3.9916 -6.71174,-7.915066 -10.18894,-11.7364 -0.33533,0.240667 -0.66453,0.4964 -1.00773,0.7208 -0.4396,0.288 -0.86253,0.552667 -1.27707,0.807867 l 10.5624,11.9864 c -0.028,0.0256 -0.0561,0.0516 -0.0843,0.07707"
       style="fill:#231f20;fill-opacity:1;fill-rule:nonzero;stroke:none;stroke-width:0.13333333"
       id="path304" /><path
       inkscape:connector-curvature="0"
       d="m 134.39866,-34.513601 c -3.30026,-3.998933 -6.68253,-7.935333 -10.14186,-11.768666 -0.0177,0.01253 -0.036,0.02493 -0.0537,0.03853 3.4772,3.821334 6.88027,7.7448 10.18894,11.7364 0.003,-0.0015 0.005,-0.0041 0.007,-0.0063"
       style="fill:#231f20;fill-opacity:1;fill-rule:nonzero;stroke:none;stroke-width:0.13333333"
       id="path306" /><path
       inkscape:connector-curvature="0"
       d="m 132.3964,-32.651601 c 0.0281,-0.02547 0.0563,-0.05147 0.0843,-0.07707 l -10.5624,-11.9864 c -0.0136,0.0072 -0.0276,0.0172 -0.0407,0.02493 l 10.5188,12.038533"
       style="fill:#231f20;fill-opacity:1;fill-rule:nonzero;stroke:none;stroke-width:0.13333333"
       id="path308" /><path
       inkscape:connector-curvature="0"
       d="m 149.63866,-55.867733 c 0.35334,-1.192667 0.68934,-2.463467 1.01867,-3.8172 -0.22,-0.240534 -0.44667,-0.477067 -0.668,-0.717734 -0.024,0.09907 -0.048,0.199067 -0.072,0.300534 -2.75467,-3.096267 -5.56267,-6.1588 -8.41333,-9.1676 -0.38134,1.155733 -0.80934,2.302533 -1.312,3.432267 l 5.08133,5.433866 4.36533,4.535867"
       style="fill:#231f20;fill-opacity:1;fill-rule:nonzero;stroke:none;stroke-width:0.13333333"
       id="path310" /><path
       inkscape:connector-curvature="0"
       d="m 145.27333,-60.4036 -5.08133,-5.433866 c -0.016,0.03587 -0.028,0.07293 -0.0453,0.108266 l 5.12667,5.3256"
       style="fill:#231f20;fill-opacity:1;fill-rule:nonzero;stroke:none;stroke-width:0.13333333"
       id="path312" /><path
       inkscape:connector-curvature="0"
       d="m 149.98933,-60.402667 c -2.77467,-3.017599 -5.59467,-6.006666 -8.45867,-8.943999 -0.008,0.02587 -0.0173,0.05133 -0.0267,0.07693 2.85066,3.0088 5.65866,6.071333 8.41333,9.1676 0.024,-0.101467 0.048,-0.201467 0.072,-0.300534"
       style="fill:#231f20;fill-opacity:1;fill-rule:nonzero;stroke:none;stroke-width:0.13333333"
       id="path314" /><path
       inkscape:connector-curvature="0"
       d="m 146.56266,-49.926 0.40934,0.464533 c 0.424,-0.904666 0.808,-1.8364 1.172,-2.7964 -0.13334,-0.159333 -0.27067,-0.3156 -0.404,-0.474933 -0.007,0.01827 -0.0133,0.03693 -0.0187,0.0552 -2.91733,-3.507867 -5.90667,-6.954133 -8.95333,-10.3328 -0.26,0.471333 -0.51334,0.945333 -0.79734,1.4088 -0.21466,0.3464 -0.45066,0.702667 -0.67866,1.0552 l 9.30266,10.556267 c -0.0107,0.02133 -0.0213,0.04227 -0.032,0.06413"
       style="fill:#231f20;fill-opacity:1;fill-rule:nonzero;stroke:none;stroke-width:0.13333333"
       id="path316" /><path
       inkscape:connector-curvature="0"
       d="m 147.74,-52.7328 c -2.92,-3.499467 -5.904,-6.944267 -8.94934,-10.3188 -0.008,0.01413 -0.0147,0.0276 -0.0227,0.0412 3.04666,3.378667 6.036,6.824933 8.95333,10.3328 0.005,-0.01827 0.012,-0.03693 0.0187,-0.0552"
       style="fill:#231f20;fill-opacity:1;fill-rule:nonzero;stroke:none;stroke-width:0.13333333"
       id="path318" /><path
       inkscape:connector-curvature="0"
       d="m 146.56266,-49.926 c 0.0107,-0.02187 0.0213,-0.0428 0.032,-0.06413 L 137.292,-60.5464 c -0.012,0.01933 -0.024,0.038 -0.0373,0.05733 l 9.308,10.563067"
       style="fill:#231f20;fill-opacity:1;fill-rule:nonzero;stroke:none;stroke-width:0.13333333"
       id="path320" /><path
       inkscape:connector-curvature="0"
       d="m 230.12533,24.743727 c 2.45333,2.91254 7.33333,8.31774 10.86533,12.2 0.092,-0.64786 0.16133,-1.3104 0.208,-1.98226 -3.38,-3.98547 -8.48133,-9.7656 -11,-12.34267 l -0.0733,2.12493"
       style="fill:#231f20;fill-opacity:1;fill-rule:nonzero;stroke:#231f20;stroke-width:0.13333333;stroke-opacity:1"
       id="path322" /><path
       inkscape:connector-curvature="0"
       d="m 229.19599,29.952127 c -0.38133,0.53587 -0.764,1.14627 -0.68933,1.83174 l 9.80267,11.46146 0.576,0.1932 c 0.19333,-0.376 0.376,-0.74373 0.54666,-1.1068 0.0587,-0.22133 0.10267,-0.45053 0.10267,-0.6916 -3.36933,-3.96933 -6.66133,-7.94693 -10.33867,-11.688"
       style="fill:#231f20;fill-opacity:1;fill-rule:nonzero;stroke:#231f20;stroke-width:0.13333333;stroke-opacity:1"
       id="path324" /><path
       inkscape:connector-curvature="0"
       d="m 226.38133,36.331727 -0.51467,-0.14626 -0.65867,1.3916 c 3.22534,3.74266 6.59867,7.8484 10.04534,11.36666 0.192,-0.2052 0.39333,-0.43853 0.59733,-0.69426 0.10267,-0.16827 0.19467,-0.34534 0.28267,-0.55107 -3.15334,-3.888 -6.30667,-7.6276 -9.752,-11.36667"
       style="fill:#231f20;fill-opacity:1;fill-rule:nonzero;stroke:#231f20;stroke-width:0.13333333;stroke-opacity:1"
       id="path326" /><path
       inkscape:connector-curvature="0"
       d="m 220.58266,41.973467 c 3.15333,3.74013 6.45333,7.47866 9.68,11.21716 l 0.21467,0.0932 c 0.48133,-0.41302 1.01066,-0.87344 1.54933,-1.3453 -3.2,-3.71042 -6.18933,-7.35215 -9.684,-10.99162 -0.66,-0.66146 -1.32,0.58374 -1.76,1.02654"
       style="fill:#231f20;fill-opacity:1;fill-rule:nonzero;stroke:#231f20;stroke-width:0.13333333;stroke-opacity:1"
       id="path328" /><path
       inkscape:connector-curvature="0"
       d="m 239.80133,26.258797 c -0.20534,-1.03747 -0.57867,-2.19733 -1.09067,-3.41187 -1.72667,-1.94853 -3.71067,-4.07613 -5.71067,-6.2 -1.37066,-1.0256 -2.99866,-1.73333 -4.128,-2.14426 3.61867,3.9348 8.064,8.67853 10.92934,11.75613"
       style="fill:#231f20;fill-opacity:1;fill-rule:nonzero;stroke:#231f20;stroke-width:0.13333333;stroke-opacity:1"
       id="path330" /><path
       inkscape:connector-curvature="0"
       d="m 225.84133,10.336397 c 0,0 0.048,0.0625 0.144,0.21 l 0.27466,-0.0391 c -0.13866,-0.0557 -0.29466,-0.12133 -0.41866,-0.17093"
       style="fill:#231f20;fill-opacity:1;fill-rule:nonzero;stroke:#231f20;stroke-width:0.13333333;stroke-opacity:1"
       id="path332" /></g></svg>