<svg xmlns="http://www.w3.org/2000/svg" xmlns:xlink="http://www.w3.org/1999/xlink" width="120" height="60" viewBox="0 0 31.75 15.875"><style><![CDATA[.F{stroke-linejoin:round}.G{fill:#204a87}.H{stroke:#204a87}.I{stroke-width:.055}.J{stroke-width:.068}]]></style><g transform="matrix(1.085557 0 0 1.085557 -1.077953 -305.856383)"><g class="G"><g class="H"><path d="M6.746 286.173l-3.832 2.508v2.017l1.916 1.254 1.916-1.254 1.916 1.254 1.916-1.254v-2.017z" stroke-width=".537"/><use xlink:href="#A" class="F I"/></g><path d="M8.662 287.35v2.017l-1.916 1.254v-2.017z" stroke="#000" class="F J"/></g><g fill="#fff" class="F"><path d="M4.844 287.35v2.017l1.916 1.254v-2.017z" stroke="#000" class="J"/><use xlink:href="#A" y="-2.016" class="H I"/></g><g class="F H I"><use xlink:href="#A" x="1.916" y="1.254" class="G"/><use xlink:href="#A" x="1.916" y="-.763" fill="#fff"/></g><g class="F H J"><path d="M10.578 288.605v2.017l-1.916 1.254v-2.017z" class="G"/><path d="M6.76 288.652v2.017l1.916 1.254v-2.017z" fill="#fff"/></g><g class="F H I"><use xlink:href="#A" x="-1.916" y="1.254" class="G"/><use xlink:href="#A" x="-1.916" y="-.763" fill="#fff"/></g><g class="F H J"><path d="M6.746 288.605v2.017l-1.916 1.254v-2.017z" class="G"/><path d="M2.928 288.605v2.017l1.916 1.254v-2.017z" fill="#fff"/></g></g><path d="M12.324 9.2h.456V8.126h.932V7.74h-.932v-.728h1.097v-.385h-1.554zm2.4 0h1.522v-.385H15.2V6.628h-.456zm2.768-1.054l.1-.315.228-.85h.016l.232.85.1.315zm.96 1.054h.484l-.838-2.572h-.535L16.73 9.2h.468l.2-.696h.86zm1.576 0h.456V7.013h.74v-.385h-1.94v.385h.743zm2.048 0h.456V8.06h1.038V9.2h.456V6.628h-.456v1.034h-1.038V6.628h-.456zm3.002-1.13c0 .846.38 1.176.98 1.176s.97-.33.97-1.176V6.628h-.44v1.48c0 .558-.216.743-.53.743s-.523-.185-.523-.743v-1.48h-.456zM28.08 9.2h.9c.566 0 .987-.24.987-.755 0-.346-.208-.547-.578-.6V7.82c.303-.08.44-.315.44-.558 0-.472-.4-.633-.916-.633h-.822zm.456-1.506v-.712h.334c.334 0 .5.098.5.334s-.15.378-.5.378zm0 1.152V8.02h.385c.38 0 .586.126.586.393 0 .3-.208.433-.586.433z" class="G"/><defs><path id="A" d="M6.746 288.113l1.916 1.254-1.916 1.254-1.916-1.254z"/></defs></svg>