<svg xmlns="http://www.w3.org/2000/svg" width="120" height="60"><path d="M55.885 22.206v6.235h-1.568v-6.235h-2.2v-1.532h5.985v1.532zm6.84 6.234v-3.135c0-1.033-.356-1.354-.998-1.354s-.998.32-.998 1.318v3.17h-1.532v-7.303l1.532-.748v2.636a1.83 1.83 0 0 1 1.354-.5c1.496 0 2.138 1.033 2.138 2.672v3.278h-1.496zm7.66-2.422h-3.5c.01.308.146.6.374.807s.53.315.838.298a1.29 1.29 0 0 0 .998-.392l1.104.926a2.68 2.68 0 0 1-2.066.926c-1.674 0-2.743-1.176-2.743-3.028 0-1.78 1.104-3.028 2.6-3.028 1.568 0 2.458 1.4 2.458 3.028a1.33 1.33 0 0 0-.07.463zm-2.494-2.173c-.534 0-.9.463-.962 1.033h1.995a1.01 1.01 0 0 0-1.033-1.033zM46.16 41.4c-3.705 0-5.914-2.886-5.914-7.018s2.2-6.983 5.914-6.983 5.914 2.886 5.914 6.983-2.2 7.018-5.914 7.018zm0-11.294c-2.2 0-3.1 1.888-3.1 4.3s.926 4.3 3.1 4.3 3.1-1.888 3.1-4.3-.9-4.3-3.1-4.3zm14.178 4.034a2.34 2.34 0 0 0-1.568-.677c-1.033 0-1.7.428-1.7 2.2v5.522H54.4v-10.2h2.672v.677a2.76 2.76 0 0 1 2.102-.891 2.72 2.72 0 0 1 1.888.713zm6.306 7.27c-2.672 0-4.774-2.173-4.774-5.308s2.066-5.308 4.88-5.308c1.924 0 3.17.962 4.026 2.244l-1.78 1.78c-.606-.855-1.247-1.46-2.316-1.46-1.283 0-2.102 1.07-2.102 2.743s.82 2.708 2.102 2.708c1.033 0 1.7-.463 2.423-1.283l1.7 1.603c-.998 1.318-2.138 2.28-4.168 2.28zm12.326-.215v-5.522c0-1.817-.606-2.387-1.7-2.387s-1.746.534-1.746 2.316v5.558h-2.672V28.405l2.672-1.354v4.63a3.27 3.27 0 0 1 2.387-.89c2.6 0 3.776 1.78 3.776 4.667v5.736zm10.76 0v-.677a3.32 3.32 0 0 1-2.28.89c-1.888 0-3.812-1.176-3.812-3.634 0-2.244 1.817-3.385 4.133-3.385a4.2 4.2 0 0 1 1.959.428v-.5c0-.713-.5-1.283-1.46-1.283-.972-.048-1.938.187-2.78.677l-1.033-1.853a6.84 6.84 0 0 1 3.812-1.033c2.458 0 4.133 1.283 4.133 3.563v6.84H89.73zm0-4.275a3.15 3.15 0 0 0-1.853-.428c-.998 0-1.568.463-1.568 1.283 0 .713.392 1.354 1.568 1.354a2.14 2.14 0 0 0 1.853-.926zm11.152-2.78c-.4-.408-.955-.65-1.532-.677-1.033 0-1.746.428-1.746 2.2v5.522h-2.672v-10.2h2.672v.677a2.76 2.76 0 0 1 2.102-.891 2.65 2.65 0 0 1 1.888.713zm7.658 7.055v-.64a3.03 3.03 0 0 1-2.138.855c-2.173 0-3.955-1.64-3.955-5.45 0-3.028 1.425-5.166 3.955-5.166a3.23 3.23 0 0 1 2.138.784V28.37l2.672-1.354V41.16h-2.672zm0-6.983a2.14 2.14 0 0 0-1.817-.891c-1.033 0-1.603.9-1.603 2.6 0 2.102.713 2.957 1.746 2.957.658.02 1.278-.305 1.64-.855V34.2z" fill="#0e3454"/><path d="M36.22 31.397a13.72 13.72 0 0 1-13.716 13.716A13.72 13.72 0 0 1 8.787 31.397a13.72 13.72 0 0 1 13.716-13.716 13.7 13.7 0 0 1 13.716 13.716z" fill="#ff893e"/><path d="M24.035 8.74l-3.563-.356c-1.21-.107-3.563-.428-4.204-1.496-.003.096-.015.19-.036.285-.046.755.026 1.512.214 2.244.216.92.55 1.805.998 2.636.143.285.32.534.5.82 1.14 1.674 2.957 2.85 5.7 3.456 3.598.82 6.983 1.39 9.62 4.738v-.036c.463-1.853-1.354-11.044-9.227-12.29z" fill="#78a22f"/></svg>