<?xml version="1.0" encoding="UTF-8" standalone="no"?>
<svg
   xmlns:dc="http://purl.org/dc/elements/1.1/"
   xmlns:cc="http://creativecommons.org/ns#"
   xmlns:rdf="http://www.w3.org/1999/02/22-rdf-syntax-ns#"
   xmlns:svg="http://www.w3.org/2000/svg"
   xmlns="http://www.w3.org/2000/svg"
   xmlns:sodipodi="http://sodipodi.sourceforge.net/DTD/sodipodi-0.dtd"
   xmlns:inkscape="http://www.inkscape.org/namespaces/inkscape"
   version="1.1"
   id="Layer_1"
   x="0px"
   y="0px"
   viewBox="0 0 64 63.999999"
   xml:space="preserve"
   sodipodi:docname="gitkraken-icon.svg"
   width="64"
   height="64"
   inkscape:version="0.92.3 (2405546, 2018-03-11)"><metadata
   id="metadata41"><rdf:RDF><cc:Work
       rdf:about=""><dc:format>image/svg+xml</dc:format><dc:type
         rdf:resource="http://purl.org/dc/dcmitype/StillImage" /><dc:title></dc:title></cc:Work></rdf:RDF></metadata><defs
   id="defs39" /><sodipodi:namedview
   pagecolor="#ffffff"
   bordercolor="#666666"
   borderopacity="1"
   objecttolerance="10"
   gridtolerance="10"
   guidetolerance="10"
   inkscape:pageopacity="0"
   inkscape:pageshadow="2"
   inkscape:window-width="1920"
   inkscape:window-height="1001"
   id="namedview37"
   showgrid="false"
   inkscape:zoom="4.4465378"
   inkscape:cx="24.633872"
   inkscape:cy="48.056115"
   inkscape:window-x="-9"
   inkscape:window-y="-9"
   inkscape:window-maximized="1"
   inkscape:current-layer="Layer_1" />
<style
   type="text/css"
   id="style2">
    .squid{fill:#149287;}
    .wordmark{fill:#f9efc1;}
    .axosoft{fill:#e75225;}
</style>

<path
   class="squid"
   d="m 61.960438,16.677766 c -0.24615,-0.668132 -1.01978,-1.019782 -1.68791,-0.738462 -0.49231,0.21099 -0.77363,0.668132 -0.77363,1.160438 0,0.14066 0.0352,0.316485 0.0703,0.457145 1.230771,3.235164 1.863741,6.716482 1.863741,10.373625 0,14.945056 -11.147252,27.287911 -25.564835,29.186814 V 43.367874 c 0.87912,-0.17582 1.723078,-0.386813 2.567031,-0.668131 v 11.534066 c 11.850551,-2.883518 20.641763,-13.573627 20.641763,-26.303297 0,-10.197802 -5.661542,-19.0945036 -13.995608,-23.7010972 -0.632967,-0.351649 -1.441757,-0.105488 -1.758241,0.562635 -0.105487,0.17582 -0.14066,0.386813 -0.14066,0.56264 0,0.457141 0.246154,0.879119 0.668132,1.125273 7.560439,4.1846162 12.659341,12.2373632 12.659341,21.4505492 0,10.373626 -6.435165,19.235164 -15.542858,22.821978 V 40.519524 c 1.582417,-0.49231 2.778021,-1.969231 2.778021,-3.727474 0,-1.441758 -0.738461,-2.707691 -1.934066,-3.375824 0.914286,-8.826375 4.958243,-6.505494 4.958243,-9.318682 v -1.652746 c 0,-4.21978 -9.775824,-17.9692302 -14.347255,-18.2857132 -0.14066,0 -0.281318,0 -0.421976,0 -0.14066,0 -0.28132,0 -0.421978,0 C 27.006594,4.4755678 17.230768,18.225018 17.230768,22.444798 v 1.652746 c 0,2.813188 4.043959,0.492307 4.958243,9.318682 -1.195604,0.668133 -1.934066,1.934066 -1.934066,3.375824 0,1.758243 1.195605,3.235164 2.778021,3.727474 V 50.75249 C 13.925276,47.165676 7.4901105,38.304138 7.4901105,27.930512 c 0,-9.248351 5.0989035,-17.265933 12.6593445,-21.4505492 0.597801,-0.316482 0.808789,-1.054945 0.527471,-1.687913 -0.210988,-0.457142 -0.668132,-0.703295 -1.160439,-0.703295 -0.21099,0 -0.421979,0.03516 -0.597804,0.17582 C 10.549451,8.8711682 4.9230785,17.732707 4.9230785,27.965673 c 0,12.72967 8.7912105,23.419782 20.6417595,26.303297 V 42.734904 c 0.843958,0.281319 1.687912,0.527472 2.567034,0.668132 V 57.152489 C 13.679121,55.25359 2.5670335,42.910731 2.5670335,27.965678 c 0,-3.657144 0.668132,-7.138462 1.863736,-10.373626 0.246155,-0.632967 -0.07033,-1.371428 -0.703296,-1.617585 -0.175818,-0.07033 -0.316482,-0.105486 -0.492308,-0.105486 -0.527472,0 -1.01978,0.316483 -1.195605,0.843956 C 0.7384625,20.229414 1.5e-6,24.027218 1.5e-6,27.96568 c 0,17.230769 13.6087895,31.296704 30.6989015,31.964835 V 43.719524 c 0.457144,0.03516 1.301101,0.03516 1.301101,0.03516 0,0 0.843956,0 1.301098,-0.03516 V 59.930515 C 50.391211,59.262382 63.999999,45.196447 63.999999,27.965678 63.964849,23.992049 63.261538,20.194249 61.960438,16.677766 Z m -24.08791,18.250548 c 0.492307,-0.492308 1.125276,-0.773626 1.863736,-0.773626 0.738462,0 1.37143,0.281318 1.863736,0.773626 0.49231,0.492308 0.773628,1.125275 0.773628,1.863736 0,0.738461 -0.281318,1.371428 -0.773628,1.863736 -0.492306,0.49231 -1.125274,0.773626 -1.863736,0.773626 -0.73846,0 -1.371428,-0.281316 -1.863736,-0.773626 -0.492306,-0.492308 -0.773626,-1.125275 -0.773626,-1.863736 0.03516,-0.703295 0.316483,-1.371428 0.773626,-1.863736 z m -11.780219,3.727472 c -0.492306,0.49231 -1.125275,0.773626 -1.863738,0.773626 -0.738461,0 -1.371427,-0.281316 -1.863737,-0.773626 -0.492305,-0.492308 -0.773623,-1.125275 -0.773623,-1.863736 0,-0.738461 0.281318,-1.371428 0.773623,-1.863736 0.49231,-0.492308 1.125276,-0.773626 1.863737,-0.773626 0.738463,0 1.371432,0.281318 1.863738,0.773626 0.492307,0.492308 0.773627,1.125275 0.773627,1.863736 0,0.738461 -0.316485,1.406594 -0.773627,1.863736 z"
   id="path4"
   inkscape:connector-curvature="0"
   style="fill:#149287;stroke-width:0.35164839" />




</svg>