<?xml version="1.0" encoding="UTF-8" standalone="no"?>
<!-- Generator: Adobe Illustrator 18.1.1, SVG Export Plug-In . SVG Version: 6.00 Build 0)  -->

<svg
   xmlns:dc="http://purl.org/dc/elements/1.1/"
   xmlns:cc="http://creativecommons.org/ns#"
   xmlns:rdf="http://www.w3.org/1999/02/22-rdf-syntax-ns#"
   xmlns:svg="http://www.w3.org/2000/svg"
   xmlns="http://www.w3.org/2000/svg"
   xmlns:xlink="http://www.w3.org/1999/xlink"
   xmlns:sodipodi="http://sodipodi.sourceforge.net/DTD/sodipodi-0.dtd"
   xmlns:inkscape="http://www.inkscape.org/namespaces/inkscape"
   version="1.1"
   x="0px"
   y="0px"
   viewBox="0 0 120 60"
   enable-background="new 0 0 242.9 68"
   xml:space="preserve"
   id="svg137"
   sodipodi:docname="bnpparibas-ar21.svg"
   width="120"
   height="60"
   inkscape:version="0.92.3 (2405546, 2018-03-11)"><metadata
   id="metadata143"><rdf:RDF><cc:Work
       rdf:about=""><dc:format>image/svg+xml</dc:format><dc:type
         rdf:resource="http://purl.org/dc/dcmitype/StillImage" /><dc:title></dc:title></cc:Work></rdf:RDF></metadata><defs
   id="defs141">
	
	
<linearGradient
   inkscape:collect="always"
   xlink:href="#SVGID_1_"
   id="linearGradient991"
   gradientUnits="userSpaceOnUse"
   x1="-1.0686561e-009"
   y1="23.7934"
   x2="1.0808699e-009"
   y2="-24.083799" /><linearGradient
   inkscape:collect="always"
   xlink:href="#SVGID_2_"
   id="linearGradient993"
   gradientUnits="userSpaceOnUse"
   x1="-0.071540467"
   y1="33.9436"
   x2="-0.071540467"
   y2="-19.856501" /><linearGradient
   inkscape:collect="always"
   xlink:href="#SVGID_3_"
   id="linearGradient995"
   gradientUnits="userSpaceOnUse"
   x1="8.5462999"
   y1="-16.885799"
   x2="8.5462999"
   y2="17.929701" /><linearGradient
   inkscape:collect="always"
   xlink:href="#SVGID_4_"
   id="linearGradient997"
   gradientUnits="userSpaceOnUse"
   x1="-13.0547"
   y1="-16.8878"
   x2="-13.0547"
   y2="17.938101" /><linearGradient
   inkscape:collect="always"
   xlink:href="#SVGID_5_"
   id="linearGradient999"
   gradientUnits="userSpaceOnUse"
   x1="-6.3256998"
   y1="-16.8801"
   x2="-6.3256998"
   y2="17.9245" /><linearGradient
   inkscape:collect="always"
   xlink:href="#SVGID_6_"
   id="linearGradient1001"
   gradientUnits="userSpaceOnUse"
   x1="-0.50779998"
   y1="-16.885201"
   x2="-0.50779998"
   y2="17.9244" /></defs><sodipodi:namedview
   pagecolor="#ffffff"
   bordercolor="#666666"
   borderopacity="1"
   objecttolerance="10"
   gridtolerance="10"
   guidetolerance="10"
   inkscape:pageopacity="0"
   inkscape:pageshadow="2"
   inkscape:window-width="1920"
   inkscape:window-height="1001"
   id="namedview139"
   showgrid="false"
   inkscape:zoom="8"
   inkscape:cx="53.152778"
   inkscape:cy="20.137601"
   inkscape:window-x="-9"
   inkscape:window-y="-9"
   inkscape:window-maximized="1"
   inkscape:current-layer="svg137" />
<symbol
   id="volume"
   viewBox="-22.7 -22.7 45.4 45.4"
   transform="translate(0,-8)">
	<g
   id="g72">
		
			<linearGradient
   id="SVGID_1_"
   gradientUnits="userSpaceOnUse"
   x1="-1.0686561e-009"
   y1="23.7934"
   x2="1.0808699e-009"
   y2="-24.083799">
			<stop
   offset="0"
   style="stop-color:#00774A"
   id="stop2" />
			<stop
   offset="0.6"
   style="stop-color:#8CCAAE"
   id="stop4" />
			<stop
   offset="1"
   style="stop-color:#00975F"
   id="stop6" />
		</linearGradient>
		<polygon
   points="22.7,-22.7 -22.7,-22.7 -22.7,22.7 22.7,22.7 "
   id="polygon9"
   style="fill:url(#linearGradient991)" />
		
			<linearGradient
   id="SVGID_2_"
   gradientUnits="userSpaceOnUse"
   x1="-0.071540467"
   y1="33.9436"
   x2="-0.071540467"
   y2="-19.856501">
			<stop
   offset="0"
   style="stop-color:#00975F"
   id="stop11" />
			<stop
   offset="0.3"
   style="stop-color:#8CCAAE"
   id="stop13" />
			<stop
   offset="0.55"
   style="stop-color:#00975F"
   id="stop15" />
			<stop
   offset="0.8352"
   style="stop-color:#00774A"
   id="stop17" />
			<stop
   offset="0.8691"
   style="stop-color:#007C4E"
   id="stop19" />
			<stop
   offset="0.9244"
   style="stop-color:#00895A"
   id="stop21" />
			<stop
   offset="0.9938"
   style="stop-color:#009E6E"
   id="stop23" />
			<stop
   offset="1"
   style="stop-color:#00A070"
   id="stop25" />
		</linearGradient>
		<path
   d="m 21.3,-0.3 c 0,-9.5 0.4,-19.2 0.4,-19.2 0,-1.1 -0.7,-1.8 -1.6,-1.8 h -39.3 c -0.9,0 -1.5,0.8 -1.6,1.8 0,0 -1.1,8.3 -1.1,20.9 0,12.6 1.1,18.6 1.1,18.6 0.1,1 0.7,1.8 1.6,1.8 h 39.3 c 0.9,0 1.6,-0.8 1.6,-1.8 0,0.1 -0.4,-10.8 -0.4,-20.3 z"
   id="path28"
   inkscape:connector-curvature="0"
   style="fill:url(#linearGradient993)" />
		<g
   id="g70">
			<g
   id="g58">
				<linearGradient
   id="SVGID_3_"
   gradientUnits="userSpaceOnUse"
   x1="8.5462999"
   y1="-16.885799"
   x2="8.5462999"
   y2="17.929701">
					<stop
   offset="0"
   style="stop-color:#00A97C"
   id="stop30" />
					<stop
   offset="1"
   style="stop-color:#00975F"
   id="stop32" />
				</linearGradient>
				<path
   d="M 12.5,10.4 C 9.7,8.8 8.9,8.7 5.8,6.8 L 6,7.2 c 1.6,1.7 2.3,2.5 3.3,4 C 6.5,11 2.4,10.7 -0.5,10.1 v 0 0 0 l 0.2,0.3 C 2.3,11.7 7.3,13 9.8,13.3 9.2,14.2 4.2,16.9 3,17.4 v 0 0 0 l 0.1,0.3 c 3.8,-0.4 8.8,-2.2 10.9,-3.5 0.9,0.3 1.9,0.3 3.6,0.5 0,0 -0.3,-1 -2.1,-2.3 v 0 0 0 C 16,11.2 14.9,4.3 13.9,2.5 v 0 0 0 c 0,2.8 -0.3,6.4 -1.4,7.9 z"
   id="path35"
   inkscape:connector-curvature="0"
   style="fill:url(#linearGradient995)" />
				<linearGradient
   id="SVGID_4_"
   gradientUnits="userSpaceOnUse"
   x1="-13.0547"
   y1="-16.8878"
   x2="-13.0547"
   y2="17.938101">
					<stop
   offset="0"
   style="stop-color:#00A97C"
   id="stop37" />
					<stop
   offset="1"
   style="stop-color:#00975F"
   id="stop39" />
				</linearGradient>
				<path
   d="m -8,-14.1 0.1,0.3 c -1.5,0.6 -3,1 -4.2,2.2 v 0 0 0 0 0 0 0 0 0 0 0 0 0 0 0 0 0 0 0 0 0 0 0 0 0 0 0 0 0 0 0 c 0.4,1.1 0.8,1.9 1.5,2.9 v 0 0 0 0 0 0 0 0 0 0 0 0 0 0 0 0 0 0 0 0 0 0 0 0 0 0 0 0 0 0 0 l 0.1,0.3 c -1.3,-0.2 -2.4,-0.7 -3.5,-0.9 v 0 0 0 0 0 0 0 0 0 0 0 0 0 0 0 0 0 0 0 0 0 0 0 0 0 0 0 0 0 0 0 c -0.9,1.5 -1.2,3.6 -1.7,5.6 L -15.8,-4 v 0 0 0 0 0 0 0 0 0 0 0 0 0 0 0 c -0.2,-2.3 -0.3,-3.9 0,-5.7 v 0 0 0 0 0 0 0 0 0 0 0 0 0 0 0 0 0 0 0 0 0 0 0 0 0 0 0 0 0 0 0 c -0.9,-0.3 -1.7,-0.3 -2.5,-0.6 l -0.1,-0.3 v 0 0 0 0 0 0 0 0 0 0 0 0 0 0 0 0 0 0 0 0 0 0 0 0 0 0 0 0 0 0 0 c 1.2,-0.7 2.1,-1.3 3.5,-1.9 v 0 0 0 0 0 0 0 0 0 0 0 0 0 0 0 0 0 0 0 0 0 0 0 0 0 0 0 0 0 0 0 c 0.7,-1.5 1.5,-2.6 2.7,-3.8 v 0 0 0 0 0 0 0 0 0 0 0 0 0 0 0 0 0 0 0 0 0 0 0 0 0 0 0 0 0 0 0 l 0.1,0.3 c -0.2,0.9 -0.5,1.6 -0.4,2.6 v 0 0 0 0 0 0 0 0 0 0 0 0 0 0 0 0 0 0 0 0 0 0 0 0 0 0 0 0 0 0 0 c 1.6,-0.4 2.9,-0.6 4.5,-0.7 z"
   id="path42"
   inkscape:connector-curvature="0"
   style="fill:url(#linearGradient997)" />
				<linearGradient
   id="SVGID_5_"
   gradientUnits="userSpaceOnUse"
   x1="-6.3256998"
   y1="-16.8801"
   x2="-6.3256998"
   y2="17.9245">
					<stop
   offset="0"
   style="stop-color:#00A97C"
   id="stop44" />
					<stop
   offset="1"
   style="stop-color:#00975F"
   id="stop46" />
				</linearGradient>
				<path
   d="m -3.8,8.7 c 0,0 -0.6,-1.1 -1.1,-2.5 H -5 v 0 0 C -1.5,5.7 1.8,4.3 2.6,3.8 L 2.5,3.5 v 0 0 0 0 0 0 0 C -1.2,4.2 -3.1,4.1 -4.4,4 V 4 4 4 C -5.8,3.8 -6,3.7 -6,3.7 v 0 0 0 0 0 0 0 C -6.8,2 -7.3,-0.8 -7.5,-1.8 l -0.1,-0.3 v 0 0 0 0 0 0 0 c -0.7,1.6 -1.6,4.8 -1.6,4.8 v 0 0 0 0 0 0 0 c -1.8,-1 -6,-4.9 -6,-4.9 v 0 0 0 0 0 0 0 c 2.3,4.6 4.7,6.7 4.7,6.7 v 0 0 0 0 0 0 0 c -0.8,0.8 -2.9,1.2 -4.5,1.3 v 0 0 0 l 0.1,0.3 c 1,0.3 3,0.4 4.3,0.5 v 0 0 0 0 0 0 0 c 1.6,0 2.5,0 2.5,0 v 0 0 0 c 1.4,1 3.5,2 4.3,2.1 z"
   id="path49"
   inkscape:connector-curvature="0"
   style="fill:url(#linearGradient999)" />
				<linearGradient
   id="SVGID_6_"
   gradientUnits="userSpaceOnUse"
   x1="-0.50779998"
   y1="-16.885201"
   x2="-0.50779998"
   y2="17.9244">
					<stop
   offset="0"
   style="stop-color:#00A97C"
   id="stop51" />
					<stop
   offset="1"
   style="stop-color:#00975F"
   id="stop53" />
				</linearGradient>
				<path
   d="m 0.6,-11.2 c -0.7,-1 -1.4,-1.8 -2.2,-2.7 v 0 0 0 0 0 0 0 0 0 0 0 0 0 0 0 0 0 0 0 0 0 0 0 0 0 0 0 0 0 0 0 c -1.2,-0.3 -2.6,-0.2 -3.7,-0.2 l -0.1,-0.3 v 0 0 0 0 0 0 0 0 0 0 0 0 0 0 0 0 0 0 0 0 0 0 0 0 0 0 0 0 0 0 0 c 0.8,-0.4 1.6,-0.7 2.5,-0.9 v 0 0 0 0 0 0 0 0 0 0 0 0 0 0 0 0 0 0 0 0 0 0 0 0 0 0 0 0 0 0 0 c -0.7,-0.6 -1.6,-1.1 -2.3,-1.6 l -0.1,-0.3 v 0 0 0 0 0 0 0 0 0 0 0 0 0 0 0 0 0 0 0 0 0 0 0 0 0 0 0 0 0 0 0 c 1.4,0.3 3.3,0.9 4.7,1.8 v 0 0 0 0 0 0 0 0 0 0 0 0 0 0 0 0 0 0 0 0 0 0 0 0 0 0 0 0 0 0 0 c 0.7,0 1.4,0 1.9,0.1 v 0 0 0 0 0 0 0 0 0 0 0 0 0 0 0 0 0 0 0 0 0 0 0 0 0 0 0 0 0 0 0 c 0,0 0.1,0.3 0.1,0.3 -0.1,0.3 -0.4,0.5 -0.5,1 v 0 0 0 0 0 0 0 0 0 0 0 0 0 0 0 0 0 0 0 0 0 0 0 0 0 0 0 0 0 0 0 c 1.3,1 2.2,1.9 3.3,3 v 0 0 0 0 0 0 0 0 0 0 0 0 0 0 0 0 0 0 0 0 0 0 0 0 0 0 0 0 0 0 0 l 0.2,0.3 C 3.3,-11.4 2,-12.5 0.8,-13.1 v 0 0 0 0 0 0 0 0 0 0 0 0 0 0 0 0 0 0 0 0 0 0 0 0 0 0 0 0 0 0 0 c -0.1,0.7 -0.1,1.2 -0.2,1.9 z"
   id="path56"
   inkscape:connector-curvature="0"
   style="fill:url(#linearGradient1001)" />
			</g>
			<g
   id="g68">
				<path
   d="M 12.7,10.7 C 9.9,9.1 9,9 6,7.1 7.8,9 8.4,9.8 9.5,11.5 6.7,11.4 2.6,11 -0.3,10.4 v 0 0 0 c 2.5,1.4 7.6,2.9 10.2,3.2 -0.6,0.8 -5.6,3.5 -6.8,4.1 v 0 0 0 c 3.9,-0.3 8.8,-1.8 11.1,-3.2 0.9,0.3 1.9,0.3 3.6,0.5 v 0 0 0 c -0.4,-0.7 -0.5,-1.2 -2.1,-2.3 v 0 0 0 C 16.2,11.5 15.1,4.6 14.1,2.8 v 0 0 0 C 14,5.6 13.8,9.2 12.7,10.7 Z"
   id="path60"
   inkscape:connector-curvature="0"
   style="fill:#ffffff" />
				<path
   d="m -7.8,-13.8 c -1.6,0.6 -2.8,1.3 -4,2.5 v 0 0 0 0 0 0 0 0 0 0 0 0 0 0 0 0 0 0 0 0 0 0 0 0 0 0 0 0 0 0 0 c 0.4,1.1 0.8,1.9 1.5,2.9 v 0 0 0 0 0 0 0 0 0 0 0 0 0 0 0 0 0 0 0 0 0 0 0 0 0 0 0 0 0 0 0 c -1.3,-0.2 -2.3,-0.3 -3.4,-0.6 v 0 0 0 0 0 0 0 0 0 0 0 0 0 0 0 0 0 0 0 0 0 0 0 0 0 0 0 0 0 0 0 c -0.9,1.6 -1.3,3.2 -1.8,5.3 v 0 0 0 0 0 0 0 0 0 0 0 0 0 0 0 c -0.3,-2.3 -0.3,-3.9 0,-5.7 v 0 0 0 0 0 0 0 0 0 0 0 0 0 0 0 0 0 0 0 0 0 0 0 0 0 0 0 0 0 0 0 c -1,-0.3 -1.8,-0.5 -2.6,-0.9 v 0 0 0 0 0 0 0 0 0 0 0 0 0 0 0 0 0 0 0 0 0 0 0 0 0 0 0 0 0 0 0 c 1.2,-0.7 2.2,-1.3 3.5,-1.9 v 0 0 0 0 0 0 0 0 0 0 0 0 0 0 0 0 0 0 0 0 0 0 0 0 0 0 0 0 0 0 0 c 0.7,-1.5 1.5,-2.6 2.7,-3.8 v 0 0 0 0 0 0 0 0 0 0 0 0 0 0 0 0 0 0 0 0 0 0 0 0 0 0 0 0 0 0 0 c -0.3,1 -0.4,1.8 -0.2,2.9 v 0 0 0 0 0 0 0 0 0 0 0 0 0 0 0 0 0 0 0 0 0 0 0 0 0 0 0 0 0 0 0 c 1.3,-0.4 2.6,-0.6 4.3,-0.7 z"
   id="path62"
   inkscape:connector-curvature="0"
   style="fill:#ffffff" />
				<path
   d="M -3.6,9 V 9 9 9 9 C -4.1,8.3 -4.7,7.1 -4.8,6.6 v 0 0 0 C -0.7,6 2.6,3.8 2.6,3.8 v 0 0 0 0 0 0 0 C -1,4.5 -2.9,4.4 -4.3,4.3 v 0 0 0 C -5.6,4.2 -5.9,4 -5.9,4 v 0 0 0 0 0 0 0 c -1,-2.1 -1.6,-5.8 -1.6,-5.8 v 0 0 0 0 0 0 0 C -8.1,-0.2 -9.1,3 -9.1,3 v 0 0 0 0 0 0 0 c -1.8,-1 -6,-4.9 -6,-4.9 v 0 0 0 0 0 0 0 c 2.3,4.6 4.7,6.7 4.7,6.7 v 0 0 0 0 0 0 0 c -0.8,0.8 -2.9,1.2 -4.5,1.3 v 0 0 0 c 0.8,0.3 2.9,0.7 4.5,0.8 v 0 0 0 0 0 0 0 c 1.6,0 2.5,0 2.5,0 v 0 0 0 c 1.4,1 3.5,2 4.3,2.1 z"
   id="path64"
   inkscape:connector-curvature="0"
   style="fill:#ffffff" />
				<path
   d="m 0.8,-10.9 c -0.7,-1 -1.4,-1.8 -2.2,-2.7 v 0 0 0 0 0 0 0 0 0 0 0 0 0 0 0 0 0 0 0 0 0 0 0 0 0 0 0 0 0 0 0 c -1.4,-0.4 -2.5,-0.5 -3.9,-0.5 v 0 0 0 0 0 0 0 0 0 0 0 0 0 0 0 0 0 0 0 0 0 0 0 0 0 0 0 0 0 0 0 c 0.8,-0.4 1.6,-0.7 2.5,-0.9 v 0 0 0 0 0 0 0 0 0 0 0 0 0 0 0 0 0 0 0 0 0 0 0 0 0 0 0 0 0 0 0 c -0.9,-0.8 -1.6,-1.3 -2.5,-1.9 v 0 0 0 0 0 0 0 0 0 0 0 0 0 0 0 0 0 0 0 0 0 0 0 0 0 0 0 0 0 0 0 c 1.4,0.3 3.3,0.9 4.7,1.8 v 0 0 0 0 0 0 0 0 0 0 0 0 0 0 0 0 0 0 0 0 0 0 0 0 0 0 0 0 0 0 0 c 0.7,0 1.4,0 1.9,0.1 v 0 0 0 0 0 0 0 0 0 0 0 0 0 0 0 0 0 0 0 0 0 0 0 0 0 0 0 0 0 0 0 c -0.1,0.4 -0.2,0.7 -0.3,1.3 v 0 0 0 0 0 0 0 0 0 0 0 0 0 0 0 0 0 0 0 0 0 0 0 0 0 0 0 0 0 0 0 c 1.3,1 2.3,1.9 3.3,3 v 0 0 0 0 0 0 0 0 0 0 0 0 0 0 0 0 0 0 0 0 0 0 0 0 0 0 0 0 0 0 0 c -1.2,-0.8 -2.2,-1.4 -3.5,-2 v 0 0 0 0 0 0 0 0 0 0 0 0 0 0 0 0 0 0 0 0 0 0 0 0 0 0 0 0 0 0 0 c 0,0.6 0,1.1 0,1.8 z"
   id="path66"
   inkscape:connector-curvature="0"
   style="fill:#ffffff" />
			</g>
		</g>
	</g>
</symbol>

<g
   id="g1016"
   transform="translate(-1.6773426)"><g
     transform="matrix(0.60952141,0,0,0.60952141,-0.45697719,9.0729962)"
     id="Embleme">
	
		<use
   style="overflow:visible"
   id="use75"
   overflow="visible"
   transform="matrix(1,0,0,-1,34.3345,26.3335)"
   y="-22.700001"
   x="-22.700001"
   height="45.400002"
   width="45.400002"
   xlink:href="#volume" />
</g><g
     transform="matrix(0.47623716,0,0,0.47623716,6.3760361,17.784517)"
     id="g134">
		<path
   d="m 68.9,18.1 c 0.1,1.7 0.2,5.8 0.2,7.4 0,1.4 0,6.1 -0.2,8.1 v 0.2 h 7.3 c 3.6,0 7.4,-1.1 7.4,-4.3 0,-2 -1.5,-3.5 -4.2,-4.3 2,-0.5 3.3,-1.9 3.3,-3.5 0,-2.6 -3,-3.6 -5.8,-3.7 0,0 -8.1,0 -8.1,0 z m 5.7,1.6 c 3.1,0 4.2,0.6 4.2,2.3 0,0.4 -0.1,0.8 -0.4,1.2 -0.6,0.7 -1.8,1.1 -3.2,1 h -0.1 l -0.8,2.2 h 0.9 c 1.7,-0.1 3.2,0.5 3.9,1.4 0.4,0.4 0.5,0.9 0.5,1.4 0,1.8 -1.5,2.7 -4.6,2.7 -0.5,0 -1.3,0 -1.9,0 C 73,29.6 73,26.4 73,25.5 c 0,-1.1 0,-3.6 0.1,-5.7 0.4,0 0.9,-0.1 1.5,-0.1 z"
   id="path114"
   inkscape:connector-curvature="0" />
		<path
   d="M 100.5,18 H 97 l 0.2,4 c 0.1,2 0.1,4 0.3,6 v 0 0 C 97.3,27.4 97.1,27.1 96,25.5 96,25.4 92.3,19.7 91,18.1 v 0 h -4.2 v 0.2 c 0.1,1.7 0.2,5.8 0.2,7.4 0,1.4 0,6.1 -0.2,8.1 V 34 h 3.7 V 33.8 C 90.3,29.9 90.3,26 90.3,22.3 v 0 c 0.1,0.5 0.3,0.9 0.9,1.7 0.1,0.1 6.4,9.3 6.7,9.9 V 34 h 3 v -0.2 c -0.2,-2 -0.2,-6.7 -0.2,-8.1 0,-1.5 0.1,-5.7 0.2,-7.4 v -0.2 h -0.4 z"
   id="path116"
   inkscape:connector-curvature="0" />
		<path
   d="m 104.8,18.1 c 0.1,1.7 0.2,5.8 0.2,7.4 0,1.4 0,6.1 -0.2,8.1 v 0.2 h 4.4 V 33.6 C 109,32.2 109,29.4 109,27.2 c 0.2,0 0.8,0 0.8,0 h 0.6 c 5.8,0 8.6,-1.5 8.6,-4.8 0,-3.7 -3.9,-4.5 -7.3,-4.6 h -6.9 z m 5.4,1.8 c 2.1,0 3.5,0.4 4.2,1.2 0.3,0.4 0.5,0.9 0.5,1.4 0,2.3 -2.6,2.8 -4.7,2.8 h -0.9 c 0,0 -0.2,0 -0.3,-0.1 0,-0.5 0,-1.2 0,-2 0,-1 0,-2.2 0.1,-3.3 0.2,0 0.6,0 1.1,0 z"
   id="path118"
   inkscape:connector-curvature="0" />
		<path
   d="m 127.4,18.1 c 0.1,1.7 0.2,5.8 0.2,7.4 0,1.4 0,6.1 -0.2,8.1 v 0.2 h 4.4 v -0.2 c -0.2,-1.4 -0.2,-4.2 -0.2,-6.4 0.2,0 0.8,0 0.8,0 h 0.6 c 5.8,0 8.6,-1.5 8.6,-4.8 0,-3.7 -3.9,-4.5 -7.3,-4.6 h -6.9 z m 5.3,1.8 c 2.1,0 3.5,0.4 4.2,1.2 0.3,0.4 0.5,0.9 0.5,1.4 0,2.3 -2.6,2.8 -4.7,2.8 h -0.9 c 0,0 -0.2,0 -0.3,-0.1 0,-0.5 0,-1.2 0,-2 0,-1 0,-2.2 0.1,-3.3 0.2,0 0.7,0 1.1,0 z"
   id="path120"
   inkscape:connector-curvature="0" />
		<path
   d="m 147.4,18 v 0 l -0.1,0.1 c -0.8,2.2 -6.1,13.7 -6.9,15.5 l -0.1,0.2 h 3.8 v -0.1 c 0.3,-1.1 0.7,-2.3 1.2,-3.6 0.1,0 3.1,0 3.1,0 h 2.6 c 0,0 0.5,0 0.6,0 0.7,1.7 1.2,3 1.4,3.6 v 0.1 h 4.4 l -7,-15.8 h -0.1 z m 1.1,4.6 c 0.4,0.7 1.3,2.9 2.3,5.4 -0.2,0 -0.3,0 -0.3,0 h -1.9 c 0,0 -2,0 -2.3,0 0.7,-2 1.5,-3.8 2.2,-5.4 z"
   id="path122"
   inkscape:connector-curvature="0" />
		<path
   d="m 159.1,18.1 c 0.1,1.7 0.2,5.8 0.2,7.4 0,1.4 0,6.1 -0.2,8.1 v 0.2 h 4.4 v -0.2 c -0.2,-2 -0.2,-6.7 -0.2,-8.1 0,-1.1 0,-3.6 0.1,-5.5 0.4,0 0.9,-0.1 1.2,-0.1 2.1,0 3.5,0.4 4.2,1.2 0.3,0.4 0.5,0.9 0.5,1.4 0,1.8 -1.7,2.7 -3.3,2.8 -0.5,0 -0.9,0 -0.9,0 l -0.3,-0.1 0.2,0.3 c 1.5,2.3 3.9,6.3 4.9,8.1 v 0.1 h 4.7 l -0.1,-0.2 c -0.2,-0.3 -3.2,-4.8 -4.6,-6.7 0,0 0,-0.1 -0.1,-0.1 2.4,-0.7 3.6,-2.1 3.6,-4.2 0,-3.7 -4,-4.5 -7.3,-4.6 h -6.9 z"
   id="path124"
   inkscape:connector-curvature="0" />
		<path
   d="m 180.7,18 h -4.2 v 0.2 c 0.1,1.7 0.2,5.8 0.2,7.4 0,1.4 0,6.1 -0.2,8.1 v 0.2 h 4.4 v -0.2 c -0.2,-2 -0.2,-6.7 -0.2,-8.1 0,-1.5 0.1,-5.7 0.2,-7.4 V 18 Z"
   id="path126"
   inkscape:connector-curvature="0" />
		<path
   d="m 184.8,18.1 c 0.1,1.7 0.2,5.8 0.2,7.4 0,1.4 0,6.1 -0.2,8.1 v 0.2 h 7.3 c 3.6,0 7.4,-1.1 7.4,-4.3 0,-2 -1.4,-3.5 -4.2,-4.3 2,-0.5 3.4,-1.9 3.4,-3.5 0,-2.6 -3,-3.6 -5.8,-3.7 0,0 -8.1,0 -8.1,0 z m 5.7,1.6 v 0 c 3.1,0 4.2,0.6 4.2,2.3 0,0.4 -0.1,0.8 -0.4,1.2 -0.6,0.7 -1.7,1.1 -3.2,1 H 191 l -0.8,2.2 h 0.9 c 1.7,-0.1 3.1,0.5 3.9,1.4 0.3,0.4 0.5,0.9 0.5,1.4 0,1.8 -1.5,2.7 -4.5,2.7 -0.5,0 -1.3,0 -1.9,0 -0.1,-2.3 -0.1,-5.5 -0.1,-6.4 0,-1.1 0,-3.6 0.1,-5.7 0.3,0 0.9,-0.1 1.4,-0.1 z"
   id="path128"
   inkscape:connector-curvature="0" />
		<path
   d="m 210.3,18 h -3 v 0.1 c -0.9,2.4 -6.4,14.5 -6.9,15.5 l -0.1,0.2 h 3.8 v -0.1 c 0.3,-1.1 0.7,-2.3 1.2,-3.6 0.1,0 3.1,0 3.1,0 h 2.6 c 0,0 0.4,0 0.6,0 0.7,1.7 1.2,3 1.4,3.6 v 0.1 h 4.4 z m -1.8,4.6 c 0.4,0.7 1.2,2.9 2.3,5.3 -0.2,0 -0.3,0 -0.3,0 h -1.9 c 0,0 -2,0 -2.3,0 0.7,-1.9 1.5,-3.7 2.2,-5.3 z"
   id="path130"
   inkscape:connector-curvature="0" />
		<path
   d="m 218.7,22.1 c 0,2.8 2.8,3.9 5.3,4.9 1.9,0.8 3.9,1.6 3.9,2.9 0,0.4 -0.1,0.7 -0.3,1 -0.5,0.5 -1.4,0.8 -2.9,0.7 -1.4,-0.1 -3.1,-0.5 -4.9,-1.4 L 219,29.8 v 0.6 2.8 l 0.5,0.1 0.3,0.1 c 0.9,0.2 2.7,0.6 4.5,0.6 4.6,0 7.4,-1.8 7.4,-4.9 0,-2.8 -2.9,-4 -5.4,-5 -1.9,-0.7 -3.8,-1.5 -3.8,-2.7 0,-0.4 0,-1.4 2.4,-1.4 1.8,0 3.5,0.7 4.5,1.1 l 0.9,0.4 V 20.9 18 l -0.9,-0.2 c -0.9,-0.2 -2.4,-0.5 -3.9,-0.5 -4.1,0.1 -6.8,2 -6.8,4.8 z"
   id="path132"
   inkscape:connector-curvature="0" />
	</g></g>
</svg>