<?xml version="1.0" encoding="UTF-8" standalone="no"?>
<svg
   xmlns:dc="http://purl.org/dc/elements/1.1/"
   xmlns:cc="http://creativecommons.org/ns#"
   xmlns:rdf="http://www.w3.org/1999/02/22-rdf-syntax-ns#"
   xmlns:svg="http://www.w3.org/2000/svg"
   xmlns="http://www.w3.org/2000/svg"
   xmlns:sodipodi="http://sodipodi.sourceforge.net/DTD/sodipodi-0.dtd"
   xmlns:inkscape="http://www.inkscape.org/namespaces/inkscape"
   width="120"
   height="60"
   viewBox="0 0 120 60"
   preserveAspectRatio="xMidYMid"
   version="1.1"
   id="svg4"
   sodipodi:docname="svgporn-ar21.svg"
   inkscape:version="0.92.2 (5c3e80d, 2017-08-06)">
  <metadata
     id="metadata10">
    <rdf:RDF>
      <cc:Work
         rdf:about="">
        <dc:format>image/svg+xml</dc:format>
        <dc:type
           rdf:resource="http://purl.org/dc/dcmitype/StillImage" />
        <dc:title></dc:title>
      </cc:Work>
    </rdf:RDF>
  </metadata>
  <defs
     id="defs8" />
  <sodipodi:namedview
     pagecolor="#ffffff"
     bordercolor="#666666"
     borderopacity="1"
     objecttolerance="10"
     gridtolerance="10"
     guidetolerance="10"
     inkscape:pageopacity="0"
     inkscape:pageshadow="2"
     inkscape:window-width="1920"
     inkscape:window-height="1001"
     id="namedview6"
     showgrid="false"
     inkscape:zoom="2.6484375"
     inkscape:cx="29.665045"
     inkscape:cy="52.788798"
     inkscape:window-x="-9"
     inkscape:window-y="-9"
     inkscape:window-maximized="1"
     inkscape:current-layer="svg4" />
  <path
     d="m 111.63616,35.003262 c 0.0597,-0.71035 0.12823,-1.420054 0.17738,-2.131266 0.11637,-1.677815 0.23017,-3.35606 0.32715,-5.034953 0.0179,-0.3097 0.033,-0.662073 -0.0912,-0.929532 -0.5804,-1.250872 -0.36962,-2.467045 0.038,-3.702183 0.33189,-1.006042 1.15539,-1.438374 2.27587,-1.143329 0.73514,0.193537 0.96208,0.791602 0.71121,1.871566 -0.0573,0.246985 -0.19762,0.510996 -0.15408,0.739231 0.53728,2.82265 -0.93665,5.489697 -0.62566,8.289503 0.097,0.875006 0.22242,1.746565 0.31013,2.622433 0.0621,0.621341 0.18018,1.259924 0.0976,1.867255 -0.10383,0.764662 -0.5847,1.347641 -1.3763,1.539668 -0.8125,0.197199 -1.49873,-0.06358 -2.04183,-0.707117 -1.53664,-1.821135 -3.07157,-3.643779 -4.62115,-5.453922 -0.39095,-0.456685 -0.80755,-0.899791 -1.2651,-1.287078 -0.21034,-0.178019 -0.63363,-0.358624 -0.80561,-0.262072 -0.20948,0.117243 -0.36337,0.529746 -0.35194,0.806687 0.0274,0.662506 0.19182,1.317899 0.25431,1.980404 0.14548,1.543546 0.35971,3.090971 0.34095,4.634302 -0.006,0.53815 -0.49505,1.289234 -0.97694,1.552383 -0.73665,0.402589 -1.62157,0.08513 -2.14118,-0.568754 -0.29376,-0.369616 -0.35583,-1.00087 -0.35432,-1.513806 0.004,-1.484925 0.11962,-2.968987 0.13987,-4.453912 0.0121,-0.887292 -0.16681,-1.783635 -0.0942,-2.662305 0.17673,-2.14312 -0.38578,-4.078049 -1.425231,-5.915347 -0.40021,-0.706902 -0.566807,-1.44721 0.0173,-2.13105 0.63018,-0.737937 1.47329,-0.843973 2.35368,-0.589445 0.95927,0.277373 1.65023,0.848067 2.03731,1.830402 0.78987,2.003032 1.58471,4.009298 2.50712,5.952632 0.97415,2.053248 2.7567,3.419206 4.37805,4.905641 z m 1.58364,-12.377681 c -0.98191,0.450651 -1.33084,2.779116 -0.68083,3.984082 0.0429,-0.662073 0.0322,-1.319837 0.14117,-1.956911 0.11379,-0.664444 0.34332,-1.309061 0.53966,-2.027171 z m -12.1835,2.906058 c -0.24419,-0.918326 -0.71854,-1.865748 0.42241,-2.608426 -1.4013,0.15776 -1.524581,1.129319 -0.42241,2.608426 z M 86.901492,24.455768 c -0.451081,0 -0.751299,0.06056 -1.012939,-0.01401 -0.424572,-0.12069 -1.016818,-0.223493 -1.184276,-0.528668 -0.206252,-0.375434 -0.181683,-1.003671 -0.01143,-1.423286 0.162285,-0.399357 0.586642,-0.775868 0.98837,-0.980612 2.090533,-1.064016 4.187317,-2.062731 6.66255,-1.886652 2.058637,0.146553 3.887961,1.332554 4.63732,3.260154 0.602595,1.549365 0.169829,3.27869 -1.147638,4.494647 -0.60647,0.560349 -1.245484,1.085137 -1.862945,1.633633 -0.474142,0.421555 -0.552375,0.804532 -0.257976,1.477166 0.684488,1.562513 1.853031,2.492261 3.308431,3.249378 1.665313,0.865955 1.982563,2.841186 0.729963,3.954772 -0.974147,0.865524 -2.134285,0.754316 -2.685798,-0.420262 -0.64634,-1.376949 -1.457554,-2.582132 -2.568338,-3.614898 -0.25733,-0.239225 -0.367459,-0.65647 -0.494185,-1.010137 -0.116812,-0.326511 -0.121122,-0.695479 -0.252372,-1.013585 -0.238795,-0.579746 -0.464659,-1.334062 -1.267252,-1.175009 -0.823497,0.162933 -0.604529,0.957119 -0.536211,1.502598 0.149786,1.193759 0.369615,2.382346 0.63104,3.557569 0.259269,1.16488 -0.335563,2.330622 -1.369623,2.525235 -1.048715,0.197416 -1.97954,-0.589874 -2.031481,-1.862945 -0.03728,-0.912075 0.163148,-1.83148 0.168105,-2.748081 0.0054,-0.971128 0.12888,-2.028033 -0.20151,-2.894203 -0.500003,-1.309924 -0.571125,-2.575667 -0.411641,-3.914685 0.08168,-0.685351 0.109915,-1.377381 0.169829,-2.16812 z m 3.094204,0.929317 c -0.13901,1.737083 -0.13901,1.737083 1.454969,2.362734 0.05884,0.02306 0.128665,0.03664 0.172414,0.07694 0.700868,0.650867 1.192898,0.262933 1.65066,-0.323709 0.233622,-0.299571 0.517676,-0.56897 0.702807,-0.895481 0.612074,-1.078457 1.03449,-2.189887 0.327373,-3.403043 -0.662936,-1.136863 -1.756479,-1.229967 -2.900238,-1.20195 -0.190088,0.0045 -0.380175,0.03363 -0.569616,0.02802 -0.758627,-0.0222 -1.006042,0.405175 -0.968757,1.086215 0.0416,0.756901 0.08686,1.513589 0.130388,2.270276 z m 4.803916,10.347062 c 0.263149,0.615953 0.390089,1.114232 0.675221,1.493546 0.136424,0.181897 0.572849,0.138794 0.873499,0.197415 -0.103882,-0.259485 -0.145476,-0.5791 -0.325434,-0.764661 -0.298925,-0.308623 -0.686643,-0.530822 -1.22307,-0.926515 z m -26.38145,-5.052841 c 0.0095,-2.344414 0.571125,-4.531068 1.800444,-6.53173 1.191389,-1.937946 2.906488,-3.04679 5.188833,-3.276318 0.281899,-0.02845 0.545909,-0.244398 0.816169,-0.377374 0.392245,-0.192674 0.764662,-0.457331 1.178242,-0.566815 0.534488,-0.141811 0.950869,0.06099 0.972637,0.697851 0.03922,1.15669 0.696342,1.858203 1.675875,2.338379 2.747004,1.345916 3.906064,4.91297 2.869634,7.614714 -0.685781,1.78816 -1.557124,3.553476 -2.634072,5.131935 -1.623288,2.378251 -4.01878,3.458432 -6.877208,2.717694 -2.931487,-0.759705 -4.426972,-2.909936 -4.83452,-5.850476 -0.08686,-0.627591 -0.105819,-1.265096 -0.156034,-1.89786 z m 6.96363,-6.399832 c -0.346123,0.306037 -0.645263,0.540305 -0.90949,0.809273 -1.726306,1.757125 -2.415104,3.965332 -2.760366,6.331082 -0.238363,1.63428 0.341814,3.265758 1.427382,3.869858 1.348286,0.750005 3.273732,0.641815 4.431715,-0.538366 1.775875,-1.810143 2.763814,-4.063824 2.981057,-6.610611 0.06293,-0.738153 -0.382546,-1.184061 -1.08406,-1.344407 -0.368968,-0.08426 -0.754316,-0.159269 -1.128457,-0.143105 -0.890093,0.03815 -1.507555,-0.401943 -2.016179,-1.053887 -0.308193,-0.395046 -0.583625,-0.815523 -0.941602,-1.319837 z m -2.567908,-1.593979 c -1.092896,-0.01422 -3.05929,2.572003 -3.029549,4.012962 z m 3.43451,1.225872 c 0.03384,1.457986 1.061861,2.298293 2.411656,1.932127 -0.480607,-0.271123 -0.938154,-0.457762 -1.304967,-0.755609 -0.400434,-0.325002 -0.717247,-0.753455 -1.106689,-1.176518 z M 56.786176,23.406622 c -1.767255,-0.02802 -2.449803,-0.915093 -1.820272,-2.118981 0.09806,-0.187502 0.248493,-0.426728 0.424572,-0.481685 3.008212,-0.94268 6.059745,-1.635789 9.225286,-0.984275 1.801738,0.370693 2.866401,2.42976 2.516614,4.539259 -0.295261,1.781048 -1.173069,3.168127 -2.794418,3.949383 -1.334062,0.642246 -2.766832,1.076517 -4.123523,1.67609 -0.364227,0.160993 -0.795049,0.546556 -0.877593,0.902594 -0.359916,1.54958 -0.581254,3.111661 0.11207,4.664474 0.318752,0.714231 0.65647,1.551953 -0.294614,2.096353 -0.673928,0.385779 -1.821135,-0.04634 -2.154328,-1.047422 -0.431037,-1.295268 -0.746772,-2.697003 -0.745264,-4.052401 0.0017,-1.924584 0.375434,-3.845934 0.516815,-5.773967 0.08039,-1.097853 0.01465,-2.206698 0.01465,-3.369422 z m 2.29894,0.974361 c 0.136208,1.789238 0.136208,1.789238 1.404105,2.479976 0.960569,0.523279 2.238164,0.08383 2.715539,-0.907766 0.313364,-0.650867 0.656901,-1.288803 1.012938,-1.917687 0.577591,-1.019836 0.02888,-2.150879 -1.140095,-2.194413 -0.781902,-0.02953 -1.595917,-0.0062 -2.349587,0.180173 -1.729538,0.427805 -1.779323,0.563151 -1.6429,2.359933 z m -2.368552,9.491451 c -0.227804,1.675229 0.831471,3.470932 1.853893,3.288604 A 12282.216,12282.216 0 0 1 56.716564,33.872219 Z M 41.086057,24.004687 c -3.89766,-0.832334 -6.119875,3.948306 -5.662328,6.738414 0.123061,0.749789 0.259485,1.508416 0.266597,2.264025 0.02931,3.181059 2.574804,3.840546 4.719001,3.428905 0.675867,-0.129742 1.387295,-0.359916 1.941825,-0.746341 0.435349,-0.303882 0.936861,-0.94505 0.894835,-1.387726 -0.04741,-0.500435 -0.577591,-1.118759 -1.062293,-1.376735 -0.739445,-0.393968 -1.634496,-0.482762 -2.437518,-0.77285 -1.137725,-0.410779 -1.836221,-1.50971 -1.654323,-2.486227 0.184484,-0.991817 0.966171,-1.660141 2.277603,-1.593762 1.508632,0.0763 3.036446,0.259916 4.50025,0.621988 1.818979,0.450003 2.749375,2.095274 2.256267,3.911883 -0.770264,2.836229 -3.236662,6.256944 -7.563635,6.017503 -1.77372,-0.09806 -3.389035,-0.727807 -4.655639,-1.928678 -0.562504,-0.533195 -0.829317,-1.460141 -1.044836,-2.258639 -0.320907,-1.188586 -0.576082,-2.412949 -0.683626,-3.637527 -0.240303,-2.732133 0.151295,-5.347239 2.123724,-7.439712 1.77178,-1.879325 3.836667,-3.161016 6.591645,-2.55864 0.554099,0.121121 1.09225,0.320046 1.632124,0.499572 0.678238,0.226295 0.931042,0.729316 0.848067,1.411003 -0.08643,0.708625 -0.460995,1.210569 -1.193112,1.280182 -0.660781,0.06293 -1.332554,0.01337 -2.094628,0.01337 z m -0.648066,-2.557994 c -1.567253,-0.272416 -4.706933,1.590746 -5.126332,2.819634 1.849367,-0.580608 2.892479,-2.714892 5.126332,-2.819634 z m -0.135345,10.187794 c -0.231899,-0.650867 -0.438367,-1.304536 -0.702592,-1.934282 -0.104958,-0.25108 -0.337071,-0.449142 -0.511426,-0.671342 -0.171554,0.268967 -0.464228,0.526082 -0.491599,0.809058 -0.07651,0.786644 0.765092,1.588374 1.705617,1.796566 z m -8.355667,-6.720526 c -0.479961,1.126302 -0.887724,2.290751 -1.454754,3.371362 -1.208629,2.303035 -2.516829,4.553914 -3.747873,6.845742 -0.38815,0.72285 -0.638151,1.518762 -0.993327,2.261439 -0.285778,0.597634 -0.586642,1.198717 -0.966386,1.737945 -0.573065,0.814446 -1.322855,1.448287 -2.404545,1.182552 -1.094188,-0.268753 -2.072213,-0.857765 -2.303896,-2.033421 -0.385779,-1.955403 -0.650005,-3.937099 -0.906041,-5.915346 -0.203666,-1.57372 -0.253881,-3.169636 -0.50216,-4.73495 -0.118535,-0.748498 -0.456899,-1.497857 -0.847419,-2.156913 -0.34634,-0.584704 -0.778455,-1.206906 -0.200649,-1.691178 0.504314,-0.422416 1.311433,-0.742031 1.936222,-0.672203 0.421124,0.04698 1.017895,0.816602 1.082551,1.321131 0.185131,1.44139 0.09827,2.91554 0.19526,4.371586 0.0862,1.293112 0.243106,2.583639 0.4319,3.866408 0.09806,0.665522 0.464228,1.172638 1.220053,1.274147 0.810782,0.108623 1.411001,-0.228664 1.675227,-0.954748 0.595265,-1.636435 1.037294,-3.331491 1.683203,-4.946158 0.584272,-1.460572 1.354106,-2.847004 2.050016,-4.262317 0.06854,-0.139225 0.185777,-0.25733 0.292459,-0.374572 0.681039,-0.748713 1.851308,-1.102595 2.584934,-0.785998 0.649358,0.280175 1.017249,1.107336 1.175225,2.295277 z M 21.57664,39.006525 20.502495,35.491413 c -0.514229,1.572426 -0.01271,3.036661 1.074145,3.515112 z m 6.030865,-13.444283 2.28644,-2.303897 c -1.087508,0.02478 -2.175447,1.216389 -2.286655,2.303897 z m -9.038431,-1.781695 c -0.758195,0.630393 -0.728022,0.8763 0.135346,1.632555 0,-0.449572 0.0028,-0.921558 -0.0041,-1.393329 -6.47e-4,-0.05367 -0.05604,-0.106466 -0.131252,-0.239226 z M 10.547031,39.021611 C 9.0086574,38.889067 7.8580024,38.432814 7.3375244,36.915777 7.2679111,36.712543 7.1398933,36.51405 6.9935559,36.355428 6.4728623,35.78969 6.5668285,35.192273 7.0737289,34.768778 c 0.5062534,-0.422849 1.1551814,-0.403021 1.6077714,0.164009 0.77479,0.971128 1.8090647,1.234277 2.9689877,1.174148 0.851946,-0.04397 1.544839,-0.347848 1.786221,-1.275441 C 13.693391,33.845279 13.217741,33.217257 12.387993,32.84678 11.60997,32.499363 10.763412,32.305828 9.9845261,31.959919 8.7782673,31.425002 7.4631713,30.998059 6.447,30.202579 4.604098,28.759681 4.5407354,26.720009 5.2347062,24.646933 c 0.912938,-2.726745 3.4129571,-4.208221 5.9218118,-3.579338 1.491391,0.373711 3.221146,2.449588 3.293129,3.970936 0.03987,0.836644 -0.328236,1.428891 -1.163587,1.615314 -0.779101,0.173708 -1.46402,0.02608 -1.805617,-0.819834 -0.106466,-0.264657 -0.216165,-0.528236 -0.320476,-0.793972 -0.519401,-1.325656 -1.2765189,-1.691823 -2.5575626,-1.235354 -0.977809,0.348494 -1.5793224,1.722858 -1.20238,2.787737 0.584056,1.650228 1.952817,2.437519 3.4461466,3.060799 0.993974,0.414875 2.019196,0.755395 3.014031,1.168543 1.508202,0.626514 2.250879,1.849368 2.36101,3.412096 0.109052,1.547425 -0.48815,2.875453 -1.923291,3.544423 -1.185785,0.552591 -2.495923,0.839015 -3.75089,1.243328 z m -2.9487296,-8.674634 -2.134283,-2.48989 c -0.094828,1.072422 0.9426796,2.383639 2.134283,2.48989 z m 5.2924976,-4.513613 -1.203026,-1.230396 -0.182761,0.177155 c 0.26789,0.539445 0.232114,1.372425 1.385787,1.053241 z M 8.1336504,36.799612 7.5086454,34.904124 c -0.8786698,1.051516 0.226942,1.369191 0.625005,1.895488 z"
     id="path2"
     inkscape:connector-curvature="0"
     style="fill:#fb0000;stroke-width:0.21551888" />
</svg>
