<?xml version="1.0" encoding="UTF-8" standalone="no"?>
<svg
   xmlns:dc="http://purl.org/dc/elements/1.1/"
   xmlns:cc="http://creativecommons.org/ns#"
   xmlns:rdf="http://www.w3.org/1999/02/22-rdf-syntax-ns#"
   xmlns:svg="http://www.w3.org/2000/svg"
   xmlns="http://www.w3.org/2000/svg"
   xmlns:sodipodi="http://sodipodi.sourceforge.net/DTD/sodipodi-0.dtd"
   xmlns:inkscape="http://www.inkscape.org/namespaces/inkscape"
   width="64"
   height="64"
   viewBox="0 0 64 64"
   preserveAspectRatio="xMidYMid"
   version="1.1"
   id="svg4"
   sodipodi:docname="svgporn-icon.svg"
   inkscape:version="0.92.2 (5c3e80d, 2017-08-06)">
  <metadata
     id="metadata10">
    <rdf:RDF>
      <cc:Work
         rdf:about="">
        <dc:format>image/svg+xml</dc:format>
        <dc:type
           rdf:resource="http://purl.org/dc/dcmitype/StillImage" />
        <dc:title></dc:title>
      </cc:Work>
    </rdf:RDF>
  </metadata>
  <defs
     id="defs8" />
  <sodipodi:namedview
     pagecolor="#ffffff"
     bordercolor="#666666"
     borderopacity="1"
     objecttolerance="10"
     gridtolerance="10"
     guidetolerance="10"
     inkscape:pageopacity="0"
     inkscape:pageshadow="2"
     inkscape:window-width="1920"
     inkscape:window-height="1001"
     id="namedview6"
     showgrid="false"
     inkscape:zoom="2.6484375"
     inkscape:cx="29.665045"
     inkscape:cy="52.788798"
     inkscape:window-x="-9"
     inkscape:window-y="-9"
     inkscape:window-maximized="1"
     inkscape:current-layer="svg4" />
  <path
     d="m 54.691903,22.183935 c -5.879125,-1.25547 -9.231054,5.955518 -8.540903,10.164042 0.185622,1.130961 0.3914,2.275254 0.402128,3.414994 0.04421,4.798224 3.883765,5.792976 7.118014,5.172068 1.019459,-0.195699 2.092558,-0.542888 2.928996,-1.125761 0.656669,-0.458367 1.413136,-1.425488 1.349745,-2.093208 -0.07151,-0.754843 -0.871223,-1.687506 -1.602334,-2.07663 -1.115359,-0.594251 -2.46543,-0.728185 -3.676686,-1.165746 -1.716114,-0.619608 -2.769707,-2.277206 -2.495337,-3.750158 0.278271,-1.49603 1.457347,-2.504112 3.435475,-2.403988 2.27558,0.115089 4.580094,0.392051 6.788056,0.93819 2.743699,0.678773 4.147083,3.160455 3.403292,5.900579 -1.161845,4.278092 -4.882093,9.437806 -11.408783,9.076639 -2.675431,-0.147911 -5.111929,-1.097804 -7.02244,-2.909165 -0.848466,-0.804257 -1.250919,-2.202438 -1.576002,-3.406871 -0.484048,-1.792831 -0.868947,-3.639627 -1.031163,-5.486747 -0.362467,-4.121076 0.228209,-8.065631 3.203368,-11.221861 2.672505,-2.834723 5.787125,-4.767991 9.942659,-3.859384 0.835788,0.182696 1.647521,0.482749 2.461852,0.753541 1.023036,0.341337 1.404359,1.100081 1.279201,2.128319 -0.130368,1.068871 -0.695352,1.82599 -1.799658,1.930992 -0.996704,0.09492 -2.009988,0.02017 -3.15948,0.02017 z m -0.977525,-3.858409 c -2.364002,-0.410905 -7.099811,2.399438 -7.732421,4.25306 2.789535,-0.875774 4.362937,-4.09507 7.732421,-4.25306 z M 53.510227,33.69252 c -0.34979,-0.981751 -0.661221,-1.967727 -1.059771,-2.917619 -0.158316,-0.378723 -0.508429,-0.677474 -0.771421,-1.012634 -0.258767,0.405702 -0.700229,0.793527 -0.741515,1.220361 -0.115405,1.186552 1.154044,2.39586 2.572707,2.709892 z M 40.906764,23.555459 c -0.72396,1.698884 -1.339019,3.455307 -2.194311,5.085272 -1.823064,3.473836 -3.796317,6.869001 -5.653191,10.325932 -0.585475,1.090328 -0.96257,2.29086 -1.498308,3.411094 -0.431059,0.901455 -0.884875,1.808112 -1.45767,2.621469 -0.864396,1.228489 -1.995359,2.184557 -3.626951,1.78373 -1.650444,-0.40538 -3.12567,-1.29383 -3.475135,-3.067157 -0.581898,-2.949478 -0.98045,-5.938614 -1.366647,-8.922549 -0.307205,-2.373757 -0.382948,-4.780993 -0.757445,-7.142071 -0.178795,-1.129014 -0.689174,-2.259327 -1.278224,-3.253429 -0.52241,-0.881952 -1.174201,-1.820465 -0.302654,-2.550927 0.760694,-0.637161 1.978131,-1.11926 2.920545,-1.013933 0.635213,0.07086 1.535366,1.23174 1.632891,1.992758 0.279247,2.174154 0.148228,4.397722 0.294525,6.593983 0.130022,1.950495 0.366695,3.897091 0.651466,5.831985 0.147912,1.003856 0.700229,1.768776 1.840295,1.921889 1.222962,0.163844 2.128316,-0.344911 2.526868,-1.440116 0.897881,-2.468354 1.564626,-5.025131 2.538898,-7.460651 0.8813,-2.203088 2.042497,-4.294344 3.092189,-6.429164 0.103383,-0.210004 0.280221,-0.38815 0.441137,-0.564995 1.027261,-1.129338 2.792463,-1.663124 3.899045,-1.185578 0.979474,0.422609 1.534391,1.670276 1.772677,3.462134 z m -15.642339,21.256844 -1.620212,-5.3021 c -0.775649,2.371805 -0.01917,4.580417 1.620212,5.3021 z m 9.096794,-20.278994 3.448804,-3.475136 c -1.640368,0.03738 -3.281385,1.834768 -3.449129,3.475136 z M 20.727893,21.845848 c -1.143641,0.950868 -1.098129,1.321788 0.204152,2.462502 0,-0.678122 0.0042,-1.390053 -0.0062,-2.10166 -9.76e-4,-0.08095 -0.08453,-0.16059 -0.197977,-0.360842 z M 8.62766,44.835058 C 6.307218,44.635132 4.5716015,43.946933 3.7865265,41.658675 3.6815237,41.352122 3.4884251,41.052721 3.2676937,40.81346 2.4822935,39.960116 2.6240296,39.058988 3.3886245,38.4202 c 0.763619,-0.637815 1.7424445,-0.607906 2.4251195,0.247386 1.168672,1.464824 2.728744,1.86175 4.478341,1.771053 1.285052,-0.06632 2.330193,-0.524684 2.694287,-1.92384 0.387172,-1.48758 -0.330285,-2.434872 -1.581855,-2.993689 C 10.230968,34.997075 8.954043,34.705152 7.779193,34.183392 5.959704,33.376538 3.9760489,32.732549 2.4432835,31.532668 -0.33650006,29.35624 -0.43207456,26.279653 0.61469234,23.152682 1.9917433,19.039733 5.762705,16.805114 9.546994,17.753705 c 2.249574,0.563695 4.858689,3.694892 4.967267,5.989652 0.06014,1.261972 -0.495103,2.155301 -1.755124,2.436496 -1.175175,0.262017 -2.208288,0.03934 -2.723544,-1.236615 -0.16059,-0.399202 -0.326057,-0.796777 -0.483397,-1.197606 -0.78345,-1.999584 -1.925467,-2.5519 -3.857759,-1.863375 -1.4749003,0.525659 -2.3822069,2.598713 -1.8136372,4.204948 0.8809742,2.489159 2.9455762,3.676688 5.1980752,4.616826 1.499283,0.625787 3.0457,1.139418 4.546283,1.762599 2.274931,0.945017 3.395165,2.789537 3.561283,5.146714 0.164492,2.334094 -0.736312,4.337255 -2.90104,5.346312 -1.788606,0.833513 -3.764783,1.265547 -5.657741,1.875402 z M 4.1798755,31.750474 0.96058064,27.994791 c -0.143036,1.617613 1.42191246,3.595417 3.21929486,3.755683 z m 7.9830605,-6.808212 -1.814612,-1.855896 -0.275671,0.267216 c 0.404078,0.813684 0.350114,2.070129 2.090283,1.58868 z M 4.987382,41.483455 4.0446408,38.624352 C 2.719279,40.21043 4.386954,40.689603 4.987382,41.483455 Z"
     id="path2"
     inkscape:connector-curvature="0"
     style="fill:#fb0000;stroke-width:0.32508287"
     sodipodi:nodetypes="ccccccccccccccccccccccccccccccccccccccccccccccccccccccccccccccccccccccccccccccccccccccscccccccccccc" />
</svg>
