<svg xmlns="http://www.w3.org/2000/svg" width="120" height="60"><defs><linearGradient id="A" x1="-.031" y1="44.365" x2="26.596" y2="44.365" gradientUnits="userSpaceOnUse"><stop offset="0" stop-color="#f1562b"/><stop offset=".3" stop-color="#f1542b"/><stop offset=".41" stop-color="#f04d2a"/><stop offset=".49" stop-color="#ef4229"/><stop offset=".5" stop-color="#ef4029"/><stop offset=".56" stop-color="#e83e28"/><stop offset=".67" stop-color="#e13c26"/><stop offset="1" stop-color="#df3c26"/></linearGradient></defs><path d="M45.992 31.793V21.26H47c.82 0 1.485.665 1.485 1.485v4.684c1.614-1.44 3-2.017 4.818-2.054 3.504-.072 6.57 2.536 6.85 6.035.346 4.183-2.696 7.33-6.657 7.33-4.347 0-7.503-2.698-7.503-6.946zm2.453.828c.245 2.177 2.326 3.975 4.518 4 2.847.044 4.802-1.818 4.802-4.575s-1.9-4.577-4.68-4.577c-2.967 0-4.978 2.157-4.64 5.142zm15.862-6.98v1.877c1.568-1.752 2.5-2.2 4.336-2.2a10.02 10.02 0 0 1 1.596.13v2.492c-.564-.155-1.146-.233-1.73-.232-1.33 0-2.446.438-3.272 1.26-.718.72-.93 1.285-.93 2.4v6.94h-2.58V25.64zm6.543 4.186c.134-1.233.372-1.9.904-2.545 1.064-1.314 2.98-1.97 5.694-1.97 2.155 0 3.723.335 4.818 1.053.904.6 1.277 1.465 1.277 3.007V35c0 1.233.32 1.67 1.198 1.645a5.48 5.48 0 0 0 .585-.053v1.697a3.84 3.84 0 0 1-1.358.206c-1.623 0-2.367-.488-2.87-1.9-1.596 1.465-3.245 2.083-5.613 2.083-3.164 0-5.107-1.44-5.107-3.778-.014-1.335.77-2.55 1.995-3.083.957-.412 1.533-.54 4.283-.823l3.405-.488c.718-.232 1.038-.615 1.038-1.26 0-1.362-1.143-1.97-3.54-1.97-2.264 0-3.43.438-3.898 1.594-.23.588-.795.976-1.426.977zM81.092 32a25.33 25.33 0 0 1-5.037.926c-2.315.232-3.033.657-3.033 1.824 0 1.285 1.064 1.953 3.164 1.953 1.73 0 3.033-.438 3.964-1.285.745-.694.93-1.183.93-2.4zm10.475 6.306H90.9c-.586.002-1.12-.33-1.38-.856l-5.6-11.8h1.55a2.28 2.28 0 0 1 2.096 1.342l3.723 8.5 3.843-8.53a2.28 2.28 0 0 1 2.087-1.314h1.408l-5.7 11.826a1.53 1.53 0 0 1-1.373.84zm8.832-5.602c.265 2.442 2.2 3.957 5.037 3.957 1.616 0 2.82-.48 3.58-1.44.437-.553 1.102-.875 1.807-.876h1.5c-1.314 2.88-3.644 4.292-7.128 4.292-4.362 0-7.288-2.648-7.288-6.605s3.007-6.734 7.343-6.734c3.138 0 5.665 1.412 6.677 3.778.45 1.08.64 2.056.64 3.622zm9.522-1.953c-.585-2.236-2.315-3.504-4.708-3.504s-4.124 1.26-4.735 3.504z"/><path d="M26.605 38.85l-.964-2.617.67-1.502c.086-.194.044-.42-.105-.572l-1.822-1.842a2.94 2.94 0 0 0-3.066-.712l-.5.177-2.783-3.016-4.752-.026-4.752.037-2.78 3.04-.495-.175a2.95 2.95 0 0 0-3.086.718L.304 34.237a.41.41 0 0 0-.083.456l.7 1.56-.96 2.615 3.447 13.107c.326 1.238 1.075 2.323 2.118 3.066l6.817 4.62a1.51 1.51 0 0 0 1.886 0l6.813-4.627c1.042-.743 1.8-1.828 2.115-3.066l2.812-10.752z" fill="url(#A)" transform="matrix(1.192746 0 0 1.192746 7.48159 -22.915035)"/><path d="M24.252 34.468a4.81 4.81 0 0 0-.663-.24h-.4a4.81 4.81 0 0 0-.663.24l-1.006.418-1.136.522-1.85.964c-.137.044-.233.168-.243.3s.07.28.2.342l1.606 1.134.987.784.452.4.946.828.428.38c.273.228.67.228.943 0l1.85-1.614.985-.784 1.606-1.15a.35.35 0 0 0-.05-.65l-1.847-.938-1.14-.522zm11.4-10.348l.052-.167a4.4 4.4 0 0 0-.042-.669 5.62 5.62 0 0 0-.596-1.123l-1.045-1.533-.744-1-1.4-1.753c-.128-.17-.266-.333-.415-.486h-.03l-.622.115-3.077.593c-.3.015-.623-.03-.917-.133l-1.7-.546-1.2-.334c-.355-.038-.713-.038-1.068 0l-1.2.337-1.7.55c-.294.103-.606.148-.917.133l-.938-.178-2.764-.515h-.03a4.67 4.67 0 0 0-.415.486l-1.397 1.753-.744 1.01-1.05 1.51c-.18.264-.345.54-.494.823a3.74 3.74 0 0 0-.141.972l.052.167a2.48 2.48 0 0 0 .097.316l.825.948 3.657 3.887c.247.3.318.7.185 1.045l-.598 1.418a1.84 1.84 0 0 0-.029 1.168l.12.33c.196.535.533 1.006.974 1.366l.575.468c.303.22.698.266 1.045.125l2.043-.974c.375-.188.726-.42 1.045-.692l1.635-1.476c.132-.12.2-.286.216-.463a.66.66 0 0 0-.182-.477l-3.7-2.487a.72.72 0 0 1-.225-.906l1.43-2.7c.164-.333.2-.717.07-1.068a1.64 1.64 0 0 0-.812-.737l-4.487-1.695c-.324-.123-.306-.26.037-.282l2.636-.26a4.38 4.38 0 0 1 1.23.1l2.293.64a.7.7 0 0 1 .49.784l-.9 4.92c-.06.273-.075.553-.044.83.037.118.345.26.682.345l1.397.298a3.38 3.38 0 0 0 1.228 0l1.256-.285c.337-.076.643-.235.682-.353a2.54 2.54 0 0 0-.047-.831l-.906-4.92a.7.7 0 0 1 .5-.784l2.293-.643c.402-.1.817-.136 1.23-.1l2.636.246c.345.03.36.16.04.282l-4.485 1.7a1.63 1.63 0 0 0-.812.737 1.4 1.4 0 0 0 .071 1.068l1.434 2.7c.16.316.064.7-.225.906l-3.688 2.492c-.123.128-.188.3-.182.477s.084.344.216.463l1.637 1.475c.32.27.67.503 1.045.7l2.043.972c.347.14.742.092 1.045-.128l.575-.47a3.17 3.17 0 0 0 .974-1.369l.12-.33a1.84 1.84 0 0 0-.029-1.168l-.6-1.418c-.133-.356-.062-.756.185-1.045l3.657-3.892.823-.948a2.48 2.48 0 0 0 .112-.308z" fill="#fff"/></svg>