<svg xmlns="http://www.w3.org/2000/svg" width="64" height="64"><path d="M32 0C14.312 0 0 14.313 0 32s14.313 32 32 32 32-14.313 32-32S49.687 0 32 0zM52.42 30.604l-.058 7.738a1.44 1.44 0 0 1-1.455 1.455c-.815 0-1.455-.698-1.455-1.513l.058-7.738c0-4.422-3.607-7.97-7.97-7.97-4.015 0-7.564 3.49-7.855 7.796v.29l-.116 2.967v.175c-.175 5.76-4.945 10.473-10.88 10.473-5.993 0-10.822-4.83-10.822-10.764 0 0 .058 0 .058-.058h-.058v-7.39c0-.815.64-1.338 1.455-1.338s1.455.582 1.455 1.338l-.058 7.39c0 4.422 3.607 7.97 7.97 7.97 4.422 0 7.97-3.607 7.97-7.97v-.233l.116-2.676v-.407c.407-5.876 5.12-10.473 10.705-10.473 5.993 0 10.88 4.887 10.88 10.88.058 0 .058.058.058.058z" fill="#37d97a"/></svg>