<?xml version="1.0" encoding="UTF-8" standalone="no"?>
<svg
   xmlns:dc="http://purl.org/dc/elements/1.1/"
   xmlns:cc="http://creativecommons.org/ns#"
   xmlns:rdf="http://www.w3.org/1999/02/22-rdf-syntax-ns#"
   xmlns:svg="http://www.w3.org/2000/svg"
   xmlns="http://www.w3.org/2000/svg"
   xmlns:sodipodi="http://sodipodi.sourceforge.net/DTD/sodipodi-0.dtd"
   xmlns:inkscape="http://www.inkscape.org/namespaces/inkscape"
   width="64"
   height="64"
   viewBox="11.272 1.898 4.35648 4.3568326"
   version="1.1"
   id="svg79"
   sodipodi:docname="xbox-icon.svg"
   inkscape:version="0.92.2 (5c3e80d, 2017-08-06)">
  <metadata
     id="metadata85">
    <rdf:RDF>
      <cc:Work
         rdf:about="">
        <dc:format>image/svg+xml</dc:format>
        <dc:type
           rdf:resource="http://purl.org/dc/dcmitype/StillImage" />
        <dc:title></dc:title>
      </cc:Work>
    </rdf:RDF>
  </metadata>
  <defs
     id="defs83" />
  <sodipodi:namedview
     pagecolor="#ffffff"
     bordercolor="#666666"
     borderopacity="1"
     objecttolerance="10"
     gridtolerance="10"
     guidetolerance="10"
     inkscape:pageopacity="0"
     inkscape:pageshadow="2"
     inkscape:window-width="1920"
     inkscape:window-height="1001"
     id="namedview81"
     showgrid="false"
     inkscape:zoom="2.1696"
     inkscape:cx="17.693262"
     inkscape:cy="67.241929"
     inkscape:window-x="-9"
     inkscape:window-y="-9"
     inkscape:window-maximized="1"
     inkscape:current-layer="svg79" />
  <g
     transform="matrix(0.1291296,0,0,0.1291296,9.3762011,6.3982956)"
     id="g77">
    <path
       d="m 48.42,-17.981 c 0,9.212 -7.553,16.679 -16.87,16.679 -9.317,0 -16.87,-7.467 -16.87,-16.679 0,-9.211 7.553,-16.679 16.87,-16.679 9.317,0 16.87,7.467 16.87,16.679 z"
       id="path8"
       inkscape:connector-curvature="0"
       style="fill:#666666" />
    <radialGradient
       id="a"
       cx="-1186.125"
       cy="1608.61"
       r="14.351"
       gradientTransform="matrix(0,1.6935,1.5038,0,-2387.78,1988.934)"
       gradientUnits="userSpaceOnUse">
      <stop
         offset="0"
         stop-color="#fff"
         id="stop10" />
      <stop
         offset="1"
         stop-color="#fff"
         stop-opacity="0"
         id="stop12" />
    </radialGradient>
    <path
       d="m 48.42,-17.981 c 0,9.212 -7.553,16.679 -16.87,16.679 -9.317,0 -16.87,-7.467 -16.87,-16.679 0,-9.211 7.553,-16.679 16.87,-16.679 9.317,0 16.87,7.467 16.87,16.679 z"
       id="path15"
       inkscape:connector-curvature="0"
       style="fill:url(#a)" />
    <radialGradient
       id="b"
       cx="-1186.125"
       cy="1608.61"
       r="14.351"
       gradientTransform="matrix(0,1.6935,1.5038,0,-2387.78,1988.934)"
       gradientUnits="userSpaceOnUse">
      <stop
         offset="0"
         stop-color="#fff"
         id="stop17" />
      <stop
         offset="1"
         stop-color="#fff"
         stop-opacity="0"
         id="stop19" />
    </radialGradient>
    <path
       d="m 48.42,-17.981 c 0,9.212 -7.553,16.679 -16.87,16.679 -9.317,0 -16.87,-7.467 -16.87,-16.679 0,-9.211 7.553,-16.679 16.87,-16.679 9.317,0 16.87,7.467 16.87,16.679 z"
       id="path22"
       inkscape:connector-curvature="0"
       style="fill:url(#b)" />
    <radialGradient
       id="c"
       cx="-1186.125"
       cy="1608.61"
       r="14.351"
       gradientTransform="matrix(0,1.6935,1.5038,0,-2387.78,1988.934)"
       gradientUnits="userSpaceOnUse">
      <stop
         offset="0"
         stop-color="#fff"
         id="stop24" />
      <stop
         offset="1"
         stop-color="#fff"
         stop-opacity="0"
         id="stop26" />
    </radialGradient>
    <path
       d="m 48.42,-17.981 c 0,9.212 -7.553,16.679 -16.87,16.679 -9.317,0 -16.87,-7.467 -16.87,-16.679 0,-9.211 7.553,-16.679 16.87,-16.679 9.317,0 16.87,7.467 16.87,16.679 z"
       id="path29"
       inkscape:connector-curvature="0"
       style="fill:url(#c)" />
    <path
       d="m 27.27,-25.287 c -1.863,2.258 -9.666,11.435 -8.974,17.64 0.482,0.61 1.013,1.182 1.574,1.72 -0.082,-4.75 5.492,-9.833 9.842,-13.67 l -2.443,-5.69 z"
       id="path31"
       inkscape:connector-curvature="0"
       style="fill:#00a54d" />
    <g
       transform="matrix(1.0075,0,0,1.00084,1.107,-34.878)"
       id="g40">
      <linearGradient
         id="d"
         gradientUnits="userSpaceOnUse"
         x1="-1022.497"
         y1="1131.197"
         x2="-1026.453"
         y2="1135.837"
         gradientTransform="matrix(1.0075,0,0,-1.0008,1054.326,1153.657)">
        <stop
           offset="0"
           stop-color="#97ca43"
           id="stop33" />
        <stop
           offset="1"
           stop-color="#97ca43"
           stop-opacity="0"
           id="stop35" />
      </linearGradient>
      <path
         d="m 25.967,9.583 c -1.848,2.256 -9.593,11.425 -8.906,17.625 0.478,0.61 1.005,1.181 1.562,1.718 -0.081,-4.745 5.451,-9.825 9.769,-13.658 z"
         id="path38"
         inkscape:connector-curvature="0"
         style="fill:url(#d)" />
    </g>
    <g
       transform="matrix(1.0075,0,0,1.00084,0.968,-34.846)"
       id="g51">
      <path
         d="m 21.561,2.677 a 16.832,16.832 0 0 0 -2.687,2.031 c 2.656,0.508 5.32,2.862 6.781,4.812 1.272,2.002 1.963,3.837 2.861,5.731 a 91.424,91.424 0 0 1 1.896,-1.587 L 30.408,5.438 C 28.429,4.2 25.158,2.571 21.592,2.677 c -0.008,0.005 -0.024,-0.005 -0.031,0 z"
         id="path42"
         inkscape:connector-curvature="0"
         style="fill:#02a74d" />
      <linearGradient
         id="e"
         gradientUnits="userSpaceOnUse"
         x1="-1022.39"
         y1="1142.3361"
         x2="-1018.766"
         y2="1150.379"
         gradientTransform="matrix(1.0075,0,0,-1.0008,1054.187,1153.625)">
        <stop
           offset="0"
           stop-color="#97ca43"
           id="stop44" />
        <stop
           offset="1"
           stop-color="#97ca43"
           stop-opacity="0"
           id="stop46" />
      </linearGradient>
      <path
         d="m 21.561,2.677 a 16.832,16.832 0 0 0 -2.687,2.031 c 2.656,0.508 5.32,2.862 6.781,4.812 1.272,2.002 1.963,3.837 2.861,5.731 a 91.424,91.424 0 0 1 1.896,-1.587 L 30.408,5.438 C 28.429,4.2 25.158,2.571 21.592,2.677 c -0.008,0.005 -0.024,-0.005 -0.031,0 z"
         id="path49"
         inkscape:connector-curvature="0"
         style="fill:url(#e)" />
    </g>
    <g
       id="g75">
      <path
         d="m 35.837,-25.28 c 1.856,2.26 9.633,11.445 8.943,17.654 -0.48,0.61 -1.009,1.183 -1.568,1.722 0.081,-4.754 -5.474,-9.842 -9.81,-13.682 l 2.435,-5.695 z"
         id="path53"
         inkscape:connector-curvature="0"
         style="fill:#00a54d" />
      <g
         transform="matrix(-1.00417,0,0,1.00169,61.912,-34.88)"
         id="g62">
        <linearGradient
           id="f"
           gradientUnits="userSpaceOnUse"
           x1="1745.975"
           y1="1130.484"
           x2="1742.02"
           y2="1135.124"
           gradientTransform="matrix(-1.0042,0,0,-1.0017,1777.409,1153.894)">
          <stop
             offset="0"
             stop-color="#97ca43"
             id="stop55" />
          <stop
             offset="1"
             stop-color="#97ca43"
             stop-opacity="0"
             id="stop57" />
        </linearGradient>
        <path
           d="m 25.967,9.583 c -1.848,2.256 -9.593,11.426 -8.906,17.625 a 16.95,16.95 0 0 0 1.562,1.719 c -0.081,-4.746 5.451,-9.825 9.769,-13.659 z"
           id="path60"
           inkscape:connector-curvature="0"
           style="fill:url(#f)" />
      </g>
      <g
         transform="matrix(-1.00417,0,0,1.00169,62.051,-34.848)"
         id="g73">
        <path
           d="m 21.561,2.677 a 16.945,16.945 0 0 0 -2.688,2.031 c 2.656,0.508 5.321,2.862 6.781,4.812 1.272,2.002 1.964,3.837 2.862,5.732 0.608,-0.519 1.226,-1.047 1.896,-1.587 L 30.408,5.438 C 28.429,4.2 25.158,2.571 21.592,2.677 c -0.007,0.005 -0.024,-0.005 -0.031,0 z"
           id="path64"
           inkscape:connector-curvature="0"
           style="fill:#02a74d" />
        <linearGradient
           id="g"
           gradientUnits="userSpaceOnUse"
           x1="1746.11"
           y1="1141.965"
           x2="1749.2061"
           y2="1147.0081"
           gradientTransform="matrix(-1.0042,0,0,-1.0017,1777.548,1153.863)">
          <stop
             offset="0"
             stop-color="#97ca43"
             id="stop66" />
          <stop
             offset="1"
             stop-color="#97ca43"
             stop-opacity="0"
             id="stop68" />
        </linearGradient>
        <path
           d="m 21.561,2.677 a 16.945,16.945 0 0 0 -2.688,2.031 c 2.656,0.508 5.321,2.862 6.781,4.812 1.272,2.002 1.964,3.837 2.862,5.732 0.608,-0.519 1.226,-1.047 1.896,-1.587 L 30.408,5.438 C 28.429,4.2 25.158,2.571 21.592,2.677 c -0.007,0.005 -0.024,-0.005 -0.031,0 z"
           id="path71"
           inkscape:connector-curvature="0"
           style="fill:url(#g)" />
      </g>
    </g>
  </g>
</svg>
