<?xml version="1.0" encoding="UTF-8" standalone="no"?>
<!-- Created with Inkscape (http://www.inkscape.org/) -->

<svg
   xmlns:dc="http://purl.org/dc/elements/1.1/"
   xmlns:cc="http://creativecommons.org/ns#"
   xmlns:rdf="http://www.w3.org/1999/02/22-rdf-syntax-ns#"
   xmlns:svg="http://www.w3.org/2000/svg"
   xmlns="http://www.w3.org/2000/svg"
   xmlns:sodipodi="http://sodipodi.sourceforge.net/DTD/sodipodi-0.dtd"
   xmlns:inkscape="http://www.inkscape.org/namespaces/inkscape"
   width="120"
   height="60"
   viewBox="0 0 120 60.000001"
   id="svg2"
   version="1.1"
   inkscape:version="0.91 r13725"
   sodipodi:docname="getpinoio-ar21.svg">
  <defs
     id="defs4" />
  <sodipodi:namedview
     id="base"
     pagecolor="#ffffff"
     bordercolor="#666666"
     borderopacity="1.0"
     inkscape:pageopacity="0.0"
     inkscape:pageshadow="2"
     inkscape:zoom="4.9808703"
     inkscape:cx="56.450954"
     inkscape:cy="55.302858"
     inkscape:document-units="px"
     inkscape:current-layer="layer1"
     showgrid="false"
     units="px"
     inkscape:window-width="1855"
     inkscape:window-height="1056"
     inkscape:window-x="65"
     inkscape:window-y="24"
     inkscape:window-maximized="1" />
  <metadata
     id="metadata7">
    <rdf:RDF>
      <cc:Work
         rdf:about="">
        <dc:format>image/svg+xml</dc:format>
        <dc:type
           rdf:resource="http://purl.org/dc/dcmitype/StillImage" />
        <dc:title />
      </cc:Work>
    </rdf:RDF>
  </metadata>
  <g
     inkscape:label="Layer 1"
     inkscape:groupmode="layer"
     id="layer1"
     transform="translate(0,-992.36216)">
    <g
       style="font-style:normal;font-variant:normal;font-weight:normal;font-stretch:normal;font-size:35.6749382px;line-height:125%;font-family:Milliard;-inkscape-font-specification:'Milliard, Normal';text-align:center;letter-spacing:0px;word-spacing:0px;writing-mode:lr-tb;text-anchor:middle;fill:#000000;fill-opacity:1;stroke:none;stroke-width:1px;stroke-linecap:butt;stroke-linejoin:miter;stroke-opacity:1"
       id="text4136">
      <path
         d="m 16.796332,1013.877 c -2.283196,0 -4.637741,0.9276 -6.350139,3.0324 l 0,-2.6756 -2.7469697,0 0,24.2589 2.7469697,0 0,-8.7403 c 1.712398,2.1405 4.066943,3.0323 6.350139,3.0323 5.172867,0 8.74036,-4.0312 8.74036,-9.4538 0,-5.4226 -3.603168,-9.4539 -8.74036,-9.4539 z m -0.642148,16.4818 c -2.033472,0 -4.138293,-0.9989 -5.707991,-3.3891 l 0,-7.242 c 1.641048,-2.4972 3.924244,-3.4248 5.85069,-3.4248 3.817219,0 6.421489,2.9967 6.421489,6.9923 0,4.0313 -2.67562,7.0636 -6.564188,7.0636 z"
         style=""
         id="path4149" />
      <path
         d="m 32.055173,1010.3809 c 1.141598,0 2.033472,-0.8919 2.033472,-2.0335 0,-1.1416 -0.891874,-1.9978 -2.033472,-1.9978 -1.141598,0 -2.033471,0.8562 -2.033471,1.9978 0,1.1416 0.891873,2.0335 2.033471,2.0335 z m -1.391322,22.0471 2.74697,0 0,-18.1942 -2.74697,0 0,18.1942 z"
         style=""
         id="path4151" />
      <path
         d="m 48.703663,1013.877 c -2.853995,0 -4.744767,1.6054 -6.13609,3.6389 l 0,-3.2821 -2.74697,0 0,18.1942 2.74697,0 0,-12.3436 c 1.783747,-2.2475 3.745869,-3.6388 5.85069,-3.6388 2.176171,0 4.066943,1.1773 4.066943,4.1026 l 0,11.8798 2.74697,0 0,-12.0582 c 0,-4.388 -3.032369,-6.4928 -6.528513,-6.4928 z"
         style=""
         id="path4153" />
      <path
         d="m 69.382864,1032.7847 c 5.422591,0 9.525208,-4.0312 9.525208,-9.4538 0,-5.4226 -4.102617,-9.4539 -9.525208,-9.4539 -5.422591,0 -9.525209,4.0313 -9.525209,9.4539 0,5.4226 4.102618,9.4538 9.525209,9.4538 z m 0,-2.4259 c -3.817218,0 -6.706888,-2.9967 -6.706888,-7.0279 0,-4.0313 2.88967,-7.028 6.706888,-7.028 3.817218,0 6.706888,2.9967 6.706888,7.028 0,4.0312 -2.88967,7.0279 -6.706888,7.0279 z"
         style=""
         id="path4155" />
    </g>
    <g
       id="g4213"
       transform="matrix(0.84590034,0,0,0.84590034,6.2806872,182.56097)">
      <path
         sodipodi:nodetypes="cccc"
         inkscape:connector-curvature="0"
         id="path4205"
         d="m 103.20282,980.11693 -11.634516,23.47387 23.340596,0 z"
         style="fill:#859947;fill-opacity:1;fill-rule:evenodd;stroke:none;stroke-width:1px;stroke-linecap:butt;stroke-linejoin:miter;stroke-opacity:1" />
      <path
         sodipodi:nodetypes="ccccc"
         inkscape:connector-curvature="0"
         id="path4207"
         d="m 108.51025,969.47385 -4.68837,9.37295 4.67848,9.23361 4.70436,-9.21761 z"
         style="fill:#647728;fill-opacity:1;fill-rule:evenodd;stroke:none;stroke-width:1px;stroke-linecap:butt;stroke-linejoin:miter;stroke-opacity:1" />
      <path
         sodipodi:nodetypes="ccccc"
         inkscape:connector-curvature="0"
         id="path4209"
         d="m 125.4423,1003.5192 -11.6284,-23.30482 -4.6168,9.35696 6.92403,13.99356 z"
         style="fill:#a3c255;fill-opacity:1;fill-rule:evenodd;stroke:none;stroke-width:1px;stroke-linecap:butt;stroke-linejoin:miter;stroke-opacity:1" />
      <path
         sodipodi:nodetypes="ccccc"
         inkscape:connector-curvature="0"
         id="path4211"
         d="m 98.419002,1004.8153 -2.640948,5.3225 25.134396,-0.029 -2.60716,-5.366 z"
         style="fill:#584338;fill-opacity:1;fill-rule:evenodd;stroke:none;stroke-width:1px;stroke-linecap:butt;stroke-linejoin:miter;stroke-opacity:1" />
    </g>
  </g>
</svg>
