<?xml version="1.0" encoding="utf-8"?>
<!-- Generator: Adobe Illustrator 24.1.0, SVG Export Plug-In . SVG Version: 6.00 Build 0)  -->
<svg version="1.1" id="Layer_1" xmlns="http://www.w3.org/2000/svg" xmlns:xlink="http://www.w3.org/1999/xlink" x="0px" y="0px"
	 viewBox="0 0 64 64" width="64" height="64" style="enable-background:new 0 0 64 64;" xml:space="preserve">
<style type="text/css">
	.st0{fill-rule:evenodd;clip-rule:evenodd;fill:#559AFA;}
</style>
<g>
	<path class="st0" d="M22.8,0.6c-1.5-1-3.6-0.6-4.6,0.9c0,0,0,0.1-0.1,0.1L2.8,25.8c-1,1.6-0.6,3.7,1,4.8c1.5,1,3.6,0.6,4.6-1
		c0,0,0,0,0.1-0.1L23.8,5.3C24.9,3.7,24.4,1.6,22.8,0.6z M37.4,0.6c-1.5-1-3.6-0.6-4.6,1c0,0,0,0,0,0.1L9.7,38c-1,1.6-0.6,3.7,1,4.8
		c1.5,1,3.6,0.6,4.7-1c0,0,0-0.1,0-0.1l23-36.4C39.4,3.7,39,1.6,37.4,0.6z M51.9,0.6c-1.5-1-3.6-0.6-4.6,1c0,0,0,0-0.1,0.1
		L11.1,58.7c-1,1.6-0.6,3.7,1,4.8c1.5,1,3.6,0.6,4.6-1c0,0,0-0.1,0.1-0.1L52.9,5.3C53.9,3.7,53.5,1.6,51.9,0.6z M53.3,21.4
		c-1.5-1-3.6-0.6-4.6,1c0,0,0,0.1,0,0.1L25.7,58.7c-1,1.6-0.6,3.7,1,4.8c1.6,1,3.7,0.6,4.7-1l22.9-36.3
		C55.3,24.5,54.8,22.4,53.3,21.4z M60.2,33.4c-1.5-1-3.6-0.6-4.6,0.9c0,0,0,0.1,0,0.1L40.1,58.7c-1,1.6-0.6,3.7,1,4.8
		c1.5,1,3.6,0.6,4.6-1c0,0,0,0,0-0.1l15.3-24.2C62.2,36.6,61.7,34.4,60.2,33.4z"/>
</g>
</svg>
