<?xml version="1.0" encoding="UTF-8" standalone="no"?>
<!-- Generator: Adobe Illustrator 19.2.1, SVG Export Plug-In . SVG Version: 6.00 Build 0)  -->

<svg
   xmlns:dc="http://purl.org/dc/elements/1.1/"
   xmlns:cc="http://creativecommons.org/ns#"
   xmlns:rdf="http://www.w3.org/1999/02/22-rdf-syntax-ns#"
   xmlns:svg="http://www.w3.org/2000/svg"
   xmlns="http://www.w3.org/2000/svg"
   xmlns:sodipodi="http://sodipodi.sourceforge.net/DTD/sodipodi-0.dtd"
   xmlns:inkscape="http://www.inkscape.org/namespaces/inkscape"
   version="1.1"
   id="Layer_1"
   x="0px"
   y="0px"
   viewBox="0 0 120 60.000002"
   xml:space="preserve"
   sodipodi:docname="marketwatch-ar21.svg"
   width="120"
   height="60"
   inkscape:version="0.92.3 (2405546, 2018-03-11)"><metadata
   id="metadata31"><rdf:RDF><cc:Work
       rdf:about=""><dc:format>image/svg+xml</dc:format><dc:type
         rdf:resource="http://purl.org/dc/dcmitype/StillImage" /><dc:title></dc:title></cc:Work></rdf:RDF></metadata><defs
   id="defs29">
	
	

		
	
		
		
		
		
		
		
	</defs><sodipodi:namedview
   pagecolor="#ffffff"
   bordercolor="#666666"
   borderopacity="1"
   objecttolerance="10"
   gridtolerance="10"
   guidetolerance="10"
   inkscape:pageopacity="0"
   inkscape:pageshadow="2"
   inkscape:window-width="1920"
   inkscape:window-height="1001"
   id="namedview27"
   showgrid="false"
   inkscape:zoom="5.1633646"
   inkscape:cx="90.667232"
   inkscape:cy="18.331099"
   inkscape:window-x="-9"
   inkscape:window-y="-9"
   inkscape:window-maximized="1"
   inkscape:current-layer="Layer_1" />
<style
   type="text/css"
   id="style2">
	.st0{fill:#FFFFFF;}
	.st1{fill:#00B742;}
</style>
<g
   id="g864"
   transform="translate(4.4803428,1.923637)"><path
     style="fill:#000000;stroke-width:0.28650174"
     inkscape:connector-curvature="0"
     id="path4"
     d="m 28.080571,26.844405 -0.171901,0.888156 h -0.02865 c -0.229202,-0.515704 -0.888156,-1.203308 -2.292014,-1.203308 -2.292014,0 -4.612678,1.776311 -5.128382,4.555378 -0.458402,2.435264 0.744906,4.584028 3.438022,4.584028 1.002756,0 2.148762,-0.401103 2.721766,-1.231958 h 0.02865 l -0.1719,0.916806 h 2.521214 l 1.57576,-8.537752 h -2.492565 z m -0.802205,4.240226 c -0.171901,0.830855 -0.945456,2.206063 -2.549866,2.206063 -1.547108,0 -1.86226,-1.375208 -1.71901,-2.148763 0.171902,-0.974106 1.060056,-2.206063 2.521216,-2.206063 1.432508,0 1.919561,1.146007 1.74766,2.148763 z"
     class="st0" /><path
     style="fill:#000000;stroke-width:0.28650174"
     inkscape:connector-curvature="0"
     id="path6"
     d="m 32.034294,26.844405 h 2.377965 l -0.171901,0.888156 h 0.02865 c 0.315152,-0.401102 0.888156,-1.203308 2.377965,-1.203308 l -0.458403,2.578516 c -1.203307,0.02865 -2.091463,0.257852 -2.292014,1.57576 l -0.888155,4.698628 h -2.578516 z"
     class="st0" /><polygon
     transform="matrix(0.28650173,0,0,0.28650173,2.324066,20.455417)"
     style="fill:#000000"
     id="polygon8"
     points="125.8,10.6 134.8,10.6 130.6,33.1 130.8,33.1 141.1,22.3 151.6,22.3 137.9,35.4 145.8,52.1 135.7,52.1 129.9,37.7 129.8,37.7 127.1,52.1 118.2,52.1 "
     class="st0" /><path
     style="fill:#000000;stroke-width:0.28650174"
     inkscape:connector-curvature="0"
     id="path10"
     d="m 49.854702,26.529253 c -2.578515,0 -4.899179,2.234714 -5.328932,4.612678 -0.458403,2.521216 1.231957,4.526728 3.695873,4.526728 0.888154,0 1.77631,-0.257852 2.578515,-0.773555 0.802205,-0.487053 1.547109,-1.231957 2.148763,-2.177413 h -2.607166 c -0.429752,0.458402 -0.916806,0.802204 -1.71901,0.802204 -1.002756,0 -1.71901,-0.601653 -1.69036,-1.604409 h 6.388988 c 0.08595,-0.200551 0.1146,-0.343803 0.171902,-0.658954 0.487052,-2.635816 -1.031407,-4.727279 -3.638573,-4.727279 z m -2.578515,3.638572 c 0.200551,-0.515703 0.888155,-1.461158 2.234713,-1.461158 1.317908,0 1.66171,0.945455 1.66171,1.461158 z"
     class="st0" /><polygon
     transform="matrix(0.28650173,0,0,0.28650173,2.324066,20.455417)"
     style="fill:#000000"
     id="polygon12"
     points="50.1,52.1 59,52.1 59,10.6 51.4,10.6 35.6,34.2 35.5,34.2 35.5,10.6 27.9,10.6 0,52.1 10.8,52.1 26.5,28.5 26.6,28.5 26.6,52.1 34.3,52.1 49.9,28.5 50.1,28.5 "
     class="st0" /><path
     style="fill:#000000;stroke-width:0.28650174"
     inkscape:connector-curvature="0"
     id="path14"
     d="m 59.996863,26.844405 h -1.60441 l 0.458404,-2.521215 h -2.234714 l -0.171902,0.974105 c -0.20055,1.117358 -0.888154,1.46116 -1.83361,1.54711 h -0.02865 l -0.401102,1.919562 h 1.260606 l -1.231956,6.58954 h 2.549864 l 1.231958,-6.58954 h 1.63306 z"
     class="st0" /><g
     transform="matrix(0.28650173,0,0,0.28650173,2.324066,20.455417)"
     id="g20">
			<path
   style="fill:#00b742"
   inkscape:connector-curvature="0"
   id="path18"
   d="m 339.3,40.8 c -2.9,6.8 -9.9,12.3 -17.9,12.3 -9,0 -14.7,-7.1 -13,-16 1.6,-8.8 9.7,-15.9 18.7,-15.9 7.9,0 13.3,5.3 13.4,12.6 h -9 c -0.6,-2.1 -1.9,-4.2 -5.7,-4.2 -4.2,-0.2 -7.7,3.3 -8.5,7.5 -0.8,4.3 1.4,7.6 5.7,7.6 3.7,0 5.9,-2.1 7.2,-4 h 9.1 z M 265.3,0 248,10.6 h 4.9 L 237.2,34.2 H 237 V 10.6 h -7.7 l -15.7,23.6 h -0.1 V 10.6 h -9 v 41.5 h 7.8 L 228,28.5 h 0.1 v 23.6 h 7.7 l 27.8,-41.5 h 4.4 z m 17,52.1 h -8.8 l 0.6,-3.2 H 274 c -2.1,2.9 -6,4.3 -9.5,4.3 -9.5,0 -13.6,-7.5 -12,-16 1.8,-9.7 10,-15.9 17.9,-15.9 4.9,0 7.2,2.4 8,4.2 h 0.1 l 0.6,-3.1 h 8.8 z m -15,-7.3 c 5.5,0 8.3,-4.8 8.9,-7.7 0.6,-3.6 -1.1,-7.5 -6.1,-7.5 -5.1,0 -8.2,4.3 -8.8,7.7 -0.6,2.8 0.6,7.5 6,7.5 z m 42.9,-22.5 h -5.6 l 1.6,-8.8 h -7.8 l -0.6,3.4 c -0.7,3.9 -3.1,5.1 -6.4,5.4 h -0.1 L 290,29 h 4.4 l -4.3,23 h 8.9 l 4.3,-23 h 5.7 z m 37.5,-11.7 h 8.9 l -2.7,14.8 h 0.1 c 1.9,-2.8 4.5,-4.2 8.4,-4.2 2.8,0 6,1.1 7.5,3.3 1.9,2.9 1.7,5.5 0.7,10.9 L 367.5,52 h -8.9 l 3,-16.2 c 0.3,-1.4 1.1,-6.3 -3.6,-6.3 -5,0 -5.8,4.5 -6.1,6 L 348.8,52 H 340 Z"
   class="st1" />
		</g></g>
</svg>