<svg xmlns="http://www.w3.org/2000/svg" xmlns:xlink="http://www.w3.org/1999/xlink" width="64" height="64"><g transform="matrix(.284192 0 0 .284192 -.31261 47.488455)"><circle cx="113.7" cy="-54.5" r="112.6" fill="#b90000"/><g transform="translate(0 -170)" opacity=".4"><defs><path id="A" d="M26.1 52.5H204v129.9H26.1z"/></defs><clipPath id="B"><use xlink:href="#A"/></clipPath><path d="M69.8 52.5h8v129.9h-8zM37.1 99.8c.1-8.2 14.3-8.5 14.3-.4l.1 7h10.8v-6.5c.7-21.7-36.6-21.7-36.3-.5v37.4c-.3 21.2 37 21.8 36.3 0V129h-11v8.4c0 8.1-14.2 8.3-14.3 0v-38zm62-8.5s1.9-2.8 6.8-5.5c6.3-3.5 12.5 0 11.6-.4 5 2.2 6.8 7.5 7.2 13.5v44.3h7v8.1h-18v-53c0-7.7-13-7.5-13.2.4v-.4 53H84.4v-8.1h5.1V93.5h-6.1v-8.1H99zm81.2 45.4c.4 6 2.2 11.3 7.2 13.5-.9-.4 2.4 1.3 5.9 1.2H204v-8.1s-4.4-.1-6.8 0c-3 0-5.6-1.4-5.8-5.6V93.6H202v-8h-10.6V68.3h-11.1zm-19.9-7.7v8.4c0 8.1-14.2 8.3-14.3 0v-17.5h23.3c1.1 0 2-.9 2-2v-18c.7-21.7-36.6-21.7-36.3-.5v37.4c-.3 21.2 37 21.8 36.3 0V129zm-14.3-29.6c.2-8.1 14.3-8.1 14.3.1v12.2h-14.3z" clip-path="url(#B)"/></g><path d="M69.8-115.8h8V14.1h-8zM37.1-68.5c.1-8.2 14.3-8.5 14.3-.4l.1 7h10.8v-6.5C63-90 25.8-90 26.1-68.8v37.4c-.3 21.2 37 21.8 36.3 0v-7.8h-11v8.4c0 8.1-14.2 8.3-14.3 0v-38zm62-8.4s1.9-2.8 6.8-5.5c6.3-3.5 12.5 0 11.6-.4 5 2.2 6.8 7.5 7.2 13.5V-25h7v8.1h-18v-53c0-7.7-13-7.5-13.2.4v-.4 53H84.4V-25h5.1v-49.7h-6.1v-8.1H99zm81.2 45.3c.4 6 2.2 11.3 7.2 13.5-.9-.4 2.4 1.3 5.9 1.2H204V-25s-4.4-.1-6.8 0c-3 0-5.6-1.4-5.8-5.6v-44.1H202v-8h-10.6v-17.2h-11.1zm-19.9-7.6v8.4c0 8.1-14.2 8.3-14.3 0v-17.5h23.3c1.1 0 2-.9 2-2v-18c.7-21.7-36.6-21.7-36.3-.5v37.4c-.3 21.2 37 21.8 36.3 0v-7.8zm-14.3-29.7c.2-8.1 14.3-8.1 14.3.1v12.2h-14.3z" fill="#fff"/></g></svg>