<svg xmlns="http://www.w3.org/2000/svg" preserveAspectRatio="xMinYMin meet" width="64" height="64"><path d="M49.047 17.058A14.95 14.95 0 0 1 64 32.011c0 8.256-6.692 14.953-14.953 14.953h-32.96c-1.18 0-2.134-.955-2.134-2.134s.955-2.134 2.134-2.134h7.68c1.173 0 2.128-.955 2.128-2.134s-.955-2.134-2.128-2.134h-1.7c-1.18 0-2.134-.955-2.134-2.134s.955-2.134 2.134-2.134h5.122c1.185-.003 2.104-.97 2.134-2.134 0-1.18-.955-2.134-2.134-2.134H9.255c-1.18 0-2.134-.955-2.134-2.134s.955-2.134 2.134-2.134h13.227c1.185-.003 2.104-.97 2.133-2.134 0-1.18-.955-2.134-2.134-2.134H19.5c-1.18 0-2.134-.955-2.134-2.134s.955-2.2 2.134-2.2zm-2.4 4.982c-4.6 0-8.306 3.72-8.306 8.306v3.323a8.3 8.3 0 0 0 8.306 8.306c4.586 0 8.306-3.714 8.306-8.306v-3.323a8.31 8.31 0 0 0-8.306-8.306zm2.837 7.853a2.01 2.01 0 0 1 2.005 2.005v.257a2.01 2.01 0 0 1-2.005 2.005H43.26a2.01 2.01 0 0 1-2.005-2.005V31.9a2.01 2.01 0 0 1 2.005-2.005zm-40.1 12.803a2 2 0 0 1 2.005 2.005v.257c0 1.106-.894 2.005-2.005 2.005h-7.38A2.01 2.01 0 0 1 0 44.959v-.257c0-1.112.9-2.005 2.005-2.005z"/><path fill="#00000" d="M12.802 17.092c1.106 0 2 .9 2 2.005v.263a2 2 0 0 1-2 2h-8.24c-1.106 0-2.005-.894-2.005-2v-.263a2.01 2.01 0 0 1 2.005-2.005z"/><path d="M15.36 34.162a2.01 2.01 0 0 1 2.005 2.005v.257a2.01 2.01 0 0 1-2.005 2.005h-4.524a2.01 2.01 0 0 1-2.005-2.005v-.257a2.01 2.01 0 0 1 2.005-2.005z"/></svg>