<?xml version="1.0" encoding="UTF-8" standalone="no"?>
<svg
   width="255"
   height="26.600611"
   viewBox="0 0 255 26.600611"
   fill="none"
   version="1.1"
   id="svg15"
   sodipodi:docname="reactrouter-official.svg"
   inkscape:version="1.3.2 (091e20e, 2023-11-25)"
   xmlns:inkscape="http://www.inkscape.org/namespaces/inkscape"
   xmlns:sodipodi="http://sodipodi.sourceforge.net/DTD/sodipodi-0.dtd"
   xmlns="http://www.w3.org/2000/svg"
   xmlns:svg="http://www.w3.org/2000/svg">
  <defs
     id="defs15" />
  <sodipodi:namedview
     id="namedview15"
     pagecolor="#ffffff"
     bordercolor="#000000"
     borderopacity="0.25"
     inkscape:showpageshadow="2"
     inkscape:pageopacity="0.0"
     inkscape:pagecheckerboard="0"
     inkscape:deskcolor="#d1d1d1"
     inkscape:zoom="2.9478261"
     inkscape:cx="115"
     inkscape:cy="11.873156"
     inkscape:window-width="1392"
     inkscape:window-height="997"
     inkscape:window-x="1861"
     inkscape:window-y="25"
     inkscape:window-maximized="0"
     inkscape:current-layer="svg15" />
  <path
     d="M 30.730582,9.129548 C 29.599606,8.7625492 29.015548,8.8862791 27.829249,8.7524823 25.995474,8.546044 25.264847,7.8063255 24.954857,5.9025371 24.781457,4.8397793 24.986233,3.2837428 24.543422,2.3203792 23.696603,0.48349683 21.715151,-0.3403303 19.724497,0.12988211 18.043832,0.52745975 16.64533,2.2611307 16.567832,4.0406682 c -0.08847,2.0318533 1.033189,3.7655243 2.959318,4.3638071 0.915002,0.2848005 1.887324,0.4281653 2.843016,0.5007957 1.752618,0.1318898 1.887324,1.137428 2.361511,1.965077 0.298903,0.521783 0.588493,1.035994 0.588493,2.59193 0,1.555937 -0.291474,2.070037 -0.588493,2.591898 -0.474187,0.825753 -1.059021,1.366683 -2.81164,1.500502 -0.955691,0.07262 -1.929787,0.215973 -2.843126,0.500796 -1.926018,0.600134 -3.047792,2.331909 -2.959207,4.363696 0.0775,1.77956 1.475889,3.513219 3.156664,3.910796 1.990655,0.472191 3.972107,-0.353562 4.818925,-2.190441 0.444696,-0.963341 0.688164,-2.054847 0.861564,-3.117527 0.311874,-1.903844 1.042391,-2.643563 2.874392,-2.850001 1.186299,-0.133819 2.414063,0 3.525636,-0.651799 1.174769,-0.885844 2.224256,-2.215275 2.224256,-4.05792 0,-1.842644 -1.130976,-3.7745928 -2.848559,-4.33273 z"
     fill="#f44250"
     id="path1"
     style="stroke-width:1.10869" />
  <path
     d="m 11.914879,17.780297 c -2.3116984,0 -4.1973486,-1.949744 -4.1973486,-4.340082 0,-2.390282 1.8856502,-4.3400695 4.1973486,-4.3400695 2.31162,0 4.197281,1.9497875 4.197281,4.3400695 0,2.388453 -1.887435,4.340082 -4.197281,4.340082 z"
     fill="#121212"
     id="path2"
     style="stroke-width:1.10869" />
  <path
     d="M 4.1825029,26.600597 C 1.8745412,26.594832 -0.00553236,24.637439 1.2232393e-5,22.245216 0.00558139,19.856764 1.898622,17.912785 4.2121382,17.920435 c 2.3098021,0.0058 4.1898757,1.963159 4.1824918,4.355381 -0.00558,2.386457 -1.8986219,4.330547 -4.2121271,4.324781 z"
     fill="#121212"
     id="path3"
     style="stroke-width:1.10869" />
  <path
     d="m 35.369566,26.600487 c -2.315279,0.01341 -4.215686,-1.922914 -4.228658,-4.307375 -0.01297,-2.394107 1.859718,-4.359151 4.165684,-4.372677 2.31539,-0.0133 4.215797,1.923024 4.228769,4.307486 0.01286,2.392222 -1.859718,4.35915 -4.165795,4.372566 z"
     fill="#121212"
     id="path4"
     style="stroke-width:1.10869" />
  <path
     d="m 73.333468,25.222273 c -0.754907,-0.852694 -0.862783,-1.890761 -1.18641,-5.375488 -0.251562,-2.706314 -1.617691,-4.077986 -3.954478,-4.559934 2.768179,-0.370746 4.817372,-2.595113 4.817372,-6.0057671 0,-4.5599124 -2.911976,-7.414503 -8.771962,-7.414503 H 52.805725 V 25.222273 h 6.003782 v -7.748197 h 4.062354 c 2.049194,0 3.16365,0.59315 3.343368,3.262434 0.17983,2.409739 0.467425,3.855472 0.934738,4.485763 z M 58.809507,12.617567 V 6.9084412 h 4.349949 c 2.58846,0 3.882635,1.0009593 3.882635,2.8916541 0,2.1502617 -1.294175,2.8174717 -3.882635,2.8174717 z"
     fill="#121212"
     id="path5"
     style="stroke-width:1.10869" />
  <path
     d="m 86.665254,19.327696 c -0.539268,1.297612 -1.545959,1.853621 -3.127728,1.853621 -1.761599,0 -3.199571,-0.963896 -3.343368,-3.00289 H 91.446594 V 16.51018 c 0,-4.485763 -2.840023,-8.2671301 -8.196662,-8.2671301 -4.997092,0 -8.736041,3.7443371 -8.736041,8.9715931 0,5.264285 3.666995,8.452437 8.807884,8.452437 4.242183,0 7.190192,-2.113054 8.017054,-5.894466 z m -6.399253,-4.040845 c 0.215751,-1.557045 1.042613,-2.743345 2.911976,-2.743345 1.725678,0 2.660415,1.260471 2.732258,2.743345 z"
     fill="#121212"
     id="path6"
     style="stroke-width:1.10869" />
  <path
     d="m 103.08363,18.32677 c 0,2.150195 -1.3302,3.410666 -2.98393,3.410666 -0.970655,0 -1.617687,-0.556119 -1.617687,-1.408703 0,-1.075097 0.826862,-1.520015 2.228917,-1.81659 l 2.3727,-0.444917 z m 5.71619,-3.596038 c 0,-4.596976 -3.12773,-6.4876821 -7.36991,-6.4876821 -4.817371,0 -7.441753,2.5209301 -7.945099,6.1540771 l 5.392672,0.370635 c 0.251562,-1.22333 0.898705,-2.076024 2.192877,-2.076024 1.40216,0 2.01327,0.815664 2.01327,2.187336 v 0.259434 l -4.493852,0.778523 c -3.487165,0.630291 -5.716077,2.001963 -5.716077,5.190225 0,2.817516 2.049193,4.485763 5.176921,4.485763 2.552428,0 4.385868,-1.001037 5.320608,-2.928718 0.53927,1.890651 2.08511,2.928718 4.06246,2.928718 1.65373,0 2.8041,-0.481948 3.63052,-1.075097 v -3.188263 c -0.46687,0.185374 -0.82642,0.259545 -1.29373,0.259545 -0.61122,0 -0.97066,-0.370746 -0.97066,-1.22344 z"
     fill="#121212"
     id="path7"
     style="stroke-width:1.10869" />
  <path
     d="m 111.72832,16.955098 c 0,5.264286 3.70303,8.711982 8.77196,8.711982 4.81726,0 7.5136,-3.188152 7.9094,-7.191967 l -4.78178,-0.370746 c -0.39581,2.038993 -1.36591,3.039919 -3.05555,3.039919 -1.76171,0 -2.9846,-1.22344 -2.9846,-4.189188 0,-2.965859 1.22289,-4.189188 2.9846,-4.189188 1.68964,0 2.65974,0.963896 3.05555,3.002889 l 4.78178,-0.333716 c -0.3958,-3.966674 -3.09214,-7.1920331 -7.9094,-7.1920331 -5.06893,0 -8.77196,3.4847921 -8.77196,8.7120481 z"
     fill="#121212"
     id="path8"
     style="stroke-width:1.10869" />
  <path
     d="m 131.21134,20.625308 c 0,3.892614 2.55332,5.041772 5.24965,5.041772 2.19299,0 3.59438,-0.556009 4.81727,-1.482874 v -3.892614 c -0.97122,0.407777 -1.76171,0.55612 -2.48125,0.55612 -1.1863,0 -1.83267,-0.55612 -1.83267,-1.964822 v -6.042809 h 4.16979 V 8.6879232 h -4.16979 V 4.1280109 h -3.66755 l -0.53882,2.150206 c -0.39581,1.5199708 -0.89915,2.4097063 -2.51673,2.6692176 l -1.1863,0.185362 v 3.7072845 h 2.1564 z"
     fill="#121212"
     id="path9"
     style="stroke-width:1.10869" />
  <path
     d="m 170.65302,25.222273 c -0.75502,-0.852694 -0.86367,-1.890761 -1.1863,-5.375488 -0.25167,-2.706314 -1.61869,-4.077986 -3.9547,-4.559934 2.7684,-0.370746 4.81726,-2.595113 4.81726,-6.0057671 0,-4.5599124 -2.91253,-7.414503 -8.77196,-7.414503 H 150.1245 V 25.222273 h 6.00467 v -7.748197 h 4.06224 c 2.04886,0 3.1631,0.59315 3.34271,3.262434 0.1796,2.409739 0.46786,3.855472 0.93462,4.485763 z M 156.12917,12.617567 V 6.9084412 h 4.34939 c 2.5888,0 3.88264,1.0009593 3.88264,2.8916541 0,2.1502617 -1.29384,2.8174717 -3.88264,2.8174717 z"
     fill="#121212"
     id="path10"
     style="stroke-width:1.10869" />
  <path
     d="m 177.69321,16.955098 c 0,-2.483911 0.86256,-4.189188 2.91142,-4.189188 2.01338,0 2.91253,1.705277 2.91253,4.189188 0,2.4838 -0.89915,4.189188 -2.91253,4.189188 -2.04886,0 -2.91142,-1.705388 -2.91142,-4.189188 z m 11.68338,0 c 0,-5.116054 -3.5589,-8.7120481 -8.77196,-8.7120481 -5.24854,0 -8.77196,3.5959941 -8.77196,8.7120481 0,5.153084 3.52342,8.711982 8.77196,8.711982 5.21306,0 8.77196,-3.558898 8.77196,-8.711982 z"
     fill="#121212"
     id="path11"
     style="stroke-width:1.10869" />
  <path
     d="m 202.25847,16.806755 c 0,2.520941 -0.71843,4.152158 -2.55221,4.152158 -1.76171,0 -2.3726,-1.22344 -2.3726,-3.447696 V 8.6879232 h -5.82395 V 19.105293 c 0,3.447696 1.33043,6.561787 5.71641,6.561787 2.40808,0 4.16979,-1.075098 5.03235,-2.928718 v 2.483911 h 5.82395 V 8.6879232 h -5.82395 z"
     fill="#121212"
     id="path12"
     style="stroke-width:1.10869" />
  <path
     d="m 211.81982,20.625308 c 0,3.892614 2.5522,5.041772 5.24854,5.041772 2.19299,0 3.59548,-0.556009 4.81726,-1.482874 v -3.892614 c -0.9701,0.407777 -1.76171,0.55612 -2.48014,0.55612 -1.1863,0 -1.83377,-0.55612 -1.83377,-1.964822 v -6.042809 h 4.16978 V 8.6879232 h -4.16978 V 4.1280109 h -3.66644 l -0.53994,2.150206 c -0.3958,1.5199708 -0.89915,2.4097063 -2.51672,2.6692176 l -1.1863,0.185362 v 3.7072845 h 2.15751 z"
     fill="#121212"
     id="path13"
     style="stroke-width:1.10869" />
  <path
     d="m 235.41719,19.327696 c -0.53882,1.297612 -1.54551,1.853621 -3.12761,1.853621 -1.76171,0 -3.19968,-0.963896 -3.34271,-3.00289 h 11.25211 V 16.51018 c 0,-4.485763 -2.84047,-8.2671301 -8.19655,-8.2671301 -4.99687,0 -8.73649,3.7443371 -8.73649,8.9715931 0,5.264285 3.66755,8.452437 8.80855,8.452437 4.24185,0 7.18986,-2.113054 8.01694,-5.894466 z m -6.39936,-4.040845 c 0.2162,-1.557045 1.04328,-2.743345 2.91253,-2.743345 1.72512,0 2.65975,1.260471 2.73182,2.743345 z"
     fill="#121212"
     id="path14"
     style="stroke-width:1.10869" />
  <path
     d="m 255,8.8732852 c -0.3958,-0.3336494 -1.25836,-0.6302353 -2.22958,-0.6302353 -2.12092,0 -3.81057,1.5199708 -4.38598,3.3735911 V 8.6879232 h -5.82395 V 25.222273 h 5.82395 v -7.562824 c 0,-2.780375 1.33043,-3.818442 3.48794,-3.818442 1.11424,0 1.9768,0.222404 2.7673,0.704352 z"
     fill="#121212"
     id="path15"
     style="stroke-width:1.10869" />
</svg>
