<svg xmlns="http://www.w3.org/2000/svg" width="120" height="60" fill-rule="evenodd"><path d="M50.428 29.56c.508.175.925.464 1.253.865s.492.925.492 1.57c0 1.025-.298 1.756-.893 2.194s-1.322.658-2.18.658H45.54a.64.64 0 0 1-.665-.665V25.82a.64.64 0 0 1 .665-.665H49.1c.84 0 1.48.208 1.918.623s.658 1.015.658 1.8c0 .443-.106.838-.318 1.184s-.522.61-.928.796zm-.18-1.772c0-.434-.118-.764-.353-1s-.565-.34-1-.34H46.29v2.7h2.644c.378-.01.692-.132.94-.367s.374-.57.374-1.004zm-1.163 5.787c.508 0 .914-.132 1.218-.395s.457-.658.457-1.184c0-1.025-.58-1.537-1.744-1.537H46.29v3.115h2.797zm12.576-.71l-2.335-5.588-2.128 5.137h-.006l-.845 2.05c-.046.138-.122.245-.228.318s-.224.11-.353.11c-.194 0-.342-.05-.443-.152s-.152-.24-.152-.415c0-.037.01-.11.028-.222l3.53-8.556a.77.77 0 0 1 .27-.339c.115-.078.247-.108.395-.1a.66.66 0 0 1 .374.111c.11.074.19.18.235.318L63.52 34c.028.083.042.17.042.263 0 .185-.062.337-.187.457a.61.61 0 0 1-.436.18.58.58 0 0 1-.353-.118.83.83 0 0 1-.256-.325l-.668-1.584zm11.904.725c.194 0 .353.058.478.173s.187.265.187.45-.065.337-.194.457-.286.18-.47.18h-6.313a.67.67 0 0 1-.491-.201c-.134-.134-.2-.284-.2-.45a.66.66 0 0 1 .152-.415l5.65-7.366h-4.638a.66.66 0 0 1-.478-.18c-.125-.12-.187-.272-.187-.457s.062-.335.187-.45.284-.173.478-.173h5.926c.185 0 .35.062.498.187s.222.28.222.464c0 .13-.05.268-.152.415l-5.65 7.366h4.998zm11.098 0c.194 0 .353.058.478.173s.187.265.187.45-.065.337-.194.457-.286.18-.47.18H78.35a.67.67 0 0 1-.492-.201c-.134-.134-.2-.284-.2-.45a.66.66 0 0 1 .152-.415l5.65-7.366H78.82a.66.66 0 0 1-.478-.18c-.125-.12-.187-.272-.187-.457s.062-.335.187-.45.284-.173.478-.173h5.926c.185 0 .35.062.498.187s.22.28.22.464c0 .13-.05.268-.152.415l-5.65 7.366h4.998zm6.016.58c0 .194-.07.355-.208.485s-.3.194-.485.194c-.203 0-.367-.065-.492-.194a.67.67 0 0 1-.187-.485v-8.35a.64.64 0 0 1 .194-.471c.13-.13.295-.194.498-.194.185 0 .344.065.478.194a.63.63 0 0 1 .201.471v8.35zm10.738-9.013c.194 0 .353.058.478.173s.187.27.187.464a.58.58 0 0 1-.187.457c-.125.11-.284.166-.478.166h-2.464v7.767a.63.63 0 0 1-.201.471c-.134.13-.302.194-.505.194s-.372-.065-.505-.194a.63.63 0 0 1-.201-.471v-7.767h-2.45c-.194 0-.353-.058-.478-.173s-.187-.27-.187-.464c0-.185.062-.335.187-.45s.284-.173.478-.173zm9.893 8.418c.194 0 .353.065.478.194s.187.282.187.457c0 .185-.062.335-.187.45s-.284.173-.478.173h-4.818a.64.64 0 0 1-.665-.665V25.82a.64.64 0 0 1 .665-.665h4.818a.66.66 0 0 1 .478.18c.125.12.187.277.187.47 0 .185-.062.335-.187.45s-.284.173-.478.173h-4.112v2.824h3.49a.66.66 0 0 1 .478.18c.125.12.187.272.187.457a.58.58 0 0 1-.187.457c-.125.11-.284.166-.478.166h-3.49v3.06z" fill="#1b2833"/><path d="M8.027 38.136v-5.332c.01-.024.023-.048.026-.073.046-.325.203-.6.443-.805.252-.226.548-.338.9-.338l16.522.001a9.47 9.47 0 0 0 1.396-.096 7.25 7.25 0 0 0 1.282-.307 5.95 5.95 0 0 0 1.976-1.126l.065-.06-.058-.053a5.99 5.99 0 0 0-2.159-1.19c-.767-.24-1.555-.343-2.355-.343l-16.63-.002a2 2 0 0 1-.245-.014 1.37 1.37 0 0 1-1.123-1.105c-.005-.032-.02-.063-.03-.094v-5.332l.028-.088.04-.176a1.37 1.37 0 0 1 1.98-.783c.346.198.594.48.685.88.023.102.032.2.033.315l.002 3.648c0 .028.003.056.005.1h15.647a10 10 0 0 1 1.795.16 8.78 8.78 0 0 1 1.916.576 8.37 8.37 0 0 1 2.016 1.24l.064.048.038-.1c.314-.766.466-1.566.503-2.4a8.85 8.85 0 0 0-.023-1.183 6.94 6.94 0 0 0-.22-1.257 5.6 5.6 0 0 0-3.015-3.637c-.67-.336-1.388-.526-2.128-.633-.463-.066-.93-.095-1.396-.095H9.44a1.72 1.72 0 0 1-.245-.013c-.568-.082-1.047-.56-1.138-1.128-.004-.027-.018-.053-.028-.08v-.23c.01-.027.023-.053.027-.08a1.33 1.33 0 0 1 1.062-1.107l.14-.027H26.74c.03.005.06.012.092.013.36.006.72.04 1.08.087a9.39 9.39 0 0 1 1.307.264c1.366.38 2.56 1.06 3.57 2.056.968.954 1.663 2.077 2.086 3.368.284.866.435 1.756.47 2.664a12.7 12.7 0 0 1-.02 1.538 10.99 10.99 0 0 1-.174 1.265 9.64 9.64 0 0 1-1.047 2.854c-.027.048-.027.082 0 .13.812 1.46 1.2 3.03 1.246 4.696l-.04 1.486c-.046.458-.115.912-.22 1.36a8.38 8.38 0 0 1-1.274 2.92c-.87 1.253-2 2.213-3.386 2.844-.844.382-1.73.608-2.65.72a11.53 11.53 0 0 1-1.376.083H9.427a1.88 1.88 0 0 1-.316-.028c-.472-.08-.977-.498-1.058-1.096-.004-.03-.02-.058-.028-.087v-.23l.03-.087c.01-.037.014-.076.023-.113.15-.6.704-1.023 1.314-1.023h16.58a12.36 12.36 0 0 0 .902-.036 7.76 7.76 0 0 0 1.134-.17c.578-.128 1.135-.316 1.66-.594 1.237-.658 2.135-1.627 2.658-2.932.287-.716.42-1.465.454-2.232a8.56 8.56 0 0 0-.082-1.685 6.81 6.81 0 0 0-.388-1.462l-.07-.173-.06.048a8.39 8.39 0 0 1-.736.546c-1.216.805-2.558 1.243-4.003 1.384a10.87 10.87 0 0 1-1.06.048H10.875l-.08.004v3.738c0 .226-.044.44-.158.637-.274.47-.835.856-1.564.688-.558-.13-.957-.62-1.018-1.1-.003-.028-.018-.054-.027-.08z" fill="#2196f3"/></svg>