<svg xmlns="http://www.w3.org/2000/svg" width="64" height="64"><path d="M1.15 50.367V38.33c.02-.055.052-.108.06-.164.103-.733.458-1.33 1-1.817.57-.5 1.236-.763 2.007-.763l37.3.001a21.38 21.38 0 0 0 3.152-.217 16.26 16.26 0 0 0 2.894-.694c1.648-.565 3.14-1.404 4.46-2.543l.147-.135-.13-.12c-1.435-1.24-3.066-2.123-4.874-2.687-1.73-.54-3.5-.774-5.317-.775l-37.545-.004c-.184 0-.37-.008-.552-.032a3.08 3.08 0 0 1-2.534-2.495c-.01-.072-.044-.14-.066-.212V13.636l.064-.198.1-.397c.634-1.982 2.858-2.688 4.47-1.767.78.446 1.342 1.085 1.546 1.985a3.28 3.28 0 0 1 .074.711l.004 8.237c0 .063.008.125.012.202h35.325a22.72 22.72 0 0 1 4.053.359 19.62 19.62 0 0 1 4.325 1.3 18.9 18.9 0 0 1 4.552 2.8l.144.1.086-.2c.708-1.73 1.052-3.535 1.135-5.395.04-.9.027-1.782-.053-2.672-.086-.96-.237-1.908-.498-2.837-1.05-3.746-3.337-6.473-6.806-8.2-1.514-.76-3.132-1.188-4.803-1.428-1.045-.15-2.097-.213-3.153-.213-12.46 0-24.92 0-37.382-.001-.184 0-.37-.002-.553-.03-1.283-.185-2.364-1.26-2.57-2.547-.01-.062-.04-.12-.063-.18V2.74c.02-.06.053-.12.06-.18C1.388 1.176 2.56.236 3.608.06c.105-.018.2-.04.315-.06h39.472c.07.01.138.028.207.03a21.77 21.77 0 0 1 2.436.196 21.32 21.32 0 0 1 2.95.596c3.083.858 5.777 2.393 8.06 4.64a18.7 18.7 0 0 1 4.71 7.603c.64 1.954.982 3.964 1.063 6.015.046 1.156.05 2.315-.045 3.47a25.19 25.19 0 0 1-.393 2.856 21.76 21.76 0 0 1-2.363 6.444.26.26 0 0 0 0 .296c1.834 3.296 2.733 6.842 2.813 10.602.024 1.12.02 2.24-.1 3.356a24.29 24.29 0 0 1-.495 3.07c-.55 2.375-1.482 4.587-2.875 6.592-1.966 2.83-4.495 4.997-7.644 6.42-1.905.862-3.907 1.373-5.98 1.623a26.032 26.032 0 0 1-3.106.188H4.314a4.25 4.25 0 0 1-.713-.063c-1.066-.183-2.205-1.125-2.4-2.475-.01-.067-.042-.13-.063-.196v-.522c.022-.066.048-.13.064-.198.02-.084.03-.17.052-.255.338-1.335 1.6-2.3 2.966-2.3l37.43-.003a28.77 28.77 0 0 0 2.036-.08 17.59 17.59 0 0 0 2.56-.382c1.305-.3 2.563-.713 3.745-1.342 2.793-1.486 4.82-3.673 6-6.62.648-1.616.947-3.307 1.024-5.04.057-1.273.01-2.543-.185-3.804a15.36 15.36 0 0 0-.875-3.3l-.16-.4-.14.107a18.936 18.936 0 0 1-1.662 1.234c-2.744 1.816-5.776 2.805-9.037 3.125a24.54 24.54 0 0 1-2.394.108l-34.998.01c-.053 0-.106.005-.18.008v8.438c0 .5-.1.995-.357 1.438-.618 1.06-1.885 1.933-3.53 1.553-1.26-.3-2.16-1.398-2.297-2.482-.008-.063-.04-.122-.06-.182z" fill="#2196f3" fill-rule="evenodd"/></svg>