<?xml version="1.0" encoding="UTF-8" standalone="no"?>
<svg
   xmlns:dc="http://purl.org/dc/elements/1.1/"
   xmlns:cc="http://creativecommons.org/ns#"
   xmlns:rdf="http://www.w3.org/1999/02/22-rdf-syntax-ns#"
   xmlns:svg="http://www.w3.org/2000/svg"
   xmlns="http://www.w3.org/2000/svg"
   xmlns:sodipodi="http://sodipodi.sourceforge.net/DTD/sodipodi-0.dtd"
   xmlns:inkscape="http://www.inkscape.org/namespaces/inkscape"
   width="64"
   height="64"
   viewBox="0 0 64 64"
   version="1.1"
   id="svg8"
   sodipodi:docname="bazzite-icon.svg"
   inkscape:version="0.92.3 (2405546, 2018-03-11)">
  <metadata
     id="metadata14">
    <rdf:RDF>
      <cc:Work
         rdf:about="">
        <dc:format>image/svg+xml</dc:format>
        <dc:type
           rdf:resource="http://purl.org/dc/dcmitype/StillImage" />
        <dc:title></dc:title>
      </cc:Work>
    </rdf:RDF>
  </metadata>
  <defs
     id="defs12" />
  <sodipodi:namedview
     pagecolor="#ffffff"
     bordercolor="#666666"
     borderopacity="1"
     objecttolerance="10"
     gridtolerance="10"
     guidetolerance="10"
     inkscape:pageopacity="0"
     inkscape:pageshadow="2"
     inkscape:window-width="1920"
     inkscape:window-height="1001"
     id="namedview10"
     showgrid="false"
     inkscape:zoom="5.5066004"
     inkscape:cx="45.333999"
     inkscape:cy="20.77467"
     inkscape:window-x="-9"
     inkscape:window-y="-9"
     inkscape:window-maximized="1"
     inkscape:current-layer="svg8" />
  <path
     style="fill:#2196f3;fill-rule:evenodd;stroke-width:0.13592172"
     inkscape:connector-curvature="0"
     id="path4"
     d="M 1.1494277,50.367232 V 38.329735 c 0.020431,-0.05461 0.051782,-0.107913 0.059655,-0.164308 0.1031472,-0.733298 0.4576459,-1.328908 1.0010608,-1.817138 0.5692414,-0.51134 1.2362082,-0.763471 2.0066142,-0.763335 12.4335743,0.0027 24.8668733,0.002 37.3004443,0.0014 1.055437,0 2.106787,-0.06102 3.152026,-0.216526 0.985435,-0.146518 1.951157,-0.370532 2.893502,-0.693743 1.64764,-0.565161 3.139517,-1.404343 4.460133,-2.543096 0.04811,-0.04145 0.0938,-0.08563 0.146788,-0.134553 -0.05219,-0.04811 -0.09051,-0.08549 -0.131053,-0.120442 -1.434925,-1.240054 -3.066395,-2.122729 -4.874019,-2.68694 -1.731234,-0.540425 -3.509903,-0.77421 -5.317253,-0.775023 -12.514857,-0.0052 -25.029982,-0.0027 -37.5449733,-0.0041 -0.184188,0 -0.369701,-0.0084 -0.552249,-0.03217 C 2.506555,28.216437 1.3994743,27.122522 1.2157066,25.884954 1.2051185,25.812666 1.1719499,25.743471 1.1493898,25.672899 V 13.635675 c 0.021583,-0.06619 0.047315,-0.131166 0.063592,-0.198465 0.032175,-0.131731 0.048261,-0.268182 0.089444,-0.396621 0.6342104,-1.981739 2.8584329,-2.687711 4.4707369,-1.766572 0.781008,0.446229 1.341954,1.085063 1.546246,1.984865 0.05247,0.231086 0.07288,0.473551 0.07367,0.710869 0.0061,1.658246 0.0034,3.316354 0.0034,4.974598 0,1.087375 0,2.17475 5.44e-4,3.261984 0,0.06254 0.0077,0.125319 0.01219,0.201558 h 0.258785 c 11.6887203,0 23.3774433,2.71e-4 35.0661663,-2.73e-4 1.361934,0 2.712725,0.116628 4.053185,0.359102 1.491195,0.269659 2.93455,0.696872 4.325029,1.300366 1.650767,0.716307 3.16643,1.652398 4.552019,2.799983 0.04323,0.03596 0.08972,0.06795 0.143673,0.10859 0.03484,-0.08168 0.06091,-0.140964 0.08552,-0.201174 0.708424,-1.728653 1.051623,-3.535323 1.134538,-5.394731 0.03967,-0.890696 0.02687,-1.781935 -0.05274,-2.671543 -0.0862,-0.960012 -0.237445,-1.908475 -0.49761,-2.836685 -1.050127,-3.746001 -3.336873,-6.4725926 -6.80587,-8.2114386 -1.514437,-0.758985 -3.132453,-1.187955 -4.803201,-1.427994 -1.045104,-0.15004 -2.096863,-0.21341 -3.152703,-0.21341 -12.460623,4.04e-4 -24.921378,4.04e-4 -37.3820013,-8.18e-4 -0.184452,0 -0.371063,-0.0025 -0.553063,-0.02876 -1.2829678,-0.184875 -2.3636806,-1.261081 -2.5687855,-2.546763 -0.00984,-0.06186 -0.041183,-0.120285 -0.062531,-0.180246 v -0.521938 c 0.020815,-0.06008 0.052993,-0.118817 0.060903,-0.18063 0.1777901,-1.383413 1.3505182,-2.32331105 2.3969785,-2.49878705 0.105342,-0.01784 0.210004,-0.04034 0.314929,-0.060749996945 H 43.394327 C 43.463227,0.01015135 43.532154,0.02801135 43.601191,0.02914135 c 0.816075,0.014 1.626982,0.0908 2.435716,0.196004 0.997667,0.129789 1.98133,0.326891 2.950314,0.596423 3.083111,0.85766705 5.777218,2.39276705 8.058801,4.64118405 2.184803,2.153 3.754973,4.6879376 4.710229,7.6034586 0.640191,1.954284 0.981765,3.964159 1.063451,6.014538 0.04608,1.156012 0.04879,2.314745 -0.04538,3.471166 -0.07816,0.959473 -0.205803,1.911333 -0.392948,2.855577 -0.450445,2.271663 -1.230771,4.422486 -2.362728,6.443643 -0.06116,0.109425 -0.06116,0.185935 -1.36e-4,0.29551 1.833857,3.295697 2.732572,6.841892 2.813037,10.601893 0.02422,1.119317 0.02122,2.239041 -0.09134,3.355774 -0.104391,1.03368 -0.259587,2.05826 -0.494752,3.070199 -0.551435,2.374955 -1.481546,4.586675 -2.875152,6.5922 -1.966381,2.829619 -4.495476,4.996754 -7.643964,6.42067 -1.905488,0.86188 -3.907069,1.373351 -5.980013,1.622906 a 26.031723,26.031723 0 0 1 -3.106219,0.187561 c -12.775279,0.0032 -25.550695,0.0027 -38.3261133,-5.44e-4 -0.23771,0 -0.478305,-0.0231 -0.712772,-0.06321 -1.0658975,-0.18282 -2.2054663,-1.124752 -2.3885526,-2.474996 -0.00908,-0.06701 -0.041865,-0.130895 -0.063477,-0.19614 V 60.74102 c 0.021583,-0.06579 0.047694,-0.130466 0.064425,-0.197517 0.021199,-0.08414 0.03066,-0.171125 0.052047,-0.255121 0.3383215,-1.335022 1.5891942,-2.308765 2.9655386,-2.308765 12.4770693,-1.38e-4 24.9540003,0.0012 37.4310693,-0.0034 0.678655,-2.74e-4 1.358672,-0.03179 2.035835,-0.08048 0.86188,-0.06211 1.715467,-0.194379 2.559947,-0.381531 1.304987,-0.289381 2.563214,-0.712637 3.74478,-1.341548 2.79292,-1.486168 4.819783,-3.673011 6.00081,-6.620199 0.647665,-1.615839 0.946966,-3.306572 1.023895,-5.038618 0.05667,-1.273044 0.0095,-2.542555 -0.184874,-3.804451 -0.174264,-1.13182 -0.455881,-2.234142 -0.874926,-3.300176 -0.04922,-0.125432 -0.102089,-0.249407 -0.159702,-0.38969 -0.05493,0.04228 -0.098,0.07339 -0.138775,0.107394 a 18.935795,18.935795 0 0 1 -1.661912,1.233626 c -2.744259,1.81632 -5.775585,2.805422 -9.037028,3.124976 -0.795551,0.07791 -1.593683,0.108071 -2.393578,0.108071 -11.394997,-0.0016 -22.790129,-0.0011 -34.1852593,-0.0011 -0.271853,0 -0.543688,-4.09e-4 -0.815529,4.08e-4 -0.05303,1.38e-4 -0.105881,0.005 -0.17984,0.0084 v 0.234607 c 0,2.734611 -4.04e-4,5.469219 4.09e-4,8.203827 1.37e-4,0.509706 -0.09895,0.995355 -0.357475,1.438054 -0.61817,1.058827 -1.884687,1.933347 -3.531242,1.55331 -1.2587728,-0.290591 -2.1595258,-1.397954 -2.2974849,-2.481931 -0.00756,-0.06254 -0.040086,-0.121504 -0.06117,-0.181872 z" />
</svg>
