<svg version="1.1" id="Layer_1" xmlns="http://www.w3.org/2000/svg" x="0" y="0" width="64" height="64" xml:space="preserve"><style>.st1{fill-rule:evenodd;clip-rule:evenodd;fill:#fefefe}</style><path id="Fill-1" d="M32 0C14.3 0 0 14.3 0 32s14.3 32 32 32 32-14.3 32-32C63.9 14.3 49.6 0 32 0" fill-rule="evenodd" clip-rule="evenodd" fill="#e21e2a"/><path class="st1" d="M26 24.4c-.7-.3-1.5.1-1.8.8l-4.9 13.9c-.3.7.1 1.5.8 1.8.1 0 .3.1.4.1.5 0 1.1-.4 1.2-1l4.9-13.9c.5-.7 0-1.5-.6-1.7M34.9 24.4c-.7-.3-1.5.1-1.8.8l-4.9 13.9c-.3.7.1 1.5.8 1.8.1 0 .3.1.4.1.5 0 1.1-.4 1.2-1l4.9-13.9c.5-.7.1-1.5-.6-1.7M45.2 24.4c-.7-.3-1.5.1-1.8.8l-4.9 13.9c-.3.7.1 1.5.8 1.8.1 0 .3.1.4.1.5 0 1.1-.4 1.2-1l4.9-13.9c.3-.7.1-1.5-.6-1.7"/></svg>