<svg xmlns="http://www.w3.org/2000/svg" width="120" height="60"><defs><linearGradient id="A" x1="142.819" y1="831.523" x2="142.819" y2="878.907" gradientUnits="userSpaceOnUse"><stop offset="0" stop-color="#fff"/><stop offset="1" stop-color="#fff" stop-opacity="0"/></linearGradient><radialGradient id="B" cx="116.52" cy="98.282" fx="116.52" fy="98.282" r="55.859" gradientTransform="matrix(0.97442557,1.5088911,-0.83559154,0.53961599,79.641615,-130.28522)" gradientUnits="userSpaceOnUse"><stop offset="0"/><stop offset="1" stop-opacity=".897"/></radialGradient></defs><g transform="matrix(.253404 0 0 .253404 .102215 1.65925)"><path d="M118.216 55.86c-30.85 0-55.875 24.87-55.875 55.562s25.024 55.562 55.875 55.562c10.095 0 19.546-2.653 27.72-7.312l2.906 7.313h22.53l-8.812-21.78c7.215-9.362 11.5-21.072 11.5-33.78 0-30.692-24.993-55.562-55.844-55.562z" fill="url(#B)"/><ellipse ry="24.643" rx="35.357" cy="856.291" cx="142.5" transform="matrix(1.046508 0 0 1.292046 -31.641235 -1016.8612)" fill="url(#A)"/><circle r="6.566" cy="78.789" cx="123.332"/><path d="M111.35 81.924l37.258 5.376-1.044 5.4-37.258-5.376z"/><path d="M144.925 89.017h6.566v2.904h-6.566z"/><path d="M103.388 65.01c-.057 2.185-3.866.283-4.03 2.78-4.224-1.88.33 2.872-.094 3.313h-.03l-.312-.03c-.204-.073-.5-.2-.937-.47-2.95 2.35-3.022 7.234-6.062 9.938-1.995 4.305-2.48 8.983-3.937 13.47-.718 4.303-1.35 8.598-.28 12.906.32 3.502-.69 8.26 2.5 10.72 4.727 3.883 8.656 8.795 12.625 13.47 6.22 7.653 11.73 15.863 16.594 24.438.324-2.118 1.1 4.265 2.53 4.688-.492-3.192-1.132-8.263-1.437-12.187-1.58-10.29-6.653-19.65-8.562-29.844l-.187-1.312v-1.28h-.156c-.626-5.043-.85-10.465 2.813-14.406 3.74-3.772 9.306-4.722 13.813-7.344 1.002-.59 2.05-1.072 3.125-1.406.01-.003.023.003.03 0 3.117-.963 6.45-.933 9.688-.406.048.008.108.023.156.03l.906.156c2.37.21 7.145 1.137 8-.5-3.272-2.786-7.985-2.592-11.97-3.687-.63-.115-1.412-.24-2.187-.312l-3.906-.875-.97-.25v.03l-13.97-2.72c-.222-.202-.464-.41-.687-.562l13.625 1.688v-.062c.48.107.956.194 1.438.25v.03l9.625 1.78c1.66.62 3.432 1.084 5.094 1.188 2.743.4 6.225 4.49 7.125 4.688-.44-4.307-4.742-6.236-8.312-7.5-4.17-2.028-10.402-1.954-11.062-7.562-.176-.39-.35-.78-.562-1.156l-1.625-2.156.063-.03c-2.217-2.617-5.34-4.522-8.656-5.25-3.29-1.136-6.988-2.267-10.47-2.72-1.18 3.478-2.503-2.756-5.344-.906-2.5.295-2.146.953-4-.625zm17.906 10.156c.902-.024 1.933.142 2.97.5 2.763.954 4.562 2.965 4.03 4.5s-3.206 1.986-5.97 1.03-4.56-2.934-4.03-4.47c.33-.96 1.497-1.523 3-1.562z" fill="#f60"/><text y="166.374" x="184.894" xml:space="preserve" font-weight="bold" font-family="sans-serif" letter-spacing="0" word-spacing="0" writing-mode="lr-tb"><tspan y="166.374" x="184.894" font-size="95.541">EMU</tspan></text></g></svg>