<?xml version="1.0" encoding="UTF-8" standalone="no"?>
<!-- Created with Inkscape (http://www.inkscape.org/) -->

<svg
   xmlns:dc="http://purl.org/dc/elements/1.1/"
   xmlns:cc="http://creativecommons.org/ns#"
   xmlns:rdf="http://www.w3.org/1999/02/22-rdf-syntax-ns#"
   xmlns:svg="http://www.w3.org/2000/svg"
   xmlns="http://www.w3.org/2000/svg"
   xmlns:xlink="http://www.w3.org/1999/xlink"
   xmlns:sodipodi="http://sodipodi.sourceforge.net/DTD/sodipodi-0.dtd"
   xmlns:inkscape="http://www.inkscape.org/namespaces/inkscape"
   version="1.0"
   width="120"
   height="60"
   id="svg2424"
   sodipodi:docname="archlinux-ar21.svg"
   inkscape:version="0.92.3 (2405546, 2018-03-11)">
  <metadata
     id="metadata34">
    <rdf:RDF>
      <cc:Work
         rdf:about="">
        <dc:format>image/svg+xml</dc:format>
        <dc:type
           rdf:resource="http://purl.org/dc/dcmitype/StillImage" />
        <dc:title></dc:title>
      </cc:Work>
    </rdf:RDF>
  </metadata>
  <sodipodi:namedview
     pagecolor="#ffffff"
     bordercolor="#666666"
     borderopacity="1"
     objecttolerance="10"
     gridtolerance="10"
     guidetolerance="10"
     inkscape:pageopacity="0"
     inkscape:pageshadow="2"
     inkscape:window-width="1920"
     inkscape:window-height="1001"
     id="namedview32"
     showgrid="false"
     inkscape:zoom="4.52"
     inkscape:cx="69.250198"
     inkscape:cy="28.683867"
     inkscape:window-x="-9"
     inkscape:window-y="-9"
     inkscape:window-maximized="1"
     inkscape:current-layer="svg2424" />
  <defs
     id="defs2426">
    <linearGradient
       x1="112.49854"
       y1="6.1372099"
       x2="112.49853"
       y2="129.3468"
       id="path1082_2_"
       gradientUnits="userSpaceOnUse"
       gradientTransform="translate(287,-83)">
      <stop
         id="stop193"
         style="stop-color:#ffffff;stop-opacity:0"
         offset="0" />
      <stop
         id="stop195"
         style="stop-color:#ffffff;stop-opacity:0.27450982"
         offset="1" />
      <midPointStop
         offset="0"
         style="stop-color:#FFFFFF"
         id="midPointStop197" />
      <midPointStop
         offset="0.5"
         style="stop-color:#FFFFFF"
         id="midPointStop199" />
      <midPointStop
         offset="1"
         style="stop-color:#000000"
         id="midPointStop201" />
    </linearGradient>
    <linearGradient
       x1="541.33502"
       y1="104.50665"
       x2="606.91248"
       y2="303.14029"
       id="linearGradient2544"
       xlink:href="#path1082_2_"
       gradientUnits="userSpaceOnUse"
       gradientTransform="matrix(-0.3937741,0,0,0.393752,357.51969,122.00151)" />
    <linearGradient
       id="linearGradient3388">
      <stop
         id="stop3390"
         style="stop-color:#000000;stop-opacity:0"
         offset="0" />
      <stop
         id="stop3392"
         style="stop-color:#000000;stop-opacity:0.37113401"
         offset="1" />
    </linearGradient>
    <linearGradient
       x1="490.72305"
       y1="237.72447"
       x2="490.72305"
       y2="183.9644"
       id="linearGradient4416"
       xlink:href="#linearGradient3388"
       gradientUnits="userSpaceOnUse"
       gradientTransform="matrix(0.749107,0,0,0.749107,-35.459862,91.44108)" />
  </defs>
  <g
     id="g901"
     transform="matrix(0.18232946,0,0,0.18232946,5.8520057,37.238146)">
    <path
       d="m 201.53206,-71.469711 c -8.07351,-0.01333 -14.7737,1.642255 -17.36445,2.545391 l -2.66743,14.400634 c -0.006,0.05306 13.27532,-3.541816 19.1253,-3.329928 9.68592,0.348019 10.57738,3.701854 10.40821,8.228934 0.1651,0.264787 -2.49899,-4.090433 -10.87893,-4.236507 -10.57187,-0.182358 -25.49176,3.743172 -25.47134,19.700627 -0.28501,17.949743 13.4082,23.230041 22.73417,23.326936 8.38415,-0.152662 12.31701,-3.175175 14.47037,-4.7944 2.82921,-2.958154 6.06603,-5.932906 9.15295,-9.50163 -2.92095,5.307122 -5.45326,8.9764 -8.08946,11.785508 v 2.371048 l 12.74438,-2.144404 0.0872,-34.641721 c -0.1291,-4.902988 2.81248,-23.664891 -24.25094,-23.710488 z m -1.83059,30.161136 c 5.28263,0.0725 11.3408,2.676261 11.34965,8.943735 0.0273,5.700677 -7.14107,8.765534 -11.80294,8.717092 -4.66386,-0.04843 -10.85156,-3.665262 -10.87893,-9.222683 0.0893,-4.967732 5.83531,-8.566002 11.33222,-8.438144 z"
       id="path2284"
       style="fill:#4d4d4d;fill-opacity:1;fill-rule:evenodd;stroke:none;stroke-width:0.55789381"
       inkscape:connector-curvature="0" />
    <path
       d="m 234.18687,-68.268683 -0.0865,57.36651 14.84674,-2.860455 0.025,-32.526087 c 0.003,-4.843015 6.92098,-10.502078 15.60022,-10.4119 1.84218,-3.332903 5.30485,-11.850887 6.14848,-13.788425 -19.39043,-0.04647 -19.63729,5.573321 -23.00976,8.337819 -0.0352,-5.273687 -0.0119,-8.439489 -0.0119,-8.439489 l -13.5123,2.322027 z"
       id="path2286"
       style="fill:#4d4d4d;fill-opacity:1;fill-rule:evenodd;stroke:none;stroke-width:0.55789381"
       inkscape:connector-curvature="0" />
    <path
       d="m 317.74137,-60.737602 c -0.14336,-0.06733 -7.74322,-8.889586 -23.02226,-8.959161 -14.31136,-0.237875 -30.36381,5.310563 -30.62073,29.307725 0.12528,21.09872 15.4203,29.344151 30.70168,29.504924 16.35349,0.169885 22.86056,-10.225898 23.25086,-10.483517 -1.9513,-1.69159 -9.25987,-8.933609 -9.25987,-8.933609 0,0 -4.56489,6.500032 -13.42182,6.582662 -8.85903,0.08435 -16.55966,-6.847171 -16.66878,-16.518707 -0.11353,-9.67162 7.079,-14.911504 16.73528,-15.334756 8.35985,-0.0017 13.18286,5.396697 13.18286,5.396697 z"
       id="path2288"
       style="fill:#4d4d4d;fill-opacity:1;fill-rule:evenodd;stroke:none;stroke-width:0.55789381"
       inkscape:connector-curvature="0" />
    <path
       d="m 336.45519,-88.346 -14.01708,3.295061 0.10461,74.722906 13.80787,-2.493088 0.15691,-35.164746 c 0.0295,-3.687271 5.33417,-9.349832 14.19142,-9.17038 8.46868,0.08801 10.36141,5.644586 10.33847,6.346042 l 0.24408,40.708817 13.6161,-2.405918 0.0523,-43.167036 c 0.0897,-4.153737 -9.09831,-12.926143 -23.86739,-12.988466 -7.01879,0.01127 -10.9058,1.600179 -12.88386,2.772036 -3.3845,2.614095 -7.25251,5.118915 -11.05328,8.316105 3.51367,-4.513914 6.46349,-7.634867 9.34473,-9.954919 L 336.45517,-88.346 Z"
       id="path2290"
       style="fill:#4d4d4d;fill-opacity:1;fill-rule:evenodd;stroke:none;stroke-width:0.55789381"
       inkscape:connector-curvature="0" />
    <path
       d="m 386.77685,-86.407037 6.32229,-1.582316 0.29915,75.333275 -6.42342,1.093774 z"
       id="path2292"
       style="fill:#1793d1;fill-opacity:1;fill-rule:evenodd;stroke:none;stroke-width:0.82595104"
       inkscape:connector-curvature="0" />
    <path
       d="m 403.9666,-63.923428 5.54079,-2.466868 0.0474,54.016627 -5.3512,1.106072 z m -1.31683,-19.478535 4.46772,-3.646846 3.7113,4.129358 -4.46959,3.743384 z"
       id="path2294"
       style="fill:#1793d1;fill-opacity:1;fill-rule:evenodd;stroke:none;stroke-width:0.82595104"
       inkscape:connector-curvature="0" />
    <path
       d="m 419.92662,-64.907491 6.32303,-1.290143 0.0299,11.292567 c 0.001,0.484974 3.47168,-12.615278 20.21422,-12.323966 16.25588,0.09046 18.91525,12.675326 18.82723,15.496799 l 0.20051,39.710321 -5.54199,1.202841 -0.0321,-39.223588 c 0.0642,-1.145462 -2.53321,-10.831861 -14.02073,-10.867484 -11.48539,-0.03337 -19.44347,8.342502 -19.42933,13.693748 l 0.0915,34.553471 -6.42188,1.677754 z"
       id="path2296"
       style="fill:#1793d1;fill-opacity:1;fill-rule:evenodd;stroke:none;stroke-width:0.82595104"
       inkscape:connector-curvature="0" />
    <path
       d="m 520.6937,-11.736159 -6.32307,1.29002 -0.0298,-11.292386 c -10e-4,-0.48518 -3.47384,12.6152541 -20.21424,12.3238999 -16.25585,-0.090392 -18.91523,-12.6752589 -18.82721,-15.4967329 l -0.20054,-39.710577 6.71788,-1.356426 0.10373,39.224315 c 0.003,1.07111 1.28572,10.984975 12.77321,11.020334 11.48542,0.03345 19.53186,-6.916175 19.58886,-17.381446 l -0.0819,-30.947575 6.25283,-1.595696 z"
       id="path2298"
       style="fill:#1793d1;fill-opacity:1;fill-rule:evenodd;stroke:none;stroke-width:0.82595104"
       inkscape:connector-curvature="0" />
    <path
       d="m 533.08542,-65.352976 -4.43347,3.469135 16.99814,22.24557 -18.13011,25.700474 4.70362,3.490469 17.04327,-23.867259 17.58988,24.4329444 4.35096,-3.4698454 -18.85098,-26.123724 15.03865,-21.125762 -4.62444,-3.910292 -13.69936,19.548428 z"
       id="path2300"
       style="fill:#1793d1;fill-opacity:1;fill-rule:evenodd;stroke:none;stroke-width:0.82595104"
       inkscape:connector-curvature="0" />
    <path
       inkscape:connector-curvature="0"
       style="fill:#1793d1;fill-opacity:1;fill-rule:evenodd;stroke:none"
       id="path2518"
       d="m 105.8125,-122.79192 c -7.39687,18.13516 -11.858304,29.997682 -20.09375,47.59375 5.04936,5.35232 11.247211,11.585364 21.3125,18.625 C 96.210077,-61.026016 88.828713,-65.496568 83.3125,-70.13567 72.7727,-48.142757 56.259864,-16.81483 22.75,43.39558 49.087628,28.19041 69.504089,18.81626 88.53125,15.23933 87.714216,11.72528 87.2497,7.92415 87.28125,3.95808 L 87.3125,3.11433 c 0.417917,-16.87382 9.195665,-29.84979 19.59375,-28.96875 10.39809,0.88104 18.48041,15.28242 18.0625,32.15625 -0.0786,3.17512 -0.43674,6.22955 -1.0625,9.0625 18.82058,3.68164 39.01873,13.03179 65,28.03125 -5.123,-9.4318 -9.69572,-17.93388 -14.0625,-26.03125 -6.87839,-5.33121 -14.05289,-12.2698 -28.6875,-19.78125 10.05899,2.61375 17.2611,5.62932 22.875,9 -44.39828,-82.661839 -47.99359,-93.645891 -63.21875,-129.375 z" />
  </g>
</svg>
