<?xml version="1.0" encoding="UTF-8" standalone="no"?>
<svg
   xmlns:dc="http://purl.org/dc/elements/1.1/"
   xmlns:cc="http://creativecommons.org/ns#"
   xmlns:rdf="http://www.w3.org/1999/02/22-rdf-syntax-ns#"
   xmlns:svg="http://www.w3.org/2000/svg"
   xmlns="http://www.w3.org/2000/svg"
   xmlns:sodipodi="http://sodipodi.sourceforge.net/DTD/sodipodi-0.dtd"
   xmlns:inkscape="http://www.inkscape.org/namespaces/inkscape"
   version="1.1"
   id="Layer_1"
   x="0px"
   y="0px"
   width="64"
   height="64"
   viewBox="0 0 64 63.999999"
   enable-background="new 0 0 1009 472"
   xml:space="preserve"
   sodipodi:docname="tipeee-icon.svg"
   inkscape:version="0.92.3 (2405546, 2018-03-11)"><metadata
     id="metadata41"><rdf:RDF><cc:Work
         rdf:about=""><dc:format>image/svg+xml</dc:format><dc:type
           rdf:resource="http://purl.org/dc/dcmitype/StillImage" /><dc:title></dc:title></cc:Work></rdf:RDF></metadata><defs
     id="defs39" /><sodipodi:namedview
     pagecolor="#ffffff"
     bordercolor="#666666"
     borderopacity="1"
     objecttolerance="10"
     gridtolerance="10"
     guidetolerance="10"
     inkscape:pageopacity="0"
     inkscape:pageshadow="2"
     inkscape:window-width="1920"
     inkscape:window-height="1001"
     id="namedview37"
     showgrid="false"
     fit-margin-top="0"
     fit-margin-left="0"
     fit-margin-right="0"
     fit-margin-bottom="0"
     inkscape:zoom="3.9917544"
     inkscape:cx="118.80236"
     inkscape:cy="46.307757"
     inkscape:window-x="-9"
     inkscape:window-y="-9"
     inkscape:window-maximized="1"
     inkscape:current-layer="Layer_1" /><g
     id="g836"
     transform="matrix(1.713733,0,0,1.713733,-36.671292,-19.411987)"><path
       style="clip-rule:evenodd;fill:#d84759;fill-rule:evenodd;stroke-width:0.08694013"
       inkscape:connector-curvature="0"
       id="path6"
       d="m 21.398495,21.606826 c 0.0133,-0.0024 0.03425,-4.35e-4 0.03869,-0.0081 0.119456,-0.204484 0.308899,-0.225958 0.521728,-0.219698 0.340545,0.01 0.681437,0.0044 1.022242,0.0018 0.146842,-0.0011 0.158231,-0.0063 0.151189,-0.154928 -0.02495,-0.527987 -0.01174,-1.056322 -0.01904,-1.584397 -0.0044,-0.319852 -0.0087,-0.639879 -0.002,-0.959558 0.009,-0.428528 0.214568,-0.677263 0.623534,-0.799675 1.196818,-0.358367 2.398244,-0.70152 3.580716,-1.106574 0.09798,-0.03365 0.200658,-0.05686 0.302987,-0.07442 0.383319,-0.06573 0.656745,0.137105 0.702476,0.523554 0.01217,0.10285 0.0048,0.208134 0.0048,0.312289 1.73e-4,1.216988 -8.7e-5,2.433975 4.34e-4,3.65105 8.7e-5,0.190834 0.0019,0.193094 0.197876,0.193355 0.834538,8.7e-4 1.66899,2.61e-4 2.503528,6.09e-4 0.06251,0 0.125715,-0.003 0.187443,0.005 0.162578,0.02121 0.276296,0.139018 0.295944,0.302465 0.005,0.04121 0.0031,0.08329 0.0031,0.12502 1.74e-4,1.189167 6.96e-4,2.378334 -2.61e-4,3.567588 -2.61e-4,0.303073 -0.12815,0.429311 -0.430875,0.433397 -0.04173,5.21e-4 -0.08346,8.7e-5 -0.125194,8.7e-5 -0.792807,0 -1.585614,-6.96e-4 -2.378334,3.47e-4 -0.288902,3.48e-4 -0.252909,-0.02756 -0.252996,0.258213 -9.56e-4,1.981974 -6.95e-4,3.963948 -8.7e-5,5.946009 0,0.138756 -0.0011,0.277165 0.0293,0.414791 0.08138,0.367235 0.29977,0.575891 0.669874,0.651442 0.34437,0.07042 0.678307,0.0097 1.011113,-0.06407 0.318984,-0.07068 0.627795,-0.176141 0.927739,-0.306378 0.02547,-0.01113 0.05043,-0.02365 0.07625,-0.03364 0.29238,-0.112675 0.459392,-0.0064 0.471824,0.308463 0.0079,0.201354 0.0019,0.403402 0.0019,0.605017 0,0.938866 0,1.877646 0,2.816512 0,0.401403 -0.166056,0.652747 -0.540507,0.79811 -0.621796,0.241346 -1.256024,0.443308 -1.905119,0.599974 -0.781592,0.188834 -1.572051,0.291076 -2.375465,0.236043 -0.936954,-0.06416 -1.780447,-0.361671 -2.447278,-1.056758 -0.510686,-0.53216 -0.800545,-1.179864 -0.963644,-1.889122 -0.09372,-0.407314 -0.133801,-0.820801 -0.132932,-1.240288 0.004,-2.051613 0.0023,-4.103052 0.0016,-6.154665 -1.74e-4,-0.563285 -0.0037,-1.126483 -0.0062,-1.689681 -8.69e-4,-0.199093 -0.0015,-0.199789 -0.208047,-0.200223 -0.333763,-6.09e-4 -0.667874,-0.0073 -1.001377,0.0025 -0.202396,0.0059 -0.371843,-0.0333 -0.48443,-0.216829 -0.0092,-0.01504 -0.0346,-0.02026 -0.05251,-0.03008 0,-1.321664 0,-2.643154 0,-3.964644 z" /><path
       style="clip-rule:evenodd;fill:#d8485a;fill-rule:evenodd;stroke-width:0.08694013"
       inkscape:connector-curvature="0"
       id="path8"
       d="m 37.757237,15.430599 c 0.366887,0.0459 0.719169,0.135888 1.049976,0.309855 0.966165,0.508078 1.526495,1.576398 1.425383,2.665323 -0.125889,1.355919 -1.31323,2.524481 -2.845463,2.442496 -1.490241,-0.07972 -2.49353,-1.292104 -2.562213,-2.545607 -0.07268,-1.324793 0.811152,-2.512222 2.092475,-2.810513 0.08503,-0.01982 0.18214,0.0054 0.255604,-0.06155 0.194659,0 0.389405,0 0.584238,0 z" /><path
       style="clip-rule:evenodd;fill:#d84759;fill-rule:evenodd;stroke-width:0.08694013"
       inkscape:connector-curvature="0"
       id="path10"
       d="m 48.965732,21.865038 c 0.320809,-0.117977 0.62623,-0.229869 0.943561,-0.30316 1.770797,-0.40914 3.43857,-0.149276 4.986104,0.80124 1.537797,0.944518 2.571167,2.310347 3.226957,3.97499 0.346282,0.878791 0.539028,1.792879 0.599626,2.735484 0.116673,1.812789 -0.230218,3.527074 -1.113616,5.119122 -0.774985,1.396693 -1.851999,2.491617 -3.29677,3.204091 -1.073015,0.529118 -2.208627,0.733427 -3.396925,0.644314 -0.598235,-0.04486 -1.17943,-0.180314 -1.742019,-0.392274 -0.06277,-0.02356 -0.122064,-0.0686 -0.195094,-0.05443 -0.04399,0.03156 -0.02904,0.07694 -0.02904,0.115283 -0.0012,0.751076 -0.0014,1.501977 -5.22e-4,2.252966 1.74e-4,0.169881 0.0024,0.171707 0.17049,0.172403 0.305942,0.0015 0.611972,-6.96e-4 0.917914,7.82e-4 0.286902,0.0014 0.41966,0.125889 0.441134,0.411575 0.0037,0.04843 0.0013,0.09729 0.0013,0.145972 0,1.105705 -8.7e-5,2.211322 2.61e-4,3.316853 0,0.09746 8.69e-4,0.194485 -0.02695,0.289424 -0.04738,0.161795 -0.164143,0.258038 -0.330112,0.268036 -0.04156,0.0025 -0.08338,6.09e-4 -0.125107,6.09e-4 -2.517177,0 -5.034442,8.7e-5 -7.55162,-1.74e-4 -0.06251,0 -0.126497,0.0053 -0.187182,-0.0059 -0.145537,-0.02704 -0.263863,-0.165273 -0.282816,-0.323939 -0.0057,-0.04808 -0.003,-0.0972 -0.003,-0.145886 -1.74e-4,-1.161172 -2.61e-4,-2.322518 1.74e-4,-3.483691 8.7e-5,-0.08285 -0.0082,-0.166664 0.02965,-0.245953 0.07346,-0.153971 0.193007,-0.228827 0.364279,-0.227783 0.326808,0.0019 0.653616,0.0014 0.980424,1.74e-4 0.172576,-6.09e-4 0.172663,-0.0021 0.175706,-0.166317 6.08e-4,-0.03469 8.7e-5,-0.06955 8.7e-5,-0.104241 0,-4.596351 2.6e-4,-9.192702 -5.22e-4,-13.789052 -8.7e-5,-0.31142 0.0419,-0.276383 -0.276383,-0.278209 -0.278121,-0.0017 -0.55633,0.0023 -0.834451,-0.0011 -0.311854,-0.0038 -0.438439,-0.133975 -0.4387,-0.449915 -9.56e-4,-1.17517 -9.56e-4,-2.35034 0,-3.525422 2.61e-4,-0.325852 0.13128,-0.463391 0.451132,-0.463652 2.023532,-0.0017 4.046976,-0.0017 6.070508,0 0.317592,4.35e-4 0.416269,0.10711 0.471563,0.507817 z m 5.193717,7.839305 c -0.0018,-0.7163 -0.109545,-1.363656 -0.339675,-1.980583 -0.203962,-0.546767 -0.491212,-1.041369 -0.922087,-1.444597 -0.357237,-0.334285 -0.773159,-0.546419 -1.264197,-0.570589 -0.454523,-0.02234 -0.858012,0.139366 -1.217944,0.41201 -0.437222,0.331329 -0.749859,0.763769 -0.968861,1.258719 -0.640227,1.447205 -0.667874,2.918928 -0.130323,4.401344 0.196658,0.542245 0.498341,1.023024 0.930433,1.413733 0.752032,0.680046 1.71133,0.709692 2.502485,0.07773 0.35941,-0.287077 0.624056,-0.650399 0.833669,-1.055193 0.408097,-0.787677 0.573109,-1.631866 0.5765,-2.512569 z" /><path
       style="clip-rule:evenodd;fill:#d84759;fill-rule:evenodd;stroke-width:0.08694013"
       inkscape:connector-curvature="0"
       id="path12"
       d="m 34.815531,27.371304 c -0.07703,-0.02956 -0.140148,0.0059 -0.205701,0.02547 -0.266037,0.07938 -0.531552,0.160491 -0.798632,0.23639 -0.219176,0.06225 -0.405228,-0.05729 -0.441308,-0.28186 -0.01095,-0.06816 -0.01087,-0.138495 -0.01087,-0.207787 -6.09e-4,-1.084926 -5.22e-4,-2.169851 -1.74e-4,-3.254777 0,-0.06251 0.0011,-0.125194 0.0065,-0.187443 0.02469,-0.282643 0.126063,-0.411314 0.397838,-0.493125 1.036674,-0.312202 2.07387,-0.622317 3.110892,-0.933476 0.937388,-0.281251 1.87469,-0.56285 2.812078,-0.843928 0.05312,-0.01591 0.106415,-0.03486 0.161014,-0.04199 0.195354,-0.02556 0.359149,0.09911 0.383927,0.294293 0.0096,0.07538 0.005,0.152666 0.005,0.229174 1.74e-4,3.818063 0,7.636125 5.21e-4,11.454188 0,0.300552 -0.02565,0.25656 0.251953,0.258733 0.292032,0.0022 0.584238,-0.0019 0.876269,0.0013 0.259517,0.0029 0.397578,0.14093 0.398012,0.402532 0.0017,1.21012 0.0017,2.42024 0,3.630272 -3.47e-4,0.277774 -0.135105,0.396274 -0.440178,0.396361 -2.197585,3.47e-4 -4.395258,1.73e-4 -6.59293,1.73e-4 -0.340806,0 -0.681524,0.0017 -1.022329,-6.08e-4 -0.274818,-0.0018 -0.40775,-0.13354 -0.408097,-0.410618 -0.0017,-1.203165 -0.0017,-2.406329 8.7e-5,-3.609494 4.34e-4,-0.269949 0.141799,-0.406793 0.414965,-0.408879 0.292119,-0.0023 0.584237,4.34e-4 0.876269,-8.7e-4 0.265776,-0.0011 0.238303,0.02791 0.238912,-0.229435 0.0012,-0.500775 3.48e-4,-1.001463 3.48e-4,-1.502151 0,-1.432686 1.74e-4,-2.865286 -4.35e-4,-4.297972 -3.48e-4,-0.07538 0.01,-0.152232 -0.014,-0.22448 z" /></g></svg>