<?xml version="1.0" encoding="UTF-8" standalone="no"?>
<svg
   xmlns:dc="http://purl.org/dc/elements/1.1/"
   xmlns:cc="http://creativecommons.org/ns#"
   xmlns:rdf="http://www.w3.org/1999/02/22-rdf-syntax-ns#"
   xmlns:svg="http://www.w3.org/2000/svg"
   xmlns="http://www.w3.org/2000/svg"
   xmlns:sodipodi="http://sodipodi.sourceforge.net/DTD/sodipodi-0.dtd"
   xmlns:inkscape="http://www.inkscape.org/namespaces/inkscape"
   viewBox="0 0 120 59.999997"
   width="120"
   height="60"
   version="1.1"
   id="svg18"
   sodipodi:docname="mocha-ar21.svg"
   inkscape:version="0.92.3 (2405546, 2018-03-11)">
  <metadata
     id="metadata24">
    <rdf:RDF>
      <cc:Work
         rdf:about="">
        <dc:format>image/svg+xml</dc:format>
        <dc:type
           rdf:resource="http://purl.org/dc/dcmitype/StillImage" />
        <dc:title>Mocha Logo</dc:title>
      </cc:Work>
    </rdf:RDF>
  </metadata>
  <defs
     id="defs22" />
  <sodipodi:namedview
     pagecolor="#ffffff"
     bordercolor="#666666"
     borderopacity="1"
     objecttolerance="10"
     gridtolerance="10"
     guidetolerance="10"
     inkscape:pageopacity="0"
     inkscape:pageshadow="2"
     inkscape:window-width="1920"
     inkscape:window-height="1001"
     id="namedview20"
     showgrid="false"
     inkscape:zoom="6.9532167"
     inkscape:cx="78.805782"
     inkscape:cy="26.919004"
     inkscape:window-x="-9"
     inkscape:window-y="-9"
     inkscape:window-maximized="1"
     inkscape:current-layer="svg18" />
  <title
     id="title2">Mocha Logo</title>
  <g
     id="g883"
     transform="translate(-2.5437193)">
    <g
       transform="translate(0,0.44598772)"
       id="g872">
      <path
         d="m 44.547613,40.96447 -16.365595,9.455681 c -0.704632,0.409138 -1.568371,0.409138 -2.273001,0 L 9.5434184,40.96447 C 8.8387886,40.55533 8.4069185,39.805241 8.4069185,39.009691 V 20.098333 c 0,-0.81828 0.4318701,-1.545639 1.1364999,-1.954779 L 25.909017,8.6878749 c 0.70463,-0.4091398 1.568369,-0.4091398 2.272998,0 l 16.365596,9.4556791 c 0.70463,0.40914 1.136502,1.159229 1.136502,1.954779 v 18.911358 c -0.02273,0.79555 -0.454602,1.545639 -1.136502,1.954779 z"
         id="path4"
         inkscape:connector-curvature="0"
         style="clip-rule:evenodd;fill:#8d6748;fill-rule:evenodd;stroke-width:0.23820849" />
      <path
         d="m 27.022787,11.938263 c 0.2273,0 0.43187,0.06819 0.63644,0.181841 l 14.138057,8.160069 c 0.386412,0.2273 0.636438,0.65917 0.636438,1.11377 V 37.71408 c 0,0.454601 -0.250028,0.886471 -0.636438,1.113772 L 27.659227,46.98792 c -0.20457,0.113651 -0.40914,0.181838 -0.63644,0.181838 -0.2273,0 -0.4546,-0.06819 -0.63644,-0.181838 L 12.248288,38.827852 c -0.38641,-0.227301 -0.63644,-0.659171 -0.63644,-1.113772 V 21.393943 c 0,-0.4546 0.25003,-0.88647 0.63644,-1.11377 l 14.138059,-8.160069 c 0.204569,-0.113649 0.43187,-0.181841 0.63644,-0.181841 m 0,-0.681898 c -0.34095,0 -0.6819,0.09092 -0.97739,0.272758 l -14.138059,8.16007 c -0.61371,0.34095 -0.97739,1.00012 -0.97739,1.68202 v 16.320139 c 0,0.704628 0.36368,1.341069 0.97739,1.682019 l 14.138059,8.160068 c 0.29549,0.181841 0.63644,0.272763 0.97739,0.272763 0.340949,0 0.681899,-0.09092 0.977392,-0.272763 l 14.138053,-8.160068 c 0.61371,-0.34095 0.977391,-1.000118 0.977391,-1.682019 V 21.371213 c 0,-0.70463 -0.363681,-1.34107 -0.977391,-1.68202 l -14.138053,-8.16007 c -0.295493,-0.181839 -0.636443,-0.272758 -0.977392,-0.272758 z"
         id="path6"
         inkscape:connector-curvature="0"
         style="fill:#ffffff;stroke-width:0.23820849" />
      <path
         d="m 29.03439,21.371213 c 0,-0.11365 -0.09092,-0.2273 -0.227301,-0.2273 H 24.53385 c -0.11365,0 -0.2273,0.09092 -0.2273,0.2273 0,0.77282 0.11365,3.432229 1.25015,4.727839 0.04546,0.04546 0.09092,0.06819 0.15911,0.06819 h 1.90932 c 0.06819,0 0.11365,-0.02273 0.15911,-0.06819 1.136501,-1.272879 1.25015,-3.932289 1.25015,-4.727839 z m -1.68202,4.13686 H 26.0113 c -0.06819,0 -0.11365,-0.02273 -0.15911,-0.06819 -0.77282,-0.909199 -0.86374,-2.727599 -0.88647,-3.364039 0,-0.11365 0.09092,-0.2273 0.2273,-0.2273 h 3.00036 c 0.11365,0 0.227299,0.09092 0.227299,0.2273 0,0.63644 -0.113649,2.43211 -0.886469,3.36404 -0.06819,0.04546 -0.11365,0.06819 -0.18184,0.06819 z m -0.25003,-4.81876 c 0,0 0.81828,-0.47733 0.31822,-1.34107 -0.29549,-0.4546 -0.43187,-0.84101 -0.31822,-1.00012 -0.29549,0.36368 -0.79555,0.75009 -0.25003,1.56837 0.18184,0.20457 0.27276,0.63644 0.25003,0.77282 z m -0.9092,0.06819 c 0,0 0.54552,-0.31822 0.20457,-0.9092 -0.20457,-0.29549 -0.29549,-0.56825 -0.20457,-0.65917 -0.20457,0.25003 -0.52279,0.50006 -0.15911,1.06831 0.11365,0.11365 0.15911,0.40914 0.15911,0.50006 z"
         id="path8"
         inkscape:connector-curvature="0"
         style="fill:#ffffff;stroke-width:0.23820849" />
      <path
         d="m 28.056999,23.394183 c -0.09092,0.61371 -0.272759,1.31834 -0.659169,1.77294 -0.04546,0.04546 -0.09092,0.06819 -0.13638,0.06819 h -1.1365 c -0.04546,0 -0.11365,-0.02273 -0.13638,-0.06819 -0.27276,-0.34095 -0.4546,-0.79555 -0.56825,-1.27288 0,0 1.31834,0.18184 2.06843,-0.09092 0.545519,-0.20457 0.568249,-0.40914 0.568249,-0.40914 z"
         id="path10"
         inkscape:connector-curvature="0"
         style="fill:#ffffff;stroke-width:0.23820849" />
      <g
         id="g14"
         style="fill:#ffffff"
         transform="matrix(0.23820849,0,0,0.23820849,4.1775006,6.6859993)">
        <path
           d="m 37.554879,85.599145 h 3.530562 l 5.820657,8.969536 5.820657,-8.969536 h 3.530562 V 104.68326 H 52.917596 V 91.03812 l -6.011498,8.96954 h -0.09542 L 40.8946,91.13354 v 13.64515 h -3.339721 z m 35.973567,19.370385 c -1.43131,0 -2.767198,-0.28626 -4.007665,-0.76337 -1.240468,-0.4771 -2.290095,-1.24047 -3.14888,-2.09925 -0.858786,-0.85879 -1.52673,-1.90841 -2.003833,-3.148881 -0.477103,-1.145047 -0.763365,-2.480936 -0.763365,-3.816824 v -0.09542 c 0,-1.335889 0.286262,-2.576357 0.763365,-3.816825 0.477103,-1.145047 1.145047,-2.194674 2.099253,-3.14888 0.858786,-0.858785 1.908412,-1.62215 3.14888,-2.099253 1.240468,-0.572523 2.576356,-0.763365 4.007665,-0.763365 1.43131,0 2.767198,0.286262 4.007666,0.763365 1.240468,0.477103 2.290094,1.240468 3.14888,2.099253 0.858785,0.858786 1.52673,1.908412 2.003832,3.14888 0.477103,1.145048 0.763365,2.480936 0.763365,3.816824 v 0.09542 c 0,1.335888 -0.286262,2.576356 -0.763365,3.816824 -0.477103,1.145052 -1.145047,2.194672 -2.099253,3.148882 -0.858785,0.85878 -1.908412,1.62215 -3.14888,2.09925 -1.240468,0.57253 -2.576356,0.76337 -4.007665,0.76337 z m 0,-3.05346 c 0.954206,0 1.812991,-0.19084 2.576356,-0.57253 0.763365,-0.38168 1.43131,-0.85878 2.003833,-1.431305 0.572523,-0.572524 0.954206,-1.335888 1.335888,-2.099253 0.286262,-0.858786 0.477103,-1.717571 0.477103,-2.576356 v -0.09542 c 0,-0.954206 -0.190841,-1.812991 -0.477103,-2.671777 -0.286262,-0.858785 -0.763365,-1.52673 -1.335888,-2.194674 -0.572524,-0.572523 -1.240468,-1.049626 -2.003833,-1.431309 -0.763365,-0.381682 -1.62215,-0.572523 -2.576356,-0.572523 -0.954206,0 -1.812992,0.19084 -2.576356,0.572523 -0.763365,0.381683 -1.43131,0.858786 -2.003833,1.43131 -0.572524,0.572523 -0.954206,1.335888 -1.335888,2.099253 -0.286262,0.858785 -0.477104,1.71757 -0.477104,2.576356 v 0.09542 c 0,0.954206 0.190842,1.812992 0.477104,2.671777 0.286261,0.858786 0.763364,1.52673 1.335888,2.194674 0.572524,0.572524 1.240468,1.049624 2.003833,1.431304 0.763364,0.38169 1.71757,0.57253 2.576356,0.57253 z m 26.145244,3.05346 c -1.431308,0 -2.671776,-0.28626 -3.816823,-0.76337 -1.145048,-0.4771 -2.194674,-1.24047 -3.05346,-2.09925 -0.858785,-0.85879 -1.52673,-1.90841 -2.003832,-3.148881 -0.477103,-1.240468 -0.763365,-2.480936 -0.763365,-3.816824 v -0.09542 c 0,-1.335889 0.286262,-2.671777 0.763365,-3.816825 0.477103,-1.145047 1.145047,-2.194674 2.003832,-3.14888 0.858786,-0.858785 1.908412,-1.62215 3.14888,-2.099253 1.240468,-0.477103 2.480936,-0.763365 4.007666,-0.763365 0.858787,0 1.622147,0.09542 2.385517,0.190842 0.76336,0.19084 1.33589,0.381682 2.00383,0.572523 0.57252,0.286262 1.14505,0.572524 1.62215,0.954206 0.4771,0.381683 0.95421,0.763365 1.43131,1.240468 l -2.19467,2.480936 c -0.76337,-0.667945 -1.52673,-1.240468 -2.38552,-1.717571 -0.85878,-0.477103 -1.81299,-0.667944 -2.958038,-0.667944 -0.954206,0 -1.71757,0.19084 -2.480936,0.572523 -0.763364,0.381683 -1.431309,0.858786 -2.003832,1.43131 -0.572524,0.572523 -0.954206,1.335888 -1.335889,2.099253 -0.286262,0.858785 -0.477103,1.71757 -0.477103,2.576356 v 0.09542 c 0,0.954206 0.190841,1.812992 0.477103,2.671777 0.286262,0.858786 0.763365,1.52673 1.335889,2.194674 0.572523,0.572525 1.240468,1.145045 2.003832,1.431315 0.763365,0.28626 1.62215,0.57252 2.480936,0.57252 1.145048,0 2.194678,-0.19084 2.958038,-0.66795 0.76336,-0.4771 1.62215,-1.04962 2.48094,-1.812988 l 2.19467,2.194678 c -0.4771,0.57252 -0.95421,0.9542 -1.52673,1.43131 -0.57252,0.4771 -1.14505,0.76336 -1.71757,1.04962 -0.57252,0.28626 -1.33589,0.57253 -2.00383,0.66795 -0.85879,0.19084 -1.71757,0.19084 -2.576359,0.19084 z m 14.50393,-19.370385 h 3.33972 v 7.91991 h 9.16038 v -7.91991 h 3.33972 v 19.084115 h -3.33972 v -8.015325 h -9.16038 v 8.015325 h -3.33972 z m 30.63002,-0.09542 h 3.05345 l 8.39702,19.179545 h -3.53057 l -1.90841,-4.58019 h -8.96953 l -2.00384,4.58019 h -3.43514 z m 4.77103,11.641314 -3.2443,-7.633649 -3.24431,7.633649 h 6.4886 z"
           id="path12"
           inkscape:connector-curvature="0" />
      </g>
      <path
         d="m 12.555142,33.054431 h 28.980746 v 0.250031 H 12.555142 Z m 28.980744,-8.546478 h -12.31966 c 0,0.09092 -0.02272,0.15911 -0.02272,0.25003 h 12.342387 v -0.25003 z m -28.980744,0 v 0.25003 h 11.615029 c 0,-0.09092 -0.02273,-0.15911 -0.02273,-0.25003 z"
         id="path16"
         inkscape:connector-curvature="0"
         style="fill:#ffffff;stroke-width:0.23820849" />
    </g>
    <path
       inkscape:connector-curvature="0"
       id="path12-7"
       d="m 54.331971,25.013118 h 1.854419 l 3.057285,4.711226 3.057285,-4.711226 h 1.854416 v 10.02388 h -1.754178 v -7.167073 l -3.157523,4.711228 h -0.05012 l -3.107404,-4.661109 v 7.167078 h -1.75418 z m 18.89502,10.174243 c -0.751791,0 -1.453463,-0.150359 -2.105016,-0.400958 -0.651552,-0.250595 -1.202866,-0.651555 -1.653941,-1.102625 -0.451074,-0.451077 -0.80191,-1.002388 -1.052508,-1.653941 -0.250597,-0.601433 -0.400955,-1.303105 -0.400955,-2.004777 v -0.05012 c 0,-0.701672 0.150358,-1.353225 0.400955,-2.004777 0.250598,-0.601434 0.601434,-1.152747 1.102628,-1.653941 0.451074,-0.451075 1.002389,-0.852031 1.653941,-1.102628 0.651552,-0.300716 1.353225,-0.400955 2.105015,-0.400955 0.751792,0 1.453464,0.150358 2.105016,0.400955 0.651553,0.250597 1.202866,0.651553 1.653941,1.102628 0.451075,0.451074 0.801911,1.002388 1.052508,1.653941 0.250597,0.601433 0.400955,1.303105 0.400955,2.004777 v 0.05012 c 0,0.70167 -0.150358,1.353222 -0.400955,2.004775 -0.250597,0.601437 -0.601433,1.152746 -1.102627,1.653943 -0.451075,0.45107 -1.002388,0.85203 -1.653941,1.102625 -0.651553,0.300719 -1.353224,0.400958 -2.105016,0.400958 z m 0,-1.603822 c 0.501194,0 0.95227,-0.100239 1.353225,-0.300719 0.400955,-0.200477 0.751791,-0.451072 1.052507,-0.751788 0.300717,-0.300719 0.501195,-0.701673 0.701672,-1.102628 0.150359,-0.451075 0.250597,-0.90215 0.250597,-1.353225 v -0.05012 c 0,-0.501194 -0.100238,-0.95227 -0.250597,-1.403344 -0.150358,-0.451075 -0.400955,-0.80191 -0.701672,-1.152747 -0.300716,-0.300716 -0.651552,-0.551313 -1.052507,-0.751791 -0.400955,-0.200478 -0.852031,-0.300716 -1.353225,-0.300716 -0.501194,0 -0.952268,0.100238 -1.353225,0.300716 -0.400955,0.200478 -0.751791,0.451075 -1.052507,0.751791 -0.300716,0.300717 -0.501195,0.701672 -0.701672,1.102628 -0.150359,0.451074 -0.250597,0.90215 -0.250597,1.353224 v 0.05012 c 0,0.501194 0.100238,0.952269 0.250597,1.403344 0.150358,0.451074 0.400956,0.80191 0.701672,1.152747 0.300716,0.300716 0.651552,0.551311 1.052507,0.751788 0.400957,0.200478 0.90215,0.300719 1.353225,0.30072 z m 13.732719,1.603822 c -0.75179,0 -1.403344,-0.150359 -2.004774,-0.400958 -0.601435,-0.250595 -1.152747,-0.651555 -1.603824,-1.102625 -0.451072,-0.451077 -0.80191,-1.002388 -1.052506,-1.653941 -0.250597,-0.651552 -0.400955,-1.303105 -0.400955,-2.004777 v -0.05012 c 0,-0.701672 0.150358,-1.403344 0.400955,-2.004777 0.250597,-0.601434 0.601434,-1.152747 1.052506,-1.653941 0.451077,-0.451075 1.002389,-0.852031 1.653941,-1.102628 0.651552,-0.250597 1.303105,-0.400955 2.105016,-0.400955 0.451077,0 0.852034,0.05012 1.25299,0.100239 0.400948,0.100239 0.701669,0.200477 1.052499,0.300716 0.300722,0.150358 0.601443,0.300717 0.852039,0.501195 0.250586,0.200478 0.50119,0.400955 0.751786,0.651552 l -1.152743,1.303105 c -0.400956,-0.350836 -0.801912,-0.651553 -1.252985,-0.90215 -0.451074,-0.250597 -0.952271,-0.350835 -1.553706,-0.350835 -0.501194,0 -0.902147,0.100238 -1.303105,0.300716 -0.400953,0.200478 -0.751791,0.451075 -1.052505,0.751791 -0.300719,0.300717 -0.501195,0.701672 -0.701674,1.102628 -0.150359,0.451074 -0.250598,0.90215 -0.250598,1.353224 v 0.05012 c 0,0.501194 0.100239,0.952269 0.250598,1.403344 0.150358,0.451074 0.400955,0.80191 0.701674,1.152747 0.300714,0.300716 0.651552,0.60143 1.052505,0.751793 0.400956,0.150358 0.852031,0.300714 1.303105,0.300714 0.601435,0 1.15275,-0.100239 1.553706,-0.350838 0.400947,-0.250595 0.852029,-0.551311 1.303103,-0.952266 l 1.152742,1.152748 c -0.250595,0.300714 -0.501191,0.50119 -0.801903,0.751791 -0.300722,0.250596 -0.601444,0.400954 -0.902156,0.55131 -0.300713,0.150358 -0.701669,0.300721 -1.052508,0.35084 -0.451072,0.100239 -0.902145,0.100239 -1.353223,0.100238 z m 7.618152,-10.174243 h 1.754176 v 4.159912 h 4.811462 v -4.159912 h 1.75419 v 10.02388 h -1.75419 v -4.210027 h -4.811462 v 4.210027 h -1.754176 z m 16.088338,-0.05012 h 1.60381 l 4.41051,10.074006 h -1.85442 l -1.00238,-2.405735 h -4.71122 l -1.05252,2.405735 h -1.80429 z m 2.50597,6.114569 -1.70406,-4.009553 -1.70407,4.009553 h 3.40812 z"
       style="fill:#8d6748;fill-opacity:1;stroke-width:0.52524734" />
  </g>
</svg>
