<?xml version="1.0" encoding="UTF-8" standalone="no"?>
<svg
   xmlns:dc="http://purl.org/dc/elements/1.1/"
   xmlns:cc="http://creativecommons.org/ns#"
   xmlns:rdf="http://www.w3.org/1999/02/22-rdf-syntax-ns#"
   xmlns:svg="http://www.w3.org/2000/svg"
   xmlns="http://www.w3.org/2000/svg"
   xmlns:sodipodi="http://sodipodi.sourceforge.net/DTD/sodipodi-0.dtd"
   xmlns:inkscape="http://www.inkscape.org/namespaces/inkscape"
   id="Layer_1"
   data-name="Layer 1"
   viewBox="0 0 120 60"
   version="1.1"
   sodipodi:docname="snowflake-ar21.svg"
   width="120"
   height="60"
   inkscape:version="0.92.3 (2405546, 2018-03-11)">
  <metadata
     id="metadata85">
    <rdf:RDF>
      <cc:Work
         rdf:about="">
        <dc:format>image/svg+xml</dc:format>
        <dc:type
           rdf:resource="http://purl.org/dc/dcmitype/StillImage" />
        <dc:title>Snowflake-blue</dc:title>
      </cc:Work>
    </rdf:RDF>
  </metadata>
  <sodipodi:namedview
     pagecolor="#ffffff"
     bordercolor="#666666"
     borderopacity="1"
     objecttolerance="10"
     gridtolerance="10"
     guidetolerance="10"
     inkscape:pageopacity="0"
     inkscape:pageshadow="2"
     inkscape:window-width="1920"
     inkscape:window-height="1001"
     id="namedview83"
     showgrid="false"
     inkscape:zoom="3.2426413"
     inkscape:cx="52.272202"
     inkscape:cy="12.8307"
     inkscape:window-x="-9"
     inkscape:window-y="-9"
     inkscape:window-maximized="1"
     inkscape:current-layer="Layer_1" />
  <defs
     id="defs4">
    <style
       id="style2">.cls-1{fill:#29b5e8;}</style>
  </defs>
  <title
     id="title6">Snowflake-blue</title>
  <g
     id="g1051"
     transform="translate(1.3664156)">
    <g
       transform="translate(4.9342491,-1.5874774)"
       id="g1010">
      <polygon
         class="cls-1"
         points="69.905,8.995 69.817,8.902 69.817,8.995 "
         id="polygon8"
         style="fill:#29b5e8"
         transform="matrix(0.95652026,0,0,0.95652026,8.3264927,21.268409)" />
      <polygon
         class="cls-1"
         points="69.817,7.959 69.905,7.867 69.817,7.867 "
         id="polygon10"
         style="fill:#29b5e8"
         transform="matrix(0.95652026,0,0,0.95652026,8.3264927,21.268409)" />
      <polygon
         class="cls-1"
         points="60.881,12.023 60.85,12.101 60.897,12.22 60.946,12.101 60.912,12.018 60.883,12.018 "
         id="polygon12"
         style="fill:#29b5e8"
         transform="matrix(0.95652026,0,0,0.95652026,8.3264927,21.268409)" />
      <polygon
         class="cls-1"
         points="70.875,8.995 70.875,8.902 70.787,8.995 "
         id="polygon14"
         style="fill:#29b5e8"
         transform="matrix(0.95652026,0,0,0.95652026,8.3264927,21.268409)" />
      <polygon
         class="cls-1"
         points="70.875,7.959 70.875,7.867 70.787,7.867 "
         id="polygon16"
         style="fill:#29b5e8"
         transform="matrix(0.95652026,0,0,0.95652026,8.3264927,21.268409)" />
      <polygon
         class="cls-1"
         points="58.375,15.819 58.401,15.82 58.425,15.76 58.437,15.729 58.392,15.602 58.342,15.726 "
         id="polygon18"
         style="fill:#29b5e8"
         transform="matrix(0.95652026,0,0,0.95652026,8.3264927,21.268409)" />
      <polygon
         class="cls-1"
         points="63.414,15.82 63.439,15.819 63.445,15.803 63.472,15.726 63.421,15.601 63.377,15.728 "
         id="polygon20"
         style="fill:#29b5e8"
         transform="matrix(0.95652026,0,0,0.95652026,8.3264927,21.268409)" />
      <polygon
         class="cls-1"
         points="91.521,12.297 91.468,12.231 91.462,12.355 "
         id="polygon22"
         style="fill:#29b5e8"
         transform="matrix(0.95652026,0,0,0.95652026,8.3264927,21.268409)" />
      <polygon
         class="cls-1"
         points="88.995,14.914 88.995,14.875 88.969,14.941 "
         id="polygon24"
         style="fill:#29b5e8"
         transform="matrix(0.95652026,0,0,0.95652026,8.3264927,21.268409)" />
      <polygon
         class="cls-1"
         points="90.696,13.019 90.692,13.023 90.69,13.025 90.747,13.096 90.81,13.03 90.809,13.029 90.805,13.024 "
         id="polygon26"
         style="fill:#29b5e8"
         transform="matrix(0.95652026,0,0,0.95652026,8.3264927,21.268409)" />
      <polygon
         class="cls-1"
         points="88.906,13.515 88.933,13.527 88.985,13.474 88.995,13.464 88.995,13.335 88.906,13.425 "
         id="polygon28"
         style="fill:#29b5e8"
         transform="matrix(0.95652026,0,0,0.95652026,8.3264927,21.268409)" />
      <polygon
         class="cls-1"
         points="69.905,8.995 69.905,8.902 69.817,8.902 "
         id="polygon30"
         style="fill:#29b5e8"
         transform="matrix(0.95652026,0,0,0.95652026,8.3264927,21.268409)" />
      <polygon
         class="cls-1"
         points="63.428,15.853 63.439,15.819 63.414,15.82 "
         id="polygon32"
         style="fill:#29b5e8"
         transform="matrix(0.95652026,0,0,0.95652026,8.3264927,21.268409)" />
      <polygon
         class="cls-1"
         points="58.401,15.82 58.375,15.819 58.387,15.853 "
         id="polygon34"
         style="fill:#29b5e8"
         transform="matrix(0.95652026,0,0,0.95652026,8.3264927,21.268409)" />
      <polygon
         class="cls-1"
         points="70.875,7.959 70.787,7.867 70.787,7.959 "
         id="polygon36"
         style="fill:#29b5e8"
         transform="matrix(0.95652026,0,0,0.95652026,8.3264927,21.268409)" />
      <path
         class="cls-1"
         d="m 95.075419,33.724885 0.0038,-0.0038 h -9.57e-4 z m 0.0038,-0.0038 0.103304,0.0048 -0.04878,-0.06112 z"
         id="path38"
         inkscape:connector-curvature="0"
         style="fill:#29b5e8;stroke-width:0.95652026" />
      <polygon
         class="cls-1"
         points="88.933,13.526 88.906,13.514 88.906,13.553 "
         id="polygon40"
         style="fill:#29b5e8"
         transform="matrix(0.95652026,0,0,0.95652026,8.3264927,21.268409)" />
      <polygon
         class="cls-1"
         points="70.787,8.995 70.875,8.902 70.787,8.902 "
         id="polygon42"
         style="fill:#29b5e8"
         transform="matrix(0.95652026,0,0,0.95652026,8.3264927,21.268409)" />
      <polygon
         class="cls-1"
         points="69.905,7.959 69.905,7.867 69.817,7.959 "
         id="polygon44"
         style="fill:#29b5e8"
         transform="matrix(0.95652026,0,0,0.95652026,8.3264927,21.268409)" />
      <path
         class="cls-1"
         d="m 93.393187,34.206589 0.04974,-0.0506 z"
         id="path46"
         inkscape:connector-curvature="0"
         style="fill:#29b5e8;stroke-width:0.95652026" />
      <path
         class="cls-1"
         d="m 69.012538,36.383724 0.02678,-0.07365 z"
         id="path48"
         inkscape:connector-curvature="0"
         style="fill:#29b5e8;stroke-width:0.95652026" />
      <path
         class="cls-1"
         d="m 100.8683,32.731443 0.004,-0.01722 h 9.6e-4 a 3.4080817,3.4080817 0 0 1 3.28373,-2.826518 3.3740296,3.3740296 0 0 1 3.23304,2.826518 h 9.6e-4 l 0.003,0.01626 -9.6e-4,9.56e-4 0.0144,0.07078 h -6.55216 c 0.004,-0.02296 0.01,-0.04591 0.0143,-0.06983 z m -0.0622,1.015825 9.6e-4,-9.57e-4 -0.006,-0.08226 h 7.10025 a 0.40652111,0.40652111 0 0 0 0.42374,-0.403651 v -0.05452 a 4.1917587,4.1917587 0 1 0 -8.371466,0.311826 4.3499672,4.3499672 0 0 0 4.172346,4.472688 h 0.4113 a 4.294776,4.294776 0 0 0 3.49704,-2.232518 0.47826013,0.47826013 0 0 0 -0.14157,-0.622695 0.40346025,0.40346025 0 0 0 -0.5653,0.146348 3.4326643,3.4326643 0 0 1 -2.79017,1.828867 h -0.40844 a 3.4620294,3.4620294 0 0 1 -3.32199,-3.358343 h -9.6e-4 v -0.0048"
         id="path50"
         inkscape:connector-curvature="0"
         style="fill:#29b5e8;stroke-width:0.95652026" />
      <path
         class="cls-1"
         d="m 75.763275,25.835697 a 3.0964474,3.0964474 0 0 0 -0.570086,2.087223 v 0.958433 h -1.142085 a 0.42373848,0.42373848 0 0 0 -0.43426,0.422782 0.46668623,0.46668623 0 0 0 0.43426,0.479217 h 1.142085 v 7.784162 a 0.42182543,0.42182543 0 1 0 0.841738,0 V 29.783352 H 77.25736 A 0.45912972,0.45912972 0 0 0 77.692577,29.304135 0.41713849,0.41713849 0 0 0 77.25736,28.881353 H 76.034927 V 27.92292 a 2.4295615,2.4295615 0 0 1 0.352956,-1.495041 1.3286066,1.3286066 0 0 1 1.087564,-0.338608 0.30159084,0.30159084 0 0 0 0.05069,-0.0038 0.38566897,0.38566897 0 0 0 0.05739,0.0038 h 0.136783 a 0.45128626,0.45128626 0 0 0 0,-0.901999 h -0.136783 a 0.52044267,0.52044267 0 0 0 -0.05452,0.0029 0.48926011,0.48926011 0 0 0 -0.05356,-0.0029 2.1393532,2.1393532 0 0 0 -1.712172,0.648425"
         id="path52"
         inkscape:connector-curvature="0"
         style="fill:#29b5e8;stroke-width:0.95652026" />
      <path
         class="cls-1"
         d="m 38.422064,32.857704 c -1.019651,-0.353913 -2.119649,-0.620782 -2.119649,-1.48452 0,-1.096172 1.289389,-1.546693 1.996257,-1.546693 1.708346,0 2.075649,1.409911 2.55391,0.973738 0.47826,-0.436174 -1.211912,-1.791563 -2.430518,-1.791563 a 3.6265509,3.6265509 0 0 0 -2.119649,0.575825 1.9872665,1.9872665 0 0 0 -0.935477,1.788693 c -0.0507,1.836519 2.121562,2.147388 3.055126,2.471649 0.933563,0.32426 2.017301,0.704955 2.026866,1.615562 0.01244,1.260694 -1.483563,1.649998 -2.15504,1.649998 -1.913997,0 -2.429562,-1.122955 -2.791126,-0.769999 -0.361565,0.352956 0.10426,0.793912 0.986172,1.226259 a 4.6182711,4.6182711 0 0 0 1.804954,0.423738 3.4075078,3.4075078 0 0 0 2.15504,-0.659042 2.3572485,2.3572485 0 0 0 0.93452,-1.870954 c 0,-1.686345 -1.457737,-2.081388 -2.961386,-2.602691"
         id="path54"
         inkscape:connector-curvature="0"
         style="fill:#29b5e8;stroke-width:0.95652026" />
      <path
         class="cls-1"
         d="m 86.453154,37.11068 a 3.4504555,3.4504555 0 0 1 -3.250255,-3.611821 3.2695776,3.2695776 0 1 1 6.499555,0 3.4384034,3.4384034 0 0 1 -3.2493,3.611821 m 3.2493,-6.342782 c -0.0153,-0.0219 -0.03157,-0.0439 -0.04687,-0.066 -0.01052,-0.01329 -0.02009,-0.02764 -0.03061,-0.04113 a 3.9677417,3.9677417 0 0 0 -3.171822,-1.652771 4.3128542,4.3128542 0 0 0 -4.097732,4.490862 4.3128542,4.3128542 0 0 0 4.097732,4.490863 3.983333,3.983333 0 0 0 3.171822,-1.67018 l 0.03157,-0.04304 0.04591,-0.06409 v 1.337215 a 0.42402543,0.42402543 0 1 0 0.847477,0 V 29.4479 a 0.42402543,0.42402543 0 1 0 -0.847477,0 z"
         id="path56"
         inkscape:connector-curvature="0"
         style="fill:#29b5e8;stroke-width:0.95652026" />
      <path
         class="cls-1"
         d="m 93.393379,34.206493 -0.02583,0.02583 v -8.633552 a 0.43244281,0.43244281 0 1 0 -0.864694,0 v 11.951721 a 0.43244281,0.43244281 0 1 0 0.864694,0 v -2.053649 l 1.706433,-1.770519 9.56e-4,-9.57e-4 0.0593,-0.06122 0.04878,0.06217 0.0048,0.0048 v 0.0014 l 3.266516,4.09295 a 0.36271248,0.36271248 0 0 0 0.335739,0.165478 0.43626889,0.43626889 0 0 0 0.282173,-0.09183 0.47271231,0.47271231 0 0 0 0.03539,-0.641825 l -3.355473,-4.234515 3.337299,-3.351647 a 0.43148629,0.43148629 0 0 0 0,-0.622695 0.39532982,0.39532982 0 0 0 -0.599739,0 l -5.0466,5.107819 z"
         id="path58"
         inkscape:connector-curvature="0"
         style="fill:#29b5e8;stroke-width:0.95652026" />
      <path
         class="cls-1"
         d="m 80.252608,25.158959 a 0.43818193,0.43818193 0 0 0 -0.423739,0.439999 v 11.950765 a 0.43292107,0.43292107 0 1 0 0.865651,0 V 25.598958 a 0.44229497,0.44229497 0 0 0 -0.441912,-0.439999"
         id="path60"
         inkscape:connector-curvature="0"
         style="fill:#29b5e8;stroke-width:0.95652026" />
      <path
         class="cls-1"
         d="m 69.012921,36.38382 -0.0057,0.0154 -0.01148,0.03252 -0.01244,-0.03157 -0.03539,-0.088 -1.947475,-4.811297 a 0.47175579,0.47175579 0 0 0 -0.423739,-0.274522 0.46668623,0.46668623 0 0 0 -0.406521,0.274522 l -1.947475,4.812253 -0.01243,0.03051 -0.02296,0.05653 -0.01243,0.03157 -0.01148,-0.03252 -0.03157,-0.08896 -2.48217,-7.010337 a 0.41130371,0.41130371 0 0 0 -0.548086,-0.238174 0.453008,0.453008 0 0 0 -0.211391,0.568173 l 2.896343,8.085466 a 0.33076471,0.33076471 0 0 0 0.176,0.201826 0.09230421,0.09230421 0 0 0 0.07078,0.03635 0.50217314,0.50217314 0 0 0 0.158782,0.03625 0.41761675,0.41761675 0 0 0 0.37113,-0.274426 0.06886946,0.06886946 0 0 1 0.01722,-0.0373 l 1.979997,-4.909819 0.0019,-0.0048 0.01435,-0.03453 2.013476,4.968262 a 0.44449496,0.44449496 0 0 0 0.352956,0.2926 h 0.05261 a 0.3730429,0.3730429 0 0 0 0.247739,-0.09183 0.49442532,0.49442532 0 0 0 0.158782,-0.22 L 72.28135,29.62983 a 0.44506888,0.44506888 0 0 0 -0.230521,-0.568173 0.4226863,0.4226863 0 0 0 -0.54713,0.238174 l -2.464761,7.010433 z"
         id="path62"
         inkscape:connector-curvature="0"
         style="fill:#29b5e8;stroke-width:0.95652026" />
      <path
         class="cls-1"
         d="m 43.963951,29.466457 a 0.41579936,0.41579936 0 1 0 -0.83026,0 v 8.193648 a 0.06303469,0.06303469 0 0 1 0.01817,0.03625 0.07049554,0.07049554 0 0 0 0.01722,0.05557 0.46620797,0.46620797 0 0 0 0.28313,0.238078 h 0.105218 a 0.3730429,0.3730429 0 0 0 0.318521,-0.164522 0.4179037,0.4179037 0 0 0 0.088,-0.201825 V 32.67462 a 2.7661609,2.7661609 0 0 1 2.683995,-2.76817 2.7165175,2.7165175 0 0 1 2.666779,2.76817 v 4.875479 a 0.42450369,0.42450369 0 1 0 0.848433,0 V 32.67462 a 3.593264,3.593264 0 0 0 -3.515212,-3.648073 3.4583947,3.4583947 0 0 0 -2.683995,1.301729 z"
         id="path64"
         inkscape:connector-curvature="0"
         style="fill:#29b5e8;stroke-width:0.95652026" />
      <path
         class="cls-1"
         d="m 55.818393,37.11001 a 3.4610729,3.4610729 0 0 1 -3.249299,-3.610864 3.2691949,3.2691949 0 1 1 6.498598,0 3.4610729,3.4610729 0 0 1 -3.249299,3.610864 m 0,-8.101726 a 4.3366716,4.3366716 0 0 0 -4.097733,4.490862 4.1149502,4.1149502 0 1 0 8.195466,0 4.3244281,4.3244281 0 0 0 -4.097733,-4.490862"
         id="path66"
         inkscape:connector-curvature="0"
         style="fill:#29b5e8;stroke-width:0.95652026" />
    </g>
    <g
       transform="matrix(1.3151269,0,0,1.3151269,-6.9410049,-14.111292)"
       id="g978">
      <path
         class="cls-1"
         d="m 11.640548,27.135704 4.98921,2.991039 a 1.4261717,1.4261717 0 0 0 1.759997,-0.230522 1.5386585,1.5386585 0 0 0 0.470608,-1.115302 V 22.78545 a 1.4611803,1.4611803 0 1 0 -2.920256,0 v 3.411907 l -2.833213,-1.698779 a 1.437076,1.437076 0 0 0 -2.002953,0.557651 1.555015,1.555015 0 0 0 0.536607,2.079475"
         id="path68"
         inkscape:connector-curvature="0"
         style="fill:#29b5e8;stroke-width:0.95652026" />
      <path
         class="cls-1"
         d="m 23.633782,30.127221 4.98921,-2.991039 A 1.555015,1.555015 0 0 0 29.1596,25.055751 1.4366934,1.4366934 0 0 0 27.157603,24.499056 l -2.795909,1.675823 v -3.389908 a 1.4611803,1.4611803 0 1 0 -2.920256,0 v 5.876861 a 1.5639106,1.5639106 0 0 0 0.189391,0.907738 1.437076,1.437076 0 0 0 2.002953,0.557651"
         id="path70"
         inkscape:connector-curvature="0"
         style="fill:#29b5e8;stroke-width:0.95652026" />
      <path
         class="cls-1"
         d="m 19.192945,33.529564 a 0.43512107,0.43512107 0 0 1 0.104261,-0.26113 l 0.583478,-0.60653 a 0.4059472,0.4059472 0 0 1 0.252521,-0.108087 h 0.022 a 0.40336459,0.40336459 0 0 1 0.251565,0.108087 l 0.583477,0.60653 a 0.42928629,0.42928629 0 0 1 0.104261,0.26113 v 0.02286 a 0.43588628,0.43588628 0 0 1 -0.104261,0.262087 l -0.583477,0.605477 a 0.39886895,0.39886895 0 0 1 -0.251565,0.109044 h -0.022 a 0.40173851,0.40173851 0 0 1 -0.252521,-0.109044 l -0.583478,-0.605477 a 0.43588628,0.43588628 0 0 1 -0.104261,-0.262087 z m -1.765736,-0.249748 v 0.523312 a 0.59304256,0.59304256 0 0 0 0.142522,0.356782 l 1.97904,2.054606 a 0.54387742,0.54387742 0 0 0 0.343391,0.148165 h 0.503129 a 0.54521655,0.54521655 0 0 0 0.343391,-0.148165 l 1.979041,-2.054606 a 0.58959909,0.58959909 0 0 0 0.142521,-0.356782 v -0.523312 a 0.59093822,0.59093822 0 0 0 -0.142521,-0.356782 l -1.979041,-2.054605 a 0.54387742,0.54387742 0 0 0 -0.343391,-0.148165 h -0.503129 a 0.54387742,0.54387742 0 0 0 -0.343391,0.148165 l -1.97904,2.054605 a 0.59543386,0.59543386 0 0 0 -0.142522,0.356782"
         id="path72"
         inkscape:connector-curvature="0"
         style="fill:#29b5e8;stroke-width:0.95652026" />
      <path
         class="cls-1"
         d="m 9.0596655,31.861201 2.8246045,1.694093 -2.8246045,1.693041 a 1.5559715,1.5559715 0 0 0 -0.5366079,2.080431 1.4365021,1.4365021 0 0 0 2.0029534,0.556791 l 4.98921,-2.991135 a 1.5900236,1.5900236 0 0 0 0,-2.678256 l -4.98921,-2.991996 a 1.4369804,1.4369804 0 0 0 -2.0029534,0.557652 1.5548237,1.5548237 0 0 0 0.5366079,2.079379"
         id="path74"
         inkscape:connector-curvature="0"
         style="fill:#29b5e8;stroke-width:0.95652026" />
      <path
         class="cls-1"
         d="m 24.015529,33.561033 a 1.5350237,1.5350237 0 0 0 0.732695,1.333389 l 4.990166,2.991039 a 1.4357369,1.4357369 0 0 0 2.001997,-0.556695 1.555015,1.555015 0 0 0 -0.536608,-2.080431 l -2.824604,-1.693041 2.824604,-1.693997 A 1.5540585,1.5540585 0 0 0 31.740387,29.781822 1.4362152,1.4362152 0 0 0 29.73839,29.22417 l -4.990166,2.991996 a 1.5350237,1.5350237 0 0 0 -0.732695,1.344867"
         id="path76"
         inkscape:connector-curvature="0"
         style="fill:#29b5e8;stroke-width:0.95652026" />
      <path
         class="cls-1"
         d="m 17.630948,36.804593 a 1.4185195,1.4185195 0 0 0 -1.001477,0.177913 l -4.98921,2.991995 a 1.5548237,1.5548237 0 0 0 -0.536607,2.079475 1.4367891,1.4367891 0 0 0 2.002953,0.556695 l 2.833213,-1.69878 v 3.386082 a 1.4611803,1.4611803 0 1 0 2.920256,0 v -5.996426 a 1.4994412,1.4994412 0 0 0 -1.229128,-1.496954"
         id="path78"
         inkscape:connector-curvature="0"
         style="fill:#29b5e8;stroke-width:0.95652026" />
      <path
         class="cls-1"
         d="m 28.623087,39.974406 -4.989209,-2.991039 a 1.4367891,1.4367891 0 0 0 -2.002954,0.556695 1.5669715,1.5669715 0 0 0 -0.189391,0.908694 v 5.849121 a 1.4611803,1.4611803 0 1 0 2.920257,0 v -3.362168 l 2.794952,1.675823 a 1.437076,1.437076 0 0 0 2.002953,-0.557651 1.555015,1.555015 0 0 0 -0.536608,-2.079475"
         id="path80"
         inkscape:connector-curvature="0"
         style="fill:#29b5e8;stroke-width:0.95652026" />
    </g>
  </g>
</svg>
