<?xml version="1.0" encoding="UTF-8" standalone="no"?>
<!-- Generator: Adobe Illustrator 15.0.2, SVG Export Plug-In . SVG Version: 6.00 Build 0)  -->

<svg
   xmlns:dc="http://purl.org/dc/elements/1.1/"
   xmlns:cc="http://creativecommons.org/ns#"
   xmlns:rdf="http://www.w3.org/1999/02/22-rdf-syntax-ns#"
   xmlns:svg="http://www.w3.org/2000/svg"
   xmlns="http://www.w3.org/2000/svg"
   xmlns:sodipodi="http://sodipodi.sourceforge.net/DTD/sodipodi-0.dtd"
   xmlns:inkscape="http://www.inkscape.org/namespaces/inkscape"
   version="1.1"
   id="Layer_1"
   x="0px"
   y="0px"
   width="256"
   height="80.946388"
   viewBox="0 0 256 80.946389"
   enable-background="new 0 0 800 261.905"
   xml:space="preserve"
   inkscape:version="0.91 r13725"
   sodipodi:docname="mit_scratch-official.svg"><metadata
     id="metadata3544"><rdf:RDF><cc:Work
         rdf:about=""><dc:format>image/svg+xml</dc:format><dc:type
           rdf:resource="http://purl.org/dc/dcmitype/StillImage" /><dc:title></dc:title></cc:Work></rdf:RDF></metadata><defs
     id="defs3542" /><sodipodi:namedview
     pagecolor="#ffffff"
     bordercolor="#666666"
     borderopacity="1"
     objecttolerance="10"
     gridtolerance="10"
     guidetolerance="10"
     inkscape:pageopacity="0"
     inkscape:pageshadow="2"
     inkscape:window-width="1855"
     inkscape:window-height="1056"
     id="namedview3540"
     showgrid="false"
     fit-margin-top="0"
     fit-margin-left="0"
     fit-margin-right="0"
     fit-margin-bottom="0"
     inkscape:zoom="1.5"
     inkscape:cx="396.37602"
     inkscape:cy="125.0465"
     inkscape:window-x="65"
     inkscape:window-y="24"
     inkscape:window-maximized="1"
     inkscape:current-layer="Layer_1" /><g
     id="g3464"
     transform="matrix(0.32292657,0,0,0.32292657,-1.1702796,-1.7224903)"><g
       id="g3466"><path
         stroke-miterlimit="10"
         d="m 50.106,242.268 c -18.878,0 -34.712,-14.791 -36.046,-33.662 -0.013,-0.246 -0.023,-0.5 -0.042,-0.75 -0.308,-6.059 -0.713,-17.855 0.021,-31.15 0.494,-8.672 0.713,-23.26 0.72,-23.783 10e-4,-0.039 10e-4,-0.068 10e-4,-0.107 0.129,-8.943 3.565,-17.134 9.127,-23.405 -2.754,-9.605 -3.648,-21.057 -1.931,-34.544 l 0.261,-2.114 c 0.976,-7.988 2.43,-19.826 8.445,-31.217 9.094,-17.2 25.761,-27.072 45.723,-27.072 1.148,0 2.34,0.032 3.554,0.103 1.788,0.099 3.744,0.312 5.831,0.681 6.381,-5.629 14.762,-9.055 23.914,-9.055 0.117,0 0.249,0 0.368,0 19.798,0.246 35.836,16.529 35.736,36.312 0,0.133 -0.001,0.271 -0.003,0.403 -0.006,0.439 -1.812,51.001 -2.357,54.596 -0.04,0.25 -0.081,0.496 -0.123,0.742 -0.477,2.689 -1.254,5.261 -2.273,7.694 8.739,10.273 13.461,23.038 13.618,37.458 0.189,18.137 -8.109,35.75 -22.779,48.314 -12.589,10.799 -28.567,16.734 -44.97,16.734 -0.003,0 0,0 -0.003,0 -2.659,0 -5.315,-0.146 -7.958,-0.461 -0.539,0.707 -1.112,1.406 -1.705,2.076 -6.391,7.229 -15.226,11.543 -24.868,12.135 -0.642,0.045 -1.459,0.072 -2.261,0.072 z"
         id="path3468"
         inkscape:connector-curvature="0"
         style="fill:none;stroke:#28a5da;stroke-width:20;stroke-miterlimit:10" /><path
         stroke-miterlimit="10"
         d="M 77.193,126.732 C 68.091,125.31 63.273,119.25 65.666,100.41 l 0.289,-2.275 c 2.02,-16.386 3.754,-19.97 11.568,-19.567 2.337,0.147 4.992,1.594 7.663,3.775 2.408,2.838 7.921,6.523 10.956,13.848 2.225,5.336 2.983,8.815 3.264,12.565 0.026,0.12 0.529,4.598 0.529,4.598 l 0.005,-0.003 c 0.6,3.134 3.062,5.719 6.388,6.319 4.296,0.769 8.429,-2.091 9.206,-6.4 0.066,-0.492 2.026,-50.074 2.038,-50.896 0.025,-4.365 -3.497,-7.918 -7.865,-7.967 -4.403,-0.008 -7.97,3.521 -7.989,7.909 0,0.092 -0.038,6.897 -0.161,13.81 C 95.341,69.33 87.318,63.243 78.397,62.74 54.386,61.422 51.78,83.474 50.221,96.2 l -0.279,2.233 c -3.192,25.068 5.164,40.914 24.819,43.984 21.383,3.369 35.662,8.285 35.797,21.441 0.055,5.082 -2.613,10.326 -7.336,14.375 -5.627,4.826 -13.238,6.982 -20.324,5.789 -2.203,-0.355 -4.3,-0.912 -6.264,-1.613 -2.84,-1.545 -9.879,-5.822 -13.457,-10.783 -3.024,-4.184 -4.052,-10.764 -4.387,-14.922 0.041,-1.854 0.062,-3.094 0.07,-3.262 0.049,-4.359 -3.442,-7.947 -7.824,-8.031 -4.377,-0.08 -8.004,3.418 -8.061,7.818 0,0.15 -0.238,15.666 -0.758,25.025 -0.83,15.057 -0.022,27.832 0,28.375 0.304,4.377 4.058,7.701 8.432,7.41 4.392,-0.273 7.685,-4.053 7.417,-8.412 0,-0.117 -0.402,-6.254 -0.345,-14.84 5.795,3.73 13.395,7.348 22.565,8.896 11.827,1.977 23.944,-1.436 33.24,-9.402 8.299,-7.1 13.012,-16.801 12.911,-26.588 -0.32,-29.301 -33.337,-34.458 -49.244,-36.961 z"
         id="path3470"
         inkscape:connector-curvature="0"
         style="fill:none;stroke:#28a5da;stroke-width:20;stroke-miterlimit:10" /><path
         stroke-miterlimit="10"
         d="m 323.923,234.866 c -6.864,-0.008 -13.765,-1.387 -21.072,-4.225 -6.472,-2.502 -11.633,-6.312 -15.672,-10.367 -2.679,1.09 -5.5,1.865 -8.435,2.293 l -38.276,5.615 c -1.8,0.254 -3.523,0.377 -5.235,0.377 -17.866,0 -33.249,-13.336 -35.785,-31.029 -1.387,-9.428 1.009,-18.953 6.776,-26.703 2.889,-3.885 6.447,-7.078 10.477,-9.482 l -0.026,-5.529 c -7.355,-6.623 -11.997,-16.221 -11.997,-26.877 0,-7.833 2.508,-15.091 6.754,-21.024 -8.526,-5.534 -14.67,-14.574 -16.18,-25.202 -1.397,-9.361 0.995,-18.92 6.777,-26.7 5.779,-7.766 14.23,-12.803 23.819,-14.186 7.993,-1.178 24.131,-3.189 41.305,-3.189 38.11,0 62.372,9.761 74.155,29.839 6.153,10.501 13.167,31.614 -5.208,58.83 1.732,5.571 3.029,11.76 3.912,18.69 0.124,0 0.248,0 0.372,0 3.599,0 7.168,0.529 10.61,1.594 19.115,5.912 29.815,26.201 23.932,45.246 -5.738,18.496 -14.879,29.947 -29.649,37.141 -6.773,3.268 -13.912,4.889 -21.342,4.889 10e-4,-10e-4 10e-4,-10e-4 -0.012,-10e-4 z"
         id="path3472"
         inkscape:connector-curvature="0"
         style="fill:none;stroke:#28a5da;stroke-width:20;stroke-miterlimit:10" /><path
         stroke-miterlimit="10"
         d="m 342.729,174.561 c -4.201,-1.289 -8.663,1.074 -9.93,5.238 -2.899,9.422 -5.212,9.773 -6.823,10.539 -1.591,0.77 -3.743,0.543 -7.191,-0.799 -0.53,-0.314 -1.967,-2.18 -2.787,-3.92 -1.237,-2.66 -2.692,-13.709 -2.829,-20.018 -0.609,-23.295 -4.658,-36.097 -11.2,-43.158 4.416,-2.902 7.63,-6.673 7.987,-7.15 0.058,-0.062 0.106,-0.11 0.162,-0.189 9.729,-12.613 12.032,-23.511 6.862,-32.351 -12.972,-22.087 -69.952,-15.535 -87.105,-13.001 -4.352,0.627 -7.333,4.678 -6.678,9.004 0.609,4.354 4.651,7.332 8.985,6.676 4.065,-0.595 8.227,-1.089 12.409,-1.477 l 0.157,36.94 c -1.32,0.079 -2.631,0.119 -3.924,0.119 -4.375,0 -7.932,3.529 -7.932,7.923 0,4.363 3.557,7.936 7.932,7.936 1.32,0 2.646,-0.037 4.002,-0.096 l 0.167,46.182 -10.921,1.59 c -4.334,0.633 -7.332,4.676 -6.687,8.99 0.614,4.35 4.649,7.348 8.981,6.727 l 38.284,-5.619 c 4.319,-0.633 7.33,-4.654 6.689,-8.975 -0.628,-4.354 -4.675,-7.35 -8.992,-6.744 l -11.492,1.703 -0.208,-45.518 c 7.572,-1.225 14.781,-2.862 20.804,-4.697 l 0,0 0.013,0 c 0.043,-0.012 1.741,-0.228 2.788,-0.046 3.192,0.542 4.948,1.122 6.791,3.733 2.583,3.602 5.767,12.073 6.258,31.905 0.097,3.822 1.106,19.457 4.317,26.328 1,2.174 4.84,9.443 11.458,12.002 4.872,1.904 12.219,3.939 19.841,0.277 7.041,-3.434 11.421,-8.422 15.052,-20.117 1.297,-4.193 -1.061,-8.642 -5.24,-9.937 z m -45.104,-70.836 c -0.706,0.825 -2.73,2.962 -4.836,4.217 -1.95,1.146 -4.615,1.941 -7.187,2.729 l -4.032,1.286 c -5.593,1.99 -12.997,4.072 -20.96,5.532 l -0.146,-36.086 c 20.98,-0.578 39.287,1.774 42.825,7.834 0.327,0.52 0.466,1.185 0.466,1.973 -10e-4,2.897 -2.158,7.373 -6.13,12.515 z"
         id="path3474"
         inkscape:connector-curvature="0"
         style="fill:none;stroke:#28a5da;stroke-width:20;stroke-miterlimit:10" /><path
         stroke-miterlimit="10"
         d="m 592.141,233.284 c -40.888,0 -64.308,-30.744 -66.29,-61.104 l 0.013,0 c -0.092,-1.91 -0.174,-5.766 -0.383,-15.896 -0.003,-0.326 -0.011,-0.643 -0.003,-0.969 0.256,-18.697 0.304,-22.335 0.386,-23.756 l -0.003,0 c 2.059,-29.099 12.122,-49.4 29.924,-60.346 8.442,-5.229 18.08,-7.886 28.571,-7.886 3.593,0 7.023,0.314 10.211,0.821 6.622,-7.482 16.307,-12.211 27.071,-12.211 19.938,0 36.158,16.214 36.158,36.138 l 0,34.381 c 0,4.105 -0.701,8.089 -2.007,11.823 4.973,5.887 8.11,13.356 8.493,21.504 0.216,2.756 0.335,4.521 0.246,6.377 -0.276,9.248 -0.29,9.342 -0.43,10.605 -0.021,0.301 -0.059,0.615 -0.11,0.912 -0.837,6.012 -3.019,17.439 -8.132,26.412 -3.293,5.75 -6.715,9.896 -9.933,13.531 -6.477,7.295 -13.928,11.35 -20.378,14.363 -10.755,5.057 -20.031,5.152 -26.815,5.221 l -4.274,0.045 c -0.776,0.019 -1.556,0.035 -2.315,0.035 z"
         id="path3476"
         inkscape:connector-curvature="0"
         style="fill:none;stroke:#28a5da;stroke-width:20;stroke-miterlimit:10" /><path
         stroke-miterlimit="10"
         d="m 628.039,149.606 c -4.318,0.055 -7.776,3.604 -7.776,7.93 0,0.043 0.212,2.564 0.212,2.885 0,0.318 -0.171,6.584 -0.197,7.473 -0.504,3.279 -1.655,8.504 -2.729,10.361 -1.191,2.082 -2.436,3.645 -4.644,6.162 -1.242,1.412 -4.259,2.818 -6.061,3.68 -2.037,0.939 -4.001,0.977 -8.614,1.027 l -4.825,0.062 c -20.632,0.664 -23.238,-16.119 -23.57,-19.793 -0.01,-0.543 -0.249,-13.336 -0.249,-13.613 0,-0.252 0.239,-20.673 0.249,-21.256 0.995,-13.628 4.207,-22.793 9.052,-25.755 3.734,-2.328 9.701,-1.698 18.253,1.867 10.522,4.388 17.68,15.864 17.756,15.956 1.855,3.02 5.505,4.425 8.906,3.481 3.42,-0.967 5.779,-4.059 5.779,-7.617 l 0,-34.381 c 0,-4.36 -3.539,-7.923 -7.943,-7.923 -4.353,0 -7.939,3.563 -7.939,7.923 l 0,14.126 c -3.071,-2.391 -6.58,-4.583 -10.461,-6.208 -5.007,-2.094 -20.233,-8.438 -32.674,-0.752 -9.745,5.996 -15.155,18.535 -16.564,38.314 -0.01,0.144 -0.308,22.146 -0.308,22.146 0,0 0.298,14.539 0.308,14.639 0.821,12.412 10.218,35.654 39.896,34.701 l 4.452,-0.049 c 5.365,-0.047 9.975,-0.082 15.243,-2.557 3.755,-1.762 8.047,-3.965 11.207,-7.514 2.284,-2.584 4.493,-5.221 6.545,-8.801 3.047,-5.346 4.455,-14.574 4.702,-16.354 0.033,-0.287 0.29,-9.047 0.29,-9.047 0.024,-0.123 -0.223,-3.318 -0.223,-3.318 -0.067,-4.359 -3.672,-7.871 -8.073,-7.795 z"
         id="path3478"
         inkscape:connector-curvature="0"
         style="fill:none;stroke:#28a5da;stroke-width:20;stroke-miterlimit:10" /><path
         stroke-miterlimit="10"
         d="m 704.883,245.999 c -8.521,0 -16.704,-3.201 -23.027,-9.02 -2.547,-2.326 -4.681,-4.936 -6.397,-7.754 l -29.818,-0.5 c -19.868,-0.344 -35.806,-16.768 -35.55,-36.605 0.249,-14.471 9.045,-26.918 21.447,-32.525 l 0.099,-55.411 c -12.378,-5.747 -20.995,-18.296 -20.995,-32.831 0,-19.929 16.216,-36.148 36.142,-36.148 l 33.986,0 c 6.49,-7.878 16.264,-13.004 27.257,-13.219 0,0 41.787,-0.715 41.951,-0.715 19.607,0 35.826,15.945 36.159,35.555 0.214,14.314 -7.918,26.833 -19.871,32.887 0.242,39.263 0.386,63.935 0.46,80.19 10.957,5.652 18.736,16.771 19.574,29.826 1.272,19.904 -13.862,37.133 -33.747,38.404 -16.403,1.074 -26.867,2.93 -29.801,3.762 -0.572,0.236 -1.143,0.449 -1.728,0.637 -3.626,1.381 -9.1,3.467 -16.141,3.467 z"
         id="path3480"
         inkscape:connector-curvature="0"
         style="fill:none;stroke:#28a5da;stroke-width:20;stroke-miterlimit:10" /><path
         stroke-miterlimit="10"
         d="m 415.525,204.538 c -7.852,-0.004 -15.327,-2.486 -21.615,-7.203 -1.364,-1.002 -2.637,-2.092 -3.831,-3.248 -4.495,1.994 -9.473,3.109 -14.694,3.109 -0.543,0 -1.085,-0.012 -1.631,-0.039 l -39.56,-1.873 c -19.88,-0.924 -35.331,-17.857 -34.431,-37.738 0.871,-19.334 16.733,-34.502 36.127,-34.502 0.164,0 0.331,0 0.497,0.003 1.816,-9.099 6.247,-31.316 6.461,-32.386 -13.099,-4.127 -23.172,-15.538 -25.059,-29.716 -2.591,-19.741 11.31,-37.931 30.967,-40.609 l 33.96,-4.669 c 1.614,-0.219 3.268,-0.333 4.891,-0.333 9.953,0 19.564,4.167 26.389,11.445 2.482,2.631 6.052,7.798 7.964,12.367 l 29.805,72.043 c 0.14,0.332 0.301,0.708 0.479,1.146 0.092,-10e-4 0.195,-10e-4 0.284,-10e-4 15.213,0 28.888,9.614 34.034,23.938 6.682,18.72 -3.054,39.429 -21.696,46.207 -11.911,4.254 -19.537,8.156 -22.289,9.896 -6.812,7.666 -16.708,12.164 -27.049,12.164 0,-10e-4 0,-10e-4 -0.003,-10e-4 z"
         id="path3482"
         inkscape:connector-curvature="0"
         style="fill:none;stroke:#28a5da;stroke-width:20;stroke-miterlimit:10" /><path
         stroke-miterlimit="10"
         d="m 449.861,141.012 c -2.35,0.834 -6.895,3.115 -13.945,6.213 0,0 -9.852,-24.576 -10.201,-25.185 L 395.888,49.927 c -0.297,-0.769 -1.961,-3.308 -2.475,-3.854 -1.764,-1.882 -4.322,-2.806 -6.856,-2.454 l -34.003,4.675 c -4.342,0.59 -7.36,4.589 -6.797,8.921 0.582,4.354 4.566,7.376 8.917,6.818 0,0 12.656,-1.819 22.911,-3.204 -2.94,14.461 -14.652,73.576 -18.324,91.55 l -23.014,-1.117 c -4.371,-0.189 -8.099,3.18 -8.3,7.57 -0.189,4.367 3.21,8.062 7.582,8.266 l 39.489,1.873 c 4.371,0.189 8.085,-3.188 8.304,-7.547 0.197,-4.4 -2.36,-8.361 -8.016,-8.361 l 1.815,-12.094 36.688,-6.08 7.854,19.42 c -5.98,3.422 -9.715,5.584 -12.512,9.338 -2.614,3.537 -1.864,8.494 1.662,11.096 3.494,2.623 8.479,1.885 11.103,-1.637 3.525,-4.754 18.511,-11.854 33.31,-17.15 4.114,-1.49 6.251,-6.041 4.777,-10.158 -1.474,-4.108 -6.032,-6.26 -10.142,-4.786 z m -69.356,-12.785 9.729,-47.62 17.448,43.112 -27.177,4.508 z"
         id="path3484"
         inkscape:connector-curvature="0"
         style="fill:none;stroke:#28a5da;stroke-width:20;stroke-miterlimit:10" /><path
         stroke-miterlimit="10"
         d="m 471.605,227.219 c -19.584,0 -35.803,-15.959 -36.141,-35.564 -0.243,-16.057 10.029,-29.846 24.422,-34.791 l -0.021,-10.68 c -1.07,0.258 -2.161,0.471 -3.263,0.637 -1.777,0.273 -3.594,0.408 -5.375,0.408 -18.024,0 -33.05,-12.947 -35.732,-30.772 l -6.05,-38.914 c -1.605,-10.313 1.37,-20.835 8.165,-28.851 6.695,-7.981 16.629,-12.659 27.165,-12.779 l 50.476,-0.844 c 24.525,-0.465 46.409,-2.011 47.589,-2.093 0.169,-0.024 0.339,-0.034 0.514,-0.042 0.78,-0.047 1.562,-0.079 2.335,-0.079 9.671,0 19.075,3.943 25.814,10.816 7.26,7.292 11.049,17.596 10.252,28.095 -0.681,8.995 -0.896,23.217 -0.927,26.666 0.403,14.639 -7.602,27.884 -20.634,33.959 -4.821,2.271 -10.279,3.515 -15.675,3.515 l 0,0 c -4.289,0 -8.478,-0.783 -12.372,-2.226 l 0.044,22.69 c 13.713,5.018 23.653,18.135 23.865,33.484 0.151,9.66 -3.505,18.82 -10.279,25.754 -6.763,6.924 -15.812,10.799 -25.485,10.887 10e-4,0.002 -48.553,0.724 -48.687,0.724 z"
         id="path3486"
         inkscape:connector-curvature="0"
         style="fill:none;stroke:#28a5da;stroke-width:20;stroke-miterlimit:10" /><path
         stroke-miterlimit="10"
         d="m 545.174,61.084 c -0.246,0.034 -23.476,1.7 -49.453,2.199 l -50.627,0.845 c -2.301,0.017 -4.47,1.024 -5.95,2.803 -1.483,1.731 -2.164,4.026 -1.819,6.286 l 6.066,39.041 c 0.66,4.334 4.688,7.311 9.021,6.67 3.942,-0.592 6.757,-3.98 6.757,-7.844 0,-0.364 -3.188,-20.356 -4.801,-31.233 2.059,-0.01 33.583,-0.574 33.583,-0.574 l 0.205,103.629 -16.671,0.215 c -4.376,0.076 -7.878,3.684 -7.813,8.043 0.086,4.398 3.669,7.896 8.033,7.842 l 48.324,-0.723 c 4.374,-0.041 7.882,-3.676 7.824,-8.039 -0.068,-4.395 -3.673,-7.867 -8.046,-7.834 l -15.781,0.242 -0.205,-103.682 c 13.661,-0.381 25.354,-1.031 33.367,-1.469 -0.403,6.593 -0.599,11.565 -0.599,15.18 0,8.484 0.907,10.094 1.598,11.29 2.018,3.667 6.299,4.639 10.085,2.85 2.946,-1.368 4.526,-4.674 4.339,-7.919 -0.008,-0.133 0.15,-17.905 1.013,-29.267 0.17,-2.318 -0.641,-4.573 -2.274,-6.216 -1.608,-1.641 -3.888,-2.477 -6.176,-2.335 z"
         id="path3488"
         inkscape:connector-curvature="0"
         style="fill:none;stroke:#28a5da;stroke-width:20;stroke-miterlimit:10" /><path
         stroke-miterlimit="10"
         d="m 175.126,243.215 c -40.706,-0.01 -64.119,-30.422 -66.361,-60.637 -0.069,-0.922 -0.096,-1.701 -0.102,-2.32 l -0.288,-14.668 c 0,-0.127 0.288,-21.967 0.288,-21.967 0.002,-0.68 0.034,-1.436 0.087,-2.215 2.092,-29.076 12.161,-49.368 29.936,-60.303 8.477,-5.224 18.098,-7.872 28.566,-7.872 3.596,0 7.029,0.325 10.218,0.83 6.627,-7.494 16.312,-12.227 27.083,-12.227 19.936,0 36.143,16.219 36.143,36.157 l 0,34.35 c 0,3.702 -0.565,7.309 -1.639,10.729 4.831,5.916 7.843,13.377 8.133,21.498 l 0.222,4.172 c 0.032,0.506 0.042,1.016 0.042,1.531 0,0.09 -0.105,9.744 -0.595,13.385 l 0.002,0 c -1.057,7.389 -3.323,17.973 -8.132,26.371 -3.318,5.828 -6.811,9.975 -9.825,13.412 -6.608,7.393 -14.039,11.441 -20.46,14.439 -10.737,5.068 -20.033,5.154 -26.821,5.219 l -4.142,0.082 c -0.783,0.021 -1.568,0.035 -2.348,0.035 -0.003,-0.001 -0.005,-0.001 -0.007,-0.001 z"
         id="path3490"
         inkscape:connector-curvature="0"
         style="fill:none;stroke:#28a5da;stroke-width:20;stroke-miterlimit:10" /><path
         stroke-miterlimit="10"
         d="m 210.958,157.924 c -4.348,0.08 -7.803,3.635 -7.803,7.945 0,0.043 0.217,4.127 0.217,4.461 -0.004,0.322 -0.175,6.545 -0.202,7.457 -0.5,3.277 -1.64,8.502 -2.716,10.359 -1.185,2.086 -2.512,3.73 -4.668,6.154 -1.229,1.42 -4.239,2.842 -6.049,3.666 -2.032,0.961 -3.979,1.006 -8.592,1.051 l -4.844,0.078 c -20.633,0.633 -23.23,-16.102 -23.563,-19.803 -0.007,-0.543 -0.265,-13.355 -0.287,-13.605 0.022,-0.264 0.287,-20.689 0.287,-21.273 0.999,-13.625 4.198,-22.791 9.05,-25.749 3.718,-2.332 9.693,-1.696 18.239,1.864 10.522,4.405 17.701,15.847 17.746,15.97 1.868,3.005 5.518,4.447 8.926,3.466 3.421,-0.957 5.784,-4.059 5.784,-7.623 l 0,-34.35 c 0,-4.386 -3.56,-7.942 -7.928,-7.942 -4.401,0 -7.939,3.556 -7.939,7.942 l 0,14.101 c -3.083,-2.389 -6.581,-4.598 -10.481,-6.205 -4.99,-2.088 -20.226,-8.416 -32.661,-0.754 -9.743,5.991 -15.163,18.531 -16.584,38.319 -0.011,0.156 -0.011,0.305 -0.011,0.432 l -0.289,21.705 0,0.279 0.289,14.016 c 0,0.127 0,0.242 0.011,0.342 0.83,12.438 10.218,35.639 39.902,34.75 l 4.455,-0.09 c 5.357,-0.051 9.976,-0.074 15.244,-2.557 3.773,-1.762 8.031,-3.951 11.215,-7.518 2.282,-2.588 4.502,-5.221 6.534,-8.791 3.056,-5.348 4.44,-14.576 4.694,-16.355 0.044,-0.301 0.307,-9.289 0.307,-9.395 l -0.237,-4.529 c -0.071,-4.384 -3.683,-7.9 -8.046,-7.818 z"
         id="path3492"
         inkscape:connector-curvature="0"
         style="fill:none;stroke:#28a5da;stroke-width:20;stroke-miterlimit:10" /></g><g
       id="g3494"><g
         id="g3496"><path
           d="m 50.106,242.268 c -18.878,0 -34.712,-14.791 -36.046,-33.662 -0.013,-0.246 -0.023,-0.5 -0.042,-0.75 -0.308,-6.059 -0.713,-17.855 0.021,-31.15 0.494,-8.672 0.713,-23.26 0.72,-23.783 10e-4,-0.039 10e-4,-0.068 10e-4,-0.107 0.129,-8.943 3.565,-17.134 9.127,-23.405 -2.754,-9.605 -3.648,-21.057 -1.931,-34.544 l 0.261,-2.114 c 0.976,-7.988 2.43,-19.826 8.445,-31.217 9.094,-17.2 25.761,-27.072 45.723,-27.072 1.148,0 2.34,0.032 3.554,0.103 1.788,0.099 3.744,0.312 5.831,0.681 6.381,-5.629 14.762,-9.055 23.914,-9.055 0.117,0 0.249,0 0.368,0 19.798,0.246 35.836,16.529 35.736,36.312 0,0.133 -0.001,0.271 -0.003,0.403 -0.006,0.439 -1.812,51.001 -2.357,54.596 -0.04,0.25 -0.081,0.496 -0.123,0.742 -0.477,2.689 -1.254,5.261 -2.273,7.694 8.739,10.273 13.461,23.038 13.618,37.458 0.189,18.137 -8.109,35.75 -22.779,48.314 -12.589,10.799 -28.567,16.734 -44.97,16.734 -0.003,0 0,0 -0.003,0 -2.659,0 -5.315,-0.146 -7.958,-0.461 -0.539,0.707 -1.112,1.406 -1.705,2.076 -6.391,7.229 -15.226,11.543 -24.868,12.135 -0.642,0.045 -1.459,0.072 -2.261,0.072 z"
           id="path3498"
           inkscape:connector-curvature="0"
           style="fill:#f7f8f9" /><path
           d="M 77.193,126.732 C 68.091,125.31 63.273,119.25 65.666,100.41 l 0.289,-2.275 c 2.02,-16.386 3.754,-19.97 11.568,-19.567 2.337,0.147 4.992,1.594 7.663,3.775 2.408,2.838 7.921,6.523 10.956,13.848 2.225,5.336 2.983,8.815 3.264,12.565 0.026,0.12 0.529,4.598 0.529,4.598 l 0.005,-0.003 c 0.6,3.134 3.062,5.719 6.388,6.319 4.296,0.769 8.429,-2.091 9.206,-6.4 0.066,-0.492 2.026,-50.074 2.038,-50.896 0.025,-4.365 -3.497,-7.918 -7.865,-7.967 -4.403,-0.008 -7.97,3.521 -7.989,7.909 0,0.092 -0.038,6.897 -0.161,13.81 C 95.341,69.33 87.318,63.243 78.397,62.74 54.386,61.422 51.78,83.474 50.221,96.2 l -0.279,2.233 c -3.192,25.068 5.164,40.914 24.819,43.984 21.383,3.369 35.662,8.285 35.797,21.441 0.055,5.082 -2.613,10.326 -7.336,14.375 -5.627,4.826 -13.238,6.982 -20.324,5.789 -2.203,-0.355 -4.3,-0.912 -6.264,-1.613 -2.84,-1.545 -9.879,-5.822 -13.457,-10.783 -3.024,-4.184 -4.052,-10.764 -4.387,-14.922 0.041,-1.854 0.062,-3.094 0.07,-3.262 0.049,-4.359 -3.442,-7.947 -7.824,-8.031 -4.377,-0.08 -8.004,3.418 -8.061,7.818 0,0.15 -0.238,15.666 -0.758,25.025 -0.83,15.057 -0.022,27.832 0,28.375 0.304,4.377 4.058,7.701 8.432,7.41 4.392,-0.273 7.685,-4.053 7.417,-8.412 0,-0.117 -0.402,-6.254 -0.345,-14.84 5.795,3.73 13.395,7.348 22.565,8.896 11.827,1.977 23.944,-1.436 33.24,-9.402 8.299,-7.1 13.012,-16.801 12.911,-26.588 -0.32,-29.301 -33.337,-34.458 -49.244,-36.961 z"
           id="path3500"
           inkscape:connector-curvature="0"
           style="fill:#f7f8f9" /><path
           d="m 323.923,234.866 c -6.864,-0.008 -13.765,-1.387 -21.072,-4.225 -6.472,-2.502 -11.633,-6.312 -15.672,-10.367 -2.679,1.09 -5.5,1.865 -8.435,2.293 l -38.276,5.615 c -1.8,0.254 -3.523,0.377 -5.235,0.377 -17.866,0 -33.249,-13.336 -35.785,-31.029 -1.387,-9.428 1.009,-18.953 6.776,-26.703 2.889,-3.885 6.447,-7.078 10.477,-9.482 l -0.026,-5.529 c -7.355,-6.623 -11.997,-16.221 -11.997,-26.877 0,-7.833 2.508,-15.091 6.754,-21.024 -8.526,-5.534 -14.67,-14.574 -16.18,-25.202 -1.397,-9.361 0.995,-18.92 6.777,-26.7 5.779,-7.766 14.23,-12.803 23.819,-14.186 7.993,-1.178 24.131,-3.189 41.305,-3.189 38.11,0 62.372,9.761 74.155,29.839 6.153,10.501 13.167,31.614 -5.208,58.83 1.732,5.571 3.029,11.76 3.912,18.69 0.124,0 0.248,0 0.372,0 3.599,0 7.168,0.529 10.61,1.594 19.115,5.912 29.815,26.201 23.932,45.246 -5.738,18.496 -14.879,29.947 -29.649,37.141 -6.773,3.268 -13.912,4.889 -21.342,4.889 10e-4,-10e-4 10e-4,-10e-4 -0.012,-10e-4 z"
           id="path3502"
           inkscape:connector-curvature="0"
           style="fill:#f7f8f9" /><path
           d="m 342.729,174.561 c -4.201,-1.289 -8.663,1.074 -9.93,5.238 -2.899,9.422 -5.212,9.773 -6.823,10.539 -1.591,0.77 -3.743,0.543 -7.191,-0.799 -0.53,-0.314 -1.967,-2.18 -2.787,-3.92 -1.237,-2.66 -2.692,-13.709 -2.829,-20.018 -0.609,-23.295 -4.658,-36.097 -11.2,-43.158 4.416,-2.902 7.63,-6.673 7.987,-7.15 0.058,-0.062 0.106,-0.11 0.162,-0.189 9.729,-12.613 12.032,-23.511 6.862,-32.351 -12.972,-22.087 -69.952,-15.535 -87.105,-13.001 -4.352,0.627 -7.333,4.678 -6.678,9.004 0.609,4.354 4.651,7.332 8.985,6.676 4.065,-0.595 8.227,-1.089 12.409,-1.477 l 0.157,36.94 c -1.32,0.079 -2.631,0.119 -3.924,0.119 -4.375,0 -7.932,3.529 -7.932,7.923 0,4.363 3.557,7.936 7.932,7.936 1.32,0 2.646,-0.037 4.002,-0.096 l 0.167,46.182 -10.921,1.59 c -4.334,0.633 -7.332,4.676 -6.687,8.99 0.614,4.35 4.649,7.348 8.981,6.727 l 38.284,-5.619 c 4.319,-0.633 7.33,-4.654 6.689,-8.975 -0.628,-4.354 -4.675,-7.35 -8.992,-6.744 l -11.492,1.703 -0.208,-45.518 c 7.572,-1.225 14.781,-2.862 20.804,-4.697 l 0,0 0.013,0 c 0.043,-0.012 1.741,-0.228 2.788,-0.046 3.192,0.542 4.948,1.122 6.791,3.733 2.583,3.602 5.767,12.073 6.258,31.905 0.097,3.822 1.106,19.457 4.317,26.328 1,2.174 4.84,9.443 11.458,12.002 4.872,1.904 12.219,3.939 19.841,0.277 7.041,-3.434 11.421,-8.422 15.052,-20.117 1.297,-4.193 -1.061,-8.642 -5.24,-9.937 z m -45.104,-70.836 c -0.706,0.825 -2.73,2.962 -4.836,4.217 -1.95,1.146 -4.615,1.941 -7.187,2.729 l -4.032,1.286 c -5.593,1.99 -12.997,4.072 -20.96,5.532 l -0.146,-36.086 c 20.98,-0.578 39.287,1.774 42.825,7.834 0.327,0.52 0.466,1.185 0.466,1.973 -10e-4,2.897 -2.158,7.373 -6.13,12.515 z"
           id="path3504"
           inkscape:connector-curvature="0"
           style="fill:#f7f8f9" /><path
           d="m 592.141,233.284 c -40.888,0 -64.308,-30.744 -66.29,-61.104 l 0.013,0 c -0.092,-1.91 -0.174,-5.766 -0.383,-15.896 -0.003,-0.326 -0.011,-0.643 -0.003,-0.969 0.256,-18.697 0.304,-22.335 0.386,-23.756 l -0.003,0 c 2.059,-29.099 12.122,-49.4 29.924,-60.346 8.442,-5.229 18.08,-7.886 28.571,-7.886 3.593,0 7.023,0.314 10.211,0.821 6.622,-7.482 16.307,-12.211 27.071,-12.211 19.938,0 36.158,16.214 36.158,36.138 l 0,34.381 c 0,4.105 -0.701,8.089 -2.007,11.823 4.973,5.887 8.11,13.356 8.493,21.504 0.216,2.756 0.335,4.521 0.246,6.377 -0.276,9.248 -0.29,9.342 -0.43,10.605 -0.021,0.301 -0.059,0.615 -0.11,0.912 -0.837,6.012 -3.019,17.439 -8.132,26.412 -3.293,5.75 -6.715,9.896 -9.933,13.531 -6.477,7.295 -13.928,11.35 -20.378,14.363 -10.755,5.057 -20.031,5.152 -26.815,5.221 l -4.274,0.045 c -0.776,0.019 -1.556,0.035 -2.315,0.035 z"
           id="path3506"
           inkscape:connector-curvature="0"
           style="fill:#f7f8f9" /><path
           d="m 628.039,149.606 c -4.318,0.055 -7.776,3.604 -7.776,7.93 0,0.043 0.212,2.564 0.212,2.885 0,0.318 -0.171,6.584 -0.197,7.473 -0.504,3.279 -1.655,8.504 -2.729,10.361 -1.191,2.082 -2.436,3.645 -4.644,6.162 -1.242,1.412 -4.259,2.818 -6.061,3.68 -2.037,0.939 -4.001,0.977 -8.614,1.027 l -4.825,0.062 c -20.632,0.664 -23.238,-16.119 -23.57,-19.793 -0.01,-0.543 -0.249,-13.336 -0.249,-13.613 0,-0.252 0.239,-20.673 0.249,-21.256 0.995,-13.628 4.207,-22.793 9.052,-25.755 3.734,-2.328 9.701,-1.698 18.253,1.867 10.522,4.388 17.68,15.864 17.756,15.956 1.855,3.02 5.505,4.425 8.906,3.481 3.42,-0.967 5.779,-4.059 5.779,-7.617 l 0,-34.381 c 0,-4.36 -3.539,-7.923 -7.943,-7.923 -4.353,0 -7.939,3.563 -7.939,7.923 l 0,14.126 c -3.071,-2.391 -6.58,-4.583 -10.461,-6.208 -5.007,-2.094 -20.233,-8.438 -32.674,-0.752 -9.745,5.996 -15.155,18.535 -16.564,38.314 -0.01,0.144 -0.308,22.146 -0.308,22.146 0,0 0.298,14.539 0.308,14.639 0.821,12.412 10.218,35.654 39.896,34.701 l 4.452,-0.049 c 5.365,-0.047 9.975,-0.082 15.243,-2.557 3.755,-1.762 8.047,-3.965 11.207,-7.514 2.284,-2.584 4.493,-5.221 6.545,-8.801 3.047,-5.346 4.455,-14.574 4.702,-16.354 0.033,-0.287 0.29,-9.047 0.29,-9.047 0.024,-0.123 -0.223,-3.318 -0.223,-3.318 -0.067,-4.359 -3.672,-7.871 -8.073,-7.795 z"
           id="path3508"
           inkscape:connector-curvature="0"
           style="fill:#f7f8f9" /><path
           d="m 704.883,245.999 c -8.521,0 -16.704,-3.201 -23.027,-9.02 -2.547,-2.326 -4.681,-4.936 -6.397,-7.754 l -29.818,-0.5 c -19.868,-0.344 -35.806,-16.768 -35.55,-36.605 0.249,-14.471 9.045,-26.918 21.447,-32.525 l 0.099,-55.411 c -12.378,-5.747 -20.995,-18.296 -20.995,-32.831 0,-19.929 16.216,-36.148 36.142,-36.148 l 33.986,0 c 6.49,-7.878 16.264,-13.004 27.257,-13.219 0,0 41.787,-0.715 41.951,-0.715 19.607,0 35.826,15.945 36.159,35.555 0.214,14.314 -7.918,26.833 -19.871,32.887 0.242,39.263 0.386,63.935 0.46,80.19 10.957,5.652 18.736,16.771 19.574,29.826 1.272,19.904 -13.862,37.133 -33.747,38.404 -16.403,1.074 -26.867,2.93 -29.801,3.762 -0.572,0.236 -1.143,0.449 -1.728,0.637 -3.626,1.381 -9.1,3.467 -16.141,3.467 z"
           id="path3510"
           inkscape:connector-curvature="0"
           style="fill:#f7f8f9" /><path
           d="m 758.149,201.547 c -0.281,-4.363 -4.056,-7.693 -8.426,-7.41 -2.951,0.199 -6.829,0.492 -11.147,0.955 0.014,-13.559 -0.127,-40.877 -0.67,-129.539 l 12.217,-0.172 c 4.364,-0.074 7.868,-3.708 7.804,-8.083 -0.068,-4.37 -3.68,-7.875 -8.056,-7.813 l -41.295,0.701 c -4.394,0.096 -7.868,3.689 -7.793,8.074 0.055,4.376 3.68,7.885 8.043,7.799 l 13.189,-0.239 c 0.125,17.351 0.218,36.056 0.331,54.978 l -46.666,7.801 0.085,-49.292 12.683,0 c 4.392,0 7.955,-3.56 7.955,-7.954 0,-4.374 -3.563,-7.934 -7.955,-7.934 l -41.666,0 c -4.381,0 -7.924,3.56 -7.924,7.934 0,4.394 3.543,7.954 7.924,7.954 l 13.113,0 -0.188,105.577 -13.346,-0.232 c -4.37,-0.074 -7.981,3.424 -8.06,7.842 -0.052,4.344 3.426,7.945 7.806,8.021 l 42.861,0.719 c 4.38,0.062 7.987,-3.439 8.056,-7.814 0.066,-4.396 -3.426,-7.99 -7.793,-8.049 l -13.667,-0.219 0.085,-40.48 46.797,-7.811 c 0.157,29.904 0.276,49.848 0.276,60.502 -10.81,2.045 -18.055,2.895 -22.452,7.83 -2.859,3.232 -2.524,8.098 0.676,11.008 3.188,2.938 6.741,1.182 11.224,-0.479 l -0.059,0.041 c 4.579,-2.078 19.684,-4.553 38.628,-5.779 4.373,-0.288 7.691,-4.056 7.41,-8.437 z"
           id="path3512"
           inkscape:connector-curvature="0"
           style="fill:#f7f8f9" /><path
           d="m 415.525,204.538 c -7.852,-0.004 -15.327,-2.486 -21.615,-7.203 -1.364,-1.002 -2.637,-2.092 -3.831,-3.248 -4.495,1.994 -9.473,3.109 -14.694,3.109 -0.543,0 -1.085,-0.012 -1.631,-0.039 l -39.56,-1.873 c -19.88,-0.924 -35.331,-17.857 -34.431,-37.738 0.871,-19.334 16.733,-34.502 36.127,-34.502 0.164,0 0.331,0 0.497,0.003 1.816,-9.099 6.247,-31.316 6.461,-32.386 -13.099,-4.127 -23.172,-15.538 -25.059,-29.716 -2.591,-19.741 11.31,-37.931 30.967,-40.609 l 33.96,-4.669 c 1.614,-0.219 3.268,-0.333 4.891,-0.333 9.953,0 19.564,4.167 26.389,11.445 2.482,2.631 6.052,7.798 7.964,12.367 l 29.805,72.043 c 0.14,0.332 0.301,0.708 0.479,1.146 0.092,-10e-4 0.195,-10e-4 0.284,-10e-4 15.213,0 28.888,9.614 34.034,23.938 6.682,18.72 -3.054,39.429 -21.696,46.207 -11.911,4.254 -19.537,8.156 -22.289,9.896 -6.812,7.666 -16.708,12.164 -27.049,12.164 0,-10e-4 0,-10e-4 -0.003,-10e-4 z"
           id="path3514"
           inkscape:connector-curvature="0"
           style="fill:#f7f8f9" /><path
           d="m 449.861,141.012 c -2.35,0.834 -6.895,3.115 -13.945,6.213 0,0 -9.852,-24.576 -10.201,-25.185 L 395.888,49.927 c -0.297,-0.769 -1.961,-3.308 -2.475,-3.854 -1.764,-1.882 -4.322,-2.806 -6.856,-2.454 l -34.003,4.675 c -4.342,0.59 -7.36,4.589 -6.797,8.921 0.582,4.354 4.566,7.376 8.917,6.818 0,0 12.656,-1.819 22.911,-3.204 -2.94,14.461 -14.652,73.576 -18.324,91.55 l -23.014,-1.117 c -4.371,-0.189 -8.099,3.18 -8.3,7.57 -0.189,4.367 3.21,8.062 7.582,8.266 l 39.489,1.873 c 4.371,0.189 8.085,-3.188 8.304,-7.547 0.197,-4.4 -2.36,-8.361 -8.016,-8.361 l 1.815,-12.094 36.688,-6.08 7.854,19.42 c -5.98,3.422 -9.715,5.584 -12.512,9.338 -2.614,3.537 -1.864,8.494 1.662,11.096 3.494,2.623 8.479,1.885 11.103,-1.637 3.525,-4.754 18.511,-11.854 33.31,-17.15 4.114,-1.49 6.251,-6.041 4.777,-10.158 -1.474,-4.108 -6.032,-6.26 -10.142,-4.786 z m -69.356,-12.785 9.729,-47.62 17.448,43.112 -27.177,4.508 z"
           id="path3516"
           inkscape:connector-curvature="0"
           style="fill:#f7f8f9" /><path
           d="m 471.605,227.219 c -19.584,0 -35.803,-15.959 -36.141,-35.564 -0.243,-16.057 10.029,-29.846 24.422,-34.791 l -0.021,-10.68 c -1.07,0.258 -2.161,0.471 -3.263,0.637 -1.777,0.273 -3.594,0.408 -5.375,0.408 -18.024,0 -33.05,-12.947 -35.732,-30.772 l -6.05,-38.914 c -1.605,-10.313 1.37,-20.835 8.165,-28.851 6.695,-7.981 16.629,-12.659 27.165,-12.779 l 50.476,-0.844 c 24.525,-0.465 46.409,-2.011 47.589,-2.093 0.169,-0.024 0.339,-0.034 0.514,-0.042 0.78,-0.047 1.562,-0.079 2.335,-0.079 9.671,0 19.075,3.943 25.814,10.816 7.26,7.292 11.049,17.596 10.252,28.095 -0.681,8.995 -0.896,23.217 -0.927,26.666 0.403,14.639 -7.602,27.884 -20.634,33.959 -4.821,2.271 -10.279,3.515 -15.675,3.515 l 0,0 c -4.289,0 -8.478,-0.783 -12.372,-2.226 l 0.044,22.69 c 13.713,5.018 23.653,18.135 23.865,33.484 0.151,9.66 -3.505,18.82 -10.279,25.754 -6.763,6.924 -15.812,10.799 -25.485,10.887 10e-4,0.002 -48.553,0.724 -48.687,0.724 z"
           id="path3518"
           inkscape:connector-curvature="0"
           style="fill:#f7f8f9" /><path
           d="m 545.174,61.084 c -0.246,0.034 -23.476,1.7 -49.453,2.199 l -50.627,0.845 c -2.301,0.017 -4.47,1.024 -5.95,2.803 -1.483,1.731 -2.164,4.026 -1.819,6.286 l 6.066,39.041 c 0.66,4.334 4.688,7.311 9.021,6.67 3.942,-0.592 6.757,-3.98 6.757,-7.844 0,-0.364 -3.188,-20.356 -4.801,-31.233 2.059,-0.01 33.583,-0.574 33.583,-0.574 l 0.205,103.629 -16.671,0.215 c -4.376,0.076 -7.878,3.684 -7.813,8.043 0.086,4.398 3.669,7.896 8.033,7.842 l 48.324,-0.723 c 4.374,-0.041 7.882,-3.676 7.824,-8.039 -0.068,-4.395 -3.673,-7.867 -8.046,-7.834 l -15.781,0.242 -0.205,-103.682 c 13.661,-0.381 25.354,-1.031 33.367,-1.469 -0.403,6.593 -0.599,11.565 -0.599,15.18 0,8.484 0.907,10.094 1.598,11.29 2.018,3.667 6.299,4.639 10.085,2.85 2.946,-1.368 4.526,-4.674 4.339,-7.919 -0.008,-0.133 0.15,-17.905 1.013,-29.267 0.17,-2.318 -0.641,-4.573 -2.274,-6.216 -1.608,-1.641 -3.888,-2.477 -6.176,-2.335 z"
           id="path3520"
           inkscape:connector-curvature="0"
           style="fill:#f7f8f9" /><path
           d="m 175.126,243.215 c -40.706,-0.01 -64.119,-30.422 -66.361,-60.637 -0.069,-0.922 -0.096,-1.701 -0.102,-2.32 l -0.288,-14.668 c 0,-0.127 0.288,-21.967 0.288,-21.967 0.002,-0.68 0.034,-1.436 0.087,-2.215 2.092,-29.076 12.161,-49.368 29.936,-60.303 8.477,-5.224 18.098,-7.872 28.566,-7.872 3.596,0 7.029,0.325 10.218,0.83 6.627,-7.494 16.312,-12.227 27.083,-12.227 19.936,0 36.143,16.219 36.143,36.157 l 0,34.35 c 0,3.702 -0.565,7.309 -1.639,10.729 4.831,5.916 7.843,13.377 8.133,21.498 l 0.222,4.172 c 0.032,0.506 0.042,1.016 0.042,1.531 0,0.09 -0.105,9.744 -0.595,13.385 l 0.002,0 c -1.057,7.389 -3.323,17.973 -8.132,26.371 -3.318,5.828 -6.811,9.975 -9.825,13.412 -6.608,7.393 -14.039,11.441 -20.46,14.439 -10.737,5.068 -20.033,5.154 -26.821,5.219 l -4.142,0.082 c -0.783,0.021 -1.568,0.035 -2.348,0.035 -0.003,-0.001 -0.005,-0.001 -0.007,-0.001 z"
           id="path3522"
           inkscape:connector-curvature="0"
           style="fill:#f7f8f9" /><path
           d="m 210.958,157.924 c -4.348,0.08 -7.803,3.635 -7.803,7.945 0,0.043 0.217,4.127 0.217,4.461 -0.004,0.322 -0.175,6.545 -0.202,7.457 -0.5,3.277 -1.64,8.502 -2.716,10.359 -1.185,2.086 -2.512,3.73 -4.668,6.154 -1.229,1.42 -4.239,2.842 -6.049,3.666 -2.032,0.961 -3.979,1.006 -8.592,1.051 l -4.844,0.078 c -20.633,0.633 -23.23,-16.102 -23.563,-19.803 -0.007,-0.543 -0.265,-13.355 -0.287,-13.605 0.022,-0.264 0.287,-20.689 0.287,-21.273 0.999,-13.625 4.198,-22.791 9.05,-25.749 3.718,-2.332 9.693,-1.696 18.239,1.864 10.522,4.405 17.701,15.847 17.746,15.97 1.868,3.005 5.518,4.447 8.926,3.466 3.421,-0.957 5.784,-4.059 5.784,-7.623 l 0,-34.35 c 0,-4.386 -3.56,-7.942 -7.928,-7.942 -4.401,0 -7.939,3.556 -7.939,7.942 l 0,14.101 c -3.083,-2.389 -6.581,-4.598 -10.481,-6.205 -4.99,-2.088 -20.226,-8.416 -32.661,-0.754 -9.743,5.991 -15.163,18.531 -16.584,38.319 -0.011,0.156 -0.011,0.305 -0.011,0.432 l -0.289,21.705 0,0.279 0.289,14.016 c 0,0.127 0,0.242 0.011,0.342 0.83,12.438 10.218,35.639 39.902,34.75 l 4.455,-0.09 c 5.357,-0.051 9.976,-0.074 15.244,-2.557 3.773,-1.762 8.031,-3.951 11.215,-7.518 2.282,-2.588 4.502,-5.221 6.534,-8.791 3.056,-5.348 4.44,-14.576 4.694,-16.355 0.044,-0.301 0.307,-9.289 0.307,-9.395 l -0.237,-4.529 c -0.071,-4.384 -3.683,-7.9 -8.046,-7.818 z"
           id="path3524"
           inkscape:connector-curvature="0"
           style="fill:#f7f8f9" /></g><path
         d="M 77.193,126.732 C 68.091,125.31 63.273,119.25 65.666,100.41 l 0.289,-2.275 c 2.02,-16.386 3.754,-19.97 11.568,-19.567 2.337,0.147 4.992,1.594 7.663,3.775 2.408,2.838 7.921,6.523 10.956,13.848 2.225,5.336 2.983,8.815 3.264,12.565 0.026,0.12 0.529,4.598 0.529,4.598 l 0.005,-0.003 c 0.6,3.134 3.062,5.719 6.388,6.319 4.296,0.769 8.429,-2.091 9.206,-6.4 0.066,-0.492 2.026,-50.074 2.038,-50.896 0.025,-4.365 -3.497,-7.918 -7.865,-7.967 -4.403,-0.008 -7.97,3.521 -7.989,7.909 0,0.092 -0.038,6.897 -0.161,13.81 C 95.341,69.33 87.318,63.243 78.397,62.74 54.386,61.422 51.78,83.474 50.221,96.2 l -0.279,2.233 c -3.192,25.068 5.164,40.914 24.819,43.984 21.383,3.369 35.662,8.285 35.797,21.441 0.055,5.082 -2.613,10.326 -7.336,14.375 -5.627,4.826 -13.238,6.982 -20.324,5.789 -2.203,-0.355 -4.3,-0.912 -6.264,-1.613 -2.84,-1.545 -9.879,-5.822 -13.457,-10.783 -3.024,-4.184 -4.052,-10.764 -4.387,-14.922 0.041,-1.854 0.062,-3.094 0.07,-3.262 0.049,-4.359 -3.442,-7.947 -7.824,-8.031 -4.377,-0.08 -8.004,3.418 -8.061,7.818 0,0.15 -0.238,15.666 -0.758,25.025 -0.83,15.057 -0.022,27.832 0,28.375 0.304,4.377 4.058,7.701 8.432,7.41 4.392,-0.273 7.685,-4.053 7.417,-8.412 0,-0.117 -0.402,-6.254 -0.345,-14.84 5.795,3.73 13.395,7.348 22.565,8.896 11.827,1.977 23.944,-1.436 33.24,-9.402 8.299,-7.1 13.012,-16.801 12.911,-26.588 -0.32,-29.301 -33.337,-34.458 -49.244,-36.961 z"
         id="path3526"
         inkscape:connector-curvature="0"
         style="fill:#f9a737" /><path
         d="m 342.729,174.561 c -4.201,-1.289 -8.663,1.074 -9.93,5.238 -2.899,9.422 -5.212,9.773 -6.823,10.539 -1.591,0.77 -3.743,0.543 -7.191,-0.799 -0.53,-0.314 -1.967,-2.18 -2.787,-3.92 -1.237,-2.66 -2.692,-13.709 -2.829,-20.018 -0.609,-23.295 -4.658,-36.097 -11.2,-43.158 4.416,-2.902 7.63,-6.673 7.987,-7.15 0.058,-0.062 0.106,-0.11 0.162,-0.189 9.729,-12.613 12.032,-23.511 6.862,-32.351 -12.972,-22.087 -69.952,-15.535 -87.105,-13.001 -4.352,0.627 -7.333,4.678 -6.678,9.004 0.609,4.354 4.651,7.332 8.985,6.676 4.065,-0.595 8.227,-1.089 12.409,-1.477 l 0.157,36.94 c -1.32,0.079 -2.631,0.119 -3.924,0.119 -4.375,0 -7.932,3.529 -7.932,7.923 0,4.363 3.557,7.936 7.932,7.936 1.32,0 2.646,-0.037 4.002,-0.096 l 0.167,46.182 -10.921,1.59 c -4.334,0.633 -7.332,4.676 -6.687,8.99 0.614,4.35 4.649,7.348 8.981,6.727 l 38.284,-5.619 c 4.319,-0.633 7.33,-4.654 6.689,-8.975 -0.628,-4.354 -4.675,-7.35 -8.992,-6.744 l -11.492,1.703 -0.208,-45.518 c 7.572,-1.225 14.781,-2.862 20.804,-4.697 l 0,0 0.013,0 c 0.043,-0.012 1.741,-0.228 2.788,-0.046 3.192,0.542 4.948,1.122 6.791,3.733 2.583,3.602 5.767,12.073 6.258,31.905 0.097,3.822 1.106,19.457 4.317,26.328 1,2.174 4.84,9.443 11.458,12.002 4.872,1.904 12.219,3.939 19.841,0.277 7.041,-3.434 11.421,-8.422 15.052,-20.117 1.297,-4.193 -1.061,-8.642 -5.24,-9.937 z m -45.104,-70.836 c -0.706,0.825 -2.73,2.962 -4.836,4.217 -1.95,1.146 -4.615,1.941 -7.187,2.729 l -4.032,1.286 c -5.593,1.99 -12.997,4.072 -20.96,5.532 l -0.146,-36.086 c 20.98,-0.578 39.287,1.774 42.825,7.834 0.327,0.52 0.466,1.185 0.466,1.973 -10e-4,2.897 -2.158,7.373 -6.13,12.515 z"
         id="path3528"
         inkscape:connector-curvature="0"
         style="fill:#f9a737" /><path
         d="m 628.039,149.606 c -4.318,0.055 -7.776,3.604 -7.776,7.93 0,0.043 0.212,2.564 0.212,2.885 0,0.318 -0.171,6.584 -0.197,7.473 -0.504,3.279 -1.655,8.504 -2.729,10.361 -1.191,2.082 -2.436,3.645 -4.644,6.162 -1.242,1.412 -4.259,2.818 -6.061,3.68 -2.037,0.939 -4.001,0.977 -8.614,1.027 l -4.825,0.062 c -20.632,0.664 -23.238,-16.119 -23.57,-19.793 -0.01,-0.543 -0.249,-13.336 -0.249,-13.613 0,-0.252 0.239,-20.673 0.249,-21.256 0.995,-13.628 4.207,-22.793 9.052,-25.755 3.734,-2.328 9.701,-1.698 18.253,1.867 10.522,4.388 17.68,15.864 17.756,15.956 1.855,3.02 5.505,4.425 8.906,3.481 3.42,-0.967 5.779,-4.059 5.779,-7.617 l 0,-34.381 c 0,-4.36 -3.539,-7.923 -7.943,-7.923 -4.353,0 -7.939,3.563 -7.939,7.923 l 0,14.126 c -3.071,-2.391 -6.58,-4.583 -10.461,-6.208 -5.007,-2.094 -20.233,-8.438 -32.674,-0.752 -9.745,5.996 -15.155,18.535 -16.564,38.314 -0.01,0.144 -0.308,22.146 -0.308,22.146 0,0 0.298,14.539 0.308,14.639 0.821,12.412 10.218,35.654 39.896,34.701 l 4.452,-0.049 c 5.365,-0.047 9.975,-0.082 15.243,-2.557 3.755,-1.762 8.047,-3.965 11.207,-7.514 2.284,-2.584 4.493,-5.221 6.545,-8.801 3.047,-5.346 4.455,-14.574 4.702,-16.354 0.033,-0.287 0.29,-9.047 0.29,-9.047 0.024,-0.123 -0.223,-3.318 -0.223,-3.318 -0.067,-4.359 -3.672,-7.871 -8.073,-7.795 z"
         id="path3530"
         inkscape:connector-curvature="0"
         style="fill:#f9a737" /><path
         d="m 758.149,201.547 c -0.281,-4.363 -4.056,-7.693 -8.426,-7.41 -2.951,0.199 -6.829,0.492 -11.147,0.955 0.014,-13.559 -0.127,-40.877 -0.67,-129.539 l 12.217,-0.172 c 4.364,-0.074 7.868,-3.708 7.804,-8.083 -0.068,-4.37 -3.68,-7.875 -8.056,-7.813 l -41.295,0.701 c -4.394,0.096 -7.868,3.689 -7.793,8.074 0.055,4.376 3.68,7.885 8.043,7.799 l 13.189,-0.239 c 0.125,17.351 0.218,36.056 0.331,54.978 l -46.666,7.801 0.085,-49.292 12.683,0 c 4.392,0 7.955,-3.56 7.955,-7.954 0,-4.374 -3.563,-7.934 -7.955,-7.934 l -41.666,0 c -4.381,0 -7.924,3.56 -7.924,7.934 0,4.394 3.543,7.954 7.924,7.954 l 13.113,0 -0.188,105.577 -13.346,-0.232 c -4.37,-0.074 -7.981,3.424 -8.06,7.842 -0.052,4.344 3.426,7.945 7.806,8.021 l 42.861,0.719 c 4.38,0.062 7.987,-3.439 8.056,-7.814 0.066,-4.396 -3.426,-7.99 -7.793,-8.049 l -13.667,-0.219 0.085,-40.48 46.797,-7.811 c 0.157,29.904 0.276,49.848 0.276,60.502 -10.81,2.045 -18.055,2.895 -22.452,7.83 -2.859,3.232 -2.524,8.098 0.676,11.008 3.188,2.938 6.741,1.182 11.224,-0.479 l -0.059,0.041 c 4.579,-2.078 19.684,-4.553 38.628,-5.779 4.373,-0.288 7.691,-4.056 7.41,-8.437 z"
         id="path3532"
         inkscape:connector-curvature="0"
         style="fill:#f9a737" /><path
         d="m 449.861,141.012 c -2.35,0.834 -6.895,3.115 -13.945,6.213 0,0 -9.852,-24.576 -10.201,-25.185 L 395.888,49.927 c -0.297,-0.769 -1.961,-3.308 -2.475,-3.854 -1.764,-1.882 -4.322,-2.806 -6.856,-2.454 l -34.003,4.675 c -4.342,0.59 -7.36,4.589 -6.797,8.921 0.582,4.354 4.566,7.376 8.917,6.818 0,0 12.656,-1.819 22.911,-3.204 -2.94,14.461 -14.652,73.576 -18.324,91.55 l -23.014,-1.117 c -4.371,-0.189 -8.099,3.18 -8.3,7.57 -0.189,4.367 3.21,8.062 7.582,8.266 l 39.489,1.873 c 4.371,0.189 8.085,-3.188 8.304,-7.547 0.197,-4.4 -2.36,-8.361 -8.016,-8.361 l 1.815,-12.094 36.688,-6.08 7.854,19.42 c -5.98,3.422 -9.715,5.584 -12.512,9.338 -2.614,3.537 -1.864,8.494 1.662,11.096 3.494,2.623 8.479,1.885 11.103,-1.637 3.525,-4.754 18.511,-11.854 33.31,-17.15 4.114,-1.49 6.251,-6.041 4.777,-10.158 -1.474,-4.108 -6.032,-6.26 -10.142,-4.786 z m -69.356,-12.785 9.729,-47.62 17.448,43.112 -27.177,4.508 z"
         id="path3534"
         inkscape:connector-curvature="0"
         style="fill:#f9a737" /><path
         d="m 545.174,61.084 c -0.246,0.034 -23.476,1.7 -49.453,2.199 l -50.627,0.845 c -2.301,0.017 -4.47,1.024 -5.95,2.803 -1.483,1.731 -2.164,4.026 -1.819,6.286 l 6.066,39.041 c 0.66,4.334 4.688,7.311 9.021,6.67 3.942,-0.592 6.757,-3.98 6.757,-7.844 0,-0.364 -3.188,-20.356 -4.801,-31.233 2.059,-0.01 33.583,-0.574 33.583,-0.574 l 0.205,103.629 -16.671,0.215 c -4.376,0.076 -7.878,3.684 -7.813,8.043 0.086,4.398 3.669,7.896 8.033,7.842 l 48.324,-0.723 c 4.374,-0.041 7.882,-3.676 7.824,-8.039 -0.068,-4.395 -3.673,-7.867 -8.046,-7.834 l -15.781,0.242 -0.205,-103.682 c 13.661,-0.381 25.354,-1.031 33.367,-1.469 -0.403,6.593 -0.599,11.565 -0.599,15.18 0,8.484 0.907,10.094 1.598,11.29 2.018,3.667 6.299,4.639 10.085,2.85 2.946,-1.368 4.526,-4.674 4.339,-7.919 -0.008,-0.133 0.15,-17.905 1.013,-29.267 0.17,-2.318 -0.641,-4.573 -2.274,-6.216 -1.608,-1.641 -3.888,-2.477 -6.176,-2.335 z"
         id="path3536"
         inkscape:connector-curvature="0"
         style="fill:#f9a737" /><path
         d="m 210.958,157.924 c -4.348,0.08 -7.803,3.635 -7.803,7.945 0,0.043 0.217,4.127 0.217,4.461 -0.004,0.322 -0.175,6.545 -0.202,7.457 -0.5,3.277 -1.64,8.502 -2.716,10.359 -1.185,2.086 -2.512,3.73 -4.668,6.154 -1.229,1.42 -4.239,2.842 -6.049,3.666 -2.032,0.961 -3.979,1.006 -8.592,1.051 l -4.844,0.078 c -20.633,0.633 -23.23,-16.102 -23.563,-19.803 -0.007,-0.543 -0.265,-13.355 -0.287,-13.605 0.022,-0.264 0.287,-20.689 0.287,-21.273 0.999,-13.625 4.198,-22.791 9.05,-25.749 3.718,-2.332 9.693,-1.696 18.239,1.864 10.522,4.405 17.701,15.847 17.746,15.97 1.868,3.005 5.518,4.447 8.926,3.466 3.421,-0.957 5.784,-4.059 5.784,-7.623 l 0,-34.35 c 0,-4.386 -3.56,-7.942 -7.928,-7.942 -4.401,0 -7.939,3.556 -7.939,7.942 l 0,14.101 c -3.083,-2.389 -6.581,-4.598 -10.481,-6.205 -4.99,-2.088 -20.226,-8.416 -32.661,-0.754 -9.743,5.991 -15.163,18.531 -16.584,38.319 -0.011,0.156 -0.011,0.305 -0.011,0.432 l -0.289,21.705 0,0.279 0.289,14.016 c 0,0.127 0,0.242 0.011,0.342 0.83,12.438 10.218,35.639 39.902,34.75 l 4.455,-0.09 c 5.357,-0.051 9.976,-0.074 15.244,-2.557 3.773,-1.762 8.031,-3.951 11.215,-7.518 2.282,-2.588 4.502,-5.221 6.534,-8.791 3.056,-5.348 4.44,-14.576 4.694,-16.355 0.044,-0.301 0.307,-9.289 0.307,-9.395 l -0.237,-4.529 c -0.071,-4.384 -3.683,-7.9 -8.046,-7.818 z"
         id="path3538"
         inkscape:connector-curvature="0"
         style="fill:#f9a737" /></g></g></svg>