<?xml version="1.0" encoding="UTF-8" standalone="no"?>
<svg
   xmlns:dc="http://purl.org/dc/elements/1.1/"
   xmlns:cc="http://creativecommons.org/ns#"
   xmlns:rdf="http://www.w3.org/1999/02/22-rdf-syntax-ns#"
   xmlns:svg="http://www.w3.org/2000/svg"
   xmlns="http://www.w3.org/2000/svg"
   xmlns:sodipodi="http://sodipodi.sourceforge.net/DTD/sodipodi-0.dtd"
   xmlns:inkscape="http://www.inkscape.org/namespaces/inkscape"
   width="32"
   height="32"
   viewBox="-4.771 0.104 0.6850688 0.68518186"
   version="1.1"
   id="svg8"
   sodipodi:docname="reddit-icon.svg"
   inkscape:version="0.92.2 (5c3e80d, 2017-08-06)">
  <metadata
     id="metadata14">
    <rdf:RDF>
      <cc:Work
         rdf:about="">
        <dc:format>image/svg+xml</dc:format>
        <dc:type
           rdf:resource="http://purl.org/dc/dcmitype/StillImage" />
        <dc:title></dc:title>
      </cc:Work>
    </rdf:RDF>
  </metadata>
  <defs
     id="defs12" />
  <sodipodi:namedview
     pagecolor="#ffffff"
     bordercolor="#666666"
     borderopacity="1"
     objecttolerance="10"
     gridtolerance="10"
     guidetolerance="10"
     inkscape:pageopacity="0"
     inkscape:pageshadow="2"
     inkscape:window-width="1920"
     inkscape:window-height="1001"
     id="namedview10"
     showgrid="false"
     inkscape:zoom="7.2095465"
     inkscape:cx="-8.2494658"
     inkscape:cy="24.065954"
     inkscape:window-x="-9"
     inkscape:window-y="-9"
     inkscape:window-maximized="1"
     inkscape:current-layer="svg8" />
  <g
     id="g824"
     transform="translate(-5.333e-5,-0.06533872)">
    <path
       style="fill:#ffffff;stroke-width:0.01280162"
       inkscape:connector-curvature="0"
       id="path2"
       d="m -4.3270398,0.67403286 c -0.025591,0.02557 -0.066799,0.03049 -0.1014017,0.03049 -0.034564,0 -0.075811,-0.0049 -0.1013632,-0.03049 m 0.2810084,-0.40471 -0.129578,-0.03049 -0.05031,0.153568 0.050323,-0.153568 m 0.2335143,0.04098 a 0.05107846,0.05107846 0 1 1 -0.1021569,0 0.05109126,0.05109126 0 0 1 0.1021569,0 z m 0.00846,0.306036 c 0,0.105767 -0.131383,0.191525 -0.2934387,0.191525 -0.1620685,0 -0.2934388,-0.08575 -0.2934388,-0.191525 0,-0.105767 0.1313703,-0.191525 0.2934388,-0.191525 0.1620557,0 0.2934387,0.08575 0.2934387,0.191525 z m -0.5830626,-0.02976 a 0.064789,0.064789 0 0 1 -0.038751,-0.05935 0.06477619,0.06477619 0 0 1 0.1143825,-0.04169 m 0.4297247,0.0013 a 0.064789,0.064789 0 0 1 0.115445,0.04038 0.0648274,0.0648274 0 0 1 -0.041349,0.06042" />
    <path
       style="stroke-width:0.01280162"
       inkscape:connector-curvature="0"
       id="path4"
       d="m -4.4298368,0.79018186 c -0.1688662,0 -0.3062404,-0.09166 -0.3062404,-0.204327 0,-0.0078 6.529e-4,-0.01549 0.00193,-0.02305 a 0.07765462,0.07765462 0 0 1 -0.036856,-0.06607 0.07768023,0.07768023 0 0 1 0.077578,-0.07759 c 0.019113,0 0.037329,0.007 0.051424,0.01948 0.053114,-0.03409 0.1245598,-0.05555 0.2033793,-0.05703 l 0.051744,-0.157921 0.011291,0.0027 2.689e-4,6.4e-5 0.120604,0.02839 a 0.0640081,0.0640081 0 0 1 0.058785,-0.03887 0.06395689,0.06395689 0 0 1 0.06388,0.06389 0.06395689,0.06395689 0 0 1 -0.06388,0.06388 0.06394409,0.06394409 0 0 1 -0.06388,-0.0638 l -0.1100428,-0.02591 -0.0419,0.127888 c 0.075952,0.003 0.1445431,0.02448 0.1957496,0.05782 a 0.07716816,0.07716816 0 0 1 0.052589,-0.02055 0.07768023,0.07768023 0 0 1 0.077591,0.07759 0.07705295,0.07705295 0 0 1 -0.039429,0.06759 c 0.00111,0.0071 0.00169,0.01425 0.00169,0.02152 -2.56e-5,0.112667 -0.1374126,0.204327 -0.3062787,0.204327 z m -0.2780768,-0.228547 a 0.11585465,0.11585465 0 0 0 -0.00256,0.02422 c 0,0.09856 0.1258911,0.178724 0.2806371,0.178724 0.1547459,0 0.2806371,-0.08018 0.2806371,-0.178724 0,-0.0078 -7.937e-4,-0.01555 -0.00234,-0.02313 a 0.01284002,0.01284002 0 0 1 -0.00127,-0.0056 c -0.00856,-0.03363 -0.031927,-0.06416 -0.065672,-0.08877 a 0.01269921,0.01269921 0 0 1 -0.00549,-0.0039 c -0.051296,-0.03527 -0.1245854,-0.05738 -0.2058628,-0.05738 -0.080458,0 -0.1531202,0.02167 -0.2043395,0.05634 a 0.01308325,0.01308325 0 0 1 -0.00513,0.0036 c -0.034475,0.02462 -0.058439,0.05535 -0.067337,0.08928 a 0.01269921,0.01269921 0 0 1 -0.00108,0.0049 c -6.4e-5,1.41e-4 -1.152e-4,2.82e-4 -1.92e-4,4.1e-4 z m 0.5133065,-0.106497 c 0.029687,0.02375 0.051475,0.05203 0.062613,0.08306 a 0.05162893,0.05162893 0 0 0 0.020547,-0.04147 0.05203858,0.05203858 0 0 0 -0.051987,-0.05199 0.05171854,0.05171854 0 0 0 -0.031172,0.01039 z m -0.4988151,-0.01039 a 0.05203858,0.05203858 0 0 0 -0.051975,0.05199 c 0,0.01553 0.00691,0.02996 0.018383,0.03969 0.011509,-0.03079 0.033515,-0.05884 0.063317,-0.08235 a 0.05205138,0.05205138 0 0 0 -0.029725,-0.0093 z m 0.4974837,-0.203226 c -0.021097,0 -0.038277,0.01718 -0.038277,0.03829 0,0.02111 0.01718,0.03828 0.038277,0.03828 0.021097,0 0.038277,-0.01717 0.038277,-0.03828 0,-0.02111 -0.017167,-0.03829 -0.038277,-0.03829 z m -0.232503,0.475798 c -0.051271,0 -0.087397,-0.0112 -0.1104267,-0.03424 a 0.01280421,0.01280421 0 0 1 0.018114,-0.0181 c 0.017986,0.01799 0.048172,0.02674 0.092312,0.02674 0.044127,0 0.074339,-0.0088 0.092351,-0.02674 a 0.01279516,0.01279516 0 1 1 0.018089,0.0181 c -0.023056,0.02304 -0.059169,0.03424 -0.1104393,0.03424 z" />
    <path
       style="fill:#ff4500;stroke-width:0.01280162"
       inkscape:connector-curvature="0"
       id="path6"
       d="m -4.3246331,0.50069886 c -0.02609,0 -0.047993,0.02185 -0.047993,0.04794 0,0.02608 0.021904,0.04721 0.047993,0.04721 0.02609,0 0.047212,-0.02114 0.047212,-0.04721 0,-0.02609 -0.021135,-0.04794 -0.047212,-0.04794 z m -0.2068486,0 c -0.026064,0 -0.047942,0.02188 -0.047942,0.04794 0,0.02606 0.021865,0.04721 0.047942,0.04721 0.026077,0 0.047212,-0.02115 0.047212,-0.04721 0,-0.02606 -0.021148,-0.04794 -0.047212,-0.04794 z" />
  </g>
</svg>
