<svg xmlns="http://www.w3.org/2000/svg" width="64" height="64"><path d="M5.247 8.9H58.64V55.1H5.247z" fill="#fff"/><path d="M57.997 8.913H44.24L22.583 24.206h20.18L58.48 39.845l-15.172 15.25h14.69c3.47 0 6.004-3.435 6.004-5.882V14.83c.008-2.474-2.533-5.917-6.004-5.917z" fill="#f14728"/><path d="M5.972 55.1h13.725l21.677-15.207H21.226L5.45 24.206 20.712 8.913H5.972C2.474 8.913 0 12.348 0 14.85v34.4C.02 51.656 2.494 55.1 5.972 55.1z" fill="#1f4fa3"/><path d="M26.053 25.65h-1.93L35.95 37.464c.545.45.965.996 1.902.933h2.02l-11.89-11.784c-.545-.604-.937-.965-1.93-.965z" fill="#f14728"/></svg>