<svg xmlns="http://www.w3.org/2000/svg" xmlns:xlink="http://www.w3.org/1999/xlink" height="60" width="204"><defs><clipPath id="A"><path d="M166.826 402.017c5.768-17.646 7.956-49.126 24.83-49.126 1.284 0 2.582.126 3.886.374-15.34 3.576-17.16 34.714-26.52 50.838a72.74 72.74 0 0 1-2.197-2.086"/></clipPath><clipPath id="B"><path d="M195.484 352.88h-28.716v51.212h28.716V352.88z"/></clipPath><clipPath id="C"><path d="M195.484 404.093V352.88h-28.716v51.212h28.716z"/></clipPath><clipPath id="D"><path d="M169.023 404.103c9.36-16.124 11.178-47.262 26.52-50.838 1.203.222 2.413.556 3.623.98-13.77 6.747-17.576 36.98-28.205 51.537-.644-.536-1.3-1.095-1.937-1.678"/></clipPath><clipPath id="E"><path d="M199.257 353.196h-30.14v52.517h30.14v-52.517z"/></clipPath><clipPath id="F"><path d="M199.257 405.713v-52.517h-30.14v52.517h30.14z"/></clipPath><clipPath id="G"><path d="M141.147 415.526h89.5v-31.384h-89.5v31.384z"/></clipPath><clipPath id="H"><path d="M140.174 416.526h91.464v-33.374h-91.464v33.374z"/></clipPath><clipPath id="I"><path d="M141.147 384.142h89.48v31.373h-89.48v-31.373z"/></clipPath><clipPath id="J"><path d="M141.147 415.526h89.5v-31.384h-89.5v31.384z"/></clipPath><clipPath id="K"><path d="M141.147 384.142h89.48v31.373h-89.48v-31.373z"/></clipPath><clipPath id="L"><path d="M141.162 415.515h89.462v-31.373h-89.462v31.373z"/></clipPath><clipPath id="M"><path d="M230.638 384.152h-89.464v31.374h89.464v-31.374z"/></clipPath><clipPath id="N"><path d="M230.638 415.526v-31.374h-89.464v31.374h89.464z"/></clipPath><linearGradient id="O" spreadMethod="pad" y2="384.152" x2="185.906" y1="415.525" x1="185.906" xlink:href="#CP"><stop offset="0" stop-color="#231f20"/><stop offset="1" stop-color="#fff"/></linearGradient><mask id="P" height="1" width="1" y="0" x="0" maskUnits="userSpaceOnUse"><g clip-path="url(#G)"><g clip-path="url(#H)"><g clip-path="url(#I)"><g clip-path="url(#J)"><g clip-path="url(#K)"><g clip-path="url(#L)"><g clip-path="url(#M)"><g clip-path="url(#N)"><path d="M230.638 384.152h-89.464v31.374h89.464v-31.374z" fill="url(#O)" stroke="none"/></g></g></g></g></g></g></g></g></mask><clipPath id="Q"><path d="M185.528 413.668h28.657V360.46h-28.657v53.207z"/></clipPath><clipPath id="R"><path d="M185.532 360.462h28.6v53.206h-28.6v-53.206z"/></clipPath><clipPath id="S"><path d="M209.912 360.462l4.235 3.7c-5.864 17.564-7.963 49.496-24.955 49.496a19.81 19.81 0 0 1-3.664-.343c15.477-3.846 17.46-37.523 24.384-52.863"/></clipPath><clipPath id="T"><path d="M185.566 413.666h28.62V360.46h-28.62v53.205z"/></clipPath><clipPath id="U"><path d="M185.566 360.46v53.205h28.62V360.46h-28.62z"/></clipPath><clipPath id="V"><path d="M141.147 415.526h89.5v-31.384h-89.5v31.384z"/></clipPath><clipPath id="W"><path d="M140.174 416.526h91.464v-33.374h-91.464v33.374z"/></clipPath><clipPath id="X"><path d="M141.147 384.142h89.48v31.373h-89.48v-31.373z"/></clipPath><clipPath id="Y"><path d="M141.147 415.526h89.5v-31.384h-89.5v31.384z"/></clipPath><clipPath id="Z"><path d="M141.147 384.142h89.48v31.373h-89.48v-31.373z"/></clipPath><clipPath id="a"><path d="M141.162 415.515h89.462v-31.373h-89.462v31.373z"/></clipPath><clipPath id="b"><path d="M230.638 384.152h-89.464v31.374h89.464v-31.374z"/></clipPath><clipPath id="c"><path d="M230.638 415.526v-31.374h-89.464v31.374h89.464z"/></clipPath><mask id="d" height="1" width="1" y="0" x="0" maskUnits="userSpaceOnUse"><g clip-path="url(#V)"><g clip-path="url(#W)"><g clip-path="url(#X)"><g clip-path="url(#Y)"><g clip-path="url(#Z)"><g clip-path="url(#a)"><g clip-path="url(#b)"><g clip-path="url(#c)"><path d="M230.638 384.152h-89.464v31.374h89.464v-31.374z" fill="url(#O)" stroke="none"/></g></g></g></g></g></g></g></g></mask><clipPath id="e"><path d="M182.5 413.692h6.682v-.367H182.5v.367z"/></clipPath><clipPath id="f"><path d="M182.52 413.325h6.668v.367h-6.668v-.367z"/></clipPath><clipPath id="g"><path d="M181.57 412.222c13.863-7.25 15.067-40.086 26.13-53.42.74.522 1.475 1.076 2.2 1.66-6.923 15.34-8.905 49.02-24.38 52.863-1.322-.246-2.64-.6-3.96-1.103"/></clipPath><clipPath id="h"><path d="M209.982 358.734h-28.34v54.526h28.34v-54.526z"/></clipPath><clipPath id="i"><path d="M209.982 413.26v-54.526h-28.34v54.526h28.34z"/></clipPath><clipPath id="j"><path d="M170.96 405.78c10.63-14.556 14.435-44.8 28.205-51.537 2.83.998 5.678 2.532 8.535 4.557-11.063 13.335-12.267 46.17-26.13 53.42-3.52-1.308-7.054-3.488-10.6-6.44"/></clipPath><clipPath id="k"><path d="M207.683 354.228h-36.74v57.98h36.74v-57.98z"/></clipPath><clipPath id="l"><path d="M207.683 412.207v-57.98h-36.74v57.98h36.74z"/></clipPath><clipPath id="m"><path d="M107.023 417.34h89.588v-76.127h-89.588v76.127z"/></clipPath><clipPath id="n"><path d="M106.14 418.335h91.47v-78.123h-91.47v78.123z"/></clipPath><clipPath id="o"><path d="M107.028 341.218h89.456v76.12h-89.456v-76.12z"/></clipPath><clipPath id="p"><path d="M107.023 417.34h89.588v-76.127h-89.588v76.127z"/></clipPath><clipPath id="q"><path d="M107.028 341.218h89.456v76.12h-89.456v-76.12z"/></clipPath><clipPath id="r"><path d="M196.495 341.218h-89.472v76.12h89.472v-76.12z"/></clipPath><clipPath id="s"><path d="M107.14 417.335h89.47v-76.122h-89.47v76.122z"/></clipPath><clipPath id="t"><path d="M107.14 341.213v76.123h89.47v-76.123h-89.47z"/></clipPath><linearGradient id="u" spreadMethod="pad" y2="417.334" x2="151.875" y1="341.213" x1="151.875" xlink:href="#CP"><stop offset="0" stop-color="#231f20"/><stop offset=".462" stop-color="#231f20"/><stop offset="1" stop-color="#fff"/></linearGradient><mask id="v" height="1" width="1" y="0" x="0" maskUnits="userSpaceOnUse"><g clip-path="url(#m)"><g clip-path="url(#n)"><g clip-path="url(#o)"><g clip-path="url(#p)"><g clip-path="url(#q)"><g clip-path="url(#r)"><g clip-path="url(#s)"><g clip-path="url(#t)"><path d="M107.14 417.335h89.47v-76.122h-89.47v76.122z" fill="url(#u)" stroke="none"/></g></g></g></g></g></g></g></g></mask><clipPath id="w"><path d="M154.597 406.73h12.227v-19.47h-12.227v19.47z"/></clipPath><clipPath id="x"><path d="M154.605 387.26h12.206v19.472h-12.206V387.26z"/></clipPath><clipPath id="y"><path d="M204.64 416.495h89.5v-54.65h-89.5v54.65z"/></clipPath><clipPath id="z"><path d="M203.64 417.495h91.47v-56.65h-91.47v56.65z"/></clipPath><clipPath id="AA"><path d="M204.647 361.844h89.482v54.648h-89.482v-54.648z"/></clipPath><clipPath id="AB"><path d="M204.64 416.495h89.5v-54.65h-89.5v54.65z"/></clipPath><clipPath id="AC"><path d="M204.647 361.844h89.482v54.648h-89.482v-54.648z"/></clipPath><clipPath id="AD"><path d="M204.657 416.492h89.47v-54.648h-89.47v54.648z"/></clipPath><clipPath id="AE"><path d="M294.1 361.846h-89.47v54.65h89.47v-54.65z"/></clipPath><clipPath id="AF"><path d="M294.1 416.495v-54.65h-89.47v54.65h89.47z"/></clipPath><linearGradient id="AG" spreadMethod="pad" y2="361.846" x2="249.375" y1="416.494" x1="249.375" xlink:href="#CP"><stop offset="0" stop-color="#2e2a2b"/><stop offset=".731" stop-color="#fff"/><stop offset="1" stop-color="#fff"/></linearGradient><mask id="AH" height="1" width="1" y="0" x="0" maskUnits="userSpaceOnUse"><g clip-path="url(#y)"><g clip-path="url(#z)"><g clip-path="url(#AA)"><g clip-path="url(#AB)"><g clip-path="url(#AC)"><g clip-path="url(#AD)"><g clip-path="url(#AE)"><g clip-path="url(#AF)"><path d="M294.1 361.846h-89.47v54.65h89.47v-54.65z" fill="url(#AG)" stroke="none"/></g></g></g></g></g></g></g></g></mask><clipPath id="AI"><path d="M221.458 415.068h49.877v-62.164h-49.877v62.164z"/></clipPath><clipPath id="AJ"><path d="M221.504 352.904h49.826v62.132h-49.826v-62.132z"/></clipPath><clipPath id="AK"><path d="M262.806 415.036c-7.84-30.236-24.22-54.525-37.95-60.648-.008-.006-.02-.01-.023-.01a21.68 21.68 0 0 0-.742-.316c-.032-.01-.062-.024-.1-.036-.07-.03-.14-.052-.2-.08-.033-.008-.064-.025-.093-.037l-.345-.123c-.048-.015-.095-.033-.14-.048-.053-.014-.1-.038-.17-.056-.05-.022-.105-.037-.163-.058-.05-.015-.102-.027-.146-.048-.1-.03-.194-.054-.294-.087-.043-.01-.08-.025-.124-.035-.062-.018-.133-.035-.198-.053-.048-.012-.086-.025-.134-.035-.07-.023-.148-.04-.216-.058l-.264-.055a5.53 5.53 0 0 1 1.964-.347c13.022 0 26.147 23.333 47.87 62.132h-8.53z"/></clipPath><clipPath id="AL"><path d="M221.457 415.068h49.83v-62.132h-49.83v62.132z"/></clipPath><clipPath id="AM"><path d="M221.458 352.935v62.133h49.83v-62.133h-49.83z"/></clipPath><clipPath id="AN"><path d="M85.885 420.357h89.473v-76.144H85.885v76.144z"/></clipPath><clipPath id="AO"><path d="M84.892 421.33h91.466v-78.117H84.892v78.117z"/></clipPath><clipPath id="AP"><path d="M85.887 344.24h89.457v76.116H85.887V344.24z"/></clipPath><clipPath id="AQ"><path d="M85.885 420.357h89.473v-76.144H85.885v76.144z"/></clipPath><clipPath id="AR"><path d="M85.887 344.24h89.457v76.116H85.887V344.24z"/></clipPath><clipPath id="AS"><path d="M175.35 344.24H85.885v76.116h89.466V344.24z"/></clipPath><clipPath id="AT"><path d="M85.892 420.33h89.466v-76.117H85.892v76.117z"/></clipPath><clipPath id="AU"><path d="M85.892 344.213v76.118h89.467v-76.118H85.892z"/></clipPath><linearGradient id="AV" spreadMethod="pad" y2="420.329" x2="130.625" y1="344.213" x1="130.625" xlink:href="#CP"><stop offset="0" stop-color="#231f20"/><stop offset="1" stop-color="#fff"/></linearGradient><mask id="AW" height="1" width="1" y="0" x="0" maskUnits="userSpaceOnUse"><g clip-path="url(#AN)"><g clip-path="url(#AO)"><g clip-path="url(#AP)"><g clip-path="url(#AQ)"><g clip-path="url(#AR)"><g clip-path="url(#AS)"><g clip-path="url(#AT)"><g clip-path="url(#AU)"><path d="M85.892 420.33h89.466v-76.117H85.892v76.117z" fill="url(#AV)" stroke="none"/></g></g></g></g></g></g></g></g></mask><clipPath id="AX"><path d="M111.2 413.692h45.352V351.26H111.2v62.433z"/></clipPath><clipPath id="AY"><path d="M111.217 351.26h45.347v62.434h-45.347V351.26z"/></clipPath><clipPath id="AZ"><path d="M120.886 365.985c13.37 25.763 19.705 42.07 30.884 46.48-11.526-4.512-24.5-21.528-30.884-46.48"/></clipPath><clipPath id="Aa"><path d="M120.87 412.433h30.885V365.95H120.87v46.482z"/></clipPath><clipPath id="Ab"><path d="M120.87 365.952v46.48h30.885v-46.48H120.87z"/></clipPath><clipPath id="Ac"><path d="M64.298 437.096h135.628v-137.4H64.298v137.4z"/></clipPath><clipPath id="Ad"><path d="M63.298 438.096h137.628v-139.4H63.298v139.4z"/></clipPath><clipPath id="Ae"><path d="M98.22 328.665h67.698v79.73H98.22v-79.73z"/></clipPath><clipPath id="Af"><path d="M64.298 437.096h135.628v-137.4H64.298v137.4z"/></clipPath><clipPath id="Ag"><path d="M98.22 328.665h67.698v79.73H98.22v-79.73z"/></clipPath><clipPath id="Ah"><path d="M98.234 346.8l32.406-18.126 35.3 61.6-32.403 18.132-35.294-61.605z"/></clipPath><clipPath id="Ai"><path d="M199.926 389.262l-50.094-89.575-85.534 47.834 50.093 89.575 85.535-47.834z"/></clipPath><clipPath id="Aj"><path d="M199.926 389.262l-50.093-89.575-85.535 47.834 50.093 89.575 85.535-47.834z"/></clipPath><linearGradient id="Ak" spreadMethod="pad" y2="289.807" x2="88.162" y1="393.9" x1="146.375" xlink:href="#CP"><stop offset="0" stop-color="#231f20"/><stop offset=".129" stop-color="#fff"/><stop offset=".4" stop-color="#fff"/><stop offset="1" stop-color="#fff"/></linearGradient><mask id="Al" height="1" width="1" y="0" x="0" maskUnits="userSpaceOnUse"><g clip-path="url(#Ac)"><g clip-path="url(#Ad)"><g clip-path="url(#Ae)"><g clip-path="url(#Af)"><g clip-path="url(#Ag)"><g clip-path="url(#Ah)"><g clip-path="url(#Ai)"><g clip-path="url(#Aj)"><path d="M199.926 389.262l-50.094-89.575-85.534 47.834 50.093 89.575 85.535-47.834z" fill="url(#Ak)" stroke="none"/></g></g></g></g></g></g></g></g></mask><clipPath id="Am"><path d="M125.885 387.26h28.722V351.3h-28.722v35.97z"/></clipPath><clipPath id="An"><path d="M125.895 351.3h28.7v35.97h-28.7V351.3z"/></clipPath><clipPath id="Ao"><path d="M126.956 351.382l-.242-.028c-.02-.004-.032-.004-.047-.007l-.206-.02c-.01 0-.023-.003-.033-.003l-.493-.035h-.05c13.532.38 19.718 7.154 22.785 16.98l5.93 19c-5.668-7.977-11.362-17.484-17.087-28.14-2.76-5.135-6.96-7.28-10.557-7.737"/></clipPath><clipPath id="Ap"><path d="M125.894 387.258h28.714v-35.97h-28.714v35.97z"/></clipPath><clipPath id="Aq"><path d="M125.893 351.287v35.97h28.714v-35.97h-28.714z"/></clipPath><clipPath id="Ar"><path d="M126.956 351.387v-.005c3.598.458 7.798 2.6 10.557 7.737 5.725 10.65 11.422 20.163 17.082 28.14 2.062 6.468 3.76 11.417 5.43 15.182-11.286-10.742-22.617-28.606-33.068-51.054"/></clipPath><clipPath id="As"><path d="M127.028 402.367h33.068v-51.06h-33.068v51.06z"/></clipPath><clipPath id="At"><path d="M127.028 351.307v51.06h33.068v-51.06h-33.068z"/></clipPath><clipPath id="Au"><path d="M156.1 413.58c-.04-.008-.07-.01-.1-.013-.06-.012-.125-.023-.188-.028l-.113-.012-.2-.035c-.032-.002-.063-.008-.088-.01l-.435-.077c-.018-.003-.036-.008-.05-.008l-.2-.04-.106-.03-.205-.04-.096-.023-.717-.186c-.02-.008-.053-.014-.083-.025-.07-.017-.14-.042-.216-.066l-.098-.027-.215-.065c-.026-.007-.05-.02-.075-.02l-.497-.172-.24-.086-.096-.04c-.072-.02-.146-.05-.2-.075-.023-.012-.052-.022-.07-.035-11.18-4.412-17.514-20.718-30.884-46.48a123.95 123.95 0 0 1-2.819-14.716h.717l6.663.01h.063l.425.01.493.035c.01 0 .023.003.03.003.07.01.14.015.206.02.018.003.028.003.05.007.073.007.16.016.242.028v.005c10.45 22.448 21.782 40.312 33.068 51.054 1.242 2.813 2.464 4.96 3.805 6.585-.785 1.326-1.642 2.43-2.6 3.236-.01.005-.02.008-.028.018-.052.022-.105.047-.158.075a3.34 3.34 0 0 1-.158.081c-.05.02-.106.047-.154.075a.94.94 0 0 0-.18.08c-.05.016-.093.04-.14.06a6.14 6.14 0 0 0-.297.123l-.126.05a2.23 2.23 0 0 0-.22.087c-.038.01-.078.026-.12.038-.106.035-.206.073-.304.106-.017.005-.023.005-.027.01-.12.037-.235.067-.355.1-.028.013-.05.018-.08.026-.106.028-.2.058-.296.084-.025.003-.05.01-.07.016a9.25 9.25 0 0 1-.744.163c-.023.002-.053.01-.078.016l-.322.05c-.02.01-.04.01-.063.014l-.383.05c-.02.003-.042.008-.067.008-.1.016-.196.023-.292.032-.163-.012-.316-.027-.47-.042"/></clipPath><clipPath id="Av"><path d="M119.313 343.45l-12.043 68.3 55.044 9.705 12.043-68.3-55.044-9.706z"/></clipPath><clipPath id="Aw"><path d="M119.313 343.45l-12.043 68.3 55.043 9.706 12.043-68.3-55.044-9.706z"/></clipPath><clipPath id="Ax"><path d="M232.177 398.296l-6.468-20.63c7.06 9.714 14.012 21.93 20.63 36.033-7.72-2.427-11.84-7.976-14.163-15.402"/></clipPath><clipPath id="Ay"><path d="M225.748 413.707h20.63v-36.032h-20.63v36.032z"/></clipPath><clipPath id="Az"><path d="M225.748 377.675v36.033h20.63v-36.033h-20.63z"/></clipPath><clipPath id="BA"><path d="M207.146 420.525h89.495v-31.198h-89.495v31.198z"/></clipPath><clipPath id="BB"><path d="M206.17 421.525h91.47V388.35h-91.47v33.176z"/></clipPath><clipPath id="BC"><path d="M207.146 389.327h89.48v31.176h-89.48v-31.176z"/></clipPath><clipPath id="BD"><path d="M207.146 420.525h89.495v-31.198h-89.495v31.198z"/></clipPath><clipPath id="BE"><path d="M207.146 389.327h89.48v31.176h-89.48v-31.176z"/></clipPath><clipPath id="BF"><path d="M207.146 420.503h89.472v-31.176h-89.472v31.176z"/></clipPath><clipPath id="BG"><path d="M296.64 389.35h-89.47v31.176h89.47V389.35z"/></clipPath><clipPath id="BH"><path d="M296.64 420.525V389.35h-89.47v31.176h89.47z"/></clipPath><linearGradient id="BI" spreadMethod="pad" y2="389.349" x2="251.906" y1="420.525" x1="251.906" xlink:href="#CP"><stop offset="0" stop-color="#231f20"/><stop offset="1" stop-color="#fff"/></linearGradient><mask id="BJ" height="1" width="1" y="0" x="0" maskUnits="userSpaceOnUse"><g clip-path="url(#BA)"><g clip-path="url(#BB)"><g clip-path="url(#BC)"><g clip-path="url(#BD)"><g clip-path="url(#BE)"><g clip-path="url(#BF)"><g clip-path="url(#BG)"><g clip-path="url(#BH)"><path d="M296.64 389.35h-89.47v31.176h89.47V389.35z" fill="url(#BI)" stroke="none"/></g></g></g></g></g></g></g></g></mask><clipPath id="BK"><path d="M214.456 421.616h58.7v-73.628h-58.7v73.628z"/></clipPath><clipPath id="BL"><path d="M224.852 354.388h37.957v60.648h-37.957v-60.648z"/></clipPath><clipPath id="BM"><path d="M225.933 354.903l-1.076-.515c13.73 6.123 30.108 30.412 37.95 60.648h-1.6c-18.014-32.18-23.808-53.72-35.283-60.133"/></clipPath><clipPath id="BN"><path d="M273.147 413.298l-11.516-65.3-47.175 8.318 11.516 65.3 47.175-8.318z"/></clipPath><clipPath id="BO"><path d="M273.147 413.298l-11.516-65.3-47.175 8.318 11.516 65.3 47.175-8.318z"/></clipPath><clipPath id="BP"><path d="M256.184 415.036h-6.678c-.225 0-.445-.005-.665-.008l-.628-.007h-.015l-1.267-.06-.6-1.262c-6.62-14.102-13.572-26.32-20.63-36.033-3.32-10.214-5.754-16.413-8.74-20.06 1.278-2.177 2.76-3.708 4.53-4.36.052.017.092.024.137.033.01.007.02.007.03.007.03.005.063.018.095.02.073.017.15.033.22.058l.134.035c.065.018.136.035.198.05.04.018.08.027.124.037.103.033.195.055.294.087.044.02.093.036.146.048.055.02.113.036.163.06.06.018.118.03.17.053.046.012.096.033.14.053.115.04.228.075.347.12.03.01.06.028.093.034.07.03.143.05.2.084.028.01.058.023.1.033a21.68 21.68 0 0 1 .742.316c.002 0 .015.005.023.01.357.158.716.332 1.073.515 11.478 6.412 17.272 27.952 35.286 60.133h-5.032z"/></clipPath><clipPath id="BQ"><path d="M261.187 353.24h-44.25v61.8h44.25v-61.8z"/></clipPath><clipPath id="BR"><path d="M261.187 415.03v-61.8h-44.25v61.8h44.25z"/></clipPath><clipPath id="BS"><path d="M143.566 416.188h37.986v-8.76h-37.986v8.76z"/></clipPath><clipPath id="BT"><path d="M142.566 417.18h39.976v-10.752h-39.976v10.752z"/></clipPath><clipPath id="BU"><path d="M143.568 407.435h37.98v8.753h-37.98v-8.753z"/></clipPath><clipPath id="BV"><path d="M143.566 416.188h37.986v-8.76h-37.986v8.76z"/></clipPath><clipPath id="BW"><path d="M143.568 407.435h37.98v8.753h-37.98v-8.753z"/></clipPath><clipPath id="BX"><path d="M181.552 407.435h-37.976v8.753h37.976v-8.753z"/></clipPath><clipPath id="BY"><path d="M143.566 416.18h37.976v-8.753h-37.976v8.753z"/></clipPath><clipPath id="BZ"><path d="M143.566 407.428v8.752h37.976v-8.752h-37.976z"/></clipPath><linearGradient id="Ba" spreadMethod="pad" y2="416.181" x2="162.555" y1="407.428" x1="162.555" xlink:href="#CP"><stop offset="0" stop-color="#fff"/><stop offset=".363" stop-color="#fff"/><stop offset="1" stop-color="#918f90"/></linearGradient><mask id="Bb" height="1" width="1" y="0" x="0" maskUnits="userSpaceOnUse"><g clip-path="url(#BS)"><g clip-path="url(#BT)"><g clip-path="url(#BU)"><g clip-path="url(#BV)"><g clip-path="url(#BW)"><g clip-path="url(#BX)"><g clip-path="url(#BY)"><g clip-path="url(#BZ)"><path d="M143.566 416.18h37.976v-8.753h-37.976v8.753z" fill="url(#Ba)" stroke="none"/></g></g></g></g></g></g></g></g></mask><clipPath id="Bc"><path d="M154.208 420.9h30.08v-18.168h-30.08V420.9z"/></clipPath><clipPath id="Bd"><path d="M155.173 407.816h27.347v5.876h-27.347v-5.876z"/></clipPath><clipPath id="Be"><path d="M156.56 413.622l1.087.046c3.112 0 5.8-.963 8.192-2.65 2.515 1.98 5.553 2.674 9.773 2.674h-20.437c.47 0 .932-.026 1.385-.07"/></clipPath><clipPath id="Bf"><path d="M158.155 420.9l18.385-7.625-3.947-9.516-18.385 7.626 3.947 9.515z"/></clipPath><clipPath id="Bg"><path d="M158.155 420.9l18.385-7.626-3.947-9.516-18.385 7.626 3.947 9.516z"/></clipPath><clipPath id="Bh"><path d="M175.613 413.692c-4.22 0-7.258-.693-9.773-2.674.835-.592 1.64-1.276 2.402-2.038 3.497 2.226 6.963 3.698 10.38 4.34 1.305.246 2.606.37 3.888.37h-6.897z"/></clipPath><clipPath id="Bi"><path d="M164.075 412.92l15.6 7.07 4.614-10.177-15.6-7.07-4.614 10.177z"/></clipPath><clipPath id="Bj"><path d="M164.075 412.92l15.6 7.072 4.613-10.177-15.6-7.072-4.613 10.177z"/></clipPath><clipPath id="Bk"><path d="M186.546 410.283h89.5V361.15h-89.5v49.133z"/></clipPath><clipPath id="Bl"><path d="M185.578 411.246h91.47V360.15h-91.47v51.096z"/></clipPath><clipPath id="Bm"><path d="M186.546 361.187h89.482v49.096h-89.482v-49.096z"/></clipPath><clipPath id="Bn"><path d="M186.546 410.283h89.5V361.15h-89.5v49.133z"/></clipPath><clipPath id="Bo"><path d="M186.546 361.187h89.482v49.096h-89.482v-49.096z"/></clipPath><clipPath id="Bp"><path d="M276.023 361.187h-89.47v49.096h89.47v-49.096z"/></clipPath><clipPath id="Bq"><path d="M186.578 410.246h89.47V361.15h-89.47v49.095z"/></clipPath><clipPath id="Br"><path d="M186.58 361.15v49.095h89.47V361.15h-89.47z"/></clipPath><linearGradient id="Bs" spreadMethod="pad" y2="410.247" x2="231.313" y1="361.15" x1="231.313" xlink:href="#CP"><stop offset="0" stop-color="#231f20"/><stop offset="1" stop-color="#fff"/></linearGradient><mask id="Bt" height="1" width="1" y="0" x="0" maskUnits="userSpaceOnUse"><g clip-path="url(#Bk)"><g clip-path="url(#Bl)"><g clip-path="url(#Bm)"><g clip-path="url(#Bn)"><g clip-path="url(#Bo)"><g clip-path="url(#Bp)"><g clip-path="url(#Bq)"><g clip-path="url(#Br)"><path d="M186.578 410.246h89.47V361.15h-89.47v49.095z" fill="url(#Bs)" stroke="none"/></g></g></g></g></g></g></g></g></mask><clipPath id="Bu"><path d="M214.165 414.975h32.908v-50.787h-32.908v50.787z"/></clipPath><clipPath id="Bv"><path d="M214.167 364.188h32.753v50.772h-32.753v-50.772z"/></clipPath><clipPath id="Bw"><path d="M225.7 377.66l6.473 20.636c2.32 7.428 6.433 12.977 14.158 15.402l.593 1.262c-12.6-.753-18.473-7.16-21.435-16.642-5.178-16.558-8.314-27.292-11.333-34.13 3.857 3.688 7.712 8.214 11.544 13.472"/></clipPath><clipPath id="Bx"><path d="M247.073 364.203h-32.77v50.772h32.77v-50.772z"/></clipPath><clipPath id="By"><path d="M247.073 414.974v-50.77h-32.77v50.77h32.77z"/></clipPath><linearGradient id="Bz" spreadMethod="pad" y2="337.71" x2="181.125" y1="414.088" x1="181.125" xlink:href="#CP"><stop offset="0" stop-color="#0994dc"/><stop offset=".11" stop-color="#0994dc"/><stop offset=".35" stop-color="#66cef5"/><stop offset=".45" stop-color="#66cef5"/><stop offset=".846" stop-color="#127bca"/><stop offset="1" stop-color="#127bca"/></linearGradient><linearGradient id="CA" spreadMethod="pad" y2="337.638" x2="184.188" y1="415.963" x1="184.188" xlink:href="#CP"><stop offset="0" stop-color="#0e76bc"/><stop offset=".176" stop-color="#0e76bc"/><stop offset=".36" stop-color="#36aee8"/><stop offset=".52" stop-color="#36aee8"/><stop offset=".846" stop-color="#00adef"/><stop offset="1" stop-color="#00adef"/></linearGradient><linearGradient id="CB" spreadMethod="pad" y2="416.972" x2="199.875" y1="354.65" x1="199.875" xlink:href="#CP"><stop offset="0" stop-color="#1c63b7"/><stop offset=".5" stop-color="#33bdf2"/><stop offset="1" stop-color="#33bdf2"/></linearGradient><linearGradient id="CC" spreadMethod="pad" y2="342.579" x2="195.813" y1="423.9" x1="195.813" xlink:href="#CP"><stop offset="0" stop-color="#166ab8"/><stop offset=".099" stop-color="#166ab8"/><stop offset=".4" stop-color="#36aee8"/><stop offset=".516" stop-color="#36aee8"/><stop offset=".846" stop-color="#0798dd"/><stop offset="1" stop-color="#0798dd"/></linearGradient><linearGradient id="CD" spreadMethod="pad" y2="337.051" x2="189.313" y1="423.525" x1="189.313" xlink:href="#CP"><stop offset="0" stop-color="#124379"/><stop offset=".11" stop-color="#124379"/><stop offset=".39" stop-color="#1487cb"/><stop offset=".52" stop-color="#1487cb"/><stop offset=".78" stop-color="#165197"/><stop offset="1" stop-color="#165197"/></linearGradient><linearGradient id="CE" spreadMethod="pad" y2="416.954" x2="246.375" y1="356.244" x1="246.375" xlink:href="#CP"><stop offset="0" stop-color="#136ab4"/><stop offset=".315" stop-color="#59caf5"/><stop offset=".6" stop-color="#59caf5"/><stop offset="1" stop-color="#59caf5"/></linearGradient><linearGradient id="CF" spreadMethod="pad" y2="416.813" x2="136.313" y1="354.65" x1="136.313" xlink:href="#CP"><stop offset="0" stop-color="#318ed5"/><stop offset=".675" stop-color="#38a7e4"/><stop offset="1" stop-color="#38a7e4"/></linearGradient><linearGradient id="CG" spreadMethod="pad" y2="414.888" x2="140.25" y1="354.463" x1="140.25" xlink:href="#CP"><stop offset="0" stop-color="#05a1e6"/><stop offset="1" stop-color="#05a1e6"/></linearGradient><linearGradient id="CH" spreadMethod="pad" y2="402.367" x2="143.563" y1="351.307" x1="143.563" xlink:href="#CP"><stop offset="0" stop-color="#1959a6"/><stop offset=".154" stop-color="#1959a6"/><stop offset=".484" stop-color="#05a1e6"/><stop offset=".5" stop-color="#05a1e6"/><stop offset=".918" stop-color="#7ec5ea"/><stop offset="1" stop-color="#7ec5ea"/></linearGradient><linearGradient id="CI" spreadMethod="pad" y2="410.014" x2="135.55" y1="354.65" x1="145.313" xlink:href="#CP"><stop offset="0" stop-color="#165096"/><stop offset=".104" stop-color="#165096"/><stop offset="1" stop-color="#0d82ca"/></linearGradient><linearGradient id="CJ" spreadMethod="pad" y2="414.896" x2="236.063" y1="385.963" x1="236.063" xlink:href="#CP"><stop offset="0" stop-color="#05a1e6"/><stop offset=".649" stop-color="#05a1e6"/><stop offset=".874" stop-color="#0495d6"/><stop offset="1" stop-color="#0495d6"/></linearGradient><linearGradient id="CK" spreadMethod="pad" y2="350.933" x2="237.83" y1="417.65" x1="249.594" xlink:href="#CP"><stop offset="0" stop-color="#38a7e4"/><stop offset=".357" stop-color="#38a7e4"/><stop offset=".962" stop-color="#0e88d3"/><stop offset="1" stop-color="#0e88d3"/></linearGradient><linearGradient id="CL" spreadMethod="pad" y2="352.093" x2="239.063" y1="415.213" x1="239.063" xlink:href="#CP"><stop offset="0" stop-color="#168cd4"/><stop offset=".5" stop-color="#1c87cc"/><stop offset="1" stop-color="#154b8d"/></linearGradient><linearGradient id="CM" spreadMethod="pad" y2="410.471" x2="173.102" y1="416.502" x1="158.563" xlink:href="#CP"><stop offset="0" stop-color="#97d6ee"/><stop offset=".703" stop-color="#55c1ea"/><stop offset="1" stop-color="#55c1ea"/></linearGradient><linearGradient id="CN" spreadMethod="pad" y2="414.512" x2="178.479" y1="409.307" x1="166.996" xlink:href="#CP"><stop offset="0" stop-color="#7accec"/><stop offset=".335" stop-color="#7accec"/><stop offset=".841" stop-color="#3fb7ed"/><stop offset="1" stop-color="#3fb7ed"/></linearGradient><linearGradient id="CO" spreadMethod="pad" y2="350.007" x2="230.688" y1="411.744" x1="230.688" xlink:href="#CP"><stop offset="0" stop-color="#1da7e7"/><stop offset="1" stop-color="#37abe7"/></linearGradient><linearGradient id="CP" gradientUnits="userSpaceOnUse"/></defs><g transform="matrix(.556543 0 0 .556543 -67.371346 270.0929)"><g transform="matrix(1.25 0 0 -1.25 0 49.00003)"><g clip-path="url(#A)"><g clip-path="url(#B)"><g clip-path="url(#C)"><path d="M195.484 352.88h-28.716v51.212h28.716V352.88z" fill="url(#Bz)"/></g></g></g><g clip-path="url(#D)"><g clip-path="url(#E)"><g clip-path="url(#F)"><path d="M199.257 353.196h-30.14v52.517h30.14v-52.517z" fill="url(#CA)"/></g></g></g></g><path d="M228.138-468.115c-1.602 0-3.23.156-4.86.468-4.268.804-8.604 2.64-12.975 5.423 1.195 1.18 2.33 2.526 3.397 4 4.445-3.7 8.86-6.416 13.263-8.055a29.76 29.76 0 0 1 4.947-1.375 15.24 15.24 0 0 0-3.773-.46" fill="#14559a"/><g mask="url(#P)" transform="matrix(1.25 0 0 -1.25 0 49.00003)"><g clip-path="url(#Q)"><g clip-path="url(#R)"><g clip-path="url(#S)"><g clip-path="url(#T)"><g clip-path="url(#U)"><path d="M185.566 413.666h28.62V360.46h-28.62v53.205z" fill="url(#CB)"/></g></g></g></g></g></g><g mask="url(#d)"><g clip-path="url(#e)" transform="matrix(1.25 0 0 -1.25 0 49.00003)"><g clip-path="url(#f)"><path d="M185.528 413.325c-.954.242-1.957.367-3.018.367l6.682-.024a19.81 19.81 0 0 1-3.664-.343" fill="#3092c4"/></g></g></g><path d="M262.02-396.912c-.83-.794-1.618-1.66-2.394-2.6-3.57 2.53-7.132 4.45-10.67 5.696 1.257.616 2.577 1.07 3.976 1.355 1.084.224 2.2.336 3.4.336 3.967 0 7.104-.473 9.776-1.75-1.47-.796-2.82-1.826-4.08-3.047" fill="#1969bc"/><g transform="matrix(1.25 0 0 -1.25 0 49.00003)"><g clip-path="url(#g)"><g clip-path="url(#h)"><g clip-path="url(#i)"><path d="M209.982 358.734h-28.34v54.526h28.34v-54.526z" fill="url(#CC)"/></g></g></g><g clip-path="url(#j)"><g clip-path="url(#k)"><g clip-path="url(#l)"><path d="M207.683 354.228h-36.74v57.98h36.74v-57.98z" fill="url(#CD)"/></g></g></g></g><g mask="url(#v)"><g clip-path="url(#w)" transform="matrix(1.25 0 0 -1.25 0 49.00003)"><g clip-path="url(#x)"><path d="M160.024 402.44c-1.668-3.765-3.367-8.717-5.427-15.182 4.094 5.765 8.173 10.735 12.227 14.758-.56 1.717-1.157 3.302-1.803 4.713-1.66-1.27-3.33-2.7-4.997-4.3" fill="#33bdf2"/></g></g></g><path d="M208.12-460.77l-1.844 1.358c.808 1.764 1.555 3.745 2.254 5.9l2.75-2.607c-.983-1.686-2.024-3.246-3.16-4.64" fill="#2b74b1"/><path d="M210.303-462.225l-2.183 1.455c1.132 1.395 2.176 2.955 3.16 4.64l2.42-2.098c-1.07-1.472-2.202-2.82-3.397-4" fill="#125a9e"/><g mask="url(#AH)" transform="matrix(1.25 0 0 -1.25 0 49.00003)"><g clip-path="url(#AI)"><g clip-path="url(#AJ)"><g clip-path="url(#AK)"><g clip-path="url(#AL)"><g clip-path="url(#AM)"><path d="M221.457 415.068h49.83v-62.132h-49.83v62.132z" fill="url(#CE)"/></g></g></g></g></g></g><g mask="url(#AW)"><g clip-path="url(#AX)" transform="matrix(1.25 0 0 -1.25 0 49.00003)"><g clip-path="url(#AY)"><path d="M151.77 412.466c.008.008.02.013.024.013a.19.19 0 0 0 .03.011l.228.088c.018.004.028.01.04.014a.5.5 0 0 1 .052.023l.23.08.5.18c.026 0 .05.012.075.02l.215.065c.033.012.068.018.098.03l.216.063.083.025.717.184.096.025.208.04.103.03.2.04c.018 0 .03.005.05.008l.435.077a.57.57 0 0 0 .088.011l.198.035.114.012.193.028a.68.68 0 0 1 .106.013l.47.042-1.385.07c-14.664 0-34.863-27.203-43.965-62.433l1.754.008c2.915 5.192 5.53 10.106 7.92 14.718 6.375 24.953 19.355 41.972 30.884 46.48" fill="#05a1e6"/></g></g></g><g fill="#0d82ca"><path d="M200.03-454.05c2.084-1.988 4.17-3.775 6.246-5.36l-1.5-2.873c-1.676 2.034-3.206 4.717-4.756 8.234"/><path d="M201.535-466.325c1.2 1.004 2.27 2.385 3.25 4.04l.945-1.06c-1.36-1.27-2.83-2.314-4.43-3.1l.197.094c.01.012.023.02.035.025"/></g><g clip-path="url(#AZ)" transform="matrix(1.25 0 0 -1.25 0 49.00003)"><g clip-path="url(#Aa)"><g clip-path="url(#Ab)"><path d="M120.87 412.433h30.885V365.95H120.87v46.482z" fill="url(#CF)"/></g></g></g><path d="M205.73-463.345l-.945 1.06c.525.877 1.013 1.835 1.5 2.873l1.844-1.358c-.756-.934-1.555-1.798-2.4-2.575" fill="#127bca"/><g transform="matrix(1.25 0 0 -1.25 0 49.00003)"><g mask="url(#Al)"><g clip-path="url(#Am)"><g clip-path="url(#An)"><g clip-path="url(#Ao)"><g clip-path="url(#Ap)"><g clip-path="url(#Aq)"><path d="M125.894 387.258h28.714v-35.97h-28.714v35.97z" fill="url(#CG)"/></g></g></g></g></g></g><g clip-path="url(#Ar)"><g clip-path="url(#As)"><g clip-path="url(#At)"><path d="M127.028 402.367h33.068v-51.06h-33.068v51.06z" fill="url(#CH)"/></g></g></g></g><path d="M151.108-408.48c-3 5.765-6.262 11.908-9.9 18.397l6.377-.002c.843-6.446 2.04-12.595 3.524-18.395" fill="#05a1e6"/><g transform="matrix(1.25 0 0 -1.25 0 49.00003)"><g clip-path="url(#Au)"><g clip-path="url(#Av)"><g clip-path="url(#Aw)"><path d="M119.313 343.45l-12.043 68.3 55.044 9.705 12.043-68.3-55.044-9.706z" fill="url(#CI)"/></g></g></g><g clip-path="url(#Ax)"><g clip-path="url(#Ay)"><g clip-path="url(#Az)"><path d="M225.748 413.707h20.63v-36.032h-20.63v36.032z" fill="url(#CJ)"/></g></g></g><g mask="url(#BJ)"><g clip-path="url(#BK)"><g clip-path="url(#BL)"><g clip-path="url(#BM)"><g clip-path="url(#BN)"><g clip-path="url(#BO)"><path d="M273.147 413.298l-11.516-65.3-47.175 8.318 11.516 65.3 47.175-8.318z" fill="url(#CK)"/></g></g></g></g></g></g></g><path d="M271.2-398.006c3.734-4.56 6.778-12.308 10.926-25.075-4.788 6.58-9.6 12.232-14.434 16.846-.006.014-.006.026-.016.042 1.053 3.15 2.208 5.938 3.524 8.186" fill="#079ae1"/><path d="M271.2-398.006c-1.27 1.553-2.615 2.73-4.115 3.606l-.995.535a14.49 14.49 0 0 0 5.235 1.65h.013l.855.076h.054l.4.02h.056l.423.006.455-.006.14-.01.32-.01.158-.02.3-.02c.016 0 .025 0 .035-.01.04 0 .077-.006.116-.006l.334-.035c.01 0 .015-.004.03-.004.03-.007.067-.012.1-.016l.36-.052c.036 0 .067-.01.106-.015l.403-.066h.022c.01-.007.027-.007.036-.01l.803-.17c-2.214-.8-4.067-2.725-5.665-5.446" fill="#1969bc"/><g fill="#1e5cb3"><path d="M239.57-392.114a25.98 25.98 0 0 0 4.858-.467c1.504-.278 3.016-.695 4.53-1.224a16.58 16.58 0 0 0 3.976 1.358c1.084.22 2.2.334 3.4.334H239.57z"/><path d="M256.324-392.114c3.967 0 7.107-.467 9.776-1.75a14.43 14.43 0 0 0 5.235 1.65h.013l.855.076h.054l.4.02h.056l.423.006h-16.824z"/></g><path d="M273.148-392.114l.455-.006.14-.01.32-.01.157-.02.3-.02c.016 0 .022 0 .035-.006.04 0 .077-.01.12-.01l.33-.035c.01 0 .015-.004.03-.004.03-.007.068-.012.1-.016l.36-.053a.45.45 0 0 0 .106-.015l.402-.066h.02c.015-.007.03-.007.04-.01l.804-.17a7 7 0 0 0 2.455.43l-6.185.016z" fill="#1d60b5"/><path d="M267.686-406.192c0-.007-.006-.016-.006-.022l-5.3 4.637-2.765 2.076 2.394 2.6c1.26 1.22 2.6 2.25 4.08 3.047l.995-.535c1.5-.876 2.846-2.054 4.115-3.606-1.314-2.25-2.47-5.035-3.524-8.186" fill="#175fab"/><g transform="matrix(1.25 0 0 -1.25 0 49.00003)"><g clip-path="url(#BP)"><g clip-path="url(#BQ)"><g clip-path="url(#BR)"><path d="M261.187 353.24h-44.25v61.8h44.25v-61.8z" fill="url(#CL)"/></g></g></g><g mask="url(#Bb)"><g clip-path="url(#Bc)"><g clip-path="url(#Bd)"><path d="M156.56 413.622l.084-.01a1.54 1.54 0 0 0 .208-.023c.025 0 .047-.005.067-.008l.383-.05c.022-.005.043-.005.063-.012l.322-.053a.38.38 0 0 1 .08-.016l.742-.163.068-.016.3-.084c.03-.008.053-.013.08-.026l.355-.1c.004-.006.01-.006.024-.01l.3-.106.12-.04.22-.1c.04-.01.083-.026.126-.043l.294-.123.143-.062.18-.076c.05-.028.107-.052.156-.075l.158-.08c1.278-.628 2.455-1.462 3.543-2.48a11.69 11.69 0 0 0 1.255 1.142c-2.38 1.687-5.08 2.65-8.192 2.65a12.05 12.05 0 0 1-1.087-.046" fill="#7dcbec"/><path d="M164.585 409.876c.667-.622 1.306-1.313 1.9-2.06l1.746 1.164c-.762.762-1.567 1.446-2.402 2.038-.434-.34-.852-.72-1.255-1.142" fill="#5ec5ed"/><g clip-path="url(#Be)"><g clip-path="url(#Bf)"><g clip-path="url(#Bg)"><path d="M158.155 420.9l18.385-7.625-3.947-9.516-18.385 7.626 3.947 9.515z" fill="url(#CM)"/></g></g></g><g clip-path="url(#Bh)"><g clip-path="url(#Bi)"><g clip-path="url(#Bj)"><path d="M164.075 412.92l15.6 7.07 4.614-10.177-15.6-7.07-4.614 10.177z" fill="url(#CN)"/></g></g></g></g></g></g><g mask="url(#Bt)"><g clip-path="url(#Bu)"><g clip-path="url(#Bv)"><g clip-path="url(#Bw)"><g clip-path="url(#Bx)"><g clip-path="url(#By)"><path d="M247.073 364.203h-32.77v50.772h32.77v-50.772z" fill="url(#CO)"/></g></g></g></g></g></g></g><path d="M305.738-393.33l-.244.617h-.024c-.035-.137-.1-.34-.226-.604l-1.538-3.5h-.776v5.017h.56v-3.36l-.025-.983h.012c.054.24.105.413.153.52l1.715 3.825h.286l1.708-3.854c.047-.1.096-.26.157-.5h.01l-.046.974v3.37h.585v-5.017h-.74l-1.57 3.488zm-7.077-2.954h1.446v4.484h.6v-4.484h1.44v-.534h-3.48v.534zm36.454-2.74a3.75 3.75 0 0 0-2.805 1.188c-.768.795-1.15 1.75-1.15 2.88 0 1.1.38 2.055 1.15 2.86s1.704 1.207 2.805 1.207a3.89 3.89 0 0 0 2.881-1.207c.794-.804 1.2-1.757 1.2-2.86s-.395-2.06-1.2-2.864a3.87 3.87 0 0 0-2.881-1.204m98.914-38.84h14.895v46.144h6.048v-46.144h14.867v-5.47h-35.8v5.47zm-27 22.64h18.642v-5.47H407.03v-17.17h20.12v-5.47H401v51.614h27.355v-5.47h-21.3v-18.035zm-23.486 8.244l.363 7.587h-.14c-.36-.7-1.06-1.842-2.1-3.45l-25.84-40.5H348v51.614h6.05V-429l-.288-7.087h.22c.455 1.175.993 2.252 1.615 3.24l26.637 41.14h7.34v-51.614h-6v36.353zm71.475-46.675c0 2.764 1.225 4.147 3.68 4.147.875 0 1.58-.15 2.114-.455v-1.92c-.412.303-.896.455-1.455.455-.75 0-1.283-.2-1.608-.602-.322-.4-.478-1.066-.478-2v-7.93h3.54v-1.907h-3.54v-4.16l-2.254.73v3.43h-2.414v1.907h2.414v8.316zm-9.2 3.835h2.25v-12.15h3.295v-1.907h-3.295v-2.166c0-1.986.782-2.98 2.358-2.98a3.02 3.02 0 0 1 1.495.37v-2.032c-.394-.16-.936-.244-1.63-.244-1.2 0-2.2.377-3.036 1.14-.965.875-1.437 2.1-1.437 3.634v2.28h-2.4v1.907h2.4v12.15zm-15.342-6.95c0-1.794.44-3.176 1.325-4.156.844-.915 1.966-1.373 3.365-1.373 1.416 0 2.522.452 3.308 1.358.814.944 1.22 2.316 1.22 4.118 0 1.72-.38 3.044-1.14 3.982-.776.96-1.905 1.44-3.387 1.44-1.428 0-2.566-.474-3.424-1.422-.845-.944-1.266-2.264-1.266-3.946m9.63 5.256c1.26-1.35 1.9-3.15 1.9-5.4 0-2.277-.595-4.07-1.767-5.37-1.18-1.294-2.812-1.946-4.9-1.946-2.134 0-3.838.625-5.106 1.865-1.37 1.34-2.06 3.226-2.06 5.67 0 2.144.606 3.868 1.813 5.173 1.233 1.354 2.9 2.03 5.025 2.03 2.14 0 3.843-.678 5.104-2.03m-15.455.796a3.65 3.65 0 0 0 1.293-2.863c0-1.046-.346-1.906-1.034-2.58-.526-.535-1.392-1.056-2.594-1.556-1.067-.455-1.778-.847-2.1-1.17-.374-.345-.564-.83-.564-1.45a1.75 1.75 0 0 1 .676-1.417c.446-.363 1.045-.545 1.8-.545 1.204 0 2.264.332 3.2 1.002v-2.267c-.886-.44-1.886-.658-3.005-.658-1.457 0-2.645.385-3.57 1.164s-1.386 1.745-1.386 2.9c0 1.043.3 1.9.894 2.54.493.55 1.332 1.077 2.5 1.594 1.142.502 1.913.93 2.306 1.3s.593.8.593 1.358c0 1.308-.892 1.965-2.675 1.965-1.335 0-2.55-.45-3.655-1.346v2.42c1 .566 2.156.846 3.5.846 1.622 0 2.914-.4 3.855-1.235m-20.062-10.2c.84-.915 1.96-1.373 3.36-1.373 1.42 0 2.52.452 3.3 1.358.8.944 1.22 2.316 1.22 4.118 0 1.72-.38 3.044-1.14 3.982-.776.96-1.9 1.44-3.387 1.44-1.43 0-2.57-.474-3.416-1.422-.853-.944-1.275-2.264-1.275-3.946 0-1.794.444-3.176 1.33-4.156m3.194 11.444c2.14 0 3.842-.678 5.1-2.03s1.9-3.15 1.9-5.4c0-2.277-.6-4.07-1.76-5.37-1.18-1.294-2.817-1.946-4.914-1.946-2.13 0-3.83.625-5.1 1.865-1.375 1.34-2.06 3.226-2.06 5.67 0 2.144.605 3.868 1.8 5.173 1.233 1.354 2.9 2.03 5.023 2.03M396.44-463.37c-.684.56-1.192 1.347-1.524 2.376h-.056v-2.9h-2.248v14.06h2.248v-7.17c0-1.63.35-2.905 1.06-3.83.623-.822 1.4-1.232 2.304-1.232.752 0 1.322.147 1.72.45v-2.334c-.305-.126-.75-.2-1.348-.2-.796 0-1.516.256-2.154.768m-11.086 13.873c1.486 0 2.772-.328 3.85-1v-2.14c-1.08.806-2.228 1.2-3.46 1.2-1.455 0-2.6-.475-3.476-1.427s-1.3-2.248-1.3-3.885c0-1.702.478-3.067 1.416-4.087.903-.998 2.067-1.498 3.5-1.498 1.2 0 2.302.364 3.35 1.1v-2.3c-.945-.472-2.03-.714-3.252-.714-2.233 0-4 .7-5.33 2.127-1.326 1.418-1.986 3.28-1.986 5.583 0 2.052.606 3.73 1.8 5.025 1.24 1.336 2.86 2.004 4.877 2.004m-12.423-.338h2.245v-14.06h-2.245v14.06zm1.15-17.626c.412 0 .764-.143 1.05-.428s.433-.63.433-1.043a1.4 1.4 0 0 0-.433-1.035 1.44 1.44 0 0 0-1.049-.418c-.4 0-.75.137-1.038.418a1.39 1.39 0 0 0-.428 1.035c0 .433.144.783.428 1.058s.636.413 1.038.413m-23.864 4.433l-.107-3.84h.05c.2.924.4 1.6.586 2.02l6.728 15.016h1.126l6.714-15.126c.174-.395.373-1.03.588-1.9h.054l-.192 3.815v13.22h2.3v-19.685h-2.9l-6.167 13.67c-.24.53-.55 1.336-.944 2.413h-.096c-.142-.536-.437-1.322-.894-2.356l-6.04-13.728h-3.047v19.685h2.226v-13.194zm113.586-2.426c.63-.634 1.42-.95 2.37-.95a3.22 3.22 0 0 1 2.342.942c.637.63.957 1.42.957 2.36s-.32 1.738-.964 2.365c-.642.64-1.424.956-2.336.956-.92 0-1.703-.312-2.34-.944-.645-.632-.972-1.43-.972-2.377 0-.93.314-1.716.94-2.353m2.353 6.053c1.064 0 1.955-.36 2.68-1.072s1.1-1.595 1.1-2.65c0-1.072-.364-1.96-1.096-2.66-.712-.684-1.592-1.03-2.644-1.03-1.07 0-1.965.36-2.685 1.08a3.6 3.6 0 0 0-1.079 2.645c0 1.067.35 1.947 1.06 2.647.707.693 1.6 1.043 2.673 1.043m-.785-5.56h.593c.4 0 .704.07.876.2.154.13.23.322.23.596 0 .545-.326.817-.985.817h-.714v-1.623zm0 2.192h.438c.308 0 .6.284.85.86l.52 1.14h.8l-.625-1.268c-.26-.524-.525-.817-.8-.88v-.02c.38-.08.68-.236.9-.468s.32-.505.32-.834a1.15 1.15 0 0 0-.39-.9c-.308-.27-.755-.4-1.353-.4h-1.34v4.765h.67v-2z" fill="#231f20"/></g></svg>