<svg xmlns="http://www.w3.org/2000/svg" width="64" height="64"><path d="M.63 49.1h58.948v5.277H.63zM38.1 20.408l3.977 9.952 7.033-3.696-6.092-13.483h-8.856L21.737 36.394s6.12-.213 10.04-3.123c.97-.582 3.773-7.906 6.334-12.843z" fill="#006c50"/><path d="M49.12 26.675l-7.033 3.686c-6.014 3.085-11.727 5.82-14.802 6.654-8.1 2.338-17.994 3.735-21.544.592-3.337-2.96 4.365-15.375 18.954-18.14 1.222-.314 2.484-.442 3.744-.378 0 0-1-4.25-1.775-5.122a3.61 3.61 0 0 0-3.744-1.407c-3.153.194-16.587 3.773-21.883 14.958-2.9 6.363.97 12.785 3.5 14.637 1.183.863 8.817 7.702 26.472.815C42.562 38.293 53.6 32.476 64 25.608v-7.12l-14.88 8.187z" fill="#009597"/><path d="M44.6 36.85l2.988 7.246a2.47 2.47 0 0 0 2.183 1.397h8.1L51.807 32.98 44.6 36.85z" fill="#006c50"/><path d="M64 15.714s-9.273 5.325-11.446 6.13c-1.94.786-2.735-.252-2.978-.62a25.53 25.53 0 0 1-1.542-3.88c.592.056 1.2-.01 1.756-.194 1.358-.37 14.152-7.547 14.2-7.537z" fill="#ed1c24"/></svg>