<?xml version="1.0" encoding="utf-8"?>
<!-- Generator: Adobe Illustrator 24.0.1, SVG Export Plug-In . SVG Version: 6.00 Build 0)  -->
<svg version="1.1" id="Layer_1" xmlns="http://www.w3.org/2000/svg" xmlns:xlink="http://www.w3.org/1999/xlink" x="0px" y="0px"
	 viewBox="0 0 120 60" width="120" height="60" style="enable-background:new 0 0 120 60;" xml:space="preserve">
<style type="text/css">
	.st0{fill:#3ACCE6;}
	.st1{fill:#003E54;}
	.st2{fill:#FFFFFF;}
</style>
<g>
	<polygon class="st0" points="106.8,19.8 102.2,19.8 108.1,30 102.2,40.2 106.8,40.2 112.7,30 	"/>
	<polygon class="st0" points="13.2,19.8 17.8,19.8 11.9,30 17.8,40.2 13.2,40.2 7.3,30 	"/>
	<polygon class="st1" points="16.1,40.2 10.2,30 16.1,19.8 103.9,19.8 109.8,30 103.9,40.2 	"/>
	<g>
		<path class="st2" d="M22.1,36.2h-3.7V23.8h3.9c3.6,0,6.2,1.7,6.2,6.2C28.4,34.4,25.2,36.2,22.1,36.2z M22.2,26.2h-1.3v7.6h1.2
			c2.6,0,3.8-1.5,3.8-3.8C25.9,27.5,24.8,26.2,22.2,26.2z"/>
		<path class="st2" d="M31.3,36.2V23.8h8.6v2.4h-6.2v2.1h3.6v2.4h-3.6v3h6.4v2.4L31.3,36.2L31.3,36.2z"/>
		<path class="st2" d="M48.9,36.2h-2.4l-4.4-12.4h2.8l2.3,7.2c0.2,0.7,0.5,1.6,0.6,2c0.1-0.5,0.3-1.3,0.6-2l2.3-7.2h2.7L48.9,36.2z"
			/>
		<path class="st2" d="M61.2,31.8h-2.7v4.4H56V23.8h5.4c2.3,0,4.3,1.3,4.3,3.9C65.7,30.6,63.8,31.8,61.2,31.8z M61.4,26.2h-2.9v3.2
			h2.9c1.2,0,1.8-0.5,1.8-1.6C63.2,26.7,62.4,26.2,61.4,26.2z"/>
		<path class="st2" d="M73.2,36.4c-3.4,0-5.4-2.6-5.4-6.4s2-6.4,5.4-6.4c3.4,0,5.4,2.6,5.4,6.4S76.6,36.4,73.2,36.4z M73.2,26.1
			c-2,0-2.8,1.7-2.8,3.9s0.8,3.9,2.8,3.9c2,0,2.8-1.7,2.8-3.9S75.2,26.1,73.2,26.1z"/>
		<path class="st2" d="M85.4,36.4c-2.1,0-3.9-0.9-4.8-2.3l1.8-1.6c0.9,1,2,1.4,3.2,1.4c1.5,0,2.2-0.4,2.2-1.4c0-0.8-0.4-1.2-2.8-1.7
			c-2.3-0.5-3.9-1.3-3.9-3.7c0-2.3,2-3.6,4.4-3.6c1.9,0,3.4,0.7,4.5,2l-1.8,1.7c-0.8-0.8-1.7-1.3-2.8-1.3c-1.3,0-1.8,0.6-1.8,1.1
			c0,0.8,0.5,1,2.5,1.5c2,0.5,4.1,1.1,4.1,3.8C90.3,34.8,88.8,36.4,85.4,36.4z"/>
		<path class="st2" d="M98.1,26.2v10h-2.5v-10H92v-2.4h9.6v2.4H98.1z"/>
	</g>
</g>
</svg>
