<svg xmlns="http://www.w3.org/2000/svg" xmlns:xlink="http://www.w3.org/1999/xlink" width="120" height="60" viewBox="0 0 1024 1024" fill-rule="evenodd" stroke-linejoin="round" stroke-miterlimit="1.41420996"><defs><clipPath id="A"><path d="M1074 0h1024v1024H1074z"/></clipPath><path id="B" d="M2378.388-722.06c-15.297 0-25.875 11.066-25.875 27.34 0 16.5 10.957 27.34 26.58 27.34 7.865 0 15.026-1.9 21.372-7.323l-5.64-8.082c-4.34 3.472-9.818 5.48-15.026 5.48-7.323 0-13.995-3.906-15.46-13.236h38.405c.163-1.302.217-2.766.217-4.23 0-16.22-10.1-27.285-24.573-27.285zm-.217 10.1c7.215 0 11.934 4.72 13.18 12.802h-26.96c1.14-7.594 5.696-12.802 13.778-12.802z"/></defs><clipPath id="C"><path d="M0 0h1024v1024H0z"/></clipPath><g transform="matrix(.590915 0 0 .590915 -368.6876 209.45016)" clip-path="url(#C)"><g transform="matrix(6.22663 0 0 6.22663 -1241.32 -2860.04)"><circle r="82.228" cy="541.553" cx="281.584" fill="#3cb054"/><path d="M247.445 497.925c61.093 2.19 84.652 37.7 72.825 69.41-3.35 8.82-6.91 13.65-14.4 18.68.305-1.27.62-2.55.856-3.85 4.43-24.732-3.964-54.5-45.02-70.93 32.665 18.834 45.847 52.34 30.614 73.97-25.927 3.948-44.876-17.502-44.876-42.215z" fill="#fff"/></g></g><g clip-path="url(#A)" transform="matrix(.994741 0 0 .233919 -694.28027 392.22687)"><g transform="matrix(2.49786 0 0 10.6221 -4647.62 7897.13)" fill-rule="nonzero"><path d="M2318.223-722.06c-7.432 0-12.64 2.983-16.273 7.54v-6.184h-11.337v73.664h11.337v-27.882c3.634 4.557 8.842 7.54 16.273 7.54 14.538 0 25.983-11.446 25.983-27.34s-11.446-27.34-25.983-27.34zm-1.356 10.686c9.764 0 15.677 7.54 15.677 16.653s-5.913 16.653-15.677 16.653c-9.33 0-15.677-7.16-15.677-16.653s6.347-16.653 15.677-16.653z"/><use xlink:href="#B"/><use xlink:href="#B" x="58.754"/><path d="M2498.073-722.06c-6.347 0-11.608 2.224-15.08 7.215v-5.858h-11.23v51.967h11.337v-28.587c0-8.896 5.153-13.94 12.368-13.94 2.766 0 6.238.65 8.625 1.9l2.712-11.23c-2.604-1.03-5.262-1.465-8.733-1.465zm37.714 0c-16.5 0-27.34 11.77-27.34 27.34s10.85 27.34 27.34 27.34c7.8 0 14.646-2.82 19.42-8.3l-6.998-7.8c-3.3 3.092-7.757 5.424-12.748 5.424-8.733 0-15.35-6.835-15.35-16.653s6.618-16.653 15.35-16.653c5 0 8.788 1.9 12.476 5.37l7.27-7.757c-4.6-5.48-11.608-8.3-19.42-8.3zm52.213 0c-16.056 0-27.936 11.77-27.936 27.34s11.88 27.34 27.936 27.34 28-11.77 28-27.34-11.934-27.34-28-27.34zm0 10.686c9.276 0 16.328 6.835 16.328 16.653s-7.052 16.653-16.328 16.653-16.273-6.835-16.273-16.653 6.998-16.653 16.273-16.653zm38.038-9.33h11.4v51.967h-11.4zm53.425-1.356c-5.316 0-11.77 1.627-15.948 7.703v-6.347h-11.283v51.967h11.4v-28.804c0-8.896 6.13-13.724 13.453-13.724 7.65 0 12.097 4.882 12.097 13.615v28.912h11.4v-32.655c0-12.15-8.733-20.667-21.1-20.667z"/><path d="M2622.41-743.457c13.26.475 18.375 8.185 15.808 15.067-.728 1.915-1.5 2.963-3.126 4.055.066-.276.134-.554.186-.836.962-5.368-.86-11.828-9.772-15.396 7.1 4.088 9.952 11.36 6.645 16.057-5.628.857-9.74-3.8-9.74-9.164z" fill="#3cb054"/></g></g></svg>