<?xml version="1.0" encoding="UTF-8" standalone="no"?>
<!-- Generator: Adobe Illustrator 23.0.3, SVG Export Plug-In . SVG Version: 6.00 Build 0)  -->

<svg
   xmlns:dc="http://purl.org/dc/elements/1.1/"
   xmlns:cc="http://creativecommons.org/ns#"
   xmlns:rdf="http://www.w3.org/1999/02/22-rdf-syntax-ns#"
   xmlns:svg="http://www.w3.org/2000/svg"
   xmlns="http://www.w3.org/2000/svg"
   xmlns:sodipodi="http://sodipodi.sourceforge.net/DTD/sodipodi-0.dtd"
   xmlns:inkscape="http://www.inkscape.org/namespaces/inkscape"
   version="1.1"
   id="svg2"
   x="0px"
   y="0px"
   viewBox="0 0 120 60"
   style="enable-background:new 0 0 120 60;"
   xml:space="preserve"
   sodipodi:docname="canva-ar21.svg"
   inkscape:version="0.92.2 5c3e80d, 2017-08-06"><metadata
     id="metadata21"><rdf:RDF><cc:Work
         rdf:about=""><dc:format>image/svg+xml</dc:format><dc:type
           rdf:resource="http://purl.org/dc/dcmitype/StillImage" /></cc:Work></rdf:RDF></metadata><defs
     id="defs19" /><sodipodi:namedview
     pagecolor="#ffffff"
     bordercolor="#666666"
     borderopacity="1"
     objecttolerance="10"
     gridtolerance="10"
     guidetolerance="10"
     inkscape:pageopacity="0"
     inkscape:pageshadow="2"
     inkscape:window-width="1440"
     inkscape:window-height="799"
     id="namedview17"
     showgrid="false"
     inkscape:zoom="2.7"
     inkscape:cx="-5.5555557"
     inkscape:cy="0.37037037"
     inkscape:window-x="0"
     inkscape:window-y="1"
     inkscape:window-maximized="1"
     inkscape:current-layer="svg2" /><style
     type="text/css"
     id="style2">
	.st0{fill:#24BECA;}
</style><g
     id="g14"><path
       class="st0"
       d="M40.43,40.45c-1.59,2.12-3.64,4.4-6.36,6.13c-2.67,1.68-5.65,3.04-9.18,3.04c-3.26,0-6.02-1.74-7.55-3.15   c-2.27-2.12-3.47-5.27-3.82-8.14c-1.11-9.06,4.43-20.95,13.02-26.16c1.97-1.19,4.18-1.79,6.19-1.79c4.13,0,7.2,2.94,7.64,6.45   c0.39,3.16-0.88,5.9-4.41,7.67c-1.8,0.91-2.69,0.86-2.97,0.43c-0.19-0.29-0.08-0.78,0.28-1.08c3.31-2.76,3.38-5.02,2.99-8.21   c-0.25-2.05-1.61-3.37-3.13-3.37c-6.51,0-15.85,14.55-14.56,25.13c0.51,4.13,3.05,8.9,8.26,8.9c1.74,0,3.58-0.49,5.21-1.3   c3.63-1.85,5.25-3.2,7.44-6.19c0.28-0.38,0.55-0.81,0.88-1.25c0.23-0.38,0.54-0.49,0.81-0.49c0.33,0,0.63,0.27,0.68,0.71   c0.04,0.33-0.06,0.81-0.44,1.3C41.08,39.53,40.76,40.02,40.43,40.45L40.43,40.45z"
       id="path4" /><path
       class="st0"
       d="M50.28,45.77c-1.63,0-2.55-0.87-2.87-2.17c-1.08,1.41-2.5,2.17-4.02,2.17c-2.5,0-4.87-2.12-5.22-4.94   c-0.61-4.94,3.66-11.34,10.06-11.34c2.71,0,4.96,1.09,5.23,3.26C53.79,35.46,51.47,36,50.6,36c-0.76,0-1.98-0.22-2.07-0.92   c-0.09-0.76,1.64-0.33,1.43-2.06c-0.13-1.09-1.27-1.47-2.35-1.47c-3.91,0-6.06,5.43-5.65,8.79c0.19,1.52,0.97,3.04,2.38,3.04   c1.14,0,2.79-1.63,3.41-4.02c0.4-1.63,1.95-2.71,3.09-2.71c0.6,0,1.01,0.27,1.08,0.87c0.03,0.22,0.01,0.49-0.06,0.81   c-0.13,0.71-0.67,3.05-0.65,3.54c0.02,0.42,0.26,1.01,1,1.01c0.81,0,4.66-2.24,6.89-5.28c0.18-0.27,0.54-0.43,0.87-0.43   c0.33,0,0.62,0.16,0.66,0.54c0.05,0.38-0.11,0.87-0.57,1.52C57.52,42.76,52.18,45.77,50.28,45.77L50.28,45.77z"
       id="path6" /><path
       class="st0"
       d="M104.17,43.92c0.19,1.57,0.92,2.61,1.59,3.2c0.24,0.22,0.39,0.49,0.41,0.65c0.05,0.43-0.28,0.81-0.82,0.81   c-0.16,0-0.38,0-0.56-0.11c-2.8-1.14-3.96-3.04-4.29-4.83c-1.08,1.36-2.51,2.12-3.97,2.12c-2.5,0-4.94-2.17-5.28-4.99   c-0.6-4.89,3.83-11.29,10.12-11.29c2.66,0,4.96,1.03,5.22,3.2c0.34,2.77-2.03,3.31-2.85,3.31c-0.81,0-2.04-0.22-2.12-0.92   c-0.09-0.71,1.7-0.33,1.49-2.01c-0.13-1.09-1.27-1.52-2.36-1.52c-3.64,0-6.14,4.83-5.66,8.74c0.19,1.57,0.92,3.09,2.33,3.09   c1.14,0,2.84-1.63,3.47-4.02c0.4-1.57,1.95-2.71,3.09-2.71c0.54,0,1.01,0.27,1.09,0.92c0.04,0.33-0.09,1.03-0.7,3.58   C104.13,42.24,104.08,43.16,104.17,43.92L104.17,43.92z"
       id="path8" /><path
       class="st0"
       d="M70.38,42.93c0.87,0,3.7-1.08,5.93-4.12c0.24-0.27,0.54-0.43,0.87-0.43c0.38,0,0.67,0.16,0.73,0.6   c0.04,0.33-0.17,0.81-0.63,1.47c-2.55,3.53-6.86,5.32-8.76,5.32c-1.95,0-3.02-1.19-3.24-2.98c-0.07-0.6-0.05-1.3,0.07-2.06   c0.65-4.02,2.13-6.51,2.04-7.27c-0.03-0.22-0.15-0.33-0.31-0.33c-1.25,0-5.64,4.51-6.3,7.49l-0.52,2.39   c-0.34,1.68-2,2.77-3.13,2.77c-0.54,0-0.96-0.27-1.03-0.87c-0.03-0.22-0.01-0.49,0.06-0.81c0,0,2.17-11.13,2.27-11.66   c0.24-1.31,0.71-2.65,3.37-2.65c0.54,0,0.96,0.27,1.04,0.92c0.03,0.22,0.01,0.49-0.06,0.81l-0.74,3.35   c2.33-3.09,5.96-5.37,8.13-5.37c0.92,0,1.63,0.49,1.76,1.47c0.07,0.54-0.09,1.47-0.45,2.5c-0.77,2.12-1.64,5.3-2.22,8.03   C69.11,42.06,69.31,42.93,70.38,42.93L70.38,42.93z"
       id="path10" /><path
       class="st0"
       d="M85.23,29.97c0,1.52,0.76,3.09,1.74,4.13c0.38-1.03,0.6-2.06,0.6-3.09c0-1.95-0.76-2.82-1.36-2.82   C85.5,28.18,85.23,29.16,85.23,29.97L85.23,29.97z M88.54,38.12c-0.33,0-0.6,0-0.92-0.05c-2.44,3.53-4.99,5.97-6.95,7.06   c-0.81,0.43-1.57,0.65-2.12,0.65c-0.43,0-0.92-0.11-1.14-0.49c-0.87-1.47-1.25-4.45-1.25-7.55c0-2.28,0.16-4.13,0.6-5.48   c0.43-1.41,2.23-2.77,3.42-2.77c0.6,0,1.03,0.33,1.03,0.98c0,0.22-0.05,0.49-0.16,0.76c-0.81,2.39-1.25,4.61-1.25,6.84   c0,1.25,0.27,3.26,0.54,4.29c0.05,0.22,0.11,0.43,0.33,0.43c0.38,0,2.93-2.5,4.78-5.54c-1.63-1.03-2.55-2.93-2.55-5.27   c0-3.91,2.33-5.92,4.61-5.92c1.79,0,3.42,1.3,3.42,3.91c0,1.63-0.65,3.47-1.57,5.27c0,0,0.38,0.05,0.54,0.05   c1.41,0,2.5-0.65,3.09-1.36c0.43-0.49,0.81-0.81,1.19-0.81c0.27,0,0.38,0.22,0.38,0.49c0,0.16-0.05,0.43-0.22,0.71   C93.05,36.65,90.55,38.12,88.54,38.12L88.54,38.12z"
       id="path12" /></g></svg>