<?xml version="1.0" encoding="utf-8"?>
<!-- Generator: Adobe Illustrator 24.1.0, SVG Export Plug-In . SVG Version: 6.00 Build 0)  -->
<svg version="1.1" id="Layer_1" xmlns="http://www.w3.org/2000/svg" xmlns:xlink="http://www.w3.org/1999/xlink" x="0px" y="0px"
	 viewBox="0 0 120 60" width="120" height="60" style="enable-background:new 0 0 120 60;" xml:space="preserve">
<style type="text/css">
	.st0{fill:#0073FF;}
</style>
<g>
	<g>
		<path class="st0" d="M47.2,23.4v2.5h-6.7v2.7h6.2v2.5h-6.2v5.2h-3.2V23.4H47.2z"/>
		<path class="st0" d="M49.8,23.4h2.8v2.2h-2.8V23.4z M49.8,26.7h2.8v9.6h-2.8V26.7z"/>
		<path class="st0" d="M54.6,26.7h3c1.2,4.2,1.4,5.1,1.7,6.9c0.4-2.1,0.4-2.4,1-4.6l0.6-2.3h2.9l-3.1,9.5h-2.9L54.6,26.7z"/>
		<path class="st0" d="M74.4,33.9c-0.3,0.5-0.7,1-1.2,1.4c-1,0.9-2.3,1.4-3.6,1.4c-2.8,0-4.8-1.8-4.8-4.9c0-2.3,1.1-5.3,4.9-5.3
			c1.3,0,2.5,0.5,3.4,1.4c1.2,1.3,1.3,3.2,1.4,4.3h-6.8c0,1.2,0.7,2.4,2.2,2.4s2.1-1,2.4-1.7L74.4,33.9z M71.6,30.3
			c0-0.5-0.2-1-0.5-1.4c-0.4-0.3-0.9-0.5-1.4-0.5c-0.5,0-1.1,0.2-1.4,0.6c-0.3,0.4-0.5,0.8-0.6,1.3H71.6z"/>
		<path class="st0" d="M77.3,24h2.8v3h1.8v1.7H80V33c0,0.6,0,1.1,0.7,1.1l1,0v2.2c-0.5,0.1-1,0.1-1.5,0.1c-1,0-2-0.1-2.7-0.9
			c-0.4-0.6-0.4-1.2-0.4-2.2v-4.6h-1.4v-1.7h1.4L77.3,24z"/>
		<path class="st0" d="M87,27.7c0.8-0.7,1.7-1.1,2.8-1.1v2.5l-0.9,0.1c-1.4,0.2-1.8,0.4-1.8,1.6v5.4h-2.8v-9.6H87L87,27.7z"/>
		<path class="st0" d="M91.8,29.5c0-0.8,0.4-1.6,1-2.1c0.9-0.7,2-0.8,3.1-0.8c1.1,0,4,0.3,4,2.7v5.5c0,1,0.1,1.2,0.3,1.5h-2.7v-0.9
			c-0.7,0.5-1.5,1.1-2.9,1.1c-2.2,0-3.1-1.6-3.1-2.9c0-1.5,1.2-2.4,2-2.7c1.2-0.4,2.5-0.7,3.8-0.9v-0.5c0-0.4-0.1-1.2-1.1-1.2
			c-1.2,0-1.4,0.8-1.5,1.1L91.8,29.5z M95.3,32.3c-0.5,0.2-1.2,0.4-1.2,1.2c0,0.6,0.5,1,1.1,1c0.3,0,0.7-0.1,1-0.3
			c0.9-0.6,1-1.5,1-2.5L95.3,32.3z"/>
		<path class="st0" d="M105.9,27.6c0.3-0.3,0.6-0.6,1-0.7c0.5-0.2,1.1-0.4,1.7-0.4c0.6,0,1.2,0.1,1.7,0.4c1,0.5,1.3,1.4,1.3,2.9v6.5
			h-2.8v-5.4c0-0.5,0-1-0.1-1.4c-0.2-0.5-0.7-0.8-1.3-0.7c-1.5,0-1.5,1.2-1.5,2.4v5.2h-2.8v-9.5h2.8L105.9,27.6z"/>
	</g>
	<g>
		<path class="st0" d="M24.8,30h3.3c0.3,0,0.5-0.2,0.5-0.5c0-0.1,0-0.1,0-0.2l-5.7-15.5c-0.1-0.2-0.2-0.3-0.4-0.3h-3.3
			c-0.3,0-0.5,0.2-0.5,0.5c0,0.1,0,0.1,0,0.2l5.7,15.6C24.4,29.9,24.6,30,24.8,30z"/>
		<path class="st0" d="M24.2,46.5h3.3c0.3,0,0.5-0.2,0.5-0.5c0-0.1,0-0.1,0-0.2l-11.8-32c-0.1-0.2-0.3-0.3-0.5-0.3h-3.3
			c-0.3,0-0.5,0.2-0.5,0.5c0,0.1,0,0.1,0,0.2l11.8,32C23.8,46.4,24,46.5,24.2,46.5z"/>
		<path class="st0" d="M17.7,46.5H21c0.3,0,0.5-0.2,0.5-0.5c0-0.1,0-0.1,0-0.2l-5.7-15.5c-0.1-0.2-0.2-0.3-0.4-0.3h-3.3
			c-0.3,0-0.5,0.2-0.5,0.5c0,0.1,0,0.1,0,0.2l5.7,15.5C17.3,46.4,17.5,46.5,17.7,46.5z"/>
		<path class="st0" d="M25.2,14.2l2.7,7.3c0.1,0.2,0.2,0.3,0.4,0.3h3.3c0.3,0,0.5-0.2,0.5-0.5c0-0.1,0-0.1,0-0.2l-2.7-7.3
			c-0.1-0.2-0.2-0.3-0.4-0.3h-3.3c-0.3,0-0.5,0.2-0.5,0.5C25.2,14.1,25.2,14.1,25.2,14.2z"/>
		<path class="st0" d="M11.6,46.5h3.3c0.3,0,0.5-0.2,0.5-0.5c0-0.1,0-0.1,0-0.2l-2.7-7.3c-0.1-0.2-0.3-0.3-0.5-0.3H8.9
			c-0.3,0-0.5,0.2-0.5,0.5c0,0.1,0,0.1,0,0.2l2.7,7.3C11.2,46.4,11.4,46.5,11.6,46.5z"/>
	</g>
</g>
</svg>
