<?xml version="1.0" encoding="UTF-8" standalone="no"?>
<svg
   xmlns:dc="http://purl.org/dc/elements/1.1/"
   xmlns:cc="http://creativecommons.org/ns#"
   xmlns:rdf="http://www.w3.org/1999/02/22-rdf-syntax-ns#"
   xmlns:svg="http://www.w3.org/2000/svg"
   xmlns="http://www.w3.org/2000/svg"
   xmlns:sodipodi="http://sodipodi.sourceforge.net/DTD/sodipodi-0.dtd"
   xmlns:inkscape="http://www.inkscape.org/namespaces/inkscape"
   width="120"
   height="60"
   viewBox="7.56 5.728 19.64256 9.8132404"
   version="1.1"
   id="svg65"
   sodipodi:docname="hockeyapp-ar21.svg"
   inkscape:version="0.92.2 (5c3e80d, 2017-08-06)">
  <metadata
     id="metadata71">
    <rdf:RDF>
      <cc:Work
         rdf:about="">
        <dc:format>image/svg+xml</dc:format>
        <dc:type
           rdf:resource="http://purl.org/dc/dcmitype/StillImage" />
        <dc:title></dc:title>
      </cc:Work>
    </rdf:RDF>
  </metadata>
  <defs
     id="defs69" />
  <sodipodi:namedview
     pagecolor="#ffffff"
     bordercolor="#666666"
     borderopacity="1"
     objecttolerance="10"
     gridtolerance="10"
     guidetolerance="10"
     inkscape:pageopacity="0"
     inkscape:pageshadow="2"
     inkscape:window-width="1920"
     inkscape:window-height="1001"
     id="namedview67"
     showgrid="false"
     inkscape:zoom="6.1365555"
     inkscape:cx="136.97499"
     inkscape:cy="34.873658"
     inkscape:window-x="-9"
     inkscape:window-y="-9"
     inkscape:window-maximized="1"
     inkscape:current-layer="svg65" />
  <linearGradient
     id="a"
     gradientUnits="userSpaceOnUse"
     x1="-746.09698"
     y1="1126.235"
     x2="-746.09698"
     y2="1218.115"
     gradientTransform="matrix(1,0,0,-1,1045.93,1224.843)">
    <stop
       offset="0"
       stop-color="#707f89"
       id="stop2" />
    <stop
       offset="1"
       stop-color="#3f494f"
       id="stop4" />
  </linearGradient>
  <linearGradient
     id="b"
     gradientUnits="userSpaceOnUse"
     x1="-696.79199"
     y1="1126.235"
     x2="-696.79199"
     y2="1218.115"
     gradientTransform="matrix(1,0,0,-1,1045.93,1224.843)">
    <stop
       offset="0"
       stop-color="#707f89"
       id="stop9" />
    <stop
       offset="1"
       stop-color="#3f494f"
       id="stop11" />
  </linearGradient>
  <linearGradient
     id="c"
     gradientUnits="userSpaceOnUse"
     x1="-649.565"
     y1="1131.2679"
     x2="-649.565"
     y2="1216.856"
     gradientTransform="matrix(1,0,0,-1,1045.93,1224.843)">
    <stop
       offset="0"
       stop-color="#707f89"
       id="stop16" />
    <stop
       offset="1"
       stop-color="#3f494f"
       id="stop18" />
  </linearGradient>
  <linearGradient
     id="d"
     gradientUnits="userSpaceOnUse"
     x1="-1017.43"
     y1="1218.115"
     x2="-1017.43"
     y2="1126.235"
     gradientTransform="matrix(1,0,0,-1,1045.93,1224.843)">
    <stop
       offset="0"
       stop-color="#282d31"
       id="stop23" />
    <stop
       offset="1"
       stop-color="#3a444a"
       id="stop25" />
  </linearGradient>
  <linearGradient
     id="e"
     gradientUnits="userSpaceOnUse"
     x1="-919.92999"
     y1="1219.115"
     x2="-919.92999"
     y2="1125.235"
     gradientTransform="matrix(1,0,0,-1,1045.93,1224.843)">
    <stop
       offset="0"
       stop-color="#282d31"
       id="stop30" />
    <stop
       offset="1"
       stop-color="#3a444a"
       id="stop32" />
  </linearGradient>
  <linearGradient
     id="f"
     gradientUnits="userSpaceOnUse"
     x1="-871.73901"
     y1="1218.115"
     x2="-871.73901"
     y2="1138.984"
     gradientTransform="matrix(1,0,0,-1,1045.93,1224.843)">
    <stop
       offset="0"
       stop-color="#282d31"
       id="stop37" />
    <stop
       offset="1"
       stop-color="#3a444a"
       id="stop39" />
  </linearGradient>
  <linearGradient
     id="g"
     gradientUnits="userSpaceOnUse"
     x1="-830.216"
     y1="1218.115"
     x2="-830.216"
     y2="1126.235"
     gradientTransform="matrix(1,0,0,-1,1045.93,1224.843)">
    <stop
       offset="0"
       stop-color="#282d31"
       id="stop44" />
    <stop
       offset="1"
       stop-color="#3a444a"
       id="stop46" />
  </linearGradient>
  <linearGradient
     id="h"
     gradientUnits="userSpaceOnUse"
     x1="-788.59601"
     y1="1218.1169"
     x2="-788.59601"
     y2="1126.234"
     gradientTransform="matrix(1,0,0,-1,1045.93,1224.843)">
    <stop
       offset="0"
       stop-color="#282d31"
       id="stop51" />
    <stop
       offset="1"
       stop-color="#3a444a"
       id="stop53" />
  </linearGradient>
  <linearGradient
     id="i"
     gradientUnits="userSpaceOnUse"
     x1="-968.263"
     y1="1219.115"
     x2="-968.263"
     y2="1125.235"
     gradientTransform="matrix(1,0,0,-1,1045.93,1224.843)">
    <stop
       offset="0"
       stop-color="#282d31"
       id="stop58" />
    <stop
       offset="1"
       stop-color="#3a444a"
       id="stop60" />
  </linearGradient>
  <g
     id="g4576"
     transform="matrix(0.02856386,0,0,0.02856386,11.169514,11.611359)">
    <path
       id="path7"
       d="m 289.784,6.728 -12.891,91.88 h 13.189 l 1.57,-13 h 14.67 l 0.689,13 h 15.761 l -12.75,-91.88 z m 13.58,63.238 -0.023,-0.239 h -8.572 l -0.023,0.239 -0.26,-0.239 h 0.283 c 1.946,-20.384 3.37,-30.226 4.286,-44.399 0.776,14.174 2.338,24.015 4.286,44.399 h 0.283 z"
       style="fill:url(#a)"
       inkscape:connector-curvature="0" />
    <path
       id="path14"
       d="m 351.308,6.728 h -22.585 v 91.88 h 14.881 v -33 h 6.979 c 13.32,0 18.971,-5.841 18.971,-20.151 V 28.416 C 369.553,13.986 364.628,6.728 351.308,6.728 Z m 3.466,36.758 c 0,5.01 -2.75,8.241 -7.08,8.241 h -4.09 v -31.13 h 4.813 c 4.33,0 6.355,4.658 6.355,9.798 z"
       style="fill:url(#b)"
       inkscape:connector-curvature="0" />
    <path
       id="path21"
       d="M 398.535,6.728 H 375.95 v 91.88 h 14.881 v -33 h 6.979 c 13.319,0 18.97,-5.841 18.97,-20.151 V 28.416 c 0,-14.43 -4.925,-21.688 -18.245,-21.688 z M 402,43.486 c 0,5.01 -2.75,8.241 -7.08,8.241 h -4.09 v -31.13 h 4.814 c 4.33,0 6.354,4.658 6.354,9.798 z"
       style="fill:url(#c)"
       inkscape:connector-curvature="0" />
    <path
       id="path28"
       d="M 34.56,43.728 H 22.44 v -37 H 7.56 v 91.88 h 14.88 v -41 h 12.12 v 41 H 49.44 V 6.728 H 34.56 Z"
       style="fill:url(#d)"
       inkscape:connector-curvature="0" />
    <path
       id="path35"
       d="m 129,5.728 h -4.5 c -13.51,0 -18.939,8.616 -18.939,23.076 v 49 c 0,14.46 4.93,21.804 18.439,21.804 h 5.25 c 12.61,0 17.19,-7.569 17.19,-22.03 V 60.369 h -13.214 v 15.209 c 0,5.18 -0.41,10.16 -4.96,10.16 H 125.4 c -4.55,0 -4.96,-4.754 -4.96,-9.934 v -45 c 0,-5.18 0.41,-11.206 4.96,-11.206 h 2.866 c 4.55,0 4.96,4.244 4.96,9.424 V 40.978 H 146.44 V 27.022 C 146.44,12.562 141.61,5.728 129,5.728 Z"
       style="fill:url(#e)"
       inkscape:connector-curvature="0" />
    <path
       id="path42"
       d="m 194.474,6.728 h -14.521 l -9.939,33.73 c -0.79,2.1 -1.45,3.81 -2.24,6.7 V 6.728 H 153.25 v 91.88 h 14.523 v -41.87 c 0.79,3.02 1.32,4.721 2.24,7.221 l 9.409,34.649 h 15.711 l -14.95,-48.831 z"
       style="fill:url(#f)"
       inkscape:connector-curvature="0" />
    <path
       id="path49"
       d="m 200.894,98.608 h 29.64 v -13.87 h -14.76 v -27.13 h 13.59 v -13.88 h -13.59 v -23.13 h 14.76 V 6.728 h -29.64 z"
       style="fill:url(#g)"
       inkscape:connector-curvature="0" />
    <path
       id="path56"
       d="m 265.914,6.728 -3.7,18.24 c -1.319,6.43 -3.159,12.324 -3.96,22.034 -0.92,-9.71 -2.77,-15.604 -4.09,-22.034 l -3.83,-18.24 h -14.91 l 14.521,58.652 v 33.229 h 14.779 V 65.38 L 279.245,6.727 Z"
       style="fill:url(#h)"
       inkscape:connector-curvature="0" />
    <path
       id="path63"
       d="m 80.667,5.728 h -4.5 c -13.51,0 -18.939,8.616 -18.939,23.076 v 49 c 0,14.46 4.93,21.804 18.439,21.804 h 5.25 c 12.61,0 17.19,-7.569 17.19,-22.03 V 27.022 C 98.106,12.562 93.276,5.728 80.667,5.728 Z m -1.96,80.01 h -1.64 c -4.55,0 -4.96,-4.754 -4.96,-9.934 v -45 c 0,-5.18 0.41,-11.206 4.96,-11.206 h 1.569 c 4.55,0 4.96,4.244 4.96,9.424 l 0.07,46.556 c 0.001,5.179 -0.41,10.16 -4.959,10.16 z"
       style="fill:url(#i)"
       inkscape:connector-curvature="0" />
  </g>
  <g
     id="g16"
     transform="matrix(0.14317124,0,0,0.14317124,13.861988,5.1328898)">
    <path
       d="m 45.405,31.138 c 0.159,-0.113 0.377,-0.017 0.408,0.175 0.018,0.115 0.027,0.231 0.027,0.348 0,3.241 -6.945,7.662 -20.836,7.662 -13.891,0 -20.837,-4.421 -20.837,-7.662 0,-0.116 0.009,-0.231 0.027,-0.344 0.03,-0.192 0.249,-0.288 0.408,-0.175 3.442,2.449 10.242,4.535 20.399,4.535 10.163,0 16.964,-2.088 20.404,-4.539 z"
       id="bottom_1_"
       inkscape:connector-curvature="0"
       style="fill:#009ee1" />
    <path
       d="m 25.001,29.427 c -11.266,0 -18.724,-2.514 -22.375,-5.42 -0.126,-0.1 -0.316,-0.063 -0.389,0.08 -0.189,0.369 -0.284,0.753 -0.284,1.151 0,3.584 7.683,8.356 23.048,8.356 15.365,0 23.046,-4.772 23.046,-8.356 0,-0.397 -0.095,-0.782 -0.284,-1.151 -0.073,-0.143 -0.263,-0.18 -0.389,-0.08 -3.651,2.906 -11.108,5.42 -22.373,5.42 z"
       id="mid_1_"
       inkscape:connector-curvature="0"
       style="fill:#009ee1" />
    <path
       id="path4"
       d="M 25.001,10.677 C 8.334,10.677 0,13.575 0,17.708 0,21.841 8.334,27.344 25.001,27.344 41.668,27.344 50,21.841 50,17.708 50,13.575 41.667,10.677 25.001,10.677 Z M 25,22.135 c -11.806,0 -17.708,-3.012 -17.708,-5.078 0,-2.066 5.902,-3.255 17.708,-3.255 11.806,0 17.708,1.189 17.708,3.255 0,2.066 -5.902,5.078 -17.708,5.078 z"
       inkscape:connector-curvature="0"
       style="fill:#009ee1" />
  </g>
</svg>
