<?xml version="1.0" encoding="UTF-8" standalone="no"?>
<!-- Generator: Adobe Illustrator 16.0.0, SVG Export Plug-In . SVG Version: 6.00 Build 0)  -->

<svg
   xmlns:dc="http://purl.org/dc/elements/1.1/"
   xmlns:cc="http://creativecommons.org/ns#"
   xmlns:rdf="http://www.w3.org/1999/02/22-rdf-syntax-ns#"
   xmlns:svg="http://www.w3.org/2000/svg"
   xmlns="http://www.w3.org/2000/svg"
   xmlns:sodipodi="http://sodipodi.sourceforge.net/DTD/sodipodi-0.dtd"
   xmlns:inkscape="http://www.inkscape.org/namespaces/inkscape"
   version="1.1"
   id="snort"
   x="0px"
   y="0px"
   width="64"
   height="64"
   viewBox="0 0 64 64"
   enable-background="new 0 0 201.75 111.75"
   xml:space="preserve"
   sodipodi:docname="snort-icon.svg"
   inkscape:version="0.92.3 (2405546, 2018-03-11)"><metadata
   id="metadata249"><rdf:RDF><cc:Work
       rdf:about=""><dc:format>image/svg+xml</dc:format><dc:type
         rdf:resource="http://purl.org/dc/dcmitype/StillImage" /><dc:title></dc:title></cc:Work></rdf:RDF></metadata><defs
   id="defs247">
	
	
	

		
		
		
		
		
		
		
		
		
		
		
		
		
		
		
		
		
		
		
		
		
		
		
		
		
		
	
		
		
		
		
		
		
		
		
		
		
		
		
		
		
		
		
		
		
		
		
		
		
		
		
		
		
	
		
		
		
		
		
		
		
		
		
		
		
		
		
		
		
		
		
		
		
		
		
		
		
		
		
		
	
			
		
			
		
			
		
			
			
			
		
			
		
			
		
			
		
			
		
			
		
			
			
			
		
			
		
			
		
			
		
			
		
			
		
			
			
			
		
			
		
			
		
				
			
				
			
				
			
				
			
				
			
				
			
				
			
				
			
				
			
				
			
				
			
				
			
	
	
</defs><sodipodi:namedview
   pagecolor="#ffffff"
   bordercolor="#666666"
   borderopacity="1"
   objecttolerance="10"
   gridtolerance="10"
   guidetolerance="10"
   inkscape:pageopacity="0"
   inkscape:pageshadow="2"
   inkscape:window-width="1920"
   inkscape:window-height="1001"
   id="namedview245"
   showgrid="false"
   inkscape:zoom="4.7525987"
   inkscape:cx="50.566244"
   inkscape:cy="25.862732"
   inkscape:window-x="-9"
   inkscape:window-y="-9"
   inkscape:window-maximized="1"
   inkscape:current-layer="snort" />

<g
   id="g1006"
   transform="matrix(1.6868894,0,0,1.6868894,-26.716353,-11.748921)"><g
     transform="translate(-9.6009829,-2.7698324)"
     id="g786"><path
       d="m 63.025969,22.708877 c -0.523246,-0.836892 -1.988335,-1.216283 -3.139175,-1.007286 -4.248697,0.980144 -9.958865,-0.373661 -11.493016,-1.256696 -0.104649,0 0.230107,-0.834781 0.02081,-1.148728 0.313646,-0.208997 0.421613,-0.349836 0.840209,-0.245187 0.732545,0.313646 1.618897,0.183362 2.351139,0.07902 -0.420104,-0.840511 -0.861621,-2.457899 -1.489215,-3.399441 -0.627895,0.522945 -1.586024,0.921335 -2.213919,1.339932 -1.156871,-3.125302 -5.073225,-3.693785 -8.238335,-1.882479 -0.09078,0.05217 -0.176426,0.03921 -0.176426,0.03921 0,0 -0.850162,-1.804973 -1.216283,-2.642167 -1.131539,0.673736 -2.118921,1.582707 -2.55712,1.582707 -0.850162,0 -1.883083,-0.0066 -2.720578,-0.111284 0,1.464787 0.562452,3.152142 0.627895,4.401298 -1.255489,1.255489 -2.510978,2.511279 -3.348473,4.080414 -0.928573,-0.215631 -1.953351,-0.358883 -2.903639,0.03951 -0.608292,0.255139 -1.313995,1.01573 -1.072428,1.843876 0.13722,0.471073 0.732243,0.961446 1.883083,1.255791 -2.255839,2.184062 -3.394012,6.708708 -1.360138,8.264573 -0.522945,0.522944 -1.139078,1.016032 -1.320933,1.69399 -0.242171,0.902336 0.275949,1.227442 0.902336,1.340535 1.157474,0.208997 2.001303,-0.359788 2.838195,-0.883034 1.804671,1.07273 3.027891,0.994318 5.113938,1.092031 0.208997,0.01 0.699672,0.627895 0.699672,0.627895 0,0 -1.408994,-0.16014 -2.138523,0.05881 -0.981048,0.294043 -1.836036,1.21749 -1.157474,2.01397 1.013318,1.190347 2.955812,1.628546 4.714944,1.190347 1.066095,1.144506 0.569087,3.001653 -1.222918,3.747467 1.569437,-0.104951 3.381044,-1.15084 3.57074,-3.322236 0.03649,-0.417089 -0.202966,-1.07273 -0.516612,-1.386677 -0.209298,-0.208997 -0.497008,-0.522945 -0.497008,-0.522945 0,0 0.882431,-1.679212 -0.941541,-2.615928 0.725005,-0.145363 2.092381,-0.732846 2.092381,-0.732846 0,0 0.553706,0.646292 1.046492,0.732846 0.525357,0.09198 1.158077,-0.206886 1.360439,-0.732846 0.295552,-0.769941 -0.627895,-1.360138 -0.627895,-1.360138 l 0.732545,-1.15084 c 0,0 0.631816,0.597737 0.918922,1.077857 0.893891,1.494945 1.069111,3.002859 1.906003,4.467646 0.418597,0.732243 1.157475,1.334202 1.890019,1.64815 0.627895,0.208997 1.314599,0.248504 2.020906,0.124252 1.183109,-0.208394 2.112285,-0.601959 2.792354,-1.007286 4.676644,-2.787228 7.953943,-6.422205 10.785504,-11.580476 0.743703,-1.353201 2.289314,-4.079509 1.243124,-5.753595 z M 49.735821,16.470035 c 0,0 0.278361,0.486755 0.418597,0.836892 0.208997,0.523246 0.61553,1.523295 0.61553,1.523295 l -0.844733,-0.141443 -0.79075,-0.566071 c 0,0 -0.112189,0.416185 -0.549484,0.753656 -0.212012,-0.612213 0.24579,-0.920129 -0.395073,-1.606833 0.522944,-0.313345 1.545913,-0.799496 1.545913,-0.799496 z M 38.225916,41.528544 c 0.192108,1.116158 -0.80221,2.249506 -1.482279,2.685293 0.592912,-0.92405 1.168331,-1.325456 0.488262,-3.226031 -0.268408,-0.750338 -0.941843,-1.290472 -1.621912,-1.743449 -0.208996,-0.139633 -0.498214,-0.233727 -0.819701,-0.313948 -0.34863,-0.08776 -0.732545,0.174315 -1.046191,0.487659 0,0 0.994017,0.488866 1.848401,0.645689 0.488262,0.645688 -0.488263,0.662577 -0.488263,0.662577 -0.104649,0.104348 -2.833671,-0.275043 -2.65061,-1.603817 0.06967,-0.506659 1.098665,-1.482581 3.156364,-0.680371 1.136666,0.442724 2.436789,2.043827 2.615929,3.086398 z M 37.074775,37.60435 c 0.512992,0.233726 0.523246,0.837495 0.523246,1.360741 0,0.104951 -0.104951,0.104951 -0.209299,0.208997 -0.331439,-0.57542 -0.854384,-0.854686 -1.360439,-1.255188 -0.115808,-0.09198 -0.174315,-0.122442 -0.06936,-0.22679 0.313646,-0.314551 0.732544,-0.262075 1.115856,-0.08776 z m 3.813513,-1.788989 c -0.194822,0.73164 -0.874288,0.606784 -0.942144,0.235536 -0.05941,-0.325106 0.338376,-0.422216 0.479215,-0.582055 0.113998,0.05971 0.490072,0.24579 0.462929,0.346519 z m 3.966718,1.917463 c -1.124602,-3.387377 -4.264078,-6.486743 -5.787373,-7.376714 -0.09047,-0.05248 -0.281376,0.229203 -0.281376,0.229203 0,0 1.373407,1.28806 1.582706,2.229903 0.209298,0.837495 -0.261472,1.733497 -0.78502,2.36079 -2.092381,1.988636 -4.930878,1.595674 -7.624916,1.405978 -0.841718,-0.05881 -2.07308,-0.627292 -1.425883,-1.883082 -0.941843,0.732242 -2.40663,2.099317 -3.466091,1.674085 -0.205377,-0.08233 -0.516611,-0.605578 -0.290122,-1.083888 0.381804,-0.805829 1.660816,-2.072175 2.780593,-2.634627 0.05941,-0.113696 -0.08625,-0.313646 -0.497612,-0.124252 -0.42493,0.195426 -1.267854,1.010302 -1.606531,0.843527 -1.909622,-0.938827 -0.686101,-4.447742 -0.05911,-5.60582 0.778988,-1.438851 1.771798,-1.695498 2.81829,-2.009445 -1.24433,-0.221664 -2.196125,-0.351344 -2.82402,-0.97924 -0.313646,-0.418596 -0.164061,-0.74521 0.149886,-1.163807 0.313948,-0.313646 0.672228,-0.529278 1.116158,-0.65926 0.417994,-0.122141 0.786226,-0.07208 1.195474,0.01628 1.027794,0.221664 1.083587,0.7431 1.606531,0.638451 -0.109173,-0.23433 -0.636038,-0.738878 -0.535008,-0.949684 0.505453,-1.056444 1.336917,-2.178332 2.475693,-3.134953 0.142045,-0.119426 0.267805,-0.147473 0.477104,-0.147473 0.313646,0.104649 0.193013,0.420406 0.374566,0.726814 0.311233,0.524754 1.174966,0.520833 1.69791,0.102236 1.046492,-0.836892 1.398741,-2.406931 1.817036,-3.662722 0,-0.104649 0.340789,-0.760893 -0.232822,-0.574515 -0.278059,1.148126 -0.732544,2.092683 -1.360439,3.138873 -0.313948,0.418597 -0.677355,0.80221 -1.2003,0.592912 -0.104649,-0.104649 -0.323598,-0.162553 -0.369137,-0.487961 -0.209298,-1.500073 -0.517214,-4.30449 -0.517214,-4.30449 0,0 1.457248,0.193013 2.004319,0.06816 0.323598,-0.07389 1.050412,-0.935208 1.783258,-1.249155 0.522945,0.732243 1.010604,1.42528 1.464788,2.146364 2.092381,-0.941843 4.550883,-1.700022 6.643566,-0.130585 0.732544,0.627895 1.510326,1.409597 1.758528,2.109571 0.18849,0.529881 0.307313,1.839654 0.166474,2.836385 1.778735,0.941542 3.537566,1.47293 5.52952,1.871924 0.887557,0.177934 1.558579,0.250917 2.426836,0.31998 0.430057,0.03408 1.431311,0.175521 3.434424,-0.175823 -4.081922,0.836892 -7.378222,3.458249 -10.150672,6.656534 -1.360138,1.56823 -3.81864,5.40587 -4.139524,6.780786 -0.13722,0.588388 -0.176728,0.896002 -0.15049,1.588738 z M 61.561181,27.352045 c -0.68037,2.019699 -2.445836,4.661564 -4.264379,6.642661 -1.689165,1.840258 -6.490362,6.25181 -9.868391,6.06513 -1.580896,-0.08716 -2.20276,-1.720529 -1.633975,-3.53666 1.081174,-3.45252 5.841959,-10.444112 11.895026,-12.951169 1.256997,-0.520834 3.479059,-0.758782 3.976067,-0.09168 0.717164,0.962652 0.317868,2.617135 -0.104348,3.871719 z"
       id="path8"
       inkscape:connector-curvature="0"
       style="fill:#f7a8aa;stroke-width:0.30158272" /><path
       d="m 63.025969,22.708877 c -0.523246,-0.836892 -1.988335,-1.216283 -3.139175,-1.007286 -4.248697,0.980144 -9.958865,-0.373661 -11.493016,-1.256696 -0.104649,0 0.230107,-0.834781 0.02081,-1.148728 0.313646,-0.208997 0.421613,-0.349836 0.840209,-0.245187 0.732545,0.313646 1.618897,0.183362 2.351139,0.07902 -0.420104,-0.840511 -0.861621,-2.457899 -1.489215,-3.399441 -0.627895,0.522945 -1.586024,0.921335 -2.213919,1.339932 -1.156871,-3.125302 -5.073225,-3.693785 -8.238335,-1.882479 -0.09078,0.05217 -0.176426,0.03921 -0.176426,0.03921 0,0 -0.850162,-1.804973 -1.216283,-2.642167 -1.131539,0.673736 -2.118921,1.582707 -2.55712,1.582707 -0.850162,0 -1.883083,-0.0066 -2.720578,-0.111284 0,1.464787 0.562452,3.152142 0.627895,4.401298 -1.255489,1.255489 -2.510978,2.511279 -3.348473,4.080414 -0.928573,-0.215631 -1.953351,-0.358883 -2.903639,0.03951 -0.608292,0.255139 -1.313995,1.01573 -1.072428,1.843876 0.13722,0.471073 0.732243,0.961446 1.883083,1.255791 -2.255839,2.184062 -3.394012,6.708708 -1.360138,8.264573 -0.522945,0.522944 -1.139078,1.016032 -1.320933,1.69399 -0.242171,0.902336 0.275949,1.227442 0.902336,1.340535 1.157474,0.208997 2.001303,-0.359788 2.838195,-0.883034 1.804671,1.07273 3.027891,0.994318 5.113938,1.092031 0.208997,0.01 0.699672,0.627895 0.699672,0.627895 0,0 -1.408994,-0.16014 -2.138523,0.05881 -0.981048,0.294043 -1.836036,1.21749 -1.157474,2.01397 1.013318,1.190347 2.955812,1.628546 4.714944,1.190347 1.066095,1.144506 0.569087,3.001653 -1.222918,3.747467 1.569437,-0.104951 3.381044,-1.15084 3.57074,-3.322236 0.03649,-0.417089 -0.202966,-1.07273 -0.516612,-1.386677 -0.209298,-0.208997 -0.497008,-0.522945 -0.497008,-0.522945 0,0 0.882431,-1.679212 -0.941541,-2.615928 0.725005,-0.145363 2.092381,-0.732846 2.092381,-0.732846 0,0 0.553706,0.646292 1.046492,0.732846 0.525357,0.09198 1.158077,-0.206886 1.360439,-0.732846 0.295552,-0.769941 -0.627895,-1.360138 -0.627895,-1.360138 l 0.732545,-1.15084 c 0,0 0.631816,0.597737 0.918922,1.077857 0.893891,1.494945 1.069111,3.002859 1.906003,4.467646 0.418597,0.732243 1.157475,1.334202 1.890019,1.64815 0.627895,0.208997 1.314599,0.248504 2.020906,0.124252 1.183109,-0.208394 2.112285,-0.601959 2.792354,-1.007286 4.676644,-2.787228 7.953943,-6.422205 10.785504,-11.580777 0.743703,-1.3529 2.289314,-4.079208 1.243124,-5.753294 z m -1.464788,4.643168 c -0.68037,2.019699 -2.445836,4.661564 -4.264379,6.642661 -1.689165,1.840258 -6.490362,6.25181 -9.868391,6.06513 -1.580896,-0.08716 -2.20276,-1.720529 -1.633975,-3.53666 1.081174,-3.45252 5.841959,-10.444112 11.895026,-12.951169 1.256997,-0.520834 3.479059,-0.758782 3.976067,-0.09168 0.717164,0.962652 0.317868,2.617135 -0.104348,3.871719 z"
       id="path14"
       inkscape:connector-curvature="0"
       style="fill:#f7a8aa;stroke-width:0.30158272" /><path
       d="m 46.108082,40.076423 c 1.588135,1.739529 6.986164,-0.660767 11.187815,-5.623311 4.160334,-4.915196 6.183049,-10.041197 4.987877,-11.48216 -1.048604,-1.264234 -7.460554,0.401407 -12.025009,5.660708 -4.26076,4.908862 -6.225874,9.171734 -4.150683,11.444763 z"
       id="path20"
       inkscape:connector-curvature="0"
       style="fill:#fac6c5;stroke-width:0.30158272" /><path
       style="fill:#fcdddb;stroke-width:0.30158272"
       inkscape:connector-curvature="0"
       id="path22"
       d="m 42.306632,18.970759 c -0.24579,-0.614626 -0.395375,-1.798338 0.128173,-2.007636 0.362502,-0.05187 0.609498,0.05881 0.783813,-0.119728 0.177934,-0.182458 0.260266,-0.531691 0.657752,-0.697863 1.255187,-0.524754 2.720578,0.209298 3.243824,1.36044 0.522944,1.150839 0.504548,2.779386 -0.646593,3.302331 -1.465089,0.627895 -3.539074,-0.268107 -4.166969,-1.837544 z" /><path
       style="fill:#fcdddb;stroke-width:0.30158272"
       inkscape:connector-curvature="0"
       id="path24"
       d="m 60.217932,24.150141 c 0,-0.313948 -0.174315,-0.680069 0.24398,-0.889368 0.523548,-0.104649 1.084492,0.152903 1.273584,0.540738 1.342948,2.75526 -2.110174,7.462363 -4.272824,10.0608 -1.913241,2.297759 -4.640453,4.412457 -7.570028,5.772595 -1.151141,0.418295 -2.703086,0.959033 -3.644929,-0.08716 0.627895,-1.15084 2.205776,-0.385725 3.243824,-0.836892 0.401105,-0.174315 1.796227,-1.255791 2.621055,-2.027541 -0.208996,0.418898 3.37833,-2.332441 4.94837,-4.530074 1.151443,-1.464788 2.215125,-2.859004 2.947669,-4.428139 0.208997,-0.418296 0.784719,-0.261473 0.993716,-0.680069 0,-0.10465 0.22679,-0.34863 0.01779,-0.34863 -0.523246,0 -0.749735,0.331439 -1.185823,0.57542 0,-0.418597 0.488262,-0.69726 0.784718,-1.255489 -0.104951,0.104649 -0.22679,-0.33144 0.01749,-0.854686 -0.06967,-0.453278 -0.418597,-0.383613 -0.418597,-1.011508 z" /><path
       style="fill:#fcdddb;stroke-width:0.30158272"
       inkscape:connector-curvature="0"
       id="path26"
       d="m 55.145914,27.155111 c -2.497709,2.154809 -4.831657,5.321126 -6.437585,8.398174 -0.714148,1.368281 -0.696355,2.881623 -0.713545,2.795069 -0.836892,-1.360138 0.214124,-3.6585 0.694545,-4.416076 2.486851,-3.923893 6.051559,-8.875278 10.430239,-9.032402 -1.360742,0.313947 -2.958829,1.379439 -3.973654,2.255235 z" /><path
       d="m 30.927614,33.952786 c 1.039254,-1.038953 2.197332,-0.682783 2.464534,-0.474691 0.267504,0.20779 0.742497,1.336011 1.158379,1.484993 0.415581,0.148379 1.662927,0.801607 3.117763,0.148379 1.455136,-0.653832 2.019096,-1.276901 2.048953,-2.019097 0.02986,-0.742496 0.267202,-0.683386 -0.623372,-1.455136 -0.890875,-0.772354 -0.949985,-0.623673 -1.425581,-1.009699 -0.474993,-0.385725 -0.50485,-0.831162 -0.148379,-1.336012 0.356471,-0.504246 1.336313,-0.385724 2.07881,0.05941 0.742195,0.445438 2.13792,1.513945 2.316155,1.662324 0.178235,0.148379 2.07881,1.752196 2.613214,1.752196 0.534103,0 0.653229,0.05941 1.187633,-0.296758 0.534405,-0.356169 0.386026,-0.14868 1.068809,-0.623371 0.683085,-0.475295 0.980144,-0.71264 0.980144,-0.71264 l -1.395725,2.761593 -1.098967,2.969383 -0.356471,1.247648 -1.247045,-1.782354 -0.594118,-1.424978 -1.068809,-0.891177 -0.683085,-0.682783 -0.594118,0.653228 -0.920732,1.514247 -3.741133,1.454835 -2.583358,-0.05941 -2.256744,-0.207791 -1.217489,-1.009698"
       id="path30"
       inkscape:connector-curvature="0"
       style="fill:#f59298;stroke-width:0.30158272" /><path
       d="m 32.285038,26.369488 c 0.304598,1.390297 -2.998939,1.367376 -2.640357,3.411504 0.138426,0.789242 0.698164,0.355868 1.014223,0.752147 0.314551,0.394772 0.381502,0.791655 0.203266,1.148126 -0.178235,0.356471 -0.465945,0.646292 -0.712639,0.712338 -0.432772,0.11611 -0.356471,-0.08927 -0.71264,0.05941 -0.356471,0.148379 -0.534405,0.356471 -0.534405,0.356471 l -1.009699,0.653228 -0.445438,0.326313 -0.920732,-0.682784 -0.445438,-1.098967 0.178236,-2.137619 0.474993,-1.632467 0.861018,-1.48439 0.831464,-0.801607 1.128221,-0.14868 c 0,0 0.502135,-0.08173 1.158379,-0.08897 0.968081,-0.01056 1.469311,0.188791 1.571548,0.655942 z"
       id="path32"
       inkscape:connector-curvature="0"
       style="fill:#f59298;stroke-width:0.30158272" /><path
       d="m 30.645037,22.945916 2.424122,2.249807 c 0,0 0.383614,0.400804 0.819702,0.470771 0.436089,0.06997 0.854384,0.174616 1.220807,-0.627594 0.366122,-0.80221 0.296154,-1.25579 0.33144,-1.656594 0.03468,-0.401406 -0.01749,-1.116157 0.03468,-1.621911 0.05248,-0.505755 0.279265,-0.959335 0.575419,-1.203316 0.296456,-0.244282 0.348932,-0.540737 0.976525,-0.959334 0.627896,-0.418597 0.80221,-0.592912 1.046492,-0.92405 0.244282,-0.331138 0.296456,-1.237997 0.261774,-1.464787 -0.03498,-0.226489 0.01749,-0.994017 -0.05248,-1.203315 -0.06967,-0.209299 -0.157125,-0.540738 -0.348931,-0.575722 -0.191807,-0.03468 -0.243981,0 -0.33144,0.244282 -0.08716,0.244282 -0.348629,0.680069 -0.348629,0.680069 l -0.191505,0.366122 -0.436089,0.749735 -0.401105,0.836892 -0.156823,0.348931 -0.57542,0.715053 -0.523246,0.331439 -0.540436,0.104649 -0.57542,-0.906859 -0.505754,-0.122141 -0.506056,0.209298 -1.203014,1.342647 -1.37763,1.761544 0.06967,0.505755"
       id="path34"
       inkscape:connector-curvature="0"
       style="fill:#f59298;stroke-width:0.30158272" /><path
       d="m 63.025969,22.708877 c -0.523246,-0.836892 -1.988335,-1.216283 -3.139175,-1.007286 -4.248697,0.980144 -9.958865,-0.373661 -11.493016,-1.256696 -0.104649,0 0.230107,-0.834781 0.02081,-1.148728 0.313646,-0.208997 0.421613,-0.349836 0.840209,-0.245187 0.732545,0.313646 1.618897,0.183362 2.351139,0.07902 -0.420104,-0.840511 -0.861621,-2.457899 -1.489215,-3.399441 -0.627895,0.522945 -1.586024,0.921335 -2.213919,1.339932 -1.156871,-3.125302 -5.073225,-3.693785 -8.238335,-1.882479 -0.09078,0.05217 -0.176426,0.03921 -0.176426,0.03921 0,0 -0.850162,-1.804973 -1.216283,-2.642167 -1.131539,0.673736 -2.118921,1.582707 -2.55712,1.582707 -0.850162,0 -1.883083,-0.0066 -2.720578,-0.111284 0,1.464787 0.562452,3.152142 0.627895,4.401298 -1.255489,1.255489 -2.510978,2.511279 -3.348473,4.080414 -0.928573,-0.215631 -1.953351,-0.358883 -2.903639,0.03951 -0.608292,0.255139 -1.313995,1.01573 -1.072428,1.843876 0.13722,0.471073 0.732243,0.961446 1.883083,1.255791 -2.255839,2.184062 -3.394012,6.708708 -1.360138,8.264573 -0.522945,0.522944 -1.139078,1.016032 -1.320933,1.69399 -0.242171,0.902336 0.275949,1.227442 0.902336,1.340535 1.157474,0.208997 2.001303,-0.359788 2.838195,-0.883034 1.804671,1.07273 3.027891,0.994318 5.113938,1.092031 0.208997,0.01 0.699672,0.627895 0.699672,0.627895 0,0 -1.408994,-0.16014 -2.138523,0.05881 -0.981048,0.294043 -1.836036,1.21749 -1.157474,2.01397 1.013318,1.190347 2.955812,1.628546 4.714944,1.190347 1.066095,1.144506 0.569087,3.001653 -1.222918,3.747467 1.569437,-0.104951 3.381044,-1.15084 3.57074,-3.322236 0.03649,-0.417089 -0.202966,-1.07273 -0.516612,-1.386677 -0.209298,-0.208997 -0.497008,-0.522945 -0.497008,-0.522945 0,0 0.882431,-1.679212 -0.941541,-2.615928 0.725005,-0.145363 2.092381,-0.732846 2.092381,-0.732846 0,0 0.553706,0.646292 1.046492,0.732846 0.525357,0.09198 1.158077,-0.206886 1.360439,-0.732846 0.295552,-0.769941 -0.627895,-1.360138 -0.627895,-1.360138 l 0.732545,-1.15084 c 0,0 0.631816,0.597737 0.918922,1.077857 0.893891,1.494945 1.069111,3.002859 1.906003,4.467646 0.418597,0.732243 1.157475,1.334202 1.890019,1.64815 0.627895,0.208997 1.314599,0.248504 2.020906,0.124252 1.183109,-0.208394 2.112285,-0.601959 2.792354,-1.007286 4.676644,-2.787228 7.953943,-6.422205 10.785504,-11.580476 0.743703,-1.353201 2.289314,-4.079509 1.243124,-5.753595 z M 49.735821,16.470035 c 0,0 0.278361,0.486755 0.418597,0.836892 0.208997,0.523246 0.61553,1.523295 0.61553,1.523295 l -0.844733,-0.141443 -0.79075,-0.566071 c 0,0 -0.112189,0.416185 -0.549484,0.753656 -0.212012,-0.612213 0.24579,-0.920129 -0.395073,-1.606833 0.522944,-0.313345 1.545913,-0.799496 1.545913,-0.799496 z M 38.225916,41.528544 c 0.192108,1.116158 -0.80221,2.249506 -1.482279,2.685293 0.592912,-0.92405 1.168331,-1.325456 0.488262,-3.226031 -0.268408,-0.750338 -0.941843,-1.290472 -1.621912,-1.743449 -0.208996,-0.139633 -0.498214,-0.233727 -0.819701,-0.313948 -0.34863,-0.08776 -0.732545,0.174315 -1.046191,0.487659 0,0 0.994017,0.488866 1.848401,0.645689 0.488262,0.645688 -0.488263,0.662577 -0.488263,0.662577 -0.104649,0.104348 -2.833671,-0.275043 -2.65061,-1.603817 0.06967,-0.506659 1.098665,-1.482581 3.156364,-0.680371 1.136666,0.442724 2.436789,2.043827 2.615929,3.086398 z M 37.074775,37.60435 c 0.512992,0.233726 0.523246,0.837495 0.523246,1.360741 0,0.104951 -0.104951,0.104951 -0.209299,0.208997 -0.331439,-0.57542 -0.854384,-0.854686 -1.360439,-1.255188 -0.115808,-0.09198 -0.174315,-0.122442 -0.06936,-0.22679 0.313646,-0.314551 0.732544,-0.262075 1.115856,-0.08776 z m 3.813513,-1.788989 c -0.194822,0.73164 -0.874288,0.606784 -0.942144,0.235536 -0.05941,-0.325106 0.338376,-0.422216 0.479215,-0.582055 0.113998,0.05971 0.490072,0.24579 0.462929,0.346519 z m 3.966718,1.917463 c -1.124602,-3.387377 -4.264078,-6.486743 -5.787373,-7.376714 -0.09047,-0.05248 -0.281376,0.229203 -0.281376,0.229203 0,0 1.373407,1.28806 1.582706,2.229903 0.209298,0.837495 -0.261472,1.733497 -0.78502,2.36079 -2.092381,1.988636 -4.930878,1.595674 -7.624916,1.405978 -0.841718,-0.05881 -2.07308,-0.627292 -1.425883,-1.883082 -0.941843,0.732242 -2.40663,2.099317 -3.466091,1.674085 -0.205377,-0.08233 -0.516611,-0.605578 -0.290122,-1.083888 0.381804,-0.805829 1.660816,-2.072175 2.780593,-2.634627 0.05941,-0.113696 -0.08625,-0.313646 -0.497612,-0.124252 -0.42493,0.195426 -1.267854,1.010302 -1.606531,0.843527 -1.909622,-0.938827 -0.686101,-4.447742 -0.05911,-5.60582 0.778988,-1.438851 1.771798,-1.695498 2.81829,-2.009445 -1.24433,-0.221664 -2.196125,-0.351344 -2.82402,-0.97924 -0.313646,-0.418596 -0.164061,-0.74521 0.149886,-1.163807 0.313948,-0.313646 0.672228,-0.529278 1.116158,-0.65926 0.417994,-0.122141 0.786226,-0.07208 1.195474,0.01628 1.027794,0.221664 1.083587,0.7431 1.606531,0.638451 -0.109173,-0.23433 -0.636038,-0.738878 -0.535008,-0.949684 0.505453,-1.056444 1.336917,-2.178332 2.475693,-3.134953 0.142045,-0.119426 0.267805,-0.147473 0.477104,-0.147473 0.313646,0.104649 0.193013,0.420406 0.374566,0.726814 0.311233,0.524754 1.174966,0.520833 1.69791,0.102236 1.046492,-0.836892 1.398741,-2.406931 1.817036,-3.662722 0,-0.104649 0.340789,-0.760893 -0.232822,-0.574515 -0.278059,1.148126 -0.732544,2.092683 -1.360439,3.138873 -0.313948,0.418597 -0.677355,0.80221 -1.2003,0.592912 -0.104649,-0.104649 -0.323598,-0.162553 -0.369137,-0.487961 -0.209298,-1.500073 -0.517214,-4.30449 -0.517214,-4.30449 0,0 1.457248,0.193013 2.004319,0.06816 0.323598,-0.07389 1.050412,-0.935208 1.783258,-1.249155 0.522945,0.732243 1.010604,1.42528 1.464788,2.146364 2.092381,-0.941843 4.550883,-1.700022 6.643566,-0.130585 0.732544,0.627895 1.510326,1.409597 1.758528,2.109571 0.18849,0.529881 0.307313,1.839654 0.166474,2.836385 1.778735,0.941542 3.537566,1.47293 5.52952,1.871924 0.887557,0.177934 1.558579,0.250917 2.426836,0.31998 0.430057,0.03408 1.431311,0.175521 3.434424,-0.175823 -4.081922,0.836892 -7.378222,3.458249 -10.150672,6.656534 -1.360138,1.56823 -3.81864,5.40587 -4.139524,6.780786 -0.13722,0.588388 -0.176728,0.896002 -0.15049,1.588738 z M 61.561181,27.352045 c -0.68037,2.019699 -2.445836,4.661564 -4.264379,6.642661 -1.689165,1.840258 -6.490362,6.25181 -9.868391,6.06513 -1.580896,-0.08716 -2.20276,-1.720529 -1.633975,-3.53666 1.081174,-3.45252 5.841959,-10.444112 11.895026,-12.951169 1.256997,-0.520834 3.479059,-0.758782 3.976067,-0.09168 0.717164,0.962652 0.317868,2.617135 -0.104348,3.871719 z"
       id="path36"
       inkscape:connector-curvature="0"
       style="stroke-width:0.30158272" /><path
       d="m 44.799515,17.031582 c -0.8384,-0.827543 -2.030557,2.035985 -2.356869,1.01181 0.689116,-0.689116 1.469612,-1.884892 2.511279,-1.696403 1.279917,0.231917 0.25906,1.953352 0.921637,2.450058 0.205378,0.154411 0.446644,-0.717465 0.79467,-0.358581 -0.31455,0.844431 -1.147823,0.463532 -1.147823,0.463532 0,0 -0.275949,1.291076 -0.668308,0.978938 -0.04494,-0.135109 0.115506,-0.273234 0.188188,-0.487961 0.11249,-0.332646 0.14295,-0.710831 -0.132395,-0.485247 -0.184267,0.151395 -0.439406,0.524151 -0.286805,1.009699 0.02503,0.07962 0.397184,0.198743 0.154712,0.347424 -0.132697,0.138728 -0.419502,-0.0383 -0.49731,-0.269012 -0.260869,-0.769036 0.408946,-1.700927 1.004874,-1.485597 -0.171601,-0.41347 -0.13903,-1.136363 -0.48585,-1.47866 z"
       id="path42"
       inkscape:connector-curvature="0"
       style="stroke-width:0.30158272" /><path
       d="m 47.150955,19.421625 c 0,-0.114903 -0.114903,-0.344709 -0.344709,-0.229806 -0.114903,0.114903 -0.258155,0.164664 -0.307614,0.389042 -0.04946,0.226187 -0.258155,0.537119 -0.143553,0.766925 0.459913,0.229504 0.910779,-0.466549 0.795876,-0.926161 z m -0.23825,0.319376 c -0.01659,0.198442 -0.04403,0.176426 -0.137823,0.331138 -0.09409,0.154712 -0.132395,0.02744 -0.159839,-0.09952 -0.02775,-0.126665 0.02744,-0.159839 0.08806,-0.36401 0.05187,-0.174315 0.10284,-0.152903 0.127569,-0.155014 0.115507,-0.01056 0.09862,0.08866 0.08203,0.287408 z"
       id="path44"
       inkscape:connector-curvature="0"
       style="stroke-width:0.30158272" /><path
       d="m 52.351448,30.071416 c 1.832417,-2.238648 4.587676,-4.885942 6.768421,-5.224317 -0.05609,0.966572 -1.351694,0.495802 -1.456644,1.228044 -0.104951,0.418597 -0.414074,0.642673 -0.700276,1.171046 -1.284139,2.374663 -3.012811,3.998987 -4.671214,6.019591 -3.06016,3.727865 -3.807482,2.890973 -4.241762,4.902529 -0.268408,-2.453677 2.418091,-5.795515 4.301475,-8.096893 z"
       id="path50"
       inkscape:connector-curvature="0"
       style="stroke-width:0.30158272" /><path
       d="m 56.014773,30.698708 c 0.867654,-1.124602 2.869258,-3.255284 4.961941,-3.987828 0.244282,0.309725 -0.826337,0.651117 -0.880622,0.745512 -1.731084,3.011606 -2.198236,3.320125 -3.518867,5.064479 -2.499216,3.30022 -4.286998,3.692579 -4.644374,5.301221 -0.06544,-1.891828 2.444328,-5.001448 4.081922,-7.123384 z"
       id="path52"
       inkscape:connector-curvature="0"
       style="stroke-width:0.30158272" /><path
       d="m 37.339564,33.455778 c -0.209298,-0.523548 0.55069,-1.134856 0.919526,-0.886352 -0.190902,0.273234 -0.521738,0.832067 -0.919526,0.886352 z"
       id="path54"
       inkscape:connector-curvature="0"
       style="stroke-width:0.30158272" /><path
       d="m 63.025969,22.708877 c -0.523246,-0.836892 -1.988335,-1.216283 -3.139175,-1.007286 -4.248697,0.980144 -9.958865,-0.373661 -11.493016,-1.256696 -0.104649,0 0.230107,-0.834781 0.02081,-1.148728 0.313646,-0.208997 0.421613,-0.349836 0.840209,-0.245187 0.732545,0.313646 1.618897,0.183362 2.351139,0.07902 -0.420104,-0.840511 -0.861621,-2.457899 -1.489215,-3.399441 -0.627895,0.522945 -1.586024,0.921335 -2.213919,1.339932 -1.156871,-3.125302 -5.073225,-3.693785 -8.238335,-1.882479 -0.09078,0.05217 -0.176426,0.03921 -0.176426,0.03921 0,0 -0.850162,-1.804973 -1.216283,-2.642167 -1.131539,0.673736 -2.118921,1.582707 -2.55712,1.582707 -0.850162,0 -1.883083,-0.0066 -2.720578,-0.111284 0,1.464787 0.562452,3.152142 0.627895,4.401298 -1.255489,1.255489 -2.510978,2.511279 -3.348473,4.080414 -0.928573,-0.215631 -1.953351,-0.358883 -2.903639,0.03951 -0.608292,0.255139 -1.313995,1.01573 -1.072428,1.843876 0.13722,0.471073 0.732243,0.961446 1.883083,1.255791 -2.255839,2.184062 -3.394012,6.708708 -1.360138,8.264573 -0.522945,0.522944 -1.139078,1.016032 -1.320933,1.69399 -0.242171,0.902336 0.275949,1.227442 0.902336,1.340535 1.157474,0.208997 2.001303,-0.359788 2.838195,-0.883034 1.804671,1.07273 3.027891,0.994318 5.113938,1.092031 0.208997,0.01 0.699672,0.627895 0.699672,0.627895 0,0 -1.408994,-0.16014 -2.138523,0.05881 -0.981048,0.294043 -1.836036,1.21749 -1.157474,2.01397 1.013318,1.190347 2.955812,1.628546 4.714944,1.190347 1.066095,1.144506 0.569087,3.001653 -1.222918,3.747467 1.569437,-0.104951 3.381044,-1.15084 3.57074,-3.322236 0.03649,-0.417089 -0.202966,-1.07273 -0.516612,-1.386677 -0.209298,-0.208997 -0.497008,-0.522945 -0.497008,-0.522945 0,0 0.882431,-1.679212 -0.941541,-2.615928 0.725005,-0.145363 2.092381,-0.732846 2.092381,-0.732846 0,0 0.553706,0.646292 1.046492,0.732846 0.525357,0.09198 1.158077,-0.206886 1.360439,-0.732846 0.295552,-0.769941 -0.627895,-1.360138 -0.627895,-1.360138 l 0.732545,-1.15084 c 0,0 0.631816,0.597737 0.918922,1.077857 0.893891,1.494945 1.069111,3.002859 1.906003,4.467646 0.418597,0.732243 1.157475,1.334202 1.890019,1.64815 0.627895,0.208997 1.314599,0.248504 2.020906,0.124252 1.183109,-0.208394 2.112285,-0.601959 2.792354,-1.007286 4.676644,-2.787228 7.953943,-6.422205 10.785504,-11.580476 0.743703,-1.353201 2.289314,-4.079509 1.243124,-5.753595 z M 49.735821,16.470035 c 0,0 0.278361,0.486755 0.418597,0.836892 0.208997,0.523246 0.61553,1.523295 0.61553,1.523295 l -0.844733,-0.141443 -0.79075,-0.566071 c 0,0 -0.112189,0.416185 -0.549484,0.753656 -0.212012,-0.612213 0.24579,-0.920129 -0.395073,-1.606833 0.522944,-0.313345 1.545913,-0.799496 1.545913,-0.799496 z M 38.225916,41.528544 c 0.192108,1.116158 -0.80221,2.249506 -1.482279,2.685293 0.592912,-0.92405 1.168331,-1.325456 0.488262,-3.226031 -0.268408,-0.750338 -0.941843,-1.290472 -1.621912,-1.743449 -0.208996,-0.139633 -0.498214,-0.233727 -0.819701,-0.313948 -0.34863,-0.08776 -0.732545,0.174315 -1.046191,0.487659 0,0 0.994017,0.488866 1.848401,0.645689 0.488262,0.645688 -0.488263,0.662577 -0.488263,0.662577 -0.104649,0.104348 -2.833671,-0.275043 -2.65061,-1.603817 0.06967,-0.506659 1.098665,-1.482581 3.156364,-0.680371 1.136666,0.442724 2.436789,2.043827 2.615929,3.086398 z M 37.074775,37.60435 c 0.512992,0.233726 0.523246,0.837495 0.523246,1.360741 0,0.104951 -0.104951,0.104951 -0.209299,0.208997 -0.331439,-0.57542 -0.854384,-0.854686 -1.360439,-1.255188 -0.115808,-0.09198 -0.174315,-0.122442 -0.06936,-0.22679 0.313646,-0.314551 0.732544,-0.262075 1.115856,-0.08776 z m 3.813513,-1.788989 c -0.194822,0.73164 -0.874288,0.606784 -0.942144,0.235536 -0.05941,-0.325106 0.338376,-0.422216 0.479215,-0.582055 0.113998,0.05971 0.490072,0.24579 0.462929,0.346519 z m 3.966718,1.917463 c -1.124602,-3.387377 -4.264078,-6.486743 -5.787373,-7.376714 -0.09047,-0.05248 -0.281376,0.229203 -0.281376,0.229203 0,0 1.373407,1.28806 1.582706,2.229903 0.209298,0.837495 -0.261472,1.733497 -0.78502,2.36079 -2.092381,1.988636 -4.930878,1.595674 -7.624916,1.405978 -0.841718,-0.05881 -2.07308,-0.627292 -1.425883,-1.883082 -0.941843,0.732242 -2.40663,2.099317 -3.466091,1.674085 -0.205377,-0.08233 -0.516611,-0.605578 -0.290122,-1.083888 0.381804,-0.805829 1.660816,-2.072175 2.780593,-2.634627 0.05941,-0.113696 -0.08625,-0.313646 -0.497612,-0.124252 -0.42493,0.195426 -1.267854,1.010302 -1.606531,0.843527 -1.909622,-0.938827 -0.686101,-4.447742 -0.05911,-5.60582 0.778988,-1.438851 1.771798,-1.695498 2.81829,-2.009445 -1.24433,-0.221664 -2.196125,-0.351344 -2.82402,-0.97924 -0.313646,-0.418596 -0.164061,-0.74521 0.149886,-1.163807 0.313948,-0.313646 0.672228,-0.529278 1.116158,-0.65926 0.417994,-0.122141 0.786226,-0.07208 1.195474,0.01628 1.027794,0.221664 1.083587,0.7431 1.606531,0.638451 -0.109173,-0.23433 -0.636038,-0.738878 -0.535008,-0.949684 0.505453,-1.056444 1.336917,-2.178332 2.475693,-3.134953 0.142045,-0.119426 0.267805,-0.147473 0.477104,-0.147473 0.313646,0.104649 0.193013,0.420406 0.374566,0.726814 0.311233,0.524754 1.174966,0.520833 1.69791,0.102236 1.046492,-0.836892 1.398741,-2.406931 1.817036,-3.662722 0,-0.104649 0.340789,-0.760893 -0.232822,-0.574515 -0.278059,1.148126 -0.732544,2.092683 -1.360439,3.138873 -0.313948,0.418597 -0.677355,0.80221 -1.2003,0.592912 -0.104649,-0.104649 -0.323598,-0.162553 -0.369137,-0.487961 -0.209298,-1.500073 -0.517214,-4.30449 -0.517214,-4.30449 0,0 1.457248,0.193013 2.004319,0.06816 0.323598,-0.07389 1.050412,-0.935208 1.783258,-1.249155 0.522945,0.732243 1.010604,1.42528 1.464788,2.146364 2.092381,-0.941843 4.550883,-1.700022 6.643566,-0.130585 0.732544,0.627895 1.510326,1.409597 1.758528,2.109571 0.18849,0.529881 0.307313,1.839654 0.166474,2.836385 1.778735,0.941542 3.537566,1.47293 5.52952,1.871924 0.887557,0.177934 1.558579,0.250917 2.426836,0.31998 0.430057,0.03408 1.431311,0.175521 3.434424,-0.175823 -4.081922,0.836892 -7.378222,3.458249 -10.150672,6.656534 -1.360138,1.56823 -3.81864,5.40587 -4.139524,6.780786 -0.13722,0.588388 -0.176728,0.896002 -0.15049,1.588738 z M 61.561181,27.352045 c -0.68037,2.019699 -2.445836,4.661564 -4.264379,6.642661 -1.689165,1.840258 -6.490362,6.25181 -9.868391,6.06513 -1.580896,-0.08716 -2.20276,-1.720529 -1.633975,-3.53666 1.081174,-3.45252 5.841959,-10.444112 11.895026,-12.951169 1.256997,-0.520834 3.479059,-0.758782 3.976067,-0.09168 0.717164,0.962652 0.317868,2.617135 -0.104348,3.871719 z"
       id="path86"
       inkscape:connector-curvature="0"
       style="fill:#f7a8aa;stroke-width:0.30158272" /><path
       d="m 63.025969,22.708877 c -0.523246,-0.836892 -1.988335,-1.216283 -3.139175,-1.007286 -4.248697,0.980144 -9.958865,-0.373661 -11.493016,-1.256696 -0.104649,0 0.230107,-0.834781 0.02081,-1.148728 0.313646,-0.208997 0.421613,-0.349836 0.840209,-0.245187 0.732545,0.313646 1.618897,0.183362 2.351139,0.07902 -0.420104,-0.840511 -0.861621,-2.457899 -1.489215,-3.399441 -0.627895,0.522945 -1.586024,0.921335 -2.213919,1.339932 -1.156871,-3.125302 -5.073225,-3.693785 -8.238335,-1.882479 -0.09078,0.05217 -0.176426,0.03921 -0.176426,0.03921 0,0 -0.850162,-1.804973 -1.216283,-2.642167 -1.131539,0.673736 -2.118921,1.582707 -2.55712,1.582707 -0.850162,0 -1.883083,-0.0066 -2.720578,-0.111284 0,1.464787 0.562452,3.152142 0.627895,4.401298 -1.255489,1.255489 -2.510978,2.511279 -3.348473,4.080414 -0.928573,-0.215631 -1.953351,-0.358883 -2.903639,0.03951 -0.608292,0.255139 -1.313995,1.01573 -1.072428,1.843876 0.13722,0.471073 0.732243,0.961446 1.883083,1.255791 -2.255839,2.184062 -3.394012,6.708708 -1.360138,8.264573 -0.522945,0.522944 -1.139078,1.016032 -1.320933,1.69399 -0.242171,0.902336 0.275949,1.227442 0.902336,1.340535 1.157474,0.208997 2.001303,-0.359788 2.838195,-0.883034 1.804671,1.07273 3.027891,0.994318 5.113938,1.092031 0.208997,0.01 0.699672,0.627895 0.699672,0.627895 0,0 -1.408994,-0.16014 -2.138523,0.05881 -0.981048,0.294043 -1.836036,1.21749 -1.157474,2.01397 1.013318,1.190347 2.955812,1.628546 4.714944,1.190347 1.066095,1.144506 0.569087,3.001653 -1.222918,3.747467 1.569437,-0.104951 3.381044,-1.15084 3.57074,-3.322236 0.03649,-0.417089 -0.202966,-1.07273 -0.516612,-1.386677 -0.209298,-0.208997 -0.497008,-0.522945 -0.497008,-0.522945 0,0 0.882431,-1.679212 -0.941541,-2.615928 0.725005,-0.145363 2.092381,-0.732846 2.092381,-0.732846 0,0 0.553706,0.646292 1.046492,0.732846 0.525357,0.09198 1.158077,-0.206886 1.360439,-0.732846 0.295552,-0.769941 -0.627895,-1.360138 -0.627895,-1.360138 l 0.732545,-1.15084 c 0,0 0.631816,0.597737 0.918922,1.077857 0.893891,1.494945 1.069111,3.002859 1.906003,4.467646 0.418597,0.732243 1.157475,1.334202 1.890019,1.64815 0.627895,0.208997 1.314599,0.248504 2.020906,0.124252 1.183109,-0.208394 2.112285,-0.601959 2.792354,-1.007286 4.676644,-2.787228 7.953943,-6.422205 10.785504,-11.580777 0.743703,-1.3529 2.289314,-4.079208 1.243124,-5.753294 z m -1.464788,4.643168 c -0.68037,2.019699 -2.445836,4.661564 -4.264379,6.642661 -1.689165,1.840258 -6.490362,6.25181 -9.868391,6.06513 -1.580896,-0.08716 -2.20276,-1.720529 -1.633975,-3.53666 1.081174,-3.45252 5.841959,-10.444112 11.895026,-12.951169 1.256997,-0.520834 3.479059,-0.758782 3.976067,-0.09168 0.717164,0.962652 0.317868,2.617135 -0.104348,3.871719 z"
       id="path92"
       inkscape:connector-curvature="0"
       style="fill:#f7a8aa;stroke-width:0.30158272" /><path
       d="m 46.108082,40.076423 c 1.588135,1.739529 6.986164,-0.660767 11.187815,-5.623311 4.160334,-4.915196 6.183049,-10.041197 4.987877,-11.48216 -1.048604,-1.264234 -7.460554,0.401407 -12.025009,5.660708 -4.26076,4.908862 -6.225874,9.171734 -4.150683,11.444763 z"
       id="path98"
       inkscape:connector-curvature="0"
       style="fill:#fac6c5;stroke-width:0.30158272" /><path
       style="fill:#fcdddb;stroke-width:0.30158272"
       inkscape:connector-curvature="0"
       id="path100"
       d="m 42.306632,18.970759 c -0.24579,-0.614626 -0.395375,-1.798338 0.128173,-2.007636 0.362502,-0.05187 0.609498,0.05881 0.783813,-0.119728 0.177934,-0.182458 0.260266,-0.531691 0.657752,-0.697863 1.255187,-0.524754 2.720578,0.209298 3.243824,1.36044 0.522944,1.150839 0.504548,2.779386 -0.646593,3.302331 -1.465089,0.627895 -3.539074,-0.268107 -4.166969,-1.837544 z" /><path
       style="fill:#fcdddb;stroke-width:0.30158272"
       inkscape:connector-curvature="0"
       id="path102"
       d="m 60.217932,24.150141 c 0,-0.313948 -0.174315,-0.680069 0.24398,-0.889368 0.523548,-0.104649 1.084492,0.152903 1.273584,0.540738 1.342948,2.75526 -2.110174,7.462363 -4.272824,10.0608 -1.913241,2.297759 -4.640453,4.412457 -7.570028,5.772595 -1.151141,0.418295 -2.703086,0.959033 -3.644929,-0.08716 0.627895,-1.15084 2.205776,-0.385725 3.243824,-0.836892 0.401105,-0.174315 1.796227,-1.255791 2.621055,-2.027541 -0.208996,0.418898 3.37833,-2.332441 4.94837,-4.530074 1.151443,-1.464788 2.215125,-2.859004 2.947669,-4.428139 0.208997,-0.418296 0.784719,-0.261473 0.993716,-0.680069 0,-0.10465 0.22679,-0.34863 0.01779,-0.34863 -0.523246,0 -0.749735,0.331439 -1.185823,0.57542 0,-0.418597 0.488262,-0.69726 0.784718,-1.255489 -0.104951,0.104649 -0.22679,-0.33144 0.01749,-0.854686 -0.06967,-0.453278 -0.418597,-0.383613 -0.418597,-1.011508 z" /><path
       style="fill:#fcdddb;stroke-width:0.30158272"
       inkscape:connector-curvature="0"
       id="path104"
       d="m 55.145914,27.155111 c -2.497709,2.154809 -4.831657,5.321126 -6.437585,8.398174 -0.714148,1.368281 -0.696355,2.881623 -0.713545,2.795069 -0.836892,-1.360138 0.214124,-3.6585 0.694545,-4.416076 2.486851,-3.923893 6.051559,-8.875278 10.430239,-9.032402 -1.360742,0.313947 -2.958829,1.379439 -3.973654,2.255235 z" /><path
       d="m 30.927614,33.952786 c 1.039254,-1.038953 2.197332,-0.682783 2.464534,-0.474691 0.267504,0.20779 0.742497,1.336011 1.158379,1.484993 0.415581,0.148379 1.662927,0.801607 3.117763,0.148379 1.455136,-0.653832 2.019096,-1.276901 2.048953,-2.019097 0.02986,-0.742496 0.267202,-0.683386 -0.623372,-1.455136 -0.890875,-0.772354 -0.949985,-0.623673 -1.425581,-1.009699 -0.474993,-0.385725 -0.50485,-0.831162 -0.148379,-1.336012 0.356471,-0.504246 1.336313,-0.385724 2.07881,0.05941 0.742195,0.445438 2.13792,1.513945 2.316155,1.662324 0.178235,0.148379 2.07881,1.752196 2.613214,1.752196 0.534103,0 0.653229,0.05941 1.187633,-0.296758 0.534405,-0.356169 0.386026,-0.14868 1.068809,-0.623371 0.683085,-0.475295 0.980144,-0.71264 0.980144,-0.71264 l -1.395725,2.761593 -1.098967,2.969383 -0.356471,1.247648 -1.247045,-1.782354 -0.594118,-1.424978 -1.068809,-0.891177 -0.683085,-0.682783 -0.594118,0.653228 -0.920732,1.514247 -3.741133,1.454835 -2.583358,-0.05941 -2.256744,-0.207791 -1.217489,-1.009698"
       id="path108"
       inkscape:connector-curvature="0"
       style="fill:#f59298;stroke-width:0.30158272" /><path
       d="m 32.285038,26.369488 c 0.304598,1.390297 -2.998939,1.367376 -2.640357,3.411504 0.138426,0.789242 0.698164,0.355868 1.014223,0.752147 0.314551,0.394772 0.381502,0.791655 0.203266,1.148126 -0.178235,0.356471 -0.465945,0.646292 -0.712639,0.712338 -0.432772,0.11611 -0.356471,-0.08927 -0.71264,0.05941 -0.356471,0.148379 -0.534405,0.356471 -0.534405,0.356471 l -1.009699,0.653228 -0.445438,0.326313 -0.920732,-0.682784 -0.445438,-1.098967 0.178236,-2.137619 0.474993,-1.632467 0.861018,-1.48439 0.831464,-0.801607 1.128221,-0.14868 c 0,0 0.502135,-0.08173 1.158379,-0.08897 0.968081,-0.01056 1.469311,0.188791 1.571548,0.655942 z"
       id="path110"
       inkscape:connector-curvature="0"
       style="fill:#f59298;stroke-width:0.30158272" /><path
       d="m 30.645037,22.945916 2.424122,2.249807 c 0,0 0.383614,0.400804 0.819702,0.470771 0.436089,0.06997 0.854384,0.174616 1.220807,-0.627594 0.366122,-0.80221 0.296154,-1.25579 0.33144,-1.656594 0.03468,-0.401406 -0.01749,-1.116157 0.03468,-1.621911 0.05248,-0.505755 0.279265,-0.959335 0.575419,-1.203316 0.296456,-0.244282 0.348932,-0.540737 0.976525,-0.959334 0.627896,-0.418597 0.80221,-0.592912 1.046492,-0.92405 0.244282,-0.331138 0.296456,-1.237997 0.261774,-1.464787 -0.03498,-0.226489 0.01749,-0.994017 -0.05248,-1.203315 -0.06967,-0.209299 -0.157125,-0.540738 -0.348931,-0.575722 -0.191807,-0.03468 -0.243981,0 -0.33144,0.244282 -0.08716,0.244282 -0.348629,0.680069 -0.348629,0.680069 l -0.191505,0.366122 -0.436089,0.749735 -0.401105,0.836892 -0.156823,0.348931 -0.57542,0.715053 -0.523246,0.331439 -0.540436,0.104649 -0.57542,-0.906859 -0.505754,-0.122141 -0.506056,0.209298 -1.203014,1.342647 -1.37763,1.761544 0.06967,0.505755"
       id="path112"
       inkscape:connector-curvature="0"
       style="fill:#f59298;stroke-width:0.30158272" /><path
       d="m 63.025969,22.708877 c -0.523246,-0.836892 -1.988335,-1.216283 -3.139175,-1.007286 -4.248697,0.980144 -9.958865,-0.373661 -11.493016,-1.256696 -0.104649,0 0.230107,-0.834781 0.02081,-1.148728 0.313646,-0.208997 0.421613,-0.349836 0.840209,-0.245187 0.732545,0.313646 1.618897,0.183362 2.351139,0.07902 -0.420104,-0.840511 -0.861621,-2.457899 -1.489215,-3.399441 -0.627895,0.522945 -1.586024,0.921335 -2.213919,1.339932 -1.156871,-3.125302 -5.073225,-3.693785 -8.238335,-1.882479 -0.09078,0.05217 -0.176426,0.03921 -0.176426,0.03921 0,0 -0.850162,-1.804973 -1.216283,-2.642167 -1.131539,0.673736 -2.118921,1.582707 -2.55712,1.582707 -0.850162,0 -1.883083,-0.0066 -2.720578,-0.111284 0,1.464787 0.562452,3.152142 0.627895,4.401298 -1.255489,1.255489 -2.510978,2.511279 -3.348473,4.080414 -0.928573,-0.215631 -1.953351,-0.358883 -2.903639,0.03951 -0.608292,0.255139 -1.313995,1.01573 -1.072428,1.843876 0.13722,0.471073 0.732243,0.961446 1.883083,1.255791 -2.255839,2.184062 -3.394012,6.708708 -1.360138,8.264573 -0.522945,0.522944 -1.139078,1.016032 -1.320933,1.69399 -0.242171,0.902336 0.275949,1.227442 0.902336,1.340535 1.157474,0.208997 2.001303,-0.359788 2.838195,-0.883034 1.804671,1.07273 3.027891,0.994318 5.113938,1.092031 0.208997,0.01 0.699672,0.627895 0.699672,0.627895 0,0 -1.408994,-0.16014 -2.138523,0.05881 -0.981048,0.294043 -1.836036,1.21749 -1.157474,2.01397 1.013318,1.190347 2.955812,1.628546 4.714944,1.190347 1.066095,1.144506 0.569087,3.001653 -1.222918,3.747467 1.569437,-0.104951 3.381044,-1.15084 3.57074,-3.322236 0.03649,-0.417089 -0.202966,-1.07273 -0.516612,-1.386677 -0.209298,-0.208997 -0.497008,-0.522945 -0.497008,-0.522945 0,0 0.882431,-1.679212 -0.941541,-2.615928 0.725005,-0.145363 2.092381,-0.732846 2.092381,-0.732846 0,0 0.553706,0.646292 1.046492,0.732846 0.525357,0.09198 1.158077,-0.206886 1.360439,-0.732846 0.295552,-0.769941 -0.627895,-1.360138 -0.627895,-1.360138 l 0.732545,-1.15084 c 0,0 0.631816,0.597737 0.918922,1.077857 0.893891,1.494945 1.069111,3.002859 1.906003,4.467646 0.418597,0.732243 1.157475,1.334202 1.890019,1.64815 0.627895,0.208997 1.314599,0.248504 2.020906,0.124252 1.183109,-0.208394 2.112285,-0.601959 2.792354,-1.007286 4.676644,-2.787228 7.953943,-6.422205 10.785504,-11.580476 0.743703,-1.353201 2.289314,-4.079509 1.243124,-5.753595 z M 49.735821,16.470035 c 0,0 0.278361,0.486755 0.418597,0.836892 0.208997,0.523246 0.61553,1.523295 0.61553,1.523295 l -0.844733,-0.141443 -0.79075,-0.566071 c 0,0 -0.112189,0.416185 -0.549484,0.753656 -0.212012,-0.612213 0.24579,-0.920129 -0.395073,-1.606833 0.522944,-0.313345 1.545913,-0.799496 1.545913,-0.799496 z M 38.225916,41.528544 c 0.192108,1.116158 -0.80221,2.249506 -1.482279,2.685293 0.592912,-0.92405 1.168331,-1.325456 0.488262,-3.226031 -0.268408,-0.750338 -0.941843,-1.290472 -1.621912,-1.743449 -0.208996,-0.139633 -0.498214,-0.233727 -0.819701,-0.313948 -0.34863,-0.08776 -0.732545,0.174315 -1.046191,0.487659 0,0 0.994017,0.488866 1.848401,0.645689 0.488262,0.645688 -0.488263,0.662577 -0.488263,0.662577 -0.104649,0.104348 -2.833671,-0.275043 -2.65061,-1.603817 0.06967,-0.506659 1.098665,-1.482581 3.156364,-0.680371 1.136666,0.442724 2.436789,2.043827 2.615929,3.086398 z M 37.074775,37.60435 c 0.512992,0.233726 0.523246,0.837495 0.523246,1.360741 0,0.104951 -0.104951,0.104951 -0.209299,0.208997 -0.331439,-0.57542 -0.854384,-0.854686 -1.360439,-1.255188 -0.115808,-0.09198 -0.174315,-0.122442 -0.06936,-0.22679 0.313646,-0.314551 0.732544,-0.262075 1.115856,-0.08776 z m 3.813513,-1.788989 c -0.194822,0.73164 -0.874288,0.606784 -0.942144,0.235536 -0.05941,-0.325106 0.338376,-0.422216 0.479215,-0.582055 0.113998,0.05971 0.490072,0.24579 0.462929,0.346519 z m 3.966718,1.917463 c -1.124602,-3.387377 -4.264078,-6.486743 -5.787373,-7.376714 -0.09047,-0.05248 -0.281376,0.229203 -0.281376,0.229203 0,0 1.373407,1.28806 1.582706,2.229903 0.209298,0.837495 -0.261472,1.733497 -0.78502,2.36079 -2.092381,1.988636 -4.930878,1.595674 -7.624916,1.405978 -0.841718,-0.05881 -2.07308,-0.627292 -1.425883,-1.883082 -0.941843,0.732242 -2.40663,2.099317 -3.466091,1.674085 -0.205377,-0.08233 -0.516611,-0.605578 -0.290122,-1.083888 0.381804,-0.805829 1.660816,-2.072175 2.780593,-2.634627 0.05941,-0.113696 -0.08625,-0.313646 -0.497612,-0.124252 -0.42493,0.195426 -1.267854,1.010302 -1.606531,0.843527 -1.909622,-0.938827 -0.686101,-4.447742 -0.05911,-5.60582 0.778988,-1.438851 1.771798,-1.695498 2.81829,-2.009445 -1.24433,-0.221664 -2.196125,-0.351344 -2.82402,-0.97924 -0.313646,-0.418596 -0.164061,-0.74521 0.149886,-1.163807 0.313948,-0.313646 0.672228,-0.529278 1.116158,-0.65926 0.417994,-0.122141 0.786226,-0.07208 1.195474,0.01628 1.027794,0.221664 1.083587,0.7431 1.606531,0.638451 -0.109173,-0.23433 -0.636038,-0.738878 -0.535008,-0.949684 0.505453,-1.056444 1.336917,-2.178332 2.475693,-3.134953 0.142045,-0.119426 0.267805,-0.147473 0.477104,-0.147473 0.313646,0.104649 0.193013,0.420406 0.374566,0.726814 0.311233,0.524754 1.174966,0.520833 1.69791,0.102236 1.046492,-0.836892 1.398741,-2.406931 1.817036,-3.662722 0,-0.104649 0.340789,-0.760893 -0.232822,-0.574515 -0.278059,1.148126 -0.732544,2.092683 -1.360439,3.138873 -0.313948,0.418597 -0.677355,0.80221 -1.2003,0.592912 -0.104649,-0.104649 -0.323598,-0.162553 -0.369137,-0.487961 -0.209298,-1.500073 -0.517214,-4.30449 -0.517214,-4.30449 0,0 1.457248,0.193013 2.004319,0.06816 0.323598,-0.07389 1.050412,-0.935208 1.783258,-1.249155 0.522945,0.732243 1.010604,1.42528 1.464788,2.146364 2.092381,-0.941843 4.550883,-1.700022 6.643566,-0.130585 0.732544,0.627895 1.510326,1.409597 1.758528,2.109571 0.18849,0.529881 0.307313,1.839654 0.166474,2.836385 1.778735,0.941542 3.537566,1.47293 5.52952,1.871924 0.887557,0.177934 1.558579,0.250917 2.426836,0.31998 0.430057,0.03408 1.431311,0.175521 3.434424,-0.175823 -4.081922,0.836892 -7.378222,3.458249 -10.150672,6.656534 -1.360138,1.56823 -3.81864,5.40587 -4.139524,6.780786 -0.13722,0.588388 -0.176728,0.896002 -0.15049,1.588738 z M 61.561181,27.352045 c -0.68037,2.019699 -2.445836,4.661564 -4.264379,6.642661 -1.689165,1.840258 -6.490362,6.25181 -9.868391,6.06513 -1.580896,-0.08716 -2.20276,-1.720529 -1.633975,-3.53666 1.081174,-3.45252 5.841959,-10.444112 11.895026,-12.951169 1.256997,-0.520834 3.479059,-0.758782 3.976067,-0.09168 0.717164,0.962652 0.317868,2.617135 -0.104348,3.871719 z"
       id="path114"
       inkscape:connector-curvature="0"
       style="stroke-width:0.30158272" /><path
       d="m 44.799515,17.031582 c -0.8384,-0.827543 -2.030557,2.035985 -2.356869,1.01181 0.689116,-0.689116 1.469612,-1.884892 2.511279,-1.696403 1.279917,0.231917 0.25906,1.953352 0.921637,2.450058 0.205378,0.154411 0.446644,-0.717465 0.79467,-0.358581 -0.31455,0.844431 -1.147823,0.463532 -1.147823,0.463532 0,0 -0.275949,1.291076 -0.668308,0.978938 -0.04494,-0.135109 0.115506,-0.273234 0.188188,-0.487961 0.11249,-0.332646 0.14295,-0.710831 -0.132395,-0.485247 -0.184267,0.151395 -0.439406,0.524151 -0.286805,1.009699 0.02503,0.07962 0.397184,0.198743 0.154712,0.347424 -0.132697,0.138728 -0.419502,-0.0383 -0.49731,-0.269012 -0.260869,-0.769036 0.408946,-1.700927 1.004874,-1.485597 -0.171601,-0.41347 -0.13903,-1.136363 -0.48585,-1.47866 z"
       id="path120"
       inkscape:connector-curvature="0"
       style="stroke-width:0.30158272" /><path
       d="m 47.150955,19.421625 c 0,-0.114903 -0.114903,-0.344709 -0.344709,-0.229806 -0.114903,0.114903 -0.258155,0.164664 -0.307614,0.389042 -0.04946,0.226187 -0.258155,0.537119 -0.143553,0.766925 0.459913,0.229504 0.910779,-0.466549 0.795876,-0.926161 z m -0.23825,0.319376 c -0.01659,0.198442 -0.04403,0.176426 -0.137823,0.331138 -0.09409,0.154712 -0.132395,0.02744 -0.159839,-0.09952 -0.02775,-0.126665 0.02744,-0.159839 0.08806,-0.36401 0.05187,-0.174315 0.10284,-0.152903 0.127569,-0.155014 0.115507,-0.01056 0.09862,0.08866 0.08203,0.287408 z"
       id="path122"
       inkscape:connector-curvature="0"
       style="stroke-width:0.30158272" /><path
       d="m 52.351448,30.071416 c 1.832417,-2.238648 4.587676,-4.885942 6.768421,-5.224317 -0.05609,0.966572 -1.351694,0.495802 -1.456644,1.228044 -0.104951,0.418597 -0.414074,0.642673 -0.700276,1.171046 -1.284139,2.374663 -3.012811,3.998987 -4.671214,6.019591 -3.06016,3.727865 -3.807482,2.890973 -4.241762,4.902529 -0.268408,-2.453677 2.418091,-5.795515 4.301475,-8.096893 z"
       id="path128"
       inkscape:connector-curvature="0"
       style="stroke-width:0.30158272" /><path
       d="m 56.014773,30.698708 c 0.867654,-1.124602 2.869258,-3.255284 4.961941,-3.987828 0.244282,0.309725 -0.826337,0.651117 -0.880622,0.745512 -1.731084,3.011606 -2.198236,3.320125 -3.518867,5.064479 -2.499216,3.30022 -4.286998,3.692579 -4.644374,5.301221 -0.06544,-1.891828 2.444328,-5.001448 4.081922,-7.123384 z"
       id="path130"
       inkscape:connector-curvature="0"
       style="stroke-width:0.30158272" /><path
       d="m 37.339564,33.455778 c -0.209298,-0.523548 0.55069,-1.134856 0.919526,-0.886352 -0.190902,0.273234 -0.521738,0.832067 -0.919526,0.886352 z"
       id="path132"
       inkscape:connector-curvature="0"
       style="stroke-width:0.30158272" /><path
       d="m 63.025969,22.708877 c -0.523246,-0.836892 -1.988335,-1.216283 -3.139175,-1.007286 -4.248697,0.980144 -9.958865,-0.373661 -11.493016,-1.256696 -0.104649,0 0.230107,-0.834781 0.02081,-1.148728 0.313646,-0.208997 0.421613,-0.349836 0.840209,-0.245187 0.732545,0.313646 1.618897,0.183362 2.351139,0.07902 -0.420104,-0.840511 -0.861621,-2.457899 -1.489215,-3.399441 -0.627895,0.522945 -1.586024,0.921335 -2.213919,1.339932 -1.156871,-3.125302 -5.073225,-3.693785 -8.238335,-1.882479 -0.09078,0.05217 -0.176426,0.03921 -0.176426,0.03921 0,0 -0.850162,-1.804973 -1.216283,-2.642167 -1.131539,0.673736 -2.118921,1.582707 -2.55712,1.582707 -0.850162,0 -1.883083,-0.0066 -2.720578,-0.111284 0,1.464787 0.562452,3.152142 0.627895,4.401298 -1.255489,1.255489 -2.510978,2.511279 -3.348473,4.080414 -0.928573,-0.215631 -1.953351,-0.358883 -2.903639,0.03951 -0.608292,0.255139 -1.313995,1.01573 -1.072428,1.843876 0.13722,0.471073 0.732243,0.961446 1.883083,1.255791 -2.255839,2.184062 -3.394012,6.708708 -1.360138,8.264573 -0.522945,0.522944 -1.139078,1.016032 -1.320933,1.69399 -0.242171,0.902336 0.275949,1.227442 0.902336,1.340535 1.157474,0.208997 2.001303,-0.359788 2.838195,-0.883034 1.804671,1.07273 3.027891,0.994318 5.113938,1.092031 0.208997,0.01 0.699672,0.627895 0.699672,0.627895 0,0 -1.408994,-0.16014 -2.138523,0.05881 -0.981048,0.294043 -1.836036,1.21749 -1.157474,2.01397 1.013318,1.190347 2.955812,1.628546 4.714944,1.190347 1.066095,1.144506 0.569087,3.001653 -1.222918,3.747467 1.569437,-0.104951 3.381044,-1.15084 3.57074,-3.322236 0.03649,-0.417089 -0.202966,-1.07273 -0.516612,-1.386677 -0.209298,-0.208997 -0.497008,-0.522945 -0.497008,-0.522945 0,0 0.882431,-1.679212 -0.941541,-2.615928 0.725005,-0.145363 2.092381,-0.732846 2.092381,-0.732846 0,0 0.553706,0.646292 1.046492,0.732846 0.525357,0.09198 1.158077,-0.206886 1.360439,-0.732846 0.295552,-0.769941 -0.627895,-1.360138 -0.627895,-1.360138 l 0.732545,-1.15084 c 0,0 0.631816,0.597737 0.918922,1.077857 0.893891,1.494945 1.069111,3.002859 1.906003,4.467646 0.418597,0.732243 1.157475,1.334202 1.890019,1.64815 0.627895,0.208997 1.314599,0.248504 2.020906,0.124252 1.183109,-0.208394 2.112285,-0.601959 2.792354,-1.007286 4.676644,-2.787228 7.953943,-6.422205 10.785504,-11.580476 0.743703,-1.353201 2.289314,-4.079509 1.243124,-5.753595 z M 49.735821,16.470035 c 0,0 0.278361,0.486755 0.418597,0.836892 0.208997,0.523246 0.61553,1.523295 0.61553,1.523295 l -0.844733,-0.141443 -0.79075,-0.566071 c 0,0 -0.112189,0.416185 -0.549484,0.753656 -0.212012,-0.612213 0.24579,-0.920129 -0.395073,-1.606833 0.522944,-0.313345 1.545913,-0.799496 1.545913,-0.799496 z M 38.225916,41.528544 c 0.192108,1.116158 -0.80221,2.249506 -1.482279,2.685293 0.592912,-0.92405 1.168331,-1.325456 0.488262,-3.226031 -0.268408,-0.750338 -0.941843,-1.290472 -1.621912,-1.743449 -0.208996,-0.139633 -0.498214,-0.233727 -0.819701,-0.313948 -0.34863,-0.08776 -0.732545,0.174315 -1.046191,0.487659 0,0 0.994017,0.488866 1.848401,0.645689 0.488262,0.645688 -0.488263,0.662577 -0.488263,0.662577 -0.104649,0.104348 -2.833671,-0.275043 -2.65061,-1.603817 0.06967,-0.506659 1.098665,-1.482581 3.156364,-0.680371 1.136666,0.442724 2.436789,2.043827 2.615929,3.086398 z M 37.074775,37.60435 c 0.512992,0.233726 0.523246,0.837495 0.523246,1.360741 0,0.104951 -0.104951,0.104951 -0.209299,0.208997 -0.331439,-0.57542 -0.854384,-0.854686 -1.360439,-1.255188 -0.115808,-0.09198 -0.174315,-0.122442 -0.06936,-0.22679 0.313646,-0.314551 0.732544,-0.262075 1.115856,-0.08776 z m 3.813513,-1.788989 c -0.194822,0.73164 -0.874288,0.606784 -0.942144,0.235536 -0.05941,-0.325106 0.338376,-0.422216 0.479215,-0.582055 0.113998,0.05971 0.490072,0.24579 0.462929,0.346519 z m 3.966718,1.917463 c -1.124602,-3.387377 -4.264078,-6.486743 -5.787373,-7.376714 -0.09047,-0.05248 -0.281376,0.229203 -0.281376,0.229203 0,0 1.373407,1.28806 1.582706,2.229903 0.209298,0.837495 -0.261472,1.733497 -0.78502,2.36079 -2.092381,1.988636 -4.930878,1.595674 -7.624916,1.405978 -0.841718,-0.05881 -2.07308,-0.627292 -1.425883,-1.883082 -0.941843,0.732242 -2.40663,2.099317 -3.466091,1.674085 -0.205377,-0.08233 -0.516611,-0.605578 -0.290122,-1.083888 0.381804,-0.805829 1.660816,-2.072175 2.780593,-2.634627 0.05941,-0.113696 -0.08625,-0.313646 -0.497612,-0.124252 -0.42493,0.195426 -1.267854,1.010302 -1.606531,0.843527 -1.909622,-0.938827 -0.686101,-4.447742 -0.05911,-5.60582 0.778988,-1.438851 1.771798,-1.695498 2.81829,-2.009445 -1.24433,-0.221664 -2.196125,-0.351344 -2.82402,-0.97924 -0.313646,-0.418596 -0.164061,-0.74521 0.149886,-1.163807 0.313948,-0.313646 0.672228,-0.529278 1.116158,-0.65926 0.417994,-0.122141 0.786226,-0.07208 1.195474,0.01628 1.027794,0.221664 1.083587,0.7431 1.606531,0.638451 -0.109173,-0.23433 -0.636038,-0.738878 -0.535008,-0.949684 0.505453,-1.056444 1.336917,-2.178332 2.475693,-3.134953 0.142045,-0.119426 0.267805,-0.147473 0.477104,-0.147473 0.313646,0.104649 0.193013,0.420406 0.374566,0.726814 0.311233,0.524754 1.174966,0.520833 1.69791,0.102236 1.046492,-0.836892 1.398741,-2.406931 1.817036,-3.662722 0,-0.104649 0.340789,-0.760893 -0.232822,-0.574515 -0.278059,1.148126 -0.732544,2.092683 -1.360439,3.138873 -0.313948,0.418597 -0.677355,0.80221 -1.2003,0.592912 -0.104649,-0.104649 -0.323598,-0.162553 -0.369137,-0.487961 -0.209298,-1.500073 -0.517214,-4.30449 -0.517214,-4.30449 0,0 1.457248,0.193013 2.004319,0.06816 0.323598,-0.07389 1.050412,-0.935208 1.783258,-1.249155 0.522945,0.732243 1.010604,1.42528 1.464788,2.146364 2.092381,-0.941843 4.550883,-1.700022 6.643566,-0.130585 0.732544,0.627895 1.510326,1.409597 1.758528,2.109571 0.18849,0.529881 0.307313,1.839654 0.166474,2.836385 1.778735,0.941542 3.537566,1.47293 5.52952,1.871924 0.887557,0.177934 1.558579,0.250917 2.426836,0.31998 0.430057,0.03408 1.431311,0.175521 3.434424,-0.175823 -4.081922,0.836892 -7.378222,3.458249 -10.150672,6.656534 -1.360138,1.56823 -3.81864,5.40587 -4.139524,6.780786 -0.13722,0.588388 -0.176728,0.896002 -0.15049,1.588738 z M 61.561181,27.352045 c -0.68037,2.019699 -2.445836,4.661564 -4.264379,6.642661 -1.689165,1.840258 -6.490362,6.25181 -9.868391,6.06513 -1.580896,-0.08716 -2.20276,-1.720529 -1.633975,-3.53666 1.081174,-3.45252 5.841959,-10.444112 11.895026,-12.951169 1.256997,-0.520834 3.479059,-0.758782 3.976067,-0.09168 0.717164,0.962652 0.317868,2.617135 -0.104348,3.871719 z"
       id="path164"
       inkscape:connector-curvature="0"
       style="fill:#f7a8aa;stroke-width:0.30158272" /><path
       d="m 63.025969,22.708877 c -0.523246,-0.836892 -1.988335,-1.216283 -3.139175,-1.007286 -4.248697,0.980144 -9.958865,-0.373661 -11.493016,-1.256696 -0.104649,0 0.230107,-0.834781 0.02081,-1.148728 0.313646,-0.208997 0.421613,-0.349836 0.840209,-0.245187 0.732545,0.313646 1.618897,0.183362 2.351139,0.07902 -0.420104,-0.840511 -0.861621,-2.457899 -1.489215,-3.399441 -0.627895,0.522945 -1.586024,0.921335 -2.213919,1.339932 -1.156871,-3.125302 -5.073225,-3.693785 -8.238335,-1.882479 -0.09078,0.05217 -0.176426,0.03921 -0.176426,0.03921 0,0 -0.850162,-1.804973 -1.216283,-2.642167 -1.131539,0.673736 -2.118921,1.582707 -2.55712,1.582707 -0.850162,0 -1.883083,-0.0066 -2.720578,-0.111284 0,1.464787 0.562452,3.152142 0.627895,4.401298 -1.255489,1.255489 -2.510978,2.511279 -3.348473,4.080414 -0.928573,-0.215631 -1.953351,-0.358883 -2.903639,0.03951 -0.608292,0.255139 -1.313995,1.01573 -1.072428,1.843876 0.13722,0.471073 0.732243,0.961446 1.883083,1.255791 -2.255839,2.184062 -3.394012,6.708708 -1.360138,8.264573 -0.522945,0.522944 -1.139078,1.016032 -1.320933,1.69399 -0.242171,0.902336 0.275949,1.227442 0.902336,1.340535 1.157474,0.208997 2.001303,-0.359788 2.838195,-0.883034 1.804671,1.07273 3.027891,0.994318 5.113938,1.092031 0.208997,0.01 0.699672,0.627895 0.699672,0.627895 0,0 -1.408994,-0.16014 -2.138523,0.05881 -0.981048,0.294043 -1.836036,1.21749 -1.157474,2.01397 1.013318,1.190347 2.955812,1.628546 4.714944,1.190347 1.066095,1.144506 0.569087,3.001653 -1.222918,3.747467 1.569437,-0.104951 3.381044,-1.15084 3.57074,-3.322236 0.03649,-0.417089 -0.202966,-1.07273 -0.516612,-1.386677 -0.209298,-0.208997 -0.497008,-0.522945 -0.497008,-0.522945 0,0 0.882431,-1.679212 -0.941541,-2.615928 0.725005,-0.145363 2.092381,-0.732846 2.092381,-0.732846 0,0 0.553706,0.646292 1.046492,0.732846 0.525357,0.09198 1.158077,-0.206886 1.360439,-0.732846 0.295552,-0.769941 -0.627895,-1.360138 -0.627895,-1.360138 l 0.732545,-1.15084 c 0,0 0.631816,0.597737 0.918922,1.077857 0.893891,1.494945 1.069111,3.002859 1.906003,4.467646 0.418597,0.732243 1.157475,1.334202 1.890019,1.64815 0.627895,0.208997 1.314599,0.248504 2.020906,0.124252 1.183109,-0.208394 2.112285,-0.601959 2.792354,-1.007286 4.676644,-2.787228 7.953943,-6.422205 10.785504,-11.580777 0.743703,-1.3529 2.289314,-4.079208 1.243124,-5.753294 z m -1.464788,4.643168 c -0.68037,2.019699 -2.445836,4.661564 -4.264379,6.642661 -1.689165,1.840258 -6.490362,6.25181 -9.868391,6.06513 -1.580896,-0.08716 -2.20276,-1.720529 -1.633975,-3.53666 1.081174,-3.45252 5.841959,-10.444112 11.895026,-12.951169 1.256997,-0.520834 3.479059,-0.758782 3.976067,-0.09168 0.717164,0.962652 0.317868,2.617135 -0.104348,3.871719 z"
       id="path170"
       inkscape:connector-curvature="0"
       style="fill:#f7a8aa;stroke-width:0.30158272" /><path
       d="m 46.108082,40.076423 c 1.588135,1.739529 6.986164,-0.660767 11.187815,-5.623311 4.160334,-4.915196 6.183049,-10.041197 4.987877,-11.48216 -1.048604,-1.264234 -7.460554,0.401407 -12.025009,5.660708 -4.26076,4.908862 -6.225874,9.171734 -4.150683,11.444763 z"
       id="path176"
       inkscape:connector-curvature="0"
       style="fill:#fac6c5;stroke-width:0.30158272" /><path
       style="fill:#fcdddb;stroke-width:0.30158272"
       inkscape:connector-curvature="0"
       id="path178"
       d="m 42.306632,18.970759 c -0.24579,-0.614626 -0.395375,-1.798338 0.128173,-2.007636 0.362502,-0.05187 0.609498,0.05881 0.783813,-0.119728 0.177934,-0.182458 0.260266,-0.531691 0.657752,-0.697863 1.255187,-0.524754 2.720578,0.209298 3.243824,1.36044 0.522944,1.150839 0.504548,2.779386 -0.646593,3.302331 -1.465089,0.627895 -3.539074,-0.268107 -4.166969,-1.837544 z" /><path
       style="fill:#fcdddb;stroke-width:0.30158272"
       inkscape:connector-curvature="0"
       id="path180"
       d="m 60.217932,24.150141 c 0,-0.313948 -0.174315,-0.680069 0.24398,-0.889368 0.523548,-0.104649 1.084492,0.152903 1.273584,0.540738 1.342948,2.75526 -2.110174,7.462363 -4.272824,10.0608 -1.913241,2.297759 -4.640453,4.412457 -7.570028,5.772595 -1.151141,0.418295 -2.703086,0.959033 -3.644929,-0.08716 0.627895,-1.15084 2.205776,-0.385725 3.243824,-0.836892 0.401105,-0.174315 1.796227,-1.255791 2.621055,-2.027541 -0.208996,0.418898 3.37833,-2.332441 4.94837,-4.530074 1.151443,-1.464788 2.215125,-2.859004 2.947669,-4.428139 0.208997,-0.418296 0.784719,-0.261473 0.993716,-0.680069 0,-0.10465 0.22679,-0.34863 0.01779,-0.34863 -0.523246,0 -0.749735,0.331439 -1.185823,0.57542 0,-0.418597 0.488262,-0.69726 0.784718,-1.255489 -0.104951,0.104649 -0.22679,-0.33144 0.01749,-0.854686 -0.06967,-0.453278 -0.418597,-0.383613 -0.418597,-1.011508 z" /><path
       style="fill:#fcdddb;stroke-width:0.30158272"
       inkscape:connector-curvature="0"
       id="path182"
       d="m 55.145914,27.155111 c -2.497709,2.154809 -4.831657,5.321126 -6.437585,8.398174 -0.714148,1.368281 -0.696355,2.881623 -0.713545,2.795069 -0.836892,-1.360138 0.214124,-3.6585 0.694545,-4.416076 2.486851,-3.923893 6.051559,-8.875278 10.430239,-9.032402 -1.360742,0.313947 -2.958829,1.379439 -3.973654,2.255235 z" /><path
       d="m 30.927614,33.952786 c 1.039254,-1.038953 2.197332,-0.682783 2.464534,-0.474691 0.267504,0.20779 0.742497,1.336011 1.158379,1.484993 0.415581,0.148379 1.662927,0.801607 3.117763,0.148379 1.455136,-0.653832 2.019096,-1.276901 2.048953,-2.019097 0.02986,-0.742496 0.267202,-0.683386 -0.623372,-1.455136 -0.890875,-0.772354 -0.949985,-0.623673 -1.425581,-1.009699 -0.474993,-0.385725 -0.50485,-0.831162 -0.148379,-1.336012 0.356471,-0.504246 1.336313,-0.385724 2.07881,0.05941 0.742195,0.445438 2.13792,1.513945 2.316155,1.662324 0.178235,0.148379 2.07881,1.752196 2.613214,1.752196 0.534103,0 0.653229,0.05941 1.187633,-0.296758 0.534405,-0.356169 0.386026,-0.14868 1.068809,-0.623371 0.683085,-0.475295 0.980144,-0.71264 0.980144,-0.71264 l -1.395725,2.761593 -1.098967,2.969383 -0.356471,1.247648 -1.247045,-1.782354 -0.594118,-1.424978 -1.068809,-0.891177 -0.683085,-0.682783 -0.594118,0.653228 -0.920732,1.514247 -3.741133,1.454835 -2.583358,-0.05941 -2.256744,-0.207791 -1.217489,-1.009698"
       id="path186"
       inkscape:connector-curvature="0"
       style="fill:#f59298;stroke-width:0.30158272" /><path
       d="m 32.285038,26.369488 c 0.304598,1.390297 -2.998939,1.367376 -2.640357,3.411504 0.138426,0.789242 0.698164,0.355868 1.014223,0.752147 0.314551,0.394772 0.381502,0.791655 0.203266,1.148126 -0.178235,0.356471 -0.465945,0.646292 -0.712639,0.712338 -0.432772,0.11611 -0.356471,-0.08927 -0.71264,0.05941 -0.356471,0.148379 -0.534405,0.356471 -0.534405,0.356471 l -1.009699,0.653228 -0.445438,0.326313 -0.920732,-0.682784 -0.445438,-1.098967 0.178236,-2.137619 0.474993,-1.632467 0.861018,-1.48439 0.831464,-0.801607 1.128221,-0.14868 c 0,0 0.502135,-0.08173 1.158379,-0.08897 0.968081,-0.01056 1.469311,0.188791 1.571548,0.655942 z"
       id="path188"
       inkscape:connector-curvature="0"
       style="fill:#f59298;stroke-width:0.30158272" /><path
       d="m 30.645037,22.945916 2.424122,2.249807 c 0,0 0.383614,0.400804 0.819702,0.470771 0.436089,0.06997 0.854384,0.174616 1.220807,-0.627594 0.366122,-0.80221 0.296154,-1.25579 0.33144,-1.656594 0.03468,-0.401406 -0.01749,-1.116157 0.03468,-1.621911 0.05248,-0.505755 0.279265,-0.959335 0.575419,-1.203316 0.296456,-0.244282 0.348932,-0.540737 0.976525,-0.959334 0.627896,-0.418597 0.80221,-0.592912 1.046492,-0.92405 0.244282,-0.331138 0.296456,-1.237997 0.261774,-1.464787 -0.03498,-0.226489 0.01749,-0.994017 -0.05248,-1.203315 -0.06967,-0.209299 -0.157125,-0.540738 -0.348931,-0.575722 -0.191807,-0.03468 -0.243981,0 -0.33144,0.244282 -0.08716,0.244282 -0.348629,0.680069 -0.348629,0.680069 l -0.191505,0.366122 -0.436089,0.749735 -0.401105,0.836892 -0.156823,0.348931 -0.57542,0.715053 -0.523246,0.331439 -0.540436,0.104649 -0.57542,-0.906859 -0.505754,-0.122141 -0.506056,0.209298 -1.203014,1.342647 -1.37763,1.761544 0.06967,0.505755"
       id="path190"
       inkscape:connector-curvature="0"
       style="fill:#f59298;stroke-width:0.30158272" /><path
       d="m 63.025969,22.708877 c -0.523246,-0.836892 -1.988335,-1.216283 -3.139175,-1.007286 -4.248697,0.980144 -9.958865,-0.373661 -11.493016,-1.256696 -0.104649,0 0.230107,-0.834781 0.02081,-1.148728 0.313646,-0.208997 0.421613,-0.349836 0.840209,-0.245187 0.732545,0.313646 1.618897,0.183362 2.351139,0.07902 -0.420104,-0.840511 -0.861621,-2.457899 -1.489215,-3.399441 -0.627895,0.522945 -1.586024,0.921335 -2.213919,1.339932 -1.156871,-3.125302 -5.073225,-3.693785 -8.238335,-1.882479 -0.09078,0.05217 -0.176426,0.03921 -0.176426,0.03921 0,0 -0.850162,-1.804973 -1.216283,-2.642167 -1.131539,0.673736 -2.118921,1.582707 -2.55712,1.582707 -0.850162,0 -1.883083,-0.0066 -2.720578,-0.111284 0,1.464787 0.562452,3.152142 0.627895,4.401298 -1.255489,1.255489 -2.510978,2.511279 -3.348473,4.080414 -0.928573,-0.215631 -1.953351,-0.358883 -2.903639,0.03951 -0.608292,0.255139 -1.313995,1.01573 -1.072428,1.843876 0.13722,0.471073 0.732243,0.961446 1.883083,1.255791 -2.255839,2.184062 -3.394012,6.708708 -1.360138,8.264573 -0.522945,0.522944 -1.139078,1.016032 -1.320933,1.69399 -0.242171,0.902336 0.275949,1.227442 0.902336,1.340535 1.157474,0.208997 2.001303,-0.359788 2.838195,-0.883034 1.804671,1.07273 3.027891,0.994318 5.113938,1.092031 0.208997,0.01 0.699672,0.627895 0.699672,0.627895 0,0 -1.408994,-0.16014 -2.138523,0.05881 -0.981048,0.294043 -1.836036,1.21749 -1.157474,2.01397 1.013318,1.190347 2.955812,1.628546 4.714944,1.190347 1.066095,1.144506 0.569087,3.001653 -1.222918,3.747467 1.569437,-0.104951 3.381044,-1.15084 3.57074,-3.322236 0.03649,-0.417089 -0.202966,-1.07273 -0.516612,-1.386677 -0.209298,-0.208997 -0.497008,-0.522945 -0.497008,-0.522945 0,0 0.882431,-1.679212 -0.941541,-2.615928 0.725005,-0.145363 2.092381,-0.732846 2.092381,-0.732846 0,0 0.553706,0.646292 1.046492,0.732846 0.525357,0.09198 1.158077,-0.206886 1.360439,-0.732846 0.295552,-0.769941 -0.627895,-1.360138 -0.627895,-1.360138 l 0.732545,-1.15084 c 0,0 0.631816,0.597737 0.918922,1.077857 0.893891,1.494945 1.069111,3.002859 1.906003,4.467646 0.418597,0.732243 1.157475,1.334202 1.890019,1.64815 0.627895,0.208997 1.314599,0.248504 2.020906,0.124252 1.183109,-0.208394 2.112285,-0.601959 2.792354,-1.007286 4.676644,-2.787228 7.953943,-6.422205 10.785504,-11.580476 0.743703,-1.353201 2.289314,-4.079509 1.243124,-5.753595 z M 49.735821,16.470035 c 0,0 0.278361,0.486755 0.418597,0.836892 0.208997,0.523246 0.61553,1.523295 0.61553,1.523295 l -0.844733,-0.141443 -0.79075,-0.566071 c 0,0 -0.112189,0.416185 -0.549484,0.753656 -0.212012,-0.612213 0.24579,-0.920129 -0.395073,-1.606833 0.522944,-0.313345 1.545913,-0.799496 1.545913,-0.799496 z M 38.225916,41.528544 c 0.192108,1.116158 -0.80221,2.249506 -1.482279,2.685293 0.592912,-0.92405 1.168331,-1.325456 0.488262,-3.226031 -0.268408,-0.750338 -0.941843,-1.290472 -1.621912,-1.743449 -0.208996,-0.139633 -0.498214,-0.233727 -0.819701,-0.313948 -0.34863,-0.08776 -0.732545,0.174315 -1.046191,0.487659 0,0 0.994017,0.488866 1.848401,0.645689 0.488262,0.645688 -0.488263,0.662577 -0.488263,0.662577 -0.104649,0.104348 -2.833671,-0.275043 -2.65061,-1.603817 0.06967,-0.506659 1.098665,-1.482581 3.156364,-0.680371 1.136666,0.442724 2.436789,2.043827 2.615929,3.086398 z M 37.074775,37.60435 c 0.512992,0.233726 0.523246,0.837495 0.523246,1.360741 0,0.104951 -0.104951,0.104951 -0.209299,0.208997 -0.331439,-0.57542 -0.854384,-0.854686 -1.360439,-1.255188 -0.115808,-0.09198 -0.174315,-0.122442 -0.06936,-0.22679 0.313646,-0.314551 0.732544,-0.262075 1.115856,-0.08776 z m 3.813513,-1.788989 c -0.194822,0.73164 -0.874288,0.606784 -0.942144,0.235536 -0.05941,-0.325106 0.338376,-0.422216 0.479215,-0.582055 0.113998,0.05971 0.490072,0.24579 0.462929,0.346519 z m 3.966718,1.917463 c -1.124602,-3.387377 -4.264078,-6.486743 -5.787373,-7.376714 -0.09047,-0.05248 -0.281376,0.229203 -0.281376,0.229203 0,0 1.373407,1.28806 1.582706,2.229903 0.209298,0.837495 -0.261472,1.733497 -0.78502,2.36079 -2.092381,1.988636 -4.930878,1.595674 -7.624916,1.405978 -0.841718,-0.05881 -2.07308,-0.627292 -1.425883,-1.883082 -0.941843,0.732242 -2.40663,2.099317 -3.466091,1.674085 -0.205377,-0.08233 -0.516611,-0.605578 -0.290122,-1.083888 0.381804,-0.805829 1.660816,-2.072175 2.780593,-2.634627 0.05941,-0.113696 -0.08625,-0.313646 -0.497612,-0.124252 -0.42493,0.195426 -1.267854,1.010302 -1.606531,0.843527 -1.909622,-0.938827 -0.686101,-4.447742 -0.05911,-5.60582 0.778988,-1.438851 1.771798,-1.695498 2.81829,-2.009445 -1.24433,-0.221664 -2.196125,-0.351344 -2.82402,-0.97924 -0.313646,-0.418596 -0.164061,-0.74521 0.149886,-1.163807 0.313948,-0.313646 0.672228,-0.529278 1.116158,-0.65926 0.417994,-0.122141 0.786226,-0.07208 1.195474,0.01628 1.027794,0.221664 1.083587,0.7431 1.606531,0.638451 -0.109173,-0.23433 -0.636038,-0.738878 -0.535008,-0.949684 0.505453,-1.056444 1.336917,-2.178332 2.475693,-3.134953 0.142045,-0.119426 0.267805,-0.147473 0.477104,-0.147473 0.313646,0.104649 0.193013,0.420406 0.374566,0.726814 0.311233,0.524754 1.174966,0.520833 1.69791,0.102236 1.046492,-0.836892 1.398741,-2.406931 1.817036,-3.662722 0,-0.104649 0.340789,-0.760893 -0.232822,-0.574515 -0.278059,1.148126 -0.732544,2.092683 -1.360439,3.138873 -0.313948,0.418597 -0.677355,0.80221 -1.2003,0.592912 -0.104649,-0.104649 -0.323598,-0.162553 -0.369137,-0.487961 -0.209298,-1.500073 -0.517214,-4.30449 -0.517214,-4.30449 0,0 1.457248,0.193013 2.004319,0.06816 0.323598,-0.07389 1.050412,-0.935208 1.783258,-1.249155 0.522945,0.732243 1.010604,1.42528 1.464788,2.146364 2.092381,-0.941843 4.550883,-1.700022 6.643566,-0.130585 0.732544,0.627895 1.510326,1.409597 1.758528,2.109571 0.18849,0.529881 0.307313,1.839654 0.166474,2.836385 1.778735,0.941542 3.537566,1.47293 5.52952,1.871924 0.887557,0.177934 1.558579,0.250917 2.426836,0.31998 0.430057,0.03408 1.431311,0.175521 3.434424,-0.175823 -4.081922,0.836892 -7.378222,3.458249 -10.150672,6.656534 -1.360138,1.56823 -3.81864,5.40587 -4.139524,6.780786 -0.13722,0.588388 -0.176728,0.896002 -0.15049,1.588738 z M 61.561181,27.352045 c -0.68037,2.019699 -2.445836,4.661564 -4.264379,6.642661 -1.689165,1.840258 -6.490362,6.25181 -9.868391,6.06513 -1.580896,-0.08716 -2.20276,-1.720529 -1.633975,-3.53666 1.081174,-3.45252 5.841959,-10.444112 11.895026,-12.951169 1.256997,-0.520834 3.479059,-0.758782 3.976067,-0.09168 0.717164,0.962652 0.317868,2.617135 -0.104348,3.871719 z"
       id="path192"
       inkscape:connector-curvature="0"
       style="stroke-width:0.30158272" /><path
       d="m 44.799515,17.031582 c -0.8384,-0.827543 -2.030557,2.035985 -2.356869,1.01181 0.689116,-0.689116 1.469612,-1.884892 2.511279,-1.696403 1.279917,0.231917 0.25906,1.953352 0.921637,2.450058 0.205378,0.154411 0.446644,-0.717465 0.79467,-0.358581 -0.31455,0.844431 -1.147823,0.463532 -1.147823,0.463532 0,0 -0.275949,1.291076 -0.668308,0.978938 -0.04494,-0.135109 0.115506,-0.273234 0.188188,-0.487961 0.11249,-0.332646 0.14295,-0.710831 -0.132395,-0.485247 -0.184267,0.151395 -0.439406,0.524151 -0.286805,1.009699 0.02503,0.07962 0.397184,0.198743 0.154712,0.347424 -0.132697,0.138728 -0.419502,-0.0383 -0.49731,-0.269012 -0.260869,-0.769036 0.408946,-1.700927 1.004874,-1.485597 -0.171601,-0.41347 -0.13903,-1.136363 -0.48585,-1.47866 z"
       id="path198"
       inkscape:connector-curvature="0"
       style="stroke-width:0.30158272" /><path
       d="m 47.150955,19.421625 c 0,-0.114903 -0.114903,-0.344709 -0.344709,-0.229806 -0.114903,0.114903 -0.258155,0.164664 -0.307614,0.389042 -0.04946,0.226187 -0.258155,0.537119 -0.143553,0.766925 0.459913,0.229504 0.910779,-0.466549 0.795876,-0.926161 z m -0.23825,0.319376 c -0.01659,0.198442 -0.04403,0.176426 -0.137823,0.331138 -0.09409,0.154712 -0.132395,0.02744 -0.159839,-0.09952 -0.02775,-0.126665 0.02744,-0.159839 0.08806,-0.36401 0.05187,-0.174315 0.10284,-0.152903 0.127569,-0.155014 0.115507,-0.01056 0.09862,0.08866 0.08203,0.287408 z"
       id="path200"
       inkscape:connector-curvature="0"
       style="stroke-width:0.30158272" /><path
       d="m 52.351448,30.071416 c 1.832417,-2.238648 4.587676,-4.885942 6.768421,-5.224317 -0.05609,0.966572 -1.351694,0.495802 -1.456644,1.228044 -0.104951,0.418597 -0.414074,0.642673 -0.700276,1.171046 -1.284139,2.374663 -3.012811,3.998987 -4.671214,6.019591 -3.06016,3.727865 -3.807482,2.890973 -4.241762,4.902529 -0.268408,-2.453677 2.418091,-5.795515 4.301475,-8.096893 z"
       id="path206"
       inkscape:connector-curvature="0"
       style="stroke-width:0.30158272" /><path
       d="m 56.014773,30.698708 c 0.867654,-1.124602 2.869258,-3.255284 4.961941,-3.987828 0.244282,0.309725 -0.826337,0.651117 -0.880622,0.745512 -1.731084,3.011606 -2.198236,3.320125 -3.518867,5.064479 -2.499216,3.30022 -4.286998,3.692579 -4.644374,5.301221 -0.06544,-1.891828 2.444328,-5.001448 4.081922,-7.123384 z"
       id="path208"
       inkscape:connector-curvature="0"
       style="stroke-width:0.30158272" /><path
       d="m 37.339564,33.455778 c -0.209298,-0.523548 0.55069,-1.134856 0.919526,-0.886352 -0.190902,0.273234 -0.521738,0.832067 -0.919526,0.886352 z"
       id="path210"
       inkscape:connector-curvature="0"
       style="stroke-width:0.30158272" /></g></g>
</svg>