<svg xmlns="http://www.w3.org/2000/svg" width="120" height="60"><linearGradient gradientUnits="userSpaceOnUse" x1="-323.978" y1="338.121" x2="-323.271" y2="337.414"><stop offset="0" stop-color="#64aa52"/><stop offset=".983" stop-color="#273820"/></linearGradient><path d="M53.4 52.3L45.9 42l-2.8 2.9v7.3h-5.3v-24h5.3v10.5l9.7-10.5h6.4l-9.8 10.2 10.2 13.8h-6.2z" fill="#f72"/><path d="M64.9 52.3v-24h5.3v24z" fill="#fb1"/><path d="M88.8 32.9v19.3h-5.3V32.9h-7.3v-4.7h19.9v4.7z" fill="#3b4"/><path d="M101.9 52.3v-24H120V33h-12.9v4.9h11.3v4.7h-11.3v5h13v4.7z" fill="#15a"/><path d="M135.2 52.6a15.75 15.75 0 0 1-10.2-3.8l3.1-3.7c2.2 1.8 4.4 2.9 7.2 2.9 2.2 0 3.5-.9 3.5-2.3v-.1c0-1.3-.8-2-4.8-3.1-4.8-1.2-8-2.6-8-7.3v-.1c0-4.4 3.5-7.2 8.4-7.2 3.5 0 6.5 1.1 8.9 3.1l-2.7 4c-2.1-1.5-4.2-2.4-6.2-2.4s-3.1.9-3.1 2.1v.1c0 1.6 1 2.1 5.2 3.2 4.9 1.3 7.6 3 7.6 7.2v.1c-.1 4.6-3.7 7.3-8.9 7.3z" fill="#639"/><path d="M32.5 39.7c0 6.6-5.7 13.6-14.9 13.6C6.7 53.3 0 45.4 0 35c0-7.7 4.2-14.1 10.7-18.7 3.9-2.8 9.1-4.7 13.7-5.4l.4 1.4c-5.9 1.7-10.5 4.9-13.5 9.2C7.9 26.4 7 31.4 7 36.7c0 7.6 4.6 14.4 10.8 14.4 4.9 0 8-3.8 8-10.1 0-5.7-3.8-9.7-8.7-9.7-2.5 0-3.5.4-4.6 1.1l-.4-.6c1.7-2.1 5.4-3.6 8.4-3.6 6.2 0 12 3.7 12 11.5z" fill="#666"/><path d="M11.2 18.4C6.9 21.7 2 27.1 2 35c0 6.6 2.9 11.8 7.8 14.4-2.9-3-4.8-7.6-4.8-12.7C5 30.1 6.5 25 9.7 20.3c.5-.7 1-1.3 1.5-1.9zm10.4 11.8c3.7 1.8 6.2 5.8 6.2 10.7 0 3-.7 5.6-1.8 7.6 2.9-2.3 4.5-5.6 4.5-8.8 0-6.5-4.6-9.1-8.9-9.5z" fill="#fff"/><path d="M23.6 1.6L24 0l13.9 8-8 13.9-1.2-1.2c1.9-3.3.8-7.6-2.6-9.5 2-3.4.9-7.7-2.5-9.6z" fill="#f11"/></svg>