<svg xmlns="http://www.w3.org/2000/svg" xml:space="preserve" width="120" height="60" version="1.0">
    <path d="M104.1 23.15h-5.627v1.195c0 1.141-.61 1.939-2.018 1.939v4.353h1.168v4.803c0 4.512 2.071 5.973 5.653 5.973 2.575 0 4.566-.796 4.566-.796V36.45s-1.222.24-2.204.24c-1.008 0-1.54-.504-1.54-1.699v-4.353h3.584v-4.352H104.1zM83.104 40.59s2.362.823 6.397.823c4.592 0 6.69-1.938 6.69-5.097 0-3.08-1.912-4.565-6-4.99-1.645-.158-2.017-.344-2.017-.768s.61-.637 2.044-.637c2.176 0 5.043.372 5.043.372V26.71s-2.096-.795-6.157-.795c-4.83 0-6.77 2.096-6.77 4.857 0 2.972 2.23 4.538 5.92 5.043 1.672.24 2.044.398 2.044.876 0 .424-.345.69-1.911.69-1.964 0-5.283-.477-5.283-.477zM71.559 26.284h-7.273v4.353h1.167v4.352c0 4.434 1.805 6.424 4.698 6.424 2.39 0 3.636-1.327 4.485-2.176v1.804h7.273v-4.353h-1.167V26.284h-7.538v4.353h1.432v4.352c0 1.195-.53 1.7-1.54 1.7-1.008 0-1.54-.505-1.54-1.7z" style="fill:#010202;stroke-width:.167543"/>
    <path d="M37.782 13.94a1.363 1.363 0 1 1 2.726 0 1.363 1.363 0 0 1-2.726 0m-16.26 12.34a1.363 1.363 0 1 1 2.725 0 1.363 1.363 0 0 1-2.726 0m32.523.063a1.363 1.363 0 0 1 2.726 0 1.363 1.363 0 0 1-2.726 0m-28.579 1.872a1.247 1.247 0 0 0 .632-1.642l-.604-1.368h2.379v10.72h-4.8a16.8 16.8 0 0 1-.543-6.406zm9.95.264v-3.16h5.664c.292 0 2.064.338 2.064 1.662 0 1.1-1.362 1.496-2.48 1.496zM27.68 45.493a1.363 1.363 0 1 1 2.726 0 1.363 1.363 0 0 1-2.726 0m20.198.063a1.363 1.363 0 0 1 2.726 0 1.363 1.363 0 0 1-2.726 0m.422-3.092a1.24 1.24 0 0 0-1.476.956l-.684 3.193a16.78 16.78 0 0 1-13.995-.067l-.684-3.193a1.24 1.24 0 0 0-1.476-.956l-2.82.605a17 17 0 0 1-1.457-1.719h13.716c.155 0 .258-.028.258-.169v-4.851c0-.144-.103-.17-.258-.17h-4.013v-3.075h4.338c.396 0 2.117.115 2.669 2.313l.81 3.583c.258.788 1.308 2.37 2.426 2.37h7.08a17 17 0 0 1-1.555 1.798zm7.616-12.81a17 17 0 0 1 .036 2.914h-1.72c-.172 0-.244.114-.244.282v.791c0 1.864-1.049 2.265-1.969 2.37-.874.1-1.849-.367-1.966-.903-.516-2.907-1.376-3.526-2.723-4.601 1.686-1.072 3.442-2.652 3.442-4.768 0-2.285-1.566-3.724-2.634-4.43-1.498-.988-3.156-1.184-3.603-1.184H26.714a16.8 16.8 0 0 1 9.389-5.299l2.1 2.203a1.24 1.24 0 0 0 1.756.04l2.35-2.246A16.78 16.78 0 0 1 53.8 23.005l-1.608 3.632a1.247 1.247 0 0 0 .632 1.643zm4.01.057-.054-.561 1.656-1.545c.337-.316.211-.946-.219-1.107l-2.117-.791-.166-.545 1.319-1.834c.269-.373.021-.968-.43-1.042l-2.233-.363-.268-.501.938-2.06c.192-.42-.164-.956-.626-.939l-2.264.08-.359-.435.52-2.207c.105-.449-.35-.903-.798-.799l-2.207.52-.436-.358.08-2.264c.016-.459-.52-.817-.938-.626l-2.058.938-.502-.269-.364-2.233c-.072-.453-.67-.7-1.042-.43l-1.834 1.319-.545-.165-.791-2.117c-.16-.43-.793-.556-1.107-.22l-1.545 1.656-.561-.054-1.193-1.928c-.24-.39-.888-.39-1.128 0l-1.192 1.928-.562.054-1.548-1.66c-.315-.335-.946-.21-1.106.221l-.792 2.117-.544.165-1.835-1.319c-.372-.27-.969-.021-1.042.43L29.67 13l-.501.27-2.058-.94c-.419-.19-.956.168-.938.627l.08 2.265-.437.358-2.207-.52c-.448-.105-.903.35-.798.798l.52 2.207-.358.434-2.265-.078c-.458-.015-.817.518-.626.938l.939 2.06-.27.501-2.233.363c-.452.072-.699.67-.43 1.042l1.32 1.835-.167.544-2.117.791c-.43.16-.556.793-.22 1.107l1.657 1.545-.054.562-1.928 1.192c-.39.24-.39.889 0 1.128l1.928 1.192.054.562-1.66 1.55c-.336.316-.211.947.219 1.107l2.117.792.166.544-1.319 1.835c-.268.372-.021.969.43 1.042l2.232.362.27.502-.94 2.058c-.19.418.17.956.627.939l2.264-.08.358.437-.52 2.207c-.104.447.35.903.799.797l2.207-.52.435.358-.078 2.264c-.018.459.518.817.937.626l2.058-.938.502.27.364 2.23c.071.455.669.7 1.042.434l1.834-1.322.545.166.79 2.117c.161.43.793.556 1.107.22l1.545-1.657.562.057 1.193 1.928c.24.387.885.39 1.128 0l1.192-1.928.562-.057 1.545 1.656c.315.337.946.211 1.106-.219l.791-2.117.545-.166 1.835 1.322c.372.268.968.021 1.042-.433l.364-2.232.501-.27 2.058.94c.419.19.955-.167.938-.627l-.08-2.264.435-.359 2.207.52c.449.105.903-.35.798-.796l-.52-2.207.359-.436 2.264.079c.459.018.817-.52.626-.939l-.938-2.058.268-.502 2.233-.362c.454-.072.702-.668.43-1.042l-1.32-1.835.167-.544 2.117-.792c.43-.162.556-.792.22-1.106l-1.657-1.545.054-.562 1.928-1.192c.39-.241.39-.886 0-1.128z" style="stroke-width:1.43322"/>
</svg>
