<svg xmlns="http://www.w3.org/2000/svg" width="120" height="60"><path d="M92.8 56.092c-3.66 0-5.827-1.877-5.963-4.522h3.435c0 .822.525 2.046 2.738 2.08 1.48 0 2.18-.868 2.18-1.523-.1-1.035-1.403-1.127-2.8-1.347-1.384-.217-2.56-.477-3.428-.9-1.1-.564-1.832-1.788-1.832-3.172 0-2.344 2.048-4.223 5.443-4.223 3.302 0 5.388 1.745 5.605 4.3h-3.302c-.047-.696-.176-1.782-2.135-1.782-1.306 0-2.168.263-2.256 1.172 0 1.345 2.734 1.263 4.865 1.823 2.042.516 3.35 1.8 3.35 3.573 0 3.256-2.654 4.52-5.9 4.52M29.658 34.27l11.437-6.57 6.04 10.44H31.868l-2.22-3.87m22.35 8.335h3.265V55.78h-3.265zM24.432 49.26c0 2.046 1.733 3.736 3.78 3.736 2.085 0 3.828-1.7 3.828-3.736s-1.742-3.782-3.828-3.782a3.84 3.84 0 0 0-3.78 3.782m3.695 6.833c-3.74 0-6.826-3.097-6.826-6.833 0-3.782 3.085-6.785 6.826-6.785 1.434 0 2.784.392 3.914 1.176v-1.043h3.22v13.178h-3.22V54.9c-1.1.74-2.44 1.182-3.914 1.182"/><path d="M72.04 38.13l-15.9-27.6 11.438-6.6 19.784 34.22H72.04m-32.522 11.1c0 2.046 1.736 3.736 3.828 3.736 2.042 0 3.78-1.7 3.78-3.736s-1.736-3.782-3.78-3.782c-2.1 0-3.828 1.736-3.828 3.782m3.742 6.833c-3.787 0-6.868-3.097-6.868-6.833 0-3.782 3.08-6.785 6.868-6.785 1.434 0 2.742.392 3.865 1.176v-5.52h3.26v17.657h-3.26V54.9c-1.124.74-2.43 1.182-3.865 1.182m-.265-33.565l11.483-6.56L67.304 38.13H55.257v3.266h-3.26V38.13l-9.002-15.613M74.782 49.26c0 2.046 1.742 3.736 3.8 3.736a3.76 3.76 0 0 0 3.732-3.736c0-2.046-1.692-3.782-3.732-3.782-2.047 0-3.8 1.736-3.8 3.782m3.655 6.833a6.88 6.88 0 0 1-6.827-6.833c0-3.782 3.1-6.785 6.827-6.785 1.434 0 2.78.392 3.865 1.176v-1.043h3.268v13.178h-3.268V54.9c-1.085.74-2.385 1.182-3.865 1.182m-18.702-6.826a3.8 3.8 0 0 0 3.743 3.741c2.085 0 3.826-1.692 3.826-3.74 0-2.042-1.74-3.777-3.826-3.777-2 0-3.743 1.735-3.743 3.777m7.57-11.125h3.218v17.65h-3.218v-.868c-1.084.737-2.432 1.18-3.916 1.18-3.74 0-6.827-3.095-6.827-6.836 0-3.777 3.087-6.78 6.827-6.78 1.484 0 2.785.4 3.916 1.176z"/></svg>