<svg xmlns="http://www.w3.org/2000/svg" width="64" height="64"><g transform="matrix(2.534875 0 0 2.534875 -216.37069 -44.046235)"><path d="M85.358 17.376v25.248h25.248V17.376zM97.98 36.762c-3.732 0-6.762-3.03-6.762-6.762s3.03-6.762 6.762-6.762 6.762 3.03 6.762 6.762-3.03 6.762-6.762 6.762z" fill="#6f6"/><circle r="6.762" cy="30" cx="103.843" fill="#2568ef"/><path d="M103.843 23.238c-1.054 0-2.042.242-2.92.66 2.283 1.098 3.842 3.425 3.842 6.103 0 2.7-1.56 5.006-3.842 6.103a6.86 6.86 0 0 0 2.92.659c3.732 0 6.762-3.03 6.762-6.762s-3.03-6.762-6.762-6.762z" fill="#0f6860"/></g></svg>