<?xml version="1.0" encoding="UTF-8" standalone="no"?>
<!-- Generator: Adobe Illustrator 19.0.0, SVG Export Plug-In . SVG Version: 6.00 Build 0)  -->

<svg
   xmlns:dc="http://purl.org/dc/elements/1.1/"
   xmlns:cc="http://creativecommons.org/ns#"
   xmlns:rdf="http://www.w3.org/1999/02/22-rdf-syntax-ns#"
   xmlns:svg="http://www.w3.org/2000/svg"
   xmlns="http://www.w3.org/2000/svg"
   xmlns:sodipodi="http://sodipodi.sourceforge.net/DTD/sodipodi-0.dtd"
   xmlns:inkscape="http://www.inkscape.org/namespaces/inkscape"
   version="1.1"
   id="Layer_1"
   x="0px"
   y="0px"
   viewBox="0 0 64 64"
   xml:space="preserve"
   inkscape:version="0.92.3 (2405546, 2018-03-11)"
   sodipodi:docname="yiiframework-icon.svg"
   width="64"
   height="64"><metadata
     id="metadata4156"><rdf:RDF><cc:Work
         rdf:about=""><dc:format>image/svg+xml</dc:format><dc:type
           rdf:resource="http://purl.org/dc/dcmitype/StillImage" /><dc:title></dc:title></cc:Work></rdf:RDF></metadata><defs
     id="defs4154"><clipPath
       id="clipPath4181"
       clipPathUnits="userSpaceOnUse"><path
         inkscape:connector-curvature="0"
         id="path4183"
         d="M 0,792 H 612 V 0 H 0 Z" /></clipPath></defs><sodipodi:namedview
     pagecolor="#ffffff"
     bordercolor="#666666"
     borderopacity="1"
     objecttolerance="10"
     gridtolerance="10"
     guidetolerance="10"
     inkscape:pageopacity="0"
     inkscape:pageshadow="2"
     inkscape:window-width="1920"
     inkscape:window-height="1001"
     id="namedview4152"
     showgrid="false"
     inkscape:zoom="4"
     inkscape:cx="54.332909"
     inkscape:cy="23.679453"
     inkscape:window-x="-9"
     inkscape:window-y="-9"
     inkscape:window-maximized="1"
     inkscape:current-layer="Layer_1" /><g
     id="g991"
     transform="matrix(2.0562876,0,0,2.0562876,-12.602241,-29.688625)"><g
       transform="matrix(1.6470594,0,0,1.6470594,2.3691703,-32.603265)"
       id="g911"><g
         transform="matrix(0.2819748,0,0,-0.2819748,-37.58294,127.22082)"
         inkscape:label="yii_logo_4 cveta"
         id="g4175"><g
           id="g4177"><g
             clip-path="url(#clipPath4181)"
             id="g4179"><g
               transform="translate(183.9946,331.1367)"
               id="g4185"><path
                 inkscape:connector-curvature="0"
                 id="path4187"
                 style="fill:#7cc734;fill-opacity:1;fill-rule:evenodd;stroke:none"
                 d="M 0,0 C -3.088,8.913 5.938,18.468 13.363,18.753 17.812,16.432 21.632,10.337 21.441,2.066 20.858,-8.124 13.648,-16.906 5.802,-24.997 5.364,-15.131 3.27,-8.842 0,0" /></g><g
               transform="translate(166.4893,282.874)"
               id="g4189"><path
                 inkscape:connector-curvature="0"
                 id="path4191"
                 style="fill:#3e7fca;fill-opacity:1;fill-rule:evenodd;stroke:none"
                 d="m 0,0 c -1.242,9.949 2.797,18.436 6.806,23.611 1.905,2.43 3.369,4.647 4.484,6.689 2.106,-0.912 7.767,-3.882 10.886,-8.704 C 21.723,14.601 16.554,1.871 0,0" /></g><g
               transform="translate(160.2344,320.6611)"
               id="g4193"><path
                 inkscape:connector-curvature="0"
                 id="path4195"
                 style="fill:#eb6e2e;fill-opacity:1;fill-rule:evenodd;stroke:none"
                 d="M 0,0 C -13.175,3.685 -16.425,15.259 -15.837,23.043 -3.043,28.229 10.726,22.917 18.676,11.845 24.25,4.085 27.74,-5.864 28.448,-14.547 24.624,-9.5 19.794,-6.576 13.642,-4.286 9.434,-2.721 5.547,-1.684 0,0" /></g><g
               transform="translate(459.5723,301.9727)"
               id="g4197" /><g
               transform="translate(262.3789,302.3389)"
               id="g4201" /><g
               transform="translate(259.4429,340.7461)"
               id="g4205" /><g
               transform="translate(240.5635,301.4668)"
               id="g4209" /></g></g></g></g></g></svg>