<?xml version="1.0" encoding="UTF-8" standalone="no"?>
<!-- Generator: Adobe Illustrator 16.0.2, SVG Export Plug-In . SVG Version: 6.00 Build 0)  -->

<svg
   xmlns:dc="http://purl.org/dc/elements/1.1/"
   xmlns:cc="http://creativecommons.org/ns#"
   xmlns:rdf="http://www.w3.org/1999/02/22-rdf-syntax-ns#"
   xmlns:svg="http://www.w3.org/2000/svg"
   xmlns="http://www.w3.org/2000/svg"
   xmlns:xlink="http://www.w3.org/1999/xlink"
   xmlns:sodipodi="http://sodipodi.sourceforge.net/DTD/sodipodi-0.dtd"
   xmlns:inkscape="http://www.inkscape.org/namespaces/inkscape"
   version="1.1"
   id="Layer_1"
   x="0px"
   y="0px"
   width="120"
   height="60"
   viewBox="0 0 84.421765 41.453494"
   enable-background="new 0 0 191.356 57.344"
   xml:space="preserve"
   sodipodi:docname="mariadb-ar21.svg"
   inkscape:version="0.92.3 (2405546, 2018-03-11)"><metadata
   id="metadata39"><rdf:RDF><cc:Work
       rdf:about=""><dc:format>image/svg+xml</dc:format><dc:type
         rdf:resource="http://purl.org/dc/dcmitype/StillImage" /><dc:title></dc:title></cc:Work></rdf:RDF></metadata><defs
   id="defs37">
	<defs
   id="defs3">
		<rect
   x="0"
   height="57.344002"
   width="191.356"
   y="0"
   id="SVGID_1_" />
	</defs>
	<clipPath
   id="SVGID_2_">
		<use
   height="100%"
   width="100%"
   y="0"
   x="0"
   style="overflow:visible"
   id="use5"
   overflow="visible"
   xlink:href="#SVGID_1_" />
	</clipPath>
	
	
	
	
	
	
	
	
	
	
	
	
</defs><sodipodi:namedview
   pagecolor="#ffffff"
   bordercolor="#666666"
   borderopacity="1"
   objecttolerance="10"
   gridtolerance="10"
   guidetolerance="10"
   inkscape:pageopacity="0"
   inkscape:pageshadow="2"
   inkscape:window-width="1920"
   inkscape:window-height="1001"
   id="namedview35"
   showgrid="false"
   inkscape:zoom="4.9852941"
   inkscape:cx="99.686477"
   inkscape:cy="15.298824"
   inkscape:window-x="-9"
   inkscape:window-y="-9"
   inkscape:window-maximized="1"
   inkscape:current-layer="Layer_1" />
<g
   id="g900"
   transform="translate(-2.8515753e-7,0.28017299)"><g
     transform="matrix(1.2402121,0,0,1.2402121,-31.441056,7.2271313)"
     id="g886"><path
       style="fill:#444b5e"
       inkscape:connector-curvature="0"
       id="path10"
       d="m 152.528,27.115 c -1.522,-2.088 -3.507,-3.131 -5.951,-3.131 -2.125,0 -3.948,0.781 -5.472,2.341 -1.523,1.542 -2.285,3.403 -2.285,5.584 0,2.163 0.752,4.034 2.257,5.613 1.523,1.561 3.386,2.342 5.584,2.342 2.2,0 4.156,-1.025 5.867,-3.075 v 2.567 h 1.891 V 24.379 h -1.891 z m -1.635,9.223 c -1.166,1.166 -2.567,1.749 -4.203,1.749 -1.617,0 -3.008,-0.602 -4.174,-1.806 -1.166,-1.222 -1.749,-2.66 -1.749,-4.315 0,-1.654 0.574,-3.083 1.721,-4.287 1.147,-1.222 2.548,-1.834 4.202,-1.834 1.674,0 3.084,0.593 4.231,1.777 1.146,1.166 1.721,2.605 1.721,4.316 0,1.768 -0.583,3.234 -1.749,4.4"
       clip-path="url(#SVGID_2_)"
       transform="matrix(0.40247549,0,0,0.40247549,4.5901326,8.5042016)" /><rect
       style="fill:#444b5e"
       id="rect12"
       height="14.977"
       width="1.946"
       clip-path="url(#SVGID_2_)"
       y="24.379999"
       x="135.011"
       transform="matrix(0.40247549,0,0,0.40247549,4.5901326,8.5042016)" /><polygon
       style="fill:#444b5e"
       id="polygon14"
       points="84.331,39.356 86.278,39.356 88.252,24.746 95.501,39.356 96.008,39.356 103.172,24.859 105.147,39.356 107.149,39.356 104.244,19.105 103.934,19.105 95.755,35.718 87.518,19.105 87.208,19.105 "
       clip-path="url(#SVGID_2_)"
       transform="matrix(0.40247549,0,0,0.40247549,4.5901326,8.5042016)" /><path
       style="fill:#444b5e"
       inkscape:connector-curvature="0"
       id="path16"
       d="m 121.864,27.115 c -1.521,-2.088 -3.506,-3.131 -5.951,-3.131 -2.124,0 -3.947,0.781 -5.471,2.341 -1.524,1.542 -2.285,3.403 -2.285,5.584 0,2.163 0.752,4.034 2.256,5.613 1.523,1.561 3.386,2.342 5.585,2.342 2.2,0 4.156,-1.025 5.866,-3.075 v 2.567 h 1.89 V 24.379 h -1.89 z m -1.635,9.223 c -1.166,1.166 -2.567,1.749 -4.203,1.749 -1.617,0 -3.008,-0.602 -4.174,-1.806 -1.166,-1.222 -1.749,-2.66 -1.749,-4.315 0,-1.654 0.573,-3.083 1.72,-4.287 1.148,-1.222 2.548,-1.834 4.203,-1.834 1.674,0 3.084,0.593 4.231,1.777 1.146,1.166 1.72,2.605 1.72,4.316 10e-4,1.768 -0.581,3.234 -1.748,4.4"
       clip-path="url(#SVGID_2_)"
       transform="matrix(0.40247549,0,0,0.40247549,4.5901326,8.5042016)" /><path
       style="fill:#444b5e"
       inkscape:connector-curvature="0"
       id="path18"
       d="m 170.655,21.756 c -0.978,-0.921 -2.143,-1.589 -3.497,-2.002 -1.335,-0.432 -3.441,-0.649 -6.318,-0.649 h -4.202 v 20.252 h 6.459 c 2.633,0 4.644,-0.396 6.035,-1.185 1.41,-0.79 2.521,-1.956 3.328,-3.498 0.828,-1.562 1.241,-3.215 1.241,-4.964 0,-1.769 -0.263,-3.309 -0.789,-4.625 -0.526,-1.317 -1.279,-2.426 -2.257,-3.329 m 0.367,11.225 c -0.434,1.034 -1.063,1.918 -1.891,2.651 -0.826,0.715 -1.796,1.193 -2.904,1.438 -1.091,0.245 -2.858,0.367 -5.304,0.367 h -2.341 V 21.079 h 1.438 c 2.426,0 4.26,0.132 5.501,0.395 1.259,0.245 2.35,0.734 3.271,1.467 0.922,0.733 1.627,1.664 2.116,2.792 0.508,1.128 0.761,2.36 0.761,3.695 0,1.335 -0.215,2.519 -0.647,3.553"
       clip-path="url(#SVGID_2_)"
       transform="matrix(0.40247549,0,0,0.40247549,4.5901326,8.5042016)" /><path
       style="fill:#444b5e"
       inkscape:connector-curvature="0"
       id="path20"
       d="m 183.707,28.299 c 0.847,-0.451 1.484,-1.043 1.918,-1.777 0.451,-0.752 0.677,-1.57 0.677,-2.454 0,-1.598 -0.555,-2.82 -1.664,-3.667 -1.091,-0.865 -2.698,-1.297 -4.823,-1.297 h -4.005 v 20.252 h 5.584 c 1.938,0 3.517,-0.546 4.739,-1.636 1.222,-1.11 1.833,-2.501 1.833,-4.175 0,-1.24 -0.367,-2.313 -1.1,-3.216 -0.715,-0.901 -1.768,-1.578 -3.159,-2.03 m -5.895,-7.219 h 2.342 c 2.708,0 4.062,0.996 4.062,2.989 0,1.204 -0.432,2.088 -1.297,2.652 -0.866,0.564 -2.182,0.846 -3.949,0.846 h -1.157 V 21.08 Z m 7.39,14.524 c -0.434,0.602 -0.996,1.053 -1.693,1.354 -0.676,0.282 -1.739,0.424 -3.186,0.424 h -2.512 v -7.785 h 1.128 c 1.824,0 3.065,0.094 3.725,0.282 0.677,0.188 1.25,0.471 1.72,0.847 0.489,0.376 0.855,0.809 1.101,1.297 0.243,0.489 0.366,1.053 0.366,1.692 0,0.639 -0.216,1.269 -0.649,1.889"
       clip-path="url(#SVGID_2_)"
       transform="matrix(0.40247549,0,0,0.40247549,4.5901326,8.5042016)" /><path
       style="fill:#444b5e"
       inkscape:connector-curvature="0"
       id="path26"
       d="m 135.972,19.105 c -0.38,0 -0.71,0.14 -0.991,0.421 -0.264,0.28 -0.396,0.611 -0.396,0.991 0,0.363 0.132,0.685 0.396,0.966 0.281,0.281 0.611,0.421 0.991,0.421 0.397,0 0.728,-0.132 0.991,-0.396 0.281,-0.281 0.421,-0.612 0.421,-0.991 0,-0.397 -0.14,-0.727 -0.421,-0.991 -0.264,-0.281 -0.594,-0.421 -0.991,-0.421"
       clip-path="url(#SVGID_2_)"
       transform="matrix(0.40247549,0,0,0.40247549,4.5901326,8.5042016)" /><path
       style="fill:#444b5e"
       inkscape:connector-curvature="0"
       id="path28"
       d="m 132.377,24.146 c -1.592,0.216 -3.013,0.969 -4.07,2.076 -0.071,0.075 -0.142,0.152 -0.21,0.231 V 24.41 h -0.336 v -0.031 h -1.509 v 0.031 14.947 0.005 h 1.965 v -3.685 -5.194 c 0,-0.866 0.239,-1.645 0.712,-2.339 0.806,-1.286 2.22,-2.148 3.839,-2.181 v -1.902 c -0.311,0.058 -0.391,0.08 -0.391,0.085"
       clip-path="url(#SVGID_2_)"
       transform="matrix(0.40247549,0,0,0.40247549,4.5901326,8.5042016)" /></g><g
     transform="translate(20.200324,-6.4124564)"
     id="g876"><path
       style="fill:#444b5e"
       inkscape:connector-curvature="0"
       id="path8"
       d="m 75.198,5.328 c -1.872,0.047 -2.977,0.863 -3.34,2.42 0.481,0.418 1.126,0.6 1.769,0.572 1.415,-0.061 2.817,-1.138 2.42,-2.965 C 75.749,5.33 75.465,5.32 75.198,5.328"
       clip-path="url(#SVGID_2_)"
       transform="matrix(0.40247549,0,0,0.40247549,4.5901326,8.5042016)" /><path
       style="fill:#444b5e"
       inkscape:connector-curvature="0"
       id="path30"
       d="M 84.839,0 H 84.697 84.672 C 83.337,0.043 83.13,0.767 80.247,1.477 77.335,2.194 74.522,1.505 71.386,2.821 62.025,6.748 60.031,20.293 51.521,25.1 45.16,28.693 39.009,30.288 33.24,32.095 c -3.792,1.188 -7.552,2.556 -10.988,5.516 -2.667,2.299 -3.391,4.085 -6.177,6.969 -2.835,2.933 -11.553,-2.258 -15.801,1.54 -0.373,0.332 -0.363,0.924 0.014,1.253 0.921,0.805 2.671,2.722 4.336,3.314 -0.528,1.001 -3.513,3.946 -2.904,5.419 0.641,1.549 8.039,0.497 14.88,-3.633 3.185,-1.924 5.723,-4.696 10.685,-5.357 6.42,-0.855 13.817,0.549 21.25,1.62 -1.103,3.286 -3.315,5.473 -5.088,8.089 -0.549,0.592 1.103,0.658 2.986,0.301 3.389,-0.838 5.832,-1.513 8.389,-3.001 3.143,-1.83 3.619,-6.52 7.474,-7.534 1.864,2.865 6.509,3.829 10.074,2.309 0.198,-0.084 0.392,-0.177 0.582,-0.275 0.431,-0.375 0.178,-0.813 -0.086,-1.135 -0.132,-0.119 -0.243,-0.237 -0.362,-0.364 -2.012,-2.162 -2.472,-7.266 -1.579,-9.748 1.017,-2.824 2.022,-7.343 3.046,-11.075 1.1,-4.01 1.506,-9.063 2.837,-11.106 2.002,-3.072 4.215,-4.127 6.136,-5.86 1.92,-1.733 3.679,-3.419 3.621,-7.384 C 86.547,0.734 85.946,0.03 84.839,0 m 0.204,4.163 c -0.396,2.734 -2.152,4.247 -4.207,5.688 -1.81,1.27 -3.794,2.493 -5.069,4.477 -1.305,2.031 -2.134,8.985 -4.159,15.852 -1.68,5.698 -4.184,11.335 -8.467,14.05 -0.278,0.176 -0.645,0.015 -0.704,-0.309 -0.289,-1.592 -0.24,-4.509 -0.734,-3.56 -0.62,1.77 -1.322,3.458 -2.143,5.027 -2.52,4.816 -6.166,8.505 -12.057,9.949 -0.475,0.116 -0.838,-0.423 -0.552,-0.82 2.718,-3.769 5.15,-7.825 5.447,-14.014 0.025,-0.534 -0.646,-0.778 -0.983,-0.364 -1.284,1.583 -1.591,5.347 -3.477,6.506 -1.474,0.161 -2.967,0.16 -4.469,0.07 -6.171,-0.37 -12.502,-2.226 -18.274,-0.373 -3.931,1.262 -8.057,4.849 -11.386,6.293 C 9.897,54.331 8.044,55.932 3.103,55.822 2.598,55.142 5.165,52.199 6.037,50.929 6.315,50.522 5.72,50.094 5.163,49.838 3.825,49.224 2.482,47.557 1.056,46.908 c 0.183,-0.337 0.831,-0.674 1.187,-0.881 3.241,-1.88 11.832,2.124 14.141,-0.143 1.425,-1.398 2.385,-2.626 3.353,-4.049 0.939,-1.381 2.368,-2.838 3.847,-4.047 0.546,-0.447 1.311,-1.003 1.941,-1.435 2.52,-1.724 3.907,-1.852 7.17,-3.064 4.152,-1.544 9.293,-2.898 13.747,-4.6 2.752,-1.053 5.744,-2.351 8.183,-4.169 0.579,-0.432 1.127,-0.893 1.634,-1.386 C 63.223,16.344 64.604,4.368 75.47,3.252 76.784,3.117 77.718,3.06 78.698,3.029 79.794,3 80.879,2.72 81.961,2.211 c 0.334,-0.146 2.324,-1.349 2.996,-0.768 0.448,0.388 0.115,2.492 0.086,2.72"
       clip-path="url(#SVGID_2_)"
       transform="matrix(0.40247549,0,0,0.40247549,4.5901326,8.5042016)" /></g></g>
</svg>