<?xml version="1.0" encoding="UTF-8" standalone="no"?>
<svg
   xmlns:dc="http://purl.org/dc/elements/1.1/"
   xmlns:cc="http://creativecommons.org/ns#"
   xmlns:rdf="http://www.w3.org/1999/02/22-rdf-syntax-ns#"
   xmlns:svg="http://www.w3.org/2000/svg"
   xmlns="http://www.w3.org/2000/svg"
   xmlns:sodipodi="http://sodipodi.sourceforge.net/DTD/sodipodi-0.dtd"
   xmlns:inkscape="http://www.inkscape.org/namespaces/inkscape"
   width="120"
   height="60"
   viewBox="0 0 12.029232 6.0167131"
   version="1.1"
   id="svg89"
   sodipodi:docname="reuters-ar21.svg"
   inkscape:version="0.92.3 (2405546, 2018-03-11)">
  <metadata
     id="metadata95">
    <rdf:RDF>
      <cc:Work
         rdf:about="">
        <dc:format>image/svg+xml</dc:format>
        <dc:type
           rdf:resource="http://purl.org/dc/dcmitype/StillImage" />
        <dc:title></dc:title>
      </cc:Work>
    </rdf:RDF>
  </metadata>
  <defs
     id="defs93" />
  <sodipodi:namedview
     pagecolor="#ffffff"
     bordercolor="#666666"
     borderopacity="1"
     objecttolerance="10"
     gridtolerance="10"
     guidetolerance="10"
     inkscape:pageopacity="0"
     inkscape:pageshadow="2"
     inkscape:window-width="1920"
     inkscape:window-height="1001"
     id="namedview91"
     showgrid="false"
     inkscape:zoom="2.1696"
     inkscape:cx="141.78932"
     inkscape:cy="-5.8182187"
     inkscape:window-x="-9"
     inkscape:window-y="-9"
     inkscape:window-maximized="1"
     inkscape:current-layer="svg89" />
  <linearGradient
     id="a"
     gradientUnits="userSpaceOnUse"
     x1="-29.204"
     y1="42.439999"
     x2="-49.812"
     y2="54.337002"
     gradientTransform="rotate(1.621,2763.8522,2729.7984)">
    <stop
       offset="0"
       stop-color="#ff9100"
       id="stop4" />
    <stop
       offset=".05"
       stop-color="#ff8d00"
       id="stop6" />
    <stop
       offset=".25"
       stop-color="#ff8300"
       id="stop8" />
    <stop
       offset=".5"
       stop-color="#ff8000"
       id="stop10" />
    <stop
       offset=".75"
       stop-color="#ff8300"
       id="stop12" />
    <stop
       offset=".95"
       stop-color="#ff8d00"
       id="stop14" />
    <stop
       offset="1"
       stop-color="#ff9100"
       id="stop16" />
  </linearGradient>
  <linearGradient
     id="b"
     gradientUnits="userSpaceOnUse"
     x1="-91.767998"
     y1="38.415001"
     x2="-123.81"
     y2="38.415001"
     gradientTransform="rotate(16.367,203.07912,512.18036)">
    <stop
       offset="0"
       stop-color="#ff9100"
       id="stop21" />
    <stop
       offset=".05"
       stop-color="#ff8d00"
       id="stop23" />
    <stop
       offset=".25"
       stop-color="#ff8300"
       id="stop25" />
    <stop
       offset=".5"
       stop-color="#ff8000"
       id="stop27" />
    <stop
       offset=".75"
       stop-color="#ff8300"
       id="stop29" />
    <stop
       offset=".95"
       stop-color="#ff8d00"
       id="stop31" />
    <stop
       offset="1"
       stop-color="#ff9100"
       id="stop33" />
  </linearGradient>
  <linearGradient
     id="c"
     gradientUnits="userSpaceOnUse"
     x1="-88.080002"
     y1="56.713001"
     x2="-124.34"
     y2="34.306"
     gradientTransform="rotate(13.286,290.17026,628.24536)">
    <stop
       offset="0"
       stop-color="#ff9100"
       id="stop38" />
    <stop
       offset=".05"
       stop-color="#ff8d00"
       id="stop40" />
    <stop
       offset=".25"
       stop-color="#ff8300"
       id="stop42" />
    <stop
       offset=".5"
       stop-color="#ff8000"
       id="stop44" />
    <stop
       offset=".75"
       stop-color="#ff8300"
       id="stop46" />
    <stop
       offset=".95"
       stop-color="#ff8d00"
       id="stop48" />
    <stop
       offset="1"
       stop-color="#ff9100"
       id="stop50" />
  </linearGradient>
  <linearGradient
     id="d"
     gradientUnits="userSpaceOnUse"
     x1="-14.588"
     y1="59.970001"
     x2="-42.696999"
     y2="11.284"
     gradientTransform="rotate(6.667,568.02026,577.55836)">
    <stop
       offset="0"
       stop-color="#ff9100"
       id="stop55" />
    <stop
       offset=".05"
       stop-color="#ff8d00"
       id="stop57" />
    <stop
       offset=".25"
       stop-color="#ff8300"
       id="stop59" />
    <stop
       offset=".5"
       stop-color="#ff8000"
       id="stop61" />
    <stop
       offset=".75"
       stop-color="#ff8300"
       id="stop63" />
    <stop
       offset=".95"
       stop-color="#ff8d00"
       id="stop65" />
    <stop
       offset="1"
       stop-color="#ff9100"
       id="stop67" />
  </linearGradient>
  <linearGradient
     id="e"
     gradientUnits="userSpaceOnUse"
     x1="38.310001"
     y1="72"
     x2="38.310001"
     gradientTransform="translate(0,-65.983287)">
    <stop
       offset="0"
       stop-color="#ff9100"
       id="stop72" />
    <stop
       offset=".05"
       stop-color="#ff8d00"
       id="stop74" />
    <stop
       offset=".25"
       stop-color="#ff8300"
       id="stop76" />
    <stop
       offset=".5"
       stop-color="#ff8000"
       id="stop78" />
    <stop
       offset=".75"
       stop-color="#ff8300"
       id="stop80" />
    <stop
       offset=".95"
       stop-color="#ff8d00"
       id="stop82" />
    <stop
       offset="1"
       stop-color="#ff9100"
       id="stop84" />
  </linearGradient>
  <g
     id="g908"
     transform="matrix(0.04470857,0,0,0.04470857,0.41240865,4.3488664)">
    <path
       style="fill:#666666"
       inkscape:connector-curvature="0"
       id="path2"
       d="m 114.121,-17.991287 h -4.125 c -0.37,0 -0.508,-0.342 -0.675,-0.674 l -4.867,-8.193 h -0.747 c -0.882,0 -3.613,-0.096 -4.39,-0.139 v 8.332 c 0,0.369 -0.273,0.674 -0.646,0.674 h -3.378 a 0.678,0.678 0 0 1 -0.674,-0.674 v -22.143 c 0,-0.678 0.4,-0.914 1.08,-1.014 1.76,-0.271 5.537,-0.438 8.007,-0.438 5.202,0 10.008,1.859 10.008,7.636 v 0.305 c 0,3.578 -1.79,5.536 -4.56,6.611 l 5.301,9.043 c 0.07,0.102 0.07,0.197 0.07,0.273 10e-4,0.229 -0.134,0.401 -0.404,0.401 z m -5.069,-16.633 c 0,-2.534 -1.966,-3.614 -5.345,-3.614 -0.712,0 -3.786,0.067 -4.39,0.133 v 7.328 c 0.535,0.033 3.809,0.102 4.39,0.102 3.476,0 5.345,-0.672 5.345,-3.644 z m 14.482,9.977 c 0,2.834 0.109,2.908 2.664,2.908 h 8.553 a 0.68,0.68 0 0 1 0.678,0.676 v 2.158 c 0,0.477 -0.17,0.646 -0.678,0.711 -1.08,0.17 -3.281,0.471 -7.299,0.471 -5.608,0 -8.584,0.039 -8.584,-6.924 v -10.69 c 0,-6.961 2.976,-6.922 8.584,-6.922 4.018,0 6.219,0.305 7.299,0.472 0.508,0.065 0.678,0.237 0.678,0.711 v 2.159 c 0,0.369 -0.305,0.68 -0.678,0.68 h -8.553 c -2.555,0 -2.664,0.075 -2.664,2.9 v 3.1 h 10.813 a 0.68,0.68 0 0 1 0.677,0.672 v 2.439 a 0.681,0.681 0 0 1 -0.677,0.675 h -10.813 z m 27.065,6.924 c -5.435,0 -10.118,-2.363 -10.118,-9.564 v -14.06 c 0,-0.375 0.309,-0.644 0.68,-0.644 h 3.339 c 0.375,0 0.677,0.269 0.677,0.644 v 14.06 c 0,3.854 1.781,5.682 5.423,5.682 3.652,0 5.432,-1.828 5.432,-5.682 v -14.06 c 0,-0.375 0.302,-0.644 0.673,-0.644 h 3.344 c 0.375,0 0.68,0.269 0.68,0.644 v 14.06 c -0.002,7.2 -4.687,9.564 -10.13,9.564 z m 32.344,-20.351 h -6.74 v 19.409 a 0.685,0.685 0 0 1 -0.684,0.674 h -3.344 a 0.68,0.68 0 0 1 -0.677,-0.674 v -19.409 h -6.745 c -0.367,0 -0.672,-0.232 -0.672,-0.604 v -2.669 c 0,-0.375 0.305,-0.644 0.672,-0.644 h 18.189 c 0.365,0 0.67,0.269 0.67,0.644 v 2.669 c 0.001,0.372 -0.303,0.604 -0.669,0.604 z m 45.883,20.083 h -4.125 c -0.371,0 -0.504,-0.342 -0.672,-0.674 l -4.869,-8.193 h -0.754 c -0.873,0 -3.607,-0.096 -4.389,-0.139 v 8.332 c 0,0.369 -0.268,0.674 -0.637,0.674 h -3.375 a 0.679,0.679 0 0 1 -0.678,-0.674 v -22.143 c 0,-0.678 0.4,-0.914 1.078,-1.014 1.756,-0.271 5.539,-0.438 8,-0.438 5.207,0 10.01,1.859 10.01,7.636 v 0.305 c 0,3.578 -1.793,5.536 -4.562,6.611 l 5.311,9.043 a 0.448,0.448 0 0 1 0.068,0.273 c 0,0.229 -0.138,0.401 -0.406,0.401 z m -5.068,-16.633 c 0,-2.534 -1.967,-3.614 -5.352,-3.614 -0.705,0 -3.779,0.067 -4.389,0.133 v 7.328 c 0.547,0.033 3.824,0.102 4.389,0.102 3.486,0 5.352,-0.672 5.352,-3.644 z m 17.963,16.916 c -2.986,0 -6.012,-0.512 -7.637,-0.885 -0.334,-0.068 -0.641,-0.303 -0.641,-0.674 v -2.434 c 0,-0.369 0.307,-0.643 0.641,-0.643 h 0.066 c 1.355,0.17 4.518,0.609 7.641,0.609 3.004,0 3.924,-1.076 3.924,-3.033 0,-2.535 -6.049,-3.938 -9.002,-5.154 -2.939,-1.216 -3.98,-3.544 -3.98,-5.906 0,-3.719 2.992,-6.422 9.275,-6.422 3.221,0 6.17,0.612 7.318,0.888 0.34,0.068 0.605,0.305 0.605,0.641 v 2.5 c 0,0.334 -0.23,0.607 -0.574,0.607 h -0.064 c -2.232,-0.201 -4.545,-0.612 -7.482,-0.612 -2.504,0 -4.377,0.878 -4.377,2.398 0,1.112 1.27,2.133 2.77,2.729 1.5,0.591 3.467,1.356 5.715,2.26 2.846,1.151 4.691,2.828 4.691,6.071 -0.001,3.41 -2.128,7.06 -8.889,7.06 z m -49.967,-6.939 c 0,2.834 0.105,2.908 2.666,2.908 h 8.559 a 0.68,0.68 0 0 1 0.67,0.676 v 2.158 c 0,0.477 -0.17,0.646 -0.67,0.711 -1.088,0.17 -3.285,0.471 -7.303,0.471 -5.619,0 -8.588,0.039 -8.588,-6.924 v -10.69 c 0,-6.961 2.969,-6.922 8.588,-6.922 4.018,0 6.215,0.305 7.303,0.472 0.5,0.065 0.67,0.237 0.67,0.711 v 2.159 c 0,0.369 -0.307,0.68 -0.67,0.68 h -8.559 c -2.561,0 -2.666,0.075 -2.666,2.9 v 3.1 h 10.814 c 0.375,0 0.67,0.307 0.67,0.672 v 2.439 a 0.673,0.673 0 0 1 -0.67,0.675 h -10.814 z" />
    <path
       style="fill:url(#a)"
       inkscape:connector-curvature="0"
       id="path19"
       d="m 34.337,-40.523287 c 0.39,0.727 0.125,1.639 -0.605,2.033 a 1.508,1.508 0 0 1 -2.041,-0.614 c -0.4,-0.726 -0.124,-1.64 0.604,-2.032 a 1.502,1.502 0 0 1 2.042,0.613 z m -7.429,11.762 a 0.894,0.894 0 0 0 -0.354,1.203 0.87,0.87 0 0 0 1.196,0.348 0.867,0.867 0 0 0 0.36,-1.194 0.891,0.891 0 0 0 -1.202,-0.357 z m -0.15,-3.616 a 1.03,1.03 0 0 0 -0.413,1.389 c 0.277,0.508 0.899,0.691 1.402,0.423 0.497,-0.272 0.687,-0.907 0.418,-1.4 a 1.03,1.03 0 0 0 -1.407,-0.412 z m 0.938,-3.48 a 1.19,1.19 0 0 0 -0.485,1.597 c 0.315,0.569 1.03,0.789 1.6,0.478 a 1.18,1.18 0 0 0 0.483,-1.6 1.188,1.188 0 0 0 -1.598,-0.475 z m 1.914,-3.01 a 1.324,1.324 0 0 0 -0.541,1.806 c 0.35,0.639 1.144,0.882 1.788,0.533 a 1.318,1.318 0 0 0 0.547,-1.794 1.321,1.321 0 0 0 -1.794,-0.545 z m -1.465,13.53 a 0.74,0.74 0 0 0 -0.299,1.006 0.75,0.75 0 0 0 1.004,0.3 0.75,0.75 0 0 0 0.293,-1.008 0.743,0.743 0 0 0 -0.998,-0.298 z m 17.094,-12.314 a 0.905,0.905 0 0 0 1.207,0.365 0.9,0.9 0 0 0 0.359,-1.208 0.88,0.88 0 0 0 -1.198,-0.357 0.887,0.887 0 0 0 -0.368,1.2 z m -3.003,-1.911 c 0.271,0.502 0.909,0.685 1.395,0.412 0.513,-0.272 0.696,-0.896 0.422,-1.396 a 1.032,1.032 0 0 0 -1.391,-0.424 1.049,1.049 0 0 0 -0.426,1.408 z m -3.47,-0.93 a 1.163,1.163 0 0 0 1.586,0.473 1.177,1.177 0 0 0 0.485,-1.597 1.167,1.167 0 0 0 -1.595,-0.471 1.175,1.175 0 0 0 -0.476,1.595 z m -3.623,0.143 a 1.33,1.33 0 0 0 1.801,0.546 1.34,1.34 0 0 0 0.534,-1.805 1.327,1.327 0 0 0 -2.335,1.259 z m 12.352,5.405 c 0.19,0.359 0.64,0.489 0.988,0.297 a 0.724,0.724 0 0 0 0.301,-0.991 0.748,0.748 0 0 0 -1.002,-0.314 c -0.343,0.199 -0.486,0.657 -0.287,1.008 z m -2.55,14.068 a 1.497,1.497 0 0 0 -2.046,-0.612 1.49,1.49 0 0 0 -0.603,2.034 c 0.396,0.728 1.31,0.994 2.042,0.61 0.727,-0.402 0.998,-1.319 0.607,-2.032 z m -13.556,-1.458 a 0.89,0.89 0 0 0 -1.195,-0.356 0.88,0.88 0 0 0 -0.359,1.194 0.868,0.868 0 0 0 1.195,0.354 0.879,0.879 0 0 0 0.359,-1.192 z m 3.007,1.912 a 1.031,1.031 0 0 0 -1.395,-0.413 1.018,1.018 0 0 0 -0.417,1.396 c 0.26,0.503 0.891,0.695 1.391,0.425 a 1.05,1.05 0 0 0 0.421,-1.408 z m 3.478,0.93 c -0.303,-0.571 -1.026,-0.774 -1.606,-0.478 a 1.188,1.188 0 0 0 -0.476,1.599 c 0.314,0.577 1.029,0.79 1.601,0.482 a 1.173,1.173 0 0 0 0.481,-1.603 z m 3.618,-0.145 a 1.334,1.334 0 0 0 -1.802,-0.538 c -0.648,0.343 -0.873,1.146 -0.521,1.799 a 1.3,1.3 0 0 0 1.786,0.531 c 0.65,-0.34 0.881,-1.151 0.537,-1.792 z m 8.22,-11.574 c 0.435,-0.25 0.601,-0.79 0.374,-1.213 a 0.883,0.883 0 0 0 -1.197,-0.356 0.877,0.877 0 0 0 -0.362,1.202 0.886,0.886 0 0 0 1.185,0.367 z m 0.166,3.61 c 0.502,-0.273 0.682,-0.9 0.409,-1.398 a 1.025,1.025 0 0 0 -1.392,-0.418 1.05,1.05 0 0 0 -0.424,1.406 c 0.266,0.493 0.912,0.675 1.407,0.41 z m -0.945,3.477 c 0.586,-0.315 0.79,-1.023 0.491,-1.602 a 1.185,1.185 0 0 0 -1.601,-0.479 1.192,1.192 0 0 0 -0.482,1.606 1.183,1.183 0 0 0 1.592,0.475 z m -1.901,2.997 c 0.644,-0.334 0.882,-1.153 0.533,-1.792 -0.354,-0.642 -1.154,-0.891 -1.795,-0.537 a 1.326,1.326 0 0 0 -0.536,1.798 1.314,1.314 0 0 0 1.798,0.531 z" />
    <path
       style="fill:url(#b)"
       inkscape:connector-curvature="0"
       id="path36"
       d="m 44.485,-44.115287 a 1.925,1.925 0 0 1 -2.398,1.299 1.926,1.926 0 0 1 -1.311,-2.402 1.9347668,1.9347668 0 1 1 3.709,1.103 z m -18.543,4.567 a 0.97,0.97 0 0 0 -1.188,0.652 0.955,0.955 0 0 0 1.832,0.536 c 0.158,-0.503 -0.142,-1.032 -0.644,-1.188 z m 3.355,-3.69 a 1.174,1.174 0 0 0 -1.46,0.801 1.175,1.175 0 0 0 0.798,1.464 1.185,1.185 0 0 0 1.465,-0.8 1.187,1.187 0 0 0 -0.803,-1.465 z m 4.299,-2.601 a 1.51,1.51 0 0 0 -1.864,1.013 1.504,1.504 0 0 0 1.021,1.859 1.49,1.49 0 0 0 1.858,-1.014 1.512,1.512 0 0 0 -1.015,-1.858 z m 4.761,-1.065 a 1.68,1.68 0 0 0 -2.095,1.14 1.68,1.68 0 0 0 1.139,2.092 1.688,1.688 0 0 0 2.091,-1.138 1.677,1.677 0 0 0 -1.135,-2.094 z m -14.536,11.924 a 0.706,0.706 0 0 0 -0.879,0.48 0.716,0.716 0 0 0 0.478,0.893 c 0.382,0.11 0.776,-0.11 0.887,-0.488 a 0.712,0.712 0 0 0 -0.486,-0.885 z m 28.887,4.294 a 0.95,0.95 0 0 0 0.649,1.185 0.95482263,0.95482263 0 1 0 0.539,-1.832 0.959,0.959 0 0 0 -1.188,0.647 z m -1.104,-4.775 a 1.177,1.177 0 0 0 0.8,1.469 c 0.63,0.186 1.28,-0.174 1.464,-0.8 0.184,-0.626 -0.171,-1.279 -0.796,-1.459 a 1.178,1.178 0 0 0 -1.468,0.79 z m -2.6,-4.295 a 1.4969213,1.4969213 0 1 0 2.873,0.842 1.486,1.486 0 0 0 -1.016,-1.852 1.504,1.504 0 0 0 -1.857,1.01 z m -3.659,-3.336 a 1.68434,1.68434 0 1 0 3.234,0.943 1.678,1.678 0 0 0 -1.137,-2.09 1.691,1.691 0 0 0 -2.097,1.147 z m 6.976,17.226 a 0.72,0.72 0 0 0 0.479,0.885 0.708,0.708 0 0 0 0.885,-0.485 0.709,0.709 0 0 0 -0.481,-0.886 0.719,0.719 0 0 0 -0.883,0.486 z m -16.464,11.124 a 1.937,1.937 0 0 0 -1.314,-2.41 1.933,1.933 0 0 0 -2.401,1.312 1.936,1.936 0 0 0 1.314,2.408 c 1.026,0.297 2.109,-0.293 2.401,-1.31 z m -11.937,-14.538 a 0.955,0.955 0 0 0 -0.644,-1.187 0.968,0.968 0 0 0 -1.19,0.65 0.951,0.951 0 0 0 0.65,1.18 0.948,0.948 0 0 0 1.184,-0.643 z m 1.106,4.772 a 1.164,1.164 0 0 0 -0.796,-1.452 1.16,1.16 0 0 0 -1.463,0.793 1.17658,1.17658 0 1 0 2.259,0.659 z m 2.604,4.301 a 1.515,1.515 0 0 0 -1.022,-1.868 1.501,1.501 0 0 0 -1.856,1.021 1.492,1.492 0 0 0 1.013,1.858 1.497,1.497 0 0 0 1.865,-1.011 z m 3.659,3.341 a 1.691,1.691 0 0 0 -1.149,-2.092 1.674,1.674 0 0 0 -2.084,1.148 1.678,1.678 0 0 0 1.139,2.085 1.693,1.693 0 0 0 2.094,-1.141 z m 19.394,-3.555 a 0.96,0.96 0 0 0 1.193,-0.646 0.965,0.965 0 0 0 -0.647,-1.189 0.963,0.963 0 0 0 -1.187,0.648 0.958,0.958 0 0 0 0.641,1.187 z m -3.349,3.695 a 1.174,1.174 0 0 0 1.458,-0.793 1.174,1.174 0 0 0 -0.791,-1.469 1.188,1.188 0 0 0 -1.472,0.798 1.193,1.193 0 0 0 0.805,1.464 z m -4.299,2.602 a 1.495,1.495 0 0 0 1.863,-1.017 1.494,1.494 0 0 0 -1.016,-1.854 1.4966671,1.4966671 0 1 0 -0.847,2.871 z m -4.757,1.061 a 1.668,1.668 0 0 0 2.089,-1.132 1.685662,1.685662 0 1 0 -3.235,-0.949 1.684,1.684 0 0 0 1.146,2.081 z" />
    <path
       style="fill:url(#c)"
       inkscape:connector-curvature="0"
       id="path53"
       d="m 54.112,-43.131287 a 2.486,2.486 0 0 1 -3.512,0.096 2.475,2.475 0 0 1 -0.098,-3.511 2.479,2.479 0 0 1 3.509,-0.108 2.495,2.495 0 0 1 0.101,3.523 z m -24.765,-5.648 a 1.232,1.232 0 0 0 -1.734,0.05 1.228,1.228 0 0 0 0.05,1.73 1.23,1.23 0 0 0 1.734,-0.052 1.226,1.226 0 0 0 -0.05,-1.728 z m 6.209,-2.362 a 1.517,1.517 0 0 0 -2.137,0.065 1.515,1.515 0 0 0 0.065,2.142 1.518,1.518 0 0 0 2.138,-0.068 1.52,1.52 0 0 0 -0.066,-2.139 z m 6.66,-0.487 a 1.927,1.927 0 0 0 -2.716,0.079 1.924,1.924 0 0 0 2.798,2.639 1.927,1.927 0 0 0 -0.082,-2.718 z m 6.301,1.613 a 2.157,2.157 0 0 0 -3.056,0.089 2.161,2.161 0 0 0 0.086,3.055 2.168,2.168 0 0 0 3.058,-0.089 2.165,2.165 0 0 0 -0.088,-3.055 z m -24.434,5.372 a 0.918,0.918 0 0 0 -1.291,0.038 0.91,0.91 0 0 0 0.035,1.29 0.907,0.907 0 0 0 1.29,-0.036 0.915,0.915 0 0 0 -0.034,-1.292 z m 31.798,22.538 a 1.229,1.229 0 0 0 0.05,1.735 1.23,1.23 0 0 0 1.685,-1.791 1.231,1.231 0 0 0 -1.735,0.056 z m 1.57,-6.328 a 1.517,1.517 0 0 0 0.069,2.135 1.509,1.509 0 0 0 2.139,-0.064 1.505,1.505 0 0 0 -0.067,-2.137 1.52,1.52 0 0 0 -2.141,0.066 z m -0.482,-6.664 a 1.917,1.917 0 0 0 0.083,2.715 1.918,1.918 0 0 0 2.715,-0.083 1.921,1.921 0 0 0 -2.798,-2.632 z m -2.326,-6.176 a 2.162,2.162 0 1 0 3.053,-0.095 c -0.862,-0.818 -2.232,-0.771 -3.053,0.095 z m -2.137,24.657 a 0.918,0.918 0 0 0 0.04,1.292 0.908,0.908 0 0 0 1.288,-0.047 0.895,0.895 0 0 0 -0.039,-1.282 0.904,0.904 0 0 0 -1.289,0.037 z m -26.376,3.194 a 2.487,2.487 0 0 0 -3.618,-3.413 2.488,2.488 0 0 0 3.618,3.413 z m -5.38,-24.442 a 1.2262896,1.2262896 0 1 0 -1.784,-1.683 c -0.47,0.49 -0.442,1.263 0.055,1.731 0.487,0.46 1.261,0.441 1.729,-0.048 z m -1.576,6.331 a 1.522,1.522 0 0 0 -0.062,-2.141 1.514,1.514 0 0 0 -2.079,2.2 1.52,1.52 0 0 0 2.141,-0.059 z m 0.485,6.661 a 1.927,1.927 0 0 0 -0.081,-2.723 1.925,1.925 0 0 0 -2.719,0.084 1.926,1.926 0 0 0 0.084,2.717 c 0.776,0.733 1.99,0.694 2.716,-0.078 z m 2.322,6.178 a 2.165,2.165 0 0 0 -0.089,-3.056 2.153,2.153 0 0 0 -3.05,0.094 2.158,2.158 0 0 0 0.082,3.055 2.174,2.174 0 0 0 3.057,-0.093 z m 25.3,7.504 a 1.222,1.222 0 0 0 1.732,-0.053 1.219,1.219 0 0 0 -0.053,-1.728 1.22,1.22 0 0 0 -1.729,0.05 1.225,1.225 0 0 0 0.05,1.731 z m -6.209,2.3590001 c 0.61,0.575 1.566,0.537 2.139,-0.067 a 1.506,1.506 0 0 0 -0.062,-2.1340001 1.519,1.519 0 0 0 -2.144,0.066 1.516,1.516 0 0 0 0.067,2.1350001 z m -6.664,0.481 c 0.78,0.735 1.988,0.699 2.715,-0.073 a 1.917,1.917 0 0 0 -0.076,-2.7150001 1.931,1.931 0 0 0 -2.722,0.076 1.916,1.916 0 0 0 0.083,2.7120001 z m -6.288,-1.604 a 2.154,2.154 0 0 0 3.05,-0.09 2.15982,2.15982 0 1 0 -3.147,-2.959 2.154,2.154 0 0 0 0.097,3.0490001 z" />
    <path
       style="fill:url(#d)"
       inkscape:connector-curvature="0"
       id="path70"
       d="m 64.204,-37.870287 a 3.013,3.013 0 0 1 -3.957,-1.576 3.007,3.007 0 0 1 1.576,-3.956 3.012,3.012 0 0 1 2.381,5.532 z m -21.139,-19.161 a 1.655,1.655 0 0 0 -1.953,-1.304 1.654,1.654 0 0 0 -1.305,1.953 1.662,1.662 0 0 0 3.258,-0.649 z m 7.131,1.551 a 2.007,2.007 0 0 0 -2.447,-1.451 2.006,2.006 0 0 0 -1.453,2.447 2.0125864,2.0125864 0 1 0 3.9,-0.996 z m 6.575,3.173 a 2.501,2.501 0 0 0 -3.141,-1.646 2.505,2.505 0 0 0 -1.649,3.142 2.51,2.51 0 0 0 4.79,-1.496 z m 5.244,4.674 a 2.762,2.762 0 0 0 -3.554,-1.633 2.759,2.759 0 0 0 -1.636,3.554 2.7670535,2.7670535 0 1 0 5.19,-1.921 z m -33.244,-7.529 a 1.208,1.208 0 0 0 -1.591,-0.63 1.2078258,1.2078258 0 1 0 0.957,2.218 c 0.613,-0.264 0.899,-0.976 0.634,-1.588 z m 30.162,39.893 a 1.663,1.663 0 0 0 1.924,2.712 1.66,1.66 0 0 0 0.391,-2.318 1.66,1.66 0 0 0 -2.315,-0.394 z m 3.304,-6.482 a 2.013,2.013 0 1 0 2.15,3.403 2.013,2.013 0 0 0 -2.15,-3.403 z m 1.563,-7.294 a 2.513,2.513 0 0 0 -0.959,3.419 2.504,2.504 0 0 0 3.415,0.953 2.5,2.5 0 0 0 0.96,-3.413 2.506,2.506 0 0 0 -3.416,-0.959 z m -0.095,-7.314 a 2.767,2.767 0 0 0 -1.25,3.703 2.76,2.76 0 0 0 3.709,1.251 2.757,2.757 0 0 0 1.25,-3.704 2.77,2.77 0 0 0 -3.709,-1.25 z M 48.486,-6.3902869 a 1.2082849,1.2082849 0 1 0 0.957,2.219 c 0.613,-0.264 0.899,-0.975 0.635,-1.59 a 1.211,1.211 0 0 0 -1.592,-0.629 z M 14.803,-16.565287 a 3.012,3.012 0 0 0 1.567,-3.959 3.002,3.002 0 0 0 -3.95,-1.57 3.006,3.006 0 0 0 -1.575,3.956 3.014,3.014 0 0 0 3.958,1.573 z m 2.886,-28.132 a 1.659,1.659 0 0 0 0.396,-2.313 1.653,1.653 0 0 0 -2.314,-0.397 1.656,1.656 0 0 0 -0.396,2.318 1.662,1.662 0 0 0 2.314,0.392 z m -3.301,6.481 a 2.015,2.015 0 0 0 0.625,-2.782 2.0122889,2.0122889 0 0 0 -3.399,2.155 2.011,2.011 0 0 0 2.774,0.627 z m -1.568,7.295 a 2.509,2.509 0 1 0 -2.457,-4.373 2.508,2.508 0 0 0 2.457,4.373 z m 0.097,7.316 a 2.767,2.767 0 0 0 1.25,-3.708 2.758,2.758 0 0 0 -3.71,-1.25 2.764,2.764 0 0 0 -1.252,3.705 2.772,2.772 0 0 0 3.712,1.253 z m 20.64,20.6740001 a 1.664,1.664 0 0 0 1.957,1.307 1.667,1.667 0 0 0 1.302,-1.961 1.666,1.666 0 0 0 -1.956,-1.302 1.664,1.664 0 0 0 -1.303,1.956 z m -7.127,-1.555 a 2.007,2.007 0 0 0 2.446,1.453 2.0116175,2.0116175 0 1 0 -0.996,-3.898 2.01,2.01 0 0 0 -1.45,2.445 z m -6.577,-3.174 a 2.495,2.495 0 0 0 3.139,1.646 2.502,2.502 0 0 0 1.651,-3.139 2.513,2.513 0 0 0 -3.146,-1.6470001 2.501,2.501 0 0 0 -1.644,3.1400001 z m -5.246,-4.6770001 a 2.757,2.757 0 0 0 3.554,1.634 2.766,2.766 0 0 0 -1.917,-5.188 2.77,2.77 0 0 0 -1.637,3.554 z m 39.581,2.4390001 a 1.298,1.298 0 0 0 1.611,2.034 1.298,1.298 0 1 0 -1.611,-2.034 z m -12.169,5.246 a 1.302,1.302 0 0 0 -1.094,1.475 1.296,1.296 0 0 0 1.472,1.095 1.297,1.297 0 0 0 1.099,-1.472 1.3,1.3 0 0 0 -1.477,-1.098 z M 35.702,-56.788287 a 1.297,1.297 0 0 0 -1.477,-1.094 1.2973408,1.2973408 0 1 0 0.378,2.567 1.3,1.3 0 0 0 1.099,-1.473 z m -13.054,4.897 a 1.303,1.303 0 0 0 -1.826,-0.213 1.3,1.3 0 1 0 1.826,0.213 z" />
    <path
       style="fill:url(#e)"
       inkscape:connector-curvature="0"
       id="path87"
       d="m 72.761,-26.128287 a 3.857,3.857 0 0 1 -3.852,-3.86 3.845,3.845 0 0 1 3.857,-3.851 3.847,3.847 0 0 1 3.854,3.855 3.858,3.858 0 0 1 -3.859,3.856 z m -15.138,-33.256 a 2.12,2.12 0 0 0 -1.638,-2.521 2.12,2.12 0 0 0 -2.525,1.633 2.1283276,2.1283276 0 0 0 4.163,0.888 z m 7.598,5.44 a 2.573,2.573 0 0 0 -2.141,-2.948 2.58,2.58 0 0 0 -0.808,5.095 2.583,2.583 0 0 0 2.949,-2.147 z m 6.122,7.069 z m 3.796,8.156 a 3.537,3.537 0 0 0 -3.353,-3.722 3.535,3.535 0 0 0 -3.725,3.351 3.544,3.544 0 1 0 7.078,0.371 z m -35.277,-25.718 c 0,-0.859 -0.695,-1.546 -1.551,-1.546 a 1.548,1.548 0 0 0 0,3.094 c 0.856,0 1.551,-0.691 1.551,-1.548 z M 55.1,-2.2212869 a 2.1300754,2.1300754 0 1 0 0.886,4.167 2.1300754,2.1300754 0 0 0 -0.886,-4.167 z m 7.172,-5.946 a 2.578,2.578 0 1 0 0.802,5.093 2.578,2.578 0 0 0 -0.802,-5.093 z m 5.539,-7.7860001 a 3.2126191,3.2126191 0 1 0 0.672,6.3900001 3.207,3.207 0 0 0 2.86,-3.5310001 3.214,3.214 0 0 0 -3.532,-2.859 z m 3.598,-8.651 a 3.546,3.546 0 0 0 -3.348,3.724 3.534,3.534 0 0 0 3.725,3.351 3.537,3.537 0 0 0 3.352,-3.722 3.55,3.55 0 0 0 -3.729,-3.353 z M 38.311,2.9217131 a 1.548,1.548 0 0 0 0,3.095 1.5475,1.5475 0 1 0 0,-3.095 z M 3.859,-26.128287 a 3.858,3.858 0 0 0 3.85,-3.86 3.845,3.845 0 0 0 -3.85,-3.851 3.854,3.854 0 0 0 -3.859,3.856 3.863,3.863 0 0 0 3.859,3.855 z m 17.663,-31.62 a 2.129,2.129 0 0 0 1.64,-2.525 2.122,2.122 0 0 0 -2.524,-1.635 2.126444,2.126444 0 1 0 0.884,4.16 z m -7.17,5.949 a 2.583,2.583 0 0 0 2.146,-2.953 2.576,2.576 0 0 0 -2.953,-2.141 2.573,2.573 0 0 0 -2.14,2.948 2.578,2.578 0 0 0 2.947,2.146 z m -5.543,7.784 a 3.215,3.215 0 0 0 -0.671,-6.393 3.207,3.207 0 0 0 -2.859,3.534 3.21,3.21 0 0 0 3.53,2.859 z m -3.598,8.65 a 3.546,3.546 0 0 0 3.353,-3.726 3.537,3.537 0 0 0 -3.73,-3.352 3.54,3.54 0 0 0 -3.352,3.723 3.548,3.548 0 0 0 3.729,3.355 z M 19,-0.58328691 a 2.1280152,2.1280152 0 1 0 4.163,0.885 A 2.13,2.13 0 0 0 21.523,-2.2222869 2.132,2.132 0 0 0 19,-0.58328691 Z M 11.406,-6.0252869 a 2.57,2.57 0 0 0 2.14,2.949 2.577,2.577 0 1 0 -2.14,-2.949 z M 5.279,-13.092287 a 3.204,3.204 0 0 0 2.858,3.5300001 3.208,3.208 0 0 0 3.532,-2.8580001 3.214,3.214 0 0 0 -2.861,-3.532 3.208,3.208 0 0 0 -3.529,2.86 z m -3.797,-8.16 a 3.537,3.537 0 0 0 3.352,3.722 3.534,3.534 0 0 0 3.73,-3.351 3.547,3.547 0 0 0 -3.353,-3.724 3.553,3.553 0 0 0 -3.729,3.353 z M 46.797,1.6897131 a 1.666,1.666 0 0 0 -1.177,2.037 1.663,1.663 0 0 0 2.037,1.173 1.66,1.66 0 0 0 1.18,-2.035 1.665,1.665 0 0 0 -2.04,-1.175 z m -16.974,0 a 1.662,1.662 0 0 0 -0.86,3.21 1.662,1.662 0 1 0 0.86,-3.21 z M 48.838,-62.832287 a 1.662,1.662 0 0 0 -1.181,-2.035 1.663,1.663 0 0 0 -0.859,3.21 1.663,1.663 0 0 0 2.04,-1.175 z m -17.835,-0.863 a 1.661,1.661 0 0 0 -2.04,-1.172 1.659,1.659 0 0 0 -1.177,2.032 1.6649842,1.6649842 0 0 0 3.217,-0.86 z" />
  </g>
</svg>
