<?xml version="1.0" encoding="UTF-8" standalone="no"?>
<svg
   xmlns:dc="http://purl.org/dc/elements/1.1/"
   xmlns:cc="http://creativecommons.org/ns#"
   xmlns:rdf="http://www.w3.org/1999/02/22-rdf-syntax-ns#"
   xmlns:svg="http://www.w3.org/2000/svg"
   xmlns="http://www.w3.org/2000/svg"
   xmlns:sodipodi="http://sodipodi.sourceforge.net/DTD/sodipodi-0.dtd"
   xmlns:inkscape="http://www.inkscape.org/namespaces/inkscape"
   width="64"
   height="64"
   viewBox="0 0 6.4155904 6.4178273"
   version="1.1"
   id="svg89"
   sodipodi:docname="reuters-icon.svg"
   inkscape:version="0.92.3 (2405546, 2018-03-11)">
  <metadata
     id="metadata95">
    <rdf:RDF>
      <cc:Work
         rdf:about="">
        <dc:format>image/svg+xml</dc:format>
        <dc:type
           rdf:resource="http://purl.org/dc/dcmitype/StillImage" />
        <dc:title></dc:title>
      </cc:Work>
    </rdf:RDF>
  </metadata>
  <defs
     id="defs93" />
  <sodipodi:namedview
     pagecolor="#ffffff"
     bordercolor="#666666"
     borderopacity="1"
     objecttolerance="10"
     gridtolerance="10"
     guidetolerance="10"
     inkscape:pageopacity="0"
     inkscape:pageshadow="2"
     inkscape:window-width="1920"
     inkscape:window-height="1001"
     id="namedview91"
     showgrid="false"
     inkscape:zoom="2.1696"
     inkscape:cx="141.78932"
     inkscape:cy="-5.8182187"
     inkscape:window-x="-9"
     inkscape:window-y="-9"
     inkscape:window-maximized="1"
     inkscape:current-layer="svg89" />
  <linearGradient
     id="a"
     gradientUnits="userSpaceOnUse"
     x1="-29.204"
     y1="42.439999"
     x2="-49.812"
     y2="54.337002"
     gradientTransform="matrix(0.04469068,0.00126472,-0.00126472,0.04469068,3.9142802,0.90221745)">
    <stop
       offset="0"
       stop-color="#ff9100"
       id="stop4" />
    <stop
       offset=".05"
       stop-color="#ff8d00"
       id="stop6" />
    <stop
       offset=".25"
       stop-color="#ff8300"
       id="stop8" />
    <stop
       offset=".5"
       stop-color="#ff8000"
       id="stop10" />
    <stop
       offset=".75"
       stop-color="#ff8300"
       id="stop12" />
    <stop
       offset=".95"
       stop-color="#ff8d00"
       id="stop14" />
    <stop
       offset="1"
       stop-color="#ff9100"
       id="stop16" />
  </linearGradient>
  <linearGradient
     id="b"
     gradientUnits="userSpaceOnUse"
     x1="-91.767998"
     y1="38.415001"
     x2="-123.81"
     y2="38.415001"
     gradientTransform="matrix(0.04289682,0.01259838,-0.01259838,0.04289682,7.2329792,2.718342)">
    <stop
       offset="0"
       stop-color="#ff9100"
       id="stop21" />
    <stop
       offset=".05"
       stop-color="#ff8d00"
       id="stop23" />
    <stop
       offset=".25"
       stop-color="#ff8300"
       id="stop25" />
    <stop
       offset=".5"
       stop-color="#ff8000"
       id="stop27" />
    <stop
       offset=".75"
       stop-color="#ff8300"
       id="stop29" />
    <stop
       offset=".95"
       stop-color="#ff8d00"
       id="stop31" />
    <stop
       offset="1"
       stop-color="#ff9100"
       id="stop33" />
  </linearGradient>
  <linearGradient
     id="c"
     gradientUnits="userSpaceOnUse"
     x1="-88.080002"
     y1="56.713001"
     x2="-124.34"
     y2="34.306"
     gradientTransform="matrix(0.04351195,0.01027456,-0.01027456,0.04351195,7.2145795,2.1192662)">
    <stop
       offset="0"
       stop-color="#ff9100"
       id="stop38" />
    <stop
       offset=".05"
       stop-color="#ff8d00"
       id="stop40" />
    <stop
       offset=".25"
       stop-color="#ff8300"
       id="stop42" />
    <stop
       offset=".5"
       stop-color="#ff8000"
       id="stop44" />
    <stop
       offset=".75"
       stop-color="#ff8300"
       id="stop46" />
    <stop
       offset=".95"
       stop-color="#ff8d00"
       id="stop48" />
    <stop
       offset="1"
       stop-color="#ff9100"
       id="stop50" />
  </linearGradient>
  <linearGradient
     id="d"
     gradientUnits="userSpaceOnUse"
     x1="-14.588"
     y1="59.970001"
     x2="-42.696999"
     y2="11.284"
     gradientTransform="matrix(0.04440624,0.00519061,-0.00519061,0.04440624,3.5820184,1.575112)">
    <stop
       offset="0"
       stop-color="#ff9100"
       id="stop55" />
    <stop
       offset=".05"
       stop-color="#ff8d00"
       id="stop57" />
    <stop
       offset=".25"
       stop-color="#ff8300"
       id="stop59" />
    <stop
       offset=".5"
       stop-color="#ff8000"
       id="stop61" />
    <stop
       offset=".75"
       stop-color="#ff8300"
       id="stop63" />
    <stop
       offset=".95"
       stop-color="#ff8d00"
       id="stop65" />
    <stop
       offset="1"
       stop-color="#ff9100"
       id="stop67" />
  </linearGradient>
  <linearGradient
     id="e"
     gradientUnits="userSpaceOnUse"
     x1="38.310001"
     y1="72"
     x2="38.310001"
     gradientTransform="matrix(0.04470857,0,0,0.04470857,0.41240865,1.398848)">
    <stop
       offset="0"
       stop-color="#ff9100"
       id="stop72" />
    <stop
       offset=".05"
       stop-color="#ff8d00"
       id="stop74" />
    <stop
       offset=".25"
       stop-color="#ff8300"
       id="stop76" />
    <stop
       offset=".5"
       stop-color="#ff8000"
       id="stop78" />
    <stop
       offset=".75"
       stop-color="#ff8300"
       id="stop80" />
    <stop
       offset=".95"
       stop-color="#ff8d00"
       id="stop82" />
    <stop
       offset="1"
       stop-color="#ff9100"
       id="stop84" />
  </linearGradient>
  <g
     id="g921"
     transform="matrix(1.8735058,0,0,1.8735058,-0.77376837,-2.4272601)">
    <path
       style="fill:url(#a);stroke-width:0.04470857"
       inkscape:connector-curvature="0"
       id="path19"
       d="m 1.9475668,2.5371282 c 0.017436,0.032503 0.00559,0.073277 -0.027049,0.090892 a 0.06742052,0.06742052 0 0 1 -0.09125,-0.027451 c -0.017883,-0.032458 -0.00554,-0.073322 0.027004,-0.090848 a 0.06715227,0.06715227 0 0 1 0.091295,0.027407 z M 1.6154269,3.0629904 a 0.03996946,0.03996946 0 0 0 -0.015827,0.053784 0.03889646,0.03889646 0 0 0 0.053472,0.015559 0.03876233,0.03876233 0 0 0 0.016095,-0.053382 0.03983534,0.03983534 0 0 0 -0.05374,-0.015961 z m -0.00671,-0.1616662 a 0.04604983,0.04604983 0 0 0 -0.018465,0.0621 c 0.012384,0.022712 0.040193,0.030894 0.062681,0.018912 0.02222,-0.012161 0.030715,-0.040551 0.018688,-0.062592 a 0.04604983,0.04604983 0 0 0 -0.062904,-0.01842 z m 0.041937,-0.1555858 a 0.0532032,0.0532032 0 0 0 -0.021684,0.0714 c 0.014083,0.025439 0.04605,0.035275 0.071534,0.021371 a 0.05275611,0.05275611 0 0 0 0.021594,-0.071534 0.05311378,0.05311378 0 0 0 -0.071444,-0.021237 z m 0.085572,-0.1345728 a 0.05919415,0.05919415 0 0 0 -0.024187,0.080744 c 0.015648,0.028569 0.051147,0.039433 0.079939,0.02383 a 0.0589259,0.0589259 0 0 0 0.024456,-0.080207 0.05906002,0.05906002 0 0 0 -0.080207,-0.024366 z m -0.065498,0.6049069 a 0.03308434,0.03308434 0 0 0 -0.013368,0.044977 0.03353143,0.03353143 0 0 0 0.044887,0.013412 0.03353143,0.03353143 0 0 0 0.0131,-0.045066 0.03321847,0.03321847 0 0 0 -0.044619,-0.013323 z M 2.4349796,2.6655312 a 0.04046126,0.04046126 0 0 0 0.053963,0.016319 0.04023771,0.04023771 0 0 0 0.01605,-0.054008 0.03934354,0.03934354 0 0 0 -0.053561,-0.015961 0.0396565,0.0396565 0 0 0 -0.016453,0.05365 z M 2.3007198,2.5800931 c 0.012116,0.022444 0.04064,0.030625 0.062368,0.01842 0.022935,-0.012161 0.031117,-0.040059 0.018867,-0.062413 a 0.04613924,0.04613924 0 0 0 -0.06219,-0.018956 0.04689929,0.04689929 0 0 0 -0.019046,0.06295 z M 2.1455811,2.5385142 a 0.05199607,0.05199607 0 0 0 0.070908,0.021147 0.05262199,0.05262199 0 0 0 0.021684,-0.0714 0.0521749,0.0521749 0 0 0 -0.07131,-0.021058 0.05253257,0.05253257 0 0 0 -0.021281,0.07131 z m -0.1619792,0.00639 a 0.0594624,0.0594624 0 0 0 0.08052,0.024411 0.05990948,0.05990948 0 0 0 0.023874,-0.080699 0.05932827,0.05932827 0 0 0 -0.104394,0.056288 z M 2.5358422,2.786554 c 0.00849,0.01605 0.028614,0.021862 0.044172,0.013278 A 0.032369,0.032369 0 0 0 2.5934712,2.755526 0.03344201,0.03344201 0 0 0 2.5486732,2.741488 c -0.015335,0.0089 -0.021728,0.029373 -0.012831,0.045066 z M 2.4218353,3.4155175 a 0.06692873,0.06692873 0 0 0 -0.091474,-0.027362 0.06661577,0.06661577 0 0 0 -0.026959,0.090937 c 0.017705,0.032548 0.058568,0.04444 0.091295,0.027272 0.032503,-0.017973 0.044619,-0.058971 0.027138,-0.090848 z M 1.815766,3.3503324 a 0.03979063,0.03979063 0 0 0 -0.053427,-0.015916 0.03934354,0.03934354 0 0 0 -0.01605,0.053382 0.03880704,0.03880704 0 0 0 0.053427,0.015827 0.03929883,0.03929883 0 0 0 0.01605,-0.053293 z m 0.1344386,0.085483 a 0.04609454,0.04609454 0 0 0 -0.062368,-0.018465 0.04551332,0.04551332 0 0 0 -0.018644,0.062413 c 0.011624,0.022488 0.039835,0.031072 0.06219,0.019001 a 0.046944,0.046944 0 0 0 0.018822,-0.06295 z M 2.105701,3.4773941 C 2.0921543,3.4518655 2.05983,3.4427897 2.0338991,3.4560234 a 0.05311378,0.05311378 0 0 0 -0.021281,0.071489 c 0.014038,0.025797 0.046005,0.03532 0.071578,0.02155 a 0.05244315,0.05244315 0 0 0 0.021505,-0.071668 z m 0.1617556,-0.00648 a 0.05964123,0.05964123 0 0 0 -0.080565,-0.024053 c -0.028971,0.015335 -0.039031,0.051236 -0.023293,0.080431 a 0.05812114,0.05812114 0 0 0 0.07985,0.02374 c 0.029061,-0.015201 0.039388,-0.051459 0.024008,-0.080118 z m 0.3675045,-0.517457 c 0.019448,-0.011177 0.02687,-0.03532 0.016721,-0.054232 a 0.03947767,0.03947767 0 0 0 -0.053516,-0.015916 0.03920942,0.03920942 0 0 0 -0.016185,0.05374 0.03961179,0.03961179 0 0 0 0.05298,0.016408 z m 0.00742,0.1613979 C 2.6648251,3.10265 2.6728721,3.074617 2.6606671,3.052352 a 0.04582628,0.04582628 0 0 0 -0.062234,-0.018688 0.046944,0.046944 0 0 0 -0.018956,0.06286 c 0.011893,0.022041 0.040774,0.030178 0.062905,0.01833 z m -0.04225,0.1554517 c 0.026199,-0.014083 0.03532,-0.045737 0.021952,-0.071623 a 0.05297966,0.05297966 0 0 0 -0.071578,-0.021415 0.05329262,0.05329262 0 0 0 -0.021549,0.071802 0.05289024,0.05289024 0 0 0 0.071176,0.021236 z m -0.084991,0.1339916 c 0.028792,-0.014933 0.039433,-0.051549 0.02383,-0.080118 -0.015827,-0.028703 -0.051594,-0.039835 -0.080252,-0.024008 a 0.05928356,0.05928356 0 0 0 -0.023964,0.080386 0.05874706,0.05874706 0 0 0 0.080386,0.02374 z" />
    <path
       style="fill:url(#b);stroke-width:0.04470857"
       inkscape:connector-curvature="0"
       id="path36"
       d="M 2.4012694,2.376535 A 0.086064,0.086064 0 0 1 2.2940582,2.4346114 0.08610871,0.08610871 0 0 1 2.2354453,2.3272215 0.08650066,0.08650066 0 1 1 2.4012694,2.376535 Z m -0.829031,0.204184 a 0.04336731,0.04336731 0 0 0 -0.053114,0.02915 0.04269668,0.04269668 0 0 0 0.081906,0.023964 C 1.6080904,2.611345 1.5946804,2.587694 1.5722384,2.580719 Z M 1.7222356,2.4157444 a 0.05248786,0.05248786 0 0 0 -0.065275,0.035812 0.05253257,0.05253257 0 0 0 0.035678,0.065453 0.05297966,0.05297966 0 0 0 0.065498,-0.035767 0.05306907,0.05306907 0 0 0 -0.035901,-0.065498 z m 0.1922022,-0.116287 a 0.06750994,0.06750994 0 0 0 -0.083337,0.04529 0.06724169,0.06724169 0 0 0 0.045647,0.083113 0.06661577,0.06661577 0 0 0 0.083069,-0.045334 0.06759936,0.06759936 0 0 0 -0.045379,-0.083069 z m 0.2128575,-0.047615 a 0.0751104,0.0751104 0 0 0 -0.093665,0.050968 0.0751104,0.0751104 0 0 0 0.050923,0.09353 0.07546807,0.07546807 0 0 0 0.093486,-0.050878 0.07497627,0.07497627 0 0 0 -0.050744,-0.09362 z m -0.6498838,0.533105 a 0.03156425,0.03156425 0 0 0 -0.039299,0.02146 0.03201134,0.03201134 0 0 0 0.021371,0.039925 c 0.017079,0.00492 0.034694,-0.00492 0.039656,-0.021818 a 0.0318325,0.0318325 0 0 0 -0.021728,-0.039567 z m 1.2914965,0.191979 a 0.04247314,0.04247314 0 0 0 0.029016,0.05298 0.04268875,0.04268875 0 1 0 0.024098,-0.081906 0.04287552,0.04287552 0 0 0 -0.053114,0.028926 z M 2.7195497,2.763443 a 0.05262199,0.05262199 0 0 0 0.035767,0.065677 c 0.028166,0.00832 0.057227,-0.00778 0.065453,-0.035767 0.00823,-0.027988 -0.00765,-0.057182 -0.035588,-0.06523 a 0.0526667,0.0526667 0 0 0 -0.065632,0.03532 z M 2.6033074,2.5714197 a 0.06692525,0.06692525 0 1 0 0.1284477,0.037645 0.06643694,0.06643694 0 0 0 -0.045424,-0.0828 0.06724169,0.06724169 0 0 0 -0.083024,0.045156 z M 2.4397188,2.4222719 a 0.07530443,0.07530443 0 1 0 0.1445875,0.04216 0.07502098,0.07502098 0 0 0 -0.050834,-0.093441 0.07560219,0.07560219 0 0 0 -0.093754,0.051281 z m 0.3118869,0.7701498 a 0.03219017,0.03219017 0 0 0 0.021415,0.039567 0.03165367,0.03165367 0 0 0 0.039567,-0.021684 0.03169838,0.03169838 0 0 0 -0.021505,-0.039612 0.03214546,0.03214546 0 0 0 -0.039478,0.021728 z M 2.0155238,3.6897598 a 0.0866005,0.0866005 0 0 0 -0.058747,-0.1077476 0.08642167,0.08642167 0 0 0 -0.1073453,0.058658 0.08655579,0.08655579 0 0 0 0.058747,0.1076583 c 0.045871,0.013278 0.09429,-0.0131 0.1073453,-0.058569 z M 1.4818376,3.0397866 a 0.04269668,0.04269668 0 0 0 -0.028792,-0.053069 0.0432779,0.0432779 0 0 0 -0.053203,0.02906 0.04251785,0.04251785 0 0 0 0.029061,0.052756 0.04238372,0.04238372 0 0 0 0.052935,-0.028748 z m 0.049448,0.2133493 a 0.05204078,0.05204078 0 0 0 -0.035588,-0.064917 0.05186194,0.05186194 0 0 0 -0.065409,0.035454 0.05260338,0.05260338 0 1 0 0.100997,0.029463 z m 0.1164211,0.1922916 a 0.06773348,0.06773348 0 0 0 -0.045692,-0.083516 0.06710756,0.06710756 0 0 0 -0.082979,0.045647 0.06670519,0.06670519 0 0 0 0.04529,0.083069 0.06692873,0.06692873 0 0 0 0.083381,-0.0452 z m 0.1635887,0.1493713 a 0.07560219,0.07560219 0 0 0 -0.05137,-0.09353 0.07484215,0.07484215 0 0 0 -0.093173,0.051325 0.07502098,0.07502098 0 0 0 0.050923,0.093217 0.07569161,0.07569161 0 0 0 0.09362,-0.051013 z m 0.867078,-0.1589389 a 0.04292023,0.04292023 0 0 0 0.053337,-0.028882 0.04314377,0.04314377 0 0 0 -0.028926,-0.053158 0.04305435,0.04305435 0 0 0 -0.053069,0.028971 0.04283081,0.04283081 0 0 0 0.028658,0.053069 z M 2.5286441,3.601058 a 0.05248786,0.05248786 0 0 0 0.065185,-0.035454 0.05248786,0.05248786 0 0 0 -0.035365,-0.065677 0.05311378,0.05311378 0 0 0 -0.065811,0.035677 0.05333732,0.05333732 0 0 0 0.03599,0.065453 z M 2.336442,3.7173897 A 0.06683931,0.06683931 0 0 0 2.419734,3.6719207 0.0667946,0.0667946 0 0 0 2.37431,3.5890307 0.06691416,0.06691416 0 1 0 2.336442,3.7173897 Z m -0.2126787,0.047436 a 0.07457389,0.07457389 0 0 0 0.093396,-0.05061 0.07536354,0.07536354 0 1 0 -0.1446322,-0.042428 0.07528923,0.07528923 0 0 0 0.051236,0.093039 z" />
    <path
       style="fill:url(#c);stroke-width:0.04470857"
       inkscape:connector-curvature="0"
       id="path53"
       d="m 2.8316788,2.4205282 a 0.11114551,0.11114551 0 0 1 -0.1570165,0.00429 0.11065371,0.11065371 0 0 1 -0.00438,-0.1569718 0.11083255,0.11083255 0 0 1 0.1568823,-0.00483 0.11154788,0.11154788 0 0 1 0.00452,0.1575083 z M 1.7244711,2.1680142 a 0.05508096,0.05508096 0 0 0 -0.077525,0.00224 0.05490212,0.05490212 0 0 0 0.00224,0.077346 0.05499154,0.05499154 0 0 0 0.077525,-0.00232 0.05481271,0.05481271 0 0 0 -0.00224,-0.077256 z M 2.0020666,2.0624126 a 0.0678229,0.0678229 0 0 0 -0.095542,0.00291 0.06773348,0.06773348 0 0 0 0.00291,0.095766 0.06786761,0.06786761 0 0 0 0.095587,-0.00304 0.06795703,0.06795703 0 0 0 -0.00295,-0.095632 z m 0.297759,-0.021773 a 0.08615341,0.08615341 0 0 0 -0.1214284,0.00353 0.08601929,0.08601929 0 0 0 0.1250945,0.1179859 0.08615341,0.08615341 0 0 0 -0.00367,-0.1215179 z m 0.2817087,0.072115 a 0.09643639,0.09643639 0 0 0 -0.1366293,0.00398 0.09661522,0.09661522 0 0 0 0.00384,0.1365847 0.09692818,0.09692818 0 0 0 0.1367188,-0.00398 0.09679405,0.09679405 0 0 0 -0.00393,-0.1365847 z M 1.4891251,2.3529289 a 0.04104247,0.04104247 0 0 0 -0.057719,0.0017 0.0406848,0.0406848 0 0 0 0.00156,0.057674 0.04055067,0.04055067 0 0 0 0.057674,-0.00161 0.04090834,0.04090834 0 0 0 -0.00152,-0.057763 z m 1.4216432,1.0076417 a 0.05494683,0.05494683 0 0 0 0.00224,0.077569 0.05499154,0.05499154 0 0 0 0.075334,-0.080073 0.05503625,0.05503625 0 0 0 -0.077569,0.0025 z m 0.070192,-0.2829158 a 0.0678229,0.0678229 0 0 0 0.00308,0.095453 0.06746523,0.06746523 0 0 0 0.095632,-0.00286 0.0672864,0.0672864 0 0 0 -0.003,-0.095542 0.06795703,0.06795703 0 0 0 -0.095721,0.00295 z M 2.9594112,2.7797169 A 0.08570633,0.08570633 0 0 0 2.963122,2.9011007 0.08575104,0.08575104 0 0 0 3.0845058,2.8973898 0.08588516,0.08588516 0 0 0 2.9594112,2.7797169 Z M 2.855419,2.5035968 a 0.09665993,0.09665993 0 1 0 0.1364953,-0.00425 c -0.038539,-0.036572 -0.099789,-0.03447 -0.1364953,0.00425 z M 2.7598768,3.605976 a 0.04104247,0.04104247 0 0 0 0.00179,0.057763 0.04059538,0.04059538 0 0 0 0.057585,-0.0021 0.04001417,0.04001417 0 0 0 -0.00174,-0.057316 0.04041655,0.04041655 0 0 0 -0.057629,0.00165 z M 1.5806436,3.7487751 A 0.11119021,0.11119021 0 0 0 1.418888,3.5961848 0.11123492,0.11123492 0 0 0 1.5806436,3.7487751 Z M 1.3401115,2.6560083 a 0.05482566,0.05482566 0 1 0 -0.07976,-0.075244 c -0.021013,0.021907 -0.019761,0.056467 0.00246,0.07739 0.021773,0.020566 0.056377,0.019716 0.077301,-0.00215 z m -0.070461,0.2830499 a 0.06804644,0.06804644 0 0 0 -0.00277,-0.095721 0.06768877,0.06768877 0 0 0 -0.092949,0.098359 0.06795703,0.06795703 0 0 0 0.095721,-0.00264 z m 0.021684,0.2978038 a 0.08615341,0.08615341 0 0 0 -0.00362,-0.1217414 0.086064,0.086064 0 0 0 -0.1215626,0.00376 0.08610871,0.08610871 0 0 0 0.00376,0.1214732 c 0.034694,0.032771 0.08897,0.031028 0.1214284,-0.00349 z m 0.1038133,0.2762096 a 0.09679405,0.09679405 0 0 0 -0.00398,-0.1366294 0.09625755,0.09625755 0 0 0 -0.1363612,0.0042 0.09648109,0.09648109 0 0 0 0.00367,0.1365847 0.09719643,0.09719643 0 0 0 0.1366741,-0.00416 z m 1.1311268,0.3354931 a 0.05463387,0.05463387 0 0 0 0.077435,-0.00237 0.05449975,0.05449975 0 0 0 -0.00237,-0.077256 0.05454446,0.05454446 0 0 0 -0.077301,0.00224 0.054768,0.054768 0 0 0 0.00224,0.077391 z M 2.248679,3.9540322 c 0.027272,0.025707 0.070014,0.024009 0.095632,-0.003 a 0.06733111,0.06733111 0 0 0 -0.00277,-0.095408 0.06791232,0.06791232 0 0 0 -0.095855,0.00295 0.06777819,0.06777819 0 0 0 0.003,0.095453 z M 1.9507411,3.975537 c 0.034873,0.032861 0.088881,0.031251 0.1213838,-0.00326 a 0.08570633,0.08570633 0 0 0 -0.0034,-0.1213838 0.08633225,0.08633225 0 0 0 -0.1216967,0.0034 0.08566162,0.08566162 0 0 0 0.00371,0.1212496 z M 1.6696136,3.9038245 a 0.09630226,0.09630226 0 0 0 0.1363612,-0.00402 0.09656249,0.09656249 0 1 0 -0.1406979,-0.1322927 0.09630226,0.09630226 0 0 0 0.00434,0.1363165 z" />
    <path
       style="fill:url(#d);stroke-width:0.04470857"
       inkscape:connector-curvature="0"
       id="path70"
       d="M 3.2828777,2.65574 A 0.13470692,0.13470692 0 0 1 3.1059659,2.5852793 0.13443867,0.13443867 0 0 1 3.1764266,2.4084122 0.13466221,0.13466221 0 0 1 3.2828777,2.65574 Z M 2.3377832,1.7990791 a 0.07399268,0.07399268 0 0 0 -0.087316,-0.0583 0.07394797,0.07394797 0 0 0 -0.058345,0.087316 0.07430564,0.07430564 0 0 0 0.145661,-0.029016 z M 2.6566,1.8684221 A 0.0897301,0.0897301 0 0 0 2.5471982,1.80355 0.08968539,0.08968539 0 0 0 2.4822366,1.9129518 0.08997986,0.08997986 0 1 0 2.6566,1.8684221 Z M 2.9505589,2.0102824 A 0.11181613,0.11181613 0 0 0 2.8101293,1.9366921 0.11199497,0.11199497 0 0 0 2.7364048,2.0771664 0.11221851,0.11221851 0 0 0 2.9505589,2.0102824 Z M 3.1850106,2.2192503 A 0.12348507,0.12348507 0 0 0 3.0261164,2.1462412 0.12335094,0.12335094 0 0 0 2.9529731,2.3051354 0.12371101,0.12371101 0 1 0 3.1850106,2.2192503 Z M 1.6987189,1.8826394 a 0.05400795,0.05400795 0 0 0 -0.071131,-0.028166 0.05400033,0.05400033 0 1 0 0.042786,0.099164 c 0.027406,-0.011803 0.040193,-0.043636 0.028345,-0.070997 z m 1.3484999,1.783559 A 0.07435035,0.07435035 0 0 0 3.1332381,3.7874481 0.07421623,0.07421623 0 0 0 3.1507191,3.6838136 0.07421623,0.07421623 0 0 0 3.0472188,3.6661984 Z M 3.1949359,3.3763975 a 0.08999835,0.08999835 0 1 0 0.096123,0.1521432 0.08999835,0.08999835 0 0 0 -0.096123,-0.1521432 z m 0.069879,-0.3261043 a 0.11235264,0.11235264 0 0 0 -0.042875,0.1528586 0.11195026,0.11195026 0 0 0 0.1526798,0.042607 0.11177143,0.11177143 0 0 0 0.04292,-0.1525903 0.11203968,0.11203968 0 0 0 -0.1527248,-0.042875 z M 3.2605649,2.7232947 A 0.12370861,0.12370861 0 0 0 3.2046789,2.8888505 0.12339565,0.12339565 0 0 0 3.370503,2.9447805 0.12326153,0.12326153 0 0 0 3.426389,2.77918 0.12384274,0.12384274 0 0 0 3.2605649,2.7232947 Z M 2.5801484,4.0631658 a 0.05402069,0.05402069 0 1 0 0.042786,0.099208 c 0.027406,-0.011803 0.040193,-0.043591 0.02839,-0.071087 A 0.05414208,0.05414208 0 0 0 2.5801484,4.0631658 Z M 1.0742296,3.6082561 A 0.13466221,0.13466221 0 0 0 1.1442879,3.4312549 0.13421513,0.13421513 0 0 0 0.96768909,3.3610624 0.13439396,0.13439396 0 0 0 0.89727309,3.5379295 0.13475163,0.13475163 0 0 0 1.0742296,3.6082561 Z M 1.2032585,2.3505146 A 0.07417152,0.07417152 0 0 0 1.2209631,2.2471037 0.07390327,0.07390327 0 0 0 1.1175075,2.2293544 0.07403739,0.07403739 0 0 0 1.0998029,2.3329889 0.07430564,0.07430564 0 0 0 1.2032585,2.3505146 Z M 1.0556756,2.6402709 A 0.09008777,0.09008777 0 0 0 1.0836186,2.5158916 0.08996656,0.08996656 0 0 0 0.93165418,2.6122386 0.08990893,0.08990893 0 0 0 1.0556756,2.6402709 Z M 0.9855725,2.9664199 A 0.1121738,0.1121738 0 1 0 0.87572356,2.7709093 0.11212909,0.11212909 0 0 0 0.9855725,2.9664199 Z m 0.004337,0.3270879 A 0.12370861,0.12370861 0 0 0 1.045795,3.1277284 0.12330624,0.12330624 0 0 0 0.87992617,3.0718427 0.12357449,0.12357449 0 0 0 0.82395107,3.2374879 0.12393216,0.12393216 0 0 0 0.9899095,3.2935078 Z m 0.9227849,0.924305 a 0.07439506,0.07439506 0 0 0 0.087495,0.058434 0.07452919,0.07452919 0 0 0 0.058211,-0.087674 0.07448448,0.07448448 0 0 0 -0.08745,-0.05821 0.07439506,0.07439506 0 0 0 -0.058255,0.08745 z M 1.5940562,4.1482909 a 0.0897301,0.0897301 0 0 0 0.1093571,0.064962 0.08993657,0.08993657 0 1 0 -0.04453,-0.174274 0.08986423,0.08986423 0 0 0 -0.064827,0.109312 z M 1.3000079,4.0063859 A 0.11154788,0.11154788 0 0 0 1.4403481,4.0799762 0.11186084,0.11186084 0 0 0 1.5141619,3.939636 0.11235264,0.11235264 0 0 0 1.3735088,3.866001 0.11181613,0.11181613 0 0 0 1.3000079,4.0063859 Z M 1.0654667,3.7972839 a 0.12326153,0.12326153 0 0 0 0.1588943,0.073054 0.1236639,0.1236639 0 0 0 -0.085706,-0.231948 0.12384274,0.12384274 0 0 0 -0.073188,0.158894 z m 1.7696099,0.1090442 a 0.05803172,0.05803172 0 0 0 0.072026,0.090937 0.05803172,0.05803172 0 1 0 -0.072026,-0.090937 z M 2.2910181,4.1408693 a 0.05821056,0.05821056 0 0 0 -0.048911,0.065945 0.05794231,0.05794231 0 0 0 0.065811,0.048956 0.05798702,0.05798702 0 0 0 0.049135,-0.065811 0.05812114,0.05812114 0 0 0 -0.066034,-0.04909 z M 2.008594,1.8099433 a 0.05798702,0.05798702 0 0 0 -0.066035,-0.048911 0.05800227,0.05800227 0 1 0 0.0169,0.1147669 0.05812114,0.05812114 0 0 0 0.049135,-0.065856 z M 1.4249683,2.0288812 a 0.05825527,0.05825527 0 0 0 -0.081638,-0.00952 0.05812114,0.05812114 0 1 0 0.081638,0.00952 z" />
    <path
       style="fill:url(#e);stroke-width:0.04470857"
       inkscape:connector-curvature="0"
       id="path87"
       d="M 3.6654489,3.1807081 A 0.17244095,0.17244095 0 0 1 3.4932315,3.008133 0.17190445,0.17190445 0 0 1 3.6656725,2.8359603 0.17199387,0.17199387 0 0 1 3.8379793,3.0083118 0.17248566,0.17248566 0 0 1 3.6654489,3.1807081 Z M 2.9886506,1.6938798 A 0.09478217,0.09478217 0 0 0 2.9154179,1.5811695 0.09478217,0.09478217 0 0 0 2.8025288,1.6541786 0.09515449,0.09515449 0 0 0 2.9886506,1.6938798 Z M 3.3283463,1.9370945 A 0.11503515,0.11503515 0 0 0 3.2326252,1.8052936 0.11534811,0.11534811 0 0 0 3.1965007,2.0330838 0.11548224,0.11548224 0 0 0 3.3283463,1.9370945 Z M 3.6020522,2.2531393 Z M 3.7717659,2.6177824 A 0.15813421,0.15813421 0 0 0 3.6218581,2.4513771 0.15804479,0.15804479 0 0 0 3.4553186,2.6011956 0.15844717,0.15844717 0 1 0 3.7717659,2.6177824 Z M 2.1945817,1.4679674 c 0,-0.038405 -0.031073,-0.069119 -0.069343,-0.069119 a 0.06920887,0.06920887 0 0 0 0,0.1383283 c 0.03827,0 0.069343,-0.030894 0.069343,-0.069209 z M 2.8758509,4.2495558 A 0.09523267,0.09523267 0 1 0 2.9154627,4.4358565 0.09523267,0.09523267 0 0 0 2.8758509,4.2495558 Z M 3.1965007,3.9837187 A 0.11525869,0.11525869 0 1 0 3.232357,4.2114194 0.11525869,0.11525869 0 0 0 3.1965007,3.9837187 Z M 3.4441415,3.6356178 A 0.14363161,0.14363161 0 1 0 3.4741856,3.9213055 0.14338038,0.14338038 0 0 0 3.6020522,3.7634396 0.14369334,0.14369334 0 0 0 3.4441415,3.6356178 Z M 3.6050029,3.2488439 A 0.15853659,0.15853659 0 0 0 3.4553186,3.4153386 0.15800009,0.15800009 0 0 0 3.6218581,3.565157 0.15813421,0.15813421 0 0 0 3.7717212,3.3987517 0.15871542,0.15871542 0 0 0 3.6050029,3.2488439 Z M 2.1252387,4.479492 a 0.06920887,0.06920887 0 0 0 0,0.138373 0.06918651,0.06918651 0 1 0 0,-0.138373 z M 0.58493902,3.1807081 A 0.17248566,0.17248566 0 0 0 0.75706702,3.008133 0.17190445,0.17190445 0 0 0 0.58493902,2.8359603 0.17230683,0.17230683 0 0 0 0.41240865,3.0083565 0.17270921,0.17270921 0 0 0 0.58493902,3.1807081 Z M 1.3746265,1.7670231 A 0.09518455,0.09518455 0 0 0 1.4479485,1.6541339 0.09487159,0.09487159 0 0 0 1.3351041,1.5810354 0.0950703,0.0950703 0 1 0 1.3746265,1.7670231 Z M 1.054066,2.0329944 A 0.11548224,0.11548224 0 0 0 1.1500106,1.9009699 0.11516928,0.11516928 0 0 0 1.0179862,1.8052489 0.11503515,0.11503515 0 0 0 0.92230989,1.9370498 0.11525869,0.11525869 0 0 0 1.054066,2.0329944 Z M 0.80624644,2.3810059 A 0.14373805,0.14373805 0 0 0 0.77624699,2.095184 0.14338038,0.14338038 0 0 0 0.64842519,2.2531841 0.14351451,0.14351451 0 0 0 0.80624644,2.3810059 Z M 0.64538501,2.767735 A 0.15853659,0.15853659 0 0 0 0.79529284,2.6011509 0.15813421,0.15813421 0 0 0 0.62852988,2.4512877 0.15826834,0.15826834 0 0 0 0.47866675,2.6177377 0.15862601,0.15862601 0 0 0 0.64538501,2.767735 Z M 1.2618715,4.3227885 A 0.09514053,0.09514053 0 1 0 1.4479933,4.3623556 0.09522925,0.09522925 0 0 0 1.3746712,4.2495111 0.09531867,0.09531867 0 0 0 1.2618715,4.3227885 Z M 0.9223546,4.0794844 A 0.11490102,0.11490102 0 0 0 1.0180309,4.21133 0.11521398,0.11521398 0 1 0 0.9223546,4.0794844 Z M 0.64842519,3.763529 A 0.14324626,0.14324626 0 0 0 0.77620228,3.9213502 0.14342509,0.14342509 0 0 0 0.93411295,3.7935731 0.14369334,0.14369334 0 0 0 0.80620173,3.6356625 0.14342509,0.14342509 0 0 0 0.64842519,3.763529 Z M 0.47866675,3.398707 A 0.15813421,0.15813421 0 0 0 0.62852988,3.5651123 0.15800009,0.15800009 0 0 0 0.79529284,3.4152939 0.1585813,0.1585813 0 0 0 0.64538501,3.2487992 0.15884955,0.15884955 0 0 0 0.47866675,3.398707 Z M 2.5046356,4.4244111 a 0.07448448,0.07448448 0 0 0 -0.052622,0.091071 0.07435035,0.07435035 0 0 0 0.091071,0.052443 0.07421623,0.07421623 0 0 0 0.052756,-0.090982 0.07443977,0.07443977 0 0 0 -0.091206,-0.052532 z m -0.7588833,0 A 0.07430564,0.07430564 0 0 0 1.707303,4.5679256 0.07430564,0.07430564 0 1 0 1.7457523,4.4244111 Z M 2.5958858,1.5397247 A 0.07430564,0.07430564 0 0 0 2.543085,1.4487428 0.07435035,0.07435035 0 0 0 2.5046803,1.5922573 0.07435035,0.07435035 0 0 0 2.5958858,1.5397247 Z M 1.7985084,1.5011412 A 0.07426093,0.07426093 0 0 0 1.707303,1.4487428 0.07417152,0.07417152 0 0 0 1.654681,1.5395906 0.07443906,0.07443906 0 0 0 1.7985084,1.5011412 Z" />
  </g>
</svg>
