<?xml version="1.0" encoding="UTF-8" standalone="no"?>
<svg
   xmlns:dc="http://purl.org/dc/elements/1.1/"
   xmlns:cc="http://creativecommons.org/ns#"
   xmlns:rdf="http://www.w3.org/1999/02/22-rdf-syntax-ns#"
   xmlns:svg="http://www.w3.org/2000/svg"
   xmlns="http://www.w3.org/2000/svg"
   xmlns:sodipodi="http://sodipodi.sourceforge.net/DTD/sodipodi-0.dtd"
   xmlns:inkscape="http://www.inkscape.org/namespaces/inkscape"
   width="120"
   height="60"
   viewBox="0 0 120 60"
   version="1.1"
   preserveAspectRatio="xMidYMid"
   id="svg3407"
   inkscape:version="0.48.4 r9939"
   sodipodi:docname="flask-ar21.svg">
  <metadata
     id="metadata3429">
    <rdf:RDF>
      <cc:Work
         rdf:about="">
        <dc:format>image/svg+xml</dc:format>
        <dc:type
           rdf:resource="http://purl.org/dc/dcmitype/StillImage" />
      </cc:Work>
    </rdf:RDF>
  </metadata>
  <defs
     id="defs3427" />
  <sodipodi:namedview
     pagecolor="#ffffff"
     bordercolor="#666666"
     borderopacity="1"
     objecttolerance="10"
     gridtolerance="10"
     guidetolerance="10"
     inkscape:pageopacity="0"
     inkscape:pageshadow="2"
     inkscape:window-width="1147"
     inkscape:window-height="832"
     id="namedview3425"
     showgrid="false"
     inkscape:zoom="8.45"
     inkscape:cx="60"
     inkscape:cy="30"
     inkscape:window-x="65"
     inkscape:window-y="24"
     inkscape:window-maximized="0"
     inkscape:current-layer="svg3407" />
  <path
     style="fill:#000000"
     inkscape:connector-curvature="0"
     id="path3411"
     d="M 20.586162,46.990298 C 18.807226,45.590731 16.908859,44.249504 15.611922,42.359689 12.882123,39.027239 10.780938,35.169721 9.3444099,31.115188 8.4757127,28.478551 8.1785107,25.651923 7.0581228,23.117611 5.8876414,21.276364 7.2597192,19.26498 9.2762949,18.680045 10.173399,18.507161 11.751961,17.66015 9.8465689,18.266161 8.1378857,19.519114 7.9732486,17.127752 9.7249999,16.976249 10.920528,16.817721 11.36068,15.839367 10.951379,14.958757 c -1.2838041,-0.837541 3.111916,-1.756332 0.899853,-3.00562 -2.3027821,-2.4854402 3.222489,-2.9637733 1.858964,-0.140812 -0.325915,2.170522 3.862099,-0.398611 2.889549,2.108211 0.988128,1.20408 3.69899,0.274598 3.630874,1.962816 1.438972,0.09897 1.932883,1.30885 3.282357,1.402012 1.400791,0.63228 3.937546,1.129856 4.413437,2.707196 -1.388572,1.099007 -4.60312,-2.270404 -4.758289,0.772176 0.419993,4.495601 0.31278,9.126516 1.957013,13.407387 0.777674,2.591736 2.664128,4.631832 4.366702,6.650851 1.629878,1.976868 3.837359,3.36941 6.087603,4.541113 1.973507,0.930703 4.10096,1.547406 6.25224,1.935326 0.872056,-0.667101 2.412437,-3.147653 3.772603,-2.102406 0.06567,1.176591 -2.699866,2.457948 -0.129816,2.327827 1.510445,-0.45573 2.556915,1.166816 3.800093,-0.297202 1.145434,1.356806 4.760731,-0.866252 3.945792,1.906919 -1.102367,0.711086 -2.70964,0.281319 -3.813228,1.259978 -1.819561,-0.909321 -3.268305,0.812496 -5.283355,0.595322 -2.23711,0.400749 -4.513927,0.562026 -6.781887,0.565385 C 33.62029,51.261699 29.820196,51.137687 26.28004,49.841973 24.285152,49.262229 22.339135,48.126265 20.586162,46.990298 l 0,0 z m 3.142767,1.362609 c 1.947239,0.841207 3.851714,1.728843 5.986193,1.997332 3.386211,0.470087 6.883297,1.195529 10.281419,0.534536 -1.537936,-0.694286 -3.128409,0.269712 -4.660543,-0.496355 -1.837277,0.394947 -3.809562,-0.101408 -5.6783,-0.346072 -2.123789,-0.945976 -4.416796,-1.596279 -6.405881,-2.825407 -2.486662,-0.907794 1.285025,1.164679 1.956708,1.332982 1.553515,0.881526 -1.708683,-0.452371 -2.1693,-0.818605 -1.301519,-0.730329 -1.467378,-0.577604 -0.128594,0.163416 0.269406,0.157611 0.535757,0.32347 0.818298,0.458173 l 0,0 z m -3.706015,-2.618921 c 1.887676,0.699173 -0.0082,-1.326871 -0.872057,-1.209884 -0.383034,-0.664658 -1.464019,-1.08465 -0.701617,-1.441416 -1.370856,0.476196 -1.436528,-1.810091 -2.08072,-1.482955 -1.450884,-0.458173 -0.56447,-2.081026 -2.293312,-3.078317 -0.157612,-1.050133 -1.71693,-1.960373 -2.213285,-3.543822 -0.219618,-0.811273 -1.762442,-3.1391 -0.814939,-0.97255 0.806386,2.085608 2.225197,3.873097 3.40637,5.65692 0.916347,1.698909 1.999775,3.475705 3.669055,4.535309 0.563248,0.54034 1.106032,1.36719 1.900505,1.536715 l 0,0 z M 14.58714,39.764593 c 0.06537,-0.28529 0.344852,0.6167 0,0 l 0,0 z m 7.697014,6.806934 c 0.417549,-0.18724 -0.601429,-0.236111 0,0 l 0,0 z m 1.023561,0.373565 c -0.105991,-0.515597 -0.467643,0.288649 0,0 l 0,0 z m 1.282886,0.534536 c 0.609676,-0.581269 -0.941394,-0.366538 0,0 l 0,0 z m 2.197707,1.225156 c 0.37112,-0.54767 -1.187282,-0.206177 0,0 l 0,0 z m -4.220086,-2.942085 c 0.947198,-0.613343 -1.225462,-0.0086 0,0 l 0,0 z m 0.961554,0.479555 c -0.02749,-0.323471 -0.342408,0.145394 0,0 l 0,0 z m 4.807159,3.000732 c 0.773093,0.488109 4.513929,1.069072 2.171745,0.200375 -0.392808,0.08247 -4.343182,-1.117944 -2.171745,-0.200375 l 0,0 z M 20.705593,43.29864 c -0.07514,-0.324387 -1.200416,-0.359209 0,0 l 0,0 z m 2.23711,1.305489 c 0.583408,-0.406858 -1.208663,-0.314001 0,0 l 0,0 z m 1.882789,1.153682 c 0.83632,-0.314919 -1.355278,-0.316139 0,0 l 0,0 z m -5.031665,-3.45066 c 0.906879,0.695509 3.658365,0.0895 1.388878,-0.415106 -1.032113,-0.550113 -3.35872,-0.927037 -1.772828,0.331719 l 0.38395,0.08339 0,0 z m 6.30722,3.849272 c 0.378147,-0.643277 -1.58467,-0.367761 0,0 l 0,0 z m -1.916388,-1.522665 c 2.21695,0.626476 -1.864767,-1.403233 -0.547365,-0.231531 l 0.292315,0.132566 0.25505,0.09896 0,0 z m 3.842246,2.220615 c 2.099962,0.02016 -1.897145,-0.289871 0,0 l 0,0 z m -9.040686,-5.761994 c -0.08247,-0.391279 -0.517736,0.03238 0,0 l 0,0 z m 12.592755,7.75444 c 0.0559,-0.7062 -0.685122,0.526288 0,0 l 0,0 z M 22.57036,43.286726 c -0.127678,-0.372342 -0.656105,-0.01558 0,0 l 0,0 z m -3.384988,-2.439928 c 1.205303,-0.0727 -1.651258,-0.53087 0,0 l 0,0 z M 15.17513,38.255063 c -0.150281,-0.578521 -1.311293,-1.039138 0,0 l 0,0 z m 10.527306,6.680784 c -0.220533,-0.251995 -0.103853,0.05468 0,0 l 0,0 z m 6.551579,4.020934 c -0.02016,-0.385477 -0.356763,0.145393 0,0 l 0,0 z m -7.131321,-4.619919 c 0.118208,-0.496355 -1.028448,-0.150587 0,0 l 0,0 z M 20.24131,41.242966 c 0.89741,-0.09561 -1.437749,-0.606317 0,0 l 0,0 z m 8.256902,5.130632 c 1.398347,-0.553781 -1.362609,-0.269713 0,0 l 0,0 z m -4.294309,-2.914903 c 1.610634,0.207399 -1.917305,-1.096563 -0.354321,-0.116988 l 0.354321,0.116988 0,0 z m 5.598273,3.442107 c 1.504643,-0.898326 1.008286,2.106071 2.552333,0.254133 1.522359,-1.111835 -1.314959,1.374522 0.560804,0.198238 1.357722,-0.908101 3.362079,0.430683 4.628166,0.866254 0.91024,-0.04429 1.795737,0.787446 2.729799,0.281317 1.79696,-0.484441 -3.514802,-0.718111 -2.122566,-1.576117 -1.644232,0.478639 -2.858698,-0.570274 -3.667834,-1.623767 -1.844607,-0.426103 -3.976642,-1.36872 -4.897877,-3.001956 -0.375701,-0.61212 0.541866,0.08705 -0.324386,-0.915125 -1.110919,-0.988129 -1.665616,-2.110959 -2.411522,-3.312291 -0.891301,-0.474975 -0.996375,-1.874542 -1.085873,-0.04643 0.0073,-1.153986 -1.076097,-1.930744 -1.340921,-1.608496 -0.0049,-1.110919 1.159791,-0.553779 0.344852,-1.375742 -0.175328,-1.151544 -0.752932,-2.351654 -0.926122,-3.652257 -0.269406,-0.626476 -0.03818,-1.968619 -0.920929,-0.550113 -0.321027,1.499754 -0.106297,-1.842164 0.393724,-0.74102 0.656105,-1.123748 -0.236418,-0.991488 -0.272156,-0.83632 0.427324,-0.948419 0.270934,-2.294534 -0.1121,-1.78138 0.227866,-1.005844 0.360431,-3.701128 -0.339964,-3.222794 0.424574,-1.052273 0.805469,-4.813269 -1.039444,-3.378879 -0.746823,0.01069 -2.041317,0.270933 -2.652215,0.575161 1.917304,1.057159 -0.19335,0.381811 -0.974994,0.213509 -0.101409,0.978353 -0.874501,0.555917 -1.840942,0.565386 1.544045,0.190906 -0.751711,1.578562 -1.635681,1.039444 -1.150321,0.548892 0.991488,1.92097 0.0226,2.345544 0.119431,0.638389 -1.76122,-0.231225 -1.614299,1.245927 -1.115806,-0.470391 -0.152724,1.751445 0.405637,0.999736 1.898366,0.514376 1.33634,1.684858 1.38399,2.797913 -0.309115,0.647859 -1.527246,-1.523579 -0.270933,-1.423392 -0.991489,-1.609717 -1.096258,-0.582187 -1.919749,0.165859 -0.190905,0.05376 2.099964,1.064186 0.662214,1.562984 1.264865,0.195792 1.301825,1.303045 1.559624,2.00344 0.759958,0.79203 0.603567,-0.874806 1.514112,0.07759 -0.576383,-0.848539 -3.049911,-2.390141 -1.058382,-1.895924 -0.01069,-0.85312 -0.36043,-1.541602 0.250468,-1.525109 0.605095,-1.094119 -0.633501,2.698949 0.729108,1.307934 0.376924,-0.164636 0.471308,-1.095341 1.1491,0.08827 0.984157,0.968887 0.355542,1.670198 -1.033335,0.782562 0.248025,0.84365 1.857742,1.144212 1.554736,2.462837 0.320722,1.159791 0.769427,0.732467 1.160707,0.665573 0.306671,1.126498 0.481083,0.298425 0.495439,-0.238556 1.40415,0.300868 1.074876,1.13108 1.515028,1.711127 0.967663,0.436487 -1.385212,-2.960413 0.27582,-1.021423 1.747781,1.578563 0.656105,2.237111 -0.912682,1.984198 0.99271,-0.08003 1.31221,1.34245 2.554472,1.292357 1.1323,0.539118 1.899588,2.608231 -0.05254,1.746558 -0.67657,-0.610898 -3.073736,-1.363831 -1.115501,-0.202818 1.806427,0.837541 3.242954,1.337562 4.986153,2.388918 1.246844,0.890079 1.785961,1.909974 2.258491,2.111876 -1.048608,0.500936 -3.159261,-0.399833 -1.591696,-0.675348 -0.978353,-0.177772 -2.078276,-0.672904 -1.141769,0.545227 0.796917,0.665879 2.821739,0.595319 3.185835,0.670461 -0.307892,0.677791 -0.836319,0.731549 0.01191,0.784087 -0.946283,0.504602 0.304227,0.583408 0.391281,0.870836 l 0,0 z M 27.86685,41.435095 c -0.576383,-0.602651 -0.725442,-1.730065 -0.102633,-0.749574 0.319807,0.1289 1.022645,1.843693 0.102633,0.749574 l 0,0 z m 6.303555,4.004132 c 0.359208,-0.02383 0.01069,0.273073 0,0 l 0,0 z m -7.212572,-5.481285 c -0.02291,-0.910544 0.207399,0.702534 0,0 l 0,0 z m -0.626478,-0.842429 c -0.72544,-1.399568 0.912683,0.396167 0,0 l 0,0 z m -7.593466,-5.240286 c 0.426102,-0.113628 0.210149,0.727579 0,0 l 0,0 z m 6.043618,3.275026 c 0.261159,-0.98202 0.306672,0.823491 0,0 l 0,0 z m -4.269263,-2.968661 c -0.300563,-0.541561 0.62892,0.508572 0,0 l 0,0 z m 3.662946,1.174147 c -0.686039,-1.536715 0.486886,-0.839986 0.152725,0.25169 l -0.152725,-0.25169 0,0 z m -6.317605,-4.213061 c -0.306671,-0.504602 -0.813717,-1.984198 -0.650302,-2.436262 0.146616,0.736131 1.564206,3.166591 0.694286,1.007066 -0.960332,-1.810093 1.1491,0.586767 1.366274,1.039138 0.10141,0.448705 -0.593182,-0.122791 -0.123095,0.930703 -0.857702,-1.199194 -0.505824,0.662214 -1.287163,-0.540645 l 0,0 z m -1.952126,-1.345809 c 0.08003,-1.172924 0.446261,0.804248 0,0 l 0,0 z m 0.878166,0.303005 c 0.418771,-0.885192 0.709864,1.233711 0,0 l 0,0 z m -2.113097,-1.634459 c -0.726664,-0.723303 -1.252953,-1.388877 0.03452,-0.448704 0.495133,0.01894 -1.102366,-1.514112 0.119431,-0.486886 1.283803,0.233974 0.633501,2.106072 -0.153947,0.93559 l 0,0 z m 1.109697,-0.02871 c 0.422436,-0.418771 0.2242,0.411745 0,0 l 0,0 z M 16.46382,28.6551 c -0.640832,-1.199193 0.776757,0.503381 0,0 l 0,0 z m -1.357722,-1.296937 c -2.113097,-1.881873 2.654659,0.982935 0.344853,0.348212 l -0.344853,-0.348212 0,0 z m 6.055225,3.517246 c -0.915126,-0.547669 -0.243443,-3.859655 0.06934,-1.595055 0.888857,-0.287733 -0.04918,1.170482 0.613037,1.156125 -0.103548,0.919708 -0.40075,1.25051 -0.682374,0.43893 l 0,0 z m 2.239554,1.324428 c 0.0895,-0.998512 0.188462,0.682679 0,0 l 0,0 z M 23.01204,31.81436 c 0.100187,-0.425796 0.0095,0.502464 0,0 l 0,0 z m -7.492058,-5.074427 c -1.357722,-1.87332 3.945793,1.894702 0.869919,0.474974 -0.321027,-0.08461 -0.708642,-0.114544 -0.869919,-0.474974 l 0,0 z m 4.313248,2.286288 c -0.128594,-1.57734 0.286511,0.261158 0,0 l 0,0 z m 3.27411,2.100878 c 0.252912,-0.898324 0.01924,0.594406 0,0 l 0,0 z m -7.378431,-5.101917 c 0.806692,-0.172884 3.343142,1.416368 1.014091,0.453592 -0.258715,-0.286511 -0.811272,-0.15639 -1.014091,-0.453592 l 0,0 z m 6.928504,3.453103 c 0.08614,-1.613077 0.482305,-0.962775 0.0037,0.231531 l -0.0037,-0.231531 0,0 z m -6.328296,-4.014824 c 0.329274,-0.482304 -0.873585,-2.179991 0.172884,-0.60876 0.45237,0.359208 1.30885,0.601429 0.552558,0.752932 1.189419,1.048913 -0.289872,0.284068 -0.725442,-0.144172 l 0,0 z m 5.985888,3.511445 c 0.226949,-1.837583 0.20068,1.076096 0,0 l 0,0 z m -6.673149,-5.208215 c 0.251691,-0.107518 0.133482,0.335078 0,0 l 0,0 z m 1.561762,0.929482 c 0.401971,-0.843651 0.74102,0.940172 0,0 l 0,0 z m 4.403966,2.449397 c -0.0037,-0.323165 0.08339,0.471308 0,0 l 0,0 z m -0.255355,-0.564165 c -0.610899,-1.508308 0.569052,0.798139 0,0 l 0,0 z m -0.374786,-0.98935 c -0.102326,-0.622811 0.348517,0.782866 0,0 l 0,0 z m 0.610898,-0.99271 c -0.419993,-0.738576 0.529954,-3.25731 0.636251,-1.695243 -0.442902,1.21691 -0.127678,1.897145 0.179909,0.264825 0.57058,-1.283803 -0.12279,2.535534 -0.81616,1.430418 l 0,0 z m 0.627698,-3.745112 c 0.182659,-0.224505 0.04063,0.270628 0,0 l 0,0 z m -1.048607,20.657224 c -0.24833,-0.217174 0.03207,0.137146 0,0 l 0,0 z m 2.159526,1.091674 c 1.201332,0.309116 1.195528,-0.186323 0.109656,-0.334161 -0.583408,-0.542784 -2.426794,-1.119165 -0.776757,-0.06689 0.10874,0.277042 0.453592,0.269712 0.667101,0.401054 l 0,0 z m -4.264376,-2.832734 c 0.660992,0.494216 2.492465,1.398345 0.942616,0.188766 0.522623,-0.607538 -1.000041,-0.930703 -0.495133,-1.337562 -1.285025,-0.786532 -1.014397,-0.715972 -0.113322,-0.690926 -1.544046,-0.690925 0.222978,-0.638388 0.13959,-0.99271 -0.59532,-0.116987 -2.957969,-1.050133 -1.56787,0.07636 -1.412703,-0.719638 -0.336605,0.268489 -0.763623,0.164636 -1.44508,-0.393724 1.286246,1.100229 -0.229087,0.729108 0.828072,0.656105 2.230084,1.682414 0.349434,0.694286 -0.246803,0.356764 1.346114,0.897411 1.737395,1.168039 l 0,0 z m 2.258491,1.298157 c 2.745683,0.884277 -1.347031,-1.082205 0,0 l 0,0 z m 11.561863,7.00395 c 0.03574,-0.545226 -0.374786,0.465201 0,0 l 0,0 z m 1.188502,0.500021 c 0.633503,-0.613342 0.02627,0.978354 1.049829,-0.15028 0.01069,-0.807914 -0.03085,-1.285026 -1.176284,-0.303312 -0.316446,0.175634 -0.456953,0.918792 0.126455,0.453592 l 0,0 z M 15.207508,36.725677 c -0.194571,-0.764844 -1.363831,-0.761483 0,0 l 0,0 z m 1.268225,0.831434 c -0.471308,-0.781339 -1.681193,-0.70742 0,0 l 0,0 z m 7.219902,4.353873 c 0.705282,0.626475 3.23715,0.459396 0.855563,0.07759 -0.352183,-0.521402 -2.238331,-0.396169 -0.855563,-0.07759 l 0,0 z m 9.923434,6.129448 c 1.084649,-0.910542 -1.051051,0.405637 0,0 l 0,0 z m 2.256353,1.549849 c 0.007,-0.292314 -0.467643,0.127678 0,0 l 0,0 z m 0.0037,-0.409301 c 1.201333,-1.27189 -1.163455,0.07514 0,0 l 0,0 z m -23.793,-15.068419 c -1.02356,-1.460353 -0.635945,-2.116763 -1.623768,-3.309848 -0.187545,-0.912681 -1.6943261,-2.981795 -0.7792011,-0.789892 0.8375421,1.282582 1.0858721,3.268001 2.4029691,4.09974 l 0,0 z m 23.415735,14.664004 c 2.211147,-1.42828 -0.906574,-0.621589 0,0 l 0,0 z m 1.687302,0.660993 c 1.107253,-0.949948 -0.700395,-0.198238 0,0 l 0,0 z M 14.8315,35.111074 c 0.316445,-0.471309 -0.818299,-0.06078 0,0 l 0,0 z M 36.836975,48.98641 c 1.071517,-0.690621 -0.246803,-0.584631 -0.194265,0.06323 l 0.194265,-0.06323 0,0 z m -14.54213,-9.16592 c -0.03696,-0.467644 -0.566608,0.0394 0,0 l 0,0 z m 0.898326,0.51682 c -0.286206,-0.577604 -0.43893,0.09072 0,0 l 0,0 z m 15.363178,9.115825 c 1.3733,-0.99057 -0.831432,-0.189988 -0.287427,0.188463 l 0.287427,-0.188463 0,0 z m -0.525983,-0.254133 c 1.119166,-0.936814 -1.180257,0.415106 0,0 l 0,0 z m 2.686731,1.788405 c 0.750794,-0.502463 -0.912683,-0.162193 0,0 l 0,0 z M 15.519982,34.771109 c 1.005844,0.225421 4.022155,2.478109 2.243219,0.15639 -0.911461,-0.269712 -0.365012,-2.497352 -1.294494,-2.103628 0.624033,1.042802 0.512849,1.485398 -0.797222,0.829294 -1.64515,-0.804248 -0.924595,0.39739 -0.602346,0.729108 -0.439236,0.100187 0.579743,0.380588 0.450843,0.388836 l 0,0 z m -4.585098,-3.621101 c 0.17991,-0.745906 -1.6598111,-4.099738 -0.868697,-1.681191 0.284984,0.507045 0.255355,1.467378 0.868697,1.681191 l 0,0 z m 8.416347,5.188972 c -0.518958,-0.433128 -0.02505,-0.06201 0,0 l 0,0 z m 1.275556,0.297201 c 0,-0.789892 -1.410259,-0.321026 0,0 l 0,0 z m 11.06062,6.971573 c -0.211065,-0.539423 -0.833875,-0.01192 0,0 l 0,0 z m 0.530872,0.387615 c -0.07881,-0.301784 -0.306671,0.05865 0,0 l 0,0 z m 4.383806,2.762178 c 0.421215,-0.311253 -0.526288,-0.04032 0,0 l 0,0 z M 13.224531,31.734639 c 1.206219,-0.466726 -1.292355,-0.332939 0,0 l 0,0 z m 17.489105,11.017552 c -0.01405,-0.780422 -0.769426,0.194572 0,0 l 0,0 z M 12.748336,30.62372 c 0.774314,-0.261158 -0.717195,-0.171662 0,0 l 0,0 z m 2.247801,1.089232 c -0.01313,-0.256271 -0.237334,0.09805 0,0 l 0,0 z M 42.421199,48.53068 c 0.996068,-0.201598 3.266778,0.507045 3.633012,-0.263604 -1.209884,-0.02993 -4.184348,-0.85434 -4.325162,0.195489 l 0.264826,0.04185 0.427324,0.02627 0,0 z M 15.710888,31.893166 c 0.01802,-0.791112 -0.616702,-0.02963 0,0 l 0,0 z M 9.8001399,27.792511 c -0.268489,-1.507086 -1.021422,-0.22817 0,0 l 0,0 z m 1.4090381,0.354322 c 0.01802,-0.484443 -1.2899121,-0.435571 0,0 l 0,0 z M 12.014647,28.543 c -0.232752,-0.188768 -0.181437,0.237334 0,0 l 0,0 z m 5.06954,3.251201 c 0.238861,-0.219617 -0.565386,-0.162193 0,0 l 0,0 z m -5.605298,-4.143724 c -0.137146,-1.138409 -1.6335421,-0.170746 0,0 l 0,0 z M 8.5878127,25.774714 c -0.04062,-0.525067 -0.281625,0.197931 0,0 l 0,0 z m 0.4306832,-0.324387 c -0.07025,-0.623117 -0.3698992,0.0785 0,0 l 0,0 z m 2.3745621,1.417284 c 1.004622,-0.393724 -1.8293351,-0.81616 -0.205262,-0.07392 l 0.205262,0.07392 0,0 z M 43.1836,46.504635 c 0.64297,-0.589213 -0.816162,-0.182355 0,0 l 0,0 z m 3.840718,1.990307 c 0.257799,-0.761181 -0.64908,0.100187 0,0 l 0,0 z M 11.636196,25.623211 c 0.106296,-0.737354 -0.796917,0.146616 0,0 l 0,0 z m -3.3801013,-2.2646 c -0.181437,-1.04036 -0.15639,-2.867252 1.5797832,-2.250244 -2.3171377,0.460617 1.6048301,2.881302 1.1096971,0.969801 0.974688,0.04795 1.906614,-0.576077 1.394681,0.369899 1.92097,-0.211066 3.251507,-1.87668 5.106805,-1.642706 1.444775,-0.192128 3.024558,-0.336605 4.581738,-0.918792 1.280137,-0.09194 2.512625,-1.470127 1.811314,-2.287509 -1.745642,-0.147837 -3.573756,0.07056 -5.502973,0.454814 -2.138144,0.443818 -4.080496,1.288385 -6.237883,1.651258 -2.1036291,0.282847 0.422436,0.77798 -0.180215,0.888858 -1.096563,0.38059 1.308849,0.637167 -0.142034,1.039138 -0.895883,-0.17044 -1.8290301,-0.478333 -1.445997,-1.423393 -2.0141323,0.262686 -3.7848211,1.097784 -2.1931253,3.147654 l 0.118209,0.0012 0,0 z M 13.11121,20.886305 c 0.471308,-1.739534 2.529425,1.431946 0.773092,0.231531 -0.208928,-0.157612 -0.555002,-0.28529 -0.773092,-0.231531 l 0,0 z m 0.09164,-0.843651 c 0.681457,-0.507046 0.361651,0.28529 0,0 l 0,0 z m 0.865032,0.01436 c 0.06231,-0.800582 1.98206,0.423658 0.316445,0.287733 l -0.316445,-0.287733 0,0 z m 1.183615,-0.475889 c 0.433127,-0.50613 0.12554,0.448399 0,0 l 0,0 z m 0.303311,-0.202819 c 0.720555,-0.865032 4.07683,-0.552557 1.620103,-0.08492 -0.658549,-0.496354 -1.163151,0.292315 -1.620103,0.08492 l 0,0 z m 4.381058,-0.675348 c -0.108435,-2.363871 2.177547,0.838764 0,0 l 0,0 z m 1.243484,-0.0073 c 0.454508,-1.190641 1.76458,-0.478333 0.211065,-0.239777 0.03329,0.127677 -0.04643,0.615785 -0.211065,0.239777 l 0,0 z m -10.033395,6.316689 c 1.357721,-0.831739 -1.4414151,-0.721777 0,0 l 0,0 z m 1.004622,0.277958 c 0.476195,-0.505823 -1.035778,-0.205261 0,0 l 0,0 z M 9.1916859,23.19153 c 0.775535,-0.596542 -0.9187912,-0.226643 0,0 l 0,0 z M 49.291362,48.277767 c 0.0226,-0.692147 -0.593183,0.311253 0,0 l 0,0 z M 45.21667,45.496346 c 0.115764,-0.795694 -0.523845,0.06934 0,0 l 0,0 z m 5.195079,3.049911 c 1.084651,0.0037 3.286939,-0.337827 0.927038,-0.336605 -0.371121,0.05742 -2.158303,0.04551 -0.927038,0.336605 l 0,0 z M 13.033626,24.802164 c 0.878166,-0.05956 1.373299,-0.967664 -0.170746,-0.916348 -2.392278,-0.246803 2.110653,0.819826 -0.306671,0.514377 -0.324387,0.21473 0.458173,0.461839 0.477417,0.401971 l 0,0 z m 0.773092,0.391585 c -0.09194,-0.563248 -0.272156,0.299341 0,0 l 0,0 z m 0.917569,-2.446037 c 0.38059,-0.47253 -0.527511,-0.126456 0,0 l 0,0 z m -2.921011,-4.881384 c 1.567871,-0.532092 3.710903,-1.131078 4.450701,0.262687 -0.752933,-0.905657 -0.304228,-1.79818 0.406858,-0.47253 1.005844,1.340005 1.509224,-0.609677 0.855257,-1.059604 0.745907,0.925817 1.592918,1.363831 0.498799,0.05865 1.189725,-1.430724 -2.380365,0.18724 -3.191638,0.17044 -0.390059,0.175328 -4.030403,0.928261 -3.019977,1.04036 l 0,0 z m 0.918792,-1.758471 c 0.893744,-0.674126 3.091451,0.401972 1.681192,-0.670766 -0.138369,-0.121569 -3.087786,0.813717 -1.681192,0.670766 l 0,0 z m 3.258531,0.134703 c 1.045247,0.02627 -0.450842,-1.405677 0.794779,-0.756597 -0.20404,-0.668018 -1.450883,-0.793252 -2.06056,-1.06052 -0.344852,0.610899 0.701311,1.825365 1.265781,1.817117 l 0,0 z m -2.687036,-2.957969 c 0.361652,-0.490247 -0.634723,0.249551 0,0 l 0,0 z m 1.331758,0.318583 c 1.685775,-0.222978 -0.429766,-0.725442 -0.34027,-0.01772 l 0.34027,0.01772 0,0 z M 12.13866,11.658379 c -1.187281,-1.549849 2.232528,0.260243 1.026003,-1.362609 -1.015313,-0.8076082 -1.990001,0.910544 -1.026003,1.362609 l 0,0 z m 15.230613,8.203144 c 0.54431,-0.964304 -2.246579,-1.300603 -0.366234,-0.341493 0.172884,0.05743 0.133787,0.40808 0.366234,0.341493 l 0,0 z" />
  <g
     style="fill:#000000"
     id="g3413"
     transform="matrix(0.28293155,0,0,0.28293155,40.35503,18)">
    <path
       inkscape:connector-curvature="0"
       id="path3415"
       d="m 53.107617,7.4945842 c -0.659174,2.6066398 -1.068567,6.9793688 -1.22196,13.1171498 0,1.206413 -0.543093,1.809619 -1.631352,1.809619 -1.089296,0 -1.846931,-0.52651 -2.276016,-1.575384 -1.165992,-2.837765 -2.270834,-4.817361 -3.323855,-5.947077 -1.242688,-1.319385 -2.894769,-2.117441 -4.955206,-2.388988 -2.214866,-0.351352 -7.732858,-0.525474 -16.555012,-0.525474 -2.020016,0 -3.343547,0.214543 -3.963336,0.643628 -0.388664,0.27051 -0.582478,0.854024 -0.582478,1.74847 l 0,26.409457 c 0,0.894445 0.562785,1.319385 1.68732,1.283109 3.4617,-0.04042 8.473911,-0.275692 15.040777,-0.700631 1.28311,-0.157539 2.149571,-0.574186 2.595239,-1.255126 0.449814,-0.679903 0.88719,-2.436664 1.31213,-5.275465 0.27051,-1.554656 1.185684,-2.157863 2.74034,-1.805474 1.320421,0.271547 1.887352,0.874753 1.692502,1.805474 -1.089296,5.287902 -1.441684,12.166737 -1.053021,20.639611 0.04146,1.008453 -0.59906,1.554656 -1.92259,1.632389 -1.089296,0.117117 -1.769199,-0.466397 -2.040745,-1.749506 -1.007418,-4.857782 -2.886478,-7.453021 -5.623709,-7.785717 -2.74034,-0.327514 -7.202202,-0.493344 -13.380405,-0.493344 -0.699595,0 -1.047838,0.250818 -1.047838,0.756599 l 0,26.235336 c 0,1.94332 0.716178,3.26685 2.153717,3.963336 1.129716,0.583514 3.558089,1.108988 7.28719,1.575385 1.907044,0.193813 2.74034,1.032291 2.510251,2.506105 -0.235271,1.283109 -1.94332,1.788891 -5.133474,1.517344 C 16.205268,82.895394 8.6061106,82.935815 2.6227584,83.753564 0.94994865,83.983653 0.11665311,83.30375 0.11665311,81.712819 c 0,-1.012599 0.83329554,-1.595077 2.50610529,-1.749506 3.8089068,-0.429085 5.7118056,-3.772632 5.7118056,-10.02753 l 0,-49.907563 c 0,-2.562073 -0.4570688,-4.534413 -1.3680971,-5.914947 C 6.0512928,12.732738 4.3504993,11.477613 1.8651227,10.352042 0.31046687,9.6524466 -0.27201086,8.7009972 0.11665311,7.4945842 0.31046687,6.7576774 0.62243448,6.3482846 1.0473737,6.2715883 c 0.388664,-0.1171174 1.4209555,-0.040421 3.088583,0.2342348 2.4501377,0.388664 8.2230933,0.5835142 17.3157573,0.5835142 10.729198,0 19.995984,-0.2352713 27.81072,-0.7006316 2.602494,-0.1575385 3.906332,0.057004 3.906332,0.6394818 0,0.1585749 -0.01969,0.3119676 -0.06115,0.4663967 l 0,0 z" />
    <path
       inkscape:connector-curvature="0"
       id="path3417"
       d="m 90.915239,81.502316 c 0,1.554656 -0.874753,2.234558 -2.623223,2.039708 -5.360453,-0.505781 -12.008162,-0.429085 -19.93587,0.231126 -1.595077,0.157538 -2.57451,0.117117 -2.946591,-0.112972 -0.368972,-0.235271 -0.551385,-0.874753 -0.551385,-1.927773 0,-0.930721 1.057166,-1.71634 3.174607,-2.359968 2.121587,-0.639481 3.177717,-2.554818 3.177717,-5.740826 l 0,-52.760874 c 0,-3.149733 -0.457069,-5.462024 -1.368097,-6.939984 -0.915174,-1.476923 -2.518543,-2.623223 -4.810106,-3.436826 -1.206412,-0.429085 -1.809619,-1.0322914 -1.809619,-1.8096193 0,-1.1659919 0.874753,-2.040745 2.623223,-2.6232227 C 68.489846,5.2060243 71.231223,3.8866397 74.068988,2.0967126 76.400972,0.69648583 77.878931,0 78.497684,0 c 1.437539,0 2.158899,0.9877247 2.158899,2.9714656 0,-0.1533927 -0.07773,1.7899271 -0.235271,5.8299595 C 80.30834,12.647644 80.267919,16.436858 80.30834,20.170105 l 0.230089,52.060243 c 0,2.372405 0.583514,4.093927 1.749506,5.162494 1.165992,1.068567 3.169425,1.77749 6.004081,2.125733 1.74847,0.193814 2.623223,0.854024 2.623223,1.983741 l 0,0 z" />
    <path
       inkscape:connector-curvature="0"
       id="path3419"
       d="m 143.64398,78.064453 c 0,0.817749 -1.48625,2.049037 -4.45771,3.700081 -2.97561,1.652081 -5.35631,2.478122 -7.14209,2.478122 -1.51838,0 -2.85746,-0.736907 -4.02345,-2.214867 -1.16599,-1.476923 -1.98478,-2.21383 -2.45014,-2.21383 -0.34824,0 -2.19414,0.797021 -5.53872,2.387952 -3.3394,1.595077 -6.70368,2.393133 -10.08453,2.393133 -3.18601,0 -5.85069,-0.934866 -7.98783,-2.797344 -2.33198,-2.061473 -3.497971,-4.858817 -3.497971,-8.397214 0,-6.724405 7.696581,-11.542802 23.088711,-14.457263 2.63981,-0.505782 3.98407,-1.575385 4.02034,-3.206737 l 0.11815,-3.732211 c 0.23424,-6.373052 -2.58383,-9.55906 -8.45421,-9.55906 -1.67178,0 -3.25442,1.493506 -4.7531,4.4857 -1.49351,2.99634 -3.64308,4.606963 -6.44146,4.842235 -3.18601,0.307822 -4.78109,-1.032292 -4.78109,-4.024486 0,-1.866623 2.37241,-4.040032 7.11307,-6.530591 4.97594,-2.602494 9.75806,-3.906332 14.34429,-3.906332 7.88729,0 11.79362,3.752939 11.71693,11.254672 l -0.23528,24.016324 c -0.0363,2.526834 1.03333,3.789214 3.20674,3.789214 0.42909,0 1.24684,-0.09639 2.4491,-0.291238 1.20745,-0.193814 1.90705,-0.291239 2.1019,-0.291239 1.12557,0 1.68835,0.760745 1.68835,2.274979 l 0,0 z M 125.68874,64.773182 c 0.0404,-0.972178 -0.18655,-1.615806 -0.67264,-1.923627 -0.48609,-0.310932 -1.25098,-0.372081 -2.29986,-0.177231 -9.36835,1.671773 -14.05201,4.724081 -14.05201,9.153814 0,4.469117 2.42837,6.703676 7.28719,6.703676 1.94332,0 3.94779,-0.367936 6.00408,-1.104842 2.41282,-0.85817 3.61509,-1.886316 3.61509,-3.092729 l 0.11815,-9.559061 z" />
    <path
       inkscape:connector-curvature="0"
       id="path3421"
       d="m 186.98779,71.356632 c 0,4.120874 -1.58782,7.397052 -4.7531,9.825425 -3.16632,2.429409 -7.49033,3.644113 -12.97205,3.644113 -3.65137,0 -7.30792,-0.388664 -10.95929,-1.165992 -3.14973,-0.700631 -4.97593,-1.340113 -5.48171,-1.923627 -0.31197,-0.546203 -0.46537,-3.205701 -0.46537,-7.987822 0,-2.060437 0.46537,-3.129004 1.40023,-3.205701 0.93176,-0.118153 1.72878,0.388664 2.38899,1.514235 2.91446,5.093053 7.61885,7.639579 14.10902,7.639579 5.47757,0 8.21895,-1.907044 8.21895,-5.716988 0,-1.667627 -0.61979,-3.06889 -1.86663,-4.194461 -1.36084,-1.28311 -3.99961,-2.780761 -7.92667,-4.489846 -5.67657,-2.525798 -9.46578,-4.740664 -11.36868,-6.647709 -2.06147,-2.020016 -3.08962,-4.740664 -3.08962,-8.161943 0,-4.198608 1.61166,-7.461312 4.83809,-9.793296 2.9922,-2.255287 6.99595,-3.380858 12.00816,-3.380858 3.14974,0 6.02481,0.250818 8.63145,0.757635 2.79838,0.505782 4.25561,1.125571 4.37273,1.865588 0.30782,2.174445 0.95145,5.324178 1.92363,9.446089 0.11712,0.501635 -0.43012,0.911028 -1.63239,1.221959 -1.28311,0.271547 -2.13713,0.057 -2.56622,-0.639482 -3.06889,-5.016356 -6.95553,-7.522461 -11.65992,-7.522461 -5.32417,0 -7.98782,1.709085 -7.98782,5.130364 0,1.906008 0.72033,3.420243 2.15786,4.545814 1.28311,0.972178 4.295,2.490559 9.0367,4.550996 4.9749,2.137134 8.35576,4.060761 10.14568,5.76881 2.33199,2.214866 3.49798,5.190477 3.49798,8.919579 l 0,0 z" />
    <path
       inkscape:connector-curvature="0"
       id="path3423"
       d="m 255.57506,81.55932 c 0,1.359806 -0.91517,2.081166 -2.74138,2.157862 -2.72064,0.04042 -6.27977,0.234235 -10.66804,0.582478 -2.17756,0.429085 -3.73222,0.158575 -4.66397,-0.813603 -6.14193,-6.607288 -11.3521,-13.526543 -15.6274,-20.756729 -0.34825,-0.61979 -0.79391,-0.931757 -1.34012,-0.931757 -0.66021,0 -1.80547,0.583514 -3.43682,1.749506 -1.83035,1.008453 -2.74138,2.449101 -2.74138,4.311579 0,1.32353 0.0363,3.226429 0.11712,5.716988 0.0777,2.485376 0.69648,4.116729 1.86248,4.894056 0.81775,0.547239 2.7051,0.972179 5.65583,1.284146 1.82621,0.234235 2.74138,0.914138 2.74138,2.039709 0,0.895481 -0.14614,1.449975 -0.43738,1.660372 -0.29123,0.214543 -1.06131,0.263255 -2.304,0.146138 -3.88664,-0.348243 -10.4535,-0.154429 -19.7037,0.582477 -2.33199,0.194851 -3.59541,-0.09743 -3.79026,-0.874753 -0.0767,-0.27051 -0.11711,-0.659174 -0.11711,-1.165991 0,-1.202268 1.18672,-2.117442 3.55912,-2.736195 2.13714,-0.547239 3.2057,-3.053344 3.2057,-7.522461 l 0,-50.955401 c 0,-3.186008 -0.31093,-5.400875 -0.93486,-6.643563 -0.85403,-1.595077 -2.64395,-2.838801 -5.3646,-3.733247 -1.27897,-0.424939 -1.92259,-1.0281456 -1.92259,-1.8054735 0,-1.1297166 0.91517,-2.0044697 2.74034,-2.6232227 2.91549,-0.9721781 5.69211,-2.3122915 8.33606,-4.0244858 C 210.13765,0.70063158 211.46118,0 211.96282,0 c 1.59611,0 2.39313,1.0084534 2.39313,3.0326154 0,-0.2746559 -0.0197,1.652081 -0.0611,5.7698461 -0.0363,2.8377655 -0.056,6.6477085 -0.056,11.4287935 l 0.11712,36.493992 c 0,1.011563 0.27155,1.514235 0.8136,1.514235 0.58352,0 1.47796,-0.502672 2.68438,-1.514235 3.22643,-2.526834 7.1908,-5.82996 11.89104,-9.911449 0.93487,-0.971142 1.40023,-1.74847 1.40023,-2.331984 0,-1.047838 -1.57435,-1.788891 -4.71994,-2.21383 -1.36084,-0.158575 -2.00447,-0.915174 -1.92777,-2.276016 0.11712,-1.359806 0.79806,-1.94332 2.04074,-1.74847 2.80149,0.388664 6.88298,0.603207 12.2424,0.643628 3.73325,0.03627 7.44577,0.057 11.13859,0.057 1.20227,0.04042 1.80548,0.756599 1.80548,2.157862 0,1.319384 -0.95145,2.039708 -2.85435,2.157862 -2.99634,0.112972 -5.81442,0.792875 -8.45318,2.039709 -3.69283,1.668664 -7.64062,4.603854 -11.83819,8.802461 -0.30782,0.234235 -0.4664,0.525474 -0.4664,0.873717 0,0.543093 0.66021,1.846931 1.98478,3.907368 4.85778,7.384616 9.44505,12.959612 13.75663,16.732243 2.76107,2.369296 5.34387,3.55498 7.75255,3.55498 1.78993,0 2.89892,0.125409 3.32386,0.380372 0.43012,0.251855 0.64466,0.923466 0.64466,2.008616 l 0,0 z" />
  </g>
</svg>
