<?xml version="1.0" encoding="UTF-8" standalone="no"?>
<!-- Generator: Adobe Illustrator 16.2.1, SVG Export Plug-In . SVG Version: 6.00 Build 0)  -->

<svg
   xmlns:dc="http://purl.org/dc/elements/1.1/"
   xmlns:cc="http://creativecommons.org/ns#"
   xmlns:rdf="http://www.w3.org/1999/02/22-rdf-syntax-ns#"
   xmlns:svg="http://www.w3.org/2000/svg"
   xmlns="http://www.w3.org/2000/svg"
   xmlns:sodipodi="http://sodipodi.sourceforge.net/DTD/sodipodi-0.dtd"
   xmlns:inkscape="http://www.inkscape.org/namespaces/inkscape"
   version="1.1"
   id="Layer_1"
   x="0px"
   y="0px"
   width="120"
   height="60"
   viewBox="0 0 120 60.000001"
   enable-background="new 0 0 595.279 227.273"
   xml:space="preserve"
   sodipodi:docname="haxe-ar21.svg"
   inkscape:version="0.92.3 (2405546, 2018-03-11)"><metadata
   id="metadata29"><rdf:RDF><cc:Work
       rdf:about=""><dc:format>image/svg+xml</dc:format><dc:type
         rdf:resource="http://purl.org/dc/dcmitype/StillImage" /><dc:title></dc:title></cc:Work></rdf:RDF></metadata><defs
   id="defs27" /><sodipodi:namedview
   pagecolor="#ffffff"
   bordercolor="#666666"
   borderopacity="1"
   objecttolerance="10"
   gridtolerance="10"
   guidetolerance="10"
   inkscape:pageopacity="0"
   inkscape:pageshadow="2"
   inkscape:window-width="1920"
   inkscape:window-height="1001"
   id="namedview25"
   showgrid="false"
   inkscape:zoom="4.555847"
   inkscape:cx="54.521932"
   inkscape:cy="31.297355"
   inkscape:window-x="-9"
   inkscape:window-y="-9"
   inkscape:window-maximized="1"
   inkscape:current-layer="Layer_1" />
<g
   id="background"
   transform="translate(0,-167.27299)">
</g>
<g
   id="Layer_1_1_"
   transform="matrix(0.26827925,0,0,0.26827925,-19.850652,-0.4862605)">
	<g
   id="layer1_1_"
   transform="translate(0,-1031.3622)">
		<g
   id="g3332_1_"
   transform="matrix(0.24008588,0,0,0.24008588,-2.2890548,790.44159)">
			<path
   id="path24_1_"
   d="m 658.269,1326.858 -112,-10.238 -87.916,-39.74 h 99.956 l 99.96,49.929"
   inkscape:connector-curvature="0"
   style="fill:#fbc712" />
			<path
   id="path26_1_"
   d="m 658.269,1326.858 118.699,-13.748 81.225,-36.23 h -99.968 l -99.956,49.929"
   inkscape:connector-curvature="0"
   style="fill:#fbc712" />
			<path
   id="path28_1_"
   d="m 658.269,1626.73 99.956,11.898 99.968,38.076 h -99.968 l -99.956,-50.031"
   inkscape:connector-curvature="0"
   style="fill:#f6871f" />
			<path
   id="path30_1_"
   d="m 658.269,1626.73 -99.96,10.742 -99.956,39.232 h 99.956 l 99.96,-50.031"
   inkscape:connector-curvature="0"
   style="fill:#f15e22" />
			<path
   id="path32_1_"
   d="m 508.331,1476.792 -14.753,117.361 -35.225,82.551 v -99.952 l 49.978,-100.017"
   inkscape:connector-curvature="0"
   style="fill:#fcee23" />
			<path
   id="path34_1_"
   d="m 508.331,1476.792 -11.239,-107.477 -38.739,-92.435 v 99.956 l 49.978,99.899"
   inkscape:connector-curvature="0"
   style="fill:#fcee23" />
			<path
   id="path36_1_"
   d="m 808.207,1476.792 14.424,-108.652 35.555,-91.26 v 99.956 l -49.978,99.899"
   inkscape:connector-curvature="0"
   style="fill:#f04923" />
			<path
   id="path38_1_"
   d="m 808.207,1476.792 9.75,110.332 40.228,89.58 v -99.952 l -49.978,-100.017"
   inkscape:connector-curvature="0"
   style="fill:#f04923" />
			<path
   id="path16_1_"
   d="m 458.353,1276.88 199.916,49.978 v 149.849 H 508.331 l -49.978,-199.725"
   inkscape:connector-curvature="0"
   style="fill:#f8b218" />
			<path
   id="path22_1_"
   d="m 458.353,1676.704 49.978,-199.912 149.938,-0.085 v 149.91 l -199.916,49.885"
   inkscape:connector-curvature="0"
   style="fill:#f89d1c" />
			<path
   id="path18_1_"
   d="m 858.194,1276.88 -49.986,199.908 -149.938,-0.081 v -149.861 l 199.924,-49.864"
   inkscape:connector-curvature="0"
   style="fill:#f37321" />
			<path
   id="path20_1_"
   d="M 858.194,1676.704 658.27,1626.73 v -150.024 l 149.938,0.085 49.986,199.709"
   inkscape:connector-curvature="0"
   style="fill:#f15e22" />
			<path
   id="path14_1_"
   d="M 658.269,1326.858 508.331,1476.792 658.269,1626.73 808.207,1476.788 658.269,1326.809"
   inkscape:connector-curvature="0"
   style="fill:#f6871f" />
		</g>
		<g
   id="g3347_1_"
   transform="matrix(0.63314038,0,0,0.63314038,21.66293,338.04867)">
			<path
   id="path40_1_"
   d="m 335.963,1223.986 h 31.149 v 35.098 h 29.158 v -35.098 h 31.149 V 1325.06 H 396.27 V 1285 h -29.158 v 40.061 h -31.149 v -101.075"
   inkscape:connector-curvature="0" />
			<path
   id="path42_1_"
   d="m 495.957,1288.954 -9.074,-31.132 h -0.281 l -9.76,31.132 z m -24.486,-64.968 h 30.416 l 36.817,101.074 h -32.278 l -4.245,-14.426 h -32.136 l -4.527,14.426 h -31.3 l 37.252,-100.926"
   inkscape:connector-curvature="0" />
			<path
   id="path44_1_"
   d="m 572.414,1271.267 -33.273,-47.284 h 36.521 l 15.287,27.427 15.018,-27.459 H 640.5 l -32.404,47.568 36.085,53.514 h -37.51 l -17.273,-30.163 -17.838,30.163 h -35.676 l 36.53,-53.818"
   inkscape:connector-curvature="0" />
			<path
   id="path46_1_"
   d="m 650.57,1223.986 h 83.66 v 25.897 h -52.519 v 12.606 h 47.711 v 24.082 h -47.711 v 12.592 h 54.085 v 25.903 H 650.57 v -101.08"
   inkscape:connector-curvature="0" />
		</g>
	</g>
</g>
</svg>