<svg xmlns="http://www.w3.org/2000/svg" viewBox="0 0 32 32" width="64" height="64"><style><![CDATA[.E{fill:none}.F{stroke:#231f20}.G{stroke-width:1.101}.H{fill:#bed63d}]]></style><g transform="matrix(.585426 0 0 .585426 5.993001 13.606268)"><path d="M8.3 9.3c-3.1 1.1-3.6 2.3-3.4 4.1s2.3 2.6 4.4 2.4" fill="#fff"/><path d="M8.3 9.3c-3.1 1.1-3.6 2.3-3.4 4.1s2.3 2.6 4.4 2.4" class="E F G"/><path d="M4.1-5.6c6.4-2.9 14.4-3.6 19.9.7s7.4 15 7.4 17.6c0 .6-4.4 1.1-5.7 2.1-1.6 1.4 2.8 6.7 2.8 9.2 0 0 .5 3.5-2.8 4.3-3.7.8-6.3-2.1-9.3 0-.5.4-2 1.4-3.7 2.3L4.1-5.6" fill="#fff"/><path d="M4.1-5.6c6.4-2.9 14.4-3.6 19.9.7s7.4 15 7.4 17.6c0 .6-4.4 1.1-5.7 2.1-1.6 1.4 2.8 6.7 2.8 9.2 0 0 .5 3.5-2.8 4.3-3.7.8-6.3-2.1-9.3 0-.5.4-2 1.4-3.7 2.3L4.1-5.6z" class="E F G"/><path d="M15.6-12.9c.3.8.1 1.5-.4 2-.3.2-.8.2-1 .6-.1.5.2.8.7 1 1.1.4 2.1-.3 2.5-1 1.4-2.4-1.3-4.6-1.6-7-.2-1.6 1.2-3.2 1.2-4.7 0-.5-1.6-.6-2.1.3-.8 1.7-2.1 3.6-1.2 5.2.6 1.1 1.4 2.2 1.9 3.6m4.9 0c.2.9 0 1.6-.3 2.4-.4 1.1.9 1.5 1.5.9 2.5-2.7 1.3-4.2.3-5.6-1-1.5-1.2-1.8-1.7-2.9-.2-.4-.9-1.5.3-2.7.5-.4.4-1.6-.1-2.1-1.7-1.2-2.2 1-2.8 2.9-.8 2.5 2.1 4.5 2.8 7.1M3.7-10.7c.6.7.6 1.4.3 2-.2.3-.6 1-.7 1.4.1.5.4.1.9.1 1.1.1 1.9-.9 2.1-1.8.5-2.7-2.7-4-3.7-6.2-.7-1.4.2-3.3-.3-4.7-.2-.5-1.7 0-1.9 1-.3 1.9-.9 4 .5 5.3.8 1 1.9 1.8 2.8 2.9m4.6-2.8c.3.8.1 1.6-.1 2.4-.3 1.1 1.3 1.1 1.9.4 1.3-1.7.5-3.8-.3-5.3-.9-1.6-2.2-3-2.3-4.7 0-.5 1-.5 1.5-.7.6-.2 1.8-.8 1.2-1.2-1.9-1.1-4.6.2-5.1 2.2-.6 2.5 2.4 4.4 3.2 6.9" fill="#f48120"/><path d="M17.6 16.5c2.8 4 4.4 6.4 10.1 7.2" stroke-linecap="round" class="E F G"/><path d="M6-4.1c.4-.3 1.5-3.8 1.5-4-.1-.3 1.5 3.4 1.6 3.6.1.1 3.2.3 3.4.6s-1.9.9-2.2 1.3c-.3.3 3.1 4.3 2.9 4.6S8.7-.7 8.5-.5c-.3.2-3.3 3.3-3.4 3.3s.9-4 .7-4.3c-.1-.3-2.3.2-2.5-.2C3.2-2.1 6-4.1 6-4.1" fill="#ffd420"/><path d="M7.2-.2C6.6.3 6.3 1 5.7 1.6c-.1.1-.1-.1-.1-.2.2-.8.3-1.5.4-2.3l.3-.8c.1-.2.1-.4 0-.6-.2-.2-.5 0-.7.1-.6.3-1.2.3-1.8.1.2-.3.5-.4.8-.6s.7-.3 1-.6c.2-.1.4-.1.4-.2.2-.2.4-.4.6-.7.6-.9.6-2.1 1-3.1.5 1 .7 2.2 1.2 3.4 0 .2.3-.1.4.2.4-.3.9-.2 1.3-.2.2 0 .6-.1.8.2-.5.3-1 .6-1.6.8-.2.1-.4.5-.2.8.1.2.3.3.4.4.8.7 1.4 1.6 2 2.5-.2.2-.4 0-.5-.2-.9-.7-1.8-1-2.7-1.8-.4-.5-.9.6-1.5 1m0 1.2c.3-.4.7-1 1.1-.9 1.2.1 2.2 1.1 3.2 1.8.6.4 1.1 1 1.8.9.2 0 .2-.3.4-.5.1-.2-.1-.4-.1-.4-.6-.5-.7-1.3-1.1-1.8l-1.7-2.3c.7-.6 1.5-.7 2.3-1 .2-.1.3-.4.2-.6 0-.2-.2-.3-.2-.3-.6-.1-1.2-.2-1.7-.4-.7-.1-1.4.1-2.1-.3-.3-.1-.3-.6-.4-.9-.3-1.2-.7-2.4-1.2-3.4-.1-.2-.4-.3-.6-.1-.1-.2-.2.1-.1.5.2 1.2-.3 2.4-.6 3.5a.78.78 0 0 1-.4.4v.2c-.6.5-1.1.8-1.8 1.2-.6.3-1.1.9-1.6 1.4-.3.1-.4.8-.1.8 1 .3 1.9.2 2.9.1 0 1.2-.3 2.3-.7 3.3l-.3.6c-.2.4.2.8.4.7C5.8 2.9 6.5 2 7.2 1z" fill="#231f20"/><path d="M12.6 5.7c-5.3.2-6.9 1.9-7.8 3s-.8 3.4.2 3.6" class="E F G"/><path d="M17.9 9.3c2.6 0 4.8-1.7 4.8-3.9 0-2.1-2.1-3.9-4.8-3.9s-4.8 1.7-4.8 3.9 2.1 3.9 4.8 3.9" class="H"/><ellipse ry="3.9" rx="4.8" cy="5.4" cx="17.9" class="E F G"/><path d="M30.3 8.4c3 0 5.4-1.2 5.4-2.8 0-1.5-2.4-2.8-5.4-2.8s-5.4 1.1-5.4 2.8c0 1.8 2.4 2.8 5.4 2.8" class="H"/><path d="M30.3 8.4c3 0 5.4-1.2 5.4-2.8 0-1.5-2.4-2.8-5.4-2.8s-5.4 1.1-5.4 2.8c0 1.8 2.4 2.8 5.4 2.8z" class="E F G"/><path d="M22.7 5.4s2.2-.7 2.2.2" class="H"/><path d="M22.7 5.4s2.2-.7 2.2.2" class="E F G"/></g></svg>