<svg xmlns="http://www.w3.org/2000/svg" width="64" height="64"><defs><linearGradient y2="20.199" x2="56.98" y1="25.609" x1="51.658" gradientUnits="userSpaceOnUse" id="A"><stop offset="0" stop-color="#fff"/><stop offset=".607" stop-color="#1e1e1e"/><stop offset=".908"/><stop offset="1"/></linearGradient><linearGradient y2="43.713" x2="56.973" y1="38.303" x1="51.651" gradientUnits="userSpaceOnUse" id="B"><stop offset="0" stop-color="#fff"/><stop offset=".607" stop-color="#1e1e1e"/><stop offset=".908"/><stop offset="1"/></linearGradient></defs><linearGradient id="C" gradientUnits="userSpaceOnUse" x1="24.689" y1="32.104" x2="24.689" y2="59.339"><stop offset="0" stop-color="#fbb713"/><stop offset="1" stop-color="#f38020"/></linearGradient><radialGradient id="D" cx="9920.917" cy="9503.042" r="100.874" gradientTransform="matrix(0,0.58205507,0.58205507,0,-5532.7273,-5742.2254)" gradientUnits="userSpaceOnUse"><stop offset=".242" stop-color="#ef5a22"/><stop offset="1" stop-color="#d61921"/></radialGradient><radialGradient id="E" cx="-2693.892" cy="3144.481" r="20.015" gradientTransform="matrix(0,-0.58205507,-0.58205507,0,1854.0049,-1543.5302)" gradientUnits="userSpaceOnUse"><stop offset="0" stop-color="#fff"/><stop offset="1" stop-color="#d61921"/></radialGradient><radialGradient id="F" cx="-24.919" cy="63.433" r="55.203" gradientTransform="matrix(0.58205507,0,0,-0.58205507,33.716056,65.386582)" gradientUnits="userSpaceOnUse"><stop offset="0" stop-color="#e14f1f"/><stop offset="1" stop-color="#b91318"/></radialGradient><radialGradient id="G" cx="-5584.252" cy="9506.78" r="60.769" gradientTransform="matrix(0,-0.58205507,0.58205507,0,-5532.7271,-3209.0847)" gradientUnits="userSpaceOnUse"><stop offset="0" stop-color="#f16f21"/><stop offset="1" stop-color="#9c0b0f"/></radialGradient><radialGradient id="H" cx="-2700.74" cy="3101.938" r="29.104" gradientTransform="matrix(0,-0.58205507,-0.58205507,0,1854.0049,-1543.5302)" gradientUnits="userSpaceOnUse"><stop offset="0" stop-color="#5c5d54"/><stop offset=".189" stop-color="#45463f"/><stop offset=".541" stop-color="#20201d"/><stop offset=".823" stop-color="#080908"/><stop offset="1"/></radialGradient><radialGradient id="I" cx="9443.171" cy="3101.937" r="29.103" gradientTransform="matrix(0,0.58205507,-0.58205507,0,1854.0044,-5460.3979)" gradientUnits="userSpaceOnUse"><stop offset="0" stop-color="#5c5d54"/><stop offset=".481" stop-color="#32322e"/><stop offset="1"/></radialGradient><linearGradient id="J" gradientUnits="userSpaceOnUse" x1="24.543" y1="8.348" x2="25.224" y2="33.174"><stop offset="0" stop-color="#25a8df"/><stop offset=".25" stop-color="#24a5dc"/><stop offset=".426" stop-color="#209dd3"/><stop offset=".58" stop-color="#1a8ec3"/><stop offset=".721" stop-color="#1179ad"/><stop offset=".851" stop-color="#055f91"/><stop offset=".899" stop-color="#005385"/></linearGradient><radialGradient id="K" cx="-13.232" cy="83.884" r="49.535" gradientTransform="matrix(0.58205507,0,0,-0.58205507,33.716056,65.386582)" gradientUnits="userSpaceOnUse"><stop offset=".01" stop-color="#146e9f"/><stop offset=".295" stop-color="#166b9a"/><stop offset=".648" stop-color="#1b618a"/><stop offset="1" stop-color="#235374"/></radialGradient><linearGradient id="L" gradientUnits="userSpaceOnUse" x1="24.344" y1="39.26" x2="25.195" y2="59.666"><stop offset=".003" stop-color="#d18713"/><stop offset="1" stop-color="#cd6719"/></linearGradient><linearGradient id="M" gradientUnits="userSpaceOnUse" x1="10.661" y1="14.634" x2="8.79" y2="27.387"><stop offset="0" stop-color="#1b88c4"/><stop offset=".366" stop-color="#1a86c1"/><stop offset=".624" stop-color="#177eb8"/><stop offset=".848" stop-color="#1370a8"/><stop offset="1" stop-color="#0e6399"/></linearGradient><g transform="matrix(1.061663 0 0 1.061663 -1.887108 -2.101863)"><path d="M40.364 53.444C42.95 52.08 45.32 50.642 47.548 49c-6.97.503-15.59-1.365-24.067-5.747-5.963-3.09-10.992-6.97-14.727-11.135C2.576 39.004.062 46.62 3.007 52.223c4.74 8.98 21.41 9.555 37.357 1.22z" fill="url(#C)"/><path d="M61.27 32.107c-1.796-5.747-6.68-11.854-13.722-16.954-6.97-.503-15.59 1.365-24.067 5.747-5.963 3.09-10.992 6.97-14.727 11.135 3.664 4.167 8.693 8.046 14.727 11.135 8.405 4.382 17.098 6.25 24.067 5.747 7.04-4.957 11.926-11.063 13.722-16.81z" fill="url(#D)"/><path d="M23.482 22.41c4.885-2.514 9.914-4.24 14.8-5.532-4.74.862-9.77 2.658-14.584 5.1-5.46 2.874-10.992 5.963-14.727 9.986 3.95-3.808 9.267-6.753 14.512-9.555z" fill="url(#E)"/><path d="M61.27 32.107c-3.233-9.7-12.93-16.38-13.722-16.954-6.97-.503-15.59 1.365-24.067 5.747-5.46 2.874-10.2 6.394-13.793 10.13 3.377-3.233 7.4-6.466 12.285-8.693C52.3 8.543 47.836 34.622 61.27 32.107z" fill="url(#F)"/><path d="M22.045 41.806c-4.813-2.514-8.98-5.46-12.285-8.693 3.592 3.736 8.262 7.256 13.793 10.13C31.96 47.625 40.652 49.493 47.62 49c.8-.575 4.74-6.897 8.118-11.35-8.765 12.07-26.15 8.046-33.693 4.167z" fill="url(#G)"/><path d="M47.764 15.512c1.437 3.1 3.664 6.68 5.963 9.555 2.73 3.448 5.173 5.963 7.543 7.04-.647-1.365-2.73-3.88-4.24-7.04-2.155-4.526-2.73-8.836-9.267-9.555zm9.266 23.635c1.5-3.16 3.592-5.604 4.24-7.04-2.37 1.078-4.813 3.592-7.543 7.04-2.3 2.874-4.526 6.466-5.963 9.555 6.538-.718 7.112-4.957 9.267-9.555z" fill="#540000"/><path d="M47.548 15.224c1.437 2.874 3.664 6.178 5.89 8.765 2.658 3.16 4.167 4.454 7.83 8.118 1.15-3.592 1.078-6.97-.43-9.914-2.227-4.167-7.04-6.538-13.29-6.97z" fill="url(#H)"/><path d="M60.84 42.02c1.51-2.874 1.58-6.322.43-9.914-3.664 3.664-5.173 5.03-7.83 8.118-2.227 2.586-4.454 5.89-5.89 8.765 6.25-.43 11.064-2.802 13.29-6.97z" fill="url(#I)"/><path d="M23.554 20.972c8.405-4.382 17.098-6.25 24.067-5.747-2.227-1.58-4.598-3.09-7.184-4.454C24.416 2.51 7.75 3.012 3.08 11.992.133 17.595 2.648 25.2 8.826 32.107c3.664-4.095 8.693-8.046 14.727-11.135z" fill="url(#J)"/><path d="M19.746 4.95C38.568 7.897 39.43 13.428 34.904 15.01s-6.753 2.586-11.566 5.316c-5.89 3.377-10.776 7.47-14.44 11.782 3.664-4.095 8.693-8.046 14.656-11.135 8.405-4.382 17.098-6.25 24.067-5.747C39.718 9.477 29.373 5.24 19.746 4.95z" fill="url(#K)"/><path d="M24.775 46.116c5.604 3.736 8.765 10.345-3.377 11.638-8.55.934-15.59-1.652-18.32-6.97C2.36 49.42 2 47.912 1.858 46.332c-.144 2.083.287 4.095 1.22 5.89 3.88 7.4 15.95 9.052 28.952 4.742.216-.072.36-.144.575-.216.144-.072.287-.072.43-.144.862-.287 1.796-.647 2.586-1.006a69.15 69.15 0 0 0 4.741-2.155C42.95 52.08 45.32 50.642 47.548 49c-.718.072-1.437.072-2.227.072.43.36-.287.43-.718.43-5.604.144-12.93-1.437-19.9-4.885-5.316-2.658-9.842-6.035-13.22-9.627 3.377 3.88 5.747 6.178 13.29 11.135z" fill="url(#L)"/><path d="M6.958 28.515s-4.74-5.604-4.167-11.207c.934-9.483 9.986-10.058 11.7-9.986 1.22.072 5.82 0 3.808 4.095-2.514 5.173-9.34 5.604-10.992 9.267-1.724 3.736-.36 7.83-.36 7.83z" fill="url(#M)"/><path d="M61.486 27.653c0 2.155-1.293 3.808-7.687-3.88-2.012-2.37-4.023-5.388-5.388-8.046 5.82.647 9.986 3.017 11.926 6.897.718 1.437 1.15 3.16 1.15 5.03z" fill="url(#A)"/><path d="M60.767 22.265c-1.006-2.012-2.658-3.664-4.742-4.813-2.083-1.22-4.67-2.012-7.615-2.3l-.934-.144.43.862a50.77 50.77 0 0 0 5.46 8.19c1.796 2.155 3.233 3.592 4.3 4.526 1.15.934 1.94 1.293 2.658 1.365.287 0 .575-.072.8-.216.36-.216.503-.575.647-.934s.144-.718.144-1.15c0-2.012-.36-3.808-1.15-5.388zm0 6.322c-.072.072-.144.144-.144.216-.072 0-.144.072-.216.072-.287 0-1.006-.287-2.012-1.078-1.006-.862-2.37-2.227-4.167-4.382-1.724-2.083-3.52-4.67-4.813-7.112 2.37.36 4.526 1.006 6.25 2.012 1.94 1.15 3.377 2.586 4.3 4.382.718 1.437 1.078 3.09 1.078 4.813-.144.43-.216.862-.287 1.078z"/><path d="M61.486 36.274c0-2.155-1.293-3.808-7.687 3.88-2.012 2.37-4.023 5.388-5.388 8.046 5.82-.647 9.986-3.017 11.926-6.897.718-1.51 1.15-3.16 1.15-5.03z" fill="url(#B)"/><path d="M61.7 34.837c-.144-.216-.287-.43-.503-.575s-.503-.216-.8-.216c-.718 0-1.58.43-2.658 1.365-1.15.934-2.514 2.37-4.3 4.526a50.77 50.77 0 0 0-5.46 8.19l-.43.862.934-.072c2.945-.287 5.532-1.078 7.615-2.3s3.736-2.802 4.74-4.813c.8-1.58 1.22-3.377 1.22-5.316-.072-.718-.144-1.22-.36-1.652zm-1.868 6.25c-.934 1.796-2.37 3.305-4.3 4.382-1.724 1.006-3.808 1.652-6.25 2.012 1.365-2.37 3.09-5.03 4.813-7.112 1.796-2.155 3.16-3.52 4.167-4.382s1.724-1.15 2.012-1.078c.144 0 .216 0 .216.072.072.072.144.144.216.36s.072.503.072.862c.216 1.868-.216 3.448-.934 4.885z"/></g></svg>