<?xml version="1.0" encoding="utf-8"?>
<!-- Generator: Adobe Illustrator 24.0.1, SVG Export Plug-In . SVG Version: 6.00 Build 0)  -->
<svg version="1.1" id="Layer_1" xmlns="http://www.w3.org/2000/svg" xmlns:xlink="http://www.w3.org/1999/xlink" x="0px" y="0px"
	 viewBox="0 0 367 270" width="120" height="60" style="enable-background:new 0 0 367 270;" xml:space="preserve">
<style type="text/css">
	.st0{fill:none;}
	.st1{fill:#0D2192;}
	.st2{opacity:8.000000e-02;fill:#FFFFFF;enable-background:new    ;}
</style>
<title>Artboard</title>
<desc>Created with Sketch.</desc>
<g>
	<path class="st0" d="M46.3,138.2c-5.4,0-9.8,2-13.2,6.1c-2.8,3.3-4.2,7-4.2,11.2c0,4.2,1.4,8,4.2,11.2c3.4,4,7.8,6.1,13.2,6.1
		c4.9,0,9-1.7,12.3-5c3.4-3.3,5-7.4,5-12.3c0-4.8-1.7-8.9-5.1-12.2C55.2,139.8,51.2,138.2,46.3,138.2z"/>
	<path class="st0" d="M147.2,138.2c-5.4,0-9.8,2-13.2,6.1c-2.8,3.3-4.2,7-4.2,11.2c0,4.2,1.4,8,4.2,11.2c3.4,4,7.8,6.1,13.2,6.1
		c4.9,0,9-1.7,12.3-5c3.4-3.3,5-7.4,5-12.3c0-4.8-1.7-8.9-5.1-12.2C156.1,139.8,152,138.2,147.2,138.2z"/>
	<path class="st0" d="M249.2,138.2c-4.9,0-9,1.7-12.3,5c-3.4,3.3-5,7.4-5,12.3c0,4.8,1.7,8.9,5.1,12.3c3.4,3.4,7.5,5,12.3,5
		c5.4,0,9.8-2,13.2-6.1c2.8-3.3,4.2-7,4.2-11.2c0-4.3-1.4-8.1-4.1-11.2C259,140.2,254.6,138.2,249.2,138.2z"/>
	<path class="st1" d="M62.9,124.9c-2.9-3-5.7-5.2-8.4-6.5c-4.8-2.3-9.8-3.4-15.2-3.4c-9.3,0-17.5,3.1-24.7,9.3
		C5.5,132,1,142.4,1,155.4c0,12.8,4.4,23.1,13.2,30.8c7.4,6.5,15.8,9.8,25.2,9.8c5.8,0,11.1-1.3,15.7-3.8c2.6-1.5,5.2-3.8,7.8-7v8.4
		h26.9V70.4H62.9V124.9z M58.7,167.8c-3.4,3.3-7.5,5-12.3,5c-5.4,0-9.8-2-13.2-6.1c-2.8-3.3-4.2-7-4.2-11.2c0-4.2,1.4-8,4.2-11.2
		c3.4-4,7.8-6.1,13.2-6.1c4.8,0,8.9,1.7,12.3,5c3.4,3.4,5.1,7.4,5.1,12.2C63.7,160.3,62,164.4,58.7,167.8z"/>
	<path class="st1" d="M163.8,124.9c-2.9-3-5.7-5.2-8.5-6.5c-4.8-2.3-9.8-3.4-15.2-3.4c-9.3,0-17.5,3.1-24.7,9.3
		c-9,7.8-13.5,18.1-13.5,31.1c0,12.8,4.4,23.1,13.2,30.8c7.4,6.5,15.8,9.8,25.2,9.8c5.8,0,11.1-1.3,15.7-3.8c2.6-1.5,5.2-3.8,7.8-7
		v8.4h26.9v-76.1h-26.9V124.9z M159.5,167.8c-3.4,3.3-7.5,5-12.3,5c-5.4,0-9.8-2-13.2-6.1c-2.8-3.3-4.2-7-4.2-11.2
		c0-4.2,1.4-8,4.2-11.2c3.4-4,7.8-6.1,13.2-6.1c4.8,0,8.9,1.7,12.3,5c3.4,3.4,5.1,7.4,5.1,12.2C164.6,160.3,162.9,164.4,159.5,167.8
		z"/>
	<path class="st1" d="M281.3,124.7c-7.4-6.5-15.8-9.8-25.2-9.8c-5.9,0-11.1,1.3-15.7,3.9c-2.8,1.5-5.4,3.9-7.8,7.1v-8.5h-26.9v75.9
		l-2.5,64.3l15.9,11.1l15.9-11.1l-2.3-62.9V186c2.9,3,5.7,5.2,8.5,6.5c4.8,2.3,9.8,3.4,15.2,3.4c9.3,0,17.5-3.1,24.7-9.3
		c9-7.8,13.5-18.1,13.5-31.2C294.5,142.8,290.1,132.5,281.3,124.7z M262.4,166.7c-3.4,4-7.8,6.1-13.2,6.1c-4.8,0-8.9-1.7-12.3-5
		c-3.4-3.4-5.1-7.5-5.1-12.3c0-4.9,1.7-9,5-12.3c3.4-3.3,7.5-5,12.3-5c5.4,0,9.8,2,13.3,6.1c2.7,3.2,4.1,6.9,4.1,11.2
		C266.6,159.7,265.2,163.4,262.4,166.7z"/>
	<path class="st1" d="M358.4,116.4c-6.1,0-11.3,1.3-15.7,3.9c-3.3,2-6.3,5.2-9.2,9.6v-12.5h-26.9v76.1h26.9V161
		c0-4.4,0.5-8,1.5-10.6c2.6-7.2,8.4-10.8,17.2-10.8c3.9,0,7.7,0.9,11.5,2.7v-25.7C361.6,116.4,359.8,116.4,358.4,116.4z"/>
	<path class="st2" d="M146.8,2.3h-2v2C144.8,3.2,145.7,2.3,146.8,2.3z"/>
	<path class="st1" d="M163.8,69.9v17.3h111.1c2,0,3.7-1.7,3.7-3.7v-9.9c0-2.1-1.7-3.7-3.7-3.7h-27.4V4.3c0-1.1-0.9-2-2-2h-62.7v67.6
		H163.8z"/>
	<path class="st1" d="M116.1,87.3h47.7V69.9h19V2.3h-36c-1.1,0-2,0.9-2,2v65.6h-28.7c-2,0-3.7,1.7-3.7,3.7v9.9
		C112.4,85.6,114.1,87.3,116.1,87.3z"/>
	<path class="st2" d="M116.1,87.3h47.7V69.9h19V2.3h-36c-1.1,0-2,0.9-2,2v65.6h-28.7c-2,0-3.7,1.7-3.7,3.7v9.9
		C112.4,85.6,114.1,87.3,116.1,87.3z"/>
</g>
</svg>
