<svg xmlns="http://www.w3.org/2000/svg" height="60" width="120" fill-rule="evenodd"><path d="M30.915 10.538L14.628 25.976c-.103.097-.18.22-.223.355a.84.84 0 0 0 .159.794.85.85 0 0 0 .342.242l8.2 3.127-9.577 17.975c-.446 1.05.565 1.57 1.352.977L35.27 28.66c.097-.1.17-.222.207-.355a.84.84 0 0 0-.171-.777c-.09-.105-.208-.187-.337-.236l-7.832-3 5.147-12.847a.84.84 0 0 0-.124-.832.85.85 0 0 0-.353-.259c-.138-.053-.3-.07-.436-.048-.17.026-.33.105-.456.223z" fill="#0366d6"/><path d="M45.9 34.778c-1.655 0-3.01-.514-4.068-1.542-.058-.058-.087-.128-.087-.21 0-.145.078-.29.235-.43s.314-.213.47-.213c.076 0 .145.026.21.078.39.33.873.613 1.45.845s1.212.348 1.903.348c.883 0 1.61-.187 2.178-.562s.854-.905.854-1.6c0-.348-.044-.643-.13-.884s-.235-.45-.444-.627-.44-.325-.697-.444-.598-.248-1.028-.388l-2.265-.767c-.894-.296-1.574-.677-2.038-1.14s-.697-1.103-.697-1.916c0-.645.19-1.212.566-1.703s.887-.864 1.53-1.12 1.357-.383 2.147-.383c.8 0 1.565.14 2.29.418s1.272.592 1.638.94c.116.1.174.232.174.366 0 .14-.058.264-.174.375s-.247.166-.392.166c-.122 0-.235-.04-.34-.122-.32-.238-.752-.467-1.298-.688a4.72 4.72 0 0 0-1.786-.331c-.918 0-1.646.187-2.187.562s-.8.87-.8 1.485c0 .51.163.915.488 1.21s.845.56 1.56.793l2.282.75c.476.157.878.318 1.206.483a4.38 4.38 0 0 1 .919.623 2.37 2.37 0 0 1 .64.897c.142.348.213.752.213 1.21 0 1.132-.402 2-1.206 2.605s-1.906.906-3.306.906zm9.608-.026c-1.342 0-2.012-.89-2.012-2.674v-5.174h-1.15c-.337 0-.505-.14-.505-.418 0-.285.168-.427.505-.427h1.15l.148-2.58c.006-.128.077-.25.213-.37s.266-.18.388-.18c.14 0 .26.048.366.144a.51.51 0 0 1 .157.396v2.587h1.673c.325 0 .488.145.488.436 0 .273-.163.41-.488.41h-1.673v5.07c0 .668.096 1.13.287 1.385s.488.383.89.383h.078l.55-.026h.026c.168 0 .3.05.396.152a.5.5 0 0 1 .144.353c0 .22-.093.366-.28.436s-.46.105-.82.105a11.52 11.52 0 0 1-.261-.004l-.27-.004zm5.89.017c-.93 0-1.675-.216-2.24-.65s-.845-1.053-.845-1.86c0-.372.04-.7.122-.954a1.62 1.62 0 0 1 .418-.688c.197-.195.438-.353.723-.475s.66-.22 1.128-.296.976-.126 1.524-.152l2.008-.04v-1.098c0-.65-.186-1.132-.558-1.446s-.88-.47-1.524-.47c-.546 0-1.018.057-1.416.17s-.832.283-1.302.5c-.07.035-.134.052-.192.052-.122 0-.23-.052-.327-.157s-.144-.218-.144-.34c0-.134.055-.235.166-.305.865-.54 1.945-.8 3.24-.8 1.045 0 1.858.24 2.44.72s.87 1.212.87 2.2v5.357a.49.49 0 0 1-.2.414c-.134.102-.3.152-.47.152a.65.65 0 0 1-.418-.139c-.116-.093-.174-.226-.174-.4v-1.16c-.587 1.243-1.53 1.864-2.83 1.864zm.157-.862c.72 0 1.347-.3 1.882-.902s.8-1.37.8-2.304v-.287c-1.312 0-2.292.05-2.94.148s-1.103.27-1.368.518-.396.623-.396 1.128c0 1.132.674 1.7 2.02 1.7zm9.225.845c-1.342 0-2.012-.89-2.012-2.674v-5.174h-1.15c-.337 0-.505-.14-.505-.418 0-.285.168-.427.505-.427h1.15l.148-2.58c.006-.128.077-.25.213-.37s.266-.18.388-.18c.14 0 .26.048.366.144a.51.51 0 0 1 .157.396v2.587H71.7c.325 0 .488.145.488.436 0 .273-.163.41-.488.41h-1.673v5.07c0 .668.096 1.13.287 1.385s.488.383.89.383h.078l.55-.026h.026c.168 0 .3.05.396.152a.5.5 0 0 1 .144.353c0 .22-.093.366-.28.436s-.46.105-.82.105a11.52 11.52 0 0 1-.261-.004l-.27-.004zm6.673.017c-.987 0-1.758-.28-2.313-.836s-.832-1.41-.832-2.56v-4.81c0-.192.062-.338.187-.44s.274-.152.45-.152.325.05.453.152.192.248.192.44v4.826c0 1.667.706 2.5 2.117 2.5.72 0 1.317-.23 1.8-.693s.742-1.116.806-1.964v-4.67c0-.18.067-.324.2-.43s.285-.16.453-.16a.67.67 0 0 1 .444.152c.122.102.183.248.183.44v7.422c0 .192-.064.34-.192.444s-.28.157-.453.157c-.168 0-.317-.05-.444-.152s-.192-.245-.192-.43v-1.02a2.42 2.42 0 0 1-1.071 1.32c-.517.31-1.11.466-1.777.466zm9.992-9c.552 0 1.083.07 1.594.213s.912.292 1.202.45c.18.105.27.247.27.427a.41.41 0 0 1-.113.287c-.075.08-.177.122-.305.122-.058 0-.136-.015-.235-.044a7.25 7.25 0 0 1-.287-.113l-.418-.157-.457-.14a3.97 3.97 0 0 0-.571-.118c-.197-.026-.398-.04-.6-.04-1.516 0-2.274.467-2.274 1.402 0 .383.102.65.305.8s.66.31 1.368.48l1.594.392c.848.21 1.445.514 1.8.915s.518.89.518 1.472c0 .877-.31 1.536-.932 1.977s-1.434.665-2.44.67c-.592 0-1.185-.094-1.777-.283s-1.05-.402-1.376-.64c-.157-.116-.235-.253-.235-.41a.41.41 0 0 1 .126-.301.43.43 0 0 1 .318-.126c.116 0 .238.038.366.113a4.91 4.91 0 0 0 2.639.758c.69-.006 1.234-.148 1.63-.427s.592-.68.592-1.202c0-.407-.115-.724-.344-.954s-.623-.41-1.18-.544l-1.638-.392-.854-.23a4.24 4.24 0 0 1-.684-.279c-.235-.12-.417-.25-.544-.396s-.234-.33-.318-.558a2.27 2.27 0 0 1-.126-.793c0-.424.096-.79.287-1.102s.453-.553.784-.727a4.12 4.12 0 0 1 1.076-.383c.386-.08.803-.122 1.25-.122zm7.1 8.816c-.168 0-.315-.055-.44-.166s-.187-.267-.187-.47v-7.047h-1.272c-.32 0-.48-.14-.48-.418 0-.285.16-.427.48-.427h1.272V24.89c0-.44.04-.83.118-1.163s.184-.604.318-.8a1.65 1.65 0 0 1 .501-.501 1.98 1.98 0 0 1 .623-.266c.215-.05.46-.074.732-.074h1.037c.14 0 .248.048.327.144s.118.208.118.335-.04.238-.122.33-.195.14-.34.14h-.74c-.36 0-.626.057-.797.17s-.298.34-.38.684-.122.87-.122 1.585v.592h1.63c.296 0 .444.142.444.427 0 .14-.032.244-.096.314s-.18.105-.348.105h-1.63v7.047a.59.59 0 0 1-.192.466.66.66 0 0 1-.453.17zm7.126 2.866c-.14.314-.36.47-.662.47-.157 0-.292-.05-.405-.148s-.17-.224-.17-.375a.76.76 0 0 1 .07-.287l1.42-3.12-3.32-7.134a.67.67 0 0 1-.061-.287c0-.174.064-.32.192-.44a.63.63 0 0 1 .444-.179c.25 0 .433.128.55.383l2.85 6.21 2.814-6.167c.128-.267.314-.4.558-.4.163 0 .31.06.44.18s.196.263.196.43a.58.58 0 0 1-.035.2z" fill="#1b1f23"/></svg>