<?xml version="1.0" encoding="UTF-8" standalone="no"?>
<svg
   xmlns:dc="http://purl.org/dc/elements/1.1/"
   xmlns:cc="http://creativecommons.org/ns#"
   xmlns:rdf="http://www.w3.org/1999/02/22-rdf-syntax-ns#"
   xmlns:svg="http://www.w3.org/2000/svg"
   xmlns="http://www.w3.org/2000/svg"
   xmlns:sodipodi="http://sodipodi.sourceforge.net/DTD/sodipodi-0.dtd"
   xmlns:inkscape="http://www.inkscape.org/namespaces/inkscape"
   width="120"
   height="60"
   viewBox="0 0 12.288 6.144"
   preserveAspectRatio="xMidYMid"
   version="1.1"
   id="svg6"
   sodipodi:docname="authy-ar21.svg"
   inkscape:version="0.92.2 (5c3e80d, 2017-08-06)">
  <metadata
     id="metadata12">
    <rdf:RDF>
      <cc:Work
         rdf:about="">
        <dc:format>image/svg+xml</dc:format>
        <dc:type
           rdf:resource="http://purl.org/dc/dcmitype/StillImage" />
        <dc:title></dc:title>
      </cc:Work>
    </rdf:RDF>
  </metadata>
  <defs
     id="defs10" />
  <sodipodi:namedview
     pagecolor="#ffffff"
     bordercolor="#666666"
     borderopacity="1"
     objecttolerance="10"
     gridtolerance="10"
     guidetolerance="10"
     inkscape:pageopacity="0"
     inkscape:pageshadow="2"
     inkscape:window-width="1920"
     inkscape:window-height="1001"
     id="namedview8"
     showgrid="false"
     inkscape:zoom="3.0208"
     inkscape:cx="120.8502"
     inkscape:cy="28.504223"
     inkscape:window-x="-9"
     inkscape:window-y="-9"
     inkscape:window-maximized="1"
     inkscape:current-layer="svg6" />
  <g
     id="g863"
     transform="translate(0,0.09894392)">
    <g
       transform="matrix(0.87200806,0,0,0.87200806,0.50202218,0.5119941)"
       id="g845">
      <path
         d="m 8.4564517,1.7489746 c 0,1.0971167 -0.8892965,1.9863827 -1.9864014,1.9863827 -1.0970392,0 -1.9863055,-0.889266 -1.9863055,-1.9863827 0,-1.09704234 0.8892663,-1.98632318 1.9863055,-1.98632318 1.0971049,0 1.9864014,0.88928084 1.9864014,1.98632318 z"
         id="path2"
         inkscape:connector-curvature="0"
         style="fill:#ec1c24;stroke-width:0.01551838" />
      <path
         d="m 6.2997676,1.3283018 0.4762749,0.4761023 c 0.068748,0.068841 0.1803707,0.068841 0.2492881,0 0.068763,-0.068823 0.06892,-0.1803536 0,-0.2491939 L 6.5490237,1.0789214 C 6.2082249,0.73804488 5.6574156,0.73254898 5.3093853,1.0615989 a 0.14798332,0.14798332 0 0 0 -0.00939,0.0085 c -0.00149,0.00148 -0.00269,0.00314 -0.00425,0.0045 -0.00149,0.00148 -0.00313,0.00296 -0.00463,0.00432 -0.00298,0.00299 -0.00574,0.00616 -0.00838,0.00927 -0.329216,0.3481841 -0.3235513,0.8990105 0.017272,1.2398692 l 0.476292,0.4761972 c 0.068905,0.068793 0.1803685,0.068793 0.2492561,0 C 6.0944904,2.7354003 6.0944904,2.62373 6.025727,2.5550317 L 5.5494203,2.0787526 C 5.3415048,1.8709138 5.3401067,1.5336056 5.5450932,1.3239842 5.754685,1.1189851 6.0918067,1.1204746 6.2997527,1.3283038 Z M 6.9144809,0.69401878 c -0.068823,0.0688555 -0.068823,0.18036841 1.865e-4,0.24920873 L 7.3907878,1.4195342 C 7.5985787,1.6273551 7.599929,1.9646161 7.3949657,2.1742848 7.1853119,2.3791299 6.8483,2.3777618 6.6404136,2.1699055 L 6.1641246,1.6936639 c -0.068867,-0.068855 -0.1805251,-0.068855 -0.249318,0 -0.06895,0.068793 -0.06895,0.1806645 0,0.2493036 L 6.3909411,2.4192861 C 6.7318475,2.7601477 7.282597,2.765688 7.63069,2.4366081 c 0.00321,-0.00296 0.00627,-0.00551 0.00947,-0.00853 0.00149,-0.00148 0.00298,-0.00299 0.00425,-0.0045 0.00149,-0.00148 0.00306,-0.00296 0.00448,-0.00447 0.00306,-0.00296 0.00567,-0.00595 0.00838,-0.00921 C 7.986495,2.0618498 7.980984,1.5112129 7.640186,1.1701499 L 7.1638706,0.69401289 C 7.0950329,0.6250626 6.9832678,0.6250626 6.9144899,0.69402766 Z"
         id="path4"
         inkscape:connector-curvature="0"
         style="fill:#ffffff;stroke-width:0.01551838" />
    </g>
    <g
       transform="matrix(0.96726926,0,0,0.96726926,-0.01664549,0.22229345)"
       id="g852">
      <path
         style="fill:#51575c;stroke-width:0.02370515"
         inkscape:connector-curvature="0"
         id="path8"
         d="m 8.1034579,4.8618931 c 0,-0.1943822 0,-0.3887644 0,-0.5831467 0,-0.097191 0.037928,-0.1422309 0.1137847,-0.1446014 0.080597,-0.00237 0.1232668,0.04741 0.1232668,0.1446014 0,0.146972 0.00237,0.2915734 0,0.4385453 0,0.052151 0.016594,0.068745 0.068745,0.068745 0.1849002,-0.00237 0.3698004,-0.00237 0.557071,0 0.054522,0 0.066375,-0.023705 0.064004,-0.071115 -0.00237,-0.146972 -0.00237,-0.2915734 0,-0.4385453 0,-0.066374 0.00711,-0.1303783 0.097191,-0.1303783 0.1114142,0 0.1398603,0.026076 0.1398603,0.1303783 0,0.391135 0,0.7846405 0,1.1757754 0,0.068745 -0.011852,0.1303784 -0.099562,0.1327489 -0.1090437,0.00237 -0.1374899,-0.023705 -0.1374899,-0.1374899 -0.00237,-0.1256373 -0.00237,-0.2489041 0,-0.3745414 0,-0.052151 -0.00948,-0.075856 -0.068745,-0.075856 -0.1849002,0.00237 -0.3698003,0.00237 -0.557071,0 -0.054522,0 -0.066374,0.021335 -0.064004,0.071115 0.00237,0.1303783 0,0.2607567 0,0.391135 0,0.066374 -0.016594,0.1232668 -0.097191,0.1280078 -0.094821,0.00711 -0.1351194,-0.028446 -0.1374899,-0.1232668 -0.00237,-0.2014938 0,-0.400617 -0.00237,-0.6021108 0.00237,0 0,0 0,-5e-7 z"
         class="st1" />
      <path
         style="fill:#51575c;stroke-width:0.02370515"
         inkscape:connector-curvature="0"
         id="path10"
         d="m 2.6939427,5.4758565 c -0.00237,0.059263 -0.028446,0.094821 -0.078227,0.1066732 -0.061633,0.016594 -0.1161553,0.00711 -0.1493425,-0.054522 -0.040299,-0.078227 -0.082968,-0.156454 -0.1185257,-0.2370515 -0.023705,-0.052151 -0.052151,-0.071115 -0.1090437,-0.071115 -0.1967528,0.00474 -0.395876,0.00237 -0.5926288,0 -0.052151,0 -0.082968,0.014223 -0.1066732,0.064004 -0.035558,0.080598 -0.080598,0.156454 -0.1185257,0.234681 -0.035558,0.075856 -0.1019321,0.068745 -0.161195,0.059263 -0.061633,-0.00948 -0.087709,-0.085338 -0.054522,-0.1493424 0.2086053,-0.4148401 0.4172107,-0.8296803 0.630557,-1.2421499 0.04504,-0.085339 0.1683066,-0.082968 0.2133464,0.00237 0.2109758,0.410099 0.4195811,0.8225687 0.6281864,1.2326678 0.00948,0.021335 0.014223,0.042669 0.016594,0.054522 z M 1.9424894,4.4826107 c -0.09245,0.1825297 -0.1754181,0.3508362 -0.2654977,0.5286249 0.1659361,0 0.312908,0 0.4622504,0 0.026076,0 0.073486,0.014223 0.04504,-0.042669 C 2.1084254,4.8097418 2.0301985,4.6556583 1.9424894,4.4826107 Z"
         class="st1" />
      <path
         style="fill:#51575c;stroke-width:0.02370515"
         inkscape:connector-curvature="0"
         id="path12"
         d="m 3.5923678,4.6390647 c 0,-0.1256373 0,-0.2489041 0,-0.3745414 0,-0.064004 0.018964,-0.1137847 0.094821,-0.1161552 0.1043027,-0.00237 0.1422309,0.023705 0.1422309,0.1137847 0.00237,0.2251989 0,0.4503979 0.00237,0.6732263 0.00237,0.2323104 0.1683065,0.4266927 0.3935054,0.4338042 0.1849002,0.00711 0.4503979,-0.1327488 0.4503979,-0.4124696 0,-0.2275694 0,-0.4551389 0,-0.6827083 0,-0.09008 0.04504,-0.1422309 0.1185257,-0.1398604 0.075857,0.00237 0.1185258,0.040299 0.1185258,0.1185258 0,0.2512745 0.00948,0.5049197 -0.00474,0.7561942 C 4.8914105,5.3573307 4.602208,5.5943822 4.2300372,5.5896412 3.8768304,5.5849012 3.6089622,5.3336256 3.5947392,4.9922714 c -0.00237,-0.1161552 0,-0.2346809 -0.00237,-0.3532067 0.00237,0 0.00237,0 0,0 z"
         class="st1" />
      <path
         style="fill:#51575c;stroke-width:0.02370515"
         inkscape:connector-curvature="0"
         id="path14"
         d="m 10.772658,5.2222114 c 0.0403,-0.1446014 -0.0403,-0.2797208 -0.149343,-0.4100991 -0.125637,-0.151713 -0.239422,-0.3152785 -0.357947,-0.4717325 -0.04504,-0.059263 -0.064,-0.1185257 0.0024,-0.1754181 0.05689,-0.049781 0.13749,-0.035558 0.189641,0.035558 0.130379,0.1754181 0.260757,0.3508362 0.384024,0.5309954 0.0403,0.056892 0.05926,0.04741 0.09482,-0.00237 0.125638,-0.1754181 0.256016,-0.3460952 0.381653,-0.5215133 0.03319,-0.04741 0.07349,-0.082968 0.13749,-0.071116 0.09008,0.016594 0.120896,0.1066732 0.06163,0.1896412 -0.111414,0.1540835 -0.218087,0.3152785 -0.343724,0.4575094 -0.132749,0.151713 -0.192012,0.3152785 -0.165936,0.5120313 0.0071,0.056892 0.0024,0.1161552 0,0.1730476 -0.0024,0.073486 -0.04504,0.1114142 -0.116155,0.1114142 -0.07112,0.00237 -0.116156,-0.037928 -0.118526,-0.1090437 -0.0024,-0.068745 0,-0.1422309 0,-0.2489041 z"
         class="st1" />
      <path
         style="fill:#51575c;stroke-width:0.02370515"
         inkscape:connector-curvature="0"
         id="path16"
         d="m 6.5104718,4.1554796 c 0.1730476,0 0.3460952,0 0.5191428,0 0.094821,0 0.1446014,0.042669 0.1446014,0.1137848 0,0.073486 -0.04741,0.1114142 -0.1446014,0.1114142 -0.1066732,0 -0.2133464,0.00474 -0.317649,0 -0.064004,-0.00237 -0.082968,0.018964 -0.080597,0.082968 0.00237,0.3318721 0.00237,0.6613737 0.00237,0.9932458 0,0.071115 -0.016594,0.1280078 -0.094821,0.1422309 -0.087709,0.016594 -0.1422309,-0.035558 -0.1422309,-0.1398604 0,-0.32239 -0.00237,-0.6447801 0.00237,-0.9647996 0.00237,-0.085339 -0.016594,-0.1208963 -0.1066732,-0.1114142 -0.09245,0.00948 -0.1872707,0.00237 -0.2820913,0.00237 -0.1043026,0 -0.1517129,-0.037928 -0.1493424,-0.1161552 0.00237,-0.075856 0.049781,-0.1114142 0.1540835,-0.1114142 0.161195,-0.00237 0.327131,-0.00237 0.4954385,-0.00237 z"
         class="st1" />
    </g>
  </g>
</svg>
