<?xml version="1.0" encoding="utf-8"?>
<!-- Generator: Adobe Illustrator 24.1.0, SVG Export Plug-In . SVG Version: 6.00 Build 0)  -->
<svg version="1.1" id="Layer_1" xmlns="http://www.w3.org/2000/svg" xmlns:xlink="http://www.w3.org/1999/xlink" x="0px" y="0px"
	 viewBox="0 0 120 60" width="120" height="60" style="enable-background:new 0 0 120 60;" xml:space="preserve">
<style type="text/css">
	.st0{fill:#48C6DD;}
</style>
<g>
	<path class="st0" d="M22.6,18.7c-6.2,0-11.3,5-11.3,11.3s5,11.3,11.3,11.3s11.3-5,11.3-11.3v0C33.9,23.8,28.8,18.7,22.6,18.7z
		 M19.6,20.3c2-0.6,4.2-0.6,6.2,0c-0.6,0.4-1.1,1.1-1.4,1.8c-0.4,1.3,0,2.5,0.4,3.5l0,0.1c0.2,0.6,0.3,1.4-0.3,1.9
		c-0.2-0.2-0.5-0.4-0.8-0.5c0.1-1.3-0.6-2.4-2.1-3l-0.1,0c-0.9-0.4-1.7-0.8-2.2-1.6C19,21.7,19.2,20.9,19.6,20.3L19.6,20.3z
		 M24.2,30c0,0.9-0.7,1.6-1.6,1.6S21,30.8,21,30s0.7-1.6,1.6-1.6S24.2,29.1,24.2,30z M17.8,21.1c-0.1,0.7,0,1.5,0.4,2.2
		c0.6,1.2,1.8,1.7,2.8,2.2l0.1,0.1c0.6,0.3,1.2,0.7,1.2,1.5c-0.3,0-0.6,0.1-0.9,0.2c-0.8-1-2.2-1.3-3.6-0.7l-0.1,0
		c-1,0.4-1.8,0.6-2.6,0.4c-0.7-0.2-1.2-0.8-1.5-1.5C14.5,23.6,16,22,17.8,21.1L17.8,21.1z M12.9,33c-0.6-1.9-0.6-4,0-5.9
		c0.4,0.5,1,0.9,1.7,1.2c1.3,0.4,2.5,0,3.6-0.4l0.1,0c0.6-0.2,1.5-0.3,2,0.3c-0.2,0.2-0.3,0.5-0.5,0.8c-1.3-0.1-2.5,0.6-3.1,2
		L16.6,31c-0.4,0.9-0.8,1.7-1.6,2.1C14.4,33.3,13.6,33.3,12.9,33L12.9,33z M17.7,38.9c-1.8-1-3.2-2.5-4.1-4.2c0.2,0,0.3,0,0.5,0
		c0.6,0,1.1-0.1,1.6-0.4c1.2-0.6,1.8-1.7,2.2-2.7l0.1-0.1c0.3-0.6,0.8-1.3,1.7-1.2c0,0.3,0.1,0.6,0.2,0.9c-1,0.8-1.3,2.2-0.8,3.6
		l0,0.1c0.4,0.9,0.7,1.7,0.4,2.6c-0.3,0.9-1.1,1.3-1.7,1.5L17.7,38.9z M25.6,39.7c-2,0.6-4.2,0.6-6.2,0c0.6-0.4,1.1-1.1,1.4-1.8
		c0.4-1.3,0-2.5-0.4-3.5l0-0.1c-0.2-0.6-0.4-1.4,0.3-2c0.2,0.2,0.5,0.4,0.8,0.5c-0.1,1.3,0.6,2.4,2.1,3.1l0.1,0.1
		c0.9,0.4,1.7,0.8,2.1,1.6C26.2,38.3,26,39.1,25.6,39.7C25.7,39.6,25.7,39.6,25.6,39.7z M27.4,38.9c0.1-0.7,0-1.5-0.4-2.1
		c-0.6-1.2-1.8-1.7-2.8-2.2l-0.1-0.1c-0.6-0.3-1.3-0.8-1.2-1.6c0.3,0,0.6-0.1,0.9-0.2c0.8,1,2.2,1.3,3.7,0.8l0.1,0
		c1-0.4,1.8-0.6,2.6-0.4c0.7,0.2,1.2,0.8,1.5,1.4C30.7,36.4,29.2,37.9,27.4,38.9L27.4,38.9z M32.7,30c0,1-0.1,2-0.4,2.9
		c-0.4-0.5-1-0.9-1.7-1.1c-1.3-0.4-2.5,0-3.5,0.4l-0.1,0c-0.6,0.2-1.5,0.3-2.1-0.3c0.2-0.2,0.3-0.5,0.5-0.7c0.1,0,0.2,0,0.3,0
		c1.2,0,2.2-0.7,2.8-2l0.1-0.1c0.4-0.9,0.8-1.7,1.6-2.1c0.7-0.3,1.5-0.3,2.1,0C32.6,28,32.7,29,32.7,30z M29.5,25.7
		c-1.2,0.6-1.8,1.7-2.2,2.7l-0.1,0.1c-0.3,0.6-0.8,1.3-1.7,1.2c0-0.3-0.1-0.6-0.2-0.9c1-0.8,1.3-2.2,0.8-3.6l0-0.1
		c-0.4-0.9-0.7-1.7-0.4-2.6c0.3-0.9,1.1-1.3,1.7-1.5l0.1,0c1.8,1,3.2,2.5,4.1,4.3C30.9,25.3,30.2,25.4,29.5,25.7z"/>
	<path class="st0" d="M22.6,15.6c-7.9,0-14.3,6.4-14.3,14.4s6.4,14.3,14.4,14.3c7.9,0,14.3-6.4,14.3-14.3
		C36.9,22.1,30.5,15.6,22.6,15.6C22.6,15.6,22.6,15.6,22.6,15.6z M22.6,42.5C15.7,42.5,10,36.9,10,30s5.6-12.5,12.5-12.5
		S35.1,23.1,35.1,30l0,0C35.1,36.9,29.5,42.5,22.6,42.5z"/>
	<path class="st0" d="M34.5,18.2c-1.3-1.4-3.1-2.4-4.6-2.7c-0.1,0-0.2,0-0.2,0.2c0,0.1,0,0.2,0.1,0.2c3.1,1.5,5.6,4,7,7.1
		c0,0.1,0.2,0.1,0.3,0.1c0.1,0,0.1-0.1,0.1-0.2C36.8,21.2,35.9,19.5,34.5,18.2z"/>
	<path class="st0" d="M15.4,44.1c-3.1-1.5-5.6-4-7-7.1c0-0.1-0.2-0.1-0.3-0.1C8,37,8,37.1,8,37.2c0.3,1.6,1.3,3.3,2.6,4.7
		c1.4,1.4,3.1,2.4,4.6,2.7h0c0.1,0,0.2-0.1,0.2-0.2C15.5,44.2,15.4,44.2,15.4,44.1z"/>
	<path class="st0" d="M48.5,24.3h-5.3c-0.2,0-0.3,0.1-0.3,0.3v10.9c0,0.2,0.1,0.3,0.3,0.3h1.1c0.2,0,0.3-0.1,0.3-0.3v-4.6H48
		c0.2,0,0.3-0.1,0.3-0.3v-1.1c0-0.2-0.1-0.3-0.3-0.3h-3.4V26h3.9c0.2,0,0.3-0.1,0.3-0.3v-1.1C48.8,24.4,48.7,24.3,48.5,24.3
		L48.5,24.3z"/>
	<path class="st0" d="M56.7,34.1h-3.9v-9.5c0-0.2-0.1-0.3-0.3-0.3h-1.1c-0.2,0-0.3,0.1-0.3,0.3c0,0,0,0,0,0v10.9
		c0,0.2,0.1,0.3,0.3,0.3h5.3c0.2,0,0.3-0.1,0.3-0.3v-1.1C57,34.3,56.9,34.1,56.7,34.1C56.7,34.1,56.7,34.1,56.7,34.1z"/>
	<path class="st0" d="M64.1,24.2h-1.2c-0.1,0-0.2,0.1-0.3,0.2l-2.4,4.4l-2.4-4.4c-0.1-0.1-0.2-0.2-0.3-0.2h-1.2
		c-0.2,0-0.3,0.1-0.3,0.3c0,0.1,0,0.1,0,0.1l3.3,6.1v4.7c0,0.2,0.1,0.3,0.3,0.3h1.1c0.2,0,0.3-0.1,0.3-0.3v-4.6l3.3-6.2
		c0.1-0.2,0-0.3-0.1-0.4C64.2,24.3,64.1,24.2,64.1,24.2z"/>
	<path class="st0" d="M111.7,34.1h-3.9v-9.5c0-0.2-0.1-0.3-0.3-0.3h-1.1c-0.2,0-0.3,0.1-0.3,0.3v10.9c0,0.2,0.1,0.3,0.3,0.3h5.3
		c0.2,0,0.3-0.1,0.3-0.3v-1.1C112,34.3,111.9,34.1,111.7,34.1z"/>
	<path class="st0" d="M86.4,24.3h-1.1c-0.2,0-0.3,0.1-0.3,0.3v4.6h-3.8v-4.6c0-0.2-0.1-0.3-0.3-0.3h-1.1c-0.2,0-0.3,0.1-0.3,0.3
		v10.9c0,0.2,0.1,0.3,0.3,0.3h1.1c0.2,0,0.3-0.1,0.3-0.3v-4.6H85v4.6c0,0.2,0.1,0.3,0.3,0.3h1.1c0.2,0,0.3-0.1,0.3-0.3V24.6
		C86.7,24.4,86.5,24.3,86.4,24.3C86.4,24.3,86.4,24.3,86.4,24.3z"/>
	<path class="st0" d="M94.9,24.3h-5.4c-0.2,0-0.3,0.1-0.3,0.3v10.9c0,0.2,0.1,0.3,0.3,0.3h5.4c0.2,0,0.3-0.1,0.3-0.3v-1.1
		c0-0.2-0.1-0.3-0.3-0.3h-4v-3.3h3.5c0.2,0,0.3-0.1,0.3-0.3v-1.1c0-0.2-0.1-0.3-0.3-0.3h-3.5V26h4c0.2,0,0.3-0.1,0.3-0.3v-1.1
		C95.2,24.4,95.1,24.3,94.9,24.3z"/>
	<path class="st0" d="M103.4,24.3H98c-0.2,0-0.3,0.1-0.3,0.3v10.9c0,0.2,0.1,0.3,0.3,0.3h5.4c0.2,0,0.3-0.1,0.3-0.3v-1.1
		c0-0.2-0.1-0.3-0.3-0.3h-4v-3.3h3.5c0.2,0,0.3-0.1,0.3-0.3v-1.1c0-0.2-0.1-0.3-0.3-0.3h-3.5V26h4c0.2,0,0.3-0.1,0.3-0.3v-1.1
		C103.7,24.4,103.5,24.3,103.4,24.3z"/>
	<path class="st0" d="M77.3,24.3h-1.2c-0.1,0-0.2,0.1-0.2,0.2l-1.8,7.7l-1.8-7.7c0-0.1-0.1-0.2-0.2-0.2H71c-0.1,0-0.2,0.1-0.2,0.2
		l-1.8,7.7l-1.8-7.7c0-0.1-0.1-0.2-0.2-0.2h-1.2c-0.1,0-0.2,0.1-0.2,0.2c0,0,0,0,0,0.1l2.6,11.1c0,0.1,0.1,0.2,0.2,0.2h1.2
		c0.1,0,0.2-0.1,0.2-0.2l1.8-7.7l1.8,7.7c0,0.1,0.1,0.2,0.2,0.2h1.2c0.1,0,0.2-0.1,0.2-0.2l2.6-11.1C77.6,24.4,77.5,24.3,77.3,24.3
		C77.4,24.3,77.4,24.3,77.3,24.3z"/>
</g>
</svg>
