<svg xmlns="http://www.w3.org/2000/svg" width="64" height="64"><defs><filter id="A" color-interpolation-filters="sRGB"><feGaussianBlur stdDeviation="2.645"/></filter><filter id="B" color-interpolation-filters="sRGB"><feGaussianBlur stdDeviation="2.23"/></filter><linearGradient x1="31.378" y1="11.315" x2="31.378" y2="22.165" id="C" gradientUnits="userSpaceOnUse"><stop offset="0" stop-color="#fff"/><stop offset="1" stop-color="#fff" stop-opacity="0"/></linearGradient></defs><g transform="matrix(.900144 0 0 .900144 -17.631147 1.395092)"><path d="M23.188 339.805a19.96 19.96 0 0 0-20 20V648.72a19.96 19.96 0 0 0 20 20h160a19.96 19.96 0 0 0 20-20V464.7c-24.402 25.9-49.522 51.12-77.25 72.406-.856.708-.735.758-1.5 2.97-.01.037-.02.088-.03.125l-9.187 23.97c-.01.013-.02.05-.03.063-7.7 19.676-14.67 39.483-23.78 58.72-.015.034-.016.1-.03.125-3.765 8.505-8.033 17.192-14.125 25.25-4.172 5.52-9.93 11.104-17.906 12.5-.012.001-.02-.001-.03 0-7.233 1.302-13.622-1.124-17.844-5.5-4.204-4.358-6.546-10.33-7.312-16.5-.005-.036.004-.057 0-.094-1.28-8.536.155-16.972 2.344-24.75.003-.01-.003-.02 0-.03 5.53-20.1 17.877-38.047 31.97-52.656 6.26-6.584 13.305-12.236 20.5-17.625-4.73 1.575-9.9 2.66-15.125 2.406-6.04-.293-12.196-2.276-16.875-6.97l-.094-.094c-7.66-7.5-8.9-18.574-8-27.906 1.185-12.434 6.282-23.905 12.563-34.375.008-.015.054-.017.063-.03 15.872-27.218 45.146-54.438 79.188-57.844 4.83-.483 9.756-.516 14.75.063.025.003.038-.002.063 0 1.533.146 3.696.353 5.938 1.28 2.236.926 4.82 3.13 5.406 6.375.01.052.054.104.063.156h-.062c.463 2.663-.237 4.882-.97 6.844-.723 1.94-1.596 3.64-2.094 4.75-.016.035-.047.122-.062.156l-25.656 66.594c7.47-6.924 43.775-43.63 65.125-66.22v-79.04a19.96 19.96 0 0 0-20-20zm120.594 95.758a11.44 11.44 0 0 0-.906.03c-8.917.725-17.9 3.873-25.937 8.375v.03c-9.633 5.605-18.482 13.22-26.125 21.625-8.812 9.7-16.7 20.926-21.656 33.03-2.782 7.636-4.832 16.937-2.78 24.063.014.024.018.07.03.094.7 2.6 2.7 5.128 5.063 6.094 3.294.953 7.82.23 11.906-1.094.024-.002.07-.03.094-.03 2.693-.8 5.586-2.416 8.594-4.5v.063c7.06-4.943 13.105-11.986 18.438-19.125.01-.013.02-.018.03-.03 6.407-8.305 11.65-17.038 16.938-26.28 7.06-13.934 13.33-27.835 19.03-42.25-.913.004-1.805-.093-2.72-.094zM100 556.438c-5.3 3.954-10.467 7.995-15.344 12.594-.01.026-.02.07-.03.094-6.447 5.844-12.556 12.95-17.875 20.063-.025.036-.037.1-.062.125-7.452 10.727-13.546 23.3-15.687 35.813-.005.026-.027.036-.03.063-.264 2.794-.48 5.4-.344 8.313.01.1 0 .233 0 .344-.083 1.886.13 4.3.75 6.313.6 1.94 1.526 3.295 2.563 4 .886.48 1.464.582 2.28.406.843-.18 1.93-.737 3.094-1.656 2.33-1.838 4.74-4.983 6.406-7.437.012-.013.02-.05.03-.062 5.883-8.53 10.26-18.807 14.313-28.875.022-.038.04-.056.063-.094 5.925-13.397 11.066-26.77 16.188-40.625.01-.026.02-.07.03-.094z" transform="matrix(.122813 0 0 .117474 21.65181 -25.23774)" filter="url(#A)"/><path transform="matrix(.122813 0 0 .122813 20.289135 48.642311)" d="M399.736-278.792c-65.48.615-132.477 34.907-185.47 96.687v22.906c68.293-85.907 172.03-132.3 255.187-97.687 19.08 7.944 36.252 19.3 51.375 33.406-8.117 1.434-14.5 8.5-14.5 17.188 0 9.25 8 16.75 17.5 16.75 9 0 16.75-7.5 16.75-16.75 0-4.606-1.757-8.737-4.53-11.844-.25-.28-.482-.58-.75-.844-18.892-21.078-41.393-37.65-67.156-48.375-20.834-8.674-42.462-11.14-64.28-11.437a171.88 171.88 0 0 0-4.125 0z" filter="url(#B)"/><path d="M24.008 13.8c-1.36 0-2.456 1.058-2.456 2.372v34.262c0 1.314 1.095 2.372 2.456 2.372h19.65c1.36 0 2.456-1.058 2.456-2.372V28.6c-2.997 3.07-6.082 6.062-9.487 8.587-.105.084-.1.1-.184.352l-1.132 2.857c-.95 2.34-1.806 4.7-2.924 6.97-.466 1.023-1 2.054-1.74 3-.512.654-1.22 1.317-2.2 1.482-.892.154-1.677-.133-2.195-.652s-.804-1.225-.898-1.957c-.157-1.023.02-2.024.288-2.946.68-2.387 2.196-4.516 3.926-6.248.77-.78 1.634-1.45 2.518-2.1-.58.187-1.214.315-1.858.285-.742-.035-1.498-.27-2.072-.826-.952-.902-1.103-2.214-.994-3.32.145-1.475.77-2.835 1.543-4.076 1.957-3.23 5.552-6.46 9.733-6.863.593-.057 1.198-.06 1.8.007.196.017.46.042.737.152s.592.37.664.756c.001.006.007.012.008.02h-.008c.057.316-.03.58-.12.812s-.196.432-.257.563c-.002.004-.006.015-.008.02l-3.152 7.898c.917-.82 5.376-4.923 7.998-7.6V16.16c0-1.314-1.095-2.372-2.456-2.372h-19.65zm14.8 11.356a1.33 1.33 0 0 0-.11.004c-1.095.086-2.197.46-3.185.993v.004c-1.183.665-2.27 1.568-3.208 2.564-1.082 1.15-2.05 2.482-2.66 3.917-.342.906-.593 2-.342 2.854.1.32.336.62.626.734.405.113.96.027 1.462-.13.342-.1.698-.3 1.067-.537v.007c.867-.586 1.6-1.42 2.264-2.268.8-1 1.435-2.024 2.084-3.12a58.21 58.21 0 0 0 2.337-5.01c-.112 0-.222-.01-.334-.01zM33.442 39.48c-.652.47-1.285.948-1.884 1.493-.796.704-1.546 1.547-2.2 2.4-.923 1.287-1.67 2.78-1.934 4.262-.036.34-.063.65-.046.993.001.013 0 .028 0 .04-.01.224.016.5.092.75.074.23.187.4.315.474a.37.37 0 0 0 .28.048c.103-.02.237-.087.38-.196.286-.218.582-.6.787-.882.726-1.02 1.264-2.238 1.762-3.432.735-1.6 1.367-3.186 1.996-4.83z" fill="#862112"/><path d="M24.008 14.28c-1 0-1.804.793-1.804 1.804v5.078c2.516.772 5.318 1.217 8.3 1.217 6.037 0 11.415-1.805 14.968-4.567v-1.727c0-1-.793-1.804-1.804-1.804z" fill="url(#C)"/><path d="M68.9 13.912c-8.042.076-16.27 4.287-22.778 11.874V28.6C54.5 18.05 67.24 12.35 77.453 16.602c2.343.976 4.452 2.37 6.3 4.103-.997.176-1.78 1.043-1.78 2.1 0 1.136.983 2.057 2.15 2.057a2.08 2.08 0 0 0 2.057-2.057c0-.566-.216-1.073-.557-1.455-.03-.035-.06-.07-.092-.104-2.32-2.6-5.084-4.624-8.248-5.94-2.56-1.065-5.215-1.368-7.895-1.405a21.42 21.42 0 0 0-.507 0z" fill="#862112"/></g></svg>