<?xml version="1.0" encoding="UTF-8" standalone="no"?>
<!-- Created with Inkscape (http://www.inkscape.org/) -->

<svg
   xmlns:dc="http://purl.org/dc/elements/1.1/"
   xmlns:cc="http://creativecommons.org/ns#"
   xmlns:rdf="http://www.w3.org/1999/02/22-rdf-syntax-ns#"
   xmlns:svg="http://www.w3.org/2000/svg"
   xmlns="http://www.w3.org/2000/svg"
   xmlns:sodipodi="http://sodipodi.sourceforge.net/DTD/sodipodi-0.dtd"
   xmlns:inkscape="http://www.inkscape.org/namespaces/inkscape"
   width="120"
   height="60"
   id="svg5241"
   version="1.1"
   inkscape:version="0.92.3 (2405546, 2018-03-11)"
   sodipodi:docname="readthedocs-ar21.svg"
   inkscape:export-filename="/home/anthony/secure/dev/readthedocs-corporate/readthedocsinc/corporate/static/corporate/img/header-logo.png"
   inkscape:export-xdpi="90"
   inkscape:export-ydpi="90">
  <defs
     id="defs5243" />
  <sodipodi:namedview
     id="base"
     pagecolor="#ffffff"
     bordercolor="#666666"
     borderopacity="1.0"
     inkscape:pageopacity="0"
     inkscape:pageshadow="2"
     inkscape:zoom="5.6568542"
     inkscape:cx="101.07079"
     inkscape:cy="40.984053"
     inkscape:document-units="px"
     inkscape:current-layer="g3878"
     showgrid="false"
     inkscape:window-width="1920"
     inkscape:window-height="1001"
     inkscape:window-x="-9"
     inkscape:window-y="-9"
     inkscape:window-maximized="1" />
  <metadata
     id="metadata5246">
    <rdf:RDF>
      <cc:Work
         rdf:about="">
        <dc:format>image/svg+xml</dc:format>
        <dc:type
           rdf:resource="http://purl.org/dc/dcmitype/StillImage" />
        <dc:title></dc:title>
      </cc:Work>
    </rdf:RDF>
  </metadata>
  <g
     inkscape:label="Layer 1"
     inkscape:groupmode="layer"
     id="layer1"
     transform="translate(0,-992.3622)">
    <g
       id="g5310"
       transform="translate(-7.2877533,-6.3546821e-5)"
       style="fill:#32322a;fill-opacity:1">
      <g
         inkscape:export-ydpi="90"
         inkscape:export-xdpi="90"
         inkscape:export-filename="/home/anthony/secure/docs/rtd/assets/rtd-logo-2.png"
         transform="matrix(0.55753644,0,0,0.55753644,62.308135,1038.8762)"
         id="g3990"
         style="fill:#32322a;fill-opacity:1" />
      <g
         id="g3878"
         transform="matrix(8.4462802,0,0,8.4462802,-93.469267,-7827.1593)"
         style="fill:#32322a;fill-opacity:1">
        <g
           id="g3769"
           transform="matrix(0.97442286,0,0,0.97442286,0.35555131,26.798242)">
          <g
             transform="matrix(1.6394822,0,0,1.6394822,-9.4384952,-669.84691)"
             id="g3740">
            <path
               inkscape:connector-curvature="0"
               d="m 14.288436,1047.605 a 0.04785991,0.04785991 0 0 0 -0.0065,0.094 c 0,0 0.116557,0.039 0.314983,0.055 0.159336,0.013 0.339998,-0.011 0.339998,-0.011 a 0.04785991,0.04785991 0 1 0 -0.01204,-0.094 c 0,0 -0.176735,0.022 -0.320542,0.01 -0.189381,-0.015 -0.29275,-0.05 -0.29275,-0.05 a 0.04785991,0.04785991 0 0 0 -0.02316,0 z m 0,-0.2371 a 0.04785991,0.04785991 0 0 0 -0.0065,0.093 c 0,0 0.116557,0.039 0.314983,0.055 0.159336,0.013 0.339998,-0.011 0.339998,-0.011 a 0.04787996,0.04787996 0 1 0 -0.01204,-0.095 c 0,0 -0.176735,0.022 -0.320542,0.01 -0.189381,-0.015 -0.29275,-0.05 -0.29275,-0.05 a 0.04785991,0.04785991 0 0 0 -0.02316,0 z m 0,-0.2372 a 0.04785991,0.04785991 0 0 0 -0.0065,0.094 c 0,0 0.116557,0.038 0.314983,0.055 0.159336,0.013 0.339998,-0.011 0.339998,-0.011 a 0.04787996,0.04787996 0 1 0 -0.01204,-0.095 c 0,0 -0.176735,0.022 -0.320542,0.01 -0.189381,-0.015 -0.29275,-0.05 -0.29275,-0.05 a 0.04785991,0.04785991 0 0 0 -0.02316,0 z m 0,-0.2372 a 0.04785991,0.04785991 0 0 0 -0.0065,0.094 c 0,0 0.116557,0.039 0.314983,0.055 0.159336,0.013 0.339998,-0.011 0.339998,-0.011 a 0.04785991,0.04785991 0 1 0 -0.01204,-0.094 c 0,0 -0.176735,0.022 -0.320542,0.01 -0.189381,-0.015 -0.29275,-0.05 -0.29275,-0.05 a 0.04785991,0.04785991 0 0 0 -0.02316,0 z m -0.332264,-0.2501 c -0.249237,0 -0.342093,0.078 -0.342093,0.078 v 1.8613 c 0,0 0.09067,-0.078 0.382592,-0.066 0.291919,0.012 0.352138,0.1143 0.710898,0.1215 0.35876,0.01 0.448942,-0.055 0.448942,-0.055 l 0.0052,-1.8975 c 0,0 -0.161453,0.046 -0.475655,0.048 -0.314201,0 -0.389722,-0.08 -0.678153,-0.09 -0.01803,-6e-4 -0.03509,-10e-4 -0.0517,-9e-4 z m 0.20853,0.1215 c 0,0 0.151025,0.05 0.429985,0.064 0.235771,0.012 0.472208,-0.023 0.472208,-0.023 v 1.6864 c 0,0 -0.119669,0.063 -0.418783,0.041 -0.231808,-0.017 -0.486857,-0.1043 -0.486857,-0.1043 z m -0.145627,0.044 a 0.0485,0.0485 0 0 1 0,0.097 c 0,0 -0.07812,4e-4 -0.125807,0.01 -0.08007,0.01 -0.134424,0.037 -0.134424,0.037 a 0.04817978,0.04817978 0 1 1 -0.04481,-0.085 c 0,0 0.0709,-0.037 0.169754,-0.047 0.05712,-0.01 0.135285,-0.01 0.135285,-0.01 z m -0.04653,0.2378 c 0.02667,-7e-4 0.04653,0 0.04653,0 a 0.04817399,0.04817399 0 0 1 0,0.096 c 0,0 -0.07812,4e-4 -0.125807,0.01 -0.08007,0.01 -0.134424,0.037 -0.134424,0.037 a 0.04817978,0.04817978 0 0 1 -0.04481,-0.085 c 0,0 0.0709,-0.038 0.169754,-0.047 0.02856,0 0.06208,0 0.08875,-0.01 z m 0.04653,0.237 a 0.0485,0.0485 0 0 1 0,0.097 c 0,0 -0.07812,-5e-4 -0.125807,0 -0.08007,0.01 -0.134424,0.037 -0.134424,0.037 a 0.04817977,0.04817977 0 0 1 -0.04481,-0.085 c 0,0 0.0709,-0.037 0.169754,-0.047 0.05712,-0.01 0.135285,-0.01 0.135285,-0.01 z"
               style="color:#000000;font-style:normal;font-variant:normal;font-weight:normal;font-stretch:normal;font-size:medium;line-height:normal;font-family:Sans;-inkscape-font-specification:Sans;text-indent:0;text-align:start;text-decoration:none;text-decoration-line:none;letter-spacing:normal;word-spacing:normal;text-transform:none;writing-mode:lr-tb;direction:ltr;baseline-shift:baseline;text-anchor:start;display:inline;overflow:visible;visibility:visible;fill:#32322a;fill-opacity:1;stroke:none;stroke-width:0.09571025;marker:none;enable-background:accumulate"
               id="path3929-8" />
          </g>
          <g
             transform="translate(0,0.09958803)"
             id="g3753">
            <path
               inkscape:connector-curvature="0"
               id="path3912"
               style="font-style:normal;font-variant:normal;font-weight:normal;font-stretch:normal;font-size:medium;line-height:125%;font-family:'Bree Serif';-inkscape-font-specification:'Bree Serif Bold';letter-spacing:-1.99000001px;word-spacing:0px;fill:#32322a;stroke:none;stroke-width:0.05317236"
               d="m 16.020996,1048.2386 v -0.1378 l 0.05615,-0.01 c 0.03289,0 0.04934,-0.019 0.04934,-0.048 v -0.7912 l -0.09699,-0.01 v -0.1446 h 0.464514 c 0.131583,0 0.23254,0.024 0.30287,0.073 0.07033,0.049 0.105493,0.1287 0.105494,0.2399 -10e-7,0.077 -0.02042,0.1406 -0.06125,0.1905 -0.0397,0.05 -0.08734,0.086 -0.142927,0.1089 0.04084,0.015 0.07316,0.049 0.09699,0.1038 l 0.122509,0.2672 h 0.09699 v 0.1446 h -0.420275 v -0.1378 l 0.04934,-0.01 c 0.02609,0 0.03913,-0.014 0.03913,-0.031 -10e-7,-0.01 -0.0023,-0.015 -0.0068,-0.024 l -0.07997,-0.1701 c -0.01248,-0.028 -0.02666,-0.048 -0.04254,-0.06 -0.01475,-0.013 -0.0363,-0.019 -0.06466,-0.019 h -0.154838 v 0.2961 l 0.110599,0.01 v 0.1446 h -0.423677 m 0.313078,-0.6074 h 0.148032 c 0.139524,0 0.209286,-0.062 0.209287,-0.1872 -1e-6,-0.072 -0.01872,-0.118 -0.05615,-0.1395 -0.0363,-0.022 -0.09529,-0.032 -0.176958,-0.032 h -0.124211 v 0.3591" />
            <path
               inkscape:connector-curvature="0"
               id="path3914"
               style="font-style:normal;font-variant:normal;font-weight:normal;font-stretch:normal;font-size:medium;line-height:125%;font-family:'Bree Serif';-inkscape-font-specification:'Bree Serif Bold';letter-spacing:-1.99000001px;word-spacing:0px;fill:#32322a;stroke:none;stroke-width:0.05317236"
               d="m 17.45292,1047.3572 c 0.08507,0 0.152568,0.021 0.20248,0.063 0.04991,0.041 0.07487,0.099 0.07487,0.1735 -1e-6,0.05 -0.01078,0.094 -0.03233,0.1327 -0.02155,0.037 -0.04821,0.067 -0.07997,0.089 -0.03176,0.022 -0.07033,0.039 -0.115703,0.053 -0.076,0.023 -0.161645,0.034 -0.256929,0.034 0.0034,0.06 0.02212,0.1089 0.05615,0.1463 0.03403,0.036 0.08621,0.054 0.156539,0.054 0.07033,0 0.140658,-0.025 0.210988,-0.075 l 0.06466,0.1378 c -0.02269,0.02 -0.06125,0.041 -0.115703,0.063 -0.05332,0.022 -0.114569,0.032 -0.183764,0.032 -0.13839,0 -0.239914,-0.038 -0.304571,-0.114 -0.06466,-0.077 -0.09699,-0.1826 -0.09699,-0.3165 0,-0.1338 0.03687,-0.2461 0.110599,-0.3369 0.07373,-0.091 0.176957,-0.1361 0.309676,-0.1361 m -0.07827,0.3897 c 0.04197,-0.01 0.08054,-0.024 0.115703,-0.049 0.03516,-0.026 0.05275,-0.057 0.05275,-0.092 0,-0.069 -0.03403,-0.1038 -0.102091,-0.1038 -0.06352,0 -0.1123,0.026 -0.14633,0.077 -0.03403,0.05 -0.05275,0.11 -0.05615,0.1804 0.04991,0 0.09528,-0.01 0.136121,-0.012" />
            <path
               inkscape:connector-curvature="0"
               id="path3916"
               style="font-style:normal;font-variant:normal;font-weight:normal;font-stretch:normal;font-size:medium;line-height:125%;font-family:'Bree Serif';-inkscape-font-specification:'Bree Serif Bold';letter-spacing:-1.99000001px;word-spacing:0px;fill:#32322a;stroke:none;stroke-width:0.05317236"
               d="m 18.545777,1047.4168 v 0.6329 c -1e-6,0.018 0.0028,0.031 0.0085,0.037 0.0068,0.01 0.01815,0.011 0.03403,0.012 h 0.05445 v 0.1361 h -0.270541 v -0.099 h -0.0051 c -0.05672,0.082 -0.13442,0.1225 -0.233108,0.1225 -0.115703,0 -0.201346,-0.037 -0.256929,-0.1106 -0.05558,-0.074 -0.08337,-0.1747 -0.08337,-0.3029 0,-0.1542 0.03743,-0.2745 0.1123,-0.3607 0.07487,-0.086 0.187166,-0.1293 0.3369,-0.1293 0.09642,0 0.197375,0.02 0.30287,0.06 m -0.197376,0.5513 v -0.4407 c -0.03176,-0.015 -0.07543,-0.022 -0.131017,-0.022 -0.076,0 -0.131017,0.031 -0.165047,0.092 -0.03403,0.061 -0.05105,0.1424 -0.05105,0.2433 0,0.1838 0.05899,0.2757 0.176958,0.2757 0.04991,0 0.09075,-0.015 0.122509,-0.044 0.03176,-0.031 0.04764,-0.065 0.04764,-0.1037" />
            <path
               inkscape:connector-curvature="0"
               id="path3918"
               style="font-style:normal;font-variant:normal;font-weight:normal;font-stretch:normal;font-size:medium;line-height:125%;font-family:'Bree Serif';-inkscape-font-specification:'Bree Serif Bold';letter-spacing:-1.99000001px;word-spacing:0px;fill:#32322a;stroke:none;stroke-width:0.05317236"
               d="m 19.091192,1047.3572 c 0.04878,0 0.09528,0.01 0.139524,0.02 v -0.1718 c 0,-0.025 -0.01475,-0.039 -0.04424,-0.041 l -0.07316,-0.01 v -0.1344 h 0.316482 v 1.0345 c 0.0011,0.026 0.01531,0.039 0.04254,0.039 h 0.05955 v 0.1361 h -0.275645 v -0.1004 h -0.0051 c -0.05105,0.083 -0.128181,0.1242 -0.231406,0.1242 -0.129315,0 -0.220063,-0.043 -0.272242,-0.1293 -0.04764,-0.078 -0.07146,-0.1741 -0.07146,-0.2876 0,-0.1474 0.0363,-0.2654 0.108897,-0.3539 0.07373,-0.089 0.175823,-0.1327 0.306273,-0.1327 m 0.139524,0.616 v -0.4407 c -0.04084,-0.018 -0.08394,-0.027 -0.129315,-0.027 -0.07487,0 -0.129883,0.03 -0.165047,0.09 -0.03403,0.06 -0.05105,0.1367 -0.05105,0.2297 0,0.1906 0.06125,0.2859 0.183763,0.2859 0.04651,0 0.08507,-0.013 0.115703,-0.039 0.03063,-0.027 0.04594,-0.06 0.04594,-0.099" />
            <path
               inkscape:connector-curvature="0"
               id="path3920"
               style="font-style:italic;font-variant:normal;font-weight:normal;font-stretch:normal;font-size:28px;line-height:125%;font-family:Bitter;-inkscape-font-specification:'Bitter Italic';letter-spacing:-1.99000001px;word-spacing:0px;fill:#32322a;stroke:none;stroke-width:0.05317236"
               d="m 20.195662,1048.1046 c 0,0 -0.07891,0.03 -0.120595,0.03 -0.04169,0 -0.05806,-0.021 -0.05806,-0.074 0,-0.024 0.003,-0.055 0.0089,-0.094 l 0.06402,-0.3975 h 0.205458 l 0.01787,-0.1116 h -0.205458 l 0.03573,-0.2174 -0.147394,0.03 -0.02978,0.1876 -0.148882,0.015 -0.01638,0.097 h 0.147393 l -0.06551,0.4124 c -0.006,0.034 -0.0089,0.067 -0.0089,0.095 0,0.1176 0.04913,0.1772 0.150372,0.1772 0.08337,0 0.195036,-0.069 0.195036,-0.069 l -0.02382,-0.08" />
            <path
               inkscape:connector-curvature="0"
               id="path3922"
               style="font-style:italic;font-variant:normal;font-weight:normal;font-stretch:normal;font-size:28px;line-height:125%;font-family:Bitter;-inkscape-font-specification:'Bitter Italic';letter-spacing:-1.99000001px;word-spacing:0px;fill:#32322a;stroke:none;stroke-width:0.05317236"
               d="m 20.657201,1047.0922 -0.272455,0.01 -0.0134,0.082 0.125062,0.03 -0.163771,1.0273 h 0.141438 l 0.04913,-0.268 c 0,0 0.117617,-0.4094 0.311164,-0.4094 0.05955,0 0.07742,0.043 0.07742,0.098 0,0.021 -0.003,0.043 -0.006,0.065 l -0.08486,0.5137 0.272455,-0.015 0.0134,-0.082 -0.125061,-0.022 0.067,-0.4169 c 0.0045,-0.031 0.0074,-0.061 0.0074,-0.088 0,-0.1072 -0.04318,-0.1802 -0.162282,-0.1802 -0.226301,0 -0.345407,0.2874 -0.351363,0.3037 l 0.11464,-0.6461" />
            <path
               inkscape:connector-curvature="0"
               id="path3924"
               style="font-style:italic;font-variant:normal;font-weight:normal;font-stretch:normal;font-size:28px;line-height:125%;font-family:Bitter;-inkscape-font-specification:'Bitter Italic';letter-spacing:-1.99000001px;word-spacing:0px;fill:#32322a;stroke:none;stroke-width:0.05317236"
               d="m 21.727311,1048.0674 c 0,0 -0.135484,0.067 -0.244168,0.067 -0.111662,0 -0.163771,-0.049 -0.163771,-0.1549 0,-0.019 0.0015,-0.042 0.0045,-0.064 0.308187,0 0.522578,-0.1161 0.522578,-0.2873 0,-0.1176 -0.09529,-0.1936 -0.245657,-0.1936 -0.236722,0 -0.43027,0.2427 -0.43027,0.5509 0,0.1638 0.104217,0.268 0.267988,0.268 0.175682,0 0.333497,-0.1102 0.333497,-0.1102 l -0.04466,-0.076 m -0.390073,-0.2561 c 0.03871,-0.1563 0.147394,-0.265 0.256078,-0.265 0.07593,0 0.111662,0.031 0.111662,0.097 0,0.098 -0.156327,0.1682 -0.36774,0.1682" />
            <path
               inkscape:connector-curvature="0"
               id="path3926"
               style="font-style:normal;font-variant:normal;font-weight:normal;font-stretch:normal;font-size:medium;line-height:125%;font-family:'Bree Serif';-inkscape-font-specification:'Bree Serif Bold';letter-spacing:-1.99000001px;word-spacing:0px;fill:#32322a;stroke:none;stroke-width:0.05317236"
               d="m 22.096619,1048.2386 v -0.1378 l 0.05615,-0.01 c 0.0329,0 0.04934,-0.019 0.04934,-0.048 v -0.7912 l -0.09699,-0.01 v -0.1446 h 0.466215 c 0.166748,0 0.29663,0.044 0.389647,0.1327 0.09415,0.088 0.141225,0.2195 0.141226,0.3931 -1e-6,0.1077 -0.01418,0.2019 -0.04254,0.2824 -0.02836,0.079 -0.06693,0.1418 -0.115703,0.1872 -0.09755,0.091 -0.218929,0.1361 -0.364124,0.1361 h -0.483231 m 0.313079,-0.9665 v 0.8031 h 0.173555 c 0.09755,0 0.173554,-0.035 0.228003,-0.1054 0.05445,-0.07 0.08167,-0.1725 0.08167,-0.3063 0,-0.2609 -0.110599,-0.3914 -0.331795,-0.3914 h -0.151435" />
            <path
               inkscape:connector-curvature="0"
               id="path3928"
               style="font-style:normal;font-variant:normal;font-weight:normal;font-stretch:normal;font-size:medium;line-height:125%;font-family:'Bree Serif';-inkscape-font-specification:'Bree Serif Bold';letter-spacing:-1.99000001px;word-spacing:0px;fill:#32322a;stroke:none;stroke-width:0.05317236"
               d="m 23.58457,1048.1144 c 0.123643,0 0.185464,-0.1 0.185465,-0.2995 -1e-6,-0.1009 -0.01418,-0.1775 -0.04254,-0.2297 -0.02722,-0.052 -0.07373,-0.078 -0.139524,-0.078 -0.06466,0 -0.1123,0.025 -0.142927,0.075 -0.03063,0.05 -0.04594,0.118 -0.04594,0.2042 -1e-6,0.1599 0.02949,0.2603 0.08848,0.3012 0.02609,0.018 0.05842,0.027 0.09699,0.027 m -0.391349,-0.3046 c 0,-0.084 0.01248,-0.1565 0.03743,-0.2178 0.02496,-0.062 0.05842,-0.11 0.100389,-0.1429 0.08054,-0.061 0.169584,-0.092 0.267138,-0.092 0.06806,0 0.125344,0.011 0.171853,0.034 0.04764,0.022 0.08451,0.047 0.110599,0.077 0.02722,0.028 0.04991,0.07 0.06806,0.1259 0.01928,0.055 0.02893,0.1191 0.02893,0.194 -10e-7,0.1565 -0.038,0.2751 -0.114001,0.3556 -0.076,0.081 -0.173556,0.1208 -0.292661,0.1208 -0.117973,0 -0.210421,-0.038 -0.277347,-0.114 -0.06693,-0.077 -0.10039,-0.1906 -0.10039,-0.3403" />
            <path
               inkscape:connector-curvature="0"
               id="path3930"
               style="font-style:normal;font-variant:normal;font-weight:normal;font-stretch:normal;font-size:medium;line-height:125%;font-family:'Bree Serif';-inkscape-font-specification:'Bree Serif Bold';letter-spacing:-1.99000001px;word-spacing:0px;fill:#32322a;stroke:none;stroke-width:0.05317236"
               d="m 24.265276,1047.8013 c -1e-6,0.096 0.01815,0.1713 0.05445,0.2246 0.0363,0.053 0.08848,0.08 0.15654,0.08 0.06919,0 0.137255,-0.024 0.204181,-0.073 l 0.07317,0.131 c -0.08054,0.066 -0.181496,0.099 -0.30287,0.099 -0.121376,0 -0.217227,-0.038 -0.287556,-0.114 -0.0692,-0.077 -0.103793,-0.1906 -0.103793,-0.3403 0,-0.1497 0.0397,-0.262 0.119106,-0.3369 0.08054,-0.076 0.170719,-0.114 0.270541,-0.114 0.100956,0 0.194539,0.023 0.28075,0.07 v 0.2212 l -0.156539,0.012 v -0.082 c -1e-6,-0.031 -0.01134,-0.049 -0.03403,-0.056 -0.02155,-0.01 -0.04424,-0.012 -0.06806,-0.012 -0.137256,0 -0.205884,0.097 -0.205883,0.291" />
            <path
               inkscape:connector-curvature="0"
               id="path3932"
               style="font-style:normal;font-variant:normal;font-weight:normal;font-stretch:normal;font-size:medium;line-height:125%;font-family:'Bree Serif';-inkscape-font-specification:'Bree Serif Bold';letter-spacing:-1.99000001px;word-spacing:0px;fill:#32322a;stroke:none;stroke-width:0.05317236"
               d="m 25.239221,1047.512 c -0.02723,-0.01 -0.06012,-0.015 -0.09869,-0.015 -0.03857,0 -0.06976,0.01 -0.09358,0.027 -0.02269,0.017 -0.03403,0.039 -0.03403,0.065 -10e-7,0.025 0.004,0.045 0.01191,0.06 0.0091,0.014 0.02269,0.025 0.04084,0.036 0.02836,0.015 0.06239,0.028 0.102091,0.039 0.0397,0.01 0.06919,0.019 0.08848,0.026 0.01928,0.01 0.0431,0.016 0.07146,0.031 0.02949,0.015 0.05161,0.031 0.06636,0.048 0.0397,0.042 0.05955,0.096 0.05955,0.1617 -1e-6,0.085 -0.0312,0.152 -0.09358,0.2007 -0.06125,0.048 -0.139525,0.072 -0.234809,0.072 -0.138391,0 -0.24275,-0.018 -0.313079,-0.053 v -0.2365 l 0.153137,-0.012 v 0.082 c -1e-6,0.05 0.04764,0.075 0.142927,0.075 0.09528,0 0.142927,-0.035 0.142927,-0.1038 0,-0.025 -0.0085,-0.045 -0.02552,-0.061 -0.01588,-0.016 -0.03176,-0.027 -0.04764,-0.032 -0.01588,-0.01 -0.03517,-0.011 -0.05785,-0.017 -0.02155,-0.01 -0.04311,-0.011 -0.06466,-0.017 -0.02042,-0.01 -0.04311,-0.013 -0.06806,-0.022 -0.02382,-0.01 -0.05048,-0.024 -0.07997,-0.043 -0.05785,-0.037 -0.08678,-0.1 -0.08678,-0.1871 -10e-7,-0.089 0.03119,-0.1566 0.09358,-0.2042 0.06239,-0.048 0.140658,-0.072 0.234809,-0.072 0.09529,0 0.189435,0.023 0.282452,0.068 v 0.2042 l -0.153137,0.012 v -0.072 c 0,-0.028 -0.01305,-0.048 -0.03913,-0.058" />
          </g>
        </g>
      </g>
    </g>
  </g>
</svg>
