<svg xmlns="http://www.w3.org/2000/svg" width="120" height="60" fill="#03363d"><path d="M88.172 34.636a3.3 3.3 0 0 0 2.376-.917L91.726 35c-.778.8-1.857 1.395-3.534 1.395-2.875 0-4.732-1.906-4.732-4.488a4.42 4.42 0 0 1 4.472-4.5c2.855 0 4.474 2.173 4.332 5.185h-6.75c.24 1.25 1.117 2.05 2.655 2.05m2.057-3.486c-.184-1.17-.88-2.03-2.277-2.03-1.297 0-2.202.734-2.435 2.03zm-46.37 3.387l5.195-5.277h-5.07V27.6h7.48v1.7l-5.195 5.275h5.264v1.657h-7.672zm13.505.094a3.3 3.3 0 0 0 2.376-.917l1.18 1.28c-.778.8-1.857 1.395-3.534 1.395-2.875 0-4.732-1.906-4.732-4.488a4.42 4.42 0 0 1 4.472-4.5c2.855 0 4.474 2.173 4.332 5.185h-6.75c.24 1.25 1.117 2.05 2.655 2.05m2.057-3.486c-.183-1.17-.88-2.03-2.277-2.03-1.297 0-2.202.734-2.435 2.03zm13.252.74c0-2.752 2.06-4.485 4.33-4.485a3.73 3.73 0 0 1 2.875 1.294V23.62h1.835v12.6h-1.835v-1.2a3.69 3.69 0 0 1-2.892 1.362c-2.202 0-4.312-1.74-4.312-4.483m7.307-.016c-.065-2.42-3-3.57-4.7-1.836s-.46 4.648 1.963 4.647c1.576 0 2.736-1.26 2.736-2.8m13.483 2.5l1.662-.862c.448.8 1.3 1.283 2.217 1.26 1.04 0 1.576-.534 1.576-1.138 0-.7-1.004-.846-2.095-1.07-1.468-.3-2.996-.795-2.996-2.57 0-1.363 1.297-2.622 3.34-2.604 1.6 0 2.806.64 3.486 1.672l-1.54.846a2.24 2.24 0 0 0-1.94-.984c-.987 0-1.5.483-1.5 1.035 0 .62.796.793 2.044 1.07 1.42.3 3.03.776 3.03 2.57 0 1.2-1.04 2.793-3.497 2.776-1.8 0-3.064-.725-3.793-2m12.272-2l-1.455 1.587v2.24h-1.835v-12.6h1.835v8.244l3.896-4.277h2.235l-3.378 3.7 3.464 4.932h-2.077zm-38.612-4.97c-2.182 0-4 1.415-4 3.76v5.037h1.87V31.4c0-1.415.813-2.26 2.202-2.26s2.08.846 2.08 2.26v4.804h1.86v-5.037c0-2.345-1.835-3.76-4-3.76M22.94 24.8v16.22H9.505zm0-5.822a6.72 6.72 0 0 1-6.717 6.721 6.72 6.72 0 0 1-6.717-6.721zm2.213 22.04a6.72 6.72 0 0 1 6.717-6.717 6.72 6.72 0 0 1 6.717 6.717zm0-5.822V18.98h13.435z"/></svg>