<?xml version="1.0" encoding="UTF-8" standalone="no"?>
<!-- Generator: Adobe Illustrator 20.0.0, SVG Export Plug-In . SVG Version: 6.00 Build 0)  -->

<svg
   xmlns:dc="http://purl.org/dc/elements/1.1/"
   xmlns:cc="http://creativecommons.org/ns#"
   xmlns:rdf="http://www.w3.org/1999/02/22-rdf-syntax-ns#"
   xmlns:svg="http://www.w3.org/2000/svg"
   xmlns="http://www.w3.org/2000/svg"
   xmlns:sodipodi="http://sodipodi.sourceforge.net/DTD/sodipodi-0.dtd"
   xmlns:inkscape="http://www.inkscape.org/namespaces/inkscape"
   version="1.0"
   id="Layer_1"
   x="0px"
   y="0px"
   viewBox="0 0 120 60.000001"
   xml:space="preserve"
   sodipodi:docname="gartner-ar21.svg"
   width="120"
   height="60"
   inkscape:version="0.92.3 (2405546, 2018-03-11)"><metadata
   id="metadata77"><rdf:RDF><cc:Work
       rdf:about=""><dc:format>image/svg+xml</dc:format><dc:type
         rdf:resource="http://purl.org/dc/dcmitype/StillImage" /><dc:title></dc:title></cc:Work></rdf:RDF></metadata><defs
   id="defs75">
	
	

		
		
		
		
		
		
		
		
	</defs><sodipodi:namedview
   pagecolor="#ffffff"
   bordercolor="#666666"
   borderopacity="1"
   objecttolerance="10"
   gridtolerance="10"
   guidetolerance="10"
   inkscape:pageopacity="0"
   inkscape:pageshadow="2"
   inkscape:window-width="1920"
   inkscape:window-height="1001"
   id="namedview73"
   showgrid="false"
   inkscape:zoom="3.9882353"
   inkscape:cx="41.613663"
   inkscape:cy="20.916756"
   inkscape:window-x="-9"
   inkscape:window-y="-9"
   inkscape:window-maximized="1"
   inkscape:current-layer="Layer_1" />
<style
   type="text/css"
   id="style2">
	.st0{fill:#06549C;}
	.st1{fill:#8DC63F;}
</style>

<g
   id="g942"
   transform="translate(0.44593601)"><g
     transform="translate(0,-0.800288)"
     id="g924"><path
       class="st0"
       d="m 113.09258,27.966993 -0.18085,2.411298 h -0.96452 c -1.56734,0 -2.41129,1.265931 -2.41129,2.47158 v 5.485703 h -2.83328 V 27.966993 h 2.65243 l 0.0603,1.326214 c 0.54254,-0.904237 1.56735,-1.326214 2.77299,-1.326214 z"
       id="path36"
       inkscape:connector-curvature="0"
       style="fill:#06549c;stroke-width:0.60282451" /><path
       class="st0"
       d="M 93.561067,38.395857 H 90.72779 v -5.485703 c 0,-1.145367 -0.120564,-2.592146 -1.748189,-2.592146 -1.567346,0 -2.170169,1.145367 -2.170169,2.471581 v 5.66655 H 83.976155 V 27.966993 H 86.5683 l 0.06028,1.326214 c 0.542544,-0.904237 1.627628,-1.567344 3.134688,-1.567344 2.833277,0 3.737515,2.049604 3.737515,4.159489 v 6.510505 z"
       id="path38"
       inkscape:connector-curvature="0"
       style="fill:#06549c;stroke-width:0.60282451" /><path
       class="st0"
       d="m 82.830789,35.984559 -0.180847,2.351015 c -0.663108,0.180848 -1.265931,0.24113 -1.989322,0.24113 -2.652426,0 -3.436099,-1.205649 -3.436099,-3.677229 v -9.82604 h 2.833277 v 2.95384 h 2.772991 l -0.180847,2.411298 h -2.592144 v 4.280054 c 0,0.96452 0.241129,1.507062 1.265931,1.507062 0.421976,0 0.904237,-0.06028 1.50706,-0.24113 z"
       id="path40"
       inkscape:connector-curvature="0"
       style="fill:#06549c;stroke-width:0.60282451" /><path
       class="st0"
       d="m 76.260001,27.966993 -0.241129,2.411298 h -0.783673 c -1.567342,0 -2.351015,1.265931 -2.351015,2.47158 v 5.485703 H 70.05091 V 27.966993 h 2.652427 l 0.06028,1.326214 c 0.542544,-0.904237 1.567346,-1.326214 2.772995,-1.326214 z"
       id="path42"
       inkscape:connector-curvature="0"
       style="fill:#06549c;stroke-width:0.60282451" /><path
       class="st0"
       d="m 57.391596,37.25049 c -1.929039,1.024802 -3.797797,1.627626 -6.329659,1.567344 -4.70203,-0.120565 -8.017565,-3.014122 -8.017565,-7.957284 0,-4.882878 3.375817,-8.017565 8.017565,-8.077848 2.351016,-0.06028 4.460902,0.542542 6.088526,1.989321 l -1.989318,1.989321 c -1.024802,-0.843954 -2.531865,-1.386497 -4.280054,-1.265932 -2.89356,0.120565 -4.702031,2.230451 -4.702031,5.184291 -0.06028,3.134687 1.929036,5.365138 4.94316,5.425421 1.446777,0.06028 2.471579,-0.180848 3.315535,-0.542542 v -3.255253 h -3.134689 l 0.241133,-2.652427 h 5.907679 v 7.595588 z"
       id="path44"
       inkscape:connector-curvature="0"
       style="fill:#06549c;stroke-width:0.60282451" /><path
       class="st0"
       d="m 105.43671,34.176085 h -7.716156 c 0.241132,1.326214 1.265931,2.109886 2.592146,2.170169 1.26593,0.06028 1.98932,-0.361695 2.89356,-1.265932 l 1.80847,1.386497 c -1.32621,1.627626 -2.89356,2.170168 -4.64175,2.170168 -3.134684,0 -5.4857,-2.170168 -5.4857,-5.485704 0,-3.255252 2.351016,-5.485702 5.36514,-5.485702 3.31553,0 5.18429,2.049603 5.18429,5.606267 z m -2.83328,-2.170168 c -0.0603,-1.326214 -1.08508,-2.170168 -2.4113,-2.109886 -1.386492,0.06028 -2.29073,0.964519 -2.471576,2.109886 z"
       id="path46"
       inkscape:connector-curvature="0"
       style="fill:#06549c;stroke-width:0.60282451" /><path
       class="st0"
       d="m 68.302717,31.58394 v 6.811917 h -2.471579 l -0.06028,-1.024802 c -0.783673,0.964519 -1.989321,1.265932 -3.255252,1.265932 -1.92904,0 -3.737511,-0.96452 -3.797794,-3.134688 -0.06028,-3.436099 3.918358,-3.737512 6.389938,-3.737512 h 0.482259 v -0.120565 c 0,-1.145366 -0.783673,-1.748191 -2.170169,-1.748191 -1.024802,0 -2.049604,0.421977 -2.772991,1.085084 l -1.627628,-1.627626 c 1.446778,-1.205649 3.014124,-1.627626 4.641748,-1.627626 3.255253,0 4.641748,1.507061 4.641748,3.858077 z m -2.712708,2.290733 h -0.361694 c -1.326217,0 -3.677232,0.06028 -3.677232,1.446779 0,1.989321 4.038926,1.326214 4.038926,-1.024802 z"
       id="path48"
       inkscape:connector-curvature="0"
       style="fill:#06549c;stroke-width:0.60282451" /></g><g
     transform="matrix(0.4142126,0,0,0.4142126,6.0181368,13.794701)"
     id="g70">
	<g
   id="g68">
		<path
   style="fill:#06549c"
   inkscape:connector-curvature="0"
   id="path56"
   d="m 39.2,0.6 -0.3,15.5 c 6.7,0.1 13.3,3.3 17.5,8.6 4.2,5.2 6,12.4 4.6,18.9 l 15.2,3.1 C 78.5,35.6 75.5,23.7 68.4,15 61.5,6.1 50.5,0.7 39.2,0.6 Z"
   class="st0" />
		<path
   style="fill:#06549c"
   inkscape:connector-curvature="0"
   id="path58"
   d="m 49.7,59.2 7.5,13.6 c 1.4,-0.8 2.7,-1.6 4,-2.6 L 52,57.6 c -0.7,0.6 -1.5,1.1 -2.3,1.6 z"
   class="st0" />
		<path
   style="fill:#06549c"
   inkscape:connector-curvature="0"
   id="path60"
   d="m 36,62 -1.7,15.4 c 6.1,0.7 12.3,-0.1 17.9,-2.3 L 46.7,60.6 C 43.3,61.9 39.6,62.3 36,62 Z"
   class="st0" />
		<path
   style="fill:#06549c"
   inkscape:connector-curvature="0"
   id="path62"
   d="M 17.5,48.5 C 14.8,42.3 14.9,35 17.9,29 c 1.6,-3.3 4,-6.1 6.9,-8.3 L 15.5,8.2 C 10.6,11.8 6.6,16.7 3.9,22.1 -1.1,32.2 -1.3,44.5 3.3,54.7 7.9,65.1 17.2,73.2 28,76.2 L 32.2,61.3 C 25.8,59.4 20.2,54.6 17.5,48.5 Z"
   class="st0" />
		<path
   style="fill:#8dc63f"
   inkscape:connector-curvature="0"
   id="path64"
   d="m 17.8,6.6 8.5,13 c 2.7,-1.7 6.2,-3 9.8,-3.4 L 34.4,0.8 c -6,0.6 -11.9,2.7 -16.6,5.8 z"
   class="st1" />
		<path
   style="fill:#8dc63f"
   inkscape:connector-curvature="0"
   id="path66"
   d="M 54.6,55.5 65.5,66.6 C 69.9,62.3 73.2,57 75.1,51.3 L 60.4,46.4 c -1.2,3.4 -3.2,6.6 -5.8,9.1 z"
   class="st1" />
	</g>
</g></g>
</svg>