<svg xmlns="http://www.w3.org/2000/svg" width="120" height="60"><defs><linearGradient id="A" x1="42.046" y1="18.109" x2="42.046" y2="60.523" gradientUnits="userSpaceOnUse"><stop offset="0" stop-color="#00b8f1"/><stop offset=".22" stop-color="#06a5e5"/><stop offset=".79" stop-color="#1870c5"/><stop offset="1" stop-color="#1d61bc"/></linearGradient></defs><path d="M0 17.975V60h42.928l42.017-42.02H0z" fill="url(#A)" transform="matrix(1.12162 0 0 1.12162 16.361645 -13.729055)"/><path d="M74.48 28.368h-2.008v-7.342h2.01c2.683 0 4.818.883 4.818 3.626 0 2.833-2.136 3.72-4.818 3.72m-21.63 5.255c-.997.004-1.987-.17-2.923-.515l2.894-9.127h.06l2.836 9.153a8.52 8.52 0 0 1-2.865.492M73.95 15.056h-9.13V36.76l-7.973-21.704h-7.9l-6.81 18.142c-.72-4.567-5.455-6.152-9.18-7.336-2.454-.8-5.067-1.95-5.044-3.235.02-1.05 1.404-2.026 4.13-1.88 1.838.093 3.473.24 6.676 1.797l3.183-5.522c-2.937-1.5-7.006-2.442-10.337-2.448h-.032c-3.884 0-7.12 1.265-9.127 3.34a7.72 7.72 0 0 0-2.185 5.325c-.052 2.796.978 4.78 3.134 6.367 1.823 1.337 4.15 2.196 6.205 2.842 2.535.778 4.604 1.464 4.58 2.923-.015.532-.23 1.038-.602 1.418-.63.65-1.6.9-2.943.932-2.587.052-4.503-.35-7.56-2.156l-2.82 5.594c3.148 1.788 6.703 2.733 10.323 2.746h.477c3.2-.06 5.788-.975 7.854-2.636l.336-.29-.903 2.44h8.285l1.392-4.234c3.127 1.012 6.492 1.026 9.628.04l1.34 4.196H72.47v-8.75h2.952c7.125 0 11.344-3.626 11.344-9.712 0-6.775-4.1-9.883-12.82-9.883" fill="#fff"/></svg>