<?xml version="1.0" encoding="UTF-8" standalone="no"?>
<!-- Created with Inkscape (http://www.inkscape.org/) -->

<svg
   xmlns:dc="http://purl.org/dc/elements/1.1/"
   xmlns:cc="http://creativecommons.org/ns#"
   xmlns:rdf="http://www.w3.org/1999/02/22-rdf-syntax-ns#"
   xmlns:svg="http://www.w3.org/2000/svg"
   xmlns="http://www.w3.org/2000/svg"
   xmlns:sodipodi="http://sodipodi.sourceforge.net/DTD/sodipodi-0.dtd"
   xmlns:inkscape="http://www.inkscape.org/namespaces/inkscape"
   version="1.1"
   width="64"
   height="64"
   viewBox="-3.22 -4.4 66.772549 66.337617"
   id="svg3023"
   xml:space="preserve"
   sodipodi:docname="ceph-icon.svg"
   inkscape:version="0.92.3 (2405546, 2018-03-11)"><sodipodi:namedview
     pagecolor="#ffffff"
     bordercolor="#666666"
     borderopacity="1"
     objecttolerance="10"
     gridtolerance="10"
     guidetolerance="10"
     inkscape:pageopacity="0"
     inkscape:pageshadow="2"
     inkscape:window-width="1920"
     inkscape:window-height="1001"
     id="namedview18"
     showgrid="false"
     inkscape:zoom="6.0479872"
     inkscape:cx="41.612271"
     inkscape:cy="44.097757"
     inkscape:window-x="-9"
     inkscape:window-y="-9"
     inkscape:window-maximized="1"
     inkscape:current-layer="svg3023" /><metadata
     id="metadata3029"><rdf:RDF><cc:Work
         rdf:about=""><dc:format>image/svg+xml</dc:format><dc:type
           rdf:resource="http://purl.org/dc/dcmitype/StillImage" /><dc:title></dc:title></cc:Work></rdf:RDF></metadata><defs
     id="defs3027"><clipPath
       id="clipPath3039"><path
         d="M 0,1765.9 V 0 h 1283.94 v 1765.9 z"
         id="path3041"
         inkscape:connector-curvature="0" /></clipPath></defs><g
     id="g865"
     transform="matrix(0.49862353,0,0,0.49862353,-9.8456585,79.002114)"><path
       inkscape:connector-curvature="0"
       style="fill:#f0424d;fill-opacity:1;fill-rule:nonzero;stroke:none;stroke-width:0.125"
       id="path3043"
       d="m 123.48438,-46.545326 c -4.86675,-2.589375 -7.64651,-5.507875 -8.26176,-8.67675 -0.59325,-3.068375 0.77538,-6.481 4.1885,-10.436125 8.15638,-9.357625 12.64888,-21.378875 12.64888,-33.851375 0,-28.442504 -23.141,-51.586254 -51.586375,-51.586254 -0.04637,0 -0.2275,0.002 -0.2275,0.002 0,0 -0.185625,-0.002 -0.234375,-0.002 -28.446375,0 -51.584,23.14375 -51.584,51.586254 0,12.4725 4.491625,24.49375 12.650875,33.855375 3.4385,3.981375 4.774375,7.255875 4.204125,10.296375 -0.591875,3.1655 -3.378,6.1245 -8.287625,8.8085 -7.527875,-6.274375 -14.184625,-14.657125 -18.291,-23.064875 -2.227125,-4.562875 -3.941375,-9.381625 -5.09725,-14.321625 -1.189888,-5.0775 -1.786075,-10.3175 -1.786075,-15.57375 0,-9.198754 1.799825,-18.133754 5.35695,-26.547504 3.438,-8.1175 8.352,-15.4125 14.61625,-21.67125 6.25725,-6.2625 13.55175,-11.17625 21.671875,-14.6125 8.412,-3.5575 17.34225,-5.36 26.545875,-5.36 0.04875,0 0.2275,0 0.2275,0 0,0 0.188,0 0.234375,0 9.203625,0 18.13525,1.8025 26.548375,5.36 8.11762,3.43625 15.41162,8.35 21.67175,14.6125 6.25875,6.25875 11.1775,13.55375 14.61375,21.67125 3.5575,8.41375 5.36125,17.34875 5.36125,26.547504 0,5.25625 -0.6025,10.49625 -1.78875,15.57375 -1.155,4.94 -2.87,9.75875 -5.1,14.321625 -4.10625,8.411125 -10.7575,16.793 -18.29562,23.068875" /><path
       inkscape:connector-curvature="0"
       style="fill:#f0424d;fill-opacity:1;fill-rule:nonzero;stroke:none;stroke-width:0.125"
       id="path3045"
       d="m 98.32225,-33.787076 c -0.7925,-0.4985 -3.5,-2.512625 -6.139125,-6.168875 -2.53175,-3.49375 -5.51075,-9.289625 -5.355,-17.051375 0.09762,-4.671375 1.034125,-9.220125 2.789125,-13.514625 1.742125,-4.257625 4.240625,-8.158875 7.42325,-11.591375 l 0.0195,-0.02625 c 0.234375,-0.2725 0.466375,-0.54375 0.703125,-0.8125 1.20125,-1.39375 2.442495,-2.8325 3.432625,-4.51625 1.22075,-2.07 2.10937,-4.245 2.63775,-6.47 0.813,-3.43625 0.86087,-7.083754 0.13325,-10.543754 -0.67138,-3.18125 -2.02388,-6.26375 -3.9125,-8.92125 -1.829625,-2.575 -4.2125,-4.82125 -6.894625,-6.49375 -2.795375,-1.74625 -6.00675,-2.915 -9.27775,-3.37875 -1.1075,-0.15875 -2.248625,-0.24 -3.395,-0.24 -0.07863,0 -0.166625,0 -0.245625,0 -0.07862,0 -0.16025,0 -0.24375,0 -1.144,0 -2.2875,0.0812 -3.3915,0.24 -3.269125,0.46375 -6.48,1.6325 -9.278375,3.37875 -2.681625,1.6725 -5.069375,3.91875 -6.8975,6.49375 -1.888125,2.6575 -3.234375,5.74 -3.911625,8.92125 -0.7255,3.46 -0.681625,7.107504 0.13725,10.543754 0.526375,2.225 1.415,4.4 2.63325,6.47 0.995125,1.68375 2.2345,3.1225 3.436125,4.51625 0.23625,0.26875 0.46625,0.54 0.705,0.8125 l 0.01425,0.02625 c 3.188,3.4325 5.684,7.33375 7.42625,11.591375 1.753875,4.2945 2.693875,8.84325 2.786625,13.514625 0.15775,7.76175 -2.82175,13.557625 -5.350625,17.051375 -2.6445,3.65625 -5.349625,5.670375 -6.143,6.168875 -1.327625,-0.355 -2.651875,-0.753875 -3.953625,-1.189875 -3.9185,-1.314 -7.734875,-2.995125 -11.361375,-5.007875 6.234375,-3.354 10.19675,-9.901875 10.19675,-17.038125 0,-4.722125 -1.835375,-9.251875 -5.454125,-13.457 -0.05363,-0.064 -0.109375,-0.11575 -0.150875,-0.15775 -0.0073,-0.01062 -0.019,-0.017 -0.02775,-0.02875 -0.3555,-0.3955 -0.7075,-0.78175 -1.05375,-1.15775 -1.0395,-1.141625 -2.024875,-2.220375 -2.90475,-3.401625 -3.28325,-4.385 -5.6885,-9.5275 -6.958,-14.86875 -1.379875,-5.8075 -1.457125,-11.967504 -0.224625,-17.813754 1.13425,-5.39 3.42675,-10.6175 6.621125,-15.115 3.09025,-4.35125 7.118125,-8.14375 11.646875,-10.9675 4.744625,-2.96 10.183125,-4.93875 15.725625,-5.72875 1.877,-0.27 3.799875,-0.40125 5.72075,-0.40125 0.081,0 0.2695,0 0.2695,0 0.07913,0 0.162125,0 0.243125,0 1.921375,0 3.849625,0.13125 5.724125,0.40125 5.5445,0.79 10.98,2.76875 15.725125,5.72875 4.52875,2.82375 8.55812,6.61625 11.64887,10.9675 3.19238,4.4975 5.48488,9.725 6.62363,15.115 1.228,5.84625 1.14887,12.006254 -0.22713,17.813754 -1.27287,5.34125 -3.67525,10.48375 -6.96287,14.86875 -0.88138,1.18125 -1.86275,2.26 -2.90625,3.401625 -0.34175,0.376 -0.69238,0.76225 -1.04875,1.15775 -0.0122,0.0092 -0.0205,0.01812 -0.0327,0.02875 -0.0415,0.042 -0.10013,0.09625 -0.15037,0.166125 -3.668,4.389625 -5.45263,8.7905 -5.45263,13.448625 0,7.13625 3.96238,13.684125 10.20363,17.038125 -3.628,2.01275 -7.44488,3.693875 -11.36338,5.007875 -1.30125,0.436 -2.630875,0.834875 -3.9575,1.189875" /><path
       inkscape:connector-curvature="0"
       style="fill:#f0424d;fill-opacity:1;fill-rule:nonzero;stroke:none;stroke-width:0.125"
       id="path3047"
       d="m 80.24125,-85.397076 c -7.421875,0 -13.463375,-6.04 -13.463375,-13.46375 0,-7.425004 6.0415,-13.465004 13.463375,-13.465004 7.421875,0 13.460375,6.04 13.460375,13.465004 0,7.42375 -6.0385,13.46375 -13.460375,13.46375" /></g></svg>