<?xml version="1.0" encoding="UTF-8" standalone="no"?>
<!-- Generator: Adobe Illustrator 16.0.3, SVG Export Plug-In . SVG Version: 6.00 Build 0)  -->
<svg xmlns:i="&#38;ns_ai;" xmlns:dc="http://purl.org/dc/elements/1.1/" xmlns:cc="http://creativecommons.org/ns#" xmlns:rdf="http://www.w3.org/1999/02/22-rdf-syntax-ns#" xmlns:svg="http://www.w3.org/2000/svg" xmlns="http://www.w3.org/2000/svg" xmlns:sodipodi="http://sodipodi.sourceforge.net/DTD/sodipodi-0.dtd" xmlns:inkscape="http://www.inkscape.org/namespaces/inkscape" version="1.1" id="Layer_1" x="0px" y="0px" viewBox="0 0 32.000001 31.999998" xml:space="preserve" sodipodi:docname="costco-icon.svg" width="64" height="64" inkscape:version="0.92.2 (5c3e80d, 2017-08-06)">
  <metadata id="metadata57">
    <rdf:RDF>
      <cc:Work rdf:about="">
        <dc:format>image/svg+xml</dc:format>
        <dc:type rdf:resource="http://purl.org/dc/dcmitype/StillImage"/>
        <dc:title/>
      </cc:Work>
    </rdf:RDF>
  </metadata>
  <defs id="defs55"/>
  <sodipodi:namedview pagecolor="#ffffff" bordercolor="#666666" borderopacity="1" objecttolerance="10" gridtolerance="10" guidetolerance="10" inkscape:pageopacity="0" inkscape:pageshadow="2" inkscape:window-width="1920" inkscape:window-height="1001" id="namedview53" showgrid="false" inkscape:zoom="3.9725184" inkscape:cx="8.620518" inkscape:cy="30.54571" inkscape:window-x="-9" inkscape:window-y="-9" inkscape:window-maximized="1" inkscape:current-layer="Layer_1"/>
  <switch id="switch50" transform="matrix(0.17774977,0,0,0.17774977,-97.726836,5.8427471)">
    <g i:extraneous="self" id="g48">
      <g id="g46">
        <path d="m 475.388,32.254 c -8.248,-9.995 -22.793,-15.728 -39.91,-15.728 -18.075,0 -34.397,6.108 -45.679,16.075 0.993,-6.232 1.827,-11.457 1.827,-11.457 l -4.894,-1.458 c -6.922,-2.068 -14.614,-3.16 -22.247,-3.16 -13.09,0 -25.63,4.006 -35.752,10.663 l 2.895,-9.535 h -7.86 -70.514 l -0.925,3.051 c -6.968,-2.804 -14.637,-4.179 -23.266,-4.179 -16.126,0 -33.598,6.239 -42.674,18.28 -0.588,-0.87 -1.22,-1.723 -1.903,-2.552 -8.247,-9.995 -22.793,-15.728 -39.909,-15.728 -17.558,0 -33.454,5.77 -44.691,15.233 1.938,-11.778 4.369,-26.566 4.369,-26.566 L 99.284,3.754 C 90.794,1.297 81.358,0 71.996,0 37.65,0 6.388,21.834 0.825,49.705 c -2.366,11.854 0.396,23.34 7.777,32.341 6.291,7.668 15.583,13.136 26.62,15.931 H 1.193 v 43.525 h 173.339 c 0,0 0.192,-0.387 0.266,-0.534 0.005,0.096 0.032,0.534 0.032,0.534 h 20.866 l 2.831,-4.613 -0.877,4.613 h 47.174 l 0.686,-3.611 c 4.146,2.683 9.54,4.119 15.727,4.119 5.534,0 10.678,-1.142 15.104,-3.177 l -0.508,2.669 h 28.152 9.281 28.711 l 0.108,-0.573 c 3.065,0.69 6.291,1.081 9.369,1.081 1.874,0 3.806,-0.17 5.725,-0.508 h 25.197 c 0,0 1.794,-3.802 1.873,-3.971 0.767,0 0.841,0 1.682,0 0.174,1.354 0.512,3.971 0.512,3.971 h 11.634 15.582 12.568 9.283 28.711 l 3.868,-20.363 c 0,0 -0.961,0 -1.419,0 0.263,-1.389 0.358,-1.888 0.532,-2.799 0.338,0 1.015,0 1.015,0 l 3.869,-20.363 h -2.09 c 1.738,-1.584 2.971,-3.641 3.409,-5.945 0.523,-2.76 -0.188,-5.563 -1.957,-7.698 -0.451,-0.544 -0.966,-1.028 -1.523,-1.462 6.167,-6.334 10.414,-14.021 12.082,-22.642 2.048,-10.573 -0.244,-20.246 -6.619,-27.976 z m -44.421,19.249 c 3.196,0 5.657,0.849 6.929,2.39 1.172,1.419 1.124,3.23 0.879,4.5 -1.016,5.249 -6.41,8.914 -13.12,8.914 -3.264,0 -5.846,-0.861 -7.085,-2.365 -0.859,-1.039 -1.115,-2.499 -0.759,-4.335 0.876,-4.523 5.676,-9.104 13.156,-9.104 z m -56.244,6.513 c -0.244,1.263 -0.423,2.513 -0.548,3.745 -5.242,3.511 -10.161,5.169 -15.419,5.169 -3.559,0 -6.642,-1.159 -8.247,-3.107 -0.911,-1.103 -1.219,-2.34 -0.94,-3.78 0.938,-4.85 7.516,-9.103 14.077,-9.103 4.089,0 7.934,1.438 11.702,4.385 -0.234,0.889 -0.45,1.784 -0.625,2.691 z m 5.316,39.96 -2.563,4.219 -2.129,-1.193 c -1.387,-0.777 -2.852,-1.415 -4.381,-1.936 1.108,-0.27 2.141,-0.564 3.044,-0.895 l 2.986,-1.085 c 0,0 1.354,-5.933 2.923,-12.808 0.391,0.54 0.796,1.069 1.226,1.591 4.426,5.367 10.808,9.473 18.513,12.106 h -0.968 -18.651 z m 25.971,1.779 -1.018,5.355 -1.417,-5.949 c 0.803,0.209 1.611,0.413 2.435,0.594 z M 260.186,51.992 c -0.87,2.869 -2.282,7.521 -3.89,12.82 -0.251,-3.424 -1.313,-6.54 -3.189,-9.305 -0.767,-1.133 -1.676,-2.174 -2.693,-3.146 3.615,-0.137 7.589,-0.286 9.772,-0.369 z m -28.009,-7.81 V 44.18 l 0.008,0.004 z m -84.304,14.211 c -1.016,5.249 -6.41,8.914 -13.12,8.914 -3.263,0 -5.845,-0.861 -7.086,-2.365 -0.607,-0.737 -0.913,-1.684 -0.913,-2.825 0,-0.471 0.052,-0.974 0.155,-1.51 0.875,-4.522 5.675,-9.104 13.156,-9.104 3.196,0 5.657,0.849 6.929,2.39 1.172,1.419 1.124,3.231 0.879,4.5 z m 102.862,24.746 c -1.928,6.349 -3.61,11.895 -4.503,14.837 h -0.175 -17.19 c 8.846,-2.934 16.8,-7.829 21.868,-14.837 z M 84.636,54.652 c -6.687,4.275 -13.003,6.28 -19.785,6.28 -4.982,0 -9.298,-1.639 -11.547,-4.379 -1.3,-1.584 -1.735,-3.34 -1.331,-5.364 1.301,-6.519 9.99,-12.021 18.975,-12.021 6.062,0 11.679,2.261 17.161,6.9 -1.464,2.729 -2.631,5.599 -3.473,8.584 z m 82.93,37.153 5.641,2.539 c 3.114,1.401 6.551,2.616 10.169,3.632 h -10.458 c 0,0 -0.656,1.315 -1.129,2.266 -0.069,-1.103 -0.145,-2.266 -0.145,-2.266 h -18.171 c 5.084,-1.566 9.812,-3.645 14.093,-6.171 z m 138.191,27.81 c 1.218,-6.4 4.115,-21.639 4.115,-21.639 H 302.831 289.9 c 2.637,-8.688 12.131,-39.974 13.994,-46.116 1.103,0.041 2.58,0.098 4.203,0.162 -0.779,2.101 -1.39,4.262 -1.816,6.465 -1.992,10.296 0.429,20.229 6.817,27.967 4.188,5.082 9.916,8.984 16.643,11.522 h -17.483 l -4.113,21.639 c -1.033,0 -1.892,0 -2.388,0 z m 122.243,0 c 0.898,-4.722 2.708,-14.238 3.599,-18.917 0.822,-0.1 1.64,-0.217 2.451,-0.348 l -3.662,19.265 c -1.032,0 -1.891,0 -2.388,0 z m 16.375,-21.639 c 2.55,-0.785 5.01,-1.701 7.371,-2.733 0.348,0.828 0.812,1.618 1.397,2.326 0.119,0.143 0.254,0.273 0.38,0.407 z M 83.332,96.353 86.34,95.294 c 0,0 1.123,-4.77 2.615,-11.109 0.411,0.573 0.836,1.138 1.29,1.685 4.428,5.367 10.808,9.473 18.514,12.106 H 76.937 c 2.401,-0.451 4.598,-0.989 6.395,-1.623 z" id="path2" inkscape:connector-curvature="0" style="fill:#ffffff"/>
        <g id="g44">
          <path d="m 166.174,103.805 1.206,19.018 h 0.304 c 0.624,-1.94 1.314,-3.972 2.284,-5.872 l 6.558,-13.146 h 10.653 l 1.61,19.018 h 0.305 c 0.557,-1.857 1.179,-3.802 2.032,-5.62 l 6.402,-13.397 h 14.459 l -19.552,31.868 h -12.126 l -1.068,-17.33 h -0.457 c -0.465,1.649 -0.872,3.255 -1.626,4.817 l -6.233,12.513 h -11.821 l -7.336,-31.868 h 14.406 z" id="path4" inkscape:connector-curvature="0" style="fill:#005daa"/>
          <path d="m 210.97,103.805 h 13.394 l -2.041,10.732 h 8.523 l 2.04,-10.732 h 13.394 l -6.058,31.868 H 226.83 l 2.104,-11.071 h -8.522 l -2.105,11.071 h -13.394 z" id="path6" inkscape:connector-curvature="0" style="fill:#005daa"/>
          <path d="m 285.501,119.824 c -1.944,10.229 -12.596,16.356 -24.265,16.356 -11.669,0 -19.99,-6.128 -18.047,-16.356 1.903,-10.017 12.679,-16.526 24.297,-16.526 11.618,-0.001 19.918,6.509 18.015,16.526 z m -28.342,0.169 c -0.69,3.633 1.778,6.128 5.989,6.128 4.211,0 7.626,-2.495 8.318,-6.128 0.644,-3.381 -1.56,-6.215 -5.973,-6.215 -4.413,0 -7.69,2.834 -8.334,6.215 z" id="path8" inkscape:connector-curvature="0" style="fill:#005daa"/>
          <path d="m 288.545,103.805 h 13.901 l -4.112,21.639 h 11.668 l -1.943,10.229 H 282.49 Z" id="path10" inkscape:connector-curvature="0" style="fill:#005daa"/>
          <path d="m 342.886,124.263 0.622,0.465 c 2.181,1.605 4.925,2.916 8.121,2.916 1.369,0 3.639,-0.465 3.913,-1.905 0.272,-1.437 -1.529,-1.563 -2.759,-1.775 l -2.709,-0.421 c -5.275,-0.803 -9.336,-3.467 -8.388,-8.454 1.438,-7.564 10.511,-11.791 18.83,-11.791 4.364,0 8.203,0.885 11.596,2.786 l -5.305,8.159 c -2.127,-1.35 -4.615,-2.409 -7.607,-2.409 -1.219,0 -3.067,0.382 -3.316,1.692 -0.225,1.181 1.469,1.351 2.495,1.563 l 3.032,0.591 c 5.676,1.102 9.439,3.724 8.411,9.131 -1.445,7.607 -10.481,11.37 -18.751,11.37 -4.819,0 -10.191,-1.098 -14.158,-2.916 z" id="path12" inkscape:connector-curvature="0" style="fill:#005daa"/>
          <path d="m 390.645,124.133 -0.556,-5.62 c -0.149,-1.354 -0.137,-2.747 -0.134,-4.102 h -0.508 l -4.384,9.722 z m -12.104,11.54 h -14.714 l 19.35,-31.868 h 15.371 l 7.59,31.868 h -14.712 l -0.512,-3.972 h -10.503 z" id="path14" inkscape:connector-curvature="0" style="fill:#005daa"/>
          <path d="m 411.033,103.805 h 13.898 l -4.111,21.639 h 11.667 l -1.943,10.229 h -25.569 z" id="path16" inkscape:connector-curvature="0" style="fill:#005daa"/>
          <path d="m 439.185,103.805 h 25.723 l -1.656,8.706 h -11.72 l -0.577,3.042 h 10.704 l -1.575,8.284 H 449.38 l -0.595,3.13 h 12.126 l -1.656,8.706 h -26.126 z" id="path18" inkscape:connector-curvature="0" style="fill:#005daa"/>
          <g id="g34">
            <path d="m 250.584,46.522 17.552,-0.658 -14.725,48.523 h 31.487 l 14.727,-48.523 17.151,0.658 6.991,-23.039 h -66.191 z" id="path20" inkscape:connector-curvature="0" style="fill:#e31837"/>
            <path d="m 185.385,59.123 c -4.402,22.758 -28.529,36.394 -54.96,36.394 -26.431,0 -45.284,-13.637 -40.882,-36.394 4.312,-22.286 28.718,-36.768 55.034,-36.768 26.317,0 45.121,14.482 40.808,36.768 z M 121.188,59.5 c -1.564,8.088 4.027,13.637 13.565,13.637 9.538,0 17.277,-5.549 18.842,-13.637 1.455,-7.522 -3.532,-13.824 -13.529,-13.824 -9.998,-0.001 -17.422,6.301 -18.878,13.824 z" id="path22" inkscape:connector-curvature="0" style="fill:#e31837"/>
            <path d="m 175.598,89.028 c 8.986,4.045 21.154,6.488 32.071,6.488 18.732,0 39.198,-8.368 42.473,-25.297 2.328,-12.036 -6.196,-17.867 -19.054,-20.311 l -6.87,-1.319 c -2.322,-0.469 -6.156,-0.846 -5.646,-3.479 0.563,-2.914 4.749,-3.761 7.507,-3.761 6.78,0 12.415,2.351 17.234,5.36 L 255.33,28.56 c -7.686,-4.231 -16.382,-6.206 -26.266,-6.206 -18.847,0 -39.397,9.402 -42.654,26.234 -2.146,11.098 7.05,17.021 19.001,18.81 l 6.138,0.941 c 2.783,0.469 6.865,0.751 6.246,3.949 -0.618,3.198 -5.76,4.231 -8.863,4.231 -7.24,0 -13.456,-2.916 -18.396,-6.488 l -1.408,-1.035 z" id="path24" inkscape:connector-curvature="0" style="fill:#e31837"/>
            <path d="m 385.065,25.269 c -6.3,-1.881 -13.455,-2.914 -20.58,-2.914 -25.397,0 -48.48,16.548 -52.481,37.238 -3.913,20.22 12.355,35.923 37.063,35.923 5.631,0 17.517,-0.847 22.955,-2.821 l 6.05,-26.518 c -5.839,4.042 -12.076,6.581 -19.315,6.581 -9.423,0 -16.419,-6.018 -14.908,-13.822 1.491,-7.712 10.374,-13.825 19.798,-13.825 7.123,0 12.808,3.292 17.118,7.146 z" id="path26" inkscape:connector-curvature="0" style="fill:#e31837"/>
            <path d="m 435.478,22.355 c -26.314,0 -50.721,14.482 -55.033,36.768 -4.402,22.758 14.449,36.394 40.881,36.394 26.431,0 50.558,-13.636 54.961,-36.394 4.311,-22.286 -14.492,-36.768 -40.809,-36.768 z m -4.511,23.32 c 9.999,0 14.983,6.302 13.529,13.824 -1.564,8.088 -9.305,13.637 -18.842,13.637 -9.536,0 -15.131,-5.549 -13.566,-13.637 1.456,-7.522 8.88,-13.824 18.879,-13.824 z" id="path28" inkscape:connector-curvature="0" style="fill:#e31837"/>
            <path d="M 97.665,9.353 C 89.807,7.079 80.883,5.829 71.997,5.829 40.321,5.829 11.533,25.836 6.542,50.845 1.663,75.285 21.953,94.27 52.769,94.27 c 7.023,0 21.846,-1.024 28.629,-3.411 l 7.545,-32.058 c -7.282,4.889 -15.062,7.957 -24.091,7.957 -11.753,0 -20.477,-7.275 -18.594,-16.711 1.861,-9.319 12.938,-16.708 24.691,-16.708 8.887,0 15.976,3.977 21.351,8.639 z" id="path30" inkscape:connector-curvature="0" style="fill:#e31837"/>
            <path d="m 456.915,90.942 c 0.471,-2.479 3.23,-4.475 6.232,-4.475 2.987,0 5.004,1.996 4.535,4.475 -0.474,2.491 -3.249,4.487 -6.236,4.487 -3.002,0 -5.004,-1.996 -4.531,-4.487 z m 9.363,0 c 0.378,-1.997 -1.055,-3.303 -3.353,-3.303 -2.342,0 -4.228,1.306 -4.606,3.303 -0.38,1.996 1.009,3.315 3.348,3.315 2.301,0 4.229,-1.319 4.611,-3.315 z m -1.921,2.343 h -1.389 l -0.876,-1.987 h -0.909 l -0.376,1.987 h -1.185 l 0.892,-4.695 h 2.726 c 1.198,0 1.851,0.334 1.641,1.437 -0.152,0.803 -0.781,1.215 -1.508,1.271 z m -1.722,-2.881 c 0.591,0 1.101,0 1.196,-0.504 0.08,-0.412 -0.43,-0.412 -1.022,-0.412 h -1.28 l -0.174,0.916 z" id="path32" inkscape:connector-curvature="0" style="fill:#e31837"/>
          </g>
          <polygon points="155.986,135.673 154.121,127.57 8.741,127.57 8.741,135.725 156.119,135.725 156.108,135.673 " id="polygon36" style="fill:#005daa;stroke:#0060a9;stroke-width:0"/>
          <polygon points="153.333,124.142 151.456,115.987 8.741,115.987 8.741,124.142 " id="polygon38" style="fill:#005daa;stroke:#0060a9;stroke-width:0"/>
          <polygon points="8.741,103.866 8.741,112.506 150.608,112.506 149.97,109.534 148.665,103.866 " id="polygon40" style="fill:#005daa;stroke:#0060a9;stroke-width:0"/>
          <path d="m 316.698,103.805 h 25.722 l -1.655,8.706 h -11.72 l -0.578,3.042 h 10.706 l -1.576,8.284 h -10.704 l -0.595,3.13 h 12.126 l -1.655,8.706 h -26.128 z" id="path42" inkscape:connector-curvature="0" style="fill:#005daa"/>
        </g>
      </g>
    </g>
  </switch>
  <path style="fill:#e31837;stroke-width:0.34840825" inkscape:connector-curvature="0" id="path30-2" d="M 32,1.821217 C 29.262209,1.0289366 26.153014,0.5934248 23.057057,0.5934248 12.020877,0.5934248 1.9909004,7.5640293 0.25199497,16.277371 -1.4478886,24.792468 5.6213153,31.407 16.357864,31.407 c 2.44687,0 7.611326,-0.356771 9.97458,-1.188422 l 2.62874,-11.169271 c -2.537109,1.703369 -5.247725,2.772285 -8.393504,2.772285 -4.094842,0 -7.134355,-2.534669 -6.478302,-5.82225 0.648387,-3.246816 4.507705,-5.821205 8.602547,-5.821205 3.096305,0 5.566171,1.385618 7.438865,3.009899 z"/>
</svg>
