<?xml version="1.0" encoding="UTF-8" standalone="no"?>
<!-- Generator: Adobe Illustrator 21.1.0, SVG Export Plug-In . SVG Version: 6.00 Build 0)  -->

<svg
   xmlns:dc="http://purl.org/dc/elements/1.1/"
   xmlns:cc="http://creativecommons.org/ns#"
   xmlns:rdf="http://www.w3.org/1999/02/22-rdf-syntax-ns#"
   xmlns:svg="http://www.w3.org/2000/svg"
   xmlns="http://www.w3.org/2000/svg"
   xmlns:xlink="http://www.w3.org/1999/xlink"
   xmlns:sodipodi="http://sodipodi.sourceforge.net/DTD/sodipodi-0.dtd"
   xmlns:inkscape="http://www.inkscape.org/namespaces/inkscape"
   version="1.1"
   x="0px"
   y="0px"
   viewBox="0 0 120 60.000002"
   xml:space="preserve"
   id="svg211"
   sodipodi:docname="redirect2me-ar21.svg"
   width="120"
   height="60"
   inkscape:version="0.92.3 (2405546, 2018-03-11)"><metadata
   id="metadata217"><rdf:RDF><cc:Work
       rdf:about=""><dc:format>image/svg+xml</dc:format><dc:type
         rdf:resource="http://purl.org/dc/dcmitype/StillImage" /><dc:title /></cc:Work></rdf:RDF></metadata><defs
   id="defs215">
</defs><sodipodi:namedview
   pagecolor="#ffffff"
   bordercolor="#666666"
   borderopacity="1"
   objecttolerance="10"
   gridtolerance="10"
   guidetolerance="10"
   inkscape:pageopacity="0"
   inkscape:pageshadow="2"
   inkscape:window-width="1920"
   inkscape:window-height="1001"
   id="namedview213"
   showgrid="false"
   inkscape:zoom="8.2395782"
   inkscape:cx="69.218174"
   inkscape:cy="46.340878"
   inkscape:window-x="-9"
   inkscape:window-y="-9"
   inkscape:window-maximized="1"
   inkscape:current-layer="svg211" />
<style
   type="text/css"
   id="style2">
	.st0{display:none;}
	.st1{display:inline;}
	.st2{fill:#231F20;}
	.st3{fill:none;stroke:#231F20;stroke-width:200;stroke-miterlimit:10;}
	.st4{display:inline;fill:url(#SVGID_1_);}
	.st5{display:inline;fill:#1B75BC;}
	.st6{display:inline;fill:#231F20;}
	.st7{fill:url(#SVGID_2_);}
	.st8{fill:url(#SVGID_3_);}
	.st9{display:inline;fill:url(#SVGID_4_);stroke:url(#SVGID_5_);stroke-width:70;stroke-miterlimit:10;}
	.st10{display:inline;fill:none;stroke:#231F20;stroke-width:235;stroke-miterlimit:10;}
	.st11{display:inline;fill:#1A508B;stroke:url(#SVGID_6_);stroke-miterlimit:10;}
	.st12{display:inline;fill:#24629C;stroke:url(#SVGID_7_);stroke-miterlimit:10;}
	.st13{display:inline;fill:#1ABAFD;}
	.st14{display:inline;fill:#3EB7F0;}
	.st15{display:inline;fill:#5CB2E4;}
	.st16{display:inline;fill:#7CC7F5;}
	.st17{display:inline;fill:#8FDAFD;}
	.st18{display:inline;fill:#4692CC;}
	.st19{display:inline;fill:url(#SVGID_8_);stroke:url(#SVGID_9_);stroke-width:70;stroke-miterlimit:10;}
	.st20{fill:url(#SVGID_10_);}
	.st21{fill:url(#SVGID_11_);}
</style>
<g
   id="Layer_1"
   class="st0"
   style="display:none"
   transform="translate(0,-1236.2)">
	<g
   class="st1"
   id="g10"
   style="display:inline">
		<polygon
   class="st2"
   points="-1288.9,-908.3 -1491.1,-1184.8 -1491.1,-1185 -1491.2,-1184.9 -1491.3,-1185 -1491.3,-1184.8 -1692,-907.2 -1493,-907.7 -1487.8,-907.8 "
   id="polygon4"
   style="fill:#231f20" />
		<line
   class="st3"
   x1="-1490.6"
   y1="-1009"
   x2="-1488.3"
   y2="-212.89999"
   id="line6"
   style="fill:none;stroke:#231f20;stroke-width:200;stroke-miterlimit:10" />
		<path
   class="st3"
   d="m -1047.8,-318.8 c 0,0 -457.5,-46.7 -442.7,-624.1"
   id="path8"
   inkscape:connector-curvature="0"
   style="fill:none;stroke:#231f20;stroke-width:200;stroke-miterlimit:10" />
	</g>
	<linearGradient
   id="SVGID_1_"
   gradientUnits="userSpaceOnUse"
   x1="484.76849"
   y1="762.30188"
   x2="1252.1016"
   y2="762.30188">
		<stop
   offset="0"
   style="stop-color:#2B3990"
   id="stop12" />
		<stop
   offset="6.028363e-03"
   style="stop-color:#2B3A91"
   id="stop14" />
		<stop
   offset="0.1641"
   style="stop-color:#2454A4"
   id="stop16" />
		<stop
   offset="0.3271"
   style="stop-color:#1F66B1"
   id="stop18" />
		<stop
   offset="0.4968"
   style="stop-color:#1C71B9"
   id="stop20" />
		<stop
   offset="0.6838"
   style="stop-color:#1B75BC"
   id="stop22" />
	</linearGradient>
	<path
   class="st4"
   d="M 1234,1218.7 C 1226,1218 1036.6,1199.5 850.5,1078.4 739.2,1006 651.6,912 590,799.1 514.4,660.5 479.3,494.6 485.4,305.9 l 199.9,6.5 c -8.9,272.8 83.3,474.1 274.2,598.4 75.7,49.3 152.6,76.5 203.8,90.6 52.6,14.5 88.4,18.2 88.7,18.2 z"
   id="path25"
   inkscape:connector-curvature="0"
   style="display:inline;fill:url(#SVGID_1_)" />
	<polygon
   class="st5"
   points="588.4,0.2 588.5,0 588.5,0.4 889,413.5 688.5,413.5 688.5,1293.7 488.5,1293.7 488.5,413.5 287.8,413.5 588.2,0.4 588.2,0 "
   id="polygon27"
   style="display:inline;fill:#1b75bc" />
	
		<image
   sodipodi:absref="C:\Users\noah\Desktop\arrow-merge-090.png"
   xlink:href="arrow-merge-090.png"
   id="image29"
   transform="matrix(61.3841,0,0,61.3841,-840.4758,-1102.0449)"
   height="16"
   width="16"
   style="display:inline;overflow:visible">
	</image>
	<path
   class="st6"
   d="M 427,-1309.8 H 580.3 L 309.5,-1613 38.7,-1309.8 H 192 v 678.9 h 235 v -184.2 c 17.7,7.7 36.2,14.3 55.7,19.8 51,14.6 108.3,22 171.4,22 19,0 38.4,-0.7 58.4,-2 V -1011 c -86.3,7.6 -190.6,2.2 -242.9,-54.8 -24.2,-26.4 -38.2,-64.2 -41.8,-112.5 z"
   id="path31"
   inkscape:connector-curvature="0"
   style="display:inline;fill:#231f20" />
	<g
   class="st1"
   id="g67"
   style="display:inline">
		<linearGradient
   id="SVGID_2_"
   gradientUnits="userSpaceOnUse"
   x1="-1503.3843"
   y1="-6808.1958"
   x2="-1503.3843"
   y2="-2503.6367">
			<stop
   offset="4.234235e-02"
   style="stop-color:#8FDAFD"
   id="stop33" />
			<stop
   offset="0.1962"
   style="stop-color:#8DD8FC"
   id="stop35" />
			<stop
   offset="0.2516"
   style="stop-color:#86D1F9"
   id="stop37" />
			<stop
   offset="0.2874"
   style="stop-color:#7CC7F5"
   id="stop39" />
			<stop
   offset="0.3655"
   style="stop-color:#66B9E9"
   id="stop41" />
			<stop
   offset="0.4207"
   style="stop-color:#5CB2E4"
   id="stop43" />
			<stop
   offset="0.6189"
   style="stop-color:#3EB7F0"
   id="stop45" />
			<stop
   offset="0.9108"
   style="stop-color:#1ABAFD"
   id="stop47" />
		</linearGradient>
		<path
   class="st7"
   d="m -1278,-5479 h 671.9 L -1793,-6808.2 -2979.8,-5479 h 671.9 v 2975.3 h 1030 V -3311 c 77.5,33.6 158.8,62.6 243.9,87 223.3,64.1 474.8,96.2 751.3,96.2 83.1,0 168.4,-2.9 255.9,-8.7 v -1032.9 c -378.5,33.2 -835.3,9.7 -1064.5,-240.4 -105.9,-115.6 -167.5,-281.5 -183,-493.2 z"
   id="path50"
   inkscape:connector-curvature="0"
   style="fill:url(#SVGID_2_)" />
		<linearGradient
   id="SVGID_3_"
   gradientUnits="userSpaceOnUse"
   x1="-1597.993"
   y1="-7038.5093"
   x2="-1597.993"
   y2="-2350.2385">
			<stop
   offset="9.999977e-02"
   style="stop-color:#377BB6"
   id="stop52" />
			<stop
   offset="0.1357"
   style="stop-color:#377BB6"
   id="stop54" />
			<stop
   offset="0.345"
   style="stop-color:#377BB6"
   id="stop56" />
			<stop
   offset="0.6658"
   style="stop-color:#24629C"
   id="stop58" />
			<stop
   offset="0.8928"
   style="stop-color:#1A508B"
   id="stop60" />
			<stop
   offset="0.9757"
   style="stop-color:#25476B"
   id="stop62" />
		</linearGradient>
		<path
   class="st8"
   d="m -1124.6,-2350.2 h -1336.8 v -2975.3 h -861.1 l 1529.5,-1713 1529.5,1712.9 h -860.1 l 2.6,416.4 c 13.4,173.9 61.4,307.1 142.7,395.7 80.6,87.9 211.6,148.1 389.4,178.9 153.5,26.6 338,30.7 548.6,12.3 l 166.8,-14.6 V -2993 l -143.2,9.5 c -90.2,6 -179.8,9.1 -266.1,9.1 -290.4,0 -557.4,-34.4 -793.6,-102.2 -16.2,-4.6 -32.2,-9.4 -48.2,-14.4 z m -1030,-306.8 h 723.2 v -887.6 l 214.4,92.9 c 71.1,30.8 146.9,57.8 225.3,80.3 208.7,59.9 447.2,90.3 709,90.3 33.7,0 67.9,-0.5 102.5,-1.5 v -723.5 c -170.2,6.2 -324.7,-2.5 -461,-26.1 -246.2,-42.7 -435.7,-134.9 -563.2,-273.9 -129.8,-141.7 -204.8,-338.7 -222.9,-585.6 l -0.4,-5.1 -4.6,-735.5 h 483.6 l -844.2,-945.5 -844.2,945.5 h 482.7 V -2657 Z"
   id="path65"
   inkscape:connector-curvature="0"
   style="fill:url(#SVGID_3_)" />
	</g>
	<linearGradient
   id="SVGID_4_"
   gradientUnits="userSpaceOnUse"
   x1="-3171.5112"
   y1="-1537.1835"
   x2="-3171.5112"
   y2="-550.51343">
		<stop
   offset="4.234235e-02"
   style="stop-color:#8FDAFD"
   id="stop69" />
		<stop
   offset="0.1962"
   style="stop-color:#8DD8FC"
   id="stop71" />
		<stop
   offset="0.2516"
   style="stop-color:#86D1F9"
   id="stop73" />
		<stop
   offset="0.2874"
   style="stop-color:#7CC7F5"
   id="stop75" />
		<stop
   offset="0.3655"
   style="stop-color:#66B9E9"
   id="stop77" />
		<stop
   offset="0.4207"
   style="stop-color:#5CB2E4"
   id="stop79" />
		<stop
   offset="0.6189"
   style="stop-color:#3EB7F0"
   id="stop81" />
		<stop
   offset="0.9108"
   style="stop-color:#1ABAFD"
   id="stop83" />
	</linearGradient>
	<linearGradient
   id="SVGID_5_"
   gradientUnits="userSpaceOnUse"
   x1="-3192.1018"
   y1="-1589.7332"
   x2="-3192.1018"
   y2="-514.83368">
		<stop
   offset="3.513514e-02"
   style="stop-color:#4692CC"
   id="stop86" />
		<stop
   offset="0.1613"
   style="stop-color:#377BB6"
   id="stop88" />
		<stop
   offset="0.1755"
   style="stop-color:#377BB6"
   id="stop90" />
		<stop
   offset="0.2586"
   style="stop-color:#377BB6"
   id="stop92" />
		<stop
   offset="0.6658"
   style="stop-color:#24629C"
   id="stop94" />
		<stop
   offset="0.8928"
   style="stop-color:#1A508B"
   id="stop96" />
		<stop
   offset="0.9757"
   style="stop-color:#25476B"
   id="stop98" />
	</linearGradient>
	<path
   class="st9"
   d="m -3120.1,-1233.9 h 153.3 l -270.8,-303.3 -270.8,303.3 153.3,4.5 v 678.9 l 235,-4.5 v -184.2 c 17.7,7.7 36.2,14.3 55.7,19.8 51,14.6 108.3,22 171.4,22 18.9,0 38.4,-0.7 58.4,-2 v -235.7 c -86.3,7.6 -190.6,2.2 -242.9,-54.8 -24.2,-26.4 -38.2,-64.2 -41.8,-112.5 z"
   id="path101"
   inkscape:connector-curvature="0"
   style="display:inline;fill:url(#SVGID_4_);stroke:url(#SVGID_5_);stroke-width:70;stroke-miterlimit:10" />
	<path
   class="st10"
   d="M -472.2,-798.8"
   id="path103"
   inkscape:connector-curvature="0"
   style="display:inline;fill:none;stroke:#231f20;stroke-width:235;stroke-miterlimit:10" />
	<rect
   x="-1237.5"
   y="459"
   class="st6"
   width="1140.1"
   height="435"
   id="rect105"
   style="display:inline;fill:#231f20" />
	<path
   class="st6"
   d="m -350.1,-745.1 c -0.6,3.1 -4.6,25 -4.6,54.9 v -55.4 l 4.5,1 c 0,0 0.1,-0.2 0.1,-0.5 z"
   id="path107"
   inkscape:connector-curvature="0"
   style="display:inline;fill:#231f20" />
	<linearGradient
   id="SVGID_6_"
   gradientUnits="userSpaceOnUse"
   x1="1036.608"
   y1="-1048.6049"
   x2="1322.6365"
   y2="-1048.6049">
		<stop
   offset="0"
   style="stop-color:#FFFFFF"
   id="stop109" />
		<stop
   offset="0.8928"
   style="stop-color:#1A508B"
   id="stop111" />
	</linearGradient>
	
		<rect
   x="1037.1"
   y="-1210.6"
   transform="rotate(-180,1179.6223,-1048.6049)"
   class="st11"
   width="285"
   height="324"
   id="rect114"
   style="display:inline;fill:#1a508b;stroke:url(#SVGID_6_);stroke-miterlimit:10" />
	<linearGradient
   id="SVGID_7_"
   gradientUnits="userSpaceOnUse"
   x1="1036.608"
   y1="-1378.7627"
   x2="1322.6365"
   y2="-1378.7627">
		<stop
   offset="0.291"
   style="stop-color:#24629C"
   id="stop116" />
		<stop
   offset="0.3739"
   style="stop-color:#24629C"
   id="stop118" />
		<stop
   offset="0.8928"
   style="stop-color:#1A508B"
   id="stop120" />
	</linearGradient>
	
		<rect
   x="1037.1"
   y="-1546.9"
   transform="rotate(-180,1179.6223,-1378.7627)"
   class="st12"
   width="285"
   height="336.29999"
   id="rect123"
   style="display:inline;fill:#24629c;stroke:url(#SVGID_7_);stroke-miterlimit:10" />
	
		<rect
   x="1262.9"
   y="-2502.3"
   transform="rotate(-180,1401.6444,-2368.7368)"
   class="st13"
   width="277.5"
   height="267"
   id="rect125"
   style="display:inline;fill:#1abafd" />
	<rect
   x="983.90002"
   y="-2502.3"
   class="st14"
   width="180"
   height="234"
   id="rect127"
   style="display:inline;fill:#3eb7f0" />
	<rect
   x="731.79999"
   y="-2400.2"
   class="st15"
   width="180"
   height="234"
   id="rect129"
   style="display:inline;fill:#5cb2e4" />
	<rect
   x="392.79999"
   y="-2385.2"
   class="st16"
   width="180"
   height="234"
   id="rect131"
   style="display:inline;fill:#7cc7f5" />
	<rect
   x="-51.299999"
   y="-2439.2"
   class="st17"
   width="180"
   height="234"
   id="rect133"
   style="display:inline;fill:#8fdafd" />
	<rect
   x="-6854.5"
   y="-4181.3999"
   class="st18"
   width="1290.5"
   height="1290.5"
   id="rect135"
   style="display:inline;fill:#4692cc" />
	<linearGradient
   id="SVGID_8_"
   gradientUnits="userSpaceOnUse"
   x1="-3171.5112"
   y1="545.95129"
   x2="-3171.5112"
   y2="1528.1013">
		<stop
   offset="4.234235e-02"
   style="stop-color:#8FDAFD"
   id="stop137" />
		<stop
   offset="0.1962"
   style="stop-color:#8DD8FC"
   id="stop139" />
		<stop
   offset="0.2516"
   style="stop-color:#86D1F9"
   id="stop141" />
		<stop
   offset="0.2874"
   style="stop-color:#7CC7F5"
   id="stop143" />
		<stop
   offset="0.3655"
   style="stop-color:#66B9E9"
   id="stop145" />
		<stop
   offset="0.4207"
   style="stop-color:#5CB2E4"
   id="stop147" />
		<stop
   offset="0.6189"
   style="stop-color:#3EB7F0"
   id="stop149" />
		<stop
   offset="0.9108"
   style="stop-color:#1ABAFD"
   id="stop151" />
	</linearGradient>
	<linearGradient
   id="SVGID_9_"
   gradientUnits="userSpaceOnUse"
   x1="-3193.0979"
   y1="493.40149"
   x2="-3193.0979"
   y2="1563.1013">
		<stop
   offset="3.513514e-02"
   style="stop-color:#4692CC"
   id="stop154" />
		<stop
   offset="0.1613"
   style="stop-color:#377BB6"
   id="stop156" />
		<stop
   offset="0.1755"
   style="stop-color:#377BB6"
   id="stop158" />
		<stop
   offset="0.2586"
   style="stop-color:#377BB6"
   id="stop160" />
		<stop
   offset="0.6658"
   style="stop-color:#24629C"
   id="stop162" />
		<stop
   offset="0.8928"
   style="stop-color:#1A508B"
   id="stop164" />
		<stop
   offset="0.9757"
   style="stop-color:#25476B"
   id="stop166" />
	</linearGradient>
	<path
   class="st19"
   d="m -3120.1,849.2 h 153.3 L -3237.6,546 -3508.4,849.3 h 153.3 v 678.9 h 235 V 1344 c 17.7,7.7 36.2,14.3 55.7,19.8 51,14.6 108.3,22 171.4,22 18.9,0 38.4,-0.7 58.4,-2 V 1148 c -86.3,7.6 -190.6,2.2 -242.9,-54.8 -24.2,-26.4 -38.2,-64.2 -41.8,-112.5 z"
   id="path169"
   inkscape:connector-curvature="0"
   style="display:inline;fill:url(#SVGID_8_);stroke:url(#SVGID_9_);stroke-width:70;stroke-miterlimit:10" />
</g>

<g
   id="Layer_2"
   transform="matrix(0.03716795,0,0,0.03716795,-0.59697303,7.6360445)">
	<g
   id="g208">
		<linearGradient
   id="SVGID_10_"
   gradientUnits="userSpaceOnUse"
   x1="686.2016"
   y1="119.7445"
   x2="686.2016"
   y2="1101.2148">
			<stop
   offset="4.234235e-02"
   style="stop-color:#8FDAFD"
   id="stop172" />
			<stop
   offset="0.1962"
   style="stop-color:#8DD8FC"
   id="stop174" />
			<stop
   offset="0.2516"
   style="stop-color:#86D1F9"
   id="stop176" />
			<stop
   offset="0.2874"
   style="stop-color:#7CC7F5"
   id="stop178" />
			<stop
   offset="0.3655"
   style="stop-color:#66B9E9"
   id="stop180" />
			<stop
   offset="0.4207"
   style="stop-color:#5CB2E4"
   id="stop182" />
			<stop
   offset="0.6189"
   style="stop-color:#3EB7F0"
   id="stop184" />
			<stop
   offset="0.9108"
   style="stop-color:#1ABAFD"
   id="stop186" />
		</linearGradient>
		<path
   class="st20"
   d="M 737.6,422.8 H 890.8 L 620.2,119.7 349.6,422.8 h 153.2 v 678.4 H 737.6 V 917.1 c 17.7,7.7 36.2,14.3 55.6,19.8 50.9,14.6 108.3,21.9 171.3,21.9 18.9,0 38.4,-0.7 58.3,-2 V 721.4 C 936.5,729 832.4,723.6 780.1,666.6 755.9,640.2 741.9,602.4 738.4,554.2 Z"
   id="path189"
   inkscape:connector-curvature="0"
   style="fill:url(#SVGID_10_)" />
		<linearGradient
   id="SVGID_11_"
   gradientUnits="userSpaceOnUse"
   x1="664.62982"
   y1="67.2313"
   x2="664.62982"
   y2="1136.1903">
			<stop
   offset="3.513514e-02"
   style="stop-color:#4692CC"
   id="stop191" />
			<stop
   offset="0.1613"
   style="stop-color:#377BB6"
   id="stop193" />
			<stop
   offset="0.1755"
   style="stop-color:#377BB6"
   id="stop195" />
			<stop
   offset="0.2586"
   style="stop-color:#377BB6"
   id="stop197" />
			<stop
   offset="0.6658"
   style="stop-color:#24629C"
   id="stop199" />
			<stop
   offset="0.8928"
   style="stop-color:#1A508B"
   id="stop201" />
			<stop
   offset="0.9757"
   style="stop-color:#25476B"
   id="stop203" />
		</linearGradient>
		<path
   class="st21"
   d="M 772.6,1136.2 H 467.8 V 457.8 H 271.4 L 620.2,67.2 968.9,457.8 H 772.8 l 0.6,95 c 3.1,39.7 14,70 32.5,90.2 18.4,20 48.2,33.8 88.8,40.8 35,6.1 77.1,7 125.1,2.8 l 38,-3.3 v 306.4 l -32.7,2.2 c -20.6,1.4 -41,2.1 -60.7,2.1 -66.2,0 -127.1,-7.8 -180.9,-23.3 -3.7,-1.1 -7.4,-2.2 -11,-3.3 v 168.8 z m -234.9,-70 H 702.6 V 863.9 l 48.9,21.2 c 16.2,7 33.5,13.2 51.4,18.3 47.6,13.7 102,20.6 161.6,20.6 7.7,0 15.5,-0.1 23.4,-0.3 v -165 c -38.8,1.4 -74,-0.6 -105.1,-6 C 826.7,743 783.5,721.9 754.4,690.2 724.8,657.9 707.7,613 703.6,556.7 l -0.1,-1.2 v -1.2 l -1,-166.5 H 812.8 L 620.2,172.3 427.7,387.8 h 110.1 v 678.4 z"
   id="path206"
   inkscape:connector-curvature="0"
   style="fill:url(#SVGID_11_)" />
	</g>
</g><g
   id="g1054"
   style="fill:#4d4d4d"><path
     d="m 42.975698,20.302235 v 8.531879 h 2.343379 v -3.845121 q 0,-0.577594 0.115518,-1.072674 0.115519,-0.49508 0.379562,-0.858138 0.280545,-0.379562 0.726117,-0.594096 0.445572,-0.214535 1.089176,-0.214535 0.214535,0 0.445572,0.033 0.231037,0.0165 0.396064,0.04951 v -2.178352 q -0.280545,-0.08251 -0.511583,-0.08251 -0.445572,0 -0.858138,0.132021 -0.412567,0.132022 -0.775626,0.379562 -0.363058,0.231037 -0.643604,0.577593 -0.280545,0.330053 -0.445572,0.726117 h -0.033 v -1.584256 z"
     style="font-style:normal;font-variant:normal;font-weight:bold;font-stretch:normal;font-size:16.50266647px;line-height:1.25;font-family:'Helvetica Neue';-inkscape-font-specification:'Helvetica Neue, Bold';font-variant-ligatures:normal;font-variant-caps:normal;font-variant-numeric:normal;font-feature-settings:normal;text-align:start;letter-spacing:0px;word-spacing:0px;writing-mode:lr-tb;text-anchor:start;fill:#4d4d4d;fill-opacity:1;stroke:none;stroke-width:0.41256562"
     id="path958"
     inkscape:connector-curvature="0" /><path
     d="m 54.842662,23.652277 h -3.812116 q 0.0165,-0.24754 0.09902,-0.561091 0.09902,-0.313551 0.313551,-0.594096 0.231037,-0.280545 0.594096,-0.462075 0.379561,-0.198032 0.940652,-0.198032 0.858139,0 1.270705,0.462075 0.42907,0.462075 0.594096,1.353219 z m -3.812116,1.48524 h 6.155495 q 0.06601,-0.99016 -0.165027,-1.897807 -0.231037,-0.907647 -0.759122,-1.617261 -0.511583,-0.709615 -1.320214,-1.122182 -0.80863,-0.429069 -1.897806,-0.429069 -0.973658,0 -1.782288,0.346556 -0.792128,0.346556 -1.369722,0.957155 -0.577593,0.594096 -0.891144,1.419229 -0.31355,0.825133 -0.31355,1.782288 0,0.99016 0.297048,1.815293 0.31355,0.825134 0.874641,1.41923 0.561091,0.594096 1.369721,0.924149 0.808631,0.313551 1.815294,0.313551 1.452234,0 2.4754,-0.660107 1.023165,-0.660107 1.518245,-2.194855 h -2.062833 q -0.115519,0.396064 -0.627102,0.759123 -0.511582,0.346556 -1.221197,0.346556 -0.99016,0 -1.518245,-0.511583 -0.528086,-0.511582 -0.577594,-1.650266 z"
     style="font-style:normal;font-variant:normal;font-weight:bold;font-stretch:normal;font-size:16.50266647px;line-height:1.25;font-family:'Helvetica Neue';-inkscape-font-specification:'Helvetica Neue, Bold';font-variant-ligatures:normal;font-variant-caps:normal;font-variant-numeric:normal;font-feature-settings:normal;text-align:start;letter-spacing:0px;word-spacing:0px;writing-mode:lr-tb;text-anchor:start;fill:#4d4d4d;fill-opacity:1;stroke:none;stroke-width:0.41256562"
     id="path960"
     inkscape:connector-curvature="0" /><path
     d="m 64.632354,24.543421 q 0,0.528085 -0.09902,1.023165 -0.09902,0.49508 -0.330053,0.891144 -0.231037,0.379561 -0.627101,0.610599 -0.379562,0.231037 -0.957155,0.231037 -0.544588,0 -0.940652,-0.231037 -0.379561,-0.24754 -0.643604,-0.627102 -0.24754,-0.396064 -0.363059,-0.891144 -0.115518,-0.49508 -0.115518,-0.99016 0,-0.528085 0.09902,-1.006662 0.115518,-0.49508 0.346556,-0.874642 0.24754,-0.379561 0.643604,-0.610598 0.396064,-0.231038 0.973657,-0.231038 0.577593,0 0.957155,0.231038 0.379561,0.231037 0.610598,0.610598 0.24754,0.363059 0.346556,0.858139 0.09902,0.478577 0.09902,1.006663 z m 0.03301,3.201517 v 1.089176 h 2.22786 V 17.05121 h -2.343383 v 4.290693 h -0.03301 q -0.396064,-0.627101 -1.089176,-0.940652 -0.67661,-0.330053 -1.435732,-0.330053 -0.940652,0 -1.650267,0.379561 -0.709615,0.363059 -1.188192,0.973658 -0.462075,0.610598 -0.709615,1.419229 -0.231037,0.792128 -0.231037,1.650267 0,0.891144 0.231037,1.716277 0.24754,0.825133 0.709615,1.468737 0.478577,0.627102 1.204695,1.006663 0.726117,0.363059 1.683272,0.363059 0.841636,0 1.501742,-0.297048 0.67661,-0.313551 1.089176,-1.006663 z"
     style="font-style:normal;font-variant:normal;font-weight:bold;font-stretch:normal;font-size:16.50266647px;line-height:1.25;font-family:'Helvetica Neue';-inkscape-font-specification:'Helvetica Neue, Bold';font-variant-ligatures:normal;font-variant-caps:normal;font-variant-numeric:normal;font-feature-settings:normal;text-align:start;letter-spacing:0px;word-spacing:0px;writing-mode:lr-tb;text-anchor:start;fill:#4d4d4d;fill-opacity:1;stroke:none;stroke-width:0.41256562"
     id="path962"
     inkscape:connector-curvature="0" /><path
     d="M 71.073808,18.982022 V 17.05121 h -2.343379 v 1.930812 z m -2.343379,1.320213 v 8.531879 h 2.343379 v -8.531879 z"
     style="font-style:normal;font-variant:normal;font-weight:bold;font-stretch:normal;font-size:16.50266647px;line-height:1.25;font-family:'Helvetica Neue';-inkscape-font-specification:'Helvetica Neue, Bold';font-variant-ligatures:normal;font-variant-caps:normal;font-variant-numeric:normal;font-feature-settings:normal;text-align:start;letter-spacing:0px;word-spacing:0px;writing-mode:lr-tb;text-anchor:start;fill:#4d4d4d;fill-opacity:1;stroke:none;stroke-width:0.41256562"
     id="path964"
     inkscape:connector-curvature="0" /><path
     d="m 72.919013,20.302235 v 8.531879 h 2.343379 v -3.845121 q 0,-0.577594 0.115519,-1.072674 0.115518,-0.49508 0.379561,-0.858138 0.280545,-0.379562 0.726117,-0.594096 0.445572,-0.214535 1.089176,-0.214535 0.214535,0 0.445572,0.033 0.231038,0.0165 0.396064,0.04951 v -2.178352 q -0.280545,-0.08251 -0.511582,-0.08251 -0.445572,0 -0.858139,0.132021 -0.412567,0.132022 -0.775625,0.379562 -0.363059,0.231037 -0.643604,0.577593 -0.280546,0.330053 -0.445572,0.726117 h -0.03301 v -1.584256 z"
     style="font-style:normal;font-variant:normal;font-weight:bold;font-stretch:normal;font-size:16.50266647px;line-height:1.25;font-family:'Helvetica Neue';-inkscape-font-specification:'Helvetica Neue, Bold';font-variant-ligatures:normal;font-variant-caps:normal;font-variant-numeric:normal;font-feature-settings:normal;text-align:start;letter-spacing:0px;word-spacing:0px;writing-mode:lr-tb;text-anchor:start;fill:#4d4d4d;fill-opacity:1;stroke:none;stroke-width:0.41256562"
     id="path966"
     inkscape:connector-curvature="0" /><path
     d="m 84.785978,23.652277 h -3.812116 q 0.0165,-0.24754 0.09902,-0.561091 0.09902,-0.313551 0.313551,-0.594096 0.231037,-0.280545 0.594096,-0.462075 0.379561,-0.198032 0.940652,-0.198032 0.858139,0 1.270705,0.462075 0.42907,0.462075 0.594096,1.353219 z m -3.812116,1.48524 h 6.155495 q 0.06601,-0.99016 -0.165027,-1.897807 -0.231037,-0.907647 -0.759123,-1.617261 -0.511582,-0.709615 -1.320213,-1.122182 -0.80863,-0.429069 -1.897806,-0.429069 -0.973658,0 -1.782288,0.346556 -0.792128,0.346556 -1.369722,0.957155 -0.577593,0.594096 -0.891144,1.419229 -0.31355,0.825133 -0.31355,1.782288 0,0.99016 0.297048,1.815293 0.31355,0.825134 0.874641,1.41923 0.561091,0.594096 1.369721,0.924149 0.808631,0.313551 1.815294,0.313551 1.452234,0 2.4754,-0.660107 1.023165,-0.660107 1.518245,-2.194855 H 84.918 q -0.115519,0.396064 -0.627102,0.759123 -0.511582,0.346556 -1.221197,0.346556 -0.99016,0 -1.518245,-0.511583 -0.528086,-0.511582 -0.577594,-1.650266 z"
     style="font-style:normal;font-variant:normal;font-weight:bold;font-stretch:normal;font-size:16.50266647px;line-height:1.25;font-family:'Helvetica Neue';-inkscape-font-specification:'Helvetica Neue, Bold';font-variant-ligatures:normal;font-variant-caps:normal;font-variant-numeric:normal;font-feature-settings:normal;text-align:start;letter-spacing:0px;word-spacing:0px;writing-mode:lr-tb;text-anchor:start;fill:#4d4d4d;fill-opacity:1;stroke:none;stroke-width:0.41256562"
     id="path968"
     inkscape:connector-curvature="0" /><path
     d="m 94.328128,23.305721 h 2.293871 q -0.04951,-0.825134 -0.396064,-1.41923 -0.346556,-0.610598 -0.907647,-1.006662 -0.544588,-0.412567 -1.254203,-0.610599 -0.693112,-0.198032 -1.452234,-0.198032 -1.039668,0 -1.848299,0.346556 -0.808631,0.346556 -1.369721,0.973657 -0.561091,0.610599 -0.858139,1.468738 -0.280545,0.841636 -0.280545,1.831796 0,0.957154 0.31355,1.765785 0.313551,0.792128 0.874642,1.369721 0.56109,0.577594 1.353218,0.907647 0.808631,0.313551 1.765786,0.313551 1.699774,0 2.78895,-0.891144 1.089176,-0.891144 1.320214,-2.590919 h -2.260866 q -0.115518,0.792128 -0.577593,1.270705 -0.445572,0.462075 -1.287208,0.462075 -0.544588,0 -0.924149,-0.24754 -0.379562,-0.24754 -0.610599,-0.627101 -0.214535,-0.396064 -0.313551,-0.874642 -0.09902,-0.478577 -0.09902,-0.940652 0,-0.478577 0.09902,-0.957154 0.09902,-0.49508 0.330054,-0.891144 0.24754,-0.412567 0.627101,-0.660107 0.379561,-0.264043 0.940652,-0.264043 1.501743,0 1.73278,1.468738 z"
     style="font-style:normal;font-variant:normal;font-weight:bold;font-stretch:normal;font-size:16.50266647px;line-height:1.25;font-family:'Helvetica Neue';-inkscape-font-specification:'Helvetica Neue, Bold';font-variant-ligatures:normal;font-variant-caps:normal;font-variant-numeric:normal;font-feature-settings:normal;text-align:start;letter-spacing:0px;word-spacing:0px;writing-mode:lr-tb;text-anchor:start;fill:#4d4d4d;fill-opacity:1;stroke:none;stroke-width:0.41256562"
     id="path970"
     inkscape:connector-curvature="0" /><path
     d="m 100.96581,20.302235 v -2.557913 h -2.343376 v 2.557913 h -1.41923 v 1.567754 h 1.41923 v 5.033313 q 0,0.643604 0.214534,1.039668 0.214535,0.396064 0.577594,0.610599 0.379561,0.214534 0.858138,0.280545 0.49508,0.08251 1.03967,0.08251 0.34655,0 0.70961,-0.0165 0.36306,-0.0165 0.66011,-0.06601 v -1.815293 q -0.16503,0.033 -0.34656,0.04951 -0.18153,0.0165 -0.37956,0.0165 -0.59409,0 -0.79213,-0.198032 -0.19803,-0.198032 -0.19803,-0.792128 v -4.224682 h 1.71628 v -1.567754 z"
     style="font-style:normal;font-variant:normal;font-weight:bold;font-stretch:normal;font-size:16.50266647px;line-height:1.25;font-family:'Helvetica Neue';-inkscape-font-specification:'Helvetica Neue, Bold';font-variant-ligatures:normal;font-variant-caps:normal;font-variant-numeric:normal;font-feature-settings:normal;text-align:start;letter-spacing:0px;word-spacing:0px;writing-mode:lr-tb;text-anchor:start;fill:#4d4d4d;fill-opacity:1;stroke:none;stroke-width:0.41256562"
     id="path972"
     inkscape:connector-curvature="0" /></g><path
   inkscape:connector-curvature="0"
   id="path974"
   style="font-style:normal;font-variant:normal;font-weight:bold;font-stretch:normal;font-size:16.50266647px;line-height:1.25;font-family:'Helvetica Neue';-inkscape-font-specification:'Helvetica Neue, Bold';font-variant-ligatures:normal;font-variant-caps:normal;font-variant-numeric:normal;font-feature-settings:normal;text-align:start;letter-spacing:0px;word-spacing:0px;writing-mode:lr-tb;text-anchor:start;fill:#1d5690;fill-opacity:1;stroke:none;stroke-width:0.41256562"
   d="m 103.51651,21.721465 h 2.24436 q 0,-0.462075 0.0825,-0.92415 0.099,-0.478577 0.31355,-0.858138 0.21453,-0.396064 0.56109,-0.627102 0.36306,-0.24754 0.87464,-0.24754 0.75912,0 1.2377,0.478578 0.49508,0.462074 0.49508,1.30371 0,0.528086 -0.24754,0.940652 -0.23104,0.412567 -0.5941,0.74262 -0.34655,0.330054 -0.77562,0.610599 -0.42907,0.264043 -0.80863,0.528085 -0.74262,0.511583 -1.41923,1.006663 -0.66011,0.49508 -1.15519,1.089176 -0.49508,0.577593 -0.79212,1.320213 -0.28055,0.74262 -0.28055,1.749283 h 8.48237 v -2.013325 h -5.46239 q 0.42907,-0.594096 0.99017,-1.039668 0.56109,-0.445572 1.15518,-0.825134 0.5941,-0.396064 1.17169,-0.792128 0.5941,-0.396064 1.05617,-0.874641 0.46208,-0.49508 0.74262,-1.122181 0.28055,-0.627102 0.28055,-1.501743 0,-0.841636 -0.33005,-1.518245 -0.31356,-0.676609 -0.85814,-1.138684 -0.54459,-0.462075 -1.27071,-0.709615 -0.70961,-0.24754 -1.50174,-0.24754 -1.03967,0 -1.8483,0.363059 -0.79213,0.346556 -1.32022,0.99016 -0.52808,0.627101 -0.79212,1.48524 -0.26404,0.841636 -0.23104,1.831796 z" /><g
   id="g1018"
   transform="translate(7.1703735,1.5056605)"
   style="fill:#1d5690;fill-opacity:1"><path
     d="m 40.227723,31.581078 v 8.531878 h 2.343378 v -4.9508 q 0,-0.627101 0.18153,-1.006662 0.181529,-0.396064 0.429069,-0.594096 0.264043,-0.214535 0.528085,-0.280546 0.280546,-0.08251 0.445572,-0.08251 0.561091,0 0.841636,0.198032 0.297048,0.181529 0.412567,0.49508 0.132021,0.313551 0.148524,0.693112 0.0165,0.363059 0.0165,0.74262 v 4.785773 h 2.343378 v -4.752768 q 0,-0.396064 0.04951,-0.775625 0.06601,-0.396064 0.231038,-0.693112 0.181529,-0.313551 0.478577,-0.49508 0.313551,-0.198032 0.808631,-0.198032 0.49508,0 0.775625,0.165027 0.297048,0.165026 0.445572,0.445572 0.148524,0.280545 0.181529,0.660106 0.03301,0.379562 0.03301,0.808631 v 4.835281 h 2.343379 v -5.709922 q 0,-0.825134 -0.231037,-1.402727 -0.231038,-0.594096 -0.643604,-0.957155 -0.412567,-0.363058 -0.99016,-0.528085 -0.577594,-0.165027 -1.254203,-0.165027 -0.891144,0 -1.55125,0.42907 -0.643604,0.429069 -1.023166,0.99016 -0.346556,-0.792128 -1.023165,-1.105679 -0.660107,-0.313551 -1.468737,-0.313551 -0.841636,0 -1.501743,0.363059 -0.643604,0.363059 -1.105679,1.023165 h -0.03301 v -1.155186 z"
     style="font-style:normal;font-variant:normal;font-weight:bold;font-stretch:normal;font-size:16.50266647px;line-height:1.25;font-family:'Helvetica Neue';-inkscape-font-specification:'Helvetica Neue, Bold';font-variant-ligatures:normal;font-variant-caps:normal;font-variant-numeric:normal;font-feature-settings:normal;text-align:start;letter-spacing:0px;word-spacing:0px;writing-mode:lr-tb;text-anchor:start;fill:#1d5690;fill-opacity:1;stroke:none;stroke-width:0.41256562"
     id="path976"
     inkscape:connector-curvature="0" /><path
     d="m 60.860181,34.931119 h -3.812115 q 0.0165,-0.24754 0.09902,-0.561091 0.09902,-0.31355 0.31355,-0.594096 0.231038,-0.280545 0.594096,-0.462074 0.379562,-0.198032 0.940652,-0.198032 0.858139,0 1.270706,0.462074 0.429069,0.462075 0.594095,1.353219 z m -3.812115,1.48524 h 6.155494 q 0.06601,-0.99016 -0.165027,-1.897807 -0.231037,-0.907646 -0.759122,-1.617261 -0.511583,-0.709615 -1.320214,-1.122181 -0.80863,-0.42907 -1.897806,-0.42907 -0.973657,0 -1.782288,0.346556 -0.792128,0.346556 -1.369721,0.957155 -0.577594,0.594096 -0.891144,1.419229 -0.313551,0.825134 -0.313551,1.782288 0,0.99016 0.297048,1.815294 0.313551,0.825133 0.874641,1.419229 0.561091,0.594096 1.369722,0.924149 0.80863,0.313551 1.815293,0.313551 1.452235,0 2.4754,-0.660107 1.023165,-0.660107 1.518245,-2.194854 h -2.062833 q -0.115519,0.396064 -0.627101,0.759122 -0.511583,0.346556 -1.221198,0.346556 -0.99016,0 -1.518245,-0.511583 -0.528085,-0.511582 -0.577593,-1.650266 z"
     style="font-style:normal;font-variant:normal;font-weight:bold;font-stretch:normal;font-size:16.50266647px;line-height:1.25;font-family:'Helvetica Neue';-inkscape-font-specification:'Helvetica Neue, Bold';font-variant-ligatures:normal;font-variant-caps:normal;font-variant-numeric:normal;font-feature-settings:normal;text-align:start;letter-spacing:0px;word-spacing:0px;writing-mode:lr-tb;text-anchor:start;fill:#1d5690;fill-opacity:1;stroke:none;stroke-width:0.41256562"
     id="path978"
     inkscape:connector-curvature="0" /></g><text
   xml:space="preserve"
   style="font-style:normal;font-weight:normal;font-size:40px;line-height:1.25;font-family:sans-serif;letter-spacing:0px;word-spacing:0px;fill:#000000;fill-opacity:1;stroke:none"
   x="100.36922"
   y="34.634624"
   id="text952"><tspan
     sodipodi:role="line"
     id="tspan950"
     x="100.36922"
     y="71.127838"></tspan><tspan
     sodipodi:role="line"
     x="100.36922"
     y="121.12784"
     id="tspan954" /></text>
</svg>