<?xml version="1.0" encoding="UTF-8" standalone="no"?>
<!-- Created with Inkscape (http://www.inkscape.org/) -->

<svg
   xmlns:dc="http://purl.org/dc/elements/1.1/"
   xmlns:cc="http://creativecommons.org/ns#"
   xmlns:rdf="http://www.w3.org/1999/02/22-rdf-syntax-ns#"
   xmlns:svg="http://www.w3.org/2000/svg"
   xmlns="http://www.w3.org/2000/svg"
   xmlns:sodipodi="http://sodipodi.sourceforge.net/DTD/sodipodi-0.dtd"
   xmlns:inkscape="http://www.inkscape.org/namespaces/inkscape"
   id="svg2"
   version="1.1"
   inkscape:version="0.92.2 (5c3e80d, 2017-08-06)"
   width="120"
   height="60"
   xml:space="preserve"
   sodipodi:docname="fsf-ar21.svg"
   inkscape:export-filename="/home/donald/Desktop/FSF-1.png"
   inkscape:export-xdpi="90"
   inkscape:export-ydpi="90"><metadata
     id="metadata8"><rdf:RDF><cc:Work
         rdf:about=""><dc:format>image/svg+xml</dc:format><dc:type
           rdf:resource="http://purl.org/dc/dcmitype/StillImage" /><dc:title></dc:title></cc:Work></rdf:RDF></metadata><defs
     id="defs6"><inkscape:perspective
       sodipodi:type="inkscape:persp3d"
       inkscape:vp_x="0 : 0.5 : 1"
       inkscape:vp_y="0 : 1000 : 0"
       inkscape:vp_z="1 : 0.5 : 1"
       inkscape:persp3d-origin="0.5 : 0.33333333 : 1"
       id="perspective10" /><clipPath
       clipPathUnits="userSpaceOnUse"
       id="clipPath20"><path
         d="M 0,2160 V 0 h 3240 v 2160 z"
         id="path22"
         inkscape:connector-curvature="0" /></clipPath></defs><sodipodi:namedview
     pagecolor="#ffffff"
     bordercolor="#666666"
     borderopacity="1"
     objecttolerance="10"
     gridtolerance="10"
     guidetolerance="10"
     inkscape:pageopacity="0"
     inkscape:pageshadow="2"
     inkscape:window-width="1920"
     inkscape:window-height="1001"
     id="namedview4"
     showgrid="false"
     showguides="true"
     inkscape:guide-bbox="true"
     inkscape:zoom="0.70710678"
     inkscape:cx="143.68928"
     inkscape:cy="-201.77997"
     inkscape:window-x="-9"
     inkscape:window-y="-9"
     inkscape:window-maximized="1"
     inkscape:current-layer="g12" /><g
     id="g12"
     inkscape:groupmode="layer"
     inkscape:label="ink_ext_XXXXXX"
     transform="matrix(1.25,0,0,-1.25,0,60)"><g
       id="g873"
       transform="translate(-0.945745,-1.4193699)"><path
         inkscape:connector-curvature="0"
         d="m 13.855164,17.376952 v -1.41764 h 2.343648 V 15.05885 H 13.855164 V 12.304056 H 12.66304 v 6.013039 h 4.409905 v -0.940143 h -3.217781"
         style="fill:#9b182f;fill-opacity:1;fill-rule:nonzero;stroke:none;stroke-width:0.34060687"
         id="path24" /><path
         inkscape:connector-curvature="0"
         d="m 19.499769,17.380426 v -1.676569 c 0.220202,-0.01489 0.389178,-0.02234 0.505597,-0.02234 0.499194,0 0.863507,0.06267 1.094983,0.187607 0.230455,0.125071 0.346602,0.370921 0.346602,0.737482 0,0.295919 -0.12439,0.502667 -0.372148,0.620142 -0.247859,0.117476 -0.638365,0.176435 -1.17121,0.176435 -0.128409,0 -0.263187,-0.0079 -0.403824,-0.02275 m 2.543244,-5.076371 -1.786858,2.476826 c -0.180931,0 -0.432401,0.0088 -0.756386,0.02756 v -2.50438 h -1.231362 v 6.002106 c 0.06652,0 0.324633,0.01052 0.773008,0.03208 0.448374,0.02101 0.810269,0.03191 1.084356,0.03191 1.701706,0 2.552814,-0.591669 2.552814,-1.773813 0,-0.356956 -0.11693,-0.681214 -0.352153,-0.974169 -0.235258,-0.292582 -0.531143,-0.498683 -0.889461,-0.617214 l 1.983762,-2.70091 h -1.37772"
         style="fill:#9b182f;fill-opacity:1;fill-rule:nonzero;stroke:none;stroke-width:0.34060687"
         id="path26" /><path
         inkscape:connector-curvature="0"
         d="m 25.322035,17.376952 v -1.41764 h 2.158731 V 15.05885 h -2.158731 v -1.814413 h 3.0329 v -0.940381 h -4.224377 v 6.013039 h 4.224377 v -0.940143 h -3.0329"
         style="fill:#9b182f;fill-opacity:1;fill-rule:nonzero;stroke:none;stroke-width:0.34060687"
         id="path28" /><path
         inkscape:connector-curvature="0"
         d="m 30.790274,17.376952 v -1.41764 h 2.159108 V 15.05885 h -2.159108 v -1.814413 h 3.033103 V 12.304056 H 29.59815 v 6.013039 h 4.225227 v -0.940143 h -3.033103"
         style="fill:#9b182f;fill-opacity:1;fill-rule:nonzero;stroke:none;stroke-width:0.34060687"
         id="path30" /><path
         inkscape:connector-curvature="0"
         d="m 37.711065,12.632673 0.439722,0.956084 c 0.469698,-0.300007 0.93156,-0.450623 1.385931,-0.450623 0.698586,0 1.048387,0.220066 1.048387,0.660062 0,0.204364 -0.08311,0.400213 -0.24694,0.586218 -0.165193,0.186278 -0.504438,0.39582 -1.019435,0.627739 -0.513976,0.232294 -0.860714,0.422693 -1.03817,0.5729 -0.178478,0.149527 -0.316423,0.327699 -0.411793,0.534072 -0.09742,0.206476 -0.144418,0.433184 -0.144418,0.680941 0,0.467517 0.188696,0.854821 0.569494,1.162049 0.378755,0.307193 0.866164,0.460875 1.460182,0.460875 0.774199,0 1.342331,-0.129703 1.705418,-0.389688 l -0.361384,-0.921649 c -0.416904,0.265299 -0.857307,0.397421 -1.319169,0.397421 -0.273507,0 -0.485706,-0.06492 -0.636935,-0.194793 -0.150547,-0.129704 -0.225482,-0.298679 -0.225482,-0.506108 0,-0.345001 0.423714,-0.704375 1.272847,-1.076624 0.446876,-0.198268 0.769431,-0.379879 0.966985,-0.543915 0.198231,-0.164991 0.348438,-0.357365 0.452324,-0.578385 0.103886,-0.221122 0.155318,-0.467006 0.155318,-0.738129 0,-0.487783 -0.213901,-0.888643 -0.642386,-1.202376 -0.427803,-0.314006 -1.001724,-0.470753 -1.720064,-0.470753 -0.624672,0 -1.188037,0.144758 -1.690432,0.434682"
         style="fill:#9b182f;fill-opacity:1;fill-rule:nonzero;stroke:none;stroke-width:0.34060687"
         id="path32" /><path
         inkscape:connector-curvature="0"
         d="m 43.87128,15.354088 c 0,-0.701582 0.133177,-1.246962 0.398171,-1.634538 0.266015,-0.387304 0.652261,-0.581416 1.159767,-0.581416 0.595721,0 1.049748,0.189343 1.362766,0.56786 0.31302,0.37838 0.470038,0.927745 0.470038,1.648094 0,1.41018 -0.580735,2.115203 -1.741864,2.115203 -0.531006,0 -0.939052,-0.190399 -1.222437,-0.572492 -0.284066,-0.381616 -0.426441,-0.895558 -0.426441,-1.542711 m -1.232316,0.0045 c 0,0.856592 0.261588,1.581437 0.785099,2.175115 0.522833,0.592997 1.221759,0.889291 2.096095,0.889291 0.963919,0 1.70065,-0.268364 2.209518,-0.80482 0.508865,-0.537103 0.76398,-1.289913 0.76398,-2.259586 0,-0.969776 -0.265671,-1.738798 -0.798042,-2.307612 -0.532027,-0.568511 -1.287493,-0.852986 -2.266396,-0.852986 -0.898863,0 -1.589273,0.282091 -2.069527,0.846068 -0.480598,0.564147 -0.720727,1.335553 -0.720727,2.314526"
         style="fill:#9b182f;fill-opacity:1;fill-rule:nonzero;stroke:none;stroke-width:0.34060687"
         id="path34" /><path
         inkscape:connector-curvature="0"
         d="m 50.875519,17.376952 v -1.41764 h 2.344059 V 15.05885 h -2.344059 v -2.754794 h -1.191783 v 6.013039 h 4.410178 v -0.940143 h -3.218395"
         style="fill:#9b182f;fill-opacity:1;fill-rule:nonzero;stroke:none;stroke-width:0.34060687"
         id="path36" /><path
         inkscape:connector-curvature="0"
         d="m 58.1577,17.376952 v -5.072896 h -1.192128 v 5.072896 h -2.131859 v 0.940143 H 60.38322 V 17.376952 H 58.1577"
         style="fill:#9b182f;fill-opacity:1;fill-rule:nonzero;stroke:none;stroke-width:0.34060687"
         id="path38" /><path
         inkscape:connector-curvature="0"
         d="M 66.83159,12.224626 H 66.34078 L 64.884,16.012549 63.46707,12.224626 H 62.9766 l -2.19793,6.092469 h 1.24457 l 1.25139,-3.6292 1.35766,3.6292 h 0.51636 l 1.35834,-3.6292 1.25139,3.6292 h 1.24526 l -2.17205,-6.092469"
         style="fill:#9b182f;fill-opacity:1;fill-rule:nonzero;stroke:none;stroke-width:0.34060687"
         id="path40" /><path
         inkscape:connector-curvature="0"
         d="m 71.46895,16.555374 -0.80553,-2.211799 h 1.608 l -0.80247,2.211799 m 1.63594,-4.251318 -0.48707,1.217942 h -2.29228 l -0.4663,-1.217942 H 68.5353 l 2.67547,6.092741 h 0.51636 l 2.68841,-6.092741 h -1.31065"
         style="fill:#9b182f;fill-opacity:1;fill-rule:nonzero;stroke:none;stroke-width:0.34060687"
         id="path42" /><path
         inkscape:connector-curvature="0"
         d="m 76.37403,17.380426 v -1.676569 c 0.22003,-0.01489 0.38864,-0.02234 0.50478,-0.02234 0.49967,0 0.86446,0.06267 1.09573,0.187607 0.23025,0.125071 0.34674,0.370921 0.34674,0.737482 0,0.295919 -0.12466,0.502667 -0.37262,0.620142 -0.24762,0.117476 -0.63796,0.176435 -1.17101,0.176435 -0.12841,0 -0.26329,-0.0079 -0.40362,-0.02275 m 2.54297,-5.076371 -1.78716,2.476826 c -0.18052,0 -0.43189,0.0088 -0.75581,0.02756 v -2.50438 H 75.1424 v 6.002106 c 0.0668,0 0.32426,0.01052 0.77318,0.03208 0.44823,0.02101 0.80962,0.03191 1.08449,0.03191 1.70167,0 2.55251,-0.591669 2.55251,-1.773813 0,-0.356956 -0.11717,-0.681214 -0.35253,-0.974169 C 78.96503,15.3296 78.66904,15.123499 78.3114,15.004968 l 1.98302,-2.70091 H 78.917"
         style="fill:#9b182f;fill-opacity:1;fill-rule:nonzero;stroke:none;stroke-width:0.34060687"
         id="path44" /><path
         inkscape:connector-curvature="0"
         d="m 82.19602,17.376952 v -1.41764 h 2.15843 V 15.05885 h -2.15843 v -1.814413 h 3.03243 V 12.304056 H 81.0039 v 6.013039 h 4.22455 v -0.940143 h -3.03243"
         style="fill:#9b182f;fill-opacity:1;fill-rule:nonzero;stroke:none;stroke-width:0.34060687"
         id="path46" /><path
         inkscape:connector-curvature="0"
         d="m 14.739277,9.5154734 v -0.960239 h 1.470196 v -0.403925 h -1.470196 v -1.675514 h -0.56946 v 3.469831 h 2.582481 v -0.430153 h -2.013021"
         style="fill:#9b182f;fill-opacity:1;fill-rule:nonzero;stroke:none;stroke-width:0.34060687"
         id="path48" /><path
         inkscape:connector-curvature="0"
         d="m 21.802851,8.2412294 c 0,-0.399941 0.0938,-0.733361 0.282738,-1.000635 0.188934,-0.267445 0.455697,-0.400622 0.798961,-0.400622 0.388769,0 0.68588,0.122278 0.890108,0.368128 0.204228,0.245373 0.306274,0.589693 0.306274,1.033129 0,0.897431 -0.39834,1.346759 -1.196382,1.346759 -0.352562,0 -0.621335,-0.120575 -0.805195,-0.361384 -0.184302,-0.240161 -0.276504,-0.568779 -0.276504,-0.985375 m -0.602704,-6.57e-4 c 0,0.504132 0.151672,0.925088 0.455051,1.262902 0.303991,0.33887 0.713809,0.5085256 1.229352,0.5085256 0.580122,0 1.025567,-0.1563376 1.334498,-0.4676866 0.309339,-0.311996 0.464349,-0.746543 0.464349,-1.303741 0,-0.569597 -0.15501,-1.016371 -0.465677,-1.340356 -0.310668,-0.322487 -0.754411,-0.484037 -1.33317,-0.484037 -0.527532,0 -0.939973,0.170304 -1.237357,0.511728 -0.298031,0.341526 -0.447046,0.778866 -0.447046,1.312665"
         style="fill:#9b182f;fill-opacity:1;fill-rule:nonzero;stroke:none;stroke-width:0.34060687"
         id="path50" /><path
         inkscape:connector-curvature="0"
         d="m 29.499375,9.9456264 h 0.569494 v -2.377096 c 0,-0.211789 0.08004,-0.385975 0.242853,-0.523138 0.162129,-0.137707 0.376031,-0.20542 0.643064,-0.20542 0.281342,0 0.504101,0.06611 0.665545,0.198642 0.161789,0.131713 0.243194,0.31186 0.243194,0.541497 v 2.365515 h 0.569497 v -2.416334 c 0,-0.350041 -0.131815,-0.623208 -0.396128,-0.819432 -0.262947,-0.196121 -0.621607,-0.293671 -1.076997,-0.293671 -0.468335,0 -0.828017,0.09581 -1.081086,0.288187 -0.253412,0.191728 -0.379436,0.468335 -0.379436,0.828391 v 2.412859"
         style="fill:#9b182f;fill-opacity:1;fill-rule:nonzero;stroke:none;stroke-width:0.34060687"
         id="path52" /><path
         inkscape:connector-curvature="0"
         d="m 40.153899,6.4292344 -2.158768,2.536465 v -2.489904 h -0.543948 v 3.469831 h 0.232634 l 2.098819,-2.397158 v 2.397158 h 0.542586 v -3.516392 h -0.171323"
         style="fill:#9b182f;fill-opacity:1;fill-rule:nonzero;stroke:none;stroke-width:0.34060687"
         id="path54" /><path
         inkscape:connector-curvature="0"
         d="m 45.912877,9.5228994 v -2.601249 c 0.127048,-0.01489 0.286113,-0.02207 0.474806,-0.02207 0.400214,0 0.714253,0.123981 0.943482,0.373339 0.228207,0.248916 0.343333,0.595381 0.343333,1.037795 0,0.824609 -0.445854,1.23814 -1.335861,1.23814 -0.05348,0 -0.19585,-0.0096 -0.42576,-0.02595 m 0.273169,-3.047103 h -0.843344 v 3.47327 c 0.538159,0.01492 0.882171,0.02316 1.033062,0.02316 0.584481,0 1.048046,-0.147176 1.389334,-0.442141 0.34163,-0.294557 0.512273,-0.68772 0.512273,-1.179215 0,-1.249994 -0.697221,-1.875075 -2.091325,-1.875075"
         style="fill:#9b182f;fill-opacity:1;fill-rule:nonzero;stroke:none;stroke-width:0.34060687"
         id="path56" /><path
         inkscape:connector-curvature="0"
         d="m 54.423623,9.0849124 -0.649197,-1.529666 h 1.241854 l -0.592657,1.529666 m 1.043619,-2.609117 -0.288834,0.72832 h -1.55521 l -0.308591,-0.72832 h -0.642726 l 1.702353,3.516528 h 0.15191 l 1.57633,-3.516528 h -0.635232"
         style="fill:#9b182f;fill-opacity:1;fill-rule:nonzero;stroke:none;stroke-width:0.34060687"
         id="path58" /><path
         inkscape:connector-curvature="0"
         d="m 61.65266,9.5154734 v -3.039678 h -0.56881 v 3.039678 h -1.33177 v 0.430153 h 3.29162 v -0.430153 h -1.39104"
         style="fill:#9b182f;fill-opacity:1;fill-rule:nonzero;stroke:none;stroke-width:0.34060687"
         id="path60" /><path
         inkscape:connector-curvature="0"
         d="m 67.78359,6.4757954 h 0.56945 v 3.469796 h -0.56945 z"
         style="fill:#9b182f;fill-opacity:1;fill-rule:nonzero;stroke:none;stroke-width:0.34060687"
         id="path62" /><path
         inkscape:connector-curvature="0"
         d="m 73.87398,8.2412294 c 0,-0.399941 0.094,-0.733361 0.2827,-1.000635 0.18938,-0.267445 0.45505,-0.400622 0.79906,-0.400622 0.38864,0 0.68531,0.122278 0.89001,0.368128 0.20368,0.245373 0.30621,0.589693 0.30621,1.033129 0,0.897431 -0.39851,1.346759 -1.19622,1.346759 -0.3532,0 -0.62194,-0.120575 -0.80587,-0.361384 -0.18427,-0.240161 -0.27589,-0.568779 -0.27589,-0.985375 m -0.60288,-6.57e-4 c 0,0.504132 0.15192,0.925088 0.45505,1.262902 0.30417,0.33887 0.71324,0.5085256 1.22959,0.5085256 0.58006,0 1.02523,-0.1563376 1.33484,-0.4676866 0.30894,-0.311996 0.46391,-0.746543 0.46391,-1.303741 0,-0.569597 -0.15566,-1.016371 -0.46561,-1.340356 -0.30995,-0.322487 -0.75444,-0.484037 -1.33314,-0.484037 -0.5276,0 -0.94007,0.170304 -1.2381,0.511728 -0.29803,0.341526 -0.44654,0.778866 -0.44654,1.312665"
         style="fill:#9b182f;fill-opacity:1;fill-rule:nonzero;stroke:none;stroke-width:0.34060687"
         id="path64" /><path
         inkscape:connector-curvature="0"
         d="m 84.27202,6.4292344 -2.1591,2.536465 v -2.489904 h -0.54259 v 3.469831 h 0.23127 l 2.09916,-2.397158 v 2.397158 h 0.54327 v -3.516392 h -0.17201"
         style="fill:#9b182f;fill-opacity:1;fill-rule:nonzero;stroke:none;stroke-width:0.34060687"
         id="path66" /></g><path
       id="path70"
       style="fill:#9b182f;fill-opacity:1;fill-rule:nonzero;stroke:none;stroke-width:0.22034433"
       d="m 63.950412,42.545939 c -0.08571,0.04273 -4.471888,-0.201614 -4.718455,-0.179356 -0.246564,0.02267 -2.888716,-0.01543 -4.337479,0.02267 -1.714942,0.0445 -3.514494,-0.0023 -5.189331,-0.157329 -1.692245,-0.156882 -3.440675,-0.683287 -4.886355,-1.288572 -1.376049,-0.576194 -2.746153,-1.300248 -3.822314,-2.152101 -0.550859,-0.436064 -0.969955,-0.920598 -1.344761,-1.512881 -0.425485,-0.672497 -0.631066,-1.440618 -0.347262,-2.08468 0.305396,-0.693428 0.989346,-1.000583 1.837672,-1.132354 0.770544,-0.119647 1.715159,-0.05599 2.320444,-0.178923 0.359385,-0.07319 0.948806,-0.170101 0.986042,-0.5156 0.03372,-0.313995 -0.532791,-0.83885 -0.795882,-0.963788 -0.492912,-0.235546 -1.154164,-0.0337 -1.793163,0.100703 -0.440248,0.09255 -1.093789,0.306938 -1.502088,0.49335 -0.275431,0.125817 -0.570031,0.225413 -0.625997,0.225413 -0.02248,0 -8.655919,0.02252 -8.644463,0 0,-0.145645 -0.01146,-7.180802 0,-7.517263 0.01179,-0.371065 1.292959,-0.261112 2.086287,-0.18399 1.53278,0.149833 3.126753,0.336244 4.673789,0.560115 0.884683,0.128239 1.821367,0.294383 2.71222,0.471092 1.412626,0.280062 3.100904,0.672498 3.803365,0.896583 1.755922,0.560339 3.571781,1.053689 5.230091,1.77091 0.746087,0.322146 1.636718,0.728233 2.241782,1.143142 0.645389,0.442011 1.333966,1.053466 1.625043,1.681232 0.323905,0.696952 0.423058,1.536018 0.0899,2.297753 -0.313768,0.717213 -1.17664,1.355992 -1.92757,1.479387 -0.427469,0.07011 -0.762173,0.11172 -1.177082,0.07845 -0.476826,-0.03879 -1.288792,-0.213073 -1.826873,-0.280277 -0.884241,-0.110609 -1.923388,-0.267938 -2.790882,-0.134632 -0.58259,0.08968 -1.501648,0.840615 -1.176861,1.714725 0.238194,0.641201 1.160776,1.298929 1.715162,1.658966 1.344982,0.874326 3.764362,1.637164 5.839345,2.129635 1.748434,0.414462 4.202847,0.75093 6.276286,0.773181 0.200076,0.0023 2.073002,0.127806 2.26382,0.134632 3.14938,0.112158 3.250298,0.627542 3.20557,0.650016 m -26.0057,-6.026177 c 0.210649,0.886889 0.80007,1.790522 1.505834,2.542555 l -8.258352,-0.03309 -0.03012,-2.601606 6.740114,-0.0273 0.03151,-0.05399 m -8.726327,-3.291062 h -4.510007 v 3.382506 h 4.510008 v 2.631129 h -0.751837 v 1.87932 h 0.751837 v 0.751593 h 1.879647 v -0.751593 h 11.275374 c 3.114567,1.631865 6.770741,1.949161 9.930478,1.987945 3.487611,0.04496 3.668292,0.0054 5.091057,-0.0046 6.022451,-0.04473 6.437797,-0.07141 7.287665,0.06255 0.342418,0.0566 0.718325,-0.169885 0.748069,-0.339106 0.06919,-0.37415 -0.711269,-0.807784 -0.952328,-0.884027 -0.74917,-0.237969 -2.090186,-0.345492 -5.738425,-0.555927 l -0.08682,-0.0023 c -5.793955,-0.546896 -9.044255,-1.912806 -9.884205,-2.303923 -3.322132,-1.55034 -3.680634,-2.272187 -3.248979,-2.732706 0.457878,-0.488723 3.0445,0.585896 4.312799,0.948139 2.520302,0.718763 4.005418,0.03016 4.943648,-0.686811 h 2.255002 v 0.375908 h 1.50363 V 36.43762 H 71.302636 V 33.055112 H 58.523989 V 30.423983 H 69.42376 V 28.544888 H 58.523989 v -6.013683 h -1.50363 v 6.013683 h -0.751813 v 1.879095 h 0.751814 v 2.631129 h -0.751814 c -0.01277,-1.329554 -0.40213,-2.548499 -0.774952,-3.050442 -3.478356,-4.672405 -19.255231,-5.273502 -24.143018,-5.35327 -1.233159,-0.02113 -2.115923,0.185749 -2.143202,0.510981"
       inkscape:connector-curvature="0" /></g></svg>