<?xml version="1.0" encoding="UTF-8" standalone="no"?>
<!-- Generator: Adobe Illustrator 15.1.0, SVG Export Plug-In . SVG Version: 6.00 Build 0)  -->

<svg
   xmlns:dc="http://purl.org/dc/elements/1.1/"
   xmlns:cc="http://creativecommons.org/ns#"
   xmlns:rdf="http://www.w3.org/1999/02/22-rdf-syntax-ns#"
   xmlns:svg="http://www.w3.org/2000/svg"
   xmlns="http://www.w3.org/2000/svg"
   xmlns:sodipodi="http://sodipodi.sourceforge.net/DTD/sodipodi-0.dtd"
   xmlns:inkscape="http://www.inkscape.org/namespaces/inkscape"
   version="1.1"
   id="Layer_1"
   x="0px"
   y="0px"
   width="120"
   height="60"
   viewBox="0 0 119.99999 59.999999"
   enable-background="new 0 0 595.28 841.89"
   xml:space="preserve"
   sodipodi:docname="marlin-ar21.svg"
   inkscape:version="0.92.3 (2405546, 2018-03-11)"><metadata
   id="metadata13"><rdf:RDF><cc:Work
       rdf:about=""><dc:format>image/svg+xml</dc:format><dc:type
         rdf:resource="http://purl.org/dc/dcmitype/StillImage" /><dc:title></dc:title></cc:Work></rdf:RDF></metadata><defs
   id="defs11" /><sodipodi:namedview
   pagecolor="#ffffff"
   bordercolor="#666666"
   borderopacity="1"
   objecttolerance="10"
   gridtolerance="10"
   guidetolerance="10"
   inkscape:pageopacity="0"
   inkscape:pageshadow="2"
   inkscape:window-width="1920"
   inkscape:window-height="1001"
   id="namedview9"
   showgrid="false"
   inkscape:zoom="6.3429549"
   inkscape:cx="77.344816"
   inkscape:cy="48.707969"
   inkscape:window-x="-9"
   inkscape:window-y="-9"
   inkscape:window-maximized="1"
   inkscape:current-layer="Layer_1" />


<g
   id="g18"
   transform="matrix(0.19753736,0,0,0.19753736,-0.87281655,108.38596)"><path
     inkscape:connector-curvature="0"
     id="path2"
     d="m 428.064,-387.45001 v 20.351 h -13.682 v -45.299 h -15.177 v 45.299 13.911 h 15.177 13.682 15.176 v -13.911 -20.694 c 0,-6.669 4.828,-11.268 11.496,-11.268 10.004,0 11.152,7.933 11.152,11.268 v 34.605 c 4.027,0 8.057,0 12.084,0 1.523,0.034 3.094,-0.854 3.094,-4.092 v -30.17 c 0,-15.521 -9.773,-26.443 -26.33,-26.443 -16.095,0 -26.672,11.382 -26.672,26.443 z m -115.919,34.262 h -12.301 -15.177 v -14.716 -14.717 c 0,-9.083 -6.783,-16.556 -15.176,-16.556 -8.393,0 -15.176,7.243 -15.176,16.096 0,8.738 6.783,15.177 15.521,15.177 h 8.738 v 14.716 h -10.578 c -16.556,0 -28.973,-13.337 -28.973,-29.893 0,-16.786 12.532,-30.812 30.467,-30.812 17.821,0 30.353,14.026 30.353,31.272 v 14.717 h 12.301 v -19.546 c 0,-15.061 10.578,-26.443 26.674,-26.443 16.557,0 26.328,10.922 26.328,26.443 v 2.645 H 349.97 v -2.988 c 0,-3.335 -1.15,-11.268 -11.152,-11.268 -6.668,0 -11.497,4.599 -11.497,11.268 v 19.89 14.716 h -15.176 z m -76.523,-53.002 c 0,-15.981 -11.842,-28.743 -28.973,-28.743 -8.738,0 -16.441,4.023 -21.27,10.348 -4.943,-6.324 -12.417,-10.348 -21.269,-10.348 -17.016,0 -28.858,12.762 -28.858,28.743 0,16.766 0,33.532 0,50.297 0,1.439 1.1,2.704 2.815,2.704 h 12.246 v -53.231 c 0,-7.588 5.403,-13.682 13.797,-13.682 8.277,0 13.681,6.094 13.681,13.682 v 53.231 h 15.292 v -53.231 c 0,-7.588 5.173,-13.682 13.566,-13.682 8.278,0 13.796,6.094 13.796,13.682 v 53.231 h 15.176 v -53.001 z m 133.054,28.168 c 0,16.212 9.197,26.559 26.559,24.719 v -13.796 c -7.474,0.46 -11.268,-2.529 -11.268,-10.923 v -60.704 h -15.291 z m 45.707,-40.815 v -8.508 c 0,-4.254 -3.449,-7.588 -7.588,-7.588 -4.254,0 -7.703,3.334 -7.703,7.588 v 8.508 z" /><path
     style="fill:none;stroke:#000000;stroke-width:7.08659983;stroke-miterlimit:22.92560005"
     inkscape:connector-curvature="0"
     id="path4"
     d="m 140.005,-459.80701 h 336.307 c 15.59,0 28.346,12.756 28.346,28.346 v 69.308 c 0,15.591 -12.756,28.346 -28.346,28.346 H 140.005 c -15.59,0 -28.346,-12.755 -28.346,-28.346 v -69.307 c 0,-15.591 12.756,-28.347 28.346,-28.347 z"
     stroke-miterlimit="22.9256" /><polygon
     transform="translate(0,-781.89001)"
     style="clip-rule:evenodd;fill-rule:evenodd"
     id="polygon6"
     points="432.027,318.522 508.164,395.771 508.164,318.522 " /></g>
</svg>