<?xml version="1.0" encoding="UTF-8" standalone="no"?>
<svg
   xmlns:dc="http://purl.org/dc/elements/1.1/"
   xmlns:cc="http://creativecommons.org/ns#"
   xmlns:rdf="http://www.w3.org/1999/02/22-rdf-syntax-ns#"
   xmlns:svg="http://www.w3.org/2000/svg"
   xmlns="http://www.w3.org/2000/svg"
   xmlns:sodipodi="http://sodipodi.sourceforge.net/DTD/sodipodi-0.dtd"
   xmlns:inkscape="http://www.inkscape.org/namespaces/inkscape"
   version="1.1"
   id="logo"
   preserveAspectRatio="xMinYMin meet"
   viewBox="0 0 120 60"
   aria-labelledby="title"
   sodipodi:docname="arin-ar21.svg"
   width="120"
   height="60"
   inkscape:version="0.92.3 (2405546, 2018-03-11)">
  <metadata
     id="metadata116">
    <rdf:RDF>
      <cc:Work
         rdf:about="">
        <dc:format>image/svg+xml</dc:format>
        <dc:type
           rdf:resource="http://purl.org/dc/dcmitype/StillImage" />
        <dc:title>ARIN Logo</dc:title>
      </cc:Work>
    </rdf:RDF>
  </metadata>
  <defs
     id="defs114" />
  <sodipodi:namedview
     pagecolor="#ffffff"
     bordercolor="#666666"
     borderopacity="1"
     objecttolerance="10"
     gridtolerance="10"
     guidetolerance="10"
     inkscape:pageopacity="0"
     inkscape:pageshadow="2"
     inkscape:window-width="1920"
     inkscape:window-height="1001"
     id="namedview112"
     showgrid="false"
     inkscape:zoom="1.9595376"
     inkscape:cx="24.240413"
     inkscape:cy="33.5"
     inkscape:window-x="-9"
     inkscape:window-y="-9"
     inkscape:window-maximized="1"
     inkscape:current-layer="logo" />
  <title
     id="title2">ARIN Logo</title>
  <desc
     id="desc4">Logo of the American Registry for Internet Numbers</desc>
  <g
     id="g1095"
     transform="matrix(0.64293144,0,0,0.64293144,4.3864304,8.2367708)">
    <path
       d="m 143.3,34.9 c 1,1.1 2.1,2.2 3.2,3.4 1.4,0 2.8,-0.1 4.1,-0.1 0,-1 0.1,-2.1 0.1,-3.2 -2.3,0 -4.8,-0.1 -7.4,-0.1 z"
       id="path6"
       inkscape:connector-curvature="0"
       style="fill:#009bc2" />
    <path
       d="m 152,35.1 c 0,1 -0.1,2.1 -0.1,3.1 13.1,-0.4 21.1,-0.9 21.1,-1.6 0,-0.6 -8,-1.1 -21,-1.5 z"
       id="path8"
       inkscape:connector-curvature="0"
       style="fill:#009bc2" />
    <path
       d="M 26.5,38.4 C 8.5,38 0,37.3 0,36.6 0,35.9 9.2,35.2 27.8,34.8 Z"
       id="path10"
       inkscape:connector-curvature="0"
       style="fill:#009bc2" />
    <path
       d="m 66.1,35.7 -3.3,-1.3 c -11.7,0.1 -24.4,0.2 -33.9,0.4 l -1.2,3.6 c 9.7,0.2 30.7,0.2 38.1,0.3 z"
       id="path12"
       inkscape:connector-curvature="0"
       style="fill:#009bc2" />
    <path
       d="m 75,34.7 c 0,0.2 0.8,1.8 2.5,4.1 2.6,0 5.3,0 8,0 19.6,0 40.2,-0.3 55.1,-0.5 l -3.1,-3.4 c -14.2,-0.2 -34,-0.5 -52.1,-0.5 -3.5,0 -6.8,0 -10.2,0 -0.1,0.1 -0.2,0.2 -0.2,0.3 z"
       id="path14"
       inkscape:connector-curvature="0"
       style="fill:#009bc2" />
    <path
       style="fill:#131010"
       inkscape:connector-curvature="0"
       id="path86"
       d="m 27.5,47.8 c -2.2,0 -2.2,-1 -2.2,-1.5 0,-0.7 0.6,-2.7 2.4,-7.4 0.1,-0.2 0.2,-0.3 0.2,-0.5 0,0 0,0 0,0 l 1.2,-3.6 c 0,0 0,0 0,0 1,-3.1 3.8,-10.7 4,-10.7 h 0.1 L 37,34.7 c 1.5,0 3,0 4.5,-0.1 -2.9,-7.5 -5.8,-15.5 -6,-16 -0.2,-0.5 -0.4,-0.5 -0.7,-0.5 -0.5,0 -0.7,0 -0.8,0.4 -4.2,10.3 -7.5,19.5 -10.1,27.1 -0.6,1.7 -1.4,2.2 -2.2,2.2 -1.2,0 -1.6,0.2 -1.6,0.6 0,0.5 0.1,0.7 0.3,0.7 0.3,0 0.8,-0.1 3.4,-0.1 5.1,0 5.7,0.1 6,0.1 0.4,0 0.5,-0.2 0.5,-0.7 0,-0.4 -0.2,-0.6 -2.8,-0.6 z" />
    <path
       style="fill:#131010"
       inkscape:connector-curvature="0"
       id="path88"
       d="m 49.2,47.8 c -1.7,0 -2.6,-0.5 -3.3,-2 -0.8,-1.7 -1.8,-4.3 -2.9,-7.1 -1.5,0 -3.1,0 -4.5,-0.1 0.9,2.3 3,7.3 3,8.3 0,0.7 -0.6,0.9 -2.3,0.9 -0.9,0 -1.8,0.1 -1.8,0.5 0,0.4 0,0.8 0.2,0.8 0.3,0 0.6,-0.1 6.4,-0.1 5.2,0 5.5,0.1 6,0.1 0.4,0 0.5,-0.5 0.5,-0.8 0,-0.4 -0.9,-0.5 -1.3,-0.5 z" />
    <path
       d="M 67.1,34.2 V 22.9 c 0,-2.8 0.6,-3 3.2,-3 4.9,0 7.4,3.2 7.4,7.1 0,3.9 -1.9,7.2 -7,7.2 z m -4.3,11.7 c 0,1.1 -0.3,1.9 -3,1.9 -1.2,0 -1.2,0.3 -1.2,0.7 0,0.4 0,0.6 0.3,0.6 0.3,0 0.5,-0.1 6.1,-0.1 6.4,0 6.5,0.1 6.8,0.1 0.3,0 0.3,-0.2 0.3,-0.6 0,-0.5 0,-0.7 -1.2,-0.7 -3.4,0 -3.7,-0.7 -3.7,-1.9 -0.1,-2.1 -0.1,-10.5 -0.1,-10.5 1.8,0 2.8,0 4.5,1.7 1.5,1.5 4.4,7 7.9,11.6 0.3,0.3 0.4,0.3 0.8,0.3 0.2,0 0.4,-0.1 3.1,-0.1 3.1,0 3.3,0.1 3.5,0.1 0.4,0 0.5,-0.2 0.5,-0.7 0,-0.2 0,-0.5 -0.3,-0.5 -2.6,0 -3,-0.6 -6.1,-4.3 -4,-4.8 -6.1,-8.7 -6.1,-8.9 0,-0.2 0.3,-0.3 0.5,-0.3 4.7,-1.9 6.9,-3.9 6.9,-8 0,-6.1 -6.1,-7.8 -11.1,-7.8 -2.5,0 -5.2,0.2 -6.3,0.2 -2.7,0 -5.8,-0.2 -6.1,-0.2 -0.3,0 -0.4,0.3 -0.4,0.6 0,0.4 0,0.7 0.5,0.7 3.1,0 3.8,0.3 3.9,2.9 0,2 0,21.1 0,23.2 z"
       id="path92"
       inkscape:connector-curvature="0"
       style="fill:#131010" />
    <path
       style="fill:#131010"
       inkscape:connector-curvature="0"
       id="path94"
       d="m 96.9,19.9 c 3.7,0 4.5,0.3 4.5,2.9 0,2 0.1,11.7 0.1,11.7 1.4,0 2.8,0 4.2,0 0,0 0.1,-9.8 0.1,-11.7 0,-2.5 0.8,-2.9 4.5,-2.9 0.5,0 0.5,-0.3 0.5,-0.7 0,-0.3 -0.1,-0.6 -0.4,-0.6 -0.3,0 -4.1,0.2 -6.8,0.2 -2.7,0 -6.4,-0.2 -6.8,-0.2 -0.3,0 -0.4,0.3 -0.4,0.6 0,0.3 0,0.7 0.5,0.7 z" />
    <path
       style="fill:#131010"
       inkscape:connector-curvature="0"
       id="path96"
       d="m 109.6,47.8 c -3.4,0 -3.6,-0.7 -3.7,-1.9 -0.1,-2.1 -0.1,-4.9 -0.1,-6.7 v -0.4 c -1.4,0 -2.8,0 -4.2,0 v 0.4 c 0,1.8 0,4.6 -0.1,6.7 0,1.1 -0.3,1.9 -3.7,1.9 -1.2,0 -1.2,0.3 -1.2,0.7 0,0.4 0,0.6 0.3,0.6 0.3,0 0.5,-0.1 6.8,-0.1 6.4,0 6.5,0.1 6.8,0.1 0.3,0 0.3,-0.2 0.3,-0.6 0,-0.5 0,-0.7 -1.2,-0.7 z" />
    <path
       style="fill:#131010"
       inkscape:connector-curvature="0"
       id="path100"
       d="m 130.6,47.8 c -2.4,0 -3.4,-0.7 -3.4,-2.1 0,-0.7 -0.1,-3.1 -0.2,-7.2 -0.5,0 -0.9,0 -1.4,0 -0.1,4.3 -0.3,6.9 -0.3,7.4 -0.2,1.6 -1.9,1.9 -2.9,1.9 -0.5,0 -1.9,0.1 -1.9,0.5 0,0.5 0,0.8 0.4,0.8 0.3,0 0.7,-0.1 5.5,-0.1 5.3,0 5.5,0.1 5.9,0.1 0.3,0 0.4,-0.1 0.4,-0.7 0.1,-0.4 0.1,-0.6 -2.1,-0.6 z" />
    <path
       style="fill:#131010"
       inkscape:connector-curvature="0"
       id="path102"
       d="m 157.3,18.6 c -0.3,0 -4.7,0.2 -5.6,0.2 -1.2,0 -5.5,-0.2 -6.2,-0.2 -0.3,0 -0.5,0.3 -0.5,0.7 0,0.3 0.1,0.6 0.6,0.6 3.7,0 5.4,0.3 5.4,6.8 0,4.2 -0.2,11.7 -0.4,15.7 -9.6,-9.8 -16.4,-17.9 -21.4,-23.5 -0.1,-0.1 -0.2,-0.3 -0.4,-0.3 -0.7,0 -3.2,0.2 -3.8,0.2 -0.8,0 -3.8,-0.2 -4.1,-0.2 -0.3,0 -0.5,0.1 -0.5,0.6 0,0.4 0,0.7 0.4,0.7 h 1.6 c 0.9,0 3.2,2.2 3.5,3 0.1,0.2 0.1,1.1 0.1,1.8 0,3.7 -0.1,7.2 -0.1,10 0.4,0 0.9,0 1.3,0 0,-3.6 0.1,-7.3 0.1,-10.9 19.7,21.2 23.4,25.8 23.7,25.8 0.4,0 0.6,0 0.6,-0.6 0,-4 0.5,-24.1 0.8,-25.6 0.6,-3.1 1.3,-3.5 4.8,-3.5 0.2,0 0.4,-0.1 0.4,-0.7 0,-0.3 -0.1,-0.6 -0.3,-0.6 z" />
  </g>
</svg>
