<?xml version="1.0" encoding="UTF-8" standalone="no"?>
<svg
   width="120"
   height="60"
   viewBox="0 0 120 60"
   fill="none"
   version="1.1"
   id="svg6"
   sodipodi:docname="vitejsdev-ar21.svg"
   inkscape:version="1.3.2 (091e20e, 2023-11-25)"
   xmlns:inkscape="http://www.inkscape.org/namespaces/inkscape"
   xmlns:sodipodi="http://sodipodi.sourceforge.net/DTD/sodipodi-0.dtd"
   xmlns="http://www.w3.org/2000/svg"
   xmlns:svg="http://www.w3.org/2000/svg">
  <sodipodi:namedview
     id="namedview6"
     pagecolor="#ffffff"
     bordercolor="#000000"
     borderopacity="0.25"
     inkscape:showpageshadow="2"
     inkscape:pageopacity="0.0"
     inkscape:pagecheckerboard="0"
     inkscape:deskcolor="#d1d1d1"
     inkscape:zoom="1.6536585"
     inkscape:cx="204.39528"
     inkscape:cy="201.67405"
     inkscape:window-width="1392"
     inkscape:window-height="942"
     inkscape:window-x="1756"
     inkscape:window-y="25"
     inkscape:window-maximized="0"
     inkscape:current-layer="svg6" />
  <path
     d="M 48.938437,14.991123 30.148431,48.5487 c -0.387956,0.692835 -1.384654,0.696915 -1.778432,0.0074 L 9.2074266,14.994357 C 8.7784349,14.243009 9.4217269,13.332921 10.27422,13.485104 l 18.810113,3.357977 c 0.119992,0.02142 0.242844,0.02121 0.362836,-6.22e-4 l 18.416754,-3.352541 c 0.849644,-0.154661 1.495967,0.748379 1.074514,1.501205 z"
     fill="url(#paint0_linear)"
     id="path1"
     style="fill:url(#paint0_linear);stroke-width:0.102056" />
  <path
     d="M 38.044609,9.0806442 24.139444,11.801883 c -0.228545,0.04472 -0.39776,0.238162 -0.411546,0.470307 l -0.855364,14.428211 c -0.02011,0.339838 0.292373,0.60359 0.624469,0.527097 l 3.871396,-0.892333 c 0.362222,-0.08343 0.689519,0.235194 0.615074,0.599001 l -1.150187,5.625188 c -0.0774,0.378595 0.278484,0.702319 0.648671,0.590025 l 2.391157,-0.725574 c 0.370698,-0.1124 0.726896,0.212247 0.648466,0.591149 l -1.827858,8.835906 c -0.114375,0.552697 0.621711,0.854085 0.928685,0.380229 l 0.205059,-0.316484 11.3307,-22.583971 c 0.189741,-0.378136 -0.137453,-0.80931 -0.553289,-0.729164 l -3.984954,0.768125 C 36.245446,19.441705 35.926829,19.0934 36.032524,18.727482 L 38.633437,9.7224304 C 38.739231,9.3558952 38.419493,9.0072893 38.044609,9.0806442 Z"
     fill="url(#paint1_linear)"
     id="path2"
     style="fill:url(#paint1_linear);stroke-width:0.102056" />
  <defs
     id="defs6">
    <linearGradient
       id="paint0_linear"
       x1="6.0001702"
       y1="32.999901"
       x2="235"
       y2="344"
       gradientUnits="userSpaceOnUse"
       gradientTransform="matrix(0.1021207,0,0,0.10199238,8.1268159,8.9200674)">
      <stop
         stop-color="#41D1FF"
         id="stop2" />
      <stop
         offset="1"
         stop-color="#BD34FE"
         id="stop3" />
    </linearGradient>
    <linearGradient
       id="paint1_linear"
       x1="194.651"
       y1="8.8181801"
       x2="236.076"
       y2="292.98901"
       gradientUnits="userSpaceOnUse"
       gradientTransform="matrix(0.1021207,0,0,0.10199238,8.1268159,8.9200674)">
      <stop
         stop-color="#FFEA83"
         id="stop4" />
      <stop
         offset="0.0833333"
         stop-color="#FFDD35"
         id="stop5" />
      <stop
         offset="1"
         stop-color="#FFA800"
         id="stop6" />
    </linearGradient>
  </defs>
  <path
     style="font-weight:600;font-size:29.5551px;line-height:1;font-family:Inter;-inkscape-font-specification:'Inter Semi-Bold';fill:#1a1a1a;stroke-width:1.10832"
     d="m 58.745106,21.223831 5.594058,16.918615 h 0.220404 l 5.583563,-16.918615 h 4.282131 L 66.847569,42.718449 H 62.040668 L 54.473471,21.223831 Z M 77.091123,42.718449 V 26.597485 h 3.799342 v 16.120964 z m 1.910166,-18.408965 q -0.902606,0 -1.553322,-0.598239 -0.650716,-0.608734 -0.650716,-1.458863 0,-0.860624 0.650716,-1.458863 0.650716,-0.608735 1.553322,-0.608735 0.913102,0 1.553322,0.608735 0.650716,0.598239 0.650716,1.458863 0,0.850129 -0.650716,1.458863 -0.64022,0.598239 -1.553322,0.598239 z m 13.843432,2.288001 v 2.938718 h -9.267455 v -2.938718 z m -6.979454,-3.862314 h 3.799342 v 15.134394 q 0,0.766166 0.230899,1.175487 0.241395,0.398826 0.629725,0.545762 0.388331,0.146936 0.860624,0.146936 0.356845,0 0.650716,-0.05248 0.304368,-0.05248 0.461799,-0.09446 l 0.64022,2.970203 q -0.304367,0.104955 -0.871119,0.2309 -0.556258,0.125945 -1.364405,0.146935 -1.427377,0.04198 -2.571377,-0.430312 -1.144001,-0.482789 -1.815708,-1.490349 -0.661211,-1.00756 -0.650716,-2.518901 z m 17.128543,20.29814 q -2.42444,0 -4.187672,-1.00756 -1.752735,-1.018056 -2.697323,-2.875745 -0.944587,-1.868184 -0.944587,-4.39758 0,-2.487415 0.944587,-4.366095 0.955084,-1.889175 2.665837,-2.938717 1.710758,-1.060037 4.019748,-1.060037 1.49035,0 2.81277,0.482789 1.33292,0.472294 2.35097,1.469359 1.02855,0.997065 1.6163,2.539891 0.58774,1.532331 0.58774,3.652406 v 1.164991 H 96.948449 v -2.560882 h 9.571821 q -0.0105,-1.091523 -0.47229,-1.941652 -0.4618,-0.860625 -1.29094,-1.353909 -0.81864,-0.493285 -1.91017,-0.493285 -1.16499,0 -2.0466,0.566753 -0.881617,0.556257 -1.374902,1.469358 -0.482789,0.902606 -0.493285,1.983634 v 2.235525 q 0,1.406386 0.514276,2.413946 0.514275,0.997065 1.437871,1.532331 0.9236,0.524771 2.16206,0.524771 0.82914,0 1.50084,-0.230899 0.67171,-0.241395 1.16499,-0.703193 0.49329,-0.461799 0.74518,-1.144001 l 3.54745,0.398826 q -0.33585,1.406386 -1.28044,2.455928 -0.93409,1.039047 -2.39296,1.616295 -1.45886,0.566752 -3.33754,0.566752 z"
     id="text1"
     aria-label="Vite" />
</svg>
