<?xml version="1.0" encoding="UTF-8" standalone="no"?>
<!-- Generator: Adobe Illustrator 19.1.0, SVG Export Plug-In . SVG Version: 6.00 Build 0)  -->

<svg
   xmlns:dc="http://purl.org/dc/elements/1.1/"
   xmlns:cc="http://creativecommons.org/ns#"
   xmlns:rdf="http://www.w3.org/1999/02/22-rdf-syntax-ns#"
   xmlns:svg="http://www.w3.org/2000/svg"
   xmlns="http://www.w3.org/2000/svg"
   xmlns:sodipodi="http://sodipodi.sourceforge.net/DTD/sodipodi-0.dtd"
   xmlns:inkscape="http://www.inkscape.org/namespaces/inkscape"
   version="1.1"
   id="svg4421"
   x="0px"
   y="0px"
   viewBox="85 63.8 120 60"
   xml:space="preserve"
   sodipodi:docname="thewashingtonpost-ar21.svg"
   width="120"
   height="60"
   inkscape:version="0.92.3 (2405546, 2018-03-11)"><metadata
   id="metadata35"><rdf:RDF><cc:Work
       rdf:about=""><dc:format>image/svg+xml</dc:format><dc:type
         rdf:resource="http://purl.org/dc/dcmitype/StillImage" /><dc:title></dc:title></cc:Work></rdf:RDF></metadata><defs
   id="defs33" /><sodipodi:namedview
   pagecolor="#ffffff"
   bordercolor="#666666"
   borderopacity="1"
   objecttolerance="10"
   gridtolerance="10"
   guidetolerance="10"
   inkscape:pageopacity="0"
   inkscape:pageshadow="2"
   inkscape:window-width="1920"
   inkscape:window-height="1001"
   id="namedview31"
   showgrid="false"
   inkscape:zoom="6.1636364"
   inkscape:cx="16.91127"
   inkscape:cy="26.631397"
   inkscape:window-x="-9"
   inkscape:window-y="-9"
   inkscape:window-maximized="1"
   inkscape:current-layer="svg4421" />
<style
   type="text/css"
   id="style2">
	.st0{fill:#757575;}
</style>


<g
   id="g855"
   transform="translate(5.55)"><g
     style="fill:#000000"
     id="g10">
	<path
   inkscape:connector-curvature="0"
   style="fill:#000000"
   id="path4"
   d="m 104.6,95 -0.7,0.8 -1.8,-1.5 V 87 l 1,-1 1.5,1.4 z m 4.8,1 v 0 l -2.1,-1.8 v -7.3 l 0.9,-0.9 1.2,1.2 z m 2.7,-2 v -7.8 l -2.3,-2.3 -2.4,2.6 -2.6,-2.6 -2.5,2.6 v -0.8 c 0,-2.2 -1.3,-1.8 -1.3,-3.3 0,-0.9 0.6,-1.3 1.3,-1.7 l -0.2,-0.2 c -2.1,0.8 -3.3,1.8 -3.3,3.1 0,1.1 0.8,1.2 0.8,2.3 v 3.2 c -1.5,0 -1.8,1.4 -1.8,2 0,0.3 0.1,0.7 0.1,0.8 h 0.3 c 0.1,-0.4 0.3,-0.8 0.8,-0.8 h 0.6 v 4.1 l 3,2.6 2.3,-2.5 2.9,2.5 z"
   class="st0" />
	<path
   inkscape:connector-curvature="0"
   style="fill:#000000"
   id="path6"
   d="m 116.8,95.6 -0.5,0.5 -1.3,-1.2 v -6.2 l 0.1,-0.1 1.8,1.3 z m 8.3,1 v 0 c -0.4,-0.5 -1.1,-0.8 -1.7,-0.8 -0.8,0 -1.1,0.3 -1.6,0.5 v -0.1 l 2.3,-3.3 h 1 z m 1.4,-7.8 -2,2.9 h -0.8 v -3.1 h 0.1 c 0.4,0.4 0.9,0.6 1.3,0.6 0.6,0.1 0.9,0 1.4,-0.4 z m -5.5,6.9 -0.3,-0.3 -0.6,0.7 -1,-0.9 v -5.7 l 0.8,-0.8 -0.3,-0.3 -0.6,0.6 -2.2,-1.8 -4,2.8 v 5.5 l -0.6,0.7 0.3,0.3 0.5,-0.5 2.1,1.8 1.8,-1.8 h 0.1 l 2,1.8 z m 6.8,-8.2 -0.3,-0.2 c -0.5,0.4 -1.1,0.5 -1.5,0.5 -0.6,0 -0.9,-0.3 -1.3,-0.6 l -3.5,2.5 v 3.9 h 1.8 l -2.9,4.2 0.3,0.1 c 0.5,-0.6 1,-0.8 1.7,-0.8 0.8,0 1.4,0.3 1.8,0.8 l 3.3,-2.3 v -4.5 h -2 z m 7.7,1.2 -0.3,-0.3 -0.6,0.6 -1.8,-1.7 -1.8,1.9 v -5.6 h -0.1 l -2.3,2.3 v 9.3 l -0.8,0.8 v 0.1 l 1.9,1.8 1.7,-1.8 v 0 l -0.7,-0.6 v -5.7 l 0.6,-0.6 1,0.9 v 7.5 c 0,1.1 -0.7,1.9 -1.7,2.4 l 0.2,0.3 c 2,-0.4 3.8,-1.8 3.8,-3.8 v -7.3 z m 5.6,7 -0.3,-0.3 -0.7,0.7 -0.9,-0.8 v -6 l 0.8,-0.8 -0.3,-0.3 -0.6,0.6 -1.6,-1.4 -2.1,2.3 0.3,0.3 0.6,-0.6 0.8,0.7 v 6 l -0.7,0.8 0.3,0.3 0.6,-0.6 1.8,1.6 z m -1.2,-10.3 -1.8,-1.6 -1.6,1.7 1.8,1.6 z"
   class="st0" />
	<path
   inkscape:connector-curvature="0"
   style="fill:#000000"
   id="path8"
   d="m 156.3,99.2 c 0,0.5 -0.3,0.8 -0.7,1.2 -0.6,-0.5 -1.2,-0.8 -2,-0.8 -1,0 -1.5,0.3 -2.2,0.7 v 0 l 3.4,-3.9 v 0.3 c 0,0.9 0.2,1.3 0.7,1.6 0.5,0.1 0.8,0.4 0.8,0.9 z m -1.5,-3.6 -0.6,0.7 -1.3,-1 v -6.4 l 0.1,-0.1 1.8,1.3 z m 13.5,0.8 -1.8,-1.3 v -6.3 0 l 1.8,1.4 z m -18.1,-0.8 -0.3,-0.3 -0.7,0.8 -0.8,-0.8 v -5.9 l 0.8,-0.8 -0.3,-0.3 -0.6,0.6 -1.8,-1.7 -2,2.1 v -0.4 l -1.9,-1.7 -2.2,2.3 0.3,0.3 0.7,-0.7 0.8,0.8 v 5.3 l -0.8,0.8 v 0.1 l 1.9,1.8 1.8,-1.8 v 0.1 l -0.7,-0.6 V 90 l 0.8,-0.8 1,0.9 v 6.2 L 148,98 Z m 7.6,-6.9 -0.3,-0.3 -0.7,0.6 -2.2,-1.7 -4,2.8 V 96 l -0.8,0.8 0.3,0.3 0.6,-0.6 1.9,1.5 -2.9,3.4 0.3,0.2 c 0.7,-0.5 1.6,-0.8 2.3,-0.8 0.7,0 1.2,0.3 1.8,1.1 2.1,-1.6 3.5,-2.5 3.5,-3.4 0,-0.8 -0.6,-0.8 -0.6,-1.8 v -7.2 z m 5.8,6.9 -0.3,-0.3 -0.7,0.8 -1,-0.8 V 89 h 1 l 0.8,-1.1 -0.1,-0.1 h -1.7 V 84 l -0.1,-0.1 -2.3,2.4 v 1.4 h -0.6 l -0.8,1.1 0.1,0.1 h 1.3 v 7.3 l -0.7,0.7 0.3,0.3 0.6,-0.6 1.8,1.4 z m 7.7,-6.8 -0.3,-0.3 -0.6,0.6 -2.4,-1.8 -3.8,2.7 v 5.7 l -0.7,0.7 0.3,0.3 0.6,-0.6 2.6,1.9 3.6,-2.7 v -5.8 z m 9.8,6.8 -0.3,-0.3 -0.7,0.8 -0.8,-0.8 v -5.9 l 0.8,-0.8 -0.3,-0.3 -0.6,0.6 -1.8,-1.7 -2,2.1 v -0.4 l -1.9,-1.7 -2.2,2.3 0.3,0.3 0.7,-0.7 0.8,0.8 v 5.3 l -0.8,0.8 v 0.1 l 1.9,1.8 1.8,-1.8 v 0.1 l -0.7,-0.6 V 90 l 0.8,-0.8 1,0.9 v 6.2 l 1.8,1.7 z"
   class="st0" />
</g><g
     style="fill:#000000"
     id="g18">
	<path
   inkscape:connector-curvature="0"
   style="fill:#000000"
   id="path12"
   d="m 137.4,73.7 c -0.3,1.2 -0.8,2 -1.8,2.6 v -7.7 c 1.7,-0.5 2.1,-1.8 2.1,-3.2 h -0.3 c -0.3,0.8 -0.8,1.1 -1.8,1.1 -1.8,0 -3,-1.4 -4.5,-1.4 -2.4,0 -3.6,2.3 -3.6,4.2 0,0.1 0,0.3 0,0.4 h 0.3 c 0,-1.1 0.9,-2.1 2.4,-2.1 0.3,0 0.6,0.1 0.9,0.2 -2.2,1.3 -3.8,2.9 -3.9,5.3 v 1.2 c 0.3,3.2 2.4,5.2 5.3,5.2 2.9,0 4.8,-2.8 5.1,-5.5 z m -8.1,-1.1 c 0,-2.4 1.1,-3.6 2.1,-4.7 0.8,0.2 1.5,0.5 2.3,0.7 l -3.2,1.8 0.3,0.3 0.7,-0.3 v 5.3 l -0.7,0.3 c -1.1,-0.8 -1.5,-2.2 -1.5,-3.4 z m 5.8,3.8 c -0.6,0.3 -1.3,0.4 -1.9,0.4 -0.9,0 -1.5,-0.3 -2.1,-0.7 l 2.7,-1.5 v -6.2 c 0.3,0.1 0.6,0.1 0.8,0.1 0.2,0 0.3,0 0.5,0 z"
   class="st0" />
	<path
   inkscape:connector-curvature="0"
   style="fill:#000000"
   id="path14"
   d="m 149.6,77.3 -1.9,-1.5 v -1 l 4,-2.8 -2.2,-3.4 -4,2.9 v 5.3 l -0.7,0.7 0.3,0.3 0.6,-0.6 2.7,2.2 3,-3.2 -0.3,-0.3 z m -1.8,-7.2 v 0 l 1.8,2.9 -1.8,1.3 z"
   class="st0" />
	<path
   inkscape:connector-curvature="0"
   style="fill:#000000"
   id="path16"
   d="m 144.7,69.7 -0.6,0.6 -1.8,-1.7 -1.8,1.9 v -5.6 h -0.1 l -2.3,2.3 v 9.3 l -0.8,0.8 v 0.1 l 1.9,1.8 1.7,-1.8 -0.7,-0.6 v -5.7 l 0.6,-0.6 1,0.9 v 7.5 c 0,1.1 -0.7,1.9 -1.7,2.4 l 0.2,0.3 c 2,-0.4 3.8,-1.8 3.8,-3.8 v -7.3 l 0.8,-0.7 z"
   class="st0" />
</g><g
     style="fill:#000000"
     id="g28">
	<path
   inkscape:connector-curvature="0"
   style="fill:#000000"
   id="path20"
   d="m 129.6,106.6 v -2 h -0.4 v 2.4 l -0.6,0.7 v -2.1 l -2,-1.8 -2.3,2.4 0.3,0.3 0.6,-0.6 0.8,0.7 v 2.3 h -0.2 c -1.2,0 -1.8,0.8 -1.8,1.8 0,0.6 0.1,0.8 0.2,1 h 0.3 c 0.1,-0.5 0.5,-0.9 1.1,-0.9 h 0.4 v 4.1 c -1.4,0.4 -2.2,1.7 -2.3,3.3 l 0.2,0.1 c 0.7,-0.8 1.4,-1.3 2.2,-1.4 l 0.1,5.7 2.4,-2.3 1.2,1.1 h 0.1 v -4.3 c 0.5,0.2 1,0.6 1.3,1 l 3.7,-2.8 v -9.2 l -2.3,-2.2 z m -0.5,13.8 -0.6,-0.6 V 108 l 0.6,-0.7 z m 2.8,-4.8 c -0.7,-0.7 -1.3,-1 -2.3,-1.1 v -7.7 l 1.1,-1.2 1.3,1.2 v 8.8 z"
   class="st0" />
	<path
   inkscape:connector-curvature="0"
   style="fill:#000000"
   id="path22"
   d="m 149.5,107.2 c -0.5,0.4 -1.1,0.5 -1.5,0.5 -0.6,0 -0.9,-0.3 -1.3,-0.6 l -3.5,2.5 v 3.9 h 1.9 l -2.9,4.2 0.3,0.1 c 0.5,-0.6 1,-0.8 1.7,-0.8 0.8,0 1.4,0.3 1.8,0.8 l 3.3,-2.3 V 111 h -2 l 2.4,-3.6 z m -2.4,9.2 v 0 c -0.5,-0.5 -1.2,-0.8 -1.8,-0.8 -0.8,0 -1.1,0.3 -1.6,0.5 V 116 l 2.3,-3.3 h 1 v 3.7 z m -0.7,-4.8 h -0.8 v -3.1 h 0.1 c 0.4,0.4 0.9,0.6 1.3,0.6 0.7,0.1 0.9,-0.1 1.4,-0.4 z"
   class="st0" />
	<polygon
   style="fill:#000000"
   id="polygon24"
   points="153.4,108.8 154.4,108.8 155.2,107.7 155.1,107.6 153.4,107.6 153.4,103.9 153.4,103.8 151.1,106.2 151.1,107.6 150.6,107.6 149.9,108.7 149.9,108.8 151.2,108.8 151.2,116 150.5,116.7 150.8,116.9 151.4,116.4 153.2,117.8 155.4,115.4 155.1,115.1 154.4,115.9 153.4,115.1 "
   class="st0" />
	<path
   inkscape:connector-curvature="0"
   style="fill:#000000"
   id="path26"
   d="m 142.5,108.4 -0.6,0.6 -2.4,-1.8 -3.8,2.7 v 5.7 l -0.7,0.7 0.3,0.3 0.6,-0.6 2.6,1.9 3.6,-2.7 v -5.8 l 0.7,-0.5 z m -2.6,7.9 -1.8,-1.3 v -6.3 l 1.8,1.4 z"
   class="st0" />
</g></g>
</svg>