<?xml version="1.0" encoding="utf-8"?>
<!-- Generator: Adobe Illustrator 24.1.0, SVG Export Plug-In . SVG Version: 6.00 Build 0)  -->
<svg version="1.1" id="Layer_1" xmlns="http://www.w3.org/2000/svg" xmlns:xlink="http://www.w3.org/1999/xlink" x="0px" y="0px"
	 viewBox="0 0 64 64" width="64" height="64" style="enable-background:new 0 0 64 64;" xml:space="preserve">
<style type="text/css">
	.st0{fill:#42C1CA;}
	.st1{fill:#FEFEFE;}
</style>
<g>
	<path class="st0" d="M63.7,36.7c-2.6,17.5-18.8,29.6-36.3,27C9.9,61.1-2.2,44.8,0.3,27.3C2.9,9.9,19.2-2.2,36.7,0.3
		C54.1,2.9,66.2,19.2,63.7,36.7"/>
	<path class="st1" d="M46.4,12.8c-6.5-4.1-11.1,4.9-11.2,5.2c-1.2,2.2-2.1,5.7-2.7,8.3L24,25l-0.3,2.3l8.3,1.2c-0.2,1.2-0.3,2-0.3,2
		L31.2,33h0l0,0.1L23,31.9l-0.3,2.3l8.2,1.2c-2.1,10.8-3.7,14.1-5.3,15.9c-0.3,0.4-2.6,1.9-3.8-0.8c-0.8-1.9-2.3-1.7-2.3-1.7
		C19,48.7,17,50,20.1,52c6.4,4.1,11.1-4.9,11.2-5.2c1.2-2.2,2.7-8.3,3.3-10.9l8.5,1.3l0.3-2.3L35,33.7c0.2-1.2,0.3-2,0.3-2l0.4-2.5
		h0l0-0.1l8.3,1.2l0.3-2.3l-8.2-1.2C38.4,16,39.4,15.4,41,13.6c0.3-0.4,2.6-1.9,3.8,0.8c0.8,1.9,2.3,1.7,2.3,1.7
		C47.5,16.1,49.5,14.8,46.4,12.8"/>
</g>
</svg>
