<?xml version="1.0" encoding="UTF-8" standalone="no"?>
<svg
   xmlns:dc="http://purl.org/dc/elements/1.1/"
   xmlns:cc="http://creativecommons.org/ns#"
   xmlns:rdf="http://www.w3.org/1999/02/22-rdf-syntax-ns#"
   xmlns:svg="http://www.w3.org/2000/svg"
   xmlns="http://www.w3.org/2000/svg"
   xmlns:sodipodi="http://sodipodi.sourceforge.net/DTD/sodipodi-0.dtd"
   xmlns:inkscape="http://www.inkscape.org/namespaces/inkscape"
   viewBox="0 0 120 60"
   version="1.1"
   id="svg29"
   sodipodi:docname="tailwindcss-ar21.svg"
   width="120"
   height="60"
   inkscape:version="0.92.3 (2405546, 2018-03-11)">
  <metadata
     id="metadata33">
    <rdf:RDF>
      <cc:Work
         rdf:about="">
        <dc:format>image/svg+xml</dc:format>
        <dc:type
           rdf:resource="http://purl.org/dc/dcmitype/StillImage" />
        <dc:title></dc:title>
      </cc:Work>
    </rdf:RDF>
  </metadata>
  <sodipodi:namedview
     pagecolor="#ffffff"
     bordercolor="#666666"
     borderopacity="1"
     objecttolerance="10"
     gridtolerance="10"
     guidetolerance="10"
     inkscape:pageopacity="0"
     inkscape:pageshadow="2"
     inkscape:window-width="1920"
     inkscape:window-height="1001"
     id="namedview31"
     showgrid="false"
     inkscape:zoom="5.9599"
     inkscape:cx="64.070545"
     inkscape:cy="44.05452"
     inkscape:window-x="-9"
     inkscape:window-y="-9"
     inkscape:window-maximized="1"
     inkscape:current-layer="svg29" />
  <defs
     id="defs15">
    <circle
       id="b"
       cx="48"
       cy="28"
       r="28" />
    <filter
       x="-0.125"
       y="-0.088999994"
       width="1.25"
       height="1.25"
       filterUnits="objectBoundingBox"
       id="a">
      <feOffset
         dy="2"
         in="SourceAlpha"
         result="shadowOffsetOuter1"
         id="feOffset3" />
      <feGaussianBlur
         stdDeviation="2"
         in="shadowOffsetOuter1"
         result="shadowBlurOuter1"
         id="feGaussianBlur5" />
      <feColorMatrix
         values="0 0 0 0 0 0 0 0 0 0 0 0 0 0 0 0 0 0 0.1 0"
         in="shadowBlurOuter1"
         id="feColorMatrix7" />
    </filter>
    <linearGradient
       x1="21.688707"
       y1="20.65591"
       y2="51.639778"
       id="c"
       gradientTransform="matrix(1.1277828,0,0,0.67666973,-17.165879,5.5398462)"
       x2="52.672573"
       gradientUnits="userSpaceOnUse">
      <stop
         stop-color="#2383AE"
         offset="0%"
         id="stop10" />
      <stop
         stop-color="#6DD7B9"
         offset="100%"
         id="stop12" />
    </linearGradient>
  </defs>
  <g
     id="g864"
     transform="translate(1.3326779)">
    <path
       d="m 16.030043,26.505693 c 1.164477,-4.658786 4.076982,-6.988614 8.735768,-6.988614 6.988615,0 7.862192,5.24146 11.356499,6.115037 2.329831,0.582677 4.367884,-0.290901 6.115038,-2.62073 C 41.072871,27.670171 38.160365,30 33.50158,30 c -6.988616,0 -7.862192,-5.241462 -11.3565,-6.115038 -2.32983,-0.582676 -4.367884,0.290902 -6.115037,2.620731 z M 7.2942741,36.988616 C 8.4587522,32.32983 11.371258,30 16.030043,30 c 6.988614,0 7.862191,5.241461 11.356498,6.115037 2.32983,0.582676 4.367885,-0.2909 6.115039,-2.62073 -1.164478,4.658785 -4.076984,6.988614 -8.735769,6.988614 -6.988615,0 -7.862191,-5.241461 -11.3565,-6.115037 -2.329828,-0.582677 -4.367883,0.290902 -6.1150369,2.620732 z"
       id="path23"
       inkscape:connector-curvature="0"
       style="fill:url(#c);fill-rule:evenodd;stroke-width:0.87357682" />
    <path
       d="m 48.598491,27.578305 h -2.286935 v -1.370169 h 6.169746 v 1.370169 h -2.286271 v 6.213559 h -1.59654 z m 6.868772,5.512542 c -0.219068,0.247613 -0.466017,0.449421 -0.73952,0.605424 -0.272175,0.156003 -0.625339,0.233673 -1.058164,0.233673 -0.248277,0 -0.484604,-0.03187 -0.706991,-0.09559 -0.224379,-0.06373 -0.419549,-0.162641 -0.586173,-0.297401 -0.16596,-0.13476 -0.298729,-0.305367 -0.398305,-0.515141 -0.09958,-0.20911 -0.149364,-0.458052 -0.149364,-0.748814 0,-0.382373 0.08497,-0.693714 0.255579,-0.934689 0.169943,-0.240974 0.393658,-0.428178 0.67048,-0.562938 0.276158,-0.13476 0.586172,-0.230353 0.929379,-0.286779 0.345197,-0.05643 0.693714,-0.09294 1.04887,-0.106215 l 0.712302,-0.03187 V 30.07435 c 0,-0.339887 -0.09294,-0.573559 -0.282133,-0.701017 -0.187867,-0.127457 -0.408926,-0.191186 -0.663842,-0.191186 -0.589491,0 -0.926059,0.223051 -1.011031,0.669152 l -1.360875,-0.127457 c 0.09825,-0.580862 0.353827,-1.00041 0.764745,-1.258644 0.411582,-0.258899 0.964562,-0.387684 1.659605,-0.387684 0.424859,0 0.787316,0.05112 1.084717,0.154011 0.298729,0.102896 0.537712,0.249605 0.718277,0.440791 0.180565,0.191187 0.312006,0.422868 0.393658,0.695707 0.08165,0.272175 0.122147,0.57887 0.122147,0.918757 v 3.505084 h -1.404025 v -0.701017 z m -0.03186,-1.773785 -0.659195,0.03186 c -0.312005,0.01328 -0.564265,0.04647 -0.754788,0.09559 -0.191186,0.04979 -0.338559,0.111525 -0.441455,0.185875 -0.102895,0.07435 -0.172598,0.161314 -0.207118,0.260226 -0.03585,0.09958 -0.05311,0.209111 -0.05311,0.329266 0,0.183883 0.06373,0.329266 0.191187,0.43548 0.127457,0.106214 0.305367,0.159322 0.531073,0.159322 0.383701,0 0.695707,-0.08829 0.936017,-0.265537 0.135424,-0.09958 0.245622,-0.225707 0.330593,-0.377062 0.08497,-0.152684 0.127458,-0.341879 0.127458,-0.568249 v -0.28678 z m 2.646074,-3.069604 h 1.488997 v 5.544406 h -1.488997 z m -0.02124,-2.039322 h 1.531483 v 1.338305 h -1.531483 z m 2.784152,0 h 1.488997 v 7.583728 h -1.488997 z m 2.157486,2.039322 h 1.615791 l 0.776695,3.675028 1.063475,-3.632542 h 1.29781 l 1.010368,3.632542 0.776695,-3.675028 h 1.553389 l -1.617118,5.544406 h -1.447175 l -0.989125,-3.653785 -1.000409,3.653785 h -1.425269 l -1.616455,-5.544406 z m 8.761384,0 h 1.488998 v 5.544406 h -1.488998 z m -0.02124,-2.039322 h 1.531483 v 1.338305 h -1.531483 z m 2.773531,2.039322 h 1.447176 v 0.764745 c 0.219067,-0.325282 0.479957,-0.562937 0.781341,-0.711638 0.301385,-0.148701 0.615382,-0.223051 0.941328,-0.223051 0.631978,0 1.099986,0.164632 1.404689,0.493898 0.305368,0.329266 0.458051,0.847726 0.458051,1.556046 v 3.664406 h -1.491652 v -3.462598 c 0,-0.389676 -0.07435,-0.655212 -0.223715,-0.796611 -0.148701,-0.141398 -0.347189,-0.212429 -0.595466,-0.212429 -0.191187,0 -0.356483,0.02855 -0.494562,0.08497 -0.138079,0.05643 -0.267528,0.138079 -0.388348,0.244294 -0.09958,0.09958 -0.182556,0.21774 -0.250268,0.355819 -0.06638,0.138079 -0.09958,0.288771 -0.09958,0.451412 v 3.335141 h -1.489661 v -5.544406 z m 10.081102,4.811524 c -0.424859,0.602105 -0.999746,0.902825 -1.723333,0.902825 -0.780014,0 -1.360876,-0.262217 -1.744576,-0.785989 -0.382373,-0.524435 -0.574224,-1.250014 -0.574224,-2.177401 0,-0.431497 0.0551,-0.826483 0.165961,-1.184294 0.10887,-0.358474 0.266864,-0.665833 0.472655,-0.924067 0.205791,-0.258899 0.458051,-0.458051 0.754788,-0.600113 0.298729,-0.141399 0.634633,-0.21243 1.011031,-0.21243 0.276159,0 0.550989,0.04979 0.823164,0.148701 0.274167,0.09958 0.531074,0.290099 0.772048,0.573559 v -2.591638 h 1.488997 v 7.583728 h -1.445847 v -0.732881 z m -0.03186,-2.103051 c 0,-0.353827 -0.02987,-0.637288 -0.09028,-0.849717 -0.05974,-0.21243 -0.157994,-0.385029 -0.29209,-0.520451 -0.128122,-0.127459 -0.268192,-0.210438 -0.420876,-0.249605 -0.152683,-0.03983 -0.302712,-0.05842 -0.451412,-0.05842 -0.163305,0 -0.318644,0.03186 -0.463362,0.09559 -0.146045,0.06373 -0.272175,0.162642 -0.383037,0.297401 -0.110197,0.13476 -0.197161,0.312006 -0.260889,0.531074 -0.06373,0.219068 -0.09559,0.481285 -0.09559,0.785989 0,0.331921 0.02987,0.610734 0.09028,0.833785 0.05975,0.223051 0.142726,0.403616 0.248941,0.541695 0.106214,0.138078 0.231017,0.23699 0.371751,0.297401 0.142726,0.05975 0.29541,0.09028 0.458051,0.09028 0.354491,0 0.645254,-0.102895 0.872288,-0.308022 0.141398,-0.141398 0.245621,-0.313333 0.313333,-0.515141 0.06638,-0.201808 0.100904,-0.462034 0.100904,-0.780679 v -0.191186 z m 11.642457,0.21243 c -0.03585,0.403615 -0.129449,0.776695 -0.282132,1.120566 -0.152684,0.343205 -0.361794,0.640606 -0.627331,0.892202 -0.265537,0.25226 -0.592147,0.448093 -0.979167,0.589491 -0.386355,0.141399 -0.834449,0.21243 -1.344943,0.21243 -0.574223,0 -1.079407,-0.09559 -1.515551,-0.28678 -0.436144,-0.191186 -0.801257,-0.460042 -1.095339,-0.807231 -0.294746,-0.34719 -0.515805,-0.766738 -0.665169,-1.258645 -0.148701,-0.491242 -0.223051,-1.035593 -0.223051,-1.630395 0,-0.616045 0.08099,-1.168362 0.24363,-1.656949 0.163305,-0.488588 0.398305,-0.906144 0.702344,-1.253333 0.305368,-0.34719 0.6738,-0.612726 1.105961,-0.796611 0.433489,-0.183884 0.92274,-0.276158 1.469082,-0.276158 0.481949,0 0.902825,0.05975 1.259971,0.180565 0.358475,0.119492 0.660523,0.294082 0.904817,0.520452 0.245621,0.225706 0.441455,0.499209 0.590819,0.817853 0.148701,0.318644 0.258898,0.677119 0.329266,1.072769 l -1.574633,0.201807 c -0.07833,-0.446101 -0.229026,-0.79661 -0.451413,-1.051525 -0.224378,-0.254915 -0.577542,-0.382373 -1.058827,-0.382373 -0.610735,0 -1.072769,0.228362 -1.38743,0.685085 -0.316652,0.456723 -0.474647,1.101977 -0.474647,1.938418 0,0.843079 0.168616,1.490325 0.505848,1.943729 0.336568,0.453404 0.788644,0.679774 1.356229,0.679774 0.489251,0 0.849717,-0.12613 1.079407,-0.377062 0.229689,-0.25226 0.373079,-0.610735 0.430169,-1.078079 z m 2.316808,0.1487 c 0.03452,0.467346 0.185876,0.807232 0.451413,1.019661 0.265536,0.212431 0.657203,0.318644 1.175,0.318644 0.24828,0 0.45805,-0.02655 0.62799,-0.07966 0.16995,-0.05311 0.30803,-0.124138 0.4149,-0.212429 0.10622,-0.08829 0.18256,-0.192514 0.22837,-0.313333 0.0465,-0.119492 0.069,-0.25226 0.069,-0.392995 0,-0.199152 -0.073,-0.385028 -0.22239,-0.557627 -0.14936,-0.172599 -0.4222,-0.298729 -0.81918,-0.377062 l -0.989125,-0.180565 c -0.389675,-0.07103 -0.733545,-0.162641 -1.03161,-0.276158 -0.297401,-0.112853 -0.547669,-0.260226 -0.750141,-0.440791 -0.201808,-0.180565 -0.355819,-0.401625 -0.462034,-0.663842 -0.106215,-0.262218 -0.159322,-0.573558 -0.159322,-0.934688 0,-0.36113 0.07302,-0.679774 0.21774,-0.955934 0.146045,-0.276157 0.347189,-0.506511 0.606088,-0.690394 0.258898,-0.183884 0.570904,-0.323956 0.93137,-0.419548 0.361793,-0.09559 0.758771,-0.14339 1.191594,-0.14339 0.55298,0 1.01435,0.06373 1.38278,0.191187 0.3691,0.127457 0.66716,0.295409 0.8942,0.504518 0.22703,0.209111 0.39498,0.451413 0.50452,0.727572 0.11086,0.276157 0.18322,0.562937 0.21907,0.860338 l -1.50029,0.191186 c -0.0777,-0.41822 -0.22836,-0.71894 -0.45141,-0.902824 -0.22371,-0.183885 -0.56227,-0.276159 -1.01568,-0.276159 -0.27018,0 -0.491239,0.02323 -0.665166,0.06904 -0.173926,0.04647 -0.313997,0.106214 -0.420212,0.180565 -0.106214,0.07435 -0.181228,0.161313 -0.223714,0.260226 -0.04249,0.09958 -0.06373,0.201808 -0.06373,0.308022 0,0.283461 0.07966,0.49589 0.238983,0.637289 0.159322,0.141398 0.430169,0.252259 0.813206,0.329265 l 1.042233,0.201808 c 0.82316,0.162641 1.42593,0.42685 1.80897,0.791298 0.38237,0.365114 0.57422,0.889549 0.57422,1.577289 0,0.331922 -0.0624,0.639279 -0.18588,0.918757 -0.1248,0.278813 -0.30868,0.524435 -0.55364,0.732881 -0.24363,0.209111 -0.55099,0.371752 -0.91942,0.488588 -0.36843,0.116836 -0.80126,0.175255 -1.29781,0.175255 -1.035594,0 -1.827557,-0.221059 -2.376554,-0.663843 -0.550989,-0.442782 -0.846398,-1.109943 -0.889548,-2.002147 h 1.606482 z m 6.899973,0 c 0.0352,0.467346 0.18587,0.807232 0.45141,1.019661 0.26554,0.212431 0.65854,0.318644 1.17501,0.318644 0.24894,0 0.45805,-0.02655 0.62864,-0.07966 0.16995,-0.05311 0.30803,-0.124138 0.41492,-0.212429 0.10621,-0.08829 0.18255,-0.192514 0.22835,-0.313333 0.0465,-0.119492 0.069,-0.25226 0.069,-0.392995 0,-0.199152 -0.0744,-0.385028 -0.22305,-0.557627 -0.1487,-0.172599 -0.42221,-0.298729 -0.81918,-0.377062 L 106.36,30.541696 c -0.39033,-0.07103 -0.7342,-0.162641 -1.0316,-0.276158 -0.29873,-0.112853 -0.54834,-0.260226 -0.75015,-0.440791 -0.2018,-0.180565 -0.35648,-0.401625 -0.46269,-0.663842 -0.10622,-0.262218 -0.15933,-0.573559 -0.15933,-0.934689 0,-0.36113 0.073,-0.679774 0.21774,-0.955933 0.14605,-0.276158 0.34786,-0.506511 0.60609,-0.690395 0.2589,-0.183884 0.56958,-0.323955 0.93071,-0.419548 0.36179,-0.09559 0.75876,-0.14339 1.19159,-0.14339 0.55298,0 1.01435,0.06373 1.38278,0.191187 0.3691,0.127457 0.6665,0.295409 0.89353,0.504519 0.22704,0.209111 0.39565,0.451413 0.50452,0.727571 0.11086,0.276158 0.18322,0.562938 0.21907,0.860339 l -1.50028,0.191186 c -0.0777,-0.41822 -0.22836,-0.71894 -0.45141,-0.902824 -0.22372,-0.183885 -0.56228,-0.276159 -1.01568,-0.276159 -0.27019,0 -0.49124,0.02323 -0.66517,0.06904 -0.17393,0.04647 -0.31399,0.106215 -0.42021,0.180565 -0.10621,0.07435 -0.18123,0.161313 -0.22371,0.260226 -0.0425,0.09958 -0.0637,0.201808 -0.0637,0.308022 0,0.283461 0.0797,0.49589 0.23898,0.637289 0.15932,0.141398 0.43149,0.252259 0.81387,0.329265 l 1.04223,0.201808 c 0.82316,0.162641 1.42593,0.42685 1.80897,0.791299 0.38303,0.365113 0.57422,0.889549 0.57422,1.577289 0,0.331921 -0.0617,0.639279 -0.18588,0.918757 -0.12413,0.278813 -0.30868,0.524435 -0.55364,0.732881 -0.24429,0.20911 -0.55099,0.371751 -0.92008,0.488588 -0.36844,0.116836 -0.80126,0.175254 -1.29715,0.175254 -1.03559,0 -1.82822,-0.221059 -2.37788,-0.663842 -0.54966,-0.442782 -0.84573,-1.109943 -0.88822,-2.002147 z"
       id="path25"
       inkscape:connector-curvature="0"
       style="fill:#24292e;fill-rule:evenodd;stroke-width:0.66384178" />
  </g>
</svg>
