<svg xmlns="http://www.w3.org/2000/svg" xmlns:xlink="http://www.w3.org/1999/xlink" viewBox="-55 318.2 120 60" width="120" height="60"><path d="M-45 338.97h7.323c1.378 0 2.455.345 3.2.948.84.7 1.314 1.723 1.314 2.95 0 1.42-.582 2.326-1.766 2.865v.065c1.55.517 2.434 1.895 2.434 3.575 0 1.594-.603 2.843-1.615 3.597-.84.603-1.96.905-3.425.905h-7.452V338.97zm6.6 5.837c.797 0 1.357-.43 1.357-1.314 0-.84-.603-1.27-1.378-1.27h-2.52v2.563h2.54zm.366 5.772c.883 0 1.55-.538 1.55-1.53 0-1.034-.7-1.53-1.572-1.53h-2.886v3.058zm6.268-11.6h3.834v14.926h-3.834z"/><use xlink:href="#A"/><use xlink:href="#A" x="11.501"/><path d="M-3.863 343.236H-.3v1.594h.065c.7-1.25 1.68-1.917 3.2-1.917 1.335 0 2.348.668 2.865 1.83h.065c.862-1.4 2.003-1.83 3.295-1.83 2.477 0 3.532 1.83 3.532 4.264v6.72H8.974v-6.03c0-1.098-.345-1.8-1.292-1.8-.926 0-1.4.862-1.4 2.025v5.815H2.577v-6.03c0-1.098-.345-1.8-1.292-1.8-.926 0-1.4.862-1.4 2.025v5.815h-3.748v-10.66zm21.323 9.26h-.043v1.378h-3.554V338.95H17.6v5.384h.065c.7-.926 1.658-1.42 3.037-1.42 2.67 0 4.22 2.412 4.22 5.62 0 3.618-1.68 5.708-4.458 5.708-1.185 0-2.37-.56-3.015-1.745zm3.64-3.984c0-1.723-.625-2.82-1.766-2.82s-1.874 1.098-1.874 2.82c0 1.7.732 2.82 1.874 2.82s1.766-1.098 1.766-2.82zm4.242.022c0-3.317 2.197-5.643 5.384-5.643 1.594 0 2.8.495 3.748 1.378 1.228 1.185 1.788 3.058 1.745 5.234h-7.15c.15 1.335.797 2.003 1.917 2.003.646 0 1.228-.302 1.465-1.012h3.597c-.625 2.434-2.52 3.66-5.2 3.66-3.295.022-5.514-2.197-5.514-5.62zm3.726-1.098h3.403c-.065-1.292-.775-1.96-1.658-1.96-1.034 0-1.594.732-1.745 1.96zm11.394-2.37h.065c.775-1.486 1.788-2.046 3.058-2.046.302 0 .495.043.603.108v3.274h-.086c-2.197-.388-3.5.646-3.5 3.058v4.437h-3.748v-10.64h3.554v1.8z"/><path d="M44.62 353.897h3.597c.13.452.603.905 1.508.905 1.206 0 1.615-.754 1.615-1.852v-.775h-.086c-.603.7-1.378 1.206-2.563 1.206-2.305 0-4.286-1.7-4.286-5.018 0-3.058 1.637-5.428 4.114-5.428 1.42 0 2.305.582 2.865 1.486h.065v-1.163H55v9.218c0 1.7-.603 3.037-1.486 3.812-.926.84-2.26 1.163-3.77 1.163-2.8 0-4.78-1.163-5.126-3.554zm6.87-5.73c0-1.335-.625-2.4-1.723-2.4-1.055 0-1.723.948-1.723 2.4 0 1.42.668 2.455 1.723 2.455 1.098 0 1.723-1.055 1.723-2.455z"/><defs><path id="A" d="M-27.167 348.577c0-3.36 2.175-5.643 5.535-5.643s5.492 2.283 5.492 5.643c0 3.38-2.132 5.643-5.492 5.643s-5.535-2.26-5.535-5.643zm7.237 0c0-1.852-.603-3.037-1.745-3.037s-1.7 1.163-1.7 3.037.56 3.037 1.7 3.037c1.142.022 1.745-1.142 1.745-3.037z"/></defs></svg>