<?xml version="1.0" encoding="UTF-8" standalone="no"?>
<!-- Generator: Adobe Illustrator 16.0.0, SVG Export Plug-In . SVG Version: 6.00 Build 0)  -->

<svg
   xmlns:dc="http://purl.org/dc/elements/1.1/"
   xmlns:cc="http://creativecommons.org/ns#"
   xmlns:rdf="http://www.w3.org/1999/02/22-rdf-syntax-ns#"
   xmlns:svg="http://www.w3.org/2000/svg"
   xmlns="http://www.w3.org/2000/svg"
   xmlns:sodipodi="http://sodipodi.sourceforge.net/DTD/sodipodi-0.dtd"
   xmlns:inkscape="http://www.inkscape.org/namespaces/inkscape"
   version="1.1"
   id="Layer_1"
   x="0px"
   y="0px"
   width="64"
   height="64"
   viewBox="0 0 64 64"
   enable-background="new 0 0 271.486 231"
   xml:space="preserve"
   sodipodi:docname="postmates-icon.svg"
   inkscape:version="0.92.3 (2405546, 2018-03-11)"><metadata
   id="metadata29"><rdf:RDF><cc:Work
       rdf:about=""><dc:format>image/svg+xml</dc:format><dc:type
         rdf:resource="http://purl.org/dc/dcmitype/StillImage" /><dc:title></dc:title></cc:Work></rdf:RDF></metadata><defs
   id="defs27">
	
	
	
	
	
	
	
	
	
	
</defs><sodipodi:namedview
   pagecolor="#ffffff"
   bordercolor="#666666"
   borderopacity="1"
   objecttolerance="10"
   gridtolerance="10"
   guidetolerance="10"
   inkscape:pageopacity="0"
   inkscape:pageshadow="2"
   inkscape:window-width="1920"
   inkscape:window-height="1001"
   id="namedview25"
   showgrid="false"
   inkscape:zoom="1.9813391"
   inkscape:cx="76.651671"
   inkscape:cy="94.982336"
   inkscape:window-x="-9"
   inkscape:window-y="-9"
   inkscape:window-maximized="1"
   inkscape:current-layer="Layer_1" />
<g
   id="g858"
   transform="matrix(1.4845501,0,0,1.4845501,-6.179466,-3.9981093)"><path
     d="m 46.196528,20.85308 c -1.314501,-1.828741 -3.589684,-2.724217 -5.797808,-2.281481 -0.803223,0.160423 -1.550503,0.486084 -2.22035,0.967351 -0.307878,0.221183 -0.585375,0.4683 -0.835456,0.734683 L 35.670519,18.95691 c 0.487195,-0.181911 2.005095,-0.79248 1.376743,-1.123328 -0.168202,-0.08929 -0.512388,-0.149678 -0.956236,-0.182652 l 1.186311,-1.032187 0.258973,-0.225258 2.221091,-1.932849 -1.032928,-2.012135 -3.405179,3.054325 c 0,0 -0.003,-0.0048 -0.334182,0.297874 -0.003,0 -0.0074,-7.41e-4 -0.01,-3.7e-4 l 0.0033,0.0067 -0.0026,0.0022 -0.0011,-0.0026 c -0.722457,-0.04705 -1.401936,0.01445 -1.776502,0.06743 l -7.41e-4,-0.0015 c -0.763211,0.137082 -1.409347,0.235632 -1.717224,0.175242 -1.11777,-0.217477 -1.38193,-1.406011 -1.88802,-2.097347 -0.288242,-0.391979 -0.866948,-0.437179 -0.916223,-0.773955 0.159681,-0.02927 0.3101,-0.07521 0.445329,-0.139304 0.613903,-0.292688 0.826935,-0.567962 0.993285,-0.939564 0.211551,-0.471635 -0.01408,-1.247812 -0.329736,-1.890984 0.254527,-0.183763 1.204465,-0.9251152 1.167045,-1.0518229 -0.0126,-0.046682 -1.195573,0.116334 -1.69166,0.2126616 -0.07333,-0.088162 -0.141131,-0.1570731 -0.200039,-0.20005 C 28.65528,8.8695623 28.32332,8.566501 27.368196,8.9658899 25.733962,9.648704 25.818804,10.922451 26.360832,12.057634 c 0.250081,0.525726 0.686889,0.856204 1.16297,1.023295 -0.03557,0.06632 -0.05372,0.104478 -0.0715,0.138193 l 0.04483,-0.11337 c -2.579726,2.327422 -8.602421,6.24573 -10.188861,6.323904 1.313759,0.512018 5.093875,0.582411 6.678463,-0.363452 -0.444959,1.809847 -0.471634,3.594871 0.291947,4.479602 -0.586487,0.435326 -1.192239,0.903997 -1.483815,1.188534 -0.230445,0.223406 -0.160423,0.337887 0.03705,0.590191 0,0 1.53309,0.02853 1.987682,-0.403834 0.121891,-0.115223 0.228222,-0.220813 0.324179,-0.318252 l 2.115872,1.495671 -0.199324,2.136989 c -0.359376,0.0022 -0.720234,0.03557 -1.07998,0.107813 -0.802853,0.160793 -1.549762,0.486825 -2.21998,0.968092 -2.572316,1.848748 -3.162507,5.4451 -1.314871,8.018157 1.314501,1.828742 3.590795,2.723847 5.798548,2.282223 0.803224,-0.161534 1.550133,-0.486084 2.21998,-0.968463 2.382996,-1.711296 3.060252,-4.921226 1.680545,-7.430559 l 0.419396,-0.270829 c 0.421989,0.232298 0.955865,0.221183 1.373408,-0.07854 0.421248,-0.303061 0.602418,-0.813227 0.510536,-1.29116 0.574261,-0.165609 1.176308,-0.360857 1.848378,-0.559811 0.696522,-0.205993 0.799519,-0.414579 0.627241,-0.759135 -0.234521,-0.469412 -2.00102,-0.0452 -2.229242,-0.311212 l -0.489048,-1.127032 0.96661,-7.077853 1.632382,1.212246 c -1.334508,1.940629 -1.391193,4.588525 0.05891,6.60844 1.314871,1.828742 3.590794,2.723847 5.798548,2.281852 0.802853,-0.161534 1.550132,-0.486825 2.219238,-0.968092 2.573428,-1.848748 3.16362,-5.445841 1.315613,-8.018158 m -14.96745,-3.702683 c 0.849906,0.07521 1.724263,0.0044 2.494143,-0.114481 l 0.280091,0.620572 c -0.606123,0.03742 -1.227806,0.102626 -1.791693,0.195619 -0.448293,0.07447 -1.611634,-1.078498 -0.982541,-0.70171 m -5.563657,6.966335 c 0.170796,-0.0026 0.349743,-0.01593 0.546474,-0.05298 1.543093,-0.152272 2.620109,-0.310101 3.33812,-0.427546 l -1.945076,1.850971 z m 5.002364,-0.420507 c -0.416802,1.444914 -0.833604,2.459687 -1.104062,3.175475 l -1.281156,-0.905479 z m -2.902423,5.748162 c 1.153337,0.168202 2.219979,0.772473 2.956515,1.716112 l -3.316262,2.141065 z m 2.018803,8.252307 c -0.533877,0.385681 -1.129626,0.644654 -1.769093,0.774325 -1.761312,0.352337 -3.575604,-0.361969 -4.624463,-1.819479 -1.473812,-2.052147 -1.002548,-4.921226 1.048859,-6.394667 0.534618,-0.38494 1.130737,-0.645025 1.769463,-0.772844 0.247487,-0.04965 0.495716,-0.07595 0.742833,-0.08447 l -0.435326,4.660031 c -0.01371,0.154865 0.0615,0.305284 0.194137,0.385681 0.08929,0.05483 0.193026,0.0715 0.291576,0.05113 0.04927,-0.0093 0.09707,-0.02816 0.140786,-0.05705 l 4.019082,-2.593064 c 1.048118,1.989164 0.499051,4.502943 -1.377854,5.850417 m 1.91803,-7.169363 c -0.936601,-1.24596 -2.327052,-2.037699 -3.829021,-2.241098 l 0.153384,-1.645349 1.302274,0.919929 c -0.14338,0.522762 -0.08225,0.799518 0.343074,0.970314 l 2.277035,0.882139 0.0126,0.0089 c -0.09447,0.29417 -0.08558,0.617608 0.04261,0.910666 z m 1.446395,-1.999167 c -0.190803,0.0052 -0.380123,0.0578 -0.556477,0.149678 -0.09892,-0.115223 -0.250822,-0.230816 -0.526097,-0.408281 -0.209697,-0.134488 -1.156301,-0.701709 -1.120363,-0.821007 0.137452,-0.411986 0.446071,-1.025518 0.892882,-1.894689 0.469041,0.517205 0.941046,1.397861 1.40416,2.285556 z M 33.57985,25.37345 32.543217,22.984527 c 0.03334,-0.379383 0.01371,-0.719863 -0.07299,-1.003659 l 1.808735,-1.72167 z m -1.596814,-4.053908 c -1.096653,-0.790997 -3.363685,-0.409022 -4.839349,-0.163016 0.501645,-1.055527 1.387858,-2.148104 1.682769,-3.420369 0.15857,0.802112 2.810171,1.71426 2.810171,1.71426 0,0 1.204835,-0.266753 2.245914,-0.674663 0.01149,0.01 0.02334,0.02112 0.03446,0.0289 l 0.397907,0.295651 z m 12.220632,6.606959 c -0.5361,0.384569 -1.130738,0.643542 -1.770204,0.771732 -1.761683,0.353077 -3.576346,-0.361229 -4.625575,-1.81948 -1.14778,-1.599407 -1.10999,-3.691938 -0.06965,-5.235773 l 3.691939,2.74089 c 0.07447,0.05557 0.164127,0.07743 0.249711,0.06706 0.09114,-0.0096 0.180058,-0.05631 0.239337,-0.13523 0.116334,-0.154494 0.08595,-0.373454 -0.06817,-0.489418 l -3.58783,-2.826843 c 0.180799,-0.184504 0.376418,-0.359005 0.593525,-0.514611 0.534618,-0.38494 1.130367,-0.645024 1.769834,-0.773214 1.760942,-0.353078 3.576716,0.36234 4.625205,1.81985 1.473441,2.051777 1.003659,4.919744 -1.048118,6.395038 m -27.879417,-2.879083 -1.123698,-1.999167 -0.266012,2.277776 -2.249249,0.450887 2.08438,0.958089 -0.265642,2.277776 1.553838,-1.687584 2.084751,0.958459 -1.123328,-1.999538 1.554208,-1.687585 z m -1.006623,9.649798 -1.122957,-1.999167 -0.265642,2.277776 -2.249248,0.450146 2.08438,0.958089 -0.266383,2.278888 1.553838,-1.687585 2.08475,0.958089 -1.123327,-2.00102 1.553837,-1.684991 z M 7.8014762,31.238673 6.6785192,29.239135 6.4113955,31.517652 4.1625176,31.968169 6.2472682,32.924405 5.980515,35.203292 7.535464,33.515708 9.6194735,34.473796 8.4961461,32.473888 10.049984,30.788527 Z M 32.961492,15.314617 c 0.320845,-0.01556 1.046636,-0.03705 1.85801,0.0093 l 3.459271,-3.101006 -1.519752,-0.152272 -3.815312,3.241793 0.0015,0.0033 c 0.0052,-7.41e-4 0.01037,-0.0011 0.0163,-0.0011"
     id="path20"
     inkscape:connector-curvature="0"
     style="fill:#1e252b;stroke-width:0.37049058" /></g>
</svg>