<svg xmlns="http://www.w3.org/2000/svg" xmlns:xlink="http://www.w3.org/1999/xlink" width="120" height="60"><style><![CDATA[.B{fill-rule:evenodd}.C{fill:#dcd9d8}.D{fill:#d33833}.E{fill:#231f20}.F{fill:#f7e4cd}.G{stroke:#d33833}.H{stroke-width:.293}]]></style><g transform="matrix(1.25 0 0 -1.25 10 49.999783)"><path d="M21.256 16.852c0-7.233-5.732-13.096-12.803-13.096S-4.35 9.62-4.35 16.852 1.382 29.948 8.453 29.948s12.803-5.863 12.803-13.096" class="B D"/><path d="M-3.828 13.61S-4.755 27.266 7.83 27.656L6.95 29.12.122 26.827l-1.95-2.244-1.707-3.268-.976-3.804.293-2.536" fill="#ef3d3a"/><path d="M-.316 25.786c-2.246-2.298-3.636-5.472-3.636-8.983s1.4-6.684 3.636-8.982 5.345-3.716 8.77-3.716 6.522 1.418 8.77 3.716 3.637 5.472 3.637 8.982-1.4 6.684-3.637 8.983-5.345 3.716-8.77 3.716-6.52-1.418-8.77-3.716zm-.57-18.52c-2.387 2.442-3.863 5.816-3.863 9.538s1.476 7.097 3.863 9.538 5.69 3.956 9.338 3.955 6.95-1.513 9.337-3.955 3.864-5.816 3.863-9.538-1.476-7.096-3.863-9.538S12.1 3.3 8.453 3.3 1.502 4.824-.885 7.266" class="E"/><g class="B"><path d="M13.843 16.78l-1.95-.293-2.634-.293-1.707-.05-1.658.05-1.268.4-1.122 1.22-.878 2.487-.195.537-1.17.4-.683 1.122-.488 1.6.537 1.415 1.268.44 1.024-.488.488-1.073.585.098.195.244L4 25.705l-.05 1.415.293 1.95-.01 1.114.89 1.422 1.56 1.122 2.73 1.17 3.024-.44 2.634-1.902 1.22-1.95.78-1.415.195-3.512-.585-3.024-1.073-2.683-1.024-1.415" fill="#f0d6b7"/><path d="M12.184 8.342L5.21 8.05V6.88l.585-4.097-.293-.342L.625 4.098l-.342.585-.488 5.51-1.122 3.317-.244.78 3.902 2.683 1.22.488 1.073-1.317.927-.83 1.073-.34.488-.146.585-2.536.44-.537 1.122.4-.78-1.512 4.243-2-.536-.293" fill="#335061"/><path d="M.625 25.364l1.268.44 1.024-.488.488-1.073.585.098.146.585-.293 1.122.293 2.683-.244 1.463.878 1.024 1.902 1.512-.537.732-2.683-1.317-1.122-.878-.634-1.366-.976-1.317-.293-1.56.195-1.658" fill="#6d6b6d"/><path d="M2.624 29.95s.732 1.805 3.658 2.683.146.634.146.634l-3.17-1.22-1.22-1.22-.536-.976 1.122.098M1.16 25.705S.137 29.12 4.04 29.607l-.146.585L1.2 29.56.43 27.022l.195-1.658.536.34" class="C"/><path d="M2.722 21.17l.64.62s.288-.034.337-.375S3.892 18 6 16.34c.2-.15-1.56.244-1.56.244l-1.56 2.44m8.817 3.072s.114 1.478.512 1.365.398-.512.398-.512-.967-.626-.9-.853" class="F"/></g><path d="M15.745 27.5s-.804-.17-.878-.878.878-.146 1.024-.098m-6.048.936s-1.073-.146-1.073-.83 1.22-.634 1.56-.342" class="F"/><g class="B"><path d="M3.2 24.3s-1.854 1.122-2.05.05-.634-1.853.293-2.975l-.634.195-.585 1.512-.195 1.463 1.122 1.17 1.268-.098.732-.585.05-.732m.887 3.074s.83 4.292 5.024 5.12c3.453.683 5.268-.146 5.95-.927 0 0-3.073 3.658-6 2.536S4 30.924 4.04 29.607l.05-2.244m11.313 3.707s-1.414.05-1.463-1.22c0 0 0-.195.097-.4 0 0 1.122 1.268 1.805.585M9.2 29.33s-.243 1.947-1.903.815c-1.073-.732-.975-1.756-.78-1.95s.142-.588.3-.318.1 1.148.636 1.4 1.416.516 1.757.063" class="F"/><path d="M4.624 16.146L.04 14.097s1.902-7.56.927-9.9l-.683.244-.05 2.878-1.268 5.463-.537 1.512 4.78 3.22 1.414-1.365m.473-4.185l.65-.794V8.244h-.78l-.097 2.292c0 .244.097 1.122.097 1.122m.146-3.853l-2.195-.097.634-.44 1.56-.244" fill="#49728b"/><g fill="#335061"><path d="M12.623 8.293l1.805.05.44-4.487-1.853-.244-.4 4.682"/><path d="M13.11 8.293l2.73.146 1.122 2.975c0 .146.976 4.097.976 4.097l-2.195 2.292-.44.4-1.17-1.17v-4.536L13.11 8.293"/></g><path d="M14.33 8.634l-1.707-.34.244-1.366c.634-.293 1.707.488 1.707.488m-.194 9.754l3.414-2.536.098 1.17-2.585 2.4-.927-1.024" fill="#49728b"/><path d="M6.804-1.316l-1 4.098-.502 3.023L5.21 8.05l4.57.243h2.843l-.26-5.122.44-3.95-.05-.732-3.707-.293-2.244.488" fill="#fff"/><path d="M11.99 8.342s-.244-5.073.488-8.682c0 0-1.463-.927-3.61-1.17l4.097.146.488.293-.585 8-.146 1.707" class="C"/><path d="M14.95 4.244l1.902.537 3.61.195.537 1.658-.976 2.878-1.122.146-1.56-.488-1.497-.73-.795.146-.62-.243" fill="#fff"/><path d="M14.915 5.22s1.268.585 1.463.536l-.536 2.683.634.244.44-2.83 2.975-.146s.585 1.122.44 2.292l.537-1.56.05-.878-.78-1.17-.878-.195-1.463.05-.488.634-1.707-.244-.537-.195" class="C"/></g><path d="M13 8.683l-1.073 2.73-1.122 1.6s.244.683.585.683h1.122l1.073-.4-.097-1.805L13 8.683" fill="#fff"/><path d="M13.208 9.6s-1.366 2.634-1.366 3.024c0 0 .244.585.585.44s1.073-.536 1.073-.536v.927l-1.658.342-1.122-.146 1.902-4.487.4-.05" class="B C"/><path d="M7.243 16.047l-1.35.147-1.268.4v-.44l.62-.683 1.95-.878" fill="#fff"/><g class="B"><path d="M5.063 15.9s1.512-.634 2-.488l.05-.585-1.365.292-.83.585.146.195" class="C"/><path d="M14.945 13.54c-.828.024-1.575.123-2.23.307.044.268-.04.532.028.725.182.13.488.13.764.16a1.33 1.33 0 0 1-.849.096c-.006.186-.1.302-.14.447.465.166 1.564 1.255 2.182.894.294-.17.42-1.15.442-1.627.02-.395-.036-.794-.197-1.003" class="D"/></g><path d="M14.945 13.54c-.828.024-1.575.123-2.23.307.044.268-.04.532.028.725.182.13.488.13.764.16a1.33 1.33 0 0 1-.849.096c-.006.186-.1.302-.14.447.465.166 1.564 1.255 2.182.894.294-.17.42-1.15.442-1.627.02-.395-.036-.794-.197-1.003z" fill="none" class="G H"/><path d="M10.987 14.893l-.007-.19c-.258-.17-.676-.168-.96-.3a2.49 2.49 0 0 0 1.032-.261l-.018-.473c-.474-.324-.906-.807-1.464-1.11-.264-.144-1.19-.514-1.47-.448-.16.037-.173.234-.236.42-.135.398-.446 1.03-.474 1.63-.035.756-.11 2.023.704 1.867.657-.125 1.422-.428 1.93-.706.31-.17.49-.38.963-.416" class="B D"/><path d="M10.987 14.893l-.007-.19c-.258-.17-.676-.168-.96-.3a2.49 2.49 0 0 0 1.032-.261l-.018-.473c-.474-.324-.906-.807-1.464-1.11-.264-.144-1.19-.514-1.47-.448-.16.037-.173.234-.236.42-.135.398-.446 1.03-.474 1.63-.035.756-.11 2.023.704 1.867.657-.125 1.422-.428 1.93-.706.31-.17.49-.38.963-.416z" fill="none" class="G H"/><path d="M11.457 13.99c-.072.412-.156.53-.123.888 1.098.732 1.304-1.258.123-.888" class="B D"/><path d="M11.457 13.99c-.072.412-.156.53-.123.888 1.098.732 1.304-1.258.123-.888z" fill="none" class="G H"/><path d="M13.048 13.658s-.342.488-.098.634.488 0 .634.244 0 .4.05.683.293.342.537.4.927.146 1.024-.098l-.293.878-.585.195-1.853-1.073-.098-.537V13.91m-4.44-1.863l-.2 2.282c-.103 1.135.273.937 1.257.937.15 0 .926-.18.98-.293.266-.543-.445-.423.306-.832.634-.346 1.754.2 1.498.98-.143.17-.747.053-.964.165l-1.143.593c-.485.252-1.605.618-2.122.267-1.3-.9.083-3.116.55-4.045" fill="#ef3d3a" class="B"/><path d="M9.2 29.33c-1.33.3-2-.556-2.393-1.454-.36.087-.217.577-.126.826.238.654 1.197 1.525 1.98 1.407.337-.05.793-.36.538-.78m6.488-1.514l.063-.002c.3-.624.56-1.285.94-1.836-.254-.6-1.922-1.115-1.897-.053.36.158.984.032 1.304.234-.185.508-.452.94-.4 1.658M9.9 27.8c.285-.523.378-1.072.783-1.466.182-.178.537-.394.36-.9-.04-.117-.342-.377-.515-.428-.633-.187-2.1-.04-1.6.75.524-.024 1.228-.34 1.62.04-.3.48-.837 1.432-.64 1.992m5.542-5.3c-.954-.613-2.017-1.28-3.58-1.124-.334.3-.46.936-.137 1.363.17-.3.063-.824.533-.905.887-.152 1.92.542 2.557.785.396.667-.034.912-.4 1.34-.73.88-1.708 1.97-1.672 3.285.295.214.32-.326.363-.425.38-.9 1.34-2.03 2.04-2.794.172-.188.455-.368.486-.492.1-.36-.236-.794-.198-1.034m-12.566.646c-.3.17-.37.922-.72.943-.502.03-.4-.975-.408-1.563-.345.313-.406 1.278-.152 1.774-.3.142-.418-.157-.578-.262.206 1.497 2.2.694 1.86-.893m13.178-1.267c-.444-.845-1.072-1.776-2.375-1.803-.026.273-.047.688.001.852.996.096 1.6.603 2.373.95m-6.24-.547c.83-.437 2.358-.484 3.487-.45.06-.247.06-.553.06-.855-1.452-.072-3.168.287-3.55 1.306m-.155-.816c.575-1.443 2.55-1.277 4.215-1.237-.073-.187-.232-.4-.43-.5-.534-.217-2.006-.382-2.746.012-.47.25-.772.814-1.03 1.145-.124.16-.743.568-.01.57" class="E B"/><path d="M15.38 12.545l-2.12-3.36c.335.986.48 2.637.53 3.895.702.328 1.302-.074 1.6-.535" fill="#81b0c4" class="B"/><path d="M19.008 8.394c-.755-.15-1.285-.885-2.022-.838.405.57 1.114.8 2.022.838m.332-1.18c-.615-.065-1.338-.165-1.962-.113.295.45 1.434.296 1.962.113m.214-1.02c-.692-.015-1.55-.001-2.208.054.4.418 1.76.155 2.208-.054" class="E B"/><path d="M14.08 3.407c.1-.868.444-1.748.4-2.7-.382-.13-.602-.242-1.114-.24l-.112 2.815c.252-.017.623.18.826.126" class="B C"/><path d="M12.964 16.206c-.347-.227-.643-.5-.976-.752-.74-.037-1.143.05-1.686.476.01.034.064.02.066.06.792-.353 1.798.144 2.597.215" fill="#f0d6b7" class="B"/><path d="M8.808 10.8c.217.942 1.07 1.43 1.844 1.95.8-1.014 1.285-2.317 1.82-3.576-1.264.38-2.555 1-3.663 1.626" fill="#81b0c4" class="B"/><path d="M13.253 3.28c-.032-.77.076-2.006.112-2.815.512-.001.732.112 1.114.24.043.95-.3 1.83-.4 2.7-.202.054-.574-.143-.826-.126zM5.276 7.663C5.614 4.558 6.103 1.947 7-.803c1.992-.605 4.393-.657 6.153-.112-.323 1.552-.182 3.442-.37 5.098l-.265 3.768c-2.133.444-5.148.104-7.242-.288zm7.746.268c-.018-1.334.06-2.65.162-3.985l1.335.233c-.155 1.286-.135 2.732-.45 3.87-.364-.003-.684.004-1.047-.117zm2.598.215c-.243.056-.526.002-.758-.002l.467-3.428c.365-.01.56.16.86.22.016 1.002-.088 2.382-.57 3.212zm3.934-3.594c.762.185 1.24 1.118 1.027 2.076-.143.644-.398 1.856-.67 2.268-.2.305-.747.703-1.183.424-.71-.454-1.958-.586-2.475-1.135.26-.863.34-2.05.447-3.143.886-.055 1.976.244 2.713-.074-.514-.167-1.182-.168-1.626-.41.363-.175 1.213-.14 1.768-.005zM12.47 9.184c-.535 1.258-1.02 2.562-1.82 3.576-.774-.52-1.626-1.007-1.844-1.95 1.108-.627 2.4-1.245 3.663-1.626zm1.32 3.896c-.05-1.258-.194-2.91-.53-3.895.8 1.02 1.445 2.205 2.12 3.36-.287.46-.888.864-1.6.535zm-1.495.53c-.303.033-.56-.348-.954-.184l-.264-.305c.87-1.05 1.266-2.537 1.938-3.77.36 1.184.32 2.48.4 3.773-.496-.03-.77.448-1.118.485zm-.96 1.27c-.032-.36.05-.477.123-.888 1.18-.37.975 1.62-.123.888zm-1.31.43c-.51.278-1.273.58-1.93.706-.815.156-.738-1.11-.704-1.867.027-.598.338-1.23.474-1.63.063-.186.078-.383.236-.42.28-.065 1.206.305 1.47.448.558.304 1 .787 1.464 1.11l.018.473a2.49 2.49 0 0 1-1.032.261c.284.143.7.14.96.3l.007.19c-.472.036-.652.246-.963.416zm-4.86.883c-.422-.43 1.184-1.013 1.696-1.045-.003.27.155.527.123.722-.608.107-1.406.036-1.82.323zm5.202-.2c-.002-.042-.057-.027-.066-.06.543-.425.947-.512 1.686-.476l.976.752c-.8-.07-1.806-.568-2.597-.215zm4.775-1.448c-.023.476-.148 1.456-.442 1.627-.618.36-1.716-.728-2.182-.894.05-.146.134-.26.14-.447a1.33 1.33 0 0 0 .849-.096c-.276-.03-.582-.03-.764-.16-.067-.193.016-.457-.028-.725.655-.185 1.402-.283 2.23-.307.16.21.216.608.197 1.003zM4.454 15.778c-.133.095-1.03 1.262-1.153 1.213-1.623-.64-3.14-1.747-4.497-2.794C.097 11.422.62 8.023.71 4.746c1.48-.693 2.783-1.692 4.793-1.796l-.577 4.664c-.505.213-1.23-.01-1.702.066-.004.57.722.25.782.632.046.3-.4.312-.255.768.37-.134.564-.43.958-.542.36.788-.005 2.182.047 2.84.01.124.062.685.34.586.245-.087-.014-1.493.013-2.116.024-.574-.07-1.13.163-1.5 1.942.264 3.916.435 6.018.493-.462.198-1.012.386-1.614.726-.326.184-1.356.567-1.45.877-.15.494.394.757.488 1.18-.98-.535-1.172.513-1.404 1.255-.2.672-.33 1.174-.38 1.562-.845.403-1.748.8-2.475 1.327zm9.83 1.072c1.352.656 1.596-2.45 1.066-3.452.082-.298.364-.413.48-.68l-2.363-3.95c.573.357 1.39.064 2.065.33.246.097.425.662.61 1.113.513 1.242 1.052 2.807 1.292 3.992.054.27.202.858.17 1.098-.06.43-.643.75-.94 1.015L15.2 17.7c-.23-.342-.728-.57-.917-.85zM1.36 28.844c-.644-.71-.5-2.038-.432-2.983 1.165.733 2.71-.058 2.696-1.304.556.015.208.695.107 1.133-.33 1.43.554 2.985.04 4.293-.998-.076-1.817-.483-2.412-1.138zm4.61 4.115c-1.46-.414-3.33-1.474-3.928-2.784.464.067.786.302 1.244.33.173.01.4-.073.6-.023.396.098.73.987 1.03 1.318.292.323.642.46.882.755.154.074.382.07.39.3-.067.07-.137.126-.217.103zm7.595-.39c-1.514.854-4.077 1.497-5.688.694-1.3-.648-3.057-1.72-3.656-3.08.56-1.31-.166-2.513-.212-3.844-.025-.708.334-1.327.36-2.098-.19-.316-.776-.355-1.18-.333-.136.682-.375 1.45-1.077 1.526-.994.11-1.72-.714-1.766-1.574-.053-1.01.776-2.686 1.953-2.57.454.045.566.5 1.06.496.268-.535-.414-.704-.484-1.086-.018-.1.057-.485.1-.667.214-.883.7-2.025 1.16-2.697.595-.852 1.764-.98 3.022-1.064.225.484 1.052.444 1.59.318-.646.256-1.247.876-1.745 1.425-.572.63-1.15 1.306-1.18 2.13 1.08-1.5 1.973-2.81 3.94-3.468 1.487-.5 3.223.23 4.366 1.03.474.333.757.863 1.094 1.347 1.26 1.814 1.85 4.402 1.72 6.912-.053 1.035-.05 2.066-.398 2.762-.363.728-1.6 1.38-2.31.72-.133.708.597 1.146 1.456.89-.612.8-1.254 1.74-2.124 2.23zm2.82-23.348c1.183.588 3.394 1.583 4.136-.002.274-.584.595-1.572.737-2.176.2-.85-.217-2.64-1.092-2.926-.773-.252-1.674-.237-2.605-.05a1.42 1.42 0 0 0-.317.416c-.665.026-1.287-.036-1.812-.31.05-.49-.283-.57-.594-.672-.23-.916.462-2.112.296-2.948-.118-.595-.85-.687-1.39-.798-.018-.33.024-.607.06-.887-.123-.453-.675-.712-1.198-.775-1.72-.207-4.333-.3-5.988.295-.462 1.133-.826 2.51-1.2 3.804-1.614-.172-2.92.696-4.15 1.266-.426.198-1.016.306-1.175.646-.154.328-.09.958-.13 1.552-.097 1.518-.18 2.983-.582 4.538-.18.698-.494 1.313-.713 1.985-.202.623-.556 1.393-.648 2.014-.137.92.73.972 1.285 1.37.857.617 1.53.958 2.458 1.515.275.165 1.104.582 1.198.775.187.38-.322.92-.458 1.217-.215.472-.328.874-.36 1.34-.78.123-1.37.586-1.725 1.11-.6.865-1 2.465-.49 3.682.04.096.24.284.27.432.058.3-.11.675-.12.984-.054 1.582.268 2.945 1.332 3.422.432 1.722 1.98 2.295 3.437 3.15.545.32 1.146.524 1.766.753 2.225.82 5.64.665 7.486-.732.783-.592 2.035-1.843 2.483-2.748 1.183-2.4 1.1-6.386.27-9.293-.11-.4-.272-.964-.498-1.433-.157-.327-.645-.983-.586-1.272.06-.3 1.113-1.097 1.338-1.315.406-.392 1.177-.912 1.24-1.406.067-.526-.232-1.246-.383-1.753l-1.574-4.77" class="B E"/><path d="M8.493 20.948c.064.085.417.215.91-.023 0 0-.585-.098-.537-1.073l-.244.05s-.252.885-.13 1.047" class="B F"/><path d="M12.77 12.56c0-.148-.12-.268-.268-.268s-.268.12-.268.268.12.268.268.268.268-.12.268-.268m.268-1.243c0-.148-.12-.268-.268-.268s-.268.12-.268.268.12.268.268.268.268-.12.268-.268" fill="#1d1919" class="B"/><path d="M24.464 9.396v1.62h.896q.04-.648.303-.952.27-.303.793-.303.67 0 .93.517.27.5.27 1.924v9.123H26.16v.834h5.482v-.834h-1.317v-9.178q0-1.676-.848-2.448-.84-.772-2.682-.772-.572 0-1.152.117-.58.117-1.18.352zm13.37 6.606q0 1.448-.27 2.027-.27.586-.917.586-.628 0-.903-.572-.27-.572-.27-1.917v-.124h2.358zm2.682-.82h-5.04v-.055q0-1.42.428-2.055.428-.628 1.38-.628.793 0 1.283.42.5.42.628 1.22h1.145q-.297-1.248-1.18-1.834-.883-.586-2.47-.586-1.903 0-2.924 1-1.014 1.007-1.014 2.87 0 1.82 1.04 2.84 1.04 1.02 2.896 1.02 1.82 0 2.793-1.076.972-1.07 1.034-3.138z"/><use xlink:href="#B"/><path d="M56.315 11.865H51.91v.834h1.04v9.068h-1.04v.827h3.482v-6.9l2.958 2.655h-.876v.834h3.344v-.834H59.46l-1.9-1.696 3.1-3.965h.793v-.834h-4.206v.834h.862l-2.034 2.613-.683-.607V12.7h.924v-.834zm6.2 9.405q0 .56.386.938.386.386.945.386.545 0 .924-.386.386-.38.386-.938 0-.545-.386-.93-.38-.38-.924-.38-.56 0-.945.38-.386.38-.386.93zm2.67-8.57h1.048v-.834H61.7v.834h1.04v5.66H61.7v.834h3.482V12.7z"/><use xlink:href="#B" x="25.432"/><path d="M77.52 12.078v2.048h.78q.097-.82.614-1.255.517-.428 1.407-.428.745 0 1.138.255.4.262.4.745 0 .44-.255.683-.248.24-.972.42l-1.007.255q-1.138.283-1.648.807-.5.53-.5 1.427 0 1.193.827 1.772.827.586 2.55.586.648 0 1.38-.1.738-.103 1.627-.33v-1.848h-.78q-.062.752-.538 1.13-.47.38-1.352.38-.745 0-1.13-.24-.38-.234-.38-.7 0-.372.22-.586.22-.214.793-.36l1-.255q1.44-.365 1.993-.903.552-.538.552-1.496 0-1.24-.9-1.834-.883-.586-2.75-.586-.683 0-1.448.103-.765.103-1.62.3z"/></g><defs ><path id="B" d="M41.648 11.865v.834h1.04v5.66h-1.04v.834h3.482V18.16q.44.655 1.007.945.565.3 1.427.3 1.234 0 1.862-.73.634-.724.634-2.138V12.7h1.048v-.834h-4.38v.834h.9v3.896q0 .93-.24 1.29-.234.365-.82.365-.738 0-1.083-.545-.345-.538-.345-1.717V12.7h.896v-.834h-4.38z"/></defs></svg>