<?xml version="1.0" encoding="UTF-8" standalone="no"?>
<!-- Generator: Adobe Illustrator 16.0.0, SVG Export Plug-In . SVG Version: 6.00 Build 0)  -->

<svg
   xmlns:dc="http://purl.org/dc/elements/1.1/"
   xmlns:cc="http://creativecommons.org/ns#"
   xmlns:rdf="http://www.w3.org/1999/02/22-rdf-syntax-ns#"
   xmlns:svg="http://www.w3.org/2000/svg"
   xmlns="http://www.w3.org/2000/svg"
   xmlns:sodipodi="http://sodipodi.sourceforge.net/DTD/sodipodi-0.dtd"
   xmlns:inkscape="http://www.inkscape.org/namespaces/inkscape"
   version="1.1"
   id="balsamiq-logo-print"
   x="0px"
   y="0px"
   width="120"
   height="60"
   viewBox="0 0 120 60"
   enable-background="new 0 0 360 115"
   xml:space="preserve"
   sodipodi:docname="balsamiq-ar21.svg"
   inkscape:version="0.92.3 (2405546, 2018-03-11)"><metadata
   id="metadata33"><rdf:RDF><cc:Work
       rdf:about=""><dc:format>image/svg+xml</dc:format><dc:type
         rdf:resource="http://purl.org/dc/dcmitype/StillImage" /><dc:title></dc:title></cc:Work></rdf:RDF></metadata><defs
   id="defs31">
	
	
	
</defs><sodipodi:namedview
   pagecolor="#ffffff"
   bordercolor="#666666"
   borderopacity="1"
   objecttolerance="10"
   gridtolerance="10"
   guidetolerance="10"
   inkscape:pageopacity="0"
   inkscape:pageshadow="2"
   inkscape:window-width="1920"
   inkscape:window-height="1001"
   id="namedview29"
   showgrid="false"
   inkscape:zoom="3.7666667"
   inkscape:cx="47.360571"
   inkscape:cy="22.732583"
   inkscape:window-x="-9"
   inkscape:window-y="-9"
   inkscape:window-maximized="1"
   inkscape:current-layer="balsamiq-logo-print" />
<g
   id="g865"
   transform="matrix(0.2893955,0,0,0.2893955,7.90881,29.276511)"><path
     d="m 0,48 c 0,6.627 5.373,12 12,12 h 336 c 6.627,0 12,-5.373 12,-12 v -91 c 0,-6.627 -5.373,-12 -12,-12 H 12 c -6.627,0 -12,5.373 -12,12 z"
     id="path2"
     inkscape:connector-curvature="0"
     style="clip-rule:evenodd;fill:#cf0a2c;fill-rule:evenodd" /><g
     transform="translate(0,-55)"
     id="g20">
		<path
   d="m 57.416,76.436 c 0.128,-2.112 0.256,-5.248 0.256,-8 V 31 h 5.567 v 19.455 h 0.128 c 1.984,-3.456 5.568,-5.696 10.559,-5.696 7.68,0 13.119,6.399 13.055,15.807 0,11.071 -6.976,16.575 -13.887,16.575 -4.48,0 -8.063,-1.728 -10.367,-5.824 h -0.192 l -0.256,5.12 h -4.863 z m 5.823,-12.415 c 0,0.704 0.128,1.408 0.256,2.048 1.088,3.904 4.352,6.592 8.447,6.592 5.888,0 9.408,-4.8 9.408,-11.903 0,-6.208 -3.2,-11.52 -9.215,-11.52 -3.84,0 -7.424,2.624 -8.576,6.912 -0.128,0.64 -0.32,1.408 -0.32,2.304 z"
   id="path4"
   inkscape:connector-curvature="0"
   style="fill:#ffffff" />
		<path
   d="m 112.684,76.436 -0.448,-3.904 h -0.192 c -1.728,2.432 -5.056,4.608 -9.472,4.608 -6.271,0 -9.471,-4.416 -9.471,-8.896 0,-7.487 6.656,-11.583 18.623,-11.519 v -0.64 c 0,-2.56 -0.704,-7.167 -7.039,-7.167 -2.88,0 -5.888,0.896 -8.063,2.304 l -1.28,-3.711 c 2.56,-1.664 6.271,-2.752 10.175,-2.752 9.472,0 11.775,6.463 11.775,12.671 v 11.583 c 0,2.688 0.128,5.311 0.512,7.423 z m -0.832,-15.807 c -6.144,-0.128 -13.119,0.96 -13.119,6.975 0,3.648 2.432,5.375 5.312,5.375 4.032,0 6.591,-2.56 7.487,-5.183 0.192,-0.576 0.32,-1.216 0.32,-1.792 z"
   id="path6"
   inkscape:connector-curvature="0"
   style="fill:#ffffff" />
		<path
   d="m 127.315,31 h 5.631 v 45.437 h -5.631 z"
   id="path8"
   inkscape:connector-curvature="0"
   style="fill:#ffffff" />
		<path
   d="m 142.271,70.676 c 1.664,1.088 4.607,2.24 7.423,2.24 4.096,0 6.016,-2.048 6.016,-4.608 0,-2.688 -1.6,-4.16 -5.76,-5.696 -5.567,-1.983 -8.191,-5.055 -8.191,-8.767 0,-4.992 4.032,-9.087 10.688,-9.087 3.136,0 5.887,0.896 7.615,1.92 l -1.408,4.096 c -1.216,-0.768 -3.456,-1.792 -6.335,-1.792 -3.328,0 -5.184,1.92 -5.184,4.224 0,2.56 1.855,3.712 5.887,5.248 5.376,2.048 8.127,4.736 8.127,9.344 0,5.439 -4.224,9.279 -11.583,9.279 -3.392,0 -6.527,-0.832 -8.704,-2.111 z"
   id="path10"
   inkscape:connector-curvature="0"
   style="fill:#ffffff" />
		<path
   d="m 187.153,76.436 -0.448,-3.904 h -0.192 c -1.728,2.432 -5.056,4.608 -9.471,4.608 -6.271,0 -9.471,-4.416 -9.471,-8.896 0,-7.487 6.656,-11.583 18.623,-11.519 v -0.64 c 0,-2.56 -0.704,-7.167 -7.04,-7.167 -2.879,0 -5.887,0.896 -8.063,2.304 l -1.28,-3.711 c 2.56,-1.664 6.272,-2.752 10.175,-2.752 9.472,0 11.775,6.463 11.775,12.671 v 11.583 c 0,2.688 0.128,5.311 0.512,7.423 z m -0.832,-15.807 c -6.144,-0.128 -13.119,0.96 -13.119,6.975 0,3.648 2.432,5.375 5.312,5.375 4.031,0 6.592,-2.56 7.487,-5.183 0.192,-0.576 0.32,-1.216 0.32,-1.792 z"
   id="path12"
   inkscape:connector-curvature="0"
   style="fill:#ffffff" />
		<path
   d="m 201.74,53.846 c 0,-3.2 -0.064,-5.824 -0.256,-8.383 h 4.928 l 0.256,4.992 h 0.191 c 1.729,-2.944 4.608,-5.696 9.728,-5.696 4.224,0 7.424,2.56 8.768,6.208 h 0.128 c 0.96,-1.728 2.176,-3.072 3.456,-4.032 1.855,-1.408 3.903,-2.176 6.847,-2.176 4.096,0 10.176,2.688 10.176,13.439 v 18.239 h -5.504 V 58.901 c 0,-5.952 -2.176,-9.535 -6.72,-9.535 -3.199,0 -5.695,2.368 -6.655,5.12 -0.256,0.768 -0.448,1.792 -0.448,2.815 v 19.135 h -5.503 V 57.877 c 0,-4.928 -2.176,-8.511 -6.464,-8.511 -3.52,0 -6.079,2.815 -6.976,5.631 -0.319,0.832 -0.448,1.792 -0.448,2.752 v 18.687 h -5.503 v -22.59 z"
   id="path14"
   inkscape:connector-curvature="0"
   style="fill:#ffffff" />
		<path
   d="m 262.309,36.759 c 0.063,1.92 -1.344,3.456 -3.584,3.456 -1.983,0 -3.392,-1.536 -3.392,-3.456 0,-1.984 1.472,-3.52 3.52,-3.52 2.112,0 3.456,1.536 3.456,3.52 z m -6.272,39.677 V 45.462 h 5.632 v 30.974 z"
   id="path16"
   inkscape:connector-curvature="0"
   style="fill:#ffffff" />
		<path
   d="m 293.276,71.636 h -0.128 c -1.664,3.072 -5.119,5.504 -10.111,5.504 -7.231,0 -13.119,-6.271 -13.119,-15.679 0,-11.583 7.487,-16.703 14.016,-16.703 4.799,0 7.999,2.368 9.535,5.375 h 0.128 l 0.191,-4.671 h 5.312 c -0.128,2.624 -0.191,5.312 -0.191,8.511 v 35.133 h -5.632 v -17.47 z m 0,-13.631 c 0,-0.768 -0.063,-1.664 -0.256,-2.368 -0.832,-3.456 -3.84,-6.4 -8.063,-6.4 -5.823,0 -9.344,4.928 -9.344,11.903 0,6.144 2.944,11.52 9.151,11.52 3.648,0 6.784,-2.24 8.063,-6.144 0.256,-0.768 0.448,-1.856 0.448,-2.688 v -5.823 z"
   id="path18"
   inkscape:connector-curvature="0"
   style="fill:#ffffff" />
	</g></g>
</svg>