<?xml version="1.0" encoding="UTF-8" standalone="no"?>
<svg
   class="text-default h-6 flex-none dark:text-white"
   viewBox="0 0 120 60"
   fill="none"
   aria-label="Deno Wordmark"
   version="1.1"
   id="svg4"
   sodipodi:docname="deno-ar21.svg"
   width="120"
   height="60"
   xml:space="preserve"
   inkscape:version="1.3.2 (091e20e, 2023-11-25)"
   xmlns:inkscape="http://www.inkscape.org/namespaces/inkscape"
   xmlns:sodipodi="http://sodipodi.sourceforge.net/DTD/sodipodi-0.dtd"
   xmlns="http://www.w3.org/2000/svg"
   xmlns:svg="http://www.w3.org/2000/svg"><sodipodi:namedview
     id="namedview4"
     pagecolor="#ffffff"
     bordercolor="#000000"
     borderopacity="0.25"
     inkscape:showpageshadow="2"
     inkscape:pageopacity="0.0"
     inkscape:pagecheckerboard="0"
     inkscape:deskcolor="#d1d1d1"
     inkscape:zoom="4.8198198"
     inkscape:cx="55.5"
     inkscape:cy="13.797196"
     inkscape:window-width="1392"
     inkscape:window-height="942"
     inkscape:window-x="1827"
     inkscape:window-y="25"
     inkscape:window-maximized="0"
     inkscape:current-layer="svg4" /><g
     clip-path="url(#clip0_737_591)"
     id="g4"
     transform="matrix(0.61654978,0,0,0.61654978,40.457945,21.57757)"><path
       d="M 0,27.522 V 0 h 13.4572 c 3.1759,0 5.8981,0.510417 8.1504,1.52315 2.2605,1.01273 3.9861,2.54398 5.1852,4.58565 1.1991,2.04166 1.8067,4.5856 1.8067,7.6319 0,3.0463 -0.5995,5.5903 -1.8067,7.632 -1.2072,2.0417 -2.9328,3.581 -5.1852,4.6099 -2.2604,1.029 -4.9745,1.5394 -8.1504,1.5394 z m 7.64815,-5.8495 h 5.52545 c 1.1748,0 2.228,-0.1621 3.1678,-0.4781 0.9317,-0.324 1.7257,-0.7858 2.382,-1.4016 0.6562,-0.6157 1.1504,-1.3773 1.4826,-2.2847 0.3322,-0.9074 0.5023,-1.9363 0.5023,-3.0868 v -1.3206 c 0,-1.1748 -0.1701,-2.2118 -0.5023,-3.10302 C 19.8738,9.10648 19.3796,8.34491 18.7234,7.71296 18.0671,7.08912 17.2731,6.61111 16.3414,6.28704 15.4097,5.96296 14.3484,5.80903 13.1736,5.80903 H 7.64815 Z"
       fill="currentColor"
       id="path1" /><path
       d="m 43.9849,28 c -2.6412,0 -4.9178,-0.397 -6.8298,-1.1829 -1.912,-0.7859 -3.3785,-1.993 -4.4074,-3.6296 -1.029,-1.6285 -1.5394,-3.7106 -1.5394,-6.2465 0,-2.5359 0.5104,-4.5371 1.5232,-6.1736 1.0127,-1.62851 2.4548,-2.84379 4.3264,-3.64587 1.8715,-0.80208 4.0833,-1.19908 6.6516,-1.19908 2.5683,0 4.8449,0.38889 6.6921,1.15857 1.8391,0.77778 3.2489,1.96065 4.2049,3.56478 0.9641,1.6042 1.4421,3.6459 1.4421,6.1331 v 1.5637 H 38.3785 c 0.0567,1.118 0.2835,2.0579 0.7048,2.8032 0.4132,0.7454 1.0371,1.3125 1.8635,1.6852 0.8263,0.3727 1.8553,0.559 3.0868,0.559 0.6967,0 1.3368,-0.081 1.9201,-0.243 0.5833,-0.162 1.11,-0.3889 1.5637,-0.6806 0.4537,-0.2916 0.8101,-0.64 1.0613,-1.0451 0.2512,-0.397 0.397,-0.8669 0.4213,-1.4016 h 6.9676 c 0,1.2558 -0.2836,2.3738 -0.8426,3.3622 -0.559,0.9885 -1.3692,1.823 -2.4225,2.5035 -1.0532,0.6806 -2.3171,1.1991 -3.7835,1.5637 -1.4665,0.3565 -3.1111,0.5428 -4.926,0.5428 z M 38.419,14.5752 h 10.2974 c 0,-0.6643 -0.1134,-1.2477 -0.3402,-1.7419 -0.2269,-0.4942 -0.551,-0.9155 -0.9804,-1.2639 -0.4294,-0.3483 -0.9317,-0.6076 -1.5231,-0.7777 -0.5915,-0.1702 -1.2315,-0.2593 -1.9202,-0.2593 -1.118,0 -2.074,0.162 -2.8437,0.478 -0.7778,0.3241 -1.3854,0.7778 -1.8229,1.3854 -0.4375,0.5996 -0.7292,1.3287 -0.8588,2.1794 z"
       fill="currentColor"
       id="path2" /><path
       d="M 59.5162,27.522 V 6.40857 h 5.6875 l 0.478,3.24884 h 0.3241 c 0.64,-0.8507 1.3854,-1.55556 2.2199,-2.10648 C 69.0683,7 69.9838,6.59491 70.9722,6.32755 c 0.9884,-0.26736 2.0012,-0.39699 3.0463,-0.39699 1.7905,0 3.2894,0.29977 4.5046,0.8993 1.2153,0.59954 2.1389,1.50695 2.7628,2.72222 0.6238,1.21532 0.9398,2.75462 0.9398,4.62612 V 27.522 H 75.2176 V 15.1424 c 0,-0.6401 -0.0891,-1.2072 -0.2593,-1.7014 -0.1701,-0.4942 -0.4213,-0.8993 -0.7372,-1.2234 -0.3241,-0.3241 -0.7292,-0.559 -1.2234,-0.7211 -0.4942,-0.162 -1.0451,-0.243 -1.6609,-0.243 -0.9074,0 -1.7257,0.2025 -2.463,0.5995 -0.7372,0.397 -1.3125,0.9398 -1.7419,1.6204 -0.4294,0.6805 -0.64,1.4583 -0.64,2.3414 v 11.6991 h -6.9676 z"
       fill="currentColor"
       id="path3" /><path
       d="m 97.7974,28 c -2.5925,0 -4.8287,-0.4051 -6.7083,-1.2234 -1.8796,-0.8183 -3.3298,-2.0335 -4.3507,-3.662 -1.0127,-1.6285 -1.5231,-3.6864 -1.5231,-6.1736 0,-2.4873 0.5104,-4.5371 1.5231,-6.1736 1.0127,-1.62851 2.463,-2.84379 4.3507,-3.64587 1.8796,-0.80208 4.1158,-1.19908 6.7083,-1.19908 2.5926,0 4.8286,0.397 6.7086,1.19908 1.879,0.80208 3.33,2.01736 4.35,3.64587 1.013,1.6284 1.524,3.6863 1.524,6.1736 0,2.4872 -0.511,4.537 -1.524,6.1736 -1.012,1.6285 -2.462,2.8518 -4.35,3.662 C 102.626,27.5949 100.382,28 97.7974,28 Z m 0,-4.8854 c 1.2315,0 2.2526,-0.2269 3.0626,-0.6806 0.818,-0.4537 1.418,-1.0937 1.807,-1.9201 0.389,-0.8264 0.583,-1.8148 0.583,-2.9653 V 16.39 c 0,-1.1504 -0.194,-2.1469 -0.583,-2.9814 -0.389,-0.8426 -0.989,-1.4827 -1.807,-1.9202 -0.818,-0.4375 -1.8392,-0.6643 -3.0626,-0.6643 -1.2233,0 -2.2847,0.2187 -3.0868,0.6643 -0.802,0.4375 -1.3935,1.0776 -1.7824,1.9202 -0.3889,0.8426 -0.5833,1.8391 -0.5833,2.9814 v 1.1586 c 0,1.1505 0.1944,2.1389 0.5833,2.9653 0.3889,0.8264 0.9804,1.4664 1.7824,1.9201 0.8021,0.4537 1.8311,0.6806 3.0868,0.6806 z"
       fill="currentColor"
       id="path4" /></g><defs
     id="defs4"><clipPath
       id="clip0_737_591"><rect
         width="110.38"
         height="28"
         fill="#ffffff"
         id="rect4"
         x="0"
         y="0" /></clipPath><clipPath
       id="clip0_29_599"><rect
         width="30"
         height="30"
         fill="white"
         id="rect6" /></clipPath></defs><g
     style="fill:none"
     id="g5"
     transform="translate(5.8514019,15.914019)"><g
       clip-path="url(#clip0_29_599)"
       id="g6"><path
         d="M 15,0 C 23.2843,0 30,6.71572 30,15 30,23.2843 23.2843,30 15,30 6.71572,30 0,23.2843 0,15 0,6.71572 6.71572,0 15,0 Z"
         fill="currentColor"
         id="path1-9" /><path
         d="m 14.6635,22.3394 c -0.3847,-0.1037 -0.7804,0.119 -0.893,0.4987 l -0.005,0.0177 -0.9961,3.6914 -0.0045,0.0178 c -0.0938,0.3848 0.1362,0.7764 0.5209,0.8801 0.3846,0.1039 0.7803,-0.1188 0.8929,-0.4986 l 0.005,-0.0176 0.996,-3.6914 0.0046,-0.0179 c 0.0068,-0.0277 0.0119,-0.0556 0.0154,-0.0834 L 15.2026,23.1084 15.179,22.9888 15.1445,22.8166 15.1227,22.7091 C 15.076,22.619 15.0111,22.5396 14.932,22.4759 14.853,22.4123 14.7615,22.3658 14.6635,22.3394 Z M 7.7224,18.5379 C 7.70424,18.5741 7.68883,18.6123 7.67658,18.6522 L 7.66967,18.6763 6.67358,22.3677 6.669,22.3856 c -0.09375,0.3848 0.13624,0.7763 0.5209,0.8801 0.38461,0.1038 0.78036,-0.1188 0.89297,-0.4986 L 8.08779,22.7494 8.99096,19.4023 C 8.51793,19.1518 8.09336,18.8628 7.7224,18.5379 Z M 5.34707,14.2929 C 4.9624,14.1891 4.56666,14.4117 4.4541,14.7915 l -0.00498,0.0177 -0.99609,3.6914 -0.00457,0.0178 c -0.09375,0.3848 0.13623,0.7763 0.5209,0.8801 0.38461,0.1038 0.78035,-0.1188 0.89296,-0.4986 L 4.86725,18.8822 5.86334,15.1908 5.86791,15.173 C 5.96166,14.7882 5.73174,14.3967 5.34707,14.2929 Z M 27.682,13.4546 c -0.3847,-0.1038 -0.7805,0.1188 -0.893,0.4986 l -0.005,0.0177 -0.9961,3.6914 -0.0046,0.0178 c -0.0937,0.3848 0.1363,0.7763 0.5209,0.8801 0.3847,0.1038 0.7804,-0.1188 0.893,-0.4986 l 0.0049,-0.0177 0.9961,-3.6914 0.0046,-0.0178 C 28.2965,13.9499 28.0666,13.5584 27.682,13.4546 Z M 3.17781,8.52527 C 2.34361,10.0444 1.81243,11.7112 1.61377,13.4329 1.7088,13.5412 1.83381,13.619 1.97301,13.6563 2.35768,13.7602 2.75342,13.5375 2.86598,13.1577 L 2.87096,13.1401 3.86705,9.44865 3.87162,9.43084 C 3.96537,9.04599 3.73539,8.65447 3.35072,8.5507 3.2943,8.53547 3.23623,8.52694 3.17781,8.52527 Z M 25.159,8.5507 C 24.7744,8.44687 24.3786,8.66953 24.266,9.04933 l -0.0049,0.01764 -0.9961,3.69143 -0.0046,0.0178 c -0.0937,0.3848 0.1362,0.7764 0.5209,0.8801 0.3846,0.1039 0.7804,-0.1188 0.893,-0.4986 l 0.0049,-0.0176 0.9961,-3.69145 0.0046,-0.01781 C 25.7736,9.04599 25.5436,8.65447 25.159,8.5507 Z"
         fill="#ffffff"
         id="path2-0" /><path
         d="M 7.51285,5.04065 C 7.12824,4.93682 6.73249,5.15948 6.61988,5.53929 L 6.61495,5.55692 5.61886,9.24833 5.61429,9.26614 C 5.52054,9.65098 5.75052,10.0425 6.13519,10.1463 6.5198,10.2501 6.91554,10.0274 7.02816,9.64764 L 7.03308,9.63001 8.02917,5.9386 8.03374,5.92079 C 8.12749,5.53595 7.89751,5.14442 7.51285,5.04065 Z m 12.79875,0.6978 c -0.3847,-0.10383 -0.7804,0.11882 -0.893,0.49863 l -0.005,0.01763 -0.6693,2.48028 c 0.4336,0.21416 0.8474,0.46627 1.2366,0.7534 l 0.0644,0.04804 0.7826,-2.90004 0.0045,-0.01781 C 20.9262,6.23374 20.6963,5.84221 20.3116,5.73845 Z M 13.7968,1.57642 C 13.3296,1.61771 12.8647,1.68338 12.4043,1.77317 L 12.3066,1.79263 11.3782,5.23419 11.3736,5.252 c -0.0937,0.38484 0.1363,0.77637 0.5209,0.88014 0.3847,0.10382 0.7804,-0.11883 0.893,-0.49864 l 0.0049,-0.01763 0.9961,-3.69141 0.0046,-0.01781 c 0.0265,-0.10834 0.0278,-0.22132 0.0037,-0.33023 z m 9.1658,2.54988 -0.1957,0.72539 -0.0046,0.01775 c -0.0937,0.38485 0.1363,0.77637 0.5209,0.88014 0.3846,0.10383 0.7804,-0.11883 0.893,-0.49863 L 24.1811,5.23331 24.2025,5.15462 C 23.8362,4.81205 23.4511,4.49009 23.0491,4.19022 Z M 17.1672,1.69677 16.8139,3.00593 16.8094,3.02374 c -0.0938,0.38484 0.1362,0.77637 0.5209,0.88014 0.3846,0.10382 0.7803,-0.11883 0.893,-0.49864 L 18.2282,3.38761 18.6,2.00966 C 18.1624,1.88867 17.719,1.79001 17.2714,1.71405 Z"
         fill="#ffffff"
         id="path3-5" /><path
         d="m 9.69085,24.6253 c 0.11256,-0.3798 0.50835,-0.6024 0.89295,-0.4987 0.3847,0.1037 0.6146,0.4953 0.5209,0.8802 l -0.0046,0.0178 -0.7129,2.6418 -0.0996,-0.0367 C 9.85836,27.4694 9.43765,27.2873 9.0271,27.0839 l 0.65877,-2.441 z"
         fill="#ffffff"
         id="path4-2" /><path
         d="m 14.4141,8.49082 c -4.3619,0 -7.75492,2.74598 -7.75492,6.16088 0,3.2252 3.12205,5.2845 7.96192,5.1814 0.4116,-0.0088 0.5306,0.2677 0.6645,0.6403 0.134,0.3726 0.494,2.3363 0.7809,3.8383 0.2568,1.3443 0.5177,2.6935 0.7169,4.0479 3.1605,-0.4178 6.0829,-1.9789 8.2242,-4.3335 L 22.7237,15.5088 C 22.1544,13.4518 21.489,11.5564 19.7283,10.1794 18.3118,9.07166 16.5122,8.49082 14.4141,8.49082 Z"
         fill="#ffffff"
         id="path5" /><path
         d="m 15.3516,10.957 c 0.5178,0 0.9375,0.4197 0.9375,0.9375 0,0.5178 -0.4197,0.9375 -0.9375,0.9375 -0.5178,0 -0.9375,-0.4197 -0.9375,-0.9375 0,-0.5178 0.4197,-0.9375 0.9375,-0.9375 z"
         fill="currentColor"
         id="path6" /></g></g></svg>
