<?xml version="1.0" encoding="UTF-8" standalone="no"?>
<svg
   xmlns:dc="http://purl.org/dc/elements/1.1/"
   xmlns:cc="http://creativecommons.org/ns#"
   xmlns:rdf="http://www.w3.org/1999/02/22-rdf-syntax-ns#"
   xmlns:svg="http://www.w3.org/2000/svg"
   xmlns="http://www.w3.org/2000/svg"
   xmlns:sodipodi="http://sodipodi.sourceforge.net/DTD/sodipodi-0.dtd"
   xmlns:inkscape="http://www.inkscape.org/namespaces/inkscape"
   viewBox="0 136.9 120 60.000001"
   version="1.1"
   id="svg8"
   sodipodi:docname="groupon-ar21.svg"
   width="120"
   height="60"
   inkscape:version="0.92.3 (2405546, 2018-03-11)">
  <metadata
     id="metadata14">
    <rdf:RDF>
      <cc:Work
         rdf:about="">
        <dc:format>image/svg+xml</dc:format>
        <dc:type
           rdf:resource="http://purl.org/dc/dcmitype/StillImage" />
        <dc:title></dc:title>
      </cc:Work>
    </rdf:RDF>
  </metadata>
  <defs
     id="defs12" />
  <sodipodi:namedview
     pagecolor="#ffffff"
     bordercolor="#666666"
     borderopacity="1"
     objecttolerance="10"
     gridtolerance="10"
     guidetolerance="10"
     inkscape:pageopacity="0"
     inkscape:pageshadow="2"
     inkscape:window-width="1920"
     inkscape:window-height="1001"
     id="namedview10"
     showgrid="false"
     inkscape:zoom="3.7454562"
     inkscape:cx="129.46608"
     inkscape:cy="16.962239"
     inkscape:window-x="-9"
     inkscape:window-y="-9"
     inkscape:window-maximized="1"
     inkscape:current-layer="svg8" />
  <g
     id="g842"
     transform="translate(0,0.71592575)">
    <path
       sodipodi:nodetypes="ssccssscccscscscscccccssscccccccccccccccscscssscssssssscscssscsssssscscsccccsssccscscccccscscccccssscccccc"
       style="fill:#53a318;stroke-width:0.30341214"
       inkscape:connector-curvature="0"
       id="path2"
       d="m 60.546143,191.73617 c 2.821733,0 4.702887,-1.85081 4.702887,-4.91528 v -7.91906 h -3.094805 v 7.76736 c 0,1.45638 -0.515799,2.12387 -1.608082,2.12387 -1.061943,0 -1.48672,-0.72818 -1.48672,-2.12387 v -7.76736 h -3.125144 v 7.91906 c 0.03034,3.15549 1.75979,4.91528 4.611864,4.91528 z m 8.707929,-4.24778 h 0.879893 c 1.304673,0 2.305934,-0.0911 3.125146,-0.54614 1.243991,-0.75852 2.002521,-2.09353 2.002521,-3.73196 0,-1.57774 -0.576483,-2.76105 -1.699109,-3.54993 -0.849553,-0.57649 -1.881156,-0.69785 -3.185827,-0.69785 h -4.187088 v 12.62195 h 3.064464 z m 0.03034,-5.73448 h 0.819213 c 1.365354,0 2.032861,0.42477 2.032861,1.48672 0,1.15297 -0.758531,1.5474 -2.275592,1.5474 h -0.546137 v -3.00378 h -0.03035 z m 23.028981,2.76105 4.73323,7.00882 h 2.730709 V 178.90183 H 96.65219 v 7.00883 l -4.642204,-6.97848 h -2.791393 v 12.62193 h 3.094804 z m -43.630667,7.25155 c 1.759792,0 3.398218,-0.69786 4.672547,-1.9722 1.183308,-1.21362 1.850815,-2.85206 1.850815,-4.67254 0,-1.72944 -0.697848,-3.33752 -1.972178,-4.58152 -1.213649,-1.21364 -2.821734,-1.88115 -4.490501,-1.88115 -1.790132,0 -3.337534,0.63716 -4.581523,1.85082 -1.24399,1.21365 -1.911497,2.82173 -1.911497,4.55118 0,1.88115 0.576484,3.39822 1.790132,4.70288 1.183306,1.36535 2.791391,2.00253 4.642205,2.00253 z m 0.03033,-9.92158 c 1.75979,0 3.24651,1.48672 3.24651,3.30719 0,2.0632 -1.48672,3.51958 -3.276851,3.51958 -1.729449,0 -3.307192,-1.54739 -3.307192,-3.51958 0,-1.88115 1.456377,-3.30719 3.337533,-3.30719 z m 33.436019,9.92158 c 1.759788,0 3.398214,-0.69786 4.672546,-1.9722 1.183307,-1.21362 1.850814,-2.85206 1.850814,-4.67254 0,-1.72944 -0.697848,-3.33752 -1.97218,-4.58152 -1.213647,-1.21364 -2.821733,-1.88115 -4.490498,-1.88115 -1.790132,0 -3.337534,0.63716 -4.581525,1.85082 -1.243989,1.21365 -1.911494,2.82173 -1.911494,4.55118 0,1.88115 0.576481,3.39822 1.790131,4.70288 1.183307,1.36535 2.761049,2.00253 4.642206,2.00253 z m 0.03035,-9.92158 c 1.759791,0 3.246509,1.48672 3.246509,3.30719 0,2.0632 -1.486718,3.51958 -3.276849,3.51958 -1.729451,0 -3.307194,-1.54739 -3.307194,-3.51958 0,-1.88115 1.456379,-3.30719 3.337534,-3.30719 z m -61.501641,7.97975 c 1.243991,1.30465 2.821732,2.00251 4.702888,2.00251 2.123885,0 4.156745,-1.06193 5.370394,-2.82172 0.72819,-1.06196 1.092285,-2.2756 1.092285,-3.70163 0,-0.27308 -0.03034,-0.54617 -0.03034,-0.81922 h -7.221207 v 2.51831 h 3.610605 c -0.637165,1.12264 -1.668766,1.69911 -2.852074,1.69911 -1.729449,0 -3.307194,-1.5474 -3.307194,-3.54992 0,-1.79014 1.456379,-3.30719 3.307194,-3.30719 0.970918,0 1.790131,0.39443 2.579003,1.21365 h 3.51958 c -1.031601,-2.70037 -3.367873,-4.36913 -6.068243,-4.36913 -1.790131,0 -3.337534,0.63716 -4.581522,1.88114 -1.24399,1.21366 -1.911497,2.82174 -1.911497,4.55118 0,1.82048 0.637166,3.39824 1.790132,4.70291 z m 15.049241,-2.33629 2.427297,4.06572 h 3.792651 l -3.094802,-4.33879 c 1.790132,-0.48545 2.852074,-2.03287 2.852074,-4.06572 0,-1.57774 -0.576485,-2.76104 -1.699107,-3.54992 -0.849556,-0.57649 -1.881156,-0.69785 -3.185829,-0.69785 H 32.63222 v 12.62195 h 3.094804 z m 0,-5.73448 h 0.849556 c 1.365354,0 2.03286,0.42477 2.03286,1.48672 0,1.15297 -0.75853,1.5474 -2.275592,1.5474 h -0.576478 v -3.00378 h -0.03034 z m 65.385315,9.8002 c -54.816458,0.18206 -27.408226,0.0911 0,0 z" />
    <g
       transform="matrix(1.2152787,0,0,1.2152787,2.5637314,-44.207581)"
       id="g835">
      <path
         d="M 47.534998,180.5463 H 39.37699 l -6.763799,-20.36676 h 8.158008 z m 12.208751,0 H 51.585741 L 45.89586,156.09112 h 8.176849 z"
         id="path4"
         inkscape:connector-curvature="0"
         style="fill:#358941;stroke-width:0.18840665" />
      <g
         id="g830">
        <path
           style="fill:#54a446;stroke-width:0.18840665"
           inkscape:connector-curvature="0"
           id="path6"
           d="m 35.307406,180.5463 h -8.158008 l 5.463793,-20.36676 h 8.158008 z m 12.227592,0 H 39.37699 l 6.537711,-24.45518 h 8.158008 z m 12.208751,0 h -8.158008 l 7.630469,-28.52476 h 8.158008 z" />
      </g>
    </g>
  </g>
</svg>
