<svg xmlns="http://www.w3.org/2000/svg" width="64" height="64" fill="none" class="w-[40px] h-auto">
    <path fill="currentColor" d="M13.873 7.193C21.21 12.702 29.103 23.871 32 29.864c2.898-5.993 10.79-17.162 18.127-22.671C55.422 3.218 64 .143 64 9.929c0 1.955-1.12 16.418-1.778 18.767-2.284 8.164-10.609 10.246-18.014 8.986 12.944 2.202 16.236 9.5 9.125 16.796-13.505 13.858-19.41-3.477-20.924-7.919-.277-.814-.407-1.195-.409-.871-.002-.324-.132.057-.41.871-1.512 4.442-7.418 21.777-20.923 7.92-7.111-7.298-3.819-14.595 9.125-16.798-7.405 1.26-15.73-.822-18.014-8.985C1.12 26.347 0 11.883 0 9.929 0 .143 8.579 3.22 13.873 7.193" style="fill:#0a7aff;fill-opacity:1;stroke-width:.112676"/>
</svg>
