<svg xmlns="http://www.w3.org/2000/svg" width="120" height="60" aria-label="next-intl logo" class="h-8">
    <g fill="none" fill-rule="evenodd">
        <path fill="currentColor" fill-rule="nonzero" d="M41.356 36.973v-9.626c.141-.056.452-.12.919-.19a12 12 0 0 1 1.689-.107q.913-.002 1.52.22a2.02 2.02 0 0 1 .975.735q.37.508.53 1.314.157.807.155 1.972v5.682h1.378v-6.127a9.3 9.3 0 0 0-.212-2.057 4.3 4.3 0 0 0-.707-1.604 3.2 3.2 0 0 0-1.335-1.025c-.559-.24-1.258-.36-2.085-.36q-1.506 0-2.544.212-1.04.21-1.654.381v10.58zm15.343.233a7 7 0 0 0 1.922-.233c.545-.156.912-.29 1.117-.403l-.254-1.187a7.4 7.4 0 0 1-.955.36q-.657.213-1.78.212-2.036 0-2.969-1.081t-.996-3.096h7.696q.02-.149.028-.318.014-.17.015-.339 0-2.735-1.202-4.05t-3.208-1.314a4.6 4.6 0 0 0-1.767.354 4.3 4.3 0 0 0-1.527 1.067 5.5 5.5 0 0 0-1.081 1.795c-.276.714-.41 1.555-.41 2.508a8.5 8.5 0 0 0 .297 2.304 4.7 4.7 0 0 0 .954 1.81 4.4 4.4 0 0 0 1.675 1.187c.664.283 1.484.424 2.445.424m2.396-6.594h-6.276a5 5 0 0 1 .283-1.378 3.7 3.7 0 0 1 .678-1.159 3.4 3.4 0 0 1 1.018-.791 2.9 2.9 0 0 1 1.329-.297q1.399 0 2.162.954.764.954.806 2.671m4.615 6.36c.17-.31.374-.67.615-1.066q.359-.596.791-1.265a45 45 0 0 1 .905-1.336c.318-.452.622-.884.933-1.293q.447.614.926 1.293a57 57 0 0 1 .911 1.336c.29.438.559.855.792 1.265s.445.763.615 1.067h1.484a30 30 0 0 0-.884-1.59 28 28 0 0 0-.982-1.555c-.34-.495-.678-.99-1.018-1.456a110 110 0 0 0-.954-1.293l3.499-5.067h-1.506l-2.883 4.197-2.841-4.197H62.5l3.562 5.151a85 85 0 0 0-1.95 2.77 34 34 0 0 0-1.824 3.04zm13.795.234a5.1 5.1 0 0 0 1.612-.24c.494-.163.84-.311 1.039-.431l-.34-1.145a5.4 5.4 0 0 1-.827.367c-.353.128-.82.205-1.399.205a3.9 3.9 0 0 1-.933-.106 1.45 1.45 0 0 1-.72-.424c-.199-.212-.347-.509-.453-.904-.106-.396-.156-.89-.156-1.52v-5.83h4.368v-1.166h-4.368v-3.478l-1.377.255v10.092a9.4 9.4 0 0 0 .17 1.908q.166.804.579 1.343a2.47 2.47 0 0 0 1.102.805c.46.177 1.025.27 1.703.27m7.626-5.703v-1.336h-4.792v1.336zm3.025-7.739a1 1 0 0 0 .72-.29q.298-.284.298-.77c0-.325-.1-.58-.297-.777a1 1 0 0 0-.721-.283 1.03 1.03 0 0 0-.721.283c-.198.19-.297.452-.297.777q0 .486.297.77a.98.98 0 0 0 .72.29m.7 13.209V26.012h-1.379v10.96zm4.954 0v-9.626c.141-.056.445-.12.925-.19a11.5 11.5 0 0 1 1.682-.107c.608 0 1.117.071 1.513.22a2.02 2.02 0 0 1 .975.735q.372.508.53 1.314.157.807.156 1.972v5.682h1.378v-6.127a9.3 9.3 0 0 0-.212-2.057 4.1 4.1 0 0 0-.714-1.604 3.2 3.2 0 0 0-1.336-1.025c-.558-.24-1.258-.36-2.085-.36q-1.505 0-2.544.212-1.038.21-1.654.381v10.58zm14.092.233a5.1 5.1 0 0 0 1.611-.24c.495-.163.841-.311 1.039-.431l-.34-1.145a5.4 5.4 0 0 1-.826.367c-.354.128-.82.205-1.4.205a3.9 3.9 0 0 1-.932-.106 1.45 1.45 0 0 1-.721-.424c-.198-.212-.347-.509-.453-.904-.105-.396-.155-.89-.155-1.52v-5.83h4.368v-1.166h-4.368v-3.478l-1.378.255v10.092a9.4 9.4 0 0 0 .17 1.908q.168.804.58 1.343a2.47 2.47 0 0 0 1.102.805c.459.177 1.024.27 1.703.27m7.435-.042.19-1.145a6 6 0 0 1-.734-.149 1.1 1.1 0 0 1-.495-.268 1.1 1.1 0 0 1-.29-.488 2.9 2.9 0 0 1-.092-.813v-13.78l-1.378.254v13.569c0 .523.057.961.184 1.307a2.1 2.1 0 0 0 .53.848 2.2 2.2 0 0 0 .87.488c.395.112.804.172 1.215.177" style="stroke-width:.235703"/>
        <path stroke-width="1.413" d="M30.648 41.509a14 14 0 0 1-1.036.894c-6.137 4.837-14.966 4.116-20.237-1.651-5.272-5.768-5.197-14.626.17-20.304 5.368-5.678 14.208-6.25 20.262-1.312 6.055 4.939 7.282 13.583 2.799 19.982" style="stroke:#008fd6;stroke-opacity:1"/>
        <path stroke-linecap="square" stroke-width="1.413" d="M7.786 23.261q6.38-.775 12.619-.765 6.24.01 11.985.805" style="stroke:#008fd6;stroke-opacity:1"/>
        <ellipse cx="20.5" cy="30.678" stroke-width="1.413" rx="7.338" ry="14.951" style="fill:none;fill-opacity:1;stroke:#008fd6;stroke-opacity:1"/>
        <path stroke-linecap="square" stroke-width="1.413" d="M8.531 38.919q5.865.785 11.837.785 5.974 0 12.022-.785m-26.656-7.73h29.442" style="fill:none;fill-opacity:1;stroke:#008fd6;stroke-opacity:1"/>
    </g>
</svg>
