<svg xmlns="http://www.w3.org/2000/svg" xmlns:xlink="http://www.w3.org/1999/xlink" width="120" height="60"><path d="M30.998 42.065l.376.118c.112.042.188.125.188.258 0 .125-.09.202-.195.25-.153.077-.32.09-.488.077a.83.83 0 0 0-.495.118l-.46.25.3.028 1.038-.007c.265.007.46.146.613.355.063.084.077.18.056.286-.05.23-.18.314-.404.223-.293-.118-.585-.216-.9-.258-.265-.035-.53-.056-.822-.014.05.042.077.077.112.098.272.202.286.502.223.753-.035.132-.146.21-.265.216-.132 0-.216-.07-.265-.21a.52.52 0 0 0-.091-.174c-.216-.293-.474-.51-.864-.523-.118-.007-.244-.035-.355-.077-.077-.028-.153-.098-.202-.16-.056-.077-.09-.174-.125-.272l-.237-.732c-.035-.09-.09-.174-.146-.258-.056-.077-.132-.14-.18-.216-.07-.112-.16-.16-.286-.174a7.01 7.01 0 0 1-.516-.07l-.035.153c-.063.23-.18.41-.376.558-.32.237-.683.348-1.06.425l-2.014.397c-.105.02-.202.056-.286.125a.42.42 0 0 1-.481.063c-.02-.007-.042-.007-.07.014.077.035.146.077.223.098l.585.195c.153.05.272.146.355.293.146.265-.042.55-.28.57-.09.007-.18-.028-.3-.042.014.056.028.105.05.153.063.153.007.293-.098.397s-.25.153-.397.07c-.07-.035-.132-.077-.195-.132-.258-.23-.516-.467-.808-.64l-.85-.502c-.056-.035-.098-.042-.153-.014a.44.44 0 0 1-.328.021c-.09-.02-.195-.035-.28-.014a.58.58 0 0 1-.488-.07l-.565.4a4.49 4.49 0 0 0-.913.829c-.153.195-.37.244-.544.14-.146-.09-.216-.244-.18-.41l.042-.18-.14.056c-.16.07-.293.02-.41-.084-.118-.112-.14-.28-.077-.432a.65.65 0 0 1 .376-.355l.67-.3c.014-.007.02-.02.028-.056l-.167.063c-.153.056-.3.028-.397-.098-.084-.105-.18-.14-.3-.16l-2.07-.404c-.383-.077-.74-.202-1.06-.44-.25-.188-.37-.46-.397-.76-.007-.125.035-.25.077-.376l.195-.565c-.014-.007-.02-.02-.035-.028-.02.035-.042.077-.07.105L12.1 42.54a.76.76 0 0 0-.174.342c-.028.16-.07.314-.112.474-.028.098-.07.188-.105.28-.056.125-.153.195-.293.216-.16.02-.314.063-.474.098s-.307.084-.41.223c-.056.077-.14.125-.195.202-.056.07-.098.153-.125.23-.056.14-.132.216-.265.21-.125 0-.237-.084-.272-.21-.063-.244-.056-.544.216-.753l.125-.098-.25-.02c-.51-.007-.997.084-1.464.286-.105.05-.216.077-.314-.014a.35.35 0 0 1-.098-.369c.035-.098.098-.195.167-.258.167-.153.37-.237.606-.223.328.02.655.014.983.014.077 0 .153-.014.265-.028l-.314-.16c-.05-.028-.105-.042-.153-.07-.174-.105-.348-.153-.558-.132-.112.014-.23-.014-.348-.035-.05-.007-.098-.028-.14-.056-.223-.125-.223-.362.007-.48.105-.05.223-.07.335-.098.056-.014.118-.014.202-.02-.042-.05-.077-.077-.105-.105-.125-.125-.167-.3-.105-.425.063-.132.21-.195.404-.167.112.02.223.035.328.07.098.035.146 0 .195-.07l.195-.23c.09-.098.202-.146.342-.14l.516.014c.077.007.125-.02.167-.084l.83-1.43 1.6-3.157 1.115-2.397c.3-.655.613-1.296 1.004-1.903l.167-.25-.132-.098c-.843-.516-1.6-1.122-2.314-1.812-1-.962-1.82-2.05-2.44-3.283-.272-.537-.495-1.08-.67-1.652-.035-.112-.09-.146-.195-.16a5.47 5.47 0 0 1-3.283-1.457c-.51-.467-.913-1.004-1.248-1.603-.467-.9-.74-1.86-.87-2.864l-.098-1.13c-.014-.18-.014-.18.153-.265l1.47-.725c.948-.432 1.924-.774 2.948-.94 1.094-.18 2.174-.174 3.24.146.76.223 1.457.578 2.105 1.03l.544.4c.077.056.153.077.237.035l.432-.23c-.112-.3-.146-.6-.118-.906.035-.383.132-.76.328-1.094.077-.132.16-.25.32-.3.132 1.164.71 1.38 1.38 1.464-.09-.37.042-.7.195-1.004l.362-.655c.035-.056.077-.105.132-.188l.09.244.23.502c.237.418.627.606 1.087.655l1.366.132c.76.063 1.498.223 2.21.488l.997.4c.174.07.342.063.495-.035.774-.474 1.624-.753 2.516-.913.767-.14 1.54-.167 2.314-.125.927.05 1.833.216 2.732.453a18.64 18.64 0 0 1 3.206 1.192l.18.084c.14.07.153.077.132.23l-.18 1.22c-.188.962-.523 1.875-1.018 2.725-.558.955-1.29 1.728-2.258 2.272a5.97 5.97 0 0 1-2.161.704c-.125.014-.202.056-.23.188-.02.098-.063.188-.105.3.042-.014.063-.014.077-.02.718-.397 1.498-.558 2.314-.578a5.47 5.47 0 0 1 2.655.613 3.29 3.29 0 0 1 1.143.955c.335.44.613.92.857 1.408.07.132.063.258-.035.37-.042.05-.07.098-.112.146l-.8.8c-.446.44-.983.683-1.59.788a3.42 3.42 0 0 1-.801.049l-.9-.035c-.167-.007-.335.014-.502.014-.223 0-.404.105-.565.25-.174.16-.293.348-.37.57-.084.244-.084.48.007.718.105.28.258.523.495.697l.383.272 1.944 1.178c.725.4 1.422.836 2.077 1.345.446.348.815.76 1.038 1.282.132.314.21.634.223.97.07 1.52-.565 2.697-1.756 3.596-.502.383-1.066.62-1.666.795-.864.258-1.75.453-2.634.606a1.55 1.55 0 0 1-.167.056zm-11.862-18.31l-.035-.16-.077-.544c-.125-.725-.335-1.422-.725-2.05-.342-.558-.788-1.004-1.38-1.303-.16-.084-.328-.153-.523-.18l-.697 1.505-.174-.146-.418-.383c-.293-.28-.67-.383-1.06-.488-.188.53-.32 1.052-.272 1.624-.453-.18-.878-.397-1.38-.474.02.516.05.997.153 1.49l-1.26.056c.042.64.18 1.254.446 1.833-.23 0-.446-.014-.662-.007-.216 0-.425.007-.655.05l.084.293c.418 1.3 1.08 2.488 1.944 3.554a12.85 12.85 0 0 0 3.185 2.83c.983.62 2.02 1.1 3.164 1.352.627.14 1.254.18 1.89.063.8-.146 1.554-.446 2.265-.822 1.338-.704 2.51-1.63 3.56-2.71.732-.753 1.38-1.575 1.924-2.48.376-.627.697-1.282.927-1.98l.05-.174-1.624-.18c.44-.495.78-1.004.836-1.673-.467-.146-.934-.125-1.4-.028l.188-.78c.05-.258.105-.516.084-.788-.578 0-1.06.223-1.56.495l.035-.195c.042-.272.098-.55.05-.83-.05-.286-.112-.335-.383-.28-.55.118-1.038.37-1.464.732l-.125.098c-.014-.028-.028-.035-.028-.042-.125-.53-.418-.97-.76-1.38-.063-.07-.118-.098-.216-.077a1.93 1.93 0 0 0-.753.383c-.37.307-.64.697-.857 1.122-.418.808-.67 1.673-.843 2.565l-.05.21-1.4-.098zm9.437 16.608l.105.202c.063.098.14.195.188.3.07.153.18.174.328.167a3.69 3.69 0 0 1 .481-.007c.063 0 .132.028.18.07a1.95 1.95 0 0 1 .265.272c.063.077.118.118.223.077.112-.035.23-.05.342-.07.118-.02.237 0 .328.09.05.05.098.063.16.056l2.453-.57c.453-.14.9-.3 1.296-.565 1.17-.788 1.826-1.847 1.777-3.297a2.31 2.31 0 0 0-.808-1.687 9.93 9.93 0 0 0-1.533-1.101l-2.516-1.498-.67-.467a1.83 1.83 0 0 1-.669-1.108c-.125-.634.098-1.164.55-1.603a1.34 1.34 0 0 1 .899-.383c.467-.028.934.028 1.4.02a5.29 5.29 0 0 0 .746-.049c.495-.07.927-.28 1.282-.634l.76-.753c.028-.028.042-.063.063-.09-.244-.474-.51-.92-.843-1.33-.202-.258-.446-.467-.732-.627-1.03-.585-2.14-.76-3.3-.592-.746.105-1.4.425-1.993.878a.72.72 0 0 0-.146.174l-.85 1.4c-.432.64-.927 1.227-1.464 1.777-.098.098-.16.21-.21.342-.202.592-.265 1.192-.195 1.812.098.85.376 1.624.976 2.258.348.376.697.76 1.122 1.045.592.397 1.213.753 1.868 1.038l1.596.732c.348.16.648.376.857.697a1.15 1.15 0 0 1 .07 1.261c-.125.23-.28.432-.488.585a5.99 5.99 0 0 1-.69.432c-.808.425-1.687.634-2.593.704l-.606.042zm-2.056-19.59c.118-.007.16-.063.16-.153l.02-.335c.105-.795.418-1.498.9-2.133.516-.67 1.213-1.052 2.007-1.275.613-.174 1.24-.216 1.875-.153.042.007.084.014.112-.05l-.153-.042-1.547-.258c-.4-.05-.788-.077-1.185-.07a10.62 10.62 0 0 0-1.248.098c-.85.105-1.66.342-2.41.746l-.265.16.87.767c-.028.014-.042.014-.056.007l-1.33-.613c-.732-.328-1.478-.62-2.258-.815-.613-.153-1.24-.195-1.868-.25-.4-.035-.78-.063-1.157-.167-.383-.112-.697-.32-.906-.67l-.07-.098c-.105.125-.146.265-.174.404-.063.314.028.606.202.878-.07.014-.125.035-.18.035-.502.05-.976-.05-1.422-.28a1.36 1.36 0 0 1-.571-.551c-.132.523-.16 1.025.293 1.436-.892.314-1.68.8-2.48 1.268l.4-.467c.132-.146.286-.28.432-.425l-.112-.098-.648-.446c-1.136-.74-2.377-1.094-3.736-1.038-1.03.05-2.014.3-2.976.655-.02.007-.035.028-.056.042.105.014.195.007.286 0l1.234-.084c.537.007 1.066.077 1.582.237a4.44 4.44 0 0 1 1.889 1.129c.606.613.927 1.366 1.01 2.223l.042.432.314.105a6.43 6.43 0 0 1 .453-1.498l.94.293c.32.098.57.307.83.523l.578-1.254c.683.056 1.26.376 1.708.746.474.397.83.885 1.1 1.436.286.57.46 1.185.558 1.812l.056.328.516.05c.07.007.118-.014.132-.09l.028-.132c.14-.627.335-1.234.585-1.826.223-.523.51-1.004.892-1.422a2.71 2.71 0 0 1 .815-.606c.223-.105.46-.153.704-.202.105-.02.167.007.23.084.293.348.578.697.78 1.1.007.014.02.028.035.042.035-.014.07-.028.105-.05.474-.28.983-.48 1.54-.51.07 0 .167.007.216.056.202.195.342.425.362.71l.028.258zm-9.374 19.36l-.042-.265c-.098-.85-.18-1.708-.105-2.565s.307-1.666.774-2.39c.265-.418.592-.78 1.03-1.03.704-.404 1.408-.41 2.112-.02.51.28.87.71 1.157 1.2.53.92.732 1.917.704 2.97-.02.71-.09 1.415-.25 2.105-.007.02 0 .05.007.084l.934-.362c.32-.098.655-.146 1-.223-.007-.035-.007-.063-.014-.098l-.718-3.45-.335-1.735-.132-.76c-.014-.077-.028-.167.084-.223.035.063.07.118.09.18l.118.383.502 1.854.348 1.324.202.774c.02.07.056.146.105.21l.843 1.08 2.063 2.46c.035.035.063.07.105.118.146-.14.314-.202.48-.188l.25-.41-.098-.195-.85-1.575-1.025-1.917-.495-.948-.558-1.234-.64-1.415-.342-.725c-.195-.404-.48-.746-.76-1.122-.077.028-.167.042-.237.084-.627.348-1.282.648-1.972.85-.774.223-1.554.3-2.35.167-.822-.132-1.6-.397-2.363-.753l-.57-.286c-.063.05-.132.09-.18.146l-.446.627c-.237.37-.4.774-.57 1.17l-.795 1.728-.578 1.206-1.164 2.18-.878 1.638-.174.307c-.028.05-.028.09.014.14.077.105.14.21.216.335.07.007.16 0 .244.028.084.035.146.112.244.18.02-.028.035-.056.056-.084l1.317-1.554 1.63-2.035a1.14 1.14 0 0 0 .223-.439l.613-2.258.418-1.582c.035-.125.09-.237.174-.342.063.118.07.174.035.328l-.376 1.728-.808 3.945c-.014.056-.02.118-.028.174l.892.167c.272.07.558.195.878.314zm12.866-15.876c.035 0 .056 0 .077-.007l.795-.188a5.06 5.06 0 0 0 2.237-1.345c.558-.57.976-1.24 1.296-1.972a9.15 9.15 0 0 0 .634-2.174l.077-.544c-.028-.02-.035-.035-.042-.035-.028-.014-.063-.028-.09-.035-1.185-.397-2.39-.662-3.638-.753a4.56 4.56 0 0 0-1.91.244c-.627.23-1.17.57-1.554 1.13s-.64 1.157-.718 1.833c-.007.07-.02.146.05.216.237.007.488-.07.746.007.05.488-.014.962-.105 1.443l.627.077.613.153c.028.21.007.397-.028.578a3.77 3.77 0 0 1-.146.551c-.063.174-.153.342-.244.53l1.338.14-.014.153zm-20.17-.105l1.22-.098c-.188-.64-.23-1.282-.32-1.937.432.07.836.195 1.268.077a11.1 11.1 0 0 1-.07-1.45l.578-.05c.007-.02.02-.042.014-.063-.035-.537-.174-1.038-.44-1.512-.314-.565-.78-.97-1.338-1.275-.78-.425-1.624-.606-2.51-.544l-1.826.174c-.446.05-.892.125-1.3.272-.265.09-.3.028-.272.404.063.753.174 1.49.41 2.21.335 1.018.857 1.917 1.66 2.648.76.697 1.645 1.136 2.67 1.29l.286.035-.02-.18zm12.517 13.813c-.007-.795-.118-1.526-.41-2.216-.23-.544-.537-1.03-1.018-1.38-.558-.41-1.157-.495-1.79-.195-.342.16-.606.418-.83.71-.523.683-.774 1.478-.864 2.32-.09.808-.02 1.617.063 2.418.02.202.07.404.105.606.014.077.05.14.132.18l1.93.997c.09.05.167.056.265.007l1.903-.934a.42.42 0 0 0 .244-.307c.16-.746.244-1.498.272-2.21zm3.652-7.694c-.606.53-1.22 1.004-1.882 1.43l.32.516c.3.453.537.934.767 1.43l1.192 2.58 1.763 3.457.09.167a.24.24 0 0 0 .063.007c.662.014 1.3-.05 1.958-.21.627-.153 1.22-.4 1.756-.753.202-.14.362-.314.488-.523a.65.65 0 0 0-.021-.739c-.125-.188-.28-.348-.488-.446l-.934-.446-2.188-1.08c-.753-.44-1.387-1.004-1.944-1.666-.293-.348-.53-.732-.676-1.164-.202-.57-.32-1.164-.307-1.77-.007-.244.02-.502.042-.788zM19.63 43.64l.118-.014 1.443-.286 3.917-.774c.265-.056.537-.118.753-.3.174-.14.286-.32.21-.558-.077-.23-.146-.474-.265-.683a1.53 1.53 0 0 0-1.547-.836 2.7 2.7 0 0 0-.871.209l-.8.376-2.133 1c-.328.153-.655.314-.934.544-.056.05-.105.112-.16.16.084.146.132.28.084.425-.007.02.007.056.014.077.042.098.07.195.035.307-.007.02.007.056.014.077a1.43 1.43 0 0 0 .125.286zm-.272-1.868l-.195-.105-2.126-1.004c-.314-.146-.62-.307-.955-.383-.265-.063-.53-.112-.808-.084a1.49 1.49 0 0 0-.948.439c-.307.307-.467.704-.57 1.115-.05.188.028.348.174.474.056.05.118.084.18.118a2.25 2.25 0 0 0 .662.223l2.244.453c.063.014.105 0 .16-.02.098-.042.21-.077.314-.098l.558-.09c.07-.014.132-.056.202-.084 0-.014 0-.028-.007-.035l-.167-.056c-.146-.056-.258-.146-.335-.286-.084-.16-.056-.348.056-.467.118-.118.286-.146.446-.056.09.05.174.118.258.18l.335.258.523-.495zm-9.13.028l-.662.44c.174.07.348.16.53.195.125.02.272-.042.404-.07.063-.007.105-.042.118-.098l.056-.188-.446-.28zm18.915.41c.05.063.07.132.105.14.14.042.293.105.44.09.195-.02.37-.125.57-.21-.14-.07-.655-.07-1.115-.02zm-14.908-2.216l.53-.237c.02-.007.05-.035.056-.056l.112-.51c-.014-.007-.02-.007-.035-.014l-.662.815zm11.172-.18l-.488-.613c-.014.007-.028.014-.035.014l.105.495c.007.02.028.035.042.042.112.05.223.105.376.063zm.955 1.136c-.007.035-.014.05-.007.056l.105.28c.063.153.084.16.3.125l-.397-.46zm-4.398 3.3c.16.118.328.216.523.272a1.44 1.44 0 0 0-.523-.272zm-4.453.258a.63.63 0 0 0 .397-.251l-.397.25z"/><path d="M19.136 23.756l1.415.118.05-.21c.174-.892.418-1.756.843-2.565.223-.425.488-.808.857-1.122a1.93 1.93 0 0 1 .753-.383c.098-.028.153 0 .216.077.342.41.627.85.76 1.38 0 .007.014.02.028.042l.125-.098c.425-.362.913-.62 1.464-.732.272-.056.335-.007.383.28.05.28 0 .558-.05.83-.007.056-.02.105-.035.195.502-.272.983-.495 1.56-.495.02.272-.028.53-.084.788l-.188.78c.467-.098.927-.118 1.4.028-.056.662-.397 1.178-.836 1.673l1.624.18-.05.174c-.23.697-.55 1.352-.927 1.98-.544.9-1.192 1.72-1.924 2.48-1.052 1.08-2.223 2.007-3.56 2.71-.718.376-1.464.676-2.265.822-.634.118-1.268.07-1.89-.063-1.143-.25-2.18-.732-3.164-1.352-1.22-.767-2.28-1.714-3.185-2.83-.864-1.066-1.526-2.244-1.944-3.554l-.084-.293a3.5 3.5 0 0 1 .655-.049l.662.007c-.265-.578-.404-1.192-.446-1.833l1.26-.056c-.098-.495-.132-.983-.153-1.49.502.077.927.293 1.38.474-.05-.57.084-1.094.272-1.624.4.105.767.21 1.06.488l.418.383.174.146.697-1.505c.195.028.362.098.523.18.592.293 1.038.746 1.38 1.303.4.627.6 1.324.725 2.05l.077.544a.74.74 0 0 0 .021.139zm-.7 1.457c0-.495-.146-1.066-.48-1.582-.606-.934-1.47-1.43-2.58-1.443-.892-.007-1.652.342-2.25.997-.878.955-1.1 2.377-.48 3.575.495.955 1.282 1.526 2.356 1.66 1.01.125 1.868-.21 2.572-.934.578-.592.857-1.324.864-2.272zm2.92-.084a3.06 3.06 0 0 0 2.99 3.269c1.59.056 3.1-1.17 3.15-3.032.042-1.624-1.22-3.04-2.913-3.13-1.742-.09-3.15 1.26-3.227 2.892zm-1.49 3.47c-.348.014-.67.105-.948.307-.28.21-.32.488-.105.753.25.307.578.502.955.613.07.02.146.035.21.02.453-.105.795-.362 1.01-.774.112-.216.056-.41-.14-.565-.28-.23-.62-.335-.983-.355zm1.087 2.976c.41-.014.85-.09 1.178-.216.683-.25 1.1-.774 1.387-1.415.042-.098.056-.202.02-.307-.035-.09-.084-.16-.18-.174-.105-.014-.167.05-.21.132-.028.056-.05.125-.07.188-.112.314-.265.606-.516.83-.523.467-1.13.662-1.82.502-.112-.028-.21 0-.3.056-.125.07-.132.216-.014.3.042.028.09.05.14.056l.383.05z" fill="#d3d3d3"/><path d="M28.572 40.364l.62-.035c.906-.07 1.784-.286 2.593-.704.244-.125.467-.28.7-.432a1.68 1.68 0 0 0 .488-.585 1.15 1.15 0 0 0-.07-1.261c-.216-.32-.5-.537-.857-.697l-1.596-.732c-.655-.293-1.268-.648-1.868-1.038-.432-.286-.774-.67-1.122-1.045-.6-.634-.87-1.408-.976-2.258a4.1 4.1 0 0 1 .195-1.812.88.88 0 0 1 .21-.342 12.8 12.8 0 0 0 1.464-1.777l.85-1.4c.042-.063.084-.132.146-.174.592-.453 1.248-.767 1.993-.878 1.17-.167 2.272.007 3.3.592.286.16.53.37.732.627.328.4.6.857.843 1.33-.02.028-.042.07-.063.1l-.76.753c-.355.355-.788.558-1.282.634a5.36 5.36 0 0 1-.746.049c-.467 0-.934-.056-1.4-.02-.355.02-.655.146-.9.383-.453.44-.676.97-.55 1.603a1.86 1.86 0 0 0 .669 1.108l.67.467c.808.55 1.673 1.004 2.516 1.498a9.93 9.93 0 0 1 1.533 1.101 2.31 2.31 0 0 1 .808 1.687c.056 1.443-.606 2.5-1.777 3.297-.397.265-.843.432-1.296.565-.808.244-1.63.418-2.453.57-.07.014-.112 0-.16-.056-.1-.1-.202-.112-.328-.1-.118.02-.237.028-.342.07-.105.035-.16 0-.223-.077a1.63 1.63 0 0 0-.265-.272c-.05-.042-.118-.063-.18-.07a3.69 3.69 0 0 0-.481.007c-.146.014-.258-.014-.328-.167-.05-.105-.125-.195-.188-.3-.05-.07-.077-.132-.118-.2zm-2.056-19.6l-.028-.237c-.014-.293-.16-.523-.362-.7-.05-.042-.14-.056-.216-.056-.558.028-1.06.23-1.54.5-.035.02-.07.035-.105.05-.014-.02-.028-.028-.035-.042-.202-.4-.488-.76-.78-1.1-.063-.077-.125-.105-.23-.084-.244.05-.48.098-.704.202a2.48 2.48 0 0 0-.815.606c-.383.418-.67.906-.892 1.422a9.95 9.95 0 0 0-.585 1.826l-.028.132c-.014.077-.063.098-.132.1l-.516-.05-.056-.328c-.105-.627-.28-1.24-.558-1.812-.272-.55-.627-1.038-1.1-1.436-.446-.37-1.025-.7-1.708-.746l-.578 1.254c-.258-.216-.516-.425-.83-.523l-.94-.293a6.43 6.43 0 0 0-.453 1.498L13 20.843l-.042-.432c-.084-.857-.4-1.6-1-2.223a4.44 4.44 0 0 0-1.889-1.129c-.516-.16-1.045-.23-1.582-.237-.4 0-.822.056-1.234.084-.1.007-.188.02-.286 0 .02-.014.035-.035.056-.042.962-.355 1.944-.606 2.976-.655 1.36-.063 2.6.3 3.736 1.038l.648.446.112.098-.432.425a7.22 7.22 0 0 0-.4.467c.8-.467 1.6-.948 2.48-1.268-.453-.418-.425-.913-.293-1.436.132.244.328.432.57.55.446.23.92.335 1.422.28.056-.007.105-.02.18-.035-.174-.28-.265-.565-.202-.878.028-.14.063-.28.174-.404.028.035.056.063.07.098.2.348.523.558.906.67.376.105.767.132 1.157.167.627.056 1.254.098 1.868.25.78.195 1.526.48 2.258.815l1.33.613c.014.007.028.007.056-.007l-.87-.767.265-.16a6.94 6.94 0 0 1 2.4-.746l1.248-.098c.397-.007.795.02 1.185.07l1.547.258a.64.64 0 0 1 .153.042c-.028.056-.063.05-.112.05-.634-.056-1.26-.02-1.875.153-.795.223-1.498.606-2.007 1.275-.48.627-.795 1.338-.9 2.133-.014.112-.014.223-.02.335 0 .07-.042.125-.16.132zm-9.374 19.37l-.9-.32c-.286-.077-.585-.112-.892-.167l.028-.174.808-3.945.376-1.728c.035-.146.02-.2-.035-.328a.84.84 0 0 0-.174.342l-.418 1.582-.613 2.258a1.1 1.1 0 0 1-.223.44l-1.63 2.035-1.317 1.554-.056.084c-.098-.077-.16-.146-.244-.18-.077-.035-.174-.02-.244-.028l-.216-.335c-.035-.05-.035-.1-.014-.14l.174-.307.878-1.638 1.164-2.18.578-1.206.795-1.728c.18-.397.335-.8.57-1.17l.446-.627c.05-.063.118-.098.18-.146l.57.286c.753.355 1.54.62 2.363.753.795.132 1.575.056 2.35-.167.7-.202 1.345-.502 1.972-.85.077-.042.16-.056.237-.084.28.376.565.718.76 1.122l.342.725 1.198 2.65.495.948 1.025 1.917.85 1.575.098.195-.25.4c-.167-.02-.335.05-.48.188-.042-.042-.077-.077-.105-.118l-2.063-2.46-.843-1.08a.59.59 0 0 1-.105-.209l-.202-.774-.348-1.324-.502-1.854-.118-.383c-.02-.063-.056-.118-.1-.18-.112.063-.098.146-.084.223l.132.76.335 1.735.718 3.45c.007.035.007.063.014.098l-1 .223c-.314.098-.62.237-.934.362 0-.028-.014-.056-.007-.084.16-.7.23-1.4.25-2.105.028-1.045-.174-2.05-.704-2.97-.286-.495-.648-.92-1.157-1.2-.7-.4-1.415-.383-2.112.02-.432.25-.76.613-1.03 1.03-.467.732-.697 1.54-.774 2.4-.077.857 0 1.714.105 2.565.028.084.042.167.063.272z" fill="#595959"/><path d="M30.008 24.258l.014-.153-1.338-.14.244-.53a3.55 3.55 0 0 0 .146-.551c.035-.18.056-.376.028-.578l-.613-.153-.627-.077c.084-.48.153-.955.105-1.443-.258-.077-.502 0-.746-.007-.063-.07-.056-.146-.05-.216.077-.676.335-1.275.718-1.833s.927-.906 1.554-1.13c.613-.223 1.254-.293 1.9-.244 1.248.1 2.453.355 3.638.753l.1.035c.007.007.014.014.042.035l-.077.544c-.132.746-.335 1.478-.634 2.174-.32.732-.74 1.4-1.296 1.972a5.06 5.06 0 0 1-2.237 1.345c-.258.077-.53.125-.795.188-.02.007-.042 0-.077.007zM9.84 24.154l.014.174-.286-.035a4.98 4.98 0 0 1-2.669-1.289c-.795-.732-1.324-1.624-1.66-2.648-.23-.7-.342-1.45-.404-2.202-.028-.376.007-.314.272-.404.425-.146.864-.216 1.303-.272l1.826-.174c.885-.056 1.728.118 2.5.544.558.307 1.025.7 1.338 1.275a3.5 3.5 0 0 1 .44 1.512c0 .02-.014.042-.014.063l-.578.05a11.1 11.1 0 0 0 .07 1.45c-.432.118-.836-.007-1.268-.077.084.655.125 1.296.32 1.937l-1.213.098z" fill="#b7410e"/><path d="M22.356 37.967a12.21 12.21 0 0 1-.279 2.202.42.42 0 0 1-.244.307l-1.903.934c-.098.05-.167.042-.265-.007l-1.93-.997c-.084-.042-.118-.098-.132-.18l-.105-.606c-.09-.8-.16-1.6-.063-2.418.098-.843.342-1.638.864-2.32.223-.293.495-.55.83-.71a1.63 1.63 0 0 1 1.791.195c.48.355.788.843 1.018 1.38.293.704.41 1.43.418 2.223z" fill="#d3d3d3"/><path d="M19.63 43.64l-.14-.272c-.014-.02-.02-.056-.014-.077.035-.112.007-.2-.035-.307-.007-.028-.02-.056-.014-.077.05-.153 0-.286-.084-.425.05-.056.098-.112.16-.16.28-.237.606-.4.934-.544l2.133-1 .8-.376a2.7 2.7 0 0 1 .871-.209 1.54 1.54 0 0 1 1.547.836c.118.2.188.453.265.683s-.028.4-.2.558c-.216.174-.488.244-.753.3l-3.917.774-1.443.286c-.028-.007-.07-.007-.105 0zm-.27-1.868l-.53.488-.335-.258c-.084-.063-.167-.132-.258-.18-.16-.084-.328-.063-.446.056-.118.112-.14.307-.056.467.07.14.188.237.335.286l.167.056c0 .014 0 .028.007.035-.07.028-.132.07-.202.084l-.558.1c-.105.02-.216.056-.314.098-.056.02-.098.035-.16.02l-2.244-.453c-.23-.05-.453-.118-.662-.223-.063-.035-.125-.07-.18-.118-.146-.125-.223-.286-.174-.474.105-.418.265-.808.57-1.115a1.51 1.51 0 0 1 .948-.44c.28-.028.544.02.808.084.335.084.648.237.955.383l2.126 1.004.202.112zm7.003-.822l.397.46c-.223.035-.237.028-.3-.125l-.105-.28c-.007-.007 0-.02.007-.056z" fill="#595959"/><path d="M18.446 25.213c-.007.948-.286 1.68-.864 2.28a2.92 2.92 0 0 1-2.572.934 2.94 2.94 0 0 1-2.356-1.659c-.62-1.2-.397-2.62.48-3.575.606-.655 1.36-1.004 2.25-.997 1.115.014 1.972.5 2.58 1.443a2.91 2.91 0 0 1 .48 1.575zm-3-2.07c-.307.014-.6.084-.87.2a2.44 2.44 0 0 0-1.157 3.269c.488.997 1.56 1.526 2.607 1.303 1.15-.244 1.993-1.33 1.882-2.58-.063-.704-.37-1.275-.92-1.714-.446-.355-.97-.502-1.54-.488zm5.93 1.987a3.07 3.07 0 0 1 3.22-2.899 3.06 3.06 0 0 1 2.913 3.129c-.05 1.868-1.554 3.087-3.15 3.032a3.05 3.05 0 0 1-2.983-3.262zm5.27.425c.014-1.24-.97-2.4-2.37-2.4-1.303 0-2.377 1.004-2.377 2.384 0 1.345 1.052 2.377 2.363 2.377 1.4.014 2.384-1.13 2.384-2.37zM19.874 28.6c.362.02.704.125.997.355a.43.43 0 0 1 .139.565 1.47 1.47 0 0 1-1.01.774.43.43 0 0 1-.209-.021c-.376-.112-.704-.307-.955-.613-.216-.265-.174-.544.105-.753.265-.202.585-.293.934-.307zm1.088 2.976l-.397-.05c-.05-.007-.098-.028-.14-.056-.118-.084-.112-.23.014-.3.1-.056.188-.084.3-.056.697.16 1.296-.028 1.82-.502.25-.223.404-.516.516-.83l.07-.188c.042-.084.112-.146.2-.132s.153.077.18.174c.042.105.028.216-.02.307-.293.64-.704 1.157-1.387 1.415-.314.118-.753.195-1.164.216z"/><path d="M15.435 23.143c.57-.02 1.094.132 1.54.488a2.38 2.38 0 0 1 .92 1.714c.112 1.248-.732 2.335-1.882 2.58-1.045.223-2.12-.307-2.607-1.303a2.44 2.44 0 0 1 1.157-3.269 2.35 2.35 0 0 1 .871-.209zm.362 1.554c-.48 0-.892.418-.878.906.007.467.335.885.878.885.488 0 .87-.355.878-.906a.89.89 0 0 0-.878-.885zm10.838.858c0 1.24-.983 2.384-2.384 2.377a2.35 2.35 0 0 1-2.363-2.377c0-1.38 1.073-2.384 2.377-2.384 1.4-.007 2.377 1.15 2.37 2.384zm-2.7.955c.474.014.892-.383.9-.87a.86.86 0 0 0-.871-.892.85.85 0 0 0-.885.857c-.02.544.404.892.857.906z" fill="#fff"/><path d="M15.797 24.697c.48 0 .878.397.878.892-.007.544-.4.906-.878.906-.544 0-.87-.418-.878-.885a.9.9 0 0 1 .878-.913zm-.042.634c0-.132-.112-.25-.237-.258-.125 0-.25.118-.258.258 0 .132.118.258.258.25s.237-.112.237-.25zm8.2 1.18c-.453-.02-.878-.362-.857-.906a.85.85 0 0 1 .885-.857c.537.014.878.425.87.892 0 .488-.425.885-.9.87zm-.028-1.206a.24.24 0 0 0-.237-.25c-.14-.006-.258.112-.258.25 0 .125.118.244.25.244.14 0 .244-.112.244-.244z"/><path d="M15.756 25.33c0 .14-.105.244-.237.25-.14.007-.258-.112-.258-.25 0-.132.125-.258.258-.258.125.007.237.125.237.258zm8.16-.026c0 .132-.112.244-.244.244s-.25-.112-.25-.244a.25.25 0 0 1 .258-.25c.14.008.244.112.237.25z" fill="#fff"/><path d="M.845 36.1h9.6c.1 1.9.8 3.3 2.1 4.2 1.4.9 3.3 1.4 5.6 1.4 1.7 0 3.1-.3 4.4-1 1.1-.7 1.7-1.5 1.7-2.7 0-1.7-2-3-5.9-3.8l-3.8-.8c-5-1.2-8.3-2.7-10-4.4-1.9-1.7-2.8-3.9-2.8-6.8 0-3.6 1.4-6.5 4.1-8.9 2.8-2.2 6.5-3.2 11-3.2 4.9 0 8.8 1.1 11.7 3.2 2.7 2.3 4.2 5.4 4.4 9.1h-6c-1.8 0-3.1-.8-4.1-2.4-.4-.4-.8-.7-1.1-1.1-1.1-.8-2.7-1.3-4.6-1.3s-3.3.3-4.2.8c-.8.6-1.3 1.4-1.3 2.5 0 1.5 2.4 2.8 7.3 3.8.6.2 1.1.3 1.5.4s.8.1 1.2.1c4.8 1.2 8.1 2.6 10 4.2 1.8 1.7 2.7 3.9 2.7 6.8 0 4.1-1.5 7.3-4.5 9.6-2.8 2.1-7 3.1-12.7 3.1-5.3 0-9.3-1.1-12-3.2-2.9-1.9-4.3-5-4.3-9.1zm58.2-14.4c-1.4-2-3.3-3-5.8-3-2.6 0-4.6.9-6 2.8s-2.1 4.5-2.1 7.7v19.3h-9.6V.1h4.8c1.3 0 2.4.5 3.4 1.4a4.76 4.76 0 0 1 1.4 3.4V16c1.7-2.8 4.1-4.6 7.2-5.3s6-.6 8.9.6c2.6 1.1 4.8 2.9 6.6 5.3s2.7 5.8 2.7 10.1v21.8h-9.4V29.1c0-1.4-.1-2.7-.4-3.9a10.22 10.22 0 0 0-1.7-3.5z" fill="#9e452b"/><path d="M72.945.1h5.1c1.3 0 2.4.5 3.4 1.4.9 1 1.4 2.1 1.4 3.4v3h-9.8V.1z" fill="#3c3c3e"/><g fill="#9e452b"><path d="M72.945 11.1h5.1c1.3 0 2.4.5 3.4 1.4a4.76 4.76 0 0 1 1.4 3.4v32.6h-9.8V11.1z"/><use xlink:href="#B"/><use xlink:href="#B" x="37"/><path d="M182.945 47c-2 1-4.1 1.7-6.3 1.9l-5.8.4c-3.4 0-6.3-.9-8.9-2.7-2.5-1.8-3.8-4.9-3.8-9.1 0-3.9 1.1-6.8 3.4-8.4 2.3-1.7 5.2-2.8 8.8-3.4.5 0 1-.1 1.7-.2l2.2-.4c4.1-.6 6.2-1.8 6.2-3.7 0-1.4-.7-2.3-2.2-2.7s-2.8-.6-4-.6c-1.3 0-2.5.2-3.5.6s-1.8 1.1-2.2 2.1h-9.4c.4-2.9 1.7-5.3 3.9-7.2 2.5-2.2 6.1-3.2 10.8-3.2 5.2 0 9.2.9 11.8 2.7 2.7 1.9 4.1 4.5 4.1 7.9v12.8c0 3.8-.7 6.7-2 8.8-1.3 1.9-2.9 3.4-4.8 4.4zm-2.3-17.3c-1.3.7-3.1 1.3-5.5 1.8l-3.2.7c-1.7.5-2.9 1.1-3.7 1.8-.7 1-1 2.1-1 3.1 0 1.4.4 2.5 1.3 3.4.8.8 2.1 1.1 3.7 1.1 2.6 0 4.7-.7 6.2-2.2s2.2-3.6 2.2-6.2zm20.9-24.9V16c1-1.8 2.5-3.2 4.5-4.4 1.7-.9 3.7-1.4 6.2-1.4 4.4 0 8 1.8 10.8 5.5s4.2 8.4 4.2 14.2-1.4 10.5-4.2 14.2c-1.4 1.8-3.3 3.1-5.7 3.9s-4.8 1.2-7.1 1.2c-4.5 0-8.7-1.2-12.5-3.5s-5.8-6.8-5.8-13.5V0h4.8c1.3 0 2.4.5 3.4 1.4a4.76 4.76 0 0 1 1.4 3.4zm16 24.7c0-3.4-.7-6-2.1-7.9-1.4-2-3.3-3-5.8-3-2.6 0-4.6.9-6 2.8-1.4 2-2.1 4.6-2.1 8 0 3.9.7 6.8 2 8.6 1.4 2 3.4 3 5.9 3 2.6 0 4.6-1 6-3 1.4-1.9 2.1-4.7 2.1-8.5zm11.8-29.4h5.1c1.3 0 2.4.4 3.4 1.3.9.9 1.4 2 1.4 3.3v43.7h-9.8V.1zm38.6 36.9h7c-1 3.9-3 6.9-5.9 9-2.9 2.2-6.6 3.2-11 3.2-5.3 0-9.5-1.7-12.5-5.2-3-3.4-4.5-8.2-4.5-14.5 0-6 1.5-10.7 4.4-14.1 3-3.5 7.2-5.2 12.5-5.2 5.6 0 10 1.7 13.1 5.1 3 3.5 4.5 8.3 4.5 14.5v1.6c0 .5 0 .8-.1 1h-24.3c.1 2.9.8 5.1 2.1 6.5 1.2 1.5 3 2.2 5.5 2.2 1.6 0 3-.3 4.1-1 .3-.1.5-.3.8-.5l.8-.8c.1-.3.4-.7 1.1-1.1.4-.5 1.3-.7 2.4-.7zm-16.8-11h14.3c-.2-2.5-.8-4.4-2-5.6-1.2-1.3-3-2-5.2-2-2.1 0-3.8.7-5.1 2-1.2 1.3-2 3.2-2 5.6z"/></g><defs ><path id="B" d="M94.645 57.5c0 1.3-.5 2.4-1.4 3.4a4.76 4.76 0 0 1-3.4 1.4h-4.8v-35c0-6.6 1.9-11 5.8-13.4 3.8-2.4 8-3.6 12.5-3.6 2.3 0 4.7.4 7.1 1.3s4.3 2.2 5.7 3.9c2.8 3.7 4.2 8.3 4.2 14.1 0 5.9-1.4 10.7-4.2 14.3s-6.4 5.3-10.8 5.3c-2.3 0-4.4-.4-6.2-1.3-1.9-.9-3.4-2.4-4.5-4.4zm16-27.5c0-3.7-.7-6.5-2.1-8.4-1.4-2-3.4-3-6-3-2.5 0-4.5 1-5.9 3-1.3 1.8-2 4.6-2 8.4 0 3.6.7 6.2 2.1 8 1.4 2 3.4 3 6 3 2.4 0 4.4-1 5.8-3s2.1-4.7 2.1-8z"/></defs></svg>