<?xml version="1.0" encoding="UTF-8" standalone="no"?>
<!-- Created with Inkscape (http://www.inkscape.org/) -->

<svg
   xmlns:dc="http://purl.org/dc/elements/1.1/"
   xmlns:cc="http://creativecommons.org/ns#"
   xmlns:rdf="http://www.w3.org/1999/02/22-rdf-syntax-ns#"
   xmlns:svg="http://www.w3.org/2000/svg"
   xmlns="http://www.w3.org/2000/svg"
   xmlns:sodipodi="http://sodipodi.sourceforge.net/DTD/sodipodi-0.dtd"
   xmlns:inkscape="http://www.inkscape.org/namespaces/inkscape"
   width="120"
   height="60"
   id="svg2"
   version="1.1"
   inkscape:version="0.92.3 (2405546, 2018-03-11)"
   sodipodi:docname="slashdot-ar21.svg">
  <defs
     id="defs4" />
  <sodipodi:namedview
     id="base"
     pagecolor="#ffffff"
     bordercolor="#666666"
     borderopacity="1.0"
     inkscape:pageopacity="0.0"
     inkscape:pageshadow="2"
     inkscape:zoom="3.4742663"
     inkscape:cx="86.467227"
     inkscape:cy="42.109907"
     inkscape:document-units="px"
     inkscape:current-layer="svg2"
     showgrid="false"
     inkscape:window-width="1920"
     inkscape:window-height="1001"
     inkscape:window-x="-9"
     inkscape:window-y="-9"
     inkscape:window-maximized="1"
     fit-margin-top="0"
     fit-margin-left="0"
     fit-margin-right="0"
     fit-margin-bottom="0" />
  <metadata
     id="metadata7">
    <rdf:RDF>
      <cc:Work
         rdf:about="">
        <dc:format>image/svg+xml</dc:format>
        <dc:type
           rdf:resource="http://purl.org/dc/dcmitype/StillImage" />
        <dc:title></dc:title>
      </cc:Work>
    </rdf:RDF>
  </metadata>
  <g
     id="g816"
     transform="matrix(0.27967002,0,0,0.27967002,-12.910091,35.935963)">
    <path
       style="color:#000000;display:inline;overflow:visible;visibility:visible;fill:#000000;fill-opacity:1;fill-rule:nonzero;stroke:none;stroke-width:1;marker:none;enable-background:accumulate"
       d="m 81.2508,-48.778961 c -2.81945,0.002 -5.38305,0.31165 -8.0625,0.90625 -5.3589,1.1892 -6.5181,2.11184 -8.3125,3.90625 -4.61207,4.6121 -3.73038,10.45584 2.96875,25.59375 3.025,6.83554 5.5,11.4206498 5.5,14.3437508 0,4.94005996 -5.64658,5.46875 -8.8125,5.46875 v 5.6875 c 0,0 2.15914,0.70529 5.3125,0.96875 9.74781,0.8144 16.16063,0.87616 21.53125,-0.71875 3.53377,-1.04942 6.64708,-2.86583 8.65625,-4.875 5.22757,-5.22757 4.73248,-9.698401 -2.75,-24.6250008 -3.3312,-6.64533 -6.57495,-12.55996 -6.40625,-13.6875 0.30178,-2.01695 0.30434,-4.24302 7.46875,-4.78125 v -5.34375 c 0,0 -1.47257,-0.94091 -7.53125,-1.9375 -3.6561,-0.6014 -6.74305,-0.90795 -9.5625,-0.90625 z m 378.09375,0.78125 -8.25,0.0312 c -4.08805,8.89175 -12.704,13.55623 -23.90625,15.03125 v 8.84375 h 4.15625 V 8.0022398 h 14 14 V -24.091511 h 2.875 v -8.84375 h -2.875 v -15.0625 z m -353,0.3125 V 8.0022898 h 28 V -47.685211 Z m 136,0 V 8.0022898 h 28.1875 V -24.716461 c 0,0 -0.35968,-2.59375 3.0625,-2.59375 3.42218,0 2.75,2.59375 2.75,2.59375 V 8.0022898 h 26 v -17.375001 c 0,-16.4196298 0.35118,-18.0034598 -1.8125,-21.2187498 -3.37017,-5.00816 -8.92101,-5.87664 -15.84375,-5.1875 -6.92274,0.68914 -14.15625,2.4375 -14.15625,2.4375 v -14.34375 z m 93,0 v 12.375 l -7.03125,0.59375 c -14.51708,1.21706 -21.63906,7.06267 -22.6875,18.625 -1.13034,12.4656808 2.54757,18.6983008 13.0625,22.0312508 5.18001,1.64193 9.19709,1.95271 25.40625,2 l 19.25,0.0625 v -28.0000008 -27.6875 z m -163.46875,12.90625 c -3.46421,-0.0373 -7.14029,0.22402 -11.09375,0.78125 -7.82845,1.10341 -12.6875,3.0625 -12.6875,3.0625 v 4.09375 c 0,0 10.84735,-0.616 13.59375,-0.65625 5.06549,-0.0512 6.75,0.45098 6.75,6.5625 0,0 -3.59491,-0.43316 -9,0.0312 -8.93968,0.76825 -16.36397,3.65692 -18.1875,7.0625 -1.78346,3.33076 -1.32204,12.4389108 0.8125,16.0937508 2.89943,4.96451 6.27858,5.6875 31.53125,5.6875 h 22.75 v -17.281251 c 0,-19.8022798 0.22407,-19.2645098 -9.03125,-22.7812498 -4.53264,-1.72227 -9.66382,-2.59401 -15.4375,-2.65625 z m 221.53125,0.375 c -4.04405,0.0815 -7.92276,0.65238 -10.40625,1.71875 -12.91112,5.54382 -18.73577,17.45249 -13.78125,28.1875008 2.18456,4.73328996 5.08908,7.49742 10.90625,10.5 7.51308,3.87795 19.97093,4.2083702 28.21875,0.75 8.2887,-3.47551 13.96875,-11.28041 13.96875,-19.2500008 0,-8.28675 -5.52021,-15.59731 -14.96875,-19.84375 -3.24952,-1.46043 -8.73801,-2.16728 -13.9375,-2.0625 z m -175.59375,0.875 c -2.81945,0.001 -5.38305,0.2493 -8.0625,0.6875 -5.3589,0.87643 -6.5181,1.55255 -8.3125,2.875 -4.61207,3.39903 -3.73038,7.71866 2.96875,18.875 3.025,5.0376598 5.5,8.4082408 5.5,10.56250076 0,3.64073004 -5.64658,4.03125004 -8.8125,4.03125004 v 4.1875 c 0,0 2.15914,0.52459 5.3125,0.71875 9.74781,0.6002 16.16063,0.64417 21.53125,-0.53125 3.53377,-0.7734 6.64708,-2.11302 8.65625,-3.59375 5.22757,-3.85262004 4.73248,-7.15562 -2.75,-18.1562508 -3.3312,-4.89748 -6.57495,-9.26277 -6.40625,-10.09375 0.30178,-1.48644 0.30434,-3.10334 7.46875,-3.5 v -3.9375 c 0,0 -1.47257,-0.70303 -7.53125,-1.4375 -3.6561,-0.44321 -6.74305,-0.68876 -9.5625,-0.6875 z m 177.0625,4.8125 c 2.10004,0 3.8125,1.68121 3.8125,3.78125 v 24.87500076 c 0,2.10004004 -1.71246,3.81250004 -3.8125,3.81250004 -2.10004,0 -3.78125,-1.71246 -3.78125,-3.81250004 V -24.935211 c 0,-2.10004 1.68121,-3.78125 3.78125,-3.78125 z m -59.90625,4.21875 V 0.78353976 c -6.73398,0 -6.85283,-2.55285996 -6.625,-12.93750076 0.22783,-10.38464 -0.0111,-12.34375 6.625,-12.34375 z m -166.625,11.25 V 0.93978976 c -4.44164,0 -5.15625,-0.93264 -5.15625,-7.09375096 0,-6.1611098 1.0404,-7.0937498 5.15625,-7.0937498 z"
       id="path3834"
       inkscape:connector-curvature="0" />
    <path
       inkscape:connector-curvature="0"
       id="path3808"
       d="m 78.43669,-51.593071 c -2.81945,0.002 -5.38305,0.31165 -8.0625,0.90625 -5.3589,1.1892 -6.5181,2.11184 -8.3125,3.90625 -4.61207,4.6121 -3.73038,10.45584 2.96875,25.59375 3.025,6.83554 5.5,11.4206498 5.5,14.3437498 0,4.940061 -5.64658,5.468751 -8.8125,5.468751 v 5.6875 c 0,0 2.15914,0.70529 5.3125,0.96875 9.74781,0.8144 16.16063,0.87616 21.53125,-0.71875 3.53377,-1.04942 6.64708,-2.86583 8.65625,-4.87500004 5.22757,-5.22757096 4.73248,-9.69840076 -2.75,-24.62500076 -3.3312,-6.64533 -6.57495,-12.55996 -6.40625,-13.6875 0.30178,-2.01695 0.30434,-4.24302 7.46875,-4.78125 v -5.34375 c 0,0 -1.47257,-0.94091 -7.53125,-1.9375 -3.6561,-0.6014 -6.74305,-0.90795 -9.5625,-0.90625 z m 378.09375,0.78125 -8.25,0.0312 c -4.08805,8.89175 -12.704,13.55623 -23.90625,15.03125 v 8.84375 h 4.15625 V 5.1881298 h 14 14 V -26.905621 h 2.875 v -8.84375 h -2.875 v -15.0625 z m -353,0.3125 V 5.1881798 h 28 V -50.499321 Z m 136,0 V 5.1881798 h 28.1875 V -27.530571 c 0,0 -0.35968,-2.59375 3.0625,-2.59375 3.42218,0 2.75,2.59375 2.75,2.59375 V 5.1881798 h 26 V -12.186821 c 0,-16.41963 0.35118,-18.00346 -1.8125,-21.21875 -3.37017,-5.00816 -8.92101,-5.87664 -15.84375,-5.1875 -6.92274,0.68914 -14.15625,2.4375 -14.15625,2.4375 v -14.34375 z m 93,0 v 12.375 l -7.03125,0.59375 c -14.51708,1.21706 -21.63906,7.06267 -22.6875,18.625 -1.13034,12.4656798 2.54757,18.69830076 13.0625,22.0312508 5.18001,1.64193 9.19709,1.95271 25.40625,2 l 19.25,0.0625 v -28.0000008 -27.6875 z m -163.46875,12.90625 c -3.46421,-0.0373 -7.14029,0.22402 -11.09375,0.78125 -7.82845,1.10341 -12.6875,3.0625 -12.6875,3.0625 v 4.09375 c 0,0 10.84735,-0.616 13.59375,-0.65625 5.06549,-0.0512 6.75,0.45098 6.75,6.5625 0,0 -3.59491,-0.43316 -9,0.0312 -8.93968,0.76825 -16.36397,3.65692 -18.1875,7.0625 -1.78346,3.33076 -1.32204,12.4389108 0.8125,16.09375076 2.89943,4.96451004 6.27858,5.68750004 31.53125,5.68750004 h 22.75 V -12.155621 c 0,-19.80228 0.22407,-19.26451 -9.03125,-22.78125 -4.53264,-1.72227 -9.66382,-2.59401 -15.4375,-2.65625 z m 221.53125,0.375 c -4.04405,0.0815 -7.92276,0.65238 -10.40625,1.71875 -12.91112,5.54382 -18.73577,17.45249 -13.78125,28.1874998 2.18456,4.733291 5.08908,7.49742096 10.90625,10.500001 7.51308,3.87795 19.97093,4.20837 28.21875,0.75 8.2887,-3.47551004 13.96875,-11.280411 13.96875,-19.2500008 0,-8.28675 -5.52021,-15.59731 -14.96875,-19.84375 -3.24952,-1.46043 -8.73801,-2.16728 -13.9375,-2.0625 z m -175.59375,0.875 c -2.81945,0.001 -5.38305,0.2493 -8.0625,0.6875 -5.3589,0.87643 -6.5181,1.55255 -8.3125,2.875 -4.61207,3.39903 -3.73038,7.71866 2.96875,18.875 3.025,5.0376598 5.5,8.4082398 5.5,10.5625008 0,3.64072996 -5.64658,4.03124996 -8.8125,4.03124996 V 4.8756798 c 0,0 2.15914,0.52459 5.3125,0.71875 9.74781,0.6002 16.16063,0.64417 21.53125,-0.53125 3.53377,-0.7734 6.64708,-2.11302 8.65625,-3.59375 5.22757,-3.85262 4.73248,-7.155621 -2.75,-18.1562508 -3.3312,-4.89748 -6.57495,-9.26277 -6.40625,-10.09375 0.30178,-1.48644 0.30434,-3.10334 7.46875,-3.5 v -3.9375 c 0,0 -1.47257,-0.70303 -7.53125,-1.4375 -3.6561,-0.44321 -6.74305,-0.68876 -9.5625,-0.6875 z m 177.0625,4.8125 c 2.10004,0 3.8125,1.68121 3.8125,3.78125 v 24.8750008 c 0,2.10003996 -1.71246,3.81249996 -3.8125,3.81249996 -2.10004,0 -3.78125,-1.71246 -3.78125,-3.81249996 V -27.749321 c 0,-2.10004 1.68121,-3.78125 3.78125,-3.78125 z m -59.90625,4.21875 v 25.2812508 c -6.73398,0 -6.85283,-2.55286 -6.625,-12.9375008 0.22783,-10.38464 -0.0111,-12.34375 6.625,-12.34375 z m -166.625,11.25 v 14.1875008 c -4.44164,0 -5.15625,-0.93264 -5.15625,-7.093751 0,-6.1611098 1.0404,-7.0937498 5.15625,-7.0937498 z"
       style="color:#000000;display:inline;overflow:visible;visibility:visible;fill:#026664;fill-opacity:1;fill-rule:nonzero;stroke:none;stroke-width:1;marker:none;enable-background:accumulate" />
  </g>
</svg>
