<svg xmlns="http://www.w3.org/2000/svg" height="60" width="120"><defs><clipPath id="A"><path d="M0 630h810V0H0z"/></clipPath></defs><path d="M32.242 24.132H18.9V18.2h19.312l13.164-4.315-22.1 22.14H42.66v5.942H23.347l-13.164 4.168zM3.1 36.016V18.2h13.2v5.942H9.04v11.884h8.913l-5.942 5.942H3.1v-5.942zm49.254-11.884H43.44l5.942-5.942h8.913v23.767h-13.2v-5.942h7.268z" fill="#f7a41d"/><g clip-path="url(#A)" transform="matrix(.385696 0 0 -.385696 -89.206984 152.514137)" fill="#737475"><path d="M393.406 295.78l29.578 35.8h-28.647v7.806h40.106v-6.517l-29.578-35.8h29.578v-7.807h-41.037zm63.3 43.615h8.737V289.26h-8.737zm56.73-50.993c-3.915 0-7.473.657-10.67 1.97s-5.933 3.126-8.2 5.442-4.023 5.037-5.264 8.165-1.862 6.528-1.862 10.206v.143a26.29 26.29 0 0 0 1.912 9.955c1.274 3.152 3.065 5.9 5.372 8.272s5.045 4.237 8.222 5.622 6.647 2.078 10.42 2.078c2.195 0 4.2-.156 5.98-.466s3.45-.752 4.978-1.325 2.97-1.278 4.333-2.113 2.685-1.803 3.974-2.9l-5.586-6.66c-.956.8-1.933 1.55-2.936 2.22a18.37 18.37 0 0 1-3.151 1.684 19.54 19.54 0 0 1-3.618 1.074c-1.313.26-2.757.393-4.333.393-2.3 0-4.428-.478-6.4-1.435s-3.7-2.237-5.157-3.84-2.603-3.48-3.438-5.633-1.253-4.425-1.253-6.817v-.143c0-2.584.404-4.977 1.214-7.177s1.965-4.092 3.466-5.67 3.285-2.823 5.36-3.732 4.392-1.364 6.965-1.364c2.38 0 4.607.35 6.68 1.045s3.87 1.62 5.394 2.772v9.433h-12.82v7.664h21.343V296.2a37.25 37.25 0 0 0-4.118-3.008c-1.504-.956-3.128-1.8-4.87-2.507s-3.616-1.278-5.622-1.684-4.107-.608-6.303-.608"/></g></svg>