<?xml version="1.0" encoding="UTF-8" standalone="no"?>
<svg xmlns:dc="http://purl.org/dc/elements/1.1/" xmlns:cc="http://creativecommons.org/ns#" xmlns:rdf="http://www.w3.org/1999/02/22-rdf-syntax-ns#" xmlns:svg="http://www.w3.org/2000/svg" xmlns="http://www.w3.org/2000/svg" xmlns:sodipodi="http://sodipodi.sourceforge.net/DTD/sodipodi-0.dtd" xmlns:inkscape="http://www.inkscape.org/namespaces/inkscape" id="Express" viewBox="0 0 32 32" version="1.1" sodipodi:docname="expressjs-icon.svg" width="64" height="64" inkscape:version="0.92.2 (5c3e80d, 2017-08-06)">
  <metadata id="metadata14">
    <rdf:RDF>
      <cc:Work rdf:about="">
        <dc:format>image/svg+xml</dc:format>
        <dc:type rdf:resource="http://purl.org/dc/dcmitype/StillImage"/>
        <dc:title>Artboard 16</dc:title>
      </cc:Work>
    </rdf:RDF>
  </metadata>
  <defs id="defs12"/>
  <sodipodi:namedview pagecolor="#ffffff" bordercolor="#666666" borderopacity="1" objecttolerance="10" gridtolerance="10" guidetolerance="10" inkscape:pageopacity="0" inkscape:pageshadow="2" inkscape:window-width="1920" inkscape:window-height="1001" id="namedview10" showgrid="false" inkscape:zoom="1.84375" inkscape:cx="-2.1694915" inkscape:cy="64" inkscape:window-x="-9" inkscape:window-y="-9" inkscape:window-maximized="1" inkscape:current-layer="Express"/>
  <title id="title2">Artboard 16</title>
  <g id="original" transform="matrix(0.25524448,0,0,0.25524448,-0.33181805,-0.33170359)">
    <path d="m 126.67,98.44 c -4.56,1.16 -7.38,0.05 -9.91,-3.75 -5.68,-8.51 -11.95,-16.63 -18,-24.9 -0.78,-1.07 -1.59,-2.12 -2.6,-3.45 C 89,76 81.85,85.2 75.14,94.77 c -2.4,3.42 -4.92,4.91 -9.4,3.7 L 92.66,62.34 67.6,29.71 c 4.31,-0.84 7.29,-0.41 9.93,3.45 5.83,8.52 12.26,16.63 18.67,25.21 6.45,-8.55 12.8,-16.67 18.8,-25.11 2.41,-3.42 5,-4.72 9.33,-3.46 -3.28,4.35 -6.49,8.63 -9.72,12.88 -4.36,5.73 -8.64,11.53 -13.16,17.14 -1.61,2 -1.35,3.3 0.09,5.19 8.36,10.99 16.62,22.09 25.13,33.43 z" id="path4" inkscape:connector-curvature="0"/>
    <path d="m 1.33,61.74 c 0.72,-3.61 1.2,-7.29 2.2,-10.83 6,-21.43 30.6,-30.34 47.5,-17.06 9.9,7.79 12.36,18.77 11.87,31.15 H 7.1 c -0.84,22.21 15.15,35.62 35.53,28.78 7.15,-2.4 11.36,-8 13.47,-15 1.07,-3.51 2.84,-4.06 6.14,-3.06 -1.69,8.76 -5.52,16.08 -13.52,20.66 -12,6.86 -29.13,4.64 -38.14,-4.89 C 5.26,85.89 3,78.92 2,71.39 1.85,70.19 1.54,69.01 1.3,67.82 Q 1.33,64.78 1.33,61.74 Z M 7.2,60.25 H 57.63 C 57.3,44.19 47.3,32.78 33.63,32.68 18.63,32.56 7.85,43.7 7.2,60.25 Z" id="path6" inkscape:connector-curvature="0"/>
  </g>
</svg>
