<?xml version="1.0" encoding="UTF-8" standalone="no"?>
<!-- Generator: Adobe Illustrator 22.1.0, SVG Export Plug-In . SVG Version: 6.00 Build 0)  -->

<svg
   xmlns:dc="http://purl.org/dc/elements/1.1/"
   xmlns:cc="http://creativecommons.org/ns#"
   xmlns:rdf="http://www.w3.org/1999/02/22-rdf-syntax-ns#"
   xmlns:svg="http://www.w3.org/2000/svg"
   xmlns="http://www.w3.org/2000/svg"
   xmlns:sodipodi="http://sodipodi.sourceforge.net/DTD/sodipodi-0.dtd"
   xmlns:inkscape="http://www.inkscape.org/namespaces/inkscape"
   version="1.1"
   id="Capa_1"
   x="0px"
   y="0px"
   viewBox="0 0 64 63.999999"
   xml:space="preserve"
   sodipodi:docname="gridgain-icon.svg"
   width="64"
   height="64"
   inkscape:version="0.92.3 (2405546, 2018-03-11)"><metadata
   id="metadata51"><rdf:RDF><cc:Work
       rdf:about=""><dc:format>image/svg+xml</dc:format><dc:type
         rdf:resource="http://purl.org/dc/dcmitype/StillImage" /><dc:title>gridgain-logo</dc:title></cc:Work></rdf:RDF></metadata><defs
   id="defs49">
	
	
	
	
	
	
	
	
	
	
	

		
		
		
		
		
		
		
		
	</defs><sodipodi:namedview
   pagecolor="#ffffff"
   bordercolor="#666666"
   borderopacity="1"
   objecttolerance="10"
   gridtolerance="10"
   guidetolerance="10"
   inkscape:pageopacity="0"
   inkscape:pageshadow="2"
   inkscape:window-width="1920"
   inkscape:window-height="1001"
   id="namedview47"
   showgrid="false"
   inkscape:zoom="1.6227861"
   inkscape:cx="29.270648"
   inkscape:cy="27.35"
   inkscape:window-x="-9"
   inkscape:window-y="-9"
   inkscape:window-maximized="1"
   inkscape:current-layer="Capa_1" />
<style
   type="text/css"
   id="style2">
	.st0{fill:#EC1C24;}
</style>
<title
   id="title4">gridgain-logo</title>
<g
   id="g979"
   transform="matrix(2.3782929,0,0,2.3782929,-203.55795,-34.169557)"><path
     style="fill:#ec1c24;stroke-width:0.50773692"
     inkscape:connector-curvature="0"
     id="path26"
     d="m 93.358317,27.796904 c -0.355416,0.203095 -0.660058,0.355416 -1.015474,0.558511 -0.304642,0.203095 -0.660058,0.355416 -0.9647,0.558511 -0.304642,0.203094 -0.609284,0.355416 -0.913927,0.55851 -0.304642,0.152321 -0.55851,0.355416 -0.863152,0.507737 -0.101548,0.253869 -0.152321,0.558511 -0.253869,0.812379 -0.101547,0.304642 -0.203095,0.558511 -0.304642,0.863153 -0.101547,0.304642 -0.203095,0.609284 -0.304642,0.913927 -0.101548,0.304642 -0.253869,0.660058 -0.355416,1.015473 0.304642,-0.152321 0.609284,-0.304642 0.913926,-0.456963 0.304643,-0.152321 0.609285,-0.304642 0.913927,-0.456963 0.304642,-0.152321 0.660058,-0.304642 0.9647,-0.456963 0.355416,-0.152321 0.710832,-0.304642 1.066248,-0.456963 0.101547,-0.355416 0.203095,-0.710832 0.304642,-1.066248 0.101547,-0.355416 0.203095,-0.710832 0.304642,-1.015474 0.101547,-0.304642 0.152321,-0.660058 0.253869,-0.9647 0.101547,-0.304642 0.152321,-0.609284 0.253868,-0.913927"
     class="st0" /><path
     style="fill:#ec1c24;stroke-width:0.50773692"
     inkscape:connector-curvature="0"
     id="path28"
     d="m 93.967601,23.430367 c -0.304642,0.203094 -0.609284,0.406189 -0.913926,0.609284 -0.304642,0.203095 -0.558511,0.40619 -0.863153,0.609284 -0.253868,0.203095 -0.558511,0.40619 -0.812379,0.609285 -0.253869,0.203094 -0.507737,0.406189 -0.812379,0.609284 -0.05077,0.203095 -0.101548,0.40619 -0.101548,0.609284 -0.05077,0.203095 -0.101547,0.40619 -0.152321,0.660058 -0.05077,0.203095 -0.101547,0.456964 -0.152321,0.710832 -0.05077,0.253869 -0.101547,0.507737 -0.203095,0.761605 0.253869,-0.203094 0.558511,-0.355415 0.81238,-0.55851 0.304642,-0.203095 0.55851,-0.355416 0.863152,-0.558511 0.304643,-0.203095 0.609285,-0.406189 0.913927,-0.55851 0.304642,-0.203095 0.660058,-0.40619 0.9647,-0.609285 0.05077,-0.253868 0.101547,-0.55851 0.152321,-0.812379 0.05077,-0.253868 0.101548,-0.507737 0.101548,-0.710832 0.05077,-0.253868 0.05077,-0.456963 0.101547,-0.660058 0.05077,-0.304642 0.05077,-0.507737 0.101547,-0.710831"
     class="st0" /><path
     style="fill:#ec1c24;stroke-width:0.50773692"
     inkscape:connector-curvature="0"
     id="path30"
     d="m 91.682785,33.686653 c -0.355416,0.152321 -0.710832,0.253868 -1.066247,0.406189 -0.355416,0.152322 -0.660059,0.253869 -1.015474,0.40619 -0.304643,0.152321 -0.660058,0.253868 -0.964701,0.40619 -0.304642,0.152321 -0.609284,0.253868 -0.913926,0.406189 -0.152321,0.40619 -0.304642,0.812379 -0.456963,1.269342 -0.152321,0.456964 -0.355416,0.913927 -0.507737,1.37089 -0.203095,0.456963 -0.355416,0.9647 -0.558511,1.421664 -0.203095,0.507737 -0.406189,1.015473 -0.609284,1.52321 0.304642,-0.101547 0.609284,-0.203094 0.913926,-0.253868 0.304642,-0.101547 0.660058,-0.152321 0.9647,-0.253869 0.355416,-0.101547 0.660059,-0.152321 1.015474,-0.203094 0.355416,-0.05077 0.710832,-0.152321 1.117022,-0.203095 0.203094,-0.609284 0.406189,-1.218569 0.609284,-1.777079 0.203095,-0.558511 0.355416,-1.117022 0.507737,-1.624759 0.152321,-0.507736 0.304642,-1.015473 0.456963,-1.52321 0.253869,-0.40619 0.40619,-0.913927 0.507737,-1.37089"
     class="st0" /><path
     style="fill:#ec1c24;stroke-width:0.50773692"
     inkscape:connector-curvature="0"
     id="path32"
     d="m 99.755802,19.62234 c -0.406189,0.253868 -0.812379,0.507737 -1.218568,0.761605 -0.40619,0.253869 -0.761606,0.507737 -1.117021,0.710832 -0.355416,0.253868 -0.710832,0.456963 -1.066248,0.710831 -0.355416,0.203095 -0.660058,0.456964 -1.015474,0.660059 0,0.203094 -0.05077,0.406189 -0.05077,0.660058 0,0.203094 -0.05077,0.456963 -0.05077,0.710831 -0.05077,0.253869 -0.05077,0.507737 -0.101548,0.761606 -0.05077,0.253868 -0.05077,0.507737 -0.101547,0.812379 0.355416,-0.203095 0.710832,-0.40619 1.117021,-0.609285 0.40619,-0.203094 0.761606,-0.456963 1.167795,-0.660058 0.40619,-0.203094 0.812379,-0.456963 1.269342,-0.660058 0.456964,-0.253868 0.863153,-0.456963 1.320117,-0.710831 0,-0.304642 0,-0.609285 0,-0.863153 0,-0.253869 0,-0.558511 0,-0.812379 0,-0.253869 0,-0.507737 -0.05077,-0.710832 -0.05077,-0.304642 -0.101548,-0.558511 -0.101548,-0.761605"
     class="st0" /><path
     style="fill:#ec1c24;stroke-width:0.50773692"
     inkscape:connector-curvature="0"
     id="path34"
     d="m 99.349613,31.351063 c -0.609284,0.152321 -1.167795,0.304642 -1.675532,0.456963 -0.507737,0.152321 -1.066248,0.304642 -1.523211,0.456963 -0.507737,0.152322 -0.9647,0.304643 -1.421663,0.456964 -0.456964,0.152321 -0.863153,0.304642 -1.320116,0.456963 -0.152321,0.507737 -0.253869,0.9647 -0.40619,1.472437 -0.152321,0.507737 -0.304642,1.066248 -0.456963,1.624758 -0.152321,0.558511 -0.355416,1.167795 -0.507737,1.726306 -0.203095,0.609284 -0.355416,1.218569 -0.558511,1.878627 0.456964,-0.05077 0.913927,-0.101548 1.37089,-0.152322 0.507737,-0.05077 1.015474,-0.05077 1.523211,-0.101547 0.558511,0 1.117021,-0.05077 1.675532,-0.05077 0.609284,0 1.218568,0 1.878626,0 0.152322,-0.812379 0.304643,-1.573984 0.456964,-2.33559 0.152321,-0.710831 0.253868,-1.421663 0.406189,-2.132495 0.101548,-0.660058 0.253869,-1.320116 0.355416,-1.9294 0.05077,-0.660058 0.101547,-1.269342 0.203095,-1.827853"
     class="st0" /><path
     style="fill:#ec1c24;stroke-width:0.50773692"
     inkscape:connector-curvature="0"
     id="path36"
     d="m 109.96131,19.723887 c -0.81237,0.304642 -1.57398,0.609284 -2.28481,0.913927 -0.71083,0.304642 -1.42166,0.55851 -2.08172,0.863152 -0.66006,0.253869 -1.26935,0.558511 -1.87863,0.812379 -0.60928,0.253869 -1.16779,0.507737 -1.67553,0.761606 0,0.406189 0,0.761605 0,1.167795 0,0.406189 0,0.863153 -0.0508,1.320116 0,0.456963 -0.0508,0.9647 -0.0508,1.421663 -0.0508,0.507737 -0.0508,1.066248 -0.10155,1.573985 0.60929,-0.203095 1.26935,-0.355416 1.98018,-0.558511 0.71083,-0.203095 1.42166,-0.355416 2.18327,-0.55851 0.81238,-0.203095 1.62476,-0.40619 2.48791,-0.609285 0.91392,-0.203095 1.82785,-0.406189 2.84332,-0.660058 -0.10154,-0.660058 -0.20309,-1.320116 -0.30464,-1.9294 -0.10154,-0.609285 -0.20309,-1.167795 -0.30464,-1.726306 -0.10155,-0.507737 -0.20309,-1.015474 -0.35542,-1.523211 -0.15232,-0.355415 -0.25386,-0.812379 -0.40619,-1.269342"
     class="st0" /><path
     style="fill:#ec1c24;stroke-width:0.50773692"
     inkscape:connector-curvature="0"
     id="path38"
     d="m 108.08269,14.748065 c -0.60929,0.355416 -1.21857,0.710832 -1.82785,1.015474 -0.55852,0.304642 -1.11703,0.660058 -1.67554,0.9647 -0.50773,0.304642 -1.01547,0.609284 -1.52321,0.913927 -0.50773,0.304642 -0.9647,0.55851 -1.42166,0.863152 0.0508,0.203095 0.10155,0.456964 0.10155,0.660058 0.0508,0.253869 0.0508,0.507737 0.10154,0.761606 0.0508,0.253868 0.0508,0.55851 0.10155,0.812379 0,0.304642 0.0508,0.609284 0.0508,0.913926 0.50774,-0.253868 1.06625,-0.507737 1.62476,-0.812379 0.55851,-0.253868 1.1678,-0.55851 1.77708,-0.863152 0.60929,-0.304643 1.26934,-0.609285 1.9294,-0.913927 0.71083,-0.304642 1.42167,-0.660058 2.1325,-0.9647 -0.10155,-0.355416 -0.25387,-0.660058 -0.35542,-0.9647 -0.10155,-0.304643 -0.25387,-0.609285 -0.35541,-0.863153 -0.10155,-0.253869 -0.25387,-0.558511 -0.35542,-0.761606 -0.10155,-0.304642 -0.20309,-0.55851 -0.30464,-0.761605"
     class="st0" /><path
     style="fill:#ec1c24;stroke-width:0.50773692"
     inkscape:connector-curvature="0"
     id="path40"
     d="m 111.68762,29.015473 c -1.06625,0.152321 -2.08172,0.304642 -2.99565,0.456963 -0.91392,0.152321 -1.77708,0.304642 -2.64023,0.456964 -0.81238,0.152321 -1.57398,0.304642 -2.33559,0.456963 -0.71083,0.152321 -1.37089,0.304642 -2.03095,0.406189 -0.0508,0.609285 -0.15232,1.218569 -0.20309,1.878627 -0.10155,0.660058 -0.15232,1.37089 -0.25387,2.081721 -0.10155,0.761606 -0.2031,1.523211 -0.30464,2.284817 -0.10155,0.812379 -0.25387,1.675532 -0.40619,2.538684 0.7616,0.05077 1.52321,0.101548 2.33559,0.152321 0.86315,0.05077 1.77708,0.152322 2.691,0.253869 1.01548,0.101547 2.08173,0.253868 3.19875,0.355416 1.16779,0.152321 2.43713,0.304642 3.75725,0.507737 -0.0508,-1.269343 -0.10155,-2.437138 -0.15232,-3.604933 -0.0508,-1.117021 -0.10155,-2.132495 -0.2031,-3.147969 -0.0508,-0.9647 -0.15232,-1.878626 -0.25386,-2.741779 -0.0508,-0.710832 -0.10155,-1.523211 -0.2031,-2.33559"
     class="st0" /></g>
</svg>