<svg xmlns="http://www.w3.org/2000/svg" width="120" height="60"><path d="M63.372 15.947l-1.584.896a2.01 2.01 0 0 0-1.794-.985c-1.2 0-2.075.885-2.075 2.163 0 1.387.96 2.163 2.08 2.163.737.014 1.427-.357 1.82-.98l1.477 1.033c-.685 1.02-1.844 1.653-3.283 1.653-2.328 0-3.97-1.6-3.97-3.87s1.644-3.87 3.97-3.87c1.45 0 2.712.666 3.358 1.795zm5.995 5.805l-.572-1.567H65.8l-.572 1.566h-1.88l2.894-7.46h2.15l2.894 7.46h-1.918zm-1.153-3.178l-.917-2.514-.915 2.516zm8.9 3.178L73.667 17.2v4.552h-1.8V14.3h1.725l3.438 4.55V14.3h1.806v7.46zm8.33 0l-.57-1.567H81.87l-.573 1.566h-1.88l2.894-7.46h2.15l2.897 7.46h-1.92zm-1.153-3.178l-.915-2.514-.92 2.514zm10.8-.553c0 2.25-1.563 3.73-3.917 3.73h-3.23V14.3h3.222c2.362 0 3.923 1.482 3.923 3.73zm-5.35 2.084h1.4c1.402 0 2.074-.88 2.074-2.084s-.672-2.083-2.074-2.083h-1.4zm11.142 1.647l-.573-1.567h-2.994l-.57 1.566h-1.88l2.894-7.46h2.15l2.894 7.46h-1.92zm-1.154-3.178l-.915-2.514-.915 2.514h1.83zM56.658 33.73v-7.462h1.8v5.8h3.8v1.653zm6.184 0v-7.462h5.754v1.605h-3.96v1.3h3.724v1.6h-3.72v1.364h3.977v1.605zm12.32 0l-.572-1.567h-2.994l-.572 1.566h-1.88l2.894-7.46h2.15l2.894 7.462zm-1.153-3.177l-.915-2.517-.915 2.517zm9.737-1.898c0 1.178-.754 2.015-2.107 2.228l2.166 2.847h-2.15l-1.987-2.793h-.262v2.793h-1.8v-7.462H80.9c1.875 0 2.856.917 2.856 2.388zm-4.338.783h1.457c.653 0 1.045-.25 1.045-.783s-.4-.772-1.045-.772h-1.457v1.556zm10.478 4.292l-3.438-4.55v4.55h-1.8v-7.462h1.725l3.438 4.55v-4.55h1.806v7.462zm2.96 0v-7.462h1.798v7.462zm8.272 0l-3.438-4.55v4.55h-1.8v-7.462h1.725l3.438 4.55v-4.55h1.806v7.462zm9.417-6.518l-1.283 1.253c-.418-.44-1.005-.677-1.6-.654-1.207 0-2.074.896-2.074 2.192 0 1.43.96 2.24 2.08 2.24 1.077 0 1.698-.46 1.9-1.35H107.7v-1.376h3.628a3.73 3.73 0 0 1 .038.56c0 2.388-1.725 3.8-3.663 3.8-2.24 0-3.998-1.54-3.998-3.865 0-2.265 1.664-3.87 4.015-3.87 1.205-.002 2.143.398 2.805 1.08zM63.372 39.904l-1.584.896a2.01 2.01 0 0 0-1.794-.985c-1.2 0-2.075.885-2.075 2.163 0 1.387.96 2.163 2.08 2.163.737.014 1.427-.358 1.82-.98l1.477 1.034c-.685 1.02-1.844 1.653-3.283 1.653-2.328 0-3.97-1.6-3.97-3.87s1.644-3.87 3.97-3.87c1.45 0 2.712.666 3.358 1.795zm8.148 2.073c0 2.233-1.65 3.87-3.978 3.87s-3.977-1.635-3.977-3.87 1.648-3.87 3.977-3.87 3.977 1.637 3.977 3.87zm-6.08 0c0 1.28.873 2.163 2.102 2.163s2.102-.885 2.102-2.163-.873-2.163-2.102-2.163-2.102.885-2.102 2.163zm14.087 0c0 2.25-1.563 3.73-3.917 3.73h-3.23v-7.46h3.23c2.355 0 3.917 1.482 3.917 3.73zM74.18 44.06h1.4c1.402 0 2.074-.88 2.074-2.083s-.672-2.084-2.074-2.084h-1.4zm6.207 1.648v-7.46h5.755v1.6h-3.96v1.3h3.723v1.593H82.19v1.364h3.977V45.7z" fill="#2c2c2c"/><path d="M28.766 10.078c-11.124 0-20.142 8.92-20.142 19.923s9.018 19.922 20.142 19.922S48.908 41.003 48.908 30c-.012-10.998-9.023-19.912-20.142-19.923z" fill="#ef0919"/><path d="M36.147 30l4.05-4.008c.48-.474.4-1.182-.07-1.65s-1.195-.543-1.668-.07l-4.052 4.008-3.906-3.86 4.055-4c.48-.474.4-1.18-.07-1.65s-1.195-.543-1.667-.07l-4.053 4-4.052-4.017c-.48-.474-1.195-.404-1.667.07s-.55 1.182-.07 1.65l4.052 4.02-3.902 3.86-4.056-4.008c-.48-.474-1.194-.405-1.667.07s-.55 1.18-.07 1.65L21.387 30l-4.06 4.008c-.48.474-.4 1.18.07 1.65s1.195.543 1.667.07l4.065-4.008 3.906 3.862L22.98 39.6c-.48.474-.4 1.182.07 1.65s1.195.543 1.668.07l4.052-4.008L32.82 41.3c.48.474 1.195.405 1.668-.07s.55-1.18.07-1.65l-4.052-4.008 3.906-3.862 4.052 4c.48.475 1.195.405 1.667-.07s.55-1.18.07-1.65zm-7.38 3.862L24.86 30l3.906-3.863L32.672 30z" fill="#fff"/></svg>