<?xml version="1.0" encoding="UTF-8" standalone="no"?>
<!-- Created with Inkscape (http://www.inkscape.org/) -->

<svg
   xmlns:dc="http://purl.org/dc/elements/1.1/"
   xmlns:cc="http://creativecommons.org/ns#"
   xmlns:rdf="http://www.w3.org/1999/02/22-rdf-syntax-ns#"
   xmlns:svg="http://www.w3.org/2000/svg"
   xmlns="http://www.w3.org/2000/svg"
   xmlns:sodipodi="http://sodipodi.sourceforge.net/DTD/sodipodi-0.dtd"
   xmlns:inkscape="http://www.inkscape.org/namespaces/inkscape"
   width="120"
   height="60"
   viewBox="0 0 120 59.999996"
   id="svg3401"
   version="1.1"
   inkscape:version="0.91 r13725"
   sodipodi:docname="appharbor-ar21.svg">
  <defs
     id="defs3403" />
  <sodipodi:namedview
     id="base"
     pagecolor="#ffffff"
     bordercolor="#666666"
     borderopacity="1.0"
     inkscape:pageopacity="0.0"
     inkscape:pageshadow="2"
     inkscape:zoom="5.5827505"
     inkscape:cx="87.885479"
     inkscape:cy="39.334416"
     inkscape:document-units="px"
     inkscape:current-layer="layer1"
     showgrid="false"
     units="px"
     inkscape:window-width="1855"
     inkscape:window-height="1056"
     inkscape:window-x="65"
     inkscape:window-y="24"
     inkscape:window-maximized="1" />
  <metadata
     id="metadata3406">
    <rdf:RDF>
      <cc:Work
         rdf:about="">
        <dc:format>image/svg+xml</dc:format>
        <dc:type
           rdf:resource="http://purl.org/dc/dcmitype/StillImage" />
        <dc:title></dc:title>
      </cc:Work>
    </rdf:RDF>
  </metadata>
  <g
     inkscape:label="Layer 1"
     inkscape:groupmode="layer"
     id="layer1"
     transform="translate(0,-992.3622)">
    <path
       style="fill:#113c5b"
       d="m 14.7395,1040.4439 c -3.660355,-0.608 -6.3252978,-3.5466 -6.3294528,-6.9794 -0.0022,-1.8325 0.458599,-2.9849 2.0589588,-5.1489 2.070079,-2.7994 2.443398,-3.5889 1.908479,-4.0362 -0.436891,-0.3654 -0.424479,-0.3863 0.312086,-0.526 1.125981,-0.2135 1.173441,-0.8611 0.08276,-1.1292 -0.420939,-0.104 -0.370535,-0.2042 0.292212,-0.5832 0.903774,-0.5172 0.872628,-0.8285 -0.09378,-0.9374 -0.613213,-0.068 -0.612144,-0.085 0.04255,-0.6495 0.746982,-0.6432 0.605232,-1.0916 -0.345119,-1.0916 -0.500429,0 -0.53634,-0.2127 -0.08959,-0.5308 0.660256,-0.4701 0.432215,-1.0735 -0.40708,-1.0769 -0.640533,-0.012 -0.704894,-0.1246 -0.282266,-0.5342 0.595466,-0.5771 0.457949,-0.9635 -0.343011,-0.9635 -0.5395,0 -0.620137,-0.2115 -0.188394,-0.4943 0.70456,-0.4618 0.505612,-0.9332 -0.371556,-0.8807 -0.594591,0.036 -0.656381,-0.118 -0.199462,-0.4963 1.199147,-0.9929 1.267458,-1.4028 0.308215,-1.8498 -1.3504748,-0.629 -1.9348128,-1.4172 -1.053295,-1.4204 1.388939,-0.012 2.036351,-0.3945 2.990326,-1.7985 0.640388,-0.9425 0.679032,-0.8691 -0.887044,-1.6861 -1.448141,-0.7554 -2.016579,-1.2854 -2.5235368,-2.3529 -0.394796,-0.8313 -0.672256,-2.538 -0.332766,-2.0469 1.3349868,1.9313 1.5809988,2.0744 4.8151448,2.8011 3.33206,0.7487 3.761019,0.9553 5.408809,2.6042 1.243833,1.2447 2.32174,1.9169 3.711147,2.3141 0.920402,0.263 1.177679,0.563 1.088154,1.2688 -0.275382,2.1708 -1.523135,2.5958 -4.980934,1.6964 -1.665097,-0.433 -1.756321,-0.2923 -0.649718,1.0017 0.442545,0.5174 0.536701,0.6946 0.487692,0.9179 -0.04892,0.2228 -0.0079,0.3005 0.211265,0.4003 0.181314,0.082 0.272003,0.2097 0.272003,0.3811 0,0.1839 0.09029,0.2942 0.317702,0.3885 0.473671,0.1962 0.583078,0.3902 0.608048,1.0784 0.02662,0.7338 0.369825,1.6002 0.633887,1.6002 0.737772,0 3.04486,-1.5781 3.04486,-2.0827 0,-0.1353 0.245978,-0.5532 0.546619,-0.9289 0.759807,-0.9493 1.058091,-1.5905 1.227959,-2.6399 0.252048,-1.5569 0.873852,-2.2726 0.74077,-0.8524 -0.112206,1.1973 0.08627,1.609 0.438159,0.9088 0.334447,-0.6656 1.758068,-1.9448 1.758068,-1.5798 0,0.061 -0.190809,0.4918 -0.424032,0.9555 -0.850742,1.6921 -0.818785,2.2735 0.112464,2.0469 0.487941,-0.1187 1.070207,-0.031 1.137916,0.173 0.02047,0.061 -0.347056,0.3349 -0.816695,0.6077 -1.620194,0.9414 -1.991037,1.4866 -1.187539,1.7457 0.961665,0.3102 0.254371,0.8489 -0.98868,0.7532 l -0.844998,-0.066 -0.140357,0.3452 c -0.07719,0.1898 -0.201133,0.6102 -0.275421,0.934 -0.257227,1.1217 -0.619983,1.4897 -2.515666,2.5523 -1.490988,0.8357 -1.42906,0.7638 -1.039926,1.207 0.18111,0.2062 0.596982,0.5062 0.924153,0.6663 0.404544,0.1982 0.651464,0.4018 0.771807,0.6366 0.326058,0.6364 0.709255,0.6749 1.310872,0.1313 0.451814,-0.4082 0.892081,-0.4863 1.251842,-0.2221 0.200444,0.1472 0.197086,0.1568 -0.09441,0.2679 -0.603465,0.2304 -0.324816,0.4941 0.482842,0.457 0.664443,-0.031 0.733069,-0.012 1.094048,0.3056 0.634673,0.5573 0.529349,0.7305 -0.31482,0.518 -0.59807,-0.1507 -0.98729,-0.055 -1.13981,0.2796 -0.138013,0.3028 0.02674,0.5892 0.339081,0.5892 0.224505,0 1.179438,0.9933 1.179438,1.2267 0,0.228 -0.135801,0.2086 -0.761394,-0.1087 -0.29706,-0.1506 -1.019738,-0.3924 -1.605954,-0.5374 -1.418226,-0.351 -1.543101,-0.2842 -1.619659,0.8647 -0.04371,0.6558 -0.245121,0.5229 -0.729892,-0.482 -0.627657,-1.3009 -1.03144,-1.6596 -1.386734,-1.2314 -0.337274,0.4066 -0.602791,0.02 -0.481106,-0.7005 0.134308,-0.795 -0.299295,-0.5524 -0.634572,0.3549 -0.442397,1.1973 -1.691789,2.4066 -3.338272,3.2314 -0.916322,0.4591 -1.028613,0.5762 -1.028613,1.0737 0,0.4838 -0.135239,0.5647 -0.36322,0.2167 -0.320507,-0.4891 -0.790876,0.2786 -0.794893,1.2973 -0.0026,0.651 -0.141991,0.7874 -0.480231,0.4695 -0.316642,-0.2974 -0.397879,-0.2383 -0.58796,0.4284 -0.682956,2.3951 1.566717,5.1935 4.175184,5.1935 1.332734,0 2.314421,-0.7762 3.114978,-2.463 0.482008,-1.0156 0.600338,-0.6641 0.206123,0.6123 -0.855278,2.769 -3.438515,4.1513 -6.734767,3.6039 z m 3.629438,-13.2129 c 0.159832,-0.1925 -2.278038,-2.7596 -2.567783,-2.7036 -0.432831,0.083 -0.213442,0.4512 0.981772,1.6465 1.263981,1.2638 1.360884,1.3285 1.586011,1.0571 z m 0.04412,-2.4791 c 0.09795,-0.2552 -2.395726,-2.7489 -2.65099,-2.6509 -0.35104,0.1345 -0.162628,0.4333 1.024072,1.6235 1.18396,1.1872 1.491138,1.3813 1.626918,1.0274 z m 0.06136,-2.5008 c 0,-0.2057 -2.451125,-2.5672 -2.664586,-2.5672 -0.464415,0 -0.202382,0.4099 1.05643,1.6534 1.242838,1.2274 1.608156,1.4351 1.608156,0.9138 z m 0.513991,-11.7977 c 0.548331,-0.5483 -0.855057,-1.2894 -1.520426,-0.8028 -0.176281,0.1289 -0.15753,0.1694 0.247546,0.5353 0.460063,0.4157 1.009287,0.531 1.27288,0.2675 z m -1.772196,27.5379 c -0.325107,-0.1306 -0.3031,-0.2802 0.06957,-0.4729 1.746323,-0.9031 1.803301,-3.7547 0.124196,-6.2162 -0.324858,-0.4764 -0.300434,-0.5147 0.707894,-1.1109 1.140202,-0.6743 1.083653,-0.6751 1.713266,0.032 1.222937,1.3737 1.563011,2.23 1.423034,3.583 -0.318609,3.0794 -2.126566,4.9532 -4.037958,4.185 z M 6.5664481,1027.0209 c -1.0672491,-0.1747 -3.2021502,-0.8541 -3.5381455,-1.1264 -0.2190278,-0.1772 -0.197132,-0.1856 0.6763684,-0.2589 0.4964979,-0.042 1.229739,-0.1534 1.6294174,-0.2483 l 0.7266882,-0.1722 0.4700351,0.4613 c 0.4651695,0.4565 0.8071545,0.5295 0.8071545,0.172 0,-0.088 -0.4433523,-0.6316 -0.9852348,-1.208 -0.5418834,-0.5765 -1.1531288,-1.2278 -1.3583301,-1.4477 -0.4786789,-0.5127 -0.400485,-0.5722 0.4664199,-0.3547 0.4685272,0.1175 0.8717025,0.1525 1.1951133,0.1041 0.4878447,-0.073 0.4883587,-0.073 1.1651027,0.5978 0.457795,0.4537 0.73194,0.65 0.84656,0.606 0.322126,-0.1236 0.166652,-0.4443 -0.579447,-1.1955 -0.646068,-0.6504 -0.771507,-0.8406 -0.913223,-1.3848 -0.2008844,-0.7712 -0.7444976,-1.8234 -1.5115084,-2.9251 -0.7188833,-1.0329 -0.6092496,-1.0816 0.5196705,-0.2311 2.0718929,1.5609 4.0408707,3.8254 4.4471617,5.1148 0.191315,0.6072 0.749671,1.2994 1.048077,1.2994 0.309379,0 -0.261348,1.4167 -0.722464,1.7931 -0.542423,0.443 -2.8521658,0.6558 -4.3894159,0.4042 z"
       id="path4392"
       inkscape:connector-curvature="0" />
    <path
       inkscape:connector-curvature="0"
       id="path20919"
       style="font-style:normal;font-variant:normal;font-weight:bold;font-stretch:normal;font-size:17.0163517px;line-height:125%;font-family:'Bitstream Charter';-inkscape-font-specification:'Bitstream Charter, Bold';text-align:start;letter-spacing:0px;word-spacing:0px;writing-mode:lr-tb;text-anchor:start;fill:#113c5b;fill-opacity:1;stroke:none;stroke-width:1px;stroke-linecap:butt;stroke-linejoin:miter;stroke-opacity:1"
       d="m 35.058777,1016.5789 -3.845696,10.5501 -1.020981,0.1532 0,0.8338 3.658516,0 0,-0.8338 -1.07203,-0.1191 -0.170164,-0.2213 1.020981,-2.8757 3.709565,0 1.020981,2.8928 -0.119114,0.2212 -1.072031,0.1021 0,0.8338 4.594415,0 0,-0.8338 -1.003964,-0.1702 -3.913761,-10.5331 -1.786717,0 z m 0.37436,2.3312 1.514455,4.2031 -2.994878,0 1.480423,-4.2031 z" />
    <path
       inkscape:connector-curvature="0"
       id="path20921"
       style="font-style:normal;font-variant:normal;font-weight:bold;font-stretch:normal;font-size:17.0163517px;line-height:125%;font-family:'Bitstream Charter';-inkscape-font-specification:'Bitstream Charter, Bold';text-align:start;letter-spacing:0px;word-spacing:0px;writing-mode:lr-tb;text-anchor:start;fill:#113c5b;fill-opacity:1;stroke:none;stroke-width:1px;stroke-linecap:butt;stroke-linejoin:miter;stroke-opacity:1"
       d="m 41.837932,1031.8425 4.543366,0 0.01702,-0.7827 -1.07203,-0.068 -0.255245,-0.2382 0,-2.7226 c 0.56154,0.068 1.020981,0.1021 1.395341,0.1021 2.756649,0 4.509333,-1.7697 4.509333,-4.4923 0,-2.3823 -1.412357,-4.0159 -3.21609,-4.0159 -0.833802,0 -1.684619,0.3744 -2.688584,1.072 l 0,-1.0209 -0.765736,0 -2.484387,0.7997 0,0.6807 1.174128,0 0,9.5632 -0.238229,0.2552 -0.918883,0.085 0,0.7827 z m 3.233107,-4.7475 0,-5.6835 c 0.510491,-0.2042 0.952916,-0.3233 1.344292,-0.3233 1.378324,0 2.246158,1.021 2.246158,2.8417 0,2.042 -1.003965,3.2842 -2.501403,3.2842 -0.340328,0 -0.697671,-0.034 -1.089047,-0.1191 z" />
    <path
       inkscape:connector-curvature="0"
       id="path20923"
       style="font-style:normal;font-variant:normal;font-weight:bold;font-stretch:normal;font-size:17.0163517px;line-height:125%;font-family:'Bitstream Charter';-inkscape-font-specification:'Bitstream Charter, Bold';text-align:start;letter-spacing:0px;word-spacing:0px;writing-mode:lr-tb;text-anchor:start;fill:#113c5b;fill-opacity:1;stroke:none;stroke-width:1px;stroke-linecap:butt;stroke-linejoin:miter;stroke-opacity:1"
       d="m 51.908157,1031.8425 4.543366,0 0.01702,-0.7827 -1.07203,-0.068 -0.255245,-0.2382 0,-2.7226 c 0.561539,0.068 1.020981,0.1021 1.395341,0.1021 2.756649,0 4.509333,-1.7697 4.509333,-4.4923 0,-2.3823 -1.412357,-4.0159 -3.216091,-4.0159 -0.833801,0 -1.684618,0.3744 -2.688583,1.072 l 0,-1.0209 -0.765736,0 -2.484387,0.7997 0,0.6807 1.174128,0 0,9.5632 -0.238229,0.2552 -0.918883,0.085 0,0.7827 z m 3.233107,-4.7475 0,-5.6835 c 0.51049,-0.2042 0.952915,-0.3233 1.344292,-0.3233 1.378324,0 2.246158,1.021 2.246158,2.8417 0,2.042 -1.003965,3.2842 -2.501404,3.2842 -0.340327,0 -0.69767,-0.034 -1.089046,-0.1191 z" />
    <path
       inkscape:connector-curvature="0"
       id="path20925"
       style="font-style:normal;font-variant:normal;font-weight:bold;font-stretch:normal;font-size:17.0163517px;line-height:125%;font-family:'Bitstream Charter';-inkscape-font-specification:'Bitstream Charter, Bold';text-align:start;letter-spacing:0px;word-spacing:0px;writing-mode:lr-tb;text-anchor:start;fill:#113c5b;fill-opacity:1;stroke:none;stroke-width:1px;stroke-linecap:butt;stroke-linejoin:miter;stroke-opacity:1"
       d="m 62.097494,1016.698 0,0.8338 0.986949,0.085 0.272261,0.2722 0,9.0357 -0.272261,0.2723 -0.986949,0.085 0,0.8338 4.815628,0 0,-0.8338 -1.020981,-0.085 -0.272262,-0.2723 0,-4.2881 4.917726,0 0,4.2881 -0.255246,0.2723 -1.020981,0.085 0,0.8338 4.798612,0 0,-0.8338 -0.986949,-0.085 -0.272262,-0.2723 0,-9.0357 0.272262,-0.2722 0.986949,-0.085 0,-0.8338 -4.798612,0 0,0.8338 1.020981,0.085 0.255246,0.2722 0,3.7266 -4.917726,0 0,-3.7266 0.272262,-0.2722 1.020981,-0.085 0,-0.8338 -4.815628,0 z" />
    <path
       inkscape:connector-curvature="0"
       id="path20927"
       style="font-style:normal;font-variant:normal;font-weight:bold;font-stretch:normal;font-size:17.0163517px;line-height:125%;font-family:'Bitstream Charter';-inkscape-font-specification:'Bitstream Charter, Bold';text-align:start;letter-spacing:0px;word-spacing:0px;writing-mode:lr-tb;text-anchor:start;fill:#113c5b;fill-opacity:1;stroke:none;stroke-width:1px;stroke-linecap:butt;stroke-linejoin:miter;stroke-opacity:1"
       d="m 80.352051,1027.146 0.221212,0.97 3.028911,0 0,-0.7488 -0.901867,-0.085 -0.221213,-0.2383 0,-4.4072 c 0,-2.1781 -0.799768,-3.0119 -3.182057,-3.0119 -2.246159,0 -3.709565,1.004 -3.709565,1.9739 0,0.4594 0.272262,0.6296 0.782752,0.6296 l 1.565505,0 0,-1.5995 c 0.306294,-0.068 0.561539,-0.1021 0.816784,-0.1021 1.12308,0 1.616554,0.5445 1.616554,1.7697 l 0,0.5105 c -3.556418,0.7997 -5.172971,1.2932 -5.172971,3.2501 0,1.2932 0.918883,2.2121 2.229142,2.2121 0.918883,0 1.837766,-0.3914 2.926813,-1.1231 z m 0,-0.6976 c -0.663638,0.3403 -1.208161,0.5105 -1.650587,0.5105 -0.782752,0 -1.25921,-0.4935 -1.25921,-1.2763 0,-1.1231 0.901867,-1.5655 2.909797,-2.0079 l 0,2.7737 z" />
    <path
       inkscape:connector-curvature="0"
       id="path20929"
       style="font-style:normal;font-variant:normal;font-weight:bold;font-stretch:normal;font-size:17.0163517px;line-height:125%;font-family:'Bitstream Charter';-inkscape-font-specification:'Bitstream Charter, Bold';text-align:start;letter-spacing:0px;word-spacing:0px;writing-mode:lr-tb;text-anchor:start;fill:#113c5b;fill-opacity:1;stroke:none;stroke-width:1px;stroke-linecap:butt;stroke-linejoin:miter;stroke-opacity:1"
       d="m 84.281499,1028.116 4.696513,0 0,-0.7658 -1.208161,-0.068 -0.255245,-0.2553 0,-4.8837 c 0.527507,-0.3233 0.935899,-0.4764 1.208161,-0.4764 0.493474,0 0.850817,0.1871 1.106063,0.6126 l 0.88485,0 0.221213,-2.3483 c -0.37436,-0.1872 -0.74872,-0.2893 -1.12308,-0.2893 -0.119114,0 -0.255245,0.017 -0.374359,0.034 -0.697671,0.4934 -1.378325,1.072 -1.990913,1.7356 l 0.06807,-1.7356 -0.816785,0 -2.501404,0.7997 0,0.6807 1.225178,0 0,5.8706 -0.238229,0.2553 -0.901867,0.068 0,0.7658 z" />
    <path
       inkscape:connector-curvature="0"
       id="path20931"
       style="font-style:normal;font-variant:normal;font-weight:bold;font-stretch:normal;font-size:17.0163517px;line-height:125%;font-family:'Bitstream Charter';-inkscape-font-specification:'Bitstream Charter, Bold';text-align:start;letter-spacing:0px;word-spacing:0px;writing-mode:lr-tb;text-anchor:start;fill:#113c5b;fill-opacity:1;stroke:none;stroke-width:1px;stroke-linecap:butt;stroke-linejoin:miter;stroke-opacity:1"
       d="m 93.638364,1015.5409 -2.51842,0.7998 0,0.6636 1.225177,0 0,11.0947 1.888815,0.034 c 0.153148,0 0.306295,0 0.459442,0 1.310259,0 2.263175,-0.1361 2.89278,-0.4084 1.752684,-0.7828 2.688582,-2.2462 2.688582,-4.2201 0,-2.2972 -1.412356,-3.8627 -3.35222,-3.8627 -0.74872,0 -1.548488,0.2553 -2.467371,0.7658 l 0,-4.8667 -0.816785,0 z m 0.816785,11.6562 0,-6.0919 c 0.408392,-0.085 0.765736,-0.1361 1.07203,-0.1361 1.565504,0 2.467371,1.038 2.467371,2.9779 0,2.2291 -0.935899,3.2671 -2.994878,3.2671 -0.170163,0 -0.357343,0 -0.544523,-0.017 z" />
    <path
       inkscape:connector-curvature="0"
       id="path20933"
       style="font-style:normal;font-variant:normal;font-weight:bold;font-stretch:normal;font-size:17.0163517px;line-height:125%;font-family:'Bitstream Charter';-inkscape-font-specification:'Bitstream Charter, Bold';text-align:start;letter-spacing:0px;word-spacing:0px;writing-mode:lr-tb;text-anchor:start;fill:#113c5b;fill-opacity:1;stroke:none;stroke-width:1px;stroke-linecap:butt;stroke-linejoin:miter;stroke-opacity:1"
       d="m 105.80798,1019.6248 c -2.67157,0 -4.40723,1.7357 -4.40723,4.3562 0,2.5695 1.71865,4.2711 4.2711,4.2711 2.68858,0 4.40724,-1.7187 4.40724,-4.2371 0,-2.7056 -1.66761,-4.3902 -4.27111,-4.3902 z m -0.0681,0.9019 c 1.20816,0 1.99091,1.2081 1.99091,3.4373 0,2.2121 -0.74872,3.3862 -2.00793,3.3862 -1.19115,0 -1.95688,-1.2081 -1.95688,-3.4373 0,-2.1951 0.76573,-3.3862 1.9739,-3.3862 z" />
    <path
       inkscape:connector-curvature="0"
       id="path20935"
       style="font-style:normal;font-variant:normal;font-weight:bold;font-stretch:normal;font-size:17.0163517px;line-height:125%;font-family:'Bitstream Charter';-inkscape-font-specification:'Bitstream Charter, Bold';text-align:start;letter-spacing:0px;word-spacing:0px;writing-mode:lr-tb;text-anchor:start;fill:#113c5b;fill-opacity:1;stroke:none;stroke-width:1px;stroke-linecap:butt;stroke-linejoin:miter;stroke-opacity:1"
       d="m 111.06896,1028.116 4.69651,0 0,-0.7658 -1.20816,-0.068 -0.25524,-0.2553 0,-4.8837 c 0.5275,-0.3233 0.9359,-0.4764 1.20816,-0.4764 0.49347,0 0.85081,0.1871 1.10606,0.6126 l 0.88485,0 0.22121,-2.3483 c -0.37436,-0.1872 -0.74872,-0.2893 -1.12308,-0.2893 -0.11911,0 -0.25524,0.017 -0.37436,0.034 -0.69767,0.4934 -1.37832,1.072 -1.99091,1.7356 l 0.0681,-1.7356 -0.81679,0 -2.5014,0.7997 0,0.6807 1.22517,0 0,5.8706 -0.23822,0.2553 -0.90187,0.068 0,0.7658 z" />
  </g>
</svg>
