<svg xmlns="http://www.w3.org/2000/svg" xml:space="preserve" width="120" height="60"><path d="m130 244.039-100 20L130 460l100-165.961v-30z" style="fill:#9daeb1;fill-opacity:1" transform="matrix(.08696 0 0 .08696 5.555 9.973)"/><path d="M230 294.039 330 460l100-195.961-100-20-100 20z" style="fill:#425060;fill-opacity:1" transform="matrix(.08696 0 0 .08696 5.555 9.973)"/><path d="M330 460 230 264.039 130 460z" style="fill:#525f70;fill-opacity:1" transform="matrix(.08696 0 0 .08696 5.555 9.973)"/><path d="M230 264.039h200L230 0l-20 132.02z" style="fill:#9daeb1;fill-opacity:1" transform="matrix(.08696 0 0 .08696 5.555 9.973)"/><path d="M230 0 30 264.039h200z" style="fill:#b4c1c7;fill-opacity:1" transform="matrix(.08696 0 0 .08696 5.555 9.973)"/><path d="M20.338 22.499h2.609v2.609h-2.609zM15.99 27.716h2.609v2.609H15.99z" style="fill:#525f70;fill-opacity:1;stroke-width:.0869562"/><path d="M50.528 45.565q-.512 0-.975-.074-.463-.048-.78-.097l.537-2.363.438.05q.22.023.439.023 1.047 0 1.705-.56.682-.56.9-1.973l1.925-12.13.512.633h-2.51l.293-1.85 2.338-.537-.438.61.244-1.633q.267-1.705 1.12-2.8.877-1.097 2.168-1.633 1.315-.536 2.898-.536 1.316 0 2.729.366 1.437.34 2.874.998l-2.046 1.9q-.877-.438-1.73-.682-.852-.243-1.607-.243-1.17 0-1.998.609-.828.584-1.047 1.875l-.292 1.9-.463-.633h6.528l-.341 2.29h-6.577l.682-.634-1.802 11.302q-.268 1.754-.853 2.874-.584 1.145-1.364 1.778-.78.658-1.68.902-.902.268-1.827.268m8.135 0q-.536 0-.999-.074-.438-.048-.779-.097l.536-2.363q.243.025.438.05.22.023.439.023.73 0 1.242-.243.536-.244.877-.804t.487-1.486l2.411-15.126q.17-1.096.585-1.997.414-.902 1.096-1.56.706-.657 1.68-.998.975-.365 2.266-.365.926 0 1.973.195 1.047.17 2.168.56l-1.949-.244 4.482-.268-2.85 18.171-1.266-2.143 3.19 1.023-.292 1.827-5.14.146 2.729-17.124.682.78q-.78-.195-1.583-.341-.804-.17-1.51-.17-.707 0-1.243.194-.511.17-.852.487t-.536.707-.268.876l-.341 2.241-.463-.657h3.361l-.365 2.29h-3.386l.682-.634-1.778 11.302q-.292 1.754-.877 2.874-.56 1.145-1.364 1.778-.78.658-1.68.902-.902.268-1.803.268m18.122-5.773 1.973-12.374 1.218 2.12-3.118-1.024.293-1.778 5.09-.17-1.973 12.446-1.169-2.168 3.094 1.023-.293 1.779zm4.141-15.102q-.828 0-1.315-.487-.463-.487-.463-1.316 0-.998.609-1.607.633-.633 1.583-.633.828 0 1.291.487.487.462.487 1.315 0 .974-.609 1.608-.609.633-1.583.633m10.985 15.102 1.316-8.16q.146-.755.073-1.34-.073-.584-.341-.925t-.828-.341q-.512 0-1.072.316-.536.317-1.047.95-.488.61-.877 1.583-.39.95-.585 2.266l-.877 5.529h-3.361l1.948-12.252 1.194 2.12-3.093-1.024.292-1.778 4.896-.17-.901 4.14-1.072 1.851q.511-2.167 1.51-3.531t2.192-1.998q1.218-.657 2.314-.657 1.145 0 1.924.56.78.536 1.097 1.559.316.998.073 2.387l-1.12 6.99-1.438-1.071 3.19 1.023-.291 1.827zm14.859-.707q-.999.439-1.949.658-.925.22-1.73.22-1.412 0-2.313-.756-.902-.755-.902-2.411 0-.244.025-.463.024-.244.049-.536l1.144-7.283.341.439H99.17l.317-1.852 2.46-.584-.633.609.56-3.337 3.434-.585-.633 3.922-.244-.463h3.581l-.39 2.29h-3.605l.439-.439-1.12 7.088q-.025.098-.05.268v.317q0 .657.269.95.267.268.779.268.341 0 .78-.122.462-.146.95-.365z" aria-label="fflint" style="font-style:italic;font-weight:700;font-size:24.3578px;line-height:1;font-family:Bitter;-inkscape-font-specification:&quot;Bitter Bold Italic&quot;;stroke-width:1.30488"/></svg>