<?xml version="1.0" encoding="UTF-8" standalone="no"?>
<svg
   width="120"
   height="60"
   viewBox="0 0 120 60"
   fill="none"
   version="1.1"
   id="svg28"
   sodipodi:docname="wandbai-ar21.svg"
   inkscape:version="1.1.2 (0a00cf5339, 2022-02-04)"
   xmlns:inkscape="http://www.inkscape.org/namespaces/inkscape"
   xmlns:sodipodi="http://sodipodi.sourceforge.net/DTD/sodipodi-0.dtd"
   xmlns="http://www.w3.org/2000/svg"
   xmlns:svg="http://www.w3.org/2000/svg">
  <defs
     id="defs32" />
  <sodipodi:namedview
     id="namedview30"
     pagecolor="#ffffff"
     bordercolor="#666666"
     borderopacity="1.0"
     inkscape:pageshadow="2"
     inkscape:pageopacity="0.0"
     inkscape:pagecheckerboard="0"
     showgrid="false"
     fit-margin-top="0"
     fit-margin-left="0"
     fit-margin-right="0"
     fit-margin-bottom="0"
     inkscape:zoom="4.8303249"
     inkscape:cx="137.15434"
     inkscape:cy="21.42713"
     inkscape:window-width="1850"
     inkscape:window-height="1016"
     inkscape:window-x="0"
     inkscape:window-y="0"
     inkscape:window-maximized="1"
     inkscape:current-layer="svg28"
     width="120px" />
  <g
     id="g302"
     transform="matrix(1.3555767,0,0,1.3555767,-4.5214936,-12.225903)">
    <path
       d="m 6.8391168,26.990603 c 0,1.464833 1.187477,2.652279 2.6523101,2.652279 1.4648151,0 2.6523041,-1.187446 2.6523041,-2.652279 0,-1.464833 -1.187489,-2.65228 -2.6523041,-2.65228 -1.4648331,0 -2.6523101,1.187447 -2.6523101,2.65228 z"
       fill="#ffcc33"
       id="path2"
       style="stroke-width:0.610983" />
    <path
       d="m 6.8391168,40.252061 c 0,1.464833 1.187477,2.65228 2.6523101,2.65228 1.4648151,0 2.6523041,-1.187447 2.6523041,-2.65228 0,-1.464833 -1.187489,-2.65234 -2.6523041,-2.65234 -1.4648331,0 -2.6523101,1.187507 -2.6523101,2.65234 z"
       fill="#ffcc33"
       id="path4"
       style="stroke-width:0.610983" />
    <path
       d="m 7.8337552,33.621363 c 0,0.915558 0.7421862,1.65772 1.6577144,1.65772 0.9155404,0 1.6577204,-0.742162 1.6577204,-1.65772 0,-0.915559 -0.74218,-1.657721 -1.6577204,-1.657721 -0.9155282,0 -1.6577144,0.742162 -1.6577144,1.657721 z"
       fill="#ffcc33"
       id="path6"
       style="stroke-width:0.610983" />
    <path
       d="m 7.8337552,20.359629 c 0,0.915541 0.7421862,1.657721 1.6577144,1.657721 0.9155404,0 1.6577204,-0.74218 1.6577204,-1.657721 0,-0.915534 -0.74218,-1.657717 -1.6577204,-1.657717 -0.9155282,0 -1.6577144,0.742183 -1.6577144,1.657717 z"
       fill="#ffcc33"
       id="path8"
       style="stroke-width:0.610983" />
    <path
       d="m 17.017309,36.074523 c 0,1.464772 1.187507,2.652279 2.652279,2.652279 1.464833,0 2.65234,-1.187507 2.65234,-2.652279 0,-1.464833 -1.187507,-2.652341 -2.65234,-2.652341 -1.464772,0 -2.652279,1.187508 -2.652279,2.652341 z"
       fill="#ffcc33"
       id="path10"
       style="stroke-width:0.610983" />
    <path
       d="m 18.011928,42.705221 c 0,0.915498 0.742223,1.657843 1.657721,1.657843 0.915559,0 1.657721,-0.742345 1.657721,-1.657843 0,-0.915497 -0.742162,-1.657659 -1.657721,-1.657659 -0.915498,0 -1.657721,0.742162 -1.657721,1.657659 z"
       fill="#ffcc33"
       id="path12"
       style="stroke-width:0.610983" />
    <path
       d="m 18.011928,29.443824 c 0,0.915559 0.742223,1.65772 1.657721,1.65772 0.915559,0 1.657721,-0.742161 1.657721,-1.65772 0,-0.915497 -0.742162,-1.657721 -1.657721,-1.657721 -0.915498,0 -1.657721,0.742224 -1.657721,1.657721 z"
       fill="#ffcc33"
       id="path14"
       style="stroke-width:0.610983" />
    <path
       d="m 18.011928,22.813113 c 0,0.915516 0.742223,1.657733 1.657721,1.657733 0.915559,0 1.657721,-0.742217 1.657721,-1.657733 0,-0.915541 -0.742162,-1.657721 -1.657721,-1.657721 -0.915498,0 -1.657721,0.74218 -1.657721,1.657721 z"
       fill="#ffcc33"
       id="path16"
       style="stroke-width:0.610983" />
    <path
       d="m 27.195499,26.990603 c 0,1.464833 1.187447,2.652279 2.65228,2.652279 1.464894,0 2.652341,-1.187446 2.652341,-2.652279 0,-1.464833 -1.187447,-2.65228 -2.652341,-2.65228 -1.464833,0 -2.65228,1.187447 -2.65228,2.65228 z"
       fill="#ffcc33"
       id="path18"
       style="stroke-width:0.610983" />
    <path
       d="m 28.190731,20.359629 c 0,0.915541 0.742161,1.657721 1.657721,1.657721 0.915436,0 1.657719,-0.74218 1.657719,-1.657721 0,-0.915534 -0.742283,-1.657717 -1.657719,-1.657717 -0.91556,0 -1.657721,0.742183 -1.657721,1.657717 z"
       fill="#ffcc33"
       id="path20"
       style="stroke-width:0.610983" />
    <path
       d="m 28.190731,33.621363 c 0,0.915558 0.742161,1.65772 1.657721,1.65772 0.915436,0 1.657719,-0.742162 1.657719,-1.65772 0,-0.915559 -0.742283,-1.657721 -1.657719,-1.657721 -0.91556,0 -1.657721,0.742162 -1.657721,1.657721 z"
       fill="#ffcc33"
       id="path22"
       style="stroke-width:0.610983" />
    <path
       d="m 28.190731,40.252123 c 0,0.915498 0.742161,1.65772 1.657721,1.65772 0.915436,0 1.657719,-0.742222 1.657719,-1.65772 0,-0.91556 -0.742283,-1.657721 -1.657719,-1.657721 -0.91556,0 -1.657721,0.742161 -1.657721,1.657721 z"
       fill="#ffcc33"
       id="path24"
       style="stroke-width:0.610983" />
  </g>
  <g
     id="g288"
     transform="matrix(0.77440076,0,0,0.77440076,-39.576516,-1.8918769)">
    <path
       fill-rule="evenodd"
       clip-rule="evenodd"
       d="m 165.35589,23.804583 c 0,1.185575 -0.026,2.963846 -0.0538,4.31099 l -2.02076,0.377271 v 0.969966 h 6.25138 v -0.969966 l -1.85947,-0.377271 c -0.0269,-1.347144 -0.0538,-3.125415 -0.0538,-4.31099 v -3.798941 c 1.37467,-1.239432 2.47867,-1.751389 3.79959,-1.751389 1.5888,0 2.20893,0.781423 2.20893,3.260194 v 2.290136 c 0,1.239431 -0.0269,2.990728 -0.0538,4.337965 l -1.967,0.350296 v 0.969966 h 6.25046 v -0.969966 l -1.88543,-0.377271 c -0.0269,-1.347144 -0.0538,-3.071559 -0.0538,-4.31099 V 21.29893 c 0,-3.52966 -1.13182,-4.984609 -3.4492,-4.984609 -1.69726,0 -3.61049,1.023915 -4.93048,2.505745 v -5.227007 l 0.10753,-3.8259619 -0.37727,-0.2155449 -4.12217,1.2124668 v 0.942964 l 2.20893,0.269465 z M 144.88872,13.350567 c 0.99647,0 1.80478,-0.727475 1.80478,-1.724415 0,-1.050806 -0.80831,-1.7243869 -1.80478,-1.7243869 -1.02429,0 -1.80571,0.6735809 -1.80571,1.7243869 0,0.99694 0.78142,1.724415 1.80571,1.724415 z m 3.071,15.142184 -1.88543,-0.377178 c -0.0278,-1.347237 -0.0547,-3.125507 -0.0547,-4.31099 v -3.556542 l 0.0806,-3.664254 -0.40415,-0.269466 -4.14877,1.643584 v 0.942992 l 2.15582,0.242491 c 0.0538,1.077771 0.0806,1.912958 0.0806,3.394881 v 1.266314 c 0,1.185483 -0.0269,2.963753 -0.0547,4.31099 l -2.0203,0.377178 v 0.969966 h 6.25092 z m -26.06478,1.158602 h -1.1585 l -4.66129,-13.983676 -4.39145,13.983676 h -1.15879 l -4.84992,-16.839625 -2.236,-0.269466 V 11.4376 h 7.3286 v 1.104662 l -2.47905,0.296347 3.31423,12.394041 4.09529,-12.367066 -2.69447,-0.323322 V 11.4376 h 7.32869 v 1.104662 l -2.72117,0.323322 4.01474,12.474871 3.42158,-12.447897 -2.45171,-0.350296 V 11.4376 h 6.11596 v 1.104662 l -2.26307,0.323322 z m 15.32137,-9.187795 c 0,-1.535687 -1.2665,-2.909805 -2.93678,-2.909805 -1.5089,0 -3.2601,1.185483 -3.55673,4.310898 h 4.90378 c 1.2932,0 1.58973,-0.61967 1.58973,-1.401093 z m -8.97219,2.721355 c 0,-4.122355 2.82916,-6.870592 6.19688,-6.870592 2.802,0 5.01168,1.912957 5.01168,5.173152 0,0.619669 -0.0809,1.158601 -0.18854,1.508805 h -8.5951 c 0.0538,3.31405 1.77827,5.065346 4.36475,5.065346 1.72451,0 2.77531,-0.754356 3.74518,-1.885983 l 0.64664,0.511865 c -0.99703,1.91305 -2.72117,3.125508 -5.17315,3.125508 -3.63728,0 -6.00834,-2.505746 -6.00834,-6.628101 z m 29.6813,-2.53272 c 0,-1.912957 -0.97052,-3.233219 -2.6409,-3.233219 -1.69725,0 -2.72061,1.374118 -2.72061,3.341024 0,1.966814 0.94271,3.31405 2.61309,3.31405 1.72413,0 2.74842,-1.427974 2.74842,-3.421855 z m -5.46996,3.879864 c -1.29311,-0.7005 -2.07453,-1.966906 -2.07453,-3.799033 0,-2.829067 2.07453,-4.418703 4.87671,-4.418703 1.37468,0 2.56025,0.350296 3.42232,1.050796 l 3.04412,-1.050796 0.40415,0.269373 v 1.697533 h -2.63996 c 0.40415,0.646644 0.6192,1.481831 0.6192,2.451797 0,2.829067 -2.07452,4.418795 -4.87671,4.418795 -0.72673,0 -1.40063,-0.107805 -1.99388,-0.29644 -0.45792,0.592788 -0.67297,1.104653 -0.67297,1.724415 0,0.727474 0.2957,1.185483 1.56192,1.185483 h 3.52984 c 2.96348,0 4.33816,1.293288 4.33816,3.475711 0,2.344084 -2.23675,4.661194 -6.65462,4.661194 -3.90711,0 -5.57749,-1.347144 -5.57749,-3.260101 0,-1.158601 0.64609,-2.101593 2.63997,-3.071559 -1.18557,-0.323322 -1.7779,-0.99694 -1.7779,-2.047737 0,-0.835279 0.4848,-1.751296 1.83167,-2.990728 z m -0.4848,7.678897 c 0,1.751296 1.34779,2.451889 3.47608,2.451889 2.93659,0 4.52632,-1.212457 4.52632,-2.721355 0,-1.185483 -0.75454,-2.101593 -2.69466,-2.101593 h -3.15257 c -0.37727,0 -0.75362,-0.02688 -1.104,-0.05386 -0.75455,0.808305 -1.05117,1.53578 -1.05117,2.424915 z m 31.32182,-14.118269 v 8.352422 c 0,1.374119 0.56544,1.966906 1.48127,1.966906 0.59325,0 1.13181,-0.242491 1.80571,-0.727474 l 0.64701,0.7005 c -0.70078,0.91611 -1.80571,1.428067 -3.17945,1.428067 -1.88636,0 -3.07193,-0.969966 -3.07193,-3.071559 0,-0.299499 0.006,-0.577678 0.0111,-0.886725 0.007,-0.385891 0.0158,-0.819892 0.0158,-1.403503 v -6.358634 h -2.23582 v -1.185483 l 2.39711,-0.296441 0.70078,-3.610398 h 1.61661 l -0.13441,3.664347 h 3.61049 v 1.427975 z m 9.38264,11.720329 c 3.47515,0 5.25398,-1.805246 5.25398,-3.852982 0,-1.697441 -1.02429,-2.963754 -3.71895,-3.960695 l -0.83518,-0.296347 c -1.83167,-0.673526 -2.47868,-1.131627 -2.47868,-2.31711 0,-1.104653 0.86207,-1.832127 2.50556,-1.832127 0.64701,0 1.26715,0.161568 1.85947,0.458008 l 0.43103,2.155449 h 1.40156 l 0.10753,-2.748236 c -1.1587,-0.7005 -2.31739,-1.104653 -3.77178,-1.104653 -3.01817,0 -4.68854,1.832127 -4.68854,3.799033 0,1.832127 1.2931,2.909898 3.2601,3.637372 l 1.23934,0.458009 c 1.69725,0.592788 2.50556,1.185483 2.50556,2.344084 0,1.212458 -0.9696,2.047737 -3.01724,2.047737 -0.83519,0 -1.53597,-0.134779 -2.18298,-0.431127 l -0.51168,-2.344084 h -1.4822 l 0.10845,2.963847 c 1.31999,0.673525 2.50556,1.023822 4.01465,1.023822 z"
       fill="white"
       id="path26"
       style="fill:#800000;stroke-width:0.926955"
       sodipodi:nodetypes="cccccccscsssccccccsssccccccccsssssccsccccccsscccccccccccccccccccccccccccccccsscsssssccsccssssssscsscccccsscsssssscscssssscsscssccsscsccccccccccssccssccccssccssccccs" />
    <path
       d="m 144.64851,39.697579 c 0,0.747755 0.1665,1.391608 0.9347,2.347096 0.18722,0.249251 0.37373,0.47778 0.56096,0.685442 1.2877,-0.893104 2.20167,-1.807074 2.20167,-3.011744 0,-1.20474 -0.78963,-1.952495 -1.80721,-1.952495 -1.05904,0 -1.89012,0.830863 -1.89012,1.931701 z m 10.32308,10.697028 -0.0829,0.913899 c -0.62313,0.14542 -1.03831,0.207733 -1.57854,0.207733 -1.1012,0 -1.74506,-0.249252 -2.43036,-0.955418 -0.12219,-0.142347 -0.24367,-0.274691 -0.36373,-0.404461 v -1.44e-4 -1.42e-4 -2.15e-4 -1.42e-4 l -7e-4,-1.44e-4 v -1.42e-4 -2.86e-4 c -0.12434,-0.134916 -0.24654,-0.266975 -0.36231,-0.404463 -0.91397,0.997079 -2.24312,1.765557 -4.23757,1.765557 -2.59612,0 -4.38262,-1.682449 -4.38262,-3.780293 0,-1.869388 1.05904,-3.261067 3.13636,-4.299592 -0.01,-0.02072 -0.0257,-0.0363 -0.0415,-0.05181 -0.0157,-0.01565 -0.0315,-0.03123 -0.0415,-0.05202 -1.03902,-1.184017 -1.43348,-2.243337 -1.43348,-3.344175 0,-1.827797 1.45421,-2.949466 3.40649,-2.949466 2.05661,0 3.15709,1.100874 3.15709,2.658696 0,1.433197 -0.95542,2.450928 -3.0742,3.593355 0.43662,0.498503 0.9347,1.05932 1.66216,1.848593 0.56881,0.626059 1.09904,1.193592 1.63714,1.769486 0.24725,0.264759 0.49593,0.531375 0.75176,0.806138 0.76818,-1.287777 1.34987,-2.637866 1.7236,-4.278796 l -1.64071,-0.270047 v -0.830862 h 4.21613 v 0.830862 l -1.57855,0.290841 c -0.47735,1.890112 -1.20481,3.42714 -2.16023,4.860337 0.23153,0.240962 0.46735,0.494359 0.7146,0.760117 l 7.1e-4,6.43e-4 0.002,0.0015 7.1e-4,2.14e-4 v 2.86e-4 c 0.30657,0.329072 0.63028,0.677152 0.98615,1.044241 z m -5.42093,-1.308572 c -0.74819,-0.851586 -1.41276,-1.599341 -2.11879,-2.388614 -0.93469,-1.142427 -1.57854,-1.890182 -2.26384,-2.679456 -1.43348,0.872381 -1.82794,2.118639 -1.82794,3.157164 0,1.516234 1.1212,3.011815 3.13636,3.011815 1.16337,0 2.28457,-0.394672 3.07421,-1.100909 z"
       style="clip-rule:evenodd;fill:#800000;fill-rule:evenodd;stroke-width:0.714598"
       id="path43" />
    <path
       d="m 114.50373,60.422546 c 0,2.344084 0,4.688168 -0.0538,6.951422 l -2.47868,0.296348 v 1.104745 h 7.41008 c 5.17241,0 7.19317,-2.478864 7.19317,-4.930753 0,-2.182331 -1.50815,-3.93372 -5.09176,-4.445584 2.99036,-0.619763 4.17593,-2.344085 4.17593,-4.257135 0,-2.559601 -2.12829,-4.391738 -5.87319,-4.391738 h -7.81423 v 1.104662 l 2.47868,0.296347 c 0.0538,2.317203 0.0538,4.634313 0.0538,6.951423 z m 4.04245,-0.350297 c 3.71802,0 5.33463,1.266406 5.33463,3.772059 0,2.371059 -1.67037,3.664347 -5.11957,3.664347 h -1.64349 c -0.0538,-2.290229 -0.0538,-4.607339 -0.0538,-7.436406 z m 0.43104,-8.08305 c 2.74749,0 4.14905,0.889136 4.14905,3.341025 0,2.45189 -1.40156,3.502686 -4.66166,3.502686 h -1.40063 c 0,-2.128567 0,-4.526508 0.0538,-6.843711 z m 14.68112,-1.050796 c 0,0.99694 -0.80831,1.724415 -1.80571,1.724415 -1.02336,0 -1.80479,-0.727475 -1.80479,-1.724415 0,-1.050806 0.78143,-1.724387 1.80479,-1.724387 0.9974,0 1.80571,0.673581 1.80571,1.724387 z m -0.62014,16.489421 1.88636,0.377178 v 0.969966 h -6.25046 v -0.969966 l 2.01983,-0.377178 c 0.0269,-1.347237 0.0547,-3.125507 0.0547,-4.31099 V 61.85052 c 0,-1.481923 -0.0278,-2.31711 -0.0816,-3.394881 l -2.15517,-0.242491 v -0.942992 l 4.14905,-1.643584 0.40415,0.269466 -0.0806,3.664254 v 3.556542 c 0,1.185483 0.0269,2.963753 0.0538,4.31099 z m 13.92658,1.61661 c 0.94271,0 1.69725,-0.350296 2.34334,-1.401093 l -0.53856,-0.592788 c -0.29663,0.350297 -0.59325,0.592788 -1.05117,0.592788 -0.59232,0 -0.96959,-0.431034 -0.96959,-1.589635 v -5.738965 c 0,-3.394881 -1.34687,-4.688169 -4.17594,-4.688169 -2.74842,0 -4.7423,1.293288 -5.25398,3.341025 0.0806,0.7005 0.51168,1.104652 1.26622,1.104652 0.72766,0 1.1587,-0.458008 1.40156,-1.293288 l 0.51168,-1.751389 c 0.56544,-0.134686 1.05024,-0.161568 1.45439,-0.161568 1.77883,0 2.53337,0.646644 2.53337,3.260101 v 0.673619 c -1.07805,0.242491 -2.20986,0.592695 -3.04505,0.889135 -3.63737,1.32017 -4.47256,2.53272 -4.47256,4.068406 0,2.236373 1.64349,3.368 3.61049,3.368 1.58973,0 2.47868,-0.700593 3.96088,-2.155449 0.21506,1.266313 1.13181,2.074618 2.42492,2.074618 z m -7.59825,-3.691228 c 0,-0.808398 0.29662,-1.83222 2.63996,-2.748237 0.56637,-0.21561 1.53597,-0.538932 2.47961,-0.808398 v 4.14933 c -1.53597,1.077771 -2.04857,1.401093 -2.9644,1.401093 -1.23934,0 -2.15517,-0.565814 -2.15517,-1.993788 z m 20.74062,-0.08092 c 0,2.047736 -1.7779,3.852982 -5.25398,3.852982 -1.50909,0 -2.69466,-0.350297 -4.01465,-1.023822 L 150.731,65.137599 h 1.4822 l 0.51168,2.344084 c 0.64608,0.296348 1.34686,0.431127 2.18205,0.431127 2.04764,0 3.01724,-0.835279 3.01724,-2.047737 0,-1.158601 -0.80738,-1.751296 -2.50463,-2.344084 L 154.1802,63.06298 c -1.967,-0.727474 -3.26103,-1.805245 -3.26103,-3.637372 0,-1.966906 1.67037,-3.799033 4.68854,-3.799033 1.45532,0 2.61308,0.404153 3.77178,1.104653 l -0.10753,2.748236 h -1.40155 l -0.43011,-2.155449 c -0.59325,-0.29644 -1.21339,-0.458008 -1.85947,-0.458008 -1.6435,0 -2.50556,0.727474 -2.50556,1.832127 0,1.185483 0.64608,1.643584 2.47867,2.31711 l 0.83519,0.296347 c 2.69466,0.996941 3.71802,2.263254 3.71802,3.960695 z m 8.28698,-8.406279 c 1.6713,0 2.93752,1.374118 2.93752,2.909805 0,0.781423 -0.29663,1.401093 -1.58973,1.401093 h -4.90359 c 0.2957,-3.125415 2.04764,-4.310898 3.5558,-4.310898 z m 0.16221,-1.239432 c -3.36855,0 -6.19669,2.748237 -6.19669,6.870592 0,4.122355 2.37022,6.628101 6.0076,6.628101 2.45179,0 4.17686,-1.212458 5.17333,-3.125508 l -0.64608,-0.511865 c -0.97053,1.131627 -2.02077,1.885983 -3.74583,1.885983 -2.58621,0 -4.31034,-1.751296 -4.36411,-5.065346 h 8.59473 c 0.10753,-0.350204 0.18817,-0.889136 0.18817,-1.508805 0,-3.260195 -2.20893,-5.173152 -5.01112,-5.173152 z m 16.96792,9.645708 c 0,2.047736 -1.77883,3.852982 -5.25398,3.852982 -1.50909,0 -2.69466,-0.350297 -4.01465,-1.023822 l -0.10752,-2.963847 h 1.4822 l 0.51168,2.344084 c 0.64609,0.296348 1.34686,0.431127 2.18205,0.431127 2.04765,0 3.01724,-0.835279 3.01724,-2.047737 0,-1.158601 -0.80738,-1.751296 -2.50556,-2.344084 l -1.23934,-0.458009 c -1.96607,-0.727474 -3.2601,-1.805245 -3.2601,-3.637372 0,-1.966906 1.67037,-3.799033 4.68854,-3.799033 1.45439,0 2.61309,0.404153 3.77178,1.104653 l -0.10753,2.748236 h -1.40155 l -0.43104,-2.155449 c -0.59232,-0.29644 -1.21245,-0.458008 -1.85854,-0.458008 -1.64349,0 -2.50649,0.727474 -2.50649,1.832127 0,1.185483 0.64702,1.643584 2.47868,2.31711 l 0.83611,0.296347 c 2.69466,0.996941 3.71802,2.263254 3.71802,3.960695 z"
       style="clip-rule:evenodd;fill:#800000;fill-rule:evenodd;stroke-width:0.926955"
       id="path163" />
  </g>
</svg>
