<?xml version="1.0" encoding="UTF-8" standalone="no"?>
<!-- Generator: Adobe Illustrator 16.0.0, SVG Export Plug-In . SVG Version: 6.00 Build 0)  -->

<svg
   xmlns:dc="http://purl.org/dc/elements/1.1/"
   xmlns:cc="http://creativecommons.org/ns#"
   xmlns:rdf="http://www.w3.org/1999/02/22-rdf-syntax-ns#"
   xmlns:svg="http://www.w3.org/2000/svg"
   xmlns="http://www.w3.org/2000/svg"
   xmlns:sodipodi="http://sodipodi.sourceforge.net/DTD/sodipodi-0.dtd"
   xmlns:inkscape="http://www.inkscape.org/namespaces/inkscape"
   version="1.1"
   id="Laag_1"
   x="0px"
   y="0px"
   width="120"
   height="60"
   viewBox="-34.438 -9.176 124.77969 62.361322"
   enable-background="new 0 0 1708.278 445.276"
   xml:space="preserve"
   sodipodi:docname="cfengine-ar21.svg"
   inkscape:version="0.92.3 (2405546, 2018-03-11)"><metadata
   id="metadata45"><rdf:RDF><cc:Work
       rdf:about=""><dc:format>image/svg+xml</dc:format><dc:type
         rdf:resource="http://purl.org/dc/dcmitype/StillImage" /><dc:title></dc:title></cc:Work></rdf:RDF></metadata><defs
   id="defs43" /><sodipodi:namedview
   pagecolor="#ffffff"
   bordercolor="#666666"
   borderopacity="1"
   objecttolerance="10"
   gridtolerance="10"
   guidetolerance="10"
   inkscape:pageopacity="0"
   inkscape:pageshadow="2"
   inkscape:window-width="1920"
   inkscape:window-height="1001"
   id="namedview41"
   showgrid="false"
   inkscape:zoom="3.1751273"
   inkscape:cx="93.363926"
   inkscape:cy="19.002649"
   inkscape:window-x="-9"
   inkscape:window-y="-9"
   inkscape:window-maximized="1"
   inkscape:current-layer="Laag_1" />
<g
   id="g38"
   transform="matrix(0.06087011,0,0,0.06087011,-24.03969,8.452438)">
	<path
   d="m 65.606,186.108 c -0.033,1.458 -0.047,2.916 -0.036,4.373 0.032,-0.715 0.058,-1.429 0.051,-2.14 -0.007,-0.743 -0.009,-1.487 -0.015,-2.233 z"
   id="path2"
   inkscape:connector-curvature="0"
   style="fill:none" />
	<path
   d="m 1069.812,339.562 c -0.146,-0.021 -0.29,-0.033 -0.437,-0.056 -1.171,-0.179 -2.312,-0.084 -3.442,0.097 1.293,0.01 2.586,-0.002 3.879,-0.041 z"
   id="path4"
   inkscape:connector-curvature="0"
   style="fill:none" />
	<path
   d="m 1628.118,342.959 c 0.302,-0.134 0.605,-0.242 0.912,-0.336 -0.307,0.079 -0.612,0.185 -0.912,0.336 z"
   id="path6"
   inkscape:connector-curvature="0"
   style="fill:none" />
	<path
   d="m 118.197,62.222 c 2.365,0.014 4.731,0.027 7.097,0.041 1.732,-0.147 3.474,-0.356 5.038,0.701 19.359,2.889 30.927,15.331 39.175,31.888 2.549,5.115 4.939,10.279 7.968,15.19 5.794,9.396 13.81,14.547 24.795,15.145 1.964,0.026 3.929,0.053 5.893,0.078 15.334,-1.854 25.034,-10.006 28.319,-25.331 -0.055,-1.734 -0.214,-3.482 0.686,-5.089 C 236.1,67.583 223.087,46.582 203.105,29.035 189.438,17.034 173.399,10.265 155.923,6.396 c -3.534,-0.782 -7.17,-1.098 -10.759,-1.628 -1.769,0.096 -3.537,0.197 -5.176,-0.686 -2.945,-0.115 -5.891,-0.229 -8.836,-0.345 -5.295,0.021 -10.59,0.042 -15.885,0.062 -2.296,0.086 -4.593,0.171 -6.889,0.257 -0.002,0.002 -0.005,0.002 -0.007,0.004 -1.597,0.962 -3.352,0.838 -5.103,0.736 C 83.688,7.708 65.125,13.5 49.001,25.331 26.728,41.675 11.386,62.713 5.258,90.181 c -2.21,9.909 -3.419,19.834 -4.24,29.876 0.101,2.758 0.219,5.518 -0.714,8.185 -0.102,4.598 -0.203,9.195 -0.304,13.793 0.015,20.99 0.029,41.98 0.044,62.971 0.005,1.991 0.011,3.982 0.017,5.974 0.041,1.009 0.083,2.017 0.124,3.025 0.025,1.298 0.051,2.596 0.077,3.894 1.006,2.614 0.82,5.331 0.699,8.043 0.109,1.961 0.218,3.923 0.326,5.884 0.948,1.611 0.812,3.378 0.732,5.136 2.058,21.11 7.792,41.006 20.647,58.192 13.458,17.992 30.254,31.826 51.713,39.512 7.476,2.677 14.967,5.183 22.846,6.353 1.847,0.02 3.722,-0.135 5.455,0.621 0.221,0.076 0.439,0.178 0.649,0.327 1.297,0.087 2.594,0.175 3.89,0.262 2.139,-0.103 4.276,-0.196 6.312,0.674 0.004,0.002 0.008,0.003 0.012,0.004 6.521,0.019 13.042,0.038 19.563,0.057 2.633,-1.051 5.39,-0.767 8.121,-0.755 20.433,-1.733 39.503,-7.471 56.049,-19.945 20.025,-15.097 33.804,-34.452 39.145,-59.307 -0.042,-1.75 -0.193,-3.515 0.742,-5.122 0.007,-1.906 0.014,-3.812 0.021,-5.718 -0.002,-0.004 -0.003,-0.008 -0.005,-0.012 -1.031,-1.921 -0.688,-4.021 -0.789,-6.063 -2.985,-13.159 -11.259,-21.03 -24.215,-24.221 -4.297,-0.022 -8.595,-0.045 -12.893,-0.067 -11.394,1.767 -18.457,8.788 -24.082,18.446 -4.754,8.162 -7.63,17.365 -13.763,24.731 -9.155,10.997 -20.033,18.869 -35.056,19.129 -3.132,0.971 -6.267,0.921 -9.404,0.026 -20.185,0.35 -41.333,-17.411 -46.051,-37.947 -0.551,-0.214 -0.723,-0.604 -0.536,-1.159 -0.994,-4.579 -2.573,-9.065 -2.208,-13.861 -0.001,-0.002 -0.001,-0.004 -0.003,-0.007 -1.027,-1.571 -0.848,-3.329 -0.775,-5.069 -0.072,-1.646 -0.144,-3.293 -0.216,-4.939 -0.003,-0.007 -0.003,-0.014 -0.006,-0.021 -1.051,-2.601 -0.848,-5.317 -0.733,-8.026 -0.063,-2.351 -0.126,-4.7 -0.19,-7.051 -0.025,-2.296 -0.05,-4.592 -0.076,-6.888 -1.008,-2.832 -0.742,-5.742 -0.613,-8.634 -0.011,-1.457 0.003,-2.915 0.036,-4.373 -0.087,-10.998 -0.045,-21.998 -0.005,-32.997 0.006,-1.784 -0.45,-3.647 0.544,-5.345 v -0.001 c 0.093,-4.602 0.187,-9.203 0.28,-13.805 -0.042,-2.752 -0.384,-5.531 0.719,-8.184 0,-10e-4 0,-0.003 10e-4,-0.004 -0.305,-11.405 1.561,-22.626 6.302,-32.823 7.768,-16.705 20.765,-27.438 39.594,-30.011 1.609,-1.033 3.388,-0.839 5.156,-0.719 z"
   id="path8"
   inkscape:connector-curvature="0"
   style="fill:#ed8323" />
	<path
   d="m 467.246,7.852 c -0.776,0.153 -1.55,0.292 -2.165,-0.409 0,0 -0.001,0 -0.001,-10e-4 -1.299,-0.205 -2.596,-0.411 -3.895,-0.616 -55.634,-0.027 -111.267,-0.055 -166.9,-0.081 -6.954,1.102 -13.993,2.334 -19.365,7.254 -6.077,5.564 -9.545,12.629 -9.877,21.028 0.005,92.653 0.01,185.306 0.015,277.958 1.255,16.96 11.617,26.621 25.29,28.641 21.507,3.176 38.651,-8.122 39.887,-31.728 0.034,-0.658 0.167,-1.312 0.254,-1.968 -0.047,-33.396 -0.096,-66.791 -0.125,-100.187 -10e-4,-0.924 -0.341,-2.036 0.861,-2.593 v 0.001 c 0.652,-0.107 1.305,-0.309 1.956,-0.309 33.932,0.015 67.862,0.047 101.793,0.076 1.99,-0.924 4.108,-0.73 6.207,-0.715 5.025,-1.08 9.797,-2.669 13.656,-6.312 9.42,-8.891 11.391,-19.925 8.071,-31.766 -3.404,-12.146 -12.534,-17.972 -24.744,-19.38 -34.715,-0.031 -69.429,-0.062 -104.143,-0.1 -0.976,-0.001 -2.008,0.16 -2.815,-0.628 -0.001,0 -0.002,0.001 -0.002,0.001 -1.276,-0.777 -0.836,-2.062 -0.837,-3.144 -0.025,-24.883 -0.026,-49.765 0.008,-74.646 0.002,-1.052 -0.558,-2.371 0.851,-3.079 0.818,-0.106 1.638,-0.306 2.457,-0.306 41.741,0.009 83.482,0.034 125.224,0.058 0.004,-0.002 0.009,-0.003 0.013,-0.005 1.672,-0.844 3.468,-0.762 5.262,-0.693 12.078,-2.711 19.853,-9.73 22.209,-22.177 1.017,-4.35 0.743,-8.7 0.002,-13.05 -2.205,-10.827 -8.827,-17.652 -19.147,-21.124 z"
   id="path10"
   inkscape:connector-curvature="0"
   style="fill:#ed8323" />
	<path
   d="m 1165.409,351.964 c 0.139,-0.158 0.204,-0.349 0.246,-0.55 -0.082,0.183 -0.164,0.366 -0.246,0.55 z"
   id="path12"
   inkscape:connector-curvature="0"
   style="fill:#1e6c92" />
	<path
   d="m 1130.067,426.013 c 18.505,-14.418 28.681,-33.639 33.154,-56.272 0.383,-1.936 0.807,-3.862 1.211,-5.794 -0.035,-1.711 -0.213,-3.444 0.764,-5.002 0.07,-2.327 0.142,-4.654 0.213,-6.98 0.019,-75.303 0.037,-150.604 0.055,-225.906 -1.154,-10.902 -4.717,-15.461 -14.323,-18.33 -2.292,0.036 -4.584,0.073 -6.876,0.109 -9.629,2.824 -12.166,6.122 -13.253,17.226 0.023,2.893 0.166,5.79 0.033,8.676 -0.111,2.429 -1.053,1.168 -1.806,0.258 -14.19,-17.511 -32.867,-25.948 -55.081,-27.23 -4.621,-0.013 -9.242,-0.024 -13.863,-0.036 -14.933,1.593 -29.379,4.524 -42.321,12.917 -12.566,8.146 -19.967,20.099 -25.668,33.337 -4.106,9.533 -7.309,19.396 -8.07,29.884 -0.053,0.735 -0.771,1.423 -1.18,2.132 0.051,1.335 0.102,2.669 0.153,4.004 -0.058,1.017 -0.114,2.033 -0.171,3.05 0.021,2.04 0.249,4.106 -0.787,6.007 -0.071,2.332 -0.144,4.663 -0.215,6.994 -0.027,11.626 -0.054,23.252 -0.08,34.877 0.104,2.654 0.21,5.308 0.315,7.961 0.937,1.584 0.796,3.314 0.683,5.041 0.085,1.357 0.171,2.714 0.256,4.07 -0.051,1.001 -0.102,2.002 -0.153,3.004 2.361,4.449 2.226,9.508 3.27,14.256 3.65,16.591 10.093,31.897 22.073,43.971 10.498,10.58 23.931,16.662 38.594,19.495 6.294,1.216 12.616,1.829 18.939,1.875 1.131,-0.181 2.271,-0.275 3.442,-0.097 0.146,0.022 0.29,0.034 0.437,0.056 5.648,-0.169 11.293,-0.788 16.914,-1.854 16.289,-3.087 29.732,-11.271 40.497,-23.868 0.757,-0.887 1.516,-1.773 2.307,-2.629 0.213,-0.229 0.549,-0.346 0.91,-0.563 1.292,1.22 0.626,2.8 0.592,4.141 -0.424,16.621 1.216,33.294 -1.751,49.852 -4.846,27.043 -21.349,44.69 -47.11,49.891 -1.612,0.325 -3.296,0.3 -4.946,0.438 -19.188,2.701 -37.024,-0.432 -52.732,-12.412 -4.232,-3.228 -8.504,-6.347 -13.304,-8.683 -2.63,-0.045 -5.26,-0.092 -7.889,-0.138 -10.733,1.54 -13.794,16.092 -8.88,23.021 7.188,10.133 17.421,16.149 28.271,21.114 9.941,4.55 20.563,7.037 31.593,7.341 8.288,0.021 16.577,0.043 24.865,0.064 18.752,-1.72 35.898,-7.564 50.918,-19.268 z m -4.836,-155.798 c -7.796,26.736 -27.751,39.795 -55.614,38.133 -30.854,-1.841 -44.085,-19.997 -48.995,-41.697 -6.771,-29.92 -7.047,-60.204 0.802,-89.968 10.042,-38.078 57.586,-52.927 87.589,-27.809 10.753,9.002 15.347,21.457 18.191,34.687 2.814,13.087 3.444,26.368 3.134,39.136 0.283,16.438 -0.634,32.179 -5.107,47.518 z"
   id="path14"
   inkscape:connector-curvature="0"
   style="fill:#1e6c92" />
	<path
   d="m 545.219,5.84 c 0.002,-10e-4 0.003,-10e-4 0.005,-10e-4 0.323,0 0.647,0.002 0.971,0.002 -0.323,-0.01 -0.646,-0.021 -0.971,-0.031 0,0.009 0,0.018 0,0.027 -0.002,0.001 -0.003,0.002 -0.005,0.003 z"
   id="path16"
   inkscape:connector-curvature="0"
   style="fill:#1e6c92" />
	<path
   d="m 565.879,38.407 c 48.28,-0.045 96.56,-0.033 144.839,-0.044 3.159,0 6.318,-0.096 9.478,-0.146 7.699,-1.689 11.989,-6.784 12.683,-14.302 0.68,-7.353 -2.916,-12.815 -9.65,-16.056 C 722.561,7.57 721.893,7.281 721.225,6.993 720.541,6.926 719.858,6.859 719.173,6.792 667.697,6.74 616.224,6.68 564.749,6.645 c -8.825,-0.006 -17.65,0.097 -26.476,0.149 -10.364,2.689 -12.847,5.52 -14.267,16.271 0.026,81.295 0.062,162.59 0.073,243.885 0.002,18.656 -0.085,37.312 -0.131,55.968 0,0 -10e-4,0 -10e-4,-0.001 0,0.001 10e-4,0.002 10e-4,0.002 0.215,7.582 2.977,13.432 10.636,16.188 3.498,1.259 7.118,0.479 10.639,1.062 32.236,-0.055 64.473,-0.146 96.709,-0.154 22.764,-0.006 45.527,0.1 68.291,0.155 2.982,-0.128 5.996,-0.028 8.943,-0.423 14.173,-1.893 17.748,-18.496 9.24,-27 -0.462,-0.462 -0.835,-1.013 -1.25,-1.522 -1.301,-0.737 -2.602,-1.475 -3.902,-2.214 -0.005,-0.002 -0.01,-0.004 -0.015,-0.007 -4.339,-0.39 -8.678,-0.778 -13.017,-1.168 -11.291,0.056 -22.583,0.166 -33.874,0.157 -35.709,-0.028 -71.417,-0.102 -107.125,-0.156 -10e-4,0 -0.002,0 -0.003,-10e-4 -0.822,0.055 -1.643,0.147 -2.465,0.157 -6.739,0.083 -6.739,0.078 -6.366,-6.991 -0.056,-35.817 -0.017,-71.635 -0.283,-107.451 -0.034,-4.659 1.295,-5.664 5.755,-5.648 41.15,0.142 82.303,-0.03 123.453,0.06 9.385,0.02 15.245,-4.228 18.082,-12.999 0.013,-1.97 0.026,-3.938 0.04,-5.908 -2.523,-10.088 -9.91,-13.124 -19.274,-13.29 -41.695,0.03 -83.392,0.064 -125.087,0.078 -0.922,0.001 -2.035,0.359 -2.596,-0.846 -0.085,-0.988 -0.244,-1.977 -0.244,-2.964 -0.014,-36.528 -0.015,-73.057 0.003,-109.584 10e-4,-1.146 0.23,-2.29 0.354,-3.436 1.633,-1.289 3.533,-0.606 5.287,-0.607 z"
   id="path18"
   inkscape:connector-curvature="0"
   style="fill:#1e6c92" />
	<path
   d="m 1558.579,233.406 c 41.561,-0.038 83.121,-0.022 124.68,-0.049 4.648,-0.003 9.299,-0.195 13.947,-0.3 9.279,-3.6 10.635,-11.574 11.072,-20.055 0,-1.333 0,-2.667 0,-4 -0.033,-0.967 -0.064,-1.935 -0.098,-2.901 -0.024,-0.052 -0.033,-0.105 -0.056,-0.157 -0.91,-2.223 -0.697,-4.558 -0.653,-6.876 -2.299,-19.58 -7.719,-38.12 -18.32,-54.931 -1.02,-1.361 -2.037,-2.724 -3.057,-4.085 -7.43,-8.733 -15.734,-16.382 -25.855,-22.01 -12.188,-6.774 -25.406,-9.689 -39.062,-11.209 -4.969,-0.016 -9.936,-0.031 -14.904,-0.048 -14.367,1.264 -28.133,4.493 -40.906,11.569 -12.291,6.809 -21.436,16.667 -28.783,28.388 -9.053,14.441 -13.678,30.392 -16.381,47.1 -0.607,3.76 -0.318,7.553 -1.225,11.233 0.02,2.357 0.309,4.742 -0.727,6.989 -0.064,4.312 -0.129,8.625 -0.193,12.938 0,1.665 0,3.331 0,4.997 0.064,2.647 0.129,5.294 0.191,7.941 1.027,2.251 0.758,4.637 0.732,6.998 0.068,1.354 0.137,2.708 0.205,4.062 -0.043,1.344 -0.088,2.688 -0.131,4.032 2.398,6.061 2.498,12.645 4.342,18.849 3.344,11.247 6.982,22.335 13.873,32.033 0.998,0.807 1.945,1.646 1.863,3.102 7.703,10.126 16.584,18.854 28.146,24.628 7.012,3.502 14.303,6.138 21.857,8.067 1.191,0.305 2.08,0.891 3.059,1.455 0.342,-0.021 0.686,-0.042 1.027,-0.063 3.676,0.368 7.354,0.737 11.031,1.106 2.103,-0.067 4.207,-0.144 6.207,0.702 0,10e-4 0.01,0.002 0.01,0.003 5.881,0.015 11.764,0.028 17.646,0.042 0.3,-0.151 0.604,-0.257 0.912,-0.336 1.999,-0.606 4.084,-0.419 6.146,-0.43 1.682,-0.324 3.363,-0.582 5.049,-0.023 4.4,-1.091 8.801,-2.177 13.199,-3.273 16.721,-4.168 30.99,-12.458 42.621,-25.235 2.061,-2.264 3.209,-4.979 4.375,-7.718 -0.014,-1.967 -0.029,-3.934 -0.043,-5.9 -2.561,-5.769 -6.023,-10.33 -12.914,-11.39 -4.143,-0.638 -7.625,0.461 -11.047,2.447 -0.748,0.558 -1.496,1.114 -2.244,1.672 -4.273,3.174 -8.547,6.348 -12.82,9.521 0,0 0,0 -10e-4,-10e-4 -0.661,0.417 -1.323,0.833 -1.984,1.249 -0.045,0.043 -0.094,0.078 -0.153,0.097 -7.055,3.244 -13.984,6.845 -21.896,7.615 -1.512,1.356 -3.34,0.637 -5.039,0.775 -1.551,1.011 -3.264,0.871 -4.982,0.7 -4.377,0.461 -8.754,0.408 -13.133,0.033 -1.734,0.142 -3.463,0.241 -5.041,-0.718 -12.418,-0.66 -23.383,-5.173 -32.635,-13.309 -16.393,-14.413 -22.623,-33.351 -23.326,-54.563 -0.725,-3.387 -1.676,-6.775 0.055,-10.148 l 0.039,-0.023 c 1.665,-1.159 3.552,-0.59 5.325,-0.592 z m -6.066,-30.803 c 1.324,-16.336 4.363,-32.152 14.863,-45.298 13.799,-17.277 32.545,-23.319 53.854,-20.79 22.039,2.616 37.902,14.282 46.408,35.24 4.057,9.994 5.775,20.423 6.572,31.107 0.273,3.674 -0.594,4.894 -4.496,4.852 -18.826,-0.202 -37.656,-0.091 -56.484,-0.091 -18.66,-10e-4 -37.322,-0.101 -55.982,0.079 -3.991,0.038 -5.065,-1.037 -4.735,-5.099 z"
   id="path20"
   inkscape:connector-curvature="0"
   style="fill:#1e6c92" />
	<path
   d="m 939.966,338.92 c 4.12,-2.914 4.812,-7.06 6.5,-10.987 0.076,-2.072 -0.197,-4.183 0.673,-6.168 0.047,-1.588 0.093,-3.175 0.14,-4.762 -0.068,-19.089 -0.193,-38.179 -0.189,-57.268 0.004,-22.244 0.121,-44.488 0.189,-66.732 -0.027,-0.979 -0.055,-1.959 -0.082,-2.939 -0.106,-0.301 -0.186,-0.604 -0.254,-0.908 -0.755,-2.99 -0.4,-6.068 -0.531,-9.108 -2.538,-20.575 -9.426,-39.146 -25.225,-53.407 -11.989,-10.823 -26.247,-16.732 -42.227,-18.647 -2.941,-0.353 -5.87,-0.814 -8.805,-1.226 -4.287,-0.012 -8.573,-0.022 -12.859,-0.034 -15.728,1.426 -30.656,5.267 -43.884,14.361 -3.659,2.516 -7.222,5.075 -10.123,8.526 -1.067,1.269 -1.913,3.192 -4.102,3.147 v 0 0.001 c -10e-4,-0.005 -0.002,-0.009 -0.003,-0.014 -0.099,-0.317 -0.174,-0.637 -0.239,-0.956 -0.814,-3.545 -0.287,-7.184 -0.591,-10.764 -2.022,-6.778 -6.411,-11.2 -13.19,-13.239 -2.293,-0.011 -4.587,-0.021 -6.88,-0.032 -9.68,2.32 -13.751,7.384 -13.924,17.259 -0.023,1.328 -0.198,2.654 -0.303,3.981 0.055,1.991 0.158,3.982 0.159,5.974 0.009,51.369 0.015,102.738 -10e-4,154.106 -0.002,9.306 -0.104,18.612 -0.158,27.918 0.105,2.327 0.272,4.653 0.305,6.981 0.128,9.09 5.138,16.528 12.157,17.979 9.556,1.974 17.8,-2.863 21.364,-12.538 0.173,-0.469 0.322,-0.945 0.482,-1.419 0.031,-0.354 0.063,-0.708 0.095,-1.062 0.043,-42.41 0.078,-84.821 0.152,-127.232 0.003,-1.955 -0.481,-3.991 0.542,-5.866 0.002,-0.003 0.002,-0.006 0.004,-0.009 -0.154,-0.293 -0.13,-0.57 0.073,-0.832 -0.054,-31.396 20.068,-54.126 50.831,-55.064 0.006,-0.001 0.011,-0.002 0.017,-0.002 4.104,-0.969 8.207,-0.956 12.312,0.001 23.26,1.558 42.684,14.87 47.986,42.298 0.304,1.571 1.478,3.028 0.855,4.768 0.033,1.651 0.067,3.303 0.102,4.954 1.814,3.562 0.867,7.333 0.834,11.035 0.068,10.455 0.203,20.911 0.191,31.366 -0.03,28.886 -0.122,57.771 -0.19,86.657 0.688,4.327 -0.236,8.713 1.689,13.067 4.314,9.751 17.323,13.049 26.108,6.836 z"
   id="path22"
   inkscape:connector-curvature="0"
   style="fill:#1e6c92" />
	<path
   d="m 1484.163,189.162 c -0.154,-0.416 -0.254,-0.837 -0.326,-1.259 -0.549,-2.585 -0.361,-5.231 -0.43,-7.856 -1.541,-12.219 -4.805,-23.936 -10.189,-35.036 -1.051,-1.648 -2.104,-3.297 -3.154,-4.945 -5.545,-7.73 -12.14,-14.416 -19.88,-19.96 v -10e-4 c -1.637,-1.038 -3.272,-2.077 -4.908,-3.116 -12.001,-6.043 -24.825,-9.022 -38.124,-10.236 -10e-4,-0.001 0,-0.001 0,-0.001 0,0.001 10e-4,0.001 0,0.002 -4.629,0.026 -9.259,0.054 -13.889,0.081 -12.652,1.092 -24.798,3.975 -36.001,10.188 -1.159,1.032 -2.266,2.172 -4.031,1.948 -6.518,3.566 -10.97,9.686 -17.044,13.799 v 10e-4 c -1.246,-3.501 -0.315,-7.147 -0.722,-10.705 -1.655,-7.347 -5.931,-12.252 -13.303,-14.27 -2.292,-0.012 -4.584,-0.023 -6.876,-0.035 -8.845,1.523 -13.047,5.642 -13.882,17.266 -0.286,3.98 -0.241,7.984 -0.347,11.979 0.055,1.991 0.158,3.982 0.159,5.974 0.01,45.877 0.019,91.755 -10e-4,137.632 0,12.131 -0.104,24.262 -0.158,36.393 0.187,3.952 -0.15,8.017 0.669,11.832 1.693,7.891 6.782,12.384 13.713,13.024 9.41,0.871 15.072,-2.364 18.952,-10.828 0.369,-1.371 0.738,-2.743 1.107,-4.114 0.032,-42.377 0.057,-84.755 0.123,-127.132 0,-1.946 -0.557,-3.99 0.576,-5.842 -0.224,-15.426 4.091,-29.241 14.756,-40.68 7.412,-7.947 16.688,-12.579 27.366,-14.272 2.884,-0.458 5.719,-1.66 8.741,-1.047 10e-4,0 0,0 0,-0.001 4.104,-0.966 8.21,-0.949 12.315,0.001 13.438,0.881 25.249,5.491 34.841,15.193 1.508,0.417 2.195,1.621 2.789,2.915 5.795,7.885 9.404,16.701 10.901,26.339 0.647,4.169 0.853,8.406 1.259,12.612 0,0.337 0,0.674 0,1.011 0,1.326 0,2.652 0,3.979 0.068,15.104 0.199,30.207 0.19,45.311 -0.016,24.567 -0.122,49.134 -0.19,73.701 0.049,1.917 0.099,3.835 0.147,5.752 0.104,0.172 0.174,0.35 0.222,0.531 0.483,1.173 0.58,2.412 0.49,3.683 2.591,8.979 6.782,12.392 14.871,12.991 7.398,0.549 15.75,-3.429 17.658,-11.775 0.18,-0.786 0.623,-1.514 0.943,-2.268 10e-4,-0.002 10e-4,-0.004 0,-0.006 0,0.002 0,0.004 0,0.006 0.08,-2.01 -0.311,-4.074 0.695,-5.976 0.027,-1.313 0.057,-2.626 0.084,-3.939 -0.068,-17.596 -0.197,-35.191 -0.191,-52.787 0.01,-24.071 0.123,-48.143 0.191,-72.214 -0.036,-1.283 -0.075,-2.563 -0.112,-3.843 z"
   id="path24"
   inkscape:connector-curvature="0"
   style="fill:#1e6c92" />
	<path
   d="m 1250.238,321.426 c -0.041,-1.472 0.097,-2.948 0.151,-4.422 -0.055,-1.992 -0.158,-3.983 -0.159,-5.975 -0.01,-51.369 -0.015,-102.738 10e-4,-154.107 0,-9.306 0.104,-18.612 0.158,-27.918 -0.113,-4.281 -0.401,-8.491 -2.336,-12.472 -2.271,-4.676 -6.238,-7.047 -10.871,-8.668 -2.639,-0.009 -5.277,-0.018 -7.917,-0.027 -8.855,1.771 -12.812,7.557 -13.279,16.203 0.032,64.313 0.064,128.627 0.094,192.94 10e-4,2.998 -0.028,5.996 -0.044,8.994 0.454,9.709 6.124,17.156 20.189,16.016 0.625,-0.137 1.248,-0.273 1.873,-0.41 9.214,-3.607 12.398,-10.833 12.14,-20.154 z"
   id="path26"
   inkscape:connector-curvature="0"
   style="fill:#1e6c92" />
	<path
   d="m 1238.022,46.062 c 0.035,-0.115 0.089,-0.23 0.167,-0.347 9.103,-3.608 15.024,-10 17.181,-19.675 0.7,-1.775 0.632,-3.539 -0.089,-5.295 -2.101,-10.108 -7.969,-16.788 -18.12,-19.084 -12.102,-2.738 -22.866,4.575 -26.062,17.355 -0.787,2.577 -0.779,5.161 -0.064,7.751 1.402,10.219 7.929,15.788 17.15,18.92 0.109,0.142 0.171,0.284 0.211,0.427 3.2,-2.344 6.41,-2.31 9.626,-0.052 z"
   id="path28"
   inkscape:connector-curvature="0"
   style="fill:#1e6c92" />
	<path
   d="m 1228.185,45.688 c -9.222,-3.132 -15.748,-8.701 -17.15,-18.92 -0.715,-2.59 -0.723,-5.174 0.064,-7.751 3.196,-12.78 13.961,-20.094 26.062,-17.355 10.151,2.296 16.02,8.976 18.12,19.084 0.721,1.756 0.789,3.52 0.089,5.295 -2.156,9.675 -8.078,16.066 -17.181,19.675 -0.078,0.116 -0.132,0.231 -0.167,0.347 0.068,0.047 0.136,0.09 0.203,0.139 10.447,-2.806 16.029,-9.982 18.182,-20.239 0.021,-1.632 0.042,-3.264 0.062,-4.896 -0.405,-1.425 -0.836,-2.844 -1.212,-4.276 -2.731,-10.417 -12.711,-17.511 -23.993,-16.73 -11.51,0.796 -19.361,7.754 -21.22,18.988 -0.032,2.627 -0.065,5.254 -0.098,7.88 2.14,11.471 8.318,17.329 18.274,19.311 0.058,-0.044 0.115,-0.081 0.174,-0.123 -0.039,-0.145 -0.1,-0.288 -0.209,-0.429 z"
   id="path30"
   inkscape:connector-curvature="0"
   style="fill:#1e6c92" />
	<path
   d="m 1228.396,46.114 c 0.012,0.041 0.02,0.082 0.025,0.122 3.193,-0.012 6.387,-0.024 9.58,-0.035 0.01,-0.047 0.01,-0.093 0.021,-0.14 -3.216,-2.257 -6.426,-2.291 -9.626,0.053 z"
   id="path32"
   inkscape:connector-curvature="0"
   style="fill:#1e6c92" />
	<path
   d="m 1228.396,46.114 c -0.059,0.042 -0.116,0.079 -0.174,0.123 0.066,0 0.133,0 0.199,-0.001 -0.01,-0.04 -0.014,-0.081 -0.025,-0.122 z"
   id="path34"
   inkscape:connector-curvature="0"
   style="fill:#1e6c92" />
	<path
   d="m 1238.001,46.201 c 0.075,-10e-4 0.149,-10e-4 0.225,-10e-4 -0.067,-0.049 -0.135,-0.092 -0.203,-0.139 -0.014,0.047 -0.014,0.093 -0.022,0.14 z"
   id="path36"
   inkscape:connector-curvature="0"
   style="fill:#1e6c92" />
</g>
</svg>