<?xml version="1.0" encoding="UTF-8" standalone="no"?>
<!-- Generator: Adobe Illustrator 16.0.0, SVG Export Plug-In . SVG Version: 6.00 Build 0)  -->

<svg
   xmlns:dc="http://purl.org/dc/elements/1.1/"
   xmlns:cc="http://creativecommons.org/ns#"
   xmlns:rdf="http://www.w3.org/1999/02/22-rdf-syntax-ns#"
   xmlns:svg="http://www.w3.org/2000/svg"
   xmlns="http://www.w3.org/2000/svg"
   xmlns:sodipodi="http://sodipodi.sourceforge.net/DTD/sodipodi-0.dtd"
   xmlns:inkscape="http://www.inkscape.org/namespaces/inkscape"
   version="1.1"
   id="Laag_1"
   x="0px"
   y="0px"
   width="64"
   height="64"
   viewBox="-34.438 -9.176 66.549168 66.518743"
   enable-background="new 0 0 1708.278 445.276"
   xml:space="preserve"
   sodipodi:docname="cfengine-icon.svg"
   inkscape:version="0.92.3 (2405546, 2018-03-11)"><metadata
   id="metadata45"><rdf:RDF><cc:Work
       rdf:about=""><dc:format>image/svg+xml</dc:format><dc:type
         rdf:resource="http://purl.org/dc/dcmitype/StillImage" /><dc:title></dc:title></cc:Work></rdf:RDF></metadata><defs
   id="defs43">
	
	
	
	
	
	
	
	
	
	
	
	
	
	
	
	
	
	
</defs><sodipodi:namedview
   pagecolor="#ffffff"
   bordercolor="#666666"
   borderopacity="1"
   objecttolerance="10"
   gridtolerance="10"
   guidetolerance="10"
   inkscape:pageopacity="0"
   inkscape:pageshadow="2"
   inkscape:window-width="1920"
   inkscape:window-height="1001"
   id="namedview41"
   showgrid="false"
   inkscape:zoom="3.1751273"
   inkscape:cx="93.363926"
   inkscape:cy="19.002649"
   inkscape:window-x="-9"
   inkscape:window-y="-9"
   inkscape:window-maximized="1"
   inkscape:current-layer="Laag_1" />
<g
   id="g873"
   transform="matrix(2.2447106,0,0,2.2447106,19.524155,-18.57573)"><path
     d="m -20.046246,19.780852 c -0.002,0.08875 -0.0029,0.177498 -0.0022,0.266185 0.0019,-0.04352 0.0035,-0.08698 0.0031,-0.130262 -4.26e-4,-0.04523 -5.47e-4,-0.09051 -9.13e-4,-0.135923 z"
     id="path2"
     inkscape:connector-curvature="0"
     style="fill:none;stroke-width:0.06087011" /><path
     d="m -16.845026,12.239898 c 0.143958,8.52e-4 0.287977,0.0016 0.431996,0.0025 0.105427,-0.0089 0.211462,-0.02167 0.306663,0.04267 1.178385,0.175853 1.88253,0.933199 2.384587,1.941026 0.155158,0.31135 0.300637,0.625684 0.485013,0.924617 0.352681,0.571935 0.840616,0.885477 1.509274,0.921877 0.119549,0.0016 0.239159,0.0032 0.358708,0.0047 0.933382,-0.112853 1.523822,-0.609066 1.7237804,-1.5419 -0.00335,-0.105549 -0.013026,-0.21195 0.041757,-0.309768 -0.065009,-1.659441 -0.8571124,-2.937775 -2.0734184,-4.005862 -0.831912,-0.7305025 -1.808208,-1.1425323 -2.871974,-1.3780388 -0.215115,-0.0476 -0.436439,-0.066835 -0.654901,-0.099097 -0.10768,0.00584 -0.215298,0.011991 -0.315064,-0.041757 -0.179263,-0.007 -0.358586,-0.013939 -0.537848,-0.021 -0.322308,0.00128 -0.644615,0.00256 -0.966922,0.00377 -0.139758,0.00523 -0.279576,0.010409 -0.419334,0.015644 -1.22e-4,1.217e-4 -3.05e-4,1.217e-4 -4.26e-4,2.434e-4 -0.09721,0.058557 -0.204037,0.051009 -0.31062,0.0448 -1.191837,0.1772538 -2.321769,0.5298135 -3.303239,1.2499678 -1.35576,0.9948616 -2.289629,2.2754466 -2.662641,3.9474266 -0.134523,0.603162 -0.208115,1.207298 -0.258089,1.818556 0.0061,0.16788 0.01333,0.335881 -0.04346,0.498222 -0.0062,0.27988 -0.01236,0.5597 -0.01851,0.839581 9.13e-4,1.277664 0.0018,2.555327 0.0027,3.833052 3.05e-4,0.121192 6.7e-4,0.242385 0.001,0.363638 0.0025,0.06142 0.0051,0.122775 0.0075,0.184132 0.0015,0.07901 0.0031,0.158019 0.0047,0.237028 0.06123,0.159115 0.04991,0.324499 0.04255,0.489578 0.0066,0.119367 0.01327,0.238794 0.01984,0.35816 0.0577,0.09806 0.04943,0.205619 0.04456,0.312629 0.12527,1.284968 0.4743,2.49604 1.256785,3.542153 0.81919,1.095175 1.841564,1.937253 3.147776,2.4051 0.455065,0.16295 0.911043,0.31549 1.390638,0.386708 0.112428,0.0012 0.226559,-0.0082 0.332047,0.0378 0.01345,0.0046 0.02672,0.01084 0.0395,0.01991 0.07895,0.0053 0.157897,0.01065 0.236784,0.01595 0.130201,-0.0063 0.260281,-0.01193 0.384212,0.04103 2.44e-4,1.22e-4 4.87e-4,1.83e-4 7.31e-4,2.44e-4 0.396934,0.0012 0.793868,0.0023 1.190802,0.0035 0.160271,-0.06397 0.32809,-0.04669 0.494326,-0.04596 1.243759,-0.105487 2.404552,-0.45476 3.411709,-1.214054 1.218924,-0.918956 2.0576532,-2.097097 2.3827605,-3.610023 -0.00256,-0.106523 -0.011748,-0.213959 0.045166,-0.311777 4.261e-4,-0.116019 8.522e-4,-0.232037 0.00128,-0.348055 -1.218e-4,-2.44e-4 -1.826e-4,-4.87e-4 -3.044e-4,-7.31e-4 -0.062757,-0.116931 -0.041879,-0.244759 -0.048027,-0.369055 -0.1816973,-0.80099 -0.6853361,-1.280099 -1.4739691,-1.474335 -0.261559,-0.0013 -0.523179,-0.0027 -0.784799,-0.0041 -0.693554,0.107558 -1.123479,0.534927 -1.465874,1.12281 -0.289376,0.496822 -0.464439,1.05701 -0.837755,1.505379 -0.557266,0.669389 -1.219411,1.148558 -2.133863,1.164384 -0.190645,0.05911 -0.381473,0.05606 -0.572422,0.0016 -1.228663,0.02131 -2.515944,-1.059809 -2.80313,-2.309838 -0.03354,-0.01303 -0.04401,-0.03677 -0.03263,-0.07055 -0.0605,-0.278725 -0.156619,-0.551788 -0.134401,-0.843721 -6.1e-5,-1.22e-4 -6.1e-5,-2.44e-4 -1.83e-4,-4.26e-4 -0.06251,-0.09563 -0.05162,-0.202637 -0.04717,-0.308551 -0.0044,-0.100192 -0.0088,-0.200445 -0.01315,-0.300637 -1.83e-4,-4.26e-4 -1.83e-4,-8.52e-4 -3.65e-4,-0.0013 -0.06398,-0.158324 -0.05162,-0.323647 -0.04462,-0.488544 -0.0038,-0.143106 -0.0077,-0.286089 -0.01157,-0.429195 -0.0015,-0.139758 -0.003,-0.279516 -0.0046,-0.419273 -0.06136,-0.172385 -0.04517,-0.349517 -0.03731,-0.525553 -6.69e-4,-0.08869 1.83e-4,-0.177436 0.0022,-0.266185 -0.0053,-0.669449 -0.0027,-1.339021 -3.04e-4,-2.008531 3.65e-4,-0.108592 -0.02739,-0.221993 0.03311,-0.325351 v -6.1e-5 c 0.0057,-0.280124 0.01138,-0.560187 0.01704,-0.840311 -0.0026,-0.167515 -0.02337,-0.336673 0.04377,-0.498161 0,-6.1e-5 0,-1.83e-4 6.1e-5,-2.44e-4 -0.01857,-0.694224 0.09502,-1.377247 0.383603,-1.99794 0.472839,-1.016835 1.263968,-1.670154 2.410091,-1.826772 0.09794,-0.06288 0.206228,-0.05107 0.313846,-0.04377 z"
     id="path8"
     inkscape:connector-curvature="0"
     style="fill:#ed8323;stroke-width:0.06087011" /><path
     d="m 4.4016254,8.9303901 c -0.047235,0.00931 -0.094349,0.017774 -0.1317838,-0.024896 0,0 -6.08e-5,0 -6.08e-5,-6.08e-5 -0.07907,-0.012478 -0.1580188,-0.025018 -0.2370891,-0.037496 -3.38644772,-0.00164 -6.7728345,-0.00335 -10.1592214,-0.00493 -0.4232907,0.067079 -0.8517554,0.1420708 -1.1787497,0.4415518 -0.3699076,0.3386813 -0.5810052,0.7687279 -0.601214,1.2799759 3.043e-4,5.639799 6.087e-4,11.279597 9.13e-4,16.919334 0.076392,1.032357 0.7071281,1.620424 1.5394051,1.743381 1.3091335,0.193324 2.3526906,-0.494387 2.4279261,-1.931287 0.00207,-0.04005 0.010165,-0.07986 0.015461,-0.119792 -0.00286,-2.032818 -0.00584,-4.065576 -0.00761,-6.098394 -6.09e-5,-0.05624 -0.020757,-0.123931 0.052409,-0.157836 v 6.1e-5 c 0.039687,-0.0065 0.079436,-0.01881 0.1190619,-0.01881 2.0654446,9.13e-4 4.13076742,0.0029 6.1961511,0.0046 0.1211315,-0.05624 0.2500544,-0.04443 0.3778208,-0.04352 0.3058723,-0.06574 0.5963445,-0.162462 0.8312422,-0.384212 0.5733965,-0.541196 0.6933714,-1.212837 0.4912827,-1.9336 -0.2072019,-0.739328 -0.762946,-1.093958 -1.50617,-1.179663 -2.11310589,-0.0019 -4.2261509,-0.0038 -6.3391959,-0.0061 -0.059409,-6.1e-5 -0.1222272,0.0097 -0.1713493,-0.03823 -6.09e-5,0 -1.218e-4,6.1e-5 -1.218e-4,6.1e-5 -0.07767,-0.0473 -0.050887,-0.125514 -0.050948,-0.191376 -0.00152,-1.514631 -0.00158,-3.029201 4.87e-4,-4.54371 1.217e-4,-0.06404 -0.033965,-0.144323 0.051801,-0.187419 0.049792,-0.0065 0.099705,-0.01863 0.1495578,-0.01863 2.5407793,5.47e-4 5.0815585,0.0021 7.6223987,0.0035 2.435e-4,-1.22e-4 5.478e-4,-1.83e-4 7.913e-4,-3.04e-4 0.1017748,-0.05138 0.2110975,-0.04638 0.3202985,-0.04218 0.7351892,-0.165019 1.2084543,-0.592266 1.3518643,-1.349917 0.061905,-0.264785 0.045227,-0.52957 1.217e-4,-0.794355 C 5.4328868,9.5571696 5.029805,9.1417311 4.4016254,8.9303901 Z"
     id="path10"
     inkscape:connector-curvature="0"
     style="fill:#ed8323;stroke-width:0.06087011" /></g>
</svg>