<?xml version="1.0" encoding="UTF-8" standalone="no"?>
<!-- Generator: Adobe Illustrator 21.1.0, SVG Export Plug-In . SVG Version: 6.00 Build 0)  -->

<svg
   xmlns:dc="http://purl.org/dc/elements/1.1/"
   xmlns:cc="http://creativecommons.org/ns#"
   xmlns:rdf="http://www.w3.org/1999/02/22-rdf-syntax-ns#"
   xmlns:svg="http://www.w3.org/2000/svg"
   xmlns="http://www.w3.org/2000/svg"
   xmlns:sodipodi="http://sodipodi.sourceforge.net/DTD/sodipodi-0.dtd"
   xmlns:inkscape="http://www.inkscape.org/namespaces/inkscape"
   version="1.1"
   id="Layer_1"
   x="0px"
   y="0px"
   viewBox="0 0 64 64"
   xml:space="preserve"
   sodipodi:docname="jfrog-icon.svg"
   width="64"
   height="64"
   inkscape:version="0.92.3 (2405546, 2018-03-11)"><metadata
   id="metadata12"><rdf:RDF><cc:Work
       rdf:about=""><dc:format>image/svg+xml</dc:format><dc:type
         rdf:resource="http://purl.org/dc/dcmitype/StillImage" /><dc:title></dc:title></cc:Work></rdf:RDF></metadata><defs
   id="defs10">
	
</defs><sodipodi:namedview
   pagecolor="#ffffff"
   bordercolor="#666666"
   borderopacity="1"
   objecttolerance="10"
   gridtolerance="10"
   guidetolerance="10"
   inkscape:pageopacity="0"
   inkscape:pageshadow="2"
   inkscape:window-width="1920"
   inkscape:window-height="1001"
   id="namedview8"
   showgrid="false"
   inkscape:zoom="6.2933333"
   inkscape:cx="54.651387"
   inkscape:cy="46.694181"
   inkscape:window-x="-9"
   inkscape:window-y="-9"
   inkscape:window-maximized="1"
   inkscape:current-layer="Layer_1" />
<style
   type="text/css"
   id="style2">
	.st0{fill:#41BF47;}
</style>
<g
   id="g839"
   transform="matrix(1.2427057,0,0,1.2427057,-42.562342,7.6727826)"><path
     sodipodi:nodetypes="cscccscsccsscssscssscccsccccccccccccccccccscccccccccccccccccsccccccccccccccccccccccscc"
     class="st0"
     d="m 45.805445,19.452735 c -3.78624,0.922895 -6.365614,2.745023 -6.365614,4.827455 0,1.301519 0.993887,2.484719 2.626703,3.407615 -0.496943,-0.780912 -0.757248,-1.632816 -0.757248,-2.48472 0.02367,-2.153423 1.703808,-4.164863 4.496159,-5.75035 z m 39.94482,8.164078 c 0,-1.372512 -0.851903,-2.626704 -2.271744,-3.66792 0.11832,0.425952 0.212976,0.851905 0.212976,1.277857 0,3.904558 -5.466382,7.264845 -13.228171,8.661021 0.875567,0.09465 1.774798,0.141984 2.721358,0.141984 6.93355,-0.02367 12.565581,-2.887008 12.565581,-6.412942 z m -4.472495,-2.12976 c 0,-1.443503 -1.230528,-2.768687 -3.336623,-3.857231 0.496944,0.5916 0.757248,1.230528 0.757248,1.89312 0,3.478606 -7.383166,6.294622 -16.517467,6.294622 -9.110637,0 -16.517468,-2.816016 -16.517468,-6.294622 0,-0.449616 0.118321,-0.875568 0.354961,-1.277856 -1.467167,0.970223 -2.295408,2.082431 -2.295408,3.265631 0,3.762575 8.400718,6.81523 18.765546,6.81523 10.36483,0 18.789211,-3.099983 18.789211,-6.838894 z m -8.187741,-0.189312 c -3.833568,2.461056 -15.618236,3.407615 -20.68233,0.23664 -3.975551,-2.484719 -2.603039,-6.436606 -13.98542,-15.097627 -1.490832,-1.1358724 0.283968,-2.3427356 1.396176,-1.5618241 1.112207,0.7809115 0.09465,0.9702241 2.342735,3.2183031 4.543486,4.543487 4.496159,0.449616 5.206078,2.011439 1.514496,3.241968 4.827455,6.507598 4.827455,6.507598 3.336623,2.177088 5.986991,2.650368 10.909101,-0.686256 3.123647,-2.106095 1.845792,3.360287 9.489261,-0.591599 2.792351,-1.443504 2.674031,-0.47328 5.51371,-4.425167 1.1832,-1.632815 3.431279,1.254192 0.875568,1.65648 -1.017552,0.165647 -2.745023,1.277855 -3.478607,3.028991 -1.06488,2.626703 -0.615264,4.56715 -2.413727,5.703022 z M 51.839763,18.624495 c -0.946559,-0.425952 -1.940448,-2.035104 -2.319072,-2.674031 1.064881,-1.041216 0.638929,-2.768687 0.02367,-3.715247 -0.5916,-0.94656 -1.325184,-0.686256 -2.106095,-1.561823 -0.804576,-0.8755676 0.307632,-3.1473112 1.325183,-1.3961756 3.809904,6.5549256 6.318286,3.8335666 9.41827,3.4312786 2.981663,-0.378624 5.63203,1.254191 6.436605,-3.3602867 0.141984,-0.7572482 0.875568,-0.9228964 0.94656,0.3076322 0.071,1.2541905 0.544273,4.2831825 2.177087,4.6618055 1.632816,0.402288 2.958,-0.378623 3.336623,-0.804575 0.378624,-0.425953 0.5916,-0.378624 0.757248,0.70992 0.165649,1.064879 0.5916,2.555711 2.887007,0.899231 4.709135,-3.360286 3.360287,-4.661807 5.206079,-5.5373746 1.041216,-0.4969436 2.697695,1.1122076 0.307632,2.3190726 -3.407616,1.727471 -3.762575,3.85723 -5.915998,5.206077 -3.620591,2.271744 -2.508384,0.09465 -8.329726,-0.733583 -2.248079,-0.307633 -2.957999,2.177087 -4.709134,1.467167 -3.999215,-1.656479 -6.81523,-1.325184 -9.441933,0.780912 z M 64.452671,6.4848668 c 0.141984,0.9938873 0.307632,0.9702241 0.662592,1.041216 0.35496,0.094653 0.804576,-0.4732804 0.804576,-0.9938884 0.02367,-0.5442712 -0.23664,-0.8755677 -0.757248,-0.8519034 -0.544272,0.023669 -0.733583,0.2839678 -0.70992,0.8045758 z m 17.511355,1.7747999 c 0.425952,0.4022874 1.561823,0.1419839 1.822128,-0.1656483 0.686255,-0.7572482 0.709919,-1.2068631 0.354959,-1.7274711 -0.354959,-0.4969448 -1.088543,-0.4259518 -1.822127,0.1183195 -0.733584,0.5442724 -0.5916,1.561824 -0.35496,1.7747999 z m -0.307632,5.0167663 c -0.35496,0.473279 -0.378624,0.828239 -0.11832,1.088544 0.283968,0.283967 0.851904,0.520608 1.254192,0.212975 0.402288,-0.331296 0.402288,-0.804575 0.071,-1.206864 -0.354961,-0.425952 -0.828241,-0.425952 -1.206865,-0.09465 z M 45.734452,7.3604346 c 0.544273,0.1656482 0.804576,0.6862562 1.254192,0.094653 0.23664,-0.2839678 0.260305,-0.6862562 -0.04733,-1.1122079 -0.189313,-0.2603035 -1.088544,-0.4496161 -1.467168,-0.070995 -0.378624,0.3786241 -0.02367,0.9938874 0.260303,1.0885437 z M 34.63604,7.0291392 c 0.993888,0.6152632 1.632815,1.5381586 2.390063,0.7099195 0.260304,-0.2839678 0.567936,-0.7809115 0.02367,-1.7747999 C 36.647484,5.2306749 35.345964,4.9467071 34.896348,5.2306749 34.423069,5.4909795 33.855133,6.5558588 34.636045,7.0291392 Z m 9.157965,4.7091338 c 0.307633,0.331296 0.851904,0.307632 1.1832,0.11832 0.307632,-0.189312 0.260304,-0.686255 -0.04733,-1.112207 -0.189313,-0.260305 -0.757248,-0.402288 -1.135873,0 -0.378624,0.402287 -0.212975,0.757247 0,0.993887 z"
     id="path4"
     inkscape:connector-curvature="0"
     style="fill:#41bf47;stroke-width:0.23663993" /></g>
</svg>