<?xml version="1.0" encoding="UTF-8" standalone="no"?>
<svg
   xmlns:dc="http://purl.org/dc/elements/1.1/"
   xmlns:cc="http://creativecommons.org/ns#"
   xmlns:rdf="http://www.w3.org/1999/02/22-rdf-syntax-ns#"
   xmlns:svg="http://www.w3.org/2000/svg"
   xmlns="http://www.w3.org/2000/svg"
   xmlns:sodipodi="http://sodipodi.sourceforge.net/DTD/sodipodi-0.dtd"
   xmlns:inkscape="http://www.inkscape.org/namespaces/inkscape"
   height="60"
   viewBox="0 0 60 30"
   width="120"
   id="svg2"
   version="1.1"
   inkscape:version="0.91 r13725"
   sodipodi:docname="simpleshareio-ar21.svg"
   style="fill:#1c73ff">
  <metadata
     id="metadata12">
    <rdf:RDF>
      <cc:Work
         rdf:about="">
        <dc:format>image/svg+xml</dc:format>
        <dc:type
           rdf:resource="http://purl.org/dc/dcmitype/StillImage" />
        <dc:title></dc:title>
      </cc:Work>
    </rdf:RDF>
  </metadata>
  <defs
     id="defs10" />
  <sodipodi:namedview
     pagecolor="#ffffff"
     bordercolor="#666666"
     borderopacity="1"
     objecttolerance="10"
     gridtolerance="10"
     guidetolerance="10"
     inkscape:pageopacity="0"
     inkscape:pageshadow="2"
     inkscape:window-width="1578"
     inkscape:window-height="913"
     id="namedview8"
     showgrid="false"
     inkscape:zoom="4.9166667"
     inkscape:cx="65.920151"
     inkscape:cy="24"
     inkscape:window-x="65"
     inkscape:window-y="24"
     inkscape:window-maximized="0"
     inkscape:current-layer="svg2" />
  <path
     d="M 0,6 24,6 24,30 0,30 Z"
     id="path4"
     inkscape:connector-curvature="0"
     style="fill:none" />
  <path
     d="m 17.917398,18.929719 c -0.724899,0 -1.373494,0.286145 -1.869478,0.734438 L 9.2472185,15.705824 c 0.047696,-0.219379 0.085839,-0.438756 0.085839,-0.667672 0,-0.228915 -0.038155,-0.448293 -0.085839,-0.66767 l 6.7243965,-3.92018 c 0.51506,0.476907 1.192269,0.77259 1.945783,0.77259 1.583334,0 2.861446,-1.2781127 2.861446,-2.8614457 C 20.778844,6.7781125 19.500732,5.5 17.917398,5.5 c -1.583333,0 -2.861445,1.2781125 -2.861445,2.8614463 0,0.2289151 0.03815,0.4482922 0.08584,0.6676703 L 8.4173953,12.949297 c -0.5150567,-0.476907 -1.192266,-0.77259 -1.94578,-0.77259 -1.5833334,0 -2.8614458,1.278112 -2.8614458,2.861445 0,1.583334 1.2781124,2.861446 2.8614458,2.861446 0.753514,0 1.4307233,-0.295682 1.9457832,-0.77259 l 6.7911645,3.967872 c -0.0477,0.200301 -0.07631,0.41014 -0.07631,0.61998 0,1.535642 1.249498,2.78514 2.78514,2.78514 1.535643,0 2.785141,-1.249498 2.785141,-2.78514 0,-1.535643 -1.249498,-2.785141 -2.785141,-2.785141 z"
     id="path6"
     inkscape:connector-curvature="0" />
  <g
     style="font-style:normal;font-variant:normal;font-weight:800;font-stretch:normal;font-size:11.48730373px;line-height:89.99999762%;font-family:Lato;-inkscape-font-specification:'Lato, Ultra-Bold';text-align:center;letter-spacing:0px;word-spacing:0px;writing-mode:lr-tb;text-anchor:middle;fill:#1c73ff;fill-opacity:1;stroke:none;stroke-width:1px;stroke-linecap:butt;stroke-linejoin:miter;stroke-opacity:1"
     id="text4140">
    <path
       d="m 28.669288,7.332223 q -0.08041,0.132104 -0.166566,0.1952842 -0.08041,0.057437 -0.212515,0.057437 -0.12636,0 -0.275695,-0.086155 Q 27.87092,7.4068905 27.675636,7.3035048 27.480352,7.200119 27.227631,7.1139643 q -0.25272,-0.091899 -0.591596,-0.091899 -0.59734,0 -0.896009,0.2699517 -0.29867,0.264208 -0.29867,0.6949818 0,0.2756953 0.160822,0.4594922 0.166566,0.1780532 0.430774,0.3101572 0.269951,0.132104 0.608827,0.2354897 0.338875,0.1033858 0.694982,0.2297461 0.356106,0.1206167 0.694982,0.2871826 0.338875,0.1665659 0.603083,0.4192866 0.269952,0.2527203 0.430774,0.6203143 0.166566,0.36185 0.166566,0.884522 0,0.568622 -0.201028,1.06832 -0.195284,0.493954 -0.568621,0.867291 -0.373338,0.367594 -0.924728,0.580109 -0.545647,0.212515 -1.240629,0.212515 -0.396312,0 -0.792624,-0.08041 -0.390568,-0.08041 -0.758162,-0.224002 -0.36185,-0.143592 -0.683495,-0.34462 -0.321644,-0.201027 -0.562878,-0.448004 l 0.505442,-0.815599 q 0.06318,-0.0919 0.166566,-0.149335 0.103385,-0.06318 0.218258,-0.06318 0.155079,0 0.327389,0.114873 0.172309,0.114873 0.396312,0.252721 0.224002,0.137847 0.516928,0.25272 0.29867,0.114873 0.712213,0.114873 0.603083,0 0.930472,-0.275695 0.333131,-0.275695 0.333131,-0.821342 0,-0.315901 -0.166565,-0.511185 -0.160823,-0.195284 -0.425031,-0.327388 -0.264208,-0.132104 -0.603083,-0.224003 -0.338876,-0.09764 -0.694982,-0.212515 Q 25.360945,10.28446 25.022069,10.123638 24.683194,9.9628156 24.418986,9.6986076 24.154778,9.4343996 23.988212,9.0438313 23.82739,8.653263 23.82739,8.0731541 q 0,-0.4652358 0.183796,-0.9017533 0.183797,-0.4365176 0.539904,-0.775393 0.356106,-0.3388755 0.873035,-0.5456469 0.522672,-0.2067715 1.194679,-0.2067715 0.752419,0 1.389964,0.2354897 0.643289,0.2297461 1.08555,0.643289 l -0.42503,0.8098549 z"
       style="font-style:normal;font-variant:normal;font-weight:800;font-stretch:normal;font-size:11.48730373px;line-height:89.99999762%;font-family:Lato;-inkscape-font-specification:'Lato, Ultra-Bold';text-align:center;writing-mode:lr-tb;text-anchor:middle"
       id="path4147" />
    <path
       d="m 31.894708,8.1478216 0,5.9217054 -1.585248,0 0,-5.9217054 1.585248,0 z m 0.18954,-1.68289 q 0,0.2010278 -0.08041,0.3733374 -0.08041,0.1723095 -0.218259,0.3044135 -0.132104,0.132104 -0.315901,0.2067715 -0.178053,0.074668 -0.384824,0.074668 -0.195284,0 -0.373338,-0.074668 -0.172309,-0.074667 -0.304413,-0.2067715 -0.132104,-0.132104 -0.212515,-0.3044135 -0.07467,-0.1723096 -0.07467,-0.3733374 0,-0.2010278 0.07467,-0.3733374 0.08041,-0.1780532 0.212515,-0.3101572 0.132104,-0.132104 0.304413,-0.2067714 0.178054,-0.074668 0.373338,-0.074668 0.206771,0 0.384824,0.074668 0.183797,0.074667 0.315901,0.2067714 0.137848,0.132104 0.218259,0.3101572 0.08041,0.1723096 0.08041,0.3733374 z"
       style="font-style:normal;font-variant:normal;font-weight:800;font-stretch:normal;font-size:11.48730373px;line-height:89.99999762%;font-family:Lato;-inkscape-font-specification:'Lato, Ultra-Bold';text-align:center;writing-mode:lr-tb;text-anchor:middle"
       id="path4149" />
    <path
       d="m 33.247517,14.069527 0,-5.9217054 0.976421,0 q 0.29867,0 0.396312,0.2756953 l 0.0919,0.3848247 q 0.155079,-0.1608223 0.315901,-0.2986699 0.166566,-0.1378477 0.356106,-0.2354898 0.189541,-0.1033857 0.4078,-0.1608222 0.224002,-0.057436 0.482466,-0.057436 0.545647,0 0.901754,0.2929262 0.356106,0.2871826 0.539903,0.7696494 0.143591,-0.281439 0.350363,-0.4824668 0.212515,-0.2067715 0.459492,-0.3331318 0.252721,-0.1263603 0.528416,-0.1837969 0.281439,-0.06318 0.562878,-0.06318 0.499697,0 0.884522,0.1493349 0.384825,0.149335 0.643289,0.4422612 0.264208,0.2871826 0.402056,0.7064692 0.137847,0.4192866 0.137847,0.9534465 l 0,3.762092 -1.585247,0 0,-3.762092 q 0,-1.0396013 -0.890267,-1.0396013 -0.201027,0 -0.373337,0.068924 -0.166566,0.06318 -0.29867,0.1952842 -0.12636,0.132104 -0.201028,0.3273882 -0.06892,0.1952841 -0.06892,0.4480051 l 0,3.762092 -1.585248,0 0,-3.762092 q 0,-0.5628782 -0.224003,-0.7983679 -0.218259,-0.2412334 -0.649032,-0.2412334 -0.275696,0 -0.522673,0.132104 -0.241233,0.1263603 -0.453748,0.3561064 l 0,4.3134829 -1.585248,0 z"
       style="font-style:normal;font-variant:normal;font-weight:800;font-stretch:normal;font-size:11.48730373px;line-height:89.99999762%;font-family:Lato;-inkscape-font-specification:'Lato, Ultra-Bold';text-align:center;writing-mode:lr-tb;text-anchor:middle"
       id="path4151" />
    <path
       d="m 42.939929,15.982163 0,-7.8343414 0.976421,0 q 0.29867,0 0.396312,0.2756953 l 0.120617,0.4996977 q 0.178053,-0.1952842 0.379081,-0.3561064 0.201028,-0.1665659 0.430774,-0.281439 0.229746,-0.1206166 0.493954,-0.1837968 0.264208,-0.068924 0.574365,-0.068924 0.476723,0 0.873035,0.2067714 0.402056,0.2010278 0.689238,0.5915962 0.287183,0.3848246 0.448005,0.9477025 0.160822,0.5628783 0.160822,1.2865783 0,0.666263 -0.183797,1.234885 -0.178053,0.562878 -0.511185,0.976421 -0.333131,0.413543 -0.804111,0.649032 -0.465236,0.229746 -1.039601,0.229746 -0.482467,0 -0.821342,-0.143591 -0.333132,-0.143591 -0.59734,-0.390568 l 0,2.360641 -1.585248,0 z m 2.825877,-6.7143293 q -0.419287,0 -0.706469,0.1665659 -0.281439,0.1665659 -0.53416,0.4767231 l 0,2.5961303 q 0.224003,0.258465 0.482467,0.36185 0.264208,0.103386 0.562878,0.103386 0.287182,0 0.522672,-0.109129 0.23549,-0.10913 0.402056,-0.338876 0.172309,-0.235489 0.264208,-0.597339 0.0919,-0.361851 0.0919,-0.861548 0,-0.493954 -0.08041,-0.838573 Q 46.696278,9.8824045 46.552686,9.6698893 46.414839,9.4573742 46.213811,9.3654758 46.012783,9.2678337 45.765806,9.2678337 Z"
       style="font-style:normal;font-variant:normal;font-weight:800;font-stretch:normal;font-size:11.48730373px;line-height:89.99999762%;font-family:Lato;-inkscape-font-specification:'Lato, Ultra-Bold';text-align:center;writing-mode:lr-tb;text-anchor:middle"
       id="path4153" />
    <path
       d="m 51.088018,5.5057417 0,8.5637853 -1.585248,0 0,-8.5637853 1.585248,0 z"
       style="font-style:normal;font-variant:normal;font-weight:800;font-stretch:normal;font-size:11.48730373px;line-height:89.99999762%;font-family:Lato;-inkscape-font-specification:'Lato, Ultra-Bold';text-align:center;writing-mode:lr-tb;text-anchor:middle"
       id="path4155" />
    <path
       d="m 54.975394,8.0559232 q 0.568621,0 1.045344,0.1837968 0.482467,0.1780532 0.827086,0.5226723 0.350363,0.3446192 0.539903,0.8500605 0.195284,0.4996982 0.195284,1.1429872 0,0.178053 -0.01723,0.292926 -0.01723,0.114873 -0.05744,0.183797 -0.04021,0.06892 -0.109129,0.09764 -0.06892,0.02297 -0.178054,0.02297 l -3.55532,0 q 0.07467,0.83283 0.470979,1.217655 0.402056,0.384824 1.051089,0.384824 0.327388,0 0.562878,-0.07467 0.241233,-0.08041 0.419286,-0.17231 0.183797,-0.09764 0.327388,-0.172309 0.149335,-0.08041 0.292927,-0.08041 0.183796,0 0.287182,0.137848 l 0.459492,0.574365 q -0.25272,0.292927 -0.557134,0.488211 -0.304414,0.18954 -0.631802,0.304413 -0.327388,0.10913 -0.66052,0.149335 -0.333131,0.04595 -0.643289,0.04595 -0.620314,0 -1.160217,-0.201027 -0.53416,-0.206772 -0.936216,-0.603084 -0.396312,-0.402055 -0.626058,-0.993652 -0.229746,-0.591596 -0.229746,-1.372732 0,-0.603084 0.195284,-1.1372434 0.201028,-0.5341597 0.574366,-0.9304717 0.373337,-0.3963119 0.907497,-0.626058 0.534159,-0.2354897 1.206167,-0.2354897 z m 0.02872,1.1142684 q -0.568622,0 -0.890266,0.3273882 -0.321645,0.3216445 -0.419287,0.9132402 l 2.46977,0 q 0,-0.246977 -0.06892,-0.470979 Q 56.032225,9.7158386 55.888634,9.543529 55.745043,9.3712194 55.526784,9.2735774 55.308525,9.1701916 55.004112,9.1701916 Z"
       style="font-style:normal;font-variant:normal;font-weight:800;font-stretch:normal;font-size:11.48730373px;line-height:89.99999762%;font-family:Lato;-inkscape-font-specification:'Lato, Ultra-Bold';text-align:center;writing-mode:lr-tb;text-anchor:middle"
       id="path4157" />
    <path
       d="m 31.485024,17.670796 q -0.08041,0.132104 -0.166566,0.195284 -0.08041,0.05744 -0.212515,0.05744 -0.126361,0 -0.275696,-0.08616 -0.143591,-0.0919 -0.338875,-0.195284 -0.195284,-0.103386 -0.448005,-0.189541 -0.252721,-0.0919 -0.591596,-0.0919 -0.59734,0 -0.89601,0.269952 -0.29867,0.264208 -0.29867,0.694981 0,0.275696 0.160823,0.459493 0.166565,0.178053 0.430773,0.310157 0.269952,0.132104 0.608828,0.23549 0.338875,0.103385 0.694981,0.229746 0.356107,0.120616 0.694982,0.287182 0.338876,0.166566 0.603084,0.419287 0.269951,0.25272 0.430774,0.620314 0.166565,0.36185 0.166565,0.884523 0,0.568621 -0.201027,1.068319 -0.195284,0.493954 -0.568622,0.867291 -0.373337,0.367594 -0.924728,0.580109 -0.545647,0.212515 -1.240629,0.212515 -0.396312,0 -0.792624,-0.08041 -0.390568,-0.08041 -0.758162,-0.224002 -0.36185,-0.143592 -0.683494,-0.344619 -0.321645,-0.201028 -0.562878,-0.448005 l 0.505441,-0.815599 q 0.06318,-0.0919 0.166566,-0.149335 0.103386,-0.06318 0.218259,-0.06318 0.155079,0 0.327388,0.114873 0.17231,0.114873 0.396312,0.252721 0.224003,0.137847 0.516929,0.25272 0.29867,0.114873 0.712213,0.114873 0.603083,0 0.930471,-0.275695 0.333132,-0.275695 0.333132,-0.821342 0,-0.315901 -0.166566,-0.511185 -0.160822,-0.195284 -0.42503,-0.327388 -0.264208,-0.132104 -0.603084,-0.224003 -0.338875,-0.09764 -0.694981,-0.212515 -0.356107,-0.114873 -0.694982,-0.275695 -0.338876,-0.160822 -0.603084,-0.42503 -0.264208,-0.264208 -0.430774,-0.654777 -0.160822,-0.390568 -0.160822,-0.970677 0,-0.465236 0.183797,-0.901753 0.183797,-0.436518 0.539903,-0.775393 0.356107,-0.338876 0.873035,-0.545647 0.522673,-0.206772 1.19468,-0.206772 0.752418,0 1.389964,0.23549 0.643289,0.229746 1.08555,0.643289 l -0.42503,0.809855 z"
       style="font-style:normal;font-variant:normal;font-weight:800;font-stretch:normal;font-size:11.48730373px;line-height:89.99999762%;font-family:Lato;-inkscape-font-specification:'Lato, Ultra-Bold';text-align:center;writing-mode:lr-tb;text-anchor:middle"
       id="path4159" />
    <path
       d="m 33.011938,24.4081 0,-8.563785 1.585248,0 0,3.227932 q 0.333131,-0.304413 0.729443,-0.48821 0.396312,-0.189541 0.941959,-0.189541 0.482467,0 0.855804,0.166566 0.373338,0.166566 0.626058,0.465236 0.258465,0.29867 0.384825,0.712213 0.132104,0.413543 0.132104,0.907497 l 0,3.762092 -1.579504,0 0,-3.762092 q 0,-0.493954 -0.229746,-0.763906 -0.229746,-0.275695 -0.677751,-0.275695 -0.338876,0 -0.631802,0.149335 -0.287182,0.143591 -0.55139,0.396312 l 0,4.256046 -1.585248,0 z"
       style="font-style:normal;font-variant:normal;font-weight:800;font-stretch:normal;font-size:11.48730373px;line-height:89.99999762%;font-family:Lato;-inkscape-font-specification:'Lato, Ultra-Bold';text-align:center;writing-mode:lr-tb;text-anchor:middle"
       id="path4161" />
    <path
       d="m 43.435589,24.4081 q -0.224003,0 -0.344619,-0.06318 -0.114873,-0.06318 -0.189541,-0.264208 l -0.12636,-0.373338 q -0.224003,0.195284 -0.436518,0.344619 -0.206771,0.143592 -0.436517,0.246977 -0.224003,0.09764 -0.482467,0.149335 -0.252721,0.05169 -0.562878,0.05169 -0.390568,0 -0.712213,-0.103386 -0.321644,-0.103385 -0.557134,-0.304413 -0.229746,-0.206772 -0.356106,-0.511185 -0.126361,-0.304414 -0.126361,-0.700726 0,-0.327388 0.166566,-0.649032 0.166566,-0.327388 0.568622,-0.591596 0.407799,-0.269952 1.079806,-0.448005 0.677751,-0.178053 1.694378,-0.201028 l 0,-0.304414 q 0,-0.557134 -0.23549,-0.815598 -0.23549,-0.264208 -0.677751,-0.264208 -0.327388,0 -0.545647,0.08041 -0.218259,0.07467 -0.384825,0.166566 -0.160822,0.08616 -0.304413,0.166566 -0.143591,0.07467 -0.333132,0.07467 -0.166566,0 -0.281439,-0.08041 -0.109129,-0.08616 -0.183797,-0.201028 l -0.281439,-0.505441 q 0.522673,-0.47098 1.154474,-0.700726 0.631802,-0.235489 1.366989,-0.235489 0.528416,0 0.941959,0.172309 0.419287,0.17231 0.70647,0.482467 0.292926,0.304414 0.448004,0.729444 0.155079,0.42503 0.155079,0.930471 l 0,3.721887 -0.7237,0 z m -2.084946,-0.976421 q 0.390569,0 0.683495,-0.137848 0.292926,-0.143591 0.580109,-0.436517 l 0,-0.918985 q -0.580109,0.02297 -0.964934,0.09764 -0.384825,0.07467 -0.614571,0.18954 -0.224002,0.109129 -0.321644,0.258464 -0.0919,0.143592 -0.0919,0.315901 0,0.344619 0.189541,0.488211 0.195284,0.143591 0.539903,0.143591 z"
       style="font-style:normal;font-variant:normal;font-weight:800;font-stretch:normal;font-size:11.48730373px;line-height:89.99999762%;font-family:Lato;-inkscape-font-specification:'Lato, Ultra-Bold';text-align:center;writing-mode:lr-tb;text-anchor:middle"
       id="path4163" />
    <path
       d="m 45.396687,24.4081 0,-5.921705 0.936215,0 q 0.241233,0 0.333132,0.08615 0.0919,0.08616 0.132104,0.29867 l 0.08041,0.591597 q 0.281439,-0.505442 0.649032,-0.798368 0.373338,-0.292926 0.867292,-0.292926 0.402055,0 0.654776,0.18954 l -0.103386,1.171705 q -0.02872,0.114873 -0.0919,0.160822 -0.05744,0.04021 -0.160822,0.04021 -0.0919,0 -0.264208,-0.02297 -0.17231,-0.02872 -0.321645,-0.02872 -0.436517,0 -0.694982,0.241233 -0.25272,0.23549 -0.430774,0.66052 l 0,3.624245 -1.585247,0 z"
       style="font-style:normal;font-variant:normal;font-weight:800;font-stretch:normal;font-size:11.48730373px;line-height:89.99999762%;font-family:Lato;-inkscape-font-specification:'Lato, Ultra-Bold';text-align:center;writing-mode:lr-tb;text-anchor:middle"
       id="path4165" />
    <path
       d="m 52.159657,18.394496 q 0.568622,0 1.045345,0.183797 0.482467,0.178053 0.827086,0.522672 0.350363,0.34462 0.539903,0.850061 0.195284,0.499698 0.195284,1.142987 0,0.178053 -0.01723,0.292926 -0.01723,0.114873 -0.05744,0.183797 -0.04021,0.06892 -0.109129,0.09764 -0.06892,0.02297 -0.178054,0.02297 l -3.55532,0 q 0.07467,0.83283 0.470979,1.217655 0.402056,0.384824 1.051089,0.384824 0.327388,0 0.562877,-0.07467 0.241234,-0.08041 0.419287,-0.17231 0.183797,-0.09764 0.327388,-0.172309 0.149335,-0.08041 0.292926,-0.08041 0.183797,0 0.287183,0.137847 l 0.459492,0.574365 q -0.25272,0.292927 -0.557134,0.488211 -0.304414,0.18954 -0.631802,0.304413 -0.327388,0.10913 -0.66052,0.149335 -0.333132,0.04595 -0.643289,0.04595 -0.620314,0 -1.160217,-0.201028 -0.53416,-0.206772 -0.936216,-0.603084 -0.396312,-0.402055 -0.626058,-0.993651 -0.229746,-0.591597 -0.229746,-1.372733 0,-0.603084 0.195284,-1.137243 0.201028,-0.53416 0.574366,-0.930472 0.373337,-0.396312 0.907497,-0.626058 0.534159,-0.23549 1.206166,-0.23549 z m 0.02872,1.114269 q -0.568622,0 -0.890266,0.327388 -0.321645,0.321644 -0.419287,0.913241 l 2.46977,0 q 0,-0.246978 -0.06892,-0.47098 -0.06318,-0.224002 -0.206772,-0.396312 -0.143591,-0.172309 -0.36185,-0.269952 -0.218259,-0.103385 -0.522672,-0.103385 z"
       style="font-style:normal;font-variant:normal;font-weight:800;font-stretch:normal;font-size:11.48730373px;line-height:89.99999762%;font-family:Lato;-inkscape-font-specification:'Lato, Ultra-Bold';text-align:center;writing-mode:lr-tb;text-anchor:middle"
       id="path4167" />
  </g>
</svg>
