<?xml version="1.0" encoding="UTF-8" standalone="no"?>
<svg
   xmlns:dc="http://purl.org/dc/elements/1.1/"
   xmlns:cc="http://creativecommons.org/ns#"
   xmlns:rdf="http://www.w3.org/1999/02/22-rdf-syntax-ns#"
   xmlns:svg="http://www.w3.org/2000/svg"
   xmlns="http://www.w3.org/2000/svg"
   xmlns:sodipodi="http://sodipodi.sourceforge.net/DTD/sodipodi-0.dtd"
   xmlns:inkscape="http://www.inkscape.org/namespaces/inkscape"
   viewBox="0 0 64 64"
   width="64"
   height="64"
   version="1.1"
   id="svg146"
   sodipodi:docname="bocloud-icon.svg"
   inkscape:version="0.92.3 (2405546, 2018-03-11)">
  <metadata
     id="metadata152">
    <rdf:RDF>
      <cc:Work
         rdf:about="">
        <dc:format>image/svg+xml</dc:format>
        <dc:type
           rdf:resource="http://purl.org/dc/dcmitype/StillImage" />
        <dc:title></dc:title>
      </cc:Work>
    </rdf:RDF>
  </metadata>
  <defs
     id="defs150">
    <linearGradient
       gradientTransform="matrix(15.395282,-2.99003,-2.99003,-15.395282,-6430.4583,12414.072)"
       y2="696.66498"
       x2="555.65802"
       y1="696.66498"
       x1="554.65802"
       gradientUnits="userSpaceOnUse"
       id="a">
      <stop
         id="stop10"
         stop-color="#abbcd5"
         offset="0" />
      <stop
         id="stop12"
         stop-color="#d8effc"
         offset=".637" />
      <stop
         id="stop14"
         stop-color="#d8effc"
         offset="1" />
    </linearGradient>
    <linearGradient
       gradientTransform="matrix(15.395282,-2.99003,-2.99003,-15.395282,-6430.4583,12414.072)"
       y2="696.66302"
       x2="555.65802"
       y1="696.66302"
       x1="554.65802"
       gradientUnits="userSpaceOnUse"
       id="b">
      <stop
         id="stop19"
         stop-color="#abbcd5"
         offset="0" />
      <stop
         id="stop21"
         stop-color="#d8effc"
         offset=".637" />
      <stop
         id="stop23"
         stop-color="#d8effc"
         offset="1" />
    </linearGradient>
    <linearGradient
       gradientTransform="matrix(13.741452,-19.976006,-19.976006,-13.741452,6283.3482,20731.343)"
       y2="696.53802"
       x2="558.16998"
       y1="696.53802"
       x1="557.16998"
       gradientUnits="userSpaceOnUse"
       id="c">
      <stop
         id="stop28"
         stop-color="#7a7eb7"
         offset="0" />
      <stop
         id="stop30"
         stop-color="#9fd3f0"
         offset=".926" />
      <stop
         id="stop32"
         stop-color="#9fd3f0"
         offset="1" />
    </linearGradient>
    <linearGradient
       gradientTransform="matrix(15.395282,-2.99003,-2.99003,-15.395282,-6430.4583,12414.072)"
       y2="696.82898"
       x2="555.65802"
       y1="696.82898"
       x1="554.65802"
       gradientUnits="userSpaceOnUse"
       id="d">
      <stop
         id="stop37"
         stop-color="#abbcd5"
         offset="0" />
      <stop
         id="stop39"
         stop-color="#d8effc"
         offset=".637" />
      <stop
         id="stop41"
         stop-color="#d8effc"
         offset="1" />
    </linearGradient>
    <linearGradient
       gradientTransform="matrix(13.741452,-19.976006,-19.976006,-13.741452,6283.3482,20731.343)"
       y2="696.44202"
       x2="558.16998"
       y1="696.44202"
       x1="557.16998"
       gradientUnits="userSpaceOnUse"
       id="e">
      <stop
         id="stop46"
         stop-color="#7a7eb7"
         offset="0" />
      <stop
         id="stop48"
         stop-color="#9fd3f0"
         offset=".926" />
      <stop
         id="stop50"
         stop-color="#9fd3f0"
         offset="1" />
    </linearGradient>
    <linearGradient
       gradientTransform="matrix(-13.995612,-15.522441,-15.522441,13.995612,18648.637,-1006.1632)"
       y2="694.966"
       x2="560.849"
       y1="694.966"
       x1="559.849"
       gradientUnits="userSpaceOnUse"
       id="f">
      <stop
         id="stop55"
         stop-color="#abbcd5"
         offset="0" />
      <stop
         id="stop57"
         stop-color="#d8effc"
         offset=".637" />
      <stop
         id="stop59"
         stop-color="#d8effc"
         offset="1" />
    </linearGradient>
    <linearGradient
       gradientTransform="matrix(16.285884,17.812829,17.812829,-16.285884,-21368.306,1439.4705)"
       y2="693.60101"
       x2="556.03497"
       y1="693.60101"
       x1="555.03497"
       gradientUnits="userSpaceOnUse"
       id="g">
      <stop
         id="stop64"
         stop-color="#6765ae"
         offset="0" />
      <stop
         id="stop66"
         stop-color="#a1d7f5"
         offset=".865" />
      <stop
         id="stop68"
         stop-color="#a1d7f5"
         offset="1" />
    </linearGradient>
    <linearGradient
       gradientTransform="matrix(16.285884,17.812829,17.812829,-16.285884,-21368.306,1439.4705)"
       y2="693.60602"
       x2="556.03497"
       y1="693.60602"
       x1="555.03497"
       gradientUnits="userSpaceOnUse"
       id="h">
      <stop
         id="stop73"
         stop-color="#6765ae"
         offset="0" />
      <stop
         id="stop75"
         stop-color="#a1d7f5"
         offset=".865" />
      <stop
         id="stop77"
         stop-color="#a1d7f5"
         offset="1" />
    </linearGradient>
    <linearGradient
       gradientTransform="matrix(15.395282,-2.99003,-2.99003,-15.395282,-6430.4583,12414.072)"
       y2="696.66199"
       x2="555.65802"
       y1="696.66199"
       x1="554.65802"
       gradientUnits="userSpaceOnUse"
       id="i">
      <stop
         id="stop82"
         stop-color="#abbcd5"
         offset="0" />
      <stop
         id="stop84"
         stop-color="#d8effc"
         offset=".637" />
      <stop
         id="stop86"
         stop-color="#d8effc"
         offset="1" />
    </linearGradient>
    <linearGradient
       gradientTransform="matrix(16.285884,17.812829,17.812829,-16.285884,-21368.306,1439.4705)"
       y2="693.60101"
       x2="556.03497"
       y1="693.60101"
       x1="555.03497"
       gradientUnits="userSpaceOnUse"
       id="j">
      <stop
         id="stop91"
         stop-color="#6765ae"
         offset="0" />
      <stop
         id="stop93"
         stop-color="#a1d7f5"
         offset=".865" />
      <stop
         id="stop95"
         stop-color="#a1d7f5"
         offset="1" />
    </linearGradient>
    <linearGradient
       gradientTransform="matrix(-10.560342,16.222423,16.222423,10.560342,-5303.8123,-16311.858)"
       y2="691.33398"
       x2="558.32501"
       y1="691.33398"
       x1="557.32501"
       gradientUnits="userSpaceOnUse"
       id="k">
      <stop
         id="stop100"
         stop-color="#abbcd5"
         offset="0" />
      <stop
         id="stop102"
         stop-color="#d8effc"
         offset=".637" />
      <stop
         id="stop104"
         stop-color="#d8effc"
         offset="1" />
    </linearGradient>
    <linearGradient
       gradientTransform="matrix(-20.102469,4.0712628,4.0712628,20.102469,8449.1533,-16164.336)"
       y2="692.34998"
       x2="560.255"
       y1="692.34998"
       x1="559.255"
       gradientUnits="userSpaceOnUse"
       id="l">
      <stop
         id="stop109"
         stop-color="#7c7ab8"
         offset="0" />
      <stop
         id="stop111"
         stop-color="#a1d7f5"
         offset=".998" />
      <stop
         id="stop113"
         stop-color="#a1d7f5"
         offset="1" />
    </linearGradient>
    <linearGradient
       gradientTransform="matrix(-10.560342,16.222423,16.222423,10.560342,-5303.8123,-16311.858)"
       y2="691.20599"
       x2="558.32501"
       y1="691.20599"
       x1="557.32501"
       gradientUnits="userSpaceOnUse"
       id="m">
      <stop
         id="stop118"
         stop-color="#abbcd5"
         offset="0" />
      <stop
         id="stop120"
         stop-color="#d8effc"
         offset=".637" />
      <stop
         id="stop122"
         stop-color="#d8effc"
         offset="1" />
    </linearGradient>
    <linearGradient
       gradientTransform="matrix(-20.102469,4.0712628,4.0712628,20.102469,8449.1533,-16164.336)"
       y2="692.51703"
       x2="560.255"
       y1="692.51703"
       x1="559.255"
       gradientUnits="userSpaceOnUse"
       id="n">
      <stop
         id="stop127"
         stop-color="#7c7ab8"
         offset="0" />
      <stop
         id="stop129"
         stop-color="#a1d7f5"
         offset=".998" />
      <stop
         id="stop131"
         stop-color="#a1d7f5"
         offset="1" />
    </linearGradient>
  </defs>
  <sodipodi:namedview
     pagecolor="#ffffff"
     bordercolor="#666666"
     borderopacity="1"
     objecttolerance="10"
     gridtolerance="10"
     guidetolerance="10"
     inkscape:pageopacity="0"
     inkscape:pageshadow="2"
     inkscape:window-width="1920"
     inkscape:window-height="1001"
     id="namedview148"
     showgrid="false"
     inkscape:zoom="4.794184"
     inkscape:cx="38.016097"
     inkscape:cy="17.594384"
     inkscape:window-x="-9"
     inkscape:window-y="-9"
     inkscape:window-maximized="1"
     inkscape:current-layer="svg146" />
  <path
     style="fill:none;stroke-width:0.06413545"
     inkscape:connector-curvature="0"
     id="path4"
     d="m 61.782455,47.385001 h -0.840174 v 3.02078 c 0.218061,0.02565 0.50667,0.03848 0.891483,0.03848 1.083889,0 2.045921,-0.410467 2.045921,-1.552078 0.0064,-1.071062 -0.929964,-1.507183 -2.09723,-1.507182 z M 63.63597,44.81317 c 0,-0.865829 -0.660595,-1.263469 -1.731657,-1.263469 -0.493843,0 -0.782453,0.02566 -0.962032,0.07055 v 2.526937 h 0.865829 c 1.167265,0 1.82786,-0.551565 1.82786,-1.334018 z m 8.632631,-19.503591 h 3.777578 v 1.667522 H 72.268601 Z M 70.11365,46.02533 c -1.192919,0 -1.673935,1.154438 -1.673935,2.270395 0,1.289122 0.634941,2.270395 1.661108,2.270395 0.962032,0 1.635454,-0.949205 1.635454,-2.29605 0,-1.051821 -0.468189,-2.24474 -1.622627,-2.24474 z M 65.983327,25.309579 h 3.777578 v 1.667522 h -3.777578 z m 0,-2.943817 h 3.777578 v 1.481529 h -3.777578 z m -37.352486,11.717547 -0.08979,0.06414 h 0.0064 z M 76.046179,23.629231 c 0,-0.05772 0.01283,-0.500257 -0.365572,-0.897897 -0.346331,-0.359158 -0.808106,-0.371985 -0.827347,-0.371985 h -2.591072 v 1.481529 h 3.777578 v -0.211647 z m 28.072081,22.14597 c -1.25064,0 -1.99461,1.096717 -1.99461,2.571832 0,1.346844 0.66059,2.462801 1.96254,2.462801 0.80811,0 1.55208,-0.538737 1.77014,-1.443047 0.0385,-0.166752 0.0577,-0.327091 0.0577,-0.519497 v -1.154439 c 0,-0.153925 -0.0128,-0.359158 -0.0577,-0.50667 -0.17316,-0.776039 -0.82734,-1.41098 -1.73807,-1.41098 z M 89.052849,45.73672 c -1.430221,0 -2.045921,1.32119 -2.045921,2.584659 0,1.455875 0.840174,2.559004 2.020267,2.559004 1.154438,0 2.020266,-1.083889 2.020266,-2.584658 0,-1.135198 -0.564392,-2.559005 -1.994612,-2.559005 z"
     class="st0" />
  <g
     id="g1058"
     transform="matrix(1.5643344,0,0,1.5643344,-6.9365008,-13.72096)">
    <path
       class="st2"
       d="m 25.893861,30.147444 0.03207,0.01924 8.869933,2.809133 c 0.0064,0 0.01283,0.0064 0.01924,0.0064 l 0.01283,0.0064 c 0.474603,0.147511 0.974859,0.224474 1.494356,0.224474 2.828374,0 5.118009,-2.289636 5.118009,-5.118009 0,-2.828373 -2.289635,-5.111595 -5.118009,-5.111595 -0.295023,0 -0.583632,0.02565 -0.859415,0.07055 l -9.492046,7.029245 z"
       id="path17"
       inkscape:connector-curvature="0"
       style="fill:url(#a);stroke-width:0.06413545" />
    <path
       d="m 25.887448,30.153858 h 0.0064 z"
       class="st3"
       id="path26"
       inkscape:connector-curvature="0"
       style="fill:url(#b);stroke-width:0.06413545" />
    <path
       class="st4"
       d="m 33.057791,24.163607 c 0.0064,-0.0064 0.01924,-0.01283 0.02565,-0.02565 l 0.01283,-0.0064 c 0.667009,-0.545151 1.481529,-0.92355 2.366598,-1.077475 l 4.079015,-3.027194 c 1.539251,-1.135197 2.53335,-2.963057 2.53335,-5.021805 0,-3.444074 -2.789892,-6.2339661 -6.233965,-6.2339661 -2.943818,0 -5.406619,2.0395071 -6.067214,4.7780911 l -0.0064,0.02565 c 0,0.01283 -0.0064,0.02565 -0.0064,0.03848 l -3.880195,16.534119 0.08338,-0.06414 z"
       id="path35"
       inkscape:connector-curvature="0"
       style="fill:url(#c);stroke-width:0.06413545" />
    <path
       class="st5"
       d="m 33.096272,24.125126 -0.01283,0.0064 -0.02565,0.02565 -7.080554,5.919702 9.492047,-7.029245 c -0.891483,0.153925 -1.69959,0.532324 -2.373012,1.077476 z"
       id="path44"
       inkscape:connector-curvature="0"
       style="fill:url(#d);stroke-width:0.06413545" />
    <path
       class="st6"
       d="m 33.096272,24.125126 -0.01283,0.0064 -0.02565,0.02565 -7.080554,5.919702 9.492047,-7.029245 c -0.891483,0.153925 -1.69959,0.532324 -2.373012,1.077476 z"
       id="path53"
       inkscape:connector-curvature="0"
       style="fill:url(#e);stroke-width:0.06413545" />
    <path
       class="st7"
       d="m 19.910024,16.493007 c -0.743971,-1.988199 -2.668035,-3.412006 -4.919189,-3.412006 -2.898923,0 -5.2526936,2.353771 -5.2526936,5.252694 0,1.968958 1.0838886,3.681374 2.6872756,4.579271 l 0.03848,0.01924 c 0.02565,0.01283 0.0449,0.02565 0.07055,0.03848 l 13.359414,7.170343 z"
       id="path62"
       inkscape:connector-curvature="0"
       style="fill:url(#f);stroke-width:0.06413545" />
    <path
       d="m 25.887448,30.147444 0.0064,0.0064 v -0.0064 z"
       class="st8"
       id="path71"
       inkscape:connector-curvature="0"
       style="fill:url(#g);stroke-width:0.06413545" />
    <path
       class="st9"
       d="m 40.895143,38.20927 -14.969214,-8.042585 -0.03207,-0.01283 6.945869,15.777321 c 0.05131,0.121857 0.0962,0.237301 0.153926,0.352745 v 0.0064 c 0.968445,2.00744 3.027193,3.392765 5.406618,3.392765 3.315803,0 6.009492,-2.687275 6.009492,-6.009491 0,-2.430734 -1.436634,-4.521549 -3.514623,-5.464341 z"
       id="path80"
       inkscape:connector-curvature="0"
       style="fill:url(#h);stroke-width:0.06413545" />
    <path
       d="m 25.893861,30.147444 v 0.0064 l 0.03207,0.01283 z"
       class="st10"
       id="path89"
       inkscape:connector-curvature="0"
       style="fill:url(#i);stroke-width:0.06413545" />
    <path
       d="m 25.893861,30.147444 v 0.0064 l 0.03207,0.01283 z"
       class="st11"
       id="path98"
       inkscape:connector-curvature="0"
       style="fill:url(#j);stroke-width:0.06413545" />
    <path
       class="st12"
       d="m 16.132446,38.260579 c -0.743972,0.551565 -1.6098,0.955618 -2.546178,1.160851 -0.564392,0.820934 -0.891482,1.815034 -0.891482,2.879682 0,2.82196 2.289635,5.111596 5.111595,5.111596 2.328117,0 4.284248,-1.552078 4.906362,-3.674962 l 0.0064,-0.02565 c 0.04489,-0.160339 0.08338,-0.320677 0.115444,-0.487429 l 3.052848,-13.077219 -9.17137,7.632119 c -0.185992,0.166752 -0.378399,0.333504 -0.583632,0.481016 z"
       id="path107"
       inkscape:connector-curvature="0"
       style="fill:url(#k);stroke-width:0.06413545" />
    <path
       class="st13"
       d="m 14.054457,26.363453 -0.01283,-0.0064 c -0.609287,-0.179579 -1.257055,-0.275782 -1.91765,-0.275782 -3.7262696,0 -6.7534628,3.02078 -6.7534628,6.753463 0,3.726269 3.0207797,6.753463 6.7534628,6.753463 0.50667,0 0.9941,-0.05772 1.468702,-0.160339 0.295023,-0.429707 0.660595,-0.820934 1.071062,-1.141611 l 0.03207,-0.02565 c 0.08979,-0.07055 0.185992,-0.141098 0.282196,-0.205234 L 25.900275,30.147444 14.317412,26.446829 c -0.0962,-0.03207 -0.179579,-0.05772 -0.262955,-0.08338 z"
       id="path116"
       inkscape:connector-curvature="0"
       style="fill:url(#l);stroke-width:0.06413545" />
    <path
       class="st14"
       d="m 14.682985,38.260579 -0.03207,0.02565 c -0.410467,0.320677 -0.776039,0.70549 -1.071062,1.141611 0.936377,-0.205233 1.795792,-0.609287 2.539764,-1.160852 0.205233,-0.147511 0.397639,-0.314263 0.583632,-0.487429 l 9.17137,-7.632119 -10.903027,7.907901 c -0.102617,0.06414 -0.192406,0.134685 -0.288609,0.205234 z"
       id="path125"
       inkscape:connector-curvature="0"
       style="fill:url(#m);stroke-width:0.06413545" />
    <path
       class="st15"
       d="m 14.682985,38.260579 -0.03207,0.02565 c -0.410467,0.320677 -0.776039,0.70549 -1.071062,1.141611 0.936377,-0.205233 1.795792,-0.609287 2.539764,-1.160852 0.205233,-0.147511 0.397639,-0.314263 0.583632,-0.487429 l 9.17137,-7.632119 -10.903027,7.907901 c -0.102617,0.06414 -0.192406,0.134685 -0.288609,0.205234 z"
       id="path134"
       inkscape:connector-curvature="0"
       style="fill:url(#n);stroke-width:0.06413545" />
  </g>
</svg>
