<svg xmlns="http://www.w3.org/2000/svg" width="64" height="64"><path d="M63.045 19.37l.327-.478c-21.216.126-37.405 19.833-37.405 19.833L2.187 30.73l2.665 6.008 21.216 7.34s16.64-24.03 36.977-24.7zM64 17.534L39.14 11.1S16.7 9.742 0 26.383L25.4 34.1S39.793 16.076 64 17.534zm-40.723-.126c0-1.13 3.268-2.112 7.2-2.112 4.022 0 7.2.98 7.2 2.112.025 1.156-3.218 2.112-7.2 2.112-4.022 0-7.2-.98-7.2-2.112zm38.988 3.77l.226-.553c-17.92 1.635-35.82 27.98-35.82 27.98L7.114 41.138l2.313 5.027 17.27 6.762c13.197-20.3 26.193-30.3 35.57-31.75z" fill="#9bca52"/></svg>