<svg xmlns="http://www.w3.org/2000/svg" width="64" height="64" fill="#00679a"><path d="M31.195 63.506a1.83 1.83 0 0 1-.506-.233c-.4-.273-1.023-.977-1.412-1.575-.535-.825-2.418-3.325-3.918-5.197-3.07-3.848-5.795-6.93-8.94-10.108-3.784-3.83-6.754-6.44-10.114-8.9-1.017-.744-3.005-2.07-3.546-2.36-1.4-.75-2.465-1.773-2.7-2.558-.1-.33-.087-1.08.017-1.442.203-.698 1.104-1.505 2.476-2.215 1.796-.93 3.825-2.418 6.5-4.772C13.67 20.108 20.68 12.87 26.144 6.512c1.657-1.924 2.523-3.034 3-3.854.738-1.244 1.4-1.947 1.994-2.162a3.08 3.08 0 0 1 1.418 0 2.08 2.08 0 0 1 .523.256c.4.273 1.116 1.075 1.535 1.715l.523.802c.186.273 2.563 3.25 3.5 4.377C45 15.272 51.3 21.718 56.492 25.862c2.284 1.82 4.685 3.46 6.074 4.133.6.296 1.163.78 1.32 1.15.157.36.15 1.064-.012 1.5-.15.4-.715.988-1.244 1.302-1.273.744-5.528 3.988-8.196 6.25-6.5 5.5-12.23 11.358-17.118 17.496-1.093 1.378-2.947 3.865-3.203 4.296a5.4 5.4 0 0 1-1.14 1.273c-.453.314-1.168.413-1.78.244zm1.75-8.027c2.244-.884 8.138-5.807 13.88-11.602 3.453-3.482 5.894-6.336 7.266-8.48.482-.76 1.035-1.883 1.163-2.377.157-.57.128-1.256-.064-1.86-.825-2.57-3.982-6.702-8.98-11.765-5.5-5.563-10.754-9.725-13.404-10.608-1-.33-1.482-.296-2.5.192C25.65 11.214 13.054 23.473 9.3 29.414c-.465.744-.9 1.628-1.058 2.145-.3.953.023 1.953 1.15 3.7 3.575 5.528 15.706 16.98 20.903 19.746 1.215.645 1.907.773 2.64.482zm-.948-1.2c-.837-.174-3.127-1.674-5.55-3.616-7.388-5.923-15.712-14.73-16.834-17.8-.215-.6-.186-.85.227-1.668 1.465-2.935 6.923-9.114 13.1-14.8 3.197-2.947 6.353-5.423 7.93-6.202.692-.35 1-.36 1.72-.08 4.325 1.716 15.77 12.496 19.903 18.74 1.215 1.837 1.668 2.96 1.5 3.697-.4 1.78-3.284 5.476-8.115 10.352-5.522 5.58-11.602 10.7-13.532 11.393-.07.023-.233.023-.36-.006zm1.866-6.946c-.017-.186-.105-2.412-.192-4.94l-.157-4.6H31.84c-.924 0-1.674.017-1.674.047a1862.95 1862.95 0 0 1-.349 4.778l-.35 4.9v.157h4.43zm.634-10.306c2.04-.145 3.743-.482 5.144-1.017a19.98 19.98 0 0 0 2.848-1.436c.738-.482 1.32-1.07 1.575-1.587a1.45 1.45 0 0 0 .198-.843c0-.942-.494-1.535-2.174-2.58-.14-.087-.227-.18-.203-.203.03-.03.267-.1.53-.18s.477-.145.465-.15a253.14 253.14 0 0 0-6.243-1.744c-.017.017.15.564.366 1.22l.4 1.197.378-.006c.2 0 .692-.023 1.075-.047l.698-.047.395.2c.535.285 1.314.872 1.598 1.2.692.83.703 1.5.035 2.226-.802.854-2.017 1.36-4.458 1.86a26.37 26.37 0 0 1-6.045.564c-2.162-.047-3.767-.33-5.307-.942-1.93-.76-2.883-1.57-2.9-2.44-.012-.982 1.436-2.087 3.918-2.988l.767-.285-.605-.35-1.738-1.023-1.133-.663-.75.262c-2.186.76-3.842 1.668-4.807 2.627-.64.645-.83 1.006-.854 1.662-.023.558.07.85.448 1.366.703.965 2.453 1.965 5.15 2.935 1.54.558 4.482 1.023 7.615 1.2a43.76 43.76 0 0 0 3.604-.017zm-1.174-2.83l-.262-8.98c.023-.023.674-.052 1.447-.058l1.4-.017-2.133-5.04-2.162-5.07c-.017-.017-.767 2.226-1.674 4.982L28.265 25.1c-.023.052.215.07 1.075.07.6 0 1.122.017 1.133.047.023.035-.18 6.522-.273 8.748l-.035.854h3.185z"/></svg>