<?xml version="1.0" encoding="UTF-8" standalone="no"?>
<svg
   xmlns:dc="http://purl.org/dc/elements/1.1/"
   xmlns:cc="http://creativecommons.org/ns#"
   xmlns:rdf="http://www.w3.org/1999/02/22-rdf-syntax-ns#"
   xmlns:svg="http://www.w3.org/2000/svg"
   xmlns="http://www.w3.org/2000/svg"
   xmlns:sodipodi="http://sodipodi.sourceforge.net/DTD/sodipodi-0.dtd"
   xmlns:inkscape="http://www.inkscape.org/namespaces/inkscape"
   id="Swift"
   viewBox="0 0 64 64"
   version="1.1"
   sodipodi:docname="swift-icon.svg"
   width="64"
   height="64"
   inkscape:version="0.92.2 (5c3e80d, 2017-08-06)">
  <metadata
     id="metadata18">
    <rdf:RDF>
      <cc:Work
         rdf:about="">
        <dc:format>image/svg+xml</dc:format>
        <dc:type
           rdf:resource="http://purl.org/dc/dcmitype/StillImage" />
        <dc:title>Artboard 2</dc:title>
      </cc:Work>
    </rdf:RDF>
  </metadata>
  <sodipodi:namedview
     pagecolor="#ffffff"
     bordercolor="#666666"
     borderopacity="1"
     objecttolerance="10"
     gridtolerance="10"
     guidetolerance="10"
     inkscape:pageopacity="0"
     inkscape:pageshadow="2"
     inkscape:window-width="1920"
     inkscape:window-height="1001"
     id="namedview16"
     showgrid="false"
     inkscape:zoom="1.84375"
     inkscape:cx="-2.1694915"
     inkscape:cy="64"
     inkscape:window-x="-9"
     inkscape:window-y="-9"
     inkscape:window-maximized="1"
     inkscape:current-layer="Swift" />
  <defs
     id="defs4">
    <style
       id="style2">.cls-1{fill:#f05138;}.cls-2{fill:#fefefe;}.cls-3{fill:#221f20;}</style>
  </defs>
  <title
     id="title6">Artboard 2</title>
  <g
     id="g833"
     transform="matrix(1.7587249,0,0,1.6725095,-1.7587245,41.023189)">
    <path
       class="cls-1"
       d="m 37.35,-14 a 11.24,11.24 0 0 0 -0.23,-2.26 7.42,7.42 0 0 0 -2.16,-4 6.83,6.83 0 0 0 -1.96,-1.35 8,8 0 0 0 -2.24,-0.73 c -0.77,-0.15 -1.62,-0.15 -2.39,-0.22 H 9.35 a 13.37,13.37 0 0 0 -1.77,0.15 6.41,6.41 0 0 0 -1.7,0.44 c -0.15,0.07 -0.39,0.15 -0.54,0.22 a 9.86,9.86 0 0 0 -1.47,0.95 c -0.15,0.15 -0.31,0.22 -0.46,0.36 A 6.47,6.47 0 0 0 2,-18.62 6.77,6.77 0 0 0 1.23,-16.43 22.44,22.44 0 0 0 1,-14.18 V 3.25 a 11.24,11.24 0 0 0 0.23,2.26 7.42,7.42 0 0 0 2.16,4 6.83,6.83 0 0 0 1.93,1.31 8,8 0 0 0 2.24,0.73 c 0.77,0.15 1.62,0.15 2.39,0.22 H 28.41 A 13.26,13.26 0 0 0 30.8,11.55 8,8 0 0 0 33,10.83 8.78,8.78 0 0 0 35,9.52 6.47,6.47 0 0 0 36.39,7.7 6.77,6.77 0 0 0 37.16,5.51 22.44,22.44 0 0 0 37.39,3.25 V -14 Z"
       id="path8"
       inkscape:connector-curvature="0"
       style="fill:#f05138" />
    <path
       class="cls-2"
       d="M 25.3,4 C 22.06,5.77 17.61,5.95 13.14,4.14 A 18.77,18.77 0 0 1 4.57,-2.8 14.61,14.61 0 0 0 7.74,-1 c 4.62,2 9.25,1.91 12.5,0 v 0 a 64.45,64.45 0 0 1 -11.5,-11.28 12.56,12.56 0 0 1 -1.54,-2 88.68,88.68 0 0 0 11.18,8 78.59,78.59 0 0 1 -7.87,-9.33 77.67,77.67 0 0 0 13,10.06 l 0.5,0.28 a 9.38,9.38 0 0 0 0.35,-1 c 1.08,-3.72 -0.15,-7.95 -2.85,-11.45 6.25,3.57 9.95,10.28 8.41,15.9 0,0.15 -0.08,0.3 -0.13,0.45 l 0.05,0.06 C 32.93,2.34 32.08,6.2 31.69,5.47 30,2.42 26.87,3.36 25.3,4 Z"
       id="path10"
       inkscape:connector-curvature="0"
       style="fill:#fefefe" />
  </g>
</svg>
