<?xml version="1.0" encoding="UTF-8" standalone="no"?>
<svg
   xmlns:dc="http://purl.org/dc/elements/1.1/"
   xmlns:cc="http://creativecommons.org/ns#"
   xmlns:rdf="http://www.w3.org/1999/02/22-rdf-syntax-ns#"
   xmlns:svg="http://www.w3.org/2000/svg"
   xmlns="http://www.w3.org/2000/svg"
   xmlns:sodipodi="http://sodipodi.sourceforge.net/DTD/sodipodi-0.dtd"
   xmlns:inkscape="http://www.inkscape.org/namespaces/inkscape"
   viewBox="0 0 112.5 56.250001"
   height="60"
   width="120"
   version="1.1"
   id="svg6"
   sodipodi:docname="mastodan-ar21.svg"
   inkscape:version="0.92.3 (2405546, 2018-03-11)">
  <metadata
     id="metadata12">
    <rdf:RDF>
      <cc:Work
         rdf:about="">
        <dc:format>image/svg+xml</dc:format>
        <dc:type
           rdf:resource="http://purl.org/dc/dcmitype/StillImage" />
        <dc:title />
      </cc:Work>
    </rdf:RDF>
  </metadata>
  <defs
     id="defs10" />
  <sodipodi:namedview
     pagecolor="#ffffff"
     bordercolor="#666666"
     borderopacity="1"
     objecttolerance="10"
     gridtolerance="10"
     guidetolerance="10"
     inkscape:pageopacity="0"
     inkscape:pageshadow="2"
     inkscape:window-width="1920"
     inkscape:window-height="1001"
     id="namedview8"
     showgrid="false"
     units="px"
     inkscape:zoom="3.5641252"
     inkscape:cx="65.624865"
     inkscape:cy="32.643662"
     inkscape:window-x="-9"
     inkscape:window-y="-9"
     inkscape:window-maximized="1"
     inkscape:current-layer="svg6" />
  <path
     style="fill:#3088d4;stroke-width:0.14456262"
     inkscape:connector-curvature="0"
     d="m 27.897714,32.529464 c -0.348758,1.79348 -3.122191,3.756098 -6.307809,4.136478 -1.661205,0.198412 -3.29657,0.38038 -5.040537,0.30051 -2.85222,-0.130649 -5.102699,-0.68089 -5.102699,-0.68089 0,0.277741 0.01717,0.542109 0.05132,0.789312 0.370803,2.814634 2.791143,2.98341 5.083725,3.062016 2.313905,0.07915 4.374103,-0.570661 4.374103,-0.570661 l 0.09523,2.092183 c 0,0 -1.618559,0.869002 -4.50168,1.028743 -1.590008,0.08746 -3.56401,-0.03993 -5.863459,-0.648363 -4.9866877,-1.320037 -5.8443054,-6.635604 -5.975496,-12.029235 -0.040116,-1.601393 -0.01536,-3.11153 -0.01536,-4.374284 0,-5.515425 3.6135232,-7.131997 3.6135232,-7.131997 1.8220308,-0.836836 4.9485588,-1.188666 8.1988688,-1.215229 h 0.07987 c 3.250309,0.02656 6.378825,0.378393 8.200856,1.215229 0,0 3.613523,1.616572 3.613523,7.131997 0,0 0.04518,4.069076 -0.503981,6.894191"
     id="path2" />
  <path
     style="fill:#ffffff;stroke-width:0.14456262"
     inkscape:connector-curvature="0"
     d="m 9.6976785,24.298466 c 0,-0.802864 0.6508935,-1.453577 1.4535775,-1.453577 0.802864,0 1.453577,0.650713 1.453577,1.453577 0,0.802684 -0.650713,1.453577 -1.453577,1.453577 -0.802684,0 -1.4535775,-0.650893 -1.4535775,-1.453577 m 20.8469765,1.764495 v 6.67807 h -2.645677 v -6.481826 c 0,-1.366478 -0.574997,-2.059836 -1.724993,-2.059836 -1.271247,0 -1.908588,0.822741 -1.908588,2.449432 v 3.547747 h -2.630136 v -3.547747 c 0,-1.626691 -0.63734,-2.449432 -1.908588,-2.449432 -1.149995,0 -1.724993,0.693358 -1.724993,2.059836 v 6.481826 h -2.645676 v -6.67807 c 0,-1.364851 0.347492,-2.449432 1.045549,-3.251936 0.719921,-0.802322 1.66265,-1.213603 2.832704,-1.213603 1.35401,0 2.37932,0.520245 3.056957,1.561096 l 0.659206,1.104819 0.659024,-1.104819 c 0.677818,-1.040851 1.702948,-1.561096 3.057138,-1.561096 1.170054,0 2.112602,0.411281 2.832524,1.213603 0.698057,0.802504 1.045549,1.887085 1.045549,3.251936"
     id="path4"
     sodipodi:nodetypes="csssccccsssccsssccscscccscc" />
  <path
     inkscape:connector-curvature="0"
     style="fill:#3088d4;fill-opacity:1;stroke-width:0.1445626"
     d="m 39.65904,29.382679 c 0.545904,-0.576805 0.808828,-1.303232 0.808828,-2.179281 0,-0.87605 -0.262924,-1.602477 -0.808828,-2.157959 -0.525666,-0.576985 -1.193184,-0.854545 -2.002012,-0.854545 -0.809008,0 -1.476345,0.27756 -2.002011,0.854545 -0.525847,0.555482 -0.78877,1.281909 -0.78877,2.157959 0,0.876049 0.262923,1.602476 0.78877,2.179281 0.525666,0.555482 1.193003,0.833223 2.002011,0.833223 0.808828,0 1.476346,-0.277741 2.002012,-0.833223 m 0.808828,-7.520868 h 2.608813 v 10.683173 h -2.608813 v -1.260765 c -0.788589,1.046996 -1.88076,1.55983 -3.296209,1.55983 -1.354913,0 -2.507619,-0.53416 -3.478357,-1.623978 -0.950318,-1.089642 -1.435687,-2.435701 -1.435687,-4.016673 0,-1.55965 0.485369,-2.90589 1.435687,-3.99553 0.970738,-1.089641 2.123444,-1.645121 3.478357,-1.645121 1.415449,0 2.50762,0.512836 3.296209,1.559648 z m 11.386004,5.149318 c 0.768349,0.576805 1.152704,1.388705 1.132467,2.414196 0,1.089821 -0.384356,1.944369 -1.172946,2.542676 -0.78877,0.576983 -1.739088,0.87605 -2.891793,0.87605 -2.082967,0 -3.498596,-0.854728 -4.246888,-2.542677 l 2.265114,-1.345878 c 0.303221,0.918515 0.970558,1.388705 1.981774,1.388705 0.93008,0 1.395391,-0.299245 1.395391,-0.918876 0,-0.448686 -0.606802,-0.854546 -1.840284,-1.174933 -0.465309,-0.128299 -0.849486,-0.256418 -1.152705,-0.363394 -0.424652,-0.170764 -0.78859,-0.363213 -1.091989,-0.598128 -0.748293,-0.576805 -1.132468,-1.346239 -1.132468,-2.328903 0,-1.046995 0.363937,-1.880216 1.09199,-2.478526 0.748291,-0.61963 1.658133,-0.918694 2.750302,-0.918694 1.739088,0 3.013229,0.74775 3.842114,2.264754 l -2.224276,1.281907 c -0.32364,-0.726246 -0.869544,-1.089458 -1.617838,-1.089458 -0.788769,0 -1.172943,0.299062 -1.172943,0.875867 0,0.448686 0.606621,0.854546 1.84028,1.175113 0.950501,0.213592 1.698613,0.534159 2.244698,0.940199 m 8.291695,-2.499849 h -2.285174 v 4.444216 c 0,0.534159 0.202386,0.854546 0.586563,1.003988 0.283162,0.106976 0.849307,0.128299 1.698611,0.08547 v 2.500029 C 58.38642,32.758577 57.11228,32.587633 56.363991,32.010649 55.615878,31.455165 55.25176,30.429674 55.25176,28.955496 V 24.51128 h -1.759326 v -2.649469 h 1.759326 v -2.157959 l 2.608633,-0.833222 v 2.991181 h 2.285174 z m 8.312097,4.80734 c 0.525846,-0.555662 0.788587,-1.260766 0.788587,-2.115312 0,-0.854546 -0.262741,-1.55965 -0.788587,-2.115132 -0.525845,-0.555662 -1.172945,-0.833222 -1.961715,-0.833222 -0.788589,0 -1.435687,0.27756 -1.961534,0.833222 -0.505609,0.576805 -0.768532,1.281909 -0.768532,2.115132 0,0.833403 0.262923,1.538508 0.768532,2.115312 0.525847,0.555482 1.172944,0.833223 1.961534,0.833223 0.78877,0 1.43587,-0.277741 1.961715,-0.833223 m -5.763531,1.901539 c -1.031273,-1.089639 -1.536882,-2.414374 -1.536882,-4.016851 0,-1.581154 0.505609,-2.905708 1.536882,-3.995349 1.031275,-1.089641 2.305412,-1.645123 3.801816,-1.645123 1.496586,0 2.770544,0.555482 3.801997,1.645123 1.031454,1.089641 1.55712,2.435699 1.55712,3.995349 0,1.581154 -0.525666,2.927212 -1.55712,4.016851 -1.031453,1.089822 -2.285174,1.623801 -3.801997,1.623801 -1.516642,0 -2.770544,-0.533979 -3.801816,-1.623801 m 17.877353,-1.83748 c 0.525846,-0.576805 0.788589,-1.303232 0.788589,-2.179281 0,-0.87605 -0.262743,-1.602477 -0.788589,-2.157959 -0.525666,-0.576985 -1.193184,-0.854545 -2.002012,-0.854545 -0.809008,0 -1.476345,0.27756 -2.02225,0.854545 -0.525666,0.555482 -0.78877,1.281909 -0.78877,2.157959 0,0.876049 0.263104,1.602476 0.78877,2.179281 0.545905,0.555482 1.233481,0.833223 2.02225,0.833223 0.808828,0 1.476346,-0.277741 2.002012,-0.833223 M 81.360075,17.58854 h 2.608811 v 14.956445 h -2.608811 v -1.260766 c -0.76835,1.046997 -1.860521,1.559832 -3.27597,1.559832 -1.354913,0 -2.527677,-0.534161 -3.498415,-1.62398 -0.950499,-1.089642 -1.435868,-2.435701 -1.435868,-4.016673 0,-1.55965 0.485369,-2.90589 1.435868,-3.99553 0.970738,-1.089641 2.143502,-1.645121 3.498415,-1.645121 1.415449,0 2.50762,0.512836 3.27597,1.559648 z m 11.770288,11.73008 c 0.525664,-0.555662 0.788587,-1.260766 0.788587,-2.115312 0,-0.854546 -0.262923,-1.55965 -0.788587,-2.115132 -0.525847,-0.555662 -1.172945,-0.833222 -1.961715,-0.833222 -0.788591,0 -1.43587,0.27756 -1.961534,0.833222 -0.505788,0.576805 -0.768532,1.281909 -0.768532,2.115132 0,0.833403 0.262744,1.538508 0.768532,2.115312 0.525664,0.555482 1.172943,0.833223 1.961534,0.833223 0.78877,0 1.435868,-0.277741 1.961715,-0.833223 m -5.763532,1.901539 c -1.031453,-1.089639 -1.536882,-2.414374 -1.536882,-4.016851 0,-1.581154 0.505429,-2.905708 1.536882,-3.995349 1.031455,-1.089641 2.305413,-1.645123 3.801817,-1.645123 1.496584,0 2.770542,0.555482 3.801995,1.645123 1.031456,1.089641 1.55712,2.435699 1.55712,3.995349 0,1.581154 -0.525664,2.927212 -1.55712,4.016851 -1.031453,1.089822 -2.285172,1.623801 -3.801995,1.623801 -1.516644,0 -2.770362,-0.533979 -3.801817,-1.623801 M 107.8125,25.985494 v 6.559347 h -2.60881 v -6.217457 c 0,-0.705104 -0.18197,-1.239263 -0.54591,-1.645122 -0.34387,-0.363214 -0.82924,-0.555663 -1.4561,-0.555663 -1.47635,0 -2.22446,0.87605 -2.22446,2.649472 v 5.76877 H 98.368408 V 21.861847 h 2.608812 v 1.196436 c 0.62686,-1.004168 1.61766,-1.4955 3.01323,-1.4955 1.11223,0 2.02225,0.384536 2.73006,1.175113 0.72787,0.790576 1.09199,1.858893 1.09199,3.247598"
     id="path4-7"
     sodipodi:nodetypes="cscscscsccccccscscscccccsccsscccscsccssccccsccccsccccccccccscscscsccssssscsccscscscsccccccscscscccscscscsccscscscsccccscsscccccscc" />
</svg>
