<svg xmlns="http://www.w3.org/2000/svg" width="120" height="60" fill="#ee3825"><path d="M10 21.156l8.445.026a4.32 4.32 0 0 1 4.234 3.543c.415 2.28-.767 4.224-2.6 4.747a.62.62 0 0 0-.146.098c1.738.5 2.776 1.65 3.068 3.373.48 2.843-1.086 5.18-4.05 5.514-.66.06-1.324.086-1.987.077l-6.97.014zm3.732 14.06a.5.5 0 0 0 .146.048l3.498-.012c1.2-.058 1.918-.796 1.954-1.887s-.63-1.887-1.8-2.028c-.752-.06-1.507-.08-2.26-.06h-1.527zm-.024-7.175h3.152c.2.006.398-.006.595-.038.72-.146 1.278-.52 1.47-1.28a1.8 1.8 0 0 0-1.721-2.321c-.583-.03-1.17 0-1.752 0h-1.72c0 .127-.024.204-.024.28l.01 3.36zm63.417 10.814l-1.318-.24c-3.404-.817-5.137-3.747-4.84-6.983.24-2.7 1.616-4.7 4.217-5.6 3.634-1.28 7.85.448 8.47 5.274.082.638.077 1.287.117 2h-9.388c.216 1.2.817 2.028 1.865 2.472 1.702.72 3.296.362 4.794-.606.1-.058.17-.125.257-.187a.42.42 0 0 1 .086 0l1.467 2.158-1.417.875c-.896.44-1.87.7-2.865.772a2.1 2.1 0 0 0-.338.082zM80.53 31c.065-1.56-1.422-2.752-3.306-2.678-1.565.06-2.958 1.388-2.8 2.678zm10.07 7.855l-1.623-.333c-2.515-.68-4.33-2.87-4.526-5.468-.216-2.472.5-4.57 2.486-6.127 3-2.366 8.92-1.83 10.095 3.766a8.33 8.33 0 0 1 .158 1.22c.03.434 0 .873 0 1.374h-9.3c.064.65.347 1.258.803 1.726 1.03 1.064 2.318 1.266 3.7 1.02a4.95 4.95 0 0 0 2.44-1.122l1.5 2.198c-.4.26-.746.54-1.134.75a7.93 7.93 0 0 1-3.116.911 3.56 3.56 0 0 0-.379.082zm-2.694-7.858h6.1c.08-1.513-1.374-2.714-3.198-2.68-1.618.034-3.02 1.314-2.903 2.68zm-59 7.858l-1.2-.24c-2.457-.592-3.895-2.428-3.895-4.95V25.98h3.308v7.316c0 1.036.312 1.918 1.295 2.366 1.064.48 2.158.48 3.14-.24.72-.513.923-1.3.925-2.143q0-3.4 0-6.815v-.5h3.277v7.623c0 2.877-1.798 4.87-4.677 5.17-.14.014-.28.06-.422.1zm31.274-.36V21.168h12.046v2.793c.024.37-.115.44-.455.436-2.378-.012-4.756 0-7.134 0h-.75v3.644h5.828c.364 0 .448.1.44.453v2.786H63.87v7.216zm37.863-.007V26.404c0-.508 0-.513.527-.508l5.45.08c2.58.2 4.595 1.362 5.552 3.905.97 2.587.24 5.538-1.743 7.153a6.55 6.55 0 0 1-4.001 1.474l-5.617.024c-.058-.01-.115-.024-.17-.043zm3.16-2.66h1.824c2.14 0 3.488-1.2 3.728-3.337.173-1.527-.654-3.05-1.973-3.596-1.158-.48-2.37-.223-3.58-.3zM42.425 28.8H36.8v-2.834h10.15v1.6a1.71 1.71 0 0 1-.429 1.261l-5.02 6.336-.314.415H47v2.898H36.78v-2.373c0-.134.14-.276.24-.398q2.567-3.275 5.144-6.542c.082-.1.14-.192.26-.374zm5.5.013v-2.54c0-.1.014-.182.026-.3h10.12v2.268a.7.7 0 0 1-.197.333q-2.62 3.32-5.238 6.63l-.297.412h5.45c.304 0 .42.074.4.4v2.486H47.946v-2.428c0-.1.108-.206.18-.3l5.022-6.386.44-.568z"/></svg>