<?xml version="1.0" encoding="UTF-8" standalone="no"?>
<!-- Generator: Adobe Illustrator 20.1.0, SVG Export Plug-In . SVG Version: 6.00 Build 0)  -->

<svg
   xmlns:dc="http://purl.org/dc/elements/1.1/"
   xmlns:cc="http://creativecommons.org/ns#"
   xmlns:rdf="http://www.w3.org/1999/02/22-rdf-syntax-ns#"
   xmlns:svg="http://www.w3.org/2000/svg"
   xmlns="http://www.w3.org/2000/svg"
   xmlns:sodipodi="http://sodipodi.sourceforge.net/DTD/sodipodi-0.dtd"
   xmlns:inkscape="http://www.inkscape.org/namespaces/inkscape"
   version="1.1"
   id="Layer_1"
   x="0px"
   y="0px"
   viewBox="0 0 64 64.000002"
   xml:space="preserve"
   sodipodi:docname="checkfront-icon.svg"
   width="64"
   height="64"
   inkscape:version="0.92.3 (2405546, 2018-03-11)"><metadata
   id="metadata59"><rdf:RDF><cc:Work
       rdf:about=""><dc:format>image/svg+xml</dc:format><dc:type
         rdf:resource="http://purl.org/dc/dcmitype/StillImage" /><dc:title></dc:title></cc:Work></rdf:RDF></metadata><defs
   id="defs57" /><sodipodi:namedview
   pagecolor="#ffffff"
   bordercolor="#666666"
   borderopacity="1"
   objecttolerance="10"
   gridtolerance="10"
   guidetolerance="10"
   inkscape:pageopacity="0"
   inkscape:pageshadow="2"
   inkscape:window-width="1920"
   inkscape:window-height="1001"
   id="namedview55"
   showgrid="false"
   inkscape:zoom="5.8164195"
   inkscape:cx="53.38776"
   inkscape:cy="18.958308"
   inkscape:window-x="-9"
   inkscape:window-y="-9"
   inkscape:window-maximized="1"
   inkscape:current-layer="Layer_1" />
<style
   type="text/css"
   id="style2">
	.st0{fill:#2A3C51;}
	.st1{fill:#F5F9FD;}
	.st2{fill:#FFFFFF;}
	.st3{fill:url(#SVGID_1_);}
	.st4{fill:url(#SVGID_2_);}
	.st5{fill:#3084C6;}
	.st6{fill:#3896D2;}
</style>

<g
   id="g52"
   transform="matrix(1.0561056,0,0,1.0561056,0.0528056,3.2e-7)">
	<path
   class="st1"
   d="M 10.4,27.6 6,31.9 26.2,51.6 60.4,5.1 C 59.8,2.4 57.5,0.4 54.7,0.2 L 24.1,32.5 Z"
   id="path26"
   inkscape:connector-curvature="0"
   style="fill:#f5f9fd" />
	<polygon
   class="st2"
   points="6.3,32.2 26.1,51.5 "
   id="polygon28"
   style="fill:#ffffff" />
	
		<linearGradient
   id="SVGID_1_"
   gradientUnits="userSpaceOnUse"
   x1="48.127399"
   y1="6.8031001"
   x2="32.717602"
   y2="36.2761"
   gradientTransform="matrix(1,0,0,-1,0,54)">
		<stop
   offset="0"
   style="stop-color:#1E74BB"
   id="stop30" />
		<stop
   offset="1"
   style="stop-color:#1266A7"
   id="stop32" />
	</linearGradient>
	<path
   class="st3"
   d="M 60.5,54.3 V 6.4 C 60.5,5.9 60.4,5.4 60.3,5 L 26.1,51.5 6.3,32.1 H 6.2 l 14.7,28.5 h 33.3 c 3.4,0 6.3,-2.8 6.3,-6.3 z"
   id="path35"
   inkscape:connector-curvature="0"
   style="fill:url(#SVGID_1_)" />
	<g
   id="g44">
		
			<linearGradient
   id="SVGID_2_"
   gradientUnits="userSpaceOnUse"
   x1="38.404099"
   y1="34.419498"
   x2="55.737499"
   y2="3.0861001"
   gradientTransform="matrix(1,0,0,-1,0,54)">
			<stop
   offset="0"
   style="stop-color:#2777B2"
   id="stop37" />
			<stop
   offset="1"
   style="stop-color:#287ABF"
   id="stop39" />
		</linearGradient>
		<path
   class="st4"
   d="M 60.5,54.3 V 6.4 c 0,-0.5 -0.1,-1 -0.2,-1.4 l -34.2,46.5 5.5,9.1 h 22.5 c 3.5,0 6.4,-2.8 6.4,-6.3 z"
   id="path42"
   inkscape:connector-curvature="0"
   style="fill:url(#SVGID_2_)" />
	</g>
	<path
   class="st5"
   d="M 54.6,0.1 Z"
   id="path46"
   inkscape:connector-curvature="0"
   style="fill:#3084c6" />
	<path
   class="st6"
   d="M 54.6,0.1 Z"
   id="path48"
   inkscape:connector-curvature="0"
   style="fill:#3896d2" />
	<path
   class="st5"
   d="M 6.3,0.1 C 2.8,0.1 0,3 0,6.4 v 47.9 c 0,3.5 2.9,6.3 6.3,6.3 H 20.9 L 6.2,32.1 H 6.3 L 6,31.8 10.4,27.5 24,32.3 54.6,0 c -0.1,0 -0.3,0 -0.4,0 z"
   id="path50"
   inkscape:connector-curvature="0"
   style="fill:#3084c6" />
</g>
</svg>