<?xml version="1.0" encoding="UTF-8" standalone="no"?>
<svg
   xmlns:dc="http://purl.org/dc/elements/1.1/"
   xmlns:cc="http://creativecommons.org/ns#"
   xmlns:rdf="http://www.w3.org/1999/02/22-rdf-syntax-ns#"
   xmlns:svg="http://www.w3.org/2000/svg"
   xmlns="http://www.w3.org/2000/svg"
   xmlns:sodipodi="http://sodipodi.sourceforge.net/DTD/sodipodi-0.dtd"
   xmlns:inkscape="http://www.inkscape.org/namespaces/inkscape"
   viewBox="0 0 64 64"
   height="64"
   width="64"
   xml:space="preserve"
   id="svg2"
   version="1.1"
   sodipodi:docname="repaircafe-icon.svg"
   inkscape:version="0.92.3 (2405546, 2018-03-11)"><sodipodi:namedview
     pagecolor="#ffffff"
     bordercolor="#666666"
     borderopacity="1"
     objecttolerance="10"
     gridtolerance="10"
     guidetolerance="10"
     inkscape:pageopacity="0"
     inkscape:pageshadow="2"
     inkscape:window-width="1920"
     inkscape:window-height="1001"
     id="namedview32"
     showgrid="false"
     inkscape:zoom="4.6758621"
     inkscape:cx="54.764369"
     inkscape:cy="48.858475"
     inkscape:window-x="-9"
     inkscape:window-y="-9"
     inkscape:window-maximized="1"
     inkscape:current-layer="svg2" /><metadata
     id="metadata8"><rdf:RDF><cc:Work
         rdf:about=""><dc:format>image/svg+xml</dc:format><dc:type
           rdf:resource="http://purl.org/dc/dcmitype/StillImage" /><dc:title></dc:title></cc:Work></rdf:RDF></metadata><defs
     id="defs6"><clipPath
   id="clipPath20"
   clipPathUnits="userSpaceOnUse"><path
     id="path18"
     d="M 0,2966.66 V 0 h 8699.97 v 2966.66 z"
     inkscape:connector-curvature="0" /></clipPath>



</defs><g
     id="g159"
     transform="matrix(2.4583935,0,0,2.4583935,-20.010934,-41.751846)"><path
       inkscape:connector-curvature="0"
       d="m 18.146694,27.486681 c -0.631248,0 -1.145078,0.513548 -1.145078,1.144655 0,0.63153 0.51383,1.145359 1.145078,1.145359 0.631389,0 1.144937,-0.513829 1.144937,-1.145359 0,-0.631107 -0.513548,-1.144655 -1.144937,-1.144655 z m 0,2.50179 c -0.748104,0 -1.356853,-0.608609 -1.356853,-1.357135 0,-0.748104 0.608749,-1.356431 1.356853,-1.356431 0.748104,0 1.356712,0.608327 1.356712,1.356431 0,0.748526 -0.608608,1.357135 -1.356712,1.357135 z m 0.707605,6.16961 1.060846,2.215051 0.874804,-0.290805 -0.163402,-2.374654 -0.03628,-0.09942 0.09928,-0.03628 c 0.48922,-0.179292 0.959176,-0.410051 1.396366,-0.685106 l 0.08944,-0.05639 0.09604,0.152434 1.966867,1.470461 0.64053,-0.662734 -1.222982,-2.007366 -0.112075,-0.102091 0.07116,-0.07833 c 0.352396,-0.387271 0.663027,-0.810258 0.923599,-1.257293 l 0.0533,-0.09126 0.157496,0.0914 2.424729,0.391209 0.26001,-0.884086 -2.014258,-1.212153 -0.148214,-0.03923 0.02658,-0.102091 c 0.130075,-0.49794 0.207697,-1.016268 0.2309,-1.540363 l 0.0046,-0.105607 0.188714,0.0082 2.32967,-0.777494 -0.180135,-0.904194 -2.346404,-0.140059 -0.149903,0.03459 -0.02377,-0.103215 c -0.114747,-0.499909 -0.28532,-0.993208 -0.506658,-1.466679 l -0.045,-0.09618 0.172402,-0.08015 1.703344,-1.768873 -0.578656,-0.717871 -2.143769,0.964239 -0.119106,0.100685 -0.06848,-0.08001 c -0.331163,-0.386988 -0.710278,-0.74487 -1.126657,-1.063517 l -0.08381,-0.06441 0.09858,-0.12923 0.689606,-2.356951 -0.845414,-0.368146 -1.459787,1.865621 -0.03965,0.09787 -0.09815,-0.03923 C 20.3931,21.56405 19.848053,21.416257 19.281068,21.32865 l -0.104903,-0.01631 0.02897,-0.18323 -0.521001,-2.399557 -0.918257,0.08114 -0.393035,2.317295 0.01772,0.146949 -0.105607,0.01223 c -0.508907,0.05878 -1.018237,0.17423 -1.51463,0.342835 l -0.100263,0.03417 -0.06454,-0.190824 -1.574492,-1.884464 -0.776102,0.497377 0.726617,2.235454 0.09069,0.13345 -0.08734,0.05948 c -0.414888,0.283351 -0.812354,0.622248 -1.181161,1.007268 l -0.07279,0.07608 -0.133309,-0.126278 -2.268837,-0.940192 -0.4570182,0.800555 1.7105852,1.660314 0.0936,0.04992 -0.0502,0.09365 c -0.239829,0.446331 -0.43653,0.933583 -0.584787,1.448538 l -0.02923,0.101529 -0.174609,-0.0502 -2.4459921,0.219509 -0.033622,0.920788 2.2889461,0.678215 0.104917,9.49e-4 v 0.105044 c 0,0.01448 -9.81e-4,0.02911 -0.0022,0.04359 l -0.0015,0.02742 c 0,0.501034 0.05048,1.001926 0.150015,1.489178 l 0.02126,0.103356 -0.164021,0.03431 -2.066033,1.327885 0.3973671,0.831633 2.3386969,-0.458706 0.09382,-0.04739 0.04818,0.09365 c 0.242403,0.471503 0.526345,0.908272 0.84384,1.29709 l 0.06695,0.08156 -0.123803,0.101669 -1.214459,2.133926 0.7375,0.553485 1.852571,-1.4806 0.0612,-0.08648 0.08634,0.06117 c 0.441029,0.31246 0.900256,0.571484 1.364896,0.76976 l 0.09745,0.04148 -0.06497,0.151871 -0.08676,2.454387 0.909959,0.147933 0.956786,-2.183128 0.01434,-0.104622 0.104482,0.01392 c 0.366599,0.04865 0.675965,0.07115 0.973379,0.07115 0.204463,0 0.411035,-0.01533 0.588499,-0.02995 l 0.105888,-0.0084 z m 0.950458,2.474651 -1.156046,-2.413368 c -0.15623,0.01181 -0.328913,0.02225 -0.502017,0.02225 -0.281383,0 -0.572187,-0.01955 -0.908412,-0.06117 l -1.013176,2.287498 -1.255465,-0.204337 0.09422,-2.673206 c -0.419969,-0.187031 -0.834633,-0.421587 -1.235121,-0.69861 l -1.948096,1.548674 -1.01759,-0.763306 1.32025,-2.320107 C 11.900416,33.000294 11.644711,32.606695 11.421868,32.184832 L 8.9657097,32.656335 8.4173436,31.508866 10.67015,30.060609 C 10.58236,29.59895 10.537263,29.126322 10.535899,28.653414 l -2.3960571,-0.721527 0.04663,-1.270793 2.6711961,-0.239478 0.0097,0.0027 c 0.139032,-0.459971 0.316341,-0.898427 0.527708,-1.305385 l -1.7883063,-1.749749 0.6307143,-1.104579 2.486575,1.035253 c 0.333594,-0.33946 0.689211,-0.642638 1.059101,-0.903069 l -0.780334,-2.400824 1.071082,-0.686231 1.728881,2.086255 c 0.447315,-0.145121 0.904615,-0.248338 1.361915,-0.307398 l 0.419614,-2.47451 1.267137,-0.111934 0.569094,2.620615 -0.0022,0.01336 c 0.514674,0.08676 1.011067,0.22176 1.478069,0.402879 l 1.536427,-1.954633 1.166452,0.508204 -0.750495,2.564929 c 0.369974,0.290806 0.710277,0.612124 1.013596,0.956787 l 2.297328,-1.033002 0.798306,0.990113 -1.87687,1.939728 c 0.192651,0.427066 0.345225,0.869319 0.454488,1.317197 l 2.512055,0.150043 0.248337,1.247731 -2.543696,0.848649 -0.01716,-8.44e-4 c -0.02728,0.469956 -0.09717,0.934849 -0.207979,1.384555 l 2.156144,1.297089 -0.359147,1.220029 -2.656614,-0.431988 c -0.24004,0.39852 -0.519032,0.777775 -0.83093,1.129328 l 1.308058,2.147426 -0.883804,0.914304 -2.152207,-1.61277 c -0.397676,0.242572 -0.820523,0.449285 -1.259261,0.616343 l 0.162558,2.493494 -1.207233,0.401051"
       style="fill:#2a3b97;fill-opacity:1;fill-rule:nonzero;stroke:none;stroke-width:0.01406211"
       id="path36" /><path
       inkscape:connector-curvature="0"
       d="m 29.260262,37.368844 c -0.69059,0 -1.250966,-0.559855 -1.250966,-1.25084 0,-0.690449 0.560376,-1.251105 1.250966,-1.251105 0.690871,0 1.250684,0.560656 1.250684,1.251105 0,0.690985 -0.559813,1.25084 -1.250684,1.25084 z m 2.760674,-0.797041 c 0.02419,-0.14837 0.03979,-0.299101 0.03979,-0.453799 0,-0.13373 -0.01223,-0.263945 -0.03023,-0.392754 l 2.131817,-1.728937 -0.485424,-0.980832 -2.650146,0.929927 c -0.213322,-0.173526 -0.452941,-0.315554 -0.711261,-0.42102 l -0.43452,-2.729736 -1.091922,-0.07031 -0.523252,2.77811 c -0.301632,0.114607 -0.486409,0.203339 -0.727714,0.408786 l -2.632006,-1.008112 -0.60678,0.910803 2.191862,1.885026 c 0,0 -0.03136,0.224853 -0.03136,0.41905 0,0.126967 0.01125,0.251277 0.0277,0.373771 l -2.15319,1.746501 0.485003,0.980832 2.666176,-0.935411 c 0.215712,0.17759 0.459128,0.321614 0.72223,0.428345 l 0.432269,2.715535 1.091642,0.07031 0.520579,-2.763205 c 0.259586,-0.09872 0.500752,-0.234289 0.716886,-0.401332 l 0.0032,0.0043 2.593476,0.993249 0.607342,-0.910521 -2.152206,-1.84862"
       style="fill:#f03f2c;fill-opacity:1;fill-rule:nonzero;stroke:none;stroke-width:0.01406211"
       id="path38" /></g></svg>