<?xml version="1.0" encoding="UTF-8" standalone="no"?>
<!-- Created with sK1/UniConvertor (http://sk1project.org/) -->

<svg
   xmlns:dc="http://purl.org/dc/elements/1.1/"
   xmlns:cc="http://creativecommons.org/ns#"
   xmlns:rdf="http://www.w3.org/1999/02/22-rdf-syntax-ns#"
   xmlns:svg="http://www.w3.org/2000/svg"
   xmlns="http://www.w3.org/2000/svg"
   xmlns:sodipodi="http://sodipodi.sourceforge.net/DTD/sodipodi-0.dtd"
   xmlns:inkscape="http://www.inkscape.org/namespaces/inkscape"
   width="120"
   height="60"
   viewBox="0 0 96.000003 47.999998"
   id="svg2"
   version="1.1"
   inkscape:version="0.92.3 (2405546, 2018-03-11)"
   sodipodi:docname="cocacoala-ar21.svg"
   style="fill-rule:evenodd">
  <metadata
     id="metadata48">
    <rdf:RDF>
      <cc:Work
         rdf:about="">
        <dc:format>image/svg+xml</dc:format>
        <dc:type
           rdf:resource="http://purl.org/dc/dcmitype/StillImage" />
        <dc:title></dc:title>
      </cc:Work>
    </rdf:RDF>
  </metadata>
  <defs
     id="defs46" />
  <sodipodi:namedview
     pagecolor="#ffffff"
     bordercolor="#666666"
     borderopacity="1"
     objecttolerance="10"
     gridtolerance="10"
     guidetolerance="10"
     inkscape:pageopacity="0"
     inkscape:pageshadow="2"
     inkscape:window-width="1920"
     inkscape:window-height="1001"
     id="namedview44"
     showgrid="false"
     fit-margin-top="0"
     fit-margin-left="0"
     fit-margin-right="0"
     fit-margin-bottom="0"
     inkscape:zoom="4"
     inkscape:cx="56.948472"
     inkscape:cy="18.311673"
     inkscape:window-x="-9"
     inkscape:window-y="-9"
     inkscape:window-maximized="1"
     inkscape:current-layer="g833" />
  <g
     id="g833"
     transform="matrix(0.17728239,0,0,0.17728239,79.018683,-12.010788)">
    <g
       transform="matrix(0.92442788,0,0,0.92442788,-461.47777,-204.37199)"
       id="g14">
      <path
         style="fill:#e31e2a;stroke:none"
         d="m 249.387,501.899 c -19.436,-12.043 -45.759,-14.168 -88.32,-2.833 -45.513,10.154 -60.52,16.766 -80.447,3.542 -7.6264,-6.376 -10.3326,-16.766 -8.3645,-31.879 4.9203,-24.323 17.7131,-47.937 40.3465,-73.913 12.793,-13.696 24.602,-25.267 40.101,-29.99 11.808,-2.833 10.824,6.14 9.348,7.321 -1.476,0 -4.182,0.236 -6.15,1.417 -1.476,1.18 -5.905,5.195 -6.151,10.39 -0.492,7.793 8.119,6.14 11.809,1.889 3.936,-4.959 9.841,-14.405 5.166,-23.142 -1.722,-3.07 -5.166,-5.195 -9.348,-5.903 -14.269,-0.945 -27.554,5.667 -39.609,12.751 -26.8153,17.947 -48.2187,42.742 -60.5194,69.662 -6.8885,16.294 -13.2849,39.672 -3.6903,58.799 7.3805,13.224 22.3874,20.308 40.5926,18.892 12.7931,-1.417 28.0461,-5.432 38.6241,-7.793 10.333,-2.362 63.226,-19.836 80.693,10.626 0,0 5.659,-10.862 20.174,-11.098 11.808,-0.945 29.029,3.306 41.576,12.279 -4.182,-6.14 -15.991,-14.877 -25.831,-21.017 z"
         id="path16"
         inkscape:connector-curvature="0" />
      <path
         style="fill:#e31e2a;stroke:none"
         d="m 166.479,399.886 c -10.086,-6.376 -30.014,5.668 -45.758,25.976 -14.761,18.419 -20.9118,39.672 -14.023,49.59 10.086,11.57 29.029,-5.196 37.148,-14.169 l 0.984,-1.181 c 5.412,-5.667 9.595,-12.515 13.777,-18.891 0,0 3.69,-5.904 3.936,-6.376 2.214,-0.236 5.166,-0.944 8.365,-1.889 -0.246,0.236 -12.055,19.6 -10.825,29.282 0.246,2.833 0,13.696 10.825,17.002 14.515,2.125 26.323,-8.501 36.41,-18.183 0,0 1.722,-1.653 2.706,-2.598 -0.246,0.945 -0.492,2.362 -0.492,2.362 -4.182,14.168 1.476,17.002 5.166,18.183 10.825,3.07 23.864,-12.044 23.864,-12.044 -0.492,4.723 -1.476,8.738 3.936,11.808 4.92,1.653 9.841,-0.709 13.777,-3.306 13.531,-9.21 24.601,-23.851 33.458,-36.13 h -5.658 c 0,0 -14.023,19.364 -23.126,23.614 0,0 -1.476,0.709 -2.46,0 -1.23,-0.944 -0.738,-3.07 0,-4.487 0,0 34.934,-58.327 34.934,-58.327 H 276.94 c 0,0 -1.722,2.834 -1.968,3.07 0,-0.236 -0.246,-0.472 -0.492,-0.708 -10.333,-13.696 -33.458,7.32 -50.925,31.407 -6.642,9.445 -15.253,19.836 -24.11,27.392 0,0 -13.038,11.571 -18.697,3.306 -1.968,-3.542 -1.476,-8.501 -0.246,-11.807 6.397,-17.947 17.713,-34.241 30.506,-43.922 3.69,-2.598 7.627,-3.542 9.595,-2.362 1.722,1.181 2.214,3.779 0.984,5.432 -2.952,0 -5.413,0.944 -7.381,2.833 -3.69,3.778 -5.166,7.557 -3.936,11.099 5.904,8.029 17.713,-8.029 17.221,-17.711 -0.246,-3.542 -2.214,-6.848 -5.166,-8.501 -4.182,-2.361 -10.825,-1.653 -15.007,0.236 -5.658,2.126 -14.761,9.21 -19.927,14.877 -6.643,7.084 -18.205,14.877 -21.65,13.933 1.23,-3.07 10.825,-21.725 0.738,-28.81 z m 79.463,27.865 c 3.199,-4.251 12.547,-15.821 14.761,-17.711 7.873,-6.375 10.825,-3.542 11.071,-1.653 -7.135,12.28 -15.499,26.448 -23.618,39.2 0.246,-0.236 -2.46,3.542 -2.46,3.542 -3.444,5.195 -6.888,9.446 -12.792,12.516 -0.739,0.236 -1.969,0.472 -2.953,-0.237 -1.23,-0.708 -1.476,-1.889 -1.476,-3.069 0.492,-3.779 4.675,-16.058 17.467,-32.588 z m -89.795,7.32 c 0,0 0,0.473 -0.246,0.473 0,0 -7.135,11.334 -7.135,11.334 -4.428,5.432 -9.84,12.516 -16.483,15.822 -1.968,0.708 -4.674,1.181 -6.15,-0.708 -2.952,-3.306 -1.476,-8.029 -0.246,-12.044 l 0.492,-1.18 c 3.444,-9.446 9.348,-17.711 14.761,-25.504 0,0 0.246,0 0.246,0 0,0 0,0 0,0.236 3.69,6.376 10.086,9.21 15.007,10.627 0,0 0,0.236 0,0.236 0,0 0,0.236 -0.246,0.708 z m 6.888,-13.224 c 0,0 -3.198,7.085 -3.198,7.085 -0.492,0.236 -1.23,0.236 -1.968,0 l -1.476,-0.236 c -4.429,-1.417 -7.873,-4.251 -8.857,-7.557 -1.476,-6.612 4.428,-11.807 6.889,-13.696 2.706,-1.653 6.396,-2.598 8.61,-0.945 1.476,1.653 1.968,3.779 1.968,5.904 0,2.833 -0.984,6.376 -1.968,9.445 z"
         id="path18"
         inkscape:connector-curvature="0" />
      <path
         style="fill:#e31e2a;stroke:none"
         d="m 371.656,443.1 c -1.476,-3.306 -5.412,-5.431 -9.348,-5.195 -13.039,1.181 -25.832,11.571 -32.72,26.212 -3.445,7.792 -5.413,13.932 -6.643,24.086 4.182,-4.486 12.301,-12.043 21.895,-16.057 0,0 1.231,-9.446 7.627,-18.183 2.46,-3.542 7.626,-9.21 13.039,-7.557 4.92,1.417 3.198,14.405 -3.198,26.92 -4.921,9.21 -12.055,18.419 -19.436,24.559 -6.642,5.431 -16.237,11.807 -24.847,6.848 -5.167,-3.07 -7.873,-9.446 -7.381,-17.474 2.461,-23.142 13.531,-42.978 29.276,-65.412 16.237,-20.78 33.95,-42.269 58.06,-53.604 4.92,-2.597 9.594,-3.07 13.531,-1.653 0,0 -22.634,12.044 -33.458,34.005 -2.707,5.667 -6.643,13.224 -2.707,19.836 1.968,3.542 5.659,3.778 8.365,3.778 13.285,-3.07 21.895,-14.877 28.784,-25.74 3.936,-8.265 7.626,-16.293 7.626,-25.503 0,-0.944 0,-2.597 -0.246,-3.542 6.397,-3.306 19.435,2.361 19.435,2.361 10.087,3.306 31.49,19.128 38.871,22.198 3.444,-4.015 9.348,-9.918 12.547,-12.988 l -4.675,-2.834 c -7.626,-4.486 -15.745,-8.501 -23.617,-12.751 -17.959,-9.446 -32.474,-6.14 -39.855,-3.543 -2.952,0.945 -5.658,1.89 -5.658,1.89 -5.658,-5.904 -14.515,-5.195 -21.157,-3.779 -24.11,6.612 -46.251,22.906 -70.115,50.771 -17.713,21.961 -28.538,40.852 -34.196,59.507 -4.674,12.516 -5.904,30.935 4.92,42.034 9.349,9.209 21.65,7.084 30.26,3.778 18.944,-8.737 35.919,-28.101 44.283,-50.062 1.968,-6.612 4.182,-15.822 0.738,-22.906 z m 43.299,-69.189 c -2.46,27.392 -24.602,43.686 -30.26,44.867 -3.198,0.708 -8.857,-0.709 -3.936,-12.28 7.626,-15.585 20.173,-28.573 33.95,-35.421 0.246,1.181 0.246,1.889 0.246,2.834 z"
         id="path20"
         inkscape:connector-curvature="0" />
      <path
         style="fill:#e31e2a;stroke:none"
         d="m 546.819,377.453 c -12.055,6.612 -24.355,10.626 -39.362,9.209 -4.183,4.487 -8.365,9.21 -12.055,13.933 21.157,5.195 43.545,-6.14 55.845,-17.239 13.285,-10.862 19.928,-24.558 19.928,-24.558 0,0 -9.841,10.626 -24.356,18.655 z"
         id="path22"
         inkscape:connector-curvature="0" />
      <path
         style="fill:#e31e2a;stroke:none"
         d="m 320.977,400.122 h -15.745 l -8.857,14.169 h 15.745 z"
         id="path24"
         inkscape:connector-curvature="0" />
      <path
         style="fill:#e31e2a;stroke:none"
         d="m 507.457,503.316 c -1.723,1.181 -4.183,0.236 -3.199,-2.361 2.215,-6.376 10.825,-19.6 10.825,-19.6 l 24.602,-41.797 h -16.729 c -0.985,1.417 -2.707,4.251 -2.707,4.251 -0.738,-1.181 -2.952,-4.015 -3.936,-4.487 -4.182,-2.598 -10.086,-1.417 -14.269,0.944 -17.959,10.155 -30.998,29.99 -41.33,45.576 0,0 -11.071,17.238 -16.975,18.655 -4.675,0.236 -4.183,-5.904 -4.183,-7.32 1.968,-10.155 6.151,-19.836 10.333,-28.81 8.857,-5.667 18.697,-13.224 27.8,-21.725 19.435,-17.946 35.918,-38.255 38.378,-42.741 0,0 -2.706,0.472 -5.658,0.708 -15.007,20.072 -45.759,49.354 -55.108,53.604 3.937,-9.445 30.752,-55.021 53.386,-76.746 l 3.69,-3.306 c 5.412,-5.195 11.317,-10.626 15.745,-11.335 0.492,-0.236 0.984,0 1.476,0.945 0.246,4.014 -1.23,7.084 -3.198,10.39 l -2.46,4.959 c 0,0 3.69,-0.708 5.904,-1.417 2.706,-4.959 5.904,-10.39 4.674,-17.002 -0.246,-2.125 -1.968,-3.542 -3.936,-4.014 -6.888,-1.181 -14.269,3.542 -20.173,7.556 h -0.246 c -30.506,23.142 -56.338,56.202 -78.971,101.541 -1.722,1.181 -7.873,2.598 -9.103,1.889 2.214,-4.486 5.167,-10.39 6.397,-16.766 0.246,-1.889 0.492,-3.778 0.492,-5.667 0,-3.778 -0.984,-7.557 -4.675,-10.154 -4.182,-2.126 -9.594,-1.181 -13.284,0.472 -15.991,6.376 -28.046,22.197 -36.657,35.421 -4.674,8.265 -9.348,17.002 -10.824,27.393 -0.738,7.792 0.984,12.987 5.658,15.585 4.92,2.361 11.071,0 13.531,-1.181 16.237,-8.265 27.8,-24.795 36.656,-40.144 0.492,0 5.412,0 9.103,-0.944 0,0 0,0 0,0 -0.246,0.708 -1.968,6.139 -1.968,6.139 -5.905,16.058 -8.365,26.92 -2.953,33.532 7.627,8.974 20.42,-0.472 30.752,-12.751 -2.214,14.877 5.905,17.238 12.055,16.057 6.888,-1.889 14.761,-8.973 18.451,-12.751 -0.984,4.25 -0.738,12.043 5.659,12.988 4.428,0.708 7.626,-1.417 11.562,-3.543 13.777,-7.084 30.014,-31.17 34.196,-37.782 h -5.412 c -6.15,8.737 -13.777,20.308 -23.371,25.739 z m -123.008,-1.653 c -0.984,-1.417 -1.23,-2.833 -1.23,-4.25 -0.246,-8.974 9.84,-25.031 16.975,-34.005 0,0 0,0 0,0 2.952,6.612 9.841,10.391 14.023,12.044 -5.167,10.862 -22.634,34.24 -29.768,26.211 z m 32.474,-30.934 c -0.492,0.472 -8.857,-2.362 -10.579,-9.918 -1.476,-6.612 3.198,-11.571 7.873,-14.169 1.722,-1.417 4.674,-2.125 6.888,-1.18 1.968,1.18 2.46,3.542 2.46,5.903 0,1.653 0,3.07 -0.246,4.487 0,0 0,0.236 0,0.472 -1.476,4.959 -3.69,9.918 -6.396,14.405 z m 68.392,27.864 c 0,0 -1.722,1.417 -1.722,1.417 -2.214,1.889 -4.674,4.015 -7.38,3.07 -0.984,-0.236 -1.476,-1.417 -1.476,-2.125 -0.246,-5.668 2.46,-10.863 4.92,-15.822 l 0.738,-1.416 c 7.38,-11.808 15.991,-25.74 28.538,-35.422 2.214,-1.417 4.428,-2.833 6.888,-1.889 0.492,0.709 1.23,1.417 1.23,2.362 0,0.236 -0.246,0.944 -0.492,1.18 -3.444,5.432 -6.888,11.335 -10.086,16.766 -6.397,10.863 -13.039,22.198 -21.158,31.879 z"
         id="path26"
         inkscape:connector-curvature="0" />
    </g>
  </g>
</svg>
