<svg xmlns="http://www.w3.org/2000/svg" width="120" height="60" viewBox="0 0 96 48" fill-rule="evenodd" fill="#e31e2a"><path d="M38.078 34c-3.185-1.974-7.5-2.322-14.474-.464-7.46 1.664-9.918 2.748-13.184.58-1.25-1.045-1.693-2.748-1.37-5.224.806-3.986 2.903-7.856 6.612-12.113 2.097-2.245 4.032-4.14 6.572-4.915 1.935-.464 1.774 1.006 1.532 1.2-.242 0-.685.04-1.008.232-.242.193-.968.85-1.008 1.703-.08 1.277 1.33 1.006 1.935.3.645-.813 1.613-2.36.847-3.793-.282-.503-.847-.85-1.532-.967-2.338-.155-4.516.93-6.5 2.1-4.395 2.94-7.902 7.005-9.918 11.416-1.13 2.67-2.177 6.502-.605 9.636 1.2 2.167 3.67 3.328 6.652 3.096 2.097-.232 4.596-.9 6.33-1.277 1.693-.387 10.362-3.25 13.224 1.74 0 0 .927-1.78 3.306-1.82 1.935-.155 4.757.542 6.814 2.012-.685-1.006-2.62-2.438-4.233-3.444zM24.5 17.293c-1.653-1.045-4.92.93-7.5 4.257-2.42 3.02-3.427 6.502-2.298 8.127 1.653 1.896 4.757-.852 6.088-2.322l.16-.194c.887-.93 1.572-2.05 2.258-3.096l.645-1.045c.363-.04.847-.155 1.37-.3-.04.04-1.976 3.212-1.774 4.8.04.464 0 2.245 1.774 2.786 2.38.348 4.314-1.393 5.967-2.98l.443-.426-.08.387c-.685 2.322.242 2.786.847 2.98 1.774.503 3.9-1.974 3.9-1.974-.08.774-.242 1.432.645 1.935.806.27 1.613-.116 2.258-.542 2.218-1.5 4.032-3.9 5.483-5.92h-.927s-2.298 3.173-3.8 3.87c0 0-.242.116-.403 0-.202-.155-.12-.503 0-.735l5.725-9.56h-2.7s-.282.464-.323.503c0-.04-.04-.077-.08-.116-1.693-2.245-5.483 1.2-8.346 5.147-1.1 1.548-2.5 3.25-3.95 4.5 0 0-2.137 1.896-3.064.542-.323-.58-.242-1.393-.04-1.935 1.048-2.94 2.903-5.612 5-7.198.605-.426 1.25-.58 1.572-.387a.65.65 0 0 1 .161.89c-.484 0-.887.155-1.2.464-.605.62-.847 1.238-.645 1.82.968 1.316 2.903-1.316 2.822-2.903-.04-.58-.363-1.122-.847-1.393-.685-.387-1.774-.27-2.46.04-.927.348-2.42 1.5-3.266 2.438-1.1 1.16-2.984 2.438-3.548 2.283.202-.503 1.774-3.56.12-4.72zm13.023 4.567c.524-.697 2.056-2.593 2.42-2.903 1.3-1.045 1.774-.58 1.814-.27l-3.87 6.424c.04-.04-.403.58-.403.58-.564.85-1.13 1.548-2.096 2.05-.12.04-.323.077-.484-.04-.202-.116-.242-.3-.242-.503.08-.62.766-2.632 2.863-5.34zm-14.716 1.2s0 .078-.04.078l-1.17 1.857c-.726.9-1.613 2.05-2.7 2.593-.323.116-.766.194-1.008-.116-.484-.542-.242-1.316-.04-1.974l.08-.193c.564-1.548 1.532-2.903 2.42-4.18h.04v.04c.605 1.045 1.653 1.5 2.46 1.742v.04s0 .04-.04.116zm1.13-2.167l-.524 1.16c-.08.04-.202.04-.323 0l-.242-.04c-.726-.232-1.3-.697-1.452-1.238-.242-1.084.726-1.935 1.13-2.245.443-.27 1.048-.426 1.4-.155.242.27.323.62.323.968 0 .464-.16 1.045-.323 1.548zm34.178 3.482c-.242-.542-.887-.9-1.532-.85-2.137.194-4.233 1.896-5.362 4.296a12.39 12.39 0 0 0-1.089 3.947c.685-.735 2.016-1.974 3.588-2.63 0 0 .202-1.548 1.25-2.98.403-.58 1.25-1.5 2.137-1.238.806.232.524 2.36-.524 4.412-.806 1.5-1.976 3.02-3.185 4.025-1.1.9-2.66 1.935-4.072 1.122-.847-.503-1.3-1.548-1.2-2.864.403-3.793 2.218-7.043 4.798-10.72 2.66-3.406 5.564-6.927 9.515-8.785.806-.426 1.572-.503 2.218-.27 0 0-3.7 1.974-5.483 5.573-.444.93-1.1 2.167-.444 3.25.323.58.927.62 1.37.62 2.177-.503 3.588-2.438 4.717-4.218.645-1.355 1.25-2.67 1.25-4.18 0-.155 0-.426-.04-.58 1.048-.542 3.185.387 3.185.387 1.653.542 5.16 3.135 6.37 3.638.564-.658 1.532-1.625 2.056-2.13l-.766-.464c-1.25-.735-2.58-1.393-3.87-2.1-2.943-1.548-5.322-1.006-6.532-.58l-.927.3c-.927-.968-2.38-.85-3.467-.62-3.95 1.084-7.58 3.754-11.5 8.32-2.903 3.6-4.677 6.695-5.604 9.752-.766 2.05-.968 5.07.806 6.9 1.532 1.5 3.548 1.16 4.96.62 3.105-1.432 5.887-4.605 7.257-8.204.323-1.084.685-2.593.12-3.754zm7.096-11.34c-.403 4.5-4.032 7.16-4.96 7.353-.524.116-1.452-.116-.645-2.012 1.25-2.554 3.306-4.683 5.564-5.805a1.94 1.94 0 0 1 .04.464zm21.6.58c-1.976 1.084-4 1.74-6.45 1.5l-1.976 2.283c3.467.85 7.136-1.006 9.152-2.825 2.177-1.78 3.266-4.025 3.266-4.025s-1.613 1.74-3.992 3.057z"/><path d="M49.8 17.33h-2.58l-1.452 2.322h2.58zm30.57 16.913c-.282.194-.686.04-.524-.387.363-1.045 1.774-3.212 1.774-3.212l4.032-6.85H82.9l-.444.697c-.12-.194-.484-.658-.645-.735-.685-.426-1.653-.232-2.338.155-2.943 1.664-5.08 4.915-6.773 7.47 0 0-1.814 2.825-2.782 3.057-.766.04-.686-.968-.686-1.2.323-1.664 1.008-3.25 1.693-4.72 1.452-.93 3.064-2.167 4.556-3.56 3.185-2.94 5.886-6.27 6.3-7.005 0 0-.443.077-.927.116-2.46 3.3-7.5 8.088-9.03 8.785.645-1.548 5.04-9.017 8.75-12.577l.605-.542c.887-.85 1.855-1.74 2.58-1.858.08-.04.16 0 .242.155.04.658-.202 1.16-.524 1.703l-.403.813s.605-.116.968-.232c.443-.813.968-1.703.766-2.786-.04-.348-.323-.58-.645-.658-1.13-.194-2.338.58-3.306 1.238h-.04c-5 3.793-9.233 9.2-12.942 16.64-.282.194-1.3.426-1.492.3.363-.735.847-1.703 1.048-2.748a7.22 7.22 0 0 0 .081-.929c0-.62-.16-1.238-.766-1.664-.685-.348-1.572-.194-2.177.077-2.62 1.045-4.596 3.638-6.007 5.805-.766 1.355-1.532 2.786-1.774 4.5-.12 1.277.16 2.128.927 2.554.806.387 1.814 0 2.218-.194 2.66-1.355 4.556-4.064 6.007-6.58.08 0 .887 0 1.492-.155-.04.116-.323 1.006-.323 1.006-.968 2.632-1.37 4.412-.484 5.495 1.25 1.47 3.347-.077 5.04-2.1-.363 2.438.968 2.825 1.976 2.63 1.13-.3 2.42-1.47 3.024-2.1-.16.697-.12 1.974.927 2.13.726.116 1.25-.232 1.895-.58 2.258-1.16 4.92-5.108 5.604-6.192h-.9c-1.008 1.432-2.258 3.328-3.83 4.218zm-20.16-.27c-.16-.232-.202-.464-.202-.697-.04-1.47 1.613-4.102 2.782-5.573.484 1.084 1.613 1.703 2.298 1.974-.847 1.78-3.7 5.6-4.878 4.296zm5.322-5.07c-.08.077-1.452-.387-1.734-1.625-.242-1.084.524-1.896 1.3-2.322.282-.232.766-.348 1.13-.193.323.193.403.58.403.967 0 .27 0 .503-.04.735v.077a10.36 10.36 0 0 1-1.048 2.36zM76.74 33.47l-.282.232c-.363.3-.766.658-1.2.503-.16-.04-.242-.232-.242-.348-.04-.93.403-1.78.806-2.593l.12-.232c1.2-1.935 2.62-4.218 4.677-5.805.363-.232.726-.464 1.13-.3.08.116.202.232.202.387a.4.4 0 0 1-.081.193c-.564.9-1.13 1.858-1.653 2.748-1.048 1.78-2.137 3.638-3.467 5.224z"/></svg>