<?xml version="1.0" encoding="UTF-8" standalone="no"?>
<!-- Generator: Adobe Illustrator 21.0.0, SVG Export Plug-In . SVG Version: 6.00 Build 0)  -->

<svg
   xmlns:dc="http://purl.org/dc/elements/1.1/"
   xmlns:cc="http://creativecommons.org/ns#"
   xmlns:rdf="http://www.w3.org/1999/02/22-rdf-syntax-ns#"
   xmlns:svg="http://www.w3.org/2000/svg"
   xmlns="http://www.w3.org/2000/svg"
   xmlns:sodipodi="http://sodipodi.sourceforge.net/DTD/sodipodi-0.dtd"
   xmlns:inkscape="http://www.inkscape.org/namespaces/inkscape"
   version="1.1"
   id="Layer_1"
   x="0px"
   y="0px"
   viewBox="0 0 63.999999 63.999999"
   xml:space="preserve"
   sodipodi:docname="cocacola-ar21.svg"
   width="64"
   height="64"
   inkscape:version="0.92.3 (2405546, 2018-03-11)"><metadata
   id="metadata29"><rdf:RDF><cc:Work
       rdf:about=""><dc:format>image/svg+xml</dc:format><dc:type
         rdf:resource="http://purl.org/dc/dcmitype/StillImage" /><dc:title></dc:title></cc:Work></rdf:RDF></metadata><defs
   id="defs27">
	
	
	
	
	
	
	
	
	
	
</defs><sodipodi:namedview
   pagecolor="#ffffff"
   bordercolor="#666666"
   borderopacity="1"
   objecttolerance="10"
   gridtolerance="10"
   guidetolerance="10"
   inkscape:pageopacity="0"
   inkscape:pageshadow="2"
   inkscape:window-width="1920"
   inkscape:window-height="1001"
   id="namedview25"
   showgrid="false"
   inkscape:zoom="4.2604678"
   inkscape:cx="-2.68887"
   inkscape:cy="22.627589"
   inkscape:window-x="-9"
   inkscape:window-y="-9"
   inkscape:window-maximized="1"
   inkscape:current-layer="Layer_1" />
<g
   id="g856"
   transform="matrix(0.10212223,0,0,0.10212223,0,57.464167)"><path
     style="fill:#ed1c24"
     d="m 406,-311.20001 c -12.3,13.6 -19.4,28.8 -14.1,32.8 2,1.5 6.7,1.8 15.3,-5.9 6.6,-6 13.4,-13.8 18,-25 5.5,-13.4 3.7,-19.5 3.7,-19.7 0,0 -10.6,4.2 -22.9,17.8 z"
     id="path2"
     inkscape:connector-curvature="0" /><path
     style="fill:#ed1c24"
     d="m 229.4,-229.70001 c 0.9,0.5 2.3,0.6 3.4,0.3 2.1,-0.5 4.9,-2.6 8.7,-7 1.8,-2 3.8,-4.8 6.1,-8 7.2,-9.9 27,-44.4 27,-44.4 0,0 -0.3,-2.4 -2.6,-2.5 -2.8,-0.1 -7.3,0.8 -16.4,12.2 -9.1,11.4 -16.1,20.5 -21.3,29.9 -5.7,10.3 -8.2,17.6 -4.9,19.5 z"
     id="path4"
     inkscape:connector-curvature="0" /><path
     style="fill:#ed1c24"
     d="m 156.9,-291.00001 c -4.7,-3.5 -16.6,4.7 -16.6,13.2 -0.1,8.7 10.7,11.1 12.1,11.2 0,0 1.2,0.3 1.7,-0.7 0.3,-0.6 1.8,-3.3 3.4,-7.6 1.6,-4.4 3.7,-12.8 -0.6,-16.1 z"
     id="path6"
     inkscape:connector-curvature="0" /><path
     style="fill:#ed1c24"
     d="m 149.8,-261.20001 c -0.3,-0.1 -4.8,-1.4 -9.2,-4.2 -4.4,-2.8 -6.4,-7 -6.6,-7.3 -0.2,-0.3 -0.3,-0.1 -0.5,0.2 -0.2,0.3 -1.1,1.5 -7.5,10.8 -6.4,9.3 -15.7,28.4 -6.9,31.7 5.6,2.1 15.1,-7.8 20.3,-14.4 4.8,-6.1 10.4,-15.4 10.7,-16 0.2,-0.6 0,-0.7 -0.3,-0.8 z"
     id="path8"
     inkscape:connector-curvature="0" /><path
     style="fill:#ed1c24"
     d="m 494.9,-187.10001 c 0.9,0.5 2.3,0.6 3.4,0.3 2.2,-0.5 4.7,-2.6 8.5,-6.9 1.8,-2 3.7,-4.9 6.1,-8.2 6.5,-8.9 22.8,-36.7 26,-42.4 0.4,-0.6 0.5,-1.2 0.5,-1.2 0,0 -0.3,-2.4 -2.6,-2.5 -2.8,-0.1 -6.5,0.4 -16.3,11.3 -9.8,10.8 -15.7,20.3 -20.9,29.7 -5.7,10.2 -8,17.9 -4.7,19.9 z"
     id="path10"
     inkscape:connector-curvature="0" /><path
     style="fill:#ed1c24"
     d="m 427.7,-216.60001 c -0.3,-0.1 -4.2,-1.9 -8.2,-5.2 -4,-3.3 -6,-7.2 -6.2,-7.5 -0.2,-0.3 -0.3,-0.1 -0.5,0.2 -0.2,0.2 -0.9,0.8 -7.3,10.2 -6.3,9.3 -16.1,28.6 -7.2,31.8 5.6,2.1 15,-7.8 20.2,-14.3 4.8,-6.1 9.2,-13.8 9.5,-14.4 0.3,-0.6 0,-0.7 -0.3,-0.8 z"
     id="path12"
     inkscape:connector-curvature="0" /><path
     style="fill:#ed1c24"
     d="m 550.7,-179.20001 c -0.3,-0.2 -0.9,-0.3 -1.6,-0.3 h -1.2 v 2.8 h 1.2 c 0.6,0 1,-0.1 1.3,-0.2 0.5,-0.2 0.8,-0.6 0.8,-1.2 0.1,-0.5 -0.1,-0.9 -0.5,-1.1 z"
     id="path14"
     inkscape:connector-curvature="0" /><path
     style="fill:#ed1c24"
     d="m 436.1,-248.40001 c -4.7,-3.5 -16.5,4.7 -16.6,13.2 -0.1,8.7 8.4,12.6 10.4,13.1 1.2,0.3 1.5,0.3 2.1,-0.6 0.4,-0.6 3.1,-5.3 4.7,-9.6 1.7,-4.4 3.7,-12.8 -0.6,-16.1 z"
     id="path16"
     inkscape:connector-curvature="0" /><path
     style="opacity:1;fill:#ed1c24"
     d="m 313.4,-562.70001 c -173.1,0 -313.4,140.3 -313.4,313.4 v 0 C 0,-76.200012 140.3,63.999988 313.3,63.999988 v 0 c 173.1,0 313.4,-140.3 313.4,-313.399998 0,-173 -140.3,-313.3 -313.3,-313.3 z m -2.7,264.9 h 16.9 l -9.5,15.5 h -16.9 z m -138.8,25.6 c 11.9,-8.1 27.6,-30 44.7,-27.4 8,1.2 15.4,9.4 5.2,25 -3.3,5 -8.7,9.5 -12.9,5.1 -2.6,-2.7 -0.3,-7.7 2.4,-11.2 3.9,-4.9 9.2,-4.2 9.2,-4.2 0,0 2.8,-6.4 -4.3,-6.3 -5.8,0.1 -20.4,13.6 -28.7,27.3 -7.6,12.5 -19.1,33.9 -7.5,38.5 10.6,4.3 30.7,-19.7 40,-32.2 9.3,-12.5 30.6,-40.9 48.4,-42.1 6.1,-0.4 9.8,5.2 9.8,5.2 l 2.1,-3.3 h 17.8 c 0,0 -33.5,56.1 -36.2,60.3 -2.1,3.3 -4.8,10.8 2.8,6.6 7.6,-4.2 23.4,-24.5 23.4,-24.5 h 6.2 c 0,0 -31,44.8 -48.6,42.8 -9.8,-1.1 -6.9,-13.2 -6.9,-13.2 0,0 -13.8,16.1 -26.4,12.9 -11.5,-2.9 -4.1,-22 -4.1,-22 -1.3,0.5 -26.1,28.5 -43.5,21.8 -18.2,-7 -8.8,-30.4 -5.3,-37.4 2.9,-5.9 6.2,-11.7 6.2,-11.7 0,0 -2.8,0.8 -4.5,1.2 -1.7,0.4 -4.4,0.9 -4.4,0.9 0,0 -8.6,14 -13.9,21 -5.2,7 -27.6,31 -40.8,26.2 -13.2,-4.8 -9.9,-23.2 -2.5,-37.9 12,-23.8 40.5,-53 57.7,-48.6 17.4,4.4 3,32.6 3,32.6 0,0 3.3,0.3 11.6,-5.4 z m 61.5,93.4 c -15.1,0.6 -21.9,11.8 -21.9,11.8 -6.8,-11.8 -20.2,-19.1 -41,-19 -33.6,0.4 -66.9,15.9 -93.3,15.9 -25.3,0 -43.8,-15.9 -43.2,-44.1 1.1,-49.5 42.9,-94.2 74.2,-114.3 18,-11.5 33,-15 42.9,-13.9 7.2,0.8 15.8,9.1 10.4,21.3 -8,17.9 -19.1,16.4 -18.7,7.9 0.2,-5.6 3.9,-9.1 6.7,-11 1.8,-1.2 4.9,-1.6 6.5,-1.6 1.6,-1.3 2.8,-11.1 -10.1,-7.9 -12.9,3.2 -28.4,15.9 -43.2,32.2 -14.8,16.3 -37.8,47.2 -43.5,79.7 -2.7,15.1 -0.9,42.5 34.8,42.1 30.2,-0.2 74.8,-20.1 115.7,-19.8 15.9,0.1 29.7,4.4 40.5,11.1 10.6,6.6 23.3,16.1 27.8,22.6 -13.2,-9.4 -29.6,-13.6 -44.6,-13 z m 85.6,8.7 c -25.2,0.4 -41.7,-31.8 -6.7,-88 38.8,-62.1 84.3,-81.1 99.1,-83.3 14.8,-2.1 19.6,4.4 19.6,4.4 0,0 12.4,-5.7 28.1,-4.7 18.1,1.2 32,14 50.4,23 -4.8,4.7 -9.4,9.5 -13.5,14 -13.6,-7 -23.6,-15.5 -34,-20.9 -9.9,-5.1 -16.3,-7.2 -24.3,-6.1 -1.3,0.2 -3.3,0.8 -3.3,0.8 0,0 4.1,14.1 -12.3,37.8 -16.6,24 -31.7,23.9 -36,17.2 -4.5,-6.9 1.3,-21.1 11,-33.7 10.1,-13.2 27.9,-24.2 27.9,-24.2 0,0 -5.7,-3.5 -19.6,4.5 -13.6,7.7 -37,26 -58.7,56.9 -21.7,30.9 -26,47.9 -29.1,61.3 -3.2,13.4 -0.3,27.7 14.6,27.7 14.9,0 32.1,-22.7 37,-30.5 9,-14.7 14.9,-37.1 2.6,-34 -6.1,1.5 -11,8.3 -14.1,14.7 -3.2,6.6 -4.5,13 -4.5,13 0,0 -5.1,1.8 -12,7 -6.9,5.2 -11.4,10.1 -11.4,10.1 0,0 0,-10.7 8.6,-28 8.5,-17.3 24.2,-25.2 33,-26 8,-0.7 18.4,6.1 9.6,31.2 -8.7,25 -34.7,55.4 -62,55.8 z m 235.4,-1.4 c -1.4,1.4 -3.1,2.1 -5,2.1 -2,0 -3.7,-0.7 -5,-2.1 -1.4,-1.4 -2.1,-3.1 -2.1,-5.1 0,-1.9 0.7,-3.6 2.1,-5 1.4,-1.4 3,-2.1 5,-2.1 2,0 3.7,0.7 5,2.1 1.4,1.4 2.1,3.1 2.1,5 0,2.1 -0.7,3.7 -2.1,5.1 z m 43.2,-170.9 c 0,0 -4.1,8.5 -12.5,18 -13.5,15.2 -38.7,33.1 -67.6,27.4 4.6,-5.5 9,-10.5 13.2,-14.9 16.6,1.6 34,-5.7 46.5,-13.7 12.4,-8 20.4,-16.8 20.4,-16.8 z m -41.1,3.6 c 3.7,2.4 2,10.9 -3,21.2 -2.2,0.7 -4.5,1.3 -6.8,1.8 3.3,-6 5.6,-11.1 6.2,-14.7 2.3,-12.4 -26.6,13.7 -47.3,41.8 -20.6,28.1 -33,53.6 -33,53.6 0,0 4.2,-2.3 10.7,-7.6 6.8,-5.5 16.1,-14 26.2,-24.5 6.8,-7 14.8,-15.9 22.3,-25.8 2.2,-0.1 4.4,-0.3 6.6,-0.7 -8.3,11.3 -17.2,21.6 -24.6,29.1 -8.2,8.3 -17.1,17.3 -24.9,23.8 -12.3,10.4 -21.9,16.3 -21.9,16.3 0,0 -18.1,36.4 -8.3,38.8 5.8,1.4 17.2,-16.2 17.2,-16.2 0,0 14.9,-22.7 23.9,-33 12.2,-13.9 22.8,-22 33.3,-22.2 6.1,-0.1 9.7,6.4 9.7,6.4 l 2.9,-4.5 h 17.8 c 0,0 -33.2,56.3 -35.8,60.6 -2.4,3.8 -5.1,11.2 2.8,6.6 9.6,-5.6 23.3,-26.4 23.3,-26.4 h 6.2 c 0,0 -8.2,12.9 -18.8,24.7 -9.8,10.8 -21.7,20.6 -30,19.7 -9.8,-1.1 -6.7,-14 -6.7,-14 0,0 -14,14.9 -23.7,13.9 -13.1,-1.4 -9.1,-17.6 -9.1,-17.6 0,0 -14.8,18.2 -24.9,17.6 -15.8,-0.9 -11.9,-20.2 -7.5,-33.7 2.4,-7.3 4.6,-12.9 4.6,-12.9 0,0 -1.6,0.4 -4.9,0.9 -1.8,0.3 -5,0.4 -5,0.4 0,0 -6.6,11.6 -11.8,18.6 -5.3,7 -27.6,31.1 -40.8,26.3 -12.2,-4.5 -8.2,-23.1 -1.1,-37.9 10.3,-21.6 39.4,-52.7 56.2,-48.6 17.4,4.2 0.4,36 0.4,36 0,0 0,0.1 0.2,0.2 0.4,0.1 1.2,0.2 3.3,-0.2 3.4,-0.7 6.4,-1.9 6.4,-1.9 0,0 17.5,-36.6 36.8,-60.6 19.3,-24 57.8,-65.3 72.9,-55.3 z"
     id="path18"
     inkscape:connector-curvature="0" /><path
     style="fill:#ed1c24"
     d="m 549.4,-182.60001 c -1.7,0 -3.1,0.6 -4.3,1.8 -1.2,1.2 -1.8,2.6 -1.8,4.3 0,1.7 0.6,3.2 1.8,4.4 1.2,1.1 2.6,1.8 4.3,1.8 1.7,0 3.1,-0.6 4.3,-1.8 1.2,-1.2 1.8,-2.7 1.8,-4.4 0,-1.7 -0.6,-3.1 -1.8,-4.3 -1.2,-1.2 -2.6,-1.8 -4.3,-1.8 z m 2.6,7.1 c 0.3,0.4 0.4,0.8 0.4,1.2 v 0.6 c 0,0.2 0,0.3 0,0.6 0,0.2 0,0.4 0.1,0.4 l 0.1,0.1 h -1.3 v -0.1 c 0,0 0,0 0,-0.1 v -0.3 -0.6 c 0,-0.9 -0.2,-1.5 -0.7,-1.7 -0.3,-0.2 -0.8,-0.3 -1.5,-0.3 H 548 v 3.1 h -1.4 v -7.8 h 2.7 c 1,0 1.7,0.1 2.2,0.3 0.8,0.3 1.2,1 1.2,2 0,0.7 -0.3,1.2 -0.8,1.5 -0.2,0.2 -0.6,0.3 -1.1,0.4 0.5,0.1 1,0.3 1.2,0.7 z"
     id="path20"
     inkscape:connector-curvature="0" /></g>
</svg>