<svg xmlns="http://www.w3.org/2000/svg" xml:space="preserve" width="64" height="64">
    <rect width="61.36" height="55.312" x="1.32" y="4.558" rx="5.711" ry="5.993" style="fill:#fff;fill-opacity:1;stroke:#000;stroke-width:2.64009;stroke-dasharray:none;stroke-opacity:.5"/>
    <path d="M8.793 4.636H55.58c3.52 0 6.226 2.858 6.216 5.237l-.071 20.4-59.51-.007.417-20.538c.048-2.371 2.641-5.092 6.16-5.092" style="fill:#ec4260;stroke-width:2.42447;stroke-linecap:square"/>
    <path d="M7.874 11.051v10.87h2.831v-4.476h1.736v4.476h2.831v-10.87h-2.831v3.989h-1.736v-3.989zm8.738 0v10.87h6.577v-2.314h-3.745v-2.162h3.38v-2.222h-3.38v-1.858h3.608v-2.314zm7.612 0v10.87h6.318v-2.314h-3.486v-8.556zm7.05 0v10.87h6.317v-2.314h-3.486v-8.556zm9.651 5.435q0-1.096.03-1.811.031-.731.122-1.157.107-.427.29-.594.198-.168.517-.168.32 0 .503.168.198.167.289.594.107.426.137 1.157.03.715.03 1.811t-.03 1.827q-.03.716-.137 1.142-.091.426-.29.594-.182.167-.502.167t-.517-.167q-.183-.168-.29-.594-.09-.426-.121-1.142-.03-.73-.03-1.827m-2.923 0q0 1.523.198 2.604.198 1.065.655 1.75.456.67 1.202.96t1.827.289 1.827-.29 1.203-.959q.457-.685.655-1.75.198-1.081.198-2.604 0-1.522-.198-2.588-.198-1.08-.655-1.75-.457-.686-1.203-.99-.746-.32-1.827-.32t-1.827.32q-.746.304-1.202.99-.457.67-.655 1.75-.198 1.066-.198 2.588" aria-label="HELLO" style="font-weight:900;font-stretch:condensed;font-size:15.2242px;line-height:1;font-family:&quot;Helvetica Neue&quot;;-inkscape-font-specification:&quot;Helvetica Neue Heavy Condensed&quot;;fill:#fff;stroke-width:.380607" transform="scale(1.1887 .84125)"/>
    <path d="M5.788 21.141v6.352h1.308v-4.457h.018l1.557 4.457h1.076l1.557-4.501h.018v4.501h1.308v-6.352h-1.967L9.258 25.51H9.24l-1.486-4.368Zm9.715 3.879v2.473H16.9v-2.437l2.357-3.915H17.7l-1.476 2.509-1.486-2.509h-1.566zm6.761-3.879v6.352h1.308v-4.252h.018l2.642 4.252h1.397v-6.352H26.32v4.262h-.018l-2.65-4.262zm8.194 3.897.827-2.331h.018l.8 2.33zm.133-3.897-2.402 6.352h1.406l.498-1.414h2.375l.48 1.414h1.45l-2.375-6.352zm4.36 0v6.352h1.307v-4.457h.018l1.557 4.457h1.076l1.557-4.501h.018v4.501h1.308v-6.352h-1.967L38.42 25.51h-.018l-1.486-4.368zm8.068 0v6.352h4.822V26.32h-3.425v-1.557h3.078v-1.085h-3.078v-1.361h3.354V21.14zm8.238 0v6.352h1.397v-6.352zm3.577 4.244H53.48q-.009.587.214 1.014.222.427.596.703.382.276.872.4.498.134 1.023.134.65 0 1.138-.152.499-.151.828-.418.338-.276.507-.65.169-.373.169-.809 0-.534-.231-.872-.223-.347-.534-.551t-.632-.294q-.311-.098-.49-.133-.595-.152-.969-.25-.365-.097-.578-.195-.205-.098-.276-.214t-.071-.302q0-.205.089-.338t.222-.223q.143-.088.312-.124t.338-.036q.258 0 .471.045.223.044.392.151t.267.294q.106.186.124.471h1.352q0-.551-.213-.934-.205-.391-.56-.64-.356-.25-.819-.356-.454-.116-.952-.116-.427 0-.854.116-.427.115-.765.355t-.552.605q-.204.356-.204.846 0 .436.16.747.169.302.436.507t.605.338q.338.125.694.214.347.097.685.177t.605.187.427.267q.169.16.169.418 0 .24-.125.4-.124.152-.311.24-.187.09-.4.125-.214.027-.4.027-.277 0-.535-.062-.258-.071-.453-.205-.187-.142-.303-.365-.115-.222-.115-.542" aria-label="MY NAME IS" style="font-weight:700;font-size:8.89628px;line-height:1;font-family:&quot;Helvetica Neue&quot;;-inkscape-font-specification:&quot;Helvetica Neue Bold&quot;;fill:#fff;stroke-width:.667223"/>
    <path d="m1.354 28.912-.001-18.594c0-3.305 2.54-5.965 5.696-5.965h49.81c3.156 0 5.681 2.66 5.696 5.965l.086 18.6" style="fill:none;stroke:#a91334;stroke-width:2.70536;stroke-linecap:square"/>
    <path d="M21.055 38.532q0 1.547-.5 3.11-.485 1.562-1.375 2.921-.875 1.36-2.11 2.422t-2.703 1.61q.094 1.296.219 2.578t.344 2.578q.046.234.093.484.063.25.063.516 0 .406-.203.547-.203.14-.578.14-.266 0-.641-.062-.375-.063-.64-.188-.313-.172-.423-.343-.093-.188-.14-.5-.266-1.329-.328-2.657-.047-1.328-.14-2.656-.313-.031-.517-.156-.203-.14-.203-.469 0-.312.172-.656.188-.344.422-.531-.14-2.907-.125-5.766.031-2.86 0-5.766-.078.032-.14.047-.063.016-.141.016-.172 0-.281-.078-.11-.094-.188-.219-.062-.125-.094-.266-.03-.156-.03-.28 0-.47.233-.673.235-.219.641-.39v-.391q.016-.234.063-.422.062-.203.187-.328.125-.14.375-.14.406 0 .781.156t.563.53q.547-.093 1.062-.171.516-.078 1.063-.078 1.234 0 2.203.422.969.406 1.64 1.156.672.734 1.016 1.75.36 1.016.36 2.203m-2.344-.281q0-.719-.188-1.344-.187-.64-.562-1.094-.375-.468-.953-.734t-1.36-.266q-.422 0-.859.063-.422.062-.828.187 0 2.86.031 5.672.047 2.813.219 5.64 1-.515 1.828-1.437t1.422-2.03q.594-1.126.922-2.329.328-1.219.328-2.328m7.86 7.219v.25q0 .109-.032.218.234.844.422 1.703.203.844.39 1.688.094-.953.157-1.906.078-.969.078-1.922 0-.938-.063-1.906-.062-.985-.312-1.875l-.063-.22q-.03-.077-.047-.171-.015-.094-.015-.188 0-.171.078-.265.094-.11.219-.156.125-.047.281-.063t.281-.016q.39 0 .813.094.281.078.453.235.172.14.25.343.094.203.125.453.031.235.047.485v.062q.015.032.015.063.078.687.11 1.39.047.688.047 1.36 0 2.094-.25 4.172-.235 2.078-.579 4.125-.046.312-.14.64-.078.328-.235.61t-.406.468q-.25.172-.625.172-.422 0-.687-.187-.266-.203-.438-.5-.156-.313-.234-.688t-.125-.734q-.031-.172-.063-.313-.015-.14-.047-.265l-.437-1.938q-.125.438-.344 1.11-.203.656-.453 1.328-.234.672-.484 1.219-.235.546-.39.75-.173.203-.438.312-.266.125-.532.125-.468 0-.812-.297-.313-.312-.406-.719t-.141-.812q0-.031-.016-.078v-.078q-.234-1.719-.343-3.485-.11-1.78-.11-3.547v-2.593q0-.14.016-.297.015-.156.062-.281.063-.141.172-.22.125-.077.344-.077.578 0 .953.343t.422.907q.047.75.062 1.515.032.766.047 1.516.016.86.016 1.672.016.797.11 1.687.187-.609.359-1.265.172-.657.297-1.328.14-.672.218-1.329.094-.671.094-1.296 0-.079-.016-.125v-.141q-.015-.078-.015-.156v-.157q0-.39.172-.578t.593-.187q.157 0 .375.047.235.047.454.14.234.094.421.235.188.14.25.312h-.015q.078.156.094.297.015.14.015.313m7.25 9.796q0 .36-.22.47-.203.109-.5.109-.265 0-.53-.047-.25-.032-.485-.14-.219-.11-.39-.298-.157-.187-.22-.484-.218-.938-.25-1.828-.03-.907-.03-1.86v-1.922q0-1.312.109-2.718.109-1.422.234-2.735 0-.047.016-.109.015-.063.015-.094.016-.172.047-.375t.094-.36q.078-.171.203-.28.14-.11.36-.11.25 0 .468.11.234.093.406.265.172.156.266.39.11.235.11.485 0 .266-.016.594-.016.312-.047.594 0 .078-.016.172 0 .093-.015.171.218-.437.5-.906.28-.484.64-.875.375-.406.813-.656.453-.25 1-.25.453 0 .75.14t.468.407q.188.25.25.594.079.343.079.734 0 .531-.032 1.078l-.062 1.063q-.047.546-.078 1.078-.032.531-.032 1.078 0 .656.032 1.36.031.687.093 1.327.063.625.141 1.141.078.5.156.781.063.235.125.547.078.297.141.625.078.313.125.61.047.296.047.53 0 .344-.281.438-.266.094-.532.094-.265 0-.609-.047-.328-.031-.594-.172-.328-.234-.437-.656-.094-.422-.125-.828l-.047-.422-.125-.984q-.078-.61-.156-1.344-.063-.735-.11-1.516-.047-.797-.047-1.547 0-.672.047-1.297.063-.625.125-1.265.031-.328.047-.531t.047-.532q-.313.5-.625 1.172-.313.672-.594 1.406-.281.72-.515 1.407-.22.687-.344 1.203l-.094.344q-.078.25-.14.5-.047.25-.047.468 0 .282.03.657.032.359.079.687.047.39.11.797 0 .031.03.203.032.172.063.406t.047.5q.031.25.031.453m11.984-2.78q0 .468-.266.968-.25.5-.656.922-.407.406-.938.672-.515.265-1.031.265-.734 0-1.266-.28-.53-.298-.922-.782-.39-.5-.64-1.125-.235-.625-.375-1.281-.14-.672-.203-1.329-.047-.671-.047-1.218 0-.469.047-1.11.062-.64.187-1.328.14-.687.375-1.36.235-.671.578-1.202.36-.532.844-.86.5-.328 1.14-.328.5 0 .891.203.407.203.672.547.281.328.422.766.156.437.156.906 0 .61-.28 1.328-.282.719-.735 1.39-.438.673-1 1.22-.547.53-1.094.812.031.281.125.828.094.531.25 1.063.172.531.39.922.235.39.547.39.157 0 .266-.094.125-.093.219-.25.094-.156.156-.343.078-.188.14-.36l.094-.218q.032-.047.032-.063.015-.016.031-.047l.203-.375q.11-.172.297-.297h-.016q.063-.062.125-.062.078-.016.141-.016.172 0 .375.11.203.109.375.28.172.157.281.36.11.188.11.375m-3.094-6.891q0-.157-.016-.329-.015-.171-.078-.296-.219.265-.39.64-.157.36-.266.766-.11.39-.188.797-.062.406-.093.75.406-.485.718-1.094.313-.625.313-1.234m10.797 9.265q0 .172-.078.297-.079.11-.204.188-.109.062-.25.093-.125.032-.25.032-.187 0-.406-.047t-.437-.125q-.219-.094-.407-.219-.171-.14-.265-.313-.094-.171-.14-.421l-.063-.532q-.157.375-.375.735-.203.36-.5.64-.297.266-.672.422-.36.172-.813.172-.797 0-1.297-.375-.484-.375-.765-.937-.266-.579-.36-1.25-.078-.688-.078-1.313 0-.516.047-1.172t.125-1.344.188-1.328q.11-.656.234-1.156.156-.578.375-1.266.234-.703.578-1.296.36-.61.875-1.032.516-.422 1.235-.468-.047-1.266-.141-2.329-.078-1.078-.172-2.203l-.156-1.734-.063-.625q-.03-.25-.047-.5-.015-.266-.015-.516 0-.359.187-.5.203-.14.516-.14.687 0 1.047.203t.5.547q.156.343.172.812.015.453.015.985 0 .343.078.78l.079.579.125 1.594.062.75.063.75.328 3.36.625 6.28.047.578q.062.641.109 1.329.062.687.219 1.359.047.172.078.328.047.156.047.328m-3.64-9.14q0-.172-.017-.375v-.829q-.109.157-.28.438-.173.266-.266.484-.25.547-.454 1.407-.203.843-.359 1.78-.14.923-.219 1.813-.078.875-.078 1.47v.5q.016.28.063.577.047.281.14.547t.25.438q.235-.297.422-.907.188-.625.313-1.406.14-.797.234-1.672t.14-1.687q.063-.828.079-1.5.031-.688.031-1.078" aria-label="Pwned" style="font-weight:700;font-size:32px;line-height:1;font-family:&quot;Just Another Hand&quot;;-inkscape-font-specification:&quot;Just Another Hand Bold&quot;;stroke-width:2.471;stroke-linecap:square"/>
</svg>
