<svg xmlns="http://www.w3.org/2000/svg" width="64" height="64"><switch><g><path d="M16.7 55.3c2.7 1.6 5.7 2.7 9.1 3.3 11.8 2 23.2-4.2 28.3-14.4.4-.8 1.1-1.5 2-1.6 3.9-.9 7.1-4 7.8-8.3.2-1.2.1-2.5 0-3.6-.1-.8-.6-1.2-1.2-1.3-.7-.1-1.2.1-1.7.9-.6 1.1-2.8 2.2-4.5 3.1-1.5.8-2 2-2.8 2.1-.8.2-2-.8-3.4-1.2-1.6-.4-2.8-.6-4-1.5-.2-.3-.6-.4-1-.6-.8 0-1.5.4-1.6 1.2v.7c.3 2.2 1.6 4.4 3.3 6 1.5 1.1 1.8 2.6.8 4.3-2.1 3.6-6.2 4.4-9.6 4.4-6.3 0-10.2-4.9-10.5-10.2 0-1.2.1-1.9 1.1-2 1.1-.1 1.7 0 2.8 0 .7 0 1.5.1 2.1.2 1.6.3 1.9-.4 2-1 0-.3-.1-.9-.3-1.2-1.1-1.7-1.2-2.1-2.9-3.7-.4-.3-.9-.9-.6-1.3.7-1 2.6-2 7.3-2.9 1.9-.3 4.7-.3 6.1-.2 1.5.1 3.4.2 4.6.6 1.7.4 3.1-.9 3.4-2.2.2-1.1-.3-2-1.2-3-.7-.8-1.1-1.2-1.5-3.7-.4-4.2-3.7-6.9-5.4-8.1-3.5-2.6-6.1-3.6-10.6-4.4-5.8-1-11.6 0-16.4 2.5-1.3.9-2.6 1.1-3.9.9-.2 0-.6-.1-.8-.2-.6-.2-1.1-.3-1.8-.4C7.8 7.3 4 8.1.7 10c-.3.3-.6.7-.7 1.1-.1.8.2 1.5 1.2 1.7 1.5.4 2.8 1.5 3.6 3 1.2 2.4 1.2 5 .3 7.3-.6 1.6-1 3.1-1.2 4.8-2.1 11.2 3.4 22 12.8 27.4z" fill="#2bc8ed"/></g></switch></svg>