<?xml version="1.0" encoding="UTF-8" standalone="no"?>
<!-- Generator: Adobe Illustrator 23.0.3, SVG Export Plug-In . SVG Version: 6.00 Build 0)  -->

<svg
   xmlns:dc="http://purl.org/dc/elements/1.1/"
   xmlns:cc="http://creativecommons.org/ns#"
   xmlns:rdf="http://www.w3.org/1999/02/22-rdf-syntax-ns#"
   xmlns:svg="http://www.w3.org/2000/svg"
   xmlns="http://www.w3.org/2000/svg"
   xmlns:sodipodi="http://sodipodi.sourceforge.net/DTD/sodipodi-0.dtd"
   xmlns:inkscape="http://www.inkscape.org/namespaces/inkscape"
   version="1.1"
   id="Layer_1"
   x="0px"
   y="0px"
   viewBox="0 0 120 60"
   style="enable-background:new 0 0 120 60;"
   xml:space="preserve"
   sodipodi:docname="classy-ar21.svg"
   inkscape:version="0.92.2 5c3e80d, 2017-08-06"><metadata
     id="metadata24"><rdf:RDF><cc:Work
         rdf:about=""><dc:format>image/svg+xml</dc:format><dc:type
           rdf:resource="http://purl.org/dc/dcmitype/StillImage" /></cc:Work></rdf:RDF></metadata><defs
     id="defs22" /><sodipodi:namedview
     pagecolor="#ffffff"
     bordercolor="#666666"
     borderopacity="1"
     objecttolerance="10"
     gridtolerance="10"
     guidetolerance="10"
     inkscape:pageopacity="0"
     inkscape:pageshadow="2"
     inkscape:window-width="654"
     inkscape:window-height="480"
     id="namedview20"
     showgrid="false"
     inkscape:zoom="2.7"
     inkscape:cx="60"
     inkscape:cy="30"
     inkscape:window-x="0"
     inkscape:window-y="0"
     inkscape:window-maximized="0"
     inkscape:current-layer="Layer_1" /><style
     type="text/css"
     id="style2">
	.st0{filter:url(#Adobe_OpacityMaskFilter);}
	.st1{fill-rule:evenodd;clip-rule:evenodd;fill:#FFFFFF;}
	.st2{mask:url(#b_2_);fill-rule:evenodd;clip-rule:evenodd;fill:#464D53;}
</style><title
     id="title4">logo_crunchbase</title><g
     id="g17"><defs
       id="defs9"><filter
         id="Adobe_OpacityMaskFilter"
         filterUnits="userSpaceOnUse"
         x="14.5"
         y="11.81"
         width="91"
         height="38.37"><feColorMatrix
           type="matrix"
           values="1 0 0 0 0  0 1 0 0 0  0 0 1 0 0  0 0 0 1 0"
           id="feColorMatrix6" /></filter></defs><mask
       maskUnits="userSpaceOnUse"
       x="14.5"
       y="11.81"
       width="91"
       height="38.37"
       id="b_2_"><g
         class="st0"
         id="g12"><path
           id="a_2_"
           class="st1"
           d="M60,50.18h45.5V11.81H14.5v38.37H60z" /></g></mask><path
       class="st2"
       d="M50.77,36.58c-1.43,0-1.55-1.93-1.4-3.58c0.31-3.39,2.25-7.34,4.34-7.34c1.24,0,2.1,1.47,2.5,2.29   C55.47,30.98,52.8,36.58,50.77,36.58L50.77,36.58z M37.55,28.14c0.49-5.41,3.27-12.11,5.11-12.11c0.95,0,0.87,1.33,0.76,2.52   c-0.34,3.76-3.22,8.65-6.03,12.31C37.36,30.13,37.46,29.06,37.55,28.14z M103.91,23.37c-1.33,0-1.85,0.46-2.08,0.92   c-0.75,2.29-1.37,4.32-2.33,6.43c-1.07,2.38-2.91,5.97-4.34,5.97c-1.14,0-1.39-1.58-1.27-2.95c0.08-1.93,0.8-4.77,1.27-6.88   l0.42-1.93c0.21-1.28-0.5-1.83-1.83-1.83c-1.05,0-1.78,0.46-1.91,0.92c-0.56,2.06-0.91,3.78-1.92,6.05   c-0.55,1.25-1.34,2.85-3.03,4.41c0.32-1.93-0.4-4.22-1.19-6.24c-0.42-1.19-0.84-2.14-1.59-3.48c-0.53-0.95-1.28-1.87-2.58-1.87   c-0.86,0-1.83,0.33-2.22,0.83c-0.77,2.29-2.96,6.36-4.78,8.86c0.02-1.65-0.91-4.13-1.83-5.83c-0.36-0.67-1.12-1.97-1.55-2.6   c-0.61-0.88-1.27-1.35-2.22-1.35c-1.05,0-1.65,0.28-2.11,0.83c-0.78,2.35-2.65,6.32-3.74,8.29c-1.07,1.93-2.13,3.94-2.97,3.94   c-0.76,0-0.79-1.09-0.71-2.01c0.16-1.74,1.78-6.98,2.2-8.35c0.32-1.28-0.93-1.74-2.1-1.46l-1.36,0.37   c-0.88-0.83-2.49-1.93-4.52-1.93c-4.08,0-8.11,4.86-8.58,10.4c-1.28,1.83-3.07,3.87-4.83,3.63c-0.85-0.11-1.62-0.74-1.9-1.84   c3.83-4.4,7.93-11.19,8.38-16.14c0.33-3.6-1.04-5.78-3.81-5.78c-5.14,0-8.89,7.25-9.56,14.59c-0.24,2.66-0.21,4.89,0.27,6.91   c-2.22,2.32-5.27,4.19-8.31,4.19c-3.14,0-6.26-3.02-5.88-8.99c0.39-6.15,4.52-14.22,8.35-14.22c1.3,0,1.85,1.32,1.69,2.49   c-0.16,1.16-0.56,1.88-1.13,2.63c-0.19,0.92,0.5,2.11,1.85,2.11c1.91,0,3.03-2.12,3.24-4.69c0.27-3.17-1.46-5.93-5.2-5.93   c-7.83,0-13.21,9.75-13.67,17.61c-0.4,6.99,2.43,12.84,9.81,12.84c3.62,0,7.24-2.18,10.46-4.99c1.1,1.56,2.33,2.79,4.8,2.79   c2.11,0,4.3-1.69,5.81-3.5c0.71,2.16,2.32,3.5,4.27,3.5c2.4,0,4.39-1.63,5.97-4.22c0.48,1.83,1.35,3.57,3.43,3.57   c2.38,0,3.69-1.8,5.28-4.17c1.26-1.88,2.21-4.15,3.79-7.29l0.59,0.85c1.24,2.2,2.25,4.26,2.05,5.82c-0.21,1.65-1.4,2.24-2.5,2.24   c-1.1,0-1.56-0.65-2.36-1.19c-0.85,0.12-1.35,1.1-1.46,1.93c-0.22,1.74,1.17,2.66,3.64,2.66c3.33,0,5.2-1.57,6.8-3.58   c1.75-2.2,4.5-6.42,5.63-9.04c1.32,2.38,2.64,5.19,2.42,6.93c-0.17,1.38-1.06,2.48-2.49,2.48c-1.05,0-1.94-0.93-2.65-1.3   c-0.48,0-1.24,1.03-1.36,2.04c-0.21,1.65,1.19,2.66,4.14,2.66c3.64,0,6.98-2.52,9.44-5.51c0.22,2.84,1.29,5.16,4.22,5.16   c2,0,3.95-1.43,5.75-4.51c0,0-0.85,3.7-1.11,4.76c-0.7,2.92-1.4,5.63-1.58,7.56c-0.15,1.65,0.9,2.29,2.04,2.29   c1.05,0,1.97-0.73,2.11-1.28c0.52-5.71,1.58-11.28,2.67-16.91c0.32-1.63,1.3-6.51,1.3-6.51C105.65,24.29,105.25,23.37,103.91,23.37   L103.91,23.37z"
       mask="url(#b_2_)"
       id="path15" /></g></svg>