<svg xmlns="http://www.w3.org/2000/svg" viewBox="-6.14 -0.44 120 60" width="120" height="60"><g transform="matrix(1.093781 0 0 1.093781 1.285689 -2.938199)"><path d="M63.496 39.008l-5.782-8.3-2.177 2.2v6.077h-4.603V19.758h4.603v8.004l7.55-8.004h5.487l-7.732 7.823 8.4 11.428zm19.59-19.25h5.124l-6.508 19.25h-4.988l-6.37-19.25H75.4l3.8 13.627h.295z" fill="#353558"/><g transform="matrix(.225532 0 0 .225532 7.524676 9.692382)"><path d="M1.76 46.037v85.557l82.34 42.728 82.038-42.728V46.037L84.1 3.21z" fill="#ec1a3b"/><path d="M32.525 62.023L84 35.28l20.5 10.657L78.47 59.5v79.927L58.363 128.98V69.965L32.525 83.437zM99.18 134.4V70.066L119.6 59.5v64.243z" fill="#fff"/></g></g></svg>