<?xml version="1.0" encoding="UTF-8" standalone="no"?>
<!-- Generator: Adobe Illustrator 23.0.6, SVG Export Plug-In . SVG Version: 6.00 Build 0)  -->

<svg
   xmlns:dc="http://purl.org/dc/elements/1.1/"
   xmlns:cc="http://creativecommons.org/ns#"
   xmlns:rdf="http://www.w3.org/1999/02/22-rdf-syntax-ns#"
   xmlns:svg="http://www.w3.org/2000/svg"
   xmlns="http://www.w3.org/2000/svg"
   xmlns:sodipodi="http://sodipodi.sourceforge.net/DTD/sodipodi-0.dtd"
   xmlns:inkscape="http://www.inkscape.org/namespaces/inkscape"
   version="1.1"
   id="Vrstva_1"
   x="0px"
   y="0px"
   viewBox="0 0 256 96.010757"
   xml:space="preserve"
   sodipodi:docname="knot-dnscz-official.svg"
   width="256"
   height="96.010757"
   inkscape:version="0.92.4 (5da689c313, 2019-01-14)"><metadata
   id="metadata33"><rdf:RDF><cc:Work
       rdf:about=""><dc:format>image/svg+xml</dc:format><dc:type
         rdf:resource="http://purl.org/dc/dcmitype/StillImage" /><dc:title></dc:title></cc:Work></rdf:RDF></metadata><defs
   id="defs31" /><sodipodi:namedview
   pagecolor="#ffffff"
   bordercolor="#666666"
   borderopacity="1"
   objecttolerance="10"
   gridtolerance="10"
   guidetolerance="10"
   inkscape:pageopacity="0"
   inkscape:pageshadow="2"
   inkscape:window-width="1463"
   inkscape:window-height="752"
   id="namedview29"
   showgrid="false"
   fit-margin-top="0"
   fit-margin-left="0"
   fit-margin-right="0"
   fit-margin-bottom="0"
   inkscape:zoom="0.58666667"
   inkscape:cx="300"
   inkscape:cy="112.5"
   inkscape:window-x="2021"
   inkscape:window-y="59"
   inkscape:window-maximized="0"
   inkscape:current-layer="Vrstva_1" />
<style
   type="text/css"
   id="style24">
	.st0{fill:#003893;}
</style>
<path
   class="st0"
   d="m 136.07207,45.613699 -13.02636,-16.18686 h -0.0854 v 16.18686 h -8.32832 v -35.10711 h 8.32832 v 14.26493 h 0.17084 l 12.55656,-14.26493 h 10.54921 l -15.11912,16.18685 16.01602,18.96297 h -11.06173 m 37.58425,-0.0427 -14.1368,-22.97765 h -0.12813 l 0.21355,22.97765 h -8.24291 v -35.10711 h 9.65232 l 14.09409,22.89222 h 0.17084 l -0.21355,-22.89222 h 8.24291 v 35.10711 z m 33.6977,0.9396 c -10.97631,0 -19.09109,-7.55956 -19.09109,-18.66399 0,-11.27528 8.11478,-18.3650403 19.09109,-18.3650403 11.01902,0 19.1338,7.0897603 19.1338,18.3650403 0,11.10443 -8.11478,18.66399 -19.1338,18.66399 z m 0,-29.34134 c -5.9366,0 -10.0367,4.5699 -10.0367,10.72005 0,6.3637 4.1001,10.8909 10.0367,10.8909 5.89389,0 10.07941,-4.56991 10.07941,-10.8909 0,-6.19285 -4.14281,-10.72005 -10.07941,-10.72005 z m 38.7374,0.51251 v 27.88923 h -8.49916 v -27.88923 h -9.90858 v -7.26059 H 256 v 7.26059 z m -118.39039,67.77978 h -13.11177 v -35.1071 h 12.68468 c 9.95129,0 20.07341,4.18552 20.07341,17.46813 0.0427,12.34301 -9.994,17.63897 -19.64632,17.63897 z m -0.59793,-27.88922 h -4.22823 v 20.54321 h 4.01469 c 6.06473,0 11.65966,-2.47714 11.65966,-10.33567 0,-7.85852 -5.59493,-10.20754 -11.44612,-10.20754 z m 46.55322,27.88922 -14.1368,-22.97764 h -0.12813 l 0.21355,22.97764 h -8.24291 v -35.1071 h 9.65232 l 14.09409,22.89222 h 0.17084 l -0.21355,-22.89222 h 8.24291 v 35.1071 z m 34.76544,-26.01001 c -1.45212,-1.8365 -4.0574,-3.03236 -6.23557,-3.03236 -2.17818,0 -4.91158,0.72606 -4.91158,3.50217 0,2.34901 2.09276,3.07507 5.42409,4.1001 4.74074,1.53753 10.89089,3.58758 10.89089,10.54921 0,8.07207 -6.49183,11.70237 -13.45345,11.70237 -4.997,0 -10.07942,-1.8365 -13.15449,-5.0397 l 5.55222,-5.63764 c 1.66566,2.13547 4.82616,3.71571 7.60227,3.71571 2.56256,0 4.86887,-0.98231 4.86887,-3.80113 0,-2.69069 -2.6907,-3.50217 -7.30331,-4.997 -4.48448,-1.45212 -8.96897,-3.71571 -8.96897,-10.07941 0,-7.77311 7.04705,-11.01902 13.58158,-11.01902 3.97198,0 8.41375,1.49483 11.48883,4.31365 z M 78.71338,11.574319 c 0.555222,2.94695 0.896897,5.97932 0.896897,9.0971 0,9.48148 -2.818819,18.36503 -7.644978,25.79646 -0.170838,0.25626 -0.341675,0.51252 -0.512513,0.76877 -0.170837,0.25626 -0.341675,0.51252 -0.512512,0.72606 -1.836504,2.64798 -3.971972,5.08242 -6.320988,7.30331 -0.213547,0.21354 -0.427094,0.38438 -0.640641,0.59793 -0.213547,0.21354 -0.427093,0.38438 -0.64064,0.59793 -4.655322,4.1001 -10.079413,7.26059 -16.058726,9.31064 -1.494828,-2.69069 -2.647981,-5.59493 -3.459459,-8.67 5.125125,-1.66567 9.823156,-4.39907 13.752419,-7.94395 0.213547,-0.17083 0.427094,-0.38438 0.597931,-0.55522 0.213547,-0.17083 0.427094,-0.38438 0.597931,-0.59793 2.220888,-2.17818 4.185519,-4.65532 5.808476,-7.3033 0.170837,-0.25626 0.298965,-0.51251 0.427093,-0.72606 0.170838,-0.25626 0.298966,-0.51251 0.427094,-0.76877 3.032366,-5.50951 4.78345,-11.78779 4.78345,-18.49316 0,-2.7334 -0.298965,-5.38138 -0.854187,-7.94394 -0.04271,-0.29897 -0.128128,-0.55523 -0.170838,-0.81148 -0.08542,-0.25626 -0.128128,-0.55522 -0.213547,-0.81148 -0.256256,0.0854 -0.555222,0.12813 -0.811478,0.21355 -0.256256,0.0854 -0.555222,0.17083 -0.811478,0.25625 -8.798131,2.86153 -16.186854,8.84084 -20.927594,16.61395 -3.075075,-0.93961 -6.278279,-1.62296 -9.5669,-1.96463 5.637637,-10.89089 15.289956,-19.3473503 27.035035,-23.3193203 0,0 0,0 0,0 C 58.725392,1.0251087 53.087754,7.872725e-5 47.279279,7.872725e-5 23.532866,-0.04263127 3.7584251,17.297379 0,40.061479 c 0.21354688,-0.17084 0.42709376,-0.38439 0.64064064,-0.55522 8.37103766,-7.34602 19.34734736,-11.8305 31.34868236,-11.8305 0.811478,0 1.580247,0 2.349015,0.0427 0.298966,0 0.597932,0.0427 0.896897,0.0427 0.298966,0.0427 0.597931,0.0427 0.896897,0.0854 3.288622,0.29896 6.449116,0.89689 9.481482,1.8365 0.256256,0.0854 0.555222,0.17084 0.811478,0.25626 0.256256,0.0854 0.555222,0.17083 0.811478,0.25625 5.979313,2.05005 11.403403,5.21055 16.058725,9.31065 -1.622956,2.69069 -3.544878,5.12512 -5.765765,7.3033 -3.929263,-3.54488 -8.584585,-6.27828 -13.70971,-7.94395 -0.256256,-0.0854 -0.512513,-0.17083 -0.811478,-0.25625 -0.256257,-0.0854 -0.555222,-0.17084 -0.811478,-0.25626 -2.946947,-0.81148 -6.064732,-1.28128 -9.225226,-1.3667 -0.298965,0 -0.597931,0 -0.896897,0 h -0.128128 c -0.256256,0 -0.512512,0 -0.768768,0 -9.524191,0.17084 -18.236904,3.84385 -24.814148,9.82316 -0.2135468,0.17084 -0.4270937,0.38438 -0.5979312,0.55522 -0.2135469,0.17084 -0.4270938,0.38439 -0.5979313,0.59793 0.1708375,0.17084 0.3843844,0.38439 0.5979313,0.59793 0.2135468,0.21355 0.4270937,0.38439 0.6406406,0.55523 6.6199536,5.9366 15.2899566,9.6096 24.8141476,9.82315 0.726059,3.2032 1.793794,6.32099 3.117784,9.26794 -0.768768,0.0427 -1.580247,0.0427 -2.349015,0.0427 -12.001335,0 -22.9776447,-4.48449 -31.34868236,-11.8305 C 0.42709376,56.248329 0.21354688,56.034779 0,55.863949 c 3.7584251,22.76409 23.532866,40.14681 47.364698,40.14681 5.851185,0 11.446113,-1.02503 16.613947,-2.94695 -11.745078,-4.01468 -21.397397,-12.47113 -27.035035,-23.36203 -0.128128,-0.25625 -0.256256,-0.55522 -0.384384,-0.81147 -0.128128,-0.25626 -0.256256,-0.55523 -0.384384,-0.81148 -1.366701,-2.90424 -2.434435,-5.93661 -3.203204,-9.13981 -0.08542,-0.25625 -0.128128,-0.55522 -0.170837,-0.85419 -0.08542,-0.25625 -0.128128,-0.55522 -0.170838,-0.85418 -0.597931,-2.98966 -0.896897,-6.10744 -0.896897,-9.26794 0,-3.16049 0.298966,-6.27828 0.896897,-9.26793 3.203203,0.0427 6.278279,0.51251 9.225226,1.32399 -0.555222,2.56256 -0.811479,5.21054 -0.811479,7.94394 0,2.7334 0.298966,5.38138 0.811479,7.94395 0.04271,0.25625 0.128128,0.55522 0.170837,0.81147 0.08542,0.25626 0.128128,0.55523 0.213547,0.81148 0.811478,3.07508 1.964631,5.97931 3.41675,8.71271 0.128128,0.25626 0.256256,0.51252 0.427094,0.76877 0.128128,0.25626 0.298965,0.51252 0.427094,0.76877 4.74074,7.77311 12.129462,13.75242 20.927594,16.61395 0.256256,0.0854 0.555222,0.17084 0.811478,0.25626 0.256256,0.0854 0.555222,0.17083 0.811478,0.21354 0.08542,-0.25625 0.128128,-0.55522 0.213547,-0.81148 0.08542,-0.25625 0.128128,-0.55522 0.170837,-0.85418 0.555222,-2.56257 0.854188,-5.21055 0.854188,-7.94395 0,-6.70537 -1.751084,-13.02636 -4.78345,-18.49316 2.391725,-2.22088 4.569903,-4.65532 6.449116,-7.3033 4.826159,7.43143 7.644978,16.31498 7.644978,25.83917 0,3.11779 -0.298966,6.15015 -0.896897,9.05439 10.207541,-8.79813 16.656657,-21.82449 16.656657,-36.38839 0,-14.52119 -6.449116,-27.54755 -16.656657,-36.38839 z"
   id="path26"
   inkscape:connector-curvature="0"
   style="fill:#003893;stroke-width:0.42709377" />
</svg>