<?xml version="1.0" encoding="UTF-8" standalone="no"?>
<svg
   xmlns:dc="http://purl.org/dc/elements/1.1/"
   xmlns:cc="http://creativecommons.org/ns#"
   xmlns:rdf="http://www.w3.org/1999/02/22-rdf-syntax-ns#"
   xmlns:svg="http://www.w3.org/2000/svg"
   xmlns="http://www.w3.org/2000/svg"
   xmlns:sodipodi="http://sodipodi.sourceforge.net/DTD/sodipodi-0.dtd"
   xmlns:inkscape="http://www.inkscape.org/namespaces/inkscape"
   id="Layer_1"
   data-name="Layer 1"
   viewBox="0 0 120 59.999999"
   version="1.1"
   sodipodi:docname="ripple-ar21.svg"
   width="120"
   height="60"
   inkscape:version="0.92.3 (2405546, 2018-03-11)">
  <metadata
     id="metadata28">
    <rdf:RDF>
      <cc:Work
         rdf:about="">
        <dc:format>image/svg+xml</dc:format>
        <dc:type
           rdf:resource="http://purl.org/dc/dcmitype/StillImage" />
        <dc:title>Ripple_logo_RGB</dc:title>
      </cc:Work>
    </rdf:RDF>
  </metadata>
  <sodipodi:namedview
     pagecolor="#ffffff"
     bordercolor="#666666"
     borderopacity="1"
     objecttolerance="10"
     gridtolerance="10"
     guidetolerance="10"
     inkscape:pageopacity="0"
     inkscape:pageshadow="2"
     inkscape:window-width="1920"
     inkscape:window-height="1001"
     id="namedview26"
     showgrid="false"
     inkscape:zoom="3.1054393"
     inkscape:cx="116.80861"
     inkscape:cy="25.304706"
     inkscape:window-x="-9"
     inkscape:window-y="-9"
     inkscape:window-maximized="1"
     inkscape:current-layer="Layer_1" />
  <defs
     id="defs7">
    <linearGradient
       id="linear-gradient"
       x1="83.681999"
       y1="72.488297"
       x2="231.177"
       y2="219.9832"
       gradientUnits="userSpaceOnUse"
       gradientTransform="matrix(0.10016337,0,0,0.10016337,22.2783,16.524466)">
      <stop
         offset="0"
         stop-color="#00aae4"
         id="stop2" />
      <stop
         offset="1"
         stop-color="#006097"
         id="stop4" />
    </linearGradient>
  </defs>
  <title
     id="title9">Ripple_logo_RGB</title>
  <g
     id="g50"
     transform="translate(1.1692976)">
    <g
       transform="matrix(0.83686403,0,0,0.83686403,12.571364,3.5217736)"
       id="g39">
      <path
         d="m 57.000584,28.558923 c -0.231077,-0.07705 -0.718893,-0.128429 -1.206778,-0.128429 -1.463637,0 -3.029942,1.185614 -3.029942,2.649191 V 38.05938 H 49.425919 V 25.606058 h 3.209605 v 1.258152 c 0.744615,-0.924368 2.105435,-1.514961 3.620435,-1.514961 a 6.8050996,6.8050996 0 0 1 1.129843,0.102708 z"
         style="fill:#434c54;stroke-width:0.10016337"
         id="path11"
         inkscape:connector-curvature="0" />
      <path
         d="m 60.77492,19.058408 c 1.206828,0 2.18256,0.924368 2.18256,2.131207 0,1.206837 -0.975691,2.131135 -2.18256,2.131135 -1.206868,0 -2.18256,-0.924298 -2.18256,-2.131135 0,-1.206839 0.975762,-2.131207 2.18256,-2.131207 z m 1.668983,19.000991 H 59.105928 V 25.606058 h 3.337975 V 38.05937 Z"
         style="fill:#434c54;stroke-width:0.10016337"
         id="path13"
         inkscape:connector-curvature="0" />
      <path
         d="m 72.304205,25.348638 a 5.6991357,5.6991357 0 0 0 -3.646006,1.259354 V 25.605947 H 65.447872 V 44.22123 h 3.338285 v -7.034684 a 5.2514154,5.2514154 0 0 0 3.338315,1.130023 c 1.848865,0 3.620124,-0.822341 4.724275,-2.106186 0.976162,-1.130012 1.565684,-2.669824 1.565684,-4.364849 2e-5,-3.671858 -2.721559,-6.496896 -6.110226,-6.496896 z m -0.405722,9.937318 c -2.073512,0 -3.436335,-1.430904 -3.436335,-3.429534 0,-1.998629 1.362823,-3.429524 3.436335,-3.429524 1.769887,0 3.204887,1.535725 3.204887,3.429524 0,1.893799 -1.43499,3.429534 -3.204887,3.429534 z"
         style="fill:#434c54;stroke-width:0.10016337"
         id="path15"
         inkscape:connector-curvature="0" />
      <path
         d="M 98.673966,38.05938 H 95.335851 V 19.828685 h 3.338115 V 38.05942 Z"
         style="fill:#434c54;stroke-width:0.10016337"
         id="path17"
         inkscape:connector-curvature="0" />
      <path
         d="m 112.28273,36.082205 c -1.20682,1.437915 -3.18401,2.233913 -5.10973,2.233913 -3.72315,0 -6.52199,-2.567628 -6.52199,-6.470553 0,-3.466414 2.36234,-6.496336 6.05983,-6.496336 3.44076,0 5.88008,2.901492 5.88008,6.367896 a 5.4791669,5.4791669 0 0 1 -0.0771,0.9501 h -8.62748 c 0.17974,1.745968 1.592,2.952816 3.36376,2.952816 1.41212,0 2.54197,-0.795998 3.13257,-1.437915 z m -3.10689,-5.854289 c -0.10277,-1.104131 -1.10406,-2.18256 -2.46502,-2.18256 -1.3866,0 -2.51632,1.052807 -2.67036,2.18256 z"
         style="fill:#434c54;stroke-width:0.10016337"
         id="path19"
         inkscape:connector-curvature="0" />
      <path
         d="m 87.24841,25.348638 a 5.6991056,5.6991056 0 0 0 -3.645947,1.259354 V 25.605947 H 80.392087 V 44.22123 h 3.338305 v -7.034684 a 5.2513954,5.2513954 0 0 0 3.338305,1.130023 c 1.848876,0 3.620124,-0.822341 4.724276,-2.106186 0.976172,-1.130012 1.565683,-2.669824 1.565683,-4.364849 0,-3.671858 -2.721569,-6.496896 -6.110246,-6.496896 z m -0.405722,9.937318 c -2.073502,0 -3.436325,-1.430904 -3.436325,-3.429534 0,-1.998629 1.362863,-3.429544 3.436325,-3.429544 1.769887,0 3.204887,1.535726 3.204887,3.429524 0,1.893799 -1.43498,3.429554 -3.204887,3.429554 z"
         style="fill:#434c54;stroke-width:0.10016337"
         id="path21"
         inkscape:connector-curvature="0" />
    </g>
    <g
       transform="matrix(1.7251334,0,0,1.7251334,-32.464641,-23.775715)"
       id="g31">
      <path
         d="m 42.544545,33.5223 c -0.753659,-0.43516 -1.602374,-0.561286 -2.443044,-0.590644 -0.705321,-0.02463 -1.757628,-0.476608 -1.757628,-1.75968 0,-0.95597 0.774954,-1.725335 1.757988,-1.75966 0.840601,-0.02936 1.689235,-0.155644 2.442684,-0.590653 a 4.4520315,4.4520315 0 1 0 -6.678032,-3.855429 c 0,0.862578 0.30679,1.656362 0.698249,2.392583 0.329237,0.61921 0.495808,1.768474 -0.633383,2.420387 -0.83999,0.484971 -1.88831,0.177891 -2.411934,-0.660127 -0.442301,-0.707814 -0.976232,-1.371015 -1.723761,-1.802679 a 4.4520115,4.4520115 0 1 0 0,7.711096 c 0.747319,-0.431503 1.281299,-1.094275 1.72332,-1.801658 0.362973,-0.580877 1.269501,-1.321305 2.412335,-0.660999 0.838707,0.484591 1.097991,1.546313 0.633032,2.420829 -0.391398,0.736111 -0.697798,1.529726 -0.697798,2.392152 A 4.4519715,4.4519715 0 1 0 42.544545,33.5223 Z"
         style="fill:url(#linear-gradient);stroke-width:0.10016337"
         id="path23"
         inkscape:connector-curvature="0" />
    </g>
  </g>
</svg>
