<svg xmlns="http://www.w3.org/2000/svg" width="120" height="60"><path d="M112.645 21.573c0-1.774-1.234-3.895-3.818-3.895-1.504 0-3.047.848-2.815 2.893.154 1.3 2.198 1.813 3.355 2.16 3.317 1.04 4.628 2.314 4.628 4.744 0 2.4-2.044 4.165-5.708 4.165-1.774 0-3.78-.347-4.975-1.466l-.424-3.548h.347c.54 3.163 1.9 4.435 5.207 4.512 2.12.04 2.738-1.157 2.7-2.623 0-1.466-1.58-2.12-3.47-2.738-2.7-.848-4.358-1.9-4.358-4.474 0-2.623 2.276-4.242 5.67-4.242 1.3 0 2.93.5 3.973 1.118v3.394zm-11.8-3.173c.733-.5 1.3-.964 1.697-1.35.694-.694 1.003-1.3 1.003-1.9a.81.81 0 0 0-.116-.424c-.076-.124-.23-.154-.386-.154l-.54.077a1.77 1.77 0 0 1-1.311-.54c-.347-.347-.5-.8-.5-1.388 0-.617.193-1.118.54-1.504.386-.386.887-.58 1.504-.58.694 0 1.273.27 1.774.77.463.5.694 1.234.733 1.813.04 1.04-.386 2.353-1.543 3.587-.617.656-1.504 1.3-2.623 1.928zm-30.74 19.834v4.628c0 1.388.617 1.813 1.234 1.813.424 0 .733-.116 1.157-.27l.077.27c-.656.347-1.3.694-2.237.694-.656 0-2.276-.23-2.276-1.813v-5.322h-1.3v-.5h1.504l1.427-2.198h.424v2.198h2.276v.5zm-4.55 1.696c0-.964-.656-2.083-2.083-2.083-.8 0-1.658.463-1.543 1.58.077.733 1.196.964 1.813 1.157 1.774.58 2.507 1.234 2.507 2.584 0 1.3-1.118 2.276-3.085 2.276-.964 0-2.044-.193-2.7-.77l-.23-1.928h.193c.27 1.697 1.04 2.4 2.815 2.43 1.118.04 1.466-.617 1.466-1.427s-.848-1.157-1.9-1.466c-1.466-.463-2.353-1.04-2.353-2.43 0-1.427 1.234-2.314 3.047-2.314a4.68 4.68 0 0 1 2.16.617v1.813h-.116zm32.203-22.6c-1.118 0-2.468.617-3.934 2.43v-2.43l-4.82.694v.386l1.504-.154V29.7c0 .463-.077 1.08-.887 1.08h-.77v.54h6.865v-.54h-.848c-.617 0-1.04-.27-1.04-1.08v-8c.193-1.774 1.273-2.777 1.813-2.777.964 0 .926.694 1.813 1.08 1.157.424 2.083-.347 2.083-1.234 0-.8-.58-1.427-1.774-1.427m-67.306 6.825h9.218s.154-1.118-.116-2.468c-.154-.77-.463-1.62-1.08-2.4v-.04c-.926-1.118-2.507-2.006-5.168-2.006-4.86 0-7.366 3.124-7.366 7.366 0 4.397 2.237 7.135 7.405 7.135 3.433 0 5.245-1.62 6.17-3.895l-.386-.193c-1.234 2.4-2.7 3.355-5.1 3.317-3.5 0-4.242-3.317-4.28-6.132v-.077c0-.386.3-.617.694-.617m2.7-6.325c3.78-.04 3.625 5.014 3.625 5.052 0 .733-.694.656-.694.656h-5.592s-.656.04-.656-.694v-.04c.04-1.697.5-4.975 3.317-4.975m21 23.412h5.1s.077-.617-.077-1.35c-.077-.424-.27-.887-.617-1.3-.5-.617-1.388-1.118-2.854-1.118-2.7 0-4.088 1.736-4.088 4.088 0 2.43 1.234 3.973 4.088 3.973 1.9 0 2.893-.887 3.433-2.16l-.27-.116c-.656 1.35-1.504 1.85-2.815 1.85-1.928 0-2.276-1.813-2.314-3.394v-.04c.04-.27.193-.424.424-.424m1.504-3.5c2.083 0 2.006 2.7 2.006 2.7 0 .386-.386.347-.386.347h-3.124s-.386 0-.386-.386c.077-.926.3-2.66 1.9-2.66m22.86-13.586h9.256s.154-1.118-.116-2.468c-.154-.77-.463-1.62-1.08-2.4v-.04c-.926-1.118-2.507-2.006-5.168-2.006-4.86 0-7.366 3.124-7.366 7.366 0 4.397 2.237 7.135 7.405 7.135 3.433 0 5.245-1.62 6.17-3.895l-.386-.193c-1.234 2.4-2.7 3.355-5.1 3.317-3.5 0-4.242-3.317-4.28-6.132v-.077c-.04-.386.27-.617.656-.617m2.7-6.325c3.78-.04 3.625 5.014 3.625 5.052 0 .733-.694.656-.694.656h-5.63s-.656.04-.656-.694v-.04c.077-1.697.54-4.975 3.355-4.975m-63.918 3.356c2.623-.424 4.474-1.85 4.435-4.6 0-2.584-1.427-4.782-6.634-4.782h-9.1v.463H7c.23 0 .964.077.964 1.04V29.66c0 1.196-1.003 1.157-1.003 1.157h-.964v.424h7.675v-.424h-.926s-1.118.154-1.118-1.157V22.2c0-.5.193-.848.8-.848h1.04c1.62 0 4.55 1.08 5.4 5.67 1.157 6.17 6.48 7.52 11.725 7.3v-.27c-10.607-.704-5.17-12.082-13.307-12.852m-3.47-.463H12.4s-.8.077-.8-.8V12.5c.27-.077 1.08-.116 1.774-.116 2.198 0 4.744.694 4.744 4.512 0 2.815-1.504 3.818-4.28 3.818m27.1 16.046c.656 0 1.118-.386 1.118-.964s-.424-1.003-1.08-1.003-1.118.424-1.118 1.003c-.04.54.424.964 1.08.964m1.4 8.147a.39.39 0 0 1-.386-.424v-6.7l-2.93.5.27.3.5-.04v5.9a.39.39 0 0 1-.386.424h-.5v.347h4.127v-.347h-.694zm13.5-14.58c-.347.3-.733.463-1.08.463-.617.04-.77-.54-.77-.617l-.077-8.9c0-1.658-1.04-3.973-5.747-3.973-3.548 0-5.94 1.658-6.055 3.278-.077.887.5 1.62 1.388 1.58h.23c.077 0 .116-.04.193-.04.04 0 .077-.04.116-.04.848-.347 1.003-1.388 1.003-1.388.3-1.928 1.003-2.93 3.047-2.854 2.4.077 2.468 1.35 2.468 3.548v.3c0 .27-.154 1.196-1.774 1.85-1.234.386-2.854.5-4.358.77-2.237.386-2.854 2.198-2.854 3.548 0 2.12 1.58 3.857 4.474 3.934 2.276.077 3.587-1.196 4.512-1.774.424 1.08.8 1.466 2.006 1.774.694.193 2.198 0 3.433-1.04zM50.6 27.975c0 1.9-2.006 2.623-3.008 2.507-1.774-.193-2.43-1.543-2.43-3.163 0-1.3.424-2.083 1.85-2.623l3.548-1.35v4.628z"/><path d="M72.303 30.752c-.887.04-1.196-.424-1.196-1.196V10.774l-5.515.58v.5l2.198-.116v7.482c-.656-1.08-1.967-1.9-3.317-1.928-2.43-.116-4.397.77-5.67 1.967-1.35 1.234-2.16 3.085-2.16 5.515 0 4.05 2.16 6.904 6.287 6.904 1.58 0 3.394-.58 4.86-1.9v1.543h4.937v-.54h-.424zm-4.474-3.548c0 .58 0 1.003-.23 1.466-.58 1.35-1.85 1.774-3.355 1.774-2.777 0-3.5-2.97-3.5-6.2 0-3.587.8-6.094 3.78-6.094 1.427 0 2.545.733 3.085 1.85.23.463.23 1.04.23 1.774zm-30.16 17.74c-.5 0-.656-.27-.656-.656V33.645l-3.124.347v.3l1.234-.077v4.204c-.386-.617-1.118-1.08-1.9-1.118-1.388-.077-2.468.424-3.2 1.118-.77.694-1.234 1.736-1.234 3.124 0 2.314 1.196 3.895 3.587 3.895.887 0 1.928-.3 2.738-1.08v.887h2.815v-.3zm-2.545-2.006c0 .3 0 .58-.116.848-.347.77-1.04 1.003-1.9 1.003-1.58 0-2.006-1.697-2.006-3.5 0-2.044.463-3.433 2.12-3.433.8 0 1.427.424 1.736 1.04.116.27.154.58.154 1.003zm14.656-5.475c.54 0 .5.386 1.003.617.656.23 1.157-.193 1.157-.694 0-.463-.3-.8-.964-.8-.617 0-1.35.347-2.12 1.3h-.04c-.463-.154-1.04-.27-1.543-.27-2.43 0-3.433.964-3.433 2.584.04 2.044 1.928 2.353 1.928 2.353-.926.116-1.658.656-1.658 1.273 0 .887 1.196 1.3 1.9 1.388v.04c-.656.077-2.12.116-2.237 1.658s1.543 2.43 3.394 2.43c3.008 0 4.204-1.3 4.204-3.085 0-1.658-1.466-2.276-3.085-2.276H46.86c-1.08 0-1.427-.347-1.427-.617 0-.463.5-.617.694-.694.3.04.848.04 1.003.04 1.466 0 3.278-.617 3.278-2.507a2.69 2.69 0 0 0-.23-1.04c-.04-.04-.04-.116-.077-.154-.077-.077-.116-.193-.193-.27-.04-.04-.077-.077-.077-.116-.04-.077-.154-.154-.27-.27l-.424-.3c.193-.386.463-.58.656-.58m-2.468 7.83c1.543 0 2.4.347 2.353 1.504-.077 1.466-1.118 1.928-2.12 1.928-1.388 0-2.237-.733-2.276-2.006 0-.424.154-.8.5-1.04.27-.27.617-.386 1.543-.386m-.116-3.047c-.926 0-1.427-.733-1.504-2.083-.04-1.35.694-2.044 1.427-2.044.656 0 1.427.463 1.388 2.044.04 1.273-.347 2.083-1.3 2.083"/></svg>