<?xml version="1.0" encoding="UTF-8" standalone="no"?>
<!-- Generator: Adobe Illustrator 21.1.0, SVG Export Plug-In . SVG Version: 6.00 Build 0)  -->

<svg
   xmlns:dc="http://purl.org/dc/elements/1.1/"
   xmlns:cc="http://creativecommons.org/ns#"
   xmlns:rdf="http://www.w3.org/1999/02/22-rdf-syntax-ns#"
   xmlns:svg="http://www.w3.org/2000/svg"
   xmlns="http://www.w3.org/2000/svg"
   xmlns:sodipodi="http://sodipodi.sourceforge.net/DTD/sodipodi-0.dtd"
   xmlns:inkscape="http://www.inkscape.org/namespaces/inkscape"
   version="1.1"
   id="Layer_1"
   x="0px"
   y="0px"
   viewBox="0 0 290 60.000002"
   xml:space="preserve"
   sodipodi:docname="readersdigest-wordmark.svg"
   width="290"
   height="60"
   inkscape:version="0.92.3 (2405546, 2018-03-11)"><metadata
   id="metadata59"><rdf:RDF><cc:Work
       rdf:about=""><dc:format>image/svg+xml</dc:format><dc:type
         rdf:resource="http://purl.org/dc/dcmitype/StillImage" /><dc:title></dc:title></cc:Work></rdf:RDF></metadata><defs
   id="defs57">
	
	
	
	
	
	
	
	
	
	
	
	
	
	
	
	
</defs><sodipodi:namedview
   pagecolor="#ffffff"
   bordercolor="#666666"
   borderopacity="1"
   objecttolerance="10"
   gridtolerance="10"
   guidetolerance="10"
   inkscape:pageopacity="0"
   inkscape:pageshadow="2"
   inkscape:window-width="1920"
   inkscape:window-height="1001"
   id="namedview55"
   showgrid="false"
   showguides="false"
   inkscape:zoom="3.4244171"
   inkscape:cx="184.3163"
   inkscape:cy="45.820563"
   inkscape:window-x="-9"
   inkscape:window-y="-9"
   inkscape:window-maximized="1"
   inkscape:current-layer="Layer_1" />
<g
   id="g887"
   transform="matrix(1.4737982,0,0,1.4737982,82.220628,-0.75862564)"><g
     id="g864"><path
       inkscape:connector-curvature="0"
       id="path2"
       d="m 54.09517,18.214663 c 0,-1.774127 -1.234175,-3.895365 -3.818229,-3.895365 -1.504151,0 -3.04687,0.848495 -2.815462,2.892598 0.154272,1.311311 2.198374,1.812694 3.355413,2.159806 3.316846,1.041335 4.628157,2.314078 4.628157,4.743861 0,2.391214 -2.044103,4.16534 -5.70806,4.16534 -1.774127,0 -3.779661,-0.347111 -4.975268,-1.465582 l -0.424248,-3.548254 h 0.347112 c 0.539951,3.162574 1.88983,4.435317 5.206676,4.512453 2.121238,0.03857 2.738326,-1.157039 2.699758,-2.622622 0,-1.465583 -1.581287,-2.121239 -3.471117,-2.738326 -2.699758,-0.848496 -4.358181,-1.889831 -4.358181,-4.473885 0,-2.622622 2.27551,-4.242477 5.669492,-4.242477 1.311311,0 2.931165,0.501384 3.972501,1.118472 v 3.393981 z"
       style="stroke-width:0.38567972" /><path
       inkscape:connector-curvature="0"
       id="path4"
       d="m 42.293371,15.052089 c 0.732791,-0.501383 1.311311,-0.964199 1.69699,-1.349879 0.694224,-0.694223 1.002768,-1.311311 1.002768,-1.88983 0,-0.154272 -0.03857,-0.308544 -0.115704,-0.424248 -0.07714,-0.115704 -0.231408,-0.154272 -0.38568,-0.154272 -0.269976,0.03857 -0.462816,0.07714 -0.539952,0.07714 -0.539951,0 -0.964199,-0.19284 -1.311311,-0.539951 -0.347111,-0.347112 -0.501383,-0.8099278 -0.501383,-1.3884474 0,-0.6170875 0.19284,-1.1184711 0.539951,-1.5041508 0.38568,-0.3856797 0.887064,-0.5785196 1.504151,-0.5785196 0.694224,0 1.272743,0.2699758 1.774127,0.7713594 0.462816,0.5013836 0.694223,1.2341751 0.732791,1.8126947 0.03857,1.0413347 -0.385679,2.3526457 -1.542718,3.5868217 -0.617088,0.655655 -1.504151,1.311311 -2.622622,1.928398 z"
       style="stroke-width:0.38567972" /><path
       inkscape:connector-curvature="0"
       id="path10"
       d="m 39.207933,13.972186 c -1.118471,0 -2.46835,0.617088 -3.933933,2.429782 v -2.429782 l -4.820996,0.694224 v 0.385679 c 0,0 1.079903,-0.115704 1.50415,-0.154272 v 11.454688 c 0,0.462816 -0.07713,1.079903 -0.887063,1.079903 h -0.771359 v 0.539952 h 6.865099 v 0 -0.539952 h -0.848496 c -0.617087,0 -1.041335,-0.269976 -1.041335,-1.079903 v -8.022138 c 0.19284,-1.774127 1.272743,-2.776894 1.812695,-2.776894 0.964199,0 0.925631,0.694223 1.812694,1.079903 1.157039,0.424248 2.082671,-0.347112 2.082671,-1.234175 0,-0.809927 -0.57852,-1.427015 -1.774127,-1.427015"
       style="stroke-width:0.38567972" /><path
       inkscape:connector-curvature="0"
       id="path12"
       d="m -28.093176,20.798717 h 4.820996 3.124006 1.272743 c 0,0 0.154272,-1.118471 -0.115704,-2.46835 -0.154272,-0.77136 -0.462816,-1.619855 -1.079903,-2.391214 0,0 0,0 0,-0.03857 -0.925632,-1.118471 -2.506919,-2.005535 -5.168109,-2.005535 -4.859564,0 -7.366482,3.124006 -7.366482,7.366483 0,4.396748 2.236942,7.135074 7.40505,7.135074 3.43255,0 5.245244,-1.619854 6.170876,-3.895365 l -0.38568,-0.19284 c -1.234175,2.391215 -2.699758,3.355414 -5.090972,3.316846 -3.509685,0 -4.242477,-3.316846 -4.281045,-6.132307 0,-0.03857 0,-0.03857 0,-0.07714 0,-0.38568 0.308544,-0.617088 0.694224,-0.617088 m 2.699758,-6.325147 c 3.779661,-0.03857 3.625389,5.013836 3.625389,5.052404 0,0.732791 -0.694224,0.655656 -0.694224,0.655656 v 0 h -5.592355 v 0 c 0,0 -0.655656,0.03857 -0.655656,-0.694224 0,0 0,0 0,-0.03857 0.03857,-1.696991 0.501384,-4.975268 3.316846,-4.975268"
       style="stroke-width:0.38567972" /><path
       inkscape:connector-curvature="0"
       id="path16"
       d="m 19.962515,20.798717 h 4.820997 3.162573 1.272744 c 0,0 0.154271,-1.118471 -0.115704,-2.46835 -0.154272,-0.77136 -0.462816,-1.619855 -1.079904,-2.391214 0,0 0,0 0,-0.03857 -0.925631,-1.118471 -2.506918,-2.005535 -5.168108,-2.005535 -4.859564,0 -7.366482,3.124006 -7.366482,7.366483 0,4.396748 2.236942,7.135074 7.40505,7.135074 3.43255,0 5.245244,-1.619854 6.170876,-3.895365 l -0.38568,-0.19284 c -1.234175,2.391215 -2.699758,3.355414 -5.090972,3.316846 -3.509686,0 -4.242477,-3.316846 -4.281045,-6.132307 0,-0.03857 0,-0.03857 0,-0.07714 -0.03857,-0.38568 0.269976,-0.617088 0.655655,-0.617088 m 2.699758,-6.325147 c 3.779662,-0.03857 3.62539,5.013836 3.62539,5.052404 0,0.732791 -0.694224,0.655656 -0.694224,0.655656 v 0 h -5.630924 v 0 c 0,0 -0.655655,0.03857 -0.655655,-0.694224 0,0 0,0 0,-0.03857 0.07714,-1.696991 0.539952,-4.975268 3.355413,-4.975268"
       style="stroke-width:0.38567972" /><path
       inkscape:connector-curvature="0"
       id="path18"
       d="m -41.244854,17.828983 c 2.622622,-0.424247 4.473884,-1.851262 4.435316,-4.589588 0,-2.584054 -1.427015,-4.7824287 -6.633691,-4.7824287 H -52.54527 V 8.919782 h 1.002767 c 0.231408,0 0.9642,0.077136 0.9642,1.0413352 V 26.313937 c 0,1.195607 -1.002768,1.157039 -1.002768,1.157039 h -0.964199 v 0.424248 0 h 7.675026 v 0 -0.424248 h -0.925631 c 0,0 -1.118471,0.154272 -1.118471,-1.157039 0,0 0,-7.443619 0,-7.443619 0,0 0,-0.03857 0,-0.03857 0,-0.501384 0.19284,-0.848496 0.809927,-0.848496 h 1.041335 c 1.619855,0 4.551021,1.079903 5.399516,5.669492 1.157039,6.170875 6.479419,7.520754 11.724663,7.289346 V 30.672118 C -38.545097,29.977894 -33.107013,18.600343 -41.244854,17.828983 m -3.471118,-0.462815 h -1.427015 c 0,0 -0.809927,0.07714 -0.809927,-0.809928 0,0 0,-0.03857 0,-0.03857 V 9.1511898 c 0.269976,-0.077136 1.079903,-0.1157039 1.774126,-0.1157039 2.198375,0 4.743861,0.6942235 4.743861,4.5124531 0,2.815461 -1.504151,3.818229 -4.281045,3.818229"
       style="stroke-width:0.38567972" /><path
       inkscape:connector-curvature="0"
       id="path24"
       d="m -2.7154515,26.969592 c -0.3471117,0.308544 -0.7327914,0.462816 -1.0799032,0.462816 -0.6170875,0.03857 -0.7713594,-0.539952 -0.7713594,-0.617087 -0.038568,-0.732792 -0.077136,-8.909202 -0.077136,-8.909202 0,-1.658423 -1.0413352,-3.972501 -5.7466279,-3.972501 -3.548253,0 -5.939467,1.658423 -6.055171,3.278278 -0.07714,0.887063 0.501383,1.619855 1.388447,1.581287 v 0 c 0.03857,0 0.07714,0 0.154272,0 0.03857,0 0.03857,0 0.07714,0 0.07714,0 0.115704,-0.03857 0.192839,-0.03857 0.03857,0 0.07714,-0.03857 0.115704,-0.03857 0.848496,-0.347112 1.002768,-1.388447 1.002768,-1.388447 v 0 c 0.308543,-1.928399 1.002767,-2.931166 3.046869,-2.85403 2.3912145,0.07714 2.4683504,1.349879 2.4683504,3.548253 v 0.308544 c 0,0.269976 -0.1542719,1.195607 -1.7741267,1.851263 -1.2341747,0.385679 -2.8540297,0.501383 -4.3581807,0.771359 -2.236942,0.38568 -2.85403,2.198374 -2.85403,3.548253 0,2.121239 1.581287,3.856797 4.473885,3.933933 2.27551,0.07714 3.5868211,-1.195607 4.5124524,-1.774126 0.4242477,1.079903 0.8099274,1.465583 2.0055345,1.774126 0.6942235,0.19284 2.1983743,0 3.4325494,-1.041335 z m -5.245244,-2.352646 c 0,1.889831 -2.0055345,2.622622 -3.0083015,2.506918 -1.774127,-0.19284 -2.429782,-1.542719 -2.429782,-3.162573 0,-1.311311 0.424247,-2.082671 1.851262,-2.622622 1.195607,-0.462816 2.892598,-0.9642 3.5482535,-1.349879 v 4.628156 z"
       style="stroke-width:0.38567972" /><path
       inkscape:connector-curvature="0"
       id="path26"
       d="m 13.753072,27.39384 c -0.887063,0.03857 -1.195607,-0.424248 -1.195607,-1.195607 V 25.272602 18.214663 7.4156311 L 7.0422452,7.9941507 V 8.4955343 L 9.2406195,8.3798304 V 8.842646 15.862017 C 8.584964,14.782114 7.273653,13.972186 5.923774,13.933618 c -2.4297821,-0.115704 -4.3967487,0.77136 -5.6694917,1.966967 -1.349879,1.234175 -2.1598064,3.085437 -2.1598064,5.51522 0,4.049637 2.1598064,6.903666 6.2865793,6.903666 1.5812868,0 3.3939814,-0.578519 4.8595643,-1.88983 V 27.97236 H 14.17732 V 27.432408 H 13.753072 Z M 9.2791875,23.845587 c 0,0.578519 0,1.002767 -0.2314078,1.465583 -0.5785196,1.349879 -1.8512626,1.774126 -3.3554135,1.774126 -2.7768939,0 -3.5096854,-2.969733 -3.5096854,-6.209443 0,-3.586821 0.8099274,-6.093739 3.7796612,-6.093739 1.4270149,0 2.5454861,0.732791 3.0854377,1.851262 0.2314078,0.462816 0.2314078,1.041335 0.2314078,1.774127 z"
       style="stroke-width:0.38567972" /></g><g
     transform="matrix(1.7101824,0,0,1.7101824,113.75728,-44.199661)"
     id="g854"><path
       inkscape:connector-curvature="0"
       id="path6"
       d="m 11.554698,34.876026 v 4.628157 c 0,1.388447 0.617087,1.812695 1.234175,1.812695 0.424248,0 0.732791,-0.115704 1.157039,-0.269976 l 0.07714,0.269976 c -0.655656,0.347111 -1.311311,0.694223 -2.236942,0.694223 -0.655656,0 -2.2755107,-0.231408 -2.2755107,-1.812695 v -5.32238 H 8.1992843 V 34.374643 H 9.7034352 L 11.13045,32.176268 h 0.424248 v 2.198375 h 2.27551 v 0.501383 z"
       style="stroke-width:0.38567972" /><path
       inkscape:connector-curvature="0"
       id="path8"
       d="m 7.0036772,36.573017 c 0,-0.964199 -0.6556555,-2.08267 -2.0826704,-2.08267 -0.8099274,0 -1.6584228,0.462815 -1.5427188,1.581287 0.077136,0.732791 1.1956071,0.964199 1.8126946,1.157039 1.7741267,0.578519 2.5069181,1.234175 2.5069181,2.584054 0,1.311311 -1.1184712,2.27551 -3.0854377,2.27551 -0.9641993,0 -2.0441024,-0.19284 -2.6997579,-0.771359 L 1.6812972,39.388479 h 0.1928399 c 0.2699758,1.696991 1.0413352,2.391214 2.8154619,2.429782 1.1184711,0.03857 1.4655829,-0.617087 1.4655829,-1.427015 0,-0.809927 -0.8484954,-1.157039 -1.8898306,-1.465583 -1.4655829,-0.462815 -2.3526462,-1.041335 -2.3526462,-2.429782 0,-1.427015 1.234175,-2.314078 3.0468697,-2.314078 0.6942234,0 1.5812868,0.269976 2.1598063,0.617088 v 1.812694 H 7.0036772 Z"
       style="stroke-width:0.38567972" /><path
       inkscape:connector-curvature="0"
       id="path14"
       d="m -4.4124422,37.884328 h 2.66119 1.7355587 0.69422348 c 0,0 0.0771359,-0.617087 -0.0771359,-1.349879 -0.0771359,-0.424247 -0.2699758,-0.887063 -0.61708754,-1.311311 0,0 0,0 0,0 -0.50138362,-0.617087 -1.38844704,-1.118471 -2.85402994,-1.118471 -2.6997579,0 -4.0882049,1.735559 -4.0882049,4.088205 0,2.429782 1.2341751,3.972501 4.0882049,3.972501 1.88983067,0 2.89259791,-0.887063 3.43254951,-2.159806 l -0.2699758,-0.115704 c -0.65565551,1.349879 -1.50415091,1.851262 -2.81546191,1.851262 -1.9283986,0 -2.2755103,-1.812694 -2.3140783,-3.393981 0,0 0,-0.03857 0,-0.03857 0.038568,-0.269976 0.1928399,-0.424248 0.4242477,-0.424248 m 1.5041509,-3.509685 c 2.08267045,0 2.00553451,2.699758 2.00553451,2.699758 0,0.38568 -0.38567971,0.347112 -0.38567971,0.347112 v 0 h -3.1240057 v 0 c 0,0 -0.3856797,0 -0.3856797,-0.38568 0,0 0,0 0,0 0.077136,-0.925631 0.3085438,-2.66119 1.8898306,-2.66119"
       style="stroke-width:0.38567972" /><path
       inkscape:connector-curvature="0"
       id="path20"
       d="m -17.602688,33.410444 c 0.655655,0 1.118471,-0.38568 1.118471,-0.9642 0,-0.578519 -0.424248,-1.002767 -1.079903,-1.002767 v 0 c -0.655656,0 -1.118471,0.424248 -1.118471,1.002767 -0.03857,0.539952 0.424247,0.9642 1.079903,0.9642"
       style="stroke-width:0.38567972" /><path
       inkscape:connector-curvature="0"
       id="path22"
       d="m -16.214241,41.548285 c -0.115704,0 -0.38568,-0.07713 -0.38568,-0.424247 v -6.710827 l -2.931166,0.501383 0.269976,0.308544 c 0,0 0.462816,-0.03857 0.501384,-0.03857 V 41.0469 c 0,0 0,0 0,0.03857 0,0.347112 -0.269976,0.424247 -0.38568,0.424247 h -0.501384 v 0.347112 0 h 4.126773 v -0.347112 h -0.694223 z"
       style="stroke-width:0.38567972" /><path
       inkscape:connector-curvature="0"
       id="path28"
       d="m -20.880966,41.586853 c -0.501383,0 -0.655655,-0.269975 -0.655655,-0.655655 v -0.539952 -3.972501 -6.132307 l -3.124006,0.347112 v 0.308543 l 1.234175,-0.07714 v 0.231408 3.972501 c -0.38568,-0.617087 -1.118471,-1.079903 -1.88983,-1.118471 -1.388447,-0.07714 -2.468351,0.424248 -3.201142,1.118471 -0.771359,0.694224 -1.234175,1.735559 -1.234175,3.124006 0,2.314078 1.195607,3.895365 3.586821,3.895365 0.887063,0 1.928399,-0.308544 2.738326,-1.079903 v 0.887063 h 2.815462 v -0.308544 z m -2.545486,-2.005534 c 0,0.308544 0,0.578519 -0.115704,0.848495 -0.347112,0.77136 -1.041335,1.002768 -1.88983,1.002768 -1.581287,0 -2.005535,-1.696991 -2.005535,-3.509686 0,-2.044102 0.462816,-3.432549 2.121239,-3.432549 0.809927,0 1.427014,0.424247 1.735558,1.041335 0.115704,0.269976 0.154272,0.57852 0.154272,1.002767 z"
       style="stroke-width:0.38567972" /><path
       inkscape:connector-curvature="0"
       id="path30"
       d="m -8.7706229,34.104667 c 0.5399516,0 0.5013836,0.38568 1.0027672,0.617088 0.6556555,0.231407 1.1570392,-0.19284 1.1570392,-0.694224 0,-0.462816 -0.3085438,-0.809927 -0.9641993,-0.809927 -0.6170876,0 -1.349879,0.347111 -2.1212384,1.311311 0,0 -0.038568,0 -0.038568,0 -0.4628158,-0.154272 -1.0413348,-0.269976 -1.5427188,-0.269976 -2.429782,0 -3.432549,0.964199 -3.432549,2.584054 0.03857,2.044102 1.928398,2.352646 1.928398,2.352646 -0.925631,0.115704 -1.658423,0.655656 -1.658423,1.272743 0,0.887064 1.195607,1.311311 1.889831,1.388447 v 0.03857 c -0.655656,0.07714 -2.121238,0.115704 -2.236942,1.658423 -0.115704,1.542719 1.542718,2.429782 3.393981,2.429782 3.0083018,0 4.2039089,-1.311311 4.2039089,-3.085438 0,-1.658422 -1.4655829,-2.27551 -3.0854379,-2.27551 h -1.427015 c -1.079903,0 -1.427015,-0.347112 -1.427015,-0.617087 0,-0.462816 0.501384,-0.617088 0.694224,-0.694224 0.308544,0.03857 0.848495,0.03857 1.002767,0.03857 1.465583,0 3.2782776,-0.617087 3.2782776,-2.506918 0,-0.308544 -0.077136,-0.694223 -0.2314078,-1.041335 -0.038568,-0.03857 -0.038568,-0.115704 -0.077136,-0.154272 0,0 0,0 0,0 0,0 0,0 0,0 -0.077136,-0.07714 -0.115704,-0.19284 -0.1928399,-0.269976 0,0 0,0 0,0 -0.038568,-0.03857 -0.077136,-0.07714 -0.077136,-0.115704 -0.038568,-0.07714 -0.1542719,-0.154272 -0.2699758,-0.269976 -0.1542719,-0.115704 -0.3085438,-0.231407 -0.4242477,-0.308543 0.1928398,-0.38568 0.4628156,-0.57852 0.6556555,-0.57852 m -2.4683499,7.829298 c 1.5427186,0 2.3912139,0.347112 2.352646,1.504151 -0.077136,1.465583 -1.118471,1.928399 -2.121238,1.928399 v 0 c -1.388447,0 -2.236943,-0.732792 -2.275511,-2.005535 0,-0.424248 0.154272,-0.809927 0.501384,-1.041335 0.269976,-0.269976 0.617088,-0.38568 1.542719,-0.38568 m -0.115704,-3.04687 c -0.925631,0 -1.427015,-0.732791 -1.504151,-2.08267 -0.03857,-1.349879 0.694224,-2.044102 1.427015,-2.044102 v 0 c 0.655656,0 1.427015,0.462815 1.388447,2.044102 0.03857,1.272743 -0.347112,2.08267 -1.311311,2.08267"
       style="stroke-width:0.38567972" /></g></g><g
   id="g50"
   transform="matrix(0.38567971,0,0,0.38567971,-52.54527,7.2999272)">
		
		
		
		
		
		
		
		
		
	</g>
</svg>