<?xml version="1.0" encoding="UTF-8" standalone="no"?>
<!-- Generator: Adobe Illustrator 23.0.3, SVG Export Plug-In . SVG Version: 6.00 Build 0)  -->

<svg
   xmlns:dc="http://purl.org/dc/elements/1.1/"
   xmlns:cc="http://creativecommons.org/ns#"
   xmlns:rdf="http://www.w3.org/1999/02/22-rdf-syntax-ns#"
   xmlns:svg="http://www.w3.org/2000/svg"
   xmlns="http://www.w3.org/2000/svg"
   xmlns:sodipodi="http://sodipodi.sourceforge.net/DTD/sodipodi-0.dtd"
   xmlns:inkscape="http://www.inkscape.org/namespaces/inkscape"
   version="1.1"
   id="svg2"
   x="0px"
   y="0px"
   viewBox="0 0 120 60"
   style="enable-background:new 0 0 120 60;"
   xml:space="preserve"
   sodipodi:docname="coderwall-ar21.svg"
   inkscape:version="0.92.2 5c3e80d, 2017-08-06"><metadata
     id="metadata15"><rdf:RDF><cc:Work
         rdf:about=""><dc:format>image/svg+xml</dc:format><dc:type
           rdf:resource="http://purl.org/dc/dcmitype/StillImage" /></cc:Work></rdf:RDF></metadata><defs
     id="defs13" /><sodipodi:namedview
     pagecolor="#ffffff"
     bordercolor="#666666"
     borderopacity="1"
     objecttolerance="10"
     gridtolerance="10"
     guidetolerance="10"
     inkscape:pageopacity="0"
     inkscape:pageshadow="2"
     inkscape:window-width="654"
     inkscape:window-height="480"
     id="namedview11"
     showgrid="false"
     inkscape:zoom="2.7"
     inkscape:cx="60"
     inkscape:cy="30"
     inkscape:window-x="0"
     inkscape:window-y="0"
     inkscape:window-maximized="0"
     inkscape:current-layer="svg2" /><style
     type="text/css"
     id="style2">
	.st0{fill-rule:evenodd;clip-rule:evenodd;}
	.st1{fill-rule:evenodd;clip-rule:evenodd;fill:#3E8DCC;}
</style><g
     id="g8"><path
       class="st0"
       d="M59.62,36.34c-2.8,0-4.64-2.17-4.64-4.96c0-3.14,2.24-4.93,4.59-4.93c1.64,0,2.42,0.8,2.72,1.12v-3.89h2.77   v12.37h-2.64v-1c-0.26,0.38-0.93,1.3-2.78,1.3L59.62,36.34C59.62,36.35,59.62,36.34,59.62,36.34z M44.09,31.38   c0-2.25,1.62-4.91,4.99-4.91c3.36,0,4.99,2.66,4.99,4.93c0,2.27-1.62,4.93-5,4.93s-5-2.66-5-4.93v-0.02L44.09,31.38z M114.15,23.68   h2.77v12.36h-2.77C114.15,36.04,114.15,23.68,114.15,23.68z M77.61,26.77h2.6v1.03c0.27-0.5,0.75-1.35,2.36-1.35v2.8h-0.1   c-1.42,0-2.09,0.52-2.09,1.82v4.98h-2.77C77.61,36.06,77.61,26.77,77.61,26.77z M109.83,23.68h2.77v12.36h-2.77   C109.83,36.04,109.83,23.68,109.83,23.68z M69.34,32.36c0.12,0.98,1.05,1.64,2.14,1.64c0.89,0,1.35-0.38,1.69-0.87h2.84   c-0.45,1.04-1.1,1.84-1.89,2.37c-0.77,0.56-1.69,0.84-2.64,0.84c-2.66,0-4.91-2.15-4.91-4.9c0-2.59,2.04-4.97,4.86-4.97   c1.42,0,2.64,0.55,3.51,1.47c1.17,1.25,1.52,2.74,1.3,4.44h-6.9C69.34,32.38,69.34,32.36,69.34,32.36z M100.88,31.45   c0,0.85,0.64,2.32,2.31,2.32c0.98,0,1.59-0.47,1.94-1.04c0.24-0.37,0.35-0.77,0.39-1.19c0.05-0.42-0.05-0.84-0.23-1.22   c-0.3-0.63-0.93-1.29-2.1-1.29c-1.58,0-2.28,1.33-2.28,2.39v0.02H100.88z M57.75,31.38c0,1.42,1.02,2.37,2.32,2.37   c0.66,0,1.28-0.27,1.71-0.7c0.43-0.43,0.69-1.04,0.65-1.72c0-0.67-0.26-1.23-0.68-1.64c-0.42-0.42-1-0.65-1.65-0.65   c-1.61,0-2.36,1.25-2.36,2.32v0.02C57.74,31.38,57.75,31.38,57.75,31.38z M43.24,32.51c-0.5,2.1-2.36,3.82-4.86,3.82   c-2.8,0-4.95-2.2-4.95-4.96c0-2.72,2.13-4.93,4.9-4.93c2.46,0,4.44,1.62,4.91,3.9h-2.8c-0.3-0.63-0.85-1.3-2.01-1.3   c-0.65-0.03-1.2,0.22-1.6,0.65c-0.39,0.44-0.6,1.03-0.6,1.71c0,1.35,0.89,2.36,2.2,2.36c1.15,0,1.71-0.67,2-1.24h2.82   C43.25,32.53,43.24,32.51,43.24,32.51z M46.86,31.41c0,1.34,1.02,2.32,2.22,2.32c1.2,0,2.21-0.98,2.21-2.33   c0-1.34-1.02-2.33-2.23-2.33c-1.21,0-2.22,0.98-2.22,2.34v0.02C46.85,31.43,46.86,31.41,46.86,31.41z M83.96,26.77h2.87l1.42,5.76   l1.52-5.76h2.34l1.57,5.76l1.39-5.76h2.85l-2.84,9.27h-2.57l-1.59-6l-1.55,6H86.8L83.96,26.77C83.97,26.78,83.96,26.77,83.96,26.77   z M73.52,30.26c-0.07-0.43-0.63-1.46-2.07-1.46c-1.43,0-2,1.03-2.07,1.48h4.15C73.53,30.27,73.52,30.26,73.52,30.26z M108.28,36.05   h-2.77v-1c-0.5,0.9-1.66,1.32-2.74,1.32c-2.94,0-4.66-2.3-4.66-4.96c0-3.04,2.18-4.94,4.66-4.94c1.52,0,2.37,0.74,2.74,1.31v-0.98   h2.77V36.05L108.28,36.05z"
       id="path4" /><path
       class="st1"
       d="M27.31,38.18c0,1.66-1.34,3.01-3,3.01c-1.66,0-3-1.35-3-3.01c0-1.65,1.34-3,3-3c1.66,0,3,1.34,3,2.99V38.18z    M27.31,30c0,1.66-1.34,3-3,3c-1.66,0-3-1.34-3-3.01c0-1.66,1.34-3.01,3-3.01C25.97,26.99,27.31,28.33,27.31,30L27.31,30z    M18.2,29.97c0,1.65-1.34,3-3,3s-3-1.34-3-2.99c0-1.65,1.34-2.99,3-2.99s3,1.34,3,3C18.2,29.99,18.2,29.97,18.2,29.97z M18.2,21.83   c0,1.65-1.34,3-3,3s-3-1.34-3-3c0-1.66,1.34-3.01,3-3.01S18.2,20.17,18.2,21.83C18.2,21.83,18.2,21.83,18.2,21.83z M9.09,21.83   c0,1.65-1.34,3-3,3c-1.66-0.01-3-1.35-3-3.01c0-1.66,1.34-3.01,3-3.01S9.09,20.18,9.09,21.83C9.09,21.84,9.09,21.83,9.09,21.83z    M27.31,21.83c0,1.65-1.34,3-3,3c-1.66,0-3-1.34-3-3c0-1.66,1.34-3.01,3-3.01C25.97,18.82,27.31,20.17,27.31,21.83   C27.31,21.83,27.31,21.83,27.31,21.83z"
       id="path6" /></g></svg>