<svg xmlns="http://www.w3.org/2000/svg" xmlns:xlink="http://www.w3.org/1999/xlink" width="120" height="60"><g fill="#02797e"><use xlink:href="#B"/><path d="M72.62 25c0 1.46.974 2.1 2.1 2.1a4.2 4.2 0 0 0 1.704-.325l.162.8c-.406.162-1.055.406-2.03.406-1.866 0-3.003-1.217-3.003-3.084S72.7 21.6 74.405 21.6c1.948 0 2.516 1.785 2.516 2.84v.568h-4.3m3.246-.73c0-.73-.325-1.785-1.542-1.785-1.136 0-1.623 1.055-1.704 1.785zm6.815 3.4c-.325.162-.974.325-1.785.325-1.866 0-3.003-1.217-3.003-3.084s1.298-3.246 3.246-3.246c.65 0 1.217.162 1.542.325l-.243.8c-.243-.162-.65-.325-1.298-.325-1.38 0-2.2 1.055-2.2 2.353 0 1.38.893 2.272 2.1 2.272.65 0 1.055-.162 1.38-.325l.243.893m6.348-1.45l.08 1.623h-.974l-.08-.974c-.243.487-.974 1.136-2.03 1.136-.974 0-2.1-.568-2.1-2.678v-3.57h1.136v3.327c0 1.136.406 1.948 1.38 1.948.73 0 1.298-.487 1.46-1.055.08-.162.08-.325.08-.568v-3.733H89.1v4.544m1.778-2.517l-.08-1.866h.974l.08 1.217c.243-.8.974-1.298 1.704-1.298h.325v1.055h-.406c-.8 0-1.298.568-1.46 1.38V28H90.88v-4.3m4.705-2.993c-.406 0-.73-.325-.73-.73a.73.73 0 0 1 1.46 0c0 .405-.243.73-.73.73m.568 7.222h-1.055v-6.086h1.136v6.086zm3.164-7.546v1.46h1.623v.8h-1.623v3.327c0 .73.243 1.217.8 1.217.325 0 .487 0 .65-.08l.08.8c-.243.08-.568.162-.974.162a1.65 1.65 0 0 1-1.217-.487c-.325-.325-.406-.893-.406-1.623v-3.327h-.974v-.8h.974v-1.136l1.055-.325m3.42 1.473l1.298 3.57c.162.406.325.893.406 1.217.08-.325.243-.8.406-1.298l1.217-3.57h1.136l-1.704 4.382c-.8 2.1-1.298 3.165-2.1 3.814-.568.487-1.055.65-1.38.73l-.243-.893c.243-.08.65-.243.974-.568.325-.243.65-.65.893-1.217.08-.08.08-.162.08-.243s0-.162-.08-.243l-2.272-5.6h1.38"/><use xlink:href="#B" y="12.58"/><path d="M73.188 32.962v1.46H74.8v.8h-1.623v3.246c0 .73.243 1.217.8 1.217.325 0 .487 0 .65-.08l.08.8c-.243.08-.568.162-.974.162a1.65 1.65 0 0 1-1.217-.487c-.325-.325-.406-.893-.406-1.623V35.15h-.974v-.8h.974v-1.136l1.055-.243m7.155 6.087c0 .568 0 1.055.08 1.46h-.974l-.08-.73c-.325.487-.974.893-1.866.893-1.217 0-1.866-.893-1.866-1.785 0-1.46 1.298-2.272 3.652-2.272v-.162c0-.487-.162-1.46-1.38-1.38-.568 0-1.136.162-1.623.487l-.243-.73c.487-.325 1.217-.487 2.03-.487 1.866 0 2.353 1.298 2.353 2.516v2.2m-1.136-1.623c-1.217 0-2.597.162-2.597 1.38 0 .73.487 1.055 1.055 1.055.8 0 1.298-.487 1.46-1.055 0-.08.08-.243.08-.325zm2.847-1.4l-.08-1.623h.974l.08.974c.325-.568.974-1.136 2.03-1.136.8 0 2.2.487 2.2 2.597V40.5H86.17V37c0-.974-.406-1.785-1.38-1.785-.73 0-1.298.487-1.46 1.136-.08.162-.08.325-.08.487V40.5h-1.136v-4.463m12.253-4.465v7.385c0 .568 0 1.136.08 1.542h-.974l-.08-1.055c-.325.65-1.055 1.217-2.03 1.217-1.46 0-2.597-1.217-2.597-3.084 0-2.03 1.298-3.246 2.76-3.246.974 0 1.542.406 1.866.893v-3.652h.974m-1.136 5.275c0-.162 0-.325-.08-.487a1.59 1.59 0 0 0-1.623-1.298c-1.136 0-1.866.974-1.866 2.353 0 1.217.65 2.272 1.785 2.272.73 0 1.38-.487 1.623-1.298.08-.162.08-.325.08-.487v-1.055zm7.305 2.2c0 .568 0 1.055.08 1.46h-.974l-.08-.73c-.325.487-.974.893-1.866.893-1.217 0-1.866-.893-1.866-1.785 0-1.46 1.298-2.272 3.652-2.272v-.162c0-.487-.162-1.46-1.38-1.38-.568 0-1.136.162-1.623.487l-.243-.73c.487-.325 1.217-.487 2.03-.487 1.866 0 2.353 1.298 2.353 2.516v2.2M99.4 37.425c-1.217 0-2.597.162-2.597 1.38 0 .73.487 1.055 1.055 1.055.8 0 1.298-.487 1.46-1.055 0-.08.08-.243.08-.325zm2.92-1.135l-.08-1.866h.974l.08 1.217h.08c.243-.8.974-1.298 1.704-1.298h.325v1.055h-.406c-.8 0-1.298.568-1.46 1.38V40.6H102.4l-.08-4.3m9.25-4.718v7.385c0 .568 0 1.136.08 1.542h-.974l-.08-1.055c-.325.65-1.055 1.217-2.1 1.217-1.46 0-2.597-1.217-2.597-3.084 0-2.03 1.217-3.246 2.76-3.246.974 0 1.542.406 1.866.893v-3.652h1.055m-1.055 5.275c0-.162 0-.325-.08-.487a1.66 1.66 0 0 0-1.623-1.298c-1.136 0-1.785.974-1.785 2.353 0 1.217.65 2.272 1.785 2.272.73 0 1.46-.487 1.623-1.298 0-.162.08-.325.08-.487zm2.75 2.516c.325.243.893.406 1.46.406.8 0 1.136-.406 1.136-.893 0-.568-.325-.8-1.136-1.136-1.136-.406-1.623-.974-1.623-1.704 0-.974.8-1.785 2.1-1.785.65 0 1.136.162 1.46.406l-.243.8c-.243-.162-.65-.325-1.217-.325-.65 0-.974.406-.974.8 0 .487.325.73 1.136 1.055 1.055.406 1.623.893 1.623 1.866 0 1.055-.8 1.866-2.272 1.866-.65 0-1.298-.162-1.704-.406l.243-.974"/></g><g transform="matrix(.556923 0 0 .556923 2.992422 10.953245)"><path d="M103.7 43.2L23.4 68.4 0 4.7 84.3 0l19.4 43.2" fill="#02797e"/><path d="M43 30.4c0 1.6-.4 3-1.1 4.3-.7 1.2-1.7 2.3-3 3.1s-2.9 1.4-4.7 1.8-3.8.6-6.1.6h-1.6v8.2H16.1V21.1h12.2c4.6 0 8.2.8 10.8 2.3s3.9 3.9 3.9 7m-10 .1c0-2.4-1.8-3.6-5.3-3.6h-1.3v7.3h1.2c1.7 0 3.1-.3 4-.9.9-.5 1.4-1.5 1.4-2.8zm35.8 17.9c-1.6.3-3.4.5-5.5.5-2.9 0-5.5-.3-7.7-1-2.3-.7-4.2-1.6-5.8-2.8s-2.8-2.7-3.6-4.4c-.8-1.8-1.2-3.7-1.2-5.8s.4-4 1.3-5.8a14.38 14.38 0 0 1 3.7-4.5c1.6-1.2 3.5-2.2 5.7-2.9s4.6-1 7.2-1c2 0 3.9.1 5.6.4 1.7.4 1.7.4 3 .9v7.3c-1-.6-2.2-1.1-3.5-1.4-1.3-.4-2.7-.6-4.1-.6-2.4 0-4.3.7-5.8 1.9-1.5 1.3-2.2 3.1-2.2 5.6 0 1.2.2 2.3.7 3.3.5.9 1.1 1.7 1.9 2.3s1.7 1.1 2.8 1.4 2.2.5 3.4.5 2.5-.1 3.7-.4 2.5-.6 3.8-1.2v6.9l-3.4.8m7.7-27.3H87v27.4H76.5zm11.6-8.6c0 1.8-.6 3.3-1.8 4.3s-2.7 1.6-4.5 1.6-3.3-.5-4.5-1.6c-1.2-1-1.8-2.5-1.8-4.3 0-1.9.6-3.3 1.8-4.4s2.7-1.6 4.5-1.6 3.3.5 4.5 1.6c1.2 1 1.8 2.5 1.8 4.4" fill="#fff"/></g><defs ><path id="B" d="M65.64 26.55c.487.325 1.217.568 1.948.568 1.136 0 1.785-.568 1.785-1.46 0-.81-.487-1.217-1.623-1.704-1.38-.487-2.272-1.217-2.272-2.434 0-1.298 1.136-2.272 2.76-2.272.893 0 1.46.162 1.866.406l-.325.893c-.243-.162-.81-.406-1.623-.406-1.136 0-1.623.73-1.623 1.298 0 .81.487 1.217 1.704 1.623 1.46.568 2.1 1.217 2.1 2.516s-.974 2.434-2.92 2.434c-.81 0-1.704-.243-2.19-.568l.406-.893"/></defs></svg>