<svg xmlns="http://www.w3.org/2000/svg" width="120" height="60"><path d="M60 55.395c-1.357-.604-12.147-5.25-15.632-8.15a15.92 15.92 0 0 1-5.743-12.779V9.345c5.93-3.15 13.104-4.74 21.375-4.74s15.41 1.6 21.375 4.74v25.093a15.93 15.93 0 0 1-5.734 12.788c-3.43 2.788-14.35 7.602-15.604 8.15z" fill="#ffb500"/><path d="M68.225 25.757c.046-2.71 2.272-4.873 4.98-4.842a6.35 6.35 0 0 1 4.071 1.208v3.225a4.97 4.97 0 0 0-3.336-1.515c-1.05 0-2.147.455-2.184 1.775s1.06 1.86 2.444 2.695c3.104 1.86 3.717 3.457 3.634 5.623a5.02 5.02 0 0 1-5.381 4.963 8.13 8.13 0 0 1-4.089-1.143v-3.4a5.92 5.92 0 0 0 3.55 1.515 1.97 1.97 0 0 0 2.221-2.072c0-1.162-.688-1.803-2.314-2.788-3.058-1.794-3.615-3.27-3.615-5.25zm-8.996-1.58c.413-.18.86-.273 1.3-.27 2.156 0 3.048 1.72 3.048 5.883s-1.022 6.022-3.16 6.022c-.413-.003-.822-.078-1.208-.223V24.178zm0 22.258H55.51V22.263a8.98 8.98 0 0 1 5-1.32c4.433 0 6.868 3.364 6.868 8.773s-2.37 9.136-6.506 9.136c-.565.01-1.13-.062-1.673-.214v7.788zM42.5 32.97V21.334h3.717v11.803c0 1.05.25 2.612 1.96 2.612.6.015 1.212-.15 1.73-.474v-13.94h3.717v16.07a9.86 9.86 0 0 1-5.576 1.487c-3.717 0-5.576-1.99-5.576-5.93zm-1.86 1.496c-.165 4.332 1.69 8.496 5.02 11.273 2.9 2.37 11.84 6.413 14.36 7.52 2.48-1.097 11.403-5.093 14.35-7.52a13.94 13.94 0 0 0 5.019-11.264v-24.6C66.96 8.722 52.267 9.43 40.632 20.098v14.368z" fill="#351c15"/></svg>