<svg xmlns="http://www.w3.org/2000/svg" xmlns:xlink="http://www.w3.org/1999/xlink" width="120" height="60" fill="#0d71b8"><g transform="matrix(.053081 0 0 .053081 12.226902 42.833447)"><path d="M0-171.22h1800V60H0v-231.22"/><path d="M334.7-44.35h-11.7v38.08h-13.74v-100.4h33.75c17.42 0 29.18 12.56 29.27 29.6.08 14.26-6.98 27.7-21.27 31.46l25.1 39.33h-17.26zM323.43-94.1l.05 35.57h17.7c23.35 0 23.12-35.82-.95-35.67zm882.35.97v-15.48h69.02v15.48zm41.47-.86L1247-5.8h-13.68V-94zm-363.7-10.82l-.27 99.02H869.6v-99.02zm464.8 0l-.27 99.02h-13.68v-99.02zM965.45-21.3h48.2v15.5h-75.93l53.35-87.34h-43.4v-15.48h71.36zM643-24.26h-39v-15.5h39zM623.1-72.7L596.73-5.4l-15.66-.3 42.1-106.66 42.3 106.8-15.58.16zM1129-24.26h-39v-15.5h39zm-19.97-48.44l-26.37 67.3-15.66-.3 42.08-106.66 42.3 106.8-15.58.16zm-319.1 36.2l.08-68.37 13.7.1-.16 105.93-66.8-76.66.12 69.7-13.7.03.16-105.56zm848.5 0l.08-68.37 13.7.1-.16 105.93-66.8-76.66.12 69.7-13.7.03.17-105.56zm-1128.3 9.4v-22.4H479v-12.33h43.9v40.17l-.2.2c-10.73 11.36-23.53 17.05-39.26 17.05-31.5 0-52.8-19.68-52.88-51.2-.1-31.4 21.16-53.03 52.74-53.03 13.92 0 27.26 5.32 37.24 15.05l.48.47-8.08 9.28-.54-.52c-7.5-7.15-18.8-11.4-29.1-11.4-23.68 0-39 17-39 40.13 0 23.23 16.05 38.16 39.3 38.16 9.9 0 19-3.3 26.57-9.65" fill="#fff"/><path id="A" d="M198.78-108.37c31.08.07 50.74 22.68 50.58 52.2-.16 29.55-19.48 51.9-50.72 51.9-31.23 0-50.86-22.23-50.86-51.9 0-29.66 20-52.25 51-52.18zm0 12.75C175-95.75 161.5-78.43 161.5-56.2c0 22.03 13.86 38.87 37.28 38.87 23.32 0 36.78-17.22 36.86-38.87.08-21.9-13.4-39.3-36.86-39.43z" fill="#fff"/><use xlink:href="#A" x="1260.37"/><path d="M5.57-531.2l35.2-.7L127-299.1c31.22-76.87 58.28-155.34 87.9-232.8l35 .4-122.5 326.97L5.57-531.2m285.4 123.7l32.32.3-.2 189.15-32.73-1.2c1.1-62.75.2-125.5.6-188.25zm15.86-90.2c12.05 0 21.82 9.77 21.82 21.8 0 12.05-9.77 21.82-21.82 21.82-12.04 0-21.8-9.77-21.8-21.82a21.81 21.81 0 0 1 21.8-21.8m213.07-34.2l31.92.3.1 312.96-32.22.3.3-19.4-.38.35v-.3c-16.4 15.18-38.17 24.38-62.96 24.38-52 0-91.95-44.36-91.95-99.08s38.5-99.08 92.45-99.08c25.33 0 46.6 8.66 62.46 23.02v-.32l.08.07.2-143.2zm-60.3 150c-35.93 0-61.9 30.63-61.9 69.03s24.5 70.02 61.9 70.02c34.96 0 62.4-32.1 62.4-69.53 0-35.46-27.93-69.52-62.4-69.52m227.74-29.57c57.75 0 86.8 44.36 86.8 99.08 0 2.32-.06 4.62-.2 6.9h-9.03v.04H628.38c5.64 66.9 85.1 79.65 124.67 40.07l16.24 24.86c-67.17 56.74-173.2 25.66-173.2-71.87 0-54.72 39.72-99.08 91.26-99.08zm53 76.23c-7.36-26.08-25.48-46.4-51.23-46.4-27.02 0-49.3 19.4-57.56 46.4h108.8M905-411.47c55.22 0 99.98 44.36 99.98 99.08s-44.75 99.1-99.98 99.1-100-44.36-100-99.08 44.76-99.08 100-99.08zm0 29.56c-37.68 0-68.2 31.12-68.2 69.52s30.53 69.53 68.2 69.53 68.2-31.13 68.2-69.53-30.52-69.5-68.2-69.5m149.14-149.8h32.32l1 284.22c38.58-1.2 77.17-.7 115.75-.8l.1 29.84h-149.18V-531.7m172.47 313.45l130.07-325.3 128.1 324.9-34.6.3-26.25-64.84c-45.25-.2-90.5.9-135.64-.9-9.95 21.48-18.7 43.46-26.86 65.64l-34.8.2zm72.1-94.27l113.97-.3-56.08-142.8c-20.4 47.23-38.6 95.37-57.9 143.1m233.2-230.73c72.8 80.26 137.44 168.17 213.02 245.74l.4-234.3 32.32.2-.4 325.3-214-253 .6 240.76-32.32.1.4-324.8"/></g></svg>