<svg xmlns="http://www.w3.org/2000/svg" width="64" height="64"><path d="M240.1 0H23.9C10.7 0 0 10.7 0 23.9V240c0 13.3 10.7 24 23.9 24H240c13.2 0 23.9-10.7 23.9-23.9V23.9C264 10.7 253.3 0 240.1 0z" fill="#f36"/><path d="M88.2 83.1c8.8 0 16.1-6.9 16.1-15.9s-7.4-15.9-16.1-15.9c-8.8 0-16.1 6.9-16.1 15.9s7.4 15.9 16.1 15.9zm-33.4 85.1c-.9 4-1.4 8.4-1.4 11.9 0 14 7.6 23.3 23.7 23.3 13.4 0 24.2-7.9 32-20.8l-4.8 19.1h26.6l15.2-60.9c3.8-15.4 11.1-23.4 22.3-23.4 8.8 0 14.2 5.5 14.2 14.5 0 2.6-.2 5.5-1.2 8.5l-7.8 28c-1.2 4-1.7 8.1-1.7 11.9 0 13.3 7.8 23 24.2 23 14 0 25.1-9 31.3-30.6l-10.4-4c-5.2 14.5-9.7 17.1-13.3 17.1s-5.5-2.4-5.5-7.1c0-2.1.5-4.5 1.2-7.4L207 144c1.9-6.4 2.6-12.1 2.6-17.3 0-20.4-12.3-31-27.3-31-14 0-28.2 12.6-35.3 25.9l5.2-23.8h-40.6l-5.7 21h19l-11.7 46.8c-9.2 20.4-26 20.7-28.1 20.3-3.5-.8-5.7-2.1-5.7-6.6 0-2.6.5-6.3 1.7-10.9l17.8-70.6H53.8l-5.7 21h18.7z" fill="#fff"/></svg>