<?xml version="1.0" encoding="UTF-8" standalone="no"?>
<!-- Generator: Adobe Illustrator 16.1.0, SVG Export Plug-In . SVG Version: 6.00 Build 0)  -->

<svg
   xmlns:dc="http://purl.org/dc/elements/1.1/"
   xmlns:cc="http://creativecommons.org/ns#"
   xmlns:rdf="http://www.w3.org/1999/02/22-rdf-syntax-ns#"
   xmlns:svg="http://www.w3.org/2000/svg"
   xmlns="http://www.w3.org/2000/svg"
   xmlns:sodipodi="http://sodipodi.sourceforge.net/DTD/sodipodi-0.dtd"
   xmlns:inkscape="http://www.inkscape.org/namespaces/inkscape"
   version="1.1"
   id="Layer_1"
   x="0px"
   y="0px"
   viewBox="0 -50 120 60"
   enable-background="new 0 -50 750 400"
   xml:space="preserve"
   sodipodi:docname="artsy-ar21.svg"
   width="120"
   height="60"
   inkscape:version="0.92.3 (2405546, 2018-03-11)"><metadata
   id="metadata24"><rdf:RDF><cc:Work
       rdf:about=""><dc:format>image/svg+xml</dc:format><dc:type
         rdf:resource="http://purl.org/dc/dcmitype/StillImage" /><dc:title></dc:title></cc:Work></rdf:RDF></metadata><defs
   id="defs22" /><sodipodi:namedview
   pagecolor="#ffffff"
   bordercolor="#666666"
   borderopacity="1"
   objecttolerance="10"
   gridtolerance="10"
   guidetolerance="10"
   inkscape:pageopacity="0"
   inkscape:pageshadow="2"
   inkscape:window-width="1920"
   inkscape:window-height="1001"
   id="namedview20"
   showgrid="false"
   inkscape:zoom="3.616"
   inkscape:cx="65.370958"
   inkscape:cy="38.860576"
   inkscape:window-x="-9"
   inkscape:window-y="-9"
   inkscape:window-maximized="1"
   inkscape:current-layer="Layer_1" />
<g
   id="E5zzBq_1_"
   transform="translate(0,-340)">
</g>
<g
   id="g842"
   transform="matrix(0.1454869,0,0,0.1454869,5.4424125,7.642511)"><g
     transform="translate(0,-340)"
     id="g17">
	<path
   style="fill:#6d00cf"
   inkscape:connector-curvature="0"
   id="path3"
   d="M 115.735,68.941 H 634.267 V 231.057 H 414.796 v -26.716 h -12.305 v 26.716 H 115.735 Z M 103,243.778 H 647 V 56.222 H 103 Z" />
	<path
   style="fill:#6d00cf"
   inkscape:connector-curvature="0"
   id="path5"
   d="M 213.334,116.639 H 199.39 l -24.245,62.366 h 13.937 l 6.365,-17.295 h 21.916 l 6.277,17.295 h 13.944 z m -14.135,33.648 7.158,-19.544 7.084,19.544 z" />
	<polygon
   style="fill:#6d00cf"
   id="polygon7"
   points="356.24,129.024 356.24,179.005 369.372,179.005 369.372,129.024 391.292,129.024 391.292,116.639 334.407,116.639 334.407,129.024 " />
	<polygon
   style="fill:#6d00cf"
   id="polygon9"
   points="542.078,143.233 526.387,116.639 511.125,116.639 535.562,156.111 535.562,179.005 548.689,179.005 548.689,156.111 573.123,116.639 557.861,116.639 " />
	<g
   id="g15">
		<path
   style="fill:#6d00cf"
   inkscape:connector-curvature="0"
   id="path11"
   d="m 484.982,146.162 c -4.062,-2.965 -9.621,-4.326 -14.527,-5.53 -1.02,-0.251 -2.016,-0.49 -2.982,-0.745 l -0.604,-0.155 c -3.996,-1.006 -9.475,-2.384 -9.475,-7.156 0,-5.106 5.949,-6.465 9.461,-6.465 3.982,0 8.984,1.193 10.211,6.885 l 0.035,0.191 h 12.371 l -0.008,-0.247 c -0.416,-11.51 -8.49,-18.112 -22.146,-18.112 -10.172,0 -22.047,4.748 -22.047,18.12 0,13.92 12.395,16.897 23.324,19.528 1.004,0.245 1.988,0.48 2.951,0.724 5.57,1.455 8.398,4.039 8.398,7.685 0,7.84 -10.281,8.236 -12.346,8.236 -7.225,0 -11.148,-2.693 -12.354,-8.472 l -0.035,-0.188 H 442.65 l 0.012,0.243 c 0.092,4.946 0.693,7.959 3.877,11.698 6.035,7.036 15.605,8.087 20.777,8.087 11.924,0 24.754,-6.193 24.754,-19.794 0.002,-5.778 -2.713,-11.347 -7.088,-14.533" />
		<path
   style="fill:#6d00cf"
   inkscape:connector-curvature="0"
   id="path13"
   d="m 305.05,152.479 c 4.768,-3.478 7.728,-9.634 7.728,-16.061 0,-6.951 -3.58,-13.409 -9.341,-16.836 -4.883,-2.944 -9.819,-2.944 -14.595,-2.944 h -28.129 v 62.366 h 13.218 v -30.83 l 24.532,30.83 h 16.011 L 295.796,156.12 c 3.345,-0.576 6.127,-1.358 9.254,-3.641 m -31.119,-7.126 v -16.961 l 14.853,-0.004 c 2.953,0 5.566,0.124 7.679,1.651 1.993,1.455 3.181,4.01 3.181,6.833 0,5.627 -4.017,8.48 -11.941,8.48 h -13.772 z" />
	</g>
</g></g>
</svg>