<?xml version="1.0" encoding="UTF-8" standalone="no"?>
<!-- Created with Inkscape (http://www.inkscape.org/) -->

<svg
   xmlns:dc="http://purl.org/dc/elements/1.1/"
   xmlns:cc="http://creativecommons.org/ns#"
   xmlns:rdf="http://www.w3.org/1999/02/22-rdf-syntax-ns#"
   xmlns:svg="http://www.w3.org/2000/svg"
   xmlns="http://www.w3.org/2000/svg"
   xmlns:sodipodi="http://sodipodi.sourceforge.net/DTD/sodipodi-0.dtd"
   xmlns:inkscape="http://www.inkscape.org/namespaces/inkscape"
   id="svg2985"
   version="1.1"
   inkscape:version="0.92.3 (2405546, 2018-03-11)"
   width="180"
   height="60"
   sodipodi:docname="forbes-horizontal.svg">
  <metadata
     id="metadata2991">
    <rdf:RDF>
      <cc:Work
         rdf:about="">
        <dc:format>image/svg+xml</dc:format>
        <dc:type
           rdf:resource="http://purl.org/dc/dcmitype/StillImage" />
        <dc:title></dc:title>
      </cc:Work>
    </rdf:RDF>
  </metadata>
  <defs
     id="defs2989" />
  <sodipodi:namedview
     pagecolor="#ffffff"
     bordercolor="#666666"
     borderopacity="1"
     objecttolerance="10"
     gridtolerance="10"
     guidetolerance="10"
     inkscape:pageopacity="0"
     inkscape:pageshadow="2"
     inkscape:window-width="1920"
     inkscape:window-height="1001"
     id="namedview2987"
     showgrid="false"
     inkscape:zoom="2.50663"
     inkscape:cx="17.577839"
     inkscape:cy="-40.496007"
     inkscape:window-x="-9"
     inkscape:window-y="-9"
     inkscape:window-maximized="1"
     inkscape:current-layer="svg2985"
     fit-margin-top="0"
     fit-margin-left="0"
     fit-margin-right="0"
     fit-margin-bottom="0" />
  <path
     inkscape:connector-curvature="0"
     style="fill:#000000;fill-opacity:1;stroke-width:1.9093076"
     d="m 169.73268,29.570409 -1.47019,0.400956 c -1.41287,-4.811456 -3.78038,-6.873509 -7.12168,-6.873509 -2.34846,0 -4.00956,1.546541 -4.00956,4.009547 0,2.348447 1.94751,3.608591 7.179,5.727922 4.83055,1.775656 6.83533,3.952267 6.83533,7.751788 0,5.7852 -4.54417,9.412887 -12.00955,9.412887 -3.5895,0 -7.65635,-0.801904 -9.94752,-1.718382 l -0.28639,-8.03818 1.41288,-0.286394 c 2.11933,5.498803 4.83057,7.579952 8.3628,7.579952 3.05487,0 4.65872,-2.119334 4.65872,-4.295941 0,-2.176615 -1.24108,-3.436757 -6.01434,-5.155134 -4.54417,-1.48926 -7.65634,-3.436754 -7.65634,-8.2673 0,-4.754179 4.18141,-8.782818 11.30312,-8.782818 3.36037,0 6.41527,0.572795 8.42005,1.489262 z m -30.75896,2.520287 c 0.17185,-3.780428 -0.59187,-9.241048 -3.70404,-9.241048 -3.18854,0 -4.94512,5.097852 -5.00238,9.470164 z m -2.94033,-11.073984 c 7.82816,0 11.6086,5.727922 11.66589,13.250594 h -17.60383 c -0.0573,6.663485 3.47494,11.704054 10.08114,11.704054 2.88307,0 4.54416,-0.801906 6.30072,-2.06205 l 0.82101,0.916466 c -1.9475,2.634844 -5.95704,5.155131 -11.30312,5.155131 -8.59187,0 -14.54891,-5.89976 -14.54891,-14.224343 -0.0191,-7.522669 4.86873,-14.739852 14.5871,-14.739852 m -25.39378,13.937945 c -0.17184,-5.957042 -2.34845,-10.673029 -6.52984,-10.673029 -0.99283,0 -1.75656,0.171839 -2.94033,0.572789 0,9.527448 0.11457,20.295941 0.34368,22.892597 0.42005,0.171844 1.41288,0.286397 2.11933,0.286397 4.06684,0 7.00716,-5.747015 7.00716,-13.078754 m 8.72553,-0.458235 c 0,9.412888 -5.95704,15.484485 -16.01909,15.484485 -3.58949,0 -7.312648,-0.57279 -10.539371,-1.317425 0.286396,-3.780428 0.286396,-27.188539 0,-31.599038 -0.286395,-2.291169 -0.935562,-3.379475 -2.711224,-3.608591 l -1.18377,-0.114564 V 12.291167 L 101.34128,10 c -0.0573,1.947492 -0.17184,7.064437 -0.17184,13.078756 2.17661,-1.088305 4.18139,-1.718377 6.8926,-1.718377 6.47256,0 11.3031,5.498804 11.3031,13.136037 M 87.727918,29.379479 c -3.837711,-2.520288 -7.961817,-1.431982 -8.782816,0 -0.36277,4.4105 -0.286394,11.188543 0.05731,14.682573 0.171834,2.291171 0.820999,3.264912 2.596661,3.436756 l 2.348444,0.229113 V 49.21719 H 66.400982 v -1.489269 l 1.355612,-0.229113 c 1.69928,-0.171844 2.291163,-1.145585 2.405725,-3.436756 0.420051,-3.72315 0.534603,-11.532216 0,-15.828157 -0.114565,-2.46301 -0.706445,-3.379478 -2.405725,-3.608595 l -1.355612,-0.171833 v -1.03103 l 12.544153,-2.405725 -0.171834,6.415273 c 2.940327,-6.644389 8.782816,-7.4463 11.952256,-5.670644 z m -41.164677,6.147969 c 0,7.007159 1.890215,12.735087 5.708832,12.735087 4.124107,0 5.307876,-5.613369 5.307876,-12.735087 0,-7.121719 -1.832934,-12.677801 -5.708823,-12.677801 -4.143199,0 -5.307885,5.441523 -5.307885,12.677801 m 19.894991,-0.11455 c 0,8.038186 -5.307876,14.568016 -14.778043,14.568016 -9.317418,0 -14.014315,-6.205248 -14.014315,-14.338901 0,-7.980904 5.307875,-14.625292 14.778042,-14.625292 9.317419,0 14.014316,6.243435 14.014316,14.396177 M 42.076377,21.589503 40.12888,22.162296 c -1.642007,-5.632457 -4.544158,-8.840095 -9.546544,-8.840095 h -6.52983 c -0.362759,3.742245 -0.534604,9.527447 -0.362759,15.770882 l 4.35321,-0.229116 c 2.940335,0 4.181386,-2.119332 4.887832,-5.21241 h 1.642008 v 13.021479 h -1.642008 c -0.706446,-3.150358 -1.947497,-5.288785 -4.887832,-5.46062 l -4.35321,-0.05727 c 0,4.639619 0.05731,8.610978 0.362759,11.016706 0.286394,3.436753 1.241048,5.002386 3.761334,5.326969 l 2.367549,0.229115 v 1.489266 H 8.8544212 v -1.489266 l 1.7756528,-0.229121 c 2.463015,-0.343678 3.474942,-1.890216 3.761336,-5.32697 0.477333,-5.613366 0.591884,-17.603815 0,-24.2673 -0.286394,-3.551316 -1.298321,-4.983294 -3.761336,-5.269691 L 8.8544212,12.348459 V 10.801912 H 42.019094 Z"
     id="path2" />
</svg>
