<svg xmlns="http://www.w3.org/2000/svg" viewBox="-44.76 56.18 64 64" width="64" height="64"><path d="M13.453 88.4c-.47-.293-.45-.493-.02-.822 1.222-.943 2.272-2.043 3.093-3.365 3.607-5.786 2.907-15.858-4.33-21.244-3.6-2.68-7.73-3.55-12.122-3.543l-40.7.008c-3.086 0-4.122 1.057-4.122 4.15l.007 49.56c.007 2.55 1.193 3.8 3.693 3.8L2.4 116.9c2.614-.008 5.18-.536 7.565-1.686 6.236-3.022 9.858-9.358 9.186-16.35-.407-4.25-1.807-8.072-5.708-10.472zm-42.817-6.465c.05-2.18.036-4.365.014-6.55-.014-.986.357-1.486 1.407-1.486l25.966.043c2.636.016 4.6 1.9 4.657 4.265.057 2.53-1.814 4.636-4.357 4.68l-13.437.02v.043c-4.4 0-8.808-.02-13.208.016-.807.008-1.057-.22-1.043-1.03zM2.66 99.956c-.807 1.893-2.336 2.886-4.307 2.93-4.407.093-8.815.03-13.23.03v.037h-12.65c-1.643 0-1.807-.164-1.814-1.757l-.014-7.015c-.007-.686.186-.93.9-.92l25.995.037c1.693.008 3.286.407 4.407 1.83 1.172 1.464 1.464 3.08.714 4.836z" fill="#739abd"/></svg>