<svg xmlns="http://www.w3.org/2000/svg" viewBox="0 0 32 32" width="64" height="64"><path d="M206 0c11.1 2 22.4 3.3 33.3 6 75.2 18.6 132.2 82.4 142.8 159.4 14.1 102.4-52.5 196-154 216.3-7.3 1.5-14.8 2.3-22.2 3.4h-102l.1-193.4c0-4.3.4-8.7 1.1-12.9 6.6-43.3 46.1-76 89.4-74.3 45.7 1.9 82.4 37.2 85.3 82.2 4.3 66.8-63.7 113.7-124.6 85.9-1.3-.6-2.6-1.1-4.5-1.8l.2 60.1c0 1.2 2.3 3 3.8 3.4 19.5 5.6 39.4 6.7 59.4 3.5 84.6-13.6 139.2-93.9 120.9-177.3-16.9-77.2-94.1-127.7-171-112-69.6 14-118.2 73.4-118.4 144.6V380c0 1.7.2 3.3.4 5H0V178l1.8-11.8C12.4 88.5 69.1 24.9 145.2 5.9 156 3.2 167.1 1.9 178 0h28z" fill="#e6461a"/><path d="M1680 272h-31.7v-22.9l-.3-88.5c-.3-23.1-17.7-43.9-40.3-48.6-31-6.5-62.5 18.6-62.6 50.4l.2 109.7h-30.8V88.9h30.5V99c10-8.9 20.6-14.4 32.6-17.4 47.2-11.9 96.6 22.8 101.4 71.2.1 1.4.6 2.9.9 4.3l.1 114.9zM481.8 251.5v91.4h-30.6l-.3-3.9.1-159.5c.3-48.1 34-88.7 81-98.2 56.5-11.4 111.8 28.3 119.2 85.5 7.3 56.4-31.5 107-88.1 113.8-29.7 3.5-55.3-6.7-77.3-26.5-1-.9-1.5-2.5-2.3-3.8-.6.4-1.1.8-1.7 1.2zm69.9-1.1c38.7-.1 69.6-31.3 69.6-70.1-.1-38.7-31.4-70-69.9-69.8-38.6.2-69.6 31.4-69.5 70.2-.1 38.6 31.1 69.8 69.8 69.7zm576-29.1c14.8 22.6 46.1 33.8 73.8 26.4 16.9-4.5 30.4-14.2 40.1-28.7s13.3-30.7 11.2-48.4h30.6c5.5 38.7-17.6 89.2-69.4 105.7-49 15.6-101.9-8.4-122.6-55.5-20.8-47.3-2.5-102.8 42.6-128.5 46.7-26.6 99-9.2 123.4 19.9l-129.7 109.1zm-13-29.5l91.8-77.2c-23.3-9.7-53-3.2-71.9 15.7-16.6 16.7-22.9 37-19.9 61.5zM864 272.1h-30.9v-18.9l-3.3 2.7c-57.3 49.6-145.6 22-164.2-51.3C648.5 137 704.1 72.7 773.4 79.7c51 5.2 90 47.7 90.5 98.9l.1 93.5zM693.5 180c-.1 38.4 31 69.9 69.2 70.1 38.6.1 70.3-30.8 70.4-68.8.1-39.7-30.7-71.1-69.6-71.1-38.6-.2-69.9 31.1-70 69.8zm601.8 0c.1-55.6 45.3-100.8 100.7-100.8 55.6 0 101 45.7 100.7 101.3-.3 55.7-45.4 100.6-101 100.5-55.4-.1-100.5-45.4-100.4-101zm100.6 70c38.6 0 70-31.2 70-69.8.1-38.5-31.3-70.1-69.7-70.2-38.5-.1-70 31.3-70.1 69.8 0 38.7 31.3 70.2 69.8 70.2zM873.8 88.3h17.7V17.5h31v70.8h46.2v30.9h-46.1V272h-30.8v-6l.1-141c0-4.5-1.1-6.3-5.8-5.8-3.9.4-7.9.1-12.2.1l-.1-31zm141.7 26.8c14.7-13.2 31.5-22.3 50.9-25.7 6.8-1.2 13.8-1.3 21.2-2v28.4c0 3.5-2.6 2.9-4.6 2.9-15.4.2-29.2 5.1-41.1 14.6-17.3 13.7-26.7 31.7-27 53.9l-.1 84.8h-30.5V88.7h29.9v25.8c.5.2.9.4 1.3.6z" fill="#222c31"/><path d="M17.164 0l2.767.5c6.25 1.546 10.985 6.847 11.866 13.245C32.97 22.253 27.435 30.03 19 31.717c-.607.125-1.23.19-1.845.283H8.68l.008-16.07c0-.357.033-.723.09-1.072.548-3.598 3.83-6.315 7.43-6.174 3.797.158 6.847 3.09 7.088 6.83.357 5.55-5.293 9.448-10.354 7.138-.108-.05-.216-.09-.374-.15l.017 4.994c0 .1.19.25.316.283 1.62.465 3.274.557 4.936.29 7.03-1.13 11.567-7.803 10.046-14.733-1.404-6.415-7.82-10.61-14.21-9.307-5.783 1.163-9.822 6.1-9.838 12.016v15.53c0 .14.017.274.033.415H.047v-17.2l.15-.98C1.077 7.354 5.788 2.07 12.112.5c.897-.224 1.82-.332 2.726-.5h2.327z" fill="#e6461a"/></svg>