<svg xmlns="http://www.w3.org/2000/svg" width="120" height="60"><g transform="matrix(.274828 0 0 .274828 -.674146 9.77567)"><path d="M78.56 86.155c-1.067.072-2.456.548-3.388 2.21-.76 1.357-2.543 1.573-3.375 1.3-1.386-.456-3.158-.772-4.874.445s-3.57.296-3.244-1.92 1.13-4.192 3.267-5.415c4.667-2.67 1.423-4.53 3.985-7.2 2.566-2.686 2-3.508 1.914-7.155-8.674-1.296-13.6-3.783-19.08-10.606s-7.617-12.44-8.186-20.994-.076-14.1 3.64-21.2S56.846 5.1 63.625 1.544s13.42-4.394 19.56-4.29 10.23.55 13.7 2.52 6.642 4.447 8.665 4.464 3.4-.51 4.384-1.26c.262 6.63-5.737 7.207-11.104 7.347s-8.665-2.07-13.61-1.247-13.037 3.06-16.98 9.887-4.077 9.24-3.75 14.966 5.28 9.997 8.077 10.044 3.42-.76 5.868-2.347 14.943-16.976 19.207-20.433 8.47-4.524 13.015-4.58 5.704.098 9.368 1.592 5.916 4.245 8.87 5.927c1.5-.884 2.448-2.204 3.834-3.212 4.955-3.603 7.53-4.574 13.42-4.004 3.385.328 7.653 2.25 10.2 4.454 4.535 3.922 8.28 9.383 11.308 13.532 2.357 3.23 5.13 7.096 9.09 8.305 4.324 1.32 7.577-4.252 8.055-7.343.27-1.75.624-3.286.627-5.213s-.195-4.266-.753-6.275-1.515-4.007-2.55-5.665c-1.686-2.697-4.444-5.52-7.314-6.972-1.61-.815-5.4-2.297-7.79-2.35-2.927-.063-5.157.915-7.863 1.1-3.275.222-9.126.955-11.694-1.563-1.634-1.602-1.84-2.67-2.12-4.76a5.02 5.02 0 0 0 2.63 1.056c2.05.172 3.972-1.494 5.627-2.46 1.364-.795 3.295-2.217 5.086-2.935 4.602-1.846 10.256-1.793 15.114-1.298 3.894.396 8.943 2.12 12.36 4.042 3.432 1.93 6.738 5.188 9.16 8.257 3.047 3.863 4.713 7.176 5.817 11.994 1.41 6.152 1.802 15.393.096 21.46-1.344 4.78-5.807 12.123-9.606 15.722-3.747 3.55-8.073 5.264-12.993 6.2.193.988.224 1.91.48 2.72.362 1.15 1.053 2.43 2.474 2.026.567-.162.87-.3 1.617.35s.358 3.162-1.743 4.29c-1.065.572-2.2.696-3.896.73s-4.37.04-6.222-.282-2.96-1.785-5.01-2.014c-3.17-.353-5.598-2.632-8.14-4.26-1.06-.68-1.42-.687-2.03-1.03.33 1.006.77 2.05 1 3.018s.126 1.863.243 2.637.332 1.375.458 2.002c.508.452.67 1.14 1.523 1.355s2.19-.12 3.064-.237 1.46-.6 2.144-.46 1.336.618 1.9 1.075 1.068.525 1.533 1.667.892 3.48.955 5.044-.112 2.974-.578 4.215-.875 1.8-2.136 3.02-3.314 3.032-5.363 4.288c.377.556.545 1.065 1.133 1.668s1.815 1.28 2.36 1.916.822 1.093.83 1.807-.026 1.64-.61 2.42c-1.45 1.937-3.166 2.284-5.253 3.196.35 2.18.637 3.737.13 5.913-.207.887-.667 2.897-1.766 3.413s-3.22.266-4.563.478-2.094.414-3.14.62c-.636.915-1.583 1.924-1.907 2.743s-.227 1.114.046 1.95 1.2 2.056 1.464 3.036.314 2.036.07 3.018-.667 1.696-1.51 2.57-2.498 1.56-3.323 2.266-1.647.793-1.422 1.964c.3 1.608 2.672 4.217 4.38 4.837 1.024.372 2.4.255 3.642-.267-.084 1.374-1.28 2.3-2.06 3.212 2.114-.6 4.164-1.753 5.582-3.28-.44 1.325-1.953 3.453-4.216 5.322s-2.25 1.486-3.375 2.23c2.053.4 3.962.3 5.552.015-.872.478-2.3 1.15-4.193 1.348s-3.06.058-4.766-.354-3.263-1.955-5.33-3.02c.2.763.345 1.68 1.214 2.465s2.185 1.184 3.583 1.862c-1.78-.2-3.65-.262-5.4-.645-1.295-.284-2.165-.586-3.112-1.052s-1.678-1.148-2.517-1.72c.402.764.52 1.662 1.205 2.292s1.796.864 2.695 1.297c-.938-.02-1.84.182-2.813-.06s-1.885-.626-2.897-1.367-2.055-1.654-2.918-2.587-1.928-2.143-2.25-3.003.194-1.463.29-2.193c-.596.39-1.33.604-1.786 1.17s-.863 1.08-.66 2.066 1.117 2.19 1.763 3.285c-1.928-1.57-3.005-2.173-3.464-4.065-.43-1.772.682-3.38 1.526-4.72.42-.665 1.047-1.285 1.44-1.927-.87-.848-1.867-1.577-2.613-2.544s-1.06-2.275-1.822-3.2-1.787-1.51-2.68-2.265c.785 1.677 2.075 3.734 2.355 5.032s-.314 2.092-.777 2.793-1.21.857-1.92 1.288-1.812.09-2.234.73-.536 1.6-.132 2.234l1.656 2.6c-.6-.306-1.66-1.198-2.135-1.83s-1.2-1.216-1.3-2.07-.148-1.596.408-2.357 2.08-1.016 2.762-1.6 1.065-.966 1.026-1.722-.78-1.297-1.42-1.774c-1.95-1.454-4.448-2.794-6.103-4.546-.935-1-1.383-1.8-1.57-2.473s.01-1.216.475-2.056 2.057-1.962 2.25-2.875-.61-1.108-1.337-1.43-2.105.165-2.78-.395.198-1.736-.56-2.382-2.495-.285-3.392-.98-1.267-1.556-1.576-2.563-.344-2.1-.134-2.84.838-.857 1.218-1.235.708-.69.203-1.255-2.162.032-3.115-.692-.37-2.456-1.043-3.187-1.882-.445-2.52-.678-.888.6-1.28-.712-.402-5.184-.928-6.633-1.56-.098-2.04-1.538-.025-3.742-.24-5.917l-.98-5.917c-3.416 2.283-5.67 3-9.34 3.644-.306 8.932-1.15 14.193 1.898 24.103s9.215 15.75 17.535 24.14c-10.98-8.183-16.22-14.835-19.5-23.358s-2.65-15.652-2.32-23.86zm58.34-3.6c.845.038 1.87.25 2.464.634s1.223.696 1.762 1.242c1.344 1.36 2.35 3.003 2.797 4.89.284 1.203.326 2.745.43 4.157-.407-1.305-.68-2.666-1.26-3.835-.913-1.844-2.465-3.643-4.392-4.472-.636-.274-1.06-.223-1.4-.175.156.26.42.48.43.863s-.075 1.132-.727 1.447c-1.052.508-2.222.15-3.035-.564-.82-.72-1.1-1.94-.67-2.986.51-1.248 2.46-1.25 3.61-1.2zM126.3 80.79c.106-2.145.884-3.955 2.817-5.007 1-.544 2.54-1.247 3.954-1.413 1.36-.16 4.665-.043 6.654.86 1.527.693 2.567 1.773 3.908 2.562s2.294 1.318 3.57 2.203c1.96 1.358 3.108 2.854 4.467 3.75.653.43 1.572.367 2.44.63-.674.2-1.556.42-2.283.188-.907-.29-2.176-1.114-2.88-1.705-1.244-1.045-1.888-1.555-3.246-2.343-.8-.47-2.145-1.023-3.035-1.6s-2.438-1.845-3.294-2.274c-1.088-.545-3.048-.848-4.26-.813-1.67.048-4.086.322-5.378 1.488-1.283 1.16-1.77 2.18-1.48 3.684.483-.554.805-1.25 1.29-1.66 1.003-.852 2.154-.893 3.402-.732 1.403.182 2.11.988 2.572 2.312-.312-.228-.885-.728-1.337-.883-1.062-.365-1.865-.252-2.86.278-1.174.627-.855 1.554-1.024 2.586-.078.476-.258.86-.387 1.29-.442-.116-.85-.3-1.184-.63.014.482-.057.903.043 1.446s.364 1.186.546 1.778c-.818-.814-1.654-1.57-2.183-2.622s-.887-2.218-.83-3.372zm1.415-15.615c.603-.9.78-2.255 1.15-3.365-.15 1.406.137 2.952-.553 3.97s-1.902.84-2.905 1.136c.78-.592 1.704-.85 2.307-1.74zm-14.43 20.845c.774-.623 2.863-.125 4.425-.014l-3.368.858c-.105.38-.057.815-.314 1.14s-.744.444-1.116.666c.037-.998-.4-2.027.373-2.65zm11.007-43.293c.932.5 2.116 1.16 2.94 1.18s1.04-.536 1.523-.857c.762 2.472 1.637 5.19 2.935 7.433.544.94.9.503 1.304 1.448s.596 2.866.988 4.073.904 2.095 1.356 3.142c-1.147-1.617-2.63-3.68-3.27-5.025s-.23-1.463-.747-2.744-1.563-3.28-2.345-4.92c-.56.074-1.252.175-1.678.045s-.34-.58-.725-.872-1.032-.178-1.57-.643-.662-1.417-.71-2.26zm-5.02 12.2c.878-.077 1.967.157 2.79.11s1.408-.258 2.113-.388c-.13-1.23-.007-3.494-1.15-4.316-.738-.53-3.77-.13-4.58.043-1.822.39-3.944 1.473-5.706 2.15 1.69-1.174 3.148-2.26 5.173-2.867 1.218-.364 4.06-.838 5.316-.5.574.154.7.4 1.038.874 1.196 1.66 1.193 3.097 1.503 5.033.305.473.63.788.877 1.276s.386 1.255.455 1.883c-.313-.452-.122-1.018-.99-1.354s-2.196-.022-3.365.1c.852.612 1.275 1.2 1.308 2.494.038 1.518-1.254 2.61-2.603 2.715-1.873.145-2.84-.265-3.596-1.857-.332-.697-.09-1.537-.12-2.217-2.25.156-2.214.083-3.858 1.447.894 1.303 1.457 2.052 2.935 2.832.83.438 1.767.863 2.793 1.037s2.71.342 3.8.177 1.7-.47 2.5-1.207.873-1.8 1.186-2.623c-.07.802-.164 1.823-.463 2.404-.9 1.768-2.484 2.292-4.363 2.298-1.804.006-4.035-.408-5.713-1.1-1.342-.553-3.566-2.12-4.094-3.48-.36-.93-.075-2.07-.113-3.107 1.858-1.23 2.318-.927 4.516-1.287.92-.15 1.552-.5 2.43-.567zm-10.822-8.325c.052-.736.134-.72.2-1.08-1.693-.45-2.37.642-3.364 2.67-.37.76-.004 1.21-.402 1.71s-1.04.43-1.685.9-1.287 1.398-1.89 1.895c-1.24 1.02-2.916 1.642-4.354 2.328.982-.72 2.888-1.814 3.504-2.862.327-.555.28-1.602.788-2.102s.687-.845 1.344-.972.393-.885.605-1.487.634-1.03 1.083-1.632 1.016-1.505 1.903-1.833 2.27.027 2.942-.162.286-.674.773-.966 1.437-.163 2.1-.475c1.156-.553 1.71-1.476 2.404-2.464.1 2.127.076 3.658-.692 5.66-.865 2.252-1.742 3.58-4.198 4.964-.846.477-1.688.643-2.4.893.41-.555.994-.796 1.227-1.665s.06-2.594.11-3.33zm39.647 10.37c-1.168.076-1.445-.077-2.38.578l1.518 2.352c-.045-1.547.107-1.858.86-2.93zm-3.06-1.125c1.617-.685 3.026-1.24 4.785-1.35.705-.044 1.8.065 2.512.097.607-.89 1.38-1.59 1.663-2.603.188-.673.095-3.795-.237-4.605-.967-2.36-1.908-2.458-3.24-3.8-.966-.98-1.005-2.472-1.294-4.144-.106-.614-.41-1.39-.55-2.025-1.74-.292-3.612-.388-5.614-.288.97-.926 1.9-1.773 2.188-3.164s.052-3.1-.743-4.348-2.064-2.334-3.23-3.35-2.837-1.855-3.94-2.686c1.437-.512 2.903-1.264 4.31-1.535 3.666-.707 6.824.374 10.36 2.5 2.056 1.237 3.756 2.412 5.905 4.65s4.814 6.343 6.894 8.778 3.76 4.36 5.574 5.812 3.458 1.866 5.186 2.798l2.694 2.846 2.18-2.684 3.508.395.725-3.917 3.22-.878-.525-5.28 2.315-1.634-1.74-3.286 1.768-3.6-2.305-4.104.89-3.952-2.668-2.262-.348-4.2-3.722-1.413-1.493-3.653-4.185-.047-2.053-2.712-2.817.196-3.14-.34-1.776-1.304-2.577 1.702-3.12-1.618-6.2 2.342 4.042-3.497 4.187-.665 3.208-.813 4.332 1.415 3.813-.96 3.677 2.162 3.89-.214 1.91 3.412 3.874.445 2.096 3.793 2.437 1.323.647 4.86 2.17 2.048-.954 4.252 2.556 3.22-2.397 3.45 2.563 2.156-3.277 2.89 3.32 3.438-4.008 1.286 2.6 3.688-3.274.562 2.147 4.055-3.69-.05 1.858 3.037-4.047-.485.968 4.37-3.058-2.676-1.048 5.295-2.1-3.802-1.143 4.743-2.605-3.497.07 4.973-2.88-4.47c.607 2.537.486 5.315 2.16 7.707 5.2-.7 8.582-2 12.557-5.806 3.62-3.466 7.95-10.694 9.122-15.278 1.337-5.23 1.378-14.852.06-20.178-1.268-5.128-2.915-7.577-5.86-11.762-2.814-2.973-5.58-6.114-9.153-8.234C179.74.26 173.018-.58 167.043-.5a21.39 21.39 0 0 0-7.502 1.393c-3.46 1.25-6.225 3.98-9.742 5.33-1.147.44-2.066.453-2.97-.027.884 1.76 1.846 2.55 4.052 3.2 1.595.463 5.402.17 8.023-.07 2.813-.258 4.28-1.09 8.11-1.038 3.74.05 6.702 1.464 8.322 2.386 3.343 1.9 5.74 4.01 7.822 7.352 1.144 1.835 1.945 3.905 2.51 6.018s.812 4.48.848 6.547-.123 3.914-.63 5.776c-1.19 4.357-3.813 8.79-9.203 8.106-3.298-.42-8.27-6.578-9.936-8.838-3.36-4.56-6.818-9.607-11.04-13.404-2.574-2.315-6.1-3.908-9.56-4.223-6.494-.59-8.42.636-13.307 4.644.994.315 1.965.5 2.984.946 2.262 1.014 4.33 2.324 6.134 4.005 1.9 1.762 2.74 2.876 2.806 5.4.045 1.675-1.34 3.018-2.6 4.226-.777.74-1.805 1.417-2.434 1.99-.834.762-1.866 1.596-.82 2.8.394.456 1.078.8 1.655 1.226.916.676.496 3.19-.7 3.856-1.544.852-3.388.757-4.66-.384 1.607-.24 2.627-.45 2.586-1.76-.024-.758-.993-1.388-1.943-1.82-2.293-1.04-4.024-.886-6.306-2.52-2.305-1.65-2.356-2.554-2.98-5.146-1.11.116-2.134.14-3.62.63s-3.128 1.654-4.477 1.942c-3.398.727-4.075.512-5.934.033-3.274-.843-7.536.6-11.77 1.948-.704.224-3.552.008-5.47.677-2.96 1.033-7.115 3.536-9.514 5.546-3.635 3.046-8.413 12.162-11.112 22.626-.284 3.18.626 5.324-1.388 6.877s-1.958 5.534-2.64 6.65-1.474.623-2.944 2.2-2.218 1.306-2.18 4.27c1.267-.83 3.114-1.792 4.736-1.85 1.436-.052 1.452 1.83 5.138-1.796 1.972-1.94 5.76-2 8.387-2.855s7.364-2.62 12.108-7.894 7.013-10.83 7.933-18.86c.147 1.424.4 3.03-.212 6.956s-1.933 8.338.85 13.62l1.733 3.29c-1.032-1.4-3.048-3.687-3.655-5.315l-1.4-3.757c-3.132 4.892-3.852 5.767-8.202 9.272-.173 2.174-.216 4.442.5 6.523s-.424 4.478.12 5.848 1.8.6 2.21 1.977-.214 4.13.422 5.482 2.198.532 2.955.968 1.004 1.036 1.41 1.6-.158 1.932.665 2.373 2.107.067 2.963.49.986 1.44.78 2.352-1.12 1.33-1.523 2.257-.357 1.572.126 2.423 1.55 1.32 2.617 1.75 2.562.188 3.66.782 2.087 1.778 2.668 2.638.742 1.467.712 2.372-.4 1.946-.884 2.82-1.556 1.937.116 3.605 1.6.95 2.568 2.03c-.104-1.872-.882-3.397-.313-4.806s2.276-1.654 3.176-2.288 1.418-1.505 2.127-2.258c-.01.968.094 2.01-.017 2.738-.225 1.482-.665 2.798 1.555 3.036 1 .107 1.95-.538 3.003-.926-.55.982-1.5 1.772-1.654 2.948s.03 2.466.847 3.632 2.23 2.03 3.266 2.717 1.6.74 2.385 1.11c.04 1.155-.2 2.378-.057 3.467s.477 2.052 1.1 2.95 1.648 1.416 2.604 2.08c-.524-1.214-1.587-2.366-1.573-3.643s.4-2.18 1.65-3.313 4.18-2.115 5.562-3.216 1.827-1.776 2.323-2.845.358-2.792.45-3.753c.455 1.347.52 1.765.667 3.174s-.825 3.385-1.238 4.428c1.71-.82 2.793-2.133 3.34-3.416.366.216.182.81.316 1.95.61-.603 1.3-1.067 1.914-1.636s1.286-1.068 1.6-1.862.18-1.637-.047-2.56-1.262-1.99-1.82-3 .1-1.998.06-3.213c-1.116-.19-2.064-.756-3.346-.572s-2.753 1.616-4.065 1.633-2.048-1.206-3.123-1.542-2.163-.3-3.244-.45c1.37-1.305 6.684-1.927 10.32-2.516a65.39 65.39 0 0 1 9.614-.864c1.447-.02 3.308.455 4.313.168s.79-.968 1.1-1.71c.834-2.076.423-3.925-.03-6.016-2.9-.34-5.94-.755-8.873-.53-2.866.22-6.26 1.575-9.216 1.666-2.57.08-6.376-.5-8.583-1.828-2.697-1.635-4.784-5.148-5.524-6.275-1.206-1.837-2.728-5.44-3.654-7.088s-1.13-2.11-1.9-2.796-1.825-.74-2.737-1.11c1.052.107 2.2-.224 3.155.32 1.435.82 3.042 4.215 3.935 5.693.946-3.156.725-4.396 3.464-6.176-2.207 2.46-2.262 4.324-2.8 7.22 1.835 2.996 4.386 7.77 7.724 9.093 1.206.48 3.277.78 4.58.94 4.057.5 7.97-.78 11.954-1.758 2.912-.716 5.868-.427 9.4-.22 1.203.07 4.038-.65 4.625-1.86.317-.653.294-1.437-.162-2.133s-1.67-1.032-2.32-1.658-1.025-1.37-1.538-2.055c-2.706.516-4.93.715-6.94.77 1.44-.6 2.822-.927 4.32-1.5s3.2-1.54 4.41-2.335 1.982-1.256 2.858-2.18 1.997-1.878 2.642-3.01.745-2.396.782-3.796-.025-3.363-.567-4.5-1.587-1.47-2.427-1.736-1.415.408-2.29.5-1.69.64-2.954.048-2.762-1.795-4.04-3.58-2.19-4.706-3.493-6.952c-2.245-3.872-5.042-7.49-7.717-11.076-.22-.885-.55-2.107-.66-3.308-.192-2.09-.228-4.264.424-6.303.5-1.562 1.227-3.21 2.87-3.852.658-.256 1.5-.358 2.077-.14s1.165.877.934 1.64c-.254.84-.838.862-1.235 1.285-.674.72-.943 1.246-1.198 2.142.728-.012 1.712-.067 2.3.1.78.204 1.507.72 1.903 1.82-.93-.822-1.394-1.2-2.556-1.228-.533-.013-1.18.176-1.77.265-.22.713-.35 1.587-.66 2.138s-.916.42-1.144 1.063-.24 1.69-.126 2.536zm8.137-.966c.357.14.493.17.945.513s1.075.683 1.433 1.5.342 2.082.265 2.597c-.314-.092-.743-.03-1.068-.307s-.52-.905-.936-1.174-.765-.2-1.227-.268c.237.67.352 1.342.242 1.95-.24 1.328-1.023 2-2.294 2.16-.555.07-1.435-.112-1.918-.2.224.497.603.933.827 1.43 1.074-.155 1.87-.133 2.447-.4s1.197-.87 1.938-1.126 1.403-.25 2.213-.377c-.64.548-1.058 1.096-1.696 1.643l1.404 4.06c.992.617 1.923.943 3.173 1.705s2.75 2.127 4.38 2.87 2.598 1.15 4.3 1.468 3.055 1.7 4.73 1.913 4.802.268 6.092.143c1.465-.142 3.368-.894 3.54-2.492-1.228.3-3.105.03-4.052-2.27-.42-1.02-.214-2.9-.858-4.106s-1.54-1.595-2.612-3.083-2.825-3.835-3.81-5.828-1.215-4.25-2.047-6.037-2.087-3.228-3.06-4.605c-2.124-3.008-3.837-5.064-7.336-6.582-1.683-.73-3.6-.924-5.398-1.387-.732.326-1.736.687-1.915 1.54s.164 2.1.786 2.75c1.04 1.07 2.582 2.225 3.188 3.925.39 1.09.502 4.747.165 5.74-.35 1.03-1.164 1.653-1.84 2.34zm.34 8.654c-.325.28-.573.565-1.096.797s-1.236.29-1.93.464c.972 1.505 1.993 3.027 2.925 4.61s1.74 3.315 2.63 4.973c-.042-.95.014-1.963-.124-2.85s-.543-1.664-.944-2.996l-1.46-4.997zm-26.155-33.1c-.137 1.48.115 3.796.423 5.246.37 1.736.725 2.635 2.14 3.68 2.592 1.915 4.247 1.592 6.242 2.702.95.528 2.15 1.414 2.502 2.35s-.232 1.953-.95 2.352c1.26.186 2.67-1.225 2.08-2.675-.3-.713-1.67-1.03-2.094-1.75s-.422-1.46-.223-2.19c.36-1.317 2.98-2.514 3.905-3.556 1.425-1.602 1.972-2.943 1.165-5.006-1.133-2.9-5.5-5.225-8.13-6.363-1.2-.52-1.872-.558-2.808-.837 1.916 1.117 3.935 2.007 4.905 4.503.81 2.085.108 2.87.135 4.686.013.842 1.127 1.263 1.622 1.795.43.462.396.806.052 1.444-.038-.576-.285-1.005-.73-1.318-.733-.517-1.523-.406-1.914-1.467-.593-1.612.583-3.14-.74-4.95-.99-1.354-2.305-2.87-4.08-2.9-.84-.02-1.472.107-2.37.37l-1.196-1.432-.028-.02c-2.433-2.21-4.098-4.03-7.51-5.548s-5.095-1.748-9.008-1.66-7.797.412-12.33 4.3-16.214 18.78-19.047 20.663-3.46 2.523-7 2.524-9.064-4.98-9.28-11.205-.304-8.438 4.046-15.937S79.38 8.43 85.225 7.652s9.36 1.27 13.685 1.28 8.6-.733 9.86-4.155c-.617.365-1.443.777-3.767.656S99.456 2.636 95.83.842s-7.66-2.003-12.833-2.1-11.63.296-18.027 3.73S54.21 9.553 50.5 16.276 46.235 28.49 46.833 36.63s3.122 14.195 7.98 20.153 9.716 8.873 18.473 9.957l1.844-8.1-3.29 4.698.08-5.226-2.977 3.675-1.306-4.984-2.412 3.995-1.198-5.564-3.495 2.812 1.106-4.59-4.624.51 2.124-3.19-4.216.05 2.453-4.26-3.74-.59 2.983-3.875-4.58-1.35 3.792-3.612-3.744-3.036 2.93-2.266-2.74-3.625 2.92-3.383-1.1-4.468 2.48-2.15.738-5.106 2.784-1.39 2.395-3.986 4.427-.468 2.184-3.585 4.447.225 4.202-2.272 4.358 1 4.95-1.487 3.666.855 4.784.7 4.62 3.674-7.085-2.46-3.564 1.7-2.946-1.79-2.028 1.37-3.59.358-3.22-.207-2.346 2.85-4.783.05-1.706 3.84-4.253 1.484-.398 4.412-3.05 2.377 1.016 4.152-2.634 4.313 2.02 3.772-1.99 3.452 2.646 1.717-.6 5.55 3.68.922.83 4.116 4.01-.414 2.49 2.82 3.08-2.99c5.612-2.784 7.924-4.342 12.298-9.048 4.98-5.358 7.833-10.31 14.465-13.98 4.757-2.63 8.637-3.578 13.98-2.66 5.017.862 6.697 3.856 10.392 7 .392-.705.47-.892 1.117-1.412-.203.916-.524 1.866-.606 2.747z" fill-rule="evenodd"/><text y="111.557" x="212.398" xml:space="preserve" font-size="36.475" font-family="Bitstream Vera Sans"><tspan y="111.557" x="212.398" font-size="84.744">GNU</tspan></text></g></svg>