<svg xmlns="http://www.w3.org/2000/svg" width="120" height="60" fill="#00a1de"><path d="M62.7 108.5V95.4c0-1-.9-1.7-2.2-1.7H31.4c-5.6 0-10.2-3.5-10.2-7.9V53.2c0-4.3 4.5-7.9 10.2-7.9h29.1c1.3 0 2.2-.8 2.2-1.8v-13c0-1-.9-1.8-2.2-1.8H31.4C14.1 28.7 0 39.8 0 53.2v32.7c0 13.4 14.1 24.4 31.4 24.4h29.1c1.3-.1 2.2-.9 2.2-1.8m32.6.1V7.5c0-1-.9-1.7-2.2-1.7H76.3c-1.3 0-2.2.7-2.2 1.7v101.1c0 1 .9 1.7 2.2 1.7h16.8c1.3 0 2.2-.8 2.2-1.7"/><path d="M149.5 91.9c0 1-.9 1.8-2.2 1.8h-5.6c-6.9 0-12.5-4.3-12.5-9.7V56c0-5.3 5.6-9.7 12.5-9.7h5.6c1.3 0 2.2.7 2.2 1.7v43.9m21.3 16.6v-77c0-1-.9-1.9-2.2-1.9h-26.8c-18.5 0-33.7 11.8-33.7 26.3v28c0 14.4 15.2 26.2 33.7 26.2h26.8c1.3.1 2.2-.6 2.2-1.6z" fill-rule="evenodd"/><path d="M241.9 44.5v-13c0-1-1.1-1.9-2.4-1.9h-20.4c-18.6 0-34 11.8-34 26.4v52.5c0 1 1.1 1.7 2.4 1.7h16.7c1.3 0 2.4-.7 2.4-1.7V56c0-5.3 5.6-9.7 12.6-9.7h20.4c1.2 0 2.3-.8 2.3-1.8m31.4 64.1V31.5c0-1-.9-1.8-2.2-1.8h-16.8c-1.3 0-2.2.8-2.2 1.8v77.1c0 1 .9 1.7 2.2 1.7h16.8c1.3 0 2.2-.8 2.2-1.7m75.5-77.1c0-1-1.1-1.9-2.4-1.9h-58.2c-1.3 0-2.2.9-2.2 1.9v13c0 1 .9 1.8 2.2 1.8h32.7c.7 0 1.3.4 1.3 1 0 .7-32.7 43.5-35.5 47.1-.5.6-.9 1.3-.9 2v12.1c0 1 1.1 1.7 2.3 1.7h58.2c1.3 0 2.4-.7 2.4-1.7V95.4c0-1-1.1-1.7-2.4-1.7h-32.6c-.6 0-1.3-.4-1.3-1 0-.7 32.6-43.2 35.3-46.8.5-.6.9-1.4.9-2.1V31.5"/><path d="M401.2 57.7c0 1-.9 1.6-2.1 1.6h-15.9c-1.3 0-2.1-.7-2.1-1.6V54c0-4.3 4.5-7.7 10.1-7.7s10.1 3.4 10.1 7.7c-.1 1.8-.1 3.7-.1 3.7m21.4 16.5V54c0-13.2-14.3-24.3-31.6-24.3-17.2 0-31.5 11.1-31.5 24.3v31.8c0 13.4 14.3 24.4 31.5 24.4h29.2c1.3 0 2.2-.9 2.2-1.7V95.4c0-1-.9-1.7-2.2-1.7H391c-5.6 0-10.1-3.5-10.1-7.9v-8.2c0-1 .9-1.7 2.1-1.7h37.1c1.4.1 2.5-.7 2.5-1.7z" fill-rule="evenodd"/><path d="M499.7 108.6V54.2c0-13.4-14.3-24.5-31.5-24.5H439c-1.3 0-2.4.9-2.4 1.9v77c0 1 1.1 1.7 2.4 1.7h16.7c1.3 0 2.4-.7 2.4-1.7V48.1c0-1 .9-1.7 2.2-1.7h8c5.6 0 10.1 3.5 10.1 7.9v54.3c0 1 1.1 1.7 2.4 1.7h16.7c1.1 0 2.2-.8 2.2-1.7M308.1 10.1a10.07 10.07 0 1 1 20.2 0 10.07 10.07 0 1 1-20.2 0"/></svg>