<?xml version="1.0" encoding="UTF-8" standalone="no"?>
<svg
   xmlns:dc="http://purl.org/dc/elements/1.1/"
   xmlns:cc="http://creativecommons.org/ns#"
   xmlns:rdf="http://www.w3.org/1999/02/22-rdf-syntax-ns#"
   xmlns:svg="http://www.w3.org/2000/svg"
   xmlns="http://www.w3.org/2000/svg"
   xmlns:xlink="http://www.w3.org/1999/xlink"
   xmlns:sodipodi="http://sodipodi.sourceforge.net/DTD/sodipodi-0.dtd"
   xmlns:inkscape="http://www.inkscape.org/namespaces/inkscape"
   version="1.1"
   width="64"
   height="64"
   id="svg4375"
   sodipodi:docname="gunicorn-icon.svg"
   inkscape:version="0.92.3 (2405546, 2018-03-11)">
  <sodipodi:namedview
     pagecolor="#ffffff"
     bordercolor="#666666"
     borderopacity="1"
     objecttolerance="10"
     gridtolerance="10"
     guidetolerance="10"
     inkscape:pageopacity="0"
     inkscape:pageshadow="2"
     inkscape:window-width="1920"
     inkscape:window-height="1001"
     id="namedview20"
     showgrid="false"
     inkscape:zoom="7.319838"
     inkscape:cx="74.2091"
     inkscape:cy="26.333225"
     inkscape:window-x="-9"
     inkscape:window-y="-9"
     inkscape:window-maximized="1"
     inkscape:current-layer="svg4375" />
  <defs
     id="defs4377">
    <linearGradient
       id="linearGradient3354-9">
      <stop
         id="stop3356-9"
         style="stop-color:#959595;stop-opacity:1"
         offset="0" />
      <stop
         id="stop3358-9"
         style="stop-color:#cccccc;stop-opacity:1"
         offset="1" />
    </linearGradient>
    <linearGradient
       x1="-403.07309"
       y1="-40.681377"
       x2="-560.61346"
       y2="-32.881535"
       id="linearGradient3003"
       xlink:href="#linearGradient3354-9"
       gradientUnits="userSpaceOnUse"
       gradientTransform="matrix(0.18028249,0,0,0.18028249,142.94353,35.811226)" />
  </defs>
  <metadata
     id="metadata4380">
    <rdf:RDF>
      <cc:Work
         rdf:about="">
        <dc:format>image/svg+xml</dc:format>
        <dc:type
           rdf:resource="http://purl.org/dc/dcmitype/StillImage" />
        <dc:title></dc:title>
      </cc:Work>
    </rdf:RDF>
  </metadata>
  <g
     id="g910"
     transform="matrix(1.6894778,0,0,1.6894778,-69.368662,1.8411423)">
    <path
       inkscape:connector-curvature="0"
       style="fill:#499848;stroke-width:0.16299513"
       id="path3046-2-3-0"
       d="m 57.072013,30.500132 c -0.419443,-0.133517 -0.420931,-0.192476 -0.0345,-1.365765 0.385912,-1.171711 0.209052,-2.259839 -0.506323,-3.115155 -0.972791,-1.163093 -1.441229,-2.155557 -1.590544,-3.369834 -0.128189,-1.042483 -0.168823,-1.12513 -0.593253,-1.206618 -0.284664,-0.05465 -0.677944,0.05359 -1.615225,0.444561 -1.363642,0.56882 -1.688427,0.818591 -2.010204,1.545894 -0.169038,0.382071 -0.189354,0.610939 -0.09348,1.052896 0.117075,0.539659 0.596908,1.408366 0.778551,1.40953 0.0474,3.26e-4 0.30928,0.179669 0.581952,0.398589 0.452457,0.363266 0.483513,0.426382 0.355481,0.722501 -0.278189,0.643415 -0.93914,1.423505 -1.206102,1.423505 -0.149784,0 -0.761439,-0.42843 -1.434721,-1.004941 -1.322458,-1.132374 -1.377887,-1.245899 -1.514478,-3.102002 -0.162975,-2.214633 0.381618,-3.248195 2.807128,-5.327555 l 1.52128,-1.304173 0.09716,-0.791081 c 0.10016,-0.81551 -0.04104,-2.757362 -0.278463,-3.829242 -0.140259,-0.633235 -0.603131,-1.236358 -1.042385,-1.358225 -0.478562,-0.132776 -0.759106,0.141176 -1.12317,1.096782 -0.392809,1.031053 -0.76822,1.390748 -1.451517,1.390748 -0.425593,0 -0.822758,-0.272249 -1.097001,-0.751977 -0.19651,-0.343747 -0.310579,-2.408841 -0.193106,-3.4958919 0.05651,-0.5229092 0.05974,-1.052343 0.0072,-1.1765219 C 47.350825,8.5841025 46.614508,8.1470235 44.878579,7.2678721 44.563007,7.1080518 44.195111,6.8928645 44.061032,6.7896744 43.926956,6.6864855 43.579036,6.4967691 43.287878,6.3680816 42.628384,6.0765963 40.90883,5.0711522 41.069811,5.0711522 c 0.304551,0 1.595198,0.3972355 2.282278,0.7024407 0.41943,0.1863167 0.820925,0.3387546 0.892211,0.3387546 0.07129,0 0.879909,0.2602994 1.79694,0.5784451 0.917031,0.3181421 1.755188,0.5784416 1.86257,0.5784416 0.255057,0 0.295053,-0.2206611 0.213322,-1.1769092 -0.03712,-0.4343873 -0.03548,-0.7897959 0.0036,-0.7897959 0.03912,0 0.208116,0.083861 0.375525,0.1863661 0.511457,0.3131546 1.611603,0.5049498 2.904659,0.5063903 1.236408,0.00145 2.850275,0.2466869 3.467088,0.5269943 0.884842,0.402112 1.911225,1.6580433 3.213231,3.9318682 0.905178,1.580807 1.877785,2.250178 3.271665,2.251645 0.563482,6.53e-4 2.066859,-0.231671 4.102687,-0.633841 1.678636,-0.331606 3.894637,-0.406139 4.754805,-0.159921 1.049348,0.300367 2.436841,1.10337 3.584036,2.074238 1.073717,0.908683 1.239085,1.110423 1.898652,2.316233 0.787149,1.439049 1.655911,3.484258 2.428465,5.71702 0.110078,0.318142 0.342586,0.853298 0.516679,1.189235 0.464509,0.896333 0.441356,0.951003 -0.40275,0.951003 -0.916176,0 -1.345846,-0.144473 -1.946429,-0.654472 -0.576025,-0.489145 -0.726494,-0.7884 -1.628085,-3.237987 -0.461813,-1.25472 -0.911363,-2.007657 -1.1987,-2.007657 -0.196876,0 -0.595366,1.34457 -0.595366,2.008876 0,0.47182 0.295673,1.109213 1.060097,2.285302 1.241812,1.910562 1.895052,4.611405 1.633571,6.754078 l -0.112949,0.925508 -0.827603,0.03446 c -1.302958,0.05424 -1.289914,0.07235 -1.289914,-1.790797 0,-1.983523 -0.135085,-2.413083 -1.010408,-3.213036 -0.363577,-0.33227 -1.179282,-1.276303 -1.812681,-2.097848 -0.633402,-0.821548 -1.239983,-1.493723 -1.347961,-1.493723 -0.248119,0 -0.371846,0.675595 -0.385035,2.102441 -0.0087,0.939659 -0.04568,1.098708 -0.322914,1.388262 -0.751576,0.784981 -1.279147,2.21432 -1.604388,4.346754 -0.07199,0.472 -0.13371,0.560298 -0.439663,0.628996 -0.44987,0.101018 -1.696525,0.117546 -1.803957,0.02394 -0.09264,-0.08074 0.06971,-1.362483 0.438002,-3.457931 0.139793,-0.795359 0.292376,-1.862586 0.339076,-2.371615 0.08314,-0.906176 -0.102671,-2.60394 -0.322565,-2.947423 -0.09144,-0.142815 -0.557004,-0.173762 -2.734607,-0.181758 -1.443425,-0.0053 -3.026409,-0.05278 -3.517737,-0.105517 l -0.893331,-0.09588 v 0.396426 c 0,0.424516 0.108811,0.798689 0.836443,2.87631 0.256267,0.73173 0.627617,1.847253 0.825222,2.478941 l 0.359283,1.148523 -0.303182,0.933871 c -0.166753,0.513629 -0.414231,1.129095 -0.549958,1.367704 -0.239394,0.420859 -0.267466,0.433557 -0.938892,0.424697 -0.380667,-0.0051 -0.861648,-0.0631 -1.068848,-0.129052 z" />
  </g>
</svg>
