<svg xmlns="http://www.w3.org/2000/svg" width="120" height="60"><path d="M7.173 37.25h10.623l6.092 5.64v-5.64h8.13V17.11H7.173zm4.003-15.43h4.657l8.962 8.358V21.82h2.97v10.8H23.26l-9.113-8.51v8.51h-2.97z" fill="#27aae1"/><path d="M14.146 24.11l9.113 8.51h4.506v-10.8h-2.97v8.358l-8.962-8.358h-4.657v10.8h2.97z" fill="#fff"/><path d="M46.318 23.68l-3.222 4.607h6.444zM34.1 37.25h24.846V17.1H34.1zm10.32-15.48h3.952l7.753 10.875h-3.55l-1.46-2.1h-9.6l-1.46 2.1h-3.4l7.753-10.875z" fill="#34a574"/><path d="M41.535 30.53h9.59l1.46 2.09h3.55l-7.753-10.85H44.43l-7.753 10.875h3.4zm4.783-6.847l3.222 4.606h-6.444z" fill="#fff"/><path d="M61.045 37.25H85.89V17.11H61.045zm3.902-15.43h16.8v2.442H74.9v8.358h-3.07V24.26h-6.872V21.82z" fill="#375c93"/><path d="M71.82 32.618h3.07V24.26h6.847V21.82h-16.8v2.442h6.872z" fill="#fff"/><path d="M87.98 17.11v20.14h24.846V17.11zm19.258 14.274c-.806.806-2.568 1.435-6.747 1.435-3.096 0-6.067-.478-7.728-1.183V29.12c1.586.705 5.06 1.385 7.728 1.385 2.34 0 3.977-.076 4.405-.53.127-.135.19-.318.176-.503a.57.57 0 0 0-.176-.453c-.252-.252-.655-.428-4.38-.53-3.952-.1-5.89-.504-6.797-1.4-.457-.52-.692-1.197-.655-1.888 0-.83.15-1.56.83-2.24.906-.906 2.693-1.334 6.32-1.334 2.72 0 5.437.428 6.872 1.007v2.543c-1.636-.705-4.48-1.21-6.847-1.21-2.618 0-3.726.15-4.078.504a.73.73 0 0 0-.025.982c.327.327 1.536.428 4.355.478 4.128.1 5.916.453 6.797 1.31.475.532.728 1.226.705 1.938a2.89 2.89 0 0 1-.755 2.215z" fill="#8dc63f"/><path d="M100.542 25.897c-2.82-.05-4.028-.15-4.355-.478a.73.73 0 0 1 .025-.982c.327-.327 1.46-.504 4.078-.504 2.366 0 5.21.504 6.847 1.208v-2.517c-1.435-.58-4.18-1.007-6.872-1.007-3.65 0-5.437.453-6.32 1.334-.68.68-.83 1.4-.83 2.24a2.76 2.76 0 0 0 .655 1.888c.906.906 2.845 1.31 6.797 1.4 3.726.1 4.128.277 4.38.53a.57.57 0 0 1 .176.453.69.69 0 0 1-.176.503c-.453.453-2.09.53-4.405.53-2.668 0-6.117-.655-7.728-1.385v2.542c1.66.705 4.632 1.183 7.728 1.183 4.18 0 5.94-.63 6.747-1.435.604-.604.78-1.4.78-2.24a2.73 2.73 0 0 0-.705-1.938c-.906-.88-2.693-1.234-6.822-1.334z" fill="#fff"/></svg>