<?xml version="1.0" encoding="UTF-8" standalone="no"?>
<svg
   xmlns:dc="http://purl.org/dc/elements/1.1/"
   xmlns:cc="http://creativecommons.org/ns#"
   xmlns:rdf="http://www.w3.org/1999/02/22-rdf-syntax-ns#"
   xmlns:svg="http://www.w3.org/2000/svg"
   xmlns="http://www.w3.org/2000/svg"
   xmlns:sodipodi="http://sodipodi.sourceforge.net/DTD/sodipodi-0.dtd"
   xmlns:inkscape="http://www.inkscape.org/namespaces/inkscape"
   width="120"
   height="60"
   viewBox="0 0 120 59.999997"
   version="1.1"
   id="svg12"
   sodipodi:docname="cloudcannon-ar21.svg"
   inkscape:version="0.92.4 (5da689c313, 2019-01-14)">
  <metadata
     id="metadata18">
    <rdf:RDF>
      <cc:Work
         rdf:about="">
        <dc:format>image/svg+xml</dc:format>
        <dc:type
           rdf:resource="http://purl.org/dc/dcmitype/StillImage" />
        <dc:title></dc:title>
      </cc:Work>
    </rdf:RDF>
  </metadata>
  <defs
     id="defs16" />
  <sodipodi:namedview
     pagecolor="#ffffff"
     bordercolor="#666666"
     borderopacity="1"
     objecttolerance="10"
     gridtolerance="10"
     guidetolerance="10"
     inkscape:pageopacity="0"
     inkscape:pageshadow="2"
     inkscape:window-width="1920"
     inkscape:window-height="1001"
     id="namedview14"
     showgrid="false"
     inkscape:zoom="6.8954998"
     inkscape:cx="68.252233"
     inkscape:cy="40.489729"
     inkscape:window-x="-9"
     inkscape:window-y="-9"
     inkscape:window-maximized="1"
     inkscape:current-layer="svg12" />
  <g
     id="g833"
     transform="translate(2.5749999e-7,3.3277416)">
    <g
       transform="matrix(0.16326507,0,0,0.16326507,27.861271,2.9744059)"
       style="fill:#407afc"
       id="g6">
      <path
         inkscape:connector-curvature="0"
         id="path2"
         d="m 343.3,90.9 c -3.6,-21.4 -19.4,-38.5 -39.9,-44.5 0.3,-2.1 0.6,-4.2 0.6,-6.3 0,-22.1 -17.9,-40 -40,-40 -11.2,0 -21.2,4.6 -28.5,12 -2,-5.3 -7,-9.1 -13,-9.1 -7.7,0 -14,6.3 -14,14 0,7.7 5.3,11.1 16.4,16.4 1.5,0.7 3,1.5 4.4,2.3 0.9,0.5 1.7,1 2.6,1.5 0.6,0.4 1.3,0.8 1.9,1.2 0.4,0.2 0.7,0.5 1.1,0.7 3.4,2.3 6.5,4.8 9.5,7.5 0.2,0.1 0.3,0.3 0.5,0.4 1.2,1.1 2.4,2.3 3.5,3.6 0.3,0.3 0.6,0.7 0.9,1 1.3,1.4 2.5,2.9 3.6,4.4 9.4,12.4 15,27.9 15,44.6 0,16.7 -5.7,32.2 -15,44.6 -1.1,1.5 -2.4,2.9 -3.6,4.4 -0.3,0.3 -0.6,0.7 -0.9,1 -1.1,1.2 -2.3,2.4 -3.5,3.6 -0.2,0.1 -0.3,0.3 -0.5,0.4 -3,2.7 -6.1,5.3 -9.5,7.5 -0.4,0.2 -0.7,0.5 -1.1,0.7 -0.6,0.4 -1.2,0.8 -1.9,1.2 -0.8,0.5 -1.7,1 -2.6,1.5 -1.5,0.8 -2.9,1.6 -4.4,2.3 -11.2,5.2 -16.4,8.6 -16.4,16.4 0,7.7 6.3,14 14,14 6,0 11,-3.8 13,-9.1 7.3,7.4 17.4,12 28.5,12 22.1,0 40,-17.9 40,-40 0,-2.2 -0.3,-4.2 -0.6,-6.3 20.5,-6 36.2,-23.2 39.9,-44.5 0.5,-3.1 0.8,-6.2 0.8,-9.4 0,-3.8 -0.3,-7 -0.8,-10 z m -174.5,76.5 c -1.5,-0.7 -3,-1.5 -4.4,-2.3 -0.9,-0.5 -1.7,-1 -2.6,-1.5 -0.6,-0.4 -1.3,-0.8 -1.9,-1.2 -0.4,-0.2 -0.7,-0.5 -1.1,-0.7 -3.4,-2.2 -6.5,-4.8 -9.5,-7.5 -0.2,-0.1 -0.3,-0.3 -0.5,-0.4 -1.2,-1.2 -2.4,-2.3 -3.5,-3.6 -0.3,-0.3 -0.6,-0.7 -0.9,-1 -1.3,-1.4 -2.5,-2.9 -3.6,-4.4 -9.4,-12.4 -15,-27.9 -15,-44.6 0,-16.7 5.7,-32.2 15,-44.6 1.1,-1.5 2.4,-2.9 3.6,-4.4 0.3,-0.3 0.6,-0.7 0.9,-1 1.1,-1.2 2.3,-2.4 3.5,-3.6 0.2,-0.1 0.3,-0.3 0.5,-0.4 3,-2.7 6.1,-5.3 9.5,-7.5 0.4,-0.2 0.7,-0.5 1.1,-0.7 0.6,-0.4 1.2,-0.8 1.9,-1.2 0.8,-0.5 1.7,-1 2.6,-1.5 1.5,-0.8 2.9,-1.6 4.4,-2.3 11.2,-5.2 16.4,-8.6 16.4,-16.4 0,-7.7 -6.3,-14 -14,-14 -6,0 -11,3.8 -13,9.1 -7.3,-7.4 -17.4,-12 -28.5,-12 -22.1,0 -40,17.9 -40,40 0,2.2 0.3,4.2 0.6,6.3 -20.5,6 -36.2,23.2 -39.9,44.5 -0.5,3.1 -0.8,6.2 -0.8,9.4 0,3.2 0.3,6.3 0.8,9.4 3.6,21.4 19.4,38.5 39.9,44.5 -0.3,2.1 -0.6,4.2 -0.6,6.3 0,22.1 17.9,40 40,40 11.2,0 21.2,-4.6 28.5,-12 2,5.3 7,9.1 13,9.1 7.7,0 14,-6.3 14,-14 0,-7.2 -5.2,-10.6 -16.4,-15.8 z" />
      <path
         inkscape:connector-curvature="0"
         id="path4"
         d="m 240.5,100.3 c 0,-24.1 -19.5,-43.6 -43.6,-43.6 -24.1,0 -43.6,19.5 -43.6,43.6 0,24.1 19.5,43.6 43.6,43.6 24.1,0 43.6,-19.5 43.6,-43.6 z" />
    </g>
    <g
       transform="matrix(0.21644545,0,0,0.21644545,17.436002,-7.9562474)"
       style="fill:#407afc"
       id="g10">
      <path
         inkscape:connector-curvature="0"
         id="path8"
         d="m 28.6,264.9 c 0,0.6 -0.3,1 -0.7,1.3 -3,2.3 -6.8,3.5 -10.6,3.5 C 7.9,269.7 0,262 0,252.5 0,242.9 7.9,235 17.3,235 c 3.8,0 7.7,1.2 10.6,3.7 1.2,1 0.5,2.7 -0.9,2.7 -0.3,0 -0.7,-0.1 -0.9,-0.3 C 23.7,239.3 20.5,238 17.3,238 9.5,238 3,244.5 3,252.5 c 0,7.8 6.5,14.2 14.3,14.2 3.3,0 6.4,-1 8.8,-2.9 0.9,-0.7 2.5,-0.3 2.5,1.1 z m 9.2,-39.5 c 0,-0.3 -0.1,-0.7 -0.5,-0.9 -1.1,-0.6 -1.2,-1.2 -1.2,-1.6 0,-1.6 1.6,-1.6 1.6,-1.6 0.9,0 3.1,0.9 3.1,4.1 v 39.9 c 0,0.3 0.1,0.7 0.5,0.9 1.1,0.6 1.2,1.2 1.2,1.6 0,1.6 -1.6,1.6 -1.6,1.6 -0.9,0 -3.1,-0.9 -3.1,-4.1 z m 12.2,27 c 0,-9.6 7.8,-17.4 17.4,-17.4 9.6,0 17.3,7.9 17.3,17.4 0,9.6 -7.7,17.3 -17.3,17.3 C 57.8,269.7 50,262 50,252.4 Z m 3,0 c 0,7.9 6.5,14.3 14.4,14.3 7.9,0 14.3,-6.4 14.3,-14.3 0,-7.9 -6.4,-14.4 -14.3,-14.4 -7.9,0 -14.4,6.5 -14.4,14.4 z m 65.1,10.7 c -1.8,3.9 -6.8,6.3 -10.8,6.3 -9.7,0 -14.7,-5.1 -14.7,-14.8 v -15.3 c 0,-0.3 -0.1,-0.7 -0.5,-0.9 -1.1,-0.6 -1.2,-1.2 -1.2,-1.6 0,-1.6 1.6,-1.6 1.6,-1.6 0.9,0 3.1,0.9 3.1,4.1 v 15.3 c 0,8 3.8,11.9 11.7,11.9 6.1,0 10.8,-4.5 10.8,-10.5 v -16.7 c 0,-3.2 2.2,-4.1 3.1,-4.1 0,0 1.6,0 1.6,1.6 0,0.3 -0.1,1 -1.2,1.6 -0.3,0.2 -0.5,0.6 -0.5,0.9 v 26 c 0,0.3 0.1,0.7 0.5,0.9 1.1,0.6 1.2,1.2 1.2,1.6 0,1.6 -1.6,1.6 -1.6,1.6 -0.9,0 -3.1,-0.9 -3.1,-4.1 z m 39.7,-37.7 c 0,-3.2 2.2,-4.1 3.1,-4.1 0,0 1.6,0 1.6,1.6 0,0.3 -0.1,1 -1.2,1.6 -0.3,0.2 -0.5,0.6 -0.5,0.9 v 39.9 c 0,0.3 0.1,0.7 0.5,0.9 1.1,0.6 1.2,1.2 1.2,1.6 0,1.6 -1.6,1.6 -1.6,1.6 -0.9,0 -3.1,-0.9 -3.1,-4.1 v -3.7 c -2.7,6 -8.2,7.8 -12.7,7.8 -9.2,0 -15.5,-8.1 -15.5,-17.4 0,-8.9 6.6,-16.7 15.5,-16.7 5,0 9.3,1.5 12.7,7 z m 0,25.9 c 0,-7 -5.4,-13.1 -12.6,-13.1 -7.7,0 -12.6,6.4 -12.6,13.6 0,7.1 4.8,14.4 12.6,14.4 8,0 12.6,-7.5 12.6,-14.5 z m 41,-10.2 c 0,1.9 -1.5,3.3 -3.3,3.3 -0.8,0 -1.4,-0.2 -2,-0.6 -1.9,-1.5 -4.3,-2.5 -6.5,-2.5 -6,0.1 -11,5.1 -11,11 0,5.8 4.9,10.9 10.9,10.9 2.2,0 4.6,-0.9 6.6,-2.4 0.6,-0.4 1.2,-0.6 2,-0.6 1.8,0 3.3,1.5 3.3,3.3 0,1 -0.6,1.8 -1.4,2.5 -2.9,2.4 -6.7,3.6 -10.4,3.6 -9.7,0 -17.4,-7.7 -17.4,-17.3 0,-9.6 7.8,-17.4 17.4,-17.4 3.9,0 7.6,1.2 10.5,3.6 0.8,0.7 1.3,1.6 1.3,2.6 z m 26.7,24.2 c -0.7,1 -3.1,4.4 -8.7,4.4 -6.6,0 -12.9,-4.4 -12.9,-11.6 0,-8 6.4,-11.2 13.2,-11.2 2.8,0 5.6,0.7 8.1,1.9 0,-6.7 -2.9,-7.7 -6.7,-7.7 -4.5,0 -6.6,0.9 -6.6,0.9 -2,0.7 -4.1,-0.6 -4.1,-2.7 0,-1.6 1,-2.8 2.4,-3.2 2.5,-0.7 5.1,-1.2 8.1,-1.2 9.1,0 13.6,4.3 13.6,11.7 v 15.7 c 0,0.7 0.3,1 0.6,1.2 0,0 1.1,0.5 1.1,2.5 0,2 -1.4,3.3 -3.4,3.3 -2.6,0.1 -4.6,-1.4 -4.7,-4 z m -6.6,-13.1 c -4,0 -8.4,1.2 -8.4,6 0,3.5 3.3,5.2 6.4,5.2 3.9,0 8.3,-2.4 8.5,-6.6 v -2.6 c -2.3,-1.6 -5.1,-2 -6.5,-2 z m 46.3,-1.8 c 0,-5.6 -3.5,-8.9 -8.9,-8.9 -5,0 -8.9,4.3 -8.9,8.6 v 14.3 c 0,3 -2,5 -4.9,5 -1.8,0 -3.4,-1.3 -3.4,-3.3 0,-2 1.2,-2.6 1.2,-2.6 0.3,-0.2 0.6,-0.4 0.6,-1.1 v -20.1 c 0,-0.7 -0.3,-0.9 -0.6,-1.1 0,0 -1.2,-0.6 -1.2,-2.6 0,-2 1.6,-3.3 3.4,-3.3 2.7,0 4.6,1.8 4.9,4.4 2.1,-2.6 6.2,-4.7 9.4,-4.7 10.6,0 15,5.1 15,15.9 v 11.5 c 0,0.7 0.3,0.9 0.6,1.1 0,0 1.2,0.6 1.2,2.6 0,2 -1.6,3.3 -3.4,3.3 -2.9,0 -4.9,-2 -4.9,-5 v -14 z m 40.6,0 c 0,-5.6 -3.5,-8.9 -8.9,-8.9 -5,0 -8.9,4.3 -8.9,8.6 v 14.3 c 0,3 -2,5 -4.9,5 -1.8,0 -3.4,-1.3 -3.4,-3.3 0,-2 1.2,-2.6 1.2,-2.6 0.3,-0.2 0.6,-0.4 0.6,-1.1 v -20.1 c 0,-0.7 -0.3,-0.9 -0.6,-1.1 0,0 -1.2,-0.6 -1.2,-2.6 0,-2 1.6,-3.3 3.4,-3.3 2.7,0 4.6,1.8 4.9,4.4 2.1,-2.6 6.2,-4.7 9.4,-4.7 10.6,0 15,5.1 15,15.9 v 11.5 c 0,0.7 0.3,0.9 0.6,1.1 0,0 1.2,0.6 1.2,2.6 0,2 -1.6,3.3 -3.4,3.3 -2.9,0 -4.9,-2 -4.9,-5 v -14 z m 13.1,1.9 c 0,-9.6 7.9,-17.4 17.4,-17.4 9.6,0 17.4,7.8 17.4,17.4 0,9.5 -7.8,17.4 -17.4,17.4 -9.6,0 -17.4,-7.9 -17.4,-17.4 z m 6.5,0 c 0,6 4.9,10.8 10.8,10.8 6,0 10.8,-4.9 10.8,-10.8 0,-6 -4.9,-10.8 -10.8,-10.8 -5.9,0 -10.8,4.8 -10.8,10.8 z m 59.5,-1.9 c 0,-5.6 -3.5,-8.9 -8.9,-8.9 -5,0 -8.9,4.3 -8.9,8.6 v 14.3 c 0,3 -2,5 -4.9,5 -1.8,0 -3.4,-1.3 -3.4,-3.3 0,-2 1.2,-2.6 1.2,-2.6 0.3,-0.2 0.6,-0.4 0.6,-1.1 v -20.1 c 0,-0.7 -0.3,-0.9 -0.6,-1.1 0,0 -1.2,-0.6 -1.2,-2.6 0,-2 1.6,-3.3 3.4,-3.3 2.7,0 4.6,1.8 4.9,4.4 2.1,-2.6 6.2,-4.7 9.4,-4.7 10.6,0 15,5.1 15,15.9 v 11.5 c 0,0.7 0.3,0.9 0.6,1.1 0,0 1.2,0.6 1.2,2.6 0,2 -1.6,3.3 -3.4,3.3 -2.9,0 -4.9,-2 -4.9,-5 v -14 z" />
    </g>
  </g>
</svg>
