<svg xmlns="http://www.w3.org/2000/svg" width="64" height="64" viewBox="0 0 32 32" fill-rule="evenodd"><path d="M15.903 0c-5.08.034-9.577 2.677-12.327 6.715h24.848C25.656 2.65 21.122 0 16 0c-.033 0-.065 0-.098 0z" fill="#608ab4"/><path d="M2.695 8.174a16.52 16.52 0 0 0-1.95 7.825C.744 24.83 7.58 32 16 32s15.255-7.17 15.255-16c0-2.843-.707-5.51-1.948-7.825z" fill="#375493"/><path d="M3.576 6.715a16.14 16.14 0 0 0-.882 1.459h26.613c-.27-.504-.565-.99-.884-1.46z" fill="#d6dde3"/><path d="M22.516 1.794a.75.75 0 0 0-.203.037c-.68 1.085-.678 4.68-.67 5.456 1.01.223 2.343-.033 2.388-.996.077-1.27.154-2.5-.52-3.3-.615.28-.498-.855-.748-1.1-.062-.07-.15-.1-.248-.098z" fill="#7bbce5"/><path d="M22.313 1.83c-.358.1-.795.435-1 .54-.188.02-.536.006-.795.072-.558.143-1.066.484-1.36 1.02-.378-1.1-1.19.253-2.154 1.03-.533-.402-1.608-1.203-2.594-1.72-.792.402-1.623 1.758-2.116 1.873-.513.096-1.235.04-1.536.403-.5.516-.655 1.11-.75 1.664 1.173.414 2.403.427 3.576.268.666-.16 1.14.065 1.826.04 2.08.09 4.335-.165 6.244.268-.01-.777-.01-4.37.67-5.456z" fill="#fff"/><path d="M15.362 3.997c.25.752.467 1.505.385 2.257-.1.465.11.434.48.25.365-.198.558-.414 1.096-.593.417-.115.122-.42-.077-.63-.594-.562-1.24-.918-1.884-1.282z" fill="#7bbce5"/><path d="M17.498 8.174c.438 5.792 4.348 6.504 6.8 5.333-1.23-1.21-.784-3.68.53-3.707 2.43-.06 1.737 4.454 1.738 6.645 1.328-.27 1.24-5.267.96-8.272z" fill="#294584"/><path d="M4.92 8.174l.143 1.496c.32.585.56 1.17.493 1.754.635-.156 1.013-.237 1.354.4 1.493.925 2.912 1.035 4.308.898.284 3.36.2 6.065.082 10.082l2.544 4.132c.487.852 1.34 1.12 2.01.114l1.72-.775v.856c.882.22 1.755.557 1.354 1.47-.305.6-.133.853.734.458.766-.37 1.24.205 1.64.307-.57-.604-.08-1.794-.062-3.022.818-.074 1.753-.812 2.57-.887 1.682-1.625 1.972-2.23 1.97-4.328.17-.544.412-.688.288-1.633l.517-3.064c-.015-2.188.677-6.702-1.752-6.643-1.313.027-1.76 2.495-.53 3.707-.285.136-.59.248-.907.328.1.57-.315 1.157-.858 1.182-.542-.048-1.34.487-1.845 1.715-.808 1.695-1.543.22-1.838-.235-.38-.5.086-.965-.952-.663-.684.21-1.553.35-1.76-.68l-2.59-2.545c-.35-.414-.058-.755-.056-.9 0-.016-.002-.02-.002-.02v-.02a.14.14 0 0 0-.019-.016c-.36-.22-.774.037-1.225.223-1.178.215-1.638.008-1.766-.612.007-1.024-.572-.917-1.518-.775-2.726.386-3.167-.574-3.962-2.313z" fill="#e0e9ea"/><path d="M5 8.174c.795 1.74 1.236 2.7 3.962 2.313.946-.142 1.525-.25 1.518.775.127.62.587.827 1.766.612.45-.187.865-.445 1.207-.23.022.01.026.012.028.014.013.016.015.02.016.023.005.02.005.025.005.028-.002.146-.293.487.056.9l2.59 2.545c.208 1.03 1.077.9 1.76.68 1.038-.302.573.163.952.663.295.455 1.03 1.93 1.838.235.506-1.228 1.303-1.763 1.845-1.715.543-.025.958-.61.858-1.182-2.415.61-5.515-.54-5.903-5.66z" fill="#4d8ac0"/><path d="M13.167 14.83c-.786.05-.376 2.665-.3 3.902.116 1.218.39.93 1.244.4.393.793.154 1.236-.402 1.75-.414.39-.652.97-.292 1.64.1.182.202.26.33.547l.255.512c.1.376-.013.61-.178.812-.153.218-.182.437.016 1.04.108.35-.19.768.27 1.135.204.158.404.275.608.363-.177-.514-.183-1.255-.096-1.892.06-.6.1-.974.65-1.382.48-.245.347-1.54.388-2.308.005.004.01.008.016.012 1.028-.228.456-1.046.14-1.83l-2.514-4.68c-.05-.014-.095-.02-.138-.02z" fill="#d6dde3"/><path d="M13.314 14.847l2.514 4.68c.315.786.888 1.604-.14 1.82.092.548.773 1.025 1.53.96.787-.05 1.36.535 1.618 1.126.034-.652.114-1.3.274-1.938.102-.316.677-.596.2-1.017-1.938-2.123-3.806-3.792-5.903-5.6a.7.7 0 0 0-.091-.033z" fill="#608ab4"/><path d="M15.67 21.348c-.04.77.092 2.063-.388 2.308-.55.408-.592.782-.65 1.382-.087.637-.082 1.38.096 1.894.182.077.368.13.566.163.333.03.542.112 1.244-.016.615-.07.984-.37 1.686-.475.383-.075.643-.22.622-.803l-.012-2.366c-.26-.59-.83-1.177-1.618-1.126-.748.063-1.423-.402-1.527-.942-.006-.01-.013-.013-.02-.02z" fill="#236798"/><path d="M26.003 20.574l-.22.568c.003 2.1-.287 2.703-1.97 4.328-.015.004-.496 1.126-.905 1.42-.7.507-.647.967-.903 1.522-.185.28-.44.325-.627.275-.116-.09-.233-.134-.348-.272-.007.227.01.433.068.614l.1.216a.83.83 0 0 0 .101.133l-.033-.01c.706 1.124 1.704 1.475 2.984 1.033.69-.3 1.092-.573 1.52-.896.372-.35.815-1 .117-1.054-.1-.026-.155-.052-.182-.08-.007-.008-.01-.013-.012-.016l-.01-.02c.001-.114.193-.257.047-.547-.1-.443.325-.863.63-.975l-.63-1.366c.014-.3.605-.457.5-1.014.17-1.403.402-3.486-.24-3.858z" fill="#608ab4"/><path d="M22.23 15.047c-.506.135-1.117.677-1.532 1.685-.19.397-.375.62-.552.724.018 1.73.43 2.963 1.286 3.64-.254 1-.506 2.382-.047 3.218-.777-.244-.46 1.31-.7 1.964-.388 1.088-.73 1.04-1.094 1.135.333.38.76.78 1.403 1.017.001.01.006.018.01.023.048.072.263.15.367.233.185.05.44.006.627-.275.256-.555.213-1.014.903-1.522.4-.286.87-1.366.905-1.42-1.365-.763-2-2.217-1.79-3.618.063-.386.317-.82-.023-1.443-.408-1.712-.148-3.704.227-5.36z" fill="#236798"/></svg>