<?xml version="1.0" encoding="UTF-8" standalone="no"?>
<!-- Generator: Adobe Illustrator 23.0.3, SVG Export Plug-In . SVG Version: 6.00 Build 0)  -->

<svg
   xmlns:dc="http://purl.org/dc/elements/1.1/"
   xmlns:cc="http://creativecommons.org/ns#"
   xmlns:rdf="http://www.w3.org/1999/02/22-rdf-syntax-ns#"
   xmlns:svg="http://www.w3.org/2000/svg"
   xmlns="http://www.w3.org/2000/svg"
   xmlns:sodipodi="http://sodipodi.sourceforge.net/DTD/sodipodi-0.dtd"
   xmlns:inkscape="http://www.inkscape.org/namespaces/inkscape"
   version="1.1"
   id="Layer_1"
   x="0px"
   y="0px"
   viewBox="0 0 64 63.999998"
   xml:space="preserve"
   sodipodi:docname="nacha-icon.svg"
   inkscape:version="0.92.4 (5da689c313, 2019-01-14)"
   width="64"
   height="64"><metadata
   id="metadata95"><rdf:RDF><cc:Work
       rdf:about=""><dc:format>image/svg+xml</dc:format><dc:type
         rdf:resource="http://purl.org/dc/dcmitype/StillImage" /><dc:title></dc:title></cc:Work></rdf:RDF></metadata><defs
   id="defs93">
	
	

		
		
	
		
	</defs><sodipodi:namedview
   pagecolor="#ffffff"
   bordercolor="#666666"
   borderopacity="1"
   objecttolerance="10"
   gridtolerance="10"
   guidetolerance="10"
   inkscape:pageopacity="0"
   inkscape:pageshadow="2"
   inkscape:window-width="1920"
   inkscape:window-height="1001"
   id="namedview91"
   showgrid="false"
   inkscape:zoom="5.1049477"
   inkscape:cx="60.199089"
   inkscape:cy="33.766999"
   inkscape:window-x="-9"
   inkscape:window-y="-9"
   inkscape:window-maximized="1"
   inkscape:current-layer="Layer_1" />
<style
   type="text/css"
   id="style2">
	.st0{fill:#00B156;}
	.st1{fill:#0099D8;}
	.st2{fill:#FFFFFF;}
</style>


<g
   id="g968"
   transform="matrix(2.3996844,0,0,2.3996844,-33.28,-39.990532)"><g
     transform="matrix(0.17534631,0,0,0.17534631,14,16.664913)"
     id="g18">
	<path
   style="fill:#00b156"
   inkscape:connector-curvature="0"
   id="path4"
   d="m 115.3,59.4 c -9.2,0 -16.7,7.5 -16.7,16.7 0,9.2 7.5,16.7 16.7,16.7 9.2,0 16.7,-7.6 16.7,-16.8 0,-9.1 -7.5,-16.6 -16.7,-16.6 z"
   class="st0" />
	<path
   style="fill:#00b156"
   inkscape:connector-curvature="0"
   id="path6"
   d="m 74.4,35 c -7.5,0 -13.6,6.1 -13.6,13.6 0,7.5 6.1,13.6 13.6,13.6 7.5,0 13.5,-6.2 13.5,-13.6 C 87.9,41.2 81.8,35 74.4,35 Z"
   class="st0" />
	<path
   style="fill:#00b156"
   inkscape:connector-curvature="0"
   id="path8"
   d="m 74.4,90 c -7.5,0 -13.6,6.1 -13.6,13.6 0,7.5 6.1,13.6 13.6,13.6 7.5,0 13.6,-6.1 13.6,-13.6 C 87.9,96.1 81.8,90 74.4,90 Z"
   class="st0" />
	<circle
   style="fill:#00b156"
   id="circle10"
   r="11.1"
   cy="26.299999"
   cx="39.400002"
   class="st0" />
	<path
   style="fill:#00b156"
   inkscape:connector-curvature="0"
   id="path12"
   d="M 9.1,0 C 4.1,0 0,4.1 0,9.1 c 0,5 4.1,9.1 9.1,9.1 5,0 9.1,-4.1 9.1,-9.1 C 18.2,4.1 14.1,0 9.1,0 Z"
   class="st0" />
	<circle
   style="fill:#00b156"
   id="circle14"
   r="11.1"
   cy="125.8"
   cx="39.400002"
   class="st0" />
	<path
   style="fill:#00b156"
   inkscape:connector-curvature="0"
   id="path16"
   d="m 9.1,133.9 c -5,0 -9.1,4.1 -9.1,9.1 0,5 4.1,9.1 9.1,9.1 5,0 9.1,-4.1 9.1,-9.1 0,-5 -4.1,-9.1 -9.1,-9.1 z"
   class="st0" />
</g><g
     transform="matrix(0.17534631,0,0,0.17534631,14,16.664913)"
     id="g30">
	<path
   style="fill:#0099d8"
   inkscape:connector-curvature="0"
   id="path20"
   d="m 35.2,59.4 c -9.2,0 -16.7,7.5 -16.7,16.7 0,9.2 7.5,16.7 16.7,16.7 9.2,0 16.7,-7.6 16.7,-16.8 0,-9.1 -7.5,-16.6 -16.7,-16.6 z"
   class="st1" />
	<circle
   style="fill:#0099d8"
   id="circle22"
   r="11.1"
   cy="26.299999"
   cx="111.2"
   class="st1" />
	<path
   style="fill:#0099d8"
   inkscape:connector-curvature="0"
   id="path24"
   d="m 141.5,18.2 c 5,0 9.1,-4.1 9.1,-9.1 0,-5 -4.1,-9.1 -9.1,-9.1 -5,0 -9.1,4.1 -9.1,9.1 0,5 4.1,9.1 9.1,9.1 z"
   class="st1" />
	<circle
   style="fill:#0099d8"
   id="circle26"
   r="11.1"
   cy="125.8"
   cx="111.2"
   class="st1" />
	<path
   style="fill:#0099d8"
   inkscape:connector-curvature="0"
   id="path28"
   d="m 141.5,133.9 c -5,0 -9.1,4.1 -9.1,9.1 0,5 4.1,9.1 9.1,9.1 5,0 9.1,-4.1 9.1,-9.1 0,-5 -4.1,-9.1 -9.1,-9.1 z"
   class="st1" />
</g></g>
</svg>