<?xml version="1.0" encoding="UTF-8" standalone="no"?>
<svg xmlns:dc="http://purl.org/dc/elements/1.1/" xmlns:cc="http://creativecommons.org/ns#" xmlns:rdf="http://www.w3.org/1999/02/22-rdf-syntax-ns#" xmlns:svg="http://www.w3.org/2000/svg" xmlns="http://www.w3.org/2000/svg" xmlns:sodipodi="http://sodipodi.sourceforge.net/DTD/sodipodi-0.dtd" xmlns:inkscape="http://www.inkscape.org/namespaces/inkscape" version="1.1" x="0px" y="0px" width="64" height="64" viewBox="0 0 32 31.999999" enable-background="new 0 0 599.998 583.111" xml:space="preserve" id="svg53" sodipodi:docname="archive-icon.svg" inkscape:version="0.92.2 (5c3e80d, 2017-08-06)">
  <metadata id="metadata59">
    <rdf:RDF>
      <cc:Work rdf:about="">
        <dc:format>image/svg+xml</dc:format>
        <dc:type rdf:resource="http://purl.org/dc/dcmitype/StillImage"/>
        <dc:title/>
      </cc:Work>
    </rdf:RDF>
  </metadata>
  <defs id="defs57"/>
  <sodipodi:namedview pagecolor="#ffffff" bordercolor="#666666" borderopacity="1" objecttolerance="10" gridtolerance="10" guidetolerance="10" inkscape:pageopacity="0" inkscape:pageshadow="2" inkscape:window-width="1920" inkscape:window-height="1001" id="namedview55" showgrid="false" inkscape:zoom="6.4756107" inkscape:cx="39.416478" inkscape:cy="48.581407" inkscape:window-x="-9" inkscape:window-y="-9" inkscape:window-maximized="1" inkscape:current-layer="svg53"/>
  <g id="g965" transform="matrix(0.38127248,0,0,0.38127248,-51.218232,-189.23945)">
    <g transform="matrix(0.17529864,0,0,0.17529864,114.79926,478.54614)" id="g954">
      <rect id="rect18" height="21.705" width="423.263" y="558.56097" x="139.201"/>
      <rect id="rect20" height="30.055" width="390.70401" y="516.81799" x="155.897"/>
      <rect id="rect22" height="41.742001" width="388.617" y="174.535" x="153.39301"/>
      <polygon id="polygon24" points="155.897,162.012 347.701,162.012 539.506,162.012 551.193,149.072 347.701,101.486 144.21,149.072 "/>
      <path inkscape:connector-curvature="0" id="path44" d="m 209.446,348.42 c -0.335,-20.5 -0.866,-41.001 -1.669,-61.487 -0.756,-19.302 -2,-38.585 -2.939,-57.881 -0.081,-1.666 -0.787,-2.026 -2.169,-2.328 -5.693,-1.241 -11.416,-1.824 -17.163,-1.833 -5.747,0.009 -11.47,0.592 -17.163,1.833 -1.382,0.301 -2.088,0.662 -2.169,2.328 -0.939,19.296 -2.183,38.579 -2.939,57.881 -0.803,20.486 -1.335,40.987 -1.669,61.487 -0.237,14.528 -0.09,29.067 0.14,43.599 0.254,16.121 0.612,32.246 1.265,48.355 0.7,17.288 1.782,34.562 2.731,51.839 0.182,3.311 0.521,6.613 0.78,9.831 6.379,1.66 12.704,2.619 19.025,2.698 6.321,-0.079 12.645,-1.038 19.025,-2.698 0.259,-3.218 0.597,-6.521 0.779,-9.831 0.949,-17.277 2.031,-34.551 2.731,-51.839 0.653,-16.109 1.011,-32.234 1.265,-48.355 0.229,-14.532 0.377,-29.071 0.139,-43.599 z"/>
      <path inkscape:connector-curvature="0" id="path46" d="m 315.257,348.42 c -0.335,-20.5 -0.867,-41.001 -1.67,-61.487 -0.757,-19.302 -2.001,-38.585 -2.939,-57.881 -0.081,-1.666 -0.786,-2.026 -2.169,-2.328 -5.692,-1.241 -11.416,-1.824 -17.162,-1.833 -5.747,0.009 -11.47,0.592 -17.163,1.833 -1.382,0.301 -2.088,0.662 -2.169,2.328 -0.938,19.296 -2.183,38.579 -2.939,57.881 -0.803,20.486 -1.335,40.987 -1.669,61.487 -0.237,14.528 -0.09,29.067 0.139,43.599 0.255,16.121 0.612,32.246 1.265,48.355 0.701,17.288 1.782,34.562 2.731,51.839 0.182,3.311 0.521,6.613 0.779,9.831 6.38,1.66 12.705,2.619 19.025,2.698 6.321,-0.079 12.645,-1.038 19.025,-2.698 0.258,-3.218 0.597,-6.521 0.779,-9.831 0.948,-17.277 2.03,-34.551 2.73,-51.839 0.653,-16.109 1.011,-32.234 1.266,-48.355 0.231,-14.532 0.378,-29.071 0.141,-43.599 z"/>
      <path inkscape:connector-curvature="0" id="path48" d="m 437.972,348.42 c -0.335,-20.5 -0.866,-41.001 -1.67,-61.487 -0.756,-19.302 -2,-38.585 -2.938,-57.881 -0.082,-1.666 -0.787,-2.026 -2.17,-2.328 -5.692,-1.241 -11.415,-1.824 -17.162,-1.833 -5.747,0.009 -11.47,0.592 -17.163,1.833 -1.382,0.301 -2.088,0.662 -2.169,2.328 -0.938,19.296 -2.183,38.579 -2.938,57.881 -0.804,20.486 -1.335,40.987 -1.67,61.487 -0.237,14.528 -0.09,29.067 0.14,43.599 0.255,16.121 0.612,32.246 1.265,48.355 0.701,17.288 1.782,34.562 2.731,51.839 0.183,3.311 0.521,6.613 0.779,9.831 6.38,1.66 12.704,2.619 19.025,2.698 6.321,-0.079 12.645,-1.038 19.025,-2.698 0.258,-3.218 0.597,-6.521 0.779,-9.831 0.949,-17.277 2.03,-34.551 2.731,-51.839 0.652,-16.109 1.01,-32.234 1.265,-48.355 0.23,-14.532 0.377,-29.071 0.14,-43.599 z"/>
      <path inkscape:connector-curvature="0" id="path50" d="m 541.277,348.42 c -0.335,-20.5 -0.866,-41.001 -1.669,-61.487 -0.757,-19.302 -2.001,-38.585 -2.939,-57.881 -0.082,-1.666 -0.787,-2.026 -2.17,-2.328 -5.691,-1.241 -11.415,-1.824 -17.162,-1.833 -5.746,0.009 -11.47,0.592 -17.162,1.833 -1.383,0.301 -2.088,0.662 -2.169,2.328 -0.939,19.296 -2.184,38.579 -2.939,57.881 -0.803,20.486 -1.335,40.987 -1.67,61.487 -0.237,14.528 -0.09,29.067 0.14,43.599 0.255,16.121 0.612,32.246 1.266,48.355 0.7,17.288 1.782,34.562 2.73,51.839 0.183,3.311 0.521,6.613 0.779,9.831 6.381,1.66 12.705,2.619 19.025,2.698 6.321,-0.079 12.646,-1.038 19.025,-2.698 0.259,-3.218 0.597,-6.521 0.779,-9.831 0.949,-17.277 2.031,-34.551 2.731,-51.839 0.653,-16.109 1.01,-32.234 1.265,-48.355 0.23,-14.532 0.378,-29.071 0.14,-43.599 z"/>
    </g>
  </g>
</svg>
