<?xml version="1.0" encoding="UTF-8" standalone="no"?>
<svg
   xmlns:dc="http://purl.org/dc/elements/1.1/"
   xmlns:cc="http://creativecommons.org/ns#"
   xmlns:rdf="http://www.w3.org/1999/02/22-rdf-syntax-ns#"
   xmlns:svg="http://www.w3.org/2000/svg"
   xmlns="http://www.w3.org/2000/svg"
   xmlns:sodipodi="http://sodipodi.sourceforge.net/DTD/sodipodi-0.dtd"
   xmlns:inkscape="http://www.inkscape.org/namespaces/inkscape"
   height="60"
   viewBox="0 0 120 60"
   width="120"
   version="1.1"
   id="svg8"
   sodipodi:docname="statusfy-ar21.svg"
   inkscape:version="0.92.3 (2405546, 2018-03-11)">
  <metadata
     id="metadata14">
    <rdf:RDF>
      <cc:Work
         rdf:about="">
        <dc:format>image/svg+xml</dc:format>
        <dc:type
           rdf:resource="http://purl.org/dc/dcmitype/StillImage" />
        <dc:title></dc:title>
      </cc:Work>
    </rdf:RDF>
  </metadata>
  <defs
     id="defs12" />
  <sodipodi:namedview
     pagecolor="#ffffff"
     bordercolor="#666666"
     borderopacity="1"
     objecttolerance="10"
     gridtolerance="10"
     guidetolerance="10"
     inkscape:pageopacity="0"
     inkscape:pageshadow="2"
     inkscape:window-width="1920"
     inkscape:window-height="1001"
     id="namedview10"
     showgrid="false"
     inkscape:zoom="5.6568543"
     inkscape:cx="61.811231"
     inkscape:cy="33.366455"
     inkscape:window-x="-9"
     inkscape:window-y="-9"
     inkscape:window-maximized="1"
     inkscape:current-layer="svg8" />
  <g
     id="g825"
     transform="translate(-1.0830558)">
    <path
       d="M 31.997792,10.538255 15.710764,25.975736 c -0.102637,0.09728 -0.180019,0.220576 -0.222791,0.354877 -0.04277,0.134304 -0.05084,0.279307 -0.02314,0.417333 0.02765,0.138038 0.091,0.2688 0.182286,0.376383 0.09125,0.107545 0.210246,0.191687 0.342489,0.242158 l 8.199173,3.127147 -9.577119,17.974706 c -0.446413,1.048655 0.564774,1.568821 1.351591,0.977155 L 36.351776,28.660941 c 0.09715,-0.09907 0.16914,-0.222333 0.207453,-0.355241 0.03836,-0.132866 0.04302,-0.27521 0.01339,-0.410196 -0.02962,-0.134948 -0.09343,-0.262356 -0.183956,-0.367152 -0.09052,-0.104802 -0.207524,-0.186807 -0.33732,-0.236393 l -7.832408,-2.990362 5.14691,-12.847152 c 0.05464,-0.136617 0.07234,-0.28756 0.05076,-0.432878 -0.02166,-0.145294 -0.08241,-0.284627 -0.174424,-0.399499 -0.09203,-0.114867 -0.215028,-0.20502 -0.352696,-0.258516 -0.137676,-0.05348 -0.289642,-0.07021 -0.435892,-0.04791 -0.169894,0.0259 -0.331291,0.104736 -0.455777,0.222614 z"
       id="path2"
       inkscape:connector-curvature="0"
       style="fill:#0366d6;fill-rule:evenodd;stroke-width:0.14743005" />
    <path
       d="m 46.982077,34.778073 c -1.655128,0 -3.011151,-0.513953 -4.06811,-1.541875 -0.05808,-0.05808 -0.08711,-0.127764 -0.08711,-0.209068 0,-0.145187 0.0784,-0.288919 0.235202,-0.431202 0.156801,-0.142283 0.313601,-0.213424 0.470402,-0.213424 0.0755,0 0.145186,0.02613 0.209068,0.0784 0.3891,0.331025 0.872564,0.612683 1.450407,0.844982 0.577843,0.232298 1.2123,0.348446 1.903388,0.348446 0.882735,0 1.608657,-0.187288 2.177789,-0.56187 0.569132,-0.374581 0.853693,-0.904504 0.853693,-1.589785 0,-0.348448 -0.04355,-0.643173 -0.130667,-0.884183 -0.08711,-0.24101 -0.2352,-0.450075 -0.444269,-0.627203 -0.209069,-0.177128 -0.441364,-0.325216 -0.696892,-0.444269 -0.255529,-0.119053 -0.598164,-0.248267 -1.027917,-0.387647 L 45.56216,28.392794 c -0.894349,-0.296181 -1.573813,-0.676564 -2.03841,-1.141162 -0.464597,-0.464597 -0.696893,-1.103409 -0.696893,-1.916454 0,-0.644629 0.18874,-1.2123 0.566226,-1.703031 0.377485,-0.490731 0.887082,-0.863855 1.528808,-1.119384 0.641725,-0.255528 1.357484,-0.383291 2.1473,-0.383291 0.80143,0 1.5651,0.139378 2.291034,0.418136 0.725933,0.278758 1.271827,0.592357 1.637697,0.940805 0.116149,0.110342 0.174223,0.232297 0.174223,0.365868 0,0.13938 -0.05807,0.264238 -0.174223,0.37458 -0.116149,0.110342 -0.246815,0.165512 -0.392002,0.165512 -0.121957,0 -0.235201,-0.04065 -0.339735,-0.121956 -0.319411,-0.238106 -0.752061,-0.467498 -1.297962,-0.688182 -0.545902,-0.220683 -1.141159,-0.331023 -1.785787,-0.331023 -0.91758,0 -1.646406,0.187288 -2.186501,0.561869 -0.540094,0.374582 -0.810137,0.869661 -0.810137,1.485252 0,0.511057 0.162606,0.91467 0.487825,1.210851 0.325218,0.296181 0.844978,0.560417 1.559297,0.792715 l 2.282322,0.74916 c 0.476213,0.156801 0.878374,0.317956 1.206496,0.483469 0.328121,0.165513 0.634461,0.373126 0.919027,0.622847 0.284565,0.249722 0.497987,0.548802 0.64027,0.89725 0.142282,0.348448 0.213423,0.75206 0.213423,1.21085 0,1.132456 -0.402161,2.000659 -1.206495,2.604636 -0.804334,0.603976 -1.906285,0.905961 -3.305884,0.905961 z m 9.608406,-0.02613 c -1.341525,0 -2.012278,-0.891433 -2.012278,-2.674325 v -5.174427 h -1.149872 c -0.336833,0 -0.505248,-0.139377 -0.505248,-0.418136 0,-0.284565 0.168415,-0.426846 0.505248,-0.426846 h 1.149872 l 0.14809,-2.578502 c 0.0058,-0.127765 0.07695,-0.251171 0.213424,-0.370224 0.136475,-0.119054 0.265688,-0.178579 0.387646,-0.178579 0.139379,0 0.261334,0.04791 0.365868,0.143734 0.104534,0.09582 0.156801,0.227941 0.156801,0.396357 v 2.587214 h 1.672542 c 0.325219,0 0.487824,0.145184 0.487824,0.435558 0,0.272951 -0.162605,0.409424 -0.487824,0.409424 h -1.672542 v 5.069893 c 0,0.667858 0.09582,1.129545 0.287468,1.385074 0.191647,0.255529 0.487823,0.38329 0.888538,0.38329 h 0.0784 l 0.548804,-0.02613 h 0.02613 c 0.168417,0 0.300534,0.05082 0.396358,0.152446 0.09582,0.10163 0.143733,0.219229 0.143733,0.352802 0,0.220683 -0.09292,0.365868 -0.278757,0.435557 -0.185838,0.06969 -0.458786,0.104534 -0.818848,0.104534 -0.05807,0 -0.145185,-0.0015 -0.261335,-0.0044 -0.116149,-0.0029 -0.206164,-0.0044 -0.270045,-0.0044 z m 5.888741,0.01742 c -0.929195,0 -1.675443,-0.216325 -2.238768,-0.648981 -0.563323,-0.432656 -0.844981,-1.052594 -0.844981,-1.859832 0,-0.371678 0.04065,-0.689631 0.121956,-0.953872 0.0813,-0.264239 0.220681,-0.493631 0.418136,-0.688181 0.197453,-0.19455 0.438459,-0.352801 0.723025,-0.474758 0.284566,-0.121957 0.660594,-0.220682 1.128095,-0.296179 0.467501,-0.0755 0.975647,-0.126312 1.524452,-0.152445 0.548806,-0.02613 1.218107,-0.0392 2.007922,-0.0392 V 28.55831 c 0,-0.650437 -0.185836,-1.132449 -0.557514,-1.446052 -0.371678,-0.313603 -0.879824,-0.470403 -1.524453,-0.470403 -0.545902,0 -1.017751,0.05662 -1.415563,0.169868 -0.39781,0.113246 -0.831912,0.283111 -1.302318,0.509603 -0.06969,0.03484 -0.13357,0.05227 -0.191644,0.05227 -0.121958,0 -0.230846,-0.05227 -0.326669,-0.1568 -0.09582,-0.104535 -0.143734,-0.217779 -0.143734,-0.339735 0,-0.133572 0.05517,-0.235201 0.165512,-0.304891 0.865313,-0.540094 1.945485,-0.810137 3.24055,-0.810137 1.045344,0 1.858377,0.239554 2.439123,0.71867 0.580747,0.479116 0.871117,1.212298 0.871117,2.199567 v 5.357361 c 0,0.174224 -0.06679,0.312149 -0.200358,0.41378 -0.133571,0.101631 -0.29037,0.152445 -0.470401,0.152445 -0.16261,0 -0.301987,-0.04646 -0.418136,-0.139379 -0.116149,-0.09292 -0.174223,-0.226489 -0.174223,-0.400713 V 32.90518 c -0.586554,1.242798 -1.530253,1.864188 -2.831126,1.864188 z m 0.1568,-0.862405 c 0.720127,0 1.347324,-0.300531 1.88161,-0.901604 0.534288,-0.601072 0.801427,-1.369098 0.801427,-2.304101 v -0.287468 c -1.312488,0 -2.292483,0.04936 -2.940016,0.14809 -0.647532,0.09873 -1.103411,0.271496 -1.367651,0.518314 -0.264239,0.246817 -0.396358,0.622844 -0.396358,1.128094 0,1.132456 0.673656,1.698675 2.020988,1.698675 z m 9.225115,0.844983 c -1.341525,0 -2.012277,-0.891433 -2.012277,-2.674325 v -5.174427 h -1.149873 c -0.336833,0 -0.505247,-0.139377 -0.505247,-0.418136 0,-0.284565 0.168414,-0.426846 0.505247,-0.426846 h 1.149873 l 0.148089,-2.578502 c 0.0058,-0.127765 0.07695,-0.251171 0.213424,-0.370224 0.136476,-0.119054 0.26569,-0.178579 0.387647,-0.178579 0.139378,0 0.261334,0.04791 0.365868,0.143734 0.104535,0.09582 0.156801,0.227941 0.156801,0.396357 v 2.587214 h 1.672542 c 0.325218,0 0.487825,0.145184 0.487825,0.435558 0,0.272951 -0.162607,0.409424 -0.487825,0.409424 h -1.672542 v 5.069893 c 0,0.667858 0.09582,1.129545 0.287468,1.385074 0.191646,0.255529 0.487822,0.38329 0.888538,0.38329 h 0.0784 l 0.548803,-0.02613 h 0.02613 c 0.168417,0 0.300535,0.05082 0.396358,0.152446 0.09582,0.10163 0.143734,0.219229 0.143734,0.352802 0,0.220683 -0.09292,0.365868 -0.278757,0.435557 -0.185838,0.06969 -0.458785,0.104534 -0.818849,0.104534 -0.05807,0 -0.145185,-0.0015 -0.261334,-0.0044 -0.116149,-0.0029 -0.206164,-0.0044 -0.270046,-0.0044 z m 6.672746,0.01742 c -0.987269,0 -1.758199,-0.278754 -2.312813,-0.836271 -0.554612,-0.557517 -0.831915,-1.411202 -0.831915,-2.56108 v -4.808558 c 0,-0.191647 0.06243,-0.338283 0.18729,-0.439913 0.124861,-0.101631 0.274401,-0.152446 0.448625,-0.152446 0.174224,0 0.325216,0.05082 0.45298,0.152446 0.127764,0.10163 0.191645,0.248266 0.191645,0.439913 v 4.825981 c 0,1.666743 0.705597,2.500101 2.116811,2.500101 0.720127,0 1.316834,-0.230843 1.790143,-0.692536 0.473309,-0.461694 0.7419,-1.116476 0.805782,-1.964367 v -4.669179 c 0,-0.180032 0.06678,-0.323764 0.200357,-0.431202 0.133571,-0.107438 0.284563,-0.161157 0.45298,-0.161157 0.174224,0 0.322312,0.05082 0.444269,0.152446 0.121957,0.10163 0.182934,0.248266 0.182934,0.439913 v 7.421905 c 0,0.191647 -0.06388,0.339735 -0.191646,0.444269 -0.127763,0.104535 -0.278756,0.156801 -0.45298,0.156801 -0.168416,0 -0.316504,-0.05082 -0.444269,-0.152445 -0.127764,-0.101631 -0.191645,-0.245364 -0.191645,-0.431203 v -1.019205 c -0.197454,0.569132 -0.554608,1.009041 -1.071473,1.31974 -0.516863,0.3107 -1.109216,0.466047 -1.777075,0.466047 z m 9.991696,-8.998624 c 0.551709,0 1.083085,0.07114 1.594142,0.213423 0.511057,0.142283 0.911766,0.291823 1.202139,0.448625 0.180031,0.104534 0.270046,0.246815 0.270046,0.426846 0,0.110342 -0.03775,0.206164 -0.113245,0.287468 -0.0755,0.08131 -0.177126,0.121957 -0.30489,0.121957 -0.05808,0 -0.136474,-0.01452 -0.235202,-0.04356 -0.03484,-0.01161 -0.130667,-0.04936 -0.287468,-0.113245 -0.156802,-0.06388 -0.296178,-0.116149 -0.418136,-0.156801 -0.121956,-0.04065 -0.2744,-0.08711 -0.457335,-0.139379 -0.182935,-0.05227 -0.373127,-0.09147 -0.57058,-0.1176 -0.197455,-0.02613 -0.397809,-0.0392 -0.601071,-0.0392 -1.515748,0 -2.273612,0.467494 -2.273612,1.402496 0,0.383293 0.101629,0.650432 0.304891,0.801426 0.203262,0.150994 0.65914,0.310697 1.367651,0.479114 l 1.594143,0.392002 c 0.847889,0.209069 1.444598,0.513956 1.790142,0.914671 0.345544,0.400716 0.518313,0.891439 0.518313,1.472186 0,0.876927 -0.310694,1.536065 -0.932093,1.977432 -0.621399,0.441367 -1.434432,0.664952 -2.439124,0.670759 -0.592361,0 -1.184714,-0.09437 -1.777076,-0.283113 -0.592361,-0.188742 -1.051144,-0.402164 -1.376362,-0.640269 -0.156802,-0.11615 -0.235202,-0.252623 -0.235202,-0.409424 0,-0.11615 0.0421,-0.216327 0.126312,-0.300536 0.08421,-0.08421 0.190193,-0.126311 0.317957,-0.126311 0.11615,0 0.238105,0.03775 0.365869,0.113245 0.813045,0.505249 1.692864,0.75787 2.639481,0.75787 0.691088,-0.0058 1.234078,-0.148088 1.628986,-0.426846 0.394907,-0.278759 0.592358,-0.679468 0.592358,-1.20214 0,-0.406523 -0.114695,-0.724477 -0.34409,-0.953871 -0.229396,-0.229395 -0.622845,-0.410876 -1.180362,-0.544448 l -1.637698,-0.392002 c -0.348448,-0.08711 -0.633009,-0.16406 -0.853693,-0.230846 -0.220684,-0.06679 -0.448623,-0.159704 -0.683826,-0.278757 -0.235202,-0.119049 -0.416682,-0.251167 -0.544447,-0.396353 -0.127764,-0.145187 -0.233749,-0.331023 -0.317957,-0.557514 -0.08421,-0.226491 -0.126312,-0.490727 -0.126312,-0.792715 0,-0.423945 0.09582,-0.791262 0.287469,-1.101962 0.191645,-0.310699 0.452978,-0.553157 0.784003,-0.727381 0.331026,-0.174224 0.689632,-0.301987 1.075829,-0.383291 0.386195,-0.08131 0.802875,-0.121956 1.25005,-0.121956 z m 7.099592,8.81569 c -0.168416,0 -0.315052,-0.05517 -0.439913,-0.165512 -0.124861,-0.110342 -0.18729,-0.267141 -0.18729,-0.470403 v -7.047325 h -1.271829 c -0.31941,0 -0.479113,-0.139377 -0.479113,-0.418136 0,-0.284565 0.159703,-0.426846 0.479113,-0.426846 H 94.99797 V 24.89091 c 0,-0.441368 0.0392,-0.82901 0.117601,-1.162939 0.0784,-0.33393 0.184385,-0.603973 0.317957,-0.810138 0.133572,-0.206165 0.300534,-0.373127 0.500892,-0.500891 0.200357,-0.127765 0.407971,-0.216327 0.622847,-0.265691 0.214877,-0.04936 0.458786,-0.07405 0.731738,-0.07405 h 1.036627 c 0.139379,0 0.248268,0.04791 0.326668,0.143735 0.0784,0.09582 0.117601,0.207615 0.117601,0.335379 0,0.127764 -0.04065,0.238105 -0.121956,0.331024 -0.08131,0.09292 -0.194549,0.139378 -0.339735,0.139378 h -0.740448 c -0.360063,0 -0.625751,0.05662 -0.797071,0.169868 -0.17132,0.113246 -0.297632,0.341185 -0.378936,0.683826 -0.0813,0.34264 -0.121956,0.871112 -0.121956,1.58543 V 26.0582 h 1.628986 c 0.296181,0 0.444269,0.142281 0.444269,0.426846 0,0.13938 -0.03194,0.243913 -0.09582,0.313602 -0.06388,0.06969 -0.18003,0.104534 -0.348446,0.104534 h -1.628986 v 7.047325 c 0,0.197455 -0.06388,0.352802 -0.191645,0.466047 -0.127764,0.113246 -0.278756,0.169868 -0.452981,0.169868 z m 7.125727,2.865971 c -0.13938,0.313603 -0.36006,0.470401 -0.66205,0.470401 -0.1568,0 -0.29182,-0.04936 -0.40507,-0.148089 -0.11324,-0.09873 -0.16986,-0.223585 -0.16986,-0.37458 0,-0.0813 0.0232,-0.177126 0.0697,-0.287468 l 1.41992,-3.118594 -3.318948,-7.134437 c -0.04065,-0.08711 -0.06098,-0.182933 -0.06098,-0.287468 0,-0.174224 0.06388,-0.32086 0.191646,-0.439913 0.127764,-0.119053 0.275852,-0.178579 0.444272,-0.178579 0.24972,0 0.43265,0.127762 0.5488,0.383291 l 2.84855,6.211055 2.8137,-6.167499 c 0.12777,-0.267144 0.3136,-0.400714 0.55752,-0.400714 0.16261,0 0.30924,0.05953 0.43991,0.178579 0.13067,0.119053 0.196,0.262786 0.196,0.431202 0,0.06969 -0.0116,0.136475 -0.0348,0.200357 z"
       id="path4"
       inkscape:connector-curvature="0"
       style="fill:#1b1f23;fill-rule:evenodd;stroke-width:0.08920224" />
  </g>
</svg>
