<?xml version="1.0" encoding="UTF-8" standalone="no"?>
<svg
   xmlns:dc="http://purl.org/dc/elements/1.1/"
   xmlns:cc="http://creativecommons.org/ns#"
   xmlns:rdf="http://www.w3.org/1999/02/22-rdf-syntax-ns#"
   xmlns:svg="http://www.w3.org/2000/svg"
   xmlns="http://www.w3.org/2000/svg"
   xmlns:sodipodi="http://sodipodi.sourceforge.net/DTD/sodipodi-0.dtd"
   xmlns:inkscape="http://www.inkscape.org/namespaces/inkscape"
   width="64"
   height="64"
   viewBox="0 0 64 64"
   version="1.1"
   id="svg135"
   sodipodi:docname="alfresco-icon.svg"
   inkscape:version="0.92.3 (2405546, 2018-03-11)">
  <metadata
     id="metadata141">
    <rdf:RDF>
      <cc:Work
         rdf:about="">
        <dc:format>image/svg+xml</dc:format>
        <dc:type
           rdf:resource="http://purl.org/dc/dcmitype/StillImage" />
        <dc:title></dc:title>
      </cc:Work>
    </rdf:RDF>
  </metadata>
  <defs
     id="defs139" />
  <sodipodi:namedview
     pagecolor="#ffffff"
     bordercolor="#666666"
     borderopacity="1"
     objecttolerance="10"
     gridtolerance="10"
     guidetolerance="10"
     inkscape:pageopacity="0"
     inkscape:pageshadow="2"
     inkscape:window-width="1920"
     inkscape:window-height="1001"
     id="namedview137"
     showgrid="false"
     inkscape:zoom="3.8353472"
     inkscape:cx="18.03348"
     inkscape:cy="42.737238"
     inkscape:window-x="-9"
     inkscape:window-y="-9"
     inkscape:window-maximized="1"
     inkscape:current-layer="svg135" />
  <g
     id="g864"
     transform="matrix(1.7498091,0,0,1.7498091,-13.123576,-27.493506)">
    <path
       id="path8-5"
       d="m 33.783568,19.02428 a 7.0481714,7.0481714 0 0 0 -0.861365,0.0527 c 1.52117,3.000796 1.027707,6.760825 -1.480491,9.269023 l -4.638016,4.638003 h 6.979872 c 3.854908,0 6.979871,-3.12495 6.979871,-6.979858 0,-3.85491 -3.124963,-6.979872 -6.979871,-6.979872 z"
       style="fill:#f99f38;stroke-width:0.0126998"
       inkscape:connector-curvature="0" />
    <path
       id="path10-9"
       d="m 17.791869,48.975722 c 0.291676,0 0.579085,-0.01796 0.861364,-0.0527 -1.521182,-3.000798 -1.027706,-6.760826 1.480491,-9.269023 l 4.638017,-4.63803 h -6.97986 c -3.854908,0 -6.979871,3.124963 -6.979871,6.979872 0,3.854909 3.124963,6.979872 6.979871,6.979872 z"
       style="fill:#8bc037;stroke-width:0.0126998"
       inkscape:connector-curvature="0" />
    <path
       id="path12-7"
       d="m 10.811997,26.004152 c 0,0.291675 0.01796,0.579085 0.0527,0.861363 3.000797,-1.521181 6.760826,-1.027706 9.269023,1.480492 l 4.638017,4.638016 v -6.979871 c 0,-3.85491 -3.12495,-6.979872 -6.97986,-6.979872 -3.854921,0 -6.979871,3.124962 -6.979871,6.979872 z"
       style="fill:#0081c6;stroke-width:0.0126998"
       inkscape:connector-curvature="0" />
    <path
       id="path14-1"
       d="m 40.763439,41.99585 c 0,-0.291676 -0.01796,-0.579085 -0.0527,-0.861364 -3.000798,1.521182 -6.760826,1.027706 -9.269036,-1.480491 l -4.637991,-4.638004 v 6.979859 c 0,3.854908 3.124962,6.979872 6.979871,6.979872 3.854909,0 6.979872,-3.124964 6.979872,-6.979872 z"
       style="fill:#8bc037;stroke-width:0.0126998"
       inkscape:connector-curvature="0" />
    <path
       id="path16-8"
       d="m 20.852203,17.756662 a 7.0481587,7.0481587 0 0 0 -0.571809,0.646343 c 3.197517,1.04626 5.50733,4.053928 5.50733,7.601057 v 6.559128 l 4.935522,-4.935522 c 2.725822,-2.725821 2.725822,-7.145172 -1.2e-5,-9.871006 -2.725834,-2.725821 -7.145185,-2.725834 -9.871006,0 z"
       style="fill:#0081c6;stroke-width:0.0126998"
       inkscape:connector-curvature="0" />
    <path
       id="path18-0"
       d="m 30.723221,50.243339 a 7.04793,7.04793 0 0 0 0.571809,-0.646356 c -3.197504,-1.046247 -5.507306,-4.053902 -5.507306,-7.601044 v -6.559128 l -4.935509,4.935522 c -2.725821,2.725821 -2.725821,7.145173 0,9.871006 2.725834,2.725821 7.145198,2.725821 9.871019,0 z"
       style="fill:#8bc037;stroke-width:0.0126998"
       inkscape:connector-curvature="0" />
    <path
       id="path20-40"
       d="m 9.5443792,38.935504 a 7.0482602,7.0482602 0 0 0 0.6463438,0.571821 c 1.046247,-3.197517 4.053927,-5.507331 7.601057,-5.507318 h 6.559115 l -4.935497,-4.935522 c -2.725833,-2.725821 -7.145185,-2.725821 -9.8710188,0 -2.7258333,2.725833 -2.7258333,7.145197 0,9.871019 z"
       style="fill:#0081c6;stroke-width:0.0126998"
       inkscape:connector-curvature="0" />
    <path
       id="path22-7"
       d="m 42.031057,29.064498 a 7.0477649,7.0477649 0 0 0 -0.646356,-0.571821 c -1.046247,3.197516 -4.053928,5.507317 -7.601044,5.50733 h -6.559128 l 4.935509,4.935497 c 2.725834,2.725833 7.145185,2.725833 9.871019,0 2.725821,-2.725822 2.725821,-7.145186 0,-9.871006 z"
       style="fill:#8bc037;stroke-width:0.0126998"
       inkscape:connector-curvature="0" />
    <path
       id="path24-9"
       d="m 31.882345,19.286657 c -2.930809,0.827862 -5.078649,3.521781 -5.078649,6.717558 v 5.543144 l 3.919474,-3.919793 c 2.259675,-2.259674 2.646003,-5.683171 1.159175,-8.340909 z m -20.808097,8.618717 c 0.827849,2.930809 3.52178,5.078649 6.717558,5.078649 h 5.543131 L 19.415144,29.064548 C 17.15547,26.804874 13.731985,26.418546 11.074235,27.905374 Z"
       style="fill:#0965ad;stroke-width:0.0126998"
       inkscape:connector-curvature="0" />
    <path
       id="path28-2"
       d="m 37.095624,27.020198 c -1.786315,0 -3.572568,0.681446 -4.935471,2.04435 l -3.919793,3.919475 h 5.543157 c 3.195777,0 5.889696,-2.14784 6.717558,-5.078649 -1.054744,-0.590057 -2.230085,-0.885176 -3.405451,-0.885176 z"
       style="fill:#ffdf4f;stroke-width:0.0126998"
       inkscape:connector-curvature="0" />
    <path
       id="path30-8"
       d="m 18.807789,22.692108 c 0,1.786302 0.681446,3.572554 2.04435,4.935458 l 3.919475,3.919793 v -5.543144 c 0,-3.195777 -2.147841,-5.889696 -5.078649,-6.717558 -0.590058,1.054744 -0.885176,2.230084 -0.885176,3.405451 z"
       style="fill:#0965ad;stroke-width:0.0126998"
       inkscape:connector-curvature="0" />
    <path
       id="path32-3"
       d="m 32.767533,45.30802 c 0,-1.786302 -0.681459,-3.572554 -2.044363,-4.935458 l -3.919461,-3.919793 v 5.543144 c 0,3.195777 2.14784,5.889696 5.078648,6.717558 0.590058,-1.054731 0.885176,-2.230085 0.885176,-3.405451 z M 14.479699,40.979929 c 1.786302,0 3.572554,-0.681446 4.935458,-2.044349 l 3.919793,-3.919475 h -5.543144 c -3.195778,0 -5.889696,2.147853 -6.717558,5.078649 1.054743,0.590057 2.230084,0.885175 3.405451,0.885175 z"
       style="fill:#48a64a;stroke-width:0.0126998"
       inkscape:connector-curvature="0" />
  </g>
</svg>
