<svg xmlns="http://www.w3.org/2000/svg" xmlns:xlink="http://www.w3.org/1999/xlink" width="120" height="60"><pattern x="-.035" y="460.721" width="69" height="69" patternUnits="userSpaceOnUse" viewBox="2.125 -70.896 69 69" overflow="visible"><path fill="#f7bc60" d="M71.125-1.896h-69v-69h69z"/><g fill="#fff"><path d="M61.772-71.653c.018.072.007.127-.026.2-.053.1-.112.063-.165.128a.64.64 0 0 0-.079.362c-.17.058-.01.227-.015.35-.002.05-.04.105-.045.16a.76.76 0 0 0 .068.37c.097.198.268.413.435.544.2.148.365.572.608.63.177.042.384-.104.543-.143.18-.043.397.01.57-.053.222-.08.127-.337.288-.45.104-.074.287-.01.406-.05.2-.07.34-.263.376-.46.016-.082.01-.145.04-.22.038-.103.1-.16.1-.293-.01-.062-.052-.12-.065-.187-.022-.114.002-.224.001-.337-.003-.2.017-.38-.078-.55-.38-.688-1.236-.93-1.975-.8-.18.034-.287.126-.442.207-.17.088-.14.166-.318.224-.08.026-.216.124-.215.224.002.115.005.05.012.17-.02.01-.022-.005-.03-.025m-7.66-.01c.018.072.007.127-.026.2-.053.1-.112.063-.165.128a.64.64 0 0 0-.079.362c-.17.058-.01.227-.015.35-.002.05-.04.105-.045.16a.76.76 0 0 0 .068.37c.097.198.268.413.435.544.2.148.365.572.608.63.177.042.384-.104.543-.143.18-.043.397.01.57-.053.222-.08.127-.337.288-.45.104-.074.287-.01.406-.05.2-.07.34-.263.376-.46.016-.082.01-.145.04-.22.038-.103.1-.16.1-.293-.01-.062-.052-.12-.064-.187-.022-.114.002-.224 0-.337-.003-.2.017-.38-.078-.55-.38-.688-1.236-.93-1.975-.8-.18.034-.287.126-.442.207-.17.088-.14.166-.318.224-.08.026-.216.124-.215.224.002.115.005.05.012.17-.02.01-.02-.005-.03-.025"/><use xlink:href="#B"/><use xlink:href="#B" x="-7.668"/><path d="M31.105-71.653a.25.25 0 0 1-.026.19c-.053.1-.112.063-.165.128a.64.64 0 0 0-.079.362c-.17.058-.01.227-.015.35-.002.05-.04.105-.045.16a.76.76 0 0 0 .068.37c.097.198.268.413.435.544.2.148.365.572.608.63.177.042.384-.104.543-.143.18-.043.397.01.57-.053.222-.08.127-.337.288-.45.104-.074.287-.01.406-.05.2-.07.34-.263.376-.46.016-.082.01-.145.04-.22.038-.103.1-.16.1-.293-.01-.062-.052-.12-.064-.187-.022-.114.002-.224 0-.337-.003-.2.017-.38-.078-.55-.38-.688-1.236-.93-1.975-.8-.18.034-.287.126-.442.207-.17.088-.14.166-.318.224-.08.026-.216.124-.215.224.001.115.005.05.012.17-.02.01-.02-.005-.03-.025m-7.66-.001a.25.25 0 0 1-.026.19c-.053.1-.112.063-.165.128a.64.64 0 0 0-.079.362c-.17.058-.01.227-.015.35-.002.05-.04.105-.045.16a.76.76 0 0 0 .068.37c.097.198.268.413.435.544.2.148.365.572.608.63.177.042.384-.104.543-.143.18-.043.397.01.57-.053.222-.08.127-.337.288-.45.104-.074.287-.01.406-.05.2-.07.34-.263.376-.46.016-.082.01-.145.04-.22.038-.103.1-.16.1-.293-.01-.062-.052-.12-.065-.187-.022-.114.002-.224 0-.337-.003-.2.017-.38-.078-.55-.38-.688-1.236-.93-1.975-.8-.18.034-.287.126-.442.207-.17.088-.14.166-.318.224-.08.026-.216.124-.215.224.001.115.005.05.012.17-.02.01-.02-.005-.03-.025"/><use xlink:href="#C"/><path d="M8.105-71.653c.018.072.007.127-.026.2-.053.1-.112.063-.165.128a.64.64 0 0 0-.079.362c-.17.058-.01.227-.015.35-.002.05-.04.105-.045.16a.76.76 0 0 0 .068.37c.097.198.268.413.435.544.2.148.365.572.608.63.177.042.384-.104.543-.143.18-.043.397.01.57-.053.222-.08.127-.337.288-.45.105-.074.287-.01.406-.05.2-.07.34-.263.376-.46.016-.082.01-.145.04-.22.038-.103.1-.16.1-.293-.01-.062-.052-.12-.064-.187-.022-.114.002-.224 0-.337-.003-.2.017-.38-.078-.55-.38-.688-1.236-.93-1.975-.8-.18.034-.287.126-.442.207-.17.088-.14.166-.318.224-.08.026-.216.124-.215.224.001.115.005.05.012.17-.02.01-.02-.005-.03-.025m-7.66-.01c.018.072.008.127-.026.2-.052.1-.113.063-.165.128a.63.63 0 0 0-.079.362c-.17.058-.01.227-.015.35-.002.05-.04.105-.045.16a.76.76 0 0 0 .068.37c.097.198.268.413.435.544.2.148.365.572.608.63.177.042.384-.104.543-.143.18-.043.397.01.57-.053.222-.08.127-.337.288-.45.104-.074.287-.01.406-.05.2-.07.34-.263.376-.46.016-.082.01-.145.04-.22.038-.103.1-.16.1-.293-.01-.062-.05-.12-.064-.187-.02-.114.002-.224 0-.337-.003-.2.017-.38-.078-.55-.38-.688-1.236-.93-1.975-.8-.18.034-.287.126-.442.207-.17.088-.14.166-.318.224-.08.026-.215.124-.215.224.002.115.005.05.012.17-.02.01-.02-.005-.03-.025"/><use xlink:href="#D"/><path d="M.495-71.653c.018.072.008.127-.026.2-.052.1-.113.063-.165.128a.63.63 0 0 0-.079.362c-.17.058-.01.227-.015.35-.002.05-.04.105-.045.16a.76.76 0 0 0 .068.37c.097.198.268.413.435.544.2.148.365.572.608.63.177.042.384-.104.543-.143.18-.043.397.01.57-.053.222-.08.127-.337.288-.45.104-.074.287-.01.406-.05.2-.07.34-.263.376-.46.016-.082.01-.145.04-.22.038-.103.1-.16.1-.293-.01-.062-.05-.12-.064-.187-.02-.114.002-.224 0-.337-.003-.2.017-.38-.078-.55-.38-.688-1.236-.93-1.975-.8-.18.034-.287.126-.442.207-.17.088-.14.166-.318.224-.08.026-.215.124-.215.224.003.116.006.052.013.17-.02.01-.02-.005-.03-.025M69.44-64a.25.25 0 0 1-.026.19c-.053.1-.112.063-.165.128a.64.64 0 0 0-.079.362c-.17.058-.01.227-.015.35-.002.05-.04.105-.045.16a.76.76 0 0 0 .068.37c.097.198.268.413.435.544.2.148.365.572.608.63.177.042.384-.104.543-.143.18-.043.397.01.57-.053.222-.08.127-.337.288-.45.104-.074.287-.01.406-.05.2-.07.34-.263.376-.46.016-.082.01-.145.04-.22.04-.102.1-.16.1-.293-.01-.062-.052-.12-.064-.187-.022-.114.002-.224.001-.337-.003-.2.017-.38-.078-.55-.38-.688-1.236-.93-1.975-.8-.18.034-.287.126-.442.207-.17.088-.14.166-.318.224-.08.026-.216.124-.215.224.001.115.005.05.012.17-.02.01-.02-.005-.03-.025m-7.657.01c.018.072.007.127-.026.2-.053.1-.112.063-.165.128a.64.64 0 0 0-.079.362c-.17.058-.01.227-.015.35-.002.05-.04.105-.045.16a.76.76 0 0 0 .068.37c.097.198.268.413.435.544.2.148.365.572.608.63.177.042.384-.104.543-.143.18-.043.397.01.57-.053.222-.08.127-.337.288-.45.104-.074.287-.01.406-.05.2-.07.34-.263.376-.46.016-.082.01-.145.04-.22.04-.102.1-.16.1-.293-.01-.062-.052-.12-.064-.187-.022-.114.002-.224 0-.337-.003-.2.017-.38-.078-.55-.38-.688-1.236-.93-1.975-.8-.18.034-.287.126-.442.207-.17.088-.14.166-.318.224-.08.026-.216.124-.215.224.001.115.005.05.012.17-.02.01-.02-.005-.03-.025"/><use xlink:href="#E"/><use xlink:href="#F"/><path d="M38.797-64a.25.25 0 0 1-.026.19c-.053.1-.112.063-.165.128a.64.64 0 0 0-.079.362c-.17.058-.01.227-.015.35-.002.05-.04.105-.045.16-.01.12.017.266.068.37.097.198.268.413.435.544.2.148.365.572.608.63.177.042.384-.104.543-.143.18-.043.397.01.57-.053.222-.08.127-.337.288-.45.104-.074.287-.01.406-.05.2-.07.34-.263.376-.46.016-.082.01-.145.04-.22.04-.102.11-.16.1-.293-.01-.062-.052-.12-.065-.187-.022-.114.002-.224 0-.337-.003-.2.017-.38-.078-.55-.38-.688-1.236-.93-1.975-.79-.18.034-.287.126-.442.207-.17.088-.14.166-.318.224-.08.026-.216.124-.215.224.001.115.005.05.012.17-.02.01-.02-.005-.03-.025"/><use xlink:href="#F" x="-15.321"/><path d="M23.477-64a.25.25 0 0 1-.026.19c-.053.1-.112.063-.165.128a.64.64 0 0 0-.079.362c-.17.058-.01.227-.015.35-.002.05-.04.105-.045.16a.76.76 0 0 0 .068.37c.097.198.268.413.435.544.2.148.365.572.608.63.177.042.384-.104.543-.143.18-.043.397.01.57-.053.222-.08.127-.337.288-.45.104-.074.287-.01.406-.05.2-.07.34-.263.376-.46.016-.082.01-.145.04-.22.038-.102.1-.16.1-.293-.01-.062-.052-.12-.065-.187-.022-.114.002-.224 0-.337-.003-.2.017-.38-.078-.55-.38-.688-1.236-.93-1.975-.8-.18.034-.287.126-.442.207-.17.088-.14.166-.318.224-.08.026-.216.124-.215.224.002.115.005.05.012.17-.02.01-.02-.005-.03-.025M15.816-64c.018.072.007.127-.026.2-.053.1-.112.063-.165.128a.64.64 0 0 0-.079.362c-.17.058-.01.227-.015.35-.002.05-.04.105-.045.16a.76.76 0 0 0 .068.37c.097.198.268.413.435.544.2.148.365.572.608.63.177.042.384-.104.543-.143.18-.043.397.01.57-.053.222-.08.128-.337.288-.45.104-.074.287-.01.406-.05.2-.07.34-.263.376-.46.016-.082.01-.145.04-.22.04-.102.1-.16.1-.293-.01-.062-.052-.12-.064-.187-.022-.114.002-.224 0-.337-.003-.2.017-.38-.078-.55-.38-.688-1.236-.93-1.975-.8-.18.034-.287.126-.442.207-.17.088-.14.166-.318.224-.08.026-.216.124-.215.224.002.115.005.05.012.17-.02.01-.02-.005-.03-.025"/><use xlink:href="#E" x="-45.962"/><path d="M.495-64c.018.072.007.127-.026.2-.053.1-.112.063-.165.128a.64.64 0 0 0-.079.362c-.17.058-.01.227-.015.35-.002.05-.04.105-.045.16a.76.76 0 0 0 .068.37c.097.198.268.413.435.544.2.148.365.572.608.63.177.042.384-.104.543-.143.18-.042.398.01.572-.052.222-.08.127-.337.288-.45.104-.074.287-.01.406-.05.2-.07.34-.263.376-.46.016-.082.01-.145.04-.22.04-.102.1-.16.1-.293-.01-.062-.052-.12-.064-.187-.022-.114.002-.224 0-.337-.003-.2.017-.38-.078-.55-.38-.688-1.236-.93-1.975-.8-.18.034-.287.126-.442.207-.17.088-.14.166-.318.224-.08.026-.216.124-.215.224.001.115.005.05.012.17-.02.01-.02-.005-.03-.025m68.95 7.64a.25.25 0 0 1-.026.19c-.053.1-.112.063-.165.128a.64.64 0 0 0-.079.362c-.17.058-.01.227-.015.35-.002.05-.04.106-.045.16a.76.76 0 0 0 .068.37c.097.198.268.413.435.544.2.148.365.572.608.63.177.042.384-.104.543-.143.18-.043.397.01.57-.053.222-.08.127-.337.288-.45.104-.074.287-.01.406-.05.2-.07.34-.263.376-.46.016-.082.01-.145.04-.22.04-.103.1-.16.1-.293-.01-.062-.052-.12-.064-.187-.022-.114.002-.224.001-.337-.003-.2.017-.38-.078-.55-.38-.688-1.236-.93-1.975-.8-.18.034-.287.126-.442.207-.17.088-.14.166-.318.224-.08.026-.216.124-.215.224.001.115.005.05.012.17-.02.01-.02-.005-.03-.025m-7.658.02c.018.072.007.127-.026.2-.053.1-.112.063-.165.128a.64.64 0 0 0-.079.362c-.17.058-.01.227-.015.35-.002.05-.04.106-.045.16a.76.76 0 0 0 .068.37c.097.198.268.413.435.544.2.148.365.572.608.63.177.042.384-.104.543-.143.18-.043.397.01.57-.053.222-.08.127-.337.288-.45.104-.074.287-.01.406-.05.2-.07.34-.263.376-.46.016-.082.01-.145.04-.22.04-.103.1-.16.1-.293-.01-.062-.052-.12-.064-.187-.022-.114.002-.224 0-.337-.003-.2.017-.38-.078-.55-.38-.688-1.236-.93-1.975-.8-.18.034-.287.126-.442.207-.17.088-.14.166-.318.224-.08.026-.216.124-.215.224.001.115.005.05.012.17-.02.01-.02-.005-.03-.025"/><use xlink:href="#G"/><use xlink:href="#H"/><path d="M38.797-56.348a.25.25 0 0 1-.026.19c-.053.1-.112.063-.165.128a.64.64 0 0 0-.079.362c-.17.058-.01.227-.015.35-.002.05-.04.106-.045.16-.01.12.017.266.068.37.097.198.268.413.435.544.2.148.365.572.608.63.177.042.384-.104.543-.143.18-.043.397.01.57-.053.222-.08.127-.337.288-.45.104-.074.287-.01.406-.05.2-.07.34-.263.376-.46.016-.082.01-.145.04-.22.04-.103.11-.16.1-.293-.01-.062-.052-.12-.065-.187-.022-.114.002-.224 0-.337-.003-.2.017-.38-.078-.55-.38-.688-1.236-.93-1.975-.79-.18.034-.287.126-.442.207-.17.088-.14.166-.318.224-.08.026-.216.124-.215.224.001.115.005.05.012.17-.02.01-.02-.005-.03-.025"/><use xlink:href="#H" x="-15.321"/><path d="M23.477-56.348a.25.25 0 0 1-.026.19c-.053.1-.112.063-.165.128a.64.64 0 0 0-.079.362c-.17.058-.01.227-.015.35-.002.05-.04.106-.045.16a.76.76 0 0 0 .068.37c.097.198.268.413.435.544.2.148.365.572.608.63.177.042.384-.104.543-.143.18-.043.397.01.57-.053.222-.08.127-.337.288-.45.104-.074.287-.01.406-.05.2-.07.34-.263.376-.46.016-.082.01-.145.04-.22.038-.103.1-.16.1-.293-.01-.062-.052-.12-.065-.187-.022-.114.002-.224 0-.337-.003-.2.017-.38-.078-.55-.38-.688-1.236-.93-1.975-.8-.18.034-.287.126-.442.207-.17.088-.14.166-.318.224-.08.026-.216.124-.215.224.002.115.005.05.012.17-.02.01-.02-.005-.03-.025m-7.654-.001c.018.072.007.127-.026.2-.053.1-.112.063-.165.128a.64.64 0 0 0-.079.362c-.17.058-.01.227-.015.35-.002.05-.04.106-.045.16a.76.76 0 0 0 .068.37c.097.198.268.413.435.544.2.148.365.572.608.63.177.042.384-.104.543-.143.18-.043.397.01.57-.053.222-.08.128-.337.288-.45.104-.074.287-.01.406-.05.2-.07.34-.263.376-.46.016-.082.01-.145.04-.22.04-.103.1-.16.1-.293-.01-.062-.052-.12-.064-.187-.022-.114.002-.224 0-.337-.003-.2.017-.38-.078-.55-.38-.688-1.236-.93-1.975-.8-.18.034-.287.126-.442.207-.17.088-.14.166-.318.224-.08.026-.216.124-.215.224.002.115.005.05.012.17-.02.01-.02-.005-.03-.025"/><use xlink:href="#G" x="-45.962"/><path d="M.495-56.348c.018.072.007.127-.026.2-.053.1-.112.063-.165.128a.64.64 0 0 0-.079.362c-.17.058-.01.227-.015.35-.002.05-.04.106-.045.16a.76.76 0 0 0 .068.37c.097.198.268.413.435.544.2.148.365.572.608.63.177.042.384-.104.543-.143.18-.043.397.01.57-.053.222-.08.127-.337.288-.45.104-.074.287-.01.406-.05.2-.07.34-.263.376-.46.016-.082.01-.145.04-.22.04-.103.1-.16.1-.293-.01-.062-.052-.12-.064-.187-.022-.114.002-.224 0-.337-.003-.2.017-.38-.078-.55-.38-.688-1.236-.93-1.975-.8-.18.034-.287.126-.442.207-.17.088-.14.166-.318.224-.08.026-.216.124-.215.224l.013.17c-.02.01-.02-.005-.03-.025m68.95 7.642a.25.25 0 0 1-.026.19c-.053.1-.112.063-.165.128a.64.64 0 0 0-.079.362c-.17.058-.01.226-.015.35-.002.05-.04.105-.045.16a.76.76 0 0 0 .068.37c.097.198.268.413.435.544.2.148.365.572.608.63.177.042.384-.104.543-.143.18-.043.397.01.57-.053.222-.08.127-.337.288-.45.104-.074.287-.01.406-.05.2-.07.34-.263.376-.46.016-.082.01-.145.04-.22.04-.103.1-.16.1-.293-.01-.062-.052-.12-.064-.187-.022-.114.002-.224.001-.337-.003-.2.017-.38-.078-.55-.38-.688-1.236-.93-1.975-.8-.18.034-.287.126-.442.207-.17.088-.14.166-.318.224-.08.026-.216.124-.215.224.001.115.005.05.012.17-.02.01-.02-.005-.03-.025"/><use xlink:href="#I"/><use xlink:href="#J"/><use xlink:href="#K"/><path d="M38.797-48.695a.25.25 0 0 1-.026.19c-.053.1-.112.063-.165.128a.64.64 0 0 0-.079.362c-.17.058-.01.226-.015.35-.002.05-.04.105-.045.16-.01.12.017.266.068.37.097.198.268.413.435.544.2.148.365.572.608.63.177.042.384-.104.543-.143.18-.043.397.01.57-.053.222-.08.127-.337.288-.45.104-.074.287-.01.406-.05.2-.07.34-.263.376-.46.016-.082.01-.145.04-.22.04-.103.11-.16.1-.293-.01-.062-.052-.12-.065-.187-.022-.114.002-.224 0-.337-.003-.2.017-.38-.078-.55-.38-.688-1.236-.93-1.975-.79-.18.034-.287.126-.442.207-.17.088-.14.166-.318.224-.08.026-.216.124-.215.224.001.115.005.05.012.17-.02.01-.02-.005-.03-.025"/><use xlink:href="#K" x="-15.321"/><path d="M23.477-48.695a.25.25 0 0 1-.026.19c-.053.1-.112.063-.165.128a.64.64 0 0 0-.079.362c-.17.058-.01.226-.015.35-.002.05-.04.105-.045.16a.76.76 0 0 0 .068.37c.097.198.268.413.435.544.2.148.365.572.608.63.177.042.384-.104.543-.143.18-.043.397.01.57-.053.222-.08.127-.337.288-.45.104-.074.287-.01.406-.05.2-.07.34-.263.376-.46.016-.082.01-.145.04-.22.038-.103.1-.16.1-.293-.01-.062-.052-.12-.065-.187-.022-.114.002-.224 0-.337-.003-.2.017-.38-.078-.55-.38-.688-1.236-.93-1.975-.8-.18.034-.287.126-.442.207-.17.088-.14.166-.318.224-.08.026-.216.124-.215.224.002.115.005.05.012.17-.02.01-.02-.005-.03-.025m-7.654-.001c.018.072.007.127-.026.2-.053.1-.112.063-.165.128a.64.64 0 0 0-.079.362c-.17.058-.01.226-.015.35-.002.05-.04.105-.045.16a.76.76 0 0 0 .068.37c.097.198.268.413.435.544.2.148.365.572.608.63.177.042.384-.104.543-.143.18-.043.397.01.57-.053.222-.08.128-.337.288-.45.104-.074.287-.01.406-.05.2-.07.34-.263.376-.46.016-.082.01-.145.04-.22.04-.103.1-.16.1-.293-.01-.062-.052-.12-.064-.187-.022-.114.002-.224 0-.337-.003-.2.017-.38-.078-.55-.38-.688-1.236-.93-1.975-.8-.18.034-.287.126-.442.207-.17.088-.14.166-.318.224-.08.026-.216.124-.215.224.002.115.005.05.012.17-.02.01-.02-.005-.03-.025"/><use xlink:href="#J" x="-45.962"/><use xlink:href="#I" x="-61.283"/><path d="M69.44-41.042a.25.25 0 0 1-.026.19c-.053.1-.112.063-.165.128a.64.64 0 0 0-.079.362c-.17.058-.01.227-.015.35-.002.05-.04.105-.045.16-.01.12.017.266.068.37.097.198.268.413.435.544.2.148.365.572.608.63.177.042.384-.104.543-.143.18-.043.397.01.57-.053.222-.08.127-.337.288-.45.104-.074.287-.01.406-.05.2-.07.34-.263.376-.46.016-.082.01-.145.04-.22.04-.103.11-.16.1-.293-.01-.062-.052-.12-.064-.187-.022-.114.002-.224.001-.337-.003-.2.017-.38-.078-.55-.38-.688-1.236-.93-1.975-.79-.18.034-.287.126-.442.207-.17.088-.14.166-.318.224-.08.026-.216.124-.215.224.001.115.005.05.012.17-.02.01-.02-.005-.03-.025"/><use xlink:href="#L"/><path d="M54.118-41.042c.018.072.007.127-.026.2-.053.1-.112.063-.165.128a.64.64 0 0 0-.079.362c-.17.058-.01.227-.015.35-.002.05-.04.105-.045.16-.01.12.017.266.068.37.097.198.268.413.435.544.2.148.365.572.608.63.177.042.384-.104.543-.143.18-.043.397.01.57-.053.222-.08.127-.337.288-.45.104-.074.287-.01.406-.05.2-.07.34-.263.376-.46.016-.082.01-.145.04-.22.038-.103.11-.16.1-.293-.01-.062-.052-.12-.064-.187-.022-.114.002-.224 0-.337-.003-.2.017-.38-.078-.55-.38-.688-1.236-.93-1.975-.79-.18.034-.287.126-.442.207-.17.088-.14.166-.318.224-.08.026-.216.124-.215.224.001.115.005.05.012.17-.02.01-.02-.005-.03-.025"/><use xlink:href="#M"/><path d="M38.797-41.042a.25.25 0 0 1-.026.19c-.053.1-.112.063-.165.128a.64.64 0 0 0-.079.362c-.17.058-.01.227-.015.35-.002.05-.04.105-.045.16-.01.12.017.266.068.37.097.198.268.413.435.544.2.148.365.572.608.63.177.042.384-.104.543-.143.18-.043.397.01.57-.053.222-.08.127-.337.288-.45.104-.074.287-.01.406-.05.2-.07.34-.263.376-.46.016-.082.01-.145.04-.22.04-.103.11-.16.1-.293-.01-.062-.052-.12-.065-.187-.022-.114.002-.224 0-.337-.003-.2.017-.38-.078-.55-.38-.688-1.236-.93-1.975-.79-.18.034-.287.126-.442.207-.17.088-.14.166-.318.224-.08.026-.216.124-.215.224.001.115.005.05.012.17-.02.01-.02-.005-.03-.025"/><use xlink:href="#M" x="-15.321"/><use xlink:href="#C" x="7.704" y="30.611"/><path d="M15.816-41.042c.018.072.007.127-.026.2-.053.1-.112.063-.165.128a.64.64 0 0 0-.079.362c-.17.058-.01.227-.015.35-.002.05-.04.105-.045.16a.76.76 0 0 0 .068.37c.097.198.268.413.435.544.2.148.365.572.608.63.177.042.384-.104.543-.143.18-.043.397.01.57-.053.222-.08.128-.337.288-.45.104-.074.287-.01.406-.05.2-.07.34-.263.376-.46.016-.082.01-.145.04-.22.04-.103.1-.16.1-.293-.01-.062-.052-.12-.064-.187-.022-.114.002-.224 0-.337-.003-.2.017-.38-.078-.55-.38-.688-1.236-.93-1.975-.8-.18.034-.287.126-.442.207-.17.088-.14.166-.318.224-.08.026-.216.124-.215.224.002.115.005.05.012.17-.02.01-.02-.005-.03-.025m-7.654-.01c.018.072.007.127-.026.2-.053.1-.112.063-.165.128a.64.64 0 0 0-.079.362c-.17.058-.01.227-.015.35-.002.05-.04.105-.045.16a.76.76 0 0 0 .068.37c.097.198.268.413.435.544.2.148.365.572.608.63.177.042.384-.104.543-.143.18-.043.397.01.57-.053.222-.08.127-.337.288-.45.104-.074.287-.01.406-.05.2-.07.34-.263.376-.46.016-.082.01-.145.04-.22.038-.103.1-.16.1-.293-.01-.062-.052-.12-.064-.187-.022-.114.002-.224 0-.337-.003-.2.017-.38-.078-.55-.38-.688-1.236-.93-1.975-.8-.18.034-.287.126-.442.207-.17.088-.14.166-.318.224-.08.026-.216.124-.215.224.001.115.005.05.012.17-.02.012-.02-.004-.03-.024"/><use xlink:href="#L" x="-61.283"/><path d="M69.44-33.4a.25.25 0 0 1-.026.19c-.053.1-.112.063-.165.128a.64.64 0 0 0-.079.362c-.17.058-.01.227-.015.35-.002.05-.04.106-.045.16a.76.76 0 0 0 .068.37c.097.198.268.413.435.544.2.15.365.572.608.63.177.042.384-.104.543-.143.18-.043.397.01.57-.053.222-.08.127-.337.288-.45.104-.074.287-.01.406-.05.2-.07.34-.263.376-.46.016-.082.01-.144.04-.22.04-.103.1-.16.1-.293-.01-.062-.052-.12-.064-.187-.022-.114.002-.224.001-.337-.003-.2.017-.38-.078-.55-.38-.688-1.236-.93-1.975-.8-.18.034-.287.126-.442.207-.17.088-.14.166-.318.224-.08.026-.216.124-.215.224.001.115.005.05.012.17-.02.01-.02-.005-.03-.025m-7.657-.001c.018.072.007.127-.026.2-.053.1-.112.063-.165.128a.64.64 0 0 0-.079.362c-.17.058-.01.227-.015.35-.002.05-.04.106-.045.16a.76.76 0 0 0 .068.37c.097.198.268.413.435.544.2.15.365.572.608.63.177.042.384-.104.543-.143.18-.043.397.01.57-.053.222-.08.127-.337.288-.45.104-.074.287-.01.406-.05.2-.07.34-.263.376-.46.016-.082.01-.144.04-.22.04-.103.1-.16.1-.293-.01-.062-.052-.12-.064-.187-.022-.114.002-.224 0-.337-.003-.2.017-.38-.078-.55-.38-.688-1.236-.93-1.975-.8-.18.034-.287.126-.442.207-.17.088-.14.166-.318.224-.08.026-.216.124-.215.224.001.115.005.05.012.17-.02.01-.02-.005-.03-.025"/><use xlink:href="#N"/><use xlink:href="#O"/><path d="M38.797-33.4a.25.25 0 0 1-.026.19c-.053.1-.112.063-.165.128a.64.64 0 0 0-.079.362c-.17.058-.01.227-.015.35-.002.05-.04.106-.045.16-.01.12.017.266.068.37.097.198.268.413.435.544.2.15.365.572.608.63.177.042.384-.104.543-.143.18-.043.397.01.57-.053.222-.08.127-.337.288-.45.104-.074.287-.01.406-.05.2-.07.34-.263.376-.46.016-.082.01-.144.04-.22.04-.103.11-.16.1-.293-.01-.062-.052-.12-.065-.187-.022-.114.002-.224 0-.337-.003-.2.017-.38-.078-.55-.38-.688-1.236-.93-1.975-.79-.18.034-.287.126-.442.207-.17.088-.14.166-.318.224-.08.026-.216.124-.215.224.001.115.005.05.012.17-.02.01-.02-.005-.03-.025"/><use xlink:href="#O" x="-15.321"/><path d="M23.477-33.4a.25.25 0 0 1-.026.19c-.053.1-.112.063-.165.128a.64.64 0 0 0-.079.362c-.17.058-.01.227-.015.35-.002.05-.04.106-.045.16a.76.76 0 0 0 .068.37c.097.198.268.413.435.544.2.15.365.572.608.63.177.042.384-.104.543-.143.18-.043.397.01.57-.053.222-.08.127-.337.288-.45.104-.074.287-.01.406-.05.2-.07.34-.263.376-.46.016-.082.01-.144.04-.22.038-.103.1-.16.1-.293-.01-.062-.052-.12-.065-.187-.022-.114.002-.224 0-.337-.003-.2.017-.38-.078-.55-.38-.688-1.236-.93-1.975-.8-.18.034-.287.126-.442.207-.17.088-.14.166-.318.224-.08.026-.216.124-.215.224.002.115.005.05.012.17-.02.01-.02-.005-.03-.025m-7.654-.001c.018.072.007.127-.026.2-.053.1-.112.063-.165.128a.64.64 0 0 0-.079.362c-.17.058-.01.227-.015.35-.002.05-.04.106-.045.16a.76.76 0 0 0 .068.37c.097.198.268.413.435.544.2.15.365.572.608.63.177.042.384-.104.543-.143.18-.043.397.01.57-.053.222-.08.128-.337.288-.45.104-.074.287-.01.406-.05.2-.07.34-.263.376-.46.016-.082.01-.144.04-.22.04-.103.1-.16.1-.293-.01-.062-.052-.12-.064-.187-.022-.114.002-.224 0-.337-.003-.2.017-.38-.078-.55-.38-.688-1.236-.93-1.975-.8-.18.034-.287.126-.442.207-.17.088-.14.166-.318.224-.08.026-.216.124-.215.224.002.115.005.05.012.17-.02.01-.02-.005-.03-.025"/><use xlink:href="#N" x="-45.962"/><path d="M.495-33.4c.018.072.007.127-.026.2-.053.1-.112.063-.165.128a.64.64 0 0 0-.079.362c-.17.058-.01.227-.015.35-.002.05-.04.106-.045.16a.76.76 0 0 0 .068.37c.097.198.268.413.435.544.2.15.365.572.608.63.177.042.384-.104.543-.143.18-.043.397.01.57-.053.222-.08.127-.337.288-.45.104-.074.287-.01.406-.05.2-.07.34-.263.376-.46.016-.082.01-.144.04-.22.04-.103.1-.16.1-.293-.01-.062-.052-.12-.064-.187-.022-.114.002-.224 0-.337-.003-.2.017-.38-.078-.55-.38-.688-1.236-.93-1.975-.8-.18.034-.287.126-.442.207-.17.088-.14.166-.318.224-.08.026-.216.124-.215.224l.013.17c-.02.01-.02-.005-.03-.025m68.95 7.653a.25.25 0 0 1-.026.19c-.053.1-.112.063-.165.128a.64.64 0 0 0-.079.362c-.17.058-.01.227-.015.35-.002.05-.04.106-.045.16a.76.76 0 0 0 .068.37c.097.198.268.413.435.544.2.148.365.572.608.63.177.042.384-.104.543-.143.18-.043.397.01.57-.053.222-.08.127-.337.288-.45.104-.074.287-.01.406-.05.2-.07.34-.263.376-.46.016-.082.01-.145.04-.22.04-.102.1-.16.1-.293-.01-.06-.052-.12-.064-.186-.022-.114.002-.224.001-.337-.003-.2.017-.38-.078-.55-.38-.688-1.236-.93-1.975-.8-.18.034-.287.126-.442.207-.17.088-.14.166-.318.224-.08.026-.216.124-.215.224.001.115.005.05.012.17-.02.01-.02-.005-.03-.025"/><use xlink:href="#P"/><use xlink:href="#Q"/><use xlink:href="#R"/><path d="M38.797-25.736a.25.25 0 0 1-.026.19c-.053.1-.112.063-.165.128a.64.64 0 0 0-.079.362c-.17.058-.01.227-.015.35-.002.05-.04.106-.045.16-.01.12.017.266.068.37.097.198.268.413.435.544.2.148.365.572.608.63.177.042.384-.104.543-.143.18-.043.397.01.57-.053.222-.08.127-.337.288-.45.104-.074.287-.01.406-.05.2-.07.34-.263.376-.46.016-.082.01-.145.04-.22.04-.102.11-.16.1-.293-.01-.06-.052-.12-.065-.186-.022-.114.002-.224 0-.337-.003-.2.017-.38-.078-.55-.38-.688-1.236-.93-1.975-.79-.18.034-.287.126-.442.207-.17.088-.14.166-.318.224-.08.026-.216.124-.215.224.001.115.005.05.012.17-.02.01-.02-.005-.03-.025"/><use xlink:href="#R" x="-15.321"/><path d="M23.477-25.736a.25.25 0 0 1-.026.19c-.053.1-.112.063-.165.128a.64.64 0 0 0-.079.362c-.17.058-.01.227-.015.35-.002.05-.04.106-.045.16a.76.76 0 0 0 .068.37c.097.198.268.413.435.544.2.148.365.572.608.63.177.042.384-.104.543-.143.18-.043.397.01.57-.053.222-.08.127-.337.288-.45.104-.074.287-.01.406-.05.2-.07.34-.263.376-.46.016-.082.01-.145.04-.22.038-.102.1-.16.1-.293-.01-.06-.052-.12-.065-.186-.022-.114.002-.224 0-.337-.003-.2.017-.38-.078-.55-.38-.688-1.236-.93-1.975-.8-.18.034-.287.126-.442.207-.17.088-.14.166-.318.224-.08.026-.216.124-.215.224.002.115.005.05.012.17-.02.01-.02-.005-.03-.025m-7.654-.002c.018.072.007.127-.026.2-.053.1-.112.063-.165.128a.64.64 0 0 0-.079.362c-.17.058-.01.227-.015.35-.002.05-.04.106-.045.16a.76.76 0 0 0 .068.37c.097.198.268.413.435.544.2.148.365.572.608.63.177.042.384-.104.543-.143.18-.043.397.01.57-.053.222-.08.128-.337.288-.45.104-.074.287-.01.406-.05.2-.07.34-.263.376-.46.016-.082.01-.145.04-.22.04-.102.1-.16.1-.293-.01-.06-.052-.12-.064-.186-.022-.114.002-.224 0-.337-.003-.2.017-.38-.078-.55-.38-.688-1.236-.93-1.975-.8-.18.034-.287.126-.442.207-.17.088-.14.166-.318.224-.08.026-.216.124-.215.224.002.115.005.05.012.17-.02.01-.02-.005-.03-.025"/><use xlink:href="#Q" x="-45.962"/><use xlink:href="#P" x="-61.283"/><path d="M69.44-18.084a.25.25 0 0 1-.026.19c-.053.1-.112.063-.165.128a.64.64 0 0 0-.079.362c-.17.058-.01.226-.015.35-.002.05-.04.105-.045.16a.76.76 0 0 0 .068.37c.097.198.268.413.435.544.2.148.365.572.608.63.177.042.384-.104.543-.142.18-.043.397.01.57-.053.222-.08.127-.337.288-.45.104-.074.287-.01.406-.05.2-.07.34-.263.376-.46.016-.082.01-.144.04-.22.04-.103.1-.16.1-.293-.01-.062-.052-.12-.064-.187-.022-.114.002-.224.001-.337-.003-.2.017-.38-.078-.55-.38-.688-1.236-.93-1.975-.8-.18.034-.287.126-.442.207-.17.088-.14.166-.318.224-.08.026-.216.124-.215.224.001.115.005.05.012.17-.02.01-.02-.005-.03-.025m-7.657-.002c.018.072.007.127-.026.2-.053.1-.112.063-.165.128a.64.64 0 0 0-.079.362c-.17.058-.01.226-.015.35-.002.05-.04.105-.045.16a.76.76 0 0 0 .068.37c.097.198.268.413.435.544.2.148.365.572.608.63.177.042.384-.104.543-.142.18-.043.397.01.57-.053.222-.08.127-.337.288-.45.104-.074.287-.01.406-.05.2-.07.34-.263.376-.46.016-.082.01-.144.04-.22.04-.103.1-.16.1-.293-.01-.062-.052-.12-.064-.187-.022-.114.002-.224 0-.337-.003-.2.017-.38-.078-.55-.38-.688-1.236-.93-1.975-.8-.18.034-.287.126-.442.207-.17.088-.14.166-.318.224-.08.026-.216.124-.215.224.001.115.005.05.012.17-.02.01-.02-.005-.03-.025"/><use xlink:href="#S"/><use xlink:href="#T"/><path d="M38.797-18.084a.25.25 0 0 1-.026.19c-.053.1-.112.063-.165.128a.64.64 0 0 0-.079.362c-.17.058-.01.226-.015.35-.002.05-.04.105-.045.16-.01.12.017.266.068.37.097.198.268.413.435.544.2.148.365.572.608.63.177.042.384-.104.543-.142.18-.043.397.01.57-.053.222-.08.127-.337.288-.45.104-.074.287-.01.406-.05.2-.07.34-.263.376-.46.016-.082.01-.144.04-.22.04-.103.11-.16.1-.293-.01-.062-.052-.12-.065-.187-.022-.114.002-.224 0-.337-.003-.2.017-.38-.078-.55-.38-.688-1.236-.93-1.975-.79-.18.034-.287.126-.442.207-.17.088-.14.166-.318.224-.08.026-.216.124-.215.224.001.115.005.05.012.17-.02.01-.02-.005-.03-.025"/><use xlink:href="#T" x="-15.321"/><path d="M23.477-18.084a.25.25 0 0 1-.026.19c-.053.1-.112.063-.165.128a.64.64 0 0 0-.079.362c-.17.058-.01.226-.015.35-.002.05-.04.105-.045.16a.76.76 0 0 0 .068.37c.097.198.268.413.435.544.2.148.365.572.608.63.177.042.384-.104.543-.142.18-.043.397.01.57-.053.222-.08.127-.337.288-.45.104-.074.287-.01.406-.05.2-.07.34-.263.376-.46.016-.082.01-.144.04-.22.038-.103.1-.16.1-.293-.01-.062-.052-.12-.065-.187-.022-.114.002-.224 0-.337-.003-.2.017-.38-.078-.55-.38-.688-1.236-.93-1.975-.8-.18.034-.287.126-.442.207-.17.088-.14.166-.318.224-.08.026-.216.124-.215.224.002.115.005.05.012.17-.02.01-.02-.005-.03-.025m-7.654-.002c.018.072.007.127-.026.2-.053.1-.112.063-.165.128a.64.64 0 0 0-.079.362c-.17.058-.01.226-.015.35-.002.05-.04.105-.045.16a.76.76 0 0 0 .068.37c.097.198.268.413.435.544.2.148.365.572.608.63.177.042.384-.104.543-.142.18-.043.397.01.57-.053.222-.08.128-.337.288-.45.104-.074.287-.01.406-.05.2-.07.34-.263.376-.46.016-.082.01-.144.04-.22.04-.103.1-.16.1-.293-.01-.062-.052-.12-.064-.187-.022-.114.002-.224 0-.337-.003-.2.017-.38-.078-.55-.38-.688-1.236-.93-1.975-.8-.18.034-.287.126-.442.207-.17.088-.14.166-.318.224-.08.026-.216.124-.215.224.002.115.005.05.012.17-.02.01-.02-.005-.03-.025"/><use xlink:href="#S" x="-45.962"/><path d="M.495-18.084c.018.072.007.127-.026.2-.053.1-.112.063-.165.128a.64.64 0 0 0-.079.362c-.17.058-.01.226-.015.35-.002.05-.04.105-.045.16a.76.76 0 0 0 .068.37c.097.198.268.413.435.544.2.148.365.572.608.63.177.042.384-.104.543-.142.18-.043.397.01.57-.053.222-.08.127-.337.288-.45.104-.074.287-.01.406-.05.2-.07.34-.263.376-.46.016-.082.01-.144.04-.22.04-.103.1-.16.1-.293-.01-.062-.052-.12-.064-.187-.022-.114.002-.224 0-.337-.003-.2.017-.38-.078-.55-.38-.688-1.236-.93-1.975-.8-.18.034-.287.126-.442.207-.17.088-.14.166-.318.224-.08.026-.216.124-.215.224.003.116.006.05.013.17-.02.01-.02-.005-.03-.025m68.95 7.642a.25.25 0 0 1-.026.19c-.053.1-.112.063-.165.128a.64.64 0 0 0-.079.362c-.17.058-.01.227-.015.35-.002.05-.04.105-.045.16a.76.76 0 0 0 .068.37c.097.198.268.413.435.544.2.148.365.572.608.63.177.042.384-.104.543-.143.18-.043.397.01.57-.053.222-.08.127-.337.288-.45.104-.074.287-.01.406-.05.2-.07.34-.263.376-.46.016-.082.01-.145.04-.22.04-.103.1-.16.1-.293-.01-.062-.052-.12-.064-.187-.022-.114.002-.224.001-.337-.003-.2.017-.38-.078-.55-.38-.688-1.236-.93-1.975-.8-.18.034-.287.126-.442.207-.17.088-.14.166-.318.224-.08.026-.216.124-.215.224.001.115.005.05.012.17-.02.01-.02-.005-.03-.025m-7.657.02a.25.25 0 0 1-.026.191c-.053.1-.112.063-.165.128a.64.64 0 0 0-.079.362c-.17.058-.01.227-.015.35-.002.05-.04.105-.045.16a.76.76 0 0 0 .068.37c.097.198.268.413.435.544.2.148.365.572.608.63.177.042.384-.104.543-.143.18-.043.397.01.57-.053.222-.08.127-.337.288-.45.104-.074.287-.01.406-.05.2-.07.34-.263.376-.46.016-.082.01-.145.04-.22.04-.103.1-.16.1-.293-.01-.062-.052-.12-.064-.187-.022-.114.002-.224 0-.337-.003-.2.017-.38-.078-.55-.38-.688-1.236-.93-1.975-.8-.18.034-.287.126-.442.207-.17.088-.14.166-.318.224-.08.026-.216.124-.215.224.001.115.005.05.012.17-.02.01-.02-.005-.03-.025m-7.654-.002a.25.25 0 0 1-.026.191c-.053.1-.112.063-.165.128a.64.64 0 0 0-.079.362c-.17.058-.01.227-.015.35-.002.05-.04.105-.045.16a.76.76 0 0 0 .068.37c.097.198.268.413.435.544.2.148.365.572.608.63.177.042.384-.104.543-.143.18-.043.397.01.57-.053.222-.08.127-.337.288-.45.104-.074.287-.01.406-.05.2-.07.34-.263.376-.46.016-.082.01-.145.04-.22.038-.103.1-.16.1-.293-.01-.062-.052-.12-.064-.187-.022-.114.002-.224 0-.337-.003-.2.017-.38-.078-.55-.38-.688-1.236-.93-1.975-.8-.18.034-.287.126-.442.207-.17.088-.14.166-.318.224-.08.026-.216.124-.215.224.001.115.005.05.012.17-.02.01-.02-.005-.03-.025"/><use xlink:href="#U"/><path d="M38.797-10.43c.017.072.007.127-.026.19-.053.1-.112.063-.165.128a.64.64 0 0 0-.079.362c-.17.058-.01.227-.015.35-.002.05-.04.105-.045.16-.01.12.017.266.068.37.097.198.268.413.435.544.2.148.365.572.608.63.177.042.384-.104.543-.143.18-.043.397.01.57-.053.222-.08.127-.337.288-.45.104-.074.287-.01.406-.05.2-.07.34-.263.376-.46.016-.082.01-.145.04-.22.04-.103.11-.16.1-.293-.01-.062-.052-.12-.065-.187-.022-.114.002-.224 0-.337-.003-.2.017-.38-.078-.55-.38-.688-1.236-.93-1.975-.79-.18.034-.287.126-.442.207-.17.088-.14.166-.318.224-.08.026-.216.124-.215.224.001.115.005.05.012.17-.02.01-.02-.005-.03-.025"/><use xlink:href="#U" x="-15.321"/><path d="M23.477-10.43a.25.25 0 0 1-.026.19c-.053.1-.112.063-.165.128a.64.64 0 0 0-.079.362c-.17.058-.01.227-.015.35-.002.05-.04.105-.045.16a.76.76 0 0 0 .068.37c.097.198.268.413.435.544.2.148.365.572.608.63.177.042.384-.104.543-.143.18-.043.397.01.57-.053.222-.08.127-.337.288-.45.104-.074.287-.01.406-.05.2-.07.34-.263.376-.46.016-.082.01-.145.04-.22.038-.103.1-.16.1-.293-.01-.062-.052-.12-.065-.187-.022-.114.002-.224 0-.337-.003-.2.017-.38-.078-.55-.38-.688-1.236-.93-1.975-.8-.18.034-.287.126-.442.207-.17.088-.14.166-.318.224-.08.026-.216.124-.215.224.002.115.005.05.012.17-.02.01-.02-.005-.03-.025m-7.654-.001a.25.25 0 0 1-.026.191c-.053.1-.112.063-.165.128a.64.64 0 0 0-.079.362c-.17.058-.01.227-.015.35-.002.05-.04.105-.045.16a.76.76 0 0 0 .068.37c.097.198.268.413.435.544.2.148.365.572.608.63.177.042.384-.104.543-.143.18-.043.397.01.57-.053.222-.08.128-.337.3-.45.104-.074.287-.01.406-.05.2-.07.34-.263.376-.46.016-.082.01-.145.04-.22.04-.103.1-.16.1-.293-.01-.062-.052-.12-.064-.187-.022-.114.002-.224 0-.337-.003-.2.017-.38-.078-.55-.38-.688-1.236-.93-1.975-.8-.18.034-.287.126-.442.207-.17.088-.14.166-.318.224-.08.026-.216.124-.215.224.002.115.005.05.012.17-.02.01-.02-.005-.03-.025m-7.666.018a.25.25 0 0 1-.026.191c-.053.1-.112.063-.165.128a.64.64 0 0 0-.079.362c-.17.058-.01.227-.015.35-.003.05-.04.105-.045.16a.76.76 0 0 0 .068.37c.097.198.268.413.435.544.2.148.365.572.608.63.177.042.384-.105.543-.143.18-.043.397.01.57-.053.222-.08.127-.337.288-.45.104-.074.287-.01.406-.05.2-.07.34-.263.376-.46.016-.082.01-.145.04-.22.038-.103.1-.16.1-.293-.01-.062-.052-.12-.064-.187-.022-.114.002-.224 0-.337-.003-.2.017-.38-.078-.55-.38-.688-1.236-.93-1.975-.8-.18.034-.287.126-.442.207-.17.088-.14.166-.318.224-.08.026-.216.124-.215.224.001.115.005.05.012.17-.02.01-.02-.005-.03-.025m-7.655.008a.25.25 0 0 1-.026.191c-.053.1-.112.063-.165.128a.64.64 0 0 0-.079.362c-.17.058-.01.227-.015.35-.002.05-.04.105-.045.16a.76.76 0 0 0 .068.37c.097.198.268.413.435.544.2.148.365.572.608.63.178.042.384-.105.543-.143.18-.043.398.01.572-.053.222-.08.127-.337.288-.45.104-.074.287-.01.406-.05.2-.07.34-.263.376-.46.016-.082.01-.144.04-.22.04-.103.1-.16.1-.293-.01-.062-.052-.12-.064-.187-.022-.114.002-.224 0-.337-.003-.2.017-.38-.078-.55-.38-.688-1.236-.93-1.975-.8-.18.034-.287.126-.442.207-.17.088-.14.166-.318.224-.08.026-.216.124-.215.224.001.115.005.05.012.17-.02.01-.02-.005-.03-.025"/><use xlink:href="#D" y="68.875"/><path d="M61.778-2.778c.018.072.007.127-.026.2-.052.1-.112.063-.165.128a.64.64 0 0 0-.079.362c-.17.058-.01.227-.015.35-.002.05-.04.105-.045.16a.76.76 0 0 0 .068.37c.097.198.268.413.435.544.2.148.365.572.608.63.178.042.384-.104.544-.143.18-.043.397.01.57-.053.222-.08.127-.337.288-.45.104-.074.287-.01.406-.05.2-.07.34-.263.376-.46.016-.082.01-.145.04-.22.04-.103.1-.16.1-.293-.01-.062-.052-.12-.064-.187-.022-.114.002-.224 0-.337-.003-.2.017-.38-.078-.55-.38-.688-1.236-.93-1.975-.8-.18.034-.287.126-.442.207-.17.088-.14.166-.318.224-.08.028-.216.125-.215.225.001.115.005.05.012.17-.02.01-.02-.005-.03-.025m-7.655-.012c.018.072.007.127-.026.2-.052.1-.112.063-.165.128a.64.64 0 0 0-.079.362c-.17.058-.01.227-.015.35-.002.05-.04.105-.045.16a.76.76 0 0 0 .068.37c.097.198.268.413.435.544.2.148.365.572.608.63.178.042.384-.104.543-.143.18-.043.397.01.57-.053.222-.08.127-.337.288-.45.104-.074.287-.01.406-.05.2-.07.34-.263.376-.46.016-.082.01-.145.04-.22.038-.103.1-.16.1-.293-.01-.062-.052-.12-.064-.187-.022-.114.002-.224 0-.337-.003-.2.017-.38-.078-.55-.38-.688-1.236-.93-1.975-.8-.18.034-.287.126-.442.207-.17.088-.14.166-.318.224-.08.028-.215.125-.214.225.001.115.005.05.012.17-.02.01-.02-.005-.03-.025m-7.655.008c.018.072.007.127-.026.2-.053.1-.112.063-.165.128a.64.64 0 0 0-.079.362c-.17.058-.01.227-.015.35-.003.05-.04.105-.045.16a.76.76 0 0 0 .068.37c.097.198.268.413.435.544.2.148.365.572.608.63.177.042.384-.104.543-.143.18-.043.397.01.57-.053.222-.08.127-.337.288-.45.104-.074.287-.01.406-.05.2-.07.34-.263.376-.46.016-.082.01-.145.04-.22.04-.103.1-.16.1-.293-.01-.062-.052-.12-.064-.187-.022-.114.002-.224 0-.337-.003-.2.017-.38-.078-.55-.38-.688-1.236-.93-1.975-.8-.18.034-.287.126-.442.207-.17.088-.14.166-.318.224-.08.028-.216.125-.215.225.001.115.005.05.012.17-.02.01-.02-.005-.03-.025m-7.655-.012a.25.25 0 0 1-.026.19c-.053.1-.112.063-.165.128a.64.64 0 0 0-.079.362c-.17.058-.01.227-.015.35-.002.05-.04.105-.045.16a.76.76 0 0 0 .068.37c.097.198.268.413.435.544.2.148.365.572.608.63.178.042.384-.104.544-.143.18-.043.397.01.57-.053.222-.08.127-.337.288-.45.104-.074.287-.01.406-.05.2-.07.34-.263.376-.46.016-.082.01-.145.04-.22.04-.103.1-.16.1-.293-.01-.062-.052-.12-.065-.187-.022-.114.002-.224 0-.337-.003-.2.017-.38-.078-.55-.38-.688-1.236-.93-1.975-.8-.18.034-.287.126-.442.207-.17.088-.14.166-.318.224-.08.028-.215.125-.214.225.001.115.005.05.012.17-.02.01-.02-.005-.03-.025m-7.655.018c.018.072.007.127-.026.2-.053.1-.112.063-.165.128a.64.64 0 0 0-.079.362c-.17.058-.01.227-.015.35-.003.05-.04.105-.045.16a.76.76 0 0 0 .068.37c.097.198.268.413.435.544.2.148.365.572.608.63.177.042.384-.104.543-.143.18-.043.397.01.57-.053.222-.08.127-.337.288-.45.104-.074.287-.01.406-.05.2-.07.34-.263.376-.46.016-.082.01-.145.04-.22.04-.103.1-.16.1-.293-.01-.062-.052-.12-.064-.187-.022-.114.002-.224 0-.337-.003-.2.017-.38-.078-.55-.38-.688-1.236-.93-1.975-.8-.18.034-.287.126-.442.207-.17.088-.14.166-.318.224-.08.028-.215.125-.214.225.001.115.005.05.012.17-.02.01-.02-.005-.03-.025"/><use xlink:href="#C" x="7.704" y="68.875"/><path d="M15.816-2.778c.018.072.007.127-.026.2-.053.1-.112.063-.165.128a.64.64 0 0 0-.079.362c-.17.058-.01.227-.015.35-.002.05-.04.105-.045.16a.76.76 0 0 0 .068.37c.097.198.268.413.435.544.2.148.365.572.608.63.177.042.384-.104.543-.143.18-.043.397.01.57-.053.222-.08.128-.337.288-.45.104-.074.287-.01.406-.05.2-.07.34-.263.376-.46.016-.082.01-.145.04-.22.04-.103.1-.16.1-.293-.01-.062-.052-.12-.064-.187-.022-.114.002-.224 0-.337-.003-.2.017-.38-.078-.55-.38-.688-1.236-.93-1.975-.8-.18.034-.287.126-.442.207-.17.088-.14.166-.318.224-.08.026-.216.124-.215.224.002.115.005.05.012.17-.02.012-.02-.004-.03-.024m-7.654-.012c.018.072.007.127-.026.2-.053.1-.112.063-.165.128a.64.64 0 0 0-.079.362c-.17.058-.01.227-.015.35-.003.05-.04.105-.045.16a.76.76 0 0 0 .068.37c.097.198.268.413.435.544.2.148.365.572.608.63.177.042.384-.104.543-.143.18-.043.397.01.57-.053.222-.08.127-.337.288-.45.104-.074.287-.01.406-.05.2-.07.34-.263.376-.46.016-.082.01-.145.04-.22.038-.103.1-.16.1-.293-.01-.062-.052-.12-.064-.187-.022-.114.002-.224 0-.337-.003-.2.017-.38-.078-.55-.38-.688-1.236-.93-1.975-.8-.18.036-.286.128-.44.2-.17.088-.14.166-.318.224-.082.026-.216.123-.215.223.001.115.005.05.01.17-.02.01-.02-.005-.03-.025m-7.655.017c.018.072.008.127-.026.2-.052.1-.113.063-.165.128a.63.63 0 0 0-.079.362c-.17.058-.01.227-.015.35-.002.05-.04.105-.045.16a.76.76 0 0 0 .068.37C.33-1 .5-.795.668-.664c.2.148.365.572.608.63.178.042.384-.104.543-.143.18-.043.398.01.572-.052.222-.08.127-.337.288-.45.104-.074.287-.01.406-.05.2-.07.34-.263.376-.46.016-.082.01-.145.04-.22.038-.103.1-.16.1-.293-.01-.062-.05-.12-.064-.187-.02-.114.002-.224 0-.337-.003-.2.017-.38-.078-.55-.38-.688-1.236-.93-1.975-.8-.18.035-.286.127-.442.208-.17.088-.14.166-.318.224-.08.026-.215.123-.215.223.002.115.005.05.012.17C.5-2.73.5-2.746.49-2.766"/></g></pattern><path d="M47.775 24.82c0 1.3 0 1.984.212 2.165.17.152.432.224 1.22.224.535 0 .925-.012 1.177-.284a1.28 1.28 0 0 0 .26-.603c.008-.1.03-.15.1-.15s.08.05.08.17a7.99 7.99 0 0 1-.152 1.16c-.063.22-.113.272-.634.272-1.45 0-2.115-.062-2.932-.062l-1.268.03c-.13 0-.202-.03-.202-.1 0-.05.042-.08.162-.08a1.6 1.6 0 0 0 .363-.041c.2-.04.252-.262.293-.552.05-.426.05-1.22.05-2.147V23.05l-.02-2.135c-.022-.343-.1-.504-.432-.574-.084-.02-.203-.03-.332-.03-.112 0-.17-.02-.17-.1s.07-.1.222-.1l1.378.03 1.37-.03c.142 0 .2.02.2.1s-.06.1-.182.1a2.69 2.69 0 0 0-.392.03c-.272.05-.354.223-.375.574l-.018 2.135v1.773zm5.185-1.772l-.018-2.135c-.02-.343-.12-.513-.344-.564-.1-.03-.243-.04-.363-.04-.1 0-.162-.02-.162-.1 0-.06.082-.08.243-.08l1.3.03 1.23-.03c.13 0 .2.02.2.08 0 .08-.06.1-.16.1a1.69 1.69 0 0 0-.3.03c-.272.05-.352.223-.373.574-.02.322-.02.605-.02 2.135v1.773l.042 2.207c.03.27.1.452.404.492.14.02.36.04.512.04.108 0 .16.03.16.08 0 .072-.08.1-.192.1-.664 0-1.3-.03-1.57-.03l-1.27.03c-.13 0-.202-.03-.202-.1 0-.05.04-.08.16-.08a1.58 1.58 0 0 0 .363-.041c.202-.04.26-.212.3-.504.05-.423.05-1.216.05-2.195v-1.772zm5.3 0l-.02-2.135c-.02-.343-.1-.504-.434-.574-.08-.02-.252-.03-.394-.03-.1 0-.17-.02-.17-.1s.073-.1.223-.1l1.37.03 1.228-.03c1.823 0 2.147.978 2.147 1.512 0 .825-.476 1.317-1.03 1.76.825.283 1.834 1 1.834 2.177 0 1.077-.838 2.197-2.7 2.197-.24 0-1.156-.062-1.46-.062l-1.27.03c-.13 0-.2-.03-.2-.1 0-.05.04-.08.16-.08a1.57 1.57 0 0 0 .365-.041c.2-.04.25-.262.3-.552.05-.426.05-1.22.05-2.147V23.04zm1.2.172c0 .08.028.1.07.1.092.02.243.03.474.03.33 0 .552-.04.724-.2.262-.214.413-.576.413-1.07 0-.672-.393-1.56-1.257-1.56a1.64 1.64 0 0 0-.333.02c-.07.02-.1.06-.1.17zm1.328.806c-.2-.15-.443-.222-.835-.243l-.434-.01c-.04 0-.06.02-.06.07v2.387c0 .664.028.835.353.966a2 2 0 0 0 .736.12c.452 0 1.216-.242 1.216-1.288 0-.627-.2-1.473-.977-2.006zm5.148-.978l-.022-2.135c-.02-.343-.1-.504-.433-.574a2.05 2.05 0 0 0-.394-.03c-.108 0-.17-.02-.17-.1s.07-.1.222-.1l1.38.03 1.42-.03c.635 0 1.3.062 1.853.435.283.2.685.703.685 1.38 0 .745-.313 1.428-1.33 2.255l2.186 2.65c.565.58.978.653 1.127.682.112.02.204.03.284.03s.12.03.12.08c0 .082-.072.1-.193.1h-.957c-.564 0-.813-.05-1.08-.2-.43-.232-.813-.703-1.38-1.48l-.996-1.4c-.05-.06-.112-.07-.18-.07l-.878-.02c-.05 0-.08.02-.08.08v.142l.05 2.156c.03.3.1.512.392.552a4.36 4.36 0 0 0 .495.041c.078 0 .118.03.118.08 0 .072-.07.1-.2.1-.585 0-1.33-.03-1.483-.03l-1.228.03c-.13 0-.2-.03-.2-.1 0-.05.04-.08.16-.08a1.57 1.57 0 0 0 .363-.041c.202-.04.252-.262.3-.552.053-.426.053-1.22.053-2.147zm1.187.796c0 .1.02.15.1.182a2.62 2.62 0 0 0 .766.102c.402 0 .533-.042.714-.173.3-.222.595-.685.595-1.5 0-1.43-.946-1.846-1.543-1.846-.25 0-.432.01-.532.043-.07.02-.1.06-.1.14v3.063z"/><path d="M74.505 25.113c-.05 0-.07.02-.1.08l-.545 1.44c-.1.25-.15.493-.15.614 0 .18.1.313.402.313h.15c.12 0 .15.018.15.08 0 .082-.06.1-.17.1-.323 0-.755-.03-1.07-.03l-1.188.03c-.13 0-.2-.02-.2-.1 0-.06.04-.08.12-.08a3.38 3.38 0 0 0 .314-.02c.463-.062.654-.404.855-.907l2.528-6.325c.12-.3.182-.402.283-.402s.15.1.25.323l2.497 6.193c.384.906.677 1.046.886 1.098.153.03.302.04.422.04.082 0 .133.01.133.08 0 .082-.092.1-.465.1-.363 0-1.097 0-1.902-.02-.18-.01-.304-.01-.304-.082 0-.06.043-.08.142-.1.072-.02.14-.1.1-.232l-.804-2.137c-.02-.05-.052-.07-.1-.07h-2.247zm2.056-.503c.05 0 .06-.03.05-.06l-.908-2.486c-.01-.042-.02-.092-.05-.092s-.05.05-.06.092l-.928 2.476c-.01.04 0 .07.04.07zm4.945-1.562l-.02-2.135c-.022-.343-.102-.504-.436-.574a2.1 2.1 0 0 0-.4-.03c-.1 0-.172-.02-.172-.1s.07-.1.222-.1l1.38.03 1.42-.03c.634 0 1.308.062 1.853.435.282.2.684.703.684 1.38 0 .745-.3 1.428-1.33 2.255l2.187 2.65c.563.58.976.653 1.125.682.1.02.204.03.283.03s.122.03.122.08c0 .082-.07.1-.194.1h-.955c-.564 0-.815-.05-1.078-.2-.43-.232-.815-.703-1.378-1.48l-1-1.4c-.047-.06-.1-.07-.178-.07l-.876-.02c-.052 0-.08.02-.08.08v.142l.05 2.156c.032.3.092.512.392.552a4.42 4.42 0 0 0 .496.041c.08 0 .12.03.12.08 0 .072-.072.1-.202.1-.583 0-1.33-.03-1.48-.03l-1.23.03c-.13 0-.2-.03-.2-.1 0-.05.04-.08.162-.08a1.58 1.58 0 0 0 .362-.041c.198-.04.25-.262.293-.552.05-.426.05-1.22.05-2.147zm1.187.796c0 .1.02.15.1.182.2.07.513.102.765.102.404 0 .534-.042.715-.173.302-.222.594-.685.594-1.5 0-1.43-.947-1.846-1.54-1.846-.253 0-.434.01-.535.043-.072.02-.1.06-.1.14zm7.907 1.3c0-.544-.103-.764-.233-1.06a73.78 73.78 0 0 0-1.773-2.9c-.25-.372-.504-.623-.696-.733-.128-.07-.302-.132-.422-.132-.08 0-.153-.02-.153-.1 0-.06.072-.1.193-.1l1.27.03 1.078-.03c.1 0 .15.03.15.1s-.07.07-.22.1c-.1.02-.14.1-.14.18s.05.203.122.343c.138.303 1.55 2.73 1.7 3 .1-.242 1.37-2.457 1.513-2.768.098-.223.138-.393.138-.525 0-.102-.04-.2-.212-.252-.1-.02-.18-.04-.18-.1 0-.07.05-.1.17-.1l.948.03 1.078-.03c.1 0 .18.02.18.08 0 .07-.082.1-.192.1-.1 0-.3.04-.443.12-.2.102-.323.224-.542.495-.33.402-1.74 2.77-1.923 3.203-.153.362-.153.676-.153 1.006v.826l.03 1c.02.3.113.512.413.552a4.03 4.03 0 0 0 .504.041c.1 0 .162.03.162.08 0 .072-.08.1-.212.1-.63 0-1.268-.03-1.54-.03l-1.258.03c-.14 0-.222-.02-.222-.1 0-.05.05-.08.162-.08a1.57 1.57 0 0 0 .352-.041c.2-.04.294-.262.3-.552l.032-1V25.1zm6.836-1.197c0-1.723 1.14-3.95 4.16-3.95 2.508 0 4.067 1.46 4.067 3.767s-1.6 4.128-4.167 4.128c-2.892 0-4.06-2.165-4.06-3.946zm6.82.2c0-2.258-1.3-3.66-2.95-3.66-1.16 0-2.478.645-2.478 3.154 0 2.095 1.158 3.756 3.1 3.756.704 0 2.337-.34 2.337-3.25zm5.224.683l.052 2.147c.03.3.088.512.4.552a4.08 4.08 0 0 0 .505.041c.132 0 .173.03.173.08 0 .072-.072.1-.224.1-.635 0-1.267-.03-1.53-.03l-1.28.03c-.14 0-.2-.02-.2-.1 0-.05.04-.08.15-.08a1.58 1.58 0 0 0 .363-.041c.2-.04.252-.262.292-.552.05-.426.05-1.18.05-2.147v-1.773l-.02-2.135c-.02-.343-.1-.504-.433-.574a2.13 2.13 0 0 0-.4-.03c-.103 0-.174-.02-.174-.08 0-.08.082-.102.233-.102l1.45.03 2.66-.01c.2-.01.3-.01.4-.042.06-.02.112-.058.164-.058.04 0 .068.04.068.1 0 .07-.05.2-.08.453-.012.1-.032.695-.05.815-.012.08-.028.142-.1.142s-.1-.053-.1-.162c0-.08 0-.242-.06-.382-.07-.143-.283-.3-.663-.302l-1.553-.032c-.06 0-.1.032-.1.142v2.518c0 .06.01.1.07.1l1.288-.01.452-.012c.192-.01.335-.05.434-.18.053-.06.072-.1.13-.1.042 0 .063.03.063.1s-.052.312-.084.622l-.038.738c0 .1 0 .2-.1.2-.06 0-.08-.07-.08-.142a1.1 1.1 0 0 0-.06-.31c-.053-.143-.203-.323-.515-.363-.25-.03-1.32-.03-1.5-.03-.05 0-.07.022-.07.1v.816zM46.666 37.485c-.986-.865-1.248-1.994-1.248-2.97 0-.686.212-1.874 1.18-2.76.723-.663 1.682-1.07 3.18-1.07a9.74 9.74 0 0 1 1.462.102l1.007.17c.1.01.152.06.152.122 0 .08-.03.202-.05.555l-.03 1.087c-.01.15-.03.233-.12.233-.08 0-.102-.082-.102-.223a1.44 1.44 0 0 0-.393-.928c-.333-.35-1.117-.622-2.043-.622-.88 0-1.45.222-1.894.622-.733.676-.926 1.635-.926 2.612C46.84 36.8 48.662 38 50 38c.896 0 1.44-.1 1.842-.564a1.71 1.71 0 0 0 .344-.666c.03-.16.05-.202.132-.202.07 0 .087.072.087.15 0 .122-.12 1-.22 1.34a.36.36 0 0 1-.263.292c-.403.163-1.167.233-1.813.233-1.38 0-2.538-.3-3.455-1.098zm7.564-2.85c0-1.725 1.138-3.95 4.16-3.95 2.507 0 4.068 1.46 4.068 3.772 0 2.3-1.6 4.126-4.168 4.126-2.892 0-4.06-2.166-4.06-3.946zm6.818.2c0-2.255-1.3-3.656-2.95-3.656-1.16 0-2.48.644-2.48 3.154 0 2.094 1.16 3.758 3.093 3.758.705 0 2.336-.344 2.336-3.256zm4.888 2.247c.023.784.15 1.046.353 1.12.17.06.363.07.525.07.1 0 .17.02.17.08 0 .08-.094.1-.232.1-.655 0-1.058-.03-1.25-.03l-1.1.03c-.13 0-.222-.01-.222-.1 0-.06.06-.08.16-.08a1.8 1.8 0 0 0 .453-.049c.264-.08.3-.374.312-1.25L65.2 31c0-.2.03-.344.13-.344s.203.132.374.314l5.338 5.53h.05l-.1-4.523c-.013-.613-.1-.806-.343-.907-.15-.058-.394-.058-.533-.058-.12 0-.163-.03-.163-.093 0-.082.1-.1.262-.1l1.22.03.986-.03c.13 0 .23.007.23.1 0 .06-.06.093-.182.093-.1 0-.18 0-.3.03-.28.08-.362.3-.373.855l-.112 6.356c0 .22-.038.3-.13.3-.113 0-.235-.1-.343-.222l-2.973-2.96-2.396-2.54h-.03zm15.794.685c0 .272-.01.3-.133.364-.655.343-1.642.453-2.426.453-2.468 0-4.652-1.167-4.652-3.946 0-1.613.834-2.74 1.75-3.295.966-.583 1.86-.656 2.708-.656a12.08 12.08 0 0 1 1.784.163 5.91 5.91 0 0 0 .795.11c.122.01.14.053.14.122 0 .1-.07.393-.07 1.65 0 .162-.032.2-.1.2s-.093-.05-.1-.13c-.032-.234-.083-.553-.342-.837-.303-.32-1.1-.785-2.247-.785-.554 0-1.3.04-1.996.623-.563.475-.926 1.23-.926 2.467 0 2.166 1.382 3.788 3.507 3.788.26 0 .612 0 .856-.1.15-.07.2-.203.2-.374v-.945l-.01-1.2c-.01-.34-.1-.504-.433-.576a2.19 2.19 0 0 0-.393-.029c-.1 0-.152-.02-.152-.08 0-.08.074-.102.213-.102l1.46.03 1.178-.03c.132 0 .202.022.202.102 0 .06-.06.08-.132.08-.08 0-.15.01-.27.03-.274.053-.375.225-.385.576l-.008 1.207v1.108zm3.564-4.017l-.02-2.138c-.02-.342-.1-.502-.433-.573-.08-.02-.252-.03-.394-.03-.1 0-.17-.023-.17-.093s.07-.1.22-.1l1.38.03 1.42-.03c.634 0 1.3.062 1.85.433.283.192.686.706.686 1.38 0 .745-.3 1.43-1.33 2.257l2.187 2.647c.564.586.978.655 1.13.686a1.47 1.47 0 0 0 .281.03c.082 0 .12.03.12.08 0 .08-.068.1-.2.1h-.957c-.564 0-.815-.05-1.077-.2-.435-.234-.816-.707-1.38-1.482l-.996-1.4c-.05-.06-.113-.072-.183-.072l-.874-.018c-.052 0-.082.018-.082.078v.14l.05 2.158c.03.293.093.513.393.554l.493.04c.08 0 .12.03.12.08 0 .07-.07.1-.2.1-.585 0-1.33-.03-1.48-.03l-1.228.03c-.13 0-.2-.03-.2-.1 0-.05.04-.08.16-.08a1.67 1.67 0 0 0 .363-.04c.202-.042.252-.262.293-.554.05-.425.05-1.22.05-2.146v-1.77zm1.187.794c0 .1.02.15.094.18.206.07.5.1.762.1.404 0 .533-.04.716-.17.3-.22.593-.685.593-1.5 0-1.428-.948-1.84-1.54-1.84-.253 0-.434.01-.532.038-.074.022-.094.062-.094.144zm7.372-.794l-.02-2.138c-.02-.342-.1-.502-.433-.573-.08-.02-.252-.03-.393-.03-.1 0-.172-.023-.172-.093s.07-.1.222-.1l1.452.03 2.517-.012.433-.06c.05-.01.1-.038.16-.038s.06.038.06.087c0 .073-.052.192-.083.656l-.048.665c-.01.052-.032.1-.102.1s-.093-.05-.093-.14c0-.07-.01-.242-.06-.36-.07-.183-.172-.303-.676-.362-.17-.02-1.228-.04-1.43-.04-.05 0-.07.03-.07.1v2.547c0 .07.01.114.07.114l1.6-.022c.242-.02.394-.05.484-.15.07-.08.112-.13.162-.13.04 0 .07.02.07.082s-.05.222-.08.735l-.04.672c0 .082 0 .194-.092.194-.07 0-.1-.042-.1-.1-.01-.104-.01-.234-.04-.365-.05-.2-.192-.352-.563-.393a35.97 35.97 0 0 0-1.432-.03c-.05 0-.06.038-.06.1v2.358c.02.695.18.845 1.2.845.26 0 .68 0 .946-.122.26-.12.38-.33.45-.745.02-.1.042-.15.112-.15.08 0 .08.08.08.18a7.88 7.88 0 0 1-.131 1.12c-.07.26-.162.26-.544.26-1.52 0-2.195-.06-2.8-.06l-1.27.03c-.13 0-.202-.03-.202-.1 0-.05.04-.08.16-.08a1.7 1.7 0 0 0 .363-.039c.198-.042.25-.262.293-.554.048-.425.048-1.22.048-2.146zm6.767 4.57c-.16-.068-.2-.12-.2-.34l.05-1.32c.01-.15.04-.26.122-.26.092 0 .1.1.1.17a2.14 2.14 0 0 0 .088.515c.22.744.817 1.018 1.443 1.018.904 0 1.347-.617 1.347-1.15 0-.494-.148-.967-.985-1.612l-.464-.36c-1.1-.868-1.5-1.57-1.5-2.388 0-1.105.925-1.905 2.325-1.905a4.75 4.75 0 0 1 1.34.175c.1.018.14.05.14.12 0 .132-.042.424-.042 1.208 0 .223-.03.302-.1.302s-.1-.06-.1-.182c0-.1-.05-.4-.262-.664-.15-.2-.442-.5-1.096-.5-.747 0-1.2.43-1.2 1.036 0 .465.233.815 1.068 1.452l.28.212c1.2.934 1.654 1.6 1.654 2.566a2.03 2.03 0 0 1-.948 1.753c-.503.322-1.066.413-1.6.413-.584 0-1.038-.07-1.47-.263zm6.82 0c-.165-.068-.2-.12-.2-.34l.048-1.32c.01-.15.04-.26.12-.26.092 0 .1.1.1.17a1.79 1.79 0 0 0 .1.515c.222.744.818 1.018 1.44 1.018.908 0 1.352-.617 1.352-1.15 0-.494-.153-.967-1-1.612l-.462-.36c-1.107-.868-1.5-1.57-1.5-2.388 0-1.105.923-1.905 2.327-1.905a4.75 4.75 0 0 1 1.34.175c.1.018.14.05.14.12 0 .132-.04.424-.04 1.208 0 .223-.03.302-.1.302s-.1-.06-.1-.182c0-.1-.052-.4-.262-.664-.15-.2-.444-.5-1.097-.5-.745 0-1.2.43-1.2 1.036 0 .465.23.815 1.068 1.452l.282.212c1.2.934 1.65 1.6 1.65 2.566 0 .584-.22 1.28-.947 1.753-.503.322-1.067.413-1.6.413-.585 0-1.04-.07-1.47-.263z"/><path d="M36.686 24.818c-1.596 0-3.263-.53-3.263-.53s-2.378-.737-4.116-.737c-2.615 0-4.404 2.158-4.404 2.158v-1.75s1.714-2.028 4.4-2.028c.974 0 2.22.053 4.286.678s3.144.547 3.144.547c2.344 0 4.628-.803 5.253-1.04v-2.4c-.667.21-3.188.963-5.298.963-1.596 0-3.263-.53-3.263-.53s-2.378-.737-4.116-.737c-2.615 0-4.404 2.157-4.404 2.157v-1.75s1.714-2.028 4.4-2.028c.974 0 2.22.053 4.286.678s3.144.547 3.144.547c2.344 0 4.628-.804 5.253-1.042v-2.652s-2.854 1.175-5.337 1.175-3.998-1.187-6.777-1.187-4.965 1.878-4.965 1.878-2.186-1.878-4.967-1.878-4.294 1.187-6.777 1.187-5.34-1.175-5.34-1.175V42.85s2.582 1.078 5.165 1.078c2.085 0 4.785-1.518 6.668-1.396 1.677.1 2.667.877 3.42 1.84a.66.66 0 0 0 .508.318h2.647s.338-.017.51-.318c.752-.963 1.74-1.73 3.418-1.84 1.883-.12 4.28 1.37 6.67 1.396 2.656.03 5.163-1.078 5.163-1.078v-2.43c-.667.212-3.188.963-5.298.963-1.596 0-3.263-.53-3.263-.53s-2.378-.737-4.116-.737c-2.615 0-4.404 2.157-4.404 2.157v-1.75s1.714-2.028 4.4-2.028c.974 0 2.22.053 4.286.678s3.144.547 3.144.547c2.344 0 4.628-.803 5.253-1.042v-2.4c-.667.212-3.188.963-5.298.963-1.596 0-3.263-.53-3.263-.53s-2.378-.737-4.116-.737c-2.615 0-4.404 2.157-4.404 2.157v-1.75s1.714-2.028 4.4-2.028c.974 0 2.22.053 4.286.678s3.144.548 3.144.548c2.344 0 4.628-.803 5.253-1.042v-2.4c-.667.212-3.188.963-5.298.963-1.596 0-3.263-.53-3.263-.53s-2.378-.737-4.116-.737c-2.615 0-4.404 2.157-4.404 2.157v-1.75s1.714-2.028 4.4-2.028c.974 0 2.22.053 4.286.678s3.144.547 3.144.547c2.344 0 4.628-.803 5.253-1.042v-2.4c-.667.21-3.188.963-5.298.963-1.596 0-3.263-.53-3.263-.53s-2.378-.737-4.116-.737c-2.615 0-4.404 2.157-4.404 2.157V28.1s1.714-2.028 4.4-2.028c.974 0 2.22.053 4.286.678s3.144.548 3.144.548c2.344 0 4.628-.804 5.253-1.042v-2.4c-.665.212-3.186.963-5.296.963z" fill="#0069aa"/><defs ><path id="B" d="M46.44-71.653c.018.072.007.127-.026.2-.053.1-.112.063-.165.128a.64.64 0 0 0-.079.362c-.17.058-.01.227-.015.35-.002.05-.04.105-.045.16-.01.12.017.266.068.37.097.198.268.413.435.544.2.148.365.572.608.63.177.042.384-.104.543-.143.18-.043.397.01.57-.053.222-.08.127-.337.288-.45.104-.074.287-.01.406-.05.2-.07.34-.263.376-.46.016-.082.01-.145.04-.22.038-.103.11-.16.1-.293-.01-.062-.052-.12-.064-.187-.022-.114.002-.224 0-.337-.003-.2.017-.38-.078-.55-.38-.688-1.236-.93-1.975-.79-.18.034-.287.126-.442.207-.17.088-.14.166-.318.224-.08.026-.216.124-.215.224.002.115.005.05.012.17-.02.01-.022-.005-.03-.025"/><path id="C" d="M15.773-71.653a.25.25 0 0 1-.026.19c-.053.1-.112.063-.165.128a.64.64 0 0 0-.079.362c-.17.058-.01.227-.015.35-.002.05-.04.105-.045.16-.01.12.017.266.068.37.097.198.268.413.435.544.2.148.365.572.608.63.177.042.384-.104.543-.143.18-.043.397.01.57-.053.222-.08.127-.337.288-.45.104-.074.287-.01.406-.05.2-.07.34-.263.376-.46.016-.082.01-.145.04-.22.038-.103.11-.16.1-.293-.01-.062-.052-.12-.065-.187-.022-.114.002-.224 0-.337-.003-.2.017-.38-.078-.55-.38-.688-1.236-.93-1.975-.79-.18.034-.287.126-.442.207-.17.088-.14.166-.318.224-.08.026-.216.124-.215.224.002.115.005.05.012.17-.02.01-.02-.005-.03-.025"/><path id="D" d="M69.44-71.653c.017.072.008.127-.026.2-.052.1-.113.063-.165.128a.63.63 0 0 0-.079.362c-.17.058-.01.227-.015.35-.002.05-.04.105-.045.16-.01.12.017.266.068.37.097.198.268.413.435.544.2.148.365.572.608.63.177.042.384-.104.543-.143.18-.043.397.01.57-.053.222-.08.127-.337.288-.45.104-.074.287-.01.406-.05.2-.07.34-.263.376-.46.016-.082.01-.145.04-.22.038-.103.11-.16.1-.293-.01-.062-.05-.12-.064-.187-.02-.114.002-.224.001-.337-.003-.2.017-.38-.078-.55-.38-.688-1.236-.93-1.975-.79-.18.034-.287.126-.442.207-.17.088-.14.166-.318.224-.08.026-.215.124-.215.224.002.115.005.05.012.17-.02.01-.02-.005-.03-.025"/><path id="E" d="M54.118-64c.018.072.007.127-.026.2-.053.1-.112.063-.165.128a.64.64 0 0 0-.079.362c-.17.058-.01.227-.015.35-.002.05-.04.105-.045.16-.01.12.017.266.068.37.097.198.268.413.435.544.2.148.365.572.608.63.177.042.384-.104.543-.143.18-.043.397.01.57-.053.222-.08.127-.337.288-.45.104-.074.287-.01.406-.05.2-.07.34-.263.376-.46.016-.082.01-.145.04-.22.038-.102.11-.16.1-.293-.01-.062-.052-.12-.064-.187-.022-.114.002-.224 0-.337-.003-.2.017-.38-.078-.55-.38-.688-1.236-.93-1.975-.79-.18.034-.287.126-.442.207-.17.088-.14.166-.318.224-.08.026-.216.124-.215.224.001.115.005.05.012.17-.02.01-.02-.005-.03-.025"/><path id="F" d="M46.458-64c.018.072.007.127-.026.2-.053.1-.112.063-.165.128a.64.64 0 0 0-.079.362c-.17.058-.01.227-.015.35-.003.05-.04.105-.045.16-.01.12.017.266.068.37.097.198.268.413.435.544.2.148.365.572.608.63.177.042.384-.104.543-.143.18-.043.397.01.57-.053.222-.08.127-.337.288-.45.104-.074.287-.01.406-.05.2-.07.34-.263.376-.46.016-.082.01-.145.04-.22.04-.102.11-.16.1-.293-.01-.062-.052-.12-.064-.187-.022-.114.002-.224 0-.337-.003-.2.017-.38-.078-.55-.38-.688-1.236-.93-1.975-.79-.18.034-.287.126-.442.207-.17.088-.14.166-.318.224-.08.026-.216.124-.215.224.001.115.005.05.012.17-.02.01-.02-.005-.03-.025"/><path id="G" d="M54.118-56.348c.018.072.007.127-.026.2-.053.1-.112.063-.165.128a.64.64 0 0 0-.079.362c-.17.058-.01.227-.015.35-.002.05-.04.106-.045.16-.01.12.017.266.068.37.097.198.268.413.435.544.2.148.365.572.608.63.177.042.384-.104.543-.143.18-.043.397.01.57-.053.222-.08.127-.337.288-.45.104-.074.287-.01.406-.05.2-.07.34-.263.376-.46.016-.082.01-.145.04-.22.038-.103.11-.16.1-.293-.01-.062-.052-.12-.064-.187-.022-.114.002-.224 0-.337-.003-.2.017-.38-.078-.55-.38-.688-1.236-.93-1.975-.79-.18.034-.287.126-.442.207-.17.088-.14.166-.318.224-.08.026-.216.124-.215.224.001.115.005.05.012.17-.02.01-.02-.005-.03-.025"/><path id="H" d="M46.458-56.348c.018.072.007.127-.026.2-.053.1-.112.063-.165.128a.64.64 0 0 0-.079.362c-.17.058-.01.227-.015.35-.003.05-.04.106-.045.16-.01.12.017.266.068.37.097.198.268.413.435.544.2.148.365.572.608.63.177.042.384-.104.543-.143.18-.043.397.01.57-.053.222-.08.127-.337.288-.45.104-.074.287-.01.406-.05.2-.07.34-.263.376-.46.016-.082.01-.145.04-.22.04-.103.11-.16.1-.293-.01-.062-.052-.12-.064-.187-.022-.114.002-.224 0-.337-.003-.2.017-.38-.078-.55-.38-.688-1.236-.93-1.975-.79-.18.034-.287.126-.442.207-.17.088-.14.166-.318.224-.08.026-.216.124-.215.224.001.115.005.05.012.17-.02.01-.02-.005-.03-.025"/><path id="I" d="M61.778-48.695c.018.072.007.127-.026.2-.053.1-.112.063-.165.128a.64.64 0 0 0-.079.362c-.17.058-.01.226-.015.35-.002.05-.04.105-.045.16-.01.12.017.266.068.37.097.198.268.413.435.544.2.148.365.572.608.63.177.042.384-.104.543-.143.18-.043.397.01.57-.053.222-.08.127-.337.288-.45.104-.074.287-.01.406-.05.2-.07.34-.263.376-.46.016-.082.01-.145.04-.22.04-.103.11-.16.1-.293-.01-.062-.052-.12-.064-.187-.022-.114.002-.224 0-.337-.003-.2.017-.38-.078-.55-.38-.688-1.236-.93-1.975-.79-.18.034-.287.126-.442.207-.17.088-.14.166-.318.224-.08.026-.216.124-.215.224.001.115.005.05.012.17-.02.01-.02-.005-.03-.025"/><path id="J" d="M54.118-48.695c.018.072.007.127-.026.2-.053.1-.112.063-.165.128a.64.64 0 0 0-.079.362c-.17.058-.01.226-.015.35-.002.05-.04.105-.045.16-.01.12.017.266.068.37.097.198.268.413.435.544.2.148.365.572.608.63.177.042.384-.104.543-.143.18-.043.397.01.57-.053.222-.08.127-.337.288-.45.104-.074.287-.01.406-.05.2-.07.34-.263.376-.46.016-.082.01-.145.04-.22.038-.103.11-.16.1-.293-.01-.062-.052-.12-.064-.187-.022-.114.002-.224 0-.337-.003-.2.017-.38-.078-.55-.38-.688-1.236-.93-1.975-.79-.18.034-.287.126-.442.207-.17.088-.14.166-.318.224-.08.026-.216.124-.215.224.001.115.005.05.012.17-.02.01-.02-.005-.03-.025"/><path id="K" d="M46.458-48.695c.018.072.007.127-.026.2-.053.1-.112.063-.165.128a.64.64 0 0 0-.079.362c-.17.058-.01.226-.015.35-.003.05-.04.105-.045.16-.01.12.017.266.068.37.097.198.268.413.435.544.2.148.365.572.608.63.177.042.384-.104.543-.143.18-.043.397.01.57-.053.222-.08.127-.337.288-.45.104-.074.287-.01.406-.05.2-.07.34-.263.376-.46.016-.082.01-.145.04-.22.04-.103.11-.16.1-.293-.01-.062-.052-.12-.064-.187-.022-.114.002-.224 0-.337-.003-.2.017-.38-.078-.55-.38-.688-1.236-.93-1.975-.79-.18.034-.287.126-.442.207-.17.088-.14.166-.318.224-.08.026-.216.124-.215.224.001.115.005.05.012.17-.02.01-.02-.005-.03-.025"/><path id="L" d="M61.778-41.042c.018.072.007.127-.026.2-.053.1-.112.063-.165.128a.64.64 0 0 0-.079.362c-.17.058-.01.227-.015.35-.002.05-.04.105-.045.16-.01.12.017.266.068.37.097.198.268.413.435.544.2.148.365.572.608.63.177.042.384-.104.543-.143.18-.043.397.01.57-.053.222-.08.127-.337.288-.45.104-.074.287-.01.406-.05.2-.07.34-.263.376-.46.016-.082.01-.145.04-.22.04-.103.11-.16.1-.293-.01-.062-.052-.12-.064-.187-.022-.114.002-.224 0-.337-.003-.2.017-.38-.078-.55-.38-.688-1.236-.93-1.975-.79-.18.034-.287.126-.442.207-.17.088-.14.166-.318.224-.08.026-.216.124-.215.224.001.115.005.05.012.17-.02.01-.02-.005-.03-.025"/><path id="M" d="M46.458-41.042c.018.072.007.127-.026.2-.053.1-.112.063-.165.128a.64.64 0 0 0-.079.362c-.17.058-.01.227-.015.35-.003.05-.04.105-.045.16-.01.12.017.266.068.37.097.198.268.413.435.544.2.148.365.572.608.63.177.042.384-.104.543-.143.18-.043.397.01.57-.053.222-.08.127-.337.288-.45.104-.074.287-.01.406-.05.2-.07.34-.263.376-.46.016-.082.01-.145.04-.22.04-.103.11-.16.1-.293-.01-.062-.052-.12-.064-.187-.022-.114.002-.224 0-.337-.003-.2.017-.38-.078-.55-.38-.688-1.236-.93-1.975-.79-.18.034-.287.126-.442.207-.17.088-.14.166-.318.224-.08.026-.216.124-.215.224.001.115.005.05.012.17-.02.01-.02-.005-.03-.025"/><path id="N" d="M54.118-33.4c.018.072.007.127-.026.2-.053.1-.112.063-.165.128a.64.64 0 0 0-.079.362c-.17.058-.01.227-.015.35-.002.05-.04.106-.045.16-.01.12.017.266.068.37.097.198.268.413.435.544.2.15.365.572.608.63.177.042.384-.104.543-.143.18-.043.397.01.57-.053.222-.08.127-.337.288-.45.104-.074.287-.01.406-.05.2-.07.34-.263.376-.46.016-.082.01-.144.04-.22.038-.103.11-.16.1-.293-.01-.062-.052-.12-.064-.187-.022-.114.002-.224 0-.337-.003-.2.017-.38-.078-.55-.38-.688-1.236-.93-1.975-.79-.18.034-.287.126-.442.207-.17.088-.14.166-.318.224-.08.026-.216.124-.215.224.001.115.005.05.012.17-.02.01-.02-.005-.03-.025"/><path id="O" d="M46.458-33.4c.018.072.007.127-.026.2-.053.1-.112.063-.165.128a.64.64 0 0 0-.079.362c-.17.058-.01.227-.015.35-.003.05-.04.106-.045.16-.01.12.017.266.068.37.097.198.268.413.435.544.2.15.365.572.608.63.177.042.384-.104.543-.143.18-.043.397.01.57-.053.222-.08.127-.337.288-.45.104-.074.287-.01.406-.05.2-.07.34-.263.376-.46.016-.082.01-.144.04-.22.04-.103.11-.16.1-.293-.01-.062-.052-.12-.064-.187-.022-.114.002-.224 0-.337-.003-.2.017-.38-.078-.55-.38-.688-1.236-.93-1.975-.79-.18.034-.287.126-.442.207-.17.088-.14.166-.318.224-.08.026-.216.124-.215.224.001.115.005.05.012.17-.02.01-.02-.005-.03-.025"/><path id="P" d="M61.778-25.736c.018.072.007.127-.026.2-.053.1-.112.063-.165.128a.64.64 0 0 0-.079.362c-.17.058-.01.227-.015.35-.002.05-.04.106-.045.16-.01.12.017.266.068.37.097.198.268.413.435.544.2.148.365.572.608.63.177.042.384-.104.543-.143.18-.043.397.01.57-.053.222-.08.127-.337.288-.45.104-.074.287-.01.406-.05.2-.07.34-.263.376-.46.016-.082.01-.145.04-.22.04-.102.11-.16.1-.293-.01-.06-.052-.12-.064-.186-.022-.114.002-.224 0-.337-.003-.2.017-.38-.078-.55-.38-.688-1.236-.93-1.975-.79-.18.034-.287.126-.442.207-.17.088-.14.166-.318.224-.08.026-.216.124-.215.224.001.115.005.05.012.17-.02.01-.02-.005-.03-.025"/><path id="Q" d="M54.118-25.736c.018.072.007.127-.026.2-.053.1-.112.063-.165.128a.64.64 0 0 0-.079.362c-.17.058-.01.227-.015.35-.002.05-.04.106-.045.16-.01.12.017.266.068.37.097.198.268.413.435.544.2.148.365.572.608.63.177.042.384-.104.543-.143.18-.043.397.01.57-.053.222-.08.127-.337.288-.45.104-.074.287-.01.406-.05.2-.07.34-.263.376-.46.016-.082.01-.145.04-.22.038-.102.11-.16.1-.293-.01-.06-.052-.12-.064-.186-.022-.114.002-.224 0-.337-.003-.2.017-.38-.078-.55-.38-.688-1.236-.93-1.975-.79-.18.034-.287.126-.442.207-.17.088-.14.166-.318.224-.08.026-.216.124-.215.224.001.115.005.05.012.17-.02.01-.02-.005-.03-.025"/><path id="R" d="M46.458-25.736c.018.072.007.127-.026.2-.053.1-.112.063-.165.128a.64.64 0 0 0-.079.362c-.17.058-.01.227-.015.35-.003.05-.04.106-.045.16-.01.12.017.266.068.37.097.198.268.413.435.544.2.148.365.572.608.63.177.042.384-.104.543-.143.18-.043.397.01.57-.053.222-.08.127-.337.288-.45.104-.074.287-.01.406-.05.2-.07.34-.263.376-.46.016-.082.01-.145.04-.22.04-.102.11-.16.1-.293-.01-.06-.052-.12-.064-.186-.022-.114.002-.224 0-.337-.003-.2.017-.38-.078-.55-.38-.688-1.236-.93-1.975-.79-.18.034-.287.126-.442.207-.17.088-.14.166-.318.224-.08.026-.216.124-.215.224.001.115.005.05.012.17-.02.01-.02-.005-.03-.025"/><path id="S" d="M54.118-18.084c.018.072.007.127-.026.2-.053.1-.112.063-.165.128a.64.64 0 0 0-.079.362c-.17.058-.01.226-.015.35-.002.05-.04.105-.045.16-.01.12.017.266.068.37.097.198.268.413.435.544.2.148.365.572.608.63.177.042.384-.104.543-.142.18-.043.397.01.57-.053.222-.08.127-.337.288-.45.104-.074.287-.01.406-.05.2-.07.34-.263.376-.46.016-.082.01-.144.04-.22.038-.103.11-.16.1-.293-.01-.062-.052-.12-.064-.187-.022-.114.002-.224 0-.337-.003-.2.017-.38-.078-.55-.38-.688-1.236-.93-1.975-.79-.18.034-.287.126-.442.207-.17.088-.14.166-.318.224-.08.026-.216.124-.215.224.001.115.005.05.012.17-.02.01-.02-.005-.03-.025"/><path id="T" d="M46.458-18.084c.018.072.007.127-.026.2-.053.1-.112.063-.165.128a.64.64 0 0 0-.079.362c-.17.058-.01.226-.015.35-.003.05-.04.105-.045.16-.01.12.017.266.068.37.097.198.268.413.435.544.2.148.365.572.608.63.177.042.384-.104.543-.142.18-.043.397.01.57-.053.222-.08.127-.337.288-.45.104-.074.287-.01.406-.05.2-.07.34-.263.376-.46.016-.082.01-.144.04-.22.04-.103.11-.16.1-.293-.01-.062-.052-.12-.064-.187-.022-.114.002-.224 0-.337-.003-.2.017-.38-.078-.55-.38-.688-1.236-.93-1.975-.79-.18.034-.287.126-.442.207-.17.088-.14.166-.318.224-.08.026-.216.124-.215.224.001.115.005.05.012.17-.02.01-.02-.005-.03-.025"/><path id="U" d="M46.458-10.43a.25.25 0 0 1-.026.191c-.053.1-.112.063-.165.128a.64.64 0 0 0-.079.362c-.17.058-.01.227-.015.35-.003.05-.04.105-.045.16-.01.12.017.266.068.37.097.198.268.413.435.544.2.148.365.572.608.63.177.042.384-.104.543-.143.18-.043.397.01.57-.053.222-.08.127-.337.288-.45.104-.074.287-.01.406-.05.2-.07.34-.263.376-.46.016-.082.01-.145.04-.22.04-.103.11-.16.1-.293-.01-.062-.052-.12-.064-.187-.022-.114.002-.224 0-.337-.003-.2.017-.38-.078-.55-.38-.688-1.236-.93-1.975-.79-.18.034-.287.126-.442.207-.17.088-.14.166-.318.224-.08.026-.216.124-.215.224.001.115.005.05.012.17-.02.01-.02-.005-.03-.025"/></defs></svg>