<svg xmlns="http://www.w3.org/2000/svg" height="60" width="120"><g fill="#131b28"><path d="M52.538 26.516L51.8 29.13l.738-2.615zm3.796 5.678l-.813-.005.813.005zm-.2 3.906l-4.872.018 4.872-.018zm1.02-3.9l-.814-.005.814.005zm-.592 3.57l.85-3.237-.85 3.237zm17.94-14.9l-1.58 7.433 1.58-7.433zm-4.064-.01l-1.2 5.553 1.2-5.553z"/><path d="M74.22 20.527h-3.38c-.188 0-.374.15-.414.334l-2.4 11.107c-.04.183-.226.333-.413.333H65.22c-2.368 0-2.094-1.637-1.6-3.88l.015-.068.287-1.53.124-.63 1.092-5.332c.038-.184-.085-.335-.273-.335h-3.47a.44.44 0 0 0-.412.334L59.4 28.274c-.86 3.924-.632 7.666 4.04 7.783h7.467c.188 0 .373-.15.413-.334l3.162-14.866c.04-.184-.083-.334-.27-.334zM87.7 32.34c.188 0 .3.15.273.334l-.328 1.605m-.32 1.605l.328-1.606-.328 1.606zm-.4.338l-6.23.03 6.23-.03z"/><path d="M78.667 30.273c-.003-.176.197-.478.385-.478l-.422-.007c-.2 1.914.037.485.037.485zm2.325 5.977h-.065.065zm6.708-3.9c.188 0 .3.15.273.334L87.6 34.54m-5.008 1.707h-.014.014zm-.83.003h-.048.048zm-.252 0h-.08.08zm-.258 0h-.07.07zm.462 0h-.205.205z"/><path d="M82.58 36.247l-.816.003.816-.003zm4.337-.027l-4.325.026 4.325-.026zm.4-.335l.275-1.344-.275 1.345zm-5.896.365h-.178.178zm-.505.002h-.24.24zm.254-.002h-.2.2zm-49.458-5.937l.525-2.328-.6 2.66-.07.334.146-.668zM38 20.488h-3.713a.45.45 0 0 0-.417.333l-.704 3.1a.26.26 0 0 0 .266.333h3.742c.188 0 .374-.15.414-.333l.68-3.107c.04-.183-.08-.333-.27-.333zm-.8 5.17l-1.1 5.038 1.1-5.038zM26.414 42.35l3.062.024c-.904 0-2.397-.017-3.063-.025z"/><path d="M32.773 25.657l-.526 2.328.526-2.328zm4.16-.334H33.2a.45.45 0 0 0-.417.333l-1.05 4.656-.146.668-1 4.753a7.16 7.16 0 0 1-.18.657s-.7 2.08-1.874 2.057l-1.165-.022a.45.45 0 0 0-.42.326l-.776 3.262a.26.26 0 0 0 .261.336l3.063.025c2.936 0 4.483-1.627 5.476-6.307l2.25-10.4c.04-.183-.082-.333-.27-.333zm53.16 10.737c-.188 0-.3-.15-.27-.334L92.64 22.54m1.366 13.186l1.14-5.628-1.14 5.628z"/><path d="M89.865 35.894c-.023-.092-.01-.317.03-.5l1.336-6.26-1.408 6.593c-.04.184.082.334.27.334h.342c-.188 0-.548-.075-.57-.167zm3.92.092c-.102.04-.34.075-.528.075h.342a.44.44 0 0 0 .41-.335l.068-.334c-.037.184-.2.553-.3.594zm.792-3.074l.503-2.484-.503 2.484zm11.108-9.488l.155.64c.043.183-.076.332-.263.333"/><path d="M94.075 35.392l.5-2.48-.5 2.48zm11.455-12.625l.153.656-.153-.656zM95.08 30.43l.138-.664.537-2.515-.608 2.848-.067.33zm-2.395-8.106l-.117.55-1.336 6.26 1.408-6.593.045-.216z"/><path d="M105.84 24.064l-.155-.64-.23-1c-.304-1.18-1.196-1.863-3.134-1.863l-8.92-.006a.44.44 0 0 0-.412.334l-.138.653-.2.987-2.744 12.853c-.04.184-.053.4-.03.5s.383.167.57.167h2.82c.188 0 .425-.034.528-.075s.254-.4.3-.594l1.07-5.294 1.145-5.364c.04-.183.225-.332.412-.333l8.873-.004c.187 0 .306-.15.263-.333zm11.422-5.794l-.683.003h-2.84a.73.73 0 0 0-.534.282l-6.28 9.2c-.106.155-.227.132-.27-.05l-.462-2.027a.45.45 0 0 0-.417-.333h-4.037c-.188 0-.3.147-.248.328l1.8 6.338c.052.18.055.477.01.66l-.8 3.067a.25.25 0 0 0 .257.331h4c.188 0 .38-.15.426-.33l.8-3.067a2.04 2.04 0 0 1 .29-.604l10.196-13.532c.113-.15.052-.272-.136-.27l-1.07.007zm-32.076 7.938c-.024.2-.212.35-.4.35h-5.12c-.177 0-.267-.12-.24-.27l.004-.027.023-.087c.5-1.3 1.485-2.153 3.356-2.153 2.107 0 2.518 1.03 2.375 2.187zm-1.5-5.908c-6.57 0-8.127 3.988-9 8.013-.874 4.103-.798 7.94 6 7.94h1.078l.83-.003 4.326-.026a.44.44 0 0 0 .407-.335l.657-3.212c.038-.184-.085-.334-.273-.334H81.6c-2.43 0-3.153-.646-2.887-2.545h9.77c.16-.003.305-.1.362-.252.01-.027.02-.056.024-.085 1.45-5.47 1.034-9.157-5.18-9.157zM52.63 26.187l-.092.327c0 .001-.738 2.616-.738 2.616l-.738 2.614a.48.48 0 0 1-.434.328h-3.905c-2.962 0-3.683-2.317-2.962-5.734.72-3.495 2.135-5.668 5.05-5.888 3.984-.3 4.78 2.502 3.82 5.736zm2.678 5.685s1.84-4.47 2.26-7.053c.57-3.457-1.16-8.47-7.845-8.47-6.647 0-9.533 4.786-10.634 10-1.1 5.24.342 9.836 6.95 9.8l10.086-.037a.47.47 0 0 0 .427-.332l.85-3.238a.25.25 0 0 0-.255-.332H55.52c-.16-.001-.25-.104-.232-.24.003-.025.01-.05.02-.076z"/><path d="M88.21 28.88c0 .124-.1.224-.224.224s-.224-.1-.224-.224.1-.224.224-.224.224.1.224.224z"/></g><path d="M4.557 23.067c-1.835 2.638-1.607 6.07-.205 8.872l.103.2.066.126.04.073.073.13.134.23.076.126.155.243.066.102.225.325.044.06.205.273.077.098.2.233.072.087.264.302.016.017.268.283.086.087.214.2.088.083.293.267.056.047.267.225.1.088.222.174.12.1.25.18.116.082.242.16.105.07.38.232.105.06.285.16.158.08.204.106.047.023.083.04.323.15.068.03.377.156.092.036.355.132.045.016.396.13.096.028.4.116c8.875 1.62 11.453-5.334 11.453-5.334-2.165 2.82-6 3.565-9.65 2.737-.138-.03-.272-.074-.406-.114l-.1-.03a12.68 12.68 0 0 1-.39-.127l-.054-.02c-.116-.04-.23-.084-.345-.128l-.097-.038a11.08 11.08 0 0 1-.373-.155l-.074-.033-.314-.146-.1-.044c-.082-.04-.162-.082-.243-.124l-.162-.085a9.39 9.39 0 0 1-.291-.163l-.098-.055a14.83 14.83 0 0 1-.38-.232c-.035-.022-.068-.046-.102-.068l-.27-.18c-.03-.02-.058-.04-.087-.06l-.255-.185-.113-.085-.23-.18-.103-.082-.287-.242c-.01-.01-.02-.017-.03-.026-.102-.1-.202-.182-.302-.274l-.085-.082-.217-.212-.085-.085a11.4 11.4 0 0 1-.266-.281 12.7 12.7 0 0 1-.283-.32l-.07-.084-.194-.24-.07-.1-.224-.298C5.1 28.178 4.373 24.374 6 21.25m4.263-.405c-1.327 1.9-1.255 4.467-.22 6.486a8.45 8.45 0 0 0 .587.98c.2.285.42.624.683.853l.298.3.078.077.304.283.015.013.355.294.08.063.372.27.26.173.275.17.04.023.244.136.087.045.17.088.026.012.355.166.078.032.3.118.125.046.267.093.12.04c.128.04.254.1.387.112 6.853 1.135 8.435-4.14 8.435-4.14-1.426 2.054-4.188 3.034-7.135 2.27l-.388-.112-.117-.038-.27-.094-.123-.046-.292-.118-.08-.033-.357-.166-.18-.1-.103-.053-.28-.16-.275-.168-.26-.173-.37-.27-.083-.066c-1.3-1.018-2.313-2.4-2.8-3.988-.5-1.637-.4-3.474.483-4.965m3.69-.113c-.782 1.15-.86 2.58-.316 3.853.572 1.35 1.746 2.4 3.115 2.9l.17.06.075.024.244.07c3.784.73 4.8-1.942 5.083-2.335-.9 1.294-2.4 1.605-4.264 1.155a5.98 5.98 0 0 1-.45-.138 5.48 5.48 0 0 1-.533-.221 5.51 5.51 0 0 1-.934-.57c-1.66-1.26-2.7-3.66-1.607-5.615" fill="#0868ac"/></svg>