<?xml version="1.0" encoding="UTF-8" standalone="no"?>
<!-- Generator: Adobe Illustrator 21.1.0, SVG Export Plug-In . SVG Version: 6.00 Build 0)  -->

<svg
   xmlns:dc="http://purl.org/dc/elements/1.1/"
   xmlns:cc="http://creativecommons.org/ns#"
   xmlns:rdf="http://www.w3.org/1999/02/22-rdf-syntax-ns#"
   xmlns:svg="http://www.w3.org/2000/svg"
   xmlns="http://www.w3.org/2000/svg"
   xmlns:sodipodi="http://sodipodi.sourceforge.net/DTD/sodipodi-0.dtd"
   xmlns:inkscape="http://www.inkscape.org/namespaces/inkscape"
   version="1.1"
   id="Layer_1"
   x="0px"
   y="0px"
   viewBox="-3.08 12.02 64 63.999998"
   xml:space="preserve"
   sodipodi:docname="contiv-icon.svg"
   width="64"
   height="64"
   inkscape:version="0.92.3 (2405546, 2018-03-11)"><metadata
   id="metadata39"><rdf:RDF><cc:Work
       rdf:about=""><dc:format>image/svg+xml</dc:format><dc:type
         rdf:resource="http://purl.org/dc/dcmitype/StillImage" /><dc:title></dc:title></cc:Work></rdf:RDF></metadata><defs
   id="defs37" /><sodipodi:namedview
   pagecolor="#ffffff"
   bordercolor="#666666"
   borderopacity="1"
   objecttolerance="10"
   gridtolerance="10"
   guidetolerance="10"
   inkscape:pageopacity="0"
   inkscape:pageshadow="2"
   inkscape:window-width="1920"
   inkscape:window-height="1001"
   id="namedview35"
   showgrid="false"
   inkscape:zoom="2.4497533"
   inkscape:cx="60.349579"
   inkscape:cy="65.583746"
   inkscape:window-x="-9"
   inkscape:window-y="-9"
   inkscape:window-maximized="1"
   inkscape:current-layer="Layer_1" />
<style
   type="text/css"
   id="style2">
	.st0{fill:#333333;}
	.st1{fill:#DC4814;}
	.st2{fill:#EFECEB;}
	.st3{fill:#F4F4F4;}
	.st4{fill:#CCCCCC;}
	.st5{fill:#ACACAC;}
	.st6{fill:#878787;}
	.st7{fill:#E04725;}
	.st8{fill:#3FB7E7;}
	.st9{fill:#00A0E0;}
	.st10{fill:#4C4D4F;}
	.st11{fill:#00A1E0;}
	.st12{fill:#02A1E0;}
	.st13{fill:#01A1E0;}
	.st14{fill:#4F5052;}
	.st15{fill:#4A8FE1;}
</style>








<g
   id="g854"
   transform="matrix(0.14857573,0,0,0.14857573,2.0278087,80.745192)"><path
     style="fill:#4a8fe1"
     inkscape:connector-curvature="0"
     id="path4"
     d="m 27.2,-209.56002 c 6,0 12,0.2 18,-0.1 3.4,-0.1 4.2,1.1 4.2,4.3 0.7,36.8 14.6,68.1 41.3,93.2 30.1,28.099998 66.1,40.099998 107,34.699998 58.4,-7.8 101.1,-47.899998 113.2,-105.099998 1.6,-7.7 2.5,-15.4 2.5,-23.3 0,-2.7 0.7,-3.8 3.6,-3.8 12.3,0.1 24.7,0.2 37,0 4,-0.1 3.7,2.1 3.7,4.7 -0.1,39.8 -13.1,75.2 -37.7,106.099998 -30.4,38.1 -70.2,60.5 -118.5,65.9 -93.4,10.5 -175.6,-51.6 -193.8,-140.799998 -2.1,-10.3 -3.1,-20.7 -3.4,-31.2 -0.1,-3.9 1.2,-4.8 4.8,-4.6 6.1,0.2 12.1,0 18.1,0 z"
     class="st15" /><path
     style="fill:#4a8fe1"
     inkscape:connector-curvature="0"
     id="path6"
     d="m 93.6,-209.56002 c 3.5,0 7,0.2 10.5,-0.1 3.5,-0.3 4.4,0.9 4.6,4.4 1,19.3 8,36.1 22.2,49.3 20.7,19.2 45.2,25.4 72.1,16.9 27.1,-8.6 43.6,-27.7 49.6,-55.7 0.8,-3.6 1.1,-7.3 1,-10.9 -0.1,-3 0.9,-4.1 4,-4 7.2,0.2 14.3,0.2 21.5,0 3.4,-0.1 4.6,0.8 4.5,4.4 -0.8,24.2 -8.9,45.6 -24.8,63.8 -20.8,23.8 -47.4,35.8 -78.9,35.5 -50.9,-0.4 -93.6,-38.8 -100.1,-89.3 -0.5,-3.8 -0.5,-7.6 -0.8,-11.5 -0.2,-2.2 0.6,-3 2.8,-3 3.8,0.3 7.8,0.2 11.8,0.2 z"
     class="st15" /><path
     style="fill:#4a8fe1"
     inkscape:connector-curvature="0"
     id="path8"
     d="m 184.5,-391.66002 c -15.2,0 -30.3,-0.1 -45.5,0.1 -3.6,0 -4.9,-0.7 -4.9,-4.6 0.2,-20.6 0.2,-41.3 0,-61.9 0,-3.5 1,-4.5 4.5,-4.5 30.5,0.1 60.9,0.2 91.4,0 4,0 4.6,1.3 4.6,4.9 -0.2,20.5 -0.2,41 0,61.4 0,3.7 -0.9,4.9 -4.7,4.8 -15.1,-0.3 -30.3,-0.2 -45.4,-0.2 z"
     class="st15" /><path
     style="fill:#4a8fe1"
     inkscape:connector-curvature="0"
     id="path10"
     d="m 240.5,-369.46002 c 13.8,0 27.7,0.1 41.5,-0.1 3.2,0 4.8,0.5 4.7,4.3 -0.2,17.2 -0.2,34.3 0,51.5 0,3.4 -1.1,4.2 -4.3,4.2 -28.2,-0.1 -56.3,-0.1 -84.5,0 -3.6,0 -4.5,-1.1 -4.4,-4.5 0.2,-17 0.2,-34 0,-51 0,-3.6 1.1,-4.5 4.5,-4.5 14.2,0.2 28.4,0.1 42.5,0.1 z"
     class="st15" /><path
     style="fill:#4a8fe1"
     inkscape:connector-curvature="0"
     id="path12"
     d="m 68.4,-227.56002 c -13.8,0 -27.6,-0.1 -41.4,0.1 -3.3,0 -4.7,-0.5 -4.6,-4.3 0.2,-17.1 0.2,-34.3 0,-51.4 0,-3.2 0.8,-4.3 4.2,-4.3 28.3,0.1 56.6,0.1 84.9,0 3.4,0 4.1,1.2 4.1,4.3 -0.1,17 -0.2,33.9 0,50.9 0,3.7 -0.9,4.8 -4.7,4.8 -14.2,-0.3 -28.3,-0.1 -42.5,-0.1 z"
     class="st15" /><path
     style="fill:#4a8fe1"
     inkscape:connector-curvature="0"
     id="path14"
     d="m 181,-287.46002 c 13.8,0 27.7,0.1 41.5,-0.1 3.5,0 5,0.6 5,4.6 -0.2,17 -0.2,34 0,51 0,3.6 -1.1,4.4 -4.5,4.4 -28,-0.1 -56,-0.1 -84,0 -3.8,0 -4.7,-1.1 -4.7,-4.8 0.2,-16.8 0.2,-33.7 0,-50.5 0,-3.8 1.1,-4.8 4.8,-4.7 13.9,0.3 27.9,0.1 41.9,0.1 z"
     class="st15" /><path
     style="fill:#4a8fe1"
     inkscape:connector-curvature="0"
     id="path16"
     d="m 128.4,-309.66002 c -14,0 -28,-0.1 -42,0.1 -3.1,0 -4.4,-0.8 -4.3,-4.2 0.2,-17.1 0.1,-34.3 0,-51.4 0,-3.2 0.8,-4.4 4.2,-4.3 28.3,0.1 56.6,0.1 84.9,0 3,0 4.1,0.9 4.1,4 -0.1,17.3 -0.1,34.6 0,51.9 0,3.6 -1.5,4 -4.5,4 -14.1,-0.1 -28.3,-0.1 -42.4,-0.1 z"
     class="st15" /><path
     style="fill:#4a8fe1"
     inkscape:connector-curvature="0"
     id="path18"
     d="m 292.2,-227.56002 c -14,0 -28,-0.1 -42,0.1 -3.3,0 -4.7,-0.6 -4.7,-4.3 0.2,-17 0.2,-34 0,-51 0,-3.9 1.3,-4.7 4.9,-4.7 27.8,0.1 55.6,0.1 83.4,0 3.6,0 4.9,0.8 4.9,4.7 -0.2,16.8 -0.2,33.6 0,50.5 0.1,4.2 -1.5,4.9 -5.2,4.8 -13.6,-0.2 -27.5,-0.1 -41.3,-0.1 z"
     class="st15" /></g>
</svg>