<svg xmlns="http://www.w3.org/2000/svg" width="120" height="60"><defs><radialGradient id="A" cx="61.298" cy="60.911" fx="61.298" fy="60.911" r="44.688" gradientTransform="matrix(0.41575311,0,0,0.39292993,5.3198607,66.08294)" gradientUnits="userSpaceOnUse"><stop offset="0" stop-color="#575757"/><stop offset="1" stop-color="#2f2f2f"/></radialGradient></defs><path d="M71.07 36.07h-3.8v.303h-1.79V21.92h5.59v-4.956c1.646.22 2.433.55 2.36.99-.018.184-.2.34-.543.468v3.496h5.672v14.674h-1.818v-.523h-3.854v6.965H71.07V36.07m-3.8-8.012h3.8v-4.322h-3.8v4.322m5.618 0h3.854v-4.322h-3.854v4.322m3.854 1.845h-3.854v4.322h3.854v-4.322m-5.672 0h-3.8v4.322h3.8v-4.322m-10.26-.606c1.41 1.175 2.57 2.69 3.474 4.543l-1.493 1.13c-.597-1.395-1.42-2.606-2.47-3.634v11.7h-1.79V32.188c-1.05 1.065-2.244 2-3.582 2.808l-1.466-1.294c3.745-1.982 6.622-5.644 8.63-10.985h-6.54v-1.845h3.012v-3.91c1.592.22 2.37.54 2.334.964-.018.202-.2.367-.543.496v2.45h2.93l.896 1.266c-.923 2.77-2.054 5.158-3.392 7.158m38.266-3.14v-9.195c1.6.22 2.388.54 2.334.964-.018.165-.145.303-.38.413l-.163.083v7.736h5.482v1.817h-5.482v12.17h6.84V42H92.21v-1.845h6.866v-12.17h-5.645V26.16h5.645m-9 3.11a14.21 14.21 0 0 1 4.261 4.515l-1.357 1.266c-.995-1.725-2.19-3.065-3.582-4.02v12.004h-1.79V31.83c-1.52 1.322-3.166 2.395-4.94 3.22l-1.33-1.404c4.668-1.982 8.25-5.626 10.747-10.93H83.69v-1.845h3.99v-3.91c1.592.22 2.37.54 2.334.964-.018.202-.2.367-.543.496v2.45h3.962l.814 1.266c-1.158 2.77-2.55 5.148-4.18 7.13" fill="#f4f4f4" stroke="#e7e7e7" stroke-width=".252" stroke-linejoin="round"/><path d="M65.95 22.468l-.126 3.51-.116 8.405c0 1.118-.103 2.04-.31 2.77s-.53 1.343-.97 1.843c-.434.5-.994.87-1.68 1.114s-1.51.364-2.47.364c-.74 0-1.402-.073-1.99-.22l.17-1.52c.54.23 1.105.344 1.69.344.655 0 1.227-.083 1.714-.25.495-.174.888-.44 1.177-.802.297-.36.507-.805.63-1.333.13-.528.194-1.218.194-2.072l-.1-12.153h2.17m5.44 13.557h-2.07l.16-4.76c0-2.006-.133-3.7-.4-5.05l2.286-.28-.137 5.33a67.47 67.47 0 0 0 .16 4.759M71.872 23a1.3 1.3 0 0 1-.377.927c-.25.257-.606.385-1.063.385-.39 0-.693-.11-.914-.333-.213-.23-.32-.503-.32-.823 0-.347.13-.65.39-.906s.617-.385 1.074-.385c.373 0 .667.115.88.344.22.222.33.486.33.79m12.252 13.016h-2.08l.25-5.977c0-1.07-.24-1.798-.72-2.187-.472-.396-1.15-.594-2.034-.594-1.082 0-2.08.358-2.994 1.073l.046 7.685h-2.08l.194-5.123c0-1.624-.168-3.2-.503-4.727l2.012-.26.217 1.27h.09c1.128-.93 2.335-1.395 3.623-1.395 1.265 0 2.244.257 2.937.77.693.507 1.04 1.413 1.04 2.718l-.046 1.562.046 5.186m5.04-10.11a107.77 107.77 0 0 0-.194 6.477 60.01 60.01 0 0 0 .057 2.291l.07 1.926c0 2.242-.937 3.603-2.812 4.082l-.57-.79c.678-.52 1.097-1.076 1.257-1.666.236-.847.354-2.652.354-5.415 0-2.964-.152-5.18-.457-6.643l2.297-.26m.49-2.905a1.3 1.3 0 0 1-.377.927c-.25.257-.606.385-1.063.385-.39 0-.693-.11-.914-.333-.213-.23-.32-.503-.32-.823 0-.347.13-.65.39-.906s.617-.385 1.074-.385c.373 0 .667.115.88.344.22.222.33.486.33.79M100.8 36.026l-1.794.062c-.09-.34-.137-.663-.137-.968h-.114c-.937.777-2.213 1.166-3.83 1.166-.876 0-1.63-.233-2.263-.698-.632-.472-.95-1.142-.95-2 0-1.07.495-1.926 1.486-2.572.99-.653 2.83-.996 5.52-1.03.023-.167.034-.357.034-.573 0-.854-.25-1.423-.754-1.708-.495-.285-1.25-.427-2.263-.427-1.196 0-2.373.135-3.532.406l.194-1.437c1.143-.298 2.457-.448 3.943-.448 1.356 0 2.404.257 3.143.77.74.507 1.11 1.374 1.11 2.603l-.057 1.78-.046 1.708c0 1.263.103 2.388.31 3.374m-2.023-2.02l-.057-2.843c-1.432 0-2.522.097-3.27.292-1.25.347-1.874 1-1.874 1.99 0 .944.73 1.416 2.194 1.416 1.257 0 2.26-.285 3.006-.854" fill="#b41717" stroke="#7f2828" stroke-width=".316"/><path d="M49.164 72.457s-7.17 3.427-13.006 4.183-16.968 1.513-19.178.98-3.796-1.157-3.796-1.157l.46 1.558-1.42 1.246.25.445.584.044 1.792.222.25.8 1 .1.5 1.7s2.125.178 2.75.178 1.876-.088 1.876-.088l.04.667.46.088v.757l-1.002.89.25.044v.3s-2.252.18-3.17.046-1.085-.134-1.085-.134l-.083.088-.04.4h.208l.083 1.736 4.63-.178-.375 6.762-3.92-.222-.04-1.602h.874l.084-.623.792-.178.126-.176-2.96-.713-2.252.667.375.312h.375l.04.535.792.044v1.558l-.874.222.167.354.208.134v1.202h.542v5.56l-.876.134.126 1.602.54.1-.083 3.65 2.377.044-.5-3.605 3.586-.088-.25 1.956-.334 1.38 3.627.044.04-3.558 2.5-.222-.124 2.27-.084 1.334h2.128l-.084-3.65.293.046.083-1.736H28.1l-.124-.713-.208-2.047.083-2.357h.458V94.35l-.584.044.084-1.68.678-.067.03-.545.385-.057.395-.3-2.375-.49-2.356.522.23.377.25-.02.29-.01.053.688.656-.03.012 1.49-2.825-.065.094-1.592.092-1.447v-1.902l.084-2.003 5.658-.29 6.733-.388.063 1.28-.24 3.07-.104 2.858-2.48-.044-.012-2.003.918-.034.04-.566.375-.057-.02-.11.375-.02.208-.28-2.804-.656-2.794.6.198.346.312-.023v.157h.385v.633l.823.01-.01 1.757H30.3v.4l.293.034-.03 1.524.615.034-.073 6.04-.813.166.01.29h.283v1.547h.468l-.124 2.114-.157 1.845 2.96.078-.094-1.602-.218-1.334-.043-1.157 2.513-.044-.073 1.79-.012 1.89 1.42.11 1.927-.078.605-.178-.334-1.013-.083-1.592-.157-1.134 2.397-.088-.104 1.4-.01 2.18.96.088.95-.02.458-.145-.27-2.07-.092-1.558.407-.044.01-1.4.114-.023-.02-.3h-.47l-.094-1.023-.04-4.44.354-.01v-1.457l.147.023v-.29l-.523-.046.012-1.7.874-.078-.05-.568.385-.034-.022-.11.51-.256-2.595-.522-2.637.535.167.3.407-.034.022.134h.344l.02.667.855-.01.073 1.636-3.022-.023-.354-2.458-.283-1.302-.228-2.336.136-1.367 6.024-.457.02-2.036.303-.078-.02-.3-.23-.134c0 0-3.294.488-4.336.6l-.51.055-.03-.377-1.246-.652.016-.76.428-.013.03-1.044s2.553-.168 3.5-.4 2.293-.445 2.293-.445l.637-1.724 1.26-.367.104-.29 2.855-.79.324-.266-1.085-2.37.104-.535.552-.29.397-1.212zM35.448 81.49l-.016.862.646.027-.04.818-1.267.83-.08.24.51.004-.004.2-3.872.19.026-.572.177-.285.012-.182.004-.394.1-.262.04-.212v-.15l.167-.667zm-8.1.734l-.094.58.303.356-.02.623.28.434-.073.512.208.3-3.95.155-.01-.132.458-.057.022-.168-1-.543-.053-.868.48-.023.04-.935zm5.847 13.35l2.397.155-.083 3.227.312 2.646-2.542-.088zm-16.052.134l3.837.2-.334 2.225v1.87l.27 1.044-3.753.178zm24.557.02v5.52l-2.438.178-.084-2.915-.27-2.715zm-18.468.124l2.835.01.03 5.116-2.646.046-.136-1.66-.01-1.646z" fill="url(#A)" fill-rule="evenodd" stroke="#323232" stroke-width=".416" transform="translate(.206 -60)"/></svg>