<?xml version="1.0" encoding="UTF-8" standalone="no"?>
<svg
   xmlns:dc="http://purl.org/dc/elements/1.1/"
   xmlns:cc="http://creativecommons.org/ns#"
   xmlns:rdf="http://www.w3.org/1999/02/22-rdf-syntax-ns#"
   xmlns:svg="http://www.w3.org/2000/svg"
   xmlns="http://www.w3.org/2000/svg"
   xmlns:sodipodi="http://sodipodi.sourceforge.net/DTD/sodipodi-0.dtd"
   xmlns:inkscape="http://www.inkscape.org/namespaces/inkscape"
   width="120"
   height="60"
   viewBox="0 0 24.576 12.29308"
   preserveAspectRatio="xMidYMid"
   version="1.1"
   id="svg4"
   sodipodi:docname="dashlane-ar21.svg"
   inkscape:version="0.92.3 (2405546, 2018-03-11)">
  <metadata
     id="metadata10">
    <rdf:RDF>
      <cc:Work
         rdf:about="">
        <dc:format>image/svg+xml</dc:format>
        <dc:type
           rdf:resource="http://purl.org/dc/dcmitype/StillImage" />
        <dc:title></dc:title>
      </cc:Work>
    </rdf:RDF>
  </metadata>
  <defs
     id="defs8" />
  <sodipodi:namedview
     pagecolor="#ffffff"
     bordercolor="#666666"
     borderopacity="1"
     objecttolerance="10"
     gridtolerance="10"
     guidetolerance="10"
     inkscape:pageopacity="0"
     inkscape:pageshadow="2"
     inkscape:window-width="1920"
     inkscape:window-height="1001"
     id="namedview6"
     showgrid="false"
     inkscape:zoom="3.0682777"
     inkscape:cx="83.115355"
     inkscape:cy="10.750606"
     inkscape:window-x="-9"
     inkscape:window-y="-9"
     inkscape:window-maximized="1"
     inkscape:current-layer="svg4" />
  <path
     d="M 6.1696836,2.6076739 C 6.1270831,2.4326083 6.0919264,2.3560172 6.0293262,2.3502774 5.9318383,2.3409501 5.8293282,2.3754789 5.7589253,2.387721 5.4978517,2.4348953 5.3575839,2.4038195 5.2044464,2.2401887 5.1090662,2.1380821 5.1674513,2.1504137 5.3987494,2.1114906 5.5386584,2.0877687 5.6349803,2.0618049 5.731661,2.0201908 5.8787895,1.9394741 5.826503,1.8374574 5.6621549,1.7591171 5.538479,1.6995663 5.0252555,1.7018532 4.6952586,1.7086246 4.360643,1.7158865 4.0317225,1.7297003 3.8349981,1.5587157 c 0.1894151,0.034889 0.4195475,0.035516 0.5729091,0.027176 0.5056004,-0.027937 0.8893635,-0.059417 1.2512882,-0.034125 0.3164541,0.021659 0.6747466,0.122241 1.035595,0.2136302 0.3527319,0.088789 0.75349,0.1507607 0.8377945,0.1534962 0.090267,0.00153 0.031879,0.4510718 -0.17668,0.5146138 -0.2360066,0.055336 -0.4642554,0.050538 -0.609142,0.12955 -0.2060965,0.1112096 0.071568,0.7433109 0.1604919,0.8955964 0.02556,0.045023 0.1092814,0.2073522 0.2443921,0.3123289 0.069058,0.053137 0.237217,0.1672629 0.4065879,0.1800877 0.816046,0.062779 2.7175502,0.050134 2.8478182,0.1221958 0.0692,0.039013 -0.5355544,0.2086975 -0.5355544,0.2086975 0,0 -2.0512797,0.010451 -2.9251277,0.188339 C 6.07381,4.6483712 4.9533727,5.0639277 4.2701508,5.5662545 1.7372161,7.4299584 0.79749459,8.290353 0.80839134,8.1746599 0.82058848,8.0444808 0.83332373,7.8207622 0.8541308,7.7440808 0.88220222,7.6386115 1.007313,7.8210753 3.3988588,5.491188 3.6880937,5.2086796 3.4144641,4.9730765 3.1155882,4.9159471 2.7613315,4.837024 2.1507547,4.5696276 2.5336656,4.6155016 2.7505245,4.6298513 3.8482715,4.9566642 5.9202689,3.3473527 6.1969928,3.133005 6.2077102,2.7618427 6.1696836,2.6077187 Z m 1.700925,5.6135319 V 7.9948855 c -0.023591,0.023543 -0.042417,0.051887 -0.066007,0.07543 -0.089598,0.084883 -0.2829576,0.2216569 -0.5894564,0.2216569 -0.080179,0 -0.2499976,-0.00936 -0.4386056,-0.099018 C 6.5218771,8.0750173 6.1682035,7.76852 6.1682035,7.089423 c 0,-0.7215179 0.391476,-1.0940705 0.6602177,-1.2166701 0.07547,-0.033011 0.2121952,-0.080186 0.4103098,-0.080186 0.080133,0 0.2499079,0.00483 0.4291442,0.1037587 0.032965,0.018832 0.061254,0.033011 0.1178899,0.075474 0.042417,0.033011 0.075426,0.07543 0.084845,0.084839 V 4.8918665 H 8.4318146 V 8.2212058 H 7.8705625 Z M 7.7621296,6.565976 C 7.7338737,6.514089 7.6819944,6.4527939 7.6395292,6.419783 7.5452221,6.3443088 7.4414601,6.3160101 7.3235687,6.3160101 c -0.047129,0 -0.1697294,0.00936 -0.2876654,0.084927 -0.2687866,0.1744365 -0.2782035,0.5564505 -0.2782035,0.6271678 0,0.3489651 0.1461871,0.7497687 0.5611604,0.7497687 0.1508953,0 0.2687864,-0.047088 0.3678435,-0.1602678 0.1461876,-0.1603118 0.1838995,-0.3537179 0.1791912,-0.5659134 0,-0.1508957 -0.023591,-0.3442564 -0.1037697,-0.4857347 z m 2.4380964,1.6552298 -0.01419,-0.1838993 c -0.0896,0.07543 -0.169729,0.1131821 -0.2169038,0.132058 -0.1556035,0.070719 -0.3017911,0.1084702 -0.476273,0.1084702 -0.113184,0 -0.5376177,-0.014194 -0.754522,-0.3631353 -0.037751,-0.06134 -0.1085229,-0.188608 -0.1037696,-0.3772614 0,-0.1320579 0.033009,-0.3961387 0.3206695,-0.5895008 C 9.14855,6.8159231 9.3324945,6.7876254 9.5493987,6.7452044 9.8983622,6.6744416 10.025716,6.646099 10.200244,6.5848019 c 0,-0.061252 -0.0048,-0.1367257 -0.03305,-0.1933167 -0.04717,-0.089594 -0.16502,-0.1603572 -0.3725519,-0.1603572 -0.2169042,0 -0.3536743,0.066051 -0.4149745,0.1461929 -0.066007,0.080186 -0.061298,0.1745273 -0.061298,0.2074869 L 8.7430677,6.5518492 C 8.7477877,6.4480762 8.7666587,6.1981753 8.9976838,6.0095234 9.1438714,5.886874 9.3655278,5.7925751 9.775838,5.7925751 c 0.386677,0 0.613042,0.080186 0.75923,0.1839433 0.09902,0.070719 0.150939,0.1508957 0.169772,0.188608 0.0613,0.1226493 0.0613,0.2876653 0.0613,0.4197277 v 1.2543824 c 0,0.1791906 0.0093,0.2310743 0.103715,0.3819686 h -0.66959 z m 0,-1.1742038 c -0.09431,0.047132 -0.2169038,0.094306 -0.4479764,0.1320141 -0.1273612,0.023587 -0.2641236,0.028299 -0.3820147,0.099062 -0.080135,0.051887 -0.13677,0.132014 -0.13677,0.2357816 0,0.1414812 0.1037697,0.2782479 0.3867218,0.2782479 0.3112085,0 0.4951523,-0.1603557 0.5470803,-0.2687866 0.03766,-0.075518 0.033,-0.1414812 0.033,-0.2169467 V 7.0470035 Z m 2.848358,0.7592302 c -0.113183,0.2169481 -0.405602,0.4857348 -0.980889,0.4857348 -0.443313,0 -0.75923,-0.1508944 -0.905461,-0.2404904 a 1.382677,1.382677 0 0 1 -0.22632,-0.1839447 l 0.424391,-0.3442125 c 0.01888,0.023543 0.04717,0.065963 0.108512,0.1178498 0.202732,0.174438 0.504567,0.1839447 0.570576,0.1839447 0.141481,0 0.306545,-0.032996 0.400894,-0.1414812 0.03766,-0.037664 0.06125,-0.089595 0.06125,-0.1367696 0,-0.018832 -0.0047,-0.056599 -0.03775,-0.099061 -0.06125,-0.084883 -0.136726,-0.089595 -0.311208,-0.1273025 -0.155604,-0.032996 -0.311207,-0.051843 -0.462148,-0.089551 -0.103758,-0.028343 -0.650755,-0.1604025 -0.650755,-0.6696794 0,-0.1791906 0.07543,-0.3112076 0.108424,-0.3630914 0.117938,-0.1839431 0.396138,-0.4056001 0.905416,-0.4056001 0.183944,0 0.660218,0.028343 1.013892,0.4385598 l -0.4008,0.3725522 C 12.619438,6.5046717 12.558138,6.4480852 12.520415,6.4150816 12.374223,6.2877208 12.218626,6.245307 12.025265,6.245307 c -0.02359,0 -0.183945,0 -0.287711,0.070719 -0.08483,0.056642 -0.103715,0.132058 -0.103715,0.1745272 0.0047,0.080128 0.0613,0.1367697 0.07547,0.1461929 0.0613,0.047132 0.216904,0.084839 0.405556,0.1178937 0.127303,0.023587 0.254662,0.042419 0.381971,0.070719 0.12736,0.028299 0.268831,0.070763 0.372507,0.146193 0.08493,0.061296 0.259369,0.2263656 0.259369,0.514031 0,0.1131821 -0.02826,0.2216569 -0.08012,0.3206689 z m 1.900473,0.4149736 V 6.9243572 c 0,-0.188608 0.0096,-0.3583812 -0.150895,-0.4951508 -0.04713,-0.042419 -0.13677,-0.099018 -0.292374,-0.099018 -0.193361,0 -0.348965,0.080186 -0.466856,0.2263657 -0.04713,0.056583 -0.08489,0.1273024 -0.103759,0.1980694 -0.01883,0.070719 -0.01883,0.1273023 -0.01883,0.202778 V 8.2212014 H 13.350419 V 4.8918665 h 0.565914 v 1.2119608 c 0.04713,-0.051887 0.103715,-0.1037148 0.226365,-0.1744819 0.08955,-0.051887 0.259369,-0.1367696 0.51874,-0.1367696 0.259369,0 0.542282,0.094306 0.697885,0.3112515 0.146193,0.2075322 0.146193,0.424435 0.146193,0.6602181 v 1.4571604 z m 0.924296,0 h 0.575331 V 4.8918665 h -0.575331 z m 2.324955,0 -0.01419,-0.1838993 c -0.0896,0.07543 -0.16973,0.1131821 -0.216904,0.132058 -0.155604,0.070719 -0.301836,0.1084702 -0.476319,0.1084702 -0.113181,0 -0.537618,-0.014194 -0.754521,-0.3631353 -0.03775,-0.06134 -0.108468,-0.188608 -0.103714,-0.3772614 0,-0.1320579 0.033,-0.3961387 0.320623,-0.5895008 0.193362,-0.1320141 0.377262,-0.1603118 0.594211,-0.2027328 0.348965,-0.070763 0.476272,-0.099105 0.6508,-0.1604025 0,-0.061252 -0.0047,-0.1367257 -0.033,-0.1933167 -0.04717,-0.089594 -0.165065,-0.1603572 -0.372551,-0.1603572 -0.21695,0 -0.353719,0.066051 -0.415019,0.1461929 -0.06601,0.080186 -0.0613,0.1745273 -0.0613,0.2074869 l -0.575338,-0.032952 c 0.0048,-0.1037729 0.02359,-0.3536738 0.254663,-0.5423257 0.146193,-0.1226493 0.367799,-0.2169482 0.778109,-0.2169482 0.386677,0 0.613042,0.080186 0.75923,0.1839432 0.09906,0.070719 0.15094,0.1508958 0.169772,0.188608 0.0613,0.1226493 0.0613,0.2876654 0.0613,0.4197277 v 1.2543824 c 0,0.1791906 0.0093,0.2310743 0.103759,0.3819687 z m 0,-1.1742038 c -0.09431,0.047132 -0.216948,0.094306 -0.447977,0.1320141 -0.127346,0.023587 -0.264124,0.028299 -0.38206,0.099062 -0.08012,0.051887 -0.136725,0.132014 -0.136725,0.2357816 0,0.1414812 0.103759,0.2782479 0.386723,0.2782479 0.311207,0 0.495152,-0.1603557 0.547034,-0.2687866 0.03771,-0.075518 0.033,-0.1414812 0.033,-0.2169467 z m 2.433339,1.1742038 V 7.0187073 c 0,-0.1839447 0,-0.2735407 -0.02359,-0.3631368 -0.06601,-0.2735392 -0.278203,-0.3112075 -0.391386,-0.3112075 -0.06134,0 -0.179235,0.00936 -0.297083,0.1084263 -0.169773,0.1415252 -0.221657,0.3395492 -0.221657,0.7451054 V 8.2212029 H 19.127313 V 5.863334 h 0.570622 v 0.2782041 c 0.0093,-0.014194 0.0566,-0.07543 0.103759,-0.1226054 0.221612,-0.2074868 0.542282,-0.2263642 0.622415,-0.2263642 0.34901,0 0.551834,0.1792344 0.627259,0.2876639 0.150895,0.2169497 0.136771,0.5140765 0.136771,0.7545229 v 1.3864432 z m 2.91912,-0.2829112 c -0.132058,0.1226053 -0.447978,0.3536724 -0.933713,0.3536724 -0.150896,0 -0.523448,-0.018832 -0.844163,-0.3159602 -0.268787,-0.2546166 -0.367799,-0.5800396 -0.367799,-0.9478835 0,-0.1980694 0.02826,-0.3866774 0.103715,-0.5659134 0.103759,-0.2357831 0.39614,-0.6696341 1.079945,-0.6696341 0.528156,0 0.806405,0.2735392 0.929005,0.4527298 0.108468,0.1650659 0.216948,0.4526859 0.231072,0.9101713 h -1.744818 c 0.0093,0.070719 0.033,0.2169028 0.15085,0.3583812 0.08019,0.099062 0.221657,0.2263202 0.514029,0.2263202 0.292374,0 0.462195,-0.1367257 0.537665,-0.2168589 0.01883,-0.018876 0.04713,-0.056627 0.08012,-0.1085141 l 0.481027,0.2782933 c -0.0377,0.051887 -0.103755,0.1415252 -0.216943,0.2452444 z M 23.079158,6.5470972 c -0.05185,-0.113182 -0.174438,-0.3017916 -0.480983,-0.3017916 -0.122605,0 -0.188608,0.023587 -0.235784,0.042464 -0.264122,0.1084263 -0.325377,0.3725073 -0.339547,0.4526858 h 1.103487 c 0,0 -0.01419,-0.113182 -0.04718,-0.1933606 z"
     id="path2"
     inkscape:connector-curvature="0"
     style="fill:#256271;stroke-width:0.04484259" />
</svg>
