<svg xmlns="http://www.w3.org/2000/svg" xmlns:xlink="http://www.w3.org/1999/xlink" width="256" height="100"><g transform="matrix(.58631 0 0 .58631 -23.347328 -17.698858)"><path d="M96.945 182.034c-7.282-5.728-15.05-11.22-20.36-18.952-11.17-13.637-19.77-29.425-25.65-46.017-3.554-10.8-4.77-22.355-9.352-32.727-4.792-7.533.82-15.768 9.073-18.162 3.674-.705 10.133-4.17 2.336-1.694-7 5.13-7.667-4.656-.5-5.275 4.892-.65 6.693-4.655 5.02-8.26-5.25-3.424 12.734-7.188 3.684-12.298-9.427-10.17 13.186-12.13 7.607-.578-1.335 8.882 15.8-1.628 11.825 8.63 4.04 4.926 15.134 1.12 14.858 8.03 5.887.405 7.908 5.358 13.434 5.738 5.728 2.587 16.1 4.625 18.06 11.08-5.682 4.5-18.84-9.293-19.473 3.16 1.717 18.396 1.28 37.346 8 54.865 3.184 10.608 10.9 18.958 17.87 27.22 6.67 8.1 15.702 13.787 24.9 18.583 8.076 3.8 16.784 6.335 25.586 7.92 3.57-2.73 9.873-12.883 15.442-8.602.264 4.8-11.054 10.055-.532 9.523 6.178-1.864 10.463 4.778 15.55-1.213 4.687 5.552 19.482-3.547 16.147 7.8-4.5 2.9-11.087 1.15-15.604 5.154-7.448-3.72-13.377 3.328-21.622 2.437-9.156 1.64-18.472 2.302-27.755 2.316-15.23-1.203-30.782-1.7-45.27-7.013-8.162-2.372-16.126-7.02-23.3-11.668zm12.862 5.573c7.97 3.447 15.762 7.08 24.497 8.175 13.857 1.927 28.167 4.892 42.073 2.188-6.294-2.842-12.8 1.107-19.07-2.032-7.52 1.618-15.6-.412-23.236-1.412-8.694-3.873-18.076-6.535-26.218-11.562-10.173-3.716 5.26 4.765 8 5.452 6.36 3.6-6.993-1.85-8.876-3.35-5.326-2.988-6.005-2.364-.527.67 1.103.646 2.194 1.322 3.35 1.872zM94.642 176.9c7.723 2.86-.034-5.43-3.573-4.95-1.568-2.72-6-4.44-2.87-5.9-5.612 1.948-5.878-7.408-8.516-6.07-5.937-1.875-2.3-8.515-9.382-12.593-.645-4.297-7.026-8.024-9.06-14.505-.9-3.318-7.208-12.848-3.332-3.98 3.3 8.537 9.107 15.85 13.94 23.152 3.752 6.953 8.182 14.22 15.016 18.558 2.303 2.2 4.527 5.595 7.78 6.288zm-22.248-24.426c.27-1.166 1.412 2.524 0 0zM103.9 180.33c1.7-.766-2.46-.965 0 0zm4.192 1.53c-.434-2.112-1.914 1.18 0 0zm5.247 2.2c2.498-2.38-3.85-1.5 0 0zm8.994 5.013c1.518-2.244-4.86-.847 0 0zM105.054 177c3.88-2.5-5.012-.035 0 0zm3.937 1.963c-.1-1.327-1.403.594 0 0zm19.675 12.28c3.163 1.996 18.47 4.375 8.885.818-1.604.338-17.773-4.573-8.885-.818zM97.43 166.927c-.308-1.33-4.9-1.47 0 0zm9.16 5.338c2.384-1.663-4.948-1.282 0 0zm7.704 4.724c3.42-1.3-5.55-1.296 0 0zm-20.6-14.12c3.7 2.846 14.968.365 5.684-1.7-4.226-2.252-13.75-3.794-7.258 1.358l1.574.34zm25.8 15.752c1.546-2.634-6.483-1.504 0 0zm-7.842-6.233c9.075 2.567-7.63-5.74-2.24-.945l1.195.54 1.044.404zm15.724 9.088c8.595.082-7.763-1.185 0 0zM90.4 157.896c-.336-1.6-2.12.134 0 0zm51.535 31.735c.23-2.9-2.805 2.152 0 0zm-36.868-22.753c-.52-1.523-2.685-.062 0 0zm-13.852-9.986c4.934-.296-6.755-2.174 0 0zm-16.4-10.607c-.614-2.365-5.37-4.252 0 0zm43.08 27.34c-.904-1.03-.425.225 0 0zm26.814 16.455c-.086-1.575-1.46.596 0 0zm-29.187-18.905c.483-2.03-4.207-.614 0 0zm-19.976-12.66c3.67-.393-5.88-2.482 0 0zm33.8 20.997c5.72-2.266-5.575-1.106 0 0zm-17.577-11.93c6.593.85-7.844-4.484-1.447-.477l1.447.477zm22.913 14.1c6.155-3.68 4.126 8.617 10.443 1.04 6.23-4.55-5.38 5.625 2.298.8 5.554-3.714 13.756 1.76 18.938 3.547 3.727-.183 7.35 3.222 11.17 1.15 7.354-1.98-14.38-2.938-8.683-6.452-6.73 1.958-11.7-2.335-15.012-6.645-7.548-1.743-16.275-5.602-20.043-12.282-1.536-2.508 2.22.353-1.326-3.746-4.548-4.045-6.82-8.638-9.873-13.555-3.648-1.946-4.072-7.673-4.44-.192.03-4.722-4.404-7.9-5.486-6.58-.02-4.547 4.744-2.268 1.4-5.632-.718-4.713-3.08-9.624-3.8-14.945-1.104-2.565-.155-8.06-3.767-2.252-1.316 6.137-.437-7.54 1.6-3.03 2.685-4.603-.964-4.06-1.114-3.422 1.75-3.883 1.107-9.392-.456-7.3.932-4.116 1.473-15.148-1.395-13.193 1.738-4.304 3.297-19.694-4.25-13.826-3.058.043-8.355 1.1-10.858 2.355 7.85 4.327-.8 1.563-3.985.875-.416 4.004-3.58 2.272-7.535 2.3 6.315.78-3.075 6.46-6.698 4.254-4.705 2.25 4.06 7.862.094 9.598.487 2.617-7.208-.945-6.604 5.098-4.568-1.922-.63 7.168 1.656 4.094 7.77 2.103 5.47 6.896 5.667 11.45-1.266 2.653-6.25-6.237-1.1-5.825-4.055-6.587-4.485-2.38-7.855.68-.784.222 8.594 4.354 2.7 6.397 5.178.8 5.325 5.33 6.38 8.197 3.112 3.242 2.475-3.58 6.2.316-2.356-3.47-12.482-9.778-4.33-7.755-.044-3.493-1.474-6.3 1.023-6.24 2.473-4.48-2.6 11.044 2.985 5.35 1.543-.674 1.926-4.485 4.7.36 4.03 3.964 1.455 6.836-4.228 3.206 1.017 3.45 7.603 4.682 6.365 10.076 1.312 4.744 3.148 2.997 4.748 2.723 1.255 4.6 1.968 1.22 2.028-.974 5.747 1.23 4.4 4.628 6.2 7 3.96 1.788-5.67-12.117 1.13-4.18 7.154 6.46 2.683 9.155-3.737 8.12 4.063-.328 5.373 5.493 10.456 5.3 4.635 2.205 7.772 10.673-.216 7.148-2.77-2.498-12.576-5.58-4.567-.828 7.397 3.425 13.27 5.474 20.405 9.774 5.105 3.645 7.3 7.82 9.246 8.645-4.3 2.05-12.93-1.637-6.515-2.766-4.002-.73-8.503-2.753-4.67 2.233 3.26 2.72 11.547 2.433 13.033 2.74-1.26 2.775-3.42 2.996.052 3.2-3.874 2.064 1.242 2.384 1.6 3.564zm-7.92-22.37c-2.357-2.465-2.966-7.08-.42-3.064 1.306.525 4.185 7.544.42 3.064zM152.56 175.7c1.47-.095.043 1.117 0 0zm-29.52-22.43c-.1-3.726.853 2.874 0 0zm-2.564-3.45c-2.964-5.728 3.737 1.622 0 0zm-31.07-21.445c1.742-.464.857 2.98 0 0zm24.728 13.404c1.07-4.017 1.257 3.37 0 0zm-17.47-12.147c-1.232-2.216 2.576 2.08 0 0zm14.993 4.806c-2.8-6.292 1.988-3.437.62 1.03l-.62-1.03zM85.78 117.18c-1.256-2.064-3.333-8.12-2.664-9.97.605 3 6.404 12.96 2.845 4.12-3.933-7.4 4.702 2.405 5.6 4.253.414 1.838-2.427-.502-.502 3.808-3.5-4.908-2.072 2.7-5.268-2.212zm-8-5.506c.33-4.8 1.83 3.3 0 0zm3.594 1.237c1.715-3.623 2.908 5.05 0 0zm-8.646-6.688c-2.975-2.956-5.128-5.68.14-1.835 2.03.08-4.5-6.197.5-1.993 5.255.958 2.595 8.617-.628 3.828zm4.542-.12c1.728-1.712.917 1.685 0 0zm2.795.896c-2.62-4.9 3.18 2.058 0 0zm-5.555-5.3c-8.648-7.697 10.867 4.025 1.413 1.427L74.5 101.7zm24.78 14.397c-3.743-2.244-.992-15.797.285-6.528 3.638-1.177-.2 4.787 2.513 4.732-.428 3.763-1.642 5.116-2.797 1.796zm9.165 5.417c.367-4.085.772 2.793 0 0zm-1.592-1.573c.412-1.745.043 2.055 0 0zm-30.66-20.77c-5.556-7.666 16.147 7.754 3.56 1.944-1.315-.344-2.898-.467-3.56-1.944zm17.65 9.357c-.526-6.455 1.174 1.07 0 0zm13.4 8.596c1.037-3.677.077 2.432 0 0zm-30.198-20.88c3.302-.706 13.685 5.8 4.15 1.858-1.06-1.173-3.318-.64-4.15-1.858zm28.357 14.133c.353-6.6 1.97-3.942.012.945l-.012-.945zm-25.9-16.43c1.345-1.974-3.572-8.923.7-2.493 1.85 1.47 5.355 2.462 2.26 3.08 4.868 4.294-1.187 1.164-2.97-.587zm24.496 14.368c.93-7.518.82 4.405 0 0zm-27.306-21.3c1.028-.44.543 1.37 0 0zm6.4 3.803c1.644-3.45 3.034 3.848 0 0zm18.024 10.026c-.017-1.325.34 1.928 0 0zm-1.044-2.3c-2.502-6.172 2.327 3.268 0 0zm-1.536-4.046c-.42-2.55 1.427 3.204 0 0zm2.5-4.064c-1.717-3.025 2.168-13.33 2.6-6.94-1.812 4.98-.523 7.766.74 1.086 2.334-5.257-.504 10.374-3.343 5.853zm2.57-15.327c.748-.92.166 1.107 0 0zm-4.3 84.534c-1.018-.888.128.565 0 0zm8.838 4.47c4.916 1.26 4.9-.765.448-1.367-2.4-2.223-9.93-4.58-3.18-.276.447 1.132 1.86 1.106 2.733 1.643zM90.7 152.487c2.708 2.02 10.2 5.724 3.858.77 2.14-2.485-4.093-3.807-2.026-5.47-5.258-3.218-4.148-2.93-.464-2.83-6.32-2.825.912-2.613.572-4.06-2.437-.48-12.103-4.297-6.416.313-5.78-2.948-1.378 1.098-3.125.67-5.9-1.612 5.264 4.502-.94 2.984 3.4 2.688 9.128 6.884 1.434 2.844-1.014 1.46 5.506 3.67 7.107 4.78zm9.243 5.3c11.24 3.622-5.5-4.425 0 0zm47.316 28.664c.145-2.23-1.536 1.902 0 0zm4.863 2.047c2.593-2.513.106 4.002 4.297-.615.045-3.305-.13-5.258-4.816-1.243-1.292.716-1.87 3.763.52 1.858zm-77.2-48.482c-.796-3.13-5.582-3.114 0 0zm5.193 3.403c-1.928-3.197-6.88-2.895 0 0zm29.543 17.817c2.884 2.562 13.248 1.88 3.503.315-1.443-2.134-9.164-1.62-3.503-.315zm40.612 25.082c4.44-3.725-4.3 1.662 0 0zm9.233 6.345c.028-1.195-1.914.523 0 0zm.014-1.674c4.916-5.2-4.763.308 0 0zM62.16 129.333c-4.2-5.978-2.605-8.665-6.645-13.547-.765-3.733-6.932-12.203-3.2-3.23 3.428 5.248 4.446 13.374 9.835 16.776zm95.826 60c9.044-5.846-3.713-2.546 0 0zm6.904 2.705c4.53-3.9-2.865-.813 0 0zm-91.497-58.63c1.296-1.928-3.348-.247 0 0zM163.45 190.2c4.385-2.827-1-2.393-.795.26l.795-.26zm-59.514-37.512c-.15-1.9-2.316.162 0 0zm3.678 2.116c-1.17-2.363-1.797.37 0 0zm62.873 37.306c5.618-4.053-3.406-.776-1.18.768l1.18-.768zm-2.15-1.04c4.577-3.835-4.832 1.7 0 0zm10.992 7.32c3.073-2.058-3.733-.666 0 0zM76.2 132.028c4.12.923 16.46 10.144 9.18.638-3.73-1.104-1.493-10.22-5.296-8.606 2.553 4.265 2.1 6.08-3.26 3.4-6.737-3.3-3.786 1.63-2.47 2.985-1.794.408 2.373 1.557 1.846 1.6zm-18.766-14.82c.737-3.05-6.8-16.78-3.554-6.88 1.168 2.074 1.05 6.004 3.554 6.88zm34.443 21.235c-2.12-1.774-.1-.25 0 0zm5.223 1.215c-.003-3.23-5.773-1.312 0 0zm45.26 28.533c-.863-2.207-3.412-.05 0 0zm2.174 1.588c-.32-1.235-1.254.238 0 0zm17.94 11.3c1.725-1.275-2.153-.163 0 0zM66.82 119.6c4.935-1.9-5.288-1.362 0 0zm71.57 45.1c-.055-3.195-3.146.793 0 0zm-73.52-49.633c3.17-1.07-2.933-.705 0 0zm9.202 4.457c-.058-1.05-.973.397 0 0zm112.23 68.822c4.077-.827 13.366 2.075 14.868-1.08-4.95-.12-17.127-3.493-17.703.805l1.084.17 1.752.105zM76.995 120.25c.07-3.238-2.525-.12 0 0zm-24.193-16.78c-1.1-6.168-4.18-.934 0 0zm5.77 1.45c.07-1.98-5.28-1.782 0 0zm3.297 1.62c-.953-.772-.746.975 0 0zm20.745 13.308c.977-.897-2.312-.665 0 0zm-22.94-16.96c-.558-4.66-6.682-.698 0 0zm-11.828-7.675c-.168-2.15-1.153.8 0 0zm1.76-1.33c-.287-2.55-1.5.324 0 0zm9.72 5.802c4.1-1.615-7.487-3.34-.84-.305l.84.305zm130.098 80.36c2.63-2.412-3.344-.746 0 0zm15.717 8.147c1.054-3.12-2.655.4 0 0zM60.318 94.6c.433-3.017-3.26.6 0 0zm-13.83-9.266c-.743-4.26-.64-11.735 6.465-9.2-9.486 1.883 6.565 11.8 4.538 3.968 4 .195 7.803-2.357 5.7 1.516 7.86-.868 13.307-7.683 20.898-6.728 5.913-.782 12.378-1.376 18.75-3.756 5.24-.377 10.282-6.018 7.4-9.36-7.145-.605-14.623.3-22.52 1.86-8.75 1.82-16.7 5.275-25.528 6.76-8.606 1.156 1.73 3.185-.734 3.637-4.5 1.558 5.355 2.6-.582 4.25-3.667-.697-7.484-1.957-5.917-5.822-8.244 1.07-15.488 4.5-8.975 12.88l.484.004zm19.864-10.117c1.933-7.12 10.355 5.86 3.168.946-.858-.642-2.27-1.167-3.168-.946zm.376-3.452c2.8-2.078 1.483 1.165 0 0zm3.542.056c.252-3.276 8.1 1.735 1.296 1.18l-1.296-1.18zm4.845-1.948c1.77-2.068.5 1.84 0 0zm1.24-.83c2.946-3.54 16.686-2.26 6.63-.345-2.696-2.03-4.762 1.197-6.63.345zm17.93-2.764c-.448-9.67 8.908 3.436 0 0zm5.088-.028c1.86-4.874 7.218-1.956.86-.98.138.52-.186 2.516-.86.98zM58.312 92.1c5.558-3.403-5.9-2.953 0 0zm4.1 1.142c1.95-2.072-4.234-.84 0 0zM50.314 84.64c3.176-2.44-3.758-.927 0 0zM214.416 187.3c.092-2.83-2.427 1.275 0 0zm-16.675-11.38c.474-3.258-2.143.284 0 0zM219 188.397c4.44.015 13.453-1.38 3.792-1.374-1.516.236-8.833.186-3.792 1.374zM66.036 91.233c3.593-.247 5.622-3.964-.695-3.75-9.8-1.014 8.638 3.352-1.256 2.104-1.33.88 1.874 1.9 1.95 1.646zm3.165 1.602c-.375-2.307-1.1 1.226 0 0zm3.754-10c1.56-1.934-2.158-.517 0 0zM61.004 62.85c6.413-2.182 15.182-4.633 18.2 1.074-3.082-3.7-1.244-7.36 1.667-1.937 4.116 5.487 6.176-2.495 3.5-4.336 3.05 3.8 6.52 5.58 2.042.24 4.866-5.853-9.743.766-13.063.7-1.598.717-16.494 3.8-12.356 4.26zm3.758-7.198c3.657-2.76 12.65 1.642 6.88-2.743-.564-.498-12.636 3.325-6.88 2.743zm13.333.55c4.28.1-1.846-5.75 3.254-3.095-.838-2.737-5.94-3.25-8.432-4.342-1.4 2.502 2.87 7.47 5.178 7.437zM67.1 44.1c1.48-2.007-2.595 1.018 0 0zm5.45 1.304c6.898-.915-1.758-2.97-1.4-.074l1.4.074zM62.374 37.44c-4.857-6.34 9.134 1.066 4.2-5.573-4.153-3.307-8.144 3.722-4.2 5.573zm62.33 33.573c2.228-3.95-9.197-5.323-1.5-1.4.7.237.548 1.673 1.5 1.4zm105.148-27.235c-.797 3.14-1.3 8.414-1.477 15.82 0 1.453-.656 2.18-1.97 2.18s-2.227-.633-2.742-1.898c-1.406-3.422-2.742-5.812-4.008-7.172-1.5-1.594-3.492-2.555-5.977-2.883-2.672-.422-9.328-.633-19.97-.633-2.438 0-4.03.258-4.78.773-.47.328-.703 1.03-.703 2.1v31.852c0 1.078.68 1.594 2.04 1.547 4.172-.047 10.22-.328 18.14-.844 1.547-.187 2.6-.7 3.13-1.512s1.066-2.94 1.582-6.363c.328-1.875 1.43-2.602 3.305-2.18 1.594.328 2.273 1.055 2.04 2.18-1.313 6.375-1.734 14.672-1.266 24.9.047 1.22-.727 1.875-2.32 1.97-1.313.14-2.133-.562-2.46-2.1-1.22-5.86-3.48-8.988-6.785-9.387s-8.684-.598-16.137-.598c-.844 0-1.266.305-1.266.914v31.64c0 2.344.867 3.937 2.602 4.78 1.36.703 4.3 1.336 8.8 1.898 2.297.234 3.305 1.242 3.023 3.023-.28 1.547-2.344 2.156-6.187 1.828-11.1-.9-20.273-.844-27.492.14-2.016.28-3.023-.54-3.023-2.46 0-1.22 1.008-1.922 3.023-2.1 4.594-.516 6.9-4.547 6.9-12.094V58.895c0-3.094-.55-5.473-1.652-7.137s-3.152-3.176-6.152-4.535c-1.875-.844-2.578-1.992-2.1-3.445.234-.9.6-1.383 1.125-1.477.47-.14 1.7-.047 3.727.28 2.953.47 9.914.703 20.883.703 12.937 0 24.117-.28 33.54-.844 3.14-.187 4.7.07 4.7.773a2.36 2.36 0 0 1-.07.563zm45.703 89.367c0 1.875-1.055 2.695-3.164 2.46-6.47-.6-14.484-.516-24.047.28-1.922.187-3.105.14-3.55-.14s-.668-1.055-.668-2.32c0-1.125 1.277-2.074 3.832-2.848s3.832-3.082 3.832-6.926V60.02c0-3.797-.55-6.586-1.652-8.367s-3.035-3.164-5.8-4.148c-1.453-.516-2.18-1.242-2.18-2.18 0-1.406 1.055-2.46 3.164-3.164 3.187-1.03 6.492-2.625 9.914-4.78 2.812-1.687 4.594-2.53 5.344-2.53 1.734 0 2.602 1.195 2.602 3.586 0-.187-.094 2.156-.28 7.03a335.89 335.89 0 0 0-.14 13.71l.28 62.8c0 2.86.703 4.934 2.1 6.223s3.82 2.145 7.242 2.566c2.1.234 3.164 1.03 3.164 2.4zm64.125-4.7c0 .984-1.793 2.473-5.38 4.465s-6.457 2.988-8.613 2.988c-1.828 0-3.445-.9-4.852-2.672s-2.4-2.672-2.953-2.672c-.422 0-2.648.96-6.68 2.883s-8.086 2.883-12.164 2.883c-3.844 0-7.055-1.125-9.633-3.375-2.813-2.484-4.22-5.86-4.22-10.125 0-8.1 9.28-13.922 27.844-17.437 3.187-.6 4.805-1.898 4.852-3.867l.14-4.5c.28-7.687-3.117-11.53-10.195-11.53-2.016 0-3.926 1.805-5.73 5.414s-4.395 5.555-7.77 5.836c-3.844.375-5.766-1.242-5.766-4.852 0-2.25 2.86-4.875 8.578-7.875 6-3.14 11.766-4.7 17.297-4.7 9.516 0 14.227 4.523 14.133 13.57l-.28 28.97c-.047 3.047 1.242 4.57 3.867 4.57.516 0 1.5-.117 2.953-.352s2.297-.352 2.53-.352c1.36 0 2.04.914 2.04 2.742zm-21.656-16.03c.047-1.172-.223-1.945-.8-2.32s-1.512-.445-2.777-.2c-11.297 2.016-16.945 5.695-16.945 11.04 0 5.4 2.93 8.086 8.8 8.086 2.344 0 4.758-.445 7.242-1.336 2.906-1.03 4.36-2.273 4.36-3.727zm74.11 7.652c0 4.97-1.9 8.918-5.73 11.848s-9.035 4.395-15.645 4.395c-4.406 0-8.813-.47-13.22-1.406-3.797-.844-6-1.617-6.6-2.32-.375-.656-.563-3.867-.562-9.633 0-2.484.562-3.773 1.688-3.867 1.125-.14 2.086.47 2.883 1.828 3.516 6.14 9.187 9.2 17.016 9.2 6.6 0 9.914-2.297 9.914-6.9 0-2.016-.75-3.703-2.25-5.062-1.64-1.547-4.828-3.352-9.562-5.414-6.844-3.047-11.414-5.72-13.7-8.016-2.484-2.437-3.727-5.72-3.727-9.844 0-5.062 1.945-9 5.836-11.812 3.6-2.72 8.437-4.078 14.484-4.078 3.797 0 7.266.305 10.406.914 3.375.6 5.133 1.36 5.273 2.25.375 2.625 1.148 6.422 2.32 11.4.14.6-.516 1.102-1.97 1.477-1.547.328-2.578.07-3.094-.773-3.703-6.047-8.4-9.07-14.062-9.07-6.422 0-9.633 2.063-9.633 6.188 0 2.297.867 4.125 2.602 5.484 1.547 1.172 5.18 3 10.898 5.484 6 2.578 10.078 4.898 12.234 6.96 2.812 2.672 4.22 6.258 4.22 10.758zm81.563 12.656c0 1.64-1.102 2.508-3.305 2.602-3.28.047-7.57.28-12.867.703-2.625.516-4.5.188-5.625-.984-7.406-7.97-13.688-16.312-18.844-25.03-.422-.75-.96-1.125-1.617-1.125-.797 0-2.18.703-4.148 2.1-2.203 1.22-3.305 2.953-3.305 5.203 0 1.594.047 3.9.14 6.9s.844 4.97 2.25 5.906c.984.656 3.258 1.172 6.82 1.547 2.203.28 3.305 1.102 3.305 2.46 0 1.078-.176 1.746-.527 2.004s-1.277.316-2.777.176c-4.688-.422-12.6-.187-23.766.703-2.813.234-4.336-.117-4.57-1.055-.094-.328-.14-.797-.14-1.406 0-1.453 1.43-2.555 4.3-3.305 2.578-.656 3.867-3.68 3.867-9.07V59.598c0-3.844-.375-6.516-1.125-8.016-1.03-1.922-3.188-3.422-6.47-4.5-1.547-.516-2.32-1.242-2.32-2.18 0-1.36 1.102-2.414 3.305-3.164 3.516-1.172 6.867-2.8 10.055-4.852 2.578-1.687 4.172-2.53 4.78-2.53 1.922 0 2.883 1.22 2.883 3.656 0-.328-.023 1.992-.07 6.96l-.07 13.78.14 44.016c0 1.22.328 1.828.984 1.828.703 0 1.78-.6 3.234-1.828 3.9-3.047 8.672-7.03 14.344-11.953 1.125-1.172 1.687-2.1 1.688-2.812 0-1.266-1.898-2.156-5.695-2.672-1.64-.187-2.414-1.102-2.32-2.742.14-1.64.96-2.344 2.46-2.1 3.375.47 8.297.727 14.766.773l13.43.07c1.453.047 2.18.914 2.18 2.602 0 1.594-1.15 2.46-3.445 2.602-3.6.14-7.008.96-10.195 2.46-4.453 2.016-9.2 5.555-14.273 10.617-.375.28-.563.633-.562 1.055 0 .656.797 2.227 2.4 4.7 5.86 8.906 11.4 15.633 16.594 20.18 3.328 2.86 6.445 4.3 9.352 4.3 2.156 0 3.492.152 4.008.457s.773 1.113.773 2.426zM285.18 157.23c0 .164-.314.333-.943.506-.4.1-.757.483-1.04 1.12l-4.402 8.818c-.027.055-.096.077-.205.068-.1-.01-.17-.04-.205-.096-.22-.328-.78-1.472-1.682-3.432l-1.34-2.707c-.1 0-.588.87-1.463 2.6l-1.764 3.322c-.027.064-.1.1-.2.082a.27.27 0 0 1-.232-.11c-.665-1.04-2.197-3.883-4.594-8.53-.273-.547-.58-.893-.916-1.04-.583-.255-.875-.442-.875-.56 0-.355.196-.515.588-.48 1.76.182 3.3.146 4.62-.1.3-.055.45.046.45.3 0 .355-.205.583-.615.684-.538.128-.807.328-.807.602 0 .173.064.428.2.766.328.848.82 1.923 1.477 3.227s1.04 1.955 1.148 1.955c.073 0 .46-.68 1.162-2.037l1.053-2.256c0-.355-.12-.738-.355-1.148-.283-.602-.6-.962-.984-1.08-.602-.2-.902-.415-.902-.615 0-.365.205-.515.615-.45 1.404.2 2.9.155 4.457-.1.3-.055.45.036.45.273 0 .346-.223.56-.67.643-.53.1-.793.37-.793.807 0 .2.06.456.178.738 1.404 3.436 2.215 5.154 2.434 5.154.082 0 .447-.67 1.094-2 .693-1.43 1.176-2.584 1.45-3.46.018-.046.027-.096.027-.15 0-.392-.305-.697-.916-.916-.474-.155-.7-.328-.7-.52 0-.32.15-.442.45-.37.4.1 1.148.16 2.215.205l1.982-.014c.374-.046.56.06.56.314z"/><use xlink:href="#B"/><path d="M311.116 161.14c0 1.805-.63 3.318-1.887 4.54-1.203 1.176-2.634 1.764-4.293 1.764-.94 0-1.92-.155-2.94-.465-.984-.3-1.48-.574-1.5-.82l.014-2.2.04-3.363-.055-8.6c0-.656-.1-1.107-.3-1.354-.182-.22-.58-.392-1.19-.52-.237-.082-.355-.232-.355-.45 0-.19.178-.35.533-.48.5-.182 1.144-.488 1.9-.916.602-.337.975-.506 1.12-.506.283 0 .424.232.424.697l-.04 1.422-.014 2.61.027 4.73c0 .447.155.574.465.383 1.094-.63 2.233-.943 3.418-.943 1.367 0 2.48.412 3.336 1.237s1.285 1.903 1.285 3.233zm-2.187 1.217c0-1.25-.346-2.274-1.04-3.076-.656-.757-1.454-1.135-2.393-1.135a4.01 4.01 0 0 0-1.914.506c-.63.337-.943.693-.943 1.066v3.664c0 1.76.97 2.64 2.912 2.64 1.012 0 1.827-.326 2.447-.978s.93-1.547.93-2.687z"/><use xlink:href="#C"/><use xlink:href="#B" x="47.796"/><path d="M360.09 157.202c0 .173-.287.35-.86.533-.374.11-.693.483-.957 1.12-.447 1.076-1.226 2.652-2.338 4.73l-2.174 3.855c-.027.064-.087.09-.178.082a.27.27 0 0 1-.205-.109c-1.932-2.78-3.587-5.624-4.963-8.53-.292-.62-.58-.966-.86-1.04-.53-.2-.793-.396-.793-.56 0-.365.178-.524.533-.48.556.073 1.38.09 2.475.055l2.23-.164c.264-.055.396.046.396.3 0 .32-.187.524-.56.615-.71.19-1.066.438-1.066.738 0 .137.046.333.137.588.3.766.866 1.87 1.668 3.315s1.258 2.167 1.367 2.167c.082 0 .47-.693 1.162-2.078l1.572-3.555c.046-.1.068-.2.068-.3 0-.355-.22-.647-.656-.875-.428-.173-.643-.337-.643-.492 0-.32.14-.45.424-.396.365.064 1.007.12 1.928.164l1.79.027c.337-.064.506.032.506.287z"/><use xlink:href="#B" x="74.922"/><path d="M380.665 166.882c0 .365-.205.524-.615.48-1.258-.118-2.816-.1-4.676.055-.374.037-.604.027-.7-.027s-.13-.205-.13-.45c0-.22.248-.403.745-.554s.745-.6.745-1.347v-12.373c0-.738-.107-1.28-.32-1.627s-.6-.615-1.128-.807c-.283-.1-.424-.242-.424-.424 0-.273.205-.48.615-.615.62-.2 1.262-.5 1.928-.93.547-.328.893-.492 1.04-.492.337 0 .506.232.506.697 0-.036-.018.42-.055 1.367l-.027 2.666.055 12.21c0 .556.137.96.4 1.2s.743.417 1.408.5c.4.046.615.2.615.465z"/><use xlink:href="#D"/><use xlink:href="#E"/><path d="M432.905 166.91c0 .3-.14.442-.424.424-1.86-.137-3.59-.137-5.195 0-.355.027-.533-.132-.533-.48 0-.273.242-.42.725-.437.61-.037.916-.533.916-1.5V161.3c0-2.042-.83-3.062-2.488-3.062-.875 0-1.677.16-2.406.48-.665.283-1.003.565-1.012.848l-.055 5.428c0 .565.068.94.205 1.12.1.128.324.22.67.273.802.137 1.203.305 1.203.506 0 .173-.023.292-.068.355-.055.09-.22.132-.492.123-1.04-.036-2.552-.018-4.54.055-.283.01-.465-.014-.547-.068s-.123-.182-.123-.383c0-.237.26-.383.78-.437.565-.064.848-.58.848-1.545v-3.72c0-1.003-.228-1.777-.684-2.324-.4-.492-.91-.738-1.53-.738-.91 0-1.732.185-2.46.554s-1.094.763-1.094 1.183v5c0 .565.146.957.438 1.176.264.2.743.324 1.436.37.374.018.56.146.56.383 0 .264-.15.396-.45.396l-4.95.19c-.346.046-.57.046-.67 0-.082-.046-.123-.155-.123-.328 0-.228.337-.424 1.012-.588.4-.11.615-.643.615-1.6v-4.197c0-1.066-.287-1.682-.86-1.846-.483-.137-.777-.237-.882-.3s-.157-.17-.157-.314c0-.164.474-.5 1.422-1.04 1.003-.565 1.618-.848 1.846-.848.19 0 .353.276.485.827s.235.827.308.827c.1 0 .378-.14.834-.424.565-.355 1.076-.62 1.53-.793.747-.292 1.518-.437 2.31-.437.638 0 1.194.137 1.668.4a3.13 3.13 0 0 1 .889.752l.328.4c0 0 .237-.137.71-.4.556-.32 1.098-.57 1.627-.752a6.76 6.76 0 0 1 2.256-.41c2.497 0 3.746 1.372 3.746 4.115v4.43c0 .52.123.89.37 1.107.22.182.647.337 1.285.465.483.09.725.228.725.4z"/><use xlink:href="#B" x="147.164"/><path d="M460.864 167.032c0 .283-.205.4-.615.383l-4.457-.055c-.52.037-.802-.027-.848-.19a.77.77 0 0 1-.027-.232c0-.182.264-.346.793-.492.483-.137.725-.606.725-1.408V161.4c0-2.087-.907-3.13-2.72-3.13-.81 0-1.563.19-2.256.574-.656.374-.984.76-.984 1.162v5.004c0 .857.56 1.335 1.682 1.436.428.036.643.173.643.4 0 .228-.06.365-.178.4-.055.018-.2.023-.465.014a26.22 26.22 0 0 0-4.43.219c-.328.046-.533.06-.615.04-.182-.036-.273-.178-.273-.424 0-.22.26-.406.78-.56.483-.146.725-.752.725-1.818v-4.143c0-.702-.09-1.148-.273-1.34-.128-.137-.55-.328-1.27-.574a.37.37 0 0 1-.273-.383c0-.182.187-.342.56-.48.5-.19 1.07-.497 1.682-.916.5-.346.84-.52.984-.52.246 0 .4.28.492.84s.196.84.342.84c-.073 0 .392-.267 1.395-.8s1.992-.8 2.967-.8c2.36 0 3.55 1.344 3.568 4.033l.027 4.402c0 .565.146.97.438 1.217.22.182.643.337 1.27.465.4.082.615.232.615.45z"/><use xlink:href="#F"/><path d="M475.848 166.61c0 2.37-.998 4.152-2.994 5.346-.182.11-.314.164-.396.164-.128 0-.246-.146-.355-.437-.036-.1-.055-.182-.055-.246 0-.155.26-.4.78-.766.893-.62 1.34-1.322 1.34-2.105 0-.4-.26-.766-.78-1.094-.73-.456-1.094-1.016-1.094-1.682 0-.447.15-.818.45-1.114s.702-.444 1.203-.444c.602 0 1.07.22 1.4.656s.5 1.012.5 1.723z"/><use xlink:href="#D" x="-114.953" y="25.2"/><path d="M295.598 192.232c0 .283-.205.4-.615.383l-4.457-.055c-.52.036-.802-.027-.848-.19a.77.77 0 0 1-.027-.232c0-.182.264-.346.793-.492.483-.137.725-.606.725-1.408V186.6c0-2.087-.907-3.13-2.72-3.13-.81 0-1.563.19-2.256.574-.656.374-.984.76-.984 1.162v5.004c0 .857.56 1.335 1.682 1.436.428.036.643.173.643.4 0 .228-.06.365-.178.4-.055.018-.2.023-.465.014a26.22 26.22 0 0 0-4.43.219c-.328.046-.533.06-.615.04-.182-.036-.273-.178-.273-.424 0-.22.26-.406.78-.56.483-.146.725-.752.725-1.818v-4.143c0-.702-.09-1.148-.273-1.34-.128-.137-.55-.328-1.27-.574a.37.37 0 0 1-.273-.383c0-.182.187-.342.56-.48.5-.19 1.07-.497 1.682-.916.5-.346.84-.52.984-.52.246 0 .4.28.492.84s.196.84.342.84c-.073 0 .392-.267 1.395-.8s1.992-.8 2.967-.8c2.36 0 3.55 1.344 3.568 4.033l.027 4.402c0 .565.146.97.438 1.217.22.182.643.337 1.27.465.4.082.615.232.615.45z"/><use xlink:href="#B" x="9.734" y="25.2"/><use xlink:href="#C" x="-4.32" y="25.2"/><path d="M339.24 182.785c0 1.103-.32 1.654-.957 1.654-.1 0-.433-.064-.998-.19s-.98-.19-1.244-.19c-1.02 0-1.53.688-1.53 2.064v4.033c0 .474.164.81.492 1.012.19.118.67.278 1.436.48.4.1.615.255.615.465 0 .246-.034.394-.103.444s-.24.06-.513.034c-2.005-.2-3.59-.22-4.758-.027-.365.064-.597.064-.697 0-.082-.055-.123-.214-.123-.48 0-.246.253-.442.76-.588s.76-.583.76-1.312v-4.39c0-.574-.075-.962-.226-1.162s-.563-.47-1.237-.807l-.082-.04c-.182-.09-.273-.22-.273-.383 0-.182.187-.337.56-.465.63-.22 1.203-.53 1.723-.93.428-.337.702-.506.82-.506.328 0 .524.283.588.848.082.72.178 1.08.287 1.08.01 0 .52-.342 1.53-1.025.665-.447 1.395-.67 2.188-.67.656 0 .984.35.984 1.053z"/><use xlink:href="#D" x="-41.125" y="25.2"/><use xlink:href="#E" x="-41.125" y="25.2"/><path d="M387.337 191.166c0 .19-.35.48-1.046.868s-1.256.58-1.675.58c-.355 0-.67-.173-.943-.52s-.465-.52-.574-.52c-.082 0-.515.187-1.3.56s-1.572.56-2.365.56c-.747 0-1.372-.22-1.873-.656-.547-.483-.82-1.14-.82-1.97 0-1.577 1.805-2.707 5.414-3.39.62-.118.934-.37.943-.752l.027-.875c.055-1.495-.606-2.242-1.982-2.242-.392 0-.763.35-1.114 1.053s-.854 1.08-1.51 1.135c-.747.073-1.12-.242-1.12-.943 0-.437.556-.948 1.668-1.53 1.167-.61 2.288-.916 3.363-.916 1.85 0 2.766.88 2.748 2.64l-.055 5.633c-.01.592.242.89.752.89a4.43 4.43 0 0 0 .574-.068l.492-.068c.264 0 .396.178.396.533zm-4.21-3.117c.01-.228-.043-.378-.157-.45s-.294-.087-.54-.04c-2.197.392-3.295 1.107-3.295 2.146 0 1.048.57 1.572 1.71 1.572.456 0 .925-.087 1.408-.26.565-.2.848-.442.848-.725z"/><use xlink:href="#F" x="-73.116" y="25.2"/><path d="M416.32 191.166c0 .19-.35.48-1.046.868s-1.256.58-1.675.58c-.355 0-.67-.173-.943-.52s-.465-.52-.574-.52c-.082 0-.515.187-1.3.56s-1.572.56-2.365.56c-.747 0-1.372-.22-1.873-.656-.547-.483-.82-1.14-.82-1.97 0-1.577 1.805-2.707 5.414-3.39.62-.118.934-.37.943-.752l.027-.875c.055-1.495-.606-2.242-1.982-2.242-.392 0-.763.35-1.114 1.053s-.855 1.08-1.51 1.135c-.747.073-1.12-.242-1.12-.943 0-.437.556-.948 1.668-1.53 1.167-.61 2.288-.916 3.363-.916 1.85 0 2.766.88 2.748 2.64l-.055 5.633c-.01.592.242.89.752.89a4.43 4.43 0 0 0 .574-.068l.492-.068c.264 0 .396.178.396.533zm-4.21-3.117c.01-.228-.043-.378-.157-.45s-.294-.087-.54-.04c-2.197.392-3.295 1.107-3.295 2.146 0 1.048.57 1.572 1.71 1.572.456 0 .925-.087 1.408-.26.565-.2.848-.442.848-.725z"/><use xlink:href="#F" x="-37.186" y="25.2"/><path d="M439.304 176.66c0 .42-.157.8-.472 1.17s-.66.54-1.032.54c-.428 0-.78-.128-1.053-.383s-.4-.588-.4-.998c0-.4.166-.775.5-1.12s.7-.52 1.073-.52c.93 0 1.395.438 1.395 1.313zm1.518 15.477c-.046.264-.155.415-.328.45-.046.01-.264 0-.656-.027-1.358-.1-2.693-.073-4.006.055-.355.037-.58.023-.67-.04s-.137-.2-.137-.437c0-.2.242-.383.725-.52.53-.155.793-.66.793-1.518v-3.582c0-.72-.073-1.226-.22-1.518-.2-.4-.615-.706-1.244-.916-.283-.1-.424-.25-.424-.45 0-.264.205-.46.615-.588.766-.237 1.445-.55 2.037-.943.474-.328.766-.492.875-.492.365 0 .542.237.533.7l-.055 7.3c0 .592.087 1.016.26 1.27.2.283.556.483 1.094.602.592.137.86.35.807.643zm24.075-.027c0 .3-.14.442-.424.424-1.86-.137-3.6-.137-5.195 0-.355.027-.533-.132-.533-.48 0-.273.242-.42.725-.437.6-.036.916-.533.916-1.5V186.5c0-2.042-.83-3.062-2.488-3.062-.875 0-1.677.16-2.406.48-.665.283-1.003.565-1.012.848l-.055 5.428c0 .565.068.94.205 1.12.1.128.324.22.67.273.802.137 1.203.305 1.203.506 0 .173-.023.292-.068.355-.055.1-.22.132-.492.123-1.04-.037-2.552-.018-4.54.055-.283.01-.465-.014-.547-.068s-.123-.182-.123-.383c0-.237.26-.383.78-.437.565-.064.848-.58.848-1.545v-3.72c0-1.003-.228-1.777-.684-2.324-.4-.492-.9-.738-1.53-.738-.9 0-1.732.185-2.46.554s-1.094.763-1.094 1.183v5c0 .565.146.957.438 1.176.264.2.743.324 1.436.37.374.018.56.146.56.383 0 .264-.15.396-.45.396l-4.95.2c-.346.046-.57.046-.67 0-.082-.046-.123-.155-.123-.328 0-.228.337-.424 1.012-.588.4-.1.615-.643.615-1.6v-4.197c0-1.066-.287-1.682-.86-1.846-.483-.137-.777-.237-.882-.3s-.157-.17-.157-.314c0-.164.474-.5 1.422-1.04 1.003-.565 1.618-.848 1.846-.848.2 0 .353.276.485.827s.235.827.308.827c.1 0 .378-.14.834-.424.565-.355 1.076-.62 1.53-.793.747-.292 1.518-.437 2.3-.437.638 0 1.194.137 1.668.4a3.13 3.13 0 0 1 .889.752l.328.4.7-.4a9.41 9.41 0 0 1 1.627-.752 6.76 6.76 0 0 1 2.256-.41c2.497 0 3.746 1.372 3.746 4.115v4.43c0 .52.123.9.37 1.107.22.182.647.337 1.285.465.483.1.725.228.725.4z"/><use xlink:href="#B" x="179.156" y="25.2"/></g><defs ><path id="B" d="M297.294 164.982c0 .392-.53.88-1.586 1.463-1.203.647-2.438.97-3.705.97-1.376 0-2.534-.45-3.473-1.354-1.003-.957-1.504-2.233-1.504-3.828 0-1.805.56-3.254 1.682-4.348 1.048-1.02 2.333-1.53 3.855-1.53.902 0 1.745.287 2.53.86.702.5 1.167 1.094 1.395 1.75.082.228.205.355.37.383.237.046.355.205.355.48 0 .374-.447.693-1.34.957l-6.303 1.873c.4 2.17 1.522 3.254 3.336 3.254 1.048 0 2.242-.383 3.582-1.148.2-.118.396-.178.588-.178.146 0 .22.132.22.396zm-3.24-5.482c0-.5-.203-.94-.608-1.32s-.905-.567-1.497-.567c-1.677 0-2.516 1.208-2.516 3.623v.328l3.72-1.12c.602-.173.902-.488.902-.943z"/><path id="C" d="M333.237 165.94c.036.082.055.14.055.178 0 .19-.465.506-1.395.943-1.076.5-1.71.752-1.9.752-.164 0-.353-.276-.567-.827s-.362-.827-.444-.827c.01 0-.508.24-1.552.718s-1.834.718-2.372.718c-1.203 0-2.247-.433-3.13-1.3-1.066-1.03-1.6-2.475-1.6-4.334 0-1.56.63-2.903 1.887-4.033 1.112-.993 2.247-1.5 3.404-1.5.82 0 1.8.105 2.94.314.355.064.533-.04.533-.314v-4.676c0-.53-.128-.902-.383-1.12-.164-.146-.55-.32-1.162-.52-.292-.11-.438-.287-.437-.533 0-.228.196-.396.588-.506.538-.164 1.18-.437 1.928-.82.62-.328 1.003-.492 1.148-.492.337 0 .506.232.506.697 0-.01-.014.444-.04 1.36l-.04 2.673v12.428c0 .52.232.78.697.78.173 0 .406-.027.697-.082.32-.055.533.05.643.314zm-4.225-1.354v-4.895c0-.4-.355-.816-1.066-1.244-.757-.456-1.577-.684-2.46-.684-1.905 0-2.857 1.176-2.857 3.527 0 1.258.378 2.333 1.135 3.227s1.645 1.34 2.666 1.34c.465 0 1.012-.155 1.64-.465s.943-.58.943-.807z"/><path id="D" d="M393.913 161.77c0 1.586-.588 2.928-1.764 4.026s-2.634 1.647-4.375 1.647-3.117-.483-4.13-1.45c-.975-.948-1.463-2.2-1.463-3.76 0-1.613.615-2.97 1.846-4.074 1.194-1.066 2.62-1.6 4.28-1.6 1.777 0 3.163.48 4.156 1.436.966.93 1.45 2.188 1.45 3.773zm-2.406.834c0-1.43-.346-2.593-1.04-3.486-.674-.866-1.53-1.3-2.57-1.3-.966 0-1.755.34-2.365 1.02s-.916 1.506-.916 2.48c0 1.568.355 2.79 1.066 3.664a3.16 3.16 0 0 0 2.57 1.203c1.003 0 1.796-.333 2.38-.998s.875-1.527.875-2.584z"/><path id="E" d="M408.2 161.4c0 1.704-.572 3.15-1.716 4.34s-2.477 1.784-4 1.784a7.39 7.39 0 0 1-2.666-.492c-.09-.036-.137.187-.137.67v4.115c0 .665.542 1.094 1.627 1.285.5.09.818.175.95.253s.198.207.198.4c0 .3-.205.45-.615.424-1.914-.128-3.596-.082-5.045.137-.3.046-.488.046-.56 0s-.11-.17-.11-.37c0-.155.26-.342.78-.56.447-.182.67-.62.67-1.312v-12.06c0-.975-.27-1.586-.807-1.832-.638-.283-.957-.515-.957-.697 0-.2.187-.35.56-.45.483-.118.98-.328 1.5-.63.428-.246.688-.37.78-.37.273 0 .497.25.67.752.255.73.424 1.094.506 1.094.018 0 .4-.214 1.176-.643.84-.465 1.66-.697 2.46-.697 1.303 0 2.38.37 3.227 1.107 1.012.866 1.518 2.12 1.518 3.76zm-2.324 1.094c0-1.486-.37-2.643-1.107-3.473-.602-.693-1.308-1.04-2.12-1.04-.63 0-1.23.22-1.805.656-.757.565-1.135 1.354-1.135 2.365v3.87c0 .246.346.506 1.04.78.747.3 1.56.45 2.434.45 1.796 0 2.693-1.203 2.693-3.61z"/><path id="F" d="M469.64 165.993c0 .438-.4.81-1.203 1.12-.71.273-1.43.4-2.16.4-1.978 0-2.967-1.053-2.967-3.158v-4.95c0-.63-.05-1.014-.15-1.155s-.433-.28-.998-.417c-.146-.036-.22-.178-.22-.424 0-.264.055-.424.164-.48.984-.483 1.84-1.35 2.57-2.598.1-.173.296-.228.588-.164.2.064.305.182.314.355l.055 1.71c0 .128.023.22.068.273.064.082.2.123.438.123h3.05c.173 0 .173.214 0 .643-.2.52-.52.78-.93.78h-2.064c-.355 0-.574.06-.656.178-.064.082-.096.305-.096.67v4.47c0 1.13.1 1.846.3 2.146.264.383.88.574 1.846.574.32 0 .706-.052 1.162-.157l.725-.157c.11 0 .164.068.164.205z"/></defs></svg>