<svg xmlns="http://www.w3.org/2000/svg" xmlns:xlink="http://www.w3.org/1999/xlink" width="120" height="60"><defs><linearGradient id="A" x1="947.843" x2="464.571" y1="-99.201" y2="-.398" xlink:href="#H"><stop stop-color="#282662" offset="0"/><stop stop-color="#68308f" offset=".095"/><stop stop-color="#a22367" offset=".788"/><stop stop-color="#cd2032" offset=".949"/></linearGradient><linearGradient id="B" x1="110.007" x2="-49.704" y1="58.796" y2="-65.567" xlink:href="#H"><stop stop-color="#f69923" offset="0"/><stop stop-color="#f79a23" offset=".312"/><stop stop-color="#e97826" offset=".838"/></linearGradient><linearGradient id="C" x1="1067.342" x2="147.76" y1="-119.596" y2="68.409" xlink:href="#H"><stop stop-color="#9e2064" offset=".323"/><stop stop-color="#c92037" offset=".63"/><stop stop-color="#d12c3e" offset=".751"/><stop stop-color="#e97826" offset="1"/></linearGradient><linearGradient id="D" x1="1017.448" x2="97.866" y1="-100.47" y2="87.535" xlink:href="#H"><stop stop-color="#9e2064" offset=".323"/><stop stop-color="#c92037" offset=".63"/><stop stop-color="#d12339" offset=".751"/><stop stop-color="#e97826" offset="1"/></linearGradient><linearGradient id="E" x1="997.991" x2="78.409" y1="-195.639" y2="-7.634" xlink:href="#H"><stop stop-color="#9e2064" offset=".323"/><stop stop-color="#cb2239" offset=".63"/><stop stop-color="#ce2436" offset=".751"/><stop stop-color="#e97826" offset="1"/></linearGradient><linearGradient id="F" x1="1056" x2="136.418" y1="-202.58" y2="-14.574" xlink:href="#H"><stop stop-color="#9e2064" offset=".323"/><stop stop-color="#c92037" offset=".63"/><stop stop-color="#cf2739" offset=".751"/><stop stop-color="#e97826" offset="1"/></linearGradient><linearGradient id="G" x1="937.485" x2="389.506" y1="-189.14" y2="-77.107" xlink:href="#H"><stop stop-color="#282662" offset="0"/><stop stop-color="#662e8d" offset=".095"/><stop stop-color="#a22367" offset=".788"/><stop stop-color="#cd2032" offset=".949"/></linearGradient><linearGradient id="H" gradientUnits="userSpaceOnUse"/></defs><g transform="matrix(.049085 0 0 .049085 -1.171473 8.599205)"><g transform="matrix(-1.678927 .692989 .692989 1.678927 2379.758171 211.212145)"><path d="M656.7-7.1c20.267-9.594 39.714-20.144 58.137-31.855.646-.424 1.3-.8 1.946-1.223-7.515 19.097-3.838 52.585-3.754 52.44 11.85-34.7 26.515-65.255 48.744-84.672 8.483 7.593 14.923 21.83 20.214 39.882 2.62-24.85-1.858-38.732-4.05-43.8 10.917 12.948 30.734 20.176 52.045 26.46-23.946-14.536-39.792-28.878-46.004-42.955 68.312-21.018 142.3-46.157 219.96-74.026-6.092-4.6-12.64-5.17-19.442-3.17-14.023 5.102-106.22 38.312-231.64 76.244l-10.768 3.237-43.477 12.8-9.447 2.725a1.55 1.55 0 0 1-.18.052L652.38-5.025l4.34-2.065z" fill="url(#A)"/><path d="M23.148 66.817c19.07 7.196 39.608 9.085 59.733 11.274 11.854 1.123 24.23 1.914 36.123 2.493l24.48-51.337c-31.5.856-63.553.202-94.86-3.515 30.943 3.103 62.657 1.796 93.65.117C120.586-.314 95.888-26 70.38-49.96 46.86-38.12 23.533-21.335 11.2 2.56 4.9 17.105 1.24 34.093 6.37 49.54c2.756 7.894 9.065 14.16 16.773 17.277z" fill="url(#B)"/><path d="M294.05 14.992l-50.218 6.643c-17.122 1.995-33.955 3.638-50.416 4.896l-2.92.244c-16.218 1.215-32.064 2.045-47.5 2.48L118.5 80.566l9.6.42c12.25.464 25.27.743 38.902.814 15.365.076 31.56-.134 48.36-.6l48.05-2.128 44.448-3.215c13.32-22.17 22.9-45.722 34.335-68.583l-48.157 7.72z" fill="url(#C)"/><path d="M639.56-61.012l-49.245 13.247-48.306 12.33-49.096 11.82L442.537-12.3l-49.9 10.268-17.936 3.45-32.503 5.855-34.33 68.583 3.24-.3 46.78-4.806a1527.85 1527.85 0 0 0 48.062-6.443l40.724-6.682 8.18-1.5a1011.13 1011.13 0 0 0 48.365-10.29c17.296-4.127 33.5-8.494 48.6-12.995 9.938-2.95 19.414-5.97 28.43-8.98l22.7-8.223c17.654-6.642 34.84-13.842 51.5-21.64l34.514-68.935-38.5 10.904-10.926 3.025z" fill="url(#D)"/><path d="M343.66-.5l6.724-1.254 20.66-3.96 23.223-4.68 12.03-2.5 37.426-8.133L492.6-32.4l49.58-12.315 49.773-13.1 48.944-13.572 49.604-14.4-19.143-20.676.767 1.516c-23.296-24.428-69.92-45.278-111.88-49.997-19.338-2.178-39.994-1.843-62.413.925-16.7 2.06-34.353 5.47-53.2 10.22-16.464 4.14-33.814 9.268-52.184 15.425 7.838 3.763 15.478 9.073 22.93 15.646l3.912 3.574c1.298 1.233 2.6 2.496 3.862 3.803-.012-.018-.044-.022-.057-.04-28.247-17.932-58.622-19.938-89.973-14.526 9.392 3.27 23.242 9.627 35.603 20.38 1.7 1.464 3.316 3.03 4.92 4.638l1.192 1.2c-.012-.018-.03-.004-.044-.022 0 0-.012-.018-.03-.005-10.105-6.006-19.623-10.334-29.164-13.137-2.037-.602-4.084-1.142-6.144-1.6-3.126-.7-6.26-1.23-9.432-1.62-2.026-.254-4.06-.446-6.124-.563a108.79 108.79 0 0 0-14.877.138 141.38 141.38 0 0 0-4.727.432l-6.53 1.1c-9.645 1.72-18.003 3.58-25.18 5.446-3.6.932-6.86 1.85-9.85 2.775l-3.453 1.08c-3.312 1.084-6.204 2.103-8.696 3.073-3.728 1.447-6.57 2.758-8.568 3.8a33.44 33.44 0 0 1 4.166 1.438c10.15 4.217 24 14.314 33.7 23.363l3.078 3.245L341.154.438c.34-.06 2.14-.883 2.5-.94z" fill="url(#E)"/><path d="M141.76 25.87c14.308-.87 30.36-2.124 48.242-3.943l2.83-.3c15.47-1.594 32.288-3.555 50.488-6.02l50.245-7.458L342.6-.326l-59.5-64.57c-24.726-13.567-40.8-16.804-59.83-16.547-5.175.16-10.523.422-15.982.793-16.7 1.142-34.47 3.28-51.604 6.106-16.54 2.743-32.435 6.133-46.23 9.913-8.77 2.416-16.684 5-23.332 7.642-5.862 2.343-11.266 4.786-16.287 7.302 25.1 24.05 54.6 54.423 71.93 75.557z" fill="url(#F)"/><path d="M697.74-87.882l45.4-13.77 35.178-11.13c-2.342-10.966 2.62-24.85 9.17-39.363-11.075 9.226-18.387 22.082-20.063 37.4-28.142-41.768-64.174-69.017-107.07-65.115a92.84 92.84 0 0 0-11.624 1.787c16.438.487 28.367 7.363 41.45 27.265.044.022.1.062.145.085-.044-.022-.1-.062-.145-.085-33.43-18.78-55.964-23.938-85.227-21.557-6.936.56-14.25 1.54-22.182 2.866 43.476 5.873 71.8 29.037 88.586 63.086l.776 1.494L690.5-85.737l7.25-2.137z" fill="url(#G)"/></g><g transform="matrix(.49801 0 0 .49801 668.92 138.69)"><g fill="#d32128"><path d="M812.83 48.8c30.73-21.6 71.06-27.7 107.26-18.64 30.7 7.38 57.7 28.9 71.2 57.5l-22.23 13.47c-6.6-13.87-16.76-26.13-29.62-34.6-17.37-11.63-38.77-16.3-59.48-15.25-21.37.92-42.4 9.1-58.5 23.2-23.82 20.65-37.15 51.58-39.8 82.64-3.1 35.1 8.84 71.46 33 97.24 11.63 12.43 26.18 22.28 42.4 27.66 34.95 11.8 76.24 1.4 101.54-25.4 6.16-6.55 11.26-14.06 15.26-22.1l23.05 11.93c-7 15.92-18.7 29.52-32.72 39.7-32.9 23.82-77.33 32.7-116.22 19.75-28.75-9.56-53-30.22-69.32-55.5-20.4-31.43-29.6-70.42-23.28-107.53 6.07-37.14 26.38-72.4 57.48-94.07zm-502.4 260.7l.01-281.82L428 27.7c15.94.1 31.7 5.46 44.6 14.78 21.8 15.7 35.98 41.42 37.84 68.2 1.2 19.7-3.8 39.74-14.2 56.52-8.98 14.56-22.36 26.6-38.35 32.93-9.46 3.8-19.7 5.53-29.87 5.37-30.06-.01-60.12-.01-90.18 0v104h-27.4m27.4-257.2v128.6h90.12c11.22.08 22.44-3.73 31.2-10.78 11.22-8.96 18.48-22.2 21.65-36.1 4.05-17.34 2.1-36.3-6.9-51.83-9.53-17.13-27.9-29.83-47.87-29.88h-88.2z"/><path id="I" d="M613.17 27.7h22.64l117.96 281.8H724l-36.54-88.1c-42.25-.01-84.5-.02-126.74 0l-36.08 88.06-29.42.03L613.17 27.7m-46.44 171.9h114.35L624.7 60.25 566.73 199.6z"/><path d="M1035.6 27.7h27.4v125.4h167.2V27.72h27.8V309.5c-9.28.01-18.55.03-27.83-.01V177.7H1063l-.05 131.8c-9.12-.03-18.25.02-27.36-.03V27.7zm286.2 0h185.85v24.6c-52.82-.02-105.64 0-158.46-.01l-.02 101.6h138.24v23.4h-138.23l-.01 107.6h162.1l.01 24.57H1321.8V27.7z"/></g><use xlink:href="#I" x="-473.85"/></g><path d="M2085.47 631.425h13.22v2.826c-1.642.002-3.283-.001-4.926.002l.001 13.816h-3.364v-13.816c-1.644-.004-3.287 0-4.932-.002v-2.826zm15.335 16.643l.002-16.645 5.03.001 3.02 11.348 2.986-11.347 5.036-.002-.001 16.646c-1.038-.001-2.075 0-3.113 0l-.005-13.1-3.304 13.1c-1.077.001-2.153-.001-3.23.001l-3.3-13.082-.001 13.08c-1.043-.001-2.086.001-3.13-.001z" fill="#66c2e3"/><g transform="matrix(3.9605 0 0 -3.9605 -58.815 880.12)"><g fill-rule="evenodd"><path d="M466.8 48.447h30.178l3.737 17.004 26.117-.056c4.206 0 7.93 1.306 11.237 3.54 3.992 2.698 6.973 6.83 8.093 11.932l5.703 25.877c1.086 4.924 2.5 10.484-1.03 14.93-3.247 4.092-7.558 4.4-12.3 4.4-34.072-.037-68.146.001-102.22.001-3.44 0-6.32-1.112-9.327-2.662-2.82 1.994-5.365 2.662-8.823 2.662h-46.768l3.83 17.238h-30.225l-3.737-16.817h-26.582c-3.67 0-7.198-1.152-10.277-3.13-2.985 1.857-5.287 2.663-8.822 2.663h-87.74l4.018 17.472-30.178.047-17.398-77.817 30.15-.008 9.07 39.825h10.202c1.214 0 .975-.692.772-1.606l-8.578-38.22h199.88c3.4 0 6.045.7 9.098 2.258 3.008-2 5.667-2.678 9.343-2.646l46.294.388-3.725-17.288zm-130.55 57.058h-8.897c-1.56 0-1.98-.712-2.292-2.1l-3.34-14.988c-.317-1.436.4-1.67 1.666-1.67h8.66l4.206 18.77zm51.037-.362h9.504c1.83 0 1.73-.96 1.4-2.44l-3.265-14.682c-.38-1.7-1.444-1.68-2.913-1.68h-9.67c-1.42 0-1.433.84-1.18 1.988l3.252 14.68c.4 1.813 1.115 2.135 2.874 2.135zm62.56 0h9.503c1.83 0 1.73-.96 1.4-2.44l-3.265-14.682c-.38-1.7-1.444-1.68-2.913-1.68h-9.67c-1.42 0-1.433.84-1.18 1.988l3.252 14.68c.4 1.813 1.115 2.135 2.874 2.135zm55.8-18.943h8.897c1.56 0 1.982.712 2.292 2.1l3.34 14.988c.317 1.436-.4 1.67-1.666 1.67h-8.66l-4.205-18.77"/><g fill="#66c2e3"><path id="J" d="M380.32 121.7h37.906c5.916 0 9.683-4.84 8.372-10.755l-6.754-30.486c-1.3-5.915-7.222-10.755-13.137-10.755h-37.905c-5.915 0-9.683 4.84-8.372 10.755l6.753 30.486c1.3 5.916 7.222 10.755 13.137 10.755zm6.87-12.24h18.74c3.13 0 5.125-2.56 4.43-5.7l-3.575-16.136c-.693-3.13-3.822-5.7-6.952-5.7H381.1c-3.13 0-5.124 2.56-4.43 5.7l3.575 16.136c.693 3.13 3.82 5.7 6.952 5.7"/><path id="K" d="M355.728 139.525l-3.875-17.425-30.9.025c-5.913.003-11.815-4.836-13.125-10.75l-6.775-30.5c-1.3-5.913 2.46-10.75 8.375-10.75h45.5l15.375 69.4h-14.575zm-27.9-29.65h21.325l-6.125-27.5h-21.3c-3.13 0-5.118 2.548-4.425 5.675l3.575 16.15c.693 3.128 3.82 5.675 6.95 5.675z"/><path d="M192.328 139.525l-5.9-26.6h.075l-.25-1.05-.25-.925-4.9-22.075h.05l-4.175-18.75h14.575l4.175 18.75h.025l3.3 14.9c.006.024-.005.05 0 .075l1.275 5.625h21.275c3.13 0 5.143-2.57 4.45-5.7l-7.45-33.65h14.6l4.125 18.55h.025l4.925 22.275c1.3 5.915-2.46 10.775-8.375 10.775h-30.925l3.95 17.8h-14.6zM295.58 70.13h-48.626c-5.915 0-9.683 4.84-8.373 10.755l1.96 8.846h.01l.377 1.7c1.3 5.914 7.224 10.757 13.137 10.755l34.024-.015.502 2.26c.534 2.948-1.324 5.337-4.246 5.457H244.96l2.7 12.234 48.878-.014c5.793-.114 9.456-4.907 8.162-10.75l-.92-4.152h.008l-1.117-5.038h.01l-7.1-32.035zm-37.798 12.24h25.905l1.684 7.578H259.9a3.59 3.59 0 0 1-.377.02c-2.086 0-4.168-1.706-4.628-3.8-.455-2.06.838-3.75 2.88-3.8"/><use xlink:href="#J" x="62.48"/><use transform="rotate(180 424.74 95.927)" xlink:href="#K"/></g></g><path d="M54.83 101.8l-.722-1.964-1.382.507.722 1.964zm-.722-1.964l-1.073-2.92-1.382.507 1.073 2.92zm-1.073-2.92l-.173-.268-.518.52zm-.173-.268l-2.355-2.332-1.036 1.042 2.355 2.332zm-2.355-2.332l-2.1-2.07-1.036 1.042 2.1 2.07zm-2.1-2.07l-.522-.5-1.02 1.065.505.488zm-.522-.5c-.943-.908-1.13-1.088-.858-2.7l-1.45-.242c-.4 2.4-.12 2.66 1.3 4.017zm-.858-2.7c.22-1.306.653-2.638 1.335-3.935l-1.307-.685c-.752 1.43-1.233 2.914-1.48 4.378zm1.335-3.935c.633-1.204 1.475-2.37 2.55-3.45l-1.042-1.036c-1.193 1.196-2.122 2.48-2.815 3.8zm2.55-3.45c1.375-1.38 3.62-3.087 5.957-3.975l-.518-1.377c-2.553.97-4.992 2.823-6.48 4.315zm5.957-3.975c1.625-.618 3.282-.83 4.666-.218l.593-1.348c-1.786-.8-3.822-.555-5.777.2zm4.666-.218l1.422.63-.414-1.5-.7.196zm1.008-.87l-.65-2.042-1.388.5.615 1.933zm-.65-2.042l-.8-1.94-1.342.6.744 1.83zm-.8-1.94c-1.245-2.73.06-4.168 2.083-5.1l-.6-1.342C59.82 67.418 58.04 69.4 59.772 73.2zm2.083-5.1c1.293-.6 2.857-.997 4.3-1.375l-.346-1.43c-1.527.398-3.17.826-4.553 1.456zm4.3-1.375l1.024-.27-.374-1.422-1.018.27zm1.024-.27c1.753-.474 4.783-1.343 7.507-1.516l-.092-1.474c-2.855.18-5.98 1.078-7.8 1.567zm7.507-1.516c2.462-.156 4.657.26 5.165 2.144l1.422-.374c-.754-2.797-3.564-3.44-6.68-3.244zm5.165 2.144c.27 1 .425 1.77.5 2.535l1.474-.12c-.07-.83-.243-1.68-.54-2.788zm.5 2.535c.065.77.038 1.515-.056 2.46l1.463.138c.107-1.065.138-1.892.068-2.72zm-.056 2.46l.058.368.674-.3zm.058.368c.992 2.214 1.4 2.8 2.122 3.868l1.215-.83c-.667-.977-1.045-1.53-2-3.638zm2.122 3.868l.322.475 1.22-.823L85 74.9zm.322.475c.563.835.822 1.392.904 1.97l1.457-.202c-.118-.825-.445-1.558-1.14-2.6zm.904 1.97c.086.606-.001 1.328-.132 2.433l1.463.167c.144-1.213.24-2.006.126-2.802zm-.132 2.433l-.087.697 1.457.184.092-.713zm-.087.697l-.104.727 1.457.213.104-.755zm-.104.727l-.144.983.982-.148-.1-.728zm.838.835c2.085-.314 4.13-.47 6.166-.482l-.006-1.474a44.68 44.68 0 0 0-6.379.499zm6.166-.482a47.15 47.15 0 0 1 6.12.37l.173-1.463a48.24 48.24 0 0 0-6.298-.38zm6.12.37l.455-1.37-.368.64zm.455-1.37l-3.892-2.082-.673 1.313 3.83 2.047zm-3.892-2.082l-.338-.174-.674 1.313.338.174zm-.338-.174c-1.557-.8-1.57-2.48-1.02-4.242l-1.405-.438c-.754 2.412-.653 4.755 1.753 5.992zm-1.02-4.242c.624-1.998 1.95-4.1 2.78-5.382l-1.233-.8c-.876 1.35-2.274 3.57-2.953 5.745zm2.78-5.382c1.74-2.683 3.383-4.942 5.268-6.097l-.766-1.255c-2.132 1.306-3.9 3.7-5.734 6.552zm5.268-6.097c1.78-1.092 3.864-1.193 6.623.3l.697-1.302c-3.297-1.784-5.85-1.624-8.086-.253zm6.623.3c1.304.706 1.74 1.472 2.33 2.504l1.284-.726c-.712-1.247-1.24-2.172-2.918-3.08zm2.33 2.504l.87 1.424 1.22-.818-.805-1.332zm.87 1.424l.256.24.354-.648zm.256.24c.43.236 2.27 1.755 4.056 3.232l.94-1.134-4.287-3.393zm4.056 3.232l2.3 1.9.927-1.15-2.288-1.874zm2.3 1.9l.565.456.466-.56-.567-.472zm1.03-.103c.294-.353.76-.57 1.4-.722l-.34-1.434c-.942.225-1.665.587-2.186 1.2zm1.4-.722c.725-.174 1.678-.26 2.833-.342l-.104-1.474c-1.2.087-2.22.18-3.07.382zm2.833-.342c.905-.066 3.798-.064 5.666-.064v-1.474c-1.908-.001-4.863-.002-5.77.063zm5.666-.064l1.38-.001-.006-1.474-1.373.001v1.474zm1.38-.001c1.74-.01 3.12.067 4.03.583l.726-1.284c-1.202-.68-2.793-.785-4.763-.773l.006 1.474zm4.03.583c.833.472 1.333 1.4 1.457 3.14l1.474-.104c-.165-2.306-.924-3.593-2.206-4.32zm1.457 3.14c.064.893.08 1.425-.022 1.88l1.44.317c.142-.646.13-1.277.056-2.302zm-.022 1.88c-.1.457-.337.93-.775 1.7l1.3.72c.505-.898.783-1.467.924-2.112zm-.775 1.7l-.092.343.737.017zm-.092.343l-.085 3.174 1.474.035.085-3.174zm-.085 3.174l-.085 3.173 1.474.035.085-3.173zm-.085 3.173c-.03 1.136-.153 2.047-.378 2.933l1.428.357a13.87 13.87 0 0 0 .424-3.256zm-.378 2.933c-.226.893-.564 1.786-1.02 2.87l1.36.57c.48-1.14.837-2.093 1.088-3.084zm-1.02 2.87l-.87 2.243 1.382.507.846-2.18zm.512 2.752v-.003l-.7-.253zm-1.382-.513l-1.43 3.423 1.32.662c.63-1.243 1.055-2.4 1.493-3.572zm-1.43 3.423l-.066.458.726-.127zm-.066.458l.18 1.138 1.457-.184-.185-1.207zm.18 1.138l.127 1.186 1.474-.12-.144-1.25zm.127 1.186l.137 1.54 1.1-1.07-.5-.533zm1.247.472l2.166-2.087-1.02-1.065-2.166 2.087zm2.166-2.087l1.62-1.56-1.02-1.065-1.62 1.56zm1.62-1.56c1.17-1.126 2.236-2.15 3.42-2.848l-.748-1.273c-1.327.783-2.456 1.865-3.692 3.055zm3.42-2.848c1.14-.672 2.425-1.062 4.094-.983l.07-1.474c-1.997-.094-3.54.375-4.912 1.185zm4.094-.983c1.802.085 3.748.858 5.365 2.05l.875-1.186c-1.843-1.36-4.08-2.24-6.172-2.34zm5.365 2.05c1.544 1.14 2.775 2.65 3.275 4.294l1.4-.426c-.597-1.963-2.028-3.738-3.8-5.053zM152 99.336l.517 1.703 1.4-.426-.517-1.703zm.517 1.703l.602 1.982 1.4-.426-.602-1.982zm.602 1.982l.192.632.65-.123-.135-.723zm.84.5c2.985-.564 6.235-.76 9.358-.434l.144-1.463c-3.266-.342-6.66-.137-9.773.45zm9.358-.434c2.744.288 5.4.984 7.666 2.198l.7-1.302c-2.444-1.304-5.28-2.05-8.213-2.36zm7.666 2.198c3.332 1.778 5.835 4.405 7.637 7.527l1.278-.73c-1.936-3.354-4.63-6.18-8.224-8.097zm7.637 7.527v.003l.64-.368-.64.366zm0 .003c2.06 3.567 3.213 7.775 3.652 12.1l1.463-.138c-.46-4.544-1.672-8.96-3.836-12.7zm3.652 12.1c.358 3.533.16 8.35-.58 13l1.45.23c.758-4.78.96-9.734.6-13.38zm-.58 13c-.652 4.1-1.725 8.085-3.206 10.92l1.307.68c1.554-2.974 2.674-7.1 3.35-11.37zm-3.206 10.92c-.116.222-.3.465-.556.7l1.03 1.054c.355-.35.643-.72.833-1.083zm-.556.7c-.632.623-1.57 1.214-2.543 1.548l.478 1.394c1.18-.406 2.324-1.126 3.096-1.888zm-2.543 1.548c-.902.3-1.8.396-2.46.057l-.68 1.307c1.047.547 2.367.46 3.618.03zm-2.46.057a1.5 1.5 0 0 1-.376-.278l-1.054 1.03a2.95 2.95 0 0 0 .75.554zm-.376-.278c-.603-.6-1.132-1.383-1.662-2.158l-1.215.83c.573.837 1.144 1.67 1.823 2.36zm-1.662-2.158c-.697-1.02-1.398-2.042-2.305-2.816l-.956 1.123c.767.655 1.408 1.6 2.046 2.523zm-2.305-2.816c-1.1-.948-2.397-1.465-3.592-1.944l-.547 1.37c1.087.436 2.257.905 3.183 1.697zm-3.592-1.944l-.543-.22-.558 1.365.554.224zm-.543-.22l-.704-.3-.267.72.7.253zm-.97.43a18.97 18.97 0 0 1-1.738 3.517l1.25.783a20.43 20.43 0 0 0 1.871-3.793zm-1.738 3.517c-.684 1.092-1.46 2.1-2.3 3.124l1.13.945c.9-1.07 1.715-2.142 2.432-3.286zm-2.3 3.124a12.05 12.05 0 0 1-1.986 1.895l.892 1.17a13.49 13.49 0 0 0 2.222-2.12zm-1.986 1.895c-.688.524-1.47 1.015-2.382 1.586l.783 1.25c.924-.578 1.716-1.076 2.5-1.667zm-2.382 1.586c-2.57 1.6-4.724 3.5-6.92 5.427l.967 1.1c2.15-1.887 4.26-3.737 6.737-5.288zm-6.92 5.427l-2.902 2.5.94 1.14a128.81 128.81 0 0 0 2.93-2.519zm-2.902 2.5c-4.868 4.013-9.376 5.958-14.164 6.26l.092 1.474c5.1-.322 9.888-2.37 15-6.594zm-14.164 6.26c-4.824.304-9.98-1.047-16.1-3.623l-.57 1.36c6.327 2.663 11.687 4.058 16.762 3.74zm-16.1-3.623c-2.884-1.214-5.02-2.642-6.87-4.355l-.996 1.083c1.975 1.826 4.243 3.346 7.297 4.63zm-6.87-4.355c-1.866-1.726-3.47-3.764-5.27-6.17l-1.18.88c1.843 2.465 3.493 4.56 5.454 6.373zm-5.27-6.17l-.208-.28-.345-.018-.037.737zm-.553-.297c-1.025-.053-1.883-.177-2.737-.518L99 154.9c1.033.413 2.033.56 3.2.622zm-2.737-.518c-.867-.346-1.76-.926-2.854-1.892l-.973 1.106c1.232 1.087 2.26 1.748 3.28 2.157zm-2.854-1.892a73.39 73.39 0 0 1-2.47-2.285l-1.025 1.06a65.02 65.02 0 0 0 2.522 2.33zm-2.47-2.285l-.003-.003-.5.533.513-.53zm-.003-.003a86.97 86.97 0 0 1-2.345-2.36L90.8 148a78.88 78.88 0 0 0 2.4 2.406zM91.875 147l-.418-.216-.115.726zm-.418-.216c-5.76-.918-10.43-1.926-14.6-3.54l-.53 1.377c4.263 1.65 9.026 2.68 14.9 3.616zm-14.6-3.54c-4.134-1.6-7.783-3.8-11.535-7.135l-.973 1.105c3.892 3.45 7.68 5.742 11.98 7.406zM65.322 136.1c-1.52-1.348-2.832-2.767-3.976-4.264l-1.17.892a31.52 31.52 0 0 0 4.171 4.478zm-3.976-4.264c-1.144-1.498-2.128-3.085-3-4.767l-1.313.668a33.03 33.03 0 0 0 3.135 4.992zm-3-4.767l-.1-.158-.547.492zm-.1-.158c-.838-.926-1.675-1.865-2.572-2.672l-.985 1.1c.866.78 1.663 1.675 2.462 2.557zm-2.572-2.672c-.94-.847-1.96-1.567-3.14-2.02l-.53 1.377c.983.38 1.86 1.003 2.683 1.744zm-3.14-2.02h-.003l-.262.688zm-.003 0c-.946-.363-1.408-.546-1.932-.324l.57 1.36c.024-.01.26.12.838.34zm-1.932-.324l-.003.003.288.677-.285-.68zm-.003.003c-.552.234-.707.688-1.048 1.6l1.382.512c.194-.52.2-.738.242-.76zm-1.048 1.6l-.192.513.443.333.44-.6zm.25.846c1.354 1.018 1.483 3.044 1.606 4.996l1.474-.092c-.144-2.282-.294-4.653-2.2-6.084zm1.606 4.996l.046.703 1.474-.104-.046-.692zm.046.703l.052.72.72-.034-.035-.737zm.772.685c1.216-.058 1.77-.916 2.367-1.84l-1.238-.795c-.382.6-.736 1.14-1.198 1.162zm2.367-1.84a9.7 9.7 0 0 1 .52-.754l-1.15-.916a10.89 10.89 0 0 0-.607.874zm.664-1.37L54.916 126l-.958 1.2.576.458zm-1.44.317c.25 1.113.44 2.573.17 3.767l1.434.323c.33-1.46.118-3.143-.164-4.407zm.17 3.767c-.17.76-.538 1.413-1.22 1.766l.673 1.313c1.128-.584 1.72-1.597 1.98-2.756zm-1.22 1.766l-.583.302.228.6.7-.256zm-.354.913l.43 1.1 1.37-.536-.418-1.087zm.43 1.1l.675 1.8 1.393-.484c-.2-.597-.457-1.228-.698-1.843zm1.248 2.275l1.236.215-.416-1.182-.697.242zm.248-1.45c-1.427-.248-4.57-2-6.852-4.38l-1.065 1.02c2.5 2.584 6.025 4.526 7.67 4.812zm-6.852-4.38c-.827-.858-1.528-1.785-1.97-2.73l-1.336.616c.522 1.113 1.317 2.174 2.24 3.133zm-1.97-2.73c-.422-.9-.615-1.823-.46-2.718l-1.45-.248c-.2 1.213.033 2.424.575 3.582zm-.46-2.718c.14-.813.578-1.63 1.4-2.423l-1.02-1.065c-1.066 1.028-1.64 2.124-1.832 3.24zm1.4-2.423l.204-.357-.714-.176zm.204-.357c.187-.76.355-1.405.537-1.987l-1.405-.438c-.2.606-.365 1.278-.56 2.073zm.537-1.987a11.38 11.38 0 0 1 .604-1.554l-1.33-.633c-.267.555-.48 1.118-.68 1.75zm.604-1.554c.53-1.103 1.37-1.774 2.335-2.084l-.45-1.405c-1.336.43-2.492 1.35-3.216 2.856zm2.335-2.084c1.128-.362 2.44-.25 3.665.227l.536-1.37c-1.532-.597-3.195-.728-4.65-.26zm3.665.227l1.28.5-.292-1.34-.72.155zm.988-.84c-.347-1.593-.557-3.262-.627-5.147l-1.474.052c.073 1.97.294 3.722.662 5.406zm-.627-5.147c-.07-1.886.001-4.002.215-6.487l-1.474-.12c-.217 2.52-.288 4.692-.215 6.66zm.215-6.487c.054-.633.12-1.215.194-1.748l-1.457-.196c-.093.66-.164 1.27-.212 1.823zm.194-1.748a36.68 36.68 0 0 1 .301-1.799l-1.445-.277a38.57 38.57 0 0 0-.312 1.88zm.3-1.8l-.032-.392-.7.253"/><g fill-rule="evenodd"><path d="M91.737 146.33l-9.704-1.577-8.855-3.88-7.52-4.73-7.157-8.734-4.043-4.282-3.9-1.44-1.034 2.527 1.808 2.6.406 3.68 1.2-.05 1.323-1.207-.357 3.75-1.467.984.044 1.43-3.48-1.96-3.146-3.712-.656-3.318 1.345-2.657 1.255-4.513 2.552-1.208 2.685.132 2.545 1.48-1.698-8.612 1.698-9.582-1.87-4.425-6.122-6.597 1.1-3.94 2.9-4.567 5.47-3.85 2.9-.397 3.225-.1-2.012-8.26 7.4-3.033 9.22-1.213 3.153 2.062.243 5.58 3.518 5.822.243 4.6 8.5-.607 7.884.728-7.884-4.73 1.334-5.7 4.973-7.763L104.608 63l3.88 1.577 1.577 3.154 8.127 6.186 1.577-1.334 12.736-.485 2.547 2.062.243 3.64-.85 1.577-.607 9.825-4.245 8.5.728 3.76 2.547-1.334 7.157-6.672 3.518-.242 3.88 1.577 3.882 2.9 1.94 6.308 11.402-.728 6.914 2.67 5.58 5.216 4.003 7.52.97 8.855-.85 10.3-2.183 9.218-2.184 2.9-3.032.97-5.337-5.822-4.852-1.698-4.245 7.035-4.245 3.882-2.305 1.456-9.22 7.642-7.4 4.003-7.4.607-8.612-1.456-7.52-2.8-5.216-4.245-4.124-4.973-4.245-1.213z" stroke-miterlimit="10" fill="#feeb50" stroke="#1f1917" stroke-width=".216"/><g fill="#fdf7ba"><path d="M63.593 124.43c-8.312-9.695-6.466-21.453-4.162-32.973l-3.688 9.318-1.36 8.542.388 8.736 3.494 8.348 5.242 7.766 8.154 6.795 8.93 3.7 10.483 1.36-9.707-11.066c-7.794-2.528-12.4-4.23-17.775-10.513"/><path d="M102.72 153.97c-5.78-5.638-8.935-9.9-12.612-16.5-2.63-4.722-5.58-9.27-8.347-13.926-1.4-2.357-1.53-4.333-1.95-7.05l-4.077 4.853 1.942 5.824 6.6 11.842 13.978 13.784 4.465 1.165m28.54 13.978c-4.628-1.735-12.314-2.307-12.848-7.62-.38-3.772.284-5.668 2.558-9.66-5.616 5.812-7.005 4.912-17.86 3.106l4.66 6.6 8.154 5.047 10.483 2.33 4.853.194"/></g><g fill="#edd749"><path d="M144.03 96.096c1.54-.95 1.508-1.64 1.25-2.292l3.646 1.46 2.362 3.172 1.754 4.52-2.24 1.685-9.792-1.25-.73-1.98.2-2.813.938-1.667 1.458-.73 1.146-.104m-.912 16.743c-4.9-1.417-4.87-1.807-6.32-6.677 1.914 3.07 3.33 4.62 6.32 6.677m32.65 36.44c-.873-.403-1.722-.597-2.267-1.395-1.174-1.718-2.18-3.163-4.123-4.37-.978-.608-2-1-3.027-1.324-.86-.268-1.377-.03-2.1-.555l1.303-.228h2.873l3.542 2.188 2.084 2.188 1.724 3.497m-78.2-10.88c-1.93-5.284-3.618-9.814-6.544-14.598 3.75 4.04 6.02 7.472 8.168 12.038.834 1.774.992 3.855 3.314 3.08.104-1.77.48-3.542.583-5.313 1.255 8.997 4.794 12.76 13.022 16.252l-6.98-.833-6.563-1.458-3.23-4.688-1.77-4.48m15.93.2c1.774-8.35 4.33-16.366 5.44-24.85.72-5.513.8-8.16-1.974-12.917-3.03.196-4.913-.146-7.845-1.107C97.448 95.9 90.754 90.275 82.9 101.6l7.532-3.55 5.37 1.055 9.48 5.52 7.396 1.458 2.396 10-1.77 13.23-.208 6.25.417 3.02M133.6 86.928c-.98-6.785 2.257-10.432.917-12.306-.38-.53-.894-1.456-1.47-1.7-2.052-.906-4.872.17-5.074-.36H121.2l-2.7 1.146 4.167 4.896 4.063 8.855 2.604 8.96h1.354l2.917-9.48"/><path d="M122.23 106.65c.55-3.08 1.505-3.813 2.954-6.795-.965-4.865-2.514-10.65-4.38-14.943-.786-1.8-1.42-2.808-2.807-4.207-2.34-2.364-4.707-4.423-7.362-6.47-1.9-1.473-3.244-.734-5.602-.4-1.003-1.818-1.28-2.827-3.125-3.75-2.838-1.42-5.378 1.64-7.605 3.438l4.824-7.535 3.334-3.125 2.813-.417 3.75 2.292 1.98 3.75 4.167 3.126 5.105 4.375 3.23 4.584L126.423 86l3.75 11.25.312 4.27-4.688 2.084c-1.146 1.077-2.422 1.98-3.568 3.055m-37.37-21.7c5.258 0 10.8.292 15.626 2.5 1.363 2.045 2.708 3.714 4.376 5.52-1.518-2.866-1.994-4.487-2.396-7.7l-1.563-2.292-11.876-.313-3.855.417-.417.417.104 1.46m-.728 3.627l-.408 3.7c-.898-5.407-.682-9.03-3.17-13.874-1.86-2.154-4.148-4.114-6.77-5.163.22-1.328.287-2.158.16-3.13-.462-3.502-7.468-1.955-10.35-1.816l13.87-3.57 3.126 1.25 1.042 6.042 2.917 5.417.52 3.334-.938 7.814m-7.812 30.52c-.145-2.63-.315-3.725.844-6.047 1.474-2.95 3.284-5.724 4.886-8.64l.52 5.834-6.25 8.855M54.93 99.258l-1.353-2.88c1.24-4.18 2.344-6.83 4.708-10.482-.412-1.48-.72-2.127-1.667-3.334-2.08.32-3.927.412-6.035.406l6.98-5.417 3.438.625 3.438 3.438-4.896 7.605-4.613 10.038m120.84 51.413c1.417-6.375 3.244-12.258 3.075-18.787-.208-8-1.77-18.13-9.2-22.96-8.312-5.4-18.07-2.85-27.188-.533l11.147-4.584 10.418-.52 7.084 2.084 5.52 4.584 4.167 8.75 1.563 10.105-1.25 9.897-2.292 9.793-3.053 2.172m-124.027-19c-3.773-2.456-5.256-3.534-4.842-8.086l1.128-4.1 1.598-1.082 1.975-.658 3.573.846L57 124.3l-5.077-2.492h-1.175l-1.316 2.02 1.6 2.35.846 4.466 1.08-.33 1.316-1.034-.188 2.35-.893 1.504-.893.752-.564-2.2M136.4 167.53c3.35-3.1 7.46-5.813 10.138-9.613 1.037-1.47 2.2-2.224-.018-4.302 2.33.666 3.197.594 5.063.367 3.394-.4 6.575-5.236 6.778-8.693-.04-.323-.943-1.057-3.567-1.782-.052-.1-1.48.196-1.446.1.273-.746.637-.86 1.194-1.2.12-.83.198-2.1.764-3.017 1.65.03 3.265-.15 4.882-.47.544-.903.462-1.805.417-2.708l1.875.312-.52 4.27 1.667 2.813-2.396 5.417-4.584 4.376-.44.022-5.155 3.163-8.408 6.88-6.242 4.077m5.628-25.672c-.177-.3-.443-.803-.785-1.145 1.395-1.32 2.083-2.203 2.58-4.07l-4.73-2.35-4.003-3.837c-1.756.945-2.194 1.67-3.044 3.474-1-.262-1.927-.514-2.745-.214.52-.004.837.126 1.355.446l2.547 2.647 4.5 3.407 2.944.96c.375.154 1.005.527 1.38.68"/><path d="M146.4 137.16c-5.017-2.7-9.822-5.418-12.387-10.548 0 6.512 6.538 9.378 12.387 10.548m-13.4 12.8c-3.725-2.54-6.36-7.666-6.028-12.66-1.214 4.325-.784 8.413 2.942 11.4l1.886.917 1.2.344"/></g><path d="M140.12 111.4l2.938 1.414-3.004-.558c-2.115-.357-2.364-.866-2.693-2.95l-.523-3.18 1.397 3.456c.5 1.12.8 1.224 1.885 1.815zm-39.252 53.643c1.663 2.494 2.62 3.305 5.178 4.885-3.474-.837-4.136-1.48-5.178-4.885zm-.547-5.494c2.9 5.848 5.112 8.002 11.203 10.874-6.9-1.7-8.914-2.9-11.203-10.874zm-62.3-30.44c.638 2.928 1.233 4.033 3.04 6.437-2.93-2.046-3.3-2.887-3.04-6.437zm65.2-49.014l-.265 2.132c-.16 1.287-.153 2.334-.05 3.63l.296 3.763c-.365-1.275-1.096-2.55-1.46-3.825-.146-.5-.267-.923-.336-1.304a42.9 42.9 0 0 0-16.316-.21c-.348 2.02-.77 4.122-1.127 5.63-.108-1.7-.038-6.358-.047-8.972-.007-2.026-.092-2.72-1.136-4.442-.978-1.613-1.392-1.98-2.76-4.704.114-1.72.116-2.857-.34-4.5-.76-2.713-8.425-.6-10.447-.057-2.5.68-7.638 1.695-6.343 5.014 1.14 2.92 1.862 6.002 2.418 10.1-4.562 6.572-8.805 15.578-9.62 23.558-.632 6.196-.253 10 1.088 13.8 2.125 6.005 5.096 11.203 9.866 15.4 6.433 5.645 12.447 7.912 21.862 9.345-2.264-2.535-4.504-5.215-6.946-8.1-2.472-2.9-3.94-5.848-5.5-9.03-2.168-4.395-2.122-6.068.753-9.926 2.477-3.325 3.814-4.823 4.895-8.076-.893-1.84-1.218-3.397-1.518-5.9 3.033-3.315 5.286-5.587 8.23-6.286 2.888-.687 5.3-.553 7.884.767 5.74 2.934 11.05 6.723 17.524 6.88 2.995 7.364 2.692 13.516 1.254 20.64-.982 4.865-1.376 9.472-1.68 14.433-1.214-5.108-1.442-9.6-.54-14.7 1.086-6.132 1.93-12.907-1.1-18.296-5.854-.448-10.87-4-16.147-6.742-2.12-1.1-4.33-1.206-6.676-.56-2.18.598-3.65 2.04-5.997 4.747-.037 2.718.577 3.973 1.825 6.434 2.005 3.953 4.22 7.633 6.648 11.523-2.975-3.6-5.793-6.6-8.134-10.2-.895 2.55-2.174 3.844-4.294 6.715-2.07 2.804-2.287 4.032-.74 7.276 1.556 3.26 2.877 6.127 5.526 8.987 4.578 4.943 8.77 10.445 13.777 15.313 2.718 2.643 3.82 2.552 7.427 3.1 3.258.494 6.44 1.118 9.764 1.9-3.214-.3-6.32-.4-9.45-.487l-.097-.002c3.08 3.932 4.865 6.122 9.865 8.295 12.3 5.346 20.132 5.925 29.802-2.204 2.506-2.107 4.695-4.152 7.236-5.97a9.16 9.16 0 0 1-2.766-.656c1.278.244 2.754.002 4.08-.24.373-.242.755-.477 1.147-.708 1.793-1.057 2.812-1.64 4.025-3.33 1.282-1.786 2.35-3.57 3.293-5.54-.617.22-1.135.407-1.596.544a3.38 3.38 0 0 1-1.1.296c-.776.075-1.518-.116-2.137-.497l-.075-.035c-.992-.483-2.53-1.034-3.558-1.2.524-.18 1.685-.25 2.232-.032a1.64 1.64 0 0 0 .225.07 3.43 3.43 0 0 1-.091-3.322l.003-.006c.093-.218.222-.42.364-.565a26.61 26.61 0 0 1-1.445-.586c2.294.35 4.362.4 6.6.114l.434-2.214-.897-.07c-1.06.847-2.24.704-3.852.336-4.903-1.118-3.75-3.87-6.007-8.016 2.342 2.863 2.17 5.86 5.986 6.763.9.2 1.495.474 2.097.383-1.084-.545-2.02-1.448-2.393-2.498-1.048-2.958-.397-5.45-1.548-8.215 1.426 2.47 1.512 4.88 2.786 7.48.458.934 2.157 2.428 3.2 2.45l.86.018c.25-1.645.404-3.277.307-4.632-.178-2.47-.82-6.14-1.204-7.543 1.3 1.66 1.88 5.176 2.447 7.65.6 2.577.442 5.67-.075 8.44-.7 3.8 3.203 3.18 5.474 4.97 1.67 1.316 2.82 3.418 4.35 4.907 1.52 1.476 3.9-.693 4.506-2.137 2.6-6.265 3.77-16.122 3.086-22.438-.768-7.087-4.2-14.824-10.442-18.313-7.968-4.447-17.364-1.73-25.28.937-1.7.57-2.865 1.4-4.35 2.335.404-1.82.588-3.748.05-5.567-.854-2.885-2.233-7.606 1.684-8.477 1.5-.33 2.167-.283 4.272.803-1.704-.385-2.563-.3-3.734-.075-1.06.195-1.624.87-1.92 1.665.37-.268.975-.413 2-.662 2.904-.7 5.672.698 6.213 2.712.316 1.177.262 1.795.93 3.398a31.81 31.81 0 0 1 1.86-.51l-1.08-3.52c-.933-3.045-4.57-5.5-7.78-5.444-2.97.053-4.85 1.912-6.9 3.735l-4.117 3.648c-3.694 1.166-6.656 2.528-10.084 5.066 2.44-2.868 4.096-4.455 7.498-5.882-.495-5.048-2.25-8.73-3.745-13.56-.677-2.185-6.02-10.938-7.502-11.792-1.056-.608-7.67-6.18-8.916-6.915-.927-1.23-1.74-2.932-3.133-3.668-4.246-2.245-6.974 2.054-9.26 5.685-1.04 1.654-3.93 6.418-1.4 7.752 2.38 1.26 3.715 2.162 6.144 3.757.357-.65.97-1.278 1.37-1.928zM118 72.407c-2.15-1.736-5.764-4.8-6.466-5.195-1.27-1.895-1.427-3.068-3.46-4.17-6.056-3.277-9.27.523-12.855 6.048-1.708 2.633-5.443 8.643-1.48 10.68 1.67.858 2.936 1.502 4.198 2.237-4.158-.516-8.24-.522-12.482.116l.194-1.446c.276-2.318.366-3.03-.893-4.897-.918-1.362-1.272-1.757-2.38-4.232.202-2.012.114-3.144-.454-5.252-1.262-4.683-10.007-2.116-13.57-1.152-4.288 1.16-10.414 2.24-7.9 7.752a26.21 26.21 0 0 1 1.4 3.872c-3.75-1.66-8.96 1.86-11.44 4.348-2.36 2.366-3.642 5.114-4.1 7.78-.38 2.27-.032 2.258 1.587 3.863l4.444 4.4 1.795 4.882c-.233 1.216-.406 2.428-.5 3.63-.43 5.006-.286 8.57.43 11.85-2.6-1.018-5.602-.54-6.933 2.228-.506 1.052-.808 2.125-1.2 3.68-5.82 5.607 5.086 12.957 8.267 13.5-.364-1.034-.762-1.98-1.113-2.916 2.157-1.117 1.893-4.3 1.435-6.348-.776.98-1.205 2.26-2.346 2.315-.167-2.317-.138-4.878-1.948-6.238.536-1.432.508-1.433 2.03-.848 2.162.832 3.8 2.687 5.428 4.497 1.764 3.436 4.025 6.493 7.136 9.25 7.644 6.777 14.87 8.995 26.504 10.85a81.42 81.42 0 0 0 4.867 4.692c2.327 2.054 3.838 2.48 6.04 2.595 3.642 4.872 6.508 8.265 12.446 10.764 12.447 5.24 21.027 5.492 31.017-2.746 3.302-2.722 6.117-5.6 9.745-7.862 1.836-1.15 3.148-1.976 4.54-3.634 1.75-2.086 3.18-4.172 4.176-6.858 1.286.53 2.752 1.028 3.936 2.04 1.53 1.306 2.5 3.493 3.917 4.928 1.88 1.904 6.167-.395 7.116-2.212 3.23-6.18 4.55-17.567 3.863-24.34-.848-8.37-4.3-16.285-11.674-20.22-5.015-2.676-11.745-2.925-17.505-1.836l-1.118-3.685c-1.12-3.68-5.492-6.7-9.3-6.87-3.667-.173-5.655 1.72-8.06 4.036l-3.786 3.646c-.073-.828-.182-1.622-.318-2.4.993-1.96 1.47-3.686 2.32-5.708.935-2.227 1.4-3.688 1.455-6.07l.17-6.347c.944-1.677 1.026-2.084.9-4.003-.3-4.043-2.518-4.43-6.23-4.406-1.237.008-5.904-.02-7.093.065-2.365.17-3.924.352-4.74 1.328zm12.514 22.057c-.747-2.666-1.75-5.183-2.666-8.068-.867-2.73-5.313-10.66-7.93-12.583.5-.38 1.444-.528 3.1-.672 1.178-.102 5.824-.123 7-.143 2.568-.045 3.543.148 3.802 3.073.127 1.43.015 1.7-.7 2.954l-.2 6.715c-.06 2.122-.467 3.344-1.3 5.322-.5 1.183-.77 2.288-1.114 3.402zM52.28 131.092c.577.065.933-.237 1.38-.683-.083 1.065-.28 1.854-1.027 2.3a14.89 14.89 0 0 1-.148-.522c-.1-.343-.155-.707-.204-1.085zm3.622-7.693a56.94 56.94 0 0 1-1.162-3.324l-.174-.57c-2.193-.93-5.076-1.52-6.18.784-.536 1.118-.838 2.216-1.23 3.63-3.6 3.74 1.787 8.68 4.727 10.452-.425-.915-.728-1.607-.934-2.32-.894-3.1.405-5.847-2.4-8.087 1.318-2.66 1.257-3.72 4.323-2.5 1.183.474 2.158 1.14 3.03 1.925zm-.845-25.177c1.662-5.75 4.493-11.397 7.63-16.146v-.083c-.197-.816-.424-1.612-.9-2.25-2.243-3-7.95 1.404-9.6 3.1-1.805 1.843-3.014 4.027-3.302 6.074-.2 1.494-.006 1.53 1.036 2.586l4.214 4.266.923 2.463zm106.22 46.14a3.49 3.49 0 0 0 .756-1.11 3.7 3.7 0 0 0 .309.253l-.402.876-.664-.02zm-27.476-10.34a4.49 4.49 0 0 0-.438 1.9c-1.077-.86-2.247-1.675-3.462-2.146 1.677 1.498 3.955 5.03 5.606 6.144 1.873 1.266 4.415 1.02 6.6 2.03-.746-.678-1.7-1.223-2.674-1.743a4.5 4.5 0 0 0 2.526-2.294 4.49 4.49 0 0 0 .41-1.443c1.467.482 2.908.7 4.125.692-4.353-1.222-8.983-4.08-12.176-7.864a10.14 10.14 0 0 0 1.464 2.673 4.49 4.49 0 0 0-1.98 2.051zm-20.187 15.748c-2.404-.938-4.596-1.642-6.94-2.23-2.138-2.8-3.44-4.266-3.933-8.033-.58 3.706-.7 4.393.95 7.16-.478-.243-.922-.577-1.56-1.12-2.304-1.97-5.307-9.712-6.508-12.48.762 3.332 3.147 11.66 5.602 14.086 1.615 1.596 1.98 1.56 4.258 1.775l8.13.844zm50.174-8.078c1.95-.184 3.065-.485 4.8.378 3.255 1.6 5.65 4.24 7.202 7.385-.95-3.752-2.862-6.94-6.827-8.354-1.947-.694-3.203.023-5.186.6zm-37.425-.366c.735 3.254 2.04 6.388 7.092 8.814-6.698-1.677-7.953-4.5-7.092-8.814zm-86.843-17.52c.575 6.507 1.84 9.316 6.463 14.212-5.8-4.086-7.246-5.943-6.463-14.212"/><path d="M134.67 132.97a1.87 1.87 0 0 0 .89 2.5c.937.436 2.07.048 2.516-.9a1.88 1.88 0 0 0 .104-.272c-.896-.665-1.718-1.448-2.406-2.356-.464.187-.875.526-1.105 1.006m20.97 8.122c.075.775.736 1.347 1.512 1.272a1.42 1.42 0 0 0 1.273-1.544 1.4 1.4 0 0 0-.127-.462c-.7-.12-1.42-.33-2.15-.598-.306.313-.55.884-.506 1.332" fill="#edd749"/></g></g></g></svg>