<svg xmlns="http://www.w3.org/2000/svg" width="120" height="60"><path d="M49.44 24.055L46.918 37.61c-.116.67-.532 1.064-1.295 1.064h-3.7c-.555 0-.88-.416-.787-.925l2.545-13.602c.093-.486.416-1.018 1.25-1.018h3.7c.578 0 .902.416.8.925zm.208-6.547h-3.7c-.856 0-1.157.555-1.25 1.018L44.28 20.7c-.093.51.23.925.787.925h3.7c.763 0 1.18-.393 1.295-1.064a101.63 101.63 0 0 0 .416-2.151c.046-.486-.278-.902-.833-.902zM20.43 38.19h.972c.486 0 .787.185.787.578 0 .116-.023.254-.046.416 0 .046-.44 2.406-.44 2.406-.093.51-.532.925-1.18.925h-1.388c-3.077 0-4.14-1.92-4.2-3.77-.208.023-1.134.254-2.175.254C7.498 39 5 35.575 5 30.88c0-5.83 3.956-13.394 11.82-13.394 5.182 0 7.75 3.354 7.75 8.097 0 5.043-2.822 9.6-5.46 11.312 0 .6.463 1.295 1.32 1.295zm-2.36-13.21c0-1.62-.555-2.753-2.22-2.753-3.794 0-4.372 8.143-4.372 9.253 0 1.504.44 2.8 2.22 2.8 3.77-.023 4.372-7.935 4.372-9.3zm79.464 13.718h3.678c.625 0 1.134-.3 1.272-1.064l1.457-7.865c.3-1.642.995-2.522 2.082-2.522.925 0 1.226.694 1.064 1.573l-1.666 9c-.07.37.116.902.833.902h3.678c.74 0 1.157-.393 1.272-1.087.07-.324 1.78-9.647 1.78-9.647.625-3.424-1.434-5.113-4.048-5.113-3.192 0-4.28 2.336-4.465 2.66h-.07l.23-1.365c.093-.648-.3-.972-.763-.972h-3.24c-.763 0-1.226.254-1.388 1.134-.162.787-2.43 13.024-2.522 13.5-.093.347.116.856.8.856zM82.9 23.476c0-.185-.116-.347-.486-.347h-3.17c-.995 0-1.573.555-1.943.925l-4.858 4.766 1.874-10.086c.093-.532-.23-.925-.787-.925h-3.7c-.88 0-1.18.532-1.295 1.1-.046.278-3.493 18.83-3.493 18.83-.093.51.23.925.74.925h3.7c.74 0 1.18-.347 1.32-1.087l.532-2.87 1.966-1.897 1.272 4.927c.14.51.51.925 1.342.925h3.933c.555 0 .856-.486.67-1.087l-2.73-8.953 4.812-4.58c.208-.162.3-.37.3-.578zm-42.265-.347h-3.678c-.625 0-1.134.3-1.272 1.064l-1.457 7.865c-.3 1.642-.995 2.522-2.082 2.522-.925 0-1.226-.694-1.064-1.573l1.666-9c.07-.37-.116-.902-.833-.902h-3.678c-.74 0-1.157.393-1.272 1.087-.07.324-1.712 9.184-1.735 9.392 0 .046-.162.763-.162 1.457 0 2.128 1.573 3.9 4.326 3.9 2.96 0 4.118-2.336 4.28-2.66h.07l-.23 1.365c-.093.648.3.972.763.972h3.24c.763 0 1.226-.254 1.388-1.134.162-.787 2.43-13.024 2.522-13.5.116-.347-.093-.856-.787-.856zm24.452 5.16c0-2.498-2.06-5.46-6.732-5.46-5.737 0-8.606 4.465-8.606 9.23 0 3.377 2.452 6.94 7.102 6.94 5.76 0 7.657-4.14 7.657-5.922 0-.393-.185-.67-.74-.67h-3.817c-.67 0-.88.324-1.04.763-.3.833-.902 1.596-1.828 1.596-.995 0-1.434-.8-1.434-1.897 0-1.943.717-5.83 2.73-5.83 1.04 0 1.272.787 1.272 1.62 0 .44.162.763.763.763h3.61c.694.023 1.064-.3 1.064-1.134zm30.35 3.817h-8.814c-.093.3-.393 2.892 1.48 2.892.856 0 1.41-.694 1.666-1.203.185-.347.37-.625.972-.625h4.28c.555 0 .694.185.694.51 0 1.226-2.637 5.32-7.61 5.32-4.997 0-7.264-3.123-7.264-6.64 0-4.65 3.123-9.508 8.675-9.508 4.812 0 7.24 2.96 7.24 6.593a10.37 10.37 0 0 1-.185 1.828c-.093.416-.324.833-1.134.833zm-5.922-5.298c-1.365 0-1.99 1.735-2.175 2.267h3.655c.046-.787-.023-2.267-1.48-2.267z" fill="#c60c30"/></svg>