<?xml version="1.0" encoding="UTF-8" standalone="no"?>
<svg
   xmlns:dc="http://purl.org/dc/elements/1.1/"
   xmlns:cc="http://creativecommons.org/ns#"
   xmlns:rdf="http://www.w3.org/1999/02/22-rdf-syntax-ns#"
   xmlns:svg="http://www.w3.org/2000/svg"
   xmlns="http://www.w3.org/2000/svg"
   xmlns:sodipodi="http://sodipodi.sourceforge.net/DTD/sodipodi-0.dtd"
   xmlns:inkscape="http://www.inkscape.org/namespaces/inkscape"
   viewBox="64.74 19 64 64"
   version="1.1"
   id="svg18"
   sodipodi:docname="consul-icon.svg"
   width="64"
   height="64"
   inkscape:version="0.92.3 (2405546, 2018-03-11)">
  <metadata
     id="metadata22">
    <rdf:RDF>
      <cc:Work
         rdf:about="">
        <dc:format>image/svg+xml</dc:format>
        <dc:type
           rdf:resource="http://purl.org/dc/dcmitype/StillImage" />
        <dc:title>Artboard</dc:title>
      </cc:Work>
    </rdf:RDF>
  </metadata>
  <sodipodi:namedview
     pagecolor="#ffffff"
     bordercolor="#666666"
     borderopacity="1"
     objecttolerance="10"
     gridtolerance="10"
     guidetolerance="10"
     inkscape:pageopacity="0"
     inkscape:pageshadow="2"
     inkscape:window-width="1920"
     inkscape:window-height="1001"
     id="namedview20"
     showgrid="false"
     inkscape:zoom="8.5578051"
     inkscape:cx="63.296486"
     inkscape:cy="39.890447"
     inkscape:window-x="-9"
     inkscape:window-y="-9"
     inkscape:window-maximized="1"
     inkscape:current-layer="svg18" />
  <!-- Generator: Sketch 43.1 (39012) - http://www.bohemiancoding.com/sketch -->
  <title
     id="title2">Artboard</title>
  <desc
     id="desc4">Created with Sketch.</desc>
  <defs
     id="defs6" />
  <g
     id="g847"
     transform="matrix(0.30184202,0,0,0.30184202,43.915114,12.601386)">
    <path
       d="m 172.02591,149.00362 c -12.11181,0.0131 -21.94904,-9.77174 -21.98323,-21.87346 -0.0342,-12.09909 9.74783,-21.94175 21.86227,-21.99429 12.11182,-0.0525 21.97798,9.70344 22.0516,21.80254 0.0526,5.8394 -2.24039,11.45289 -6.3583,15.60326 -4.12054,4.14248 -9.72942,6.46983 -15.57234,6.46195"
       id="path9"
       inkscape:connector-curvature="0"
       style="fill:#961d59;fill-rule:nonzero;stroke:none;stroke-width:1" />
    <path
       d="m 214.75648,137.0779 c -5.59047,0 -10.12386,-4.52863 -10.12386,-10.11323 0,-5.5846 4.53339,-10.11322 10.12386,-10.11322 5.59047,0 10.12385,4.52862 10.12385,10.11322 0.008,2.68461 -1.05708,5.26151 -2.95826,7.15807 -1.89856,1.89918 -4.47817,2.96304 -7.16559,2.95516 m 37.05068,9.53533 c -1.57248,5.03297 -6.88948,7.88831 -11.95929,6.42255 -5.06982,-1.46576 -8.03861,-6.71413 -6.67912,-11.81015 1.36212,-5.09601 6.54764,-8.16938 11.6753,-6.9269 5.13293,1.25299 8.31734,6.37002 7.17348,11.51857 0,0.26268 0,0.4991 -0.21037,0.78804 m -7.15243,-26.05797 c -3.99696,0.99819 -8.19901,-0.51223 -10.63926,-3.82726 -2.44024,-3.30978 -2.63483,-7.76748 -0.49436,-11.27953 2.14311,-3.51467 6.19791,-5.38496 10.26586,-4.7414 4.06532,0.65145 7.33651,3.68805 8.28315,7.69131 0.25244,1.3134 0.25244,2.65308 0,3.96648 -0.55221,4.07156 -3.60251,7.36296 -7.62576,8.22192 m 36.23552,24.92845 c -0.96769,5.49791 -6.21631,9.17282 -11.72001,8.20878 -5.50633,-0.96666 -9.1851,-6.20453 -8.22267,-11.70507 0.96242,-5.5058 6.20579,-9.18333 11.71211,-8.22192 5.22497,0.83007 8.94055,5.52156 8.54612,10.7962 -0.12096,0.28106 -0.19196,0.58315 -0.21037,0.89311 m -8.36204,-25.36974 c -5.50107,0.9115 -10.70237,-2.80544 -11.6122,-8.30073 -0.91246,-5.49004 2.80313,-10.68587 8.30419,-11.6 5.49581,-0.914129 10.70237,2.79755 11.61746,8.29022 0.10518,0.8721 0.10518,1.75471 0,2.62681 -0.41021,4.52862 -3.82077,8.21667 -8.30945,8.9837 m -7.04726,60.41666 c -2.55068,4.57065 -8.14379,6.48823 -12.96379,4.44457 -4.8279,-2.04892 -7.33125,-7.3971 -5.81136,-12.40906 1.52515,-5.00933 6.58708,-8.06431 11.73578,-7.08451 5.14871,0.98768 8.73019,5.68705 8.30157,10.90127 -0.0789,1.47101 -0.51277,2.88949 -1.2622,4.15036 m -3.65511,-92.936595 c -4.88574,2.747645 -11.0705,1.019203 -13.82103,-3.861413 -2.75053,-4.877989 -1.02028,-11.058877 3.86547,-13.806522 4.88049,-2.747645 11.0705,-1.024456 13.82104,3.853533 1.04394,1.767844 1.48834,3.822011 1.26219,5.85779 -0.30766,3.304529 -2.2141,6.246558 -5.10137,7.880434"
       id="path11"
       inkscape:connector-curvature="0"
       style="fill:#d62783;fill-rule:nonzero;stroke:none;stroke-width:1" />
    <path
       d="m 172.42035,228.88496 c -36.75091,0.59104 -70.96692,-18.65824 -89.515929,-50.35597 -18.549009,-31.70037 -18.549009,-70.92917 0,-102.629534 18.549009,-31.695108 52.765019,-50.944384 89.515929,-50.355978 22.36189,-0.03677 44.09794,7.355073 61.79497,21.014493 L 221.77744,62.765399 C 197.21723,43.983696 164.11616,40.752717 136.38205,54.433152 108.64794,68.11096 91.087652,96.330797 91.087652,127.22736 c 0.01578,30.89918 17.570808,59.11639 45.297028,72.81521 27.72622,13.68569 60.83255,10.49411 85.41905,-8.24819 l 12.41159,16.2337 c -17.71806,13.59638 -39.45412,20.93043 -61.79497,20.85688 z"
       id="path13"
       inkscape:connector-curvature="0"
       style="fill:#d62783;fill-rule:nonzero;stroke:none;stroke-width:1" />
  </g>
</svg>
