<?xml version="1.0" encoding="UTF-8" standalone="no"?>
<svg
   xmlns:dc="http://purl.org/dc/elements/1.1/"
   xmlns:cc="http://creativecommons.org/ns#"
   xmlns:rdf="http://www.w3.org/1999/02/22-rdf-syntax-ns#"
   xmlns:svg="http://www.w3.org/2000/svg"
   xmlns="http://www.w3.org/2000/svg"
   xmlns:sodipodi="http://sodipodi.sourceforge.net/DTD/sodipodi-0.dtd"
   xmlns:inkscape="http://www.inkscape.org/namespaces/inkscape"
   viewBox="64.74 19 120 60"
   version="1.1"
   id="svg18"
   sodipodi:docname="consul-ar21.svg"
   width="120"
   height="60"
   inkscape:version="0.92.3 (2405546, 2018-03-11)">
  <metadata
     id="metadata22">
    <rdf:RDF>
      <cc:Work
         rdf:about="">
        <dc:format>image/svg+xml</dc:format>
        <dc:type
           rdf:resource="http://purl.org/dc/dcmitype/StillImage" />
        <dc:title>Artboard</dc:title>
      </cc:Work>
    </rdf:RDF>
  </metadata>
  <sodipodi:namedview
     pagecolor="#ffffff"
     bordercolor="#666666"
     borderopacity="1"
     objecttolerance="10"
     gridtolerance="10"
     guidetolerance="10"
     inkscape:pageopacity="0"
     inkscape:pageshadow="2"
     inkscape:window-width="1920"
     inkscape:window-height="1001"
     id="namedview20"
     showgrid="false"
     inkscape:zoom="8.5578051"
     inkscape:cx="63.296486"
     inkscape:cy="21.194065"
     inkscape:window-x="-9"
     inkscape:window-y="-9"
     inkscape:window-maximized="1"
     inkscape:current-layer="svg18" />
  <!-- Generator: Sketch 43.1 (39012) - http://www.bohemiancoding.com/sketch -->
  <title
     id="title2">Artboard</title>
  <desc
     id="desc4">Created with Sketch.</desc>
  <defs
     id="defs6" />
  <g
     id="g854"
     transform="translate(0.71227318)">
    <path
       sodipodi:nodetypes="cccccssccccccsssssssssssssscsccccccccsccccccscsccccsccccsccccccccsccccccc"
       d="m 114.64006,45.591809 c 0,-3.044439 1.77317,-4.807835 5.9132,-4.807835 1.52303,-0.0019 3.0413,0.181874 4.52,0.545629 l -0.34829,2.720225 c -1.34175,-0.255418 -2.7033,-0.398548 -4.0688,-0.427015 -2.16897,0 -2.84974,0.751221 -2.84974,2.522538 v 6.373541 c 0,1.771309 0.6966,2.514626 2.86558,2.514626 1.36549,-0.02851 2.72704,-0.171596 4.06879,-0.427015 l 0.3483,2.720225 c -1.47869,0.363755 -2.99697,0.547215 -4.52001,0.545629 -4.14003,0 -5.9132,-1.771308 -5.9132,-4.807835 z m 17.16967,12.28845 c -4.16379,0 -5.28784,-2.29321 -5.28784,-4.784108 v -3.068166 c 0,-2.490897 1.12405,-4.784107 5.28784,-4.784107 4.16379,0 5.28785,2.29321 5.28785,4.784107 v 3.068166 c 0,2.490898 -1.08448,4.784108 -5.28785,4.784108 z m 0,-10.042684 c -1.58319,0 -2.24813,0.719601 -2.24813,2.095522 v 3.265854 c 0,1.36802 0.62536,2.095523 2.24813,2.095523 1.62277,0 2.24812,-0.7196 2.24812,-2.095523 v -3.265854 c 0,-1.368019 -0.62535,-2.095522 -2.24812,-2.095522 z m 14.54158,9.797552 v -8.476976 c 0,-0.648429 -0.27705,-0.972635 -0.97365,-0.972635 -1.11299,0.126518 -2.18956,0.472873 -3.16639,1.020078 v 8.421621 h -3.0318 V 45.496921 h 2.31938 l 0.3008,1.020088 c 1.51669,-0.759142 3.17428,-1.191684 4.8683,-1.273131 2.01857,0 2.74684,1.423366 2.74684,3.590059 v 8.80119 z m 9.30915,0.245132 c -1.42487,-0.02218 -2.83944,-0.256206 -4.19545,-0.695863 l 0.42746,-2.316937 c 1.17711,0.336069 2.39378,0.511626 3.61759,0.521903 1.3457,0 1.58318,-0.300489 1.58318,-1.217776 0,-0.751229 -0.15039,-1.122879 -2.12147,-1.581522 -2.96846,-0.7196 -3.31677,-1.47082 -3.31677,-3.811474 0,-2.340664 1.07656,-3.510987 4.54374,-3.510987 1.22697,0.0027 2.44761,0.145495 3.64134,0.427006 l -0.30081,2.419737 c -1.10269,-0.203225 -2.21963,-0.319465 -3.34053,-0.347941 -1.32195,0 -1.58319,0.300497 -1.58319,1.043814 0,0.972634 0.0713,1.043805 1.72568,1.47081 3.39594,0.893571 3.7205,1.344303 3.7205,3.835201 -0.009,2.356478 -0.73619,3.764029 -4.40127,3.764029 z m 9.42788,-12.383338 v 8.476977 c 0,0.648419 0.27706,0.972635 0.97366,0.972635 1.113,-0.126518 2.18955,-0.472873 3.16639,-1.020079 v -8.429533 h 3.04763 v 12.138206 h -2.31937 l -0.30081,-1.020087 c -1.5167,0.759132 -3.17429,1.191684 -4.86831,1.273132 -2.01855,0 -2.74682,-1.423376 -2.74682,-3.590069 v -8.801182 z m 9.80785,12.138206 V 40.530931 l 3.07139,-0.419103 v 17.523299 z"
       id="Shape"
       inkscape:connector-curvature="0"
       style="fill:#000000;fill-rule:nonzero;stroke:none;stroke-width:0.30103517" />
    <g
       transform="matrix(0.17706953,0,0,0.17706953,57.871375,26.474228)"
       id="g847">
      <path
         style="fill:#961d59;fill-rule:nonzero;stroke:none;stroke-width:1"
         inkscape:connector-curvature="0"
         id="path9"
         d="m 172.02591,149.00362 c -12.11181,0.0131 -21.94904,-9.77174 -21.98323,-21.87346 -0.0342,-12.09909 9.74783,-21.94175 21.86227,-21.99429 12.11182,-0.0525 21.97798,9.70344 22.0516,21.80254 0.0526,5.8394 -2.24039,11.45289 -6.3583,15.60326 -4.12054,4.14248 -9.72942,6.46983 -15.57234,6.46195" />
      <path
         style="fill:#d62783;fill-rule:nonzero;stroke:none;stroke-width:1"
         inkscape:connector-curvature="0"
         id="path11"
         d="m 214.75648,137.0779 c -5.59047,0 -10.12386,-4.52863 -10.12386,-10.11323 0,-5.5846 4.53339,-10.11322 10.12386,-10.11322 5.59047,0 10.12385,4.52862 10.12385,10.11322 0.008,2.68461 -1.05708,5.26151 -2.95826,7.15807 -1.89856,1.89918 -4.47817,2.96304 -7.16559,2.95516 m 37.05068,9.53533 c -1.57248,5.03297 -6.88948,7.88831 -11.95929,6.42255 -5.06982,-1.46576 -8.03861,-6.71413 -6.67912,-11.81015 1.36212,-5.09601 6.54764,-8.16938 11.6753,-6.9269 5.13293,1.25299 8.31734,6.37002 7.17348,11.51857 0,0.26268 0,0.4991 -0.21037,0.78804 m -7.15243,-26.05797 c -3.99696,0.99819 -8.19901,-0.51223 -10.63926,-3.82726 -2.44024,-3.30978 -2.63483,-7.76748 -0.49436,-11.27953 2.14311,-3.51467 6.19791,-5.38496 10.26586,-4.7414 4.06532,0.65145 7.33651,3.68805 8.28315,7.69131 0.25244,1.3134 0.25244,2.65308 0,3.96648 -0.55221,4.07156 -3.60251,7.36296 -7.62576,8.22192 m 36.23552,24.92845 c -0.96769,5.49791 -6.21631,9.17282 -11.72001,8.20878 -5.50633,-0.96666 -9.1851,-6.20453 -8.22267,-11.70507 0.96242,-5.5058 6.20579,-9.18333 11.71211,-8.22192 5.22497,0.83007 8.94055,5.52156 8.54612,10.7962 -0.12096,0.28106 -0.19196,0.58315 -0.21037,0.89311 m -8.36204,-25.36974 c -5.50107,0.9115 -10.70237,-2.80544 -11.6122,-8.30073 -0.91246,-5.49004 2.80313,-10.68587 8.30419,-11.6 5.49581,-0.914129 10.70237,2.79755 11.61746,8.29022 0.10518,0.8721 0.10518,1.75471 0,2.62681 -0.41021,4.52862 -3.82077,8.21667 -8.30945,8.9837 m -7.04726,60.41666 c -2.55068,4.57065 -8.14379,6.48823 -12.96379,4.44457 -4.8279,-2.04892 -7.33125,-7.3971 -5.81136,-12.40906 1.52515,-5.00933 6.58708,-8.06431 11.73578,-7.08451 5.14871,0.98768 8.73019,5.68705 8.30157,10.90127 -0.0789,1.47101 -0.51277,2.88949 -1.2622,4.15036 m -3.65511,-92.936595 c -4.88574,2.747645 -11.0705,1.019203 -13.82103,-3.861413 -2.75053,-4.877989 -1.02028,-11.058877 3.86547,-13.806522 4.88049,-2.747645 11.0705,-1.024456 13.82104,3.853533 1.04394,1.767844 1.48834,3.822011 1.26219,5.85779 -0.30766,3.304529 -2.2141,6.246558 -5.10137,7.880434" />
      <path
         style="fill:#d62783;fill-rule:nonzero;stroke:none;stroke-width:1"
         inkscape:connector-curvature="0"
         id="path13"
         d="m 172.42035,228.88496 c -36.75091,0.59104 -70.96692,-18.65824 -89.515929,-50.35597 -18.549009,-31.70037 -18.549009,-70.92917 0,-102.629534 18.549009,-31.695108 52.765019,-50.944384 89.515929,-50.355978 22.36189,-0.03677 44.09794,7.355073 61.79497,21.014493 L 221.77744,62.765399 C 197.21723,43.983696 164.11616,40.752717 136.38205,54.433152 108.64794,68.11096 91.087652,96.330797 91.087652,127.22736 c 0.01578,30.89918 17.570808,59.11639 45.297028,72.81521 27.72622,13.68569 60.83255,10.49411 85.41905,-8.24819 l 12.41159,16.2337 c -17.71806,13.59638 -39.45412,20.93043 -61.79497,20.85688 z" />
    </g>
  </g>
</svg>
