<svg xmlns="http://www.w3.org/2000/svg" width="81" height="94" viewBox="-202 367.6 81 94"><path d="M-136.17 388.428V386.9c0-1.096-.084-2.192-.253-3.288s-.506-2.108-1.012-3.12-1.18-1.855-1.94-2.698a10.49 10.49 0 0 0-2.698-1.939c-1.012-.506-2.024-.843-3.12-1.012s-2.192-.253-3.288-.253h-26.138c-.843 0-1.686.084-2.445.253-.843.17-1.602.337-2.36.675-.253.084-.506.253-.76.337-.76.337-1.433.843-2.024 1.35-.17.17-.422.337-.6.6a10.49 10.49 0 0 0-1.939 2.698c-.506 1.012-.843 2.024-1.012 3.12s-.253 2.192-.253 3.288v25.38c0 1.096.084 2.192.253 3.288s.506 2.108 1.012 3.12 1.18 1.855 1.94 2.698a10.49 10.49 0 0 0 2.698 1.939c1.012.506 2.024.843 3.12 1.012s2.192.253 3.288.253h25.295c1.096 0 2.192-.084 3.288-.253s2.108-.506 3.12-1.012 1.855-1.18 2.698-1.94a10.49 10.49 0 0 0 1.939-2.698c.506-1.012.843-2.024 1.012-3.12s.253-2.192.253-3.288v-22.007c-.084-.675-.084-1.265-.084-1.855z" fill="#f05138"/><path d="M-146.54 405.46c.084-.17.084-.422.17-.6 2.108-8.263-3.035-18.044-11.55-23.187 3.794 5.06 5.396 11.298 3.963 16.695-.17.506-.253.927-.506 1.433-.17-.084-.422-.253-.76-.422 0 0-8.516-5.312-17.79-14.587-.253-.253 4.975 7.42 10.793 13.575-2.782-1.518-10.455-7.167-15.346-11.636.6 1.012 1.35 1.94 2.108 2.867 4.047 5.143 9.36 11.55 15.767 16.442-4.47 2.698-10.793 2.95-17.116 0-1.518-.76-3.035-1.602-4.384-2.614 2.698 4.3 6.745 7.926 11.804 10.118 5.987 2.53 11.89 2.36 16.273.084h.084c.17-.084.337-.17.506-.337 2.108-1.096 6.324-2.192 8.6 2.192.506.927 1.686-4.806-2.614-10.034z" fill="#fff"/><path d="M-193.265 452.196c.652.45 1.403.802 2.255 1.103a9.55 9.55 0 0 0 2.706.401c1.704 0 3.057-.45 4.06-1.303.952-.902 1.453-2.055 1.453-3.508 0-1.303-.35-2.356-1.053-3.208-.702-.802-1.905-1.554-3.56-2.255-1.804-.652-3.208-1.453-4.26-2.456s-1.604-2.306-1.604-3.9c0-.852.15-1.654.5-2.356s.802-1.353 1.353-1.854 1.303-.902 2.105-1.203 1.704-.45 2.656-.45c1.103 0 2.055.1 2.807.35s1.353.45 1.704.702l-.6 1.353c-.3-.25-.852-.45-1.504-.702-.702-.25-1.504-.35-2.456-.35-.902 0-1.704.15-2.306.4-.652.25-1.153.6-1.504 1.002a3.14 3.14 0 0 0-.802 1.353c-.15.5-.25.952-.25 1.453 0 1.303.4 2.306 1.153 3.057s1.955 1.453 3.6 2.105c.952.4 1.754.802 2.506 1.253.702.45 1.303.902 1.804 1.453s.852 1.103 1.103 1.804c.25.652.35 1.403.35 2.255s-.15 1.654-.45 2.406-.752 1.453-1.353 2.055-1.353 1.053-2.255 1.403-1.955.5-3.158.5c-.5 0-1.002-.05-1.504-.1l-1.504-.35c-.5-.15-.952-.3-1.353-.5l-1.103-.6.45-1.303zm15.085-13.984l2.706 9.372.752 2.706.6 2.456h.1l.702-2.456.902-2.757 3.258-9.372h1.504l3.107 9.272.902 2.807c.3.852.5 1.704.702 2.456h.1a24.99 24.99 0 0 1 .6-2.456l.852-2.807 2.907-9.322h1.654l-5.413 16.54h-1.403l-3.057-9.222-.952-2.807c-.3-.902-.5-1.804-.702-2.757h-.05l-.802 2.857-.952 2.807-3.258 9.172h-1.403l-5.012-16.54 1.654.05zm24.16-5.012c0-.4.15-.702.4-1.002s.6-.4 1.002-.4.702.15 1.002.4a1.4 1.4 0 0 1 .401 1.002c0 .4-.15.702-.4 1.002-.3.25-.6.4-1.002.4s-.702-.15-1.002-.4c-.25-.3-.4-.6-.4-1.002zm.6 21.552v-16.54h1.604v16.54h-1.604zm8.22 0v-15.236h-2.356v-1.253h2.356v-.952c0-1.053.1-2.005.25-2.907.2-.902.5-1.654.902-2.306s1.002-1.153 1.654-1.554c.702-.4 1.554-.55 2.556-.55a5.73 5.73 0 0 1 1.403.15c.4.1.752.25 1.002.4l-.5 1.253-.802-.3c-.3-.1-.702-.15-1.203-.15-.802 0-1.403.15-1.854.5a3.14 3.14 0 0 0-1.103 1.303c-.25.55-.45 1.153-.55 1.905s-.15 1.504-.15 2.255v.952h7.87v1.253h-7.82v15.236h-1.654z"/><path d="M-134.574 434.554v3.71h4.56v1.253h-4.56v10.776c0 1.103.2 1.955.55 2.556s.952.902 1.854.902l1.053-.05.752-.15.15 1.253c-.55.25-1.303.4-2.205.4-.752 0-1.403-.15-1.854-.4-.5-.25-.852-.6-1.153-1.053s-.5-1.002-.6-1.604c-.1-.652-.15-1.303-.15-2.055v-10.475h.1v-1.253h-.1v-3.057l1.604-.752z"/></svg>