<?xml version="1.0" encoding="utf-8"?>
<!-- Generator: Adobe Illustrator 24.0.0, SVG Export Plug-In . SVG Version: 6.00 Build 0)  -->
<svg version="1.1" id="Layer_1" xmlns="http://www.w3.org/2000/svg" xmlns:xlink="http://www.w3.org/1999/xlink" x="0px" y="0px"
	 viewBox="0 0 64 64" width="64px" height="64px" style="enable-background:new 0 0 64 64;" xml:space="preserve">
<style type="text/css">
	.st0{fill:#ED760A;}
	.st1{fill:#F9A01B;}
</style>
<g>
	<path id="symbol-ring" class="st0" d="M27.1,18.6c-12.5,0-22.7,10.2-22.7,22.7C4.4,53.8,14.6,64,27.1,64s22.7-10.2,22.7-22.7
		C49.8,28.8,39.7,18.6,27.1,18.6z M27.1,51.4c-5.6,0-10.1-4.5-10.1-10.1s4.5-10.1,10.1-10.1s10.1,4.5,10.1,10.1S32.7,51.4,27.1,51.4
		z"/>
	<path id="symbol-curve" class="st1" d="M18.3,16.9C18,17,17.7,17,17.4,17.1c-1,0-1.9-0.6-2.3-1.5l-4-8.7l0,0.1
		c-0.2-0.3-0.3-0.7-0.3-1.1c0-1,0.6-1.8,1.4-2.3C16.8,1.2,21.9,0,27.1,0C45,0,59.6,14.5,59.6,32.5c0,9.5-4.1,18.1-10.7,24.1l0,0
		c-0.1,0.1-0.1,0.1-0.2,0.1c-0.2,0-0.3-0.1-0.3-0.3c0-0.1,0-0.2,0.1-0.2c3-4.3,4.6-9.5,4.6-14.8c0-14.3-11.6-26-26-26
		C24.1,15.3,21.1,15.9,18.3,16.9"/>
</g>
</svg>
