<?xml version="1.0" encoding="UTF-8" standalone="no"?>
<!-- Generator: Adobe Illustrator 16.0.0, SVG Export Plug-In . SVG Version: 6.00 Build 0)  -->

<svg
   xmlns:dc="http://purl.org/dc/elements/1.1/"
   xmlns:cc="http://creativecommons.org/ns#"
   xmlns:rdf="http://www.w3.org/1999/02/22-rdf-syntax-ns#"
   xmlns:svg="http://www.w3.org/2000/svg"
   xmlns="http://www.w3.org/2000/svg"
   xmlns:sodipodi="http://sodipodi.sourceforge.net/DTD/sodipodi-0.dtd"
   xmlns:inkscape="http://www.inkscape.org/namespaces/inkscape"
   version="1.1"
   id="Ebene_1"
   x="0px"
   y="0px"
   width="120"
   height="60"
   viewBox="0 0 120 60"
   enable-background="new 0 0 130 130"
   xml:space="preserve"
   sodipodi:docname="grails-ar21.svg"
   inkscape:version="0.92.3 (2405546, 2018-03-11)"><metadata
   id="metadata9"><rdf:RDF><cc:Work
       rdf:about=""><dc:format>image/svg+xml</dc:format><dc:type
         rdf:resource="http://purl.org/dc/dcmitype/StillImage" /><dc:title></dc:title></cc:Work></rdf:RDF></metadata><defs
   id="defs7" /><sodipodi:namedview
   pagecolor="#ffffff"
   bordercolor="#666666"
   borderopacity="1"
   objecttolerance="10"
   gridtolerance="10"
   guidetolerance="10"
   inkscape:pageopacity="0"
   inkscape:pageshadow="2"
   inkscape:window-width="1920"
   inkscape:window-height="1001"
   id="namedview5"
   showgrid="false"
   inkscape:zoom="5.5651824"
   inkscape:cx="66.554737"
   inkscape:cy="56.131658"
   inkscape:window-x="-9"
   inkscape:window-y="-9"
   inkscape:window-maximized="1"
   inkscape:current-layer="Ebene_1" />
<path
   d="M 59.999787,2.5 C 44.812007,2.5 32.499364,14.810948 32.499364,29.999575 32.499364,45.187781 44.812431,57.5 59.999787,57.5 75.188417,57.5 87.500636,45.187781 87.500636,29.999575 87.500636,14.810948 75.188417,2.5 59.999787,2.5 Z m 14.579459,13.255207 c -0.149963,-0.115226 -0.341866,-0.21266 -0.571048,-0.292301 -0.224097,-0.07922 -0.468952,-0.159707 -0.729905,-0.238077 -0.256292,-0.07795 -0.499876,-0.183853 -0.720584,-0.316024 -0.219438,-0.129206 -0.403715,-0.304586 -0.549442,-0.517245 -0.144031,-0.211813 -0.216895,-0.495641 -0.216895,-0.845131 0,-0.338899 0.06694,-0.64052 0.200375,-0.893 0.134712,-0.256293 0.315176,-0.473188 0.538002,-0.644333 0.224097,-0.173262 0.485474,-0.304585 0.775233,-0.391429 0.293572,-0.08642 0.6007,-0.1309 0.909946,-0.1309 0.360929,0 0.713384,0.05252 1.047624,0.153352 0.321954,0.09913 0.618068,0.262647 0.878596,0.487592 l -0.920959,1.007802 c -0.116496,-0.134288 -0.270696,-0.236806 -0.459209,-0.302044 -0.200374,-0.07117 -0.39397,-0.106326 -0.57274,-0.106326 -0.105061,0 -0.215202,0.01101 -0.326616,0.03643 -0.111836,0.02499 -0.218589,0.06397 -0.318565,0.117345 -0.101673,0.05465 -0.186818,0.127086 -0.249939,0.215624 -0.06524,0.09108 -0.09829,0.202916 -0.09829,0.330427 0,0.209694 0.07625,0.364741 0.234264,0.477002 0.147422,0.105061 0.335935,0.196561 0.561726,0.268577 0.22071,0.07329 0.461753,0.147845 0.715504,0.219014 0.250784,0.07243 0.488015,0.175381 0.706605,0.30628 0.216895,0.130476 0.39863,0.308823 0.539274,0.526989 0.142337,0.218166 0.213506,0.513433 0.213506,0.882834 0,0.349913 -0.06609,0.660853 -0.196986,0.923077 -0.1309,0.261376 -0.309245,0.480813 -0.532072,0.651958 -0.222402,0.170297 -0.48632,0.302044 -0.779469,0.384227 -0.297807,0.08472 -0.61468,0.126663 -0.943412,0.126663 -0.412187,0 -0.801073,-0.0627 -1.154377,-0.188512 -0.342711,-0.122428 -0.665089,-0.319413 -0.962898,-0.588414 l 0.957392,-1.052284 c 0.144032,0.182159 0.326614,0.326615 0.538002,0.428709 0.225793,0.105908 0.463445,0.161401 0.704064,0.161401 0.119039,0 0.238924,-0.01355 0.359235,-0.0411 0.120733,-0.02796 0.230028,-0.07244 0.328309,-0.126664 0.09913,-0.05762 0.17877,-0.132594 0.240618,-0.220709 0.06142,-0.09108 0.09277,-0.200798 0.09277,-0.321954 8.47e-4,-0.209694 -0.07795,-0.368976 -0.237653,-0.488862 z m -7.579913,-4.104074 h 1.34882 v 5.138141 h 2.633673 v 1.240796 h -3.982069 v -6.378937 z m -2.935293,0 h 1.347973 V 18.03007 H 64.06404 Z m -4.734002,0 h 1.128112 l 2.775162,6.378937 H 61.709113 L 61.15374,16.662187 h -2.556572 l -0.537579,1.367883 h -1.486922 z m -8.360651,0 h 2.459987 c 0.323649,0 0.635013,0.03135 0.92689,0.09531 0.287641,0.06101 0.543933,0.167756 0.760829,0.313058 0.216049,0.145727 0.389735,0.343136 0.517245,0.588414 0.127511,0.245279 0.191902,0.558337 0.191902,0.926468 0,0.444804 -0.11692,0.828609 -0.348218,1.140396 -0.221557,0.298655 -0.546899,0.492675 -0.966287,0.580789 l -0.09913,0.02119 1.631378,2.713314 h -1.616975 l -1.348396,-2.578173 h -0.759983 v 2.578178 h -1.34882 v -6.37894 z m -7.088507,1.798709 c 0.169451,-0.412186 0.410493,-0.767606 0.71635,-1.057366 0.304586,-0.289759 0.671021,-0.514703 1.089561,-0.671868 0.419388,-0.155471 0.884528,-0.234265 1.381863,-0.234265 0.510467,0 0.986622,0.0627 1.4166,0.185125 0.414305,0.118614 0.7854,0.324919 1.10227,0.610866 l -0.951459,1.038303 c -0.190208,-0.18936 -0.407104,-0.335511 -0.642215,-0.436757 -0.24655,-0.105908 -0.55749,-0.15674 -0.925196,-0.15674 -0.307128,0 -0.589261,0.05083 -0.838353,0.15674 -0.250361,0.105479 -0.467257,0.253328 -0.646027,0.440993 -0.179193,0.188936 -0.317295,0.415152 -0.413033,0.67314 -0.09531,0.258411 -0.141914,0.541815 -0.141914,0.842589 0,0.306279 0.0466,0.590955 0.141914,0.847249 0.09573,0.254598 0.234687,0.479542 0.413033,0.668055 0.179194,0.186818 0.396089,0.335511 0.646027,0.44057 0.248668,0.104632 0.531649,0.157164 0.838353,0.157164 0.312635,0 0.585025,-0.03516 0.812935,-0.106326 0.214354,-0.06651 0.390582,-0.135136 0.5236,-0.205458 l 0.0093,-0.0055 0.01483,-0.01398 0.0144,-0.02584 v -1.083207 h -1.156447 v -1.238254 h 2.451091 v 3.31359 c -0.41134,0.211388 -0.843436,0.366012 -1.283583,0.459633 -0.450312,0.09744 -0.91757,0.144878 -1.386099,0.144878 -0.497335,0 -0.962051,-0.07837 -1.381862,-0.234263 -0.418541,-0.154623 -0.785399,-0.381686 -1.089562,-0.671445 -0.304586,-0.288488 -0.546899,-0.645604 -0.716349,-1.058637 -0.170297,-0.411763 -0.25714,-0.878597 -0.25714,-1.388217 0,-0.508773 0.08685,-0.976455 0.25714,-1.39076 z m 8.804186,21.888671 c -0.412187,0.181311 -0.938328,0.387193 -1.143786,0.496488 -0.379143,0.202068 -0.965863,0.644332 -1.295443,1.151835 -0.244008,0.37745 -0.471071,0.890459 -0.544781,1.226817 -0.0449,0.211811 -0.06735,0.521905 -0.0627,0.886221 0.0089,0.849791 0.155471,1.980021 0.447347,2.755253 0.332122,0.880291 0.513009,1.17344 0.895967,2.06517 0.162671,0.377448 0.315176,0.737106 0.388886,0.912487 0.03092,0.06948 0.0216,0.149116 -0.01991,0.211813 -0.101673,0.155469 -0.330003,0.448618 -0.7083,0.651958 -0.658736,0.355844 -2.046106,0.484202 -2.734495,0.488862 h -0.003 c -0.687119,-0.0051 -2.074488,-0.133018 -2.734071,-0.488862 -0.378297,-0.20334 -0.605784,-0.496489 -0.707453,-0.651958 -0.04236,-0.0627 -0.05041,-0.142338 -0.02076,-0.211813 0.07456,-0.175381 0.227486,-0.535462 0.389734,-0.912487 0.382957,-0.89173 0.563845,-1.184879 0.895966,-2.06517 0.291877,-0.775232 0.438451,-1.905462 0.446924,-2.755253 0.0043,-0.363893 -0.01737,-0.67441 -0.06355,-0.886221 -0.0737,-0.336782 -0.30034,-0.849791 -0.544348,-1.226817 -0.328732,-0.507079 -0.916723,-0.949767 -1.295019,-1.151835 -0.284676,-0.151234 -1.189538,-0.490557 -1.545382,-0.686695 -0.453279,-0.250786 -1.044234,-0.64052 -1.440746,-0.951461 -0.441841,-0.34483 -1.309424,-1.197161 -1.648746,-1.618245 -0.650264,-0.80658 -1.249269,-1.752533 -1.539028,-2.772621 -0.360504,-1.264942 -0.346949,-1.806333 -0.394394,-2.214707 -0.0085,-0.06905 0.04406,-0.131324 0.114378,-0.135137 0.347796,-0.01144 1.600453,-0.04025 5.976069,-0.04703 0.08642,-0.0013 0.163519,0.05253 0.194444,0.133017 1.230629,3.260213 4.440854,5.956583 8.677098,7.423593 0.173262,0.05888 0.188089,0.299079 0.01906,0.37279 z m 10.773191,9.278223 c 0.538427,1.429732 0.832423,1.903768 1.454727,3.353411 0.26307,0.612137 0.511314,1.197162 0.632047,1.479295 0.04872,0.114803 0.03558,0.241467 -0.0322,0.346525 -0.166485,0.253327 -0.537157,0.727363 -1.150141,1.058214 -1.069652,0.578248 -3.322909,0.787517 -4.440854,0.791754 h -0.0043 c -1.117944,-0.0043 -3.370355,-0.213506 -4.44043,-0.791754 -0.612984,-0.330851 -0.981961,-0.804887 -1.148445,-1.058214 -0.06778,-0.105061 -0.08092,-0.231722 -0.0322,-0.346525 0.120732,-0.282133 0.367282,-0.867158 0.630353,-1.479295 0.622728,-1.449643 0.916723,-1.923679 1.455573,-3.353411 0.47446,-1.259437 0.71296,-3.09373 0.727363,-4.476016 0.0059,-0.587568 -0.02923,-1.093799 -0.103367,-1.438629 -0.119021,-0.545205 -0.487999,-1.375931 -0.884511,-1.989764 -0.533708,-0.826491 -1.488558,-1.541569 -2.10239,-1.86903 -0.464292,-0.247397 -1.93215,-0.797685 -2.510398,-1.117098 -0.736258,-0.405409 -1.695767,-1.039998 -2.339253,-1.543263 -0.717196,-0.560879 -2.12617,-1.943166 -2.676035,-2.62859 -1.056519,-1.310693 -2.030008,-2.846755 -2.500655,-4.501856 -0.583754,-2.054577 -0.561302,-2.932328 -0.639249,-3.596147 -0.01313,-0.114802 0.07202,-0.215201 0.185547,-0.219437 0.712113,-0.02584 3.755854,-0.09193 16.381978,-0.07922 12.624854,-0.01271 15.668596,0.05337 16.380285,0.07922 0.114802,0.0043 0.200375,0.104632 0.185971,0.219437 -0.07795,0.663819 -0.05549,1.541993 -0.638826,3.596147 -0.471493,1.655101 -1.444558,3.191163 -2.501079,4.501856 -0.550288,0.685001 -1.958416,2.067287 -2.675611,2.62859 -0.644333,0.503265 -1.604265,1.137854 -2.340525,1.543263 -0.5774,0.319413 -2.046106,0.869701 -2.508704,1.117098 -0.614679,0.327461 -1.56868,1.042539 -2.104142,1.86903 -0.395665,0.613833 -0.764642,1.444559 -0.882833,1.989764 -0.07541,0.34483 -0.109296,0.851485 -0.103367,1.438629 0.01229,1.382286 0.251632,3.216579 0.725667,4.476016 z M 80.361718,32.578177 c -0.338475,0.421083 -1.205635,1.273415 -1.647475,1.618245 -0.39736,0.31094 -0.987892,0.700675 -1.442018,0.95146 -0.355844,0.196138 -1.260282,0.535462 -1.544111,0.686695 -0.379143,0.202069 -0.967134,0.644333 -1.296714,1.151835 -0.24316,0.37745 -0.470648,0.890459 -0.543511,1.226816 -0.04702,0.211813 -0.06694,0.521906 -0.06439,0.886223 0.0089,0.84979 0.156317,1.98002 0.447772,2.755252 0.332545,0.880292 0.513009,1.17344 0.895966,2.065169 0.162248,0.37745 0.314329,0.737108 0.389735,0.912488 0.02966,0.06948 0.0216,0.149116 -0.02076,0.211813 -0.10252,0.15547 -0.329157,0.448618 -0.707453,0.651958 -0.66043,0.355845 -2.046107,0.484202 -2.734497,0.488862 h -0.0025 c -0.68839,-0.0051 -2.075759,-0.133017 -2.734495,-0.488862 -0.379144,-0.20334 -0.605784,-0.496488 -0.7083,-0.651958 -0.04236,-0.0627 -0.05041,-0.142338 -0.02076,-0.211813 0.07456,-0.17538 0.226639,-0.535462 0.389734,-0.912488 0.382956,-0.891729 0.563421,-1.184877 0.895118,-2.065169 0.291878,-0.775232 0.439299,-1.905462 0.448619,-2.755252 0.0025,-0.363893 -0.01822,-0.67441 -0.06355,-0.886223 -0.07371,-0.33678 -0.301198,-0.84979 -0.544357,-1.226816 -0.329156,-0.507079 -0.916724,-0.949766 -1.295867,-1.151835 -0.205035,-0.109296 -0.732871,-0.315176 -1.143362,-0.496487 -0.169451,-0.07371 -0.154624,-0.313482 0.01906,-0.373214 4.23709,-1.46701 7.44647,-4.16338 8.676676,-7.423593 0.03135,-0.08049 0.109296,-0.134289 0.194442,-0.133017 4.37604,0.0071 5.628698,0.03558 5.976069,0.04702 0.07032,0.0043 0.122428,0.06609 0.114379,0.135136 -0.04618,0.408374 -0.03389,0.949343 -0.39397,2.214708 -0.28976,1.020511 -0.888764,1.966465 -1.539451,2.773045 z M 54.422773,13.563798 c 0,0.185547 -0.04194,0.330003 -0.121581,0.432943 -0.08007,0.10252 -0.182157,0.1775 -0.303738,0.225368 -0.117344,0.04702 -0.25248,0.0754 -0.39736,0.08557 -0.144032,0.0085 -0.280863,0.01355 -0.407102,0.01355 h -0.874785 v -1.540298 h 0.96544 c 0.127511,0 0.260529,0.0085 0.396513,0.02838 0.137254,0.01652 0.260528,0.05465 0.366435,0.105908 0.108449,0.05507 0.200374,0.134713 0.269001,0.236806 0.07074,0.10252 0.107173,0.243161 0.107173,0.411763 z m 5.430017,-0.171992 0.845978,2.141845 h -1.683483 z"
   id="path2"
   inkscape:connector-curvature="0"
   style="fill:#feb672;stroke-width:0.42362437" />
</svg>