<?xml version="1.0" encoding="UTF-8" standalone="no"?>
<!-- Generator: Adobe Illustrator 16.0.0, SVG Export Plug-In . SVG Version: 6.00 Build 0)  -->

<svg
   xmlns:dc="http://purl.org/dc/elements/1.1/"
   xmlns:cc="http://creativecommons.org/ns#"
   xmlns:rdf="http://www.w3.org/1999/02/22-rdf-syntax-ns#"
   xmlns:svg="http://www.w3.org/2000/svg"
   xmlns="http://www.w3.org/2000/svg"
   xmlns:sodipodi="http://sodipodi.sourceforge.net/DTD/sodipodi-0.dtd"
   xmlns:inkscape="http://www.inkscape.org/namespaces/inkscape"
   version="1.1"
   id="Ebene_1"
   x="0px"
   y="0px"
   width="64"
   height="64"
   viewBox="0 0 64 64"
   enable-background="new 0 0 130 130"
   xml:space="preserve"
   sodipodi:docname="grails-icon.svg"
   inkscape:version="0.92.3 (2405546, 2018-03-11)"><metadata
   id="metadata9"><rdf:RDF><cc:Work
       rdf:about=""><dc:format>image/svg+xml</dc:format><dc:type
         rdf:resource="http://purl.org/dc/dcmitype/StillImage" /><dc:title></dc:title></cc:Work></rdf:RDF></metadata><defs
   id="defs7" /><sodipodi:namedview
   pagecolor="#ffffff"
   bordercolor="#666666"
   borderopacity="1"
   objecttolerance="10"
   gridtolerance="10"
   guidetolerance="10"
   inkscape:pageopacity="0"
   inkscape:pageshadow="2"
   inkscape:window-width="1920"
   inkscape:window-height="1001"
   id="namedview5"
   showgrid="false"
   inkscape:zoom="5.5651824"
   inkscape:cx="66.554737"
   inkscape:cy="56.131658"
   inkscape:window-x="-9"
   inkscape:window-y="-9"
   inkscape:window-maximized="1"
   inkscape:current-layer="Ebene_1" />
<path
   d="M 31.999752,7.4005e-4 C 14.327108,7.4005e-4 0,14.325876 0,31.999506 0,49.672646 14.327601,63.99926 31.999752,63.99926 49.673386,63.99926 64,49.672646 64,31.999506 64,14.325876 49.673386,7.4005e-4 31.999752,7.4005e-4 Z M 48.964548,15.424624 C 48.79005,15.290546 48.56675,15.177171 48.300072,15.0845 c -0.260762,-0.09218 -0.545677,-0.185837 -0.849325,-0.277029 -0.298224,-0.0907 -0.58166,-0.213933 -0.838478,-0.367728 -0.25534,-0.150345 -0.469767,-0.354419 -0.639336,-0.601871 -0.167596,-0.246468 -0.252381,-0.576733 -0.252381,-0.983403 0,-0.394346 0.07789,-0.745315 0.233158,-1.039103 0.156752,-0.298225 0.366742,-0.550606 0.626024,-0.749752 0.260762,-0.201609 0.564903,-0.354418 0.902069,-0.45547 0.341603,-0.10056 0.69898,-0.152317 1.058822,-0.152317 0.41998,0 0.8301,0.06111 1.219025,0.178442 0.374628,0.115349 0.71919,0.305618 1.022342,0.567367 l -1.071636,1.172688 c -0.135556,-0.156259 -0.314985,-0.27555 -0.53434,-0.351462 -0.233157,-0.08281 -0.458427,-0.123722 -0.666446,-0.123722 -0.12225,0 -0.250411,0.01281 -0.380053,0.04239 -0.130134,0.02908 -0.254353,0.07444 -0.370686,0.136544 -0.118307,0.06359 -0.217383,0.147879 -0.290831,0.250902 -0.07591,0.105982 -0.114371,0.236115 -0.114371,0.384488 0,0.244002 0.08873,0.424416 0.272592,0.555044 0.171541,0.12225 0.390897,0.22872 0.653629,0.312519 0.256821,0.08528 0.537301,0.172034 0.832568,0.254847 0.291814,0.08428 0.567858,0.204075 0.822212,0.35639 0.252381,0.151823 0.46385,0.35935 0.627504,0.61321 0.165625,0.25386 0.248438,0.597435 0.248438,1.027274 0,0.407162 -0.0769,0.768975 -0.229215,1.074101 -0.152316,0.304139 -0.35984,0.559478 -0.619124,0.758624 -0.258789,0.19816 -0.565887,0.351462 -0.906997,0.447091 -0.346532,0.09858 -0.715248,0.147386 -1.097764,0.147386 -0.479624,0 -0.932136,-0.07296 -1.343244,-0.219355 -0.398781,-0.142458 -0.773903,-0.371672 -1.120437,-0.684684 l 1.114031,-1.224447 c 0.167597,0.211962 0.380051,0.380052 0.626024,0.49885 0.262735,0.123235 0.539269,0.187807 0.819255,0.187807 0.138515,0 0.278015,-0.01577 0.41801,-0.04782 0.140486,-0.03254 0.267662,-0.08429 0.382023,-0.147387 0.115349,-0.06705 0.208018,-0.154288 0.279985,-0.25682 0.07147,-0.105981 0.107948,-0.23365 0.107948,-0.374628 9.86e-4,-0.244002 -0.0907,-0.429344 -0.276535,-0.568845 z M 40.14449,10.649085 h 1.5695 v 5.978789 h 3.064567 v 1.443802 h -4.633574 v -7.422591 z m -3.415535,0 h 1.568514 v 7.422591 h -1.568514 z m -5.508529,0 h 1.312682 l 3.229204,7.422591 H 33.98874 l -0.646237,-1.591681 h -2.974852 l -0.625532,1.591681 h -1.730196 z m -9.728533,0 h 2.862464 c 0.376602,0 0.738908,0.03648 1.078538,0.110904 0.334702,0.07099 0.632926,0.195202 0.885308,0.364277 0.251397,0.169569 0.4535,0.399276 0.601871,0.684684 0.148373,0.285409 0.223299,0.649686 0.223299,1.078047 0,0.517578 -0.136049,0.964177 -0.405189,1.326975 -0.257806,0.347518 -0.636377,0.573282 -1.124381,0.675812 l -0.115349,0.02466 1.898287,3.157238 h -1.881527 l -1.569007,-2.999987 h -0.884323 v 2.999993 h -1.5695 V 10.64909 Z M 13.24364,12.74208 c 0.197174,-0.479624 0.477653,-0.893194 0.833551,-1.230361 0.354419,-0.337167 0.780807,-0.598914 1.267824,-0.781792 0.488004,-0.180908 1.029245,-0.272593 1.607949,-0.272593 0.593984,0 1.148042,0.07296 1.648369,0.215413 0.482089,0.13802 0.913899,0.378079 1.282612,0.710809 l -1.107127,1.20818 c -0.221328,-0.220342 -0.47371,-0.390404 -0.747288,-0.508215 -0.286888,-0.123236 -0.6487,-0.182384 -1.076566,-0.182384 -0.357377,0 -0.68567,0.05915 -0.975516,0.182384 -0.291322,0.122736 -0.543705,0.294775 -0.751723,0.513144 -0.208511,0.219847 -0.369207,0.483074 -0.480609,0.783272 -0.110904,0.300689 -0.165133,0.630461 -0.165133,0.980444 0,0.356389 0.05423,0.687641 0.165133,0.985867 0.111392,0.296253 0.273084,0.558 0.480609,0.777355 0.208512,0.217383 0.460893,0.390404 0.751723,0.512652 0.289353,0.121751 0.618632,0.182877 0.975516,0.182877 0.363785,0 0.68074,-0.04091 0.945938,-0.123722 0.249425,-0.07739 0.454485,-0.157245 0.609266,-0.239073 l 0.01082,-0.0064 0.01726,-0.01627 0.01676,-0.03007 v -1.26043 H 17.20735 v -1.440838 h 2.852112 v 3.855724 c -0.478639,0.245973 -0.98143,0.425895 -1.493589,0.534834 -0.523987,0.113382 -1.067693,0.168581 -1.612878,0.168581 -0.578704,0 -1.119452,-0.09119 -1.607948,-0.272591 -0.487018,-0.17992 -0.913897,-0.444133 -1.267824,-0.781299 -0.354419,-0.335688 -0.636377,-0.751231 -0.833551,-1.23184 -0.198159,-0.479132 -0.29921,-1.022344 -0.29921,-1.615343 0,-0.592013 0.101059,-1.136212 0.29921,-1.618301 z m 10.244634,25.469864 c -0.479625,0.210975 -1.091848,0.450542 -1.330921,0.577718 -0.441174,0.235129 -1.123887,0.749751 -1.507389,1.340286 -0.28393,0.439205 -0.548143,1.036147 -0.633913,1.427536 -0.05225,0.246466 -0.07837,0.607294 -0.07296,1.031215 0.01036,0.988825 0.180908,2.303972 0.520537,3.206039 0.386461,1.024315 0.596942,1.365426 1.042556,2.403051 0.189285,0.439202 0.366742,0.857704 0.452511,1.061779 0.03598,0.08085 0.02513,0.173513 -0.02317,0.246467 -0.118308,0.180906 -0.383995,0.522016 -0.824185,0.758625 -0.766511,0.414063 -2.380868,0.563422 -3.181884,0.568844 h -0.0035 c -0.799538,-0.0059 -2.413894,-0.154781 -3.181391,-0.568844 -0.44019,-0.236609 -0.704896,-0.577719 -0.823199,-0.758625 -0.04929,-0.07296 -0.05866,-0.165626 -0.02416,-0.246467 0.08676,-0.204075 0.264705,-0.623069 0.453498,-1.061779 0.445612,-1.037625 0.656095,-1.378736 1.042555,-2.403051 0.33963,-0.902067 0.510185,-2.217214 0.520045,-3.206039 0.005,-0.423429 -0.02021,-0.784749 -0.07395,-1.031215 -0.08576,-0.391882 -0.349478,-0.988825 -0.633408,-1.427536 C 14.82343,39.539907 14.139238,39.024791 13.699049,38.789662 13.367798,38.613685 12.314892,38.218846 11.900828,37.990618 11.373389,37.698801 10.685748,37.245302 10.224363,36.883489 9.710232,36.482241 8.700704,35.490461 8.305866,35.000483 7.549213,34.061939 6.852205,32.961219 6.515039,31.774235 6.095553,30.302337 6.111325,29.672369 6.056118,29.197181 c -0.0099,-0.08035 0.05127,-0.152809 0.133091,-0.157246 0.404699,-0.01331 1.862303,-0.04684 6.953811,-0.05473 0.100559,-0.0015 0.190272,0.06113 0.226257,0.15478 1.431971,3.793615 5.167419,6.931136 10.096753,8.638163 0.201609,0.06851 0.218862,0.348011 0.02218,0.433782 z m 12.535787,10.796228 c 0.626518,1.66365 0.968615,2.215243 1.692734,3.902061 0.30611,0.712288 0.594969,1.393029 0.735455,1.721322 0.05669,0.133585 0.0414,0.280973 -0.03747,0.403219 -0.193723,0.294774 -0.625041,0.846367 -1.338315,1.231348 -1.244657,0.672855 -3.866568,0.916362 -5.167419,0.921293 h -0.005 c -1.30085,-0.005 -3.921777,-0.248438 -5.166926,-0.921293 -0.713274,-0.384981 -1.142619,-0.936574 -1.336342,-1.231348 -0.07887,-0.12225 -0.09416,-0.269634 -0.03747,-0.403219 0.140485,-0.328293 0.427373,-1.009034 0.733485,-1.721322 0.724612,-1.686818 1.066707,-2.238411 1.693718,-3.902061 0.552086,-1.465493 0.829607,-3.599893 0.846367,-5.208334 0.0069,-0.6837 -0.03401,-1.272755 -0.120279,-1.674003 -0.138494,-0.634405 -0.56784,-1.601046 -1.029225,-2.315308 -0.621028,-0.961713 -1.732101,-1.793784 -2.446361,-2.174821 -0.540255,-0.287873 -2.248268,-0.928194 -2.921123,-1.299866 -0.856717,-0.471737 -1.973211,-1.210151 -2.721977,-1.795755 -0.834536,-0.652644 -2.474032,-2.261086 -3.11386,-3.058652 -1.229375,-1.525135 -2.362136,-3.312511 -2.909785,-5.238402 -0.679262,-2.390726 -0.653137,-3.412085 -0.743837,-4.184511 -0.01528,-0.133585 0.0838,-0.25041 0.215905,-0.255339 0.828621,-0.03007 4.370347,-0.106971 19.062224,-0.09218 14.6904,-0.01479 18.232126,0.0621 19.060255,0.09218 0.133584,0.005 0.233158,0.121751 0.216397,0.255339 -0.0907,0.772426 -0.06457,1.794278 -0.743344,4.184511 -0.548634,1.925891 -1.680901,3.713267 -2.910279,5.238402 -0.64032,0.797073 -2.278831,2.405515 -3.113366,3.058652 -0.749752,0.585604 -1.866738,1.324018 -2.723457,1.795755 -0.671868,0.371672 -2.380869,1.011993 -2.919152,1.299866 -0.715246,0.381037 -1.825331,1.213108 -2.448399,2.174821 -0.4604,0.714262 -0.889745,1.680903 -1.027273,2.315308 -0.08775,0.401248 -0.127178,0.990796 -0.120279,1.674003 0.0143,1.608441 0.292801,3.742841 0.844393,5.208334 z M 55.693088,34.999991 c -0.393853,0.489976 -1.402889,1.481758 -1.917018,1.883005 -0.462372,0.361813 -1.14952,0.815312 -1.677946,1.107128 -0.414063,0.228228 -1.466476,0.623069 -1.796742,0.799045 -0.441174,0.235129 -1.125366,0.749752 -1.508869,1.340286 -0.282943,0.439204 -0.54765,1.036147 -0.632434,1.427535 -0.05471,0.246467 -0.07789,0.607295 -0.07493,1.031217 0.01036,0.988824 0.181892,2.30397 0.521032,3.206038 0.386952,1.024316 0.596942,1.365425 1.042554,2.40305 0.188794,0.439204 0.365757,0.857706 0.4535,1.061779 0.03451,0.08085 0.02513,0.173513 -0.02416,0.246468 -0.119293,0.180906 -0.38301,0.522016 -0.823199,0.758624 -0.768482,0.414065 -2.380869,0.563422 -3.181886,0.568845 h -0.0029 c -0.801018,-0.0059 -2.415373,-0.15478 -3.181885,-0.568845 -0.441175,-0.236608 -0.704896,-0.577718 -0.824184,-0.758624 -0.04929,-0.07296 -0.05866,-0.165626 -0.02416,-0.246468 0.08676,-0.204073 0.26372,-0.623068 0.453498,-1.061779 0.445612,-1.037625 0.655602,-1.378734 1.041568,-2.40305 0.339632,-0.902068 0.511173,-2.217214 0.522017,-3.206038 0.0029,-0.423429 -0.0212,-0.78475 -0.07395,-1.031217 -0.08577,-0.391881 -0.350477,-0.988824 -0.633419,-1.427535 -0.383009,-0.590042 -1.066709,-1.105157 -1.507883,-1.340286 -0.238581,-0.127178 -0.852776,-0.366742 -1.330427,-0.577717 -0.197175,-0.08577 -0.179922,-0.364771 0.02218,-0.434275 4.930318,-1.707027 8.664782,-4.844549 10.096262,-8.638163 0.03648,-0.09366 0.127178,-0.15626 0.226254,-0.15478 5.092002,0.0083 6.549607,0.0414 6.953811,0.05471 0.08183,0.005 0.142458,0.0769 0.133092,0.157245 -0.05373,0.475188 -0.03943,1.104665 -0.458427,2.577055 -0.337167,1.187477 -1.034174,2.288198 -1.79132,3.226742 z M 25.510286,12.87468 c 0,0.215904 -0.0488,0.383995 -0.141473,0.503777 -0.09317,0.119293 -0.211959,0.20654 -0.353432,0.26224 -0.136543,0.05471 -0.293788,0.08774 -0.462372,0.09957 -0.167597,0.0099 -0.326815,0.01577 -0.473708,0.01577 h -1.017908 v -1.792305 h 1.123395 c 0.148373,0 0.303154,0.0099 0.461386,0.03302 0.15971,0.01922 0.303153,0.06359 0.426388,0.123235 0.126192,0.06408 0.233157,0.156753 0.313012,0.27555 0.08231,0.119293 0.124707,0.282944 0.124707,0.479131 z m 6.318419,-0.200132 0.984388,2.492272 h -1.958917 z"
   id="path2"
   inkscape:connector-curvature="0"
   style="fill:#feb672;stroke-width:0.4929333" />
</svg>