<?xml version="1.0" encoding="utf-8"?>
<!-- Generator: Adobe Illustrator 24.0.0, SVG Export Plug-In . SVG Version: 6.00 Build 0)  -->
<svg version="1.1" id="Layer_1" xmlns="http://www.w3.org/2000/svg" xmlns:xlink="http://www.w3.org/1999/xlink" x="0px" y="0px"
	 viewBox="0 0 120 60" width="120" height="60" style="enable-background:new 0 0 120 60;" xml:space="preserve">
<style type="text/css">
	.st0{fill:#15232D;}
	.st1{fill:#5BC9EE;}
	.st2{fill:#00ABE4;}
	.st3{fill:#448CBA;}
</style>
<g id="Background">
	<g>
		<rect x="76.5" y="26.7" class="st0" width="1.9" height="14.1"/>
		<path class="st0" d="M70.4,40.9c-2.1,0-3.9-0.7-5.2-1.9c-1.3-1.2-2-3.1-2-5.1c0-2,0.7-3.8,2-5.1c1.3-1.3,3.1-1.9,5.2-1.9
			c1.6,0,2.7,0.2,3.9,0.9l-0.7,1.6c-1-0.5-1.9-0.7-3.1-0.7c-1.6,0-2.9,0.5-3.9,1.4c-0.9,0.9-1.5,2.3-1.5,3.8c0,1.5,0.5,2.9,1.5,3.8
			c1,0.9,2.3,1.4,3.9,1.4c1.2,0,2.1-0.2,3.1-0.7l0.7,1.6C73.1,40.6,72,40.9,70.4,40.9z"/>
		<path class="st0" d="M41.3,40.9c-1.1,0-2-0.3-2.6-0.9c-0.6-0.6-0.9-1.5-0.9-2.6v-9.8h1.9v2.9h3.1v1.6h-3.1v4.6c0,1,0.1,1.7,0.4,2
			c0.3,0.4,0.9,0.4,1.4,0.4c0.1,0,0.3,0,0.5,0c0.2,0,0.3-0.1,0.5-0.1l0.1,0l0.2,1.6l-0.1,0c-0.2,0-0.4,0.1-0.7,0.1
			C41.7,40.9,41.4,40.9,41.3,40.9z"/>
		<path class="st0" d="M33.6,41c-1.1,0-2-0.3-2.6-0.9c-0.6-0.6-0.9-1.5-0.9-2.6v-9.8H32v2.9h3.1v1.6H32v4.6c0,1,0.1,1.7,0.4,2
			c0.3,0.4,0.8,0.4,1.4,0.4c0.1,0,0.3,0,0.5,0c0.2,0,0.3-0.1,0.5-0.1l0.1,0l0.2,1.6l-0.1,0c-0.2,0-0.5,0.1-0.7,0.1
			C34,41,33.8,41,33.6,41z"/>
		<path class="st0" d="M7.9,32.9h2.7c0.9,0,1.7-0.2,2.2-0.5c0.5-0.4,0.8-0.9,0.8-1.5c0-0.6-0.2-1.1-0.7-1.5
			c-0.5-0.3-1.2-0.5-2.2-0.5H7.9C7.9,28.9,7.9,32.9,7.9,32.9z M7.9,39h2.9c2.3,0,3.4-0.7,3.4-2.2s-1.1-2.2-3.4-2.2H7.9V39z
			 M5.9,40.8V27.2h4.9c1.4,0,2.6,0.3,3.4,1c0.9,0.7,1.3,1.6,1.3,2.6c0,0.6-0.2,1.2-0.5,1.7c-0.2,0.3-0.5,0.6-0.8,0.9l-0.2,0.2
			l0.3,0.1c0.5,0.3,1,0.6,1.3,1.1c0.4,0.6,0.7,1.3,0.7,2c0,1.2-0.5,2.2-1.4,2.9c-0.9,0.7-2.2,1-3.7,1H5.9L5.9,40.8z"/>
		<path class="st0" d="M97.5,40.9c-1.3,0-2.5-0.4-3.2-1.2c-0.8-0.8-1.1-1.9-1.1-3.4v-5.7H95v5.7c0,1,0.2,1.8,0.7,2.3
			c0.4,0.4,1.1,0.7,2,0.7l0,0c0.6,0,1.1-0.1,1.6-0.3c0.4-0.2,0.8-0.5,1.1-0.8l0-0.1v-7.5h1.9v10.1h-1.9V40l-0.3,0.2
			c-0.3,0.2-0.6,0.3-0.9,0.4C98.6,40.8,98.1,40.9,97.5,40.9z"/>
		<path class="st0" d="M109.6,32c-0.9,0-1.8,0.4-2.3,1c-1.1,1.3-1.1,4,0,5.3c0.5,0.6,1.4,1,2.3,1c0.5,0,1-0.1,1.5-0.3
			c0.4-0.2,0.8-0.4,1.1-0.8l0-0.1v-5l0-0.1c-0.3-0.3-0.7-0.6-1.1-0.8C110.6,32.1,110.1,32,109.6,32z M109.4,40.9
			c-1.4,0-2.7-0.5-3.5-1.5c-1.8-2-1.8-5.6,0-7.6c0.9-0.9,2.2-1.5,3.5-1.5c0.6,0,1.1,0.1,1.6,0.3c0.3,0.1,0.6,0.2,0.9,0.4l0.3,0.2
			v-4.6h1.9v14.1h-1.9v-0.6l-0.3,0.2c-0.3,0.2-0.6,0.3-0.9,0.4C110.5,40.8,110,40.9,109.4,40.9z"/>
		<path class="st0" d="M23.1,32c-0.8,0-1.5,0.3-2,0.8c-0.4,0.4-0.7,1.1-0.8,1.8l0,0.2h5.6l0-0.2c-0.1-0.7-0.4-1.4-0.8-1.8
			C24.5,32.3,23.8,32,23.1,32z M23.5,40.9c-1.6,0-2.9-0.5-3.8-1.4c-0.9-0.9-1.4-2.3-1.4-3.9c0-1.5,0.4-2.9,1.3-3.8
			c0.8-0.9,2.1-1.5,3.5-1.5s2.6,0.5,3.5,1.5c0.9,0.9,1.3,2.3,1.3,3.9v0.3l0,0.3l0,0.1h-7.5l0,0.2c0.1,0.8,0.4,1.4,1,1.9
			c0.6,0.5,1.4,0.8,2.3,0.8c1.3,0,2.1-0.2,2.8-0.7l0.7,1.4C26.2,40.6,25,40.9,23.5,40.9z"/>
		<path class="st0" d="M49.4,32c-0.8,0-1.5,0.3-2,0.8c-0.4,0.4-0.7,1.1-0.8,1.8l0,0.2h5.6l0-0.2c-0.1-0.7-0.4-1.4-0.8-1.8
			C50.9,32.3,50.2,32,49.4,32z M49.9,40.9c-1.6,0-2.9-0.5-3.8-1.4c-0.9-0.9-1.4-2.3-1.4-3.9c0-1.5,0.4-2.9,1.3-3.8
			c0.8-0.9,2.1-1.5,3.5-1.5s2.6,0.5,3.5,1.5c0.9,0.9,1.3,2.3,1.3,3.9v0.3l0,0.3l0,0.1h-7.6l0,0.2c0.1,0.8,0.5,1.4,1,1.9
			c0.6,0.5,1.4,0.8,2.3,0.8c1.3,0,2.1-0.2,2.8-0.7l0.7,1.4c-0.6,0.4-1.1,0.6-1.8,0.8C51.2,40.9,50.6,40.9,49.9,40.9z"/>
		<path class="st0" d="M85.8,32.1c-0.9,0-1.8,0.4-2.3,1c-1.1,1.3-1.1,4,0,5.3c0.5,0.6,1.4,1,2.3,1c0.9,0,1.8-0.4,2.3-1
			c1.1-1.3,1.1-4,0-5.3C87.5,32.4,86.7,32.1,85.8,32.1z M85.8,41c-1.4,0-2.8-0.5-3.7-1.5c-1.9-2-1.9-5.7,0-7.6
			c0.9-0.9,2.2-1.5,3.7-1.5c1.4,0,2.8,0.5,3.7,1.5c1.9,2,1.9,5.7,0,7.6C88.5,40.5,87.2,41,85.8,41z"/>
		<path class="st0" d="M58.6,31.3l-0.3,0.2v-0.9h-1.9v10.1h1.9v-6.9l0,0c0.4-1,1.5-1.6,2.9-1.7c0.1-0.6,0.2-1.2,0.3-1.7
			C60.4,30.4,59.3,30.8,58.6,31.3z"/>
		<path class="st1" d="M40.1,24.6c-2.9-2.4-4.9-1.7-5.7-1.6c-1.7,0.3-3.3,2.6-3.3,2.7l0,0c2.5-3.6,6.2-2.1,7.8,0.2
			c0.7-1,12.2-10,22.2,0.6c0,0,0.1,0.1,0.1,0.1c0.9,0,2.4,0,3.3,0c-1-1.2-2.4-2.8-4.2-3.9C55.9,19.7,47.9,18.1,40.1,24.6L40.1,24.6z
			"/>
		<path class="st2" d="M68.5,24.2c-2.6-3.4-8.5-5.7-11.8-4.6c3-0.6,8.8,3.4,9.3,4.6c0,0,0,0,0,0C66.7,24.2,67.9,24.2,68.5,24.2
			C67.9,23.3,68.6,24.3,68.5,24.2z"/>
		<path class="st3" d="M72.1,23.1c-1.8-3.2-6.9-4.6-9.1-3.9c2-0.3,6,1.9,7.3,3.9c0,0-0.2,0-0.2,0C70.4,23.1,71.7,23,72.1,23.1
			C71.7,22.4,72.1,23.1,72.1,23.1z"/>
	</g>
</g>
</svg>
