<svg xmlns="http://www.w3.org/2000/svg" width="120" height="60" viewBox="0 0 90 45" fill="#00b488"><path d="M22.935 10.384c1.82-1.773 4.71-2.036 7.018-1.164 1.58.607 2.7 2.073 3.095 3.692.6 2.388.3 4.957-.646 7.217-1.4.312-3.242.022-3.984-1.33.398-1.616.813-3.407.108-5-.322-.75-1.253-1.142-2.004-.798-.818.35-1.135 1.282-1.248 2.1-.233 2.007.22 4.205 1.633 5.716 1.18 1.28 2.967 1.884 4.687 1.805 2.333-.054 4.618-1.08 6.183-2.817h3.628l.005 9.07c.03 1.017.074 2.144.727 2.982.572.74 1.72.658 2.397.113.96-.742 1.447-1.906 1.852-3.01.97-2.952 1.3-6.067 1.48-9.155l3.72.002.11 3.1c.9-1.38 2.186-2.564 3.785-3.06 1.602-.506 3.532-.413 4.86.712 1.196 1.02 1.658 2.636 1.734 4.154l.054 5.895c.064.658.246 1.48.946 1.73.874.278 1.68-.39 2.108-1.093 1.304-2.083 1.385-4.645 2.49-6.814.93-1.975 2.528-3.74 4.64-4.448 1.916-.63 4.127-.612 5.932.35a4.73 4.73 0 0 1 2.491 4.139c.098 1.67-.747 3.326-2.122 4.262-2.063 1.46-4.684 1.734-7.143 1.73.452.796 1.18 1.432 2.066 1.695 2.22.678 4.7.182 6.603-1.118l-.005 3.933c-1.592 1.1-3.655 1.312-5.55 1.282-2.793-.064-5.704-1.44-7.003-4.01-.81 2.166-2.847 4.068-5.264 4.016-1.584.044-3.15-.85-3.87-2.27-1.014-1.862-.683-4.04-.74-6.07-.04-1.2.145-2.48-.373-3.608-.467-.924-1.722-.882-2.532-.486-1.366.673-2.01 2.196-2.37 3.59-.68 2.8-.354 5.704-.44 8.553-1.462 0-2.923.002-4.382-.002l-.01-3.768c-.624 1.236-1.447 2.412-2.616 3.186-1.55 1.076-3.71 1.172-5.36.278-1.376-.77-2.08-2.304-2.38-3.788-.48-2.537-.2-5.14-.273-7.703-2.017 1.376-4.502 1.83-6.902 1.9-1.56 3.183-3.714 6.07-6.264 8.526-.798.715-1.64 1.57-2.778 1.633-1.02.03-1.862-.648-2.606-1.263-2.33-2.04-3.982-4.73-5.28-7.514-2.093-4.542-3.186-9.472-3.886-14.4v-.187l4.677.005c.437 3.476 1.088 6.944 2.28 10.248a28.21 28.21 0 0 0 4.927 8.656c1.93-1.938 3.483-4.227 4.72-6.662-3.03-1.572-4.8-4.92-4.98-8.26-.182-2.297.346-4.812 2.056-6.463M73.72 23.64c-1.646.64-2.552 2.412-2.67 4.1 1.6-.037 3.328-.184 4.667-1.152.76-.543 1.3-1.673.722-2.53-.63-.808-1.847-.74-2.72-.418z"/><path d="M38.83 11.816c.892-.16 1.882.037 2.557.668 1.2 1.096 1.19 3.215-.002 4.313-1.204 1.132-3.46.95-4.328-.51-1.002-1.59-.258-4.208 1.773-4.47z"/></svg>