<?xml version="1.0" encoding="UTF-8" standalone="no"?>
<svg
   xmlns:dc="http://purl.org/dc/elements/1.1/"
   xmlns:cc="http://creativecommons.org/ns#"
   xmlns:rdf="http://www.w3.org/1999/02/22-rdf-syntax-ns#"
   xmlns:svg="http://www.w3.org/2000/svg"
   xmlns="http://www.w3.org/2000/svg"
   xmlns:sodipodi="http://sodipodi.sourceforge.net/DTD/sodipodi-0.dtd"
   xmlns:inkscape="http://www.inkscape.org/namespaces/inkscape"
   id="h"
   version="1.1"
   viewBox="0 0 64 64"
   xml:space="preserve"
   inkscape:version="0.91 r13725"
   sodipodi:docname="appdome-icon.svg"
   width="64"
   height="64"><defs
     id="defs24" /><sodipodi:namedview
     pagecolor="#ffffff"
     bordercolor="#666666"
     borderopacity="1"
     objecttolerance="10"
     gridtolerance="10"
     guidetolerance="10"
     inkscape:pageopacity="0"
     inkscape:pageshadow="2"
     inkscape:window-width="1419"
     inkscape:window-height="772"
     id="namedview22"
     showgrid="false"
     inkscape:zoom="6.3538411"
     inkscape:cx="60"
     inkscape:cy="30"
     inkscape:window-x="65"
     inkscape:window-y="24"
     inkscape:window-maximized="0"
     inkscape:current-layer="h" /><metadata
     id="t"><rdf:RDF><cc:Work
         rdf:about=""><dc:format>image/svg+xml</dc:format><dc:type
           rdf:resource="http://purl.org/dc/dcmitype/StillImage" /><dc:title></dc:title></cc:Work></rdf:RDF></metadata><style
     id="q"
     type="text/css">
	.st0{fill:#3E4950;}
</style><g
     id="f"
     transform="matrix(0.83008264,0,0,0.83008264,7.0830083,-32.372595)"><path
       style="fill:#3e4950"
       inkscape:connector-curvature="0"
       d="m 31.7,48.7 c -7.6,0 -13.8,2.7 -18.6,8.2 -1.4,1.5 -2.8,2.2 -4.2,2.2 -1.3,0 -2.4,-0.5 -3.3,-1.4 -0.9,-0.9 -1.4,-2 -1.4,-3.3 0,-1 0.3,-1.9 0.8,-2.7 C 10.3,43.3 19.2,39 31.6,39 c 9.2,0 16.3,2.5 21.3,7.4 5,4.9 7.5,11.5 7.5,19.9 l 0,44.1 c 0,1.4 -0.5,2.6 -1.4,3.5 -1,1 -2.1,1.4 -3.5,1.4 -1.4,0 -2.6,-0.5 -3.5,-1.4 -1,-1 -1.4,-2.1 -1.4,-3.5 l 0,-5.8 c -1.9,3.6 -5,6.5 -9.1,8.5 -4.2,2 -8.8,3 -13.8,3 -8.5,0 -15.3,-2 -20.3,-6 -5,-4 -7.5,-9.6 -7.5,-16.9 0,-7.1 2.5,-12.6 7.5,-16.6 5,-4 11.9,-6 20.5,-6 l 22.6,0 0,-4.3 c 0,-5.4 -1.7,-9.8 -5,-12.9 -3.3,-3.1 -7.9,-4.7 -13.8,-4.7 z m -3,58.2 c 6,0 11.1,-1.8 15.5,-5.4 4.3,-3.6 6.5,-8.7 6.5,-15.1 l 0,-6.7 -22.7,0 c -5.4,0 -9.8,1.1 -12.9,3.4 -3.2,2.3 -4.7,5.7 -4.7,10.2 0,9.1 6.1,13.6 18.3,13.6 z"
       class="st0"
       id="i" /></g></svg>