<?xml version="1.0" encoding="UTF-8" standalone="no"?>
<!-- Created with Inkscape (http://www.inkscape.org/) -->

<svg
   xmlns:dc="http://purl.org/dc/elements/1.1/"
   xmlns:cc="http://creativecommons.org/ns#"
   xmlns:rdf="http://www.w3.org/1999/02/22-rdf-syntax-ns#"
   xmlns:svg="http://www.w3.org/2000/svg"
   xmlns="http://www.w3.org/2000/svg"
   xmlns:sodipodi="http://sodipodi.sourceforge.net/DTD/sodipodi-0.dtd"
   xmlns:inkscape="http://www.inkscape.org/namespaces/inkscape"
   version="1.0"
   width="120"
   height="60"
   id="svg2225"
   sodipodi:docname="ap-ar21.svg"
   inkscape:version="0.92.3 (2405546, 2018-03-11)">
  <metadata
     id="metadata11">
    <rdf:RDF>
      <cc:Work
         rdf:about="">
        <dc:format>image/svg+xml</dc:format>
        <dc:type
           rdf:resource="http://purl.org/dc/dcmitype/StillImage" />
        <dc:title></dc:title>
      </cc:Work>
    </rdf:RDF>
  </metadata>
  <sodipodi:namedview
     pagecolor="#ffffff"
     bordercolor="#666666"
     borderopacity="1"
     objecttolerance="10"
     gridtolerance="10"
     guidetolerance="10"
     inkscape:pageopacity="0"
     inkscape:pageshadow="2"
     inkscape:window-width="1920"
     inkscape:window-height="1001"
     id="namedview9"
     showgrid="false"
     inkscape:zoom="8.3263094"
     inkscape:cx="77.092555"
     inkscape:cy="19.450721"
     inkscape:window-x="-9"
     inkscape:window-y="-9"
     inkscape:window-maximized="1"
     inkscape:current-layer="svg2225" />
  <defs
     id="defs2227" />
  <g
     id="g841"
     transform="translate(1.25e-6,2.365302)">
    <path
       inkscape:connector-curvature="0"
       d="m 62.234119,4.561933 h -6.409005 l -17.432025,25.777642 7.379515,0.0063 2.253295,-3.749879 6.779652,-0.03941 v -5.826367 h -2.913252 l 3.832437,-6.325299 0.10038,15.938908 h 6.409003 z m 7.428705,10.341821 h 2.330547 c 1.553285,0 3.058825,1.180291 3.058825,2.767473 v 0.728347 c 0,1.412947 -1.208951,2.62183 -2.621898,2.62183 h -1.747911 v 5.535085 h 4.952446 c 1.786629,0 3.808118,-1.563758 4.547487,-2.735438 0.952462,-1.509468 1.424591,-3.449386 1.424591,-5.858471 0,-5.291338 -4.487342,-8.5939117 -9.759183,-8.5939117 H 63.253819 V 35.004755 h 6.409005 z"
       style="fill:#cc3401;fill-rule:evenodd;stroke-width:0.00000689"
       id="_209052536" />
    <path
       inkscape:connector-curvature="0"
       d="m 110.48896,45.564165 c -0.14727,-2.008216 -1.80739,-2.356358 -3.19978,-2.356358 -2.22252,0 -2.8785,1.338847 -2.8785,2.383108 0,2.664292 4.41814,1.767296 4.41814,2.958824 0,0.26778 -0.22763,0.736325 -1.19159,0.736325 -1.17817,0 -1.55299,-0.441739 -1.55299,-1.04426 h -1.92797 c 0.0536,1.901159 1.80744,2.465658 3.42741,2.465658 1.11128,0 3.11949,-0.37708 3.11949,-2.452255 0,-2.624139 -4.45827,-1.807394 -4.45827,-2.932072 0,-0.307879 0.1338,-0.696176 1.15137,-0.696176 1.01752,0 1.17817,0.482006 1.25848,0.937206 z m -6.76287,0 c -0.14722,-2.008216 -1.80741,-2.356358 -3.19982,-2.356358 -2.22243,0 -2.878452,1.338847 -2.878452,2.383108 0,2.664292 4.418132,1.767296 4.418132,2.958824 0,0.26778 -0.22763,0.736325 -1.19153,0.736325 -1.178167,0 -1.553058,-0.441739 -1.553058,-1.04426 h -1.927983 c 0.05354,1.901159 1.807463,2.465658 3.427481,2.465658 1.11122,0 3.11945,-0.37708 3.11945,-2.452255 0,-2.624139 -4.458288,-1.807394 -4.458288,-2.932072 0,-0.307879 0.13386,-0.696176 1.151368,-0.696176 1.01752,0 1.17818,0.482006 1.25848,0.937206 z m -11.261334,0.682826 c 0.107083,-0.93726 0.575724,-1.499516 1.459329,-1.499516 0.602517,0 1.338827,0.348143 1.445945,1.499516 z m 2.824914,2.182286 c -0.147273,0.508757 -0.682828,0.776481 -1.204937,0.776481 -1.512858,0 -1.619977,-1.204929 -1.673518,-1.740435 h 4.886665 v -0.33474 c 0,-3.253297 -1.941259,-3.922776 -3.347012,-3.922776 -3.119486,0 -3.41401,2.744597 -3.41401,3.60144 0,2.932073 1.539618,3.898215 3.547875,3.898215 1.218347,0 2.637496,-0.564499 3.132847,-2.278185 z m -8.871816,2.088522 h 1.874353 v -3.708552 c 0,-0.789883 0.267781,-1.700282 1.727141,-1.700282 0.17402,0 0.374835,0 0.535506,0.02682 v -1.901163 c -0.120515,-0.01341 -0.24103,-0.02682 -0.361486,-0.02682 -1.138028,0 -1.566421,0.696231 -1.954716,1.419155 h -0.02675 v -1.23168 h -1.794046 z m -6.084653,-5.127707 v -2.824905 h 1.593171 c 1.245082,0 1.76724,0.388241 1.76724,1.325446 0,0.428392 0,1.499459 -1.499459,1.499459 z m 0,1.660186 h 2.302748 c 2.583928,0 3.065879,-2.195691 3.065879,-3.06588 0,-1.887812 -1.124568,-3.079339 -2.985519,-3.079339 h -4.39138 v 9.61274 h 2.008272 z m -11.319077,-0.04021 c 0,-1.124565 0.401642,-2.182229 1.593224,-2.182229 1.285293,0 1.606629,1.151371 1.606629,2.289343 0,1.057665 -0.468659,2.048425 -1.660184,2.048425 -1.204928,0 -1.539669,-1.312098 -1.539669,-2.155539 z m 4.9939,-6.105008 h -1.874408 v 3.413966 h -0.02675 c -0.294588,-0.455142 -0.856843,-1.111219 -2.061829,-1.111219 -1.566419,0 -2.958822,1.204929 -2.958822,3.6684 0,1.954715 0.883648,3.831256 2.999032,3.831256 0.776479,0 1.606516,-0.28337 2.061771,-1.086658 h 0.02675 V 50.5178 h 1.834254 z m -11.903988,5.34193 c 0.107117,-0.93726 0.575656,-1.499516 1.459304,-1.499516 0.602465,0 1.338849,0.348143 1.44596,1.499516 z m 2.824904,2.182285 c -0.147266,0.508757 -0.682828,0.776482 -1.20493,0.776482 -1.512864,0 -1.619974,-1.204929 -1.673534,-1.740436 h 4.886677 v -0.334745 c 0,-3.253296 -1.941254,-3.922777 -3.347005,-3.922777 -3.119492,0 -3.414079,2.744598 -3.414079,3.601441 0,2.932073 1.539669,3.898216 3.547942,3.898216 1.218331,0 2.637429,-0.5645 3.132838,-2.278185 z M 58.991497,41.46737 h -1.87441 v 1.927908 h -0.963954 v 1.338793 h 0.963954 v 4.324421 c 0,0.923801 0.294587,1.541856 1.914563,1.541856 h 0.240975 c 0.29453,0 0.589061,-0.01336 0.883648,-0.02675 v -1.421395 c -0.133919,0.01341 -0.267781,0.02675 -0.388297,0.02675 -0.763077,0 -0.776479,-0.160612 -0.776479,-0.575659 v -3.86922 h 1.164776 V 43.39528 H 58.991497 Z M 53.9266,47.960619 c 0,0.8703 -0.843496,1.405806 -1.673531,1.405806 -0.361491,0 -0.870246,-0.20082 -0.870246,-0.856843 0,-0.776479 0.575658,-0.950551 1.271887,-1.071066 0.776537,-0.120459 1.08447,-0.240975 1.27189,-0.38824 z m 1.834198,-2.690988 c 0,-1.753893 -1.834198,-2.061827 -2.838364,-2.061827 -1.459251,0 -2.972169,0.307934 -3.186394,2.490222 h 1.807451 c 0.05355,-0.415047 0.214168,-0.990706 1.151373,-0.990706 0.481947,0 1.231736,0.04015 1.231736,0.830037 0,0.401699 -0.361492,0.522157 -0.656021,0.562368 l -1.686935,0.254376 c -1.191582,0.174017 -2.075174,0.883592 -2.075174,2.275997 0,1.472709 1.097815,2.077363 2.168884,2.077363 1.271887,0 1.874352,-0.591249 2.3028,-1.033101 0.04015,0.401643 0.06696,0.508754 0.174074,0.843438 h 2.021617 V 50.23667 c -0.227627,-0.0803 -0.415047,-0.267781 -0.415047,-1.111275 z M 48.877405,40.811292 H 47.00305 v 1.740547 h 1.874355 z m -1.874355,2.583986 v 7.12252 h 1.874355 v -7.12252 z m -2.585726,4.525187 c 0,0.33474 -0.321336,1.24514 -1.271887,1.24514 -1.41921,0 -1.44596,-1.539614 -1.44596,-2.316206 0,-0.883593 0.307934,-2.061772 1.486113,-2.061772 h 0.09371 c 0.803285,0 1.071066,0.696172 1.151373,1.151429 h 1.901159 c -0.174016,-2.22244 -2.021619,-2.731252 -3.146242,-2.731252 -2.409915,0 -3.414022,1.646781 -3.414022,3.949584 0,1.499461 0.615867,3.550073 3.293508,3.550073 2.610734,0 3.186448,-2.050612 3.253408,-2.786996 z m -6.925847,-0.963952 c 0,0.910399 -0.26778,2.168884 -1.713683,2.168884 -1.445961,0 -1.713742,-1.258485 -1.713742,-2.168884 0,-0.910343 0.267781,-2.168884 1.713742,-2.168884 1.445903,0 1.713683,1.258541 1.713683,2.168884 z m 1.92791,0 c 0,-2.570527 -1.727144,-3.748706 -3.641593,-3.748706 -1.914564,0 -3.641651,1.178179 -3.641651,3.748706 0,2.570584 1.727087,3.75095 3.641651,3.75095 1.914449,0 3.641593,-1.180366 3.641593,-3.75095 z m -7.766988,-1.392348 c -0.147265,-2.008215 -1.807451,-2.356358 -3.199798,-2.356358 -2.222494,0 -2.87846,1.338847 -2.87846,2.383108 0,2.664293 4.418072,1.767296 4.418072,2.958825 0,0.267779 -0.227569,0.736324 -1.191526,0.736324 -1.178177,0 -1.553071,-0.441738 -1.553071,-1.04426 h -1.92791 c 0.05356,1.901161 1.807451,2.465659 3.427426,2.465659 1.111221,0 3.119491,-0.37708 3.119491,-2.452255 0,-2.624139 -4.458338,-1.807395 -4.458338,-2.932072 0,-0.307879 0.133862,-0.696176 1.151372,-0.696176 1.017568,0 1.178236,0.482005 1.258486,0.937205 z m -6.762881,0 c -0.147264,-2.008215 -1.807393,-2.356358 -3.199798,-2.356358 -2.222496,0 -2.878461,1.338847 -2.878461,2.383108 0,2.664293 4.41813,1.767296 4.41813,2.958825 0,0.267779 -0.227627,0.736324 -1.191581,0.736324 -1.178181,0 -1.553016,-0.441738 -1.553016,-1.04426 h -1.927965 c 0.05356,1.901161 1.80745,2.465659 3.42748,2.465659 1.111221,0 3.119435,-0.37708 3.119435,-2.452255 0,-2.624139 -4.458282,-1.807395 -4.458282,-2.932072 0,-0.307879 0.133806,-0.696176 1.151374,-0.696176 1.01751,0 1.178179,0.482005 1.258484,0.937205 z M 13.84882,43.073948 h 0.02675 l 1.191583,3.802263 h -2.450068 z m -1.767241,5.462391 h 3.547885 l 0.615923,1.981466 h 2.182231 l -3.387215,-9.612742 h -2.316205 l -3.4273705,9.612742 h 2.1153275 z"
       id="_209053016"
       style="fill-rule:evenodd;stroke-width:0.0000056" />
  </g>
</svg>
