<?xml version="1.0" encoding="UTF-8" standalone="no"?>
<!-- Created with Inkscape (http://www.inkscape.org/) -->

<svg
   xmlns:dc="http://purl.org/dc/elements/1.1/"
   xmlns:cc="http://creativecommons.org/ns#"
   xmlns:rdf="http://www.w3.org/1999/02/22-rdf-syntax-ns#"
   xmlns:svg="http://www.w3.org/2000/svg"
   xmlns="http://www.w3.org/2000/svg"
   xmlns:sodipodi="http://sodipodi.sourceforge.net/DTD/sodipodi-0.dtd"
   xmlns:inkscape="http://www.inkscape.org/namespaces/inkscape"
   version="1.0"
   width="64"
   height="64"
   id="svg2225"
   sodipodi:docname="ap-icon.svg"
   inkscape:version="0.92.3 (2405546, 2018-03-11)">
  <metadata
     id="metadata11">
    <rdf:RDF>
      <cc:Work
         rdf:about="">
        <dc:format>image/svg+xml</dc:format>
        <dc:type
           rdf:resource="http://purl.org/dc/dcmitype/StillImage" />
        <dc:title></dc:title>
      </cc:Work>
    </rdf:RDF>
  </metadata>
  <sodipodi:namedview
     pagecolor="#ffffff"
     bordercolor="#666666"
     borderopacity="1"
     objecttolerance="10"
     gridtolerance="10"
     guidetolerance="10"
     inkscape:pageopacity="0"
     inkscape:pageshadow="2"
     inkscape:window-width="1920"
     inkscape:window-height="1001"
     id="namedview9"
     showgrid="false"
     inkscape:zoom="8.3263094"
     inkscape:cx="77.092555"
     inkscape:cy="29.058819"
     inkscape:window-x="-9"
     inkscape:window-y="-9"
     inkscape:window-maximized="1"
     inkscape:current-layer="svg2225" />
  <defs
     id="defs2227" />
  <path
     id="_209052536"
     style="fill:#cc3401;fill-rule:evenodd;stroke-width:0.0000102"
     d="M 35.308747,9.4569742 H 25.816962 L 0,47.633859 l 10.929118,0.0093 3.337147,-5.553599 10.040716,-0.05837 v -8.628861 h -4.314548 l 5.675868,-9.367816 0.148664,23.605645 h 9.491782 z M 46.310716,24.77329 h 3.451558 c 2.300427,0 4.530143,1.74802 4.530143,4.098649 v 1.078687 c 0,2.092586 -1.790466,3.882951 -3.883051,3.882951 h -2.588669 v 8.197503 h 7.33461 c 2.646011,0 5.639852,-2.315938 6.734863,-4.051205 C 63.30077,35.744341 64,32.871308 64,29.303435 64,21.466923 57.354212,16.575785 49.546576,16.575785 H 36.818931 v 37.967241 h 9.491785 z"
     inkscape:connector-curvature="0" />
</svg>
