<?xml version="1.0" encoding="UTF-8" standalone="no"?>
<svg
   xmlns:dc="http://purl.org/dc/elements/1.1/"
   xmlns:cc="http://creativecommons.org/ns#"
   xmlns:rdf="http://www.w3.org/1999/02/22-rdf-syntax-ns#"
   xmlns:svg="http://www.w3.org/2000/svg"
   xmlns="http://www.w3.org/2000/svg"
   xmlns:sodipodi="http://sodipodi.sourceforge.net/DTD/sodipodi-0.dtd"
   xmlns:inkscape="http://www.inkscape.org/namespaces/inkscape"
   viewBox="0 0 120 60"
   version="1.1"
   id="svg42"
   sodipodi:docname="terraform-ar21.svg"
   width="120"
   height="60"
   inkscape:version="0.92.3 (2405546, 2018-03-11)">
  <metadata
     id="metadata46">
    <rdf:RDF>
      <cc:Work
         rdf:about="">
        <dc:format>image/svg+xml</dc:format>
        <dc:type
           rdf:resource="http://purl.org/dc/dcmitype/StillImage" />
        <dc:title>Asset 1</dc:title>
      </cc:Work>
    </rdf:RDF>
  </metadata>
  <sodipodi:namedview
     pagecolor="#ffffff"
     bordercolor="#666666"
     borderopacity="1"
     objecttolerance="10"
     gridtolerance="10"
     guidetolerance="10"
     inkscape:pageopacity="0"
     inkscape:pageshadow="2"
     inkscape:window-width="1920"
     inkscape:window-height="1001"
     id="namedview44"
     showgrid="false"
     inkscape:zoom="5.8226518"
     inkscape:cx="37.633649"
     inkscape:cy="52.918161"
     inkscape:window-x="-9"
     inkscape:window-y="-9"
     inkscape:window-maximized="1"
     inkscape:current-layer="svg42" />
  <defs
     id="defs4">
    <style
       id="style2">.cls-1{fill:#5c4ee5;}.cls-1,.cls-2{fill-rule:evenodd;}.cls-2{fill:#4040b2;}</style>
  </defs>
  <title
     id="title6">Asset 1</title>
  <g
     id="g931"
     transform="translate(0.07898625)">
    <g
       transform="matrix(0.63161977,0,0,0.63161977,62.108917,-30.775546)"
       id="g902">
      <path
         d="m -23.709805,89.716792 h -5.83 v -3.48 h 15.61 v 3.48 h -5.83 v 17.399998 h -3.95 z"
         id="path10"
         inkscape:connector-curvature="0" />
      <path
         d="m -10.329805,104.28679 a 16,16 0 0 0 4.67,-0.72 l 0.6,2.88 a 16.39,16.39 0 0 1 -5.61,1 c -4.8,0 -6.46,-2.23 -6.46,-5.89 v -3.999998 c 0,-3.23 1.44,-6 6.33,-6 4.89,0 6,2.85 6,6.14 v 3.259998 h -8.5 v 0.78 c 0,1.83 0.65,2.55 2.97,2.55 z m -3,-6.429998 h 4.86 v -0.75 c 0,-1.44 -0.44,-2.44 -2.32,-2.44 -1.88,0 -2.54,1 -2.54,2.44 z"
         id="path12"
         inkscape:connector-curvature="0" />
      <path
         d="m 5.410195,95.046792 a 29.93,29.93 0 0 0 -4,2.23 v 9.839998 h -3.87 V 91.846792 h 3.23 l 0.25,1.69 a 17.1,17.1 0 0 1 4,-2 z"
         id="path14"
         inkscape:connector-curvature="0" />
      <path
         d="m 14.750195,95.046792 a 29.93,29.93 0 0 0 -4,2.23 v 9.839998 h -3.87 V 91.846792 h 3.23 l 0.25,1.69 a 17.1,17.1 0 0 1 4,-2 z"
         id="path16"
         inkscape:connector-curvature="0" />
      <path
         d="m 27.530195,107.10679 h -3.13 l -0.28,-1 a 8.35,8.35 0 0 1 -4.54,1.35 c -2.79,0 -4,-1.91 -4,-4.54 0,-3.099998 1.35,-4.289998 4.45,-4.289998 h 3.67 v -1.6 c 0,-1.69 -0.47,-2.29 -2.91,-2.29 a 21.33,21.33 0 0 0 -4.23,0.47 l -0.47,-2.91 a 19.92,19.92 0 0 1 5.23,-0.72 c 4.8,0 6.21,1.69 6.21,5.52 z m -3.82,-5.77 h -2.82 c -1.25,0 -1.6,0.34 -1.6,1.5 0,1.16 0.34,1.54 1.54,1.54 a 6,6 0 0 0 2.88,-0.78 z"
         id="path18"
         inkscape:connector-curvature="0" />
      <path
         d="m 39.290195,88.366792 a 11.22,11.22 0 0 0 -2.19,-0.25 c -1.5,0 -1.72,0.66 -1.72,1.82 v 1.91 h 3.88 l -0.22,3 h -3.67 v 12.219998 h -3.82 V 94.886792 h -2.45 v -3 h 2.44 v -2.17 c 0,-3.17 1.47,-4.73 4.86,-4.73 a 12.11,12.11 0 0 1 3.29,0.44 z"
         id="path20"
         inkscape:connector-curvature="0" />
      <path
         d="m 46.750195,107.42679 c -5.23,0 -6.64,-2.88 -6.64,-6 v -3.859998 c 0,-3.13 1.41,-6 6.64,-6 5.23,0 6.65,2.88 6.65,6 v 3.859998 c -0.01,3.11 -1.42,6 -6.65,6 z m 0,-12.629998 c -2,0 -2.82,0.91 -2.82,2.63 v 4.109998 c 0,1.72 0.78,2.63 2.82,2.63 2.04,0 2.82,-0.91 2.82,-2.63 v -4.109998 c 0,-1.73 -0.79,-2.64 -2.82,-2.64 z"
         id="path22"
         inkscape:connector-curvature="0" />
      <path
         d="m 63.230195,95.046792 a 29.93,29.93 0 0 0 -4,2.23 v 9.839998 h -3.86 V 91.846792 h 3.23 l 0.25,1.69 a 17.1,17.1 0 0 1 4,-2 z"
         id="path24"
         inkscape:connector-curvature="0" />
      <path
         d="M 73.730195,107.10679 V 96.456792 c 0,-0.81 -0.34,-1.22 -1.22,-1.22 a 10.54,10.54 0 0 0 -4,1.29 v 10.589998 h -3.8 V 91.846792 h 2.91 l 0.38,1.29 a 15.29,15.29 0 0 1 6.11,-1.6 2.9,2.9 0 0 1 2.88,1.63 15,15 0 0 1 6.14,-1.63 c 2.54,0 3.45,1.79 3.45,4.51 v 11.059998 h -3.82 V 96.456792 c 0,-0.81 -0.34,-1.22 -1.22,-1.22 a 10.12,10.12 0 0 0 -4,1.29 v 10.589998 z"
         id="path26"
         inkscape:connector-curvature="0" />
    </g>
    <g
       transform="matrix(0.54962098,0,0,0.54962098,6.0921407,42.722741)"
       id="g911">
      <polygon
         class="cls-1"
         points="68.64,53.14 68.64,52.98 47.48,40.76 47.48,65.19 68.64,77.41 "
         id="polygon34"
         style="fill:#5c4ee5;fill-rule:evenodd"
         transform="translate(-29.539805,-61.853208)" />
      <g
         id="g891"
         transform="translate(0,-54.639999)">
        <polygon
           transform="translate(-29.539805,-7.2132082)"
           style="fill:#5c4ee5;fill-rule:evenodd"
           id="polygon28"
           points="68.64,25.86 68.64,50.3 47.48,38.08 47.48,13.64 "
           class="cls-1" />
        <polygon
           transform="translate(-29.539805,-7.2132082)"
           style="fill:#4040b2;fill-rule:evenodd"
           id="polygon30"
           points="70.96,50.3 92.13,38.08 92.13,13.64 70.96,25.86 "
           class="cls-2" />
        <polygon
           transform="translate(-29.539805,-7.2132082)"
           style="fill:#5c4ee5;fill-rule:evenodd"
           id="polygon32"
           points="24,24.44 45.16,36.66 45.16,12.22 24,0 "
           class="cls-1" />
        <path
           style="fill:#5c4ee5;fill-rule:evenodd"
           inkscape:connector-curvature="0"
           id="path36"
           d="M 53.640195,54.156792"
           class="cls-1" />
        <path
           style="fill:#5c4ee5;fill-rule:evenodd"
           inkscape:connector-curvature="0"
           id="path38"
           d="M 17.940195,33.546792"
           class="cls-1" />
      </g>
    </g>
  </g>
</svg>
