<?xml version="1.0" encoding="UTF-8" standalone="no"?>
<!-- Created with Inkscape (http://www.inkscape.org/) -->

<svg
   xmlns:dc="http://purl.org/dc/elements/1.1/"
   xmlns:cc="http://creativecommons.org/ns#"
   xmlns:rdf="http://www.w3.org/1999/02/22-rdf-syntax-ns#"
   xmlns:svg="http://www.w3.org/2000/svg"
   xmlns="http://www.w3.org/2000/svg"
   xmlns:sodipodi="http://sodipodi.sourceforge.net/DTD/sodipodi-0.dtd"
   xmlns:inkscape="http://www.inkscape.org/namespaces/inkscape"
   width="64"
   height="64"
   id="svg40427"
   version="1.1"
   inkscape:version="0.92.3 (2405546, 2018-03-11)"
   sodipodi:docname="thegaurdian-icon.svg">
  <defs
     id="defs40429" />
  <sodipodi:namedview
     id="base"
     pagecolor="#ffffff"
     bordercolor="#666666"
     borderopacity="1.0"
     inkscape:pageopacity="0.0"
     inkscape:pageshadow="2"
     inkscape:zoom="4.5554687"
     inkscape:cx="105.47541"
     inkscape:cy="23.365448"
     inkscape:document-units="px"
     inkscape:current-layer="layer1"
     showgrid="false"
     fit-margin-top="0"
     fit-margin-left="0"
     fit-margin-right="0"
     fit-margin-bottom="0"
     inkscape:window-width="1920"
     inkscape:window-height="1001"
     inkscape:window-x="-9"
     inkscape:window-y="-9"
     inkscape:window-maximized="1" />
  <metadata
     id="metadata40432">
    <rdf:RDF>
      <cc:Work
         rdf:about="">
        <dc:format>image/svg+xml</dc:format>
        <dc:type
           rdf:resource="http://purl.org/dc/dcmitype/StillImage" />
        <dc:title></dc:title>
      </cc:Work>
    </rdf:RDF>
  </metadata>
  <g
     inkscape:label="Layer 1"
     inkscape:groupmode="layer"
     id="layer1"
     transform="translate(-102.81367,-450.26944)">
    <path
       style="vector-effect:none;fill:#121212;fill-opacity:1;fill-rule:nonzero;stroke:none;stroke-width:1.22369969"
       inkscape:connector-curvature="0"
       id="path98-7"
       d="m 105.34691,482.61182 c 0,-23.8499 15.78573,-32.34238 33.37028,-32.34238 7.46457,0 14.50084,1.22369 18.44117,2.82672 l 0.34279,16.64231 h -1.67647 l -10.3158,-16.10387 c -2.07392,-0.82858 -4.30548,-1.18797 -6.53456,-1.05237 -9.34906,0 -14.13373,10.80527 -13.97464,28.51218 0.17139,21.18226 3.85463,30.81277 12.43277,30.81277 1.757,0.0581 3.50812,-0.2331 5.15178,-0.85658 v -22.6874 l -5.66572,-3.21834 v -1.93345 h 27.36192 v 2.03134 l -5.58006,3.12045 v 22.39372 c -6.63992,2.35241 -13.63632,3.54052 -20.68052,3.51202 -19.98304,0 -32.6728,-9.26343 -32.6728,-31.65712 v 0"
       sodipodi:nodetypes="cscccccccccccccccccc" />
  </g>
</svg>
