<svg xmlns="http://www.w3.org/2000/svg" width="64" height="64"><g transform="matrix(1.056106 0 0 1.056106 .052806 0)"><path d="M10.4 27.6L6 31.9l20.2 19.7L60.4 5.1A6.28 6.28 0 0 0 54.7.2L24.1 32.5z" fill="#f5f9fd"/><path d="M6.3 32.2l19.8 19.3z" fill="#fff"/><linearGradient id="A" gradientUnits="userSpaceOnUse" x1="48.127" y1="47.197" x2="32.718" y2="17.724"><stop offset="0" stop-color="#1e74bb"/><stop offset="1" stop-color="#1266a7"/></linearGradient><path d="M60.5 54.3V6.4c0-.5-.1-1-.2-1.4L26.1 51.5 6.3 32.1h-.1l14.7 28.5h33.3c3.4 0 6.3-2.8 6.3-6.3z" fill="url(#A)"/><linearGradient id="B" gradientUnits="userSpaceOnUse" x1="38.404" y1="19.581" x2="55.737" y2="50.914"><stop offset="0" stop-color="#2777b2"/><stop offset="1" stop-color="#287abf"/></linearGradient><path d="M60.5 54.3V6.4c0-.5-.1-1-.2-1.4L26.1 51.5l5.5 9.1h22.5c3.5 0 6.4-2.8 6.4-6.3z" fill="url(#B)"/><path d="M54.6.1z" fill="#3084c6"/><path d="M54.6.1z" fill="#3896d2"/><path d="M6.3.1C2.8.1 0 3 0 6.4v47.9c0 3.5 2.9 6.3 6.3 6.3h14.6L6.2 32.1h.1l-.3-.3 4.4-4.3L24 32.3 54.6 0h-.4z" fill="#3084c6"/></g></svg>