<svg xmlns="http://www.w3.org/2000/svg" width="120" height="60" fill-rule="evenodd"><path d="M14.8 30.283c0 2.87 2.35 5.206 5.235 5.206v-1.885c-1.872 0-3.396-1.46-3.396-3.32H14.8" fill="#638fba"/><path d="M30.462 35.304H28.35V31.27l-3.7-6.488h2.366l2.382 4.503 2.397-4.503h2.366l-3.7 6.488v4.033M42.138 30c0-1.957-1.46-3.578-3.27-3.578-1.826 0-3.287 1.62-3.287 3.578 0 1.97 1.46 3.592 3.287 3.592 1.8 0 3.27-1.623 3.27-3.592zm2.112 0c0 3.06-2.27 5.487-5.382 5.487-3.128 0-5.4-2.426-5.4-5.487 0-3.047 2.27-5.473 5.4-5.473 3.112 0 5.382 2.426 5.382 5.473zm4.734-3.352v8.656H46.9v-8.656h-2.954v-1.866h8.002v1.866h-2.954m12.376 8.656H53.2v-10.52h8.05v1.866h-5.954v2.244h5.082v1.864h-5.082v2.684h6.065v1.865" fill="#201211"/><path d="M68.173 35.486c-3 0-5.336-2.4-5.336-5.487s2.334-5.488 5.336-5.488c2.493 0 4.335 1.348 5.016 3.5h-2.27c-.492-.955-1.476-1.667-2.746-1.667-1.8 0-3.24 1.667-3.24 3.653 0 2 1.43 3.668 3.24 3.668 1.254 0 2.254-.743 2.746-1.7h2.254c-.698 2.137-2.556 3.518-5 3.518m11.47-6.046c.27 0 1.636-.105 1.636-1.4 0-.35 0-1.38-1.683-1.38h-2.938v2.788zm3.397 5.868h-2.095v-2.76c0-.896-.444-1.305-1.428-1.305h-2.86v4.063h-2.095v-10.52h5.033c2.302 0 3.78 1.168 3.78 3.14 0 1.196-.587 1.97-1.54 2.395.777.4 1.206 1.137 1.206 2.243zm10.144-.001h-8.16v-10.52h8.05v1.866H87.12v2.244h5.08v1.864h-5.08v2.684h6.065v1.865m9.945-.002h-8.16v-10.52h8.05v1.866h-5.954v2.244h5.08v1.864h-5.08v2.684h6.066v1.865m3.744-3.596v3.593h-2.113V24.783h2.113v4.245l4.143-4.245h2.9l-4.477 4.397 4.668 6.124h-2.73l-3.413-4.67-1.08 1.078" fill="#638fba"/><path d="M19.964 35.486c3.113 0 5.383-2.426 5.383-5.487 0-3.047-2.27-5.473-5.383-5.473-3.127 0-5.398 2.426-5.398 5.473l.001.03c-.015 1.956-1.47 3.56-3.27 3.56C9.47 33.59 8 31.966 8 29.997c0-1.957 1.46-3.578 3.287-3.578v-1.895C8.17 24.525 5.9 26.952 5.9 30c0 3.06 2.27 5.487 5.398 5.487 3.113 0 5.153-2.307 5.382-5.487h-.003c0-1.957 1.46-3.578 3.286-3.578 1.8 0 3.27 1.62 3.27 3.578 0 1.97-1.46 3.592-3.27 3.592" fill="#201211"/></svg>