<?xml version="1.0" encoding="UTF-8" standalone="no"?>
<svg
   xmlns:dc="http://purl.org/dc/elements/1.1/"
   xmlns:cc="http://creativecommons.org/ns#"
   xmlns:rdf="http://www.w3.org/1999/02/22-rdf-syntax-ns#"
   xmlns:svg="http://www.w3.org/2000/svg"
   xmlns="http://www.w3.org/2000/svg"
   xmlns:sodipodi="http://sodipodi.sourceforge.net/DTD/sodipodi-0.dtd"
   xmlns:inkscape="http://www.inkscape.org/namespaces/inkscape"
   id="Layer_1"
   data-name="Layer 1"
   viewBox="0 0 120 60"
   version="1.1"
   sodipodi:docname="quip-ar21.svg"
   width="120"
   height="60"
   inkscape:version="0.92.3 (2405546, 2018-03-11)">
  <metadata
     id="metadata65">
    <rdf:RDF>
      <cc:Work
         rdf:about="">
        <dc:format>image/svg+xml</dc:format>
        <dc:type
           rdf:resource="http://purl.org/dc/dcmitype/StillImage" />
        <dc:title>quip-salesforce-lockup-vertical</dc:title>
      </cc:Work>
    </rdf:RDF>
  </metadata>
  <sodipodi:namedview
     pagecolor="#ffffff"
     bordercolor="#666666"
     borderopacity="1"
     objecttolerance="10"
     gridtolerance="10"
     guidetolerance="10"
     inkscape:pageopacity="0"
     inkscape:pageshadow="2"
     inkscape:window-width="1920"
     inkscape:window-height="1001"
     id="namedview63"
     showgrid="false"
     inkscape:zoom="4.4701016"
     inkscape:cx="73.313185"
     inkscape:cy="47.637781"
     inkscape:window-x="-9"
     inkscape:window-y="-9"
     inkscape:window-maximized="1"
     inkscape:current-layer="Layer_1" />
  <defs
     id="defs4">
    <style
       id="style2">.cls-1{fill:#f27557;}.cls-2{fill:#c34027;}.cls-3{fill:#fff;}.cls-4{fill:#3c3d3f;}.cls-5{fill:#998d85;}</style>
  </defs>
  <title
     id="title6">quip-salesforce-lockup-vertical</title>
  <g
     id="g111">
    <g
       transform="matrix(1.6463393,0,0,1.6463393,-6.4633927,-14.290991)"
       id="g92">
      <path
         class="cls-1"
         d="m 28.036657,19.855346 a 9.5725575,9.5725575 0 0 0 -6.612702,-2.62312 c -0.20497,0 -0.414819,0 -0.622229,0.01952 a 9.6677218,9.6677218 0 0 0 0.617348,19.313482 h 9.665282 v -9.662841 a 9.5701173,9.5701173 0 0 0 -3.047699,-7.047041 z m -10.573003,2.210741 h 7.910841 a 0.87844014,0.87844014 0 1 1 0,1.75688 h -7.910841 a 0.87844014,0.87844014 0 1 1 0,-1.75688 z m 7.910841,9.667721 h -7.910841 a 0.88088025,0.88088025 0 0 1 0,-1.75932 h 7.910841 a 0.88088025,0.88088025 0 0 1 0,1.75932 z m 3.513761,-4.83142 a 0.87844014,0.87844014 0 0 1 -0.878441,0.87844 H 14.833213 a 0.87844014,0.87844014 0 1 1 0,-1.75688 h 13.176602 a 0.87844014,0.87844014 0 0 1 0.878441,0.87844 z"
         id="path8"
         inkscape:connector-curvature="0"
         style="fill:#f27557;stroke-width:0.24401115" />
      <path
         class="cls-2"
         d="m 29.242072,18.574287 a 11.424602,11.424602 0 0 0 -16.148658,16.148658 11.468524,11.468524 0 0 0 8.32566,3.601605 h 10.558363 a 0.88088025,0.88088025 0 0 0 0.87844,-0.87844 V 26.902388 a 11.468524,11.468524 0 0 0 -3.613805,-8.328101 z m 1.842284,17.990942 H 21.419074 A 9.6677218,9.6677218 0 0 1 20.801726,17.251747 c 0.20741,0 0.417259,-0.01952 0.622229,-0.01952 a 9.6701619,9.6701619 0 0 1 9.660401,9.670162 z"
         id="path10"
         inkscape:connector-curvature="0"
         style="fill:#c34027;stroke-width:0.24401115" />
      <path
         class="cls-3"
         d="m 25.374495,29.974488 h -7.910841 a 0.88088025,0.88088025 0 0 0 0,1.75932 h 7.910841 a 0.88088025,0.88088025 0 0 0 0,-1.75932 z"
         id="path12"
         inkscape:connector-curvature="0"
         style="fill:#ffffff;stroke-width:0.24401115" />
      <path
         class="cls-3"
         d="m 17.463654,23.822967 h 7.910841 a 0.87844014,0.87844014 0 1 0 0,-1.75688 h -7.910841 a 0.87844014,0.87844014 0 1 0 0,1.75688 z"
         id="path14"
         inkscape:connector-curvature="0"
         style="fill:#ffffff;stroke-width:0.24401115" />
      <path
         class="cls-3"
         d="m 14.828333,26.021507 a 0.8784405,0.8784405 0 1 0 0,1.756881 h 13.176602 a 0.8784405,0.8784405 0 1 0 0,-1.756881 z"
         id="path16"
         inkscape:connector-curvature="0"
         style="fill:#ffffff;stroke-width:0.24401115" />
    </g>
    <g
       transform="matrix(0.78523974,0,0,0.78523974,23.623628,6.4428078)"
       id="g98">
      <path
         class="cls-4"
         d="m 56.942218,37.614477 1.908167,2.574318 -4.516647,2.291265 -2.684122,-3.626006 c -7.398418,-0.03172 -11.756457,-5.607376 -11.756457,-11.707655 0,-6.100279 4.3922,-11.712535 11.800379,-11.712535 7.408178,0 11.761337,5.612256 11.761337,11.712535 0,4.455643 -2.376668,8.655075 -6.512657,10.468078 z m 1.271298,-10.468078 c 0,-3.660167 -2.479154,-7.061683 -6.519978,-7.061683 -4.040825,0 -6.519978,3.401516 -6.519978,7.061683 0,3.660167 2.447432,7.076323 6.519978,7.076323 4.072546,0 6.519978,-3.416156 6.519978,-7.076323 z"
         id="path18"
         inkscape:connector-curvature="0"
         style="fill:#3c3d3f;stroke-width:0.24401115" />
      <path
         class="cls-4"
         d="m 81.087121,22.949407 v 15.331221 h -4.868022 v -2.196101 c -0.85892,1.622674 -2.640201,2.576758 -5.02663,2.576758 -1.97161,0 -3.464958,-0.668591 -4.292156,-1.74956 -0.954084,-1.176134 -1.178574,-2.684123 -1.178574,-4.880223 v -9.082095 h 4.836301 v 7.857159 c 0,2.1961 0.66615,3.72117 2.703643,3.72117 2.037494,0 2.957416,-1.52751 2.957416,-3.879777 v -7.698552 z"
         id="path20"
         inkscape:connector-curvature="0"
         style="fill:#3c3d3f;stroke-width:0.24401115" />
      <path
         class="cls-4"
         d="m 87.004391,14.775033 a 3.0867411,3.0867411 0 1 1 -3.118462,3.098942 3.0818608,3.0818608 0 0 1 3.118462,-3.098942 z m -2.41815,8.174374 h 4.868022 v 15.331221 h -4.868022 z"
         id="path22"
         inkscape:connector-curvature="0"
         style="fill:#3c3d3f;stroke-width:0.24401115" />
      <path
         class="cls-4"
         d="m 97.818966,25.145507 c 0.732033,-1.400624 2.703644,-2.576757 4.706974,-2.576757 4.42148,0 7.47406,3.467398 7.47406,8.052368 0,4.584969 -3.05258,8.052368 -7.47406,8.052368 -2.00333,0 -3.974941,-1.176134 -4.706974,-2.576758 v 9.128457 H 92.953383 V 22.949407 h 4.865583 z m 0,5.47073 c 0,2.130218 1.464063,3.904179 3.689454,3.904179 2.16437,0 3.626,-1.781282 3.626,-3.904179 0,-2.122897 -1.46407,-3.904178 -3.626,-3.904178 -2.227831,-0.0098 -3.689454,1.771521 -3.689454,3.904178 z"
         id="path24"
         inkscape:connector-curvature="0"
         style="fill:#3c3d3f;stroke-width:0.24401115" />
    </g>
  </g>
</svg>
