<?xml version="1.0" encoding="UTF-8" standalone="no"?>
<!-- Generator: Adobe Illustrator 21.1.0, SVG Export Plug-In . SVG Version: 6.00 Build 0)  -->

<svg
   xmlns:svg="http://www.w3.org/2000/svg"
   xmlns="http://www.w3.org/2000/svg"
   xmlns:sodipodi="http://sodipodi.sourceforge.net/DTD/sodipodi-0.dtd"
   xmlns:inkscape="http://www.inkscape.org/namespaces/inkscape"
   version="1.1"
   id="Layer_1"
   x="0px"
   y="0px"
   viewBox="0 0 64 64"
   xml:space="preserve"
   sodipodi:docname="lucidchart-icon.svg"
   width="64"
   height="64"
   inkscape:version="0.91 r13725"><defs
     id="defs45" /><sodipodi:namedview
     pagecolor="#ffffff"
     bordercolor="#666666"
     borderopacity="1"
     objecttolerance="10"
     gridtolerance="10"
     guidetolerance="10"
     inkscape:pageopacity="0"
     inkscape:pageshadow="2"
     inkscape:window-width="1855"
     inkscape:window-height="1056"
     id="namedview43"
     showgrid="false"
     inkscape:zoom="14.359375"
     inkscape:cx="32"
     inkscape:cy="32"
     inkscape:window-x="65"
     inkscape:window-y="24"
     inkscape:window-maximized="1"
     inkscape:current-layer="Layer_1" /><g
     id="g935"
     transform="matrix(1.8233618,0,0,1.8233618,0.0911685,0.18233659)"><path
       style="fill:#de8b30"
       inkscape:connector-curvature="0"
       id="path28"
       d="m 34.9,30.4 c 0,-2.5 -2,-4.6 -4.6,-4.6 -2.6,0 -4.6,2 -4.6,4.6 0,2.6 2,4.6 4.6,4.6 2.6,0 4.6,-2.1 4.6,-4.6 z"
       class="st1" /><path
       style="fill:#de8b30"
       inkscape:connector-curvature="0"
       id="path30"
       d="m 30.4,9.1 c -2.5,0 -4.6,-2 -4.6,-4.6 0,-2.6 2,-4.6 4.6,-4.6 2.6,0 4.6,2 4.6,4.6 0,2.6 -2.1,4.6 -4.6,4.6 z"
       class="st1" /><path
       style="fill:#de8b30"
       inkscape:connector-curvature="0"
       id="path32"
       d="M 22,30.4 C 22,32.9 20,35 17.4,35 14.9,35 12.8,33 12.8,30.4 12.8,25.8 9,22 4.4,22 2,22 0,20 0,17.5 0,15 2,12.9 4.6,12.9 9.2,12.9 13,9.1 13,4.5 12.9,2 15,0 17.5,0 20,0 22,2 22,4.6 22,7.2 20,9.2 17.4,9.2 12.8,9.2 9,13 9,17.6 9,22.2 12.7,26 17.4,26 20,25.8 22,27.9 22,30.4 Z"
       class="st1" /></g></svg>