<svg xmlns="http://www.w3.org/2000/svg" width="64" height="64" viewBox="0 0 60 60"><defs><clipPath id="A"><path d="M30.027 65.987l1.337-1.343L36.2 66.25l-1.6-4.823 1.34-1.34 2.95 8.844zm-3.387-1.073l5.746-10.675 1.252 1.252-5.747 10.674zm-2.552-10.762l1.608 4.823-1.34 1.34-2.95-8.846 8.842 2.95-1.338 1.343zm19.376 8.722l2.274-5.144h1.894l-4.167 8.935-4.17-8.038 1.895-.154zm-5.797-7.103l12-3.485v1.77l-12 3.484zm5.797-9.502l-2.273 4.46h-1.895l4.17-8.252 4.167 8.38-1.896-.018zM56.74 66.377l-8.843 2.95 2.945-8.844 1.342 1.338-1.607 4.825 4.823-1.61zm4.597-2.282l-10.674-5.748 1.25-1.25 10.675 5.746zm-.27-4.728l1.61-4.822-4.822 1.607-1.34-1.34 8.843-2.948-2.948 8.842zm-3.4 18.722l-8.22-4.168 8.396-4.17.033 1.896-4.653 2.274 4.443 2.273zm3.39-10.36l3.486 12h-1.77l-3.484-12zm5.61 2.022l7.967 4.17-8.522 4.168-.095-1.896L70.9 73.92l-4.223-2.274zM56.346 81.3l-1.34 1.342-4.824-1.608 1.608 4.823-1.34 1.34-2.948-8.844zm3.387 1.072l-5.746 10.675-1.253-1.253 5.748-10.673zm2.55 10.763l-1.608-4.823 1.34-1.34 2.947 8.843-8.842-2.95 1.34-1.34zm-17.102-4.77L42.908 84l-2.274 4.73H38.74l4.168-8.52 4.17 8.245zm4.485 3.15l-12 3.485v-1.77l12-3.485zm-6.76 9.088l2.274-4.873h1.895l-4.17 8.664-4.17-8.175 1.896-.083zm-7.38-13.8l-1.34-1.34 1.608-4.823-4.823 1.608-1.34-1.34 8.844-2.95zm-10.494-3.61l10.674 5.746-1.25 1.25-10.675-5.746zm.268 4.726l-1.608 4.823 4.824-1.608 1.34 1.34-8.844 2.948 2.95-8.844zm3.364-18.722l8.338 4.17-8.338 4.17v-1.896l4.547-2.273-4.547-2.274zm-5.07-1.466l3.485 11h-1.77l-3.485-11zm-10.27 5.635l8.338 4.17v-1.896l-4.547-2.273 4.547-2.274v-1.895z"/></clipPath><linearGradient x1="13.329" y1="73.436" x2="74.634" y2="73.436" gradientUnits="userSpaceOnUse" spreadMethod="pad" id="B"><stop offset="0" stop-color="#ec1c28"/><stop offset=".332" stop-color="#ec1c28"/><stop offset="1" stop-color="#fbc81f"/></linearGradient></defs><path d="M30.027 65.987l1.337-1.343L36.2 66.25l-1.6-4.823 1.34-1.34 2.95 8.844zm-3.387-1.073l5.746-10.675 1.252 1.252-5.747 10.674zm-2.552-10.762l1.608 4.823-1.34 1.34-2.95-8.846 8.842 2.95-1.338 1.343zm19.376 8.722l2.274-5.144h1.894l-4.167 8.935-4.17-8.038 1.895-.154zm-5.797-7.103l12-3.485v1.77l-12 3.484zm5.797-9.502l-2.273 4.46h-1.895l4.17-8.252 4.167 8.38-1.896-.018zM56.74 66.377l-8.843 2.95 2.945-8.844 1.342 1.338-1.607 4.825 4.823-1.61zm4.597-2.282l-10.674-5.748 1.25-1.25 10.675 5.746zm-.27-4.728l1.61-4.822-4.822 1.607-1.34-1.34 8.843-2.948-2.948 8.842zm-3.4 18.722l-8.22-4.168 8.396-4.17.033 1.896-4.653 2.274 4.443 2.273zm3.39-10.36l3.486 12h-1.77l-3.484-12zm5.61 2.022l7.967 4.17-8.522 4.168-.095-1.896L70.9 73.92l-4.223-2.274zM56.346 81.3l-1.34 1.342-4.824-1.608 1.608 4.823-1.34 1.34-2.948-8.844zm3.387 1.072l-5.746 10.675-1.253-1.253 5.748-10.673zm2.55 10.763l-1.608-4.823 1.34-1.34 2.947 8.843-8.842-2.95 1.34-1.34zm-17.102-4.77L42.908 84l-2.274 4.73H38.74l4.168-8.52 4.17 8.245zm4.485 3.15l-12 3.485v-1.77l12-3.485zm-6.76 9.088l2.274-4.873h1.895l-4.17 8.664-4.17-8.175 1.896-.083zm-7.38-13.8l-1.34-1.34 1.608-4.823-4.823 1.608-1.34-1.34 8.844-2.95zm-10.494-3.61l10.674 5.746-1.25 1.25-10.675-5.746zm.268 4.726l-1.608 4.823 4.824-1.608 1.34 1.34-8.844 2.948 2.95-8.844zm3.364-18.722l8.338 4.17-8.338 4.17v-1.896l4.547-2.273-4.547-2.274zm-5.07-1.466l3.485 11h-1.77l-3.485-11zm-10.27 5.635l8.338 4.17v-1.896l-4.547-2.273 4.547-2.274v-1.895z" fill="url(#B)" clip-path="url(#A)" transform="matrix(.969055 0 0 -.969055 -12.620486 101.163513)"/></svg>