<?xml version="1.0" encoding="UTF-8" standalone="no"?>
<!-- Generator: Adobe Illustrator 19.0.0, SVG Export Plug-In . SVG Version: 6.00 Build 0)  -->

<svg
   xmlns:dc="http://purl.org/dc/elements/1.1/"
   xmlns:cc="http://creativecommons.org/ns#"
   xmlns:rdf="http://www.w3.org/1999/02/22-rdf-syntax-ns#"
   xmlns:svg="http://www.w3.org/2000/svg"
   xmlns="http://www.w3.org/2000/svg"
   xmlns:sodipodi="http://sodipodi.sourceforge.net/DTD/sodipodi-0.dtd"
   xmlns:inkscape="http://www.inkscape.org/namespaces/inkscape"
   version="1.1"
   x="0px"
   y="0px"
   viewBox="0 0 120 60"
   xml:space="preserve"
   id="svg90"
   sodipodi:docname="eff-ar21.svg"
   width="120"
   height="60"
   inkscape:version="0.92.2 (5c3e80d, 2017-08-06)"><metadata
     id="metadata96"><rdf:RDF><cc:Work
         rdf:about=""><dc:format>image/svg+xml</dc:format><dc:type
           rdf:resource="http://purl.org/dc/dcmitype/StillImage" /><dc:title></dc:title></cc:Work></rdf:RDF></metadata><defs
     id="defs94" /><sodipodi:namedview
     pagecolor="#ffffff"
     bordercolor="#666666"
     borderopacity="1"
     objecttolerance="10"
     gridtolerance="10"
     guidetolerance="10"
     inkscape:pageopacity="0"
     inkscape:pageshadow="2"
     inkscape:window-width="1920"
     inkscape:window-height="1001"
     id="namedview92"
     showgrid="false"
     inkscape:zoom="4.0538117"
     inkscape:cx="86.51224"
     inkscape:cy="27.772349"
     inkscape:window-x="-9"
     inkscape:window-y="-9"
     inkscape:window-maximized="1"
     inkscape:current-layer="svg90" /><style
     type="text/css"
     id="style2">
	.st0{fill:#FFFFFF;}
	.st1{fill-rule:evenodd;clip-rule:evenodd;fill:#ED1C24;}
	.st2{fill-rule:evenodd;clip-rule:evenodd;fill:#FFFFFF;}
	.st3{fill-rule:evenodd;clip-rule:evenodd;}
</style><g
     id="g949"
     transform="translate(2.8000002e-8,1.1115042)"><g
       transform="matrix(0.34280983,0,0,0.34280983,2.2708246,12.88239)"
       id="Layer_1"><g
         id="g66"><g
           id="g24"><path
             inkscape:connector-curvature="0"
             id="path4"
             d="m 219.6,92.8 h 7.7 v 2.4 h -5.1 v 5.4 h 4.4 v 2.4 h -4.4 v 7.7 h -2.6 z" /><path
             inkscape:connector-curvature="0"
             id="path6"
             d="m 229,97 c 0,-2.9 2.2,-4.4 4.3,-4.4 2.1,0 4.3,1.5 4.3,4.4 v 9.5 c 0,2.9 -2.2,4.4 -4.3,4.4 -2.1,0 -4.3,-1.5 -4.3,-4.4 z m 2.5,9.5 c 0,1.2 0.8,1.8 1.7,1.8 0.9,0 1.7,-0.6 1.7,-1.8 V 97 c 0,-1.2 -0.8,-1.8 -1.7,-1.8 -0.9,0 -1.7,0.6 -1.7,1.8 z" /><path
             inkscape:connector-curvature="0"
             id="path8"
             d="m 249.7,106.7 c 0,2.3 -1.9,4.2 -4.2,4.2 -2.3,0 -4.2,-1.8 -4.2,-4.2 V 92.8 h 2.6 v 13.7 c 0,1.3 0.7,1.9 1.6,1.9 0.9,0 1.6,-0.6 1.6,-1.9 V 92.8 h 2.6 z" /><path
             inkscape:connector-curvature="0"
             id="path10"
             d="m 253.5,92.8 h 2.5 l 3.9,10.8 H 260 V 92.8 h 2.6 v 17.9 h -2.4 l -3.9,-10.8 h -0.1 v 10.8 h -2.6 V 92.8 Z" /><path
             inkscape:connector-curvature="0"
             id="path12"
             d="m 266.3,92.8 h 3.8 c 2.9,0 4.5,1.7 4.5,4.6 v 8.4 c 0,3.3 -1.7,4.9 -4.7,4.9 h -3.6 z m 2.6,15.5 h 1.2 c 1.4,0 2,-0.7 2,-2.2 v -8.6 c 0,-1.4 -0.5,-2.2 -2,-2.2 h -1.2 z" /><path
             inkscape:connector-curvature="0"
             id="path14"
             d="m 281.1,92.8 h 2.1 l 4,17.9 h -2.6 l -0.8,-3.9 h -3.5 l -0.8,3.9 h -2.6 z m 1.1,5.1 v 0 l -1.3,6.5 h 2.6 z" /><path
             inkscape:connector-curvature="0"
             id="path16"
             d="m 290.3,95.2 h -3 v -2.4 h 8.5 v 2.4 h -3 v 15.5 h -2.6 V 95.2 Z" /><path
             inkscape:connector-curvature="0"
             id="path18"
             d="m 298.6,92.8 h 2.6 v 17.9 h -2.6 z" /><path
             inkscape:connector-curvature="0"
             id="path20"
             d="m 305,97 c 0,-2.9 2.2,-4.4 4.3,-4.4 2.1,0 4.3,1.5 4.3,4.4 v 9.5 c 0,2.9 -2.2,4.4 -4.3,4.4 -2.1,0 -4.3,-1.5 -4.3,-4.4 z m 2.6,9.5 c 0,1.2 0.8,1.8 1.7,1.8 0.9,0 1.7,-0.6 1.7,-1.8 V 97 c 0,-1.2 -0.8,-1.8 -1.7,-1.8 -0.9,0 -1.7,0.6 -1.7,1.8 z" /><path
             inkscape:connector-curvature="0"
             id="path22"
             d="m 317.3,92.8 h 2.5 l 3.9,10.8 v 0 -10.8 h 2.6 v 17.9 h -2.4 L 320,99.9 h -0.1 v 10.8 h -2.6 z" /></g><g
           id="g46"><path
             inkscape:connector-curvature="0"
             id="path26"
             d="m 10.5,92.8 h 7.7 v 2.4 h -5.1 v 5.3 h 4.4 v 2.4 h -4.4 v 5.3 h 5.1 v 2.6 h -7.7 z" /><path
             inkscape:connector-curvature="0"
             id="path28"
             d="M 21.4,92.8 H 24 v 15.4 h 5 v 2.6 h -7.7 v -18 z" /><path
             inkscape:connector-curvature="0"
             id="path30"
             d="m 32.2,92.8 h 7.7 v 2.4 h -5.1 v 5.3 h 4.4 v 2.4 h -4.4 v 5.3 h 5.1 v 2.6 h -7.7 z" /><path
             inkscape:connector-curvature="0"
             id="path32"
             d="m 51.2,106.7 c 0,2.2 -1.8,4.2 -4.1,4.2 -2,0 -4.2,-1 -4.2,-4.2 v -9.9 c 0,-2.3 1.7,-4.1 4.2,-4.1 2.4,0 4.1,1.8 4.1,4.3 v 1 h -2.6 v -0.9 c 0,-1 -0.6,-1.9 -1.6,-1.9 -1.3,0 -1.6,0.9 -1.6,2.1 v 9.2 c 0,1 0.4,1.8 1.6,1.8 0.7,0 1.6,-0.4 1.6,-1.8 v -0.9 h 2.6 z" /><path
             inkscape:connector-curvature="0"
             id="path34"
             d="m 55.7,95.2 h -3 v -2.4 h 8.5 v 2.4 h -3 v 15.5 H 55.6 V 95.2 Z" /><path
             inkscape:connector-curvature="0"
             id="path36"
             d="M 63.9,92.8 H 68 c 3,0 4.5,1.8 4.5,5.3 0,2.1 -0.6,3.6 -2.2,4.5 l 2.8,8.2 H 70.4 L 68,103.1 h -1.5 v 7.7 h -2.6 z m 2.6,8 H 68 c 1.8,0 2.1,-1 2.1,-2.8 0,-1.8 -0.3,-2.8 -2.2,-2.8 h -1.3 v 5.6 z" /><path
             inkscape:connector-curvature="0"
             id="path38"
             d="m 76,97 c 0,-2.9 2.2,-4.4 4.3,-4.4 2.1,0 4.3,1.5 4.3,4.4 v 9.5 c 0,2.9 -2.2,4.4 -4.3,4.4 -2.1,0 -4.3,-1.5 -4.3,-4.4 z m 2.6,9.5 c 0,1.2 0.8,1.8 1.7,1.8 0.9,0 1.7,-0.6 1.7,-1.8 V 97 c 0,-1.2 -0.8,-1.8 -1.7,-1.8 -0.9,0 -1.7,0.6 -1.7,1.8 z" /><path
             inkscape:connector-curvature="0"
             id="path40"
             d="m 88.3,92.8 h 2.5 l 3.9,10.8 h 0.1 V 92.8 h 2.6 v 17.9 H 95 L 91.1,99.9 v 0 10.8 H 88.5 V 92.8 Z" /><path
             inkscape:connector-curvature="0"
             id="path42"
             d="m 101.2,92.8 h 2.6 v 17.9 h -2.6 z" /><path
             inkscape:connector-curvature="0"
             id="path44"
             d="m 115.9,106.7 c 0,2.2 -1.8,4.2 -4.1,4.2 -2,0 -4.2,-1 -4.2,-4.2 v -9.9 c 0,-2.3 1.7,-4.1 4.2,-4.1 2.4,0 4.1,1.8 4.1,4.3 v 1 h -2.6 v -0.9 c 0,-1 -0.6,-1.9 -1.6,-1.9 -1.3,0 -1.6,0.9 -1.6,2.1 v 9.2 c 0,1 0.4,1.8 1.6,1.8 0.7,0 1.6,-0.4 1.6,-1.8 v -0.9 h 2.6 z" /></g><g
           id="g64"><path
             inkscape:connector-curvature="0"
             id="path48"
             d="m 125.7,92.8 h 7.7 v 2.4 h -5.1 v 5.4 h 4.4 v 2.4 h -4.4 v 7.7 h -2.6 z" /><path
             inkscape:connector-curvature="0"
             id="path50"
             d="m 136.6,92.8 h 4.1 c 3,0 4.5,1.8 4.5,5.3 0,2.1 -0.6,3.6 -2.2,4.5 l 2.8,8.2 h -2.7 l -2.4,-7.7 h -1.5 v 7.7 h -2.6 z m 2.5,8 h 1.5 c 1.8,0 2.1,-1 2.1,-2.8 0,-1.8 -0.3,-2.8 -2.2,-2.8 h -1.3 v 5.6 z" /><path
             inkscape:connector-curvature="0"
             id="path52"
             d="m 148.7,97 c 0,-2.9 2.2,-4.4 4.3,-4.4 2.1,0 4.3,1.5 4.3,4.4 v 9.5 c 0,2.9 -2.2,4.4 -4.3,4.4 -2.1,0 -4.3,-1.5 -4.3,-4.4 z m 2.5,9.5 c 0,1.2 0.8,1.8 1.7,1.8 0.9,0 1.7,-0.6 1.7,-1.8 V 97 c 0,-1.2 -0.8,-1.8 -1.7,-1.8 -0.9,0 -1.7,0.6 -1.7,1.8 z" /><path
             inkscape:connector-curvature="0"
             id="path54"
             d="m 161,92.8 h 2.5 l 3.9,10.8 h 0.1 V 92.8 h 2.6 v 17.9 h -2.4 l -3.9,-10.8 h -0.1 v 10.8 H 161 Z" /><path
             inkscape:connector-curvature="0"
             id="path56"
             d="m 175.4,95.2 h -3 v -2.4 h 8.5 v 2.4 h -3 v 15.5 h -2.6 V 95.2 Z" /><path
             inkscape:connector-curvature="0"
             id="path58"
             d="m 183.7,92.8 h 2.6 v 17.9 h -2.6 z" /><path
             inkscape:connector-curvature="0"
             id="path60"
             d="m 190.3,92.8 h 7.7 v 2.4 h -5.1 v 5.3 h 4.4 v 2.4 h -4.4 v 5.3 h 5.1 v 2.6 h -7.7 z" /><path
             inkscape:connector-curvature="0"
             id="path62"
             d="m 201.1,92.8 h 4.1 c 3,0 4.5,1.8 4.5,5.3 0,2.1 -0.6,3.6 -2.2,4.5 l 2.8,8.2 h -2.7 l -2.4,-7.7 h -1.5 v 7.7 h -2.6 z m 2.6,8 h 1.5 c 1.8,0 2.1,-1 2.1,-2.8 0,-1.8 -0.3,-2.8 -2.2,-2.8 h -1.3 v 5.6 z" /></g></g></g><g
       transform="matrix(0.43172601,0,0,0.43172601,-11.774449,5.2796052)"
       id="Layer_5"><g
         id="White_Stroke" /><g
         id="Red_circle" /><g
         id="FF" /><g
         id="E"><g
           id="g86"><path
             style="fill:#ffffff"
             inkscape:connector-curvature="0"
             id="path72"
             d="M 182.6,3.7 C 172.6,3.7 163,7.8 156,15 h -43 v 51.2 h 43 c 6.9,7.2 16.5,11.3 26.6,11.3 20.4,0 36.9,-16.6 36.9,-36.9 0,-20.3 -16.6,-36.9 -36.9,-36.9 z m -43.4,24.9 h 8.5 c -0.5,1.3 -0.8,2.6 -1.1,4 h -7.4 z m 0,24 v -6.5 h 6.9 c 0.3,2.2 0.9,4.4 1.6,6.5 z"
             class="st0" /><path
             style="clip-rule:evenodd;fill:#ed1c24;fill-rule:evenodd"
             inkscape:connector-curvature="0"
             id="path74"
             d="m 148.7,40.6 c 0,-18.7 15.2,-33.9 33.9,-33.9 18.7,0 33.9,15.2 33.9,33.9 0,18.7 -15.2,33.9 -33.9,33.9 -18.7,0 -33.9,-15.2 -33.9,-33.9 z"
             class="st1" /><g
             id="g80"><polygon
               style="clip-rule:evenodd;fill:#ffffff;fill-rule:evenodd"
               id="polygon76"
               points="183.8,38.1 183.8,30.6 186.4,30.6 186.4,26.8 183.8,26.8 183.8,21.8 187.6,21.8 187.6,18 180.1,18 180.1,38.1 "
               class="st2" /><polygon
               style="clip-rule:evenodd;fill:#ffffff;fill-rule:evenodd"
               id="polygon78"
               points="183.8,63.2 183.8,55.7 186.4,55.7 186.4,51.9 183.8,51.9 183.8,46.9 187.6,46.9 187.6,43.1 180.1,43.1 180.1,63.2 "
               class="st2" /></g><g
             id="g84"><polygon
               style="clip-rule:evenodd;fill-rule:evenodd"
               id="polygon82"
               points="116.1,18 172.6,18 172.6,25.5 136.2,25.5 136.2,35.6 171.3,35.6 171.3,43.1 136.2,43.1 136.2,55.7 172.6,55.7 172.6,63.2 116.1,63.2 "
               class="st3" /></g></g></g></g></g></svg>