<svg xmlns="http://www.w3.org/2000/svg" width="120" height="60"><defs><clipPath id="A"><path d="M0 0h612v792H0z"/></clipPath></defs><g clip-path="url(#A)" transform="matrix(1.115973 0 0 -1.115972 -53.996995 795.878245)" fill="#292225"><path d="M75.178 683.4l.105.454H67.92l-.104-.454zm10.398 4.396h2.687l.104.42H85.68l1.395 5.374h-2.512l-1.396-5.374H81.1l-.105-.42h2.06l-3.036-11.898c-.174-.663-.384-1.326-.384-2.198 0-.837.524-1.7 1.954-1.7 2.652 0 3.803 3.245 4.013 3.7l-.35.14c-.244-.56-1.256-2.722-2.408-2.722-.453 0-.732.28-.732.837 0 .28.07.698.174 1.082zm-21.46 3.56h-.872l2.06 8.025H64.7l.07.244h1.466l-.908-3.524c.14.21.63.872 1.36.872.698 0 .942-.453.942-.837 0-.314-.07-.593-.14-.873l-.698-2.617c-.035-.14-.105-.488-.105-.662 0-.2.07-.28.2-.28.383 0 .697.663.802.908l.175-.07c-.105-.244-.49-1.29-1.396-1.29-.49 0-.663.314-.663.663a3.73 3.73 0 0 0 .14.802l.697 2.687c.07.244.14.523.14.733 0 .174-.105.418-.454.418-.558 0-1.08-.802-1.326-1.71zm15.283 9.21h-.314L60.14 672.733h-1.536l-.104-.42h4.745l.105.42h-2.652l15.317 22.505h.07l-2.547-22.505h-2.233l-.105-.42h6.91l.105.42H76.26zm60.154-16.61c.942 2.827 1.535 4.153 2.93 4.153.907 0 1.465-.42 1.465-.977 0-.803-.523-1.187-.523-1.92 0-.664.488-1.152 1.116-1.152.768 0 1.257.628 1.257 1.64 0 1.047-.593 2.86-3.385 2.86-3 0-4.57-2.128-5.478-4.85-.593-1.744-1.535-4.57-1.535-7.71 0-1.605.733-4.013 3.908-4.013 3.314 0 4.745 4.153 4.954 4.64l-.453.21c-.454-1.08-1.675-3.942-3.803-3.942-1.36 0-2.094 1.046-2.094 3 0 2.826.872 5.757 1.64 8.06m-46.8-8.27c-.175-.49-1.43-3.7-4.013-3.7-1.43 0-1.954.838-1.954 1.7 0 .768.21 1.5.384 2.198l6.07 23.692h-2.268l.105.42h4.85l-6.5-24.983c-.105-.42-.14-.733-.14-1.082 0-.558.175-.837.698-.837 1.117 0 2.163 2.128 2.408 2.722zM69.35 693.913c.314 1.465 1.117 2.826 1.78 2.826.314 0 .418-.14.418-.42 0-.907-.942-2.058-2.198-2.407m40.02-21.6h-2.512l3.978 15.492h-2.268l.14.42h4.78l-.594-2.372c.49.802 1.7 2.65 3.978 2.65 1.99 0 2.687-1.326 2.687-2.372 0-.942-.2-1.64-.42-2.443l-2.233-8.653c-.105-.384-.174-.768-.174-1.116 0-.454.14-.803.767-.803 1.082 0 2.024 2.024 2.373 2.722l.35-.14c-.175-.384-1.43-3.7-3.943-3.7-1.396 0-2.024.768-2.024 1.7 0 .663.244 1.64.384 2.198l2.198 8.584c.175.698.35 1.29.35 1.85 0 .628-.314 1.29-1.326 1.29-1.675 0-3.14-2.442-3.768-4.815zm-2.79 15.91l-3.385-13.19c-.104-.384-.174-.733-.174-.977-.035-.593.174-.942.698-.942 1.22 0 2.163 2.163 2.407 2.722l.35-.14c-.14-.35-1.29-3.7-3.908-3.7-1.36 0-2.058.873-2.023 1.85 0 .383.07.907.104 1.046-.453-.976-1.675-2.896-3.594-2.896-2.023 0-3.314 1.43-3.2 4.083.07 2.477 1.22 6.14 1.78 7.606.942 2.443 2.407 4.885 5.373 4.885 2.233 0 2.547-1.7 2.652-2.058l.42 1.71zm-8.095-3.49c-.42-1.22-2.233-6.77-2.338-9.875-.035-1.395.454-2.023 1.5-2.023 1.5 0 2.756 1.954 3.56 4.5 1.01 3.35 1.814 6.77 1.884 8.48.035 1.15-.524 2.163-1.675 2.163-1.256 0-2.233-1.186-2.93-3.245m33.217 3.07l-3.07-11.898c-.175-.628-.384-1.395-.384-2.058 0-.977.628-1.85 2.06-1.85 2.512 0 3.768 3.315 3.908 3.7l-.35.14c-.245-.524-1.257-2.722-2.373-2.722-.628 0-.733.35-.733.872 0 .35.07.663.175 1.047l3.35 13.19h-7.048l1.36 5.374h-2.512l-1.36-5.374h-2.303l-.105-.42h2.303l-3.036-11.898c-.174-.663-.383-1.36-.383-2.128 0-.942.628-1.78 2.023-1.78 2.513 0 3.77 3.315 3.908 3.7l-.35.14c-.244-.56-1.22-2.722-2.407-2.722-.49 0-.698.28-.698.837 0 .35.07.698.174 1.082l3.245 12.77zm-62.422 5.827c1.082.245 2.896 1.152 2.896 2.408 0 .558-.314.942-1.046.942-1.36 0-2.827-2.198-2.827-4.292 0-.767.314-1.43 1.36-1.43 1.152 0 1.7 1.326 1.814 1.605l-.21.105c-.21-.49-.663-1.29-1.43-1.29-.454 0-.698.314-.698.872 0 .384.07.767.14 1.08m64.9.524c-.838 0-1.43-.663-1.43-1.605 0-.768.523-1.396 1.29-1.396.802 0 1.43.663 1.43 1.57 0 .803-.523 1.43-1.3 1.43m-75.472-2.79h2.582l.07.244h-.838l1.99 7.78h.35c.907 0 1.117-.105.838-1.675h.21l.488 1.92H59.72l-.49-1.92h.2c.523 1.326.732 1.675 1.675 1.675h.418l-1.99-7.78h-.767z"/></g></svg>