<?xml version="1.0" encoding="UTF-8" standalone="no"?>
<!-- Generator: Adobe Illustrator 22.0.1, SVG Export Plug-In . SVG Version: 6.00 Build 0)  -->

<svg
   xmlns:dc="http://purl.org/dc/elements/1.1/"
   xmlns:cc="http://creativecommons.org/ns#"
   xmlns:rdf="http://www.w3.org/1999/02/22-rdf-syntax-ns#"
   xmlns:svg="http://www.w3.org/2000/svg"
   xmlns="http://www.w3.org/2000/svg"
   xmlns:sodipodi="http://sodipodi.sourceforge.net/DTD/sodipodi-0.dtd"
   xmlns:inkscape="http://www.inkscape.org/namespaces/inkscape"
   version="1.1"
   id="Layer_1"
   x="0px"
   y="0px"
   viewBox="0 0 64.000005 63.999999"
   xml:space="preserve"
   sodipodi:docname="appdynamics-icon.svg"
   width="64"
   height="64"
   inkscape:version="0.92.2 5c3e80d, 2017-08-06"><metadata
     id="metadata23"><rdf:RDF><cc:Work
         rdf:about=""><dc:format>image/svg+xml</dc:format><dc:type
           rdf:resource="http://purl.org/dc/dcmitype/StillImage" /><dc:title></dc:title></cc:Work></rdf:RDF></metadata><defs
     id="defs21" /><sodipodi:namedview
     pagecolor="#ffffff"
     bordercolor="#666666"
     borderopacity="1"
     objecttolerance="10"
     gridtolerance="10"
     guidetolerance="10"
     inkscape:pageopacity="0"
     inkscape:pageshadow="2"
     inkscape:window-width="1440"
     inkscape:window-height="799"
     id="namedview19"
     showgrid="false"
     inkscape:zoom="4.4720499"
     inkscape:cx="41.519064"
     inkscape:cy="32.137023"
     inkscape:window-x="0"
     inkscape:window-y="1"
     inkscape:window-maximized="1"
     inkscape:current-layer="Layer_1" /><style
     type="text/css"
     id="style2">
	.st0{fill:#232736;}
</style><g
     id="g45"
     transform="matrix(5.3440923,0,0,5.3440923,-72.14965,-118.02575)"><path
       class="st0"
       d="m 18.971019,32.853173 -3.50302,-7.299396 c -0.845556,0.776532 -1.3805,1.880932 -1.3805,3.123382 0,2.329595 1.898188,4.227783 4.227782,4.227783 0.224332,0 0.431407,-0.01726 0.655738,-0.05177"
       id="path12"
       inkscape:connector-curvature="0"
       style="fill:#232736;stroke-width:0.17256255" /><path
       class="st0"
       d="m 17.53875,24.518402 c 0.258844,-0.05177 0.517688,-0.06902 0.776531,-0.06902 2.329595,0 4.227783,1.898188 4.227783,4.227782 0,1.276963 -0.569456,2.433132 -1.484038,3.209664 l 1.035375,2.174288 c 1.691113,-1.190682 2.795514,-3.157895 2.795514,-5.383952 0.01726,-3.64107 -2.933564,-6.591889 -6.574634,-6.591889 -0.621225,0 -1.24245,0.08628 -1.811906,0.258844 z"
       id="path14"
       inkscape:connector-curvature="0"
       style="fill:#232736;stroke-width:0.17256255" /></g></svg>