<svg xmlns="http://www.w3.org/2000/svg" width="120" height="60"><path d="M114.085 29.7l-1 .27c-.95-3.24-2.545-4.628-4.795-4.628-1.58 0-2.7 1.04-2.7 2.7 0 1.58 1.3 2.43 4.834 3.857 3.253 1.196 4.602 2.66 4.602 5.22 0 3.895-3.06 6.338-8.086 6.338-2.417 0-5.155-.54-6.698-1.157l-.193-5.412.95-.193c1.427 3.703 3.253 5.104 5.63 5.104 2.057 0 3.137-1.427 3.137-2.893s-.836-2.314-4.05-3.47c-3.06-1.003-5.155-2.314-5.155-5.567 0-3.2 2.815-5.914 7.6-5.914 2.263 0 4.32.386 5.67 1.003zm-20.7 1.697c.116-2.545-.4-6.222-2.494-6.222-2.147 0-3.33 3.433-3.368 6.377zm-1.98-7.456c5.27 0 7.816 3.857 7.855 8.922H87.396c-.04 4.487 2.34 7.88 6.788 7.88 1.94 0 3.06-.54 4.242-1.388l.553.617c-1.3 1.774-4 3.47-7.6 3.47-5.785 0-9.796-3.972-9.796-9.578-.013-5.065 3.278-9.925 9.822-9.925m-17.098 9.385c-.116-4-1.58-7.186-4.397-7.186-.67 0-1.183.116-1.98.386l.23 15.414c.283.116.95.193 1.427.193 2.738 0 4.718-3.87 4.718-8.806m5.875-.3c0 6.338-4 10.426-10.786 10.426-2.417 0-4.924-.386-7.096-.887.193-2.545.193-18.307 0-21.277-.193-1.543-.63-2.276-1.826-2.43l-.797-.077v-.707l8.37-1.543c-.04 1.3-.116 4.757-.116 8.806 1.466-.733 2.815-1.157 4.64-1.157 4.358 0 7.6 3.703 7.6 8.845m-21.3-3.442c-2.584-1.697-5.36-.964-5.914 0-.244 2.97-.193 7.534.04 9.886.116 1.543.553 2.198 1.748 2.314l1.58.154v1.003H44.5v-1.003l.913-.154c1.144-.116 1.543-.77 1.62-2.314.283-2.507.36-7.765 0-10.658-.077-1.658-.476-2.276-1.62-2.43l-.913-.116v-.694l8.446-1.62-.116 4.32c1.98-4.474 5.914-5.014 8.048-3.818zm-27.717 4.14c0 4.718 1.273 8.575 3.844 8.575 2.777 0 3.574-3.78 3.574-8.575s-1.234-8.536-3.844-8.536c-2.8 0-3.574 3.664-3.574 8.536m13.396-.077c0 5.412-3.574 9.8-9.95 9.8-6.274 0-9.436-4.178-9.436-9.655 0-5.374 3.574-9.848 9.95-9.848 6.274 0 9.436 4.204 9.436 9.693m-16.42-9.308l-1.3.386c-1.106-3.793-3.06-5.952-6.428-5.952h-4.397c-.244 2.52-.36 6.415-.244 10.62l2.93-.154c1.98 0 2.815-1.427 3.3-3.5h1.106v8.768H21.97c-.476-2.12-1.3-3.56-3.3-3.677l-2.93-.04c0 3.124.04 5.798.244 7.418.193 2.314.836 3.368 2.533 3.587l1.594.154v1.003H5.76v-1.003l1.196-.154c1.658-.23 2.34-1.273 2.533-3.587.32-3.78.4-11.853 0-16.34-.193-2.4-.874-3.355-2.533-3.548l-1.196-.193v-1.04H28.1z" fill="#33629a"/></svg>