<?xml version="1.0" encoding="UTF-8" standalone="no"?>
<!-- Created with Inkscape (http://www.inkscape.org/) -->

<svg
   xmlns:dc="http://purl.org/dc/elements/1.1/"
   xmlns:cc="http://creativecommons.org/ns#"
   xmlns:rdf="http://www.w3.org/1999/02/22-rdf-syntax-ns#"
   xmlns:svg="http://www.w3.org/2000/svg"
   xmlns="http://www.w3.org/2000/svg"
   xmlns:sodipodi="http://sodipodi.sourceforge.net/DTD/sodipodi-0.dtd"
   xmlns:inkscape="http://www.inkscape.org/namespaces/inkscape"
   id="svg2"
   version="1.1"
   inkscape:version="0.91 r13725"
   xml:space="preserve"
   width="256"
   height="256"
   viewBox="0 0 256.00001 256"
   sodipodi:docname="line-official.svg"><metadata
     id="metadata8"><rdf:RDF><cc:Work
         rdf:about=""><dc:format>image/svg+xml</dc:format><dc:type
           rdf:resource="http://purl.org/dc/dcmitype/StillImage" /><dc:title></dc:title></cc:Work></rdf:RDF></metadata><defs
     id="defs6"><clipPath
       clipPathUnits="userSpaceOnUse"
       id="clipPath24"><path
         d="m 0,612.288 858.898,0 L 858.898,0 0,0 0,612.288 Z"
         id="path26"
         inkscape:connector-curvature="0" /></clipPath></defs><sodipodi:namedview
     pagecolor="#ffffff"
     bordercolor="#666666"
     borderopacity="1"
     objecttolerance="10"
     gridtolerance="10"
     guidetolerance="10"
     inkscape:pageopacity="0"
     inkscape:pageshadow="2"
     inkscape:window-width="1586"
     inkscape:window-height="828"
     id="namedview4"
     showgrid="false"
     inkscape:zoom="0.86715764"
     inkscape:cx="409.4804"
     inkscape:cy="74.999632"
     inkscape:window-x="200"
     inkscape:window-y="33"
     inkscape:window-maximized="0"
     inkscape:current-layer="g10"
     fit-margin-top="0"
     fit-margin-left="0"
     fit-margin-right="0"
     fit-margin-bottom="0" /><g
     id="g10"
     inkscape:groupmode="layer"
     inkscape:label="LINE_SOCIAL_Basic_RGB"
     transform="matrix(1.25,0,0,-1.25,-127.33087,563.68038)"><path
       inkscape:connector-curvature="0"
       id="path30"
       style="fill:#00b900;fill-opacity:1;fill-rule:nonzero;stroke:none"
       d="m 262.29137,246.1443 -116.05334,0 c -24.50602,0 -44.37333,19.86731 -44.37333,44.37333 l 0,116.05334 c 0,24.50602 19.86731,44.37333 44.37333,44.37333 l 116.05334,0 c 24.50602,0 44.37333,-19.86731 44.37333,-44.37333 l 0,-116.05334 c 0,-24.50602 -19.86731,-44.37333 -44.37333,-44.37333" /><path
       inkscape:connector-curvature="0"
       id="path34"
       style="fill:#ffffff;fill-opacity:1;fill-rule:nonzero;stroke:none"
       d="m 278.49804,357.54919 c 0,33.36533 -33.44896,60.51157 -74.56597,60.51157 -41.11189,0 -74.56427,-27.14624 -74.56427,-60.51157 0,-29.91275 26.52672,-54.9632 62.3599,-59.6992 2.42858,-0.52395 5.73269,-1.60256 6.56896,-3.67787 0.75093,-1.88416 0.49152,-4.8384 0.24064,-6.74304 0,0 -0.87382,-5.26165 -1.06326,-6.38293 -0.32597,-1.88416 -1.50016,-7.3728 6.45803,-4.0192 7.95989,3.3536 42.94315,25.28597 58.58645,43.29301 l -0.003,0 c 10.80661,11.84939 15.98293,23.87627 15.98293,37.22923" /><path
       inkscape:connector-curvature="0"
       id="path38"
       style="fill:#00b900;fill-opacity:1;fill-rule:nonzero;stroke:none"
       d="m 188.78233,373.67258 -5.23093,0 c -0.80213,0 -1.45237,-0.65024 -1.45237,-1.45067 l 0,-32.48981 c 0,-0.79872 0.65024,-1.44726 1.45237,-1.44726 l 5.23093,0 c 0.80214,0 1.45238,0.64854 1.45238,1.44726 l 0,32.48981 c 0,0.80043 -0.65024,1.45067 -1.45238,1.45067" /><path
       inkscape:connector-curvature="0"
       id="path42"
       style="fill:#00b900;fill-opacity:1;fill-rule:nonzero;stroke:none"
       d="m 224.78225,373.67258 -5.22923,0 c -0.80384,0 -1.45237,-0.65024 -1.45237,-1.45067 l 0,-19.3024 -14.89067,20.10795 c -0.0341,0.0512 -0.0734,0.10069 -0.11264,0.14677 l -0.009,0.0102 c -0.029,0.0307 -0.058,0.0614 -0.0888,0.0888 -0.009,0.009 -0.0171,0.0171 -0.0256,0.0256 -0.0256,0.0222 -0.0512,0.0444 -0.0785,0.0649 -0.0119,0.0102 -0.0239,0.0205 -0.0375,0.029 -0.0239,0.0171 -0.0495,0.0341 -0.0751,0.0512 -0.0137,0.0102 -0.029,0.0171 -0.0444,0.0256 -0.0256,0.0154 -0.0512,0.0307 -0.0768,0.0444 -0.0154,0.007 -0.0307,0.0154 -0.0461,0.0222 -0.0273,0.012 -0.0546,0.0256 -0.0836,0.0358 -0.0171,0.005 -0.0307,0.0119 -0.0461,0.0154 -0.029,0.012 -0.058,0.0205 -0.087,0.029 -0.0171,0.005 -0.0324,0.009 -0.0512,0.0136 -0.0273,0.007 -0.0546,0.012 -0.0819,0.0171 -0.0205,0.005 -0.0427,0.007 -0.0614,0.009 -0.0256,0.005 -0.0512,0.009 -0.0768,0.0102 -0.0256,0.002 -0.0495,0.003 -0.0751,0.005 -0.0188,0 -0.0341,0.002 -0.0512,0.002 l -5.22923,0 c -0.80213,0 -1.45237,-0.65024 -1.45237,-1.45067 l 0,-32.48981 c 0,-0.79872 0.65024,-1.44726 1.45237,-1.44726 l 5.22923,0 c 0.80384,0 1.45408,0.64854 1.45408,1.44726 l 0,19.29728 14.90603,-20.13355 c 0.1024,-0.14507 0.2304,-0.26283 0.37034,-0.3584 0.003,-0.003 0.009,-0.007 0.0137,-0.0119 0.029,-0.0171 0.0597,-0.0375 0.0905,-0.0529 0.0137,-0.009 0.0273,-0.0171 0.041,-0.0239 0.0222,-0.0119 0.0461,-0.0222 0.07,-0.0324 0.0222,-0.0102 0.0444,-0.0205 0.07,-0.0307 0.0154,-0.007 0.029,-0.012 0.0427,-0.0171 0.0341,-0.0102 0.0666,-0.0205 0.1007,-0.0307 0.005,-0.002 0.0136,-0.003 0.0205,-0.005 0.11776,-0.0324 0.24234,-0.0478 0.37205,-0.0478 l 5.22923,0 c 0.80213,0 1.45237,0.64854 1.45237,1.44726 l 0,32.48981 c 0,0.80043 -0.65024,1.45067 -1.45237,1.45067" /><path
       inkscape:connector-curvature="0"
       id="path46"
       style="fill:#00b900;fill-opacity:1;fill-rule:nonzero;stroke:none"
       d="m 176.17399,346.41848 -14.21141,0 0,25.80309 c 0,0.80213 -0.65024,1.45237 -1.45067,1.45237 l -5.23093,0 c -0.80214,0 -1.45238,-0.65024 -1.45238,-1.45237 l 0,-32.4864 0,-0.002 c 0,-0.39082 0.15531,-0.7424 0.40619,-1.00352 0.005,-0.007 0.0102,-0.0154 0.0188,-0.0222 0.009,-0.007 0.0154,-0.0137 0.0222,-0.0205 0.26112,-0.24918 0.61269,-0.40448 1.00181,-0.40448 l 0.003,0 20.89301,0 c 0.80213,0 1.45067,0.65194 1.45067,1.45237 l 0,5.23093 c 0,0.80214 -0.64854,1.45238 -1.45067,1.45238" /><path
       inkscape:connector-curvature="0"
       id="path50"
       style="fill:#00b900;fill-opacity:1;fill-rule:nonzero;stroke:none"
       d="m 253.66553,365.53673 c 0.80214,0 1.45067,0.65024 1.45067,1.45237 l 0,5.23093 c 0,0.80214 -0.64853,1.45238 -1.45067,1.45238 l -20.89301,0 -0.003,0 c -0.39083,0 -0.74411,-0.15531 -1.00694,-0.4096 -0.005,-0.005 -0.0119,-0.0102 -0.0171,-0.0154 -0.009,-0.009 -0.0171,-0.0171 -0.0222,-0.0256 -0.24917,-0.25942 -0.40277,-0.61099 -0.40277,-1.00011 l 0,-0.002 0,-32.4864 0,-0.002 c 0,-0.38912 0.1553,-0.7424 0.40618,-1.00352 0.005,-0.005 0.012,-0.0137 0.0188,-0.0205 0.007,-0.007 0.0154,-0.0137 0.0205,-0.0188 0.26112,-0.25088 0.6144,-0.40618 1.00352,-0.40618 l 0.003,0 20.89301,0 c 0.80214,0 1.45067,0.65024 1.45067,1.45066 l 0,5.23264 c 0,0.80214 -0.64853,1.45238 -1.45067,1.45238 l -14.2097,0 0,5.49205 14.2097,0 c 0.80214,0 1.45067,0.64853 1.45067,1.45237 l 0,5.22923 c 0,0.80213 -0.64853,1.45408 -1.45067,1.45408 l -14.2097,0 0,5.49035 14.2097,0 z" /></g></svg>