<svg xmlns="http://www.w3.org/2000/svg" width="64" height="64" preserveAspectRatio="xMidYMid"><path d="M31.85-.001l22.698 20.8c7.32 6.705 7.525 18.175.45 25.137l-14.96 14.72c-4.57 4.498-11.915 4.466-16.447-.072L8.968 45.934c-6.92-6.93-6.73-18.2.418-24.9L31.85-.001" fill="#4ec6e6"/><path d="M47.062 27.908L31.996 13.22l-16.78 15.935c-1.743 1.743-1.888 6.8.218 8.907l16.488 15.98.073-7.264-11.55-11.04c-1.193-1.193-1.084-2.584.1-3.777l3.595-3.514L41.393 45.1l5.854-5.8c3.216-3.232 2.915-8.27-.186-11.37zm-3.888 7.63l-2.23 2.23L27.93 25.13l4.258-4.45L43 30.997c1.528 1.528 1.693 3.014.165 4.542z" fill="#fff"/></svg>