<?xml version="1.0" encoding="UTF-8" standalone="no"?>
<svg
   xmlns:dc="http://purl.org/dc/elements/1.1/"
   xmlns:cc="http://creativecommons.org/ns#"
   xmlns:rdf="http://www.w3.org/1999/02/22-rdf-syntax-ns#"
   xmlns:svg="http://www.w3.org/2000/svg"
   xmlns="http://www.w3.org/2000/svg"
   xmlns:sodipodi="http://sodipodi.sourceforge.net/DTD/sodipodi-0.dtd"
   xmlns:inkscape="http://www.inkscape.org/namespaces/inkscape"
   id="Handlebars"
   viewBox="0 0 120 60"
   version="1.1"
   sodipodi:docname="handlebars-ar21.svg"
   width="120"
   height="60"
   inkscape:version="0.92.2 (5c3e80d, 2017-08-06)">
  <metadata
     id="metadata34">
    <rdf:RDF>
      <cc:Work
         rdf:about="">
        <dc:format>image/svg+xml</dc:format>
        <dc:type
           rdf:resource="http://purl.org/dc/dcmitype/StillImage" />
        <dc:title>Artboard 5</dc:title>
      </cc:Work>
    </rdf:RDF>
  </metadata>
  <defs
     id="defs32" />
  <sodipodi:namedview
     pagecolor="#ffffff"
     bordercolor="#666666"
     borderopacity="1"
     objecttolerance="10"
     gridtolerance="10"
     guidetolerance="10"
     inkscape:pageopacity="0"
     inkscape:pageshadow="2"
     inkscape:window-width="1920"
     inkscape:window-height="1001"
     id="namedview30"
     showgrid="false"
     inkscape:zoom="1.84375"
     inkscape:cx="-2.1694915"
     inkscape:cy="64"
     inkscape:window-x="-9"
     inkscape:window-y="-9"
     inkscape:window-maximized="1"
     inkscape:current-layer="Handlebars" />
  <title
     id="title2">Artboard 5</title>
  <g
     id="original-wordmark"
     transform="matrix(0.80921484,0,0,0.80921484,8.0088899,-23.031319)">
    <g
       id="handlebars-2"
       data-name="handlebars">
      <path
         d="m 6.53,41.21 v 4.5 a 6.47,6.47 0 0 1 1.13,-1.05 4,4 0 0 1 1.22,-0.58 5.1,5.1 0 0 1 1.43,-0.19 4.21,4.21 0 0 1 2,0.49 3.79,3.79 0 0 1 1.88,2.62 9.57,9.57 0 0 1 0.11,1.55 v 5.81 a 2,2 0 0 1 -0.42,1.38 1.41,1.41 0 0 1 -1.1,0.47 q -1.5,0 -1.5,-1.84 V 49.24 A 4.69,4.69 0 0 0 10.85,47 1.71,1.71 0 0 0 9.21,46.22 a 2.46,2.46 0 0 0 -1.46,0.46 2.78,2.78 0 0 0 -1,1.26 8.09,8.09 0 0 0 -0.24,2.41 v 4 A 2,2 0 0 1 6.1,55.72 1.4,1.4 0 0 1 5,56.2 q -1.5,0 -1.5,-1.84 V 41.21 A 2.08,2.08 0 0 1 3.89,39.83 1.38,1.38 0 0 1 5,39.37 a 1.41,1.41 0 0 1 1.13,0.47 2,2 0 0 1 0.4,1.37 z"
         id="path4"
         inkscape:connector-curvature="0" />
      <path
         d="m 25,54.49 a 9.37,9.37 0 0 1 -2.13,1.28 6,6 0 0 1 -2.3,0.43 4.36,4.36 0 0 1 -2,-0.46 3.37,3.37 0 0 1 -1.36,-1.25 3.24,3.24 0 0 1 -0.48,-1.71 3.06,3.06 0 0 1 0.79,-2.12 3.94,3.94 0 0 1 2.16,-1.18 l 1.43,-0.3 q 1.14,-0.23 2,-0.43 0.86,-0.2 1.77,-0.47 A 3.17,3.17 0 0 0 24.4,46.52 2.16,2.16 0 0 0 22.51,46 a 3.69,3.69 0 0 0 -1.74,0.32 2.84,2.84 0 0 0 -1,1 q -0.42,0.64 -0.59,0.85 a 1,1 0 0 1 -0.74,0.21 1.29,1.29 0 0 1 -0.88,-0.33 1.07,1.07 0 0 1 -0.37,-0.84 2.57,2.57 0 0 1 0.57,-1.55 4.05,4.05 0 0 1 1.77,-1.24 8,8 0 0 1 3,-0.49 8.46,8.46 0 0 1 3.14,0.47 2.93,2.93 0 0 1 1.62,1.49 6.53,6.53 0 0 1 0.47,2.71 q 0,1.07 0,1.81 0,0.74 0,1.65 a 6.1,6.1 0 0 0 0.24,1.71 5.64,5.64 0 0 1 0.28,1.23 1.12,1.12 0 0 1 -0.44,0.85 1.47,1.47 0 0 1 -1,0.38 1.34,1.34 0 0 1 -0.92,-0.44 6.46,6.46 0 0 1 -0.92,-1.3 z m -0.2,-4.38 a 15.3,15.3 0 0 1 -1.94,0.52 q -1.27,0.27 -1.76,0.4 a 2.4,2.4 0 0 0 -0.93,0.5 1.28,1.28 0 0 0 -0.44,1 1.54,1.54 0 0 0 0.52,1.17 1.93,1.93 0 0 0 1.37,0.48 3.55,3.55 0 0 0 1.66,-0.39 2.63,2.63 0 0 0 1.12,-1 4.64,4.64 0 0 0 0.41,-2.26 z"
         id="path6"
         inkscape:connector-curvature="0" />
      <path
         d="m 33.57,45.55 v 0.37 a 5.31,5.31 0 0 1 1.75,-1.55 4.66,4.66 0 0 1 2.18,-0.49 4.35,4.35 0 0 1 2.14,0.52 3.31,3.31 0 0 1 1.36,1.48 3.51,3.51 0 0 1 0.39,1.2 12.36,12.36 0 0 1 0.09,1.64 v 5.64 a 2,2 0 0 1 -0.42,1.38 1.5,1.5 0 0 1 -2.18,0 2,2 0 0 1 -0.42,-1.37 V 49.31 A 5.05,5.05 0 0 0 38.09,47 1.7,1.7 0 0 0 36.43,46.21 2.46,2.46 0 0 0 35,46.7 2.78,2.78 0 0 0 34,48 9.48,9.48 0 0 0 33.78,50.53 v 3.8 a 2,2 0 0 1 -0.43,1.38 1.44,1.44 0 0 1 -1.1,0.46 1.37,1.37 0 0 1 -1.08,-0.48 2,2 0 0 1 -0.42,-1.37 V 45.6 a 1.91,1.91 0 0 1 0.38,-1.29 1.31,1.31 0 0 1 1,-0.43 1.4,1.4 0 0 1 0.72,0.19 1.35,1.35 0 0 1 0.52,0.57 2,2 0 0 1 0.2,0.91 z"
         id="path8"
         inkscape:connector-curvature="0" />
      <path
         d="m 52.85,54.47 v -0.3 a 7.71,7.71 0 0 1 -1.2,1.14 4.53,4.53 0 0 1 -1.29,0.67 4.84,4.84 0 0 1 -1.52,0.23 4.47,4.47 0 0 1 -2,-0.46 4.7,4.7 0 0 1 -1.6,-1.32 6,6 0 0 1 -1,-2 8.57,8.57 0 0 1 -0.35,-2.5 6.51,6.51 0 0 1 1.39,-4.43 4.61,4.61 0 0 1 3.65,-1.59 4.91,4.91 0 0 1 2.21,0.45 6.17,6.17 0 0 1 1.75,1.38 v -4.48 a 2.26,2.26 0 0 1 0.37,-1.41 1.27,1.27 0 0 1 1.06,-0.48 1.31,1.31 0 0 1 1.06,0.44 2,2 0 0 1 0.37,1.29 v 13.37 a 1.86,1.86 0 0 1 -0.4,1.3 1.34,1.34 0 0 1 -1,0.43 1.32,1.32 0 0 1 -1,-0.45 1.85,1.85 0 0 1 -0.5,-1.28 z m -6,-4.45 a 5.16,5.16 0 0 0 0.38,2.1 2.92,2.92 0 0 0 1,1.3 2.59,2.59 0 0 0 1.45,0.44 2.68,2.68 0 0 0 1.46,-0.42 2.86,2.86 0 0 0 1.05,-1.28 5.16,5.16 0 0 0 0.49,-2.16 5,5 0 0 0 -0.39,-2.08 3.13,3.13 0 0 0 -1.07,-1.33 2.55,2.55 0 0 0 -1.47,-0.46 2.48,2.48 0 0 0 -1.49,0.47 3,3 0 0 0 -1,1.35 5.39,5.39 0 0 0 -0.37,2.05 z"
         id="path10"
         inkscape:connector-curvature="0" />
      <path
         d="M 58.75,54.36 V 41.21 a 2,2 0 0 1 0.41,-1.38 1.37,1.37 0 0 1 1.09,-0.47 1.43,1.43 0 0 1 1.11,0.46 2,2 0 0 1 0.42,1.38 v 13.16 a 2,2 0 0 1 -0.43,1.38 1.44,1.44 0 0 1 -1.1,0.46 1.37,1.37 0 0 1 -1.08,-0.48 2,2 0 0 1 -0.42,-1.36 z"
         id="path12"
         inkscape:connector-curvature="0" />
      <path
         d="m 73.38,50.78 h -5.93 a 4,4 0 0 0 0.42,1.82 2.78,2.78 0 0 0 2.56,1.59 3.64,3.64 0 0 0 1,-0.13 3.23,3.23 0 0 0 0.87,-0.4 6.6,6.6 0 0 0 0.78,-0.58 Q 73.44,52.77 74,52.24 a 1,1 0 0 1 0.67,-0.2 1.1,1.1 0 0 1 0.75,0.26 0.91,0.91 0 0 1 0.29,0.72 2,2 0 0 1 -0.32,1 3.81,3.81 0 0 1 -1,1.05 5.51,5.51 0 0 1 -1.63,0.84 A 7,7 0 0 1 70.5,56.24 6,6 0 0 1 66,54.53 6.2,6.2 0 0 1 64.35,50 a 7.53,7.53 0 0 1 0.4,-2.49 5.5,5.5 0 0 1 1.17,-2 5.06,5.06 0 0 1 1.89,-1.26 6.77,6.77 0 0 1 2.49,-0.44 5.9,5.9 0 0 1 3,0.75 4.93,4.93 0 0 1 1.9,1.94 5.1,5.1 0 0 1 0.67,2.5 q 0,1.14 -0.65,1.48 a 4.08,4.08 0 0 1 -1.84,0.3 z m -5.93,-1.72 h 5.5 A 3.68,3.68 0 0 0 72.11,46.73 2.51,2.51 0 0 0 70.19,46 a 2.43,2.43 0 0 0 -1.86,0.78 3.9,3.9 0 0 0 -0.88,2.28 z"
         id="path14"
         inkscape:connector-curvature="0" />
      <path
         d="m 80.92,41.1 v 4.63 a 7,7 0 0 1 1.74,-1.36 4.65,4.65 0 0 1 2.2,-0.47 4.86,4.86 0 0 1 2.65,0.72 4.7,4.7 0 0 1 1.77,2.08 7.64,7.64 0 0 1 0.63,3.22 8.63,8.63 0 0 1 -0.35,2.53 6,6 0 0 1 -1,2 4.59,4.59 0 0 1 -1.62,1.3 4.73,4.73 0 0 1 -2.09,0.46 A 5,5 0 0 1 83.52,56 3.83,3.83 0 0 1 82.52,55.56 4.7,4.7 0 0 1 81.78,55 q -0.31,-0.29 -0.8,-0.87 v 0.3 a 1.83,1.83 0 0 1 -0.41,1.29 1.37,1.37 0 0 1 -1,0.44 1.3,1.3 0 0 1 -1,-0.44 1.92,1.92 0 0 1 -0.38,-1.29 V 41.24 a 2.22,2.22 0 0 1 0.37,-1.39 1.25,1.25 0 0 1 1,-0.47 1.33,1.33 0 0 1 1.08,0.45 1.94,1.94 0 0 1 0.28,1.27 z m 0.14,9 a 4.17,4.17 0 0 0 0.83,2.78 2.71,2.71 0 0 0 2.17,1 2.49,2.49 0 0 0 2,-1 4.34,4.34 0 0 0 0.8,-2.88 5.58,5.58 0 0 0 -0.34,-2 3,3 0 0 0 -1,-1.34 2.4,2.4 0 0 0 -1.48,-0.47 2.63,2.63 0 0 0 -1.54,0.47 3.14,3.14 0 0 0 -1.04,1.34 5.31,5.31 0 0 0 -0.39,2.11 z"
         id="path16"
         inkscape:connector-curvature="0" />
      <path
         d="m 100,54.49 a 9.37,9.37 0 0 1 -2.13,1.28 6,6 0 0 1 -2.3,0.43 4.36,4.36 0 0 1 -2,-0.46 3.37,3.37 0 0 1 -1.36,-1.25 3.24,3.24 0 0 1 -0.48,-1.71 3.06,3.06 0 0 1 0.79,-2.12 3.94,3.94 0 0 1 2.16,-1.18 l 1.43,-0.3 q 1.14,-0.23 2,-0.43 0.86,-0.2 1.77,-0.47 A 3.17,3.17 0 0 0 99.4,46.52 2.16,2.16 0 0 0 97.54,46 a 3.69,3.69 0 0 0 -1.74,0.32 2.84,2.84 0 0 0 -1,1 q -0.42,0.64 -0.59,0.85 A 1,1 0 0 1 93.47,48.38 1.29,1.29 0 0 1 92.6,48 a 1.07,1.07 0 0 1 -0.37,-0.84 2.57,2.57 0 0 1 0.57,-1.55 4.05,4.05 0 0 1 1.77,-1.24 8,8 0 0 1 3,-0.49 8.46,8.46 0 0 1 3.14,0.47 2.93,2.93 0 0 1 1.62,1.49 6.53,6.53 0 0 1 0.47,2.71 q 0,1.07 0,1.81 0,0.74 0,1.65 a 6.1,6.1 0 0 0 0.28,1.78 5.64,5.64 0 0 1 0.28,1.19 1.12,1.12 0 0 1 -0.44,0.85 1.47,1.47 0 0 1 -1,0.38 1.34,1.34 0 0 1 -0.92,-0.44 6.46,6.46 0 0 1 -1,-1.28 z m -0.2,-4.38 a 15.3,15.3 0 0 1 -1.94,0.52 q -1.27,0.27 -1.76,0.4 a 2.4,2.4 0 0 0 -0.93,0.5 1.28,1.28 0 0 0 -0.44,1 1.54,1.54 0 0 0 0.52,1.17 1.93,1.93 0 0 0 1.37,0.48 3.55,3.55 0 0 0 1.66,-0.39 2.63,2.63 0 0 0 1.12,-1 4.64,4.64 0 0 0 0.41,-2.26 z"
         id="path18"
         inkscape:connector-curvature="0" />
      <path
         d="m 108.85,51.83 v 2.53 a 2,2 0 0 1 -0.43,1.38 1.44,1.44 0 0 1 -1.1,0.46 1.39,1.39 0 0 1 -1.08,-0.47 2,2 0 0 1 -0.42,-1.38 v -8.43 q 0,-2 1.48,-2 a 1.23,1.23 0 0 1 1.09,0.48 2.62,2.62 0 0 1 0.37,1.41 5.31,5.31 0 0 1 1.12,-1.41 2.3,2.3 0 0 1 1.53,-0.48 3.9,3.9 0 0 1 1.85,0.48 1.43,1.43 0 0 1 0.9,1.27 1.2,1.2 0 0 1 -0.38,0.92 1.19,1.19 0 0 1 -0.83,0.36 3.81,3.81 0 0 1 -0.8,-0.21 3.74,3.74 0 0 0 -1.13,-0.21 1.65,1.65 0 0 0 -1.09,0.35 2.24,2.24 0 0 0 -0.66,1 7.22,7.22 0 0 0 -0.32,1.64 q -0.1,0.94 -0.1,2.31 z"
         id="path20"
         inkscape:connector-curvature="0" />
      <path
         d="m 125,52.24 a 3.51,3.51 0 0 1 -2.42,3.5 8.08,8.08 0 0 1 -2.9,0.46 7.08,7.08 0 0 1 -2.8,-0.5 4.07,4.07 0 0 1 -1.72,-1.25 2.52,2.52 0 0 1 -0.55,-1.5 1.17,1.17 0 0 1 0.35,-0.85 1.22,1.22 0 0 1 0.9,-0.35 1,1 0 0 1 0.73,0.23 2.57,2.57 0 0 1 0.49,0.66 3.32,3.32 0 0 0 1.12,1.21 3.37,3.37 0 0 0 1.77,0.4 2.56,2.56 0 0 0 1.49,-0.41 1.14,1.14 0 0 0 0.58,-0.93 1.26,1.26 0 0 0 -0.61,-1.17 7.49,7.49 0 0 0 -2,-0.7 16.46,16.46 0 0 1 -2.55,-0.82 4.18,4.18 0 0 1 -1.57,-1.13 2.58,2.58 0 0 1 -0.59,-1.72 3,3 0 0 1 0.54,-1.72 3.73,3.73 0 0 1 1.6,-1.29 6.14,6.14 0 0 1 2.56,-0.48 8.41,8.41 0 0 1 2.11,0.24 5.27,5.27 0 0 1 1.57,0.66 3.24,3.24 0 0 1 1,0.91 1.78,1.78 0 0 1 0.33,1 1.13,1.13 0 0 1 -0.35,0.85 1.38,1.38 0 0 1 -1,0.33 1.22,1.22 0 0 1 -0.79,-0.27 5.23,5.23 0 0 1 -0.75,-0.8 2.75,2.75 0 0 0 -0.81,-0.71 2.55,2.55 0 0 0 -1.27,-0.27 2.48,2.48 0 0 0 -1.37,0.35 1,1 0 0 0 -0.54,0.87 0.94,0.94 0 0 0 0.4,0.78 3.31,3.31 0 0 0 1.08,0.5 q 0.68,0.2 1.86,0.49 a 10,10 0 0 1 2.3,0.82 3.83,3.83 0 0 1 1.35,1.13 2.5,2.5 0 0 1 0.46,1.48 z"
         id="path22"
         inkscape:connector-curvature="0" />
    </g>
    <g
       id="moustache">
      <path
         id="Path-2"
         d="m 30.95,80.31 a 4.85,4.85 0 0 0 1.57,-2.37 2.8,2.8 0 0 0 -1.57,-3.6 c -4.6,-2.33 -7.57,1.82 -8,2.79 -0.43,0.97 -1.19,2.5 -0.71,6 0.48,3.5 2.17,6.73 7.45,8 a 22.37,22.37 0 0 0 15,-1.75 c 4.66,-2.22 13.4,-6.12 15.61,-6.51 a 19.14,19.14 0 0 1 4.41,-0.55 V 77 A 12.21,12.21 0 0 0 52.89,70.78 c -8.43,0.66 -11.78,5 -13.83,6.86 -2.05,1.86 -5.86,6.24 -8.41,5.47 -2.55,-0.77 -3.27,-3.92 -2.37,-4.89 0.9,-0.97 1.61,-0.8 2.17,0 a 4.24,4.24 0 0 1 0.5,2.09 z"
         inkscape:connector-curvature="0" />
      <path
         id="Path-2-Copy"
         d="m 98.17,80.31 a 4.85,4.85 0 0 1 -1.57,-2.37 2.8,2.8 0 0 1 1.57,-3.6 c 4.6,-2.33 7.57,1.82 8,2.79 0.43,0.97 1.19,2.5 0.71,6 -0.48,3.5 -2.17,6.73 -7.45,8 a 22.37,22.37 0 0 1 -15,-1.75 C 79.77,87.16 71.03,83.26 68.82,82.87 A 19.14,19.14 0 0 0 64.41,82.32 V 77 a 12.21,12.21 0 0 1 11.82,-6.22 c 8.43,0.66 11.78,5 13.83,6.86 2.05,1.86 5.86,6.24 8.41,5.47 2.55,-0.77 3.27,-3.92 2.37,-4.89 -0.9,-0.97 -1.61,-0.8 -2.17,0 a 4.24,4.24 0 0 0 -0.5,2.09 z"
         inkscape:connector-curvature="0" />
    </g>
  </g>
</svg>
