<svg xmlns="http://www.w3.org/2000/svg" height="64" width="64" viewBox="0 0 64 63.999"><path d="M28.337 57.513l.306 1.866 5.163.2.248-1.552-4.85.454-.095-1.03-.772.06m-3.22-4.452l.46 3.725 3.633-.28c-.48-.658-.988-1.297-1.57-1.866-.72-.697-1.63-1.146-2.522-1.58m4.054-3.008l.467 5.024c.036.686.612 1.16.9 1.746 1.175-1.456 1.41-3.467 1.024-5.253l-2.4-1.516m-4.958-18.327l3.468 21.714a27.7 27.7 0 0 1 1.144 1.022l-.55-5.847c2.377 1.1 4.685 2.46 6.595 4.276L38.2 32.186c-1.71 1.036-3.416 2.535-3.73 4.618-.038.452-.303.983-.82.985-1.374.023-2.755.044-4.128-.01-.796-.123-.7-1.085-.935-1.667-.73-2.017-2.54-3.42-4.382-4.384M18.827 27.6l7.54 24.7c-.01-.79-.192-1.563-.312-2.34L22.95 31.05c-1.532-.948-2.934-2.102-4.123-3.46m27.83-2.716l-1.085 3.196c1.974.955 3.93 2.08 6.118 2.454-1.24-2.224-3.22-3.906-5.033-5.65m-25.05-12.957c.73.672 1.54 1.25 2.325 1.86 4.137 3.197 8.423 6.204 12.804 9.06 1.198-2.097 1.844-4.473 2.073-6.868 3.223.8 6.445 1.654 9.55 2.84-.1.602-.207 1.203-.33 1.802 1.744-.038 3.514-.03 5.214-.472-.29-.44-.797-.64-1.233-.9-3.14-1.606-6.564-2.54-9.942-3.5-6.712-1.775-13.56-3.063-20.46-3.82M19.033 9.85l2.056.164c.283-1.594.838-3.123 1.555-4.57-1.498 1.195-2.727 2.708-3.61 4.407m6.505-6.12c-1.784 1.678-2.752 4.054-3.23 6.418 5.563.613 11.08 1.59 16.536 2.84-.202-3.035-1.272-6.145-3.518-8.275-1.49-1.424-3.574-2.29-5.65-2.076-1.42.16-2.847.47-4.14 1.093M11.842 2.494c1.394 2.228 3.44 3.934 5.323 5.73.662-.922 1.297-1.864 2.074-2.697-1.583-.812-3.2-1.57-4.85-2.234-.822-.342-1.665-.648-2.546-.8m8.576 1.887c2.69-2.418 6.165-3.92 9.75-4.317a16.9 16.9 0 0 1 11.113 2.969c3.135 2.175 5.49 5.45 6.53 9.123.35 1.152.505 2.347.638 3.54 1.703.595 3.406 1.236 4.974 2.144.832.505 1.797 1.147 1.94 2.194.126.95-.738 1.66-1.565 1.9-2.04.613-4.197.467-6.296.416l-.31.965c1.885 1.705 3.814 3.404 5.33 5.46.437.625.894 1.335.84 2.132-.046.66-.644 1.175-1.287 1.226-1.074.1-2.11-.286-3.105-.636-2.185-.847-4.286-1.9-6.324-3.053-5.937-3.28-11.576-7.07-17.053-11.063-2.4-1.802-4.797-3.608-7.096-5.537-.34-.35-.858-.238-1.295-.287-2.206-.056-4.47-.225-6.623.363.303.293.65.533 1.024.726 1.104.6 2.244 1.12 3.416 1.563a17.62 17.62 0 0 1 .363-1.752c.873.026 1.744.072 2.615.128-.67 2.71-.475 5.633.597 8.216.763 1.872 1.99 3.54 3.498 4.877-.5-3.608-1.15-7.208-1.337-10.853a46.87 46.87 0 0 1 1.266 1.004c.28 3.46.853 6.886 1.322 10.322.04.2.033.406.145.575 1.692 1.322 3.92 1.736 6.017 1.425 2.178-.253 4.105-1.498 5.597-3.053 2.388 1.572 4.848 3.03 7.318 4.465a19.67 19.67 0 0 1-2.937 1.941l-3.06 18.46c-.143 1.055-.43 2.096-.45 3.166l7.593-22.928c.37.168.733.354 1.1.55l-8.147 24.002a17.68 17.68 0 0 1 1.696 2.864c-.917.104-1.836.18-2.755.268l-.588 1.728c.633.01 1.266.074 1.9.052 1.02-.117 1.997-.503 3.03-.533-.245.33-.653.427-1.014.567a32.24 32.24 0 0 0-1.766.692c-.335.66-.602 1.432-1.235 1.87-.672.32-1.425.416-2.145.582-1.92.35-3.82.807-5.752 1.085-.377.028-.776.13-1.142.002-.413-.298-.566-.812-.77-1.254-.626-.03-1.256-.275-1.6-.827-.648-.945-.806-2.132-.772-3.253.77.05 1.542.034 2.308.13.314.117.52.426.837.54.262.038.525.04.79.054-.18-.577-.355-1.156-.564-1.723-.763.084-1.53.135-2.297.192l-.68-6.164c.418.128.834.268 1.244.414l-8.964-28.412c-1.044-2.403-1.578-5.032-1.442-7.654-1.327-.485-2.628-1.046-3.878-1.703-.718-.398-1.458-.815-1.983-1.463-.373-.454-.488-1.14-.16-1.652.385-.64 1.13-.917 1.82-1.093 1.75-.404 3.557-.383 5.34-.38-1.874-1.715-3.788-3.422-5.302-5.476-.483-.71-1.017-1.524-.868-2.425.118-.763.906-1.24 1.64-1.22 1.026-.002 2.002.362 2.95.717 2.11.822 4.068 1.966 6.023 3.095" fill="#232121"/></svg>