<svg xmlns="http://www.w3.org/2000/svg" width="120" height="60"><path d="M48.68 22.123c4.287 0 6.77 2.197 6.77 7.86s-2.465 7.86-6.77 7.86h-5.412v-15.72zm-.125 13.003c1.965 0 3.197-.9 3.197-5.126 0-4.25-1.232-5.126-3.197-5.126h-1.768v10.27h1.768zM67.47 22.123a4.16 4.16 0 0 1 .214 1.268c0 .518-.1 1.036-.214 1.393h-6.1v3.804h4.983c.107.375.214.768.214 1.286a4.24 4.24 0 0 1-.214 1.357H61.38v3.965h6.305c.125.357.214.84.214 1.304a4.16 4.16 0 0 1-.214 1.357H57.88V22.123zm2.608.196s.66-.196 1.733-.196c1.1 0 1.768.196 1.768.196v15.343s-.697.196-1.75.196c-1.16 0-1.75-.196-1.75-.196zm11.663-.447c2.84 0 4.6.75 4.6.75 0 .9-.286 1.93-.875 2.572 0 0-1.447-.43-3.18-.43-1.875 0-2.786.572-2.786 1.68 0 1.197 1.822 1.482 3.662 2.143 1.93.697 3.858 1.786 3.858 4.644 0 3.16-1.947 4.894-5.912 4.894-3.215 0-5.233-1.072-5.233-1.072 0-.9.322-1.965.84-2.66a14.36 14.36 0 0 0 4.162.679c1.733 0 2.518-.572 2.518-1.68 0-1-.982-1.447-2.25-1.875-2.197-.714-5.162-1.375-5.162-4.823-.018-2.876 1.804-4.823 5.77-4.823zm17.058.25a4.16 4.16 0 0 1 .214 1.268c0 .518-.1 1.036-.214 1.393h-6.1v3.804h4.983c.107.375.214.768.214 1.286a4.24 4.24 0 0 1-.214 1.357H92.7v3.965h6.305c.125.357.214.84.214 1.304a4.16 4.16 0 0 1-.214 1.357H89.21V22.123zm8.645 0c3.34 0 5.162 1.947 5.162 4.823 0 2.054-.982 3.68-2.733 4.376l3.572 6.34s-.714.196-2 .196c-1.232 0-1.93-.196-1.93-.196l-3.233-5.894h-1.357v5.894s-.66.196-1.733.196c-1.18 0-1.768-.196-1.768-.196V22.12zm-2.518 6.93h2.018c1.34 0 2.018-.768 2.018-2.1 0-1.357-.68-2.125-2.018-2.125h-2.018z" fill="#2e398c"/><path d="M21.184 12.652v7.798l-14.63 8.447V21.1z" fill="#ed2891"/><path d="M29.612 35.06l6.754 3.9-14.63 8.428-6.754-3.9z" fill="#5f2e8c"/><path d="M21.184 30.177v8.447l-6.754 3.9V26.278z" fill="#88288d"/><path d="M13.328 33.426l-6.222-3.564 6.203-3.584z" fill="#b6218b"/><path d="M36.957 21.06v16.915l-6.754-3.9V24.98L22.307 20.4v-7.798z" fill="#2e398c"/></svg>