<svg xmlns="http://www.w3.org/2000/svg" width="64" height="64"><defs><clipPath id="A"><path d="M-2750.7-2885.8h1920v337.86h-1920z" fill="none"/></clipPath><radialGradient id="B" cx="-853.22" cy="-1885.69" r="1905.16" gradientUnits="userSpaceOnUse"><stop offset="0" stop-color="#2e2e69"/><stop offset=".05" stop-color="#2e2e69"/><stop offset=".27" stop-color="#662c56"/><stop offset=".52" stop-color="#9d2a44"/><stop offset=".73" stop-color="#c62936"/><stop offset=".9" stop-color="#df282e"/><stop offset="1" stop-color="#e8282b"/></radialGradient></defs><path d="M-2758.38-3790.85h3810.3V19.46h-3810.3z" fill="url(#B)" clip-path="url(#A)" transform="translate(0 -81)"/><path d="M41.394 48.265h3.147V64h-3.147zM41.286 0h3.147v15.735h-3.147zM36.37 46.958l2.986.994-4.97 14.93-2.986-.994zm-4.395-2.778l2.547 1.85-9.244 12.733-2.547-1.85zM28.8 40.2l1.83 2.56-12.797 9.155-1.83-2.56zm-1.87-4.793l.975 2.992-14.96 4.875-.975-2.992zm-.294-5.047v3.147H10.902V30.36zm1.207-4.887l-.97 2.994-14.968-4.852.97-2.994zm2.727-4.33l-1.86 2.538L16 14.378l1.86-2.538zm.873-19.104l3-.98 4.896 14.953-3 .98zM22.8 6.95l2.537-1.863L34.64 17.77l-2.537 1.863z" fill="#fe9000"/><path d="M48.773 33.353l-.163-7.518h-.054l-2.062 7.084-2.225 7.13h-3.224l-1.953-7.084-1.65-7.14h-.054l-.295 7.573-.357 6.976h-3.83L34.07 22.1h5.51l1.8 6.108 1.55 6.542h.11l1.736-6.565 1.93-6.077h5.426l.977 18.285h-4.023z"/></svg>