<svg xmlns="http://www.w3.org/2000/svg" width="120" height="60"><path d="M59.152 37.597L64.36 19.65h4.232l-6.43 21.573h-6.02l-6.43-21.573h4.232zm21.214 3.585H77.13l-.288-1.027a8.61 8.61 0 0 1-4.684 1.387c-2.876 0-4.1-1.972-4.1-4.684 0-3.205 1.387-4.428 4.592-4.428h3.78v-1.654c0-1.746-.483-2.363-3-2.363-1.468.015-2.93.177-4.366.483l-.483-3a20.55 20.55 0 0 1 5.403-.74c4.95 0 6.4 1.746 6.4 5.7zm-3.945-5.948h-2.917c-1.294 0-1.654.36-1.654 1.55s.36 1.582 1.582 1.582c1.046-.013 2.07-.293 2.98-.812zm10.15-9.8v10.992c0 .842.36 1.264 1.264 1.264a10.88 10.88 0 0 0 4.109-1.325v-10.93h3.945v15.748h-3l-.4-1.366a15.77 15.77 0 0 1-6.277 1.685c-2.62 0-3.554-1.84-3.554-4.654V25.444zm11.414 15.738v-22.18l3.945-.544v22.734zm15.715-.32a10.93 10.93 0 0 1-3.462.616c-2.876 0-4.335-1.356-4.335-4.17v-8.773h-2.363v-3.082h2.363V21.53l3.934-.555v4.47h4.037l-.247 3.082h-3.8v8.218a1.24 1.24 0 0 0 1.418 1.386 7.59 7.59 0 0 0 1.972-.318zM6.125 7.632l22.3 44.736L50.86 7.632zm24.942 8.98h2.595V19.2h-2.595zM25.9 27.015h-2.595V24.4H25.9zm0-3.9h-2.595V20.5H25.9zm0-3.9h-2.595V16.6H25.9zm3.918 11.64h-2.624V28.28h2.624zm0-3.9h-2.624V24.4h2.624zm0-3.9h-2.624V20.5h2.624zm0-3.907h-2.624V16.6h2.624zm1.277 1.295H33.7v2.595h-2.624zm0 6.484V24.4H33.7v2.595z"/></svg>