<svg xmlns="http://www.w3.org/2000/svg" width="120" height="60"><path d="M49.82 12.385v18.83l8.727 3.048V9.338L60 8.83l1.454.5v24.925l8.73-3.048v-18.83l2.908 1.015v16.8l8.728-3.047v-13.79l-2.9-1.018v12.737L76 26.103V11.335l-8.728-3.047V29.15l-2.9 1.014V7.27L60 5.747 55.636 7.27v22.893l-2.908-1.014V8.288L44 11.335v14.768l-2.908-1.018V12.348l-2.9 1.018v13.787l8.73 3.047V13.4z" fill="red"/><path d="M23.1 50.798V49.6h-6.867v-2.994h4.448v-1.2h-4.448V42.8h6.633v-1.203H14.9V50.8zm28.226-3.666c0 1.643-1.1 2.732-2.704 2.732-1.57 0-2.55-1.102-2.55-2.732V41.62h-1.33v5.574c0 2.508 1.812 3.876 3.87 3.876 3.044 0 4.033-2.078 4.033-3.876V41.62h-1.318zm8.727-5.536h1.32v9.202h-1.32zm10.562 0h-1.307v9.202h1.32v-7.27l6.542 7.27h1.3v-9.202h-1.316v7.2zm15.855 0h1.32v9.202h-1.32zM99.663 46.7l3.617 4.096h1.83l-4.477-5 3.832-4.22h-1.63l-3.04 3.307-2.96-3.307H95.1l3.696 4.22-4.623 5h1.688zm-66.52-5.477c-2.742.018-4.855 2.094-4.855 5v.036c0 2.877 2.165 4.903 4.887 4.884a5.06 5.06 0 0 0 2.146-.508l.75.863 1.535-.001-1.313-1.505c1.076-.82 1.753-2.17 1.753-3.838v-.036c0-2.86-2.172-4.904-4.903-4.884zm3.528 4.968c0 1.3-.42 2.146-1.188 2.87l-.715-.828-1.532-.003 1.256 1.44c-.307.15-.86.268-1.3.27-1.97.013-3.537-1.577-3.537-3.738l-.001-.034c0-2.2 1.468-3.756 3.45-3.767 1.98-.016 3.558 1.566 3.558 3.753z"/></svg>