<svg xmlns="http://www.w3.org/2000/svg" viewBox="9.14 10.68 120 60" width="120" height="60"><path d="M25.873 36.97l-2.305 7.513h4.58zm3.82 12.067l-.705-2.114h-6.262l-.7 2.114H19.14l5.752-16.592h1.933l5.747 16.592zm37.477 0h2.6V37.984h-2.6zm1.3-16.993a1.92 1.92 0 0 1 1.93 1.923c0 1.045-.865 1.9-1.93 1.9-1.046 0-1.895-.845-1.895-1.9 0-1.075.85-1.923 1.895-1.923zm12.66.4v10.428l4.06-4.9h3.235l-4.606 5.53 4.606 5.522H85.18l-4.06-4.857v4.857h-2.595v-16.6z"/><path d="M101.288 49.036c-.402.067-1.164.14-1.92.14-1.256 0-3.6-.168-3.6-3.883v-5.15h-1.875v-2.16h1.875v-3.33h2.588v3.33h2.55v2.16h-2.55v4.552c0 1.92.6 2.158 1.628 2.158.402 0 1.04-.036 1.302-.096zm15.255-5.52c0-1.896-1.28-3.516-3.3-3.516-1.94 0-3.227 1.62-3.227 3.516s1.286 3.505 3.227 3.505c2 0 3.3-1.6 3.3-3.505m-9.114 0c0-3.128 2.313-5.806 5.824-5.806 3.57 0 5.887 2.678 5.887 5.806 0 3.122-2.318 5.8-5.887 5.8-3.5 0-5.824-2.68-5.824-5.8m-61.243-3.098v-2.434h-7.038v11.052h2.597v-8.618z"/><path d="M59.94 40.418v-2.434h-7.045v11.052H55.5v-8.618z"/></svg>