<?xml version="1.0" encoding="UTF-8" standalone="no"?>
<svg
   xmlns:dc="http://purl.org/dc/elements/1.1/"
   xmlns:cc="http://creativecommons.org/ns#"
   xmlns:rdf="http://www.w3.org/1999/02/22-rdf-syntax-ns#"
   xmlns:svg="http://www.w3.org/2000/svg"
   xmlns="http://www.w3.org/2000/svg"
   xmlns:sodipodi="http://sodipodi.sourceforge.net/DTD/sodipodi-0.dtd"
   xmlns:inkscape="http://www.inkscape.org/namespaces/inkscape"
   version="1.1"
   id="Layer_1"
   x="0px"
   y="0px"
   viewBox="0 0 120 60"
   enable-background="new 0 0 960 560"
   xml:space="preserve"
   sodipodi:docname="gruntjs-ar21.svg"
   inkscape:version="0.92.3 (2405546, 2018-03-11)"
   width="120"
   height="60"><metadata
   id="metadata226"><rdf:RDF><cc:Work
       rdf:about=""><dc:format>image/svg+xml</dc:format><dc:type
         rdf:resource="http://purl.org/dc/dcmitype/StillImage" /><dc:title></dc:title></cc:Work></rdf:RDF></metadata><defs
   id="defs224" /><sodipodi:namedview
   pagecolor="#ffffff"
   bordercolor="#666666"
   borderopacity="1"
   objecttolerance="10"
   gridtolerance="10"
   guidetolerance="10"
   inkscape:pageopacity="0"
   inkscape:pageshadow="2"
   inkscape:window-width="1920"
   inkscape:window-height="1001"
   id="namedview222"
   showgrid="false"
   inkscape:zoom="3.9951533"
   inkscape:cx="115.87924"
   inkscape:cy="65.183554"
   inkscape:window-x="-9"
   inkscape:window-y="-9"
   inkscape:window-maximized="1"
   inkscape:current-layer="Layer_1" />
  <style
   id="style2">
    svg {
  max-height: 75vh;
}
.blink  {
  -webkit-animation: blink 3s infinite ease-out;
}
.eyemovement {
  -webkit-animation: eyemovement 3s infinite ease-out;
}

/*Blink movement*/
@-webkit-keyframes blink {
  0% {
    -webkit-transform: translateY(0px) translateX(0px);
  }
  4% {
    -webkit-transform: translateY(28px) translateX(2px);
  }
  7% {
    -webkit-transform: translateY(28px) translateX(2px);
  }
  15%, 100% {
    -webkit-transform: translateY(0px) translateX(0px);;
  }
}

/*Eye movement*/
@-webkit-keyframes eyemovement {
  0% {
    -webkit-transform: translateY(0px) translateX(0px);
  }
  5% {
    -webkit-transform: translateY(3px) translateX(2px);
  }
  10% {
    -webkit-transform: translateY(3px) translateX(2px);
  }
  20%, 100% {
    -webkit-transform: translateY(0px) translateX(0px);;
  }
}

  </style>

<g
   id="g1145"
   transform="matrix(0.12341438,0,0,0.12341438,0.62929,-4.5560268)"><g
     transform="matrix(0.773686,0,0,0.773686,-200.99037,108.86066)"
     id="grunt-face">
	<path
   style="fill:#fba919"
   inkscape:connector-curvature="0"
   id="path4"
   d="m 331.9,107.5 c 0,0 7.6,29.2 8.7,39 1.1,9.7 -19.5,31.4 -19.5,42.2 0,10.8 4.3,30.3 28.1,40.1 23.8,9.7 27.1,34.6 27.1,49.8 0,15.2 -8.7,44.4 -8.7,44.4 0,0 -5.4,72.5 23.8,85.5 29.2,13 22.7,13 29.2,13 6.5,0 54.1,19.5 82.3,11.9 28.1,-7.6 35.7,-16.2 35.7,-16.2 0,0 28.1,2.2 36.8,-22.7 8.7,-24.9 14.1,-76.8 10.8,-100.7 -3.2,-23.8 -7.6,-55.2 11.9,-66 19.5,-10.8 40.1,-23.8 36.8,-34.6 -3.2,-10.8 -20.6,-26 -20.6,-26 0,0 -4.3,-27.1 -1.1,-33.6 3.2,-6.5 22.7,-22.7 11.9,-34.6 C 614.4,87 594.9,87 594.9,87 L 570,89.2 c 0,0 -42.2,-37.9 -97.4,-35.7 -55.2,2.2 -89.8,35.7 -89.8,35.7 0,0 -18.4,-6.5 -34.6,0 -16.3,6.4 -19.5,-0.1 -16.3,18.3 z"
   class="facecolor" />
	<path
   style="fill:#e78724"
   inkscape:connector-curvature="0"
   id="path6"
   d="m 430.8,268.7 c 0,0 -21.4,32.8 -37.2,56 -2.4,3.6 15.7,3.8 15.7,3.8 z" />
	<path
   style="fill:#e78724"
   inkscape:connector-curvature="0"
   id="path8"
   d="m 441,200.7 c 0,0 -6.5,16.1 -10,24.7 -3.8,9.3 -18.5,13.9 -18.5,13.9 0,0 7.6,-8 7.6,-28.1 0,-8.5 10.9,-11.8 10.9,-11.8 z" />
	<path
   style="fill:#463014"
   inkscape:connector-curvature="0"
   id="path10"
   d="M 438.6,194.9 425.2,194 c 0,0 3.4,6.1 5.7,13.9 2.5,8.9 -2.3,21.8 -2.3,21.8 0,0 17.9,-20.3 10,-34.8 z" />
	<path
   style="fill:#e78724"
   inkscape:connector-curvature="0"
   id="path12"
   d="m 434.5,209.9 c 0,0 -13.2,15.8 -37.8,6.9 -24.6,-8.8 -27.1,-40.3 -27.1,-49.2 0,-8.8 46.6,8.8 53,12.6 6.2,3.8 18.2,18.9 11.9,29.7 z" />
	<path
   style="fill:#e78724"
   inkscape:connector-curvature="0"
   id="path14"
   d="m 341.7,41.5 c 0,0 22.7,-4.4 37.8,7.6 C 394.6,61 399,70.5 399,70.5 l -25.5,20.2 c 0,0 -12.3,-5.7 -16.1,-22.1 -3.8,-16.4 -1.2,-24 -15.7,-27.1 z" />
	<path
   style="fill:#e78724"
   inkscape:connector-curvature="0"
   id="path16"
   d="m 367.3,213.4 c 0,0 -39.8,-13.7 -32.3,-27.6 7.6,-13.9 1.5,-21.4 1.5,-21.4 0,0 -22.2,16.6 -16.5,34.2 3.5,10.8 9.3,18.7 41.4,33.7 15.4,28.6 3.2,80 3.9,80.3 1.2,0.4 21.6,-10.1 20.2,-58.2 -0.4,-14.8 -1.6,-34.9 -18.2,-41 z" />
	<path
   style="fill:#e78724"
   inkscape:connector-curvature="0"
   id="path18"
   d="m 419.5,66.1 c -16.7,8.5 -39.6,20.3 -39.6,20.3 l 9,4.5 c -0.9,1.4 -1.3,2.2 -1.3,2.2 l 9.2,4.2 c 0,0 22.6,16.3 36.4,26.9 -4.6,-14.2 -18.1,-36.5 -18.1,-36.5 0,0 -3.8,-10.2 4.4,-21.6 z" />
	<path
   style="fill:#e78724"
   inkscape:connector-curvature="0"
   id="path20"
   d="m 475,412 c -51.3,0 -68.7,-26.1 -68.7,-26.1 l 8,19.5 c 3,8.5 35.4,34.7 60.6,34.7" />
	<path
   style="fill:#e78724"
   inkscape:connector-curvature="0"
   id="path22"
   d="m 411.9,368.3 c 0,0 4.7,28.9 23.6,28.9 16.1,0 20.8,-24.4 20.8,-29.4 z" />
	<path
   style="fill:#e78724"
   inkscape:connector-curvature="0"
   id="path24"
   d="m 380.4,324.8 c 1.7,-4.6 7.6,-23.3 9.5,-40.3 2.3,-20.4 1.4,-50.2 1.4,-50.2 0,0 -5,19.5 -9.5,22.7 -4.4,3.1 -12.6,24.6 -12.6,24.6 0,0 -4.4,31.9 -6.5,42.6 5.8,1.1 10.7,-2.3 17.7,0.6 z" />
	<path
   style="fill:#e78724"
   inkscape:connector-curvature="0"
   id="path26"
   d="m 334.7,198.3 c 0,0 10.7,-3.8 13.9,-27.1 3.2,-23.3 -3.8,-43.5 -3.8,-43.5 0,0 0.6,32.1 -3.1,38.5 -3.8,6.3 -6.9,8.2 -11.3,16.4 -4.5,8.2 1.8,13.2 4.3,15.7 z" />
	<path
   style="fill:#87ccee"
   inkscape:connector-curvature="0"
   id="path28"
   d="M 391.6,91.2" />
	<path
   style="fill:#fdc168"
   inkscape:connector-curvature="0"
   id="path30"
   d="m 347.5,47 -2.2,-1.4 c -6.4,0.2 2.2,1.4 2.2,1.4 z" />
	<path
   style="fill:#fba919"
   inkscape:connector-curvature="0"
   id="path32"
   d="m 428.2,59.2 c 0,0 -10.1,-1.7 -15.1,-9.2 -5,-7.6 -19.3,-22.7 -42.1,-22.9 -22.8,-0.2 -45.3,6.1 -45.3,6.1 l 19.7,12.4 c 2.1,-0.1 5.7,0 11.7,0.2 24.7,0.8 28.5,25.2 28.5,25.2 l 87,-12"
   class="facecolor" />
	<g
   class="eyemovement"
   id="right-eye">
		<path
   style="fill:#ffffff"
   inkscape:connector-curvature="0"
   id="path34"
   d="m 436.6,194.1 c 0,0 -11.8,11.8 -29.8,8 -18.1,-3.8 -29,-11.8 -29.8,-25.6 -0.8,-13.9 3.8,-19.3 3.8,-19.3 0,0 20.2,6.3 29.8,14.7 9.6,8.3 16.8,21.8 26,22.2 z" />
		<path
   style="fill:#c9c9c9"
   inkscape:connector-curvature="0"
   id="path36"
   d="m 422.4,189.9 c 0,0 -10.2,4.7 -21.6,0.9 -14.9,-5 -15.9,-20.5 -15.9,-20.5 0,0 -9.2,26.9 16.5,32.1 20.6,4.1 32.8,-7.8 32.8,-7.8 z" />
	</g>
	<path
   style="fill:#463014"
   inkscape:connector-curvature="0"
   id="path39"
   d="M 434.1,340.5" />
	<path
   style="fill:#463014"
   inkscape:connector-curvature="0"
   d="m 429.6,53.5 c -1.1,-23.1 17.8,-41.4 24.4,-42.2 0.4,3.9 -0.4,19.1 6.2,23.8 C 462.1,22.7 468.5,9 494,0 c -5.5,14.5 -0.7,26.6 1.5,32.2 17.4,-15.8 29.1,-13.2 29.1,-13.2 0,0 -12.1,20.8 -7.4,34.5 -34.9,-2.7 -87.4,3.7 -87.6,0 z"
   id="hair" />
	<path
   style="fill:#463014"
   inkscape:connector-curvature="0"
   id="path42"
   d="m 355.7,88.6 c -8.3,-6.9 -2.1,-13.3 -2.8,-21.2 -0.4,-4.2 -0.7,-8.1 -2.1,-10.3 C 343.1,45 325.1,41.3 324.9,41.3 L 316.4,39.6 322,33 c 0.7,-0.8 23.8,-22.8 59.5,-11.3 25,8.1 43.4,35.3 44.1,36.5 l -12.5,5.9 C 413,63.9 398.3,38.2 376.9,31.3 359.6,25.7 343.6,31 336.8,34.5 c 7.3,2.9 16.8,8.2 22.5,17.2 2.7,4.3 3.2,9.6 3.6,14.8 0.6,6.9 1.1,13.4 6.2,17.6 z" />
	<path
   style="fill:#463014"
   inkscape:connector-curvature="0"
   id="path44"
   d="m 333.4,189.5 c 0,0 10.5,-13 13.6,-38.3 1.2,-10 -0.9,-29.6 -4.4,-37.2 0.6,18.6 -4.1,37.2 -4.1,37.2 0,0 -3.2,34.5 -5.1,38.3 z" />
	<path
   style="fill:#463014"
   inkscape:connector-curvature="0"
   id="path46"
   d="m 388.7,75.5 c 0,0 -3.4,-14.7 -12.7,-22.1 -13.1,-10.5 -29.2,-4.9 -29.3,-4.8 l -2.3,-7.2 c 0.8,-0.3 19.1,-6 36,5.8 17,11.9 19,22.8 19.2,24 z" />
	<path
   style="fill:#463014"
   inkscape:connector-curvature="0"
   id="path48"
   d="m 366.4,180.1 c 0,0 -5.5,-7.9 -4.5,-16.5 0.5,-4.3 2.5,-8.7 6,-10.2 6.6,-2.9 9.5,4.6 9.5,4.6 0,0 -9.3,2.2 -11,22.1 z" />
	<path
   style="fill:#463014"
   inkscape:connector-curvature="0"
   id="path50"
   d="M 434.1,340.5" />
	<path
   style="fill:#463014"
   inkscape:connector-curvature="0"
   id="path52"
   d="m 426.8,192.1 c 0.2,0.4 0.3,0.7 0.3,0.7 0,0 -17.2,12.9 -34.7,-0.2 -9.4,-7 -8.5,-24.3 -5.6,-31.7 7.5,1.7 13.9,4.8 19.2,8.3 -6.7,-6 -12.6,-10.4 -12.6,-10.5 l -7.6,-2.2 -14.8,-5.1 c -0.2,1.1 -5.6,26.5 10,43.8 6.9,7.7 39.4,24.8 54.8,-4.5 z" />
	<g
   class="blink"
   id="right-eyebrow">
		<polyline
   style="fill:#fba919"
   id="polyline54"
   points="472.6,173.7 472,164.8 407.3,130.7 380.4,109.1 349.4,141.6 449.4,188.9 467.5,194.4   "
   class="facecolor" />
		<path
   style="fill:#e78724"
   inkscape:connector-curvature="0"
   id="path56"
   d="m 427.9,164.3 c -9.8,-13.9 -25.9,-19.9 -38.7,-20.9 -21.9,-1.7 -32.3,6 -32.3,6 0,0 35.9,1.5 46.2,15.1 19.3,25.3 47.4,27.3 51.9,21.8 -5.2,0.3 -10.9,-2.3 -17,-8.1 -3.9,-3.6 -7,-9.5 -10.1,-13.9 z" />
		<path
   style="fill:#463014"
   inkscape:connector-curvature="0"
   id="path58"
   d="m 425.2,194 c 9.7,14.7 34,6.3 33.6,-9.2 0,0 -16.3,9 -30.7,-7.6 -8.4,-9.7 -35.3,-36.3 -71.8,-27.5 25.2,5.6 58.6,28.6 68.9,44.3 z" />
	</g>
	<g
   id="g63">
		<path
   style="fill:#463014"
   inkscape:connector-curvature="0"
   id="path61"
   d="M 434.1,340.5" />
	</g>
	<path
   style="fill:#463014"
   inkscape:connector-curvature="0"
   id="path65"
   d="m 352.9,235.5 c 2.3,1.3 10.5,9.8 10.5,22.5 0,6.4 -0.6,38.4 -3.8,57.9 4.7,3.1 8,3.7 12.8,6.9 2.4,-22.6 4.1,-55.4 3.3,-68.7 -0.9,-15.1 -9,-25.2 -16.5,-29.5 -2.3,-1.3 -4.8,-2.7 -7.3,-4 -12.8,-6.9 -26.1,-14.1 -26.1,-26.4 0,-9.6 3.7,-12.6 7.7,-15.8 l 0.4,-0.3 c 2.6,-2.1 5.6,-4.5 7.3,-8.5 4.8,-10.8 5.6,-38.2 0,-45.2 -2.8,-3.5 -10.2,-15.1 -8.1,-23 0.8,-3 2.7,-5.2 5.8,-6.8 3.2,-1.7 7.6,-2.5 13,-2.5 10.6,0 22.4,3.2 28.4,5.2 21.7,6.9 47.9,26.7 55.4,32.6 0.2,0.2 0.3,0.3 0.4,0.3 l 4.8,3.3 -3,-5 c -0.2,-0.3 -19.2,-31.6 -53.2,-43 -6.6,-2.2 -19.6,-6 -32.4,-6 -7.6,0 -14.1,1.3 -19.2,3.9 -6.2,3.2 -10.4,8.3 -12.2,14.7 -4.3,15.7 9.7,33.3 10.2,33.8 1.6,2.9 2.3,24 -1.4,32.5 -0.5,1.2 -1.9,2.3 -3.7,3.8 -0.6,0.5 -1.2,0.9 -1.9,1.4 -5.3,4 -13.3,10.1 -13.3,24 0,19.1 19.4,29.5 34.9,37.8 2.5,1.6 5,2.9 7.2,4.1 z" />
	<g
   id="g75">
		<g
   id="g69">
			<path
   style="fill:#463014"
   inkscape:connector-curvature="0"
   id="path67"
   d="m 355.7,88.6 c -8.3,-6.9 -2.1,-13.3 -2.8,-21.2 -0.4,-4.2 -0.7,-8.1 -2.1,-10.3 C 343.1,45 325.1,41.3 324.9,41.3 L 316.4,39.6 322,33 c 0.7,-0.8 23.8,-22.8 59.5,-11.3 25,8.1 43.4,35.3 44.1,36.5 l -12.5,5.9 C 413,63.9 398.3,38.2 376.9,31.3 359.6,25.7 343.6,31 336.8,34.5 c 7.3,2.9 16.8,8.2 22.5,17.2 2.7,4.3 3.2,9.6 3.6,14.8 0.6,6.9 1.1,13.4 6.2,17.6 z" />
		</g>
		<g
   id="g73">
			<path
   style="fill:#463014"
   inkscape:connector-curvature="0"
   id="path71"
   d="m 355.4,90.1 -0.5,-0.4 c -6.2,-5.1 -5.1,-10.2 -4,-15.1 0.5,-2.3 1,-4.6 0.8,-7 -0.3,-4 -0.7,-7.8 -1.9,-9.7 -7.3,-11.5 -24.9,-15.2 -25.1,-15.2 l -10.6,-2.1 7,-8.2 c 0.1,-0.2 14.9,-15.1 40,-15.1 6.8,0 13.8,1.1 20.8,3.4 26.1,8.4 44.6,36.7 44.8,37 l 0.8,1.2 -14.8,7 -0.6,-0.9 c -1.6,-2.7 -15.6,-25.9 -35.5,-32.3 -4.9,-1.6 -10,-2.4 -15.3,-2.4 -9.5,0 -17.2,2.6 -21.3,4.3 6.9,3.1 15.2,8.3 20.4,16.6 2.9,4.5 3.3,10.1 3.8,15.4 0.6,6.6 1.1,12.9 5.7,16.8 l 1.8,1.5 z" />
		</g>
	</g>
	<g
   id="g85">
		<g
   id="g79">
			<path
   style="fill:#463014"
   inkscape:connector-curvature="0"
   id="path77"
   d="m 388.7,75.5 c 0,0 -3.4,-14.7 -12.7,-22.1 -13.1,-10.5 -29.2,-4.9 -29.3,-4.8 l -2.3,-7.2 c 0.8,-0.3 19.1,-6 36,5.8 17,11.9 19,22.8 19.2,24 z" />
		</g>
		<g
   id="g83">
			<path
   style="fill:#463014"
   inkscape:connector-curvature="0"
   id="path81"
   d="m 387.8,77.2 -0.3,-1.4 c 0,-0.1 -3.3,-14.3 -12.2,-21.4 -5.1,-4 -11.2,-6.1 -18.2,-6.1 -5.5,0 -9.5,1.3 -10,1.5 l -1.2,0.4 -3.1,-9.6 1.2,-0.4 c 0.5,-0.2 5.4,-1.7 12.3,-1.7 9.1,0 17.7,2.7 24.8,7.7 17.4,12.2 19.6,23.6 19.7,24.8 l 0.2,1 z M 357.1,45.8 c 7.5,0 14.3,2.3 19.8,6.6 7.9,6.3 11.6,17.4 12.8,21.4 l 8.6,-3.4 C 397.5,67.4 394.1,58.3 379.8,48.2 373,43.4 365.1,41 356.4,41 c -4.8,0 -8.5,0.8 -10.3,1.2 l 1.5,4.8 c 1.7,-0.5 5.2,-1.2 9.5,-1.2 z" />
		</g>
	</g>
	<path
   style="fill:#463014"
   inkscape:connector-curvature="0"
   id="path87"
   d="m 434.7,390.3 v 0 c -3.7,0 -7.5,-1.4 -10.2,-3.6 -2,-1.7 -8.8,-8 -11.8,-15.7 -1.1,-2.9 -0.9,-5.2 0.8,-6.8 1.1,-1.1 3.5,-2.5 8.2,-2.5 h 3.4 c 4,0 10.8,0 16.5,0 h 5.5 c 3.6,0 6.2,0.8 7.7,2.3 1.9,2 1.3,4.4 0.8,5.8 -0.9,2.3 -4.8,9.8 -11.3,16.7 -2.4,2.4 -5.8,3.8 -9.6,3.8 z" />
	<g
   id="g91">
		<path
   style="fill:#463014"
   inkscape:connector-curvature="0"
   id="path89"
   d="m 421.8,425.8 c -47.9,-3.7 -64.7,-48.9 -64.7,-58.3 h 12.5 -6.2 6.2 c 0.1,4.1 12.8,42.8 53.2,45.9 z" />
	</g>
	<path
   style="fill:#ffffff"
   inkscape:connector-curvature="0"
   id="path93"
   d="m 408.4,344.7 c -0.7,-4.3 -0.8,-8.4 0.1,-12.5 -3.6,-2.7 -10.2,-3.7 -15.1,-5.3 -4,-2.5 -24.5,2.6 -39.4,-15.4 -18.6,-22.5 -14.7,-36 -14.7,-36 -4.8,5.3 -9.4,3.3 -16.7,28 -7.3,24.7 3.4,42 23.4,59.3 9.4,8.2 22.8,11.6 34.2,12.8 -3.8,-3.9 6.6,-4.2 13.7,-6.9 -0.6,-5.8 0.4,-11.4 4.7,-15.9 2.6,-2.7 6,-4.4 9.4,-5.7 0.2,-0.4 0.4,-0.9 0.5,-1.3 0.1,-0.2 0,-0.6 -0.1,-1.1 z" />
	<path
   style="fill:#c9c9c9"
   inkscape:connector-curvature="0"
   id="path95"
   d="m 393.9,368.7 c -0.4,-1.2 -0.7,-2.5 -1,-3.7 -0.3,-1.4 -2,-5.2 0.1,-0.8 -0.5,-1.1 -0.9,-2.3 -1.1,-3.5 -32.3,0 -60.5,-22.2 -55,-68.9 -4.2,-5.6 -10.2,11.3 -10.2,11.3 0,0 -16.2,47 25.6,65.2 13.9,6.1 26.2,10.4 29.1,8.7 6,1.2 11.5,-3 13.6,-5.8 -0.4,-0.8 -0.8,-1.6 -1.1,-2.5 z" />
	<path
   style="fill:#463014"
   inkscape:connector-curvature="0"
   id="path97"
   d="m 407.8,338 c 0,-3.9 0.9,-7.8 2.8,-11.6 0.1,-0.3 0.3,-0.5 0.4,-0.8 -12.4,-0.1 -26.8,-1.3 -39,-6.2 -13.4,-5.4 -30.2,-23.7 -33.1,-45.3 0,0 -25.3,19.5 -17.8,61.2 7,39.2 39.7,51.9 77.1,54.1 0,-0.3 -4.2,-9 -2.9,-14.3 -21.2,1.5 -45,-6.7 -56.4,-25.5 -10.5,-17.3 -7.5,-46.7 -3.2,-51 10.5,33.2 48.4,39.9 72.1,39.4 z" />
	<path
   style="fill:#463014"
   inkscape:connector-curvature="0"
   id="path99"
   d="M 475,389.4" />
	<path
   style="fill:#463014"
   inkscape:connector-curvature="0"
   id="path101"
   d="m 411.7,314.2 c -6.7,19.7 -20.5,35.7 -20.5,35.7 0,0 18.9,-0.9 19.9,-4.2 0.8,-2.5 17.1,-40.6 23.3,-85.3 -5.8,9.7 -22.1,52.1 -22.7,53.8 z" />
	<path
   style="fill:#e78724"
   inkscape:connector-curvature="0"
   id="path103"
   d="m 518.8,268.7 c 0,0 21.4,32.8 37.2,56 2.4,3.6 -15.7,3.8 -15.7,3.8 z" />
	<path
   style="fill:#e78724"
   inkscape:connector-curvature="0"
   id="path105"
   d="m 508.6,200.7 c 0,0 6.5,16.1 10,24.7 3.8,9.3 18.5,13.9 18.5,13.9 0,0 -7.6,-8 -7.6,-28.1 0,-8.5 -10.9,-11.8 -10.9,-11.8 z" />
	<path
   style="fill:#e78724"
   inkscape:connector-curvature="0"
   id="path107"
   d="m 515.1,209.9 c 0,0 13.2,15.8 37.8,6.9 24.6,-8.8 27.1,-40.3 27.1,-49.2 0,-8.8 -46.6,8.8 -53,12.6 -6.2,3.8 -18.2,18.9 -11.9,29.7 z" />
	<path
   style="fill:#463014"
   inkscape:connector-curvature="0"
   id="path109"
   d="m 511,194.9 13.4,-0.9 c 0,0 -3.4,6.1 -5.7,13.9 -2.5,8.9 2.3,21.8 2.3,21.8 0,0 -17.8,-20.3 -10,-34.8 z" />
	<path
   style="fill:#e78724"
   inkscape:connector-curvature="0"
   id="path111"
   d="m 608,41.5 c 0,0 -22.7,-4.4 -37.8,7.6 -15.1,12 -19.5,21.4 -19.5,21.4 l 25.5,20.2 c 0,0 12.3,-5.7 16.1,-22.1 3.7,-16.4 1.2,-24 15.7,-27.1 z" />
	<path
   style="fill:#e78724"
   inkscape:connector-curvature="0"
   id="path113"
   d="m 582.4,213.4 c 0,0 39.8,-13.7 32.3,-27.6 -7.6,-13.9 -1.5,-21.4 -1.5,-21.4 0,0 22.2,16.6 16.6,34.2 -3.5,10.8 -9.3,18.7 -41.4,33.7 -15.4,28.6 -3.2,80 -3.9,80.3 -1.2,0.4 -21.6,-10.1 -20.2,-58.2 0.2,-14.8 1.4,-34.9 18.1,-41 z" />
	<path
   style="fill:#e78724"
   inkscape:connector-curvature="0"
   id="path115"
   d="m 530.2,66.1 c 16.7,8.5 39.6,20.3 39.6,20.3 l -9,4.5 c 0.9,1.4 1.3,2.2 1.3,2.2 l -9.2,4.2 c 0,0 -22.6,16.3 -36.4,26.9 4.6,-14.2 18.1,-36.5 18.1,-36.5 0,0 3.8,-10.2 -4.4,-21.6 z" />
	<path
   style="fill:#e78724"
   inkscape:connector-curvature="0"
   id="path117"
   d="m 474.7,412 c 51.3,0 68.7,-26.1 68.7,-26.1 l -8,19.5 c -3,8.5 -35.4,34.7 -60.6,34.7" />
	<path
   style="fill:#e78724"
   inkscape:connector-curvature="0"
   id="path119"
   d="m 537.8,368.3 c 0,0 -4.7,28.9 -23.6,28.9 -16.1,0 -20.8,-24.4 -20.8,-29.4 z" />
	<path
   style="fill:#e78724"
   inkscape:connector-curvature="0"
   id="path121"
   d="m 569.3,324.8 c -1.7,-4.6 -7.6,-23.3 -9.5,-40.3 -2.3,-20.4 -1.4,-50.2 -1.4,-50.2 0,0 5,19.5 9.5,22.7 4.4,3.1 12.6,24.6 12.6,24.6 0,0 4.4,31.9 6.5,42.6 -5.9,1.1 -10.7,-2.3 -17.7,0.6 z" />
	<path
   style="fill:#e78724"
   inkscape:connector-curvature="0"
   id="path123"
   d="m 614.9,198.3 c 0,0 -10.7,-3.8 -13.9,-27.1 -3.1,-23.3 3.8,-43.5 3.8,-43.5 0,0 -0.6,32.1 3.1,38.5 3.8,6.3 6.9,8.2 11.3,16.4 4.5,8.2 -1.8,13.2 -4.3,15.7 z" />
	<path
   style="fill:#87ccee"
   inkscape:connector-curvature="0"
   id="path125"
   d="M 558.1,91.2" />
	<path
   style="fill:#fdc168"
   inkscape:connector-curvature="0"
   id="path127"
   d="m 602.1,47 2.2,-1.4 c 6.5,0.2 -2.2,1.4 -2.2,1.4 z" />
	<path
   style="fill:#fba919"
   inkscape:connector-curvature="0"
   id="path129"
   d="m 521.4,59.2 c 0,0 10.1,-1.7 15.1,-9.2 5,-7.6 19.3,-22.7 42.1,-22.9 22.8,-0.2 45.3,6.1 45.3,6.1 l -19.7,12.4 c -2.1,-0.1 -5.7,0 -11.7,0.2 C 567.9,46.6 564.1,71 564.1,71 l -87,-12"
   class="facecolor" />
	<g
   class="eyemovement"
   id="left-eye">
		<path
   style="fill:#ffffff"
   inkscape:connector-curvature="0"
   id="path131"
   d="m 513,194.1 c 0,0 11.8,11.8 29.8,8 18.1,-3.8 29,-11.8 29.8,-25.6 0.8,-13.9 -3.8,-19.3 -3.8,-19.3 0,0 -20.2,6.3 -29.8,14.7 -9.6,8.3 -16.7,21.8 -26,22.2 z" />
		<path
   style="fill:#c9c9c9"
   inkscape:connector-curvature="0"
   id="path133"
   d="m 527.3,189.9 c 0,0 10.2,4.7 21.6,0.9 14.9,-5 15.9,-20.5 15.9,-20.5 0,0 9.2,26.9 -16.5,32.1 -20.6,4.1 -32.8,-7.8 -32.8,-7.8 z" />
	</g>
	<path
   style="fill:#463014"
   inkscape:connector-curvature="0"
   id="path136"
   d="M 515.5,340.5" />
	<path
   style="fill:#463014"
   inkscape:connector-curvature="0"
   id="path138"
   d="m 594,88.6 c 8.3,-6.9 2.1,-13.3 2.8,-21.2 0.4,-4.2 0.7,-8.1 2.1,-10.3 7.7,-12.1 25.7,-15.8 25.9,-15.8 l 8.5,-1.7 -5.6,-6.6 C 627,32.2 603.9,10.2 568.2,21.7 543.2,29.8 524.8,57 524.1,58.2 l 12.5,5.9 c 0.2,-0.2 14.8,-25.9 36.2,-32.8 17.3,-5.6 33.3,-0.3 40.1,3.2 -7.3,2.9 -16.8,8.2 -22.5,17.2 -2.7,4.3 -3.2,9.6 -3.6,14.8 -0.6,6.9 -1.1,13.4 -6.2,17.6 z" />
	<path
   style="fill:#463014"
   inkscape:connector-curvature="0"
   id="path140"
   d="m 616.2,189.5 c 0,0 -10.5,-13 -13.6,-38.3 -1.2,-10 0.9,-29.6 4.4,-37.2 -0.6,18.6 4.1,37.2 4.1,37.2 0,0 3.2,34.5 5.1,38.3 z" />
	<path
   style="fill:#463014"
   inkscape:connector-curvature="0"
   id="path142"
   d="m 560.9,75.5 c 0,0 3.4,-14.7 12.7,-22.1 13.1,-10.5 29.2,-4.9 29.3,-4.8 l 2.3,-7.2 c -0.8,-0.3 -19.1,-6 -36,5.8 -17,11.9 -19,22.8 -19.2,24 z" />
	<path
   style="fill:#463014"
   inkscape:connector-curvature="0"
   id="path144"
   d="m 583.3,180.1 c 0,0 5.5,-7.9 4.5,-16.5 -0.5,-4.3 -2.5,-8.7 -6,-10.2 -6.6,-2.9 -9.5,4.6 -9.5,4.6 0,0 9.2,2.2 11,22.1 z" />
	<path
   style="fill:#463014"
   inkscape:connector-curvature="0"
   id="path146"
   d="M 515.5,340.5" />
	<path
   style="fill:#463014"
   inkscape:connector-curvature="0"
   id="path148"
   d="m 522.9,192.1 c -0.2,0.4 -0.3,0.7 -0.3,0.7 0,0 17.2,12.9 34.7,-0.2 9.4,-7 8.5,-24.3 5.6,-31.7 -7.5,1.7 -13.9,4.8 -19.2,8.3 6.7,-6 12.6,-10.4 12.6,-10.5 l 7.6,-2.2 14.8,-5.1 c 0.2,1.1 5.6,26.5 -10,43.8 -6.9,7.7 -39.4,24.8 -54.8,-4.5 z" />
	<g
   class="blink"
   id="left-eyebrow">
		<polyline
   style="fill:#fba919"
   id="polyline150"
   points="490.9,184.8 498.4,189.5 564,157.1 597.3,148 589.2,103.8 492.2,157.1 477.1,168.5   "
   class="facecolor" />
		<path
   style="fill:#e78724"
   inkscape:connector-curvature="0"
   id="path152"
   d="m 521.8,164.3 c 9.8,-13.9 25.9,-19.9 38.7,-20.9 21.9,-1.7 32.3,6 32.3,6 0,0 -35.9,1.5 -46.2,15.1 -19.3,25.3 -47.4,27.3 -51.8,21.8 5.2,0.3 10.9,-2.3 17,-8.1 3.8,-3.6 6.9,-9.5 10,-13.9 z" />
		<path
   style="fill:#463014"
   inkscape:connector-curvature="0"
   id="path154"
   d="m 524.5,194 c -9.7,14.7 -34,6.3 -33.6,-9.2 0,0 16.3,9 30.7,-7.6 8.4,-9.7 35.3,-36.3 71.8,-27.5 -25.2,5.6 -58.6,28.6 -68.9,44.3 z" />
	</g>
	<g
   id="g159">
		<path
   style="fill:#463014"
   inkscape:connector-curvature="0"
   id="path157"
   d="M 515.5,340.5" />
	</g>
	<path
   style="fill:#463014"
   inkscape:connector-curvature="0"
   id="path161"
   d="m 596.8,235.5 c -2.3,1.3 -10.5,9.8 -10.5,22.5 0,6.4 0.6,38.4 3.8,57.9 -4.7,3.1 -8,3.7 -12.8,6.9 -2.4,-22.6 -4.1,-55.4 -3.3,-68.7 0.9,-15.1 9,-25.2 16.5,-29.5 2.3,-1.3 4.8,-2.7 7.3,-4 12.8,-6.9 26.1,-14.1 26.1,-26.4 0,-9.6 -3.7,-12.6 -7.7,-15.8 l -0.4,-0.3 c -2.6,-2.1 -5.6,-4.5 -7.3,-8.5 -4.8,-10.8 -5.6,-38.2 0,-45.2 2.8,-3.5 10.2,-15.1 8.1,-23 -0.8,-3 -2.7,-5.2 -5.8,-6.8 -3.2,-1.7 -7.6,-2.5 -13,-2.5 -10.6,0 -22.4,3.2 -28.4,5.2 -21.7,6.9 -47.9,26.7 -55.4,32.6 -0.2,0.2 -0.3,0.3 -0.4,0.3 l -4.8,3.3 3,-5 c 0.2,-0.3 19.2,-31.6 53.2,-43 6.6,-2.2 19.6,-6 32.4,-6 7.6,0 14,1.3 19.2,3.9 6.2,3.2 10.4,8.3 12.2,14.7 4.3,15.7 -9.7,33.3 -10.2,33.8 -1.6,2.9 -2.3,24 1.4,32.5 0.5,1.2 1.9,2.3 3.7,3.8 0.6,0.5 1.2,0.9 1.9,1.4 5.3,4 13.3,10.1 13.3,24 0,19.1 -19.4,29.5 -34.9,37.8 -2.6,1.6 -5,2.9 -7.2,4.1 z" />
	<path
   style="fill:#463014"
   inkscape:connector-curvature="0"
   id="path163"
   d="M 573.7,86.4 C 570.6,81.2 562.7,71.1 544.6,62.3 524.3,52.4 500.9,47.4 474.9,47.4 v 0 c 0,0 0,0 -0.1,0 v 0 0 c -26,0 -49.5,5 -69.7,14.9 -18.2,8.9 -26,18.9 -29.1,24.1 l -1.3,1.8 15.5,3.5 0.5,-0.6 0.3,-0.6 c 0.2,-1 2.3,-6.6 19.7,-15 18.5,-9 40.1,-13.6 64.2,-13.6 24.1,0 45.7,4.6 64.2,13.6 17.3,8.5 19.4,14 19.7,15 l 0.2,0.5 0.5,0.6 15.6,-3.5 z" />
	<g
   id="g173">
		<g
   id="g167">
			<path
   style="fill:#463014"
   inkscape:connector-curvature="0"
   id="path165"
   d="m 594,88.6 c 8.3,-6.9 2.1,-13.3 2.8,-21.2 0.4,-4.2 0.7,-8.1 2.1,-10.3 7.7,-12.1 25.7,-15.8 25.9,-15.8 l 8.5,-1.7 -5.6,-6.6 C 627,32.2 603.9,10.2 568.2,21.7 543.2,29.8 524.8,57 524.1,58.2 l 12.5,5.9 c 0.2,-0.2 14.8,-25.9 36.2,-32.8 17.3,-5.6 33.3,-0.3 40.1,3.2 -7.3,2.9 -16.8,8.2 -22.5,17.2 -2.7,4.3 -3.2,9.6 -3.6,14.8 -0.6,6.9 -1.1,13.4 -6.2,17.6 z" />
		</g>
		<g
   id="g171">
			<path
   style="fill:#463014"
   inkscape:connector-curvature="0"
   id="path169"
   d="m 578,84.7 1.8,-1.5 c 4.7,-3.9 5.2,-10.1 5.7,-16.8 0.5,-5.3 0.9,-10.9 3.8,-15.4 5.3,-8.3 13.6,-13.5 20.4,-16.6 -4.1,-1.7 -11.8,-4.3 -21.3,-4.3 -5.3,0 -10.4,0.8 -15.3,2.4 -19.9,6.4 -33.9,29.6 -35.5,32.3 l -0.6,0.9 -14.8,-7 0.8,-1.2 c 0.2,-0.3 18.8,-28.6 44.8,-37 7,-2.3 14,-3.4 20.8,-3.4 25.1,0 39.9,14.9 40,15.1 l 7,8.2 -10.6,2.2 c -0.2,0 -17.8,3.7 -25.1,15.2 -1.2,1.9 -1.5,5.7 -1.9,9.7 -0.2,2.4 0.3,4.7 0.8,7 1.1,4.9 2.2,9.9 -4,15.1 l -0.5,0.4 z" />
		</g>
	</g>
	<g
   id="g183">
		<g
   id="g177">
			<path
   style="fill:#463014"
   inkscape:connector-curvature="0"
   id="path175"
   d="m 560.9,75.5 c 0,0 3.4,-14.7 12.7,-22.1 13.1,-10.5 29.2,-4.9 29.3,-4.8 l 2.3,-7.2 c -0.8,-0.3 -19.1,-6 -36,5.8 -17,11.9 -19,22.8 -19.2,24 z" />
		</g>
		<g
   id="g181">
			<path
   style="fill:#463014"
   inkscape:connector-curvature="0"
   id="path179"
   d="m 548.6,72 0.1,-1 c 0.2,-1.2 2.3,-12.6 19.7,-24.8 7.2,-5 15.8,-7.7 24.8,-7.7 6.9,0 11.8,1.5 12.3,1.7 l 1.2,0.4 -3.1,9.6 -1.2,-0.4 c -0.5,-0.2 -4.5,-1.5 -10,-1.5 -7,0 -13.1,2.1 -18.2,6.1 -8.9,7.1 -12.2,21.3 -12.2,21.4 l -0.3,1.4 z m 53.5,-25 1.6,-4.8 c -1.8,-0.5 -5.5,-1.2 -10.3,-1.2 -8.7,0 -16.6,2.4 -23.4,7.2 -14.3,10.1 -17.7,19.1 -18.5,22.2 l 8.6,3.4 c 1.1,-4 4.8,-15.1 12.8,-21.4 5.5,-4.3 12.3,-6.6 19.8,-6.6 4.2,0 7.6,0.7 9.4,1.2 z" />
		</g>
	</g>
	<path
   style="fill:#463014"
   inkscape:connector-curvature="0"
   id="path185"
   d="m 505.4,386.4 c -6.5,-6.9 -10.3,-14.4 -11.3,-16.7 -0.5,-1.3 -1.1,-3.8 0.8,-5.8 1.5,-1.5 4.1,-2.3 7.7,-2.3 h 5.5 c 5.8,0 12.5,0 16.5,0 h 3.4 c 4.7,0 7.1,1.4 8.2,2.5 1.6,1.6 1.9,3.9 0.8,6.8 -3,7.7 -9.8,13.9 -11.8,15.7 -2.6,2.3 -6.4,3.6 -10.2,3.6 v 0 c -3.9,0.1 -7.3,-1.3 -9.6,-3.8 z" />
	<path
   style="fill:#e78724"
   inkscape:connector-curvature="0"
   id="path187"
   d="m 474.8,146.9 c -8.6,0 -19.7,-0.2 -28.1,-6.3 0,0 11,19.2 28.1,19.2 v -2.4 2.4 c 17.1,0 28.1,-19.2 28.1,-19.2 -8.3,6 -19.5,6.3 -28.1,6.3 z" />
	<path
   style="fill:#463014"
   inkscape:connector-curvature="0"
   id="path189"
   d="m 498.4,146.8 c -8.6,5.2 -16.3,7 -23.6,7.2 -7.3,-0.2 -15,-2 -23.6,-7.2 0,0 12.5,15.3 23.5,15.4 v 0 c 0,0 0,0 0.1,0 0,0 0,0 0.1,0 v 0 c 11,-0.1 23.5,-15.4 23.5,-15.4 z" />
	<g
   id="g193">
		<path
   style="fill:#463014"
   inkscape:connector-curvature="0"
   id="path191"
   d="m 527.8,425.8 -1,-12.5 c 40.4,-3.1 53.1,-41.8 53.2,-45.9 h 12.5 c 0,9.5 -16.8,54.7 -64.7,58.4 z" />
	</g>
	<path
   style="fill:#ffffff"
   inkscape:connector-curvature="0"
   id="path195"
   d="m 541.3,344.7 c 0.8,-4.3 0.8,-8.4 -0.1,-12.5 3.6,-2.7 10.2,-3.7 15.1,-5.3 4,-2.5 24.5,2.6 39.4,-15.4 18.6,-22.5 14.7,-36 14.7,-36 4.8,5.3 9.4,3.3 16.7,28 7.3,24.7 -3.4,42 -23.4,59.3 -9.4,8.2 -22.8,11.6 -34.2,12.8 3.8,-3.9 -6.6,-4.2 -13.7,-6.9 0.6,-5.8 -0.4,-11.4 -4.7,-15.9 -2.6,-2.7 -6,-4.4 -9.4,-5.7 -0.2,-0.4 -0.4,-0.9 -0.5,-1.3 -0.1,-0.2 0,-0.6 0.1,-1.1 z" />
	<path
   style="fill:#c9c9c9"
   inkscape:connector-curvature="0"
   id="path197"
   d="m 555.7,368.7 c 0.4,-1.2 0.7,-2.5 1,-3.7 0.3,-1.4 2,-5.2 -0.1,-0.8 0.5,-1.1 0.9,-2.3 1.1,-3.5 32.3,0 60.5,-22.2 55,-68.9 4.2,-5.6 10.2,11.3 10.2,11.3 0,0 16.2,47 -25.6,65.2 -13.9,6.1 -26.2,10.4 -29.1,8.7 -6.1,1.2 -11.5,-3 -13.6,-5.8 0.5,-0.8 0.8,-1.6 1.1,-2.5 z" />
	<path
   style="fill:#463014"
   inkscape:connector-curvature="0"
   id="path199"
   d="m 541.8,338 c 0,-3.9 -0.9,-7.8 -2.8,-11.6 -0.1,-0.3 -0.3,-0.5 -0.4,-0.8 12.4,-0.1 26.8,-1.3 39,-6.2 13.4,-5.4 30.2,-23.7 33.1,-45.3 0,0 25.3,19.5 17.8,61.2 -7,39.2 -39.8,51.9 -77.1,54.1 0,-0.3 4.2,-9 2.9,-14.3 21.2,1.5 45,-6.7 56.4,-25.5 10.5,-17.3 7.5,-46.7 3.2,-51 -10.5,33.2 -48.3,39.9 -72.1,39.4 z" />
	<g
   id="g205">
		<path
   style="fill:#463014"
   inkscape:connector-curvature="0"
   id="path201"
   d="M 474.7,389.4" />
		<path
   style="fill:#463014"
   inkscape:connector-curvature="0"
   id="path203"
   d="m 556.9,347.8 c -4.5,-4.8 -12.7,-10.6 -31.6,-10.6 0,0 -35.9,0 -50.4,0 v 0 c 0,0 0,0 -0.1,0 0,0 0,0 -0.1,0 v 0 c -14.5,0 -50.4,0 -50.4,0 -18.9,0 -27.1,5.8 -31.6,10.6 -6.5,7 -7.5,16.8 -3,29 12,32.5 28.8,65.6 85.1,65.6 v 0 c 0,0 0,0 0.1,0 0,0 0,0 0.1,0 v 0 c 56.3,0 73.1,-33.1 85.1,-65.6 4.4,-12.2 3.4,-22 -3.2,-29 z m -8.7,26.7 c -5.7,16.3 -21,55.9 -73.4,55.9 -52.3,-0.1 -67.7,-39.6 -73.4,-55.9 -3.2,-9.1 -2.9,-15.8 0.7,-19.9 2.5,-2.8 8.2,-6.2 21.3,-6.2 H 437 c 10.1,0 22.7,0 37.7,0 15,0 27.6,0 37.7,0 H 526 c 13.1,0 18.8,3.4 21.3,6.2 3.8,4.2 4,10.9 0.9,19.9 z" />
	</g>
	<path
   style="fill:#463014"
   inkscape:connector-curvature="0"
   id="path207"
   d="m 537.9,314.2 c 6.7,19.7 20.5,35.7 20.5,35.7 0,0 -18.9,-0.9 -19.9,-4.2 -0.8,-2.5 -17.1,-40.6 -23.3,-85.3 5.8,9.7 22.2,52.1 22.7,53.8 z" />
</g><g
     transform="matrix(1.2951965,0,0,1.2951965,1.4739026,-383.85297)"
     id="text">
	<path
   style="fill:#463014"
   inkscape:connector-curvature="0"
   id="path210"
   d="m 324.5,472.5 c -2.5,-1.5 -5.3,-2.9 -8.4,-4 -3,-1.1 -6.4,-2 -9.9,-2.6 -3.6,-0.6 -7.4,-0.9 -11.5,-0.9 -7.8,0 -15.1,1.2 -21.4,3.5 -6.4,2.3 -12,5.6 -16.5,9.8 -4.5,4.2 -8.1,9.3 -10.5,15.1 -2.4,5.8 -3.7,12.2 -3.7,19.1 0,6.8 1.3,13.1 3.8,18.9 2.5,5.8 6.1,10.9 10.6,15.1 4.5,4.2 9.8,7.6 16,9.9 6.1,2.4 12.8,3.6 20,3.6 3.9,0 7.7,-0.2 11.1,-0.6 3.4,-0.4 6.7,-1 9.8,-1.8 3.1,-0.8 6,-1.8 8.7,-3.1 2.7,-1.2 5.4,-2.8 7.9,-4.5 0.5,-0.3 0.7,-0.8 0.7,-1.4 v -37.9 c 0,-0.9 -0.7,-1.7 -1.7,-1.7 h -33.9 c -0.9,0 -1.7,0.8 -1.7,1.7 v 9.1 2.3 3.7 c 0,0.9 0.8,1.7 1.7,1.7 h 12.2 v 10.8 c -1.7,0.6 -3.5,1.1 -5.4,1.5 -2.2,0.5 -4.8,0.7 -7.8,0.7 -3.8,0 -7.3,-0.6 -10.5,-1.9 -3.1,-1.2 -5.9,-3.1 -8.2,-5.4 -2.3,-2.4 -4.1,-5.3 -5.4,-8.8 -1.3,-3.5 -2,-7.6 -2,-12.1 0,-4.1 0.6,-7.8 1.8,-11.2 1.2,-3.3 2.9,-6.1 5.1,-8.4 2.2,-2.3 4.8,-4.1 7.9,-5.4 3.1,-1.3 6.7,-1.9 10.6,-1.9 2.2,0 4.1,0.1 5.8,0.3 1.7,0.2 3.3,0.5 4.8,0.9 1.5,0.4 3,1 4.5,1.7 1.5,0.7 8.7,4.8 10.3,5.7 1.1,0.6 1.8,0.7 2.6,-0.4 l 9.6,-14 c 0.5,-0.7 0.4,-1.6 -0.3,-2.2 -1.9,-1.7 -4.2,-3.4 -6.7,-4.9 z" />
	<path
   style="fill:#463014"
   inkscape:connector-curvature="0"
   id="path212"
   d="m 408.7,525.2 c -1,-1.6 -2.3,-3 -3.7,-4.2 -0.5,-0.4 -0.9,-0.7 -1.4,-1 2,-0.9 3.8,-2 5.4,-3.1 2.5,-1.8 4.7,-3.9 6.4,-6.2 1.7,-2.3 3.1,-4.9 4,-7.7 0.9,-2.7 1.3,-5.7 1.3,-8.8 0,-4 -0.8,-7.8 -2.2,-11.3 -1.5,-3.5 -3.9,-6.6 -7.2,-9.1 -3.2,-2.5 -7.4,-4.5 -12.5,-5.9 -5,-1.4 -11.1,-2.1 -18.1,-2.1 h -31.1 c -0.9,0 -1.7,0.8 -1.7,1.7 v 89.7 c 0,0.9 0.8,1.7 1.7,1.7 h 22.1 c 0.9,0 1.7,-0.8 1.7,-1.7 v -31.5 h 4 c 1.8,0 2.7,0.3 3.2,0.6 0.7,0.3 1.3,1 1.8,1.8 l 15.9,26 c 1.9,3.1 5.1,4.7 9.4,4.7 h 20 c 0,0 0,0 0.1,0 0.9,0 1.7,-0.8 1.7,-1.7 0,-0.5 -0.2,-0.9 -0.5,-1.2 z m -13.9,-24.5 c -0.5,1.5 -1.3,2.7 -2.5,3.8 -1.2,1.1 -2.7,2 -4.6,2.6 -1.9,0.7 -4.3,1 -7.2,1 h -7.2 v -23.2 h 7.2 c 5.3,0 9.2,1 11.6,3 2.3,1.9 3.5,4.5 3.5,7.9 0.1,1.7 -0.2,3.4 -0.8,4.9 z" />
	<path
   style="fill:#463014"
   inkscape:connector-curvature="0"
   id="path214"
   d="m 520,466 h -22.1 c -0.9,0 -1.7,0.8 -1.7,1.7 v 53.1 c 0,3 -0.4,5.6 -1.2,7.9 -0.8,2.2 -1.9,4.2 -3.3,5.7 -1.4,1.5 -3.2,2.7 -5.3,3.6 -4.3,1.7 -10.4,1.7 -14.7,0 -2.1,-0.8 -3.9,-2 -5.3,-3.6 -1.4,-1.6 -2.6,-3.5 -3.3,-5.7 -0.8,-2.3 -1.2,-5 -1.2,-7.9 v -53.1 c 0,-0.9 -0.8,-1.7 -1.7,-1.7 h -22.1 c -0.9,0 -1.7,0.8 -1.7,1.7 v 53.1 c 0,5.7 1,11 2.9,15.8 2,4.8 4.8,9 8.5,12.5 3.7,3.5 8.2,6.2 13.5,8.1 5.2,1.9 11.2,2.9 17.7,2.9 6.5,0 12.4,-1 17.7,-2.9 5.3,-1.9 9.8,-4.6 13.5,-8.1 3.7,-3.5 6.6,-7.7 8.6,-12.5 2,-4.8 3,-10.1 3,-15.8 v -53.1 c -0.2,-1 -0.9,-1.7 -1.8,-1.7 z" />
	<path
   style="fill:#463014"
   inkscape:connector-curvature="0"
   id="path216"
   d="m 624.2,466 h -19.5 c -0.9,0 -1.7,0.8 -1.7,1.7 v 47.5 c 0,1.4 0,2.9 0.1,4.5 l -42,-49.9 c -0.7,-0.8 -1.3,-1.4 -1.8,-1.8 -0.6,-0.5 -1.3,-0.9 -1.9,-1.2 -0.7,-0.3 -1.4,-0.5 -2.2,-0.6 -0.7,-0.1 -1.6,-0.1 -2.6,-0.1 h -11.7 c -0.9,0 -1.7,0.8 -1.7,1.7 v 89.7 c 0,0.9 0.8,1.7 1.7,1.7 h 19.5 c 0.9,0 1.7,-0.8 1.7,-1.7 v -48.1 c 0,-1.2 0,-2.4 -0.1,-3.8 l 41.7,49.5 c 1.3,1.5 2.6,2.6 4.1,3.2 1.4,0.6 3.1,0.9 5,0.9 h 11.5 c 0.9,0 1.7,-0.8 1.7,-1.7 v -89.7 c -0.1,-1.1 -0.8,-1.8 -1.8,-1.8 z" />
	<path
   style="fill:#463014"
   inkscape:connector-curvature="0"
   id="path218"
   d="m 715.8,466 h -75.9 c -0.9,0 -1.7,0.8 -1.7,1.7 v 16.5 c 0,0.9 0.8,1.7 1.7,1.7 h 25.2 v 71.5 c 0,0.9 0.8,1.7 1.7,1.7 h 22.1 c 0.9,0 1.7,-0.8 1.7,-1.7 v -71.5 h 25.2 c 0.9,0 1.7,-0.8 1.7,-1.7 v -16.5 c 0,-1 -0.8,-1.7 -1.7,-1.7 z" />
</g></g>
</svg>