<svg xmlns="http://www.w3.org/2000/svg" xmlns:xlink="http://www.w3.org/1999/xlink" width="64" height="64"><style><![CDATA[.C{fill:#463014}.D{fill:#e78724}.E{fill:#fba919}.F{fill:#c9c9c9}]]></style><g transform="matrix(.144665 0 0 .144665 -36.694394 0)"><path d="M331.9 107.5s7.6 29.2 8.7 39c1.1 9.7-19.5 31.4-19.5 42.2s4.3 30.3 28.1 40.1c23.8 9.7 27.1 34.6 27.1 49.8s-8.7 44.4-8.7 44.4-5.4 72.5 23.8 85.5 22.7 13 29.2 13 54.1 19.5 82.3 11.9c28.1-7.6 35.7-16.2 35.7-16.2s28.1 2.2 36.8-22.7 14.1-76.8 10.8-100.7c-3.2-23.8-7.6-55.2 11.9-66s40.1-23.8 36.8-34.6c-3.2-10.8-20.6-26-20.6-26s-4.3-27.1-1.1-33.6 22.7-22.7 11.9-34.6c-10.7-12-30.2-12-30.2-12L570 89.2s-42.2-37.9-97.4-35.7-89.8 35.7-89.8 35.7-18.4-6.5-34.6 0c-16.3 6.4-19.5-.1-16.3 18.3z" class="E"/><path d="M430.8 268.7l-37.2 56c-2.4 3.6 15.7 3.8 15.7 3.8zm10.2-68l-10 24.7c-3.8 9.3-18.5 13.9-18.5 13.9s7.6-8 7.6-28.1c0-8.5 10.9-11.8 10.9-11.8z" class="D"/><path d="M438.6 194.9l-13.4-.9s3.4 6.1 5.7 13.9c2.5 8.9-2.3 21.8-2.3 21.8s17.9-20.3 10-34.8z" class="C"/><g class="D"><path d="M434.5 209.9s-13.2 15.8-37.8 6.9c-24.6-8.8-27.1-40.3-27.1-49.2 0-8.8 46.6 8.8 53 12.6 6.2 3.8 18.2 18.9 11.9 29.7zM341.7 41.5s22.7-4.4 37.8 7.6C394.6 61 399 70.5 399 70.5l-25.5 20.2s-12.3-5.7-16.1-22.1-1.2-24-15.7-27.1zm25.6 171.9s-39.8-13.7-32.3-27.6c7.6-13.9 1.5-21.4 1.5-21.4S314.3 181 320 198.6c3.5 10.8 9.3 18.7 41.4 33.7 15.4 28.6 3.2 80 3.9 80.3 1.2.4 21.6-10.1 20.2-58.2-.4-14.8-1.6-34.9-18.2-41zm52.2-147.3l-39.6 20.3 9 4.5-1.3 2.2 9.2 4.2 36.4 26.9c-4.6-14.2-18.1-36.5-18.1-36.5s-3.8-10.2 4.4-21.6z"/><path d="M475 412c-51.3 0-68.7-26.1-68.7-26.1l8 19.5c3 8.5 35.4 34.7 60.6 34.7m-63-71.8s4.7 28.9 23.6 28.9c16.1 0 20.8-24.4 20.8-29.4zm-31.5-43.5c1.7-4.6 7.6-23.3 9.5-40.3 2.3-20.4 1.4-50.2 1.4-50.2s-5 19.5-9.5 22.7c-4.4 3.1-12.6 24.6-12.6 24.6l-6.5 42.6c5.8 1.1 10.7-2.3 17.7.6zm-45.7-126.5s10.7-3.8 13.9-27.1-3.8-43.5-3.8-43.5.6 32.1-3.1 38.5c-3.8 6.3-6.9 8.2-11.3 16.4-4.5 8.2 1.8 13.2 4.3 15.7z"/></g><path d="M391.6 91.2" fill="#87ccee"/><path d="M347.5 47l-2.2-1.4c-6.4.2 2.2 1.4 2.2 1.4z" fill="#fdc168"/><path d="M428.2 59.2s-10.1-1.7-15.1-9.2c-5-7.6-19.3-22.7-42.1-22.9s-45.3 6.1-45.3 6.1l19.7 12.4c2.1-.1 5.7 0 11.7.2 24.7.8 28.5 25.2 28.5 25.2l87-12" class="E"/><path d="M436.6 194.1s-11.8 11.8-29.8 8c-18.1-3.8-29-11.8-29.8-25.6-.8-13.9 3.8-19.3 3.8-19.3s20.2 6.3 29.8 14.7c9.6 8.3 16.8 21.8 26 22.2z" fill="#fff"/><path d="M422.4 189.9s-10.2 4.7-21.6.9c-14.9-5-15.9-20.5-15.9-20.5s-9.2 26.9 16.5 32.1c20.6 4.1 32.8-7.8 32.8-7.8z" class="F"/><g class="C"><path d="M429.6 53.5c-1.1-23.1 17.8-41.4 24.4-42.2.4 3.9-.4 19.1 6.2 23.8C462.1 22.7 468.5 9 494 0c-5.5 14.5-.7 26.6 1.5 32.2C512.9 16.4 524.6 19 524.6 19s-12.1 20.8-7.4 34.5c-34.9-2.7-87.4 3.7-87.6 0z"/><use xlink:href="#B"/><path d="M333.4 189.5s10.5-13 13.6-38.3c1.2-10-.9-29.6-4.4-37.2.6 18.6-4.1 37.2-4.1 37.2s-3.2 34.5-5.1 38.3z"/><use xlink:href="#C"/><path d="M366.4 180.1s-5.5-7.9-4.5-16.5c.5-4.3 2.5-8.7 6-10.2 6.6-2.9 9.5 4.6 9.5 4.6s-9.3 2.2-11 22.1z"/><path d="M434.1 340.5"/><path d="M426.8 192.1c.2.4.3.7.3.7s-17.2 12.9-34.7-.2c-9.4-7-8.5-24.3-5.6-31.7 7.5 1.7 13.9 4.8 19.2 8.3-6.7-6-12.6-10.4-12.6-10.5l-7.6-2.2-14.8-5.1c-.2 1.1-5.6 26.5 10 43.8 6.9 7.7 39.4 24.8 54.8-4.5z"/></g><path d="M472.6 173.7l-.6-8.9-64.7-34.1-26.9-21.6-31 32.5 100 47.3 18.1 5.5" class="E"/><path d="M427.9 164.3c-9.8-13.9-25.9-19.9-38.7-20.9-21.9-1.7-32.3 6-32.3 6s35.9 1.5 46.2 15.1c19.3 25.3 47.4 27.3 51.9 21.8-5.2.3-10.9-2.3-17-8.1-3.9-3.6-7-9.5-10.1-13.9z" class="D"/><g class="C"><path d="M425.2 194c9.7 14.7 34 6.3 33.6-9.2 0 0-16.3 9-30.7-7.6-8.4-9.7-35.3-36.3-71.8-27.5 25.2 5.6 58.6 28.6 68.9 44.3z"/><path d="M434.1 340.5"/><path d="M352.9 235.5c2.3 1.3 10.5 9.8 10.5 22.5 0 6.4-.6 38.4-3.8 57.9 4.7 3.1 8 3.7 12.8 6.9 2.4-22.6 4.1-55.4 3.3-68.7-.9-15.1-9-25.2-16.5-29.5l-7.3-4c-12.8-6.9-26.1-14.1-26.1-26.4 0-9.6 3.7-12.6 7.7-15.8l.4-.3c2.6-2.1 5.6-4.5 7.3-8.5 4.8-10.8 5.6-38.2 0-45.2-2.8-3.5-10.2-15.1-8.1-23 .8-3 2.7-5.2 5.8-6.8 3.2-1.7 7.6-2.5 13-2.5 10.6 0 22.4 3.2 28.4 5.2 21.7 6.9 47.9 26.7 55.4 32.6.2.2.3.3.4.3l4.8 3.3-3-5c-.2-.3-19.2-31.6-53.2-43-6.6-2.2-19.6-6-32.4-6-7.6 0-14.1 1.3-19.2 3.9-6.2 3.2-10.4 8.3-12.2 14.7-4.3 15.7 9.7 33.3 10.2 33.8 1.6 2.9 2.3 24-1.4 32.5-.5 1.2-1.9 2.3-3.7 3.8-.6.5-1.2.9-1.9 1.4-5.3 4-13.3 10.1-13.3 24 0 19.1 19.4 29.5 34.9 37.8 2.5 1.6 5 2.9 7.2 4.1z"/><use xlink:href="#B"/><path d="M355.4 90.1l-.5-.4c-6.2-5.1-5.1-10.2-4-15.1.5-2.3 1-4.6.8-7-.3-4-.7-7.8-1.9-9.7-7.3-11.5-24.9-15.2-25.1-15.2l-10.6-2.1 7-8.2c.1-.2 14.9-15.1 40-15.1 6.8 0 13.8 1.1 20.8 3.4 26.1 8.4 44.6 36.7 44.8 37l.8 1.2-14.8 7-.6-.9c-1.6-2.7-15.6-25.9-35.5-32.3-4.9-1.6-10-2.4-15.3-2.4-9.5 0-17.2 2.6-21.3 4.3 6.9 3.1 15.2 8.3 20.4 16.6 2.9 4.5 3.3 10.1 3.8 15.4.6 6.6 1.1 12.9 5.7 16.8l1.8 1.5z"/><use xlink:href="#C"/><path d="M387.8 77.2l-.3-1.4c0-.1-3.3-14.3-12.2-21.4-5.1-4-11.2-6.1-18.2-6.1-5.5 0-9.5 1.3-10 1.5l-1.2.4-3.1-9.6 1.2-.4c.5-.2 5.4-1.7 12.3-1.7 9.1 0 17.7 2.7 24.8 7.7 17.4 12.2 19.6 23.6 19.7 24.8l.2 1zm-30.7-31.4c7.5 0 14.3 2.3 19.8 6.6 7.9 6.3 11.6 17.4 12.8 21.4l8.6-3.4c-.8-3-4.2-12.1-18.5-22.2-6.8-4.8-14.7-7.2-23.4-7.2-4.8 0-8.5.8-10.3 1.2l1.5 4.8c1.7-.5 5.2-1.2 9.5-1.2zm77.6 344.5c-3.7 0-7.5-1.4-10.2-3.6-2-1.7-8.8-8-11.8-15.7-1.1-2.9-.9-5.2.8-6.8 1.1-1.1 3.5-2.5 8.2-2.5h25.4c3.6 0 6.2.8 7.7 2.3 1.9 2 1.3 4.4.8 5.8-.9 2.3-4.8 9.8-11.3 16.7-2.4 2.4-5.8 3.8-9.6 3.8zm-12.9 35.5c-47.9-3.7-64.7-48.9-64.7-58.3h12.5c.1 4.1 12.8 42.8 53.2 45.9z"/></g><path d="M408.4 344.7c-.7-4.3-.8-8.4.1-12.5-3.6-2.7-10.2-3.7-15.1-5.3-4-2.5-24.5 2.6-39.4-15.4-18.6-22.5-14.7-36-14.7-36-4.8 5.3-9.4 3.3-16.7 28s3.4 42 23.4 59.3c9.4 8.2 22.8 11.6 34.2 12.8-3.8-3.9 6.6-4.2 13.7-6.9-.6-5.8.4-11.4 4.7-15.9 2.6-2.7 6-4.4 9.4-5.7.2-.4.4-.9.5-1.3.1-.2 0-.6-.1-1.1z" fill="#fff"/><path d="M393.9 368.7c-.4-1.2-.7-2.5-1-3.7-.3-1.4-2-5.2.1-.8-.5-1.1-.9-2.3-1.1-3.5-32.3 0-60.5-22.2-55-68.9-4.2-5.6-10.2 11.3-10.2 11.3s-16.2 47 25.6 65.2c13.9 6.1 26.2 10.4 29.1 8.7 6 1.2 11.5-3 13.6-5.8-.4-.8-.8-1.6-1.1-2.5z" class="F"/><g class="C"><path d="M407.8 338c0-3.9.9-7.8 2.8-11.6.1-.3.3-.5.4-.8-12.4-.1-26.8-1.3-39-6.2-13.4-5.4-30.2-23.7-33.1-45.3 0 0-25.3 19.5-17.8 61.2 7 39.2 39.7 51.9 77.1 54.1 0-.3-4.2-9-2.9-14.3-21.2 1.5-45-6.7-56.4-25.5-10.5-17.3-7.5-46.7-3.2-51 10.5 33.2 48.4 39.9 72.1 39.4z"/><path d="M475 389.4"/><path d="M411.7 314.2c-6.7 19.7-20.5 35.7-20.5 35.7s18.9-.9 19.9-4.2c.8-2.5 17.1-40.6 23.3-85.3-5.8 9.7-22.1 52.1-22.7 53.8z"/></g><g class="D"><path d="M518.8 268.7l37.2 56c2.4 3.6-15.7 3.8-15.7 3.8zm-10.2-68l10 24.7c3.8 9.3 18.5 13.9 18.5 13.9s-7.6-8-7.6-28.1c0-8.5-10.9-11.8-10.9-11.8z"/><path d="M515.1 209.9s13.2 15.8 37.8 6.9c24.6-8.8 27.1-40.3 27.1-49.2 0-8.8-46.6 8.8-53 12.6-6.2 3.8-18.2 18.9-11.9 29.7z"/></g><path d="M511 194.9l13.4-.9s-3.4 6.1-5.7 13.9c-2.5 8.9 2.3 21.8 2.3 21.8s-17.8-20.3-10-34.8z" class="C"/><g class="D"><path d="M608 41.5s-22.7-4.4-37.8 7.6-19.5 21.4-19.5 21.4l25.5 20.2s12.3-5.7 16.1-22.1c3.7-16.4 1.2-24 15.7-27.1zm-25.6 171.9s39.8-13.7 32.3-27.6c-7.6-13.9-1.5-21.4-1.5-21.4s22.2 16.6 16.6 34.2c-3.5 10.8-9.3 18.7-41.4 33.7-15.4 28.6-3.2 80-3.9 80.3-1.2.4-21.6-10.1-20.2-58.2.2-14.8 1.4-34.9 18.1-41zM530.2 66.1l39.6 20.3-9 4.5 1.3 2.2-9.2 4.2-36.4 26.9c4.6-14.2 18.1-36.5 18.1-36.5s3.8-10.2-4.4-21.6zM474.7 412c51.3 0 68.7-26.1 68.7-26.1l-8 19.5c-3 8.5-35.4 34.7-60.6 34.7"/><path d="M537.8 368.3s-4.7 28.9-23.6 28.9c-16.1 0-20.8-24.4-20.8-29.4zm31.5-43.5c-1.7-4.6-7.6-23.3-9.5-40.3-2.3-20.4-1.4-50.2-1.4-50.2s5 19.5 9.5 22.7c4.4 3.1 12.6 24.6 12.6 24.6l6.5 42.6c-5.9 1.1-10.7-2.3-17.7.6zm45.6-126.5s-10.7-3.8-13.9-27.1c-3.1-23.3 3.8-43.5 3.8-43.5s-.6 32.1 3.1 38.5c3.8 6.3 6.9 8.2 11.3 16.4 4.5 8.2-1.8 13.2-4.3 15.7z"/></g><path d="M558.1 91.2" fill="#87ccee"/><path d="M602.1 47l2.2-1.4c6.5.2-2.2 1.4-2.2 1.4z" fill="#fdc168"/><path d="M521.4 59.2s10.1-1.7 15.1-9.2c5-7.6 19.3-22.7 42.1-22.9s45.3 6.1 45.3 6.1l-19.7 12.4c-2.1-.1-5.7 0-11.7.2-24.6.8-28.4 25.2-28.4 25.2l-87-12" class="E"/><path d="M513 194.1s11.8 11.8 29.8 8c18.1-3.8 29-11.8 29.8-25.6.8-13.9-3.8-19.3-3.8-19.3s-20.2 6.3-29.8 14.7c-9.6 8.3-16.7 21.8-26 22.2z" fill="#fff"/><path d="M527.3 189.9s10.2 4.7 21.6.9c14.9-5 15.9-20.5 15.9-20.5s9.2 26.9-16.5 32.1c-20.6 4.1-32.8-7.8-32.8-7.8z" class="F"/><g class="C"><use xlink:href="#D"/><path d="M616.2 189.5s-10.5-13-13.6-38.3c-1.2-10 .9-29.6 4.4-37.2-.6 18.6 4.1 37.2 4.1 37.2s3.2 34.5 5.1 38.3z"/><use xlink:href="#E"/><path d="M583.3 180.1s5.5-7.9 4.5-16.5c-.5-4.3-2.5-8.7-6-10.2-6.6-2.9-9.5 4.6-9.5 4.6s9.2 2.2 11 22.1z"/><path d="M515.5 340.5"/><path d="M522.9 192.1c-.2.4-.3.7-.3.7s17.2 12.9 34.7-.2c9.4-7 8.5-24.3 5.6-31.7-7.5 1.7-13.9 4.8-19.2 8.3 6.7-6 12.6-10.4 12.6-10.5l7.6-2.2 14.8-5.1c.2 1.1 5.6 26.5-10 43.8-6.9 7.7-39.4 24.8-54.8-4.5z"/></g><path d="M490.9 184.8l7.5 4.7 65.6-32.4 33.3-9.1-8.1-44.2-97 53.3-15.1 11.4" class="E"/><path d="M521.8 164.3c9.8-13.9 25.9-19.9 38.7-20.9 21.9-1.7 32.3 6 32.3 6s-35.9 1.5-46.2 15.1c-19.3 25.3-47.4 27.3-51.8 21.8 5.2.3 10.9-2.3 17-8.1 3.8-3.6 6.9-9.5 10-13.9z" class="D"/><g class="C"><path d="M524.5 194c-9.7 14.7-34 6.3-33.6-9.2 0 0 16.3 9 30.7-7.6 8.4-9.7 35.3-36.3 71.8-27.5-25.2 5.6-58.6 28.6-68.9 44.3z"/><path d="M515.5 340.5"/><path d="M596.8 235.5c-2.3 1.3-10.5 9.8-10.5 22.5 0 6.4.6 38.4 3.8 57.9-4.7 3.1-8 3.7-12.8 6.9-2.4-22.6-4.1-55.4-3.3-68.7.9-15.1 9-25.2 16.5-29.5l7.3-4c12.8-6.9 26.1-14.1 26.1-26.4 0-9.6-3.7-12.6-7.7-15.8l-.4-.3c-2.6-2.1-5.6-4.5-7.3-8.5-4.8-10.8-5.6-38.2 0-45.2 2.8-3.5 10.2-15.1 8.1-23-.8-3-2.7-5.2-5.8-6.8-3.2-1.7-7.6-2.5-13-2.5-10.6 0-22.4 3.2-28.4 5.2-21.7 6.9-47.9 26.7-55.4 32.6-.2.2-.3.3-.4.3l-4.8 3.3 3-5c.2-.3 19.2-31.6 53.2-43 6.6-2.2 19.6-6 32.4-6 7.6 0 14 1.3 19.2 3.9 6.2 3.2 10.4 8.3 12.2 14.7 4.3 15.7-9.7 33.3-10.2 33.8-1.6 2.9-2.3 24 1.4 32.5.5 1.2 1.9 2.3 3.7 3.8.6.5 1.2.9 1.9 1.4 5.3 4 13.3 10.1 13.3 24 0 19.1-19.4 29.5-34.9 37.8-2.6 1.6-5 2.9-7.2 4.1z"/><path d="M573.7 86.4c-3.1-5.2-11-15.3-29.1-24.1-20.3-9.9-43.7-14.9-69.7-14.9h-.1c-26 0-49.5 5-69.7 14.9-18.2 8.9-26 18.9-29.1 24.1l-1.3 1.8 15.5 3.5.5-.6.3-.6c.2-1 2.3-6.6 19.7-15 18.5-9 40.1-13.6 64.2-13.6s45.7 4.6 64.2 13.6c17.3 8.5 19.4 14 19.7 15l.2.5.5.6 15.6-3.5z"/><use xlink:href="#D"/><path d="M578 84.7l1.8-1.5c4.7-3.9 5.2-10.1 5.7-16.8.5-5.3.9-10.9 3.8-15.4 5.3-8.3 13.6-13.5 20.4-16.6-4.1-1.7-11.8-4.3-21.3-4.3-5.3 0-10.4.8-15.3 2.4-19.9 6.4-33.9 29.6-35.5 32.3l-.6.9-14.8-7 .8-1.2c.2-.3 18.8-28.6 44.8-37 7-2.3 14-3.4 20.8-3.4 25.1 0 39.9 14.9 40 15.1l7 8.2-10.6 2.2c-.2 0-17.8 3.7-25.1 15.2-1.2 1.9-1.5 5.7-1.9 9.7-.2 2.4.3 4.7.8 7 1.1 4.9 2.2 9.9-4 15.1l-.5.4z"/><use xlink:href="#E"/><path d="M548.6 72l.1-1c.2-1.2 2.3-12.6 19.7-24.8 7.2-5 15.8-7.7 24.8-7.7 6.9 0 11.8 1.5 12.3 1.7l1.2.4-3.1 9.6-1.2-.4c-.5-.2-4.5-1.5-10-1.5-7 0-13.1 2.1-18.2 6.1-8.9 7.1-12.2 21.3-12.2 21.4l-.3 1.4zm53.5-25l1.6-4.8c-1.8-.5-5.5-1.2-10.3-1.2-8.7 0-16.6 2.4-23.4 7.2-14.3 10.1-17.7 19.1-18.5 22.2l8.6 3.4c1.1-4 4.8-15.1 12.8-21.4 5.5-4.3 12.3-6.6 19.8-6.6 4.2 0 7.6.7 9.4 1.2zm-96.7 339.4c-6.5-6.9-10.3-14.4-11.3-16.7-.5-1.3-1.1-3.8.8-5.8 1.5-1.5 4.1-2.3 7.7-2.3H528c4.7 0 7.1 1.4 8.2 2.5 1.6 1.6 1.9 3.9.8 6.8-3 7.7-9.8 13.9-11.8 15.7-2.6 2.3-6.4 3.6-10.2 3.6-3.9.1-7.3-1.3-9.6-3.8z"/></g><path d="M474.8 146.9c-8.6 0-19.7-.2-28.1-6.3 0 0 11 19.2 28.1 19.2v-2.4 2.4c17.1 0 28.1-19.2 28.1-19.2-8.3 6-19.5 6.3-28.1 6.3z" class="D"/><path d="M498.4 146.8c-8.6 5.2-16.3 7-23.6 7.2-7.3-.2-15-2-23.6-7.2 0 0 12.5 15.3 23.5 15.4h.2c11-.1 23.5-15.4 23.5-15.4zm29.4 279l-1-12.5c40.4-3.1 53.1-41.8 53.2-45.9h12.5c0 9.5-16.8 54.7-64.7 58.4z" class="C"/><path d="M541.3 344.7c.8-4.3.8-8.4-.1-12.5 3.6-2.7 10.2-3.7 15.1-5.3 4-2.5 24.5 2.6 39.4-15.4 18.6-22.5 14.7-36 14.7-36 4.8 5.3 9.4 3.3 16.7 28s-3.4 42-23.4 59.3c-9.4 8.2-22.8 11.6-34.2 12.8 3.8-3.9-6.6-4.2-13.7-6.9.6-5.8-.4-11.4-4.7-15.9-2.6-2.7-6-4.4-9.4-5.7-.2-.4-.4-.9-.5-1.3-.1-.2 0-.6.1-1.1z" fill="#fff"/><path d="M555.7 368.7c.4-1.2.7-2.5 1-3.7.3-1.4 2-5.2-.1-.8.5-1.1.9-2.3 1.1-3.5 32.3 0 60.5-22.2 55-68.9 4.2-5.6 10.2 11.3 10.2 11.3s16.2 47-25.6 65.2c-13.9 6.1-26.2 10.4-29.1 8.7-6.1 1.2-11.5-3-13.6-5.8.5-.8.8-1.6 1.1-2.5z" class="F"/><g class="C"><path d="M541.8 338c0-3.9-.9-7.8-2.8-11.6-.1-.3-.3-.5-.4-.8 12.4-.1 26.8-1.3 39-6.2 13.4-5.4 30.2-23.7 33.1-45.3 0 0 25.3 19.5 17.8 61.2-7 39.2-39.8 51.9-77.1 54.1 0-.3 4.2-9 2.9-14.3 21.2 1.5 45-6.7 56.4-25.5 10.5-17.3 7.5-46.7 3.2-51-10.5 33.2-48.3 39.9-72.1 39.4z"/><path d="M474.7 389.4"/><path d="M556.9 347.8c-4.5-4.8-12.7-10.6-31.6-10.6h-101c-18.9 0-27.1 5.8-31.6 10.6-6.5 7-7.5 16.8-3 29 12 32.5 28.8 65.6 85.1 65.6h.2c56.3 0 73.1-33.1 85.1-65.6 4.4-12.2 3.4-22-3.2-29zm-8.7 26.7c-5.7 16.3-21 55.9-73.4 55.9-52.3-.1-67.7-39.6-73.4-55.9-3.2-9.1-2.9-15.8.7-19.9 2.5-2.8 8.2-6.2 21.3-6.2H526c13.1 0 18.8 3.4 21.3 6.2 3.8 4.2 4 10.9.9 19.9z"/><path d="M537.9 314.2c6.7 19.7 20.5 35.7 20.5 35.7s-18.9-.9-19.9-4.2c-.8-2.5-17.1-40.6-23.3-85.3 5.8 9.7 22.2 52.1 22.7 53.8z"/></g></g><defs ><path id="B" d="M355.7 88.6c-8.3-6.9-2.1-13.3-2.8-21.2-.4-4.2-.7-8.1-2.1-10.3-7.7-12.1-25.7-15.8-25.9-15.8l-8.5-1.7L322 33c.7-.8 23.8-22.8 59.5-11.3 25 8.1 43.4 35.3 44.1 36.5l-12.5 5.9c-.1-.2-14.8-25.9-36.2-32.8-17.3-5.6-33.3-.3-40.1 3.2 7.3 2.9 16.8 8.2 22.5 17.2 2.7 4.3 3.2 9.6 3.6 14.8.6 6.9 1.1 13.4 6.2 17.6z"/><path id="C" d="M388.7 75.5s-3.4-14.7-12.7-22.1c-13.1-10.5-29.2-4.9-29.3-4.8l-2.3-7.2c.8-.3 19.1-6 36 5.8 17 11.9 19 22.8 19.2 24z"/><path id="D" d="M594 88.6c8.3-6.9 2.1-13.3 2.8-21.2.4-4.2.7-8.1 2.1-10.3 7.7-12.1 25.7-15.8 25.9-15.8l8.5-1.7-5.6-6.6c-.7-.8-23.8-22.8-59.5-11.3-25 8.1-43.4 35.3-44.1 36.5l12.5 5.9c.2-.2 14.8-25.9 36.2-32.8 17.3-5.6 33.3-.3 40.1 3.2-7.3 2.9-16.8 8.2-22.5 17.2-2.7 4.3-3.2 9.6-3.6 14.8-.6 6.9-1.1 13.4-6.2 17.6z"/><path id="E" d="M560.9 75.5s3.4-14.7 12.7-22.1c13.1-10.5 29.2-4.9 29.3-4.8l2.3-7.2c-.8-.3-19.1-6-36 5.8-17 11.9-19 22.8-19.2 24z"/></defs></svg>