<?xml version="1.0" encoding="UTF-8" standalone="no"?>
<!-- Generator: Adobe Illustrator 19.2.1, SVG Export Plug-In . SVG Version: 6.00 Build 0)  -->

<svg
   xmlns:dc="http://purl.org/dc/elements/1.1/"
   xmlns:cc="http://creativecommons.org/ns#"
   xmlns:rdf="http://www.w3.org/1999/02/22-rdf-syntax-ns#"
   xmlns:svg="http://www.w3.org/2000/svg"
   xmlns="http://www.w3.org/2000/svg"
   xmlns:sodipodi="http://sodipodi.sourceforge.net/DTD/sodipodi-0.dtd"
   xmlns:inkscape="http://www.inkscape.org/namespaces/inkscape"
   version="1.1"
   id="Ebene_1"
   x="0px"
   y="0px"
   width="120"
   height="60"
   viewBox="0 0 120 60"
   xml:space="preserve"
   sodipodi:docname="apress-ar21.svg"
   inkscape:version="0.92.3 (2405546, 2018-03-11)"><metadata
   id="metadata15"><rdf:RDF><cc:Work
       rdf:about=""><dc:format>image/svg+xml</dc:format><dc:type
         rdf:resource="http://purl.org/dc/dcmitype/StillImage" /><dc:title></dc:title></cc:Work></rdf:RDF></metadata><defs
   id="defs13">
	

		
	</defs><sodipodi:namedview
   pagecolor="#ffffff"
   bordercolor="#666666"
   borderopacity="1"
   objecttolerance="10"
   gridtolerance="10"
   guidetolerance="10"
   inkscape:pageopacity="0"
   inkscape:pageshadow="2"
   inkscape:window-width="1920"
   inkscape:window-height="1001"
   id="namedview11"
   showgrid="false"
   inkscape:zoom="2.5488722"
   inkscape:cx="18.635693"
   inkscape:cy="15"
   inkscape:window-x="-9"
   inkscape:window-y="-9"
   inkscape:window-maximized="1"
   inkscape:current-layer="Ebene_1" />
<style
   type="text/css"
   id="style2">
	.st0{fill:#FFCC00;}
</style>
<g
   id="g829"
   transform="matrix(0.76406111,0,0,0.76406111,13.330383,-2.3865703)"><path
     sodipodi:nodetypes="cccccccccccccccccccccccccscccccssccccscscsscsscscsscccccssccccssscscscssscccscccssscsccscccsccsscccsccccscccsccsscccscc"
     style="fill:#ffcc00"
     inkscape:connector-curvature="0"
     id="path4"
     d="m 18.436,49.431 -2.243,0.116 v 1.026 h 11.284 v -1.026 c -2.288,-0.058 -2.799,-0.17 -3.426,-1.522 L 15.456,30.288 H 12.289 L 7.557,39.743 C 6.109,42.588 4.589,45.748 3.407,47.854 2.638,49.226 2.45,49.489 0,49.548 v 1.026 H 8.938 V 49.548 L 6.845,49.432 C 5.783,49.379 5.744,49.051 5.99,48.325 6.543,46.687 7.389,45.016 8.196,43.146 h 8.676 l 2.457,5.117 c 0.343,0.731 0.165,1.115 -0.893,1.168 z M 8.956,41.59 c 0.727,-1.537 3.121,-6.759 3.56,-7.642 h 0.127 l 3.518,7.642 z M 40.761,30.011 c -3.126,0 -5.608,1.999 -7.284,3.024 l -0.557,-3.024 -6.477,1.02 v 1.025 l 1.628,0.2 c 1.106,0.165 1.362,0.371 1.362,1.843 v 22.339 c 0,2.093 -0.207,2.171 -3.203,2.381 V 60 h 11.106 v -1.18 c -3.603,-0.21 -3.858,-0.288 -3.858,-2.381 v -6.304 c 0.898,0.489 2.907,0.939 4.89,0.939 5.777,0 10.768,-2.537 10.768,-10.986 -0.001,-2.914 -0.57,-10.077 -8.375,-10.077 z m -2.36,19.63 c -2.224,0 -3.932,-1.104 -4.625,-2.992 -0.257,-0.736 -0.3,-1.56 -0.3,-2.502 v -6.723 c 0,-1.022 0.175,-1.602 0.557,-2.339 0.982,-1.89 2.831,-2.869 5.105,-2.869 1.708,0 5.518,1.064 5.518,8.118 10e-4,6.025 -1.963,9.307 -6.255,9.307 z m 26.22,-19.63 c -1.544,0 -2.813,0.889 -5.637,3.236 l -0.519,-3.236 -6.519,1.004 v 1.017 l 1.624,0.201 c 1.109,0.161 1.36,0.367 1.36,1.817 v 12.949 c 0,2.098 -0.206,2.182 -3.205,2.388 v 1.18 H 63.04 v -1.18 c -3.809,-0.205 -4.057,-0.29 -4.057,-2.388 v -9.618 c 0,-3.091 1.453,-4.152 2.435,-4.152 0.68,0 1.412,0.241 2.652,0.899 0.295,0.087 0.644,0.129 0.848,0.129 1.04,0 1.968,-1.011 1.968,-2.269 0.001,-0.891 -0.59,-1.977 -2.265,-1.977 z m 19.912,9.763 c 0.897,0 1.714,-0.198 1.714,-1.519 0,-2.42 -0.817,-8.244 -8.619,-8.244 -6.624,0 -9.803,4.548 -9.803,10.671 0,6.474 2.923,10.477 9.849,10.392 4.713,-0.045 7.161,-2.557 8.316,-5.793 l -1.284,-0.665 c -1.204,2.383 -2.835,4.351 -6.188,4.351 -5.251,0 -6.308,-4.924 -6.224,-9.194 h 12.239 z m -7.157,-8.33 c 3.936,0 4.402,3.892 4.402,5.489 0,0.786 -0.249,1.322 -1.434,1.322 h -8.009 c -10e-4,-1.685 0.638,-6.811 5.041,-6.811 z m 19.999,7.002 c -1.741,-0.531 -4.549,-1.39 -4.549,-3.686 0.044,-2.131 1.701,-3.316 3.824,-3.316 3.056,0 4.509,2.254 4.811,4.753 h 1.244 v -4.794 c -1.412,-0.987 -3.603,-1.393 -5.522,-1.393 -4.612,0 -7.699,2.087 -7.739,5.985 0.04,3.396 2.869,4.916 6.416,5.938 1.906,0.578 4.576,1.513 4.576,4.307 0,2.089 -1.688,3.401 -3.955,3.401 -3.448,0 -5.348,-2.414 -6.196,-5.897 h -1.226 l 0.426,5.366 c 1.524,1.312 4.105,1.964 6.606,1.964 5.078,0 7.987,-2.58 7.987,-6.063 10e-4,-3.606 -2.308,-5.248 -6.703,-6.565 z m 18.086,0 c -1.75,-0.531 -4.553,-1.39 -4.553,-3.686 0.04,-2.131 1.697,-3.316 3.833,-3.316 3.039,0 4.505,2.254 4.807,4.753 h 1.248 v -4.794 c -1.417,-0.987 -3.607,-1.393 -5.523,-1.393 -4.62,0 -7.707,2.087 -7.751,5.985 0.044,3.396 2.883,4.916 6.411,5.938 1.91,0.578 4.594,1.513 4.594,4.307 0,2.089 -1.706,3.401 -3.963,3.401 -3.439,0 -5.353,-2.414 -6.196,-5.897 h -1.226 l 0.426,5.366 c 1.528,1.312 4.105,1.964 6.611,1.964 5.069,0 7.983,-2.58 7.983,-6.063 -0.001,-3.606 -2.315,-5.248 -6.701,-6.565 z"
     class="st0" /></g>
</svg>