<?xml version="1.0" encoding="UTF-8" standalone="no"?>
<!-- Generator: Adobe Illustrator 17.0.0, SVG Export Plug-In . SVG Version: 6.00 Build 0)  -->

<svg
   xmlns:dc="http://purl.org/dc/elements/1.1/"
   xmlns:cc="http://creativecommons.org/ns#"
   xmlns:rdf="http://www.w3.org/1999/02/22-rdf-syntax-ns#"
   xmlns:svg="http://www.w3.org/2000/svg"
   xmlns="http://www.w3.org/2000/svg"
   xmlns:xlink="http://www.w3.org/1999/xlink"
   xmlns:sodipodi="http://sodipodi.sourceforge.net/DTD/sodipodi-0.dtd"
   xmlns:inkscape="http://www.inkscape.org/namespaces/inkscape"
   version="1.1"
   x="0px"
   y="0px"
   width="32"
   height="32"
   viewBox="0 0 32 32"
   enable-background="new 0 0 512 512"
   xml:space="preserve"
   id="svg3085"
   inkscape:version="0.48.4 r9939"
   sodipodi:docname="jekyllrb-icon.svg"><metadata
     id="metadata3148"><rdf:RDF><cc:Work
         rdf:about=""><dc:format>image/svg+xml</dc:format><dc:type
           rdf:resource="http://purl.org/dc/dcmitype/StillImage" /></cc:Work></rdf:RDF></metadata><defs
     id="defs3146"><linearGradient
       inkscape:collect="always"
       xlink:href="#tube_3_"
       id="linearGradient3150"
       gradientUnits="userSpaceOnUse"
       gradientTransform="matrix(0.9138,-0.4062,0.4062,0.9138,-80.6459,125.703)"
       x1="206.4585"
       y1="215.26289"
       x2="283.12949"
       y2="291.9339" /><linearGradient
       inkscape:collect="always"
       xlink:href="#liquid_2_"
       id="linearGradient3152"
       gradientUnits="userSpaceOnUse"
       gradientTransform="matrix(0.9138,-0.4062,0.4062,0.9138,-80.6459,125.703)"
       x1="177.62891"
       y1="273.75229"
       x2="224.04559"
       y2="320.16891" /><linearGradient
       inkscape:collect="always"
       xlink:href="#tube_3_"
       id="linearGradient3177"
       gradientUnits="userSpaceOnUse"
       gradientTransform="matrix(0.9138,-0.4062,0.4062,0.9138,-80.6459,125.703)"
       x1="206.4585"
       y1="215.26289"
       x2="283.12949"
       y2="291.9339" /><linearGradient
       inkscape:collect="always"
       xlink:href="#liquid_2_"
       id="linearGradient3179"
       gradientUnits="userSpaceOnUse"
       gradientTransform="matrix(0.9138,-0.4062,0.4062,0.9138,-80.6459,125.703)"
       x1="177.62891"
       y1="273.75229"
       x2="224.04559"
       y2="320.16891" /></defs><sodipodi:namedview
     pagecolor="#ffffff"
     bordercolor="#666666"
     borderopacity="1"
     objecttolerance="10"
     gridtolerance="10"
     guidetolerance="10"
     inkscape:pageopacity="0"
     inkscape:pageshadow="2"
     inkscape:window-width="1080"
     inkscape:window-height="926"
     id="namedview3144"
     showgrid="false"
     inkscape:zoom="22.75"
     inkscape:cx="16"
     inkscape:cy="16"
     inkscape:window-x="75"
     inkscape:window-y="34"
     inkscape:window-maximized="0"
     inkscape:current-layer="svg3085" /><g
     id="test-tube"
     transform="matrix(0.07775642,0,0,0.07775642,-3.4512584,-3.9548408)"><path
       style="opacity:0.3"
       inkscape:connector-curvature="0"
       d="m 269.02,59.151 c -0.184,0.737 -0.188,1.529 -0.033,2.365 0,0 2.507,16.642 -0.339,24.048 l -121.005,314.633 0.009,0.004 c -8.636,23.11 2.937,48.911 26.014,57.787 23.077,8.875 48.955,-2.524 58.03,-25.464 l 0.011,0.005 121.005,-314.634 c 2.366,-6.155 15.86,-18.079 15.86,-18.079 0.677,-0.516 1.202,-1.108 1.56,-1.778 l 0.059,-0.122 c 0.065,-0.132 0.141,-0.258 0.193,-0.395 3.12,-8.113 -17.005,-23.405 -44.952,-34.152 -27.948,-10.748 -53.133,-12.884 -56.253,-4.771 -0.053,0.137 -0.083,0.281 -0.122,0.422 l -0.037,0.131 z"
       id="shadow_2_" /><linearGradient
       gradientTransform="matrix(0.9138,-0.4062,0.4062,0.9138,-80.6459,125.703)"
       y2="291.9339"
       x2="283.12949"
       y1="215.26289"
       x1="206.4585"
       gradientUnits="userSpaceOnUse"
       id="tube_3_"><stop
         id="stop3092"
         style="stop-color:#919191"
         offset="0" /><stop
         id="stop3094"
         style="stop-color:#FFFFFF"
         offset="1" /></linearGradient><path
       inkscape:connector-curvature="0"
       style="fill:url(#linearGradient3177)"
       d="m 265.523,56.477 c -0.185,0.737 -0.19,1.529 -0.033,2.365 0,0 2.508,16.642 -0.34,24.048 l -121.006,314.632 0.011,0.004 c -8.635,23.11 2.937,48.911 26.014,57.787 23.075,8.875 48.955,-2.524 58.03,-25.464 l 0.011,0.005 121.005,-314.634 c 2.365,-6.155 15.86,-18.079 15.86,-18.079 0.677,-0.516 1.202,-1.107 1.56,-1.778 l 0.058,-0.122 c 0.065,-0.131 0.141,-0.258 0.193,-0.395 3.12,-8.113 -17.005,-23.404 -44.951,-34.152 -27.948,-10.748 -53.133,-12.884 -56.253,-4.771 -0.053,0.137 -0.083,0.281 -0.122,0.422 l -0.037,0.132 z"
       id="tube_2_" /><linearGradient
       gradientTransform="matrix(0.9138,-0.4062,0.4062,0.9138,-80.6459,125.703)"
       y2="320.16891"
       x2="224.04559"
       y1="273.75229"
       x1="177.62891"
       gradientUnits="userSpaceOnUse"
       id="liquid_2_"><stop
         id="stop3098"
         style="stop-color:#990000"
         offset="0" /><stop
         id="stop3100"
         style="stop-color:#E80000"
         offset="1" /></linearGradient><path
       inkscape:connector-curvature="0"
       style="fill:url(#linearGradient3179)"
       d="m 303.48,198.814 -87.262,226.896 0.057,0.021 c -6.436,16.262 -25.166,24.723 -41.781,18.333 -16.615,-6.39 -25.608,-25.512 -19.488,-41.897 l 0,0 55.758,-144.982 c 0,0 6.964,-11.233 20.637,-19.225 13.673,-7.991 24.949,-6.305 40.132,-13.053 15.182,-6.748 31.947,-26.093 31.947,-26.093 z"
       id="liquid" /><ellipse
       style="fill:#333333"
       sodipodi:ry="8.8500004"
       sodipodi:rx="33.647999"
       sodipodi:cy="76.200996"
       sodipodi:cx="315.97"
       ry="8.8500004"
       rx="33.647999"
       cy="76.200996"
       cx="315.97"
       transform="matrix(0.9334,0.359,-0.359,0.9334,48.4129,-108.3439)"
       id="top"
       d="m 349.618,76.200996 c 0,4.887721 -15.06472,8.850001 -33.648,8.850001 -18.58328,0 -33.648,-3.96228 -33.648,-8.850001 0,-4.88772 15.06472,-8.85 33.648,-8.85 18.58328,0 33.648,3.96228 33.648,8.85 z" /><path
       style="opacity:0.3;fill:#ffffff"
       inkscape:connector-curvature="0"
       d="m 265.489,58.841 c 0,0 2.471,16.737 -0.34,24.048 l -121.005,314.633 0.011,0.004 c -8.635,23.11 2.937,48.911 26.014,57.787 4.005,1.54 8.092,2.455 12.164,2.822 -15.556,-11.702 -22.23,-32.632 -15.093,-51.73 l -0.011,-0.004 118.604,-308.392 c 0,0 -16.144,-15.159 -20.344,-39.168 z"
       id="side-reflection" /><g
       id="bubbles"><circle
         style="opacity:0.5;fill:#ffffff"
         sodipodi:ry="3.506"
         sodipodi:rx="3.506"
         sodipodi:cy="261.806"
         sodipodi:cx="226.53101"
         id="circle3106"
         r="3.506"
         cy="261.806"
         cx="226.53101"
         d="m 230.03701,261.806 c 0,1.93631 -1.56969,3.506 -3.506,3.506 -1.93631,0 -3.506,-1.56969 -3.506,-3.506 0,-1.93631 1.56969,-3.506 3.506,-3.506 1.93631,0 3.506,1.56969 3.506,3.506 z" /><circle
         style="opacity:0.5;fill:#ffffff"
         sodipodi:ry="5.2849998"
         sodipodi:rx="5.2849998"
         sodipodi:cy="287.22699"
         sodipodi:cx="249.51401"
         id="circle3108"
         r="5.2849998"
         cy="287.22699"
         cx="249.51401"
         d="m 254.79901,287.22699 c 0,2.91882 -2.36618,5.285 -5.285,5.285 -2.91883,0 -5.285,-2.36618 -5.285,-5.285 0,-2.91883 2.36617,-5.285 5.285,-5.285 2.91882,0 5.285,2.36617 5.285,5.285 z" /><circle
         style="opacity:0.5;fill:#ffffff"
         sodipodi:ry="9.915"
         sodipodi:rx="9.915"
         sodipodi:cy="317.45901"
         sodipodi:cx="214.429"
         id="circle3110"
         r="9.915"
         cy="317.45901"
         cx="214.429"
         d="m 224.344,317.45901 c 0,5.47591 -4.4391,9.915 -9.915,9.915 -5.4759,0 -9.915,-4.43909 -9.915,-9.915 0,-5.4759 4.4391,-9.915 9.915,-9.915 5.4759,0 9.915,4.4391 9.915,9.915 z" /><circle
         style="opacity:0.5;fill:#ffffff"
         sodipodi:ry="5.2859998"
         sodipodi:rx="5.2859998"
         sodipodi:cy="335.79501"
         sodipodi:cx="198.375"
         id="circle3112"
         r="5.2859998"
         cy="335.79501"
         cx="198.375"
         d="m 203.661,335.79501 c 0,2.91938 -2.36662,5.286 -5.286,5.286 -2.91938,0 -5.286,-2.36662 -5.286,-5.286 0,-2.91937 2.36662,-5.286 5.286,-5.286 2.91938,0 5.286,2.36663 5.286,5.286 z" /><circle
         style="opacity:0.5;fill:#ffffff"
         sodipodi:ry="3.506"
         sodipodi:rx="3.506"
         sodipodi:cy="375.008"
         sodipodi:cx="219.42999"
         id="circle3114"
         r="3.506"
         cy="375.008"
         cx="219.42999"
         d="m 222.93599,375.008 c 0,1.93631 -1.56969,3.506 -3.506,3.506 -1.93631,0 -3.506,-1.56969 -3.506,-3.506 0,-1.93631 1.56969,-3.506 3.506,-3.506 1.93631,0 3.506,1.56969 3.506,3.506 z" /></g></g><g
     id="logo-bg-light"
     display="none"
     style="display:none"
     transform="translate(0,-480)"><g
       id="test-tube_1_"
       display="inline"
       style="display:inline"><path
         id="shadow_1_"
         d="m 269.02,59.151 c -0.184,0.737 -0.188,1.529 -0.033,2.365 0,0 2.507,16.642 -0.339,24.048 l -121.005,314.633 0.009,0.004 c -8.636,23.11 2.937,48.911 26.014,57.787 23.077,8.875 48.955,-2.524 58.03,-25.464 l 0.011,0.005 121.005,-314.634 c 2.366,-6.155 15.86,-18.079 15.86,-18.079 0.677,-0.516 1.202,-1.108 1.56,-1.778 l 0.059,-0.122 c 0.065,-0.132 0.141,-0.258 0.193,-0.395 3.12,-8.113 -17.005,-23.405 -44.952,-34.152 -27.948,-10.748 -53.133,-12.884 -56.253,-4.771 -0.053,0.137 -0.083,0.281 -0.122,0.422 l -0.037,0.131 z"
         inkscape:connector-curvature="0"
         style="opacity:0.1" /><linearGradient
         id="tube_4_"
         gradientUnits="userSpaceOnUse"
         x1="206.4585"
         y1="215.26289"
         x2="283.12949"
         y2="291.9339"
         gradientTransform="matrix(0.9138,-0.4062,0.4062,0.9138,-80.6459,125.703)"><stop
           offset="0"
           style="stop-color:#919191"
           id="stop3120" /><stop
           offset="1"
           style="stop-color:#FFFFFF"
           id="stop3122" /></linearGradient><path
         id="tube_1_"
         d="m 265.523,56.477 c -0.185,0.737 -0.19,1.529 -0.033,2.365 0,0 2.508,16.642 -0.34,24.048 l -121.006,314.632 0.011,0.004 c -8.635,23.11 2.937,48.911 26.014,57.787 23.075,8.875 48.955,-2.524 58.03,-25.464 l 0.011,0.005 121.005,-314.634 c 2.365,-6.155 15.86,-18.079 15.86,-18.079 0.677,-0.516 1.202,-1.107 1.56,-1.778 l 0.058,-0.122 c 0.065,-0.131 0.141,-0.258 0.193,-0.395 3.12,-8.113 -17.005,-23.404 -44.951,-34.152 -27.948,-10.748 -53.133,-12.884 -56.253,-4.771 -0.053,0.137 -0.083,0.281 -0.122,0.422 l -0.037,0.132 z"
         inkscape:connector-curvature="0"
         style="fill:url(#tube_4_)" /><linearGradient
         id="liquid_3_"
         gradientUnits="userSpaceOnUse"
         x1="177.62891"
         y1="273.75229"
         x2="224.04559"
         y2="320.16891"
         gradientTransform="matrix(0.9138,-0.4062,0.4062,0.9138,-80.6459,125.703)"><stop
           offset="0"
           style="stop-color:#990000"
           id="stop3126" /><stop
           offset="1"
           style="stop-color:#E80000"
           id="stop3128" /></linearGradient><path
         id="liquid_1_"
         d="m 303.48,198.814 -87.262,226.896 0.057,0.021 c -6.436,16.262 -25.166,24.723 -41.781,18.333 -16.615,-6.39 -25.608,-25.512 -19.488,-41.897 l 0,0 55.758,-144.982 c 0,0 6.964,-11.233 20.637,-19.225 13.673,-7.991 24.949,-6.305 40.132,-13.053 15.182,-6.748 31.947,-26.093 31.947,-26.093 z"
         inkscape:connector-curvature="0"
         style="fill:url(#liquid_3_)" /><ellipse
         id="top_1_"
         transform="matrix(0.9334,0.359,-0.359,0.9334,48.4129,-108.3439)"
         cx="315.97"
         cy="76.200996"
         rx="33.647999"
         ry="8.8500004"
         d="m 349.618,76.200996 c 0,4.887721 -15.06472,8.850001 -33.648,8.850001 -18.58328,0 -33.648,-3.96228 -33.648,-8.850001 0,-4.88772 15.06472,-8.85 33.648,-8.85 18.58328,0 33.648,3.96228 33.648,8.85 z"
         sodipodi:cx="315.97"
         sodipodi:cy="76.200996"
         sodipodi:rx="33.647999"
         sodipodi:ry="8.8500004"
         style="fill:#333333" /><path
         id="side-reflection_1_"
         d="m 265.489,58.841 c 0,0 2.471,16.737 -0.34,24.048 l -121.005,314.633 0.011,0.004 c -8.635,23.11 2.937,48.911 26.014,57.787 4.005,1.54 8.092,2.455 12.164,2.822 -15.556,-11.702 -22.23,-32.632 -15.093,-51.73 l -0.011,-0.004 118.604,-308.392 c 0,0 -16.144,-15.159 -20.344,-39.168 z"
         inkscape:connector-curvature="0"
         style="opacity:0.3;fill:#ffffff" /><g
         id="bubbles_1_"><circle
           cx="226.53101"
           cy="261.806"
           r="3.506"
           id="circle3134"
           d="m 230.03701,261.806 c 0,1.93631 -1.56969,3.506 -3.506,3.506 -1.93631,0 -3.506,-1.56969 -3.506,-3.506 0,-1.93631 1.56969,-3.506 3.506,-3.506 1.93631,0 3.506,1.56969 3.506,3.506 z"
           sodipodi:cx="226.53101"
           sodipodi:cy="261.806"
           sodipodi:rx="3.506"
           sodipodi:ry="3.506"
           style="opacity:0.5;fill:#ffffff" /><circle
           cx="249.51401"
           cy="287.22699"
           r="5.2849998"
           id="circle3136"
           d="m 254.79901,287.22699 c 0,2.91882 -2.36618,5.285 -5.285,5.285 -2.91883,0 -5.285,-2.36618 -5.285,-5.285 0,-2.91883 2.36617,-5.285 5.285,-5.285 2.91882,0 5.285,2.36617 5.285,5.285 z"
           sodipodi:cx="249.51401"
           sodipodi:cy="287.22699"
           sodipodi:rx="5.2849998"
           sodipodi:ry="5.2849998"
           style="opacity:0.5;fill:#ffffff" /><circle
           cx="214.429"
           cy="317.45901"
           r="9.915"
           id="circle3138"
           d="m 224.344,317.45901 c 0,5.47591 -4.4391,9.915 -9.915,9.915 -5.4759,0 -9.915,-4.43909 -9.915,-9.915 0,-5.4759 4.4391,-9.915 9.915,-9.915 5.4759,0 9.915,4.4391 9.915,9.915 z"
           sodipodi:cx="214.429"
           sodipodi:cy="317.45901"
           sodipodi:rx="9.915"
           sodipodi:ry="9.915"
           style="opacity:0.5;fill:#ffffff" /><circle
           cx="198.375"
           cy="335.79501"
           r="5.2859998"
           id="circle3140"
           d="m 203.661,335.79501 c 0,2.91938 -2.36662,5.286 -5.286,5.286 -2.91938,0 -5.286,-2.36662 -5.286,-5.286 0,-2.91937 2.36662,-5.286 5.286,-5.286 2.91938,0 5.286,2.36663 5.286,5.286 z"
           sodipodi:cx="198.375"
           sodipodi:cy="335.79501"
           sodipodi:rx="5.2859998"
           sodipodi:ry="5.2859998"
           style="opacity:0.5;fill:#ffffff" /><circle
           cx="219.42999"
           cy="375.008"
           r="3.506"
           id="circle3142"
           d="m 222.93599,375.008 c 0,1.93631 -1.56969,3.506 -3.506,3.506 -1.93631,0 -3.506,-1.56969 -3.506,-3.506 0,-1.93631 1.56969,-3.506 3.506,-3.506 1.93631,0 3.506,1.56969 3.506,3.506 z"
           sodipodi:cx="219.42999"
           sodipodi:cy="375.008"
           sodipodi:rx="3.506"
           sodipodi:ry="3.506"
           style="opacity:0.5;fill:#ffffff" /></g></g></g></svg>