<?xml version="1.0" encoding="UTF-8" standalone="no"?>
<!-- Generator: Adobe Illustrator 16.0.0, SVG Export Plug-In . SVG Version: 6.00 Build 0)  -->

<svg
   xmlns:dc="http://purl.org/dc/elements/1.1/"
   xmlns:cc="http://creativecommons.org/ns#"
   xmlns:rdf="http://www.w3.org/1999/02/22-rdf-syntax-ns#"
   xmlns:svg="http://www.w3.org/2000/svg"
   xmlns="http://www.w3.org/2000/svg"
   xmlns:sodipodi="http://sodipodi.sourceforge.net/DTD/sodipodi-0.dtd"
   xmlns:inkscape="http://www.inkscape.org/namespaces/inkscape"
   version="1.1"
   id="Layer_1"
   x="0px"
   y="0px"
   width="64"
   height="64"
   viewBox="0 0 64 64"
   enable-background="new 0 0 2000 826"
   xml:space="preserve"
   sodipodi:docname="8tracks-icon.svg"
   inkscape:version="0.92.3 (2405546, 2018-03-11)"><metadata
   id="metadata27"><rdf:RDF><cc:Work
       rdf:about=""><dc:format>image/svg+xml</dc:format><dc:type
         rdf:resource="http://purl.org/dc/dcmitype/StillImage" /><dc:title></dc:title></cc:Work></rdf:RDF></metadata><defs
   id="defs25">
	
	
</defs><sodipodi:namedview
   pagecolor="#ffffff"
   bordercolor="#666666"
   borderopacity="1"
   objecttolerance="10"
   gridtolerance="10"
   guidetolerance="10"
   inkscape:pageopacity="0"
   inkscape:pageshadow="2"
   inkscape:window-width="1920"
   inkscape:window-height="1001"
   id="namedview23"
   showgrid="false"
   inkscape:zoom="2.712"
   inkscape:cx="29.733119"
   inkscape:cy="75.756392"
   inkscape:window-x="-9"
   inkscape:window-y="-9"
   inkscape:window-maximized="1"
   inkscape:current-layer="Layer_1" />
<g
   id="g837"
   transform="matrix(1.946446,0,0,1.946446,-9.7322355,-26.39338)"><g
     id="g832"><g
       id="g4"
       transform="matrix(0.06569164,0,0,0.06569164,-5.69164,2.8700424)">
		<path
   style="fill:#112c4b"
   inkscape:connector-curvature="0"
   id="path2"
   d="m 300.183,388.205 c -75.943,0 -137.406,61.521 -137.428,137.378 0.021,75.886 61.484,137.406 137.428,137.406 75.877,0 137.257,-61.521 137.292,-137.406 0,-38.753 -0.007,-22.315 -0.007,-39.207 v 0 h -49.07 c 0,0 0,0.484 0,39.207 -0.043,24.443 -9.858,46.332 -25.856,62.372 -16.04,16.012 -37.914,25.862 -62.357,25.862 -24.473,0 -46.318,-9.853 -62.401,-25.862 -16.004,-16.04 -25.82,-37.929 -25.855,-62.372 0.035,-24.416 9.852,-46.304 25.855,-62.345 16.083,-16.014 37.929,-25.834 62.401,-25.862 45.14,0 178.728,0 225.69,0 75.915,0 137.386,-61.095 137.407,-136.98 -0.021,-75.914 -61.492,-137.378 -137.407,-137.406 -75.893,0.028 -137.378,61.492 -137.406,137.406 0,38.553 -0.035,38.809 -0.035,38.809 h 49.042 c 0,0 0,-0.256 0,-38.809 0.043,-24.416 10.001,-46.304 26.041,-62.373 16.025,-15.983 37.9,-25.834 62.357,-25.834 24.444,0 46.361,9.851 62.401,25.863 15.981,16.04 25.812,37.928 25.812,62.344 0,24.472 -9.83,46.333 -25.828,62.344 -16.023,16.012 -37.94,25.437 -62.387,25.466 z" />
	</g></g></g>
</svg>