<svg xmlns="http://www.w3.org/2000/svg" width="64" height="64"><path d="M17.572 28.83C7.862 28.83.003 36.698 0 46.397c.003 9.703 7.862 17.57 17.572 17.57 9.702 0 17.55-7.866 17.555-17.57v-5.013h-6.274v5.013c-.005 3.125-1.26 5.924-3.306 7.975S20.7 57.68 17.574 57.68a11.23 11.23 0 0 1-7.979-3.307 11.24 11.24 0 0 1 0-15.947c2.056-2.048 4.85-3.303 7.98-3.307H46.43c9.707 0 17.567-7.812 17.57-17.515A17.57 17.57 0 0 0 46.43.034c-9.704.004-17.566 7.863-17.57 17.57l-.004 4.962h6.27v-4.962c.005-3.122 1.28-5.92 3.33-7.975 2.05-2.044 4.846-3.303 7.973-3.303a11.23 11.23 0 0 1 7.98 3.307c2.043 2.05 3.3 4.85 3.3 7.972a11.2 11.2 0 0 1-3.303 7.972c-2.05 2.047-4.85 3.253-7.977 3.256z" fill="#112c4b"/></svg>