<svg xmlns="http://www.w3.org/2000/svg" width="64" height="64"><g transform="matrix(2.608359 0 0 2.608359 -16.259223 -46.250778)"><circle cx="22.41" cy="38.026" r="4.243" fill="#12577e"/><path d="M22.5 26.234h.534c1.002-.067 1.97-.468 2.706-1.236 1.67-1.67 1.67-4.343 0-6.013s-4.343-1.67-6.013 0c-1.002 1.002-1.37 2.338-1.203 3.608-.468 2.606-2.906 2.973-3.975 3.007-1.203-.1-2.405.334-3.307 1.236-1.67 1.67-1.67 4.343 0 6.013s4.343 1.67 6.013 0a4.23 4.23 0 0 0 1.236-2.739v-.234c.1-3.174 2.84-3.608 4-3.64z" fill="#549abc"/></g></svg>