<?xml version="1.0" encoding="UTF-8" standalone="no"?>
<svg
   xmlns:dc="http://purl.org/dc/elements/1.1/"
   xmlns:cc="http://creativecommons.org/ns#"
   xmlns:rdf="http://www.w3.org/1999/02/22-rdf-syntax-ns#"
   xmlns:svg="http://www.w3.org/2000/svg"
   xmlns="http://www.w3.org/2000/svg"
   xmlns:sodipodi="http://sodipodi.sourceforge.net/DTD/sodipodi-0.dtd"
   xmlns:inkscape="http://www.inkscape.org/namespaces/inkscape"
   width="64"
   height="64"
   viewBox="0 0 64 64"
   version="1.1"
   id="svg140"
   sodipodi:docname="jimdo-icno.svg"
   inkscape:version="0.92.3 (2405546, 2018-03-11)">
  <metadata
     id="metadata144">
    <rdf:RDF>
      <cc:Work
         rdf:about="">
        <dc:format>image/svg+xml</dc:format>
        <dc:type
           rdf:resource="http://purl.org/dc/dcmitype/StillImage" />
        <dc:title>Artboard 2</dc:title>
      </cc:Work>
    </rdf:RDF>
  </metadata>
  <sodipodi:namedview
     pagecolor="#ffffff"
     bordercolor="#666666"
     borderopacity="1"
     objecttolerance="10"
     gridtolerance="10"
     guidetolerance="10"
     inkscape:pageopacity="0"
     inkscape:pageshadow="2"
     inkscape:window-width="1920"
     inkscape:window-height="1001"
     id="namedview142"
     showgrid="false"
     inkscape:zoom="5.0597015"
     inkscape:cx="42.87078"
     inkscape:cy="37.651217"
     inkscape:window-x="-9"
     inkscape:window-y="-9"
     inkscape:window-maximized="1"
     inkscape:current-layer="svg140" />
  <!-- Generator: Sketch 47.1 (45422) - http://www.bohemiancoding.com/sketch -->
  <title
     id="title2">Artboard 2</title>
  <desc
     id="desc4">Created with Sketch.</desc>
  <defs
     id="defs22">
    <path
       d="M 172,19.124668 C 154.34676,7.057429 132.99756,0 110,0 49.248677,0 0,49.248677 0,110 c 0,60.75132 49.248677,110 110,110 60.75132,0 110,-49.24868 110,-110 0,-6.82993 -0.62247,-13.514475 -1.81376,-20 H 186 c -7.73199,0 -14,-6.268013 -14,-14 z"
       id="path-1"
       inkscape:connector-curvature="0" />
    <filter
       x="-0.094999999"
       y="-0.068000004"
       width="1.191"
       height="1.191"
       filterUnits="objectBoundingBox"
       id="filter-2">
      <feOffset
         dx="0"
         dy="6"
         in="SourceAlpha"
         result="shadowOffsetOuter1"
         id="feOffset7" />
      <feGaussianBlur
         stdDeviation="6"
         in="shadowOffsetOuter1"
         result="shadowBlurOuter1"
         id="feGaussianBlur9" />
      <feColorMatrix
         values="0 0 0 0 0   0 0 0 0 0   0 0 0 0 0  0 0 0 0.0963541667 0"
         type="matrix"
         in="shadowBlurOuter1"
         id="feColorMatrix11" />
    </filter>
    <rect
       id="path-3"
       x="193"
       y="6"
       width="330"
       height="150"
       rx="6" />
    <filter
       x="-0.064000003"
       y="-0.1"
       width="1.127"
       height="1.28"
       filterUnits="objectBoundingBox"
       id="filter-4">
      <feOffset
         dx="0"
         dy="6"
         in="SourceAlpha"
         result="shadowOffsetOuter1"
         id="feOffset15" />
      <feGaussianBlur
         stdDeviation="6"
         in="shadowOffsetOuter1"
         result="shadowBlurOuter1"
         id="feGaussianBlur17" />
      <feColorMatrix
         values="0 0 0 0 0   0 0 0 0 0   0 0 0 0 0  0 0 0 0.0963541667 0"
         type="matrix"
         in="shadowBlurOuter1"
         id="feColorMatrix19" />
    </filter>
  </defs>
  <g
     id="g1386"
     transform="matrix(3.5444163,0,0,3.5444163,-157.41238,-74.012709)">
    <path
       inkscape:connector-curvature="0"
       id="Fill-6"
       d="m 61.655761,38.937993 c 0.226972,0 0.432091,-0.0948 0.58142,-0.244487 L 45.762628,21.167345 c -0.266876,-0.284932 -0.694993,-0.35463 -0.976856,-0.181467 -0.29071,0.178579 -0.374312,0.410964 -0.372504,0.706369 l -0.0019,16.428689 c 0,0.449426 0.367628,0.817057 0.817054,0.817057 z"
       style="fill:#aecf5d;fill-rule:evenodd;stroke:none;stroke-width:0.3176603" />
    <g
       transform="translate(-4.1660672e-6)"
       id="g1380">
      <g
         id="g1376">
        <path
           d="m 44.645112,38.690295 c 0.148605,0.152213 0.35517,0.247733 0.583405,0.247733 h 16.427244 c 0.446716,0 0.812181,-0.365465 0.812181,-0.812181 V 21.63956 c 0,-0.363658 -0.231666,-0.57745 -0.418009,-0.679107 -0.181285,-0.09877 -0.589904,-0.161245 -0.899935,0.16937 z"
           id="Fill-8"
           inkscape:connector-curvature="0"
           style="fill:#28a0ce;fill-rule:evenodd;stroke:none;stroke-width:0.3176603" />
      </g>
    </g>
  </g>
</svg>
