<?xml version="1.0" encoding="UTF-8" standalone="no"?>
<svg
   xmlns:dc="http://purl.org/dc/elements/1.1/"
   xmlns:cc="http://creativecommons.org/ns#"
   xmlns:rdf="http://www.w3.org/1999/02/22-rdf-syntax-ns#"
   xmlns:svg="http://www.w3.org/2000/svg"
   xmlns="http://www.w3.org/2000/svg"
   xmlns:sodipodi="http://sodipodi.sourceforge.net/DTD/sodipodi-0.dtd"
   xmlns:inkscape="http://www.inkscape.org/namespaces/inkscape"
   width="120"
   height="60"
   viewBox="0 0 120 60"
   version="1.1"
   preserveAspectRatio="xMidYMid"
   id="svg28"
   sodipodi:docname="arduino-ar21.svg"
   inkscape:version="0.92.2 (5c3e80d, 2017-08-06)">
  <metadata
     id="metadata34">
    <rdf:RDF>
      <cc:Work
         rdf:about="">
        <dc:format>image/svg+xml</dc:format>
        <dc:type
           rdf:resource="http://purl.org/dc/dcmitype/StillImage" />
        <dc:title></dc:title>
      </cc:Work>
    </rdf:RDF>
  </metadata>
  <defs
     id="defs32" />
  <sodipodi:namedview
     pagecolor="#ffffff"
     bordercolor="#666666"
     borderopacity="1"
     objecttolerance="10"
     gridtolerance="10"
     guidetolerance="10"
     inkscape:pageopacity="0"
     inkscape:pageshadow="2"
     inkscape:window-width="1920"
     inkscape:window-height="1001"
     id="namedview30"
     showgrid="false"
     inkscape:zoom="4"
     inkscape:cx="-6.633159"
     inkscape:cy="77.843983"
     inkscape:window-x="-9"
     inkscape:window-y="-9"
     inkscape:window-maximized="1"
     inkscape:current-layer="svg28" />
  <g
     id="g879"
     transform="translate(0.21851667,-0.43077759)">
    <g
       transform="matrix(0.28708454,0,0,0.28708454,23.023753,3.5137832)"
       id="g865">
      <path
         style="fill:#00979c"
         inkscape:connector-curvature="0"
         id="path2"
         d="M 14.044,130.399 0.919,173.242 h 10.328 l 2.369,-7.983 h 12.803 l 2.305,7.983 H 39.955 L 26.831,130.399 Z m 2.166,26.242 3.899,-13.325 3.855,13.325 z" />
      <path
         style="fill:#00979c"
         inkscape:connector-curvature="0"
         id="path4"
         d="m 64.632,153.696 c -0.155,-0.166 -0.313,-0.323 -0.474,-0.47 0.323,-0.122 0.638,-0.252 0.946,-0.394 1.25,-0.574 2.345,-1.343 3.255,-2.28 0.92,-0.946 1.643,-2.086 2.148,-3.389 0.5,-1.287 0.754,-2.766 0.754,-4.393 0,-2.243 -0.405,-4.183 -1.201,-5.768 -0.805,-1.603 -1.97,-2.923 -3.461,-3.924 -1.447,-0.97 -3.207,-1.671 -5.232,-2.082 -1.946,-0.395 -4.138,-0.597 -6.513,-0.597 H 41.456 v 42.843 h 10.275 v -16.74 h 0.305 c 1.124,0 2.061,0.247 2.864,0.757 0.797,0.505 1.408,1.25 1.871,2.282 l 6.21,13.701 h 11.955 l -7.545,-15.283 c -0.914,-1.856 -1.817,-3.249 -2.759,-4.263 z m -4.469,-8.219 c -0.297,0.566 -0.709,1.03 -1.26,1.418 -0.581,0.408 -1.302,0.721 -2.146,0.931 -0.891,0.223 -1.908,0.335 -3.024,0.335 h -2.002 v -9.019 h 2.258 c 2.352,0 4.1,0.369 5.195,1.098 0.954,0.635 1.418,1.705 1.418,3.273 0,0.758 -0.144,1.401 -0.439,1.964 z" />
      <path
         style="fill:#00979c"
         inkscape:connector-curvature="0"
         id="path6"
         d="m 105.04,135.487 c -1.73,-1.739 -3.912,-3.041 -6.485,-3.868 -2.508,-0.809 -5.46,-1.22 -8.773,-1.22 H 76.193 v 42.843 h 11.829 c 3.817,0 7.156,-0.52 9.923,-1.545 2.81,-1.039 5.157,-2.547 6.974,-4.481 1.814,-1.93 3.166,-4.288 4.016,-7.007 0.834,-2.662 1.256,-5.656 1.256,-8.899 0,-3.535 -0.423,-6.636 -1.259,-9.217 -0.854,-2.644 -2.163,-4.866 -3.892,-6.606 z m -8.401,26.037 c -1.784,1.982 -4.372,2.945 -7.912,2.945 h -2.26 v -25.297 h 2.803 c 1.981,0 3.644,0.28 4.941,0.833 1.258,0.535 2.231,1.291 2.975,2.309 0.76,1.044 1.311,2.354 1.637,3.891 0.343,1.626 0.518,3.51 0.518,5.6 0,4.458 -0.909,7.728 -2.702,9.719 z" />
      <path
         style="fill:#00979c"
         inkscape:connector-curvature="0"
         id="path8"
         d="m 134.942,157.654 c 0,1.477 -0.136,2.736 -0.407,3.742 -0.252,0.939 -0.623,1.706 -1.105,2.279 -0.462,0.551 -1.027,0.94 -1.726,1.189 -0.761,0.272 -1.734,0.409 -2.894,0.409 -1.227,0 -2.239,-0.157 -3.008,-0.468 -0.739,-0.3 -1.333,-0.729 -1.817,-1.31 -0.486,-0.585 -0.834,-1.319 -1.035,-2.185 -0.224,-0.956 -0.337,-2.081 -0.337,-3.347 v -27.564 h -10.274 v 28.028 c 0,2.316 0.287,4.442 0.851,6.318 0.587,1.949 1.555,3.634 2.878,5.005 1.323,1.37 3.055,2.43 5.148,3.147 2.034,0.701 4.492,1.056 7.305,1.056 2.515,0 4.823,-0.355 6.857,-1.056 2.08,-0.713 3.873,-1.794 5.33,-3.214 1.458,-1.422 2.589,-3.212 3.362,-5.32 0.76,-2.07 1.146,-4.494 1.146,-7.205 v -26.759 h -10.274 v 27.255" />
      <path
         style="fill:#00979c"
         inkscape:connector-curvature="0"
         id="path10"
         d="m 150.47,139.018 h 9.22 v 25.544 h -9.22 v 8.68 h 28.843 v -8.68 h -9.22 v -25.544 h 9.22 v -8.619 H 150.47 v 8.619" />
      <path
         style="fill:#00979c"
         inkscape:connector-curvature="0"
         id="path12"
         d="M 207.905,154.811 196.419,130.399 H 184.79 v 42.843 h 9.569 v -24.876 l 11.547,24.876 h 11.57 v -42.843 h -9.571 v 24.412" />
      <path
         style="fill:#00979c"
         inkscape:connector-curvature="0"
         id="path14"
         d="m 250.738,135.468 c -3,-3.815 -7.497,-5.749 -13.364,-5.749 -2.51,0 -4.904,0.445 -7.116,1.322 -2.243,0.889 -4.225,2.273 -5.892,4.117 -1.652,1.828 -2.964,4.179 -3.897,6.986 -0.923,2.771 -1.391,6.094 -1.391,9.878 0,6.99 1.487,12.428 4.419,16.166 3,3.826 7.497,5.765 13.364,5.765 2.511,0 4.907,-0.445 7.119,-1.322 2.244,-0.89 4.225,-2.275 5.89,-4.116 1.65,-1.827 2.962,-4.177 3.898,-6.986 0.921,-2.77 1.389,-6.093 1.389,-9.879 0,-7.01 -1.487,-12.455 -4.419,-16.182 z m -6.762,22.261 c -0.294,1.581 -0.753,2.914 -1.364,3.963 -0.58,0.999 -1.298,1.731 -2.193,2.236 -0.892,0.503 -2.003,0.758 -3.301,0.758 -2.568,0 -4.358,-0.956 -5.472,-2.921 -1.224,-2.159 -1.845,-5.561 -1.845,-10.115 0,-2.138 0.154,-4.059 0.46,-5.706 0.294,-1.578 0.756,-2.909 1.376,-3.958 0.59,-1.003 1.31,-1.737 2.201,-2.244 0.879,-0.501 1.982,-0.755 3.28,-0.755 2.588,0 4.383,0.954 5.486,2.916 1.215,2.16 1.831,5.565 1.831,10.119 0,2.144 -0.154,4.064 -0.459,5.707 z" />
    </g>
    <g
       transform="matrix(0.23595135,0,0,0.23595135,29.070744,7.408555)"
       id="g856">
      <path
         style="fill:#00979c"
         inkscape:connector-curvature="0"
         id="path20"
         d="m 190.275,120.327 c -16.288,0 -30.214,-5.492 -42.47,-16.725 -7.571,-6.937 -13.813,-15.436 -19.556,-24.273 -5.742,8.837 -11.985,17.336 -19.555,24.273 C 95.525,115.671 80.427,121.113 62.545,120.236 28.444,120.088 0.747,93.176 0.747,60.118 0.747,26.969 28.596,0 62.827,0 c 18.732,0 34.503,6.199 48.21,18.95 6.584,6.125 12.142,13.23 17.212,20.664 5.07,-7.434 10.629,-14.539 17.212,-20.664 C 159.168,6.199 174.939,0 193.671,0 c 34.232,0 62.08,26.969 62.08,60.118 0,33.058 -27.696,59.97 -61.798,60.118 -1.239,0.061 -2.466,0.091 -3.678,0.091 z M 140.72,59.316 c 6.794,11.023 13.388,21.283 21.42,28.643 9.066,8.309 18.622,11.727 30.975,11.074 l 0.556,-0.015 c 22.531,0 40.862,-17.45 40.862,-38.9 0,-21.449 -18.331,-38.9 -40.862,-38.9 -13.301,0 -24.028,4.216 -33.758,13.267 -7.267,6.761 -13.267,15.423 -19.193,24.831 z M 62.827,21.218 c -22.531,0 -40.862,17.451 -40.862,38.9 0,21.45 18.331,38.9 40.862,38.9 l 0.557,0.015 c 12.354,0.653 21.908,-2.765 30.974,-11.074 8.032,-7.36 14.627,-17.62 21.42,-28.643 C 109.852,49.908 103.852,41.246 96.586,34.485 86.855,25.434 76.128,21.218 62.827,21.218 Z" />
      <path
         style="fill:#00979c"
         inkscape:connector-curvature="0"
         id="path22"
         d="M 196.477,52.407 V 40.901 h -11.976 v 11.506 h -11.505 v 11.918 h 11.505 v 11.591 h 11.976 V 64.325 h 11.506 V 52.407 h -11.506" />
      <path
         style="fill:#00979c"
         inkscape:connector-curvature="0"
         id="path24"
         d="M 45.599,52.263 H 83.416 V 64.555 H 45.599 Z" />
    </g>
  </g>
</svg>
