<?xml version="1.0" encoding="UTF-8" standalone="no"?>
<!-- Generator: Adobe Illustrator 20.1.0, SVG Export Plug-In . SVG Version: 6.00 Build 0)  -->

<svg
   xmlns:dc="http://purl.org/dc/elements/1.1/"
   xmlns:cc="http://creativecommons.org/ns#"
   xmlns:rdf="http://www.w3.org/1999/02/22-rdf-syntax-ns#"
   xmlns:svg="http://www.w3.org/2000/svg"
   xmlns="http://www.w3.org/2000/svg"
   xmlns:sodipodi="http://sodipodi.sourceforge.net/DTD/sodipodi-0.dtd"
   xmlns:inkscape="http://www.inkscape.org/namespaces/inkscape"
   version="1.1"
   id="Layer_1"
   x="0px"
   y="0px"
   viewBox="0 0 64 64"
   xml:space="preserve"
   sodipodi:docname="cloudfoundry-icon.svg"
   width="64"
   height="64"
   inkscape:version="0.92.3 (2405546, 2018-03-11)"><metadata
   id="metadata57"><rdf:RDF><cc:Work
       rdf:about=""><dc:format>image/svg+xml</dc:format><dc:type
         rdf:resource="http://purl.org/dc/dcmitype/StillImage" /><dc:title></dc:title></cc:Work></rdf:RDF></metadata><defs
   id="defs55">
	
	
	
	
	
	
	
	
	
	
	
	
	
	
	
	
	
	
	
	
	
	
	
</defs><sodipodi:namedview
   pagecolor="#ffffff"
   bordercolor="#666666"
   borderopacity="1"
   objecttolerance="10"
   gridtolerance="10"
   guidetolerance="10"
   inkscape:pageopacity="0"
   inkscape:pageshadow="2"
   inkscape:window-width="1920"
   inkscape:window-height="1001"
   id="namedview53"
   showgrid="false"
   inkscape:zoom="3.0341309"
   inkscape:cx="35.334662"
   inkscape:cy="52.881104"
   inkscape:window-x="-9"
   inkscape:window-y="-9"
   inkscape:window-maximized="1"
   inkscape:current-layer="Layer_1" />
<style
   type="text/css"
   id="style2">
	.st0{fill:#008774;}
	.st1{fill:#00AE9E;}
	.st2{fill:#000005;}
</style>
<g
   id="g904"
   transform="matrix(1.8101213,0,0,1.8101213,-67.517525,-35.427018)"><path
     class="st0"
     d="m 58.1,46.2 c 0,-5.7 -4.7,-10.4 -10.4,-10.4 -5.7,0 -10.4,4.7 -10.4,10.4 0,0.9 0.1,1.9 0.4,2.8 v 0 c 0.1,0.3 0.2,0.7 0.3,1 0.1,0.2 0.2,0.3 0.4,0.3 h 2.8 c 0.2,0 0.4,-0.2 0.4,-0.4 0,-0.1 0,-0.1 -0.1,-0.2 -0.1,-0.2 -0.2,-0.4 -0.3,-0.6 v 0 c -1.5,-3.5 0.1,-7.6 3.6,-9.2 3.5,-1.5 7.6,0.1 9.2,3.6 0.4,0.9 0.6,1.8 0.6,2.8 0,0.9 -0.2,1.9 -0.6,2.8 v 0 c -0.1,0.2 -0.2,0.4 -0.3,0.7 -0.1,0.2 0,0.4 0.2,0.5 0.1,0 0.1,0.1 0.2,0.1 H 57 c 0.2,0 0.3,-0.1 0.4,-0.3 0.1,-0.3 0.2,-0.7 0.3,-1 v 0 c 0.2,-1 0.4,-2 0.4,-2.9 z"
     id="path4"
     inkscape:connector-curvature="0"
     style="fill:#008774" /><path
     class="st1"
     d="m 59.5,32.4 c -7.3,0 -13.2,5.9 -13.2,13.2 0,1.1 0.1,2.3 0.4,3.4 v 0 c 0.1,0.3 0.2,0.7 0.3,1 0.1,0.2 0.2,0.3 0.4,0.3 h 2.8 c 0.2,0 0.4,-0.2 0.4,-0.4 0,-0.1 0,-0.1 0,-0.2 -0.1,-0.2 -0.2,-0.5 -0.3,-0.7 v 0 c -1.8,-5.1 0.8,-10.7 5.8,-12.5 5,-1.8 10.7,0.8 12.5,5.8 0.8,2.2 0.8,4.5 0,6.7 v 0 c -0.1,0.2 -0.2,0.5 -0.3,0.7 -0.1,0.2 0,0.4 0.2,0.5 0.1,0 0.1,0 0.2,0 h 2.8 c 0.2,0 0.3,-0.1 0.4,-0.3 0.1,-0.3 0.2,-0.7 0.3,-1 v 0 c 1.9,-7 -2.3,-14.3 -9.4,-16.1 -1,-0.3 -2.1,-0.4 -3.3,-0.4 z"
     id="path6"
     inkscape:connector-curvature="0"
     style="fill:#00ae9e" /><path
     class="st0"
     d="m 66.8,35.8 c 0,-6.5 -5.2,-11.7 -11.7,-11.7 -6.5,0 -11.7,5.2 -11.7,11.7 0,0.4 0,0.7 0.1,1.1 h 3.4 c -0.5,-4.5 2.9,-8.6 7.4,-9.1 4.5,-0.5 8.6,2.9 9.1,7.4 0,0.2 0,0.4 0,0.6 0,0.2 0,0.3 0,0.4 v 0 c -0.1,1.6 -0.7,3.2 -1.7,4.5 -0.1,0.2 -0.1,0.5 0.1,0.6 0.1,0.1 0.2,0.1 0.3,0.1 h 3 c 0.2,0 0.3,-0.1 0.4,-0.2 0.8,-1.5 1.3,-3.3 1.3,-5 v 0 c 0,-0.1 0,-0.2 0,-0.4 z"
     id="path8"
     inkscape:connector-curvature="0"
     style="fill:#008774" /></g>
</svg>