<?xml version="1.0" encoding="UTF-8" standalone="no"?>
<!-- Generator: Adobe Illustrator 21.1.0, SVG Export Plug-In . SVG Version: 6.00 Build 0)  -->

<svg
   xmlns:dc="http://purl.org/dc/elements/1.1/"
   xmlns:cc="http://creativecommons.org/ns#"
   xmlns:rdf="http://www.w3.org/1999/02/22-rdf-syntax-ns#"
   xmlns:svg="http://www.w3.org/2000/svg"
   xmlns="http://www.w3.org/2000/svg"
   xmlns:sodipodi="http://sodipodi.sourceforge.net/DTD/sodipodi-0.dtd"
   xmlns:inkscape="http://www.inkscape.org/namespaces/inkscape"
   version="1.1"
   id="Layer_1"
   x="0px"
   y="0px"
   viewBox="0 0 120 60"
   xml:space="preserve"
   sodipodi:docname="geonames-ar21.svg"
   width="120"
   height="60"
   inkscape:version="0.92.2 (5c3e80d, 2017-08-06)"><metadata
     id="metadata35"><rdf:RDF><cc:Work
         rdf:about=""><dc:format>image/svg+xml</dc:format><dc:type
           rdf:resource="http://purl.org/dc/dcmitype/StillImage" /><dc:title></dc:title></cc:Work></rdf:RDF></metadata><defs
     id="defs33" /><sodipodi:namedview
     pagecolor="#ffffff"
     bordercolor="#666666"
     borderopacity="1"
     objecttolerance="10"
     gridtolerance="10"
     guidetolerance="10"
     inkscape:pageopacity="0"
     inkscape:pageshadow="2"
     inkscape:window-width="1920"
     inkscape:window-height="1001"
     id="namedview31"
     showgrid="false"
     inkscape:zoom="4.7676768"
     inkscape:cx="115.41254"
     inkscape:cy="28.951058"
     inkscape:window-x="-9"
     inkscape:window-y="-9"
     inkscape:window-maximized="1"
     inkscape:current-layer="Layer_1" /><style
     type="text/css"
     id="style2">
	.st0{fill:none;stroke:#0970AC;stroke-width:4;stroke-miterlimit:10;}
	.st1{fill:#0970AC;}
</style><g
     id="g855"
     transform="matrix(0.21034451,0,0,0.21034451,-1.0209424,134.28954)"><path
       inkscape:connector-curvature="0"
       id="path4"
       d="m 72.2,-494.6 v -8.2 h 29.6 v 25.9 c -4.5,3.6 -9.2,6.3 -14.1,8.2 -4.8,1.8 -9.8,2.7 -14.9,2.7 -6.9,0 -13.1,-1.5 -18.7,-4.4 -5.6,-2.9 -9.8,-7.2 -12.7,-12.7 -2.9,-5.6 -4.3,-11.8 -4.3,-18.6 0,-6.8 1.4,-13.1 4.3,-19 2.8,-5.9 6.9,-10.3 12.3,-13.1 5.3,-2.9 11.5,-4.3 18.4,-4.3 5,0 9.6,0.8 13.7,2.5 4.1,1.6 7.3,3.9 9.6,6.8 2.3,2.9 4.1,6.7 5.3,11.4 l -8.3,2.3 c -1,-3.6 -2.4,-6.4 -3.9,-8.4 -1.6,-2 -3.8,-3.7 -6.7,-4.9 -2.9,-1.2 -6.1,-1.8 -9.6,-1.8 -4.2,0 -7.9,0.6 -11,1.9 -3.1,1.3 -5.6,3 -7.5,5.1 -1.9,2.1 -3.4,4.4 -4.4,6.9 -1.8,4.3 -2.7,9 -2.7,14.1 0,6.2 1.1,11.4 3.2,15.6 2.1,4.2 5.3,7.3 9.4,9.3 4.1,2 8.4,3 13.1,3 4,0 7.9,-0.8 11.7,-2.3 3.8,-1.5 6.7,-3.2 8.7,-4.9 v -13 H 72.2 Z" /><path
       inkscape:connector-curvature="0"
       id="path6"
       d="m 151.7,-483.3 8.9,1.1 c -1.4,5.2 -4,9.2 -7.8,12.1 -3.8,2.9 -8.6,4.3 -14.5,4.3 -7.4,0 -13.3,-2.3 -17.6,-6.8 -4.3,-4.6 -6.5,-10.9 -6.5,-19.2 0,-8.5 2.2,-15.1 6.6,-19.8 4.4,-4.7 10.1,-7 17.1,-7 6.8,0 12.3,2.3 16.6,6.9 4.3,4.6 6.4,11.1 6.4,19.4 0,0.5 0,1.3 0,2.3 H 123 c 0.3,5.6 1.9,9.8 4.7,12.8 2.8,3 6.4,4.4 10.6,4.4 3.1,0 5.8,-0.8 8,-2.5 2.3,-1.8 4.1,-4.4 5.4,-8 z m -28.2,-13.9 h 28.2 c -0.4,-4.3 -1.5,-7.4 -3.2,-9.6 -2.7,-3.3 -6.3,-5 -10.6,-5 -3.9,0 -7.2,1.3 -9.9,4 -2.7,2.7 -4.2,6.2 -4.5,10.6 z" /><path
       inkscape:connector-curvature="0"
       id="path8"
       d="m 260.4,-467.3 v -50.6 h 7.7 v 7.2 c 3.7,-5.6 9.1,-8.3 16.1,-8.3 3,0 5.9,0.5 8.4,1.6 2.6,1.1 4.5,2.5 5.7,4.3 1.3,1.8 2.2,3.9 2.7,6.3 0.3,1.6 0.5,4.4 0.5,8.3 v 31.1 H 293 v -30.8 c 0,-3.5 -0.3,-6.1 -1,-7.8 -0.7,-1.7 -1.8,-3.1 -3.5,-4.1 -1.7,-1 -3.7,-1.5 -6,-1.5 -3.7,0 -6.8,1.2 -9.5,3.5 -2.7,2.3 -4,6.7 -4,13.2 v 27.6 z" /><path
       inkscape:connector-curvature="0"
       id="path10"
       d="m 347.7,-473.6 c -3.2,2.7 -6.2,4.6 -9.2,5.7 -2.9,1.1 -6.1,1.7 -9.5,1.7 -5.6,0 -9.8,-1.4 -12.8,-4.1 -3,-2.7 -4.5,-6.2 -4.5,-10.4 0,-2.5 0.6,-4.7 1.7,-6.8 1.1,-2 2.6,-3.7 4.4,-4.9 1.8,-1.2 3.9,-2.2 6.2,-2.8 1.7,-0.4 4.2,-0.9 7.6,-1.3 6.9,-0.8 12,-1.8 15.3,-3 0,-1.2 0,-1.9 0,-2.2 0,-3.5 -0.8,-6 -2.4,-7.4 -2.2,-1.9 -5.4,-2.9 -9.8,-2.9 -4,0 -7,0.7 -8.9,2.1 -1.9,1.4 -3.3,3.9 -4.3,7.5 l -8.4,-1.1 c 0.8,-3.6 2,-6.5 3.8,-8.7 1.7,-2.2 4.3,-3.9 7.6,-5.1 3.3,-1.2 7.1,-1.8 11.5,-1.8 4.3,0 7.8,0.5 10.5,1.5 2.7,1 4.7,2.3 6,3.8 1.3,1.5 2.2,3.5 2.7,5.8 0.3,1.5 0.4,4.1 0.4,7.9 v 11.4 c 0,8 0.2,13 0.5,15.1 0.4,2.1 1.1,4.1 2.2,6.1 h -9 c -0.8,-1.6 -1.3,-3.7 -1.6,-6.1 z m -0.7,-19.1 c -3.1,1.3 -7.8,2.4 -14,3.2 -3.5,0.5 -6,1.1 -7.5,1.7 -1.5,0.6 -2.6,1.6 -3.4,2.8 -0.8,1.2 -1.2,2.6 -1.2,4.1 0,2.3 0.9,4.2 2.6,5.7 1.7,1.5 4.3,2.3 7.6,2.3 3.3,0 6.2,-0.7 8.8,-2.2 2.6,-1.4 4.5,-3.4 5.7,-5.9 0.9,-1.9 1.4,-4.8 1.4,-8.6 z" /><path
       inkscape:connector-curvature="0"
       id="path12"
       d="m 368.9,-467.3 v -50.6 h 7.7 v 7.1 c 1.6,-2.5 3.7,-4.5 6.3,-6 2.6,-1.5 5.6,-2.3 9,-2.3 3.7,0 6.8,0.8 9.2,2.3 2.4,1.6 4.1,3.7 5.1,6.5 4,-5.9 9.2,-8.9 15.6,-8.9 5,0 8.9,1.4 11.6,4.2 2.7,2.8 4,7.1 4,12.8 v 34.7 H 429 v -31.9 c 0,-3.4 -0.3,-5.9 -0.8,-7.4 -0.6,-1.5 -1.6,-2.7 -3,-3.6 -1.5,-0.9 -3.2,-1.4 -5.1,-1.4 -3.6,0 -6.5,1.2 -8.9,3.5 -2.4,2.4 -3.5,6.2 -3.5,11.4 v 29.4 H 399 v -32.9 c 0,-3.8 -0.7,-6.7 -2.1,-8.6 -1.4,-1.9 -3.7,-2.9 -6.9,-2.9 -2.4,0 -4.6,0.6 -6.7,1.9 -2,1.3 -3.5,3.1 -4.5,5.6 -0.9,2.4 -1.4,6 -1.4,10.6 v 26.2 h -8.5 z" /><path
       inkscape:connector-curvature="0"
       id="path14"
       d="m 484.8,-483.6 8.9,1.1 c -1.4,5.2 -4,9.2 -7.8,12.1 -3.8,2.9 -8.6,4.3 -14.5,4.3 -7.4,0 -13.3,-2.3 -17.6,-6.8 -4.3,-4.6 -6.5,-10.9 -6.5,-19.2 0,-8.5 2.2,-15.1 6.6,-19.8 4.4,-4.7 10.1,-7 17.1,-7 6.8,0 12.3,2.3 16.6,6.9 4.3,4.6 6.4,11.1 6.4,19.4 0,0.5 0,1.3 0,2.3 h -37.7 c 0.3,5.6 1.9,9.8 4.7,12.8 2.8,3 6.4,4.4 10.6,4.4 3.1,0 5.8,-0.8 8,-2.5 2.2,-1.7 3.9,-4.4 5.2,-8 z m -28.1,-13.9 h 28.2 c -0.4,-4.3 -1.5,-7.4 -3.2,-9.6 -2.7,-3.3 -6.3,-5 -10.6,-5 -3.9,0 -7.2,1.3 -9.9,4 -2.7,2.7 -4.2,6.2 -4.5,10.6 z" /><path
       inkscape:connector-curvature="0"
       id="path16"
       d="m 501,-482.4 8.5,-1.3 c 0.5,3.4 1.8,6 4,7.8 2.2,1.8 5.2,2.7 9.1,2.7 3.9,0 6.9,-0.8 8.8,-2.4 1.9,-1.6 2.9,-3.5 2.9,-5.6 0,-1.9 -0.8,-3.5 -2.5,-4.6 -1.2,-0.8 -4.1,-1.7 -8.8,-2.9 -6.3,-1.6 -10.6,-3 -13.1,-4.1 -2.4,-1.2 -4.3,-2.8 -5.5,-4.8 -1.3,-2 -1.9,-4.3 -1.9,-6.8 0,-2.3 0.5,-4.3 1.5,-6.3 1,-1.9 2.4,-3.5 4.2,-4.8 1.3,-1 3.2,-1.8 5.5,-2.5 2.3,-0.7 4.8,-1 7.4,-1 4,0 7.5,0.6 10.5,1.7 3,1.1 5.2,2.7 6.6,4.6 1.4,2 2.4,4.6 3,7.8 l -8.4,1.1 c -0.4,-2.6 -1.5,-4.6 -3.3,-6.1 -1.8,-1.5 -4.4,-2.2 -7.7,-2.2 -3.9,0 -6.7,0.7 -8.4,2 -1.7,1.3 -2.5,2.8 -2.5,4.6 0,1.1 0.3,2.1 1,3 0.7,0.9 1.8,1.7 3.3,2.3 0.9,0.3 3.4,1 7.6,2.2 6.1,1.6 10.3,2.9 12.7,4 2.4,1 4.3,2.5 5.6,4.5 1.4,2 2,4.4 2,7.3 0,2.9 -0.8,5.5 -2.5,8.1 -1.7,2.5 -4.1,4.5 -7.2,5.9 -3.1,1.4 -6.7,2.1 -10.7,2.1 -6.6,0 -11.6,-1.4 -15,-4.1 -3.5,-2.8 -5.7,-6.8 -6.7,-12.2 z" /><g
       transform="translate(0,-732)"
       id="g28"><circle
         style="fill:none;stroke:#0970ac;stroke-width:4;stroke-miterlimit:10"
         r="43"
         id="ellipse18"
         cy="236.2"
         cx="209.89999"
         class="st0"
         transform="matrix(0.9693,-0.2458,0.2458,0.9693,-51.632,58.8413)" /><line
         style="fill:none;stroke:#0970ac;stroke-width:4;stroke-miterlimit:10"
         id="line20"
         y2="194.60001"
         x2="199.3"
         y1="277.89999"
         x1="220.39999"
         class="st0" /><line
         style="fill:none;stroke:#0970ac;stroke-width:4;stroke-miterlimit:10"
         id="line22"
         y2="247"
         x2="168.2"
         y1="225.89999"
         x1="251.5"
         class="st0" /><ellipse
         style="fill:none;stroke:#0970ac;stroke-width:4;stroke-miterlimit:10"
         id="ellipse24"
         ry="42.5"
         rx="24.700001"
         cy="236.39999"
         cx="209.89999"
         class="st0"
         transform="matrix(0.9717,-0.2363,0.2363,0.9717,-49.9331,56.2992)" /><path
         style="fill:#0970ac"
         inkscape:connector-curvature="0"
         id="path26"
         d="M 209.9,236.4"
         class="st1" /></g></g></svg>