<svg xmlns="http://www.w3.org/2000/svg" width="120" height="60"><path d="M51.973 32.834a2.49 2.49 0 0 1-1.042 2.096c-.667.49-1.48.745-2.307.72-.35 0-.55-.012-.597-.03-.1-.047-.146-.187-.146-.427a5.83 5.83 0 0 0-.047-.58 5.06 5.06 0 0 1-.047-.568c0-.076.047-.13.152-.152.076-.018.187-.018.328 0l.263.03c1.1 0 1.657-.34 1.657-1.02 0-.322-.246-.615-.732-.878a13.79 13.79 0 0 1-1.358-.802 2.05 2.05 0 0 1-.726-1.633c0-.878.328-1.557.995-2.05a3.71 3.71 0 0 1 2.26-.656c.078-.004.15.043.176.117.04.07.117.3.222.703l.164.72c0 .064-.06.105-.17.123l-1.13.152c-.45.117-.673.37-.673.732 0 .263.234.527.703.802.703.386 1.153.673 1.34.85.48.456.74 1.096.714 1.756m6.604-2.547c-.003-.49-.21-.958-.574-1.288a1.81 1.81 0 0 0-1.288-.562c-.54 0-1.02.217-1.434.65-.398.38-.626.903-.632 1.452 0 .13.105.187.316.187.867 0 1.903-.088 3.103-.263.34-.047.51-.105.51-.176m2.1.533c0 .433-.187.726-.562.866-.252.094-2.06.27-5.427.52.076.515.357.954.85 1.31.468.35.972.52 1.51.52.92 0 1.768-.3 2.54-.896l.28-.228c.047 0 .076.006.094.018l.328.61.304.638c0 .035-.047.1-.14.2a4.34 4.34 0 0 1-3.302 1.364c-1.358 0-2.44-.398-3.25-1.212-.802-.808-1.206-1.885-1.206-3.238 0-1.206.386-2.254 1.153-3.144.735-.894 1.835-1.406 2.992-1.393a3.57 3.57 0 0 1 2.752 1.206 4.07 4.07 0 0 1 1.083 2.857m14.555 4.385c0 .228-.064.34-.2.34a4.18 4.18 0 0 1-.398-.023c-.284-.03-.57-.033-.855-.012l-.45.018c-.117 0-.18-.135-.18-.4l.03-1.206.012-3.677c-.047-.603-.17-1.02-.37-1.24-.222-.246-.632-.37-1.218-.37-.37 0-.785.176-1.247.527-.474.363-.726.732-.744 1.083l.035 5.076c0 .158-.053.234-.158.234a5.36 5.36 0 0 1-.457-.023 6.33 6.33 0 0 0-1.288.006c-.117 0-.176-.082-.176-.252l.03-1.265.023-1.27v-2.108c0-.662-.076-1.13-.234-1.41-.222-.398-.644-.597-1.27-.597-.375 0-.808.152-1.317.468-.562.334-.843.673-.843 1.02v2.56l.018 2.605c0 .17-.07.252-.2.252h-1.64c-.117 0-.176-.076-.176-.234l.018-4.268a15.22 15.22 0 0 0-.369-3.384c0-.076.03-.117.082-.13l.943-.135c.193-.06.486-.117.872-.193l.07-.006c.07 0 .135.205.193.62.06.4.117.615.164.615l.44-.386a5.15 5.15 0 0 1 1.036-.708 3.22 3.22 0 0 1 1.487-.386c1.347 0 2.2.55 2.576 1.645a4.46 4.46 0 0 1 1.347-1.153c.513-.3 1.1-.48 1.698-.492 1.083 0 1.833.316 2.248.948.293.468.445 1.206.445 2.213l-.018.896.012 2.56.023 1.657m8.033-3.94a2.81 2.81 0 0 0-.644-1.856 2.13 2.13 0 0 0-1.721-.831 2.21 2.21 0 0 0-1.756.826 2.76 2.76 0 0 0-.673 1.856c0 .708.222 1.323.673 1.844.427.52 1.067.82 1.74.818s1.3-.3 1.732-.835c.428-.51.657-1.16.644-1.827m2.242-3.66l-.03.158a20.97 20.97 0 0 0-.34 3.454l.217 3.94.012.117c0 .176-.07.258-.234.258-.158 0-.404.018-.726.06l-.726.06c-.11 0-.193-.205-.252-.615s-.117-.615-.17-.615c-.035 0-.193.117-.468.34-.35.28-.673.498-.966.644-.468.234-.925.35-1.388.35-1.114.01-2.17-.5-2.87-1.358a4.52 4.52 0 0 1-1.107-3.027c0-1.294.375-2.365 1.112-3.22a3.9 3.9 0 0 1 3.074-1.317c.896 0 1.674.3 2.342.93l.468.504.047.03c.035 0 .088-.187.152-.55.06-.37.146-.556.246-.556.152 0 .45.047.884.135.48.105.72.2.72.28m6.31 6.317a5.34 5.34 0 0 1-.035.527l-.053.527c0 .11-.012.176-.023.2-.023.04-.082.082-.164.117-.486.234-1.235.35-2.266.35-1.37 0-2.05-.626-2.05-1.862l.03-2.242.035-2.237c0-.234-.117-.37-.357-.386l-.644-.006c-.117-.03-.18-.27-.18-.72a4.21 4.21 0 0 1 .035-.533c.018-.14.117-.228.28-.258l.427-.006c.27-.012.4-.135.4-.363l-.047-2.143c0-.427.082-.644.246-.644.053 0 .603.094 1.65.275.13.018.2.082.2.193 0 .258-.018.644-.06 1.153l-.06 1.16c0 .17.082.252.24.252h2.108c.094 0 .146.035.146.105s-.012.18-.03.34c-.04.248-.05.5-.023.75l.006.404c0 .11-.082.164-.246.164a19.14 19.14 0 0 1-1.054-.047l-1.066-.047c-.047 0-.082.164-.105.498l-.047 1.745v1.306c0 .504.047.855.14 1.054.14.3.433.45.872.45.176 0 .445-.035.796-.117.35-.076.61-.117.78-.117.07 0 .105.053.105.158m6.598-3.63c-.003-.49-.21-.958-.574-1.288a1.81 1.81 0 0 0-1.294-.562c-.54 0-1.02.217-1.434.65-.396.38-.622.903-.626 1.452 0 .13.105.187.316.187.86 0 1.897-.088 3.103-.263.34-.047.51-.105.51-.176m2.084.533c0 .433-.187.726-.562.866-.246.094-2.06.27-5.427.52.076.515.363.954.855 1.31.468.35.966.52 1.505.52a4.07 4.07 0 0 0 2.822-1.124c.047 0 .082.006.094.018.018.012.123.217.328.61.116.206.22.42.3.638 0 .035-.047.1-.14.2a4.34 4.34 0 0 1-3.308 1.364c-1.358 0-2.436-.398-3.244-1.212-.808-.808-1.212-1.885-1.212-3.238a4.64 4.64 0 0 1 1.159-3.144c.733-.892 1.83-1.405 2.986-1.393a3.57 3.57 0 0 1 2.752 1.206 4.07 4.07 0 0 1 1.083 2.857m7.8 4.55c0 .082-.064.14-.187.17a6.38 6.38 0 0 1-.697-.012c-.457 0-.738-.053-.83-.158l-1.628-2.342c-.066-.1-.145-.194-.234-.275-.058 0-.386.445-.99 1.34-.61.907-.984 1.376-1.112 1.405-.13.018-.544.03-1.24.03-.14 0-.21-.053-.21-.158v-.954c0-.06.386-.568 1.165-1.505l1.17-1.552c0-.088-.392-.597-1.17-1.534l-1.17-1.546v-.937c0-.117.076-.176.217-.176s.363.012.656.035l.656.035c.082 0 .158.04.222.123l1.58 2.348c.064.105.138.203.222.293.017 0 .082-.076.193-.234l1.674-2.44c.058-.082.13-.117.205-.117l.644-.023.644-.018c.146 0 .222.06.222.176v.92c0 .105-.392.626-1.17 1.563l-1.17 1.54c0 .06.386.562 1.17 1.5.78.937 1.17 1.464 1.17 1.57v.937m6.1-1.452a5.31 5.31 0 0 1-.035.527l-.082.726c-.017.04-.076.082-.164.117-.48.234-1.23.35-2.266.35-1.364 0-2.05-.626-2.05-1.862l.07-4.48c0-.234-.117-.37-.357-.386l-.644-.006c-.117-.03-.18-.27-.18-.72a4.21 4.21 0 0 1 .035-.533c.017-.14.11-.228.28-.258l.427-.006c.27-.012.404-.135.404-.363l-.023-1.066-.017-1.077c0-.427.082-.644.246-.644.047 0 .597.094 1.645.275.135.018.205.082.205.193 0 .258-.023.644-.06 1.153l-.058 1.16c0 .17.082.252.234.252h2.108c.1 0 .146.035.146.105a2.38 2.38 0 0 1-.029.34 2.85 2.85 0 0 0-.023.749l.012.404c0 .11-.082.164-.246.164-.234 0-.585-.018-1.06-.047l-1.066-.047c-.047 0-.082.164-.105.498l-.04 1.745v1.306c0 .504.047.855.14 1.054.14.3.427.45.867.45.18 0 .45-.035.802-.117.35-.076.61-.117.78-.117.07 0 .105.053.105.158" fill="#00202f"/><g fill="#1fa0ed"><path d="M28.336 15.787c-1.038-.006-1.763.095-1.763.095-7.194-.092-7.58 9.32-7.58 9.32-.335 0-.754.042-1.047.25-1.927 1.466-.294 3.266-.294 3.266a17.89 17.89 0 0 0-.41.362c-.104-.16-.204-.37-.275-.58-2.094-.042-2.93-.586-3.1-1.466-.21-1.047.377-2.22 1.382-2.177 1.466.042.754.963.545.963s-.335-.084-.42-.168c-.126-.126-.294-.04-.294.126 0 .42.46 1.005 1.382.544.838-.42.88-1.09.628-1.633-.25-.67-.753-1.005-1.34-1.13l-.042-.125c0-.126-.126-.2-.2-.2l-.42-.042c-.126 0-.21.042-.25.168l-.04.21c-.377.042-.754.126-1.047.252l-.2-.168c-.084-.084-.21-.042-.293 0l-.293.252c-.084.084-.126.167-.084.292l.084.168c-.2.21-.46.502-.628.795l-.125-.04c-.126-.042-.2.04-.294.125l-.168.377c-.042.084-.042.21.042.293l.125.168c-.293 1.13.042 2.513 1.927 3.77a15.89 15.89 0 0 0 .67.419l-.083.42c-.042.126.042.293.168.335l.46.2c.115.038.23.036.345-.06-.8 1.186-1.157 2.23-2.676 3.88-.838.92-1.8 1.34-2.68 1.34-1.382 0-2.513-1.09-2.387-2.68.084-1.173.964-1.885 1.927-2.052.126-.042.25-.04.376-.04 1.047 0 1.55.88 1.13 1.717 0 0-.335.838-1.005.88h-.042c-.628 0-.544-.712-.335-.88.042-.042.126-.042.168-.042.126 0 .21.084.335.084.042 0 .083 0 .125-.042.293-.126.252-.376.252-.376-.042-.335-.294-.46-.63-.46-.21 0-.46.083-.628.167-.628.335-.795 1.257-.376 1.843.25.377.67.586 1.173.586.88 0 1.968-.628 2.387-1.885.42-1.214-.503-3.266-2.638-3.266a4.17 4.17 0 0 0-1.508.293c-4.607 1.675-2.47 9.465 1.59 9.465a2.76 2.76 0 0 0 .587-.042c.88-.167 1.675-.586 2.43-1.13l.084.083c.084.084.167.126.25.126s.167-.042.25-.084l.377-.335c.126-.084.167-.25.126-.42l-.083-.25c.293-.25.544-.544.796-.796l.125.083c.084.042.126.042.2.042a.38.38 0 0 0 .293-.125l.294-.377c.084-.126.125-.293.04-.42l-.125-.2c.25-.335.502-.628.754-.92l.084.042c.042.042.126.04.2.04.126 0 .21-.042.293-.168l.293-.376c.084-.126.126-.293.042-.42l-.084-.168c.46-.545.838-.88 1.13-.88.167 0 .293.125.42.376.084.167.167.377.335.63l-.042.04c-.168.126-.21.335-.083.503l.25.42a.38.38 0 0 0 .335.168h.168l.545.92c-.168.126-.2.335-.084.503l.252.42a.38.38 0 0 0 .334.168h.084l.125-.04c.168.293.377.586.587.88l-.042.042c-.126.126-.168.335-.042.503l.293.376c.084.084.168.168.294.168h.125l.083-.04c1.885 2.68 4.188 5.193 5.947 5.193h.083c3.14-.125 2.974-6.616.754-6.616-.126 0-.25 0-.377.04-1.424.42-1.34 2.178-1.34 2.178s.712-1.005 1.13-1.005c.335 0 .545.502.294 2.22-.084.628-.335.922-.628.922-1.59 0-5.528-7.664-5.528-9.004 0-.126.084-.168.2-.168.167 0 .377.084.712.2l-.084.292c-.042.168.042.377.2.46l.46.168c.042 0 .083.042.125.042.084 0 .2-.042.294-.126l.21-.25c.21.126.46.25.712.377l-.084.334c-.042.168.042.377.2.46l.46.168c.042 0 .083.042.125.042.084 0 .21-.042.293-.126l.2-.21c.293.167.628.335.963.544l-.084.293c-.042.167.042.377.2.46l.46.168c.042 0 .083.04.125.04.084 0 .2-.04.294-.125l.167-.168c.335.167.67.377.964.544l-.084.294c-.042.168.042.377.2.46l.46.168c.042 0 .083.042.125.042.084 0 .2-.042.294-.125l.167-.168c1.256.67 2.555 1.34 3.77 1.884 1.59.712 3.225 1.13 4.607 1.13 1.8 0 3.225-.71 3.56-2.554 0-.042 0-.126.042-.168l.168-.042c.167-.042.334-.21.334-.335l.042-.376c.084-.168 0-.252-.125-.294h-.25c0-.46-.084-.837-.168-1.214l.126-.168c.126-.167.126-.377.042-.46l-.2-.294c-.042-.042-.25-.083-.46-.083h-.042a3.17 3.17 0 0 0-.879-.796l-.083-.376c-.042-.167-.168-.335-.335-.377l-.377-.04c-.084 0-.293.167-.42.334-.25-.042-.502-.083-.795-.083-1.382 0-2.68.712-2.806 2.052-.042.586-.042 1.298 1.173 2a1.99 1.99 0 0 0 1.047.294c1.005 0 1.926-.628 1.675-1.55-.168-.712-.67-.963-1.173-.963a1.31 1.31 0 0 0-.88.335c-.293.42-.084.92.2.92s.2-.25.2-.25c-.168-.293.042-.42.334-.42.25 0 .545.126.545.46.042.46-.544.628-.754.67h-.042c-1.34 0-1.298-1.256-1.047-1.55.377-.545.92-.754 1.382-.754 1.214 0 2.346 1.298 1.592 2.847-.25.544-.67 1.005-1.592 1.005-.545 0-1.298-.168-2.303-.628-3.433-1.476-8.24-3.712-9.403-5.762.73.2 1.822.443 2.2.57v.294c0 .126.084.25.2.293l.46.168c.126.042.293 0 .377-.126l.168-.25c.335.084.712.126 1.09.168l.125.377c.042.126.168.21.294.21l.503-.04c.125 0 .25-.125.293-.25l.042-.252c.42-.042.837-.084 1.256-.2l.293.293c.084.084.25.126.376.084l.46-.2c.126-.042.2-.21.168-.335l-.042-.335c.293-.126.544-.293.838-.503 3.476-2.303 1.717-4.23.586-5.15-1.09-.92.168-1.8 1.508-1.8.377 0 1.047.042 1.466.084.084 0 .126-.126.042-.168-1.047-.586-2-.67-2.764-.46l-.084-.084c-.084-.084-.167-.125-.293-.083l-.377.168c-.126.042-.167.168-.167.252v.125c-.2.126-.377.25-.503.42l-.168-.083c-.057-.02-.104-.01-.144.01.8-2.305-.52-5.06-.52-5.06-.916-3.24-4.713-3.767-6.997-3.78zm7.198 9.522a.23.23 0 0 0 .042.061l.084.083c-.126.293-.168.545-.168.796l-.168.167c-.084.084-.083.2-.04.294l.2.376c.042.084.167.168.293.126l.168-.042c.377.42.838.67.712 1.382-.168.92-1.173 1.508-3.685 1.466-1.32-.035-3.1-.785-4.03-1.266.496-.196 1.063-.357 1.67-.622.732-.102 1.833-.385 3.552-1.45.624-.386 1.06-.858 1.362-1.372zm-10.553.983a1.59 1.59 0 1 1 0 3.182 1.59 1.59 0 1 1 0-3.182z" stroke="#000" stroke-opacity=".17" stroke-width=".295"/><path d="M24.02 27.38s-.21 1.173.92 1.173.92-1.173.92-1.173c-.963.586-1.843 0-1.843 0"/></g></svg>