<svg xmlns="http://www.w3.org/2000/svg" stroke-miterlimit="1.41400003" width="120" height="60" fill-rule="evenodd" stroke-linejoin="round"><path d="M78.96 30.018V30c0-1.662 1.273-3.07 3.063-3.07 1.035 0 1.67.288 2.282.806l-.662.79c-.46-.4-.908-.636-1.663-.636-1.094 0-1.926.96-1.926 2.094V30c0 1.222.806 2.12 2.017 2.12.558 0 1.07-.178 1.433-.45v-1.11h-1.517v-.908h2.528v2.495c-.587.5-1.426.924-2.477.924-1.86 0-3.078-1.323-3.078-3.053zm-34.148.432v-3.42h1.043v3.376c0 1.102.57 1.685 1.502 1.685.925 0 1.493-.55 1.493-1.645V27.03h1.043v3.367c0 1.773-1.003 2.663-2.557 2.663-1.546 0-2.528-.9-2.528-2.615zm-8.316 1.654l.627-.747c.568.492 1.145.772 1.875.772.645 0 1.052-.305 1.052-.747v-.017c0-.424-.237-.653-1.34-.908-1.262-.305-1.977-.678-1.977-1.773v-.017c0-1.018.85-1.722 2.028-1.722.864 0 1.554.263 2.156.748l-.558.788c-.533-.398-1.07-.61-1.612-.61-.61 0-.967.314-.967.704v.018c0 .46.274.664 1.42.934 1.258.306 1.9.755 1.9 1.74v.018c0 1.112-.872 1.773-2.12 1.773a3.66 3.66 0 0 1-2.477-.948zm62.91.866h-1.102l-.602-1.434h-2.808l-.61 1.437h-1.07l2.612-5.982h.967l2.615 5.982zm-27.778 0h-1.043v-5.938h2.648c.748 0 1.33.22 1.714.594.314.325.492.766.492 1.284v.018c0 .977-.584 1.56-1.408 1.798l1.605 2.25H74.4l-1.46-2.068h-1.306v2.072zm-16.57 0h-1.043v-5.938h2.342c1.393 0 2.258.79 2.258 1.985v.017c0 1.33-1.07 2.027-2.374 2.027h-1.178v1.91zM116.57 28h-1.883v4.97h-1.052V28h-1.884v-.967h4.818zm-49.917-.034h-3.36v1.546h2.977v.934h-2.978v1.598h3.402v.934H62.25v-5.942h4.402v.934zm37.348 5.007h-1.026v-5.938h.967l3.18 4.106v-4.11h1.027v5.938h-.874l-3.274-4.224v4.224zm-14.363 0h-1.044v-5.938h1.044zm7.68-2.358l-1.026-2.375-1.018 2.376h2.044zm-41.05-.492c.79 0 1.28-.44 1.28-1.06v-.018c0-.697-.5-1.06-1.28-1.06h-1.213v2.137h1.213zm16.884-.144c.747 0 1.222-.4 1.222-.992v-.018c0-.635-.458-.98-1.23-.98h-1.517v1.995h1.528z" fill="#606060"/><path d="M9.405 17.74C2.633 20.36-.73 27.973 1.9 34.745S12.122 44.88 18.892 42.26c4.348-1.682 7.288-5.42 8.146-9.672-1.6 1.058-3.477 2.02-5.527 2.817-7.784 3.012-15.27 2.412-16.72-1.338-.665-1.716.05-3.796 1.765-5.832a.72.72 0 0 1-.107-.189.75.75 0 0 1 1.113-.899c2.08-2.024 5.1-3.936 8.686-5.326 2.26-.872 4.488-1.442 6.555-1.72-2.4-2.092-5.475-3.247-8.66-3.25-1.622 0-3.23.302-4.74.89zm6.98 4.42c-3.57 1.38-6.568 3.273-8.578 5.245a.75.75 0 0 1-.381 1.074c-.19.075-.405.067-.59-.02-1.497 1.805-2.115 3.612-1.54 5.1 1.32 3.413 8.427 3.844 15.873.963 2.292-.887 4.35-1.985 6.06-3.18a13.1 13.1 0 0 0 .034-2.285c-1.56 1.558-3.872 3.034-6.624 4.098-2.607 1.01-5.168 1.478-7.302 1.44a1.25 1.25 0 0 1-.723.746c-.637.246-1.357-.07-1.6-.708a1.21 1.21 0 0 1-.079-.341c-1.43-.375-2.454-1.095-2.86-2.137-1.09-2.817 2.765-6.933 8.6-9.198 2.69-1.04 5.33-1.506 7.503-1.433a13.3 13.3 0 0 0-1.049-1.104c-2.1.262-4.42.84-6.765 1.747zm.432 1.115c-5.515 2.134-9.204 5.878-8.244 8.363.354.912 1.28 1.524 2.588 1.835.134-.192.326-.345.56-.436a1.24 1.24 0 0 1 1.585.671c2.018.012 4.476-.46 6.988-1.43 2.936-1.137 5.357-2.732 6.832-4.35a12.93 12.93 0 0 0-.518-2.095c-.683 1.688-3.14 3.64-6.402 4.902-4.308 1.667-8.384 1.5-9.1-.375-.13-.332-.143-.696-.058-1.08-.147-.102-.26-.245-.323-.413a.89.89 0 0 1 .503-1.156.87.87 0 0 1 .649.006c1.107-1.378 3.165-2.784 5.7-3.77 3.104-1.2 6.09-1.45 7.787-.79a13.1 13.1 0 0 0-.893-1.288c-.24-.015-.488-.023-.74-.023-2.01 0-4.44.473-6.924 1.433zm.905 1.027c-2.537.982-4.567 2.35-5.546 3.613a.93.93 0 0 1 .201.308c.177.463-.05.982-.503 1.16-.1.043-.223.06-.332.06a1.18 1.18 0 0 0 .079.415c.59 1.534 4.287 1.534 8.247 0s6.692-4.02 6.1-5.552c-.3-.765-1.372-1.15-2.863-1.15s-3.41.384-5.4 1.15zM16.6 27.878c-.43-1.1.124-2.364 1.235-2.794s2.364.124 2.794 1.235-.124 2.364-1.235 2.794a2.11 2.11 0 0 1-.777.146c-.866 0-1.686-.524-2.017-1.378z" fill="url(#A)" transform="translate(2.429)"/><defs><radialGradient id="A" cx="0" cy="0" r="1" gradientUnits="userSpaceOnUse" gradientTransform="matrix(13.443484,22.959619,-23.188247,13.310923,7.1846082,18.67507)"><stop offset="0%" stop-color="#e2007f"/><stop offset="100%" stop-color="#6600c4"/></radialGradient></defs></svg>