<svg xmlns="http://www.w3.org/2000/svg" width="64" height="64"><g transform="matrix(3.012497 0 0 3.012497 -35.972233 -69.0475)" fill="#b5226e"><path d="M22.563 28.82c1.592.001 3.077.804 3.95 2.136s1.015 3.014.38 4.474l.425 2.8-2.69-.425a4.72 4.72 0 0 1-6.45-5.971 4.72 4.72 0 0 1 4.388-3.004zm0-1.803c-2.6.002-4.967 1.56-5.993 3.96s-.524 5.18 1.278 7.07 4.555 2.522 7 1.61l4.62.732-.722-4.753a6.53 6.53 0 0 0-6.182-8.618z"/><rect rx=".466" height="2.588" width="2.588" y="22.92" x="21.269"/><rect rx=".466" height="2.588" width="2.588" y="38.379" x=".272" transform="rotate(315)"/><rect rx=".466" height="2.588" width="2.588" y="32.248" x="30.598"/><rect rx=".466" height="2.588" width="2.588" y="41.578" x="21.269"/><rect rx=".466" height="2.588" width="2.588" y="38.38" x="-18.386" transform="rotate(315)"/><rect rx=".466" height="2.588" width="2.588" y="32.248" x="11.941"/><rect rx=".466" height="2.588" width="2.588" y="29.051" x="-9.057" transform="rotate(315)"/></g></svg>