<?xml version="1.0" encoding="UTF-8" standalone="no"?>
<svg
   xmlns:dc="http://purl.org/dc/elements/1.1/"
   xmlns:cc="http://creativecommons.org/ns#"
   xmlns:rdf="http://www.w3.org/1999/02/22-rdf-syntax-ns#"
   xmlns:svg="http://www.w3.org/2000/svg"
   xmlns="http://www.w3.org/2000/svg"
   xmlns:sodipodi="http://sodipodi.sourceforge.net/DTD/sodipodi-0.dtd"
   xmlns:inkscape="http://www.inkscape.org/namespaces/inkscape"
   id="Carbonite_Logo"
   data-name="Carbonite Logo"
   viewBox="0 0 64 64.000001"
   version="1.1"
   sodipodi:docname="carbonite-icon.svg"
   width="64"
   height="64"
   inkscape:version="0.92.3 (2405546, 2018-03-11)">
  <metadata
     id="metadata104">
    <rdf:RDF>
      <cc:Work
         rdf:about="">
        <dc:format>image/svg+xml</dc:format>
        <dc:type
           rdf:resource="http://purl.org/dc/dcmitype/StillImage" />
        <dc:title>logo.carbonite</dc:title>
      </cc:Work>
    </rdf:RDF>
  </metadata>
  <sodipodi:namedview
     pagecolor="#ffffff"
     bordercolor="#666666"
     borderopacity="1"
     objecttolerance="10"
     gridtolerance="10"
     guidetolerance="10"
     inkscape:pageopacity="0"
     inkscape:pageshadow="2"
     inkscape:window-width="1920"
     inkscape:window-height="1001"
     id="namedview102"
     showgrid="false"
     inkscape:zoom="3.7923234"
     inkscape:cx="116.29162"
     inkscape:cy="-8.3734768"
     inkscape:window-x="-9"
     inkscape:window-y="-9"
     inkscape:window-maximized="1"
     inkscape:current-layer="Carbonite_Logo" />
  <defs
     id="defs62">
    <style
       id="style2">.cls-1{fill:none;}.cls-2{fill:#495252;}.cls-3{fill:#495151;}.cls-4{clip-path:url(#clip-path);}.cls-5{fill:url(#radial-gradient);}.cls-6{fill:url(#radial-gradient-2);}.cls-7{fill:url(#linear-gradient);}.cls-8{fill:url(#linear-gradient-2);}.cls-9{fill:url(#linear-gradient-3);}.cls-10{fill:#485151;}</style>
    <clipPath
       id="clip-path">
      <path
         class="cls-1"
         d="m 1869.17,9 c -4.2,0 -8.15,0.19 -11.76,0.52 -11.76,0.87 -27,4.3 -37.87,9.18 -37.28,16.05 -54.2,44.74 -59.94,77.15 -4.88,28.68 0.29,70.83 32.12,100.09 33,30.11 84.32,31.55 114.44,24.1 36.72,-9.76 60.8,-27.82 73.71,-66 10.32,-31 7.75,-73.7 -16.07,-104.1 -25.75,-32.26 -66.09,-41 -94.64,-41 v 0"
         id="path4"
         inkscape:connector-curvature="0"
         style="fill:none" />
    </clipPath>
    <radialGradient
       id="radial-gradient"
       cx="571.06"
       cy="2395.04"
       r="6.4000001"
       gradientTransform="matrix(-17.96,0,0,-26.95,12131.66,64650.71)"
       gradientUnits="userSpaceOnUse">
      <stop
         offset="0"
         stop-color="#94bc42"
         id="stop7" />
      <stop
         offset="0.46"
         stop-color="#93ba42"
         id="stop9" />
      <stop
         offset="0.68"
         stop-color="#8db241"
         id="stop11" />
      <stop
         offset="0.84"
         stop-color="#85a63f"
         id="stop13" />
      <stop
         offset="0.97"
         stop-color="#78943c"
         id="stop15" />
      <stop
         offset="1"
         stop-color="#758f3b"
         id="stop17" />
    </radialGradient>
    <radialGradient
       id="radial-gradient-2"
       cx="3118.3799"
       cy="1439.51"
       r="519.46002"
       gradientTransform="matrix(0.27,0,0,-0.27,1028.74,603.18)"
       gradientUnits="userSpaceOnUse">
      <stop
         offset="0"
         stop-color="#fff"
         id="stop20" />
      <stop
         offset="0.03"
         stop-color="#fbfcf3"
         id="stop22" />
      <stop
         offset="0.21"
         stop-color="#dfe6a4"
         id="stop24" />
      <stop
         offset="0.3"
         stop-color="#d4de85"
         id="stop26" />
      <stop
         offset="0.53"
         stop-color="#aac657"
         id="stop28" />
      <stop
         offset="0.76"
         stop-color="#8eb43d"
         stop-opacity="0"
         id="stop30" />
    </radialGradient>
    <linearGradient
       id="linear-gradient"
       x1="1871.8199"
       y1="866.06"
       x2="1871.8199"
       y2="949.65002"
       gradientTransform="matrix(1,0,0,-1,0,941.56)"
       gradientUnits="userSpaceOnUse">
      <stop
         offset="0"
         stop-color="#93b93d"
         id="stop33" />
      <stop
         offset="0.36"
         stop-color="#b8d17f"
         id="stop35" />
      <stop
         offset="1"
         stop-color="#fff"
         id="stop37" />
    </linearGradient>
    <linearGradient
       id="linear-gradient-2"
       x1="1871.8199"
       y1="227.84"
       x2="1871.8199"
       y2="4.73"
       gradientUnits="userSpaceOnUse">
      <stop
         offset="0"
         stop-color="#4f4e51"
         id="stop40" />
      <stop
         offset="1"
         stop-color="#fff"
         id="stop42" />
    </linearGradient>
    <linearGradient
       id="linear-gradient-3"
       x1="1871.86"
       y1="216.99001"
       x2="1871.86"
       y2="15.62"
       gradientUnits="userSpaceOnUse">
      <stop
         offset="0"
         stop-color="#dcdddd"
         id="stop45" />
      <stop
         offset="0.01"
         stop-color="#d7d8d9"
         id="stop47" />
      <stop
         offset="0.11"
         stop-color="#babbbc"
         id="stop49" />
      <stop
         offset="0.21"
         stop-color="#a2a3a4"
         id="stop51" />
      <stop
         offset="0.33"
         stop-color="#8f9192"
         id="stop53" />
      <stop
         offset="0.47"
         stop-color="#828486"
         id="stop55" />
      <stop
         offset="0.64"
         stop-color="#7a7c7e"
         id="stop57" />
      <stop
         offset="1"
         stop-color="#787a7c"
         id="stop59" />
    </linearGradient>
  </defs>
  <title
     id="title64">logo.carbonite</title>
  <g
     id="Dot"
     transform="matrix(0.27076259,0,0,0.27076259,-474.8067,0.50464229)">
    <g
       class="cls-4"
       clip-path="url(#clip-path)"
       id="g86">
      <rect
         class="cls-5"
         x="1754.73"
         y="9.04"
         width="235.47"
         height="218.49001"
         id="rect84"
         style="fill:url(#radial-gradient)" />
    </g>
    <g
       class="cls-4"
       clip-path="url(#clip-path)"
       id="g92">
      <path
         class="cls-6"
         d="m 1763.35,129.76 c 38.81,-31.5 121.49,-38.41 171.68,-21.69 62.19,19.91 77,49.21 68.34,83.75 -7.66,28.66 -45,74.66 -74.07,106.15 -28.67,30 -52.62,35.2 -72.36,30.46 -22.11,-5.39 -40.5,-21.75 -68.85,-56.48 -8.47,-10.15 -19.29,-24 -26.7,-34.88 -17.19,-25.87 -45.59,-69.43 2,-107.31"
         id="path88"
         inkscape:connector-curvature="0"
         style="fill:url(#radial-gradient-2)" />
      <path
         class="cls-7"
         d="m 1938.67,42.21 c 1.06,16.5 -29,37.86 -66.85,39 -37.8,-1.14 -67.9,-22.57 -66.85,-39 1.3,-17.89 28.78,-33 66.85,-32.9 38.07,0.1 65.59,15 66.85,32.9"
         id="path90"
         inkscape:connector-curvature="0"
         style="fill:url(#linear-gradient)" />
    </g>
    <path
       class="cls-8"
       d="m 1797,189.78 c -28.88,-26.53 -34.2,-65.31 -29.53,-92.66 6.09,-34.4 24.06,-57.59 55.1,-71 9.43,-4.23 23.56,-7.63 35.39,-8.5 3.53,-0.32 7.26,-0.49 11.09,-0.49 17.53,0 61.29,3.69 88.5,37.79 22.71,29 23.73,69.38 14.7,96.49 -11.21,33.13 -30.9,50.65 -67.78,60.45 a 133.58,133.58 0 0 1 -31.43,3.57 c -17.9,0 -51.59,-3.35 -76,-25.68 m 72,-185 c -4.37,0 -8.47,0.19 -12.22,0.53 -12.22,0.9 -28,4.48 -39.33,9.55 -38.72,16.67 -56.3,46.46 -62.25,80.12 -5.06,29.79 0.3,73.57 33.36,104 23.59,21.54 56.21,28.94 84.45,28.94 a 146.49,146.49 0 0 0 34.41,-3.92 c 38.13,-10.13 63.16,-28.9 76.55,-68.52 10.71,-32.17 8,-76.54 -16.69,-108.12 C 1940.6,13.89 1898.74,4.78 1869.09,4.78 v 0"
       id="path94"
       inkscape:connector-curvature="0"
       style="fill:url(#linear-gradient-2)" />
    <path
       class="cls-9"
       d="m 1798.1,188.64 c -28.42,-26.13 -33.66,-64.27 -29.06,-91.25 6,-33.84 23.71,-56.69 54.21,-69.82 9.28,-4.16 23.29,-7.53 34.91,-8.37 3.47,-0.32 7.16,-0.48 10.95,-0.48 17.31,0 60.49,3.62 87.29,37.18 22.35,28.54 23.36,68.3 14.45,95 -11,32.56 -30.35,49.78 -66.68,59.43 a 131.6,131.6 0 0 1 -31,3.52 c -17.67,0 -50.93,-3.28 -75,-25.26 M 1858,16.11 c -11.91,0.88 -26.33,4.35 -35.89,8.63 -31.51,13.57 -49.83,37.17 -56,72.14 -4.74,27.78 0.67,67.09 30,94 24.85,22.69 59,26.09 77.1,26.09 a 135.15,135.15 0 0 0 31.81,-3.6 c 37.5,-10 57.45,-27.76 68.84,-61.46 9.19,-27.53 8.12,-68.48 -15,-98 -27.64,-34.62 -71.95,-38.36 -89.72,-38.36 -3.89,0 -7.67,0.16 -11.2,0.49"
       id="path96"
       inkscape:connector-curvature="0"
       style="fill:url(#linear-gradient-3)" />
  </g>
</svg>
