<?xml version="1.0" encoding="UTF-8" standalone="no"?>
<!-- Created with Inkscape (http://www.inkscape.org/) -->

<svg
   xmlns:dc="http://purl.org/dc/elements/1.1/"
   xmlns:cc="http://creativecommons.org/ns#"
   xmlns:rdf="http://www.w3.org/1999/02/22-rdf-syntax-ns#"
   xmlns:svg="http://www.w3.org/2000/svg"
   xmlns="http://www.w3.org/2000/svg"
   xmlns:xlink="http://www.w3.org/1999/xlink"
   xmlns:sodipodi="http://sodipodi.sourceforge.net/DTD/sodipodi-0.dtd"
   xmlns:inkscape="http://www.inkscape.org/namespaces/inkscape"
   version="1.0"
   id="svg2"
   sodipodi:version="0.32"
   inkscape:version="0.91 r13725"
   sodipodi:docname="python-official.svg"
   width="256"
   height="74.300041">
  <metadata
     id="metadata371">
    <rdf:RDF>
      <cc:Work
         rdf:about="">
        <dc:format>image/svg+xml</dc:format>
        <dc:type
           rdf:resource="http://purl.org/dc/dcmitype/StillImage" />
        <dc:title></dc:title>
      </cc:Work>
    </rdf:RDF>
  </metadata>
  <sodipodi:namedview
     inkscape:window-height="1056"
     inkscape:window-width="1855"
     inkscape:pageshadow="2"
     inkscape:pageopacity="0.0"
     guidetolerance="10.0"
     gridtolerance="10.0"
     objecttolerance="10.0"
     borderopacity="1.0"
     bordercolor="#666666"
     pagecolor="#ffffff"
     id="base"
     inkscape:zoom="4.6874999"
     inkscape:cx="128"
     inkscape:cy="37.150021"
     inkscape:window-x="65"
     inkscape:window-y="24"
     inkscape:current-layer="svg2"
     width="210mm"
     height="40mm"
     units="px"
     showgrid="false"
     fit-margin-top="0"
     fit-margin-left="0"
     fit-margin-right="0"
     fit-margin-bottom="0"
     inkscape:window-maximized="1" />
  <defs
     id="defs4">
    <linearGradient
       id="linearGradient2795">
      <stop
         style="stop-color:#b8b8b8;stop-opacity:0.49803922;"
         offset="0"
         id="stop2797" />
      <stop
         style="stop-color:#7f7f7f;stop-opacity:0;"
         offset="1"
         id="stop2799" />
    </linearGradient>
    <linearGradient
       id="linearGradient2787">
      <stop
         style="stop-color:#7f7f7f;stop-opacity:0.5;"
         offset="0"
         id="stop2789" />
      <stop
         style="stop-color:#7f7f7f;stop-opacity:0;"
         offset="1"
         id="stop2791" />
    </linearGradient>
    <linearGradient
       id="linearGradient3676">
      <stop
         style="stop-color:#b2b2b2;stop-opacity:0.5;"
         offset="0"
         id="stop3678" />
      <stop
         style="stop-color:#b3b3b3;stop-opacity:0;"
         offset="1"
         id="stop3680" />
    </linearGradient>
    <linearGradient
       id="linearGradient3236">
      <stop
         style="stop-color:#f4f4f4;stop-opacity:1"
         offset="0"
         id="stop3244" />
      <stop
         style="stop-color:white;stop-opacity:1"
         offset="1"
         id="stop3240" />
    </linearGradient>
    <linearGradient
       id="linearGradient4671">
      <stop
         style="stop-color:#ffd43b;stop-opacity:1;"
         offset="0"
         id="stop4673" />
      <stop
         style="stop-color:#ffe873;stop-opacity:1"
         offset="1"
         id="stop4675" />
    </linearGradient>
    <linearGradient
       id="linearGradient4689">
      <stop
         style="stop-color:#5a9fd4;stop-opacity:1;"
         offset="0"
         id="stop4691" />
      <stop
         style="stop-color:#306998;stop-opacity:1;"
         offset="1"
         id="stop4693" />
    </linearGradient>
    <linearGradient
       x1="224.23996"
       y1="144.75717"
       x2="-65.308502"
       y2="144.75717"
       id="linearGradient2987"
       xlink:href="#linearGradient4671"
       gradientUnits="userSpaceOnUse"
       gradientTransform="translate(100.2702,99.61116)" />
    <linearGradient
       x1="172.94208"
       y1="77.475983"
       x2="26.670298"
       y2="76.313133"
       id="linearGradient2990"
       xlink:href="#linearGradient4689"
       gradientUnits="userSpaceOnUse"
       gradientTransform="translate(100.2702,99.61116)" />
    <linearGradient
       inkscape:collect="always"
       xlink:href="#linearGradient4689"
       id="linearGradient2587"
       gradientUnits="userSpaceOnUse"
       gradientTransform="translate(100.2702,99.61116)"
       x1="172.94208"
       y1="77.475983"
       x2="26.670298"
       y2="76.313133" />
    <linearGradient
       inkscape:collect="always"
       xlink:href="#linearGradient4671"
       id="linearGradient2589"
       gradientUnits="userSpaceOnUse"
       gradientTransform="translate(100.2702,99.61116)"
       x1="224.23996"
       y1="144.75717"
       x2="-65.308502"
       y2="144.75717" />
    <linearGradient
       inkscape:collect="always"
       xlink:href="#linearGradient4689"
       id="linearGradient2248"
       gradientUnits="userSpaceOnUse"
       gradientTransform="translate(100.2702,99.61116)"
       x1="172.94208"
       y1="77.475983"
       x2="26.670298"
       y2="76.313133" />
    <linearGradient
       inkscape:collect="always"
       xlink:href="#linearGradient4671"
       id="linearGradient2250"
       gradientUnits="userSpaceOnUse"
       gradientTransform="translate(100.2702,99.61116)"
       x1="224.23996"
       y1="144.75717"
       x2="-65.308502"
       y2="144.75717" />
    <linearGradient
       inkscape:collect="always"
       xlink:href="#linearGradient4671"
       id="linearGradient2255"
       gradientUnits="userSpaceOnUse"
       gradientTransform="matrix(0.562541,0,0,0.567972,-11.5974,-7.60954)"
       x1="224.23996"
       y1="144.75717"
       x2="-65.308502"
       y2="144.75717" />
    <linearGradient
       inkscape:collect="always"
       xlink:href="#linearGradient4689"
       id="linearGradient2258"
       gradientUnits="userSpaceOnUse"
       gradientTransform="matrix(0.562541,0,0,0.567972,-11.5974,-7.60954)"
       x1="172.94208"
       y1="76.176224"
       x2="26.670298"
       y2="76.313133" />
    <radialGradient
       inkscape:collect="always"
       xlink:href="#linearGradient2795"
       id="radialGradient2801"
       cx="61.518883"
       cy="132.28575"
       fx="61.518883"
       fy="132.28575"
       r="29.036913"
       gradientTransform="matrix(1,0,0,0.177966,0,108.7434)"
       gradientUnits="userSpaceOnUse" />
    <linearGradient
       inkscape:collect="always"
       xlink:href="#linearGradient4671"
       id="linearGradient1475"
       gradientUnits="userSpaceOnUse"
       gradientTransform="matrix(0.30330734,0,0,0.30623559,-8.0828181,-4.619074)"
       x1="150.96111"
       y1="192.35176"
       x2="112.03144"
       y2="137.27299" />
    <linearGradient
       inkscape:collect="always"
       xlink:href="#linearGradient4689"
       id="linearGradient1478"
       gradientUnits="userSpaceOnUse"
       gradientTransform="matrix(0.30330734,0,0,0.30623559,-8.0828181,-4.619074)"
       x1="26.648937"
       y1="20.603781"
       x2="135.66525"
       y2="114.39767" />
    <radialGradient
       inkscape:collect="always"
       xlink:href="#linearGradient2795"
       id="radialGradient1480"
       gradientUnits="userSpaceOnUse"
       gradientTransform="matrix(0,-0.1293731,0.56864932,2.0443019e-7,-45.129274,78.502317)"
       cx="61.518883"
       cy="132.28575"
       fx="61.518883"
       fy="132.28575"
       r="29.036913" />
  </defs>
  <path
     id="path46"
     style="fill:#646464;fill-opacity:1"
     d="m 96.523999,31.6321 c 0,-7.851529 -2.23879,-11.882403 -6.716369,-12.10313 -1.781576,-0.08408 -3.521101,0.199705 -5.213336,0.856628 -1.35063,0.483494 -2.259806,0.961735 -2.738048,1.445229 l 0,18.74067 c 2.864177,1.79734 5.407783,2.63294 7.625551,2.50156 4.693049,-0.31007 7.042202,-4.12022 7.042202,-11.440957 z m 5.523401,0.325833 c 0,3.988824 -0.93546,7.299714 -2.816881,9.932654 -2.0969,2.9798 -5.00312,4.51437 -8.718669,4.59846 -2.801115,0.0893 -5.686315,-0.78831 -8.655604,-2.62769 l 0,17.03267 -4.803412,-1.71325 0,-37.80717 c 0.788304,-0.966986 1.802592,-1.797335 3.03235,-2.501555 2.858926,-1.665956 6.332725,-2.522584 10.421409,-2.564624 l 0.06832,0.06832 c 3.736571,-0.0473 6.616516,1.487273 8.639836,4.598451 1.886681,2.853669 2.832651,6.511413 2.832651,10.983735 z"
     inkscape:connector-curvature="0" />
  <path
     id="path48"
     style="fill:#646464;fill-opacity:1"
     d="m 131.40392,43.136117 c 0,5.34997 -0.53605,9.05501 -1.60814,11.11512 -1.07735,2.0601 -3.12695,3.70504 -6.15405,4.92954 -2.45426,0.96699 -5.10822,1.49252 -7.95663,1.58186 l -0.79356,-3.02709 c 2.8957,-0.39415 4.93479,-0.78831 6.11725,-1.18246 2.32813,-0.78831 3.92577,-1.99704 4.80341,-3.6157 0.70422,-1.3191 1.05108,-3.83642 1.05108,-7.56248 l 0,-1.25078 c -3.28461,1.49253 -6.72688,2.23354 -10.32681,2.23354 -2.36492,0 -4.45131,-0.74101 -6.24864,-2.23354 -2.01807,-1.62391 -3.0271,-3.68402 -3.0271,-6.18032 l 0,-19.991446 4.80341,-1.644933 0,20.122829 c 0,2.14945 0.69371,3.80489 2.08113,4.96633 1.38742,1.16144 3.18476,1.71851 5.38676,1.67647 2.202,-0.0473 4.56166,-0.89868 7.06848,-2.56463 l 0,-23.475756 4.80341,0 0,26.103446 z"
     inkscape:connector-curvature="0" />
  <path
     id="path50"
     style="fill:#646464;fill-opacity:1"
     d="m 150.1551,46.226277 c -0.57283,0.0473 -1.09837,0.0683 -1.58187,0.0683 -2.71703,0 -4.83494,-0.64641 -6.34849,-1.94449 -1.5083,-1.29808 -2.26507,-3.09016 -2.26507,-5.37625 l 0,-18.919349 -3.28986,0 0,-3.021837 3.28986,0 0,-8.024959 4.79816,-1.708 0,9.732959 5.39727,0 0,3.021837 -5.39727,0 0,18.787969 c 0,1.80259 0.48349,3.07965 1.45049,3.82591 0.83034,0.61488 2.14944,0.96699 3.94678,1.05633 l 0,2.50156 z"
     inkscape:connector-curvature="0" />
  <path
     id="path52"
     style="fill:#646464;fill-opacity:1"
     d="m 179.23834,45.832127 -4.80341,0 0,-18.540964 c 0,-1.886682 -0.44145,-3.510592 -1.31909,-4.86648 -1.01429,-1.534569 -2.42274,-2.301856 -4.23058,-2.301856 -2.20201,0 -4.95583,1.161439 -8.26145,3.484318 l 0,22.224982 -4.80342,0 0,-44.31858 L 160.62381,0 l 0,20.185894 c 3.06914,-2.233533 6.42206,-3.352927 10.06403,-3.352927 2.54361,0 4.60372,0.856623 6.18033,2.564623 1.58187,1.707994 2.37017,3.83642 2.37017,6.380021 l 0,20.054516 0,0 z"
     inkscape:connector-curvature="0" />
  <path
     id="path54"
     style="fill:#646464;fill-opacity:1"
     d="m 204.76895,30.875326 c 0,-3.016585 -0.57283,-5.507633 -1.71325,-7.478399 -1.35588,-2.401706 -3.46329,-3.668252 -6.3117,-3.799638 -5.26589,0.304816 -7.89357,4.078175 -7.89357,11.309568 0,3.31614 0.54655,6.08572 1.65018,8.30875 1.40844,2.83264 3.5211,4.23058 6.33799,4.18328 5.2869,-0.042 7.93035,-4.21481 7.93035,-12.523561 z m 5.26064,0.03153 c 0,4.293651 -1.09837,7.867301 -3.28987,10.720971 -2.41221,3.19527 -5.74412,4.79815 -9.99572,4.79815 -4.21481,0 -7.49942,-1.60288 -9.86959,-4.79815 -2.14945,-2.85367 -3.22155,-6.42732 -3.22155,-10.720971 0,-4.036125 1.16144,-7.431097 3.48431,-10.195425 2.45427,-2.932501 5.68107,-4.404004 9.66989,-4.404004 3.98883,0 7.23665,1.471503 9.73822,4.404004 2.32286,2.764328 3.48431,6.1593 3.48431,10.195425 z"
     inkscape:connector-curvature="0" />
  <path
     id="path56"
     style="fill:#646464;fill-opacity:1"
     d="m 237.56775,45.832127 -4.80341,0 0,-19.59204 c 0,-2.149448 -0.64641,-3.825912 -1.93923,-5.034653 -1.29283,-1.203479 -3.01659,-1.786827 -5.16604,-1.739526 -2.28083,0.04205 -4.4513,0.788305 -6.51141,2.233533 l 0,24.132686 -4.80341,0 0,-24.726543 c 2.76433,-2.012806 5.30793,-3.326653 7.6308,-3.941532 2.1915,-0.572835 4.12548,-0.856624 5.79143,-0.856624 1.14042,0 2.21251,0.110364 3.22154,0.331086 1.88668,0.436196 3.42125,1.245523 4.60371,2.433242 1.31909,1.313842 1.97602,2.890457 1.97602,4.735089 l 0,22.025282 z"
     inkscape:connector-curvature="0" />
  <path
     style="fill:url(#linearGradient1478);fill-opacity:1"
     d="m 29.610767,1.691032 c -2.471386,0.01148 -4.831503,0.222257 -6.908164,0.589721 -6.117582,1.080776 -7.228297,3.342933 -7.228298,7.514735 l 0,5.509681 14.456596,0 0,1.836561 -14.456596,0 -5.425436,0 c -4.2014886,0 -7.8804329,2.525337 -9.0311596,7.329393 -1.32734869,5.506563 -1.38622379,8.942744 0,14.692484 1.0276265,4.27988 3.481738,7.32939 7.683226,7.32939 l 4.9705076,0 0,-6.60487 c 0,-4.77164 4.128531,-8.980617 9.03116,-8.980618 l 14.439747,0 c 4.019514,0 7.228299,-3.309536 7.228298,-7.346242 l 0,-13.765779 c 0,-3.91782 -3.305124,-6.860866 -7.228298,-7.514735 C 34.658923,1.867355 32.082152,1.679549 29.610767,1.691032 Z m -7.81802,4.431334 c 1.493267,0 2.712718,1.23937 2.712718,2.763266 -1e-6,1.518494 -1.219451,2.746416 -2.712718,2.746416 -1.49862,0 -2.712718,-1.227922 -2.712718,-2.746416 0,-1.523896 1.214098,-2.763266 2.712718,-2.763266 z"
     id="path1948"
     inkscape:connector-curvature="0" />
  <path
     style="fill:url(#linearGradient1475);fill-opacity:1"
     d="m 46.17351,17.14173 0,6.419537 c 0,4.976981 -4.219517,9.165953 -9.03116,9.165954 l -14.439747,0 c -3.955288,0 -7.228297,3.385196 -7.228298,7.346246 l 0,13.76577 c 0,3.91782 3.406817,6.22224 7.228298,7.34625 4.576146,1.34556 8.964431,1.58874 14.439747,0 3.639506,-1.05376 7.228299,-3.17445 7.228298,-7.34625 l 0,-5.50968 -14.439747,0 0,-1.83656 14.439747,0 7.2283,0 c 4.20149,0 5.767137,-2.93063 7.228293,-7.32939 1.509325,-4.52846 1.445104,-8.883306 0,-14.692484 -1.03833,-4.182609 -3.02146,-7.329393 -7.228293,-7.329393 l -5.425438,0 z m -8.121304,34.860957 c 1.498621,0 2.712717,1.22792 2.712717,2.74641 -1e-6,1.52389 -1.214097,2.76327 -2.712717,2.76327 -1.493269,0 -2.712718,-1.23938 -2.712718,-2.76327 10e-7,-1.51849 1.219447,-2.74641 2.712718,-2.74641 z"
     id="path1950"
     inkscape:connector-curvature="0" />
  <path
     d="m 246.92164,12.750246 0.84216,0 0,-5.281875 1.99502,0 0,-0.629572 -4.83219,0 0,0.629572 1.99501,0 0,5.281875 m 3.5839,0 0.71951,0 0,-4.824004 1.56167,4.823398 0.80104,0 1.62732,-4.807045 0,4.807651 0.78492,0 0,-5.911447 -1.03839,0 -1.77836,5.064382 -1.51668,-5.064382 -1.16103,0 0,5.911447"
     style="font-style:normal;font-weight:normal;font-size:15.16445827px;line-height:125%;font-family:'Bitstream Vera Sans';fill:#646464;fill-opacity:1;stroke:none;stroke-width:1px;stroke-linecap:butt;stroke-linejoin:miter;stroke-opacity:1"
     id="text3004"
     sodipodi:nodetypes="ccccccccccccccccccccccc"
     inkscape:connector-curvature="0" />
  <ellipse
     style="opacity:0.44382025;fill:url(#radialGradient1480);fill-opacity:1;fill-rule:nonzero;stroke:none;stroke-width:20;stroke-miterlimit:4;stroke-dasharray:none;stroke-opacity:1"
     id="path1894"
     cx="30.094931"
     cy="70.543449"
     rx="19.373039"
     ry="3.7565916" />
</svg>
