<svg xmlns="http://www.w3.org/2000/svg" width="519" height="154"><defs><linearGradient id="A" x1="75.522" y1="103.945" x2="53.623" y2="72.662" gradientUnits="userSpaceOnUse"><stop offset="0" stop-color="#ffd43b"/><stop offset="1" stop-color="#ffe873"/></linearGradient><linearGradient id="B" x1="5.591" y1="6.397" x2="66.918" y2="59.669" gradientUnits="userSpaceOnUse"><stop offset="0" stop-color="#5a9fd4"/><stop offset="1" stop-color="#306998"/></linearGradient><radialGradient id="C" gradientTransform="matrix(2.382716e-8,-0.296405,1.43676,4.683673e-7,-128.544,150.5202)" cx="61.519" cy="132.286" fx="61.519" fy="132.286" r="29.037" gradientUnits="userSpaceOnUse"><stop offset="0" stop-color="#b8b8b8" stop-opacity=".498"/><stop offset="1" stop-color="#7f7f7f" stop-opacity="0"/></radialGradient></defs><path d="M184.613 61.93c0-14.562-4.152-22.038-12.457-22.448a23.4 23.4 0 0 0-9.669 1.589c-2.505.897-4.2 1.784-5.078 2.68V78.5c5.312 3.334 10.03 4.883 14.143 4.64 8.704-.575 13.06-7.642 13.06-21.22zm10.244.604c0 7.398-1.735 13.54-5.224 18.422-3.9 5.527-9.28 8.373-16.17 8.53-5.195.166-10.546-1.462-16.053-4.874v31.6l-8.9-3.178v-70.12c1.462-1.793 3.343-3.333 5.624-4.64 5.302-3.1 11.745-4.68 19.328-4.757l.127.127c6.93-.088 12.272 2.758 16.024 8.53 3.5 5.293 5.254 12.077 5.254 20.37zm54.448 20.732c0 9.923-.994 16.794-2.983 20.615-1.998 3.82-5.8 6.872-11.414 9.143-4.552 1.793-9.474 2.768-14.757 2.934l-1.472-5.614c5.37-.73 9.153-1.462 11.346-2.193 4.318-1.462 7.28-3.704 8.9-6.706 1.306-2.447 1.95-7.115 1.95-14.026V85.1a45.77 45.77 0 0 1-19.153 4.143c-4.386 0-8.256-1.374-11.6-4.143-3.743-3.012-5.614-6.833-5.614-11.463v-37.08l8.9-3.05V70.83c0 3.987 1.287 7.057 3.86 9.2s5.907 3.187 10 3.1c4.084-.088 8.46-1.667 13.1-4.757v-43.54h8.9v48.414zm34.777 5.73l-2.934.127c-5.04 0-8.967-1.2-11.774-3.606-2.797-2.408-4.2-5.73-4.2-9.97v-35.1h-6.102v-5.605h6.102V19.968l8.9-3.168v18.052h10v5.605h-10v34.846c0 3.343.897 5.712 2.7 7.096 1.54 1.14 3.987 1.793 7.32 1.96V89zm53.94-.73h-8.9v-34.4c0-3.5-.82-6.5-2.447-9.026-1.88-2.846-4.493-4.27-7.846-4.27-4.084 0-9.192 2.154-15.322 6.462v41.22h-8.9V6.07l8.9-2.807V40.7c5.692-4.143 11.9-6.22 18.666-6.22 4.718 0 8.538 1.6 11.463 4.757 2.934 3.168 4.396 7.115 4.396 11.833v37.195zm47.352-27.74c0-5.595-1.062-10.215-3.178-13.87-2.515-4.454-6.423-6.803-11.706-7.047-9.767.565-14.64 7.564-14.64 20.976 0 6.15 1.014 11.287 3.06 15.4 2.612 5.254 6.53 7.846 11.755 7.76 9.806-.078 14.708-7.817 14.708-23.227zm9.757.058c0 7.963-2.037 14.6-6.102 19.884-4.474 5.926-10.654 8.9-18.54 8.9-7.817 0-13.9-2.973-18.305-8.9-3.987-5.293-5.975-11.92-5.975-19.884 0-7.486 2.154-13.782 6.462-18.9 4.552-5.44 10.537-8.168 17.935-8.168s13.422 2.73 18.06 8.168c4.308 5.127 6.462 11.424 6.462 18.9zm51.075 27.682h-8.9V51.93c0-3.987-1.2-7.096-3.597-9.338-2.398-2.232-5.595-3.314-9.58-3.226-4.23.078-8.256 1.462-12.077 4.143v44.76h-8.9V42.4c5.127-3.733 9.845-6.17 14.153-7.3 4.065-1.062 7.65-1.6 10.74-1.6 2.115 0 4.104.205 5.975.614 3.5.8 6.345 2.3 8.538 4.513 2.447 2.437 3.665 5.36 3.665 8.782v40.85z" fill="#646464"/><path d="M60.5 6.398c-4.584.02-8.96.412-12.812 1.094C36.35 9.496 34.29 13.692 34.29 21.43v10.22h26.813v3.406H24.23c-7.792 0-14.616 4.684-16.75 13.594-2.462 10.213-2.57 16.586 0 27.25 1.906 7.938 6.458 13.594 14.25 13.594h9.22v-12.25c0-8.85 7.657-16.656 16.75-16.656h26.78c7.455 0 13.406-6.138 13.406-13.625V21.43c0-7.266-6.13-12.725-13.406-13.938-4.606-.767-9.385-1.115-13.97-1.094zM46 14.617c2.77 0 5.03 2.3 5.03 5.125 0 2.816-2.262 5.094-5.03 5.094-2.78 0-5.03-2.277-5.03-5.094 0-2.826 2.252-5.125 5.03-5.125z" fill="url(#B)"/><path d="M91.23 35.054V46.96c0 9.23-7.826 17-16.75 17h-26.78c-7.336 0-13.406 6.278-13.406 13.625v25.53c0 7.266 6.32 11.54 13.406 13.625 8.487 2.496 16.626 2.947 26.78 0 6.75-1.954 13.406-5.888 13.406-13.625v-10.22h-26.78v-3.406h40.188c7.792 0 10.696-5.435 13.406-13.594 2.8-8.4 2.68-16.476 0-27.25-1.926-7.757-5.604-13.594-13.406-13.594H91.23zM76.166 99.7c2.78 0 5.03 2.277 5.03 5.094 0 2.826-2.252 5.125-5.03 5.125-2.77 0-5.03-2.3-5.03-5.125 0-2.816 2.262-5.094 5.03-5.094z" fill="url(#A)"/><path d="M463.554 26.91h1.562v-9.796h3.7v-1.168h-8.962v1.168h3.7v9.796m6.647 0h1.334v-8.947l2.896 8.946h1.486l3.018-8.916v8.917h1.456V15.945h-1.926l-3.298 9.393-2.813-9.393H470.2V26.91" fill="#646464"/><path d="M 110.46717 132.28575 A 48.948284 8.6066771 0 1 1 12.570599,132.28575 A 48.948284 8.6066771 0 1 1 110.46717 132.28575 z" transform="matrix(.73406 0 0 .809524 16.24958 27.00935)" opacity=".444" fill="url(#C)"/></svg>