<?xml version="1.0" encoding="UTF-8" standalone="no"?>
<svg
   xmlns:dc="http://purl.org/dc/elements/1.1/"
   xmlns:cc="http://creativecommons.org/ns#"
   xmlns:rdf="http://www.w3.org/1999/02/22-rdf-syntax-ns#"
   xmlns:svg="http://www.w3.org/2000/svg"
   xmlns="http://www.w3.org/2000/svg"
   xmlns:sodipodi="http://sodipodi.sourceforge.net/DTD/sodipodi-0.dtd"
   xmlns:inkscape="http://www.inkscape.org/namespaces/inkscape"
   width="120"
   height="60"
   viewBox="0 0 120 60"
   version="1.1"
   id="svg6"
   sodipodi:docname="evernote-ar21.svg"
   inkscape:version="0.92.2 (5c3e80d, 2017-08-06)">
  <metadata
     id="metadata12">
    <rdf:RDF>
      <cc:Work
         rdf:about="">
        <dc:format>image/svg+xml</dc:format>
        <dc:type
           rdf:resource="http://purl.org/dc/dcmitype/StillImage" />
        <dc:title></dc:title>
      </cc:Work>
    </rdf:RDF>
  </metadata>
  <defs
     id="defs10" />
  <sodipodi:namedview
     pagecolor="#ffffff"
     bordercolor="#666666"
     borderopacity="1"
     objecttolerance="10"
     gridtolerance="10"
     guidetolerance="10"
     inkscape:pageopacity="0"
     inkscape:pageshadow="2"
     inkscape:window-width="1920"
     inkscape:window-height="1001"
     id="namedview8"
     showgrid="false"
     inkscape:zoom="7.5482804"
     inkscape:cx="65.390675"
     inkscape:cy="24.803981"
     inkscape:window-x="-9"
     inkscape:window-y="-9"
     inkscape:window-maximized="1"
     inkscape:current-layer="svg6" />
  <g
     id="g830"
     transform="translate(0.50561156)">
    <path
       style="fill:#807f83;stroke-width:0.05305621"
       inkscape:connector-curvature="0"
       id="path2"
       d="m 6.5361176,20.571732 h 2.8906617 c 0.1655352,0 0.2987061,-0.134763 0.2989715,-0.299078 0,-0.0011 -0.035017,-2.476929 -0.035017,-3.165439 v -0.0081 c 0,-0.565474 0.1186331,-1.058471 0.3253402,-1.47162 l 0.09879,-0.185538 c -0.011,0.0019 -0.02213,0.0073 -0.0331,0.0183 l -5.6129295,5.566047 c -0.010987,0.009 -0.017827,0.02069 -0.02101,0.03273 0.1160866,-0.05746 0.2748311,-0.135984 0.297274,-0.145905 0.4888067,-0.220502 1.0814975,-0.341364 1.7910182,-0.341364 z M 29.014333,19.965671 c -0.229467,-1.228358 -0.959786,-1.833728 -1.62007,-2.071738 -0.712386,-0.257483 -2.156895,-0.524197 -3.971788,-0.738119 -1.460213,-0.171901 -3.176474,-0.158266 -4.213087,-0.126274 -0.124416,-0.852083 -0.722095,-1.630682 -1.390974,-1.900207 -1.781999,-0.71732 -4.535245,-0.543985 -5.242166,-0.345927 -0.561706,0.157046 -1.183472,0.47878 -1.529504,0.974643 -0.232068,0.33107 -0.382217,0.755414 -0.383384,1.348158 0,0.335474 0.0093,1.125746 0.01788,1.827892 0.0085,0.704322 0.0175,1.334257 0.0175,1.338608 -5.31e-4,0.627018 -0.508808,1.137367 -1.1385862,1.138162 h -2.88891 c -0.6165132,0 -1.0871217,0.103461 -1.4468427,0.266872 -0.3602516,0.163413 -0.615452,0.384127 -0.8096378,0.644634 -0.3859307,0.517829 -0.4529407,1.157155 -0.4513491,1.809747 0,0 0.00583,0.532684 0.1342323,1.564627 0.1070137,0.798496 0.9725202,6.375764 1.7948914,8.071971 0.3188677,0.66002 0.5316232,0.934851 1.1576864,1.225705 1.3959087,0.597572 4.5840557,1.262366 6.0781197,1.452679 1.491781,0.191002 2.42785,0.592107 2.985472,-0.577677 0.0022,-0.003 0.11195,-0.291066 0.263159,-0.713605 0.484403,-1.4678 0.551784,-2.770065 0.551784,-3.712343 0,-0.09593 0.140599,-0.100281 0.140599,0 0,0.665325 -0.12707,3.019588 1.651427,3.651328 0.702146,0.248834 2.158645,0.470874 3.638595,0.644314 1.338077,0.153863 2.309165,0.680341 2.309165,4.113448 0,2.088611 -0.438775,2.375008 -2.732235,2.375008 -1.85909,0 -2.567655,0.04812 -2.567655,-1.428804 0,-1.193764 1.180501,-1.068552 2.055556,-1.068552 0.390759,0 0.10718,-0.290747 0.10718,-1.027168 0,-0.732706 0.45814,-1.156095 0.02477,-1.166918 -3.025796,-0.08329 -4.80599,-0.0033 -4.80599,3.780785 0,3.435124 1.314573,4.073125 5.608836,4.073125 3.366947,0 4.553815,-0.11036 5.944152,-4.423826 0.275203,-0.851553 0.940474,-3.450246 1.343118,-7.813587 0.25467,-2.758924 -0.239814,-11.085989 -0.632005,-13.18765 z m -5.869236,9.203925 c -0.41596,-0.01454 -0.816004,0.01172 -1.189149,0.07162 0.105052,-0.847944 0.455011,-1.888482 1.694934,-1.844922 1.372564,0.04722 1.564892,1.344443 1.569774,2.223214 -0.578737,-0.258066 -1.295208,-0.422487 -2.075559,-0.449917 z" />
    <path
       style="fill:#7ac143;stroke-width:0.04682279"
       inkscape:connector-curvature="0"
       id="path4"
       d="m 33.814247,33.647285 h 1.141541 l 0.05501,-7.293306 h -1.196556 v -1.399533 h 7.568343 l 0.09225,2.836056 h -1.491681 l -0.12867,-1.436991 h -2.854786 l -0.01845,2.854365 h 2.891308 v 1.400001 h -2.909568 l -0.01826,3.038939 h 2.872719 l 0.184388,-1.621472 h 1.620537 l -0.184014,3.020538 h -7.624203 v -1.399066 z m 19.704344,-7.293352 h -0.957339 l -3.591776,8.692464 H 46.9074 l -3.609757,-8.692464 h -1.012965 v -1.3993 h 4.310039 v 1.3993 h -1.013058 l 2.485822,6.851204 h 0.03653 l 2.468029,-6.851204 h -1.215051 v -1.3993 h 4.16161 z m 0.994282,7.293352 h 1.14154 l 0.05539,-7.293306 h -1.196931 v -1.399533 h 7.568296 l 0.09225,2.836056 H 60.68197 l -0.12923,-1.436991 h -2.854786 l -0.01826,2.854317 h 2.891307 v 1.400002 h -2.909567 l -0.01873,3.0388 h 2.872579 l 0.18495,-1.621474 h 1.620537 l -0.184483,3.020538 H 54.5126 v -1.399018 z m 9.704961,0 h 1.141539 l 0.05516,-7.293306 h -1.196697 v -1.399533 h 4.659102 c 2.339454,0 3.093723,1.344282 3.093723,2.651575 0,1.160268 -0.570396,2.210036 -2.375695,2.670304 v 0.03652 c 0.939124,0.257525 1.179372,0.497259 2.118356,2.117936 0.625413,1.049907 0.846557,1.21566 1.196979,1.21566 0.147023,0 0.294515,-0.03718 0.423277,-0.05526 v 1.454409 h -1.031506 c -1.363011,0 -1.527359,-0.16519 -2.595387,-2.283734 -0.958462,-1.878344 -1.179466,-2.006826 -1.915989,-2.006826 h -0.404268 l -0.01882,2.891309 h 1.19651 v 1.399158 h -4.345624 v -1.398831 z m 3.186525,-4.29159 h 0.791399 c 1.086101,0 1.822344,-0.58903 1.822344,-1.527921 0,-0.921005 -0.459473,-1.473795 -1.380805,-1.473795 h -1.215895 l -0.01704,3.001342 z m 15.192592,-3.00181 h -1.197493 v -1.399252 h 3.959101 v 1.3993 h -1.141866 l -0.05516,8.692464 H 82.6515 l -5.395953,-7.182148 h -0.03653 l -0.05572,5.78299 h 1.19754 v 1.399158 h -3.959804 v -1.399158 h 1.14154 l 0.05525,-7.293306 h -1.196978 v -1.3993 h 2.983409 l 5.119603,6.832382 h 0.03676 l 0.05549,-5.433082 z m 8.488833,-1.60251 c 3.481041,0 5.009337,2.302137 5.009337,5.102 0,3.185823 -1.897354,5.39525 -5.009337,5.39525 -3.480806,0 -5.009244,-2.301668 -5.009244,-5.118668 0,-3.167563 1.896184,-5.378535 5.009244,-5.378535 z m 0,8.877134 c 1.877828,0 2.94581,-1.602744 2.94581,-3.646746 0,-2.301247 -1.251106,-3.608914 -2.945623,-3.608914 -1.878531,0 -2.946558,1.601948 -2.946558,3.683081 0,2.265287 1.252509,3.572579 2.946558,3.572579 z m 8.176337,0.01873 h 1.141069 l 0.055,-7.293259 h -2.024519 l -0.07525,1.436523 h -1.527079 l 0.109378,-2.836056 h 9.04335 l 0.11042,2.836056 h -1.52924 l -0.0735,-1.436992 h -2.02569 l -0.0554,7.29312 h 1.19643 v 1.399064 h -4.344929 v -1.399018 z m 7.954439,0 h 1.14192 l 0.0557,-7.293259 h -1.19764 v -1.399533 h 7.56994 l 0.0913,2.836056 h -1.49112 l -0.1289,-1.436992 h -2.85441 l -0.0185,2.854318 h 2.89038 v 1.400002 h -2.90864 l -0.0188,3.0388 h 2.87257 l 0.18542,-1.621474 h 1.61961 l -0.18327,3.020538 h -7.62509 v -1.399018 z"
       sodipodi:nodetypes="ccccccccccccccccccccccccccccccccccccccccccccccccccccccccccccccccccsscccsccscsccccccccsssccccccccccccccccccccccccccccssscccssscccccccccccccccccccccccccccccccccccccscccc" />
  </g>
</svg>
