<?xml version="1.0" encoding="UTF-8" standalone="no"?>
<svg
   xmlns:dc="http://purl.org/dc/elements/1.1/"
   xmlns:cc="http://creativecommons.org/ns#"
   xmlns:rdf="http://www.w3.org/1999/02/22-rdf-syntax-ns#"
   xmlns:svg="http://www.w3.org/2000/svg"
   xmlns="http://www.w3.org/2000/svg"
   xmlns:sodipodi="http://sodipodi.sourceforge.net/DTD/sodipodi-0.dtd"
   xmlns:inkscape="http://www.inkscape.org/namespaces/inkscape"
   enable-background="new 0 0 515.91 728.5"
   height="32"
   id="Layer_1"
   version="1.1"
   viewBox="0 0 32.000002 32"
   width="32"
   xml:space="preserve"
   sodipodi:docname="suse-icon.svg"
   inkscape:version="0.92.3 (2405546, 2018-03-11)"><metadata
     id="metadata11"><rdf:RDF><cc:Work
         rdf:about=""><dc:format>image/svg+xml</dc:format><dc:type
           rdf:resource="http://purl.org/dc/dcmitype/StillImage" /><dc:title></dc:title></cc:Work></rdf:RDF></metadata><sodipodi:namedview
     pagecolor="#ffffff"
     bordercolor="#666666"
     borderopacity="1"
     objecttolerance="10"
     gridtolerance="10"
     guidetolerance="10"
     inkscape:pageopacity="0"
     inkscape:pageshadow="2"
     inkscape:window-width="1920"
     inkscape:window-height="1001"
     id="namedview9"
     showgrid="false"
     inkscape:zoom="10.429825"
     inkscape:cx="29.005092"
     inkscape:cy="17.46943"
     inkscape:window-x="-9"
     inkscape:window-y="-9"
     inkscape:window-maximized="1"
     inkscape:current-layer="Layer_1" /><defs
     id="defs7" /><g
     id="g6417"
     transform="matrix(0.0625,0,0,0.0625,-20.209151,-8.783921)"><path
       d="m -733.62329,72.267944 c 0,203.804876 -165.21649,369.021366 -369.02141,369.021366 -203.8048,0 -369.0213,-165.21649 -369.0213,-369.021366 0,-203.804874 165.2165,-369.021364 369.0213,-369.021364 203.80492,0 369.02141,165.21649 369.02141,369.021364 z"
       id="path5028"
       style="fill:#73ba25;fill-opacity:1;fill-rule:nonzero;stroke:none"
       transform="matrix(0.69372682,0,0,0.69372682,1344.2807,346.40885)"
       inkscape:connector-curvature="0" /><g
       id="g5479"
       transform="matrix(0.67129599,0,0,0.67129599,358.87299,-136.64755)"><path
         d="m 580.75912,772.386 2.24124,-0.41707 c 0.61244,0.48293 0.52464,1.47074 0.32707,2.3488 -0.41488,2.04148 -1.40489,5.75128 -2.08538,7.50739 l -0.57074,1.4488 c -0.78806,2.15124 -1.5805,4.19272 -3.09515,5.422 -4.16858,3.7976 -10.84182,6.8269 -21.29071,11.3928 -16.15626,7.06837 -42.34433,11.52451 -66.66653,11.37085 -8.71691,-0.19756 -17.14627,-1.16343 -24.5439,-1.99758 -22.6517,-2.59027 -39.02747,-4.43419 -42.43214,16.15626 -4.30248,25.8149 19.97801,57.16155 20.21947,57.44473 l -0.0241,0.8583 -0.78806,0.19756 c 0,0 -38.70039,-17.82457 -39.6465,-18.3514 l -1.22928,-0.87587 -0.98782,-0.9461 c -2.91954,-2.80759 -8.78057,-9.10766 -20.67825,-22.89536 -23.07097,-26.671 -50.07124,-30.18323 -70.88121,-25.11245 -5.07078,1.20733 -11.52451,4.91713 -15.71723,9.0879 -10.86597,10.7123 -9.63669,32.29057 -9.02205,40.14919 0.7244,8.89033 1.18538,9.54888 1.38294,10.27327 l -0.1317,0.90001 -0.7683,0.0878 -0.43903,-0.30732 -31.74179,-15.51967 -1.20733,-5.18054 c -0.8122,-3.42443 -1.75611,-7.22203 -3.55613,-11.98549 -11.3489,-29.91981 -36.85647,-52.42004 -64.95432,-57.27131 -18.988,-3.27077 -53.60542,-3.64394 -71.93487,30.95153 -7.66106,14.44405 -7.20008,33.25644 1.20733,49.10538 8.56106,16.22431 23.86121,26.6271 41.97115,28.62468 17.95628,1.95587 31.45642,-2.19515 39.02967,-12.00744 7.6391,-9.9001 9.06594,-23.37829 3.64394,-34.35401 -5.81714,-11.78573 -14.59771,-18.04408 -26.80271,-19.07361 -9.28546,-0.83415 -16.17822,3.0293 -18.65873,6.98056 -0.7244,1.23148 -2.04148,3.51443 -2.06344,6.76105 v 0.10975 c 0,8.84644 8.10009,11.26109 9.74644,11.37305 0.50489,0 2.9415,-0.0659 6.16836,-0.87806 l 1.55855,-0.50269 1.07562,-0.37537 0.79025,-0.15146 c 5.88299,-1.07562 11.54646,2.3927 13.19282,8.12203 0.28537,1.05147 0.43903,2.10734 0.43903,3.15881 0,3.7976 -1.93173,7.33178 -5.13664,9.48303 l 0.13171,-0.0461 -0.35122,0.19756 -0.52684,0.32927 c -1.69026,1.07562 -3.24881,1.66831 -4.89517,2.17319 -4.6098,1.51246 -8.69277,2.2171 -12.79769,2.2171 -14.00502,-0.022 -33.51985,-12.07329 -33.78327,-34.70523 -0.13171,-12.77574 6.27811,-24.41 17.56116,-31.89544 12.99525,-8.58302 35.45157,-11.50256 56.28349,1.27318 25.63929,15.69528 32.33448,46.4251 25.63929,67.39093 -9.72449,30.35884 -37.07599,46.58096 -73.18611,43.35409 -25.57343,-2.28295 -49.32489,-15.78308 -63.461619,-36.11012 -6.278112,-9.00228 -10.931818,-19.0319 -13.434282,-29.04176 -5.77323,-22.89535 0.06585,-47.21755 4.412239,-57.99571 13.829409,-34.2662 40.302852,-63.74698 78.608112,-87.6521 l 2.41466,-1.51465 c 81.48375,-50.07344 139.15019,-48.05391 181.36281,-46.58316 49.78807,1.73417 102.88641,18.90019 110.21819,21.3368 0.0241,-1.64635 0.30952,-16.48553 0.30952,-16.48553 l 0.21951,-0.50488 0.57074,-0.15366 c 3.33882,0.46098 74.87637,11.08548 105.0179,28.64663 3.72955,2.19514 5.57347,4.47809 7.88056,6.84885 8.3196,8.60496 19.33922,44.45167 20.50265,51.8493 l -0.43903,0.74635 c -0.43903,0.15366 -1.47075,0.92196 -2.85369,1.84392 -7.02446,4.91713 -23.46609,16.41968 -44.53947,14.53186 -18.9441,-1.66831 -43.68337,-12.53427 -73.51538,-32.18081 1.31928,3.09515 7.52934,17.80262 8.58301,20.28313 l 0.39513,0.48293 c 4.32663,2.23905 45.77095,23.35633 66.33945,22.93926 16.58871,-0.32928 34.30352,-8.42936 41.39384,-12.68794 z m -19.27337,-41.33456 c 0.57293,-16.85871 -12.66598,-31.08324 -29.54664,-31.67593 -8.16594,-0.28537 -15.9587,2.61222 -21.9273,8.18788 -5.99274,5.57567 -9.41717,13.14892 -9.70253,21.31486 -0.54879,16.8587 12.66598,31.06129 29.52249,31.67593 8.20984,0.28536 15.98065,-2.61223 21.95144,-8.20984 5.97079,-5.57567 9.39522,-13.12697 9.70254,-21.2929 z"
         id="path24-3"
         style="fill:#ffffff;fill-opacity:1"
         inkscape:connector-curvature="0" /><path
         d="m 532.46594,707.89267 c 12.00744,0.41707 21.40266,10.51474 21.00753,22.52218 -0.17561,5.79518 -2.63417,11.17328 -6.8708,15.14649 -4.25858,3.95126 -9.79034,6.0147 -15.62942,5.83908 -11.98549,-0.43902 -21.38071,-10.53669 -20.98778,-22.54413 0.17561,-5.81713 2.65613,-11.19523 6.89495,-15.14649 4.23663,-3.97321 9.76839,-6.03665 15.58552,-5.81713 z m 13.21477,17.36359 c 0,-3.57809 -4.32663,-6.45373 -9.65863,-6.45373 -5.33201,0 -9.63669,2.87564 -9.63669,6.45373 0,3.53418 4.30249,6.43177 9.63669,6.43177 5.3342,0 9.65863,-2.89759 9.65863,-6.43177 z"
         id="path14-5"
         style="fill:#ffffff;fill-opacity:1"
         inkscape:connector-curvature="0" /></g></g></svg>