<svg xmlns="http://www.w3.org/2000/svg" width="120" height="60" viewBox="0 0 2.923 1.463"><path d="M.217.738h.115c.04-.001.062.038.064.048v-.13C.394.662.373.7.332.7H.217V.553H.36c.03-.001.057.03.07.06V.516H.105c.01.003.044.018.043.06V.89C.15.915.13.94.105.946H.26C.252.945.218.93.217.888zm2.256.21c.01-.002.043-.017.043-.06V.575c.001-.04-.033-.056-.043-.06h.323V.61C2.786.58 2.76.55 2.73.55h-.144V.7H2.7c.04.001.062-.038.064-.045v.13C2.763.776 2.74.737 2.7.738h-.115v.14c.001.015.002.04.067.037h.035c.074.001.1-.028.13-.08l-.024.112zm-.954 0C1.51.945 1.476.93 1.476.888V.553h.07c.017-.001.063.03.072.06h.005L1.6.505c-.003.007-.035.01-.045.01H1.33c-.01.001-.043-.004-.045-.01L1.26.612h.005c.01-.03.055-.06.072-.06h.07v.334a.06.06 0 0 1-.043.059zM.666.508C.535.507.43.608.428.733s.107.224.238.225S.902.858.9.733A.23.23 0 0 0 .666.508z"/><path d="M.666.928C.58.927.512.84.51.733S.58.537.666.537.82.624.82.733.75.927.666.928z" fill="#fff"/><path d="M1.233.898L1.145.74C1.2.725 1.24.684 1.238.634 1.24.57 1.205.516 1.097.516h-.21C.897.52.93.534.93.576V.89C.93.915.912.94.886.946h.155C1.033.945 1 .93.998.888V.75h.072l.107.195h.112C1.262.94 1.244.916 1.233.898z"/><path d="M1.078.72h-.08V.545h.08a.09.09 0 0 1 .088.088c-.001.048-.04.086-.088.086z" fill="#fff"/><path d="M1.955.813c-.001.062-.05.105-.112.104s-.11-.034-.11-.094L1.73.575c.001-.04.035-.056.043-.06H1.62c.007.003.04.018.04.06v.25c.001.09.075.13.166.13s.165-.04.166-.13L1.99.575c.001-.04.035-.056.043-.06H1.91c.01.003.044.018.043.06zm.43-.005L2.383.575c0-.04-.033-.055-.043-.06h.123c-.008.003-.042.018-.043.06l.003.372h-.02L2.123.61 2.12.888c.001.042.035.057.043.06H2.04c.01-.002.043-.017.043-.06l.003-.313c-.001-.02-.014-.05-.037-.06h.094z"/><path d="M-10.718-8.936h1.8a2.02 2.02 0 0 1 1.98 1.98c-1.98 3.982-3.817.76-3.78-1.98z" fill="#fff"/></svg>