<svg xmlns="http://www.w3.org/2000/svg" xmlns:xlink="http://www.w3.org/1999/xlink" width="120" height="60"><linearGradient id="A" gradientUnits="userSpaceOnUse" x1="41.581" y1="35.428" x2="51.852" y2="35.428"><stop offset="0" stop-color="#cbdb2a"/><stop offset="1" stop-color="#82b040"/></linearGradient><linearGradient id="B" gradientUnits="userSpaceOnUse" x1="46.955" y1="32.517" x2="57.226" y2="32.517"><stop offset="0" stop-color="#cbdb2a"/><stop offset="1" stop-color="#82b040"/></linearGradient><linearGradient id="C" gradientUnits="userSpaceOnUse" x1="41.58" y1="35.428" x2="51.851" y2="35.428"><stop offset="0" stop-color="#cbdb2a"/><stop offset="1" stop-color="#82b040"/></linearGradient><linearGradient id="D" gradientUnits="userSpaceOnUse" x1="36.207" y1="32.517" x2="46.478" y2="32.517"><stop offset="0" stop-color="#cbdb2a"/><stop offset="1" stop-color="#82b040"/></linearGradient><path d="M18.153 45.162l-3.18 5.62h1.306l.653-1.233h3.56l.677 1.233h1.47l-3.224-5.62h-1.263zM17.5 48.54l1.25-2.288 1.2 2.288zm13.538-2.15c-.174-.142-.486-.212-.938-.212h-3.335c-.457 0-.77.075-.94.226s-.255.438-.255.865v2.43c0 .43.083.717.25.865s.483.226.947.226H30.1c.464 0 .782-.075.947-.226s.25-.438.25-.865v-1.6H28.36v.816h1.83v.98h-3.5V47.03h3.5v.5l1.1-.184v-.122c0-.406-.087-.68-.26-.822zm3.8 4.394h1.122v-4.606h-1.122zm5.935-4.606H39.64v4.606h4.75v-.85h-3.616zm7.643 3.757V48.8h2.223v-.796h-2.223v-1.002h3.8v-.816h-4.943v4.606h5v-.85z" fill="#f99f1c"/><path d="M60.65 47.35h-3.5v-1.2h3.682v.643l1.155-.273v-.1c0-.472-.104-.796-.313-.97s-.568-.26-1.084-.26h-3.2c-.538 0-.903.1-1.1.273s-.295.533-.295 1.056v.62c0 .52.097.875.295 1.056s.563.273 1.1.273h3.5v1.285h-3.978v-.664l-1.155.24v.153c0 .52.1.875.3 1.056s.568.273 1.105.273h3.474c.538 0 .903-.1 1.105-.273s.3-.533.3-1.056v-.773c0-.52-.1-.875-.3-1.056s-.568-.273-1.105-.273zm4.737-.347H67.6v3.78h1.122v-3.78h2.232v-.83h-5.558zm10.694-.83l-2.734 4.606h1.122l.577-1.013h3.05l.577 1.013h1.263l-2.78-4.606zm-.556 2.744l1.035-1.905 1.077 1.905zm11.15-2.744h-2.873c-.466 0-.782.075-.947.226s-.25.438-.25.865V49.7c0 .422.083.7.25.86s.483.23.947.23h2.875c.464 0 .782-.075.955-.226s.255-.438.255-.865v-.544l-1.132-.23v.98h-3.028V47.04h3.028v.85l1.132-.163v-.446c0-.43-.087-.717-.255-.865s-.486-.226-.955-.226zm10.126 0h-1.62l-2.692 1.862v-1.862h-1.132v4.606h1.132V48.7l2.897 2.08h1.775l-3.54-2.472zm8 2.02c-.167-.15-.483-.222-.947-.222h-2.995V47h3.17v.5l.97-.208v-.1c0-.393-.1-.657-.273-.796s-.493-.208-.938-.208h-2.734c-.457 0-.773.075-.947.226s-.26.438-.26.865v.512c0 .43.087.717.26.865s.5.222.947.222h2.984v1.056h-3.387V49.4l-1.002.186v.13c0 .43.087.717.255.865s.486.226.955.226h2.995c.464 0 .782-.075.947-.226s.25-.438.25-.865v-.632c0-.43-.083-.717-.25-.868z" fill="#163b6c"/><g transform="matrix(.898449 0 0 .898449 18.049788 -4.508118)"><path d="M46.692 20.957l-16.288 8.675v9.965l16.288 8.675 16.288-8.675v-9.965z" fill="#fff"/><use xlink:href="#Y" fill="url(#A)"/><path d="M52.1 29.75l-5.136 2.765L52.1 35.28l5.135-2.765z" fill="url(#B)"/><use xlink:href="#Y" x="10.749" y="-5.823" fill="url(#C)"/><path d="M41.342 29.75l-5.135 2.765 5.135 2.765 5.136-2.765z" fill="url(#D)"/><use xlink:href="#Y" y="-5.823" fill="url(#A)"/><g transform="matrix(.111963 0 0 .111963 18.271084 9.347279)"><linearGradient y2="154.936" x2="347.926" y1="154.936" x1="256.19" gradientUnits="userSpaceOnUse" id="E"><stop stop-color="#cbdb2a" offset="0"/><stop stop-color="#82b040" offset="1"/></linearGradient><use xlink:href="#Z" fill="url(#E)"/><linearGradient y2="180.936" x2="203.926" y1="180.936" x1="112.191" gradientUnits="userSpaceOnUse" id="F"><stop stop-color="#cbdb2a" offset="0"/><stop stop-color="#82b040" offset="1"/></linearGradient><g fill="url(#F)"><use xlink:href="#a"/><use xlink:href="#a" x="48" y="-26"/></g><linearGradient y2="128.936" x2="299.926" y1="128.936" x1="208.191" gradientUnits="userSpaceOnUse" id="G"><stop stop-color="#cbdb2a" offset="0"/><stop stop-color="#82b040" offset="1"/></linearGradient><use xlink:href="#b" fill="url(#G)"/></g><path d="M46.692 10.825L30.404 19.5v5.206l16.288 8.675 16.288-8.675V19.5z" fill="#fff"/><g transform="matrix(.111963 0 0 .111963 18.271084 9.347279)"><linearGradient y2="127.798" x2="157" y1="127.798" x1="111.4" gradientUnits="userSpaceOnUse" id="H"><stop stop-color="#0d4d95" offset="0"/><stop stop-color="#0f213c" offset="1"/></linearGradient><use xlink:href="#W" fill="url(#H)"/><linearGradient y2="127.799" x2="157" y1="127.799" x1="111.4" gradientUnits="userSpaceOnUse" id="I"><stop stop-color="#0d4d95" offset="0"/><stop stop-color="#0f213c" offset="1"/></linearGradient><g fill="url(#I)"><use xlink:href="#W" x="96" y="51.2"/><use xlink:href="#W" x="47.8" y="25.8"/></g><g fill="url(#H)"><use xlink:href="#W" y="89"/><use xlink:href="#W" x="96" y="140.2"/></g><g fill="url(#I)"><use xlink:href="#W" x="47.8" y="114.8"/><use xlink:href="#W" y="133"/></g><use xlink:href="#W" x="96" y="184.2" fill="url(#H)"/><use xlink:href="#W" x="47.8" y="158.8" fill="url(#I)"/><linearGradient y2="127.798" x2="396.6" y1="127.798" x1="351" gradientUnits="userSpaceOnUse" id="J"><stop stop-color="#ed3823" offset="0"/><stop stop-color="#be1e22" offset="1"/></linearGradient><use xlink:href="#X" fill="url(#J)"/><linearGradient y2="127.797" x2="396.6" y1="127.797" x1="351" gradientUnits="userSpaceOnUse" id="K"><stop stop-color="#ed3823" offset="0"/><stop stop-color="#be1e22" offset="1"/></linearGradient><g fill="url(#K)"><use xlink:href="#X" x="-96" y="51.202"/><use xlink:href="#X" x="-47.8" y="25.802"/></g><use xlink:href="#X" y="89" fill="url(#J)"/><linearGradient y2="127.796" x2="396.6" y1="127.796" x1="351" gradientUnits="userSpaceOnUse" id="L"><stop stop-color="#ed3823" offset="0"/><stop stop-color="#be1e22" offset="1"/></linearGradient><use xlink:href="#X" x="-96" y="140.202" fill="url(#L)"/><use xlink:href="#X" x="-47.8" y="114.802" fill="url(#K)"/><linearGradient y2="127.799" x2="396.6" y1="127.799" x1="351" gradientUnits="userSpaceOnUse" id="M"><stop stop-color="#ed3823" offset="0"/><stop stop-color="#be1e22" offset="1"/></linearGradient><use xlink:href="#X" y="133" fill="url(#M)"/><use xlink:href="#X" x="-96" y="184.202" fill="url(#L)"/><use xlink:href="#X" x="-47.8" y="158.802" fill="url(#K)"/><linearGradient y2="128.936" x2="299.926" y1="128.936" x1="208.191" gradientUnits="userSpaceOnUse" id="N"><stop stop-color="#ffc80b" offset="0"/><stop stop-color="#f8991d" offset="1"/></linearGradient><use xlink:href="#b" y="15" fill="url(#N)"/><linearGradient y2="154.936" x2="347.926" y1="154.936" x1="256.19" gradientUnits="userSpaceOnUse" id="O"><stop stop-color="#ffc80b" offset="0"/><stop stop-color="#f8991d" offset="1"/></linearGradient><use xlink:href="#Z" y="-37" fill="url(#O)"/><linearGradient y2="91.936" x2="395.926" y1="91.936" x1="304.19" gradientUnits="userSpaceOnUse" id="P"><stop stop-color="#ffc80b" offset="0"/><stop stop-color="#f8991d" offset="1"/></linearGradient><path d="M350.06 67.24L304.2 91.937l45.87 24.696 45.867-24.696z" fill="url(#P)"/><linearGradient y2="180.936" x2="203.926" y1="180.936" x1="112.191" gradientUnits="userSpaceOnUse" id="Q"><stop stop-color="#ffc80b" offset="0"/><stop stop-color="#f8991d" offset="1"/></linearGradient><use xlink:href="#a" x="48" y="-63" fill="url(#Q)"/><linearGradient y2="91.936" x2="299.926" y1="91.936" x1="208.191" gradientUnits="userSpaceOnUse" id="R"><stop stop-color="#ffc80b" offset="0"/><stop stop-color="#f8991d" offset="1"/></linearGradient><path d="M254.06 67.24L208.2 91.937l45.868 24.696 45.867-24.696z" fill="url(#R)"/><linearGradient y2="65.936" x2="347.926" y1="65.936" x1="256.19" gradientUnits="userSpaceOnUse" id="S"><stop stop-color="#ffc80b" offset="0"/><stop stop-color="#f8991d" offset="1"/></linearGradient><path d="M302.06 41.24L256.2 65.937l45.87 24.696 45.867-24.696z" fill="url(#S)"/><linearGradient y2="91.936" x2="203.926" y1="91.936" x1="112.191" gradientUnits="userSpaceOnUse" id="T"><stop stop-color="#ffc80b" offset="0"/><stop stop-color="#f8991d" offset="1"/></linearGradient><path d="M158.058 67.24L112.2 91.937l45.867 24.696 45.868-24.696z" fill="url(#T)"/><linearGradient y2="65.936" x2="251.926" y1="65.936" x1="160.191" gradientUnits="userSpaceOnUse" id="U"><stop stop-color="#ffc80b" offset="0"/><stop stop-color="#f8991d" offset="1"/></linearGradient><path d="M206.058 41.24L160.2 65.937l45.867 24.696 45.868-24.696z" fill="url(#U)"/><linearGradient y2="39.937" x2="299.926" y1="39.937" x1="208.191" gradientUnits="userSpaceOnUse" id="V"><stop stop-color="#ffc80b" offset="0"/><stop stop-color="#f8991d" offset="1"/></linearGradient><path d="M254.06 15.24L208.2 39.937l45.868 24.696 45.867-24.696z" fill="url(#V)"/></g></g><defs><path id="W" d="M111.4 94.805v41.6l45.6 24.387v-41.6z"/><path id="X" d="M351 119.2v41.6l45.6-24.387v-41.6z"/><path id="Y" d="M46.716 32.663l-5.136 2.765 5.136 2.765 5.135-2.765z"/><path id="Z" d="M302.06 130.24l-45.87 24.697 45.87 24.696 45.867-24.696z"/><path id="a" d="M158.058 156.24l-45.867 24.697 45.867 24.696 45.868-24.696z"/><path id="b" d="M254.06 104.24l-45.868 24.697 45.868 24.696 45.867-24.696z"/></defs></svg>