<?xml version="1.0" encoding="UTF-8" standalone="no"?>
<svg
   xmlns:dc="http://purl.org/dc/elements/1.1/"
   xmlns:cc="http://creativecommons.org/ns#"
   xmlns:rdf="http://www.w3.org/1999/02/22-rdf-syntax-ns#"
   xmlns:svg="http://www.w3.org/2000/svg"
   xmlns="http://www.w3.org/2000/svg"
   xmlns:sodipodi="http://sodipodi.sourceforge.net/DTD/sodipodi-0.dtd"
   xmlns:inkscape="http://www.inkscape.org/namespaces/inkscape"
   width="64"
   height="64"
   viewBox="0 0 64 64"
   version="1.1"
   preserveAspectRatio="xMidYMid"
   id="svg3446"
   inkscape:version="0.91 r13725"
   sodipodi:docname="dribbble-icon.svg">
  <metadata
     id="metadata3458">
    <rdf:RDF>
      <cc:Work
         rdf:about="">
        <dc:format>image/svg+xml</dc:format>
        <dc:type
           rdf:resource="http://purl.org/dc/dcmitype/StillImage" />
        <dc:title></dc:title>
      </cc:Work>
    </rdf:RDF>
  </metadata>
  <defs
     id="defs3456" />
  <sodipodi:namedview
     pagecolor="#ffffff"
     bordercolor="#666666"
     borderopacity="1"
     objecttolerance="10"
     gridtolerance="10"
     guidetolerance="10"
     inkscape:pageopacity="0"
     inkscape:pageshadow="2"
     inkscape:window-width="1525"
     inkscape:window-height="853"
     id="namedview3454"
     showgrid="false"
     fit-margin-top="0"
     fit-margin-left="0"
     fit-margin-right="0"
     fit-margin-bottom="0"
     inkscape:zoom="2.6503906"
     inkscape:cx="128"
     inkscape:cy="128"
     inkscape:window-x="65"
     inkscape:window-y="24"
     inkscape:window-maximized="0"
     inkscape:current-layer="svg3446" />
  <g
     id="g3448"
     transform="scale(0.25,0.25029331)">
    <path
       d="m 128,8.5 c 66,0 119.4,53.4 119.4,119.3 C 247.4,193.7 194,247.2 128,247.2 62,247.2 8.6,193.8 8.6,127.9 8.6,62 62,8.5 128,8.5 l 0,0 0,0 z"
       id="path3450"
       inkscape:connector-curvature="0"
       style="fill:#e74d89" />
    <path
       d="M 128,255.7 C 57.4,255.7 0,198.4 0,127.9 0,57.3 57.4,0 128,0 c 70.6,0 128,57.3 128,127.8 0,70.5 -57.4,127.9 -128,127.9 l 0,0 0,0 z M 235.9,145.3 c -3.7,-1.2 -33.8,-10.1 -68.1,-4.7 14.3,39.2 20.1,71.2 21.2,77.8 24.6,-16.5 42.1,-42.7 46.9,-73.1 l 0,0 0,0 z m -65.2,83.2 c -1.6,-9.6 -8,-43 -23.3,-82.8 -0.2,0.1 -0.5,0.2 -0.7,0.2 -61.7,21.5 -83.8,64.2 -85.8,68.2 18.5,14.4 41.8,23 67.1,23 15.1,0.1 29.6,-3 42.7,-8.6 l 0,0 0,0 z M 46.8,201 c 2.5,-4.2 32.5,-53.8 88.9,-72.1 1.4,-0.5 2.9,-0.9 4.3,-1.3 -2.7,-6.2 -5.7,-12.4 -8.9,-18.5 -54.6,16.3 -107.6,15.6 -112.4,15.5 0,1.1 -0.1,2.2 -0.1,3.3 0.1,28.1 10.7,53.7 28.2,73.1 l 0,0 0,0 z M 21,105.6 c 4.9,0.1 49.9,0.3 101.1,-13.3 C 104,60.1 84.4,33.1 81.6,29.2 50.9,43.6 28.1,71.8 21,105.6 l 0,0 0,0 z m 81.4,-83.8 c 3,4 22.9,31 40.8,63.9 C 182.1,71.1 198.5,49.1 200.5,46.3 181.2,29.2 155.8,18.8 128,18.8 c -8.8,0 -17.4,1.1 -25.6,3 l 0,0 0,0 z m 110.2,37.1 c -2.3,3.1 -20.6,26.6 -61,43.1 2.5,5.2 5,10.5 7.3,15.8 0.8,1.9 1.6,3.8 2.4,5.6 36.4,-4.6 72.5,2.8 76.1,3.5 -0.3,-25.7 -9.5,-49.4 -24.8,-68 l 0,0 0,0 z"
       id="path3452"
       inkscape:connector-curvature="0"
       style="fill:#b2215a" />
  </g>
</svg>
