<svg xmlns="http://www.w3.org/2000/svg" width="64" height="64" preserveAspectRatio="xMidYMid"><path d="M32 2.127c16.5 0 29.85 13.366 29.85 29.86S48.5 61.873 32 61.873 2.15 48.507 2.15 32.013 15.5 2.127 32 2.127z" fill="#e74d89"/><path d="M32 64C14.35 64 0 49.658 0 32.013 0 14.342 14.35 0 32 0s32 14.342 32 31.987S49.65 64 32 64zm26.975-27.632c-.925-.3-8.45-2.528-17.025-1.176 3.575 9.8 5.025 17.82 5.3 19.473 6.15-4.13 10.525-10.688 11.725-18.296zm-16.3 20.824c-.4-2.403-2-10.763-5.825-20.724-.05.025-.125.05-.175.05-15.425 5.38-20.95 16.07-21.45 17.07 4.625 3.604 10.45 5.757 16.775 5.757 3.775.025 7.4-.75 10.675-2.153zM11.7 50.3c.625-1.05 8.125-13.466 22.225-18.046.35-.125.725-.225 1.075-.325a71.25 71.25 0 0 0-2.225-4.63c-13.65 4.08-26.9 3.905-28.1 3.88 0 .275-.025.55-.025.826.025 7.033 2.675 13.44 7.05 18.296zM5.25 26.43c1.225.025 12.475.075 25.275-3.33C26 15.043 21.1 8.285 20.4 7.3 12.725 10.913 7.025 17.97 5.25 26.43zM25.6 5.456A143.92 143.92 0 0 1 35.8 21.45c9.725-3.654 13.825-9.16 14.325-9.862A27.23 27.23 0 0 0 32 4.706a28.38 28.38 0 0 0-6.4.75zm27.55 9.286C52.575 15.518 48 21.4 37.9 25.53l1.825 3.955.6 1.402c9.1-1.15 18.125.7 19.025.876a27.24 27.24 0 0 0-6.2-17.02z" fill="#b2215a"/></svg>