<?xml version="1.0" encoding="UTF-8" standalone="no"?>
<svg
   width="120"
   height="60"
   version="1.1"
   id="svg16"
   sodipodi:docname="codemirror-ar21.svg"
   inkscape:version="1.3.2 (091e20e, 2023-11-25)"
   xmlns:inkscape="http://www.inkscape.org/namespaces/inkscape"
   xmlns:sodipodi="http://sodipodi.sourceforge.net/DTD/sodipodi-0.dtd"
   xmlns="http://www.w3.org/2000/svg"
   xmlns:svg="http://www.w3.org/2000/svg">
  <sodipodi:namedview
     id="namedview16"
     pagecolor="#ffffff"
     bordercolor="#000000"
     borderopacity="0.25"
     inkscape:showpageshadow="2"
     inkscape:pageopacity="0.0"
     inkscape:pagecheckerboard="0"
     inkscape:deskcolor="#d1d1d1"
     inkscape:zoom="5.65"
     inkscape:cx="60"
     inkscape:cy="30"
     inkscape:window-width="1392"
     inkscape:window-height="942"
     inkscape:window-x="1793"
     inkscape:window-y="25"
     inkscape:window-maximized="0"
     inkscape:current-layer="svg16" />
  <defs
     id="defs2">
    <style
       id="style1" />
    <clipPath
       id="A">
      <path
         d="M435.607 369.9h31.242v-64.782h-31.242z"
         id="path1" />
    </clipPath>
    <clipPath
       id="B">
      <path
         d="M421.796 349.477h39.074v-88.423h-39.074z"
         id="path2" />
    </clipPath>
  </defs>
  <g
     transform="matrix(0.07205,0,0,-0.07205,8.6034389,48.401236)"
     id="g15">
    <path
       d="m 233.98,469.374 c 0,0 7.014,-14.948 -2.95,-31.424 C 226.05,429.716 100.522,403 51.522,335 c -30,-47 -76,-183 71,-273 66,-34 94,-33 94,-33 0,0 -44,31 -16,52 28,21 69,31 80,60 13,-10 34,-31 54,-29 -2,13 -7,18 9,20 16,2 24,2 24,2 0,0 -15,12 -32,13 -17,1 -49,34 -48,48 21,12 48,32 64,26 16,-6 32,-16 35,-25 0,-6 -3,-16 10,-8 13,8 10,13 15,24 5,11 6,13 -5,22 -11,9 -37,30 -58,24 -21,-6 -65,-23 -87,-2 9,20 23,52 16,74 13,10 28,21 30,39 15,2 47,11 41,27 -6,16 -48.593,87.17 -113.593,73.17 M 441.522,306.002 c 11,29 29,78 12,80 -17,2 -36,-44 -41,-56 -5,-12 -25,-72 -14,-80 11,-8 43,56 43,56"
       fill="#ffffff"
       id="path3" />
    <path
       d="m 348.522,384.002 c 3.13,4.92 5.82,0.645 -7.68,-0.355 -13.5,-1 -29.622,-5.185 -32.4,-11.048 -5.192,-11.002 -6.932,-38.097 -26.432,-44.097 -1,-7 0,-23 27.5,-26 27.5,-3 28.5,15 44.5,14.5 16,-0.5 14.5,5.5 9,10 -5.5,4.5 -24.5,35 -24.5,45 0,10 6.5,6.5 10,12 M 103.012,82.502 c 0,0 -8.5,22.5 16.5,34.5 25,12 47.5,2.5 52,-6 4.5,-8.5 -7.5,-42.5 -50.5,-43 l -18,14.5"
       fill="#da687d"
       id="path4" />
    <g
       transform="translate(-21.477)"
       id="g7">
      <g
         clip-path="url(#A)"
         opacity="0.7"
         id="g5">
        <path
           d="m 466.258,369.838 c 0.423,-1.57 0.298,-3.2 0.255,-4.838 -0.042,-1.614 -0.193,-3.312 -0.604,-4.963 0.106,-0.377 -0.082,-0.814 -0.018,-1.2 -0.4,-0.515 -0.194,-0.903 -0.284,-1.354 0.66,-0.674 1.522,-1.313 1.152,-2.162 -0.26,-0.596 -0.874,-0.706 -1.464,-0.995 -0.39,-1.403 -0.71,-3.1 -1.028,-4.65 -0.097,-0.476 -0.044,-1.05 -0.187,-1.485 l -0.97,-3.1 c -0.237,-0.945 0.034,-2.69 -1.063,-2.81 l -1.165,-2.83 c -0.286,-0.163 -0.452,0.106 -0.692,0.01 -0.305,-0.348 -0.294,-0.823 -0.577,-1.114 -0.222,-0.23 -0.503,-0.163 -0.665,-0.385 -0.363,-0.5 -0.266,-1.24 -0.523,-1.902 a 4.7,4.7 0 0 1 -1.147,-1.478 c -0.588,-1.18 -0.698,-2.68 -1.59,-3.593 -0.28,-0.286 -0.76,-0.365 -1.01,-0.647 -0.238,-0.27 -0.455,-0.665 -0.69,-0.98 -0.338,-0.452 -0.67,-1.045 -0.972,-1.583 l -3.3,-5.664 c -0.173,-0.37 -0.2,-0.805 -0.364,-1.165 -0.38,-0.827 -0.943,-1.58 -1.257,-2.333 -0.516,-1.24 -1.3,-3.34 -2.538,-4.42 -0.15,-0.13 -0.473,-0.254 -0.606,-0.414 -0.18,-0.215 -0.136,-0.568 -0.32,-0.808 -0.086,-0.113 -0.4,-0.164 -0.537,-0.302 -0.208,-0.21 -0.306,-0.48 -0.48,-0.64 -0.426,-0.388 -1.015,-0.555 -1.38,-0.96 -0.277,-0.306 -0.397,-0.743 -0.692,-1.127 -0.318,-0.413 -0.76,-0.784 -1.1,-1.202 -0.994,-1.264 -1.38,-2.8 -2.702,-3.396 -0.393,-0.178 -0.88,-0.12 -1.29,-0.24 -0.374,0.344 -0.078,0.818 -0.163,1.164 -0.055,0.222 -0.285,0.382 -0.346,0.583 -0.143,0.474 -0.347,1.336 -0.34,1.878 0.007,0.542 0.305,0.97 0.375,1.612 0.06,0.55 -0.137,1.246 -0.177,1.856 -0.02,0.306 0.064,0.624 0.06,0.956 -0.008,0.533 -0.066,0.8 0.008,1.442 0.086,0.743 -0.074,1.462 -0.17,2.152 l 1.1,4.92 c 0.258,0.88 0.72,2.367 1.18,3.346 l 2.6,5.945 c 0.32,0.656 0.825,1.196 1.14,1.852 0.182,0.38 0.21,0.828 0.395,1.215 1.617,3.398 3.877,6.233 5.565,9.73 1.4,2.86 2.88,5.418 4.745,8.545 0.842,1.415 1.568,2.917 2.434,4.086 a 24.84,24.84 0 0 1 2.334,3.916 c 0.278,0.596 0.27,1.073 1.005,1.102 0.758,0.948 1.326,2.018 2.12,2.824 0.2,0.202 0.5,0.303 0.733,0.498 0.26,0.228 0.383,0.57 0.638,0.778 0.54,0.44 1.432,0.832 2.035,1.66 0.16,0.22 0.23,0.45 0.406,0.682 0.414,0.54 1.19,1.866 1.8,2.013 0.088,0.052 0.203,0.028 0.33,-0.033"
           fill="#da687d"
           fill-rule="evenodd"
           id="path5" />
      </g>
      <g
         clip-path="url(#B)"
         opacity="0.7"
         id="g6">
        <path
           d="m 459.897,349.45 c 0.688,-1.936 0.765,-4.106 0.935,-6.266 -0.02,-2.14 -0.168,-4.58 -0.715,-6.943 0.098,-0.492 -0.155,-1.108 -0.11,-1.623 -0.52,-0.752 -0.295,-1.25 -0.438,-1.876 0.718,-0.835 1.666,-1.61 1.155,-2.836 -0.37,-0.846 -1.118,-1.037 -1.845,-1.48 l -1.846,-6.305 c -0.187,-0.635 -0.212,-1.395 -0.447,-1.977 l -1.597,-4.1 c -0.416,-1.238 -0.356,-3.498 -1.652,-3.69 l -1.674,-3.65 c -0.35,-0.217 -0.512,0.12 -0.8,-0.013 -0.392,-0.456 -0.442,-1.063 -0.795,-1.445 -0.27,-0.298 -0.585,-0.226 -0.785,-0.514 -0.45,-0.65 -0.386,-1.58 -0.723,-2.425 -0.282,-0.266 -0.546,-0.564 -0.784,-0.888 l -0.337,-0.505 -0.153,-0.266 -0.072,-0.136 -0.034,-0.07 -0.003,-0.004 0.05,0.118 -10e-4,-0.002 -10e-4,-10e-4 -0.004,-0.01 -0.008,-0.02 -0.016,-0.037 c -0.697,-1.635 -0.85,-3.63 -1.895,-4.955 -0.335,-0.42 -0.872,-0.577 -1.142,-0.97 -0.26,-0.375 -0.49,-0.912 -0.746,-1.347 -0.366,-0.625 -0.722,-1.432 -1.046,-2.164 l -3.572,-8.03 c -0.188,-0.523 -0.205,-1.106 -0.385,-1.617 -0.422,-1.173 -1.022,-2.273 -1.394,-3.342 -0.626,-1.753 -1.474,-4.727 -3,-6.377 -0.182,-0.2 -0.567,-0.415 -0.732,-0.65 -0.22,-0.315 -0.19,-0.786 -0.42,-1.137 -0.106,-0.164 -0.475,-0.275 -0.642,-0.48 -0.254,-0.313 -0.383,-0.7 -0.594,-0.926 -0.503,-0.58 -1.23,-0.865 -1.714,-1.438 -0.365,-0.435 -0.562,-1.03 -0.958,-1.568 -0.426,-0.578 -0.99,-1.104 -1.428,-1.683 l -1.828,-2.608 c -0.592,-0.813 -1.215,-1.514 -2.047,-1.884 -0.495,-0.22 -1.042,-0.12 -1.54,-0.256 -0.353,0.473 0.086,1.07 0.06,1.524 -0.018,0.288 -0.25,0.504 -0.28,0.766 -0.07,0.615 -0.14,1.712 -0.035,2.387 0.1,0.676 0.548,1.19 0.712,2.005 0.125,0.708 -0.034,1.59 -0.025,2.36 0.004,0.387 0.13,0.79 0.153,1.206 0.038,0.668 -0.008,1 0.13,1.795 0.163,0.922 -0.034,1.854 -0.12,2.71 l 1.265,6.362 1.265,4.488 1.347,4.063 1.424,4.25 c 0.347,0.94 0.896,1.734 1.274,2.728 0.213,0.565 0.25,1.192 0.465,1.767 l 1.54,3.656 1.71,3.336 0.938,1.807 0.98,1.745 1.886,3.61 3.188,5.725 3.63,5.817 3.357,5.355 c 0.827,1.167 2.173,3.163 3.042,5.126 0.342,0.78 0.35,1.38 1.197,1.482 l 2.452,3.773 c 0.214,0.276 0.563,0.445 0.808,0.722 0.286,0.323 0.408,0.762 0.693,1.065 0.582,0.653 1.672,1.277 2.2,2.57 0.15,0.332 0.198,0.653 0.368,1.006 0.397,0.822 1.098,2.78 1.78,3.145 0.092,0.093 0.225,0.093 0.376,0.05"
           fill="#da687d"
           fill-rule="evenodd"
           id="path6" />
      </g>
    </g>
    <path
       d="m 416.7,327.002 c 0,0 -8,-30.667 -4.667,-56 l 4.667,56 m 9.5,20.724 c -0.6,2.147 -4.597,-59.478 -3.432,-61.636 1.165,-2.158 7.147,48.575 3.432,61.636"
       fill="#ffffff"
       id="path7" />
    <g
       fill="#2d2b2c"
       id="g14">
      <path
         d="m 235.25,465.604 c 0,0 4.667,-26.62 -38.667,-40.62 -43.334,-14 -103.06,-25.982 -147.06,-78.65 -44,-52.668 -52,-140 -22,-197.333 30,-57.333 103.332,-128.666 235.332,-128.666 132,0 236.853,101.505 236.853,171.505 0,36.667 -20.147,28.492 -27.114,-5.908 -6.3,-31.05 -64.405,-146.93 -210.405,-146.93 -146,0 -220.667,88.668 -229.989,164.668 -9.322,76 11.9,141.47 88.566,180.802 76.666,39.332 125.32,23.664 114.653,80.997 M 198.867,260.335 c 0,0 -8.667,-40 -50.667,-59.333 -42,-19.333 -60,-30 -66,-63.334 16,26.666 62.667,32 88.667,58 26,26 28,64.667 28,64.667"
         id="path8" />
      <path
         d="m 210.2,353.002 c 0,0 36,-46.667 78.667,-24 42.667,22.667 20.667,75.333 20,78.667 -0.667,3.334 4.666,-58.667 -27.334,-69.334 -32,-10.667 -71.333,14.667 -71.333,14.667 m -94,-278.666 c 0,0 22.666,-1.334 39.333,17.332 16.667,18.666 7.334,48 34.667,58.668 27.333,10.668 46,4 46,4 0,0 -48.667,-6.668 -52.667,-34.668 -4,-28 -10.666,-40.666 -21.333,-49.332 -10.667,-8.666 -24.667,-10 -24.667,-10 z"
         id="path9" />
      <path
         d="m 219.022,219.502 c 0,0 40.523,6.783 59,48 15.167,33.833 5,63 5,63 l -20.5,-3 c 0,0 8.5,-24.5 2,-46.5 -6.5,-22 -21.5,-47.5 -45.5,-61.5 m 218.11,93.66 c -14.46,-36.13 -35.773,-62.068 -38.265,-60.674 -4.494,2.513 -0.358,34.036 14.104,70.166 14.462,36.13 32.432,63.635 39.104,61.014 6.672,-2.621 -0.483,-34.376 -14.943,-70.506 m 21,72.506 c -16.442,8.934 -36.644,-24.45 -53.276,-63.334 -16.632,-38.884 -18.542,-70.23 -5.76,-75.836 17.092,-7.496 33.127,22.285 49.76,61.17 16.633,38.885 24,70 9.276,78"
         id="path10" />
      <path
         d="m 159.522,189.668 c 0,0 10.33,-31.037 62,-24.666 48.667,6 69.6,24.744 99.333,43.334 21.334,13.332 20,7.332 22.667,6.666 2.667,-0.666 14.667,-8 27.333,-6.666 0.667,-6.668 -6,-1.334 -8.666,-7.334 -1.333,-4 10.12,-22.824 26.666,-20 27.334,4.666 19.667,16 25,28.666 5.333,12.666 9,19.334 -17.667,37.334 -20.667,18.666 -32,14 -42,14 -10,0 -36,-14 -54,-10.666 -18,3.334 -29.334,10 -29.334,10 l -12,-13.333 c 0,0 22,-16.666 47.333,-10.666 25.333,6 44,25.332 66,15.332 22,-10 26.282,-16.7 33,-21.666 7.667,-5.668 8.333,-11.666 3,-17 -5.333,-5.334 10e-4,-9.334 -3.332,-15.334 -3.333,-6 -20,-8.666 -20,-8.666 0,0 18.273,23.477 -4,25.332 -16,1.334 -26,22.668 -48.667,11.334 -32.55,-16.277 -78.668,-44 -110.668,-47.332 -31.193,-3.248 -42.667,6.666 -50.667,25.332 -9.333,-8 -11.333,-14 -11.333,-14"
         id="path11" />
      <path
         d="m 274.2,183.002 c 0,0 22.667,-12 16,-38 -6.667,-26 -36.667,-44 -56,-52.668 -19.333,-8.668 -33.743,-20.127 -19.333,-27.332 12,-6 18.667,9.334 36,12 17.333,2.666 32.667,-4 34,-14 -7.334,4 -12.667,4 -12.667,4 0,0 6,-4 6.667,-10.668 0.667,-6.668 -0.667,-3.332 -4.667,-3.332 -10,0 -11.333,8.666 -20,7.332 -22,-2 -23.333,-11.334 -35.333,-12.666 -12,-1.332 -32,5.334 -29.334,20.666 2.666,15.332 23.334,26 42.667,34 19.333,8 48.667,33.334 44.667,56 -4,22.666 -21.334,18 -21.334,18 z m 56.832,188.75 c 0,0 9.5,-4.75 15.5,-28.75 4,-8.667 9.333,-15.667 14,-17.667 4.667,-2 -2,-4 -5.333,-3.333 -3.333,0.667 -10.334,3.667 -15,-0.333 -4.666,-4 -16,-14.667 -32,-12 -16,2.667 -29.667,12.833 -29.667,12.833 0,0 6,-26.5 41.667,-24.833 24.72,1.155 19.333,14 36,16.666 16.667,2.666 14.893,11.1 11.333,18 -5.667,11 -23.333,13.667 -25.333,45.834 -2,3.333 -14.5,-0.417 -11.167,-6.417 M 388.014,204.47 C 389.52,202.993 376.2,173 376.2,173 c 0,0 -2.667,-7.334 -9.814,-4.75 -7.3,2.645 -5.413,7.948 -5.413,7.948 l 17.026,30.837 c 0,0 9.353,-1.906 10.026,-2.566 m 18.732,42.7 -3.333,-10 -10.9,8.334 2.9,6.332 z"
         id="path12" />
      <path
         d="m 284.856,189.002 c -2,-7.334 23.333,-50.002 40.667,-47.334 17.334,2.668 20,-2.668 14.666,-6 -5.334,-3.332 -14.666,-4.668 -13.333,-9.334 1.333,-4.666 5,-9.334 -3.667,-8 -8.667,1.334 -26.333,10.668 -37,28.668 -3.333,-10.668 -4.666,-14 -4.666,-14 0,0 34,-35.334 68.666,-20.668 -6,4.668 -22.666,3.334 -8.666,11.334 14,8 24.666,10.666 31.333,-2 3.333,0.666 3.333,30 -40.667,28 -15.333,2 -36,32 -36,47.334 -4,-4 -9.333,-0.666 -11.333,-8 m 135.6,147.5 c 0,0 -8.75,-26.286 -5.104,-48 l 5.104,48 m 8.95,15.548 c -0.444,1.66 -4.07,-45.76 -3.203,-47.435 0.867,-1.675 5.9,37.34 3.203,47.435 m -116.55,26.285 c 0,0 37.667,3.333 31,18.333 -20.105,45.24 -58.333,71.667 -129,69 40,16 74,14 106.667,-14 16.333,-14 23.893,-31.04 29.75,-44.083 9.34,-20.8 6.6,-22.747 -3.75,-28.583 -12.568,-7.095 -34.2,-2.57 -34.667,-0.667"
         id="path13" />
      <path
         d="m 316.708,372.582 c 0,0 10.364,-7.138 18.502,-1.326 3.74,3.85 6.233,5.95 -4.37,5.512 l -12.905,0.53 c -8.94,1.825 -8.765,-0.938 -1.226,-4.715 z"
         id="path14" />
    </g>
  </g>
  <g
     id="g8"
     transform="matrix(1.1541763,0,0,1.1541763,-9.5584034,-3.6595945)">
    <path
       d="m 52.812747,45.434147 v -13.47508 h 2.156834 l 2.547119,7.20999 c 0.16433,0.451908 0.314967,0.903816 0.451908,1.355724 0.150637,0.451908 0.301272,0.931205 0.451909,1.43789 h 0.08217 c 0.150636,-0.506685 0.294425,-0.985982 0.431367,-1.43789 0.136937,-0.451908 0.28073,-0.903816 0.431366,-1.355724 l 2.547119,-7.20999 h 2.136293 v 13.47508 h -1.602224 v -7.415402 c 0,-0.397132 0.01365,-0.842193 0.04108,-1.335183 0.02739,-0.492991 0.05477,-0.979134 0.08217,-1.458431 0.04108,-0.492991 0.08216,-0.938052 0.123248,-1.335184 h -0.08216 L 61.56334,37.13547 59.036763,44.098964 H 57.783737 L 55.257159,37.13547 54.209554,33.889947 h -0.08216 c 0.04108,0.397132 0.07531,0.842193 0.102706,1.335184 0.04108,0.479297 0.07531,0.96544 0.102707,1.458431 0.02739,0.49299 0.04108,0.938051 0.04108,1.335183 v 7.415402 z m 14.769166,0 v -9.983062 h 1.684385 v 9.983062 z m 0.842193,-12.03719 c -0.328661,0 -0.602545,-0.102707 -0.821651,-0.30812 -0.205413,-0.205412 -0.308119,-0.472449 -0.308119,-0.801109 0,-0.328661 0.102706,-0.595698 0.308119,-0.80111 0.219106,-0.205413 0.49299,-0.30812 0.821651,-0.30812 0.32866,0 0.595697,0.102707 0.80111,0.30812 0.219106,0.205412 0.32866,0.472449 0.32866,0.80111 0,0.32866 -0.109558,0.595697 -0.32866,0.801109 -0.205413,0.205413 -0.47245,0.30812 -0.80111,0.30812 z m 4.210967,12.03719 v -9.983062 h 1.396807 l 0.143789,1.807632 h 0.06162 c 0.32866,-0.629932 0.739486,-1.12977 1.232476,-1.499513 0.492991,-0.369743 1.027064,-0.554615 1.60222,-0.554615 0.219107,0 0.410826,0.01365 0.575156,0.04108 0.16433,0.02739 0.328661,0.08216 0.492991,0.16433 l -0.369743,1.43789 c -0.150637,-0.04108 -0.294426,-0.06848 -0.431367,-0.08217 -0.123248,-0.02739 -0.287578,-0.04108 -0.492991,-0.04108 -0.424519,0 -0.869581,0.171178 -1.335183,0.513532 -0.451908,0.342354 -0.84904,0.938051 -1.191394,1.787092 v 6.408879 z m 7.127827,0 v -9.983062 h 1.396807 l 0.143789,1.807632 h 0.06162 c 0.32866,-0.629932 0.739486,-1.12977 1.232477,-1.499513 0.49299,-0.369743 1.027064,-0.554615 1.60222,-0.554615 0.219106,0 0.410825,0.01365 0.575155,0.04108 0.164331,0.02739 0.328661,0.08216 0.492991,0.16433 l -0.369743,1.43789 c -0.150636,-0.04108 -0.294425,-0.06848 -0.431367,-0.08217 -0.123248,-0.02739 -0.287578,-0.04108 -0.492991,-0.04108 -0.424519,0 -0.869581,0.171178 -1.335183,0.513532 -0.451908,0.342354 -0.84904,0.938051 -1.191394,1.787092 v 6.408879 z m 10.804711,0.246495 c -0.807958,0 -1.567985,-0.205412 -2.280083,-0.616238 -0.698403,-0.410826 -1.266711,-1.006523 -1.704926,-1.787091 -0.424519,-0.780569 -0.636779,-1.71862 -0.636779,-2.814156 0,-1.122923 0.21226,-2.074669 0.636779,-2.855238 0.438215,-0.780568 1.006523,-1.376266 1.704926,-1.787091 0.712098,-0.410826 1.472125,-0.616239 2.280083,-0.616239 0.821651,0 1.581677,0.205413 2.280076,0.616239 0.698404,0.410825 1.25987,1.006523 1.684385,1.787091 0.438219,0.780569 0.657321,1.732315 0.657321,2.855238 0,1.095536 -0.219102,2.033587 -0.657321,2.814156 -0.424515,0.780568 -0.985981,1.376265 -1.684385,1.787091 -0.698399,0.410826 -1.458425,0.616238 -2.280076,0.616238 z m 0,-1.396807 c 0.575155,0 1.08184,-0.157482 1.520054,-0.472449 0.438211,-0.328661 0.773712,-0.780569 1.006517,-1.355725 0.232806,-0.575155 0.349202,-1.239324 0.349202,-1.992504 0,-0.766875 -0.116424,-1.437889 -0.349202,-2.013045 -0.232805,-0.58885 -0.568306,-1.040758 -1.006517,-1.355725 -0.438214,-0.32866 -0.944899,-0.492991 -1.520054,-0.492991 -0.575156,0 -1.081841,0.164331 -1.520055,0.492991 -0.424519,0.314967 -0.760028,0.766875 -1.006523,1.355725 -0.232802,0.575156 -0.349202,1.24617 -0.349202,2.013045 0,0.75318 0.116396,1.417349 0.349202,1.992504 0.246495,0.575156 0.582004,1.027064 1.006523,1.355725 0.438214,0.314967 0.944899,0.472449 1.520055,0.472449 z m 7.251063,1.150312 v -9.983062 h 1.39681 l 0.14379,1.807632 h 0.0617 c 0.32866,-0.629932 0.739486,-1.12977 1.232476,-1.499513 0.49299,-0.369743 1.02706,-0.554615 1.60222,-0.554615 0.2191,0 0.41083,0.01365 0.57516,0.04108 0.16433,0.02739 0.32866,0.08216 0.49299,0.16433 l -0.36975,1.43789 c -0.15064,-0.04108 -0.29443,-0.06848 -0.43136,-0.08217 -0.12325,-0.02739 -0.28758,-0.04108 -0.49299,-0.04108 -0.42452,0 -0.86959,0.171178 -1.33519,0.513532 -0.4519,0.342354 -0.849036,0.938051 -1.191386,1.787092 v 6.408879 z"
       id="text15"
       style="font-size:14.45px;line-height:1;font-family:'Source Sans 3';-inkscape-font-specification:'Source Sans 3, ';letter-spacing:0;word-spacing:0;fill:#d30707;stroke-width:1.77693"
       aria-label="CodeMirror"
       sodipodi:nodetypes="cccccccscccccssccccccccccsscccccccscscscscscccccssscccscccccccccssscccsccccsccsccsscscssscssccsccsccscccccssscccscccc" />
    <path
       d="m 62.861507,27.128524 c -1.122923,0 -2.136293,-0.273884 -3.040109,-0.821651 -0.890123,-0.561462 -1.588526,-1.362572 -2.095211,-2.40333 -0.506684,-1.040758 -0.760027,-2.293776 -0.760027,-3.759054 0,-1.081841 0.143789,-2.054128 0.431367,-2.916862 0.301271,-0.862734 0.725792,-1.595372 1.273559,-2.197917 0.547767,-0.616239 1.177701,-1.08184 1.889798,-1.396807 0.725792,-0.314967 1.520055,-0.47245 2.382788,-0.47245 0.807958,0 1.526903,0.164331 2.156835,0.492991 0.643627,0.328661 1.157159,0.718945 1.540596,1.170853 l -0.924358,1.047605 c -0.356049,-0.383436 -0.766875,-0.677862 -1.232477,-0.883275 -0.451908,-0.219106 -0.958592,-0.32866 -1.520054,-0.32866 -0.835345,0 -1.574831,0.225954 -2.218459,0.677862 -0.629932,0.438215 -1.122922,1.068147 -1.478972,1.889798 -0.356049,0.807957 -0.534073,1.76655 -0.534073,2.875779 0,1.136618 0.171178,2.115752 0.513532,2.937403 0.342354,0.821651 0.835345,1.458431 1.478972,1.910339 0.643627,0.438215 1.396807,0.657321 2.259541,0.657321 0.629932,0 1.191394,-0.116396 1.684385,-0.349201 0.506684,-0.246496 0.96544,-0.602545 1.376266,-1.068147 l 0.903816,1.006523 c -0.534073,0.616238 -1.12977,1.095535 -1.787091,1.437889 -0.657321,0.328661 -1.424196,0.492991 -2.300624,0.492991 z m 10.332247,0 c -0.807957,0 -1.567985,-0.205413 -2.280082,-0.616238 -0.698403,-0.410826 -1.266712,-1.006523 -1.704926,-1.787092 -0.424519,-0.780568 -0.63678,-1.71862 -0.63678,-2.814155 0,-1.122923 0.212261,-2.074669 0.63678,-2.855238 0.438214,-0.780569 1.006523,-1.376266 1.704926,-1.787092 0.712097,-0.410825 1.472125,-0.616238 2.280082,-0.616238 0.821652,0 1.581679,0.205413 2.280082,0.616238 0.698404,0.410826 1.259866,1.006523 1.684385,1.787092 0.438215,0.780569 0.657321,1.732315 0.657321,2.855238 0,1.095535 -0.219106,2.033587 -0.657321,2.814155 -0.424519,0.780569 -0.985981,1.376266 -1.684385,1.787092 -0.698403,0.410825 -1.45843,0.616238 -2.280082,0.616238 z m 0,-1.396807 c 0.575156,0 1.081841,-0.157483 1.520055,-0.472449 0.438215,-0.328661 0.773721,-0.780569 1.006523,-1.355725 0.232801,-0.575156 0.349202,-1.239324 0.349202,-1.992504 0,-0.766875 -0.116396,-1.43789 -0.349202,-2.013046 -0.232802,-0.588849 -0.568308,-1.040757 -1.006523,-1.355724 -0.438214,-0.328661 -0.944899,-0.492991 -1.520055,-0.492991 -0.575156,0 -1.08184,0.16433 -1.520054,0.492991 -0.42452,0.314967 -0.760028,0.766875 -1.006523,1.355724 -0.232802,0.575156 -0.349202,1.246171 -0.349202,2.013046 0,0.75318 0.116396,1.417348 0.349202,1.992504 0.246495,0.575156 0.582003,1.027064 1.006523,1.355725 0.438214,0.314966 0.944898,0.472449 1.520054,0.472449 z m 10.660919,1.396807 c -1.259865,0 -2.266388,-0.451908 -3.019568,-1.355724 -0.739486,-0.91751 -1.109229,-2.204765 -1.109229,-3.861761 0,-1.08184 0.198565,-2.013046 0.595697,-2.793614 0.410826,-0.794263 0.944899,-1.403655 1.60222,-1.828174 0.657321,-0.42452 1.369418,-0.63678 2.136293,-0.63678 0.58885,0 1.088688,0.102706 1.499514,0.308119 0.424519,0.191719 0.855886,0.47245 1.2941,0.842193 l -0.08217,-1.704927 v -3.841219 h 1.704926 v 14.625392 h -1.396802 l -0.143789,-1.170853 h -0.06162 c -0.383436,0.383436 -0.835344,0.718945 -1.355724,1.006522 -0.52038,0.273885 -1.074994,0.410826 -1.663844,0.410826 z m 0.369743,-1.417348 c 0.465602,0 0.903817,-0.116396 1.314642,-0.349202 0.410826,-0.232802 0.821651,-0.575156 1.232477,-1.027064 v -5.217485 c -0.410826,-0.383437 -0.814804,-0.650474 -1.211935,-0.80111 -0.397132,-0.16433 -0.80111,-0.246496 -1.211936,-0.246496 -0.534073,0 -1.020216,0.164331 -1.458431,0.492991 -0.424519,0.314967 -0.766875,0.760027 -1.027064,1.335183 -0.260189,0.561462 -0.390284,1.22563 -0.390284,1.992505 0,1.191394 0.239647,2.129445 0.718945,2.814155 0.479297,0.671015 1.157159,1.006523 2.033586,1.006523 z m 11.667455,1.417348 c -0.890123,0 -1.704927,-0.205413 -2.444413,-0.616238 -0.725792,-0.42452 -1.300948,-1.020217 -1.725467,-1.787092 -0.42452,-0.780568 -0.63678,-1.725467 -0.63678,-2.834696 0,-1.081841 0.219107,-2.013046 0.657321,-2.793615 0.438215,-0.780568 0.999675,-1.383113 1.684385,-1.807632 0.68471,-0.42452 1.410501,-0.63678 2.177376,-0.63678 0.849041,0 1.567981,0.198565 2.156831,0.595697 0.60255,0.383437 1.05446,0.924358 1.35573,1.622761 0.30127,0.698404 0.45191,1.520055 0.45191,2.464954 0,0.178024 -0.007,0.349202 -0.0206,0.513532 0,0.16433 -0.0205,0.32866 -0.0616,0.492991 h -7.189447 v -1.335184 h 5.751557 c 0,-0.958592 -0.21226,-1.691232 -0.63678,-2.197917 -0.41082,-0.520379 -1.00652,-0.780568 -1.78709,-0.780568 -0.451908,0 -0.896969,0.130099 -1.335183,0.390284 -0.438215,0.246496 -0.80111,0.650474 -1.088688,1.211936 -0.273884,0.561462 -0.410826,1.307794 -0.410826,2.238999 0,0.84904 0.143789,1.561138 0.431367,2.136293 0.301272,0.575156 0.705251,1.013371 1.211936,1.314642 0.506684,0.287578 1.061299,0.431367 1.663844,0.431367 0.4793,0 0.92436,-0.06847 1.33518,-0.205413 0.42452,-0.136937 0.80796,-0.321812 1.15031,-0.554614 l 0.61624,1.109229 c -0.43821,0.301272 -0.9312,0.547767 -1.47897,0.739486 -0.53407,0.191719 -1.14346,0.287578 -1.828173,0.287578 z"
       id="text15-0"
       style="font-size:14.45px;line-height:1;font-family:'Source Sans 3';-inkscape-font-specification:'Source Sans 3, ';letter-spacing:0;word-spacing:0;fill:#d30707;stroke-width:1.77693"
       aria-label="CodeMirror"
       sodipodi:nodetypes="scsscccsccccsccsscsccccssccsccsscscssscssccsccsccsscscssccccccccccssscccsccscssccsssscssccccccsccsccsccccs" />
  </g>
</svg>
