<?xml version="1.0" encoding="UTF-8" standalone="no"?>
<svg
   xmlns:dc="http://purl.org/dc/elements/1.1/"
   xmlns:cc="http://creativecommons.org/ns#"
   xmlns:rdf="http://www.w3.org/1999/02/22-rdf-syntax-ns#"
   xmlns:svg="http://www.w3.org/2000/svg"
   xmlns="http://www.w3.org/2000/svg"
   xmlns:sodipodi="http://sodipodi.sourceforge.net/DTD/sodipodi-0.dtd"
   xmlns:inkscape="http://www.inkscape.org/namespaces/inkscape"
   id="Layer_1"
   data-name="Layer 1"
   viewBox="0 0 32 32"
   version="1.1"
   sodipodi:docname="stumbleupon-icon.svg"
   width="32"
   height="32"
   inkscape:version="0.92.2 (5c3e80d, 2017-08-06)">
  <metadata
     id="metadata12">
    <rdf:RDF>
      <cc:Work
         rdf:about="">
        <dc:format>image/svg+xml</dc:format>
        <dc:type
           rdf:resource="http://purl.org/dc/dcmitype/StillImage" />
        <dc:title>stumbleupon-flat</dc:title>
      </cc:Work>
    </rdf:RDF>
  </metadata>
  <defs
     id="defs10" />
  <sodipodi:namedview
     pagecolor="#ffffff"
     bordercolor="#666666"
     borderopacity="1"
     objecttolerance="10"
     gridtolerance="10"
     guidetolerance="10"
     inkscape:pageopacity="0"
     inkscape:pageshadow="2"
     inkscape:window-width="1920"
     inkscape:window-height="1001"
     id="namedview8"
     showgrid="false"
     inkscape:zoom="3.6875"
     inkscape:cx="125.83505"
     inkscape:cy="-15.59435"
     inkscape:window-x="-9"
     inkscape:window-y="-9"
     inkscape:window-maximized="1"
     inkscape:current-layer="Layer_1" />
  <title
     id="title2">stumbleupon-flat</title>
  <g
     id="g4518"
     transform="scale(0.0625)">
    <g
       id="Stumbleupon">
      <circle
         r="256"
         cy="256"
         cx="256"
         id="back"
         style="fill:#ea4b24" />
      <path
         d="m 335.29,363.49 c -35.28,0 -66.25,-27.85 -66.48,-62.29 V 257 l 22,16.86 25,-17.93 v 46 c 0,8.14 11,15.43 19.36,15.43 8.36,0 16.39,-7.29 16.39,-15.43 v -46.4 h 47.81 v 45.07 c -0.01,34.8 -28.68,62.89 -64.08,62.89 z M 256,196.81 c -8.36,0 -12.19,6.58 -12.19,14.83 v 89.79 c -0.6,34.44 -31.94,62.05 -67.07,62.05 -35.39,0 -64.11,-28.09 -64.11,-62.89 v -44.47 h 47.23 v 44 c 0,8.13 8.61,14.83 17,14.83 8.39,0 18.78,-6.7 18.78,-14.83 v -91 c 1.18,-33.72 26.55,-60.62 61.08,-60.62 34.8,0 57.89,27.14 59,61 v 20 L 293.86,243.26 269,229 v -17.36 c 0,-8.25 -4.61,-14.83 -13,-14.83 z"
         data-name="Stumbleupon"
         id="Stumbleupon-2"
         inkscape:connector-curvature="0"
         style="fill:#ffffff" />
    </g>
  </g>
</svg>
