<?xml version="1.0" encoding="utf-8"?>
<!-- Generator: Adobe Illustrator 24.0.1, SVG Export Plug-In . SVG Version: 6.00 Build 0)  -->
<svg version="1.1" id="Layer_1" xmlns="http://www.w3.org/2000/svg" xmlns:xlink="http://www.w3.org/1999/xlink" x="0px" y="0px"
	 viewBox="0 0 120 60" width="120" height="60" style="enable-background:new 0 0 120 60;" xml:space="preserve">
<style type="text/css">
	.st0{fill:#18265E;}
	.st1{fill:#4674F6;}
</style>
<g>
	<g>
		<path class="st0" d="M47.4,25.8h2.9c1.3,0,2.3,0.3,3.1,1c0.7,0.7,1.1,1.7,1.1,2.9c0,1.3-0.4,2.3-1.1,3c-0.7,0.7-1.7,1-3.1,1h-2.9
			V25.8z M50.3,32.6c1.8,0,2.8-0.9,2.8-2.8c0-1.9-0.9-2.8-2.8-2.8h-1.4v5.7H50.3z"/>
		<path class="st0" d="M60.8,31h-3.9c0,0.6,0.2,1.1,0.5,1.4c0.3,0.3,0.7,0.4,1.2,0.4c0.6,0,1.2-0.2,1.7-0.6l0.4,1
			c-0.3,0.2-0.6,0.4-1,0.5c-0.4,0.1-0.8,0.2-1.2,0.2c-0.9,0-1.7-0.3-2.2-0.8c-0.5-0.5-0.8-1.2-0.8-2.2c0-0.6,0.1-1.1,0.3-1.5
			c0.2-0.5,0.6-0.8,1-1c0.4-0.3,0.9-0.4,1.4-0.4c0.8,0,1.4,0.3,1.8,0.8c0.5,0.5,0.7,1.2,0.7,2.1V31z M58.3,29
			c-0.4,0-0.7,0.1-0.9,0.3c-0.2,0.2-0.4,0.5-0.5,1h2.6c0-0.4-0.2-0.8-0.4-1C58.9,29.1,58.6,29,58.3,29z"/>
		<path class="st0" d="M65.1,27.9c0.5,0,0.9,0.1,1.3,0.4c0.4,0.2,0.7,0.6,0.9,1.1c0.2,0.5,0.3,1,0.3,1.6s-0.1,1.1-0.3,1.5
			c-0.2,0.4-0.5,0.8-0.9,1c-0.4,0.2-0.8,0.4-1.3,0.4c-0.4,0-0.8-0.1-1.1-0.3c-0.3-0.2-0.6-0.4-0.7-0.7v3.3h-1.4v-6.5
			c0-0.6,0-1.1-0.1-1.6h1.3l0.1,1c0.2-0.4,0.4-0.6,0.7-0.8C64.3,28,64.6,27.9,65.1,27.9z M64.7,32.8c0.5,0,0.8-0.2,1.1-0.5
			c0.3-0.3,0.4-0.8,0.4-1.4c0-0.6-0.1-1.1-0.4-1.4c-0.3-0.3-0.6-0.5-1.1-0.5c-0.5,0-0.8,0.2-1.1,0.5c-0.3,0.3-0.4,0.8-0.4,1.4
			c0,0.6,0.1,1.1,0.4,1.4C63.9,32.6,64.2,32.8,64.7,32.8z"/>
		<path class="st0" d="M68.7,25.5h1.4v8.3h-1.4V25.5z"/>
		<path class="st0" d="M74.1,33.9c-0.6,0-1.1-0.1-1.5-0.4c-0.4-0.2-0.8-0.6-1-1c-0.2-0.5-0.3-1-0.3-1.6c0-0.6,0.1-1.1,0.3-1.6
			c0.2-0.5,0.6-0.8,1-1c0.4-0.2,1-0.4,1.5-0.4c0.6,0,1.1,0.1,1.5,0.4c0.4,0.2,0.8,0.6,1,1c0.2,0.4,0.4,1,0.4,1.6
			c0,0.6-0.1,1.1-0.4,1.6c-0.2,0.4-0.6,0.8-1,1C75.2,33.7,74.7,33.9,74.1,33.9z M74.1,32.8c0.5,0,0.8-0.2,1.1-0.5
			c0.3-0.3,0.4-0.8,0.4-1.4c0-0.6-0.1-1.1-0.4-1.4c-0.3-0.3-0.6-0.5-1.1-0.5c-0.5,0-0.8,0.2-1.1,0.5c-0.3,0.3-0.4,0.8-0.4,1.4
			c0,0.6,0.1,1.1,0.4,1.4C73.3,32.6,73.6,32.8,74.1,32.8z"/>
		<path class="st0" d="M83.4,28.1l-2.6,6.1c-0.3,0.7-0.7,1.2-1.1,1.5c-0.5,0.3-1,0.5-1.7,0.6l-0.3-1.1c0.5-0.1,0.9-0.3,1.2-0.5
			c0.3-0.2,0.5-0.5,0.7-0.8l0.2-0.4l-2.4-5.5h1.5l1.6,4.1l1.7-4.1H83.4z"/>
		<path class="st0" d="M84.2,33.8v-8h3.2c0.8,0,1.5,0.2,1.9,0.6c0.5,0.4,0.7,0.9,0.7,1.6c0,0.7-0.2,1.2-0.7,1.6
			c-0.5,0.4-1.1,0.6-1.9,0.6h-2.3v3.5H84.2z M85.1,29.5h2.2c0.6,0,1-0.1,1.3-0.4c0.3-0.3,0.5-0.6,0.5-1.1s-0.1-0.8-0.5-1.1
			c-0.3-0.3-0.7-0.4-1.3-0.4h-2.2V29.5z"/>
		<path class="st0" d="M91.3,33.8v-8.3h0.9v8.3H91.3z"/>
		<path class="st0" d="M96.1,33.9c-0.5,0-0.9-0.1-1.3-0.3c-0.4-0.2-0.7-0.6-0.9-1c-0.2-0.4-0.3-1-0.3-1.6s0.1-1.1,0.3-1.6
			c0.2-0.4,0.5-0.8,0.9-1c0.4-0.2,0.8-0.4,1.3-0.4c0.5,0,1,0.1,1.3,0.4c0.4,0.3,0.6,0.6,0.7,1.1L98,29.5v-1.4h0.9v5.7H98v-1.5
			l0.1,0.1c-0.1,0.5-0.4,0.8-0.7,1.1C97,33.7,96.6,33.9,96.1,33.9z M96.2,33.1c0.6,0,1-0.2,1.3-0.6c0.3-0.4,0.5-0.9,0.5-1.6
			c0-0.7-0.2-1.2-0.5-1.6c-0.3-0.4-0.7-0.6-1.3-0.6c-0.6,0-1,0.2-1.3,0.6c-0.3,0.4-0.5,0.9-0.5,1.6c0,0.7,0.2,1.2,0.5,1.6
			C95.3,32.9,95.7,33.1,96.2,33.1z"/>
		<path class="st0" d="M102.9,33.9c-0.6,0-1-0.1-1.4-0.4c-0.4-0.2-0.7-0.6-0.9-1c-0.2-0.4-0.3-0.9-0.3-1.5c0-0.6,0.1-1.1,0.3-1.5
			c0.2-0.5,0.5-0.8,1-1c0.4-0.2,0.9-0.4,1.5-0.4c0.4,0,0.8,0.1,1.1,0.2c0.4,0.1,0.7,0.3,0.9,0.5l-0.3,0.7c-0.3-0.2-0.6-0.4-0.8-0.5
			c-0.3-0.1-0.5-0.2-0.8-0.2c-0.6,0-1,0.2-1.4,0.6c-0.3,0.4-0.5,0.9-0.5,1.6c0,0.7,0.2,1.2,0.5,1.6c0.3,0.4,0.8,0.6,1.4,0.6
			c0.3,0,0.6-0.1,0.8-0.2c0.3-0.1,0.5-0.3,0.8-0.5l0.3,0.7c-0.2,0.2-0.5,0.4-0.9,0.5C103.7,33.8,103.3,33.9,102.9,33.9z"/>
		<path class="st0" d="M110.6,33.1c-0.2,0.2-0.6,0.4-1,0.6c-0.4,0.1-0.8,0.2-1.2,0.2c-0.6,0-1.1-0.1-1.5-0.3c-0.4-0.2-0.7-0.6-1-1
			c-0.2-0.4-0.3-1-0.3-1.6c0-0.6,0.1-1.1,0.3-1.5c0.2-0.4,0.5-0.8,0.9-1c0.4-0.2,0.9-0.4,1.4-0.4c0.5,0,0.9,0.1,1.3,0.3
			c0.4,0.2,0.6,0.5,0.8,0.9c0.2,0.4,0.3,0.9,0.3,1.5v0.2h-4.3v-0.6h3.8l-0.3,0.4c0-0.7-0.1-1.2-0.4-1.5c-0.3-0.4-0.7-0.5-1.2-0.5
			c-0.5,0-1,0.2-1.3,0.6c-0.3,0.4-0.5,0.9-0.5,1.6c0,0.7,0.2,1.3,0.5,1.7c0.3,0.4,0.8,0.6,1.4,0.6c0.3,0,0.6-0.1,0.9-0.2
			c0.3-0.1,0.6-0.3,0.9-0.5L110.6,33.1z"/>
	</g>
	<path class="st1" d="M9.3,38.8l14.8,8.5v-7.5L9.3,31.3V38.8z M9.3,29.2l1.7,1l13.1,7.5v-7.5L9.3,21.8V29.2z M25,28.8l14.9-8.6
		l-13.1-7.5v9.5H33l-8,4.3l-8-4.3h6.2v-9.5l-13.1,7.5l0.9,0.5L25,28.8z M25.9,30.3v7.5l14.8-8.6v-7.4L25.9,30.3z M25.9,47.3
		l14.8-8.5v-7.6l-14.8,8.6V47.3z"/>
</g>
</svg>
