<?xml version="1.0" encoding="UTF-8" standalone="no"?>
<svg
   xmlns:dc="http://purl.org/dc/elements/1.1/"
   xmlns:cc="http://creativecommons.org/ns#"
   xmlns:rdf="http://www.w3.org/1999/02/22-rdf-syntax-ns#"
   xmlns:svg="http://www.w3.org/2000/svg"
   xmlns="http://www.w3.org/2000/svg"
   xmlns:sodipodi="http://sodipodi.sourceforge.net/DTD/sodipodi-0.dtd"
   xmlns:inkscape="http://www.inkscape.org/namespaces/inkscape"
   width="120"
   height="60"
   viewBox="0 0 120 60"
   preserveAspectRatio="xMidYMid"
   version="1.1"
   id="svg46"
   sodipodi:docname="d3js-ar21.svg"
   inkscape:version="0.92.2 (5c3e80d, 2017-08-06)">
  <metadata
     id="metadata50">
    <rdf:RDF>
      <cc:Work
         rdf:about="">
        <dc:format>image/svg+xml</dc:format>
        <dc:type
           rdf:resource="http://purl.org/dc/dcmitype/StillImage" />
        <dc:title></dc:title>
      </cc:Work>
    </rdf:RDF>
  </metadata>
  <sodipodi:namedview
     pagecolor="#ffffff"
     bordercolor="#666666"
     borderopacity="1"
     objecttolerance="10"
     gridtolerance="10"
     guidetolerance="10"
     inkscape:pageopacity="0"
     inkscape:pageshadow="2"
     inkscape:window-width="1920"
     inkscape:window-height="1001"
     id="namedview48"
     showgrid="false"
     inkscape:zoom="5.4938996"
     inkscape:cx="59.832372"
     inkscape:cy="22.405305"
     inkscape:window-x="-9"
     inkscape:window-y="-9"
     inkscape:window-maximized="1"
     inkscape:current-layer="svg46" />
  <defs
     id="defs32">
    <linearGradient
       x1="104.44538"
       y1="18.93784"
       x2="257.21799"
       y2="181.92075"
       id="a"
       gradientTransform="scale(1.0064944,0.99354749)"
       gradientUnits="userSpaceOnUse">
      <stop
         stop-color="#F9A03C"
         offset="0%"
         id="stop2" />
      <stop
         stop-color="#F7974E"
         offset="100%"
         id="stop4" />
    </linearGradient>
    <linearGradient
       x1="-21.491936"
       y1="48.226681"
       x2="122.23588"
       y2="188.40466"
       id="b"
       gradientTransform="scale(0.99750496,1.0025013)"
       gradientUnits="userSpaceOnUse">
      <stop
         stop-color="#F9A03C"
         offset="0%"
         id="stop7" />
      <stop
         stop-color="#F7974E"
         offset="100%"
         id="stop9" />
    </linearGradient>
    <linearGradient
       x1="44.16782"
       y1="98.813454"
       x2="172.57579"
       y2="246.033"
       id="c"
       gradientTransform="scale(1.0137695,0.98641753)"
       gradientUnits="userSpaceOnUse">
      <stop
         stop-color="#F9A03C"
         offset="0%"
         id="stop12" />
      <stop
         stop-color="#F7974E"
         offset="100%"
         id="stop14" />
    </linearGradient>
    <linearGradient
       x1="28.214787"
       y1="-4.5336752"
       x2="205.27444"
       y2="229.18948"
       id="d"
       gradientTransform="scale(1.0281535,0.97261746)"
       gradientUnits="userSpaceOnUse">
      <stop
         stop-color="#F26D58"
         offset="0%"
         id="stop17" />
      <stop
         stop-color="#F9A03C"
         offset="100%"
         id="stop19" />
    </linearGradient>
    <linearGradient
       x1="125.82784"
       y1="6.4669213"
       x2="300.62915"
       y2="121.326"
       id="e"
       gradientTransform="scale(0.95887415,1.0428897)"
       gradientUnits="userSpaceOnUse">
      <stop
         stop-color="#B84E51"
         offset="0%"
         id="stop22" />
      <stop
         stop-color="#F68E48"
         offset="100%"
         id="stop24" />
    </linearGradient>
    <linearGradient
       x1="60.120693"
       y1="236.93591"
       x2="66.386894"
       y2="395.51025"
       id="f"
       gradientTransform="scale(1.3814091,0.72389853)"
       gradientUnits="userSpaceOnUse">
      <stop
         stop-color="#F9A03C"
         offset="0%"
         id="stop27" />
      <stop
         stop-color="#F7974E"
         offset="100%"
         id="stop29" />
    </linearGradient>
  </defs>
  <g
     id="g4630"
     transform="translate(-3.5202596e-8,2.0822627)">
    <g
       transform="matrix(0.11884541,0,0,0.11884541,44.79272,6.5280698)"
       id="g4600">
      <path
         style="fill:url(#a)"
         inkscape:connector-curvature="0"
         d="m 255.52,175.619 c 0.115,-1.115 0.197,-2.24 0.261,-3.371 0.078,-1.339 -80.562,-77.85 -80.562,-77.85 h -1.928 c 0,0 81.736,86.215 82.229,81.22 z"
         id="path34" />
      <path
         style="fill:url(#b)"
         inkscape:connector-curvature="0"
         d="m 83.472,149.077 c -0.107,0.235 -0.213,0.47 -0.323,0.704 -0.114,0.246 -0.232,0.491 -0.349,0.734 -2.57,5.36 35.987,43.053 39.088,38.474 0.141,-0.202 0.283,-0.416 0.424,-0.618 0.157,-0.24 0.312,-0.47 0.467,-0.71 2.48,-3.765 -38.206,-41.032 -39.307,-38.584 z"
         id="path36" />
      <path
         style="fill:url(#c)"
         inkscape:connector-curvature="0"
         d="m 137.957,202.083 c -0.109,0.24 -0.885,1.552 -1.594,2.245 -0.12,0.24 37.64,37.688 37.64,37.688 h 3.4 c 0.002,0 -35.446,-38.35 -39.446,-39.933 z"
         id="path38" />
      <path
         style="fill:url(#d)"
         inkscape:connector-curvature="0"
         d="m 255.835,171.568 c -1.766,39.147 -34.152,70.448 -73.72,70.448 h -5.35 l -39.514,-38.928 c 3.25,-4.584 6.272,-9.333 8.962,-14.285 h 35.902 c 11.354,0 20.594,-9.235 20.594,-20.595 0,-11.355 -9.24,-20.595 -20.594,-20.595 h -21.246 c 1.619,-8.557 2.504,-17.381 2.504,-26.408 0,-9.165 -0.901,-18.114 -2.578,-26.808 h 13.197 l 81.61,80.414 c 0.097,-1.078 0.174,-2.155 0.233,-3.243 z M 21.467,0 H 0 v 53.213 h 21.467 c 37.493,0 68,30.499 68,67.992 0,10.2 -2.275,19.883 -6.318,28.576 l 39.163,38.59 c 12.859,-19.24 20.376,-42.339 20.376,-67.166 C 142.688,54.373 88.307,0 21.467,0 Z"
         id="path40" />
      <path
         style="fill:url(#e)"
         inkscape:connector-curvature="0"
         d="M 182.115,0 H 95.187 C 116.419,12.963 134,31.344 145.979,53.213 h 36.136 c 11.354,0 20.594,9.235 20.594,20.595 0,11.357 -9.24,20.592 -20.594,20.592 h -8.12 l 81.61,80.413 c 0.192,-2.181 0.312,-4.376 0.312,-6.605 0,-17.939 -6.437,-34.395 -17.125,-47.203 C 249.48,108.203 255.917,91.744 255.917,73.808 255.917,33.112 222.813,0 182.115,0 Z"
         id="path42" />
      <path
         style="fill:url(#f)"
         inkscape:connector-curvature="0"
         d="M 176.765,242.016 H 95.808 c 16.296,-10.064 30.384,-23.35 41.443,-38.928 z m -54.453,-53.645 -39.16,-38.59 C 72.333,173.032 48.757,189.203 21.467,189.203 H 0 v 53.208 h 21.467 c 42.01,0 79.09,-21.488 100.845,-54.04 z"
         id="path44" />
    </g>
    <g
       transform="matrix(0.22623417,0,0,0.22623417,78.547632,59.187041)"
       id="text862"
       style="font-style:normal;font-weight:normal;font-size:40px;line-height:1.25;font-family:sans-serif;letter-spacing:0px;word-spacing:0px;fill:#4f4f4f;fill-opacity:1;stroke:none"
       aria-label="Data-Driven Documents">
      <path
         inkscape:connector-curvature="0"
         id="path4553"
         d="m -296.89633,-58.787144 q 0,3.964844 -1.73828,7.1875 -1.71875,3.222657 -4.58985,5 -1.99218,1.230469 -4.45312,1.777344 -2.44141,0.546875 -6.44531,0.546875 h -7.34375 v -29.082031 h 7.26562 q 4.25781,0 6.75781,0.625 2.51953,0.605469 4.25782,1.679687 2.96875,1.855469 4.6289,4.941407 1.66016,3.085937 1.66016,7.324218 z m -4.04297,-0.05859 q 0,-3.417969 -1.19141,-5.761719 -1.1914,-2.34375 -3.55468,-3.691406 -1.71875,-0.976563 -3.65235,-1.347657 -1.93359,-0.390625 -4.6289,-0.390625 h -3.63282 v 22.441407 h 3.63282 q 2.79296,0 4.86328,-0.410157 2.08984,-0.410156 3.82812,-1.523437 2.16797,-1.386719 3.24219,-3.652344 1.09375,-2.265625 1.09375,-5.664062 z" />
      <path
         inkscape:connector-curvature="0"
         id="path4555"
         d="m -273.94711,-44.275425 h -3.65235 v -2.324219 q -0.48828,0.332032 -1.32812,0.9375 -0.82031,0.585938 -1.60156,0.9375 -0.91797,0.449219 -2.10938,0.742188 -1.19141,0.3125 -2.79297,0.3125 -2.94922,0 -5,-1.953125 -2.05078,-1.953125 -2.05078,-4.980469 0,-2.480469 1.05469,-4.003906 1.07422,-1.542969 3.04687,-2.421875 1.99219,-0.878906 4.78516,-1.191406 2.79297,-0.3125 5.99609,-0.46875 v -0.566407 q 0,-1.25 -0.44922,-2.070312 -0.42968,-0.820313 -1.25,-1.289063 -0.78125,-0.449218 -1.875,-0.605468 -1.09375,-0.15625 -2.28515,-0.15625 -1.44531,0 -3.22266,0.390625 -1.77734,0.371093 -3.67187,1.09375 h -0.19532 v -3.730469 q 1.07422,-0.292969 3.10547,-0.644531 2.03125,-0.351563 4.00391,-0.351563 2.30469,0 4.00391,0.390625 1.71875,0.371094 2.96875,1.289063 1.23046,0.898437 1.875,2.324218 0.64453,1.425782 0.64453,3.535157 z m -3.65235,-5.371094 v -6.074218 q -1.67968,0.09766 -3.96484,0.292968 -2.26563,0.195313 -3.59375,0.566407 -1.58203,0.449218 -2.55859,1.40625 -0.97657,0.9375 -0.97657,2.597656 0,1.875 1.13282,2.832031 1.13281,0.9375 3.45703,0.9375 1.93359,0 3.53515,-0.742187 1.60157,-0.761719 2.96875,-1.816407 z" />
      <path
         inkscape:connector-curvature="0"
         id="path4557"
         d="m -255.50961,-44.470737 q -1.03516,0.273437 -2.26563,0.449218 -1.21094,0.175782 -2.16797,0.175782 -3.33984,0 -5.07812,-1.796875 -1.73828,-1.796875 -1.73828,-5.761719 v -11.601563 h -2.48047 v -3.085937 h 2.48047 v -6.269531 h 3.67187 v 6.269531 h 7.57813 v 3.085937 h -7.57813 v 9.941407 q 0,1.71875 0.0781,2.695312 0.0781,0.957031 0.54687,1.796875 0.42969,0.78125 1.17188,1.152344 0.76172,0.351562 2.30468,0.351562 0.89844,0 1.875,-0.253906 0.97657,-0.273437 1.40625,-0.449219 h 0.19532 z" />
      <path
         inkscape:connector-curvature="0"
         id="path4559"
         d="m -234.10336,-44.275425 h -3.65235 v -2.324219 q -0.48828,0.332032 -1.32812,0.9375 -0.82031,0.585938 -1.60156,0.9375 -0.91797,0.449219 -2.10938,0.742188 -1.19141,0.3125 -2.79297,0.3125 -2.94922,0 -5,-1.953125 -2.05078,-1.953125 -2.05078,-4.980469 0,-2.480469 1.05469,-4.003906 1.07422,-1.542969 3.04687,-2.421875 1.99219,-0.878906 4.78516,-1.191406 2.79297,-0.3125 5.99609,-0.46875 v -0.566407 q 0,-1.25 -0.44922,-2.070312 -0.42968,-0.820313 -1.25,-1.289063 -0.78125,-0.449218 -1.875,-0.605468 -1.09375,-0.15625 -2.28515,-0.15625 -1.44531,0 -3.22266,0.390625 -1.77734,0.371093 -3.67187,1.09375 h -0.19532 v -3.730469 q 1.07422,-0.292969 3.10547,-0.644531 2.03125,-0.351563 4.00391,-0.351563 2.30469,0 4.00391,0.390625 1.71875,0.371094 2.96875,1.289063 1.23046,0.898437 1.875,2.324218 0.64453,1.425782 0.64453,3.535157 z m -3.65235,-5.371094 v -6.074218 q -1.67968,0.09766 -3.96484,0.292968 -2.26563,0.195313 -3.59375,0.566407 -1.58203,0.449218 -2.55859,1.40625 -0.97657,0.9375 -0.97657,2.597656 0,1.875 1.13282,2.832031 1.13281,0.9375 3.45703,0.9375 1.93359,0 3.53515,-0.742187 1.60157,-0.761719 2.96875,-1.816407 z" />
      <path
         inkscape:connector-curvature="0"
         id="path4561"
         d="m -215.43149,-55.232456 h -12.1875 v -3.535156 h 12.1875 z" />
      <path
         inkscape:connector-curvature="0"
         id="path4563"
         d="m -183.92758,-58.787144 q 0,3.964844 -1.73828,7.1875 -1.71875,3.222657 -4.58985,5 -1.99218,1.230469 -4.45312,1.777344 -2.44141,0.546875 -6.44531,0.546875 h -7.34375 v -29.082031 h 7.26562 q 4.25781,0 6.75781,0.625 2.51953,0.605469 4.25782,1.679687 2.96875,1.855469 4.6289,4.941407 1.66016,3.085937 1.66016,7.324218 z m -4.04297,-0.05859 q 0,-3.417969 -1.19141,-5.761719 -1.1914,-2.34375 -3.55468,-3.691406 -1.71875,-0.976563 -3.65235,-1.347657 -1.93359,-0.390625 -4.6289,-0.390625 h -3.63282 v 22.441407 h 3.63282 q 2.79296,0 4.86328,-0.410157 2.08984,-0.410156 3.82812,-1.523437 2.16797,-1.386719 3.24219,-3.652344 1.09375,-2.265625 1.09375,-5.664062 z" />
      <path
         inkscape:connector-curvature="0"
         id="path4565"
         d="m -164.31821,-62.087925 h -0.19531 q -0.82031,-0.195312 -1.60156,-0.273437 -0.76172,-0.09766 -1.81641,-0.09766 -1.69922,0 -3.28125,0.761719 -1.58203,0.742188 -3.04687,1.933594 v 15.488281 h -3.67188 v -21.816406 h 3.67188 v 3.222656 q 2.1875,-1.757812 3.84765,-2.480469 1.67969,-0.742187 3.41797,-0.742187 0.95703,0 1.38672,0.05859 0.42969,0.03906 1.28906,0.175781 z" />
      <path
         inkscape:connector-curvature="0"
         id="path4567"
         d="m -156.8768,-69.744175 h -4.14063 v -3.808594 h 4.14063 z m -0.23438,25.46875 h -3.67187 v -21.816406 h 3.67187 z" />
      <path
         inkscape:connector-curvature="0"
         id="path4569"
         d="m -130.9393,-66.091831 -8.82813,21.816406 h -3.6914 l -8.76953,-21.816406 h 3.98437 l 6.75781,17.363281 6.69922,-17.363281 z" />
      <path
         inkscape:connector-curvature="0"
         id="path4571"
         d="m -108.18539,-54.802769 h -16.07422 q 0,2.011719 0.60547,3.515625 0.60546,1.484375 1.66015,2.441407 1.01563,0.9375 2.40235,1.40625 1.40625,0.46875 3.08593,0.46875 2.22657,0 4.47266,-0.878907 2.26562,-0.898437 3.22266,-1.757812 h 0.19531 v 4.003906 q -1.85547,0.78125 -3.78906,1.308594 -1.9336,0.527344 -4.0625,0.527344 -5.42969,0 -8.47657,-2.929688 -3.04687,-2.949219 -3.04687,-8.359375 0,-5.351562 2.91015,-8.496094 2.92969,-3.144531 7.69532,-3.144531 4.41406,0 6.79687,2.578125 2.40235,2.578125 2.40235,7.324219 z m -3.57422,-2.8125 q -0.0195,-2.890625 -1.46485,-4.472656 -1.42578,-1.582031 -4.35547,-1.582031 -2.94921,0 -4.70703,1.738281 -1.73828,1.738281 -1.97265,4.316406 z" />
      <path
         inkscape:connector-curvature="0"
         id="path4573"
         d="m -84.376801,-44.275425 h -3.671875 V -56.6973 q 0,-1.503906 -0.175781,-2.8125 -0.175781,-1.328125 -0.644531,-2.070312 -0.488281,-0.820313 -1.40625,-1.210938 -0.917969,-0.410156 -2.382813,-0.410156 -1.503906,0 -3.144531,0.742187 -1.640625,0.742188 -3.144531,1.894532 v 16.289062 h -3.671877 v -21.816406 h 3.671877 v 2.421875 q 1.71875,-1.425781 3.554687,-2.226563 1.835938,-0.800781 3.769532,-0.800781 3.535156,0 5.390625,2.128906 1.855468,2.128907 1.855468,6.132813 z" />
      <path
         inkscape:connector-curvature="0"
         id="path4575"
         d="m -38.380707,-58.787144 q 0,3.964844 -1.738281,7.1875 -1.71875,3.222657 -4.589844,5 -1.992187,1.230469 -4.453125,1.777344 -2.441406,0.546875 -6.445312,0.546875 h -7.34375 v -29.082031 h 7.265625 q 4.257812,0 6.757812,0.625 2.519531,0.605469 4.257813,1.679687 2.96875,1.855469 4.628906,4.941407 1.660156,3.085937 1.660156,7.324218 z m -4.042969,-0.05859 q 0,-3.417969 -1.191406,-5.761719 -1.191406,-2.34375 -3.554687,-3.691406 -1.71875,-0.976563 -3.652344,-1.347657 -1.933594,-0.390625 -4.628906,-0.390625 h -3.632813 v 22.441407 h 3.632813 q 2.792968,0 4.863281,-0.410157 2.089844,-0.410156 3.828125,-1.523437 2.167969,-1.386719 3.242187,-3.652344 1.09375,-2.265625 1.09375,-5.664062 z" />
      <path
         inkscape:connector-curvature="0"
         id="path4577"
         d="m -13.790863,-55.173862 q 0,5.332031 -2.734375,8.417968 -2.734375,3.085938 -7.324219,3.085938 -4.628906,0 -7.363281,-3.085938 -2.714844,-3.085937 -2.714844,-8.417968 0,-5.332032 2.714844,-8.417969 2.734375,-3.105469 7.363281,-3.105469 4.589844,0 7.324219,3.105469 2.734375,3.085937 2.734375,8.417969 z m -3.789063,0 q 0,-4.238282 -1.660156,-6.289063 -1.660156,-2.070312 -4.609375,-2.070312 -2.988281,0 -4.648437,2.070312 -1.640625,2.050781 -1.640625,6.289063 0,4.101562 1.660156,6.230468 1.660156,2.109375 4.628906,2.109375 2.929688,0 4.589844,-2.089843 1.679687,-2.109375 1.679687,-6.25 z" />
      <path
         inkscape:connector-curvature="0"
         id="path4579"
         d="m 8.0450745,-45.642612 q -1.8359375,0.878906 -3.4960938,1.367187 -1.640625,0.488281 -3.4960937,0.488281 -2.3632813,0 -4.3359375,-0.683593 -1.9726563,-0.703125 -3.3789063,-2.109375 -1.4257812,-1.40625 -2.2070312,-3.554688 -0.78125,-2.148437 -0.78125,-5.019531 0,-5.351563 2.9296875,-8.398438 2.9492187,-3.046875 7.7734375,-3.046875 1.875,0 3.671875,0.527344 1.8164062,0.527344 3.3203125,1.289063 v 4.082031 H 7.849762 Q 6.1700745,-62.0098 4.3731995,-62.712925 2.5958557,-63.41605 0.89663696,-63.41605 q -3.12499996,0 -4.94140626,2.109375 -1.796875,2.089844 -1.796875,6.152344 0,3.945312 1.7578125,6.074219 1.7773438,2.109375 4.98046876,2.109375 1.11328124,0 2.26562504,-0.292969 1.1523437,-0.292969 2.0703125,-0.761719 0.8007812,-0.410156 1.5039062,-0.859375 0.703125,-0.46875 1.1132813,-0.800781 h 0.1953125 z" />
      <path
         inkscape:connector-curvature="0"
         id="path4581"
         d="M 30.857574,-44.275425 H 27.185699 V -46.6973 q -1.855468,1.464844 -3.554687,2.246094 -1.699219,0.78125 -3.75,0.78125 -3.4375,0 -5.351563,-2.089844 -1.914062,-2.109375 -1.914062,-6.171875 v -14.160156 h 3.671875 v 12.421875 q 0,1.660156 0.15625,2.851562 0.15625,1.171875 0.664062,2.011719 0.527344,0.859375 1.367188,1.25 0.839844,0.390625 2.441406,0.390625 1.425781,0 3.105469,-0.742187 1.699219,-0.742188 3.164062,-1.894532 v -16.289062 h 3.671875 z" />
      <path
         inkscape:connector-curvature="0"
         id="path4583"
         d="M 69.920074,-44.275425 H 66.248199 V -56.6973 q 0,-1.40625 -0.136718,-2.714844 -0.117188,-1.308593 -0.527344,-2.089843 -0.449219,-0.839844 -1.289063,-1.269532 -0.839843,-0.429687 -2.421875,-0.429687 -1.542968,0 -3.085937,0.78125 -1.542969,0.761719 -3.085938,1.953125 0.05859,0.449219 0.09766,1.054687 0.03906,0.585938 0.03906,1.171875 v 13.964844 H 52.166168 V -56.6973 q 0,-1.445312 -0.136719,-2.734375 -0.117187,-1.308594 -0.527343,-2.089844 -0.449219,-0.839843 -1.289063,-1.25 -0.839844,-0.429687 -2.421875,-0.429687 -1.503906,0 -3.027344,0.742187 -1.503906,0.742188 -3.007812,1.894532 v 16.289062 h -3.671875 v -21.816406 h 3.671875 v 2.421875 q 1.71875,-1.425781 3.417969,-2.226563 1.71875,-0.800781 3.652343,-0.800781 2.226563,0 3.769532,0.9375 1.5625,0.9375 2.324218,2.597656 2.226563,-1.875 4.0625,-2.695312 1.835938,-0.839844 3.925782,-0.839844 3.59375,0 5.292968,2.1875 1.71875,2.167969 1.71875,6.074219 z" />
      <path
         inkscape:connector-curvature="0"
         id="path4585"
         d="M 95.252106,-54.802769 H 79.177887 q 0,2.011719 0.605469,3.515625 0.605468,1.484375 1.660156,2.441407 1.015625,0.9375 2.402344,1.40625 1.40625,0.46875 3.085937,0.46875 2.226563,0 4.472656,-0.878907 2.265625,-0.898437 3.222657,-1.757812 h 0.195312 v 4.003906 q -1.855469,0.78125 -3.789062,1.308594 -1.933594,0.527344 -4.0625,0.527344 -5.429688,0 -8.476563,-2.929688 -3.046875,-2.949219 -3.046875,-8.359375 0,-5.351562 2.910156,-8.496094 2.929688,-3.144531 7.695313,-3.144531 4.414062,0 6.796875,2.578125 2.402344,2.578125 2.402344,7.324219 z m -3.574219,-2.8125 q -0.01953,-2.890625 -1.464844,-4.472656 -1.425781,-1.582031 -4.355469,-1.582031 -2.949218,0 -4.707031,1.738281 -1.738281,1.738281 -1.972656,4.316406 z" />
      <path
         inkscape:connector-curvature="0"
         id="path4587"
         d="m 119.0607,-44.275425 h -3.67188 V -56.6973 q 0,-1.503906 -0.17578,-2.8125 -0.17578,-1.328125 -0.64453,-2.070312 -0.48828,-0.820313 -1.40625,-1.210938 -0.91797,-0.410156 -2.38281,-0.410156 -1.50391,0 -3.14453,0.742187 -1.64063,0.742188 -3.14453,1.894532 v 16.289062 h -3.67188 v -21.816406 h 3.67188 v 2.421875 q 1.71875,-1.425781 3.55468,-2.226563 1.83594,-0.800781 3.76954,-0.800781 3.53515,0 5.39062,2.128906 1.85547,2.128907 1.85547,6.132813 z" />
      <path
         inkscape:connector-curvature="0"
         id="path4589"
         d="m 137.45914,-44.470737 q -1.03516,0.273437 -2.26563,0.449218 -1.21094,0.175782 -2.16797,0.175782 -3.33984,0 -5.07812,-1.796875 -1.73828,-1.796875 -1.73828,-5.761719 v -11.601563 h -2.48047 v -3.085937 h 2.48047 v -6.269531 h 3.67187 v 6.269531 h 7.57813 v 3.085937 h -7.57813 v 9.941407 q 0,1.71875 0.0781,2.695312 0.0781,0.957031 0.54687,1.796875 0.42969,0.78125 1.17188,1.152344 0.76172,0.351562 2.30468,0.351562 0.89844,0 1.875,-0.253906 0.97657,-0.273437 1.40625,-0.449219 h 0.19532 z" />
      <path
         inkscape:connector-curvature="0"
         id="path4591"
         d="m 157.4982,-50.564487 q 0,2.988281 -2.48047,4.902343 -2.46094,1.914063 -6.73828,1.914063 -2.42188,0 -4.45313,-0.566406 -2.01171,-0.585938 -3.3789,-1.269532 v -4.121093 h 0.19531 q 1.73828,1.308593 3.86719,2.089843 2.1289,0.761719 4.08203,0.761719 2.42187,0 3.78906,-0.78125 1.36719,-0.78125 1.36719,-2.460937 0,-1.289063 -0.74219,-1.953125 -0.74219,-0.664063 -2.85156,-1.132813 -0.78125,-0.175781 -2.05078,-0.410156 -1.25,-0.234375 -2.28516,-0.507813 -2.87109,-0.761718 -4.08203,-2.226562 -1.19141,-1.484375 -1.19141,-3.632813 0,-1.347656 0.54688,-2.539062 0.56641,-1.191406 1.69922,-2.128906 1.09375,-0.917969 2.77344,-1.445313 1.69921,-0.546875 3.78906,-0.546875 1.95312,0 3.94531,0.488281 2.01172,0.46875 3.33984,1.152344 v 3.925781 h -0.19531 q -1.40625,-1.035156 -3.41797,-1.738281 -2.01172,-0.722656 -3.94531,-0.722656 -2.01172,0 -3.39844,0.78125 -1.38672,0.761719 -1.38672,2.285156 0,1.347656 0.83985,2.03125 0.82031,0.683594 2.65625,1.113281 1.01562,0.234375 2.26562,0.46875 1.26953,0.234375 2.10938,0.429688 2.55859,0.585937 3.94531,2.011719 1.38672,1.445312 1.38672,3.828125 z" />
    </g>
  </g>
</svg>
