<?xml version="1.0" encoding="UTF-8" standalone="no"?>
<svg xmlns:dc="http://purl.org/dc/elements/1.1/" xmlns:cc="http://creativecommons.org/ns#" xmlns:rdf="http://www.w3.org/1999/02/22-rdf-syntax-ns#" xmlns:svg="http://www.w3.org/2000/svg" xmlns="http://www.w3.org/2000/svg" xmlns:sodipodi="http://sodipodi.sourceforge.net/DTD/sodipodi-0.dtd" xmlns:inkscape="http://www.inkscape.org/namespaces/inkscape" width="64" height="64" viewBox="0 0 32 32" preserveAspectRatio="xMidYMid" version="1.1" id="svg46" sodipodi:docname="d3js-icon.svg" inkscape:version="0.92.2 (5c3e80d, 2017-08-06)">
  <metadata id="metadata50">
    <rdf:RDF>
      <cc:Work rdf:about="">
        <dc:format>image/svg+xml</dc:format>
        <dc:type rdf:resource="http://purl.org/dc/dcmitype/StillImage"/>
        <dc:title/>
      </cc:Work>
    </rdf:RDF>
  </metadata>
  <sodipodi:namedview pagecolor="#ffffff" bordercolor="#666666" borderopacity="1" objecttolerance="10" gridtolerance="10" guidetolerance="10" inkscape:pageopacity="0" inkscape:pageshadow="2" inkscape:window-width="1920" inkscape:window-height="1001" id="namedview48" showgrid="false" inkscape:zoom="5.4938996" inkscape:cx="59.832372" inkscape:cy="22.405305" inkscape:window-x="-9" inkscape:window-y="-9" inkscape:window-maximized="1" inkscape:current-layer="svg46"/>
  <defs id="defs32">
    <linearGradient x1="104.44538" y1="18.93784" x2="257.21799" y2="181.92075" id="a" gradientTransform="scale(1.0064944,0.99354749)" gradientUnits="userSpaceOnUse">
      <stop stop-color="#F9A03C" offset="0%" id="stop2"/>
      <stop stop-color="#F7974E" offset="100%" id="stop4"/>
    </linearGradient>
    <linearGradient x1="-21.491936" y1="48.226681" x2="122.23588" y2="188.40466" id="b" gradientTransform="scale(0.99750496,1.0025013)" gradientUnits="userSpaceOnUse">
      <stop stop-color="#F9A03C" offset="0%" id="stop7"/>
      <stop stop-color="#F7974E" offset="100%" id="stop9"/>
    </linearGradient>
    <linearGradient x1="44.16782" y1="98.813454" x2="172.57579" y2="246.033" id="c" gradientTransform="scale(1.0137695,0.98641753)" gradientUnits="userSpaceOnUse">
      <stop stop-color="#F9A03C" offset="0%" id="stop12"/>
      <stop stop-color="#F7974E" offset="100%" id="stop14"/>
    </linearGradient>
    <linearGradient x1="28.214787" y1="-4.5336752" x2="205.27444" y2="229.18948" id="d" gradientTransform="scale(1.0281535,0.97261746)" gradientUnits="userSpaceOnUse">
      <stop stop-color="#F26D58" offset="0%" id="stop17"/>
      <stop stop-color="#F9A03C" offset="100%" id="stop19"/>
    </linearGradient>
    <linearGradient x1="125.82784" y1="6.4669213" x2="300.62915" y2="121.326" id="e" gradientTransform="scale(0.95887415,1.0428897)" gradientUnits="userSpaceOnUse">
      <stop stop-color="#B84E51" offset="0%" id="stop22"/>
      <stop stop-color="#F68E48" offset="100%" id="stop24"/>
    </linearGradient>
    <linearGradient x1="60.120693" y1="236.93591" x2="66.386894" y2="395.51025" id="f" gradientTransform="scale(1.3814091,0.72389853)" gradientUnits="userSpaceOnUse">
      <stop stop-color="#F9A03C" offset="0%" id="stop27"/>
      <stop stop-color="#F7974E" offset="100%" id="stop29"/>
    </linearGradient>
  </defs>
  <g id="g4600" transform="matrix(0.12504054,0,0,0.12504054,6.2409995e-8,0.84439883)">
    <path id="path34" d="m 255.52,175.619 c 0.115,-1.115 0.197,-2.24 0.261,-3.371 0.078,-1.339 -80.562,-77.85 -80.562,-77.85 h -1.928 c 0,0 81.736,86.215 82.229,81.22 z" inkscape:connector-curvature="0" style="fill:url(#a)"/>
    <path id="path36" d="m 83.472,149.077 c -0.107,0.235 -0.213,0.47 -0.323,0.704 -0.114,0.246 -0.232,0.491 -0.349,0.734 -2.57,5.36 35.987,43.053 39.088,38.474 0.141,-0.202 0.283,-0.416 0.424,-0.618 0.157,-0.24 0.312,-0.47 0.467,-0.71 2.48,-3.765 -38.206,-41.032 -39.307,-38.584 z" inkscape:connector-curvature="0" style="fill:url(#b)"/>
    <path id="path38" d="m 137.957,202.083 c -0.109,0.24 -0.885,1.552 -1.594,2.245 -0.12,0.24 37.64,37.688 37.64,37.688 h 3.4 c 0.002,0 -35.446,-38.35 -39.446,-39.933 z" inkscape:connector-curvature="0" style="fill:url(#c)"/>
    <path id="path40" d="m 255.835,171.568 c -1.766,39.147 -34.152,70.448 -73.72,70.448 h -5.35 l -39.514,-38.928 c 3.25,-4.584 6.272,-9.333 8.962,-14.285 h 35.902 c 11.354,0 20.594,-9.235 20.594,-20.595 0,-11.355 -9.24,-20.595 -20.594,-20.595 h -21.246 c 1.619,-8.557 2.504,-17.381 2.504,-26.408 0,-9.165 -0.901,-18.114 -2.578,-26.808 h 13.197 l 81.61,80.414 c 0.097,-1.078 0.174,-2.155 0.233,-3.243 z M 21.467,0 H 0 v 53.213 h 21.467 c 37.493,0 68,30.499 68,67.992 0,10.2 -2.275,19.883 -6.318,28.576 l 39.163,38.59 c 12.859,-19.24 20.376,-42.339 20.376,-67.166 C 142.688,54.373 88.307,0 21.467,0 Z" inkscape:connector-curvature="0" style="fill:url(#d)"/>
    <path id="path42" d="M 182.115,0 H 95.187 C 116.419,12.963 134,31.344 145.979,53.213 h 36.136 c 11.354,0 20.594,9.235 20.594,20.595 0,11.357 -9.24,20.592 -20.594,20.592 h -8.12 l 81.61,80.413 c 0.192,-2.181 0.312,-4.376 0.312,-6.605 0,-17.939 -6.437,-34.395 -17.125,-47.203 C 249.48,108.203 255.917,91.744 255.917,73.808 255.917,33.112 222.813,0 182.115,0 Z" inkscape:connector-curvature="0" style="fill:url(#e)"/>
    <path id="path44" d="M 176.765,242.016 H 95.808 c 16.296,-10.064 30.384,-23.35 41.443,-38.928 z m -54.453,-53.645 -39.16,-38.59 C 72.333,173.032 48.757,189.203 21.467,189.203 H 0 v 53.208 h 21.467 c 42.01,0 79.09,-21.488 100.845,-54.04 z" inkscape:connector-curvature="0" style="fill:url(#f)"/>
  </g>
</svg>
