<?xml version="1.0" encoding="UTF-8" standalone="no"?>
<!-- Generator: Adobe Illustrator 22.0.1, SVG Export Plug-In . SVG Version: 6.00 Build 0)  -->

<svg
   xmlns:dc="http://purl.org/dc/elements/1.1/"
   xmlns:cc="http://creativecommons.org/ns#"
   xmlns:rdf="http://www.w3.org/1999/02/22-rdf-syntax-ns#"
   xmlns:svg="http://www.w3.org/2000/svg"
   xmlns="http://www.w3.org/2000/svg"
   xmlns:sodipodi="http://sodipodi.sourceforge.net/DTD/sodipodi-0.dtd"
   xmlns:inkscape="http://www.inkscape.org/namespaces/inkscape"
   version="1.1"
   id="Layer_1"
   x="0px"
   y="0px"
   viewBox="0 0 64 64.000002"
   enable-background="new 0 0 214.7 41.1"
   xml:space="preserve"
   sodipodi:docname="techsoup-icon.svg"
   width="64"
   height="64"
   inkscape:version="0.92.3 (2405546, 2018-03-11)"><metadata
   id="metadata31"><rdf:RDF><cc:Work
       rdf:about=""><dc:format>image/svg+xml</dc:format><dc:type
         rdf:resource="http://purl.org/dc/dcmitype/StillImage" /><dc:title></dc:title></cc:Work></rdf:RDF></metadata><defs
   id="defs29">
	
	

		
		
		
		
		
	
		
		
		
		
	</defs><sodipodi:namedview
   pagecolor="#ffffff"
   bordercolor="#666666"
   borderopacity="1"
   objecttolerance="10"
   gridtolerance="10"
   guidetolerance="10"
   inkscape:pageopacity="0"
   inkscape:pageshadow="2"
   inkscape:window-width="1920"
   inkscape:window-height="1001"
   id="namedview27"
   showgrid="false"
   inkscape:zoom="1.5789474"
   inkscape:cx="114.95"
   inkscape:cy="20.549999"
   inkscape:window-x="-9"
   inkscape:window-y="-9"
   inkscape:window-maximized="1"
   inkscape:current-layer="Layer_1" />
<g
   id="g81"
   transform="matrix(5.2447143,0,0,5.2447143,-301.36331,-125.69831)"><path
     style="fill:#ff8300;stroke-width:0.45363429"
     inkscape:connector-curvature="0"
     id="path8"
     d="m 64.717797,28.865914 v 0 l -2.177445,2.358899 c 0.272181,0.09073 0.498998,0.181453 0.725815,0.27218 1.043359,0.362908 1.45163,0.498998 1.45163,1.179449 0,0.544361 -0.544361,0.907269 -1.496993,0.907269 -0.907269,0 -1.58772,-0.453634 -1.814537,-1.134086 l -2.132082,2.358898 c 0.861906,0.861906 2.268172,1.360903 3.991982,1.360903 2.948623,0 4.853887,-1.451629 4.853887,-3.719801 0.04536,-1.769174 -0.952632,-2.767169 -3.402257,-3.583711" /><path
     style="fill:#25272b;stroke-width:0.45363429"
     inkscape:connector-curvature="0"
     id="path20"
     d="m 63.765165,23.966664 c -2.857896,0 -4.76316,1.496993 -4.76316,3.765164 0,1.723811 1.224812,2.540353 3.266167,3.356894 0.09073,0.04536 0.181453,0.09073 0.27218,0.09073 0,0 0.04536,0 0.04536,0 l 2.132081,-2.358898 -0.317544,-0.09073 h -0.04536 c -1.406267,-0.453634 -2.041355,-0.680452 -2.041355,-1.360903 0,-0.544361 0.544361,-0.861905 1.406266,-0.861905 0.861906,0 1.45163,0.408271 1.678447,1.134086 v 0 l 2.041355,-2.268172 c -0.861905,-0.907268 -2.132081,-1.406266 -3.674438,-1.406266" /></g>
</svg>