<?xml version="1.0" encoding="UTF-8" standalone="no"?>
<!-- Generator: Adobe Illustrator 17.1.0, SVG Export Plug-In . SVG Version: 6.00 Build 0)  -->

<svg
   xmlns:dc="http://purl.org/dc/elements/1.1/"
   xmlns:cc="http://creativecommons.org/ns#"
   xmlns:rdf="http://www.w3.org/1999/02/22-rdf-syntax-ns#"
   xmlns:svg="http://www.w3.org/2000/svg"
   xmlns="http://www.w3.org/2000/svg"
   xmlns:xlink="http://www.w3.org/1999/xlink"
   xmlns:sodipodi="http://sodipodi.sourceforge.net/DTD/sodipodi-0.dtd"
   xmlns:inkscape="http://www.inkscape.org/namespaces/inkscape"
   version="1.1"
   id="Layer_1"
   x="0px"
   y="0px"
   viewBox="0 0 300 60"
   enable-background="new 0 0 379 64"
   xml:space="preserve"
   sodipodi:docname="thenewyorktimes-wordmark.svg"
   width="300"
   height="60"
   inkscape:version="0.92.3 (2405546, 2018-03-11)"><metadata
   id="metadata215"><rdf:RDF><cc:Work
       rdf:about=""><dc:format>image/svg+xml</dc:format><dc:type
         rdf:resource="http://purl.org/dc/dcmitype/StillImage" /><dc:title></dc:title></cc:Work></rdf:RDF></metadata><defs
   id="defs213" /><sodipodi:namedview
   pagecolor="#ffffff"
   bordercolor="#666666"
   borderopacity="1"
   objecttolerance="10"
   gridtolerance="10"
   guidetolerance="10"
   inkscape:pageopacity="0"
   inkscape:pageshadow="2"
   inkscape:window-width="1920"
   inkscape:window-height="1001"
   id="namedview211"
   showgrid="false"
   inkscape:zoom="2.5299124"
   inkscape:cx="238.98742"
   inkscape:cy="42.749186"
   inkscape:window-x="-9"
   inkscape:window-y="-9"
   inkscape:window-maximized="1"
   inkscape:current-layer="Layer_1" />
<g
   id="g1140"
   transform="translate(0.75590642,-3.7999998)"><g
     transform="matrix(0.78740157,0,0,0.78740157,0.42519685,9.1385827)"
     id="g208">
	<g
   id="g100">
		<g
   id="g14">
			<g
   id="g12">
				<g
   id="g10">
					<defs
   id="defs3">
						<polygon
   points="375.3,11 376,61.8 2,61.8 1.3,11 "
   id="SVGID_1_" />
					</defs>
					<clipPath
   id="SVGID_2_">
						<use
   height="100%"
   width="100%"
   y="0"
   x="0"
   style="overflow:visible"
   id="use5"
   overflow="visible"
   xlink:href="#SVGID_1_" />
					</clipPath>
					<path
   style="fill:#251802"
   inkscape:connector-curvature="0"
   id="path8"
   d="M 13,39.2 V 25.5 l -4.5,1.8 c 0,0 -1.1,2.3 -0.9,5.7 0.1,2.7 1.7,5.8 2.9,7.2 z M 25.1,11 c 1,0.1 2.7,0.6 3.9,1.6 1.3,1.2 1.6,3.1 1.2,4.8 -0.4,1.5 -0.9,2.3 -2.5,3.4 -1.6,1.1 -2.8,1.2 -2.8,1.2 v 6.6 L 28,31 24.9,33.8 v 9 c 0,0 2.6,-2.1 4.6,-6.2 0,0 0.1,-0.2 0.3,-0.7 0.2,1.1 0.1,3.4 -1.2,6.2 -1,2.2 -2.7,4.2 -5,5.4 -3.9,2.1 -6.9,2.3 -10,1.7 C 9.9,48.5 6.5,46.5 4.3,43 2.7,40.5 2,37.7 2,34.6 2.1,28.5 6.8,23.3 12.2,21.3 c 0.7,-0.2 0.9,-0.4 1.8,-0.5 -0.4,0.3 -0.9,0.6 -1.5,1 -1.7,1.1 -3.2,3.3 -3.9,5 L 19,22.3 v 14.1 l -8.3,4.1 c 1,1.3 3.9,3.2 6.4,3.5 4.2,0.5 7,-1.1 7,-1.1 V 33.7 L 21,31 24.1,28.6 V 22 c -1.8,-0.2 -4.3,-1 -5.5,-1.3 -1.9,-0.4 -8.1,-2.1 -9.1,-2.3 -1,-0.1 -2.2,-0.1 -2.9,0.5 -0.7,0.6 -1.2,1.8 -0.9,2.8 0.2,0.6 0.6,0.9 0.9,1.2 0,0 -0.4,0 -1,-0.4 -1.2,-0.7 -2.1,-2 -2.2,-3.7 -0.1,-2.1 0.8,-4.1 2.6,-5.4 1.6,-1 3.4,-1.6 5.5,-1.3 3.1,0.4 7.2,2.1 10.9,3 1.4,0.3 2.5,0.4 3.5,-0.1 0.5,-0.3 1.3,-1.2 0.6,-2.3 C 25.7,11.4 24.2,11.4 22.9,11.2 24.1,11 24.3,11 25.1,11"
   clip-path="url(#SVGID_2_)" />
				</g>
			</g>
		</g>
		<g
   id="g28">
			<g
   id="g26">
				<g
   id="g24">
					<defs
   id="defs17">
						<polygon
   points="375.3,11 376,61.8 2,61.8 1.3,11 "
   id="SVGID_3_" />
					</defs>
					<clipPath
   id="SVGID_4_">
						<use
   height="100%"
   width="100%"
   y="0"
   x="0"
   style="overflow:visible"
   id="use19"
   overflow="visible"
   xlink:href="#SVGID_3_" />
					</clipPath>
					<path
   style="fill:#251802"
   inkscape:connector-curvature="0"
   id="path22"
   d="M 65.8,35.6 61,39 V 27.8 Z M 65.6,24.8 c 0,0 -3.2,1.9 -5.3,3.1 -2.1,1.2 -5,2.6 -5,2.6 v 13 l -1.9,1.5 0.3,0.3 1.9,-1.5 5.9,5.1 10.2,-7.8 -0.2,-0.3 -5.7,4.3 L 61,41 v -1.6 l 9.3,-6.6 z"
   clip-path="url(#SVGID_4_)" />
				</g>
			</g>
		</g>
		<g
   id="g42">
			<g
   id="g40">
				<g
   id="g38">
					<defs
   id="defs31">
						<polygon
   points="375.3,11 376,61.8 2,61.8 1.3,11 "
   id="SVGID_5_" />
					</defs>
					<clipPath
   id="SVGID_6_">
						<use
   height="100%"
   width="100%"
   y="0"
   x="0"
   style="overflow:visible"
   id="use33"
   overflow="visible"
   xlink:href="#SVGID_5_" />
					</clipPath>
					<path
   style="fill:#251802"
   inkscape:connector-curvature="0"
   id="path36"
   d="m 38.8,54 c 1.3,0.3 3.7,0.5 6.6,-0.9 3.2,-1.5 4.4,-4.8 4.4,-8.1 l 0.1,-4.7 V 29.9 l 2,-1.5 -0.2,-0.3 -2,1.5 -4.3,-5 -6.6,4.9 V 12.9 l -6.7,5.5 c 0.3,0.2 1.8,0.4 1.8,1.8 v 23.3 l -3.5,2.2 0.2,0.3 1.5,-1.1 4.2,3.8 6.6,-5.1 -0.2,-0.3 -1.6,1.2 L 38.9,43 V 30 l 2.6,-1.6 3.6,3.7 c 0,0 0,8.4 0,11.2 0,3 -0.8,6.5 -2.4,8.3 -1.6,1.8 -2.2,1.9 -3.9,2.4"
   clip-path="url(#SVGID_6_)" />
				</g>
			</g>
		</g>
		<g
   id="g56">
			<g
   id="g54">
				<g
   id="g52">
					<defs
   id="defs45">
						<polygon
   points="375.3,11 376,61.8 2,61.8 1.3,11 "
   id="SVGID_7_" />
					</defs>
					<clipPath
   id="SVGID_8_">
						<use
   height="100%"
   width="100%"
   y="0"
   x="0"
   style="overflow:visible"
   id="use47"
   overflow="visible"
   xlink:href="#SVGID_7_" />
					</clipPath>
					<path
   style="fill:#251802"
   inkscape:connector-curvature="0"
   id="path50"
   d="M 84.6,52.8 C 82,52.5 80.9,51 80.9,49.7 c 0,-0.8 0.8,-2.3 2.4,-2.5 1.6,-0.2 3.2,0.5 4.6,2.1 L 94,42.8 93.7,42.5 92.1,44.3 C 90.4,42.5 88.4,41.3 86,41 V 21.1 L 101.5,49 c 0,0 0.4,0.3 1.1,0.3 0.6,0 0.4,-0.4 0.4,-0.4 V 20.8 c 1.3,0 3,-0.7 4,-1.7 3,-3 1.8,-6.3 1.5,-6.7 -0.2,1.4 -1.3,2.9 -3.2,2.9 -2.5,0 -4,-1.8 -4,-1.8 l -6.3,6.8 0.3,0.3 1.7,-1.9 c 2.1,1.9 3.3,2.1 4.9,2.2 V 37.2 L 90.6,16.5 c -1.1,-1.7 -2.7,-3.2 -5.2,-3.2 -2.9,0 -5,2.5 -5.3,4.6 -0.3,2.4 0,3 0,3 0,0 0.4,-2.7 2.1,-2.7 1.5,0 2,0.8 2.7,1.8 v 6.6 c -1.6,0.1 -5.4,0.3 -5.7,4.5 0,1.6 1,3.2 1.9,3.7 1.1,0.7 2,0.7 2,0.7 0,0 -1.3,-0.7 -0.9,-2.1 0.4,-1.2 2.7,-1.4 2.8,-0.9 v 8.4 c -1.3,0 -5,0.1 -6.9,3.5 -1.1,2 -1,4.3 0.1,5.9 1,1.4 3,3.1 6.4,2.5"
   clip-path="url(#SVGID_8_)" />
				</g>
			</g>
		</g>
		<g
   id="g70">
			<g
   id="g68">
				<g
   id="g66">
					<defs
   id="defs59">
						<polygon
   points="375.3,11 376,61.8 2,61.8 1.3,11 "
   id="SVGID_9_" />
					</defs>
					<clipPath
   id="SVGID_10_">
						<use
   height="100%"
   width="100%"
   y="0"
   x="0"
   style="overflow:visible"
   id="use61"
   overflow="visible"
   xlink:href="#SVGID_9_" />
					</clipPath>
					<path
   style="fill:#251802"
   inkscape:connector-curvature="0"
   id="path64"
   d="M 118.2,35.6 113,39 V 27.8 Z M 118,24.8 c 0,0 -3.2,1.9 -5.4,3.1 -2.2,1.2 -4.7,2.6 -4.7,2.6 v 13 l -1.9,1.5 0.3,0.3 1.9,-1.5 5.5,5.1 10.2,-7.8 -0.2,-0.3 -5.7,4.3 -4.6,-4.2 v -1.6 l 9.3,-6.6 z"
   clip-path="url(#SVGID_10_)" />
				</g>
			</g>
		</g>
		<g
   id="g84">
			<g
   id="g82">
				<g
   id="g80">
					<defs
   id="defs73">
						<polygon
   points="375.3,11 376,61.8 2,61.8 1.3,11 "
   id="SVGID_11_" />
					</defs>
					<clipPath
   id="SVGID_12_">
						<use
   height="100%"
   width="100%"
   y="0"
   x="0"
   style="overflow:visible"
   id="use75"
   overflow="visible"
   xlink:href="#SVGID_11_" />
					</clipPath>
					<path
   style="fill:#251802"
   inkscape:connector-curvature="0"
   id="path78"
   d="m 132.4,49.2 -5,-4 -2.2,1.5 -0.2,-0.3 2.2,-1.6 V 33.5 c 0.1,-4.6 -4.4,-3.5 -4.1,-8.4 0.1,-2.2 2.3,-3.8 3.4,-4.3 1.2,-0.6 2.4,-0.6 2.4,-0.6 0,0 -2.1,1.2 -1.6,3 0.8,2.8 5.6,3 5.7,6.7 v 12.8 l 3.1,2.8 0.9,-0.7 V 30.9 l -1.4,-1.9 5,-4.3 4.6,3.9 -2.1,1.8 v 12.3 l 4.6,3.4 0.8,-0.5 V 30.9 l -1.9,-1.8 5,-4.4 4.7,3.7 1.9,-1.6 0.2,0.3 -4.2,3.6 v 12 L 143.5,49.1 138,45 Z"
   clip-path="url(#SVGID_12_)" />
				</g>
			</g>
		</g>
		<g
   id="g98">
			<g
   id="g96">
				<g
   id="g94">
					<defs
   id="defs87">
						<polygon
   points="375.3,11 376,61.8 2,61.8 1.3,11 "
   id="SVGID_13_" />
					</defs>
					<clipPath
   id="SVGID_14_">
						<use
   height="100%"
   width="100%"
   y="0"
   x="0"
   style="overflow:visible"
   id="use89"
   overflow="visible"
   xlink:href="#SVGID_13_" />
					</clipPath>
					<path
   style="fill:#251802"
   inkscape:connector-curvature="0"
   id="path92"
   d="M 352.3,35.6 347,39 V 27.8 Z m -0.1,-10.8 c 0,0 -3.2,1.9 -5.4,3.1 -2.1,1.2 -4.9,2.6 -4.9,2.6 v 13 l -2.1,1.5 0.3,0.3 1.9,-1.5 5.9,5.1 10.2,-7.8 -0.2,-0.3 -5.7,4.3 -4.7,-4.2 v -1.6 l 9.3,-6.6 z"
   clip-path="url(#SVGID_14_)" />
				</g>
			</g>
		</g>
	</g>
	<polygon
   style="fill:#251802"
   id="polygon102"
   points="317,29.7 318.1,28.8 321,32.4 321,43.1 320.1,44.3 324.3,48.8 328.8,44.5 327,42.8 327,29.8 328.3,28.8 332,32.3 332,43 330.5,44 335.2,48.9 341.4,43.4 341.1,43.1 339.6,44.4 337,42 337,29.8 339.5,28.1 339.3,27.8 337,29.5 332.8,24.9 326.8,29.5 322.5,25.1 316.7,29.5 312.4,25.1 306.2,30.3 306.4,30.6 308.4,29 311.2,32.1 311.2,42.9 309.8,44.1 314.3,49 318.9,44.6 317,42.7 " />
	<polygon
   style="fill:#251802"
   id="polygon104"
   points="308.3,43.8 308.1,43.5 306.3,45 303.9,42.3 303.9,30.2 306,28.5 305.7,28.2 303.7,29.9 299.4,25 293,30 293.8,30.2 295.4,28.9 298,31.8 298,44.1 296.2,45.6 296.4,45.9 298.3,44.3 302.4,48.9 " />
	<polygon
   style="fill:#251802"
   id="polygon106"
   points="299.7,15.8 303.3,19.7 298.8,23.6 295.2,19.8 " />
	<g
   id="g206">
		<g
   id="g120">
			<g
   id="g118">
				<g
   id="g116">
					<defs
   id="defs109">
						<polygon
   points="375.3,11 376,61.8 2,61.8 1.3,11 "
   id="SVGID_15_" />
					</defs>
					<clipPath
   id="SVGID_16_">
						<use
   height="100%"
   width="100%"
   y="0"
   x="0"
   style="overflow:visible"
   id="use111"
   overflow="visible"
   xlink:href="#SVGID_15_" />
					</clipPath>
					<path
   style="fill:#251802"
   inkscape:connector-curvature="0"
   id="path114"
   d="M 275.2,39.2 V 25.5 l -4.2,1.8 c 0,0 -1.1,2.3 -0.9,5.7 0.1,2.7 1.7,5.8 2.9,7.2 z m 12,-28.2 c 1.1,0.1 2.7,0.6 3.9,1.6 1.3,1.2 1.6,3.1 1.2,4.8 -0.4,1.5 -0.9,2.3 -2.5,3.4 -1.6,1.1 -2.8,1 -2.8,1 v 6.6 l 3,2.6 -3,2.6 v 8.9 c 0,0 2.5,-1.8 4.6,-5.9 0,0 0.1,-0.2 0.3,-0.7 0.2,1.1 0.1,3.4 -1.2,6.2 -1,2.2 -2.7,4.2 -5,5.4 -3.9,2.1 -6.9,2.3 -10,1.7 -3.7,-0.7 -7.1,-2.7 -9.3,-6.2 -1.6,-2.5 -2.3,-5.3 -2.3,-8.4 0.1,-6.1 4.8,-11.3 10.2,-13.3 0.6,-0.2 0.9,-0.4 1.8,-0.5 -0.4,0.3 -0.9,0.6 -1.5,1 -1.7,1.1 -3.2,3.3 -3.9,5 L 281,22.5 v 14.1 l -8.2,3.9 c 1,1.3 3.9,3.2 6.4,3.5 4.2,0.5 6.9,-1.3 6.9,-1.3 v -9.2 l -3,-2.6 3,-2.6 v -6.6 c -1.8,-0.2 -4.1,-0.8 -5.4,-1.1 -1.9,-0.4 -8.1,-2.1 -9.1,-2.3 -1,-0.1 -2.2,-0.1 -2.9,0.5 -0.7,0.6 -1.2,1.8 -0.9,2.8 0.2,0.6 0.6,0.9 0.9,1.2 0,0 -0.4,0 -1,-0.4 -1.2,-0.7 -2.1,-2 -2.2,-3.7 -0.1,-2.1 0.8,-4.1 2.6,-5.4 1.6,-1 3.4,-1.6 5.5,-1.3 3.1,0.4 7.2,2.1 10.9,3 1.4,0.3 2.5,0.4 3.5,-0.1 0.5,-0.3 1.3,-1.2 0.6,-2.3 -0.8,-1.3 -2.3,-1.3 -3.6,-1.5 1.1,-0.1 1.4,-0.1 2.2,-0.1"
   clip-path="url(#SVGID_16_)" />
				</g>
			</g>
		</g>
		<g
   id="g134">
			<g
   id="g132">
				<g
   id="g130">
					<defs
   id="defs123">
						<polygon
   points="375.3,11 376,61.8 2,61.8 1.3,11 "
   id="SVGID_17_" />
					</defs>
					<clipPath
   id="SVGID_18_">
						<use
   height="100%"
   width="100%"
   y="0"
   x="0"
   style="overflow:visible"
   id="use125"
   overflow="visible"
   xlink:href="#SVGID_17_" />
					</clipPath>
					<path
   style="fill:#251802"
   inkscape:connector-curvature="0"
   id="path128"
   d="m 365,27.4 v 6.5 l 2.8,1.9 c 0,0 4.8,-3.8 6.6,-7.2 0,0 -2.2,2.9 -5.1,2 -2.5,-0.7 -3.7,-3.1 -3.7,-3.1 m -5.5,17 c 0,0 2.1,-3.4 5.8,-2.7 3.5,0.7 5.1,4.3 5.1,4.3 v -8.2 l -2.9,-2 c -2.6,2.6 -7.4,6.3 -8,8.6 m 3.5,6.2 c -0.7,0.2 -3.6,-0.5 -4.3,-3.5 -0.7,-2.9 1.4,-4.8 4.5,-7.9 L 360.1,36 v -6.2 c 0,0 2.7,-1.3 4.8,-2.6 2.1,-1.3 4.3,-2.7 4.3,-2.7 0,0 1.6,1.9 3.4,1.8 2.8,-0.2 2.7,-2.4 2.6,-2.9 0.5,0.8 1.8,3.3 -3.2,8.8 l 4,3.1 v 8.1 c 0,0 -4.6,2.3 -9.1,5.5 0,0 -2.5,-3 -4.6,-1.6 -1.4,1.1 -0.7,2.7 1.3,3.4"
   clip-path="url(#SVGID_18_)" />
				</g>
			</g>
		</g>
		<g
   id="g148">
			<g
   id="g146">
				<g
   id="g144">
					<defs
   id="defs137">
						<polygon
   points="375.3,11 376,61.8 2,61.8 1.3,11 "
   id="SVGID_19_" />
					</defs>
					<clipPath
   id="SVGID_20_">
						<use
   height="100%"
   width="100%"
   y="0"
   x="0"
   style="overflow:visible"
   id="use139"
   overflow="visible"
   xlink:href="#SVGID_19_" />
					</clipPath>
					<path
   style="fill:#251802"
   inkscape:connector-curvature="0"
   id="path142"
   d="m 202,41.5 5.2,4.5 V 32.2 L 202,27.6 Z m 11.1,-11.3 1.8,-1.6 0.3,0.3 -2.2,1.6 v 12.9 c 0,0 -2.9,1.7 -5.2,3 -2.3,1.3 -4.8,2.8 -4.8,2.8 l -6.1,-5 -1.6,1.4 -0.3,-0.3 2.1,-1.4 v -14 h -0.3 c 0,0 2.9,-1.3 5.3,-2.6 2.2,-1.2 4.6,-2.6 4.6,-2.6 z"
   clip-path="url(#SVGID_20_)" />
				</g>
			</g>
		</g>
		<g
   id="g162">
			<g
   id="g160">
				<g
   id="g158">
					<defs
   id="defs151">
						<polygon
   points="375.3,11 376,61.8 2,61.8 1.3,11 "
   id="SVGID_21_" />
					</defs>
					<clipPath
   id="SVGID_22_">
						<use
   height="100%"
   width="100%"
   y="0"
   x="0"
   style="overflow:visible"
   id="use153"
   overflow="visible"
   xlink:href="#SVGID_21_" />
					</clipPath>
					<path
   style="fill:#251802"
   inkscape:connector-curvature="0"
   id="path156"
   d="m 225.2,28.9 3.9,-3.9 c 0,0 0.5,0.5 1,0.7 0.3,0.1 1.5,0.7 2.5,0.1 0.6,-0.3 0.7,-0.4 1.3,-1 0.1,3 -1.4,5.1 -3.2,6 -0.8,0.4 -3.4,1 -5.8,-1.7 V 43 l 2.9,2.1 2.1,-1.6 0.2,0.3 -6.4,5.2 -4.9,-4.3 -1.8,1.6 -0.3,-0.3 2.2,-2.3 V 31.8 l -1.6,-2.6 -1.8,1.5 -0.3,-0.3 6.2,-5.4 z"
   clip-path="url(#SVGID_22_)" />
				</g>
			</g>
		</g>
		<g
   id="g176">
			<g
   id="g174">
				<g
   id="g172">
					<defs
   id="defs165">
						<polygon
   points="375.3,11 376,61.8 2,61.8 1.3,11 "
   id="SVGID_23_" />
					</defs>
					<clipPath
   id="SVGID_24_">
						<use
   height="100%"
   width="100%"
   y="0"
   x="0"
   style="overflow:visible"
   id="use167"
   overflow="visible"
   xlink:href="#SVGID_23_" />
					</clipPath>
					<path
   style="fill:#251802"
   inkscape:connector-curvature="0"
   id="path170"
   d="m 241.6,34.7 7.2,-10.1 c 0,0 1,1.1 2.6,1.5 2.2,0.6 4.2,-1.5 4.2,-1.5 -0.4,2.7 -1.8,5.8 -4.7,6.3 -2.6,0.4 -5,-1.5 -5,-1.5 l -0.5,0.7 10,14.6 2,-1.7 0.3,0.3 -6.9,5.8 z"
   clip-path="url(#SVGID_24_)" />
				</g>
			</g>
		</g>
		<g
   id="g190">
			<g
   id="g188">
				<g
   id="g186">
					<defs
   id="defs179">
						<polygon
   points="375.3,11 376,61.8 2,61.8 1.3,11 "
   id="SVGID_25_" />
					</defs>
					<clipPath
   id="SVGID_26_">
						<use
   height="100%"
   width="100%"
   y="0"
   x="0"
   style="overflow:visible"
   id="use181"
   overflow="visible"
   xlink:href="#SVGID_25_" />
					</clipPath>
					<path
   style="fill:#251802"
   inkscape:connector-curvature="0"
   id="path184"
   d="m 236,21.1 c 0,-2.2 -1.3,-3.5 -2.5,-3.4 l 7.5,-5.3 v 30.2 l 2.4,2.1 1.6,-1.3 0.3,0.3 -6.3,5.3 -4.3,-3.9 -1.7,1.5 -0.3,-0.3 3.4,-2.5 V 21.1 Z"
   clip-path="url(#SVGID_26_)" />
				</g>
			</g>
		</g>
		<g
   id="g204">
			<g
   id="g202">
				<g
   id="g200">
					<defs
   id="defs193">
						<polygon
   points="375.3,11 376,61.8 2,61.8 1.3,11 "
   id="SVGID_27_" />
					</defs>
					<clipPath
   id="SVGID_28_">
						<use
   height="100%"
   width="100%"
   y="0"
   x="0"
   style="overflow:visible"
   id="use195"
   overflow="visible"
   xlink:href="#SVGID_27_" />
					</clipPath>
					<path
   style="fill:#251802"
   inkscape:connector-curvature="0"
   id="path198"
   d="m 185.2,29.6 c 0,0 -0.9,1 -2.2,1 -1.4,0 -2,-1 -2,-1 v 4.1 c 0,0 0.6,-1 2,-1 1.4,0 2.2,0.9 2.2,0.9 z M 185,20.8 182.5,18.2 181,19.3 V 29 c 0,0 0.9,1.1 2.3,1.1 1.4,0 1.7,-1.1 1.7,-1.1 z m -4,27.4 c 0,0 1.8,0.5 3.2,-0.6 1.5,-1.2 0.8,-2.8 0.8,-2.8 V 34.4 c 0,0 -0.4,-1.1 -1.7,-1.1 -1.4,0 -2.3,1.1 -2.3,1.1 z M 170,20.6 c 0,-2 -0.9,-3.2 -2.2,-3.2 -2,0 -2.5,2.7 -2.5,2.7 0,0 -0.4,-2.1 1.5,-4 1,-1.1 2.9,-2.6 5.9,-1.9 3.1,0.7 4.3,3 4.3,5.1 v 28.1 c 0,0 0.8,0.1 1.6,0.3 0.9,0.2 1.4,0.4 1.4,0.4 V 14.3 h 1 v 4.6 l 6.1,-4.9 4.6,4 2.2,-1.8 0.2,0.3 -2.2,1.9 v 26.1 c -0.1,1.7 -0.4,3.4 -2.1,4.4 -3.7,2.1 -8.2,-0.3 -12.2,-0.9 -3,-0.4 -7.6,-1 -8.8,1.7 -0.4,0.9 -0.4,2.2 1,3.1 2.7,1.7 14.7,-2.9 18.8,-1.1 3.7,1.7 3.7,4.4 3.2,6.2 -1,3.4 -5.5,4.1 -5.5,4.1 0,0 2.2,-1.2 1.6,-3.3 -0.3,-1 -1,-1.3 -3.4,-1.1 -5.1,0.6 -11.3,3 -15.4,1.3 -2.1,-0.9 -3.6,-3.4 -3.5,-6 0.1,-3.6 4.5,-5.1 4.5,-5.1 V 34.3 c -0.1,-0.5 -2.4,-0.4 -3,0.6 -0.8,1.5 1,2.2 1,2.2 0,0 -1.4,0.2 -2.6,-1.1 -0.6,-0.6 -1.8,-2.9 -0.2,-5.1 1.3,-1.8 2.9,-2.1 4.9,-2.3 z"
   clip-path="url(#SVGID_28_)" />
				</g>
			</g>
		</g>
	</g>
</g></g>
</svg>