<?xml version="1.0" encoding="UTF-8" standalone="no"?>
<!-- Generator: Adobe Illustrator 16.0.0, SVG Export Plug-In . SVG Version: 6.00 Build 0)  -->

<svg
   xmlns:dc="http://purl.org/dc/elements/1.1/"
   xmlns:cc="http://creativecommons.org/ns#"
   xmlns:rdf="http://www.w3.org/1999/02/22-rdf-syntax-ns#"
   xmlns:svg="http://www.w3.org/2000/svg"
   xmlns="http://www.w3.org/2000/svg"
   xmlns:sodipodi="http://sodipodi.sourceforge.net/DTD/sodipodi-0.dtd"
   xmlns:inkscape="http://www.inkscape.org/namespaces/inkscape"
   version="1.1"
   id="Layer_1"
   x="0px"
   y="0px"
   width="64"
   height="64"
   viewBox="-0.5 -0.5 64 64.000002"
   xml:space="preserve"
   inkscape:version="0.92.3 (2405546, 2018-03-11)"
   sodipodi:docname="protonmail-icon.svg"><metadata
     id="metadata3370"><rdf:RDF><cc:Work
         rdf:about=""><dc:format>image/svg+xml</dc:format><dc:type
           rdf:resource="http://purl.org/dc/dcmitype/StillImage" /><dc:title></dc:title></cc:Work></rdf:RDF></metadata><defs
     id="defs3368" /><sodipodi:namedview
     pagecolor="#ffffff"
     bordercolor="#666666"
     borderopacity="1"
     objecttolerance="10"
     gridtolerance="10"
     guidetolerance="10"
     inkscape:pageopacity="0"
     inkscape:pageshadow="2"
     inkscape:window-width="1920"
     inkscape:window-height="1001"
     id="namedview3366"
     showgrid="false"
     fit-margin-top="10"
     fit-margin-left="10"
     fit-margin-right="10"
     fit-margin-bottom="10"
     inkscape:zoom="4.1981495"
     inkscape:cx="113.02391"
     inkscape:cy="33.625411"
     inkscape:window-x="-9"
     inkscape:window-y="-9"
     inkscape:window-maximized="1"
     inkscape:current-layer="Layer_1" /><g
     id="Layer_1_1_"
     transform="translate(-1.916632,-665.84204)" /><g
     id="g3360"
     transform="matrix(0.09528259,0,0,0.09528259,8.7571892,-0.45243661)"><path
       style="fill:#333366;stroke:#ffffff;stroke-miterlimit:10"
       inkscape:connector-curvature="0"
       id="path3362"
       d="m 238.688,0.021 c 0,0 -197.877,-6.5 -238.688,213 v 149.5 c 0,0 1.688,16 46.688,48.501 45,32.5 161.5,124 192,124 30.5,0 147,-91.5 192,-124 45,-32.501 46.688,-48.501 46.688,-48.501 v -149.5 c -40.811,-219.5 -238.688,-213 -238.688,-213 z m 135.5,294.5 h -135.5 -135.5 v -81.5 c 27.5,-109 135.5,-110.5 135.5,-110.5 0,0 108,1.5 135.5,110.5 z"
       stroke-miterlimit="10" /><path
       style="fill:#333366;stroke:#ffffff;stroke-miterlimit:10"
       inkscape:connector-curvature="0"
       id="path3364"
       d="m 238.688,568.688 c 0,0 -30.667,-3 -54.667,-19.666 C 160.021,532.356 0,418.021 0,418.021 v 226.334 c 0,0 1.355,26.332 30.355,26.332 29,0 208.333,0 208.333,0 0,0 179.333,0 208.333,0 29,0 30.354,-26.332 30.354,-26.332 V 418.021 c 0,0 -160.022,114.334 -184.022,131 -23.999,16.667 -54.665,19.667 -54.665,19.667 z"
       stroke-miterlimit="10" /></g></svg>