<svg xmlns="http://www.w3.org/2000/svg" viewBox="-100 0 64 64" width="64" height="64"><path d="M34.3 32.6l-7.1 15.1C15.5 42.3.1 41.6-12.9 49.2c-8.5 5.3-15.5 14.6-16.2 24.6-.2 6.7 2.6 13.9 1.7 20.6-.2 3.6-1 7.1-2.8 10.2-2.2 3.6-4.7 6.7-9 6.9.9-1.2 7.6-4.5 5.1-19.5-1.2-6-9.3-20.7-1.4-39.1C-28.3 36.1 3 16 34.3 32.6zM-1.6 62.3c4-1.5 8.6-1.5 12.9-.5 8.2 1.5 14.2 6.3 17.2 13.6 3.1 7.6 5.3 13.7 10.7 20.3.1.2-8.3-1.3-8.3-1.5 2.1-15.1-12.2-15.7-16.2-10 3 3.2 8.1 5 12 4.3-.8 15 3.3 28.6 3.1 28.6-3.5-.5-19-9.6-23.6-13.6-6.7 1.2-12 3.7-19.7 4.7-.2.1 1.4-5.6 1.2-8.6 0-7.8-6-15.2-1.7-24.9 2.5-5.9 6.4-10.3 12.4-12.4zM4 57.7a10.53 10.53 0 0 1 1.2.1c.1-.5.6-4.3 3.8-6.9 3.6-3 8.2-2.8 8.2-2.8-4.6-1.4-9.4-1.5-12.8-1.2zm-29.6 13.6c-.7 4.5-.8 8.6-.3 10.8 0 0 .7-3.8 2.9-6 2-1.8 4.3-2.3 5.2-2.2 0 0 .5-1.5.3-1.5zm9-.8c.2-.6.5-1.2.9-1.8l-8.3-3.1c-.5 1-.9 2.6-1 3.5zm2-3.2l1.4-1.6-7.6-5.6c-.8 1-1.5 2.1-2 3.2zm2.7-3c.1-.1 1.7-1.5 1.7-1.5l-6.6-7.4c-1.5 1.3-2 1.8-2.9 3zm3.5-2.5c0 .1 2-1 2-1.2l-4.8-8.9c-1.8.9-3 1.8-3.6 2.2zm3.7-2l2.3-.8-2.8-9.9-4.1 1.6zm4-1.4c.1.1 2.1-.5 2.1-.5l.2-10.7c-.1.1-2.5.5-4.6 1z" transform="matrix(.705548 0 0 .705548 -68.000312 -18.619643)" fill="#18453b"/></svg>