<?xml version="1.0" encoding="UTF-8" standalone="no"?>
<!-- Generator: Adobe Illustrator 17.1.0, SVG Export Plug-In . SVG Version: 6.00 Build 0)  -->

<svg
   xmlns:dc="http://purl.org/dc/elements/1.1/"
   xmlns:cc="http://creativecommons.org/ns#"
   xmlns:rdf="http://www.w3.org/1999/02/22-rdf-syntax-ns#"
   xmlns:svg="http://www.w3.org/2000/svg"
   xmlns="http://www.w3.org/2000/svg"
   xmlns:sodipodi="http://sodipodi.sourceforge.net/DTD/sodipodi-0.dtd"
   xmlns:inkscape="http://www.inkscape.org/namespaces/inkscape"
   version="1.1"
   id="svg2"
   sodipodi:docname="walmart-icon.svg"
   inkscape:version="0.92.3 (2405546, 2018-03-11)"
   x="0px"
   y="0px"
   viewBox="-231.5 619.2 64 64.000001"
   xml:space="preserve"
   width="64"
   height="64"><metadata
   id="metadata22"><rdf:RDF><cc:Work
       rdf:about=""><dc:format>image/svg+xml</dc:format><dc:type
         rdf:resource="http://purl.org/dc/dcmitype/StillImage" /><dc:title></dc:title></cc:Work></rdf:RDF></metadata><defs
   id="defs20">
	
	
	
	
	
	
	
	
	
	
	
	
	
</defs>
<style
   type="text/css"
   id="style2">
	.st0{fill:#FDBB30;}
	.st1{fill:#1A75CF;}
</style>
<sodipodi:namedview
   gridtolerance="10"
   bordercolor="#666666"
   pagecolor="#ffffff"
   showgrid="false"
   inkscape:cx="84.797355"
   inkscape:zoom="3.8542529"
   fit-margin-left="0"
   guidetolerance="10"
   objecttolerance="10"
   inkscape:cy="32.568404"
   borderopacity="1"
   fit-margin-top="0"
   id="namedview18"
   inkscape:pageopacity="0"
   inkscape:window-height="1001"
   inkscape:window-width="1920"
   inkscape:pageshadow="2"
   fit-margin-right="0"
   fit-margin-bottom="0"
   inkscape:window-x="-9"
   inkscape:window-y="-9"
   inkscape:window-maximized="1"
   inkscape:current-layer="svg2">
	</sodipodi:namedview>
<g
   id="g876"
   transform="matrix(2.2137891,0,0,2.2137891,68.131167,-786.51911)"><path
     id="path2974"
     inkscape:connector-curvature="0"
     class="st0"
     d="m -120.87969,644.70951 c 0.67232,0 1.255,-0.35857 1.29982,-0.80678 l 0.67232,-7.57479 c 0,-0.76196 -0.89643,-1.34464 -1.97214,-1.34464 -1.12053,0 -1.97213,0.6275 -1.97213,1.34464 l 0.67232,7.57479 c 0.0448,0.44821 0.62749,0.80678 1.29981,0.80678 v 0"
     style="fill:#fdbb30;stroke-width:0.44821247" /><path
     id="path2976"
     inkscape:connector-curvature="0"
     class="st0"
     d="m -125.00324,647.08504 c 0.35857,-0.58268 0.31375,-1.255 -0.0448,-1.52392 l -6.23016,-4.34766 c -0.62749,-0.35857 -1.61356,0.0896 -2.15142,1.03088 -0.53785,0.94125 -0.44821,2.01696 0.17929,2.37553 l 6.90247,3.22713 c 0.44821,0.13446 1.03089,-0.17929 1.34464,-0.76196 v 0"
     style="fill:#fdbb30;stroke-width:0.44821247" /><path
     id="path2978"
     inkscape:connector-curvature="0"
     class="st0"
     d="m -116.80096,647.08504 c 0.35857,0.58268 0.94125,0.89642 1.34464,0.71714 l 6.90247,-3.22713 c 0.6275,-0.35857 0.76197,-1.43428 0.17929,-2.37553 -0.53786,-0.94124 -1.52392,-1.38946 -2.15142,-1.03089 l -6.23015,4.34766 c -0.35857,0.31375 -0.40339,0.98607 -0.0448,1.56875 v 0"
     style="fill:#fdbb30;stroke-width:0.44821247" /><path
     id="path2980"
     inkscape:connector-curvature="0"
     class="st0"
     d="m -120.87969,654.1668 c 0.67232,0 1.255,0.35857 1.29982,0.80678 l 0.67232,7.57479 c 0,0.76196 -0.89643,1.34464 -1.97214,1.34464 -1.12053,0 -1.97213,-0.6275 -1.97213,-1.34464 l 0.67232,-7.57479 c 0.0448,-0.44821 0.62749,-0.80678 1.29981,-0.80678 v 0"
     style="fill:#fdbb30;stroke-width:0.44821247" /><path
     id="path2982"
     inkscape:connector-curvature="0"
     class="st0"
     d="m -116.80096,651.79127 c 0.35857,-0.58268 0.94125,-0.89643 1.34464,-0.71714 l 6.90247,3.18231 c 0.6275,0.35857 0.76197,1.43428 0.17929,2.37552 -0.53786,0.94125 -1.52392,1.38946 -2.15142,1.03089 l -6.23015,-4.34766 c -0.35857,-0.26893 -0.40339,-0.94124 -0.0448,-1.52392 v 0"
     style="fill:#fdbb30;stroke-width:0.44821247" /><path
     id="path2984"
     inkscape:connector-curvature="0"
     class="st0"
     d="m -125.00324,651.79127 c 0.35857,0.58268 0.31375,1.25499 -0.0448,1.52392 l -6.23016,4.34766 c -0.62749,0.35857 -1.61356,-0.0896 -2.15142,-1.03089 -0.53785,-0.94124 -0.44821,-2.01695 0.17929,-2.37552 l 6.90247,-3.18231 c 0.44821,-0.17929 1.03089,0.13446 1.34464,0.71714 v 0"
     style="fill:#fdbb30;stroke-width:0.44821247" /></g>
</svg>