<svg version="1.1" id="Layer_1" xmlns="http://www.w3.org/2000/svg" x="0" y="0" width="120" height="60" xml:space="preserve"><style>.st1{fill:#4db938}</style><switch><g><path d="M44.5 30.8c-.9.5-2.4.8-3.7.8-3.7 0-5.2-2.2-5.2-5.6 0-3.2 1.8-5.5 5.5-5.5 1.2 0 2.6.3 3.4.8v2.9l-1.6-.1-.2-1.5c0-.1-.1-.2-.2-.3-.3-.1-.8-.2-1.3-.2-1.9 0-3.1 1.3-3.1 3.8 0 2.6 1.1 3.9 3 3.9.5 0 1.1-.1 1.5-.2.2 0 .2-.1.3-.3l.2-1.4h1.6l-.2 2.9m6.3-3.2c0-1.8-.5-2.4-1.5-2.4s-1.6.6-1.6 2.4c0 1.8.6 2.5 1.6 2.5.9 0 1.5-.7 1.5-2.5zm-5.5 0c0-2.5 1.3-4.1 4-4.1s3.8 1.6 3.8 3.9c0 2.5-1.3 4.2-4 4.2s-3.8-1.6-3.8-4m15.4 3.3c-.7.4-1.7.7-2.8.7-2.7 0-3.9-1.7-3.9-3.9 0-2.8 1.7-4.1 4.1-4.1 1.2 0 2.2.3 2.6.6v2.3l-1.6-.1-.2-1c0-.1 0-.2-.2-.2-.2-.1-.5-.1-.8-.1-.9 0-1.6.6-1.6 2.3 0 1.9.9 2.5 1.9 2.5.7 0 1.4-.2 1.9-.4l.6 1.4m6.5.6l-1.9-3.8-.8.9v1.3c0 .2 0 .3.2.3l.9.1v1.2h-4.4v-1.2l.7-.1c.2 0 .2-.1.2-.3V22c0-.2 0-.3-.2-.3l-.8-.3.2-1.2h3.1v6.3l2.7-2.9h2v1.2l-.8.1c-.2 0-.2.1-.4.2l-1.1 1.1 1.9 3.6c.1.2.2.2.4.3l.7.1v1.2l-2.6.1m3.5 0v-1.2l.7-.1c.2 0 .2-.1.2-.3v-4.4c0-.2 0-.3-.2-.3l-.8-.3.2-1.2h2.6l.2 1.2h.1c.5-.8 1.1-1.3 2.1-1.3.3 0 1 .1 1.3.1v2.7l-1.8-.1-.1-.8c0-.1-.1-.2-.2-.2-.4 0-.8.3-1.1.5v3.9c0 .2 0 .3.2.3l1.5.1v1.2l-4.9.2m12.5-3.9c0-1.8-.5-2.4-1.5-2.4s-1.6.6-1.6 2.4c0 1.8.6 2.5 1.6 2.5.9 0 1.5-.7 1.5-2.5zm-5.5 0c0-2.5 1.3-4.1 4-4.1s3.8 1.6 3.8 3.9c0 2.5-1.3 4.2-4 4.2s-3.8-1.6-3.8-4m13 .7l-1 .1c-.9.1-1.2.3-1.2.9s.4.8.8.8c.5 0 1-.3 1.4-.5v-1.3zm.4 3.2l-.1-.8h-.1c-.6.5-1.3 1-2.5 1-1.9 0-2.2-1.3-2.2-2.2 0-1.5.9-2.2 2.8-2.3l1.7-.1v-.8c0-.7-.1-1.2-1-1.2-.7 0-1.1.1-1.1 1l-2.1-.2c0-2 1.8-2.3 3.2-2.3 2.3 0 3.2.6 3.2 2.7v3.6c0 .2 0 .3.2.3l.7.1v1.2h-2.7m9.8-.6c-.7.4-1.7.7-2.8.7-2.7 0-3.9-1.7-3.9-3.9 0-2.8 1.7-4.1 4.1-4.1 1.2 0 2.2.3 2.6.6v2.3l-1.6-.1-.2-1c0-.1 0-.2-.2-.2-.2-.1-.5-.1-.8-.1-.9 0-1.6.6-1.6 2.3 0 1.9.9 2.5 1.9 2.5.7 0 1.4-.2 1.9-.4l.6 1.4m5.9.6v-4.8c0-.4 0-1.3-.8-1.3-.5 0-1.2.3-1.5.5v4c0 .2 0 .3.2.3l.7.1v1.2h-4.1v-1.2l.7-.1c.2 0 .2-.1.2-.3V22c0-.2 0-.3-.2-.3l-.8-.3.2-1.2h3.1v4.2h.1c.7-.5 1.4-.9 2.4-.9 1.6 0 2.2.9 2.2 2.4v3.9c0 .2 0 .3.2.3l.7.1v1.2h-3.3m-83-6.2c-.8.2-1.6.3-2.5.3-.9 0-1.7-.1-2.5-.3.7-1.1 1.5-2 2.5-2.8 1 .8 1.8 1.7 2.5 2.8zm7.5-6.1c-1-.3-2.1-.4-3.1-.4-2.4 0-4.8.7-6.9 2.1-2-1.3-4.3-2.1-6.9-2.1-1.1 0-2.1.1-3.1.4-.4.1-.8.2-1.2.4v.1c.2.4.4.8.6 1.1h.1c.4-.1.8-.3 1.3-.4.8-.2 1.6-.3 2.5-.3 2.1 0 4.1.6 5.7 1.6-1.1.9-2 2-2.7 3.2-.1.2-.3.5-.4.7-.1.2-.2.3-.2.5-.1.3-.2.5-.3.8-.5 1.4-.8 2.8-.8 4.3 0 3.5 1.5 6.7 3.8 8.9.2.2.4.4.6.5.2.1.3.3.5.4.2.2.4.3.6.5h.1c.2-.1.4-.3.6-.5.2-.1.3-.2.5-.4s.4-.3.6-.5c2.3-2.3 3.8-5.4 3.8-8.9 0-1.5-.3-2.9-.8-4.3-.1-.3-.2-.5-.3-.8-.1-.2-.2-.3-.2-.5-.1-.2-.3-.5-.4-.7-.7-1.2-1.6-2.3-2.7-3.2 1.7-1 3.6-1.6 5.7-1.6.9 0 1.7.1 2.5.3.4.1.9.2 1.3.4h.1c.2-.4.4-.7.6-1.1v-.1c-.7-.2-1.1-.3-1.5-.4" fill="#1a2845"/><path class="st1" d="M25.5 31c0 2.9-1.1 5.6-3 7.6-.3-1.1-.5-2.2-.5-3.3 0-2.9 1.1-5.6 3-7.6.3 1.1.5 2.2.5 3.3M37.3 35.8H39v6.3h3.2v1.6h-5v-7.9m9.7 2.3l-1 2.5h1.9l-.9-2.5zm-.6-2.3h1.4l3.5 7.9h-2l-.7-1.7h-3.1l-.7 1.7h-1.9l3.5-7.9m7.4 6.5h2c.1 0 .3-.1.4-.2l.3-.3c.1-.1.1-.3.1-.4 0-.2 0-.3-.1-.5-.1-.1-.2-.2-.4-.3-.1-.1-.3-.1-.5-.1h-1.8v1.8zm0-3.3H55.4c.1 0 .2-.1.4-.1l.3-.3c.1-.1.1-.2.1-.4s0-.3-.1-.4l-.3-.3c-.1-.1-.2-.1-.4-.1h-1.6l-.1 1.6zm-1.8-3.2h3c.3 0 .7 0 1 .1s.7.1.9.3c.3.1.5.4.7.6.2.3.3.6.3 1s-.1.8-.4 1.1c-.3.3-.6.5-1 .6.3 0 .5.1.7.2.2.1.4.2.5.4.2.2.3.4.4.6.1.2.1.5.1.7 0 .4-.1.8-.3 1-.2.3-.4.5-.7.7-.3.2-.6.3-1 .4-.4.1-.7.1-1.1.1h-3.2l.1-7.8m11.3 2c-.1-.2-.3-.3-.6-.4-.2-.1-.5-.1-.7-.1h-.4c-.1 0-.3.1-.4.1-.1.1-.2.1-.3.3-.1.1-.1.2-.1.4s.1.4.3.5c.2.1.4.2.7.3l.9.3c.3.1.6.2.9.4.3.2.5.4.7.7.2.3.3.6.3 1.1 0 .4-.1.8-.2 1.2-.2.3-.4.6-.7.8-.3.2-.6.4-1 .5-.4.1-.8.2-1.2.2-.5 0-1-.1-1.4-.2-.4-.2-.9-.4-1.2-.8l1.2-1.4c.2.2.4.4.7.6.3.1.6.2.8.2.1 0 .3 0 .4-.1.1 0 .3-.1.4-.2l.3-.3c.1-.1.1-.2.1-.4s-.1-.4-.3-.6c-.2-.1-.4-.3-.7-.4l-.9-.3c-.3-.1-.6-.2-.9-.4-.3-.2-.5-.4-.7-.6-.2-.3-.3-.6-.3-1.1 0-.4.1-.8.3-1.1.2-.3.4-.6.7-.8.3-.2.6-.4 1-.5.4-.1.7-.2 1.1-.2.4 0 .9.1 1.3.2s.8.3 1.1.6l-1.2 1.5"/><path d="M20.6 35.3c0 1.2-.2 2.3-.5 3.3-1.9-2-3-4.6-3-7.6 0-1.2.2-2.3.5-3.3 1.9 2 3 4.7 3 7.6" fill="#8cd024"/></g></switch></svg>