<svg xmlns="http://www.w3.org/2000/svg" width="120" height="60" viewBox="-313.8 393.999 120 60"><linearGradient id="A" gradientUnits="userSpaceOnUse" x1="-299.374" y1="439.587" x2="-286.501" y2="426.714"><stop offset=".1" stop-color="#9ddaf7"/><stop offset=".9" stop-color="#049bd8"/></linearGradient><linearGradient id="B" gradientUnits="userSpaceOnUse" x1="-312.269" y1="449.147" x2="-288.41" y2="449.147"><stop offset="0" stop-color="#10aee5"/><stop offset=".163" stop-color="#0fa8e0"/><stop offset=".377" stop-color="#0c98d1"/><stop offset=".619" stop-color="#077db8"/><stop offset=".879" stop-color="#015795"/><stop offset=".9" stop-color="#005492"/></linearGradient><linearGradient id="C" gradientUnits="userSpaceOnUse" x1="-308.881" y1="452.562" x2="-308.881" y2="428.705"><stop offset="0" stop-color="#0980bc"/><stop offset=".401" stop-color="#056eaa"/><stop offset=".85" stop-color="#005492"/></linearGradient><g transform="translate(9.933 -15.616)"><path d="M-263.373 430.023v3.836h-6.834v18.584h-4.316V433.98h-6.834v-3.957zm1.8 22.54h4.316v-22.54h-4.316v11.27zm26.855 0h-4.436l-2.28-5.514h-7.552l-2.398 5.514h-4.316l9.592-22.78h1.917zm20.98 0h-4.437l-2.278-5.514h-7.553l-2.277 5.514h-4.317l9.592-22.78h1.918zm-29.254-9.232l-2.397-5.633-2.277 5.633zm20.98 0l-2.276-5.633-2.278 5.633z" fill="#005495"/><path d="M-297.183 454a7.09 7.09 0 0 0 4.917-2.038l5.273-5.274c1.2-1.2 2.04-2.998 2.04-4.796v-16.665h-16.544c-1.918 0-3.716.84-4.916 2.037l-5.275 5.395c-1.2 1.2-2.04 3-2.04 4.796v16.546h16.545z" fill="#fff"/><path d="M-299.58 426.666a5.37 5.37 0 0 0-5.395 5.395v1.8h11.4v11.27h1.798a5.37 5.37 0 0 0 5.395-5.395v-13.068z" fill="url(#A)"/><path d="M-288.55 445.85c-.96.478-2.158.84-3.357.84h-14.506l-5.755 5.755h15.106c1.44 0 2.877-.6 3.837-1.68l4.915-4.914z" fill="url(#B)"/><path d="M-305.575 428.824c-.6.958-.838 2.157-.838 3.355v14.628l-5.755 5.755v-15.107c-.12-1.438.48-2.876 1.56-3.836l4.915-4.914z" fill="url(#C)"/></g></svg>