<svg xmlns="http://www.w3.org/2000/svg" width="64" height="64"><path d="M29.2 0c3.497 1.4 5.517 4.196 6.846 7.385 2.916.7 5.72 1.196 8.392 2.028 4.895 1.517 8.944 4.336 11.6 8.818 1.77 2.986 2.797 6.217 2.042 9.8-.33 1.615-1.126 2.315-2.755 2.315H8.36c-.28 0-.552 0-.797-.05-1.4-.755-1.622-2.098-1.895-3.406a19.58 19.58 0 0 1 .734-5.168 17 17 0 0 1 4.42-7.259c3.678-3.6 8.2-5.483 13.182-6.4 1.58-.294 3.168-.503 4.8-.755.7-2.664.804-5.1-.937-7.287zM8.864 32.657h46.224c.1 1.4.287 2.692.252 3.993-.168 5.5-1.343 10.74-4.636 15.308-3.1 4.24-7.624 7.206-12.748 8.336a8.03 8.03 0 0 0-4.531 2.587c-.418.412-.872.787-1.357 1.12a9.54 9.54 0 0 1-1.888-1.49c-.944-1.26-2.203-1.72-3.664-2.05-6.6-1.497-11.77-4.986-14.95-11.098a27.23 27.23 0 0 1-2.832-11.615c-.07-1.657.1-3.322.133-5.1z" fill="#92be57"/></svg>