<?xml version="1.0" encoding="UTF-8" standalone="no"?>
<svg
   xmlns:dc="http://purl.org/dc/elements/1.1/"
   xmlns:cc="http://creativecommons.org/ns#"
   xmlns:rdf="http://www.w3.org/1999/02/22-rdf-syntax-ns#"
   xmlns:svg="http://www.w3.org/2000/svg"
   xmlns="http://www.w3.org/2000/svg"
   xmlns:sodipodi="http://sodipodi.sourceforge.net/DTD/sodipodi-0.dtd"
   xmlns:inkscape="http://www.inkscape.org/namespaces/inkscape"
   id="Layer_1"
   data-name="Layer 1"
   viewBox="0 0 120 60"
   version="1.1"
   sodipodi:docname="mapr-ar21.svg"
   width="120"
   height="60"
   inkscape:version="0.92.3 (2405546, 2018-03-11)">
  <metadata
     id="metadata19">
    <rdf:RDF>
      <cc:Work
         rdf:about="">
        <dc:format>image/svg+xml</dc:format>
        <dc:type
           rdf:resource="http://purl.org/dc/dcmitype/StillImage" />
        <dc:title>MapR_new_red</dc:title>
      </cc:Work>
    </rdf:RDF>
  </metadata>
  <sodipodi:namedview
     pagecolor="#ffffff"
     bordercolor="#666666"
     borderopacity="1"
     objecttolerance="10"
     gridtolerance="10"
     guidetolerance="10"
     inkscape:pageopacity="0"
     inkscape:pageshadow="2"
     inkscape:window-width="1920"
     inkscape:window-height="1001"
     id="namedview17"
     showgrid="false"
     inkscape:zoom="7.5333333"
     inkscape:cx="77.251837"
     inkscape:cy="47.475052"
     inkscape:window-x="-9"
     inkscape:window-y="-9"
     inkscape:window-maximized="1"
     inkscape:current-layer="Layer_1" />
  <defs
     id="defs4">
    <style
       id="style2">.cls-1{fill:#c8102e;}</style>
  </defs>
  <title
     id="title6">MapR_new_red</title>
  <g
     id="g829"
     transform="matrix(0.13765951,0,0,0.13765951,11.598228,13.114814)">
    <path
       id="path12"
       d="m 461.77,54.51 h -42.3 c -17.07,0 -20.93,5.32 -20.93,19.65 v 98.06 L 347.67,69.57 c -6.07,-11.29 -11.89,-16.92 -20.83,-16.8 -9.65,0.12 -15.24,5.75 -20,16.8 L 256.17,171.85 230,69.57 c -3,-11.84 -10.92,-16.8 -20,-16.8 -9.08,0 -16,4.68 -20.16,16.8 L 158.15,172.34 127,69.57 C 123.14,57.45 116,52.77 106.87,52.77 97.74,52.77 90,57.73 87,69.57 L 55.72,191.72 h 20.84 l 30.35,-119 31.66,104.33 c 3.3,10.74 11.62,15.7 19.62,15.42 8,0.28 16.21,-4.68 19.8,-15.42 L 210,72.41 236.17,174.32 c 3,12.67 10.49,18.19 19.83,18.19 8.83,0 15.17,-6.67 19.78,-15.42 l 51.17,-103.41 23.72,47.44 h -34.73 l -10,19.89 h 54.47 l 18.2,36.12 c 5.92,10.75 9.78,15.42 20.54,15.42 11,0 19.88,-4.33 19.88,-28.39 l 0.08,-89.5 h 44 c 24.24,0 28.75,12.5 28.75,22.43 0,9.93 -5,23.81 -29.21,23.92 H 430 v 19.73 l 31.24,0.06 c 38.29,0 52.62,-18.07 52.62,-43.7 0,-25.63 -14.61,-42.59 -52.09,-42.59 z"
       class="cls-1"
       inkscape:connector-curvature="0"
       style="fill:#c8102e" />
    <path
       id="path14"
       d="m 641.92,97.33 c 0,-25.64 -14.59,-42.74 -52.37,-42.74 h -59.82 c -14.06,0 -14.06,20.09 0,20.09 h 60.95 c 24.25,0 29.21,12.72 29.21,22.65 0,9.93 -5,22.87 -29.21,22.87 l -65.59,0.23 0.23,71.16 h 20.35 l -0.17,-51.54 h 41.33 l 36.09,51.29 h 24.57 L 610,138 c 21,-4.39 31.92,-20.81 31.92,-40.67 z"
       class="cls-1"
       inkscape:connector-curvature="0"
       style="fill:#c8102e" />
  </g>
</svg>
