<svg xmlns="http://www.w3.org/2000/svg" xmlns:xlink="http://www.w3.org/1999/xlink" width="120" height="60"><g fill="#e96c4c"><use xlink:href="#A"/><use xlink:href="#B"/><use xlink:href="#C"/><path d="M40.38 25.002V35h2.615v-3.983H44L46.353 35h3.122l-3.278-5.233 2.964-4.764h-2.886l-2.42 3.827h-.86v-3.827zm23.352 0V35h6.56v-2.343h-3.905V31.17H69.9v-2.34h-3.514v-1.484h3.67v-2.343zm37.722 0V35h2.812l.002-2.968h1.17L106.922 35H110l-1.986-3.593c.392-.33.7-.73.937-1.17.42-.782.62-1.65.5-2.5-.085-.6-.324-1.186-.734-1.64-.65-.72-1.678-1.093-2.812-1.093zm2.812 2.1h1.328a1.3 1.3 0 0 1 1.015.469c.232.28.338.648.312 1.015-.034.487-.3.925-.703 1.17-.287.172-.636.234-1.015.234h-.937z"/><use xlink:href="#C" x="23.43"/><use xlink:href="#B" x="51.779"/><use xlink:href="#A" x="72.632"/><path d="M93.254 25.002V35h6.56v-2.343H95.9V31.17h3.514v-2.34H95.9v-1.484h3.67v-2.343z"/></g><defs><path id="A" d="M10 25.002V35h4.155c1.495 0 2.83-.55 3.733-1.562.835-.936 1.24-2.204 1.25-3.514.008-1.328-.4-2.614-1.25-3.514-.912-.955-2.28-1.406-3.8-1.406zm2.812 2.343h1.25c1.346 0 2.228 1.15 2.265 2.577.04 1.5-.866 2.733-2.265 2.733h-1.25z"/><path id="B" d="M22.418 25.002L19.138 35h3.046l.47-1.562h3.75l.47 1.562h2.968l-3.358-9.997zm1.952 2.187h.234l1.17 4.217h-2.5z"/><path id="C" d="M30.696 25.002V35h2.812l.002-2.968h1.17L36.164 35h3.08l-1.986-3.593c.392-.33.7-.73.937-1.17.42-.782.62-1.65.5-2.5-.085-.6-.324-1.186-.734-1.64-.65-.72-1.678-1.093-2.812-1.093zm2.812 2.1h1.328a1.3 1.3 0 0 1 1.015.469c.232.28.338.648.312 1.015-.034.487-.3.925-.703 1.17-.287.172-.636.234-1.015.234h-.937z"/></defs></svg>