<svg xmlns="http://www.w3.org/2000/svg" width="64" height="64" fill="none">
    <path fill="#ef4056" fill-rule="evenodd" d="M58.049 4.496c-17.499.019-35-.039-52.497.029C2.165 4.697-.468 7.956 0 11.29c.052 6.655-.11 13.316.094 19.967.87 12.454 10.256 23.457 22.09 27.051 11.629 3.812 25.266.374 33.538-8.689 5.747-6.032 8.726-14.447 8.278-22.747-.02-5.733.041-11.468-.03-17.2-.249-2.942-3.013-5.231-5.921-5.167" style="stroke-width:4.42481"/>
    <path fill="#fff" d="M35.031 41.531c5.133-4.702 10.303-9.368 15.413-14.094 1.959-2.15 1.023-6.238-1.903-6.975-1.616-.55-3.444.026-4.522 1.328L32.111 32.708c-4.176-3.881-8.316-7.805-12.514-11.66-2.448-1.87-6.632-.24-6.907 2.91-.26 1.758.751 3.375 2.09 4.419 4.849 4.479 9.672 8.987 14.536 13.447 1.631 1.259 4.262 1.23 5.715-.297" style="stroke-width:4.42481"/>
</svg>
