<svg xmlns="http://www.w3.org/2000/svg" xmlns:xlink="http://www.w3.org/1999/xlink" width="64" height="64"><use xlink:href="#B" fill="#ff5c3e"/><path d="M-382.462 207.072h-13.608v-13.61h-9.072v13.61h-13.608v9.07h13.608v13.61h9.072v-13.61h13.608z" fill="#fff"/><use xlink:href="#B" x="-8.552" y="3.39" fill="#ff5c3e"/><path d="M-391.005 210.462h-13.608v-13.61h-9.072v13.61h-13.608v9.07h13.608v13.61h9.072v-13.61h13.608z" fill="#fff"/><path d="M64 57.6C64 61.134 61.134 64 57.6 64H6.403C2.867 63.97 0 61.198 0 57.6V6.4C0 2.868 2.867 0 6.403 0H57.6c3.534 0 6.3 2.772 6.3 6.4v51.2z" fill="#27989f"/><path d="M25.625 48.188H19.5c-4-9.625-7.625-20.875-10.75-32.375h8c1.375 6.375 3.75 16.25 6.125 23.25 1.875-6.125 4.375-15.5 6-23.25h6.25c1.625 7.75 4 17.125 6.125 23.25 2.25-7 4.625-16.875 6-23.25h8c-3.125 11.5-6.75 22.75-10.75 32.375h-6.125C36 41.438 34 35.188 32 27.813c-2 7.375-4 13.625-6.375 20.375z" fill="#fff"/><defs ><path id="B" d="M-368.6 236.99c-.001 3.535-2.866 6.4-6.4 6.4h-51.196c-3.536-.03-6.403-2.802-6.403-6.4v-51.2c0-3.533 2.868-6.4 6.403-6.4h51.196c3.534 0 6.3 2.772 6.3 6.4v51.2z"/></defs></svg>