<svg version="1.1" id="Layer_1" xmlns="http://www.w3.org/2000/svg" x="0" y="0" width="64" height="64" xml:space="preserve"><style>.st1{fill:#fff}</style><switch><g><g id="Layer_2_1_"><g id="Layer_2-2"><path d="M47.2 58.9l-15.1 4.3c-11.3 3.2-22.9-3.6-26-15.4L2 32.2c-3.1-11.7 3.5-23.8 14.8-27L31.9.9c11.3-3.2 22.9 3.7 26 15.4L62 31.9c3.1 11.7-3.5 23.8-14.8 27" fill="#03d6a1"/><path class="st1" d="M36.5 45.1c-2.4.9-5.1 1.1-7.6.5-6-1.8-10.1-7.2-10.2-13.5-.1-3.7 1.3-7.3 3.9-9.9 2.4-2.5 5.7-3.9 9.1-4h.1c6.2.1 10.2 5 10.2 5 .5.7 1.5.8 2.1.3h.1c.7-.6.8-1.6.2-2.3-.2-.3-4.9-6.1-12.6-6.2-4.3 0-8.5 1.8-11.5 5-6.7 7-6.4 18.1.6 24.7 2 1.9 4.4 3.3 7.1 4.1 1.2.3 2.5.5 3.8.5 1.9 0 3.8-.4 5.6-1.1 4.8-1.8 9.4-6.6 9.3-12.1-1.1.8-2.2 1.6-3.4 2.2-.8 3-3.7 5.6-6.8 6.8"/><path class="st1" d="M37.2 34.3c-1.2 0-2.6-.3-2.7-1.5 0-.3.1-.6.3-.8.2-.2.8-.6 2.2-.6 1.8 0 3.5.6 5 1.6-1.4.8-3.1 1.3-4.8 1.3m11-6.1c-1 1.1-2.2 2.1-3.4 3-2.1-2-4.9-3.1-7.8-3.1-2 0-3.5.5-4.5 1.6-.8.8-1.2 2-1.2 3.1 0 2.2 1.5 4.6 5.7 4.7 2.3 0 4.6-.6 6.6-1.8 1-.5 1.9-1.1 2.8-1.8 1.4-1.1 2.8-2.2 4-3.5.6-.7.5-1.7-.1-2.3-.5-.6-1.4-.5-2.1.1"/></g></g></g></switch></svg>