<?xml version="1.0" encoding="UTF-8" standalone="no"?>
<svg
   xmlns:dc="http://purl.org/dc/elements/1.1/"
   xmlns:cc="http://creativecommons.org/ns#"
   xmlns:rdf="http://www.w3.org/1999/02/22-rdf-syntax-ns#"
   xmlns:svg="http://www.w3.org/2000/svg"
   xmlns="http://www.w3.org/2000/svg"
   xmlns:sodipodi="http://sodipodi.sourceforge.net/DTD/sodipodi-0.dtd"
   xmlns:inkscape="http://www.inkscape.org/namespaces/inkscape"
   viewBox="179.6 416.9 120 59.999999"
   version="1.1"
   id="svg6"
   sodipodi:docname="people-ar21.svg"
   width="120"
   height="60"
   inkscape:version="0.92.3 (2405546, 2018-03-11)">
  <metadata
     id="metadata12">
    <rdf:RDF>
      <cc:Work
         rdf:about="">
        <dc:format>image/svg+xml</dc:format>
        <dc:type
           rdf:resource="http://purl.org/dc/dcmitype/StillImage" />
        <dc:title>PeopleTV</dc:title>
      </cc:Work>
    </rdf:RDF>
  </metadata>
  <defs
     id="defs10" />
  <sodipodi:namedview
     pagecolor="#ffffff"
     bordercolor="#666666"
     borderopacity="1"
     objecttolerance="10"
     gridtolerance="10"
     guidetolerance="10"
     inkscape:pageopacity="0"
     inkscape:pageshadow="2"
     inkscape:window-width="1920"
     inkscape:window-height="1001"
     id="namedview8"
     showgrid="false"
     inkscape:zoom="4.2315492"
     inkscape:cx="101.23561"
     inkscape:cy="30.233557"
     inkscape:window-x="-9"
     inkscape:window-y="-9"
     inkscape:window-maximized="1"
     inkscape:current-layer="svg6" />
  <title
     id="title2">PeopleTV</title>
  <path
     class="channel__color--fill channel__color--stroke"
     d="m 275.11485,435.90879 c -3.27489,0 -7.1705,2.22607 -7.91966,9.20393 v -15.73229 h -8.32635 v 3.87421 c 1.41271,0 2.26889,0.70634 2.26889,2.11905 v 9.71763 c -0.899,-7.29893 -4.45214,-9.22533 -6.1645,-9.20393 -1.79798,0 -3.55314,1.09163 -4.08826,3.10365 v -2.65415 h -7.17049 v 4.13106 c -1.13444,-3.3391 -4.62337,-4.58056 -6.6782,-4.58056 -1.13443,0 -6.01465,0.5137 -7.42736,7.10629 -1.32708,-8.66882 -9.22532,-8.02668 -12.54302,-5.13708 -0.17124,-2.18325 -0.62073,-5.13707 -2.78258,-6.84943 -1.17724,-0.9204 -2.93242,-1.66955 -5.39393,-1.66955 h -13.07814 v 4.66617 c 2.26888,0.0214 2.35449,2.18327 2.35449,2.52574 v 14.01992 c 0,1.58394 -0.59932,2.61135 -2.37589,2.63276 v 4.64477 h 12.11494 v -4.73039 c -1.75518,-0.0214 -2.33309,-0.9632 -2.33309,-2.54714 v -3.9384 h 2.05482 c 2.46152,-0.0856 4.51635,0.21403 6.74242,-2.18327 -0.0642,0.66354 -0.23546,2.01202 -0.23546,2.69697 -0.0856,3.44611 0.32107,6.63538 2.39731,8.73302 0.0429,0.0428 2.11905,2.41871 5.56516,2.46152 1.92641,0.0214 6.29292,-0.34246 7.44877,-6.91365 0.25685,0.87759 1.66954,6.91365 7.89824,6.91365 6.27152,0 7.57719,-5.71499 7.89826,-7.47016 v 7.02067 c -0.0214,1.86219 -1.39129,2.71837 -2.24748,2.73978 v 3.85279 h 10.20995 v -3.87419 c -1.13444,-0.14983 -2.20467,-1.19866 -2.20467,-2.86821 l -0.0856,-2.69697 c 0.89898,2.46152 3.29628,3.27489 4.28089,3.27489 1.17724,0 3.85281,-0.64213 4.62337,-5.32971 v 4.7946 h 8.71162 v -4.73039 c 1.11304,7.27753 13.78449,7.1919 14.55505,-1.96921 h -6.01466 c -0.23546,1.30568 -0.81337,2.3545 -1.905,2.3545 -1.34848,0 -1.9264,-1.56253 -2.01202,-3.27489 -0.0428,-0.62073 -0.0642,-1.28427 -0.0428,-1.69095 h 10.14573 c 0.10702,-2.07624 0.21404,-5.28691 -1.32708,-8.32634 -1.22005,-2.3545 -3.57455,-4.21669 -6.91364,-4.21669 z m -67.8522,5.37253 h -1.71236 v -6.57117 h 1.69096 c 1.32707,0 2.07623,1.11303 2.07623,3.25349 0.0214,2.35447 -0.51371,3.27488 -2.05483,3.31768 z m 12.9283,2.76117 c 0.0856,-1.73376 0.68495,-3.3819 2.05483,-3.3819 1.34849,0 1.8836,1.64814 1.96921,3.3819 0.0214,0.57793 0.0429,0.62074 0,1.04883 h -4.02404 c -0.0428,-0.42809 -0.0428,-0.4495 0,-1.04883 z m 3.98124,7.02067 c -0.21405,1.30568 -0.81337,2.3545 -1.905,2.33309 -1.34848,0 -1.92641,-1.56252 -2.01202,-3.27488 -0.0428,-0.62073 -0.0642,-1.28427 -0.0428,-1.69095 h 8.90427 c 0.0214,1.02741 0.0642,1.30566 0.32106,2.61134 h -5.26549 z m 13.24937,2.39731 c -1.58393,-0.0214 -2.20466,-2.82539 -2.20466,-6.33572 0,-3.48894 0.66354,-6.35713 2.20466,-6.33574 1.58393,0.0214 2.20466,2.8254 2.20466,6.33574 0,3.51033 -0.59933,6.35712 -2.20466,6.33572 z m 15.49684,-0.0428 c -1.24145,0 -1.66955,-1.32707 -1.66955,-3.10365 v -6.48555 c -0.0642,-2.20467 0.57793,-3.25348 1.81938,-3.21067 1.28427,0.0642 2.03343,1.71235 2.03343,6.52836 0.0214,4.38792 -0.81337,6.27151 -2.18326,6.27151 z m 24.29409,-8.32634 h -4.02405 c -0.0428,-0.42809 -0.0214,-0.4709 0,-1.04882 0.0856,-1.73376 0.66354,-3.25348 2.01203,-3.25348 1.34848,0 1.9264,1.51972 2.01202,3.25348 0.0428,0.59933 0.0428,0.62073 0,1.04882 z"
     id="path4"
     style="fill:#26b0e6;fill-opacity:1;stroke-width:0.21404479"
     inkscape:connector-curvature="0"
     sodipodi:nodetypes="sccccsccccccscccsccssccccscccccccsccccccccsccccccsccccscccscccscccccccccccccscscsscccscccscc" />
</svg>
