<?xml version="1.0" encoding="UTF-8" standalone="no"?>
<svg
   xmlns:dc="http://purl.org/dc/elements/1.1/"
   xmlns:cc="http://creativecommons.org/ns#"
   xmlns:rdf="http://www.w3.org/1999/02/22-rdf-syntax-ns#"
   xmlns:svg="http://www.w3.org/2000/svg"
   xmlns="http://www.w3.org/2000/svg"
   xmlns:sodipodi="http://sodipodi.sourceforge.net/DTD/sodipodi-0.dtd"
   xmlns:inkscape="http://www.inkscape.org/namespaces/inkscape"
   width="120"
   height="60"
   viewBox="0 0 9.252288 4.626144"
   version="1.1"
   id="svg18"
   sodipodi:docname="filemaker-ar21.svg"
   inkscape:version="0.92.4 (5da689c313, 2019-01-14)">
  <metadata
     id="metadata24">
    <rdf:RDF>
      <cc:Work
         rdf:about="">
        <dc:format>image/svg+xml</dc:format>
        <dc:type
           rdf:resource="http://purl.org/dc/dcmitype/StillImage" />
        <dc:title></dc:title>
      </cc:Work>
    </rdf:RDF>
  </metadata>
  <defs
     id="defs22" />
  <sodipodi:namedview
     pagecolor="#ffffff"
     bordercolor="#666666"
     borderopacity="1"
     objecttolerance="10"
     gridtolerance="10"
     guidetolerance="10"
     inkscape:pageopacity="0"
     inkscape:pageshadow="2"
     inkscape:window-width="1920"
     inkscape:window-height="1001"
     id="namedview20"
     showgrid="false"
     inkscape:zoom="4.2720563"
     inkscape:cx="35.130491"
     inkscape:cy="52.318297"
     inkscape:window-x="-9"
     inkscape:window-y="-9"
     inkscape:window-maximized="1"
     inkscape:current-layer="svg18" />
  <g
     id="g871"
     transform="translate(-0.4421775)">
    <g
       transform="matrix(0.02295264,0,0,0.02295264,0.56032534,4.8823743)"
       id="g844">
      <path
         style="clip-rule:evenodd;fill:#236bb3;fill-rule:evenodd"
         inkscape:connector-curvature="0"
         id="path4"
         d="m 92.178,-144.34086 c 1.625,0.731 2.42,2.925 2.979,5.883 l 17.392,93.543004 -83.526,-49.204 -19.747,-73.049004 c -0.544,-2.132 1.317,-3.502 3.078,-2.942 l 34.17,11.239 c 3.863,1.245 1.915,-5.403 4.843,-4.518 l 25.689,7.746 c 2.544,0.917 1.52,6.492 4.08,7.626 z" />
      <path
         style="clip-rule:evenodd;fill:#eebd31;fill-rule:evenodd"
         inkscape:connector-curvature="0"
         id="path6"
         d="m 136.512,-156.22386 -87.8,-22.644 c -1.699,-0.397 -2.802,0.445 -3.417,2.415 l -4.097,15.831 5.325,1.752 c 3.863,1.245 1.915,-5.403 4.843,-4.518 l 25.689,7.746 c 2.544,0.917 1.52,6.492 4.08,7.626 l 11.042,3.675 c 1.625,0.731 2.42,2.925 2.979,5.883 l 17.388,93.516004 0.01,0.016 26.523,-106.202004 c 0.493,-2.318 -0.706,-4.527 -2.565,-5.096 z" />
      <path
         style="clip-rule:evenodd;fill:#c9d3eb;fill-rule:evenodd"
         inkscape:connector-curvature="0"
         id="path8"
         d="m 186.252,-80.619856 -60.047,-18.969 -13.65,54.662 -0.01,-0.016 0.004,0.027 76.779,-32.961 c 1.832,-1.007 -0.963,-1.884 -3.076,-2.743 z" />
    </g>
    <g
       transform="matrix(1.2319439,0,0,1.2319439,-1.0828216,-0.48049464)"
       id="g862">
      <path
         style="clip-rule:evenodd;fill:#236bb3;fill-rule:evenodd;stroke-width:0.02295264"
         inkscape:connector-curvature="0"
         id="path10"
         d="M 5.068298,1.8933771 H 4.668463 V 2.6319242 H 4.7761109 V 2.294245 H 5.068298 V 2.1976373 H 4.7761109 V 1.9899848 H 5.068298 Z m 0.1848835,0.1038607 c 0,-0.031835 -0.026373,-0.058185 -0.058231,-0.058185 -0.031858,0 -0.058208,0.02635 -0.058208,0.058185 0,0.031881 0.02635,0.058231 0.058208,0.058231 0.031858,0 0.058231,-0.02635 0.058231,-0.058231 z m -0.00989,0.1450148 h -0.097755 v 0.4896716 h 0.097755 z M 5.4329466,1.8933771 h -0.097778 v 0.7385471 h 0.097778 z m 0.502548,0.5957358 c -0.057129,0.037344 -0.1131565,0.05931 -0.1724661,0.05931 -0.094473,0 -0.1505005,-0.050473 -0.1658558,-0.1482511 h 0.3470898 c 0,-0.1823587 -0.083479,-0.2713002 -0.214194,-0.2713002 -0.1362239,0 -0.230674,0.1009916 -0.230674,0.2504133 0,0.1362469 0.085682,0.2625553 0.2394648,0.2625553 0.083456,0 0.1373027,-0.018638 0.1966124,-0.058277 v -0.09445 z M 5.5933855,2.3353532 c 0.013198,-0.077947 0.058254,-0.1219015 0.1329417,-0.1219015 0.069202,0 0.1120318,0.047214 0.115337,0.1219015 z M 6.6603849,1.8933771 H 6.5604032 L 6.3365461,2.2096875 6.1146629,1.8933771 H 6.0136024 V 2.6319242 H 6.1212503 V 2.0768146 h 0.00223 L 6.3277782,2.3667753 H 6.345337 L 6.5505336,2.0768146 h 0.00218 v 0.5551096 h 0.1076708 z m 0.4812709,0.6506844 c -0.021966,0.016457 -0.041728,0.026304 -0.051643,0.026304 -0.01205,0 -0.018637,-0.00659 -0.018637,-0.025248 V 2.2914218 c 0,-0.1120777 -0.079118,-0.1625965 -0.1790536,-0.1625965 -0.071383,0 -0.1252525,0.021966 -0.1636523,0.066976 v 0.1065691 c 0.047237,-0.056027 0.1021163,-0.081275 0.1559402,-0.081275 0.05931,0 0.089033,0.025248 0.089033,0.086738 v 0.02635 l -0.08683,0.030802 c -0.079072,0.028507 -0.1680363,0.058231 -0.1680363,0.1559632 0,0.063694 0.048315,0.1208686 0.1208457,0.1208686 0.04501,0 0.090066,-0.016503 0.1328728,-0.050565 0.00884,0.03514 0.031881,0.050565 0.074734,0.050565 0.030756,0 0.04944,-0.00879 0.09445,-0.038469 v -0.059287 z m -0.1680133,-0.01205 c -0.026396,0.025248 -0.054972,0.04058 -0.085751,0.04058 -0.04058,0 -0.070258,-0.028507 -0.070258,-0.069179 0,-0.058231 0.072507,-0.086738 0.1560091,-0.115337 z M 7.2800832,1.8933771 h -0.097732 v 0.7385471 h 0.097732 z M 7.6194839,2.1387179 H 7.5030681 l -0.218578,0.2416684 0.2471311,0.2515379 h 0.13184 L 7.408618,2.3803863 Z" />
      <path
         style="clip-rule:evenodd;fill:#236bb3;fill-rule:evenodd;stroke-width:0.02295264"
         inkscape:connector-curvature="0"
         id="path12"
         d="m 8.0553316,2.4891129 c -0.057106,0.037344 -0.1131106,0.05931 -0.1724661,0.05931 -0.09445,0 -0.1505005,-0.050473 -0.1658329,-0.1482511 h 0.3471128 c 0,-0.1823587 -0.083525,-0.2713002 -0.2142399,-0.2713002 -0.136201,0 -0.230697,0.1009916 -0.230697,0.2504133 0,0.1362469 0.085705,0.2625553 0.2394878,0.2625553 0.083525,0 0.1373027,-0.018638 0.1966123,-0.058277 v -0.09445 z M 7.7192361,2.3353532 C 7.732365,2.257406 7.777421,2.2134517 7.8521548,2.2134517 c 0.069133,0 0.1119859,0.047214 0.1152911,0.1219015 z m 0.401763,-0.1966353 v 0.4932063 h 0.097778 V 2.3737529 c 0,-0.084557 0.052676,-0.1515792 0.119744,-0.1515792 0.023044,0 0.061467,0.019762 0.091145,0.048315 l 0.051597,-0.084557 c -0.040626,-0.038423 -0.077947,-0.057106 -0.1175404,-0.057106 -0.046089,0 -0.093326,0.036219 -0.1427884,0.1229573 h -0.00216 V 2.138672 h -0.097778 z"
         sodipodi:nodetypes="csccsssccccscccccssccsccccc" />
    </g>
  </g>
</svg>
