<?xml version="1.0" encoding="UTF-8" standalone="no"?>
<svg
   xmlns:dc="http://purl.org/dc/elements/1.1/"
   xmlns:cc="http://creativecommons.org/ns#"
   xmlns:rdf="http://www.w3.org/1999/02/22-rdf-syntax-ns#"
   xmlns:svg="http://www.w3.org/2000/svg"
   xmlns="http://www.w3.org/2000/svg"
   xmlns:sodipodi="http://sodipodi.sourceforge.net/DTD/sodipodi-0.dtd"
   xmlns:inkscape="http://www.inkscape.org/namespaces/inkscape"
   id="Layer_1"
   data-name="Layer 1"
   viewBox="0 0 64 64"
   version="1.1"
   sodipodi:docname="creativecommons-icon.svg"
   width="64"
   height="64"
   inkscape:version="0.92.3 (2405546, 2018-03-11)">
  <metadata
     id="metadata52">
    <rdf:RDF>
      <cc:Work
         rdf:about="">
        <dc:format>image/svg+xml</dc:format>
        <dc:type
           rdf:resource="http://purl.org/dc/dcmitype/StillImage" />
        <dc:title>logo</dc:title>
      </cc:Work>
    </rdf:RDF>
  </metadata>
  <sodipodi:namedview
     pagecolor="#ffffff"
     bordercolor="#666666"
     borderopacity="1"
     objecttolerance="10"
     gridtolerance="10"
     guidetolerance="10"
     inkscape:pageopacity="0"
     inkscape:pageshadow="2"
     inkscape:window-width="1920"
     inkscape:window-height="1001"
     id="namedview50"
     showgrid="false"
     inkscape:zoom="9.04"
     inkscape:cx="58.665137"
     inkscape:cy="17.849058"
     inkscape:window-x="-9"
     inkscape:window-y="-9"
     inkscape:window-maximized="1"
     inkscape:current-layer="Layer_1" />
  <defs
     id="defs4">
    <style
       id="style2">
      .cls-1 {
        fill: #1a1a1a;
      }
    </style>
  </defs>
  <title
     id="title6">logo</title>
  <g
     id="g922"
     transform="matrix(3.2653061,0,0,3.2653061,-39.157665,-146.58046)">
    <path
       style="fill:#1a1a1a;fill-opacity:1"
       id="path34-9"
       d="m 21.792035,46.690265 c 2.2,0 4.2,0.8 5.7,2.3 1.5,1.5 2.3,3.5 2.3,5.6 0,2.2 -0.8,4.1 -2.3,5.6 -1.6,1.5 -3.6,2.4 -5.7,2.4 -2.1,0 -4.1,-0.8 -5.6,-2.3 -1.5,-1.5 -2.4,-3.5 -2.4,-5.6 0,-2.1 0.9,-4.1 2.4,-5.7 1.4,-1.5 3.4,-2.3 5.6,-2.3 z m -0.1,-1.8 c -2.7,0 -5,1 -6.8,2.8 -1.9,2 -2.9,4.4 -2.9,7 0,2.6 1,5 2.9,6.9 1.9,1.9 4.3,2.9 6.9,2.9 2.6,0 5.1,-1 7,-2.9 1.8,-1.8 2.8,-4.2 2.8,-6.8 0,-2.7 -1,-5.1 -2.8,-6.9 -2,-2 -4.4,-3 -7.1,-3 z"
       class="st0"
       inkscape:connector-curvature="0" />
    <path
       style="fill:#1a1a1a;fill-opacity:1"
       id="path36-3"
       d="m 21.592035,53.090265 c -0.6,-1 -1.5,-1.4 -2.6,-1.4 -1.6,0 -2.9,1.1 -2.9,3 0,1.9 1.2,3 2.9,3 1.1,0 2,-0.6 2.6,-1.5 l -1.2,-0.6 c -0.3,0.6 -0.7,0.8 -1.2,0.8 -0.9,0 -1.3,-0.7 -1.3,-1.7 0,-1 0.3,-1.7 1.3,-1.7 0.2,0 0.8,0.2 1.1,0.8 z"
       class="st0"
       inkscape:connector-curvature="0" />
    <path
       style="fill:#1a1a1a;fill-opacity:1"
       id="path38-8"
       d="m 27.292035,53.090265 c -0.6,-1 -1.5,-1.4 -2.6,-1.4 -1.6,0 -2.9,1.1 -2.9,3 0,1.9 1.2,3 2.9,3 1.1,0 2,-0.6 2.6,-1.5 l -1.2,-0.6 c -0.3,0.6 -0.7,0.8 -1.2,0.8 -0.9,0 -1.3,-0.7 -1.3,-1.7 0,-1 0.3,-1.7 1.3,-1.7 0.2,0 0.8,0.2 1.1,0.8 z"
       class="st0"
       inkscape:connector-curvature="0" />
  </g>
</svg>
