<svg xmlns="http://www.w3.org/2000/svg" width="120" height="60"><path d="M50.875 15.62h4.507c3.15 0 4.747 1.077 4.747 3.242v5.026c0 2.034-1.595 3.07-4.747 3.07h-4.507zm4.387 10.172c2.154 0 3.242-.64 3.242-1.965V18.84c0-.4-.08-.756-.28-1.077a1.41 1.41 0 0 0-.717-.639c-.318-.12-.64-.2-.957-.28a9.56 9.56 0 0 0-1.197-.079h-2.792v8.975h2.71zm7.3-10.33h1.556v1.636h-1.556zm0 3.032h1.556v8.416h-1.556zM67.15 30.58v-1.117l3.032.24c.798 0 1.395-.12 1.756-.4s.558-.688.558-1.277v-2.034c-.04.36-.28.64-.756.838-.592.192-1.212.286-1.835.28-.877 0-1.556-.08-2.034-.24s-.838-.44-1.037-.798-.32-.877-.32-1.516v-3.43c0-.997.28-1.715.798-2.154.558-.44 1.436-.64 2.672-.64 1.476 0 2.313.32 2.593.997v-.838h1.476v9.215c0 .756-.16 1.395-.44 1.835s-.717.756-1.316.918c-.59.2-1.316.28-2.273.28-.96.037-1.92-.016-2.87-.16zm4.826-4.826c.32-.2.52-.558.52-1.117v-3.83c0-.4-.08-.688-.2-.877s-.36-.36-.688-.44-.798-.12-1.436-.12c-.59 0-1.037.04-1.316.12s-.52.24-.59.44c-.12.2-.16.478-.16.877v3.83c0 .4.04.688.16.877s.32.32.64.4.756.12 1.356.12c.798.04 1.395-.08 1.715-.28zm4.777-10.292h1.556v1.636h-1.556zm0 3.032h1.556v8.416h-1.556zm6.153 8.377c-.4-.16-.717-.44-.877-.798-.2-.36-.28-.918-.28-1.595V19.53h-1.874v-1.037h1.874V15.9h1.586v2.593h3.032v1.037h-3.032v5.026c0 .4.04.717.16.957.08.2.28.36.52.44s.59.12 1.077.12c.16 0 .558-.04 1.238-.12v1.037a13.43 13.43 0 0 1-1.756.12c-.717 0-1.277-.08-1.675-.24zm5.865 0c-.44-.16-.756-.4-.957-.798s-.28-.918-.28-1.636c0-.64.08-1.117.28-1.476s.478-.59.918-.756 1.037-.24 1.835-.24h2.513V20.61c0-.32-.08-.558-.2-.717s-.32-.28-.59-.36-.717-.12-1.238-.12c-.877 0-1.835.08-2.87.2v-1.157a30.08 30.08 0 0 1 3.111-.159c.957 0 1.675.08 2.154.2.478.16.798.4.957.756s.28.918.28 1.675v5.943h-1.516v-.798c-.12.64-.957.957-2.554.957-.756.08-1.395 0-1.835-.16zm2.114-.798c.558 0 1.037-.04 1.436-.12.52-.12.798-.36.798-.717V22.92h-2.436c-.52 0-.877.04-1.077.12a.61.61 0 0 0-.439.439c-.08.2-.12.558-.12.997 0 .4.04.756.12.957.066.218.227.394.44.478.2.08.52.16.957.16zm6.54-11.327h1.556V26.91h-1.556zM50.875 33.73h3.988c.997 0 1.795.08 2.354.2s.957.36 1.238.64c.28.32.4.756.4 1.356v1.965c0 .688-.28 1.197-.838 1.556s-1.238.558-2.114.558l3.63 5.026h-2.114L54.176 40.2H52.54v4.826h-1.675zm3.87 5.344c.838 0 1.436-.12 1.795-.32s.558-.558.558-1.117V36.08c0-.838-.717-1.277-2.194-1.277H52.55v4.228h2.194zm8.892 6.065c-.392-.046-.77-.168-1.117-.36-.386-.147-.69-.452-.838-.838-.19-.496-.286-1.024-.28-1.556v-2.952c0-.52.08-.997.2-1.356.12-.4.28-.717.52-.918.16-.2.44-.36.798-.478s.717-.2 1.077-.2c.4-.04.838-.04 1.316-.04l1.356.04c.32.04.64.08.997.2s.64.28.838.478.36.52.52.918c.12.4.2.877.2 1.395v2.912c0 .997-.24 1.715-.688 2.154-.2.2-.44.32-.798.44s-.717.16-1.077.2c-.44.04-.877.04-1.316.04-.573.002-1.145-.024-1.715-.08zm2.753-.997c.24-.04.44-.08.64-.2.2-.08.36-.24.44-.478.08-.2.12-.52.12-.877v-3.43c0-.52-.08-.918-.2-1.157s-.36-.4-.64-.478c-.32-.08-.798-.12-1.436-.12s-1.117.04-1.436.12-.52.24-.64.478-.2.59-.2 1.157v3.43c0 .4.04.688.12.877s.24.36.44.478.44.16.64.2c.24.04.558.04 1.077.04l1.077-.04zm4.947.837v-1.186c1.356.24 2.313.32 2.912.32.756 0 1.277-.08 1.595-.2.314-.135.507-.457.478-.798v-.877c0-.36-.12-.59-.36-.756s-.64-.24-1.197-.24h-.957c-.877 0-1.516-.2-1.994-.558-.44-.36-.688-.877-.688-1.516v-.798c0-1.316 1.238-1.994 3.75-1.994l2.554.12v1.108c-1.037-.16-1.916-.24-2.633-.24-.838 0-1.395.08-1.675.24-.32.16-.44.44-.44.838v.717c0 .558.52.838 1.556.838h.957c1.795 0 2.672.688 2.672 1.994v.717c0 .877-.32 1.476-.918 1.835s-1.516.558-2.753.558c-.877.12-1.835.04-2.87-.12zm8.416-2.365v-3.31c0-1.037.28-1.756.877-2.194s1.516-.688 2.832-.688c1.238 0 2.154.2 2.672.64.558.44.838 1.157.838 2.234v1.874H81.31v1.277c0 .59.2.997.59 1.238s1.037.4 1.874.4c.798 0 1.756-.12 2.832-.4v1.197c-1.077.24-2.063.36-3.032.36-2.554-.04-3.83-.918-3.83-2.633zm5.664-2.473v-1.316c0-.52-.16-.877-.478-1.037-.32-.2-.838-.28-1.556-.28s-1.238.08-1.556.28-.478.558-.478 1.037v1.316zm5.783 4.827c-.4-.16-.717-.44-.877-.798-.2-.36-.28-.918-.28-1.595V37.63H88.17v-1.028h1.874v-2.593h1.595v2.593h3.032v1.037H91.64v5.026c0 .4.04.717.16.957.08.2.28.36.52.44s.59.12 1.077.12c.16 0 .558-.04 1.238-.12v1.037a13.43 13.43 0 0 1-1.756.12c-.688 0-1.277-.08-1.675-.24zm7.02.01c-.4-.16-.717-.44-.877-.798-.2-.36-.28-.918-.28-1.595V37.64h-1.874v-1.037h1.874v-2.593h1.593v2.593h3.032v1.037H98.66v5.026c0 .4.04.717.16.957.08.2.28.36.52.44s.59.12 1.077.12c.16 0 .558-.04 1.238-.12v1.037a13.43 13.43 0 0 1-1.756.12c-.717 0-1.277-.08-1.675-.24zm5.863 0c-.44-.16-.756-.4-.957-.798s-.28-.918-.28-1.636c0-.64.08-1.117.28-1.476s.478-.59.918-.756 1.037-.24 1.835-.24h2.513v-1.356c0-.32-.08-.558-.2-.717s-.32-.28-.59-.36-.717-.12-1.238-.12c-.877 0-1.835.08-2.87.2v-1.16a30.08 30.08 0 0 1 3.111-.159c.957 0 1.675.08 2.154.2.478.16.798.4.957.756s.28.918.28 1.675v5.992h-1.503v-.798c-.12.64-.957.957-2.554.957-.756.04-1.395-.04-1.835-.2zm2.114-.798c.558 0 1.037-.04 1.436-.12.52-.12.798-.36.798-.717V41.03H106c-.52 0-.877.04-1.077.12a.61.61 0 0 0-.439.439c-.08.2-.12.558-.12.997 0 .4.04.756.12.957.066.218.227.394.44.478.2.08.52.16.957.16z" fill="#0b476f"/><g transform="matrix(1.200176 0 0 1.200176 -9.898126 -9.684951)"><path d="M41.262 27.75h-5.475a2.31 2.31 0 0 0-2.304-2.304c-1.102 0-2.003.768-2.237 1.77H16.99c0-.134.033-.3.067-.5l.1-1.436c0-.6.1-.8.634-1.235.234-.234.7-.6.968-.835.6-.5.935-.868 1.37-1.37.134-.2.434-.434.634-.6l.835-.6c1.135-.935 2.504-1.736 3.673-2.17.4-.134.868-.334 1.068-.434s.735-.3 1.17-.434 1.035-.4 1.335-.5l.968-.3c.234-.033.7-.2.935-.234.5-.2 1.803-.4 2.47-.4l1.87.033c2.003.1 2.27.134 2.638 1.035.3.6.6 1.97 1.068 4.407.134.835.434 1.77.634 2.204l.4.868.735 1.57c.367.668.668 1.302.7 1.47z" fill="#126a9b"/><path d="M42.263 42.842l-.735.868c-.835 1.17-1.235 1.57-2.604 2.604l-2.938 2.003c-1.436.735-1.636.8-2.704.835l-1.37.134c-.2.033-.8.1-1.27.134l-3.873.434a3.6 3.6 0 0 1-1.27.1c-.434 0-.935-.033-1.135-.1-.234-.033-.534-.033-1.068.033l-3.773.033c-.434-.033-1.47-.334-1.87-.534-.3-.134-.534-.434-.7-.835-.033-.134-.134-.334-.234-.534-.134-.234-.134-.334-.134-1.035 0-.4.033-.968.1-1.235.033-.334.033-.735 0-1.235-.1-.668-.1-1.27-.1-1.703h4.04l3.205-1.903v-.033h7.378c.234 1.002 1.135 1.77 2.237 1.77a2.31 2.31 0 0 0 2.304-2.304h7l.067 1.27c.033.6-.033.7-.568 1.235z" fill="#0b476f"/><g fill="#0f5a84"><circle r="1.169" cy="35.564" cx="25.536"/><circle r="1.169" cy="40.405" cx="33.416"/><circle r="1.169" cy="27.751" cx="33.449"/><path d="M42.73 38.87l-.1-4.073-.033-1.77-.033-1.135c-.033-1.035-.1-1.068-.334-1.736l-.434-1.135c-.1-.3-.2-.6-.3-.735-.033-.134-.134-.367-.2-.534H35.82a2.31 2.31 0 0 1-2.304 2.304c-1.102 0-2.003-.768-2.237-1.77H17.023c.1.668.067 2.638 0 4.107-.033.8-.033 1.068.033 1.536.1.5.1.534 0 .868-.033.067-.033.134-.067.2h6.377c.267-1.002 1.17-1.736 2.237-1.736a2.31 2.31 0 0 1 2.304 2.304 2.31 2.31 0 0 1-2.304 2.304 2.33 2.33 0 0 1-2.27-1.803h-6.4c0 .067 0 .134.033.167.1.935.1 1.47-.033 3.74 0 .134 0 .234-.033.367l-.1 1.436h3.873l2.304-1.436.868-.534h7.378c.234-1.002 1.135-1.77 2.237-1.77a2.31 2.31 0 0 1 2.304 2.304h7l-.033-1.47z"/></g></g></svg>