<svg xmlns="http://www.w3.org/2000/svg" width="64" height="64">
    <path fill="#126a9b" d="M53.72 21.927H43.353a4.373 4.373 0 0 0-4.361-4.361 4.35 4.35 0 0 0-4.235 3.352H7.766c0-.254.062-.568.128-.948l.188-2.72c0-1.134.19-1.514 1.2-2.338.444-.442 1.326-1.136 1.833-1.58 1.136-.945 1.77-1.643 2.594-2.593.254-.38.822-.822 1.2-1.136l1.58-1.136c2.15-1.77 4.741-3.288 6.955-4.11a18 18 0 0 0 2.022-.82c.38-.19 1.392-.57 2.215-.821.824-.254 1.96-.76 2.528-.948l1.832-.568c.444-.062 1.326-.38 1.772-.442C34.759.378 37.226 0 38.488 0l3.54.062c3.793.19 4.3.254 4.995 1.96.568 1.136 1.136 3.73 2.022 8.343.254 1.58.822 3.351 1.2 4.173l.76 1.644 1.39 2.972c.693 1.266 1.263 2.465 1.325 2.783z" style="stroke-width:1.89326"/>
    <path fill="#0b476f" d="m55.614 50.5-1.392 1.644c-1.58 2.216-2.338 2.973-4.93 4.931l-5.56 3.792c-2.72 1.392-3.1 1.514-5.12 1.58l-2.594.254c-.38.064-1.515.19-2.405.254l-7.333.821a6.8 6.8 0 0 1-2.404.19c-.82 0-1.77-.064-2.148-.19-.444-.062-1.012-.062-2.024.062l-7.143.064c-.82-.064-2.781-.633-3.54-1.011-.567-.254-1.011-.82-1.325-1.58-.062-.254-.254-.634-.442-1.012C7 59.855 7 59.667 7 58.339c0-.758.062-1.832.188-2.34a14 14 0 0 0 0-2.335C7 52.398 7 51.258 7 50.438h7.649l6.067-3.602v-.064h13.969a4.35 4.35 0 0 0 4.235 3.352 4.373 4.373 0 0 0 4.361-4.361h13.253l.128 2.403c.062 1.136-.062 1.326-1.076 2.34z" style="stroke-width:1.89326"/>
    <g fill="#0f5a84" transform="matrix(1.89326 0 0 1.89328 -24.4 -30.61)">
        <circle cx="25.536" cy="35.564" r="1.169"/>
        <circle cx="33.416" cy="40.405" r="1.169"/>
        <circle cx="33.449" cy="27.751" r="1.169"/>
        <path d="m42.73 38.87-.1-4.073-.033-1.77-.033-1.135c-.033-1.035-.1-1.068-.334-1.736l-.434-1.135c-.1-.3-.2-.6-.3-.735-.033-.134-.134-.367-.2-.534H35.82a2.31 2.31 0 0 1-2.304 2.304 2.296 2.296 0 0 1-2.237-1.77H17.023c.1.668.067 2.638 0 4.107-.033.8-.033 1.068.033 1.536.1.5.1.534 0 .868-.033.067-.033.134-.067.2h6.377a2.325 2.325 0 0 1 2.237-1.736 2.31 2.31 0 0 1 2.304 2.304 2.31 2.31 0 0 1-2.304 2.304 2.33 2.33 0 0 1-2.27-1.803h-6.4c0 .067 0 .134.033.167.1.935.1 1.47-.033 3.74 0 .134 0 .234-.033.367l-.1 1.436h3.873l2.304-1.436.868-.534h7.378a2.296 2.296 0 0 1 2.237-1.77 2.31 2.31 0 0 1 2.304 2.304h7z"/>
    </g>
</svg>
