<?xml version="1.0" encoding="UTF-8" standalone="no"?>
<svg
   xmlns:dc="http://purl.org/dc/elements/1.1/"
   xmlns:cc="http://creativecommons.org/ns#"
   xmlns:rdf="http://www.w3.org/1999/02/22-rdf-syntax-ns#"
   xmlns:svg="http://www.w3.org/2000/svg"
   xmlns="http://www.w3.org/2000/svg"
   xmlns:sodipodi="http://sodipodi.sourceforge.net/DTD/sodipodi-0.dtd"
   xmlns:inkscape="http://www.inkscape.org/namespaces/inkscape"
   viewBox="0 0 64 63.999999"
   version="1.1"
   id="svg6"
   sodipodi:docname="scylla-icon.svg"
   width="64"
   height="64"
   inkscape:version="0.92.3 (2405546, 2018-03-11)">
  <metadata
     id="metadata12">
    <rdf:RDF>
      <cc:Work
         rdf:about="">
        <dc:format>image/svg+xml</dc:format>
        <dc:type
           rdf:resource="http://purl.org/dc/dcmitype/StillImage" />
        <dc:title></dc:title>
      </cc:Work>
    </rdf:RDF>
  </metadata>
  <defs
     id="defs10" />
  <sodipodi:namedview
     pagecolor="#ffffff"
     bordercolor="#666666"
     borderopacity="1"
     objecttolerance="10"
     gridtolerance="10"
     guidetolerance="10"
     inkscape:pageopacity="0"
     inkscape:pageshadow="2"
     inkscape:window-width="1920"
     inkscape:window-height="1001"
     id="namedview8"
     showgrid="false"
     inkscape:zoom="7.5083054"
     inkscape:cx="56.940344"
     inkscape:cy="16.646176"
     inkscape:window-x="-9"
     inkscape:window-y="-9"
     inkscape:window-maximized="1"
     inkscape:current-layer="svg6" />
  <g
     transform="matrix(0.93116715,0,0,0.93116715,6.1135532,-0.06518176)"
     id="g36">
    <path
       style="fill:#57d1e5;stroke:#3b2d55;stroke-width:1.25999999;stroke-linecap:round;stroke-linejoin:round"
       inkscape:connector-curvature="0"
       d="m 15.3,63.5 c 0.4,2.1 -0.9,4.1 -3,4.6 -2.1,0.4 -4.1,-0.9 -4.6,-3 C 7.7,65.1 0.6,31.8 0.6,25 0.6,10.8 11.9,0.7 27.8,0.7 43.7,0.7 55,10.7 55,24.9 55,31.7 47.9,65 47.9,65 c -0.4,2.1 -2.4,3.5 -4.5,3.1 -2.1,-0.4 -3.5,-2.4 -3.1,-4.5"
       id="path4-4" />
    <path
       style="fill:#57d1e5"
       inkscape:connector-curvature="0"
       d="M 46.2,54 44.3,64.8 C 44,66.9 42,68.4 39.9,68.1 37.8,67.8 36.3,65.8 36.6,63.7"
       id="path6" />
    <path
       style="fill:#3b2d55"
       inkscape:connector-curvature="0"
       d="m 46.6,54 -0.9,5.7 -0.5,2.8 -0.2,1.5 -0.3,1.5 c -0.7,2.4 -3.2,3.7 -5.6,3 -1,-0.3 -1.8,-0.9 -2.4,-1.7 -0.6,-0.9 -0.9,-2.1 -0.7,-3.2 0,-0.3 0.4,-0.6 0.7,-0.5 0.3,0 0.6,0.4 0.5,0.7 -0.2,1.7 0.9,3.2 2.6,3.5 1.6,0.3 3.3,-0.6 3.8,-2.2 0.1,-0.3 0.2,-0.9 0.3,-1.3 l 0.3,-1.4 0.5,-2.8 c 0.4,-1.9 0.7,-3.8 1.1,-5.6 0.1,-0.2 0.3,-0.3 0.5,-0.3 0.2,0 0.3,0.2 0.3,0.3 z"
       id="path8" />
    <circle
       style="fill:#ffffff;stroke:#3b2d55;stroke-width:1.25999999;stroke-linecap:round;stroke-linejoin:round"
       cx="18.6"
       cy="22.4"
       r="12.1"
       id="circle10" />
    <path
       style="fill:#3b2d55"
       inkscape:connector-curvature="0"
       d="m 21.1,14.4 c -2.1,0.4 -2.5,5 -1.3,6.3 0.8,0.8 2.5,1.1 2.5,1.7 0,0.6 -1.7,0.9 -2.5,1.7 -1.3,1.3 -0.8,5.9 1.3,6.3 2.5,0.5 6.3,-2.5 6.3,-8 0,-5.5 -3.8,-8.5 -6.3,-8 z"
       id="path12" />
    <path
       style="fill:#ffffff;stroke:#3b2d55;stroke-width:1.04999995;stroke-linecap:round;stroke-linejoin:round"
       inkscape:connector-curvature="0"
       d="m 12.8,38.7 c 0.4,1.3 1.7,3.3 3.4,2.9 0.8,-0.2 1.3,-1.3 1.3,-2.9"
       id="path14" />
    <path
       style="fill:#ffffff;stroke:#3b2d55;stroke-width:1.25999999;stroke-linecap:round;stroke-linejoin:round"
       inkscape:connector-curvature="0"
       d="m 23.6,37.9 c 0.4,1.7 0.8,2.9 2.1,2.9 1.3,0 2.9,-1.7 2.5,-4.6"
       id="path16" />
    <path
       style="fill:#3b2d55"
       inkscape:connector-curvature="0"
       d="m 10.3,37.8 c 8.1,1.2 16.3,-0.8 23,-5.4 0.3,-0.1 0.7,0 0.8,0.3 0.1,0.2 0.1,0.5 -0.1,0.7 -7,4.8 -15.5,6.7 -23.9,5.5 -0.3,-0.1 -0.4,-0.4 -0.3,-0.7 0.2,-0.3 0.3,-0.4 0.5,-0.4 z m 24,-3.5 C 34.1,33.2 33.1,32.3 32,32.2 31.7,32.3 31.3,32.1 31.3,31.7 31.2,31.4 31.4,31 31.8,31 h 0.4 c 1.6,0.3 2.8,1.6 3,3.2 0,0.2 -0.2,0.4 -0.4,0.4 -0.3,0.1 -0.5,-0.1 -0.5,-0.3 z"
       id="path18" />
    <path
       style="fill:#57d1e5"
       inkscape:connector-curvature="0"
       d="m 19,63.7 c 0.3,2.1 -1.1,4.1 -3.3,4.4 -2.1,0.3 -4.1,-1.1 -4.4,-3.3 L 9.5,54"
       id="path20" />
    <path
       style="fill:#3b2d55"
       inkscape:connector-curvature="0"
       d="m 19.7,63.6 c 0.3,2.5 -1.5,4.7 -3.9,5 -2.2,0.3 -4.2,-1.1 -4.8,-3.1 L 10.7,64 10.5,62.6 10.1,59.8 C 9.6,57.8 9.3,55.9 9,54 c 0,-0.2 0.2,-0.4 0.4,-0.4 0.2,0 0.4,0.1 0.4,0.3 0.4,1.9 0.8,3.7 1.1,5.6 l 0.6,2.8 0.3,1.4 c 0.1,0.5 0.2,1 0.3,1.3 0.5,1.6 2.1,2.6 3.8,2.2 1.6,-0.4 2.7,-1.9 2.5,-3.5 0,-0.3 0.2,-0.7 0.5,-0.7 0.4,-0.1 0.7,0.2 0.8,0.6 z"
       id="path22" />
    <path
       style="fill:#57d1e5"
       inkscape:connector-curvature="0"
       d="m 24.6,63.9 c 0.1,2.1 -1.5,4 -3.7,4.1 -2,0.1 -3.8,-1.4 -4,-3.4 L 15.7,53.8"
       id="path24" />
    <path
       style="fill:#3b2d55"
       inkscape:connector-curvature="0"
       d="m 25.3,63.9 c 0.1,2.5 -1.8,4.6 -4.3,4.7 -2.2,0.1 -4.1,-1.3 -4.6,-3.4 -0.1,-0.5 -0.2,-1 -0.2,-1.5 l -0.1,-1.4 -0.3,-2.8 c -0.2,-1.9 -0.4,-3.8 -0.5,-5.7 0,-0.2 0.2,-0.4 0.4,-0.4 0.2,0 0.4,0.1 0.4,0.3 l 0.8,5.7 0.4,2.8 0.2,1.4 c 0.1,0.5 0.1,1 0.2,1.3 0.4,1.6 2,2.7 3.6,2.4 1.6,-0.3 2.8,-1.7 2.8,-3.4 0,-0.3 0.3,-0.6 0.7,-0.6 0.2,0.1 0.4,0.3 0.5,0.6 z"
       id="path26" />
    <path
       style="fill:#57d1e5"
       inkscape:connector-curvature="0"
       d="m 39.9,53.7 -1.2,10.9 c -0.2,2.1 -2,3.7 -4.2,3.5 -2.1,-0.2 -3.7,-2 -3.5,-4.2"
       id="path28" />
    <path
       style="fill:#3b2d55"
       inkscape:connector-curvature="0"
       d="m 40.4,53.7 c -0.1,1.9 -0.3,3.8 -0.5,5.7 l -0.3,2.8 -0.1,1.4 c 0,0.5 -0.1,1 -0.2,1.5 -0.3,1.1 -0.9,2 -1.9,2.7 -2.1,1.4 -4.8,0.9 -6.2,-1.2 -0.6,-0.8 -0.8,-1.8 -0.8,-2.8 0.1,-0.3 0.4,-0.6 0.7,-0.5 0.3,0 0.5,0.3 0.5,0.6 -0.1,1.7 1.1,3.1 2.8,3.4 1.6,0.2 3.2,-0.8 3.6,-2.4 l 0.2,-1.3 0.2,-1.4 0.4,-2.8 c 0.2,-1.9 0.5,-3.8 0.8,-5.7 0.1,-0.2 0.3,-0.4 0.5,-0.3 0.1,0 0.2,0.1 0.3,0.3 z"
       id="path30" />
    <path
       style="fill:#57d1e5"
       inkscape:connector-curvature="0"
       d="m 32,53.3 -0.3,10.9 c 0,2.1 -1.7,3.9 -3.9,3.9 -2.1,0 -3.9,-1.7 -3.9,-3.9 L 23.6,53.3"
       id="path32" />
    <path
       style="fill:#3b2d55"
       inkscape:connector-curvature="0"
       d="m 32.4,53.4 c 0,2.8 0,5.6 -0.1,8.4 v 2.1 c 0,0.8 -0.1,1.6 -0.5,2.3 -1.1,2.2 -3.9,3.1 -6.1,1.9 -1.2,-0.6 -2.1,-1.8 -2.3,-3.1 -0.1,-0.4 -0.1,-0.8 -0.1,-1.2 v -2.1 l -0.1,-8.4 c 0,-0.2 0.2,-0.4 0.4,-0.4 0.2,0 0.4,0.2 0.4,0.4 0.2,2.8 0.3,5.6 0.4,8.4 l 0.1,2.1 c 0,0.3 0,0.6 0.1,0.9 0.1,0.3 0.2,0.6 0.3,0.8 0.9,1.6 2.8,2.2 4.4,1.3 0.6,-0.3 1,-0.8 1.3,-1.3 l 0.3,-0.8 C 31,64.4 31,64.1 31,63.8 l 0.1,-2.1 c 0.1,-2.8 0.2,-5.6 0.4,-8.4 0,-0.2 0.2,-0.4 0.4,-0.4 0.4,0 0.5,0.2 0.5,0.5 z"
       id="path34" />
  </g>
</svg>
