<?xml version="1.0" encoding="UTF-8" standalone="no"?>
<!-- Generator: Adobe Illustrator 19.1.0, SVG Export Plug-In . SVG Version: 6.00 Build 0)  -->

<svg
   xmlns:dc="http://purl.org/dc/elements/1.1/"
   xmlns:cc="http://creativecommons.org/ns#"
   xmlns:rdf="http://www.w3.org/1999/02/22-rdf-syntax-ns#"
   xmlns:svg="http://www.w3.org/2000/svg"
   xmlns="http://www.w3.org/2000/svg"
   xmlns:sodipodi="http://sodipodi.sourceforge.net/DTD/sodipodi-0.dtd"
   xmlns:inkscape="http://www.inkscape.org/namespaces/inkscape"
   version="1.1"
   id="Layer_1"
   x="0px"
   y="0px"
   viewBox="0 0 256 97.583855"
   xml:space="preserve"
   inkscape:version="0.91 r13725"
   sodipodi:docname="iana-official.svg"
   width="256"
   height="97.583855"><metadata
     id="metadata56"><rdf:RDF><cc:Work
         rdf:about=""><dc:format>image/svg+xml</dc:format><dc:type
           rdf:resource="http://purl.org/dc/dcmitype/StillImage" /><dc:title></dc:title></cc:Work></rdf:RDF></metadata><defs
     id="defs54" /><sodipodi:namedview
     pagecolor="#ffffff"
     bordercolor="#666666"
     borderopacity="1"
     objecttolerance="10"
     gridtolerance="10"
     guidetolerance="10"
     inkscape:pageopacity="0"
     inkscape:pageshadow="2"
     inkscape:window-width="1339"
     inkscape:window-height="885"
     id="namedview52"
     showgrid="false"
     fit-margin-top="0"
     fit-margin-left="0"
     fit-margin-right="0"
     fit-margin-bottom="0"
     inkscape:zoom="1.9866667"
     inkscape:cx="143.63822"
     inkscape:cy="54.515219"
     inkscape:window-x="65"
     inkscape:window-y="24"
     inkscape:window-maximized="0"
     inkscape:current-layer="Layer_1" /><style
     type="text/css"
     id="style3">
	.st0{fill:#11A14E;}
	.st1{fill:#0673BA;}
	.st2{fill:url(#SVGID_1_);}
	.st3{fill:url(#SVGID_2_);}
	.st4{fill:url(#SVGID_3_);}
	.st5{fill:url(#SVGID_4_);}
	.st6{fill:url(#SVGID_5_);}
	.st7{fill:url(#SVGID_6_);}
</style><g
     id="Logo"
     transform="matrix(0.89186729,0,0,0.89186729,-72.56391,-29.074874)"><path
       class="st0"
       d="m 341.4,137 c -4,0 -4.2,-2.4 -4.1,-4.2 0.1,-1.7 31.1,-48.8 31.1,-48.8 l -21.8,3.7 c 0,0 0.1,-4 -10.9,-4 -11,0 -27.7,11.1 -36.9,21.2 -9.2,10.2 -14.8,21.6 -14.7,24.6 l -9.4,4.3 c 0,0 -7,3.2 -10,3.1 -2.9,-0.2 -4.3,-1.2 -4.3,-3.6 0,-2.4 10.3,-16.3 12.9,-20.4 2.7,-4.2 13.4,-16.6 13.3,-22.4 -0.1,-5.8 -3.4,-6.5 -8,-6.5 -4.6,0 -12.3,1.6 -17.2,4.8 -4.9,3.2 -28.1,30.5 -33.7,37.8 -5.6,7.3 -6.7,8.9 -9,10.4 0,0 8.1,-12 10.7,-15.8 2.6,-3.8 24.2,-36.8 24.2,-36.8 l -23.1,3.9 c 0,0 -25.3,39.8 -26.3,40.7 -1.1,0.9 -11.1,6.6 -15.1,7.4 -4,0.8 -7.5,-0.1 -7.2,-3.5 0.3,-3.3 9.3,-16 12.6,-20.3 3.3,-4.3 18.9,-29 18.9,-29 l -21.5,3.8 c 0,0 -3.5,-3.6 -10.7,-3.7 -7.2,-0.1 -27.2,8.8 -33.8,16.2 -6.6,7.4 -17.8,21 -18.4,28.3 0,0 -13.9,8.8 -18.9,9 -4.4,0.1 -4.5,-2 -4.4,-4.1 0.2,-4 11.1,-19.3 14.2,-23.8 3.1,-4.5 17.1,-25.9 17.1,-25.9 -3.5,1.6 -16.6,9.9 -24.5,7.3 0,0 -24,34.4 -25.8,39.3 -2.3,6.5 4.8,11.7 13.2,11.8 12.2,0.1 24.7,-6.6 28.8,-9.6 0,0 0,9.4 14.5,9.5 14.5,0.1 18.7,-5.9 20.9,-6.9 0,0 3.1,7.3 13.5,7.2 10.4,-0.1 20.5,-5.4 24.8,-8.3 0,0 -0.2,8 9.9,7.4 10.1,-0.6 12.4,-6.6 15.7,-10.6 0,0 29.5,-37.8 36.9,-40.9 7.4,-3.1 5.5,-2.3 3.1,1.4 -2.4,3.7 -25.6,31.8 -25.8,41.8 -0.2,10 8.6,9.2 13.6,9.2 5,0 22.2,-5.4 28.2,-9.4 0,0 2.2,9.4 12.3,9.4 10.1,0 20.5,-5.1 23.1,-6.7 0,0 2,6.8 13.2,6.7 11.2,-0.1 27.4,-9.4 28.8,-10.3 l -0.9,-1.8 c 0.3,-0.2 -15.2,7.1 -19.1,7.1 z M 166,125.5 c -1.2,1.8 -2.2,3.6 -2.2,5.9 0,0 -7.4,6.1 -11.9,6.1 -4.4,0 -4.2,-2.9 -4.1,-4.9 0.3,-6 6.6,-16.7 10.4,-21.9 3,-4.1 14.6,-23.5 24.4,-23.7 5.6,-0.1 5.3,2.3 6.3,4.3 0.1,-0.1 -21.7,32.2 -22.9,34.2 z m 155.5,-0.1 c -1.2,1.8 -2.2,3.6 -2.2,5.9 0,0 -8.5,6 -11.9,6.1 -4.4,0.1 -4.2,-2.9 -4.1,-4.9 0.3,-6 6.6,-16.7 10.4,-21.9 3,-4.1 14.6,-23.5 24.4,-23.7 5.6,-0.1 5.3,2.3 6.3,4.3 0.1,-0.1 -21.7,32.3 -22.9,34.2 z"
       id="path6"
       inkscape:connector-curvature="0"
       style="fill:#11a14e" /><path
       class="st1"
       d="m 336.5,130.9 c -4,0 -4.2,-2.4 -4.1,-4.2 0.1,-1.7 31.1,-48.8 31.1,-48.8 l -21.8,3.7 c 0,0 0.1,-4 -10.9,-4 -11,0 -27.7,11.1 -36.9,21.2 -9.2,10.2 -14.8,21.6 -14.7,24.6 l -9.4,4.3 c 0,0 -7,3.2 -10,3.1 -2.9,-0.2 -4.3,-1.2 -4.3,-3.6 0,-2.4 10.3,-16.3 12.9,-20.4 2.7,-4.2 13.4,-16.6 13.3,-22.4 -0.1,-5.8 -3.4,-6.5 -8,-6.5 -4.6,0 -12.3,1.6 -17.2,4.8 -4.9,3.2 -28.1,30.5 -33.7,37.8 -5.6,7.3 -6.7,8.9 -9,10.4 0,0 8.1,-12 10.7,-15.8 2.6,-3.8 24.2,-36.8 24.2,-36.8 l -23.1,3.9 c 0,0 -25.3,39.8 -26.3,40.7 -1.1,0.9 -11.1,6.6 -15.1,7.4 -4,0.8 -7.5,-0.1 -7.2,-3.5 0.3,-3.3 9.3,-16 12.6,-20.3 3.3,-4.3 18.9,-29 18.9,-29 L 187,81.3 c 0,0 -3.5,-3.6 -10.7,-3.7 -7.2,-0.1 -27.2,8.8 -33.8,16.2 -6.6,7.4 -17.8,21 -18.4,28.3 0,0 -13.9,8.8 -18.9,9 -4.4,0.1 -4.5,-2 -4.4,-4.1 0.2,-4 11.1,-19.3 14.2,-23.8 3.1,-4.5 17.1,-25.9 17.1,-25.9 -3.5,1.6 -16.6,9.9 -24.5,7.3 0,0 -24,34.4 -25.8,39.3 -2.3,6.5 4.8,11.7 13.2,11.8 12.2,0.1 24.7,-6.6 28.8,-9.6 0,0 0,9.4 14.5,9.5 14.5,0.1 18.7,-5.9 20.9,-6.9 0,0 3.1,7.3 13.5,7.2 10.4,-0.1 20.5,-5.4 24.8,-8.3 0,0 -0.2,8 9.9,7.4 10.2,-0.6 12.4,-6.6 15.7,-10.6 0,0 29.5,-37.8 36.9,-40.9 7.4,-3.1 5.5,-2.3 3.1,1.4 -2.4,3.7 -25.6,31.8 -25.8,41.8 -0.2,10 8.6,9.2 13.6,9.2 5,0 22.2,-5.4 28.2,-9.4 0,0 2.2,9.4 12.3,9.4 10.1,0 20.5,-5.1 23.1,-6.7 0,0 2,6.8 13.2,6.7 11.2,-0.1 27.4,-9.4 28.8,-10.3 l -0.9,-1.8 c 0.2,-0.2 -15.2,7.1 -19.1,7.1 z M 161.1,119.3 c -1.2,1.8 -2.2,3.6 -2.2,5.9 0,0 -7.4,6.1 -11.9,6.1 -4.5,0 -4.2,-2.9 -4.1,-4.9 0.3,-6 6.6,-16.7 10.4,-21.9 3,-4.1 14.6,-23.5 24.4,-23.7 5.6,-0.1 5.3,2.3 6.3,4.3 0.1,-0.1 -21.7,32.3 -22.9,34.2 z m 155.5,0 c -1.2,1.8 -2.2,3.6 -2.2,5.9 0,0 -8.5,6 -11.9,6.1 -4.4,0.1 -4.2,-2.9 -4.1,-4.9 0.3,-6 6.6,-16.7 10.4,-21.9 3,-4.1 14.6,-23.5 24.4,-23.7 5.6,-0.1 5.3,2.3 6.3,4.3 0.1,-0.1 -21.7,32.3 -22.9,34.2 z"
       id="path8"
       inkscape:connector-curvature="0"
       style="fill:#0673ba" /><linearGradient
       id="SVGID_1_"
       gradientUnits="userSpaceOnUse"
       x1="205.3956"
       y1="38.2976"
       x2="226.8159"
       y2="68.444504"
       gradientTransform="matrix(0.5,0,0,-0.5,0.5,87.5)"><stop
         offset="0"
         style="stop-color:#0673BA"
         id="stop11" /><stop
         offset="1"
         style="stop-color:#11A14E"
         id="stop13" /></linearGradient><path
       class="st2"
       d="m 129.4,43.1 -12,7.5 c 2.2,7.5 5.8,14.6 10.2,21.6 -1.1,1.3 -2.4,2.5 -3.8,3.6 -4.5,-6.8 -8.2,-14.4 -10.4,-22.6 l -9,5.6 c 2.1,7.1 5.2,14 8.9,20.9 -0.5,0 -1,0.1 -1.6,0.1 -1.4,0 -2.8,-0.2 -4.1,-0.4 -3.1,-5.6 -5.6,-11.6 -7.3,-18 l -8.2,5.1 c -0.7,-1.6 -1.2,-3.2 -1.6,-4.9 l 8.6,-5.2 C 98.6,53.8 98.2,51.2 98,48.5 l -7.8,5 c 0.2,-1.7 0.6,-3.4 1.1,-4.9 l 6.4,-3.8 c 0,-2 0,-4 0.1,-6.1 -4.9,4.3 -8,10.8 -8,18.1 0,12.9 9.7,23.3 21.6,23.3 11.9,0 21.6,-10.4 21.6,-23.3 0.3,-5.3 -1.2,-9.9 -3.6,-13.7 z"
       id="path15"
       style="fill:url(#SVGID_1_)"
       inkscape:connector-curvature="0" /><linearGradient
       id="SVGID_2_"
       gradientUnits="userSpaceOnUse"
       x1="219.3269"
       y1="68.749603"
       x2="212.7881"
       y2="18.2833"
       gradientTransform="matrix(0.5,0,0,-0.5,0.5,87.5)"><stop
         offset="0"
         style="stop-color:#FFFFFF"
         id="stop18" /><stop
         offset="1"
         style="stop-color:#1173BA"
         id="stop20" /></linearGradient><path
       class="st3"
       d="m 97.9,44.4 -6.4,3.8 c -0.5,1.6 -0.9,3.2 -1.1,4.9 l 7.8,-5 c 0.2,2.7 0.6,5.3 1.1,7.9 l -8.6,5.2 c 0.3,1.7 0.9,3.4 1.6,4.9 l 8.2,-5.1 c 1.7,6.4 4.2,12.5 7.3,18 1.3,0.3 2.7,0.4 4.1,0.4 0.5,0 1,0 1.6,-0.1 -3.8,-6.9 -6.9,-13.8 -8.9,-20.9 l 9,-5.6 c 2.2,8.2 5.9,15.9 10.4,22.6 1.4,-1 2.7,-2.2 3.8,-3.6 -4.4,-7 -7.9,-14.1 -10.2,-21.6 l 12,-7.5 c -0.9,-1.3 -1.8,-2.5 -2.9,-3.6 l -10.3,6.3 c -0.6,-2.7 -1,-5.5 -1.2,-8.3 l 4.4,-2.8 c -1.1,-0.4 -2.2,-0.8 -3.3,-1.1 l -1.3,0.7 c 0,-0.3 0,-0.6 0,-1 -1,-0.2 -2,-0.3 -3.1,-0.3 -0.2,0 -0.5,0 -0.7,0 0,1.2 0,2.3 0,3.5 l -9.3,5.6 c -0.1,-2.1 0,-4.3 0.2,-6.5 -1.3,0.7 -2.6,1.6 -3.8,2.7 -0.4,2.5 -0.5,4.5 -0.4,6.5 z m 13.2,-4.5 c 0.2,2.8 0.5,5.6 1.1,8.3 l -9.1,5.6 c -0.6,-2.6 -1,-5.3 -1.2,-7.9 l 9.2,-6 z"
       id="path22"
       style="fill:url(#SVGID_2_)"
       inkscape:connector-curvature="0" /><linearGradient
       id="SVGID_3_"
       gradientUnits="userSpaceOnUse"
       x1="180.15311"
       y1="58.2318"
       x2="201.5256"
       y2="88.311302"
       gradientTransform="matrix(0.5,0,0,-0.5,0.5,87.5)"><stop
         offset="0"
         style="stop-color:#115DA6"
         id="stop25" /><stop
         offset="1"
         style="stop-color:#00A14F"
         id="stop27" /></linearGradient><path
       class="st4"
       d="m 101.6,42.2 9.3,-5.6 c 0,-1.2 0,-2.3 0,-3.5 -3.3,0.1 -6.4,1 -9.2,2.6 -0.1,2.2 -0.1,4.4 -0.1,6.5 z"
       id="path29"
       style="fill:url(#SVGID_3_)"
       inkscape:connector-curvature="0" /><linearGradient
       id="SVGID_4_"
       gradientUnits="userSpaceOnUse"
       x1="189.7955"
       y1="51.766602"
       x2="210.9868"
       y2="81.590698"
       gradientTransform="matrix(0.5,0,0,-0.5,0.5,87.5)"><stop
         offset="0"
         style="stop-color:#115DA6"
         id="stop32" /><stop
         offset="1"
         style="stop-color:#00A14F"
         id="stop34" /></linearGradient><path
       class="st5"
       d="m 116,33.6 c -0.4,-0.1 -0.8,-0.1 -1.3,-0.2 0,0.3 0,0.6 0,1 l 1.3,-0.8 z"
       id="path36"
       style="fill:url(#SVGID_4_)"
       inkscape:connector-curvature="0" /><linearGradient
       id="SVGID_5_"
       gradientUnits="userSpaceOnUse"
       x1="200.72771"
       y1="42.303799"
       x2="222.15601"
       y2="72.461998"
       gradientTransform="matrix(0.5,0,0,-0.5,0.5,87.5)"><stop
         offset="0"
         style="stop-color:#115DA6"
         id="stop39" /><stop
         offset="1"
         style="stop-color:#00A14F"
         id="stop41" /></linearGradient><path
       class="st6"
       d="m 116.1,45.8 10.3,-6.3 c -2.1,-2.1 -4.5,-3.7 -7.2,-4.8 l -4.4,2.8 c 0.3,2.8 0.7,5.6 1.3,8.3 z"
       id="path43"
       style="fill:url(#SVGID_5_)"
       inkscape:connector-curvature="0" /><linearGradient
       id="SVGID_6_"
       gradientUnits="userSpaceOnUse"
       x1="190.71049"
       y1="49.599098"
       x2="212.3035"
       y2="79.988899"
       gradientTransform="matrix(0.5,0,0,-0.5,0.5,87.5)"><stop
         offset="0"
         style="stop-color:#115DA6"
         id="stop46" /><stop
         offset="1"
         style="stop-color:#00A14F"
         id="stop48" /></linearGradient><path
       class="st7"
       d="m 112.2,48.2 c -0.5,-2.7 -0.9,-5.5 -1.1,-8.3 l -9.2,5.9 c 0.2,2.7 0.7,5.3 1.2,7.9 l 9.1,-5.5 z"
       id="path50"
       style="fill:url(#SVGID_6_)"
       inkscape:connector-curvature="0" /></g></svg>