<svg xmlns="http://www.w3.org/2000/svg" viewBox="0 0 32 32" width="64" height="64" fill-rule="evenodd"><path d="M16.06 26.56c.038.01.077.017.112.033s.066.042.098.063l.006.006.032.028.055.05.238.222.43.432.442.495.266.337.235.34.186.317.136.292c.07.172.12.354.138.54l.006.103v.1l-.01.154c-.02.206-.066.4-.143.6a1.96 1.96 0 0 1-.2.372 2 2 0 0 1-.22.266 2.01 2.01 0 0 1-.206.182 2.08 2.08 0 0 1-.18.126l-.155.1c-.3.162-.653.253-1 .288l-.16.012-.178.004a3.24 3.24 0 0 1-.367-.022c-.203-.024-.404-.067-.597-.134a2.45 2.45 0 0 1-.477-.222c-.16-.098-.3-.215-.438-.352l-.23-.295c-.063-.1-.118-.205-.162-.314a2.09 2.09 0 0 1-.141-.57l-.012-.184.002-.147a1.65 1.65 0 0 1 .04-.267 2.18 2.18 0 0 1 .088-.284 3.09 3.09 0 0 1 .123-.276l.18-.32.22-.325.375-.474.427-.47.4-.4.172-.16.14-.126a.56.56 0 0 1 .21-.097zM16.244.004l.275.007.122.007.747.06 1.03.144.075.017 1 .246.282.083.32.1.4.146.302.126.47.22.263.133.532.3.163.098.726.524.177.154.5.452.43.456.118.13.503.662.076.12.388.648.1.207.22.482.228.562.076.218.243.877.2 1.185.033.368.03.53.002.077-.01.592-.007.1-.03.233-.167.945-.025.115-.384 1.186-.357.855-.454.9-.814 1.405-.42.633-.507.75-.366.496-.713.945-.5.6-.723.873-.505.585-.785.876-.494.537-1.495 1.546-.783.762-.433.407-.027.025-.033.03-.043.03-.03.014-.085.028-.204-.01-.018-.006-.1-.07-.014-.013-.015-.013-.058-.054-.173-.162-1.434-1.4-.444-.456-1.135-1.208-.27-.293-1.368-1.584-.383-.47-1.21-1.552-.12-.158-.916-1.335-.248-.397-.666-1.12-.2-.347-.575-1.2-.1-.235-.33-.92L6 11.45l-.093-.378-.08-.413-.063-.462-.024-.28-.01-.527.002-.1.014-.284.115-1.15.027-.148.26-1.148.006-.02.043-.128.183-.53.056-.134.297-.65.202-.378.286-.468.285-.416.198-.26.233-.278.255-.28.208-.2.548-.478.4-.332.484-.325.344-.22.73-.382 1.088-.447.922-.267.362-.08.498-.1.337-.05.52-.064.35-.03.704-.038.26-.003h.063l.224.005zm-.6 1.63l-.3.045c-.154.03-.306.07-.455.12a3.48 3.48 0 0 0-.467.199l-.292.168c-.705.448-1.244 1.12-1.64 1.847l-.188.37-.196.454-.215.6-.2.763-.186.98-.133 1.26-.033.804.018.924a13.86 13.86 0 0 0 .337 2.137c.205.886.472 1.758.773 2.616l1.28 3.178 1.888 3.8.05.093V1.633l-.024.002zm2.665.05a9.82 9.82 0 0 1 1.382.39c.64.234 1.257.54 1.823.92.768.516 1.44 1.172 1.96 1.938a7.25 7.25 0 0 1 .759 1.449c.292.75.46 1.547.53 2.348l.033.632-.012.588c-.035.44-.127.872-.25 1.294a10.06 10.06 0 0 1-.358 1.018l-.57 1.217a23.02 23.02 0 0 1-1.56 2.54c-.7 1.005-1.457 1.97-2.247 2.906l-2.582 2.844-.114.117 1.775-3.598.862-2.06.804-2.316.462-1.777a14.25 14.25 0 0 0 .251-1.554l.048-.684.003-.626-.03-.8c-.065-1.074-.23-2.144-.545-3.174l-.228-.656-.208-.488c-.404-.873-.97-1.7-1.733-2.285l-.256-.186z" fill="url(#A)"/><defs><linearGradient id="A" x2="81.448" gradientUnits="userSpaceOnUse" x1="5.74" y1="0" y2="32"><stop offset="0" stop-color="#109cf8"/><stop offset="1" stop-color="#935ee9"/></linearGradient></defs></svg>