<svg xmlns="http://www.w3.org/2000/svg" width="120" height="60"><path d="M19.453 23.045l3.578-3.578-1.193-1.093 5.962-1.59-1.59 5.962-1.093-1.093-5.268 5.268a1.44 1.44 0 0 1-2.087 0l-7.95-7.95s-.994-1.093 0-2.087 2.087 0 2.087 0l6.262 6.247c.298.298.895.298 1.292-.098" fill="#00a0de"/><path d="M25.615 30.687l3.578 3.578 1.193-1.093 1.59 5.962-5.962-1.59 1.093-1.093-5.268-5.268a1.44 1.44 0 0 1 0-2.087l7.95-7.95s1.093-.994 2.087 0 0 2.087 0 2.087l-6.26 6.26a.91.91 0 0 0 0 1.193m-13.9-1.374l-3.578-3.578-1.092 1.184-1.59-5.964 5.962 1.59-1.193 1.093 5.268 5.268a1.44 1.44 0 0 1 0 2.087l-7.95 7.95s-1.093.994-2.087 0 0-2.087 0-2.087l6.26-6.26c.397-.298.397-.895 0-1.292" fill="#3f3e29"/><path d="M18.063 36.955l-3.578 3.578 1.093 1.093-5.962 1.59 1.59-5.962 1.093 1.093 5.268-5.268a1.44 1.44 0 0 1 2.087 0l7.95 7.95s.994 1.093 0 2.087-2.087 0-2.087 0l-6.26-6.247c-.2-.298-.785-.298-1.193.098" fill="#00a0de"/><path d="M44.556 33.845c-.527.527-1.505.903-2.484.903-1.054 0-1.805-.3-2.484-1.054v.978h-2.41V20.9h2.484v4.59c.687-.752 1.43-.978 2.408-.978s1.882.377 2.484.903c.978.978 1.054 2.71 1.054 4.214-.076 1.505-.076 3.237-1.054 4.214m-3.237-7.15c-1.505 0-1.73 1.204-1.73 2.86s.226 2.935 1.73 2.935 1.73-1.28 1.73-2.935c0-1.57-.15-2.86-1.73-2.86m5.572-5.866h2.558v2.03H46.89zm.076 3.763h2.484v10.085h-2.484zm8.052 13.846c-1.57 0-2.634-.3-3.69-1.28l1.57-1.57c.527.527 1.128.752 1.957.752 1.505 0 2.03-1.054 2.03-2.107V33.17c-.687.752-1.43.978-2.408.978s-1.805-.3-2.408-.903c-.978-.978-1.054-2.256-1.054-3.99s.076-3.012 1.054-3.99c.527-.527 1.43-.903 2.408-.903 1.054 0 1.73.3 2.484 1.054V24.6h2.408v9.708c.076 2.408-1.656 4.14-4.365 4.14m.226-11.74c-1.505 0-1.656 1.28-1.656 2.634s.15 2.634 1.656 2.634 1.668-1.28 1.668-2.633-.15-2.634-1.656-2.634m11.894 8.052c-1.57 0-3.012-.15-4.3-1.43l1.656-1.656c.828.828 1.882.978 2.71.978.903 0 1.805-.3 1.805-1.054 0-.527-.3-.828-1.054-.903l-1.656-.226c-1.805-.15-2.935-.978-2.935-2.86 0-2.107 1.805-3.237 3.924-3.237 1.57 0 2.86.3 3.838 1.204l-1.57 1.57c-.602-.527-1.505-.687-2.333-.687-.978 0-1.43.45-1.43.978 0 .377.15.828 1.054.903l1.57.15c1.957.226 3.012 1.28 3.012 2.935-.076 2.256-1.957 3.31-4.3 3.31M83.528 24.6h2.634l-3.085 10.085h-2.03l-2.106-6.322-2.107 6.32h-2.107L71.64 24.59h2.634l1.656 6.246 2.03-6.246h1.882l2.03 6.246zm3.537-3.762h2.567v2.03h-2.558zm.076 3.763h2.484v10.085H87.15zm7.975 10.085c-2.03 0-2.935-1.43-2.935-2.86V26.85h-1.054v-1.957h1.056V21.88h2.484v3.012h1.805v1.87h-1.805v4.807c0 .602.3.903.903.903h.903v2.107h-1.354zm6.847.076c-2.03 0-4.515-1.054-4.515-5.192 0-4.064 2.484-5.118 4.515-5.118 1.354 0 2.408.45 3.31 1.354l-1.73 1.73c-.527-.527-.978-.828-1.656-.828-.558-.016-1.09.236-1.43.677-.377.45-.527 1.128-.527 2.256 0 1.054.15 1.73.527 2.256.34.44.873.693 1.43.677.687 0 1.128-.226 1.656-.828l1.73 1.656c-.903.903-1.957 1.354-3.31 1.354m10.012-.07v-6.18c0-1.354-.828-1.805-1.656-1.805s-1.656.45-1.656 1.805v6.18h-2.484V20.9h2.484v4.59c.687-.687 1.505-1.054 2.408-1.054 2.183 0 3.386 1.57 3.386 3.69v6.547z" fill="#3f3e29"/><path d="M66.456 41.9v-3.012c0-.752-.45-1.128-.978-1.128s-1.054.377-1.054 1.128V41.9h-.978v-4.967h.978v.527c.377-.377.828-.527 1.354-.527s.903.15 1.204.45c.377.377.527.828.527 1.43v3.16h-1.054zm4.59-2.258c0 .828.45 1.43 1.28 1.43.527 0 .828-.15 1.204-.527l.602.602c-.527.527-.978.752-1.882.752-1.28 0-2.256-.687-2.256-2.558 0-1.57.828-2.558 2.107-2.558 1.354 0 2.107.978 2.107 2.408v.45zm2.107-1.354c-.15-.377-.527-.602-.978-.602s-.828.226-.978.602c-.076.226-.15.377-.15.687h2.256c0-.3 0-.45-.15-.687m5.494 3.612c-.903 0-1.354-.687-1.354-1.354v-2.71h-.602v-.752h.602V35.58h1.054v1.505h.978v.752h-.978v2.71c0 .377.15.602.527.602h.377v.828h-.602zm9.256-5.032h1.054l-1.57 5.042h-.828l-1.204-3.537-1.128 3.537h-.903l-1.517-5.042h1.054l.978 3.537 1.13-3.537h.752l1.204 3.537zm6.924 4.505c-.3.3-.828.602-1.505.602s-1.128-.226-1.505-.602c-.45-.527-.602-1.128-.602-1.957s.15-1.43.602-1.957c.3-.3.828-.602 1.505-.602s1.204.226 1.505.602c.45.527.602 1.128.602 1.957s-.15 1.43-.602 1.957m-.752-3.386a1.15 1.15 0 0 0-.752-.301c-.3 0-.527.076-.752.3-.3.3-.377.828-.377 1.354s.076 1.054.377 1.354a1.15 1.15 0 0 0 .752.301c.3 0 .527-.076.752-.3.3-.3.377-.828.377-1.354s-.076-1.054-.377-1.354m6.773.076c-.226-.226-.377-.3-.752-.3-.527 0-.978.45-.978 1.128V41.9h-.978v-4.967h.978v.527c.226-.377.752-.602 1.354-.602.45 0 .828.15 1.204.45zm7.752 3.84h-1.28l-1.354-2.333-.752.828V41.9h-.978v-6.472h.978v3.763l1.955-2.325h1.204l-1.73 1.957zm4.365 0c-.828 0-1.505-.15-2.107-.752l.687-.687c.377.377.978.527 1.43.527.602 0 1.054-.226 1.054-.687 0-.3-.15-.527-.687-.602l-.828-.076c-.903-.076-1.505-.527-1.505-1.354 0-.978.828-1.505 1.882-1.505.752 0 1.354.15 1.882.527l-.602.602c-.3-.3-.752-.377-1.204-.377-.602 0-.903.3-.903.602s.15.527.687.602l.752.076c.903.076 1.505.527 1.505 1.43.076 1.128-.828 1.656-2.03 1.656" fill="#00a0de"/></svg>