<svg xmlns="http://www.w3.org/2000/svg" xmlns:xlink="http://www.w3.org/1999/xlink" width="120" height="60"><g fill="#202a5a"><use xlink:href="#A"/><path d="M62.672 25.272h-4.295v-1.518h10.368v1.518H64.45V36.3h-1.78zm7.765-1.572h3.86c1.3 0 1.865.087 2.343.304 1.3.477 2.126 1.735 2.126 3.384 0 1.605-.868 2.95-2.256 3.384v.043l.4.564 2.646 4.86H77.55l-2.7-4.945h-2.7v5h-1.78V23.7zm4.25 6.03c1.388 0 2.212-.868 2.212-2.256 0-.9-.347-1.562-.998-1.952-.347-.174-.737-.304-1.735-.304h-2.04v4.512zm6.638-6.03h1.78v8.112c0 1.9 1.258 3.037 3.167 3.037 1.952 0 3.2-1.128 3.2-3.08V23.7h1.78v8.112c0 2.776-1.995 4.642-4.945 4.642s-4.945-1.865-4.945-4.642V23.7zm15.747 1.572h-4.295v-1.518h10.368v1.518H98.85V36.3h-1.78z"/><use xlink:href="#A" x="54.875"/><path d="M39.5 38.7V20.565l-.683.3-14.215-8.256-15.518 8.7V38.7l15.518 8.7z"/></g><path d="M24.592 30l14.898-8.7-14.898-8.7-15.518 8.7z" fill="#2c448a"/><path d="M34.524 23.172l-.062 1.117-9.87 5.7v17.38l14.898-8.7V20.565z" fill="#283a79"/><path d="M9.073 38.7l15.518 8.7V30L9.073 21.3z" fill="#202a5a"/><path d="M7.832 33.104l16.76 9.932v5.587L7.832 38.7zm0-8.7l16.76 9.932V31.24L7.832 21.3z" fill="#3558a7"/><path d="M32.848 37.945l-8.256 5.1v5.587L40.73 38.7v-3.104L27.137 29.7l-2.545 1.552v3.042z" fill="#416fb5"/><path d="M24.592 43.035l8.256-5.1-.993-.372-7.263 4.22-15.518-8.7v-.745l-1.24.745zM7.832 21.3l16.76 9.932 2.545-1.552-11.98-7.138 9.435-5.587 9.932 6.207 4.966-2.607-14.898-9.187z" fill="#477fc1"/><path d="M34.524 23.172l-9.932-6.207-9.435 5.587 1.055.62 8.38-4.966 9.87 6.083z" fill="#202a5a"/><defs><path id="A" d="M50.135 33.514s1.345 1.345 3.2 1.345c1.17 0 2.17-.65 2.17-1.865 0-2.733-6.073-2.126-6.073-5.986 0-1.952 1.692-3.514 4.034-3.514s3.557 1.258 3.557 1.258l-.78 1.475s-1.17-1.085-2.776-1.085c-1.345 0-2.256.824-2.256 1.822 0 2.603 6.073 1.9 6.073 5.986 0 1.952-1.475 3.557-4 3.557-2.646 0-4.164-1.648-4.164-1.648z"/></defs></svg>