<?xml version="1.0" encoding="UTF-8" standalone="no"?>
<svg
   xmlns:dc="http://purl.org/dc/elements/1.1/"
   xmlns:cc="http://creativecommons.org/ns#"
   xmlns:rdf="http://www.w3.org/1999/02/22-rdf-syntax-ns#"
   xmlns:svg="http://www.w3.org/2000/svg"
   xmlns="http://www.w3.org/2000/svg"
   xmlns:sodipodi="http://sodipodi.sourceforge.net/DTD/sodipodi-0.dtd"
   xmlns:inkscape="http://www.inkscape.org/namespaces/inkscape"
   id="Layer_1"
   data-name="Layer 1"
   viewBox="0 0 120 60"
   version="1.1"
   sodipodi:docname="zapier-ar21.svg"
   width="120"
   height="60"
   inkscape:version="0.92.2 (5c3e80d, 2017-08-06)">
  <metadata
     id="metadata25">
    <rdf:RDF>
      <cc:Work
         rdf:about="">
        <dc:format>image/svg+xml</dc:format>
        <dc:type
           rdf:resource="http://purl.org/dc/dcmitype/StillImage" />
        <dc:title>zapier</dc:title>
      </cc:Work>
    </rdf:RDF>
  </metadata>
  <sodipodi:namedview
     pagecolor="#ffffff"
     bordercolor="#666666"
     borderopacity="1"
     objecttolerance="10"
     gridtolerance="10"
     guidetolerance="10"
     inkscape:pageopacity="0"
     inkscape:pageshadow="2"
     inkscape:window-width="1920"
     inkscape:window-height="1001"
     id="namedview23"
     showgrid="false"
     inkscape:zoom="3.4521386"
     inkscape:cx="13.759587"
     inkscape:cy="-23.848081"
     inkscape:window-x="-9"
     inkscape:window-y="-9"
     inkscape:window-maximized="1"
     inkscape:current-layer="Layer_1" />
  <defs
     id="defs4">
    <style
       id="style2">.cls-1{fill:#ff4a00;}</style>
  </defs>
  <title
     id="title6">zapier</title>
  <g
     id="g839"
     transform="matrix(1.044246,0,0,1.044246,8.7254494,6.5077791)">
    <path
       id="path8"
       transform="translate(-1.1,-0.9)"
       d="M 1.1,36.3 11.3,20.5 h -9 A 7.57,7.57 0 0 1 2.2,19 7.57,7.57 0 0 1 2.3,17.5 H 16.8 L 17,18 6.7,33.8 h 9.6 a 7.57,7.57 0 0 1 0.1,1.5 6.15,6.15 0 0 1 -0.1,1.4 H 1.2 Z"
       class="cls-1"
       inkscape:connector-curvature="0"
       style="fill:#ff4a00" />
    <path
       id="path10"
       transform="translate(-1.1,-0.9)"
       d="M 30.4,24.1 A 3.87,3.87 0 0 0 29.3,21 5.19,5.19 0 0 0 26,20.1 a 19.48,19.48 0 0 0 -2.5,0.2 14.19,14.19 0 0 0 -2.2,0.5 5.56,5.56 0 0 1 -0.7,-3 12.66,12.66 0 0 1 2.8,-0.6 15.14,15.14 0 0 1 3,-0.2 8.62,8.62 0 0 1 5.7,1.7 c 1.3,1.1 2,3 2,5.5 v 12.1 c -0.9,0.2 -1.9,0.4 -3.2,0.6 a 24.33,24.33 0 0 1 -3.8,0.3 16.86,16.86 0 0 1 -3.3,-0.3 6.35,6.35 0 0 1 -2.5,-1.1 4.94,4.94 0 0 1 -1.6,-1.9 6.09,6.09 0 0 1 -0.6,-2.8 5.07,5.07 0 0 1 0.7,-2.8 4.94,4.94 0 0 1 1.8,-2 10.34,10.34 0 0 1 2.6,-1.2 10.55,10.55 0 0 1 3.1,-0.4 11.52,11.52 0 0 1 2,0.1 c 0.5,0 0.9,0.1 1.3,0.1 v -0.8 z m 0,3.6 A 7.84,7.84 0 0 1 29,27.5 c -0.6,0 -1.1,-0.1 -1.5,-0.1 a 6.18,6.18 0 0 0 -3.6,0.9 3.09,3.09 0 0 0 -1.2,2.6 2.92,2.92 0 0 0 1.4,2.8 3.26,3.26 0 0 0 1.4,0.4 7.08,7.08 0 0 0 1.4,0.1 10.87,10.87 0 0 0 1.8,-0.1 c 0.6,-0.1 1.2,-0.2 1.6,-0.3 v -6.1 z"
       class="cls-1"
       inkscape:connector-curvature="0"
       style="fill:#ff4a00" />
    <path
       id="path12"
       transform="translate(-1.1,-0.9)"
       d="m 38.2,17.5 c 0.3,0 0.5,-0.1 0.8,-0.1 h 1.6 c 0.3,0 0.5,0.1 0.8,0.1 a 2,2 0 0 1 0.1,0.5 c 0,0.3 0.1,0.5 0.1,0.8 0,0.3 0.1,0.6 0.1,0.9 a 1.21,1.21 0 0 0 0.1,0.5 L 42.7,19 a 6.42,6.42 0 0 1 1.3,-1 8,8 0 0 1 3.8,-1 7.79,7.79 0 0 1 3.1,0.6 6.42,6.42 0 0 1 2.5,1.8 8.57,8.57 0 0 1 1.6,3 14,14 0 0 1 0.6,4.3 10.88,10.88 0 0 1 -2.7,7.8 c -1.8,1.9 -4.3,2.8 -7.6,2.8 a 9.7,9.7 0 0 1 -1.7,-0.1 q -0.9,-0.15 -1.5,-0.3 v 8.9 c -0.3,0 -0.6,0.1 -1,0.1 h -1.8 c -0.3,0 -0.6,-0.1 -0.9,-0.1 V 17.5 Z m 3.7,16.2 a 8.33,8.33 0 0 0 1.5,0.4 11.52,11.52 0 0 0 2,0.1 6.9,6.9 0 0 0 2.5,-0.4 4.31,4.31 0 0 0 1.9,-1.3 7.28,7.28 0 0 0 1.3,-2.3 10.42,10.42 0 0 0 0.5,-3.3 9.47,9.47 0 0 0 -1.1,-4.8 3.93,3.93 0 0 0 -3.6,-1.8 5.66,5.66 0 0 0 -1.8,0.3 4,4 0 0 0 -1.5,1 5,5 0 0 0 -1.1,1.7 6.25,6.25 0 0 0 -0.4,2.5 v 7.9 z"
       class="cls-1"
       inkscape:connector-curvature="0"
       style="fill:#ff4a00" />
    <path
       id="path14"
       transform="translate(-1.1,-0.9)"
       d="m 60.1,20.4 h -2.5 a 1.48,1.48 0 0 1 -0.1,-0.7 v -1.6 c 0,-0.3 0.1,-0.5 0.1,-0.7 h 6.1 v 19.4 c -0.3,0 -0.6,0.1 -0.9,0.1 H 61 c -0.3,0 -0.6,-0.1 -0.9,-0.1 z"
       class="cls-1"
       inkscape:connector-curvature="0"
       style="fill:#ff4a00" />
    <path
       id="path16"
       transform="translate(-1.1,-0.9)"
       d="m 71.8,28.1 c 0.1,2.1 0.6,3.7 1.6,4.6 a 6.37,6.37 0 0 0 4.6,1.5 14.4,14.4 0 0 0 5.1,-0.9 4.57,4.57 0 0 1 0.5,1.4 8.75,8.75 0 0 1 0.2,1.6 10.67,10.67 0 0 1 -2.7,0.8 16.86,16.86 0 0 1 -3.3,0.3 11.82,11.82 0 0 1 -4.5,-0.7 10.7,10.7 0 0 1 -3.1,-2.2 8.34,8.34 0 0 1 -1.8,-3.2 12.9,12.9 0 0 1 -0.6,-4 16.84,16.84 0 0 1 0.5,-4 9,9 0 0 1 1.7,-3.2 10.11,10.11 0 0 1 2.8,-2.2 9.28,9.28 0 0 1 4.2,-0.9 7.48,7.48 0 0 1 6,2.6 6.9,6.9 0 0 1 1.5,2.8 10.46,10.46 0 0 1 0.5,3.6 v 1.1 c 0,0.4 -0.1,0.7 -0.1,1 z m 9.6,-2.8 a 6.45,6.45 0 0 0 -0.3,-2 8.86,8.86 0 0 0 -0.8,-1.7 4.07,4.07 0 0 0 -1.4,-1.2 4.21,4.21 0 0 0 -2,-0.4 4.51,4.51 0 0 0 -3.5,1.4 7,7 0 0 0 -1.5,3.9 z"
       class="cls-1"
       inkscape:connector-curvature="0"
       style="fill:#ff4a00" />
    <path
       id="path18"
       transform="translate(-1.1,-0.9)"
       d="m 89.2,17.5 c 0.3,0 0.5,-0.1 0.8,-0.1 h 1.6 c 0.3,0 0.5,0.1 0.8,0.1 a 6.05,6.05 0 0 1 0.2,1.5 9.15,9.15 0 0 1 0.1,1.6 6.3,6.3 0 0 1 2.1,-2.2 5.82,5.82 0 0 1 3.3,-0.9 h 0.6 a 0.75,0.75 0 0 1 0.5,0.1 c 0,0.2 0.1,0.5 0.1,0.7 v 0.8 A 2.77,2.77 0 0 1 99.2,20 c 0,0.3 -0.1,0.6 -0.1,0.9 -0.2,0 -0.4,-0.1 -0.6,-0.1 H 98 a 5.82,5.82 0 0 0 -1.9,0.3 4.25,4.25 0 0 0 -1.7,1 4.85,4.85 0 0 0 -1.2,2 9.6,9.6 0 0 0 -0.4,3.2 v 9.6 c -0.3,0 -0.6,0.1 -0.9,0.1 h -1.8 c -0.3,0 -0.7,-0.1 -1,-0.1 V 17.5 Z"
       class="cls-1"
       inkscape:connector-curvature="0"
       style="fill:#ff4a00" />
    <path
       id="path20"
       transform="translate(-1.1,-0.9)"
       d="M 67.3,6.1 H 63.6 L 66.2,3.5 C 66,3.2 65.8,3 65.6,2.7 v 0 A 5.72,5.72 0 0 1 64.8,2 L 62.2,4.6 V 1 a 3.4,3.4 0 0 0 -1,-0.1 v 0 A 3.08,3.08 0 0 0 60.2,1 V 4.7 L 57.5,2 a 2.7,2.7 0 0 0 -0.8,0.7 v 0 C 56.5,3 56.2,3.2 56,3.5 l 2.6,2.6 H 55 c 0,0 -0.1,0.7 -0.1,1 v 0 a 3.08,3.08 0 0 0 0.1,1 h 3.7 L 56,10.8 a 5.36,5.36 0 0 0 1.5,1.5 l 2.6,-2.6 v 3.7 a 3.4,3.4 0 0 0 1,0.1 v 0 a 3.08,3.08 0 0 0 1,-0.1 V 9.7 l 2.6,2.6 a 2.7,2.7 0 0 0 0.8,-0.7 v 0 a 5.72,5.72 0 0 0 0.7,-0.8 L 63.6,8.2 h 3.7 a 3.4,3.4 0 0 0 0.1,-1 v 0 A 3.75,3.75 0 0 0 67.3,6.1 Z m -4.6,1 a 5.07,5.07 0 0 1 -0.2,1.3 3,3 0 0 1 -1.3,0.2 v 0 A 5.07,5.07 0 0 1 59.9,8.4 3,3 0 0 1 59.7,7.1 v 0 a 5.07,5.07 0 0 1 0.2,-1.3 3,3 0 0 1 1.3,-0.2 v 0 a 5.07,5.07 0 0 1 1.3,0.2 5.85,5.85 0 0 1 0.2,1.3 z"
       class="cls-1"
       inkscape:connector-curvature="0"
       style="fill:#ff4a00" />
  </g>
</svg>
