<?xml version="1.0" encoding="UTF-8" standalone="no"?>
<svg
   xmlns:dc="http://purl.org/dc/elements/1.1/"
   xmlns:cc="http://creativecommons.org/ns#"
   xmlns:rdf="http://www.w3.org/1999/02/22-rdf-syntax-ns#"
   xmlns:svg="http://www.w3.org/2000/svg"
   xmlns="http://www.w3.org/2000/svg"
   xmlns:sodipodi="http://sodipodi.sourceforge.net/DTD/sodipodi-0.dtd"
   xmlns:inkscape="http://www.inkscape.org/namespaces/inkscape"
   width="256.00003"
   height="117.1056"
   viewBox="0 0 256.00003 117.1056"
   id="svg5269"
   version="1.1"
   inkscape:version="0.91 r13725"
   sodipodi:docname="zapier-official.svg">
  <metadata
     id="metadata5279">
    <rdf:RDF>
      <cc:Work
         rdf:about="">
        <dc:format>image/svg+xml</dc:format>
        <dc:type
           rdf:resource="http://purl.org/dc/dcmitype/StillImage" />
        <dc:title>zapier-logo</dc:title>
      </cc:Work>
    </rdf:RDF>
  </metadata>
  <defs
     id="defs5277" />
  <sodipodi:namedview
     pagecolor="#ffffff"
     bordercolor="#666666"
     borderopacity="1"
     objecttolerance="10"
     gridtolerance="10"
     guidetolerance="10"
     inkscape:pageopacity="0"
     inkscape:pageshadow="2"
     inkscape:window-width="1855"
     inkscape:window-height="1056"
     id="namedview5275"
     showgrid="false"
     fit-margin-top="0"
     fit-margin-left="0"
     fit-margin-right="0"
     fit-margin-bottom="0"
     inkscape:zoom="2.4"
     inkscape:cx="250"
     inkscape:cy="114.50002"
     inkscape:window-x="65"
     inkscape:window-y="24"
     inkscape:window-maximized="1"
     inkscape:current-layer="svg5269" />
  <title
     id="title5271">zapier-logo</title>
  <path
     d="m 153.61812,50.84713 -6.3811,0 c -0.13108,-0.52224 -0.22887,-1.12795 -0.29389,-1.81557 a 20.821159,20.821159 0 0 1 0,-4.02435 c 0.065,-0.68608 0.16281,-1.29127 0.29389,-1.81659 l 15.90285,0 0,50.35714 a 23.76723,23.76723 0 0 1 -2.40489,0.29287 33.336587,33.336587 0 0 1 -2.40642,0.0973 32.220418,32.220418 0 0 1 -2.30504,-0.0973 23.69555,23.69555 0 0 1 -2.40386,-0.29441 l 0,-42.70114 0,10e-4 z m 55.36147,12.66391 c 0,-1.83298 -0.24576,-3.58301 -0.73524,-5.25316 -0.49152,-1.6676 -1.21345,-3.12323 -2.15963,-4.3674 -0.95079,-1.24212 -2.16066,-2.24104 -3.63318,-2.99317 -1.47201,-0.75265 -3.22307,-1.12948 -5.25163,-1.12948 -3.99158,0 -7.05132,1.21242 -9.17767,3.63266 -2.12686,2.42076 -3.41865,5.79077 -3.87741,10.11055 l 24.83527,0 z m -24.93255,7.26329 c 0.13107,5.49688 1.55444,9.52225 4.27011,12.07306 2.71465,2.55182 6.72364,3.82979 12.02442,3.82979 4.6449,0 9.06247,-0.81921 13.25067,-2.45506 0.52224,0.98151 0.9472,2.17601 1.27489,3.583 a 23.362747,23.362747 0 0 1 0.5888,4.1713 c -2.1581,0.91853 -4.53226,1.60257 -7.11532,2.06184 -2.58664,0.45671 -5.44926,0.68711 -8.58836,0.68711 -4.58243,0 -8.5095,-0.64001 -11.77967,-1.9149 -3.27273,-1.27745 -5.97202,-3.07714 -8.09889,-5.39908 -2.12635,-2.32245 -3.6813,-5.0714 -4.66282,-8.24583 -0.981,-3.17288 -1.47303,-6.6581 -1.47303,-10.45358 0,-3.72995 0.47411,-7.21516 1.42337,-10.45513 0.94721,-3.2374 2.40642,-6.05189 4.36739,-8.44038 1.96405,-2.38953 4.43396,-4.2865 7.41178,-5.69349 2.97628,-1.40699 6.49323,-2.1115 10.5524,-2.1115 3.4678,0 6.51064,0.58982 9.12903,1.76743 2.61634,1.17761 4.80926,2.79759 6.5767,4.85892 1.76641,2.06184 3.10786,4.51588 4.02435,7.36109 0.91546,2.84776 1.37524,5.93924 1.37524,9.27751 0,0.91649 -0.0348,1.8811 -0.0998,2.89487 a 98.651413,98.651413 0 0 1 -0.19559,2.60098 l -34.25768,0 0.001,0.002 z m 45.25604,-27.58371 a 27.433179,27.433179 0 0 1 2.06133,-0.29389 c 0.65281,-0.064 1.34145,-0.0973 2.06133,-0.0973 0.71988,0 1.43873,0.0333 2.15963,0.0973 0.71937,0.0666 1.37422,0.16487 1.96354,0.29389 0.19456,0.98202 0.39117,2.27586 0.58676,3.87741 0.19609,1.60359 0.29593,2.96041 0.29593,4.0735 1.37371,-2.22414 3.18979,-4.15593 5.4467,-5.7923 2.25794,-1.63483 5.15332,-2.45404 8.68666,-2.45404 0.52327,0 1.06293,0.0174 1.61947,0.0502 0.47617,0.0256 0.95233,0.0737 1.42337,0.14592 0.13005,0.58983 0.23041,1.21243 0.29492,1.86574 0.0645,0.65383 0.0973,1.34146 0.0973,2.06082 0,0.78593 -0.0486,1.60462 -0.14643,2.45352 a 50.843543,50.843543 0 0 1 -0.34305,2.45353 6.7625501,6.7625501 0 0 0 -1.62049,-0.1961 l -1.32609,0 c -1.76641,0 -3.45193,0.24576 -5.05502,0.73575 -1.60462,0.49152 -3.04335,1.35886 -4.31926,2.60098 -1.27489,1.24417 -2.2902,2.94607 -3.04131,5.10571 -0.75418,2.15963 -1.12948,4.94084 -1.12948,8.3431 l 0,25.03188 c -0.79616,0.13824 -1.59899,0.23706 -2.40539,0.29389 -0.88219,0.0655 -1.6845,0.0973 -2.40386,0.0973 a 33.029384,33.029384 0 0 1 -2.4054,-0.0973 28.621029,28.621029 0 0 1 -2.5037,-0.29337 l 0,-50.35561 z m -68.8922,-26.88841 a 9.755726,9.755726 0 0 1 -0.62618,3.43965 9.7690382,9.7690382 0 0 1 -3.44067,0.62669 l -0.0143,0 a 9.7587981,9.7587981 0 0 1 -3.44067,-0.62618 9.745998,9.745998 0 0 1 -0.6272,-3.44067 l 0,-0.0154 c 0,-1.21089 0.22221,-2.37058 0.62464,-3.44067 a 9.7372939,9.7372939 0 0 1 3.44169,-0.62618 l 0.0133,0 c 1.21141,0 2.37058,0.22221 3.44067,0.62618 a 9.7398539,9.7398539 0 0 1 0.62618,3.44067 l 0,0.0154 0.002,0 z m 11.99421,-2.72386 -9.51099,0 6.72466,-6.72517 a 16.360579,16.360579 0 0 0 -3.84105,-3.84003 l -6.72569,6.72517 0,-9.5115 A 16.371843,16.371843 0 0 0 156.34557,0 l -0.0174,0 c -0.92263,0 -1.82632,0.0789 -2.70696,0.22682 l 0,9.5115 -6.72722,-6.72568 a 16.27149,16.27149 0 0 0 -2.07874,1.75924 l -0.003,0.003 a 16.396931,16.396931 0 0 0 -1.75771,2.07874 l 6.72722,6.72466 -9.51304,0 c 0,0 -0.2263,1.7869 -0.2263,2.71055 l 0,0.0113 c 0,0.92365 0.0783,1.82887 0.22681,2.71003 l 9.51304,0 -6.72825,6.72415 a 16.409731,16.409731 0 0 0 3.84157,3.84106 l 6.7262,-6.72466 0,9.51201 c 0.87962,0.14746 1.78177,0.22528 2.70338,0.2263 l 0.023,0 a 16.440452,16.440452 0 0 0 2.70338,-0.2263 l 0,-9.51201 6.72671,6.72619 a 16.420995,16.420995 0 0 0 2.08027,-1.75924 l 0.002,0 a 16.453252,16.453252 0 0 0 1.7572,-2.08027 l -6.72466,-6.72671 9.51303,0 c 0.14746,-0.88065 0.22529,-1.7828 0.22529,-2.70441 l 0,-0.0236 c 0,-0.90625 -0.0758,-1.80994 -0.22529,-2.70338 l 0,-10e-4 z M 0,92.17405 26.50338,50.94543 l -23.3627469,0 C 2.9450476,49.76783 2.8472548,48.46017 2.8472548,47.0199 c 0,-1.37371 0.099329,-2.65116 0.2954263,-3.82979 l 37.7910219,0 0.491524,1.27847 -26.699477,41.32488 25.029832,0 c 0.196098,1.30919 0.294914,2.64962 0.294914,4.02333 0,1.31073 -0.0983,2.55336 -0.294402,3.73097 l -39.26457007,0 L 0,92.17252 Z M 76.465764,69.8901 c -0.981512,-0.12954 -2.22517,-0.25908 -3.72995,-0.39168 -1.505292,-0.12954 -2.781206,-0.1961 -3.826719,-0.1961 -4.058144,0 -7.150137,0.75264 -9.275466,2.25794 -2.128401,1.50631 -3.189785,3.79548 -3.189785,6.87109 0,1.96302 0.358402,3.50108 1.078792,4.61316 0.718854,1.11412 1.619469,1.96302 2.699286,2.55234 1.080328,0.5888 2.273298,0.94925 3.581468,1.08033 1.308171,0.13056 2.552341,0.19558 3.72995,0.19558 1.505292,0 3.059225,-0.0819 4.662822,-0.24576 1.602572,-0.16231 3.025944,-0.40858 4.270114,-0.73575 l 0,-16.00115 z m 0,-9.52021 c 0,-3.86255 -0.981512,-6.54546 -2.944024,-8.05075 -1.964048,-1.50529 -4.810278,-2.25794 -8.540228,-2.25794 -2.292242,0 -4.433956,0.18125 -6.429236,0.54068 a 49.18977,49.18977 0 0 0 -5.841966,1.42184 c -1.24417,-2.15964 -1.863695,-4.7427 -1.863695,-7.75482 2.222098,-0.71885 4.675621,-1.27489 7.360059,-1.6676 2.682901,-0.39322 5.267498,-0.58982 7.755326,-0.58982 6.543412,0 11.516508,1.48993 14.919799,4.46723 3.401755,2.97986 5.104681,7.73997 5.104681,14.28287 l 0,31.50975 c -2.29173,0.52327 -5.071913,1.06292 -8.343619,1.61947 a 59.790302,59.790302 0 0 1 -10.01224,0.83457 c -3.20617,0 -6.103089,-0.29338 -8.686661,-0.8827 -2.585621,-0.59034 -4.778023,-1.53703 -6.577205,-2.84776 -1.80123,-1.30766 -3.189786,-2.97679 -4.172833,-5.00484 -0.981,-2.02908 -1.472012,-4.4826 -1.472012,-7.36262 0,-2.81295 0.57242,-5.28388 1.717774,-7.41177 a 15.47942,15.47942 0 0 1 4.663333,-5.30027 c 1.963024,-1.40494 4.22045,-2.45352 6.77279,-3.13961 2.552852,-0.68762 5.23473,-1.03169 8.048704,-1.03169 2.094097,0 3.811871,0.0502 5.153834,0.14848 1.340426,0.0973 2.469907,0.21197 3.386395,0.34305 l 0,-1.86523 z M 106.30536,85.3004 a 19.261594,19.261594 0 0 0 3.82877,0.98202 c 1.30868,0.19712 3.00854,0.29492 5.10468,0.29492 2.35522,0 4.51383,-0.3753 6.47685,-1.12795 1.96405,-0.75111 3.64854,-1.91387 5.05553,-3.48521 1.40699,-1.56981 2.51906,-3.54819 3.33724,-5.93925 0.81767,-2.38696 1.22779,-5.2163 1.22779,-8.49005 0,-5.23473 -0.96667,-9.39016 -2.8959,-12.46628 -1.93179,-3.07509 -5.08932,-4.61315 -9.47207,-4.61315 -1.63586,0 -3.20771,0.29389 -4.71044,0.88372 -1.50734,0.5888 -2.84777,1.47252 -4.02589,2.65013 -1.17761,1.17761 -2.12635,2.66754 -2.84572,4.46672 -0.72192,1.80123 -1.08033,3.94243 -1.08033,6.42975 l 0,20.41616 0,-0.001 z M 96.587525,43.1896 c 0.665605,-0.13108 1.33633,-0.22887 2.012176,-0.29389 a 22.871223,22.871223 0 0 1 2.110989,-0.0973 c 0.6523,0 1.33889,0.0338 2.06031,0.0973 0.71885,0.0666 1.40596,0.16537 2.06133,0.2944 0.0645,0.13312 0.14745,0.54016 0.24576,1.22778 0.0973,0.68763 0.19558,1.42338 0.2944,2.20777 0.0983,0.78592 0.1961,1.5401 0.2944,2.25793 0.0983,0.72091 0.14746,1.17915 0.14746,1.37525 0.65281,-1.04603 1.43873,-2.06133 2.35522,-3.04284 0.91649,-0.98203 2.01371,-1.86523 3.28963,-2.64962 1.27591,-0.78593 2.71464,-1.40699 4.31875,-1.86575 1.60257,-0.45773 3.38588,-0.68864 5.34942,-0.68864 2.94402,0 5.67659,0.49152 8.19718,1.47355 2.51804,0.98304 4.67614,2.50216 6.47686,4.564 1.79867,2.06184 3.20514,4.67972 4.22045,7.85261 1.01376,3.17647 1.52065,6.92229 1.52065,11.24053 0,8.63751 -2.33986,15.39597 -7.01958,20.27025 -4.67972,4.87581 -11.30351,7.31244 -19.876,7.31244 -1.44026,0 -2.91176,-0.0983 -4.41706,-0.2944 -1.50631,-0.19712 -2.81397,-0.45927 -3.92707,-0.78491 l 0,23.06784 a 28.523748,28.523748 0 0 1 -2.50165,0.2944 c -0.88423,0.064 -1.68654,0.0973 -2.40642,0.0973 a 33.305866,33.305866 0 0 1 -2.40437,-0.0973 23.71091,23.71091 0 0 1 -2.404371,-0.2944 l 0,-73.52379 z"
     id="path5273"
     inkscape:connector-curvature="0"
     style="fill:#ff4a00" />
</svg>
