<?xml version="1.0" encoding="UTF-8" standalone="no"?>
<svg
   xmlns:dc="http://purl.org/dc/elements/1.1/"
   xmlns:cc="http://creativecommons.org/ns#"
   xmlns:rdf="http://www.w3.org/1999/02/22-rdf-syntax-ns#"
   xmlns:svg="http://www.w3.org/2000/svg"
   xmlns="http://www.w3.org/2000/svg"
   xmlns:sodipodi="http://sodipodi.sourceforge.net/DTD/sodipodi-0.dtd"
   xmlns:inkscape="http://www.inkscape.org/namespaces/inkscape"
   width="64"
   height="64"
   viewBox="0 0 64 64"
   version="1.1"
   id="svg138"
   sodipodi:docname="paychex-icon.svg"
   inkscape:version="0.92.3 (2405546, 2018-03-11)">
  <metadata
     id="metadata142">
    <rdf:RDF>
      <cc:Work
         rdf:about="">
        <dc:format>image/svg+xml</dc:format>
        <dc:type
           rdf:resource="http://purl.org/dc/dcmitype/StillImage" />
        <dc:title>Artboard 2</dc:title>
      </cc:Work>
    </rdf:RDF>
  </metadata>
  <sodipodi:namedview
     pagecolor="#ffffff"
     bordercolor="#666666"
     borderopacity="1"
     objecttolerance="10"
     gridtolerance="10"
     guidetolerance="10"
     inkscape:pageopacity="0"
     inkscape:pageshadow="2"
     inkscape:window-width="1920"
     inkscape:window-height="1001"
     id="namedview140"
     showgrid="false"
     inkscape:zoom="1.2649254"
     inkscape:cx="-89.009687"
     inkscape:cy="85.553658"
     inkscape:window-x="-9"
     inkscape:window-y="-9"
     inkscape:window-maximized="1"
     inkscape:current-layer="svg138" />
  <!-- Generator: Sketch 47.1 (45422) - http://www.bohemiancoding.com/sketch -->
  <title
     id="title2">Artboard 2</title>
  <desc
     id="desc4">Created with Sketch.</desc>
  <defs
     id="defs22">
    <path
       d="M 172,19.124668 C 154.34676,7.057429 132.99756,0 110,0 49.248677,0 0,49.248677 0,110 c 0,60.75132 49.248677,110 110,110 60.75132,0 110,-49.24868 110,-110 0,-6.82993 -0.62247,-13.514475 -1.81376,-20 H 186 c -7.73199,0 -14,-6.268013 -14,-14 z"
       id="path-1"
       inkscape:connector-curvature="0" />
    <filter
       x="-0.094999999"
       y="-0.068000004"
       width="1.191"
       height="1.191"
       filterUnits="objectBoundingBox"
       id="filter-2">
      <feOffset
         dx="0"
         dy="6"
         in="SourceAlpha"
         result="shadowOffsetOuter1"
         id="feOffset7" />
      <feGaussianBlur
         stdDeviation="6"
         in="shadowOffsetOuter1"
         result="shadowBlurOuter1"
         id="feGaussianBlur9" />
      <feColorMatrix
         values="0 0 0 0 0   0 0 0 0 0   0 0 0 0 0  0 0 0 0.0963541667 0"
         type="matrix"
         in="shadowBlurOuter1"
         id="feColorMatrix11" />
    </filter>
    <rect
       id="path-3"
       x="193"
       y="6"
       width="330"
       height="150"
       rx="6" />
    <filter
       x="-0.064000003"
       y="-0.1"
       width="1.127"
       height="1.28"
       filterUnits="objectBoundingBox"
       id="filter-4">
      <feOffset
         dx="0"
         dy="6"
         in="SourceAlpha"
         result="shadowOffsetOuter1"
         id="feOffset15" />
      <feGaussianBlur
         stdDeviation="6"
         in="shadowOffsetOuter1"
         result="shadowBlurOuter1"
         id="feGaussianBlur17" />
      <feColorMatrix
         values="0 0 0 0 0   0 0 0 0 0   0 0 0 0 0  0 0 0 0.0963541667 0"
         type="matrix"
         in="shadowBlurOuter1"
         id="feColorMatrix19" />
    </filter>
  </defs>
  <rect
     style="fill:none;fill-rule:evenodd;stroke:none;stroke-width:1"
     height="347"
     width="536"
     y="-283"
     x="0"
     id="Clip" />
  <path
     style="fill:#004b8d;fill-rule:nonzero;stroke:none;stroke-width:0.8210963;fill-opacity:1"
     inkscape:connector-curvature="0"
     id="path129"
     d="M 64.000002,54.425598 C 64.000002,59.7504 59.699206,64 54.4256,64 H 9.6000053 C 4.295682,64 1.59e-6,59.7504 1.59e-6,54.425598 V 9.6000003 C 1.59e-6,4.3007998 4.2982438,-1.4e-7 9.6000053,-1.4e-7 H 54.4256 c 5.273606,0 9.574402,4.29875214 9.574402,9.60000044 V 54.425598" />
  <path
     style="fill:#ffffff;stroke-width:1.05272877"
     inkscape:connector-curvature="0"
     id="path4"
     d="m 30.315619,22.262263 h 4.210936 c 2.631817,0 5.368924,0.526363 5.368924,3.579283 0,2.631816 -1.684381,4.526747 -6.632202,4.526747 H 28.631268 Z M 11.787613,52.054481 H 23.99926 l 2.526555,-12.106357 h 8.316552 c 10.527296,0 17.37002,-6.948014 17.37002,-15.054043 0,-8.842916 -4.73727,-12.948562 -12.106386,-12.948562 H 20.209426 Z"
     class="st0" />
</svg>
