<svg xmlns="http://www.w3.org/2000/svg" xmlns:xlink="http://www.w3.org/1999/xlink" width="120" height="60"><g transform="matrix(.293753 0 0 .293753 6.241652 12.66668)"><path d="M32.6 67.4H3.044l.017.433.05.833.022.356.08.962.02.215.115 1.065a1.16 1.16 0 0 0 .011.103l.15 1.144c.342 2.37.85 4.704 1.53 6.998l.01.03.353 1.14.02.063.325.968.086.244.304.837.143.378.27.7.213.52.226.54.3.658.175.4.368.787.122.252.443.895.07.137.54 1.025.115.2L34.447 74c-.996-2.1-1.616-4.332-1.846-6.6zM4.44 80.962l.008.027.954-.3z" fill="#93d500"/><path d="M39.865 80.977l-20.9 20.89.323.298.893.792.71.602.192.16.812.654.105.083.894.686a.23.23 0 0 1 .034.025l3.895 2.633.14.085.767.453.47.268.446.25.814.44.113.06 2.303 1.118 11.247-27.32c-1.142-.61-2.238-1.334-3.27-2.18z" fill="#4d5a31"/><path d="M37.697 78.904l-.65-.765-.54-.697-.578-.818-.54-.843-25.276 15.225 1.302 2.045.105.154.006.01 1.358 1.914.03.04.03.04.614.8.737.915.158.19.604.713.266.302.524.6.297.322.135.146.4.42.16.164.7.716 20.85-20.85-.683-.73z" fill="#6ba43a"/><path d="M65.334 80.966l-.697.54.052.087 15.202 25.235 2.08-1.432c1.47-1.085 2.895-2.26 4.267-3.527l-20.822-20.82z" fill="#4d5a31"/><g fill="#93d500"><path d="M77.97 108.03l.034-.02-.001-.001-.033.02zm-.015.01h.001 0z"/><path d="M78.003 108l.2-.1-.004-.007-.196.117zm-.033.03l-.01.005z"/><path d="M77.955 108.04h.001l-.037-.062zm.015-.01l.034-.018-.034.018z"/><path d="M77.95 108.04l-.01.005.01-.004zm.005 0h-.004l.005-.002zm.005-.005l-.006.003.015-.01zm.044-.023l.198-.112-.198.112zm.194-.12l.004.007zm-.264.157h.002z"/><path d="M77.942 108.046l-.006.004.006-.003z"/><path d="M77.682 107.036l-14.706-24.4-.874.487-.896.45a20.15 20.15 0 0 1-8.632 1.953 20.1 20.1 0 0 1-5.742-.838l-.945-.332-.944-.335-11.226 27.265.082.03.086.033h.001l.022.01 2.155.825a49.94 49.94 0 0 0 10.12 2.422 17.83 17.83 0 0 1 .404.054l1.222.133.198.017.98.082.333.02.858.05.526.02.682.024 1.218.015a49.76 49.76 0 0 0 8.233-.686l.138-.02.864-.157.5-.095.505-.106.842-.185.152-.035a49.85 49.85 0 0 0 11.897-4.436l.001-.001.73-.4 1.483-.836-.024-.07.037.063.048-.028.195-.117zM39.876 49.852l.697-.54-.052-.087L25.32 24l-2.085 1.436c-1.47 1.082-2.893 2.257-4.262 3.522L39.795 49.77z"/></g><path d="M17.53 30.334l-1.384 1.445c-1.538 1.665-2.944 3.4-4.212 5.22l-.182.26-.423.625-.43.656-.156.24a49.48 49.48 0 0 0-7.7 24.627l-.027 1-.017 1h29.488l.048-1 .055-1a20.01 20.01 0 0 1 4.447-10.74c.2-.256.447-.496.672-.743s.432-.504.67-.742zm60.843-7.32l-.122-.073-.783-.465-.457-.26-.46-.256-.8-.432-.126-.066c-1.73-.904-3.505-1.7-5.318-2.4l-.14-.054-1.2-.433c-3.22-1.125-6.552-1.914-9.936-2.358l-.415-.056-.415-.046-.8-.087-.224-.02-.953-.08-1.2-.073-.434-.017v29.56c1.517.157 3.02.48 4.478.975L80.83 24.63a48.97 48.97 0 0 0-2.464-1.614z" fill="#4d5a31"/><g fill="#6ba43a"><path d="M27.013 22.924l.516.857zm0 0L27 22.92z"/><path d="M51.606 15.825l-1 .02c-2.086.084-4.168.297-6.233.643l-.136.023-.865.157-.5.094-.508.106-.84.184-.153.034a49.89 49.89 0 0 0-11.898 4.438h-.001l-2.47 1.394.003.005 15.22 25.27.874-.487a19.71 19.71 0 0 1 .895-.451 20.05 20.05 0 0 1 6.601-1.85l1-.08s.666-.034 1-.034l.001-29.487c-.334-.001-.667.013-1 .02z"/></g><path d="M102.15 62.97l-.048-.795-.026-.397-.077-.934-.02-.242-.11-1.043-.01-.084-.005-.04-.15-1.124c-.001-.01-.002-.025-.005-.035a49.56 49.56 0 0 0-1.524-6.972l-.014-.044-.328-1.063-.045-.14-.32-.954-.09-.258-.3-.823-.15-.39-.265-.678-.218-.534-.22-.526-.294-.67-.17-.378-.373-.797-.116-.242-.448-.906-.065-.125-.52-1c-.007-.01-.012-.024-.02-.035-.86-1.58-1.802-3.108-2.822-4.578L71.632 58.93a20.5 20.5 0 0 1 .974 4.477h29.56l-.016-.437z" fill="#4d5a31"/><path d="M72.722 65.408l-.048 1-.055 1c-.38 3.84-1.863 7.6-4.446 10.74-.2.256-.447.496-.672.743s-.432.504-.67.742l20.85 20.85c.237-.237.46-.482.69-.723l.69-.723c1.543-1.67 2.953-3.42 4.224-5.236l.148-.214.458-.673.395-.605.2-.295c4.782-7.51 7.34-16.02 7.685-24.607l.027-1 .017-1H72.722z" fill="#6ba43a"/><path d="M110.967 7.046c-5.395-5.395-14.142-5.395-19.536 0-4.304 4.303-5.164 10.736-2.6 15.902L58.74 53.04c-5.166-2.562-11.6-1.703-15.903 2.6a13.82 13.82 0 0 0 0 19.537 13.82 13.82 0 0 0 19.538-.001c4.303-4.303 5.162-10.736 2.6-15.903l30.09-30.09c5.167 2.562 11.6 1.703 15.902-2.6 5.396-5.393 5.396-14.14.001-19.535z" fill="#424143"/></g><g fill="#424143"><path d="M42.582 26.406c0-3.464 2.533-5.946 6.015-5.946 3.464 0 5.997 2.482 5.997 5.946s-2.533 5.946-5.997 5.946c-3.48 0-6.015-2.482-6.015-5.946zm9.496 0c0-2.154-1.36-3.774-3.48-3.774-2.137 0-3.5 1.62-3.5 3.774 0 2.137 1.36 3.774 3.5 3.774 2.12 0 3.48-1.637 3.48-3.774z"/><use xlink:href="#B"/><path d="M66.225 32.144V20.65h8.134v2.154h-5.687v2.413h5.567v2.154h-5.567V30h5.687v2.154zm17.542 0l-5.48-7.497v7.497H75.84V20.65h2.516l5.325 7.22v-7.22h2.447v11.495zm12.72 0l-.724-1.947h-4.93l-.724 1.947h-2.775l4.43-11.495h3.068l4.428 11.495zm-3.188-9.048l-1.792 4.946H95.1z"/><use xlink:href="#B" x="44.012"/><path d="M110.236 32.144V20.65h2.447v11.495z"/></g><path d="M71.445 39.54v-3.832h.672v3.832zm5.795 0l-2-2.74v2.74h-.672v-3.832h.7l1.96 2.654v-2.654h.672v3.832zm3.102 0v-3.832h.672v3.832zm4.038 0V36.3h-1.16v-.592h2.993v.592h-1.16v3.24zm4.038 0v-3.832h.672v3.832zm5.814 0l-.282-.74h-1.758l-.282.74h-.764l1.505-3.832h.838l1.505 3.832zm-1.16-3.16l-.7 1.827h1.38zm4.514 3.16V36.3h-1.16v-.592h2.993v.592h-1.16v3.24zm4.038 0v-3.832h.672v3.832zm4.234 0l-1.506-3.832h.764l1.16 3.096 1.16-3.096h.764l-1.505 3.832zm4.392 0v-3.832h2.625v.592h-1.953v.988h1.913v.592h-1.913v1.07h1.953v.592h-2.625z" fill="#6ba43a"/><defs ><path id="B" d="M55.885 32.144V20.65h5.377c2.5 0 3.86 1.69 3.86 3.705 0 2-1.38 3.688-3.86 3.688h-2.93v4.102zm6.74-7.8c0-.965-.74-1.55-1.706-1.55h-2.585v3.085h2.585c.965 0 1.706-.586 1.706-1.534z"/></defs></svg>