<?xml version="1.0" encoding="UTF-8" standalone="no"?>
<svg
   xmlns:dc="http://purl.org/dc/elements/1.1/"
   xmlns:cc="http://creativecommons.org/ns#"
   xmlns:rdf="http://www.w3.org/1999/02/22-rdf-syntax-ns#"
   xmlns:svg="http://www.w3.org/2000/svg"
   xmlns="http://www.w3.org/2000/svg"
   xmlns:sodipodi="http://sodipodi.sourceforge.net/DTD/sodipodi-0.dtd"
   xmlns:inkscape="http://www.inkscape.org/namespaces/inkscape"
   viewBox="0 0 120 59.999998"
   version="1.1"
   id="svg4"
   sodipodi:docname="wireshark-ar21.svg"
   width="120"
   height="60"
   inkscape:version="0.92.2 (5c3e80d, 2017-08-06)">
  <metadata
     id="metadata10">
    <rdf:RDF>
      <cc:Work
         rdf:about="">
        <dc:format>image/svg+xml</dc:format>
        <dc:type
           rdf:resource="http://purl.org/dc/dcmitype/StillImage" />
        <dc:title></dc:title>
      </cc:Work>
    </rdf:RDF>
  </metadata>
  <defs
     id="defs8" />
  <sodipodi:namedview
     pagecolor="#ffffff"
     bordercolor="#666666"
     borderopacity="1"
     objecttolerance="10"
     gridtolerance="10"
     guidetolerance="10"
     inkscape:pageopacity="0"
     inkscape:pageshadow="2"
     inkscape:window-width="1920"
     inkscape:window-height="1001"
     id="namedview6"
     showgrid="false"
     inkscape:zoom="4.3822522"
     inkscape:cx="46.37896"
     inkscape:cy="38.252487"
     inkscape:window-x="-9"
     inkscape:window-y="-9"
     inkscape:window-maximized="1"
     inkscape:current-layer="svg4" />
  <path
     d="m 61.855018,12.945462 c -5.860768,0.0914 -9.194419,3.540657 -10.941898,6.890436 -1.5324,2.925006 -1.85501,5.446749 -1.935666,6.134987 H 7.2530883 v 1.156023 H 49.461373 a 0.57801153,0.57801153 0 0 0 0.564568,-0.529619 c 0,0 0.295727,-3.110509 1.908781,-6.226395 1.505521,-2.908876 4.140178,-5.737099 8.898693,-6.18069 -2.930384,5.844637 0.295727,12.619471 0.295727,12.619471 a 0.57801153,0.57801153 0 0 0 0.5108,0.333364 H 112.90822 V 25.987017 H 62.043203 C 61.666826,25.105212 59.166588,18.838492 62.33893,13.832642 a 0.57801153,0.57801153 0 0 0 -0.483912,-0.88718 z M 10.18885,41.899807 7.0917822,28.9174 h 1.5834833 l 1.7770505,8.51962 c 0.190877,0.887182 0.357559,1.774362 0.49467,2.661542 0.295727,-1.397981 0.470473,-2.177625 0.524243,-2.3927 L 13.694557,28.9174 h 1.863078 l 1.669512,6.583954 c 0.422084,1.63994 0.725875,3.172342 0.911377,4.597208 0.147863,-0.833412 0.34143,-1.77436 0.580701,-2.822846 L 20.550042,28.9174 h 1.55391 L 18.902036,41.899807 H 17.41265 l -2.45991,-9.888028 c -0.209698,-0.828039 -0.330676,-1.33615 -0.365626,-1.524339 -0.123667,0.59683 -0.23927,1.104944 -0.344119,1.524339 l -2.47604,9.888028 z m 13.608811,0 V 28.9174 h 1.548533 v 12.982407 z m 4.290728,0 V 28.9174 h 5.161776 c 1.048486,0 1.855014,0.118291 2.419584,0.352184 0.510801,0.233891 0.967832,0.645222 1.290444,1.236676 0.295726,0.591451 0.483917,1.242053 0.483917,1.957175 0,0.922128 -0.295728,1.693707 -0.806529,2.338927 -0.537685,0.618341 -1.371097,1.021602 -2.473351,1.209793 0.403265,0.215075 0.698991,0.430149 0.914065,0.64522 0.457032,0.457035 0.88718,1.021603 1.263561,1.720595 l 2.043202,3.521837 H 36.449393 L 34.890105,39.211382 C 34.459957,38.431738 34.083577,37.840286 33.760966,37.410136 33.492124,37.006874 33.223281,36.711147 32.981323,36.54984 32.766249,36.388533 32.497406,36.280998 32.282331,36.200347 32.094142,36.173477 31.8253,36.146577 31.422036,36.146577 H 29.62079 v 5.753233 z m 1.532401,-7.231864 h 3.333649 c 0.725874,0 1.263559,-0.08065 1.666824,-0.268843 0.403263,-0.161307 0.69899,-0.403266 0.914064,-0.768888 0.188191,-0.357563 0.295728,-0.747383 0.295728,-1.166777 0,-0.612964 -0.188191,-1.118388 -0.591455,-1.513584 -0.403264,-0.397889 -1.048486,-0.594144 -1.908782,-0.594144 H 29.62079 Z m 10.269787,7.231864 V 28.9174 h 8.441657 v 1.53509 h -6.88237 v 3.973493 h 6.425337 v 1.532405 h -6.425337 v 4.409016 h 7.151213 v 1.532403 z m 10.189132,-4.220829 2.285164,-0.241958 c 0.161307,0.860299 0.43015,1.478636 0.860294,1.881896 0.430151,0.403267 0.994719,0.618342 1.693708,0.618342 0.779644,0 1.317329,-0.188191 1.747478,-0.537685 0.376378,-0.376381 0.537686,-0.779644 0.537686,-1.263561 0,-0.295726 -0.05378,-0.564569 -0.215075,-0.779644 -0.188188,-0.215074 -0.45703,-0.403262 -0.860296,-0.564568 -0.268843,-0.107537 -0.914063,-0.295727 -1.881898,-0.56457 -1.263561,-0.349498 -2.15074,-0.779644 -2.661541,-1.290445 -0.725877,-0.725876 -1.07537,-1.586171 -1.07537,-2.615838 0,-0.658666 0.161307,-1.277003 0.510802,-1.855014 0.32261,-0.575323 0.806526,-1.013539 1.451747,-1.31464 0.645225,-0.303793 1.397985,-0.454344 2.285164,-0.454344 1.451749,0 2.580889,0.357561 3.333645,1.072683 0.725877,0.715121 1.102258,1.669509 1.156026,2.863175 l -2.365814,0.115599 c -0.107537,-0.666731 -0.295727,-1.147957 -0.645225,-1.438306 -0.32261,-0.295726 -0.833412,-0.440905 -1.505516,-0.440905 -0.672109,0 -1.209794,0.15593 -1.586171,0.467789 -0.268844,0.201632 -0.376383,0.470475 -0.376383,0.809214 0,0.306482 0.107537,0.569947 0.349499,0.787708 0.295726,0.279598 1.021602,0.56726 2.150741,0.868363 1.156021,0.301104 1.989432,0.623714 2.554002,0.946324 0.537684,0.322611 0.967833,0.752761 1.290444,1.31733 0.32261,0.564569 0.483918,1.236677 0.483918,2.070089 0,0.725876 -0.215076,1.424864 -0.56457,2.096972 -0.376377,0.645221 -0.887179,1.102254 -1.586172,1.424865 -0.698991,0.349494 -1.532402,0.483917 -2.554005,0.483917 -1.478632,0 -2.60777,-0.376377 -3.387414,-1.129139 -0.779643,-0.752759 -1.263561,-1.881896 -1.424868,-3.333649 z m 11.506465,4.220829 V 28.9174 h 2.365811 v 5.105323 h 4.597212 V 28.9174 h 2.365814 V 41.899807 H 68.549197 V 36.22723 h -4.597212 v 5.672577 z m 22.31393,0 h -2.580885 l -1.021602,-2.930384 h -4.650979 l -0.96783,2.930384 h -2.50024 L 76.722008,28.9174 h 2.473355 z m -4.355248,-5.134893 -1.613055,-4.814971 -1.586171,4.814971 z m 5.591926,5.134893 V 28.9174 h 4.973589 c 1.263557,0 2.177624,0.118291 2.742194,0.352184 0.537684,0.233891 1.021602,0.647909 1.344212,1.244739 0.32261,0.596831 0.510801,1.279694 0.510801,2.048583 0,0.973208 -0.268842,1.782427 -0.779643,2.427647 -0.510802,0.618336 -1.290445,1.021602 -2.312048,1.18291 0.510802,0.349494 0.940951,0.698987 1.263561,1.102253 0.349494,0.403262 0.779643,1.102254 1.344213,2.096973 l 1.424867,2.527118 H 92.852565 L 91.13197,39.076959 C 90.513634,38.082244 90.110371,37.43702 89.895297,37.168177 89.653338,36.926218 89.438263,36.738031 89.16942,36.630492 88.927462,36.549843 88.524199,36.496073 87.986515,36.496073 h -0.483918 v 5.403734 z m 2.365815,-7.473824 h 1.747475 c 1.156026,0 1.82813,-0.05376 2.123856,-0.161306 0.295726,-0.107537 0.510802,-0.295727 0.645225,-0.559192 0.188187,-0.260778 0.268842,-0.583387 0.268842,-0.975898 0,-0.435524 -0.107537,-0.790396 -0.349498,-1.05655 -0.188187,-0.268844 -0.483913,-0.440901 -0.860295,-0.510802 -0.188191,-0.02959 -0.75276,-0.04571 -1.72059,-0.04571 h -1.855015 z m 9.463252,7.473824 V 28.9174 h 2.338935 v 5.777426 L 104.09019,28.9174 h 3.17234 l -4.40902,5.078434 4.65098,7.903973 h -3.06479 l -3.22612,-6.075843 -1.908796,2.150741 v 3.925102 z"
     id="path2"
     inkscape:connector-curvature="0"
     style="stroke-width:0.26884258" />
</svg>
