<?xml version="1.0" encoding="UTF-8" standalone="no"?>
<svg
   xmlns:dc="http://purl.org/dc/elements/1.1/"
   xmlns:cc="http://creativecommons.org/ns#"
   xmlns:rdf="http://www.w3.org/1999/02/22-rdf-syntax-ns#"
   xmlns:svg="http://www.w3.org/2000/svg"
   xmlns="http://www.w3.org/2000/svg"
   xmlns:sodipodi="http://sodipodi.sourceforge.net/DTD/sodipodi-0.dtd"
   xmlns:inkscape="http://www.inkscape.org/namespaces/inkscape"
   width="120"
   height="60"
   version="1.1"
   id="svg8"
   sodipodi:docname="dotdash-ar21.svg"
   inkscape:version="0.92.4 (5da689c313, 2019-01-14)">
  <metadata
     id="metadata14">
    <rdf:RDF>
      <cc:Work
         rdf:about="">
        <dc:format>image/svg+xml</dc:format>
        <dc:type
           rdf:resource="http://purl.org/dc/dcmitype/StillImage" />
        <dc:title></dc:title>
      </cc:Work>
    </rdf:RDF>
  </metadata>
  <defs
     id="defs12" />
  <sodipodi:namedview
     pagecolor="#ffffff"
     bordercolor="#666666"
     borderopacity="1"
     objecttolerance="10"
     gridtolerance="10"
     guidetolerance="10"
     inkscape:pageopacity="0"
     inkscape:pageshadow="2"
     inkscape:window-width="1920"
     inkscape:window-height="1001"
     id="namedview10"
     showgrid="false"
     inkscape:zoom="1.356"
     inkscape:cx="125"
     inkscape:cy="41"
     inkscape:window-x="-9"
     inkscape:window-y="-9"
     inkscape:window-maximized="1"
     inkscape:current-layer="svg8" />
  <g
     id="g6"
     style="fill:none"
     transform="matrix(0.3460608,0,0,0.3460608,16.759703,15.847844)">
    <path
       d="M 11.918,58.064 C 5.463,58.064 0,63.472 0,69.874 0,76.328 5.458,81.79 11.918,81.79 c 6.401,0 11.81,-5.45 11.81,-11.916 0,-6.402 -5.409,-11.81 -11.81,-11.81"
       id="path2"
       inkscape:connector-curvature="0"
       style="fill:#ea2200" />
    <path
       d="m 181.695,41.583 a 20.08,20.08 0 0 0 -5.147,-3.505 14.225,14.225 0 0 0 -6.244,-1.424 10.977,10.977 0 0 0 -4.656,0.985 c -1.424,0.658 -2.137,1.79 -2.137,3.397 0,1.53 0.785,2.625 2.355,3.286 1.57,0.66 4.108,1.39 7.614,2.191 a 41.114,41.114 0 0 1 6.189,1.865 21.903,21.903 0 0 1 5.644,3.174 15.23,15.23 0 0 1 4.053,4.82 c 1.021,1.9 1.532,4.163 1.533,6.79 0,3.434 -0.693,6.337 -2.08,8.71 a 17.068,17.068 0 0 1 -5.423,5.751 23.386,23.386 0 0 1 -7.502,3.177 36.04,36.04 0 0 1 -8.32,0.986 41.15,41.15 0 0 1 -13.099,-2.136 c -4.271,-1.425 -7.831,-3.525 -10.68,-6.3 l 10.078,-10.625 a 20.072,20.072 0 0 0 5.909,4.382 16.417,16.417 0 0 0 7.458,1.753 9.782,9.782 0 0 0 4.328,-1.04 c 1.423,-0.693 2.135,-1.917 2.135,-3.67 0,-1.679 -0.876,-2.922 -2.629,-3.73 -1.752,-0.808 -4.491,-1.647 -8.215,-2.518 a 42.202,42.202 0 0 1 -5.697,-1.753 18,18 0 0 1 -5.094,-2.958 14.663,14.663 0 0 1 -3.669,-4.6 c -0.95,-1.824 -1.425,-4.015 -1.424,-6.573 0,-3.286 0.694,-6.08 2.081,-8.38 a 17.626,17.626 0 0 1 5.367,-5.642 23.887,23.887 0 0 1 7.285,-3.231 31.423,31.423 0 0 1 7.94,-1.04 38.4,38.4 0 0 1 11.996,1.916 c 3.905,1.279 7.209,3.196 9.912,5.752 l -9.86,10.19 z m 46.552,-17.63 c -5.396,0 -9.951,1.578 -13.385,4.59 V 0.096 H 197.935 V 80.15 h 16.924 V 50.26 c 0,-7.541 4.897,-10.229 9.48,-10.229 7.128,0 8.624,5.505 8.624,10.122 V 80.15 H 249.9 V 45.66 c 0,-12.779 -8.903,-21.706 -21.658,-21.706 m -138.119,9.1 a 31.45,31.45 0 0 1 11.228,-6.902 38.485,38.485 0 0 1 13.091,-2.295 c 4.6,0 8.489,0.565 11.665,1.697 3.177,1.13 5.75,2.884 7.723,5.258 1.971,2.374 3.414,5.368 4.327,8.983 0.913,3.614 1.37,7.905 1.37,12.871 V 80.034 H 122.932 V 74.35 c -10.51,13.143 -33.952,8.266 -33.952,-9.968 0,-3.3 2.401,-16.54 21.093,-18.233 3.712,-0.337 7.018,-0.17 12.479,-0.17 v -0.877 c 0,-2.7 -0.95,-4.69 -2.849,-5.97 -1.899,-1.28 -4.236,-1.918 -7.01,-1.916 -2.556,0 -5.08,0.56 -7.395,1.642 -2.373,1.096 -3.872,2.04 -5.552,3.573 z m 32.972,23.332 h -6.63 c -5.41,0 -8.361,2.279 -9.235,3.222 a 4.957,4.957 0 0 0 -1.378,3.519 c -0.025,0.84 0.2,1.667 0.644,2.38 a 4.97,4.97 0 0 0 1.635,1.586 6.925,6.925 0 0 0 2.28,0.843 c 0.814,0.16 1.64,0.244 2.47,0.248 3.304,0 5.832,-0.908 7.584,-2.725 1.751,-1.817 2.627,-4.279 2.626,-7.385 V 56.386 Z M 66.071,0 v 28.498 c -3.729,-3.102 -8.31,-4.671 -13.769,-4.671 -15.15,0 -26.578,12.368 -26.578,28.766 0,16.399 11.425,29.163 26.578,29.163 5.493,0 10.614,-1.865 14.056,-5.283 v 3.561 H 82.996 V 0 Z m 1.722,58.026 a 14.931,14.931 0 0 1 -2.698,4.609 13.434,13.434 0 0 1 -4.214,3.259 c -1.647,0.821 -3.519,1.232 -5.616,1.232 -2.174,0 -4.086,-0.412 -5.737,-1.237 a 12.765,12.765 0 0 1 -4.16,-3.258 13.716,13.716 0 0 1 -2.528,-4.665 17.453,17.453 0 0 1 -0.836,-5.327 c 0,-1.794 0.284,-3.577 0.843,-5.282 a 12.923,12.923 0 0 1 6.687,-7.756 c 1.646,-0.823 3.559,-1.235 5.737,-1.236 2.097,0 3.97,0.412 5.62,1.236 a 13.455,13.455 0 0 1 4.214,3.259 14.947,14.947 0 0 1 2.698,4.608 15.087,15.087 0 0 1 0,10.566 z"
       id="path4"
       inkscape:connector-curvature="0"
       style="fill:#000000" />
  </g>
</svg>
