<?xml version="1.0" encoding="UTF-8" standalone="no"?>
<!-- Created with Inkscape (http://www.inkscape.org/) -->

<svg
   xmlns:dc="http://purl.org/dc/elements/1.1/"
   xmlns:cc="http://creativecommons.org/ns#"
   xmlns:rdf="http://www.w3.org/1999/02/22-rdf-syntax-ns#"
   xmlns:svg="http://www.w3.org/2000/svg"
   xmlns="http://www.w3.org/2000/svg"
   xmlns:sodipodi="http://sodipodi.sourceforge.net/DTD/sodipodi-0.dtd"
   xmlns:inkscape="http://www.inkscape.org/namespaces/inkscape"
   width="120"
   height="60"
   viewBox="0 0 120 60"
   id="svg2"
   version="1.1"
   inkscape:version="0.91 r13725"
   sodipodi:docname="html5up-ar21.svg">
  <defs
     id="defs4" />
  <sodipodi:namedview
     id="base"
     pagecolor="#ffffff"
     bordercolor="#666666"
     borderopacity="1.0"
     inkscape:pageopacity="0.0"
     inkscape:pageshadow="2"
     inkscape:zoom="10"
     inkscape:cx="60"
     inkscape:cy="30"
     inkscape:document-units="px"
     inkscape:current-layer="layer1"
     showgrid="false"
     units="px"
     inkscape:window-width="1855"
     inkscape:window-height="1056"
     inkscape:window-x="65"
     inkscape:window-y="24"
     inkscape:window-maximized="1" />
  <metadata
     id="metadata7">
    <rdf:RDF>
      <cc:Work
         rdf:about="">
        <dc:format>image/svg+xml</dc:format>
        <dc:type
           rdf:resource="http://purl.org/dc/dcmitype/StillImage" />
        <dc:title></dc:title>
      </cc:Work>
    </rdf:RDF>
  </metadata>
  <g
     inkscape:label="Layer 1"
     inkscape:groupmode="layer"
     id="layer1"
     transform="translate(0,-992.36219)">
    <g
       id="g4269"
       transform="translate(-3.5540133,-0.10002542)">
      <rect
         ry="2"
         rx="2"
         y="1005.6602"
         x="9.5540133"
         height="33.801998"
         width="108.04597"
         id="rect3411"
         style="opacity:1;fill:#e7746f;fill-opacity:1;stroke:none;stroke-width:1;stroke-linecap:square;stroke-miterlimit:4;stroke-dasharray:none;stroke-dashoffset:0;stroke-opacity:1" />
      <g
         id="g4258">
        <g
           style="font-style:normal;font-variant:normal;font-weight:bold;font-stretch:normal;font-size:19.375px;line-height:125%;font-family:'Source Sans Pro';-inkscape-font-specification:'Source Sans Pro, Bold';text-align:center;letter-spacing:0px;word-spacing:0px;writing-mode:lr-tb;text-anchor:middle;fill:#ffffff;fill-opacity:1;stroke:none;stroke-width:1px;stroke-linecap:butt;stroke-linejoin:miter;stroke-opacity:1"
           id="text4215">
          <path
             d="m 22.069882,1029.0621 0,-12.6325 2.848125,0 0,4.8632 4.359375,0 0,-4.8632 2.8675,0 0,12.6325 -2.8675,0 0,-5.27 -4.359375,0 0,5.27 -2.848125,0 z"
             id="path4243"
             inkscape:connector-curvature="0" />
          <path
             d="m 37.585927,1029.0621 0,-10.23 -3.468125,0 0,-2.4025 9.80375,0 0,2.4025 -3.468125,0 0,10.23 -2.8675,0 z"
             id="path4245"
             inkscape:connector-curvature="0" />
          <path
             d="m 45.910214,1029.0621 0,-12.6325 3.119375,0 2.034375,5.6188 q 0.19375,0.5619 0.368125,1.1625 0.174375,0.5812 0.368125,1.1625 l 0.0775,0 q 0.19375,-0.5813 0.34875,-1.1625 0.174375,-0.6006 0.368125,-1.1625 l 1.995625,-5.6188 3.1,0 0,12.6325 -2.59625,0 0,-4.6306 q 0,-0.465 0.03875,-1.0269 0.03875,-0.5618 0.09687,-1.1237 0.05813,-0.5813 0.11625,-1.1238 0.05813,-0.5618 0.11625,-1.0268 l -0.0775,0 -1.026875,3.0031 -1.801875,4.8244 -1.569375,0 -1.801875,-4.8244 -1.0075,-3.0031 -0.0775,0 q 0.05812,0.465 0.11625,1.0268 0.05812,0.5425 0.11625,1.1238 0.05812,0.5619 0.09687,1.1237 0.03875,0.5619 0.03875,1.0269 l 0,4.6306 -2.5575,0 z"
             id="path4247"
             inkscape:connector-curvature="0" />
          <path
             d="m 60.668515,1029.0621 0,-12.6325 2.848125,0 0,10.23 4.99875,0 0,2.4025 -7.846875,0 z"
             id="path4249"
             inkscape:connector-curvature="0" />
          <path
             d="m 73.990341,1029.2946 q -1.51125,0 -2.5575,-0.4843 -1.04625,-0.5038 -1.7825,-1.24 l 1.27875,-1.8019 q 0.561875,0.5037 1.20125,0.8719 0.65875,0.3487 1.453125,0.3487 0.949375,0 1.51125,-0.4844 0.561875,-0.4843 0.561875,-1.4337 0,-0.93 -0.5425,-1.4144 -0.523125,-0.4844 -1.395,-0.4844 -0.27125,0 -0.484375,0.039 -0.213125,0.019 -0.42625,0.097 -0.19375,0.077 -0.42625,0.1937 -0.213125,0.1163 -0.484375,0.2906 l -1.27875,-0.8137 0.34875,-6.2194 6.975,0 0,2.4025 -4.514375,0 -0.213125,2.3056 q 0.34875,-0.155 0.65875,-0.2131 0.329375,-0.077 0.716875,-0.077 0.794375,0 1.491875,0.2325 0.716875,0.2325 1.259375,0.6975 0.5425,0.465 0.8525,1.1819 0.31,0.7169 0.31,1.705 0,1.0269 -0.368125,1.8212 -0.368125,0.7944 -0.988125,1.3563 -0.62,0.5425 -1.453125,0.8331 -0.81375,0.2906 -1.705,0.2906 z"
             id="path4251"
             inkscape:connector-curvature="0" />
        </g>
        <g
           style="font-style:normal;font-variant:normal;font-weight:300;font-stretch:normal;font-size:19.375px;line-height:125%;font-family:'Source Sans Pro';-inkscape-font-specification:'Source Sans Pro, Light';text-align:center;letter-spacing:0px;word-spacing:0px;writing-mode:lr-tb;text-anchor:middle;fill:#ffffff;fill-opacity:1;stroke:none;stroke-width:1px;stroke-linecap:butt;stroke-linejoin:miter;stroke-opacity:1"
           id="text4219">
          <path
             d="m 89.156436,1029.2946 q -0.81375,0 -1.58875,-0.2325 -0.775,-0.2518 -1.375625,-0.8331 -0.600625,-0.6006 -0.96875,-1.5887 -0.34875,-0.9882 -0.34875,-2.48 l 0,-7.8663 0.89125,0 0,7.7694 q 0,1.2787 0.27125,2.1312 0.290625,0.8332 0.755625,1.3563 0.465,0.5037 1.065625,0.7169 0.62,0.2131 1.298125,0.2131 0.6975,0 1.3175,-0.2131 0.639375,-0.2132 1.104375,-0.7169 0.484375,-0.5231 0.775,-1.3563 0.290625,-0.8525 0.290625,-2.1312 l 0,-7.7694 0.833125,0 0,7.8663 q 0,1.4918 -0.368125,2.48 -0.368125,0.9881 -0.96875,1.5887 -0.600625,0.5813 -1.375625,0.8331 -0.775,0.2325 -1.608125,0.2325 z"
             id="path4254"
             inkscape:connector-curvature="0" />
          <path
             d="m 97.211895,1029.0621 0,-12.7681 3.216245,0 q 1.085,0 1.9375,0.1938 0.87188,0.1743 1.45313,0.6006 0.60062,0.4262 0.91062,1.1044 0.32938,0.6781 0.32938,1.6662 0,1.8794 -1.20125,2.8094 -1.20125,0.9106 -3.35188,0.9106 l -2.402495,0 0,5.4831 -0.89125,0 z m 0.89125,-6.2387 2.189375,0 q 1.95687,0 2.90625,-0.6975 0.94937,-0.6975 0.94937,-2.2669 0,-1.6081 -0.98812,-2.2087 -0.96875,-0.6007 -2.945,-0.6007 l -2.111875,0 0,5.7738 z"
             id="path4256"
             inkscape:connector-curvature="0" />
        </g>
      </g>
    </g>
  </g>
</svg>
