<svg xmlns="http://www.w3.org/2000/svg" width="120" height="60"><path d="M55.773 30.7v-1.354c0-2.732-1.354-4.4-4.18-4.4a12.17 12.17 0 0 0-1.681.117V22a.36.36 0 0 0-.35-.35h-1.6a.36.36 0 0 0-.35.35v12.165c0 .257.07.374.467.467 1.074.28 2.405.444 3.502.444 2.825.023 4.203-1.634 4.203-4.366zm-2.312 0c0 1.424-.374 2.498-1.868 2.498-.63 0-1.354-.047-1.68-.117v-6.094a14.7 14.7 0 0 1 1.68-.117c1.494 0 1.868 1.074 1.868 2.498zm11.815.047v-1.424c0-2.498-1.424-4.343-4.18-4.343s-4.18 1.845-4.18 4.343v1.424c0 2.498 1.424 4.343 4.18 4.343s4.18-1.845 4.18-4.343zm-2.312 0c0 1.424-.654 2.358-1.868 2.358s-1.868-.934-1.868-2.358v-1.424c0-1.424.654-2.358 1.868-2.358s1.868.934 1.868 2.358zm9.106 3.9V33.55c0-.163-.14-.257-.374-.257h-.934c-.63 0-.677-.093-.677-.98v-5.487h1.564a.36.36 0 0 0 .35-.35V25.45a.36.36 0 0 0-.35-.35h-1.564v-1.8c0-.163-.117-.257-.28-.257h-.07l-1.634.28c-.187.023-.35.163-.35.35v1.424h-1.634a.36.36 0 0 0-.35.35v.794c0 .187.163.304.35.35l1.634.233v5.487c0 2.335.794 2.78 2.78 2.78.374 0 .77-.047 1.2-.117.233-.047.35-.14.35-.327zm9.713-3.853v-1.26c0-2.615-1.214-4.32-3.806-4.32-1.074 0-2.288.163-3.222.397-.304.07-.374.163-.374.397v12.025c0 .187.14.327.304.327h.887c.187 0 .327-.163.327-.327V34.88a13.38 13.38 0 0 0 2.055.187c2.568 0 3.83-1.54 3.83-4.273zm-1.54 0c0 1.868-.56 3-2.265 3a15.63 15.63 0 0 1-2.055-.163v-6.935c.5-.093 1.308-.163 2.055-.163 1.728 0 2.265 1.2 2.265 3.035zm7.915-4.553v-.724c0-.2-.117-.304-.374-.304-.794 0-1.588.233-2.475.84v-.374c0-.187-.14-.35-.327-.35h-.817c-.187 0-.327.163-.327.35v8.92c0 .187.163.35.327.35h.864a.36.36 0 0 0 .35-.35v-7.332c.864-.514 1.6-.724 2.405-.724.257 0 .374-.117.374-.304zm9.083 4.016v-.934c0-2.475-1.284-4.086-3.853-4.086-2.498 0-3.876 1.588-3.876 4.086v1.564c0 3.245 1.96 4.203 3.97 4.203 1.167 0 2.125-.093 3.13-.304.28-.047.35-.163.35-.397v-.584c0-.163-.14-.233-.28-.233h-.093c-.794.117-2.1.187-3.105.187-1.6 0-2.428-.77-2.428-2.85v-.233h5.86c.2-.047.327-.2.327-.42zm-1.564-.794h-4.623V29.3c0-1.9.84-2.755 2.335-2.755 1.54 0 2.288.77 2.288 2.755zm9.736 3.082c0-1.027-.467-1.775-1.915-2.638l-1.728-1.027c-.794-.467-1.214-.794-1.214-1.33 0-.887.654-1.004 1.634-1.004s2.1.093 2.708.14h.047a.28.28 0 0 0 .304-.304v-.584c0-.187-.093-.304-.327-.35-.817-.14-1.75-.233-2.732-.233-1.798 0-3.175.514-3.175 2.335 0 1.097.724 1.845 1.775 2.498l1.775 1.05c1.004.584 1.308.934 1.308 1.448 0 .934-.584 1.237-1.728 1.237-.63 0-1.915-.093-2.755-.187h-.07c-.163 0-.304.093-.304.257v.607c0 .187.14.304.374.35.864.2 2.125.257 2.755.257 1.96 0 3.27-.747 3.27-2.522zm8.15 0c0-1.027-.467-1.775-1.915-2.638l-1.728-1.027c-.794-.467-1.214-.794-1.214-1.33 0-.887.654-1.004 1.634-1.004s2.1.093 2.708.14h.047a.28.28 0 0 0 .304-.304v-.584c0-.187-.093-.304-.327-.35-.817-.14-1.75-.233-2.732-.233-1.798 0-3.175.514-3.175 2.335 0 1.097.724 1.845 1.775 2.498l1.775 1.05c1.004.584 1.308.934 1.308 1.448 0 .934-.584 1.237-1.728 1.237-.63 0-1.915-.093-2.755-.187h-.07c-.163 0-.304.093-.304.257v.607c0 .187.14.304.374.35.864.2 2.125.257 2.755.257 1.96 0 3.27-.747 3.27-2.522z" fill-rule="evenodd"/><path d="M33.27 34.012l4.792 2.786a1.79 1.79 0 0 1 .919 1.588v5.517a1.79 1.79 0 0 1-.919 1.588l-4.792 2.786a1.81 1.81 0 0 1-1.839 0L26.64 45.49a1.79 1.79 0 0 1-.919-1.588V38.72l-11.173-6.464 2.2 3.26L14 37.105a1.81 1.81 0 0 1-1.839 0L7.358 34.32a1.79 1.79 0 0 1-.919-1.588v-5.517a1.79 1.79 0 0 1 .919-1.588l4.792-2.786a1.81 1.81 0 0 1 1.839 0l2.396 1.393 2.118 1.226 7.244-4.18v-5.183a1.79 1.79 0 0 1 .919-1.588l4.792-2.786a1.81 1.81 0 0 1 1.839 0l4.792 2.786a1.79 1.79 0 0 1 .919 1.588v5.5a1.79 1.79 0 0 1-.919 1.588L33.3 25.96a1.81 1.81 0 0 1-1.839 0l-2.396-1.393-.14-.084 2.508-3.734-11.73 6.77v4.876l7.244 4.18 2.118-1.226 2.396-1.393c.585-.28 1.254-.28 1.8.056z" fill="#4ebeb8"/></svg>