<?xml version="1.0" encoding="UTF-8" standalone="no"?>
<svg
   xmlns:dc="http://purl.org/dc/elements/1.1/"
   xmlns:cc="http://creativecommons.org/ns#"
   xmlns:rdf="http://www.w3.org/1999/02/22-rdf-syntax-ns#"
   xmlns:svg="http://www.w3.org/2000/svg"
   xmlns="http://www.w3.org/2000/svg"
   xmlns:sodipodi="http://sodipodi.sourceforge.net/DTD/sodipodi-0.dtd"
   xmlns:inkscape="http://www.inkscape.org/namespaces/inkscape"
   id="Layer_1"
   data-name="Layer 1"
   viewBox="0 0 120 60"
   version="1.1"
   sodipodi:docname="weeklystandard-ar21.svg"
   width="120"
   height="60"
   inkscape:version="0.92.3 (2405546, 2018-03-11)">
  <metadata
     id="metadata53">
    <rdf:RDF>
      <cc:Work
         rdf:about="">
        <dc:format>image/svg+xml</dc:format>
        <dc:type
           rdf:resource="http://purl.org/dc/dcmitype/StillImage" />
        <dc:title>weeklystandard-ar21</dc:title>
      </cc:Work>
    </rdf:RDF>
  </metadata>
  <sodipodi:namedview
     pagecolor="#ffffff"
     bordercolor="#666666"
     borderopacity="1"
     objecttolerance="10"
     gridtolerance="10"
     guidetolerance="10"
     inkscape:pageopacity="0"
     inkscape:pageshadow="2"
     inkscape:window-width="1920"
     inkscape:window-height="1001"
     id="namedview51"
     showgrid="false"
     inkscape:zoom="3.068151"
     inkscape:cx="15.481637"
     inkscape:cy="-16.191504"
     inkscape:window-x="-9"
     inkscape:window-y="-9"
     inkscape:window-maximized="1"
     inkscape:current-layer="Layer_1" />
  <defs
     id="defs4">
    <style
       id="style2">.cls-1{fill:#212121;}.cls-2{fill:#002d62;}.cls-3{fill:#fff;}.cls-4{fill:none;stroke:#fff;stroke-width:0.91px;}</style>
  </defs>
  <title
     id="title6">weeklystandard-ar21</title>
  <g
     id="g881"
     transform="translate(4.7375,-7.0575663)">
    <path
       style="fill:#212121"
       inkscape:connector-curvature="0"
       id="path8"
       d="M 25.34,37.83"
       class="cls-1" />
    <path
       style="fill:#002d62"
       inkscape:connector-curvature="0"
       id="path10"
       d="m 42.98,14.16 h 67.51 V 44.08 H 42.98 Z"
       class="cls-2" />
    <path
       style="fill:#ffffff"
       inkscape:connector-curvature="0"
       id="path12"
       d="m 22.39,57.48 v 0 a 4.88,4.88 0 0 1 -0.93,0.09 2.5,2.5 0 0 1 -0.71,-0.09 v 0 A 1.53,1.53 0 0 1 19.66,56.26 4.86,4.86 0 0 1 19.49,55.1 v -6.6 h 4.11 v -1.3 h -4.11 v -2.95 h -1 a 5.24,5.24 0 0 1 -4,2.95 v 1.3 h 2 v 7.76 0 a 5.48,5.48 0 0 0 0.19,1.22 v 0 a 3,3 0 0 0 0.51,1 v 0 a 2.72,2.72 0 0 0 2.25,1 8.45,8.45 0 0 0 3.83,-1 v 0 l 0.52,-0.26 v -1.13 a 12.74,12.74 0 0 1 -1.41,0.39"
       class="cls-3" />
    <path
       style="fill:none;stroke:#ffffff;stroke-width:0.91000003px"
       inkscape:connector-curvature="0"
       id="path14"
       d="m 22.39,57.48 v 0 a 4.88,4.88 0 0 1 -0.93,0.09 2.5,2.5 0 0 1 -0.71,-0.09 v 0 A 1.53,1.53 0 0 1 19.66,56.26 4.86,4.86 0 0 1 19.49,55.1 v -6.6 h 4.11 v -1.3 h -4.11 v -2.95 h -1 a 5.24,5.24 0 0 1 -4,2.95 v 1.3 h 2 v 7.76 0 a 5.48,5.48 0 0 0 0.19,1.22 v 0 a 3,3 0 0 0 0.51,1 v 0 a 2.72,2.72 0 0 0 2.25,1 8.45,8.45 0 0 0 3.83,-1 v 0 l 0.52,-0.26 v -1.13 a 12.74,12.74 0 0 1 -1.41,0.39 z"
       class="cls-4" />
    <path
       style="fill:#ffffff"
       inkscape:connector-curvature="0"
       id="path16"
       d="m 27.8,56.26 a 1.09,1.09 0 0 1 0,-0.18 1.84,1.84 0 0 1 0.69,-1.44 v 0 a 13.81,13.81 0 0 1 4.19,-1.81 v 4 a 8,8 0 0 1 -1.25,0.71 v 0 a 4.38,4.38 0 0 1 -1.73,0.41 2,2 0 0 1 -1.21,-0.47 v 0 A 1.81,1.81 0 0 1 27.8,56.26 Z m 10.28,1.22 -0.22,-0.79 A 2.42,2.42 0 0 1 36.6,57.2 c -0.49,0 -0.77,-0.32 -0.85,-0.94 a 3.71,3.71 0 0 1 0,-0.47 v -5.75 a 2.17,2.17 0 0 0 0,-0.26 v 0 a 2.63,2.63 0 0 0 -0.57,-1.62 c -0.77,-1 -2.28,-1.28 -4.32,-1.28 -2.44,0 -4.06,0.52 -5,1.28 v 0 a 2.34,2.34 0 0 0 -0.9,1.62 1.09,1.09 0 0 0 0,0.18 3.68,3.68 0 0 0 0.44,1.67 l 2.9,-1 a 3.49,3.49 0 0 1 -0.31,-0.8 v 0 a 2.09,2.09 0 0 1 0,-0.25 1.53,1.53 0 0 1 0.85,-1.37 v 0 a 2.92,2.92 0 0 1 1.41,-0.38 3.12,3.12 0 0 1 1.49,0.31 v 0 a 1.84,1.84 0 0 1 0.94,1.69 v 2.2 l -2.46,0.58 c -2.28,0.53 -3.92,1.14 -4.83,2 v 0 a 2.6,2.6 0 0 0 -0.81,1.62 v 0 c 0,0.1 0,0.2 0,0.3 a 3.06,3.06 0 0 0 0.14,0.92 2.56,2.56 0 0 0 0.64,1 v 0 a 3.73,3.73 0 0 0 2.69,1 8.29,8.29 0 0 0 3.6,-1 v 0 c 0.4,-0.19 0.78,-0.39 1.16,-0.6 a 4.16,4.16 0 0 0 0.26,0.6 v 0 a 1.8,1.8 0 0 0 1.77,1 3.93,3.93 0 0 0 2.51,-1 v 0 a 10,10 0 0 0 0.83,-0.76 L 38.1,57.44 Z"
       class="cls-3" />
    <path
       style="fill:none;stroke:#ffffff;stroke-width:0.91000003px"
       inkscape:connector-curvature="0"
       id="path18"
       d="m 27.8,56.26 a 1.09,1.09 0 0 1 0,-0.18 1.84,1.84 0 0 1 0.69,-1.44 v 0 a 13.81,13.81 0 0 1 4.19,-1.81 v 4 a 8,8 0 0 1 -1.25,0.71 v 0 a 4.38,4.38 0 0 1 -1.73,0.41 2,2 0 0 1 -1.21,-0.47 v 0 A 1.81,1.81 0 0 1 27.8,56.26 Z m 10.28,1.22 -0.22,-0.79 A 2.42,2.42 0 0 1 36.6,57.2 c -0.49,0 -0.77,-0.32 -0.85,-0.94 a 3.71,3.71 0 0 1 0,-0.47 v -5.75 a 2.17,2.17 0 0 0 0,-0.26 v 0 a 2.63,2.63 0 0 0 -0.57,-1.62 c -0.77,-1 -2.28,-1.28 -4.32,-1.28 -2.44,0 -4.06,0.52 -5,1.28 v 0 a 2.34,2.34 0 0 0 -0.9,1.62 1.09,1.09 0 0 0 0,0.18 3.68,3.68 0 0 0 0.44,1.67 l 2.9,-1 a 3.49,3.49 0 0 1 -0.31,-0.8 v 0 a 2.09,2.09 0 0 1 0,-0.25 1.53,1.53 0 0 1 0.85,-1.37 v 0 a 2.92,2.92 0 0 1 1.41,-0.38 3.12,3.12 0 0 1 1.49,0.31 v 0 a 1.84,1.84 0 0 1 0.94,1.69 v 2.2 l -2.46,0.58 c -2.28,0.53 -3.92,1.14 -4.83,2 v 0 a 2.6,2.6 0 0 0 -0.81,1.62 v 0 c 0,0.1 0,0.2 0,0.3 a 3.06,3.06 0 0 0 0.14,0.92 2.56,2.56 0 0 0 0.64,1 v 0 a 3.73,3.73 0 0 0 2.69,1 8.29,8.29 0 0 0 3.6,-1 v 0 c 0.4,-0.19 0.78,-0.39 1.16,-0.6 a 4.16,4.16 0 0 0 0.26,0.6 v 0 a 1.8,1.8 0 0 0 1.77,1 3.93,3.93 0 0 0 2.51,-1 v 0 a 10,10 0 0 0 0.83,-0.76 L 38.1,57.44 Z"
       class="cls-4" />
    <path
       style="fill:#ffffff"
       inkscape:connector-curvature="0"
       id="path20"
       d="m 52.49,57.48 a 2.68,2.68 0 0 1 -0.28,-1.22 c 0,-0.11 0,-0.22 0,-0.34 v -5 a 4.44,4.44 0 0 0 -0.18,-1.09 v 0 a 3.78,3.78 0 0 0 -0.82,-1.62 v 0 a 4,4 0 0 0 -3.17,-1.28 5,5 0 0 0 -3.44,1.28 v 0 a 10.29,10.29 0 0 0 -0.91,0.84 v -2.17 h -0.91 l -4.29,1.27 v 0.68 l 2.13,0.93 v 6 a 4.79,4.79 0 0 1 0,0.55 2.6,2.6 0 0 1 -0.31,1.22 v 0 c -0.3,0.48 -0.84,0.71 -1.8,0.7 v 0.95 h 7.14 v -0.95 a 1.86,1.86 0 0 1 -1.66,-0.7 v 0 a 2.51,2.51 0 0 1 -0.31,-1.22 v -6.19 a 3.73,3.73 0 0 1 0.35,-0.34 4,4 0 0 1 2.66,-1.12 2.12,2.12 0 0 1 2.09,1.17 v 0 a 3.83,3.83 0 0 1 0.35,1.79 v 4.14 c 0,0.2 0,0.38 0,0.55 v 0 a 2.64,2.64 0 0 1 -0.33,1.22 v 0 a 1.75,1.75 0 0 1 -1.46,0.7 v 0.95 h 6.95 v -0.95 c -0.95,0 -1.51,-0.19 -1.82,-0.7"
       class="cls-3" />
    <path
       style="fill:none;stroke:#ffffff;stroke-width:0.91000003px"
       inkscape:connector-curvature="0"
       id="path22"
       d="m 52.49,57.48 a 2.68,2.68 0 0 1 -0.28,-1.22 c 0,-0.11 0,-0.22 0,-0.34 v -5 a 4.44,4.44 0 0 0 -0.18,-1.09 v 0 a 3.78,3.78 0 0 0 -0.82,-1.62 v 0 a 4,4 0 0 0 -3.17,-1.28 5,5 0 0 0 -3.44,1.28 v 0 a 10.29,10.29 0 0 0 -0.91,0.84 v -2.17 h -0.91 l -4.29,1.27 v 0.68 l 2.13,0.93 v 6 a 4.79,4.79 0 0 1 0,0.55 2.6,2.6 0 0 1 -0.31,1.22 v 0 c -0.3,0.48 -0.84,0.71 -1.8,0.7 v 0.95 h 7.14 v -0.95 a 1.86,1.86 0 0 1 -1.66,-0.7 v 0 a 2.51,2.51 0 0 1 -0.31,-1.22 v -6.19 a 3.73,3.73 0 0 1 0.35,-0.34 4,4 0 0 1 2.66,-1.12 2.12,2.12 0 0 1 2.09,1.17 v 0 a 3.83,3.83 0 0 1 0.35,1.79 v 4.14 c 0,0.2 0,0.38 0,0.55 v 0 a 2.64,2.64 0 0 1 -0.33,1.22 v 0 a 1.75,1.75 0 0 1 -1.46,0.7 v 0.95 h 6.95 v -0.95 c -0.95,0 -1.51,-0.19 -1.82,-0.7 z"
       class="cls-4" />
    <path
       style="fill:#ffffff"
       inkscape:connector-curvature="0"
       id="path24"
       d="m 60.66,57.48 h -0.59 a 2.93,2.93 0 0 1 -2.16,-1.22 v 0 A 2.2,2.2 0 0 1 57.74,56.01 L 57.67,55.9 57.49,55.61 v -0.09 c -0.06,-0.14 -0.12,-0.27 -0.17,-0.42 -0.05,-0.15 0,-0.05 0,-0.08 0,-0.03 -0.08,-0.24 -0.11,-0.36 A 3,3 0 0 1 57.14,54.34 V 54.2 c 0,-0.11 0,-0.22 -0.05,-0.34 a 0.77,0.77 0 0 1 0,-0.15 2.34,2.34 0 0 1 0,-0.38 c 0,0 0,-0.09 0,-0.15 0,-0.06 0,-0.36 0,-0.55 0,-0.19 0,-0.33 0,-0.5 0,-0.17 0,-0.09 0,-0.14 v -0.35 c 0,-0.05 0,-0.09 0,-0.14 a 7.32,7.32 0 0 1 0.15,-0.86 0.49,0.49 0 0 1 0,-0.11 2.45,2.45 0 0 1 0.08,-0.29 c 0,0 0,-0.07 0,-0.11 a 4.69,4.69 0 0 1 0.31,-0.68 0.22,0.22 0 0 1 0.05,-0.08 1.76,1.76 0 0 1 0.14,-0.23 l 0.06,-0.08 a 3,3 0 0 1 0.45,-0.49 l 0.07,-0.06 0.19,-0.14 h 0.08 l 0.27,-0.16 v 0 a 3,3 0 0 1 1.08,-0.38 h 0.4 0.37 0.11 a 2.38,2.38 0 0 1 0.37,0.06 l 0.25,0.07 h 0.08 l 0.31,0.13 a 3.19,3.19 0 0 1 0.69,0.46 v 0.07 l 0.14,0.13 0.06,0.09 0.11,0.14 0.06,0.1 0.09,0.14 a 0.61,0.61 0 0 1 0,0.12 1,1 0 0 1 0.07,0.15 0.5,0.5 0 0 1 0.05,0.13 l 0.09,0.28 c 0,0.06 0,0.12 0,0.19 a 0.43,0.43 0 0 1 0,0.12 1.52,1.52 0 0 1 0,0.21 0.41,0.41 0 0 1 0,0.11 c 0,0.11 0,0.23 0,0.35 v 4.95 l -0.17,0.21 v 0.06 l -0.14,0.15 v 0 a 3.73,3.73 0 0 1 -2.47,1.22 m 6.5,0 c -0.34,-0.18 -0.5,-0.54 -0.58,-1.22 v 0 a 0.25,0.25 0 0 0 0,-0.08 c 0,-0.1 0,-0.2 0,-0.3 0,-0.1 0,-0.2 0,-0.29 v 0 c 0,-0.11 0,-0.22 0,-0.34 V 40.68 h -0.88 l -4.38,1.51 v 0.64 l 2.22,0.93 v 3.55 A 20.28,20.28 0 0 0 60.3,46.89 h -0.56 -0.12 l -0.52,0.05 h -0.08 l -0.46,0.08 H 58.47 L 58,47.14 h -0.09 a 3.26,3.26 0 0 0 -0.44,0.15 v 0 q -0.26,0.1 -0.51,0.24 l -0.4,0.22 v 0 a 4,4 0 0 0 -0.34,0.23 h -0.05 v 0 l -0.38,0.31 v 0.06 c -0.12,0.11 -0.24,0.22 -0.35,0.34 v 0.05 c -0.11,0.12 -0.21,0.25 -0.31,0.38 v 0 c -0.1,0.14 -0.2,0.28 -0.28,0.42 v 0 0 c -0.08,0.13 -0.15,0.26 -0.22,0.4 v 0 c -0.06,0.12 -0.12,0.24 -0.17,0.37 v 0.06 l -0.15,0.42 v 0.08 l -0.12,0.39 c 0,0 0,0 0,0.06 0,0.06 -0.07,0.3 -0.1,0.45 v 0.1 c 0,0.14 0,0.29 -0.07,0.43 v 0 c 0,0.16 0,0.32 0,0.48 a 0.41,0.41 0 0 1 0,0.11 7,7 0 0 0 0,1 v 0.33 0.06 0 0 c 0,0.13 0,0.26 0.05,0.39 v 0.05 c 0,0.11 0,0.22 0.07,0.32 v 0.11 c 0,0.09 0,0.19 0.07,0.28 v 0.08 c 0,0.1 0.06,0.21 0.1,0.31 v 0 c 0,0 0,0 0,0 v 0 a 5.68,5.68 0 0 0 0.64,1.22 v 0 a 4.84,4.84 0 0 0 1,1 v 0 a 4.58,4.58 0 0 0 2.86,1 5.71,5.71 0 0 0 3.17,-1 v 0 a 10.2,10.2 0 0 0 1.3,-1 v 0 l 0.4,-0.39 v 2.36 l 5.27,-1 h 0.12 v -0.88 a 5.7,5.7 0 0 1 -0.68,0.06 2.25,2.25 0 0 1 -1,-0.17"
       class="cls-3" />
    <path
       style="fill:none;stroke:#ffffff;stroke-width:0.91000003px"
       inkscape:connector-curvature="0"
       id="path26"
       d="m 60.66,57.48 h -0.59 a 2.93,2.93 0 0 1 -2.16,-1.22 v 0 A 2.2,2.2 0 0 1 57.74,56.01 L 57.67,55.9 57.49,55.61 v -0.09 c -0.06,-0.14 -0.12,-0.27 -0.17,-0.42 -0.05,-0.15 0,-0.05 0,-0.08 0,-0.03 -0.08,-0.24 -0.11,-0.36 A 3,3 0 0 1 57.14,54.34 V 54.2 c 0,-0.11 0,-0.22 -0.05,-0.34 a 0.77,0.77 0 0 1 0,-0.15 2.34,2.34 0 0 1 0,-0.38 c 0,0 0,-0.09 0,-0.15 0,-0.06 0,-0.36 0,-0.55 0,-0.19 0,-0.33 0,-0.5 0,-0.17 0,-0.09 0,-0.14 v -0.35 c 0,-0.05 0,-0.09 0,-0.14 a 7.32,7.32 0 0 1 0.15,-0.86 0.49,0.49 0 0 1 0,-0.11 2.45,2.45 0 0 1 0.08,-0.29 c 0,0 0,-0.07 0,-0.11 a 4.69,4.69 0 0 1 0.31,-0.68 0.22,0.22 0 0 1 0.05,-0.08 1.76,1.76 0 0 1 0.14,-0.23 l 0.06,-0.08 a 3,3 0 0 1 0.45,-0.49 l 0.07,-0.06 0.19,-0.14 h 0.08 l 0.27,-0.16 v 0 a 3,3 0 0 1 1.08,-0.38 h 0.4 0.37 0.11 a 2.38,2.38 0 0 1 0.37,0.06 l 0.25,0.07 h 0.08 l 0.31,0.13 a 3.19,3.19 0 0 1 0.69,0.46 v 0.07 l 0.14,0.13 0.06,0.09 0.11,0.14 0.06,0.1 0.09,0.14 a 0.61,0.61 0 0 1 0,0.12 1,1 0 0 1 0.07,0.15 0.5,0.5 0 0 1 0.05,0.13 l 0.09,0.28 c 0,0.06 0,0.12 0,0.19 a 0.43,0.43 0 0 1 0,0.12 1.52,1.52 0 0 1 0,0.21 0.41,0.41 0 0 1 0,0.11 c 0,0.11 0,0.23 0,0.35 v 4.95 l -0.17,0.21 v 0.06 l -0.14,0.15 v 0 a 3.73,3.73 0 0 1 -2.47,1.22 z m 6.5,0 c -0.34,-0.19 -0.5,-0.54 -0.58,-1.22 v 0 a 0.22,0.22 0 0 0 0,-0.08 c 0,-0.1 0,-0.2 0,-0.3 0,-0.1 0,-0.2 0,-0.29 v 0 c 0,-0.11 0,-0.22 0,-0.35 V 40.68 H 65.7 l -4.38,1.51 v 0.64 l 2.22,0.93 v 3.55 a 20.28,20.28 0 0 0 -3.07,-0.42 h -0.56 -0.12 l -0.52,0.05 h -0.08 l -0.46,0.08 h -0.09 l -0.47,0.12 h -0.09 a 3.26,3.26 0 0 0 -0.44,0.15 v 0 q -0.26,0.1 -0.51,0.24 l -0.4,0.22 v 0 a 4,4 0 0 0 -0.34,0.23 h -0.05 v 0 l -0.38,0.31 v 0.06 c -0.12,0.11 -0.24,0.22 -0.35,0.34 v 0.05 c -0.11,0.12 -0.21,0.25 -0.31,0.38 v 0 c -0.1,0.14 -0.2,0.28 -0.28,0.42 v 0 0 c -0.08,0.13 -0.15,0.26 -0.22,0.4 v 0 c -0.06,0.12 -0.12,0.24 -0.17,0.37 v 0.06 l -0.15,0.42 v 0.08 l -0.12,0.39 c 0,0 0,0 0,0.06 0,0.06 -0.07,0.3 -0.1,0.45 v 0.1 c 0,0.14 0,0.29 -0.07,0.43 v 0 c 0,0.16 0,0.32 0,0.48 a 0.41,0.41 0 0 1 0,0.11 7,7 0 0 0 0,1 c 0,0.11 0,0.22 0,0.33 v 0.06 0 0 c 0,0.13 0,0.26 0.05,0.39 v 0.05 c 0,0.11 0,0.22 0.07,0.32 v 0.11 c 0,0.09 0,0.19 0.07,0.28 v 0.08 c 0,0.1 0.06,0.21 0.1,0.31 v 0 c 0,0 0,0 0,0 v 0 a 5.68,5.68 0 0 0 0.64,1.22 v 0 a 4.84,4.84 0 0 0 1,1 v 0 a 4.58,4.58 0 0 0 2.86,1 5.71,5.71 0 0 0 3.17,-1 v 0 a 10.2,10.2 0 0 0 1.3,-1 v 0 l 0.4,-0.39 v 2.36 l 5.27,-1 h 0.12 v -0.88 a 5.7,5.7 0 0 1 -0.68,0.06 2.25,2.25 0 0 1 -1,-0.17 z"
       class="cls-4" />
    <path
       style="fill:#ffffff"
       inkscape:connector-curvature="0"
       id="path28"
       d="m 72.58,56.26 c 0,-0.06 0,-0.12 0,-0.18 a 1.85,1.85 0 0 1 0.74,-1.44 v 0 a 13.69,13.69 0 0 1 4.17,-1.81 v 4 a 8.52,8.52 0 0 1 -1.25,0.71 v 0 a 4.38,4.38 0 0 1 -1.73,0.41 2,2 0 0 1 -1.18,-0.41 v 0 a 1.86,1.86 0 0 1 -0.75,-1.28 z m 10.29,1.22 -0.23,-0.79 a 2.39,2.39 0 0 1 -1.26,0.51 c -0.49,0 -0.76,-0.32 -0.84,-0.94 a 3.71,3.71 0 0 1 -0.05,-0.43 v -5.79 a 2.17,2.17 0 0 0 0,-0.21 v 0 a 2.7,2.7 0 0 0 -0.57,-1.62 v 0 c -0.77,-1 -2.28,-1.28 -4.32,-1.28 -2.44,0 -4.06,0.52 -5,1.28 a 2.32,2.32 0 0 0 -0.87,1.62 v 0.18 a 3.78,3.78 0 0 0 0.43,1.67 l 2.91,-1 a 3.12,3.12 0 0 1 -0.29,-0.87 2.11,2.11 0 0 1 0,-0.25 1.52,1.52 0 0 1 0.86,-1.37 v 0 a 2.92,2.92 0 0 1 1.4,-0.36 3.1,3.1 0 0 1 1.48,0.31 v 0 a 1.85,1.85 0 0 1 0.97,1.69 v 2.2 l -2.46,0.58 c -2.28,0.53 -3.93,1.14 -4.84,2 v 0 a 2.55,2.55 0 0 0 -0.81,1.62 v 0 c 0,0.1 0,0.2 0,0.3 a 2.77,2.77 0 0 0 0.15,0.92 2.65,2.65 0 0 0 0.63,1 v 0 a 3.76,3.76 0 0 0 2.7,1 8.33,8.33 0 0 0 3.6,-1 v 0 c 0.39,-0.19 0.78,-0.39 1.16,-0.6 a 3.46,3.46 0 0 0 0.25,0.6 v 0 a 1.82,1.82 0 0 0 1.78,1 3.9,3.9 0 0 0 2.5,-1 v 0 a 8.6,8.6 0 0 0 0.83,-0.76 l -0.07,-0.25 z"
       class="cls-3" />
    <path
       style="fill:none;stroke:#ffffff;stroke-width:0.91000003px"
       inkscape:connector-curvature="0"
       id="path30"
       d="m 72.58,56.26 c 0,-0.06 0,-0.12 0,-0.18 a 1.85,1.85 0 0 1 0.74,-1.44 v 0 a 13.69,13.69 0 0 1 4.17,-1.81 v 4 a 8.52,8.52 0 0 1 -1.25,0.71 v 0 a 4.38,4.38 0 0 1 -1.73,0.41 2,2 0 0 1 -1.18,-0.41 v 0 a 1.86,1.86 0 0 1 -0.75,-1.28 z m 10.29,1.22 -0.23,-0.79 a 2.39,2.39 0 0 1 -1.26,0.51 c -0.49,0 -0.76,-0.32 -0.84,-0.94 a 3.71,3.71 0 0 1 -0.05,-0.43 v -5.79 a 2.17,2.17 0 0 0 0,-0.21 v 0 a 2.7,2.7 0 0 0 -0.57,-1.62 v 0 c -0.77,-1 -2.28,-1.28 -4.32,-1.28 -2.44,0 -4.06,0.52 -5,1.28 a 2.32,2.32 0 0 0 -0.87,1.62 v 0.18 a 3.78,3.78 0 0 0 0.43,1.67 l 2.91,-1 a 3.12,3.12 0 0 1 -0.29,-0.87 2.11,2.11 0 0 1 0,-0.25 1.52,1.52 0 0 1 0.86,-1.37 v 0 a 2.92,2.92 0 0 1 1.4,-0.36 3.1,3.1 0 0 1 1.48,0.31 v 0 a 1.85,1.85 0 0 1 0.97,1.69 v 2.2 l -2.46,0.58 c -2.28,0.53 -3.93,1.14 -4.84,2 v 0 a 2.55,2.55 0 0 0 -0.81,1.62 v 0 c 0,0.1 0,0.2 0,0.3 a 2.77,2.77 0 0 0 0.15,0.92 2.65,2.65 0 0 0 0.63,1 v 0 a 3.76,3.76 0 0 0 2.7,1 8.33,8.33 0 0 0 3.6,-1 v 0 c 0.39,-0.19 0.78,-0.39 1.16,-0.6 a 3.46,3.46 0 0 0 0.25,0.6 v 0 a 1.82,1.82 0 0 0 1.78,1 3.9,3.9 0 0 0 2.5,-1 v 0 a 8.6,8.6 0 0 0 0.83,-0.76 l -0.07,-0.25 z"
       class="cls-4" />
    <path
       style="fill:#ffffff"
       inkscape:connector-curvature="0"
       id="path32"
       d="m 94.91,48.83 a 1.13,1.13 0 0 0 -0.27,-0.66 v 0 A 3.2,3.2 0 0 0 92.33,47 3.41,3.41 0 0 0 89.99,48.17 v 0 a 9.3,9.3 0 0 0 -1.27,1.66 v 0 c -0.15,0.24 -0.3,0.49 -0.44,0.74 h -0.05 v -3.58 h -0.69 l -3.51,1.17 -0.89,0.29 v 0.64 l 1.64,0.69 0.63,0.26 v 6.22 0 a 3.1,3.1 0 0 1 -0.24,1.22 v 0 c -0.3,0.6 -0.91,0.84 -2,0.81 v 0.95 h 8.18 v -0.95 c -1.49,0.07 -2.25,-0.13 -2.61,-0.81 v 0 a 3.09,3.09 0 0 1 -0.25,-1.22 c 0,-0.15 0,-0.29 0,-0.44 v -3.21 a 3.2,3.2 0 0 1 1.52,-2.78 v 0 a 1.1,1.1 0 0 1 0.45,-0.11 1.27,1.27 0 0 1 0.52,0.11 v 0 c 0.88,0.36 1.51,1.51 2.44,1.51 0.62,0 1,-0.81 1.26,-1.51 v 0 a 4,4 0 0 0 0.22,-1"
       class="cls-3" />
    <path
       style="fill:none;stroke:#ffffff;stroke-width:0.91000003px"
       inkscape:connector-curvature="0"
       id="path34"
       d="m 94.91,48.83 a 1.13,1.13 0 0 0 -0.27,-0.66 v 0 A 3.2,3.2 0 0 0 92.33,47 3.41,3.41 0 0 0 89.99,48.17 v 0 a 9.3,9.3 0 0 0 -1.27,1.66 v 0 c -0.15,0.24 -0.3,0.49 -0.44,0.74 h -0.05 v -3.58 h -0.69 l -3.51,1.17 -0.89,0.29 v 0.64 l 1.64,0.69 0.63,0.26 v 6.22 0 a 3.1,3.1 0 0 1 -0.24,1.22 v 0 c -0.3,0.6 -0.91,0.84 -2,0.81 v 0.95 h 8.18 v -0.95 c -1.49,0.07 -2.25,-0.13 -2.61,-0.81 v 0 a 3.09,3.09 0 0 1 -0.25,-1.22 c 0,-0.15 0,-0.29 0,-0.44 v -3.21 a 3.2,3.2 0 0 1 1.52,-2.78 v 0 a 1.1,1.1 0 0 1 0.45,-0.11 1.27,1.27 0 0 1 0.52,0.11 v 0 c 0.88,0.36 1.51,1.51 2.44,1.51 0.62,0 1,-0.81 1.26,-1.51 v 0 a 4,4 0 0 0 0.22,-1 z"
       class="cls-4" />
    <path
       style="fill:#ffffff"
       inkscape:connector-curvature="0"
       id="path36"
       d="m 101.07,57.48 h -0.58 a 3,3 0 0 1 -2.16,-1.22 v 0 A 2.13,2.13 0 0 1 98.17,56.01 L 98.1,55.9 C 98.04,55.8 98,55.7 97.95,55.61 v -0.09 a 3.07,3.07 0 0 1 -0.17,-0.42 0.19,0.19 0 0 1 0,-0.08 c 0,-0.12 -0.08,-0.24 -0.11,-0.36 A 2.82,2.82 0 0 1 97.6,54.35 V 54.2 c 0,-0.1 0,-0.21 0,-0.31 a 1.1,1.1 0 0 1 0,-0.18 2.19,2.19 0 0 1 0,-0.36 c 0,-0.05 0,-0.11 0,-0.17 0,-0.06 0,-0.36 0,-0.55 0,-0.19 0,-0.33 0,-0.5 0,-0.17 0,-0.09 0,-0.14 v -0.35 c 0,-0.05 0,-0.09 0,-0.14 a 8.65,8.65 0 0 1 0.16,-0.86 v -0.11 l 0.09,-0.29 v -0.11 a 4.69,4.69 0 0 1 0.31,-0.68 0.59,0.59 0 0 1 0,-0.08 l 0.15,-0.23 a 0.22,0.22 0 0 0 0,-0.08 4.22,4.22 0 0 1 0.45,-0.49 l 0.08,-0.06 0.19,-0.14 h 0.08 a 1.75,1.75 0 0 1 0.27,-0.16 v 0 a 2.82,2.82 0 0 1 0.69,-0.24 v 0 l 0.35,-0.06 h 0.4 0.37 0.11 0.25 0.11 l 0.26,0.07 H 102 l 0.31,0.13 a 2.91,2.91 0 0 1 0.68,0.46 l 0.06,0.06 0.13,0.14 0.07,0.09 a 0.71,0.71 0 0 1 0.1,0.14 0.36,0.36 0 0 1 0.07,0.1 1,1 0 0 1 0.08,0.14 l 0.06,0.12 a 1,1 0 0 1 0.07,0.15 c 0,0 0,0.08 0,0.13 a 2.52,2.52 0 0 1 0.13,0.47 0.43,0.43 0 0 1 0,0.11 v 0.23 c 0,0 0,0.06 0,0.1 0,0.04 0,0.23 0,0.35 v 4.93 l -0.17,0.21 v 0.05 l -0.14,0.16 v 0 a 3.73,3.73 0 0 1 -2.47,1.22 m 7.53,0.17 a 2.23,2.23 0 0 1 -1,-0.17 c -0.34,-0.18 -0.51,-0.54 -0.58,-1.22 v 0 -0.07 c 0,-0.09 0,-0.18 0,-0.27 v 0 c 0,-0.11 0,-0.21 0,-0.32 v -0.38 0 c 0,-0.14 0,-0.27 0,-0.41 V 40.68 h -0.87 l -4.38,1.51 v 0.64 l 2.22,0.93 v 3.55 a 20.44,20.44 0 0 0 -3.07,-0.42 h -0.56 -0.12 l -0.52,0.05 h -0.08 l -0.46,0.08 H 99 l -0.47,0.12 h -0.1 A 3.66,3.66 0 0 0 98,47.29 v 0 c -0.17,0.07 -0.35,0.15 -0.52,0.24 l -0.39,0.22 v 0 l -0.33,0.23 v 0 0 a 5.82,5.82 0 0 0 -0.78,0.71 v 0.05 a 3.68,3.68 0 0 0 -0.31,0.38 v 0 l -0.28,0.42 c 0,0 0,0 0,0 v 0 c -0.08,0.13 -0.15,0.26 -0.22,0.4 v 0 c -0.06,0.12 -0.12,0.24 -0.17,0.37 v 0.06 c 0,0.14 -0.11,0.27 -0.16,0.42 v 0.08 l -0.12,0.39 a 0.14,0.14 0 0 1 0,0.06 c 0,0.18 -0.08,0.37 -0.11,0.55 -0.03,0.18 0,0.29 -0.07,0.43 v 0 c 0,0.2 0,0.39 0,0.59 a 10.14,10.14 0 0 0 0,1.35 0.13,0.13 0 0 1 0,0.06 v 0 l 0.06,0.39 v 0.05 c 0,0.24 0.1,0.48 0.17,0.71 a 0.24,0.24 0 0 1 0,0.08 c 0,0.1 0.07,0.21 0.11,0.31 v 0 0 0 a 5.68,5.68 0 0 0 0.64,1.22 v 0 a 4.84,4.84 0 0 0 1,1 4.58,4.58 0 0 0 2.86,1 5.74,5.74 0 0 0 3.17,-1 v 0 a 8.75,8.75 0 0 0 1.29,-1 v 0 l 0.4,-0.39 v 2.36 l 5.27,-1 h 0.12 v -0.88 a 5.86,5.86 0 0 1 -0.69,0.06"
       class="cls-3" />
    <path
       style="fill:none;stroke:#ffffff;stroke-width:0.91000003px"
       inkscape:connector-curvature="0"
       id="path38"
       d="m 101.07,57.48 h -0.58 a 3,3 0 0 1 -2.16,-1.22 v 0 A 2.13,2.13 0 0 1 98.17,56.01 L 98.1,55.9 C 98.04,55.8 98,55.7 97.95,55.61 v -0.09 a 3.07,3.07 0 0 1 -0.17,-0.42 0.19,0.19 0 0 1 0,-0.08 c 0,-0.12 -0.08,-0.24 -0.11,-0.36 A 2.82,2.82 0 0 1 97.6,54.35 V 54.2 c 0,-0.1 0,-0.21 0,-0.31 a 1.1,1.1 0 0 1 0,-0.18 2.19,2.19 0 0 1 0,-0.36 c 0,-0.05 0,-0.11 0,-0.17 0,-0.06 0,-0.36 0,-0.55 0,-0.19 0,-0.33 0,-0.5 0,-0.17 0,-0.09 0,-0.14 v -0.35 c 0,-0.05 0,-0.09 0,-0.14 a 8.65,8.65 0 0 1 0.16,-0.86 v -0.11 l 0.09,-0.29 v -0.11 a 4.69,4.69 0 0 1 0.31,-0.68 0.59,0.59 0 0 1 0,-0.08 l 0.15,-0.23 a 0.22,0.22 0 0 0 0,-0.08 4.22,4.22 0 0 1 0.45,-0.49 l 0.08,-0.06 0.19,-0.14 h 0.08 a 1.75,1.75 0 0 1 0.27,-0.16 v 0 a 2.82,2.82 0 0 1 0.69,-0.24 v 0 l 0.35,-0.06 h 0.4 0.37 0.11 0.25 0.11 l 0.26,0.07 H 102 l 0.31,0.13 a 2.91,2.91 0 0 1 0.68,0.46 l 0.06,0.06 0.13,0.14 0.07,0.09 a 0.71,0.71 0 0 1 0.1,0.14 0.36,0.36 0 0 1 0.07,0.1 1,1 0 0 1 0.08,0.14 l 0.06,0.12 a 1,1 0 0 1 0.07,0.15 c 0,0 0,0.08 0,0.13 a 2.52,2.52 0 0 1 0.13,0.47 0.43,0.43 0 0 1 0,0.11 v 0.23 c 0,0 0,0.06 0,0.1 0,0.04 0,0.23 0,0.35 v 4.93 l -0.17,0.21 v 0.05 l -0.14,0.16 v 0 a 3.73,3.73 0 0 1 -2.47,1.22 z m 7.53,0.17 a 2.23,2.23 0 0 1 -1,-0.17 c -0.34,-0.19 -0.51,-0.54 -0.58,-1.22 v 0 -0.07 c 0,-0.09 0,-0.18 0,-0.27 v 0 c 0,-0.11 0,-0.22 0,-0.32 v -0.38 0 c 0,-0.14 0,-0.27 0,-0.41 V 40.68 h -0.87 l -4.38,1.51 v 0.64 l 2.22,0.93 v 3.55 a 20.44,20.44 0 0 0 -3.07,-0.42 h -0.56 -0.12 l -0.52,0.05 h -0.08 l -0.46,0.08 h -0.09 l -0.47,0.12 h -0.1 a 3.66,3.66 0 0 0 -0.43,0.15 v 0 c -0.17,0.07 -0.35,0.15 -0.52,0.24 l -0.39,0.22 v 0 l -0.33,0.23 v 0 0 a 5.82,5.82 0 0 0 -0.78,0.71 v 0.05 a 3.68,3.68 0 0 0 -0.31,0.38 v 0 l -0.28,0.42 c 0,0 0,0 0,0 v 0 c -0.08,0.13 -0.15,0.26 -0.22,0.4 v 0 c -0.06,0.12 -0.12,0.24 -0.17,0.37 v 0.06 c 0,0.14 -0.11,0.27 -0.16,0.42 v 0.08 l -0.12,0.39 a 0.14,0.14 0 0 1 0,0.06 c 0,0.18 -0.08,0.37 -0.11,0.55 -0.03,0.18 0,0.29 -0.07,0.43 v 0 c 0,0.2 0,0.39 0,0.59 a 10.14,10.14 0 0 0 0,1.35 0.13,0.13 0 0 1 0,0.06 v 0 l 0.06,0.39 v 0.05 c 0,0.24 0.1,0.48 0.17,0.71 a 0.24,0.24 0 0 1 0,0.08 c 0,0.1 0.07,0.21 0.11,0.31 v 0 0 0 a 5.68,5.68 0 0 0 0.64,1.22 v 0 a 4.84,4.84 0 0 0 1,1 4.58,4.58 0 0 0 2.86,1 5.74,5.74 0 0 0 3.17,-1 v 0 a 8.75,8.75 0 0 0 1.29,-1 v 0 l 0.4,-0.39 v 2.36 l 5.27,-1 h 0.12 v -0.88 a 5.86,5.86 0 0 1 -0.69,0.06 z"
       class="cls-4" />
    <path
       style="fill:#ffffff"
       inkscape:connector-curvature="0"
       id="path40"
       d="m 13.49,51.2 a 12.39,12.39 0 0 0 -1.86,-1.37 v 0 a 28.23,28.23 0 0 0 -3,-1.62 18.75,18.75 0 0 1 -3.72,-2 2.24,2.24 0 0 1 -0.85,-1.83 c 0,-1.57 1.4,-2.68 3.34,-2.68 2.41,0 4.08,1.56 4.63,4.37 h 1.69 l -0.23,-3.94 a 12.64,12.64 0 0 0 -6,-1.45 c -5.12,0 -6.9,2.65 -6.9,5.09 a 3.94,3.94 0 0 0 0.81,2.39 4.22,4.22 0 0 0 0.53,0.6 8.7,8.7 0 0 0 1.32,1 v 0 c 2.35,1.49 5.69,2.45 7.11,3.84 a 2.68,2.68 0 0 1 0.64,1 v 0 a 2.88,2.88 0 0 1 0.18,1 3.28,3.28 0 0 1 -0.06,0.63 v 0 a 2.47,2.47 0 0 1 -0.6,1.21 v 0 a 3.43,3.43 0 0 1 -2.17,1 v 0 A 6.56,6.56 0 0 1 7.43,58.5 6.15,6.15 0 0 1 6.56,58.44 v 0 a 4.28,4.28 0 0 1 -2.32,-1 v 0 a 5,5 0 0 1 -1,-1.21 v 0 A 8.67,8.67 0 0 1 2.49,54.64 C 2.42,54.42 2.35,54.19 2.29,53.96 h -1.8 v 0.68 l 0.11,1.62 0.09,1.22 v 0.7 l 0.76,0.31 v 0 a 17.13,17.13 0 0 0 6,1 10.08,10.08 0 0 0 4.85,-1 v 0 a 5.34,5.34 0 0 0 1.34,-1 v 0 a 4.53,4.53 0 0 0 1.23,-3 4.21,4.21 0 0 0 -1.38,-3.29"
       class="cls-3" />
    <path
       style="fill:none;stroke:#ffffff;stroke-width:0.91000003px"
       inkscape:connector-curvature="0"
       id="path42"
       d="m 13.49,51.2 a 12.39,12.39 0 0 0 -1.86,-1.37 v 0 a 28.23,28.23 0 0 0 -3,-1.62 18.75,18.75 0 0 1 -3.72,-2 2.24,2.24 0 0 1 -0.85,-1.83 c 0,-1.57 1.4,-2.68 3.34,-2.68 2.41,0 4.08,1.56 4.63,4.37 h 1.69 l -0.23,-3.94 a 12.64,12.64 0 0 0 -6,-1.45 c -5.12,0 -6.9,2.65 -6.9,5.09 a 3.94,3.94 0 0 0 0.81,2.39 4.22,4.22 0 0 0 0.53,0.6 8.7,8.7 0 0 0 1.32,1 v 0 c 2.35,1.49 5.69,2.45 7.11,3.84 a 2.68,2.68 0 0 1 0.64,1 v 0 a 2.88,2.88 0 0 1 0.18,1 3.28,3.28 0 0 1 -0.06,0.63 v 0 a 2.47,2.47 0 0 1 -0.6,1.21 v 0 a 3.43,3.43 0 0 1 -2.17,1 v 0 A 6.56,6.56 0 0 1 7.43,58.5 6.15,6.15 0 0 1 6.56,58.44 v 0 a 4.28,4.28 0 0 1 -2.32,-1 v 0 a 5,5 0 0 1 -1,-1.21 v 0 A 8.67,8.67 0 0 1 2.49,54.64 C 2.42,54.42 2.35,54.19 2.29,53.96 h -1.8 v 0.68 l 0.11,1.62 0.09,1.22 v 0.7 l 0.76,0.31 v 0 a 17.13,17.13 0 0 0 6,1 10.08,10.08 0 0 0 4.85,-1 v 0 a 5.34,5.34 0 0 0 1.34,-1 v 0 a 4.53,4.53 0 0 0 1.23,-3 4.21,4.21 0 0 0 -1.38,-3.29 z"
       class="cls-4" />
    <path
       inkscape:connector-curvature="0"
       id="path44"
       d="m 22.39,57.48 v 0 a 4.88,4.88 0 0 1 -0.93,0.09 2.5,2.5 0 0 1 -0.71,-0.09 v 0 A 1.53,1.53 0 0 1 19.66,56.26 4.86,4.86 0 0 1 19.49,55.1 v -6.6 h 4.11 v -1.3 h -4.11 v -2.95 h -1 a 5.24,5.24 0 0 1 -4,2.95 v 1.3 h 2 v 7.76 0 a 5.48,5.48 0 0 0 0.19,1.22 v 0 a 3,3 0 0 0 0.51,1 v 0 a 2.72,2.72 0 0 0 2.25,1 8.45,8.45 0 0 0 3.83,-1 v 0 l 0.52,-0.26 v -1.13 a 12.74,12.74 0 0 1 -1.41,0.39 m 5.41,-1.22 a 1.09,1.09 0 0 1 0,-0.18 1.84,1.84 0 0 1 0.7,-1.44 v 0 a 13.81,13.81 0 0 1 4.19,-1.81 v 4 a 8,8 0 0 1 -1.25,0.71 v 0 a 4.38,4.38 0 0 1 -1.73,0.41 2,2 0 0 1 -1.21,-0.47 v 0 A 1.81,1.81 0 0 1 27.8,56.26 Z m 10.28,1.22 -0.22,-0.79 a 2.42,2.42 0 0 1 -1.26,0.51 c -0.49,0 -0.77,-0.32 -0.85,-0.94 a 3.71,3.71 0 0 1 0,-0.47 v -5.75 a 2.17,2.17 0 0 0 0,-0.26 v 0 a 2.63,2.63 0 0 0 -0.57,-1.62 c -0.77,-1 -2.28,-1.28 -4.32,-1.28 -2.44,0 -4.06,0.52 -5,1.28 v 0 a 2.34,2.34 0 0 0 -0.9,1.62 1.09,1.09 0 0 0 0,0.18 3.68,3.68 0 0 0 0.44,1.67 l 2.9,-1 a 3.49,3.49 0 0 1 -0.3,-0.8 v 0 a 2.09,2.09 0 0 1 0,-0.25 1.53,1.53 0 0 1 0.85,-1.37 v 0 a 2.92,2.92 0 0 1 1.41,-0.38 3.12,3.12 0 0 1 1.49,0.31 v 0 a 1.84,1.84 0 0 1 0.94,1.69 v 2.2 l -2.46,0.58 c -2.28,0.53 -3.92,1.14 -4.83,2 v 0 a 2.6,2.6 0 0 0 -0.81,1.62 v 0 c 0,0.1 0,0.2 0,0.3 a 3.06,3.06 0 0 0 0.14,0.92 2.56,2.56 0 0 0 0.64,1 v 0 a 3.73,3.73 0 0 0 2.69,1 8.29,8.29 0 0 0 3.6,-1 v 0 c 0.4,-0.19 0.78,-0.39 1.16,-0.6 a 4.16,4.16 0 0 0 0.26,0.6 v 0 a 1.8,1.8 0 0 0 1.77,1 3.93,3.93 0 0 0 2.51,-1 v 0 a 10,10 0 0 0 0.83,-0.76 L 38.1,57.44 Z m 14.38,0 a 2.68,2.68 0 0 1 -0.28,-1.22 c 0,-0.11 0,-0.22 0,-0.34 v -5 a 4.44,4.44 0 0 0 -0.14,-1.09 v 0 a 3.78,3.78 0 0 0 -0.82,-1.62 v 0 a 4,4 0 0 0 -3.17,-1.28 5,5 0 0 0 -3.44,1.28 v 0 a 10.29,10.29 0 0 0 -0.91,0.84 v -2.17 h -0.91 l -4.29,1.27 v 0.68 l 2.13,0.93 v 6 a 4.79,4.79 0 0 1 0,0.55 2.6,2.6 0 0 1 -0.31,1.22 v 0 c -0.3,0.48 -0.84,0.71 -1.8,0.7 v 0.95 h 7.14 v -0.95 a 1.86,1.86 0 0 1 -1.66,-0.7 v 0 a 2.51,2.51 0 0 1 -0.31,-1.22 v -6.19 a 3.73,3.73 0 0 1 0.35,-0.34 4,4 0 0 1 2.66,-1.12 2.12,2.12 0 0 1 2.09,1.17 v 0 a 3.83,3.83 0 0 1 0.35,1.79 v 4.14 c 0,0.2 0,0.38 0,0.55 v 0 a 2.64,2.64 0 0 1 -0.33,1.22 v 0 a 1.75,1.75 0 0 1 -1.46,0.7 v 0.95 h 6.95 v -0.95 c -0.95,0 -1.51,-0.19 -1.82,-0.7 m 8.2,0 h -0.59 a 2.93,2.93 0 0 1 -2.16,-1.22 v 0 a 2.2,2.2 0 0 1 -0.17,-0.25 l -0.07,-0.11 -0.19,-0.34 v -0.09 c -0.06,-0.14 -0.12,-0.27 -0.17,-0.42 -0.05,-0.15 0,-0.05 0,-0.08 0,-0.03 -0.08,-0.24 -0.11,-0.36 A 3,3 0 0 1 57.14,54.34 V 54.2 c 0,-0.11 0,-0.22 -0.05,-0.34 a 0.77,0.77 0 0 1 0,-0.15 2.34,2.34 0 0 1 0,-0.38 c 0,0 0,-0.09 0,-0.15 0,-0.06 0,-0.36 0,-0.55 0,-0.19 0,-0.33 0,-0.5 0,-0.17 0,-0.09 0,-0.14 v -0.35 c 0,-0.05 0,-0.09 0,-0.14 a 7.32,7.32 0 0 1 0.15,-0.86 0.49,0.49 0 0 1 0,-0.11 2.45,2.45 0 0 1 0.08,-0.29 c 0,0 0,-0.07 0,-0.11 a 4.69,4.69 0 0 1 0.31,-0.68 0.22,0.22 0 0 1 0.05,-0.08 1.76,1.76 0 0 1 0.14,-0.23 l 0.06,-0.08 a 3,3 0 0 1 0.45,-0.49 l 0.07,-0.06 0.19,-0.14 h 0.08 l 0.27,-0.16 v 0 a 3,3 0 0 1 1.08,-0.38 h 0.4 0.37 0.11 a 2.38,2.38 0 0 1 0.37,0.06 l 0.25,0.07 h 0.08 l 0.31,0.13 a 3.19,3.19 0 0 1 0.69,0.46 v 0.07 l 0.14,0.13 0.06,0.09 0.11,0.14 0.06,0.1 0.09,0.14 a 0.61,0.61 0 0 1 0,0.12 1,1 0 0 1 0.07,0.15 0.5,0.5 0 0 1 0.05,0.13 l 0.09,0.28 c 0,0.06 0,0.12 0,0.19 a 0.43,0.43 0 0 1 0,0.12 1.52,1.52 0 0 1 0,0.21 0.41,0.41 0 0 1 0,0.11 c 0,0.11 0,0.23 0,0.35 v 4.95 l -0.17,0.21 v 0.06 l -0.14,0.15 v 0 a 3.73,3.73 0 0 1 -2.47,1.22 m 6.5,0 c -0.34,-0.18 -0.5,-0.54 -0.58,-1.22 v 0 a 0.25,0.25 0 0 0 0,-0.08 c 0,-0.1 0,-0.2 0,-0.3 0,-0.1 0,-0.2 0,-0.29 v 0 c 0,-0.11 0,-0.22 0,-0.34 V 40.68 h -0.88 l -4.38,1.51 v 0.64 l 2.22,0.93 v 3.55 A 20.28,20.28 0 0 0 60.3,46.89 h -0.56 -0.12 l -0.52,0.05 h -0.08 l -0.46,0.08 H 58.47 L 58,47.14 h -0.09 a 3.26,3.26 0 0 0 -0.44,0.15 v 0 q -0.26,0.1 -0.51,0.24 l -0.4,0.22 v 0 a 4,4 0 0 0 -0.34,0.23 h -0.05 v 0 l -0.38,0.31 v 0.06 c -0.12,0.11 -0.24,0.22 -0.35,0.34 v 0.05 c -0.11,0.12 -0.21,0.25 -0.31,0.38 v 0 c -0.1,0.14 -0.2,0.28 -0.28,0.42 v 0 0 c -0.08,0.13 -0.15,0.26 -0.22,0.4 v 0 c -0.06,0.12 -0.12,0.24 -0.17,0.37 v 0.06 l -0.15,0.42 v 0.08 l -0.12,0.39 c 0,0 0,0 0,0.06 0,0.06 -0.07,0.3 -0.1,0.45 v 0.1 c 0,0.14 0,0.29 -0.07,0.43 v 0 c 0,0.16 0,0.32 0,0.48 a 0.41,0.41 0 0 1 0,0.11 7,7 0 0 0 0,1 v 0.33 0.06 0 0 c 0,0.13 0,0.26 0.05,0.39 v 0.05 c 0,0.11 0,0.22 0.07,0.32 v 0.11 c 0,0.09 0,0.19 0.07,0.28 v 0.08 c 0,0.1 0.06,0.21 0.1,0.31 v 0 c 0,0 0,0 0,0 v 0 a 5.68,5.68 0 0 0 0.64,1.22 v 0 a 4.84,4.84 0 0 0 1,1 v 0 a 4.58,4.58 0 0 0 2.86,1 5.71,5.71 0 0 0 3.17,-1 v 0 a 10.2,10.2 0 0 0 1.3,-1 v 0 l 0.4,-0.39 v 2.36 l 5.27,-1 h 0.12 v -0.88 a 5.7,5.7 0 0 1 -0.68,0.06 2.25,2.25 0 0 1 -1,-0.17 m 5.42,-1.22 c 0,-0.06 0,-0.12 0,-0.18 a 1.85,1.85 0 0 1 0.74,-1.44 v 0 a 13.69,13.69 0 0 1 3.94,-1.35 v 4 a 8.52,8.52 0 0 1 -1.25,0.71 v 0 a 4.38,4.38 0 0 1 -1.73,0.41 2,2 0 0 1 -1.18,-0.41 v 0 a 1.86,1.86 0 0 1 -0.75,-1.28 z m 10.29,1.22 -0.23,-0.79 a 2.39,2.39 0 0 1 -1.26,0.51 c -0.49,0 -0.76,-0.32 -0.84,-0.94 a 3.71,3.71 0 0 1 -0.28,0.03 v -5.79 a 2.17,2.17 0 0 0 0,-0.21 v 0 a 2.7,2.7 0 0 0 -0.57,-1.62 v 0 c -0.77,-1 -2.28,-1.28 -4.32,-1.28 -2.44,0 -4.06,0.52 -5,1.28 a 2.32,2.32 0 0 0 -0.87,1.62 v 0.18 a 3.78,3.78 0 0 0 0.43,1.67 l 2.91,-1 a 3.12,3.12 0 0 1 -0.29,-0.87 2.11,2.11 0 0 1 0,-0.25 1.52,1.52 0 0 1 0.86,-1.37 v 0 a 2.92,2.92 0 0 1 1.4,-0.36 3.1,3.1 0 0 1 1.48,0.31 v 0 a 1.85,1.85 0 0 1 0.97,1.69 v 2.2 l -2.46,0.58 c -2.28,0.53 -3.93,1.14 -4.84,2 v 0 a 2.55,2.55 0 0 0 -0.81,1.62 v 0 c 0,0.1 0,0.2 0,0.3 a 2.77,2.77 0 0 0 0.15,0.92 2.65,2.65 0 0 0 0.63,1 v 0 a 3.76,3.76 0 0 0 2.7,1 8.33,8.33 0 0 0 3.6,-1 v 0 c 0.39,-0.19 0.78,-0.39 1.16,-0.6 a 3.46,3.46 0 0 0 0.25,0.6 v 0 a 1.82,1.82 0 0 0 1.78,1 3.9,3.9 0 0 0 2.5,-1 v 0 a 8.6,8.6 0 0 0 0.83,-0.76 l -0.07,-0.25 z m 12,-8.66 A 1.13,1.13 0 0 0 94.83,47.7 v 0 a 3.2,3.2 0 0 0 -2.31,-1.17 3.41,3.41 0 0 0 -2.34,1.17 v 0 a 9.3,9.3 0 0 0 -1.46,2.13 v 0 c -0.15,0.24 -0.3,0.49 -0.44,0.74 h -0.05 v -3.58 h -0.69 l -3.51,1.17 -0.89,0.29 v 0.64 l 1.64,0.69 0.63,0.26 v 6.22 0 a 3.1,3.1 0 0 1 -0.24,1.22 v 0 c -0.3,0.6 -0.91,0.84 -2,0.81 v 0.95 h 8.18 v -0.95 c -1.49,0.07 -2.25,-0.13 -2.61,-0.81 v 0 a 3.09,3.09 0 0 1 -0.25,-1.22 c 0,-0.15 0,-0.29 0,-0.44 v -3.21 a 3.2,3.2 0 0 1 1.52,-2.78 v 0 a 1.1,1.1 0 0 1 0.45,-0.11 1.27,1.27 0 0 1 0.52,0.11 v 0 c 0.88,0.36 1.51,1.51 2.44,1.51 0.62,0 1,-0.81 1.26,-1.51 v 0 a 4,4 0 0 0 0.22,-1 m 6.16,8.66 h -0.57 a 3,3 0 0 1 -2.16,-1.22 v 0 A 2.13,2.13 0 0 1 98.17,56.02 L 98.1,55.91 c -0.06,-0.1 -0.1,-0.2 -0.15,-0.29 v -0.09 a 3.07,3.07 0 0 1 -0.17,-0.42 0.19,0.19 0 0 1 0,-0.08 c 0,-0.12 -0.08,-0.24 -0.11,-0.36 A 2.82,2.82 0 0 1 97.6,54.36 v -0.15 c 0,-0.1 0,-0.21 0,-0.31 a 1.1,1.1 0 0 1 0,-0.18 2.19,2.19 0 0 1 0,-0.36 c 0,-0.05 0,-0.11 0,-0.17 0,-0.06 0,-0.36 0,-0.55 0,-0.19 0,-0.33 0,-0.5 0,-0.17 0,-0.09 0,-0.14 v -0.35 c 0,-0.05 0,-0.09 0,-0.14 a 8.65,8.65 0 0 1 0.16,-0.86 v -0.11 l 0.09,-0.29 v -0.11 a 4.69,4.69 0 0 1 0.31,-0.68 0.59,0.59 0 0 1 0,-0.08 l 0.15,-0.23 a 0.22,0.22 0 0 0 0,-0.08 4.22,4.22 0 0 1 0.45,-0.49 l 0.08,-0.06 0.19,-0.14 h 0.08 a 1.75,1.75 0 0 1 0.27,-0.16 v 0 a 2.82,2.82 0 0 1 0.69,-0.24 v 0 l 0.35,-0.06 h 0.4 0.37 0.11 0.25 0.11 l 0.26,0.07 H 102 l 0.31,0.13 a 2.91,2.91 0 0 1 0.68,0.46 l 0.06,0.06 0.13,0.14 0.07,0.09 a 0.71,0.71 0 0 1 0.1,0.14 0.36,0.36 0 0 1 0.07,0.1 1,1 0 0 1 0.08,0.14 l 0.06,0.12 a 1,1 0 0 1 0.07,0.15 c 0,0 0,0.08 0,0.13 a 2.52,2.52 0 0 1 0.13,0.47 0.43,0.43 0 0 1 0,0.11 v 0.23 c 0,0 0,0.06 0,0.1 0,0.04 0,0.23 0,0.35 v 4.92 l -0.17,0.21 v 0.05 l -0.14,0.16 v 0 a 3.73,3.73 0 0 1 -2.47,1.22 m 7.53,0.17 a 2.23,2.23 0 0 1 -1,-0.17 c -0.34,-0.18 -0.51,-0.54 -0.58,-1.22 v 0 -0.07 c 0,-0.09 0,-0.18 0,-0.27 v 0 c 0,-0.11 0,-0.21 0,-0.32 v -0.38 0 c 0,-0.14 0,-0.27 0,-0.41 V 40.68 h -0.87 l -4.38,1.51 v 0.64 l 2.22,0.93 v 3.55 a 20.44,20.44 0 0 0 -3.07,-0.42 h -0.56 -0.12 l -0.52,0.05 h -0.08 l -0.46,0.08 H 99 l -0.47,0.12 h -0.1 A 3.66,3.66 0 0 0 98,47.29 v 0 c -0.17,0.07 -0.35,0.15 -0.52,0.24 l -0.39,0.22 v 0 l -0.33,0.23 v 0 0 a 5.82,5.82 0 0 0 -0.78,0.71 v 0.05 a 3.68,3.68 0 0 0 -0.31,0.38 v 0 l -0.28,0.42 c 0,0 0,0 0,0 v 0 c -0.08,0.13 -0.15,0.26 -0.22,0.4 v 0 c -0.06,0.12 -0.12,0.24 -0.17,0.37 v 0.06 c 0,0.14 -0.11,0.27 -0.16,0.42 v 0.08 l -0.12,0.39 a 0.14,0.14 0 0 1 0,0.06 c 0,0.18 -0.08,0.37 -0.11,0.55 -0.03,0.18 0,0.29 -0.07,0.43 v 0 c 0,0.2 0,0.39 0,0.59 a 10.14,10.14 0 0 0 0,1.35 0.13,0.13 0 0 1 0,0.06 v 0 l 0.06,0.39 v 0.05 c 0,0.24 0.1,0.48 0.17,0.71 a 0.24,0.24 0 0 1 0,0.08 c 0,0.1 0.07,0.21 0.11,0.31 v 0 0 0 a 5.68,5.68 0 0 0 0.64,1.22 v 0 a 4.84,4.84 0 0 0 1,1 4.58,4.58 0 0 0 2.86,1 5.74,5.74 0 0 0 3.17,-1 v 0 a 8.75,8.75 0 0 0 1.29,-1 v 0 l 0.4,-0.39 v 2.36 l 5.27,-1 h 0.12 v -0.88 a 5.86,5.86 0 0 1 -0.69,0.06 M 13.49,51.2 a 12.39,12.39 0 0 0 -1.86,-1.37 v 0 a 28.23,28.23 0 0 0 -3,-1.62 18.75,18.75 0 0 1 -3.72,-2 2.24,2.24 0 0 1 -0.85,-1.83 c 0,-1.57 1.4,-2.68 3.34,-2.68 2.41,0 4.08,1.56 4.63,4.37 h 1.69 l -0.23,-3.94 a 12.64,12.64 0 0 0 -6,-1.45 c -5.12,0 -6.9,2.65 -6.9,5.09 a 3.94,3.94 0 0 0 0.81,2.39 4.22,4.22 0 0 0 0.53,0.6 8.7,8.7 0 0 0 1.32,1 v 0 c 2.35,1.49 5.69,2.45 7.11,3.84 a 2.68,2.68 0 0 1 0.64,1 v 0 a 2.88,2.88 0 0 1 0.18,1 3.28,3.28 0 0 1 -0.06,0.63 v 0 a 2.47,2.47 0 0 1 -0.6,1.21 v 0 a 3.43,3.43 0 0 1 -2.17,1 v 0 A 6.56,6.56 0 0 1 7.43,58.5 6.15,6.15 0 0 1 6.56,58.44 v 0 a 4.28,4.28 0 0 1 -2.32,-1 v 0 a 5,5 0 0 1 -1,-1.21 v 0 A 8.67,8.67 0 0 1 2.49,54.64 C 2.42,54.42 2.35,54.19 2.29,53.96 h -1.8 v 0.68 l 0.11,1.62 0.09,1.22 v 0.7 l 0.76,0.31 v 0 a 17.13,17.13 0 0 0 6,1 10.08,10.08 0 0 0 4.85,-1 v 0 a 5.34,5.34 0 0 0 1.34,-1 v 0 a 4.53,4.53 0 0 0 1.23,-3 4.21,4.21 0 0 0 -1.38,-3.29" />
    <path
       style="fill:#ffffff"
       inkscape:connector-curvature="0"
       id="path46"
       d="m 62.67,33.83 a 1.21,1.21 0 0 1 1,0.45 v 0 a 1.82,1.82 0 0 1 0.36,1 v 0 0.11 h -2.77 c 0,0 0,-0.07 0,-0.11 v 0 a 2,2 0 0 1 0.41,-1 v 0 a 1.26,1.26 0 0 1 1,-0.45 m 1,4.42 a 2.32,2.32 0 0 1 -2.18,-1.36 v 0 a 2.35,2.35 0 0 1 -0.24,-1 h 4.45 a 2.76,2.76 0 0 0 -0.06,-0.57 v 0 a 2.42,2.42 0 0 0 -0.51,-1 v 0 a 2.94,2.94 0 0 0 -2.24,-0.91 2.79,2.79 0 0 0 -2.15,0.91 v 0 a 2.73,2.73 0 0 0 -0.58,1 v 0 a 3.79,3.79 0 0 0 -0.2,1.24 c 0,0.13 0,0.26 0,0.38 a 2.9,2.9 0 0 0 0.67,1.62 v 0 a 2.75,2.75 0 0 0 2.16,0.94 3.24,3.24 0 0 0 2.26,-0.94 v 0 a 4.15,4.15 0 0 0 0.51,-0.6 l -0.33,-0.29 a 2.46,2.46 0 0 1 -1.62,0.61 m 11.42,-4.73 v 0.46 a 1,1 0 0 1 0.8,0.3 v 0 a 0.59,0.59 0 0 1 0.09,0.34 1.16,1.16 0 0 1 -0.12,0.46 L 75.71,35.32 75,36.94 74.68,37.66 74.4,36.94 73.75,35.32 73.49,34.66 a 2,2 0 0 1 -0.12,-0.4 v 0 0 c 0,-0.22 0.19,-0.3 0.76,-0.28 v -0.46 h -3.14 v 0.46 c 0.46,0 0.65,0.06 0.81,0.3 v 0 a 1.67,1.67 0 0 1 0.14,0.27 l 0.3,0.74 v 0 l -0.81,1.62 -0.44,0.92 -0.36,-0.89 -0.68,-1.62 -0.14,-0.34 a 1.56,1.56 0 0 1 -0.12,-0.53 0.32,0.32 0 0 1 0,-0.14 v 0 c 0,-0.2 0.21,-0.3 0.53,-0.3 v -0.46 h -2.73 v 0.46 a 0.57,0.57 0 0 1 0.55,0.3 v 0 c 0,0.1 0.11,0.23 0.18,0.4 l 0.26,0.61 0.68,1.62 0.69,1.62 0.43,1 h 0.39 l 0.53,-1 0.81,-1.62 0.48,-1.11 0.42,1 0.67,1.62 0.43,1 h 0.37 l 0.46,-1 0.72,-1.62 0.71,-1.62 0.15,-0.34 a 4,4 0 0 1 0.34,-0.67 v 0 c 0.18,-0.26 0.36,-0.29 0.75,-0.3 v -0.46 z m 4.57,0.31 a 1.24,1.24 0 0 1 1,0.45 v 0 a 1.76,1.76 0 0 1 0.37,1 v 0.11 h -2.75 a 0.41,0.41 0 0 1 0,-0.11 1.9,1.9 0 0 1 0.41,-1 v 0 a 1.24,1.24 0 0 1 1,-0.45 m 1,4.42 a 2.34,2.34 0 0 1 -2.14,-1.39 v 0 a 2.48,2.48 0 0 1 -0.23,-1 h 4.45 a 2.78,2.78 0 0 0 -0.07,-0.57 v 0 a 2.31,2.31 0 0 0 -0.51,-1 v 0 a 2.92,2.92 0 0 0 -2.24,-0.91 2.8,2.8 0 0 0 -2.15,0.91 v 0 a 3,3 0 0 0 -0.58,1 v 0 a 3.79,3.79 0 0 0 -0.19,1.24 2.36,2.36 0 0 0 0,0.38 2.89,2.89 0 0 0 0.66,1.62 v 0 a 2.78,2.78 0 0 0 2.16,0.94 3.22,3.22 0 0 0 2.26,-0.94 v 0 a 4.22,4.22 0 0 0 0.52,-0.6 l -0.33,-0.29 a 2.5,2.5 0 0 1 -1.62,0.61 m 5,-4.42 a 1.24,1.24 0 0 1 1,0.45 v 0 a 1.82,1.82 0 0 1 0.36,1 v 0 a 0.41,0.41 0 0 1 0,0.11 H 84.2 c 0,0 0,-0.07 0,-0.11 a 1.89,1.89 0 0 1 0.4,-1 v 0 a 1.27,1.27 0 0 1 1,-0.45 m 1,4.42 a 2.32,2.32 0 0 1 -2.11,-1.39 v 0 a 2.35,2.35 0 0 1 -0.24,-1 h 4.46 a 3.7,3.7 0 0 0 -0.07,-0.57 2.31,2.31 0 0 0 -0.51,-1 v 0 a 2.94,2.94 0 0 0 -2.24,-0.91 2.79,2.79 0 0 0 -2.15,0.91 v 0 a 2.87,2.87 0 0 0 -0.58,1 3.79,3.79 0 0 0 -0.2,1.24 c 0,0.13 0,0.26 0,0.38 a 2.9,2.9 0 0 0 0.67,1.62 v 0 a 2.77,2.77 0 0 0 2.16,0.94 3.22,3.22 0 0 0 2.26,-0.94 v 0 a 5,5 0 0 0 0.52,-0.6 l -0.34,-0.29 a 2.46,2.46 0 0 1 -1.62,0.61 m 16.31,-4.73 v 0.46 a 0.86,0.86 0 0 1 0.79,0.3 0.62,0.62 0 0 1 0.11,0.39 1.59,1.59 0 0 1 -0.14,0.59 v 0 l -0.66,1.62 -0.43,1.05 -0.51,-1.05 -0.79,-1.62 -0.14,-0.29 a 1.06,1.06 0 0 1 -0.14,-0.5 0.48,0.48 0 0 1 0,-0.22 v 0 c 0.09,-0.21 0.36,-0.3 0.83,-0.3 v -0.46 h -3.35 v 0.46 a 0.66,0.66 0 0 1 0.68,0.3 v 0 a 4,4 0 0 1 0.24,0.44 l 0.28,0.57 0.79,1.62 0.8,1.62 0.55,1.13 c -0.39,1 -0.74,1.25 -1.13,1.25 -0.39,0 -0.52,-0.64 -1.13,-0.64 a 0.62,0.62 0 0 0 -0.62,0.62 c 0,0.5 0.49,0.89 1.19,0.89 1,0 1.52,-0.48 2.16,-2 l 0.51,-1.24 0.67,-1.62 0.67,-1.62 0.06,-0.13 a 4.18,4.18 0 0 1 0.43,-0.88 v 0 a 0.75,0.75 0 0 1 0.66,-0.3 v -0.46 z m -51.2,5 v 0 a 1.84,1.84 0 0 1 -0.33,0 h -0.25 v 0 c -0.6,-0.11 -0.68,-0.63 -0.68,-1.17 v -3.25 h 2 V 33.5 h -2 v -1.43 h -0.51 a 2.79,2.79 0 0 1 -1.13,1.18 v 0 a 2.41,2.41 0 0 1 -0.84,0.25 v 0.63 h 1 v 3.62 a 2.8,2.8 0 0 0 0.1,0.76 v 0 a 1.28,1.28 0 0 0 1.34,0.94 4.35,4.35 0 0 0 2.07,-0.62 v -0.56 a 4.22,4.22 0 0 1 -0.81,0.21 m 7.78,0 v 0 a 1.36,1.36 0 0 1 -0.17,-0.76 v -2.45 a 2.28,2.28 0 0 0 -0.26,-1 v 0 a 1.88,1.88 0 0 0 -1.76,-0.91 2.72,2.72 0 0 0 -2,0.91 l -0.08,0.08 v -4 h -0.4 l -2.12,0.74 v 0.31 l 1,0.45 v 5.91 a 1.4,1.4 0 0 1 -0.16,0.77 0.89,0.89 0 0 1 -0.87,0.32 v 0.47 h 3.45 v -0.49 a 0.84,0.84 0 0 1 -0.77,-0.32 v 0 A 1.37,1.37 0 0 1 55.15,37.72 V 34.9 a 2.4,2.4 0 0 1 0.84,-0.58 l 0.16,-0.06 v 0 a 1.51,1.51 0 0 1 0.42,-0.05 1.64,1.64 0 0 1 0.41,0.05 v 0 h 0.15 a 1.1,1.1 0 0 1 0.6,1 v 0 a 2.11,2.11 0 0 1 0,0.36 v 2.21 a 1.24,1.24 0 0 1 -0.16,0.69 0.81,0.81 0 0 1 -0.72,0.32 v 0.47 h 3.44 v -0.48 a 0.9,0.9 0 0 1 -0.82,-0.32"
       class="cls-3" />
    <path
       style="fill:#ffffff"
       inkscape:connector-curvature="0"
       id="path48"
       d="m 93.32,36.89 -1.42,-1.17 0.44,-0.45 v 0 a 6.68,6.68 0 0 1 1.24,-1 v 0 a 2.55,2.55 0 0 1 1.39,-0.3 V 33.51 H 91.7 v 0.46 c 0.42,0 0.63,0.11 0.68,0.3 v 0 a 0.28,0.28 0 0 1 0,0.09 c 0,0.2 -0.14,0.44 -0.63,0.92 -0.24,0.24 -0.56,0.53 -1,0.9 v -5.85 h -0.4 l -2,0.74 v 0.31 l 0.95,0.45 v 5.92 a 1.36,1.36 0 0 1 -0.17,0.76 v 0 a 0.86,0.86 0 0 1 -0.78,0.32 v 0.47 h 3.34 v -0.47 a 0.85,0.85 0 0 1 -0.74,-0.32 1.3,1.3 0 0 1 -0.18,-0.77 v -1.21 l 0.45,0.36 2,1.62 0.72,0.59 a 0.78,0.78 0 0 0 0.62,0.2 h 0.35 c 0.25,0 0.29,-0.06 0.29,-0.35 v -0.53 l -1.85,-1.53 z m 4.89,1.62 v 0 a 1.36,1.36 0 0 1 -0.18,-0.8 v -7.38 h -0.45 l -2.07,0.74 v 0.31 l 1,0.45 v 5.81 a 1.57,1.57 0 0 1 -0.18,0.87 c -0.14,0.23 -0.41,0.34 -0.87,0.32 v 0.47 h 3.52 v -0.47 a 0.88,0.88 0 0 1 -0.82,-0.32"
       class="cls-3" />
  </g>
</svg>
