<svg xmlns="http://www.w3.org/2000/svg" viewBox="34.76 24.16 120 60" width="120" height="60" fill="#38c4e3"><path d="M83.237 51.84a2.55 2.55 0 0 0-.488-.558c-.174-.14-.418-.28-.662-.384s-.523-.14-.802-.14c-.488 0-.94.105-1.3.28a3.07 3.07 0 0 0-.872.767 3.61 3.61 0 0 0-.488 1.116c-.105.418-.14.837-.14 1.3 0 .418.035.837.14 1.255s.244.767.488 1.08c.2.314.488.593.872.767.35.2.767.28 1.3.28.697 0 1.22-.2 1.604-.628s.628-.976.697-1.64h2.162c-.07.628-.2 1.22-.453 1.708-.244.523-.558.94-.94 1.325a4.44 4.44 0 0 1-1.36.837 5.32 5.32 0 0 1-1.708.28c-.767 0-1.464-.14-2.092-.418s-1.15-.628-1.57-1.116-.767-1.046-.976-1.674c-.244-.628-.35-1.325-.35-2.057 0-.767.105-1.464.35-2.127s.558-1.22.976-1.708.94-.872 1.57-1.15 1.325-.418 2.092-.418c.558 0 1.08.07 1.604.244.488.174.94.384 1.325.697s.732.697.976 1.15.418.976.488 1.57h-2.162c-.07-.2-.14-.418-.28-.628zm3.87 2.163c.174-.488.453-.872.767-1.22a3.31 3.31 0 0 1 1.185-.767 4.35 4.35 0 0 1 1.57-.28c.594 0 1.116.105 1.57.28s.872.453 1.22.767c.35.35.593.732.767 1.22a4.69 4.69 0 0 1 .28 1.604c0 .594-.105 1.116-.28 1.604s-.453.872-.767 1.22c-.35.35-.732.593-1.22.767a4.49 4.49 0 0 1-1.57.28c-.593 0-1.116-.105-1.57-.28a3.48 3.48 0 0 1-1.185-.767 3.32 3.32 0 0 1-.767-1.22 4.69 4.69 0 0 1-.28-1.604c0-.594.105-1.116.28-1.604zm1.848 2.476c.07.28.14.523.28.767.14.2.314.418.558.523.244.14.523.2.872.2s.628-.07.872-.2.418-.314.558-.523a1.84 1.84 0 0 0 .279-.767c.07-.28.07-.558.07-.872s-.035-.593-.07-.872c-.07-.28-.14-.523-.28-.767a1.61 1.61 0 0 0-.558-.523c-.244-.14-.523-.2-.872-.2s-.628.07-.872.2-.418.314-.558.523a1.68 1.68 0 0 0-.28.767c-.07.28-.07.558-.07.872s0 .593.07.872zm8.752-4.58v1h.035a2.39 2.39 0 0 1 1.011-.941 2.86 2.86 0 0 1 1.255-.28c.558 0 .976.07 1.325.2s.628.35.802.628a2.3 2.3 0 0 1 .418.941 7.03 7.03 0 0 1 .105 1.255v4.533h-2.022v-4.15c0-.593-.105-1.046-.28-1.36s-.523-.453-1-.453c-.558 0-.94.174-1.185.488s-.384.872-.384 1.604v3.87h-2.022V51.9zm10.043 1.326c-.314 0-.593.07-.802.2s-.384.35-.523.558c-.14.244-.244.488-.28.767-.07.28-.07.558-.07.837s.035.523.07.802c.07.28.14.523.28.732s.314.418.523.558.488.2.802.2c.488 0 .872-.14 1.116-.418a2.07 2.07 0 0 0 .488-1.081h1.953c-.14.976-.523 1.708-1.15 2.232s-1.43.767-2.406.767a4.42 4.42 0 0 1-1.534-.28c-.453-.174-.837-.453-1.185-.767a4.62 4.62 0 0 1-.767-1.185 4.29 4.29 0 0 1-.279-1.534c0-.558.07-1.116.244-1.604s.418-.907.732-1.255.732-.628 1.185-.837 1-.314 1.604-.314c.453 0 .872.07 1.255.174a2.84 2.84 0 0 1 1.081.523c.314.244.593.523.767.872.2.35.314.767.35 1.22h-1.987c-.105-.767-.628-1.185-1.464-1.185zm4.706.778c.174-.488.453-.872.767-1.22a3.31 3.31 0 0 1 1.185-.767 4.35 4.35 0 0 1 1.57-.28c.594 0 1.116.105 1.57.28s.872.453 1.22.767c.35.35.593.732.767 1.22a4.69 4.69 0 0 1 .28 1.604c0 .594-.105 1.116-.28 1.604s-.453.872-.767 1.22c-.35.35-.732.593-1.22.767a4.49 4.49 0 0 1-1.57.28c-.56 0-1.116-.105-1.57-.28a3.48 3.48 0 0 1-1.185-.767c-.35-.35-.593-.732-.767-1.22a4.69 4.69 0 0 1-.28-1.604c0-.594.07-1.116.28-1.604zm1.813 2.476c.07.28.14.523.28.767.14.2.314.418.558.523.244.14.523.2.872.2s.628-.07.872-.2.418-.314.558-.523a1.84 1.84 0 0 0 .279-.767c.07-.28.07-.558.07-.872s-.035-.593-.07-.872c-.07-.28-.14-.523-.28-.767a1.61 1.61 0 0 0-.558-.523c-.244-.14-.523-.2-.872-.2s-.628.07-.872.2-.418.314-.558.523a1.68 1.68 0 0 0-.28.767c-.07.28-.07.558-.07.872a6.77 6.77 0 0 0 .07.872zm11.82 2.824v-1h-.035a2.39 2.39 0 0 1-1.011.941c-.418.174-.837.28-1.255.28-.558 0-.976-.07-1.325-.2s-.628-.35-.802-.593a2.2 2.2 0 0 1-.418-.94 7.03 7.03 0 0 1-.105-1.255V51.98h2.022v4.15c0 .593.105 1.046.28 1.36s.523.453 1 .453c.558 0 .94-.174 1.185-.488s.384-.872.384-1.604v-3.87h2.022v7.357h-1.953zm5.404-7.403v1.36h.035c.105-.244.2-.453.384-.628a2.44 2.44 0 0 1 .558-.488c.2-.14.418-.244.662-.314s.488-.105.732-.105c.14 0 .28.035.453.07v1.883c-.105-.035-.2-.035-.35-.035s-.28-.035-.384-.035c-.384 0-.697.07-.94.174-.244.14-.453.28-.628.523-.14.2-.28.453-.35.732a3.89 3.89 0 0 0-.105.941V59.3h-2.022v-7.357h1.953zm5.3 5.545c.105.14.2.28.35.384s.314.174.488.2a3.07 3.07 0 0 0 .593.07c.14 0 .28 0 .453-.035.14-.035.314-.07.418-.14.14-.07.244-.174.314-.28s.14-.28.14-.453c0-.314-.2-.523-.593-.697a13.57 13.57 0 0 0-1.674-.453l-.872-.244c-.28-.105-.523-.2-.732-.35s-.384-.35-.523-.558-.2-.488-.2-.837c0-.488.105-.872.28-1.185a1.85 1.85 0 0 1 .732-.732 3.56 3.56 0 0 1 1.011-.384 6.52 6.52 0 0 1 1.185-.105 6.14 6.14 0 0 1 1.151.105 3.2 3.2 0 0 1 1.01.384c.313.174.523.418.732.732s.314.662.35 1.116h-1.953c-.035-.384-.174-.662-.453-.802s-.593-.2-.94-.2c-.105 0-.244 0-.384.035a.59.59 0 0 0-.349.105c-.105.035-.2.105-.28.2a.59.59 0 0 0-.105.349c0 .174.07.314.2.453a1.85 1.85 0 0 0 .523.279l.732.2.837.174.872.244c.28.105.523.2.732.384s.384.35.523.593.2.523.2.872c0 .488-.105.907-.28 1.22-.2.314-.453.593-.767.802s-.662.35-1.08.418a7.21 7.21 0 0 1-1.22.105c-.418 0-.837-.035-1.255-.14-.418-.07-.767-.244-1.08-.418-.314-.2-.593-.453-.767-.802-.2-.314-.314-.732-.35-1.22h1.918a1.01 1.01 0 0 0 .105.593zm8.124.08c.314.28.732.453 1.325.453.418 0 .767-.105 1.046-.314s.488-.418.558-.662h1.778c-.28.872-.732 1.5-1.325 1.883s-1.3.558-2.127.558c-.593 0-1.116-.105-1.57-.28a3.11 3.11 0 0 1-1.185-.802c-.314-.35-.558-.767-.732-1.22a4.49 4.49 0 0 1-.28-1.57 4.29 4.29 0 0 1 .279-1.534c.174-.453.453-.872.767-1.22.35-.35.732-.628 1.185-.802.453-.2.976-.314 1.534-.314.628 0 1.185.105 1.64.35a3.43 3.43 0 0 1 1.15.976c.313.418.523.872.662 1.395s.174 1.08.14 1.64h-5.3c0 .697.14 1.15.453 1.464zm2.3-3.87c-.244-.28-.628-.384-1.116-.384-.314 0-.593.07-.802.174s-.384.244-.523.418-.2.35-.28.523-.07.35-.105.488h3.278c-.07-.593-.2-.976-.453-1.22zM39.743 68.187v-28c.46-1.486 1.578-2.293 3.358-2.293l26.182.018c1.798 0 2.972 1.174 2.972 2.954v26.586c0 .22 0 .46-.037.68-.24 1.248-1.064 1.945-2.22 2.293H42c-1.174-.312-1.908-1.064-2.257-2.238zM54.054 46.4c-1.1.165-2.073.605-2.972 1.23-1.798 1.248-2.9 2.972-3.413 5.1-.1.44-.532.68-1.046.57-.44-.092-.24-.477-.294-.752 0-.055 0-.128.018-.183.44-3.67 2.312-6.348 5.578-8.073 1.046-.55 2.183-.88 3.358-1.046-.147-.037-.312-.037-.46-.037-2.66.22-4.954 1.23-6.844 3.1-1.927 1.9-3 4.22-3.266 6.917-.037.35-.165.55-.514.642-.44.1-.862.257-1.303.404-.422.147-.844.33-1.138.697-.35.44-.294.88.165 1.2.367.275.807.404 1.248.477 1.743.294 3.504.55 5.303.367 1.725-.165 3.376-.532 5-1.156.404-.165.57-.385.477-.826-.055-.24-.055-.514-.037-.77.018-.35-.147-.514-.477-.587-1.2-.294-2.44-.495-3.706-.55-.697-.018-.8-.1-.66-.807a7.46 7.46 0 0 1 3.321-5.009c.55-.35 1.12-.605 1.67-.917zm11.1 9.853l.24-.862a2.63 2.63 0 0 0 .092-.404c.385-2.9-.44-5.376-2.532-7.43-.587-.57-.587-.624-.22-1.34.1-.22.24-.294.46-.165l.385.22c3.358 2.367 4.734 5.633 4.385 9.67-.055.716-.312 1.394-.422 2.1.1-.165.202-.35.275-.514 1.725-4.57.385-9.596-3.486-12.568-.862-.66-1-1.248-.68-2.147.183-.532.24-1.083.1-1.65-.147-.624-.605-.862-1.193-.605a2.3 2.3 0 0 0-.844.66c-1.174 1.413-2.275 2.88-3.027 4.57-.734 1.67-1.23 3.394-1.45 5.192-.037.33.055.495.385.587.294.092.57.202.807.385.312.22.495.147.734-.1.88-.954 1.688-1.963 2.33-3.1.183-.33.35-.385.66-.147 1.54 1.1 2.46 2.605 2.88 4.44.22 1.083.24 2.147.1 3.2zm-16.843 5.98c.018.037.037.073.073.1 3.046 4.183 8.807 5.486 13.394 3.34.46-.22.77-.22 1.156.165.495.477 1 .972 1.633 1.266.8.35 1.284.037 1.284-.807 0-.294 0-.57-.092-.844-1.193-3.578-3.193-6.587-6.238-8.844-.22-.165-.404-.202-.642 0a3.31 3.31 0 0 1-.734.514c-.385.183-.404.44-.294.807a18.56 18.56 0 0 0 1.505 3.523c.294.55.294.605-.294.844-2.312.917-4.532.697-6.68-.495-.422-.24-.8-.514-1.193-.8a6.21 6.21 0 0 0 .972.991c2.293 1.725 4.825 2.238 7.578 1.413.605-.183.9-.037 1.248.422.24.312.183.44-.128.605-3.394 1.725-6.734 1.615-10.036-.257-.954-.55-1.725-1.266-2.514-1.963zM58.64 54.5c.018-1.046-.807-1.9-1.835-1.9a1.91 1.91 0 0 0-1.9 1.853c0 1.046.807 1.87 1.853 1.9a1.84 1.84 0 0 0 1.871-1.853z"/></svg>