<svg xmlns="http://www.w3.org/2000/svg" width="64" height="64"><linearGradient  gradientUnits="userSpaceOnUse" x1="250" y1="250" x2="250.707" y2="249.293"><stop offset="0" stop-color="#1eab4b"/><stop offset=".983" stop-color="#19361a"/></linearGradient><path d="M39.134 61.087c-.538.248-1.283.207-2.07.248-.662 0-1.614.04-1.986-.33-.207-.207-.3-.58-.3-.828a4.01 4.01 0 0 1 .124-.952c.083-.372.166-.87 0-1.034-.166-.248-.786-.124-1.076-.33-.33-.207-.414-.62-.538-1.16-.04-.166-.124-.3-.166-.414-.083-.786.166-1.82.33-2.607l.58-2.4c.207-1.16.3-2.482.207-3.724-.04-.62-.124-1.117-.04-1.655.083-.497.3-.9.414-1.407.04-.166 0-.33.04-.496 0-.166.124-.3.124-.414 0-.33-.083-.745-.124-1.158-.083-1.117 0-2.648.083-3.6.04-.33.166-.703-.04-.87-1.16 0-2.193.207-3.27.33-2.855.372-6.454.414-9.227-.124-.248-.04-.538-.04-.786-.124-1.945-.455-3.765-1.283-5.172-2.4l-.703-.538c-.248-.166-.497-.455-.703-.538-1.117-.538-2.607.083-3.062.786-.166.3-.33.662-.496.993l-.455.993-2.317 5.006-1.24 3.144c-.662 2.317-.04 5.46.496 7.654.04.207.166.414.248.62.166.538.538 1.24.952 1.614.207.207.58.3.828.496.3.248.538.786.786 1.24.083.166.248.414.372.62.3.496.372.952-.166 1.24-.414.207-1.034.3-1.614.33-.248.083-.166.414-.33.58-.083.083-.496.248-.703.33-.745.207-2.07.207-2.648 0-.3-.124-.62-.33-.703-.58-.166-.455.207-1.076-.124-1.407-.166-.166-.455-.124-.745-.248-.414-.166-.786-.538-.952-1.034-.455-1.16-.166-2.938-.207-4.344 0-.414-.083-.87-.083-1.324-.04-.827-.207-1.655-.33-2.482-.04-.414-.166-.745-.248-1.117l-.414-1.82c-.207-.662-.207-1.283.04-1.862.04-.166.207-.3.33-.496.124-.33.166-.703.166-.993-.083-.166-.496-.04-.58-.207L.986 36.8.862 34.856c-.124-1.283 0-2.607-.124-3.848-.04-.62-.207-1.2-.3-1.78-.207-1.655-.662-3.765-.33-5.503a6.45 6.45 0 0 1 1.241-2.813c.455-.58.9-1.117 1.448-1.614.496-.497 1.076-.952 1.696-1.407.372-.3.786-.62 1.24-.786.952-.455 2.193-.827 3.517-.87s2.813-.083 4.096.166l3.724.703 3.517.87c.166.04.3.124.414.166.372.083.786.124 1.158.248 1.076.3 2.44.414 3.724.414 1.407 0 2.648-.04 3.806-.33.166-.04.3-.124.496-.207.166-.083.414-.04.58-.124.124-.04.248-.166.372-.207.662-.33 1.24-.62 1.82-1.034.455-.33.87-.62 1.49-.87.3-.124.538-.248.827-.33.58-.207 1.24-.372 1.696-.662.703-.455 1.24-1.117 1.82-1.614l1.903-1.572 3.89-2.98c.62-.497 1.324-.993 2.07-1.407 1.448-.827 2.896-1.78 4.965-1.945.827-.04 1.655-.083 2.482.04.207.04.538.166.745.124s.372-.372.538-.662c.3-.538.538-.9.786-1.572.166-.414.083-.827.497-.786.414 0 .372 1.117.372 1.53.04.496-.04 1.158.04 1.49a.81.81 0 0 0 .703.579c.248 0 .372-.166.58-.33.207-.124.414-.207.58-.33.33-.248.745-.662 1.076-1.034.3-.3.745-.952 1.2-.9.827.083 0 1.283-.166 1.696-.414.952-.827 1.614-1.324 2.524-.207.372-.662.87-.662 1.24 0 .248.207.455.33.703l.124.414c.3.662.497 1.572.703 2.317l.58 1.945c.207.62.538 1.2.786 1.78.083.166.083.372.124.496l1.655 4.137c.248.538.62 1.158.62 1.945 0 .827-.455 1.24-.827 1.862-.207.33-.496.827-.786.952-.207.083-.497 0-.703.04-.33.04-.538.248-.827.3-.786.083-1.5-.496-1.696-1.076-.083-.207-.04-.455-.083-.703-.166-.9-.62-1.365-1.283-1.986-.414-.372-.745-.662-1.24-.952l-2.317-1.034c-.3-.166-.62-.3-.87-.248-.414.083-.827.745-1.16 1.158l-5.75 7.985c-1.283 1.738-2.69 3.475-3.724 5.46-.248.496-.414 1.076-.62 1.655s-.3 1.2-.496 1.78c-.745 2.15-.993 4.8-1.696 7.075-.083.248-.083.497-.166.786l-.993 3.724c-.3.9-.372 2.15-.414 3.35-.04 1.117-.083 2.73.33 3.434.207.372.993.538 1.283.9.207.3.33.827.538 1.16.124.248.538.786.497 1.16-.04.3-.3.496-.497.58-.248.124-.58.04-.827.166-.372.207-.248.538-.538.703z" fill-rule="evenodd" fill="#4e2817"/></svg>