<?xml version="1.0" encoding="UTF-8" standalone="no"?>
<svg
   xmlns:dc="http://purl.org/dc/elements/1.1/"
   xmlns:cc="http://creativecommons.org/ns#"
   xmlns:rdf="http://www.w3.org/1999/02/22-rdf-syntax-ns#"
   xmlns:svg="http://www.w3.org/2000/svg"
   xmlns="http://www.w3.org/2000/svg"
   xmlns:sodipodi="http://sodipodi.sourceforge.net/DTD/sodipodi-0.dtd"
   xmlns:inkscape="http://www.inkscape.org/namespaces/inkscape"
   id="图层_1"
   data-name="图层 1"
   viewBox="0 0 64 64"
   version="1.1"
   sodipodi:docname="pingcap-icon.svg"
   width="64"
   height="64"
   inkscape:version="0.92.3 (2405546, 2018-03-11)">
  <metadata
     id="metadata21">
    <rdf:RDF>
      <cc:Work
         rdf:about="">
        <dc:format>image/svg+xml</dc:format>
        <dc:type
           rdf:resource="http://purl.org/dc/dcmitype/StillImage" />
        <dc:title>pingcap</dc:title>
      </cc:Work>
    </rdf:RDF>
  </metadata>
  <sodipodi:namedview
     pagecolor="#ffffff"
     bordercolor="#666666"
     borderopacity="1"
     objecttolerance="10"
     gridtolerance="10"
     guidetolerance="10"
     inkscape:pageopacity="0"
     inkscape:pageshadow="2"
     inkscape:window-width="1920"
     inkscape:window-height="1001"
     id="namedview19"
     showgrid="false"
     inkscape:measure-start="0,0"
     inkscape:measure-end="0,0"
     inkscape:zoom="6.78"
     inkscape:cx="78.088406"
     inkscape:cy="43.415485"
     inkscape:window-x="-9"
     inkscape:window-y="-9"
     inkscape:window-maximized="1"
     inkscape:current-layer="图层_1" />
  <defs
     id="defs4">
    <style
       id="style2">.cls-1{fill:#1a237e}.cls-2{fill:#172d72}.cls-3{fill:#10a6fa}.cls-4{fill:#3351ff}</style>
  </defs>
  <title
     id="title6">pingcap</title>
  <g
     id="g38"
     transform="matrix(2.426559,0,0,2.426559,-17.510315,-40.796771)">
    <path
       style="fill:#1a237e;stroke-width:0.25740412"
       inkscape:connector-curvature="0"
       id="path8"
       d="M 23.00277,22.96101 11.57274,19.700987 a 1.2337379,1.2337379 0 0 0 -1.572739,1.185861 v 21.066725 a 1.2329657,1.2329657 0 0 0 1.519714,1.200018 l 11.429257,-2.727454 a 1.2298768,1.2298768 0 0 0 0.948277,-1.200276 V 24.147129 A 1.2391434,1.2391434 0 0 0 23.002255,22.96101 Z"
       class="cls-1" />
    <path
       style="fill:#10a6fa;stroke-width:0.25740412"
       inkscape:connector-curvature="0"
       id="path12"
       d="M 30.788987,22.21145 A 1.2391434,1.2391434 0 0 0 29.89528,21.02842 L 15.348859,16.860533 a 1.2337379,1.2337379 0 0 0 -1.574284,1.185861 v 15.985567 a 1.2303916,1.2303916 0 0 0 1.522288,1.198988 L 29.86156,31.724076 a 1.2298768,1.2298768 0 0 0 0.945445,-1.201305 z"
       class="cls-3" />
    <path
       style="fill:#3351ff;stroke-width:0.25740412"
       inkscape:connector-curvature="0"
       id="path14"
       d="m 23.00277,22.96101 -9.229739,-2.632471 v 13.703422 a 1.2303916,1.2303916 0 0 0 1.522288,1.198988 l 8.603217,-2.070301 V 24.146871 A 1.2391434,1.2391434 0 0 0 23.002255,22.96101 Z"
       class="cls-4" />
  </g>
</svg>
