<?xml version="1.0" encoding="UTF-8" standalone="no"?>
<svg
   xmlns:dc="http://purl.org/dc/elements/1.1/"
   xmlns:cc="http://creativecommons.org/ns#"
   xmlns:rdf="http://www.w3.org/1999/02/22-rdf-syntax-ns#"
   xmlns:svg="http://www.w3.org/2000/svg"
   xmlns="http://www.w3.org/2000/svg"
   xmlns:sodipodi="http://sodipodi.sourceforge.net/DTD/sodipodi-0.dtd"
   xmlns:inkscape="http://www.inkscape.org/namespaces/inkscape"
   id="图层_1"
   data-name="图层 1"
   viewBox="0 0 120 60"
   version="1.1"
   sodipodi:docname="pingcap-ar21.svg"
   width="120"
   height="60"
   inkscape:version="0.92.3 (2405546, 2018-03-11)">
  <metadata
     id="metadata21">
    <rdf:RDF>
      <cc:Work
         rdf:about="">
        <dc:format>image/svg+xml</dc:format>
        <dc:type
           rdf:resource="http://purl.org/dc/dcmitype/StillImage" />
        <dc:title>pingcap</dc:title>
      </cc:Work>
    </rdf:RDF>
  </metadata>
  <sodipodi:namedview
     pagecolor="#ffffff"
     bordercolor="#666666"
     borderopacity="1"
     objecttolerance="10"
     gridtolerance="10"
     guidetolerance="10"
     inkscape:pageopacity="0"
     inkscape:pageshadow="2"
     inkscape:window-width="1920"
     inkscape:window-height="1001"
     id="namedview19"
     showgrid="false"
     inkscape:measure-start="0,0"
     inkscape:measure-end="0,0"
     inkscape:zoom="6.78"
     inkscape:cx="78.088406"
     inkscape:cy="43.415485"
     inkscape:window-x="-9"
     inkscape:window-y="-9"
     inkscape:window-maximized="1"
     inkscape:current-layer="图层_1" />
  <defs
     id="defs4">
    <style
       id="style2">.cls-1{fill:#1a237e}.cls-2{fill:#172d72}.cls-3{fill:#10a6fa}.cls-4{fill:#3351ff}</style>
  </defs>
  <title
     id="title6">pingcap</title>
  <g
     id="g51"
     transform="translate(-0.44247802)">
    <g
       transform="matrix(1.4082292,0,0,1.4082292,-4.082292,-12.246876)"
       id="g38">
      <path
         class="cls-1"
         d="M 23.00277,22.96101 11.57274,19.700987 a 1.2337379,1.2337379 0 0 0 -1.572739,1.185861 v 21.066725 a 1.2329657,1.2329657 0 0 0 1.519714,1.200018 l 11.429257,-2.727454 a 1.2298768,1.2298768 0 0 0 0.948277,-1.200276 V 24.147129 A 1.2391434,1.2391434 0 0 0 23.002255,22.96101 Z"
         id="path8"
         inkscape:connector-curvature="0"
         style="fill:#1a237e;stroke-width:0.25740412" />
      <path
         class="cls-3"
         d="M 30.788987,22.21145 A 1.2391434,1.2391434 0 0 0 29.89528,21.02842 L 15.348859,16.860533 a 1.2337379,1.2337379 0 0 0 -1.574284,1.185861 v 15.985567 a 1.2303916,1.2303916 0 0 0 1.522288,1.198988 L 29.86156,31.724076 a 1.2298768,1.2298768 0 0 0 0.945445,-1.201305 z"
         id="path12"
         inkscape:connector-curvature="0"
         style="fill:#10a6fa;stroke-width:0.25740412" />
      <path
         class="cls-4"
         d="m 23.00277,22.96101 -9.229739,-2.632471 v 13.703422 a 1.2303916,1.2303916 0 0 0 1.522288,1.198988 l 8.603217,-2.070301 V 24.146871 A 1.2391434,1.2391434 0 0 0 23.002255,22.96101 Z"
         id="path14"
         inkscape:connector-curvature="0"
         style="fill:#3351ff;stroke-width:0.25740412" />
    </g>
    <g
       transform="matrix(0.90011138,0,0,0.90011138,11.872704,3.1699422)"
       id="g42">
      <path
         class="cls-2"
         d="m 84.825574,33.212644 -0.02986,0.04659 a 5.2070277,5.2070277 0 0 1 -1.782008,1.701441 4.7678963,4.7678963 0 0 1 -2.439162,0.705287 4.8605618,4.8605618 0 0 1 -3.691175,-1.688571 5.6912049,5.6912049 0 0 1 -1.478014,-4.026057 5.6016282,5.6016282 0 0 1 1.524862,-3.817303 4.71101,4.71101 0 0 1 3.545742,-1.598737 c 1.864892,-0.01699 3.272893,0.753164 4.30148,2.354733 l 0.02986,0.04659 h 0.02857 l 1.213146,-0.749046 a 6.7239102,6.7239102 0 0 0 -2.002604,-2.130277 6.2523458,6.2523458 0 0 0 -3.471867,-1.049436 6.0888942,6.0888942 0 0 0 -4.635333,1.975576 c -1.291139,1.328463 -1.948292,3.023469 -1.948292,5.036627 a 7.2842789,7.2842789 0 0 0 1.927442,5.052328 6.0500262,6.0500262 0 0 0 4.588743,2.078023 h 0.06615 a 6.3468131,6.3468131 0 0 0 5.469323,-3.1949 z m 9.057793,-10.024346 h -1.648158 l -6.122614,13.706254 h 1.95344 L 89.95847,32.3385 h 0.0026 l 0.670022,-1.423445 h -0.0039 l 2.46516,-5.7849 2.415737,5.7849 H 92.040354 L 91.409199,32.3385 h 4.662618 l 1.909166,4.556052 h 1.723578 z m 14.779113,1.253301 a 4.9104982,4.9104982 0 0 0 -3.40159,-1.236312 h -4.43533 v 13.689265 h 1.61572 V 24.682014 h 2.88962 a 3.2093144,3.2093144 0 0 1 2.10685,0.731028 2.3508717,2.3508717 0 0 1 0.95703,1.81856 2.4075006,2.4075006 0 0 1 -0.85844,2.087032 3.0391703,3.0391703 0 0 1 -2.11844,0.77942 h -1.67261 v 1.441463 h 1.93645 a 4.3315964,4.3315964 0 0 0 3.01575,-1.149309 3.7665943,3.7665943 0 0 0 1.29886,-2.845603 3.8880891,3.8880891 0 0 0 -1.33387,-3.103006 z"
         id="path10"
         inkscape:connector-curvature="0"
         style="fill:#172d72;stroke-width:0.25740412" />
      <path
         class="cls-1"
         d="m 48.478569,23.458573 h 1.615726 v 1.615725 h -1.615726 z m 0,3.619616 h 1.615726 v 9.837213 h -1.615726 z m 24.335757,8.853929 v -4.224773 a 5.3769145,5.3769145 0 0 0 -5.402912,-5.351432 5.0863052,5.0863052 0 0 0 -3.613439,1.627566 5.2134628,5.2134628 0 0 0 -1.466431,3.701471 5.3159097,5.3159097 0 0 0 1.591015,3.843301 4.9334072,4.9334072 0 0 0 3.795166,1.521001 5.0368836,5.0368836 0 0 0 3.569165,-1.601568 v 0.67028 m 0,0 a 3.0754643,3.0754643 0 0 1 -1.053297,2.323587 3.5223178,3.5223178 0 0 1 -2.467734,1.003876 3.6106075,3.6106075 0 0 1 -2.197716,-0.733602 3.3691624,3.3691624 0 0 1 -1.168872,-1.369132 l -1.237856,0.714296 a 4.7457596,4.7457596 0 0 0 1.291139,1.558582 5.3038117,5.3038117 0 0 0 3.147022,1.109412 h 0.229862 a 5.3094746,5.3094746 0 0 0 3.376885,-1.201563 3.9671121,3.9671121 0 0 0 1.600024,-3.221155 v -0.383017 m -1.558582,-4.122327 a 3.7951662,3.7951662 0 0 1 -1.092166,2.626037 3.3380165,3.3380165 0 0 1 -2.532856,1.088562 3.5457416,3.5457416 0 0 1 -2.620889,-1.078008 3.6626031,3.6626031 0 0 1 -1.124856,-2.641996 3.7210338,3.7210338 0 0 1 1.023696,-2.676746 3.5380195,3.5380195 0 0 1 2.53646,-1.227302 h 0.194855 a 3.3127909,3.3127909 0 0 1 2.526164,1.128717 3.7001841,3.7001841 0 0 1 1.092166,2.793606 z M 45.601821,24.441599 a 4.9104982,4.9104982 0 0 0 -3.401595,-1.236312 h -4.435588 v 13.689265 h 1.615726 V 24.682014 h 2.89245 a 3.2093144,3.2093144 0 0 1 2.106852,0.731028 2.3508717,2.3508717 0 0 1 0.957029,1.81856 2.4075006,2.4075006 0 0 1 -0.858443,2.087032 3.0391703,3.0391703 0 0 1 -2.118436,0.77942 h -1.675443 v 1.441463 h 1.936708 a 4.3315964,4.3315964 0 0 0 3.015747,-1.149309 3.7665943,3.7665943 0 0 0 1.298861,-2.845603 3.9001871,3.9001871 0 0 0 -1.333868,-3.103006 z m 10.835684,2.034007 a 4.3658311,4.3658311 0 0 0 -3.237887,1.324859 4.5171847,4.5171847 0 0 0 -1.288307,3.289625 v 5.785157 h 1.558582 v -5.925443 a 2.8301582,2.8301582 0 0 1 0.876718,-2.090893 2.8664522,2.8664522 0 0 1 2.090894,-0.876719 2.7910328,2.7910328 0 0 1 2.056144,0.876719 2.8391673,2.8391673 0 0 1 0.894736,2.091151 v 5.925185 h 1.558582 v -5.7849 A 4.5328864,4.5328864 0 0 0 59.65866,27.800465 4.3457536,4.3457536 0 0 0 56.437505,26.475606 Z"
         id="path16"
         inkscape:connector-curvature="0"
         style="fill:#1a237e;stroke-width:0.25740412" />
    </g>
  </g>
</svg>
