<svg xmlns="http://www.w3.org/2000/svg" width="120" height="60"><path d="M24.19 41.717l-1.326 2.734c-1.458-.845-3.298-1.442-4.408-1.442-.91 0-1.524.33-1.524 1.01 0 2.386 7.29 1.027 7.29 6.015 0 2.75-2.436 4.21-5.518 4.21-2.303 0-4.673-.862-6.297-2.204l1.36-2.7c1.425 1.243 3.546 2.07 4.988 2.07 1.1 0 1.8-.414 1.8-1.2 0-2.436-7.29-.978-7.29-5.866 0-2.535 2.187-4.16 5.5-4.16 1.988 0 4 .613 5.435 1.54zm8.484 11.83c-.762.447-1.806.73-2.834.73-2.055 0-3.53-1.16-3.53-3.364v-4.69h-1.475v-2.22h1.475v-2.95h3.38v2.933h2.784v2.254h-2.784v4.16c0 .83.348 1.176.978 1.16.348 0 .812-.133 1.326-.348zm10.82-6.363v6.926h-3.33v-1.226c-.696.91-1.806 1.375-3.248 1.375-2.27 0-3.645-1.375-3.645-3.33 0-2.005 1.442-3.198 4.076-3.215h2.8v-.166c0-1.044-.696-1.674-2.07-1.674-.878 0-2.055.315-3.165.878l-.96-2.254c1.657-.762 3.148-1.2 4.92-1.2 2.916.066 4.607 1.49 4.623 3.894zm-3.347 3.33v-.945h-2.154c-1.027 0-1.54.348-1.54 1.143 0 .762.547 1.26 1.49 1.26 1.077 0 1.988-.58 2.204-1.458zm14.83-4.74l-2.436 1.475a2.55 2.55 0 0 0-2.154-1.11c-1.326 0-2.22 1.077-2.22 2.684 0 1.64.91 2.7 2.22 2.7.96 0 1.707-.398 2.17-1.2l2.486 1.458c-.862 1.558-2.585 2.47-4.822 2.47-3.264 0-5.468-2.17-5.468-5.402 0-3.264 2.22-5.452 5.518-5.452 2.088 0 3.778.862 4.706 2.386zm4.623 5.452v2.9H56.19V39.513h3.414v7.722l3.513-3.728h3.86l-3.894 4.076 4 6.545H63.05l-2.303-4.093zM73.82 40.34c3.414 0 5.385 1.7 5.385 4.623 0 3.05-1.972 4.805-5.385 4.805h-3.612v4.358h-1.574V40.34zm-3.596 7.92h3.546c2.486 0 3.927-1.1 3.927-3.248 0-2.088-1.442-3.148-3.927-3.148h-3.546zm17.084 4.275c-.83 1.127-2.154 1.674-3.795 1.674-2.154 0-3.53-1.375-3.53-3.165 0-1.806 1.442-2.95 3.877-2.966h3.414v-.63c0-1.524-.945-2.42-2.784-2.42-1.143 0-2.204.43-3.298 1.176l-.646-1.127c1.342-.878 2.47-1.392 4.242-1.392 2.568 0 3.977 1.36 3.993 3.58l.017 6.86h-1.49zm-.017-1.988v-1.243h-3.23c-1.74 0-2.635.53-2.635 1.674s.928 1.89 2.386 1.89c1.74 0 3.082-.895 3.48-2.32zm9.097 2.867c-.73.497-1.524.762-2.336.795-1.524 0-2.635-.91-2.635-2.95V45.33h-1.49v-1.243h1.49v-2.75h1.524v2.734l3.298-.017v1.26h-3.298v5.65c0 1.26.497 1.74 1.375 1.74.53 0 1.077-.182 1.657-.53zm11.202-5.684v6.396h-1.54v-5.982c0-1.84-1.1-2.916-2.933-2.916-2.204.017-3.513 1.574-3.513 3.795v5.104h-1.54V39.513h1.54v6.562c.713-1.607 2.12-2.37 4.043-2.386 2.486 0 3.944 1.54 3.944 4.043z" fill="#141414"/><path d="M73.432 13.832H55.327c-2.326 0-4.233 1.886-4.233 4.233 0 2.326 1.886 4.233 4.233 4.233h9.367a1.24 1.24 0 0 1 1.236 1.236 1.24 1.24 0 0 1-1.236 1.236h-9.367c-3.71 0-6.706-3.018-6.706-6.706a6.73 6.73 0 0 1 6.706-6.706h16.66L69.41 6.916c-.42-.733-1.215-1.194-2.075-1.194H52.687c-.86 0-1.655.46-2.075 1.194l-7.334 12.7c-.42.733-.42 1.655 0 2.4l3.332 5.763h18.084c2.326 0 4.233-1.886 4.233-4.233 0-2.326-1.886-4.233-4.233-4.233h-9.346a1.24 1.24 0 0 1-1.236-1.236 1.24 1.24 0 0 1 1.236-1.236h9.367c3.71 0 6.706 3.018 6.706 6.706 0 3.71-3.018 6.706-6.706 6.706h-16.68l2.557 4.442c.42.733 1.215 1.194 2.075 1.194h14.648c.86 0 1.655-.46 2.075-1.194l7.334-12.7c.42-.733.42-1.655 0-2.4z" fill="#00afec"/></svg>