<?xml version="1.0" encoding="UTF-8" standalone="no"?>
<!-- Generator: Adobe Illustrator 22.1.0, SVG Export Plug-In . SVG Version: 6.00 Build 0)  -->

<svg
   xmlns:dc="http://purl.org/dc/elements/1.1/"
   xmlns:cc="http://creativecommons.org/ns#"
   xmlns:rdf="http://www.w3.org/1999/02/22-rdf-syntax-ns#"
   xmlns:svg="http://www.w3.org/2000/svg"
   xmlns="http://www.w3.org/2000/svg"
   xmlns:sodipodi="http://sodipodi.sourceforge.net/DTD/sodipodi-0.dtd"
   xmlns:inkscape="http://www.inkscape.org/namespaces/inkscape"
   version="1.1"
   id="图层_1"
   x="0px"
   y="0px"
   viewBox="0 0 120 60"
   xml:space="preserve"
   sodipodi:docname="mi-ar21.svg"
   width="120"
   height="60"
   inkscape:version="0.92.3 (2405546, 2018-03-11)"><metadata
   id="metadata23"><rdf:RDF><cc:Work
       rdf:about=""><dc:format>image/svg+xml</dc:format><dc:type
         rdf:resource="http://purl.org/dc/dcmitype/StillImage" /><dc:title></dc:title></cc:Work></rdf:RDF></metadata><defs
   id="defs21" /><sodipodi:namedview
   pagecolor="#ffffff"
   bordercolor="#666666"
   borderopacity="1"
   objecttolerance="10"
   gridtolerance="10"
   guidetolerance="10"
   inkscape:pageopacity="0"
   inkscape:pageshadow="2"
   inkscape:window-width="1920"
   inkscape:window-height="1001"
   id="namedview19"
   showgrid="false"
   inkscape:zoom="2.2583732"
   inkscape:cx="52.25"
   inkscape:cy="52.25"
   inkscape:window-x="-9"
   inkscape:window-y="-9"
   inkscape:window-maximized="1"
   inkscape:current-layer="图层_1" />
<style
   type="text/css"
   id="style2">
	.st0{fill-rule:evenodd;clip-rule:evenodd;fill:#EC671C;}
	.st1{fill:#FFFFFF;}
</style>
<g
   id="g16"
   transform="matrix(0.41103315,0,0,0.41103315,38.502966,8.5235179)">
	<g
   id="g14">
		<path
   class="st0"
   d="M 100.5,104.5 H 4 c -2.2,0 -4,-1.8 -4,-4 V 4 C 0,1.8 1.8,0 4,0 h 96.6 c 2.2,0 4,1.8 4,4 v 96.6 c -0.1,2.1 -1.9,3.9 -4.1,3.9 z"
   id="path4"
   inkscape:connector-curvature="0"
   style="clip-rule:evenodd;fill:#ec671c;fill-rule:evenodd" />
		<g
   id="g12">
			<path
   class="st1"
   d="m 81.9,32.9 h -8.2 c -0.4,0 -0.6,0.3 -0.6,0.6 V 71 c 0,0.3 0.3,0.6 0.6,0.6 h 8.2 c 0.3,0 0.6,-0.3 0.6,-0.6 V 33.5 c 0.1,-0.3 -0.2,-0.6 -0.6,-0.6 z"
   id="path6"
   inkscape:connector-curvature="0"
   style="fill:#ffffff" />
			<path
   class="st1"
   d="M 53.9,32.9 H 22.6 c -0.4,0 -0.6,0.3 -0.6,0.6 V 71 c 0,0.3 0.3,0.6 0.6,0.6 h 8.2 c 0.4,0 0.6,-0.3 0.6,-0.6 V 41.6 C 31.4,41.3 31.7,41 32,41 h 17.7 c 5,0 6.4,3.8 6.4,6.3 V 71 c 0,0.3 0.3,0.6 0.6,0.6 H 65 c 0.4,0 0.6,-0.3 0.6,-0.6 V 44.4 c 0,-2.2 -0.3,-5.4 -3.1,-8.1 -2.9,-2.9 -5.6,-3.4 -8.6,-3.4 z"
   id="path8"
   inkscape:connector-curvature="0"
   style="fill:#ffffff" />
			<path
   class="st1"
   d="m 48.1,47.8 h -8.6 c -0.4,0 -0.6,0.3 -0.6,0.6 V 71 c 0,0.3 0.3,0.6 0.6,0.6 h 8.6 c 0.3,0 0.6,-0.3 0.6,-0.6 V 48.4 c 0,-0.3 -0.2,-0.6 -0.6,-0.6 z"
   id="path10"
   inkscape:connector-curvature="0"
   style="fill:#ffffff" />
		</g>
	</g>
</g>
</svg>