<svg xmlns="http://www.w3.org/2000/svg" width="120" height="60"><path d="M32.463 5.228h5.134V39.3H57.9v4.2H32.463zm41.445 9.242c-5.25-.07-10.5 3.267-12.135 8.33-2.334 5.834-1.26 13.162 3.314 17.62 4.434 3.687 11.108 3.967 16.102 1.354 3.43-1.82 5.6-5.437 6.067-9.24.607-3.967.303-8.308-1.634-11.9-2.287-3.827-6.768-6.3-11.2-6.137l-.513-.07zm.467 4.06c3.85 0 7.304 2.94 7.934 6.72 1.167 4.27.467 9.498-3.034 12.508-3.267 2.66-8.518 2.287-11.2-1.003-3.267-3.5-3.267-8.868-1.587-13.068 1.167-3.034 4.27-5.204 7.538-5.134h.42z"/><path d="M32.463 48.938h55.074v5.834H32.463z" fill="#3492ff"/></svg>