<?xml version="1.0" encoding="utf-8"?>
<!-- Generator: Adobe Illustrator 24.0.0, SVG Export Plug-In . SVG Version: 6.00 Build 0)  -->
<svg version="1.1" id="Layer_1" xmlns="http://www.w3.org/2000/svg" xmlns:xlink="http://www.w3.org/1999/xlink" x="0px" y="0px"
	 viewBox="0 0 64 64" width="64" height="64" style="enable-background:new 0 0 64 64;" xml:space="preserve">
<style type="text/css">
	.st0{clip-path:url(#SVGID_2_);fill:#FFFFFF;}
	.st1{clip-path:url(#SVGID_4_);fill:none;}
	.st2{clip-path:url(#SVGID_6_);fill:none;}
	.st3{clip-path:url(#SVGID_8_);fill:none;}
	.st4{clip-path:url(#SVGID_10_);fill:none;}
	.st5{clip-path:url(#SVGID_12_);fill:none;}
	.st6{clip-path:url(#SVGID_14_);fill:none;}
	.st7{clip-path:url(#SVGID_16_);fill:none;}
	.st8{clip-path:url(#SVGID_18_);fill:#C41230;}
	.st9{clip-path:url(#SVGID_20_);fill:#C41230;}
	.st10{clip-path:url(#SVGID_22_);fill:#C41230;}
	.st11{clip-path:url(#SVGID_24_);fill:#C41230;}
	.st12{clip-path:url(#SVGID_26_);fill:#C41230;}
	.st13{clip-path:url(#SVGID_28_);fill:#C41230;}
	.st14{clip-path:url(#SVGID_30_);fill:#C41230;}
	.st15{clip-path:url(#SVGID_32_);fill:#C41230;}
	.st16{clip-path:url(#SVGID_34_);fill:#C41230;}
	.st17{clip-path:url(#SVGID_36_);fill:#C41230;}
	.st18{clip-path:url(#SVGID_38_);fill:#C41230;}
	.st19{clip-path:url(#SVGID_40_);fill:#C41230;}
	.st20{clip-path:url(#SVGID_42_);fill:#C41230;}
	.st21{clip-path:url(#SVGID_44_);fill:#C41230;}
	.st22{clip-path:url(#SVGID_46_);fill:#FFFFFF;}
	.st23{clip-path:url(#SVGID_48_);fill:#FFFFFF;}
	.st24{clip-path:url(#SVGID_50_);fill:#FFFFFF;}
	.st25{clip-path:url(#SVGID_52_);fill:#FFFFFF;}
	.st26{clip-path:url(#SVGID_54_);fill:#FFFFFF;}
	.st27{clip-path:url(#SVGID_56_);fill:#FFFFFF;}
	.st28{clip-path:url(#SVGID_58_);fill:#FFFFFF;}
	.st29{clip-path:url(#SVGID_60_);fill:#FFFFFF;}
	.st30{clip-path:url(#SVGID_62_);fill:#FFFFFF;}
	.st31{clip-path:url(#SVGID_64_);fill:#FFFFFF;}
	.st32{clip-path:url(#SVGID_66_);fill:#FFFFFF;}
	.st33{clip-path:url(#SVGID_68_);fill:#FFFFFF;}
	.st34{clip-path:url(#SVGID_70_);fill:#FFFFFF;}
	.st35{clip-path:url(#SVGID_72_);fill:#FFFFFF;}
	.st36{clip-path:url(#SVGID_74_);fill:#FFFFFF;}
</style>
<g>
	<g>
		<g>
			<defs>
				<circle id="SVGID_1_" cx="32" cy="32" r="32"/>
			</defs>
			<clipPath id="SVGID_2_">
				<use xlink:href="#SVGID_1_"  style="overflow:visible;"/>
			</clipPath>
			<circle class="st0" cx="32" cy="32" r="32"/>
		</g>
	</g>
	<g>
		<g>
			<defs>
				<circle id="SVGID_3_" cx="32" cy="32" r="32"/>
			</defs>
			<clipPath id="SVGID_4_">
				<use xlink:href="#SVGID_3_"  style="overflow:visible;"/>
			</clipPath>
			<path class="st1" d="M37,47.8c-2.1,0.3-1.2,2.9-2.3,3.8C35.8,50.7,35,48.1,37,47.8z"/>
		</g>
	</g>
	<g>
		<g>
			<defs>
				<circle id="SVGID_5_" cx="32" cy="32" r="32"/>
			</defs>
			<clipPath id="SVGID_6_">
				<use xlink:href="#SVGID_5_"  style="overflow:visible;"/>
			</clipPath>
			<path class="st2" d="M35,60.7c0,0.7,0.3,1.3,1,1.3C35.3,62,35.1,61.4,35,60.7z"/>
		</g>
	</g>
	<g>
		<g>
			<defs>
				<circle id="SVGID_7_" cx="32" cy="32" r="32"/>
			</defs>
			<clipPath id="SVGID_8_">
				<use xlink:href="#SVGID_7_"  style="overflow:visible;"/>
			</clipPath>
			<path class="st3" d="M40.2,59.6c0.4-0.4,1.1-0.7,1.6-0.9C41.3,58.9,40.6,59.2,40.2,59.6z"/>
		</g>
	</g>
	<g>
		<g>
			<defs>
				<circle id="SVGID_9_" cx="32" cy="32" r="32"/>
			</defs>
			<clipPath id="SVGID_10_">
				<use xlink:href="#SVGID_9_"  style="overflow:visible;"/>
			</clipPath>
			<path class="st4" d="M42,39c-1.1,0.2-0.9,2.7-0.1,3.1C41.2,41.8,41.1,39.3,42,39z"/>
		</g>
	</g>
	<g>
		<g>
			<defs>
				<circle id="SVGID_11_" cx="32" cy="32" r="32"/>
			</defs>
			<clipPath id="SVGID_12_">
				<use xlink:href="#SVGID_11_"  style="overflow:visible;"/>
			</clipPath>
			<path class="st5" d="M62.7,27.7c0.1,0.4,0.2,0.9,0.4,1.3c0.1,0.2,0.1,0.3,0.2,0.5l0.1,11c0.4-2.3,0.6-4.9,0.6-7.4
				c0-2.6-0.3-5-0.7-7.4v2.2C63.1,27.8,62.9,27.7,62.7,27.7z"/>
		</g>
	</g>
	<g>
		<g>
			<defs>
				<circle id="SVGID_13_" cx="32" cy="32" r="32"/>
			</defs>
			<clipPath id="SVGID_14_">
				<use xlink:href="#SVGID_13_"  style="overflow:visible;"/>
			</clipPath>
			<path class="st6" d="M52.6,61.1c-0.2,0.2-0.3,0.4-0.4,0.7c0.4-0.4,0.7-0.7,1.1-1.2C53,60.7,52.8,60.9,52.6,61.1z"/>
		</g>
	</g>
	<g>
		<g>
			<defs>
				<circle id="SVGID_15_" cx="32" cy="32" r="32"/>
			</defs>
			<clipPath id="SVGID_16_">
				<use xlink:href="#SVGID_15_"  style="overflow:visible;"/>
			</clipPath>
			<path class="st7" d="M53.2,42.3c0.5,1,1,2,1,3.1C54.1,44.4,53.8,43.3,53.2,42.3z"/>
		</g>
	</g>
	<g>
		<g>
			<defs>
				<circle id="SVGID_17_" cx="32" cy="32" r="32"/>
			</defs>
			<clipPath id="SVGID_18_">
				<use xlink:href="#SVGID_17_"  style="overflow:visible;"/>
			</clipPath>
		</g>
	</g>
	<g>
		<g>
			<defs>
				<circle id="SVGID_19_" cx="32" cy="32" r="32"/>
			</defs>
			<clipPath id="SVGID_20_">
				<use xlink:href="#SVGID_19_"  style="overflow:visible;"/>
			</clipPath>
			<path class="st9" d="M22,45.3c-0.2-1.1,0.5-3.7-0.7-4.2c0.3,1.6-0.5,3.5-0.1,5.2c0.3,1.6,1.4,3,2.2,4.2c1.1,1.4,1.8,2.2,1.8,4.1
				c0,1.5,0.1,3,0.4,4.5c0.7-0.1,0.9-3.6,1-4.6c0.3-2.1-1.2-3.4-2.5-4.9C23,48.2,22.3,47,22,45.3z"/>
		</g>
	</g>
	<g>
		<g>
			<defs>
				<circle id="SVGID_21_" cx="32" cy="32" r="32"/>
			</defs>
			<clipPath id="SVGID_22_">
				<use xlink:href="#SVGID_21_"  style="overflow:visible;"/>
			</clipPath>
			<path class="st10" d="M24.5,28.8c0.7-1.1,2.1-1.8,2.8-3.1c0.3-0.5,1.3-3.3,0.6-3.7c-1-0.5-1,1.2-1.1,1.6c-0.2,1.1-0.4,1.3-1.1,2
				C25.2,26.2,23,28.4,24.5,28.8z"/>
		</g>
	</g>
	<g>
		<g>
			<defs>
				<circle id="SVGID_23_" cx="32" cy="32" r="32"/>
			</defs>
			<clipPath id="SVGID_24_">
				<use xlink:href="#SVGID_23_"  style="overflow:visible;"/>
			</clipPath>
			<path class="st11" d="M51.3,43.1c0.1,0.2,0.3,0.5,0.5,0.9c0.5,1,1.5,2,2.3,1.5c0-1-0.3-2-1-3.1c-0.7-1.3-1.8-2.6-3-3.5
				c-0.6-0.5-1.4-1.1-2-1.4h-0.1c0.5,0.3,1.4,2.1,1.5,2.8c0,0.2,0.1,0.3,0.1,0.5c0,1.1-0.9,1-1.7,1.5C49.2,42.1,50.8,42.3,51.3,43.1
				z"/>
		</g>
	</g>
	<g>
		<g>
			<defs>
				<circle id="SVGID_25_" cx="32" cy="32" r="32"/>
			</defs>
			<clipPath id="SVGID_26_">
				<use xlink:href="#SVGID_25_"  style="overflow:visible;"/>
			</clipPath>
			<path class="st12" d="M37,47.8c-2.1,0.3-1.2,2.9-2.3,3.8l-0.1,0.1C36.1,51.3,37,49.3,37,47.8z"/>
		</g>
	</g>
	<g>
		<g>
			<defs>
				<circle id="SVGID_27_" cx="32" cy="32" r="32"/>
			</defs>
			<clipPath id="SVGID_28_">
				<use xlink:href="#SVGID_27_"  style="overflow:visible;"/>
			</clipPath>
			<path class="st13" d="M53.8,46.9c-1.7-0.4-3.4-3.2-5.3-2c2.7,0.5,3,3,4.3,4.7c0.7,1,3.7,3.5,4.1,1.9c0.1-0.4-0.3-2.8-0.5-3.2
				C55.8,47.3,54.7,47.1,53.8,46.9z"/>
		</g>
	</g>
	<g>
		<g>
			<defs>
				<circle id="SVGID_29_" cx="32" cy="32" r="32"/>
			</defs>
			<clipPath id="SVGID_30_">
				<use xlink:href="#SVGID_29_"  style="overflow:visible;"/>
			</clipPath>
			<path class="st14" d="M56.2,53.5c-2.6-1-4.5-2.2-7-4.8c-0.4,2,1.5,4.2,2.9,5.5c0.5,0.5,2.3,2.2,3.9,3.2c0.7-1,1.4-1.9,2-2.9
				C57.7,53.7,57.4,54,56.2,53.5z"/>
		</g>
	</g>
	<g>
		<g>
			<defs>
				<circle id="SVGID_31_" cx="32" cy="32" r="32"/>
			</defs>
			<clipPath id="SVGID_32_">
				<use xlink:href="#SVGID_31_"  style="overflow:visible;"/>
			</clipPath>
			<path class="st15" d="M36.6,53.3c0.9-1.3,1.2-1.1,1.2-2.8c-1.2,0.6-2.8,4.5-2.7,5.9C35.8,56,36.2,54.2,36.6,53.3z"/>
		</g>
	</g>
	<g>
		<g>
			<defs>
				<circle id="SVGID_33_" cx="32" cy="32" r="32"/>
			</defs>
			<clipPath id="SVGID_34_">
				<use xlink:href="#SVGID_33_"  style="overflow:visible;"/>
			</clipPath>
			<path class="st16" d="M38.3,55.3h0.3C38.5,55.3,38.5,55.1,38.3,55.3C37,54.7,35,58.7,35,60.7c0,0.7,0.3,1.3,1,1.3
				c0-1.5,0.2-2.3,0.9-3.6c0.5-1.1,1.4-1.9,1.8-3C38.5,55.1,38.4,55.4,38.3,55.3z"/>
		</g>
	</g>
	<g>
		<g>
			<defs>
				<circle id="SVGID_35_" cx="32" cy="32" r="32"/>
			</defs>
			<clipPath id="SVGID_36_">
				<use xlink:href="#SVGID_35_"  style="overflow:visible;"/>
			</clipPath>
			<path class="st17" d="M48.1,38.6c-0.3-1.5-2-2.2-3.4-2.5c-0.9-0.1-2.2-0.1-3.1,0c-1.5,0.2-2.7,1.3-3.9,2.2
				c-1.2,0.9-1.4,1.7-1.1,3.3c0.3,1.4,0.5,2.6,1.9,2.5c1.4-0.1,2.6-1.4,3.2-0.3c0.1,0.3,0.1,0.5,0.2,0.9c-2,0.3-3.5,0.3-2.7,0.6
				c0.9,0.2,1.9,0.3,2.9,0.3c0.4,1.7,0.9,3.2,1.4,2.8c0.9-0.5,0.7-1.9,0.7-3c1.3-0.3,2.2-1.1,2.5-2.6c-0.6,0.5-1.5,1-2.3,1.2
				c-0.1-1-0.1-1.6,1.6-2C47.6,41.9,48.6,40.4,48.1,38.6z M38.8,42.3c0.1-0.7,0.3-1.2,0.9-1.5c0.1-0.1,0.6-0.6,0.7-0.1
				C40.4,41.5,39.7,42.5,38.8,42.3z M42,42.1c-0.7-0.4-1-2.9,0.1-3.1c0.1,0,0.1,0,0.2,0C43.1,39.4,42.9,42.7,42,42.1z M47.1,40
				c-0.5,0.2-1.2,0.2-1.7,0.2c0.1-0.6,1.1-1.1,1.7-1C47.1,39.5,47.1,39.8,47.1,40z"/>
		</g>
	</g>
	<g>
		<g>
			<defs>
				<circle id="SVGID_37_" cx="32" cy="32" r="32"/>
			</defs>
			<clipPath id="SVGID_38_">
				<use xlink:href="#SVGID_37_"  style="overflow:visible;"/>
			</clipPath>
			<path class="st18" d="M31.5,24.9c0.5-0.6,1-3.4,0.3-3.5c-0.9,0.1-0.9,1.7-1.2,2.3c-0.5,1-2.1,1.8-2,3
				C29.1,26.8,31.1,25.4,31.5,24.9z"/>
		</g>
	</g>
	<g>
		<g>
			<defs>
				<circle id="SVGID_39_" cx="32" cy="32" r="32"/>
			</defs>
			<clipPath id="SVGID_40_">
				<use xlink:href="#SVGID_39_"  style="overflow:visible;"/>
			</clipPath>
		</g>
	</g>
	<g>
		<g>
			<defs>
				<circle id="SVGID_41_" cx="32" cy="32" r="32"/>
			</defs>
			<clipPath id="SVGID_42_">
				<use xlink:href="#SVGID_41_"  style="overflow:visible;"/>
			</clipPath>
			<path class="st20" d="M46.4,8.6c-1.5,0.5-3.1,1-4.2,2.2c-0.5,0.6-0.4,2.1-1.3,2.3c-0.2,0-0.3,0-0.5,0c-1.2,0-1.5,0.9-2.6,1.2
				c-1,0.4-2.1,0.2-3.3,0.5c-1.3,0.4-2.3,1.3-3.6,1.7c-1.9,0.5-3.4-0.1-4.8,1.4c-0.2,0.2-0.5,0.5-0.9,0.7c-1.4-1.6-4.5-2.1-6.3-1.6
				c-3.7,1.2-6.9,4.6-9.4,7.5c-1.2,1.5-2.7,3-3.8,4.6c-1,1.2-1.5,2.1-1.2,3.6c0.3,1.3,1.3,2.3,1.9,3.4c0.7,1.1,1,1.8,1.2,3.2
				c0.1,0.9,0.1,2.7,0.9,3.1c1.4,0.9,2.9-0.6,3.4-1.5c0.6-1.1,0.6-2.5,1.3-3.4c0.4-0.6,0-0.9,0.9-0.6c0.6,0.2,1.7,1.7,1.9,2.2
				c0.5,1.1,0.6,2.5,1.2,3.6c0.6,1.2,1.4,1.9,1.3,3.3c0.2,2.5,1.1,3.8,2,6c1.4,3.1,0.9,5.8,3.5,8.4c1.8,1.6,4.2,1.5,6.2,2.5
				c0.4,0.2,1,1.2,1.3,1.5h2.2c-0.2-0.1-1.1-1-1.3-1.2c-2.1-1.8-5.2-1.4-7.3-3.2c-2.5-2.2-1.9-5.8-3.7-8.3c-1.7-2.5-1.5-5.7-1.9-8.5
				c-0.4-2.6,0-5.4-0.2-8.1c-1.3-0.1-0.4,3.6-1.1,4.6c-1.4-0.7-0.9-6.2-1.3-7.7c-0.4-1.7-1-3.3,0.3-4.9c1.2-1.5,5.3-3.7,3.8-6
				c-2.1-3.4-8.5,2-9.2,4.6c-0.9,3.3,1.4,6.7,0.5,10.1C12.1,37.5,9.9,42.7,9,39c-0.3-1.4-0.5-2.6-1.1-3.8c-0.5-1.3-1.5-2.3-1.5-3.6
				c-0.1-3.1,3.2-6.9,5.4-8.7c1.5-1.2,3.2-2.7,4.8-3.5c1.1-0.5,3.2-1.3,4.5-1.1c4.2,0.7,2,3.2,0.6,5.4c-0.7,1.2-1.5,2.5-1.7,3.8
				c-0.2,1.2-1,2.8-0.6,3.8c0.2,0,0.3,0,0.5,0c0.2-1.1,0.5-2.6,1-3.5c1.2-2.2,4.5-4.3,4.9-6.9c0.1-0.3,0-0.6,0-1
				c0.3-0.5,0.6-1,1.3-1.1c1.4-0.3,2.9,0.4,4.3-0.1c2.6-1,3.1-3.2,5.9-1.3c1.7,1.2,1.4,1.6-0.6,1.6c-1.7,0-1.7,0.6-0.1,1.5
				c0.6,0.3,4.2,0.1,4.1,1.2c-0.1,0.5-1.3,0.4-1.6,0.6c-1,0.5-1,0.9-1.2,1.7c-0.3,1.5,2.9,7.4-0.6,6c-1.6-0.7-0.5-4.8-5.1-4.5
				c0.7,0.5,3.8,2.1,2.6,3.5c-0.7,0.7-1.6-0.2-2.3-0.3c-1.2-0.2-3.1,0.5-3.4,1.6c1.3,0.1,2.6-0.4,3.6,0.3c0.6,0.4,2.3,2.3,1.7,3.1
				c-1,1.2-3.4-1.5-4.3-1.8c-1.4-0.5-4.1-0.3-4.6,1.4c1.7-0.1,3.1-1.2,4.7-0.1c0.7,0.5,1.1,1.1,1.3,1.8c-0.1,0-0.3,0-0.4,0
				c-1.1-0.1-2.1-0.6-3.2-0.5c-1.7,0.1-1.9,0.7-2.7,2c-0.5,0.9-2.2,1.7-1.9,2.8c1.7,0,1.7,0.4,3,1.3c1,0.7,2.2,0.2,3.1,0.9
				c2,1.5-1,5.8-2.9,2.7c-0.3-0.4-1.2-4.2-2.5-3.2c-0.7,0.5,1.6,3.8,2.1,4.5c1.9,2.7,2.3,4.7,2.7,8c0.1,1.1,0.2,2.1,1,3l0.3-0.3
				c1-1.5-0.2-4.5-0.1-6.2c0.1-1.8,0.5-3.4,0.9-5c0.7-3.7,1.8-7.4,4.7-9.9c0.9-0.5,1.6-1,2.6-1.4c2.5-1.1,6.3-1.8,8.9-0.5
				c0.6,0.3,1,0.9,1.3,1.4c-1.1-0.1-2.1-0.3-3.2-0.4c-3.1-0.2-5.5,0.5-8.3,2c-2.9,1.6-2.2,4.2-3.6,7c-2,3.8-1,9.7-1.3,13.9
				c-0.2,2,0,3.5,1.1,5.3c0.2,0.4,1.1,1.6,1.5,2.1h2.5c-0.2-0.2-1.1-1.1-1.2-1.2c-0.9-1.1-1.6-2.8-2.1-3.9c-0.5-1.3-0.7-3-0.7-4.6
				c0-1.7,0.1-3.3,0.1-4.8c0-2-0.3-3.2,0.5-5c0.7-1.5,1.2-3.7,1.8-5.3c1.2-3,5.8-4.7,8.7-4.5c1.7,0.1,3.3,0.3,4.8,0.9
				c0.2,0.3,0.4,0.6,0.6,1c0.9,1,1.9,1.5,3,2.3c1,0.7,2,1.9,2.5,3c0.6,1.4,0.3,2.7,1,4.1c0.6,1.2,1.7,2.1,2.2,3.2
				c0.4,1,0.6,2.6,0.7,3.5c0,0.1,0,0.2,0,0.4c0.6-1.1,1.2-2.2,1.7-3.3c-0.1-0.7-0.1-1.4-0.2-1.8c-0.1-0.7-0.9-3,0.6-2.2
				c0.4,0.2,0.5,0.7,0.6,1.3c0.3-0.7,0.5-1.5,0.7-2.3c-0.4-1.4-1.1-2.6-1.2-4.1c-0.1-1.5-0.1-7.7,1-7.4c0,0.1,0,0.1,0,0
				c0.9,0.5,0.2,3.1,0.2,4.2c-0.1,1.8,0,3.6,0.5,5.5c0.2-1,0.4-1.9,0.6-2.9l-0.1-11c-0.1-0.2-0.1-0.3-0.2-0.5
				c-0.2-0.4-0.3-0.9-0.4-1.3c0.2,0.1,1.5,0.4,1.7,0.4v-2.1c0,0-1.2-0.4-1.2-0.5c-1.2-0.5-2.1-1.2-2.5-1.4c-2.1-1.7-3.2-3.8-3.8-6.3
				c-0.5-1.9-1.2-3.2-2.5-4.7c-1.6-1.9-3.1-2.5-5.8-2.2c-1.1,0.1-1.9,0.3-2.9,0.7c-1.5,0.7-1.6,1.7-1.2,2.7c0.4,1,2.9,2.1,1.7,2.2
				c-1.1-0.1-2.5-0.9-3.1-1.7c-0.5-1.1-0.9-2-0.1-3.1c2.9-4.3,9.1-2.8,12.4-0.1c2.6,2.1,2.7,5.3,4.2,8.2c0.7,1.5,1.7,2.1,2.9,3
				c-0.2-0.7,2.1,0.6,1.8-0.1c-1.3-3.6-5.5-9.2-7.7-12.2c-0.4-0.2-1-0.5-1.4-0.7C52.2,8.2,49.8,7.4,46.4,8.6z M27.6,36.6h-0.3
				c-0.4,0.6,0,1.2,0.4,1.6c-0.1,0.1-0.2,0.2-0.3,0.3C26.6,38.2,26.3,36.3,27.6,36.6z M29.2,40.2c-1.4,0.3-3-0.7-3.4-2
				c1.1,2,4.8,1.1,4.4-0.6c-1.2,0-0.7-1.2,0.2-0.9c0.5,0.2,0.1,0.6,0.1,0.9c0.5,0,0.7,0.2,1.1,0.3C30.5,38.4,30.5,39.9,29.2,40.2z
				 M48.2,31.6c0.1-0.1,0.1-0.2,0.2-0.4c1.7,0.3,3.1,1.6,5-0.9c-0.2-0.1-1,0.5-1.1-0.4c0.5-0.9,1.6-1.1,1.7,0
				c0.1,0.7-0.7,1.6-1.3,1.9C51,33.4,50,32.1,48.2,31.6z M50.8,30.7c-0.9,0.1-1.5-0.6-0.9-1.3c0.1,0,0.3,0,0.4,0
				C49.8,30.1,50.6,30.3,50.8,30.7z M55.4,38.3c0.5,0,1.1-0.1,1.5-0.3c0.2,0.6,0.5,2.2,0.5,2.9C56.6,41.2,55.4,39.1,55.4,38.3z
				 M48.1,26.3c1.7-1.2,2.8-0.6,3.3-3c-0.9,0.1-1.7,1.4-2.3,0.6c-0.6-0.6,0.4-1.9,0.9-2.3c-1,0-1.9,0-2.9,0c0.7-3.2,8.1,0.3,5.8,3.9
				h-0.1c1.5,0.1,4.4,1.5,5,2.9c0.2,0.4,0.5,2.6,0.2,3c-1.1,1.4-1.2-1.3-1.4-1.7c-0.1,0-0.3,0-0.4,0c-0.2,1-0.6,1.9-1.2,2.8
				c-0.7,1.4-1.2,1.8-2.8,1.7c0.2-0.9,1.8-1.7,2.2-2.8c0.3-1,1-2.3,0.7-3.4c-3.4-0.1-7-1.7-7.9,2.6C44.6,30.7,47.1,27,48.1,26.3z"/>
		</g>
	</g>
	<g>
		<g>
			<defs>
				<circle id="SVGID_43_" cx="32" cy="32" r="32"/>
			</defs>
			<clipPath id="SVGID_44_">
				<use xlink:href="#SVGID_43_"  style="overflow:visible;"/>
			</clipPath>
			<path class="st21" d="M53.3,60.7c0.5-0.5,1.1-1.2,1.5-1.7c-0.1,0-0.1,0-0.2-0.1c-3.4-1.2-5.8-2.6-7.6-5.8c-1-1.5-1.9-4.1-3.3-1.7
				c-0.6,1-0.9,2-1.4,3c-0.7,1.2-1.8,1.9-2.6,3.1c-0.5,1-1.1,2.1-1.6,3.2c-0.4,0.9-0.6,2.5-1.3,3.1c0,0-0.1,0-0.1,0.1h3.8
				c-0.7-0.9-1.3-1.8-1.2-2.7c0-0.3,0.1-0.5,0.2-0.9c0.1-0.2,0.3-0.4,0.5-0.6c0.4-0.4,1.1-0.7,1.6-0.9c1.6-0.5,1.7,0.7,3.1,0.6
				c1.7-0.1,1.5-2.3,2.8-2.8c1.5-0.6,2.7,0.7,3,2.2c0.3,2.2,0.1,3.5-0.5,4.6c0,0.1-0.1,0.2-0.1,0.2h0.3c0.7-0.6,1.4-1.2,2-1.8
				c0.1-0.2,0.2-0.5,0.4-0.7C52.8,60.9,53,60.7,53.3,60.7z"/>
		</g>
	</g>
	<g>
		<g>
			<defs>
				<circle id="SVGID_45_" cx="32" cy="32" r="32"/>
			</defs>
			<clipPath id="SVGID_46_">
				<use xlink:href="#SVGID_45_"  style="overflow:visible;"/>
			</clipPath>
			<path class="st22" d="M45.4,40.2c0.6,0.1,1.2,0,1.7-0.2c0.1-0.2,0.1-0.5,0-0.9C46.5,39.1,45.5,39.6,45.4,40.2z"/>
		</g>
	</g>
	<g>
		<g>
			<defs>
				<circle id="SVGID_47_" cx="32" cy="32" r="32"/>
			</defs>
			<clipPath id="SVGID_48_">
				<use xlink:href="#SVGID_47_"  style="overflow:visible;"/>
			</clipPath>
			<path class="st23" d="M54.1,30c-0.2-1.1-1.3-0.9-1.7,0c0.1,1,0.9,0.3,1.1,0.4c-1.9,2.5-3.3,1.2-5,0.9c0,0.2-0.1,0.3-0.2,0.4
				c1.8,0.4,2.8,1.8,4.6,0.3C53.3,31.5,54.3,30.7,54.1,30z"/>
		</g>
	</g>
	<g>
		<g>
			<defs>
				<circle id="SVGID_49_" cx="32" cy="32" r="32"/>
			</defs>
			<clipPath id="SVGID_50_">
				<use xlink:href="#SVGID_49_"  style="overflow:visible;"/>
			</clipPath>
			<path class="st24" d="M42.2,39c-0.1,0-0.1,0-0.2,0c-1.1,0.2-0.9,2.7-0.1,3.1C42.9,42.7,43.1,39.4,42.2,39z"/>
		</g>
	</g>
	<g>
		<g>
			<defs>
				<circle id="SVGID_51_" cx="32" cy="32" r="32"/>
			</defs>
			<clipPath id="SVGID_52_">
				<use xlink:href="#SVGID_51_"  style="overflow:visible;"/>
			</clipPath>
			<path class="st25" d="M39.7,40.9c-0.5,0.3-0.7,0.7-0.9,1.5c1,0.1,1.6-0.7,1.6-1.6C40.3,40.2,39.8,40.7,39.7,40.9z"/>
		</g>
	</g>
	<g>
		<g>
			<defs>
				<circle id="SVGID_53_" cx="32" cy="32" r="32"/>
			</defs>
			<clipPath id="SVGID_54_">
				<use xlink:href="#SVGID_53_"  style="overflow:visible;"/>
			</clipPath>
			<path class="st26" d="M49.8,29.4c-0.6,0.6,0.1,1.4,0.9,1.3c-0.2-0.4-0.9-0.6-0.4-1.3C50.1,29.3,49.9,29.4,49.8,29.4z"/>
		</g>
	</g>
	<g>
		<g>
			<defs>
				<circle id="SVGID_55_" cx="32" cy="32" r="32"/>
			</defs>
			<clipPath id="SVGID_56_">
				<use xlink:href="#SVGID_55_"  style="overflow:visible;"/>
			</clipPath>
			<path class="st27" d="M30.4,36.7c-1.1-0.2-1.4,0.9-0.2,0.9c0.4,1.7-3.3,2.7-4.4,0.6c0.4,1.3,2,2.3,3.4,2c1.3-0.3,1.3-1.9,2.3-2.3
				c-0.3-0.1-0.5-0.3-1.1-0.3C30.5,37.3,30.9,36.9,30.4,36.7z"/>
		</g>
	</g>
	<g>
		<g>
			<defs>
				<circle id="SVGID_57_" cx="32" cy="32" r="32"/>
			</defs>
			<clipPath id="SVGID_58_">
				<use xlink:href="#SVGID_57_"  style="overflow:visible;"/>
			</clipPath>
			<path class="st28" d="M47.1,30.6c1-4.3,4.5-2.6,7.9-2.6c0.2,1-0.3,2.5-0.7,3.4c-0.4,1.2-2.1,1.9-2.2,2.8c1.6,0,2-0.3,2.8-1.7
				c0.4-0.9,0.9-1.9,1.2-2.8c0.1,0,0.3,0,0.4,0c0.2,0.5,0.3,3.1,1.4,1.7c0.3-0.4,0-2.6-0.2-3c-0.6-1.4-3.5-2.8-5-2.9h0.1
				c2.3-3.6-5-7.1-5.8-3.9c1,0,1.9,0,2.9,0c-0.4,0.4-1.5,1.7-0.9,2.3c0.7,0.7,1.6-0.5,2.3-0.6c-0.5,2.3-1.6,1.8-3.3,3
				C47.1,27,44.6,30.7,47.1,30.6z"/>
		</g>
	</g>
	<g>
		<g>
			<defs>
				<circle id="SVGID_59_" cx="32" cy="32" r="32"/>
			</defs>
			<clipPath id="SVGID_60_">
				<use xlink:href="#SVGID_59_"  style="overflow:visible;"/>
			</clipPath>
			<path class="st29" d="M55.4,38.3c0,0.9,1.2,2.8,2,2.6c0-0.6-0.3-2.2-0.5-2.9C56.4,38.2,55.9,38.3,55.4,38.3z"/>
		</g>
	</g>
	<g>
		<g>
			<defs>
				<circle id="SVGID_61_" cx="32" cy="32" r="32"/>
			</defs>
			<clipPath id="SVGID_62_">
				<use xlink:href="#SVGID_61_"  style="overflow:visible;"/>
			</clipPath>
			<path class="st30" d="M27.5,38.5c0.1-0.1,0.2-0.2,0.3-0.3c-0.4-0.4-1-1.1-0.4-1.6h0.3C26.3,36.3,26.6,38.2,27.5,38.5z"/>
		</g>
	</g>
	<g>
		<g>
			<defs>
				<circle id="SVGID_63_" cx="32" cy="32" r="32"/>
			</defs>
			<clipPath id="SVGID_64_">
				<use xlink:href="#SVGID_63_"  style="overflow:visible;"/>
			</clipPath>
			<path class="st31" d="M57.9,49.5c-0.5-1.1-1.6-2.1-2.2-3.2c-0.7-1.3-0.4-2.7-1-4.1c-0.5-1.1-1.5-2.2-2.5-3c-1-0.9-2.1-1.4-3-2.3
				c-0.3-0.3-0.4-0.6-0.6-1c-1.6-0.4-3.2-0.7-4.8-0.9c-3.1-0.1-7.6,1.6-8.7,4.5c-0.6,1.6-1.2,3.7-1.8,5.3c-0.9,1.9-0.5,3-0.5,5
				c0,1.4-0.1,3.1-0.1,4.8s0.2,3.3,0.7,4.6c0.5,1.3,1.3,3,2.1,3.9c0.1,0.2,0.3,0.3,0.6,0.5H37c0,0,0.1,0,0.1-0.1
				c0.7-0.6,1-2.2,1.3-3.1c0.4-1,1-2.2,1.6-3.2c0.7-1.2,1.8-1.9,2.6-3.1c0.6-1,0.9-2,1.4-3c1.5-2.3,2.5,0.2,3.3,1.7
				c1.9,3.1,4.2,4.6,7.6,5.8c0.1,0,0.1,0,0.2,0.1c0.4-0.4,0.7-1,1.2-1.4c-1.6-1-3.4-2.7-3.9-3.2c-1.4-1.4-3.3-3.5-2.9-5.5
				c2.6,2.6,4.5,3.8,7,4.8c1.2,0.4,1.5,0.1,1.7,1.1c0.2-0.4,0.5-0.7,0.7-1.2c0-0.1,0-0.2,0-0.4C58.6,52.1,58.3,50.5,57.9,49.5z
				 M34.8,51.6c1.1-1,0.2-3.5,2.3-3.8c0,1.5-1,3.4-2.5,3.9L34.8,51.6z M37.9,50.6c0,1.6-0.3,1.5-1.2,2.8c-0.5,0.9-0.9,2.6-1.5,3.2
				C35,55.1,36.6,51.2,37.9,50.6z M36.8,58.3c-0.5,1.3-0.7,2.2-0.9,3.6c-0.6,0-1-0.5-1-1.3c-0.1-2.1,2-6,3.4-5.5
				c0.1,0,0.1,0,0.2,0.1h-0.3c0.1,0.1,0.2-0.1,0.3,0.1C38.2,56.4,37.3,57.3,36.8,58.3z M46.1,42.2c-1.7,0.4-1.7,1.1-1.6,2
				c0.9-0.3,1.7-0.6,2.3-1.2c-0.2,1.6-1.2,2.3-2.5,2.6c0,1.1,0.1,2.5-0.7,3c-0.5,0.4-1-1.1-1.4-2.8c-1.1,0-2-0.2-2.9-0.3
				c-0.9-0.4,0.6-0.4,2.7-0.6c-0.1-0.3-0.1-0.5-0.2-0.9c-0.6-1-1.8,0.3-3.2,0.3c-1.4,0.1-1.6-1.1-1.9-2.5c-0.3-1.6-0.1-2.5,1.1-3.3
				c1.3-1,2.5-1.9,3.9-2.2c0.9-0.1,2.1-0.1,3.1,0c1.4,0.2,3,1,3.4,2.5C48.6,40.4,47.6,41.9,46.1,42.2z M49.7,40.6
				c0-0.1,0-0.3-0.1-0.5c-0.1-0.6-1.1-2.6-1.5-2.8h0.1c0.6,0.3,1.3,0.9,2,1.4c1.2,1,2.2,2.2,3,3.5c0.5,1,1,2,1,3.1
				c-0.9,0.5-1.7-0.5-2.3-1.5c-0.2-0.3-0.3-0.6-0.5-0.9c-0.5-0.9-2.1-1-3.2-0.9C49,41.7,49.7,41.7,49.7,40.6z M56.7,51.4
				c-0.4,1.6-3.3-0.9-4.1-1.9c-1.3-1.7-1.6-4.2-4.3-4.7c1.9-1.3,3.6,1.5,5.3,2c1,0.3,2,0.3,2.6,1.3C56.4,48.6,56.9,51,56.7,51.4z"/>
		</g>
	</g>
	<g>
		<g>
			<defs>
				<circle id="SVGID_65_" cx="32" cy="32" r="32"/>
			</defs>
			<clipPath id="SVGID_66_">
				<use xlink:href="#SVGID_65_"  style="overflow:visible;"/>
			</clipPath>
			<path class="st32" d="M31.5,57.2c0.4-4.2-0.6-10,1.3-13.9c1.5-2.9,0.7-5.4,3.6-7c2.8-1.6,5.1-2.3,8.3-2c1.1,0.1,2.1,0.3,3.2,0.4
				c-0.3-0.5-0.6-1.1-1.3-1.4c-2.5-1.3-6.3-0.5-8.9,0.5c-1,0.4-1.7,0.9-2.6,1.4c-2.9,2.6-3.9,6.2-4.7,9.9c-0.3,1.7-0.6,3.3-0.9,5
				c-0.1,1.7,1,4.7,0.1,6.2l-0.3,0.3c-0.6-0.9-0.9-1.9-1-3c-0.2-3.3-0.7-5.3-2.7-8c-0.4-0.6-2.8-3.8-2.1-4.5c1.3-1,2.1,2.8,2.5,3.2
				c2,3.1,4.9-1.2,2.9-2.7c-0.9-0.6-2.1-0.1-3.1-0.9c-1.2-0.9-1.3-1.3-3-1.3c-0.3-1.1,1.4-1.8,1.9-2.8c0.7-1.3,1.1-1.9,2.7-2
				c1.2-0.1,2.1,0.5,3.2,0.5c0.1,0,0.3,0,0.4,0c-0.2-0.6-0.6-1.3-1.3-1.8c-1.7-1.2-3,0-4.7,0.1c0.5-1.7,3.2-1.9,4.6-1.4
				c0.9,0.3,3.4,3,4.3,1.8c0.6-0.9-1.1-2.8-1.7-3.1c-1.2-0.7-2.5-0.2-3.6-0.3c0.2-1.2,2.2-1.8,3.4-1.6c0.6,0.1,1.6,1.2,2.3,0.3
				c1.3-1.4-1.8-3-2.6-3.5c4.6-0.3,3.5,3.6,5.1,4.5c3.6,1.4,0.3-4.5,0.6-6c0.2-0.9,0.3-1.3,1.2-1.7c0.3-0.2,1.5-0.1,1.6-0.6
				c0.1-1-3.4-0.9-4.1-1.2c-1.6-0.9-1.6-1.5,0.1-1.5c2,0,2.3-0.4,0.6-1.6c-2.8-1.9-3.2,0.4-5.9,1.3c-1.4,0.5-2.9-0.3-4.3,0.1
				c-0.6,0.2-1.1,0.6-1.3,1.1c0,0.3,0,0.6,0,1c-0.4,2.7-3.8,4.7-4.9,6.9c-0.4,1-0.7,2.5-1,3.5c-0.2,0-0.3,0-0.5,0
				c-0.3-1.1,0.4-2.7,0.6-3.8c0.2-1.4,1.1-2.8,1.7-3.8c1.4-2.2,3.5-4.7-0.6-5.4c-1.3-0.2-3.4,0.5-4.5,1.1c-1.6,0.9-3.3,2.3-4.8,3.5
				c-2.2,1.8-5.5,5.5-5.4,8.7c0,1.3,1,2.3,1.5,3.6c0.5,1.3,0.7,2.6,1.1,3.8c1,3.6,3.1-1.6,3.5-3.1c0.9-3.4-1.5-6.8-0.5-10.1
				c0.6-2.6,7-8,9.2-4.6c1.4,2.2-2.7,4.5-3.8,6c-1.3,1.6-0.9,3.1-0.3,4.9c0.4,1.5-0.1,6.9,1.3,7.7c0.7-1-0.2-4.7,1.1-4.6
				c0.2,2.7-0.2,5.5,0.2,8.1c0.5,2.8,0.2,6.1,1.9,8.5c1.8,2.6,1.3,6.1,3.7,8.3c2,1.8,5,1.4,7.3,3.2c0.2,0.2,0.4,0.3,0.6,0.5h0.3
				c-0.3-0.5-0.6-1.1-1-1.4C31.4,60.6,31.3,59.2,31.5,57.2z M30.6,23.7c0.3-0.6,0.3-2.2,1.2-2.3c-0.1,0,0.1,0,0,0
				c0.6,0.1,0.2,3-0.3,3.5c-0.4,0.4-2.5,1.8-2.9,1.8C28.5,25.5,30.1,24.6,30.6,23.7z M25.7,25.6c0.6-0.7,0.9-1.1,1.1-2
				c0.1-0.5,0.1-2.2,1.1-1.6c0.7,0.4-0.3,3.2-0.6,3.7c-0.5,1.3-2,2-2.7,3.1C23,28.4,25.2,26.2,25.7,25.6z M26.5,54.4
				c-0.1,0.9-0.2,4.4-1,4.6c-0.3-1.5-0.4-2.9-0.4-4.5c0.1-1.8-0.7-2.7-1.8-4.1c-0.9-1.2-1.9-2.6-2.2-4.2c-0.4-1.7,0.4-3.6,0.1-5.2
				c1.4,0.3,0.6,3,0.7,4.2c0.2,1.7,1.1,2.9,2,4.2C25.3,51,26.8,52.3,26.5,54.4z"/>
		</g>
	</g>
	<g>
		<g>
			<defs>
				<circle id="SVGID_67_" cx="32" cy="32" r="32"/>
			</defs>
			<clipPath id="SVGID_68_">
				<use xlink:href="#SVGID_67_"  style="overflow:visible;"/>
			</clipPath>
			<path class="st33" d="M50,63.5c0.6-1.1,1-2.3,0.5-4.6c-0.4-1.4-1.5-2.8-3-2.2c-1.2,0.4-1.1,2.7-2.8,2.8c-1.4,0.1-1.5-1.2-3.1-0.6
				c-0.5,0.2-1.1,0.5-1.6,0.9c-0.2,0.2-0.4,0.4-0.5,0.6c-0.1,0.3-0.1,0.5-0.1,0.9c0,0.9,0.4,1.8,1.2,2.7l9.3-0.1
				C49.9,63.6,50,63.5,50,63.5z"/>
		</g>
	</g>
	<g>
		<g>
			<defs>
				<circle id="SVGID_69_" cx="32" cy="32" r="32"/>
			</defs>
			<clipPath id="SVGID_70_">
				<use xlink:href="#SVGID_69_"  style="overflow:visible;"/>
			</clipPath>
			<path class="st34" d="M62.3,37.9c0-1.1,0.6-3.5-0.2-4.2c0,0,0,0.1,0,0c-1.1-0.3-1.1,5.9-1,7.4c0.1,1.4,0.7,2.7,1.2,4.1
				c0.2-0.5,0.3-1.2,0.5-1.7C62.3,41.5,62.2,39.7,62.3,37.9z"/>
		</g>
	</g>
	<g>
		<g>
			<defs>
				<circle id="SVGID_71_" cx="32" cy="32" r="32"/>
			</defs>
			<clipPath id="SVGID_72_">
				<use xlink:href="#SVGID_71_"  style="overflow:visible;"/>
			</clipPath>
			<path class="st35" d="M60.9,46.1c-1.5-0.7-0.9,1.4-0.6,2.2c0.1,0.3,0.1,1,0.2,1.8c0.4-0.9,0.7-1.8,1.1-2.7
				C61.4,46.9,61.3,46.3,60.9,46.1z"/>
		</g>
	</g>
	<g>
		<g>
			<defs>
				<circle id="SVGID_73_" cx="32" cy="32" r="32"/>
			</defs>
			<clipPath id="SVGID_74_">
				<use xlink:href="#SVGID_73_"  style="overflow:visible;"/>
			</clipPath>
			<path class="st36" d="M59.7,19.8c-1.5-2.8-1.5-6.1-4.2-8.2c-3.2-2.7-9.4-4.2-12.3,0.1c-0.7,1.2-0.4,2,0.1,3.1
				c0.5,0.9,2,1.6,3.1,1.7c1.2-0.1-1.3-1.3-1.7-2.2c-0.5-1-0.3-2,1.2-2.7c1-0.4,1.8-0.7,2.9-0.7c2.7-0.2,4.2,0.3,5.8,2.2
				c1.3,1.5,1.9,2.8,2.5,4.7c0.6,2.6,1.8,4.6,3.8,6.3c0.2,0.2,1.3,0.9,2.5,1.4c-0.2-1-0.4-1.8-0.6-2.8C61.4,22,60.5,21.2,59.7,19.8z
				"/>
		</g>
	</g>
</g>
</svg>
