<svg xmlns="http://www.w3.org/2000/svg" xmlns:xlink="http://www.w3.org/1999/xlink" width="120" height="60"><defs><linearGradient id="A" x1="7.25" y1="156.6" x2="236.49" y2="83.09" gradientUnits="userSpaceOnUse"><stop offset="0" stop-color="#ff0264"/><stop offset=".41" stop-color="#fe624e"/><stop offset=".82" stop-color="#fdbc39"/><stop offset="1" stop-color="#fddf31"/></linearGradient><linearGradient id="B" x1="39.82" y1="133.55" x2="240.37" y2="133.55" gradientUnits="userSpaceOnUse"><stop offset="0" stop-color="#140a3b"/><stop offset=".68" stop-color="#064e91"/><stop offset="1" stop-color="#006ab4"/></linearGradient><linearGradient id="C" x1="94.52" y1="168.47" x2="348.36" y2="168.47" gradientUnits="userSpaceOnUse"><stop offset="0" stop-color="#349fd3"/><stop offset=".35" stop-color="#218abe"/><stop offset="1" stop-color="#00679b"/></linearGradient><linearGradient id="D" x1="126.47" y1="152.54" x2="128.68" y2="152.54" gradientUnits="userSpaceOnUse"><stop offset="0" stop-color="#a34cb4"/><stop offset=".09" stop-color="#954db2"/><stop offset=".72" stop-color="#3c52a1"/><stop offset="1" stop-color="#19549b"/></linearGradient><linearGradient id="E" x1="0" y1="170.26" x2="126.47" y2="170.26" xlink:href="#D"/><symbol id="F" viewBox="0 0 240.67 240.67"><circle cx="120.34" cy="120.34" r="120.34" fill="url(#A)"/><path d="M238.9 99.6L121.27 54.06c-2.36-.78-15-6.56-26.9-2-27.5 10.7-26.56 68-35.8 76.17l-18.76 16.55 79.05 70.35S193.4 238 240.37 111.9a118.55 118.55 0 0 0-1.48-12.31z" fill="url(#B)"/><path d="M238.9 99.7c-20.8-8.92-29.86 2-32.08 5.17l-.48.73c-4.7 7.46-8.46 18.4-10.8 32.64l-.83 5.1a112.81 112.81 0 0 1-6.55 24.34c-3.82 9.16-8.6 15.24-13.93 18.05a14.63 14.63 0 0 1-7.38 1.75c-7.3-.23-15.15-5.9-22.6-17.68-4.86-7.73-9.3-13.4-14.28-16.08-18.36-9.73-36.1 12.72-36.1 46.5 0 12.42 2.54 26.26 5.7 38.64A120.41 120.41 0 0 0 238.9 99.7z" fill="url(#C)"/><path d="M126.47 152.08l2.2.9a16.37 16.37 0 0 0-2.21-.91z" fill="url(#D)"/><path d="M0 120.34a120.37 120.37 0 0 0 102 118.94c-3.3-11.64-6-24.9-6-36.74 0-29.26 13.82-56 30.46-50.46l-125-50.83A121.23 121.23 0 0 0 0 120.34z" fill="url(#E)"/></symbol></defs><g transform="matrix(.935011 0 0 .935011 .069559 3.055858)"><path d="M50.53 37.126v-8.93h1.95v.53c-.001.23-.02.46-.055.687a3.01 3.01 0 0 1 2.553-1.42c1.27 0 2.12.586 2.574 1.57a3.22 3.22 0 0 1 2.84-1.57c1.74 0 2.977 1.145 2.977 3.35v5.8h-1.95v-5.7c0-1.08-.643-1.798-1.647-1.798s-1.855.813-1.855 2.214v5.267h-1.95V31.4c0-1.06-.643-1.722-1.603-1.722s-1.832.758-1.873 2.082v5.375zm23.048 0c-1.134 0-1.722-.643-1.985-1.57-.568.872-1.667 1.76-3.435 1.76-2.027 0-3.048-1.287-3.048-2.63 0-1.603 1.305-2.952 4.012-2.952a11.08 11.08 0 0 1 2.272.284v-.458c0-1.118-.795-1.873-2.027-1.873a2.48 2.48 0 0 0-2.024 1.058L65.92 29.68s1.042-1.76 3.522-1.76c2.402 0 3.88 1.456 3.88 3.595V34.8a.5.5 0 0 0 .547.529h.266v1.816zm-2.214-3.78a9.66 9.66 0 0 0-1.928-.229c-1.4 0-2.3.607-2.3 1.46 0 .623.474 1.145 1.46 1.145 1.4.014 2.577-1 2.78-2.375zm12.756 3.78h-1.967v-5.1c0-1.6-.916-2.402-2.06-2.402-1.248 0-2.233.964-2.272 2.327v5.166h-1.95v-8.93h1.958v.605a5.5 5.5 0 0 1-.055.737 3.5 3.5 0 0 1 2.895-1.55c2.043 0 3.463 1.42 3.463 3.973zm3.216-12.868a1.41 1.41 0 1 1-1.401 1.399 1.43 1.43 0 0 1 1.4-1.4zm-1.02 12.868v-8.93h2.006v8.93zm7.2-7.19v7.2H91.5v-7.2h-1.374v-1.74H91.5v-2.178c0-2.043 1.342-3.33 3.103-3.33a2.8 2.8 0 0 1 2.024.737l-.916 1.495c-.24-.284-.595-.444-.966-.435-.756 0-1.248.55-1.248 1.603V28.2h2.043v1.74zm2.912 2.707a4.601 4.601 0 1 1 4.599 4.674 4.58 4.58 0 0 1-4.598-4.674zm7.248 0c0-1.685-1.058-2.915-2.65-2.915s-2.668 1.25-2.668 2.915c0 1.704 1.118 2.934 2.668 2.934 1.592 0 2.65-1.23 2.65-2.934zm3.54 4.484V22.928h1.995v14.198zm10.35 0l.037-1.305a3.43 3.43 0 0 1-2.837 1.495c-2.386 0-3.957-2.024-3.957-4.695s1.603-4.617 3.975-4.617a3.41 3.41 0 0 1 2.764 1.305 1.9 1.9 0 0 1-.039-.341v-6.036h1.95V37.13zm-.04-4.466c0-1.74-.9-2.915-2.347-2.915-1.418 0-2.42 1.193-2.42 2.897s1.02 2.952 2.42 2.952c1.46 0 2.347-1.27 2.347-2.936z"/><use xlink:href="#F" transform="matrix(.141444 0 0 .141444 8.742889 12.978678)" height="240.67" width="240.67"/></g></svg>