<svg xmlns="http://www.w3.org/2000/svg" xmlns:xlink="http://www.w3.org/1999/xlink" width="64" height="64"><defs><linearGradient id="A" x1="7.25" y1="156.6" x2="236.49" y2="83.09" gradientUnits="userSpaceOnUse"><stop offset="0" stop-color="#ff0264"/><stop offset=".41" stop-color="#fe624e"/><stop offset=".82" stop-color="#fdbc39"/><stop offset="1" stop-color="#fddf31"/></linearGradient><linearGradient id="B" x1="39.82" y1="133.55" x2="240.37" y2="133.55" gradientUnits="userSpaceOnUse"><stop offset="0" stop-color="#140a3b"/><stop offset=".68" stop-color="#064e91"/><stop offset="1" stop-color="#006ab4"/></linearGradient><linearGradient id="C" x1="94.52" y1="168.47" x2="348.36" y2="168.47" gradientUnits="userSpaceOnUse"><stop offset="0" stop-color="#349fd3"/><stop offset=".35" stop-color="#218abe"/><stop offset="1" stop-color="#00679b"/></linearGradient><linearGradient id="D" x1="126.47" y1="152.54" x2="128.68" y2="152.54" gradientUnits="userSpaceOnUse"><stop offset="0" stop-color="#a34cb4"/><stop offset=".09" stop-color="#954db2"/><stop offset=".72" stop-color="#3c52a1"/><stop offset="1" stop-color="#19549b"/></linearGradient><linearGradient id="E" x1="0" y1="170.26" x2="126.47" y2="170.26" xlink:href="#D"/><symbol id="F" viewBox="0 0 240.67 240.67"><circle cx="120.34" cy="120.34" r="120.34" fill="url(#A)"/><path d="M238.9 99.6L121.27 54.06c-2.36-.78-15-6.56-26.9-2-27.5 10.7-26.56 68-35.8 76.17l-18.76 16.55 79.05 70.35S193.4 238 240.37 111.9a118.55 118.55 0 0 0-1.48-12.31z" fill="url(#B)"/><path d="M238.9 99.7c-20.8-8.92-29.86 2-32.08 5.17l-.48.73c-4.7 7.46-8.46 18.4-10.8 32.64l-.83 5.1a112.81 112.81 0 0 1-6.55 24.34c-3.82 9.16-8.6 15.24-13.93 18.05a14.63 14.63 0 0 1-7.38 1.75c-7.3-.23-15.15-5.9-22.6-17.68-4.86-7.73-9.3-13.4-14.28-16.08-18.36-9.73-36.1 12.72-36.1 46.5 0 12.42 2.54 26.26 5.7 38.64A120.41 120.41 0 0 0 238.9 99.7z" fill="url(#C)"/><path d="M126.47 152.08l2.2.9a16.37 16.37 0 0 0-2.21-.91z" fill="url(#D)"/><path d="M0 120.34a120.37 120.37 0 0 0 102 118.94c-3.3-11.64-6-24.9-6-36.74 0-29.26 13.82-56 30.46-50.46l-125-50.83A121.23 121.23 0 0 0 0 120.34z" fill="url(#E)"/></symbol></defs><use xlink:href="#F" transform="matrix(.265914 0 0 .265914 .000122 .000065)" height="240.67" width="240.67"/></svg>