<svg xmlns="http://www.w3.org/2000/svg" width="64" height="64"><g transform="matrix(1.99862 0 0 1.99862 -114.93717 -19.990594)"><path d="M73.526 31.754c-2.737-.013-4.913 2.137-4.953 4.848-.026 2.672 2.203 4.926 4.887 4.953 2.685.013 4.94-2.203 4.953-4.874.026-2.698-2.177-4.913-4.887-4.926zm-10.974-10.66c-2.776-.04-4.98 2.046-5.018 4.757-.04 2.724 2.098 4.966 4.796 5.03 2.724.065 5.044-2.203 5.044-4.913a4.92 4.92 0 0 0-4.822-4.874zm-.156 10.673c-2.737.013-4.926 2.23-4.86 4.926.052 2.737 2.255 4.9 4.953 4.874 2.685-.026 4.926-2.307 4.887-4.953-.052-2.724-2.242-4.86-4.98-4.848zm22.247-.887c2.7-.026 4.86-2.23 4.835-4.966-.026-2.724-2.2-4.835-4.953-4.822-2.737.013-4.848 2.177-4.835 4.926.026 2.7 2.242 4.887 4.953 4.86zM73.448 20.26c2.763.026 4.926-2.098 4.94-4.822.013-2.75-2.098-4.94-4.822-4.98-2.685-.04-4.94 2.15-4.966 4.848-.013 2.737 2.124 4.94 4.848 4.953zm11.142.012c2.737 0 4.887-2.163 4.887-4.9 0-2.724-2.2-4.913-4.9-4.913s-4.887 2.2-4.887 4.913c.013 2.737 2.163 4.9 4.9 4.9zM62.383 10.46a4.9 4.9 0 0 0-4.874 4.874c-.013 2.763 2.137 4.9 4.913 4.9 2.763 0 4.966-2.163 4.966-4.887 0-2.7-2.255-4.9-5.005-4.887zm.052 8.38c-1.98 0-3.52-1.538-3.506-3.506.013-1.916 1.55-3.467 3.48-3.48 1.955-.013 3.57 1.55 3.57 3.493 0 1.955-1.564 3.493-3.545 3.493zm22.1 12.94a4.9 4.9 0 0 0-4.874 4.874c-.013 2.763 2.137 4.9 4.913 4.9 2.763 0 4.966-2.163 4.966-4.887-.013-2.7-2.255-4.9-5.005-4.887zm.052 8.38c-1.98 0-3.52-1.538-3.506-3.506.013-1.916 1.55-3.467 3.48-3.48 1.955-.013 3.57 1.55 3.57 3.493s-1.577 3.493-3.545 3.493z" fill="#2ac5f4"/><path d="M78.205 24.52a4.95 4.95 0 0 0-1.981-2.607c-.13-.09-.274-.17-.417-.248-.065-.04-.143-.078-.222-.104l-.443-.182a5.64 5.64 0 0 0-.951-.235c-.248-.04-.495-.052-.756-.052-.417 0-.834.052-1.225.156-.313.078-.613.195-.9.326-.782.378-1.447.95-1.93 1.668l-.13.195c-.443.73-.704 1.603-.717 2.528-.013 2.763 2.137 4.9 4.913 4.9 2.763 0 4.966-2.163 4.966-4.887.026-.508-.052-.99-.21-1.46zm-4.718 4.887c-1.942 0-3.454-1.5-3.44-3.428.013-1.9 1.525-3.402 3.415-3.415 1.93-.013 3.493 1.525 3.506 3.428 0 1.903-1.55 3.415-3.48 3.415z" fill="#a3a5a8"/></g></svg>