<?xml version="1.0" encoding="UTF-8" standalone="no"?>
<svg
   xmlns:dc="http://purl.org/dc/elements/1.1/"
   xmlns:cc="http://creativecommons.org/ns#"
   xmlns:rdf="http://www.w3.org/1999/02/22-rdf-syntax-ns#"
   xmlns:svg="http://www.w3.org/2000/svg"
   xmlns="http://www.w3.org/2000/svg"
   xmlns:sodipodi="http://sodipodi.sourceforge.net/DTD/sodipodi-0.dtd"
   xmlns:inkscape="http://www.inkscape.org/namespaces/inkscape"
   width="120"
   height="60"
   version="1.1"
   xml:space="preserve"
   style="clip-rule:evenodd;fill-rule:evenodd;stroke-linejoin:round;stroke-miterlimit:1.41420996"
   id="svg59"
   sodipodi:docname="nlnetlabsnl_unbound-ar21.svg"
   inkscape:version="0.92.4 (5da689c313, 2019-01-14)"><metadata
     id="metadata63"><rdf:RDF><cc:Work
         rdf:about=""><dc:format>image/svg+xml</dc:format><dc:type
           rdf:resource="http://purl.org/dc/dcmitype/StillImage" /><dc:title></dc:title></cc:Work></rdf:RDF></metadata><sodipodi:namedview
     pagecolor="#ffffff"
     bordercolor="#666666"
     borderopacity="1"
     objecttolerance="10"
     gridtolerance="10"
     guidetolerance="10"
     inkscape:pageopacity="0"
     inkscape:pageshadow="2"
     inkscape:window-width="1455"
     inkscape:window-height="731"
     id="namedview61"
     showgrid="false"
     inkscape:zoom="5.5333333"
     inkscape:cx="60"
     inkscape:cy="30"
     inkscape:window-x="2033"
     inkscape:window-y="85"
     inkscape:window-maximized="0"
     inkscape:current-layer="svg59" /><g
     id="g10"
     transform="matrix(0.17025012,0,0,0.17025012,3.9758934,16.717122)"><path
       inkscape:connector-curvature="0"
       id="path2"
       style="fill:#2d2e83;fill-rule:nonzero"
       d="m 87.5,6.548 v 86.4 l -29.5,17 c -0.597,0.299 -1.303,0.299 -1.9,0 l -29.5,-17 v -86.4 l -20.9,12.1 c -3.528,2.042 -5.706,5.824 -5.7,9.9 v 86.4 c 0.021,4.07 2.191,7.839 5.7,9.9 l 45.7,26.4 c 3.533,1.998 7.867,1.998 11.4,0 l 45.7,-26.4 c 3.528,-2.042 5.706,-5.824 5.7,-9.9 v -86.4 c -0.021,-4.07 -2.191,-7.839 -5.7,-9.9 z" /><path
       inkscape:connector-curvature="0"
       id="path4"
       style="fill:url(#_Linear1);fill-rule:nonzero"
       d="m 87.5,6.548 v 86.4 l -29.5,17 c -0.597,0.299 -1.303,0.299 -1.9,0 l -29.5,-17 v -86.4 l -20.9,12.1 c -3.528,2.042 -5.706,5.824 -5.7,9.9 v 86.4 c 0.021,4.07 2.191,7.839 5.7,9.9 l 45.7,26.4 c 3.533,1.998 7.867,1.998 11.4,0 l 45.7,-26.4 c 3.528,-2.042 5.706,-5.824 5.7,-9.9 v -86.4 c -0.021,-4.07 -2.191,-7.839 -5.7,-9.9 z" /><path
       inkscape:connector-curvature="0"
       id="path6"
       style="fill:#1fc2d7;fill-rule:nonzero"
       d="m 114.2,28.548 c -0.021,-4.07 -2.191,-7.839 -5.7,-9.9 L 78.1,1.048 c -2.337,-1.398 -5.263,-1.398 -7.6,0 -2.354,1.359 -3.807,3.882 -3.8,6.6 v 66.6 c 0.021,4.07 2.191,7.839 5.7,9.9 l 36.1,20.9 c 3.528,2.042 5.706,5.824 5.7,9.9 z" /><path
       inkscape:connector-curvature="0"
       id="path8"
       style="fill:#1fc2d7;fill-rule:nonzero"
       d="m 0,28.548 c 0.021,-4.07 2.191,-7.839 5.7,-9.9 l 30.5,-17.6 c 2.337,-1.398 5.263,-1.398 7.6,0 2.354,1.359 3.807,3.882 3.8,6.6 v 66.6 c -0.021,4.07 -2.191,7.839 -5.7,9.9 l -36.1,20.9 c -3.528,2.042 -5.706,5.824 -5.7,9.9 z" /></g><g
     id="g26"
     transform="matrix(0.17675874,0,0,0.17675874,-1.4588024,17.324499)"><path
       inkscape:connector-curvature="0"
       id="path12"
       style="fill:#0d0d27;fill-rule:nonzero"
       d="m 221.9,44.348 v 64 h -11.5 l -0.6,-5 c -7.6,3.9 -15.6,6.5 -22.6,6.5 -10.8,0 -18.7,-6.1 -18.6,-21.3 v -44.2 h 12.8 v 42.4 c 0,9.1 3.4,11.8 9.3,11.8 4.8,0 11.5,-2 18.4,-5.5 v -48.7 z" /><path
       inkscape:connector-curvature="0"
       id="path14"
       style="fill:#0d0d27;fill-rule:nonzero"
       d="m 296.9,64.148 v 44.2 h -12.8 v -42.4 c 0,-9.1 -3.5,-11.8 -9.8,-11.8 -5.5,0 -12.9,2 -20.9,5.7 v 48.6 h -12.8 v -64 h 11.5 l 0.6,5.1 c 8.7,-4.1 17.5,-6.6 24.8,-6.6 11.4,0 19.4,6 19.4,21.2 z" /><path
       inkscape:connector-curvature="0"
       id="path16"
       style="fill:#0d0d27;fill-rule:nonzero"
       d="m 349.7,42.948 c 19.3,0 24.5,12.8 24.6,33.6 0.1,20.8 -5.2,33.4 -24.5,33.4 -7.1,0 -12.8,-1.7 -21.9,-6.8 l -0.6,5.4 h -11.5 v -90.6 h 12.8 v 31.6 c 8.5,-4.9 14.1,-6.6 21.1,-6.6 z m -3.5,55.7 c 11.8,0 14.9,-6.3 15,-22.2 0.1,-15.9 -3.1,-22.2 -14.9,-22.2 -5,0 -9.1,1.1 -17.7,5.9 v 32.7 c 8.6,4.7 12.7,5.8 17.6,5.8 z" /><path
       inkscape:connector-curvature="0"
       id="path18"
       style="fill:#0d0d27;fill-rule:nonzero"
       d="m 448.6,76.348 c 0,21.3 -7.2,33.5 -29.8,33.5 -22.6,0 -29.8,-12.2 -29.8,-33.5 0,-21.3 7.2,-33.5 29.8,-33.5 22.6,0 29.8,12.3 29.8,33.5 z m -46.4,0 c 0,16 3.8,22.2 16.6,22.2 12.8,0 16.6,-6.2 16.6,-22.2 0,-16 -3.8,-22.2 -16.6,-22.2 -12.8,0 -16.6,6.2 -16.6,22.2 z" /><path
       inkscape:connector-curvature="0"
       id="path20"
       style="fill:#0d0d27;fill-rule:nonzero"
       d="m 518.2,44.348 v 64 h -11.5 l -0.6,-5 c -7.6,3.9 -15.6,6.5 -22.6,6.5 -10.8,0 -18.7,-6.1 -18.6,-21.3 v -44.2 h 12.8 v 42.4 c 0,9.1 3.4,11.8 9.3,11.8 4.8,0 11.5,-2 18.4,-5.5 v -48.7 z" /><path
       inkscape:connector-curvature="0"
       id="path22"
       style="fill:#0d0d27;fill-rule:nonzero"
       d="m 593.2,64.148 v 44.2 h -12.8 v -42.4 c 0,-9.1 -3.5,-11.8 -9.8,-11.8 -5.5,0 -12.9,2 -20.9,5.7 v 48.6 h -12.8 v -64 h 11.5 l 0.6,5.1 c 8.7,-4.1 17.5,-6.6 24.8,-6.6 11.4,0 19.4,6 19.4,21.2 z" /><path
       inkscape:connector-curvature="0"
       id="path24"
       style="fill:#0d0d27;fill-rule:nonzero"
       d="m 656.9,108.448 -0.6,-5.4 c -9,5 -14.6,6.8 -21.9,6.8 -19.3,0 -24.5,-12.7 -24.5,-33.4 0,-20.7 5.2,-33.6 24.5,-33.6 7.1,0 12.6,1.7 21.2,6.5 v -31.6 h 12.8 v 90.6 z M 623,76.348 c 0,15.9 3.2,22.2 15,22.2 5,0 9,-1.1 17.6,-5.9 v -32.7 c -8.8,-4.8 -12.8,-5.9 -17.6,-5.9 -11.8,0.1 -15,6.4 -15,22.3 z" /></g><defs
     id="defs57"><linearGradient
       id="_Linear1"
       x1="0"
       y1="0"
       x2="1"
       y2="0"
       gradientUnits="userSpaceOnUse"
       gradientTransform="matrix(114.2,0,0,114.2,1.23648e-5,79.6485)"><stop
         offset="0"
         style="stop-color:#0d0d27;stop-opacity:1"
         id="stop30" /><stop
         offset="0.02"
         style="stop-color:#10102f;stop-opacity:1"
         id="stop32" /><stop
         offset="0.1"
         style="stop-color:#1a1b4d;stop-opacity:1"
         id="stop34" /><stop
         offset="0.19"
         style="stop-color:#232365;stop-opacity:1"
         id="stop36" /><stop
         offset="0.28"
         style="stop-color:#282976;stop-opacity:1"
         id="stop38" /><stop
         offset="0.38"
         style="stop-color:#2c2d80;stop-opacity:1"
         id="stop40" /><stop
         offset="0.5"
         style="stop-color:#2d2e83;stop-opacity:1"
         id="stop42" /><stop
         offset="0.62"
         style="stop-color:#2c2d80;stop-opacity:1"
         id="stop44" /><stop
         offset="0.72"
         style="stop-color:#282976;stop-opacity:1"
         id="stop46" /><stop
         offset="0.81"
         style="stop-color:#232365;stop-opacity:1"
         id="stop48" /><stop
         offset="0.9"
         style="stop-color:#1a1b4d;stop-opacity:1"
         id="stop50" /><stop
         offset="0.98"
         style="stop-color:#10102f;stop-opacity:1"
         id="stop52" /><stop
         offset="1"
         style="stop-color:#0d0d27;stop-opacity:1"
         id="stop54" /></linearGradient></defs></svg>