<svg xmlns="http://www.w3.org/2000/svg" viewBox="-270 148.3 120 60" width="120" height="60"><path d="M-212.2 288.1c0-1 .5-1.8 1.6-2.5s2.5-1 4.4-1c2.4 0 4.2.5 5.4 1.6s2.2 2.5 2.9 4.3l7.8-2.4c-2.2-7.5-7.6-11.2-16.1-11.2-4.5 0-8 1.2-10.6 3.5s-3.9 5-3.9 8.2c0 2.8 1 5.1 3.1 6.8s5.3 3.2 9.8 4.4c.5.1 1.2.3 2.1.6 3.4 1 5.6 1.7 6.7 2.3s1.6 1.4 1.6 2.5c0 1.3-.7 2.4-2.1 3.1s-3.2 1.1-5.5 1.1c-5.1 0-7.9-2.7-8.6-8l-8.5 2.2c.6 3.8 2.3 7 5.2 9.7s7 4 12.3 4c5.1 0 8.9-1.2 11.6-3.6s4-5.2 4-8.2c0-2.9-.8-5.2-2.4-7.1-1.6-1.8-4.7-3.4-9.2-4.6-5.1-1.4-8.3-2.5-9.6-3.1-1.4-.8-2-1.6-2-2.6m29.6-10.1h9.5v38.4h-9.5zm10.7-10.8c0-3.3-2.6-6-6-6a6.02 6.02 0 0 0-6 6c0 3.2 2.7 5.9 6 5.9 3.4 0 6-2.7 6-5.9m27 19.9l1.5-9.1c-1.1-.5-2.3-.7-3.5-.7-1.7 0-3.3.4-4.7 1.3s-2.5 2-3.2 3.5h-.1V278h-9v38.4h9.5v-21.1c0-5.8 2.2-8.8 6.6-8.8.9 0 1.9.2 2.9.6M-68 297c0 6-4.7 10.8-10.5 10.8S-89 302.9-89 297c0-6 4.7-10.8 10.5-10.8S-68 291-68 297m10 0c0-11.1-9.2-20.2-20.5-20.2S-99 285.8-99 297c0 11.1 9.2 20.2 20.5 20.2 11.3-.1 20.5-9.1 20.5-20.2m44.5-.1c0-11.6-8-20.1-18.7-20.1-4.1 0-9 1.1-12.5 5.1v-4h-9.5v52.7h9.5v-18c4.4 4 8.7 4.4 12.4 4.4 11.3.1 18.8-8.2 18.8-20.1m-9.6.1c0 6-4.7 10.8-10.5 10.8s-10.5-4.9-10.5-10.8c0-6 4.7-10.8 10.5-10.8s10.5 4.8 10.5 10.8m-83.2 11.9c2.6-3.5 4-7.4 4-11.9 0-11.1-9.2-20.1-20.5-20.1s-20.5 9-20.5 20.1c0 4.4 1.5 8.5 4 11.9 3.6 4.9 16.5 16.8 16.5 16.8s12.8-11.9 16.5-16.8m-5.6-12c0 2.4-.5 4.3-1.8 6.4-1.7 2.8-9.1 10-9.1 10s-7.2-7.4-9-10.1c-1.3-1.9-1.9-4-1.9-6.3 0-5.9 4.9-10.7 10.9-10.7s10.9 4.8 10.9 10.7m-4.9.3c0-3.3-2.6-6-6-6a6.02 6.02 0 0 0-6 6c0 3.2 2.7 5.9 6 5.9 3.4 0 6-2.7 6-5.9" transform="matrix(.385432 0 0 .385432 -164.59611 64.250662)" fill="#62bcdd"/></svg>