<?xml version="1.0" encoding="UTF-8" standalone="no"?>
<!-- Generator: Adobe Illustrator 18.1.1, SVG Export Plug-In . SVG Version: 6.00 Build 0)  -->

<svg
   xmlns:dc="http://purl.org/dc/elements/1.1/"
   xmlns:cc="http://creativecommons.org/ns#"
   xmlns:rdf="http://www.w3.org/1999/02/22-rdf-syntax-ns#"
   xmlns:svg="http://www.w3.org/2000/svg"
   xmlns="http://www.w3.org/2000/svg"
   xmlns:sodipodi="http://sodipodi.sourceforge.net/DTD/sodipodi-0.dtd"
   xmlns:inkscape="http://www.inkscape.org/namespaces/inkscape"
   version="1.1"
   id="Ebene_1"
   x="0px"
   y="0px"
   viewBox="-270 148.3 64 64"
   enable-background="new -270 148.3 300 300"
   xml:space="preserve"
   sodipodi:docname="siroop-icon.svg"
   width="64"
   height="64"
   inkscape:version="0.92.3 (2405546, 2018-03-11)"><metadata
   id="metadata33"><rdf:RDF><cc:Work
       rdf:about=""><dc:format>image/svg+xml</dc:format><dc:type
         rdf:resource="http://purl.org/dc/dcmitype/StillImage" /><dc:title></dc:title></cc:Work></rdf:RDF></metadata><defs
   id="defs31">
	

		
	
			
			
			
			
			
			
		
				
				
			
				
				
			</defs><sodipodi:namedview
   pagecolor="#ffffff"
   bordercolor="#666666"
   borderopacity="1"
   objecttolerance="10"
   gridtolerance="10"
   guidetolerance="10"
   inkscape:pageopacity="0"
   inkscape:pageshadow="2"
   inkscape:window-width="1920"
   inkscape:window-height="1001"
   id="namedview29"
   showgrid="false"
   inkscape:zoom="6.2933333"
   inkscape:cx="58.207807"
   inkscape:cy="41.786242"
   inkscape:window-x="-9"
   inkscape:window-y="-9"
   inkscape:window-maximized="1"
   inkscape:current-layer="Ebene_1" />
<g
   id="g74"
   transform="matrix(3.4026119,0,0,3.4026119,483.10589,-433.46766)"><path
     style="fill:#62bcdd;stroke-width:0.38543203"
     inkscape:connector-curvature="0"
     id="path16"
     d="m -205.56753,183.31062 c 1.00212,-1.34902 1.54172,-2.8522 1.54172,-4.58665 0,-4.27829 -3.54597,-7.74718 -7.90135,-7.74718 -4.35539,0 -7.90136,3.46889 -7.90136,7.74718 0,1.69591 0.57815,3.27618 1.54173,4.58665 1.38755,1.88861 6.35963,6.47525 6.35963,6.47525 0,0 4.93353,-4.58664 6.35963,-6.47525 m -2.15842,-4.62519 c 0,0.92504 -0.19272,1.65736 -0.69378,2.46677 -0.65524,1.07921 -3.50743,3.85432 -3.50743,3.85432 0,0 -2.77511,-2.8522 -3.46889,-3.89287 -0.50106,-0.73232 -0.73232,-1.54172 -0.73232,-2.42822 0,-2.27405 1.88861,-4.12412 4.20121,-4.12412 2.31259,0 4.20121,1.85007 4.20121,4.12412" /><path
     style="fill:#62bcdd;stroke-width:0.38543203"
     inkscape:connector-curvature="0"
     id="path18"
     d="m -209.61457,178.80106 c 0,-1.27192 -1.00212,-2.31259 -2.31259,-2.31259 -1.27193,0 -2.3126,1.04067 -2.3126,2.31259 0,1.23338 1.04067,2.27405 2.3126,2.27405 1.31047,0 2.31259,-1.04067 2.31259,-2.27405" /></g>
</svg>