<?xml version="1.0" encoding="UTF-8" standalone="no"?>
<svg
   xmlns:sketch="http://www.bohemiancoding.com/sketch/ns"
   xmlns:dc="http://purl.org/dc/elements/1.1/"
   xmlns:cc="http://creativecommons.org/ns#"
   xmlns:rdf="http://www.w3.org/1999/02/22-rdf-syntax-ns#"
   xmlns:svg="http://www.w3.org/2000/svg"
   xmlns="http://www.w3.org/2000/svg"
   xmlns:sodipodi="http://sodipodi.sourceforge.net/DTD/sodipodi-0.dtd"
   xmlns:inkscape="http://www.inkscape.org/namespaces/inkscape"
   width="120"
   height="60"
   viewBox="0 0 120 60"
   version="1.1"
   id="svg10"
   sodipodi:docname="grpcio-ar21.svg"
   inkscape:version="0.92.3 (2405546, 2018-03-11)">
  <metadata
     id="metadata14">
    <rdf:RDF>
      <cc:Work
         rdf:about="">
        <dc:format>image/svg+xml</dc:format>
        <dc:type
           rdf:resource="http://purl.org/dc/dcmitype/StillImage" />
        <dc:title>grpc_white</dc:title>
      </cc:Work>
    </rdf:RDF>
  </metadata>
  <sodipodi:namedview
     pagecolor="#ffffff"
     bordercolor="#666666"
     borderopacity="1"
     objecttolerance="10"
     gridtolerance="10"
     guidetolerance="10"
     inkscape:pageopacity="0"
     inkscape:pageshadow="2"
     inkscape:window-width="1920"
     inkscape:window-height="1001"
     id="namedview12"
     showgrid="false"
     inkscape:zoom="1.695"
     inkscape:cx="28.023599"
     inkscape:cy="35.5"
     inkscape:window-x="-9"
     inkscape:window-y="-9"
     inkscape:window-maximized="1"
     inkscape:current-layer="svg10" />
  <!-- Generator: Sketch 3.3.2 (12043) - http://www.bohemiancoding.com/sketch -->
  <title
     id="title2">grpc_white</title>
  <desc
     id="desc4">Created with Sketch.</desc>
  <defs
     id="defs6" />
  <g
     id="g4537"
     transform="matrix(0.39970501,0,0,0.39970501,20.029499,15.880359)">
    <g
       style="fill:#2da6b0;fill-opacity:1;fill-rule:evenodd;stroke:none;stroke-width:1"
       sketch:type="MSPage"
       id="gRPC-Logo-White">
      <path
         style="fill:#2da6b0;fill-opacity:1"
         sketch:type="MSShapeGroup"
         id="grpc_white"
         d="m 74.55683,30.732884 h 5.649106 c 1.753179,0 3.149208,-0.233999 4.18813,-0.702006 1.038921,-0.468007 1.834333,-1.138806 2.38626,-2.012418 0.551927,-0.873612 0.925283,-1.950011 1.120081,-3.229229 0.194798,-1.279218 0.292195,-2.761217 0.292195,-4.446041 0,-1.684823 -0.0974,-3.166822 -0.292195,-4.44604 -0.194798,-1.279218 -0.60062,-2.371217 -1.217479,-3.276029 -0.61686,-0.904813 -1.477204,-1.575612 -2.581057,-2.012418 C 82.998017,10.171896 81.537056,9.9534966 79.718944,9.9534966 H 74.55683 Z M 64.622195,0.5854998 h 15.973334 c 11.687864,0 17.531708,6.7982352 17.531708,20.3949092 0,4.033464 -0.633083,7.497636 -1.899269,10.392622 -1.266185,2.894986 -3.490092,5.220698 -6.671788,6.977206 L 100.27,70.064809 H 89.750976 L 80.341063,39.884537 H 74.55683 v 30.180272 h -9.934635 z m 41.491705,0 h 14.90196 c 2.72716,0 5.12963,0.35780185 7.20747,1.0734163 2.07785,0.7156144 3.96086,1.9841846 5.64911,3.8057487 1.68825,1.821564 2.85702,3.9521114 3.50634,6.3917062 0.64933,2.439595 0.97399,5.74113 0.97399,9.904705 0,3.057625 -0.24521,5.246356 -0.60234,7.425728 -0.35713,2.179371 -1.50974,5.970679 -6.03833,8.54315 -2.8324,1.608948 -6.89769,2.187811 -10.59885,2.187811 h -5.06471 v 30.147044 h -9.93464 z m 9.93464,30.1473842 h 4.77252 c 2.01291,0 3.57127,-0.257593 4.67512,-0.772787 1.10385,-0.515194 1.9155,-1.21642 2.43496,-2.103698 0.51946,-0.887279 0.82788,-1.960584 0.92528,-3.219947 0.0974,-1.259363 0.1461,-2.661814 0.1461,-4.207396 0,-1.431095 -0.0487,-2.790614 -0.1461,-4.078599 -0.0974,-1.287985 -0.38959,-2.404222 -0.87658,-3.348744 -0.48699,-0.944523 -1.24994,-1.688681 -2.28886,-2.232497 -1.03892,-0.543816 -2.53235,-0.8157194 -4.48033,-0.8157194 h -5.16211 z m 61.26358,23.81618 c 0,2.146844 -0.40583,4.196073 -1.21748,6.147748 -0.81166,1.951676 -1.93173,3.659367 -3.36025,5.123124 -1.42851,1.463756 -3.1005,2.634744 -5.01601,3.512998 -1.91552,0.878254 -3.97709,1.317375 -6.1848,1.317375 -1.88305,0 -3.79853,-0.26022 -5.74651,-0.780667 -1.94797,-0.520446 -3.70113,-1.414951 -5.25951,-2.68354 -1.55838,-1.26859 -2.84078,-2.943753 -3.84723,-5.02554 -1.00646,-2.081788 -1.50968,-4.71651 -1.50968,-7.904247 V 16.003661 c 0,-2.276955 0.38959,-4.391239 1.16878,-6.3429143 0.77919,-1.9516758 1.88303,-3.6431027 3.31155,-5.0743316 1.42851,-1.4312289 3.13297,-2.5534256 5.11341,-3.3666239 C 156.74484,0.40659302 158.93628,0 161.33878,0 c 2.27264,0 4.38292,0.40659302 6.3309,1.2197912 1.94797,0.8131983 3.6362,1.9516587 5.06471,3.4154155 1.42852,1.4637568 2.54859,3.2202387 3.36025,5.2694982 0.81165,2.0492591 1.21748,4.2773891 1.21748,6.6844561 v 3.903332 h -9.93464 v -3.317832 c 0,-1.951676 -0.55192,-3.643103 -1.65577,-5.074332 -1.10385,-1.431229 -2.59728,-2.1468324 -4.48033,-2.1468324 -2.46743,0 -4.10696,0.7643944 -4.91861,2.2932074 -0.81166,1.528813 -1.21748,3.464196 -1.21748,5.806206 v 35.520321 c 0,2.016732 0.43828,3.708159 1.31487,5.074332 0.87659,1.366173 2.45119,2.049249 4.72383,2.049249 0.64932,0 1.34734,-0.113846 2.09406,-0.341541 0.74673,-0.227696 1.42851,-0.601761 2.04537,-1.122208 0.61686,-0.520447 1.12008,-1.236051 1.50967,-2.146833 0.3896,-0.910782 0.58439,-2.049242 0.58439,-3.415415 v -3.415416 h 9.93464 z m 19.46467,-19.312235 c 0,-2.53624 -2.05039,-4.59227 -4.57968,-4.59227 h -24.81065 v 9.18454 h 20.23098 v 10.244295 h -3.11788 L 192.24978,61.024192 200,50.073394 h -3.22321 z M 22.546097,39.917425 v 13.75339 c 0,2.862458 0.486987,5.350807 1.460976,7.465122 0.973988,2.114316 2.256387,3.870797 3.847236,5.269498 1.590848,1.398701 3.376467,2.455843 5.35691,3.171458 1.980444,0.715614 3.977091,1.073416 5.99,1.073416 2.01291,0 4.009557,-0.357802 5.990001,-1.073416 1.980443,-0.715615 3.766062,-1.772757 5.35691,-3.171458 1.590848,-1.398701 2.873247,-3.155182 3.847236,-5.269498 0.973989,-2.114315 1.460976,-4.602664 1.460976,-7.465122 V 30.752401 l -17.801353,-0.02715 -0.02255,9.189798 h 7.889269 l -1e-6,13.755765 c 0,2.407066 -0.665549,4.179812 -1.996666,5.31829 -1.331118,1.138477 -2.90571,1.707707 -4.723822,1.707707 -1.818112,0 -3.392703,-0.56923 -4.723821,-1.707707 -1.331118,-1.138478 -1.996667,-2.911224 -1.996667,-5.31829 v -36.69132 c 0,-2.407067 0.665549,-4.179812 1.996667,-5.31829 1.331118,-1.138477 2.905709,-1.7077074 4.723821,-1.7077074 1.818112,0 3.392704,0.5692304 4.723822,1.7077074 1.331117,1.138478 1.996666,2.911223 1.996666,5.31829 v 3.512999 h 9.934635 v -3.512999 c 0,-2.797402 -0.486987,-5.269487 -1.460976,-7.4163306 C 53.421377,7.41632 52.138978,5.6435745 50.54813,4.2448735 48.957282,2.8461726 47.171663,1.7890307 45.19122,1.0734163 43.210776,0.35780185 41.214129,0 39.201219,0 c -2.012909,0 -4.009556,0.35780185 -5.99,1.0734163 -1.980443,0.7156144 -3.766062,1.7727563 -5.35691,3.1714572 -1.590849,1.398701 -2.873248,3.1714465 -3.847236,5.3182899 -0.973989,2.1468436 -1.460976,4.6189286 -1.460976,7.4163306 v 13.75339 H 12.382564 V 20.48859 h 3.117878 L 7.7502209,9.5377917 0,20.48859 h 3.2232122 v 14.836564 c 0,2.536241 2.0503908,4.592271 4.579676,4.592271 H 22.546097 Z"
         inkscape:connector-curvature="0" />
    </g>
  </g>
</svg>
