<?xml version="1.0" encoding="UTF-8" standalone="no"?>
<svg
   xmlns:dc="http://purl.org/dc/elements/1.1/"
   xmlns:cc="http://creativecommons.org/ns#"
   xmlns:rdf="http://www.w3.org/1999/02/22-rdf-syntax-ns#"
   xmlns:svg="http://www.w3.org/2000/svg"
   xmlns="http://www.w3.org/2000/svg"
   xmlns:sodipodi="http://sodipodi.sourceforge.net/DTD/sodipodi-0.dtd"
   xmlns:inkscape="http://www.inkscape.org/namespaces/inkscape"
   viewBox="0 0 512 512"
   version="1.1"
   role="img"
   aria-labelledby="at-svg-buffer-48"
   title="Buffer"
   alt="Buffer"
   class="at-icon at-icon-buffer"
   id="svg6011"
   inkscape:version="0.91 r13725"
   sodipodi:docname="bufferapp-tile.svg"
   width="512"
   height="512">
  <metadata
     id="metadata6022">
    <rdf:RDF>
      <cc:Work
         rdf:about="">
        <dc:format>image/svg+xml</dc:format>
        <dc:type
           rdf:resource="http://purl.org/dc/dcmitype/StillImage" />
        <dc:title>Buffer</dc:title>
      </cc:Work>
    </rdf:RDF>
  </metadata>
  <defs
     id="defs6020" />
  <sodipodi:namedview
     pagecolor="#ffffff"
     bordercolor="#666666"
     borderopacity="1"
     objecttolerance="10"
     gridtolerance="10"
     guidetolerance="10"
     inkscape:pageopacity="0"
     inkscape:pageshadow="2"
     inkscape:window-width="1855"
     inkscape:window-height="1056"
     id="namedview6018"
     showgrid="false"
     inkscape:zoom="1.7949219"
     inkscape:cx="256"
     inkscape:cy="256"
     inkscape:window-x="65"
     inkscape:window-y="24"
     inkscape:window-maximized="1"
     inkscape:current-layer="svg6011" />
  <title
     id="at-svg-buffer-48">Buffer</title>
  <rect
     style="fill:#000000;fill-opacity:0.93920934;stroke:none;stroke-width:1.20000005;stroke-miterlimit:4;stroke-dasharray:none;stroke-dashoffset:0;stroke-opacity:1"
     id="rect6024"
     width="512"
     height="512"
     x="0"
     y="0"
     rx="77"
     ry="77" />
  <g
     id="g6014"
     transform="matrix(16.000364,0,0,15.999818,-0.00182,9.140455e-4)"
     style="fill:#ffffff">
    <path
       d="m 5.264,10.393 c -0.352,-0.163 -0.352,-0.428 0,-0.59 l 10.1,-4.68 c 0.35,-0.164 0.92,-0.164 1.273,0 l 10.1,4.68 c 0.35,0.162 0.35,0.427 0,0.59 l -10.1,4.68 c -0.352,0.163 -0.922,0.163 -1.274,0 l -10.1,-4.68 z m 0,5.323 c -0.352,0.163 -0.352,0.427 0,0.59 l 10.1,4.68 c 0.35,0.163 0.92,0.163 1.273,0 l 10.1,-4.68 c 0.35,-0.163 0.35,-0.427 0,-0.59 l -2.01,-0.93 c -0.35,-0.164 -0.92,-0.164 -1.273,0 l -6.818,3.158 c -0.35,0.163 -0.92,0.163 -1.273,0 l -6.817,-3.16 c -0.352,-0.162 -0.922,-0.162 -1.273,0 l -2.01,0.932 z m 0,5.89 c -0.352,0.164 -0.352,0.43 0,0.592 l 10.1,4.68 c 0.35,0.163 0.92,0.163 1.273,0 l 10.1,-4.68 c 0.35,-0.163 0.35,-0.428 0,-0.59 l -2.01,-0.932 c -0.35,-0.163 -0.92,-0.163 -1.273,0 l -6.818,3.16 c -0.35,0.163 -0.92,0.163 -1.273,0 l -6.817,-3.16 c -0.352,-0.163 -0.922,-0.163 -1.273,0 l -2.01,0.93 z"
       id="path6016"
       inkscape:connector-curvature="0"
       style="fill-rule:evenodd;fill:#ffffff" />
  </g>
</svg>
