<svg xmlns="http://www.w3.org/2000/svg" width="120" height="60"><path d="M37 21.412h9.46v2.816h-6.082v4.055h6.082V31.1h-6.082v7.322h-3.38v-17zm10.475 0h3.266V38.42h-3.266zm4.534 0h3.266v2.834H52.02v-2.834zm0 3.96h3.266V38.44H52.02V25.373zm4.6-.018h3.04v1.577h.15c.712-1.126 1.613-1.672 2.894-1.672 2.68 0 3.914 1.974 3.914 6.72s-1.234 6.717-3.914 6.717c-1.234 0-2.064-.387-2.752-1.513h-.18V42.6h-3.154zm5.018 10.827c1.423 0 1.708-1.423 1.708-4.2s-.285-4.198-1.708-4.198c-1.447 0-1.73 1.423-1.73 4.2s.285 4.198 1.73 4.198zm5.908-14.77H70.8v5.407h.1c.688-1.014 1.518-1.533 2.752-1.533 2.68 0 3.914 1.96 3.914 6.705s-1.234 6.737-3.914 6.737c-1.28 0-2.182-.42-2.894-1.66h-.07v1.35h-3.154V21.412zm5.05 14.77c1.423 0 1.708-1.423 1.708-4.2s-.285-4.198-1.708-4.198c-1.447 0-1.73 1.423-1.73 4.2s.285 4.198 1.73 4.198zM83.46 25.27c3.938-.07 5.03 2.277 5.03 6.713 0 4.365-1.28 6.713-5.03 6.713-3.938.07-5.03-2.277-5.03-6.713 0-4.365 1.28-6.713 5.03-6.713zm0 11.196c1.328 0 1.755-1.305 1.755-4.483S84.788 27.5 83.46 27.5c-1.613 0-1.755 1.874-1.755 4.483s.142 4.483 1.755 4.483zm6.15-6.944v-.314c0-2.94 2.024-3.938 4.5-3.938 3.9 0 4.633 1.613 4.633 3.914v6.713c0 1.186.1 1.848.43 2.523h-3.13c-.213-.338-.3-.9-.403-1.35h-.047c-.76 1.35-1.684 1.644-3.25 1.644-2.277 0-3.084-1.953-3.084-3.66 0-2.396.973-3.373 3.226-4l1.85-.5c.972-.26 1.305-.64 1.305-1.495 0-.972-.455-1.566-1.546-1.566-.996 0-1.546.664-1.546 1.66v.36H89.6zm5.97 2.46c-.45.332-.97.545-1.374.64-1.328.285-1.838.926-1.838 2.064 0 .972.337 1.78 1.214 1.78s1.997-.57 1.997-1.97V31.98zm4.393-6.63h3.04v2.027h.18c.664-1.24 1.6-2.075 2.943-2.075.2 0 .37-.012.594.012v3.13l-1.046-.047c-1.138 0-2.446.593-2.446 2.3v7.718h-3.266zM113.94 37.07h.02c-.712 1.24-1.613 1.656-2.894 1.656-2.68 0-3.914-1.983-3.914-6.727s1.234-6.705 3.914-6.705c1.234 0 2.064.512 2.752 1.526h.01v-5.407h3.267V38.42h-3.154v-1.35zm-1.806-.887c1.447 0 1.73-1.423 1.73-4.2s-.285-4.198-1.73-4.198c-1.423 0-1.708 1.423-1.708 4.2s.285 4.198 1.708 4.198z"/><path d="M2.905 14.356h31.288v31.288H2.905z" fill="#e12828"/><path d="M21.744 20.614H9.162v18.773h6.258V33.13h6.257V26.87h6.258v-6.257z" fill="#fff"/><path d="M15.42 26.87h6.258v6.258H15.42z" fill="#fad4d4"/><path d="M21.744 20.614H15.42v6.257h12.515v-6.257z" fill="#faeaea"/></svg>