<svg xmlns="http://www.w3.org/2000/svg" width="64" height="64" fill-rule="evenodd"><path d="M41.655 25.653c3.788 3.806 6.884 10.038 5.112 13.74C42.026 49.296 6.655 66.66 3.65 63.655s14.373-38.39 24.275-43.13c3.703-1.773 9.936 1.325 13.742 5.113l-.012.015z" fill="#ff8200"/><path d="M60.394 21.473c-.616-2.278-2.185-4.58-4.53-4.85-4.298-.5-11.072 7.098-10.59 8.902s10.054 4.982 13.63 2.413c1.843-1.324 2.102-4.185 1.497-6.466l-.008.002zM47.093.42c3.193.864 6.418 3.065 6.8 6.35.7 6.025-9.952 15.524-12.48 14.846S34.426 7.52 38.03 2.508C39.886-.075 43.897-.44 47.094.4l-.001.012z" fill="#43b02a"/></svg>