<svg xmlns="http://www.w3.org/2000/svg" width="120" height="60"><defs><linearGradient id="A" x1="67.763" y1="41.314" x2="67.763" y2="133.674" gradientUnits="userSpaceOnUse"><stop offset="0" stop-color="#f7f8f8"/><stop offset="1" stop-color="#cdcccc"/></linearGradient><radialGradient id="B" cx="-1258.61" cy="397.67" r=".04" gradientTransform="matrix(1209.4699,0,0,-1209.4699,1522313.3,481056.29)" gradientUnits="userSpaceOnUse"><stop offset="0" stop-color="#69cce3"/><stop offset="1" stop-color="#396fb6"/></radialGradient></defs><g transform="matrix(.463407 0 0 .463407 .57741 -9.833655)"><g transform="translate(0 1.487)"><circle r="47.678" cy="84.472" cx="61.949" fill="url(#A)"/><circle r="43.706" cy="84.472" cx="61.949" fill="url(#B)"/><path d="M61.95 43.556V50.5m0 74.887v-6.954m4-74.685l-.3 2.97m-7.724 78.477l.3-2.97m44.64-37.753H95.9m-74.9 0h6.954m74.72 4.013l-2.97-.3m-78.5-7.737l2.97.3M90.88 55.54l-4.92 4.907m-52.956 52.956l4.92-4.907M93.574 58.5l-2.3 1.897M30.3 110.434l2.3-1.897m58.28 4.866l-4.92-4.907M33.004 55.54l4.92 4.907M87.898 116.1l-1.883-2.3M35.987 52.833l1.883 2.3m39.734-8.47l-2.666 6.432M46.28 122.28l2.666-6.432M81.232 48.38l-1.402 2.625m-37.177 69.558l1.402-2.625m55.7-17.812l-6.418-2.653M24.14 68.817l6.418 2.653m67.47 32.298l-2.625-1.416M25.858 65.175l2.625 1.416m71.262 2.226l-6.418 2.653M24.14 100.126l6.418-2.653m70.548-24.876l-2.86.866M22.78 96.346l2.86-.866m51.964 26.8l-2.666-6.432M46.28 46.662l2.666 6.432m24.878 70.534l-.866-2.845M50.06 45.315l.866 2.845m18.994-3.82l-1.347 6.817m-14.6 73.447l1.347-6.817m18.514-72.472l-.866 2.845M50.06 123.628l.866-2.845m51.156-28.326l-6.83-1.36m-73.45-14.6l6.83 1.36m72.474 18.5l-2.86-.866M22.78 72.597l2.86.866M95.966 61.74L90.18 65.6m-62.26 41.604l5.786-3.862m64.32-38.167L95.4 66.6m-69.544 37.177l2.625-1.416m56.2 16.15l-3.862-5.786M39.203 50.44l3.862 5.786m38.167 64.337l-1.402-2.625M42.653 48.38l1.402 2.625m40.627-.565l-3.862 5.786m-41.617 62.276l3.862-5.786m44.833-59.883l-1.883 2.3M35.987 116.1l1.883-2.3m58.096-6.596l-5.786-3.862M27.92 61.74l5.786 3.862m59.868 44.832l-2.3-1.897M30.3 58.5l2.3 1.897m69.482 16.1l-6.83 1.36m-73.45 14.6l6.83-1.36m74.04-10.638l-2.97.3m-78.5 7.737l2.97-.3m45.748 36.42l-1.347-6.817m-14.6-73.45l1.347 6.817m10.64 74.038l-.3-2.97m-7.724-78.477l.3 2.97" fill="none" stroke="#dededd" stroke-linecap="round" stroke-width=".99"/><path d="M57.592 80.115l4.357 4.357-30 30z" fill="#dededd"/><path d="M91.925 54.482l-29.975 30-4.357-4.357z" fill="#ee4544"/><path d="M66.292 88.828L61.95 84.47l29.976-30z" fill="#cb2026"/><path d="M66.292 88.828L61.95 84.47l-30 30z" fill="#ababab"/></g><path d="M119.255 98.498l6.318 1.84c2.083.45 4.2.45 6.25-.243 1.736-.6 2.986-1.7 3.298-3.576.347-1.98-.243-3.75-1.98-4.8s-3.645-1.77-5.45-2.673c-1.736-.868-3.576-1.632-5.138-2.777-6.04-4.478-5.45-13.123 1.1-16.838 3.854-2.187 7.985-2.36 12.22-1.632 1.4.243 2.777.73 4.13 1.146.66.208.937.625.66 1.4-.52 1.493-.937 3.02-1.4 4.478-1.944-.486-3.75-1.1-5.555-1.32-1.597-.174-3.263-.035-4.826.278-1.736.382-2.986 1.528-3.298 3.402-.278 1.875.52 3.333 2.083 4.235s3.194 1.597 4.826 2.36c1.632.798 3.368 1.493 4.93 2.43 3.6 2.222 5.346 5.555 4.965 9.8-.347 4.235-2.57 7.3-6.457 8.922-5.763 2.43-11.526 1.944-17.22-.347-.73-.278-.972-.73-.73-1.493.45-1.528.868-3.125 1.25-4.583zm42.425 4.686l-1.25.972c-3.298 2.465-6.9 3.125-10.727 1.528-5.6-2.36-6.457-10.276-1.666-14.27 3.02-2.5 6.666-3.125 10.415-3.402.243-.035.486 0 .73 0 2.048-.07 2.36-.6 1.493-2.5-.833-1.84-2.88-2.916-5.6-2.534-1.98.278-3.923.972-5.867 1.493-.278.07-.52.208-.937.347-.417-1.4-.868-2.708-1.146-4.027-.07-.278.486-.833.868-1.042 2.986-1.423 6.145-2.014 9.408-1.805 1.493.104 3.055.278 4.444.764 4.097 1.458 5.798 4.756 6.214 8.853.14 1.562.104 3.125.104 4.652v13.644c-1.666 0-3.6.035-5.52-.035-.208 0-.486-.52-.6-.868-.174-.45-.243-.972-.382-1.77zm-.417-8.124c0-.52.07-1.042-.035-1.562-.07-.312-.417-.798-.625-.833-2.57-.07-5.138.07-7.256 1.805-1.458 1.18-1.805 3.333-.937 5.034.73 1.458 2.395 2.152 4.305 1.805 3.125-.6 4.548-2.57 4.548-6.25zm29.9-10.16l-1.146-3.958c-.07-.312.382-.903.73-1.076 2.916-1.493 6.04-1.98 9.27-1.944a14.94 14.94 0 0 1 2.152.139c5.45.764 8.714 4.478 8.853 10.172l.208 15.067c0 .798.104 1.597.174 2.57-1.944 0-3.854.035-5.763-.035-.243 0-.555-.486-.66-.798-.174-.486-.243-1.042-.417-1.805-.52.417-.903.66-1.25.937-3.298 2.465-6.9 3.125-10.693 1.528-2.847-1.18-4.4-3.506-4.687-6.56-.312-3.715 1.076-6.63 4.27-8.6 2.743-1.7 5.867-2.257 9.026-2.5.555-.035 1.1-.07 1.666-.035.937 0 1.146-.45 1.042-1.32-.278-1.84-1.458-3.125-3.437-3.506-2.638-.555-5.138 0-7.603.972-.52.208-1.007.45-1.736.764zm13.02 10.24c0-.555.07-1.146-.035-1.666-.07-.312-.417-.764-.66-.764-2.5-.07-4.965.104-7.048 1.666-1.493 1.1-1.944 3.368-1.146 5.103.694 1.458 2.36 2.187 4.27 1.875 3.125-.6 4.617-2.604 4.617-6.214zM188.86 71.428l-2.36-.312c-2.534-.174-4.166.937-4.756 3.402-.208.937-.278 1.875-.347 2.847-.07.833.347 1.146 1.146 1.1h3.82c.625 0 1.007.14.972.868v4.513H183.3c-1.875 0-1.875 0-1.875 1.944v18.435c0 .52-.07 1.007-.104 1.666-2.152 0-4.235.035-6.284-.035-.243 0-.6-.417-.66-.73-.104-.417-.035-.868-.035-1.32V85.583c0-1.77 0-1.736-1.7-1.77-2.118-.035-1.98.347-1.98-1.98v-2.395c-.035-.73.278-.972.972-1.007 2.638-.104 2.638-.14 2.847-2.88.347-5 3.02-8.575 7.43-9.8 2.118-.6 4.27-.45 6.423-.035.833.174 1.1.6 1.007 1.423-.243 1.423-.347 2.812-.486 4.27zM223 82.736l.833-1.25c1.7-2.36 3.923-3.68 6.9-3.576.833.035 1.25.278 1.215 1.18v5.52l-1.528-.07c-3.472-.174-5.902 1.7-6.596 5.103-.208.972-.278 1.98-.278 2.986v13.227c-2.222 0-4.374 0-6.492-.035-.174 0-.45-.312-.52-.52-.104-.347-.07-.694-.07-1.076l-.174-24.65c0-.798.208-1.146 1.076-1.146h3.958c.903-.035 1.18.347 1.18 1.215l.14 3.02c.104 0 .243.035.347.07zm11.698 9.408l-.035-12.324c0-1.042.278-1.423 1.354-1.4h4.652c.798-.035 1.18.243 1.146 1.076v25.378c0 .694-.243 1.007-.972.972-1.666-.035-3.368-.07-5.034 0-1.042.035-1.18-.45-1.18-1.32l.07-12.394zm3.566-17.427c-2.326 0-3.888-1.493-3.888-3.75s1.632-3.854 3.958-3.854c2.257.035 3.854 1.632 3.854 3.854s-1.597 3.75-3.923 3.75z"/></g></svg>