<?xml version="1.0" encoding="UTF-8" standalone="no"?>
<svg
   xmlns:dc="http://purl.org/dc/elements/1.1/"
   xmlns:cc="http://creativecommons.org/ns#"
   xmlns:rdf="http://www.w3.org/1999/02/22-rdf-syntax-ns#"
   xmlns:svg="http://www.w3.org/2000/svg"
   xmlns="http://www.w3.org/2000/svg"
   xmlns:sodipodi="http://sodipodi.sourceforge.net/DTD/sodipodi-0.dtd"
   xmlns:inkscape="http://www.inkscape.org/namespaces/inkscape"
   width="120"
   height="60"
   viewBox="0 0 120 60"
   version="1.1"
   id="svg12"
   sodipodi:docname="pingboard-ar21.svg"
   inkscape:version="0.92.3 (2405546, 2018-03-11)">
  <metadata
     id="metadata18">
    <rdf:RDF>
      <cc:Work
         rdf:about="">
        <dc:format>image/svg+xml</dc:format>
        <dc:type
           rdf:resource="http://purl.org/dc/dcmitype/StillImage" />
        <dc:title>pingboard-logo-color</dc:title>
      </cc:Work>
    </rdf:RDF>
  </metadata>
  <defs
     id="defs16" />
  <sodipodi:namedview
     pagecolor="#ffffff"
     bordercolor="#666666"
     borderopacity="1"
     objecttolerance="10"
     gridtolerance="10"
     guidetolerance="10"
     inkscape:pageopacity="0"
     inkscape:pageshadow="2"
     inkscape:window-width="1920"
     inkscape:window-height="1001"
     id="namedview14"
     showgrid="false"
     inkscape:zoom="5.9278936"
     inkscape:cx="46.793776"
     inkscape:cy="13.91648"
     inkscape:window-x="-9"
     inkscape:window-y="-9"
     inkscape:window-maximized="1"
     inkscape:current-layer="svg12" />
  <title
     id="title2">pingboard-logo-color</title>
  <g
     id="g838"
     transform="translate(1.8747088)">
    <g
       transform="matrix(3.2548925,0,0,3.2548925,-112.25841,-47.437654)"
       id="g831">
      <path
         d="m 37.847197,23.506363 3.350337,0.837573 4.422246,1.105561 V 22.13215 c 0,-0.649363 -0.441915,-1.215366 -1.071908,-1.372886 l -7.772583,-1.943135 v 3.317347 c 0,0.649363 0.441915,1.215366 1.071908,1.372887"
         id="path4"
         inkscape:connector-curvature="0"
         style="fill:#ffb715;stroke-width:0.04422246" />
      <path
         d="m 41.197534,26.555059 -4.422245,1.105561 v -1.658652 a 0.70760353,0.70760353 0 0 1 0.535932,-0.686465 l 3.886313,-0.971567 z"
         id="path6"
         inkscape:connector-curvature="0"
         style="fill:#0c7fe4;stroke-width:0.04422246" />
      <path
         d="m 45.083848,27.794614 -3.886269,0.971568 v -2.211123 l 4.422245,-1.105562 v 1.658696 a 0.7075593,0.7075593 0 0 1 -0.535976,0.686421"
         id="path8"
         inkscape:connector-curvature="0"
         style="fill:#00aee6;stroke-width:0.04422246" />
    </g>
    <path
       style="fill:#3b4859;stroke-width:0.06778646"
       inkscape:connector-curvature="0"
       id="path10"
       d="m 44.469357,25.11314 v 3.932224 h 2.362425 c 1.379117,0 2.053999,-0.894646 2.053999,-2.010004 0,-1.129728 -0.674882,-1.922287 -2.053999,-1.922287 h -2.362425 z m -1.658191,-1.379455 h 4.093624 c 2.347714,0 3.653485,1.350102 3.653485,3.287033 0,1.936659 -1.305771,3.389391 -3.653485,3.389391 h -2.435433 v 3.41874 h -1.658191 z m 9.178556,10.09503 v -7.160282 h 1.584847 v 7.160282 z m 1.862162,-9.933156 c 0,0.590827 -0.47898,1.069807 -1.069806,1.069807 -0.590828,0 -1.069805,-0.47898 -1.069805,-1.069807 0,-0.591166 0.478977,-1.069806 1.069805,-1.069806 0.590826,0 1.069806,0.478708 1.069806,1.069806 z m 1.267674,2.773008 h 1.525807 v 1.041675 h 0.05896 c 0.410514,-0.806929 1.173723,-1.217715 2.215396,-1.217715 1.423109,0 2.685157,0.762935 2.685157,2.993314 v 4.343077 h -1.584847 v -4.137686 c 0,-1.423448 -0.601537,-1.907578 -1.525806,-1.907578 -1.012322,0 -1.7899,0.865632 -1.7899,2.303722 v 3.741542 h -1.584843 v -7.160352 z m 11.314305,6.059704 c 1.129728,0 1.966282,-0.909628 1.966282,-2.479494 v -0.117339 c -0.044,-1.496793 -0.865905,-2.362696 -1.966282,-2.362696 -1.115018,0 -1.95164,0.968599 -1.95164,2.538466 0,1.570071 0.836622,2.421063 1.95164,2.421063 z m -1.907578,1.98065 c 0.01471,0.792559 0.762935,1.276691 1.804883,1.276691 1.276418,0 2.14205,-0.64553 2.14205,-2.523825 v -0.703894 h -0.05871 c -0.439866,0.865632 -1.320413,1.247065 -2.376796,1.247065 -1.804882,0 -3.198709,-1.320749 -3.198709,-3.697817 0,-2.376797 1.481813,-3.814547 3.316047,-3.814547 1.027032,0 1.819592,0.381435 2.259389,1.247066 h 0.05871 v -1.071026 h 1.511434 v 6.793153 c 0,2.699867 -1.555494,3.71246 -3.653486,3.71246 -1.907578,0 -3.272051,-0.82191 -3.301403,-2.465394 h 1.49659 z m 10.859322,-1.98065 c 1.129999,0 1.95164,-0.968331 1.95164,-2.538468 0,-1.569528 -0.821573,-2.42113 -1.95164,-2.42113 -1.085669,0 -1.92229,0.865904 -1.965943,2.362698 v 0.117339 c 0,1.569934 0.850923,2.479562 1.965943,2.479561 z m -3.550791,-9.639779 h 1.584848 v 2.245022 c 0,0.484131 0,1.466831 -0.05897,2.406146 h 0.05897 c 0.440138,-0.865631 1.320412,-1.247066 2.376796,-1.247066 1.804882,0 3.198707,1.320412 3.198707,3.697209 0,2.377406 -1.481811,3.815155 -3.316045,3.815155 -1.027032,0 -1.819253,-0.381433 -2.259391,-1.247066 h -0.05896 v 1.071026 h -1.52581 V 23.088492 Z m 12.060025,9.639779 c 1.203345,0 2.010274,-0.982972 2.010274,-2.479494 0,-1.555495 -0.806929,-2.480104 -2.010274,-2.480104 -1.203345,0 -2.010275,0.98331 -2.010275,2.480104 0,1.496453 0.80693,2.479494 2.010275,2.479494 m 0,-6.235677 c 2.230376,0 3.653486,1.423109 3.653486,3.756183 0,2.318365 -1.526145,3.756181 -3.653486,3.756181 -2.215668,0 -3.653488,-1.423108 -3.653488,-3.756181 0,-2.318433 1.540516,-3.756183 3.653488,-3.756183 m 9.609678,3.741472 c -0.146694,0.176043 -0.396144,0.278739 -0.733584,0.337443 l -1.232698,0.205393 c -0.835942,0.132054 -1.159012,0.49884 -1.159012,1.056315 0,0.586828 0.411124,0.982971 1.218054,0.982971 1.012323,0 1.907307,-0.630887 1.907307,-1.921948 v -0.660174 z m -2.318093,-0.425833 1.393825,-0.234405 c 0.704233,-0.117677 0.924268,-0.205734 0.924268,-0.484131 0,-0.865905 -0.425495,-1.408738 -1.408466,-1.408738 -0.953961,0 -1.4528,0.513482 -1.511435,1.261775 h -1.511163 c 0.08806,-1.48181 1.232425,-2.45014 3.022598,-2.45014 2.010002,0 2.993245,0.953619 2.993245,2.626521 v 4.709871 h -1.511433 v -0.895255 h -0.07335 c -0.425495,0.689863 -1.247067,1.071296 -2.288741,1.071296 -1.570138,0 -2.421061,-0.807269 -2.421061,-2.010276 0,-1.203005 0.704166,-1.907441 2.391711,-2.186518 z m 10.310514,-2.834627 c -0.27141,0.354252 -0.49544,0.755548 -0.66694,1.195753 -0.29834,-0.141804 -0.56181,-0.209392 -0.82375,-0.209392 -1.071023,0 -1.584502,1.041674 -1.584502,2.288742 v 3.58014 h -1.584847 v -7.160282 h 1.526146 v 1.041675 h 0.044 c 0.352082,-0.762937 0.982982,-1.217715 1.892603,-1.217715 0.6795,0 1.04479,0.308699 1.19731,0.481079 z m 3.76168,5.754665 c 1.12973,0 1.96629,-0.909628 1.96629,-2.479494 0,-1.570138 -0.83656,-2.480104 -1.96629,-2.480104 -1.11502,0 -1.95163,0.968601 -1.95163,2.538468 5e-5,1.570138 0.83661,2.421129 1.95163,2.421129 m -0.27873,-6.235676 c 1.02703,0 1.81959,0.381435 2.25939,1.247066 h 0.0587 c -0.0731,-0.939248 -0.0731,-1.921948 -0.0731,-2.406146 v -2.245022 h 1.5845 v 10.740426 h -1.51144 v -1.071025 h -0.0587 c -0.43987,0.865632 -1.32041,1.247065 -2.3768,1.247065 -1.80488,0 -3.19871,-1.320749 -3.19871,-3.697817 7e-5,-2.376797 1.48188,-3.814547 3.31612,-3.814547" />
  </g>
</svg>
