<?xml version="1.0" encoding="UTF-8" standalone="no"?>
<!-- Generator: Adobe Illustrator 22.1.0, SVG Export Plug-In . SVG Version: 6.00 Build 0)  -->

<svg
   xmlns:dc="http://purl.org/dc/elements/1.1/"
   xmlns:cc="http://creativecommons.org/ns#"
   xmlns:rdf="http://www.w3.org/1999/02/22-rdf-syntax-ns#"
   xmlns:svg="http://www.w3.org/2000/svg"
   xmlns="http://www.w3.org/2000/svg"
   xmlns:sodipodi="http://sodipodi.sourceforge.net/DTD/sodipodi-0.dtd"
   xmlns:inkscape="http://www.inkscape.org/namespaces/inkscape"
   version="1.1"
   id="Layer_1"
   x="0px"
   y="0px"
   viewBox="0 0 64 64"
   xml:space="preserve"
   sodipodi:docname="apache_batik-icon.svg"
   width="64"
   height="64"
   inkscape:version="0.92.3 (2405546, 2018-03-11)"><metadata
   id="metadata213"><rdf:RDF><cc:Work
       rdf:about=""><dc:format>image/svg+xml</dc:format><dc:type
         rdf:resource="http://purl.org/dc/dcmitype/StillImage" /><dc:title></dc:title></cc:Work></rdf:RDF></metadata><defs
   id="defs211">
	
	
	
	
	
	
	
	
	
	
</defs><sodipodi:namedview
   pagecolor="#ffffff"
   bordercolor="#666666"
   borderopacity="1"
   objecttolerance="10"
   gridtolerance="10"
   guidetolerance="10"
   inkscape:pageopacity="0"
   inkscape:pageshadow="2"
   inkscape:window-width="1920"
   inkscape:window-height="1001"
   id="namedview209"
   showgrid="false"
   inkscape:zoom="6.7425131"
   inkscape:cx="-10.284006"
   inkscape:cy="47.234519"
   inkscape:window-x="-9"
   inkscape:window-y="-9"
   inkscape:window-maximized="1"
   inkscape:current-layer="Layer_1" />
<style
   type="text/css"
   id="style2">
	.st0{fill:#6666FF;}
	.st1{fill:#FF0000;}
	.st2{fill:#33CC33;}
	.st3{fill:#FAFEFF;}
	.st4{fill:none;stroke:#D70708;stroke-miterlimit:10;}
	.st5{fill:#DBCDF9;}
	.st6{fill:#C7AEF9;}
	.st7{fill:#AF8BF9;}
	.st8{fill:#8252E0;}
	.st9{fill:#6038B0;}
	.st10{fill:url(#SVGID_1_);}
	.st11{fill:url(#SVGID_2_);}
	.st12{fill:url(#SVGID_3_);}
	.st13{fill:url(#SVGID_4_);}
	.st14{fill:url(#SVGID_5_);}
	.st15{fill:none;stroke:#000000;stroke-miterlimit:10;}
	.st16{fill:url(#SVGID_6_);}
</style>
<symbol
   id="Batik_Squiggle"
   viewBox="-56.7 -59.3 113.5 118.7"
   transform="translate(0,-728)">
	<path
   id="Batik_Squiggle_Blue_1_"
   class="st0"
   d="m -20.5,-50 c -7.4,3.4 -29.7,19.2 -33.9,32.6 -1.7,5.7 4.6,10.1 9.3,6.9 -8.6,15.6 -11.8,21.1 -11.6,26.1 0,2.9 2.7,8.8 9.3,5.7 1.7,-0.8 7.4,-5.3 10.9,-8.6 2.9,-0.2 5.1,-2.3 8.8,-5.9 3.6,2.9 7.6,2.1 10.9,-1.5 4.6,0.4 17.3,-16.4 9.3,-22.7 -0.6,-5.1 -6.3,-7.8 -11.2,-3.8 -1.3,-0.4 -2.7,-0.2 -3.8,0.2 4.6,-7.4 9.1,-17.3 10.3,-22.1 1.6,-6.3 -4.9,-8.6 -8.3,-6.9 z"
   inkscape:connector-curvature="0"
   style="fill:#6666ff" />
	<path
   id="Batik_Squiggle_Red_1_"
   class="st1"
   d="m 27.5,-59.3 c -3.8,0.6 -10.3,6.5 -10.3,6.5 -6.1,4.8 -9.1,12.2 -5.9,20 -2.7,2.9 -6.1,9.3 -6.1,14.1 0,5.9 4.2,10.9 10.5,6.1 1.5,1.7 4.4,3.4 7.8,1.1 -1.1,6.1 0.6,10.1 5.5,10.3 0.2,2.1 2.7,6.5 7.6,3.6 3.4,-2.1 12.2,-8.2 16.6,-11.8 5.3,-4.8 5.3,-19.8 -3.8,-18.7 6.9,-12.4 -0.6,-20.2 -5.7,-17.7 -2.1,0.8 -9.7,5.3 -10.9,6.3 -0.2,-1.5 -1.1,-2.5 -2.3,-2.9 4.6,-7.4 4.6,-17.9 -2.7,-16.8 h -0.3 z"
   inkscape:connector-curvature="0"
   style="fill:#ff0000" />
	<path
   id="Batik_Squiggle_Green_1_"
   class="st2"
   d="m 1.2,15 c -9.7,2.5 -18.5,9.1 -24,19.2 -1.9,3.4 1.3,7.8 5.3,6.9 -2.9,5.1 -8.4,14.1 -3.2,17.1 5.9,3.4 10.9,-1.7 12.6,-3.2 C -4.3,59.4 2.4,57.1 9,51.4 17.6,54.3 23.3,51 30.7,40.2 32.4,37.7 37,31.1 37,26.5 37,23.1 33.8,20.2 29.6,22.1 29.4,19.6 27.7,14.1 18.4,18.1 16.3,16.8 11.9,17 7,21.7 8.1,19.7 6.4,13.8 1.2,15 Z"
   inkscape:connector-curvature="0"
   style="fill:#33cc33" />
</symbol>































<g
   id="g1041"
   transform="matrix(0.28509314,0,0,0.28509314,59.480535,-137.07278)"><path
     id="path153"
     d="M 9.8,480.8"
     class="st15"
     inkscape:connector-curvature="0"
     style="fill:none;stroke:#000000;stroke-miterlimit:10" /><path
     class="st0"
     d="m -122.2,527.8 c -0.4,1.1 -0.8,2.2 -1.3,3.4 -0.7,1.8 -1.5,3.7 -2.4,5.8 l -2.2,3.7 -0.9,1.5 -1.6,2.6 -0.9,1.5 v -5 c 0,-1.8 0.3,-3.5 0.9,-5.1 0,0 0,0 0,-0.1 0.6,-1.5 1.4,-2.9 2.5,-4.2 1.5,-1.8 3.5,-3.2 5.9,-4.1 z"
     id="path186"
     inkscape:connector-curvature="0"
     style="fill:#6666ff" /><path
     class="st0"
     d="m -119.4,516.5 c -0.1,0.8 -0.2,1.6 -0.4,2.5 -0.1,0.8 -0.3,1.7 -0.6,2.6 -0.2,0.7 -0.4,1.4 -0.6,2.2 -5.1,0.9 -8.5,3.2 -10.6,6 -2.7,3.4 -3.5,7.6 -3.8,10.6 v 12.2 l -0.1,0.1 -3,5 c 0.1,-0.1 1.2,-0.9 3,-0.7 0,0 0.1,0 0.1,0 v 54.2 c -2.2,0.6 -4.5,1 -6.6,0.7 -0.5,0 -0.9,-0.1 -1.3,-0.3 -1.8,-0.5 -3.4,-1.4 -4.8,-3 0,0 -10,9.1 -16.2,10.8 -6,6.4 -18.7,19.6 -29.1,17.9 -1.5,-0.3 -3,-0.8 -4.5,-1.8 -7.8,-5.4 -4.1,-16.1 -1.4,-23.3 2,-5.3 4.5,-10.3 7.2,-15.3 1.4,-2.5 5.6,-12.3 9.1,-17.2 v 0 c 1,-1.5 2,-2.5 2.8,-2.7 -0.7,0.1 -4.7,0.8 -8.5,0.1 0,0 0,0 0,0 -5.7,-1 -11,-5.1 -3.7,-18.8 0,0 25.3,-48.4 62.7,-53.9 0,0 5.5,-1.5 8.6,2.2 1.4,2 2.2,5 1.7,9.9 z"
     id="path188"
     inkscape:connector-curvature="0"
     style="fill:#6666ff" /><path
     class="st0"
     d="m -108.2,582.9 c -1.9,6.7 -7,14.9 -18.3,24.3 0,0 0,0 -0.1,0.1 -0.2,0.1 -0.8,0.5 -1.6,1 -0.3,0.2 -0.6,0.3 -0.9,0.5 -0.5,0.3 -1,0.5 -1.6,0.8 -0.3,0.1 -0.6,0.3 -0.9,0.4 v -51 c 0.2,0.2 0.4,0.4 0.7,0.6 0,0 0,0 0,0 0,0 0,0 0,0 0,0 0.1,-0.1 0.2,-0.2 0.3,-0.3 0.8,-0.9 1.6,-1.6 0.2,-0.2 0.3,-0.3 0.5,-0.5 0.1,-0.1 0.3,-0.2 0.4,-0.3 0,0 0.1,-0.1 0.1,-0.1 0,0 0,0 0,0 0.4,-0.4 0.9,-0.7 1.4,-1 2.3,-1.4 5.2,-2.5 8.2,-1.1 0.9,0.4 1.8,1 2.7,1.9 1.6,1.6 3.2,4.1 4.6,7.8 0,0 1.6,1.8 2.8,5.1 1.1,3.1 1.8,7.6 0.2,13.3 z"
     id="path190"
     inkscape:connector-curvature="0"
     style="fill:#6666ff" /><path
     class="st2"
     d="m -51.6,626.8 c -0.3,0.5 -0.5,1 -0.8,1.5 -0.3,0.6 -0.7,1.1 -1,1.6 -4.6,7 -11.3,11.8 -20.4,14.7 -7.6,2.5 -15.4,2.8 -22.6,1.1 0,0 -0.1,0 -0.1,0 -3,-0.7 -5.9,-1.8 -8.6,-3.2 -1.8,2.1 -4.2,3.5 -6.8,4.3 0,0 0,0 0,0 -1.3,0.4 -2.7,0.6 -4.1,0.6 h -1 c -2.2,0 -4.2,-0.5 -6,-1.3 -1.7,-0.8 -3.3,-1.9 -4.6,-3.3 0.7,-0.7 1.3,-1.3 1.7,-1.7 0,0 0,0 0,0 0.4,-0.3 0.5,-0.5 0.5,-0.5 0.5,-0.4 1,-0.7 1.4,-1 13.5,-9.8 22.3,-13.9 28,-15 1.3,-0.3 2.4,-0.3 3.4,-0.3 0.7,0 1.3,0.1 1.8,0.2 1.3,0.3 2.4,0.8 3.2,1.5 0.3,0.2 0.5,0.5 0.7,0.8 2.3,2.9 1.6,7.2 1.6,7.2 1.6,-1.3 3.1,-2.5 4.5,-3.4 10.8,-7.3 15,-4 16.4,-2 0.5,0.6 0.6,1.2 0.6,1.2 0.6,-0.3 1.2,-0.6 1.7,-0.8 2,-0.9 3.5,-1.5 4.5,-1.7 0,0 0,0 0,0 1,-0.3 1.4,-0.3 1.4,-0.3 0.6,-0.1 1.2,-0.1 1.8,-0.2 0.4,0 0.8,0 1.2,0 0.6,-0.2 1.1,-0.1 1.6,0 z"
     id="path192"
     inkscape:connector-curvature="0"
     style="fill:#33cc33" /><path
     class="st2"
     d="m -46.8,676.2 c -16.4,20.9 -34.2,14.3 -34.2,14.3 -4.6,6 -13,8.8 -13,8.8 -5.1,2.2 -8.8,2.7 -11.5,2.4 -1.1,-0.1 -2,-0.4 -2.8,-0.7 -3.1,-1.3 -3.9,-3.9 -3.9,-3.9 -8.3,8.7 -15.7,8.6 -19.2,7.9 -1.4,-0.3 -2.2,-0.7 -2.2,-0.7 -13,-4.3 -0.2,-26 3.2,-31.4 0.5,-0.8 0.8,-1.2 0.8,-1.2 -1.4,-0.1 -2.6,-0.3 -3.8,-0.6 -15.1,-3.5 -3.5,-18.6 3.6,-26.2 1.2,1.4 2.7,2.7 4.4,3.6 2.2,1.2 4.8,2 7.5,2 h 1.1 c 4.5,0 8.7,-1.9 11.6,-5.2 10.1,5.3 21.9,6.1 33.5,2.4 10.5,-3.4 17.9,-9.1 22.8,-17.5 0.2,-0.3 0.4,-0.7 0.6,-1 0.1,-0.2 0.2,-0.4 0.3,-0.6 0.3,0.2 0.5,0.4 0.8,0.7 3.3,3.1 4,7.8 4,7.8 1.6,-0.8 3,-1.2 4.2,-1.2 2.6,-0.1 4.4,1.2 5.6,2.5 1.1,1.2 1.6,2.3 1.6,2.3 5.9,12.9 -15,35.5 -15,35.5 z"
     id="path194"
     inkscape:connector-curvature="0"
     style="fill:#33cc33" /><path
     class="st1"
     d="m 4.9,561.8 c 0,0 -0.1,1.2 -0.5,3.1 -0.2,0.8 -0.4,1.7 -0.8,2.7 -0.3,0.8 -0.5,1.6 -0.9,2.4 v 0 c -0.2,0.5 -0.5,1.1 -0.7,1.6 -0.4,0.9 -0.9,1.8 -1.4,2.7 -0.3,0.5 -0.6,1 -0.8,1.4 -0.2,0.2 -0.3,0.5 -0.5,0.7 -0.2,0.2 -0.3,0.5 -0.5,0.7 -2.3,3.4 -5.5,7.2 -9.8,10.9 0,0 -7.2,6.3 -15,10.4 v 0 c -1,0.5 -2,1 -3.1,1.5 -1,0.4 -1.9,0.8 -2.9,1.1 -1.8,0.6 -3.5,0.9 -5.1,0.8 -1.3,0 -2.5,-0.3 -3.6,-0.9 -1,-0.6 -1.9,-1.5 -2.5,-2.8 v 0 c -0.6,-1.1 -1,-2.4 -1.2,-4 0,-0.1 0,-0.1 0,-0.2 0,0 -0.1,0 -0.4,-0.1 0,0 0,0 0,0 -0.3,-0.1 -0.7,-0.2 -1.3,-0.4 -0.4,-0.1 -0.8,-0.3 -1.2,-0.5 -0.8,-0.4 -1.8,-0.9 -2.7,-1.5 v 0 c -2.7,-2 -5.2,-5.3 -4.2,-10.9 0.2,-0.9 0.4,-1.9 0.8,-3 0.2,-0.6 0.4,-1.1 0.7,-1.7 -0.1,0 -0.5,0.2 -1.1,0.5 -1.9,0.8 -5.8,2.2 -9.4,1.9 -0.6,-0.1 -1.3,-0.2 -1.9,-0.3 -1.6,-0.5 -3.1,-1.4 -4.1,-3 0,0 -0.6,0.3 -1.6,0.7 -0.7,0.3 -1.7,0.6 -2.7,0.9 0,0 0,0 0,0 -0.9,0.2 -1.8,0.5 -2.8,0.6 -0.1,0 -0.1,0 -0.2,0 -0.8,0.1 -1.5,0.1 -2.3,0.1 -0.4,0 -0.7,0 -1.1,-0.1 -1.6,-0.3 -3.1,-0.9 -4.2,-2.3 -0.5,-0.7 -0.9,-1.5 -1.2,-2.4 -0.1,-0.2 -0.1,-0.3 -0.1,-0.5 -0.1,-0.3 -0.2,-0.6 -0.2,-1 0,0 -0.3,-0.5 -0.6,-1.3 0,-0.1 -0.1,-0.2 -0.1,-0.4 -0.2,-0.6 -0.5,-1.4 -0.7,-2.4 -0.8,-3.5 -1.2,-9 1.6,-15.7 0.3,-0.8 0.7,-1.6 1.1,-2.4 0.2,-0.3 0.3,-0.6 0.5,-1 0.3,-0.5 0.5,-0.9 0.8,-1.4 0.2,-0.4 0.5,-0.7 0.7,-1.1 0.5,-0.8 1.1,-1.6 1.7,-2.4 1.5,-1.9 3.3,-3.9 5.4,-6 0,0 -18.3,-27.8 28.2,-49.3 0,0 5,-0.3 8.4,2.7 3.1,2.7 4.9,8.2 0.8,19.2 l -3.8,8.9 c 0,0 8,2.6 6.2,6.4 0.1,-0.1 1.2,-1 2.9,-2.2 5,-3.7 15.3,-10.8 20.5,-10.4 0,0 3.2,0.3 6,2.6 4.2,3.5 7.7,11.5 -0.9,29.8 0,0 2.8,0 5.7,1.8 0.4,0.3 0.8,0.5 1.2,0.9 0.1,0.1 0.2,0.2 0.4,0.3 0.6,0.5 1.2,1.1 1.7,1.9 v 0 c 0.5,0.7 1,1.4 1.4,2.3 v 0 c 0.8,1.7 1.4,3.8 1.6,6.5 -0.2,1.2 -0.1,2.4 -0.2,3.6 z"
     id="path196"
     inkscape:connector-curvature="0"
     style="fill:#ff0000" /><polygon
     class="st0"
     points="-138.1,581 -137.4,530.7 -142,528.2 -141.9,582.4 "
     id="polygon198"
     style="fill:#6666ff" /><path
     class="st0"
     d="m -127,606.4 c 1,-1.3 1.7,-2.9 2.6,-4.3 1.2,-2 2.9,-3.8 3.9,-6 2.4,-5 1.1,-10.9 0.8,-16.5 -0.1,-2.5 0,-5.1 -0.3,-7.6 -0.3,-2.5 -1.1,-5 -2.8,-6.9 -1.1,-1.2 -2.5,-2.1 -3.8,-3 -1.3,-0.8 -2.6,-1.7 -3.8,-2.5 -1.5,-1 -3.1,-2 -4.8,-2.5 -1.8,-0.5 -3.8,-0.3 -5.1,0.9 -1.1,0.9 -1.6,2.3 -2.4,3.5 -0.9,1.2 -2.1,2.2 -2.9,3.5 -0.9,1.4 -1.3,3.1 -1.6,4.7 -0.8,3.9 -1.7,7.9 -1.6,11.9 0.1,3.1 0.7,6.1 0.6,9.1 -0.2,2.8 -1,5.7 -0.1,8.3 0.7,1.9 2.2,3.3 3.6,4.8 1.2,1.2 2.3,2.5 3.4,3.9 0.9,1.1 1.7,2.9 2.9,3.7 1,0.7 2.4,0.1 3.5,-0.2 1.5,-0.4 2.9,-1 4.3,-1.7 1.2,-0.7 2.6,-1.8 3.6,-3.1 z"
     id="path200"
     inkscape:connector-curvature="0"
     style="fill:#6666ff" /><path
     class="st0"
     d="m -132.4,548.5 c 0.3,-0.6 0.7,-1.1 1.1,-1.6 2.8,-3.5 4.2,-7.5 6.1,-11.5 1.1,-2.3 2,-4.6 2.9,-6.9 0.8,-2.1 2.2,-4.4 1.6,-6.8 -0.4,-1.8 -2.2,-2.6 -3.9,-2.4 -1.1,0.1 -2.2,0.6 -3.2,1 -1.7,0.8 -3.5,1.6 -5.1,2.7 -1.9,1.3 -3.5,2.9 -5,4.5 -1.2,1.2 -2.4,2.5 -3.4,3.9 -2.1,2.8 -3.4,6.1 -4.2,9.5 -0.4,1.9 -0.7,3.8 -0.8,5.7 -0.1,1.2 -0.1,2.3 0.2,3.5 0.6,2.3 2.5,4 4.4,5.3 0.2,0.2 0.4,0.3 0.7,0.3 0.3,0 0.6,-0.1 0.9,-0.3 1.8,-1.1 3.7,-2.1 5.3,-3.5 1,-0.9 1.7,-2.2 2.4,-3.4 z"
     id="path202"
     inkscape:connector-curvature="0"
     style="fill:#6666ff" /><path
     class="st2"
     d="m -132,647.3 c 0,0 6.4,-8.7 13.4,-9.8 l 31.3,1.3 17.9,-4.8 11.1,-4.3 3.1,-3.2 c 0,0 9.6,-0.7 10.4,7.4 L -95.4,673 -133,653.2 Z"
     id="path204"
     inkscape:connector-curvature="0"
     style="fill:#33cc33" /></g>
</svg>