<svg xmlns="http://www.w3.org/2000/svg" xmlns:xlink="http://www.w3.org/1999/xlink" viewBox="37.72 38.3 64 64" width="64" height="64"><g transform="matrix(.460763 0 0 .460763 -20.15185 18.348956)"><use xlink:href="#B" fill="#577a82"/><use xlink:href="#C" fill="#65a08f"/><use xlink:href="#B" y="59.1" fill="#40aaa5"/><use xlink:href="#B" x="15" y="88.7" fill="#60c1af"/><use xlink:href="#C" x="14.9" y="88.7" fill="#a0d4a8"/></g><defs ><path id="B" d="M234.7 63.9h-79.4c-5.7 0-10.3-4.6-10.3-10.3s4.6-10.3 10.3-10.3h79.4c5.7 0 10.3 4.6 10.3 10.3s-4.6 10.3-10.3 10.3z"/><path id="C" d="M219.8 93.5h-79.4c-5.7 0-10.3-4.6-10.3-10.3s4.6-10.3 10.3-10.3h79.4c5.7 0 10.3 4.6 10.3 10.3 0 5.6-4.6 10.3-10.3 10.3z"/></defs></svg>