<?xml version="1.0" encoding="UTF-8" standalone="no"?>
<svg
   xmlns:dc="http://purl.org/dc/elements/1.1/"
   xmlns:cc="http://creativecommons.org/ns#"
   xmlns:rdf="http://www.w3.org/1999/02/22-rdf-syntax-ns#"
   xmlns:svg="http://www.w3.org/2000/svg"
   xmlns="http://www.w3.org/2000/svg"
   xmlns:sodipodi="http://sodipodi.sourceforge.net/DTD/sodipodi-0.dtd"
   xmlns:inkscape="http://www.inkscape.org/namespaces/inkscape"
   id="Layer_1"
   data-name="Layer 1"
   viewBox="0 0 120 60"
   version="1.1"
   sodipodi:docname="hyperledger-ar21.svg"
   width="120"
   height="60"
   inkscape:version="0.92.4 (5da689c313, 2019-01-14)">
  <metadata
     id="metadata73">
    <rdf:RDF>
      <cc:Work
         rdf:about="">
        <dc:format>image/svg+xml</dc:format>
        <dc:type
           rdf:resource="http://purl.org/dc/dcmitype/StillImage" />
        <dc:title>hyperledger</dc:title>
      </cc:Work>
    </rdf:RDF>
  </metadata>
  <sodipodi:namedview
     pagecolor="#ffffff"
     bordercolor="#666666"
     borderopacity="1"
     objecttolerance="10"
     gridtolerance="10"
     guidetolerance="10"
     inkscape:pageopacity="0"
     inkscape:pageshadow="2"
     inkscape:window-width="1920"
     inkscape:window-height="1001"
     id="namedview71"
     showgrid="false"
     inkscape:zoom="4.794184"
     inkscape:cx="57.732727"
     inkscape:cy="42.995743"
     inkscape:window-x="-9"
     inkscape:window-y="-9"
     inkscape:window-maximized="1"
     inkscape:current-layer="Layer_1" />
  <defs
     id="defs4">
    <style
       id="style2">.cls-1{fill:#2f3134;}</style>
  </defs>
  <title
     id="title6">hyperledger</title>
  <g
     id="g1015"
     transform="translate(2.5028325)">
    <g
       transform="matrix(1.2370895,0,0,1.2370895,-7.3765554,-7.1126904)"
       id="g967">
      <path
         class="cls-1"
         d="m 16.015136,39.163556 a 0.099402,0.099402 0 0 1 -0.08092,-0.04177 l -5.915983,-8.377917 a 0.09925171,0.09925171 0 0 1 -0.0091,-0.09876 l 4.284801,-9.321244 a 0.09883142,0.09883142 0 0 1 0.08091,-0.05726 l 10.200523,-0.943468 a 0.09443495,0.09443495 0 0 1 0.09004,0.0415 l 5.915998,8.377779 a 0.09925935,0.09925935 0 0 1 0.0091,0.09876 l -4.284663,9.321523 a 0.09938416,0.09938416 0 0 1 -0.08092,0.05726 l -10.200671,0.943328 c -0.003,2.54e-4 -0.0061,2.54e-4 -0.0091,2.54e-4 z m -5.802016,-8.487467 5.84988,8.284417 10.086699,-0.932816 4.236809,-9.217512 -5.84988,-8.284414 -10.086559,0.932818 z m 16.002687,7.445104 z"
         id="path8"
         inkscape:connector-curvature="0"
         style="fill:#2f3134;stroke-width:0.25472015" />
      <path
         class="cls-1"
         d="m 15.979587,39.142257 -1.63727,-8.524262 -0.008,-9.319033 7.976934,2.347946 8.27169,5.145844 -6.143391,5.460796 z m -1.545978,-17.710787 0.0069,9.177121 1.610158,8.378195 8.331168,-4.813193 6.036195,-5.367014 -8.153427,-5.071988 z"
         id="path10"
         inkscape:connector-curvature="0"
         style="fill:#2f3134;stroke-width:0.25472015" />
      <circle
         class="cls-1"
         cx="22.442188"
         cy="23.740612"
         r="0.29706484"
         id="circle12"
         style="fill:#2f3134;stroke-width:0.25472015" />
      <path
         class="cls-1"
         d="m 22.442212,24.353576 a 0.61295605,0.61295605 0 1 1 0.612347,-0.613025 0.61348077,0.61348077 0 0 1 -0.612347,0.613025 z m 0,-0.63073 -0.0184,0.0177 a 0.01818957,0.01818957 0 0 0 0.0184,0.01783 z"
         id="path14"
         inkscape:connector-curvature="0"
         style="fill:#2f3134;stroke-width:0.25472015" />
      <circle
         class="cls-1"
         cx="24.42532"
         cy="34.198711"
         r="0.29706484"
         id="circle16"
         style="fill:#2f3134;stroke-width:0.25472015" />
      <path
         class="cls-1"
         d="m 24.425282,34.811797 a 0.61302737,0.61302737 0 1 1 0.612472,-0.613014 0.61336615,0.61336615 0 0 1 -0.612472,0.613014 z m 0,-0.63073 -0.01826,0.0177 a 0.01803928,0.01803928 0 0 0 0.01826,0.0177 z"
         id="path18"
         inkscape:connector-curvature="0"
         style="fill:#2f3134;stroke-width:0.25472015" />
      <circle
         class="cls-1"
         cx="16.087811"
         cy="39.064545"
         r="0.29706484"
         id="circle20"
         style="fill:#2f3134;stroke-width:0.25472015" />
      <path
         class="cls-1"
         d="m 16.087751,39.677559 a 0.61302482,0.61302482 0 1 1 0.612472,-0.613025 0.61336615,0.61336615 0 0 1 -0.612472,0.613025 z m 0,-0.630731 -0.01825,0.0177 a 0.01803928,0.01803928 0 0 0 0.01825,0.0177 z"
         id="path22"
         inkscape:connector-curvature="0"
         style="fill:#2f3134;stroke-width:0.25472015" />
      <circle
         class="cls-1"
         cx="14.383887"
         cy="30.707779"
         r="0.29706484"
         id="circle24"
         style="fill:#2f3134;stroke-width:0.25472015" />
      <path
         class="cls-1"
         d="m 14.383951,31.320651 a 0.61288727,0.61288727 0 1 1 0.612335,-0.612747 0.61341964,0.61341964 0 0 1 -0.612335,0.612747 z m 0,-0.63073 -0.0184,0.01798 a 0.01825325,0.01825325 0 0 0 0.0184,0.0177 z"
         id="path26"
         inkscape:connector-curvature="0"
         style="fill:#2f3134;stroke-width:0.25472015" />
      <circle
         class="cls-1"
         cx="30.500488"
         cy="28.814528"
         r="0.29706484"
         id="circle28"
         style="fill:#2f3134;stroke-width:0.25472015" />
      <path
         class="cls-1"
         d="m 30.500483,29.427365 a 0.61288727,0.61288727 0 1 1 0.612472,-0.612748 0.61341964,0.61341964 0 0 1 -0.612472,0.612748 z m 0,-0.630728 -0.01826,0.01798 a 0.01803928,0.01803928 0 0 0 0.01826,0.0177 z"
         id="path30"
         inkscape:connector-curvature="0"
         style="fill:#2f3134;stroke-width:0.25472015" />
      <circle
         class="cls-1"
         cx="14.383887"
         cy="21.365255"
         r="0.29706484"
         id="circle32"
         style="fill:#2f3134;stroke-width:0.25472015" />
      <path
         class="cls-1"
         d="m 14.383951,21.978242 a 0.61295605,0.61295605 0 1 1 0.612335,-0.613025 0.61348077,0.61348077 0 0 1 -0.612335,0.613025 z m 0,-0.630731 -0.01841,0.01771 a 0.01818957,0.01818957 0 0 0 0.0184,0.01783 z"
         id="path34"
         inkscape:connector-curvature="0"
         style="fill:#2f3134;stroke-width:0.25472015" />
      <path
         class="cls-1"
         d="m 26.215807,38.220228 a 0.09762914,0.09762914 0 0 1 -0.03306,-0.0055 l -7.777625,-2.745616 -8.354538,-4.696174 a 0.09893076,0.09893076 0 0 1 -0.0184,-0.15934 l 6.285729,-5.759837 8.218857,-4.518847 a 0.09845189,0.09845189 0 0 1 0.08839,-0.0036 0.09959558,0.09959558 0 0 1 0.05602,0.06847 l 1.841426,8.095198 -0.207753,9.628453 a 0.09939945,0.09939945 0 0 1 -0.04274,0.07939 0.09840604,0.09840604 0 0 1 -0.05631,0.01742 z m -15.94889,-7.55299 8.219819,4.622032 7.632945,2.693052 0.207199,-9.467589 -1.809893,-7.942908 -8.084408,4.44181 z"
         id="path36"
         inkscape:connector-curvature="0"
         style="fill:#2f3134;stroke-width:0.25472015" />
      <path
         class="cls-1"
         d="m 24.457649,34.236117 -0.04053,-0.01383 -10.081857,-3.504978 0.0325,-0.02822 8.09077,-6.99543 z M 14.432641,30.698497 24.392915,34.161418 22.42591,23.78744 Z"
         id="path38"
         inkscape:connector-curvature="0"
         style="fill:#2f3134;stroke-width:0.25472015" />
      <path
         class="cls-1"
         d="M 18.373732,35.56148 16.25401,24.774753 26.619847,28.480985 Z m -1.858023,-10.482698 1.986937,10.110905 7.729346,-6.636777 z"
         id="path40"
         inkscape:connector-curvature="0"
         style="fill:#2f3134;stroke-width:0.25472015" />
      <rect
         class="cls-1"
         x="1.9765103"
         y="25.672207"
         width="0.1982971"
         height="4.0851278"
         transform="rotate(-29.32764)"
         id="rect42"
         style="fill:#2f3134;stroke-width:0.25472015" />
      <polygon
         class="cls-1"
         points="26.788,158.193 36.016,143.71 36.672,144.13 27.444,158.612 "
         id="polygon44"
         style="fill:#2f3134"
         transform="matrix(0.25472016,0,0,0.25472016,9.1807162,-1.2837356)" />
      <rect
         class="cls-1"
         x="-26.614811"
         y="28.433397"
         width="0.19811116"
         height="4.085434"
         transform="rotate(-85.821779)"
         id="rect46"
         style="fill:#2f3134;stroke-width:0.25472015" />
    </g>
    <g
       transform="translate(0,0.09790005)"
       id="g980">
      <path
         class="cls-1"
         d="m 35.137368,26.430279 1.640018,-0.009 0.0148,2.773179 3.185961,-0.01691 -0.0148,-2.773179 1.640018,-0.0085 0.03911,7.437956 -1.640018,0.0085 -0.01691,-3.2145 -3.185961,0.01691 0.01691,3.214499 -1.640018,0.009 z"
         id="path48"
         inkscape:connector-curvature="0"
         style="fill:#2f3134;stroke-width:0.25472015" />
      <path
         class="cls-1"
         d="m 44.864372,30.644224 -2.819689,-4.250413 2.039583,-0.01111 1.591922,2.775823 1.656932,-2.792737 1.944979,-0.01004 -2.773709,4.28 0.01638,3.172745 -1.640019,0.0085 z"
         id="path50"
         inkscape:connector-curvature="0"
         style="fill:#2f3134;stroke-width:0.25472015" />
      <path
         class="cls-1"
         d="m 49.71943,26.353114 2.765242,-0.01426 a 5.4243728,5.4243728 0 0 1 1.094051,0.09936 2.5052976,2.5052976 0 0 1 0.901139,0.357284 1.8406817,1.8406817 0 0 1 0.613091,0.690256 2.3774026,2.3774026 0 0 1 0.232022,1.096692 2.5388621,2.5388621 0 0 1 -0.204541,1.094051 1.8011696,1.8011696 0 0 1 -0.574508,0.70664 2.3377962,2.3377962 0 0 1 -0.871011,0.377368 5.1046353,5.1046353 0 0 1 -1.093004,0.116277 l -1.198698,0.0063 0.01534,2.899498 -1.640019,0.0085 z m 1.656931,3.14315 1.093514,-0.0058 a 2.1114289,2.1114289 0 0 0 0.425464,-0.04387 1.1376796,1.1376796 0 0 0 0.367327,-0.144286 0.75713275,0.75713275 0 0 0 0.261088,-0.274305 0.86514938,0.86514938 0 0 0 0.09778,-0.436563 0.73994678,0.73994678 0 0 0 -0.133728,-0.45612 0.87241655,0.87241655 0 0 0 -0.338256,-0.266376 1.4568083,1.4568083 0 0 0 -0.457704,-0.118391 4.6696777,4.6696777 0 0 0 -0.483604,-0.02326 l -0.841414,0.0042 z"
         id="path52"
         inkscape:connector-curvature="0"
         style="fill:#2f3134;stroke-width:0.25472015" />
      <path
         class="cls-1"
         d="m 56.301162,26.31876 5.056941,-0.02642 0.0079,1.512643 -3.416926,0.01796 0.0074,1.386854 3.227712,-0.01745 0.0079,1.512643 -3.227714,0.01745 0.0079,1.51317 3.606137,-0.01903 0.0079,1.512643 -5.246155,0.02748 z"
         id="path54"
         inkscape:connector-curvature="0"
         style="fill:#2f3134;stroke-width:0.25472015" />
      <path
         class="cls-1"
         d="m 62.756058,26.284936 2.880997,-0.01533 a 5.0624486,5.0624486 0 0 1 1.077668,0.104647 2.5772586,2.5772586 0 0 1 0.895851,0.362569 1.8406945,1.8406945 0 0 1 0.613088,0.690256 2.3528501,2.3528501 0 0 1 0.232025,1.086126 2.1860619,2.1860619 0 0 1 -0.403265,1.34193 1.8447165,1.8447165 0 0 1 -1.195,0.705053 l 1.909039,3.130992 -1.966119,0.01057 -1.570783,-2.965035 -0.809702,0.0042 0.01534,2.972961 -1.640019,0.009 z m 1.656402,3.069153 0.967733,-0.0048 c 0.14693,-10e-4 0.302845,-0.0069 0.467745,-0.01849 a 1.471689,1.471689 0 0 0 0.446076,-0.09672 0.77658318,0.77658318 0 0 0 0.329802,-0.248936 0.75600943,0.75600943 0 0 0 0.128432,-0.473031 0.78922494,0.78922494 0 0 0 -0.117861,-0.451364 0.76976432,0.76976432 0 0 0 -0.295448,-0.255807 1.3138109,1.3138109 0 0 0 -0.410665,-0.118919 3.3176384,3.3176384 0 0 0 -0.452418,-0.02853 l -1.072372,0.0053 z"
         id="path56"
         inkscape:connector-curvature="0"
         style="fill:#2f3134;stroke-width:0.25472015" />
      <path
         class="cls-1"
         d="m 69.526485,26.248995 1.640018,-0.0085 0.03118,5.925323 3.038501,-0.01584 0.0079,1.512646 -4.678519,0.0243 z"
         id="path58"
         inkscape:connector-curvature="0"
         style="fill:#2f3134;stroke-width:0.25472015" />
      <path
         class="cls-1"
         d="m 75.06703,26.219928 5.056944,-0.02642 0.0079,1.512643 -3.416926,0.01796 0.0074,1.386855 3.227712,-0.01691 0.0079,1.512643 -3.227712,0.01691 0.0079,1.513173 3.606137,-0.01903 0.0079,1.512645 -5.246158,0.02748 z"
         id="path60"
         inkscape:connector-curvature="0"
         style="fill:#2f3134;stroke-width:0.25472015" />
      <path
         class="cls-1"
         d="m 81.521927,26.186102 2.460291,-0.01322 a 7.0664059,7.0664059 0 0 1 1.699213,0.190276 3.8987621,3.8987621 0 0 1 1.406939,0.639515 3.1666454,3.1666454 0 0 1 0.957689,1.15536 3.8891489,3.8891489 0 0 1 0.360984,1.731982 3.5301896,3.5301896 0 0 1 -0.3335,1.593509 3.4176339,3.4176339 0 0 1 -0.913294,1.160116 4.0750972,4.0750972 0 0 1 -1.331358,0.716153 5.1836724,5.1836724 0 0 1 -1.586637,0.249993 l -2.681217,0.01426 z m 1.671201,5.916856 0.851985,-0.0048 a 4.5948486,4.5948486 0 0 0 1.055996,-0.121033 2.2597575,2.2597575 0 0 0 0.844056,-0.388466 1.8296982,1.8296982 0 0 0 0.558653,-0.706113 2.4959468,2.4959468 0 0 0 0.199784,-1.067623 2.0762444,2.0762444 0 0 0 -0.210353,-0.949763 1.8959,1.8959 0 0 0 -0.555483,-0.664358 2.4123349,2.4123349 0 0 0 -0.816572,-0.389523 3.6214508,3.6214508 0 0 0 -0.983589,-0.126319 l -0.967733,0.0053 z"
         id="path62"
         inkscape:connector-curvature="0"
         style="fill:#2f3134;stroke-width:0.25472015" />
      <path
         class="cls-1"
         d="m 96.172687,33.021537 a 5.9614706,5.9614706 0 0 1 -1.511059,0.554952 7.7194677,7.7194677 0 0 1 -1.607778,0.176521 4.6050297,4.6050297 0 0 1 -1.609893,-0.264792 3.6749853,3.6749853 0 0 1 -1.275863,-0.776405 3.5359921,3.5359921 0 0 1 -0.843001,-1.229353 4.5183561,4.5183561 0 0 1 -0.01691,-3.236169 3.5462854,3.5462854 0 0 1 0.829786,-1.238867 3.6731411,3.6731411 0 0 1 1.267936,-0.78909 4.5684519,4.5684519 0 0 1 1.606721,-0.281705 5.9680933,5.9680933 0 0 1 1.646361,0.206124 3.2262142,3.2262142 0 0 1 1.323959,0.734124 l -1.150074,1.266879 a 2.311048,2.311048 0 0 0 -0.760021,-0.521667 2.6948552,2.6948552 0 0 0 -1.052298,-0.172828 2.4330106,2.4330106 0 0 0 -0.950292,0.183399 2.146239,2.146239 0 0 0 -0.728309,0.502629 2.2025831,2.2025831 0 0 0 -0.463516,0.764779 2.8989574,2.8989574 0 0 0 0.01004,1.916966 2.2080646,2.2080646 0 0 0 0.471446,0.753679 2.1386305,2.1386305 0 0 0 0.733594,0.495759 2.4462,2.4462 0 0 0 0.952399,0.173355 3.1454119,3.1454119 0 0 0 0.924922,-0.125789 3.4286072,3.4286072 0 0 0 0.618373,-0.249992 l -0.0063,-1.208212 -1.33506,0.0069 -0.0079,-1.513173 2.91218,-0.01533 z"
         id="path64"
         inkscape:connector-curvature="0"
         style="fill:#2f3134;stroke-width:0.25472015" />
      <path
         class="cls-1"
         d="m 97.534698,26.102064 5.056942,-0.02695 0.008,1.512643 -3.416919,0.01796 0.0074,1.386854 3.227709,-0.01691 0.008,1.512642 -3.227707,0.01691 0.0079,1.513173 3.606137,-0.01903 0.008,1.512643 -5.246151,0.02802 z"
         id="path66"
         inkscape:connector-curvature="0"
         style="fill:#2f3134;stroke-width:0.25472015" />
      <path
         class="cls-1"
         d="m 103.9896,26.06771 2.88047,-0.0148 a 5.0366683,5.0366683 0 0 1 1.07819,0.104649 2.5772229,2.5772229 0 0 1 0.89585,0.362569 1.8327243,1.8327243 0 0 1 0.61309,0.690256 2.3512887,2.3512887 0 0 1 0.23203,1.086127 2.1860517,2.1860517 0 0 1 -0.40327,1.341929 1.8489882,1.8489882 0 0 1 -1.195,0.705065 L 110,33.474499 l -1.96612,0.01004 -1.57131,-2.964507 -0.8097,0.0042 0.0153,2.972961 -1.63949,0.0085 z m 1.65587,3.069684 0.96773,-0.0053 c 0.14694,-5.09e-4 0.30285,-0.0069 0.46775,-0.01796 a 1.4561282,1.4561282 0 0 0 0.44608,-0.09725 0.77122387,0.77122387 0 0 0 0.3298,-0.248408 0.75268279,0.75268279 0 0 0 0.12896,-0.473031 0.78923259,0.78923259 0 0 0 -0.11786,-0.451364 0.77512873,0.77512873 0 0 0 -0.29599,-0.255805 1.2999058,1.2999058 0 0 0 -0.41066,-0.118919 3.3196507,3.3196507 0 0 0 -0.45242,-0.02907 l -1.07237,0.0058 z"
         id="path68"
         inkscape:connector-curvature="0"
         style="fill:#2f3134;stroke-width:0.25472015" />
    </g>
  </g>
</svg>
