<svg xmlns="http://www.w3.org/2000/svg" height="64" width="64"><g transform="scale(.125)"><rect rx="15.000001%" height="512" width="512" fill="#2b6456"/><path d="M167.777 127.308c0-24.945 0-41.397-30.443-43.2-12.768-1.2-21.908-1.828-21.908-10.35 0-8.494 7.93-8.494 12.163-8.494 1.25 0 1.855.605 17.07 1.182 15.778.577 45.616 1.2 105.898 1.2h7.284l110.735-1.2c16.424-.577 17.03-1.182 17.675-1.182 9.703 0 10.35 2.996 10.35 10.913v64.487c0 1.87 0 11.6-6.72 11.6-6.68 0-10.954-9.126-12.163-12.163-14.6-33.48-24.354-53.547-113.787-53.547-20.7 0-31.1 1.223-31.1 29.838v80.897c0 32.876 1.855 33.48 9.744 34.7 9.14 1.223 28.024 1.223 37.164 1.223 49.286 0 55.966-14.02 65.75-45.012 1.2-4.865 3.587-9.786 9.703-9.786 6.075 0 7.284 4.288 7.284 10.4 0 8.494-1.814 49.904-1.814 59.003 0 5.498 0 15.847 1.2 29.8l2.46 28.63c0 4.233 0 11.517-7.326 11.517-6.034 0-9.14-5.47-9.745-9.744-1.2-2.982-5.443-20.052-6.68-23.117-8.494-32.862-47.513-32.862-62.7-32.862-45.053 0-45.053 0-45.053 28.588v103.48c0 23.722 0 41.96 28.065 43.816 17.634.646 26.17 1.2 26.17 10.4 0 8.453-7.972 8.453-12.85 8.453-20.698 0-52.873-2.42-73.572-2.42-20.094 0-52.392 2.42-72.445 2.42-4.865 0-12.8 0-12.8-9.1 0-8.535 9.14-9.1 21.908-9.744 30.443-2.46 30.443-18.238 30.443-43.24V127.308" fill="#fff"/></g></svg>