<?xml version="1.0" encoding="UTF-8" standalone="no"?>
<svg
   xmlns:dc="http://purl.org/dc/elements/1.1/"
   xmlns:cc="http://creativecommons.org/ns#"
   xmlns:rdf="http://www.w3.org/1999/02/22-rdf-syntax-ns#"
   xmlns:svg="http://www.w3.org/2000/svg"
   xmlns="http://www.w3.org/2000/svg"
   xmlns:sodipodi="http://sodipodi.sourceforge.net/DTD/sodipodi-0.dtd"
   xmlns:inkscape="http://www.inkscape.org/namespaces/inkscape"
   viewBox="0 0 120 60"
   version="1.1"
   id="svg6"
   sodipodi:docname="badoo-ar21.svg"
   width="120"
   height="60"
   inkscape:version="0.92.3 (2405546, 2018-03-11)">
  <metadata
     id="metadata12">
    <rdf:RDF>
      <cc:Work
         rdf:about="">
        <dc:format>image/svg+xml</dc:format>
        <dc:type
           rdf:resource="http://purl.org/dc/dcmitype/StillImage" />
        <dc:title></dc:title>
      </cc:Work>
    </rdf:RDF>
  </metadata>
  <defs
     id="defs10" />
  <sodipodi:namedview
     pagecolor="#ffffff"
     bordercolor="#666666"
     borderopacity="1"
     objecttolerance="10"
     gridtolerance="10"
     guidetolerance="10"
     inkscape:pageopacity="0"
     inkscape:pageshadow="2"
     inkscape:window-width="1920"
     inkscape:window-height="1001"
     id="namedview8"
     showgrid="false"
     inkscape:zoom="4.8428571"
     inkscape:cx="69.047168"
     inkscape:cy="-0.57809661"
     inkscape:window-x="-9"
     inkscape:window-y="-9"
     inkscape:window-maximized="1"
     inkscape:current-layer="svg6" />
  <g
     id="g836"
     transform="translate(7.5,-20.223782)">
    <path
       style="fill:#ff661b;stroke-width:0.75214899"
       inkscape:connector-curvature="0"
       id="path2"
       d="M 9.732808,45.048997 C 8.7249284,43.680086 7.122851,42.852722 5.4004298,42.852722 2.4219198,42.852722 0,45.297206 0,48.298281 0,53.232378 6.5136103,59.4 9.732808,59.4 c 3.211676,0 9.732808,-6.167622 9.732808,-11.101719 0,-3.008596 -2.42192,-5.445559 -5.40043,-5.445559 -1.729942,0 -3.324498,0.827364 -4.332378,2.196275 z" />
    <path
       inkscape:connector-curvature="0"
       style="fill:#7000e3;fill-opacity:1;stroke-width:0.75214899"
       id="path4"
       d="m 38.043696,53.864183 c -0.240687,0.549069 -0.55659,1.030445 -0.977793,1.451648 -0.398639,0.413682 -0.872493,0.752149 -1.429084,0.977794 -0.541547,0.248209 -1.128223,0.376074 -1.760028,0.376074 -0.631805,0 -1.226003,-0.127865 -1.76755,-0.376074 -0.556591,-0.225645 -1.037966,-0.564112 -1.429083,-0.977794 -0.413682,-0.406161 -0.729585,-0.887536 -0.977794,-1.444126 -0.225645,-0.549069 -0.345989,-1.143267 -0.345989,-1.76755 0,-0.616762 0.120344,-1.203439 0.35351,-1.760029 0.24821,-0.55659 0.564112,-1.037966 0.977794,-1.451647 0.391118,-0.406161 0.872493,-0.737107 1.429083,-0.977794 0.526504,-0.240688 1.128224,-0.361032 1.760029,-0.361032 0.631805,0 1.218481,0.120344 1.76755,0.361032 0.541547,0.240687 1.015401,0.571633 1.429083,0.977794 0.406161,0.428724 0.722063,0.902578 0.962751,1.459169 0.225644,0.549068 0.35351,1.128223 0.35351,1.752507 0,0.624283 -0.120344,1.203438 -0.35351,1.760028 z m 0.932665,-6.897206 c -1.429083,-1.41404 -3.121418,-2.128582 -5.09957,-2.128582 -1.729943,0 -3.234241,0.541548 -4.512894,1.609599 v -5.40043 h -2.685172 v 11.056591 c 0,2.008238 0.699498,3.723137 2.106017,5.144699 1.406519,1.41404 3.106375,2.128582 5.092049,2.128582 1.978152,0 3.670487,-0.714542 5.09957,-2.128582 1.406519,-1.406519 2.106017,-3.113897 2.106017,-5.144699 0,-1.000358 -0.172994,-1.933023 -0.526504,-2.782952 -0.35351,-0.872492 -0.880014,-1.654727 -1.579513,-2.354226 z m 47.107092,6.897206 c -0.240688,0.549069 -0.564112,1.030445 -0.977794,1.451648 -0.398639,0.413682 -0.880014,0.752149 -1.429083,0.977794 -0.541547,0.248209 -1.128224,0.376074 -1.760029,0.376074 -0.624283,0 -1.218481,-0.127865 -1.76755,-0.376074 -0.549069,-0.225645 -1.022923,-0.564112 -1.429083,-0.977794 -0.398639,-0.406161 -0.714542,-0.887536 -0.955229,-1.444126 -0.225645,-0.549069 -0.35351,-1.143267 -0.35351,-1.760029 0,-0.616762 0.127865,-1.203438 0.361031,-1.760028 0.240688,-0.556591 0.556591,-1.037966 0.962751,-1.444127 0.398639,-0.413681 0.872493,-0.737106 1.429083,-0.977793 0.541547,-0.248209 1.128224,-0.376075 1.76755,-0.376075 0.639327,0 1.226003,0.127866 1.775072,0.376075 0.541547,0.240687 1.022923,0.564112 1.429083,0.977793 0.40616,0.421204 0.729585,0.902579 0.977794,1.451648 0.225644,0.549069 0.345988,1.128224 0.345988,1.760029 0,0.624283 -0.120344,1.203438 -0.35351,1.760028 z m 0.932664,-6.897206 c -1.429083,-1.41404 -3.136461,-2.128582 -5.114613,-2.128582 -1.978152,0 -3.68553,0.714542 -5.084527,2.128582 -1.406519,1.429083 -2.106017,3.136461 -2.106017,5.144699 0,2.008238 0.699498,3.723138 2.106017,5.144699 1.406519,1.41404 3.106375,2.128582 5.092049,2.128582 1.978152,0 3.68553,-0.714542 5.114613,-2.128582 1.391476,-1.406518 2.106017,-3.113896 2.106017,-5.137177 -0.01504,-1.000358 -0.195559,-1.933023 -0.541547,-2.782952 -0.345989,-0.857449 -0.872493,-1.639684 -1.579513,-2.354226 z m 14.967763,6.897206 c -0.24069,0.549069 -0.56411,1.030445 -0.97779,1.451648 -0.39864,0.413682 -0.88002,0.752149 -1.429084,0.977794 -0.549069,0.248209 -1.128224,0.376074 -1.760029,0.376074 -0.639327,0 -1.226003,-0.127865 -1.775072,-0.376074 -0.549068,-0.225645 -1.022922,-0.564112 -1.429083,-0.977794 -0.40616,-0.406161 -0.722063,-0.887536 -0.955229,-1.444126 -0.240688,-0.549069 -0.35351,-1.143267 -0.35351,-1.76755 0,-0.616762 0.112822,-1.203439 0.35351,-1.760029 0.225645,-0.55659 0.549069,-1.037966 0.955229,-1.451647 0.406161,-0.406161 0.880015,-0.737107 1.429083,-0.977794 0.549069,-0.240688 1.128224,-0.361032 1.775072,-0.361032 0.624284,0 1.203438,0.120344 1.760029,0.361032 0.549064,0.240687 1.030444,0.571633 1.429084,0.977794 0.41368,0.428724 0.7371,0.902578 0.97779,1.459169 0.22565,0.549068 0.34599,1.128223 0.34599,1.752507 0,0.624283 -0.12034,1.203438 -0.35351,1.760028 z m 2.48962,-4.54298 c -0.34599,-0.857449 -0.8725,-1.639684 -1.57952,-2.354226 -1.41404,-1.41404 -3.113894,-2.128582 -5.084524,-2.128582 -1.993195,0 -3.68553,0.714542 -5.092049,2.128582 -1.41404,1.429083 -2.12106,3.136461 -2.12106,5.137178 0,2.008238 0.70702,3.723137 2.106017,5.144699 1.41404,1.41404 3.106375,2.128582 5.09957,2.128582 1.97063,0 3.670486,-0.714542 5.092046,-2.128582 C 104.3005,55.842335 105,54.134957 105,52.104155 c 0,-1.000358 -0.18052,-1.933023 -0.5265,-2.782952 z m -34.478514,4.54298 c -0.225645,0.549069 -0.556591,1.030445 -0.962751,1.451648 -0.406161,0.413682 -0.887536,0.752149 -1.429083,0.977794 -0.55659,0.248209 -1.143267,0.376074 -1.76755,0.376074 -0.631805,0 -1.226003,-0.127865 -1.775072,-0.376074 -0.55659,-0.225645 -1.030444,-0.564112 -1.429083,-0.977794 -0.40616,-0.406161 -0.729585,-0.887536 -0.962751,-1.444126 -0.225644,-0.549069 -0.35351,-1.143267 -0.35351,-1.76755 0,-0.616762 0.120344,-1.203439 0.35351,-1.760029 0.225645,-0.55659 0.556591,-1.037966 0.95523,-1.451647 0.398638,-0.406161 0.872492,-0.737107 1.429083,-0.977794 0.541547,-0.240688 1.128223,-0.361032 1.76755,-0.361032 0.624283,0 1.203438,0.120344 1.760028,0.361032 0.541548,0.240687 1.022923,0.571633 1.429083,0.977794 0.406161,0.428724 0.729585,0.902578 0.962751,1.459169 0.240688,0.549068 0.35351,1.128223 0.35351,1.752507 0,0.624283 -0.112822,1.203438 -0.35351,1.760028 z m 0.35351,-7.42371 c -1.301218,-1.068052 -2.805516,-1.602078 -4.512894,-1.602078 -1.985674,0 -3.68553,0.714542 -5.092049,2.128582 -1.406519,1.429083 -2.106017,3.136461 -2.106017,5.137178 0,2.008238 0.699498,3.723137 2.106017,5.144699 1.406519,1.41404 3.106375,2.128582 5.092049,2.128582 1.97063,0 3.670487,-0.714542 5.092048,-2.128582 1.406519,-1.406519 2.106018,-3.113897 2.106018,-5.144699 V 41.047564 H 70.348496 Z M 49.792264,56.669699 c -2.504657,0 -4.527937,-2.045845 -4.527937,-4.565544 0,-2.512178 2.030802,-4.558023 4.512894,-4.558023 2.497134,0 4.527937,2.045845 4.527937,4.558023 0,2.519699 -2.030803,4.565544 -4.512894,4.565544 z m 7.190544,-4.565544 c 0,-4.008954 -3.219198,-7.26576 -7.198066,-7.26576 -3.98639,0 -7.22063,3.256806 -7.22063,7.26576 0,4.016475 3.23424,7.273281 7.22063,7.273281 1.752507,0 3.362106,-0.639327 4.618195,-1.699857 v 1.707378 h 2.57235 v -7.070201 -0.20308 z" />
  </g>
</svg>
