<?xml version="1.0" encoding="UTF-8" standalone="no"?>
<svg
   xmlns:dc="http://purl.org/dc/elements/1.1/"
   xmlns:cc="http://creativecommons.org/ns#"
   xmlns:rdf="http://www.w3.org/1999/02/22-rdf-syntax-ns#"
   xmlns:svg="http://www.w3.org/2000/svg"
   xmlns="http://www.w3.org/2000/svg"
   xmlns:sodipodi="http://sodipodi.sourceforge.net/DTD/sodipodi-0.dtd"
   xmlns:inkscape="http://www.inkscape.org/namespaces/inkscape"
   viewBox="0 0 64 64"
   version="1.1"
   id="svg18"
   sodipodi:docname="cucumberio-icon.svg"
   width="64"
   height="64"
   inkscape:version="0.92.3 (2405546, 2018-03-11)">
  <metadata
     id="metadata24">
    <rdf:RDF>
      <cc:Work
         rdf:about="">
        <dc:format>image/svg+xml</dc:format>
        <dc:type
           rdf:resource="http://purl.org/dc/dcmitype/StillImage" />
        <dc:title>
        cucumber
    </dc:title>
      </cc:Work>
    </rdf:RDF>
  </metadata>
  <defs
     id="defs22" />
  <sodipodi:namedview
     pagecolor="#ffffff"
     bordercolor="#666666"
     borderopacity="1"
     objecttolerance="10"
     gridtolerance="10"
     guidetolerance="10"
     inkscape:pageopacity="0"
     inkscape:pageshadow="2"
     inkscape:window-width="1920"
     inkscape:window-height="1001"
     id="namedview20"
     showgrid="false"
     inkscape:zoom="3.2175731"
     inkscape:cx="136.01023"
     inkscape:cy="36.407645"
     inkscape:window-x="-9"
     inkscape:window-y="-9"
     inkscape:window-maximized="1"
     inkscape:current-layer="svg18" />
  <title
     id="title2">
        cucumber
    </title>
  <g
     id="g865"
     transform="matrix(3.7683836,0,0,3.7683836,-385.29875,-43.864585)">
    <path
       style="fill:#00a818;fill-rule:evenodd;stroke-width:0.45746541"
       inkscape:connector-curvature="0"
       id="path8-6"
       d="m 110.81497,11.640163 c -4.14006,0 -7.491,3.350477 -7.491,7.490996 0,3.645086 2.61305,6.673965 6.06142,7.347812 v 2.144597 c 4.48316,-0.676133 8.45305,-4.234757 8.74903,-8.906853 0.17841,-2.811583 -1.22372,-5.681721 -3.58836,-7.076075 a 6.2924369,6.2924369 0 0 0 -0.41447,-0.228733 c -0.1441,-0.07091 -0.29277,-0.139984 -0.44328,-0.199912 -0.0476,-0.02013 -0.0947,-0.03843 -0.14273,-0.05718 -0.13175,-0.04895 -0.26441,-0.103388 -0.40028,-0.143187 a 7.4319832,7.4319832 0 0 0 -2.33033,-0.371462 z" />
    <path
       style="fill:#ffffff;fill-rule:evenodd;stroke-width:0.45746541"
       inkscape:connector-curvature="0"
       id="path10-0"
       d="m 112.35892,14.413318 a 0.81749071,0.81749071 0 0 0 -0.71457,0.285916 c -0.13723,0.182986 -0.22324,0.360483 -0.31473,0.543469 -0.27448,0.640452 -0.18299,1.32665 0.22873,1.829862 0.64045,-0.13724 1.18392,-0.546214 1.4584,-1.186666 0.0915,-0.182986 0.14273,-0.417665 0.14273,-0.600652 0.0288,-0.485828 -0.37329,-0.828012 -0.80056,-0.871929 z m -3.33081,0.043 c -0.41767,0.0398 -0.81475,0.371462 -0.81475,0.828927 0,0.182987 0.0512,0.417666 0.14273,0.600652 0.27448,0.640452 0.8605,1.049426 1.50095,1.186666 0.36597,-0.503212 0.46066,-1.18941 0.18619,-1.829862 -0.0915,-0.182986 -0.1775,-0.363227 -0.31474,-0.500467 a 0.80376674,0.80376674 0 0 0 -0.70038,-0.285916 z m -2.24433,2.201324 c -0.72142,0.03705 -1.04393,0.943751 -0.44374,1.415398 0.18299,0.137239 0.36049,0.237424 0.54347,0.328917 0.64045,0.27448 1.38155,0.180242 1.93051,-0.185731 -0.13724,-0.594705 -0.60386,-1.140918 -1.24431,-1.415398 -0.22873,-0.09149 -0.41446,-0.143186 -0.6432,-0.143186 -0.0512,-0.0055 -0.0947,-0.0023 -0.14273,0 z m 7.04772,2.773613 a 2.0924468,2.0924468 0 0 0 -1.18667,0.343099 c 0.13724,0.594705 0.6034,1.140918 1.24385,1.415398 0.22873,0.09149 0.41446,0.142729 0.6432,0.142729 0.82343,0.04575 1.22646,-0.972114 0.58601,-1.42958 -0.18299,-0.137239 -0.36003,-0.222785 -0.54301,-0.314278 a 1.9762506,1.9762506 0 0 0 -0.74338,-0.157368 z m -6.24715,0.043 c -0.25161,0.0046 -0.50321,0.05398 -0.74338,0.156911 -0.22873,0.09149 -0.40623,0.192135 -0.54347,0.329375 -0.59471,0.503212 -0.19442,1.460687 0.62901,1.414941 0.22874,0 0.46021,-0.05169 0.6432,-0.143187 0.64045,-0.274479 1.09517,-0.820236 1.18667,-1.414941 a 2.0471578,2.0471578 0 0 0 -1.17203,-0.343099 z m 2.31569,1.400759 c -0.64045,0.13724 -1.18346,0.546214 -1.45794,1.186667 -0.0915,0.182987 -0.14319,0.403028 -0.14319,0.586014 -0.0458,0.777691 1.01512,1.195357 1.47258,0.600652 0.13724,-0.182986 0.22279,-0.360483 0.31428,-0.543469 0.27448,-0.594705 0.18024,-1.280905 -0.18573,-1.829864 z m 1.70131,0.043 c -0.36597,0.503212 -0.46021,1.189412 -0.18573,1.829864 0.0915,0.182986 0.17704,0.363227 0.31428,0.500467 0.50321,0.548958 1.56133,0.142729 1.51558,-0.543469 0,-0.182986 -0.0517,-0.417209 -0.14318,-0.600195 -0.27448,-0.640453 -0.8605,-1.049427 -1.50095,-1.186667 z" />
  </g>
</svg>
