<svg xmlns="http://www.w3.org/2000/svg" width="120" height="60"><path d="M52.992 32.918H58.6v3.238h-9.497V23.508h3.9zm8.148-9.4h3.9v12.648h-3.9zm14.46 6.76h.038v-6.77h3.683v12.648h-3.8l-3.87-6.905h-.038v6.905H67.94V23.508h3.987zm18.13.993c0 3.526-1.86 5.2-5.76 5.2s-5.776-1.665-5.776-5.2V23.51h3.9v6.89c0 1.275 0 2.907 1.898 2.907s1.844-1.627 1.844-2.907v-6.894h3.9v7.762zm6.613-7.763l1.9 3.44 1.882-3.44h4.323l-4.057 5.955 4.513 6.693h-4.692l-2.164-3.77-2.23 3.77h-4.464l4.567-6.73-4.16-5.917z" fill="#003764"/><path d="M11.087 26.767v19.428H30.52V39.72H17.574V26.767z" fill="#009bde"/><path d="M17.564 20.308h19.434V39.72h-3.233v6.476h9.71v-32.39h-32.38v9.714h6.47z" fill="#003764"/></svg>