<svg xmlns="http://www.w3.org/2000/svg" width="64" height="64"><path d="M37.518.646V.54h2.508v.105h-2.508z" fill="#d3ebf2"/><g fill="#64b8d3"><path d="M29.062 1.262c-1.292.466-2.508.976-3.68 1.592-2.088 1.112-3.935 2.523-5.498 4.296-1.968 2.253-3.244 4.867-3.86 7.78-.24 1.127-.406 2.253-.42 3.4l-.06 1.247.165 2.66c.06.96.255 1.893.42 2.84.345 1.983.96 3.9 1.697 5.753 1.02 2.57 2.238 5.032 3.485 7.495.135.255.225.54.315.826.195.63-.12 1.187-.646 1.502-.48.285-1 .3-1.517.15-.646-.195-1.187-.57-1.712-1-.9-.72-1.592-1.607-2.253-2.54-1.082-1.547-1.908-3.244-2.584-5.002-.916-2.343-1.562-4.762-2.013-7.24l-.496-3c-.12-.946-.15-1.908-.135-2.87.06-2.614.57-5.107 1.592-7.5 1.066-2.508 2.614-4.686 4.64-6.504 1.547-1.382 3.3-2.463 5.257-3.184 1.02-.376 2.058-.66 3.14-.796s2.193-.225 3.3-.045c.285.06.57.075.87.12zM17.1 56.72l.5.1c1.232.4 2.493.66 3.77.826 1.202.165 2.403.195 3.605.105 2.133-.15 4.2-.63 6.144-1.532 1.757-.8 3.335-1.893 4.747-3.214 1.712-1.592 3.094-3.44 4.266-5.468.93-1.622 1.757-3.305 2.388-5.062.616-1.682 1.05-3.425 1.412-5.182l.796-4.04.345-2.163c.045-.27.105-.556.24-.796.406-.706.826-.84 1.682-.676.42.1.75.345 1.006.706.4.54.63 1.172.796 1.818.315 1.262.42 2.554.33 3.845-.18 2.7-.796 5.302-1.697 7.84l-1.682 4.116-1.787 3.44c-1.757 2.884-4.056 5.242-6.94 7-1.863 1.127-3.9 1.893-6.023 2.313-.676.135-1.382.18-2.073.255l-1.412.075c-3.3-.075-6.324-.96-8.997-2.944-.5-.406-1.05-.796-1.427-1.352zm41.928-37.883l-.406-.526c-1.727-2.313-3.83-4.2-6.354-5.588a17.02 17.02 0 0 0-4.116-1.622c-.766-.195-1.532-.315-2.313-.406-1.066-.135-2.133-.135-3.184-.06a21.26 21.26 0 0 0-5.888 1.307c-1.112.42-2.208.886-3.26 1.427-1.968 1.02-3.86 2.178-5.558 3.605l-3.65 3.23-2.93 2.854c-.255.24-.5.466-.856.586-.436.15-.856.12-1.232-.165-.45-.345-.706-.796-.736-1.382-.03-.766.15-1.487.45-2.178.6-1.397 1.442-2.63 2.448-3.755l1.172-1.262c1.097-1.097 2.298-2.088 3.56-3.004 2.238-1.622 4.6-3.004 7.105-4.206 1.697-.8 3.47-1.352 5.302-1.712 1.652-.315 3.335-.4 5.002-.27a17.92 17.92 0 0 1 6.294 1.592c1.232.556 2.388 1.232 3.455 2.058 2.6 2.028 4.476 4.566 5.407 7.766.165.54.255 1.112.4 1.667-.03.015-.06.03-.105.045zM51.983 52.74l.376-.616c.826-1.157 1.487-2.388 2.058-3.695a18.14 18.14 0 0 0 1.157-3.62l.285-1.908.105-1.772c.015-1.953-.345-3.845-1-5.678-.7-1.968-1.712-3.77-2.944-5.453-1.112-1.517-2.388-2.87-3.755-4.146-1.457-1.367-3.05-2.54-4.747-3.6l-5.693-3.214-1.622-.84c-.2-.12-.42-.255-.6-.42-.496-.48-.57-1.127-.225-1.712.24-.42.57-.7 1.02-.84a4.47 4.47 0 0 1 1.172-.21c1.487-.06 2.9.285 4.296.78 1.547.556 3.004 1.307 4.4 2.178 1.818 1.127 3.515 2.403 5.092 3.83l2.78 2.614c2.163 2.178 3.815 4.702 4.867 7.6a19.88 19.88 0 0 1 .991 3.935c.195 1.352.2 2.72.105 4.07a16.7 16.7 0 0 1-1.667 6.113c-.586 1.217-1.337 2.328-2.208 3.35-1.112 1.292-2.403 2.328-3.9 3.14-.1.045-.225.06-.36.105zM2.94 24.44v.766c0 1.682.255 3.335.676 4.957.345 1.337.84 2.614 1.472 3.845.78 1.532 1.787 2.914 3 4.146 1.667 1.697 3.62 3 5.798 3.95 1.848.8 3.77 1.352 5.738 1.712.886.165 1.787.225 2.7.36 1.127.165 2.253.225 3.395.18l2.554-.165 1.352-.12c1.412-.105 2.8-.3 4.2-.526l2.013-.315c.4-.045.796-.075 1.187.06.5.18.766.556.84 1.08.135.946-.36 1.592-1.02 2.163-.84.706-1.802 1.187-2.824 1.562-1.292.48-2.63.78-3.996 1-1.818.285-3.635.315-5.468.3l-3.23-.195-2.96-.345c-1.848-.27-3.65-.736-5.377-1.457-1.953-.8-3.74-1.878-5.347-3.244-2.54-2.178-4.4-4.837-5.483-8.02-.42-1.262-.72-2.54-.78-3.875l-.075-1.667c.075-2.028.5-3.965 1.397-5.798l.18-.345c.03-.015.06-.015.1 0zM.192 33.106l.33 1.682c.225 1.157.63 2.253 1.08 3.32.72 1.697 1.697 3.244 2.884 4.64a19 19 0 0 0 3.214 2.99c1.863 1.367 3.905 2.358 6.083 3.094 1.442.48 2.9.84 4.4 1.08l3.47.42c1.712.135 3.4.105 5.122.075 1-.015 1.983-.12 2.974-.195l1.818-.195c1-.06 1.637.616 1.757 1.442.045.3-.075.586-.24.84-.4.616-.976 1-1.592 1.337-.84.466-1.757.75-2.704.96-1.066.24-2.148.376-3.26.45l-2.66.06-2.704-.18-2.178-.225c-3.575-.406-6.834-1.622-9.703-3.815-2.884-2.193-5.032-4.987-6.52-8.3a20.74 20.74 0 0 1-1.532-4.972c-.195-1.172-.285-2.358-.2-3.545.015-.33.075-.646.12-.96.015 0 .03-.015.045-.015zM24.5 61.93l1.427.165c.195.015.376.06.57.06H28.9c1.247-.03 2.463-.255 3.65-.57 2.674-.7 5.062-1.953 7.195-3.695 1.998-1.652 3.65-3.6 5.002-5.798l1.562-2.78c.826-1.652 1.517-3.365 2.103-5.122.706-2.118 1.262-4.266 1.727-6.46.045-.24.075-.48.165-.706.315-.856 1.217-1.097 1.893-.93.4.1.63.42.84.75.315.5.48 1.08.586 1.667.15.8.18 1.637.105 2.448a22.8 22.8 0 0 1-.631 3.755 34.16 34.16 0 0 1-2.028 5.648l-1.292 2.7c-.75 1.442-1.697 2.75-2.824 3.95-1.202 1.277-2.523 2.388-4.026 3.305-1.983 1.217-4.1 2.058-6.37 2.584a23.1 23.1 0 0 1-2.674.451c-1.277.15-2.554.135-3.815.06-1.712-.105-3.38-.45-4.972-1.112-.18-.1-.4-.135-.6-.36zm34.83-14.644c.03-.135.045-.27.105-.4.856-1.637 1.397-3.38 1.742-5.182.225-1.202.27-2.418.255-3.65-.015-2.328-.5-4.566-1.382-6.714-.856-2.118-2.028-4.056-3.455-5.828-.96-1.202-1.998-2.343-3.124-3.38-1.427-1.337-2.96-2.554-4.55-3.695l-4.356-2.794-.736-.4c-.7-.42-.946-1.08-.78-1.878.12-.586.556-.826 1.05-.96.526-.15 1.05-.15 1.607-.1 1.878.225 3.545 1.02 5.152 1.938 1.652.946 3.17 2.103 4.626 3.335l2.914 2.704c2.208 2.223 3.755 4.837 4.686 7.826.376 1.202.63 2.418.75 3.68L64 34.113c0 .8-.105 1.637-.15 2.448-.06.9-.225 1.787-.436 2.674-.556 2.343-1.442 4.55-2.8 6.55-.27.406-.586.78-.886 1.157-.12.12-.27.225-.4.345z"/><path d="M20.02 1.397l-.48.255c-1.352.66-2.584 1.517-3.725 2.493A18.32 18.32 0 0 0 11.4 9.733c-.83 1.607-1.4 3.307-1.76 5.063-.436 2.103-.5 4.22-.4 6.354.06 1.232.24 2.448.466 3.68.406 2.283 1.036 4.506 1.802 6.7.57 1.622 1.217 3.23 1.968 4.792.466.96.15 1.637-.586 2.193-.315.24-.7.2-1.05.105-.616-.18-1.127-.54-1.592-.976-.796-.72-1.412-1.592-1.953-2.508-1.232-2.088-2.013-4.356-2.63-6.7-.436-1.652-.766-3.32-1.02-5.002-.075-.5-.105-1.036-.135-1.562l-.015-1.05c-.045-1.742.225-3.44.7-5.107.736-2.63 1.998-5.002 3.695-7.15a21.05 21.05 0 0 1 2.493-2.674c2.043-1.848 4.3-3.305 6.955-4.146.466-.15.946-.24 1.412-.36.06 0 .135.015.27.015zm17.498-.75h2.523c1.577.135 3.14.4 4.656.856 2.208.676 4.28 1.667 6.174 3 .93.646 1.802 1.367 2.63 2.148.856.84 1.637 1.757 2.268 2.794.105.165.165.345.24.5-.015.015-.03.03-.045.06l-1.742-1.502a17.99 17.99 0 0 0-4.161-2.493c-1.217-.526-2.478-.93-3.785-1.187l-2.178-.3L43 4.447c-2.644-.03-5.197.436-7.7 1.292-2.133.736-4.16 1.712-6.098 2.87-1.983 1.187-3.845 2.523-5.633 3.98l-2.674 2.343c-.7.63-1.487.616-2.193.075-.436-.33-.526-.8-.45-1.322s.2-1.02.436-1.502c.466-1 1.097-1.863 1.833-2.66 1.592-1.757 3.455-3.2 5.438-4.476l4.13-2.373c1.517-.766 3.1-1.337 4.777-1.667.87-.18 1.772-.255 2.644-.36zM17.1 56.72c-.03-.015-.045-.03-.075-.045.03.015.045.03.075.045zm34.883-3.98c-.015.03-.03.045-.03.075.015-.03.03-.06.03-.075z"/><path d="M59.33 47.286c-.015.03-.03.045-.045.075.015-.03.03-.045.045-.075zM56 9.944c.015.03.03.075.045.105l-.1-.045c0-.03.015-.045.045-.06z"/></g></svg>