<svg xmlns="http://www.w3.org/2000/svg" xmlns:xlink="http://www.w3.org/1999/xlink" viewBox="-400 -525 798 1050" width="608" height="800"><defs><clipPath id="A"><circle r="298"/></clipPath></defs><circle r="100" fill="#970000"/><g fill="#006499" stroke="#006499"><g clip-path="url(#A)"><g id="B"><path stroke-width="22" d="M0 300V180"/><path stroke="none" d="M-43 185l43-75 43 75z"/></g><g id="C"><use xlink:href="#B" transform="rotate(45)"/><use xlink:href="#B" transform="rotate(90)"/><use xlink:href="#B" transform="rotate(135)"/></g><use xlink:href="#C" transform="scale(-1 1)"/></g><path transform="rotate(315)" stroke-width="84" fill="none" d="M 0,-256 A 256 256 0 1 0 256,0 C 256,-100 155,-150 250,-275"/><path stroke="none" d="M-23-515s-36 135-80 185 116-62 170-5-90-180-90-180z"/></g><defs><path id="D" d="M0 720L320 0h144l195 438.75L854 0h144l320 720h-197L926 281.25 731 720H587L392 281.25 197 720z"/><path id="E" d="M0 0h180v720H0z"/><path id="F" d="M0 0h180v720H0zm90 360L450 0h255L345 360l360 360H450z"/><path id="G" d="M0 0h180v466l220-220 220 220V0h180v720H620L400 500 180 720H0z"/><path id="H" d="M0 0h520v150H180v150h340v150H180v120h340v150H0z"/><path id="I" d="M0 0h360a360 360 0 0 1 0 720H0zm180 150v420h120a210 210 0 0 0 0-420z"/><path id="J" d="M0 0h196l194 453L584 0h196L480 720H300zm180 120h450v120H180z"/><path id="K" d="M684 504a276 204 0 1 1 0-288V60a432 360 0 1 0 0 600z"/><path id="L" d="M0 360a408 360 0 0 0 816 0 408 360 0 0 0-816 0m204 0a204 204 0 0 1 408 0 204 204 0 0 1-408 0"/><path id="M" d="M0 0h180v434L504 0h180v720H504V286L180 720H0z"/><path id="N" d="M15 83C93 14 186 0 265 0c160 0 280 156 220 292S190 445 190 525s180 85 300-20v150c-55 35-120 65-230 65S-35 615 30 460s300-160 300-240-180-100-315 25z"/></defs><g fill="#666"><g transform="matrix(.111111 0 0 -.111111 -370.555555 415)"><use xlink:href="#D"/><use xlink:href="#E" x="1440"/><use xlink:href="#F" x="1860"/><use xlink:href="#E" x="2680"/><use xlink:href="#G" x="3100"/><use xlink:href="#H" x="4080"/><use xlink:href="#I" x="4780"/><use xlink:href="#E" x="5610"/><use xlink:href="#J" x="5890"/></g><g transform="matrix(.111111 0 0 -.111111 -325.555555 515)"><use xlink:href="#K"/><use xlink:href="#L" x="768"/><use xlink:href="#G" x="1686"/><use xlink:href="#G" x="2666"/><use xlink:href="#L" x="3574"/><use xlink:href="#M" x="4492"/><use xlink:href="#N" x="5357"/></g></g></svg>