<?xml version="1.0" encoding="UTF-8" standalone="no"?>
<svg
   width="120"
   height="60"
   version="1.1"
   id="svg129"
   sodipodi:docname="vectorlogozone_lotd-ar21.svg"
   inkscape:version="1.3.2 (091e20e, 2023-11-25)"
   xmlns:inkscape="http://www.inkscape.org/namespaces/inkscape"
   xmlns:sodipodi="http://sodipodi.sourceforge.net/DTD/sodipodi-0.dtd"
   xmlns:xlink="http://www.w3.org/1999/xlink"
   xmlns="http://www.w3.org/2000/svg"
   xmlns:svg="http://www.w3.org/2000/svg">
  <defs
     id="defs129" />
  <sodipodi:namedview
     id="namedview129"
     pagecolor="#ffffff"
     bordercolor="#000000"
     borderopacity="0.25"
     inkscape:showpageshadow="2"
     inkscape:pageopacity="0.0"
     inkscape:pagecheckerboard="0"
     inkscape:deskcolor="#d1d1d1"
     inkscape:zoom="4"
     inkscape:cx="65.25"
     inkscape:cy="33.375"
     inkscape:window-width="1856"
     inkscape:window-height="942"
     inkscape:window-x="1749"
     inkscape:window-y="25"
     inkscape:window-maximized="0"
     inkscape:current-layer="svg129" />
  <g
     id="图层_1"
     transform="matrix(0.3321975,0,0,0.33219832,5.4134039,8.0711417)">
    <path
       d="m 110.85,124.18 h -93.7 c -5.52,0 -10,-4.48 -10,-10 V 34.82 c 0,-5.76 4.67,-10.43 10.43,-10.43 h 92.84 c 5.76,0 10.43,4.67 10.43,10.43 v 79.36 c 0,5.52 -4.47,10 -10,10 z"
       style="fill:#bdbdbd"
       id="path1" />
    <path
       d="M 111.14,118.38 H 16.86 c -5.37,0 -9.72,-4.35 -9.72,-9.72 v 3.4 c 0,5.37 4.35,9.72 9.72,9.72 h 94.27 c 5.37,0 9.72,-4.35 9.72,-9.72 v -3.4 c 0,5.37 -4.35,9.72 -9.71,9.72 z"
       style="fill:#949494"
       id="path2" />
    <path
       d="M 111.14,112.06 H 16.86 c -5.37,0 -9.72,-4.35 -9.72,-9.72 v 3.4 c 0,5.37 4.35,9.72 9.72,9.72 h 94.27 c 5.37,0 9.72,-4.35 9.72,-9.72 v -3.4 c 0,5.37 -4.35,9.72 -9.71,9.72 z"
       style="fill:#949494"
       id="path3" />
    <path
       d="m 110.85,109.21 h -93.7 c -5.52,0 -10,-4.48 -10,-10 v -70.1 c 0,-5.76 4.67,-10.43 10.43,-10.43 h 92.84 c 5.76,0 10.43,4.67 10.43,10.43 v 70.1 c 0,5.52 -4.47,10 -10,10 z"
       style="fill:#e0e0e0"
       id="path4" />
    <linearGradient
       id="SVGID_1_"
       gradientUnits="userSpaceOnUse"
       x1="64.041397"
       x2="64.041397"
       y1="49.079498"
       y2="108.9335">
      <stop
         offset="0"
         style="stop-color:#FFFFFF"
         id="stop4" />
      <stop
         offset="1"
         style="stop-color:#C8C9CA"
         id="stop5" />
    </linearGradient>
    <path
       d="M 104.91,108.74 H 23.17 c -7.58,0 -13,0.26 -13,-11.32 V 32.48 c 0,-7.18 5.82,-13 13,-13 h 81.74 c 7.18,0 13,5.82 13,13 v 63.26 c 0,12.34 -5.82,13 -13,13 z"
       style="fill:url(#SVGID_1_)"
       id="path5" />
    <path
       d="M 120.85,48.41 H 7.15 V 13.68 c 0,-4.42 3.58,-8 8,-8 h 97.71 c 4.42,0 8,3.58 8,8 v 34.73 z"
       style="fill:#1e88e5"
       id="path6" />
    <linearGradient
       id="SVGID_3_"
       gradientUnits="userSpaceOnUse"
       x1="98.129898"
       x2="108.673"
       y1="92.026001"
       y2="104.9652">
      <stop
         offset="0"
         style="stop-color:#C8C9CA"
         id="stop6" />
      <stop
         offset="0.1825"
         style="stop-color:#C0C0C1"
         id="stop7" />
      <stop
         offset="0.4747"
         style="stop-color:#A9A9AA"
         id="stop8" />
      <stop
         offset="0.8383"
         style="stop-color:#848384"
         id="stop9" />
      <stop
         offset="0.9998"
         style="stop-color:#717071"
         id="stop10" />
    </linearGradient>
    <path
       d="m 113.1,103.24 c 7.95,-8.97 7.75,-14.1 7.75,-14.1 0,0 -2.3,3.1 -9.51,3.8 -4.48,0.44 -12.4,-2.82 -12.4,-2.82 0,0 0.98,4.81 -1.41,11.96 -1.94,5.81 -8.09,10.03 -8.09,10.03 0,0 14.77,1.16 23.66,-8.87 z"
       style="fill:url(#SVGID_3_)"
       id="path10" />
    <circle
       cx="26.200001"
       cy="14.46"
       r="6.8000002"
       style="fill:#01579b"
       id="circle10" />
    <circle
       cx="101.52"
       cy="14.46"
       r="6.8000002"
       style="fill:#01579b"
       id="circle11" />
    <g
       id="g12">
      <path
         d="m 19.74,3.83 v 8.03 c 0,3.65 2.96,6.6 6.6,6.6 3.64,0 6.6,-2.96 6.6,-6.6 V 3.83 Z"
         style="fill:#bdbdbd"
         id="path11" />
      <path
         d="m 95.06,3.83 v 8.03 c 0,3.65 2.96,6.6 6.6,6.6 3.64,0 6.6,-2.96 6.6,-6.6 V 3.83 Z"
         style="fill:#bdbdbd"
         id="path12" />
    </g>
    <g
       style="opacity:0.2"
       id="g13">
      <path
         d="m 105.49,6.77 c 0.45,1.09 1.52,1.85 2.77,1.85 h 4.14 c 3,0 5.45,2.44 5.45,5.45 v 14.69 0.87 5.71 13 36.56 1.1 12.6 1.94 1.75 3.4 2.92 3.4 1.55 c 0,4.17 -3.39,7.56 -7.56,7.56 H 17.7 c -4.17,0 -7.56,-3.39 -7.56,-7.56 v -1.55 -3.4 -2.92 -3.4 -2.85 -0.84 -50.25 -13 -5.71 -0.87 -14.7 c 0,-3 2.44,-5.45 5.45,-5.45 h 4.15 c 1.25,0 2.32,-0.77 2.77,-1.85 h 7.66 c 0.45,1.09 1.52,1.85 2.77,1.85 h 62.11 c 1.25,0 2.32,-0.77 2.77,-1.85 h 7.67 m 2.77,-3 H 95.06 V 5.62 H 32.94 V 3.77 h -13.2 v 1.85 h -4.15 c -4.66,0 -8.45,3.78 -8.45,8.45 v 14.69 0.87 5.71 13 50.26 0.84 2.85 3.4 2.92 3.4 1.55 c 0,5.83 4.73,10.56 10.56,10.56 h 92.59 c 5.83,0 10.56,-4.73 10.56,-10.56 v -1.55 -3.4 -2.92 -3.4 -1.75 -1.94 -12.59 -1.1 -36.56 -13 -5.71 -0.87 -14.7 c 0,-4.66 -3.78,-8.45 -8.45,-8.45 h -4.14 z"
         style="fill:#424242"
         id="path13" />
    </g>
    <g
       id="g17">
      <path
         d="m 47.3,17 h 4.07 v 13.66 c 0,1.26 -0.28,2.37 -0.83,3.33 -0.55,0.96 -1.34,1.71 -2.35,2.23 C 47.17,36.74 46.03,37 44.75,37 42.66,37 41.04,36.47 39.87,35.41 38.7,34.35 38.12,32.85 38.12,30.9 h 4.09 c 0,0.97 0.2,1.68 0.61,2.14 0.41,0.46 1.05,0.69 1.92,0.69 0.78,0 1.4,-0.27 1.86,-0.8 0.46,-0.53 0.69,-1.29 0.69,-2.28 V 17 Z"
         style="fill:#ffffff"
         id="path14" />
      <path
         d="M 63.38,35.24 C 62.41,36.41 61.08,37 59.37,37 57.8,37 56.6,36.55 55.77,35.64 54.94,34.74 54.52,33.41 54.5,31.67 v -9.61 h 3.92 v 9.49 c 0,1.53 0.7,2.29 2.09,2.29 1.33,0 2.24,-0.46 2.74,-1.38 V 22.07 h 3.93 v 14.67 h -3.69 z"
         style="fill:#ffffff"
         id="path15" />
      <path
         d="M 74.26,36.73 H 70.33 V 15.91 h 3.93 z"
         style="fill:#ffffff"
         id="path16" />
      <path
         d="m 82.96,31.19 2.71,-9.12 h 4.2 l -5.9,16.94 -0.33,0.77 c -0.88,1.92 -2.32,2.87 -4.34,2.87 -0.57,0 -1.15,-0.09 -1.73,-0.26 v -2.97 l 0.6,0.01 c 0.74,0 1.29,-0.11 1.66,-0.34 0.37,-0.23 0.65,-0.6 0.86,-1.12 l 0.46,-1.21 -5.14,-14.71 h 4.22 z"
         style="fill:#ffffff"
         id="path17" />
    </g>
    <g
       id="g19">
      <path
         d="M 52.21,102.13 H 44 V 70.41 l -9.81,3.03 v -6.63 l 17.15,-6.14 h 0.88 v 41.46 z"
         style="fill:#2f2f2f"
         id="path18" />
      <path
         d="M 93.81,65.32 77.8,102.13 H 69.13 L 85.17,67.35 H 64.58 v -6.63 h 29.23 z"
         style="fill:#2f2f2f"
         id="path19" />
    </g>
  </g>
  <g
     id="Layer_2"
     style="display:none">
    <g
       style="display:inline"
       id="g129">
      <g
         style="opacity:0.6"
         id="g29">
        <circle
           cx="64"
           cy="64"
           r="28"
           style="opacity:0.61;fill:none;stroke:#000000;stroke-width:0.2625;stroke-miterlimit:10"
           id="circle19" />
        <line
           style="opacity:0.61;fill:none;stroke:#000000;stroke-width:0.25;stroke-miterlimit:10"
           x1="84"
           x2="84"
           y1="0"
           y2="128"
           id="line19" />
        <line
           style="opacity:0.61;fill:none;stroke:#000000;stroke-width:0.25;stroke-miterlimit:10"
           x1="44"
           x2="44"
           y1="0"
           y2="128"
           id="line20" />
        <line
           style="opacity:0.61;fill:none;stroke:#000000;stroke-width:0.25;stroke-miterlimit:10"
           x1="64"
           x2="64"
           y1="0"
           y2="128"
           id="line21" />
        <line
           style="opacity:0.61;fill:none;stroke:#000000;stroke-width:0.25;stroke-miterlimit:10"
           x1="128"
           x2="0"
           y1="64"
           y2="64"
           id="line22" />
        <line
           style="opacity:0.61;fill:none;stroke:#000000;stroke-width:0.25;stroke-miterlimit:10"
           x1="128"
           x2="0"
           y1="44"
           y2="44"
           id="line23" />
        <line
           style="opacity:0.61;fill:none;stroke:#000000;stroke-width:0.25;stroke-miterlimit:10"
           x1="128"
           x2="0"
           y1="83.75"
           y2="83.75"
           id="line24" />
        <line
           style="opacity:0.61;fill:none;stroke:#000000;stroke-width:0.25;stroke-miterlimit:10"
           x1="128"
           x2="0"
           y1="128"
           y2="0"
           id="line25" />
        <line
           style="opacity:0.61;fill:none;stroke:#000000;stroke-width:0.25;stroke-miterlimit:10"
           x1="0"
           x2="128"
           y1="128"
           y2="0"
           id="line26" />
        <g
           style="opacity:0.61"
           id="g26">
          <path
             d="m 64,4.26 c 32.94,0 59.74,26.8 59.74,59.74 0,32.94 -26.8,59.74 -59.74,59.74 C 31.06,123.74 4.26,96.94 4.26,64 4.26,31.06 31.06,4.26 64,4.26 M 64,4 C 30.86,4 4,30.86 4,64 4,97.14 30.86,124 64,124 97.14,124 124,97.14 124,64 124,30.86 97.14,4 64,4 Z"
             id="path26" />
        </g>
        <path
           d="M 107.97,115.97 H 20.03 c -4.42,0 -8.03,-3.61 -8.03,-8.03 V 20.03 C 12,15.61 15.61,12 20.03,12 h 87.94 c 4.42,0 8.03,3.61 8.03,8.03 v 87.91 c 0,4.42 -3.61,8.03 -8.03,8.03 z"
           style="opacity:0.61;fill:none;stroke:#000000;stroke-width:0.2578;stroke-miterlimit:10"
           id="path27" />
        <path
           d="M 100,124 H 28 c -4.4,0 -8,-3.6 -8,-8 V 12 c 0,-4.4 3.6,-8 8,-8 h 72 c 4.4,0 8,3.6 8,8 v 104 c 0,4.4 -3.6,8 -8,8 z"
           style="opacity:0.61;fill:none;stroke:#000000;stroke-width:0.2628;stroke-miterlimit:10"
           id="path28" />
        <path
           d="M 113.77,108 H 14.23 C 8.6,108 4,103.4 4,97.77 V 30.28 C 4,24.65 8.6,20.05 14.23,20.05 h 99.54 c 5.63,0 10.23,4.6 10.23,10.23 v 67.48 c 0,5.64 -4.6,10.24 -10.23,10.24 z"
           style="opacity:0.61;fill:none;stroke:#000000;stroke-width:0.2627;stroke-miterlimit:10"
           id="path29" />
      </g>
      <g
         id="g128">
        <g
           style="opacity:0.2"
           id="g124">
          <defs
             id="defs29">
            <rect
               id="SVGID_2_"
               height="128"
               style="opacity:0.2"
               width="128"
               x="0"
               y="0" />
          </defs>
          <clipPath
             id="SVGID_4_">
            <use
               style="overflow:visible"
               xlink:href="#SVGID_2_"
               id="use29" />
          </clipPath>
          <g
             clip-path="url(#SVGID_4_)"
             id="g123">
            <g
               id="g75">
              <line
                 style="fill:none;stroke:#000000;stroke-width:0.25;stroke-miterlimit:10"
                 x1="-28"
                 x2="-28"
                 y1="160"
                 y2="-32"
                 id="line29" />
              <line
                 style="fill:none;stroke:#000000;stroke-width:0.25;stroke-miterlimit:10"
                 x1="-24"
                 x2="-24"
                 y1="160"
                 y2="-32"
                 id="line30" />
              <line
                 style="fill:none;stroke:#000000;stroke-width:0.25;stroke-miterlimit:10"
                 x1="-20"
                 x2="-20"
                 y1="160"
                 y2="-32"
                 id="line31" />
              <line
                 style="fill:none;stroke:#000000;stroke-width:0.25;stroke-miterlimit:10"
                 x1="-16"
                 x2="-16"
                 y1="160"
                 y2="-32"
                 id="line32" />
              <line
                 style="fill:none;stroke:#000000;stroke-width:0.25;stroke-miterlimit:10"
                 x1="-12"
                 x2="-12"
                 y1="160"
                 y2="-32"
                 id="line33" />
              <line
                 style="fill:none;stroke:#000000;stroke-width:0.25;stroke-miterlimit:10"
                 x1="-8"
                 x2="-8"
                 y1="160"
                 y2="-32"
                 id="line34" />
              <line
                 style="fill:none;stroke:#000000;stroke-width:0.25;stroke-miterlimit:10"
                 x1="-4"
                 x2="-4"
                 y1="160"
                 y2="-32"
                 id="line35" />
              <line
                 style="fill:none;stroke:#000000;stroke-width:0.25;stroke-miterlimit:10"
                 x1="0"
                 x2="0"
                 y1="160"
                 y2="-32"
                 id="line36" />
              <line
                 style="fill:none;stroke:#000000;stroke-width:0.25;stroke-miterlimit:10"
                 x1="4"
                 x2="4"
                 y1="160"
                 y2="-32"
                 id="line37" />
              <line
                 style="fill:none;stroke:#000000;stroke-width:0.25;stroke-miterlimit:10"
                 x1="8"
                 x2="8"
                 y1="160"
                 y2="-32"
                 id="line38" />
              <line
                 style="fill:none;stroke:#000000;stroke-width:0.25;stroke-miterlimit:10"
                 x1="12"
                 x2="12"
                 y1="160"
                 y2="-32"
                 id="line39" />
              <line
                 style="fill:none;stroke:#000000;stroke-width:0.25;stroke-miterlimit:10"
                 x1="16"
                 x2="16"
                 y1="160"
                 y2="-32"
                 id="line40" />
              <line
                 style="fill:none;stroke:#000000;stroke-width:0.25;stroke-miterlimit:10"
                 x1="20"
                 x2="20"
                 y1="160"
                 y2="-32"
                 id="line41" />
              <line
                 style="fill:none;stroke:#000000;stroke-width:0.25;stroke-miterlimit:10"
                 x1="24"
                 x2="24"
                 y1="160"
                 y2="-32"
                 id="line42" />
              <line
                 style="fill:none;stroke:#000000;stroke-width:0.25;stroke-miterlimit:10"
                 x1="28"
                 x2="28"
                 y1="160"
                 y2="-32"
                 id="line43" />
              <line
                 style="fill:none;stroke:#000000;stroke-width:0.25;stroke-miterlimit:10"
                 x1="32"
                 x2="32"
                 y1="160"
                 y2="-32"
                 id="line44" />
              <line
                 style="fill:none;stroke:#000000;stroke-width:0.25;stroke-miterlimit:10"
                 x1="36"
                 x2="36"
                 y1="160"
                 y2="-32"
                 id="line45" />
              <line
                 style="fill:none;stroke:#000000;stroke-width:0.25;stroke-miterlimit:10"
                 x1="40"
                 x2="40"
                 y1="160"
                 y2="-32"
                 id="line46" />
              <line
                 style="fill:none;stroke:#000000;stroke-width:0.25;stroke-miterlimit:10"
                 x1="44"
                 x2="44"
                 y1="160"
                 y2="-32"
                 id="line47" />
              <line
                 style="fill:none;stroke:#000000;stroke-width:0.25;stroke-miterlimit:10"
                 x1="48"
                 x2="48"
                 y1="160"
                 y2="-32"
                 id="line48" />
              <line
                 style="fill:none;stroke:#000000;stroke-width:0.25;stroke-miterlimit:10"
                 x1="52"
                 x2="52"
                 y1="160"
                 y2="-32"
                 id="line49" />
              <line
                 style="fill:none;stroke:#000000;stroke-width:0.25;stroke-miterlimit:10"
                 x1="56"
                 x2="56"
                 y1="160"
                 y2="-32"
                 id="line50" />
              <line
                 style="fill:none;stroke:#000000;stroke-width:0.25;stroke-miterlimit:10"
                 x1="60"
                 x2="60"
                 y1="160"
                 y2="-32"
                 id="line51" />
              <line
                 style="fill:none;stroke:#000000;stroke-width:0.25;stroke-miterlimit:10"
                 x1="64"
                 x2="64"
                 y1="160"
                 y2="-32"
                 id="line52" />
              <line
                 style="fill:none;stroke:#000000;stroke-width:0.25;stroke-miterlimit:10"
                 x1="68"
                 x2="68"
                 y1="160"
                 y2="-32"
                 id="line53" />
              <line
                 style="fill:none;stroke:#000000;stroke-width:0.25;stroke-miterlimit:10"
                 x1="72"
                 x2="72"
                 y1="160"
                 y2="-32"
                 id="line54" />
              <line
                 style="fill:none;stroke:#000000;stroke-width:0.25;stroke-miterlimit:10"
                 x1="76"
                 x2="76"
                 y1="160"
                 y2="-32"
                 id="line55" />
              <line
                 style="fill:none;stroke:#000000;stroke-width:0.25;stroke-miterlimit:10"
                 x1="80"
                 x2="80"
                 y1="160"
                 y2="-32"
                 id="line56" />
              <line
                 style="fill:none;stroke:#000000;stroke-width:0.25;stroke-miterlimit:10"
                 x1="84"
                 x2="84"
                 y1="160"
                 y2="-32"
                 id="line57" />
              <line
                 style="fill:none;stroke:#000000;stroke-width:0.25;stroke-miterlimit:10"
                 x1="88"
                 x2="88"
                 y1="160"
                 y2="-32"
                 id="line58" />
              <line
                 style="fill:none;stroke:#000000;stroke-width:0.25;stroke-miterlimit:10"
                 x1="92"
                 x2="92"
                 y1="160"
                 y2="-32"
                 id="line59" />
              <line
                 style="fill:none;stroke:#000000;stroke-width:0.25;stroke-miterlimit:10"
                 x1="96"
                 x2="96"
                 y1="160"
                 y2="-32"
                 id="line60" />
              <line
                 style="fill:none;stroke:#000000;stroke-width:0.25;stroke-miterlimit:10"
                 x1="100"
                 x2="100"
                 y1="160"
                 y2="-32"
                 id="line61" />
              <line
                 style="fill:none;stroke:#000000;stroke-width:0.25;stroke-miterlimit:10"
                 x1="104"
                 x2="104"
                 y1="160"
                 y2="-32"
                 id="line62" />
              <line
                 style="fill:none;stroke:#000000;stroke-width:0.25;stroke-miterlimit:10"
                 x1="108"
                 x2="108"
                 y1="160"
                 y2="-32"
                 id="line63" />
              <line
                 style="fill:none;stroke:#000000;stroke-width:0.25;stroke-miterlimit:10"
                 x1="112"
                 x2="112"
                 y1="160"
                 y2="-32"
                 id="line64" />
              <line
                 style="fill:none;stroke:#000000;stroke-width:0.25;stroke-miterlimit:10"
                 x1="116"
                 x2="116"
                 y1="160"
                 y2="-32"
                 id="line65" />
              <line
                 style="fill:none;stroke:#000000;stroke-width:0.25;stroke-miterlimit:10"
                 x1="120"
                 x2="120"
                 y1="160"
                 y2="-32"
                 id="line66" />
              <line
                 style="fill:none;stroke:#000000;stroke-width:0.25;stroke-miterlimit:10"
                 x1="124"
                 x2="124"
                 y1="160"
                 y2="-32"
                 id="line67" />
              <line
                 style="fill:none;stroke:#000000;stroke-width:0.25;stroke-miterlimit:10"
                 x1="128"
                 x2="128"
                 y1="160"
                 y2="-32"
                 id="line68" />
              <line
                 style="fill:none;stroke:#000000;stroke-width:0.25;stroke-miterlimit:10"
                 x1="132"
                 x2="132"
                 y1="160"
                 y2="-32"
                 id="line69" />
              <line
                 style="fill:none;stroke:#000000;stroke-width:0.25;stroke-miterlimit:10"
                 x1="136"
                 x2="136"
                 y1="160"
                 y2="-32"
                 id="line70" />
              <line
                 style="fill:none;stroke:#000000;stroke-width:0.25;stroke-miterlimit:10"
                 x1="137"
                 x2="137"
                 y1="166.05"
                 y2="-25.950001"
                 id="line71" />
              <line
                 style="fill:none;stroke:#000000;stroke-width:0.25;stroke-miterlimit:10"
                 x1="144"
                 x2="144"
                 y1="160"
                 y2="-32"
                 id="line72" />
              <line
                 style="fill:none;stroke:#000000;stroke-width:0.25;stroke-miterlimit:10"
                 x1="148"
                 x2="148"
                 y1="160"
                 y2="-32"
                 id="line73" />
              <line
                 style="fill:none;stroke:#000000;stroke-width:0.25;stroke-miterlimit:10"
                 x1="152"
                 x2="152"
                 y1="160"
                 y2="-32"
                 id="line74" />
              <line
                 style="fill:none;stroke:#000000;stroke-width:0.25;stroke-miterlimit:10"
                 x1="156"
                 x2="156"
                 y1="160"
                 y2="-32"
                 id="line75" />
            </g>
            <g
               id="g122">
              <line
                 style="fill:none;stroke:#000000;stroke-width:0.25;stroke-miterlimit:10"
                 x1="-32"
                 x2="160"
                 y1="-28"
                 y2="-28"
                 id="line76" />
              <line
                 style="fill:none;stroke:#000000;stroke-width:0.25;stroke-miterlimit:10"
                 x1="-32"
                 x2="160"
                 y1="-24"
                 y2="-24"
                 id="line77" />
              <line
                 style="fill:none;stroke:#000000;stroke-width:0.25;stroke-miterlimit:10"
                 x1="-32"
                 x2="160"
                 y1="-20"
                 y2="-20"
                 id="line78" />
              <line
                 style="fill:none;stroke:#000000;stroke-width:0.25;stroke-miterlimit:10"
                 x1="-32"
                 x2="160"
                 y1="-16"
                 y2="-16"
                 id="line79" />
              <line
                 style="fill:none;stroke:#000000;stroke-width:0.25;stroke-miterlimit:10"
                 x1="-32"
                 x2="160"
                 y1="-12"
                 y2="-12"
                 id="line80" />
              <line
                 style="fill:none;stroke:#000000;stroke-width:0.25;stroke-miterlimit:10"
                 x1="-32"
                 x2="160"
                 y1="-8"
                 y2="-8"
                 id="line81" />
              <line
                 style="fill:none;stroke:#000000;stroke-width:0.25;stroke-miterlimit:10"
                 x1="-32"
                 x2="160"
                 y1="-4"
                 y2="-4"
                 id="line82" />
              <line
                 style="fill:none;stroke:#000000;stroke-width:0.25;stroke-miterlimit:10"
                 x1="-32"
                 x2="160"
                 y1="0"
                 y2="0"
                 id="line83" />
              <line
                 style="fill:none;stroke:#000000;stroke-width:0.25;stroke-miterlimit:10"
                 x1="-32"
                 x2="160"
                 y1="4"
                 y2="4"
                 id="line84" />
              <line
                 style="fill:none;stroke:#000000;stroke-width:0.25;stroke-miterlimit:10"
                 x1="-32"
                 x2="160"
                 y1="8"
                 y2="8"
                 id="line85" />
              <line
                 style="fill:none;stroke:#000000;stroke-width:0.25;stroke-miterlimit:10"
                 x1="-32"
                 x2="160"
                 y1="12"
                 y2="12"
                 id="line86" />
              <line
                 style="fill:none;stroke:#000000;stroke-width:0.25;stroke-miterlimit:10"
                 x1="-32"
                 x2="160"
                 y1="16"
                 y2="16"
                 id="line87" />
              <line
                 style="fill:none;stroke:#000000;stroke-width:0.25;stroke-miterlimit:10"
                 x1="-32"
                 x2="160"
                 y1="20"
                 y2="20"
                 id="line88" />
              <line
                 style="fill:none;stroke:#000000;stroke-width:0.25;stroke-miterlimit:10"
                 x1="-32"
                 x2="160"
                 y1="24"
                 y2="24"
                 id="line89" />
              <line
                 style="fill:none;stroke:#000000;stroke-width:0.25;stroke-miterlimit:10"
                 x1="-32"
                 x2="160"
                 y1="28"
                 y2="28"
                 id="line90" />
              <line
                 style="fill:none;stroke:#000000;stroke-width:0.25;stroke-miterlimit:10"
                 x1="-32"
                 x2="160"
                 y1="32"
                 y2="32"
                 id="line91" />
              <line
                 style="fill:none;stroke:#000000;stroke-width:0.25;stroke-miterlimit:10"
                 x1="-32"
                 x2="160"
                 y1="36"
                 y2="36"
                 id="line92" />
              <line
                 style="fill:none;stroke:#000000;stroke-width:0.25;stroke-miterlimit:10"
                 x1="-32"
                 x2="160"
                 y1="40"
                 y2="40"
                 id="line93" />
              <line
                 style="fill:none;stroke:#000000;stroke-width:0.25;stroke-miterlimit:10"
                 x1="-32"
                 x2="160"
                 y1="44"
                 y2="44"
                 id="line94" />
              <line
                 style="fill:none;stroke:#000000;stroke-width:0.25;stroke-miterlimit:10"
                 x1="-32"
                 x2="160"
                 y1="48"
                 y2="48"
                 id="line95" />
              <line
                 style="fill:none;stroke:#000000;stroke-width:0.25;stroke-miterlimit:10"
                 x1="-32"
                 x2="160"
                 y1="52"
                 y2="52"
                 id="line96" />
              <line
                 style="fill:none;stroke:#000000;stroke-width:0.25;stroke-miterlimit:10"
                 x1="-32"
                 x2="160"
                 y1="56"
                 y2="56"
                 id="line97" />
              <line
                 style="fill:none;stroke:#000000;stroke-width:0.25;stroke-miterlimit:10"
                 x1="-32"
                 x2="160"
                 y1="60"
                 y2="60"
                 id="line98" />
              <line
                 style="fill:none;stroke:#000000;stroke-width:0.25;stroke-miterlimit:10"
                 x1="-32"
                 x2="160"
                 y1="64"
                 y2="64"
                 id="line99" />
              <line
                 style="fill:none;stroke:#000000;stroke-width:0.25;stroke-miterlimit:10"
                 x1="-32"
                 x2="160"
                 y1="68"
                 y2="68"
                 id="line100" />
              <line
                 style="fill:none;stroke:#000000;stroke-width:0.25;stroke-miterlimit:10"
                 x1="-32"
                 x2="160"
                 y1="72"
                 y2="72"
                 id="line101" />
              <line
                 style="fill:none;stroke:#000000;stroke-width:0.25;stroke-miterlimit:10"
                 x1="-32"
                 x2="160"
                 y1="76"
                 y2="76"
                 id="line102" />
              <line
                 style="fill:none;stroke:#000000;stroke-width:0.25;stroke-miterlimit:10"
                 x1="-32"
                 x2="160"
                 y1="80"
                 y2="80"
                 id="line103" />
              <line
                 style="fill:none;stroke:#000000;stroke-width:0.25;stroke-miterlimit:10"
                 x1="-32"
                 x2="160"
                 y1="84"
                 y2="84"
                 id="line104" />
              <line
                 style="fill:none;stroke:#000000;stroke-width:0.25;stroke-miterlimit:10"
                 x1="-32"
                 x2="160"
                 y1="88"
                 y2="88"
                 id="line105" />
              <line
                 style="fill:none;stroke:#000000;stroke-width:0.25;stroke-miterlimit:10"
                 x1="-32"
                 x2="160"
                 y1="92"
                 y2="92"
                 id="line106" />
              <line
                 style="fill:none;stroke:#000000;stroke-width:0.25;stroke-miterlimit:10"
                 x1="-32"
                 x2="160"
                 y1="96"
                 y2="96"
                 id="line107" />
              <line
                 style="fill:none;stroke:#000000;stroke-width:0.25;stroke-miterlimit:10"
                 x1="-32"
                 x2="160"
                 y1="100"
                 y2="100"
                 id="line108" />
              <line
                 style="fill:none;stroke:#000000;stroke-width:0.25;stroke-miterlimit:10"
                 x1="-32"
                 x2="160"
                 y1="104"
                 y2="104"
                 id="line109" />
              <line
                 style="fill:none;stroke:#000000;stroke-width:0.25;stroke-miterlimit:10"
                 x1="-32"
                 x2="160"
                 y1="108"
                 y2="108"
                 id="line110" />
              <line
                 style="fill:none;stroke:#000000;stroke-width:0.25;stroke-miterlimit:10"
                 x1="-32"
                 x2="160"
                 y1="112"
                 y2="112"
                 id="line111" />
              <line
                 style="fill:none;stroke:#000000;stroke-width:0.25;stroke-miterlimit:10"
                 x1="-32"
                 x2="160"
                 y1="116"
                 y2="116"
                 id="line112" />
              <line
                 style="fill:none;stroke:#000000;stroke-width:0.25;stroke-miterlimit:10"
                 x1="-32"
                 x2="160"
                 y1="120"
                 y2="120"
                 id="line113" />
              <line
                 style="fill:none;stroke:#000000;stroke-width:0.25;stroke-miterlimit:10"
                 x1="-32"
                 x2="160"
                 y1="124"
                 y2="124"
                 id="line114" />
              <line
                 style="fill:none;stroke:#000000;stroke-width:0.25;stroke-miterlimit:10"
                 x1="-32"
                 x2="160"
                 y1="128"
                 y2="128"
                 id="line115" />
              <line
                 style="fill:none;stroke:#000000;stroke-width:0.25;stroke-miterlimit:10"
                 x1="-32"
                 x2="160"
                 y1="132"
                 y2="132"
                 id="line116" />
              <line
                 style="fill:none;stroke:#000000;stroke-width:0.25;stroke-miterlimit:10"
                 x1="-32"
                 x2="160"
                 y1="136"
                 y2="136"
                 id="line117" />
              <line
                 style="fill:none;stroke:#000000;stroke-width:0.25;stroke-miterlimit:10"
                 x1="-32"
                 x2="160"
                 y1="140"
                 y2="140"
                 id="line118" />
              <line
                 style="fill:none;stroke:#000000;stroke-width:0.25;stroke-miterlimit:10"
                 x1="-32"
                 x2="160"
                 y1="144"
                 y2="144"
                 id="line119" />
              <line
                 style="fill:none;stroke:#000000;stroke-width:0.25;stroke-miterlimit:10"
                 x1="-32"
                 x2="160"
                 y1="148"
                 y2="148"
                 id="line120" />
              <line
                 style="fill:none;stroke:#000000;stroke-width:0.25;stroke-miterlimit:10"
                 x1="-32"
                 x2="160"
                 y1="152"
                 y2="152"
                 id="line121" />
              <line
                 style="fill:none;stroke:#000000;stroke-width:0.25;stroke-miterlimit:10"
                 x1="-32"
                 x2="160"
                 y1="156"
                 y2="156"
                 id="line122" />
            </g>
            <path
               d="m 159.75,-31.75 v 191.5 h -191.5 v -191.5 h 191.5 M 160,-32 H -32 v 192 h 192 z"
               id="path122" />
          </g>
        </g>
        <g
           id="g127">
          <rect
             height="128"
             style="opacity:0.3;fill:#f44336"
             width="4"
             x="0"
             y="0"
             id="rect124" />
          <rect
             height="128"
             style="opacity:0.3;fill:#f44336"
             width="4"
             x="124"
             y="0"
             id="rect125" />
          <rect
             height="120"
             style="opacity:0.3;fill:#f44336"
             transform="rotate(90,64,2)"
             width="4"
             x="62"
             y="-58"
             id="rect126" />
          <rect
             height="120"
             style="opacity:0.3;fill:#f44336"
             transform="rotate(90,64,126)"
             width="4"
             x="62"
             y="66"
             id="rect127" />
        </g>
      </g>
    </g>
  </g>
  <path
     style="font-size:19.6602px;line-height:1;font-family:'DM Serif Text';-inkscape-font-specification:'DM Serif Text';fill:#333333;stroke-width:0.526615"
     d="m 53.593962,22.90803 v -0.412864 l 0.393204,-0.117962 c 0.275243,-0.09175 0.452184,-0.209708 0.530825,-0.353883 0.07864,-0.157282 0.117961,-0.373544 0.117961,-0.648787 v -9.948061 c 0,-0.262136 -0.03932,-0.465292 -0.117961,-0.609466 -0.07864,-0.157282 -0.249029,-0.281797 -0.511165,-0.373544 L 53.593962,10.325502 V 9.9126373 h 4.875729 v 0.4128647 l -0.373544,0.117961 c -0.249029,0.09175 -0.419417,0.216262 -0.511165,0.373544 -0.07864,0.157281 -0.117961,0.373543 -0.117961,0.648786 v 10.852431 h 2.890049 c 0.445631,0 0.779855,-0.111408 1.002671,-0.334224 0.222815,-0.222815 0.432524,-0.543932 0.629126,-0.963349 l 0.727427,-1.631797 h 0.550486 l -0.196602,3.519176 z m 15.492255,0.275243 c -0.969903,0 -1.821845,-0.203156 -2.555826,-0.609467 -0.720874,-0.406311 -1.284466,-0.98301 -1.690777,-1.730097 -0.393204,-0.747088 -0.589806,-1.638351 -0.589806,-2.673788 0,-1.035437 0.209709,-1.926699 0.629126,-2.673787 0.432525,-0.747087 1.009224,-1.317233 1.730098,-1.710437 0.733981,-0.406311 1.559709,-0.609466 2.477185,-0.609466 0.917476,0 1.736651,0.203155 2.457525,0.609466 0.733981,0.393204 1.31068,0.96335 1.730098,1.710437 0.432524,0.733981 0.648786,1.625243 0.648786,2.673787 0,1.035437 -0.203155,1.933253 -0.609466,2.693448 -0.393204,0.747087 -0.950243,1.323787 -1.671117,1.730098 -0.720874,0.393204 -1.572816,0.589806 -2.555826,0.589806 z m 0,-0.550486 c 0.471845,0 0.851942,-0.124515 1.140292,-0.373544 0.301456,-0.262136 0.517718,-0.714321 0.648786,-1.356554 0.131068,-0.642233 0.196602,-1.540048 0.196602,-2.693447 0,-1.166505 -0.06553,-2.070875 -0.196602,-2.713108 -0.131068,-0.65534 -0.34733,-1.107525 -0.648786,-1.356554 -0.28835,-0.262136 -0.668447,-0.393204 -1.140292,-0.393204 -0.471845,0 -0.851942,0.131068 -1.140292,0.393204 -0.288349,0.249029 -0.504611,0.701214 -0.648786,1.356554 -0.131068,0.642233 -0.196602,1.546603 -0.196602,2.713108 0,1.153399 0.06553,2.051214 0.196602,2.693447 0.144175,0.642233 0.360437,1.094418 0.648786,1.356554 0.28835,0.249029 0.668447,0.373544 1.140292,0.373544 z m 9.987378,-3.086651 c -0.865049,0 -1.605583,-0.144175 -2.221603,-0.432525 v 0.707767 c 0,0.393204 0.196602,0.629127 0.589806,0.707768 l 3.499516,0.648786 c 0.668447,0.131068 1.258253,0.294903 1.769418,0.491505 0.511165,0.183495 0.910923,0.452185 1.199272,0.806068 0.288349,0.340777 0.432524,0.806069 0.432524,1.395875 0,0.629126 -0.209709,1.212378 -0.629126,1.749757 -0.406311,0.550486 -1.015777,0.989564 -1.828399,1.317234 -0.799515,0.340777 -1.802185,0.511165 -3.00801,0.511165 -1.035437,0 -1.861166,-0.111408 -2.477185,-0.334223 -0.602913,-0.209709 -1.035438,-0.484952 -1.297574,-0.825729 -0.262136,-0.340777 -0.393204,-0.707767 -0.393204,-1.100971 0,-0.471845 0.157282,-0.943689 0.471845,-1.415534 0.32767,-0.471845 0.747088,-0.865049 1.258253,-1.179612 -0.799515,-0.301457 -1.199272,-0.779855 -1.199272,-1.435195 0,-0.249029 0.05898,-0.478398 0.176942,-0.688107 0.117961,-0.209709 0.262135,-0.419417 0.432524,-0.629126 l 0.707767,-0.884709 c -0.943689,-0.550486 -1.415534,-1.408982 -1.415534,-2.575487 0,-0.956796 0.334223,-1.730097 1.00267,-2.319903 0.681553,-0.589806 1.65801,-0.884709 2.92937,-0.884709 1.271359,0 2.254369,0.294903 2.94903,0.884709 0.419417,-0.06553 0.812621,-0.170388 1.179612,-0.314564 0.36699,-0.144175 0.707767,-0.340777 1.02233,-0.589806 l 0.275243,0.196602 v 1.100972 h -2.123302 c 0.419418,0.524272 0.629127,1.166505 0.629127,1.926699 0,0.930583 -0.340777,1.690777 -1.022331,2.280584 -0.668447,0.589806 -1.63835,0.884709 -2.909709,0.884709 z m -0.03932,-0.530826 c 0.550486,0 0.950244,-0.209709 1.199273,-0.629126 0.262136,-0.432525 0.393204,-1.120632 0.393204,-2.064321 0,-0.930583 -0.124515,-1.59903 -0.373544,-2.005341 -0.249029,-0.406311 -0.63568,-0.609466 -1.159952,-0.609466 -0.524272,0 -0.917476,0.209709 -1.179612,0.629126 -0.249029,0.406311 -0.373544,1.081312 -0.373544,2.025001 0,0.943689 0.117961,1.625243 0.353884,2.044661 0.235922,0.406311 0.616019,0.609466 1.140291,0.609466 z m -2.791748,5.603157 c 0,0.720874 0.229369,1.258253 0.688107,1.612137 0.458738,0.36699 1.186165,0.550485 2.182282,0.550485 1.100971,0 1.913593,-0.183495 2.437865,-0.550485 0.537379,-0.353884 0.806068,-0.825729 0.806068,-1.415535 0,-0.36699 -0.137621,-0.65534 -0.412864,-0.865049 -0.262136,-0.209709 -0.707767,-0.373544 -1.336894,-0.491505 l -3.519175,-0.688107 -0.157282,-0.03932 c -0.196602,0.262136 -0.360437,0.563592 -0.491505,0.904369 -0.131068,0.340777 -0.196602,0.668447 -0.196602,0.98301 z m 13.565558,-1.435194 c -0.969903,0 -1.821845,-0.203156 -2.555826,-0.609467 -0.720874,-0.406311 -1.284466,-0.98301 -1.690777,-1.730097 -0.393204,-0.747088 -0.589806,-1.638351 -0.589806,-2.673788 0,-1.035437 0.209709,-1.926699 0.629127,-2.673787 0.432524,-0.747087 1.009223,-1.317233 1.730097,-1.710437 0.733981,-0.406311 1.559709,-0.609466 2.477185,-0.609466 0.917476,0 1.736651,0.203155 2.457525,0.609466 0.733981,0.393204 1.310681,0.96335 1.730098,1.710437 0.432525,0.733981 0.648787,1.625243 0.648787,2.673787 0,1.035437 -0.203156,1.933253 -0.609467,2.693448 -0.393204,0.747087 -0.950243,1.323787 -1.671117,1.730098 -0.720874,0.393204 -1.572816,0.589806 -2.555826,0.589806 z m 0,-0.550486 c 0.471845,0 0.851943,-0.124515 1.140292,-0.373544 0.301457,-0.262136 0.517719,-0.714321 0.648787,-1.356554 0.131068,-0.642233 0.196602,-1.540048 0.196602,-2.693447 0,-1.166505 -0.06553,-2.070875 -0.196602,-2.713108 -0.131068,-0.65534 -0.34733,-1.107525 -0.648787,-1.356554 -0.288349,-0.262136 -0.668447,-0.393204 -1.140292,-0.393204 -0.471845,0 -0.851942,0.131068 -1.140291,0.393204 -0.28835,0.249029 -0.504612,0.701214 -0.648787,1.356554 -0.131068,0.642233 -0.196602,1.546603 -0.196602,2.713108 0,1.153399 0.06553,2.051214 0.196602,2.693447 0.144175,0.642233 0.360437,1.094418 0.648787,1.356554 0.288349,0.249029 0.668446,0.373544 1.140291,0.373544 z"
     id="text1"
     aria-label="Logo of the Day"
     sodipodi:nodetypes="ccccssccccccccscsscccccsccsccsccsccsscssccsccsccsscsccccsccscssccssccscscsccccscsscssscscsscscsccccsssccsccsccsccsscssccsccsccs" />
  <path
     style="font-size:19.6602px;line-height:1;font-family:'DM Serif Text';-inkscape-font-specification:'DM Serif Text';fill:#333333;stroke-width:0.413456"
     d="m 103.18535,23.513396 c -0.76149,0 -1.43037,-0.159502 -2.00663,-0.478505 -0.56598,-0.319003 -1.00847,-0.771781 -1.327469,-1.358335 -0.308713,-0.586554 -0.46307,-1.286303 -0.46307,-2.099246 0,-0.812943 0.164647,-1.512692 0.493941,-2.099246 0.339588,-0.586553 0.792368,-1.034187 1.358338,-1.342899 0.57627,-0.319004 1.22456,-0.478505 1.94489,-0.478505 0.72033,0 1.36349,0.159501 1.92946,0.478505 0.57626,0.308712 1.02904,0.756346 1.35833,1.342899 0.33958,0.576264 0.50937,1.276012 0.50937,2.099246 0,0.812943 -0.1595,1.517837 -0.4785,2.114682 -0.30871,0.586553 -0.74606,1.039332 -1.31203,1.358336 -0.56597,0.308712 -1.23485,0.463068 -2.00663,0.463068 z m 0,-0.432198 c 0.37046,0 0.66887,-0.09776 0.89526,-0.293277 0.23669,-0.205808 0.40648,-0.560828 0.50938,-1.065058 0.10291,-0.504231 0.15436,-1.209124 0.15436,-2.114682 0,-0.915847 -0.0514,-1.625886 -0.15436,-2.130117 -0.1029,-0.514521 -0.27269,-0.869541 -0.50938,-1.065059 -0.22639,-0.205808 -0.5248,-0.308712 -0.89526,-0.308712 -0.37046,0 -0.66888,0.102904 -0.89527,0.308712 -0.22639,0.195518 -0.39618,0.550538 -0.50937,1.065059 -0.10291,0.504231 -0.15436,1.21427 -0.15436,2.130117 0,0.905558 0.0514,1.610451 0.15436,2.114682 0.11319,0.50423 0.28298,0.85925 0.50937,1.065058 0.22639,0.195518 0.52481,0.293277 0.89527,0.293277 z m 4.52263,0.216099 V 23.00402 l 0.23154,-0.06174 c 0.41162,-0.113194 0.62257,-0.365309 0.63286,-0.756346 v -1.065058 c 0.0103,-0.360164 0.0155,-0.715184 0.0155,-1.065058 V 16.3667 h -0.87984 v -0.339585 l 0.33959,-0.06174 c 0.20581,-0.03087 0.35502,-0.102905 0.44763,-0.216099 0.0926,-0.123486 0.15951,-0.293278 0.20067,-0.509377 0.11319,-0.411616 0.2624,-0.766635 0.44763,-1.065058 0.19552,-0.308712 0.42706,-0.591699 0.6946,-0.848959 0.38075,-0.370456 0.78722,-0.627717 1.21942,-0.771783 0.4322,-0.144065 0.8541,-0.216098 1.26572,-0.216098 0.40133,0 0.76664,0.08232 1.09593,0.24697 0.33959,0.154356 0.50938,0.421908 0.50938,0.802653 0,0.267551 -0.0823,0.48365 -0.24698,0.648297 -0.15435,0.154356 -0.38074,0.231534 -0.67916,0.231534 -0.47336,0 -0.89013,-0.277842 -1.25029,-0.833524 l -0.18526,-0.2161 c -0.12348,-0.154356 -0.24697,-0.216099 -0.37045,-0.185227 -0.12349,0.03087 -0.21096,0.133775 -0.2624,0.308712 -0.0823,0.329293 -0.14922,0.715184 -0.20067,1.157673 -0.0411,0.442488 -0.0669,0.905556 -0.0772,1.389207 h 1.7751 V 16.3667 h -1.7751 v 3.689116 1.049622 c 0.0103,0.339585 0.0155,0.684314 0.0155,1.034188 0,0.411617 0.20581,0.663733 0.61742,0.756346 l 0.40133,0.108049 v 0.293277 z"
     id="text1-7"
     aria-label="Logo of the Day"
     sodipodi:nodetypes="sccsccsccsccsscssccsccsccscccccsccccccccsscsssccsccccccccscccc" />
  <path
     style="font-size:19.6602px;line-height:1;font-family:'DM Serif Text';-inkscape-font-specification:'DM Serif Text';fill:#333333;stroke-width:0.413456"
     d="m 56.455079,46.606252 c -0.63801,0 -1.14224,-0.154356 -1.51269,-0.463069 -0.36016,-0.319003 -0.54024,-0.833524 -0.54024,-1.543563 v -0.694604 c 0.0103,-0.226389 0.0155,-0.488795 0.0155,-0.787217 v -3.658245 h -1.09594 V 39.11997 l 0.41677,-0.06174 c 0.29842,-0.05145 0.55053,-0.144066 0.75634,-0.277842 0.2161,-0.133775 0.41162,-0.319003 0.58655,-0.555682 l 1.00332,-1.389207 h 0.46307 l -0.0463,2.145553 h 1.75966 v 0.478504 h -1.7751 v 5.26355 c 0,0.370456 0.0772,0.648297 0.23154,0.833525 0.16465,0.185228 0.36531,0.277841 0.60198,0.277841 0.20581,0 0.39104,-0.04631 0.55569,-0.138921 0.16465,-0.102904 0.32929,-0.236679 0.49394,-0.401326 l 0.20066,0.231535 c -0.19552,0.339583 -0.46821,0.607134 -0.81809,0.802652 -0.34987,0.185228 -0.78207,0.277842 -1.29659,0.277842 z m 2.65492,-0.216099 V 46.08144 l 0.20066,-0.06174 c 0.37046,-0.113194 0.55569,-0.370455 0.55569,-0.771781 v -7.949351 c 0,-0.216099 -0.036,-0.3756 -0.10805,-0.478504 -0.0721,-0.113195 -0.21095,-0.195518 -0.41677,-0.24697 l -0.23153,-0.06174 v -0.293281 l 2.60862,-0.663732 0.24698,0.138921 -0.0617,2.176424 v 1.975761 c 0.36015,-0.298422 0.75119,-0.555683 1.1731,-0.771782 0.4322,-0.216099 0.89526,-0.324148 1.38921,-0.324148 0.67917,0 1.20912,0.190373 1.58987,0.571118 0.39103,0.380745 0.58655,0.967299 0.58655,1.759662 v 4.183056 c 0,0.205808 0.0411,0.370455 0.12349,0.493941 0.0823,0.123484 0.22639,0.216098 0.4322,0.277841 l 0.13892,0.04631 v 0.308713 h -3.51933 v -0.308713 l 0.18523,-0.06174 c 0.37046,-0.102904 0.55568,-0.360165 0.55568,-0.771781 v -4.460898 c 0,-0.421907 -0.072,-0.715184 -0.2161,-0.879831 -0.14406,-0.164646 -0.39618,-0.24697 -0.75634,-0.24697 -0.24698,0 -0.50938,0.04631 -0.78722,0.138921 -0.26755,0.09261 -0.55054,0.246969 -0.84896,0.463068 v 5.016581 c 0,0.205808 0.0411,0.370455 0.12349,0.49394 0.0823,0.123485 0.22123,0.210953 0.41675,0.262406 l 0.13893,0.04631 v 0.308713 z m 12.70354,-7.640637 c 0.6483,0 1.20398,0.133775 1.66705,0.401326 0.46307,0.267551 0.81808,0.638005 1.06506,1.111365 0.25726,0.463069 0.38589,0.998171 0.38589,1.605306 0,0.133776 -0.005,0.262406 -0.0155,0.38589 -0.0103,0.113195 -0.0309,0.221244 -0.0617,0.324149 h -4.64613 c 0.0103,1.059913 0.20583,1.821404 0.58656,2.284473 0.39104,0.463069 0.95701,0.694604 1.69792,0.694604 0.51452,0 0.93128,-0.08232 1.25029,-0.24697 0.319,-0.174938 0.61228,-0.416763 0.87983,-0.725475 l 0.24696,0.231534 c -0.30871,0.565973 -0.73061,1.008462 -1.26571,1.327465 -0.52482,0.308713 -1.15253,0.463069 -1.88315,0.463069 -0.73062,0 -1.37377,-0.154356 -1.92945,-0.463069 -0.55569,-0.308713 -0.99303,-0.751201 -1.31204,-1.327465 -0.30871,-0.586553 -0.46307,-1.286303 -0.46307,-2.099246 0,-0.843814 0.18009,-1.558998 0.54025,-2.145553 0.37046,-0.586553 0.84382,-1.034186 1.42008,-1.342899 0.58656,-0.319003 1.19883,-0.478504 1.83684,-0.478504 z m -0.0772,0.447632 c -0.29842,0 -0.56083,0.08747 -0.78722,0.262406 -0.21609,0.164647 -0.39103,0.463069 -0.5248,0.895267 -0.12349,0.421907 -0.19553,1.018752 -0.21611,1.790533 h 2.76298 c 0.1132,-1.039332 0.072,-1.790533 -0.12348,-2.253602 -0.19552,-0.463069 -0.56598,-0.694604 -1.11137,-0.694604 z"
     id="text1-9"
     aria-label="Logo of the Day"
     sodipodi:nodetypes="scscsccccccccccccscsccccsscccsscccccccccscsssccccccssssccssccccsscsccccsccccsscsccssccccss" />
  <path
     style="font-size:19.6602px;line-height:1;font-family:'DM Serif Text';-inkscape-font-specification:'DM Serif Text';fill:#333333;stroke-width:0.526615"
     d="m 79.826627,46.355801 v -0.41286 l 0.39321,-0.13763 c 0.41941,-0.13107 0.62912,-0.45874 0.62912,-0.983007 0.0131,-0.747087 0.0197,-1.507282 0.0197,-2.280583 v -2.398545 -0.688107 -2.280583 c 0,-0.760194 -0.007,-1.520388 -0.0197,-2.280583 0,-0.537379 -0.20315,-0.871602 -0.60946,-1.00267 l -0.41287,-0.117961 v -0.412865 h 5.17063 c 1.37622,0 2.56239,0.255583 3.5585,0.766748 0.99612,0.511165 1.76287,1.2517 2.30024,2.221603 0.53738,0.956796 0.80607,2.116748 0.80607,3.479855 0,1.389321 -0.2949,2.568933 -0.88471,3.538836 -0.5767,0.969903 -1.39587,1.710442 -2.45752,2.221602 -1.04855,0.51117 -2.27403,0.76675 -3.67646,0.76675 z m 3.87306,-0.57015 h 1.00267 c 0.93059,0 1.68423,-0.18349 2.26092,-0.55048 0.58981,-0.366992 1.02233,-0.983012 1.29758,-1.848061 0.27524,-0.878156 0.41286,-2.057768 0.41286,-3.538837 0,-1.481068 -0.13762,-2.654126 -0.41286,-3.519175 -0.27525,-0.865049 -0.70122,-1.481068 -1.27792,-1.848059 -0.56359,-0.366991 -1.29757,-0.550486 -2.20194,-0.550486 h -1.08131 c -0.0131,0.904369 -0.0197,1.821845 -0.0197,2.752428 v 2.772088 0.668447 2.89005 c 0,0.930583 0.007,1.854611 0.0197,2.772085 z m 11.44223,0.84539 c -0.74709,0 -1.38277,-0.20971 -1.90704,-0.62912 -0.51117,-0.43253 -0.76675,-1.04855 -0.76675,-1.848064 0,-0.629126 0.30146,-1.205825 0.90437,-1.730097 0.61602,-0.537379 1.57937,-0.930583 2.89005,-1.179612 0.22281,-0.05243 0.4784,-0.0983 0.76675,-0.137622 0.30145,-0.05243 0.59635,-0.104854 0.8847,-0.157281 V 39.55337 c 0,-0.891262 -0.11141,-1.507281 -0.33422,-1.848058 -0.22281,-0.340777 -0.5767,-0.511166 -1.06165,-0.511166 h -0.059 c -0.30146,0 -0.54394,0.0983 -0.72743,0.294903 -0.17039,0.183495 -0.28179,0.491505 -0.33422,0.92403 l -0.059,0.255582 c -0.0393,0.524272 -0.17696,0.910923 -0.41287,1.159952 -0.23592,0.235923 -0.53082,0.353884 -0.88471,0.353884 -0.32767,0 -0.60291,-0.0983 -0.82572,-0.294903 -0.20971,-0.209709 -0.31457,-0.478398 -0.31457,-0.806068 0,-0.537379 0.1835,-0.989564 0.55049,-1.356554 0.36699,-0.366991 0.85194,-0.642234 1.45485,-0.825729 0.61602,-0.183495 1.27791,-0.275242 1.98568,-0.275242 1.16651,0 2.05777,0.281796 2.67379,0.845388 0.616023,0.563593 0.924033,1.481069 0.924033,2.752428 v 4.384225 c 0,0.563589 0.26869,0.845389 0.80607,0.845389 h 0.45218 l 0.19661,0.21626 c -0.23593,0.30146 -0.49806,0.53083 -0.78641,0.68811 -0.28835,0.17039 -0.68156,0.25558 -1.179613,0.25558 -0.56359,0 -1.01578,-0.13107 -1.35656,-0.3932 -0.32767,-0.27525 -0.54393,-0.63568 -0.64879,-1.08131 -0.41941,0.44563 -0.83228,0.80606 -1.23859,1.08131 -0.40631,0.27524 -0.93713,0.41286 -1.59247,0.41286 z m 1.14029,-1.25825 c 0.26213,0 0.51116,-0.059 0.74709,-0.17694 0.23592,-0.11796 0.53082,-0.314563 0.8847,-0.589809 V 41.46041 c -0.34077,0.05243 -0.6881,0.117961 -1.04199,0.196602 -0.56359,0.131068 -1.02232,0.373544 -1.37621,0.727427 -0.34078,0.353884 -0.51117,0.832282 -0.51117,1.435195 0,0.524272 0.11796,0.917478 0.35389,1.179617 0.24903,0.24903 0.56359,0.37354 0.94369,0.37354 z m 7.549533,5.72112 c -0.52427,0 -0.93714,-0.12452 -1.23859,-0.37355 -0.30146,-0.24903 -0.45219,-0.5767 -0.45219,-0.98301 0,-0.36699 0.12452,-0.66189 0.37355,-0.88471 0.26213,-0.20971 0.55048,-0.31456 0.86505,-0.31456 0.32767,0 0.59635,0.059 0.80606,0.17694 0.20971,0.11797 0.39321,0.28836 0.55049,0.51117 l 0.11796,0.15728 c 0.30146,0.36699 0.58326,0.36043 0.84539,-0.0197 0.17039,-0.22281 0.33422,-0.49806 0.4915,-0.82573 0.17039,-0.32767 0.35389,-0.76019 0.55049,-1.29757 l -3.73544,-8.925732 c -0.0918,-0.249029 -0.1966,-0.439078 -0.31456,-0.570146 -0.11796,-0.144175 -0.2949,-0.262136 -0.53083,-0.353884 l -0.33422,-0.117961 v -0.353883 h 4.85607 v 0.353883 l -0.41287,0.117961 c -0.28835,0.09175 -0.44563,0.235923 -0.47184,0.432525 -0.0131,0.183495 0.0327,0.425971 0.13762,0.727427 l 2.00533,5.229614 1.9267,-5.268934 c 0.10485,-0.28835 0.14417,-0.530826 0.11796,-0.727428 -0.0262,-0.196602 -0.19003,-0.32767 -0.4915,-0.393204 l -0.43253,-0.117961 v -0.353883 h 2.92937 v 0.353883 l -0.43252,0.137622 c -0.28835,0.07864 -0.49806,0.196602 -0.62913,0.353883 -0.11796,0.144175 -0.22937,0.360437 -0.33422,0.648787 l -3.14563,8.453891 c -0.52426,1.44175 -1.06164,2.5034 -1.61213,3.18495 -0.53738,0.69466 -1.20583,1.04199 -2.00534,1.04199 z"
     id="text1-3"
     aria-label="Logo of the Day"
     sodipodi:nodetypes="ccccsccsccccsscsccsccsccsscscsccscccsccccssssccccscsscssssscccsccsccssccccscscsscsscccccccccccccccccscccccccccccc" />
</svg>
