<?xml version="1.0" encoding="UTF-8" standalone="no"?>
<svg
   xmlns:dc="http://purl.org/dc/elements/1.1/"
   xmlns:cc="http://creativecommons.org/ns#"
   xmlns:rdf="http://www.w3.org/1999/02/22-rdf-syntax-ns#"
   xmlns:svg="http://www.w3.org/2000/svg"
   xmlns="http://www.w3.org/2000/svg"
   xmlns:sodipodi="http://sodipodi.sourceforge.net/DTD/sodipodi-0.dtd"
   xmlns:inkscape="http://www.inkscape.org/namespaces/inkscape"
   version="1.1"
   id="Layer_1"
   x="0px"
   y="0px"
   viewBox="0 0 64 64"
   xml:space="preserve"
   sodipodi:docname="phalcon-icon.svg"
   width="64"
   height="64"
   inkscape:version="0.92.3 (2405546, 2018-03-11)"><metadata
     id="metadata133"><rdf:RDF><cc:Work
         rdf:about=""><dc:format>image/svg+xml</dc:format><dc:type
           rdf:resource="http://purl.org/dc/dcmitype/StillImage" /><dc:title></dc:title></cc:Work></rdf:RDF></metadata><defs
     id="defs131" /><sodipodi:namedview
     pagecolor="#ffffff"
     bordercolor="#666666"
     borderopacity="1"
     objecttolerance="10"
     gridtolerance="10"
     guidetolerance="10"
     inkscape:pageopacity="0"
     inkscape:pageshadow="2"
     inkscape:window-width="1920"
     inkscape:window-height="1001"
     id="namedview129"
     showgrid="false"
     inkscape:zoom="3.6847826"
     inkscape:cx="49.0875"
     inkscape:cy="21.333713"
     inkscape:window-x="-9"
     inkscape:window-y="-9"
     inkscape:window-maximized="1"
     inkscape:current-layer="Layer_1" /><style
     type="text/css"
     id="style2">.st0{fill:#FFFFFF;} .st1{fill:#ACD2B4;} .st2{fill:#3A3A3A;} .st3{fill:#8FC19A;} .st4{fill:#678A6F;} .st5{fill:#79A281;} .st6{fill:#7AA383;} .st7{fill:#CCE2D2;} .st8{fill:#393839;} .st9{fill:#CCE1D1;} .st10{fill:#78A381;} .st11{fill:#CDE3D2;}</style><g
     id="g124"
     transform="matrix(0.48521607,0,0,0.48521607,3.9302504,1.835e-7)"><g
       id="g22"><polygon
         style="fill:#acd2b4"
         id="polygon20"
         points="57.6,76.6 49.4,77.8 43.3,80.7 55.9,79.7 58.3,77.8 "
         class="st1" /></g><g
       id="g26"><polygon
         style="fill:#3a3a3a"
         id="polygon24"
         points="73.7,128 68.9,122.4 68.5,116.7 70.7,111.8 76.7,114.6 76.7,116.4 72.6,114.7 72.1,115.6 75.9,117.5 77.5,121.4 73.7,118.2 72.9,118.2 "
         class="st2" /></g><g
       id="g30"><polygon
         style="fill:#8fc19a"
         id="polygon28"
         points="69.6,117.7 69.6,122.3 63.4,124.9 59.6,118.1 59.6,98.2 61.2,95.1 61.8,95.6 62.7,111 "
         class="st3" /></g><g
       id="g34"><polygon
         style="fill:#3a3a3a"
         id="polygon32"
         points="81.3,111 76.1,105 75.9,100.5 78.2,94.9 84.2,97.7 84.2,99.6 80.2,97.8 79.7,98.7 83.3,100.5 85,104.6 81.4,101.3 80.6,101.3 "
         class="st2" /></g><g
       id="g38"><polygon
         style="fill:#678a6f"
         id="polygon36"
         points="76.7,101.1 76.7,104.8 66.7,108.6 63.2,101.2 62.4,96.4 64.7,94.9 71.5,94.5 73.1,98.7 "
         class="st4" /></g><g
       id="g42"><polygon
         style="fill:#3a3a3a"
         id="polygon40"
         points="53.5,81.8 34.7,100.5 34.7,112.7 39.4,128.8 39.4,120.3 50.6,93 63.4,84.4 "
         class="st2" /></g><g
       id="g46"><path
         style="fill:#3a3a3a"
         inkscape:connector-curvature="0"
         id="path44"
         d="m 95,82.1 c -0.2,0 -12.1,3 -12.1,3 L 71.1,94.9 H 64.7 L 84.2,82.1 Z"
         class="st2" /></g><g
       id="g50"><polygon
         style="fill:#79a281"
         id="polygon48"
         points="88.8,75.8 88.3,69.9 100.1,70.7 110.9,73.8 115.7,81.5 110,84.5 "
         class="st5" /></g><g
       id="g54"><polygon
         style="fill:#3a3a3a"
         id="polygon52"
         points="110.8,79.3 113.8,81 113.6,81.4 110.8,79.8 108.9,81.2 108.7,80.9 "
         class="st2" /></g><g
       id="g58"><polygon
         style="fill:#8fc19a"
         id="polygon56"
         points="61.2,68.1 64.2,61.3 86.9,67 86.9,80.1 78.2,76.8 "
         class="st3" /></g><g
       id="g62"><polygon
         style="fill:#7aa383"
         id="polygon60"
         points="92.5,63.6 82.3,53.5 82.6,44.1 "
         class="st6" /></g><g
       id="g66"><polygon
         style="fill:#cce2d2"
         id="polygon64"
         points="69.7,46.6 88.8,67.4 82.7,41.2 34.6,0 41.7,19.6 "
         class="st7" /></g><g
       id="g70"><polygon
         style="fill:#acd2b4"
         id="polygon68"
         points="51.4,40.1 69.7,46.6 32.3,10.4 33.9,20.1 "
         class="st1" /></g><g
       id="g74"><polygon
         style="fill:#393839"
         id="polygon72"
         points="23.7,54.7 9.6,41.8 29.1,47.1 44.9,62.7 28.1,57.7 "
         class="st8" /></g><g
       id="g78"><polygon
         style="fill:#acd2b4"
         id="polygon76"
         points="60.7,75.4 42,73.7 27.2,65.7 61.1,72.1 "
         class="st1" /></g><g
       id="g82"><polygon
         style="fill:#678a6f"
         id="polygon80"
         points="55.7,79 48.2,78.3 36.7,74.6 61.4,75.5 85.5,77.5 88.3,82.7 82.3,81.6 69.2,80.4 59.7,76.8 "
         class="st4" /></g><g
       id="g86"><polygon
         style="fill:#cce1d1"
         id="polygon84"
         points="38.4,68.7 18.1,54.5 59.1,67 78.2,76.8 60.7,75.4 "
         class="st9" /></g><g
       id="g90"><polygon
         style="fill:#78a381"
         id="polygon88"
         points="61.2,68.1 64.2,61.3 2.6,24.4 14,40.6 30.5,53.3 44.9,62.7 "
         class="st10" /></g><g
       id="g94"><polygon
         style="fill:#393839"
         id="polygon92"
         points="69.7,46.6 0,10.4 17.9,34.9 64.2,61.3 88.8,67.4 "
         class="st8" /></g><g
       id="g98"><polygon
         style="fill:#cce1d1"
         id="polygon96"
         points="110,84.5 110.4,86.2 98.7,82.1 88.3,82.1 86.9,80 86.9,67 88.8,67.4 88.8,67.8 100.1,70.7 90.3,72.1 98.1,75.4 90.3,75.6 102.6,80.5 "
         class="st9" /></g><g
       id="g102"><polygon
         style="fill:#3a3a3a"
         id="polygon100"
         points="111,88.4 110,84.5 115.7,81.5 115.7,88.2 112.7,90.8 109.6,90.8 "
         class="st2" /></g><g
       id="g106"><polygon
         style="fill:#cde3d2"
         id="polygon104"
         points="59.6,98.2 57.5,95.1 49.4,112.4 51.6,115.2 51.1,115.9 52.7,131.9 42.5,112.5 51.2,91.9 69.2,80.4 84.2,82 84.2,82.1 "
         class="st11" /></g><g
       id="g110"><polygon
         style="fill:#8fc19a"
         id="polygon108"
         points="29.8,101.2 37.6,90.5 59.7,76.8 69.2,80.4 34.7,102 27.2,110.9 "
         class="st3" /></g><g
       id="g114"><polygon
         style="fill:#78a381"
         id="polygon112"
         points="57.5,95.1 59.6,98.2 59.6,122.5 62.7,130.2 49.4,112.4 "
         class="st10" /></g><g
       id="g118"><polygon
         style="fill:#3a3a3a"
         id="polygon116"
         points="25.7,95.8 25.7,99.2 32.1,90.6 "
         class="st2" /></g><g
       id="g122"><polygon
         style="fill:#678a6f"
         id="polygon120"
         points="33.4,124.6 31,123.1 31,114.8 32.3,117.9 "
         class="st4" /></g></g></svg>