<?xml version="1.0" encoding="utf-8"?>
<!-- Generator: Adobe Illustrator 24.0.0, SVG Export Plug-In . SVG Version: 6.00 Build 0)  -->
<svg version="1.1" id="Layer_1" xmlns="http://www.w3.org/2000/svg" xmlns:xlink="http://www.w3.org/1999/xlink" x="0px" y="0px"
	 viewBox="0 0 120 60" width="120" height="60" style="enable-background:new 0 0 120 60;" xml:space="preserve">
<style type="text/css">
	.st0{fill-rule:evenodd;clip-rule:evenodd;fill:#256EFF;}
</style>
<path class="st0" d="M18.4,36.4c-0.5,0.6-1.2,1-1.9,1.4c-0.7,0.3-1.6,0.5-2.6,0.5s-1.9-0.1-2.6-0.4c-0.8-0.3-1.4-0.7-2-1.2
	c-0.5-0.5-0.9-1.2-1.2-1.9c-0.3-0.7-0.4-1.6-0.4-2.5c0-0.8,0.2-1.6,0.5-2.4c0.3-0.7,0.7-1.4,1.3-1.9c0.5-0.6,1.2-1,2-1.3
	c0.8-0.3,1.6-0.5,2.5-0.5c0.9,0,1.8,0.2,2.6,0.5c0.8,0.3,1.4,0.8,2,1.4l-1.9,1.9c-0.3-0.4-0.7-0.7-1.2-0.9c-0.4-0.2-1-0.3-1.5-0.3
	c-0.6,0-1,0.1-1.5,0.3c-0.4,0.2-0.8,0.5-1,0.8c-0.3,0.3-0.5,0.7-0.6,1.1c-0.1,0.4-0.2,0.9-0.2,1.3c0,0.4,0.1,0.9,0.2,1.3
	c0.1,0.4,0.3,0.8,0.6,1.1c0.3,0.3,0.6,0.6,1,0.8c0.4,0.2,0.9,0.3,1.5,0.3c0.6,0,1.1-0.1,1.6-0.3s0.9-0.5,1.2-0.9L18.4,36.4z
	 M20.4,37.9V21.7h2.9v16.2H20.4z M34,31c0-0.3-0.1-0.6-0.2-0.9c-0.1-0.3-0.3-0.6-0.5-0.8c-0.2-0.2-0.5-0.4-0.9-0.6s-0.7-0.2-1.2-0.2
	c-0.5,0-0.9,0.1-1.3,0.2c-0.4,0.2-0.7,0.4-0.9,0.6c-0.2,0.2-0.4,0.5-0.6,0.8c-0.1,0.3-0.2,0.6-0.2,0.9H34z M36.8,36.3l-0.4,0.4
	c-0.2,0.2-0.5,0.5-1,0.7c-0.4,0.2-1,0.5-1.6,0.7c-0.7,0.2-1.4,0.3-2.3,0.3c-0.9,0-1.8-0.2-2.5-0.5s-1.4-0.7-1.9-1.3
	c-0.5-0.5-0.9-1.2-1.2-2c-0.3-0.8-0.4-1.6-0.4-2.5c0-0.8,0.1-1.6,0.4-2.4c0.3-0.7,0.7-1.4,1.2-1.9c0.5-0.5,1.1-1,1.9-1.3
	c0.7-0.3,1.5-0.5,2.4-0.5c1.1,0,2,0.2,2.7,0.6c0.7,0.4,1.3,0.9,1.8,1.5c0.4,0.6,0.8,1.3,1,2.1c0.2,0.8,0.3,1.6,0.3,2.4v0.4h-8.7
	c0,0.4,0.1,0.8,0.3,1.1c0.2,0.3,0.4,0.6,0.7,0.9c0.3,0.2,0.7,0.4,1,0.6c0.4,0.1,0.8,0.2,1.2,0.2c0.6,0,1.1-0.1,1.5-0.2
	c0.4-0.1,0.8-0.2,1.1-0.4c0.3-0.1,0.5-0.3,0.7-0.4s0.3-0.3,0.4-0.4L36.8,36.3z M45.9,32.8c-0.3,0-0.6,0-0.9,0c-0.2,0-0.5,0-0.7,0
	c-0.3,0-0.5,0-0.7,0c-0.9,0-1.6,0.2-2,0.5c-0.4,0.4-0.6,0.8-0.6,1.3c0,0.5,0.2,0.9,0.5,1.1c0.4,0.3,0.9,0.4,1.6,0.4
	c0.3,0,0.7-0.1,1-0.2c0.3-0.1,0.6-0.3,0.9-0.5c0.2-0.2,0.4-0.4,0.6-0.7c0.2-0.3,0.2-0.5,0.2-0.8V32.8z M45.9,36.9
	c-0.3,0.4-0.8,0.7-1.4,1c-0.6,0.3-1.4,0.4-2.2,0.4c-0.5,0-1-0.1-1.4-0.2c-0.5-0.1-0.9-0.4-1.3-0.7c-0.4-0.3-0.7-0.7-0.9-1.2
	c-0.2-0.5-0.4-1-0.4-1.7c0-0.6,0.1-1.2,0.4-1.7c0.2-0.5,0.6-0.9,1-1.3c0.4-0.3,1-0.6,1.6-0.8c0.6-0.2,1.3-0.3,2.1-0.3
	c0.2,0,0.5,0,0.8,0c0.3,0,0.6,0,0.8,0c0.3,0,0.6,0,0.9,0v-0.3c0-0.6-0.2-1-0.7-1.3c-0.5-0.3-1.1-0.5-1.8-0.5c-0.8,0-1.5,0.1-2,0.3
	c-0.5,0.2-0.9,0.4-1.3,0.7l-1.3-1.9c0.2-0.2,0.5-0.3,0.8-0.5c0.3-0.2,0.6-0.3,1-0.5c0.4-0.1,0.9-0.3,1.4-0.3
	c0.5-0.1,1.1-0.1,1.8-0.1c0.7,0,1.4,0.1,2,0.3c0.6,0.2,1.1,0.5,1.5,0.9c0.4,0.4,0.8,0.8,1,1.3c0.2,0.5,0.3,1.1,0.3,1.7v7.7H46
	L45.9,36.9z M51.4,26.5h2.8l0.1,1.4c0.1-0.2,0.3-0.3,0.5-0.5c0.2-0.2,0.4-0.4,0.7-0.5c0.3-0.2,0.6-0.3,1-0.4
	c0.4-0.1,0.8-0.2,1.3-0.2c0.3,0,0.5,0,0.8,0c0.2,0,0.4,0.1,0.7,0.2l-0.6,2.7c-0.2-0.1-0.4-0.1-0.6-0.2s-0.4,0-0.7,0
	c-0.4,0-0.8,0.1-1.1,0.2c-0.4,0.1-0.7,0.3-0.9,0.6c-0.3,0.2-0.5,0.5-0.6,0.9c-0.2,0.3-0.2,0.7-0.2,1.1v6.2h-2.9V26.5z M63.6,35.6
	c0.2,0.1,0.5,0.1,0.7,0.2c0.2,0,0.6,0.1,1.2,0.1c0.6,0,1.1-0.1,1.6-0.3c0.4-0.2,0.8-0.5,1.1-0.8c0.3-0.3,0.5-0.7,0.7-1.2
	c0.2-0.4,0.2-0.9,0.2-1.4c0-0.4-0.1-0.9-0.2-1.3c-0.1-0.4-0.3-0.8-0.5-1.1c-0.2-0.3-0.5-0.6-0.9-0.8c-0.4-0.2-0.8-0.3-1.3-0.3
	c-0.9,0-1.6,0.2-2,0.7c-0.5,0.4-0.7,1.1-0.7,1.8V35.6z M60.6,21.7h2.9v5.6c0.2-0.2,0.6-0.4,1.1-0.7c0.6-0.2,1.2-0.4,2-0.4
	c0.8,0,1.6,0.2,2.2,0.5c0.7,0.3,1.2,0.7,1.7,1.2c0.5,0.5,0.8,1.1,1.1,1.9c0.2,0.7,0.4,1.5,0.4,2.3c0,0.9-0.2,1.7-0.5,2.4
	s-0.7,1.4-1.3,2c-0.6,0.6-1.3,1-2.1,1.3c-0.8,0.3-1.7,0.5-2.7,0.5c-1,0-1.9-0.1-2.8-0.2c-0.8-0.2-1.5-0.3-2.1-0.5V21.7z M74.2,26.5
	H77l0.1,1.4c0.1-0.2,0.3-0.3,0.5-0.5c0.2-0.2,0.4-0.4,0.7-0.5c0.3-0.2,0.6-0.3,1-0.4c0.4-0.1,0.8-0.2,1.3-0.2c0.3,0,0.5,0,0.8,0
	c0.2,0,0.4,0.1,0.7,0.2l-0.6,2.7c-0.2-0.1-0.4-0.1-0.6-0.2c-0.2,0-0.4,0-0.7,0c-0.4,0-0.8,0.1-1.1,0.2c-0.4,0.1-0.7,0.3-0.9,0.6
	c-0.3,0.2-0.5,0.5-0.6,0.9c-0.2,0.3-0.2,0.7-0.2,1.1v6.2h-2.9V26.5z M90.3,32.8c-0.3,0-0.6,0-0.9,0c-0.2,0-0.5,0-0.7,0
	c-0.3,0-0.5,0-0.7,0c-0.9,0-1.6,0.2-2,0.5c-0.4,0.4-0.6,0.8-0.6,1.3c0,0.5,0.2,0.9,0.5,1.1c0.4,0.3,0.9,0.4,1.6,0.4
	c0.3,0,0.7-0.1,1-0.2c0.3-0.1,0.6-0.3,0.9-0.5c0.2-0.2,0.4-0.4,0.6-0.7c0.2-0.3,0.2-0.5,0.2-0.8V32.8z M90.3,36.9
	c-0.3,0.4-0.8,0.7-1.4,1c-0.6,0.3-1.4,0.4-2.2,0.4c-0.5,0-1-0.1-1.4-0.2c-0.5-0.1-0.9-0.4-1.3-0.7c-0.4-0.3-0.7-0.7-0.9-1.2
	c-0.2-0.5-0.4-1-0.4-1.7c0-0.6,0.1-1.2,0.4-1.7c0.2-0.5,0.6-0.9,1-1.3c0.4-0.3,1-0.6,1.6-0.8c0.6-0.2,1.3-0.3,2.1-0.3
	c0.2,0,0.5,0,0.8,0c0.3,0,0.6,0,0.8,0c0.3,0,0.6,0,0.9,0v-0.3c0-0.6-0.2-1-0.7-1.3c-0.5-0.3-1.1-0.5-1.8-0.5c-0.8,0-1.5,0.1-2,0.3
	c-0.5,0.2-0.9,0.4-1.3,0.7l-1.3-1.9c0.2-0.2,0.5-0.3,0.8-0.5c0.3-0.2,0.6-0.3,1-0.5s0.9-0.3,1.4-0.3c0.5-0.1,1.1-0.1,1.8-0.1
	c0.7,0,1.4,0.1,2,0.3c0.6,0.2,1.1,0.5,1.5,0.9c0.4,0.4,0.8,0.8,1,1.3s0.3,1.1,0.3,1.7v7.7h-2.7L90.3,36.9z M95.8,37.9V26.5h2.9v11.4
	H95.8z M97.2,25.1c-1,0-1.7-0.8-1.7-1.7c0-1,0.8-1.7,1.7-1.7h0.1c1,0,1.7,0.8,1.7,1.7C99,24.4,98.3,25.1,97.2,25.1L97.2,25.1z
	 M101.5,26.5h2.8l0.1,1.3c0.1-0.2,0.3-0.3,0.5-0.5c0.2-0.2,0.5-0.3,0.7-0.5c0.3-0.2,0.6-0.3,1-0.4c0.4-0.1,0.8-0.1,1.2-0.1
	c1.5,0,2.6,0.4,3.3,1.3c0.8,0.9,1.1,2,1.1,3.4v6.9h-2.9V31c0-0.7-0.2-1.3-0.6-1.7c-0.4-0.4-0.9-0.6-1.6-0.6c-0.4,0-0.8,0.1-1.1,0.2
	c-0.3,0.2-0.6,0.4-0.9,0.6s-0.4,0.6-0.6,1c-0.1,0.4-0.2,0.8-0.2,1.2v6.2h-2.9V26.5z"/>
</svg>
