<svg xmlns="http://www.w3.org/2000/svg" width="120" height="60" viewBox="-1.414 -1.414 14.935 7.473"><path d="M9.05 3H8.3V.407h.748zm-3.066-.7l-.704-.64V1.1h-.003l.707.646v.587zM7.435.408v1.894L5.33.4h-.797V1L3.87.4h-.795V3h.748V1.117l2.122 1.895h.783v-.605l.667.604h.797V.408zm4.387 0v.287s-.65-.002-.92.07c0 0-.47.107-.6.227 0 0-.4.184-.4.767 0 0 .01.637.82.837 0 0 .392.126.95.118 0 0 .143 0 .167-.014v.308s-1.314.066-2.03-.357c0 0-.562-.305-.637-.837 0 0-.085-.442.264-.766 0 0 .277-.355 1.053-.52 0 0 .422-.104.875-.12l.48-.001zm-8.853 0v.287s-.65-.002-.92.07c0 0-.47.107-.6.227 0 0-.4.184-.4.767 0 0 .01.637.82.837 0 0 .392.126.95.118 0 0 .143 0 .167-.014v.308s-1.314.066-2.03-.357c0 0-.562-.305-.636-.837 0 0-.085-.442.263-.766 0 0 .277-.355 1.053-.52 0 0 .422-.104.875-.12l.48-.001z" fill="#007fc2"/><path d="M10.437 3.846h-.316V3.63h.316zm-.403 0h-.297V3.63h.297zm.52-.237c-.073-.056-.084-.054-.084-.054l-.05.045h-.295v-.13c.058-.025.04-.032.04-.032-.073-.032-.13-.034-.13-.034v.194h-.3c-.015-.012-.08-.036-.08-.036v.382c.064.01.08-.023.08-.023v-.04h.297v.35c.088-.004.088-.02.088-.02v-.33h.314v.064c.076.015.1-.024.1-.024v-.26c.017-.007.024-.02.024-.02.026-.025.004-.03.004-.03m.986.07c.087.037.208.1.24.144.026.035.032.06.024.087s-.028.04-.05.04-.034-.025-.056-.068a.52.52 0 0 0-.165-.173zm-.208-.202c.04.03.06.054.055.083s-.02.047-.04.052-.044-.013-.068-.06c-.037-.073-.067-.1-.108-.117l.013-.034c.072.035.106.046.15.076m-.265.083l.117.054-.052.037v.416c.01.025.007.04.057.056l.242.001c.05-.01.073-.03.077-.08l.002-.112h.038c.006.072-.004.094.007.123s.063.043.063.043c.004.042-.077.083-.098.08h-.38c-.053-.007-.086-.04-.1-.077v-.54m-.148.164l.005.124c0 .02.001.03-.005.06a.13.13 0 0 1-.07.106c-.038.023-.065.013-.084-.01s.016-.048.057-.104a.31.31 0 0 0 .038-.068.56.56 0 0 0 .03-.105zm-1.66.25l.14.07c.033.02.078.047.074.08s-.033.06-.052.064-.044-.04-.068-.08c-.017-.04-.058-.056-.1-.106zm-.36-.032c.056.012.1.026.12.058.02.023.038.028.03.05-.005.016-.02.046-.038.05-.048.01-.046-.022-.056-.054s-.02-.046-.06-.086l.005-.02zm-.2.03L8.8 4s.02.03-.018.043l-.003.062c-.001.05.033.053.063.05h.235c.024.003.064-.006.08-.027.007-.03.024-.067.02-.105l.03.002c.002.03 0 .046.008.065s.03.056.05.062c-.024.037-.053.055-.183.063l-.3-.01c-.045.004-.093-.013-.1-.07l.001-.16m.014-.074h.46v-.1h-.462zm.001-.13h.46v-.1h-.46zm0-.124h.46v-.1h-.46zm-.08-.164l.07.033.113-.001c.013-.023.03-.063.033-.116l.114.042a.18.18 0 0 0-.047.03c-.02.014-.03.03-.043.048h.282l.037-.043.1.06-.034.045v.36c-.005.018-.02.023-.028.027H9.16v-.034H8.7s-.02.038-.083.04l.001-.492zm-.042.532c.03.087.002.12-.02.146s-.037.044-.073.045c-.03.001-.057-.003-.064-.02s.006-.052.054-.062c.04-.017.06-.06.086-.108zm-.833.093h.313v-.157H7.75zm.395.1l-.082.027.001-.087-.3-.001-.004.056c-.004.022-.04.027-.04.027l-.042.001v-.35l.082.047.3-.002.062-.042.087.065-.046.033zm.056-.523v.03h-.5c-.017 0-.022.005-.04.012l-.03-.045h.467l.043-.05zm0 .13v.022h-.492c-.014.001-.026.012-.05.01l-.027-.04h.442l.052-.052a.48.48 0 0 0 .074.062m.097-.25v.03h-.652c-.033 0-.032.005-.06.012l-.025-.044h.306c0-.02-.003-.033-.018-.06-.012-.022-.01-.018-.047-.05 0 0-.003-.02.017-.03.01-.004.143.094.12.07-.002-.002.036.037.006.068h.226l.052-.052.074.053zm-.885.677L7.4 3.7c-.06.066-.106.12-.16.16l-.018-.02c.083-.092.145-.156.194-.25s.076-.166.082-.2l.115.063c-.018.007-.04.013-.067.056s-.048.067-.075.1l.048.03-.037.022.001.528c-.01.026-.08.026-.08.026m-.652-.533c.045-.048.052-.066.1-.135l-.22.001a.48.48 0 0 0 .118.134m-.13.408h.254l.001-.18H6.63zm-.026.123l-.055-.001-.002-.314c-.04.014-.098.04-.174.055l.003-.04c.168-.034.266-.13.35-.195-.048-.052-.068-.062-.095-.133-.05.07-.104.114-.162.163l-.014-.01.102-.164a1.57 1.57 0 0 0 .082-.2l.106.06-.028.018-.042.06.194-.001.043-.045.094.072-.044.017c-.054.06-.074.1-.15.156.086.058.212.087.333.1v.022c-.04-.001-.124.013-.136.042a.69.69 0 0 1-.235-.116c-.055.036-.073.067-.158.1l.005.017.26-.002.043-.028.076.05-.034.02v.247c-.008.026-.017.024-.036.03l-.045.001-.001-.075-.257-.001v.07c-.004.01-.026.022-.026.022m-.164-.33v.018c-.073.012-.15.04-.196.05-.07.016-.086.01-.12.034l-.053-.1c.02 0 .094-.018.12-.062.033-.055.04-.048.07-.1l-.088.014c-.026.005-.046.007-.073.023l-.066-.08c.087-.01.08-.038.125-.1s.082-.146.1-.198l.1.057-.028.014c-.073.07-.12.14-.18.2v.04h.14c.025-.033.067-.1.088-.15l.1.06v.022l-.033.002-.25.25v.013l.233-.012m-.256.188l.258-.04.01.026-.198.052c-.06.015-.1.033-.15.054l-.056-.08.135-.013m-.812-.464a.92.92 0 0 0 .14.166s.02.006-.008.04c0 0-.1.154-.165.216l.025.02s.17-.156.195-.2a.43.43 0 0 0 .058.123s.04.02.05.008c0 0 .06-.056.022-.096l-.076-.096s-.006-.018.003-.024l.072-.166.027-.007V3.58l-.1-.037s-.02.042-.03.076l-.033.096c-.015-.005-.132-.12-.152-.12l-.027.01zm-.3-.014a.75.75 0 0 0 .126.15s.02.006-.008.04c0 0-.057.115-.123.177l.025.02s.132-.126.155-.168c0 0 .07.1.07.133 0 0 .03.012.04.002 0 0 .046-.05.027-.1l-.1-.107s-.007-.018.003-.025l.066-.146.022-.002v.013l-.093-.04s-.026.04-.028.082l-.026.08c-.015-.006-.118-.104-.14-.104l-.027.01zm-.114.62v-.805a.26.26 0 0 0 .066.038h.716l.05-.044.076.043-.028.043v.655s-.013.07-.12.073c0 0-.04-.087-.137-.08H5.55V4.12h.056s.048.01.057.016c0 0 .082.015.084-.013v-.627h-.734v.7s-.013.03-.073.033m-.922-.593h-.14V3.5h.14zm0 .173h-.14v-.14h.14zm0 .156l-.14.028-.001-.15h.14v.124zm.55.088c-.06-.06-.07-.102-.104-.195h.27l-.001-.024-.078-.067-.04.06H4.45V3.65h.28v-.025l-.076-.06-.045.053H4.5c.064-.046.14-.132.17-.147l.022-.014-.117-.055a.73.73 0 0 1-.117.216l-.292.001.024.042c.032-.002.07 0 .088-.01l.106.001-.008.172-.236.001.02.04c.022 0 .03-.01.04-.01l.17.001c-.006.092.002.115-.04.177a.48.48 0 0 1-.208.158V4l.157-.037-.02-.032-.136.026V3.5h.114c.02-.012-.006-.033-.006-.033l-.07-.058-.047.058h-.38l.027.047.032-.014h.04v.494c-.044.01-.04.01-.116.01l.063.07c.124-.05.1-.033.268-.08v.205h.025c.013-.002.035-.01.044-.016l.015.028c.115-.026.24-.142.24-.142.056-.058.077-.2.077-.2h.01c.018.1.02.114.054.173s.1.098.17.142c.012-.024.045-.054.098-.05V4.13c-.03-.001-.126-.022-.182-.08m-.282-.5c.016.046.013.08.054.057.026-.015.053-.06.05-.075s-.028-.033-.055-.05l-.115-.07-.014.023c.043.04.066.073.08.114m-.76-.06v.02h-.56l-.032.156h.268l.046-.043.086.06-.04.035-.066.417h.197L3.5 4.05l.1.083c.01.014-.006.026-.006.026H2.61c-.01 0-.01.004-.027.01l-.037-.043h.614l.026-.2H2.9l-.03.034-.08-.052v-.023l.032-.01.077-.386h-.183c-.034 0-.067.002-.094.01l-.034-.034H3.4l.06-.063.097.067zm-.64.426l.287-.001.034-.215-.278-.001-.043.217zm-.795-.04c.027.02.036.05.008.076s-.053.026-.07-.008-.06-.1-.08-.1c-.01-.025.01-.026.01-.026.07.025.106.028.133.05m.118-.283v.03l-.304.001-.001.155h.125l.05-.058.08.07c-.003.017-.02.02-.02.02h-.236v.18l.205-.001.046-.06.077.07c.003.022-.022.022-.022.022H1.58l-.012-.034h.283v-.182l-.214.001-.03-.03.244-.001V3.62h-.22l-.034.012-.028-.045h.538l.046-.06.075.06zm-.693.532h.734v-.652l-.732.003-.002.65zm-.08-.72l.082.04h.725l.042-.04.1.063-.043.032v.7s-.03.02-.08.013V4.15H1.54l.002.05s-.012.033-.086.02l.001-.826zm-.697.45h.32V3.63l-.32.001.001.213zm-.38 0l.297-.001.001-.215h-.3v.216zm.297.034h-.3l-.001.03s-.02.033-.056.033H.287V3.56l.077.04h.3l-.002-.2.125.04-.042.028.001.132h.302l.05-.045.096.06-.047.047.002.27s-.01.02-.08.016v-.066L.75 3.88v.326s-.023.03-.084.03V3.88z" fill="#666"/></svg>