<svg xmlns="http://www.w3.org/2000/svg" width="120" height="60"><g fill="#231f20"><path d="M23.132 27.683v7.868h-1.944v-7.326c0-.678-.136-1.22-.362-1.537-.27-.317-.633-.497-1.176-.497-.407 0-.86.136-1.3.362s-.904.588-1.357 1.04v8.004h-1.9V24.744h1.764v1.447c.633-.588 1.22-.995 1.764-1.22s1.085-.362 1.628-.362c.904 0 1.628.27 2.125.814.497.497.77 1.266.77 2.26m6.283-7.1v1.583l-.814-.045c-.18 0-.317-.045-.407-.045-.452 0-.77.1-.95.317s-.27.543-.27 1.04V24.7h2.397v1.628h-2.397v9.225h-1.9v-12.4c0-.904.226-1.583.724-2.035.452-.452 1.13-.724 2.035-.724.18 0 .407 0 .633.045.18.045.452.1.95.136m4.872 3.943c1.402 0 2.532.497 3.3 1.447s1.176 2.306 1.176 4.07-.407 3.12-1.176 4.07-1.9 1.447-3.3 1.447-2.532-.497-3.3-1.447-1.176-2.306-1.176-4.07c0-1.718.407-3.075 1.176-4.07.77-.95 1.854-1.447 3.3-1.447m0 1.673c-.814 0-1.447.317-1.9.95-.407.633-.633 1.583-.633 2.85s.226 2.216.633 2.894c.407.633 1.04.995 1.9.995.814 0 1.447-.317 1.854-.995.452-.633.633-1.628.633-2.85 0-1.266-.226-2.216-.633-2.894-.407-.633-1.04-.95-1.854-.95m16.913-5.698h1.9v15.103h-1.9z"/><path d="M11.194 20.493h1.9v15.103h-1.9zM42.44 35.597V34.42c.317.317.633.588 1.04.77a3.55 3.55 0 0 0 1.583.362c1.357 0 2.397-.497 3.12-1.447.77-.995 1.13-2.35 1.13-4.07 0-1.673-.407-2.985-1.176-3.98s-1.8-1.447-3.12-1.447c-.543 0-.995.136-1.447.317a2.96 2.96 0 0 0-1.13.995v-5.426h-1.9v15.103zm4.25-2.668c-.452.678-1.085.995-1.9.995-.452 0-.86-.1-1.22-.317s-.77-.543-1.085-.995v-5.155c.362-.407.724-.77 1.085-.95.362-.226.77-.317 1.176-.317.86 0 1.537.317 2 .995s.678 1.673.678 2.94c-.1 1.22-.27 2.17-.724 2.804m12.743-8.41c1.402 0 2.532.497 3.3 1.447s1.176 2.306 1.176 4.07-.407 3.12-1.176 4.07-1.9 1.447-3.3 1.447-2.532-.497-3.3-1.447-1.176-2.306-1.176-4.07c0-1.718.407-3.075 1.176-4.07.77-.95 1.9-1.447 3.3-1.447m0 1.673c-.814 0-1.447.317-1.9.95-.407.633-.633 1.583-.633 2.85s.226 2.216.633 2.894c.407.633 1.04.995 1.9.995.814 0 1.447-.317 1.854-.995.452-.633.633-1.628.633-2.85 0-1.266-.226-2.216-.633-2.894-.407-.633-1.04-.95-1.854-.95m8.23 3.572l-3.12-5.2h2.216l2 3.618 2.035-3.618h2.08l-3.03 5.2 3.437 5.743h-2.216l-2.35-4.296-2.35 4.296h-2.08z"/></g><path d="M83.95 27.726l-5.457-4.092c-.152-.152-.227-.303-.227-.38 0-.152.076-.303.227-.38l5.457-4.092c.38-.303 1.137-.303 1.59 0l5.457 4.092c.152.152.227.303.227.38 0 .152-.076.303-.227.38l-5.457 4.092c-.455.303-1.213.303-1.59 0" fill="#95c840"/><path d="M83.95 40.913l-5.457-4.092c-.152-.152-.227-.303-.227-.38 0-.152.076-.303.227-.38l5.457-4.092c.38-.303 1.137-.303 1.59 0l5.457 4.092c.152.152.227.303.227.38 0 .152-.076.303-.227.38l-5.457 4.092c-.455.38-1.213.38-1.59 0" fill="#59c9e6"/><path d="M92.74 21.21l-5.457-4.092c-.152-.152-.227-.303-.227-.455s.076-.303.227-.38L92.74 12.2a1.51 1.51 0 0 1 1.591 0l5.457 4.092c.152.152.227.303.227.38 0 .152-.076.303-.227.455l-5.457 4.092a1.51 1.51 0 0 1-1.591 0" fill="#ebe719"/><path d="M92.74 34.396l-5.457-4.092c-.152-.152-.227-.303-.227-.38 0-.152.076-.303.227-.38l5.457-4.092a1.51 1.51 0 0 1 1.591 0l5.457 4.092c.152.152.227.303.227.38 0 .152-.076.303-.227.38l-5.457 4.092a1.51 1.51 0 0 1-1.591 0" fill="#50c0af"/><path d="M92.74 47.8l-5.457-4.092c-.152-.152-.227-.303-.227-.455s.076-.303.227-.38l5.457-4.092a1.51 1.51 0 0 1 1.591 0l5.457 4.092c.152.152.227.303.227.38 0 .152-.076.303-.227.455L94.332 47.8a1.51 1.51 0 0 1-1.591 0" fill="#0377bb"/><path d="M101.53 27.726l-5.457-4.092c-.152-.152-.227-.303-.227-.38 0-.152.076-.303.227-.38l5.457-4.092c.38-.303 1.137-.303 1.59 0l5.457 4.092c.152.152.227.303.227.38 0 .152-.076.303-.227.38l-5.457 4.092c-.38.303-1.137.303-1.59 0" fill="#78bc43"/><path d="M101.53 40.913l-5.457-4.092c-.152-.152-.227-.303-.227-.38 0-.152.076-.303.227-.38l5.457-4.092c.38-.303 1.137-.303 1.59 0l5.457 4.092c.152.152.227.303.227.38 0 .152-.076.303-.227.38l-5.457 4.092c-.38.38-1.137.38-1.59 0" fill="#109fda"/></svg>