<svg xmlns="http://www.w3.org/2000/svg" xml:space="preserve" width="80" height="94" version="1.0">
    <path d="M842.726 485.769h-42.072v8.93c0 8.53-4.559 14.492-15.08 14.492v32.54h8.73v35.909c0 33.73 15.48 44.652 42.26 44.652 19.25 0 34.13-5.95 34.13-5.95v-31.15s-9.13 1.792-16.47 1.792c-7.54 0-11.51-3.77-11.51-12.7v-32.54h26.79v-32.54h-26.79ZM685.762 616.142s17.66 6.15 47.82 6.15c34.332 0 50.013-14.492 50.013-38.101 0-23.021-14.291-34.131-44.852-37.3-12.3-1.19-15.08-2.58-15.08-5.749s4.559-4.76 15.28-4.76c16.27 0 37.7 2.781 37.7 2.781v-26.791s-15.668-5.95-46.029-5.95c-36.11 0-50.601 15.67-50.601 36.31 0 22.22 16.67 33.931 44.251 37.701 12.5 1.791 15.28 2.981 15.28 6.55 0 3.17-2.58 5.161-14.29 5.161-14.68 0-39.492-3.57-39.492-3.57zm-86.31-106.951H545.08v32.54h8.73v32.54c0 33.141 13.49 48.02 35.12 48.02 17.86 0 27.18-9.92 33.53-16.27v13.49h54.37v-32.54h-8.73v-77.78h-56.35v32.54h10.71v32.54c0 8.93-3.971 12.7-11.511 12.7s-11.51-3.77-11.51-12.7zM460.75 554.43c16.47 0 23.221 2.58 23.221 18.45v46.63h62.9v-32.54h-9.318v-15.28c0-13.89-6.35-21.43-19.05-23.41l-.2-1.979c13.489-5.16 20.64-19.05 20.64-36.51 0-32.74-20.04-44.652-52.58-44.652h-93.06v32.54H405.2v89.291h-11.899v32.54h80.561v-32.54h-13.1c-.013 0-.013-32.54-.013-32.54m0-24.21v-32.54h10.709c7.54 0 11.51 3.77 11.51 12.7v7.139c0 8.93-3.97 12.7-11.51 12.7z" style="fill:#010202;stroke-width:1.2525" transform="translate(-47.206 .94)scale(.13736)"/>
    <path d="M38.584 15.174a1.424 1.424 0 1 1 2.848 0 1.424 1.424 0 0 1-2.848 0M21.596 28.066a1.424 1.424 0 1 1 2.848 0 1.424 1.424 0 0 1-2.848 0m33.976.066a1.424 1.424 0 0 1 2.848 0 1.424 1.424 0 0 1-2.848 0m-29.856 1.955a1.303 1.303 0 0 0 .66-1.716l-.631-1.428h2.485v11.2h-5.014a17.5 17.5 0 0 1-.568-6.693zm10.394.275v-3.301h5.918c.305 0 2.156.353 2.156 1.737 0 1.15-1.423 1.563-2.59 1.563zm-8.079 17.775a1.424 1.424 0 1 1 2.848 0 1.424 1.424 0 0 1-2.848 0m21.101.066a1.424 1.424 0 0 1 2.848 0 1.424 1.424 0 0 1-2.848 0m.44-3.23a1.3 1.3 0 0 0-1.542.999l-.714 3.336a17.53 17.53 0 0 1-14.62-.07L31.98 45.9a1.296 1.296 0 0 0-1.542-.998l-2.945.631a17.5 17.5 0 0 1-1.523-1.795H40.3c.161 0 .27-.03.27-.177v-5.068c0-.15-.109-.176-.27-.176h-4.193v-3.214h4.533c.413 0 2.211.12 2.788 2.417l.846 3.743c.269.824 1.367 2.475 2.534 2.475h7.397a17.5 17.5 0 0 1-1.625 1.88zM57.53 31.59a17.5 17.5 0 0 1 .037 3.044H55.77c-.18 0-.255.12-.255.295v.827c0 1.946-1.096 2.365-2.057 2.475-.914.105-1.932-.384-2.054-.944-.54-3.036-1.438-3.683-2.845-4.806 1.762-1.12 3.596-2.77 3.596-4.981 0-2.387-1.636-3.89-2.752-4.627-1.564-1.033-3.297-1.238-3.764-1.238H27.02a17.53 17.53 0 0 1 9.809-5.536l2.194 2.302c.494.52 1.317.539 1.835.042l2.456-2.347a17.53 17.53 0 0 1 12.003 8.548l-1.68 3.795a1.303 1.303 0 0 0 .66 1.715zm4.19.06-.058-.587 1.731-1.614c.352-.33.22-.988-.229-1.156l-2.211-.826-.174-.57 1.377-1.916c.282-.389.023-1.01-.449-1.088l-2.333-.379-.28-.524.981-2.152c.2-.438-.172-.998-.654-.98l-2.366.082-.374-.454.543-2.305c.11-.47-.365-.944-.834-.834l-2.305.543-.456-.374.083-2.366c.018-.48-.542-.853-.98-.654l-2.15.98-.524-.281-.38-2.333c-.075-.473-.7-.73-1.088-.449l-1.917 1.377-.569-.172-.826-2.211c-.168-.45-.828-.581-1.156-.23l-1.614 1.73-.587-.057-1.246-2.014c-.252-.407-.928-.407-1.178 0L38.25 11.85l-.587.057-1.617-1.734c-.33-.35-.988-.22-1.156.23l-.826 2.212-.57.172-1.916-1.377c-.39-.282-1.012-.022-1.088.45l-.38 2.332-.525.281-2.15-.98c-.437-.2-.999.175-.98.654l.083 2.366-.455.374-2.306-.544c-.468-.109-.943.366-.834.834l.544 2.306-.375.454-2.365-.082c-.48-.015-.854.542-.655.98l.981 2.152-.281.524-2.333.379c-.473.075-.73.699-.45 1.088l1.378 1.917-.173.569-2.212.826c-.45.168-.58.828-.229 1.156l1.73 1.614-.056.587-2.014 1.246c-.407.251-.407.928 0 1.178l2.014 1.246.057.587-1.735 1.62c-.35.33-.22.988.229 1.156l2.211.826.174.57-1.378 1.916c-.28.39-.022 1.012.45 1.088l2.33.38.282.523-.98 2.15c-.2.438.176.999.654.981l2.365-.082.375.455-.544 2.306c-.109.467.366.943.834.832l2.306-.543.455.374-.082 2.366c-.018.479.542.853.98.654l2.15-.98.523.28.38 2.332c.075.475.7.73 1.09.452l1.916-1.38.569.173.826 2.212c.168.449.828.58 1.156.229l1.614-1.73.587.059 1.246 2.014c.251.404.925.407 1.178 0l1.246-2.014.587-.06 1.614 1.73c.33.353.988.221 1.156-.228l.826-2.212.57-.173 1.916 1.38c.389.28 1.012.023 1.088-.452l.38-2.331.525-.282 2.15.981c.437.2.997-.174.979-.654l-.082-2.366.453-.374 2.306.543c.469.11.943-.365.834-.832l-.544-2.306.375-.455 2.365.082c.48.02.854-.543.655-.98l-.98-2.15.28-.525 2.332-.379c.474-.075.734-.697.449-1.088l-1.377-1.917.173-.569 2.212-.826c.449-.17.58-.828.229-1.156L61.65 35.91l.057-.587 2.014-1.246c.407-.251.409-.925 0-1.178z" style="stroke-width:1.49731"/>
</svg>
