<?xml version="1.0" encoding="UTF-8" standalone="no"?>
<svg
   xmlns:dc="http://purl.org/dc/elements/1.1/"
   xmlns:cc="http://creativecommons.org/ns#"
   xmlns:rdf="http://www.w3.org/1999/02/22-rdf-syntax-ns#"
   xmlns:svg="http://www.w3.org/2000/svg"
   xmlns="http://www.w3.org/2000/svg"
   xmlns:sodipodi="http://sodipodi.sourceforge.net/DTD/sodipodi-0.dtd"
   xmlns:inkscape="http://www.inkscape.org/namespaces/inkscape"
   x="0px"
   y="0px"
   width="144px"
   height="144px"
   viewbox="0 0 144 144"
   id="svg2"
   version="1.1"
   inkscape:version="0.91 r13725"
   sodipodi:docname="rust-lang-icon.svg">
  <metadata
     id="metadata10">
    <rdf:RDF>
      <cc:Work
         rdf:about="">
        <dc:format>image/svg+xml</dc:format>
        <dc:type
           rdf:resource="http://purl.org/dc/dcmitype/StillImage" />
        <dc:title></dc:title>
      </cc:Work>
    </rdf:RDF>
  </metadata>
  <defs
     id="defs8" />
  <sodipodi:namedview
     pagecolor="#ffffff"
     bordercolor="#666666"
     borderopacity="1"
     objecttolerance="10"
     gridtolerance="10"
     guidetolerance="10"
     inkscape:pageopacity="0"
     inkscape:pageshadow="2"
     inkscape:window-width="1855"
     inkscape:window-height="1056"
     id="namedview6"
     showgrid="false"
     inkscape:zoom="4.3943223"
     inkscape:cx="105.23624"
     inkscape:cy="51.526689"
     inkscape:window-x="65"
     inkscape:window-y="24"
     inkscape:window-maximized="1"
     inkscape:current-layer="svg2" />
  <path
     d="m 67.46552,17.022012 a 4.2781502,4.2781502 0 1 1 8.5563,0 4.2781502,4.2781502 0 0 1 -8.5563,0 M 16.42917,55.756614 a 4.2781502,4.2781502 0 1 1 8.556301,0 4.2781502,4.2781502 0 0 1 -8.556301,0 m 102.07132,0.199592 a 4.2781502,4.2781502 0 0 1 8.5563,0 4.2781502,4.2781502 0 0 1 -8.5563,0 m -89.686983,5.861121 c 1.968389,-0.874075 2.857606,-3.181083 1.983531,-5.153602 l -1.898189,-4.291915 7.464739,0 0,33.647073 -15.060245,0 a 52.671627,52.671627 0 0 1 -1.705478,-20.10648 z m 31.225816,0.827274 0,-9.917655 17.776071,0 c 0.918123,0 6.483298,1.061279 6.483298,5.222427 0,3.455005 -4.268515,4.693852 -7.77858,4.693852 z M 35.770318,116.04302 a 4.2781502,4.2781502 0 1 1 8.556301,0 4.2781502,4.2781502 0 0 1 -8.556301,0 m 63.389026,0.19959 a 4.2781502,4.2781502 0 0 1 8.556296,0 4.2781502,4.2781502 0 0 1 -8.556296,0 m 1.322816,-9.70155 c -2.107418,-0.45149 -4.180422,0.88922 -4.631912,3.00077 l -2.147335,10.02089 a 52.671627,52.671627 0 0 1 -43.925369,-0.21061 l -2.145958,-10.02089 c -0.451491,-2.10879 -2.524494,-3.45225 -4.630533,-2.99938 l -8.846741,1.89956 a 52.671627,52.671627 0 0 1 -4.574097,-5.39173 l 43.045789,0 c 0.487279,0 0.812133,-0.0881 0.812133,-0.53133 l 0,-15.226802 c 0,-0.443231 -0.324854,-0.531327 -0.812133,-0.531327 l -12.589434,0 0,-9.651992 13.6163,0 c 1.242976,0 6.645724,0.355136 8.373226,7.261018 0.540963,2.123933 1.72888,9.032568 2.541012,11.244597 0.80938,2.480446 4.104712,7.435836 7.616154,7.435836 l 22.224908,0 a 52.671627,52.671627 0 0 1 -4.8783,5.64638 z m 23.90285,-40.203319 a 52.671627,52.671627 0 0 1 0.1115,9.144064 l -5.40412,0 c -0.54097,0 -0.75845,0.355136 -0.75845,0.885087 l 0,2.481823 c 0,5.841849 -3.29396,7.112355 -6.18047,7.435832 -2.74886,0.309712 -5.79643,-1.150751 -6.17221,-2.832829 -1.62151,-9.120664 -4.32358,-11.068406 -8.590713,-14.433939 5.295383,-3.36278 10.805493,-8.323673 10.805493,-14.96389 0,-7.170169 -4.91547,-11.686453 -8.265858,-13.901235 -4.700734,-3.098493 -9.905266,-3.719293 -11.309292,-3.719293 l -55.889875,0 a 52.671627,52.671627 0 0 1 29.46803,-16.630827 l 6.587911,6.911387 c 1.489369,1.559571 3.95605,1.617383 5.514244,0.126638 l 7.371137,-7.050414 a 52.671627,52.671627 0 0 1 36.058693,25.68129 l -5.04623,11.397388 c -0.87133,1.972519 0.0179,4.279527 1.9849,5.153602 z m 12.58531,0.18445 -0.17206,-1.761915 5.19765,-4.84802 c 1.05714,-0.985571 0.66209,-2.969102 -0.68963,-3.472899 l -6.64435,-2.484576 -0.52031,-1.715114 4.14463,-5.756507 c 0.84517,-1.170022 0.0688,-3.037927 -1.35447,-3.271932 l -7.00637,-1.139739 -0.84241,-1.573335 2.94432,-6.462649 c 0.60291,-1.315931 -0.51756,-2.999386 -1.96564,-2.944326 l -7.11098,0.24777 -1.12322,-1.362732 1.6339,-6.926529 c 0.33036,-1.406779 -1.09706,-2.835582 -2.50384,-2.505223 l -6.92515,1.632525 -1.36549,-1.123221 0.24915,-7.110979 c 0.0551,-1.439815 -1.62977,-2.564413 -2.94295,-1.967013 l -6.46127,2.945701 -1.57334,-0.843792 L 100.796,7.0699442 C 100.56475,5.6494001 98.695465,4.8730563 97.525443,5.7154719 L 91.764807,9.860102 90.052446,9.3411629 87.56787,2.6954393 C 87.064072,1.340967 85.079165,0.9514186 84.096347,2.0030617 l -4.84802,5.2017791 -1.761915,-0.172062 -3.74407,-6.04970078 c -0.757073,-1.22508162 -2.784652,-1.22508162 -3.538971,0 L 66.459301,7.0327788 64.696009,7.2048408 59.846613,2.0030617 C 58.863795,0.9514186 56.878887,1.340967 56.37509,2.6954393 L 53.890514,9.3411629 52.176776,9.860102 46.417516,5.7154719 c -1.170021,-0.8451686 -3.04068,-0.066072 -3.271931,1.3544723 l -1.142492,7.0077418 -1.573335,0.843792 -6.461273,-2.945701 c -1.313178,-0.600153 -2.998009,0.527198 -2.942949,1.967013 l 0.247769,7.110979 -1.365484,1.123221 -6.925152,-1.632525 c -1.406779,-0.327606 -2.835582,1.098444 -2.505223,2.505223 l 1.631148,6.926529 -1.120468,1.362732 -7.11098,-0.24777 c -1.434309,-0.0413 -2.564412,1.628395 -1.967013,2.944326 l 2.945702,6.462649 -0.843792,1.573335 -7.0063656,1.139739 c -1.4232971,0.231252 -2.194135,2.10191 -1.3544723,3.271932 l 4.14463,5.756507 -0.5203155,1.715114 -6.6457236,2.484576 c -1.3489663,0.503797 -1.7440207,2.487328 -0.6896246,3.472899 l 5.1990261,4.84802 -0.172062,1.761915 -6.04832429,3.74407 c -1.22508161,0.757073 -1.22508161,2.784652 0,3.538972 l 6.04832429,3.744069 0.172062,1.761915 -5.1990261,4.849396 c -1.0543961,0.982819 -0.6593417,2.964973 0.6896246,3.471524 l 6.6457236,2.484575 0.5203155,1.715115 -4.14463,5.757883 c -0.8424157,1.172775 -0.067448,3.04206 1.3558488,3.27056 L 14.012043,102 l 0.843792,1.57609 -2.945702,6.4599 c -0.600152,1.31318 0.532704,3.00214 1.967013,2.94432 l 7.108227,-0.24914 1.123221,1.36548 -1.631148,6.92791 c -0.330359,1.40402 1.098444,2.83007 2.505223,2.49971 l 6.925152,-1.63114 1.365484,1.12046 -0.247769,7.11236 c -0.05506,1.43982 1.629771,2.56579 2.942949,1.96564 l 6.461273,-2.94433 1.573335,0.84379 1.142492,7.00362 c 0.231251,1.42605 2.10191,2.19688 3.271931,1.35722 l 5.756507,-4.14738 1.715115,0.52169 2.484575,6.64297 c 0.503798,1.34897 2.488705,1.74678 3.471524,0.68963 l 4.849396,-5.19903 1.763291,0.17619 3.74407,6.04833 c 0.75432,1.21957 2.781899,1.22232 3.538972,0 l 3.744069,-6.04833 1.761915,-0.17619 4.84802,5.19903 c 0.982818,1.05715 2.967726,0.65934 3.471523,-0.68963 l 2.484576,-6.64297 1.715114,-0.52169 5.757884,4.14738 c 1.170022,0.83966 3.039303,0.0661 3.270553,-1.35722 l 1.14249,-7.00362 1.57334,-0.84379 6.46127,2.94433 c 1.31318,0.60015 2.99526,-0.52307 2.94295,-1.96564 l -0.24777,-7.11236 1.36411,-1.12046 6.92515,1.63114 c 1.40678,0.33036 2.83421,-1.09569 2.50385,-2.49971 l -1.63115,-6.92791 1.12047,-1.36548 7.11098,0.24914 c 1.43431,0.0578 2.56854,-1.63114 1.96563,-2.94432 l -2.94432,-6.4599 0.84241,-1.57609 7.00637,-1.13973 c 1.42605,-0.2285 2.19964,-2.097785 1.35447,-3.27056 l -4.14463,-5.757883 0.52032,-1.715115 6.64434,-2.484575 c 1.35172,-0.506551 1.74678,-2.488705 0.68963,-3.471524 l -5.19765,-4.849396 0.17206,-1.761915 6.04833,-3.744069 c 1.22508,-0.75432 1.22645,-2.781899 0.001,-3.538972 z"
     id="path4"
     inkscape:connector-curvature="0" />
</svg>
