<?xml version="1.0" encoding="UTF-8" standalone="no"?>
<svg
   xmlns:dc="http://purl.org/dc/elements/1.1/"
   xmlns:cc="http://creativecommons.org/ns#"
   xmlns:rdf="http://www.w3.org/1999/02/22-rdf-syntax-ns#"
   xmlns:svg="http://www.w3.org/2000/svg"
   xmlns="http://www.w3.org/2000/svg"
   xmlns:sodipodi="http://sodipodi.sourceforge.net/DTD/sodipodi-0.dtd"
   xmlns:inkscape="http://www.inkscape.org/namespaces/inkscape"
   width="64"
   height="64"
   viewBox="0 0 6.5536 6.5511811"
   preserveAspectRatio="xMidYMid"
   version="1.1"
   id="svg6"
   sodipodi:docname="solr-icon.svg"
   inkscape:version="0.92.3 (2405546, 2018-03-11)">
  <metadata
     id="metadata12">
    <rdf:RDF>
      <cc:Work
         rdf:about="">
        <dc:format>image/svg+xml</dc:format>
        <dc:type
           rdf:resource="http://purl.org/dc/dcmitype/StillImage" />
        <dc:title></dc:title>
      </cc:Work>
    </rdf:RDF>
  </metadata>
  <defs
     id="defs10" />
  <sodipodi:namedview
     pagecolor="#ffffff"
     bordercolor="#666666"
     borderopacity="1"
     objecttolerance="10"
     gridtolerance="10"
     guidetolerance="10"
     inkscape:pageopacity="0"
     inkscape:pageshadow="2"
     inkscape:window-width="1920"
     inkscape:window-height="1001"
     id="namedview8"
     showgrid="false"
     inkscape:zoom="4.3392"
     inkscape:cx="82.826976"
     inkscape:cy="30.153269"
     inkscape:window-x="-9"
     inkscape:window-y="-9"
     inkscape:window-maximized="1"
     inkscape:current-layer="svg6" />
  <g
     id="g909"
     transform="matrix(2.4316963,0,0,2.4316963,-19.307388,-2.4504789)">
    <path
       style="fill:#c7402b;stroke-width:0.03194463"
       inkscape:connector-curvature="0"
       id="path4"
       d="M 10.268984,1.4339119 8.9421954,2.8683217 10.609673,2.0990311 A 1.3460828,1.3460828 0 0 0 10.268984,1.4339119 Z M 9.2845779,1.0072275 A 1.3452203,1.3452203 0 0 0 8.765893,1.1106323 L 8.5878656,2.6108799 9.4775235,1.0211873 A 1.3571996,1.3571996 0 0 0 9.2845779,1.0072275 Z M 10.622866,2.1816718 9.0428849,3.0658992 10.525275,2.8899801 a 1.3451564,1.3451564 0 0 0 0.109347,-0.5326767 c 0,-0.059609 -0.0042,-0.1180993 -0.01176,-0.1756316 z m -0.58251,1.2944284 A 1.3568482,1.3568482 0 0 0 10.467008,3.0089419 L 9.0775448,3.2848796 Z M 9.5588545,1.0351791 8.7854111,2.7115694 10.220172,1.3845255 C 10.04026,1.2114176 9.8126866,1.0875363 9.5588545,1.0351471 Z M 9.3974064,3.7023001 A 1.3416425,1.3416425 0 0 0 9.8211838,3.596244 L 9.0428849,3.503892 9.3974064,3.7022682 Z M 8.053943,1.8022974 A 1.3414508,1.3414508 0 0 0 7.9402201,2.2362013 L 8.1498727,2.6109118 Z M 8.6489117,1.1661201 A 1.356369,1.356369 0 0 0 8.1731923,1.5909837 l 0.1956928,0.9851724 z" />
  </g>
</svg>
