<?xml version="1.0" encoding="UTF-8" standalone="no"?>
<svg
   xmlns:dc="http://purl.org/dc/elements/1.1/"
   xmlns:cc="http://creativecommons.org/ns#"
   xmlns:rdf="http://www.w3.org/1999/02/22-rdf-syntax-ns#"
   xmlns:svg="http://www.w3.org/2000/svg"
   xmlns="http://www.w3.org/2000/svg"
   xmlns:sodipodi="http://sodipodi.sourceforge.net/DTD/sodipodi-0.dtd"
   xmlns:inkscape="http://www.inkscape.org/namespaces/inkscape"
   version="1.1"
   id="svg2"
   viewBox="-22.66 -23.18 120.00001 60.000001"
   sodipodi:docname="chef-ar21.svg"
   width="120"
   height="60"
   inkscape:version="0.92.3 (2405546, 2018-03-11)">
  <sodipodi:namedview
     pagecolor="#ffffff"
     bordercolor="#666666"
     borderopacity="1"
     objecttolerance="10"
     gridtolerance="10"
     guidetolerance="10"
     inkscape:pageopacity="0"
     inkscape:pageshadow="2"
     inkscape:window-width="1920"
     inkscape:window-height="1001"
     id="namedview22"
     showgrid="false"
     inkscape:zoom="6.2653482"
     inkscape:cx="57.561092"
     inkscape:cy="28.948858"
     inkscape:window-x="-9"
     inkscape:window-y="-9"
     inkscape:window-maximized="1"
     inkscape:current-layer="svg2" />
  <metadata
     id="metadata4">
    <rdf:RDF>
      <cc:Work
         rdf:about="">
        <dc:format>image/svg+xml</dc:format>
        <dc:type
           rdf:resource="http://purl.org/dc/dcmitype/StillImage" />
        <dc:title></dc:title>
      </cc:Work>
    </rdf:RDF>
  </metadata>
  <defs
     id="defs6" />
  <g
     id="g869"
     transform="translate(-0.09664719)">
    <g
       transform="matrix(0.0582217,0,0,0.0582217,28.097719,-52.67093)"
       id="g848">
      <path
         inkscape:connector-curvature="0"
         d="m 0,1022.5471 v -0.7547 c 0,-75.3119 56.759434,-136.9925 138.12468,-136.9925 49.96643,0 79.8557,16.6655 104.44642,40.8638 l -37.08988,42.7657 c -20.43942,-18.5373 -41.25625,-29.8892 -67.74903,-29.8892 -44.652759,0 -76.821464,37.0899 -76.821464,82.5125 v 0.7547 c 0,45.4228 31.413935,83.2674 76.821464,83.2674 30.28178,0 48.81917,-12.1217 69.63599,-31.0365 l 37.08987,37.4672 C 217.2256,1140.6249 186.95894,1158.8 135.86035,1158.8 57.906705,1158.8 0,1098.629 0,1022.5471"
         id="path8"
         style="fill:#435363" />
      <path
         inkscape:connector-curvature="0"
         d="m 307.50014,888.9999 h 58.28825 V 993.8583 H 473.30455 V 888.9999 h 58.31841 V 1154 H 473.30455 V 1047.6163 H 365.78839 V 1154 h -58.28825 z"
         id="path10"
         style="fill:#435363" />
      <path
         inkscape:connector-curvature="0"
         d="m 602.50027,888.9999 h 199.9095 v 51.8614 H 660.4263 v 53.7491 h 124.93409 v 51.8763 H 660.4263 v 55.6519 H 804.29752 V 1154 H 602.50027 Z"
         id="path12"
         style="fill:#435363" />
      <path
         inkscape:connector-curvature="0"
         d="M 880.57314,888.9999 H 1082.332 v 53.003 H 938.84623 v 56.4007 h 126.45237 v 53.0031 H 938.84623 V 1154 h -58.27309 z"
         id="path14"
         style="fill:#435363" />
    </g>
    <g
       transform="matrix(0.05070089,0,0,0.05070089,-25.235929,-12.01619)"
       id="g842">
      <path
         inkscape:connector-curvature="0"
         d="m 548.45332,538.5948 c -92.12785,0 -167.09321,-74.95099 -167.09321,-167.07884 0,-92.14224 74.96536,-167.1076 167.09321,-167.1076 76.05869,0 140.34967,51.08463 160.50444,120.72718 h 64.65062 C 752.08693,220.53505 659.3261,141.6423 548.45332,141.6423 c -126.74053,0 -229.85926,103.11874 -229.85926,229.87366 0,126.74052 103.11873,229.85925 229.85926,229.85925 110.87278,0 203.63361,-78.87832 225.15506,-183.47883 H 708.95776 C 688.80299,487.52453 624.51201,538.5948 548.45332,538.5948"
         id="path16"
         style="fill:#435363" />
      <path
         inkscape:connector-curvature="0"
         d="m 435.81106,484.14384 c 28.85828,28.85829 68.70746,46.74006 112.64226,46.74006 v -66.62151 c -25.60705,0 -48.79726,-10.40107 -65.58571,-27.1751 z"
         id="path18"
         style="fill:#435363" />
      <path
         inkscape:connector-curvature="0"
         d="m 389.08538,371.50158 c 0,22.80178 4.86246,44.49585 13.52283,64.13272 l 60.93903,-26.8011 c -5.0351,-11.42247 -7.85475,-24.03898 -7.85475,-37.33162 0,-51.2285 41.53234,-92.74646 92.74644,-92.74646 v -66.62149 c -87.86959,0 -159.35355,71.49835 -159.35355,159.36795"
         id="path20"
         style="fill:#f38b00" />
      <path
         inkscape:connector-curvature="0"
         d="m 606.22745,222.99505 -24.16846,62.1043 c 19.73757,7.6965 36.20954,21.89547 46.6825,40.0218 h 72.1601 c -14.24212,-46.76883 -49.45902,-84.47449 -94.67414,-102.1261"
         id="path22"
         style="fill:#435363" />
      <path
         inkscape:connector-curvature="0"
         d="m 582.08775,457.9038 24.15407,62.10429 c 45.21517,-17.6516 80.43206,-55.37165 94.68855,-102.14049 h -72.16009 c -10.50175,18.14075 -26.95935,32.35408 -46.68253,40.0362"
         id="path24"
         style="fill:#f38b00" />
      <path
         inkscape:connector-curvature="0"
         d="m 253.61256,460.65154 c -1.05017,-3.48142 -2.05719,-6.9916 -2.99228,-10.53055 -0.0575,-0.21579 -0.1151,-0.43158 -0.17263,-0.64737 -0.86316,-3.28 -1.6544,-6.56 -2.41686,-9.86879 -0.15826,-0.67616 -0.3021,-1.35227 -0.44596,-2.02843 -0.63299,-2.83405 -1.20842,-5.69685 -1.76948,-8.55965 -0.24457,-1.28037 -0.46035,-2.56073 -0.67614,-3.84106 -0.40279,-2.28737 -0.80562,-4.56036 -1.16526,-6.87651 -0.30211,-1.97087 -0.56106,-3.92737 -0.82,-5.89825 -1.81264,-13.43651 -2.79089,-27.08882 -2.7765,-40.91374 h -62.93868 c -0.0144,15.0765 0.93508,29.966 2.70456,44.66848 v 0 c 0.0288,0.31648 0.0863,0.63298 0.12947,0.94948 0.48913,3.9993 1.03579,7.9986 1.65439,11.95476 0.17263,1.09332 0.35965,2.18664 0.54667,3.29437 0.54667,3.25123 1.10772,6.50249 1.74071,9.73934 0.31649,1.72631 0.69053,3.42384 1.05018,5.13579 0.53228,2.57506 1.07895,5.15017 1.66877,7.71086 0.5179,2.24422 1.07895,4.48843 1.65439,6.73264 0.50351,1.99968 0.99263,3.99932 1.52491,5.99896 0.7193,2.64704 1.48176,5.26526 2.24422,7.8979 0.31649,1.09336 0.60421,2.21548 0.93508,3.29443 h 0.0288 c 4.34457,14.37159 9.49475,28.39793 15.47932,41.97827 L 266.47365,495.48 c -4.96316,-11.24985 -9.25019,-22.9025 -12.86107,-34.82846 v 0 z"
         id="path26"
         style="fill:#435363" />
      <path
         inkscape:connector-curvature="0"
         d="m 548.45332,679.59184 c -84.93486,0 -161.92864,-34.58394 -217.70311,-90.37275 l -44.58217,44.58216 c 67.13939,67.13937 159.84268,108.71489 262.28528,108.71489 189.1901,0 345.27801,-141.61567 368.10857,-324.61976 h -63.5141 C 830.60566,565.82748 702.57037,679.59184 548.45332,679.59184"
         id="path28"
         style="fill:#f38b00" />
      <path
         inkscape:connector-curvature="0"
         d="m 548.45332,63.44008 c 69.00958,0 132.75387,22.80179 184.16937,61.2843 L 770.32837,74.18642 C 708.43986,27.92109 631.64749,0.51579 548.45332,0.51579 c -157.42583,0 -291.93479,98.05487 -345.79592,236.43366 l 58.7092,22.84494 C 306.17895,144.97985 417.97244,63.44008 548.45332,63.44008"
         id="path30"
         style="fill:#f38b00" />
      <path
         inkscape:connector-curvature="0"
         d="m 853.04779,325.13554 h 63.5141 c -6.80454,-54.59481 -25.47756,-105.50681 -53.3576,-150.07459 l -53.48708,33.37548 c 21.83792,34.85724 36.90005,74.37555 43.33058,116.69911"
         id="path32"
         style="fill:#435363" />
      <path
         inkscape:connector-curvature="0"
         d="m 781.49191,325.13554 h 63.72988 C 828.59161,218.27645 755.41009,129.91772 657.34084,91.63662 l -22.75862,58.52218 c 74.57696,29.11724 130.9844,94.81803 146.90969,174.97674"
         id="path34"
         style="fill:#f38b00" />
      <path
         inkscape:connector-curvature="0"
         d="m 548.45332,133.91703 v 0 l 0.0143,-62.75167 h -0.0143 c -127.21527,0 -236.18911,79.49695 -279.89373,191.43431 l 58.47904,22.75863 C 361.62254,196.81256 447.82336,133.91703 548.45332,133.91703"
         id="path36"
         style="fill:#435363" />
      <path
         inkscape:connector-curvature="0"
         d="m 310.86878,371.50158 v 0 h -62.75167 c 0,126.20822 78.27415,234.434 188.81605,278.80039 l 23.3053,-58.24887 C 372.78606,556.9513 310.86878,471.34029 310.86878,371.50158"
         id="path38"
         style="fill:#f38b00" />
      <path
         inkscape:connector-curvature="0"
         d="m 548.45332,609.08612 v 62.76604 c 149.84442,0 274.39828,-110.31174 296.76847,-253.98456 h -63.7443 C 759.85536,526.76952 663.59875,609.08612 548.45332,609.08612"
         id="path40"
         style="fill:#435363" />
    </g>
  </g>
</svg>
