<svg xmlns="http://www.w3.org/2000/svg" viewBox="0 294.3 64 64" width="64" height="64"><path d="M56.756 314.713c-.167.762-.438 1.326-.804 1.702l-.26-.167c.282-.72.418-1.138.407-1.242l-.073-.115c-.094.01-.22.26-.376.762l-.136.01a.59.59 0 0 0-.073-.24l-.063.01-2.923 7.673c-.2.68-.386 1.054-.543 1.127.01.073.052.115.136.104.03.334-.052.658-.23.98-.532 1.514-.877 2.35-1.054 2.495l.115.72c.01.073-.03.125-.115.125l-.125.01c-.02-.198-.094-.292-.22-.282l-.063.01c-.157.25-.282.543-.365.877l.125-.01c.167-.104.24-.23.23-.386l.25-.02.136.052c-.115.177-.167.324-.157.428l.063.115-.157.376.01.063a.77.77 0 0 1 .47.136.9.9 0 0 0 .376-.146 35.32 35.32 0 0 1 1.587-.021l.46-.157 1.138-.03.198-.02.104-.073.01.063c.5-.042.543-.01.94.042l.01.063-.282.02.01.115a.39.39 0 0 0 .22-.084c.073-.01.115.03.125.115-.115.01-.24.042-.386.084l-.125-.042c-.198.052-.157.063-.282.073l-.198-.042c0 .03-.01.052-.042.063.01.073.042.115.115.104l.24-.02-.104-.042c0 .03.02.052.063.052l1.033-.094.397-.084c0 .03.02.052.052.052l.188-.073.355-.03c.282-.02.27-.042.866-.136 0-.03.01-.052.042-.052v.052l1.274-.26-.052-.125c-.324.073-.313.03-.48.052l-.866.042-.01-.063.48-.063.177-.01.094-.073.01.063c.68-.063.92.115 4.082-.553.167-.01.157-.157.26-.45a.3.3 0 0 1-.167-.042c-.26.104-.397.052-.898.136-.042 0-.073-.03-.094-.115v-.052l.48.02c.084-.01.27-.02.522-.167.052.03-.042.063.01.052l.084-.01c.052 0 .073-.042.073-.125l-.052-.115c-.324.03-.48.042-.74.188l-.01-.063-.397.042c-.01-.125-.042-.177-.094-.177l-.2.02c-.24.02-.355.01-.47.104 0-.042-.02-.063-.042-.063l-.23.02-.136.073c0-.042-.02-.063-.042-.063l-.084.073-.01-.063-.313-.02-.073.01.01.115.167.042.146-.01c.052.03.115.042.177.042l.136-.063v.052c-.74.188-.74.146-1.253.24-.063-.042-.104-.052-.125-.052-.052.052.063.01.03.01-.084.01-.125-.03-.136-.104l.26-.03c.02 0 .03.02.177.052.2-.104.22-.146.334-.157l-.01-.115c-.73.146-.438.052-1.357.125h-.042l-.01-.115c1.18-.146.783-.063 1.18-.177 0 .042.02.063.042.063.042-.042.104-.073.167-.073l.084-.01c.407-.03.553.052 1.367-.177v.052l.136-.063.125-.01c-.01-.125.177-.136.23-.146l-.01-.125c-1.43.292-1.806.2-2.203.324v-.052c-.376.073-.386.03-.48.042-.03 0-.073.03-.115.073 0-.042-.02-.063-.052-.063-.063 0-.03.02-.084.073l.084-.073-1.242.198c0-.03-.02-.052-.052-.052-.626.136-.46.157-1.305.23-.042 0-.094.02-.157.063 0-.03-.02-.052-.063-.052l-.522.042-.344.084c0-.03-.02-.052-.063-.052-.198.052-.365.084-.5.094h-.01c-.084.01.042-.02-.02-.052l-.104.063c-.157.01-.073-.01-.595 0l-.92.136-.344-.02c0 .03-.01.052-.052.063-.386-.052-.585-.115-.595-.188.052-.365.136-.553.27-.574l.063-.01-.063.125.063-.01c.125-.063.177-.125.177-.188l-.01-.125-.125.01-.01-.115c-.01-.094 0-.167.03-.24l.282-.45.01.115.136-.01-.01-.115-.073-.115c.094-.084.177-.136.24-.136l-.01-.063-.177.01-.01-.177c.355-.752.532-1.2.522-1.305l.125.052c.084-.01.125-.052.115-.136l-.125.01v-.052a.49.49 0 0 1 .042-.251c.198-.198.282-.407.26-.626.042 0 .063.02.063.063.167-.094.292-.344.386-.762.292-.532.7-1.597 1.253-3.184 1.044-2.808 1.002-3.1 1.148-3.768l-.125.01c.01.084-.01.167-.052.24a.75.75 0 0 0-.198-.052v-.052c-.02-.24.084-.532.313-.877h.052l.104.407.125-.01a6.56 6.56 0 0 1 .094-.491c-.01-.063-.052-.094-.146-.104l-.115.073c-.01-.084 0-.303.01-.668zm-1.503 1.806l.063-.01c-.094.167-.167.26-.24.27l-.01-.177c.052-.01.115-.03.188-.084zm-.522 1.253c.125-.512.25-.804.365-.877l.01.063c-.063.48-.167.72-.313.74l.02.303c-.115.157-.167.282-.157.376l-.063.01-.03-.418c.063-.01.125-.073.167-.198zm-.198.68c.01.073-.042.24-.136.5l-.063.01-.01-.177c.073-.2.146-.313.2-.324zm-3.434 7.6l.063.115c.094-.01.136-.052.125-.125l-.01-.063-.063.01zm1.65 1.367v.052c.094-.01.188-.177.27-.5l-.125-.042c-.104.282-.146.438-.146.5zm10.564.365v.052l-.104.125.198-.073h.02l-.01-.115h-.042l-.073.063c0-.03.22-.094.052-.125-.03.052.052.063-.042.073zm.407.376l.282-.02c-.01-.073-.188-.094-.25-.094H63.7zm-5 .104l.084.104c0-.03.01-.052.042-.052l.063.115-.26-.03c-.02-.084.01-.125.073-.136zm-.856.094c.094-.01.157.052.157.136h-.292v-.052c.03-.01.084-.03.136-.084zm.668-.03l.01.063-.24.02-.01-.063zm-2.422.25c0 .03.02.052.063.052l.532-.104c.063-.01.094.03.104.104l-1.075.094.104.052-.01-.063-.407.03-.01-.063.365-.03zm1.107-.094v.052c-.03 0 .104.01.042.063-.23-.02-.24-.042-.407-.03v-.052zm.27-.03v.052l-.198.02v-.052zm-6.68 1.065l.01.177c-.063.01-.115-.03-.136-.115v-.052zm8.936-.157l.01.115.2-.02-.084-.052.01.063.2-.084c1.43-.157 1.597-.094 1.576-.26v-.052c-1.44.324-1.628.26-1.93.292zm2.234-.198l.2.042-.01-.115-.2-.042zm-6.18.407c.063.03-.073.063.01.052l.73-.063.01.063c-.2.02-.344.052-.386.094 0-.042-.02-.063-.063-.063l-.313.03-.01-.063c.084-.01-.042-.01.02-.052zm3.382-.084l.063.115c.24-.052.104-.042.167-.094 0 .042.02.063.042.063l.167-.01-.01-.125-.438-.01zm-4.134.45h-.042l-.01-.115h.042zm-3.267.397l.01.063 1.92-.157-.01-.115-1.535.125-.324-.042zm2.14-.115h.02l-.01-.115h-.02zm-29.23-10.084l-2.1 2.683c-.553.574-.825.92-.793 1.033-.146.094-.2.188-.188.292-.042.01-.073-.01-.084-.052-.24.386-.585.626-1.054.74l-.5.115c-.063.01-.094.063-.094.146l.01.063.188-.042.01.052-.418.157-.74.167-.386.02c-.052.052.303-.01.167.03l-.48.115c-.292.073-.46.042-.48-.073l-.052.01c.03.115 0 .188-.084.2l.094-.02-.042-.177-.877.2.094.042c-.01-.042-.052-.052-.136-.03l-.115.094-.136-.03c-.125.073-.2.115-.23.115l-.136-.03c-.365.2-.094.2-.115.2l.03.115.2-.052.324-.02-.03.136c-1.2.313-.324.136-.647.2l-.063.01.03.115.188-.042.01.063c-.24.052-.376.104-.418.157l-.01-.063c-.313.073-.626.313-.94.7.052.23-.626.512 2.568-.23l.376-.02c-.01-.042.01-.063.052-.073.355-.042.188.02.407-.03l.7-.157-.146.084c-.01-.03.01-.052.042-.063.084.02.167.01.26-.01l.042.177-2.725 4.322-.605.752-.292.992.052-.01.292-.125-.094.386.03.115.084.104c-.042.01-.052.03-.042.073v.063l.125-.03c.177-.157.25-.303.23-.428.198.03.324.042.386.03l.01.063c-.115.03-.177.125-.188.282l.01.063.063-.01c.992-1.075 3.403-4.76 5.345-7.265-.063-.27.95-.647 3.038-1.127l.063-.01c.073.324-.084 1.117-.48 2.38l-.365 1.242-.47 1.64-.74 2.422c-.48 1.242-.846 2.547-1.096 3.925.042-.01.115 0 .198.02l.104-.094c.01.042.03.052.084.052l-.042-.177.324-.01c.094-.02.177-.146.24-.365-.01-.324.052-.5.198-.543l.365-1.18c.188-.772.324-1.2.418-1.326.282-1.002.48-1.524.616-1.555l.03.125-.198.532c-.355 1.576-.72 2.83-1.086 3.748l.104.46.063-.01c.887-1.9 2.15-5.658 3.8-11.274a1.49 1.49 0 0 1 .7-1.148l-.094-.094-.01-.052c.188-.042.324-.115.397-.22-.01-.042-.177-.104-.5-.188l.98-4.196c.292-1.253.5-2.35.595-3.3l-.01-.063c-.198-.125-.397-.303-.574-.532v-.25l-.01-.052-.052.01c-.605.92-1.816 2.516-3.6 4.8zm1.388.95c.052.22-.03.626-.24 1.22-.063.752-.334 1.18-.804 1.294l-.01-.063-.418.157-.188.042c-.094.02-.177.02-.26-.01l-.042-.167c-.01-.063.585-.898 1.816-2.495zm-.96 2.6l.136-.03.03.115-1.096.324a.47.47 0 0 0-.177.104c-.01-.042-.094-.042-.26-.01-.03-.115.428-.282 1.367-.5zm-6.482 1.754l.146-.03-.03-.125-.146.03zm1.9-.5l.03.115-.313.02-.01-.063zm-3.654 1.2l.01.063-.198.042-.01-.063zm-.365.762l.01.052-.24.052-.03-.115zm.574-.125l.01.052-.438.104-.01-.052zm.762-.125l.01.063-1.148.26-.03-.115c.668-.115.595-.073 1.17-.2zm5.752-1.336l.094.104c-.136.03-.24.073-.292.125l-.136-.02a3.21 3.21 0 0 1-.543.177l-.125.03c-.073.02-.125-.01-.157-.084l.866-.198zm.616-.136l.616-.146.01.063c-.334.073-.595.157-.783.25l-.01-.063c.052-.01.104-.052.167-.104zm-6.472 1.754l.292-.063.03.115c-.125.03-.03.03-.188.104-.303.03-.24-.01-.72.104l-.01-.063zm.793-.136c.084-.02.136.01.146.094l-.177.042c-.073.02-.125-.01-.157-.094zm-3.267 6.597l.01.063c.084-.02.115-.063.094-.146l-.01-.063c-.073.02-.104.063-.094.146zm.25 1.044c.02.073.063.104.146.084s.115-.063.094-.146l-.01-.063-.125.03zm6.66 1.795c.084-.02.125.01.146.084l.01.063-.24.052c.02-.084.02-.146.01-.188z"/><path d="M31.87 316.916a20.37 20.37 0 0 1-1.848 1.169l.01.115c.042 0 .104-.03.188-.084.084-.01.125.03.136.104l.115-.063h.052v.052c.01.063-.428.397-1.284 1.002l.063.125h-.052l-.136-.052c0 .042-.052.073-.177.084v.052l.136.167a.46.46 0 0 1-.198-.052c-.282.02-.553.23-.825.605l.063.115c.24-.22.376-.334.418-.334l.01.177c-.042 0-.104.03-.188.084l.157.22a4.74 4.74 0 0 1 .929-.793c.167.052.26.104.26.157l.125-.01c.94-.7 1.858-1.18 2.766-1.482v.115c-.167.25-.282.376-.344.386.01.084.03.157.073.23.01.157-.397 1.2-1.232 3.132-1.9 4.478-3.507 7.798-4.802 9.948 0 .042.03.104.084.177.324-.073.522-.157.605-.23h.052l.01.115.136-.01.115-.063c0 .03.042.052.125.042l.01.125c.01.115-.063.292-.198.543-.136.146-.282.46-.428.93l.01.063.125-.01c.522-.585.908-1.148 1.18-1.712 1.514-.45 2.662-.877 3.466-1.305.814-.073 1.42-.282 1.837-.626l-.01-.063-.313.094-.063.01-.01-.063c.595-.084 1.002-.22 1.22-.397 1.148-.887 2.015-1.514 2.6-1.88 1.816-1.336 2.672-2.6 2.568-3.84-.01-.125-.407-.626-1.2-1.503-.01-.167.26-.407.814-.72l1.587-1.378c.355-.45.564-1.18.626-2.192l-.02-.23c-.063-.7-.574-1.263-1.535-1.702-.574-.386-1.597-.595-3.07-.637-1.2.084-2.787.522-4.76 1.294zm8.497.084l-.063.125-1.754-.74c1.18.052 1.785.25 1.816.616zm-7.12 4.885c.125-.658.26-1.023.407-1.107l1.326-2.965c-.01-.177.26-.324.835-.428l.188-.02.01.177c.564-.094.908-.146 1.054-.157 1.044-.094 1.587.125 1.628.626l.125-.01-.02-.282.125-.01c.303.167.46.365.48.605.01.167-.073.376-.25.626-.084.01-.125-.052-.136-.167l-.125.01-.042.355c-.532.804-.908 1.2-1.148 1.232-.2.292-.344.438-.407.438-.167.198-.616.543-1.357 1.013-.25.02-1.16.376-2.735 1.065a.5.5 0 0 0-.25-.03l-.01-.115c-.02-.22.084-.5.303-.856zm7.286-3.654l.01.125c-.063 0-.177-.188-.365-.564l-.01-.115c.115-.01.24.177.365.553zm-11.566 1.42l.01.063c-.042 0-.104.03-.188.073h-.052l-.01-.115zm3.83-.094l.01.177c-.063 0-.136.094-.23.25l-.01-.115c.104-.136.157-.24.157-.313zm-.595 1.232l.02.23-.063.01-.02-.23zm-.146.428c-.01.198-.063.303-.157.313l-.063.01c.073-.136.104-.24.094-.313zm-.27.616l.01.063-.104.188-.125.01-.01-.063c.125-.01.188-.073.177-.198zm-.26.553l-.042.303h-.052l-.02-.303zm6.43.22l.26.157c.01.073-.03.125-.115.125-.115-.073-.198-.104-.26-.094v-.177zm-5.032.668l.01.115-.25.02-.01-.115zm4.06.428c.177.084.26.157.27.22v.052c-.167.01-.324-.073-.47-.26zm-5.23 1.284c.7-.063 1.827-.397 3.36-1.002l.386-.03c.772-.063 1.347.084 1.733.45l.02.23c-.282.814-.595 1.294-.94 1.44l-1.576 1.274c-1.18.772-1.816 1.16-1.92 1.17-1.88 1.033-3.048 1.566-3.507 1.608l-.063.01c.042-.22.877-1.93 2.505-5.146zm1.702-.68l.01.063-.25.02-.01-.063zm5.7-.26l.042.48c-.063.115-.115.177-.177.188l-.073-.814c.136.042.2.094.2.146zm-9.635 4.092c-.084.397-.167.605-.25.605v-.052c-.03-.188.052-.376.25-.553zm1.576 2.234c.46-.084 1.722-.74 3.8-1.983l.01.115c0 .052-.167.2-.532.46-1.044.522-1.67.866-1.858 1.044-1.138.397-1.702.647-1.7.74-1.013.397-1.67.7-1.994.877-.073.01-.188-.02-.324-.094-.02-.2.073-.365.27-.5a1.15 1.15 0 0 1 .501.073c.188-.094.512-.198.98-.324l-.01-.115-.386.03c.042-.073.407-.24 1.086-.512l.188-.02v.052c-.324.03-.5.125-.543.292.01.073.052.115.136.104.26-.125.376-.22.376-.25zm-1.952-1.43v.052c.01.084-.03.136-.115.136l-.01-.063c0-.052.042-.104.125-.125zm2.965.814c-.146.01-.428.136-.846.365l-.063.01-.01-.115c.303-.03.574-.146.783-.355.084-.01.125.02.136.094zm-3.07.856l.188-.02.01.063c-.042 0-.104.03-.188.073l-.125.01c-.01-.063.03-.104.115-.125zm-1.263.7l.125.052c-.042.365-.157.553-.324.564-.146-.063-.27-.094-.386-.084l-.01-.177c-.01-.063.03-.104.115-.125.084-.01.125.052.136.167.2-.26.324-.397.344-.397zm-20.47-14.917c-.7.522-1.524 1.033-2.432 1.535l.01.157c.063 0 .136-.042.24-.094.104-.01.167.03.167.136l.167-.094.084-.01.01.073c.01.073-.564.522-1.702 1.326l.094.146-.084.01-.177-.063c0 .052-.073.084-.24.094l.01.084.188.2c-.063 0-.146-.01-.25-.052-.365.03-.73.303-1.086.804l.094.146c.313-.282.5-.428.543-.428l.02.23c-.052 0-.136.042-.24.094l.198.292a5.84 5.84 0 0 1 1.242-1.033c.23.063.344.125.344.2l.167-.01c1.22-.908 2.432-1.555 3.633-1.962l.01.157c-.22.334-.376.5-.46.512a.62.62 0 0 0 .115.303c.02.2-.522 1.576-1.628 4.123-2.534 5.9-4.632 10.264-6.334 13.104 0 .052.042.136.094.23.418-.104.7-.198.804-.303l.094-.01.01.157.157-.01.167-.094c0 .052.063.073.167.063l.01.157c.01.157-.073.397-.27.72-.177.198-.355.605-.553 1.22v.073l.157-.01c.68-.762 1.2-1.514 1.555-2.244 1.994-.585 3.507-1.16 4.562-1.722 1.054-.094 1.87-.365 2.4-.825l-.01-.084-.397.115-.094.01-.01-.084c.772-.115 1.315-.292 1.608-.522 1.514-1.17 2.65-1.994 3.424-2.484 2.4-1.754 3.518-3.445 3.382-5.052-.01-.167-.543-.825-1.576-1.973-.02-.22.344-.532 1.075-.95l2.077-1.827c.46-.595.74-1.555.835-2.88l-.03-.313c-.084-.93-.752-1.68-2.025-2.255-.752-.512-2.098-.783-4.04-.814-1.597.146-3.706.7-6.295 1.712zm11.2.136l-.063.157-2.317-.97c1.545.063 2.338.334 2.38.814zm-9.374 6.43c.157-.856.334-1.347.532-1.46l1.733-3.894c-.02-.24.344-.428 1.107-.553l.25-.02.02.22 1.388-.198c1.378-.115 2.088.157 2.15.835l.157-.01-.03-.397.167-.01c.407.22.626.5.647.814.02.22-.094.5-.355.814-.104.01-.167-.063-.177-.22l-.167.01-.042.47c-.7 1.044-1.2 1.576-1.514 1.608-.282.386-.46.585-.532.595-.22.26-.814.7-1.795 1.336-.324.03-1.524.5-3.6 1.4a.58.58 0 0 0-.334-.052l-.01-.146c-.02-.303.104-.68.407-1.138zm9.593-4.802l.01.146c-.084.01-.24-.24-.47-.74l-.01-.146c.146-.02.303.23.47.74zm-15.24 1.858l.01.073c-.052 0-.136.042-.24.094l-.084.01-.01-.146zm5.042-.125l.02.23c-.073.01-.177.115-.303.334l-.01-.157c.146-.177.22-.313.22-.407zm-.772 1.628l.03.313-.084.01-.03-.313zm-.198.564c-.02.26-.084.397-.22.407h-.084c.094-.177.146-.303.136-.397zm-.344.814l.01.073-.146.25-.157.01v-.073c.157-.01.23-.094.22-.25zm-.355.73l-.042.386-.084.01-.03-.386zm8.466.282l.344.2c.01.104-.042.167-.146.177-.146-.094-.26-.136-.344-.136l-.02-.23zm-6.63.887l.01.146-.324.03-.01-.146zm5.345.543c.23.104.344.2.355.292l.01.073c-.22.02-.418-.094-.605-.344zm-6.9 1.7c.94-.084 2.422-.522 4.436-1.315l.5-.042c1.023-.084 1.785.104 2.286.585l.03.313c-.376 1.086-.793 1.712-1.242 1.9l-2.088 1.66c-1.555 1.023-2.4 1.535-2.516 1.545-2.474 1.367-4.02 2.067-4.614 2.12l-.094.01c.084-.292 1.18-2.547 3.3-6.785zm2.255-.887l.01.073-.334.03-.01-.073zm7.495-.334l.052.616c-.073.167-.146.25-.23.25l-.094-1.086c.177.073.26.146.27.22zm-12.704 5.386c-.104.532-.22.804-.334.814l-.01-.073c-.02-.27.094-.512.344-.74zm2.088 2.944c.605-.115 2.265-.992 5-2.6l.01.146c.01.063-.23.26-.7.605-1.388.68-2.203 1.148-2.443 1.388-1.503.522-2.244.846-2.234.97-1.336.532-2.213.92-2.63 1.16-.094.01-.24-.03-.428-.115-.02-.27.094-.5.365-.668.23-.02.46.01.668.104.25-.125.68-.27 1.294-.418l-.01-.157-.5.042c.063-.084.532-.303 1.43-.668l.25-.02.01.073c-.418.03-.658.167-.7.386.01.094.063.146.167.136.303-.2.46-.324.46-.355zm-2.568-1.9l.01.073c.01.104-.042.167-.146.177l-.01-.073c-.01-.094.042-.157.146-.177zm3.904 1.065c-.198.02-.564.177-1.117.5l-.084.01-.01-.157a1.58 1.58 0 0 0 1.023-.47c.115-.02.177.03.188.125zm-4.05 1.127l.25-.02v.084c-.063 0-.136.042-.24.094l-.157.01c-.01-.073.03-.136.136-.167zm-1.66.93l.177.073c-.063.47-.198.7-.438.73a1.07 1.07 0 0 0-.512-.104l-.02-.23c-.01-.094.042-.146.157-.177.104-.01.167.063.177.22.282-.344.438-.512.46-.512zm46.307-20.512l-.136-.052-2.223.344c-.084-.042-.188-.063-.303-.052-.125.01-.313.052-.595.125l-1.075.45.084.136c.052 0 .125-.03.22-.084l.376.03-.052.355c-.344.157-.553.386-.605.7-.522.23-.783.397-.783.5l.01.063.084-.01.146-.073.167.198.02.27c.01.084-.877 1.952-2.65 5.595-1.535 3.507-2.338 5.428-2.422 5.773-.522.146-.835.365-.92.647.01.094.167.146.47.177l.01.136-.136.23.02.27c.01.146.397.25 1.148.334 0-.052.02-.073.073-.084.01.167-.03.5-.146 1.002l.084-.01c.313-.428.46-.72.45-.887l.063-.01c.073-.01.157.084.25.27-.094.042-.428.793-.992 2.265l.084.136.084-.01c.7-1.764 1.138-2.745 1.315-2.933l4.75-.48.136-.084c0 .052.03.073.084.063l.146-.01.136-.084c0 .052.03.073.084.063l1.702-.146c.45-.042.668-.177.647-.407-.01-.063.26-.136.804-.2a.82.82 0 0 1 .23.042c0-.042.26-.084.804-.136.01-.282.104-.438.27-.45v-.136c-.146.01-.324.052-.522.115-.355-.02-.585-.042-.68-.084-.094.052-.167.084-.22.084l-1.2.042-.146.073c0-.042-.03-.063-.084-.052l-.063.01-.157.073c0-.042-.125-.073-.376-.104l-.146.084-.292.02-.01-.073c1.524-.167 2.286-.376 2.265-.626.094-.01.146.042.157.136l.45-.115-.01-.136-3.654.104c0 .052-.02.073-.073.084l-.45-.042a.51.51 0 0 0-.282.104l-.167-.063c-.46.042-.804.094-1.033.167a7.05 7.05 0 0 0-1.044.01l-.825.073-.376-.042c-.02-.24.45-1.43 1.42-3.57.282-.72.543-1.17.783-1.336.052 0 .125.01.23.052l.585-.198.303.052c.5-.042 1.086-.188 1.754-.428.167-.01.292 0 .376.03l.45-.104 1.326-.115a9.35 9.35 0 0 0 1.837-.376l-.01-.136c-.25.02-.376-.02-.386-.115-.02-.188-.198-.26-.543-.23l-.01-.136.365-.104.96-.084-.01-.136c-.042 0-.23 0-.595-.01l-.01-.146.376-.03c.094-.01.146-.063.136-.146-.5.01-.752-.01-.752-.073-3.476.167-5.2.198-5.22.094-.052 0-.125.03-.22.094l-.094-.146c.92-1.952 1.46-2.944 1.618-2.954.01.073-.03.198-.115.365l.01.063h.146c.365-.877.668-1.326.93-1.347 1.086-.094-.157-.167 2.182-.532.094.042.167.063.2.052.92-.188 2.192-.376 3.83-.574l-.01-.136-.877.084-.01-.136a.45.45 0 0 0 .261-.104l.01.073c.052 0 .115-.03.198-.094.146-.01.26 0 .344.042a4.69 4.69 0 0 1 .731-.146l.543-.052c.136-.084.198-.157.188-.23v-.063a2.01 2.01 0 0 1-.48-.031c-.01-.073.03-.125.125-.146l1.013-.094.47-.115c0 .052.03.073.063.073.052 0 .115-.03.198-.094.24.03.386.042.418.03.188-.177.407-.324.647-.418-.104-.104-.157-.188-.167-.26l-.68.063c0-.052-.03-.115-.073-.2 0-.063.146-.125.46-.188l.136.052.125-.073c0 .042.03.063.073.052l.125-.073c0 .042.03.063.073.052l.063-.01-.01-.136c-.094.01-.344.01-.74 0l-.125.084-.01-.073-5.418.45c-.052 0-.282 0-.668-.01 0 .052-.042.084-.136.084l-.136-.063-.47.115c-.104.01-.292 0-.553-.02a.53.53 0 0 1-.261.104c-.104.01 2.526-.146 2.443-.188l-.407.115-.063.01c-.167.01-.376.01-.626-.02a.63.63 0 0 1-.334.104.45.45 0 0 1-.27-.052 13.55 13.55 0 0 1-1.013.219zm.167.418c0 .052.052.073.136.063v.136l-.136.01a.45.45 0 0 1-.27-.052.48.48 0 0 1-.261.104h.042l-.376-.042-.01-.063c.46-.03.605-.084.866-.157zm.344-.03l.073-.01.01.136-.2.02c0-.073.03-.125.125-.146zm.804-.084l.01.073c-.157.01-.355.052-.595.125l-.073.01.063-.146zm-5.93.68l.23-.02-.01-.136-.23.02zm1.64-.146l.084-.01.157.063c.01.094-.042.146-.136.146l-.23.02-.01-.073c-.01-.073.042-.115.136-.146zm5.25.303v.063l-.47.042v-.063zm-1.347.198l.01.073-.27.02-.01-.073zm1.294.104l.94-.157.48.02.01.073a2.28 2.28 0 0 0-.595.125c0-.052-.094-.094-.282-.115l-.74.2c-.146-.084-.22-.146-.22-.188zm-.93.2c.094-.01.136.03.146.125l-.397.042-.01-.136zm-.825-.042l.01.073 2.443-.115-.01-.073zm.146.188v.063l-.532.052v-.063zm-3.497 2.766l.01.073.157-.01a.54.54 0 0 1 .052-.22l-.01-.136c-.084.01-.157.104-.2.292zm-5.376 7.808l.01.063c.01.094-.042.146-.146.157l-.01-.063c-.01-.084.042-.125.146-.157zm-.136.292c.01.136-.084.47-.27 1.013l-.23.02c-.01-.094.115-.428.355-1.013zm2.516 2.182c.01.073-.115.157-.355.24l-.46-.03-.146.01-.01-.136zm.45.042l.01.063-.376.03-.01-.063z"/></svg>