<?xml version="1.0" encoding="UTF-8" standalone="no"?>
<svg
   xmlns:dc="http://purl.org/dc/elements/1.1/"
   xmlns:cc="http://creativecommons.org/ns#"
   xmlns:rdf="http://www.w3.org/1999/02/22-rdf-syntax-ns#"
   xmlns:svg="http://www.w3.org/2000/svg"
   xmlns="http://www.w3.org/2000/svg"
   xmlns:sodipodi="http://sodipodi.sourceforge.net/DTD/sodipodi-0.dtd"
   xmlns:inkscape="http://www.inkscape.org/namespaces/inkscape"
   width="120"
   height="60"
   version="1.1"
   id="svg39"
   sodipodi:docname="haikuproject-ar21.svg"
   style="color-interpolation:linearRGB"
   inkscape:version="0.92.3 (2405546, 2018-03-11)">
  <metadata
     id="metadata45">
    <rdf:RDF>
      <cc:Work
         rdf:about="">
        <dc:format>image/svg+xml</dc:format>
        <dc:type
           rdf:resource="http://purl.org/dc/dcmitype/StillImage" />
        <dc:title></dc:title>
      </cc:Work>
    </rdf:RDF>
  </metadata>
  <defs
     id="defs43">
    <radialGradient
       gradientTransform="matrix(0.2836,-0.2527,-0.3788,-0.4255,512.8768,120.2052)"
       r="200"
       cy="0"
       cx="0"
       gradientUnits="userSpaceOnUse"
       id="gradient0">
      <stop
         id="stop14"
         stop-color="#ffa600"
         offset="0" />
      <stop
         id="stop16"
         stop-color="#ffee9c"
         offset="1" />
    </radialGradient>
    <radialGradient
       gradientTransform="matrix(0.6661,-0.0701,0.0251,0.2389,207.932,85.249)"
       r="200"
       cy="0"
       cx="0"
       gradientUnits="userSpaceOnUse"
       id="gradient1">
      <stop
         id="stop21"
         stop-color="#ff7200"
         offset="0" />
      <stop
         id="stop23"
         stop-color="#ffaa00"
         offset="1" />
    </radialGradient>
    <radialGradient
       gradientTransform="matrix(0.8307,-0.3373,0.1335,0.2809,69.4186,116.0485)"
       r="200"
       cy="0"
       cx="0"
       gradientUnits="userSpaceOnUse"
       id="gradient2">
      <stop
         id="stop28"
         stop-color="#33a02c"
         offset="0" />
      <stop
         id="stop30"
         stop-color="#a9ff00"
         offset="1" />
    </radialGradient>
  </defs>
  <sodipodi:namedview
     pagecolor="#ffffff"
     bordercolor="#666666"
     borderopacity="1"
     objecttolerance="10"
     gridtolerance="10"
     guidetolerance="10"
     inkscape:pageopacity="0"
     inkscape:pageshadow="2"
     inkscape:window-width="1920"
     inkscape:window-height="1001"
     id="namedview41"
     showgrid="false"
     inkscape:zoom="4.4826446"
     inkscape:cx="99.350735"
     inkscape:cy="33.734036"
     inkscape:window-x="-9"
     inkscape:window-y="-9"
     inkscape:window-maximized="1"
     inkscape:current-layer="svg39" />
  <g
     id="g76"
     transform="matrix(0.16886187,0,0,0.16886187,9.3279301,15.434819)">
    <path
       style="fill:#000000"
       d="M 44.02,33.02 V 139.94 H 57.97 V 33.02 Z"
       id="path2"
       inkscape:connector-curvature="0" />
    <path
       style="fill:#000000"
       d="m 107.01,33.02 c 0,35.53 0,71.38 0,106.92 h 13.95 V 33.02 Z"
       id="path4"
       inkscape:connector-curvature="0" />
    <path
       style="fill:#000000"
       d="M 209.52,28.18 159.1,139.94 h 14.09 l 36.32,-81.58 35.27,81.58 h 14.08 L 209.5,28.18 v 0 z"
       id="path6"
       inkscape:connector-curvature="0" />
    <path
       style="fill:#000000"
       d="m 297.01,33.02 v 106.92 h 13.96 V 33.02 Z"
       id="path8"
       inkscape:connector-curvature="0" />
    <path
       style="fill:#000000"
       d="m 361.01,33.02 v 106.92 h 13.93 v -44.5 l 4.48,-5.36 39.48,49.88 h 17.52 l -47.73,-58.93 47,-48 h -16.98 l -43.79,46.3 V 33.03 H 361 v 0 z"
       id="path10"
       inkscape:connector-curvature="0" />
    <path
       style="fill:#000000"
       d="M 537.01,33.02 V 97.3 c 0,10.23 -2.13,18.19 -6.28,23.88 -4.13,5.68 -10.54,7.88 -19.21,7.88 -9.08,0 -15.39,-3.48 -19.21,-9.71 -3.83,-6.23 -5.32,-12.52 -5.32,-20.91 V 33.03 h -13.92 v 68.64 c 0,6.48 1.57,12.99 4.27,19.15 2.69,6.16 6.98,11.09 12.72,15.12 5.71,4.02 12.96,5.94 21.46,6.03 5.61,0 10.77,-0.83 15.47,-2.78 4.7,-1.97 8.75,-4.8 12.19,-8.47 3.41,-3.67 6.03,-8.03 7.88,-13.1 1.82,-5.04 2.92,-10.58 2.92,-16.61 V 33.04 h -12.97 v 0 z"
       id="path12"
       inkscape:connector-curvature="0" />
    <path
       style="fill:url(#gradient0)"
       d="m 519.97,88.69 c -3,15.72 0.8,27.54 8.95,36.36 0.14,-2.41 1.1,-4.13 1.89,-5.55 0.85,15.16 12.33,15.6 17.07,17.36 0.19,-1.78 -1.48,-2.73 -0.14,-6.97 1.53,3.3 2.96,5.17 4.78,7.94 2.76,0.69 5.75,2.51 8.73,2.88 3.67,0.46 8.57,0.9 12.63,1.24 -0.04,-1.86 0.5,-2.61 1.19,-3.79 0.47,1.44 1.12,2.77 1.94,3.99 4.2,-0.36 7.86,0.96 9.85,2.18 -2.2,-8.98 -8.63,-18.15 -14.44,-24.05 -3.41,-1.01 -5.89,0.68 -10.51,2.63 0.92,-2.63 2.84,-4.77 6.6,-6.02 -4.61,-3.81 -9.66,-7.14 -14.69,-10.28 -1.95,-1.21 -7.78,-3.5 -10.36,-5.37 -2.54,-0.04 -4.89,0.06 -7.03,0.3 1.46,-1.01 2.78,-2.2 4.39,-3.08 C 534.19,91.08 529.1,88.01 521.19,85.83 514.04,74.88 510.77,59.48 512.53,58.48 l -4.13,2.35 c 0,0 3.68,17.08 11.55,27.83 l 0.01,0.02 z"
       id="path19"
       inkscape:connector-curvature="0" />
    <path
       style="fill:url(#gradient1)"
       d="M 251.6,113 C 243.2,95.6 231,86.92 216.79,84.24 c 1.59,2.43 1.9,4.79 2.16,6.73 -11.73,-14.06 -23.16,-6.23 -29.02,-4.55 1.1,1.87 3.4,1.59 5.15,6.65 -3.87,-2.08 -6.6,-2.87 -10.35,-4.23 -3.18,1.29 -7.38,1.69 -10.54,3.47 -3.89,2.19 -8.95,5.27 -13.12,7.88 1.38,1.77 1.38,2.89 1.55,4.52 -1.5,-1.04 -3.08,-1.86 -4.75,-2.45 -3.8,3.37 -8.32,4.72 -11.11,4.97 8.59,7.1 21.41,11.35 31.27,12.89 4.02,-1.46 5.19,-4.89 8.27,-10.11 0.97,3.22 0.66,6.68 -2.05,10.59 7.22,0.37 14.5,-0.02 21.61,-0.59 2.77,-0.22 10.05,-2.2 13.91,-2.24 2.5,-1.78 4.67,-3.57 6.58,-5.35 -0.68,2.04 -1.11,4.14 -2.02,6.15 11.72,2.38 18.88,1.69 28.09,-1.87 14.82,5.46 29.05,18.01 28.05,20.25 l 2.32,-5.25 c 0,0 -15.85,-13.9 -31.2,-18.65 v -0.04 z"
       id="path26"
       inkscape:connector-curvature="0" />
    <path
       style="fill:url(#gradient2)"
       d="m 39.7,101.52 c 13.95,13.37 28.42,17.25 42.67,14.8 -2.34,-1.72 -3.45,-3.83 -4.38,-5.56 15.92,9.08 23.88,-2.22 28.79,-5.86 -1.69,-1.37 -3.75,-0.3 -7.15,-4.43 4.35,0.59 7.18,0.37 11.19,0.36 2.51,-2.33 6.31,-4.16 8.66,-6.94 2.88,-3.41 6.54,-8.08 9.54,-11.97 -1.93,-1.18 -2.31,-2.22 -3.04,-3.69 1.76,0.44 3.54,0.66 5.31,0.63 2.37,-4.5 6.13,-7.33 8.66,-8.52 -10.54,-3.66 -24.04,-3.16 -33.81,-1.16 -3.26,2.79 -3.16,6.41 -4.22,12.38 -2.05,-2.67 -2.97,-6.02 -1.76,-10.65 -6.88,2.16 -13.58,5.08 -20.04,8.11 -2.5,1.17 -8.65,5.56 -12.25,6.96 -1.7,2.54 -3.12,4.98 -4.29,7.32 C 63.51,91.15 63.17,89.03 63.34,86.82 51.51,88.66 45.05,91.83 37.67,98.38 21.88,98.43 4.17,91.66 4.31,89.22 l -0.33,5.72 c 0,0 19.72,7.48 35.75,6.58 h -0.02 z"
       id="path33"
       inkscape:connector-curvature="0" />
    <path
       style="fill:#ffffff"
       d="m 578.72,41.54 c 0,-2.24 0.82,-4.21 2.48,-5.91 1.65,-1.7 3.82,-2.55 6.5,-2.55 2.25,0 4.23,0.8 5.93,2.42 1.7,1.61 2.55,3.63 2.55,6.05 0,2.3 -0.79,4.34 -2.38,6.13 -1.59,1.78 -3.68,2.68 -6.27,2.68 -0.05,0 -0.11,0 -0.16,0 -0.05,0 -0.1,0 -0.16,0 -2.38,-0.07 -4.3,-0.84 -5.73,-2.3 -1.43,-1.46 -2.31,-3.07 -2.63,-4.83 -0.02,-0.21 -0.05,-0.44 -0.07,-0.67 -0.02,-0.22 -0.03,-0.45 -0.03,-0.67 0,-0.05 0,-0.11 0,-0.16 0,-0.05 0,-0.1 0,-0.16 v -0.02 z m 15.92,-0.18 c 0,-0.02 0,-0.06 0,-0.1 0,-0.04 0,-0.09 0,-0.15 0,-0.23 -0.01,-0.47 -0.04,-0.72 -0.02,-0.24 -0.08,-0.49 -0.15,-0.74 -0.33,-1.29 -1.08,-2.47 -2.25,-3.55 -1.16,-1.07 -2.66,-1.61 -4.49,-1.61 -0.02,0 -0.05,0 -0.07,0 -0.02,0 -0.04,0 -0.07,0 -0.02,0 -0.05,0 -0.07,0 -0.02,0 -0.04,0 -0.07,0 -2.06,0.07 -3.66,0.66 -4.78,1.78 -1.12,1.11 -1.86,2.33 -2.23,3.65 -0.08,0.35 -0.15,0.69 -0.19,1.03 -0.04,0.33 -0.06,0.66 -0.06,0.98 0.05,1.7 0.53,3.07 1.41,4.12 0.88,1.04 1.85,1.81 2.91,2.29 0.49,0.23 0.98,0.4 1.46,0.51 0.47,0.1 0.91,0.16 1.3,0.16 2.02,0 3.65,-0.58 4.9,-1.74 1.24,-1.16 2.03,-2.45 2.37,-3.85 0.05,-0.23 0.1,-0.47 0.13,-0.71 0.02,-0.24 0.04,-0.48 0.04,-0.71 0,-0.1 0,-0.2 0,-0.29 0,-0.09 0,-0.19 -0.02,-0.29 V 41.4 Z m -10.73,-4.33 h 4.33 c 1.04,0.01 1.82,0.21 2.34,0.59 0.52,0.38 0.78,1 0.78,1.86 0,0.85 -0.19,1.48 -0.58,1.89 -0.38,0.41 -1.05,0.7 -2.01,0.87 l 2.59,4.31 h -1.73 l -2.41,-4.33 h -1.91 v 4.33 h -1.38 v -9.54 z m 4.16,1.23 h -2.77 v 2.59 h 2.94 c 0.6,0.01 1.04,-0.09 1.31,-0.32 0.27,-0.23 0.41,-0.52 0.41,-0.85 0,-0.35 -0.14,-0.67 -0.43,-0.95 -0.29,-0.28 -0.78,-0.42 -1.47,-0.42 v -0.02 z"
       id="path35"
       inkscape:connector-curvature="0" />
  </g>
</svg>
