<?xml version="1.0" encoding="UTF-8" standalone="no"?>
<!-- Created with Inkscape (http://www.inkscape.org/) -->

<svg
   xmlns:dc="http://purl.org/dc/elements/1.1/"
   xmlns:cc="http://creativecommons.org/ns#"
   xmlns:rdf="http://www.w3.org/1999/02/22-rdf-syntax-ns#"
   xmlns:svg="http://www.w3.org/2000/svg"
   xmlns="http://www.w3.org/2000/svg"
   xmlns:sodipodi="http://sodipodi.sourceforge.net/DTD/sodipodi-0.dtd"
   xmlns:inkscape="http://www.inkscape.org/namespaces/inkscape"
   id="svg2"
   version="1.1"
   inkscape:version="0.91 r13725"
   width="120"
   height="60"
   viewBox="0 0 120 60"
   sodipodi:docname="tuckey_urlrewrite-ar21.svg">
  <metadata
     id="metadata8">
    <rdf:RDF>
      <cc:Work
         rdf:about="">
        <dc:format>image/svg+xml</dc:format>
        <dc:type
           rdf:resource="http://purl.org/dc/dcmitype/StillImage" />
        <dc:title />
      </cc:Work>
    </rdf:RDF>
  </metadata>
  <defs
     id="defs6" />
  <sodipodi:namedview
     pagecolor="#ffffff"
     bordercolor="#666666"
     borderopacity="1"
     objecttolerance="10"
     gridtolerance="10"
     guidetolerance="10"
     inkscape:pageopacity="0"
     inkscape:pageshadow="2"
     inkscape:window-width="1855"
     inkscape:window-height="1056"
     id="namedview4"
     showgrid="false"
     inkscape:zoom="6.3414796"
     inkscape:cx="69.677361"
     inkscape:cy="31.049422"
     inkscape:window-x="65"
     inkscape:window-y="24"
     inkscape:window-maximized="1"
     inkscape:current-layer="svg2" />
  <g
     id="g4439"
     transform="matrix(0.43068522,0,0,0.43067961,-148.58911,101.57738)">
    <g
       transform="translate(0,-239.875)"
       id="g4413">
      <path
         style="fill:#4979c1;fill-opacity:1;fill-rule:evenodd;stroke:none;stroke-width:1px;stroke-linecap:butt;stroke-linejoin:miter;stroke-opacity:1"
         d="m 356.25852,65.925237 0.22301,17.617792 24.3081,-0.44602 0.1115,8.474381 8.9204,-17.840802 -8.9204,-16.837257 0.11151,9.143411 z"
         id="path3541"
         inkscape:connector-curvature="0"
         sodipodi:nodetypes="cccccccc" />
      <path
         style="fill:#4979c1;fill-opacity:1;fill-rule:evenodd;stroke:none;stroke-width:1px;stroke-linecap:butt;stroke-linejoin:miter;stroke-opacity:1"
         d="m 404.42869,57.673866 12.26555,0.111505 c 2.2301,0.44602 2.78763,-1.338061 2.34161,-3.345151 l -5.12923,-27.876253 -3.34515,0.111505 5.90976,-4.125686 8.02837,1.449565 -3.67967,0.89204 5.46374,27.318729 c 0.92921,5.649588 -1.59823,10.96466 -6.57879,12.600067 l -15.38769,0.334515 z"
         id="path3578"
         inkscape:connector-curvature="0"
         sodipodi:nodetypes="cccccccccccc" />
      <path
         style="fill:#df3232;fill-opacity:1;fill-rule:evenodd;stroke:none;stroke-width:1px;stroke-linecap:butt;stroke-linejoin:miter;stroke-opacity:1"
         d="m 394.61625,44.293264 3.01063,0.111505 -0.22301,65.341941 -3.12214,0.1115 z"
         id="path3580"
         inkscape:connector-curvature="0" />
      <path
         style="fill:#4979c1;fill-opacity:1;fill-rule:evenodd;stroke:none;stroke-width:1px;stroke-linecap:butt;stroke-linejoin:miter;stroke-opacity:1"
         d="m 403.98267,80.197879 14.60716,0 c 5.76109,0.520357 11.41068,2.378774 15.94521,5.240736 l 3.01064,-5.575251 0.44602,15.164682 -10.81599,9.031904 2.78763,-6.244279 c -3.45666,-2.415942 -7.58234,-4.385863 -13.04609,-4.90622 l -12.60006,-0.22301 z"
         id="path3582"
         inkscape:connector-curvature="0"
         sodipodi:nodetypes="cccccccccc" />
      <path
         style="fill:#4979c1;fill-opacity:1;fill-rule:evenodd;stroke:none;stroke-width:1px;stroke-linecap:butt;stroke-linejoin:miter;stroke-opacity:1"
         d="m 404.42869,70.162428 21.18595,0 c 3.53099,-1.412397 5.94693,-3.716834 8.25137,-6.578796 l 12.04255,-14.495652 -1.67258,-1.449566 4.3487,1.338061 1.44956,3.679665 -1.56107,-1.003545 -15.4992,17.506287 c -2.04426,2.267269 -4.98055,4.200022 -8.13986,4.794716 l -20.51692,0.22301 z"
         id="path3584"
         inkscape:connector-curvature="0"
         sodipodi:nodetypes="cccccccccccc" />
    </g>
  </g>
  <text
     xml:space="preserve"
     style="font-style:normal;font-weight:normal;font-size:40px;line-height:125%;font-family:sans-serif;letter-spacing:0px;word-spacing:0px;fill:#000000;fill-opacity:1;stroke:none;stroke-width:1px;stroke-linecap:butt;stroke-linejoin:miter;stroke-opacity:1"
     x="91.434113"
     y="30.116655"
     id="text3492"
     sodipodi:linespacing="125%"><tspan
       sodipodi:role="line"
       id="tspan3494"
       x="91.434113"
       y="30.116655"></tspan><tspan
       sodipodi:role="line"
       x="91.434113"
       y="80.116653"
       id="tspan3496" /></text>
  <g
     id="g3608"
     transform="matrix(1.5107443,0,0,1.5107443,-21.170388,-17.80335)">
    <path
       d="m 46.820806,25.854512 1.424298,0 -0.646286,3.680078 q -0.03293,0.197589 -0.05351,0.349897 -0.01647,0.152308 -0.01647,0.267566 0,0.40341 0.193474,0.605115 0.197591,0.197587 0.584539,0.197587 0.518675,0 0.794479,-0.321081 0.275804,-0.325197 0.411648,-1.094966 l 0.646285,-3.684196 1.4243,0 -0.646286,3.684196 q -0.238755,1.358417 -0.913857,1.971763 -0.670985,0.60923 -1.922393,0.60923 -0.97972,0 -1.49428,-0.465155 -0.510442,-0.469271 -0.510442,-1.358418 0,-0.14819 0.01647,-0.329313 0.02058,-0.185238 0.06175,-0.428107 l 0.646286,-3.684196 z"
       style="font-style:oblique;font-variant:normal;font-weight:bold;font-stretch:semi-condensed;font-size:56.65693665px;line-height:125%;font-family:'DejaVu Sans';-inkscape-font-specification:'DejaVu Sans, Bold Oblique Semi-Condensed';text-align:start;letter-spacing:0px;word-spacing:0px;writing-mode:lr-tb;text-anchor:start;fill:#000000;fill-opacity:1;stroke:none;stroke-width:1px;stroke-linecap:butt;stroke-linejoin:miter;stroke-opacity:1"
       id="path3543"
       inkscape:connector-curvature="0" />
    <path
       d="m 55.642404,28.645445 q -0.139959,-0.08645 -0.308735,-0.131726 -0.164659,-0.04528 -0.354016,-0.04528 -0.510442,0 -0.847994,0.362245 -0.333433,0.362245 -0.448695,1.045571 l -0.378715,2.124071 -1.32962,0 0.806827,-4.610388 1.333738,0 -0.144077,0.790353 q 0.263455,-0.436341 0.65452,-0.666861 0.39518,-0.234635 0.876808,-0.234635 0.0741,0 0.160543,0.0082 0.09056,0.0082 0.20994,0.0247 l -0.230524,1.33372 z"
       style="font-style:oblique;font-variant:normal;font-weight:bold;font-stretch:semi-condensed;font-size:56.65693665px;line-height:125%;font-family:'DejaVu Sans';-inkscape-font-specification:'DejaVu Sans, Bold Oblique Semi-Condensed';text-align:start;letter-spacing:0px;word-spacing:0px;writing-mode:lr-tb;text-anchor:start;fill:#000000;fill-opacity:1;stroke:none;stroke-width:1px;stroke-linecap:butt;stroke-linejoin:miter;stroke-opacity:1"
       id="path3545"
       inkscape:connector-curvature="0" />
    <path
       d="m 56.827949,25.595179 1.333737,0 -1.119681,6.405146 -1.32962,0 1.115564,-6.405146 z"
       style="font-style:oblique;font-variant:normal;font-weight:bold;font-stretch:semi-condensed;font-size:56.65693665px;line-height:125%;font-family:'DejaVu Sans';-inkscape-font-specification:'DejaVu Sans, Bold Oblique Semi-Condensed';text-align:start;letter-spacing:0px;word-spacing:0px;writing-mode:lr-tb;text-anchor:start;fill:#000000;fill-opacity:1;stroke:none;stroke-width:1px;stroke-linecap:butt;stroke-linejoin:miter;stroke-opacity:1"
       id="path3547"
       inkscape:connector-curvature="0" />
    <path
       d="m 60.866208,28.579583 q 0.485743,0 0.732731,-0.251103 0.251106,-0.251102 0.251106,-0.736839 0,-0.304614 -0.172892,-0.444573 -0.172892,-0.144075 -0.543375,-0.144075 l -0.588655,0 -0.27992,1.57659 0.601005,0 z m -0.790363,1.094966 -0.411647,2.325776 -1.4243,0 1.078516,-6.145813 2.107633,0 q 0.909741,0 1.379019,0.378712 0.473395,0.378711 0.473395,1.115548 0,0.745072 -0.370483,1.226693 -0.370483,0.481621 -1.004419,0.551601 0.288152,0.06586 0.481627,0.329313 0.193474,0.259334 0.337551,0.798586 l 0.469277,1.74536 -1.420183,0 -0.415763,-1.527191 q -0.123495,-0.456923 -0.304619,-0.625695 -0.177008,-0.17289 -0.518676,-0.17289 l -0.456928,0 z"
       style="font-style:oblique;font-variant:normal;font-weight:bold;font-stretch:semi-condensed;font-size:56.65693665px;line-height:125%;font-family:'DejaVu Sans';-inkscape-font-specification:'DejaVu Sans, Bold Oblique Semi-Condensed';text-align:start;letter-spacing:0px;word-spacing:0px;writing-mode:lr-tb;text-anchor:start;fill:#000000;fill-opacity:1;stroke:none;stroke-width:1px;stroke-linecap:butt;stroke-linejoin:miter;stroke-opacity:1"
       id="path3549"
       inkscape:connector-curvature="0" />
    <path
       d="m 68.28409,29.868021 -0.04528,0.234636 -3.10382,0 q 0,0.0247 -0.0041,0.07409 -0.0041,0.04528 -0.0041,0.06998 0,0.448689 0.242871,0.670975 0.242872,0.222287 0.728615,0.222287 0.41988,0 0.885041,-0.139959 0.465162,-0.139957 0.975605,-0.415757 l -0.205824,1.144363 q -0.481627,0.197589 -0.963255,0.292266 -0.47751,0.09879 -0.975603,0.09879 -0.971488,0 -1.498395,-0.498085 -0.526909,-0.498087 -0.526909,-1.407816 0,-0.526902 0.164659,-1.020872 0.168774,-0.498087 0.493976,-0.909728 0.382832,-0.49397 0.913856,-0.749188 0.531026,-0.255218 1.177313,-0.255218 0.843875,0 1.337852,0.498086 0.493977,0.498087 0.493977,1.341953 0,0.164657 -0.02058,0.349895 -0.02058,0.181122 -0.06586,0.399293 z m -1.251407,-0.675093 q 0.01235,-0.05351 0.01647,-0.107027 0.0041,-0.05763 0.0041,-0.111143 0,-0.329313 -0.177008,-0.522784 -0.177009,-0.193473 -0.481627,-0.193473 -0.38695,0 -0.662753,0.238753 -0.271687,0.234635 -0.415764,0.695674 l 1.71657,0 z"
       style="font-style:oblique;font-variant:normal;font-weight:bold;font-stretch:semi-condensed;font-size:56.65693665px;line-height:125%;font-family:'DejaVu Sans';-inkscape-font-specification:'DejaVu Sans, Bold Oblique Semi-Condensed';text-align:start;letter-spacing:0px;word-spacing:0px;writing-mode:lr-tb;text-anchor:start;fill:#000000;fill-opacity:1;stroke:none;stroke-width:1px;stroke-linecap:butt;stroke-linejoin:miter;stroke-opacity:1"
       id="path3551"
       inkscape:connector-curvature="0" />
    <path
       d="m 69.325558,27.389937 1.222592,0 0.144077,3.169642 1.251406,-3.169642 1.053818,0 0.152308,3.161409 1.243175,-3.161409 1.304922,0 -1.897693,4.610388 -1.407834,0 -0.135844,-3.169642 -1.267873,3.169642 -1.374902,0 -0.288152,-4.610388 z"
       style="font-style:oblique;font-variant:normal;font-weight:bold;font-stretch:semi-condensed;font-size:56.65693665px;line-height:125%;font-family:'DejaVu Sans';-inkscape-font-specification:'DejaVu Sans, Bold Oblique Semi-Condensed';text-align:start;letter-spacing:0px;word-spacing:0px;writing-mode:lr-tb;text-anchor:start;fill:#000000;fill-opacity:1;stroke:none;stroke-width:1px;stroke-linecap:butt;stroke-linejoin:miter;stroke-opacity:1"
       id="path3553"
       inkscape:connector-curvature="0" />
    <path
       d="m 79.583807,28.645445 q -0.139961,-0.08645 -0.308735,-0.131726 -0.164659,-0.04528 -0.354017,-0.04528 -0.510443,0 -0.847993,0.362245 -0.333435,0.362245 -0.448695,1.045571 l -0.378716,2.124071 -1.329621,0 0.806829,-4.610388 1.333737,0 -0.144077,0.790353 q 0.263454,-0.436341 0.654519,-0.666861 0.395182,-0.234635 0.876808,-0.234635 0.0741,0 0.160543,0.0082 0.09056,0.0082 0.20994,0.0247 l -0.230522,1.33372 z"
       style="font-style:oblique;font-variant:normal;font-weight:bold;font-stretch:semi-condensed;font-size:56.65693665px;line-height:125%;font-family:'DejaVu Sans';-inkscape-font-specification:'DejaVu Sans, Bold Oblique Semi-Condensed';text-align:start;letter-spacing:0px;word-spacing:0px;writing-mode:lr-tb;text-anchor:start;fill:#000000;fill-opacity:1;stroke:none;stroke-width:1px;stroke-linecap:butt;stroke-linejoin:miter;stroke-opacity:1"
       id="path3555"
       inkscape:connector-curvature="0" />
    <path
       d="m 80.460615,27.389937 1.333738,0 -0.810945,4.610388 -1.32962,0 0.806827,-4.610388 z m 0.308736,-1.794758 1.333736,0 -0.20994,1.201994 -1.337852,0 0.214056,-1.201994 z"
       style="font-style:oblique;font-variant:normal;font-weight:bold;font-stretch:semi-condensed;font-size:56.65693665px;line-height:125%;font-family:'DejaVu Sans';-inkscape-font-specification:'DejaVu Sans, Bold Oblique Semi-Condensed';text-align:start;letter-spacing:0px;word-spacing:0px;writing-mode:lr-tb;text-anchor:start;fill:#000000;fill-opacity:1;stroke:none;stroke-width:1px;stroke-linecap:butt;stroke-linejoin:miter;stroke-opacity:1"
       id="path3557"
       inkscape:connector-curvature="0" />
    <path
       d="m 84.749978,26.080916 -0.226407,1.309021 1.358436,0 -0.189358,1.053804 -1.358436,0 -0.33755,1.951181 q -0.01647,0.06586 -0.0247,0.111143 -0.0041,0.04528 -0.0041,0.08645 0,0.189354 0.111144,0.271682 0.115262,0.08233 0.382832,0.08233 l 0.687452,0 -0.189358,1.053803 -1.115565,0 q -0.601005,0 -0.917974,-0.279917 -0.312851,-0.279915 -0.312851,-0.806817 0,-0.11526 0.0082,-0.246985 0.01235,-0.131726 0.03705,-0.267568 l 0.341668,-1.955297 -0.65452,0 0.181125,-1.053804 0.662751,0 0.226406,-1.309021 1.333738,0 z"
       style="font-style:oblique;font-variant:normal;font-weight:bold;font-stretch:semi-condensed;font-size:56.65693665px;line-height:125%;font-family:'DejaVu Sans';-inkscape-font-specification:'DejaVu Sans, Bold Oblique Semi-Condensed';text-align:start;letter-spacing:0px;word-spacing:0px;writing-mode:lr-tb;text-anchor:start;fill:#000000;fill-opacity:1;stroke:none;stroke-width:1px;stroke-linecap:butt;stroke-linejoin:miter;stroke-opacity:1"
       id="path3559"
       inkscape:connector-curvature="0" />
    <path
       id="path3561"
       d="m 88.667969,27.279297 c -0.430858,0 -0.821765,0.08376 -1.175781,0.253906 -0.354018,0.170145 -0.658842,0.420687 -0.914063,0.75 -0.2168,0.274427 -0.381623,0.578098 -0.494141,0.910156 -0.109772,0.329314 -0.164062,0.668264 -0.164062,1.019532 0,0.606486 0.17412,1.076145 0.52539,1.408203 0.351273,0.332056 0.852342,0.498047 1.5,0.498047 0.332062,0 0.656269,-0.0318 0.97461,-0.09766 0.321084,-0.06312 0.641806,-0.161242 0.96289,-0.292968 l 0.207032,-1.144532 C 89.749549,30.767851 89.423389,30.906695 89.113281,31 c -0.310107,0.09331 -0.604845,0.140625 -0.884765,0.140625 -0.32383,0 -0.566602,-0.07447 -0.728516,-0.222656 -0.161915,-0.148191 -0.242188,-0.372749 -0.242188,-0.671875 0,-0.01647 0.0012,-0.04013 0.0039,-0.07031 0.0027,-0.03293 0.0039,-0.0558 0.0039,-0.07227 l 3.103516,0 0.04492,-0.236328 c 0.03019,-0.145448 0.05269,-0.27769 0.06641,-0.398438 0.01372,-0.123492 0.01953,-0.239838 0.01953,-0.349609 0,-0.562578 -0.164823,-1.009739 -0.494141,-1.341797 -0.329317,-0.332058 -0.775306,-0.498047 -1.33789,-0.498047 z m -0.142578,0.978515 c 0.203079,0 0.362463,0.06438 0.480468,0.19336 0.118006,0.128981 0.177735,0.303895 0.177735,0.523437 0,0.03568 -0.0012,0.07291 -0.0039,0.111329 -0.0027,0.03568 -0.0093,0.07175 -0.01758,0.107421 l -1.716797,0 c 0.09605,-0.307359 0.234892,-0.538889 0.416016,-0.695312 0.18387,-0.159169 0.406097,-0.240235 0.664063,-0.240235 z"
       style="font-style:oblique;font-variant:normal;font-weight:bold;font-stretch:semi-condensed;font-size:56.65693665px;line-height:125%;font-family:'DejaVu Sans';-inkscape-font-specification:'DejaVu Sans, Bold Oblique Semi-Condensed';text-align:start;letter-spacing:0px;word-spacing:0px;writing-mode:lr-tb;text-anchor:start;fill:#000000;fill-opacity:1;stroke:none;stroke-width:1px;stroke-linecap:butt;stroke-linejoin:miter;stroke-opacity:1"
       inkscape:connector-curvature="0" />
    <g
       transform="translate(-36.505676,-0.86730549)"
       id="g3600">
      <path
         inkscape:connector-curvature="0"
         id="path3563-9"
         style="font-style:oblique;font-variant:normal;font-weight:bold;font-stretch:semi-condensed;font-size:56.65693665px;line-height:125%;font-family:'DejaVu Sans';-inkscape-font-specification:'DejaVu Sans, Bold Oblique Semi-Condensed';text-align:start;letter-spacing:0px;word-spacing:0px;writing-mode:lr-tb;text-anchor:start;fill:#000000;fill-opacity:1;stroke:none;stroke-width:1px;stroke-linecap:butt;stroke-linejoin:miter;stroke-opacity:1"
         d="m 92.892469,34.91908 3.844786,0 -0.20994,1.197878 -2.420486,0 -0.201707,1.144365 2.280525,0 -0.218173,1.197877 -2.272292,0 -0.456929,2.605692 -1.424299,0 1.078515,-6.145812 z" />
      <path
         inkscape:connector-curvature="0"
         id="path3565-6"
         style="font-style:oblique;font-variant:normal;font-weight:bold;font-stretch:semi-condensed;font-size:56.65693665px;line-height:125%;font-family:'DejaVu Sans';-inkscape-font-specification:'DejaVu Sans, Bold Oblique Semi-Condensed';text-align:start;letter-spacing:0px;word-spacing:0px;writing-mode:lr-tb;text-anchor:start;fill:#000000;fill-opacity:1;stroke:none;stroke-width:1px;stroke-linecap:butt;stroke-linejoin:miter;stroke-opacity:1"
         d="m 97.881635,36.454504 1.333736,0 -0.810945,4.610388 -1.32962,0 0.806829,-4.610388 z m 0.308735,-1.794758 1.333737,0 -0.20994,1.201994 -1.337854,0 0.214057,-1.201994 z" />
      <path
         inkscape:connector-curvature="0"
         id="path3567-4"
         style="font-style:oblique;font-variant:normal;font-weight:bold;font-stretch:semi-condensed;font-size:56.65693665px;line-height:125%;font-family:'DejaVu Sans';-inkscape-font-specification:'DejaVu Sans, Bold Oblique Semi-Condensed';text-align:start;letter-spacing:0px;word-spacing:0px;writing-mode:lr-tb;text-anchor:start;fill:#000000;fill-opacity:1;stroke:none;stroke-width:1px;stroke-linecap:butt;stroke-linejoin:miter;stroke-opacity:1"
         d="m 100.79198,34.659746 1.33374,0 -1.11968,6.405146 -1.329624,0 1.115564,-6.405146 z" />
      <path
         inkscape:connector-curvature="0"
         id="path3569-3"
         style="font-style:oblique;font-variant:normal;font-weight:bold;font-stretch:semi-condensed;font-size:56.65693665px;line-height:125%;font-family:'DejaVu Sans';-inkscape-font-specification:'DejaVu Sans, Bold Oblique Semi-Condensed';text-align:start;letter-spacing:0px;word-spacing:0px;writing-mode:lr-tb;text-anchor:start;fill:#000000;fill-opacity:1;stroke:none;stroke-width:1px;stroke-linecap:butt;stroke-linejoin:miter;stroke-opacity:1"
         d="m 104.7726,35.145483 -0.2264,1.309021 1.35843,0 -0.18935,1.053804 -1.35844,0 -0.33755,1.951182 q -0.0165,0.06586 -0.0247,0.111143 -0.004,0.04528 -0.004,0.08644 0,0.189354 0.11114,0.271682 0.11527,0.08233 0.38284,0.08233 l 0.68745,0 -0.18936,1.053803 -1.11557,0 q -0.601,0 -0.91797,-0.279917 -0.31285,-0.279915 -0.31285,-0.806817 0,-0.11526 0.008,-0.246985 0.0123,-0.131726 0.0371,-0.267568 l 0.34166,-1.955297 -0.65452,0 0.18113,-1.053804 0.66275,0 0.22641,-1.309021 1.33373,0 z" />
      <path
         inkscape:connector-curvature="0"
         id="path3571-3"
         style="font-style:oblique;font-variant:normal;font-weight:bold;font-stretch:semi-condensed;font-size:56.65693665px;line-height:125%;font-family:'DejaVu Sans';-inkscape-font-specification:'DejaVu Sans, Bold Oblique Semi-Condensed';text-align:start;letter-spacing:0px;word-spacing:0px;writing-mode:lr-tb;text-anchor:start;fill:#000000;fill-opacity:1;stroke:none;stroke-width:1px;stroke-linecap:butt;stroke-linejoin:miter;stroke-opacity:1"
         d="m 110.43687,38.932588 -0.0453,0.234636 -3.10382,0 q 0,0.0247 -0.004,0.07409 -0.004,0.04528 -0.004,0.06998 0,0.448689 0.24287,0.670975 0.24287,0.222288 0.72861,0.222288 0.41988,0 0.88505,-0.13996 0.46516,-0.139957 0.9756,-0.415757 l -0.20582,1.144363 q -0.48163,0.197589 -0.96326,0.292266 -0.47751,0.09879 -0.9756,0.09879 -0.97149,0 -1.4984,-0.498085 -0.52691,-0.498087 -0.52691,-1.407816 0,-0.526902 0.16466,-1.020872 0.16878,-0.498087 0.49398,-0.909728 0.38283,-0.49397 0.91386,-0.749188 0.53102,-0.255218 1.17731,-0.255218 0.84387,0 1.33785,0.498086 0.49398,0.498087 0.49398,1.341953 0,0.164657 -0.0206,0.349895 -0.0206,0.181123 -0.0659,0.399293 z m -1.25141,-0.675093 q 0.0123,-0.05351 0.0165,-0.107027 0.004,-0.05763 0.004,-0.111143 0,-0.329313 -0.17701,-0.522784 -0.17701,-0.193473 -0.48162,-0.193473 -0.38695,0 -0.66276,0.238753 -0.27168,0.234635 -0.41576,0.695674 l 1.71657,0 z" />
      <path
         inkscape:connector-curvature="0"
         id="path3573-3"
         style="font-style:oblique;font-variant:normal;font-weight:bold;font-stretch:semi-condensed;font-size:56.65693665px;line-height:125%;font-family:'DejaVu Sans';-inkscape-font-specification:'DejaVu Sans, Bold Oblique Semi-Condensed';text-align:start;letter-spacing:0px;word-spacing:0px;writing-mode:lr-tb;text-anchor:start;fill:#000000;fill-opacity:1;stroke:none;stroke-width:1px;stroke-linecap:butt;stroke-linejoin:miter;stroke-opacity:1"
         d="m 114.72212,37.710012 q -0.13996,-0.08645 -0.30874,-0.131726 -0.16465,-0.04528 -0.35401,-0.04528 -0.51044,0 -0.848,0.362245 -0.33343,0.362245 -0.44869,1.045571 l -0.37872,2.124071 -1.32962,0 0.80683,-4.610388 1.33374,0 -0.14408,0.790353 q 0.26346,-0.436341 0.65452,-0.666861 0.39518,-0.234635 0.87681,-0.234635 0.0741,0 0.16054,0.0082 0.0906,0.0082 0.20994,0.0247 l -0.23052,1.33372 z" />
    </g>
  </g>
  <text
     xml:space="preserve"
     style="font-style:normal;font-weight:normal;font-size:40px;line-height:125%;font-family:sans-serif;letter-spacing:0px;word-spacing:0px;fill:#000000;fill-opacity:1;stroke:none;stroke-width:1px;stroke-linecap:butt;stroke-linejoin:miter;stroke-opacity:1"
     x="103.70935"
     y="36.98978"
     id="text3561"
     sodipodi:linespacing="125%"><tspan
       sodipodi:role="line"
       id="tspan3563"
       x="103.70935"
       y="36.98978">     </tspan></text>
</svg>
