<?xml version="1.0" encoding="UTF-8" standalone="no"?>
<svg
   xmlns:dc="http://purl.org/dc/elements/1.1/"
   xmlns:cc="http://creativecommons.org/ns#"
   xmlns:rdf="http://www.w3.org/1999/02/22-rdf-syntax-ns#"
   xmlns:svg="http://www.w3.org/2000/svg"
   xmlns="http://www.w3.org/2000/svg"
   xmlns:sodipodi="http://sodipodi.sourceforge.net/DTD/sodipodi-0.dtd"
   xmlns:inkscape="http://www.inkscape.org/namespaces/inkscape"
   id="logos"
   viewBox="0 0 120 60"
   version="1.1"
   sodipodi:docname="creativemarket-ar21.svg"
   width="120"
   height="60"
   inkscape:version="0.92.3 (2405546, 2018-03-11)">
  <metadata
     id="metadata25">
    <rdf:RDF>
      <cc:Work
         rdf:about="">
        <dc:format>image/svg+xml</dc:format>
        <dc:type
           rdf:resource="http://purl.org/dc/dcmitype/StillImage" />
        <dc:title>logo-creative-market</dc:title>
      </cc:Work>
    </rdf:RDF>
  </metadata>
  <sodipodi:namedview
     pagecolor="#ffffff"
     bordercolor="#666666"
     borderopacity="1"
     objecttolerance="10"
     gridtolerance="10"
     guidetolerance="10"
     inkscape:pageopacity="0"
     inkscape:pageshadow="2"
     inkscape:window-width="1920"
     inkscape:window-height="1001"
     id="namedview23"
     showgrid="false"
     inkscape:zoom="1.13"
     inkscape:cx="150"
     inkscape:cy="50"
     inkscape:window-x="-9"
     inkscape:window-y="-9"
     inkscape:window-maximized="1"
     inkscape:current-layer="logos" />
  <defs
     id="defs4">
    <style
       id="style2">.cls-1{fill:#8aa651;}</style>
  </defs>
  <title
     id="title6">logo-creative-market</title>
  <g
     id="g34"
     transform="matrix(0.89380531,0,0,0.89380531,-36.772276,6.6687292)">
    <path
       style="fill:#8aa651;stroke-width:0.54522252"
       inkscape:connector-curvature="0"
       id="path8"
       d="M 89.293162,38.595638 H 88.23543 a 0.21263679,0.21263679 0 0 0 -0.174471,0.08723 l -1.891922,3.162291 c -0.09269,0.114497 -0.158115,0.114497 -0.24535,0 l -1.8374,-3.151386 a 0.20173234,0.20173234 0 0 0 -0.174471,-0.09269 h -1.035923 a 0.21808901,0.21808901 0 0 0 -0.218089,0.218089 v 6.362747 a 0.21808901,0.21808901 0 0 0 0.218089,0.218089 h 1.035923 a 0.21808901,0.21808901 0 0 0 0.218089,-0.218089 v -3.271335 c 0,-0.212637 0.201732,-0.299873 0.327133,-0.130854 l 1.417579,2.311744 a 0.21808901,0.21808901 0 0 0 0.348942,0 l 1.472101,-2.322648 c 0.125401,-0.169019 0.321681,-0.07633 0.321681,0.130853 v 3.271335 a 0.21808901,0.21808901 0 0 0 0.218089,0.218089 h 1.057732 a 0.21808901,0.21808901 0 0 0 0.218089,-0.218089 V 38.81372 a 0.21808901,0.21808901 0 0 0 -0.218089,-0.218089 z"
       class="cls-1" />
    <path
       style="fill:#8aa651;stroke-width:0.54522252"
       inkscape:connector-curvature="0"
       id="path10"
       d="m 97.247959,38.726491 a 0.22899346,0.22899346 0 0 0 -0.201733,-0.130853 h -1.090445 a 0.22899346,0.22899346 0 0 0 -0.201732,0.130853 l -2.824253,6.34639 a 0.21808901,0.21808901 0 0 0 0.19628,0.305325 h 1.128611 a 0.21808901,0.21808901 0 0 0 0.201732,-0.141758 l 0.41437,-1.057732 a 0.21808901,0.21808901 0 0 1 0.201732,-0.141757 h 2.851514 a 0.21808901,0.21808901 0 0 1 0.201732,0.136305 l 0.425274,1.090445 a 0.21808901,0.21808901 0 0 0 0.201732,0.136306 h 1.090445 A 0.21808901,0.21808901 0 0 0 100.0395,45.09469 Z m -0.03817,3.996481 h -1.466648 a 0.21808901,0.21808901 0 0 1 -0.201733,-0.29442 l 0.746955,-1.821043 a 0.21808901,0.21808901 0 0 1 0.403465,0 l 0.725146,1.815591 a 0.21808901,0.21808901 0 0 1 -0.207185,0.299872 z"
       class="cls-1" />
    <path
       style="fill:#8aa651;stroke-width:0.54522252"
       inkscape:connector-curvature="0"
       id="path12"
       d="m 116.66879,41.692502 a 0.20718456,0.20718456 0 0 1 0,-0.256255 l 2.03368,-2.491667 a 0.21263679,0.21263679 0 0 0 -0.16357,-0.348942 h -1.12316 a 0.22899346,0.22899346 0 0 0 -0.16902,0.08178 l -2.28448,2.878775 a 0.21263679,0.21263679 0 0 1 -0.38166,-0.130853 v -2.617068 a 0.21263679,0.21263679 0 0 0 -0.21263,-0.212637 h -1.00867 a 0.21808901,0.21808901 0 0 0 -0.21263,0.212637 v 6.373651 a 0.21808901,0.21808901 0 0 0 0.21263,0.218089 h 1.00867 a 0.21263679,0.21263679 0 0 0 0.21263,-0.218089 v -1.090445 a 0.20718456,0.20718456 0 0 1 0.0491,-0.136306 l 0.856,-1.046827 a 0.21808901,0.21808901 0 0 1 0.34349,0 l 1.66293,2.398979 a 0.21808901,0.21808901 0 0 0 0.17447,0.09269 h 1.24856 a 0.21263679,0.21263679 0 0 0 0.17447,-0.338038 z"
       class="cls-1" />
    <path
       style="fill:#8aa651;stroke-width:0.54522252"
       inkscape:connector-curvature="0"
       id="path14"
       d="m 127.63321,44.091481 h -3.195 a 0.24535014,0.24535014 0 0 1 -0.24535,-0.24535 v -1.014114 a 0.24535014,0.24535014 0 0 1 0.24535,-0.24535 h 2.13727 a 0.24535014,0.24535014 0 0 0 0.24535,-0.24535 v -0.741503 a 0.24535014,0.24535014 0 0 0 -0.24535,-0.239898 h -2.13727 a 0.24535014,0.24535014 0 0 1 -0.24535,-0.24535 v -0.965044 a 0.24535014,0.24535014 0 0 1 0.24535,-0.24535 h 2.97146 a 0.24535014,0.24535014 0 0 0 0.2399,-0.24535 v -0.817834 a 0.24535014,0.24535014 0 0 0 -0.2399,-0.24535 h -4.4054 a 0.24535014,0.24535014 0 0 0 -0.24535,0.24535 v 6.291868 a 0.24535014,0.24535014 0 0 0 0.24535,0.24535 h 4.6453 a 0.24535014,0.24535014 0 0 0 0.2399,-0.24535 V 44.30957 a 0.23989791,0.23989791 0 0 0 -0.25626,-0.218089 z"
       class="cls-1" />
    <path
       style="fill:#8aa651;stroke-width:0.54522252"
       inkscape:connector-curvature="0"
       id="path16"
       d="m 136.71662,38.595638 h -5.45223 a 0.21808901,0.21808901 0 0 0 -0.21263,0.218089 v 0.877808 a 0.21808901,0.21808901 0 0 0 0.21263,0.212637 h 1.77198 a 0.21808901,0.21808901 0 0 1 0.21263,0.218089 v 5.059665 a 0.21808901,0.21808901 0 0 0 0.21809,0.218089 h 1.01957 a 0.21263679,0.21263679 0 0 0 0.21263,-0.218089 v -5.059665 a 0.21808901,0.21808901 0 0 1 0.21809,-0.218089 h 1.77743 a 0.21263679,0.21263679 0 0 0 0.21264,-0.212637 v -0.877808 a 0.21263679,0.21263679 0 0 0 -0.19083,-0.218089 z"
       class="cls-1" />
    <path
       style="fill:#8aa651;stroke-width:0.54522252"
       inkscape:connector-curvature="0"
       id="path18"
       d="m 109.17198,41.114566 c 0,-1.483005 -1.12316,-2.535285 -3.08051,-2.546189 -0.69789,0 -1.38487,0 -2.12637,0 a 0.21808901,0.21808901 0 0 0 -0.21809,0.212636 v 6.400913 a 0.21808901,0.21808901 0 0 0 0.21809,0.218089 h 1.04683 a 0.21808901,0.21808901 0 0 0 0.21809,-0.218089 v -1.368509 c 0,-0.169019 0.0327,-0.218089 0.21263,-0.218089 h 0.80148 0.14721 v 0 c 0.2399,0 0.29987,0 0.37075,0.109045 l 0.77422,1.548432 a 0.21808901,0.21808901 0 0 0 0.19083,0.119949 h 1.17222 a 0.21808901,0.21808901 0 0 0 0.19628,-0.316229 l -0.89961,-1.771973 a 0.22354124,0.22354124 0 0 1 0.0709,-0.278064 2.2299602,2.2299602 0 0 0 0.90507,-1.891922 z m -2.94421,1.183133 c -0.27261,0 -0.54522,0 -0.81238,0 a 0.21263679,0.21263679 0 0 1 -0.21263,-0.212637 v -2.011871 a 0.21263679,0.21263679 0 0 1 0.21263,-0.218089 c 0.24535,0 0.48525,0 0.75241,0 0.88326,0.03816 1.54843,0.447082 1.54843,1.199489 0,0.752407 -0.46344,1.172229 -1.48846,1.243108 z"
       class="cls-1" />
    <path
       style="fill:#8aa651;stroke-width:0.54522252"
       inkscape:connector-curvature="0"
       id="path20"
       d="m 157.08068,25.270399 c -0.0927,0.08724 -0.93778,5.223232 -4.59077,5.223232 -1.41758,0 -2.42079,-1.090445 -3.03689,-2.355361 4.46537,-0.992305 5.96473,-4.525347 5.96473,-6.940683 0,-2.818801 -2.00097,-3.816558 -3.70206,-3.816558 -2.78064,0 -6.39546,2.584355 -6.39546,7.633116 a 10.261088,10.261088 0 0 0 0.0763,1.313986 4.1055257,4.1055257 0 0 1 -2.36627,-1.679286 c 0.8342,-3.734774 0.68699,-7.311434 -1.04137,-7.311434 -0.9705,0 -1.79923,1.281273 -1.79923,4.061908 a 7.6331154,7.6331154 0 0 0 0.8669,3.434902 c -0.3544,1.695642 -1.57024,5.833881 -3.12413,5.833881 -2.13727,0 -1.47755,-10.157496 -1.47755,-11.66231 0,-1.221298 -2.95511,-2.508023 -3.60937,-1.859209 -0.27807,0.283516 -0.33259,1.940993 -0.33259,4.083717 a 30.984996,30.984996 0 0 0 0.51796,5.75755 c -0.20173,1.046827 -1.09044,3.729322 -2.72611,3.729322 -2.55164,0 -1.25946,-9.623177 -1.25946,-11.171609 0,-1.090446 -2.84606,-2.148177 -3.54395,-1.450292 -0.27261,0.272611 -0.46344,2.219055 -0.46344,5.250493 a 27.135725,27.135725 0 0 0 0.25626,3.843818 c -0.26716,1.3467 -1.32489,3.505781 -3.03689,3.505781 -2.72612,0 -1.52117,-10.544603 -0.79603,-17.049108 0.44163,-0.08178 0.89417,-0.14721 1.36306,-0.201733 1.19404,-0.130853 2.65523,-0.365299 2.65523,0.365299 0,1.706547 1.13952,2.235413 1.97916,2.235413 0.92143,0 1.75016,-0.725146 1.75016,-2.120916 0,-1.395769 -1.18858,-2.660686 -3.31495,-2.660686 a 26.061637,26.061637 0 0 0 -4.21457,0.39256 c 0.1145,-1.090445 0.18538,-1.9464439 0.18538,-2.4644054 0,-1.4502919 -2.97147,-2.8351571 -3.56031,-2.2463168 -0.11449,0.1144968 -0.51251,2.3826225 -0.856,5.5231042 a 31.492053,31.492053 0 0 1 -6.13375,0.779668 c -0.69788,0 -0.61065,2.115464 1.78288,2.115464 a 16.236727,16.236727 0 0 0 4.13278,-0.676076 c -0.19082,2.18089 -0.32713,4.634391 -0.32713,6.9843 a 33.727466,33.727466 0 0 0 0.38711,5.517652 c -0.26716,1.166777 -1.11771,3.52759 -2.65523,3.52759 -2.99328,0 -1.5757,-10.359228 -1.5757,-11.902208 0,-0.73605 -2.72611,-2.3281 -3.27133,-1.761068 a 1.6356676,1.6356676 0 0 0 -0.1254,0.512509 2.4644058,2.4644058 0 0 0 -1.36851,-0.267159 c -3.81656,0 -6.88616,4.721627 -6.88616,9.028885 0,0.207184 0,0.403464 0,0.605197 -0.5943,1.384865 -2.093658,3.783844 -4.803414,3.783844 -1.352152,0 -2.339004,-0.905069 -2.998724,-2.055489 a 7.8512045,7.8512045 0 0 0 5.850238,-7.224198 4.0946212,4.0946212 0 0 0 -4.040099,-4.121883 c -2.944202,-0.0055 -6.215537,2.955106 -6.215537,7.949345 a 9.1488341,9.1488341 0 0 0 0.752407,3.767488 c -0.545222,0.839642 -1.346699,1.679285 -2.453501,1.679285 -3.058698,0 -1.008662,-10.288349 -1.008662,-11.384246 a 1.2485596,1.2485596 0 0 0 -0.479796,-1.128611 c -0.643362,-0.452535 -4.329067,-0.943235 -5.577626,-1.188585 0,-0.272612 0,-0.545223 0,-0.746955 0,-1.990062 -1.24856,-2.448049 -2.050037,-2.448049 -1.357604,0 -1.635667,1.526623 -1.635667,1.897374 a 2.8188005,2.8188005 0 0 0 1.455744,2.442597 c 0,3.718418 -2.366266,12.485596 -8.723561,12.485596 -4.792506,0 -6.54267,-4.939716 -6.54267,-8.619968 0,-6.188276 3.631182,-10.980782 5.997448,-10.980782 2.949654,0 0.348942,5.686671 3.271335,5.686671 2.077298,0 2.366266,-2.011871 2.366266,-2.938749 0,-1.733808 -1.810139,-4.9724299 -5.653958,-4.9724299 -6.10104,0 -10.648196,7.4695489 -10.648196,13.8759139 0,6.133753 4.21457,11.106182 10.157496,11.106182 9.154286,0 11.449673,-9.721317 11.918564,-15.162638 a 21.187348,21.187348 0 0 1 2.18089,0.545222 c 0.239898,0.239898 -0.463439,3.543947 -0.463439,6.717142 0,3.985577 1.308534,7.175129 4.443564,7.175129 1.962801,0 3.543946,-1.428484 4.36178,-2.524381 a 6.2700591,6.2700591 0 0 0 4.907003,2.47531 7.3823131,7.3823131 0 0 0 6.144662,-3.478519 c 0.86145,2.3281 2.62252,3.478519 4.22002,3.478519 2.22451,0 3.56575,-2.987819 3.64208,-3.473067 0.67608,2.08275 2.24632,3.522138 4.01829,3.522138 2.24632,0 3.59302,-2.039133 4.1437,-3.309501 0.79602,2.148177 2.06639,3.309501 3.89288,3.309501 2.08821,0 3.46762,-1.902827 4.08917,-3.173196 0.65972,1.859209 1.75562,3.173196 3.50578,3.173196 2.34446,0 3.81656,-2.388075 4.28545,-3.609374 0.76332,2.055489 1.97371,3.533042 3.81656,3.533042 2.06094,0 3.85472,-2.949654 4.907,-6.291868 a 6.122849,6.122849 0 0 0 3.38038,1.635668 c 1.03593,3.004176 3.47307,4.678009 6.03562,4.678009 4.48173,0 6.20463,-4.601678 6.39001,-5.681219 0.18537,-1.07954 -0.82329,-2.409883 -1.16678,-2.066393 z M 95.246992,18.771347 c 1.870113,0 0.757859,7.13151 -2.311743,8.303739 a 7.333243,7.333243 0 0 1 -0.348943,-2.066394 c 0,-2.404431 0.975948,-6.237345 2.660686,-6.237345 z m 11.356988,11.329724 c -3.27134,0 -0.9814,-11.291559 1.63566,-11.291559 1.76107,0 1.48301,11.291559 -1.63566,11.291559 z m 44.70824,-11.280654 c 1.79924,0 0.76877,7.360504 -2.37717,7.845752 a 6.7225938,6.7225938 0 0 1 -0.22899,-1.635668 c -0.0109,-2.42624 0.88326,-6.210084 2.59526,-6.210084 z"
       class="cls-1" />
  </g>
</svg>
