<?xml version="1.0" encoding="UTF-8" standalone="no"?>
<svg
   xmlns:dc="http://purl.org/dc/elements/1.1/"
   xmlns:cc="http://creativecommons.org/ns#"
   xmlns:rdf="http://www.w3.org/1999/02/22-rdf-syntax-ns#"
   xmlns:svg="http://www.w3.org/2000/svg"
   xmlns="http://www.w3.org/2000/svg"
   xmlns:sodipodi="http://sodipodi.sourceforge.net/DTD/sodipodi-0.dtd"
   xmlns:inkscape="http://www.inkscape.org/namespaces/inkscape"
   width="120"
   height="60"
   viewBox="0 0 120 60"
   version="1.1"
   id="svg15"
   sodipodi:docname="ko-fi-ar21.svg"
   inkscape:version="0.92.4 (5da689c313, 2019-01-14)">
  <metadata
     id="metadata21">
    <rdf:RDF>
      <cc:Work
         rdf:about="">
        <dc:format>image/svg+xml</dc:format>
        <dc:type
           rdf:resource="http://purl.org/dc/dcmitype/StillImage" />
        <dc:title>Artboard</dc:title>
      </cc:Work>
    </rdf:RDF>
  </metadata>
  <defs
     id="defs19" />
  <sodipodi:namedview
     pagecolor="#ffffff"
     bordercolor="#666666"
     borderopacity="1"
     objecttolerance="10"
     gridtolerance="10"
     guidetolerance="10"
     inkscape:pageopacity="0"
     inkscape:pageshadow="2"
     inkscape:window-width="1920"
     inkscape:window-height="1001"
     id="namedview17"
     showgrid="false"
     inkscape:zoom="3.8522727"
     inkscape:cx="44"
     inkscape:cy="17.5"
     inkscape:window-x="-9"
     inkscape:window-y="-9"
     inkscape:window-maximized="1"
     inkscape:current-layer="svg15" />
  <!-- Generator: Sketch 53.2 (72643) - https://sketchapp.com -->
  <title
     id="title2">Artboard</title>
  <desc
     id="desc4">Created with Sketch.</desc>
  <g
     id="g865"
     transform="matrix(1.1594515,0,0,1.1594515,1.3651796,-4.7835446)">
    <g
       transform="translate(6.2300885,-12.280001)"
       id="g856">
      <g
         style="fill:none;fill-rule:nonzero;stroke:none;stroke-width:1"
         id="Group-4"
         transform="translate(0,26)">
        <circle
           style="fill:#29abe0"
           r="16.280001"
           cy="16.280001"
           cx="16.280001"
           id="Oval" />
        <path
           style="fill:#ffffff"
           inkscape:connector-curvature="0"
           id="Rectangle-2"
           d="m 22.257931,8.8 h 1.607617 C 26.966324,8.8 29.48,11.313676 29.48,14.414452 v 0.330015 c 0,3.100776 -2.513676,5.614452 -5.614452,5.614452 h -1.607617 v 1.689795 c 0,1.431128 -1.160158,2.591286 -2.591286,2.591286 H 7.4312857 C 6.0001581,24.64 4.84,23.479842 4.84,22.048714 V 10.095643 C 4.84,9.3800791 5.4200791,8.8 6.1356429,8.8 Z m 0,2.996757 v 5.565405 h 1.465573 c 1.536844,0 2.782703,-1.245858 2.782703,-2.782702 0,-1.536845 -1.245859,-2.782703 -2.782703,-2.782703 z" />
      </g>
      <g
         style="fill:#ff5e5b;fill-rule:nonzero;stroke:none;stroke-width:1"
         transform="translate(4.84,34.8)"
         id="Group">
        <path
           inkscape:connector-curvature="0"
           id="Path-2"
           d="M 8.36,5.2768458 C 8.7602942,4.1056152 9.7089414,3.52 11.205941,3.52 c 2.2455,0 3.077965,2.7936503 1.900934,4.62 C 12.322188,9.3575665 10.739896,10.897567 8.36,12.76 5.9801039,10.897567 4.3978123,9.3575665 3.613125,8.14 2.4360941,6.3136503 3.2685587,3.52 5.5140587,3.52 7.0110586,3.52 7.9597058,4.1056152 8.36,5.2768458 Z" />
      </g>
    </g>
    <path
       style="fill:#434b57;fill-rule:nonzero;stroke:none;stroke-width:1"
       inkscape:connector-curvature="0"
       id="Ko-f"
       d="m 58.603087,35.810358 c 0.08905,0.11873 0.163254,0.263432 0.222619,0.434106 0.05937,0.170676 0.08905,0.330219 0.08905,0.478631 0,0.400717 -0.152122,0.734642 -0.456369,1.001787 -0.30425,0.267144 -0.656726,0.400714 -1.057443,0.400714 -0.192937,0 -0.378451,-0.04452 -0.556547,-0.133572 -0.178096,-0.08905 -0.326508,-0.215198 -0.445238,-0.378453 L 51.568325,31.246666 49.453444,33.2725 v 3.49512 c 0,0.400716 -0.12986,0.727221 -0.389583,0.979523 -0.259724,0.252302 -0.597359,0.378453 -1.012917,0.378453 -0.400716,0 -0.730931,-0.12986 -0.990654,-0.389584 -0.259724,-0.259723 -0.389584,-0.582518 -0.389584,-0.968392 V 23.900239 c 0,-0.385875 0.13357,-0.70867 0.400714,-0.968393 0.267145,-0.259724 0.60849,-0.389583 1.024048,-0.389583 0.400716,0 0.727221,0.126149 0.979524,0.378452 0.252303,0.252303 0.378452,0.578808 0.378452,0.979524 v 6.055238 l 7.12381,-7.0125 c 0.341351,-0.341351 0.704958,-0.512024 1.090833,-0.512024 0.341351,0 0.630753,0.140991 0.868215,0.422976 0.237461,0.281986 0.35619,0.578808 0.35619,0.890477 0,0.311668 -0.13357,0.60107 -0.400714,0.868214 l -4.853096,4.630476 z m 13.401667,-3.628691 c 0,1.187308 -0.26714,2.252158 -0.801429,3.194584 -0.534288,0.942425 -1.265213,1.67335 -2.192797,2.192797 -0.927584,0.519447 -1.947911,0.779167 -3.061012,0.779167 -1.127942,0 -2.15198,-0.25972 -3.072143,-0.779167 -0.920163,-0.519447 -1.647378,-1.250372 -2.181667,-2.192797 -0.534288,-0.942426 -0.801428,-2.007276 -0.801428,-3.194584 0,-1.187307 0.26714,-2.252158 0.801428,-3.194583 0.534289,-0.942425 1.261504,-1.677061 2.181667,-2.203928 0.920163,-0.526868 1.944201,-0.790298 3.072143,-0.790298 1.113101,0 2.133428,0.26343 3.061012,0.790298 0.927584,0.526867 1.658509,1.261503 2.192797,2.203928 0.534289,0.942425 0.801429,2.007276 0.801429,3.194583 z m -2.671429,0 c 0,-0.727225 -0.152121,-1.376525 -0.456369,-1.947916 -0.304247,-0.571392 -0.712378,-1.012915 -1.224404,-1.324584 -0.512027,-0.311668 -1.0797,-0.4675 -1.703036,-0.4675 -0.623337,0 -1.19101,0.155832 -1.703036,0.4675 -0.512026,0.311669 -0.920157,0.753192 -1.224405,1.324584 -0.304247,0.571391 -0.456369,1.220691 -0.456369,1.947916 0,0.727226 0.152122,1.372815 0.456369,1.936786 0.304248,0.563971 0.712379,1.001784 1.224405,1.313452 0.512026,0.311669 1.079699,0.4675 1.703036,0.4675 0.623336,0 1.191009,-0.155831 1.703036,-0.4675 0.512026,-0.311668 0.920157,-0.749482 1.224404,-1.313452 0.304248,-0.563971 0.456369,-1.209561 0.456369,-1.936786 z m 5.921667,0.445239 c -0.385875,0 -0.708669,-0.12615 -0.968393,-0.378453 -0.259723,-0.252303 -0.389583,-0.571387 -0.389583,-0.957262 0,-0.371033 0.12986,-0.682697 0.389583,-0.935 0.259724,-0.252303 0.582518,-0.378452 0.968393,-0.378452 h 3.873571 c 0.385875,0 0.70867,0.12986 0.968393,0.389583 0.259724,0.259724 0.389584,0.582518 0.389584,0.968393 0,0.371034 -0.12986,0.678987 -0.389584,0.923869 -0.259723,0.244882 -0.582518,0.367322 -0.968393,0.367322 z m 13.512976,-8.615358 c -0.504606,0 -0.860793,0.144701 -1.068571,0.434107 -0.207779,0.289407 -0.311667,0.604781 -0.311667,0.946132 v 1.046309 h 2.025833 c 0.356193,0 0.653015,0.115019 0.890477,0.34506 0.237461,0.23004 0.35619,0.523153 0.35619,0.879345 0,0.356192 -0.118729,0.649304 -0.35619,0.879345 -0.237462,0.230041 -0.534284,0.345059 -0.890477,0.345059 H 87.38773 v 7.880715 c 0,0.385875 -0.12615,0.708669 -0.378452,0.968393 -0.252303,0.259723 -0.571387,0.389583 -0.957262,0.389583 -0.385875,0 -0.704959,-0.12986 -0.957262,-0.389583 -0.252303,-0.259724 -0.378452,-0.582518 -0.378452,-0.968393 v -7.880715 h -1.202143 c -0.356193,0 -0.653015,-0.115018 -0.890477,-0.345059 -0.237461,-0.230041 -0.35619,-0.523153 -0.35619,-0.879345 0,-0.356192 0.118729,-0.649305 0.35619,-0.879345 0.237462,-0.230041 0.534284,-0.34506 0.890477,-0.34506 h 1.202143 v -1.024048 c 0,-1.1131 0.382158,-2.018409 1.146488,-2.715952 0.764329,-0.697543 1.866282,-1.04631 3.305892,-1.04631 0.54913,0 1.027756,0.111308 1.435893,0.333929 0.408137,0.22262 0.612203,0.563966 0.612203,1.024048 0,0.356192 -0.103888,0.645594 -0.311667,0.868214 -0.207779,0.22262 -0.460078,0.333929 -0.756905,0.333929 -0.07421,0 -0.152122,-0.0074 -0.23375,-0.02226 -0.08163,-0.01484 -0.166964,-0.02968 -0.256012,-0.04452 -0.356192,-0.08905 -0.653014,-0.133572 -0.890476,-0.133572 z m 6.0775,12.756072 c 0,0.385875 -0.126149,0.708669 -0.378452,0.968393 -0.252303,0.259723 -0.571387,0.389583 -0.957262,0.389583 -0.385875,0 -0.704959,-0.12986 -0.957262,-0.389583 C 92.300189,37.476289 92.17404,37.153495 92.17404,36.76762 v -9.194167 c 0,-0.385875 0.126149,-0.708669 0.378452,-0.968393 0.252303,-0.259723 0.571387,-0.389583 0.957262,-0.389583 0.385875,0 0.704959,0.12986 0.957262,0.389583 0.252303,0.259724 0.378452,0.582518 0.378452,0.968393 z M 93.487492,24.768453 c -0.504606,0 -0.860793,-0.08163 -1.068572,-0.244881 -0.207778,-0.163255 -0.311666,-0.452657 -0.311666,-0.868215 v -0.422975 c 0,-0.415558 0.111308,-0.70496 0.333928,-0.868215 0.222621,-0.163254 0.578807,-0.244881 1.068572,-0.244881 0.519447,0 0.883054,0.08163 1.090833,0.244881 0.207779,0.163255 0.311667,0.452657 0.311667,0.868215 v 0.422975 c 0,0.4304 -0.107598,0.723511 -0.322798,0.879346 -0.215199,0.155833 -0.582517,0.23375 -1.101964,0.23375 z" />
  </g>
</svg>
