<?xml version="1.0" encoding="UTF-8" standalone="no"?>
<!-- Created with Inkscape (http://www.inkscape.org/) -->

<svg
   xmlns:dc="http://purl.org/dc/elements/1.1/"
   xmlns:cc="http://creativecommons.org/ns#"
   xmlns:rdf="http://www.w3.org/1999/02/22-rdf-syntax-ns#"
   xmlns:svg="http://www.w3.org/2000/svg"
   xmlns="http://www.w3.org/2000/svg"
   xmlns:sodipodi="http://sodipodi.sourceforge.net/DTD/sodipodi-0.dtd"
   xmlns:inkscape="http://www.inkscape.org/namespaces/inkscape"
   width="64"
   height="64"
   id="svg2"
   version="1.1"
   inkscape:version="0.92.3 (2405546, 2018-03-11)"
   sodipodi:docname="namecoin-icon.svg"
   inkscape:export-filename="C:\_felix\stuff\namecoin\logo\official\logo_abs_mod.png"
   inkscape:export-xdpi="717.48999"
   inkscape:export-ydpi="717.48999">
  <defs
     id="defs4">
    <filter
       inkscape:label="Invert"
       x="0"
       y="0"
       width="1"
       height="1"
       inkscape:menu="Color"
       inkscape:menu-tooltip="Invert colors"
       id="filter3040"
       style="color-interpolation-filters:sRGB">
      <feColorMatrix
         type="saturate"
         values="1"
         result="fbSourceGraphic"
         id="feColorMatrix3042" />
      <feColorMatrix
         in="fbSourceGraphic"
         values="-1 0 0 0 1 0 -1 0 0 1 0 0 -1 0 1 0 0 0 1 0 "
         id="feColorMatrix3044" />
    </filter>
  </defs>
  <sodipodi:namedview
     id="base"
     pagecolor="#ffffff"
     bordercolor="#666666"
     borderopacity="1.0"
     inkscape:pageopacity="0.0"
     inkscape:pageshadow="2"
     inkscape:zoom="6.0731133"
     inkscape:cx="66.305355"
     inkscape:cy="41.532809"
     inkscape:document-units="px"
     inkscape:current-layer="layer1"
     showgrid="false"
     showguides="true"
     inkscape:guide-bbox="true"
     inkscape:window-width="1920"
     inkscape:window-height="1001"
     inkscape:window-x="-9"
     inkscape:window-y="-9"
     inkscape:window-maximized="1"
     fit-margin-top="15"
     fit-margin-left="15"
     fit-margin-right="15"
     fit-margin-bottom="15"
     inkscape:snap-bbox="true"
     inkscape:object-nodes="true"
     inkscape:snap-object-midpoints="true"
     inkscape:snap-midpoints="true"
     inkscape:object-paths="true"
     inkscape:snap-intersection-paths="true"
     inkscape:snap-global="false" />
  <metadata
     id="metadata7">
    <rdf:RDF>
      <cc:Work
         rdf:about="">
        <dc:format>image/svg+xml</dc:format>
        <dc:type
           rdf:resource="http://purl.org/dc/dcmitype/StillImage" />
        <dc:title></dc:title>
      </cc:Work>
    </rdf:RDF>
  </metadata>
  <g
     inkscape:label="Layer 1"
     inkscape:groupmode="layer"
     id="layer1"
     transform="translate(-208.74795,-1057.3088)">
    <g
       transform="matrix(0.63987825,0.01129249,-0.01129249,0.63987825,-12.067631,892.7315)"
       id="g3">
      <g
         style="fill:#6a91c0;fill-opacity:1"
         id="g5">
        <g
           style="fill:#6a91c0;fill-opacity:1"
           id="g7">
          <g
             style="fill:#6a91c0;fill-opacity:1"
             id="g9">
            <path
               style="fill:#6a91c0;fill-opacity:1"
               inkscape:connector-curvature="0"
               d="m 450.396,300.246 c -0.058,27.612 -22.487,49.953 -50.109,49.9 -27.606,-0.058 -49.951,-22.488 -49.89,-50.102 0.051,-27.614 22.485,-49.957 50.095,-49.901 27.616,0.054 49.961,22.489 49.904,50.103 z"
               id="path11" />
          </g>
        </g>
      </g>
      <g
         transform="matrix(1.0005201,-9.1763025e-6,0.02946347,0.99948005,-9.051552,0.15974051)"
         id="g13"
         style="fill:#ffffff">
        <path
           inkscape:connector-curvature="0"
           d="m 431.436,274.104 0.01,-0.011 h -2.715 c -0.516,-0.01 -1.059,0.045 -1.621,0.176 -3.102,0.718 -5.729,3.396 -6.352,6.281 l -6.361,23.479 -21.89,-30.065 -0.014,0.01 0.013,-0.031 -3.623,-0.025 -0.003,0.003 c -0.519,-0.009 -1.063,0.043 -1.622,0.173 -3.102,0.719 -5.725,3.396 -6.353,6.278 l -12.427,45.998 h 0.899 l -0.001,0.003 h 2.716 c 0.515,0.009 1.06,-0.044 1.62,-0.176 3.103,-0.719 5.729,-3.396 6.352,-6.281 l 6.406,-23.65 21.895,30.066 h 0.006 l -0.006,0.015 3.621,0.027 0.004,-0.003 c 0.518,0.009 1.061,-0.044 1.621,-0.176 3.102,-0.719 5.727,-3.396 6.352,-6.281 l 12.35,-45.804 z m -20.907,44.25 -21.897,-30.079 1.71,-6.33 21.9,30.076 z"
           id="path15"
           style="fill:#ffffff" />
      </g>
    </g>
  </g>
</svg>
