<?xml version="1.0" encoding="utf-8"?>
<!-- Generator: Adobe Illustrator 23.0.4, SVG Export Plug-In . SVG Version: 6.00 Build 0)  -->
<svg version="1.1" id="Layer_1" xmlns="http://www.w3.org/2000/svg" xmlns:xlink="http://www.w3.org/1999/xlink" x="0px" y="0px"
	 viewBox="0 0 120 60" style="enable-background:new 0 0 120 60;" xml:space="preserve">
<style type="text/css">
	.st0{fill:url(#SVGID_1_);}
	.st1{fill:url(#SVGID_2_);}
	.st2{fill:url(#SVGID_3_);}
	.st3{fill:#381B01;}
	.st4{fill:#FFFFFF;}
	.st5{fill:#BC5C02;}
	.st6{opacity:0.26;fill:url(#SVGID_4_);enable-background:new    ;}
	.st7{opacity:0.26;fill:url(#SVGID_5_);enable-background:new    ;}
	.st8{opacity:0.15;fill:#FFFDE2;enable-background:new    ;}
	.st9{font-family:'Gibson-Bold';}
	.st10{font-size:12.8391px;}
</style>
<g>
	
		<linearGradient id="SVGID_1_" gradientUnits="userSpaceOnUse" x1="59.9992" y1="57.815" x2="59.9992" y2="22" gradientTransform="matrix(1 0 0 -1 0 62)">
		<stop  offset="0.0123" style="stop-color:#FFFDE2"/>
		<stop  offset="0.1305" style="stop-color:#FFF995"/>
		<stop  offset="0.3079" style="stop-color:#FFEB3C"/>
		<stop  offset="0.5207" style="stop-color:#FFCB3A"/>
		<stop  offset="0.6142" style="stop-color:#EFAB24"/>
		<stop  offset="0.7043" style="stop-color:#E49414"/>
		<stop  offset="0.7888" style="stop-color:#DD860A"/>
		<stop  offset="0.8621" style="stop-color:#DB8107"/>
	</linearGradient>
	<circle class="st0" cx="60" cy="22.09" r="17.91"/>
	
		<linearGradient id="SVGID_2_" gradientUnits="userSpaceOnUse" x1="60" y1="57.815" x2="60" y2="22" gradientTransform="matrix(1 0 0 -1 0 62)">
		<stop  offset="5.128323e-04" style="stop-color:#FFEA20"/>
		<stop  offset="0.0926" style="stop-color:#FFDB1E"/>
		<stop  offset="0.3809" style="stop-color:#FEB01A"/>
		<stop  offset="0.5876" style="stop-color:#EB9610"/>
		<stop  offset="0.7926" style="stop-color:#DB8107"/>
	</linearGradient>
	<path class="st1" d="M60,5.88c8.94,0,16.21,7.27,16.21,16.21S68.94,38.31,60,38.31s-16.21-7.27-16.21-16.21S51.06,5.88,60,5.88
		 M60,4.18c-9.89,0-17.91,8.02-17.91,17.91S50.11,40,60,40s17.91-8.02,17.91-17.91S69.89,4.18,60,4.18L60,4.18z"/>
	
		<linearGradient id="SVGID_3_" gradientUnits="userSpaceOnUse" x1="59.999" y1="58.8149" x2="59.999" y2="21" gradientTransform="matrix(1 0 0 -1 0 62)">
		<stop  offset="0.0785" style="stop-color:#FEB01A"/>
		<stop  offset="0.7923" style="stop-color:#C44713"/>
	</linearGradient>
	<path class="st2" d="M60,41c-10.43,0-18.91-8.48-18.91-18.91S49.57,3.19,60,3.19c10.43,0,18.91,8.48,18.91,18.91S70.42,41,60,41z
		 M60,5.19c-9.32,0-16.91,7.58-16.91,16.91S50.68,39,60,39c9.32,0,16.91-7.58,16.91-16.91S69.32,5.19,60,5.19z"/>
	<path class="st3" d="M72.06,27.78c-0.06-0.2-0.16-0.39-0.33-0.53c-0.4-0.33-1.07-0.34-1.56-0.29c0.15,0.1,0.3,0.23,0.34,0.4
		c0.17,0.73-3.68,1.53-4.28,1.67c-1.7,0.4-3.44,0.65-5.19,0.74c-3.87,0.2-7.69-0.36-11.35-1.67l-0.77-0.27l0.34,0.74
		c2.02,4.34,5.88,7.28,9.91,7.96c1.69,0.29,3.41,0.18,5.03-0.38c1.83-0.63,3.38-1.85,4.57-3.36c0.71-0.9,1.21-1.92,1.73-2.93
		c0.33-0.64,0.73-2.01,1.63-1.38C72.09,28.45,72.1,27.88,72.06,27.78z M63.37,32.58c2.48,0.27,4.33-0.45,5.43-0.99
		c-1.03,1.54-2.58,3.14-4.83,3.91c-3.72,1.29-7.97,0.02-11.07-2.97c1.29,0.34,3.21,0.79,4.81,0.47c-2.31-0.25-4.89-1.16-5.76-1.48
		c-0.64-0.75-1.22-1.59-1.71-2.5c3.51,1.14,7.15,1.63,10.83,1.44c3.02-0.15,5.98-0.77,8.82-1.81
		C69.82,29.41,69.09,31.69,63.37,32.58z"/>
	<path class="st4" d="M63.37,32.58c2.48,0.27,4.33-0.45,5.43-0.99c-1.03,1.54-2.58,3.14-4.83,3.91c-3.72,1.29-7.97,0.02-11.07-2.97
		c1.29,0.34,3.21,0.79,4.81,0.47c-2.31-0.25-4.89-1.16-5.76-1.48c-0.64-0.75-1.22-1.59-1.71-2.5c3.51,1.14,7.15,1.63,10.83,1.44
		c3.02-0.15,5.98-0.77,8.82-1.81C69.82,29.41,69.09,31.69,63.37,32.58z"/>
	<path class="st5" d="M69.91,25.45c2.18-0.16,3.51,0.25,3.75,1.69C72.88,26.78,72.94,25.92,69.91,25.45z"/>
	<path class="st3" d="M73.89,15.95c-0.76-0.82-2.04-0.98-3.09-1.05c-1.36-0.09-2.74-0.01-4.08,0.23c-1.01,0.18-2.97,0.48-3.79,1.48
		c-0.23,0.29-0.37,0.63-0.37,1.05c0.01,0.63,0.25,1.43,0.47,2.02c0.86,2.36,1.53,3.6,4.14,4.24c2.84,0.3,5.46-0.24,6.24-1.6
		c0.04-0.06,0.07-0.12,0.09-0.19C74.53,19.62,74.66,16.78,73.89,15.95z"/>
	<path class="st3" d="M77.22,14.67c-0.01-0.21-0.17-0.37-0.37-0.41c-3-0.51-10.98-0.49-14.91,0.92c-0.78,0.31-1.43,0.4-2.06,0.39
		c-0.47,0.01-0.95-0.04-1.49-0.19c-0.18-0.05-0.37-0.12-0.57-0.19c-2.37-0.85-6.2-1.2-9.54-1.23c-2.2-0.02-4.18,0.1-5.37,0.3
		c-0.2,0.03-0.36,0.2-0.37,0.41c-0.03,0.42,0.04,0.9,0.14,1.28c0.09,0.36,0.32,0.66,0.64,0.85c0.72,0.43,0.59,1.19,0.86,2.06
		c0,0.01,0.01,0.03,0.01,0.04c0.54,2.85,1.22,4.09,2.01,4.7c0.02,0.02,0.04,0.03,0.06,0.04c3.26,1.85,6.41,1.51,8.6,0.41
		c0.02-0.01,0.04-0.02,0.05-0.03c0.54-0.35,0.99-0.72,1.37-1.12c0.81-0.83,1.34-1.78,1.85-2.95c0.18-0.41,0.36-0.86,0.54-1.33
		c0.31-0.99,0.84-1.09,1.2-1.08c0.36-0.02,0.89,0.08,1.2,1.08c0.95,2.44,1.68,4.03,3.76,5.4c0.02,0.01,0.04,0.02,0.05,0.03
		c2.19,1.1,5.35,1.44,8.6-0.41c0.02-0.01,0.05-0.03,0.06-0.04c0.78-0.61,1.47-1.85,2.01-4.7c0-0.01,0.01-0.03,0.01-0.04
		c0.27-0.87,0.14-1.63,0.86-2.06c0.32-0.19,0.55-0.49,0.64-0.85C77.18,15.57,77.25,15.09,77.22,14.67z M57.1,18.48
		c-0.09,0.42-0.23,0.85-0.36,1.19c-0.4,1.11-0.77,1.97-1.31,2.64c-0.61,0.75-1.45,1.26-2.83,1.59c-2.96,0.32-5.7-0.29-6.34-1.78
		c-0.82-2.02-1.06-4.25-0.73-5.47c0.08-0.3,0.2-0.54,0.35-0.71c0.01-0.01,0.02-0.02,0.03-0.03c0.76-0.79,2.02-0.95,3.06-1.02
		c1.36-0.09,2.74-0.01,4.08,0.23c1.31,0.23,4.19,0.67,4.15,2.53C57.2,17.92,57.16,18.2,57.1,18.48z M73.51,22.13
		c-0.03,0.06-0.06,0.13-0.09,0.19c-0.78,1.36-3.41,1.9-6.24,1.6c-2.61-0.64-3.28-1.88-4.14-4.24c-0.21-0.58-0.46-1.39-0.47-2.02
		c-0.01-0.42,0.13-0.76,0.37-1.05c0.81-1,2.77-1.3,3.79-1.48c1.35-0.24,2.72-0.32,4.08-0.23c1.05,0.07,2.33,0.23,3.09,1.05
		C74.66,16.78,74.53,19.62,73.51,22.13z"/>
	<path class="st3" d="M57.21,17.66c0,0.26-0.05,0.54-0.11,0.82c-0.09,0.42-0.23,0.85-0.36,1.19c-0.86,2.36-1.53,3.6-4.14,4.24
		c-2.96,0.32-5.7-0.29-6.34-1.78c-0.82-2.02-1.06-4.25-0.73-5.47c0.08-0.3,0.2-0.54,0.35-0.71c0.76-0.82,2.04-0.98,3.09-1.05
		c1.36-0.09,2.74-0.01,4.08,0.23C54.36,15.35,57.24,15.79,57.21,17.66z"/>
	
		<linearGradient id="SVGID_4_" gradientUnits="userSpaceOnUse" x1="51.2989" y1="47.1366" x2="51.2989" y2="38.0025" gradientTransform="matrix(1 0 0 -1 0 62)">
		<stop  offset="0.0123" style="stop-color:#FFFDE2"/>
		<stop  offset="0.0717" style="stop-color:#FFFBDD"/>
		<stop  offset="0.1435" style="stop-color:#FFF5CE"/>
		<stop  offset="0.2219" style="stop-color:#FFECB6"/>
		<stop  offset="0.3048" style="stop-color:#FFDF93"/>
		<stop  offset="0.3914" style="stop-color:#FECE67"/>
		<stop  offset="0.4797" style="stop-color:#FEB932"/>
		<stop  offset="0.5167" style="stop-color:#FEB01A"/>
		<stop  offset="1" style="stop-color:#C44713"/>
	</linearGradient>
	<path class="st6" d="M57.21,17.66c0,0.26-0.05,0.54-0.11,0.82c-0.09,0.42-0.23,0.85-0.36,1.19c-0.4,1.11-0.77,1.97-1.31,2.64
		c-0.61,0.75-1.45,1.26-2.83,1.59c-2.96,0.32-5.7-0.29-6.34-1.78c-0.82-2.02-1.06-4.25-0.73-5.47c0.08-0.3,0.2-0.54,0.35-0.71
		c0.01-0.01,0.02-0.02,0.03-0.03c0.76-0.79,2.02-0.95,3.06-1.02c1.36-0.09,2.74-0.01,4.08,0.23C54.36,15.35,57.24,15.79,57.21,17.66
		z"/>
	
		<linearGradient id="SVGID_5_" gradientUnits="userSpaceOnUse" x1="68.4738" y1="47.1366" x2="68.4738" y2="38.0025" gradientTransform="matrix(1 0 0 -1 0 62)">
		<stop  offset="0.0123" style="stop-color:#FFFDE2"/>
		<stop  offset="0.0717" style="stop-color:#FFFBDD"/>
		<stop  offset="0.1435" style="stop-color:#FFF5CE"/>
		<stop  offset="0.2219" style="stop-color:#FFECB6"/>
		<stop  offset="0.3048" style="stop-color:#FFDF93"/>
		<stop  offset="0.3914" style="stop-color:#FECE67"/>
		<stop  offset="0.4797" style="stop-color:#FEB932"/>
		<stop  offset="0.5167" style="stop-color:#FEB01A"/>
		<stop  offset="1" style="stop-color:#C44713"/>
	</linearGradient>
	<path class="st7" d="M73.51,22.13c-0.03,0.06-0.06,0.13-0.09,0.19c-0.78,1.36-3.41,1.9-6.24,1.6c-2.61-0.64-3.28-1.88-4.14-4.24
		c-0.21-0.58-0.46-1.39-0.47-2.02c-0.01-0.42,0.13-0.76,0.37-1.05c0.81-1,2.77-1.3,3.79-1.48c1.35-0.24,2.72-0.32,4.08-0.23
		c1.05,0.07,2.33,0.23,3.09,1.05C74.66,16.78,74.53,19.62,73.51,22.13z"/>
	<path class="st8" d="M56.74,19.68c-0.4,1.11-0.77,1.97-1.31,2.64l-9.52-6.4c0.76-0.79,2.02-0.95,3.06-1.02
		c1.36-0.09,2.74-0.01,4.08,0.23c1.31,0.23,4.19,0.67,4.15,2.53c0,0.26-0.05,0.54-0.11,0.82C57.01,18.9,56.87,19.33,56.74,19.68z"/>
	<path class="st8" d="M73.51,22.13c-0.03,0.06-0.06,0.13-0.09,0.19l-10.48-5.71c0.81-1,2.77-1.3,3.79-1.48
		c1.35-0.24,2.72-0.32,4.08-0.23c1.05,0.07,2.33,0.23,3.09,1.05C74.66,16.78,74.53,19.62,73.51,22.13z"/>
	<path class="st3" d="M56.86,12.48c0.09,0.03,0.29,0.03,0.45-0.09c0.36-0.26,0.35-1.03,0.15-1.43c-0.6-1.19-3.76-0.67-5.23-0.43
		c-2.24,0.37-3.27,1.04-3.93,1.65c-0.23,0.22-0.4,0.42-0.52,0.56c4.13-1.22,5.77-0.86,6.62-0.76
		C55.32,12.09,56.14,12.27,56.86,12.48z"/>
	<path class="st3" d="M62.53,10.81c-0.08,0.02-0.27,0.01-0.44-0.1c-0.41-0.26-0.51-1.02-0.34-1.42c0.51-1.14,3.99-0.55,5.46-0.3
		c2.1,0.36,3.16,0.91,3.91,1.72c0.22,0.24,0.38,0.46,0.48,0.61c-4.1-1.33-5.75-1.01-6.6-0.94C64.08,10.46,63.25,10.62,62.53,10.81z"
		/>
</g>
<text transform="matrix(1 0 0 1 13.2686 53.2256)" class="st3 st9 st10">Awesome Emoji</text>
</svg>
