<?xml version="1.0" encoding="utf-8"?>
<!-- Generator: Adobe Illustrator 24.1.0, SVG Export Plug-In . SVG Version: 6.00 Build 0)  -->
<svg version="1.1" id="Layer_1" xmlns="http://www.w3.org/2000/svg" xmlns:xlink="http://www.w3.org/1999/xlink" x="0px" y="0px"
	 viewBox="0 0 120 60" width="120" height="60" style="enable-background:new 0 0 120 60;" xml:space="preserve">
<style type="text/css">
	.st0{clip-path:url(#SVGID_2_);}
	.st1{fill-rule:evenodd;clip-rule:evenodd;fill:#0080FF;}
</style>
<g>
	<defs>
		<rect id="SVGID_1_" x="9.6" y="19.2" width="100" height="21.5"/>
	</defs>
	<clipPath id="SVGID_2_">
		<use xlink:href="#SVGID_1_"  style="overflow:visible;"/>
	</clipPath>
	<g class="st0">
		<path class="st1" d="M32.3,33.4c0,4.2-3.1,7.3-7.3,7.3c-4.2,0-7.2-3.1-7.2-7.3c0-4.2,3.1-7.3,7.2-7.3
			C29.2,26.1,32.3,29.2,32.3,33.4z M21.4,33.4c0,2.2,1.5,3.8,3.6,3.8c2.1,0,3.6-1.6,3.6-3.8c0-2.2-1.5-3.8-3.6-3.8
			C23,29.6,21.4,31.1,21.4,33.4z M40.4,40.6c-3.4,0-6.4-1.9-6.4-6.3v-7.9h3.6v7.6c0,2.2,1.2,3.1,2.7,3.1c1.6,0,2.7-0.9,2.7-3.1v-7.6
			h3.6v7.9C46.7,38.8,43.7,40.6,40.4,40.6z M62,31.9v8.8h-3.6v-7.6c0-2-1-3.1-2.6-3.1c-1.6,0-2.8,1-2.8,3.1v7.6h-3.6V26.8h3.5v1.6
			c1-1.5,2.4-2,3.9-2C59.8,26.5,62,28.7,62,31.9z M84.7,40.7v-1.9c-0.9,1.1-2.2,1.9-4,1.9c-3.7,0-6.5-3.1-6.5-7.3
			c0-4.2,2.8-7.3,6.5-7.3c1.8,0,3.1,0.8,4,1.9v-1.5h3.5v14.2H84.7z M77.9,33.4c0,2.1,1.3,3.8,3.5,3.8c2.1,0,3.5-1.6,3.5-3.8
			c0-2.2-1.4-3.8-3.5-3.8C79.3,29.6,77.9,31.3,77.9,33.4z"/>
		<path class="st1" d="M90.2,40.6h3.7v-14h-3.7V40.6z"/>
		<path class="st1" d="M109.6,31.6v9H106v-7.8c0-2.1-1-3.2-2.6-3.2c-1.5,0-2.8,1.1-2.8,3.2v7.8h-3.6V26.5h3.5v1.7c1-1.5,2.4-2,3.9-2
			C107.4,26.1,109.6,28.3,109.6,31.6z M13.2,24.8c0-1.3,0.5-2,1.6-2c1.3,0,2.6,0.4,2.6,0.4v-3.3c-0.8-0.4-1.8-0.6-3-0.6
			c-3.1,0-4.8,2.2-4.8,5.5v1.8v3.4v3.7v7.1h3.6V29.9h4.2v-3.4h-4.2V24.8z M72.9,36.3c-0.1,0.1-1.6,0.8-2.8,0.8c-1.1,0-2-0.7-2-2.4
			v-5.2h4.8v-1v-2.4H68v-4.2h-3.6V24v2.1v3.4v1.1V35c0,3.7,1.7,5.6,5,5.6c1.4,0,2.5-0.3,3.4-0.9V36.3z"/>
		<path class="st1" d="M90.2,24.3h3.7v-3.9h-3.7V24.3z"/>
	</g>
</g>
</svg>
