<svg xmlns="http://www.w3.org/2000/svg" height="512" width="512"><rect width="512" height="512" rx="76" fill="#1bc1a1"/><path d="M166.383 333.857h88.745v22.186h-88.745v-22.186zm110.932-133.12H166.383v22.186h110.932v-22.186zm44.373 66.56v-44.373l-66.56 66.56 66.56 66.56V311.67H432.62v-44.373H321.688zM221.85 245.1h-55.466v22.186h55.466V245.1zm-55.466 66.56h55.466v-22.186h-55.466v22.186zm199.677 22.186h22.186v44.373c-.347 6.24-2.427 11.44-6.587 15.6s-9.36 6.24-15.6 6.587H144.197c-12.133 0-22.186-10.053-22.186-22.186V134.18c0-12.133 10.053-22.186 22.186-22.186h66.56a44.24 44.24 0 0 1 44.373-44.373c24.613 0 44.37 19.76 44.37 44.37h66.56c12.133 0 22.186 10.053 22.186 22.186V245.1H366.06v-66.56H144.197v199.68H366.06v-44.373zm-199.677-177.5h177.5c0-12.133-10.053-22.186-22.186-22.186H299.5c-12.133 0-22.186-10.053-22.186-22.186s-10.053-22.186-22.186-22.186-22.186 10.053-22.186 22.186-10.053 22.186-22.186 22.186H188.57c-12.133 0-22.186 10.053-22.186 22.186z" fill="#fff"/></svg>