<svg xmlns="http://www.w3.org/2000/svg" width="120" height="60"><path d="M22.603 29.913c0 1.256-.173 2.34-.563 3.248s-.953 1.69-1.646 2.295-1.602 1.083-2.6 1.386a12.18 12.18 0 0 1-3.465.476c-.563 0-1.256-.043-2.036-.087s-1.56-.13-2.295-.303V22.897a19.3 19.3 0 0 1 2.339-.26l2.08-.087c1.213 0 2.34.13 3.378.433.996.26 1.862.693 2.6 1.3s1.256 1.343 1.646 2.295c.4.91.563 2.036.563 3.335zm-9.355 4.59c.173 0 .346.043.52.043h.736c1.602 0 2.815-.4 3.595-1.213s1.17-1.95 1.17-3.378c0-1.516-.4-2.642-1.126-3.42s-1.95-1.17-3.55-1.17h-.693c-.217 0-.476.043-.65.043zm16.284-8.618c.91 0 1.69.087 2.295.303s1.126.52 1.472.91.606.866.78 1.43.217 1.17.217 1.862v6.4l-1.862.346c-.78.13-1.732.217-2.858.217-.693 0-1.343-.043-1.906-.173s-1.083-.346-1.472-.606-.736-.65-.953-1.126-.346-1.04-.346-1.69.13-1.17.4-1.602.606-.78 1.04-1.04.91-.433 1.472-.563 1.126-.173 1.732-.173l1.083.043.78.13v-.303c0-.52-.173-.953-.476-1.256s-.866-.476-1.646-.476a9.47 9.47 0 0 0-1.559.13c-.52.087-.953.173-1.343.303l-.476-2.555c.173-.043.4-.13.693-.173s.563-.13.866-.173l2.08-.173zm.26 9.095h.866c.26 0 .52-.043.65-.043V32.6c-.13-.043-.303-.043-.563-.087s-.476-.043-.693-.043c-.303 0-.563 0-.823.043s-.476.087-.693.217c-.173.087-.346.217-.476.4s-.173.4-.173.606c0 .476.173.823.476.996.433.13.866.26 1.43.26zm7.752-11.52l3.118-.52v3.205h3.725v2.6h-3.725V32.6c0 .65.13 1.17.346 1.56s.693.563 1.386.563c.346 0 .693-.043 1.04-.087s.693-.13.953-.26l.433 2.425c-.4.173-.78.303-1.256.4-.476.13-1.04.173-1.69.173-.866 0-1.56-.13-2.08-.346-.563-.217-.996-.563-1.343-.953s-.563-.91-.693-1.472a8.64 8.64 0 0 1-.217-1.949zm13.34 2.425c.91 0 1.69.087 2.295.303s1.083.52 1.472.91c.346.4.606.866.78 1.43s.217 1.17.217 1.862v6.4l-1.862.346c-.78.13-1.732.217-2.858.217-.693 0-1.343-.043-1.906-.173s-1.083-.346-1.472-.606-.736-.65-.953-1.126-.346-1.04-.346-1.69.13-1.17.4-1.602.606-.78 1.04-1.04.91-.433 1.472-.563 1.126-.173 1.732-.173l1.083.043.78.13v-.303c0-.52-.173-.953-.476-1.256s-.866-.476-1.646-.476a9.47 9.47 0 0 0-1.559.13c-.52.087-.953.173-1.343.303l-.476-2.555c.173-.043.4-.13.693-.173s.563-.13.866-.173c.346-.043.65-.087 1.04-.087l1.04-.087zm.26 9.095H52c.26 0 .52-.043.65-.043V32.6c-.087-.087-.303-.13-.52-.13-.26-.043-.476-.043-.693-.043-.303 0-.563 0-.823.043s-.476.087-.693.217c-.173.087-.346.217-.476.4s-.173.4-.173.606c0 .476.173.823.476.996.4.173.823.303 1.386.303z"/><path d="M68.857 37.146l-.52-1.56-.563-1.56h-5.63l-.563 1.56-.52 1.56h-3.378l1.56-4.288 1.43-3.725 1.386-3.335 1.43-3.075h3.075l1.386 3.075 1.386 3.335 1.43 3.725 1.56 4.288zM64.96 25.972l-.303.866-.476 1.256-.606 1.56-.65 1.776h4.114l-.65-1.776-.606-1.56-.476-1.256-.346-.866zm16.1 2.945c-.26-.087-.606-.13-.996-.217a5.48 5.48 0 0 0-1.213-.13c-.173 0-.433 0-.693.043l-.606.13v8.36h-3.118V26.795l1.95-.563c.736-.173 1.602-.26 2.512-.26.173 0 .346 0 .606.043a3.79 3.79 0 0 1 .693.087l.693.13c.217.043.433.087.606.173zm8.705 2.425c0-.996-.13-1.7-.4-2.122s-.693-.606-1.3-.606c-.173 0-.4 0-.606.043-.217 0-.4.043-.606.087v8.445h-3.118V26.58c.26-.087.563-.13.9-.217s.736-.13 1.126-.217a5.48 5.48 0 0 1 1.213-.13c.433-.043.823-.043 1.213-.043.78 0 1.43.087 1.906.303s.9.433 1.213.736a5.48 5.48 0 0 1 1.516-.736c.563-.173 1.126-.26 1.602-.26.866 0 1.602.13 2.165.346.563.26.996.606 1.343 1.04s.563.953.693 1.56.173 1.3.173 2.036v6.193H95.7v-5.847c0-.996-.13-1.7-.4-2.122s-.693-.606-1.3-.606c-.173 0-.4.043-.693.13s-.563.173-.736.303c.087.303.173.65.173.996.043.346.043.736.043 1.126v5.977H89.67v-5.803zm15.6 3.55c.563 0 .953-.043 1.213-.173a.71.71 0 0 0 .346-.65c0-.26-.173-.476-.476-.65s-.78-.4-1.386-.65c-.476-.173-.9-.346-1.3-.563a3.4 3.4 0 0 1-.996-.693c-.26-.26-.476-.606-.65-.953-.173-.4-.217-.823-.217-1.343 0-1.04.4-1.82 1.126-2.425.78-.606 1.82-.9 3.118-.9.65 0 1.3.043 1.906.173l1.472.4-.52 2.425c-.346-.13-.736-.217-1.17-.346a7.3 7.3 0 0 0-1.429-.13c-.953 0-1.472.26-1.472.823 0 .13 0 .217.043.346.043.087.13.173.26.26s.303.173.52.303l.823.346c.693.26 1.256.52 1.7.736.433.26.78.52 1.04.78.26.303.433.606.52.953s.173.736.173 1.213c0 1.083-.4 1.906-1.213 2.47s-1.95.823-3.42.823c-.953 0-1.776-.087-2.425-.26s-1.083-.303-1.343-.433l.52-2.512c.52.217 1.083.4 1.602.476.563.13 1.083.173 1.646.173z" fill="#20bdff"/></svg>