<svg xmlns="http://www.w3.org/2000/svg" width="64" height="64"><path d="M47.075 21.932v5.022h.534c.214-2.543 1.692-4.113 3.187-4.113l2.5.007v16.637c.123 1.4-1.133 1.932-2.666 1.92l.006.53H60.6l-.002-.534c-1.58-.178-2.877-.137-2.86-1.646l.005-16.907h2.328c1.496 0 3.347 1.287 3.347 4.105H64V21.93H47.075zm-7.4 2.97c-.008-.766.585-1.655 1.624-1.655 1.794 0 2.13 1.9 1.685 2.82-.756 1.575-1.837 1.963-1.87 1.9-.612-1-1.43-2.125-1.44-3.064zm-2.788 11.6c-1.376-2.6-.358-4.473.98-5.607 0 0 2.635 5.33 5.4 8.088-1.072.95-4.32 1.4-6.372-2.48zM22.913 32.07h1.105c2.88-.245 3.922 1.838 4.074 4 .185 2.616-.862 4.872-3.507 4.872-1.184 0-1.67-.428-1.67-1.763l-.002-7.12zm9.683 6.373c.816 1.665 2.856 4.14 6.25 4.197 1.868.03 3.605-.47 5.667-2.42.735.643 1.778 1.715 3.37 1.807.448.026 1.82-.234 2.94-1.653.945-1.197 1.14-2.116 1.165-2.146l-.5-.368c-.317.65-.842 1.134-1.5 1.134-1.24 0-1.3-.482-2.758-1.93 1.44-2.114 1.36-3.202 2.145-4.32.796-1.134 1.47-1.777 2.82-1.824v-.567h-4.978v.504c.995-.075 1.154.7 1.025 1.365-.26 1.334-1.653 4.056-1.838 3.86-2.114-2.236-4.72-7.107-4.72-7.107 1.9-1.042 2.666-3.217 2.666-3.77 0-1.888-.992-3.476-3.767-3.83-1.686-.215-4.872 1.195-4.933 4.136-.028 1.332.796 2.666 1.654 4.32-2.242.883-4.002 2.624-4.746 4.882-.878-2.075-3.294-2.905-4.87-3.33h.063c1.183-.386 4.773-1.103 4.62-4.442-.2-4.384-5.8-5.136-7.807-5h-8.7v.57c1.297.1 2.565-.25 2.565 1.908l.005 15c0 1.8-.98 1.83-2.56 2.008l-.007.517h9.076c4.904.05 6.965-1.348 7.65-3.492zM0 41.936h9.07c6.308-.215 8.085-2.305 8.085-5.547 0-3.382-2.962-4.42-4.918-4.946 1.088-.215 4.32-1.5 4.274-4.556-.066-4.387-5.8-5.077-7.797-4.94h-8.7v.57c1.297.1 2.566-.252 2.566 1.908l-.006 14.93c0 1.8-.986 1.9-2.564 2.066zm7.045-9.895H8.15c2.55-.063 4.028 1.38 4.197 3.983.17 2.637-.904 4.84-3.63 4.872-1.183.014-1.67-.428-1.67-1.762zm1.295-9.028c2.8.2 3.54 2.607 3.54 3.498.006 2.68-.836 4.733-4.816 4.612v-8.1H8.34zm15.87.01c2.8.2 3.54 2.607 3.54 3.498.006 2.68-.837 4.733-4.816 4.612v-8.1h1.275" fill="#8a0025"/></svg>