<?xml version="1.0" encoding="UTF-8" standalone="no"?>
<!-- Generator: Adobe Illustrator 15.0.0, SVG Export Plug-In . SVG Version: 6.00 Build 0)  -->

<svg
   xmlns:dc="http://purl.org/dc/elements/1.1/"
   xmlns:cc="http://creativecommons.org/ns#"
   xmlns:rdf="http://www.w3.org/1999/02/22-rdf-syntax-ns#"
   xmlns:svg="http://www.w3.org/2000/svg"
   xmlns="http://www.w3.org/2000/svg"
   xmlns:sodipodi="http://sodipodi.sourceforge.net/DTD/sodipodi-0.dtd"
   xmlns:inkscape="http://www.inkscape.org/namespaces/inkscape"
   version="1.1"
   id="Layer_1"
   x="0px"
   y="0px"
   width="120"
   height="60"
   viewBox="-450 -300 120 60"
   enable-background="new -450 -300 1200 800"
   xml:space="preserve"
   sodipodi:docname="embedly-ar21.svg"
   inkscape:version="0.92.3 (2405546, 2018-03-11)"><metadata
   id="metadata33"><rdf:RDF><cc:Work
       rdf:about=""><dc:format>image/svg+xml</dc:format><dc:type
         rdf:resource="http://purl.org/dc/dcmitype/StillImage" /><dc:title></dc:title></cc:Work></rdf:RDF></metadata><defs
   id="defs31">
	
	
</defs><sodipodi:namedview
   pagecolor="#ffffff"
   bordercolor="#666666"
   borderopacity="1"
   objecttolerance="10"
   gridtolerance="10"
   guidetolerance="10"
   inkscape:pageopacity="0"
   inkscape:pageshadow="2"
   inkscape:window-width="1920"
   inkscape:window-height="1001"
   id="namedview29"
   showgrid="false"
   inkscape:zoom="6.3922453"
   inkscape:cx="71.984091"
   inkscape:cy="36.84796"
   inkscape:window-x="-9"
   inkscape:window-y="-9"
   inkscape:window-maximized="1"
   inkscape:current-layer="Layer_1" />
<g
   id="g878"
   transform="matrix(0.19657795,0,0,0.19657795,-420.87839,-131.66486)"><g
     style="fill:#4dc7e6;fill-opacity:1"
     transform="translate(7.0796423,-803.71682)"
     id="g6">
		<path
   d="M 25.579,71.245 -32.65,17.911 -90.275,71.864 c -18.34,17.166 -18.824,46.105 -1.074,63.878 l 37.51,37.559 c 11.625,11.645 30.469,11.727 42.191,0.191 L 26.731,135.726 C 44.88,117.867 44.354,88.446 25.579,71.245 Z m -18.73,47.423 -15.02,14.91 -44.232,-42.697 -9.221,9.016 c -3.059,3.056 -3.342,6.626 -0.281,9.689 l 29.408,28.109 v 18.813 l -42.266,-40.961 c -5.404,-5.402 -5.027,-18.373 -0.563,-22.849 l 43.049,-40.875 38.65,37.684 c 7.958,7.949 8.726,20.868 0.476,29.161 z"
   id="path2"
   inkscape:connector-curvature="0"
   style="fill:#4dc7e6;fill-opacity:1" />
		<path
   d="m -31.784,70.967 -10.93,11.412 33.391,32.417 5.721,-5.719 c 3.924,-3.922 3.506,-7.732 -0.422,-11.652 z"
   id="path4"
   inkscape:connector-curvature="0"
   style="fill:#4dc7e6;fill-opacity:1" />
	</g><g
     style="fill:#000000"
     transform="translate(7.0796423,-803.71682)"
     id="g24">
		<path
   d="m 156.91,80.401 c -4.629,0 -8.544,1.727 -11.286,4.465 -1.492,1.488 -2.352,2.98 -3.063,4.232 -0.469,-0.783 -1.645,-3.051 -2.738,-4.154 -2.98,-3.365 -7.051,-4.543 -10.969,-4.543 -6.195,0 -9.793,3.555 -11.613,6.719 v -5.461 h -7.678 v 42.623 h 8.154 v -23.35 c 0,-3.445 0.699,-6.425 2.266,-8.697 1.41,-2.35 4.23,-4.229 8.07,-4.15 4,0.074 6.508,1.723 8.07,4.225 1.414,2.354 1.805,4.939 1.727,8.466 v 23.506 h 8.227 v -23.506 c 0,-3.601 0.234,-5.953 1.961,-8.619 1.566,-2.588 4.626,-4.072 8.231,-4.072 3.84,0 6.109,1.332 7.602,3.523 1.879,2.428 2.348,5.953 2.348,9.484 v 23.189 h 8.148 v -23.506 c 0,-8.71 -2.258,-12.222 -6.02,-16.062 -3.132,-3.216 -7.523,-4.312 -11.437,-4.312 z"
   id="path8"
   inkscape:connector-curvature="0"
   style="fill:#000000" />
		<path
   d="m 203.457,80.409 c -5.746,0 -10.906,2.098 -14.82,5.566 V 81.733 66.295 h -8.152 v 57.986 h 7.836 v -4.574 c 3.906,3.621 9.098,5.824 14.902,5.824 14.5,0 22.449,-11.586 22.566,-22.641 0,-12.604 -9.812,-22.481 -22.332,-22.481 z m 14.734,22.56 c -0.074,7.363 -5.254,14.969 -14.969,14.969 -8.695,0 -14.496,-6.898 -14.496,-15.047 0,-8.068 5.953,-14.884 14.73,-14.884 8.391,0 14.734,6.582 14.734,14.884 v 0.078 z"
   id="path10"
   inkscape:connector-curvature="0"
   style="fill:#000000" />
		<path
   d="m 318.234,81.733 v 4.242 c -3.922,-3.469 -9.078,-5.566 -14.824,-5.566 -12.52,0 -22.328,9.877 -22.328,22.482 0.121,11.055 8.066,22.641 22.563,22.641 5.801,0 11,-2.203 14.906,-5.824 v 4.574 h 7.836 V 66.295 h -8.152 v 15.438 z m -14.589,36.205 c -9.711,0 -14.883,-7.605 -14.965,-14.969 v -0.078 c 0,-8.302 6.348,-14.884 14.73,-14.884 8.781,0 14.738,6.816 14.738,14.884 0,8.148 -5.8,15.047 -14.503,15.047 z"
   id="path12"
   inkscape:connector-curvature="0"
   style="fill:#000000" />
		<path
   d="m 337.688,113.008 c -3.176,0 -5.574,2.488 -5.574,5.633 v 0.027 c 0.031,2.785 1.98,5.664 5.66,5.664 3.293,0 5.488,-2.605 5.488,-5.691 0,-3.055 -2.254,-5.633 -5.574,-5.633 z"
   id="path14"
   inkscape:connector-curvature="0"
   style="fill:#000000" />
		<path
   d="m 81.007,80.401 c -12.932,0 -22.494,10.424 -22.494,22.65 0,11.055 8.297,20.762 21.764,21.195 0.27,0.008 21.838,0.039 22.117,0.039 v -6.973 c -0.268,0 -21.848,-0.016 -22.117,-0.035 -6.236,-0.352 -13.158,-3.461 -13.535,-11.723 h 36.443 c 0.701,-7.125 -1.418,-13.791 -6.428,-18.884 -4.076,-3.994 -9.641,-6.269 -15.75,-6.269 z m -14.11,18.808 c 0.395,-5.799 5.799,-11.834 14.109,-11.834 8.066,-0.156 13.711,6.191 14.102,11.834 z"
   id="path16"
   inkscape:connector-curvature="0"
   style="fill:#000000" />
		<path
   d="m 253.242,80.401 c -12.93,0 -22.484,10.424 -22.484,22.65 0,11.055 8.297,20.762 21.754,21.195 0.277,0.008 21.848,0.039 22.121,0.039 v -6.973 c -0.266,0 -21.852,-0.016 -22.121,-0.035 -6.23,-0.352 -13.148,-3.461 -13.527,-11.723 h 36.438 c 0.703,-7.125 -1.41,-13.791 -6.426,-18.884 -4.075,-3.994 -9.642,-6.269 -15.755,-6.269 z m -14.105,18.808 c 0.398,-5.799 5.797,-11.834 14.105,-11.834 8.074,-0.156 13.715,6.191 14.109,11.834 z"
   id="path18"
   inkscape:connector-curvature="0"
   style="fill:#000000" />
		<path
   d="M 357.152,112.094 V 66.256 h -8.082 v 48.263 c 0,5.348 4.352,9.699 9.699,9.699 h 5.051 v -8.082 c 0,0 -1.496,0 -3.336,0 -1.84,0 -3.332,-1.812 -3.332,-4.042 z"
   id="path20"
   inkscape:connector-curvature="0"
   style="fill:#000000" />
		<polygon
   points="379.434,123.031 373.82,136.367 382.453,136.367 404.352,81.659 395.574,81.659 383.664,112.84 371.91,81.659 363.133,81.659 "
   id="polygon22"
   style="fill:#000000" />
	</g></g>
</svg>