<svg xmlns="http://www.w3.org/2000/svg" width="120" height="60" viewBox="0 0 18.261 9.143"><path d="M13.43 1.7c-.092-.001-.2.025-.25.065-.152.1-.708 1.833-.94 2.723 0 0-.05.185-.117.612l-.06.424c-.058.314-.282.483-.476.446-.242-.046-.277-.406-.212-.673.07-.293.312-.624.6-.544.134.03.203.015.212-.074.01-.115-.126-.184-.126-.184-.533-.268-1 .17-1.13.8-.143.723.304 1.297 1.03.885.227-.13.215.172.725.154.37-.036.583-.3.4-.46-.126-.1-.2.095-.42.068-.45-.058.054-1.36.313-2.173.222-.693.47-1.2.68-1.752.085-.226-.053-.303-.206-.304zm-8.107.148c-.77.02-2.2.756-3.28 1.607-.442.385-.697.476-.4.784.256.256.42.06.42.06.244-.192.77-.73 1.116-.986.493-.365 1.174-.892 1.776-1.033.478-.12.623.02.56.507-.038.418-.36 1.358-.36 1.358a20.24 20.24 0 0 1-.642.277c-.115.043-.236.014-.25.277-.006.282.165.176.28.132.1-.034.297-.134.375-.166.058-.045.12-.007.1.077-.058.186-.162.5-.36.925l-.756 1.616c.006.135.153.154.347.157.18-.014.26-.138.26-.138l.6-1.38.5-1.404c.038-.14.12-.17.23-.197l.532-.15c.354-.087.455-.068.5-.313.032-.17-.043-.25-.043-.25l-.925.283c-.135.058-.1-.083-.1-.083s-.02.1.065-.277c.253-1.112.106-1.408-.095-1.577-.095-.08-.237-.112-.415-.108zM15.768 3.82c-.132-.006-.434.22-.317.8-.16.603-1.383 1.654-1.546 1.23-.04-.104.067-.274.347-.332.462-.096.423-.383.203-.412-.346-.045-.442-.045-.854-.14-.163-.017-.158-.234.034-.23.08-.003.277.024.7.04.443.017.53-.328.513-.54-.452.098-.56.123-.95.123-.4 0-.916.113-.925.473s.46.44.704.507c.067.016.1.072.046.108-.104.083-.338.192-.366.387-.04.277.212.495.532.5.426-.01.897-.2 1.35-.73.128-.153.27-.412.36-.526.02-.04.08-.06.108-.058.08.018.197.078.18.166-.023.134-.4.553-.148.805.15.155.527.264.827.046.28-.204.182-.4.07-.403-.08-.01-.303.27-.482.07-.15-.165.206-.505.277-.627.102-.176-.294-.3-.46-.53-.108-.143.17-.58-.178-.698-.007-.002-.016-.006-.025-.006zm-7.674.452c-.376.112-.567.098-.965.098-.418 0-.983.058-.96.46.02.34.497.433.744.46.07-.007.1.06.04.095-.1.113-.238.267-.255.393-.037.273.102.513.45.507.372-.006.494-.276 1.116-.655.174-.106.4-.284.48-.298.034 0 .083.01.08.077-.053.248-.1.415-.046.627.045.15.242.243.384.135.237-.18.24-.284.547-.688.05-.067.24-.373.326-.332.072.034.05.134.037.212-.065.38-.23.977.52.885.178-.022.323-.143.187-.27-.082-.077-.174-.022-.277-.046-.24-.055.354-1.15.07-1.352-.398-.285-.768.22-1.045.6-.1.146-.2.082-.26-.123-.08-.228-.552-.06-.824.08-.434.224-1.238.973-1.312.6-.013-.065.094-.2.3-.28.23-.083.486-.157.486-.295 0-.106-.064-.182-.132-.178-.32.018-.7.1-1.116-.015-.097-.001-.14-.244.148-.212a12.98 12.98 0 0 0 .888.034c.453.01.463-.33.403-.5z"/></svg>