<svg xmlns="http://www.w3.org/2000/svg" width="120" height="60"><g transform="matrix(.022172 0 0 .022172 16.871951 2.359016)"><path d="M2889.4 6.348l-2.04-4.07c-1-1-2.03-2.04-4.06-2.04l-4.08 1.03c-2.03 2.03-3.05 3.05-3.05 5.08l-86.52 1566.347 13.24-2.035 83.46-1523.702 99.75 163.88h-1.02c75.32 221.88 106.87 458.02 94.66 708.4l6.1 9.16 98.73 175.06 6.1 6.1c151.66 133.336 321.63 222.907 509.94 268.707l45.8 74.3 6.1 2.03 1.02-2.03L2887.33 35.75l2.04-29.52m-30.5 552.8c106.87 218.84 145.54 549.63 117.05 992.392l416.3-50.894zm948.6 961.85c42.74-5.086 70.22-14.246 82.44-27.476L1710.74 1759.06c1.02 90.586 41.73 161.836 121.12 212.723 21.37 15.27 43.77 26.465 64.12 33.6 19.34-22.387 40.72-38.676 66.17-53.946h1c228-138.422 566.94-159.8 1014.78-65.136l5.1 1c48.86 10.18 97.7 22.4 143.52 36.645 13.22 2.035 24.42-2.035 33.58-10.18 16.3-12.215 36.65-21.375 64.13-27.476v-1.02c72.27-128.25 169.97-222.906 292.12-284.996 84.48-41.727 182.2-69.215 291.1-79.395m-1046.33 39.696L2860.9 31.798c-144.53 557.77-376.6 1078.9-695.18 1562.37l595.44-33.582M2200.32 329.008l-4.07-2.04-4.07 1.02-2.04 5.08-82.44 1323.188 12.2-1.02 82.45-1322.17-2.04-4.06m-116 1298.75l87.53-1290.608-461.08 1330.308 373.55-39.7" fill="#ccc"/><path d="M2102.6 2057.953c-115.02 54.96-198.48 64.12-251.4 30.54-52.93-35.625-134.36-27.485-244.28 24.422m765.4-46.822c-21.37-7.125-44.78-12.2-69.2-14.25-49.87-4.066-109.93 15.27-180.16 57.004-70.23 42.746-154.7 59.035-255.48 49.87m1132.86-196.444c-484.5-99.742-833.6-76.336-1047.35 71.25m1352.7-23.406a220.58 220.58 0 0 0-69.22-14.254c-49.87-4.067-109.92 15.27-180.15 57.004-70.23 41.726-154.7 58-255.48 49.87M2655.3 341.218c-49.88-30.54-101.78-22.4-155.73 25.44-46.82-47.83-95.67-55.98-146.57-25.44m189.3-171c-50.9-30.53-100.76-18.32-151.66 36.64-49.88-54.96-100.76-67.17-151.66-36.64" fill="none" stroke="#ccc" stroke-linecap="round" stroke-linejoin="round" stroke-width="12"/><path d="M56.77 1763.86h134.915c40.538 0 70.305 11.54 89.303 34.615 19 23.08 25.153 55.242 18.485 96.488-2.734 16.92-7.612 32.45-14.637 46.593s-16.3 27.067-27.846 38.757c-13.718 14.068-29.074 24.148-46.078 30.23s-38.75 9.123-65.23 9.123H85.588l-14.952 92.515H.472zm61.252 55.105L94.4 1965.068h42.675c28.287 0 49.252-5.774 62.9-17.338 13.638-11.565 22.634-30.807 26.988-57.735 4.197-25.968 1.757-44.294-7.3-54.994-9.063-10.688-26.92-16.036-53.578-16.036H118m260.232-147.62h69.635l-14.952 92.515h61.95c39 0 66.012 7.4 81.076 22.157 15.07 14.776 19.952 38.58 14.643 71.433l-26.22 162.217h-70.7l24.954-154.4c2.84-17.552 1.465-29.488-4.124-35.815-5.6-6.32-17.284-9.487-35.07-9.487h-55.58l-32.274 199.7h-69.647l56.298-348.322m288.217 92.517H801.35c40.547 0 70.305 11.54 89.303 34.615 18.995 23.08 25.154 55.242 18.5 96.488-2.734 16.92-7.616 32.45-14.633 46.593-7.033 14.144-16.322 27.067-27.85 38.757-13.722 14.068-29.077 24.148-46.08 30.23s-38.745 9.123-65.235 9.123H695.26l-14.952 92.515h-70.16zm61.26 55.105l-23.613 146.103h42.675c28.286 0 49.248-5.774 62.9-17.338s22.642-30.807 26.995-57.735c4.194-25.968 1.758-44.294-7.304-54.994-9.063-10.688-26.92-16.036-53.568-16.036h-48.075" fill="#6c78af"/><path d="M1027.75 1597.324h134.947l59.28 323.87 163.973-323.87h134.433l-68.203 422.055h-90.096l60.562-328.745-165.335 328.745h-97.63l-62.092-332.2-44.47 332.2h-93.583l68.212-422.055m654.587 353.756h68.13l39.048-241.656h84.693l-48.747 301.634c-6.618 41.008-21.443 71.383-44.45 91.124-23 19.73-54.93 29.604-95.75 29.604h-166.08l10.15-62.788h151.5c16.257 0 29.365-3.8 39.322-11.4 9.944-7.604 16.1-18.6 18.427-33.034l.844-5.193h-74.965c-47.95 0-80.653-9.14-98.093-27.422-17.453-18.28-22.717-48.765-15.83-91.453l30.9-191.08h83.737l-29.87 184.764c-3.774 23.373-2.642 38.697 3.434 45.975 6.064 7.278 20.594 10.916 43.602 10.916m419.968-353.747h97.52l118.187 422.055H2215.74l-23.907-100.46h-189.955l-55.187 100.46h-97.532zm31.65 83.806l-90.18 162.444h130.218l-40.037-162.444m503.348 338.25h-162.696c-49.164 0-85.266-13.98-108.32-41.94-23.04-27.957-30.505-66.932-22.43-116.914 3.316-20.5 9.23-39.3 17.75-56.446s19.77-32.797 33.76-46.97c16.63-17.042 35.3-29.25 56.03-36.624s47.045-11.06 78.96-11.06h72.662l18.113-112.1h84.387zm-73.638-66.463l28.57-176.724h-51.222c-34.352 0-59.84 6.95-76.487 20.832-16.622 13.893-27.572 37.027-32.802 69.397-5.08 31.422-2.078 53.7 9.006 66.812s32.705 19.683 64.865 19.683h58.07m197.357-243.494h325.233c47.155 0 79.702 8.907 97.626 26.7 17.913 17.802 23.65 46.703 17.2 86.702L3169.3 2019.38h-85.33l30.043-185.926c3.7-22.795 2.56-37.83-3.384-45.115-5.966-7.278-20.018-10.92-42.18-10.92h-47.5l-39.107 241.962h-86.604l39.107-241.962h-98.978l-39.107 241.962h-85.33l50.102-309.956m628.62-35.225h-88.82l12.423-76.877h88.82zm-55.792 345.18h-88.822l50.1-309.956h88.82l-50.1 309.956m123.352-309.957h159.352c48.16 0 81.135 8.763 98.9 26.27 17.778 17.516 23.394 46.56 16.836 87.132l-31.76 196.555h-84.705l30.152-186.5c3.742-23.182 2.45-38.22-3.873-45.1-6.325-6.9-20.7-10.35-43.087-10.35h-68.117l-39.107 241.962h-84.693l50.1-309.956" fill="#f89c0e"/></g></svg>